<?xml version="1.0" encoding="UTF-8" standalone="no"?>
<svg xmlns:svg="http://www.w3.org/2000/svg" xmlns="http://www.w3.org/2000/svg" xmlns:xlink="http://www.w3.org/1999/xlink" height="1000" width="1000">
<!-- made with pythonshp (GPL): github.com/sanjayrao77/pythonshp , underlying data may come from naturalearthdata.com -->
<!-- 
COPYRIGHT: THIS SVG FILE IS RELEASED INTO THE PUBLIC DOMAIN
 -->
<!-- 
vars : {
	'cmdline' : 'pythonshp.py publicdomain wiki1 antarctica locatormap'
	'title' : 'Antarctica locator'
	'version' : '1.0.5'
}
 -->
<defs>
	<radialGradient id="watergradient" cx="500" cy="500" r="500" fx="500" fy="500" gradientUnits="userSpaceOnUse">
		<stop offset="0%" stop-color="#70add3"/>
		<stop offset="11%" stop-color="#6eaad0"/>
		<stop offset="22%" stop-color="#6ca7cc"/>
		<stop offset="31%" stop-color="#6ba5c9"/>
		<stop offset="41%" stop-color="#69a2c6"/>
		<stop offset="51%" stop-color="#679fc2"/>
		<stop offset="59%" stop-color="#669dbf"/>
		<stop offset="67%" stop-color="#649abc"/>
		<stop offset="75%" stop-color="#6297b9"/>
		<stop offset="81%" stop-color="#6095b6"/>
		<stop offset="87%" stop-color="#5f92b2"/>
		<stop offset="92%" stop-color="#5d8faf"/>
		<stop offset="95%" stop-color="#5b8dac"/>
		<stop offset="98%" stop-color="#598aa8"/>
		<stop offset="100%" stop-color="#5685a2"/>
	</radialGradient>
	<radialGradient id="landgradient" cx="500" cy="500" r="500" fx="500" fy="500" gradientUnits="userSpaceOnUse">
		<stop offset="0%" stop-color="#dddddd"/>
		<stop offset="11%" stop-color="#d7d7d7"/>
		<stop offset="22%" stop-color="#d1d1d1"/>
		<stop offset="31%" stop-color="#cccccc"/>
		<stop offset="41%" stop-color="#c6c6c6"/>
		<stop offset="51%" stop-color="#c0c0c0"/>
		<stop offset="59%" stop-color="#bbbbbb"/>
		<stop offset="67%" stop-color="#b5b5b5"/>
		<stop offset="75%" stop-color="#afafaf"/>
		<stop offset="81%" stop-color="#aaaaaa"/>
		<stop offset="87%" stop-color="#a4a4a4"/>
		<stop offset="92%" stop-color="#9e9e9e"/>
		<stop offset="95%" stop-color="#999999"/>
		<stop offset="98%" stop-color="#939393"/>
		<stop offset="100%" stop-color="#888888"/>
	</radialGradient>
	<radialGradient id="bordergradient" cx="500" cy="500" r="500" fx="500" fy="500" gradientUnits="userSpaceOnUse">
		<stop offset="0%" stop-color="#444444"/>
		<stop offset="11%" stop-color="#3f3f3f"/>
		<stop offset="22%" stop-color="#3a3a3a"/>
		<stop offset="31%" stop-color="#363636"/>
		<stop offset="41%" stop-color="#323232"/>
		<stop offset="51%" stop-color="#2d2d2d"/>
		<stop offset="59%" stop-color="#292929"/>
		<stop offset="67%" stop-color="#242424"/>
		<stop offset="75%" stop-color="#1f1f1f"/>
		<stop offset="81%" stop-color="#1b1b1b"/>
		<stop offset="87%" stop-color="#161616"/>
		<stop offset="92%" stop-color="#121212"/>
		<stop offset="95%" stop-color="#0e0e0e"/>
		<stop offset="98%" stop-color="#090909"/>
		<stop offset="100%" stop-color="#000000"/>
	</radialGradient>
</defs>
<style type="text/css">
<![CDATA[
.fs {font:14px sans;stroke:#ffffff;stroke-width:2px;stroke-opacity:0.8;text-anchor:middle}
.ft {font:14px sans;fill:#000000;fill-opacity:1;stroke-opacity:0;text-anchor:middle}
.sb {stroke:url(#bordergradient);fill-opacity:0}
.sg {stroke:#000000;fill-opacity:0.0;stroke-opacity:0.2}
.sh {fill:#45a211;stroke:#000000}
.sl {fill:url(#landgradient);stroke:url(#bordergradient)}
.sp {stroke:url(#landgradient);fill-opacity:0}
.sr {stroke:url(#watergradient);fill-opacity:0}
.sw {fill:url(#watergradient);stroke:url(#watergradient);stroke-opacity:0.8}
.tb {fill:#eeeeee;stroke:black;stroke-width:2}
.tg {stroke:black;stroke-opacity:0.2;fill-opacity:0}
.th {fill:#45a211;stroke:#378100}
.tl {fill:#aaaaaa;stroke:black}
]]>
</style>
<circle cx="500.0" cy="500.0" r="500.0" fill="url(#watergradient)"/>
<path class="sl" d="M610,15h-1l-1,-1h-3l-1,-1h-1h4l2,1v-1v1h5l1,1h2l2,1h1h-1h1l1,1h1l1,1h1h-1h1l1,1h2v1h2l1,1h1l1,1h4l1,1h1l1,1h4v1h3v1h1v1h3v1h2v1h3v1h2l4,2h-3v-1h-2l1,1h1l1,1h1l1,1h1l1,1h1v-1l1,1h3l1,1h2l1,1h1l2,1h-1h1v1h1l1,1h3v1h2v1h2v1h1l1,1h2l1,1h3l1,1h2v1h1l2,1h1l1,1h2l1,1h2v1h1l1,1h2v1h1h-1l1,1h1v1h1l1,1h1v1h1h-2l-1,-1h-3l2,2h-1l-1,-1h-4l-1,-1h-4v1h-1v-1h1h-2l1,1l-1,-1h-2l-1,-1h-1l-1,-1h-1v1h-1l-1,-1h-2v-1h-3l-2,-1h-1v-1v1h1v-1h-3v-1l1,1h2l1,1h1v-1h-3v-1h-1l-1,-1h-1v-1l2,2h-3l-2,-1v2h-3v1h1v1h1v1h-3v-1h-1h1h-1l1,1v1l1,1v2h-1l-1,-1v2l1,1h-2l1,1h1l1,1h1l1,1v1l2,1h1l4,2h1v1h-1l-3,-1l-1,-1h-4v1h-3l-1,1h-1v-1h2l-1,-1h-3v-1h-2l-2,-1h-2l-1,-1h-7l1,1h1l1,1h1l1,1l-1,-1h-2l-1,-1h-1l1,1h1l1,1h-1l-2,-1l-1,-1v1l2,1l-2,-1h-1v-1h-1l-2,-1v-1h-1l-1,1h1v1l2,2h1v1h1l2,1v1h-1v-1h-1v1h1h-2l1,1h2v1h2l1,1l2,1h2v1l1,1v1l-1,-1h-1l-1,-1h-3v1h2v1h1h-3v-1h-2l3,3h1v1l1,1h-1l-2,-2h-1v2l-1,-1v-1l-2,-1h-1l-1,1l-3,-3h1l-2,-2h-2v-1h-1l1,-1h4l2,1h2l1,1h2v-1h-2l-1,-1h-3l-1,-1h-6v-1l-1,-1h-2v-1h1l1,1v-1h-3v-1h-1l-1,-1h-1l-1,-1h-1v-1h-1v-1h-1l-3,-1v-1h-1h1l-1,-1v-1l-1,-1v-2l-1,-1h-2v-1l-2,-1h-2v-1h-2l-2,-1l-1,-1h-3l-1,-1l-2,-1h-1l-2,-1h-4v-1h-2l-1,-1h-1l-2,-1l-1,-1h2l1,1l-1,-1h-1l-2,-1h-1v-2h-3l-1,-1v1h-1v1h-1l-1,-1h-1v-1l-1,-1h1l-1,-1l-1,1l-1,-1h-1v1h-4v1h2v1h-2l2,2h1l1,1h1l3,1l2,1h1l4,4l3,1l4,2h7v1h-2l1,1l8,2l1,1h2l3,2h1l2,1l1,1v1h-2l-2,-2h-3v-1h-2l-1,-1v1h-1v1l-1,1l1,1h2l1,1h1v1l1,1h-4l1,1v1h-2l-1,1h-3v-1h1v-2h2v-1h-1l-1,-1v-1l-2,-1l-1,-1v-1h-3l-3,-1v-1l-1,-1h-3v-1h-2l-2,-1l-1,-1h-4l-2,-1h-1l-3,-2h-1l-2,-1l-1,-1h-4v-1h1h-1l-1,-1h-2v-1h-1v-1h-1l-3,-3h-2l-3,-1h-6l-1,1h-5l-1,1h-2l-1,1h-8v-1h-6l-1,-1h-3l-3,1l-1,1h-1l2,2v1h-1h1v1l-6,1l-1,1h-4l-2,1h-3v1h1h-2l-2,2h-1l-1,1h-1l-1,2l1,2h2v1h-1l-3,1l-3,3h1v1h-4l-2,1h-1l-2,1l-1,1h-4v1l-1,-1h-3l-1,1h-7l-2,1h-4v1l-1,1v-1v1h-4l-1,-1h-1v-1h-1v-1h1v-1h1h-1l-1,1v-1l-3,-1h-2l-1,1h-1l-2,1h-1l-1,-1h-4l-1,1h-1v-1l1,-1v-1h1l-1,-1l1,-1v-1h1h-4v-1h2v-1h1l1,-1h-1v1h-2v1h-2v-1l1,-1v-1h2l1,-2l1,-1l1,-2h1v-4h-1h1v-1l1,-1h-1h1v-1h-1h-1l1,-1h-2v-1h2l1,-1h4v-1h3l1,-1h1l1,1h5l2,-1h5l2,1h5l2,-1h3l3,1v-1h2l2,1h2l1,-1h3l1,-2v-2h1h-1l1,-1v-2l1,1h1l1,1h1h-1v-1h-1v-1h-1v-1h-1v-1h-1l-3,-1h-1v-1h-1v-1h-2v-1h-1v1v-1h-10v-1h-1h1h-1h2v-1h-1l3,-1h6l1,1l2,-1h2v1l1,-1h2v-1h-1v-1h-1h8l2,1l1,-1h1v-1h7v-1h1v-1h1l1,-1h8v-1h2l1,1h1v-1h-1h1h-1v-1h2v-1h1v-1v1h1l1,-1h23v1v-1h-4v-1h-1v-1h5v1h6v1h-1h11l2,1h2l1,1h20l1,1h1h-1l-1,-1l2,1h1l1,1h3v-1h3v1h3l-1,-1h-1l-1,-1h-1v-1h-1l-1,-1h5l2,1h1l1,1h3Z"/>
<path class="sl" d="M247,69h-1l-2,1l-1,1l-2,1l-2,2h-1h1l1,-1h1l2,-2h1l2,-2ZM21,358h-1v1ZM20,361l-1,3v1l-1,1v1l-1,2v4l-2,5v1v-1v3h-1v4h-1h1h-1v4h-1v5l-1,1v5h1v-2l1,-2v-1l1,-2v-2l1,-2v-1l1,-1v-1h1v1l1,1l-1,1v6l-1,2v1l-1,1v2v-7l1,-1v-1v1l-1,1v-1l1,-1h-1v-1v1l-1,1v3h-1h1l-1,4h-1v7h-1v3l-1,1v-2l1,-1v-1h-1v1v-1v1v-1v1h-1v1v-1v1v-5l1,-1v-1l-1,1v1v-1l1,-1v-4l1,-1v-3l1,-1v-3l1,-1v-4l1,-1v-3l1,-1v-3l1,-1v-3l1,-1v-3l1,-1v-2l1,-1v-3Z"/>
<path class="sp" d="M248,68v0M238,74h1l1,-1h1l2,-2h1l2,-2h1M20,360v-1l1,-1M9,406v-3l1,-1v-4l1,-1v-3l1,-1v-3l1,-1v-4l1,-1v-3l1,-1v-3l1,-1v-3l1,-1v-3l1,-1v-2l1,-1v-3l1,-1"/>
<path class="sl" d="M109,344v-1l1,-1h1v1l1,3v4l1,3v4h1v1l1,1l1,-1l1,1l1,2v2h-1v1l-2,2v1l-1,1v2l-1,2l-1,1v1l-2,2v1l-1,2v1l-1,1v4l-2,2v2h-1l-2,2v1l1,-1h1l4,-4l2,-4h1v-1v3h1v3h1v1h1l2,-2h2l1,-1l1,-2v2l-1,2v4l-1,1l1,-1v-1l1,-2l1,-3v-1l1,-1l1,-3l1,-1v1h1v-1h1h-1v-3l1,-1v-2h1v-1h1v-1h2v-1l1,1v-2h1l1,1v-1h1l1,1h6l1,1v-1h1v2l1,1v-2l1,-1v1h2v1h1v1l1,1h-1v2h-1h1v-1h1v-1v1l1,1l-1,1v1h-1v5l2,-4v-2l1,-1v3l1,-2h1l4,-4h2v1h6l1,-1h1v1h1l1,-1h1l5,-3h6v1h1l3,1l1,1h3v1l4,4l2,1h2l1,1h2l1,1h1l2,-1h1l1,-1h4l1,1l2,5v2l1,1l1,3v2h1v12l-1,5l-3,6l-1,1v1l-1,-1v2l-3,6l-2,2l-2,4v1h-1l1,1l-1,1v1v-2h-1v4l-2,8l-1,1l-1,3l-1,1l-2,-2v1l-1,1h1v3l-1,1v7h1v5l1,2v3l2,4v13l1,3v2l-1,1v1l-1,2v5l2,4v3h-1l-1,2v7l-1,3h-1v7l1,3v1l-4,4l-1,3l1,1v2h-1l-3,1l-1,1h-2v-2l-1,1l1,1v1h-1l-2,2h-1l1,-1h-2l-1,1h-1l-1,1v2h1l-2,2l-1,2l-1,1v2h-2l-5,6l-2,7l-1,1v1l-1,1h1v1l-1,2v-1h-1v2h-2l1,1h2v2l-1,1h1v4h1v2l1,1v1l1,2l1,1v3l2,4v3l1,1l-2,4v2l-1,3v4l1,6v10l-2,5v1h-1v-1h1v-1h1v-11l-1,-2h1v-2h-1l-1,2l-1,-1h-1v-1h-1l1,1v1h1v2l1,2l-1,-1l1,2h-1l1,1v1l-1,2v4l1,2v1l1,1v3l1,3v5l-1,5l1,2v6h-1v1l-1,3h-3l-1,1h-1v2h-2v-1l-2,1l-2,-1h-2l-1,1h-1v-1h-2l-1,-2l-1,-1l-2,-4v-3l-2,-2l2,3v1h-1l2,5v1l1,1h1v1l1,1v1l2,2h3l1,1l2,1l2,2v2l2,2v1h2l1,1v-1h1v1l1,2l1,1l1,5v5l1,1v1l-1,3l-3,6l-4,4v1l-1,1h-1l-1,1h-1l-1,-1v1l2,2v1h1l3,3l-1,1l1,1l1,2v1l3,3v3l-3,3h-5v-1v3l7,7h2v1h2v-1l-1,-1v1v-2h2v1l2,2v2h-2v-1h-2v3h3v3l1,2v1l3,3v1l2,2v2l2,2v1h-2v2h1v1l-1,1l1,3l1,1l1,2v1h1v1l1,1h2l4,2l2,-1h1l1,1l1,2h1v2h1l1,1v4l1,1v3l1,1l1,2v1h1l3,3v3h-1v-1h-1l-1,-1v1h1v1h2v3l3,3v1l1,1v-1l2,2h1v1h1h-1v1h2l4,2h1v1h-3l1,1v6h1l1,1l1,2l2,2l2,1v1h-5l-1,-1v-1h2v1l-1,-2v-1l-1,-1v-1h-2l1,2v2l1,1v1h1h-2l-2,-2v-1h-1v-1l1,1v-1l-1,-1l1,-1v-1h-1l-1,1l1,1h-1v1h1v2h1v1h1h-3v-2l-1,-1v2h-2v-1h-1l-1,-1h-1h2v-1h-1v-1l1,1v-3l1,1h1v1h1l-1,-1h-1l-1,-1v-1h-1v-1h-1h1v4h-1v-1h-2l-1,-1h1l-2,-1l-1,-1v1h-2l-2,-1l-1,-1v-1h-1v-1h-1h2l2,1h1l-1,-1v-1h-1v-1v1l1,2l-2,-2h-3v-1l-1,-1l1,-1h-2v-1l-1,-1h1l-1,-1h-1v-1h-1v-1h-1v-1v1l1,1v1h1l1,1h-1v-1h-1l-5,-5v-1v1h-1l-1,-1h-1l-1,-1l2,-2h1l-1,-1h-1l-1,-1l1,1v2h-1v-1h-1l-1,-1h1v-1h-2v-1l-2,-2v-1h-1v1h-2l-1,-1v-1v3h1v1h1h-2v-1h-1v-2l-1,-1v-2h-1l-1,-1v-4l-1,-1v-1l1,1l1,2l2,2v1v-2l-2,-1v-1h1v1l3,3v1h1l-2,-2v-1l-2,-2h-1v-1h-1l-1,-1h1l-1,-1v-1h1l-1,-1v1l-2,-2v-3l-2,-2h-2l-2,-2v-1l-1,-2h-1l-1,-1v-1l-1,-1v-1l-3,-3v-1l-2,-2h1l1,1l-1,-1l-1,-2l-1,1h-1v-3l-1,-1l1,1v1h-1v-1h-1v1l1,2v1h-1l-1,-1h-1v-1l-3,-3l-2,-4l-3,-3v-2l-2,-3l-5,-5v-1h-1l-1,-2l-1,-1v-1l-2,-1l-1,-1v-1l-1,-1l1,-1v-1l-3,-3v-2l-1,-1l-1,-3l-1,-1v-1l-1,-1v-2l-1,-1l-1,-2v-1l-1,-3l-2,-2v-1l-1,-2v-1h-1v-2l-2,-2l-1,-2v-1l-1,-3l-1,-1v-1l-1,-1l-2,-3l-1,-2l-3,-3l-1,-2l-1,-1l-1,-2v-2l-3,-6v-1h-1l-1,-2v-2l-1,-1v-2l-2,-3v-2l-1,-1v-2l-1,-1v-1l-1,-2v-1l-2,-4v-1l-1,-2l-1,-1v-1l-1,-2v-3l-2,-3l-1,-1l-1,-2v-2l-1,-1v-3l-2,-2v-1l-1,-1v-3l-1,-2l-1,-3v-3l-1,-2v-1l-1,-1v-1l-2,-4l-1,-1v-3l-1,-3l-2,-2v-2l-2,-3v-2l-1,-2h-1l-2,-2h-1l-1,-1v-1l-1,-1h-2l-1,-1h-2l-1,-1h-4l-1,-1h-2v-1l-2,-2h-1v-1l-1,-1v-1h-1v-2l-1,-1v-4l-2,-2v-1l-1,-1v-1l-1,-1v-1h-1v-1l-1,-2v-1l-1,-1v-2l-1,-1l-1,-4l-1,-1v-2l-1,-1v-2l-1,-1v-1l-1,-2v-2l-1,-1v-1h-1v-1l-1,-2v-3h-1v-2h-2v-5l-1,-1v-4l-1,-1v-10l1,-1v-10l1,-2h-1v-1v4h-1v-9l-1,-2v-1l1,-1v-9l1,-2v-8l1,-1v-3l1,-1v-2h-1v-1l1,-1v-6l1,-1v-2l1,-1v-4l1,-1v-5l1,-3v1h-1l1,-1h-1v1v-3l1,-1v-8l1,-2v-12l1,-1v-1l1,-2v-6l1,-1v1v-2h1v-2l2,-6v-1l1,-1v-3h1v-3l1,-1h-1v1v-1l1,-1v-3l1,-1v-2l1,-2l1,-1v1v-1l1,-1v-2l1,-1l4,-7v-2l2,-2v-2l1,-1v-2h1v3h-1v2l-1,2h-1v6l-1,2v2l-1,1v1l-1,3v4h1v-2h1v-2l1,-1v-9l1,-1v-1l2,-3l1,-2l1,-1v-2h1v-2l-1,2v-2l1,-1v-2h1v3l1,-1h2v5l2,-2l1,-2l3,-3h1v1h2v-1h1v-1l3,-4l2,-1v-1l-1,1h-1l3,-3l2,-1v-1l1,-1l2,-1l1,-1v1h-1l-3,3h1l-1,1h1v2h-1h1v-1l1,1v1v-1l1,-1l1,1v-1h1v-1l1,1h1v2h-1v3l-1,1v2l-2,1h2v-1l1,-1l2,-1v-1l1,-1l1,1h2l3,3v4l-1,1v2l1,-1v-1l1,-1h1l1,1v1h2v3l1,-1v-1l2,-1h3v-1l1,-1l2,-1l2,-2l3,-1h1v3l-1,1h1l1,-3v-1l2,1l1,-1h2l2,2h1v1h1v3l1,-1v-1l1,2Z"/>
<path class="sl" d="M819,435v1l1,1h-1l1,1l-1,1v2h-1v7h-1v7h-1v1h1v2h-1v9l-1,1v1l1,-1v4l-1,1v1h-1v1l-1,2l-2,2h-1v1l-2,2h-1v1l-1,1l-3,1h-1v1h-5l-2,1h-2l-5,2l-1,1h-1v1l-2,2l-2,1v1h-1v1h-1v1h-1v-1h-1l-1,1l-2,1l-2,2l-4,2l-1,-1v3l-1,3v1l1,1v15l-1,1h1v-2h1v2l-1,2v3l-3,6v1h1l-1,2l-1,1l-1,2l-1,1h-1l-3,1l-6,1h-2l-1,1l-3,1l-2,1l-1,1v1l-1,1v1l1,1l1,-1v1l-3,7l-1,3l-1,1l-2,5l-5,5h-2l-8,8l-2,3l-4,4l-3,2l-1,1l-6,4l-2,2l-3,2l-2,1l-3,2h-1l-3,2l-2,1l-4,1h-1l-3,-1h-1l-2,2h-1l-2,-1h-1l-1,1h-2l-2,-1l-3,-1l-1,-1l-2,1l-3,-1h-1l-1,-1l-1,1h-1l-4,2l-1,-1h-8l-3,2h-3l-1,-2h-1v-2h-3v-3h-2v2h-1v-2l1,-1v-1l1,-1l-1,-2v-1l-1,-1v-1h-1v-4h3l1,-2v-7l-2,-3l-1,-3l-1,-5l-1,-3l-1,-6l-1,-4l-2,-3v-1l-3,-3v-1l-4,-7v-9l-1,-1v-3l-1,-2l1,-2v-6l-1,-2l-1,-4v-1l1,-3v-7l1,-1v-1l-1,-2v-2l-3,-4v-2l-1,-1l-4,-11l-5,-12l-3,-3v-1l-2,-4v-7l1,-3v-9l2,-2v-1l3,-7l1,-5l1,-2l1,-3l3,-3l1,-3h1l2,-1l2,-2l2,-4v-10l-2,-2v-2l-1,-2l-1,-1v-3l-1,-1v-2l-1,-1v-1h1h-1h1l2,-2v-3l-4,-10v-2l-2,-3l-2,-4v-1h4l2,-1h-2l-1,1h-2l-2,-2v-4l-1,-1v-2h-1v-1l-1,-1v-2l-3,-3h-1l-3,-3v-2h-1l-2,-2v-1l-7,-7h-1h1l2,1l-1,-1h-1l-2,-2v-1l-1,-1h-1v-1l1,1v-1h-1l-1,-1v-2l-1,-1v-1l2,3h2v-1h-2v-1h-1l-1,-1l-1,-2h-1v-1l-1,-3l1,1h2v-1l2,-1v-6l1,1v1h3v1v-1h2l-1,-1h-3l-1,-1v-1l-1,-1h3v-1l-1,-2v-1h-1v-3h1l1,-1v-1l1,-1v-5l1,-2v-4l-2,-2l1,-1h-2v-2l1,1v-2h-2v1h-1v-1h-2l-1,-1v-1h-1v-2h-1v-1h-1v1h-1v-2h-1v-1h-2l1,2h-6l-1,-1v1h-2v-1h-1v1l-1,1h-1l-1,-1v-1v1l1,1h-3v-1v1h-3v-1v2l-1,-1h-2l-3,-3v-1l-1,-1v-1h1l-1,-1v-1h1v-1l-1,1l-2,-1v-1h1v-1v1h-2v-1l-4,-4l-2,-1h-8v-1h1l2,-1h-1l-2,1l-1,1h-13l-2,1h-3l-1,1h-1v1l-1,1h-6l-3,2h-2l-1,1h-2l-1,1l-2,1l-5,1l-1,1l-2,1h-1l-2,-1h-1l-3,-1h-3v-1h1h-2l1,-1h-1l-1,1h-5l-1,-1h-5v1l5,-1v1h-5l-3,1l-1,-1h-2l-1,1h1l2,-1v1h-4l-3,1h-2l-6,3h-1l-1,1h-2l-2,2h-1l-6,-2l-9,-4l-2,-2l-6,-4l-1,-1h-2l-2,-2h-1l-2,-1l-2,-2l-2,-1h-2l-3,-1l-1,-1v-2h-3v-1l-1,-1v-1h-2v-1l-1,-1h2l1,-1h1v-1l-1,1h-2v-2h1l-1,-1h-1l1,-1l-3,-3h-1h1v-1l-1,-1h-2v-2h-1v1l-3,-1l-1,-2v-1h-1v-2h-1l-1,1h-1l1,-1h-1l1,-1h-1l-1,1v-1h-1v-2l-1,1v-1h1l1,-1h2l-1,-1h-1l-1,1l-1,-1v-1h3l1,-1h-1l-2,1h-1l-1,1h-2v-1h-3v-2l-1,1l-2,-1h-1v-1l1,-1h2l-1,-1h-1v1h-1v-2l1,-1v-1l-1,-1l1,-1h1v1h3v-1h2l2,-1h-1l-2,1h-3l-1,-1v-1l-1,-1l1,-1h-1l-1,-1v-1l-2,-2h-3l1,-1l3,-1l2,-3l3,-3v-4l1,-1v-1l1,-2l2,-2l2,-5v-4l-1,-1v-2l-2,-2h1l1,-1h-1l1,-2l1,-1v-2l-1,-1v-1h-1v-1v1h-1l-1,-1v-2h-1v1l-1,1l1,-3v-1l1,-3l2,-2l2,-1l1,-1l1,-2l1,-1v-1l2,-2v-1l1,-1h1h-1l-1,1v-1h1l2,-2l4,-3h1l2,-2v-2l1,-1v-1l2,-2v-1l1,-1v-1h1l1,-1h2l2,-1l3,-3l1,-2l3,-3h1l6,-2l4,-1l1,-1h1l2,-2l3,-1l1,-1l3,-2l1,-1l2,-1l1,-1v-1l1,-1l-1,-1h-1v-1h1v-3l5,-5v-1l4,-2l1,-2h1l2,-1l5,-1l3,-1l2,-1l1,-1l4,-3l3,-4v-1h3l1,-1l1,1h-1l1,1h1l2,1l1,1h2l3,-1h6l1,-1v1h1v1h6l2,-1h1l1,-1h1l1,-1h1l4,-1h3l1,-1h1l2,-1h3l2,-1h9l2,-1h14l1,1h7l2,-1h2l2,1h2v-1h3l1,1h7l2,-1h5v1v-1h2v1h1l1,1v1h1v-1h4v1h-1l-1,1h-1v1h-1l1,1v1h2l2,1v1l1,1l-1,1h-1l-2,2l-2,1h-1v1l2,2h3l1,1h1v-1l2,2h1h-1l1,1h4l3,2h7l2,1h3l2,1h1l1,1l6,1v1h1v1l4,4l3,1h4l8,3h1l8,4l1,1h2l4,-2v-1l1,-1h-1v-1l-1,-1h-1v-3l1,-1h1l1,-1h6l1,-1l1,1h4l1,1l2,1h1l3,3l4,1h1l1,1h3l1,1h2l3,3h4l4,1l2,1l6,2v1h2l1,1l6,2h1l1,1h2l1,-1h3l1,-1h3v1h-1h3l2,1h3l1,2v-1l-2,-1v1l1,1h1l1,1v-1h1l2,2h3v1h6l4,4v1l4,4l1,2v9l-1,-1l-3,-2l-1,-1l-2,-1l-2,-2v-1l-7,-7v2l1,1h1v1l1,1v1l1,1h1v1h1l1,1l1,2l2,1h1v1l1,1v1l3,3l2,3v1l9,9l3,5l3,3h1l1,1h-1v1l1,2v1l3,3v1l3,1l1,2l4,3v1l1,1v1l2,2l1,2l1,1l-1,-1v1l1,1v3l1,1l1,3v1l3,6l1,1h1l4,4h1l1,2h1l3,5l1,3l4,8l1,1v2l1,1l1,2l1,1v-2h1v2h1l1,1v1h1l1,1h1l1,2l3,1l3,6l5,4l1,2v1h1l2,2v2h1l2,2l1,2v1l1,1v1h-1l-1,1h-1l-1,1l-1,-1v1h3l3,3l2,3l1,2l2,3l1,1h1l3,1h6l2,1l1,1h3l1,-1h1l4,2h3l2,1v1h8v-1h1l2,2h1v1l-1,1v1l1,2l1,4v1h-1h1v-1l1,1v1l-1,-1h-1v9l-1,1l-1,2v2l-1,1l-1,3v2l-1,2l-1,1v2l-1,2l-1,4l-6,9l-8,8l-11,5l-2,1l-3,3l-5,4v1h-1v1h-1l-1,2h-1l-1,1v1l-1,1v1l-3,3h-3v3l-2,1l-1,-1h-1v1l-1,1v3l-1,1h-1v1l-1,2v1l-1,1l-1,3l-1,1v-1l-1,1v1l-1,1v2l-1,2v1l-1,2v4l1,1v1l1,1v2l2,1v2h-1l-1,1v3l1,1v2l-1,2h-1v1l1,3v2l1,2v7l1,1v1h1v1h1l1,1v1Z"/>
<path class="sl" d="M748,84v-1l-2,-1l-3,-3l-2,-1h-1l-1,-1l-6,-3h2l1,1h1l1,1h1l1,1h2l2,1l1,1h2v1h2v1h1l1,1h2v1h1v1h3l1,1h1l1,1h1l1,1h1l3,3h1l1,1h1l1,1h-1h1v1h1l1,1h1v1h1h-2l-1,-1h-1v-1h-1l-2,-1l-1,-1v1h1v1h1l1,1h1v1l2,2h1l1,1h1v1h-1h1l3,3h2v1l2,2h-1l-2,-2h-1v-1h-1v-1h-2l-1,-1h-1v-1h-1l-1,-1v1h1l1,1h1v1h1v1h1l1,1h1l2,1l1,1h3v-1h1l2,2h1l1,1h-1h1l1,1h-1v1h1l1,1h1v1l2,1h1v1l2,2h1v1l1,1h1l1,1h1l2,2h1v1l2,1l1,1l3,2l1,1l3,2h2l4,2h1l1,1h-1h1l-2,-2h2l1,1l-1,-1v-1h2l1,1v1h2l1,1h1v1h1v1h1l1,1h1v1h1l2,2h1v1h1v1l2,1v1h1l1,1v1h1l3,3l2,1l5,5v1h1v1h1v1l2,2h-1h1v1h1v1l1,1h-1h1v1h1h-1v1l2,1v1l2,2v1h1v1l1,2l4,4v1h1v2l2,2h1l2,2l1,2l1,1v1l1,1v2l2,2l1,2l1,1l1,2l1,1h1v1l5,5v1h1v1l1,2l2,2v1l1,1h1v1h1v2l1,1l-2,-1h-1v3h1v1l1,2l-1,-1h-1l-3,-3l-2,-1v-1h-1v-1l-1,-1h-2l-1,-2l-1,-1h-1l-1,-1h-1v-1h-1v-1l-2,-1l-1,-1v-1l-1,-1l-2,-4h-1v-1l-1,-1v-1h-1l-2,-2h-2v1l-1,-1l-1,1h-1v-1l-3,-3h-2l-1,-2h-1l-10,-10h-1l-3,-3v-1l-2,-1v-1l-1,-1v-1h-1l-1,-1v-1h-1l-1,-1v-1l-6,-6h-2l-3,-3v-1v1h1l-1,-1h-1l1,1v1h-2v-1l-2,-1v1l2,2h-2l1,1h1l1,1l1,2h1v1l2,2v1h1l1,2l2,2v1h1l1,1v1h1l2,2v1l2,1l3,3h-1h1v1l1,1v1l1,1l-1,-1l1,1v1l2,2l1,2l3,3v1l3,3h1l1,1h-1l2,2v-1v1h1l1,2h1l1,1h2l2,1l3,3h3v-1h-1l1,-1h-1l1,-1h1v-2l1,-1v-2l1,1l1,2v1l1,1l1,3l2,2l2,4l3,3v1l2,1l1,1l2,1l1,1v1h1l2,2v1l1,1v1l1,1l1,2l2,2h1v1l1,1v5l-1,1v3h-1v-2h-1v3l1,1v2l1,1v2h1v1h-1l-1,-1h-2v5l-2,-1l-1,-1h-1v5l-1,-1h-1v-1h-1l-2,-1v1h-2l-1,-1h-4v4l1,1h-3v1h-1l-2,-1h-9v1h-1v1h-3l-2,-1h-1l-1,1h-4l-1,-1h-2l-2,-1h-2v1h-2v1h-2l-1,-1l-1,1h-1v-1h-1l-2,-2h-1l-1,-1l-2,-3v-5l-2,-1v-2l-2,-4v-1l-1,-1l-1,-2h1l-1,-2v-3l-1,-2v-1l-1,-1v-1l-2,-2v-1h-1v-1l-1,-2l-5,-5l-2,-4l-2,-2v-1l-1,-1v-1l-2,-3h-1v-1l-6,-6h-1l-4,-4l-1,-2l-2,-3v-1l-2,-2v-3l-1,-2l-2,-2h1l-1,-1h-1v-1l-1,-1l-1,-2l-5,-5h-1l-1,-1h-1l-1,-2l-1,-1l-2,-1v-2l-1,-1l-2,-3h-1v-1l-2,-2h-1l-3,-4l-3,-3l-1,-2l-2,-1l-1,-2l-3,-2v-1h-3l-1,-1h1v-1l-1,-2v-4h-1l-1,-2l-4,-4v-1l-3,-3v-1l1,-1h-1l1,-1l-1,-2v-4h1v1h1v-1h1h-1v1h-1v-1h-1v-5l1,-1l-2,-2v-1l-3,-3v-1h1l-2,-2l1,-1h-1v-1h-2l-1,1v-1h-2l-2,-2h-2l-1,1h-1l-1,1h-1l-1,-1h-3l-2,-1h-1l-3,-3h-2l-3,-2l-2,-1h-2v2h-4l-2,-1l-1,-1h-1v-1h-1v-1h-2l-2,-1h-6v-1h3l-3,-1h-2v-1h1h-1v-1h-1l-1,-1h-1v-1h1l-1,-1h-2l-1,-1h-1l-1,-1h-1v-1h1v1h2v-1h-1v-1h1h-2v-1l-1,-1l1,-1h-5v-1l-1,-1v-1h1l1,-1l2,1h2l1,1h2l-1,-1h1v1h1h-1h2l3,1h1h-1v-1h1l3,1h1l-2,-1h-1l-1,-1h-1v-1h1l4,1l2,1l3,1h3l3,-1h5v1l5,1l3,1h2v1h1l1,1h1l2,1h1l2,2h3l1,1h1l4,2l1,1l3,1h2l2,1l3,1h1v1h5Z"/>
<path class="sl" d="M974,341v1l1,1v1v-1l-1,-1l1,2v1v-1l-1,-1v1l2,4v2l1,2v2l1,2v1l1,1v1v-1v3l1,1l1,4v4l1,2v3l1,1v1l1,3v2h-1h1v6l1,1v2v-2h-1v-1v5h-1v-1l-1,-2l-1,-6l-1,-1v-3l-1,-2v-2l-1,-2v1h1v3v-3l-1,-1v-3l-1,-1l-1,-3v-3l-1,-2v-2l-1,-2v-1l-1,-1v-2l-2,-4v-3l-1,-1v-1l-1,-3v-1l-2,-4v-1l-1,-2v-2l-1,-1v-2h-1v-1l-1,-2v-2l-1,-1v-1l-1,-1v-2l-1,-1l-4,-11v-1l-2,-4v-2l-1,-2l-1,-1v-2l-1,-1v-1v-1h-1v-1l-2,-4l-1,-3v-2l-1,-1v-1h-1v-1l-1,-1v-2l-1,-1v-2h-1v-2h-1v-1v2h1v2h1v3h1h-2l-2,-2l-1,-3l-1,-1l-2,-3l-2,-4l-1,-1l-1,-2v-1l1,1h1v-2h-1h1v1l-1,-1h-1l-1,-2l-2,-3l-1,-1l-1,-2l-1,-1v-1l-2,-2h1h-1v-1v1v-1h-1h1h-1v-1l-1,-1v-1h-1v-1l-1,-1l-2,-3v-1l-2,-2v-1l-2,-2v-1l-1,-1l1,1h-1v-1h-1l-3,-3v1v-1h-1l-1,-2h-1l-1,-1h-1v-1h-1l-2,-2v1l-3,-3l-1,-2v-1h-1v-3h-1h2l2,1l-1,-1v-2h-1v-1h-1l-1,-1v-1l-2,-2l-1,-2v-1h-1v-1l-5,-5v-1h-1l-1,-1l-1,-2l-1,-1l-1,-2l-2,-2v-2l-1,-1v-1l-1,-1l-1,-2l-2,-2h-1l-2,-2v-2h-1v-1l-4,-4l-1,-2v-1h-1v-1l-2,-2v-1l-2,-1v-1h1h-1v-1h-1h1l-1,-1v-1h-1v-1h-1h1l-2,-2v-1h-1v-1h-1v-1l-5,-5l-2,-1l-3,-3h-1v-1l-1,-1h-1v-1l-2,-1v-1h-1v-1h-1l-2,-2h-1v-1h-1l-1,-1h-1v-1h-1v-1h-1l-1,-1h-2v-1l-1,-1h-2v1l1,1l-1,-1h-2v-1l-6,-6v-1l-2,-2h-1l-2,-2h-1v-1l1,1v-1h-1l-1,-1v-1h-1l-1,-1v1l1,1l-4,-4v-1h-1v-1l-1,-1l2,2h1v1h1l1,1h1v1h1l-1,-1l1,1h1h-1v-1h-1v-1l-2,-1l-1,-1h-1l-1,-1v-1h-1l-1,-2h-2l-1,-1v1h1v1l1,1h1l-1,-1l-2,-1l-1,-1h-1l-1,-1v-1l-2,-2h-1v-1h-2v-1h-1v-1h-2v-1h-1v-1h-1l-1,-1h-1v-1l-1,-1l-2,-1l-1,-1h-1l-1,-1h-1v-1h-1h2l1,1h1v1h1h-1v-1h-1l-2,-2v-1v1h1l1,1h2l2,2v-1h-2v-1h-1v-1l-2,-2h-1l-1,-1h-1v-1h-1l-1,-1h-1h1h-1l-1,-1h-1l-2,-2h-4v-1h-1h1h-1l1,1l-1,-1v1h1h-1l-1,-1l1,1h1h-3v-1h-1l1,1l-1,-1h-1h1v1h1h-1h1v1l1,1l-1,-1v1h1v1h2v1h1l1,1h1l2,2v1h1v1h1v1h1l2,2h1l3,3h1l1,1h1v1h1l3,3h1v1h1l1,1l2,1v1l2,1h1l1,1v1h1l1,1l-1,-1h-1l-1,-1v1l1,1v1h1v1l1,1h-1v-1v1l2,2h-1l-2,-1v-1h-1l-1,-1h-1v-1h1l-1,-1h-1h1l-1,-1h-1l-2,-2h-1v1h-2l-2,-2v-1h-2l-3,-3h-1h1v-1h-1l-1,-1h-1l-2,-2v-1h-1l-1,-1h-1v-1h-1v-1l1,1l2,1h1v1h1l1,1h1v-1h-1l-1,-1h-1v-1h-1h1l-1,-1h-1l-1,-1h-1l-3,-3h-1l-1,-1h-1l-1,-1h-1l-1,-1h-3v-1h-1v-1h-2l-1,-1h-1v-1h-2v-1h-2l-1,-1l-2,-1h-2l-1,-1h-1l-1,-1h-1l-1,-1h-2l-3,-2l-6,-3l-1,-1h-1l-1,-1l-3,-1l-1,-1h-2v-1h-1l-2,-1l-1,-1h-1h1h-1h2l1,1h1v-2h1l1,1l-2,-1l-1,-1h-1l-1,-1h-1h3l1,1l-1,-1h2l-1,-1h-3l-2,-2h3l1,1h1v-1h-1l-1,-1h-1v-1h1h-2l-1,-1h1h-1v-1h-2l-1,-1h-1v-1h-2l-1,-1h-2l-1,-1h-1l-2,-1h-1v-1h-2l-1,-1h-3l-1,-1h-2l-1,-1h-1v-1h-2v-1h-2v-1h-3l-1,-1h-1v-1h-1h1l-2,-1h-1l-1,-1h-2l-1,-1h-3l-1,-1v1h-1l-1,-1h-1l-1,-1h-1l-1,-1h-1l-1,-1h2v1h3l-4,-2h-2v-1h-3v-1h-2v-1h-3v-1h-1v-1h-3v-1h-4l-1,-1h-1l-1,-1h-4l-1,-1h-1l-1,-1h-2v-1h-2l-1,-1h-1h1h-1l-1,-1h-1l-1,-1h-1h1h-1v-1h-1h1l1,1h4l2,1h-1l-1,-1h-3l-2,-1h-2v-1h-5v-1h-5l-1,-1h-6l-1,-1h-1h1h-4v-1h-5v-1h-2l-1,-1h-3l-1,-1h1h-1h3v1h6l1,1h4l1,1h4l1,1h3l1,1h4l1,1h3l1,1h3l1,1h3l1,1h3l1,1h2l1,1h3l1,1h3l1,1h2l1,1h2l1,1h3l1,1h2l1,1h2l1,1h2l1,1h2l1,1h2l1,1h2l1,1h2l1,1h2l1,1h1l1,1h2l1,1h2l1,1h1l1,1h2l1,1h1l1,1h1l1,1h2l1,1h1l1,1h2l1,1h1l1,1h1l1,1h2l1,1h1l1,1h1l1,1h1l1,1h1l1,1h1l1,1h1l1,1h2l1,1h1l1,1h1l2,2h1l1,1h1l1,1h1l1,1h2l1,1h1l2,2h1l1,1h1l1,1h1l1,1h1l2,2h1l2,2h1l1,1h1l1,1h1l1,1h1l2,2h1l1,1h1l3,3h1l1,1h1l1,1h1l3,3h1l1,1h1l3,3h1l1,1h1l2,2h1l3,3h1l3,3h1l1,1h1l1,1v1h1l2,2h1l3,3h1l3,3h1l4,4h1l4,4h1l1,1v1h1l2,2h1v1l1,1h1l4,4h1l9,9h1l1,1v1l1,1h1l1,1v1h1l2,2v1h1l21,21v1l1,1h1v1l5,5v1h1l1,1v1l4,4v1l6,6v1l4,4v1l1,1h1v1l2,2v1l3,3v1l4,4v1l3,3v1l1,1v1l1,1h1v1l1,1v1l2,2v1l3,3v1l2,2v1l2,2v1l1,1v1l3,3v1l1,1v1l1,1v1l3,3v1l1,1v1l1,1v1l2,2v1l1,1v1l1,1v1l3,3v1l1,1v1l1,1v1l1,1v1l1,1v1l2,2v1l1,1v2l1,1v1l1,1v1l1,1v1l1,1v1l2,2v1l1,1v2l1,1v1l1,1v1l1,1v1l1,1v2l2,2v1l1,1v2l1,1v1l1,1v1l1,1v2l1,1v1l1,1v2l1,1v1l1,1v2l1,1v1l1,1v1l1,1v2l1,1v2l1,1v1l1,1v2l1,1v2l1,1v2l1,1v2l1,1ZM577,6h1h-7l-1,-1v1h1h-1l-1,-1v1h2v1h5v1h4l1,1h1h-7l2,2v1h-8l1,1h-4l-3,-1l-1,-1h-1h1h-1v-1v1l1,-1h-3l-2,-1h-2v-1h-3v-1h-1l-1,-1h1h-4v-1h-1v1h-19l-1,-1h-1h2v-1h1h-3v1h-2v-1h7l-1,-1h-2v1h-4v-1h1h2h-5v-1h1h-1h1h-1h29l1,1h7l1,1h7l1,1h6l1,1h2Z"/>
<path class="sp" d="M588,8h4l1,1h4l1,1h4l1,1h3l1,1h4l1,1h3l1,1h3l1,1h3l1,1h3l1,1h2l1,1h3l1,1h3l1,1h2l1,1h2l1,1h3l1,1h2l1,1h2l1,1h2l1,1h2l1,1h2l1,1h2l1,1h2l1,1h2l1,1h1l1,1h2l1,1h2l1,1h1l1,1h2l1,1h1l1,1h1l1,1h2l1,1h1l1,1h2l1,1h1l1,1h1l1,1h2l1,1h1l1,1h1l1,1h1l1,1h1l1,1h1l1,1h1l1,1h2l1,1h1l1,1h1l2,2h1l1,1h1l1,1h1l1,1h2l1,1h1l2,2h1l1,1h1l1,1h1l1,1h1l2,2h1l2,2h1l1,1h1l1,1h1l1,1h1l2,2h1l1,1h1l3,3h1l1,1h1l1,1h1l3,3h1l1,1h1l3,3h1l1,1h1l2,2h1l3,3h1l3,3h1l1,1h1l1,1v1h1l2,2h1l3,3h1l3,3h1l4,4h1l4,4h1l1,1v1h1l2,2h1v1l1,1h1l4,4h1l9,9h1l1,1v1l1,1h1l1,1v1h1l2,2v1h1l21,21v1l1,1h1v1l5,5v1h1l1,1v1l4,4v1l6,6v1l4,4v1l1,1h1v1l2,2v1l3,3v1l4,4v1l3,3v1l1,1v1l1,1h1v1l1,1v1l2,2v1l3,3v1l2,2v1l2,2v1l1,1v1l3,3v1l1,1v1l1,1v1l3,3v1l1,1v1l1,1v1l2,2v1l1,1v1l1,1v1l3,3v1l1,1v1l1,1v1l1,1v1l1,1v1l2,2v1l1,1v2l1,1v1l1,1v1l1,1v1l1,1v1l2,2v1l1,1v2l1,1v1l1,1v1l1,1v1l1,1v2l2,2v1l1,1v2l1,1v1l1,1v1l1,1v2l1,1v1l1,1v2l1,1v1l1,1v2l1,1v1l1,1v1l1,1v2l1,1v2l1,1v1l1,1v2l1,1v2l1,1v2l1,1v2l1,1M546,2h4l1,1h7l1,1h7l1,1h6l1,1h3"/>
<path class="sl" d="M826,238v-1ZM830,249l-1,1ZM830,248h-1v-1h1ZM894,285l2,1l1,2h-1l-2,-1h-1v-1l-2,-2h2ZM69,331l-1,1ZM60,325v1l-1,1v1h-1v-1h1v-1ZM54,331v1ZM68,334v-2h1v1ZM70,275v1ZM69,279h1h-1v1ZM66,279v-1h1l1,-1l-1,1v2h-1v1l-1,1v1h-1l-1,1h-1v1v-2l1,-1v-1l3,-3ZM68,279h-1h1v-1ZM60,287v-1ZM384,798h-1v-1h1ZM323,778l1,1v-1h1l1,1h2l1,1v1l1,-1v1h1v2h-1l-2,-2h-2v-1h-2l-2,-1l-1,1v-1h-2l2,-1h1ZM973,500v-1v1v-1ZM452,436v-1h1v1ZM377,373v-1h1v1ZM77,271l-1,1v-1h1v-1ZM232,794h1v-1h1v1h1v-1h1l1,1h1l-1,1v3h1l-2,1l1,1h-1l1,1h-1l-2,-2v-3h-1v-2ZM229,797h1v-1h1v-1h1v1l1,1v6h-1l-1,-1v-1h1l-1,-1h1h-1v-1v1h-1v-1h1v-1h-2l-1,-1ZM229,801h1l1,1h-1l-1,-1h1ZM238,797v1ZM230,797h-1l-1,-1h1ZM236,801h-1ZM34,319v1h-1Z"/>
<path class="sp" d="M33,320l1,-1"/>
<path class="sl" d="M37,312v1ZM118,183l-1,1l1,-1v-1ZM72,273h1ZM71,274h1ZM59,272v-1ZM59,272v-1ZM58,273v1ZM77,279h-1h1v-1ZM488,23h1h-2ZM486,22h-1ZM477,12h-1h2ZM486,17h-3l-1,1h-1l-1,-1h-7l1,-1h4v-1h1h-1h1h-1v-1l-1,1h-1v-1h6v-1h1l1,1v-1h1v1l1,-1h-2v-1h1h-2l-1,-1h1l1,-1h-2v1h-7v-1h2l-1,-1h1h-1h1h-3l-1,1h-1v-1h1h-1h1l1,-1h-1l1,-1h-1h1h-1l1,-1h3v-1h7l-1,1h-1h9v1h-3v1h-2l-1,1h-3h10v1h1v1h5l1,1h1h-1h1l1,1h-2v-1l-1,1h-1h4l1,1h-1h6l2,1v1h-2l-1,1h-2l1,1h1l1,-1v1h1h-3v1h-24v1h-7l-1,1h-3l1,-1h2l2,-1h1l1,-1h7l1,-1h2ZM478,14h1h-3l1,-1h1ZM489,4h-1ZM496,3h-1ZM494,3h1h-2ZM497,3h-1ZM486,5h-1ZM487,5h-1ZM486,4h1l1,1h-3v-1ZM488,4h-1ZM468,8h1ZM475,10h-1v-1h1ZM472,8l-2,1h-1h1v-1h1ZM470,9v1h-2v-1h1ZM471,9h-1h2ZM472,6h-3l-1,1h-1h1v-1h-1h1h-1h4ZM471,7h1h-2ZM466,7h1h-2ZM466,8h-1v-1h1ZM465,8h-1ZM468,12l-1,1h-1v-1h-3v1h-3l-1,-1h3v-1h5l1,-1h2v1h1h-1h2v1h-1h1h-2l-1,1ZM494,19h-1ZM866,203h-1h1v-1ZM869,205v1l-1,-1h-1v-1l1,1ZM870,205v-1ZM683,52l1,1v-1h-2l-1,-1h-1h1ZM812,119v1l-2,-2ZM667,68l-1,-1h1ZM580,78l-1,1v-1ZM579,83h-2v-1h2l1,1ZM72,316v-1l1,-1ZM69,324v1l-2,2h-1v1l1,-2v-1h1v-4l1,-1h1v-1h1l-1,1v4ZM816,397l1,2h-1v-1h-1v-1h-1v-3h1v1l1,1ZM819,387v4h-1v-4ZM816,412v-1h1v-1h1v1l-1,1ZM587,12h-1h1h-1l-1,1v-1h-1l-1,-1h3ZM579,13l-1,-1h1v-1v1ZM587,12v-1l1,1ZM581,10v-1ZM985,389v-1ZM986,393v1v-2ZM985,388l1,1v1l1,4l1,2v5h1v5l1,3v2l1,1v6l1,1v1l-1,1v-1h-1v-3l-1,-2v-4l-1,-6l-1,-2v-7l-1,-1v-6h-1ZM511,58h-1ZM521,54h2v1h-1l-1,1l-1,-1h-4v-1h3v-1h2ZM529,54l-2,-1h-1h2ZM510,57h-1v-1h2v1ZM376,114l-1,1v1h-2l-1,-1h1v-1h2l2,-1h1ZM396,109v1l-1,-1h1v-1h2v-1h1l-2,2ZM392,113l-1,1h-1h1l1,-1v-1l2,-1v-1h1v2l-1,1ZM383,115v1h-1l-1,1h-1v-2h3v-1ZM370,117h-1v-1h1ZM364,119l-1,1l-1,-1h1l1,-1ZM365,115v-2h1v1ZM709,728h-1v-1h2v1ZM392,248l-3,-1h4ZM911,425v1v-1h-1v-1h1ZM771,160l-1,-1v-1h-2v-1l1,1h1l2,2ZM820,226l1,1v-1v1l1,1h-1v-1h-1l-1,-1v-2l1,1ZM769,157h-1v-1v1ZM565,290l-1,1v-2h1ZM558,302h-1v-1h-1v-1h1l1,-1l1,1v1ZM578,42h-1ZM73,302l1,-1v1ZM73,304v-1ZM76,296l-1,1v-1l1,-1ZM76,277v1ZM76,277h-1v-1h1ZM760,80v-1ZM692,55v-1h1l1,1h1l1,1h2l2,2l3,1v1h3l1,1v-1l1,1h1v1h1h-3v-1h-9l-2,-1v-1l-1,-1h-1l-1,-1l-2,-1h-2l1,-1h3Z"/>
<path class="sl" d="M855,196h-1l-2,-2v-1l-1,-2l-1,-1v-2l-1,-1l1,-1l3,3v2l2,2v2ZM376,91l1,1l1,-1l1,1h-4ZM331,80h-1ZM300,77v1h-1ZM322,75h-1h2ZM318,76l-1,1h-1l-1,-1h2ZM313,78h-2l1,-1h1ZM315,77h1l-1,1h-2v-1h1ZM329,77h2l1,-1v1h-4ZM14,396l1,-1v1ZM9,413v-2h1l-1,1ZM11,399v-1ZM901,245v-1h-1l1,-1l-1,-1l1,1v1ZM876,205v-1ZM521,3h-1ZM522,3h-1ZM543,2h-1ZM533,2h-1h2ZM532,2h-1ZM544,2h1ZM544,2h-1Z"/>
<path class="sp" d="M543,2h1"/>
<path class="sl" d="M541,2h-1ZM563,268h-1l1,-1h1ZM523,18h-1ZM533,14h-1ZM531,14h-1ZM527,14h-1ZM528,14h-1h2ZM526,14h-1ZM521,17h1h-2ZM535,14h-1ZM46,331v1ZM75,276h-1ZM42,334l-1,1v-1ZM44,334l-1,-1h1v-1v1ZM547,40h-1ZM896,561h-1l-1,-1v-1h1v-1h1v-1h1v3h-1ZM367,166h-1l1,-1h1ZM602,75h-1ZM600,74h-1ZM778,436v-1l1,1ZM778,435v1l-1,-1ZM871,473l1,1v3l1,1v10l-1,4v8l-1,2l-2,2v-5h-1v-1l-1,1v3l-1,1l1,1v1l-1,2v1l-1,1v1h-1v1l-1,1v1l-1,3v2l-2,3l-3,6l-2,3l-1,3l-1,2l-2,2l-1,3l-4,8l-3,4l-3,6l-2,3v1l-1,1l-1,2l-1,1v1l-1,1l-1,2l-1,1h-1l-1,1h-1l-1,-1h-3l-2,1h-3v-1l-1,-2l-1,-1h-1l-1,-1v-1l-1,-1v-10l1,-2v-1l1,-1v-4l-1,-2v-1h1v-4l1,-2v-2h1v-1h1l1,-2v-1h2v-1l1,-1l1,-2l2,-2l1,-2h1v-1l1,-2v-16l1,-1v-3l4,-5v-1l1,-2v-1h1l2,1v-1h2v-1l1,1h1v1l1,-1v-1l1,1h2l1,2v-2l1,-1l2,-1l1,-1h1v1v-1h1l1,-1v-1h1v-1v3l1,-1v-1h2v-3l1,-2h1l-1,-2v-1h2v1h1l1,-1h1l1,-1l1,-3v-4h1l2,-2l1,1v2ZM863,477v1v-2h1v1ZM866,511l-1,1l1,-1l1,-2ZM824,158l-1,-1v-1l1,1ZM828,367h1ZM772,86l-1,-1v1ZM772,86v-1ZM779,89v-1h-1h1ZM37,313h1v-1v2l-1,1v1l-1,1v1h-1v1v-2h1v-2l1,-1ZM566,45h-1ZM591,55v-1ZM584,70h-1v-1ZM605,66l-1,1v1h-1v1h1l1,1h-1h1v1h-1v1h1h-3l-1,-1h-1l-1,-1h-1l-1,-1h-2l-2,-1h-2v-1h-4v-1h-2v-1l1,-1h1l1,1h1v-1h2v1h5l1,1h2l1,-1h2l1,1v-1h1v1l1,-1l1,1ZM563,52h1l1,1l-1,1v1h1v2l-1,1h-3v1h-3v-1h-1v-1l-1,-1h1v-1v1v-1h-1v-2h-1v-1h-1v-1h4l1,-1h3v1h1ZM557,58v1l-1,-1ZM554,50v1v-1h1ZM741,120h1l-1,1v1l-1,-1ZM449,14h-1ZM464,11h-2v1h-3l1,1h3v-1h1h-1h3v1h1l1,-1v1h-1h1v2h-1v1h-3l-1,1v-1v1h-5l-1,1h-5l-2,1h-1v-1h-1l-1,1h-1h1v-1h-2l-1,1v-1h1l1,-1h3l2,-1h-2l-1,1l1,-1h1l1,-1h1h-3l1,-1h-1h1h-1h1h-1v-1h8v-1h2h-1v-1h6v-1l1,1ZM870,194h-2v-1h-1h2l-1,-1l1,1h1l1,1ZM973,377v-1ZM448,3h-1h3v-1h1h-1v1v-1h1h-1v1l1,-1v1h-8l-1,1h-7l-2,1h-5l-2,1h-6v1h-1h1v-1h1h-1l-1,1h1l1,-1h-1l-1,1h-1h1l1,-1h6l1,-1h6l1,-1h6l1,-1h6Z"/>
<path class="sp" d="M417,7h2l1,-1h6l1,-1h6l1,-1h6l1,-1h7"/>
<path class="sl" d="M53,287l-1,1v3h-1v2l-1,1v1h-1v3l-1,1v-1l-1,2v1h-1l-1,1v1h-1v2h-1v-1l1,-1v-1h1v-1l2,-2v-1h1v-2h1l-1,-1h1v-3h1v-1h-1v1v-1l2,-2v-1h1v-1ZM48,297h-1v-1h1ZM52,287l-1,1v-1ZM364,224l-1,1v-1h1v-1ZM366,224h-1v-1ZM367,223v-1h1v1ZM369,221h-1l1,-1ZM366,221l-1,1v-2h1ZM365,218v1h-1ZM69,312v1v-1l1,-1v1ZM688,86l-1,-1h1ZM638,69v1h2v1l-2,-1h-1v-1h1h-1ZM641,72l1,1l-1,-1v1l-1,-1h-1v-1l1,1ZM638,68h-1v-1h1ZM639,70l-1,-1h1ZM633,64v1l-1,-1h-1v-1h-1h1v1h1ZM655,70h1v1h2l1,1h1v1h1v1h2l1,1h-2v-1h-1l-1,-1h-1l-1,-1h-1l-1,-1h-1l-1,-1h-3v-1h3ZM656,69h-1ZM663,72h-1v-1h-1h1ZM659,64h-2l1,-1v1ZM658,74h-1ZM658,81v1l-1,-1v-1v1ZM686,90v-1h-1v-1l1,1h-1h1ZM682,83h-1v-1h-1h2ZM682,84h-1l1,-1h2l-1,1l-1,-1ZM672,81h-1v-1h1ZM670,80h-1ZM673,83h-1ZM672,82h-1v-1ZM678,79h1h-2v-1h1ZM674,79v-1l1,1h1h-1ZM675,82h-1h1v-1l1,1ZM679,84h-1v-1h1ZM663,77v-1h1ZM664,78v-1l1,1ZM666,81h-1v-1l1,1v-1ZM667,77l-1,-1h-1v-1l1,1h1ZM669,78l-1,-1h-1h2ZM673,76h-2v-1h1h-1v-1h-1h2v1h1ZM672,71v1h1l1,1h-1h1h-1l-2,-1h1h-3v-1h1ZM665,66h-1ZM665,68h-2l-1,-1h1l1,1v-1h1ZM670,79v-1h1v1ZM665,79v-1ZM689,88h-1v-1h2v1ZM665,85l1,1v-1l1,1h-1h1l1,1h4l1,1h4v1h1v1v-1h1l1,1l1,-1v2l-1,-1h-5l-3,-1h-1v-1h-2l-3,-1h-2l-1,-1v-1h1ZM569,15h-1l-1,-1h-1h2ZM572,16h-1v-1h-1h1ZM557,13h-1ZM542,12h-1l1,-1v1h1ZM543,12h-1ZM560,44v1h1l1,2h-1v2h-4v-1h1h-2l1,-1h-1v-1h-1h1h-1v-1h3v-1l1,1l1,-1h-1ZM493,32h-1ZM846,466h-1v-2h1v1ZM885,563h-1v-1l-1,-1v-2h1v-1h1v1h1v2l-1,1ZM77,291v1h-1l1,-1h-1v-1h1v-1v1ZM79,280l-1,1v-2h1ZM77,283v-3h1v1l-1,1ZM78,282v1v-1h1ZM216,90h-1ZM216,90h-1h1v-1h1h-1ZM76,272h1ZM77,273v-1ZM806,801l1,-1l1,1h-1v1v-1h-1v2h3l-2,2h-1v-1h-1v2h-1v-1h-1v-2l-1,1v-2h2v-2h1v-1h1l2,-2v1l-2,2ZM806,800h1v-1h1v1h-1ZM771,748l-1,-1h1ZM585,9h1h-2ZM584,9h-1ZM588,10h-1v-1ZM593,10h-1ZM581,7h1ZM593,10h1l1,1l-1,-1ZM590,10h-1v-1ZM593,10h-1ZM592,10h-1ZM600,13h3l1,1l-1,-1h-5l-1,-1h1v1h1ZM601,13h-2v-1h-1h2ZM603,13h-1ZM809,227h1h-1v-1ZM810,230h1l1,1l-1,-1h-2v-1l1,1l-1,-1v-1h1v1ZM576,274h2v1l-2,2v1h-2l-1,-1v-1h1l1,-1v-1ZM8,490v-1ZM9,452v-1ZM0,505v1Z"/>
<path class="sp" d="M0,507v-2"/>
<path class="sl" d="M0,505v1v-2ZM0,512v-1ZM48,299l1,-1v-3h1v-1l1,-1v-2h1v-3l1,-1v-1l1,-1v-1h1v-1h1l1,-1h1v-1v1l-1,1l2,-1h-1v1l-1,1h1l1,-1l1,1l-1,1v1l-1,1v1h-1v-1v1h-1v1h-1v1l-4,4v1l-1,1l-1,3v1h-1v1v-2h1ZM77,287v-2h1l-1,1ZM473,2h-1ZM472,3h-1ZM471,2h-1ZM473,2h-1h1h-1ZM474,2h-1ZM561,12h-1h1h-1v1h-2v-1h-3v-1h-1h7ZM549,12h-6v-1l-2,-1h-1l-1,-1h5v-1h-2v1h-2l-1,-1h10v1h1l2,1h-3v1h-1l-1,1h1ZM552,11h1v1h1h-5v-1h-1h3ZM557,13h1h-3v-1h1ZM554,13l-1,-1h1ZM562,13h-1ZM562,12h-1ZM552,12h-1ZM550,12h-1ZM552,11h-1v-1ZM552,9h-1v-1h1ZM575,14h-2l-1,-1h1ZM729,102v-1h-3v-1h-4l-1,-1h1v-1l1,1h3l2,1l1,-1h1v1h-2v1ZM721,99l1,1h4v1h3v1h-1l-1,-1v1h-4l-1,-1h-2v-1l-1,-1h1ZM46,291v-1h1v-1l-1,1h1v-1v1l-1,1l1,-1v1h-1l1,-1v1v-1h1v-1v1h-1v1h1v-1h1l-1,1v1l-2,2v2h-1v1h-1v2l-2,2v1l-1,1v1h-1l1,-2l2,-2v-2h1v-1l-1,1v1h-1h1v-2l1,-1v-1l-1,2v1v-1l1,-1v-2l1,-1v-1l1,-1v-1Z"/>
<path class="sp" d="M43,298v-1l1,-1v-2l1,-1v-1l1,-1v-1"/>
<path class="sl" d="M47,289v-1ZM47,288l1,-1ZM47,288l1,-1ZM47,289v-1h1h-1ZM47,289h-1v1v-1Z"/>
<path class="sp" d="M46,289h1"/>
<path class="sl" d="M605,48h1ZM608,48h-1l-2,-1h-1h1l2,1ZM605,47h-2v-1h1l1,1h1ZM594,43h1h-2ZM590,40h-1v-1h-1h2ZM591,40v1l-1,-1ZM594,42h-2v-1h-1h1l1,1ZM594,44l-2,-1v-1l1,1ZM595,43l1,1h-1ZM589,41l-1,-1h-1l1,-1h-1h1v1h1ZM611,49l1,1l-3,-1h1ZM616,51h1h-1l-1,-1l-3,-1h-1l-2,-1h-1l4,1h-1h2l1,1ZM473,261v1l-1,-1ZM843,457v2l-1,1v-2l-1,-1v1h1v-1ZM838,458h-1v-1h1ZM837,453h-1l-1,-1l1,-3h1l-1,2l1,1ZM11,439v-1ZM92,722v1h-1v-1ZM218,821l5,5l2,1l5,5l2,1v2h-3v1h-1v1h-2l-1,1h-1v-1h1h-1v-1h1v-1h2v-1h-3l-1,-1h-1v-2h-1l-1,-1l2,1l2,2h1l1,1v-1h1h-1v-1h2v1h1v-1h-4l-1,-1h-1l-1,-1v-3h-1v-1h-1v2h-2l-1,-1v-2h-2v-1h1v-1l-1,-1v-1l2,1v-1ZM237,832v1h-1v1h-3v-1l1,-1h2ZM151,774v1h-2l-2,-2l-1,-3h-1v-1h-1v-1l-1,-1v-1h-1v-1h1v-1l2,2v1l1,1v1l1,1h1v1h1l1,1v1ZM185,812l5,5v1h-1v-1l-1,-1h-1v-1h-1v-1l1,2l2,2h-2l-1,-1h1l-1,-1h-1v-1h-1h1v-1h-1l-1,-1v-1l-1,-1v-1h1ZM181,812l-1,-1l-2,-1v-1h-1v-1h-1v-1l1,1h1l3,3ZM210,834v-1h4v1h-6v-1h1ZM181,809v1h-1l-2,-2h-1v-1h-1v-2l2,2h1v1h1ZM216,834h3v1h1v2h-1v-1h-1v1h1h-2v-1h-2l-1,-1h1l1,-1h-1ZM200,827l2,1l3,3h-1l-2,-2h-1v-1h-1ZM230,836l3,-1v-1h1v1h2v1h2v1h-3l-1,-1h-1v1h1v1h1h-2v-1l-1,1l-1,-1ZM222,834h2v1h-1v1h-1h1v1l-1,-1h-2v-2h1ZM157,781v2h1l2,2h1v1h1v2l-1,-1h-1l-2,-2h-1v-1l-1,-1v-2h-1v-1h1ZM161,782v1h-1l-1,-1v-1h-1v-2h1v1h1v1ZM158,787v1v-1h-1ZM194,823v1l-2,-2h1ZM182,812l2,2v1h-1v-1h-1v-1h-1l1,-1h-1l1,-1ZM176,806h-1v-1h1ZM151,778v1h-1v-1ZM160,784h-1v-1h-1v-1l1,1ZM199,825v2l1,1h-1v-1h-1v-2ZM191,820l1,1h-1l-2,-2h2ZM154,778v1h-1v-1ZM203,828h-1v-1h1ZM164,791l-1,1v-1l-1,-1v-1h-1v-1l2,2h1ZM241,837h-1v1v-1ZM239,832h-1v-1ZM228,838h1v-1l1,1h1v1l-1,-1v1h-2v-1v1h-1v-1ZM241,836h-2v-1l1,1ZM297,194h-2v-1l2,-1h1v1ZM308,205l-1,1h-1l-1,-1v-1h1v-1v1h1ZM299,195h-2v-1h2ZM313,196h2l-1,1h-1ZM301,207l-1,1v-1l1,-1ZM304,195h1h-2v1l-1,-1h1ZM314,193h-1v-1h1ZM310,204h-1l1,-1v-1h1v1ZM196,103h1h-1l-1,1h1h-1h1v-1l1,-1h1l-1,1l3,-3v1v-1v1h-1l-1,1h-1l-2,2h-1v1h-1l1,-1h1l1,-1h1v-1l3,-2l1,-1h1l1,-1h-1l-3,3h-1l-1,1v1ZM182,114h1v-1l2,-1v-1h1h-1v1l3,-3h1v-1h1h-1h1l1,-1l2,-1h-1l1,-1v1h-1l-1,1l1,-1v1h-1l-3,3h-1l-2,1l-3,3v1h-1l-2,2v-1v1h-1v1h-1l-3,3l-2,1v1h-1v1h-1v1v-1l1,-1h1l6,-6h1l2,-2Z"/>
<path class="sp" d="M183,114v-1M185,112l3,-3M170,125v-1l1,-1h1l6,-6h1l3,-3"/>
<path class="sl" d="M244,71h-1l-1,1h-1l-1,1h1v-1v1h-1l-1,1h-1l-1,1h-1l-2,2h-1l-1,1h-1v1h-1v1h-1l1,-1h1l1,-1h1v-1h1h-1v1v-1h1l1,-1l-1,1h-1l-1,1l-2,1h1l1,-1h1h-1h1v-1v1h-1l-1,1h1v-1h1l1,-1h1v-1h1h-1v1v-1h1l1,-1h1h-1v1h-1v1h-2l-1,1h1h-1h1h-1l-1,1h-1v1l2,-2h2v-1h1h-1l-1,1h-1v1h-1l-1,1h-1v1v-1h1h-1v1h-1l-1,1h1v-1h1l2,-1l1,-1l-2,1l-1,1h1v-1h1v-1h1l-1,1h-1v1l-2,1h-1v1l-1,1h-1l-1,1h-1l1,-1h1v-1v1h-1l-1,1h-1v1v-1h1l2,-1l2,-2h-1l-2,2h-1h1h-1v1h-1l-2,1l-1,1h-1v1h-1l-1,1l1,-1h1v-1h1l2,-2h1l1,-1h1h-2v1h-1v1h-1l-1,1l1,-1h-1v1h-1l-1,1h-1l-1,1h-1v1h-1l-1,1l1,-1l-1,1h-1l-1,1h1v-1l4,-2l1,-1h-1v1l2,-2l2,-1l1,-1h1l2,-2h1v-1h1l2,-2l4,-2l1,-1h1l1,-1h1v-1h1l1,-1h1v-1h1l1,-1h1l1,-1h-1h1ZM194,105l1,-1l-1,1h-1v1h-1l-1,1h1v-1l1,-1Z"/>
<path class="sp" d="M192,106l1,-1"/>
<path class="sl" d="M189,110h-1h1v-1ZM194,105h-1ZM203,98l1,-1l-1,1h-1v1h-1v1h-1l1,-1h1Z"/>
<path class="sp" d="M201,99h1l1,-1"/>
<path class="sl" d="M239,74v-1h1ZM236,76h-1v1v-1ZM246,69h1ZM238,75h-1ZM226,83l-1,1l1,-1h1v-1v1ZM119,373h1v-1h1v-1h3l1,-1h1v4h-1v2l-1,2v2l-1,1v1h-1v-1v2h-2v1l-1,1v1h-2v1h-2v1h-1v-1l-1,-1v-3h1v-1l-1,1v-7l1,-1l2,-1ZM180,549l-1,1v-1ZM164,586l-1,-1l1,-1v1ZM175,558v1l-1,-1l1,-1ZM150,382l-1,1l1,-1l-1,-1h1v-1v1ZM195,453v-2h1v1ZM195,456l-1,1v-1ZM147,370h-1h1v-1ZM118,369l1,1l-1,2h-2l-1,1v-2h1ZM116,358h-1l-1,-1h1v-1l1,1ZM113,375l-1,2h-1v-1l1,-1h1v-1ZM120,372l-1,1l-1,-1l2,-2l1,1h-1ZM115,372l-1,1v-2l1,-1v-2v3ZM116,369v1h-1v-1l1,-1v-1h1v1ZM107,389h-1l2,-4v-3l2,-2l1,1l-1,3l-1,2l-1,1ZM169,597v1l-1,-2v1ZM80,298v-2l1,1ZM848,186v1l-1,-1v-1l-1,-1l1,1ZM55,273l-1,1l1,-1h-1v2l-1,1v1v-1l1,-1v-2ZM64,255l-1,2v1l-1,2h-1h1v-2l1,-1v-1h1Z"/>
<path class="sp" d="M64,255v0"/>
<path class="sl" d="M54,280v1l-2,2v1v-1l1,-1v-1h1v-2ZM56,270v1h-1v2h-1v1v-1h1h-1h1v-2l2,-2v-1v1ZM58,267v-1ZM57,272l-1,1v-1v1ZM60,264v1ZM55,276l-1,1l1,-1v-1h1v-2l1,-1l-1,1v2h-1ZM61,261v1h-1v2l-1,1v-1h1v-2h1v-1v1v-1v1h-1ZM56,272h-1ZM55,274l1,-1v-1l1,-1v-1v1h-1v2ZM59,266l-1,1l1,-1v-1l1,-1l-1,1ZM58,271v1v-1v1h-1ZM55,277v1ZM771,99v-1l1,1h1v1h1l1,1h2v1h1v1h1l1,1l-2,-1h-1l-1,-1h-1v-1h-1v-1h-1l-1,-1ZM767,93h-1v-1v1ZM788,834h-1v-1l1,-1v1ZM771,96l-1,-1h1ZM232,833l-2,-1l-5,-5l-2,-1l-5,-5l2,1h1h-1l1,1v1h2l2,1h1l1,1h3l1,1h5l1,-1h1v1l1,1h-1v1l-1,1v1h-2l-1,1h-2ZM239,825h1v-1h1v1h-1v1h-1ZM158,717v1v-1h-1ZM79,275v1h-1ZM80,272v-1Z"/>
<path class="sw" d="M578,42h-1ZM778,435h-1l1,1ZM778,436h1l-1,-1ZM876,205v-1ZM767,93h-1v-1v1ZM771,96v-1h-1Z"/>
<path class="sh" d="M324,831h2l1,1l-1,-1l-1,1h-2v-1ZM319,928h-1ZM312,862h2v1h-1v-1h-1v4l2,2h-1l1,1h1l1,1h-2l1,1h-2v1h1v1l1,1v2h-1l1,1h1h-1v1l2,1h1v1l1,1h1l1,1l1,-1v-2h1v1l1,1v1v-1h-2l1,1h-2v2h2v1h1l-2,-1h-2v1h1v1h1v1h2v1h-2l2,2h1v2h1l2,2h2v1h1v-1h1v2h2v1h1l2,-1h-1v-1h-1l1,-1v-1l1,1h-1v1h2l2,2h3l1,1h1l2,1h2l1,1h1h-1l1,1h3v1l1,1h1v-1l1,1h2l1,1v1l1,1h1l-1,-1h2l1,1l-1,1v1h1v-1h3l1,1v1h4l1,1v-1l1,1h1v1h-1h1v1h-2l1,1h4l1,1h-1v1h3l-1,1h2l-1,-1h1v1h1v1h-1l2,1h1v1h-2l1,1h-1h1v1v-1h2l-1,1l1,1v-1h1l1,1v1l1,1v3l1,2l1,1v1h1v1h-1l-2,2h-1v1h-1v1h1l1,1h6v-1h2v-1l1,1l2,1l1,1v1h-2l-1,1l-2,1h-1l1,1h3l2,-1h3l1,1h-1l1,1l-1,1h-6l1,1h9v-1h1l1,-2h1l2,1h1l1,1v2l2,-2h-1h5l1,1h2l-1,-1h2l-2,-2h6l3,-1h2l1,-1h1v1h-1v1h-1h1h-1h2v1h2l1,1v-1h1v-1h1v-1v1l1,1h2l1,1h3l1,1h1l1,-1l-2,-1l-2,-2h-1v-2h-1v-1h1v-2h1l1,-1l1,1v-1h1l1,1h1v1h1v-1h1v-1l-2,-1v-1l-2,-2v-3h2l1,1v-1l1,-1h-1v-1h1l1,-1h1v-1h1v-1h1v-1l7,-1v-2h-3l-8,1l-1,-1v-1h-2v1h-9v-1l-1,-1l-1,-2l-1,-1h1v-1l-1,-1v-1l1,-1h1v-1l1,-2v-1l2,-2h1v-1l1,-1h1l2,-2l2,-1h4l1,-1v-1h4v-1h-1v-2l1,-1h-1l1,-2v-1h4v-1l1,-1v-1h-2l-1,1h-1v-1h1h-2v-2l1,-1v-1h3l1,-1l-1,-1h-1h3l2,-2h1l1,-1v-3h-2l-2,-2v-1h2l1,1h2v-2h1l-1,-1h2l2,2l1,2h1l1,-1h1v-3h-1v-1l1,-1l1,1l1,-1h3v1l-1,1v1h11v1l2,-1h1l1,1v1h1v-1l1,-1h2v-1h2l1,-1l2,-1h3l6,-1h6v-1l2,1h1l2,-2l1,1h1l3,3h2l2,-2h1l1,-1h-1v-1h2v2h5l1,1h1l1,-1h1v1l1,1l3,1v-1h1v-1h2v2l-1,1v1h2v1l3,-1h1l1,-1l1,-2l1,1v1h1h-1v1l1,1h2l2,-2l1,1l-1,1v1h1v1h1l1,1h4l1,-1h4l2,-1h10l1,-1h1l1,-1v-1h1v-2l2,-2h3l1,1l-1,1h-1l-1,1h2v3l-1,1h3l1,1v1h2l1,1l-1,1v1h1v-1h1l1,-1h2l4,-4h4l1,-1h4l3,-1h1l1,1h3l2,-1l1,1h3l2,-2l2,2h-2v2h1v1h-1v1h1l2,-2l2,-1h2l-1,-1h-1h1v-1h2v1l1,1v1h1l2,-2v-1h1l1,-1h2l3,-1h1l1,1h4l2,2v1h1l-1,1v4l-1,1l-1,-1v-1l-1,1v1h-1l-3,1h3l1,1h1v4h1l1,1v1h1l1,2v1h2l1,1v1l1,1v2h1v1l2,2h1v1l-2,1h-1v1h-1l-1,1h-2l-1,1h-1l-1,1h-1v1l-1,-1h-1l-2,2h-2v-1h-3v1h-1v1h-1l1,1h1v1h-2l-1,1l-2,1h-4l-2,1h-1l-2,1l-3,1h-1l-4,2h-2v1h3l1,-1h9l1,-1h3l2,-1h1l2,-1h5v-1h1l2,-1h3v3h1l1,-1h5l1,1l1,-1h4l1,-1h3l2,1h1l2,1h1v1h5v1l-1,1h1l1,1h1l1,1v3h2v2h-1v1h1l-2,2h2l-2,2v1h1v1h-1v1h1h-1v1h-1v2h4l-1,1v1l-3,3h-1l-5,5h-1l-1,1h-1l-2,2l1,1l2,-1h1l1,1h-1v1l-1,1h-1l-6,3l-1,1h-2l-1,1h-1l1,-1v-1h-1l-1,1v1l-1,1v1h-1l-1,1h-1v1h-1v1h-1v1v-2l-3,3v1h-1v1h-1v1h-2l1,1h-1l-1,1h-1l-2,1h-3v1h-1l-2,1h-1h3v1h-2v1h-2l-1,1h-1v1h-3l-1,1h-2v1h-1l-1,1h-3l-1,1h-1l-1,1h-2l-2,1h-2l-1,1h-3l-1,1h-2l-1,1h-3v1h-3l-1,1h-2v-1v1h-2l-1,1h-3l-2,1h-4l-3,1h-2l-1,1h-3v1h-6v1h-4l-2,1h-5l-2,1h-5l-1,1h-15l1,1h1h-8l-2,1h-15l-1,-1v1l-1,-1h5l1,-1h1h-1h3v-1h2l1,1v-1h-3v-1h5v-1h-1h2l1,-1l-2,1h-1v-1h-3v-1h-3l-1,-1h-3v-1h-2v1l-1,-1h1l1,-1h3v-1h-1h2l-1,-1h1h-1v-1l-1,1v-1l2,-1h-1l-2,1l-1,-1h-1h1h-1l-1,-1h-1l-1,-1h-4v-1h2v-1l-1,1h-5l-1,-1h-2v-1h1h-7v-1h-5v-1h-5l-3,-1h-3v-1h-3l-1,-1h-2l-1,-1v1h-1l1,1l4,1h1h-2v1h1h-1v1h3v1l2,1l3,1h-3l-1,-1h-2v-1h-5v-1h-8l-1,1h-4v1l-1,1h-1h1l1,1h1h-8l-5,-1h1h-1v1h1h-1v1l-1,-1h-4v1h1l1,1h1v1h2l1,1h1l1,1h-2l1,1h1v1h-7v-1h-3v-1h-3v-1h-3l-2,-1v1h-1l-1,-1h-1l-1,-1l-1,1h-2v1h1l2,1h1h-4l-1,-1h-1v-1h-1v1h-4l-1,-1h-5v-1h-3v-1h-4l-3,-1l-1,-1h-5l-1,-1h-1l-1,-1h-2v-1h-1l-1,-1h-1l-1,-1h-2l-1,-1h-1l-2,-1l-1,-1l-6,-4h-3v-1h-1v-1h-1l-1,-1l-2,-1h-3v-1h4l1,1h2l-2,-2h-5l-1,-1l1,-1h1l1,1h3l2,1l-2,-2v-2l-2,-1l-3,-3h2v-1l-1,-1v-1h-2l-1,1h-2l-1,-1h-1l1,1h-4v1h-2l-1,-1v-1h1l-2,-2h-1l-1,1v1l1,1h-4l-1,-1h2v-1h-1v-1l-1,-2h1l1,-1v-1l-1,-1h1v-1h-1l-1,-1v-1h1v-1l-1,-1h-2v-1h-1l-1,-1v-1h1l1,1l2,1h1v-1h1v-1l-1,-1h3v-1h2v-1h1v-1h-1l-2,-1h-1v-1h1h-1l-2,-1h-1h1l1,-1l2,1h2v-1l1,-1h-1h1l1,1h1l1,-1h-1v-1h1v-1l-1,-2v-2l1,-1h-1l1,-1v-1l-1,-1v-1l-2,-1l-3,-3h-3l-1,-1h-1l-6,-3h-1l-2,-1h-2l-2,-1l-1,-1h-2l-1,-1h-1v-1h2l-2,-2h-1l-1,-1h-1v-1h-1l-2,-2h-2l-1,-1h-1l-1,-1v-1h-1v1h-1l-2,-1l-1,-1v-1h1l1,1v-1l1,1v-1h-2v-1h-1l-2,-2h1v-1h-1l-1,-1h-1v-1l-1,-1h1v-1h-1l-1,-1h1h-1v-2h-1l-1,-1h-1v-1h1v-1h1h-1l-1,-1v-1l-1,-1h1v-2l-1,-1v-1l-1,-1v-1l1,-1v-2l-1,-1h1v-4h1Z"/>
<path class="sh" d="M431,923h1l1,-1h1v1h2v1h2v1l2,1v1h1l-3,5h1l-3,2h-3v-1l-1,-1h-1h1v-2l-1,-1h-1v-1h-1v-1h-2v-1h-1v-1h-2v-1h-1v-1l-1,-1v-2h1l1,-1h3l1,1h2l1,1l-1,1ZM428,935l1,1h1v1h1v1h-4v1h-3l2,-2v-1h-2v-1h-1v-1h-1h3l1,1h1ZM333,905h1l3,1l2,1h2l3,1h1l1,1h2l2,1l1,1l3,1l2,2h1l2,2h1v2h-1v1h-1v1h-3v-1h1v-1l1,-1l-1,-1v2h-2v-2h-4v1l2,1h-2v1h2l1,1h-5l-1,-1h1v-1h-2v-1h1v-1h1v-1h-1l-1,1v-1h-1v-1h1v-2h1v-1h-2v1h-2l-1,-1v-2h1h-3v1h-3l-2,-2h-2v-1h-3v-1h-1v-1l1,-1h1ZM346,945h2l-2,-1h1l1,1v-1h-2l-1,-1h2l1,1h1h-1l-1,-1v-1l1,1h2v1h1v2h1h-1v1l-1,1v2l-3,-3h1l-1,-1h-1l-1,-1ZM380,969h4l2,1l1,1h-5l-1,-1v-1ZM384,973h2v-1h-1h3v2l-1,-1v1h1h-3v-1ZM468,984l2,1h2l2,1h1l-1,1h-4l-2,-2ZM525,990h-2l1,-1h1l1,1h-1h1ZM454,921h3l-1,1h-2l-1,-1ZM448,920l-3,1h-1h1v-1h2ZM416,939l-1,1h-2l-2,-1l-3,-3l-1,-2h2v1l2,2h1l1,1h1l1,1ZM315,866v-1v1h2v1h1h-1v1v-1h-1l1,1h-1v-1h-3v-2h1v1ZM314,859l1,-1l1,1l-1,1h-1v1h-1v-1h-1l2,-2ZM300,855h1l1,1h-1l1,1h-1v1h-1v-2ZM308,875v1v-1h1v3h-2v-2h-1h1h-1v-1h1ZM309,874v1h-1v-1l-1,-1h-1v-1h1l1,1h1ZM322,895l1,1h-1h1v1h1h-1h1h-3v-1l-1,-1h-1v-1h-1l-2,-2v-1h1v1h1l1,1h1l1,1v1ZM341,914h1v1l1,1v3h-1l-1,-1v-2h-1v-1l1,1v-1h-1h1h-1v-1ZM333,912h1l2,2l-1,1l-1,-1h-1v-1ZM360,923l1,1h1l1,1h1l-3,1h-1v-1h-1v-1h-2v-1h2ZM355,940l1,1h-1l-1,-1h-3l-1,-1h4ZM522,989h1v-1h1l1,1h-2ZM702,934v-1h1v-1h2v1h-1l-1,1ZM576,873h-2v-2h2v1ZM483,867h-1l-1,-1h2ZM490,866v-1h2v1ZM421,938h-5v-1h5ZM416,937l-1,1l-1,-1h-1l1,-1h1v1ZM302,847v1l-1,-1l2,-1ZM316,861h-2l1,-1ZM319,868h-1v-1l1,-1v1ZM312,859v1h-1v-1l1,-1ZM314,864h1v1h-1ZM347,898h-1l-1,-1h-2l-1,-1h3v1h1ZM299,862l1,-1l1,1v1v-1h-1v1h-1h1h-1v-1h-1ZM335,909l-1,1l-1,-1h-1h1ZM352,943h-2v-1h1ZM360,954h-2ZM381,968h-3v-1l1,1h1ZM395,974v1h-2v-1h1ZM481,978h2v1h-2ZM476,981l3,1h-3ZM536,993h1ZM537,992v-1ZM525,995h1v1h-1ZM550,997h1ZM557,997h-1h2ZM560,996h1ZM702,929h-1v-1h1ZM698,934h1ZM697,933l1,-1v1ZM702,936h2v-1h1h-1v1h-1ZM705,922v-1h1v1ZM695,916h1l1,-1v1h-1ZM697,917v-1h1v1ZM698,915v-1h1h-1ZM646,915h-1ZM641,915h1l1,-1v1h-1ZM658,912l1,-1h1h-1v1ZM648,870h-1v-1h1l1,1ZM548,866h-1l-1,-1l1,-1h3l-2,1ZM509,867h-1v-1l1,-1v1h1h-1Z"/>
<path class="sh" d="M492,870h-2v-1h1v1ZM504,865h-1v-2h1v1ZM493,868h1l-1,1v1h-1v-2h-2v-1h2ZM513,866h-1v-1h2ZM451,889l1,1v1h1v1h-1l-1,-1h-2v-1h1v-2h1ZM459,881h-2v-1h1v1ZM467,877h-2v-1h1v1ZM452,921h-1ZM306,846h-1v-1v1ZM301,858v1h-1v-1ZM350,898h-1ZM342,892v1l-1,-1ZM356,901h-1l-1,-1h2ZM359,902h-1ZM301,860h-1v-1ZM302,864v1v-1h-1ZM308,869h-1h1l-1,-1ZM307,872v-1ZM310,877v1v-1h-1ZM299,868v-1h-1v-1l1,1ZM313,885v1l-2,-2h1v1ZM315,888v1v-1h-1v-1v1ZM319,892h-1v-1ZM325,896h-1v-1h1ZM340,911v-1v1h1ZM362,924h1h-2v-1h1ZM353,942l1,1h-1ZM378,966h1h-1l-2,-1h1v1ZM401,978h1ZM400,977l1,1h-1l-1,-1ZM438,985h1ZM430,985h1h-2ZM438,984h1v1h-1l-1,-1ZM441,985h1v1ZM441,986h-1v-1h1v1h1ZM443,986h1ZM435,985v1l-1,-1ZM437,985h1ZM446,985l1,1h-1ZM462,983h1l1,1h-1v-1ZM443,985h1v1h1h-2ZM474,980v1Z"/>
<path class="sw" d="M579,9h-3l-1,-1h1l1,1v-1v1h1ZM620,15h1h-1h1h-1h3v1h4v1h3v1h3l1,1h-1v-1h-4v-1h-3v-1h-4l-1,-1ZM761,311l-1,1v4l-1,1h-2v1l-1,1h-1v1l-1,1v-2h-1v-1l1,-1v-1h1v-1h1l1,-1l2,-1l1,-1ZM624,209h-2v1h-2v-2h4ZM780,456v1h-1v-1l-1,-1v-2h-1v1l-1,1v-1l-1,-1v-2h1v-2l-1,-1l-1,-2l1,-1v-4h-1v-4l-1,-1h1v-2h1v-1l1,-1v-10h1v-2h-1v-1l-1,-1v-5h1v1l2,2l1,2v12h1v1h1v1l-1,2v2h-1l-1,1v13l1,1v3ZM778,436v-1h-1ZM778,436h1l-1,-1ZM785,337v2h-2v1h-1v-1h-1l-1,1v2l1,1h-1v1l-1,1v1h-1l1,1h-1l-1,-1v3h-3l1,1h1h-2v1l2,1h2v1h-2v1h-2l-1,-1h-2v2l1,1h-1l-1,1v-1h1v-3h-1v-1h-1v1v-1h-1l-1,-1v-1h-1v1h-1l1,1h-2l1,1v1h-1v-1l-1,1v-4l-1,-1v-3l1,-3v-1h1v-3h-1v-2l1,-1v-1l1,-1v-1h-1l1,-1h3v-1v1h1v-1h1v1h3v-1l1,-1h1v1h1v2h1v-1h1v1h1v2h1v1h1h-1v1l1,1h1v1v-1h1v-1ZM765,350h-1v-1h-1v1h1v1v-1ZM767,335v-1h-1v-1l-1,1h1v2h1ZM773,351v-2h-1v-1h-1v2h1ZM775,332v-1h-1v2h1ZM562,7h1h-1v1h-3v-1h-1v1h-2v-1h1h-1h5ZM12,392v1h-1v1v-1Z"/>
<path class="sr" d="M11,395v-2l1,-1"/>
<path class="sw" d="M796,251h-1v-1h-1v-2h4v4l-1,1v-1ZM51,561h-1v-1h-1v-1h-1l1,1h-1v-3l-1,-1v-2h1v1h1l1,1h1v1h1v2h1v3h-1v-3h-1v1ZM631,17v1h4v1h3l1,1h2l1,1h1h-1h1h-1l-1,-1h-3v-1v1h1l-1,-1h-3l-1,-1h-1h1h-3v-1h-1ZM636,19h-1Z"/>
<path class="sr" d="M633,18h1M635,19h3M630,17h1M636,19h-1"/>
<path class="sw" d="M531,15v1h-4v-1h1h-1v-1h1v1h2ZM531,16v-1h-2v1h-1h2ZM665,28h-1h1h-2l-1,-1h-1l-2,-1h-2l-1,-1l1,1h2l2,1h-1v-1v1l-1,-1h-2v-1v1h2l2,1h1l1,1h2v1v-1h-1ZM780,459h-1v1v-2h1ZM798,320v1h-1v-3l-2,-2v-1l-1,-1v-1l-1,-1v-1l-1,-1v-3l1,-2v-2h1v2l1,2v5l1,2v2l2,2v1ZM598,18h1ZM598,18h-1ZM141,759h-1v-1l-1,-1l1,-1v1h1v1ZM741,397l-1,1v1l-1,2l-2,1v1h-3v-2l1,-1l2,-3l2,-1l1,1ZM785,125l-1,-1l-1,-2h-1v-1l1,2h1l1,1h1v1ZM792,132h-1l-1,-1h-1v-1l-1,-1h1l1,2h1ZM747,121l1,1v1h-1v-1ZM622,17h1v1h1h-1ZM540,222v1l-1,1l1,1v1h-1v-1h-1v-1h1h-1v-4l1,1h1ZM783,109v1h1l1,1v1h-1l-3,-3v-1l-2,-1v-1h-1h1l1,1h1v2h1ZM816,115v1h-1v-1h-1v-1h-1l-1,-1h1l1,1h1v1ZM745,419v2h-1l-1,1v-1h-1v-1l-1,-1h1l2,-2v1v-1h1v1l1,1ZM622,17h-2l-1,-1h-1h2ZM744,340v2l1,1h-1v1l-1,1h-1v1h-1v-1l1,-1h-1v-1h1v-2l1,-2ZM746,332h-1v-2l1,-1v-1h2l1,1v1l-2,1ZM120,655v1l-1,1v1l-1,-1h-1v-3h2ZM679,45v-1h-2l-1,-1h-1l-1,-1h-1l-1,-1h-1h1v1h3l1,1h-1v-1l1,1h1l1,1h1ZM50,295v1ZM196,813v2h-1v2h1v-1v1h1v1l-2,-2l-1,1v-2h-1v1h1h-1v-1h-1v-1l1,1h1l1,-1v-1ZM715,83h1v2l-1,-1h-1l-1,-1v-1h1v1ZM612,13h-1h2v1v-1ZM612,13h1h-1h1ZM612,13h1ZM616,14h1h-1h1ZM612,13h3v1v-1h-4v-1h-1l1,1ZM621,15h-1ZM638,21h-1l-1,-1h-1h2v1ZM541,32h-4l1,-1h3ZM467,11h1v1h-1ZM567,8h-1v1h-1v-1h1ZM767,101l-1,-1h-1l-1,-1h-1h5v1h-1l1,1v1ZM555,4v-1h-1h1v1h1h-1l-1,-1ZM766,398v1l-2,-2h-2v-1l-1,-1v-2h1l1,1l1,2ZM608,12h-1h1h-3v-1h-1h1v1v-1v1h1h-1v-1l1,1h1ZM572,8h-1ZM601,10h1v1l-1,-1h-1h1h-1ZM651,23h-1h1v1h1h-1ZM92,348v2h-1v1h-1v-1l1,-1v-2h2v1ZM791,368l1,-1v-1v1h1l-1,1v1h-1ZM806,292h1v1h-1v2h-1l-1,1v-1l1,-1v-2ZM603,36h-1h3l1,-1v1h-2ZM137,750v1h-1v-1ZM192,811h-1v1h-1v-1h-1v-1l1,1l1,-1h1v1h1ZM655,319v-1h-1v-1l-1,-1h2v2h1v1ZM616,16h-1ZM550,3h1h-1h1ZM175,120h1Z"/>
<path class="sr" d="M175,120v0"/>
<path class="sw" d="M769,95h-1h1l1,1h1l1,1h1v1h-1v-1h-1v-1h-1ZM226,82h1v-1v1h-2l-3,3h-1l-1,1l1,-1h1l2,-2h1v-1ZM818,151h-1v-1h-1l-1,-1h-2v-1h-1v-1l1,1h1v1h2v1h1ZM223,84l-1,1h-1h1ZM830,263v1ZM132,586l-1,1l1,1h-1v1h1v1h1v1l-1,1h1h-1v1l-1,-1l1,-1h-1v-1h-1h1v-1h-1l1,-1l-1,-1l1,-1h-1v-3l-1,-1v-1l1,1v1l1,1v2ZM14,392v1v-2ZM732,464v1h-1v1h-1v-1h-2v1v-1h-3v2h-1v-1v1h-2v1l-1,1v1h-2l-1,1v1h-1v1h-1v-1h1v-1h1v-1h1v-1l3,-3v-1h1v-1h1l1,1l2,-2h4v1ZM776,321h-3v1h1v1v-1l1,1h-1v1l-2,-2h-1v1v-1h-1l-1,-1v-1h2v1h2v-1v1v-1h1v1h1v-1ZM659,26h1l1,1h1h-2l-1,-1h-1ZM557,29h-3l-1,-1h1l1,1h1ZM594,10h-1ZM749,124h-1ZM745,116l-1,-1h1ZM502,249h1h-1v1h-1v1h-2l-1,-1h-1l-1,-1h-1l-1,-1h2v1v-1h1v1h2v1h1v-2h-1h2v-1h-1h1v-1l-1,-1h2l-2,-2h-1h1v-1h-5v1h-1l1,-1h3v-1h1v-1h-1v-1h-3v-1v1h-1v-1h-1h2l-1,-1h-1v-1l-1,-1h-1v-1v1h-1l-1,-1h-2l-1,1h-1l1,-1h1l1,-1l1,1h2v-1h-1v-1v1h1v1h1v1h1v-1l1,1v-1v1h-1v1h1v1h1v1h2v-1h1v1h-1h1v1h1v1l1,1h1v-1h-1h1v-3h1l-1,-1v-2h1l-1,1v1h1v1h1h-1v2h-1v1h1v3h1v1h-1h1v1h-1v1h1h-1v2ZM501,249h1l-1,-1h-1v1ZM801,101h-1l-2,-2h1v1h1v1l1,1h1v1h1l1,1h-1l-2,-2ZM803,102h-1l-2,-2h-1l-1,-1v-1v1h1v1v-1v1h1h-1l-1,-1h1l2,2h1h-1h1v1ZM800,100l-2,-1h1ZM753,400v-1h-2v-2l1,-1v-1h-1v-2h-1v-1l-1,-1v-4l-2,-2h-1l-1,-2v-1l-1,-1v-1l-1,-3v-1l-1,-1h1v-1h1v-2l-1,-2v-1l-1,-1v-3l1,-1v-2l1,-2v-1l-1,1v2l-1,-1l1,-1h-1v-1l1,-1v-5l1,1h1l-1,1v1l1,1v2l1,2v2h1v1l-1,2v1h1v1l1,1h-1v3l1,1v3h-1v1l-1,1l1,1l1,2h2l1,1v2l1,1v6h1v1l1,2v2h1v2h1v3l-1,1l-1,-1ZM165,645v1l1,1v1h-1v1v-1h-1v5l1,1v1h-1v-2h-1v-8h1v-1h-1v-1h1v1h1ZM704,60h-1l-1,-1h-1v-1h-2v-1h-1l-1,-1v1v-1h-2l-1,-1h-1l-1,-1h1v1h2l1,1h1h-1h2v1h2l3,3ZM615,14h1h-1l-1,-1v1h1h-1h1h-1h-1v-1l1,1l-1,-1h-4v-1l1,1h1h-1v-1l1,1h1h-2v-1h-4v-1h-1h1l1,1h-1v-1h-1h1h-4v-1h-1h1v1h4v1h5v1h1h-1l-1,-1h-1h1l1,1h1h-1h4v1v-1v1h1ZM606,11l1,1h1h-1ZM611,13h-1ZM612,13h-1ZM614,13h-1h1h-1h1v1ZM616,14h-1v-1h-1h1v1ZM174,789h1l-1,1h-1v3l1,2v1v-1l-1,-1v-1h-1l-1,-1h1v-4l1,1ZM603,11h1h-1h1h-1h1h-1h1v1h1h-1h1h-1v-1h-3v-1h-1h1l1,1l-1,-1h-1h1h-1h1h-1l1,1h1h-1v-1l1,1h1h-1h1h-1ZM695,52h-2l-1,-1h-2v1h-1v-2h-1h1l1,1v-1v1h3l1,1ZM720,51l-2,-1h-1h1h-1v-1v1h2v1l-1,-1l1,1h1l1,1h1l1,1h1v1h1l-1,-1h-1h1l2,2h2h-2v-1v1v-1h-1h1h-1l-1,-1h-2v-1h-2v-1h-2v-1h-1l-1,-1h-1l-1,-1l1,1h1h-1v-1v1h1l1,1h2v1h2Z"/>
<path class="sr" d="M720,51h1"/>
<path class="sw" d="M177,425l1,2h-1l-1,1v1l-1,1h-1v1h-1v1h-2l-1,1l-1,2h2v1h1h-4v1l1,2l1,1v3h-1l1,-1v-2l-1,-1h-1v1l-1,1v5l-1,1v-1h-2l1,-1v-2h1l-1,-1v-1v1h2l-1,-1v-1h1v-2h1v-1h-1v-1h-2v-1h1l1,1v-1h1v-1l1,-1h-1v-1h1v-1h1v-1v1h1l1,-1h2v-1v1v-1h1v-3h1v-1ZM166,444v-1h1h-1v1h-1h1v2l1,-1ZM606,12h-1v-1h-1h1v1l-1,-1h-1h2v1ZM746,168h-2v1h-1v1h-1l-1,1v1l-1,1v-1l1,-1v-1h1v-1h1v-1l-1,-1l1,1h1v-1h2v1h2v-3h1v-1h-2v-1h1h-1h1v-2l1,1v2h1h-1l1,1v1h-1h1v1h1v1l-1,-1h-2v1h-1v1h-1h1v-1ZM599,10h-1h1h-1l1,1l-1,-1v1h1h-1v-1h-1h1h-1h1ZM595,10h1h-1h1h-1h1h-1v-1h-1h1v1h1h-1h1ZM502,249h1h-1v1h-1v1h-2l-1,-1h-1l-1,-1h-1l-1,-1h2v1v-1h1v1h2v1h1v-2h-1h2v-1h-1h1v-1l-1,-1h2l-2,-2h-1h1v-1h-5v1h-1l1,-1h3v-1h1v-1h-1v-1h-3v-1v1h-1v-1h-1h2l-1,-1h-1v-1l-1,-1h-1v-1v1h-1l-1,-1h-2l-1,1h-1l1,-1h1l1,-1l1,1h2v-1h-1v-1v1h1v1h1v1h1v-1l1,1v-1v1h-1v1h1v1h1v1h2v-1h1v1h-1h1v1h1v1l1,1h1v-1h-1h1v-3h1l-1,-1v-2h1l-1,1v1h1v1h1h-1v2h-1v1h1v3h1v1h-1h1v1h-1v1h1h-1v2ZM501,249h1l-1,-1h-1v1ZM560,4h-2l-1,-1h-1h1l1,1h1ZM549,3h1ZM788,128h-1v-1h-1h2ZM622,53h1h-1l-1,-1h1ZM120,407h-1v-4l1,-1v1l1,1v3l1,1v2l1,2v1l1,-1h1l-2,2v-1l-1,-1v-1l-1,-1v-1h-1v-1ZM165,515h1h-1v1l-1,1h-1l1,-1v-1v1h-1l1,-1v-1h-1v-1h-1v1v-4h1v3h1v1v-1v2h1v-1ZM134,544v-1h-1h1v-1h1l-1,-1h1v-1l-1,-2v-1l1,1v1l1,-1v-1h1l-1,1v1l-1,1v1h1v1h-1v2h1h-1ZM138,754v-1h1v1ZM173,776l1,1h1l-1,1l-2,-2ZM553,29h-1l1,-1h-1h1ZM654,24h-1h1l1,1h1h-1ZM548,3v1h1h-1Z"/>
<path class="sb" d="M449,66l-1,-1v-1l1,-1h1l1,-1h1v-1h-1l-1,-1v-1h2v-1h1l-1,-1h-1v-1h-1v-1h3l1,-1l-1,-1h2v-3h-1h2v-1h1l1,-1h1v-1h-2v-1v1l-1,-1v1h-2v-1v1h-7v-1h-1l-1,1h-2M511,44h-2v-1M521,44h-10v-1h-4l-1,-1h-2v1h-5v-1h-7v-1l-1,1v-1h-2v-1M536,23h-3M534,21h-2v1h1v1h-2v-1h-4v-1h-4v-1h-5v-1h-4v-1M533,20h-1l-1,-1h1h-1v-1h-8M545,28h-1v-1l1,-1v-1h1l-2,-1h-6v-1h-2v-1h1h-3v-1h1v-1h-2v-1h-1h1l1,-1h-1l-1,-1h5v-1h-1h1v-1h1h-1v-1M543,33h-2v-1l-2,-1h-1l-1,1h1h-1v-1h-1h2v-1h2v-1h1v-1h1v1h2v-1h1l2,1l1,-1l1,1h1v-1h-1h3v1h4M557,31h-1v-1M562,32v-1h-5v-1h-1h1v-1h-1h2l1,1h2v-1v1h14v1h1v-1h-1l-1,-1h3v-1h2M595,35v-1h1v-1h1l-2,-1h1l1,1h2l-1,-1h1M596,30h-1l-1,-1h-5l-1,-1h-4v1h-1v-1h-1v1l-1,-1h-3v-1h-3v-1h-3l-1,-1h-1l-1,-1h1h-2v-1h-1h10v-1h1h-1h2v1h2M625,35h-2v-1h-3l-1,-1h-4l-1,1l-1,-1h-5v1h-2l-1,-1h-3l-1,-1h-3l-1,-1h-1v-1h6v-1h3M626,33h-2l-2,-1h-1l-1,-1h-6v-1h-2v1l-1,-1v1v-1h-2v-1h-5l-1,-1h-1l-1,-1h-4v-1h-1l-2,-1h-1v1h-1l-1,-1h-1v-1h-5l-1,-1h-3v-1h-1v-1h-2v-2h-2l-2,-1v-1h1h-1l-1,-1M613,20h-3l-3,-1h-4l-3,-1h-2M625,27h-1v-1h-3v-1h-1h2v-1h-1l-4,-2M630,37v-1h-2l-1,-1h-2v-2h1v-1h-1l1,-1h4v-1h-1l-1,-1h-1l-1,-1h-1v-1h-1h2v1h1v-1h2v1h5l1,1h3l1,1h2l1,1h3l1,1h3l1,1v-1h1v1h3v1h3l1,1h1l-1,-1v-1h1v1h3M649,39h2l1,1h3l1,1h2v1h3l1,1h2v1l1,1h2v1h1v1h2l1,1h1l1,1h-3v-1h-3l1,1h-1v1h-1M620,40h5v-1h1h-1h1v-1h1v-1h4v-1l1,1h3l1,1h3l1,1h6l2,1v-1h2v1h2l1,1h1v1h2v1h2v1h1l1,1h1l2,2v1h1v1h1v1h1l1,1h1l1,1h1v-1h-1h1l1,1v-1l1,1h2v1M638,49h3v1h1l2,1h3l1,1h4l2,1h10l2,1l1,1h2l1,1h2l1,1M547,40h1v-1h-3l-2,-1h-1l1,-1v-1h-2v-1l1,1l1,-1h1l-1,-1h-2v-1h8v-1h2v1h2l1,1h1h-1v-1h2l-1,-1h2v1h3v-1h13v1h3l2,1h3M583,37h1h-1l-1,-1h-1v-1h1h-2l1,-1h2l1,1h13v1h1M582,37h1l1,1h4v-1v1h3l1,1l1,-1h-1h1h-1l1,-1h1h-1v-1h6l1,1h1l1,1h3v1h3l1,1h2v-1h1v1h1M615,43h1l-1,-1h1h-1l-1,-1h-1v-1h-1h1v-1h1v1h1l1,-1h1l1,1h2l1,1h2v1h1v1h3v1h2v1h1h-1l1,1h3v1h4v1h1v1h-1v1h1v1h1l1,1h1l1,1h-2v1h1v1M636,55h5l1,1h1l2,2h1v1M611,49v-1h-2l-2,-2h-2l-1,-1h-1l-1,-1h-1l-2,-2l-2,-1h-1v-1h2l1,1h1v-1h2l2,1h4v1l1,-1l1,1h4v1h3l1,1h-1v1h1l1,1h1l1,1h-1l-1,-1l2,2h-2M627,51h2l-1,-1h2v1h2v1h2v1h2v2h-2l-1,-1l-1,1h-1"/>
<path class="sb" d="M635,59l1,1h4l1,-1h1v1h3v-1h1l1,1h8l1,1h2l1,1h3l1,1h2v-1h-1v-1h1v1M626,52h1v1h2l2,2v2h1v1h1l1,1h1v1h1v1h-1v1h-2v1h1h-1v1l-1,-1M616,51h1v-1h-1v-1h1v-1h1v1h1v-1h-1h2l1,1h1v1h3l1,1h1v1l-1,-1v1h-2v-1v1h-1v1h-1h1v1M666,65h2l-1,-1l1,-1l-1,-1h-2v-1h5l1,1h3l1,1M631,21h-5M600,16h7l1,1h4l1,1h4l1,1h3l1,1h3v1h2l1,1h-2v1h1h-6v-1h-4v-1h-3v-1h-2v-1h-3l-1,-1h-4v-1h-1M623,18h-2l-1,-1h-3v-1h-4l-1,-1h-2M11,398v3l-1,1v5h-1v4M12,391v3h-1l1,-1l-1,1v2M20,358v1M135,639v3l2,2v2l1,1v3h1v4h1v2h1v2M132,594l2,4v2l1,2v1l-1,1v3h-1v5h-2v3l-1,-1l-1,1h-1l-1,1h-3l-2,1l-1,1h-1v-7l-1,-1v-9l-2,-2h-3l-1,-1l-1,1l-3,-1h-1v-1h-1l-2,-1h-1l-1,1h-3l-1,-1h-1l-1,-1h-1l-1,-1h-1l-1,-2l-2,-2h-1l-1,-1M75,607l1,1l1,2l1,3v3l1,1l-1,1v2l-1,1v5l2,2v2l1,1v1l1,1v1l1,2l1,1v3h1v1h1l1,1v3h-1v1l1,2v1l1,2v4l1,1v3l2,4v2l2,4h1v1l1,1v1h1v1l-1,1h1v2l1,2v1h1v3l1,1v1h1l1,1v1v-1v1h1v2h1l1,1l1,2l2,2v1l1,1v-1h1v2l2,2v1l2,2v3l1,1v2h1v1l1,2v1h1v1h1v1l1,1v1h1v3l1,1v3h1v2h1v1h1v2l5,5v1l1,1h1v1h1v4h1l1,2l1,1v2h1h-1v1h1l2,2v2h1v1l1,1v1h1v1l3,3v1l1,1h1v1h1l1,2h1v1h-1l1,1v1l1,1h1v1l2,2v1h1l1,-1v2l1,1h1v1h1l1,1v1h1v1l1,1v1l2,-1v-1v1h1v1l1,1h-1v1l-1,1h3l2,2v1h1l-1,1h1v1l1,1h1l1,1v1l1,1h1l1,1v1l1,1v1l1,1h1v1l1,1v1l1,1v1l2,2h1l1,1v1h1v1l1,1v1h1v2l1,1v1h1v2l1,1h1l1,1v1h1l1,1h1v1h1l1,1h1v1v-2h2l1,1v1h1v1h1l2,2h1l1,1h2v-1h1l3,-3h3v-1h1v1M101,560v-2l-2,-2h-2l-2,-1l-2,1l-2,2l-1,2l-3,3l-1,2l-1,1v1l1,2v8l1,2l1,3v2l1,3v2h-1v-1l-4,2v7l1,1v1l-1,-1v-1l-2,-2h-2l-2,1v1h-1l-1,-1h-1v1l1,1v1l-1,1v8l-1,1h-1v-1l-1,-1v-1l-1,-1v-1l-2,-2v-1l-1,-1v-1l-1,-1v-1l-1,-1h-1v-3h-2v-3h-1l1,-1v-1h-1v-1h-1v-4h-1l-2,-2v-2h-1v-2h-1v-2h-1v-1l-1,-1v-1h-1M40,519l1,1v1l2,4l1,1v1l1,2v4l1,4v3h1v2h1v9l1,1v4l1,1l1,3h2l-1,1v1l1,1v1l-1,1v3h1h-1v2h1v6h1v4h-1v1M16,450v5l1,2h-1v8l-1,2v5l-1,1v3l-1,2v1l-1,1v5h-1v2h1h-1v16h-1v-3l-1,1v-1v3h-1v-9M32,466h-1v-2h-1v1h-1v-2l1,-3v-7h-2l-1,1v1h-2v3l-1,1h-1v2h-1v-4h-1v-2l-1,-1h-1v-2l-1,-1v-1l-1,-1v1v-1v1h-2v-1h-1v3h-1v1h-1v-2h-1v1l-1,-1v-1M40,412v-6l-1,-1v-2h-1v-1l-1,1v-1h1l1,-3v-3h1h-1v-2l-1,-2v-4l1,-2v-4l1,-1v-3l1,-1v-2h-1l-1,1v1l-2,2h-1v1l-1,1v1l-1,-1v-2l-1,-2v1h-1l-1,1v1h-1v1l-2,2v-2h-1v-1l1,-1v-9l-1,1v-2l1,-1v-2l1,-1v-2l1,-2v-2l1,-2v-1l1,-2v-1l1,-2l1,-3v-1l2,-2v-2"/>
<path class="sb" d="M66,362l-1,-2l-2,-2l1,-1v-1l1,-1v-4h1v-1l2,-2v-1l1,-1v-1l-1,1v-4l1,-1v-1h1v-2l1,-1v-1h1v-2M83,375v-1v1h-1v-2l-1,-1v-2h-1v-4h-1v1h-1v-3h-1v-4l1,-1v-4h1v-1h1v-1h1v-4l1,-1M93,366v-1h1l1,-3v-4l1,-1v-3l-1,-1v-3l-1,-1l1,-1v-1h-1v-1h1v-3l1,-1v-1M166,656h-1v-1l-2,-3v-3l1,-1l-1,-1h-2l-3,-3h-1v-1h-3l-2,-2h-4v-1l-1,-1h-1v2h-1v1v-1l-1,-1v-1h-1v-1h-2l-2,-2h-2v2l-1,1h-1v-5l1,-2v-3l-1,-1h1v-8l1,-1h-1v-2h1v-3h1l-1,-1h1v-3l1,-1v-1h1v-3h1v-3h-1v-1l-1,-2v-2l-3,-3v-1h-2l-1,1h-1v-4h-1v-5l-1,-2v-1h-1v-1l-1,-1h-1l-1,1v1l-1,1h-1l-1,-1v-1h-1v-2l-1,-1v-1l-1,-1v-1l-1,-1v-1l-1,-1v-1h-2v1h-1v-1h-1v1h-1v1h-1v1h-4v1h-1v-3h-1v-3l-1,-1v-3h-1v-2h-1v-2h-1v-1h-1l1,-1v-2h-1l-1,-1v-9l-1,-3v-3l-1,-1l-1,-2v-1h-1v1l-2,-1l-1,-1v-1l-1,-1v-5l-1,-1v1l-2,1l-2,2l-2,1l-1,1l-1,-2v-1l-1,-2v-2l-2,-2h-1h1l1,-1l-1,-4h-1v-2h-1v-3l-1,-1h-2l-1,-1v1l-1,1h-1v1h-1v-1l-1,-1h-3v1l-2,-2l-1,1l-1,-1h-1v1h-1l-1,1l-1,-1h-1v-1h-1l-1,-1v-1v1v-1l-1,-1v-1h-1v-4l-1,-1v-6l-1,-1v-1l-3,3v1l-1,1v1l-1,4l-1,1v2l-1,1v1l-1,1v4h-1v1h-1v1h-1l-2,2v1l-1,1h-1v1v-1l-1,-3v-3l-1,-1v-3h-1v4l-1,1v1l-2,2v-3h-1v-1v1h-1l-1,1v-4h-1v-1l-1,-1v-1l-1,-1v-2h-1h1v-1h-1v-2h-1v-1h1v-2l-1,-1v-1l1,-1v-4l1,-1l-1,-1v-11l1,-1v-3l1,-2v-2h1v-2h1v-1l1,-1v-2h1v-1h1l1,-1v-28l-1,-1v-3h-1v-7h1v-2h1v-1v1l1,-1v-2l-1,-1v1h-1v-5l2,-2h1v-1l1,-1h1v-2h1l1,-2v-2h1v1l1,1v3l2,2h1v-1l1,-1v-2h1v1l1,-1v-2l1,-1v-1l2,-2v-1l1,-1v-2l1,-1v-2l1,-2h1v-3l-1,1h-1v-4l-1,-1v-1l1,-1v-1h-1l-1,-1v-2h1l1,-1l1,1v-1h1v-1h1v-1l1,1v1h1v-1l1,-2v-2l1,-1h1v-1l3,-3v-1l1,-1v-1h1v-1l1,-1v-1l1,-1v-3h1v-1h2v2l-1,1v2h2l-1,1v1h1v2l-1,1v1l-1,1l1,1h-1v6h-1l1,1v5h1v1l1,1h2v1v-1h1v-1h1v-3h2v-2h1v-1h1l1,-1v-2h1v-1h2l1,-1h1l1,-1h1v-2l-1,-1v-1h1v-1h2l1,-1v-1l2,-2v1h2v1h2v-1l2,-2h1l1,-1h2v-1h1v-1h1v-3l1,-2v-1l1,-1v-2l1,-1v-1l1,-1v-2h1v-2h1v-1M433,113v-3l1,-1v-2h1l1,-1h1l2,-1l1,-1l2,-1h2v-1h6l1,-1v-1h7l1,-1h1l2,-2h1l1,-1h2l2,-1h1l1,-1h3v-1h-2l1,-1v-1h-1l1,-1h2l4,-1v-1h13v-2h1l-1,-1h-1l-1,-1v-1h-1v-5l-1,-1l1,-1h-1v-1h-1l-1,-1h-1M571,100v-2l-1,-1v-1l-2,-2v-2l-1,-1v-1h-1l-1,-1h-1l-2,-1l-1,-1l-1,-2h-1l-2,-1h-1v-1l-1,-1v-1h-1v-2h2v-1h2l1,-1v-2h1l-1,-1v-1l-1,-1v-3h-1h1v-1h2v-1"/>
<path class="sb" d="M595,139l-1,-2l-3,-3l-7,-2h-2l-2,-2l-1,-2v-1h-1l-1,-2l-3,-3h-1l2,-2h2v-2h-1v-1l-1,-1v-1l1,-1v-3l-1,-2v-3l-1,-1v-1l-4,-4h1l1,-1h2l1,-1h1v-2l-1,-1v-2h1v-1h2v-1h2l1,-1h3v-2h-1v-2M696,161l-1,-1v-5l-1,-1v-3l-1,-1v-3l-1,-1v-3l-1,-1v-1l-1,-2v-2l-1,-2v-2l-1,-2v-1l-1,-1v-3l-1,-1v-2l-1,-2v-1l-1,-1v-1l-1,-1l-2,-4v-3l-1,-1v-1l-1,-1h1v-1h1M692,176l-1,-1v-3l2,1h3l2,1v-4l-2,-6v-3l3,1h2l3,1h3l3,1h2l3,1h3l5,2h3l3,1h2l6,2h3l1,1v-2l1,1v1h1l2,1h3l2,1h2l4,2h3l2,1h2l4,2h3l2,1h2l4,2M788,232v-2l-1,-1v-7h1v-8h3v-1h1v-1l1,1v-1h1v1h1v-1h1v-1l1,-1M829,258v-1h1l1,2h1v-1h1v-1M776,262v-2l1,-1v-5l1,-1h1l1,1h1v-7l2,-2v-1l2,-2h3l-1,-1v-1l1,-1v-7h2l1,1h1v-1h1l1,1l1,2h1v-2l1,-1v-1l1,1h1v1l2,1v1h4l1,1h2l1,1h1l1,1h1l3,3l2,1l1,1l1,3l6,6l1,2h1v1l1,1v1l1,1l-1,1l-1,2l-1,1v2l1,2v1h1v1h4l1,1h1v1M868,304l-2,-1h-2l-2,-1v-1l-2,-1l-2,-2l-5,-3l-4,-4l-2,-1l-2,-2l-2,-1l-1,-2l-2,-1v-1h-1v-1l-1,-1l-1,-2v-1h-1v-1l-1,-1v-1h-1v-2l-1,-1v-1l1,-1l1,-2v-1h1M833,320h6l2,-2h5l4,2h2l13,-13l2,-1l1,-2v-1l1,-1l1,-2l1,-1v-2l1,-1v-1l-1,-2v-5l-1,-2v-4M787,294v1h1v1l1,-1l2,2v4l1,1v1l1,1h1l1,1h2l2,1l5,5l2,1l1,2l1,1h1l1,1h1l1,1l2,1h2l1,1h1l1,-2h1l1,-1h5v1l2,2h1l1,1h3l-1,2l-1,1l-1,2l-2,1l-1,1v2l1,3v25l1,2l1,1l1,3v2M364,155h3l3,-1h8l2,-1h2v-1h1v-2h1v-1h1l1,-1v-1h1v-3l1,-1l1,-2v-1l2,-2h2v-1h2v-1h1v-1h1v-1h1v-1h1l1,-1h2v-1h1v-2l2,-2v-1l1,-1v-1h2l4,-4v-1l1,-1h12l1,-1h1v-1h5v-3h1v2M363,159v-1l1,-1v-1h3l2,-1h7l2,-1h7l2,-1h8v-10l1,-1h1l2,-1l1,-1h3l2,-2v-7l1,-1v-6h7l2,-1h13l1,-1h3v-3l1,-1v-3l1,1h2l1,1h1l2,1h1l2,1h1l1,1h2l1,1l2,1h1l2,1h1l1,1h2l1,1l4,2M397,195h2l2,-2v-2l2,-2h2l2,1l1,1v1h1v-1l1,-1h1v-1h3l1,1h2l1,-1h3v-2h1v1h13l2,-1h17v-2l1,-2v-2l-2,-2v-3l-1,-1v-8l-1,-2v-10l-1,-1v-9l-1,-2v-9l-1,-1v-6h14l4,2l11,4l2,2l8,3l5,3l5,2l3,2l5,2l3,2h1v1h1l-1,1h1l1,1l2,1l1,1h1l1,1h3l1,1h2l1,1h3v2l1,1v1h-1v1l1,1h5l3,-1M502,190v-1h2l2,1l2,-1l1,-1l2,-1h18l2,-2h1l1,-1v-1l1,-1v-2l1,-1v-17h3l3,-1h7l3,-3l6,-3l2,-2l5,-2l4,-1l8,-4l4,-1l3,-2l4,-1l4,-2l4,-1l12,3h1l2,2l3,2l6,-2M614,204l-1,-4v-2l1,-1l1,-2l3,-3l1,-2l7,-5l2,-2v-17l-1,-2l1,-1l1,-2l-3,-2v-1h-1l1,-1l-3,-3h-1v-1l-1,-2l-2,-7l3,-1h2l2,-1l3,1l24,12l3,2l32,16l4,3v3l1,2v3l1,3v3l1,3v6l1,1v1h-1l-2,-1h-5v4h-1v1h-1v1h-1v1h-1l1,1v1h1v1h-2v1h-1v2l1,1v2h-2v1l-1,1v1h3l1,1h1v3l1,1v1h1v3l1,1h1v1h1v3"/>
<path class="sb" d="M363,191l1,-1v-1l1,-1v-1l1,-1h6l1,-1h3v-1h6l2,2v1h5v2l1,1h1v1h1l1,1v1h2l3,3l-1,1l1,1h1v6h1v1h1v-1h1v1l1,1v1h1l-1,1v2l1,1M361,207h3l2,-1h4l2,-2h3l1,1h2l1,1h1l1,-1h3v1l-2,1h-6l-1,-1h-3v1h-2l-1,1h-2v1h-1l-2,1h-4v1M360,216h1l1,-1h2l3,-1h2l2,-1l1,-1h4l3,-1h5M373,224v-1l2,-2v-1h1l2,-1h1l2,-1h3v-2l-1,-1h-1v-1h2v-1l1,-1l-1,-1h6v1l1,-1l1,1h6l1,-1h4v2l1,1h1l2,-2l2,2h1v-1l1,-1h4l2,1l1,-1h1v-1h2v-1h-1v-1h3v1h1v2l1,1v2h1v1h2v1l-2,2v1h1v-1h2v4h1l1,1h1v1M453,222v-4l1,-1h1v-5l1,-1h3l1,-1h1v-1h1v-3l2,-1v-1l-1,-1l2,-2h2l3,1h1l1,-1v-2h3v-1l1,-1v-1l2,-1l1,-1l3,1h1v-2h3l1,-1l3,-1l1,-1h1l2,-1h6l2,1v2l-1,1h1l1,1v2h1v1l1,1h1l1,1h1l1,1h1v1h-2v2h1l4,2v1h3l1,-1h1v1h1v1h-1v1l1,1l1,2M386,237h2v-1h1v-1l1,-1h1l1,-1v-1h1v-2h1l1,-1l1,1l2,-1h2l2,-1h2v1h1l1,1v1l1,1h1v1h1h-1v2h1v1l1,1v1l-2,2h2l1,-1h1M401,251l5,-5l2,-1v-1l1,-1v-1h1l1,-1v-1l2,-2v1h1l2,-1v1h1v-1v1h1v2h1v5h-1h2l1,1v1l1,-1h2v-1l1,-1v-1h2v1M435,269l-1,-1v-5h1v-1l1,-1v-2l-1,-2h-2v-1h-1v-2h-4l-1,-1h-1l1,-2l1,-1v-2l-1,-2v-2h1l1,1v-1l1,-1v-2h1v-1h-2v-2h1l1,-1l1,1h2v-2h-1l-1,-1v-1l1,-1l-1,-1v-1h-1l-1,-1v-4h1v-1h2l1,-1v-1h2l1,1h1l1,1h1v-2h3v-2l1,1h1v-1h1v-1h1v4h2v-1h1l1,-1h2v1h3v1h1v2h2v1h2l1,1h1v-1h1l2,-1h1l2,-1l2,1h2v1h1l2,2h1M474,261h2v-4h-2v-1l-1,-1v-1l-1,-2v-4l2,-2v-2l1,-2v-1h1v-1l1,-1h1h-1v-1h1v-5h-1v-1h-1v-1l1,-1v-2l-1,-1v-6h-1v-2l1,-1h3l2,-1h13v1h1v-1h2v-1h2M510,254v-1h-1v-1h-1l-1,-1h-1v-1l-1,-1v-5l-1,-1l1,-2v-3l1,-1l-2,-2v-1h-1l1,-1v-3l1,-1l-1,-1h-1l-1,1v-1h1v-1h-1h1v-5h-1l-2,-2h-1v-1l1,-1v-1l-1,-1l2,1h3v1h1l1,-1h2M514,253v-1h1v-1l-1,-1v-2l-1,-1h1v-15l-2,-2v-5h-1l-1,-1l-2,-1l-1,-1v-4l1,-1h1v-1h1v-1h2v-1h5l2,-1l1,-1v-1l1,-1l-1,-1l1,-1h4l2,2h1v1h1v1h1l1,1M523,252v-1l1,-1v-8l-1,-1v-4l1,-1v-4h1l1,-1h1v-3h1l1,-1v-1h2v-4h1l1,-1v-1l-1,-1v-2h-1v-1l-1,-1v-2h1v-6l1,-1l2,-1v-1l1,-1v-3h1l1,-1h3l1,-1l1,1h2l1,-1h1l6,2l1,-1v1h1l1,1h1v1l2,2h1v1h1v-1h2l4,-2l1,1h2l5,3h2l2,1h3l3,-2h1l1,-1h10l1,1h2l2,1l1,1h3v-1l2,-1h1l2,-1h2l1,-1l1,1l2,1l1,2l1,1M574,266v-1h1v-1l1,-1l1,-2v-3l4,-4h1l2,-2v-1h1l2,-1h1v1h3v-1h1l2,2h1v2l1,1h1l1,-1h1v-1l1,-1v-1l1,-1h1v-1h-1v-1h1l1,-1v-1l2,-4v-1l1,-2h3v-1l1,-1v-3l1,-1h2v-4h1l1,-2v-1l1,-2l3,-3h3l1,-1v-5l-1,-1h-2v-1l-1,-1l-1,-4h2l2,1v2h1l2,2v2l2,2v2l1,1l-1,1v2l1,2v2l5,5h-3l-1,-1h-9v1l-1,1l5,5l2,1v1h1l2,2l2,4l1,1v1h1v1l-1,1"/>
<path class="sb" d="M639,291v-2l-1,-1h1h-1v-3h-1v-1h-1l-6,-6v-1l-1,-1h1v-2h-1l-2,-2v-1l-1,-3v-1l-1,-1v-1h1v-3h-1v-1h-1v-1l1,-1h1l1,-1v-1l1,-2h1v-1l1,-1v-1l2,-1v-1h2l1,1h1l1,-1h3v-1l1,-1v1l2,2l1,-1h2l1,-1h11v-1h1l3,-3h-1l-1,-1v-1h12l1,-1h2l4,-4h1v-1h1l1,-1v-2l2,-1h2l1,-1h2l1,1h1v1l5,5l1,2l1,1v4l-1,1v3h1l2,1h2M729,283l-1,-1v-3h-1v-1h-1l-2,-2v-1h-2l-1,-1v-2h-1v-1l1,-1l-1,-1h-1l-1,-1v-1l-1,-1l-3,-2l-2,-2h-1v-3l-2,-1l-1,-2h-1l-2,-1h-1v-1h-1v-2l-1,-1h1l2,-1v-1l1,-1v-1l1,-1v-2l1,-1v-2h6l1,1v1h1v1h1v1l3,4h4l7,1l1,2l6,2v-1l1,-1h3l1,-1v-2h3l4,3l2,2h3l3,-2l1,-1v-1l1,-1l3,-2l-1,-1v-4l-2,-2l4,1v-2l4,1v1l-1,1l1,1v1h-1v1l2,5v1h-1h1l5,5h1v6h1l1,2v5h-4l-1,-1h-1v1l-1,2v1l1,1l2,1h1l3,3v1h1v1l4,4v1h1v1l1,2v2l1,1v1l1,1v1l1,1l-1,1l-1,2l-4,2l-1,2l-1,1M585,286l1,1h8l2,1h2M583,296h1v-1h1v1h5l2,1h6v-10h7l2,1h7l1,1M596,337l1,-2h1l2,-1l1,1h2l-1,-1h1v-2l-1,-1h-1v-1h1v-1h-1v-1h-1v-4h1l1,1l1,-1l1,1h4v-4h2l1,1v1l1,1v1h2l1,1h1l2,-1v-1h1l1,1v2h2l1,-1l-1,-1h1v-2h1v-3h1v-4l-1,-1l1,-1v-2l-1,-1h-1l-1,-1v-1h-2v-4l2,-2h1l1,-1v-1h1v-1l-1,-1v-1l-2,-2h-6l-1,1l-1,-1h1l-1,-1v-4l1,-1v-1l2,1h9l1,1h1l1,1h3v1h4l2,2v1l1,-1l-1,-1v-2h1v-1l1,-1v-1l2,-2l-1,-1h1v-4h6l2,-1l3,1v1h5l1,1M613,344h1v1h1v1h1l1,-1h1v-2h5v-1h1v5h3l4,-4h1l2,-2h2l1,-2l2,-2v-10h1v-1l3,-3l1,-2l3,-3h1l3,-1l1,-2v-2l2,-4v-7l1,-2v-5l1,-3l2,-4l1,-1v-10h1l3,-3l2,-1l1,-1l2,1h1l1,1l2,1l2,2v1l1,1h2l1,1h2l1,1h1l1,1l1,-1l6,3v-1h1l1,-2v-1h4l1,1h2l1,-1h6l3,1h3l2,-2h2l1,1l6,2l1,1h1l1,-1h1l2,1l1,1v1l1,1h1v2h1l2,2h1v1h2l1,-1h1l1,1h1l1,1l2,-1l1,-1l2,2v1l1,1v1l2,2l2,1v1h1v1h1l1,1v1M747,338v-7l1,-3v-2l1,-1v-4h1l2,-2h2l3,-3l2,-1v-3h-1v-1h-1v-1h-2v-1l1,-1v-3h-1v-1l1,-1v-2l1,-1h2l1,1h3l1,1v1h1v1h1v-1h6l1,1h3l1,-1l2,-1l1,3l2,2v4h1v2l1,1h1v2h1v9h-1v2h-2v2l-2,2h-1v2l-1,1v9M742,348l-1,-1v-2h1l1,-1v-3l2,-2h1v-1h3v1h2l1,-1v-1h2M745,363v-1l-1,-2v-2l-1,-1l1,-1v-5l-1,-1v-1h-1v-1l1,-1l3,3h2l1,-1v-2h2v1v-1h2v1h1M753,396v-1l-1,-1v-2l-1,-1v-3l-1,-1v-1l-1,-1v-1l-3,-3l-1,-2v-3l1,-2v-1l-1,-1v-3l-1,-2v-2l1,-2h4l1,-2l1,-1v-1h1l2,-2v-1h2v-3h-2v-1h-1v-2l1,-2h2v-7l-1,-1l-1,-2h-1l1,-1h2l1,1h4l1,1h3l1,1h3l1,1h3l1,1h3l1,1h1l1,1l2,1l6,6l2,1l1,2l2,1l1,2l2,1l1,1l1,2l2,1l1,2l2,1l2,2v4l1,1v1l1,2l4,4l1,2l3,3"/>
<path class="sb" d="M604,346l2,-2h1v-1h2l1,-1h1l2,2h-1l-1,1l-2,1l-1,1h-1h1v6h-3M612,354h1l1,1l1,-1l2,1h5l2,1h11l3,1h3l1,1v1l1,1v4l1,1v2l1,1v1l1,1v1l3,6h9l2,1h4v-3l1,-1v-2l2,-2h8v1l-1,1v1h1l2,1h2l3,1h2v16l-1,2l1,1v2l1,1l1,2v2l1,1h-1v3l-1,1l1,1v2l1,-1h3l2,1h1l2,-1h1l1,1h2v-1M689,465l-1,-2l-2,-2l-1,-2l-2,-1v-1l-2,-2l-1,-3v-8l1,-3v-8l1,-3v-6h4l2,1h5l2,1h3l-1,-2l1,-1v-1l1,-1v-7l1,-1v-4l-1,-1h1l1,1v1h1v1l1,1h-1v1l1,1l2,-1h5l-1,1l1,2v1l1,1h1l1,1h1l1,1h2l1,1h4l1,-2h1v2l2,2v2h1l1,1l2,1l1,1h1v1l1,1v2h1v1h1v3l1,1h5v2h1v-7l1,-2v-2h-2v1l-1,1l-1,-1h-1l-1,-1v-1l-3,-3v-1h-1v-4l1,-2v-2l2,-2v-1l-1,-1l1,-1v-7l-1,-2l1,-1h1l2,-2v-3h1l1,1h12v1l1,1v2h1l2,1h1v1l1,1v1h2v2h2v1h2v1l1,1h1l1,1M766,450l-1,-1h-1v-1l-1,-1v-1l-1,-1h1l2,-2v-5h1l2,-1h1l1,-1h-1l-1,-1v-1l1,-2v-3h-1l2,-2v-2l-1,-1v-1h2l1,-1v-4l-2,-2h1v-2h-1v-2h-1v1v-1h-1v-2l2,1v1h1l1,1h2v1h1v-1h1v1l2,2l1,2v12h1v1h1v1M597,450h9v-1h5v1h1l3,3h5l4,1h6l3,1h3l3,1h7l2,1h3v1l3,3h2l4,2h4l2,1h1l1,1h5v1h5l3,-1h15l3,1h2v1h1l1,2M655,523v-3l1,-2v-5l1,-2v-5l1,-3v-4h4l3,1h1v-2l1,-4v-3l1,-4v-7l1,-3v-4l1,-3v-2h18l2,4h1l2,-2h2l1,-1h1v1l3,-1h3M727,513v-1h-1l-1,-1v-3h-2l-1,-1l-2,-1l-1,-1h-1v-3l-1,-1v-4h1v-1l-1,-1h-2v-3h-1v-1l-1,-1l-2,-1l-1,-2l-2,-1v-1l-1,-1v-4l-1,-2v-1l-1,-2l-1,-1v-2h-1v-3l2,1h2v1l1,1l2,-1l1,1l2,1h3l2,-2l2,-1l1,-2l3,-3h2l5,-2l1,-1v-3h1l1,-1h1l2,-1h2l2,1h2l1,1M624,552h1l1,-1h1v-1l1,-1v-1h2v1l1,1v3l1,1h1v1h2l1,1h4l1,1h2l1,1v-1h1v-1h1l2,-2h2v-1l2,-8v-3l1,-4v-4l2,-8v-3l3,2v2l1,2v3l1,1v2h-1v1l-1,1v1l-1,1v1l1,1h2v1h5l1,-1h2v-1l1,-1l2,-1h1v-1h1l1,-2l1,-1v-1l1,-1v-1h3l3,3h1v1h2l2,2h8l1,-2v-1l1,-1l1,-2v-1l1,-1h4v-1h1l1,-1h1l2,-4v-1l1,-1h1l1,-1h1l1,-1h1l1,-1h1v-1l2,-2h4l1,-1h1v-1h5l4,2l1,1h4l1,1h1v1M737,557v-1h-1v2l-1,1v2l-1,-1h-2l-1,-1l-1,-2l-1,-1v-5l2,-1v-1l3,-3h1l1,2l1,1h1M742,558h-2l-1,-1h-2l1,-3v-3l1,-1l-1,-1v-2l1,-1v-2l1,-1v-3l1,-2v-8h-1v-12l2,-2l2,-1l2,-2l2,-1l1,-2h1v-1l1,-2v-2h1l3,-3l1,-2v-3l-1,-1v-1l1,-2v-2h-1l2,-2v-1l1,-1v-1h1l-1,-1l1,-1v-3l1,-3v-6l-2,-2h-1l-1,-1l-2,-1l-3,-3h-1l-1,-2h-2l-2,-1h-2v-2l1,-1v-3l-1,-1v-2l2,-1h7l1,-1h6l2,-1h5l1,2v2l1,1h5l1,2v5l-2,2v2l-1,1v4l1,1v1l1,1l1,2l1,1v3h1v-6h1v-1l1,-1h3v-1l1,-2v-4l1,-2v-3l-2,-4v-2l-1,-1l-1,-3l-3,-3v-11l1,-1v-1h1v-2h3l1,1h2v1h1l1,-1h1l2,1v2h1l1,1h1l1,-1h2v1l1,1h4l1,-1v-1h2l2,2h1l1,-1h2l1,1h1l1,-1h2l2,-1h1l1,-1h1"/>
<path class="sb" d="M708,579h2l1,-1v-1l1,-1h1v-1l1,-1v-3h-1l-1,-1v-2h-1v-1l-1,-1h-1l-2,1h-1l-1,1h-1l-2,2h-1v1l-1,1h-1l-1,1v4l1,1l-1,1h1v1l1,1v1h1l1,1l1,-1v-1h1l2,-2h2M781,110v1l2,1v1h1v1h1v1h1l2,2v1h1l1,1h1l1,1h1h-1v1h1v1h1v1h1h-1v3h1v2h1l2,2v1h1l1,1l2,1v2h2l5,5h2v1l4,4v1l1,1v1l1,1h1l1,1v1l1,1v1h1l1,1h1v2h1l1,1M817,157l1,-1v-1l-1,-1v-1h1l1,1h1l2,1M767,125l8,4h1l3,3l6,3l2,2l2,1l4,4l2,1l2,2l3,2l4,4l5,3l5,2l2,1h1l1,1l4,2l4,4h1l1,1h1M879,218v1l-1,-1h-1l-2,-2h-1l-3,-3h-1l-2,-2h-1l-4,-4v-1l-5,-5v-1h-1v-1M872,235h8l1,1h4v-2h-1v-5l-1,-1v-4l-2,-2v-1l-2,-2v-1l-1,-1v-3l-1,-1v-2h-1h2v-1h-1v-1h-1v-2l-1,-1v-1h1v2h1v-1M875,202h-1v-2h-1v-1M826,231l1,-1v-1h1l-1,-1v-4h1v1h1l1,1h1v1h3l1,1h2l1,1h1l2,2h1l2,1l1,1h1l1,1h1l3,3h1v-3h1v-2h1v-1h2l1,-1h2l1,1h1l2,1h2l1,1h1l2,1h2l3,3v1l1,1v1h1v2l1,1v1l2,2v2l2,2v1l1,1v1l1,1M761,118l2,1l1,2l2,2h-1l1,1h1l1,1h-1v1h-3l-2,-1h-6l2,1l1,1l2,1l1,2l2,1l1,1h-1v2h-4l-1,-1v2h-1l-1,1l-1,-1h-2l-2,-1h-1l-1,-1M745,118h1v2l1,1v1M746,116h-1v1h-1l-1,-1h-1v1l1,1v2h2l-1,1v1h3l1,1v5l1,1v3M769,106v1h-3v2l3,3v1l1,1v1h1v1l-1,1h-4l-1,1h-5l-1,1h-3l-1,1h-2l-2,-1h-1l-1,-1h-1l-2,-2v-1h-1v-1l-1,-1M742,107h2v1l2,2v1h-1h1v1v-1h-2v1h1v1h-1M771,99v-1h-1v1l-1,-1v1l1,1h1v1h1v1h1v1h1v1h1v2h1l1,1h1v1l1,1h1v1h1h-3v-1h-1v-1h-3l-2,-2h-3l-1,-1h-4v-1h-2l-1,-1h-7l-1,-1h-2v-1h-1l-1,-1h-4l-1,-1v1l-1,-1h-1l-1,-1h-1l-1,-1v2l2,1h-2l1,1h-2l-1,-1M771,98l-2,-1l-1,-1h-1l-1,-1h-1l-2,-2h-1v-2h-1l-1,-1h-1M766,92l-1,-1v1l-1,-1h-2v-1h-3v-1h-2v-1h-1l-2,-2h-2l-1,-1h-2l-1,-1M761,78h-1l-2,-2h-1h1l-1,-1h-1l-1,-1h-1l-3,-3h-1l-2,-1h-1l-1,-1h-1v-1h-1l-1,-1l-2,-1h-1v-1h-1h1l-1,-1h-1l-3,-3h1l1,1l2,1h1v1h2v1v-1h-2v-1l-1,-1h-1h2l1,1h2v1h2v1h1l1,1h1l1,1h1l2,2h2v1h1l1,1h1l1,1h1v1v-1h-1l-1,-1h-1h1l1,1h1l2,2h1v1h1l-1,-1l1,1h1v1h1l1,1M911,215l1,2l1,1v1v-1v1l2,2v1l1,1v1l2,2v1l1,1v2h1h-1v-1h-1v-1h-1v-1l-1,-1v1l1,1v2l2,2v1l1,1h1v2l1,1v1h1v1l1,2h1v1l1,2h1v1l1,2l1,1v1l1,1v1h1v1h-1v-1l-1,-1h-1v-1h-1v-1l-2,-2l1,2l-1,-1h-1M811,114l-1,-2l-5,-5l-2,-1l-6,-6l-2,-1l-2,-2h1v1h2v1h2v1h1l1,1h1l1,1v1h1l1,1h1l3,3h1v1h1l2,2h1v1h1v1h1l2,2h1v1l2,2h1l1,1h1v1h1l2,2h1v1l1,1h1v1h1v1h1l4,4h1v1l1,1h1v1l1,1h1v1h1v1h1l6,6"/>
<path class="sb" d="M858,151v-1v1l1,1l-1,-1l1,1v1h1v1h1l3,3v1h1v1h1v1h1v1l2,2M796,104h2l1,1h1l2,1l5,5h1v1h1l1,1h1v1h1l1,1h1l1,1l-3,-3h1v-1v1h1v1h1l-2,-1v-1h-1h1v1h1l-1,-1l2,2h1v1h1l2,2h1v1h1v1h1l1,1v1v-1l1,1v1h1l3,3h1v1h1l1,1h1v1h1l10,10l2,1l1,1l1,2h1l4,4v1h1l2,2l2,1l1,2h1v1h1v1h1v1h1v1l3,3M770,92h1v1h1l1,1h1v1h1l2,2h3l-1,-1M856,155h1v1l1,1h1v1h1l1,1v1h1l1,1v-1h-1v-1h1v1h1h-1v-1h1h-1v-1l-2,-2h1v1v-1h-1h1l2,2v1h1l2,2v1h1l1,1v1h1l2,2v1h1l-1,-1l1,1v-1h-1l-1,-1M882,178h1v1h1v1l2,2v1h1v1h1v1h1v2h1v1h1v1h1v1v-1h-1l-2,-2h1l1,2l2,2v2h1v1h1v2l1,1l-1,-1v-1h-1l1,1h-1h1v1h-1v-1l-1,-1v2l3,3v1l1,1h-1l-1,-1h-1v-1h-1v-1h-2l-1,-2l-4,-2v-1l-2,-1l-5,-5M618,14h1l1,1h-1v-1h-4M552,3h-1h-3l2,1h3v1h-1h2v1h-2v1h-1v-1"/>
<path class="sg" d="M 334.5375 970.9739 A 249.7500 99.3317, 0, 1 1, 664.4625 970.9739"/>
<path class="sg" d="M 80.6871 771.7058 A 432.5797 172.0475, 0, 1 1, 918.3129 771.7058"/>
<path class="sg" d="M 0.0000 499.5000 A 499.5000 198.6634, 0, 1 1, 999.0000 499.5000"/>
<path class="sg" d="M 80.6871 227.2942 A 432.5797 172.0475, 0, 0 1, 918.3129 227.2942"/>
<path class="sg" d="M 334.5375 28.0261 A 249.7500 99.3317, 0, 0 1, 664.4625 28.0261"/>
<path class="sg" d="M 216.1339 88.1560 A 396.8940 499.5000, -214.56213230, 0 0, 782.8661 910.8440"/>
<path class="sg" d="M 387.7110 12.6700 A 229.1469 499.5000, -192.93242929, 0 0, 611.2890 986.3300"/>
<path class="sg" d="M499,0L499,998Z"/>
<path class="sg" d="M 611.2890 12.6700 A 229.1469 499.5000, -167.06757071, 0 1, 387.7110 986.3300"/>
<path class="sg" d="M 782.8661 88.1560 A 396.8940 499.5000, -145.43786770, 0 1, 216.1339 910.8440"/>
<path class="sg" d="M 999.0000 499.5000 A 458.2937 499.5000, -90.00000000, 0 1, 0.0000 499.5000"/>
<text x="0" y="0" class="fs" transform="translate(69,440) rotate(84)">60W</text>
<text x="0" y="0" class="ft" transform="translate(69,440) rotate(84)">60W</text>
<text x="0" y="0" class="fs" transform="translate(251,368) rotate(85)">30W</text>
<text x="0" y="0" class="ft" transform="translate(251,368) rotate(85)">30W</text>
<text x="0" y="0" class="fs" transform="translate(499,342) rotate(90)">0E</text>
<text x="0" y="0" class="ft" transform="translate(499,342) rotate(90)">0E</text>
<text x="0" y="0" class="fs" transform="translate(748,368) rotate(94)">30E</text>
<text x="0" y="0" class="ft" transform="translate(748,368) rotate(94)">30E</text>
<text x="0" y="0" class="fs" transform="translate(930,440) rotate(95)">60E</text>
<text x="0" y="0" class="ft" transform="translate(930,440) rotate(95)">60E</text>
<text x="0" y="0" class="fs" transform="translate(373,807) rotate(-11)">60S</text>
<text x="0" y="0" class="ft" transform="translate(373,807) rotate(-11)">60S</text>
<text x="0" y="0" class="fs" transform="translate(282,575) rotate(-11)">30S</text>
<text x="0" y="0" class="ft" transform="translate(282,575) rotate(-11)">30S</text>
<text x="0" y="0" class="fs" transform="translate(250,323) rotate(-11)">0N</text>
<text x="0" y="0" class="ft" transform="translate(250,323) rotate(-11)">0N</text>
<text x="0" y="0" class="fs" transform="translate(284,119) rotate(-11)">30N</text>
<text x="0" y="0" class="ft" transform="translate(284,119) rotate(-11)">30N</text>
<path class="tb" d="M127,248h-2l-1,-1h-2l-1,-1h-2l-1,-1h-2v-1h-3v-1h-2l-1,-1h-2v-1h-2l-1,-1h-2v-1h-2v-1h-2l-1,-1h-2v-1h-2v-1h-2v-1h-2v-1h-2v-1h-2v-1h-2v-1h-2v-1h-2v-1h-1l-1,-1h-1v-1h-2v-1h-2v-1h-1v-1h-2v-1h-1l-1,-1h-1v-1h-2v-1h-1v-1h-2v-1h-1v-1h-1l-1,-1h-1v-1h-1v-1h-1l-1,-1h-1v-1h-1v-1h-1v-1h-2v-1h-1v-1h-1v-1h-1v-1h-1l-2,-2h-1v-1h-1v-1h-1v-1h-1v-1h-1v-1h-1v-1h-1v-1h-1v-1h-1v-1h-1v-1h-1v-1h-1v-1h-1v-2h-1v-1h-1v-1h-1v-1h-1v-1l-1,-1v-1h-1v-1h-1v-1l-1,-1v-1h-1v-1l-1,-1v-1h-1v-1l-1,-1v-1h-1v-2h-1v-2h-1v-1l-1,-1v-1l-1,-1v-1l-1,-1v-2h-1v-2h-1v-3h-1v-2h-1v-4h-1v-3h-1v-5h-1v-6l-1,-1v-17h1v-7h1v-4l1,-1v-3h1v-3h1v-3h1v-2l1,-1v-2h1v-2h1v-2h1v-2h1v-2h1v-2h1v-2h1v-1h1v-2h1v-1h1v-2h1v-1h1v-1l1,-1v-1h1v-1h1v-1l1,-1v-1h1v-1h1v-1h1v-1h1v-1h1v-1h1v-2h1v-1h1v-1h1v-1h1v-1h1l3,-3h1v-1h1v-1h1v-1h1v-1h1v-1h1v-1h1l1,-1h1v-1h1v-1h1v-1h1l1,-1h1v-1h1v-1h2v-1h1v-1h1v-1h2v-1h1v-1h2v-1h1v-1h2v-1h1l1,-1h1v-1h2v-1h1l1,-1h1v-1h2v-1h2v-1h2v-1h1l1,-1h1l1,-1h1l1,-1h1l1,-1h1l1,-1h2v-1h2v-1h2v-1h2l1,-1h2v-1h2v-1h2l1,-1h2v-1h3v-1h2l1,-1h2v-1h3v-1h3v-1h159v1h3v1h3v1h2l1,1h2v1h3v1h2l1,1h2v1h2v1h2l1,1h2v1h2v1h2v1h2l1,1h1l1,1h1l1,1h1l1,1h1l1,1h1v1h2v1h2v1h2v1h1l1,1h1v1h2v1h1l1,1h1v1h2v1h1v1h2v1h1v1h2v1h1v1h1v1h2v1h1v1h1l1,1h1v1h1v1h1v1h1l1,1h1v1h1v1h1v1h1v1h1v1h1v1h1l3,3h1v1h1v1h1v1h1v1h1v2h1v1h1v1h1v1h1v1h1v1h1v1l1,1v1h1v1h1v1l1,1v1h1v1h1v2h1v1h1v2h1v1h1v2h1v2h1v2h1v2h1v2h1v2h1v2l1,1v2h1v3h1v3h1v3l1,1v4h1v7h1v17l-1,1v6h-1v5h-1v3h-1v4h-1v2h-1v3h-1v2h-1v2l-1,1v1l-1,1v1l-1,1v1h-1v2h-1v2h-1v1l-1,1v1h-1v1l-1,1v1h-1v1l-1,1v1h-1v1h-1v1l-1,1v1h-1v1h-1v1h-1v1h-1v2h-1v1h-1v1h-1v1h-1v1h-1v1h-1v1h-1v1h-1v1h-1v1h-1v1h-1v1h-1v1h-1l-2,2h-1v1h-1v1h-1v1h-1v1h-2v1h-1v1h-1v1h-1l-1,1h-1v1h-1v1h-1l-1,1h-1v1h-1v1h-2v1h-1v1h-2v1h-1l-1,1h-1v1h-2v1h-1v1h-2v1h-2v1h-1l-1,1h-1v1h-2v1h-2v1h-2v1h-2v1h-2v1h-2v1h-2v1h-2v1h-2l-1,1h-2v1h-2v1h-2l-1,1h-2v1h-2l-1,1h-2v1h-3v1h-2l-1,1h-2l-1,1h-2l-1,1h-2Z"/>
<path class="tl" d="M169,236h1v1h-3l-1,-1h2v-1ZM114,239h-3l-1,-1h2l1,1ZM176,233h1l1,1v1h1l-1,1h-2l-1,1h-1l-1,-1l1,-1v-2h1v-1ZM124,230h2v1h-1ZM122,230l1,1h-1l-1,-1ZM136,227h1h-2ZM156,224v1l1,1h-5v-1l1,-1v-1l-1,-1l1,-1v1h1l1,1ZM158,214v1h-2v2h1l-2,2v1h1l1,1h1l4,4v1l1,1v1h-1v2h-1l-1,1h-1v1h-2l1,1h1v1h-2l1,1h1v1h3l1,1h3l1,1h3l1,1h1l1,1v-1h1v-1h2l2,-1l1,1h1v-1h4v-1h3l1,-1h-1v-1h-4l-1,-1l1,-1h1l2,-2h4l1,-1h1l2,-2h-1v-1h1v-1h2v-1l1,-1h1v1h1v-1h8v-1h3v-1h1l1,1h2v-1h1v1l1,-1h4v1h6v-1h3v-1h2v1h3l1,-1h3v-1h2l1,-1h2l1,-1h4v1h1v1h1l1,1h1l1,-1l1,1h2v1l-2,2h-1v1h1h-1v1h-1v1h2l2,-2h1v-1h3l1,-1h1v-1h2l1,-1h5v-1h1v1h5v1h1l1,-1l1,1l1,-1h1l2,-1v1l1,1h3l1,-1h2v1h1v1h4l1,-1v1h9l1,-1l-1,1v1h-1h3l1,1h2l-1,1v1h1v1h2v1h1v2h2l1,1v1h-1l-1,1h-2l-1,1h-3l-1,1h-2l-1,1h-2l-2,2v1h-5l-1,1h-2v1h-1v3h2l-11,4h-155l-11,-4h-1h2l1,-1l1,1h14l-1,-1h-7v-1h-2v-1h-3l-1,-1h4v-1h-2l-1,-1h-7l-1,-1l-2,-1l1,1l1,-1l2,1v-1h1v-1l-1,-1h-1h2v-1h2v-1h4l1,-1h5l1,-1l1,1v-1h1l1,1h1v-1l1,1h6v-1h-2l-1,-1h-1l-1,-1h4l1,1h1l1,-1h3l-1,-1h1l1,1l1,-1l1,1h3v-1l1,1h4v-1h2l1,-1v-1h-1v-1h-1v-1h-1v-1h-1v-2l-1,-1v-1h1v-2h1v-1h1v-1h1l1,-1l1,1ZM144,201l2,1h1v1h-1v-1v1h-4l-2,-2l-2,-1l2,1h2v-2h1v1ZM151,197h1v1h-2v1l-1,-1l1,-1ZM269,196h-1v-2h1l1,1ZM345,189v1h1l1,-1v1l-3,3v-1l-1,1h-1l1,-1v-1l1,-1v-1ZM368,193v1l1,-1v1h-1l-3,3h-1l-1,1h-1l-2,2h-2v1h-1v-1h-1v-1l4,-2h1l1,-1h2l2,-2h1l2,-2ZM376,186l-1,2l1,-1l-1,1l1,1h1l-2,2h-1l-2,2l-2,1h-1l2,-1v-2l1,-1l2,-1v-1l1,-1v-3l1,-1v1l1,1ZM382,163l-1,1v-2l-1,-1v-1h1v1l1,1ZM397,156v1l-1,1h-1v-1l1,-1v1ZM398,156h-1v-1h1l1,-1v1ZM10,155v-1ZM386,154v-1ZM386,151v2h-1v-1ZM259,145v2l1,1h-1v1v-1v2h-1v3l-3,6v2h-1l-1,1l-1,-1h-1v-5h1v-2l1,-1h-1v-3h1v-1h1l2,-2h1v-1l1,-1v-1l1,-1v1ZM361,148v1h1v1h1l-1,1v2h1l-1,2v1l2,2v4h1l-1,2l1,1v3l-1,1v2l-3,3v1l-1,1l-1,2h-1l-1,2h-1l-4,4v1h-2l-1,1h-1l-1,1v-1h-1l1,-1h-1l-1,1h-1v-1h-1v-3h1l-1,-1v-1l1,-1l-1,1h-1l3,-3l-2,1h-1l-1,2v-4l-2,-2h-2l-1,1h-4l-2,2h-4l-1,1v-1l-1,1h-2v-1h-1l1,-1v-1h1v-3l1,-1v-7l1,1v-3l1,-1v-1l1,-1l-1,1l2,-2h1l1,-1h2l1,-1h2v-1h1l1,-1v-2l1,-1v2l1,-1v-1h1v-1l2,-2h2v1h2v-2h1l1,-1v-1h2v-1h-1h1l1,1h3l1,1h-1v1h-1v1l-1,1v1l2,2v1h1l1,1h1v-1l1,-1v-1l1,-1v-3l1,-1v-2h1v-1v3l1,1Z"/>
<path class="tl" d="M383,144h-1v-1v1ZM337,142l-2,-1h2ZM381,143h-1v-1h1ZM382,142v-1l-1,-1h1ZM341,142h-1l3,-3h2l-1,1h-1l-1,1ZM335,139h1v1h-3l1,-1ZM340,139v1h-3v-1h2ZM381,140v1l-2,-2h1v1ZM378,139v-1h-1v-1l1,1ZM325,137h2v-1l2,1v1h2l1,1l-1,1l-1,-1h-4l-1,-1h-1l-2,-1h-1l1,-2h1l1,1ZM353,136v1v-2ZM377,138h-1v-2l-1,-1h1v2h1ZM373,135l-1,1h-1l-1,1l-1,-1h-1l1,-1l1,1v-1h2v-2h1v1ZM345,132h-1v-1h1ZM349,131v2l-1,-1h-2v-1h2ZM374,134l-1,-1v-1l-1,-1h-1h2v2h1ZM353,128v3l2,1v-2l2,-1h1l1,1h1l1,1l4,2v1h1v1l2,1v1h-1v1l1,1v2h1v1h1h-1l1,1l-1,1v-1h-2l-1,-1v-3h-3l-1,1v1h-2l-2,-2v1h-2l1,-2h1l-1,-2v-1l-2,-1h-1l-1,-2l-1,1l-1,-1h1l-1,-1l1,-1h-1v-1h-1l-1,-1h2v-1ZM343,125l-1,1h-4v1l1,2v-1h2l-1,1h-1l1,2v1l1,2v1h-1v-2l-1,1v-1l-1,-1l1,-1h-1v4h-1v-3h-1v-1l1,-1v-4h1v-1h4l1,-1ZM347,125v1h-1v1l1,1h-1v-4h1ZM321,135h-1l-2,-2v-1l-2,-2l-1,-2v-2l-1,-1v-1l-4,-4v-1h2l3,3l1,2h1l2,2h1l-1,2h1v1l1,1h1v3ZM335,124l1,1h-1v3l-1,1v1l-1,3v-1l-1,1l-1,-1h-1v-1l-1,1l-1,-1h-1l-2,-4v-2l1,-1h2v-2h2v-1l1,-1v-1h1l1,-1v-2h1v1l2,2v1h-1l-1,2l1,1ZM344,114v3l-1,-1v2l-2,-2h1l-1,-1v1l-1,-1l-1,1v-1l1,-1h2v-1h1v-1l1,1ZM294,118h-1v-1l-1,-2l1,-2l1,1v1l1,1v1ZM137,113h-1l1,-1h1ZM341,111v1l-1,1l-1,-1l1,-1v-1v1l1,-1ZM335,113l-1,1v-1l1,-1v-1l1,-1v1l-1,1ZM338,109h2v1l-1,1v-1h-1ZM342,108l1,2h-1v1v-1h-1v-1h1h-1v-1ZM338,107l-1,1l-1,-1h1ZM336,99h1v6h1l2,1v2l-1,-1v-1v1l-1,-1h-2v-1h1h-1l-1,-1v-5ZM133,101v1h-1v-1ZM121,102h-1v-1h2v1ZM126,99h3v1h1v1h-2l-1,1v-1h-1v-2h-1ZM324,99l-1,1h-1v-2l1,-1h1v1ZM37,96v-2h1v2ZM38,94h-1v-1h1ZM119,95h2l1,1v1h1v1h2l-1,1h-3v-1h-1v-2h-2l-1,-1h-1h1h-2l-1,1h-1l2,-2h3ZM122,93h-1v-1l1,-1v1ZM334,93v1l-2,-2v-2l1,-1l1,1ZM122,89l-1,1v-1ZM123,89v1v-1h-1ZM340,75h1v1h-1v1h-1v-2ZM240,78l-2,2v-1h-1h2ZM229,78v1h-1ZM220,75v2h-1l-1,-1h-1v-1h2ZM214,71v3h-1v-3ZM344,70v1l1,1v1l-1,1h-1l-1,2l-1,-1v-1l-2,1l-1,1h-1l2,1v3l-1,-1v-1h-1l-1,-1l1,-1v-3h3v-3l1,1v-2h1l-2,-4v-1l3,3v1ZM214,70v1l-1,-1v-1l1,-1ZM340,60l1,-1l1,2h-1v2l-2,-1l1,2h-1l-1,-2l-1,-1h1l-1,-2l-1,-1l3,1ZM144,62l1,1h1h-2ZM147,59h-1l-1,-1h1ZM92,56h-1l-1,-1v-2h-1v-1h1l1,1v1l1,1ZM153,57l-1,1h1v1h2l-1,1h1v1l-1,2l-1,-1l1,-1l-2,1v-1h-3l1,-1h-1l4,-4h1Z"/>
<path class="tl" d="M90,47h1l-2,2v1v-3ZM332,50l3,3l-2,-1l1,2l2,2v1l-2,-2l-1,-2l-6,-6v-1h-1h1l3,3ZM198,56l-1,1h-2l1,-2v-1l2,-2h1v3ZM216,51l-1,2l-1,-1v-1h1ZM79,41h-1v-1h2ZM202,47l-1,2h2v1l-1,1h1l2,4h1v1l-1,1h1l-1,1h-3l-1,1h-2l2,-2h-1v-1h1l-1,-1v-1h2l-1,-1h-1v-2l-1,-1l1,-2v-1l1,1ZM75,36h-1v-1h1ZM141,40l-1,1v-1ZM139,40h-2l1,-1h1ZM78,30v1h1h-2v-1ZM139,36h1v1h1l-1,1h1l-1,1l-1,-1h-1l-2,1l1,-1h-1h1l1,-1l1,-2ZM193,37v1l1,1l-1,1h-3l-1,1l-1,-1h-2l1,-1h-1h1v-1h-2l1,-1h1l1,1l2,-1h2ZM147,34h-1l1,-1h2l-1,1ZM81,26v1l1,-1h2l-1,2h-3l-1,1h-1l-1,-1h1v-1h-1h1h-2l-1,1l8,-5v1l-1,2ZM135,30l-1,1v-1h-1l1,-1h1ZM322,21h-1ZM88,21h-1h2ZM139,30l-1,2l2,-1v1h-1v1l1,-1l2,-1l1,-1h2v2h-1v1l-1,1l-2,1h-1v-1l-1,1l-2,1v1h-3l-2,2h-1l-1,1l-2,1l-1,1l-1,2h1l-1,1v1h1l3,3l2,1h1l-2,2v2l1,1h1l2,-4h-1l4,-2v-1l1,-1v-1l-1,-1l2,-1l2,-4l1,1h1l1,-1v1l1,1h1v2l-1,1l1,1h2l1,-2h1v3l1,1l-1,1l1,1v1h1l1,1v1l1,1l-2,2h-2l-2,2h-1l-2,-1h-2l-2,1l-1,1l-2,1l-1,1l2,-1l3,-1h2l-1,1l-1,2v1l1,1l2,-1l1,-1v1h1l-4,2h-1l-2,1v-1l2,-1h-3v1h-1l-1,1h-1l-2,2l1,1v-1v1h-3l-1,1l2,-1v1h-2l-2,2v1l-1,1l-1,-1l1,-1l-1,1v4l-1,1h-1l-1,1h-1l-3,3h-1v8l-1,1h-1v-3l-1,-1l1,-1l-1,-2l-1,1l-1,-1h-4v1h-1l-1,-1l-1,1l-1,-1l-2,2h-2v1h-1v3l-1,1v1l-1,2v4l1,1v1h1v1l1,-1h3v-1l1,-1v-1l1,-1h3v1l-1,1v2l-1,1v-1v2l-1,1v1h5v1h1v1l-1,1v3l-1,1h1v2h1v1h2l1,-1h1v1h1l1,1l1,-1v-2l1,-1h2l2,-2v2h-1h1v1l-1,1v1h1v-3h1v-1h1v1h1v1h3l1,1l1,-1h1l1,1h1v1l1,1h1v1h1v1l1,1l2,1v-1h1l1,1h1l1,1v1h1v1l1,2v1l-1,1l1,1h2v1v-1l4,2v1h1l3,1h1l2,1l2,2h2v5l-1,1l-1,2l-2,2v9l-1,2v2h-1v1h-2l-1,1h-1l-3,3v5l-1,2l-2,2v2l-2,2v-1l-1,1l-1,-1h-1v-1v1l1,1v1l1,1v2l-2,1h-3l1,1v2l-1,1l-1,-1h-1l1,2h2l-2,2l1,1v1h-1l-1,1v1l2,1h1v1l-1,1v2h-1v1l2,2h-1l-1,1v1h-1l-2,-1l-3,-3l-1,-3v-1l1,-1h-2l1,-2l-1,-2h1v-2l-1,-1v2l-1,-2v-4l-1,-1l-1,-2h1v-6l-1,-2v-8l-1,-2v-6l-1,-2l-1,-1l-5,-3l-1,-1v-1l-1,-2l-1,-3l-2,-3l-2,-2v-1l-1,-2l2,-2v-1h-1v-3l1,-1v-1h1v-2h1l1,-1v-5l-1,-1v-2h-1v1h-1v1h-1l-1,-1h-2v-2h-1v-1v1h-1v-3l-2,-2h1h-2v-1h-2l-1,-1l-1,-2h-1l-1,-1v1h-2l-1,-1h-2l-2,-2h-1l-1,-1v-1h-1v-3h1l-1,-1v-3l-1,-1v-1l-1,-1v-3h-1v-5l-1,-1l-1,1v4h1l-1,1h1v5h1v2h-1v-1l-1,-1v-3l-1,-1v1v-1h-1v-1h1v-9h-1v-1h-1v-9l2,-2v-1l1,-2l2,-2l1,-2l1,-1v-1h1v1l2,-2h-1v-2l-1,-1v-1l1,-1l-1,-1l1,-1v-1l1,-1l-1,-1l1,-1v-1l1,-1l-1,-1h-1v-2h-1v-1h-1l-1,-1h-1l-1,1h-4l1,-1l2,-1h-1l-1,1l-2,1h-1l-1,1l-2,1h-2l-2,1h-1l-1,1h-3l-1,1h-2l1,-1h2l2,-1h2l2,-1h1l2,-1l1,-1h-3l1,-1l-1,1h-1l2,-2h-1v-1l2,-2l2,-1h3l1,-1h1l1,-1h-3v-2h4l1,1l1,-1v-3h4l1,-1h2l2,-1l1,1l1,-1h1l-1,1h1l1,1h2l1,1h2v1l1,1l1,-1h6l1,-1v2l2,-1l-1,1h2l1,1h2v1l-2,1h4v1l2,-2h2v1h1l1,1h2v-1h1l1,1l-1,1l1,-1h1l1,-1v-2l1,-1l2,-1l1,1l-2,2Z"/>
<path class="tl" d="M128,24l-1,1h4l-1,1h1l2,-2v1l-1,2v1l1,1h-2v1h-8v-1h-1v-1h4l-1,-1h-3l2,-1h-1l1,-1h1ZM135,24l-2,1v-1h1ZM152,26v1l-1,-1l-1,1v-2h2ZM146,26v1l1,-1l2,-1v2h3l1,1l-1,1l2,-1v1l1,1v2h-1l2,2v1h1v1l-2,1h-1l-1,-2l-1,1v1l1,1v2l-1,1l-2,-2v1l1,1h-2l-2,-2v-1l-1,-1v1h-3v-1l1,-1h3l1,-1l2,-1v-1l-1,-1h-1l1,-1l-1,-1h-5l-1,-1h-1l1,-1h-1l1,-1l2,-1l1,-1h2ZM138,24h2l-1,1h-1l1,1l-2,1h-2v-2l1,1v-1ZM298,22h-2v-1ZM141,26l-2,1v-1l2,-2h2l1,1l-2,1ZM122,26h-2l-1,-1h1l2,-1l2,-2h2v1h2v1h-1l-3,1h-2ZM299,19v1h-3v-1h1ZM143,23v1l-1,-1h-1l1,-1h1l1,1ZM295,19l1,1h-2l-1,1l-2,-1l-1,-1h2ZM143,21h-1v1l-1,1h-2l1,-1h-1l1,-1h2ZM136,21h1v1h-4l-2,1h-1l1,-1h-1l-1,-1l2,-1h1l2,1l1,1v-2h2ZM246,30h-3l-2,-1v-1l1,-2h-1l1,-1l-1,-1h1l4,-2h2l-1,1l-2,1l-1,1v2l-1,1l1,1ZM145,20l1,1h1l-1,1h1l1,1h4v1h-7l-1,-1l1,-1v-1h-2l1,-1ZM134,19l-2,1h-4l2,-1h3ZM271,20l1,1v-1h2l2,1h1v1l-1,1h1l2,1v-1l1,1l1,-1h2l1,1h3l-2,-1h5l1,1v1h2l2,1l-1,-1h1l1,-1l2,1v-1h1l-2,-1h8l3,1l1,-1h2l2,2h2v-1h3l3,1v-1h-2v-1h7l8,5h-1l1,1l2,1h2v1h-1v1h-1l1,1v2l-2,-1v2l-1,-1v1h-1l2,2v1h1l3,2h-1l1,1h1v1l1,2h-1l1,2l1,1l-4,-2l-4,-3l-1,-2l-1,-1v-3l-1,-2v-1l-2,-2l-1,1l2,2l-3,-1l-1,1l1,2l1,1h-1l-1,1l-1,-1h-1v1h-4v7h1l2,1h1l-1,-1h1l3,1l1,2l1,1l1,2l2,2v9h-1l-1,-1v2h-1v1l1,1v1h-1v1l1,1h1l2,2v1l1,1v1l-1,1h-1l-1,-2l-1,-1h1l-2,-1v-1v1v-1h-1v-1l-1,-1h-2v1h-1l-1,-1l1,-1l-1,-1l-1,1v2h-1v1l2,2h1v-1h2l1,1l-2,1v2l2,2l1,2l2,1v2h1v6l-2,4l-1,1h-1v1l-1,-1v1l-2,1h-1v2l-1,-1v-1h-2l-1,2v2l1,1l1,2l2,2l1,3v4l-2,1v1l-2,1v-2l-1,-1h-1v-1l-2,-2h-1v-1h-1v6h1v3l1,1h1v1h1v1l1,1v3h1v2h-1l-2,-2v-1l-1,-1v-1l-1,-1v-2l-1,-1v-1h-1v-6l-1,-1v-1l-1,-2v-2l-1,-1l-2,2h-1v-3l-1,-2v-1h-1l-2,-2v-1l-1,-1h-1v2l-1,-1v1h-2v2l-2,1l-1,2v1l-2,2h-1v8l-1,1l1,1h-1l-1,1l-1,-1l-1,-2v-1l-1,-1v-1l-1,-2v-1l-3,-6v-3l-2,1h-1l-1,-2v-1l-2,-1l-1,-1v-1l-1,-1l-2,1h-5l-1,-1h-2v-2h-1l-1,1h-2l-3,-3l-1,-2l-1,1v-1l-1,1v2l1,1h1l1,1v2l1,1l-1,-1l1,-1v2h1v1l1,-1h2v-1l1,-1v-1v2l2,2h1l2,2l-1,1v1h-1v3h-1v1h-1v1h-2v1h-1l-2,2h-1l-2,2v-1l-1,1h-2v1h-2v-2l-1,-1v-3h-1v-1l-1,-1v-1l-1,-1h-1v-1l-1,-1v-3h-2v-2l-1,-1v-1l-2,-2v-1v1l-1,1l-1,-1l-1,-2l1,2l1,1l1,2v1l2,2h-1l2,2v1l1,1h-1l1,2v1l1,1l1,2v1l1,1l2,1v1h1v1h1v1l-1,1h1l1,1h3l1,-1h3v-1h1v2l-1,1v3l-1,1l-3,6l-1,1l-2,1l-1,1l-1,2v1h-1v1h-1v2l-1,1l-1,2l1,1v4l1,1v7l-1,1h-1l-3,3h-1v1l-1,1v2h1l-1,1h1v1l-1,1h1l-1,1h-1l-2,2v3l-3,3v1l-2,1v1l-1,1h-2v1l-1,-1v1l-1,-1l-1,1h-2l-1,1l-1,-1h-1v-5l-1,-1v-2l-1,-1v-1l-1,-1v-5l-1,-1v-1l-1,-2v-1l-1,-1v-3l1,-1v-3h1v-1l1,-1v-1h-1v-5l-1,-1v-2l-3,-3l-1,-2l1,-1v-5l-1,-1v-1l-1,1h-2l-1,-1v-1l-1,-1h-2l-1,1h-2l-1,1h-6l-1,1l-4,-4h-1l-1,-1v-1l-1,-1v-1h-1v-1l-1,-1v-1h-1v-3h-1l1,-1v-1h1l-1,-1l1,-1v-4l-1,-1v-1h1v-2l1,-1v-1h1v-2h1l1,-2h1l2,-2v-3l3,-3l1,-2v-1h1l1,1h2l1,-1h2l1,-1h4l1,-1h1v1h1l1,-1h1v1l1,-1v1h-1v1h1v2h-1v1h1v1h3l2,2h1l2,2l1,-1v-2l1,-1h2l1,1h1l1,1h2l1,1h1v-1h2l1,1v-1h1l1,1v-2l1,-1v-5h-2l-1,1l-1,-1h-2v1l-1,-1h-2v-1l-1,-1v-2l1,-1h1v-1h2l1,-1h1l2,-1l2,1l1,1h2l1,-1v-2h-1l-2,-2h-1l-1,-1l1,-1l-1,-1h2l-1,-1v1h-2l-1,1v1h1l-1,1h-1v-1h-1l1,-1h-2v-1h-1v1l-1,1v1h-1v4l1,1h-2v1h-1v-1h-2l1,1h-2v1l1,1h-1h1l1,1v1l-1,-1v1h-1l1,1h-2v-2l-1,-1v-1h-1v-3h-1v-1h-1l-1,-1h-1l-1,-1v-1l-1,-1v1v-1h-2v1l2,2v1l1,1h1l1,1h1l1,1v1l-1,-1h-1v1h1v1h-1v1h-1v-1h1l-1,-1v-1h-1l-1,-1h-1l-2,-2l-1,-2h-2v1h-4l-1,1v2h-2v1l-1,2h1l-1,1v1h-1l-1,1h-2l-1,1l-2,-2v1h-2l1,-1v-1h-1v-2l1,-1v-3l-1,-1l2,-1l1,1h5v-4l-1,-1v-1h-2v-1h3v-2l1,1l2,-1v-1h1l1,-1l1,-2l1,-1h2v-5h2l-1,1h1v1l-1,1v1h1v1l1,-1h2v1h1l2,-2l1,1h1v-1h1v-3l1,-1l1,1v-1l-1,-1v-1h4l1,-1h-4l-1,1l-2,-2v-4l2,-1v-1l-1,-1l-2,2l-1,2l-1,1v3h1v2h-1v2l-1,2h-1v1h-1v-2l-1,-1l-1,-2l-1,-1l-1,2h-1l-2,-1v-5l2,-1l3,-3l2,-3l3,-3h2l1,-2h3l2,1l-1,1h2l1,1h3l3,1l1,1v1l-1,1h-1l-3,-1h-1l2,1v2l1,1h1v-1h-1l1,-1l2,1v-1l1,-2h1l1,1v-1l-1,-1v-1l-1,-1l2,1h1l-1,1l1,1h1v-1l1,-1l2,-1h1v1l1,-1h1l1,-1l1,1l1,-1h-2l1,-1h2l1,1l4,1v-1h-2v-1h-1l-1,-1v-3h2l1,1v1h1l1,1l1,2h1v3l1,1v-1h1l-1,-1l1,-1h-1l-2,-2v-1l-2,-1l1,-1l-1,-1h1l1,2l-1,-1l1,-1h2l1,1l-1,-1l-1,-2h4l-2,-1v-1h1l1,-1h3l1,-1h1v-2l2,1h-1ZM253,70l1,1v2h-1v1l1,1h1l1,1h3l-1,-1v-2h-1v-2h1v-1l-1,-1h-1l1,1l-1,-1v-1h-2v-2h-1h1v-2l1,1v-3h-2l-1,1h-1v1h-1l-1,2l2,1v1l1,1Z"/>
<path class="tl" d="M146,20h-1v-1h1l1,1ZM137,19h-2l1,-1h1l1,1ZM220,21l-1,1h-1v-1h-1l2,-1v1ZM139,18h-2l1,-1v1ZM146,19h-1v-1h1l1,1ZM144,19h-1l-1,-1h-1h1v-1h1l1,1ZM268,18l-3,1v-2ZM215,19l3,1h-2v3h-1l-2,-1h1l-1,-1l-2,-1v-1l1,-1l1,1h1v-1h1ZM220,18h1l-1,1h-4l-1,-1h3ZM234,17l-1,1h-1v-1h-1h4ZM264,18h-4l-2,-1l-1,-1h1l1,-1l4,2ZM153,17v1h-1l-2,1h-2v-1h1h-1v-1l1,-1h2v-1h1v1h1ZM167,14h3v1h-3l-1,1h-1l-1,1l-2,1h-3v1h-1v1h-2l-2,1h1l-2,1h-4l-1,-1h2v-1h2v-1h-1h1l1,-1h1l-1,-1h4l-1,-1h-3v-1l1,-1h6v-1h3v1l2,-1l1,1ZM190,14l3,1h-6v1h5l-1,1l2,-1h4v1l-2,1h-1l-2,2v2l1,1h-2l1,1l-1,1v1h-1l1,1h-3l1,1v1l-1,-1l-1,1h1l1,1v1h-2l-1,-1v1l-1,1h3l-4,2h-3l-1,1l-4,2h-1l-2,1h-1v1l-2,2v1l-1,1l-1,2h-1l-1,-1h-1l-1,-1v-2l-1,-1v-1l1,-1l-1,-2l1,-1l1,-2h1l1,-1v-1l-1,1h-1v-1l1,-1h1l-1,-1h-1l1,-1v-4l-1,-1h-5v-1l-1,-1h1l-1,-1l1,-1h2l3,-1h1l-2,-1h1l3,-1h1v-1h9l1,1l-1,-1h1l2,-1h3l2,-1Z"/>
<path class="th" d="M175,238h4v1v-1v1v-1h1v-1h1v-1h5v-1h2v-1h-6v-2h1v-1h2v-1h2l1,-1h4v-1h1h-1h1v-1h2l-1,-1v1h-1l1,-1h-1h1v-1v1v-1v1h1v-1h-1h3v-1h-1h1h-1h1h-1v-1h2v1h1v-1v1v-2l1,1v-1v1h4v1v-1v1v-1h2v-1h4v-1v1h1v-1v1h3v-1v1h4v1h2v-1h1h-1h1v1v-1h1v1h2v-1h5v-2h1h-1h1v1h2v1v-1h1h-1v1h1v-1h1v-1h2v-1h4v-1v1h1l1,-1h-1h2v-1h5v1h-1h1h-1v1v-1v1v-1h2v1h-1h1v-1v1h4l1,1h2v1h-1v1h1h-1v1h-1v-1v1h-1h1v1h-1l-1,1h-1v1h-1v1h1v-1h2v-1v1v-1h2v-1h1l1,-1h2v-1h3v-1h2l1,-1h5v-1h1v1v-1h1v1h1v-1h2v1h1v-1v1h5v-1h2v1h2v1v-1v1h2v-1h3v1h1h-1v1h-1h9v-1v2h1v-1h6v1v-1l1,1h1h-1h1v1l1,-1v1h1h-1h1h-1h1h-1v1v-1v1h-1h2v1h-1h1h-1h2v1h2v-1h1v1h-1v1v-1h1l-1,1h2v1h-1v1h-1v1v-1h3v1h1h-1h1h-1h1h-1h1l-1,1h1h-1h1h-1h1v-1v1h-2v1h-1h1h-1v-1v1h-3v1v-1v1v-1v1v-1h-1v1v-1h1h-1v1h-2v1v-1h-1h1h-2v1v-1v1h-1v1h-2v1h-2v1h-1h1h-1h1h-1h1v1v-1h-2v1v-1v1h-1v-1h1h-1h1h-1h1h-1v1h-2v1h-3v1h-1h1h-1h1h-1h1h-1h1h-1h1h-1v1h-1h1h-1h2l-1,1h1h-1h1h-1h2l-1,1h2l-1,1h-2l-1,1h-2l-1,1h-2l-1,1h-159l-1,-1h-2l-1,-1h-2l-1,-1h-2l-1,-1h6v-1h1h-1h2v-1h-1h1v-1h-4v-1h2v-1v1v-1h-1h1h-1h1h-1h1h-1h1h-1h1h-2l-1,-1h-3v-1h-2v1l-1,-1h-2v-1l1,1v-1h2v1h1v-1h1v1h1v-1v1v-1h-1h2l-1,-1h-1h1h-2v-1h3v-1h1h-1v-1h9v-1h3v-1h1h-1h1v1h1h-1h2v-1h-1h2v1h7v-1h-1v1v-1h-2v-1h-1h1h-2v-1h9v-1h-1h1v1h5v-1h1v1v-1h-1h2v1h4v-1h3v-2h-1v-1h-1v-1h-1v-1h-1h1v-2h-1v-1h-1h1h-1h1v-2h1v-1h1l-1,-1h1v-1h2v-1h1v1v-1v1h-1h1h-1v1h-1h1h-1v1h-1h1v1h-1h2v1v-1h-1v1v-1h-1v1h1h-1v-1v1v-1h-1h1v1h-1h1h-1v1v-1v1h1h-1h1h-1v1h1h-1h1v1h1v-1h1h-1v1h1h-1h1v1h2v1h-1h1h-1h1v1h1v1v-1l1,1h-1h1h-1h1h-1h1v1h1v1h-1h1v1h1h-1v1h-1h1h-1h1h-1v1l1,-1v1h-1l-1,1h-1v1h-3v-1v1l-1,-1v1v-1v1v-1v1h-1v-1v1v-1v1h2v1h2l-1,1v-1h-3v1h1v1v-1h-2v1h5v1h-1h3v1h6v1h1h-1h1h-1h1v1h1v-1h2l-1,1h1h-1h1v1h1h-1h2v-1h1v-1ZM301,238h-1h2ZM306,234h1h-1v1ZM321,227h-1h1v-1ZM170,236h-1h1v1h-2v-1h-1v1v-1h-1h2v-1h1h-1h1v1ZM165,235h1h-1h1v1h-1v-1h-1ZM185,235v-1ZM163,235h1h-1h1ZM164,235h-1ZM184,234h-1ZM164,234h-1v1h-2l1,-1h1v-1h1v1h-1ZM173,236h1v-4h2l1,1v1h2v1h-1h1h-1v1h-5v-1v1v-1h1ZM191,227h-1v-1v1ZM156,227h-1ZM134,228v1ZM143,227h1v1h-1v-1v1ZM153,227h1v1ZM143,227v1h-1v-1ZM155,226h1Z"/>
<path class="th" d="M162,225h1ZM196,224h-1ZM139,227h-3v-1h1v1h1l-1,-1h1v1h1h-1ZM151,224h-1h2ZM202,222h1ZM150,223h1ZM152,222h-1ZM159,222v-1ZM155,226h-1h1h-1h1h-1h1v-1h-2v1h-1v-1h1v-1h1v-1h1h-3v-2h1v1h1v1h2v2h1v1h-1ZM159,221h1ZM154,220v-1ZM153,219v-1ZM153,220v-1h-1h1v-1v1ZM153,217v1ZM153,217h1ZM155,216v-1ZM159,215h1ZM155,215v1v-1v1h-1v-1ZM155,215v-1ZM155,214h1h-1v1ZM159,215h-1h1h-1v-1h1h-1h1ZM155,214h1ZM160,213v1ZM155,213v1ZM160,213h-1ZM155,213v-1v1v-1h1v1v-1v1v-1v1ZM157,212h-1ZM157,212v-1h1v1h-1h1ZM160,210v1ZM168,209h-1ZM166,209h1ZM120,242v1v-1h-1ZM117,243h1h-2ZM120,241h-1ZM118,241h-1ZM118,239h-1ZM187,235h-1h1h-2v-1v1h1v-1v1ZM114,239h1h-4v-1h1v1h1ZM116,236h-1ZM115,236h-1ZM304,238h-2v-1h1v1ZM115,236h-1ZM115,236h-1ZM116,236v-1v1l-1,-1h1ZM115,236h-1v-1h1ZM114,236h-1ZM114,235h1ZM122,232h1h-1v-1ZM128,230v1ZM126,231v-1h1ZM126,230v1h-2v-1v1v-1h1ZM312,234h-1ZM121,230h1v1h1v-1v1h1h-3ZM252,225v1ZM203,222v1h-1h1h-1v-1ZM207,222h-1ZM256,224v-1ZM207,222h1ZM208,222h1ZM314,229v1ZM209,221v1ZM224,222h-1ZM206,221l-1,1v-1ZM213,221h-1ZM216,221h1ZM241,219h-1h1h-1ZM294,222h-1ZM269,219v1ZM242,218h-1ZM278,219v1ZM278,219h-1ZM281,218h1v1h-1ZM283,219v-1Z"/>
<path class="tg" d="M66,220h1l1,-1h4v-1h5v-1h5v-1h6v-1h6l1,-1h7v-1h8v-1h9l1,-1h11v-1h14v-1h20v-1h79v1h20v1h14v1h11l1,1h9v1h8v1h7l1,1h6v1h6v1h5v1h5v1h4l1,1h1M21,177h6v-1h7v-1h8v-1h10v-1h10v-1h12v-1h14v-1h18v-1h23v-1h38v-1h75v1h38v1h23v1h18v1h14v1h12v1h10v1h10v1h8v1h7v1h6M5,127h399M21,76h4v1h7v1h8v1h9v1h10v1h11v1h14v1h16v1h21v1h32v1h103v-1h32v-1h21v-1h16v-1h14v-1h11v-1h10v-1h9v-1h8v-1h7v-1h4M66,33v1h5v1h4v1h5l1,1h5v1h6l1,1h6l1,1h7v1h10v1h10v1h13l1,1h17v1h36v1h21v-1h36v-1h17l1,-1h13v-1h10v-1h10v-1h7l1,-1h6l1,-1h6v-1h5l1,-1h5v-1h4v-1h5v-1M140,5h-1v1h-3v1h-2v1h-2v1h-2v1h-2v1h-2l-1,1h-1l-1,1h-1l-1,1h-1v1h-2v1h-2v1h-2v1h-1l-1,1h-1v1h-2v1h-1l-1,1h-1v1h-2v1h-1v1h-2v1h-1v1h-2v1h-1v1h-1l-1,1h-1v1h-1v1h-2v1h-1v1h-1v1h-1v1h-2v1h-1v1h-1v1h-1v1h-1v1h-1v1h-1l-1,1h-1v1h-1v1h-1v1h-1v1h-1v1h-1v1h-1v1h-1v1h-1v1l-1,1v1h-1v1h-1v1h-1v1h-1v1h-1v1l-1,1v1h-1v1h-1v1h-1v2h-1v1h-1v2h-1v1h-1v2h-1v1h-1v2h-1v2h-1v1h-1v2h-1v2h-1v2h-1v2h-1v2l-1,1v2h-1v2l-1,1v2h-1v3h-1v4h-1v4h-1v5h-1v9h-1v13l1,1v8h1v5h1v4h1v4h1v3h1v3h1v2h1v3h1v2h1v2h1v2h1v2h1v2h1v2h1v1l1,1v1h1v2h1v1h1v2h1v1h1v1h1v2h1v1h1v1l1,1v1h1v1h1v1h1v1l2,2v1h1v1h1v1h1v1h1v1h1v1h1v1h1v1h1v1h1v1h1v1h1v1h1v1h1v1h2v1h1v1h1v1h1v1h1v1h1l1,1h1v1h1v1h1v1h2v1h1v1h1l1,1h1v1h1v1h2v1h1v1h2v1h1l1,1h1v1h2v1h1v1h2v1h2v1h1l1,1h1v1h2v1h2v1h2v1h2v1h2v1h2v1h2v1h2l1,1h2v1h2v1h2M153,5h-1v1h-2v1h-2v1h-1v1h-2v1h-2v1h-1v1h-2v1h-1v1h-2v1h-1v1h-2v1h-1v1h-1v1h-2v1h-1v1h-1l-1,1h-1v1h-1v1h-1v1h-1v1h-1l-1,1h-1v1h-1v1h-1v1h-1v1h-1v1h-1v1h-1v1h-1v1h-1v1h-1v1h-1v1h-1v1h-1v1h-1v1h-1v1h-1v1h-1v1l-2,2v1h-1v1h-1v1h-1v1l-1,1v1h-1v1h-1v2h-1v1h-1v1l-1,1v1h-1v2h-1v1h-1v2h-1v1h-1v2h-1v2h-1v2h-1v2h-1v2h-1v2h-1v2h-1v3h-1v2h-1v3h-1v3h-1v3h-1v3h-1v4l-1,1v4h-1v6l-1,1v30h1v6h1v5h1v4h1v3h1v3l1,1v2l1,1v2h1v3h1v2h1v2h1v2h1v2l1,1v1h1v2h1v2h1v2h1v2h1v1h1v2h1v1h1v2h1v1h1v2h1v1h1v1h1v2h1v1h1v1h1v1l1,1v1h1v1h1v1h1v1h1v1h1v1h1v1l3,3v1h1l3,3h1v1h1v1h1v1h1v1h1v1h1v1h1v1h1l1,1h1v1h1v1h1v1h1l1,1h1v1h1v1h1l1,1h1v1h1v1h2v1h1v1h2v1h1v1h2v1h2v1h1v1h2v1h1l1,1h1v1h2M166,5h-1v1h-1v1h-1l-1,1h-1v1h-1v1h-1v1h-1v1h-1v1h-1l-2,2h-1v1h-1v1h-1v1h-1v1h-1v1h-1v1h-1v1h-1v1h-1v1l-2,2v1h-1v1h-1v1h-1v1h-1v1l-1,1v1h-1v1h-1v1h-1v2h-1v1h-1v1l-1,1v1h-1v1h-1v2h-1v1h-1v2h-1v2h-1v1h-1v2h-1v2h-1v2h-1v1l-1,1v1l-1,1v1l-1,1v2h-1v2h-1v2h-1v3h-1v2h-1v3h-1v3h-1v3h-1v3h-1v4h-1v4h-1v5h-1v6h-1v8h-1v30h1v7l1,1v5h1v5h1v4h1v4h1v3h1v3h1v3h1v3h1v3h1v2h1v2h1v2l1,1v2h1v2h1v2h1v2h1v1h1v2h1v2h1v2h1v1h1v2h1v1h1v2h1v1l1,1v1h1v1h1v2h1v1h1v1h1v1l1,1v1h1v1h1v1h1v1l1,1v1h1v1h1v1h1v1h1v1h1v1h1v1h1v1h1v1h1v1h1v1h1v1h1v1h1v1h1v1h1l2,2h1v1h1v1h1v1h1v1h2v1h1"/>
<path class="tg" d="M179,5h-1v1h-1v2h-1v1h-1v1h-1v1h-1v2h-1v1h-1v1l-1,1v1h-1v1l-1,1v1h-1v1l-1,1v1h-1v2h-1v1l-1,1v1h-1v2h-1v2h-1v2h-1v2h-1v2h-1v2h-1v2h-1v2h-1v2l-1,1v2h-1v2l-1,1v2h-1v3h-1v3h-1v3h-1v3h-1v4h-1v4h-1v4h-1v4h-1v5l-1,1v5h-1v8h-1v11h-1v29l1,1v10l1,1v7h1v6h1v5h1v4l1,1v4h1v3l1,1v3h1v3h1v3h1v3h1v3h1v3h1v2h1v3h1v2h1v2h1v2l1,1v2h1v2h1v1l1,1v1l1,1v1h1v2h1v2h1v1l1,1v1h1v2h1v1h1v2h1v1h1v2h1v1h1v1l1,1v1h1v1h1v1h1v2h1v1h1v1h1M192,5h-1v3h-1v2h-1v3h-1v3h-1v3h-1v3h-1v3h-1v3l-1,1v3h-1v4h-1v4h-1v4l-1,1v4h-1v5h-1v6h-1v6l-1,1v7h-1v8h-1v11l-1,1v18h-1v29l1,1v18h1v11h1v8l1,1v7h1v6h1v6h1v5h1v5h1v4h1v4h1v4h1v4h1v3h1v3l1,1v3h1v2l1,1v2h1v3h1v3h1v2h1M205,5v243M217,5h1v3h1v2h1v3h1v3h1v3h1v3h1v3h1v3l1,1v3h1v4h1v4h1v4l1,1v4h1v5h1v6h1v6l1,1v7h1v8h1v11l1,1v18h1v29l-1,1v18h-1v11h-1v8l-1,1v7h-1v6h-1v6h-1v5h-1v5h-1v4h-1v4h-1v4h-1v4h-1v3h-1v3l-1,1v3h-1v2l-1,1v2h-1v3h-1v3h-1v2h-1M230,5h1v1h1v2h1v1h1v1h1v1h1v2h1v1h1v1l1,1v1h1v1l1,1v1h1v1l1,1v1h1v2h1v1l1,1v1h1v2h1v2h1v2h1v2h1v2h1v2h1v2h1v2h1v2l1,1v2h1v2l1,1v2h1v3h1v3h1v3h1v3h1v4h1v4h1v4h1v4h1v5l1,1v5h1v8h1v11h1v29l-1,1v10l-1,1v7h-1v6h-1v5h-1v4l-1,1v4h-1v3l-1,1v3h-1v3h-1v3h-1v3h-1v3h-1v3h-1v2h-1v3h-1v2h-1v2h-1v2l-1,1v2h-1v2h-1v1l-1,1v1l-1,1v1h-1v2h-1v2h-1v1l-1,1v1h-1v2h-1v1h-1v2h-1v1h-1v2h-1v1h-1v1l-1,1v1h-1v1h-1v1h-1v2h-1v1h-1v1h-1M243,5h1v1h1v1h1l1,1h1v1h1v1h1v1h1v1h1v1h1l2,2h1v1h1v1h1v1h1v1h1v1h1v1h1v1h1v1h1v1l2,2v1h1v1h1v1h1v1h1v1l1,1v1h1v1h1v1h1v2h1v1h1v1l1,1v1h1v1h1v2h1v1h1v2h1v2h1v1h1v2h1v2h1v2h1v1l1,1v1l1,1v1l1,1v2h1v2h1v2h1v3h1v2h1v3h1v3h1v3h1v3h1v4h1v4h1v5h1v6h1v8h1v30h-1v7l-1,1v5h-1v5h-1v4h-1v4h-1v3h-1v3h-1v3h-1v3h-1v3h-1v2h-1v2h-1v2l-1,1v2h-1v2h-1v2h-1v2h-1v1h-1v2h-1v2h-1v2h-1v1h-1v2h-1v1h-1v2h-1v1l-1,1v1h-1v1h-1v2h-1v1h-1v1h-1v1l-1,1v1h-1v1h-1v1h-1v1l-1,1v1h-1v1h-1v1h-1v1h-1v1h-1v1h-1v1h-1v1h-1v1h-1v1h-1v1h-1v1h-1v1h-1v1h-1v1h-1l-2,2h-1v1h-1v1h-1v1h-1v1h-2v1h-1M256,5h1v1h2v1h2v1h1v1h2v1h2v1h1v1h2v1h1v1h2v1h1v1h2v1h1v1h1v1h2v1h1v1h1l1,1h1v1h1v1h1v1h1v1h1l1,1h1v1h1v1h1v1h1v1h1v1h1v1h1v1h1v1h1v1h1v1h1v1h1v1h1v1h1v1h1v1h1v1h1v1l2,2v1h1v1h1v1h1v1l1,1v1h1v1h1v2h1v1h1v1l1,1v1h1v2h1v1h1v2h1v1h1v2h1v2h1v2h1v2h1v2h1v2h1v2h1v3h1v2h1v3h1v3h1v3h1v3h1v4l1,1v4h1v6l1,1v14l1,1h-1v15h-1v6h-1v5h-1v4h-1v3h-1v3l-1,1v2l-1,1v2h-1v3h-1v2h-1v2h-1v2h-1v2l-1,1v1h-1v2h-1v2h-1v2h-1v2h-1v1h-1v2h-1v1h-1v2h-1v1h-1v2h-1v1h-1v1h-1v2h-1v1h-1v1h-1v1l-1,1v1h-1v1h-1v1h-1v1h-1v1h-1v1h-1v1l-3,3v1h-1l-3,3h-1v1h-1v1h-1v1h-1v1h-1v1h-1v1h-1v1h-1l-1,1h-1v1h-1v1h-1v1h-1l-1,1h-1v1h-1v1h-1l-1,1h-1v1h-1v1h-2v1h-1v1h-2v1h-1v1h-2v1h-2v1h-1v1h-2v1h-1l-1,1h-1v1h-2"/>
<path class="tg" d="M269,5h1v1h3v1h2v1h2v1h2v1h2v1h2l1,1h1l1,1h1l1,1h1v1h2v1h2v1h2v1h1l1,1h1v1h2v1h1l1,1h1v1h2v1h1v1h2v1h1v1h2v1h1v1h1l1,1h1v1h1v1h2v1h1v1h1v1h1v1h2v1h1v1h1v1h1v1h1v1h1v1h1l1,1h1v1h1v1h1v1h1v1h1v1h1v1h1v1h1v1h1v1l1,1v1h1v1h1v1h1v1h1v1h1v1l1,1v1h1v1h1v1h1v2h1v1h1v2h1v1h1v2h1v1h1v2h1v2h1v1h1v2h1v2h1v2h1v2h1v2l1,1v2h1v2l1,1v2h1v3h1v4h1v4h1v5h1v9h1v13l-1,1v8h-1v5h-1v4h-1v4h-1v3h-1v3h-1v2h-1v3h-1v2h-1v2h-1v2h-1v2h-1v2h-1v2h-1v1l-1,1v1h-1v2h-1v1h-1v2h-1v1h-1v1h-1v2h-1v1h-1v1l-1,1v1h-1v1h-1v1h-1v1l-2,2v1h-1v1h-1v1h-1v1h-1v1h-1v1h-1v1h-1v1h-1v1h-1v1h-1v1h-1v1h-1v1h-1v1h-2v1h-1v1h-1v1h-1v1h-1v1h-1l-1,1h-1v1h-1v1h-1v1h-2v1h-1v1h-1l-1,1h-1v1h-1v1h-2v1h-1v1h-2v1h-1l-1,1h-1v1h-2v1h-1v1h-2v1h-2v1h-1l-1,1h-1v1h-2v1h-2v1h-2v1h-2v1h-2v1h-2v1h-2v1h-2l-1,1h-2v1h-2v1h-2"/>
<rect x="99" y="198" width="232" height="60" fill-opacity="0" stroke="#ffffff" stroke-opacity="0.5" stroke-width="5.0"/>
<rect x="101" y="200" width="232" height="60" fill-opacity="0" stroke="#113311" stroke-opacity="0.8" stroke-width="5.0"/>
<rect x="100" y="199" width="232" height="60" fill-opacity="0" stroke="#45a249" stroke-opacity="0.9" stroke-width="5.0"/>
</svg>
