<?xml version="1.0" encoding="UTF-8" standalone="no"?>
<svg xmlns:svg="http://www.w3.org/2000/svg" xmlns="http://www.w3.org/2000/svg" xmlns:xlink="http://www.w3.org/1999/xlink" height="1000" width="1000">
<!-- made with pythonshp (GPL): github.com/sanjayrao77/pythonshp , underlying data may come from naturalearthdata.com -->
<!-- 
COPYRIGHT: THIS SVG FILE IS RELEASED INTO THE PUBLIC DOMAIN
 -->
<!-- 
vars : {
	'cmdline' : 'pythonshp.py publicdomain wiki1 argentina locatormap'
	'title' : 'Argentina locator'
	'version' : '1.0.5'
}
 -->
<defs>
	<radialGradient id="watergradient" cx="500" cy="500" r="500" fx="500" fy="500" gradientUnits="userSpaceOnUse">
		<stop offset="0%" stop-color="#70add3"/>
		<stop offset="11%" stop-color="#6eaad0"/>
		<stop offset="22%" stop-color="#6ca7cc"/>
		<stop offset="31%" stop-color="#6ba5c9"/>
		<stop offset="41%" stop-color="#69a2c6"/>
		<stop offset="51%" stop-color="#679fc2"/>
		<stop offset="59%" stop-color="#669dbf"/>
		<stop offset="67%" stop-color="#649abc"/>
		<stop offset="75%" stop-color="#6297b9"/>
		<stop offset="81%" stop-color="#6095b6"/>
		<stop offset="87%" stop-color="#5f92b2"/>
		<stop offset="92%" stop-color="#5d8faf"/>
		<stop offset="95%" stop-color="#5b8dac"/>
		<stop offset="98%" stop-color="#598aa8"/>
		<stop offset="100%" stop-color="#5685a2"/>
	</radialGradient>
	<radialGradient id="landgradient" cx="500" cy="500" r="500" fx="500" fy="500" gradientUnits="userSpaceOnUse">
		<stop offset="0%" stop-color="#dddddd"/>
		<stop offset="11%" stop-color="#d7d7d7"/>
		<stop offset="22%" stop-color="#d1d1d1"/>
		<stop offset="31%" stop-color="#cccccc"/>
		<stop offset="41%" stop-color="#c6c6c6"/>
		<stop offset="51%" stop-color="#c0c0c0"/>
		<stop offset="59%" stop-color="#bbbbbb"/>
		<stop offset="67%" stop-color="#b5b5b5"/>
		<stop offset="75%" stop-color="#afafaf"/>
		<stop offset="81%" stop-color="#aaaaaa"/>
		<stop offset="87%" stop-color="#a4a4a4"/>
		<stop offset="92%" stop-color="#9e9e9e"/>
		<stop offset="95%" stop-color="#999999"/>
		<stop offset="98%" stop-color="#939393"/>
		<stop offset="100%" stop-color="#888888"/>
	</radialGradient>
	<radialGradient id="bordergradient" cx="500" cy="500" r="500" fx="500" fy="500" gradientUnits="userSpaceOnUse">
		<stop offset="0%" stop-color="#444444"/>
		<stop offset="11%" stop-color="#3f3f3f"/>
		<stop offset="22%" stop-color="#3a3a3a"/>
		<stop offset="31%" stop-color="#363636"/>
		<stop offset="41%" stop-color="#323232"/>
		<stop offset="51%" stop-color="#2d2d2d"/>
		<stop offset="59%" stop-color="#292929"/>
		<stop offset="67%" stop-color="#242424"/>
		<stop offset="75%" stop-color="#1f1f1f"/>
		<stop offset="81%" stop-color="#1b1b1b"/>
		<stop offset="87%" stop-color="#161616"/>
		<stop offset="92%" stop-color="#121212"/>
		<stop offset="95%" stop-color="#0e0e0e"/>
		<stop offset="98%" stop-color="#090909"/>
		<stop offset="100%" stop-color="#000000"/>
	</radialGradient>
</defs>
<style type="text/css">
<![CDATA[
.fs {font:14px sans;stroke:#ffffff;stroke-width:2px;stroke-opacity:0.8;text-anchor:middle}
.ft {font:14px sans;fill:#000000;fill-opacity:1;stroke-opacity:0;text-anchor:middle}
.sb {stroke:url(#bordergradient);fill-opacity:0}
.sg {stroke:#000000;fill-opacity:0.0;stroke-opacity:0.2}
.sh {fill:#45a211;stroke:#000000}
.si {stroke:#000000;fill-opacity:0;stroke-opacity:0.3}
.sl {fill:url(#landgradient);stroke:url(#bordergradient)}
.sp {stroke:url(#landgradient);fill-opacity:0}
.sr {stroke:url(#watergradient);fill-opacity:0}
.sw {fill:url(#watergradient);stroke:url(#watergradient);stroke-opacity:0.8}
.tb {fill:#eeeeee;stroke:black;stroke-width:2}
.tg {stroke:black;stroke-opacity:0.2;fill-opacity:0}
.th {fill:#45a211;stroke:#378100}
.tl {fill:#aaaaaa;stroke:black}
]]>
</style>
<circle cx="500.0" cy="500.0" r="500.0" fill="url(#watergradient)"/>
<path class="sl" d="M842,135v1h1h-1v-1l-1,-1h-1l-1,-1v-1h-1l-1,-1v-1h-1l-1,-1v1h1v1h1l1,2h1v1h1v1v-1l1,1v1h1v2l-1,-1v1h1l1,1v2h1l1,2l5,5v2h1v1h1v1h-1l1,2h-1v-1h-2v-1h-2l-1,-1l-2,-1v1l-1,-1v2l-4,-4h-1v-1h-1v-1l-1,-1v1v-1l-3,-2v-1h-3l-1,-1l-2,-1h-2v-1l-1,-1v-1l-3,-3v-1l-1,-1l1,1l-1,-1h-1l-2,-2h1l-1,-1v1h-1v-1l-1,-1v-1h-1v-1l-1,-2l-1,-1v-1l-2,-1v-1l-5,-5h-1v-1l-1,-1v-1h-1v-1h-1v-1h-2v-1h-1v-1h-1v-1h3v1h1l1,1h1l1,1h2v1h1l2,2l3,1l1,1h1l1,1l2,1l2,2h1l-2,-2l-2,-3h-1l-1,-1h1h-1l-1,-2h-1l-2,-2h-1h1h-1v-1l-2,-1v-1h-1l-1,-1l-2,-1l-2,-2h-1v-1h-1v-1h-1h1v1h1l-2,-1l-1,-1h-1v-1h-1v-1h-2v-1h-1l-2,-2h-1l-1,-1l-2,-1h1h-1v-1h-1h1v1v-1h-2v-1h-1h1l1,1h1l1,1l2,1l1,1h1l1,1l-4,-4h-2l-1,-1h1l1,1h1v1h1l1,1l2,1h-1v-1h-1h1h-1l1,1h1l2,2h1l1,1h1v1l1,1h1l2,2h1v1l1,1h1l1,1h1l4,4h1l4,4h1l6,6h1l4,4h1l1,1v1l1,1h1l4,4h1v1l2,2h1l1,1v1h1Z"/>
<path class="sp" d="M790,93l1,1h1l2,2h1l1,1h1v1l1,1h1l2,2h1v1l1,1h1l1,1h1l4,4h1l4,4h1l6,6h1l4,4h1l1,1v1l1,1h1l4,4h1v1l2,2h1l1,1v1h1l1,1"/>
<path class="sl" d="M226,82v-1h2l3,-3h2l4,-4h2l3,-3h2l2,-2h1l1,-1h1l2,-2h1l1,-1h1l2,-2h1l1,-1h1l1,-1h1l1,-1h1l1,-1h1l1,-1h1l1,-1h1l2,-2h2l2,-2h2l2,-2h2l2,-2h2l1,-1h1l1,-1h1l1,-1h1l1,-1h2l2,-2h2l1,-1h1l1,-1h1l1,-1h2l1,-1h1l1,-1h2l1,-1h1l1,-1h2l1,-1h1l1,-1h1l1,-1h2l1,-1h2l1,-1h1l1,-1h2l1,-1h2l1,-1h2l1,-1h2l1,-1h2l1,-1h2l1,-1h2l1,-1h2l1,-1h2l1,-1h3l1,-1h2l1,-1h3l1,-1h2l1,-1h4l1,-1h2l1,-1h3l1,-1h3l1,-1h3l1,-1h4l1,-1h1h-1h1h-1h4l1,-1h1h-1h4l1,-1h4l1,-1h4l1,-1h5l1,-1h7l2,-1h4l1,-1h1h-1h7l1,-1h1h-1v1h-1h1h-4v1h-9v1h-1h1v-1h1v1h1h-7l-2,1h-1h-2l-1,1h-6v1h-7v1l1,-1h7l1,-1h1v1h-4v1h-5v1h-4l-1,1h-6v1h-1h1v-1h3l-1,1h-3l-1,1h-4v1h-3l-1,1h-2l-1,1h-3v1h-2l-1,1h-2l-1,1h-2l-2,2h-2v1h-1h1l-1,1l2,-1h2l1,-1h1l-2,2v1h-1l-1,1h-1h2v-1v1l1,-1l6,-1h4l2,-1h2v1h10l1,1h-1h3l1,-1h10l-2,2v1l-1,1h-1v1h1v1h1v1h-1h3l1,1h1v1h-2l-1,1h1l1,-1h3l1,1h1l-1,-1h1v-1h3v1l1,-1h1v-1h-1h1v-1h2v-1h1h-1h1h-1v-4h1h-1l1,-1h-2v-1h4v-1h4l2,-1h1l2,-1h2v-1h2v-1h1l1,-1v-2h-2v-1h-3l1,-1h2l1,-1h2v-1h1h-1l1,-1h-1h1h-1h1v-1h1h-1v-1h2l1,-1h15v-1h1v1h7l-1,1h8v1h-1l1,1h-1h1v1h-4v1h3l1,-1h4l1,1h-1v1h-1h1l1,-1h2v1v-1h5v-1h3v1v-1h1h-1h3v-1h-1h1v-1h2v-1h2l1,1h-1h3v1h-1h1h-1l1,1l1,-1h1v1h1l-1,1h-1h4v-1h1v1h-1h2l1,1h1h-3l1,1h5v1h-2l-1,1h3v1h5v1h1h-1v1h-1h1l1,-1h2l1,1h-1v1v-1h5v1h7v1h-5v1h-8v1l-1,-1l1,1h-1h1h-1h4l1,-1h7l-1,-1h-1h5l1,1v1h-1h7l1,1h1l-1,1h1v1h-1h2v1h-1l-1,-1v1h2l-1,1h-3l-2,1h-9l-4,2h-1l-1,1h-38v1h-2l-1,1h-1v1h-6l1,1h-3l-1,1l-2,1h-1l-1,1h-5l-4,-1l1,1h6v1h-1v1h-2l-1,1l-2,1h-2l-1,1h-1l-2,1h-3l-1,1h-2l-1,1h-2l-1,1l-2,1h-2v1h-1l-1,1h-2l-2,1h7l2,-1h10l1,-1h2l1,-1v1h1v-1h1l1,-1h1v-1h1v-1h1v-1h1v-1h1l2,-2h1l1,-1h1v1h7v6h2v1h-1h2l1,1h-1l1,1h-3l-1,1h-2l-1,1v-1h-2l-1,1h-1v-1h-1v1l-1,1h-2l-1,1v-1v1h-1v-1v1h-3l-2,2h-1l-2,2v1h1h-1l-1,1h-1l1,1h1l1,1h-1h1v1h3l1,-1h-1v-1h-1h1l1,1v1h-4l-1,1v-1l-2,1h-1v-1h-2v1l-1,1h-6l-2,1l-1,-1v1h-2l-2,1h-1l-1,1h-1l1,-1v-1h-1h1v1h-1v1h-1v1h-1v1h1v2l-1,1v-1h1h-1v1h-1l-2,2h-1l-2,2v-1h-1l-1,-1h-2v-1h1v-1h2l1,-1l-1,1h-2l-1,1v1h1v2h1v2h1h-1v1v-1v1h-1l-3,3v1h-2v1l-1,1v-1l1,-2h1v-1h1h-2l1,-1h-1h1v-1h-3v-1h2l-1,-1h-1v1v-1h1v-1l-1,1v-1h2v-1l-1,1v-1h1l1,-1h1h-1h1h-1l1,-1h-1v1h-2v1v-1v1h-1v1h-1v3h-1v-1v1l1,1h-2l-1,-1v1l-1,-1h-1l1,-1h1v-1l-1,1h-1v1h-1v1h1l1,-1v1h2l1,1h2v1h-2l-2,-1h-1v-1h-1l1,1h1v1h1v1h2v1h-2l-1,-1v1h1v1h2l-1,1h-1v-1h-1l-2,-1l-2,1h4v1h4l1,1v2l1,2l-1,-1v-3h-1v2l1,1h-1v-1h-1l-1,1h-2v1h-1v-1h-1v1h5l-1,1h1v-1h2v1h-1l-2,2h-3v-1l-1,1h-1l-1,-1v1h3l-1,1v1h-2l-1,-1v1h5l-1,1h-3v1h-4v1h-1l-1,1h-1l-1,1v1h-1l1,-1l-1,1l-3,1h-1l-2,1h-1l-2,2v1l-1,-1h1h-1v1l-1,1h-1l-1,1h-2v1l-1,1h-4v1h1h-1v1h-1v-1v1l-1,-1v1h1l-1,1h-1v1h-2v1h1h-1v1h-1v1h-1v2h-1v-1v2h-1v4l1,2v2l3,5v1l-1,1l1,1v1l-1,-2l1,-2h-1v1v-2h-1v2l1,1l2,6v1h1v3l-2,4l-1,1v1l-1,1v1h-2l-1,1h-3v-1l1,1v-1h-1v-1l-1,-1v-1h-3v-3h-1l1,-1v-1v1h-1v-2h-1v1h-1v-1h-1l-1,-2v-1h1l1,-1v-1h1l-1,-1v1l-1,-1v2h-1v-1h-1l2,-2l1,-2v-3l-4,-2l-2,-2l-2,-1h-2v1h-2l-2,1l-1,1h-2l-2,-2v-1l-1,1h-1l-2,-1h-1h1h-3l-2,1h-1h1v-1h-1v1h-1l-2,1l1,-1l-1,1h-1l-2,1l1,-1v-2h-1v1l-1,1h-1l-3,1h-2l-2,1v-1v1h-1l-1,1h-3v-1h-1l-2,2h3l1,-1h1v1h-1h2v-1h1v2h-2v1h-1v1h3v1h1l-1,1h-2v1v-2h-2l-1,-1h-1v2h-1v1h-1v-1h-2l-1,1h-3l1,-1h-1v-1v1h-2v-1h-1v-1l-1,1h-1v1h-1l-3,1h-1l-1,-1h-2v1h-3v-1l-1,1v1h-1l-4,2l-1,1v-1l2,-1h-1l-1,1l1,-1v-1l-1,1h-1l-1,1h1v1l-1,1h-1l-2,2l-3,2l-1,1h-1l-1,1h-1l1,-1h1h-2l-1,1v-1h-1v1h1l-2,2l-1,-1v2h-3v1h1l-1,1h-2v1l-1,2v1h-2v-1v1h1v2h-1v5h1v1l-1,1l-1,2l-2,2l-3,6l-1,3l-1,1l-1,3v3h-1v1l-1,1v3l1,2l1,1v1l-1,1v-1l1,-1h-1v-1l-1,-1v3h1l-1,1l1,1v3h1l3,5v3l2,2v1h1h-1h1l1,1v-1h-1h4l1,1h2v1l1,1l1,-1h1l3,-1l2,-2h3l2,-1h1v-1h1l1,-1h3l1,-1l1,1h-1v1h3l2,-2v-2l-1,1v-1l3,-1l3,-3l1,-2v-1l1,-1h1v-4l1,-1v-1l2,-2l3,-2l7,-2h1l2,-1h1l1,-1h8v-1v1h-1v-1h2l1,1h1l-1,1l1,1l-3,3l-2,1l-1,2l-1,1v2l-2,2h2v1h-1l-1,1h1l-2,4l-1,1v2l-1,1l-1,-2v-2l-2,2v1h-1l1,1v-1h1v2l-1,2v1l-1,1h1l-1,1v3l-1,3l-5,5v1h2v-1l3,1h1v-1h1l2,-1l1,1l1,-1h8l2,-2h1v-1h2l2,1l2,-1h4l1,1h1v-1h1l4,2v1l-2,-1h-1v1h2l1,1h2v-1h1v2h1v1l-1,1v-1l-1,1h1l1,3h-1v1l-1,1v1l-2,5v6l-1,1v-2l-1,1v1h1v1h-1v1l-1,1v1h1v1l-1,1v1l-1,1v1l1,1v1h1v1l1,2l5,5v1h2l1,1v1l1,1l1,-1v1h-1v1h1l1,1l1,-1h1v-1h-1h1l2,2h4l2,-1l2,-2l4,-1l3,-3h1v-1h2l1,1l1,-1l1,1h4l4,1l2,1l3,3v2l1,1v1l1,1l-1,1h-1v1l-1,2h-1v-1h-1v1l-1,1v1h-1l-2,-2l-1,-2v-2h1v-1l1,-1h1v1h1l-1,-1v-1h-1l-1,1v-1h-1v1h-1v-2l-1,-1h-2l-1,-1h-5v1h-1v1l-1,1h1l-4,2v1h-2v2l3,3v1h-1l-1,1h-1v1h-1l-1,1h-2v-2l-1,-2v-1h-1l-1,2h-1l-1,-1l-1,-2h-1v-1h-4v-1l-1,1h-3l-1,1v1l-2,-2v-2h-1l-1,-1l-1,1h1v1h1l-1,1h-2v-1h-1l1,-1v-3l-1,-1h-1l-2,-1l-1,-1h-3v-2l-3,-2h-1v1l2,1l-1,1v1h-1l-1,-1h-3v-1l-1,-1v-2l2,-2v-1h-2v-1l1,-1v-1l-1,-1l-4,-2l-1,-2l-2,-2l-2,-1l-2,-2l-2,-1l1,-1h1v1h1v-2h-1v-1l-1,-1l-1,1h-1v1l-1,1h-3l-1,-1h-1v1h-2l-3,-1h-4l-1,-1h-1l-2,-1l-5,1h-2l-2,-1l-1,-1l-3,-1l-2,-2l-1,-2l-1,-1h-1l-1,-1l-2,-1l-3,-3h-3v1h3h-5l1,-1h-2l-1,1h1h-1l-1,1l-8,5h-2v1h-2l-3,-1h-4l-2,-1h-3l-1,-1h-6l-2,-1h-2l-3,-1h-1l-1,-1h-1l-2,-2h-10l-1,-1v-1l-2,-2h-3l-2,-1v-1l-2,-2v-3l1,-1h1l1,-1v-1h-1v-1h1l1,-1v-1l1,-1v-1l-1,-1v-7h-1v-1l-2,-2v-1l-1,-2l-3,-2h1l1,-1h-1v1h-1l-1,-1v-2h1v-1h-3v-1h-1v1l-1,-1h1l1,-1l-1,1h-2l1,-2l1,-1v-1h1v-2l-1,-1l-1,1v-2h-2v-3l1,-1h-1l-1,1v-1h-1v-2h-1v-2h-1v-1l1,-1h-1l1,-1v-7h1v-1h1v-1h-2v-1h-1v1h-1l-1,-1h-1v1h-1v1l-2,3v2l-1,1l-1,2v2h1v1l1,1v1h-1v1l1,-1v3h1l-1,1h1l-1,1v2l1,1v3h1v4l-1,1v2h1v1l-1,1l1,1v1l-1,1v3h1h-1h1v-1h1v-1l1,1v3h1v1l-1,2l-3,3h-1v-1l1,-2h-1v-1l-2,-2l-2,-1v-1h-1v-1h-1v-1l1,-1l1,-2v-2h1v-3h-1l-2,-1v-1l1,-1l-1,1h-1l-1,1v-1h-3v-1h1l-2,-2l1,-1h2l1,-1v1h1h-1l1,-1h-1l1,-1l1,-2l1,-1v-1l-1,-2v-1h-1l-1,-1v-2l1,-1v-1h-1h1v-1l1,-1h-1v-1h1v-4h1l-1,-1l1,-1v-2l1,-1v-1l1,-1l-1,-1v-1h-1v1h-1l1,-1v-1l-1,1h-1v-1h-1v1h-2l-1,1v-2h1v-1l1,-1h-1h1v-4l1,-1v-1h1l1,-1v-1h-1l2,-2v-1h1v-1v1v-1h1v-1h1v-1h2v-1l-1,1h-1l-2,2h-1l2,-2h-1l2,-2l1,-2v-1h1v-1h1v-2h1v-1h1l1,-1v-1l2,-2l2,-1l1,-1v-1h1v-1l3,-3v-1h1l3,-3h1h-1l1,-1h1v-1l2,-2l2,-1l2,-2l4,-3v-1h1l4,-4h1h-1l-1,1l1,-1h1v-1v1v-1h1v-1l2,-1h-1v1v-1h1l4,-4h1v-1h1l2,-1h1h-1h1v-1h1h-1v1h-1l-1,1l-2,1v1h-1h1v-1h1l1,-1h1v-1h1h-1v1h-1l-2,2h-1h1h-1v1h-1h1v-1h1l1,-1h1v-1h1v-1h1l1,-1h1v-1l-1,1l1,-1h1v-1v1v-1h1v-1h1h-1h1v-1v1h-1h1v-1h1l1,-1h-1v1v-1h1l1,-1l-1,1h-1v1h-1l1,-1h1h-1h1l1,-1h-1v1h-2v1v-1h1l2,-2h1v-1h1l-1,1h-1v1h-1l-1,1h-1l-1,1h1v-1h1l1,-1l-2,1h1v-1v1v-1h1h-1l-1,1h-1h2v-1h1l1,-1h1v-1h1l1,-1l-1,1h-1v1h-1l2,-2h1l1,-1ZM220,86l1,-1Z"/>
<path class="sp" d="M226,81h2l3,-3h2l4,-4h2l3,-3h2l2,-2h1l1,-1h1l2,-2h1l1,-1h1l2,-2h1l1,-1h1l1,-1h1l1,-1h1l1,-1h1l1,-1h1l1,-1h1l2,-2h2l2,-2h2l2,-2h2l2,-2h2l1,-1h1l1,-1h1l1,-1h1l1,-1h2l2,-2h2l1,-1h1l1,-1h1l1,-1h2l1,-1h1l1,-1h2l1,-1h1l1,-1h2l1,-1h1l1,-1h1l1,-1h2l1,-1h2l1,-1h1l1,-1h2l1,-1h2l1,-1h2l1,-1h2l1,-1h2l1,-1h2l1,-1h2l1,-1h2l1,-1h2l1,-1h3l1,-1h2l1,-1h3l1,-1h2l1,-1h4l1,-1h2l1,-1h3l1,-1h3l1,-1h3l1,-1h4l1,-1h3M399,10h4l1,-1h4l1,-1h4l1,-1h4M420,6h5M435,4h6l1,-1M221,85l2,-2h1l1,-1h1M220,86l1,-1"/>
<path class="sl" d="M603,306l1,-1v-1h1l2,2l2,7v1l2,4v2l1,2l1,1v1l1,1h2l2,2l1,2l-1,1l1,1h-2v1l-2,1v1l-4,4h-2l-1,2h-1v1l-4,4v2l-2,2v1h-2l-3,1h-1l3,1h3l3,-1l1,-1l4,-2l1,-1l1,1l-1,1l1,1v2l1,1v2h1l1,2l1,-1h1l1,-1h1v1h3l2,-1v2l-2,4v1h1v-1l1,-1l1,-3l1,-1h1l3,-3h1v1l1,1v-1h1l-1,-1v-2l1,-1v-1l1,-1h1v-1l1,1l1,-1l1,1h1v-1l1,1v-1h2v1h1l1,1h2l1,1v1h2l1,1h2l3,3h2l1,2v1l1,-1v-1h1v1h1l1,1v1h1h-1h1l1,1v2l-1,1v1l1,-1h2v1h-2v3h-1v4l2,-2l1,-2v-1l1,-1l1,1l-1,1v1l2,-1h1l1,-1h2l1,-1l1,1l2,1h1l2,1v1l3,1h3l1,1h1l1,1h10l4,2l3,3l3,2l2,2l2,1l2,2l1,3l3,3l3,2l1,2h2v1h1l1,1h2l2,1l1,-1l3,2h1v1l2,3v5l1,2v3l1,2v4l-1,1v5l-3,6l-1,3l-2,2l-2,1h-1l1,1h-1l-1,2l-2,1l-1,2l-2,1h-1l-3,3h-1v1l-1,2v-2l-1,2v2l-2,3l-3,3v1l-3,3h-1v-2l-1,-1l-1,1h-1h1v1l-1,1v1l-2,2v1l1,1h-1v3h1l-2,6v10l-2,6l-1,2v2l-1,1v5l-2,2h-1l-1,2l-1,3v2l-1,4v1l-1,1v1l-1,1l-2,1l-1,2v1l-1,1v1l-2,2h-1l-1,1v1l-2,4v1l-1,2v1l-1,1l-3,1h-1l-3,2v2l-1,1h-7v-1l-1,-1h1v-1h-1l-1,1l1,1h-2l-1,1h-3v-1h2l-1,-1h-2l-1,1h-4v1h1v1h-3l-2,2h-1l-1,1v1l-1,-1h-3l-6,2l-2,1l-2,2l-4,2l-2,2h-1v1h1h-1v1l-2,1v-1h-2v1h-2v1h2v1l-1,2h-1l1,1l-1,2h-1v1l1,1l-1,1v4l1,1l-1,1v5l-1,2v1l-2,2v1l-1,1l-3,1l-1,2l-3,2l-2,4l-3,5l-3,4l-1,1l-1,2l-2,2l-2,1l-3,2l-2,2v-3h3l4,-4v-2h2v-1l2,-2v-2h1l1,-1v-1h-1l-2,1h-1v-1h-1v-2h-1v2l1,1l-1,1v2h-1v1l-1,1v1l-2,1l-1,1h-1v2l-2,2v3l-1,1v1l-3,6l-1,1l-2,1l-4,4v1l-5,5h-1l-1,1l-4,1h-2l-1,-1l-2,-1l-2,1h-3l-1,-1l-3,-1l-2,-2h-5v-1l-2,-2l-1,-2v-6h1l1,-1v-1v1h-2v2l-1,3v3l1,1v1h-1v3l1,1l4,2l1,1l2,1l1,2v1l-2,2v2l1,1l1,2h2v5l-5,7l-1,1v1l-1,1l-4,2l-6,2l-4,1l-10,1h-6l-1,-1h-2l1,1v2h1v1h1h-1v4l-1,1l-1,2v2l1,2v1l-1,1l-3,1l-1,1h-5l-6,-3h-1v-1h-1l-1,1v4l1,2v5h2l1,1v1h3v-1h-1v-1h4v5l-3,1l-1,-1v-1l-1,-1h-2l-1,1h-1v1l3,1h2l-1,1l-2,1h-1l-1,1l-1,2l-1,1v1l1,2l-1,1l1,1v1h-1l-2,2v1l1,1v1h-1l-3,-1l-2,2l-2,1l-2,2l-1,2l-1,1v3l1,1v1l4,3l1,1h5v5h-1l-1,1h2v1h-1v1l-2,2h-1l-1,1l-2,1l-2,2l-1,3v4l-2,2h-2v-1l-1,-1v1h-1h1v1h1v1h-2l-1,1v4l-1,1l1,1v1l1,1v1h-2l1,1h1l2,2l1,2h1l-1,1l-3,-1h-2l-1,1v1h-1l-3,1h-1v1h-1v8h-3l-1,-1h-2l-1,-1v-1h-1l1,-1h2v2h1v-2l2,-2v-1l-1,-1l-3,3h-1l-1,1v2l-1,-1l-2,-1l1,-1l-1,-1v-1h1v-1l1,1h1l1,-1h3v-1h-4l-1,1v-1h-1v1l-1,1v2h-2v-1h-1l-1,-1h2v-1h1v-1h-1h1l-1,1h-4v-2h-1v-1h-1v-1h1v1h2v-1h3l1,-1h1l1,1v1h1v-1l-1,-1v-2l-1,-1l-2,-1h-1l1,1h2v1h1v1h-2l-2,2h-1v-1l-1,-1h-2l-1,-1l1,-1v-2h-2l-1,-1h-2l-2,-2v-1h2v-1l-1,-1h3v1l1,2l2,1v-2l1,-1h-1l1,-1h-1v2l-1,1l-1,-1v-2h1h-3v-1l-1,-1l1,-1h2v-1h-1l-1,-1v-1l1,-1l1,1h1l-2,-2v-1h-1v2h-1v-3l-1,-2v-2h1v-1h1h-3v-2l-1,-1h5l2,1v-1h-1v-1l-1,-2v1l-1,1h-3v-1h-1v-2l1,1h1v-1h-1l-1,-1h1l1,-1v-1h-1l1,-1l-2,-2l-1,1h1h-2l-2,-1v-1h-1l-1,1h-1v1h1v1h-1l-1,-1v-1l2,-2l1,-2h1v-1h-1v-1l2,-1h2l1,-1h1l-1,-1v-1h2v1l-1,2v2l-1,1h-1h2l1,-1v-2h1v4l-1,1v1h1v-1l1,-1v-5h-1l-1,-1v-1h2v-1h1l2,1v-1h-1l-1,-1h-1v-2h1l1,-1l2,-1v-2l-1,-1h-1l-1,-1h-1v-2l1,-1v-2l-1,-1v-1l1,-1v-1h1v-2h-1v-3h1l-1,-1v-1h2v2l1,-1l-1,-1v-2h-3l1,-1v-1h1l1,-1v-1v1l-1,1l-1,-1h-1v-1h-1v1l-1,1v1h-4v-1h1v-1h-1l-1,-1v-1l-1,-1v-2l1,-5v-3l1,-1h1v-5l-2,-5v-1l-1,-1l1,-2v-1l-2,-2v-5l2,1v-1h1v-4h1v-3l1,-3v-1l1,-1l-1,-1l1,-1v-1l1,-1l1,-2v-1l1,-3v-5l1,-1l1,-2v-1l-1,-1v-3h1v-1l1,-2l-1,-1l1,-2l-1,-1v-4l-2,-5v-3l-1,-2l3,-6v-4l-2,-2v-3l1,-1l1,-2v-4l1,-2v-2h1v-6l1,-3v-6l-1,-1l1,-2l1,-1v-2l-1,-3v-9l1,-1v-1l-2,-2v-2l1,-1h1v-1l1,-3v-8l1,-1v-1l-1,-1l-1,-6l1,-3l-1,-5v-2l-1,-1v-6l-1,-2l-1,-1l-3,-2l-1,-1h-1l-2,-2l-1,-2v-1h-1l-2,-1h-1v-1l-2,-1l-1,-1h-1l-1,-1l-2,-1h-2l-6,-3h-1l-5,-3l-1,-1l-5,-2l-4,-4l-2,-1l-2,-2l-1,-2v-1h-1l-1,-2v-1h1v-4l-3,-3v-2h-1l-1,-2l-2,-2v-1h-1v-1l-1,-1v-2l-1,-1l-3,-2v-2l-4,-7l-1,-1l-1,-2v-2l-2,-4l-1,-1l-1,-2v-1l-2,-2v-2l-2,-1l-1,-1h-1l-1,-4l-1,-1l-1,-2l-3,-3l-8,-4h-1v-2h2v-3l-2,-3v-2l-2,-2l1,-3v-1l6,-6l2,-1v-1h1v-1h1v-1h1l1,-3v-3l-1,-2v-1v4l-1,1v-2l-2,2v1h-1l-1,-1l-2,-1l-1,-1h-1v-1h1l1,-1v-2l-1,-2v-3l-1,-1l1,-1l2,-1l1,-2v-1l1,1h1l-2,-2l1,-2l3,-3v-2l-1,-2v-1l1,-1h1l1,-1h1l1,-1l5,-2h1v-2h-1l-1,-1l2,-2l2,1v-6h2v-1h3l1,-1v-1h1l1,-1l-1,-1h1v-1h1v-1l2,-2v-1l2,-3h-1v1l-1,-1v-1v1l-1,-1v-1h-1l2,-2v-7l-1,-1h-1l3,-3l-1,-1l-1,-2h1v-3l-4,-4v-2l1,-1v-1h1v1h1l1,-2v-1h1l1,-1l-1,-1v-1l-1,-1v-2h1v1l1,1l2,1v1h1h-1v1h2l-1,-3v-1l-1,-1h1l1,-1l4,-2l1,-3h1l1,-1h2l1,-1l-1,-1v-1l1,-1v-2h-1l1,-1l1,-2l2,-1v-1h1l2,-2h5l-1,1h-1l1,1h1v-1l1,-2v-1h4l3,-1l8,-4h1l1,-2l1,-1h1v-1l2,-1h2l2,1l1,1v1l-1,1h-1v1l-1,1h-3l-1,1v1l1,2l1,1v1l1,1v1l-3,3v1l-2,2l1,1v1l1,1h1v2l1,1h1l2,-1h1v-1l1,-1v-3l-1,-2v-1l-2,-1v-2h-1v-1l1,-1v-1h2l4,-2h2l3,-1v-1h1v-1l1,1h1v-2h-1l-2,1v-1l-1,-1l1,-1v-1h3v2l1,1v1l1,1h1l2,-1l2,1h1l4,2l1,1v3l1,1h3l2,-1h5l6,-1l2,1v1l2,1h1l2,1h1l2,1l1,-1h1l6,-2h3l1,-1h-4l-1,-1h12l2,-1l4,1l3,-1v1h-3l-1,1h-4v1h1v2h1v-1v1l1,2l1,1l1,-1h1h-1l1,-1h1l1,1v1h1v1v-1l1,-1h1l2,2l2,1h2v2h-1l-1,1v2l-2,2h-2l1,1h3l2,-1h7v1l2,1h1l4,2l4,3v1l2,2v4l-1,1v3l1,-1v-2l1,-1h3l2,2l2,1l3,3h1v2h1l1,-1l4,1h2l2,1l1,1v-2h9l4,1h2l1,1v1l-1,1v1l1,-2l1,-1l4,2l5,1l1,2l2,2l2,1v1v-1l3,3v1h-1h1v-2h1v1l1,2v1Z"/>
<path class="sl" d="M909,212v1l2,2v1l3,3v1l2,2v1l1,1v1l3,3v1l2,2v1l1,1v1l2,2v1l1,1v1l2,2v1l1,1v1l1,1v1l1,1h1v1l1,1v1l1,1v1l1,1v1l2,2v1l1,1v1l1,1v1l1,1v1l1,1v1l2,2v1l1,1v2l1,1v1l1,1v1l1,1v1l2,2v1l1,1v1l1,1v2l1,1v1l1,1v1l1,1v2l2,2v1l1,1v2l1,1v1l1,1v1l1,1v2l1,1v1l1,1v2l2,2v2l1,1v2l1,1v1l1,1v2l1,1v2l1,1v2l1,1v1l1,1v2l1,1v2l1,1v2l1,1v2l1,1v2l1,1v2l1,1v3l1,1v2l1,1v2l1,1v2l1,1v2l1,1v3l1,1v3l1,1v2l1,1v4l1,1v4l1,1v3l1,1v3l1,1v4l1,1v4l1,1v4l1,1v4l1,1v5l1,1v5l1,1v6l1,1v8l1,1v8l1,1v9l1,1v16l1,1v43l-1,1v16l-1,1v10l-1,1v9l-1,1v7l-1,1v5l-1,1v6l-1,1v4l-1,1v5l-1,1v5l-1,1v4l-1,1v3l-1,1v4l-1,1v3l-1,1v3l-1,1v3l-1,1v3l-1,1v3l-1,1v2l-1,1v3l-1,1v2l-1,1v3l-1,1v2l-1,1v2l-1,1v2l-1,1v2l-1,1v2l-1,1v2l-1,1v2l-1,1v1l-1,1v2l-1,1v2l-1,1v2l-1,1v1l-1,1v2l-1,1v2l-1,1v1l-1,1v2l-1,1v1l-1,1v2l-2,2v2l-1,1v1l-1,1v1l-1,1v2l-1,1v1l-1,1v1l-1,1v1l-1,1v1l-1,1v1l-1,1v2h-1v1v-1v1h-1v1l-1,1v1l-1,1v1v-1v1l-1,1l-2,4l-1,1l-1,3l-1,1l-2,4l-1,1v1l-4,4l-1,2l-1,1l-1,2l-1,1l-1,2l-2,1v1l-2,2l-2,1l-1,2h-1l-2,2h-1l-1,1v-2h-1l-1,1l1,-1h-2l1,-2v-2l-1,-1l1,-1h-1l-2,1v-2h-1v-1l-2,1v-2l1,-1v-3h1v-2l-1,2v-1l1,-1v-1h1v-1h1v-1l1,-2v-1l1,-1v-1l1,-1v-1l1,-1v1l3,-3v-2l2,-2v-1l1,-3l2,-3l3,-8l3,-6l2,-7l1,-1v-4l1,-1l2,-6v-1l2,-4v-1h1v-3l2,-3v-2l1,-1l3,-6v-2l1,-3l1,-2l1,-3l1,-1v-2l1,-1v-1l1,-1v1v-2l1,-2l1,-3v-4l1,-1l1,-7l2,-6v-2l2,-10v-5l1,-2v-3l1,-2v-2l1,-2l1,-3l1,-1v-2l1,-4v-1h1v-1l1,-1v-2l2,-4l2,-5v-2l1,-3l2,-2v-2h1l1,-1v-1l1,-1l1,-2v-3l1,-4v-6l1,-1v-12h1l1,-1v-25l1,1h1v-1h-1l-1,-1v-4h1v-5h-1v-9l-1,-2v-4l-1,-2v-4l-1,-3v-3h-1v-7l-1,-2v-2l1,3v-2l-1,-1v-4l-1,-3h1v1l1,-1v-4h1v1h1l-1,-1v-1l-1,-1v-2h1v1v-4l-1,-1v-3h1v-14l-1,-2v-5h-1v1v-1l-1,-1v-3l-1,-1v-1l-1,-1v-2l-1,-2v1l1,2v1l-1,-1h-1v-2h-1v-1l-1,-1l1,1v1h-1v-2l-1,-1v1h1v2h-1v-1v1v-1h-1v-1v1l-1,-1v-1l-1,-2v-1l-1,-1v-5l-1,-1v-1h1h-1v-1v1v-2h-1v-3l-1,-2l-1,-1l-1,-2l-2,-1v-1h-1l-2,-1l-1,-1h-2l-1,-1h-1l-1,1v1h-1l-1,-1h-2l-1,1h-5l-1,1l-1,-2l-4,-4h1l-1,-1v-1v1l-1,1l-2,-3l-1,-1h-1l-1,-1v1l2,1l-2,-1h-1l-2,-2h-1l1,1h1l-2,-1h-3l-2,1h-3l-1,1l-4,-4l-5,-6l-1,-2l-2,-3l-3,-6l-1,-1h-1l-1,-1v-2l-3,-3l-1,-2h-1l-1,-2l-4,-4v-3h-1l-2,-2v-2l-2,-2v-1h2v-1h-2v-2h1h-1l-1,-1v-2l-1,-1v-1l-2,-2v-2l-2,-2v-1h-1l-2,-2l-1,-3v-1h-1v-2h-1v1h-1v-3l-1,1v-2h-1v-2h-1v-1h2l-1,-1l-1,1l-1,-1v-1h3l-1,-1v1l-1,-1h-1l-1,1l-1,-1v-1h-1l-2,-2l1,-1h-2l-1,-2h-1v-1h2l-1,-1h-1v-3h-1v-3h1v1l1,1h1v-1l1,1h1l-2,-1h-1l-1,-1v-1l-2,-2v-1h1h-1v-1l-1,-1l-1,-2l-1,-1v-1l-1,-1h-1l-1,-1h2l1,-2l1,-3v-1l-1,-3v-4l1,-2v-2l-1,-3v-2l-3,-6l-1,-1l-1,-2v-4l-1,-1v-1l-1,-1l-1,-2v-1v1h-1l-2,-4h-1v1l-1,-3v-6h1v-8h-1v-1l1,-1l1,-2h1v-2l-1,-2v-4l-1,-2h1v-1h2v-5l-1,-1h1v-1h6v-2h1l1,-1v-5l-1,-1v-1l-2,-1v-1l-1,-1v-1l-2,-2v-4l-2,-2l1,-1v-2h3l1,-1l-2,-3l-2,-5h2v1l5,5h1l1,1h1l1,1h2v1h1v1h1v1h1l1,1h1v-2h1l1,1v-1h1l2,1l1,1l5,3v1h1l1,1v1h2l1,2v-1v1l2,2h1l1,1h-1h1v1h1v1v-1v1l4,4l1,2h1v1l2,2v1h1l1,1v1l3,3v1l1,1v1h1v1h1l1,2l1,1v1h1v1h1v1l-1,-1l2,2v1h1v1l1,1v1l3,3v1Z"/>
<path class="sp" d="M909,213l2,2v1l3,3v1l2,2v1l1,1v1l3,3v1l2,2v1l1,1v1l2,2v1l1,1v1l2,2v1l1,1v1l1,1v1l1,1h1v1l1,1v1l1,1v1l1,1v1l2,2v1l1,1v1l1,1v1l1,1v1l1,1v1l2,2v1l1,1v2l1,1v1l1,1v1l1,1v1l2,2v1l1,1v1l1,1v2l1,1v1l1,1v1l1,1v2l2,2v1l1,1v2l1,1v1l1,1v1l1,1v2l1,1v1l1,1v2l2,2v2l1,1v2l1,1v1l1,1v2l1,1v2l1,1v2l1,1v1l1,1v2l1,1v2l1,1v2l1,1v2l1,1v2l1,1v2l1,1v3l1,1v2l1,1v2l1,1v2l1,1v2l1,1v3l1,1v3l1,1v2l1,1v4l1,1v4l1,1v3l1,1v3l1,1v4l1,1v4l1,1v4l1,1v4l1,1v5l1,1v5l1,1v6l1,1v8l1,1v8l1,1v9l1,1v16l1,1v43l-1,1v16l-1,1v10l-1,1v9l-1,1v7l-1,1v5l-1,1v6l-1,1v4l-1,1v5l-1,1v5l-1,1v4l-1,1v3l-1,1v4l-1,1v3l-1,1v3l-1,1v3l-1,1v3l-1,1v3l-1,1v2l-1,1v3l-1,1v2l-1,1v3l-1,1v2l-1,1v2l-1,1v2l-1,1v2l-1,1v2l-1,1v2l-1,1v2l-1,1v1l-1,1v2l-1,1v2l-1,1v2l-1,1v1l-1,1v2l-1,1v2l-1,1v1l-1,1v2l-1,1v1l-1,1v2l-2,2v2l-1,1v1l-1,1v1l-1,1v2l-1,1v1l-1,1v1l-1,1v1l-1,1v1l-1,1v1l-1,1"/>
<path class="sl" d="M524,263h-1v-1h1ZM498,247v2h-5l1,-1h3ZM486,249h-1ZM523,265h-1v-1l1,-1v1h1ZM490,195h-1ZM491,195h-1ZM490,199h2l-1,1h-2v-1ZM479,195h4v1l-1,1l-2,1h-10l1,-1v-1h-1v-1h1v-1h8ZM485,197h-1h2ZM465,198h-1v-1h1ZM442,68h-1h1l1,-1h3l-3,1h-2l-1,1h-4l-2,1h-3l1,-1h2v-1h7v-1h1ZM472,53h-2l1,-1v1ZM430,70h1ZM455,65l-2,1v-1h1ZM450,65v-1ZM458,66h-1l1,-1ZM416,93h-1ZM416,96h-1h1v-3l1,1l-1,1ZM414,96l-1,1h-1h1ZM408,100l2,-2h1l-2,1ZM359,150h-2v-1l1,1ZM358,149v1ZM369,157l-1,1l2,-2v-1h1ZM295,141h-1ZM257,158v-1l1,-1v1ZM259,156v-1h1l1,-1h1l-1,1ZM253,162l1,-2l2,-1v-1l-2,2ZM272,147v1l2,-2h1l-1,1ZM252,169v-6h1l-1,2v3ZM154,161h-1ZM157,164h-1h1v-1ZM154,161l1,-1v1ZM156,160l1,-1v1h-2ZM159,161h-1h1h-1ZM214,92h-1h1v-1h1h-1v1v-1ZM450,65h-1ZM430,74l-1,1ZM420,83l1,-1ZM408,100h-1v-1ZM362,161h-1v-1h1ZM367,158v1ZM364,160h-1h2ZM369,123l-1,1v-1ZM360,161h-1ZM373,143v1v-1l-1,-2v-1v1ZM358,162v-1h1v1ZM315,137h-1ZM318,133v1h-1v-1ZM321,133h-1ZM313,135h-1h1v-1ZM315,136v-1h1ZM342,133l-1,1v-1h3ZM211,95h-1l1,-1ZM211,94h1ZM215,91l1,-1ZM469,53h-1ZM659,834h-1l1,-1ZM631,796h1l1,1l-1,1h2v2h1l-1,1l1,1h-2v-1l-1,-1v-1h-1v-1h-1v-1l-1,-1h-1l1,-1h-2h3v1ZM907,546v-1l1,1ZM875,459v-1v1h1ZM88,631v-1ZM505,196h-1ZM526,766h2v2h1v-1h2v2h-1l-1,1h-1l-1,1v1l-3,-1v2l-1,-1v1h-1l-1,-1l1,-1v-1l1,-1h2l-1,-1l1,-1ZM518,767h2v-1l1,1h2v-1v1h1h-1v1h-1v1l-2,2h-2l-1,1h-2l-1,-1h2l1,-1h1v-1h-1l1,-1h-1v-1ZM514,769h1v1h-1ZM528,771v1h-1v-1ZM519,767h-1v-1h1ZM521,773h-1v-1h1ZM356,196h1ZM367,192l-1,1v-1ZM369,192h-1ZM492,109h-1l1,-1ZM494,194h-1ZM492,195h-1ZM494,193h1h-1l-1,-1h1ZM435,174v-1l-1,1v-1h1ZM433,173h-1ZM430,173l1,1h-1ZM512,207v-1ZM787,91l1,1h-1v-1h-1ZM784,89l1,1ZM751,68h1h-1l-1,-1ZM780,86l1,1h1l2,2h1h-1v-1h-1l-1,-1h-1v-1h-1l-1,-1l1,1h-1v-1h-1h1h-1l-1,-1h-1v-1h-1h1v1h1h-1l-1,-1h-1v-1h-1v1h1l-1,-1h-1v-1h-1l-1,-1h1l1,1h1h-1v-1h-2l-2,-2h-1l-1,-1h-1l-1,-1h-1v-1h-1v-1h-1l-1,-1h-1v-1h-1h1v1h1h1v1v-1h-1l-1,-1h-1l-1,-1h-1v-1h-1l-1,-1h-1l-1,-1h-1l-1,-1h1l2,2h1l1,1h1l1,1h1l1,1v1h1l1,1h1l2,2h1l1,1h1l1,1h1l2,2h1l1,1h1l4,4h1ZM749,66h-1l-1,-1h-1h1h-1l-1,-1h-1h1h-1l-1,-1h-1v-1h-2v-1l2,2h1l1,1h1l1,1h1l1,1ZM739,61h1ZM739,61l-1,-1h-1h1ZM737,60h1l1,1l2,1h-1l-1,-1h-1v-1h-1l-1,-1h-1v-1l1,1ZM734,58h-1v-1h-1h1Z"/>
<path class="sp" d="M780,86l1,1h1l2,2h1M750,67h1l2,2h1l1,1h1l1,1h1l1,1v1h1l1,1h1l2,2h1l1,1h1l1,1h1l2,2h1l1,1h1l4,4h1l1,1M740,61l2,2h1l1,1h1l1,1h1l1,1h1M739,61h1M737,60h1M735,58l2,2M732,57h1l1,1"/>
<path class="sl" d="M757,71l1,1h-1v-1h-1ZM731,57v-1ZM742,62h-1l-1,-1v1h1ZM735,58h-2v-1h-1l1,1h1ZM736,59l1,1h1h-1ZM737,60l-1,-1h1h-1ZM729,56v-1ZM726,54h-1Z"/>
<path class="sp" d="M725,54h1"/>
<path class="sl" d="M723,52v1h1h-1l-1,-1ZM726,54h-1v-1h-1ZM727,54h-1ZM747,66v-1h-2v-1h-2v-1v1h1h-1v-1h-2v-1h-1l-1,-1h-1h2v1h1l1,1h1l1,1h1l1,1h1h-1h1v1h1h-1h1ZM781,87l-1,-1h1ZM897,196l-1,-1ZM901,201v1v-1h-1v-1ZM524,247h1l1,-1v1ZM522,255l-1,1h-4l-1,-1l-1,1l2,-1v-1h1v-3h-1v-1h6l-1,1v2l1,1h-1ZM854,151v-1h-1ZM853,148h1v1h1v1h-1v-1h-1v-1h-1v-1ZM856,150l-2,-1v-1h-1h1l1,1v1ZM853,149v1l-1,-1v-1v1ZM823,177v2l-2,-1v-1h-1l1,-1v1h1l1,-1l1,1ZM835,179h-1v-1h1v-1v1l1,1ZM835,183h-1v-3h1v1l1,1v1ZM829,181v1h1v1h-1l-2,-2v-1ZM820,178h-1v-1h1ZM817,178v1l-1,-1h-1h1ZM815,174l-2,-2h2v1ZM835,867h-1h1v-1ZM886,336v1l-3,-3h1l1,1h1ZM973,434l-1,-1h1ZM971,443l-1,1v-3h1v1ZM521,232v1l-1,-1v-1h1ZM520,234v-1h1h-1ZM519,236h1ZM523,228h-1v-2h1ZM509,204h-1v-1h1ZM508,203h-1l-1,-1h2ZM804,149h2l1,1h-1l-1,-1ZM749,113h-1ZM707,93l-1,-1h1ZM733,102h-2v-1h-1h2ZM729,101h-2l-1,-1h-1l3,1ZM724,100h-1ZM727,101l1,1h-1l-1,-1h-1v-1v1ZM743,108h2v1h1h-2l-1,-1h-1v-1ZM370,275h-1v-1h1ZM347,285h-1v-1h-1v-1l1,-1v2h1ZM343,269l-1,1v-1ZM368,275v1ZM971,410v-1ZM37,687v1v-1h-1ZM461,240l-1,1v-2ZM506,201h-1ZM447,239h-1v-1h-1v-1l1,1ZM456,241h-2l-1,-2h1v1h2ZM314,194v1v-2h1l1,-1v1ZM184,214l-1,1v-1ZM152,243h-1l1,-1ZM169,199h-1v-1h1ZM167,177v1v-3h1v1h-1h1v1ZM154,188l1,-1v-1v1ZM172,176l-1,2l-1,-1l1,-2h1ZM143,188v-1h1v1ZM277,211l-1,1v-1l2,-1v1ZM171,203v-1ZM169,193l-1,1v-1ZM161,205h-1v-1h1ZM160,205l-1,-1h1l-1,-1l1,-1l1,-2l-1,3v1ZM846,236h-1v-1ZM1,537v1ZM10,588v1ZM388,199h3l1,1h3l1,2h-1l-1,1l-1,-1h-2l-1,1h-1l-1,1l-1,-1h-4v-1h-1v-1h-3l1,-1h1l1,-1h5ZM870,164h1v1l-1,-1v-1l1,1v1v-1h-1l-1,-1v-1h-1l-1,-1v-1h-1v-1h-1v-1h-1v-1l-1,-1h-1v-1l-1,-1l2,2v1h1l4,4v1l1,1Z"/>
<path class="sp" d="M860,153l3,3v1h1l4,4v1l1,1"/>
<path class="sl" d="M869,163l1,1ZM858,151l1,1ZM737,61l-1,-1ZM738,61h1l1,1h-1h2v1h2v1h1h-1v-1v1h2v1h2v1h1h-1h1l1,1h1v1h2v1h1l1,1h1v1h1l1,1h1h-2v-1v1v-1h-4v-1h-1l-1,-1h-1l-1,-1h-1h1h-1v-1h-1h1h-1v-1l1,1h1h-1v-1v1l-1,-1h-1v-1h-1l-1,-1h-1l-1,-1h-1l-1,-1h1h-1l-1,-1h-2v-1h-1h1l1,1h2v1h1h-1v-1h-1l-2,-1l-1,-1h1v1v-1v1h2v1v-1h-1h1ZM659,26h-1l-2,-1h-1l-1,-1h-2l-1,-1v1v-1h-3v-1h-3v-1h-1h1v1v-1v1v-1h-3l-1,-1h-2l-2,-1h-1h2v1h3l1,1h3l1,1h1l1,1h3l1,1h2l1,1h2l1,1ZM633,18h-1l-1,-1v1h1h-1h3Z"/>
<path class="sp" d="M640,20h1l1,1h3l1,1h1l1,1h3l1,1h2l1,1h2l1,1h1M631,18h3"/>
<path class="sl" d="M314,221l-1,1h-1h1l1,-1h1ZM318,220v1v-1h1ZM433,187v1l1,1l-1,1l1,1l-1,1v2l-1,1h-1v1h1l1,1v2l-1,-1h-6l-1,1h-1l-3,-1h-4l-1,1v1h-1l-2,-2h-2v-2h7l6,1h1v-1h2l1,-1l-2,-2l-2,-1h1v-2h1l-2,-1h-3l-1,-1v-1h2l2,-1l2,1h6l1,1ZM424,194v1l-2,-1h-1v-1h1ZM426,186h-2v-1h1ZM862,300h-1l1,-1ZM863,301v-1ZM864,300v-1ZM864,298v-1h1v1ZM863,298h-1v-1ZM861,294v1ZM516,241v-1l1,-1v2ZM808,108h1h-1v-1h-1h1ZM524,223h-3v-1h1h-1l-1,-2h2v1h1v1ZM519,210h-2l1,-1h-1l1,-1v1h1l1,1ZM517,212h-1v-1l-1,-1v-1h2v2ZM520,213h-1v-1h1ZM545,44h-1ZM544,44h-1v-1h1l-1,1ZM505,197h-1ZM507,199h-1v-1h1ZM21,629v1ZM24,632v-1ZM22,631v-1ZM25,632l1,1h-1v-1v1v-1h-1v-1h1ZM23,539h1l-1,1ZM23,541v1ZM25,544v1ZM20,535v1l-1,-1v-1h1ZM20,539v1ZM36,610v-1ZM21,534v-1ZM38,614h-1ZM37,613l-1,-1ZM47,604v-1ZM45,604v-1ZM49,628v-1ZM29,600v1l-1,-1ZM28,607h1h-1v1ZM24,605v1ZM25,610v1v-1l-1,-1ZM975,419h1v5l-1,-1v-3ZM358,367h-1v-2h1v-1h1l1,1l-1,1h-1ZM368,331h-1l1,-1ZM275,359v1l-1,-1v-2h2v2ZM282,359l-1,1v-1h1v-1l1,-1l1,1h-1v1ZM267,358l-1,1l-1,-1v-1h2ZM275,364h-1v-1ZM268,354v1l2,2v2h1l1,1l-1,2l-2,1h-2l-1,-1l1,-1v-1l2,-1v-1l-1,-1h-1v-2h-2l2,-2ZM273,356h-2v-1h2l1,1ZM433,199v-2l-1,-1h-1v-1h1l1,-1v-2l1,-1l-1,-1l1,-1l-1,-1v-1h1v-1h8l1,1h5l1,1v1l1,1l3,-1l1,1h-3v1h5l4,2l1,1l-1,1v1h-1l-1,1l-2,-2l-1,1l-2,-1l-1,1h-1l-1,-1h-1l-1,1h-1l-1,1h-3l-1,-1h-1l-1,1h-2v1l-1,2l-1,1v1h-1v-1h-1l-1,-1ZM520,217h-1v-1l-1,-1v-1l1,1h1v1ZM597,9h-1h1h-1h1v1h-1l-1,-1h-1h1h-6v-1h-1v1l-1,-1h-4l1,1h1h-1h1h-2l-2,-1l2,1h3l1,1h-1h1h-3l1,1h1v1v-1h-1l1,1h1v1h-1h1v1h-5v-1h1h-5v-1h-1h1h-4l-1,-1h1h-9v-1h1h-4l-1,-1h-3v-1h1h-5v-1h-1h1h-3l-1,-1h-3l-1,-1h1h-1h2v-1h-1h1l-1,1h-1v-1h-1v1h-2v-1h-1v-1h1l1,1h1h-1v-1h-9v-1h1h-1h1h-1h1h-1l-1,-1h-1h3l2,1h1h-1h1l-1,-1h-1h1l1,1h10l1,1h9l1,1h7l1,1h5l1,1h6l1,1h4l1,1h5l1,1h4l1,1Z"/>
<path class="sp" d="M527,1h11l1,1h10l1,1h9l1,1h7l1,1h5l1,1h6l1,1h4l1,1h5l1,1h4l1,1"/>
<path class="sl" d="M532,1h1h-2ZM538,2v-1h-1h1l1,1h-1v-1ZM593,9h-1ZM573,11h-1ZM356,171h2l2,-1h1v1l2,-1h3v1h5l2,2h2v1h1l2,-1h1l1,1v-1l4,2l1,1h3v1l1,-1h-1h1l1,1h1v1h-1h3l1,1h-1h5l1,1h4v2h-1v1l1,-1h5l1,1h1l1,1h3v2h-4l-2,1h-1l-1,1v-1l-1,1h-12l-1,1h-5l-2,1l2,-2l3,-2l1,-1l-1,-1h-7l-2,-2h-1v-2l-2,-2l-3,1l-5,-1h-3v-1h-1v-1v1h-5v-1h-1v1h-5l-1,-1l2,-1h1v-1h-8l-2,2h-1l-1,1h-1l-1,1h-1l-1,1h-2v1l-1,1h-1l-2,1h-1h1v-1h-2l-1,1l3,-2h1v-2l2,-2h1l6,-3l5,-1l2,-1h2ZM387,175v1v-1h-1h2ZM385,174l-1,-1h-1h2ZM380,172h3v1h-3ZM386,174h-1v-1v1ZM349,182h-1l-1,1h-2v-1h-1h2l-1,-1v-1h4v1ZM375,172h-1l-1,-1ZM934,377h-1ZM375,320h-1v-1h1ZM182,613l-1,1v-1ZM391,629l-1,1v-1ZM473,776l1,2v10l1,2v2h-5l-1,-1h-1v1h-1v-1l-2,1l-1,-1h-6v-1h1v-1l1,1v-1h3v-1h1v1l1,1h1v-1h-1v-1h-1l-1,-1v-2h1v-2l1,2v1h-1l1,1h1v1l1,1h1v-1h2l1,1v1h1v-2l-5,-1v-1l-1,-1v-1h1l2,-1l1,-1v-1h-3l-1,1l-2,-2v-1h2v-1h-1v-1h-1h4v-2h1l2,1l2,-1ZM483,794h-1v1h-1v-1h-3l-1,-1l1,-1h4l1,1ZM436,706l-1,1v-1l-1,1l-1,-1h-1v-2l1,-1v-3h-1v-3h1v-2l-1,-1h1l2,1h1v1l1,1v1h-1v1h1h-1v1h-1v1h1l2,2h-1v1l-1,1ZM438,751l1,2v5h-1v-1h-1v-3l-1,1v2h-1l-1,-1l-1,1v-2h1v-1h-1v-1h2v-1h-1v-1h1v-3h1l1,1h1ZM432,749h-1v-5l1,-1v1l2,2v2ZM444,779h1l1,1h2v1h2l1,1h-3v-1h-1v-1h-3l-1,-1h-1v-1h1v1ZM437,747h-1l-1,1v-1l-1,-1v-1h-1v-2l1,-1h1v1l1,1v1h1v1ZM452,783v1l1,-1h1v1h1l1,1h-1v2h-2v-2l-1,1v-1v2h-1l-1,-1v-1h-1v-1h-2l2,-2l1,1h1v-1h1ZM440,770v2h2v1l-1,1v1h-1v-1l-1,-1v-1l-1,-1h1v-1ZM470,792l4,1l1,-1h1v1l-1,1h2v1l1,1v1h-1v-1h-3v-2l-1,1l-1,-1v1l1,1h-2l-1,-1v-1l-1,1v-1h-1l1,-1v-1ZM460,786l1,1h1v2l-1,-1h-3l-1,-1h-1v-1h1v-1l2,1ZM437,715h-1v2h1v2h1v3h-2v-1h-1v-1l-3,-3l1,-1v-1h2v-2h2v1ZM442,717l-1,1h-1v-1l-1,-1h1v-2h2l1,1v2ZM430,719h-1v-1h1ZM436,763v1h-1v-2h1ZM434,749l1,1l-2,2h-1l1,-1h-1v-1l1,-1ZM433,742l-1,-1h1ZM431,709h-2l1,-1ZM438,718v-1h-1v-1h1v1ZM441,767v1h-1l-1,1l-1,-1v2h-1v-2h1l1,-1h1ZM437,760l-1,1h-1v-3h1l1,1h1ZM436,710v1h-2v-1h1ZM444,772h-1l-1,-1h1ZM435,725l-1,1v-1h-1v-1h1v-3h1v3h1v1ZM481,799h-2v-1h2ZM486,794h-1ZM463,792v1h2l1,-1l1,2h-3l-1,-1h-1v-1l-1,1v-1h1ZM482,798h-1v-1h1ZM797,239l-1,-1l1,-1l1,1v1ZM812,256l-1,1h-1v-1l-1,-1v-1h1v1h1Z"/>
<path class="sl" d="M799,241v-1h-1h1ZM813,248l1,1h1v1h-2v-1ZM806,256h-1v-2l1,1ZM805,243v1l-1,-1v1l-1,-1v-1l1,1ZM813,245l-1,1v-1ZM813,256v-1h-1l1,-1v1ZM216,89l2,-2v1h-1l-1,1v1v-1v1h-1l-1,1h1h-1v1h-2v1h-1l1,-1h1v-1h1h-1l-2,2h-1h1v-1h1h-1h1h-1l-1,1l1,-1h1l1,-1h-1h1h-1v1v-1h1h-1l-1,1l1,-1h1v-1h1l1,-1l-1,1h-1v1v-1h1l1,-1ZM424,7h7l1,-1l1,1h-1h1h-1l-2,1h-1v-1l-1,1h-1l1,-1h-1v1h-4l-1,1h-4l-1,1h-1l1,-1h-1l-2,1h-1v-1h4v-1h2l1,-1h5ZM515,46h2l-1,1h-1h3l1,-1h-1h1v-1h1v1h3v1h-2l-1,1h-6l-1,-1v-1l1,-1l2,-1v-1h4v1h-1v1l-1,1h-2ZM478,49h-1v-1h-1h1h-2v-6h-7v-1h-1l-1,1h-1l-2,2h-1v1h-1v1h-1v1h-1v1h-1l-1,1h-1v1h-1v-1l-1,1h-2l-1,1h-10l-2,1h-6l2,-1h1l2,-1h2v-1h1l1,-1l2,-1h1l2,-1h1l1,-1h4l1,-1h2l3,-1h1l1,-1h1l2,-1l1,-1h1l1,-1h2l1,-1h2l1,-1h2l2,-1h3l3,-1h12l1,1h1h-2l1,1v1h-3l-1,1h-4l-1,-1l-1,1h1v1h6v1h-1l-1,1h-1h3v1h-1l1,1h1v1h4v1h-1h1l1,1h14l1,1l-1,1h1h-2v1h-5l-2,1h-5v1h-2v-1h-1v1v-1l-1,1v1l-1,-1v1h-1l-1,1h-1l-1,1h-2v1v-1l-1,1h-1v-1h-3v-2l1,-1h-1h1l1,-1h1l5,-2h4l1,1v-1h4l1,-1h-9v1l-1,-1h1l1,-1h1h-1v-1v1h-2l-1,1h-1l-2,1h-3v-1l-1,1h1h-2v1l-1,-1l-1,1h-1v-1h-1ZM544,29h-3v1h2l-1,1h-1v1h-1v1h-2l1,1h-1v1l1,-1h2v-1h1v1l1,-1l1,1h1h-2l-1,1h5v1v-1h1v1h-1v1l1,-1h3v-1h1v1h5v1h-1v1h-1h1h-1h2v1h-1h5l-1,1h-3v1h1h-1v1h2l1,-1h1l1,-1v1l-1,1v1h1v-1h2v1l-1,1h1v1h-1v1h-1v-1h-1l-1,1v-1h-1v-1h-1l-1,1h-1v-1l1,-1v-1l-1,-1h-1l-2,2v-1h1h-2l-2,1v1h-5l1,-1h3l1,-1h2v-1l-1,1h-1v-1h-2v1h-4l1,-1h-14v-1l-1,1h-4l-1,-1v-1h2l1,-1h1h-3v-1h3v-1h3l-1,-1l1,-1v1h1l-1,-1l1,-1h1v-1l1,-1h1h-1h1v-1h1v-1h6ZM478,0v1h-1h1v-1v1h-1l1,-1h7v1h-1h23v1h-2v-1h-1v1h1h-4l-1,1h-1v-1h-10v-1h-1v1l-1,-1v1h1h-1l1,1h6v1h1v-1h1v1h-1h1h-1v1h1h-7l-1,-1v1l-1,-1h-6l1,1h7v1h1h-13l-1,-1h-9v-1l-1,1v-1h-10l-1,1h-7l2,-1h10v-1h4l2,-1h4v-1h-7v1h-1l1,-1l-1,1h-1l1,-1v1h-1l1,-1h15ZM456,2h-1ZM449,3h-1Z"/>
<path class="sp" d="M479,0h6M459,2h2l1,-1h15l1,-1M451,2h5M447,3h1"/>
<path class="sl" d="M510,35l-2,1l-2,-1h-3l-3,-1h-2l-3,-1h9l2,1h2l1,1h2ZM499,44h3l1,1h1l1,-1h4v1h1h-4l1,1h-3v-1h-1h1h-2v1l-2,-1h-3v-1h-2l1,-1h1l1,-1v1h-1l1,1h1h-1ZM428,8v1h-3l-2,1h-2l2,-1h5ZM436,8h1v1h-3v1h-1v-1h-1h2l1,-1ZM461,2h1h-4l-1,1h-2v-1h5ZM411,29h-5v-1h5ZM427,19v1h-1l1,-1h1ZM427,19h-1v1h-1h1l-1,-1v1h-2l-1,1l2,-1h-2l-1,1v-1h3v-1h1h-1v1l1,-1h1ZM422,20h-1h1v-1h1ZM211,92v1h-1h1ZM217,88h1ZM211,92h1v-1v1ZM218,88l2,-2h-1v1ZM215,90v1l1,-1ZM524,54h-1ZM516,48h-1h2ZM510,42h1h-1v-1h1l1,-1h1v1h-3ZM495,39v1h-1v-1v1ZM495,39h-1ZM483,53l1,-1ZM480,51h1ZM439,50h-1l1,-1h1v1ZM439,49l-1,1v-1h2ZM456,44h-1h1l1,-1v1ZM544,31h1ZM551,35h-1ZM544,28h1ZM553,35h1h-2ZM555,42v1v-1h1ZM495,5h1ZM480,9h-1h1v-1h2l-1,1ZM473,6h-2v-1h-1h3ZM495,7h-2l-1,-1h4v1ZM494,6h1h-2ZM475,11h-1h1h-1ZM497,8h-1ZM513,17h-1v-1h1ZM509,13v1l-1,-1ZM487,0h-1ZM503,1h1ZM423,18v1v-1h1ZM426,17h-1ZM425,19h-1l1,-1ZM416,27h-1ZM416,31h-1l2,-1ZM216,90v-1ZM218,87v1l1,-1ZM467,2h-1h2ZM445,6h1v1h-3l1,-1ZM427,13h1ZM429,13h-1h1v-1h1h-1ZM459,6h-1ZM464,2h-1ZM437,10h-1h2ZM451,3h-1ZM449,6h-1h2ZM453,2h-2l-1,1h-1h1v-1h2ZM457,2h-1ZM447,6h-1ZM451,2v1v-1h1ZM459,2h-1h2ZM430,6h1h-2ZM426,6h-1h1l1,-1h1h-1v1ZM426,7h-1v-1h1ZM621,342h4l3,1h3v3l-1,1v2h-1v1h-1v2l-1,1h-2v-1v1l-1,1h-1v-1h-1v1l-1,1h-3v-1h-1v1l-2,-1l-1,1h-1v-1l-1,-1v-2l-1,-1v-1h1l-1,-1v-3l1,-1v-2l2,-1h2ZM653,543h1h-2l1,-1ZM616,568v-1l1,-1v1h-1ZM644,548v1h-1v-1l1,-1ZM664,369l-1,1v-2l1,-1v1ZM705,462v-1l1,-1v1ZM703,465l-1,-1h1ZM661,355h-1v1l-1,-1h1ZM620,338v1l-1,1h-4v-2h4ZM615,324h-1l-1,-1v-1h2ZM612,341l-2,1h-1v-2h3ZM622,341h-3l1,-1h3v1ZM614,339v1l-2,-1l2,-2v-2h1v3ZM616,337h-1v-1l1,-1h1v1ZM602,351h-1l1,-2l1,-1v-2l2,-2h2l1,1l-1,3l-2,1l-1,1ZM615,579v-1l1,-1v-1l1,1l-1,1ZM304,212l1,-2ZM304,215l-1,2v-1h1v-1h1ZM535,233h-1v-1h1l1,1ZM389,161h1v3h-2v-2h-1v-1h1l1,-1ZM394,150l-1,-1h1v-1l1,-1v-1h-1l-1,-2h-1h1l1,1h1v1h1v1l-1,1ZM424,178h-1v1l-2,1h-3l1,-1h-1h1l1,-1h3l1,-1ZM389,158v1l-1,1h-1l-1,1v-2l-1,1v-1h-1h1v-1l1,-1v-2h2v2ZM385,146h2l1,-1h2v1h-3l-2,1h-2l-1,-1l1,1h1v-1l1,-1ZM392,156h-1v-1h2ZM416,168h1l-1,1h-1v-1h-1h1ZM414,160v1h-1Z"/>
<path class="sl" d="M415,172h-1h1l1,-1v-1h2l-1,-1v-1h1v1l-1,2h-1ZM398,152l1,1h1l1,1h1v2h-1v1l-1,-1h1v-1h1v-1h-1l-1,-1h-1l-1,-1l-1,1v-1ZM404,165l-1,-1h-2l1,-1l1,1h1ZM410,168l-2,-2v-2h-1v-1l2,2v1h1v1ZM408,160h-2l1,-1h-1v-1h-1v-1l1,1ZM424,170h3l-1,1l-1,-1h-2ZM425,176h-1ZM516,204v1h-1l-1,-1h1ZM516,201h-1v-1h1ZM576,834l1,1v1v-1h-2v-1l-1,1v-1h1ZM405,991h1h-1l-2,-1h-4l-1,-1h-3l-1,-1h-3l-1,-1h-3l-1,-1h-2l-1,-1h-2l-1,-1h1l-1,-1h-2v-1h-2l-1,-1h-2v-1h-1h1v-1h-1l-1,-1h2l1,1h2l2,1v-1l1,1h1v1h1v-1h2l2,1h1v1h5v1h4v1l-2,-1v1h8v1h1h-1h4l3,1h11l-1,-1h6l-1,-1h-1h1v-1h1v1h1h1l1,1h3v1h-1h2l1,-1v1h7l1,-1v1h4l-2,-1h6v-1h1v-1h1v-1h1v-1h4l-1,-1h-1h1v-1h1h-1l1,-1v-2h1h-1v-2h1v-1l2,-2h-3l-2,2h-6l1,1h-3l-1,1l-2,1h-1l1,-1h-1l1,-1h1l-1,-1h2v-1h-1h1v-1l-1,-1h-4v-1h-1l-2,-1h-7l-1,-1h-1l-1,1h-3l-2,-4h-6l-1,-1v-1h-3l-2,1h-3v1h-3l-1,1l-1,-1h-1l-1,-1h-1v1h-1l-1,1h-1v-1h-4l-2,-1h1l-1,-1h-1l1,-1h2v-1l2,-1h1l-1,-1h-1v-1l-1,1h-1v-1h-1h2l-1,-1h1l-1,-1h-2l-1,-1h-1l-2,1h-1l1,1h-2v-1h-2l1,-1h3v-1h-5v-1l-2,-2v-1h3l-2,-1l-2,-2v-1l1,-1h1h-1l-2,-1v-2h2v-1h1l1,-1h2v-2l1,-1h1l2,-2h1l3,-1l1,-2v-2h2l1,-1h2v-1h-1l-1,-2h-1h4v1h2v1l2,2l2,-2l-2,-2h-1v-1h3l3,3v1h1l2,-1h5v-1h1l1,-1h1l1,-1h2l2,-1l2,1h1l1,-1h2v-1h-2l-1,-1h-1v1h-1v-2h-5l-2,-2h-3l-1,-1h5l2,-2h1h-8l-1,1h-1l-1,-1l-2,-1v-1h2v1h2l1,-1h3l3,-1h4l1,1l1,-1h2l1,-1l1,1v-1h1l1,-1h6v-1l-1,-1h2v-1l1,-1l1,1h1v2h2l1,-1l1,1h1l1,-1h1l1,1h3l1,1h6v-1h1l-2,-2h1l2,1v-1h-1l-1,-1v-1h2l1,1l2,1l1,1h2l1,-1h1l1,1h-1v1h2l1,-1h5l2,-2h3l1,-1h5l1,-1l2,-1h1v-1l1,-2v-3h-1l-1,-1v-4l-1,-1v-1l-2,-2v-1l-1,-1v-1l-1,-1h5v-1h1l-2,-2h1v-3h1l-2,-2h1v-2h1l-1,-1h-1l-1,1v-3l1,-1h1v2h1v-4h3v-1h-1v-1h1v-1h1v-1h2v1l1,-1h-1v-1h1v-1h2v-1h-1v-2h4v-1l1,-1l1,1v-2h1v1h1v-1h2v-1h1l1,-1v-1l3,-1h1l2,-1h1l1,-1h1l2,-1l1,-1h4v2h-1v-1v1h-3l-1,1l-2,1v1l-1,1h-1h1v2l-1,-1h-2v1l-1,-1l-1,1h-1l-2,2h-1l-1,1v-1h-1v2h-2l1,1v1h1h-1l-1,1v2h3v-1h3v1h-2l1,1h-1l-1,-1l-1,1v1h-1v-1h-3v2h1v1h-1v-1l-2,-2h-1v1h-1v1h-1l2,2h-1l-2,-1h-1v2h-1v1h1h-2v3h-1l1,1l-1,1h3v-1v1l-2,1h1l1,1h-1v1h2l2,1l-1,-1v-1h3l-1,1l1,1l-1,1h1v1h1v1l1,1h1v3h1v1h-1v1h2v1h-1v1h2v3h-1l-1,1v1h1l1,-1v1l-2,1h-1l1,1h3v2h-2l1,1h1v2h1v-1v2h-3v-1h-2v1h1v1h1l1,1v1h-2v1h1v1h-1h2l-1,1h-3l1,1v1h-2v-1h-1v1h-1l-1,1h1l-1,1h2v1h-2l-1,1h-2l-1,1h-1l-2,1l-4,1l-1,1v1h-14v1l1,1l2,1h1v1h6v1l-2,2h-4l-2,-1h-6l-1,1l4,1h4v2h-1l-2,1h-1l-1,-1h-2l-2,-1h-1l-1,-1h-1h1v1h1h-1l2,2h2l2,1l2,2h1l-1,-1h2l4,-1l2,2l-1,1h-3l-1,1h6l1,1v1h1v1h1v-1h1l1,1l1,-1h1v-1h1l2,2h2l3,2h1l-1,1h2h-2v1l1,1h4l1,-1h1l-2,2h-1v1h1v1v-1l1,1h-1v1h2l2,-1l2,-2h1l1,-1h3l1,-1h5v1h2l-1,1h-1l1,1h1l1,-1h1l1,-1l2,-1h1l1,-1h1v-1h5l1,1v-1h3v-1h6v1l1,-1h3l8,1h1l-1,-1h-1l-5,-2v-1l1,-1h1h-1l-1,-1h-4v-1h-1v-2l1,-1l3,-1l1,-1h2l1,-1h1l1,-1h4l4,-1h1l3,-1h6l1,-1h4l2,1h6l1,1h2v-1h1l1,-1h2l1,-1l3,-1h2l1,1h2l2,-1h1l-1,-1h-2l1,-1v1v-1l1,-1h1l1,-1h3l1,1l1,-1h1v-1h1v1h6l1,-1l2,-1h1l1,-1h-1v-1l2,-2h1v2h2l1,-1h1l1,-1v2l-1,1l-1,2h2l2,-1v-1h1l1,-1h2l1,1h1l-1,1h-2l-1,1l2,1l1,1h1l1,1v1h2l-1,1h-1v1h1l2,-1h7l1,1l3,1h1l1,1h3v1h3l-3,3v1h3l1,-1h3l-1,1h-1v1h1v1h2v1l-2,1v1h3l-1,1h-1l-2,1h-1l-1,1l1,1h2l1,-1h2l-1,1h-1l-2,2h2l2,-1l-1,1h-1l-1,1h-1v1h-1v1h-1l1,1h2l1,1h2v1h1v1h2l1,-1h2l1,-1h1l2,-1h2v1h-2l-2,2l-3,1h-1l-1,1h1h-1v1h-1v1l-1,1l-2,1h-1h4l1,-1h2l2,-1h1v1h1v1h2v1h-1h1v1h1l1,-1v1h-1l-1,1h-2v1h-2l-1,1h1l1,-1h3l1,-1h1h-1l-2,2h2v-1h3v1h-1v1l-3,1l-1,1h-1l-2,1l-1,1h-2l-2,1l1,-1h1h-1l-1,1h-2l-1,1h-1v1h-3l-2,1l-1,1h-1l-6,3h-1v1h-2l-3,1l-4,2h-1l-1,1h-2l-1,1h-4v1h-6v1h-1l1,-1h-3l-1,1h-2l-1,1h-2v-1h-2l-2,1h-6v1l1,-1h2l-1,1h-1h2l-1,1h2l1,-1h2l-1,1h1l-1,1h-2l-1,1h-1h1l-2,1h-3l-1,1h-3l-1,1h-5l-1,1h-4l-1,1h-4l-1,1h-5l-1,1h-6l-1,1h-6l-1,1h-7l-1,1h-8l-1,1h-10l-1,1h-15l-1,1h-44l-1,-1h-15l-1,-1h-10l-1,-1h-8l-1,-1h-7l-1,-1h-6l-1,-1h-6l-1,-1h-5l-1,-1h-4l-1,-1h-2Z"/>
<path class="sp" d="M604,989h-1l-1,1h-5l-1,1h-4l-1,1h-4l-1,1h-5l-1,1h-6l-1,1h-6l-1,1h-7l-1,1h-8l-1,1h-10l-1,1h-15l-1,1h-44l-1,-1h-15l-1,-1h-10l-1,-1h-8l-1,-1h-7l-1,-1h-6l-1,-1h-6l-1,-1h-5l-1,-1h-4l-1,-1h-3"/>
<path class="sl" d="M531,933h2v2h-1v2h-1v1h-2l1,1l-11,1h-6v-1h1l1,-1v-1v1h1v-1h1v1l2,-2h1l1,-1v-2h1v-1h1v-1h1l2,-2l3,-1h3l2,2v2h-3v1h-1ZM506,938l-1,1v1h-4v-1h-2v1l-1,-1l-2,-1h-1l1,-1v1h8l-1,-1l1,-1h-1h1l1,-1l1,1v1ZM480,883v1h1l2,2v1l1,1l1,2l1,1v1h1v8l-4,2h-7l-1,-1l1,-1h1l1,1h3v-1h1v-1h-1v1h-3v-1h2l1,-1h-3l-1,-1h-1l-1,1h-3l1,1v1h-1l-1,-1v1h-1v-1h-2v-2h2v-1h2l1,1v-1h-1l1,-1l1,1h1l1,-1h-2l-1,-1h5v-1h3l1,1v-1l-1,-1h-3v-1l2,-1h2v-1h-4l-2,-1h-1v-4h-1v-2h2l3,-1l1,1ZM412,907l1,1v-2l1,1v1h1v-2h2l-1,1v1h1v-1h1v-1l2,2h-1l1,1h-3l-1,1h-12v-1l3,-1v-1l1,1h2v-2h1ZM383,928h1v1h1v1h1v1l-1,1h-2v-1h-1v-1h-3l1,-1h1ZM372,931l1,-1v1h3v1h2v-1h2l1,1h1l-1,1h-5l-1,-1h-1l1,1h-1l-1,-1h-1l-1,-1ZM412,967v2h-2l-1,1h-1l-1,-1h-3v-1h2l2,-1h3ZM415,984v-1h-1l-1,-1h1v1h3l1,1h1h-5ZM548,940h1h-1l1,1h-2v-1h-1h1l1,-1ZM546,937v1l-4,-1l1,-1h2ZM490,935h-3v-2l2,-2h1l3,-2h2l-5,5ZM522,853h1v-1v1h1v1l-1,1h1h-2v-1v1h-2l1,-1v-1h-1v-1h2v-1v1ZM532,848h1v1h-5v-1h2ZM523,839l1,1l-1,1l-1,-1v1h-1v1h-1v-1h-1l1,-1h2ZM502,855l-1,1h1l1,-1v1h-1l-1,1h-3v-1l1,-1h1v-1h1v1ZM505,855h-1v-3h1v1h1v1h-1ZM485,873v1h-1v1h-2v-3h1v-1l1,-1v-1h1v-1h1v1l-1,1v1h1v1h-1ZM471,892h1l-1,1h-1l-1,1h-1l-3,1h-1v-2h3v-1h1l1,1v-1h1v-1ZM466,887l1,1h1h-1v1h-3v-1h1v-1ZM473,905v1h-1h1v1l-4,-1v-1h2v-1h2ZM433,910h-1v-1l-2,-2h2v1h1v1ZM420,983h1v1h1h-1l-1,-1h-1ZM668,945h-1l1,-1h2l-1,1ZM641,916h-1l1,-1h1h-1ZM645,918l1,-1h1v1h-1ZM496,937v-1h-1v-1h-2l1,-1v1h3v2ZM494,934h-2l1,-1h1ZM535,835v1v-1h-1l1,-1l3,1h-2ZM530,850h-1v-1h2v1ZM524,856h-1v-1h2v1ZM530,847l-1,1l-1,-1v-1ZM524,851v1h1h-2v-1ZM505,886l-1,-1l-1,-2h2v1h1v1h-1ZM512,843h2v1h1l-1,1l-1,-1h-3v-1l1,1v-1ZM475,886l-1,1v-1h-2v-1h1ZM422,909v-1h1ZM405,916h-2v-1ZM387,929h-1l-2,-1l1,-1h1v2ZM381,936h-2l-1,-1h2ZM441,972h-2l1,-1v1ZM427,970v1h-2l1,-1ZM403,985h1h-2ZM409,985l2,1h-1ZM387,981h-2v-1h1v1ZM357,978h-1ZM356,978h1ZM356,978h-1ZM613,984h-1ZM613,983h1h-1v1ZM616,984h1ZM683,958v1h-1ZM668,934v-1h1l1,-1v1h1h-1ZM653,924l-1,-1h2ZM640,921v-1h1ZM653,921h-1l1,-1h2l-1,1ZM644,920l-1,1h-1v-1h1v-2l1,1ZM655,925v-1h1v-1h1v1h-2ZM595,920l-2,1v1l-1,1h-1v-1l1,-1l-1,-1h4v-1h1v1Z"/>
<path class="sl" d="M610,918h-1v-1h1ZM619,918v-1h1ZM547,939h-1h2ZM540,836h-1h1v-1ZM519,842h-1v-1ZM507,887h1ZM509,881l-1,-1h1ZM508,891v-1h1v1ZM509,893h-1v-1ZM517,843l-1,-1h1ZM512,846h-1h1v-1ZM511,852l-1,-1h1v-1h1l-1,1ZM506,853v-1h1v1ZM501,858h-1l1,-1h1h-1ZM504,846l1,-1v1ZM492,864h-1v-2h2l-1,1ZM490,866h-1v-1h1h-1ZM487,870h-1l1,-1l1,1ZM488,875h-1l-1,-1h2ZM476,889v1l1,-1v1h-1ZM474,906v-1h1v1ZM426,910h-1v-1h1ZM391,927l-1,1l-1,-1v-1h1v1ZM375,939h-1ZM377,938v1h-2v-1h1ZM385,955v1h-1v-1ZM378,952h-2l1,-1v1ZM388,955v1h-1v-1ZM388,957h-1ZM385,957l1,-1l1,1h-1ZM391,958h-1ZM386,957v1h-1v-1ZM382,954h-1ZM385,955h1h-2ZM391,959h-1ZM413,965v1h-1ZM389,957v1h-2v-1h1v1ZM432,969h-2v1h-1v-1h2ZM504,197h1v1Z"/>
<path class="sh" d="M545,596v1l-2,2v6h-1v1l-1,1h1v2h-1v1h-1v3h1l-1,1v6h-2v2l-1,3v3l1,1v1h-1v3l1,1l4,2l1,1l2,1l1,2v1l-2,2v2l1,1l1,2h2v5l-5,7l-1,1v1l-1,1l-4,2l-6,2l-4,1l-10,1h-6l-1,-1h-2l1,1v2h1v1h1h-1v4l-1,1l-1,2v2l1,2v1l-1,1l-3,1l-1,1h-5l-6,-3h-1v-1h-1l-1,1v4l1,2v5h2l1,1v1h3v-1h-1v-1h4v5l-3,1l-1,-1v-1l-1,-1h-2l-1,1h-1v1l3,1h2l-1,1l-2,1h-1l-1,1l-1,2l-1,1v1l1,2l-1,1l1,1v1h-1l-2,2v1l1,1v1h-1l-3,-1l-2,2l-2,1l-2,2l-1,2l-1,1v3l1,1v1l4,3l1,1h5v5h-1l-1,1h2v1h-1v1l-2,2h-1l-1,1l-2,1l-2,2l-1,3v4l-2,2h-2v-1l-1,-1v1h-1h1v1h1v1h-2l-1,1v4l-1,1l1,1v1l1,1v1h-2l1,1h1l2,2l1,2h1l-1,1v-1h-2l-2,-1h-3l-1,-1l-3,1h-8v-1l-1,-1h-1v-1h-1l1,-1v-2h-1v-1l1,-1l-1,-1v-1h-3v1h-1l-1,-1v-1l-1,-1v-1l-1,-1v-2l-1,-1v-3h2v-2h1v-1h1v-1h1v-1l-1,-1l1,-1h1v-1l-1,-1v-1h-1v-2h1v-2l1,-1v-1h1v-2h-1v-1h1l1,-1v-1l-1,-1v-2h-1l2,-2h-1v-1l-1,-1l1,-1h1v-1l1,-1v-1h-1l-2,-2h-2v-1h5v-3h-4v-6l-1,-1v-3h-2v-4h-1l1,-1v-1l-1,-1h1v-1h1v-3l-1,-1v-6l-1,-1v-1l1,-1v-8l1,1v-6h1v-1h1v-1h2v-1l-1,-1v-1l-1,-1v-3l-1,-1v-7h-1v-1l1,-1v-1l1,-1h1v-1l2,-2v-5h-1l1,-1h-1v-1l1,-1v-4l1,-1v-1l1,-1h1v-9h-2v-3l-1,-1v-2l-1,-1v-1l-1,-1v-1h1v-1h-1l-1,-1v-1l-1,-1v-2l1,-1v-1h1v-4l1,-1v-1h1l1,-1v-2h-1v-4l-1,-2l1,-1v-1h1v-4l1,-1v-1l1,-1v-1h1v-1l1,-1v-1l1,-1v-3h1v-2l1,-1l1,1l1,-1h1v-2l-1,-2l-1,-1v-1l1,-1v-5h-1v-4l1,-1v-2h-1v-2l2,-2l2,-1l1,-1l3,-1l1,-1v-1l1,-2l1,-4l1,-2l-2,-1v-1l1,-1v-1h1l1,-1h1v-2h3v-2l1,-1h1l2,2h7l1,1h2l1,2v1l1,2v1v-1l1,-1v-1l1,-1l1,-3h1v-1l1,1l1,-1h6v1l1,1h1v1h1l1,1l2,4l3,3h1v1h1v1h1l4,4l3,1h3l4,2l1,2h1l1,1l4,2l1,1h1v1h2l2,1h1l1,2v1h1v1h-1l-1,1v1l-1,1v1h-1l-1,1v1h-1v4l-2,2v1h-1v2h6l3,1l2,1h5v1h1v-1l1,-1h3v1h1l1,-1v-1l1,-1v-1h3v-1h1v-1h1v-1l2,-2v-3l1,-4v1h1v-1h3v1h1v3l1,1v5l-1,1h1v1l-1,1v1h-1l-1,1h-1l-1,1h-1l-1,1h-2l-1,1v1h-1v1h-2v1h-1l-1,1l-2,1h1v1h-2v1h-1v1h-1l-1,1v1l-3,3v1l-2,2l-2,1l-1,1v1l-2,2ZM475,792v-2l-1,-2v-10l-1,-2h1l1,2h1v1h-1l-1,1h1v1h1l6,6h1l1,1l2,1h1l1,1h4v1l-1,1h-4l-1,1h-1l-2,-1h-5l-1,-1h-1v1ZM495,790l1,1l1,-1h1v1l1,-1v1h-3l-1,1l-1,-1h1ZM512,671h-1l-1,-1h2Z"/>
<path class="sw" d="M377,68h-1v1h2l1,-1l1,1v-1h1l1,-1h2l1,-1l2,-1h9v-1h-1l1,-1h6l1,-1h1h-1h1v1h-2v1h-2l-1,1h-1l-3,1h-1v1h-1l-6,2h-1l-2,1h-3l-1,1h-3v-1v1h-2v-1h-1l1,-1h1v-1ZM403,62h1ZM378,70l1,-1h-1ZM977,361l-1,-1v-1l1,1ZM329,47h-1l-1,1h-1v-1h1v-1h2v-1h1h-1l-1,1v-1h2v-1h-1v1h-1l1,-1h-1h1v-1l-1,1h-1v1h-1v-2h-1h1v-1h1h-1v-1h2l2,-2h3v-1h1l2,-1h-1h1l-2,1h-1h1v1h-1v2h-1v2h-1v2h-1v1h-1ZM328,43h-1ZM329,46h-1ZM334,28h2l1,-1l-2,1h1h-2l-1,1h-2l-1,1l1,-1h3ZM324,32l2,-1h2v-1h2l1,-1h2l1,-1l-1,1h-2v1h-3v1h-2l-1,1h-2l-1,1h-1l-1,1h-2l-1,1h-2v1h-2l-1,1h-1h1l1,-1h1l1,-1h2l1,-1h1l1,-1h2l1,-1ZM326,31l-1,1h-2l-1,1h-1h1l1,-1h2Z"/>
<path class="sr" d="M330,30l1,-1h3M328,30h2M311,37h1l1,-1h1l1,-1h2l1,-1h1l1,-1h2l1,-1h1"/>
<path class="sw" d="M425,54v1h-1l-2,1h-1h1v1v-1v1h-1v1h-1l-1,1h-2v1h-12l-2,1h-4l1,-1h2v-1h2v-1h5l2,-1h7v-1l-1,1h-1v-1h-1v1v-1l-1,1h-1h1l1,-1h2v1l1,-1h3v-1h3ZM419,56h-1ZM421,57v-1ZM422,56h-1ZM423,55h-1ZM377,68v-1h1v-1h3v1h-4ZM370,146l-1,1h-2l-1,-1h1v-1h1l1,-1v1h1ZM323,257v2h-5l-1,-1h-1l-1,-1v-2h-1v-2h1v-1h2l1,1h1v1l2,2h1v1ZM452,475l-1,-1v-1h-1l-1,-1h-1v-1v1h-1l-1,-1v-1h2v-1l-1,-1l1,-1h1v-1l4,4h1v1h1v1h2v1h-1v1h1l1,1l-1,1h-1v2l-1,-1h-1l1,-1v-1h1v-1h-1l-1,-1v2h-1ZM325,42h-1v1v-1h-1v1h-3v-1h3v-1h1h-1h1v-1h3v-1v1h-2v1h-1h1v-1h1v1h-3v1h1h-1h1ZM218,108h-1v1h-1v1h-1v-1h1h-1v-2h1v-1h1v1h1v-1h1h-1v1ZM217,109v-1ZM374,55h-2v1h-1v1h-2v1l-1,1h-1h1v-1v1h-1l1,-1v-1v1h-1l-1,1h-2v1h-1v1h-1v1h-1l-1,1v1h-1v4l-4,4h-1l-1,1h-2v1h-2v-2h-1l1,-1v-1l1,-1v-2h1v-1h1l1,-1v-1h1v-1h1v-1h1v-1h1v-1h-1l-1,1h-1v1h-1v-1h2v-1h1l2,-2h1l1,-1h1l1,-1v1v-1h1v1l1,-1h1l1,-1h3l1,-1h4ZM370,55l-1,1h1ZM365,58h1ZM360,58v1h-2l-1,1h2v-1h1ZM378,52v-1v1h-3v-1h-1l-1,1h-5l-1,1h-2l-1,1v-1h-1v1h-2v-1h-4l-1,1v-1h1v-1h-1l-1,1h-2l-1,1h-1l-1,1h-2l-1,1h-4l1,-1h-1l-1,1h-2l-2,1h-1l3,-2h2l3,-2h1l1,-1l3,-1h2l1,-1h2v-1h1v-1h2l1,-1v1h-1h2v-1h1l1,-1v1h-2v1h1v-1h2v-1h1v-1h2l1,1v-1l1,1l1,-1h4v1h-1h1h-1l1,1h5l-1,1h1v1h1h-1v1h-1h1v1h-1h1h-1v1ZM344,55h1ZM344,55h1l-1,1ZM346,54v1ZM364,46h-1h2ZM357,50l2,-1h1h-2l-2,1h-1h1ZM361,51h1h-4l-1,1h-1h1v1l1,-1h1l1,-1ZM366,46h-1ZM374,48h-1ZM378,51h2v1h-1h8l2,-1l1,1v-1h2v1v-1h1v1h2v-1v1h1v-1h1l1,1v1h1v-1v1h2l-1,1h1h-1h1v1h1h-3v1h1h-1v1h-1l-1,-1h-2l-1,1v-1h1h-1v-1l-1,1v-1h1h-1v-1h-2v1h1v2h-1v1h-2v1h-1v2l-2,2h-2v1h-2v-4h-2l-1,1h-1l-1,1h-2v-1h2v-1h1l1,-1h1v-3h1v-1h-7v-1h1l1,-1v1h1v-1h1v-1h1h-1h1h-1ZM383,53h-1ZM382,53h-1ZM380,53v-1h1h-2v1ZM379,52v-1ZM376,54h-1l1,1ZM385,53h4v1l2,-1h-1v1h1v-1h1v-1h-1v1v-1h-2v1v-1h-2v1h-1v-1l-1,1h-1ZM391,54h-1ZM249,174l-2,2l-4,8l1,-1v-1l1,-1h-1v-1h1v-1l1,-1v-3h2v-1ZM334,31l-1,1h-2v1h-3v1v-1h2v-1h3v-1h2ZM317,36h-1l-2,1h-2v1h-2l-1,1h-1h1h-1h1l1,-1l2,-1h1l2,-1h2v-1h2v-1v1l1,-1l-1,1h1v-1h2l1,-1h3l2,-1l-3,1h-2v1h-2l-1,1h-3ZM449,30v1h-2l-1,1v-1h2v-1l-1,1l-2,1h-1v1h-1v1h-1h1v-1l1,-1h-1v1h-1l1,-1h1v-1v1v-1h1l2,-1h3Z"/>
<path class="sw" d="M335,49v1h-1v-1h-1l-1,1h-1h2v1h-2l-1,1h-2v-1h2l1,-1h-1h2l1,-1h-1l-1,1h-1l1,-1h1h-1h3v-1h1h-1h1v1h-1ZM331,51h1v-1h1h-1ZM367,42h-1v1l-1,1h-4v-1h2v-1h3v-1h1v1h-1ZM365,42h-1v1h-1h1v-1ZM364,43h1h-1v1ZM336,31h1h-1l-1,1h-2v1h-1h1h-1l-1,1h-1l-1,1h-2v1h-3l-1,1h1v-1h2v-1l-1,1l1,-1h2l2,-2h2v-1h2l1,-1h1h-1h1h-1ZM423,59l1,1h-3v-1h1ZM177,132h-1h1v-1h1ZM350,64l-1,1h-1h1v-1ZM473,2h2h-1ZM360,20h3v-1h1h-1v1h-1h1h-2l-1,1h-1h1l1,-1h-1v1h-1ZM388,14l1,-1l-1,1h-5v1v-1h4ZM439,55v1v-3l1,-1v-1v1h1v-1h1h-1v2h-1v1ZM171,156l-1,1h-1v-1h1v-1v1ZM439,690v-3h1l1,1v1h-1v1ZM994,579l-1,2v1v-2l1,-2v-1v1ZM451,39l-1,-1h3v1h-1ZM415,62l-1,1h-1h1v-1ZM415,63v-2l1,1ZM418,63h-1v-1h-1l1,-1v1ZM957,355v3l1,1h-1v-3l-1,-1v-2h1v1ZM319,36v1h-2l-1,1h-1h1v-1h2ZM366,19h1l1,-1v1h-3ZM344,26h3v-1v1h-2v1h-1h1v-1l-1,1ZM305,135v1h-1v-1ZM450,18h-1ZM400,50h2v-1h4v1h-5ZM990,601v1h-1v1v-1l1,-1v-1ZM438,19v-1h2ZM510,600l-1,1h-3v-1h-1v-1h2v-1h2l1,1ZM436,24h5l2,-1v1h-1h1h-5v1h-1v-1ZM436,24l-1,1h-5l2,-1h3l-1,-1h2l-1,1h-2v1h1ZM435,196h-2v-1l1,1ZM306,39h-1v1h-1h1v-1ZM433,26h-2v1v-1h1h-1l1,-1h1ZM453,759h-4l-1,1v1h1v1l-2,-2h-1l1,-1l1,1v-1h-2v-2h1v1l1,1h1l2,-1h2ZM332,30h-1v1h-1h1h-1h1v-1h2ZM368,34h3v-1v1h-2ZM743,63l1,1ZM240,89h-1h1v-1h1ZM241,79h1l-1,1h-1h1ZM189,138v-1l-1,1h-2l-1,1v-1h1l2,-2h1v-1v1h-1v1h1v-1v1h1v1ZM306,40h-1l-1,1v-1v1v-1h3ZM502,21h1h-3v1h-3v-1h-3v1h-2v1h1h-3l1,-1l-1,-1h-3v-1h-1v1h-1v-2h1v1h1l1,1h5v-1h-1h1v1h3v-1h1h-1h1l1,1h3ZM295,229h-1v1l-1,1h-1v1h-1v-1h1v-1h1l1,-1h1v-1ZM353,42l1,-1h3v-1h1v1h-3l-1,1ZM437,39v1h-1v-1h-1v1h-1v-1h1h-1v1h-1v-1h3l1,-1h1l-1,1h2v1h1h-2v-1ZM452,20h4v-1h1v1h-6l-1,1v-1h1ZM576,299h-1l1,1h-2v1h-1l-1,-1v-1l1,-1v-1h2v1h1ZM413,62h1ZM418,62v-1ZM420,61h-1ZM225,102h-1h1v-1h1ZM216,111l-1,1h-1h1v-1ZM327,57v1h-1v-1h1v1ZM353,47v1h-1ZM429,45l-1,1h-1v-1h1ZM443,681h-2v-1h2ZM451,755h-4v-2h1l2,1h2v2ZM995,484v-2h-1v-1h1v2ZM492,53h-1ZM485,47h-1h1v-1h1ZM189,117l-1,1l1,-1h1ZM183,126h-1h1v-1h1h-1ZM169,142v1ZM463,35v-1h-1v1h-1v-1h3v1h1h-1ZM537,36l1,-1v1h-2l-1,1h-1h1l1,-1ZM367,32h1ZM345,43h-1v-1h2ZM349,36h-2v-1h1v1l1,-1h1ZM464,25v1v-1h-1Z"/>
<path class="sw" d="M313,41v1h-2l-1,1h-1h1v-1h2v-1h2ZM328,60h-1v1h-1l1,-1ZM452,56v1l-1,-1ZM402,57v-1h1v-1h1v1l-1,1ZM355,32h1h-2v1h-3v1h-1l1,-1h2v-1h1ZM202,108h-1v-1h1ZM541,39h-1ZM350,32h-1ZM338,52h-1v-1h1h-2v-1h1v1h1h-1h2v-1v1h-1h1h-1ZM262,60l-1,1ZM255,64l-1,1v-1Z"/>
<path class="sr" d="M261,61l1,-1M255,64v0"/>
<path class="sw" d="M351,31h-1v-1h1ZM272,70h-1h1v-1h-1v1h-2v1v-1l-1,1h-2l-1,1h-1v1v-1h-1h2l1,-1h2v-1h2l1,-1h1l1,-1v1h-1h1h-1ZM290,65h-1h1v-1h-1v-1l-1,1h-2v1h-1l1,-1l-1,1h-1h1v-1h3v-1h2v1h-1h1v-1h1v1h-1h3l1,-1h1h-1v1h-2l-1,1ZM235,79h1l1,-1l-1,1ZM235,82h-1l-1,1l1,-1h1v-1v1h-1h1v-1ZM221,89h-1h1v-1ZM329,32h-2v1v-1h2l2,-1l-1,1ZM326,55h1h-1l-1,1h-1v-1h1ZM326,55l1,-1h1l-1,1ZM370,18l-1,1v-1h4v-1v1h-3v1ZM474,3h-2l-1,1h-2v-1h1h-1h4ZM236,154h-2v-1h1v1h1v-1ZM424,45h1h-1v-1h-1v1v-2h1h-1v1l1,-1v1h1h-1ZM204,217v1h-3l1,-1h1ZM313,251v1h-1v-1h-2v-1h2ZM574,550l-1,1h1v1l-1,-1v3l1,1h-2v1h-1v-2h1h-1v-1h-1h2v-1l-1,-1h-1h2v-1h1v-3h1l-1,-1v-1h1v-1v5ZM363,269l-1,1v-1h-1v1h-1h1v-2h1v1ZM979,642l-1,1v-1h1l-1,1v-1h1h-1v1v-1v1h-1v2l-1,1v1v-1l1,-1v-2l1,-1v-1l1,-1v1h-1h1v-1v1ZM946,373v1v-1v2h-1v-1l-1,-1v-1l-2,-2v-1v1h1v1v-1v1h1v1l1,1v-2h-1h1v-2l-1,-1h1v1v-2h-1v-1l-1,-1h1v1v-2h-1v-1v1v-2l-1,-1v-1h-1v-1v1v-1h-1h1v-1h-1v-2l-1,-1v-1h-1v1v-2h-1v-1v1h-1v-1h1l1,1h1h-1v-1l1,1v1l1,1v-1v3h1v2h1l1,1h-1l1,1v2h1v1v-5h-1v-2h1l-1,1v1h1v4h1v6l1,1v2ZM945,373h1l-1,-1ZM581,618l-1,1v1h-1v1h-1v-1h-2v2h-2v4h-1v-4l1,-1h1v-2h2v-1h1v-1h1v-2h1v2h1ZM320,50h-1l-1,1h-1l1,-1v-2h1h-1h1v-1h-1h1v-1v1h1v-1v1l1,-1v1h-1h1l-1,1h-1v1h1ZM317,47l1,-1h-1v1h-1l1,-1h1v-1h2v-1h-1v1v-1h-1v1h-1v-1h2l1,-1h2l-1,1v1h-2v1h-1v1h-1h1ZM475,29h-1v1h-2v1v-1h-1v-1h-1v-1h4v-1v1h1ZM473,29h1v-1h-3l-1,1h4ZM305,42h1v-1l-1,1h1h-1v1h-2v1h-2v1h-1l1,-1h1l1,-1h1l1,-1h-1ZM455,730v1h-3l-1,-1l-1,1h-2l-1,2l-1,1h-1v1v-2l1,-1v-1h2l2,-1v-1h2l1,1h1ZM189,138v-1l-1,1h-2l-1,1v-1h1l2,-2h1v-1v1h-1v1h1v-1v1h1v1ZM213,121l-1,1l-2,1l-2,2h1h-1v1h-1l-1,1h-1l-1,1v-1h2v-1h1l3,-3h1v-1h1v-1ZM347,29h1h-1l-1,1h-2l-1,1h-2l-1,1h-1h1l1,-1h2l1,-1h2v-1h1h-1h2ZM690,426l1,2h-2v1h-1v1h-7l-1,1v1h1v1h1v1l-1,-1h-1v-1h-1l-1,1l2,4l-1,1v1h-1v1l1,-2v-3h-2v1l-2,2v2l-1,1h-1v-1h-2l1,-1v-1h1l1,-1l-1,-1h1v1h1v-2h-1v-1l1,1h1v-2l1,1v-2l-2,-1v-1h1l1,1h1h-1v-1l1,1h1v-3l1,1v-1h1v-1h1v1h4l1,1l1,-1v-2h1l1,-1h-1h1v-1v1ZM674,439v-1h1h-2v1h1h-1v1h1ZM406,41h1v-1h1v1h3v1h-1v-1h1h-4ZM272,70h-1h1v-1h-1v1h-2v1v-1l-1,1h-2l-1,1h-1v1v-1h-1h2l1,-1h2v-1h2l1,-1h1l1,-1v1h-1h1h-1Z"/>
<path class="sw" d="M289,73h-1v1h-2v1l-1,1v-1h1v-1h-1v1h-1h1v-1h3v-1l1,-1h1h-1l1,-1v-1h1v-2h1l1,-1v-1v1l-1,1v1l-2,2v1h-1ZM235,79h1l1,-1l-1,1ZM946,373v1v-1v2h-1v-1l-1,-1v-1l-2,-2v-1v1h1v1v-1v1h1v1l1,1v-2h-1h1v-2l-1,-1h1v1v-2h-1v-1l-1,-1h1v1v-2h-1v-1v1v-2l-1,-1v-1h-1v-1v1v-1h-1h1v-1h-1v-2l-1,-1v-1h-1v1v-2h-1v-1v1h-1v-1h1l1,1h1h-1v-1l1,1v1l1,1v-1v3h1v2h1l1,1h-1l1,1v2h1v1v-5h-1v-2h1l-1,1v1h1v4h1v6l1,1v2ZM945,373h1l-1,-1ZM348,24l1,-1l-1,1l1,-1l-1,1h-1h1h-1Z"/>
<path class="sr" d="M347,24h1"/>
<path class="sw" d="M289,78l1,1h1h-2v-1h-1l2,-2v1h-1ZM240,168h1l-1,1v-1h-1v-2h1v1ZM301,45l1,-1h1l1,-1h1h-1l-1,1h-1v1ZM341,27h-1l-1,1h1v-1h1h-1h3v-1h1h-1l-1,1h-1h1ZM389,13h-1ZM471,22h-4v-1h1h-1h2l1,1ZM474,22v1h-1v-1h-1h1ZM467,21h-1h2v-1h1v1h-1ZM334,98v3l-1,1v-1l1,-1h-1v-1h1v-1l-1,-1v-1l1,1ZM366,107h1v1h1h-1l-1,1h-1h1l1,-1h-1v-1v1h-1v-1ZM249,69h1h-1h1v-1h1h-1v1ZM365,132v-1v1l1,1h-1ZM181,147h1l-1,1ZM177,126v1v-1v1h-1h1h-1h1ZM187,117h-1v1h-1h1v-1ZM199,109h1v-1v1ZM475,48h1h-1l-1,-1h1ZM620,377h-1v-2l1,-1v-2h1v4h1v2l1,1v5l1,1h2l-2,1l-1,-1v-1l-1,-1l-1,-2v-2h-1v-1ZM651,504l1,1h-2v1h-2v-1h2l-1,-1v1h-1v-1h1v-1h-1h1v-1h-2l1,-1h1v-2h1v1l-1,1v1h1v2ZM599,514v-1h2v-1h1v-3l1,-1v2h1l1,-1h1l-2,2h-1v2h-1v1v-1l-1,1h-1l1,1h1h-1l-1,-1ZM441,684h1v1h-1ZM469,721v1h1v1h-2v-1h-1v-2h1v1ZM333,107h4v1l-2,-1h-3ZM429,31h1h-2ZM354,41h-1ZM419,33h-1ZM413,44h-1ZM420,44h1h-1v-1ZM346,33h1l1,-1h1l-1,1h-1ZM319,41l1,-1v1h-2ZM304,46l1,-1h1h-1l-1,1h-1ZM462,23v1h1h-1v-1h-1ZM514,25l1,1h1h-1l-1,-1h-1ZM386,44v1h-1l1,-1h1ZM307,42h1ZM308,42h1ZM356,22h-1ZM347,25h1l1,-1h-1v1ZM332,32v-1h1ZM473,16h1l1,1l-2,-1h1ZM415,8h-1h2ZM417,7h1h-2v1v-1Z"/>
<path class="sb" d="M831,142l-1,-2h-1v-2h-1h1v-1h-1l-2,-2h-1v-2l-4,-4h-1v-1h-1h1l1,1v-1h-1v-1l-1,-1v-1h-1v-1h-1v-1h-1l-1,-1v-2h-1v-1h-1l-2,-2h-2v-1h-2l-1,-1v-1h-2M835,130h-1v-1M839,134v-1h-1l-1,-1h-1v-1l-1,-1h-1v-1h-1v-1h-1l-1,-1h-1h1h-1v-1h-1l-1,-1h-1v-1h-1v-1h-1l-1,-1h-1v-1h-1v-1h-1l-1,-1M340,268v1h-1v-1h-1l-1,1v3l1,1v1h-1v3l-1,1v1h1v1M332,259l-1,1h-4l-1,-1h-3l-1,1l-2,-1h-4v1h-1M338,228h-2l-1,1h-1v1h-3v1h-3v1h-2l-1,-1l-1,1h-1v1h-1v2h-1l-2,2v1h-2v1l-2,-1h-1l-2,2h-2l-1,1v3h-1v1h-1v2h-3M300,228h-1l-4,4l-2,1l-2,2v2l-1,1v1M295,228h-3v-2l1,-3v-2l1,-2v-3l1,-2M283,245v-1h1l1,-1v-1h1l1,-1h1v-2h4v1h1l1,1h2v1l2,-1h4l-1,2v2M302,209h-2v1l-2,2v1h-3v1h-2l-3,1h-3l-3,1h-3v3l-2,2h-1l1,1v1h1l1,1h1v1l1,1h1l-1,1v1l-2,1h-5l-2,1l-1,1l-1,2l-2,1l-1,2v1l1,1h-1v3h-1v1M252,170h-1l-1,1l-1,-1h-1l-2,1h-1l-1,-1h-4v-3h-1v-1h1v-3h-1l-1,-1v-2h-1v-4l-3,-3h-3l-1,1l-1,-1v1h-1l-6,6h-3l-1,-1h-2v-1l-1,-1h1v-4h-1l-3,-3h-1v-1h-1l-1,1h-3l-1,1h-2l-1,1h-1v1l-1,1l-4,2h-1l-4,2h-2l-2,1h-15l1,-1h-1l-1,1l-2,1h-1l-2,1l-1,1h-1l-2,1l-1,1M432,52h-2l-1,1h-1l-3,1l-1,1h-2v1h-2l-2,2h-2l-1,1h-9l-1,1h-2v3h-1l-2,1h-2l-2,1h-2l-3,1h-2l-1,1h-2l-2,1l-1,1h-2l-1,1h-3l-1,-1v-1h1v-1h1l1,-1h2v-1l3,-3h1v-4h1v-3l-1,-1h-4l1,-1h-3v-2l-1,1h-2v-2h-5l-1,-1h-6l-1,-1h-4l-1,1h-1l-1,1h-6l-2,1h-3l-1,1h-1l-1,-1h-2v1v-1h-4l-1,1h-5v-1l1,-1h-1l-2,2h-3l-2,1h-2l-2,1h-2l-2,1h-4l-2,1h-2l-2,1h-2l-2,1h-2l-2,1h-2l-2,1h-1l-2,1h-2l-2,1h-2l-2,1h-2l-1,1l-2,1h-2l-2,1h-1l-2,1h-2l-2,1l-1,1h-2l-2,1h-1l-2,1h-2l-1,1l-2,1h-2l-1,1h-2l-1,1l-2,1h-1l-2,1l-1,1h-2l-1,1l-2,1h-1l-2,1h-1l-2,1l-1,1h-1l-2,1l-1,1h-1l-2,1l-2,2h-2M545,509v-3l-8,-5h-7l-8,2l-5,1h-2v1l-2,4l-1,1l-1,2v4l-2,6l-1,2v2M471,532h-5v-3l-1,-1v-3h-1v-2l-1,-1v-3l-1,-2l-1,-1h-1v-3l-1,-1h-1v-2h1l-1,-1v-1h1l1,-1h-1v-1l-1,-1l2,-2v-1h-1v-1h-1v-1h-1l-1,-1v-2l-1,-1v-3l-1,-1v-1h1l-2,-1l-1,-2l-1,-1v-1M449,429l1,2l1,1l1,2l1,1l2,4l1,1l1,2v1h-1v1h-1v1l-1,1l1,5l-1,1v1l1,2v1l1,1h-1v1l-2,2v1l-1,1v2l1,2v1l-2,2v1l1,1l1,3l1,1h2v1h-1v3h-2v1l-1,2h-1l-1,1v1h1v2l-1,1h-1l-1,1l1,1v1l-1,1v1l-1,1h-3v1M399,340h-3l1,1v1h1l1,1v4h-1l-1,1v2l-1,2l-1,1l-1,2l-5,5l-8,4h-1l-1,1h-2l-2,2v1l-1,1h1v1h-1v-1h-1v3l-1,1v1h-1v3h-1v1h1v1h-1v1h-1v1h-1l1,1h-1v1h-3l-1,-1v-1l-1,-1v-1h-3l-1,-1h-1l-2,2h-1v-1h1v-1l-1,-1v-1h2v-1h1l-1,-1v-3"/>
<path class="sb" d="M445,372l-3,-3v-1h-1v1h-1l-2,-1l1,-1l3,-5l1,-2l1,-1l-1,-1h-2v-1h-2l-2,-2h-1l-1,1h-4l-1,-1h-1l-2,2h-2l-1,1l-1,-1h-2l-1,1h-1v-1h-2v-4l-1,-1v1l-1,-1h-1v-2l-1,-1v-1h-2v-1h-3v-1h-1v-2l-3,-3h-1v-1h-2l-1,-1h-1v1l-2,-1h-1l-1,-1h-1l-1,-1h-1l-2,-1h-1v2h-5l-1,-1h-2l-1,-2h-1v-1h-2l-1,-1h-2l-2,-2h-2v-1l-1,-1M472,326l-1,-1h1l-1,-1v-2l-1,-1v-1l-1,-1h1h-1v-3h-1l-3,-3h-2v-1l3,-2l1,-1h1v-1l-2,-2v-1h-1v-1l-1,-1v-3l-1,-1v-1l1,-2v-2l-1,-1l1,-1h1v-2l2,-2v-2h-1l-2,-1h-1v1h-10l-1,1h-2l-6,-6h-3v-1h-3l-2,1h-2l-2,-1l-1,1h-3l-2,-2v-1h-2v-5h1v-2l-1,-1h-1l-1,-1v-2l-1,-2h-1l-1,-1h-1l-1,1h-1l1,-1v-1h1v-1l2,-2v-3l1,-3l3,-3v-1l1,-1h1l2,-3l1,-1h2l2,-1h1v-1M525,294l-6,-6l3,-3l-1,-1v-2h1l1,-1h3l2,-1v-1h1l-1,-1h-2v-1l-1,-2h1v-2h2l1,-1h1l1,-1v-1h2v-1l-2,-2M562,321l-1,-1h-1v-1l-2,-2v-1l-1,-1v-1l-1,-1v-2h-1v-2h-3v-1l-2,-2v-1l-2,-2v-1h1v-2h1v-2l-1,-1h1v-1h5v-1l1,-1h-1v-2h1M578,318h1l3,-3v-3l1,-2v-2l-1,-1v-1h-1l-1,-1v-3h-1v-1l1,-1h-1v-3l3,-3M574,628l-1,-1v-5h1v-1h1l2,-2h-1v-1h-1l-2,-2v-3h-1l-1,-1h-1l-2,-2v-1h-1v-1l-2,-1l-1,-1h-2v-2h-1v-1l-1,-1l-2,2h-1v-3h-1v-1l-2,-1l-2,-3h-1l-1,-1l-2,2h-2l-1,-1M571,557v-1l1,-2v-1l1,-2l1,-3v-4l-2,-2h-1l-1,1h-2l-1,1l-1,-1h-1v-3h-1v-1l1,-1l-1,-1v-6l-1,-1v-2h-4v-1l-1,-1h-1v1l-1,1v-1l-1,1h-1l-1,-1h-4l-1,-1h-2l-1,-1h1v-5l1,-1h-1h1v-5h-1v-3h-1v-2l1,-1h1v-1l-2,-2l1,-1v-1l1,-2l1,-1v-1h1v-1h-1l1,-1v-3l1,-1v-1h1h-1v-1l-1,-1l-1,-3v-1h-1l-2,-1l-2,-2v-5l1,-1v-2h-15v-5l-2,-4l-1,-1v-1h2v-4l-1,-2v-4l-2,-2l-2,-1l-1,-1h-1l-2,1h-3l-1,-1h-1l-1,-2v-1h-4l-1,-1h-1l-2,-2v-1h-3l-1,-1h-1l-1,-1l-2,1h-1l-1,-1h-2v-1l-1,-1h-1l-2,-2h-1v-1l-1,-1v-1h-1v-1l-1,-1v-6l-1,-1v-1l1,-1v-1l1,-1l-1,-1v-2h-5l-3,1h-2l-2,1l-3,3h-2l-3,3h-2l-1,1h-1l-1,2h-1l-1,1h-2l-1,-1h-10l-1,1h-2l-1,-1l-1,1v-13l1,-1l-1,1h-1v1h-1l-3,3h-1l-2,1h-5v-2h-1v-1l-1,-1h-1l-1,-1h-5l2,-2v-2h-1l-1,-1v-1h-1l-1,-1v-1h-1v-1l-1,-1v-1l-1,-1v-2h-1v-1h-1v-2h2v-2h-1v-1l1,-1v-1l2,-1l1,-1h1v-1h1v-2l-1,-1v-1l1,-1v-1l1,-1v-1l1,-2v-2h1l3,-3h1l2,-1v-1h3l1,-1h4l1,-1h1v-1h1v-1h3l1,1h1l1,1h1v-3l1,-3v-3l1,-3v-2l1,-3v-3l1,-2v-4l1,-1l-1,-1v-1h-1v-3l-1,-1h-1l-2,-2v-6h2v-1h2l1,-1v1h3v-2h-1v-1h-5v-6h14v-2h1v1h1v1h1v-1l2,-2h1l1,-1v1h1l1,2v1l1,1v3h2l3,3h5l1,-1h2v2h1v-1l1,-1h1v-1l1,-1h2l1,-1h1l1,-1h2l2,-2v-2h1v-1h2l1,-1h2v-2h-3l-2,-1h-1v-1h1l-1,-1l-1,-2v-5h-1l-3,-3v-1l-1,-1h1v1h5v2h1l2,-1h1v1h1l1,-1l2,2h1l1,1h1l1,-3h1v-1h4l3,-1h2l1,-1h1v-1h3l1,-1v-1h2v-3h-1l1,-1v1h3v-1h1v1h1l1,1h-1v3h-1v1h3l1,1v2l1,1v2h-1v1l-1,1v2l-1,2v6h2v5h2v1h1v1l1,1h3v1h3l1,-1v-1h1v-1h1v1h2v-1h1l1,-1h2l2,-2h2v1h7l2,1h1v-2l-2,-2h1v-2h1v1h5l1,-1h1v1v-1h1v1h2v1h1v1h1l1,1h4l1,-1h1l1,1h1v-1h2v1h3l1,-1h1l1,-1v-1l1,-2v-2h1v-1h1v-1h1v-2h1v-1l2,-2"/>
<path class="sb" d="M862,197v-1l-1,-2l-1,-1v-1l-1,-1v-1h1v-1h1v-1h3v1h1v-1h-1h2v1h2v-2h2v-1h1v-1h-1l-1,-1v-1h-1v-1h2v-1l1,1h1v1h1l1,1h1v-1h-1v-1l-5,-5v-1l-1,-1l-1,-2h-1v-1l-1,-1l-1,-2h-1v-1h-1v-1l-3,-3M913,221l-1,-2l-1,-1v-1l-2,-2l-3,-6l-2,-1v-1l-1,-1v-1l-3,-3l-1,-2l-3,-3v-1l-4,-4v-1l-1,-1v-1h-1v-1l-1,-1v-1h-1l-1,-1v-1l-3,-3v-1l-2,-2v-1h-1v-1M944,274l-1,-1l-2,-4v-2h-1l-2,-4h-1v-1l-1,-1v-1l-1,-2l-1,-1v-1l-2,-3l-2,-4h-1v-2l-1,-2l-1,-1v-1l-1,-1v-1l-2,-2l-3,-6l-2,-3v-1h-1l-1,-2v-1l-2,-2l-1,-2l-1,-1h1h-1v-2h-1v-2l-2,-1l-1,-2v-1l-1,-1v-1h-1v-1l-1,-1v-1h-1v-2h-1M838,222h1l1,1l3,1h2l1,1h1l1,1h3v-1l-1,-1v-1h1v-3l-1,-1v-2l-1,-2v-2l1,-1h2v-3h1v-1h1v-1h-1v-4h-1v-2h1v-2l1,-1h-1v-1h-1h4v1h1v1h2l1,1h1v-1l1,1h1v-2h-1v-1l1,1l1,2M839,227v-4l2,1h1l1,1h1l2,1h2l1,1h2l1,1h1l1,1h2l1,1h1l1,1h1v-1l-1,-1v-1l-1,-1v-2l-1,-1v-1l-1,-1v-1l-1,-1l1,-1h1v-1l1,1l1,-1v-1l-1,-1v-2l-1,-1v-2l-1,-1v-1l-1,-1v-1l-1,-1v-1l-1,-1v-2l-1,-1l1,1h2l1,1h1l1,1h1l1,1h2l1,1h1l1,1h1l1,1h1l-1,-1v-1l-1,-1v-2l-2,-2v-1l4,4l2,1l2,2l1,2l1,1l2,1l4,4l1,2l2,2l2,1l1,2l2,1M877,280l1,1h1v-5h1v-1v1h1l2,4h1v-1h2l2,2h3l-1,-1h1v1l1,1h1l1,1h2l1,1h1l1,1h1l1,1h1l1,1h1v1h1l1,1h1l1,1h1v-2l-1,-2v-1l-1,-2l-1,-1v-2l-2,-4v-2l-2,-4v-2l-1,-1l-1,-2v-2l-3,-6v-2l-1,-2l-1,-1l-2,-4v-2l-2,-4l-1,-1l-1,-2v-2l-2,-4l-1,-1l-2,-4v-2l-1,-2l-1,-1l-2,-4l1,1l2,1h1l4,2l1,2l4,4l2,3l6,6l2,3l6,6l1,3l4,4l2,3l2,2l1,2l2,3l1,1v1h1v1l1,1l1,2l1,1v1h1v1h1v1l1,1v1h1l1,1v1l1,1h1v3h1v2l1,1v1h2v1M934,308l2,2l1,-1v-1l2,2h1l1,1h1l1,1h-1h1l1,1v-1h1v-1h-1v-5l-1,-2v-1l-1,-3l-1,-2v-2l-2,-4v-2l-1,-2l-1,-1h2l1,1h1l1,-1v-6l1,-1v-1l1,-1v-4l1,2l2,2l1,2v1l2,2l1,3M974,353l-1,-4l-1,-2v-1l-1,-3v-4l-1,-2v-4l-1,-4l-2,-4l-3,-9l-1,-2l-1,-3v-1l-1,-2v-1l-1,-2l-1,-1v-2l-2,-4l-1,-1v-1l-5,-10v-1l1,2l2,3l2,6l2,2M986,382v2M852,263v-4h2v1h3l1,1h1v-1h1v1h2l4,4v1l1,1h2v1l1,1v1l1,1v1h1v1l1,1v1h1v2h1l2,2v1l1,1v2h1v1l1,1v2l1,1v2l1,1v1h1l1,1v2h1v4l1,1M856,280l1,1h2l2,1h1v-1h2v1h1l1,1v1h1v1h1l1,1h1l1,1v1h-2l-4,-4h-1v-1v1h-4l1,1l-2,-1h-2l-1,-1l-1,1M857,289l1,1h1v-1l1,1h6l4,2h1l2,1M868,304v-1l1,-3h5v-2h-1v-2h1v-1l-1,-1v-1l2,1h1v1h1v1h1v1h1v1h2v1h3l1,1h1v2l1,1v1v-1h2l1,1v2h1v-2h1l1,1h1l1,1v1v-1h2v-1l-1,-1h1v1h1v1l1,1v1l1,2v2h1v2h1l1,1h-1v2h1v1h1v4l2,2v1"/>
<path class="sb" d="M917,329v-11h2v-1h1l-1,-1v-2h1v-1l-1,-1v-2h1l2,2h1v-1l-1,-1v-1h1v1h1l-1,-1v-1l1,-1l2,1v-1h1l1,-1h1v-1h1l1,1h1l2,2v3l1,1v2h1v2l1,1v2h1v1h1v1l1,1v1l-1,-1v1l1,1v1h1l2,4v1h2v2l1,1h-1l2,4M880,322h2v-1h1v-4h2v1h3l1,1h1v1l2,2l1,2v1l1,1v3h1v5h1v-1h1M892,343v-1l1,-1v-1h1l1,-1v-1h1v-2l1,-1v-2h1v1h1l2,2v3l1,1v4h1v1l1,1h1v-3h1v1l1,1M914,373v-1l-1,-1v-5l1,-1v-2l-1,-1v-1l-2,-2v-2l-2,-2h-1v-2h-1l1,-1v-3l-1,-3v-1h1v-4l-1,-1v-2h1v1h1l1,1v-1l-1,-1v-1l-1,-1v-2h1h-1v-3h-1l-1,-1v-5h1v-1h1v1h1v1l2,2v-2l1,1v-2l1,1v-1h1v4h1v1l1,-1h1l3,3v1l1,1v1l1,1v1h1v1h1v-1h2l1,1h1v1h1v2h1v2h1v1v-1M934,377v1v-1l1,1v-2l-1,-2v-1l-1,-1v-3l-1,-2v-12h1v-3l-1,-3v-2h-1v-4l-1,-1v-5l-1,-1v-2l-1,-1v-2h1l2,2h1l1,1h1l1,1h1v1h1v1h1v-1v1v-1l1,1M950,380l-1,-1v-1l-1,-1v-2l-1,-2v-4l-1,-1v-7l-1,-1v-1l-1,-1v-7h-1v-3l-1,-3v-1l-1,-1v-1h-1v-4l-1,-1l1,1l2,1v1h1M951,380h1v-1l-1,-2v-2l-1,-1h1l-1,-3v-5l-1,-2v-4l-1,-2v-1l-1,-2v-2l-1,-2v-2l-2,-2v-2h-1v-5h1v-2h1v1h1v1l1,-1v-3l-1,-1h1l1,-1v1l2,4v1h1v2M955,382v-6l-1,-2v-4l-1,-2v-5l-1,-2h1v-3l1,-1l-1,-1h1v-3h-1h1v-2l-1,-1v-3l-1,-1v-2l-1,-1v-1h1l-1,-1v-3l-1,-2v-1l1,-1v-1l-1,-3v-1h2l1,1h1l1,2l1,1v1h1v2h1v1l1,2v1l1,1v-1v1l1,-1l1,1l1,3l1,2l3,3v-2h1l1,1l1,2l2,2v2h1v-2l1,1v2l2,4M974,411v-2h1v-9h1v-3h1v1h1v2l1,1v3h1v-24l-1,-1v-6h1l-1,-1v-4l-1,-1v-2h-1v-2l-1,-4l1,2v2l1,1v2l1,2v1l1,2v3l1,1v2l1,2v4l1,1v3l1,1l-1,-1v-1l-1,-1v-1h-1v2l1,1v3l1,1v2l1,1v2l1,2v2l1,2v3h1v2M992,452v-2l-1,-1v-6l-1,-1v-4l-1,-2v-4l-1,-1v-7h-1v-7l-1,-1h1v-7h1v-1v1v-1v2l1,1v-1v1v-1h1v1v-4h1v1v-3l-1,-1h1l-1,-1v-4M979,434v2l1,1h1v1l1,1M979,444v1h1v1l3,3v-8l-1,-2h1l-1,-1l2,2v1h1v1l1,1v1h1v1M981,489v-1l1,-1l1,2v-11h1v1l1,1v-4l1,1v5l1,1v-1h1v1l1,-1v-15h-1v-6h1v-7l-1,-1h-1v-7h1v1l1,1v2h1v2l1,1v2l1,1v1v-13h1v2h1v3M985,500v3h1v-2h1v1v-1h1v2l-1,1v2h1v1v-1l1,-1v-1l1,-1v-1v1v-1l1,-1v-5l1,-6v-3l1,-1v-4h1v-6l1,-2v-3l-1,-2v-2l1,-3v-2l-1,-2v-3l1,-2v-4l-1,-2v-11l1,1v4l1,1v5l1,1v2l1,3v-1l-1,-1v-1h1v2M983,501v-2h1v-1h1v3h-1v1h-1v6l-1,-1M984,511h1v1l1,1v1h1v1l1,1v1l1,1v1l1,1v11l-1,1v10h1v1h1v2l1,-2v-3l1,-1l1,1v2h-1v1l1,1v8l-1,2v5l-1,1v5l-1,1v8h-1v3l-1,1v2h1v3l1,-1"/>
<path class="sb" d="M976,635v-2l1,-2v-5l1,-2v-1l1,-3v-2l1,-2l1,-3v-2l1,-3l1,-2v-3l1,-3l1,-2v-3l1,-1v4l1,1v-3h1v-4l1,-1v-3h1v-5l1,-1v1l-1,1v9l-1,1v4l1,-1l-1,2v4l-1,1v5l-1,1v3l-1,1v5h-1h1v-3l1,-2v-3l1,-1v-1v1v-4l1,-1v-4l1,-1v-3l1,-1v-5h1v-4l1,-1v-6h1v-3M962,600v1l1,-1v2h3v6l2,2v1l2,2v1l1,1v1l1,1v2l1,1h-1v5l1,1v5h1v2l1,1h1v2h1v3l-1,1v1M951,681l5,-10l1,-3l4,-8v2h1v-1l2,-3l2,-7l1,-3l2,-3l3,-10l1,-1v1l1,1v1h1v1l-1,2v1h1v-1v1l1,-1v1M962,686l1,-1v-2h1v-3l1,-1v-3l1,-1v-2l1,-1v-1l1,-1v-2l1,-1v-3h1v-3l1,-1v-3l1,-1l1,-3v-2l1,-1v-3l1,-1v-3h1v-1v3l-1,2h1v-1l1,-1v-1l1,-2v-1h1v-2l1,-1v-1l1,-1v1l-1,1M932,701h1l1,-1v-1h1v-1h1l-1,1v3h-1v2h-1v4h1v2h1v-1h1v-1l1,1v-1l2,-4l4,-6l2,-4l1,-3l2,-3l2,-4l1,-3v3l-1,1v1l-2,4v2l-1,1v1h-1v1h-1v1l-1,2v2l1,1v-1h1l1,-1h1v-1l1,-2l2,-2v-1v4l-1,1v4h1v-1l2,-2v-1l1,-1v-1l1,1v-1l1,-1l2,-3v-1l1,-1v-1v1l1,-1v-1l1,-1h1v-1v3l-1,1v3M944,728v-1v1l-1,2l-1,1v-1l1,-1l1,-2v-2l2,-2v-2l1,-1h1v-2h1l-1,2l-1,1M943,730v-1h1v-1l1,-2v-1l1,-1v-1l1,-1v-1l2,-2l1,-2v-1l1,-1l1,-2v-2l1,-1v-1l2,-2v-2h1v-3h1v-2l2,-4l1,-1v-2h1v-1l1,-1v-1l1,-1v-1l1,-2v-1l1,-1v-2l1,-1l1,-2v-1l1,-2v-1l1,-1v-2h1v-3h1v-2l1,-1M977,650v-1l1,-3v-1l1,-1v-3l1,-1v-2l1,-1v-3l1,-1M932,743h1v-2h1v-1l2,-2v-1l1,-1v-1l1,-1v-2h1v-1h-1v1h-1v1h-1v1l-1,1h-1v2l-2,2v2h-1v2l-1,1v1v-1h1v-1l1,-1v1"/>
<path class="si" d="M452,731l-1,-1v-1"/>
<path class="sg" d="M 300.3571 957.5855 A 249.7500 82.1745, 0, 1 1, 698.6429 957.5855"/>
<path class="sg" d="M 75.7634 763.9759 A 432.5797 142.3305, 0, 1 1, 923.2366 763.9759"/>
<path class="sg" d="M 0.0000 499.5000 A 499.5000 164.3491, 0, 1 1, 999.0000 499.5000"/>
<path class="sg" d="M 75.7634 235.0241 A 432.5797 142.3305, 0, 0 1, 923.2366 235.0241"/>
<path class="sg" d="M 300.3571 41.4145 A 249.7500 82.1745, 0, 0 1, 698.6429 41.4145"/>
<path class="sg" d="M 8.9714 405.2561 A 470.7484 499.5000, -259.12444404, 0 0, 990.0286 593.7439"/>
<path class="sg" d="M 277.9437 51.8249 A 392.8009 499.5000, -206.33100411, 0 0, 721.0563 947.1751"/>
<path class="sg" d="M 419.0422 6.5225 A 209.6027 499.5000, -189.26939129, 0 0, 579.9578 992.4775"/>
<path class="sg" d="M 509.8871 0.1080 A 29.7584 499.5000, -178.80844883, 0 1, 489.1129 998.8920"/>
<path class="sg" d="M 606.2402 11.5381 A 261.1457 499.5000, -167.66107423, 0 1, 392.7598 987.4619"/>
<path class="sg" d="M 775.6073 83.2489 A 422.5593 499.5000, -146.44292452, 0 1, 223.3927 915.7511"/>
<text x="0" y="0" class="fs" transform="translate(123,218) rotate(111)">120W</text>
<text x="0" y="0" class="ft" transform="translate(123,218) rotate(111)">120W</text>
<text x="0" y="0" class="fs" transform="translate(298,167) rotate(101)">90W</text>
<text x="0" y="0" class="ft" transform="translate(298,167) rotate(101)">90W</text>
<text x="0" y="0" class="fs" transform="translate(528,152) rotate(88)">60W</text>
<text x="0" y="0" class="ft" transform="translate(528,152) rotate(88)">60W</text>
<text x="0" y="0" class="fs" transform="translate(750,176) rotate(75)">30W</text>
<text x="0" y="0" class="ft" transform="translate(750,176) rotate(75)">30W</text>
<text x="0" y="0" class="fs" transform="translate(905,234) rotate(67)">0W</text>
<text x="0" y="0" class="ft" transform="translate(905,234) rotate(67)">0W</text>
<text x="0" y="0" class="fs" transform="translate(640,836) rotate(15)">60S</text>
<text x="0" y="0" class="ft" transform="translate(640,836) rotate(15)">60S</text>
<text x="0" y="0" class="fs" transform="translate(740,613) rotate(12)">30S</text>
<text x="0" y="0" class="ft" transform="translate(740,613) rotate(12)">30S</text>
<text x="0" y="0" class="fs" transform="translate(776,359) rotate(12)">0N</text>
<text x="0" y="0" class="ft" transform="translate(776,359) rotate(12)">0N</text>
<text x="0" y="0" class="fs" transform="translate(738,142) rotate(13)">30N</text>
<text x="0" y="0" class="ft" transform="translate(738,142) rotate(13)">30N</text>
<path class="tb" d="M127,998h-2l-1,-1h-2l-1,-1h-2l-1,-1h-2v-1h-3v-1h-2l-1,-1h-2v-1h-2l-1,-1h-2v-1h-2v-1h-2l-1,-1h-2v-1h-2v-1h-2v-1h-2v-1h-2v-1h-2v-1h-2v-1h-2v-1h-2v-1h-1l-1,-1h-1v-1h-2v-1h-2v-1h-1v-1h-2v-1h-1l-1,-1h-1v-1h-2v-1h-1v-1h-2v-1h-1v-1h-1l-1,-1h-1v-1h-1v-1h-1l-1,-1h-1v-1h-1v-1h-1v-1h-2v-1h-1v-1h-1v-1h-1v-1h-1l-2,-2h-1v-1h-1v-1h-1v-1h-1v-1h-1v-1h-1v-1h-1v-1h-1v-1h-1v-1h-1v-1h-1v-1h-1v-1h-1v-2h-1v-1h-1v-1h-1v-1h-1v-1l-1,-1v-1h-1v-1h-1v-1l-1,-1v-1h-1v-1l-1,-1v-1h-1v-1l-1,-1v-1h-1v-2h-1v-2h-1v-1l-1,-1v-1l-1,-1v-1l-1,-1v-2h-1v-2h-1v-3h-1v-2h-1v-4h-1v-3h-1v-5h-1v-6l-1,-1v-17h1v-7h1v-4l1,-1v-3h1v-3h1v-3h1v-2l1,-1v-2h1v-2h1v-2h1v-2h1v-2h1v-2h1v-2h1v-1h1v-2h1v-1h1v-2h1v-1h1v-1l1,-1v-1h1v-1h1v-1l1,-1v-1h1v-1h1v-1h1v-1h1v-1h1v-1h1v-2h1v-1h1v-1h1v-1h1v-1h1l3,-3h1v-1h1v-1h1v-1h1v-1h1v-1h1v-1h1l1,-1h1v-1h1v-1h1v-1h1l1,-1h1v-1h1v-1h2v-1h1v-1h1v-1h2v-1h1v-1h2v-1h1v-1h2v-1h1l1,-1h1v-1h2v-1h1l1,-1h1v-1h2v-1h2v-1h2v-1h1l1,-1h1l1,-1h1l1,-1h1l1,-1h1l1,-1h2v-1h2v-1h2v-1h2l1,-1h2v-1h2v-1h2l1,-1h2v-1h3v-1h2l1,-1h2v-1h3v-1h3v-1h159v1h3v1h3v1h2l1,1h2v1h3v1h2l1,1h2v1h2v1h2l1,1h2v1h2v1h2v1h2l1,1h1l1,1h1l1,1h1l1,1h1l1,1h1v1h2v1h2v1h2v1h1l1,1h1v1h2v1h1l1,1h1v1h2v1h1v1h2v1h1v1h2v1h1v1h1v1h2v1h1v1h1l1,1h1v1h1v1h1v1h1l1,1h1v1h1v1h1v1h1v1h1v1h1v1h1l3,3h1v1h1v1h1v1h1v1h1v2h1v1h1v1h1v1h1v1h1v1h1v1l1,1v1h1v1h1v1l1,1v1h1v1h1v2h1v1h1v2h1v1h1v2h1v2h1v2h1v2h1v2h1v2h1v2l1,1v2h1v3h1v3h1v3l1,1v4h1v7h1v17l-1,1v6h-1v5h-1v3h-1v4h-1v2h-1v3h-1v2h-1v2l-1,1v1l-1,1v1l-1,1v1h-1v2h-1v2h-1v1l-1,1v1h-1v1l-1,1v1h-1v1l-1,1v1h-1v1h-1v1l-1,1v1h-1v1h-1v1h-1v1h-1v2h-1v1h-1v1h-1v1h-1v1h-1v1h-1v1h-1v1h-1v1h-1v1h-1v1h-1v1h-1v1h-1l-2,2h-1v1h-1v1h-1v1h-1v1h-2v1h-1v1h-1v1h-1l-1,1h-1v1h-1v1h-1l-1,1h-1v1h-1v1h-2v1h-1v1h-2v1h-1l-1,1h-1v1h-2v1h-1v1h-2v1h-2v1h-1l-1,1h-1v1h-2v1h-2v1h-2v1h-2v1h-2v1h-2v1h-2v1h-2v1h-2l-1,1h-2v1h-2v1h-2l-1,1h-2v1h-2l-1,1h-2v1h-3v1h-2l-1,1h-2l-1,1h-2l-1,1h-2Z"/>
<path class="tl" d="M169,986h1v1h-3l-1,-1h2v-1ZM114,989h-3l-1,-1h2l1,1ZM176,983h1l1,1v1h1l-1,1h-2l-1,1h-1l-1,-1l1,-1v-2h1v-1ZM124,980h2v1h-1ZM122,980l1,1h-1l-1,-1ZM136,977h1h-2ZM156,974v1l1,1h-5v-1l1,-1v-1l-1,-1l1,-1v1h1l1,1ZM158,964v1h-2v2h1l-2,2v1h1l1,1h1l4,4v1l1,1v1h-1v2h-1l-1,1h-1v1h-2l1,1h1v1h-2l1,1h1v1h3l1,1h3l1,1h3l1,1h1l1,1v-1h1v-1h2l2,-1l1,1h1v-1h4v-1h3l1,-1h-1v-1h-4l-1,-1l1,-1h1l2,-2h4l1,-1h1l2,-2h-1v-1h1v-1h2v-1l1,-1h1v1h1v-1h8v-1h3v-1h1l1,1h2v-1h1v1l1,-1h4v1h6v-1h3v-1h2v1h3l1,-1h3v-1h2l1,-1h2l1,-1h4v1h1v1h1l1,1h1l1,-1l1,1h2v1l-2,2h-1v1h1h-1v1h-1v1h2l2,-2h1v-1h3l1,-1h1v-1h2l1,-1h5v-1h1v1h5v1h1l1,-1l1,1l1,-1h1l2,-1v1l1,1h3l1,-1h2v1h1v1h4l1,-1v1h9l1,-1l-1,1v1h-1h3l1,1h2l-1,1v1h1v1h2v1h1v2h2l1,1v1h-1l-1,1h-2l-1,1h-3l-1,1h-2l-1,1h-2l-2,2v1h-5l-1,1h-2v1h-1v3h2l-11,4h-155l-11,-4h-1h2l1,-1l1,1h14l-1,-1h-7v-1h-2v-1h-3l-1,-1h4v-1h-2l-1,-1h-7l-1,-1l-2,-1l1,1l1,-1l2,1v-1h1v-1l-1,-1h-1h2v-1h2v-1h4l1,-1h5l1,-1l1,1v-1h1l1,1h1v-1l1,1h6v-1h-2l-1,-1h-1l-1,-1h4l1,1h1l1,-1h3l-1,-1h1l1,1l1,-1l1,1h3v-1l1,1h4v-1h2l1,-1v-1h-1v-1h-1v-1h-1v-1h-1v-2l-1,-1v-1h1v-2h1v-1h1v-1h1l1,-1l1,1ZM144,951l2,1h1v1h-1v-1v1h-4l-2,-2l-2,-1l2,1h2v-2h1v1ZM151,947h1v1h-2v1l-1,-1l1,-1ZM269,946h-1v-2h1l1,1ZM345,939v1h1l1,-1v1l-3,3v-1l-1,1h-1l1,-1v-1l1,-1v-1ZM368,943v1l1,-1v1h-1l-3,3h-1l-1,1h-1l-2,2h-2v1h-1v-1h-1v-1l4,-2h1l1,-1h2l2,-2h1l2,-2ZM376,936l-1,2l1,-1l-1,1l1,1h1l-2,2h-1l-2,2l-2,1h-1l2,-1v-2l1,-1l2,-1v-1l1,-1v-3l1,-1v1l1,1ZM382,913l-1,1v-2l-1,-1v-1h1v1l1,1ZM397,906v1l-1,1h-1v-1l1,-1v1ZM398,906h-1v-1h1l1,-1v1ZM10,905v-1ZM386,904v-1ZM386,901v2h-1v-1ZM259,895v2l1,1h-1v1v-1v2h-1v3l-3,6v2h-1l-1,1l-1,-1h-1v-5h1v-2l1,-1h-1v-3h1v-1h1l2,-2h1v-1l1,-1v-1l1,-1v1ZM361,898v1h1v1h1l-1,1v2h1l-1,2v1l2,2v4h1l-1,2l1,1v3l-1,1v2l-3,3v1l-1,1l-1,2h-1l-1,2h-1l-4,4v1h-2l-1,1h-1l-1,1v-1h-1l1,-1h-1l-1,1h-1v-1h-1v-3h1l-1,-1v-1l1,-1l-1,1h-1l3,-3l-2,1h-1l-1,2v-4l-2,-2h-2l-1,1h-4l-2,2h-4l-1,1v-1l-1,1h-2v-1h-1l1,-1v-1h1v-3l1,-1v-7l1,1v-3l1,-1v-1l1,-1l-1,1l2,-2h1l1,-1h2l1,-1h2v-1h1l1,-1v-2l1,-1v2l1,-1v-1h1v-1l2,-2h2v1h2v-2h1l1,-1v-1h2v-1h-1h1l1,1h3l1,1h-1v1h-1v1l-1,1v1l2,2v1h1l1,1h1v-1l1,-1v-1l1,-1v-3l1,-1v-2h1v-1v3l1,1Z"/>
<path class="tl" d="M383,894h-1v-1v1ZM337,892l-2,-1h2ZM381,893h-1v-1h1ZM382,892v-1l-1,-1h1ZM341,892h-1l3,-3h2l-1,1h-1l-1,1ZM335,889h1v1h-3l1,-1ZM340,889v1h-3v-1h2ZM381,890v1l-2,-2h1v1ZM378,889v-1h-1v-1l1,1ZM325,887h2v-1l2,1v1h2l1,1l-1,1l-1,-1h-4l-1,-1h-1l-2,-1h-1l1,-2h1l1,1ZM353,886v1v-2ZM377,888h-1v-2l-1,-1h1v2h1ZM373,885l-1,1h-1l-1,1l-1,-1h-1l1,-1l1,1v-1h2v-2h1v1ZM345,882h-1v-1h1ZM349,881v2l-1,-1h-2v-1h2ZM374,884l-1,-1v-1l-1,-1h-1h2v2h1ZM353,878v3l2,1v-2l2,-1h1l1,1h1l1,1l4,2v1h1v1l2,1v1h-1v1l1,1v2h1v1h1h-1l1,1l-1,1v-1h-2l-1,-1v-3h-3l-1,1v1h-2l-2,-2v1h-2l1,-2h1l-1,-2v-1l-2,-1h-1l-1,-2l-1,1l-1,-1h1l-1,-1l1,-1h-1v-1h-1l-1,-1h2v-1ZM343,875l-1,1h-4v1l1,2v-1h2l-1,1h-1l1,2v1l1,2v1h-1v-2l-1,1v-1l-1,-1l1,-1h-1v4h-1v-3h-1v-1l1,-1v-4h1v-1h4l1,-1ZM347,875v1h-1v1l1,1h-1v-4h1ZM321,885h-1l-2,-2v-1l-2,-2l-1,-2v-2l-1,-1v-1l-4,-4v-1h2l3,3l1,2h1l2,2h1l-1,2h1v1l1,1h1v3ZM335,874l1,1h-1v3l-1,1v1l-1,3v-1l-1,1l-1,-1h-1v-1l-1,1l-1,-1h-1l-2,-4v-2l1,-1h2v-2h2v-1l1,-1v-1h1l1,-1v-2h1v1l2,2v1h-1l-1,2l1,1ZM344,864v3l-1,-1v2l-2,-2h1l-1,-1v1l-1,-1l-1,1v-1l1,-1h2v-1h1v-1l1,1ZM294,868h-1v-1l-1,-2l1,-2l1,1v1l1,1v1ZM137,863h-1l1,-1h1ZM341,861v1l-1,1l-1,-1l1,-1v-1v1l1,-1ZM335,863l-1,1v-1l1,-1v-1l1,-1v1l-1,1ZM338,859h2v1l-1,1v-1h-1ZM342,858l1,2h-1v1v-1h-1v-1h1h-1v-1ZM338,857l-1,1l-1,-1h1ZM336,849h1v6h1l2,1v2l-1,-1v-1v1l-1,-1h-2v-1h1h-1l-1,-1v-5ZM133,851v1h-1v-1ZM121,852h-1v-1h2v1ZM126,849h3v1h1v1h-2l-1,1v-1h-1v-2h-1ZM324,849l-1,1h-1v-2l1,-1h1v1ZM37,846v-2h1v2ZM38,844h-1v-1h1ZM119,845h2l1,1v1h1v1h2l-1,1h-3v-1h-1v-2h-2l-1,-1h-1h1h-2l-1,1h-1l2,-2h3ZM122,843h-1v-1l1,-1v1ZM334,843v1l-2,-2v-2l1,-1l1,1ZM122,839l-1,1v-1ZM123,839v1v-1h-1ZM340,825h1v1h-1v1h-1v-2ZM240,828l-2,2v-1h-1h2ZM229,828v1h-1ZM220,825v2h-1l-1,-1h-1v-1h2ZM214,821v3h-1v-3ZM344,820v1l1,1v1l-1,1h-1l-1,2l-1,-1v-1l-2,1l-1,1h-1l2,1v3l-1,-1v-1h-1l-1,-1l1,-1v-3h3v-3l1,1v-2h1l-2,-4v-1l3,3v1ZM214,820v1l-1,-1v-1l1,-1ZM340,810l1,-1l1,2h-1v2l-2,-1l1,2h-1l-1,-2l-1,-1h1l-1,-2l-1,-1l3,1ZM144,812l1,1h1h-2ZM147,809h-1l-1,-1h1ZM92,806h-1l-1,-1v-2h-1v-1h1l1,1v1l1,1ZM153,807l-1,1h1v1h2l-1,1h1v1l-1,2l-1,-1l1,-1l-2,1v-1h-3l1,-1h-1l4,-4h1Z"/>
<path class="tl" d="M90,797h1l-2,2v1v-3ZM332,800l3,3l-2,-1l1,2l2,2v1l-2,-2l-1,-2l-6,-6v-1h-1h1l3,3ZM198,806l-1,1h-2l1,-2v-1l2,-2h1v3ZM216,801l-1,2l-1,-1v-1h1ZM79,791h-1v-1h2ZM202,797l-1,2h2v1l-1,1h1l2,4h1v1l-1,1h1l-1,1h-3l-1,1h-2l2,-2h-1v-1h1l-1,-1v-1h2l-1,-1h-1v-2l-1,-1l1,-2v-1l1,1ZM75,786h-1v-1h1ZM141,790l-1,1v-1ZM139,790h-2l1,-1h1ZM78,780v1h1h-2v-1ZM139,786h1v1h1l-1,1h1l-1,1l-1,-1h-1l-2,1l1,-1h-1h1l1,-1l1,-2ZM193,787v1l1,1l-1,1h-3l-1,1l-1,-1h-2l1,-1h-1h1v-1h-2l1,-1h1l1,1l2,-1h2ZM147,784h-1l1,-1h2l-1,1ZM81,776v1l1,-1h2l-1,2h-3l-1,1h-1l-1,-1h1v-1h-1h1h-2l-1,1l8,-5v1l-1,2ZM135,780l-1,1v-1h-1l1,-1h1ZM322,771h-1ZM88,771h-1h2ZM139,780l-1,2l2,-1v1h-1v1l1,-1l2,-1l1,-1h2v2h-1v1l-1,1l-2,1h-1v-1l-1,1l-2,1v1h-3l-2,2h-1l-1,1l-2,1l-1,1l-1,2h1l-1,1v1h1l3,3l2,1h1l-2,2v2l1,1h1l2,-4h-1l4,-2v-1l1,-1v-1l-1,-1l2,-1l2,-4l1,1h1l1,-1v1l1,1h1v2l-1,1l1,1h2l1,-2h1v3l1,1l-1,1l1,1v1h1l1,1v1l1,1l-2,2h-2l-2,2h-1l-2,-1h-2l-2,1l-1,1l-2,1l-1,1l2,-1l3,-1h2l-1,1l-1,2v1l1,1l2,-1l1,-1v1h1l-4,2h-1l-2,1v-1l2,-1h-3v1h-1l-1,1h-1l-2,2l1,1v-1v1h-3l-1,1l2,-1v1h-2l-2,2v1l-1,1l-1,-1l1,-1l-1,1v4l-1,1h-1l-1,1h-1l-3,3h-1v8l-1,1h-1v-3l-1,-1l1,-1l-1,-2l-1,1l-1,-1h-4v1h-1l-1,-1l-1,1l-1,-1l-2,2h-2v1h-1v3l-1,1v1l-1,2v4l1,1v1h1v1l1,-1h3v-1l1,-1v-1l1,-1h3v1l-1,1v2l-1,1v-1v2l-1,1v1h5v1h1v1l-1,1v3l-1,1h1v2h1v1h2l1,-1h1v1h1l1,1l1,-1v-2l1,-1h2l2,-2v2h-1h1v1l-1,1v1h1v-3h1v-1h1v1h1v1h3l1,1l1,-1h1l1,1h1v1l1,1h1v1h1v1l1,1l2,1v-1h1l1,1h1l1,1v1h1v1l1,2v1l-1,1l1,1h2v1v-1l4,2v1h1l3,1h1l2,1l2,2h2v5l-1,1l-1,2l-2,2v9l-1,2v2h-1v1h-2l-1,1h-1l-3,3v5l-1,2l-2,2v2l-2,2v-1l-1,1l-1,-1h-1v-1v1l1,1v1l1,1v2l-2,1h-3l1,1v2l-1,1l-1,-1h-1l1,2h2l-2,2l1,1v1h-1l-1,1v1l2,1h1v1l-1,1v2h-1v1l2,2h-1l-1,1v1h-1l-2,-1l-3,-3l-1,-3v-1l1,-1h-2l1,-2l-1,-2h1v-2l-1,-1v2l-1,-2v-4l-1,-1l-1,-2h1v-6l-1,-2v-8l-1,-2v-6l-1,-2l-1,-1l-2,-1l-3,-2l-1,-1v-1l-1,-2l-1,-3l-2,-3l-2,-2v-1l-1,-2l2,-2v-1h-1v-3l1,-1v-1h1v-2h1l1,-1v-5l-1,-1v-2h-1v1h-1v1h-1l-1,-1h-2v-2h-1v-1v1h-1v-3l-2,-2h1h-2v-1h-2l-1,-1l-1,-2h-1l-1,-1v1h-2l-1,-1h-2l-2,-2h-1l-1,-1v-1h-1v-3h1l-1,-1v-3l-1,-1v-1l-1,-1v-3h-1v-5l-1,-1l-1,1v4h1l-1,1h1v5h1v2h-1v-1l-1,-1v-3l-1,-1v1v-1h-1v-1h1v-9h-1v-1h-1v-9l2,-2v-1l1,-2l2,-2l1,-2l1,-1v-1h1v1l2,-2h-1v-2l-1,-1v-1l1,-1l-1,-1l1,-1v-1l1,-1l-1,-1l1,-1v-1l1,-1l-1,-1h-1v-2h-1v-1h-1l-1,-1h-1l-1,1h-4l1,-1l2,-1h-1l-1,1l-2,1h-1l-1,1l-2,1h-2l-2,1h-1l-1,1h-3l-1,1h-2l1,-1h2l2,-1h2l2,-1h1l2,-1l1,-1h-3l1,-1l-1,1h-1l2,-2h-1v-1l2,-2l2,-1h3l1,-1h1l1,-1h-3v-2h4l1,1l1,-1v-3h4l1,-1h2l2,-1l1,1l1,-1h1l-1,1h1l1,1h2l1,1h2v1l1,1l1,-1h6l1,-1v2l2,-1l-1,1h2l1,1h2v1l-2,1h4v1l2,-2h2v1h1l1,1h2v-1h1l1,1l-1,1l1,-1h1l1,-1v-2l1,-1l2,-1l1,1l-2,2Z"/>
<path class="tl" d="M128,774l-1,1h4l-1,1h1l2,-2v1l-1,2v1l1,1h-2v1h-8v-1h-1v-1h4l-1,-1h-3l2,-1h-1l1,-1h1ZM135,774l-2,1v-1h1ZM152,776v1l-1,-1l-1,1v-2h2ZM146,776v1l1,-1l2,-1v2h3l1,1l-1,1l2,-1v1l1,1v2h-1l2,2v1h1v1l-2,1h-1l-1,-2l-1,1v1l1,1v2l-1,1l-2,-2v1l1,1h-2l-2,-2v-1l-1,-1v1h-3v-1l1,-1h3l1,-1l2,-1v-1l-1,-1h-1l1,-1l-1,-1h-5l-1,-1h-1l1,-1h-1l1,-1l2,-1l1,-1h2ZM138,774h2l-1,1h-1l1,1l-2,1h-2v-2l1,1v-1ZM298,772h-2v-1ZM141,776l-2,1v-1l2,-2h2l1,1l-2,1ZM122,776h-2l-1,-1h1l2,-1l2,-2h2v1h2v1h-1l-3,1h-2ZM299,769v1h-3v-1h1ZM143,773v1l-1,-1h-1l1,-1h1l1,1ZM295,769l1,1h-2l-1,1l-2,-1l-1,-1h2ZM143,771h-1v1l-1,1h-2l1,-1h-1l1,-1h2ZM136,771h1v1h-4l-2,1h-1l1,-1h-1l-1,-1l2,-1h1l2,1l1,1v-2h2ZM246,780h-3l-2,-1v-1l1,-2h-1l1,-1l-1,-1h1l4,-2h2l-1,1l-2,1l-1,1v2l-1,1l1,1ZM145,770l1,1h1l-1,1h1l1,1h4v1h-7l-1,-1l1,-1v-1h-2l1,-1ZM134,769l-2,1h-4l2,-1h3ZM271,770l1,1v-1h2l2,1h1v1l-1,1h1l2,1v-1l1,1l1,-1h2l1,1h3l-2,-1h5l1,1v1h2l2,1l-1,-1h1l1,-1l2,1v-1h1l-2,-1h8l3,1l1,-1h2l2,2h2v-1h3l3,1v-1h-2v-1h7l8,5h-1l1,1l2,1h2v1h-1v1h-1l1,1v2l-2,-1v2l-1,-1v1h-1l2,2v1h1l3,2h-1l1,1h1v1l1,2h-1l1,2l1,1l-4,-2l-4,-3l-1,-2l-1,-1v-3l-1,-2v-1l-2,-2l-1,1l2,2l-3,-1l-1,1l1,2l1,1h-1l-1,1l-1,-1h-1v1h-4v7h1l2,1h1l-1,-1h1l3,1l1,2l1,1l1,2l2,2v9h-1l-1,-1v2h-1v1l1,1v1h-1v1l1,1h1l2,2v1l1,1v1l-1,1h-1l-1,-2l-1,-1h1l-2,-1v-1v1v-1h-1v-1l-1,-1h-2v1h-1l-1,-1l1,-1l-1,-1l-1,1v2h-1v1l2,2h1v-1h2l1,1l-2,1v2l2,2l1,2l2,1v2h1v6l-2,4l-1,1h-1v1l-1,-1v1l-2,1h-1v2l-1,-1v-1h-2l-1,2v2l1,1l1,2l2,2l1,3v4l-2,1v1l-2,1v-2l-1,-1h-1v-1l-2,-2h-1v-1h-1v6h1v3l1,1h1v1h1v1l1,1v3h1v2h-1l-2,-2v-1l-1,-1v-1l-1,-1v-2l-1,-1v-1h-1v-6l-1,-1v-1l-1,-2v-2l-1,-1l-2,2h-1v-3l-1,-2v-1h-1l-2,-2v-1l-1,-1h-1v2l-1,-1v1h-2v2l-2,1l-1,2v1l-2,2h-1v8l-1,1l1,1h-1l-1,1l-1,-1l-1,-2v-1l-1,-1v-1l-1,-2v-1l-3,-6v-3l-2,1h-1l-1,-2v-1l-2,-1l-1,-1v-1l-1,-1l-2,1h-5l-1,-1h-2v-2h-1l-1,1h-2l-3,-3l-1,-2l-1,1v-1l-1,1v2l1,1h1l1,1v2l1,1l-1,-1l1,-1v2h1v1l1,-1h2v-1l1,-1v-1v2l2,2h1l2,2l-1,1v1h-1v3h-1v1h-1v1h-2v1h-1l-2,2h-1l-2,2v-1l-1,1h-2v1h-2v-2l-1,-1v-3h-1v-1l-1,-1v-1l-1,-1h-1v-1l-1,-1v-3h-2v-2l-1,-1v-1l-2,-2v-1v1l-1,1l-1,-1l-1,-2l1,2l1,1l1,2v1l2,2h-1l2,2v1l1,1h-1l1,2v1l1,1l1,2v1l1,1l2,1v1h1v1h1v1l-1,1h1l1,1h3l1,-1h3v-1h1v2l-1,1v3l-1,1l-3,6l-1,1l-2,1l-1,1l-1,2v1h-1v1h-1v2l-1,1l-1,2l1,1v4l1,1v7l-1,1h-1l-3,3h-1v1l-1,1v2h1l-1,1h1v1l-1,1h1l-1,1h-1l-2,2v3l-3,3v1l-2,1v1l-1,1h-2v1l-1,-1v1l-1,-1l-1,1h-2l-1,1l-1,-1h-1v-5l-1,-1v-2l-1,-1v-1l-1,-1v-5l-1,-1v-1l-1,-2v-1l-1,-1v-3l1,-1v-3h1v-1l1,-1v-1h-1v-5l-1,-1v-2l-3,-3l-1,-2l1,-1v-5l-1,-1v-1l-1,1h-2l-1,-1v-1l-1,-1h-2l-1,1h-2l-1,1h-6l-1,1l-4,-4h-1l-1,-1v-1l-1,-1v-1h-1v-1l-1,-1v-1h-1v-3h-1l1,-1v-1h1l-1,-1l1,-1v-4l-1,-1v-1h1v-2l1,-1v-1h1v-2h1l1,-2h1l2,-2v-3l3,-3l1,-2v-1h1l1,1h2l1,-1h2l1,-1h4l1,-1h1v1h1l1,-1h1v1l1,-1v1h-1v1h1v2h-1v1h1v1h3l2,2h1l2,2l1,-1v-2l1,-1h2l1,1h1l1,1h2l1,1h1v-1h2l1,1v-1h1l1,1v-2l1,-1v-5h-2l-1,1l-1,-1h-2v1l-1,-1h-2v-1l-1,-1v-2l1,-1h1v-1h2l1,-1h1l2,-1l2,1l1,1h2l1,-1v-2h-1l-2,-2h-1l-1,-1l1,-1l-1,-1h2l-1,-1v1h-2l-1,1v1h1l-1,1h-1v-1h-1l1,-1h-2v-1h-1v1l-1,1v1h-1v4l1,1h-2v1h-1v-1h-2l1,1h-2v1l1,1h-1h1l1,1v1l-1,-1v1h-1l1,1h-2v-2l-1,-1v-1h-1v-3h-1v-1h-1l-1,-1h-1l-1,-1v-1l-1,-1v1v-1h-2v1l2,2v1l1,1h1l1,1h1l1,1v1l-1,-1h-1v1h1v1h-1v1h-1v-1h1l-1,-1v-1h-1l-1,-1h-1l-2,-2l-1,-2h-2v1h-4l-1,1v2h-2v1l-1,2h1l-1,1v1h-1l-1,1h-2l-1,1l-2,-2v1h-2l1,-1v-1h-1v-2l1,-1v-3l-1,-1l2,-1l1,1h5v-4l-1,-1v-1h-2v-1h3v-2l1,1l2,-1v-1h1l1,-1l1,-2l1,-1h2v-5h2l-1,1h1v1l-1,1v1h1v1l1,-1h2v1h1l2,-2l1,1h1v-1h1v-3l1,-1l1,1v-1l-1,-1v-1h4l1,-1h-4l-1,1l-2,-2v-4l2,-1v-1l-1,-1l-2,2l-1,2l-1,1v3h1v2h-1v2l-1,2h-1v1h-1v-2l-1,-1l-1,-2l-1,-1l-1,2h-1l-2,-1v-5l2,-1l3,-3l2,-3l3,-3h2l1,-2h3l2,1l-1,1h2l1,1h3l3,1l1,1v1l-1,1h-1l-3,-1h-1l2,1v2l1,1h1v-1h-1l1,-1l2,1v-1l1,-2h1l1,1v-1l-1,-1v-1l-1,-1l2,1h1l-1,1l1,1h1v-1l1,-1l2,-1h1v1l1,-1h1l1,-1l1,1l1,-1h-2l1,-1h2l1,1l4,1v-1h-2v-1h-1l-1,-1v-3h2l1,1v1h1l1,1l1,2h1v3l1,1v-1h1l-1,-1l1,-1h-1l-2,-2v-1l-2,-1l1,-1l-1,-1h1l1,2l-1,-1l1,-1h2l1,1l-1,-1l-1,-2h4l-2,-1v-1h1l1,-1h3l1,-1h1v-2l2,1h-1ZM253,820l1,1v2h-1v1l1,1h1l1,1h3l-1,-1v-2h-1v-2h1v-1l-1,-1h-1l1,1l-1,-1v-1h-2v-2h-1h1v-2l1,1v-3h-2l-1,1h-1v1h-1l-1,2l2,1v1l1,1Z"/>
<path class="tl" d="M146,770h-1v-1h1l1,1ZM137,769h-2l1,-1h1l1,1ZM220,771l-1,1h-1v-1h-1l2,-1v1ZM139,768h-2l1,-1v1ZM146,769h-1v-1h1l1,1ZM144,769h-1l-1,-1h-1h1v-1h1l1,1ZM268,768l-3,1v-2ZM215,769l3,1h-2v3h-1l-2,-1h1l-1,-1l-2,-1v-1l1,-1l1,1h1v-1h1ZM220,768h1l-1,1h-4l-1,-1h3ZM234,767l-1,1h-1v-1h-1h4ZM264,768h-4l-2,-1l-1,-1h1l1,-1l4,2ZM153,767v1h-1l-2,1h-2v-1h1h-1v-1l1,-1h2v-1h1v1h1ZM167,764h3v1h-3l-1,1h-1l-1,1l-2,1h-3v1h-1v1h-2l-2,1h1l-2,1h-4l-1,-1h2v-1h2v-1h-1h1l1,-1h1l-1,-1h4l-1,-1h-3v-1l1,-1h6v-1h3v1l2,-1l1,1ZM190,764l3,1h-6v1h5l-1,1l2,-1h4v1l-2,1h-1l-2,2v2l1,1h-2l1,1l-1,1v1h-1l1,1h-3l1,1v1l-1,-1l-1,1h1l1,1v1h-2l-1,-1v1l-1,1h3l-4,2h-3l-1,1l-4,2h-1l-2,1h-1v1l-2,2v1l-1,1l-1,2h-1l-1,-1h-1l-1,-1v-2l-1,-1v-1l1,-1l-1,-2l1,-1l1,-2h1l1,-1v-1l-1,1h-1v-1l1,-1h1l-1,-1h-1l1,-1v-4l-1,-1h-5v-1l-1,-1h1l-1,-1l1,-1h2l3,-1h1l-2,-1h1l3,-1h1v-1h9l1,1l-1,-1h1l2,-1h3l2,-1Z"/>
<path class="th" d="M133,908v-1v1v-1h2v1h1v-1h1v1h1v1h1v1h2v1h2v3h1v1v-1h1v1v-1v1v-1h1v-1h1v-1h1v2h-1v1v-1v1h-1v1h-1v2h-1v3h1h-1v1h1h-1v1h1v2h1v1h1v3h-1v1h-3v1v-1h-1v1h1h-1h1v2h-1v1v-1h-2v1h1v1h2v1h-1v-1h-1v1h1h-1v1h1h-1h1v1h-1v1h1h-2v2h1v1h2v1h-1h1h-1v3h-1v-1v1h1h-1v1h1v1h-1h1v1h1h-4v-2h-2v-6h-1v-2h-1h1v-1h-1v-2h-1v-4h-1h1v-1h-1h1v-1h-1v-7h-1v-2h-1v-1h1h-1v-1h1h-1h1v-1h-1v-2h1v-6h1v-1ZM144,952v-1h-1v-1h1v1h1v1h1v1v-1h-1ZM148,952h-1ZM143,932v1Z"/>
<path class="tg" d="M66,970h1l1,-1h4v-1h5v-1h5v-1h6v-1h6l1,-1h7v-1h8v-1h9l1,-1h11v-1h14v-1h20v-1h79v1h20v1h14v1h11l1,1h9v1h8v1h7l1,1h6v1h6v1h5v1h5v1h4l1,1h1M21,927h6v-1h7v-1h8v-1h10v-1h10v-1h12v-1h14v-1h18v-1h23v-1h38v-1h75v1h38v1h23v1h18v1h14v1h12v1h10v1h10v1h8v1h7v1h6M5,877h399M21,826h4v1h7v1h8v1h9v1h10v1h11v1h14v1h16v1h21v1h32v1h103v-1h32v-1h21v-1h16v-1h14v-1h11v-1h10v-1h9v-1h8v-1h7v-1h4M66,783v1h5v1h4v1h5l1,1h5v1h6l1,1h6l1,1h7v1h10v1h10v1h13l1,1h17v1h36v1h21v-1h36v-1h17l1,-1h13v-1h10v-1h10v-1h7l1,-1h6l1,-1h6v-1h5l1,-1h5v-1h4v-1h5v-1M140,755h-1v1h-3v1h-2v1h-2v1h-2v1h-2v1h-2l-1,1h-1l-1,1h-1l-1,1h-1v1h-2v1h-2v1h-2v1h-1l-1,1h-1v1h-2v1h-1l-1,1h-1v1h-2v1h-1v1h-2v1h-1v1h-2v1h-1v1h-1l-1,1h-1v1h-1v1h-2v1h-1v1h-1v1h-1v1h-2v1h-1v1h-1v1h-1v1h-1v1h-1v1h-1l-1,1h-1v1h-1v1h-1v1h-1v1h-1v1h-1v1h-1v1h-1v1h-1v1l-1,1v1h-1v1h-1v1h-1v1h-1v1h-1v1l-1,1v1h-1v1h-1v1h-1v2h-1v1h-1v2h-1v1h-1v2h-1v1h-1v2h-1v2h-1v1h-1v2h-1v2h-1v2h-1v2h-1v2l-1,1v2h-1v2l-1,1v2h-1v3h-1v4h-1v4h-1v5h-1v9h-1v13l1,1v8h1v5h1v4h1v4h1v3h1v3h1v2h1v3h1v2h1v2h1v2h1v2h1v2h1v2h1v1l1,1v1h1v2h1v1h1v2h1v1h1v1h1v2h1v1h1v1l1,1v1h1v1h1v1h1v1l2,2v1h1v1h1v1h1v1h1v1h1v1h1v1h1v1h1v1h1v1h1v1h1v1h1v1h1v1h2v1h1v1h1v1h1v1h1v1h1l1,1h1v1h1v1h1v1h2v1h1v1h1l1,1h1v1h1v1h2v1h1v1h2v1h1l1,1h1v1h2v1h1v1h2v1h2v1h1l1,1h1v1h2v1h2v1h2v1h2v1h2v1h2v1h2v1h2l1,1h2v1h2v1h2M153,755h-1v1h-2v1h-2v1h-1v1h-2v1h-2v1h-1v1h-2v1h-1v1h-2v1h-1v1h-2v1h-1v1h-1v1h-2v1h-1v1h-1l-1,1h-1v1h-1v1h-1v1h-1v1h-1l-1,1h-1v1h-1v1h-1v1h-1v1h-1v1h-1v1h-1v1h-1v1h-1v1h-1v1h-1v1h-1v1h-1v1h-1v1h-1v1h-1v1h-1v1l-2,2v1h-1v1h-1v1h-1v1l-1,1v1h-1v1h-1v2h-1v1h-1v1l-1,1v1h-1v2h-1v1h-1v2h-1v1h-1v2h-1v2h-1v2h-1v2h-1v2h-1v2h-1v2h-1v3h-1v2h-1v3h-1v3h-1v3h-1v3h-1v4l-1,1v4h-1v6l-1,1v30h1v6h1v5h1v4h1v3h1v3l1,1v2l1,1v2h1v3h1v2h1v2h1v2h1v2l1,1v1h1v2h1v2h1v2h1v2h1v1h1v2h1v1h1v2h1v1h1v2h1v1h1v1h1v2h1v1h1v1h1v1l1,1v1h1v1h1v1h1v1h1v1h1v1h1v1l3,3v1h1l3,3h1v1h1v1h1v1h1v1h1v1h1v1h1v1h1l1,1h1v1h1v1h1v1h1l1,1h1v1h1v1h1l1,1h1v1h1v1h2v1h1v1h2v1h1v1h2v1h2v1h1v1h2v1h1l1,1h1v1h2M166,755h-1v1h-1v1h-1l-1,1h-1v1h-1v1h-1v1h-1v1h-1v1h-1l-2,2h-1v1h-1v1h-1v1h-1v1h-1v1h-1v1h-1v1h-1v1h-1v1l-2,2v1h-1v1h-1v1h-1v1h-1v1l-1,1v1h-1v1h-1v1h-1v2h-1v1h-1v1l-1,1v1h-1v1h-1v2h-1v1h-1v2h-1v2h-1v1h-1v2h-1v2h-1v2h-1v1l-1,1v1l-1,1v1l-1,1v2h-1v2h-1v2h-1v3h-1v2h-1v3h-1v3h-1v3h-1v3h-1v4h-1v4h-1v5h-1v6h-1v8h-1v30h1v7l1,1v5h1v5h1v4h1v4h1v3h1v3h1v3h1v3h1v3h1v2h1v2h1v2l1,1v2h1v2h1v2h1v2h1v1h1v2h1v2h1v2h1v1h1v2h1v1h1v2h1v1l1,1v1h1v1h1v2h1v1h1v1h1v1l1,1v1h1v1h1v1h1v1l1,1v1h1v1h1v1h1v1h1v1h1v1h1v1h1v1h1v1h1v1h1v1h1v1h1v1h1v1h1v1h1l2,2h1v1h1v1h1v1h1v1h2v1h1"/>
<path class="tg" d="M179,755h-1v1h-1v2h-1v1h-1v1h-1v1h-1v2h-1v1h-1v1l-1,1v1h-1v1l-1,1v1h-1v1l-1,1v1h-1v2h-1v1l-1,1v1h-1v2h-1v2h-1v2h-1v2h-1v2h-1v2h-1v2h-1v2h-1v2l-1,1v2h-1v2l-1,1v2h-1v3h-1v3h-1v3h-1v3h-1v4h-1v4h-1v4h-1v4h-1v5l-1,1v5h-1v8h-1v11h-1v29l1,1v10l1,1v7h1v6h1v5h1v4l1,1v4h1v3l1,1v3h1v3h1v3h1v3h1v3h1v3h1v2h1v3h1v2h1v2h1v2l1,1v2h1v2h1v1l1,1v1l1,1v1h1v2h1v2h1v1l1,1v1h1v2h1v1h1v2h1v1h1v2h1v1h1v1l1,1v1h1v1h1v1h1v2h1v1h1v1h1M192,755h-1v3h-1v2h-1v3h-1v3h-1v3h-1v3h-1v3h-1v3l-1,1v3h-1v4h-1v4h-1v4l-1,1v4h-1v5h-1v6h-1v6l-1,1v7h-1v8h-1v11l-1,1v18h-1v29l1,1v18h1v11h1v8l1,1v7h1v6h1v6h1v5h1v5h1v4h1v4h1v4h1v4h1v3h1v3l1,1v3h1v2l1,1v2h1v3h1v3h1v2h1M205,755v243M217,755h1v3h1v2h1v3h1v3h1v3h1v3h1v3h1v3l1,1v3h1v4h1v4h1v4l1,1v4h1v5h1v6h1v6l1,1v7h1v8h1v11l1,1v18h1v29l-1,1v18h-1v11h-1v8l-1,1v7h-1v6h-1v6h-1v5h-1v5h-1v4h-1v4h-1v4h-1v4h-1v3h-1v3l-1,1v3h-1v2l-1,1v2h-1v3h-1v3h-1v2h-1M230,755h1v1h1v2h1v1h1v1h1v1h1v2h1v1h1v1l1,1v1h1v1l1,1v1h1v1l1,1v1h1v2h1v1l1,1v1h1v2h1v2h1v2h1v2h1v2h1v2h1v2h1v2h1v2l1,1v2h1v2l1,1v2h1v3h1v3h1v3h1v3h1v4h1v4h1v4h1v4h1v5l1,1v5h1v8h1v11h1v29l-1,1v10l-1,1v7h-1v6h-1v5h-1v4l-1,1v4h-1v3l-1,1v3h-1v3h-1v3h-1v3h-1v3h-1v3h-1v2h-1v3h-1v2h-1v2h-1v2l-1,1v2h-1v2h-1v1l-1,1v1l-1,1v1h-1v2h-1v2h-1v1l-1,1v1h-1v2h-1v1h-1v2h-1v1h-1v2h-1v1h-1v1l-1,1v1h-1v1h-1v1h-1v2h-1v1h-1v1h-1M243,755h1v1h1v1h1l1,1h1v1h1v1h1v1h1v1h1v1h1l2,2h1v1h1v1h1v1h1v1h1v1h1v1h1v1h1v1h1v1l2,2v1h1v1h1v1h1v1h1v1l1,1v1h1v1h1v1h1v2h1v1h1v1l1,1v1h1v1h1v2h1v1h1v2h1v2h1v1h1v2h1v2h1v2h1v1l1,1v1l1,1v1l1,1v2h1v2h1v2h1v3h1v2h1v3h1v3h1v3h1v3h1v4h1v4h1v5h1v6h1v8h1v30h-1v7l-1,1v5h-1v5h-1v4h-1v4h-1v3h-1v3h-1v3h-1v3h-1v3h-1v2h-1v2h-1v2l-1,1v2h-1v2h-1v2h-1v2h-1v1h-1v2h-1v2h-1v2h-1v1h-1v2h-1v1h-1v2h-1v1l-1,1v1h-1v1h-1v2h-1v1h-1v1h-1v1l-1,1v1h-1v1h-1v1h-1v1l-1,1v1h-1v1h-1v1h-1v1h-1v1h-1v1h-1v1h-1v1h-1v1h-1v1h-1v1h-1v1h-1v1h-1v1h-1v1h-1l-2,2h-1v1h-1v1h-1v1h-1v1h-2v1h-1M256,755h1v1h2v1h2v1h1v1h2v1h2v1h1v1h2v1h1v1h2v1h1v1h2v1h1v1h1v1h2v1h1v1h1l1,1h1v1h1v1h1v1h1v1h1l1,1h1v1h1v1h1v1h1v1h1v1h1v1h1v1h1v1h1v1h1v1h1v1h1v1h1v1h1v1h1v1h1v1h1v1l2,2v1h1v1h1v1h1v1l1,1v1h1v1h1v2h1v1h1v1l1,1v1h1v2h1v1h1v2h1v1h1v2h1v2h1v2h1v2h1v2h1v2h1v2h1v3h1v2h1v3h1v3h1v3h1v3h1v4l1,1v4h1v6l1,1v14l1,1h-1v15h-1v6h-1v5h-1v4h-1v3h-1v3l-1,1v2l-1,1v2h-1v3h-1v2h-1v2h-1v2h-1v2l-1,1v1h-1v2h-1v2h-1v2h-1v2h-1v1h-1v2h-1v1h-1v2h-1v1h-1v2h-1v1h-1v1h-1v2h-1v1h-1v1h-1v1l-1,1v1h-1v1h-1v1h-1v1h-1v1h-1v1h-1v1l-3,3v1h-1l-3,3h-1v1h-1v1h-1v1h-1v1h-1v1h-1v1h-1v1h-1l-1,1h-1v1h-1v1h-1v1h-1l-1,1h-1v1h-1v1h-1l-1,1h-1v1h-1v1h-2v1h-1v1h-2v1h-1v1h-2v1h-2v1h-1v1h-2v1h-1l-1,1h-1v1h-2"/>
<path class="tg" d="M269,755h1v1h3v1h2v1h2v1h2v1h2v1h2l1,1h1l1,1h1l1,1h1v1h2v1h2v1h2v1h1l1,1h1v1h2v1h1l1,1h1v1h2v1h1v1h2v1h1v1h2v1h1v1h1l1,1h1v1h1v1h2v1h1v1h1v1h1v1h2v1h1v1h1v1h1v1h1v1h1v1h1l1,1h1v1h1v1h1v1h1v1h1v1h1v1h1v1h1v1h1v1l1,1v1h1v1h1v1h1v1h1v1h1v1l1,1v1h1v1h1v1h1v2h1v1h1v2h1v1h1v2h1v1h1v2h1v2h1v1h1v2h1v2h1v2h1v2h1v2l1,1v2h1v2l1,1v2h1v3h1v4h1v4h1v5h1v9h1v13l-1,1v8h-1v5h-1v4h-1v4h-1v3h-1v3h-1v2h-1v3h-1v2h-1v2h-1v2h-1v2h-1v2h-1v2h-1v1l-1,1v1h-1v2h-1v1h-1v2h-1v1h-1v1h-1v2h-1v1h-1v1l-1,1v1h-1v1h-1v1h-1v1l-2,2v1h-1v1h-1v1h-1v1h-1v1h-1v1h-1v1h-1v1h-1v1h-1v1h-1v1h-1v1h-1v1h-1v1h-2v1h-1v1h-1v1h-1v1h-1v1h-1l-1,1h-1v1h-1v1h-1v1h-2v1h-1v1h-1l-1,1h-1v1h-1v1h-2v1h-1v1h-2v1h-1l-1,1h-1v1h-2v1h-1v1h-2v1h-2v1h-1l-1,1h-1v1h-2v1h-2v1h-2v1h-2v1h-2v1h-2v1h-2v1h-2l-1,1h-2v1h-2v1h-2"/>
<rect x="120" y="896" width="38" height="67" fill-opacity="0" stroke="#ffffff" stroke-opacity="0.5" stroke-width="5.0"/>
<rect x="122" y="898" width="38" height="67" fill-opacity="0" stroke="#113311" stroke-opacity="0.8" stroke-width="5.0"/>
<rect x="121" y="897" width="38" height="67" fill-opacity="0" stroke="#45a249" stroke-opacity="0.9" stroke-width="5.0"/>
</svg>
