<?xml version="1.0" encoding="UTF-8" standalone="no"?>
<svg xmlns:svg="http://www.w3.org/2000/svg" xmlns="http://www.w3.org/2000/svg" xmlns:xlink="http://www.w3.org/1999/xlink" height="1000" width="1000">
<!-- made with pythonshp (GPL): github.com/sanjayrao77/pythonshp , underlying data may come from naturalearthdata.com -->
<!-- 
COPYRIGHT: THIS SVG FILE IS RELEASED INTO THE PUBLIC DOMAIN
 -->
<!-- 
vars : {
	'cmdline' : 'pythonshp.py publicdomain wiki1 australia locatormap'
	'title' : 'Australia locator'
	'version' : '1.0.5'
}
 -->
<defs>
	<radialGradient id="watergradient" cx="500" cy="500" r="500" fx="500" fy="500" gradientUnits="userSpaceOnUse">
		<stop offset="0%" stop-color="#70add3"/>
		<stop offset="11%" stop-color="#6eaad0"/>
		<stop offset="22%" stop-color="#6ca7cc"/>
		<stop offset="31%" stop-color="#6ba5c9"/>
		<stop offset="41%" stop-color="#69a2c6"/>
		<stop offset="51%" stop-color="#679fc2"/>
		<stop offset="59%" stop-color="#669dbf"/>
		<stop offset="67%" stop-color="#649abc"/>
		<stop offset="75%" stop-color="#6297b9"/>
		<stop offset="81%" stop-color="#6095b6"/>
		<stop offset="87%" stop-color="#5f92b2"/>
		<stop offset="92%" stop-color="#5d8faf"/>
		<stop offset="95%" stop-color="#5b8dac"/>
		<stop offset="98%" stop-color="#598aa8"/>
		<stop offset="100%" stop-color="#5685a2"/>
	</radialGradient>
	<radialGradient id="landgradient" cx="500" cy="500" r="500" fx="500" fy="500" gradientUnits="userSpaceOnUse">
		<stop offset="0%" stop-color="#dddddd"/>
		<stop offset="11%" stop-color="#d7d7d7"/>
		<stop offset="22%" stop-color="#d1d1d1"/>
		<stop offset="31%" stop-color="#cccccc"/>
		<stop offset="41%" stop-color="#c6c6c6"/>
		<stop offset="51%" stop-color="#c0c0c0"/>
		<stop offset="59%" stop-color="#bbbbbb"/>
		<stop offset="67%" stop-color="#b5b5b5"/>
		<stop offset="75%" stop-color="#afafaf"/>
		<stop offset="81%" stop-color="#aaaaaa"/>
		<stop offset="87%" stop-color="#a4a4a4"/>
		<stop offset="92%" stop-color="#9e9e9e"/>
		<stop offset="95%" stop-color="#999999"/>
		<stop offset="98%" stop-color="#939393"/>
		<stop offset="100%" stop-color="#888888"/>
	</radialGradient>
	<radialGradient id="bordergradient" cx="500" cy="500" r="500" fx="500" fy="500" gradientUnits="userSpaceOnUse">
		<stop offset="0%" stop-color="#444444"/>
		<stop offset="11%" stop-color="#3f3f3f"/>
		<stop offset="22%" stop-color="#3a3a3a"/>
		<stop offset="31%" stop-color="#363636"/>
		<stop offset="41%" stop-color="#323232"/>
		<stop offset="51%" stop-color="#2d2d2d"/>
		<stop offset="59%" stop-color="#292929"/>
		<stop offset="67%" stop-color="#242424"/>
		<stop offset="75%" stop-color="#1f1f1f"/>
		<stop offset="81%" stop-color="#1b1b1b"/>
		<stop offset="87%" stop-color="#161616"/>
		<stop offset="92%" stop-color="#121212"/>
		<stop offset="95%" stop-color="#0e0e0e"/>
		<stop offset="98%" stop-color="#090909"/>
		<stop offset="100%" stop-color="#000000"/>
	</radialGradient>
</defs>
<style type="text/css">
<![CDATA[
.c1 {stroke:#45a211;fill-opacity:0}
.fs {font:14px sans;stroke:#ffffff;stroke-width:2px;stroke-opacity:0.8;text-anchor:middle}
.ft {font:14px sans;fill:#000000;fill-opacity:1;stroke-opacity:0;text-anchor:middle}
.sb {stroke:url(#bordergradient);fill-opacity:0}
.sg {stroke:#000000;fill-opacity:0.0;stroke-opacity:0.2}
.sh {fill:#45a211;stroke:#000000}
.sl {fill:url(#landgradient);stroke:url(#bordergradient)}
.sp {stroke:url(#landgradient);fill-opacity:0}
.sw {fill:url(#watergradient);stroke:url(#watergradient);stroke-opacity:0.8}
.tb {fill:#eeeeee;stroke:black;stroke-width:2}
.tg {stroke:black;stroke-opacity:0.2;fill-opacity:0}
.th {fill:#45a211;stroke:#378100}
.tl {fill:#aaaaaa;stroke:black}
.w1 {stroke:#ffffff;fill-opacity:0;stroke-opacity:0.6}
]]>
</style>
<circle cx="500.0" cy="500.0" r="500.0" fill="url(#watergradient)"/>
<path class="sl" d="M754,69v1l-1,-1h-1h1l-1,-1h-1h1h-1l-1,-1l1,1h1v1v-1v1v-1h-2v-1v1h1h-1h1h-1v-1h-1h1h-1v-1h-1h1v1h1l1,1v-1v1h1h-1v-1h-2v-1h-1l1,1h1l1,1h1l1,1ZM729,56h1ZM718,50l-1,-1h-1l-2,-1h-1l-1,-1h-1l-1,-1h-1h1l1,1h2l2,2h1l1,1h2ZM706,44v1v-1h-2v-1h-1l1,1h1ZM702,43v-1h-1Z"/>
<path class="sp" d="M748,66l1,1h1l1,1h1l1,1h1M729,56h1M709,46h1l1,1h2l2,2h1l1,1h2M708,45v0M703,43l1,1h2M701,42l1,1"/>
<path class="sl" d="M11,398v-4l1,-2v-2l1,-1l-1,1v4l-1,2v3l-1,1v1v-1v3l-1,3v2l-1,2v3l-1,3v3l-1,3v5l-1,2v5l-1,2v5l-2,12v5l-1,5v1v-2l1,-1v-10l1,-1v-9l1,-1v-7l1,-1v-5l1,-1v-6l1,-1v-5l1,-1v-4l1,-1v-5l1,-1v-3Z"/>
<path class="sp" d="M1,469v-7l1,-1v-10l1,-1v-9l1,-1v-7l1,-1v-5l1,-1v-6l1,-1v-5l1,-1v-4l1,-1v-5l1,-1v-3l1,-1"/>
<path class="sl" d="M114,182v1h-1v1h-1v1l-1,1l1,-1v1h-1v1l-2,2v1h-1v1h-1v1h-1v2h-1v1l-1,1h-1v1l-1,1v1h-1v1h-1v1l-1,1l-1,2l-1,1v1h-1v1l-3,3v2l-2,2l-1,2h-1v1l-1,1v1l1,-1l-1,2l-1,1v1l-2,2l-1,2l-2,2l-1,2l-1,1v2h-1v2l-1,1v2l-1,1v2l-2,2v1l-1,1h1v-1v1h-1v2l-2,2v1h-1l-1,1v1l-1,1v1h-1l-1,2v1l-1,1v1l-1,2l-2,2v-1l-1,2h-1v1v-1l-1,1v1v-1l-1,1v1v-1v1v-2l1,-1v-1l2,-2v-2h1v-1l-2,2v1l-1,1v1l-1,1l-1,2v1v-1l1,-1v-1l1,-1v-1l1,-1v-1l1,-1v-1l2,-2v-1l2,-2v-2l2,-2v-1l2,-2v-2l2,-2v-1l2,-2v-1l1,-1v-1l2,-2v-1l2,-2v-1l1,-1v-1l2,-2v-1l3,-3v-1l2,-2v-1l1,-1v-1l3,-3v-1l2,-2v-1l4,-4v-1l1,-1v-1l3,-3v-1l3,-3v-1l4,-4v-1l5,-5v-1ZM48,287v-2l1,-1v-1l2,-2v-2l2,-2l1,-2v-1l1,-1l2,-4v-1l1,-1v-1h1v-1l-1,1l-1,2v2h-1l-2,4v1l-1,1v2l-1,1v1h1v1h-1v2l-1,2v2l-1,1v1l-1,1v2l-2,2v1l-1,1l-1,2l-2,6l-1,1v-1h1h-1l-1,2v1l-1,1v2l-1,1v1l-1,2v2l-1,1v1h-1v1l-1,1v1l-1,2l-1,3l-1,2v1l-2,5h-1v2l-1,1v1l-1,2v1l-1,1v1l-1,1v2l-1,3l-1,1v2l-1,2v1l-1,1v2l-1,1v2l-1,2v2l-1,1l1,-1v-3l1,-1v-2l1,-1v-3l1,-1v-2l1,-1v-2l1,-1v-2l1,-1v-2l1,-1v-2l1,-1v-2l1,-1v-2l1,-1v-2l1,-1v-2l1,-1v-1l1,-1v-2l1,-1v-1l1,-1v-2l1,-1v-2l1,-1v-1l1,-1v-2l1,-1v-1l1,-1v-2l1,-1v-1l1,-1v-1l1,-1v-2l2,-2v-1l1,-1v-2l1,-1v-1l1,-1v-1Z"/>
<path class="sp" d="M58,266l1,-1v-1l1,-1v-1l1,-1v-1l1,-1v-1l2,-2v-1l2,-2v-2l2,-2v-1l2,-2v-2l2,-2v-1l2,-2v-1l1,-1v-1l2,-2v-1l2,-2v-1l1,-1v-1l2,-2v-1l3,-3v-1l2,-2v-1l1,-1v-1l3,-3v-1l2,-2v-1l4,-4v-1l1,-1v-1l3,-3v-1l3,-3v-1l4,-4v-1l5,-5v-1l1,-1M18,366l1,-1v-3l1,-1v-2l1,-1v-3l1,-1v-2l1,-1v-2l1,-1v-2l1,-1v-2l1,-1v-2l1,-1v-2l1,-1v-2l1,-1v-2l1,-1v-2l1,-1v-1l1,-1v-2l1,-1v-1l1,-1v-2l1,-1v-2l1,-1v-1l1,-1v-2l1,-1v-1l1,-1v-2l1,-1v-1l1,-1v-1l1,-1v-2l2,-2v-1l1,-1v-2l1,-1v-1l1,-1v-1"/>
<path class="sl" d="M442,3h8l1,-1h10l1,-1h16v-1h3v1h-1l2,-1h1l-1,1h-1h1h-1h9v-1h2l1,1h4v-1h4l2,1h2l1,-1h2v1h3l-1,-1h-1h1h9l1,1h17v1h1h-2l-1,-1v1h9l3,1h8l2,1h8l2,1h3l1,1h4l1,1h1h-1v-1h1l2,1h4l4,1h4v1h4l2,1h3l1,1h1l-1,-1h-4l-1,-1l1,1h3l2,1h5v1h4l1,1h3l1,1h3l1,1h3l1,1h3l1,1h2l1,1h3l1,1h3l1,1h2l1,1h3l1,1h2l1,1h2l1,1h2l1,1h2l1,1h2l1,1h2l1,1l-1,-1l1,1h2l1,1h2v1v-1h-2l-1,-1v1h1h-1v-1h-2l-1,-1h-3v-1h-3v-1h-2l-1,-1h-3v-1h-3l-1,-1h-2l-1,-1h-2l-1,-1v1h1h-1h1l-1,-1v1h3v1h1h-1l-2,-1h-3l-1,-1h-1h2v1h1h-1l-1,-1h-4l-1,-1l1,1h4v1h3l1,1h2l1,1h1h-1h3v1h2l1,1h1h-1h2l2,1h1h-1h1v1h2l1,1h-1v-1l-5,-1h-1l-1,-1h-1h1l1,1l-1,-1h-1v1l-1,-1h-5v1l-1,-1v1h-3l1,1h-1l-1,-1h-1l-1,-1h-3l-1,-1h-6v1h-1v-1h-1v-1h-4l1,1h-1l-1,-1h-4v1h1h-1l1,1h-1l-1,1l1,1h1l2,1v-1l2,1h1v1h-1h1v1h1l1,1h2l1,1h1l-1,1h-1l-1,-1v-1h-2l1,1h-1v2h1v1h2v1h1h-1v1l-1,-1h-5l-1,1v1h1l1,1h1v1l-1,-1h-3l-1,1h-1l-1,-1v1h1v1h1v1l-2,2h-1l-1,1h-3v-1h-1l-1,-2l-2,-2h-1l-8,-8l-2,-1l-1,-1v-3h1l1,-1v-1h-1h2l1,-1l1,1h1l1,-1h2l2,-2h2v-1h6l-1,-1h1h-2v-1l-1,-1h1l-1,-1h-4v1h1l1,1h1h-2v-1v1l-1,-1h-1v1h-7v-1h-1v-1h-3l-1,-1h-9l1,1h-2l-1,1h-3v1l1,1l1,-1l2,1h1v1l-1,-1h-15l-1,-1h2l-1,-1h-6l-3,-1h-2v1h1h-9l-1,-1h-2v1h-2l-1,-1h-16l-1,1h-2l-1,1h-2v1h-2l-1,1h-3l-1,1h-1l-2,1h-1l-2,1l-1,1h-3l-2,1h-1l-2,1h-3v1h8v2h-1l1,1h2v-1l1,-1h1v1h-1h2l-1,1h-2v1h3l1,-1h2l1,-1v1h-1v1h1l1,-1v-1l-1,-1h1l2,1h6v1l2,1h2l1,1h1l-1,1l-1,-1h-1l2,1h1v1h-1v1h2v1h-1v1h-1l-1,1v1h-1v3h1l-1,1v3l-1,1v1l-1,1h-2l-3,3l-3,1v1l-2,2v1l-2,1h-1l-1,1l-4,2h-1v1h-1l-2,1v1h-2l-2,2v1h-2l-2,2h-1l-4,1l-1,1h-3l-1,1h-2v-1h-1v1l-1,-1h-3l1,-1v-1l-1,1h-2l1,-1h-1l-1,1l-2,1l-1,1h-4l1,1l-1,1h-2l-1,1h-1l-1,1h-1l-1,1v4h-1l-2,1h-1l-1,1h-1l-1,1h-1l-1,1h-3l-1,1l-2,1h-1v2h-1v1h2l2,1h1v1h1l1,3l2,1l3,3v5l-1,1h1h-1l1,1l1,-1v1l-2,2v1l-2,2h-5v1h-2l-1,-1l-1,1h-2v1h1h-2v1h-1v1l-1,-1l1,-1h-1l-2,2h-2l-1,1v-1l-1,-1h-1h2v-1h1h-1v-1h-1v-1h1v-1l1,-1h1h-1v-1h1l1,-1h-1l1,-1h-1v-3h-3l2,-2h3v1h1v-1h-1v-2h-1l1,-1h-1v-1h1h-5l-1,-1h-1v1h-1v1h-1v-1h-2l1,-1h-3l2,-2h1l1,-1h1h-1v-1l2,-2v-1l-1,-1h-4l-1,-1h-1h1h-1l-1,1h-6v1h-3l-3,2h-1l-1,1h-2v1h-2v1h-3v-1h1l3,-1v-1h-2v-1h2v-1l2,-1v-1h1l2,-1l1,-1h-1v-1h-1v-1h-1v1h-5l-1,1h-1l-2,2h-1l-4,2h-1l-2,1l-3,3h-3l-1,1h-4l-3,3l1,1l2,1h5l1,1v1h-1v1l-1,1h1l1,1h1l2,-1h1v-1h1l2,-1h1v-1l3,-1l2,1h3v1h3v-1h1l1,1h1l1,-1v2h-2l1,1h-1l-1,1v-1h-2l-4,2h-3v1l-1,-1v2l-1,-1v1l-1,1h-1l-1,1v-1h-2v1h1v1h-2v1h-1v1h-2l-1,1l-1,2h-1l-1,1v1h3l1,1h2l1,1v2l1,1v1l1,1v4h1l2,1v1h1l1,1h1v2h-1l-2,-1h-3l-1,-1h-2l-3,1h-1h5v1h2l1,1h1l2,1l1,1v1l-1,1h-2l-1,1l-3,1v1h-4l-1,1h-1h3v1l4,-2h1l1,1l2,1h1l1,1h-1l-2,2h-1h1l1,-1h1v3h-3l-1,1h2v1h-1v1h-1v1l1,1l-1,1h-3l-2,2h-1v1l-2,2v1h-1v1l-1,1h-1l-1,1v1l-1,1h-2l1,-1h-1v1h-1v-1v1h1v2l-2,2h-3v1h2v-1h1v2h-1v1l1,1l-1,1v-1h-3v1h1v1h-3v2h-1l-1,1h-1h1l-1,1v1l-1,-1l-1,1l-1,-1l-1,1h-1v1h-1h1v1l-1,1v1h-2v1h-1l-1,1v1h-1v-1l-1,1h-2v1l-1,1h-1v1h-1l-1,2h-2v1h-4l-1,1h-4v1h-1l-1,1l-1,-1l-1,1h-1l-1,1v-1h-1v1h-2v-1h-1v-1h-1l1,-1h-1l1,-1h-1l-2,2l2,2l-1,1h1l-1,1v1h-2v1h-1v-1l-1,1v1h-2l-1,1h-2l1,-1h-1v2h-2v-1h-1v1h-2v1h-1v1h-3l-1,1h-1l-1,1h-1l-1,1h-1v-1v1l-2,2h-1v1h2v1h-1l1,1v1l-1,1h-3v-1l-1,-1v-3l1,-1v-1h1v-1l-1,-1v1l-1,-1v1h-1l-1,1h-2l1,-1h-3v-1h-1v-1l-1,1l1,1h-2l-1,1h-1l-1,1h-1l-1,1h-1l-3,3h-2v1h-2v1l-1,2v1l-2,2l-2,1l-1,1l-2,3v1l-1,1v1l-1,1v2h1v1l1,2h1l2,2h-1v2l-1,-1l5,5v1h1l2,1v1h1v1h2v1h1v1l1,1v1l2,2h1v3l1,1v6h1v2l-1,-1v5l1,2v3l-1,-1l-1,1l1,2h-1v3h-1v3h-1v1l-3,3h-1l-1,1l-2,1l-2,2h-1l-2,2h-1l-1,1h-2v-1l-1,1v1h-1v-1l-1,1h1v1h-2l1,1h1l-1,1v1h-2l-2,-2v1l3,3l-1,1h-1l-3,-3h-1l3,3v2l-6,3v1l-3,3l-2,1l1,-2h-1v-3l1,-3v-2l1,-1h1v-1l-1,-1h-2l-1,-1h-1l-1,-1h-2v-1l-2,2h-1v-1l2,-2l-1,-1v-1l-1,1v1h-2l-1,-1v-1l1,-1v-1l-1,-1v-1h-1v-2l-1,-1l-1,1v-1h-1v-1h-1l-1,-1h-1l-1,-1l-2,1h-2l-1,1h-1v-1l1,-1v-3l1,-1l-1,-1h-2v1h-2l-2,2v2l-1,2v5l-2,2v1l-1,1l-1,2v2l-1,1v1l-2,3v2h-1v3l-1,2l1,1v3h1l2,-1h1v5l1,1v-1l1,1l1,9h-1v-4l-1,1v1l1,2v1h2l2,2l1,-1h3v1l2,2l2,1l-2,2v2h-4l-1,1v1h-1l-1,-1h1v-4l-1,1v-1l-1,-1h-3v-1h-1v2l-3,-3v-2h-1l1,-2l-1,1h-1v-2h-1v-1h-1v-2h-1l-1,-1v-1h-1v1l-1,1l-1,-1v-4l2,-4v-2l1,-1v-2l2,-3h-1v2l-1,-1v-1l1,-1v-3l1,-1v-1l1,-1v-4l1,-1v-1l-1,1v-3l1,-1h-1l1,-1v-7l-1,-1v-4l-1,3v-6l-1,-1l1,-1h-1v-1l1,-2l-1,-1l1,-1v-3l-1,-1l1,-1v-3h1v-1l-1,1h-1v-1h-1v-4h-1v-1v1l-1,1v2l-1,1v1l-1,1h-1v1h-1v-2h-1v1l1,1l-1,1h-1v1h-1l-2,2v1l-2,2h-1v-1l1,-1v-1v1l-2,2h-1v-1h-1l-1,1v-1l1,-1v-2h1v-1l-1,1v1h-1v1l-2,2v-1l1,-3v-1h1v-2l1,-1v-1l2,-4v-1h-1l1,-3l-1,-2v-2h1h-1v-2l-1,1v1l-2,-2v-1l1,-1v1h1l1,-1v-1h-1v-2l1,-1l-1,1l-1,-1h-1l-1,1v-1l1,-2h-1v1l-1,1v-1h1l-1,-1v-1v1l-1,1v-1l-1,-1v-2l-1,-1l1,-2v-5l1,-1h-1v-3h-1v1l-1,1h-2v-5l1,-1h-1v1h-2l1,1h1v1l-1,1h-1l1,1h-1v4h-1v1l-3,3v-1l1,-1h-1l-1,1v-1l1,-1v-1v1h-1v2l-2,2v-1l-2,2h-1v-1h-1l1,1l-1,1h-1v1h-1l1,-1v-2l-1,2v1l-1,1l-1,-1v1h-1v-1l1,-2l1,-1h-1v-1v1h1l-1,1l-1,2l-2,2l-3,1l-3,3v4h-1v1l-1,1v1l-2,1v1l-1,1v-1l-1,1h1h-1v1l-4,2v1v-2l-1,1l-1,2l1,-1l-5,6l-1,1l-1,2l-3,3l-2,3l-1,1l-1,2l-2,1l-1,2l-5,5v2l-1,1v1l-2,2h-3v1l-1,3h-1v1l-1,1v-1v1v-1h-1l-2,2l-2,6v3l-1,1v5h-1v1l-1,1l1,1l-1,6l-1,2l-1,1v1l-1,2l-1,3v2h-1v1l1,-1v1l-2,7v1h-2v1l-1,1v1l-1,3l-1,1v2h1l-1,1l-3,2l-1,1v1l-1,2v3l-3,3h-1l-1,-1l-1,-3v-1l-1,-1h1l-1,-1v-5h1v3v-4h-1l1,-1l-1,-1v-11l-1,-1v-11h1v-10h-1l1,-2v-8l1,-5l1,-3v-4l1,-1v-3l1,-1v-1l1,-1v-1l-1,1v1v-1l1,-1v-2l1,-2v-2l2,-4l1,-1v-2l1,-1h-1l1,-2v-1v1l1,-1v-1l1,-1h1h-1l-1,1h-1l1,-1v-1h1h-1l1,-1v-1h1h-2v2h-1v1h-1v3l-2,3l-2,2l-1,2l-2,1v1h-1l-1,-2v-7h1l1,-1h1v-1l2,-2l1,-2l1,-1v-1v1h-1v1l-2,2h-2v-3l2,-2v-1l-1,1v1h-1v1v-2l-1,1v-2l1,-1l1,-2l-1,-1v1v-2l1,-1v-1h-1h1h-1l-1,1v1l-2,2h-1l-1,2v-1v1v-1l-2,2v1h-1l-2,2v1v-1l-1,1v1h-1l1,-1l1,-2v-1l1,-1v-1l1,-2h1v-1l1,-1v-1l1,-1h1v-1l2,-2v-2h1v-1v1h-1l1,-1v-1l2,-2v-2l1,-1v-2l1,-1v-2h1v-2l1,-1l1,-2l2,-2l1,-2l2,-2v-1l1,-1l1,-2l-1,1v-1l1,-1v-1h1l1,-2l2,-2v-2l3,-3v-1h1v-1l1,-1l1,-2l1,-1v-1h1v-1h1v-1l1,-1v-1h1l1,-1v-1h1v-2h1v-1h1v-1h1v-1l2,-2v-1h1v-1l1,-1l-1,1v-1h1v-1h1v-1l3,-3v-1l8,-8v-1l9,-9v-1l14,-14v-1l1,-1h1l11,-11h1l9,-9h1l7,-7h1l3,-3h1l3,-3h1l5,-5h1l4,-4h1l1,-1h1l4,-4h1l3,-3h1l2,-2h1l3,-3h1l1,-1h1l3,-3h1l2,-2h1l1,-1h1l3,-3h2l3,-3h1l1,-1h1l2,-2h1l2,-2h1l1,-1h1l2,-2h1l1,-1h1l2,-2h2l2,-2h2l2,-2h1l1,-1h1l1,-1h1l1,-1h1l1,-1h1l1,-1h1l1,-1h1l1,-1h1l1,-1h1l1,-1h1l1,-1h1l1,-1h1l1,-1h1l1,-1h1l1,-1h1l1,-1h1l1,-1h2l1,-1h1l1,-1h1l1,-1h2l2,-2h2l1,-1h2l1,-1h1l1,-1h1l1,-1h2l1,-1h2l1,-1h1l1,-1h2l1,-1h2l1,-1h1l1,-1h2l1,-1h2l1,-1h2l1,-1h2l1,-1h2l1,-1h2l1,-1h2l1,-1h3l1,-1h2l1,-1h2l1,-1h3l1,-1h2l1,-1h3l1,-1h3l1,-1h3l1,-1h3l1,-1h3l1,-1h4l1,-1h3l1,-1h5l1,-1h3l1,-1h5l1,-1h5l1,-1h5l1,-1h7l1,-1h7Z"/>
<path class="sp" d="M443,3h7l1,-1h5M469,1h1M470,1h3M607,12h4l1,1h3l1,1h3l1,1h3l1,1h3l1,1h2l1,1h3l1,1h3l1,1h2l1,1h3l1,1h2l1,1h2l1,1h2l1,1h2l1,1h2l1,1h2l1,1M664,28h1M114,182l3,-3v-1l8,-8v-1l9,-9v-1l14,-14v-1l1,-1h1l11,-11h1l9,-9h1l7,-7h1l3,-3h1l3,-3h1l5,-5h1l4,-4h1l1,-1h1l4,-4h1l3,-3h1l2,-2h1l3,-3h1l1,-1h1l3,-3h1l2,-2h1l1,-1h1l3,-3h2l3,-3h1l1,-1h1l2,-2h1l2,-2h1l1,-1h1l2,-2h1l1,-1h1l2,-2h2l2,-2h2l2,-2h1l1,-1h1l1,-1h1l1,-1h1l1,-1h1l1,-1h1l1,-1h1l1,-1h1l1,-1h1l1,-1h1l1,-1h1l1,-1h1l1,-1h1l1,-1h1l1,-1h1l1,-1h1l1,-1h2l1,-1h1l1,-1h1l1,-1h2l2,-2h2l1,-1h2l1,-1h1l1,-1h1l1,-1h2l1,-1h2l1,-1h1l1,-1h2l1,-1h2l1,-1h1l1,-1h2l1,-1h2l1,-1h2l1,-1h2l1,-1h2l1,-1h2l1,-1h2l1,-1h3l1,-1h2l1,-1h2l1,-1h3l1,-1h2l1,-1h3l1,-1h3l1,-1h3l1,-1h3l1,-1h3l1,-1h4l1,-1h3l1,-1h5l1,-1h3l1,-1h5l1,-1h5l1,-1h5l1,-1h7l1,-1h7l1,-1"/>
<path class="sl" d="M17,377v-1v1l-1,1v1v-2l1,-1ZM240,298v2l-1,1v-1l-1,-1h1v-1ZM257,309l1,-1v1ZM263,295h-1l1,-1ZM272,217v-1ZM278,213l-1,1v-1ZM277,215l-1,1l2,-2v1ZM273,217v-1h1v1ZM747,508v3l1,1v-1l1,-1v2l1,2v1h-2l-1,1l-1,-1v-3l-1,-4l1,-1ZM750,520h1v1l2,2v1h-2l-1,1v-5l-1,1l-1,-1l1,-1v-1l1,1ZM757,527v1l-1,-1h-1v-1h1v1ZM756,523h-2v-1h1l1,-1v1ZM756,534v2h-2v-1h-1h1v-1h1ZM755,515h-2l1,-1h2ZM756,520v-4h1v4ZM757,515l-1,-1l1,-2v1ZM749,517v-1h1ZM754,505h-2l1,-1v-1l1,1ZM753,501v1v-2h1v1ZM762,558l-1,1v-1ZM760,552l-1,1l-1,-1l1,-2v2ZM760,547h-1l-1,-1v-2h1v1h1l-1,1h1ZM153,147h-1h1v-1h1h-1h1h-1ZM155,145v1h-1h1ZM726,333v1l-1,-1ZM518,285v-1h1v1ZM634,307h-1ZM636,306h-1ZM688,316v1l-1,-1v-1h1l1,1ZM775,337v-1h1ZM769,324h-1ZM789,330l1,1ZM785,328l1,1h1h-2ZM752,291h-1ZM580,217h-1v-1ZM581,234h-1ZM578,251h-1v-1h1ZM581,222h-1l1,-1ZM582,243v1h-1v-1h1v-1ZM581,245l-1,-1h1ZM574,257h-1v-1l2,-2v1l-1,1ZM888,539h1ZM755,70h-1ZM759,73v-1ZM758,72v-1h-1ZM730,65h-1ZM685,36l-1,-1h1h-2l-1,-1h-2l-1,-1h-1l-1,-1h-1h1l1,1h2v1h2l1,1h2Z"/>
<path class="sp" d="M684,35h1"/>
<path class="sl" d="M709,46h1l1,1h1l1,1l-1,-1h-1l-1,-1h-2l-1,-1h1l1,1h-1ZM750,67l2,2h1h-1l-2,-1h1h-2v-1h-1h1ZM754,70v-1v1h1l-1,-1ZM756,71h-1v-1h-1h1v1ZM757,71l1,1l-1,-1h-1h1h-1ZM749,68h-1v-1v1ZM750,68h-1ZM692,39l1,1h1h-1l-1,-1h-1ZM719,52h-1ZM745,68v1v-1h-1ZM743,68h1ZM740,67h-1ZM723,54h1v1ZM729,65h-1ZM729,64v1l-1,-1ZM726,64h-1ZM709,59h-1ZM715,62h-1l-2,-1h-1l-1,-1l1,1h2l1,1ZM687,53h-1l-1,-1h1v1ZM748,68h-1v1h1h-1l-1,-1h1h-1v-1v1h1ZM748,68h1h-1h1v1h1h-1l-1,-1h1v1v-1h-2v-1h1ZM737,67h2v1l-1,-1h-2l-1,-1l1,1v-1v1ZM733,66l-1,-1h-1h2l1,1l-1,-1h1v1h1h-1ZM727,64l1,1h-1v-1h-1ZM724,64h-1v-1h-1h1ZM713,60h-1ZM704,58h-1h1v-1v1h1ZM680,50h2l1,1h-1l-1,-1h-2ZM940,295v1h-1l-1,-2v-2l-1,-2l-1,-1v-2l-1,-1v-1l1,2l3,3v1l1,1v1l1,1h-1l-1,1ZM928,275l2,2h-1l-1,-1ZM931,279h1l1,1v1l1,1h-1v-1h-1v-1h-1v-2ZM926,272v1l1,1h-1v-1h-1h1h-1v-1l-1,-1v-1v1v-1l1,2ZM919,266l-1,-1v-1h-1v-1l1,1h1v1ZM916,265h1h-1v-1h1ZM931,279v1l-1,-1v-1v1ZM56,501l-1,-1h1v1v-1ZM953,711v-1ZM48,286v1v-2ZM50,283v-1ZM851,589v1v-1h-1v-1h1ZM863,570h-1l1,-1ZM852,590v2l-1,-1h1ZM411,434l-1,1v-1ZM406,446v-2h-1v-1h2v-1h-2v-1l2,-2v-1h2l3,-1h3l5,-1l1,-1h4v1l-1,1l-2,1l-1,1h-2l-2,2h-1l-1,1h-2l-1,1l-3,1l-1,1ZM398,445l1,-1l2,-1v2h-1v1h-2ZM230,290v1ZM229,288l-1,-1h1ZM198,326h-1v1v-3h1v1ZM211,309h-1v-1h1ZM211,310l-1,1v-1ZM206,335h-1l1,-1ZM199,325v-1ZM198,317v-1ZM202,327v1ZM157,142v-1ZM381,192l-2,2v3h-1v-1l-1,-1v-1h-1l-1,-1v-1l-1,-2v-2l1,-1v-2l5,-6l1,-1h1v-1l1,-1l3,-1v-1h2v1h2v1h-1v3l-1,2l-1,1h-1v2l-1,1v2l-1,1v1l-2,2ZM362,181h1l-1,1h-1v-1ZM91,344v-1ZM90,349h-1v-1h1ZM91,342h2v1l1,1l1,2v1l1,2v1l1,1v5h1v6l-1,1v3h-1l-1,2l-1,1l-1,2l-2,1l-1,1h-1l-1,-1v-16l1,-1l-1,2h1v-3l1,-3v-1l1,-2v-2l1,-1v-1h1l-1,-1h-1ZM448,113l-1,1l-1,-1h1l1,-1ZM443,114h-1v-1h1ZM430,117h-1v-1h1v-1l1,1ZM435,98v1h-1v-1ZM434,117h-1v-1ZM441,115v-1ZM433,105h-1v-1ZM430,115h-1v-1h1ZM465,99h-1v-1h1ZM430,123h-1v-1h1l3,-1h1v1l-2,1h-1ZM162,865v-1h-1h1ZM699,446h-2l1,-1v1ZM752,481h-2l1,-1v1ZM746,473h-2v-1h3ZM703,476h-1v-1l-1,-1h-1v-1h-1v-1h1l3,3ZM712,458l1,1h-1v-1h-1v-1h1l-1,-1v-1h1ZM694,451h-1v-1h2v1ZM702,451h1v1h1v1h-1v-1h-1Z"/>
<path class="sl" d="M683,442l1,1v2h-1l-1,-1v-2h-2v1l-1,-1l2,-2h1v2ZM687,448h-1v-1l1,-1v1ZM686,446l-1,1l-1,-1v-1h2ZM680,446l-1,-1v-1h1v-1v2ZM675,439l-1,-1v-1l-1,-1l1,-1l1,1v1h1l-1,1ZM674,441v-1ZM679,441h-1l-1,-1v-1l1,-1l1,1v1ZM668,431h-1v-1h2ZM682,447l-1,-1h1ZM699,453l1,2h3l2,1v1h1v1h1v1h-3l-1,-1h-4v-1h-1v-1l-1,-1v-1l1,-1ZM700,447l-2,-2l-2,-1v-1h-1l-1,-1h-1l-1,-1v-1l-1,-1h-1v-1l-1,-1l2,1l1,1h1l1,1v1h2v1h1l3,3l-1,1h1ZM682,434l-1,1h-1v-1h-2l-1,-2l-2,-2l-1,-2h-1v-1h2l1,2l2,1l1,1v1l1,2h1ZM707,446l2,2v1h-1v1h1v1l1,1v3l1,1v1l-1,-2h-1v-1l-1,-1l-1,-2l-1,-3h1l-1,-2ZM713,465h2l1,1h1v2l1,1h-2v-1h-1l-1,-1l-2,-1v-2h-2v-1h2l1,1ZM235,372l-1,1h-2l2,-2ZM9,517h-1v-1ZM881,529l1,1v1l-1,1v-1h-1l-1,-1v-1h1ZM885,535h-1l-2,-2l1,-1v1l1,1h1ZM562,71h1ZM565,70h-1ZM563,71h1ZM506,27h-1ZM565,19h-1ZM461,2h-1ZM534,30h2v1h-1h1l2,2v1l1,1l-1,1v1h1v1h1v1h1v1l2,2v1l2,1l1,1v1h1v1l1,1h2v1h-1v-1h-2l-1,-1h-6v1l-2,2v2l1,1h1v1h1l2,2h2v2h-1v-1h-3l-1,-1h-1v1h-1v1l-1,1h-1v-1l-1,-1v-1l1,-1v-1h-1v-2h1v-1l-1,-1v-1h-1v-3h1v-1l-1,-2v-1h-1l1,-1v-1l-2,-2h-1v-1h-1v-2h1v-1l-1,-1v-1h4v-1l-1,-1h-1h2v-1ZM654,41l-2,-1h-1l-1,-1l1,1h2ZM569,5h-1ZM577,7h-1v-1h-1h1h-1h1v1ZM505,0v1h-1v-1v1h-1v-1ZM511,0h-1Z"/>
<path class="sp" d="M510,0h1"/>
<path class="sl" d="M515,0h1h-2ZM501,0h-1Z"/>
<path class="sp" d="M500,0h1"/>
<path class="sl" d="M510,27h1h-1v1h-4l1,-1h2ZM595,9h-3l-1,-1v1h5ZM621,26h-1v-1h3l1,1h-2ZM647,39h-1l-1,-1h-2v-1h-1h2l1,1h1v1ZM605,51l-1,-1v-1h1v1ZM610,46h-1h2ZM609,47l-1,1h-2l-1,-1h3v-1h1ZM602,52h1ZM606,45h-1ZM599,56h-1v-1h1ZM594,59h-1l1,-1h1ZM583,63h-2l1,-1h1l1,-1h1v1h-1ZM577,64h-2l-2,1h-2l-1,1h-1v1h-1v-1h1v-1h1l1,-1h1v-1h1v1h2l1,-1h2v1ZM567,70h-1l2,-1v1ZM563,66l1,1h1h-2l-2,2h-1v1l-1,-1l1,-1h1v-1h1ZM378,220l1,1l3,1h4v-1h2v1h-1v1l-1,1v4l1,1h1v1h1l-1,1v2l-3,5h-1l-2,1h-1l-1,1v2l-1,1v1h-1v1h1v2l1,1v3l1,1v2h4l-1,-1h1v-1h1l1,-1h2l2,2v2h2v-2h1l2,1h1l1,1h-2l-1,1l2,2v2h3v2l-1,2h-1l-1,-1l1,-1v-1h-5v-2l-1,-1l-2,-1l-3,-3h-1v1l1,1h-1h1v1l1,1v1l-1,1l-1,-1v-1l-1,-1h-1l-1,-1l-2,-1h-3v2h-3l-1,-1h-3v-3h1l2,-2v-2h-2l-1,-1v4h-1v-1l-1,-1v-1h-2v-5l-1,-3v-3h1v1h1v1h2v-1h1v-1l-1,-1v-2l1,-1v-1l1,-1v-3h-1v-1l2,-4v-1l1,-1v-1h3ZM341,300v1v-1l1,-2l5,-5h1l2,-3l2,-1l2,-2v-1h1l1,-2h1v-1h1l1,-1v-1l-1,-1l1,-1v-1l1,-2h1v5l1,1l-2,2h-1l-1,1v1l-2,1h-1l-1,1v1l-2,3l-2,2h-2v1l-4,4h-1v1h-1ZM386,272h3v1l2,-1v2l-1,1v1h-2v2h-1l-4,2h-1l-1,1h-1l1,-1v-3l1,-1v-5h-1v-1h1l2,1h1ZM390,292h-1l-1,-1v-1l-1,-1h-2l-1,-2v-2h3l1,-1v-4h1v-3h1l1,-1h1l2,1v2h-1v2l-1,1v1l-1,1v1h-1v2l2,2v1h-1v1h-1ZM403,273h1l1,-1l1,1v1h1v2l-1,1l1,1h1v3h-1v1l-1,-1v2h-1l-1,-1v-5l-1,-1h-1l-1,-1v-3h1ZM409,264v1h1l1,1v1l-1,1v1l1,1v3h1v1l1,1h-1v-1h-4v-1h-1l-1,-1v-2l-2,-2h-1v-1h-1v-1l-1,-1v-1h4l3,-1ZM372,259l1,-1h1v1h2l1,1h1v5l-1,1v1h-1v1h-2v-1l-1,-1v-1h-1v-2l-1,-2h-1v-1l-1,-1v1v-1h2ZM414,288l1,1h1v1l1,1v1l-2,2h1l1,1v1l1,1v4h1v4h-1l-1,1l-1,2h-1l1,1v2l-1,1v-1l-1,-2v-2l-1,-1l-1,-2l-1,1v1l-2,2v1h-1l2,2l1,2v2l-1,1l-1,2h-2v-3h-1v1h-2l-2,-1h-2l-2,-1l-1,-2v-5l1,-1v-1h1v-1h-1l-1,-1v-1h-2v-1h-2l-1,1v3l-1,-1h-1v-1h-1v-1v1l-1,1h-1v-2h-2l-1,1v1l-1,2l-1,1l-1,2h-1l-1,-1v-1l1,-1l1,-3v-1l2,-2h2l1,-1h2l1,-1v-2h2l1,-1v-1h1v1h2l1,1v3h-1h1l1,-1h2v-2l1,-1h3l1,-1v-2l1,-1v1h2v-1h3v-2l-1,-3l1,-1l1,1l2,1h1ZM392,288v1v-5l2,-2l3,-6v-1h1v-1v7h-1v1h-1l-1,1v1l-1,1l-1,2ZM385,218h-1l1,-1ZM382,215h-1ZM386,207v1v-1h1ZM386,205h-1l1,-1ZM373,317h2v1h-5v-1h2ZM339,305v1l-1,-1l1,-1v-1ZM364,282l-1,1l-1,-1l1,-1h1ZM366,269h1l1,1h-3l-1,-1v-1h1Z"/>
<path class="sl" d="M365,273h-1v-2h1l1,1ZM386,281h-1v-1l1,-1h1v2ZM402,285l-2,2h-3l-1,-1v-1l1,-1h1v-1h1l1,-1l1,1h1v1ZM365,324l-1,1v-1l-2,2h-1v-1l2,-1l1,-1ZM380,313h-1v-1h-1l1,-1h3v1l-1,1ZM415,285l-1,-1v-1l1,-1v2h1ZM412,284l-2,-2v-1l1,-1h1l-1,1l1,1v1ZM368,257h-1v-1h1ZM382,258v-1l1,1v2h-2v-3ZM383,267l-1,1h-1l1,-1h-1v-1h1v-1l1,-1v1ZM387,267l-1,-1h-1l1,-1h1v1ZM393,262v1l-2,-2h-1v-1h1l1,2ZM397,265v1l-2,-2v-1l1,1ZM396,266l2,1l1,1v2h-1l-1,-1h-1v-1h-1l-1,-1h-1l-1,1v-4h1l1,1h1ZM402,256h-3v-1l1,-1v-1l1,-1l1,1v2ZM384,254l-2,-1v-1ZM383,246v3h-1v-3ZM400,279l1,-1v1ZM408,283v1l-1,-1v-1h1ZM388,305l-1,1v-1ZM412,307v1l-1,-1v-2l1,1ZM403,272h-1l-1,-1l1,-1l1,1ZM404,290v1l-1,-1v-1h1ZM380,217h-1v-1ZM364,274v1h-1v-1ZM396,274v1l-1,-1ZM414,286v-1ZM405,271h-1v-1h1ZM342,302h-1v-1h1ZM395,290v1h-2v-1h1ZM645,408v1l-2,-2v-4l-1,-1l-2,-3v-1l-1,-1h-2l-4,-4l-3,-2l-1,-1h-1v-2l1,2l2,1h1l2,2h1l1,1l2,1l1,1l1,2h1l6,6v1l-1,1v2ZM637,404l1,-1l1,1h1l1,1l-1,1l1,1v1l-2,2h-2v1l1,1v2h-1l-1,1l-1,-1h-2v1l-2,2l-2,1h-2v1h-2l-1,1h-7v-1l-1,-1h-3l-3,-2l-1,-1h-1l-1,-1h-1v-2h6l1,1h6l1,-1v-2l1,-1h1l-1,1v2l1,1h3l1,1v-1h2l1,-1v-1l1,-1l2,-1h2l1,-1l-1,-1v-4h2v1ZM543,441v-19l-1,-1v-2l1,-1v-33h2l6,3h1l5,2l3,1l1,1h4l2,2h1v1l1,1h5v1l1,1h1l3,3h2l3,4l1,1v2l-1,2l1,1h3l7,4h3v1h2v1l1,1v1h1v3h-6l-2,1v1l2,4h1l1,1v1l1,1l2,1v1h1l2,1v2l1,1v1l1,1v1l1,2v1h6v4l1,1h4l1,1v1h-2v1h1v1h1l1,1h1l1,1h4l-1,1h-3l1,1h1v1l-1,1h-2l-1,-1h-1v-1h-1l-1,-1h-1l-1,-1l-6,-1h-1v-1l-1,1h-2l-1,-1h-1l-2,-1h-2v-1l-3,-3l-1,-2h-1l-1,-1v-1l1,-1h-2l-1,-1l-1,-2v-1l-2,-1v-1l-1,-1v-1l-1,-1l-2,-1h-3l-1,-1h-2l-1,-1h-1v-1h-1l-1,-1h-1v1h-2v1h-1l-1,-1h-1l-1,-1v-1h-1l1,1l1,3h-1l1,1h-2l-1,-1v2l-1,1h-9v-1h-1h1v1h3l2,1h1v1h1l1,1v3h-1l-1,1l-4,2h-1l-2,-2h-1l-2,1h-3l-1,-1h-2v1h-1ZM604,415h-1v-1h-1l-1,-1l1,-1l2,1v1ZM587,404l-1,1v-1h-1l1,-1h1ZM643,394v1h-1v-1ZM638,392v1l-1,-1ZM619,379v1l-2,-2v-1l1,1ZM628,453l1,-1h1l-1,2l-2,-1v-1h-1v-1l2,1ZM622,448h-1l-1,-2v-1h1l1,1v1ZM629,441v1l-1,-1h1v-1h-1v-1h1v1ZM654,466v1h-2v-1h1ZM565,436l-2,-1h2ZM596,411l-1,-1v-1h2v2ZM596,381l3,1h-1l-1,1h-6v-1h1v-1h2ZM624,389h-2v-1h-1v-1h3l1,1Z"/>
<path class="sl" d="M624,446l1,1h1l1,1v1l-1,1v-1h-3v-3ZM641,444l1,1h1l1,1v1h-1l-2,-2h-1ZM648,467h1v1h-2l-1,-1h-1h1l-1,-1v-1l1,1ZM565,437h-1l-1,-1h-1v-1l1,1h1ZM603,384l-1,1v-1ZM637,391v-1l1,1ZM626,457v1h-1v-1ZM651,403v1ZM669,427v1h-1l-1,1v-1h-2l-1,-1v-1l-1,-1l1,-1l-1,-1h-1v-1h-1v-1l-1,-1v-1l-1,-1l1,-1v-1h1l1,1h1v2l3,3v1h1l1,1v1h1v1ZM659,416v-2l-1,-1l1,-1v1l1,1l-1,1ZM458,338v-1ZM488,302h-1v-2h1v1ZM42,305v1l1,-1v-2l1,-1v1l-1,1v1ZM55,273v-1ZM426,90h-1l1,-1ZM727,734v1l1,-1h2l1,-1h1v1h-1v1h-1h1v-1h1v-1h1v1v-1v1h1h-1v1h-1h1v1h-2v2l-1,1h1v1h-1l-1,1h-1v1h-1v1l-2,1l-3,2l-1,1v1h-2l-1,1h-1v1h-1h1v2h1v1l-1,1h-1v-1h-1v-1h-1v1h-1v-1v1h-1l-1,1h-3v1h-1l-1,2h-1v2l-1,1l-1,-1v1l-1,1v1l-3,3v1h-3v1h-1v1l-4,2h-4l-1,-1h-2v-2h-2v-1l-1,-1l-1,1h-1l-2,-1v-1l2,-1h-1l-1,1l1,-1h-2l1,-1h3l-1,-1l1,-1h-1l1,-1h2v-1h-1h1v-1h1v-1l2,-1v1v-1h1l1,-1h1v1v-2l1,-1h2l2,-2h4v-1h2l1,-1h2v-1h1l1,-1h2v-1h1v1v-1h1l2,-2h1l-1,1h1v-1l1,-1h1v-1l1,-1v-1h1v-1l2,-2h2l3,-3l1,-2l1,-1l2,-1l1,-1h1v1l-1,-1v5ZM732,732l-1,1l1,-1v-1h1v1ZM679,761h-1ZM681,758v1ZM682,771h-1v1h1v1h-4v-1h1v-1h1v-1l1,-1v1ZM757,699h-1v-2h1v1ZM748,685v1h1v-1v1h1v1h1l1,1v1h1v5l-1,-1v7l-1,1v1h-1h1v1h1l1,1v2h1v-3h1v-3l1,1h-1l1,2v1l-1,2v4h1v1l3,3h3v-1h1l1,-1h3v2l-1,1l-2,4l-1,1h-1l-3,3v2l-1,-1h1l-1,-1h-4v1h-1v2h-1l1,1l-5,5l-2,1v1h-1l-4,4h-2l-1,1h-1v-1h-2v-1l1,-1v1h-1l-1,-1h1l3,-3l2,-1v-1l1,-2v-2l-1,-1v-1h-1v-2h-1l-1,-1v-3h1l1,-1h4v-1l1,-1l1,-2l2,-2v-2h1v-3l1,-1v-1l1,-1h1l-1,-1h-1v-2l-1,-2h1v1h1v-3l-1,-1v-2l-1,1l1,1v2h-1v-2l-1,-6h1l1,-1h-1l-1,1v-2l-1,-1h1v-5l-1,-1h2v3ZM667,811l-1,1v-1ZM659,797v1v-1h-1l1,-1v-1h1v1h-1ZM768,765l-1,1v-1l-1,1h1v-1h-1v2l-1,1h-1v-1h1v-1h1l-1,-1h-1h2ZM765,770v-1h1ZM883,581h-1l1,-1ZM920,618h-1ZM41,642v1v-1h-1v-3l1,1v1ZM57,410v-1ZM58,402v-1ZM209,335v-2h1v1h3l1,1v1l1,-1v4h-1l1,1h1v-1l1,-1h4v-2l2,-2h1l2,3l2,2h1l1,1v1l2,3v3l-1,4v9l1,1l2,1l3,6v3l-1,1v-2h-1v1h-2l-1,2h-1v-2h-1l-3,-1l-1,-1l-4,-2l-2,-2h-1l-2,-1l-1,-1v-3l-2,-2v-1l-2,-2v-2l-1,-1v-3l-1,-3v-9l-1,-1ZM342,335h-1l-1,-1h-10v1h-2l-2,2v5l-1,1v3h-3v5l-2,2h-1v3h-1v2l-1,1v1l-1,-1l-1,1h-3l-2,2h-3l-1,-1h-1v-1l-6,1v1h-1v2h-1l-2,2h-6v1h-1l-2,1h-2l-2,-2h-1v-1h-1l-2,-2v-1h-1v-1l1,-1v1h1l1,1h3l1,-1v1l2,1h1l1,-1v1h1v-2h1v-3h1v-1h-1v-2h2v-2l2,-2h1l8,-3l1,-1h1v-1l1,-1l1,-2l2,-1l3,-5h1v-3h1l1,1v1l1,1h1v1h2v-1l1,-1h-1l1,-1l-1,-1v-2h1l1,-1h1v4h2v-1l-1,-1v-2l1,-1h1l1,-1v-1l-1,-1v-1l1,-1h2l1,-1v-1l2,-2v-1l3,-4l2,-4l1,1v2h-1h1l2,-2v-1h1v2h1v1h1l1,1h1v1l-1,1v2l-1,1l3,-1l1,-1l1,1v1h-1v1l1,-1h3l1,1h1l2,1h2v1h1v1h-1l-2,2h-6l-1,2l4,2v1h-1l-1,1h-2l-1,1h-1l-1,-1h-1v1Z"/>
<path class="sl" d="M237,360h-1l1,-1ZM209,344v1v-2h1ZM207,335v2h-1l-1,-1h2ZM340,311h-1v-1l1,-1h1v1h-1ZM216,362h-1v-1h1ZM292,355l-1,-1v-2h1v2ZM345,334l-1,1h-1v-1h1ZM13,595v2l1,1v2l1,1v2l2,8l1,1v2l1,1v2l1,2v3h1v1l-1,-1l-1,-2v-1v2l1,1v1l1,2v1l1,2v3h1v4h1v3l1,2l1,4l1,1v3l2,6l2,4v2l1,2l1,4l2,4l1,4l3,8l2,4l1,3l1,1v1l1,2v2l1,1v1l2,4v2h1l-1,1l1,1v1l1,1v2l-1,-1v1v-1h-1v-1l-1,-1v-1l-1,-1v-1l-1,-2v-1l-2,-2v-2l-2,-2v-2l-1,-1l-1,-2v-1l-1,-1v-1l-1,-1v-2l-1,-2v-1l-1,-1v-1l-2,-4v-3l-1,-2l-1,-1v-1l-1,-2v-2h-1v-2l-1,-2v-1h-1v-3l-1,-2l-1,-1v-2l-1,-2l-2,-6v-3l-1,-1v-3l-1,-1v-5l-1,-1v-5h-1v-5l-1,-1h1h-1v-2l-1,-3v-2l-1,-1v-1l1,1l-1,-1v-4l-1,-3v-3l-1,-1v-2ZM14,606v-1ZM23,631v1v-1l-1,-2ZM799,364h1ZM801,375l-1,-1h1ZM801,376v-1ZM801,381v1ZM811,399v-2h-1h1v1ZM813,403v-1ZM801,379h1ZM892,453h-1ZM959,430v1v-1l-1,-1v1l1,-1l-1,-1l1,1ZM951,408v1ZM895,439v1v-1v1ZM481,105h-1l1,-1ZM516,97h-1v-1h1h-1v-1h1l1,-1v1h1l-1,1ZM492,115l-1,1h-1v-1h1l1,-1h1ZM459,139h-1l1,-1l1,1ZM462,138h-1l2,-2v1ZM456,128h-1l1,-1v-1h1v1ZM451,117v-1h1ZM452,116v-2h1v1h-1ZM446,125h2v1h-2ZM459,127h-1v-1h1ZM531,62h-1v-1h1ZM532,63v-1h-1h2ZM522,76v-1h1v1ZM488,114l-1,1v-1ZM525,113h-1ZM449,124l1,-1v1ZM452,122l1,-1v1ZM455,119h-1v-1ZM475,117h-1h1v-1ZM473,118h1h-2ZM453,131l1,-1v1ZM548,162l-1,-1h1ZM549,67h1l1,1h6l1,-1v1l-1,1v1h1v1h1l1,1v-1h1v1h-3l-1,1h-7l-2,1v1h-1v2h-1l-1,-1l-6,-2h-4l-3,1l-1,-1h-3v1l1,1h3l1,1v1h-1l-1,-1h-1l-1,1v1h-3v-2h1l-2,-2v-2h2l1,-1v-2h1l1,1h4v-2l1,-1v-2h1v-2l-1,-1h-1v-1h1v-1h2l2,2l4,2h1l1,1l2,1h1ZM465,120h2v-1h1l1,1l-1,1h-1l2,1h1v1h1v1h-1l-2,2v1h-1v2h-1v2l-1,1h-2v1l-1,1l-2,1v-1h1v-3h-1l-1,1v1h1v1l-2,-1h-2l1,-1h1v-1h-1v-3h2v-1l2,-2h-1v-1l-2,-2h-1v2h2v1h-3l-1,1h-1v-1h1h-1v-2l1,1h1l-2,-2h-1v-1h3l1,-1h2l1,-1v-1h3l1,1ZM488,116h2v2h1l-2,1h-1v1h-1v1h-1l-1,-1h-2l-3,1l-1,1v1h-1v1h-3l1,-1h-2v-3l-1,1h-1l1,-1l2,-1h1v-1l1,-1h2v1h1v-1h3v-1l1,-1h3ZM534,79h2l-1,1v1l1,1v1h1v1l2,2h1v4l-1,1h-1v1l-1,1v1h-2l-1,1v2l1,2v2h-1v1h-1l-1,2v2l2,1v1h-2v1l-1,1v1h-1l-1,1h-2v-2h1v-1h1v-1h-2v1h-1v1h1h-1v1l-1,-1h-3v3h-1v1h-1v-2l1,-1h-3v1h-1l-1,1v1l-2,-1h-5l-1,1l1,-1h-2v-1v1h-1v-2h-1v1l-1,1v1h2v1l-2,1h-2l-4,4h-2v-1h-1v-1h-1v-2l-1,-1h2v-1h1l-1,-1h-8l-1,1h-4v1h-4l-1,1h-2l-1,-1h-1v1l-1,1v1l-3,-1h-2l-1,1h-1l-1,-1l-1,1v-2l1,-1h3l1,-1h1l1,-1h1l1,-1h1l1,-1l2,-1v-1h11l1,-1h4l2,-1l1,1h-1h1v1h3v-1h2l1,-1h-1v-2h1l1,-1l2,-1l1,-1v-2l1,-1h1l1,-1h1l-2,2h-1l1,1v1h2l1,-1l3,-1h3l2,-1v-1h1v-1l1,-1h2l2,-2v-1l2,-2v-2h1v-3h-1v-1l1,-1h-1v-2h2v-2h2l1,2h1v-1l2,1v-2h-3l1,-1h1Z"/>
<path class="sl" d="M408,178l-1,1h-1v-1h1l1,-1ZM404,180h-1v-1h2ZM417,176h-2l1,-1v1ZM440,162l-1,1h-1l-1,1v1h-1v1h-1v-2h1l1,-1v-1h2v-1h1ZM446,155h-1v-1h1ZM450,152l-1,1l-1,-1h-1h1l1,-1h2v-1h1v1h-1ZM449,153h-1v-1v1ZM528,123l-1,-1h1ZM61,261v1l-2,2v1v-1h1v-2h1v-2h1h-1ZM189,380l1,2h1v1h1l-1,1v3h-1l-1,-2l-2,-2l-1,-2h1l1,-1ZM200,405l-2,-1v-1l-2,-2l1,-2l1,-1h1v1l1,1v2l1,1v1ZM336,443l-1,2v1h-5v-1h1v-3l2,-2h1l2,1h1ZM326,440l2,2v1h-1l-2,2v1l-1,1v-2l-1,-1h-1l-1,-1h-2v-1h-1v-1h5l1,-1h1ZM250,395h1v1l2,5h3v1l-1,1v3h-1v-1h-4v-1l-1,-1l1,-1l-1,-1v-1l-1,-1h-4v-1l1,-1v-2h1l1,-1v1h1v1v-2h1v-1l1,1ZM389,404l1,2l-1,1v-1h-1v3l1,1h1l-2,2h-1v2h-2l-1,-1l1,-1v-1h1v-3l1,-1v-4h1ZM385,411l-1,1h-1v-1v1h-1v-2l1,-1v-1l-1,-1v-1h2l1,-1l1,1v2l-1,2ZM268,347l-1,1l-1,-1h1l1,-1h-2v-1l1,-2h1v1l1,1v1ZM267,403v2h-1v1h-1v-1h-1l-1,1v-1h-1v-3h1v-2h3l2,2ZM495,368h4l1,2h1l1,1h1v1h-5v-3l-1,1l-1,-1h-1ZM495,376h7l1,1h5l-2,1h-6l-1,-1ZM455,363h2l2,1v2h-1l-1,-1l-1,1l-1,-1l-1,-2l-1,1h1v1h1v1l-1,1v-2l-1,1h-1v-1h-2v-1l1,-1v1l1,-1h2ZM434,346h-1l-1,-2l2,-2h2v3l-1,1ZM432,377l-1,1h-6v-1l2,-2h1l2,1h1ZM414,385h-1v-2h-1v-2h1v2l1,1ZM413,379l3,1h-4l-3,1h-1v-1h3ZM404,379h2v1h1l-1,1h-3l-2,1h-1l-1,-1v-2h3ZM460,431h-2v-1h-1l1,-1v-1l1,-2h1v-1h1v-2h2v1l-1,1l1,1l-1,2l-2,2ZM421,429v1h-1l-1,1h-1v1h-3v-1l-1,1h-2l2,-2h3l1,-1h2ZM402,434v1h1v-1h3l1,1v1l-7,1l1,-1l-1,-1h1v-1ZM456,374h-1l-1,-1v-1l-1,-1l2,-1h2v3ZM183,350h1l2,-1h5v1l2,1v2l2,1v3h1l1,1h1v1h1l2,1l2,2h2l1,2l1,1v1l1,2h1v1l1,1h1l1,1v-3h2l1,1v1l1,1v1h2l1,1l2,1l1,1v2l2,2h3l1,1v1l-4,2h2l1,-1h1v-1l2,-1h2l1,1v3h-1l-1,2v3l2,2h2v1h2l1,-1v3l1,2v3h2v2l-1,1v2h1l1,-2h1l2,-1h1v1h1l2,3l2,2v1l-1,2h-1v2l1,1v1l-1,2l1,3v10l-1,1h-1v-1h-2l-2,2v-1h-1l-2,-1v3h-1l-3,-3l-2,-3h-1l-2,-1l-1,-1h-1l-2,-2l-3,-2l-3,-3v-1l-3,-1l-1,-1v-1l-2,-2v-1l-1,-1h-1l-1,-2v-1l-1,-1v-1l-3,-7l-2,-4l-2,-2l-1,-2l-1,-1h-2v-1h-1v-1l-1,-2v-3l-2,-5l-1,-1l-3,-2h-2l-1,-1v-4h-2v-1l-1,-1v-1l-1,-2h-1v-1h-3l-1,-1v-1l-2,-1l-2,-3h-1v-2l-1,-2v-3h4l1,1h2ZM387,439l-1,1h-2v1h-3l-2,1h-4v1h-5l-2,-1l-2,1l-1,-1l-1,1h-1l-1,-1v-2l1,-1v1l2,-2h3l1,-1v1h3l1,1h1l1,1h2v-1h3v-1v1h1l2,1l2,-2l2,-1l1,-1h-1v-1h1l1,2h-1v1h-1Z"/>
<path class="sl" d="M364,448l2,1v1h3v1l1,1h1v1l-1,1v1h-5v-1l-2,-2l-2,-1h-5v-1h-1l2,-2h6v-1h1ZM349,440h1l1,-1h2v1v-1h2l1,1v3h-2v1h-4v-1l-1,1h-1l-2,1h-1l-2,1h-1v1h-5v-4h1v-1h1l1,-1h4v1h1l1,1h3v-1l-1,-1h-1l-1,-1h-1v-1l1,-1h2l1,1ZM404,356l-4,4v1h-1l-1,1h-1l-3,1h-4l-1,-1h-10l-1,1h-1l-1,-1h-2l-3,1h-5l-3,3v1l-1,1v3l1,1v1l1,2h2v1l1,2l1,1h3l1,-1v-1l3,-3h5v-1h1l2,-1h3v-1h2l1,-1l1,1h1v3h-2v-1h-2l-2,2v1l-2,1l-1,2h-1l-1,1l-2,1h-1v1h-1l-1,1v-1h-1v1h-1h1l1,1v1h2l1,1l1,2v1h1l2,2v4l-1,1v1h1l2,2v1h1l1,1v-1l1,1v2h-4l-2,1l-1,1v2h-4l-1,-1v-3h1v-2h-1l-1,-1h-1l-3,-3v-1l1,-2v-5h-2l-1,1h-1l-2,2h-1v1l1,1v1l1,1v4l-1,2l1,3v2l-1,2v2l1,2v2l-1,-1l-1,1h-2l-1,1h-1l-1,-1h-1l-1,-1v-1l1,-1v-1l1,-2l-1,-1l1,-1v-5l-1,-2v-2l-1,-1h-1l-2,1h-1v-2l-1,-1v-1l1,-1l-1,-1v-1h1l2,-2v-3l1,-1v-1l1,-1l-1,-1v-2l3,-6l1,-1v1l1,1v-2l-1,-1v-4h1v-1l-1,-1l1,-2l2,-2v-1l1,-1v-1h1v1h2l1,-1v-1l2,-2h4v1h1v1l3,-1l2,1h5l1,1h1v-1h8l3,-1l1,-2h2v-2h2v-1l1,-1h2l1,1h-1v1l-1,2ZM262,430v1h4l1,1h1l1,-1l2,2v2h15v-1l1,-1v-2h1v-1h2l1,2h2l1,-1h1v1h3l1,1l1,-1h2l1,2v1h1v2l1,1h1l2,1l2,-1h3l2,-1l2,1h1v7h1l1,1l-1,1l-1,-1h-1v-1l-1,1l-2,-1h-2l-3,-1h-2l-1,1h-18l-5,-2l-7,-1l-1,1h-3l-1,1h-6l-1,-1h-9v-2h1v-1l-3,-1h-4l-1,1l-1,-1l-1,1v-1l1,-1v1h1v-1l1,-1v-1h1v-3l1,-1v-1h7l1,-1h2ZM278,360l-1,1v1h1v1l2,2h1v1h1l2,2h2l2,-1h1v-1h6l2,-2h1v-2h1v-1l6,-1v1h-1h2l1,1h3l2,-2h3l1,-1l1,1v-1l1,-1v-2h1v-3h1l2,-2v-5h3v-3l1,-1v-5l2,-2h2v-1h10l1,1h1l-1,1h1v1h1v1h1l-1,1h-1v-1v1h-3l-1,1h1l1,1h1l-1,1v1h2v1l1,1h-1h1v1h1v1l2,2v1l-1,1v1h-1v1h1l1,2h1l2,2h2l2,2v1h1l-1,1h-1l-2,1h-2l-1,-1h-1v-1h-1v2h-1v1h-1l-1,3l-1,1v5l1,2v2h-1l-1,1h-1l-1,1v1l-1,1h-2v-1v3h-2v2l-1,1h-1h1v1h1l-1,1v2h2v1l-1,1v1l-1,-1v4h-2v1h1v1l-1,1v1l-1,1v1l-6,3l-4,3h-1v-4l-1,-2v-1v1h-2v-1l1,-1l-1,1h-1l-1,1l-2,1l-1,-1v-1l-1,-1v1h-1l-3,-2v2l-2,1l-1,1h-3l-2,2h-1v-2l-1,-2v-1h-1v1h-3l-2,1h-1v-1h-1v1h-1l-1,-1l-1,1h-1v-2l-1,-4v-2l-1,-1v-5l-3,-3h-3v-1l1,-1h-1l-1,-1v-4h1v-1h-1l-2,-2v-4l1,-2v-1h1h-1v-2h1v-1l1,-1v-1l1,-1ZM428,357h1l1,-1v-1l1,-1h1v-2l2,-1l1,-1h1v1l1,1l-1,2l-1,1l-2,1v1l1,1l2,1v1l1,1h-2l-1,-1h-5v1l1,1l-1,1l2,5l1,2h1l1,1h-1l-2,-2h-1l-1,-2l-2,-2l1,-1v-3h-1v-1h-1v-2l1,-1l-1,-1l-1,-2v-1l1,-2l1,-1v-2l3,-3h1v1l-2,2l2,2v1l-1,1v1l-1,1l-2,1v1h1Z"/>
<path class="sl" d="M446,387l2,1h3l2,1v2h1v1l1,1v2h-2l-2,-1l-1,-1l-2,-1h-1l-1,-1h-3l1,1h-4l-1,-1h-2l-2,2l-2,-2h-1v-1h-1v2l-1,1v-2h-1l2,-3h1l3,-1h5v1h1l1,-1h2ZM421,390l2,2h1v3h-1l-2,1h-4l-2,-1v-1h-1v-1l-1,-2h2l1,-1h4ZM405,441v1h2v1h-2v1h1v3l-5,5h-2l-2,1l-1,1h-1l-1,-1l1,-1l-1,-1v-1l2,-4l1,-1h1v1h2v-1h1v-2h2v-1ZM489,411v5h-3l-2,-2v-1h1l1,-1l-2,-1h1l1,-2h1v-1h1v2h1ZM487,417v1l-1,1v1l-1,1h-1l-1,-1v-3h1v-2h1v1l1,1ZM522,433l-2,1h-6v-1l2,-3l1,-3h1l1,-1h1l2,-1h2v1h1l1,1v1l-1,2l-1,1l-2,1ZM543,385v33l-1,1v2l1,1v19l-4,-4v-1l-5,-4l1,-1v-1v1l-1,1h-6v-2l-1,1v1l-2,1v-3l1,-1v-1l1,-1h-1v-1h-1v-1h-1v-1h2l-1,-1h-2l-1,-2h3l-2,-2v-1l-2,-2l-1,-2v-2h-1v-1h1h-2v-2l-1,-1h-1l-1,-1l-4,-2v-1l-1,1v-1h-3l-4,-2h-1l-1,-1h-1l-3,-1h-4l-4,-2l-1,-1v-1h2l-1,-1v1h-2l-1,-1l-1,1l-1,-1v-1h-1v1h-1v-1l-1,-1h-1v-3l1,-1v-1h-1v1l-1,2h-1v2l-1,1v1l-1,2h-3v-1h-1v-2l1,-2l-1,-1v-1l-4,-2l-1,-1h-2v-1h1l1,-1h3l1,1l2,-1l1,-2h2l1,1h3v-1h1l1,-1h-1v-1h1v-1l-2,1h-4l-3,1l-2,-1h-4l-2,-2l-1,-2v-1h-1l-4,-2l-1,1h-2v-1h1v-1h1v-1l1,-1v-1l1,-1l3,-1h1l1,-1h1v-1l2,-1h2l6,3h2l2,1l1,-1l1,1h1v3h1l1,1v2h-1v1l-1,1l1,1v4l2,2v2l1,-1v-2l1,1v1l1,2h1v3h2v1h2l1,-1h1l1,-1l2,-1v-1l1,-1v-1l2,-1l1,-1v-2h4l2,-1l1,-1v-2l4,-2h3l1,1l5,1l1,1v1h2l1,1h1l5,2h3l1,1h3l1,1v1ZM525,434h-3v-1h1v-1h1ZM218,369h1v1l-1,1v1h-1l-1,-1v-1l1,-1ZM223,377l-1,-1v-2h1v1h1v1h-1ZM224,373v1h-1v-1h-2v-1ZM228,378v1l-1,-1h-3v-2h1l1,1h2ZM229,377h-2v-1h-2l1,-1l2,1ZM230,380h-1v-2l1,1ZM231,378l-1,-1h1ZM235,373l1,1v-1v1l-1,1v-1h-1h1ZM239,372v1h1v1l-1,1h-1h1h-1v-1h-1l1,-1h1ZM241,384v-1l1,1v1l-2,-1l-1,1l-1,-1h1v-2l1,1ZM238,385l1,1v2h-1l-1,-1v-1h1ZM233,386l-1,1h-1v-1h1ZM278,386l-1,1h-1v-1l1,-1h2v1ZM313,433h-2l-1,1h-6v-1l1,-1l10,-1v1h-2ZM491,372h-1l-1,-1l1,-1h1v1ZM424,368h-1v-2h1v1ZM427,366l1,2l-1,1h2v2h-2v-1h-1v1l-1,-1l1,-1h-1l-1,-1l1,-1h-1h2v-1ZM473,413v-2l1,-1l1,-3v3l-1,1ZM472,412v1h-1v-3l1,1ZM433,395h-3l1,-1l2,-1v1ZM420,331h-1v-1l1,-1v-3l1,1v2ZM410,336h-1v-2l1,1ZM456,434h-1v-1l2,-1h1l-1,1h-1ZM447,431l-1,1l-1,-1v-1h2ZM429,433h3l-1,1ZM451,377v3h-4l-1,-1h-1l3,-1h1l1,-1ZM224,432l-1,-1h-1l1,-1l1,1ZM209,415l1,1l-1,-1v-1h-1v-2l2,1v1Z"/>
<path class="sl" d="M208,411l-1,1h-1v-2ZM205,409l-1,-1h-1v-2h1v1l1,1ZM195,395v1l-1,-1l1,-1v-1l-1,-2h1v1l1,1v1ZM182,374h-1l-2,-1h-1l-1,-1v-1l1,-1v1h2v1l2,1ZM380,412l-1,1l-1,-1v-2l1,-1v1h1v1ZM389,375v2l1,-1h2v2h-2l-1,1v-2h-1l-1,1v1h-1v-2l1,-1ZM378,370v1h-2l1,-1ZM367,421v-3ZM325,430l-1,1v-1l1,-1h1v1ZM332,403l-2,2v-2l-1,-1v-1l1,-1v-1l1,-1v1h1v3ZM389,459h-1v-1l2,-1h1l1,-1v-1l1,1v1h-1l-1,1ZM399,436v2h-1l-1,-1h-1l1,-1h1v1l1,-2h1ZM396,436h-1v1h-1v1l-1,1v-1l-1,1l-1,-1l2,-2h-1h2l1,-1h1ZM391,437h-2v-1h2ZM489,418h-1v-1ZM231,375v1h-1v-2ZM234,377h-1v-1h1ZM237,376h-1v-1ZM240,382h-1v-1h1ZM252,354v1ZM248,357v-1h1v1ZM272,353v1v-2ZM273,391h-2l1,-1h1ZM261,403v1v-1h1ZM257,405h-1v-1h1ZM317,433l-1,-1h1ZM303,423h-1l1,-1ZM246,438h-1v-1h1ZM188,375h-1l-1,-1h2ZM176,347v1h-1v-1ZM393,380h-1v-1h1ZM390,400l-1,2l-2,-2l1,-1h1ZM395,382h-1v-1ZM389,381l-1,1v-1ZM359,442v1v-1l-1,-1h1v-1h1v1h-1ZM356,438h-1ZM328,446l-1,-1h1ZM343,335h1l1,-1v1l-1,1ZM343,342h-1v-1h1ZM397,416h-1v-1h1ZM393,410v1l-1,-1ZM370,428h-2v-1h2ZM343,441v-2h1ZM333,399l-1,2v-2ZM425,357h-1ZM486,380h-1l1,-1ZM479,398v1l-1,-1h-1v-1l1,1ZM455,369v1l-4,1v-1h4ZM453,367h-1h1v-1l1,1ZM444,365h-1v-1h-1v-1l2,1ZM426,364h-1v-1h1ZM425,358h1ZM424,370v1l-1,-1v-1h1ZM437,393v1h-1l-1,-1h1ZM435,394h-1v-1h1ZM419,332v-1h1ZM421,333h-1v-1h1ZM408,342v1v-2ZM465,424h-1l-1,-1h2ZM437,425h-1v-1h-1h2ZM426,429h-1l1,-1ZM393,454h-1v-1l1,-1v1ZM380,457h-1v-1h2ZM490,417h-1l1,-1ZM488,420v-1h1ZM430,388v1h-1h1ZM427,392h-1v-1h1ZM388,439v-1h1ZM167,341v1l-1,-2v-1l1,-1v2ZM166,337v1h-1h1ZM163,331v-1ZM165,334h-1v-1h1ZM166,332h-1v-1h1ZM162,325l-1,-1h1ZM162,314h-1v-2l1,-1v1ZM164,307h-1l1,-1ZM164,306l-1,-2v-1h1v-2h1v-4h1v-2l1,-1v-3l2,-2v1l-1,1v2h-1v5h-1v2l-1,1v3l-1,1ZM167,301v1h-1v-1ZM166,295l-1,1l1,-1v-1ZM62,346v-1ZM59,369v-1ZM13,610v-1h-1v-1l1,1ZM41,653v1h-1v-1l-1,-1v-2h1v1ZM861,521h-1v-1h1ZM848,526h-1v-1h1ZM957,598v-1ZM959,609h-1h1v-1ZM957,600h-1l1,-1ZM959,611l1,1l-1,1v-4l1,1ZM991,569v1ZM991,571h-1ZM990,577v-1ZM991,560v-1ZM990,564l1,-1v1ZM973,632h-1l1,-1ZM971,636v1ZM972,634v1v-2ZM974,648v-1ZM974,644v1ZM966,661v-1Z"/>
<path class="sl" d="M975,614v-1ZM973,616h-1ZM972,616v-1ZM972,606v-1ZM970,609v-2l1,-1l-1,1v1ZM722,552v1h1l4,4v1h1l1,1v2l2,2v1h1v1h1l1,2l2,1v1l2,2v2h-2l-1,-1h-1l-1,-1v-2h-2v-1l-1,-1h-1l-1,-2l-3,-3v-1l-1,-2l-2,-2v-1l-1,-2v-1l-1,-1h1v-1ZM741,576v1ZM691,540v-1l1,-1v1ZM747,567v2h-1v-1h-1l1,-1l-1,-1h2ZM738,559h-1l1,-1v-2l1,1h-1v1ZM743,564h-1v-1h-1v-2l1,-1h-1l1,-1l1,1v3ZM199,828v-2l1,1v1h1v-1h1l-1,-1h2v2h1h-2v1h1h-1h1v1h1v-1h1v1h-2v1l-1,-1v2l-3,-3h-1v-1l-2,-2v-1l2,2ZM199,827v1v-1h-1v-1ZM157,839l-1,-1h1ZM834,539l-2,1v1h-1l-1,1v1l1,-1h1v-1v2h-3l-1,-1l-1,1h-3v-1h-1l1,-1v-1v1h1l1,-1h1l1,-1h3v-1h1v1h1l1,-1ZM821,546v2h1v5h-6v-1h-2v-3l1,-1v-1l1,-1h4ZM832,545v-1l1,-1l1,1l-1,1ZM832,545v1v-2ZM819,560v1h-1v-1l-1,1h-1v-1h2ZM836,556v-1ZM841,557h-1v-1h1ZM838,550h-1l1,-1ZM837,566l-1,1v-1h1h-1ZM830,563h-1v-1ZM815,543h-1l1,-1ZM828,548v-1ZM826,554v-1ZM824,550h-1l1,-1ZM833,542v-1h1h-1ZM834,539v-1ZM833,542v-1ZM821,503h-1v-1h1ZM790,578v-1ZM11,604v1l1,1h-1v-1ZM12,608v-1ZM11,605v-1l-1,-2v-1l1,2v1ZM361,181l-1,1v-1ZM396,135h-3l-1,-1h-1v-1h1l1,1h1l1,1ZM397,144h-2v-1h2l1,1ZM396,146h-1v-1h1ZM398,144v1ZM374,174h-1v-1h1ZM298,211h1v1h-2ZM388,156h-1v-1ZM324,196v1l-1,-1ZM317,205h-1l1,-1ZM316,205h-1ZM301,218v3h-1l-1,1l-1,2h-1v1l-1,1v2h-1l-1,1h-1l-1,1h1h-1v1h-2v1h-1l-1,1l-1,-1h-3l-2,-1l1,-1l-1,-1v-1l1,-2v-1h1l1,-1l2,-1v-1h1v-1h2v-1h3l2,-1h2v-1l1,1v-1h2ZM323,201v-1ZM327,198h1v-1h1v2h-3ZM328,200v-1ZM326,200h-1h1l1,-1v1ZM233,293v-1ZM235,297h-1v-1ZM199,302v1v-1h-1ZM198,310h-1h1v-1h1ZM200,298h-1l1,-1v-2h1v1l-1,1ZM202,294v-1h1v1ZM202,295v2h-1v-2ZM202,289h1l-1,1v1h-1l1,-2v-1ZM200,293v-1h-1h1v-1v1ZM181,269v1v-1l1,-1v-1v1ZM202,262h-1v-2h1v1ZM181,250l-1,-1v-1h2v1h-1ZM182,241v1ZM183,243h1v1l-1,1v-1h-1ZM201,301v-1ZM199,296v1v-2ZM200,291l-1,1v-1ZM202,285v1v-2ZM183,269v-1ZM179,241v1v-2ZM323,331v2l1,1v1h-2v-4ZM322,331h-1l-1,1h-1v2l1,1l-1,1h1l-1,1v1h-2v-1h-1l-1,-1v-1l-1,-1h2l1,-1h1v-1l1,-1h1l1,-1h1ZM173,228v1l1,-3v1ZM176,226v-1ZM171,229l-1,1l1,-2v-4h1v5ZM177,229l-1,1ZM176,232v-2h1v1ZM172,223v1ZM252,471h-1v-1h1ZM191,497h1ZM234,846v1l-1,-1h-1h3ZM731,631v1Z"/>
<path class="sl" d="M631,982h1ZM544,998h-1h1h-1h1h-1h1v-1h4l2,-1h5l2,-1h5l1,-1h-4l-1,1h-5l3,-1h2l3,-1h-1l-4,1h-2l2,-1h5l2,-1h1h-4l-2,1h-4l-4,1h-3v-1h1h-8v1h-14l-1,1h-2v-1h2v-1v1l-1,-1l-1,1h-2v-1h-6v1h-3v1h-9l-1,-1v1h-4v1h-27l8,1h3l2,1h1l-1,1h-12l-3,-1h-13l-1,-1h-8l-1,-1h-1h1v1l-1,-1h-9l-1,-1h-2h2v1l-1,-1v1h1h-1v-1h-8v-1h-5l-1,-1h-6l-1,-1h-4l-1,-1l1,1l-1,-1h-5v-1h-5v-1l1,1h2l-3,-1h-3l-1,-1h-3v-1h-4l-1,-1h-3l-2,-1h-2l-4,-2h-1l-2,-1h-2l-2,-1h-2l-2,-1h1l-1,-1h-3l-1,-1h-2l-1,-1h-1l-1,-1h-2l-1,-1h1h-1v-1h-3v-1h1l1,1h2l-2,-1h-1l-2,-1h-2v-1h1l1,1h1h-1v-1h-2l-1,-1h2v1l1,-1h-1v-1h-2l-1,-1l-2,-1h-1l-2,-1l-1,-1h-1v-1h-1l-1,-1h-1l-1,-1h-2l-1,-1h-2l-2,-1h-1l-1,-1h-2v-1h1l1,1h4l1,1v-1l-1,-1h2v-1h-2l-1,-1l-2,-1h-2l-2,-2h-1l-1,-1h-1l-2,-2l-2,-1l-1,-1v-1h-1l-1,-1v-1h-1v-1h-2v-1h-1h1v-1v1h3l-1,-1h-1l-2,-2h-1l1,1h-1l-1,-1h-1v-1h2l-1,-1h-2l-2,-2h-1v-1l-2,-1v-2l-1,-1l1,-1h6l1,1h1h-1v1h2l2,2h1h-1v-2h1l1,-1l3,1v-1h-1l1,-1h3l1,-1h-1l1,-1h2l1,-1h2l1,-1h2v-2h1l2,1l1,1h2v1h1l1,1h1v1h1l1,1h1v1l1,1h2l1,1h-2l3,3l1,-1l1,1v-2l1,1h1l1,1l2,1h1v1h1v1l1,1h1l2,2l2,1h2l1,1l2,1l1,1h2v-1h-1l-1,-1h-2v-1h-1v-2l-2,-2h-1v-1h-1v-1l-2,-1h-1l-2,-2h-1v-2h-1l-1,-1h-1v-1l-1,-1h2l1,-1v-1l-1,-1h-1h1l-1,-1v-2l-1,-1v-1h-1l-2,-2v-1l1,-2l1,-1v-1h1v-1h1v-4h3v-1l1,-1l1,-2h4l1,-1h1v-1l1,-1h1l1,-1h6v-1l1,-1h1v1h1l1,-1h1l1,-1h3l1,-1h1l1,1l2,-1h1v-1h1l1,-1v-1l-1,-1l3,-1h9l5,1l3,-1l1,1h4l1,1h2l3,-3l-1,-1v-1l1,-1l2,-1h2l1,-1l1,1h3l2,2h3l2,2v1l-2,1h-1l-1,1h1v1h1l1,-1h1l1,-1h2l1,-1h8l1,-1h1l2,-1l-1,1l-2,1l-1,1h1l4,-1l2,-1h2l1,-1v-1h3l2,-1h4l1,-1v-1h4l2,2l2,1h2l1,1h1l1,-1v1l2,-2v-2l1,-1h1l1,-1h2l2,1l2,-1h6l1,1v1l4,-2l2,1h6l1,1h4l1,1h5l1,1h3l1,1h2l1,-1h1l1,1v1l1,-1h1v2l-2,1v1h-1v1h1l1,-1h5l2,2v2h2l3,1h8v1l-1,1h5l1,1h1v-1h2v-2h1v1l1,1v1h1v1h1l1,1h1l2,1h3v1h1l2,1h1v1l-1,1v1h1v1l-1,3l1,1h1l1,-2v-1h3v2h5l1,1h2l1,1h1v2l2,2v1h1l1,-1v1l-1,1v1h-3l-2,2h1h-3v-1h-1v1h1l1,1h-1v1h-1l-2,1v-1h-4v-1h-1v1h1v1h-5v1h-2l2,-2h-1l-2,2v1h-1v2h-4v-1h-1v1h-2v1l-2,1h-4v1h2v2l-1,1h-1l1,1h-1l-1,1v1h-2v1h1v1l-1,1v1h-1h1v1h-2v1h2l1,-1v1h-1v1h1v1h-1v-1h-3l-1,1h-3v-2l-1,1v1h-2l-1,1h-1l-1,1v1h-1v1h-4v1h2v1h-1v1l-1,1h-1l1,1h-1h1v3h-3v1h1v-1h2v3h1h-1l-1,1v-1v1h1v1h1h-1h1v1h1v1h-1h1v1h1h-1l1,1h1v1h2v2l1,1v2l1,-1h2l-1,-1v-1h1v-1l1,1v-1h3v-1h-1v-1h1l1,-1v-2h2v2l1,1h-1v1h1l1,1h11l4,-2h2l1,-1v-1h2l6,2h1v-1h1l1,-1h3v1h1v-1h2l1,-1v-1h1v-1h1v-2l1,-1h6l-2,-2l1,-1h1l2,-1h2l1,-1h1l-1,1h3v2h-1l1,1l-1,1h-1v1h4v-1h1v1l-1,1h3v-1h3v-1h1l1,-1l-1,-1v-1h3v1l-1,1v1l2,-2h2l1,1h4v1h-1l-1,1l2,-1h4l1,1l-1,1h1l2,-1l1,1h-1v3h-1v1l1,1h-1v2h-1l-1,2v1h1l-2,2h1l2,-1h1l-1,1h-2v1h-6v1h-1v1h1v-1h3l-1,1h-6l-1,1h-1v1h-2l-1,1h-1v1h-1l-1,1h-1l-1,1h-3v1h-1h2l1,-1h4l1,-1h2l2,-1h3l1,-1v1h-3v1h-1h2l1,-1h2l1,-1h2l2,-1h1h-1v1h-3v1h-2l-3,1l-1,1h-3v1h-3l-1,1h-1l-1,1h-3l-1,1h1l1,-1l-1,1h1h-4l-1,1h-4v1h-4l-1,1h-4l-2,1h-1h2h-1h1h-2l-3,1h-4v1h-6l-1,1h-4l-1,1h-7l-1,1h-7l-1,1h-5Z"/>
<path class="sp" d="M542,998v0M416,993h-1M410,992h-1M559,996l-1,1h-7l-1,1h-6"/>
<path class="sl" d="M502,998h-4v-1h10v-1h6v1h-4v1h1h-1v1h-10v-1ZM523,996h-1v-1h9l-4,1h-2l-1,1v-1ZM564,996h3v-1h1h-1l-1,1h-1ZM569,995h1ZM575,994h5l1,-1h1h-2v1h-4Z"/>
<path class="sp" d="M567,995l-1,1h-2M571,995h-2M580,994h-5"/>
<path class="sl" d="M626,982h-2v1h-1h1h-3v1h-2v-1h3l1,-1h2l1,-1h1l2,-1h1v1h-2l-1,1ZM636,970l-1,1h-3v-1h2l1,-1h2v1ZM643,966h-2l-1,1h-2v1h-2v1h-2v-1h2l1,-1h1l1,-1h1h-1h1l1,-1h2ZM580,963l-1,-1v-2h1v-1h3l1,-1h2v1h-1v1h-1l-2,2h-1v1ZM557,943l2,1h1h-1l-1,1h-1v-1h-1l-1,1h-1v-1l1,-1h1v-1h1ZM480,997h-1h2ZM484,997l4,1h-4ZM540,995h3v1h-3v-1h-1ZM573,994l-1,1l4,-1h1h-1h-2ZM606,987h3l1,-1v1h-3ZM554,946l-1,1l-1,-1v1h-1v-1h2ZM382,892h-3v-2h3v1ZM341,968h1v1v-1h-3v-1h1v1ZM397,989l1,1v-1v1v-1ZM391,988h-2v-1l1,1ZM533,995h1l1,1l1,-1v1h1h-5v-1ZM536,996h1l1,-1v1h-1ZM616,985v-1h1l-1,1h-1ZM626,980v-1h2ZM633,972v-1h2v1h-1ZM632,968v-1h1v1ZM553,969h1v-1v1ZM565,966v-1h1v1ZM561,932v-1h2l-1,1ZM556,935h-1ZM579,929h-1v-1h1ZM592,898v-1h1v1ZM590,894v-1ZM589,892v-1ZM371,896h2v1h-2ZM382,895v-1ZM379,897h-1l1,-1ZM388,889h-1v-1h-1h1v1ZM359,897v1h-1v-1ZM350,908h-2l-1,-1h3ZM350,906v1l-1,-1ZM346,906v1l-1,-1ZM358,940h1ZM360,942h-1v-1h-1h1ZM351,933h-3v-1l1,1h1ZM303,939v1v-1h-1ZM352,975h-3v-1l1,1ZM378,985h1l-2,-1h1ZM394,989h1ZM380,985h1h-2ZM391,988h-1h2ZM375,984l-1,-1ZM445,997h1h-2ZM430,995h1ZM420,994h1ZM482,997h-1ZM571,995h1ZM612,986v-1h1ZM630,974v-1h2v1l-1,-1v1ZM634,964h1ZM633,965v-1h2l-1,1ZM612,960h1ZM621,959l1,-1v1ZM610,961h1l-1,1ZM609,961l-1,-1h1ZM611,959v1h-1v-1ZM606,961h-1ZM610,959h-1h2ZM616,960v-1h1ZM613,961h-1v-1h1ZM605,960h1ZM581,965h1v-1h1h-1v1ZM608,960h-1l1,-1h1v1ZM563,968h1l1,-1l-1,1ZM838,472v-1l1,1Z"/>
<path class="sw" d="M55,273v-1ZM153,147v-1h1h-1h1h-1v1h-1ZM155,145v1h-1h1ZM157,142v-1Z"/>
<path class="sh" d="M561,466v1l-1,1v1h1l1,1v1l1,1v2l1,2v7l1,2v2h1l1,1l1,-1h1l1,-1h1l7,7v8l1,1v2l-1,1l1,1v1l1,1l1,2h1v1l1,3l1,2l-1,3v3l1,2h1v1l-1,2l3,3h1l1,1h1l1,1h3v2l2,2h1v1h2l1,2h2l1,2h1v1h-1v2l1,2l3,3v2l1,1v4l1,2v2h1v-1l1,1v1h1l-1,-2l1,-1h1l3,3v-1h1l1,1l-1,3v5l3,3v1l2,1l1,1h1l1,1l1,3v1l1,1h1v1l1,1v1l2,2v5h1v1h1l-1,3l-1,6v3l1,4v2l1,2v3l-1,2l-1,1l-1,2v2l-1,3l-1,1v2l-2,3v3l-1,1v1l-1,2l-1,3l-2,2l-1,2v1l-2,1v1h-1v1h-2l-3,3v1h-1v2h-1v1l-1,1v1h-1v1h1l-3,3l-1,2v3h-1v1h-1l-2,3l-2,2v2l-1,2v2l-2,2v5l-1,1h-1l-1,1h-1l-1,1l-3,-1h-4l-1,1h-2l-2,1l-6,5h-4v1h2v2h-1l-1,-1v-1h-2v-1l-1,-1h-1l-1,-1v-1h1v-1h-2v1l-2,1l-2,-2h2l1,-1v-1l-1,-1l-3,1l-1,1h2l-1,1h-1l-2,1l-2,2h-1l-1,1l-1,-1h-1l-1,-1h-2l-2,-2h-2l-2,-1h-1l-1,1h-1l-1,-2l-2,-1h-2l-2,-1l-1,-2l-2,-3l-1,-1v-2l1,-2l-1,-3l-1,-2l-2,-2l-2,-1v-1h1v-1l1,1v-1h1l-1,-1h-1l-1,1h-2l-1,1h-3l1,-1v-1h1l1,-3v-2l-1,-1l-1,-2v-1l-1,-1v1h-1v1l-2,6h-3l-1,1h-2l1,-3h3v-1l1,-1l-1,-1v-1l1,-1v-1l1,-3l2,-2v-2l-1,-1h1v-4l-1,-1v2l-3,3v2l-2,2h-1l-2,2h-1l-1,1l-2,3l-1,1v1h-1v1h1v2l-1,-1h-2l-1,-1v-1h-1l-1,-1h1l1,1v-1l-1,-1v-2l-1,-2l-1,-1l-1,-2v-1l-1,-1v-1h-4v-2l-1,-2h1v-2l-2,-1l-1,-1h-1l-1,-1l-1,1h-2l-3,-2h-4l-4,-2l-2,-2h-3l-1,1h-10l-3,1h-1l-3,2l-4,2h-2l-3,1l-2,1h-8l-2,2h-1l-2,1l-3,2l-2,1h-1l-1,1v1l-3,6l-1,1h-5l-4,1l-1,-1h-9l-2,1h-2l-2,1h-1l-1,1l-1,2l-1,1h-1l-1,1l-3,2l-2,2h-1v1h-10l-2,-1h-2l-3,-3l-2,-1l-1,1l-1,-1v-1h-1v-2l-1,-3l1,1h2l1,-1v-1l1,-2l-2,-4v-1h1v-2l-1,-4l-1,-1l-2,-4l-3,-3l-2,-5v-2l-1,-2v-3l-4,-4v-2l-1,-1l-1,-2l-2,-2h-1v-4l-1,-2l-3,-4l-4,-3l-1,-1v-1h1v1v-2l1,1l1,2v1h2v-2l-2,-2l-1,-2l-1,-1v-1h1v1l1,1v2h1l1,-1l1,2v1h1l1,-1l-1,-1v-3l-2,-2l-3,-5l-1,-2l-2,-2v-6l1,-3v-5l-1,-2v-2l1,-4l1,-1v3l1,1v1h1v-1h1l1,-3v-2h1l3,-2l2,-1l2,-2l1,-2l5,-4h3l1,-1l1,1h1l2,-1l1,-1l2,-1l1,-1h2l2,-1l2,-3h2l2,1l2,-1l3,-1l2,-1l3,-2h1l1,-1l1,-2l2,-2v-2l1,-2v-1h1l4,-4v-1h-1l-1,-2v-5l4,-4l1,-2v-1h1l1,3v1l2,1l1,2v1l1,1v-4h1l1,1v-2l-1,-1v-1h-1l-1,-1v-1h1v-2h1l1,1l1,-1h1l1,1h2l-1,-1v-1h2v-3l-1,1v-1h-1v-3h2v-2h1l2,1v1l1,-1l-1,-1h-1l-1,-1h2v-1h1l1,1h1v-1l-2,-2v-1h1v-1h1l1,-1v-2h1v2h2v1v-1h1v-3h1l-1,-1v-1h1v1l1,1v-1h2v1l2,-2v-2h2l2,2h2v1l2,1v1l2,1l2,2v2l-1,1v2h2v-1l-1,-1v-1h2v-1h1v-1h1l3,1l2,2v1v-3h1l2,2v-2h2v-1h-1l-1,-1l1,-1h-2l-1,-1l1,-2l2,-2v-3h1l1,-1h1v-1h1v-1l-1,-1v-2l2,-1v-1h2v-3h1v1l1,1v-2h2v-1h-1l1,-1h2v-1v1l1,1h5l1,-1h2v1l2,-2l1,1v-1h-1v-4l-1,-1h-4l-2,-2l1,-1h1l1,1h2l1,1l2,1l1,-1h1v1l2,2h2l1,1h3l2,1h2v1h1l2,-1l1,1l2,1h1l1,-1h2l2,-2h1l-1,1h1l-1,1h-1v1h2v-1l1,1v1l1,1h1l1,-1l-1,-1v-1l2,-1h1v1l1,1h2v1l-4,4l1,1v1l-1,2h-1v-1h-2l-2,2v2l1,2v1l-1,2l-1,1l-2,3h-1v3h1l2,2l4,2v1l2,1h2v2h2l1,1h1l1,1l2,1h1l3,3l4,2h1l1,1h2l1,1v1l1,2h2l2,2h1l1,1h4l2,-1l1,-1l1,-2v-2l2,-3l1,-1l1,-2v-3l2,-6v-3l-1,-4l1,-1v-3h-1v-2l1,-2v-1l1,-1v-3l1,-1h1v-2h-1v-1h-1v-1l1,-2l1,-1h1v-3l2,-6l1,-1h1v-1h1v1l2,2v7h1l1,1Z"/>
<path class="sh" d="M632,590v-3l1,-1l-1,-1l2,-1v-2h1v2l-2,4ZM529,505v1h-1l-1,1h-1v-1l1,-1v-1h3l1,1h-1ZM506,481h1v-1v1h1l-2,2v1h2v1h-5v-1h1l-1,-1v-2h1l1,-1h1ZM453,463h1v1h-5v-1h1v-2l1,-1h1v2ZM454,460h3l1,-1h2l1,1h1v1h-1v1h-1v1l-3,2l-3,-2l-2,-2v-2h1v1ZM326,597l-2,-2l-1,-2l2,2v1ZM511,669h3l1,1h-3l-2,2v-1h-6v-2l4,-1h4ZM565,692h-2v-1h1ZM563,693h-1l1,-1ZM606,541h-1v-1ZM605,539v1ZM620,570v1h1v1h-1l-1,-2v-1ZM616,559h-1h1v-1ZM611,558v-1ZM634,605l-1,2h-1l1,-2ZM633,604v-3h1l-1,2ZM554,455h-2v-1h1ZM554,450v1h-1v-1ZM553,450h-1l1,-1ZM585,522v2l-2,-2h1ZM505,460h-1h1v-2h1v-1h1l-1,1ZM503,462h-2l1,-1h2v-1v1ZM509,498v1l-1,-1v-1h1ZM507,497v-1ZM505,497h-1v-1h1ZM529,510h-1l1,-1h1v1ZM502,481h-1v-1h1ZM471,459l-1,-1v-1l1,-1v2ZM409,490v1l-1,-1v-1h1ZM405,497l-1,1v-1ZM336,550l-1,1v-1l1,-1ZM559,711h2l1,1h1l1,1l2,1h4l1,1v-2h4l1,-1l1,1h1v-1h1l1,1v5l-1,1v3h-1h1v-1l-2,2v2h-1v5l-1,1h-1v-2h1l-1,-1h-1v1h-1v-1v1h-1v2h-1l-1,-1v1h1l-1,1v1l-1,1l-1,-1h-4v-2h1h-2v-1l-1,-1v-1h-1l-1,-3v-3l1,1v1h1v-1l-1,-1h-1l1,-1l-1,-2l-1,-1l-1,-2v-6h1ZM553,705h-1v-2l1,-1v-1h1v4ZM580,704l1,1v1h1h-1v2h-1v-1l-1,-1v-1h-1l1,-1v-1ZM571,732v1h-1v-1h1v-1ZM577,727h-1h1v-1ZM572,731v-1h-1h1ZM558,709v-1ZM581,708l1,1v1h-1v-1h-1ZM612,819l1,-1v-1v1Z"/>
<path class="sw" d="M375,34h-1v1h-1v1h-2v1h-1v1h-1l-1,1h-1v1h-1v-1v1h-1l-2,1h1v-1h1v1h-2v1v-1l-2,1h-1v1h-2v1h-2l-1,1h-3v1h-3l-2,2h-1l-1,1h-1l-2,1h-3v1h-4v-1h3l1,-1h3l1,-1h1l1,-1h2l1,-1h1l1,-1h1l1,-1h1l1,-1h1l1,-1h2l1,-1h1l2,-1h1v-1h2v-1h1l1,-1h1l1,-1h1l1,-1h1v-1h1l1,-1h2ZM358,42h1h-1l-2,1h-2v1l2,-1ZM189,121h-1l-1,1h-1l-3,3h-2v-1h1l2,-2h2l1,-1l2,-1l-1,1ZM238,86h-1l-1,1h-1v-1v1h-1v-1h2v-1h1v-1l1,-1h1l1,-1h1l1,-1h1v-1h-1h1v-1h1l-1,1h1l-1,1h-1l-1,1h-1l-3,3h1v-1v1h-2v1h1ZM375,127l-1,1h-1l-1,1h-1h1v-1h-1v1v-1h1v-1h-1l-1,1h-1h1v-1h2v1h1l1,-1h-1l1,-1h1v-1h1l1,1l-1,1ZM320,54v1h-1l-1,1l-2,1l-1,1h-1l1,-1l2,-1v-1h1v-1h1ZM279,67l2,-2h2l1,1h-3v1h-1ZM480,63l-2,2h-1v-1h-1v-1h-1v-1h5ZM245,282v-1h-2l-2,-2h-1v-3h1l1,1v1l1,1v1h2v1ZM269,122l-1,1h-3l-1,1l-1,-1v-1h1v-1h2v-1l1,1h1v1ZM252,67l1,-1h1l1,-1h1l1,-1l-1,1h-1v1h-2v1ZM218,99h-1l1,-1v-1h1l1,-1v1l-1,1ZM393,53v-1h1l2,-1h1v-1h1h-1v1h1h-1l-1,1l-2,1ZM386,138l-1,1h-3v-2l1,-1h2v2ZM192,173v-1l1,-1h1l1,-1h1v-1l1,1h-1l-2,2h-1ZM573,6h-1ZM220,111v1h-1v-1h2ZM356,152v1h-1l-1,-1v3h-1v-1l-2,-1v-2l1,-1v-1h1v1h-1v2h1v1l1,-1h1ZM355,147h-1ZM353,147h1v1h-2v-1ZM340,148l1,-1h1v-1v1l-1,1ZM191,166v1h-1l-1,1h-1h1v-1l-1,1h-1v-1h2v-1h1ZM272,75h-1l-1,1h-1l-1,1h-1v-1h2l1,-1h1v-1v1h-1h1l1,-1ZM751,719h-1v1h-1v-2h2ZM535,1h1h-2ZM213,132h-1l1,-1ZM241,238h-1l-1,1v-2h1v1ZM380,129h-2v-1h1v-1h1h-2v1h-1v-1h2v-1l1,1v1ZM355,147v-1h-1h2v1ZM394,57l-1,-1h1l1,-1v1h1h-2ZM160,178h-1h1v-1h1v1ZM176,174l-2,2v1h-1l1,-1v-1l2,-2ZM250,70h-1v1h-1h1v-1ZM233,78l1,-1l-1,1v-1h2v-1v1h-1v1ZM266,60h-1l-1,1l1,-1ZM706,750h-1v1l-1,1v-1l1,-2v1ZM516,0h-1ZM190,182h-1v1h-1v1h-1v-1h1l1,-1v-1l-1,1l1,-1h1l-1,1h2ZM250,67h-1v1h-1h1v-1ZM566,5h-1ZM571,6h1h-1h1ZM374,137h-1v-1h2v1ZM334,150h-1v1h-1v-1h1ZM368,137h-2l-1,1h-1v-1h-1l1,-1v1h1l1,-1h1v1ZM344,147h-1h1h-1v-1h1ZM343,145v-1h1v1ZM368,120h-1v-1h1ZM342,146h1v-1h1v1h-1ZM340,149h-1v-1h1h-1ZM339,150h-1v-1v1h-1l1,-1h-1h2ZM214,141h-1h1v-1ZM280,70h-1l-1,1v-1h-1h2ZM171,177v1h-2v-1h1ZM442,502h-1v3h-1v3h-1v-1h-1v-4h1h-1l1,-1h1v1v-1h1ZM247,136l-1,1h-1v-1h1v-1h1v1h-1ZM245,136l-1,1h-1v-1h1ZM169,133h-1l-1,1h-1h1v-1h1Z"/>
<path class="sw" d="M149,187h-1l1,-1v-1v1ZM150,186l-1,1v-1h1v-1ZM213,99v-1v1h-1l-1,1h-1v1h-2v1v-1v1h-3v1h-2v1h-2l-1,1h-1v1h-1l-2,2h-1v1h-1l-1,1h-1v1l-1,1h-1v1v-1v1l-1,1h-1h1v-1l1,-1h-1h1v-1h1l1,-1h1v-1h1v-1h1v-1h2v-1h1v-1h1l1,-1h2l2,-2v1l1,-1h1l1,-1h1l1,-1v1l1,-1h1v-1h1v-1h1ZM238,86h-1l-1,1h-1v-1v1h-1v-1h2v-1h1v-1l1,-1h1l1,-1h1l1,-1h1v-1h-1h1v-1h1l-1,1h1l-1,1h-1l-1,1h-1l-3,3h1v-1v1h-2v1h1ZM200,370h-1v1h-1v-1l-1,-1h2l-1,-1h-2v-1h2l1,1v1h1ZM702,753h-1l1,-1v-2h1v1l-1,1ZM700,754v-3h1l-1,1h1v-1v1h-1v1ZM341,44h1h-2v1l-1,1h-1l2,-2h-1h1v-1l1,-1h1l2,-2h1l1,-1v-1h1v-1h1h-3l-1,1h-1v1h-1h1h-1v1h-1l-1,1v-1h2v-1h1h-1l-2,1v-1h2v-1h-1h2v-1h3l1,-1h1v2h-1v1h-1l-1,1h-1v1h-1v1h-2v2h-1ZM151,144h1v1h-1ZM403,16h1v-1h-2v-1h1v1l1,-1v1h-1h1h-1h2v-1h1l-1,1h1l1,-1h1l-1,1h1v-1h1h-1h1v1h-2v-1h1h-1v1h-2l-1,1h-1h1h-1h1h-2v1h-5l-1,1h-1h1l1,-1h5v-1h1h-1ZM520,32h-1ZM633,20h1h-1v-1ZM500,109h2v1h-1l-1,1h-1l1,-1ZM274,68v1h-1v-1ZM202,154v1h-1v1h-1v-1h1l1,-1v-1ZM198,156l1,-1h1l-1,1ZM133,187v-1ZM202,162h1v-1v1ZM181,169h1v-1h1h-1v1ZM150,170v1h1h-1ZM209,94v-1h1l-1,1h-1l-1,1h-1h1l-1,1h-1h1l1,-1h1v-1ZM396,570h-1l-1,-1v-2h1l1,-1v3ZM440,559h-1l-1,-1v-1h1v-1h1l2,-1l1,-1v-1h2v1l-1,1v1h1v1l-2,2h-1ZM499,641v-2l1,-1v-2h-1v-1h-1v-1v1l-1,-1v-2h-1v-2l1,1h3l1,1v2l1,3v3h-2ZM513,636v1l-1,-1l1,-1v-3h-1v-1l-1,-1h1v-4h-2v-2l-1,-1h1l2,2h1l1,1v1l1,1v2l1,2v1ZM378,622h-1h1v-1h-1v-2h-1v3h-1l1,-2l-1,-1v1l-1,1l-1,-1v-1l2,-2l1,1h1v-1l1,-1h1v1h-1l-1,1l1,2l1,1ZM529,629v2h-1v-1h-1l-1,-1l1,-1l2,-4h1v4ZM513,616h-5v-1h1l1,-1h3ZM514,613h-4v-1h-2v1l-1,-1v-5h1l-1,-1v-1l-1,-1l1,-1h1l2,1l1,1h2v1l1,1h-1v3l1,1v1l1,1Z"/>
<path class="sb" d="M7,419v-5l1,-1v-4M45,294l-1,1v1h-1v2M30,330v-2h1v-2l1,-1v-2h1v-2l1,-1v-1l1,-1v-1l1,-1v-2l1,-1v-1l1,-1v-1l1,-1v-2l1,-1v-1l1,-1v-2l1,-1v-1l1,-1v-2l1,-1v-1l1,-1v-1l1,-1v-2l2,-2v-1l1,-1v-2h1v-2h1v-2h1v-2l1,-1v-1h1h-1v1v-1h1v-1M57,270h-1l1,-1v-1l1,-1M29,331h1v-1v1h-1v2l-1,1v2l-1,1v3h-1v2l-1,1v3M269,261v-3h1l1,-1v-1h-1v-1h-1v-1h-1v-1l1,-1h1v-1h-1v-1h-1l-2,-2v1h-1v-1l-1,-1v-2l-1,-1v-1l-2,-1l-1,-1v-1h-1v-2l-1,-1h-1v-1h-1v-1h1v-1h-3l-1,-1h-1l-2,-2h-1v-1h1l1,-1l-1,-1h4l2,-1v-1l2,-2h-1v-1l-1,1v-2h-1v-1h1v-1h-1l-1,-1h-1l-1,1h-1l-1,1h-4l-1,-2v-1l1,-1v-2h1h-1v-1l-1,1v1l-1,-1h1v-1h-1v-1l-1,-1h-1v-1M252,266v2h1l1,-1l2,1l1,1l1,-1v-3h1v-1h2l1,-1v1h1l1,1v-1h2v-1h1v-1h1l1,-1v1l-1,1v1l-1,1v1h1v3l1,1l-2,4v5h-1v1v-1h-1v1h-1l-2,2h-1v1h-3v2h-3v1h-1v3l2,2l-1,1l1,1h-1l-1,-1h-4l-1,1h-2v2l-1,1h-2v1h-1v1h-1M234,218v1l-2,1h-1v1l-2,2v1h-1l-2,2l-1,2M202,307v-2l1,-1v-1l2,-2l3,-6h1v-1h1v-1l-1,-2v-4h-1v-7l1,-1l-1,-1v-1l-2,-1v-1l-1,-1v-1h-1v-4l2,-2h1v-3l1,-1v-1l2,-1v-2l-1,1v-2h-1v-3l-1,-1v-1l-2,-2v-4l-1,-1v-1h2v-1h1v-3l1,-1v-2l2,-2v-1h1l1,1v-1h1l2,-1h2v-2h1v-1h2l1,-1v-1h2v-1h2v1l1,-1h1v1h1v1h-1v1l-1,1v1l1,1l1,-1h1l1,-1h1v5l-2,2v1l-1,1l1,1l-1,1v1l-1,2l-1,1v1h2l7,-7h1v1h2v1h1v-1h2v-1l3,-3h4l1,1v1l2,2v1h1l1,2l-1,1v2l-1,1l1,2v1h1v1h2v2h1v1h1h-1v2h-1v4l-1,1v2l-1,1h-1l-1,1h-1v-1h-1l-2,1h-2l-1,1h-5l-1,1h-1l-3,3v1l-3,3h-1v3h1v4l1,1v3l1,2M281,211v-1h-2l-1,1v-1l-1,1v-1h-2v-1h-2v-4h1v-1l1,-1h-1l-1,-1v1h-2v-1h-1v1h-2l-2,-2h-1l-2,1l-1,1v1h-1v1h-2l-1,1h-2v1l-1,1l-2,-1l-1,1l-1,-1v1h-2v1l-1,1v-1h-1l-1,-1h-1v1h-1v1h-1v1h-2l-1,1v-1h-1v1l-1,1v2l1,1l-1,1v3h-2l-2,1v-4l-2,1l-2,2h-3v-3l-1,-1l-1,1h-3v-1h1v-1l1,-1v-1l2,-2v-1h-4l1,-1v-4l1,-1v-1v1h-4l-2,2h-1l-1,1v-1l1,-1v-3l1,-1v-1h1v-1l1,-1v-1h1l1,-1h1v-2h1l1,-1h1v-1h1v-2h1v-1l1,-1v-2h1v-3l1,-2v-1h-1l-1,1v-4l-1,-1h-2v1l-1,1M423,88v-1h1l1,-1h1l1,-1h2l1,-1h1l1,-1h2l1,-1h1l3,-3h1l1,-1h1v1h1l1,1h5v-1h1l-1,-1h-1v-1h6v-1h2v-1h3l1,-1v-1l1,-1h2v1l1,1h1M436,98v-1h1l1,-1h1v-1h7l2,-2M151,163h2v-1h1M393,49h-1l-1,2l-2,1l-1,1h-1v1h-1l-2,2h-1v1h5l1,-1h2l1,1l1,-1h2v-1h5v1h2v1h2l1,1v2h-11l-1,1h-3v1h-4v1h-2l-3,3h-2l-1,1h-3l-1,1h-3l-1,1h-1l-1,1h-1l-1,1h-11l-2,2h-1v1h-1v1h1v1h1v1h-2l-1,1h-1l-2,1h-1v1h-1l-1,1h-1l-1,1h-1v1h-2l-1,1h-2l-1,1h-5l-1,1h-4l-3,1h-2l-1,1h-1l-2,1l-3,1l-2,1h-1l-1,1h-1l-1,1v-1l-1,1h-1v-1h-1l-2,1h-3l-1,-1h-2l-2,1l-1,-1h-1v-1h-1l-1,1h-6l-2,1h-1l-3,1h-6l-2,1h-2l-1,1h-1v-2h-1l1,-1v-3h-3v-1h-6l-1,1h-5v-1l1,-1h1v-1h1l1,-1v-1h1l2,-2v-2l1,-1v-1l-1,1h-1l1,-1h-1l-1,1h-1v-1h-1v-1h1v-1h1v-1"/>
<path class="sb" d="M466,75h-1v-2h-1h2l1,-1h2v-1h1v-1h-1v-1h1v-4h-1v-1l1,-1h3v-1h6l1,1h2v-2h1v-1h2v-1h1v-1h1v-1l1,-1v-1h1v-2h2l1,-1h1l-1,-1v-2h-2l-3,1h-4l-1,1h-2v1h-10v-1h-1l1,-1v-1h-1v-1h-2l-1,-1h-1l-1,-1h-5v-1h-1l-2,1h-1l-1,-1h-2v-1h1v-1h-1v-2h-2v-3h-1v-2h-1v-1h-2v-1h-9l-1,-1v1h-8l-2,1h-4l-1,1h-2l-1,1h-1v1l1,-1h1l1,1h-1v2h-2l-1,1h-1l-1,1h-1l-1,1h-1l-2,2h-1v1l-1,1h-2l-4,2h-8l-1,-1h-1l-1,1h-5l-1,-1h-1l-1,1h-3l-1,1h-1l-1,1h-2v1h-4l-2,1h-2l-1,1h-2l-2,1h-9l-1,1h-2v-1h-1v-1h1h-5v-1h-1l-1,1h-6l-2,1h-2v1h-4l-1,1v-1h-3v-1h1v-1l1,-1h-7l-1,1l-1,-1h-3v1h-1l-1,1h-2v1h-2v1h-1v1h-2v2h1h-1l-1,1h-1v1h-2v1h-2l-1,1h-1v-1l-1,1h-4l-1,1h-4l1,-1h-4v1v-1h-1v1h-1v-1v1h-2l-1,1h-2v1h-2l-1,1h-1l-1,1h-1l-1,1h-1l-1,1h-2v1h-1v1h-2l-1,1v-1v1h-2l-1,1h-1v1h-2v1h-2M241,73v-1v1h-1l-2,1l-1,1h-1l-1,1l1,-1h1l1,-1v1h-1h1v-1h1h-1h1l1,-1v1h-1l-1,1h-1l-1,1l1,-1h1l1,-1l2,-1h1l1,-1h1v-1h1l2,-2h2v-1h1h-1l-7,7h-1l-1,2l-1,1h-1v1l1,-1h1v-1h2v-1h1v1h-1l1,-1v1h-1h2l1,-1h1l1,-1h1l1,-1h1v1l-1,1h1v1h-1h3l1,-1h1l1,-1l-1,1v1h-1v1h-1l-2,2h-1l-1,1h-1l-1,1h-1l-1,1h-1l-5,5h-1v1h-2v1h-3v1h-4v1h-1l-2,2l-2,1l-1,2h-1l-3,3v1h-1l-1,1v-1l-1,1h-1h1h-1l-1,1h-2l-1,1h-1v1h-1l-1,1h-1v1v-1h1v1h-1l-1,1v1h-1v1h-1v1h-1v1l-1,1v1h-1l-1,1h-1v1l-1,1h-1v1h-1v1h-1v1M146,190v1l1,-1l1,-2h1l1,-1h1v2h1v1h2v2h1l1,-1h1l-1,1v1h1v1h2l-1,1l1,1l1,-1h1v2h1v-2h1v1h1l1,-1v-1l1,1h4l1,-1h1M174,196l1,-1h1v-1l5,-5h1v-1h3v1h-1h1l1,-1h2v1v-1h1v-1h1v1h1v1M150,165l1,-1h1l1,-1v-1h2l-2,2v2h-1h1v1h1h-1v1l-1,1h-1v2l-1,1h-1v1l1,1h-1v2h-1v1l-3,3v-1h-1v1l-1,1v2h-1v2l-1,1v1v-1h1v-1v2h1v1v-1h1v1h1h-1v1h1l1,1h-1v1l-1,1h-1v1l-3,3v1l-2,2v1h-1v1h2v1h1v1h1v1h1v-1h1v1h2v1h2v-1h2l1,-1h3v1l-1,1h2v1l1,-1h1v1h1l1,-1h2l1,1v-1l1,-1h1l-1,1h2l1,-1h2v-1l2,-2v-2l1,-2l1,-1v-1l1,-1v-1h1l1,-1h1v-1l1,1v1h-1l-1,2v1l-1,1v2h4l1,-1h1l1,-1h3l2,-1h1l1,-1v1l1,-1h2v-1h1v-2l1,-1h-2v-2h2l1,-1h2v-1h1l1,-1v-1h1l2,-2h1v-1l1,-1h1l2,-1l3,-3h1v-1l2,-1h5v-1h1l2,-2h2v1h1h-1l-1,1v1h-1h1l1,-1h1v1l-2,2h-1v1h1l1,-1l1,1h1l1,-1v1h1h-1v2h-1v1h-1l-2,2v1l1,1h-1v1l-1,-1h-1l-2,1h-2v1l-1,1h-1l-3,3h-1l-1,1v1h-1v3h-1l-1,1v1l-2,2h-1v2h-1h1v1l-1,1v1l-3,3l-1,2l-1,1v1h-2v-1h-1v1h-1v-1l-1,1v3l-1,1l-1,2v1h-1v1l-1,1v3h-1v1h-1v2h-1v-1h-1v1h-1"/>
<path class="sb" d="M149,158h1l1,-1v1h1v1h-1l-1,2v1l-1,1l1,-1h1v1l-1,1v1l-2,2h-1v1l-1,1l-2,1h-1v1h-1v1h-4v1h-1v1h-1v1h-1v1l-1,1v1v-1h1v1h-1v1h-1l-1,1v1l-1,1v1h-1h1v1h-1v1h1v-1l-1,1v1h1v1l-1,1l-2,1l-1,1v1h-1v2h-1l-1,1v2h-1l-2,2l-1,2l-1,1v1h-1v1h-1v1l-1,1h-1l-1,1v2h-1l-1,2l-2,2l-1,2l-2,1v1l-2,2l-1,2l-1,1v1h-1l-1,1h-1v1l-2,1v-1l-1,1v1l-4,4v1l-2,2v2h-1h2l-1,1v1l-1,1v1h-1v2l1,-1v2h-1v4h-1v2h-1h1h-1v1l-1,1h-1h1v-1l-3,3v1h-1v-1l-1,1h-1v1l-1,2h-1v1h-1v1h-1M161,232l1,-1v-5h1v-2h-1l1,-1v-3l2,-2v-1h-2v-1v1l-1,-1l2,-2h1v-1l1,-2h2l1,-1v-1h-2v-2l-1,1v-1l2,-2v-1h1v-1h1h-1v-1h1v1h1h-1h2v-1h1v1h-1l1,1h1l1,-1v-1l1,1v1l-1,1v2l-1,1h4l2,-1h3l1,-1h3l1,1h-1v1l-1,-1v1l-1,1v1l-3,3h-1v1h-2v1l-2,2v3l1,1h-1l1,1v-1h1v-2h1l1,-1v-2h2v3l-1,1v4l-1,3v1l-1,2v2h-2l-1,1v3M164,134l1,-1h1v-1h1v-1h1l2,-2h2l2,-2l2,-1v-1h1v-1h2v-1v1h1l1,-1h1v-1h2v-1h2v-1h3l1,-1h2v-1h1l-1,1h2v1h-1v1h-2v1l-2,1h-1l-1,1l-2,1l-1,1v1h-1v1l-2,1h-1v1h-2v1h-2v1l-1,1h-1v1h-1l-1,1h-1v1v-1v1h-1l-1,1l1,-1v-1v1l-2,1h-1v1h-1l-3,3h-1l-2,2v1h-1v1h-1M154,145l-2,2h-1v1l1,-1h-1l-1,1h-1v1h-1v1v-1v1h-1v1h-1v1l1,-1h1v-1h2v-1h1l1,-1v1h-1h1l1,-1v1h-1h1v-1h1v-1h2v-1h1v-1h1v1h-1v1h-1v1h-1v1l-1,1h1v-1h2l-1,1v1h-1v1l-2,2v1l-1,1h-1M152,141l-1,1l3,-3h1v-1h1v-1h1v-1h1h-1v1l-1,1h1h-1l-2,2v1l-1,1h-1l-1,1h1h-1v1l-1,1h-1v1h-1v1l1,-1h1v-1h1l-1,1h-1v1h1v-1h1v-1h1v-1h1l1,-1v-1h1v-1h1l3,-3h1l2,-2v-1h1l1,-1h1v-1v1l-1,1h-1l-4,4h-1h1v1l2,-2h1v-1h1h-1v1h-1h1l-1,1l1,-1v1h1v-1v1l-2,1v1h-2v1h-1l-1,1v1h-2l-2,2v-1l2,-2h1v-1h1h-1l-3,3h-1v1h-1l-1,1v1h-1l-1,1h-1v1v-1h1v1h-1v1h-1l-3,3h-1l-1,1v1l-2,1v1h1v-1v1l-2,1v1h-1v2h-1v1h-1v1h-1l-2,2v1l-2,1v1M136,157h1v-1h1v-1v1h-1v1l-1,1h-1v1h-1l-1,2h-1v2h-1v2h-1v1h1l-1,1l-1,2h-1v1M108,191v-1v1v-1v1h1v-1l3,-3v-1h1v-1h1v-1l1,-1h1v-1l3,-3v-1l1,-1l2,-1v-1l3,-3h1v-1l1,-1h1l1,-1v1v-1h1l-1,1h1v-1h1v-1l1,-1h1v-1h1v1v-1h1v-1l2,-2h1v-1v1v-1h1l1,-1v-1l1,-1h1v-1l2,-2h1v1l-1,1h-1h1l-2,2v1l-3,3v1l6,-6l2,-1l1,-1v1h-1h1l1,-1h1v-1h1l-4,4h-1l-1,1h-1l-1,1h-1v1h-1v1h-1v1h-1l-5,5v1h-1v2h-1v1h-1v1l-4,4v1h-1v1l-1,1v1h-1l-1,1h-2v1l-1,1v2h-1v1l-2,2h-1v1h-1v1l-2,2v1h-1l-2,4l-2,2h-1l-3,3v1h-1v1l-1,1h-1v1h-1l-1,2h-1v1l-2,2v1l-1,1v1l-2,2v1h-1l-1,2h-1l-1,1v1h-1v1h-1v1h-1v1h-1l-3,3h-1"/>
<circle class="w1" cx="613" cy="818" r="6"/>
<circle class="c1" cx="613" cy="818" r="5"/>
<circle class="w1" cx="667" cy="643" r="5"/>
<circle class="c1" cx="667" cy="643" r="4"/>
<path class="sg" d="M 282.7192 949.5071 A 249.7500 68.8306, 0, 1 1, 716.2808 949.5071"/>
<path class="sg" d="M 72.8877 759.3118 A 432.5797 119.2180, 0, 1 1, 926.1123 759.3118"/>
<path class="sg" d="M 0.0000 499.5000 A 499.5000 137.6611, 0, 1 1, 999.0000 499.5000"/>
<path class="sg" d="M 72.8877 239.6882 A 432.5797 119.2180, 0, 0 1, 926.1123 239.6882"/>
<path class="sg" d="M 282.7192 49.4929 A 249.7500 68.8306, 0, 0 1, 716.2808 49.4929"/>
<path class="sg" d="M 627.9117 16.7882 A 333.4662 499.5000, -165.10310197, 0 1, 371.0883 982.2118"/>
<path class="sg" d="M 845.4768 139.2219 A 461.5255 499.5000, -136.16004985, 0 1, 153.5232 859.7781"/>
<path class="sg" d="M 128.9274 164.5729 A 465.9194 499.5000, -227.89241939, 0 0, 870.0726 834.4271"/>
<path class="sg" d="M 362.3634 19.1940 A 345.4706 499.5000, -195.93505944, 0 0, 636.6366 979.8060"/>
<path class="sg" d="M 460.1156 1.5551 A 132.4532 499.5000, -184.52232897, 0 0, 538.8844 997.4449"/>
<path class="sg" d="M 533.7092 1.1728 A 116.0549 499.5000, -176.07291306, 0 1, 465.2908 997.8272"/>
<text x="0" y="0" class="fs" transform="translate(31,343) rotate(102)">60E</text>
<text x="0" y="0" class="ft" transform="translate(31,343) rotate(102)">60E</text>
<text x="0" y="0" class="fs" transform="translate(152,283) rotate(98)">90E</text>
<text x="0" y="0" class="ft" transform="translate(152,283) rotate(98)">90E</text>
<text x="0" y="0" class="fs" transform="translate(366,247) rotate(92)">120E</text>
<text x="0" y="0" class="ft" transform="translate(366,247) rotate(92)">120E</text>
<text x="0" y="0" class="fs" transform="translate(616,246) rotate(87)">150E</text>
<text x="0" y="0" class="ft" transform="translate(616,246) rotate(87)">150E</text>
<text x="0" y="0" class="fs" transform="translate(835,280) rotate(81)">180E</text>
<text x="0" y="0" class="ft" transform="translate(835,280) rotate(81)">180E</text>
<text x="0" y="0" class="fs" transform="translate(676,863) rotate(14)">60S</text>
<text x="0" y="0" class="ft" transform="translate(676,863) rotate(14)">60S</text>
<text x="0" y="0" class="fs" transform="translate(801,650) rotate(14)">30S</text>
<text x="0" y="0" class="ft" transform="translate(801,650) rotate(14)">30S</text>
<text x="0" y="0" class="fs" transform="translate(846,396) rotate(16)">0N</text>
<text x="0" y="0" class="ft" transform="translate(846,396) rotate(16)">0N</text>
<text x="0" y="0" class="fs" transform="translate(798,170) rotate(17)">30N</text>
<text x="0" y="0" class="ft" transform="translate(798,170) rotate(17)">30N</text>
<path class="tb" d="M127,998h-2l-1,-1h-2l-1,-1h-2l-1,-1h-2v-1h-3v-1h-2l-1,-1h-2v-1h-2l-1,-1h-2v-1h-2v-1h-2l-1,-1h-2v-1h-2v-1h-2v-1h-2v-1h-2v-1h-2v-1h-2v-1h-2v-1h-2v-1h-1l-1,-1h-1v-1h-2v-1h-2v-1h-1v-1h-2v-1h-1l-1,-1h-1v-1h-2v-1h-1v-1h-2v-1h-1v-1h-1l-1,-1h-1v-1h-1v-1h-1l-1,-1h-1v-1h-1v-1h-1v-1h-2v-1h-1v-1h-1v-1h-1v-1h-1l-2,-2h-1v-1h-1v-1h-1v-1h-1v-1h-1v-1h-1v-1h-1v-1h-1v-1h-1v-1h-1v-1h-1v-1h-1v-1h-1v-2h-1v-1h-1v-1h-1v-1h-1v-1l-1,-1v-1h-1v-1h-1v-1l-1,-1v-1h-1v-1l-1,-1v-1h-1v-1l-1,-1v-1h-1v-2h-1v-2h-1v-1l-1,-1v-1l-1,-1v-1l-1,-1v-2h-1v-2h-1v-3h-1v-2h-1v-4h-1v-3h-1v-5h-1v-6l-1,-1v-17h1v-7h1v-4l1,-1v-3h1v-3h1v-3h1v-2l1,-1v-2h1v-2h1v-2h1v-2h1v-2h1v-2h1v-2h1v-1h1v-2h1v-1h1v-2h1v-1h1v-1l1,-1v-1h1v-1h1v-1l1,-1v-1h1v-1h1v-1h1v-1h1v-1h1v-1h1v-2h1v-1h1v-1h1v-1h1v-1h1l3,-3h1v-1h1v-1h1v-1h1v-1h1v-1h1v-1h1l1,-1h1v-1h1v-1h1v-1h1l1,-1h1v-1h1v-1h2v-1h1v-1h1v-1h2v-1h1v-1h2v-1h1v-1h2v-1h1l1,-1h1v-1h2v-1h1l1,-1h1v-1h2v-1h2v-1h2v-1h1l1,-1h1l1,-1h1l1,-1h1l1,-1h1l1,-1h2v-1h2v-1h2v-1h2l1,-1h2v-1h2v-1h2l1,-1h2v-1h3v-1h2l1,-1h2v-1h3v-1h3v-1h159v1h3v1h3v1h2l1,1h2v1h3v1h2l1,1h2v1h2v1h2l1,1h2v1h2v1h2v1h2l1,1h1l1,1h1l1,1h1l1,1h1l1,1h1v1h2v1h2v1h2v1h1l1,1h1v1h2v1h1l1,1h1v1h2v1h1v1h2v1h1v1h2v1h1v1h1v1h2v1h1v1h1l1,1h1v1h1v1h1v1h1l1,1h1v1h1v1h1v1h1v1h1v1h1v1h1l3,3h1v1h1v1h1v1h1v1h1v2h1v1h1v1h1v1h1v1h1v1h1v1l1,1v1h1v1h1v1l1,1v1h1v1h1v2h1v1h1v2h1v1h1v2h1v2h1v2h1v2h1v2h1v2h1v2l1,1v2h1v3h1v3h1v3l1,1v4h1v7h1v17l-1,1v6h-1v5h-1v3h-1v4h-1v2h-1v3h-1v2h-1v2l-1,1v1l-1,1v1l-1,1v1h-1v2h-1v2h-1v1l-1,1v1h-1v1l-1,1v1h-1v1l-1,1v1h-1v1h-1v1l-1,1v1h-1v1h-1v1h-1v1h-1v2h-1v1h-1v1h-1v1h-1v1h-1v1h-1v1h-1v1h-1v1h-1v1h-1v1h-1v1h-1v1h-1l-2,2h-1v1h-1v1h-1v1h-1v1h-2v1h-1v1h-1v1h-1l-1,1h-1v1h-1v1h-1l-1,1h-1v1h-1v1h-2v1h-1v1h-2v1h-1l-1,1h-1v1h-2v1h-1v1h-2v1h-2v1h-1l-1,1h-1v1h-2v1h-2v1h-2v1h-2v1h-2v1h-2v1h-2v1h-2v1h-2l-1,1h-2v1h-2v1h-2l-1,1h-2v1h-2l-1,1h-2v1h-3v1h-2l-1,1h-2l-1,1h-2l-1,1h-2Z"/>
<path class="tl" d="M169,986h1v1h-3l-1,-1h2v-1ZM114,989h-3l-1,-1h2l1,1ZM176,983h1l1,1v1h1l-1,1h-2l-1,1h-1l-1,-1l1,-1v-2h1v-1ZM124,980h2v1h-1ZM122,980l1,1h-1l-1,-1ZM136,977h1h-2ZM156,974v1l1,1h-5v-1l1,-1v-1l-1,-1l1,-1v1h1l1,1ZM158,964v1h-2v2h1l-2,2v1h1l1,1h1l4,4v1l1,1v1h-1v2h-1l-1,1h-1v1h-2l1,1h1v1h-2l1,1h1v1h3l1,1h3l1,1h3l1,1h1l1,1v-1h1v-1h2l2,-1l1,1h1v-1h4v-1h3l1,-1h-1v-1h-4l-1,-1l1,-1h1l2,-2h4l1,-1h1l2,-2h-1v-1h1v-1h2v-1l1,-1h1v1h1v-1h8v-1h3v-1h1l1,1h2v-1h1v1l1,-1h4v1h6v-1h3v-1h2v1h3l1,-1h3v-1h2l1,-1h2l1,-1h4v1h1v1h1l1,1h1l1,-1l1,1h2v1l-2,2h-1v1h1h-1v1h-1v1h2l2,-2h1v-1h3l1,-1h1v-1h2l1,-1h5v-1h1v1h5v1h1l1,-1l1,1l1,-1h1l2,-1v1l1,1h3l1,-1h2v1h1v1h4l1,-1v1h9l1,-1l-1,1v1h-1h3l1,1h2l-1,1v1h1v1h2v1h1v2h2l1,1v1h-1l-1,1h-2l-1,1h-3l-1,1h-2l-1,1h-2l-2,2v1h-5l-1,1h-2v1h-1v3h2l-11,4h-155l-11,-4h-1h2l1,-1l1,1h14l-1,-1h-7v-1h-2v-1h-3l-1,-1h4v-1h-2l-1,-1h-7l-1,-1l-2,-1l1,1l1,-1l2,1v-1h1v-1l-1,-1h-1h2v-1h2v-1h4l1,-1h5l1,-1l1,1v-1h1l1,1h1v-1l1,1h6v-1h-2l-1,-1h-1l-1,-1h4l1,1h1l1,-1h3l-1,-1h1l1,1l1,-1l1,1h3v-1l1,1h4v-1h2l1,-1v-1h-1v-1h-1v-1h-1v-1h-1v-2l-1,-1v-1h1v-2h1v-1h1v-1h1l1,-1l1,1ZM144,951l2,1h1v1h-1v-1v1h-4l-2,-2l-2,-1l2,1h2v-2h1v1ZM151,947h1v1h-2v1l-1,-1l1,-1ZM269,946h-1v-2h1l1,1ZM345,939v1h1l1,-1v1l-3,3v-1l-1,1h-1l1,-1v-1l1,-1v-1ZM368,943v1l1,-1v1h-1l-3,3h-1l-1,1h-1l-2,2h-2v1h-1v-1h-1v-1l4,-2h1l1,-1h2l2,-2h1l2,-2ZM376,936l-1,2l1,-1l-1,1l1,1h1l-2,2h-1l-2,2l-2,1h-1l2,-1v-2l1,-1l2,-1v-1l1,-1v-3l1,-1v1l1,1ZM382,913l-1,1v-2l-1,-1v-1h1v1l1,1ZM397,906v1l-1,1h-1v-1l1,-1v1ZM398,906h-1v-1h1l1,-1v1ZM10,905v-1ZM386,904v-1ZM386,901v2h-1v-1ZM259,895v2l1,1h-1v1v-1v2h-1v3l-3,6v2h-1l-1,1l-1,-1h-1v-5h1v-2l1,-1h-1v-3h1v-1h1l2,-2h1v-1l1,-1v-1l1,-1v1ZM361,898v1h1v1h1l-1,1v2h1l-1,2v1l2,2v4h1l-1,2l1,1v3l-1,1v2l-3,3v1l-1,1l-1,2h-1l-1,2h-1l-4,4v1h-2l-1,1h-1l-1,1v-1h-1l1,-1h-1l-1,1h-1v-1h-1v-3h1l-1,-1v-1l1,-1l-1,1h-1l3,-3l-2,1h-1l-1,2v-4l-2,-2h-2l-1,1h-4l-2,2h-4l-1,1v-1l-1,1h-2v-1h-1l1,-1v-1h1v-3l1,-1v-7l1,1v-3l1,-1v-1l1,-1l-1,1l2,-2h1l1,-1h2l1,-1h2v-1h1l1,-1v-2l1,-1v2l1,-1v-1h1v-1l2,-2h2v1h2v-2h1l1,-1v-1h2v-1h-1h1l1,1h3l1,1h-1v1h-1v1l-1,1v1l2,2v1h1l1,1h1v-1l1,-1v-1l1,-1v-3l1,-1v-2h1v-1v3l1,1Z"/>
<path class="tl" d="M383,894h-1v-1v1ZM337,892l-2,-1h2ZM381,893h-1v-1h1ZM382,892v-1l-1,-1h1ZM341,892h-1l3,-3h2l-1,1h-1l-1,1ZM335,889h1v1h-3l1,-1ZM340,889v1h-3v-1h2ZM381,890v1l-2,-2h1v1ZM378,889v-1h-1v-1l1,1ZM325,887h2v-1l2,1v1h2l1,1l-1,1l-1,-1h-4l-1,-1h-1l-2,-1h-1l1,-2h1l1,1ZM353,886v1v-2ZM377,888h-1v-2l-1,-1h1v2h1ZM373,885l-1,1h-1l-1,1l-1,-1h-1l1,-1l1,1v-1h2v-2h1v1ZM345,882h-1v-1h1ZM349,881v2l-1,-1h-2v-1h2ZM374,884l-1,-1v-1l-1,-1h-1h2v2h1ZM353,878v3l2,1v-2l2,-1h1l1,1h1l1,1l4,2v1h1v1l2,1v1h-1v1l1,1v2h1v1h1h-1l1,1l-1,1v-1h-2l-1,-1v-3h-3l-1,1v1h-2l-2,-2v1h-2l1,-2h1l-1,-2v-1l-2,-1h-1l-1,-2l-1,1l-1,-1h1l-1,-1l1,-1h-1v-1h-1l-1,-1h2v-1ZM343,875l-1,1h-4v1l1,2v-1h2l-1,1h-1l1,2v1l1,2v1h-1v-2l-1,1v-1l-1,-1l1,-1h-1v4h-1v-3h-1v-1l1,-1v-4h1v-1h4l1,-1ZM347,875v1h-1v1l1,1h-1v-4h1ZM321,885h-1l-2,-2v-1l-2,-2l-1,-2v-2l-1,-1v-1l-4,-4v-1h2l3,3l1,2h1l2,2h1l-1,2h1v1l1,1h1v3ZM335,874l1,1h-1v3l-1,1v1l-1,3v-1l-1,1l-1,-1h-1v-1l-1,1l-1,-1h-1l-2,-4v-2l1,-1h2v-2h2v-1l1,-1v-1h1l1,-1v-2h1v1l2,2v1h-1l-1,2l1,1ZM344,864v3l-1,-1v2l-2,-2h1l-1,-1v1l-1,-1l-1,1v-1l1,-1h2v-1h1v-1l1,1ZM294,868h-1v-1l-1,-2l1,-2l1,1v1l1,1v1ZM137,863h-1l1,-1h1ZM341,861v1l-1,1l-1,-1l1,-1v-1v1l1,-1ZM335,863l-1,1v-1l1,-1v-1l1,-1v1l-1,1ZM338,859h2v1l-1,1v-1h-1ZM342,858l1,2h-1v1v-1h-1v-1h1h-1v-1ZM338,857l-1,1l-1,-1h1ZM336,849h1v6h1l2,1v2l-1,-1v-1v1l-1,-1h-2v-1h1h-1l-1,-1v-5ZM133,851v1h-1v-1ZM121,852h-1v-1h2v1ZM126,849h3v1h1v1h-2l-1,1v-1h-1v-2h-1ZM324,849l-1,1h-1v-2l1,-1h1v1ZM37,846v-2h1v2ZM38,844h-1v-1h1ZM119,845h2l1,1v1h1v1h2l-1,1h-3v-1h-1v-2h-2l-1,-1h-1h1h-2l-1,1h-1l2,-2h3ZM122,843h-1v-1l1,-1v1ZM334,843v1l-2,-2v-2l1,-1l1,1ZM122,839l-1,1v-1ZM123,839v1v-1h-1ZM340,825h1v1h-1v1h-1v-2ZM240,828l-2,2v-1h-1h2ZM229,828v1h-1ZM220,825v2h-1l-1,-1h-1v-1h2ZM214,821v3h-1v-3ZM344,820v1l1,1v1l-1,1h-1l-1,2l-1,-1v-1l-2,1l-1,1h-1l2,1v3l-1,-1v-1h-1l-1,-1l1,-1v-3h3v-3l1,1v-2h1l-2,-4v-1l3,3v1ZM214,820v1l-1,-1v-1l1,-1ZM340,810l1,-1l1,2h-1v2l-2,-1l1,2h-1l-1,-2l-1,-1h1l-1,-2l-1,-1l3,1ZM144,812l1,1h1h-2ZM147,809h-1l-1,-1h1ZM92,806h-1l-1,-1v-2h-1v-1h1l1,1v1l1,1ZM153,807l-1,1h1v1h2l-1,1h1v1l-1,2l-1,-1l1,-1l-2,1v-1h-3l1,-1h-1l4,-4h1Z"/>
<path class="tl" d="M90,797h1l-2,2v1v-3ZM332,800l3,3l-2,-1l1,2l2,2v1l-2,-2l-1,-2l-6,-6v-1h-1h1l3,3ZM198,806l-1,1h-2l1,-2v-1l2,-2h1v3ZM216,801l-1,2l-1,-1v-1h1ZM79,791h-1v-1h2ZM202,797l-1,2h2v1l-1,1h1l2,4h1v1l-1,1h1l-1,1h-3l-1,1h-2l2,-2h-1v-1h1l-1,-1v-1h2l-1,-1h-1v-2l-1,-1l1,-2v-1l1,1ZM75,786h-1v-1h1ZM141,790l-1,1v-1ZM139,790h-2l1,-1h1ZM78,780v1h1h-2v-1ZM139,786h1v1h1l-1,1h1l-1,1l-1,-1h-1l-2,1l1,-1h-1h1l1,-1l1,-2ZM193,787v1l1,1l-1,1h-3l-1,1l-1,-1h-2l1,-1h-1h1v-1h-2l1,-1h1l1,1l2,-1h2ZM147,784h-1l1,-1h2l-1,1ZM81,776v1l1,-1h2l-1,2h-3l-1,1h-1l-1,-1h1v-1h-1h1h-2l-1,1l8,-5v1l-1,2ZM135,780l-1,1v-1h-1l1,-1h1ZM322,771h-1ZM88,771h-1h2ZM139,780l-1,2l2,-1v1h-1v1l1,-1l2,-1l1,-1h2v2h-1v1l-1,1l-2,1h-1v-1l-1,1l-2,1v1h-3l-2,2h-1l-1,1l-2,1l-1,1l-1,2h1l-1,1v1h1l3,3l2,1h1l-2,2v2l1,1h1l2,-4h-1l4,-2v-1l1,-1v-1l-1,-1l2,-1l2,-4l1,1h1l1,-1v1l1,1h1v2l-1,1l1,1h2l1,-2h1v3l1,1l-1,1l1,1v1h1l1,1v1l1,1l-2,2h-2l-2,2h-1l-2,-1h-2l-2,1l-1,1l-2,1l-1,1l2,-1l3,-1h2l-1,1l-1,2v1l1,1l2,-1l1,-1v1h1l-4,2h-1l-2,1v-1l2,-1h-3v1h-1l-1,1h-1l-2,2l1,1v-1v1h-3l-1,1l2,-1v1h-2l-2,2v1l-1,1l-1,-1l1,-1l-1,1v4l-1,1h-1l-1,1h-1l-3,3h-1v8l-1,1h-1v-3l-1,-1l1,-1l-1,-2l-1,1l-1,-1h-4v1h-1l-1,-1l-1,1l-1,-1l-2,2h-2v1h-1v3l-1,1v1l-1,2v4l1,1v1h1v1l1,-1h3v-1l1,-1v-1l1,-1h3v1l-1,1v2l-1,1v-1v2l-1,1v1h5v1h1v1l-1,1v3l-1,1h1v2h1v1h2l1,-1h1v1h1l1,1l1,-1v-2l1,-1h2l2,-2v2h-1h1v1l-1,1v1h1v-3h1v-1h1v1h1v1h3l1,1l1,-1h1l1,1h1v1l1,1h1v1h1v1l1,1l2,1v-1h1l1,1h1l1,1v1h1v1l1,2v1l-1,1l1,1h2v1v-1l4,2v1h1l3,1h1l2,1l2,2h2v5l-1,1l-1,2l-2,2v9l-1,2v2h-1v1h-2l-1,1h-1l-3,3v5l-1,2l-2,2v2l-2,2v-1l-1,1l-1,-1h-1v-1v1l1,1v1l1,1v2l-2,1h-3l1,1v2l-1,1l-1,-1h-1l1,2h2l-2,2l1,1v1h-1l-1,1v1l2,1h1v1l-1,1v2h-1v1l2,2h-1l-1,1v1h-1l-2,-1l-3,-3l-1,-3v-1l1,-1h-2l1,-2l-1,-2h1v-2l-1,-1v2l-1,-2v-4l-1,-1l-1,-2h1v-6l-1,-2v-8l-1,-2v-6l-1,-2l-1,-1l-2,-1l-3,-2l-1,-1v-1l-1,-2l-1,-3l-2,-3l-2,-2v-1l-1,-2l2,-2v-1h-1v-3l1,-1v-1h1v-2h1l1,-1v-5l-1,-1v-2h-1v1h-1v1h-1l-1,-1h-2v-2h-1v-1v1h-1v-3l-2,-2h1h-2v-1h-2l-1,-1l-1,-2h-1l-1,-1v1h-2l-1,-1h-2l-2,-2h-1l-1,-1v-1h-1v-3h1l-1,-1v-3l-1,-1v-1l-1,-1v-3h-1v-5l-1,-1l-1,1v4h1l-1,1h1v5h1v2h-1v-1l-1,-1v-3l-1,-1v1v-1h-1v-1h1v-9h-1v-1h-1v-9l2,-2v-1l1,-2l2,-2l1,-2l1,-1v-1h1v1l2,-2h-1v-2l-1,-1v-1l1,-1l-1,-1l1,-1v-1l1,-1l-1,-1l1,-1v-1l1,-1l-1,-1h-1v-2h-1v-1h-1l-1,-1h-1l-1,1h-4l1,-1l2,-1h-1l-1,1l-2,1h-1l-1,1l-2,1h-2l-2,1h-1l-1,1h-3l-1,1h-2l1,-1h2l2,-1h2l2,-1h1l2,-1l1,-1h-3l1,-1l-1,1h-1l2,-2h-1v-1l2,-2l2,-1h3l1,-1h1l1,-1h-3v-2h4l1,1l1,-1v-3h4l1,-1h2l2,-1l1,1l1,-1h1l-1,1h1l1,1h2l1,1h2v1l1,1l1,-1h6l1,-1v2l2,-1l-1,1h2l1,1h2v1l-2,1h4v1l2,-2h2v1h1l1,1h2v-1h1l1,1l-1,1l1,-1h1l1,-1v-2l1,-1l2,-1l1,1l-2,2Z"/>
<path class="tl" d="M128,774l-1,1h4l-1,1h1l2,-2v1l-1,2v1l1,1h-2v1h-8v-1h-1v-1h4l-1,-1h-3l2,-1h-1l1,-1h1ZM135,774l-2,1v-1h1ZM152,776v1l-1,-1l-1,1v-2h2ZM146,776v1l1,-1l2,-1v2h3l1,1l-1,1l2,-1v1l1,1v2h-1l2,2v1h1v1l-2,1h-1l-1,-2l-1,1v1l1,1v2l-1,1l-2,-2v1l1,1h-2l-2,-2v-1l-1,-1v1h-3v-1l1,-1h3l1,-1l2,-1v-1l-1,-1h-1l1,-1l-1,-1h-5l-1,-1h-1l1,-1h-1l1,-1l2,-1l1,-1h2ZM138,774h2l-1,1h-1l1,1l-2,1h-2v-2l1,1v-1ZM298,772h-2v-1ZM141,776l-2,1v-1l2,-2h2l1,1l-2,1ZM122,776h-2l-1,-1h1l2,-1l2,-2h2v1h2v1h-1l-3,1h-2ZM299,769v1h-3v-1h1ZM143,773v1l-1,-1h-1l1,-1h1l1,1ZM295,769l1,1h-2l-1,1l-2,-1l-1,-1h2ZM143,771h-1v1l-1,1h-2l1,-1h-1l1,-1h2ZM136,771h1v1h-4l-2,1h-1l1,-1h-1l-1,-1l2,-1h1l2,1l1,1v-2h2ZM246,780h-3l-2,-1v-1l1,-2h-1l1,-1l-1,-1h1l4,-2h2l-1,1l-2,1l-1,1v2l-1,1l1,1ZM145,770l1,1h1l-1,1h1l1,1h4v1h-7l-1,-1l1,-1v-1h-2l1,-1ZM134,769l-2,1h-4l2,-1h3ZM271,770l1,1v-1h2l2,1h1v1l-1,1h1l2,1v-1l1,1l1,-1h2l1,1h3l-2,-1h5l1,1v1h2l2,1l-1,-1h1l1,-1l2,1v-1h1l-2,-1h8l3,1l1,-1h2l2,2h2v-1h3l3,1v-1h-2v-1h7l8,5h-1l1,1l2,1h2v1h-1v1h-1l1,1v2l-2,-1v2l-1,-1v1h-1l2,2v1h1l3,2h-1l1,1h1v1l1,2h-1l1,2l1,1l-4,-2l-4,-3l-1,-2l-1,-1v-3l-1,-2v-1l-2,-2l-1,1l2,2l-3,-1l-1,1l1,2l1,1h-1l-1,1l-1,-1h-1v1h-4v7h1l2,1h1l-1,-1h1l3,1l1,2l1,1l1,2l2,2v9h-1l-1,-1v2h-1v1l1,1v1h-1v1l1,1h1l2,2v1l1,1v1l-1,1h-1l-1,-2l-1,-1h1l-2,-1v-1v1v-1h-1v-1l-1,-1h-2v1h-1l-1,-1l1,-1l-1,-1l-1,1v2h-1v1l2,2h1v-1h2l1,1l-2,1v2l2,2l1,2l2,1v2h1v6l-2,4l-1,1h-1v1l-1,-1v1l-2,1h-1v2l-1,-1v-1h-2l-1,2v2l1,1l1,2l2,2l1,3v4l-2,1v1l-2,1v-2l-1,-1h-1v-1l-2,-2h-1v-1h-1v6h1v3l1,1h1v1h1v1l1,1v3h1v2h-1l-2,-2v-1l-1,-1v-1l-1,-1v-2l-1,-1v-1h-1v-6l-1,-1v-1l-1,-2v-2l-1,-1l-2,2h-1v-3l-1,-2v-1h-1l-2,-2v-1l-1,-1h-1v2l-1,-1v1h-2v2l-2,1l-1,2v1l-2,2h-1v8l-1,1l1,1h-1l-1,1l-1,-1l-1,-2v-1l-1,-1v-1l-1,-2v-1l-3,-6v-3l-2,1h-1l-1,-2v-1l-2,-1l-1,-1v-1l-1,-1l-2,1h-5l-1,-1h-2v-2h-1l-1,1h-2l-3,-3l-1,-2l-1,1v-1l-1,1v2l1,1h1l1,1v2l1,1l-1,-1l1,-1v2h1v1l1,-1h2v-1l1,-1v-1v2l2,2h1l2,2l-1,1v1h-1v3h-1v1h-1v1h-2v1h-1l-2,2h-1l-2,2v-1l-1,1h-2v1h-2v-2l-1,-1v-3h-1v-1l-1,-1v-1l-1,-1h-1v-1l-1,-1v-3h-2v-2l-1,-1v-1l-2,-2v-1v1l-1,1l-1,-1l-1,-2l1,2l1,1l1,2v1l2,2h-1l2,2v1l1,1h-1l1,2v1l1,1l1,2v1l1,1l2,1v1h1v1h1v1l-1,1h1l1,1h3l1,-1h3v-1h1v2l-1,1v3l-1,1l-3,6l-1,1l-2,1l-1,1l-1,2v1h-1v1h-1v2l-1,1l-1,2l1,1v4l1,1v7l-1,1h-1l-3,3h-1v1l-1,1v2h1l-1,1h1v1l-1,1h1l-1,1h-1l-2,2v3l-3,3v1l-2,1v1l-1,1h-2v1l-1,-1v1l-1,-1l-1,1h-2l-1,1l-1,-1h-1v-5l-1,-1v-2l-1,-1v-1l-1,-1v-5l-1,-1v-1l-1,-2v-1l-1,-1v-3l1,-1v-3h1v-1l1,-1v-1h-1v-5l-1,-1v-2l-3,-3l-1,-2l1,-1v-5l-1,-1v-1l-1,1h-2l-1,-1v-1l-1,-1h-2l-1,1h-2l-1,1h-6l-1,1l-4,-4h-1l-1,-1v-1l-1,-1v-1h-1v-1l-1,-1v-1h-1v-3h-1l1,-1v-1h1l-1,-1l1,-1v-4l-1,-1v-1h1v-2l1,-1v-1h1v-2h1l1,-2h1l2,-2v-3l3,-3l1,-2v-1h1l1,1h2l1,-1h2l1,-1h4l1,-1h1v1h1l1,-1h1v1l1,-1v1h-1v1h1v2h-1v1h1v1h3l2,2h1l2,2l1,-1v-2l1,-1h2l1,1h1l1,1h2l1,1h1v-1h2l1,1v-1h1l1,1v-2l1,-1v-5h-2l-1,1l-1,-1h-2v1l-1,-1h-2v-1l-1,-1v-2l1,-1h1v-1h2l1,-1h1l2,-1l2,1l1,1h2l1,-1v-2h-1l-2,-2h-1l-1,-1l1,-1l-1,-1h2l-1,-1v1h-2l-1,1v1h1l-1,1h-1v-1h-1l1,-1h-2v-1h-1v1l-1,1v1h-1v4l1,1h-2v1h-1v-1h-2l1,1h-2v1l1,1h-1h1l1,1v1l-1,-1v1h-1l1,1h-2v-2l-1,-1v-1h-1v-3h-1v-1h-1l-1,-1h-1l-1,-1v-1l-1,-1v1v-1h-2v1l2,2v1l1,1h1l1,1h1l1,1v1l-1,-1h-1v1h1v1h-1v1h-1v-1h1l-1,-1v-1h-1l-1,-1h-1l-2,-2l-1,-2h-2v1h-4l-1,1v2h-2v1l-1,2h1l-1,1v1h-1l-1,1h-2l-1,1l-2,-2v1h-2l1,-1v-1h-1v-2l1,-1v-3l-1,-1l2,-1l1,1h5v-4l-1,-1v-1h-2v-1h3v-2l1,1l2,-1v-1h1l1,-1l1,-2l1,-1h2v-5h2l-1,1h1v1l-1,1v1h1v1l1,-1h2v1h1l2,-2l1,1h1v-1h1v-3l1,-1l1,1v-1l-1,-1v-1h4l1,-1h-4l-1,1l-2,-2v-4l2,-1v-1l-1,-1l-2,2l-1,2l-1,1v3h1v2h-1v2l-1,2h-1v1h-1v-2l-1,-1l-1,-2l-1,-1l-1,2h-1l-2,-1v-5l2,-1l3,-3l2,-3l3,-3h2l1,-2h3l2,1l-1,1h2l1,1h3l3,1l1,1v1l-1,1h-1l-3,-1h-1l2,1v2l1,1h1v-1h-1l1,-1l2,1v-1l1,-2h1l1,1v-1l-1,-1v-1l-1,-1l2,1h1l-1,1l1,1h1v-1l1,-1l2,-1h1v1l1,-1h1l1,-1l1,1l1,-1h-2l1,-1h2l1,1l4,1v-1h-2v-1h-1l-1,-1v-3h2l1,1v1h1l1,1l1,2h1v3l1,1v-1h1l-1,-1l1,-1h-1l-2,-2v-1l-2,-1l1,-1l-1,-1h1l1,2l-1,-1l1,-1h2l1,1l-1,-1l-1,-2h4l-2,-1v-1h1l1,-1h3l1,-1h1v-2l2,1h-1ZM253,820l1,1v2h-1v1l1,1h1l1,1h3l-1,-1v-2h-1v-2h1v-1l-1,-1h-1l1,1l-1,-1v-1h-2v-2h-1h1v-2l1,1v-3h-2l-1,1h-1v1h-1l-1,2l2,1v1l1,1Z"/>
<path class="tl" d="M146,770h-1v-1h1l1,1ZM137,769h-2l1,-1h1l1,1ZM220,771l-1,1h-1v-1h-1l2,-1v1ZM139,768h-2l1,-1v1ZM146,769h-1v-1h1l1,1ZM144,769h-1l-1,-1h-1h1v-1h1l1,1ZM268,768l-3,1v-2ZM215,769l3,1h-2v3h-1l-2,-1h1l-1,-1l-2,-1v-1l1,-1l1,1h1v-1h1ZM220,768h1l-1,1h-4l-1,-1h3ZM234,767l-1,1h-1v-1h-1h4ZM264,768h-4l-2,-1l-1,-1h1l1,-1l4,2ZM153,767v1h-1l-2,1h-2v-1h1h-1v-1l1,-1h2v-1h1v1h1ZM167,764h3v1h-3l-1,1h-1l-1,1l-2,1h-3v1h-1v1h-2l-2,1h1l-2,1h-4l-1,-1h2v-1h2v-1h-1h1l1,-1h1l-1,-1h4l-1,-1h-3v-1l1,-1h6v-1h3v1l2,-1l1,1ZM190,764l3,1h-6v1h5l-1,1l2,-1h4v1l-2,1h-1l-2,2v2l1,1h-2l1,1l-1,1v1h-1l1,1h-3l1,1v1l-1,-1l-1,1h1l1,1v1h-2l-1,-1v1l-1,1h3l-4,2h-3l-1,1l-4,2h-1l-2,1h-1v1l-2,2v1l-1,1l-1,2h-1l-1,-1h-1l-1,-1v-2l-1,-1v-1l1,-1l-1,-2l1,-1l1,-2h1l1,-1v-1l-1,1h-1v-1l1,-1h1l-1,-1h-1l1,-1v-4l-1,-1h-5v-1l-1,-1h1l-1,-1l1,-1h2l3,-1h1l-2,-1h1l3,-1h1v-1h9l1,1l-1,-1h1l2,-1h3l2,-1Z"/>
<path class="th" d="M339,924h-3v1h-4v1h-2v1h-5v1v-1v1h-3v-1h-1v-1h1v-1v1v-1h1h-1h1v-1v1v-4h1v-6h1h-1h1h-1h1v-4h1v-2h1h-1v1v-1h1v1h-1h1v-1h1v-1h1v-1h3v-1h3v-1h1v-1h1v-1v1v-2h1h-1h1v-1v1h1v-1h1v-1v1v-1h1v-1v1v-1h1v-1v1v-1v1v-1h1v-1v1v-1v1h1v1h1h-1h1v1v-1h1v1v-3h1v-1h1h-1h1v-1v1v-1h2v1v-2h-1h1h-1h1h-1h2v1h2v1v-1h1h-1v1v-1h1h-1v1v-1h1v1h-1h1v-1v1v-1v1h1h-1h1h-1v1h-1v2h-1v1h1v1h1v1h1v2h2v-1h1v-2l1,-1v-3h1v-1v1v-3h1v-1v4h1h-1v2h1v1h1v1h-1v2h1h-1v1h1h-1v3h1v1h1v4h1v1h-1v1h1h-1l1,1v4h-1v2l-1,1v1h-1v1l-1,1v1h-1v1h-1v1h-1h1h-1v1h-1v1h-1h1h-1v1h-1v1v-1v1v-1v1h-1v1h-1h1h-1v1h-1v1v-1v1h-3v1h-2v1v-1h-1v-1v1h1v-1h-1h1h-1v1h-2v-1h-1v-3h1v-1h-1h1v1v-1h-1h1h-1v-1h1v-1h-1v1h-1h1v-2h1v-1h1v-1v1h-1v1h-2v1h-1v1v-1v1v-5h-1ZM344,899v1ZM344,943v-1v1v-1v1v-1v1v-1v1h-1h1h-1h1h-2v-1h1v-1v1v-2h1v-1h1h-1h1v1h1h-1h1v-1h1v1v-1v1h-1v1h-1v1h-1h1v1ZM344,943h-1ZM346,942h-1ZM344,938v1ZM344,939v-1h1v1ZM348,939h-1h1h-1ZM348,938v1h-1h1ZM344,938v-1h1h-1ZM347,936v-1ZM342,931h-1ZM341,926v-1ZM364,920v1ZM364,920v-1ZM324,915v-1ZM324,914v-1ZM366,916v1h-1v1v-1ZM365,914h-1h1h-1ZM364,911v1ZM329,907h-1ZM364,909v-1ZM363,907h-1ZM362,905v1ZM356,902h-1v1v-1ZM354,901h-1ZM353,901v-1ZM352,899v1ZM341,898v1ZM354,898v1h-1v-1v1v-1h1v1ZM350,894v1ZM354,894v1v-1v1ZM348,894v1h-1v-1ZM349,894v1h-1v-1ZM355,894h-1ZM350,894v-1v1v-1ZM361,892v1ZM361,892v1ZM362,906h1ZM362,891h-1Z"/>
<path class="tg" d="M66,970h1l1,-1h4v-1h5v-1h5v-1h6v-1h6l1,-1h7v-1h8v-1h9l1,-1h11v-1h14v-1h20v-1h79v1h20v1h14v1h11l1,1h9v1h8v1h7l1,1h6v1h6v1h5v1h5v1h4l1,1h1M21,927h6v-1h7v-1h8v-1h10v-1h10v-1h12v-1h14v-1h18v-1h23v-1h38v-1h75v1h38v1h23v1h18v1h14v1h12v1h10v1h10v1h8v1h7v1h6M5,877h399M21,826h4v1h7v1h8v1h9v1h10v1h11v1h14v1h16v1h21v1h32v1h103v-1h32v-1h21v-1h16v-1h14v-1h11v-1h10v-1h9v-1h8v-1h7v-1h4M66,783v1h5v1h4v1h5l1,1h5v1h6l1,1h6l1,1h7v1h10v1h10v1h13l1,1h17v1h36v1h21v-1h36v-1h17l1,-1h13v-1h10v-1h10v-1h7l1,-1h6l1,-1h6v-1h5l1,-1h5v-1h4v-1h5v-1M140,755h-1v1h-3v1h-2v1h-2v1h-2v1h-2v1h-2l-1,1h-1l-1,1h-1l-1,1h-1v1h-2v1h-2v1h-2v1h-1l-1,1h-1v1h-2v1h-1l-1,1h-1v1h-2v1h-1v1h-2v1h-1v1h-2v1h-1v1h-1l-1,1h-1v1h-1v1h-2v1h-1v1h-1v1h-1v1h-2v1h-1v1h-1v1h-1v1h-1v1h-1v1h-1l-1,1h-1v1h-1v1h-1v1h-1v1h-1v1h-1v1h-1v1h-1v1h-1v1l-1,1v1h-1v1h-1v1h-1v1h-1v1h-1v1l-1,1v1h-1v1h-1v1h-1v2h-1v1h-1v2h-1v1h-1v2h-1v1h-1v2h-1v2h-1v1h-1v2h-1v2h-1v2h-1v2h-1v2l-1,1v2h-1v2l-1,1v2h-1v3h-1v4h-1v4h-1v5h-1v9h-1v13l1,1v8h1v5h1v4h1v4h1v3h1v3h1v2h1v3h1v2h1v2h1v2h1v2h1v2h1v2h1v1l1,1v1h1v2h1v1h1v2h1v1h1v1h1v2h1v1h1v1l1,1v1h1v1h1v1h1v1l2,2v1h1v1h1v1h1v1h1v1h1v1h1v1h1v1h1v1h1v1h1v1h1v1h1v1h1v1h2v1h1v1h1v1h1v1h1v1h1l1,1h1v1h1v1h1v1h2v1h1v1h1l1,1h1v1h1v1h2v1h1v1h2v1h1l1,1h1v1h2v1h1v1h2v1h2v1h1l1,1h1v1h2v1h2v1h2v1h2v1h2v1h2v1h2v1h2l1,1h2v1h2v1h2M153,755h-1v1h-2v1h-2v1h-1v1h-2v1h-2v1h-1v1h-2v1h-1v1h-2v1h-1v1h-2v1h-1v1h-1v1h-2v1h-1v1h-1l-1,1h-1v1h-1v1h-1v1h-1v1h-1l-1,1h-1v1h-1v1h-1v1h-1v1h-1v1h-1v1h-1v1h-1v1h-1v1h-1v1h-1v1h-1v1h-1v1h-1v1h-1v1h-1v1h-1v1l-2,2v1h-1v1h-1v1h-1v1l-1,1v1h-1v1h-1v2h-1v1h-1v1l-1,1v1h-1v2h-1v1h-1v2h-1v1h-1v2h-1v2h-1v2h-1v2h-1v2h-1v2h-1v2h-1v3h-1v2h-1v3h-1v3h-1v3h-1v3h-1v4l-1,1v4h-1v6l-1,1v30h1v6h1v5h1v4h1v3h1v3l1,1v2l1,1v2h1v3h1v2h1v2h1v2h1v2l1,1v1h1v2h1v2h1v2h1v2h1v1h1v2h1v1h1v2h1v1h1v2h1v1h1v1h1v2h1v1h1v1h1v1l1,1v1h1v1h1v1h1v1h1v1h1v1h1v1l3,3v1h1l3,3h1v1h1v1h1v1h1v1h1v1h1v1h1v1h1l1,1h1v1h1v1h1v1h1l1,1h1v1h1v1h1l1,1h1v1h1v1h2v1h1v1h2v1h1v1h2v1h2v1h1v1h2v1h1l1,1h1v1h2M166,755h-1v1h-1v1h-1l-1,1h-1v1h-1v1h-1v1h-1v1h-1v1h-1l-2,2h-1v1h-1v1h-1v1h-1v1h-1v1h-1v1h-1v1h-1v1h-1v1l-2,2v1h-1v1h-1v1h-1v1h-1v1l-1,1v1h-1v1h-1v1h-1v2h-1v1h-1v1l-1,1v1h-1v1h-1v2h-1v1h-1v2h-1v2h-1v1h-1v2h-1v2h-1v2h-1v1l-1,1v1l-1,1v1l-1,1v2h-1v2h-1v2h-1v3h-1v2h-1v3h-1v3h-1v3h-1v3h-1v4h-1v4h-1v5h-1v6h-1v8h-1v30h1v7l1,1v5h1v5h1v4h1v4h1v3h1v3h1v3h1v3h1v3h1v2h1v2h1v2l1,1v2h1v2h1v2h1v2h1v1h1v2h1v2h1v2h1v1h1v2h1v1h1v2h1v1l1,1v1h1v1h1v2h1v1h1v1h1v1l1,1v1h1v1h1v1h1v1l1,1v1h1v1h1v1h1v1h1v1h1v1h1v1h1v1h1v1h1v1h1v1h1v1h1v1h1v1h1v1h1l2,2h1v1h1v1h1v1h1v1h2v1h1"/>
<path class="tg" d="M179,755h-1v1h-1v2h-1v1h-1v1h-1v1h-1v2h-1v1h-1v1l-1,1v1h-1v1l-1,1v1h-1v1l-1,1v1h-1v2h-1v1l-1,1v1h-1v2h-1v2h-1v2h-1v2h-1v2h-1v2h-1v2h-1v2h-1v2l-1,1v2h-1v2l-1,1v2h-1v3h-1v3h-1v3h-1v3h-1v4h-1v4h-1v4h-1v4h-1v5l-1,1v5h-1v8h-1v11h-1v29l1,1v10l1,1v7h1v6h1v5h1v4l1,1v4h1v3l1,1v3h1v3h1v3h1v3h1v3h1v3h1v2h1v3h1v2h1v2h1v2l1,1v2h1v2h1v1l1,1v1l1,1v1h1v2h1v2h1v1l1,1v1h1v2h1v1h1v2h1v1h1v2h1v1h1v1l1,1v1h1v1h1v1h1v2h1v1h1v1h1M192,755h-1v3h-1v2h-1v3h-1v3h-1v3h-1v3h-1v3h-1v3l-1,1v3h-1v4h-1v4h-1v4l-1,1v4h-1v5h-1v6h-1v6l-1,1v7h-1v8h-1v11l-1,1v18h-1v29l1,1v18h1v11h1v8l1,1v7h1v6h1v6h1v5h1v5h1v4h1v4h1v4h1v4h1v3h1v3l1,1v3h1v2l1,1v2h1v3h1v3h1v2h1M205,755v243M217,755h1v3h1v2h1v3h1v3h1v3h1v3h1v3h1v3l1,1v3h1v4h1v4h1v4l1,1v4h1v5h1v6h1v6l1,1v7h1v8h1v11l1,1v18h1v29l-1,1v18h-1v11h-1v8l-1,1v7h-1v6h-1v6h-1v5h-1v5h-1v4h-1v4h-1v4h-1v4h-1v3h-1v3l-1,1v3h-1v2l-1,1v2h-1v3h-1v3h-1v2h-1M230,755h1v1h1v2h1v1h1v1h1v1h1v2h1v1h1v1l1,1v1h1v1l1,1v1h1v1l1,1v1h1v2h1v1l1,1v1h1v2h1v2h1v2h1v2h1v2h1v2h1v2h1v2h1v2l1,1v2h1v2l1,1v2h1v3h1v3h1v3h1v3h1v4h1v4h1v4h1v4h1v5l1,1v5h1v8h1v11h1v29l-1,1v10l-1,1v7h-1v6h-1v5h-1v4l-1,1v4h-1v3l-1,1v3h-1v3h-1v3h-1v3h-1v3h-1v3h-1v2h-1v3h-1v2h-1v2h-1v2l-1,1v2h-1v2h-1v1l-1,1v1l-1,1v1h-1v2h-1v2h-1v1l-1,1v1h-1v2h-1v1h-1v2h-1v1h-1v2h-1v1h-1v1l-1,1v1h-1v1h-1v1h-1v2h-1v1h-1v1h-1M243,755h1v1h1v1h1l1,1h1v1h1v1h1v1h1v1h1v1h1l2,2h1v1h1v1h1v1h1v1h1v1h1v1h1v1h1v1h1v1l2,2v1h1v1h1v1h1v1h1v1l1,1v1h1v1h1v1h1v2h1v1h1v1l1,1v1h1v1h1v2h1v1h1v2h1v2h1v1h1v2h1v2h1v2h1v1l1,1v1l1,1v1l1,1v2h1v2h1v2h1v3h1v2h1v3h1v3h1v3h1v3h1v4h1v4h1v5h1v6h1v8h1v30h-1v7l-1,1v5h-1v5h-1v4h-1v4h-1v3h-1v3h-1v3h-1v3h-1v3h-1v2h-1v2h-1v2l-1,1v2h-1v2h-1v2h-1v2h-1v1h-1v2h-1v2h-1v2h-1v1h-1v2h-1v1h-1v2h-1v1l-1,1v1h-1v1h-1v2h-1v1h-1v1h-1v1l-1,1v1h-1v1h-1v1h-1v1l-1,1v1h-1v1h-1v1h-1v1h-1v1h-1v1h-1v1h-1v1h-1v1h-1v1h-1v1h-1v1h-1v1h-1v1h-1v1h-1l-2,2h-1v1h-1v1h-1v1h-1v1h-2v1h-1M256,755h1v1h2v1h2v1h1v1h2v1h2v1h1v1h2v1h1v1h2v1h1v1h2v1h1v1h1v1h2v1h1v1h1l1,1h1v1h1v1h1v1h1v1h1l1,1h1v1h1v1h1v1h1v1h1v1h1v1h1v1h1v1h1v1h1v1h1v1h1v1h1v1h1v1h1v1h1v1h1v1l2,2v1h1v1h1v1h1v1l1,1v1h1v1h1v2h1v1h1v1l1,1v1h1v2h1v1h1v2h1v1h1v2h1v2h1v2h1v2h1v2h1v2h1v2h1v3h1v2h1v3h1v3h1v3h1v3h1v4l1,1v4h1v6l1,1v14l1,1h-1v15h-1v6h-1v5h-1v4h-1v3h-1v3l-1,1v2l-1,1v2h-1v3h-1v2h-1v2h-1v2h-1v2l-1,1v1h-1v2h-1v2h-1v2h-1v2h-1v1h-1v2h-1v1h-1v2h-1v1h-1v2h-1v1h-1v1h-1v2h-1v1h-1v1h-1v1l-1,1v1h-1v1h-1v1h-1v1h-1v1h-1v1h-1v1l-3,3v1h-1l-3,3h-1v1h-1v1h-1v1h-1v1h-1v1h-1v1h-1v1h-1l-1,1h-1v1h-1v1h-1v1h-1l-1,1h-1v1h-1v1h-1l-1,1h-1v1h-1v1h-2v1h-1v1h-2v1h-1v1h-2v1h-2v1h-1v1h-2v1h-1l-1,1h-1v1h-2"/>
<path class="tg" d="M269,755h1v1h3v1h2v1h2v1h2v1h2v1h2l1,1h1l1,1h1l1,1h1v1h2v1h2v1h2v1h1l1,1h1v1h2v1h1l1,1h1v1h2v1h1v1h2v1h1v1h2v1h1v1h1l1,1h1v1h1v1h2v1h1v1h1v1h1v1h2v1h1v1h1v1h1v1h1v1h1v1h1l1,1h1v1h1v1h1v1h1v1h1v1h1v1h1v1h1v1h1v1l1,1v1h1v1h1v1h1v1h1v1h1v1l1,1v1h1v1h1v1h1v2h1v1h1v2h1v1h1v2h1v1h1v2h1v2h1v1h1v2h1v2h1v2h1v2h1v2l1,1v2h1v2l1,1v2h1v3h1v4h1v4h1v5h1v9h1v13l-1,1v8h-1v5h-1v4h-1v4h-1v3h-1v3h-1v2h-1v3h-1v2h-1v2h-1v2h-1v2h-1v2h-1v2h-1v1l-1,1v1h-1v2h-1v1h-1v2h-1v1h-1v1h-1v2h-1v1h-1v1l-1,1v1h-1v1h-1v1h-1v1l-2,2v1h-1v1h-1v1h-1v1h-1v1h-1v1h-1v1h-1v1h-1v1h-1v1h-1v1h-1v1h-1v1h-1v1h-2v1h-1v1h-1v1h-1v1h-1v1h-1l-1,1h-1v1h-1v1h-1v1h-2v1h-1v1h-1l-1,1h-1v1h-1v1h-2v1h-1v1h-2v1h-1l-1,1h-1v1h-2v1h-1v1h-2v1h-2v1h-1l-1,1h-1v1h-2v1h-2v1h-2v1h-2v1h-2v1h-2v1h-2v1h-2l-1,1h-2v1h-2v1h-2"/>
<rect x="310" y="880" width="66" height="90" fill-opacity="0" stroke="#ffffff" stroke-opacity="0.5" stroke-width="5.0"/>
<rect x="312" y="882" width="66" height="90" fill-opacity="0" stroke="#113311" stroke-opacity="0.8" stroke-width="5.0"/>
<rect x="311" y="881" width="66" height="90" fill-opacity="0" stroke="#45a249" stroke-opacity="0.9" stroke-width="5.0"/>
</svg>
