<?xml version="1.0" encoding="UTF-8" standalone="no"?>
<svg xmlns:svg="http://www.w3.org/2000/svg" xmlns="http://www.w3.org/2000/svg" xmlns:xlink="http://www.w3.org/1999/xlink" height="1000" width="1000">
<!-- made with pythonshp (GPL): github.com/sanjayrao77/pythonshp , underlying data may come from naturalearthdata.com -->
<!-- 
COPYRIGHT: THIS SVG FILE IS RELEASED INTO THE PUBLIC DOMAIN
 -->
<!-- 
vars : {
	'cmdline' : 'pythonshp.py publicdomain wiki1 bolivia locatormap'
	'title' : 'Bolivia locator'
	'version' : '1.0.5'
}
 -->
<defs>
	<radialGradient id="watergradient" cx="500" cy="500" r="500" fx="500" fy="500" gradientUnits="userSpaceOnUse">
		<stop offset="0%" stop-color="#70add3"/>
		<stop offset="11%" stop-color="#6eaad0"/>
		<stop offset="22%" stop-color="#6ca7cc"/>
		<stop offset="31%" stop-color="#6ba5c9"/>
		<stop offset="41%" stop-color="#69a2c6"/>
		<stop offset="51%" stop-color="#679fc2"/>
		<stop offset="59%" stop-color="#669dbf"/>
		<stop offset="67%" stop-color="#649abc"/>
		<stop offset="75%" stop-color="#6297b9"/>
		<stop offset="81%" stop-color="#6095b6"/>
		<stop offset="87%" stop-color="#5f92b2"/>
		<stop offset="92%" stop-color="#5d8faf"/>
		<stop offset="95%" stop-color="#5b8dac"/>
		<stop offset="98%" stop-color="#598aa8"/>
		<stop offset="100%" stop-color="#5685a2"/>
	</radialGradient>
	<radialGradient id="landgradient" cx="500" cy="500" r="500" fx="500" fy="500" gradientUnits="userSpaceOnUse">
		<stop offset="0%" stop-color="#dddddd"/>
		<stop offset="11%" stop-color="#d7d7d7"/>
		<stop offset="22%" stop-color="#d1d1d1"/>
		<stop offset="31%" stop-color="#cccccc"/>
		<stop offset="41%" stop-color="#c6c6c6"/>
		<stop offset="51%" stop-color="#c0c0c0"/>
		<stop offset="59%" stop-color="#bbbbbb"/>
		<stop offset="67%" stop-color="#b5b5b5"/>
		<stop offset="75%" stop-color="#afafaf"/>
		<stop offset="81%" stop-color="#aaaaaa"/>
		<stop offset="87%" stop-color="#a4a4a4"/>
		<stop offset="92%" stop-color="#9e9e9e"/>
		<stop offset="95%" stop-color="#999999"/>
		<stop offset="98%" stop-color="#939393"/>
		<stop offset="100%" stop-color="#888888"/>
	</radialGradient>
	<radialGradient id="bordergradient" cx="500" cy="500" r="500" fx="500" fy="500" gradientUnits="userSpaceOnUse">
		<stop offset="0%" stop-color="#444444"/>
		<stop offset="11%" stop-color="#3f3f3f"/>
		<stop offset="22%" stop-color="#3a3a3a"/>
		<stop offset="31%" stop-color="#363636"/>
		<stop offset="41%" stop-color="#323232"/>
		<stop offset="51%" stop-color="#2d2d2d"/>
		<stop offset="59%" stop-color="#292929"/>
		<stop offset="67%" stop-color="#242424"/>
		<stop offset="75%" stop-color="#1f1f1f"/>
		<stop offset="81%" stop-color="#1b1b1b"/>
		<stop offset="87%" stop-color="#161616"/>
		<stop offset="92%" stop-color="#121212"/>
		<stop offset="95%" stop-color="#0e0e0e"/>
		<stop offset="98%" stop-color="#090909"/>
		<stop offset="100%" stop-color="#000000"/>
	</radialGradient>
</defs>
<style type="text/css">
<![CDATA[
.fs {font:14px sans;stroke:#ffffff;stroke-width:2px;stroke-opacity:0.8;text-anchor:middle}
.ft {font:14px sans;fill:#000000;fill-opacity:1;stroke-opacity:0;text-anchor:middle}
.sb {stroke:url(#bordergradient);fill-opacity:0}
.sg {stroke:#000000;fill-opacity:0.0;stroke-opacity:0.2}
.sh {fill:#45a211;stroke:#000000}
.si {stroke:#000000;fill-opacity:0;stroke-opacity:0.3}
.sl {fill:url(#landgradient);stroke:url(#bordergradient)}
.sp {stroke:url(#landgradient);fill-opacity:0}
.sr {stroke:url(#watergradient);fill-opacity:0}
.sw {fill:url(#watergradient);stroke:url(#watergradient);stroke-opacity:0.8}
.tb {fill:#eeeeee;stroke:black;stroke-width:2}
.tg {stroke:black;stroke-opacity:0.2;fill-opacity:0}
.th {fill:#45a211;stroke:#378100}
.tl {fill:#aaaaaa;stroke:black}
]]>
</style>
<circle cx="500.0" cy="500.0" r="500.0" fill="url(#watergradient)"/>
<path class="sl" d="M879,174v-1h-1v-1v1ZM877,171h-1v-1l1,1v1ZM867,160l-1,-1h-1v-1h-1v-1l-1,-1h-1v-1h-1l-1,-1v-1l-3,-3h-1v-1l-1,-1h-1v-1l-2,-2h-1v-1l-2,-2h-1l-1,-1v-1l-2,-2h-1h1v1l1,1l-2,-2h-1l-1,-2h-1v-1l-1,-1v1v-1v1l6,6l2,1v1l2,2l2,1l1,1l1,2l2,1l11,11v1h1l1,1l1,2l2,1l2,2l1,2h1l1,2l2,2l-2,-2v-1h-1v-1h-1l4,4v1l1,1h1v1l3,3v1l2,1v1l1,1v1h1v1l-2,-2v-1l-2,-2v-1l-2,-2h-1l-2,-4l-2,-1l-1,-1v-1h-1l-1,-1v-1h-1v-1l-1,-1h-1v-1h-1v-1h-1l-1,-2l-2,-2h-1v-1h-1l-8,-8v1v-1h-1l-1,-2h-1v-1h-1v-1h-1v-1h-1l-4,-4v-1h-1l-4,-4h-1l1,1l1,2h-1h1v2h1v1h-1l-2,-2h-1v-1h-2v-1h-1l-1,-1v2l5,5v1h1v1h1v3l-1,1v1l1,1v2l1,1v1l1,2l4,4v1h1l1,1v3l1,1v1l1,1h-1v2l1,2v1l-1,-1h-4l-1,-1h-2v1h-1v2h-1l-1,-1h-1l-1,-1v-1h-1v-1h-1v-1h-1l1,-1h-1v1l-3,-3v-1v1h-1v-1h-1l-1,1h-2l-1,-1h-2v-1l-1,-1v-1l-2,-2v-1l-2,-2v-1h-2v-1h-1v-1h1l-1,-1v-1v2h-1v-1h-1l-1,-1v-3l-1,-2l-1,-1v-1h-1l-1,-2v-1l-1,-1v-1h-1l-1,-1l-1,-2h-1v-1h-1v-1h-1v-2h-1v-1h-1v-1h-1l-1,-1v-1h-1l-2,-2h2l1,-1h-1v-1h2v1h1l1,1h4l1,1h2l2,1l1,1l1,-1l1,1v-1v1h1l1,1v-1l2,1l1,1h1v-1l-2,-3l-3,-3v-1v1l-4,-4v-1l1,1h1l1,2h1h-1l-2,-2v-1h-1l-1,-1h-1v-1l1,1h-1v-1h-1l-1,-2h-1v-1h-1l-2,-1l-2,-2h-1v-1l-1,-1h-1v-1l1,1l-1,-1h-2v-1h-1l-1,-1h-1v-1h-2l-1,-1h-2l-2,-2h1h-1l-1,-1h1h-2v-1h-1l1,-1l1,1v-1h1l1,1l2,1h1l1,1v-1h-1h1l1,1v-1h-1l-3,-2l-3,-3h1l1,1h1v1h2v1h2l-1,-1h-1v-1h1v-1h-1v-1l-3,-2l-1,-1h1v-1h1v1h1v-1h-2l-1,-1h1l1,1l-2,-2h-1v-1h-1v-1h-1l-2,-2h-1v-2h-1h2v1h1h-1v-1h-1v-1v1h1l1,1h1h-1h1l1,1l-2,-2h-1v-1v1h1l2,1v1h1l-1,-1l-2,-1h-1v-1h-1l-2,-1v-1v1v-1h-1l-1,-1h-1v-1h-1h1v1v-1h1v1h1v1h1l1,1l2,1l1,1h1v1h1l-1,-1h1h-1l-1,-1l3,3h2l1,1v1h1l1,1v-1h-2v-1h-1h1l2,2h1l3,3h1l3,3h1l3,3h1l3,3h1l4,4h1l4,4h1l4,4h1l7,7h1l5,5h1l1,1v1l3,3h1l5,5v1h1l6,6h1v1l12,12v1l1,1Z"/>
<path class="sp" d="M878,173l1,1M876,170l1,1v1M787,91h1l2,2h1l3,3h1l3,3h1l3,3h1l3,3h1l4,4h1l4,4h1l4,4h1l7,7h1l5,5h1l1,1v1l3,3h1l5,5v1h1l6,6h1v1l12,12v1l1,1"/>
<path class="sl" d="M344,25h1h-1l-3,1h-1h2l1,-1ZM256,64h-1h1v-1h1l1,-1h2l2,-2h1l1,-1h1l1,-1h1l2,-2h1l1,-1h2l2,-2h2l2,-2h2l1,-1h1l2,-2h2l1,-1h1l1,-1h1l1,-1h1l1,-1h1l1,-1h2l1,-1h1l1,-1h1l1,-1h2l1,-1h1l1,-1h1l1,-1h2l1,-1h2l1,-1h1l1,-1h2l1,-1h1l1,-1h2l1,-1h1l1,-1h2l1,-1h2l1,-1h2l1,-1h1h-1l-1,1l1,-1h2v-1h2l1,-1h1h-1v1l1,-1h2l1,-1h3v-1h1h-1v1h-3v1h-1h1v-1h3l1,-1h1h-1l-1,1h-2l-1,1h1v-1h3l1,-1h7v-1h1v1h-2v1h-3l-1,1h-1h4l1,-1h4v-1h3v1l1,-1v1h-2v1h-1v1v-1h2v-1v1h1v-1h1v-1h2v-1h4v-1h4v-1h1h-2v1h-4v1h-2l1,-1h3l1,-1h4v-1h1v1h-2v1l1,-1v1h2v-1l1,1h4l1,-1h6v-1h1v1h2l1,-1h-2v-1h1v1v-1h4l-1,1h1v-1h1l-2,1l-1,1h-1h1v1v-1l1,1h-4v1h1v-1h2l1,-1h1v-1h2v-1h5v-1h3v-1h1h-1l-1,1h-1v-1h3v-1h1v1l1,-1h-4v-1h2v-1h1h-1h2v-1h3l1,-1h5v1h-1v1h-2v1l1,-1v1h-1h1h-1h2v1h-2v1h-1v1h1v-1h2l1,-1h2v-1h1v1h1v1h-3v1h-1v1h1v1l1,-1h2l1,-1h1l2,-1h2v-1h3v-1h1h-1h1v-1h11v1h-1l-1,1h-4v1h1v-1v1h-1h1v1h1h-1v1h-3l-1,1h-3l-1,1h-2v-1h-1v1h-9v1h1l-3,1l-1,1h-6l-1,-1h-6v1h1v-1h1l1,1h8v1h-2l-3,2h-1l-2,1h-6v1h-3v1h-2l-1,-1h-1l-1,1l-1,-1h-3v1h1v-1l2,1h-1h6l-1,1h-1v1h-6v1h1h-3l-1,1h-1l-1,1h-3v1h1h-2l-2,1h-1v1h-1l-2,2h-2v1h-1l-1,1h-1l-2,2v1h-1v1h-1h1v1l-1,1l2,-2h4l-1,1v1l-1,1v2h-1l-1,1h-1v1v-1h3l6,-1h5l1,1h2l1,1h1v1h1l2,1h4l1,1h1v1h-1v1l1,-1h3l1,-1h6l1,1h2v1l-2,1v3l-1,1v1h-1v1h-1l3,3h-2v1l1,-1l1,1h2l1,1v2l-1,1h-1h1l1,-1h2l1,1h1l1,1v1v-1l-1,-1v-1h1v-1h3v1h1v-1h1h-1v-1l1,-1h1v-1h1v-7h1h-1l1,-1h-1v-1h-1v-1l4,-1l2,-1h2l1,-1h2l2,-1l1,-1h1l1,-1h1v-1h1v-2h1v-3l-2,-2h-2v-1h-2v-1h1l1,-1h1l1,-1h1h-1l1,-1h2v-1h1h-1v-2h1h-1l1,-1l-1,1l-1,-1h-1h2l1,-1v-1h1h-1v-2h1l1,-1h5l3,1h1l1,-1v1h3l1,-1h4l1,1h1l-1,1h1v-1h1v1h1h-1h2v1h1v1h8v1h-1l-1,1h1v1h-1v1h1h-1v1h1v1h-1v1h-2v1h1v-1h6v1h1l-2,2h-1h2v-1l1,-1h1v1h-1h2v-1v1h2l1,-1h2l1,-1h2v1v-1h1h-1l1,-1h1h-1h1v-1h1h-1h1v-1h1v-1l1,-1h2v1h-1h2v1h2v1h-1h2l1,1h-1h1l1,1h-1h2l-1,1h-1l-1,1l1,-1h3v1h-2l-1,1h1l1,-1h2l1,1h1v1h1h-2v1h-1h3v1h3v1h-1l1,1h-1l-3,-1h-1l1,1h1l1,1h1h-1h2v1h-1h2v1h1v-1h1v1h2v1h1l-1,1h-1v1l1,-1h5l-1,1h-1v1v-1h2v-1h2v1l1,1h5l1,1h1h-1v1h-4v1h-4l-1,1h-3v1h-1l-1,-1l1,1h1l-1,1h2v-1h3l1,-1h1l1,-1h2v-1h3l1,1l2,1l-2,1h3l1,-1h2v1h2l1,1v1l1,1v1h-1l1,1h1h-1v1h1l-1,1l-2,1h-1l-2,1h-5l-1,1h-3l-2,1l-1,1h-1l-1,1h-1l-1,1h-7l-3,1v-1h-26l-1,1h-2l-2,2v1h-1v1h-5v1h-2l-4,2l-2,2h-3l-1,-1h-1l2,1h1l1,1h-1v1h-1l-2,2h-1l-1,1l-2,1h-1l-1,1l-2,1h-4v1l-3,1h-2v1h-1l-2,2h-2l-1,1h-1l1,1h-1l-4,2h11l3,-1h5l1,-1h3l2,-2h1v-1h1v-1l1,-1v-1h1v-1l2,-2h1l2,-2h2v1h2l1,-1h2l1,1h1v5l-1,1h1h-1v1h1v1h1v2h2v2h1l-1,1h-5v1h-4v1h-2v-1h1h-1h1v-1l-1,1h-1v2h-1v1l-1,-1l-1,1h-2v1l-1,-1v1v-1h-1l-1,1v1h-1l-3,3v2h1h-1l-2,2h2v2h1v1h2l1,-1v-1h-1h1v1l1,1h-1l-3,1h-1v-1l-2,1h-1l-1,1v-1l1,-1h-2v2h-4l-1,1h-6l-1,1l-3,1h-1l-1,1h-1h1v-1l1,-1l-1,-1v2l-1,1v1h-2l1,1h1v2l-1,1v1v-1l-1,1v1h-2l1,1h-1l-3,3h-1l1,-1l-1,-1h-2l-1,-1v-1l1,-1h1l1,-1h1h-1l-1,1h-2v2l1,1l-1,1l2,2v1h-1h1v1h-1v1l-4,4v1h-1l-1,1v1h-1v-1l1,-1v-1l1,-1h1v-1h-1l1,-1h-1v-1h1h-3v-2h1v-1h-1v1v-1h1v-1h-1h1l1,-1h-1l1,-1h2l-1,-1h1h-1v-1l-2,2v-1v1v-1v1h-1v1l-1,-1v1h1l-1,1v-1v2h-1v2h1v1l-1,-1h-1v-1v1l2,1v1h-2l-1,-1h-1v-1l-1,1h-1v-1h1v-1h1v-1v1h-2v2h2v1h3v1h1v2h-2l-1,-2l-1,-1h-1l2,2h1v1h2l-1,1h1v1h-2l-2,-1h1v1h1l1,1v1h-1l-1,-1l-2,-1h-2h2v1h2v1h1v1l1,-1h2v2l2,5l-1,-2v-1l-1,-1v-1v1h-1h1v2h-1l-1,-1v1h-2v1h-2v-1v2h1v-1h3v2h1v-1l1,-1v2l-2,2h-3v-1h-1v1h-2l-1,-1l1,1h2v1h1h-1v1l-2,1l-1,-1v1h4v1h-3v1h-4v-1l-1,1l1,1h-1l-1,1h-1l-1,1v1l-1,1v-1l-1,1h-4l-2,1v1l-3,3v-1v1l-2,1h-1v1l-1,1h-1l-1,1h-2v1h-2v1h-2v-1v2l-2,2h-1v1h-1v1l-1,1h1h-1v1h-1h1l-1,1h-1v9l2,6l2,3l-1,1v2l1,1h-1v-3h-1v-1h1l-1,-1v3l1,1l2,6v5l-1,3v2l-2,2v1l-2,2h-3l-1,1l-1,-1l1,-1l1,1v-1h-1l-1,-2l-2,-2h-1l-1,-1v-4h1h-1v1h-1v-3h1h-1v1h-1v-1h-1v-1l-1,-2v-1l2,-2v-1h-1v1h-1v1v-1v1l-1,-1l2,-5l1,-2v-1l-1,-1l-3,-2l-2,-4l-2,-1l-2,1h-1v1h-1l-2,1h-2l-1,1h-1l-1,-1h1v-1h-1l-1,-1h1l-1,-1h1h-1v1l-1,-1h-2l-2,-1h1h-2l-2,1h-1l1,-1v-1l-1,1h-1v1h-2l-1,1h-1v-1h-1v-2l-1,1v1h-2l-2,1l-1,-1h-1l-1,1h-1l-2,1h-3v-1h-2v1l-1,1h4v-1h1v1h-1v1h1v-1h1v2h-1l-1,1h-1l1,1l2,1h1v1l-1,1h-1l-1,-1v-1h-2v-1h-1v1l-1,1v1h-1v-1h-2l-1,1h-2l-2,-1h1v-2l-1,1l-2,-2h-2l-1,1h1h-1l-1,1h-3l-1,-1h-5v-1l-1,1v1h-2l-3,2h-2l2,-1h-1v-1h-2v3h-1l-1,1v1l-1,1h-1l-2,1v1h-1l-2,1h-1v1l2,-2h-3v1h-1v1h1h-1l-1,1l-1,-1v1l-1,1h-1l-1,1h1l-1,1h-1v1h-1v1l-1,2l-1,1l-1,-1v1h1v1l-1,1v7h1h-1v2l-1,1l-2,3l-1,1l-5,13l-1,3v1l-1,2v6h1v1h1l-1,1v2l-1,-1l1,-1v-1l-1,-1v3l1,2v3l2,4l2,2v4l1,1v1h1v1l1,1h-1v-1v1l2,1v-1h-1h4l1,1h1l1,2v1h3l2,-2h1l2,-1h5l1,-1v-1h4l1,-1h1v2h3v-1h2v-2h-1h1v-1l1,-1h1l1,-1l2,-1v-3l2,-2v-1l1,-1v-4l5,-5l8,-1l1,-1h1l1,-1h6l1,1h2l1,-1h-1l1,-1h1l1,1v4l-1,1v1l-2,1l-3,3v3h-1l-1,1v1h-1h2v1h-1v1h-1v1h1v-1h1l-2,4l-1,1v2l-1,1v1h-1v-2h-1l1,-2v-1l-1,1v1l-2,2h2v2l-1,2l-1,1v3h-1v3l-1,3v1h-1l-1,2h-1l-1,2h-1v1h2v1l1,-1v-1l2,2h1l1,-1h1v-1h2l1,1h6l2,-1l1,1l2,-2h1v-1l1,1h5l1,-1h1l2,1l1,1l1,-1h1l4,3h-3v1l1,-1v1h1v1h1l1,-1v1h1l-1,-1h-1l3,1v1h1v1l-1,1v-1h-1v1l1,1v3l-1,1v1l-1,1l-1,2v6l-1,3v1v-1h-1v5h-1v2l1,-1v2l-2,2v2l1,1v1h1v1l1,3l1,1l1,2h1l1,2h1v1h1l2,2v2h1v-1v2h1v1h2l1,-1h-1v-1v1h1l1,1l2,1h1l1,-1h2l2,-1l1,-1l5,-2v-1h1l2,-2l2,1h3v1l2,-1l7,3l1,2l3,1v1h-1v1h1v2h1v3h-1v1l-2,2l-1,-1h-1l1,1h-1v1l-1,2v-1l-2,-2l-2,-3v-1h1v-2l1,-1h1v1h1l1,1h1l-2,-2h-1v-1h-1v1v-1h-2v1h1h-1l-1,-2v-1h-2v-1h-1l-1,-1h-3l-2,2h-1v2l-3,2h-1l-1,1h-1v1l2,2l1,2l1,1h-1v1h-2v1h-1l-2,1h-1l-1,-1v-1l-1,-2v-2h-1v2h-3l-1,-3v-1h-4v-1h-5l-1,1v1v-1h-1l-1,-1v-2h-1l-1,-1v1l1,1v1h-1v-1h-1l-1,-1v-1l1,-1v-1l-2,-2l-2,-1l-1,-1h-3v-2l-3,-3h-1l-1,-1v1l2,2h1v1l-1,1h-1v1v-1l-4,-2l-1,-2l-1,-1l2,-2v-2l-1,-1h-1h1l1,-1v-1h-1l-6,-6v-2l-1,-1l-2,-1l-1,-1l-2,-1l-1,-2l1,-1v1h2v-1l-1,-1v-1l-1,-1l-1,1l-1,-1v2h-2l-1,1l-2,-1h-1h1v1l-6,-2l-2,-1h-2l-1,-1h-1l-3,-1h-6l-2,-1l-1,-1l-3,-2v-1l-4,-4v-1h-1l-3,-3l-2,-1l-1,-2h-1l-1,-1h-1v1h2l1,1l-5,-1v-1h1v-1h-1l-1,1v-1h-1v1h1v1h-2l-5,3l-4,2h-4l-2,-1h-4l-2,-2l-3,-1l-1,-1h-1l-1,-1h-4l-2,-2h-3l-2,-1l-2,-2h-1l-1,-1h-1v-2h-1l-1,-1l-1,1l-2,-1h-3l-2,-1l-1,-1v-1l-1,-2h-1l-2,-2h-1l-2,-1v-2l-1,-1l-1,-2v-3l1,-1h2v-2h-1l1,-1v-1l1,-1v-2l1,-1h-1v-2l-1,-1l1,-3v-2l-1,-1l-1,-2v-1l-1,-1v-2l-1,-1v-1l-3,-3h1v-1h-2v-3h-1h2l-1,-1h-1v-1h-1v-1h-2l1,-1h1v-1l-1,1h-1v1l-1,-1l1,-3l2,-2v1v-2l-1,-1h-1l-1,-1l1,-1v-1h-2v-5h1h-3v-3l-1,-1v-2h-1v-2l1,-1h-1v-4l1,-1v-5l1,-1v-1h1v-1h-2v-2h-1l-1,1h-1v-1h-1v-1h-1v2l-2,3v1l-1,2v1l-1,2v3l1,1v5l1,-1v4h1h-1v3l-1,1l2,2l-1,1v1h1v2l-1,2h1v-2l1,1v4l-1,2v2h1l-1,1v2l1,1v1l-1,1v1l-1,2l1,1v1l1,-1v-1l2,2v2l1,1v1l-1,2l-2,2h-2v-5h-1v-1l-1,-1v-1l-2,-1v-1l-1,-1l-1,-2v-1l1,-2l1,-1v-2l1,-1l-1,-2v-1h-1l-1,-2v-1l1,-1h-1v1h-1l-1,1l-1,-1v-1l-1,-1h-1v-2l-1,-1v-1h3v-1h1l-1,1h1v-1h1h-1v-1h1l1,-2l1,-1v-2l-1,-3v-1h-1v-1h-1v-1h-1l1,-2v-1l1,-1v-1h-1l1,-1v-4l1,-1l-1,-1l1,-1v-1h1l-1,-1l1,-2h-1l1,-2v-1v1v-1l1,-1v-4l-1,-1h-1l1,-1v-1h-1l-1,1v-1h-1l1,-1h-4l-1,-1h1v-1l2,-2l-1,-1l1,-1v-5l1,-1v-1h1v-1h1v-1h-1v-2l1,-1v-1h1v-1h1l-1,1h1v-1l1,-1v-1h2l1,-1h-1l-1,1v-1l-2,2v1v-1h-1v-1v1v-1l1,-1v1v-3l1,-1v-2l3,-3v-1h1v-2l1,-1v-1h1v-1h1h-1h1v-1l5,-5v-1h1v-2l1,-1l2,-1v-2h1l3,-3h1l-1,-1v1l7,-7v-1h1l8,-8v-1v1l1,-1h1h-1v-1l1,-1v1h-1h1l1,-1v-1l2,-1h-1v1v-1l3,-3v-1h1v-1l1,-1h1v-1l1,1h2v-1v1h1v-1v1h-1l-3,3h-1v1l1,-1h-1h1l1,-1h1v-1h1l1,-1l-1,1h-1v1l-2,2h-1h1v-1l-2,2h1v-1h1v-1h2v-1h1v-1h1v-1h1v-1h1h-1h1v-1h1h-1v-1h1l1,-1h1h-1l1,-1v-1v1h-1h1v-1h1v-1h1h-1l1,-1h1v-1l-2,2h-1v-1h1l2,-2h1v-1l-2,2h-1v1h-1v-1h1v-1h1v-1l1,-1h1v-1h1h-1v1h-1v1h-2l1,-1v1h-2l1,-1h1h-1l-1,1v-1h1l1,-1h-1v1h-2l2,-2h1l2,-2h1h-1l-1,1h-1h1v-1h1l2,-2h1v-1h1v1v-1h1v-1h1l1,-1h1v-1l-1,1h-1l-2,2h-1v1h-2l-1,1l2,-1v-1h1l1,-1v1h-2v1v-1l2,-1l1,-1h1h-1l1,-1h1v-1h-1h1l1,-1h1h-1v1l1,-1v1h-1h1v-1h-1h1v-1h2v-1l-1,1h-1l-2,2h-1v1h-1l1,-1v-1h1l2,-2h1v-1h1l1,-1h1l1,-1l2,-1v-1h1l2,-1h-1v1h-1l-1,1h-1h1v-1h2v-1h1l1,-1h-1v1h-1l-2,2h-1l-1,1h-1l-1,1h1h-1l1,-1h1v-1h1l2,-2h1l1,-1h1v-1l-1,1h-1v1h-2v1h-1l1,-1h1v-1l2,-1h1l1,-1h-1h2v-1h1v-1h1h-1l2,-1l1,-1h1v-1h1l1,-1h1v-1h2v-1v1h-1l-1,1v-1h1l1,-1h1l2,-2h1h-1v1h-1l-1,1h-1l-1,1h-1l-1,1h-1h1h-1h1l1,-1h1v-1h1h-1v1v-1v1h-1l-1,1v-1v1h-1v1h-1v-1h2v-1h2v-1h1l2,-2Z"/>
<path class="sp" d="M340,26h2l1,-1h1M257,63l1,-1h2l2,-2h1l1,-1h1l1,-1h1l2,-2h1l1,-1h2l2,-2h2l2,-2h2l1,-1h1l2,-2h2l1,-1h1l1,-1h1l1,-1h1l1,-1h1l1,-1h2l1,-1h1l1,-1h1l1,-1h2l1,-1h1l1,-1h1l1,-1h2l1,-1h2l1,-1h1l1,-1h2l1,-1h1l1,-1h2l1,-1h1l1,-1h2l1,-1h2l1,-1h2l1,-1h1M253,65h1l2,-2"/>
<path class="sl" d="M603,396l1,-2h1l2,2l1,3v4l1,1l1,4v2h1v3h1v1h1v1l2,1h2l1,1v4l-6,6l-1,2h-1l-2,2l-2,1l-1,2v1h-1l-1,2v2l-2,2v1h-1v1l-2,-1l-3,2h3l1,1l4,-2l1,-1l2,-1h1l2,-1v-1h1v1l-1,1h1v2l1,1v2l1,1l2,1h2v-1h2l2,1l1,-1l2,-1l-1,2v2l-1,1v3h-1h1l1,-1v-1l2,-4l2,-1l2,-3h1l1,1v1v-1l1,-1h-1v-1l1,-1h-1l2,-1l-1,-1l1,-1h1v-1h6v1v-2l1,1h1v1h3l2,1v1h3v1h2v1h2l1,1h1l1,2v2l2,-2h1l1,1h1v1h1v1l1,1v1l-1,1h-1v1h1v1l1,-2h1v2h-1v1h-1v2l-1,3v1l1,-1l2,-1v-2l1,-2h1v2h-1l1,1l1,-2h1l2,-1h2v-1h2l2,1l1,1h1l1,1l3,1h3l1,1l2,1h5l3,-1h2l2,1l1,1l2,1h1l4,4l4,2v2h1l2,3l2,1l1,2l3,1v2h2l2,2h6l3,1l1,1l2,6v2l1,2v6h1v2l-1,1v6l-1,3l-2,4l-2,3l-2,2l-1,2h-1v-1v2l-7,7l-2,1l-1,2h-1v1l-1,1v-1l-1,1v1l-1,2l-2,3l-2,4l-1,1l-1,2l-2,1l-1,-1v-2l-1,-1v2h-1v3l-2,2v1l-1,1l1,-1v2l-1,2v1h1v-1l-1,6v10l-2,6l-2,4v6l-2,2h-1l-2,3l-1,3v7l-1,1h-1l-1,1l-2,4l-1,1v1l-3,3h-1v1l-2,2l-1,3v4h-1l-4,2h-1l-2,2v2h-1v1h-7l-1,-1v-1h-1v2h-1l-1,1h-3l-1,-1h2l-1,-1h-1l-1,1h-4v2h1h-1v1h-3l-2,1l-2,2h-4l-7,3l-2,2l-4,3l-2,1h-1v2h-1l-1,2h-1l1,-1h-1l-1,-1v2h-2v-1v1l1,1h1l-1,2h-1v3h-1v10l-1,1v5l-1,1l-1,2v1l-6,3l-7,11l-3,4l-1,1l-1,2l-2,1l-3,2l-2,2h-1l-1,1h-1l1,-1v-1h3l1,-2l2,-1l1,-1v-2h1l3,-3v-2h1v-1l-3,1v-1l-1,-1h-1v-1v2l1,1h-1v1l-1,2v-1v1l-1,1v1h-1l-1,1l-2,1v1l-2,2v4h-1v1l-1,1l-1,3l-7,7h-1v1l-1,1l-1,2l-1,1l-2,1l-1,1h-1v1l-4,1h-3v-1h-4l-2,1h-1l-1,-1l-3,-1l-2,-2h-5v-1h-1l-1,-2l-2,-1v-4l1,-2l1,-1h1v-4l-1,-1v5h-1l-1,2l-1,3l1,1v3l-1,1l1,1l1,2l3,1l2,1l2,2v2l-1,2v3l2,1v1h2v4l-3,4l-3,2v2l-1,1l-4,2l-6,2l-6,1l-8,1h-7l-1,-1h-1l1,1l-1,2h1l1,1h-1l1,1v3h-1l-1,1v3l1,2l-1,1l-3,2h-6l-3,-1h-1l-2,-1h-1v-1h-1l-1,1v3l1,2v2l-1,1l1,1v1h3v1h-1l1,1h2l1,-1v-1h-1h1l1,-1h1v1l1,1v3h-1l-2,1h-1v-2h-1l-1,-1h-1l-1,1h-1v1l2,1h2v1h-1l-1,1h-1l-1,1l-1,2h-1v1l1,2l-1,1v2l-2,2v2h-4l-1,1h-1l-1,1h-1l-2,2v1l-1,2v3l1,1l4,3h5v1h1v3h-1l-1,1h-1l1,1v-1h2v1h-1v1l-2,2h-2l-2,2h-1v1l-1,1l-1,2l-1,5h-4v-1l-1,-1l1,1h-1l-1,1h3v1h-1l-1,1h-1v1l-1,1v2h-1v1l1,-1v1l1,1v2h-1l1,1v-1l4,4v1l-3,-1h-2l-1,1v1h-2l-2,1h-2v3l-1,1l1,1v2h-5l-1,-1l-2,-1v-1h3v1v-1l2,-1l1,-1v-1h-1l-3,1l-2,2v1h-1l-2,-1v-3h2l2,-1h3l-1,-1h-3l-1,1v-1h-1l-1,1v1l-1,1h1l-1,1h-1l-2,-2h2v-1l1,-1h-1v1h-4v-1h-1v-1l-1,-1h1l1,1l1,-1h3l1,-1h1l1,1v1h-1h1v-2h-1l1,-1v-1l-4,-2v1l2,1h1v1h-1l-2,2l-1,-1h-1v-1h-2l-1,-1v-1l1,1v-2l-1,-1h-3l-2,-2h-1v-1h2v-1h-1v-1h1l1,1h1l1,1v1h2v-1h1v-1h-1l-1,1v1l-2,-2h2l-1,-1h-2l-1,-1v-1l1,-1l2,1v-1h-1l-1,-1v-1h2v-1h-1v-3h-1v3h-1v-3l-1,-1v-2h2v-1h-2v1l-2,-2v-2h1l1,1l2,-1l2,1h1h-1v-1h-1v-2h-1v2h-3v-1h-1l-1,-1h1v-1l1,1h1v-1h-1l-1,-1l1,-1h1l-1,-1v-1l-1,-1h-1v1h-1l-1,-1h-1v-2l-1,1h-2v1l1,1h-1l-1,-1v-1l3,-3h1l-1,-1v-1h3l1,-1h1v-2h1v5h-1h1l1,-1v-2l1,1v3l-1,1v1h1v-6h-1v-2h1l1,-1h1l2,1v-1h-1l-1,-1h-1v-2h1l2,-1l1,-1v-1l-1,-1h-2l-1,-1v-2l1,-2l-1,-1v-1l1,-1v-1h1v-1h-1v-3h1l-1,-1v-1h1l1,1v-1l-1,-2h-2v-1h1v-1h2v-1l-1,1h-1l-1,-1h-1l-2,2h-3v-1h1v-1h-2v-2l-1,-1v-2l1,-3v-4h1v-1l1,-3v-1l-2,-5h-1v-5l-1,-2v-1l-1,-1v-1h3v-4l1,-1l1,-2v-3l1,-1v-2l1,-1v-2l2,-2v-6l1,-1v-2l1,-1v-3l-1,-1l1,-1l1,-3v-4l-1,-3v-2l-1,-3v-1l-1,-2v-4l2,-1v-7l-1,-1l-1,-2l2,-2v-1l1,-2v-5l1,-1v-3l1,-2v-5h1v-3l-1,-1v-3h1l1,-1v-2l-1,-3v-10l1,-1h-1l-1,-1v-3h1v-1l1,-1v-5l1,-2v-6l-1,-6v-8l-1,-1v-2l-1,-4v-4h-1v-1l-3,-1l-4,-4h-1v-2l-1,-1l-2,-1h-1l-1,-1h-1l-3,-3h-3l-1,-1l-3,-1l-1,-1l-3,-1h-1l-2,-2l-8,-4l-3,-3l-1,-2l-4,-2v-1l-1,-2h-1l-1,-1v-2h-1l1,-1l1,-3l-1,-1l-1,-2l-2,-2v-1l-1,-2l-1,-1l-1,-2h-1v-1h-1v-1l-1,-2v-1l-3,-2v-1l-1,-2v-1l-4,-7l-4,-8l-1,-1v-2l-1,-1l-2,-4l-3,-3l-2,-4v-1l-1,-2l-2,-1v-1l-1,-1l-8,-4l-1,-1v-2h2v-2l-1,-1l-2,-3h1v-1l-2,-2v-4l1,-1l2,-3l2,-2l2,-1l1,-1v-1h1l1,-1h1v-1l2,-5v-1l-1,-1v1l-1,1h-1l1,-2l-1,1v1l-2,2v-1h-1l-2,-2h-1l-1,-1v-1l1,-1v-7l-1,-1l2,-2h1v-2l1,-1l1,1l-1,-1v-2l2,-2v-1l1,-1v-6h1l1,-1h2l1,-1l5,-2v-2l-1,-1v-1l2,-1h2v-1l-1,-1v-3h1l1,-1h3l1,-1v-1h1v-1h1v-2h1l1,-1v-1l1,-1v-1l1,-1l1,-2h-1v-2l-1,1v-1h-1l1,-1h-1v-1h1v-1l1,-1v-2h-1v-5l-1,-1l2,-1v-3l-1,-2v-1v1l1,-2l-1,-1v-1h-1v-1h-1v-1l-1,-2h-1l1,-2v-1h1l-1,-1h1l1,1l2,-2v-1h1v-3h-1v-2h-1v-1h1v-1v1l4,4v2l1,-1v-4h-1v-1l1,-1h1l6,-6h2l1,-1v-5l1,-1h-1l-1,1l2,-2v-2h1l2,-2h1l1,-2l1,-1l3,1h1v1h-1v1h1l1,-1v-2l2,-2l1,1h5l5,-4l2,-1h2l1,-2v-1h2v-1l2,-1h2l2,1v1l1,1l-2,1v1h-1v1l-4,1l-1,1h1v2l2,2h-1l1,1v3l-1,1l-1,2h-1l-1,3l1,1v1l2,2h-1l1,1v1h2l2,-1v-1l2,-2v-3l-3,-3l-1,-2v-2l1,-1v-1h1l6,-3l3,-1h1v-1h1l1,1h1v-2h-4v-4h3v1h1v3l1,1h4l1,1h2l4,2v2h1l-1,1v1l1,1h1l2,1l3,-1h3l2,-1h6l3,3h2l1,1h2l2,1h1l1,-1l6,-2h3v-1h-4v-1h7l2,-1h4l4,1l3,-1v1h-3l-1,1h-4v1h1v1h1v1h-1v1h1v-1h1l1,2l1,1l1,-1v1v-2l1,1h1l1,1v1h1v-1h1v-1l3,3h2l2,2h-1l-1,1v1l-1,1v2l-1,1h-2v1l2,1v-1h2l1,-1h6l2,1l1,1h2l1,1l6,4l1,2h1l1,1v3l-1,2v3l-1,1l1,-1v-1l2,-2h3v1l4,2v1l2,1l1,1v5l1,-1v-2l1,-1l4,1h2l3,1v1v-2h14l1,1h1v3l-1,1h1l1,-2v-1h1l3,2h2l3,1l1,1l3,2l1,1v2l1,-1l2,2v2h1v-2h1l1,3v1Z"/>
<path class="sl" d="M919,226v1l1,1v1l2,2v1l1,1v1l1,1v1l1,1h1v1l1,1v1l1,1v1l1,1v1l2,2v1l1,1v1l2,2v1l1,1v1l1,1v1l1,1v1l2,2v1l1,1v1l1,1v1l2,2v1l1,1v1l1,1v1l1,1v1l1,1v1l1,1v2l1,1v1l1,1v1l1,1v1l1,1v1l1,1v1l1,1v2l1,1v1l2,2v1l1,1v2l1,1v1l1,1v1l1,1v2l1,1v1l1,1v2l1,1v1l1,1v2l1,1v1l1,1v2l1,1v1l1,1v2l1,1v2l1,1v2l1,1v2l1,1v2l1,1v2l1,1v2l1,1v2l1,1v2l1,1v2l1,1v3l1,1v2l1,1v2l1,1v3l1,1v4l1,1v2l1,1v3l1,1v3l1,1v3l1,1v4l1,1v4l1,1v3l1,1v4l1,1v6l1,1v4l1,1v5l1,1v7l1,1v6l1,1v9l1,1v10l1,1v15l1,1v44l-1,1v15l-1,1v11l-1,1v8l-1,1v6l-1,1v6l-1,1v6l-1,1v5l-1,1v4l-1,1v5l-1,1v3l-1,1v4l-1,1v3l-1,1v4l-1,1v3l-1,1v3l-1,1v3l-1,1v2l-1,1v3l-1,1v3l-1,1v3l-1,1v2l-1,1v2l-1,1v2l-1,1v2l-1,1v2l-1,1v2l-1,1v2l-1,1v2l-1,1v1l-1,1v2l-1,1v2l-1,1v1l-1,1v2l-1,1v2l-1,1v1l-1,1v2l-1,1v1l-1,1v1l-1,1v2l-1,1v1l-1,1v2l-1,1v1l-1,1v1l-1,1v1l-1,1v2l-1,1v1l-1,1v1l-1,1v1l-1,1v1l-1,1v2l-1,1v1l-1,1v1l-1,1v1l-1,1v1l-2,2v1l-1,1v1l-1,1v1l-1,1v1l-1,1v1l-1,1v1l-1,1v1l-1,1v1l-1,1v1l-3,3v1l-1,2l-1,1l-3,6l-2,2v1l-1,1l-1,2l-2,2l-1,2l-2,2v1l-3,3v-1l-2,2h-1l1,-1v-1h-1l1,-1h-1l-2,2v-1v1v-1h-1l-2,2v-2h1v-3h1v-1l-1,1v-1l2,-2v-1h1l1,-2v-1l1,-2l1,-1v-2h2v-1l2,-2v-1l2,-3v-1l1,-2l2,-3l3,-8l3,-5l2,-6v-1l1,-3v-1l3,-6v-1l1,-3l1,-1v-2l1,-1v-1l2,-3v-2l1,-1l1,-2v-1l1,-1l1,-2v-3l2,-4l1,-3l1,-1v-2l1,-2l1,-1v-1l1,-3l1,-2v-4l1,-1l1,-6l1,-4l1,-2v-2l2,-11v-3l1,-2v-2l1,-2v-3l1,-1l1,-4v-1l1,-2l1,-4v-1l1,-1v-1l1,-1v-2l4,-10v-2l1,-3l2,-3v-2h1l1,-1v-2l1,-1l1,-3v-3l1,-3v-6l1,-1v-12h1v-1v1h-1l1,-2l1,-1v-23h2v-1h-1v1h-1v-5l1,-1l-1,-2v-10l-1,-2v-3l-1,-2v-4l-1,-2v-3h-1h1v1v-1l-1,-1v-5h-1v-5l1,3v-2h-1v-5l-1,-2l1,1v-1l1,-2v-4h1v1l1,-1h-1l-1,-1v-3l1,1v-2l-1,-2v-5h1v-14l-1,-1v-3l-1,-1l1,-1v-2l-1,1v-1v1l-1,-1v-2l-1,-1v-2h-1v-3l-1,-1v1l1,2v1l-1,-1h-1l-1,-1v1v-1l-1,-1v1l-1,-1v-1v3l1,1h-1v-2v1l-1,1v-1v1l-1,-1v-1l-1,-2v-1l-1,-1v-5l-1,-1v-1v1l1,-1h-1v-1v1l-1,-1v-1l-1,-2v-2l-2,-2l-2,-1h-1h1v-1h-1v1h-7l-1,1v2h-1l-2,-1l-2,2v1h-1v1h-3v1l-1,1h-1l-3,-3h-1l-1,-1h1h-1v-2l-1,1v1l-2,-2h-1v-1h-2l2,1h-4v-1h-1v1h-4l-2,1l-1,1h-1v1h-1l-1,1h-1l-9,-9l-2,-3l-3,-6h-1l-1,-1h-1v-1l-2,-2l-1,-2l-2,-2l-1,-2l-1,-1l-2,-1l-1,-1v-1l-1,-1v-1h-1l-1,-1v-3h-2v-2h1v-2h-1v1l-1,-2v-1h1l-1,-1v-2l-1,-1v-1l-1,-1h-1v-3h-1l-1,-1v-1h-1l-2,-2l-1,-2v-2h-1v-1l-1,-1h-1v1v-1l-1,-1v-1v1v-1h-1l-1,-1v-1h1h-1v-1h2l-1,-1h-1l-1,-1v-1h2v-1v1l-2,-1l-1,1h-1v-1h-2l-1,-1v-2h-1l-2,-1v-2h1v-1h-1v1v-1l-1,-2v-2l-1,-1l1,-1l2,2l1,-1v1v-1h4l-1,-1h-3l-1,1l-2,-2v-2h-1v-2l-1,-1v-1l-3,-3v-1h-1l-1,-1h1l1,-1l1,-2l1,-4v-1l-1,-3v-13l-1,-2l-1,-3v-1l-1,-3l-3,-3h1v-1l-1,1l1,-3l-1,-1v-2l-2,-4h-1v1v-1l-3,-3v-1v2l-2,-8v-2h1l1,-1v-2l-1,-1l1,-1v-1h-1l1,-1v-5l-1,1v1v-2l1,-1l1,-3h1v-3l-1,-2v-5l-1,-2l3,-3v-3l-1,-2v-2h1l-1,-1l1,-1h3l2,-1v-1l1,-2l1,-1v-1l1,-2v-3l-1,-1v-2l-3,-3v-1l-1,-1l-1,-3v-4l-1,-1v-2h-1l1,-2v-3l2,-1l1,-1v-2l-1,-4l-2,-6h1v-1l1,1v1l2,2l2,1l1,1h3l1,1h1v-1v1h1v1h2l1,1h1l1,-1v-3h1v1h1v-1l-1,-1l1,-1v-1h1l2,1h1v-1h2l3,1l2,2l1,-1v-1l2,2v-1l2,2h2l-1,-1h1l1,1l-1,-1h1v1l3,3v-1l1,1v1l1,1v1l3,3v1h1l1,1v1l3,3v1l1,2v1l1,1v1l2,2v1h1l1,1v1h1l-1,-1l2,2v1h1v1h1v1l2,2h1v1l1,-1v1h1v1l5,5v1l2,2l1,2l1,1v1h1v1l1,1h1l2,4h1v1l2,3l1,1v1v-1l-1,-2l-1,-1v-1l-1,-1v-1l-2,-2l-1,-2l-1,-1v-1h-1v-2l-1,-1Z"/>
<path class="sp" d="M919,227l1,1v1l2,2v1l1,1v1l1,1v1l1,1h1v1l1,1v1l1,1v1l1,1v1l2,2v1l1,1v1l2,2v1l1,1v1l1,1v1l1,1v1l2,2v1l1,1v1l1,1v1l2,2v1l1,1v1l1,1v1l1,1v1l1,1v1l1,1v2l1,1v1l1,1v1l1,1v1l1,1v1l1,1v1l1,1v2l1,1v1l2,2v1l1,1v2l1,1v1l1,1v1l1,1v2l1,1v1l1,1v2l1,1v1l1,1v2l1,1v1l1,1v2l1,1v1l1,1v2l1,1v2l1,1v2l1,1v2l1,1v2l1,1v2l1,1v2l1,1v2l1,1v2l1,1v2l1,1v3l1,1v2l1,1v2l1,1v3l1,1v4l1,1v2l1,1v3l1,1v3l1,1v3l1,1v4l1,1v4l1,1v3l1,1v4l1,1v6l1,1v4l1,1v5l1,1v7l1,1v6l1,1v9l1,1v10l1,1v15l1,1v44l-1,1v15l-1,1v11l-1,1v8l-1,1v6l-1,1v6l-1,1v6l-1,1v5l-1,1v4l-1,1v5l-1,1v3l-1,1v4l-1,1v3l-1,1v4l-1,1v3l-1,1v3l-1,1v3l-1,1v2l-1,1v3l-1,1v3l-1,1v3l-1,1v2l-1,1v2l-1,1v2l-1,1v2l-1,1v2l-1,1v2l-1,1v2l-1,1v2l-1,1v1l-1,1v2l-1,1v2l-1,1v1l-1,1v2l-1,1v2l-1,1v1l-1,1v2l-1,1v1l-1,1v1l-1,1v2l-1,1v1l-1,1v2l-1,1v1l-1,1v1l-1,1v1l-1,1v2l-1,1v1l-1,1v1l-1,1v1l-1,1v1l-1,1v2l-1,1v1l-1,1v1l-1,1v1l-1,1v1l-2,2v1l-1,1v1l-1,1v1l-1,1v1l-1,1v1l-1,1v1l-1,1v1l-1,1v1l-1,1v1l-3,3v1"/>
<path class="sl" d="M774,82l1,1h1l1,1l-1,-1h-1v-1h-1l-1,-1l-2,-1l-1,-1h-1h1h-1v-1h-1h1h-2v-1l-1,-1h-1l-3,-2l-1,-1h-2v-1h-1l-2,-1l-1,-1l-2,-1l-1,-1h-1l-2,-1v-1h-2v-1h-1l-1,-1l-2,-1h-1h2v1h1l1,1h1v1v-1h-1h1v1h1l1,1h1v1h1h-1h1h-1l-1,-1h-1h1h-1v-1h-2l-1,-1h-1l-1,-1h-1v-1h-1l1,1v-1h-2v-1h-1v-1h-1h1v1h-1l-2,-2h-1h1h-1v-1h-1l-1,-1h-1h2v1l-1,-1h-1v-1v1h1l1,1h1v1h1h-1l-1,-1h-1v-1h-1h1h-1l-1,-1h-1l-1,-1h-1l-1,-1h-1l-1,-1h1v1h2l1,1l-1,-1h-1l-1,-1l1,1h1h-2v-1l1,1h-1v-1h-2l-1,-1h-1l-1,-1h-1v-1h-1h1l1,1h1h-1l-1,-1h-2v-1h-1h1h-1l-1,-1l1,1h1h-1l-1,-1h-2v-1l1,1h1l1,1l-2,-1l-1,-1h-1v-1h-1h1v1v-1v1h2l1,1h1l1,1h1l1,1h1l1,1h1l1,1h1l1,1h1l1,1h1l2,2h1l1,1h1l1,1h1l1,1h1l1,1h1l2,2h1l1,1h1l1,1h1l1,1h1l1,1h1l2,2h1l1,1h1l2,2h1l2,2h1l1,1h1l2,2h1l1,1h1l3,3h1Z"/>
<path class="sp" d="M713,48h2l1,1h1l1,1h1l1,1h1l1,1h1l1,1h1l1,1h1l1,1h1l2,2h1l1,1h1l1,1h1l1,1h1l1,1h1l2,2h1l1,1h1l1,1h1l1,1h1l1,1h1l2,2h1l1,1h1l2,2h1l2,2h1l1,1h1l2,2h1l1,1h1l3,3h1l1,1M712,47v0"/>
<path class="sl" d="M524,352h-1v-1h1ZM498,335v1l-1,1h-2v-1l-1,1l-1,-1l1,-1l1,1h1v-1h1ZM486,337h-2v-1h1ZM522,354v-1l1,-1v2ZM489,277h-1ZM491,277h-1ZM490,281l1,1h1h-3v-1ZM479,276h2l1,1h1v1h-1v1h-1l-1,1h-10v-3h-1h1v-1h8ZM485,279h-2l1,-1h1l1,1ZM464,279h1ZM242,73h1l1,-1h-1v1ZM240,75v-1h1ZM251,67h1ZM235,78h-1v1h-1l1,-1ZM235,79h-1v1v-1h1v-1h1ZM241,75h-2v1v-1h1h-1h1l1,-1l2,-1l-1,1ZM238,77l-1,1h-1h1v-1v1h-2v1v-1h1l1,-1h1l2,-1l1,-1l-1,1h-1ZM244,72l1,-1v1h-1l-1,1h-1h1v-1v1h-1l-1,1h-1h1l1,-1h1v-1ZM231,81v-1v1h-1v1v-1h1l1,-1v-1h1l-1,1ZM244,71l-1,1l-2,1l-1,1h-1v1h-1l-1,1l1,-1h1v-1h1h-1h1v-1v1v-1h2v-1h1l-2,1l1,-1h1v-1h2ZM250,67h1l-2,2h-1h1v-1h1h-1l-2,2h-1l-2,2h-1h1v-1l2,-1h1v-1l2,-1h1v-1h1ZM249,68h-1v1l1,-1l-1,1h-1v1v-1v1h-2l-1,1l1,-1h1v-1h2v-1v1v-1h2ZM240,75v-1v1h-1v1h-1l-1,1h-1v1v-1v1h-1h1h-1v1h-1h1h-1l-1,1h-1v1h-1l1,-1h1v-1v1h-1l1,-1h1v-1h1v-1h2v-1h1h-1h1v-1h1ZM242,73h-1v1h-1l-1,1h-1v1h-1h1l3,-3h1l1,-1v1ZM441,123h1l1,-1h2l-3,1h-1l-1,1h-1l-2,1h-6l1,-1h1l1,-1v1v-1h7v-1h1ZM471,104h-1v-1h1ZM430,125v1v-1h1ZM455,120h-1ZM450,120h-1v-1h1ZM458,121h-2l1,-1h1ZM415,154v-1ZM415,158h-1h1l1,-2v-1v3ZM414,158l-2,1l1,-1ZM408,162v-1l2,-1l-1,1ZM358,219v1l-1,-1ZM358,219v-1ZM369,228l-1,1l1,-1v-1h1ZM294,202h-1v-1h2ZM256,216h1v-1h1v-1v1h-1ZM259,214h-1h1l2,-1v-1v1h-1ZM253,221v-1l1,-1l1,-2h1l-2,2ZM272,206l1,-1h1h-1ZM252,229h-1l1,-5v-3v7ZM154,196h-1v-1h1ZM157,197h-1v-1h1ZM154,191h1ZM155,190h1l-1,1ZM159,194h-1v-1h1ZM216,104v1v-1v1h-1h1ZM215,105v1h-1v-1ZM214,107l-1,1l1,-1v1h-1v-1h1v-1h1ZM449,120v-1ZM429,130v1l1,-1ZM420,141h-1l2,-2h1h-1v1ZM408,162h-1ZM365,231h1ZM364,232h-1l1,-1ZM369,187l-1,2v-1ZM360,233h-1v-1h1ZM373,213l-1,-1v-2ZM317,195v1v-1h-1ZM321,195h-1ZM313,197h-1v-1h1ZM315,198v1v-2ZM342,198h-1h1l1,-1ZM210,111l1,-1v1ZM211,110l1,-1ZM215,106v-1ZM659,892l-1,1v-1ZM631,864h2l-1,1h2v2h1h-1v1l-1,1l-1,-1v-2h-1v-1h-1l-1,-1h-1v-1h2ZM907,600v-1ZM875,523v-1ZM88,677v-1ZM505,278h-1ZM526,842h2v1h-1h1l1,1v-1h2v1h-1h1v1h-2l-1,1h-2v1h-3l1,1h-2l-1,-1l1,-1h-1l2,-1h1v-2h1v-1ZM518,843h4l1,-1v2h-1v1h-1l-1,1h-2v1h-1l-1,1h-1v-1h-1l1,-1h2v-1h1h-1l1,-1h-1v-1l-1,-1h1v1Z"/>
<path class="sl" d="M514,845h1l-1,1h-1v-1ZM528,847h-1ZM519,843h-1v-1h1ZM521,848h-1v-1ZM356,272v1v-1h2v1h-3v-1ZM367,269h-1ZM368,269h1ZM491,176h-1h1l1,-1ZM493,276h1ZM491,277v-1h1ZM494,274h-1ZM435,251h-2ZM433,251h-1v-1h1ZM429,251h1l-1,1ZM512,290h-1v-1h1ZM787,103h-1ZM784,101v1ZM751,77v1v-1h-1v-1ZM771,91h-1l-1,-1h-2v-1h-3v-1h-1l-1,-1h1v-1h-1v-1h-1v-1h-1v-1h-1v1v-1h-1v-1h2l-1,-1h-1v-1h-2v-1l-1,-1h-1l-1,-1h-1l-3,-3v1h-2l-1,-1l1,1l-1,-1h-1l-1,-1h1h-1l-3,-3h-1l-1,-1l1,1v-1h-2v-1v1h1h-1h1h-1l-1,-1v1h1l1,1l2,1v1v-1h-1l-1,-1h-1v-1l-1,-1h-1l-1,-1h-1v-1h-1h1h-2v-1h-1h1h-1l-1,-1v-1h-2l-1,-1h-1v-1h-1h1l-1,-1h-1v-1h-1l-1,-1h1v1h4v1h1v1h1v1h1v1h3l2,1h1l1,1h1v1h1l2,2h-1l1,1v-1v1h1l1,1h-2v-1l1,1h2l2,1l1,1h1l1,1h1l2,1l3,3h1l2,1l1,1l2,1h1v1h1l1,1h1l1,1h-1v-1h-1l3,2h1l3,3v-1h1v1h1l2,1l1,1h1v1h1v1h1v1h1h-1l1,1v1h2v1h1l1,1v1l-2,-1h-2v-1h-1v1l-1,-1l1,1h-1l-1,-1h-2l2,2h-1v-1h-3l1,1h-1v-1h-1v-1h-1v-2h-1v-1h2v-1l-1,-1ZM757,81v1h1h-2v-1ZM724,57h-1ZM718,53h-1v-1v1ZM718,53h1v1h2v1h1h-1v-1h-2l-1,-1h-1ZM717,52l1,1ZM725,59v-1h-1h1ZM726,59l-1,-1ZM724,58h1h-2v-1h1ZM724,57h-2v-1l1,1ZM731,66l-1,-1h1ZM742,71h-1l-1,-1l1,1ZM734,67h-1v-1h-1h2ZM736,69h1l1,1h-1v-1h-1h1ZM737,69h-1v-1v1ZM721,59h1v1h1h-1h1v1l-1,-1h-1v-1h-1h1h-1v-1ZM726,62h1v1h2v1h1h-1v-1h-2l-1,-1h-1v-1ZM723,61h1h-2ZM726,63h-1v-1h-1ZM726,64v-1ZM747,77h-1v-1h-2v-1h-1v1h1h-1l-1,-1h-1l-1,-1h-1h1v-1h-1v-1h-1h1l-1,-1h2v1h1l1,1h1l1,1h1v1h1l1,1v-1h-1l1,1v1h1ZM781,96v1l-1,-1ZM897,203h-1v-1ZM901,209v1l-1,-1v-1v1ZM524,335v-1l2,-1v1ZM522,343l-1,1h-7l2,-1l1,-1h1v-3h-1l-1,-1h5v-1h2l-1,1v4ZM854,167v1v-1h-1ZM853,162h1v1h1v2l-2,-2h-1v-2h1ZM856,162l-2,-1h-1h1l1,1ZM853,166h-1v-1h1ZM823,222v3h-1l-2,-2v-1h2v-1h1l1,1ZM835,221h-1v-2h1v1ZM835,226h-1v-4h1v2l1,1ZM828,225h1v3l-2,-2v-1ZM820,224h-1v-1ZM816,225v1h-1v-1ZM815,220h-1l-1,-2h1l1,1ZM886,392h-1v-1l-2,-1h2v1h1ZM973,463l-1,1v-2h1ZM971,475l-1,1v-3h1v1ZM850,144h-1ZM520,318v1l-1,-1l1,-1h1v1ZM520,320h-1h1v-1ZM523,313l-1,1l-1,-1v-1h1v-1l1,1ZM509,287h-1v-1h1ZM508,286l-1,-1h-1v-1l1,1h1ZM804,190l1,1h2v1h-1l-1,-1h-1ZM749,158h-1ZM707,140h-1v-1h1ZM732,146h-2v-1h1v1Z"/>
<path class="sl" d="M729,147h-1l-1,-1h-1l-1,-1l2,1ZM724,146h-1ZM727,147h1h-3l-1,-1h1ZM743,152h2v1h-3v-1h-1h1ZM369,361v1v-2h1v1ZM346,370h-1l-1,-1l1,-1h1v1ZM342,353v1l-1,-1ZM368,361l-1,1v-1ZM725,54h-1ZM731,57l1,1h-1v-1h-1ZM711,47l-1,-1ZM713,48l-1,-1ZM634,19h-1ZM971,439v-1ZM789,97h-1v-1h-1h1ZM779,88l-1,-1h1ZM779,89h1h-1v-1ZM786,95h1h-1v-1ZM779,88v-1ZM460,327v1v-2h-1h1ZM505,284v-1ZM503,283v-1ZM446,325l-1,-1v-1l1,1ZM456,328h-1l-1,-1l-2,-1v-1h1l2,2ZM842,141h-1ZM314,267v1l-1,-1l1,-1v-1h2l-1,1ZM183,269v1ZM152,296h-1v-1h1ZM169,247l-1,1v-2ZM167,220v-1l-1,-1v-1l1,-1v2h1l-1,1ZM154,228v1l-1,-1l2,-2v2ZM172,219l-1,2h-1v-1l1,-2l1,-1v1ZM143,225v-2h1h-1v1ZM277,282l-1,1v-1l2,-1v1ZM170,253v-1l1,-1v2ZM169,240h-1v1h-1l2,-2ZM161,253l-1,-1ZM159,252v-2l1,-1l1,-3v1l-1,2l-1,1h1l-1,1ZM845,288v-1ZM897,198h-1v-1v1ZM895,197v-1ZM388,278h3v1h1l3,1l1,2h-6v1h-1v-1l-1,1v1l-1,-1h-4v-1h-1v-1l-1,-1h-2v-1h1v-1h7ZM852,149h1v1ZM870,166v-1ZM888,190v-1h-1h1ZM886,183v1l2,2v1h1v1h1v1l1,1v1h1v1h1v1l-1,-1l-1,-2h-1v-1h-1l-2,-2v-1h-1l-2,-2v-1h-1v-1h-1v-1l1,1v-1h-1h1v1l1,1h1ZM862,161l2,2h1v1l1,1v1h1v1l4,4v1v-1h-1l1,1h-1v-1h-1l-1,-1l-1,-2l-3,-3v-1l-1,-1h-1v-1h-1v-1h-1v-1l-1,-1v1h1v-1h-1v-1h1v1h1v1h1ZM869,171l1,1ZM858,158l1,1h-1ZM737,75h-1ZM738,72h1v1h1v1h-1h1l1,1h1l1,1h1h-1v-1h1v1h2v1h1l1,1h1l1,1h1v1h1l2,2h1v1l2,2h-1h1h-2v1h-1v1h-3v-1h-2v-1h1h-1h1h-2l-1,-1v-1h-1h1l-1,-1h2l-1,-1v1h-1v-1h-1v-1h-1v-1h-2v-1h-2l-1,-1h1h-1v-1h-1h1h-1v-1l-1,1v-1h-1v-1h-1h4v1v-1h-1h1l-1,-1h-2v-2h-1h2v1h1l-1,-1h-1h1l-1,-1h1v1h1ZM650,28h2v1h2l1,1h3v1h2v1h2v1h-1h2v1h-4v1h-1h1h-3l-1,-1h-3l-1,-1h-3v-1v1l-3,-1h-2v-1v1h2v-1h-2v-1h-2l-1,-1h-1h1h-1l-1,-1h-1l-1,-1h-5v-1h-1h1l1,1h1v-1h-3v-1h1l1,1h1h-1l-1,-1h1h-1h2l1,1h2v1h2l1,1h2v1v-1h-1h1l-1,-1h-1h3v1h1l-1,-1h-1h2l1,1h1l-1,-1h1l1,1h1h-1h1h-1v-1l1,1h1l-1,-1h-1h2l1,1ZM314,298l-2,1l1,-1h1v-1h1ZM318,297h-1h1v-1ZM433,267v3l1,1v1h-1l-1,1l1,1v1h-1v1h-1v1l1,1h1l-1,1v1v-1h-16l-1,1h-1l-1,-1h-1l-1,-1h-1v-1l1,-1h6v1h8v-1h3v-1h-1l-2,-1l-1,-2h1v-3h-1l-2,-1h-2l-1,-1h1v-1h8l1,1h3ZM424,274v1l-2,-1h-2v-1h2l1,1ZM426,265h-3l1,-1h1ZM862,358h-1v-1h1Z"/>
<path class="sl" d="M863,358h-1v-1h1ZM864,357h-1v-1h1ZM864,355v-1ZM862,355l-1,-1h1ZM861,351v1l-1,-1ZM516,328h-1v-1l1,-1h1v1ZM784,89h1h-1h1l-1,-1h-1l-1,-1h-1h1l1,1h1ZM788,91h-1v-1h-1h1ZM781,87l-1,-1ZM774,83l-1,-1h-1h1ZM775,83v1v-1h-1ZM851,149h1v1l3,3v1h1l1,1v1l1,1l-2,-2v-1h-1l-3,-3v-1h-1v-2h-1l-1,-1h1v1h1ZM808,122h1h-1l-1,-1ZM523,308h-2v-1h1h-1l-1,-1v-1h1l1,1h1v1ZM519,294h-2v-2h1l2,2ZM517,295l-1,1l-1,-1v-2h2v1ZM520,296h-1v-1ZM543,91v-1v1h1ZM505,279h-1ZM506,281v-1ZM24,645v-1ZM22,641v-1ZM25,645v1v-1h-1v-1ZM23,566v1ZM23,568v1ZM25,572v1ZM20,560v1h-1v-2h1ZM20,565v-1ZM36,637v-1ZM21,560v-1ZM37,641h1ZM37,640l-1,-1ZM47,637v1ZM45,637v-1ZM49,659h-1v-1ZM29,624h-1v-1ZM28,630h1ZM24,625v1v-2ZM25,630v-1l-1,-1l1,1ZM975,446h1v4l-1,1v-4ZM358,458h-2l1,-1v-2h2v1l-1,1ZM368,421h-1l1,-1ZM275,443h-2v-1l1,-1h2v1ZM282,444l-1,1v-2h1l1,-1v1h-1ZM266,441v1l-1,-1v-1h2v1ZM274,448h-1l1,-1v1h1ZM268,437v2l2,2v1l1,1v1l-2,2h-3v-2l1,-1h2v-1h-1v-1l-1,-1l-1,-2v-1l-1,1v-1h1l1,-1v1ZM273,440h-2v-2l1,1h1ZM432,280v-1l1,-1h-1l-1,-1v-1h-1h2v-1h1v-1l-1,-1l1,-1h1v-1l-1,-1v-4h6l1,-1l1,1h3l1,1h3v2h1v1h4v1h-2l1,1h4l4,2v1h1l-1,1v1h-1l-1,1h-1v-1h-11v1h-8v2l-2,1l-1,2l-1,-1h-1v-2ZM519,302h-1v-4l1,1v2ZM506,0h1h-1h16l1,1h15l1,1h11l1,1h7l1,1h7l1,1h6l1,1h1h-1l-1,-1l1,1h5l1,1h1h-1l-1,-1h-2l1,1h6l1,1h1h-1h3l1,1h1h-1h4l1,1h-2l-1,-1h-1l1,1h5l1,1h-2l-2,-1h-2l-2,-1v1h-1v-1h-1l1,1h1h-3l-1,-1h-1h1l1,1h1h-1h7l1,1h3l1,1h3v1v-1h-5l-2,-1h-2l-1,-1v1h-1h4v1h1v-1v1h4l2,1h3v1h4v1h2l1,1h1h-2l-1,-1h-1l1,1h1h-2v-1h-4v-1h-3l-1,-1h-4l-1,-1h-1l1,1h4v1h-2l-1,-1h-1l1,1h-1h3l2,1h1h-1h6l2,1h4l1,1h-3l1,1h-1h1h-10v1l-1,-1h-4l-1,-1l1,1h2v1h-1l-1,1h1v2h-3v-1h-1l1,1h1h-1v1l-1,-1h-1h1v1h-1l-1,-1v1h-2v-2h-2v1h1h-1h1v1h-4v1h-3l-1,-1l1,1h2l1,1h1v1h-1h1l1,1h1l-1,1h-1h1v1h-3l-1,-1v1h3v1h-1v1h1v1h1v1h-1h1v2l1,1h-3v1h2l1,1h-2v1h-1v-1h-2v-1v1h-2l-2,-1h-1v-1h1h-4l-1,-1v-1h-2l-1,1h-6l1,-1h-2v-1h-3v-1h-2v-1h2l-1,-1h-1v1h-2v-1h-2v-1h-1v-1h1h-3l-1,-1h-1l-1,-1h-1l-1,-1h2l1,-1h1h-4v1l-1,-1l1,-1h3l1,1h1h-1v-1h-3v-1h-1l1,1h-2v1h-2v-1h-1l-1,-1h-1v-1h2v-1h1h-1v1h-5v-1h-1v-1h3v-1h1l-1,1h-4v-1h3v-1h-5v-1h5l-1,-1h-2v1h-2v-1h6l1,-1h-1l-1,1h-2l-1,-1h-1h5v-1h-1h1h-1l1,-1h-1h1v-1h-8l-1,-1h-1h6l2,1v-1h-3l-1,-1h1l1,1v-1h-5l2,-1h-6v-1h-1h1v1h1h-1h1v1h-3l-1,-1h-1v-1h1h-1h1v-1h-4v-1h-1h1h-3v-1h1h-4l-1,-1h-1h1h-6l-1,-1h-9v1v-1h-2v1v-1h-1v1h-4v-1h-1h1h6v-1h-5v1h-2v-1h-1h1h-1h10v-1h1h-1h8Z"/>
<path class="sp" d="M506,0h6M513,0h9l1,1h15l1,1h11l1,1h7l1,1h8M503,0h3"/>
<path class="sl" d="M532,11h1l1,1h-8v-1h2h-2v-1h2l2,1h1ZM538,12h-1l-1,-1h2ZM528,9h-1ZM522,6v1h-3v-1h2ZM485,2h-1ZM601,14h1v1h-1l-1,-1h-1h1ZM573,5h-1ZM585,8l-3,-1h1ZM590,9h1h-1l-1,-1ZM576,6h-1ZM593,23h-1ZM573,35h-1h1h-1ZM534,10h-2v-1h1v1ZM698,46v-1h-1h1ZM700,47l-1,-1h-1h1ZM695,44h-1ZM695,44l1,1v-1h-1h1l1,1h-1l-1,-1h-1ZM696,44h-1ZM773,81l1,1h1v1h1v1h1l1,1h1h-1v-1h-1l-1,-1h-1l-1,-1h-1v-1h-1l-1,-1l1,1v-1h-1h1v1h1h-1l-1,-1h-1v-1l1,1h1v1ZM776,84v-1h-1v1v-1h-1l-2,-2h-1l-1,-1h-1l-1,-1l-2,-1v-1h-2l-1,-1l-2,-1h1l-1,-1l1,1l-2,-2v1h1h-1l-1,-1h-1h1l-2,-2v1h2v1h1l1,1h1l2,2h1l1,1h1v1h1l-1,-1v1l1,1h1l1,1h1l2,2h1v1h1ZM772,81h1l2,2h1h-1l-1,-1h-1l-1,-1h-1v-1v1ZM778,84v1h1l1,1l-2,-1l-1,-1ZM778,85l-1,-1h-1v-1h-1h1ZM779,85h-1h1h-1v-1v1ZM774,82h1ZM777,84l-1,-1v1ZM776,84v-1h-1ZM771,80h-1v-1h-1h1v1ZM761,74l-1,-1h1ZM356,243l2,1h1l1,-1v1h6l1,1h1v-1l1,1h2l3,3h5l6,3v1h2l1,1v-1l1,1h2v1h-1v1l1,-1l1,1h1v1l1,-1v1h4l1,1h3l1,1h-1v1h-1v1h7l1,1h1l2,2h2v1h-1v1h-5l-1,1h-1v-1l-1,1h-12l-1,1h-7l1,-2l3,-1l1,-1v-2h-7v-1l-2,-1h-1v-3h-1v-1l-1,-1l-3,1h-2l-4,-1l-1,-1h-1l-1,-1v-1l-5,1v-1h-1v-1v1h-5l-2,-2h3v-2h-7l-1,1h-1l-1,1h-1v1h-1l-1,1h-2v1h-2l-2,2h-1l-1,1h-1v-1h-1l-1,1l-1,-1l3,-1h2v-3h1l1,-2h1l6,-3h4l1,-1h2l2,-1ZM387,251h-2v-1h2ZM384,249h-1v-1h1ZM380,247h2l1,1h-2l-1,-1h-1ZM385,250h-1v-1h1l1,1ZM349,256h-1l-2,1h-1l-1,-1h2l-1,-2l1,-1h2v1l1,1ZM375,246l-1,1l-2,-2h1l1,1ZM860,154h1v1v-1ZM860,153h-1v-1v1ZM859,152l-1,-1v1ZM852,146h1h-1v-1ZM846,140v-1h-1v-1v1h1ZM848,141v1v-1h-1ZM851,144h-1v-1h-1l-1,-1h1v1l1,1ZM853,147l-1,-2h-1h1ZM853,147h1h-1v-1ZM848,142l-2,-2v-1h-1h1v1h1l1,1ZM863,156h-1ZM865,158v1h1l-5,-5l1,2v-1v1h1l1,1v1ZM375,410h-1v-1ZM181,682v-1h1ZM391,717l-2,1v-1h1ZM473,851v2l1,1v10h-4l-1,-1l-1,1h-4l-1,-1h-5v-1h5v-1h1v1h2l-1,-1h-2v-3h1l-1,-1h1l1,1v1h-1v1h1l1,1h4l1,1h1v-1h-1l-4,-1v-1l-1,-1v-1h2l2,-1v-1h-3l-1,1v-1h-2v-2h2l-2,-2h1l1,1h1v-1h1v-1h1l1,1h1l1,-1h1ZM482,866v1h-1v-1h-4v-1h-1h6ZM436,789h-4v-11h2l2,1v2h1l-1,1l1,1h-2v1h1v1h1v2h-1v1ZM438,829v3h1v3h-1l-1,-1v-3h-1v3h-2l-1,-1v-1h1v-1h-1v-1h2v-1h-1l1,-1v-2h2v1ZM432,827h-1v-5h1v1l1,1l1,2h-2Z"/>
<path class="sl" d="M443,853h3l1,1h2v1h1h-2l-1,-1h-3l-2,-2h-1h2ZM437,825h-1l-1,1l-1,-1v-1l-1,-1v-1h-1l1,-1h1v-1l1,1v1l1,1v1ZM452,856v1h3v1h1h-1v1l-1,1h-2l1,-1l-1,-1v1l-1,-1v1h-1v-1h-1l-1,-1h-1l1,-1h3ZM439,845l1,1h1v3h-1v-1h-1v-1l-1,-1h1ZM469,865h7l-1,1h2l-1,1h1v1h1v1h-1v-1h-3l-1,-1h1v-1h-1v1v-1h-2v1h1v1h-1v-1h-1v-1h-2v-2ZM460,859l1,1h1v1h-5v-1h-1v-1h3ZM437,796v1h-2l1,1v1l1,1v1l1,1v1h-2v-1h-1l-1,-1v-1h-1v-1l-1,-1h1l-1,-1h3v-2h1ZM442,799l-1,1l-1,-1h-1v-1l1,-1v-1h1l1,1h1v1ZM430,800h-1v-1v1ZM436,839v1h-1v-2h1h-1ZM434,827v1l-2,2v-2h-1v-1h2ZM433,820h-1l1,-1l1,1ZM430,791h-1ZM438,799v1l-1,-1v-1h1ZM440,843l-1,1h-1l-1,1v-2h2v-1h1ZM436,836l-1,1h-1v-2h3v1ZM436,792v1h-2v-1h1ZM443,847h-1v-1l-1,-1h1v1h2v1ZM435,806h-2v-3h1v-1l1,1v2ZM480,870h1ZM486,866h-1ZM463,864v1h4l-1,1h-3v-1h-2v-1h1ZM482,870l-1,-1h-1h1v-1v1h1ZM797,303h-1v-2h2v1ZM811,320h-1l-1,-1v-2l1,1ZM799,304h-1v-1h1ZM813,310h1v2h-1v-1ZM806,320h-1l-1,-1h2ZM805,306v1l-1,-1h-1v1v-1ZM812,307v-1l-1,-1h1v1ZM813,319l-1,-1v-1h1v1ZM226,84h1h-1v1h-1l-1,1h-1h1l1,-1h1v-1h2v-1l-3,3h-1l-2,2h-1h1v-1h1v-1h1v-1h1ZM222,88l-1,1h-1l-1,1v1h-1l-2,2v-1h1v-1h1v-1h1v-1h1l1,-1ZM216,97v1h2v1h-1v1h-1v1h-1v1h1v1l-2,2h1h-1v1h-1l-1,1h-1v-1h-1v-1h1l1,-1h1v-1h1h-1v1h-2l-1,1v-1h1v-1v1v-1h1h-1v-1h1v-1h1h-1v-1h1h-1v-1h1l1,-1v1v-1h1h-1l-1,1v-1h1v-1h1ZM428,5h-1Z"/>
<path class="sp" d="M427,5h1"/>
<path class="sl" d="M424,6h1h-5v1h-1l1,-1h3Z"/>
<path class="sp" d="M418,7h1l1,-1h4"/>
<path class="sl" d="M409,8h-1v1h-1h1ZM406,9h-1Z"/>
<path class="sp" d="M407,9h1l1,-1M404,9h2"/>
<path class="sl" d="M415,7h1l-1,1h-1h2v-1v1h-1h1v-1h1l-1,1h-4l-1,1h-5l-1,1h-5l-1,1h-1h1v-1h5l1,-1h1h-1l-1,1h-1h1h-5v1v-1l-1,1h-1h1v-1h5v-1l-2,1h-1h2l1,-1h1l-1,1v-1h5l1,-1l-1,1l1,-1h1h-1v1h-1h1h-1h1l2,-1h3l1,-1h1h-1v1ZM384,14h3l1,-1h2l-1,1h-1h1h-1h1l1,-1h3l1,-1v1h-1h1h-1l-1,1h-1h2v-1h2l1,-1h3v-1h3l-1,1h-1l-2,1h-1l-1,1h-2v1h-1h2v1l1,-1h1l-1,1h-4l-1,1h-3v1h-1h1l1,-1h1v1v-1v1h-3l-1,1h-6v-1v1h-3l-1,1h-4l-1,1h-4l-1,1h-4l-1,1h-1h1v-1h2l1,-1h-2l-1,1h-1v-1h2l1,-1h2l2,-1h5v-1h1h-2l-1,1h-3l2,-1h2l1,-1h1h-1l-1,1h-1h1l1,-1h-1h2l2,-1h2l1,-1h4v-1h4l3,-1h-2v1h-2ZM387,13h-1h1h-1h3v-1h1l-1,1h-3v1h-4l-4,2h-4l-1,1h-2l-1,1h-3l-1,1h-3l-1,1h-1h1v-1h3v-1h4v-1h3l1,-1h2l2,-1h3l1,-1h3l1,-1Z"/>
<path class="sp" d="M379,15h1l1,-1h3l1,-1"/>
<path class="sl" d="M500,0h-13v1h-1l-1,-1l-1,1h-1h1h-7v1h-6v1h-13l-2,1h-1v-1h-1v1h-3l1,-1l-1,1h-1l2,-1h5v-1h2v1h2l1,-1h1h-2l-1,1v-1h1h-1h1h-1h7l1,-1h1h-2l-1,1v-1h1h-1h12l2,-1h1h2h-5v1h-1l1,-1h21ZM470,1h-1Z"/>
<path class="sp" d="M472,1h5l1,-1h22M468,1h2"/>
<path class="sl" d="M444,4l1,-1h2l-1,1h-3ZM435,6h-1l-1,1h-4l1,-1h6v-1v1ZM418,9h2l1,-1h1v1h-4l-1,1h-1h2v-1v1h-1h1h-1v1h-3l-1,1h-4l-1,1h-1v-1h1v-1l-1,1v-1l-1,1v-1h1h-1h2l1,-1h1h-1v1h1l1,-1h2v-1h4ZM424,23l1,-1h1v1h3l1,1h3l-2,2h1l1,-1h3v1h-1h1h-1l-1,1h-5v-1h-2v-1l-1,1h-2v1h-3l-1,1h-2l-1,1h-1v-2h-3l-1,1h-1v-1h2l2,-1h1v-1h1l1,-1h1l2,-2h1l1,-1h1v1h-1h1ZM434,5h-1l-1,1h-4v1h-3l1,-1h1l-2,1h-2l1,-1h5l1,-1h3ZM440,4h1h-1h1v-1h1l-1,1l1,-1v1h-3Z"/>
<path class="sp" d="M437,4h3"/>
<path class="sl" d="M455,2h6l1,-1h3l-1,1h-9v1v-1h-1v1h-3l1,-1h1h1h-1h1Z"/>
<path class="sp" d="M456,2h2M459,2h2l1,-1h1M455,2v0"/>
<path class="sl" d="M442,4h1h-1h4v1l1,-1v1h-1h3l1,-1l1,1h1v-1h12l-1,1v-1h-1l1,1h-13l-1,1h-4v-1l-1,1h-5v-1h3v-1l-1,1h-3v-1h3ZM446,3h1h-3v1h-1v-1h1h-1v1v-1h4ZM433,7h2v1h-4v1h-6v1h-5l-1,1l1,-1h1l1,-1h2l1,-1h3v-1h4ZM403,15v1v-1h1v1h1h-1v1h1h-3l-1,1h-4v-1l-1,1v-1h-1v1v-1h3l1,-1h2v-1h3ZM515,95h1h-1l1,1h-1h2l2,-1h-1v-1h1v-1h1v1h2v1h1h-1l-1,1h-1l-1,1h-5l-1,-1v-2h1v-1l3,-3h2v3h-1h1l-1,1h-1l-1,1ZM478,99h-2v-2h1h-2v-1h-1v-1h1h-1l1,-1v-5h-1l-1,-1h-2l-1,1h-2v-1h-2l-2,2h-1l-2,2v1h-1v1l-1,1v1h-1v1h-1l-2,2h-3l-1,1h-5l-3,1h-10l2,-1l1,-1h2l1,-1h1v-1h1v-1l1,-1h1l2,-1h1l1,-1h1l1,-1h4l1,-1h2l3,-1l1,-1h1l2,-2l2,-1l1,-1h1l2,-1l1,-1h1l1,-1h1l2,-1h2l6,-2h11l2,1v1h-1h1v1l-1,1h-2v1h-2l-1,1h-1l-2,-1h-4l-1,1h5l1,1h5l-1,1v1l-1,1h-1h2v2h1v1l1,1h-1h1v1h4l-1,1h3l1,1h4v1h2v-1h1l2,-1v1l1,1h1l1,-1v1h1v1h2l-1,1h-4v1h-3l-1,1h-4l-1,1h-2v1h-2v-1h-1v1l-1,-1l-1,1h1l-1,1h-1l-2,2l-2,1h-1v1h-3v-1l-1,-1l-1,1v-4l2,-1h-1l-1,1l1,-1h2l1,-1h-1v1v-1l5,-2h3v-1v1h1v1v-1h1l2,-1h-7v-1h2l1,-1h-1v-1h-1l1,1l-1,1h-4l-1,1l-2,1h-1l-1,-1h1h-1v1h-2l-1,1h-2v-1ZM544,69h-1v1h-1v1h1h-1v1h-1v1l-1,1h-1v1h-1v2h1l1,-1h1v-1h1v1h-1h4l-1,1h-1v1h-1h4v1h1v-1v2l1,-1h2v-1h1v1h6v1h-1v1h-1l-1,1h3l-1,1h-1v1v-1h5v-1v1h1h-1v1h-2v1h-1h1v1h-1v1h2l2,-2h1l-1,1v2h1l1,-1h1v1l-1,2v2h-4v-2h-1v1h-2v-1l1,-1v-1l-1,-1v-1h-1l-1,1v1h-3l-1,1v1l-1,1h-3l-1,-1h2l2,-2h1l1,-1h-3v1h-4l1,-1v-1h-2v1h-12v-1l-1,1h-5v-2l2,-1l1,-1h1l1,-1h-4l1,-1v1h1v-1h1v-1h2v-1h1h-2v-1h3l-1,-1l2,-4h1v-1h1v-1h1v-1l1,-1h5ZM436,11h2l1,-1h2v1v-1h2v-1h-1h3v-1h1h-1l1,-1v1h2l-2,-1h5v-1h6v1l-1,1h-1h1h-2v1v-1h7v-1h9l-2,1h-1h2v1h-1h1l1,-1h2l-1,1l1,-1l1,1v-1h5v1h1h-5v1l1,-1h4v1h-1l-1,1l1,-1h2l1,-1h3v1h1h-3l-1,1h2v-1h2v1h-1h2v-1h2l1,1h-5l-1,1h1h3v1h-1v1l1,-1v1h3v1v-1h1v1h-1h1l1,-1v1h3v-1h1v1h-1h4l-1,1h1h-1h3v1h-1h8v1h-2v-1h-1v1h1h-2l1,1h1h-2l-1,1h-2l-1,-1l1,1h-1h1v1h-1v1h-1v-1h-2v-1v1h-2l-1,-1h-1l1,-1h2v-1h1h-1l-1,1h-5v-1h-5l1,1h1h-3v1h1h-1h3l-1,1h2v1h6l-1,1h1h-1v1h3v1h1h-1v1l-1,-1h-1v1h1v1h1h-2v1h-1v-1h-5v-1v1h-1v-1h-2l-1,-1h-1h1v1h-1l-1,-1h-2v1h2l1,1h1h1l1,1h2l1,1h1v1h-5v-1h-7l-1,-1h-4l-1,-1h-4v-1h-1h2v-1h-4v-1h-2v-1h1h-5v-1v1h-1h1h-4l-1,1h-8v-1h1v-1h3v-1h5l1,1v1v-1h1h-1v-1h8v-1h-1l-1,-1h2l1,-1h3v-1h2l1,-1h-1v-1h-1v-1h-4v-1h-1h1h-3l-2,1h-1v-1h4v-1h-5v-1h1h-3v-1l-1,1h-1h1v1h-26v-1h1v-1h2l1,-1h-1h3l1,-1h2l1,-1h4l2,-1h4l-1,1h-3l-2,1h-1l-1,1h-1l1,1h1h-3l-1,1h-1Z"/>
<path class="sl" d="M510,80h-2l-2,-1h-3l-3,-1l-1,-1h-1l-3,-1h8l1,1h1l3,1h1l1,1h1ZM499,92h3l1,1h1l1,-1h4v1h-1l-2,1v1h1h-3v-1h-1h1h-1v-1h1h-1l-1,1h-2l-1,-1h-2v-1h-2v-1h1v-1l1,-1v1h1l-1,1l1,1ZM428,29h-1v1h-2l-3,1h-2v-1h1l2,-1h4ZM436,30h1v1h-2v1h-3v-1h1v-1h2ZM461,14l2,1h-1v1h-1l-2,1h-4v-1l1,-1h4v-1ZM461,6h7v1h-9v-1h-1h2ZM411,65h-3l-2,-1h-1h1v-1h4v1h1ZM427,51h-1h1v-1h1ZM426,50v1h-1v1h-1l1,-1l-1,1h-2l1,-1l-1,1h-1l1,-1h1l1,-1h1h-1v1h-1h1v-1h1v-1h1v1h1ZM421,51l1,-1h1ZM451,3h-1h2ZM427,6h-1h1v-1h1ZM450,2v1h-1Z"/>
<path class="sp" d="M448,3h1l1,-1"/>
<path class="sl" d="M402,11h1h-1h1l1,-1h2v1h-3ZM425,6h-1v1h-2l1,-1h1ZM425,6h1h-2ZM398,10l-1,1h1l1,-1h1h-1ZM232,81h1ZM215,93h1ZM230,83l-1,1h-1h1v-1ZM226,87h-1l2,-2v1h-1ZM234,80l1,-1h1l1,-1l-1,1h-1ZM227,87l-2,1l-1,1l1,-1h-1h1l1,-1h1v-1h1ZM211,103v1h-1ZM217,101v-1h1ZM211,102h1v-1v1ZM218,99h-1h1l1,-1v-1h1h-1v1h-1ZM223,89v1v-1h1v-1h1l-1,1ZM219,94l1,-1ZM224,89v1v-1h1l1,-1h1h-1l-1,1ZM226,87v-1ZM227,87h-1h1v-1h1ZM215,104v1v-1h1ZM524,106h-1l1,-1ZM516,97h-1ZM510,88h1l-1,1h-1l1,-1v-1h1v1ZM494,85v1h-1h1ZM495,85h-1ZM483,104v-1h1ZM480,102h-1l1,-1ZM439,98h-1l2,-1ZM438,98h-1l1,-1h1ZM456,91h-1l1,-1h1ZM544,72v1v-1h1ZM551,78h-1ZM553,77h1v1h-2v-1ZM555,88h-1h1v-1ZM495,28h2l-1,1h-1v-1h-1ZM480,35h-1h1v-1h2v1h-1ZM473,28h-3v-1l1,1h1ZM495,32h-1v-1h-1h2ZM494,30h1v1h-1l-1,-1ZM475,39v1h-1v-1ZM496,35h-1v-1ZM513,50h-1ZM509,44v1h-2v-1h1ZM487,12h-1v-1h1ZM503,17h-1h1v-1h1ZM468,3h-1ZM423,49v-1ZM424,49h1ZM416,63h-1v-1h1ZM416,68h1ZM216,104v-1ZM218,99v-1h1ZM467,15h-1h2ZM445,27h1h-2v1v-1h-1v-1h2ZM437,5h-1h2ZM427,39l1,-1ZM429,38h-1ZM420,9h-1h2ZM426,7h-1ZM421,8h-1v1h-1v-1h3ZM421,14l-1,1v-1ZM420,15h-1ZM458,28h-1ZM464,14h-1ZM437,35h-1h2v-1v1ZM451,15h-1ZM449,27h-1v-1h-1h2ZM453,12h-2v1h-1v-1h-1h3ZM457,12h-1ZM447,25h-1ZM433,20h-1ZM451,14l1,-1h1v1h-1ZM459,13h-1v-1h2v1ZM433,12v1h-2l1,-1ZM429,21h2v1h-2v-1h-1h2ZM426,17h-1h1v-1h1v1ZM426,22h-1v-1h1ZM384,35v-1ZM429,6l1,-1h1h-1ZM435,4h-1h2ZM434,5h-1h1v-1h1ZM449,4h-1h2ZM433,6h-1ZM430,7h-1ZM412,8h-1h2ZM416,8h-1h3v-1v1h-1ZM392,18h-1h2ZM394,17l-1,1v-1ZM400,14v1v-1h1ZM408,15h-1v1h-1h1v-1l-1,1v-1h1ZM393,17h-1h2ZM387,19h-1h1l1,-1v1ZM379,20h1ZM366,24h-1l1,-1h1h-1ZM366,23h1ZM363,25h1ZM366,23v-1ZM620,433h8l1,1h2v1l-1,1v2l-1,-1l1,2h-1v1l-2,2v2h-1l-1,1v-1h-1v1h-2l-1,-1v2h-2v1l-1,-1h-4l-1,1v-1h-1v-2l-1,-1v-2h1v-1h-1v-6l2,-2h2ZM653,633h-1l-1,1v-1h1v-1v1ZM616,659l-1,-1l1,-1h1l-1,1ZM644,639h-2l1,-1h1ZM663,459h-1l1,-1h-1l1,-1ZM704,550v-1h1v-1h1v1ZM703,553h-1v-1h1ZM660,444v1h-1v-1v1v-1ZM620,429l-1,2h-5v-1l1,-1h3ZM615,414l-1,1h-1v-2l1,-1v1ZM612,432l-3,2v-1h-1l2,-2h2ZM622,432h-3l1,-1h3v1ZM614,430v1l-2,-1v-1h1v-1l1,-1v2Z"/>
<path class="sl" d="M616,428h-1v-2h2v1ZM602,443h-1l1,-2l1,-1v-2l1,-2h1l2,-1v2l-1,3l-1,1l-2,1ZM615,670v-2l1,-1v1ZM304,286h-1h1v-2h1v1ZM304,290l-1,1v-1h1v-1ZM535,319h-2v-2h1l1,1ZM389,234l-1,1h1v-1l1,1v2l-1,1h-1v-1l-1,-1v-1l-1,-1h2ZM394,222l-1,-1v-1h1v-3l-2,-2h-1h2v1h1v1h2v2h-1l-1,2ZM423,256l-1,2h-4v-1h1v-1h3l1,-1h1ZM389,231v2h-2v1h-1v-1h-1v-1v1l-1,-1h-1l1,-1v1l1,-1l1,-2v-2l1,1v1h1v1ZM385,216h4v1h-4l-2,1h-1l-1,-1h3v-1ZM392,228l-1,1v-1h-1h3ZM416,245h-2v-1h1ZM414,235h-1v-1h1ZM415,248l-1,1v-1h1l2,-2v-1l1,-1l-1,1l1,1l-2,1ZM398,225l1,1h1l1,1h1l-1,2v2l-1,-1l1,-1v-2h-1v-1h-1l-1,-1h-1v-1ZM404,239v1l-1,-1h-1l-1,-1h1l1,1ZM410,243v1l-1,-2h-2v-1h1v-1l-1,-1v-1v1h1v3h1ZM407,234h-1v-1l-1,-1v-1h-1v-1h1l1,2ZM424,247h2v1l-1,-1h-2v-1ZM424,254h-1v-1h1ZM474,864v-10l-1,-1v-2h1l1,1v1h1h-1l-1,1l1,1h1l1,1v1h1l1,1h1l2,2h1l2,2h3l1,1h3v1h-4v1h-3l-2,-1h-8ZM495,863h4l-1,1h-4v-1ZM511,758h-1v-1h1ZM515,287v1l-1,-1l1,-1v1h1ZM515,283h-1v-1h1ZM575,898h2v1l-1,-1h-2ZM418,939v-1h-1h1ZM422,994h1h-1h2l2,1h7l1,1h6l3,1h-1h12v-1h-1h2v-1h1h-1l1,-1h2l-1,-1h-2l-2,1h-10l-1,-1h2l-1,-1h-4l-1,-1h-4l-2,-1h-9v-1h-1l-1,-1h-2v-1h-5v-1h-14l-1,-1h-6l-1,-1h-3v-1h-1h6l-1,-1h-3v-1h-1h1v-1h-4v-1h-3l1,1h-2v-1h1h-1l-1,-1h-2v-1h-1l-1,-1h1v-1h-1l-1,-1v-1h1l-2,-1v-1l1,1h1v-1h3l1,-1v-1h3l1,-1h3l2,-1v-1h2l1,-1h2l-1,-1h-2v-1h3l1,1h1v1v-1l2,2h2l1,-1h-1v-1h-2v-1h2l1,1h1l1,1v1h10l1,-1h2l1,-1h3l2,1h2l1,-1h1h-1l-1,-1h-3l-1,-1h-4l-1,-1h-1l-1,-1h-2l-1,-1h7v-1h-10l-2,-1h-1h1l-1,-1h2l1,1h6l3,-1l1,1h6v-1l1,1l1,-1l1,1v-1h8v-1h-1h1v-1h1l1,-1l1,1h1v1h3l1,1h1l1,-1h1l1,1h7l2,1l1,-1v-1h-1v-1h1l2,1h-1v-1h-1v-1h1l1,1h1l2,1h6l-1,1h4v-1h1l1,1l1,-1v1h1l2,-1l1,-1h6l2,-1h1l2,-1l2,-2v-2h-1l-1,-1v-2l-2,-2v-1l-2,-2v-1h-1h1v-1h4v-1l-1,-1h1v-2l1,-1h-2v-1h1v-1l1,-1h-3v-2h1l1,1h1v-3h3v-1h-1l1,-1h1v-1h2v-1h2v-1h1h-1v-1l1,-1h3v-1h2v-1h3l1,-1h1v-1h1v-1l3,-1h3l1,-1h2l2,-1h1l2,-1h1l1,1v1h-1v-1h-1v1h-2l-2,1l-1,1h-1v1h-1h1v2l-1,-1h-2v1h-1v-1l-2,1h-1l-2,2h-2v1h-2v1h1l-1,1v2h3v-1h3l-1,1h-1v1v-1h-2v1h-1l-1,-1h-2v2h1v1h-1v-1l-1,-1h-1l-1,-1l-1,1h1h-1v1h-1l1,1v1h-1l-1,-1h-1v2h-1h1h-2l-1,1h1v1h-1v1h1v1h-1h3l-2,1h1v1h1l1,1h1v-1h1v-1h2v1h-2l1,1h1h-1v1h1v1h1l1,1v1l1,1h1v1h-2l1,1h2l-1,1h-1l1,1v-1h1l1,1v1l-1,1h-1l-1,1h1l1,-1h1v1h-3v1h4v1h-1v1h-1l1,1v-1h1v2l1,-1v2h-1v-1l-1,1h-1l-1,-1h-1v1h1l1,1h1l-1,1h-1h1v1h-1h2l-1,1h-3l1,1l-1,1l-1,-1h-2v1h-1h1h-1l-1,1h2l-1,1h-2l-1,1h-2l-2,1h-4l-2,2h-7l-3,-1h-1l-2,1l1,1l2,1h7v1h-1v1h-11l-1,-1h-1l-1,1h-1h5l3,1h1v1h-7l-2,-1h-2l-1,-1v1h1v1h1l1,1h4l1,1h9l-1,1h-1v1h3l1,1h1v1h1l1,-1l1,1h1v-1h3v1h3l3,1h4v1l-1,-1h-1l-1,1h-1h2h-2v1h4v1h1v2h2l2,-1v-1h3v-1h6l1,-1h3v1h1v1h-1h4l1,-1l2,-1h2l1,-1h8l1,-1h19l-1,-1l-6,-1l1,-1h1h-4l-2,-1h-1v-1l1,-1l3,-1h2l1,-1h2l1,-1h4l3,-1h2l3,-1h7l4,-1h3l1,1h2v-1h2l1,1l1,-1l1,1v-1h1l1,-1h2l1,-1l3,-1h2v1h2l1,-1h2l1,-1h-2v-1h2l1,-1h5l1,-1h7l1,-1l2,-1h2l-1,-1l1,-1h2v1h1l1,-1h2v-1h1v1l-2,2h2l2,-1l1,-1h1l1,-1h1v1h2l-1,1h-3v1h3v1h2l1,1l1,-1v1h-1l-1,1h1l2,-1h4l1,-1h6l1,1h3l1,-1v1h3l-1,1h-1l-1,1h3l1,-1h2l-1,1h1v1l2,-1v1h-2v1h2l-1,1h-2l-1,1h-1h3l1,-1h2l-1,1h-2v1h-1h2l2,-1h-1v1h-2l-1,1h-1v1h-1h5l1,-1v1h3l1,-1h1l1,-1h2l2,-1l1,-1h1v1h-2l-1,1h-1l-3,1l-1,1h-1l-2,2h-2l-1,1l1,-1h3l1,-1l2,-1h3l1,-1h3v-1h1h-1l-1,1h-2l-1,1h-1l-1,1h-1l-1,1h-2l-1,1h-2l-1,1h-2l-1,1h-2l-1,1h-2l-1,1h-2l-1,1h-2l-1,1h-2l-1,1h-3l-1,1h-2l-1,1h-3l-1,1h-2l-1,1h-3l-1,1h-3l-1,1h-2l-1,1h-3l-1,1h-4l-1,1h-3l-1,1h-3l-1,1h-4l-1,1h-4l-1,1h-4l-1,1h-4l-1,1h-5l-1,1h-6l-1,1h-5l-1,1h-7l-1,1h-9l-1,1h-10l-1,1h-15l-1,1h-43l-1,-1h-16l-1,-1h-10l-1,-1h-8l-1,-1h-8l-1,-1h-6l-1,-1h-2Z"/>
<path class="sp" d="M681,966h-1l-1,1h-2l-1,1h-1l-1,1h-1l-1,1h-2l-1,1h-2l-1,1h-2l-1,1h-2l-1,1h-2l-1,1h-2l-1,1h-2l-1,1h-2l-1,1h-3l-1,1h-2l-1,1h-3l-1,1h-2l-1,1h-3l-1,1h-3l-1,1h-2l-1,1h-3l-1,1h-4l-1,1h-3l-1,1h-3l-1,1h-4l-1,1h-4l-1,1h-4l-1,1h-4l-1,1h-5l-1,1h-6l-1,1h-5l-1,1h-7l-1,1h-9l-1,1h-10l-1,1h-15l-1,1h-43l-1,-1h-16l-1,-1h-10l-1,-1h-8l-1,-1h-8l-1,-1h-6l-1,-1h-3"/>
<path class="sl" d="M531,973h2v1h-1v1h-1v1l-12,1v1h-6v-1h1v-1h3l1,-1h1l1,-1h1v-1h1v-1h1v-1h2l1,-1h3v-1h1l1,1h3v2h-4ZM506,976l-2,2h-2l-1,-1h-3l-2,-1h-1h8v-1h1h-1h1l1,-1l1,1ZM480,938h1l1,1v1l1,1h1l1,2h1v2h1v5h-1l-1,1h-2l-1,1l-1,-1h-2l-2,1v-1h-2v-1h3l2,-1l-1,-1h-3l-1,1h-2v1h-2v-1l-1,1v-1h-2v-1h2v-1h2l1,1v-1h-1h4l-1,-1h-1l1,-1l2,1h1v-1h3l1,1v-1h-1v-1h-3v-1h2l1,-1v1h1l-1,-1h-3l-2,-1h-1v-2l-2,-2h1l1,-1h4v1h1ZM412,952v1h1v-1l1,1h1l-1,-1h3l-1,1h2v-1l2,2h-1h-1v1h-1v-1h-1v1h-4l-1,-1h-7l3,-1h3v-1h1ZM383,964l1,1h1v1h1l-1,1h-2v-1h-1l-2,-1h-1h2l1,-1ZM372,965h4v1h5l1,1h-5l-1,-1h-4v-1h-1ZM412,988v1h-5v-1h4ZM415,993h-1l-1,-1h1v1h2Z"/>
<path class="sp" d="M417,993h-2"/>
<path class="sl" d="M548,977v-1h1h-1l1,1h-3l1,-1h1ZM546,975h-4l1,-1h1ZM489,974h-2v-1l1,-1h2l3,-1l1,-1v1h-1l-3,3ZM522,914h2v1h-1l1,1h-2v-1l-1,1h-1v-1h1v-1h-1v1v-1l1,-1h1ZM532,910h1v1h-5v-1h3ZM523,903v1h1h-2v1h-3l1,-1h2ZM501,916v1h1v-1l1,1h-3v1h-2v-1h-1h1l1,-1h1v-1h1ZM505,916h-2l1,-1v-1h2v1h-1ZM485,930v1l-1,-1v1h-2l-1,-1h1v-1h1v-2h1l1,-1h1v1h-1v1h1v1h-1v1h-1ZM471,944l-1,1h-2l-3,1h-1v-1h-1h4v-1h1l1,1v-1h1ZM466,940l1,1h1h-1v1h-3v-1h1v-1ZM473,953v1h-1h1v1l-4,-1v-1h1h-1l1,-1l2,1ZM433,956h-1v-1h-1l-1,-1v-1h1l1,1h1v1ZM420,994h1h-1v-1h-1h1ZM668,966h-1h2l1,-1h1h-1v1h-1ZM641,954h-1ZM645,955h-1h1l1,-1h1v1h-1ZM496,975h-1l-2,-1h3l1,1ZM494,974h-2v-1h2ZM535,900h-1v-1l3,1h-1ZM530,912h-1l-1,-1h2ZM524,917h-1v-1h2ZM530,910h-2l-1,-1h3ZM524,913h1h-2ZM505,940h-1v-1l-1,-1v-1h1v1h1v1ZM512,907h3l-2,1v-1h-2v-1ZM475,940h-3l-1,-1h2ZM422,954v1v-1h1ZM405,958h-2ZM387,965h-1l-2,-1h2v1ZM381,969h-2l-1,-1h2ZM441,993h-1ZM427,991h-1ZM668,961v-1h2ZM652,958v-1h1ZM640,957h1ZM653,956h-1l1,-1h1ZM644,956v1h-2v-1h1v-1ZM655,958v-1h1ZM595,961l-2,1l-1,1h-1l1,-1h-1v-1h3l1,-1h1v1ZM610,958h-1h1v-1h1v1ZM619,958v-1h1h-1ZM546,976h1ZM540,901h-1v-1h1ZM519,905l-1,1v-1ZM507,941h-1l1,-1ZM509,936h-1v-1h1ZM508,944v-1h1v1ZM509,945h-1ZM517,906h-1ZM512,909h-1v-1h1ZM511,913h-1h1v-1h1ZM506,914h1ZM501,918h-1h1v-1ZM504,909v-1h1v1ZM492,923h-1v-2h2l-1,1ZM489,924v1h-1ZM487,928h-1v-1h1ZM488,931l-1,1l-1,-1h1ZM476,942h1v1h-1ZM474,954v-1h1v1ZM426,955h-1ZM391,965h-2v-1h2ZM375,970h-1ZM377,970h-2v-1l1,1v-1v1ZM385,980h-1ZM378,977h-1ZM388,980h-1ZM388,981h-1ZM385,981l1,-1v1h1h-1ZM391,982h-1ZM386,981h-1ZM382,979h-2l1,-1ZM385,980h1h-2v-1h1ZM391,982h-1ZM413,988h-1ZM389,981l-1,1v-1h-1h1ZM432,991h-1ZM504,279h1v1Z"/>
<path class="sw" d="M850,144h-1Z"/>
<path class="sh" d="M451,582v-1h-1v-1l-1,-1h1l2,-2v-1l1,-1h1v-2l1,-1h1v-1h-3v-1l-2,-4v-1l1,-2l1,-1l-2,-2v-2h1v-2h1v-1h1v-2h1v-2h-1v-2h-1l1,-1v-7l1,-1h1v-2l-1,-2l-1,-1l-2,-4l-1,-1l-1,-2v-1l-1,-2h6v1h3l1,-1h1l1,-2l1,-1h3l3,-3h2l4,-4h3l3,-1h2v1l1,-1h2v4l-1,2v2l1,2v2l-1,1h1v2l1,1v2l1,-1v1l1,1v1h2v1h1l3,3h6l2,2h1v-1h1v1l2,2h1l2,1h1l1,1h1l3,3h7l2,1l1,1h1v1l1,1v1h-1v1l1,1v2h1v5h-2l1,2l1,1v7h16v2l-2,2l1,1v4h2l1,2h2v1l2,4v1l-2,4v3h-1v1l-2,4v2l2,1h-1l-1,1h-1v-3l-4,-2l-3,-2h-8l-3,1h-4l-2,1h-3l-2,1l-1,1v2l-1,1l-2,4v2l-1,2v3l-2,5v1l-1,1v-1l-1,-1h-9l-2,3v1l-1,1v2l-1,-1v-2l-1,-1v-1l-1,-1h-9l-3,-3h-1v2l-1,1h-1l-1,1h-1v1l-2,1v1l-1,1v1h-6v-5l-1,-2l-1,-1v-2l-1,-2v-1l-1,-1l-1,-2h-1v-2l1,-1l-2,-1v-3l1,-1v-1l-1,-1l1,-2l1,-1h-1v-1h-1l-3,-3v-4l-1,-1v-3h-1l-1,-1v-1l-1,-1Z"/>
<path class="sw" d="M376,118v1h4v-1h2l1,-1h1l1,-1l2,-1h7v-1h3l1,-1h5l-1,-1h1h-1h1v2h-1l-1,1h-1l-1,1l-4,2h-2l-4,1l-4,2h-1l-1,1h-6v-1l-1,1h-1v-1h-2l1,-1h1v-1ZM403,113v-1ZM378,120v1ZM977,374v1h-1v-2h1ZM329,79h-1l1,1h-1v-1h-1v1l-1,1h-1v-1h1v-1l2,-2h1l1,-1h-1l-1,1h-1h1l2,-2h-2v1h-1h1v-1l1,-1h-1l1,-1h-2v1h-1v-2l-1,-1l1,-1h2v-1h-1v1h-1l-1,-1h1l1,-1h1v-1h1v-1h4v1v-1h-1l2,-2h1v-1l1,1h-1h1h-2l-1,1v1l1,-1h1h-1v1h-1v3h-1v3h-1v4h-1h1v1h-1l-1,1ZM327,73l1,-1h-1ZM329,77h-1v1h-1h1ZM337,37l-2,1h1v-1h-2l-1,1h-3v1l1,-1h1l-1,1h-2l-1,1h-2v1v-1v1h-2l-1,1h-2l-2,1h-2v1h-2v1h-3l-1,1h-3v1h-2l1,-1h-1l-1,1v-1h1h-1h2l1,-1h3v-1h2v-1h4v-1h1h-1l1,-1h1h-1v-1h1v1h1h-1h1v1l1,-1h3l1,-1h2l1,-1h2v-1h2l1,-1h3ZM326,41v-1h-1v1h-2l-1,1h-2v1l1,-1h2l1,-1h1ZM424,104h1h-1l-3,1v1h1h-1h1v1h-1v2h-3v1h-2v1l-1,-1h-1l-1,1h-1l-1,-1h-6l-2,1h-5l1,-1h1v-1h2l1,-1h3l1,-1h9l1,-1h-1h1h-1h1h-1h2l1,-1h2l2,-1ZM419,106v-1l-1,1ZM421,106v1ZM421,105h1h-2v1h1ZM338,30h1h-3v1h-2l-1,1l1,-1l-1,1h-3l-1,1h-1l-1,1h-2l-2,1h-1l-1,1h-1h1v-1h1l3,-1h1l1,-1l-1,1h-3v1h-2v1h-2l1,-1h2v-1h3v-1h2l1,-1h1h-2l-1,1h-3v1h-1l1,-1h2l2,-1h2l1,-1h2v-1h4l1,-1h1l-2,1h-2l-1,1h-1h2l1,-1h3v-1h1ZM376,118l1,-1h1v-1h1v-1h1v1h1v1h-4v1ZM754,69v1h1h-1v-1v1v-1v1v-1h-1v-1h-2v-1h-1h1v1v-1h-1l1,1h1l1,1Z"/>
<path class="sr" d="M750,67l1,1h1l1,1h1"/>
<path class="sw" d="M369,216l-1,1h-1v-1h-1v-1h1l1,-1h1v1ZM322,339l1,1h-6v-1h-2v-2h-1v-5h2l2,2h1l3,3v1ZM451,571v-1h-1h1v-1h-1l-1,-1h-1v-1h-1v1h1h-2v-2h2l-1,-1v-1h-1l1,-1h1v-1h1v1h1l4,4v1h2v1h-1l2,2h1h-1v1h-2v1h1v1h-1v-1h-1v-2h1v-1h-1v-1v1l-1,1h-1ZM325,69l-1,1v-1l-1,1h-2v-1h-1h1v-1h2v-1h1h-1v-1h2v-1h1v1h-1v1h-1h1l1,-1h1h-1v1h-2l-1,1v1h1ZM218,140h-1v1h-1l-1,1v-1h-1h1v-3l1,-1h1v-1v2h1v-1v1h1v-1v1h-1v1ZM216,141l1,-1h-1ZM374,99h-1v1h-1l-1,1h1h-1l-1,1h-1v1l-1,1h-1v1v-2h1v-1v1h-1l-1,1h-2v1h-1v1l-3,3v1l-1,1v5l-2,2v1h-1l-3,3h-2l-1,1h-1v-1h-1v-3l1,-1v-1l1,-1h-1l1,-1h-1h1v-2h1v-1h1v-2h1v-1h1l1,-1v-1l1,-1h1v-1h-2l-2,2v-1l1,-1h1l1,-1v-1h1l1,-1h1l1,-1v-1h1l1,-1v1h-1h2v-1h1v1h-1v1v-1h2v-1h3l1,-1h4ZM370,100v-1l-1,1ZM365,103h1ZM361,102h-1ZM360,102v1h-2v1h-1v1h1v-1h1v-1h1ZM377,95h1h-1v1h-3v-1h1v-1h-2l-1,1h-4l-1,1h-6v-1h-1l-1,-1h-1l-1,1h-1v-2l-1,1h-2l-1,1h-3l-1,1h-1l-1,1h-3v-1h1v-1h-1l-1,1h-2v1h-4l1,-1l3,-1l1,-1l4,-2h2l2,-1h2l1,-1h1l1,-1h1v-1h1v-1h1l2,-1v1h-1v1v-1h2v-1h1v-1h1v1h-1l-1,1h1v-1h2v-2h2l1,1h6v3h1l1,1h1l1,-1h2v1h-1v2h1v1h-1v1h2l-1,1h-1h1v1h-1v1ZM344,96h1h-2ZM364,85h-1v1l1,-1h1ZM357,90l1,-1h1v-1l-1,1l-3,1h1ZM361,92h-3l-1,1h-1v1h1v-1v1l1,-1l2,-1ZM365,85h1ZM374,90v-1h-2v1h1ZM378,95h1v1h3l3,1l1,-1l1,1l2,-1v1h8v1h1v1h1v1h1v2h1v1h1h-3v2h-1l-1,-1h-3v-1h-1h1v-1l-1,1v-2h-2v1h1v2l-1,1h-1v1h-1v1h-1v1l-1,2v1h-1v1h-1l-1,1h-2v-5h-3l-2,2h-3l1,-1v-1h2l3,-3v-2h1v-2h-3v-1h-3l-1,-1l1,-1h4v-1h-1v-1ZM382,98h-1h2ZM381,98v-1l-1,1h-1h3ZM380,97v-1h-1v1ZM378,96l1,1v-1ZM379,96v-1h-1v1ZM376,99h-1ZM384,98v1h5v1l2,-1h-1l-1,1h1l2,-2h-1v1v-2h-1v1h-2v-1v1h-5ZM391,100h-1ZM399,103h-1ZM248,235v1l-1,1l-2,5l-1,1l-1,3v-1l1,-1v-3h1v-2l1,-1v-2l1,-1h1v-1ZM334,50h-1v1h-2l-2,2v-1h1h-1v-1h2v-1h2v-1h1ZM316,50l-2,1h-3v1h-1h1h-2v1h-1l1,-1h-1v1h-1h1v-1h1h-1h2l2,-1l1,-1h2l1,-1h1l1,-1h2l-1,1l1,-1h2v1h-2l-2,1h-1ZM449,71h-1l-1,1h-1h1v-1h1h-2l-3,3v1l-1,1h-1l1,-1h1v-1h-1l2,-2h-1h1h-1h1l1,-1l2,-1h1v1l2,-1ZM785,92l1,1h-1l-1,-1h-1v-1h-1v-1h-1v-1h-1h1l1,1h1v1h1v1ZM785,92h-1h1v1h1h-1ZM335,85h-1v-1h-2v1h-1h2v1h1h-2l-1,1h-3v-1h2v-1h1l1,-1h1h-2l-1,1v-1h2v-1h2v-1v1h1h-1v1h1ZM331,86h1Z"/>
<path class="sw" d="M367,80h-1v1h-1v1h-3l1,-1h-1v1h-1v-1h1h-1h1v-1h1v-1h1v-1h1l1,1v-1l1,1h-1v1v-1h1ZM364,79v1h-1l1,1v-1ZM364,81h-1ZM336,51h1h-1v1h-2l-1,1h-1h1v1h-2v1h-2v1h-2v1h-3v1v-1l-1,1v-1h2v-1h1h-1v1l1,-1h2v-1h1h-1l2,-2h1v-1h2l1,-1h1l1,-1v1h-1h1h-1ZM423,111h-2v-1h1ZM177,158h-1v-1h1l1,-1l-1,1ZM350,110h-1v1h-1v-1l1,-1h1ZM473,18l1,-1h2l1,1v-1v1h2v1h-6l1,-1ZM360,33h2v-1h2v1h-2v1h-2v1h-1v-1h1h-1v1v-1h-1h1v-1ZM388,28h1h-3l-1,1h-2v-1h4ZM439,105v2h-1v-1l1,-1v-3l1,-1v-1v1h1v-1h1l-1,1v1l-1,1v1ZM170,192l-1,1v-2h1ZM318,39v1h-1v-1h-1h2l1,-1v1h-1h1h-1h1ZM439,774h-1v-1l1,-1h1l1,1h-1ZM451,83h-1v-1h3v1h-1ZM414,114v1h-1ZM415,115v-1ZM417,115v-1l-1,-1v-1h1v2ZM957,385v2l-1,-1v-2ZM319,54h-1v1h-3v1h-1l1,-1h1l1,-1h1ZM366,33h1l1,-1v1h-2v1h-1v-1ZM344,43l1,-1h1h-1h1l1,-1v1h-1v1h-1v1h-1l1,-1ZM305,196h-1v1v-1l1,-1ZM449,51h-2l-1,-1h4ZM400,95l1,1v-1h1h-1h4v1h-5ZM437,50h1l1,-1v1h1l-1,1h-1ZM510,692l-1,1h-2l-1,1v-1h-1v-1h-1l1,-1h2v-1l2,1h1ZM436,60h1v-1h3l1,1l2,-1h-1v1h-2h1v1v-1h-3v1h-2v-1h1ZM436,60h-2v1h-6v-1h4l1,-1h-1h2v-1h2v1h-2v1h-1ZM434,277h-2v-1h2ZM306,48l-1,1h-1h1v-1ZM432,62l-1,1v-1h1v-1h1v1h-1h1ZM453,836h-4l-1,1h1v1h-1l-1,-1v-1h-1v1v-1h1v-1h-1v1v-2h1v1h6ZM331,45v1h-1v-1h2l1,-1v1h-1ZM489,0h-1h3Z"/>
<path class="sr" d="M490,0h1"/>
<path class="sw" d="M368,67h1v-1h2l-1,1h-1ZM825,125h-1l1,1l-2,-2h1v1ZM742,74h2v1h-1v-1ZM240,119h-1h1h-1h1v-1h1ZM241,102h1l-2,2v-1h1h-1h1ZM189,173v-1h-1l-1,1v-1h-1l-1,1v-1h2v-1h1v-1h1v-1l-1,1v1h-1v1h1l1,-1v1ZM305,53v1h-1v-1h1l1,-1l-1,1h1ZM502,57v1h-3v1h-1l-1,-1h-2v-1h-1v1h-1l-1,1h-1h1v1h1h-2v-2h-2l-1,-1h-1l-1,-1h-1h1v1h-1v-3h1v1l2,2h1l1,1h4l-1,-1h-1v-1h-1l1,-1v1l1,1h3v-1h1v1h1l1,1h2v-1ZM294,304v1h-1v1l-1,1h-2v-1h2v-1h1l1,-1h1ZM353,76h3v-1h2l-2,1h-2ZM437,83v1h-1l-1,-1v1h-1v-1h-1v1h-1v-1h2v-1h3v1h1l1,1h-1v-1ZM452,54h4v-1h1v1h-3l-1,1h-2v-1ZM575,389v2l-1,-1v1h-1v1v-1h-2l1,-1v-1l1,-1v-1h1v1h2v1ZM838,132h1Z"/>
<path class="sr" d="M838,132v0"/>
<path class="sw" d="M413,113l-1,1ZM418,113v-1ZM419,113l-1,-1h1ZM225,133v1h-1h1v-1h1ZM215,145h-1h1v-1l1,-1v1ZM326,32h1h-2ZM327,95l-1,1h-1v-1h1v1ZM352,85v1h-2v-1h1v1h1ZM428,91v1h-1v-1ZM442,766v1h-2v-1h1l1,-1ZM292,51h-1l1,-1h1h-1ZM451,833l-1,-1h-3v-1h3l1,1h1v1ZM995,498v-1h-1v-2h1v2ZM491,104h-1ZM485,95l-1,1v-1h1v-1h1v1ZM189,140l-1,1l1,-1v-1ZM183,152h-1v-1h1v-1v1ZM169,170v1h-1ZM348,25h1v-1h1h-1v1h-2v1h-1l1,-1ZM463,78v-1h-1v1h-3v-1v1h1l1,-1h1v-1v1h2v1l1,1h-1v-1ZM537,79h1h-1l-2,2h-1l-1,1h-1l1,-1h1l1,-1h1v-1ZM328,31h1v-1h1h-1v1ZM329,31h-1ZM327,34h1l1,-1v1h-2v1h-1v-1ZM367,63h3l-1,1h-1v-1ZM345,76h-1v-1h2v1ZM349,65h-3l1,-1h4l-1,1ZM464,62v2h-1v-1v1v-1h-1v-1h1ZM313,63h-1v1h-2v-1h4ZM327,100v1h-1v-1h1v-1ZM451,108h1h-2l1,-1ZM402,106v-1h-1h1v-1h1v-1v1h1v1h-1ZM354,60h1l-1,1h-3v1h-1l1,-1h1v-1h1ZM201,131v1v-1l1,-1v1ZM541,84h-1l1,-1ZM350,58h-2v1v-1h1ZM337,89v-1l1,1v-1h1h-3v-1h-1h1l1,-1v1l-1,1h1v-1v1h1v-1v1v-1h1l-1,1h2v1h-2ZM261,69h-2v1h-2v1h-1v1h-1v1h-1l1,-1h1v-2h1h-1h1v-1h1l1,-1l-2,2h2v-1h3ZM350,56h-1h1v-1h1h-1ZM272,99l-1,1v-1h1v-1h-1v1h-2v1v-1l-1,1v-1l-1,1h-2l-1,1h-1h1h-1v-1h1v1l1,-1h2v-1h3l1,-1h1l1,-1v1h-1ZM290,97h-1l1,-1h-1v-1h-2l-1,1h-1v-1v1h-1l1,-1h5l-1,1h1v-1h1v1h-1v1h4v-1v1h-3v1h-1ZM265,60l2,-2h1l1,-1l-1,1h-1v1h-1ZM235,98v-1h1v-1h1v-1v1l-1,1h-1ZM235,103h-2v1v-1h1l1,-1h-1h1ZM220,107v-2h1v1h-1ZM329,48h-1l-1,1h-1h1l1,-1l2,-1h1v1h-1ZM326,92h-1v-1h1ZM326,91h1ZM370,34v-1l-1,1v-1h3l1,-1v1h-1v1h-1h1h-3ZM474,23v-1h-2l-1,1h-2v-1h1h-1h2v-1h-1h1h-1h3l1,1h1h-1v1h1h-2ZM236,207l-1,1h-1v-1v1v-1h1ZM424,90h1v1h-1v-1h-1v-2h1h-1h1l1,1h-1ZM204,278h-4v-1h3v1ZM313,331l-1,1h-1v-1h-2v-1h1l1,-1l1,1v1l1,-1ZM574,643v1h-1v1h1h-2v1h1v1h-1l1,1h1h-2v1h-2v-1h1v-1h-1v-1h-1h2v-1h-1h2v-1h-1l1,-1h1l-1,-1h1v-4h1v3l-1,2ZM363,354l-1,1v-1h-1v1h-1l1,-1v-1h1v1ZM979,645h-1v1v-1h1h-1v1v-1v3h-1v3h-1v1v-1h1v-3l1,-1v-2h1h-1h1v-1Z"/>
<path class="sr" d="M979,644v1"/>
<path class="sw" d="M823,121l-2,-2v1h1ZM946,411v1h-1v1h-1v-1l-1,-1v-1h-1v-1v1v-1l1,1v-1v1h1v1h1l-1,-1h1v-3h-1h1v-1h-1v-2h-1h1v-1h-2v-1h1v-2l-1,-1v1v-1h-1v-1h-1h1l-1,-1v-2l-1,-1v-1h-1v1v-1h-1v-1v1h-1v-1h2v1v-1h1v2h1l-1,-1h1v3h1v2h1v-1v2h1v3h1v-5h-1v-1l1,1v5h1v8ZM945,411v-1ZM580,708v1h-1v1h-1v1v-1h-2v1l-1,1h-1v1l-1,1v1h-1v-3h1v-1h1l1,-1v-1h1v-1h1v-1h1l1,-1v-1h1v2ZM320,82h-2l-1,1v-1l1,-1v-2h1v-3h-1l-1,1l1,-1h2v1h-1h1v-1h1l-1,1v1h-1v1h-1h1l1,1v1ZM317,76l-1,1v-1h1v-1l-1,1v-1l1,-1h1v-1h1l1,-1v-1h-1v1h-1h1v-1h-1v1h-1v-2h5v1l-1,1v1h-1l-1,1h-1v1l-1,1l1,-1v1ZM474,69h1v1h-2v1h-1l-1,1h1v-1h-1l-1,-1h-1l1,-1v-1h-1h1v-1v1h3v-1h1l-1,1h2l-1,1h1ZM473,69h1l-1,-1h-2v1h-1v1h4ZM305,60h-1l2,-2v1l-1,1h1h-1v1h-1l-1,1h-1l-1,1h-1v1v-1h1v-1h-1h1v-1h1v1h-1h1l1,-1h2v-1h-1ZM455,811h-7l-2,2h-1v1v-1l1,-1h-1v-1h1v1h1l1,-1l2,-1h1l1,-1v1h2v1ZM193,267h-1ZM189,173v-1h-1l-1,1v-1h-1l-1,1v-1h2v-1h1v-1h1v-1l-1,1v1h-1v1h1l1,-1v1ZM212,158l-4,4v1h-2l-1,1h-1l-1,1l1,-1h1v-1h2v-1h1v-1h1v-1h1l1,-1ZM347,51v1h1h-2v1h-3l-1,1h-1l-1,1h-1l1,-1h1l1,-1v1l1,-1h1v-1h2v-1h2ZM690,515l1,1v1h-3v2h-2l-1,1v-1l-1,1h-1l-1,-1l-1,1h-1v2h1l1,1v1h-1v-1l-1,-1h-2v1l1,2v4h-1v-1l1,-1v-1l-1,-1h-1l-1,1v1l-1,1l-1,2v2h-1v-1h-1v-1l-1,1v-1l2,-2v-2l1,1h1v-1h-1v-1h2l-1,-1v-1h1v1h1v-1l-3,-3h2v1l1,1v-1h1v-1h1v-1l-1,-1h2v-1h1l1,1l1,-1l1,1h3v-2h1v-1h1v-2h1v1ZM674,529v-1l-1,1h-1h1v2h1v-1ZM406,83v-1h2v1h3v1h-1v-1h-1v1h-2v-1ZM272,99l-1,1v-1h1v-1h-1v1h-2v1v-1l-1,1v-1l-1,1h-2l-1,1h-1h1h-1v-1h1v1l1,-1h2v-1h3l1,-1h1l1,-1v1h-1ZM289,110h-1l-1,1h-1v2h-1v-1h1h-1v-1l-1,1h-1h1v-1h3l2,-2v-1h-1h2v-1h-1v-1h1v1v-1h1v-2l2,-2v-1v2h-1v1h-1v2l-1,1v2h-1ZM265,60l2,-2h1l1,-1l-1,1h-1v1h-1ZM235,98v-1h1v-1h1v-1v1l-1,1h-1ZM946,411v1h-1v1h-1v-1l-1,-1v-1h-1v-1v1v-1l1,1v-1v1h1v1h1l-1,-1h1v-3h-1h1v-1h-1v-2h-1h1v-1h-2v-1h1v-2l-1,-1v1v-1h-1v-1h-1h1l-1,-1v-2l-1,-1v-1h-1v1v-1h-1v-1v1h-1v-1h2v1v-1h1v2h1l-1,-1h1v3h1v2h1v-1v2h1v3h1v-5h-1v-1l1,1v5h1v8ZM945,411v-1ZM347,33h-4l-1,1v-1h4v-1h1v1h-1ZM347,33h1v-1h1v1h-1h1h-1ZM289,118v1h2l-1,1l-2,-2v-2h1v-1h1l-2,2v1ZM240,226v1h-1v-3l1,1ZM301,65v-1h1v-1h2v-1h1h-1l-2,2h-1Z"/>
<path class="sw" d="M341,42v1h-1v-1h1v-1v1h-1h1v-1h1l-1,1h1v-1h1l-1,1h-1h1ZM389,26h-1v1h-1v-1l-1,1v-1h2ZM470,58h1h-5l1,-1h1h-1h2v1ZM474,59h-1v1h-1h1v-1l-1,-1h-1h2v1ZM466,56v1h-1v-1v1l1,-1h2v-1h-1h1v1h1h-2ZM334,153v3h-1v1h-1l1,-1v-5ZM366,168v1h1v1h-2l2,-1h-1l-1,-1v1v-1ZM249,84h1h-1v1h-1l1,-1v-1h1v-1v2ZM364,199l1,-1v1ZM180,183h1v1ZM177,148v1h-1ZM339,31h1l1,-1v1h-1h2l-1,1l1,-1h-2l-1,1ZM187,138h-1v1l-1,1v-1h1h-1l1,-1ZM199,132h1v-1v1ZM475,96v1h1v-1v1h-2v-1ZM619,470v-1h-1v-1h1v-3l1,-1v2l1,1v1l1,1v2l1,1v1l-1,1l1,2l1,1h2v1h-2l-2,-2v-1l-1,-2v-1h-1v-1h-1h1v-1ZM651,596h-1v2l-1,-1h-1l-1,1v-1h2v-1h-1l1,-1v-1l-1,1v-1h1l-1,-1v1h-1v-1h1v-1h1v-1h-1h1v3h1v2l1,-1ZM599,608v-1h1v-1h1l1,-1v-4l1,1v2h1l1,-1h1l-1,1h-1l-2,2l1,1h-3v1h1v1h-1v-1ZM440,769h2l-1,1ZM469,803v1h1l-1,1h-1l-1,-1v-2l1,1ZM821,120v-1ZM271,55v1h-1h1v-1h1ZM332,164h3l1,1h1v1l-4,-2l-1,1ZM429,70h1l-1,1h-2l1,-1ZM353,75v1v-1h-1ZM353,72h1ZM418,72h-1ZM412,88v1l-1,-1h2ZM420,88h1v1h1h-2ZM350,31h1ZM350,31h-2v1l1,-1ZM347,32v-1h1ZM347,32v-1v1h-1ZM457,9l1,1h-2ZM386,17h1ZM390,21h-1ZM346,59h1ZM318,65l1,-1h1l-1,1ZM304,68l1,-1v-1v1h1h-1l-1,1h-1ZM462,60v1l-1,-1ZM514,64h1v1h1h-1l-1,-1h-1ZM340,33v-1h1h-1ZM386,86h-1h1l1,-1ZM307,62v-1h1ZM308,62h1ZM355,35v1h-1l1,-1h1ZM346,40v-1h2l1,-1l-1,1h-1ZM332,49h1h-1v1ZM473,48v1l2,1l-2,-1ZM415,20l-1,1v-1ZM417,20h1h-2Z"/>
<path class="sb" d="M831,169l-3,-3v-2h1h-1v-1l-3,-2v-1l-1,-1h1l-1,-1v-1h-1l-3,-3h1v-1l-2,-2v-1h-1v-1l-1,-1v-1h-1l-1,-1v-3l-1,-1h-1v-1h-1v-1h-5l-2,-2h-1v1M835,144h-1v-1M839,145h-1v1v-1h-2v-1h-1v-1h-1l-1,-1h-2l-1,-1l1,1l-1,-1h-2v-1h-1l-1,-1h-1l-1,-1h-1v-1h-1l-1,-1h-1M805,108h-1v-1M801,104h-1l1,1h1v1l1,1h1h-1l-1,-1h-1v-1h-2v-1l-1,-1v1h-1v-1h-1v-1h-2l-3,-3h-1l-1,-1h-1v-1h-1M796,101h-1v-1h-1v-1h-1v-1h-1l-1,-1h-1l-1,-1v1v-1v1M819,119l-2,-2h-1v-1l-1,-1h-1v-1h-1v-1h-1v-1h-1v-1h-2v-1v1v-1h-1l-1,-1h-1v-1h-1l-2,-2h-1v-1h-1v-1h-1l-1,-1h-1v-1h-1v-1h-1v-1h-2v-1v1v-1l-1,-1h-1v-1h-1v-1h-1v-1v1v-1h-1v-1h-1v-1h-2v-1l-1,-1h-1l-2,-2M828,128l-1,-1h-1v-1h-1v-1h-1l1,1h-1v-1h-1v-1h-1v-1l-1,-1v-1h-1v-1h-1v-1v1h1l-1,-1l1,1h1l-1,-1h1v1h1l1,1M826,124v-1h-1v-1M829,125h-2v-1h-1v-1h-1v-1h-1v-1h-1h1v1h1v1h1h-1v-1h-1h2v1h1h-1v-1l1,1v-1h-1l1,1h1v1h1h-1v-1h-1v-1h-1l-2,-2v-1h-1l-1,-1l1,1v-1h-1M836,130l-4,-4h-1v-1v1h1h-1v-1h-1v-1M826,121l-1,-1h-1h1l-1,-1h-1v-1h-1v-1l1,1v1h1h-1h1h-1l-3,-3h-1v-1h-1l-3,-3h-1v-1h-1v-1h-1l-1,-1h-1v-1h-1h1v1v-1h-1h1h-1h1h-1h1l-1,-1h-1v-1h-1h1l1,1M830,125v-1l-1,-1l-2,-1l-2,-2M815,112l-2,-2M813,110h-1v-1h-1v-1h-1l-3,-3h-1l-2,-2h-1v-1h-1v-1h-1l-1,-1h-1v-1h-1v-1h-1l-2,-2h-1v-1h-1l-1,-1l-2,-1l-1,-1M842,141h-1v-1h-1v-1h-1l-5,-5h-1v-1h-1v-2h-1v-1h-1l-1,-1h-1v-1h1l1,1l-1,-1v-1h-1v-1l1,1h1v1h1l1,1v-1h-1l-1,-1h1h-1l-1,-1v-1v1h1h-1v-1v1h2l1,1v1h1v1h2v1h1M841,136v-1h-1v-1l-1,-1h-1v-1h-1v-1h-1v-1v1h1v1v-2h-1h1v1h1v1h1v1M842,136l1,1h-1v-1l1,1l-1,-1h1v1h1h-1l1,1v-1h-1v-1h-1v-1h-1v-1h-1v-1h-1h1h-1v-1v1h1v1h1l1,1v1h1v1h1v1h1M862,155l-11,-11l-2,-1v-1h-1l-2,-2h1v1h1l-1,-1l2,2M865,158h-1v-1h-1v-1l-2,-2M340,352h-3v1h-1v3h1v1h1l-2,2l1,1v1l-2,1l1,1v1M331,341v1h-1l-1,1l-1,-1h-1v-1h-2l-1,-1h-1l-1,1h-3l-1,-1h-3v1M338,307h-2l-2,2h-2l-1,1h-3v1h-2l-1,-1h-2v2h-1v1h-1l1,1h-1l-2,2h-1l-1,1v1h-1l-1,-1v-1h-1v1l-2,2h-3v4h-2v2h-1l-2,1M299,304l-2,2l-2,1l-3,3h-1v3l-2,2M294,303h-2v-2l1,-3v-4l1,-2v-4M283,321v-1h1v-1l1,-1h1v-1h2v-2h3l2,2h1v1h1v1h1l1,-1h2v1l1,-1h1v4h-1M302,282h-2l-2,4h-1v1h-1l-1,-1v1h-1v1h-7l-4,1h-2v1l-1,2v1h-3v1h1l3,3h1v2h1v3h-2l-2,1h-6l-1,1l-2,4l-1,1v1l1,1l-1,1v1h-1v1h1l-1,1v1"/>
<path class="sb" d="M251,230h-1v1h-1v-1h-5v-1h-2l-1,-1h-1v-3l-1,-1v-2l1,-1v-1h-1v-1l-1,-1v-2h-1v-3l-1,-1v-3h-1v-1l-1,-1v-1h-7v1h-1l-2,2v1l-1,1h-1v1h-2l-1,-1h-2v-1h-1v-1l-1,-1v-2l1,-1v-3h-1l-2,-2v-2h-1l-1,-1v-2h-1l-2,1h-7v2l-1,1v1h-6l-2,1h-3l-2,1h-2l-4,-2h-1l-2,-1h-2l-2,-1l-1,-1h-2v-1l1,-1l-2,1h-2l-2,1h-1l-1,1h-3M432,101h-3l-2,1l-3,2h-1l-1,1h-1l-4,4h-12l-1,1h-2l1,1l-1,1h1v1l-1,1h-1l-2,1h-2l-2,1h-1l-3,1h-4l-1,1l-2,1h-2l-1,1l-2,1h-2l-2,-2l1,-1h1v-1h1l1,-1h1l1,-1l1,-2l3,-3v-7l1,-1v-1l-1,-1h-2l-1,-1h-1l1,-1v-1h-3v-2h-2v1l-1,-1v-1l-1,-1h-1l-1,-1h-2v-1h-2l-1,-1h-3l-1,-1h-1l-1,-1h-3l-2,1h-2l-1,1h-3v-1h-5l-1,1h-2l-1,-1h-2l-1,-1h-5v1h-1v-1h-3v-3h1h-2v1l-1,1h-5l-2,1h-8l-2,1h-8l-2,1h-8l-2,1h-5l-2,1h-7l-2,1h-5l-2,1h-5l-2,1h-5l-2,1h-4l-2,1h-3l-2,1h-4l-2,1h-4l-1,1h-3l-1,1h-4l-2,1h-2l-2,1M258,62v1h-2v1h-1l-1,1h-1l-1,1h1v-1h1l1,-1h1l1,-1h1v-1h2l1,-1h-1v1h-1l-1,1h-1v1h-1v1h-1l-1,1h-1l-2,2h-1l-2,2h-1v1h-1v1h-1l-1,1h1h-1v1v-1v1h-1M545,688l-1,1v1h-1v4h-1l1,1l-1,1v1l-1,1v3h-1v4l-1,1M570,651v3l-1,3v1l-3,3h-1v1h-2v1h-1v2h-1v1h-1v-1h-3l-1,1v1h-1l-1,-1h-6l-6,-2h-4v-1h1v-1l1,-1h1v-2h1v-3l2,-2v-1h1v-1l2,-2v-2l-2,-2h-1l-1,-1h-2v-1h-1l-2,-1l-3,-1l-2,-1v-1l-4,-2l-1,-1h-2l-4,-2h-2v-1l-1,-1l-2,-1l-2,-2h-1l-1,-1l-3,-6h-2v-1h-1M471,627l1,1v2l-1,4l-1,2v1l-4,2h-2l-2,2h-1v1l-1,1v1h1v1l1,1l-1,1l-1,2l2,5v1l-1,1v2l2,2v2h-1l-1,1h-2v1l-1,1v2l-1,1v2h-1v1l-3,3v3l-1,2v1h-1v3l1,2v2h1v1h-1v1l-1,1v-1l-1,1v3l-1,1l1,1h-1v1h-1v4l2,2h1l-1,1v2h1v1l1,2v1h1v1l-1,1v1h1v1h2v1h-1v4l1,1v1l-1,1h-1v1l-1,1v3l-1,1v1h-1l1,1v2l1,1v3h-1l-1,1v1h-1l-1,1v1h-1v2l1,1v1l-1,1v1h1v1l-1,1l1,1v1l1,1v2l1,1v2h-2v1h-1v5l-1,1v-1v1h-1h1v3h-1v1l1,1l-1,1v4l1,2v3l1,2v1h-2v2l1,1h-1v3l1,1h2v2h-1l2,2l-1,1h1v4h3l1,1v1l-1,1h-4v1h3v1l1,1v2h-2v2h1v2h-1v1h1v4h-1v2h1v1h-1v1h-1l-1,1h1l-1,1v2h1v2l-1,1v3h-1l-1,1v2h-2v4l1,1v1l2,2v1h1l1,-1h2l1,1v3h1l-1,2l1,1h1l1,1v1h12l1,1l2,-1l1,1h3v1M451,582h-1l-1,1h-1v4l-1,1h-1l-1,1h-2M398,432h-2l1,1v1l1,1h1v1l-1,1l1,2h-2v3l-1,2l-1,1v1l-2,1l-1,2l-2,1l-3,3l-6,3h-1l-2,1h-1l-3,3v2l-1,-1l-1,2v2l-1,1v2h-1v3l-2,2v1h-1v1h-2l-1,-1v-1l-1,-1v-1h-3l-1,-1h-1v-1l-2,2h-1v-1l1,-1h-1v-2h1l1,-1v-4h-1"/>
<path class="sb" d="M444,466l-2,-2v-1h-4l2,-5l2,-2l1,-2v-1l-1,-1h-1l-1,-1h-2v-1l-2,-1h-2v1h-3v-1h-3l-1,1h-1v1h-4l-1,-1v1h-2l-1,-1h-1v-4h-2l-1,-1v-2l-2,-2h-1l-2,-2h-2v-2h-1v-2h-1v-1h-1v-1h-1v-1h-3v-1h-1l-1,1l-2,-2h-2l-2,-2l-2,-1h-1v2h-5l-1,-1h-3v-2h-1v-1h-1v-1h-3l-2,-2l-2,-1h-1l-2,-2M471,419v-2l-1,-1v-2l-1,-1v-2l-1,-1v-2h-1v-1h-1l-1,-1v-1h-2v-1l3,-2l1,-1v-1l-1,-2l-2,-2v-2l-1,-1v-10h1l1,-1v-3h1v-3h-6l-3,1h-2l-2,-1l-1,1h-3l-1,-2l-3,-3l-1,-2h-4l-1,-1h-2l-1,1h-9v-1l-2,-2h-1l-1,-1v-3l1,-1v-3l-2,-2l-1,-2v-2l-1,-1v1l-1,-1v-1l-1,1h-2l1,-1v-1l2,-2v-1l1,-2v-1l2,-5v-1l2,-2l2,-1l2,-3l1,-1h2l1,-1h2M525,385l-6,-6v-1l2,-2v-2l-1,-1l1,-1h2v-1h3l2,-2v-1h-3v-1h1l-1,-1v-2h1v-1h2v-1l1,-1h2v-1l1,-1l-1,-2M562,413h-1v-1h-1l-1,-1v-1h-1v-2h-1v-1l-1,-1v-1h-1v-4h-3l-1,-1v-1l-1,-1v-1l-2,-2v-2l1,-1v-2l1,-1h-1v-1l1,-1h4v-1l1,-1l-1,-1l1,-1v-1M578,410l1,-1h1l1,-2v-2l1,-1l-1,-1l1,-2h1v-2l-2,-2l-1,-2v-1h-1v-7l2,-2v-1M574,717h-1v-5l1,-1h1l1,-1v-2h-1l-2,-2v-1h-1v-2h-1v-1h-2l-2,-2v-1l-3,-1l-1,-1h-1v-1h-1v-1l-1,-1h-1l-1,1h-2l1,-2h-1v-1h-1l-1,-2l-3,-3h-2v1l-1,1h-3v-1l2,-2v-1h1l2,-2l2,-1v-1l3,-3v-1l1,-1h1l1,-1v-1h1v-1l1,1v-2l1,-1h2v-1h1l1,-1h1v-1h1v-1h2v-1h3v-1h1l1,-1h1v-1l1,-1v-2l1,-2v-3l-1,-1v-3h-2v-1h-1v1h-3v-2l2,-2v-2l1,-3l1,-2l-1,-1l1,-1l-2,-2h-2l-1,1h-4v-2l-1,-1v-6h-1v-1h1v-1l-1,-1v-1l-1,-1h-3v-1h-1v-1h-1l-1,1h-8v-1h-3v-1l1,-1h-1v-1h1v-5h1v-1l-1,-1v-2l-1,-1v-2h-1v-2M449,525h-5l-1,1h-2l-1,-1v-1l-1,-2v-7h1v-3h-1v1h-1l-4,4h-8v-2l-1,-1v-1h-1l-1,-1h-6l1,-1l1,-2v-1l-3,-3v-1h-1v-1h-1v-2l-2,-2h1v-1h-1l-1,-1v-1h-1h1v-2h2v-1h-1v-3h1l1,-2l2,-1h1v-3l-1,-1h1v-1l1,-2l1,-1v-4l1,-1h2l4,-4h1v-1h4l1,-1h4v-1l1,-1h4v1h3v-1h1v-5l1,-2v-3l1,-3v-3l1,-3v-2l1,-1v-6h-1v-2h-1v-1h1h-1v-1l-1,-1h-1v-1l-1,-1h-1v-5l1,-1h1v-1h3v-1h1v1h2v-3h-1v-1l-1,1v-1h-4v-5h2l1,-1h1v1h11v-1h-1v-1l1,-1v1h1v1h2l2,-2v-1h2v1l1,1l1,2v4h2l2,2l2,1l1,1h1l1,-1h1l1,-1h3v2l3,-3h1v-1h1l1,-1h1l1,-1h3v-1l2,-2v-2h3l1,-1h1l1,-1v-2h-6v-3l-1,-2l-1,-1v-4l-3,-2l-1,-1v-1l-1,-1v-1h1v1h1v1h4l1,1h3l1,1l2,-1l2,2h1v1h2v-3l1,-1h2v-1l2,1h1l5,-2v-1h1l1,-1v1h1l1,-1h1v-1h1l2,-2v-1h-1v-1h3l1,-1h1v1l1,1v3h-1v2h3l1,1l-1,1l1,1v1h1v1l-1,1v1h-2v2h1v1h-1v2l-1,1v3l1,2l1,1v3h1v1l1,1h1l1,1v1l1,1h2l1,1h1l1,-1h1v-1h1v-1h4v-1h3l2,-2h1l1,-1l1,1h5l2,1h2v-1l1,-1h-1v-1h-1v-2h1v-1h1l1,1h3v-1h4v1h2v1h1l1,1l2,1h1l1,-1h1v-1h2l1,1h1v-1h1v1h2l1,1v-1h1v-1h2v-2l1,-2h1v-3h1v-1h1v-1l1,-2h1v-2h1v-1h1"/>
<path class="sb" d="M862,234l-1,-2v-1l-1,-2v-1l-1,-1v-2h1v-1l1,-1h1v-2l1,1h2l-1,-1v-1v1h3l1,-1v-3h1v-1h1v-1h1v-1h-1v-1h-1v-2h-1v-1h1l1,-1v-1h-1h3l1,1h2l-1,-1v-2h-1v-1h-1v-1l-3,-3v-1l-1,-1l-1,-2h-1v-1l-1,-2l-1,-1h-1v-1l-1,-1v-1h-1l-2,-2M913,233l-1,-2l-1,-1l-3,-6l-3,-3l-1,-2l-2,-2v-1l-2,-2l-1,-2l-2,-2h-1v-1l-3,-3v-1l-1,-1v-1h-1v-3h-1v-1l-1,-1v-1h-1v-1l-1,-1v-1h-1v-1h-1v-1l-1,-1v-1l-2,-2v-1h-1v-1l-1,-1M944,286l-1,-1l-2,-4l-1,-1l-1,-2l-1,-1h-1v-1l-1,-1v-1l-1,-2l-2,-2l-1,-2l-2,-3v-1l-1,-1v-2l-1,-1v-2h-1v-1l-2,-2v-2l-2,-4l-4,-6v-2h-1l-1,-1l-1,-2v-1l-3,-3v-4h-1v-1l-1,-1l-1,-2l-1,-1v-2l-1,-1v-3h-1v-1l-1,-1v-1l-2,-2M838,274h7l1,1h3l1,1v-5h1v-3l-1,-1v-4l-1,-1v-4h2v-4h1v-1h1v-5l-1,-1v-4h1v-5l-1,-1h4v1h1l1,1v-1h1v1h1v-1h3v-2l-1,-1v-1l1,1v2M839,279v-3l-1,-1h5l1,1h6l2,1h4l2,1h2l-1,-1v-2l-1,-1v-1l-1,-1v-2l-1,-1v-1l-1,-1v-2h1v-1l1,-1h2v-2l-1,-1v-1l-1,-1v-2l-1,-1v-1l-1,-1v-3l-1,-1v-2l-1,-1v-1l-1,-1v-1l1,1h4l1,1h4l1,1h4v-2l-1,-1l-1,-2v-1l-1,-2l-1,-1l2,1l4,4l2,1l5,5l2,1l5,5l2,1l1,1l1,2M877,331h2v-6h1l3,3v1h1v-2h2v1h4v-2h1v2h3l1,1h4v1h4l1,1h4l1,1v-3l-1,-2v-2l-2,-2v-2l-3,-6v-2l-2,-4v-2l-2,-4v-2l-3,-6v-2l-4,-8v-2l-4,-8v-2l-5,-10v-2l-1,-1l-2,-4h3l1,1h2l1,1l2,1l16,16l1,2l10,10l1,2l5,5v1l1,1v1l2,1v1l1,1v1h2v1l2,2h1v1l2,2v2h1v3h1v1h1l1,-1M933,342h1l1,1h1v-1l1,-1h3l1,1h1v-1l1,1h1v-9l-1,-2v-1l-1,-3l-1,-2v-2l-1,-3l-2,-4v-2l-1,-2h4v-3l1,-2v-6l1,-2v-5l1,-2v-6l1,2l2,1l1,2l2,2l1,3v-2M974,367l-1,-3l-1,-2v-2l-1,-3v-6l-1,-2v-6l-2,-4l-4,-14l-3,-9v-1l-1,-2l-1,-1v-1l-2,-4l-1,-1v-1l-1,-3l-4,-8v-3l1,2l2,2l1,3l1,2l2,3l2,4l2,3l1,2l1,3l1,2l1,3l1,2l1,3l2,4M979,355v3l1,3l1,1v1v-1v3l1,1v3l1,1v3l1,1v3l1,1v4l1,1v3l1,1v3l1,1v2l1,2v4l1,1v2M852,318v-5h1l1,1h2l1,-1l1,1h1v-1h1l2,1h1l2,2v1h1v1h1v1h2v1l1,1v2h1v1h1l1,1v2h1v1h1v1h1v1l2,2v2l2,2v4l1,2l1,1h1v1h1v2h1v4l1,1M855,337h4l2,1l2,-2h1v1l2,1h1v1h1v1h1v-1h1l1,1v1h-1l-1,1l-2,-2h-2v-1h-1v-1h-1v1h-2l-1,1v1h-2l-1,-1h-2v1M856,347h2l1,-1h1l1,1h2l2,-2l1,1h3l2,1h2M868,360v-1l1,-3h1v-1h4v-3h-1v-1h-1v-1h1v-3h2l1,1h1v1h1v1h2v1h6v1l-1,1h1v1l1,1l1,-1v-1l1,1v1l1,1v-1l1,-1h1l2,2h1v-1h1v-2h1l1,1v1l1,1l1,2v2l1,1v1h1v3l1,1v1l1,1v3l2,1v1"/>
<path class="sb" d="M917,374v-10l-1,-1v-1l1,-1h2v-8l-1,-1h1v-2h1v1l2,2v-1h1l-1,-1v-2h1v-3l1,-1l2,1v-2h1v-1l1,-1h1v-2h2v1l2,1l1,1v3l1,1v2h1v1l1,2v1h1v1h1v1l1,1h-1l1,2v1l1,2l2,2h1v-1v1h1v3l1,2l1,1v1M880,377l1,1v-2h1v-1l1,-1v-3h1l1,1l1,-1h4v1l1,1l1,2v1l1,1v3h1v2h1v2l-1,1v1h1l1,-1M891,397h1v-2l1,-1v-1h1l1,-2v-3h1v-3h2v1l1,-1v1h1v1l1,1v3l1,1v3h1v2h2v-4h1v2M913,423v-13h-1v-1h-1v-2h-1v-1h-1l-1,-1v-1h-1v-1l1,-1v-3l-1,-3v-1h-1l1,-1v1h1v-5l-1,-1v-2h1l1,1v1l1,-1l-1,-1v-1l-1,-1v-3h-1v-2l-1,-1v-4h-1v-1h1v-1h1v-2l1,1v-1v1h1v1l1,1h1v-1h1v-2h1v1v-2l1,1v3l1,1l1,-1v-1h1v1h1v1h1v1l1,1v1l2,2h1v1h1v-1h4v1l2,2v2h1v-1M934,421h1v-1h-1l1,-1l-1,-2l-1,-1v-3l-1,-3v-1l-1,-1h1l-1,-1l1,-2v-8h1v-4l-1,-2v-2l-1,-1v-4l-1,-1v-4l-1,-1h1h-1v-2l-1,-1v-3h3l1,1h3l1,1h1v1v-1h1v-1l1,1M950,417h-1v-2h-1v-2h-1v-3l-1,-1h1v-2l-1,-1v-3l-1,-4l1,-1l-1,-1v-1l-1,-1v-6l-2,-2h1l-1,-1h1l-1,-1v-4l-1,-1v-1l-1,-1v-4h-1h1l1,1v1h1v-1l1,1M951,417l1,-1l-1,-1v-3l-1,-1v-7l-1,-3v-4l-1,-2v-3l-1,-1v-3l-1,-1v-3l-3,-3v-7h1v-2l1,1h1l1,-1v-3l-1,-2h1v-1h1l1,3l1,1v1l1,1v1M955,417v-4l-1,-1v-7l-1,-1v-6l-1,-2v-2h1v-6h1v-2l-1,-1v-2l1,1v-2l-1,-1v-3h-1v-1l-1,-2v-6l-1,-2v-2l1,-1v-1l-1,-1v-5h3l2,1l2,2v2h1l1,3v1h1v-1l1,-1l1,1l1,2l3,3h1v-3h2l2,2v1l1,1h1l-1,-1l1,-1v-2h1v2l1,3l1,1M974,437v-2l1,-1l-1,-2v-4l1,-1v-3l1,-1v-3l1,1v-1l1,1v2h1v3h1v-27l-1,-1v-16h-1v-2h-1v-3l-1,-4l1,1v3l1,1v1l1,2v1l1,2v3l1,2v4l1,2v1l1,2v2l1,1h-2v-1l-1,-1v4h1v2l1,1v2l1,2v1l1,2v2l1,2v3h1v2M992,468v-1l-1,-1v-6l-1,-1v-3l-1,-2v-6l-1,-1v-5l-1,-1v-7h-1v-2h1v-10h1v-1v1l1,1v-2h1v-7h1v-4l-1,-2h1h-1v-5l1,3v3l1,1v4l1,2v5h1v2M996,436v-3h-1v-6l-1,-1v-6l-1,-1v-5l-1,-1v-1M979,460v1l1,1h1l1,1M978,471l1,-1v1h1v1h2v1h1v-6l-1,-2v-3h1l1,1h1v1h1v1h1M981,515v-1l1,-1v-1l1,2v-11h2v-4l1,1v4l1,1v-2h1v1v-2h1v-14l-1,-1v-7h1v-6l-1,-1v-1l-1,1v-2l-1,-1v-3l1,-1v-1v1h1l1,1v-1v2h1v2h1v2l1,1v-15h1v-1v2h1v1v-1v1M985,524v-1v3h1v-3h1v-1h1v2l-1,1v2h1v1v-1l1,-2v-2h1v-2l1,-1v-6l1,-5v-6l1,-3v-2l1,-1v-30l1,-2v-3l-1,-2v-13l1,1v3l1,1v4h1v1v-2h1v1v-3M982,526l1,-1v-2h1v-1h1v2h-1v2h-1v6h-1M984,534v1h2v1h1l1,1h1v1h1v10l-1,1v10h1v1v-1h1v1l1,-2v-4l1,-1v-1h1v2l-1,1v1h1v6l-1,2v5l-1,2v5l-1,1v7l-1,1v3l-1,1v2l1,-1v1l1,-1"/>
<path class="sb" d="M976,646v-1l1,-2v-5l1,-1v-1l1,-3v-2l1,-2l1,-3v-3l1,-2l1,-3v-3l1,-2l1,-3v-3l1,-1v2h1v-3l1,-1v-3l1,-1v-4l1,-1v-4l1,-1v1h-1v8l-1,1v2l1,-1v-1l-1,2v4l-1,1v2M962,630l1,-1v1h1l1,-1h1v5h1l1,1h1v1h1l2,2v5l1,1v3l1,-1v1h2v-1h1v2h-1v2M951,700l3,-6l1,-3l3,-6l1,-3l2,-4v1h1v-2l1,-3l2,-3l3,-10l2,-3l2,-7l1,-2h2l-1,2v1l1,-1v-1v1l1,-1M962,690l1,-1v-1l1,-1v-2l1,-1v-1l1,-1v-3l1,-1v-1l1,-1v-2l1,-1v-2h1v-2l1,-2v-2l1,-1l1,-3v-2l1,-1v-2l1,-1v-3l1,-1v-1v2l-1,1v1l1,-1v-1l1,-2v-2l1,-1v-1l1,-1v-3M932,726h1v-1h1v-1l1,-1v-1v3l-1,1v1h-1v3h1v1h1v-1h1v-1h1v-1l2,-4l2,-3l2,-4l2,-3l1,-4l4,-6l1,-4l-1,3v1l-1,3l-1,2v1l-1,1v1l-2,2v1l-1,1v2h1v-1h1l1,-2v-1h1v-1l1,-1l1,-2l1,-1v-1v3h-1v3l1,-1v-1l2,-2v-2l1,-1v-1h1v-1l1,-1l2,-4v-2h1v-2h1v-1l1,-1v-2h1v-1M932,751v-1h1v-1l1,-1v-1l2,-2v-1l1,-1v-1l1,-1v-1l1,-1l-1,1v1h-1v1l-1,1v1h-1v1l-1,1v1l-1,1v1l-1,1v1h-1v2h-1v1l1,-1v-1l1,-1M743,63h1v1h1l1,1h1l1,1h1l1,1h-1l-1,-1"/>
<path class="si" d="M454,573l1,-1h1v-1h-2M454,571h-1v-1l-2,-4v-1l1,-2"/>
<path class="sg" d="M 257.5440 936.4869 A 249.7500 35.3811, 0, 1 1, 741.4560 936.4869"/>
<path class="sg" d="M 68.3994 751.7945 A 432.5797 61.2819, 0, 1 1, 930.6006 751.7945"/>
<path class="sg" d="M 0.0000 499.5000 A 499.5000 70.7622, 0, 1 1, 999.0000 499.5000"/>
<path class="sg" d="M 68.3994 247.2055 A 432.5797 61.2819, 0, 0 1, 930.6006 247.2055"/>
<path class="sg" d="M 257.5440 62.5131 A 249.7500 35.3811, 0, 0 1, 741.4560 62.5131"/>
<path class="sg" d="M 42.2848 298.3669 A 493.5049 499.5000, -246.25486907, 0 0, 956.7152 700.6331"/>
<path class="sg" d="M 395.2078 11.0091 A 412.0101 499.5000, -192.05163880, 0 0, 603.7922 987.9909"/>
<path class="sg" d="M 464.4080 1.2342 A 220.1175 499.5000, -184.02859179, 0 0, 534.5920 997.7658"/>
<path class="sg" d="M 503.9098 0.0195 A 30.7554 499.5000, -179.49416740, 0 1, 495.0902 998.9805"/>
<path class="sg" d="M 546.2479 2.1924 A 273.3874 499.5000, -174.62986955, 0 1, 452.7521 996.8076"/>
<path class="sg" d="M 636.3885 19.1233 A 442.7654 499.5000, -164.09452966, 0 1, 362.6115 979.8767"/>
<text x="0" y="0" class="fs" transform="translate(125,248) rotate(110)">120W</text>
<text x="0" y="0" class="ft" transform="translate(125,248) rotate(110)">120W</text>
<text x="0" y="0" class="fs" transform="translate(300,226) rotate(102)">90W</text>
<text x="0" y="0" class="ft" transform="translate(300,226) rotate(102)">90W</text>
<text x="0" y="0" class="fs" transform="translate(527,219) rotate(86)">60W</text>
<text x="0" y="0" class="ft" transform="translate(527,219) rotate(86)">60W</text>
<text x="0" y="0" class="fs" transform="translate(748,230) rotate(76)">30W</text>
<text x="0" y="0" class="ft" transform="translate(748,230) rotate(76)">30W</text>
<text x="0" y="0" class="fs" transform="translate(902,254) rotate(68)">0W</text>
<text x="0" y="0" class="ft" transform="translate(902,254) rotate(68)">0W</text>
<text x="0" y="0" class="fs" transform="translate(640,896) rotate(3)">60S</text>
<text x="0" y="0" class="ft" transform="translate(640,896) rotate(3)">60S</text>
<text x="0" y="0" class="fs" transform="translate(740,692) rotate(5)">30S</text>
<text x="0" y="0" class="ft" transform="translate(740,692) rotate(5)">30S</text>
<text x="0" y="0" class="fs" transform="translate(776,436) rotate(6)">0N</text>
<text x="0" y="0" class="ft" transform="translate(776,436) rotate(6)">0N</text>
<text x="0" y="0" class="fs" transform="translate(737,198) rotate(5)">30N</text>
<text x="0" y="0" class="ft" transform="translate(737,198) rotate(5)">30N</text>
<path class="tb" d="M127,998h-2l-1,-1h-2l-1,-1h-2l-1,-1h-2v-1h-3v-1h-2l-1,-1h-2v-1h-2l-1,-1h-2v-1h-2v-1h-2l-1,-1h-2v-1h-2v-1h-2v-1h-2v-1h-2v-1h-2v-1h-2v-1h-2v-1h-2v-1h-1l-1,-1h-1v-1h-2v-1h-2v-1h-1v-1h-2v-1h-1l-1,-1h-1v-1h-2v-1h-1v-1h-2v-1h-1v-1h-1l-1,-1h-1v-1h-1v-1h-1l-1,-1h-1v-1h-1v-1h-1v-1h-2v-1h-1v-1h-1v-1h-1v-1h-1l-2,-2h-1v-1h-1v-1h-1v-1h-1v-1h-1v-1h-1v-1h-1v-1h-1v-1h-1v-1h-1v-1h-1v-1h-1v-1h-1v-2h-1v-1h-1v-1h-1v-1h-1v-1l-1,-1v-1h-1v-1h-1v-1l-1,-1v-1h-1v-1l-1,-1v-1h-1v-1l-1,-1v-1h-1v-2h-1v-2h-1v-1l-1,-1v-1l-1,-1v-1l-1,-1v-2h-1v-2h-1v-3h-1v-2h-1v-4h-1v-3h-1v-5h-1v-6l-1,-1v-17h1v-7h1v-4l1,-1v-3h1v-3h1v-3h1v-2l1,-1v-2h1v-2h1v-2h1v-2h1v-2h1v-2h1v-2h1v-1h1v-2h1v-1h1v-2h1v-1h1v-1l1,-1v-1h1v-1h1v-1l1,-1v-1h1v-1h1v-1h1v-1h1v-1h1v-1h1v-2h1v-1h1v-1h1v-1h1v-1h1l3,-3h1v-1h1v-1h1v-1h1v-1h1v-1h1v-1h1l1,-1h1v-1h1v-1h1v-1h1l1,-1h1v-1h1v-1h2v-1h1v-1h1v-1h2v-1h1v-1h2v-1h1v-1h2v-1h1l1,-1h1v-1h2v-1h1l1,-1h1v-1h2v-1h2v-1h2v-1h1l1,-1h1l1,-1h1l1,-1h1l1,-1h1l1,-1h2v-1h2v-1h2v-1h2l1,-1h2v-1h2v-1h2l1,-1h2v-1h3v-1h2l1,-1h2v-1h3v-1h3v-1h159v1h3v1h3v1h2l1,1h2v1h3v1h2l1,1h2v1h2v1h2l1,1h2v1h2v1h2v1h2l1,1h1l1,1h1l1,1h1l1,1h1l1,1h1v1h2v1h2v1h2v1h1l1,1h1v1h2v1h1l1,1h1v1h2v1h1v1h2v1h1v1h2v1h1v1h1v1h2v1h1v1h1l1,1h1v1h1v1h1v1h1l1,1h1v1h1v1h1v1h1v1h1v1h1v1h1l3,3h1v1h1v1h1v1h1v1h1v2h1v1h1v1h1v1h1v1h1v1h1v1l1,1v1h1v1h1v1l1,1v1h1v1h1v2h1v1h1v2h1v1h1v2h1v2h1v2h1v2h1v2h1v2h1v2l1,1v2h1v3h1v3h1v3l1,1v4h1v7h1v17l-1,1v6h-1v5h-1v3h-1v4h-1v2h-1v3h-1v2h-1v2l-1,1v1l-1,1v1l-1,1v1h-1v2h-1v2h-1v1l-1,1v1h-1v1l-1,1v1h-1v1l-1,1v1h-1v1h-1v1l-1,1v1h-1v1h-1v1h-1v1h-1v2h-1v1h-1v1h-1v1h-1v1h-1v1h-1v1h-1v1h-1v1h-1v1h-1v1h-1v1h-1v1h-1l-2,2h-1v1h-1v1h-1v1h-1v1h-2v1h-1v1h-1v1h-1l-1,1h-1v1h-1v1h-1l-1,1h-1v1h-1v1h-2v1h-1v1h-2v1h-1l-1,1h-1v1h-2v1h-1v1h-2v1h-2v1h-1l-1,1h-1v1h-2v1h-2v1h-2v1h-2v1h-2v1h-2v1h-2v1h-2v1h-2l-1,1h-2v1h-2v1h-2l-1,1h-2v1h-2l-1,1h-2v1h-3v1h-2l-1,1h-2l-1,1h-2l-1,1h-2Z"/>
<path class="tl" d="M169,986h1v1h-3l-1,-1h2v-1ZM114,989h-3l-1,-1h2l1,1ZM176,983h1l1,1v1h1l-1,1h-2l-1,1h-1l-1,-1l1,-1v-2h1v-1ZM124,980h2v1h-1ZM122,980l1,1h-1l-1,-1ZM136,977h1h-2ZM156,974v1l1,1h-5v-1l1,-1v-1l-1,-1l1,-1v1h1l1,1ZM158,964v1h-2v2h1l-2,2v1h1l1,1h1l4,4v1l1,1v1h-1v2h-1l-1,1h-1v1h-2l1,1h1v1h-2l1,1h1v1h3l1,1h3l1,1h3l1,1h1l1,1v-1h1v-1h2l2,-1l1,1h1v-1h4v-1h3l1,-1h-1v-1h-4l-1,-1l1,-1h1l2,-2h4l1,-1h1l2,-2h-1v-1h1v-1h2v-1l1,-1h1v1h1v-1h8v-1h3v-1h1l1,1h2v-1h1v1l1,-1h4v1h6v-1h3v-1h2v1h3l1,-1h3v-1h2l1,-1h2l1,-1h4v1h1v1h1l1,1h1l1,-1l1,1h2v1l-2,2h-1v1h1h-1v1h-1v1h2l2,-2h1v-1h3l1,-1h1v-1h2l1,-1h5v-1h1v1h5v1h1l1,-1l1,1l1,-1h1l2,-1v1l1,1h3l1,-1h2v1h1v1h4l1,-1v1h9l1,-1l-1,1v1h-1h3l1,1h2l-1,1v1h1v1h2v1h1v2h2l1,1v1h-1l-1,1h-2l-1,1h-3l-1,1h-2l-1,1h-2l-2,2v1h-5l-1,1h-2v1h-1v3h2l-11,4h-155l-11,-4h-1h2l1,-1l1,1h14l-1,-1h-7v-1h-2v-1h-3l-1,-1h4v-1h-2l-1,-1h-7l-1,-1l-2,-1l1,1l1,-1l2,1v-1h1v-1l-1,-1h-1h2v-1h2v-1h4l1,-1h5l1,-1l1,1v-1h1l1,1h1v-1l1,1h6v-1h-2l-1,-1h-1l-1,-1h4l1,1h1l1,-1h3l-1,-1h1l1,1l1,-1l1,1h3v-1l1,1h4v-1h2l1,-1v-1h-1v-1h-1v-1h-1v-1h-1v-2l-1,-1v-1h1v-2h1v-1h1v-1h1l1,-1l1,1ZM144,951l2,1h1v1h-1v-1v1h-4l-2,-2l-2,-1l2,1h2v-2h1v1ZM151,947h1v1h-2v1l-1,-1l1,-1ZM269,946h-1v-2h1l1,1ZM345,939v1h1l1,-1v1l-3,3v-1l-1,1h-1l1,-1v-1l1,-1v-1ZM368,943v1l1,-1v1h-1l-3,3h-1l-1,1h-1l-2,2h-2v1h-1v-1h-1v-1l4,-2h1l1,-1h2l2,-2h1l2,-2ZM376,936l-1,2l1,-1l-1,1l1,1h1l-2,2h-1l-2,2l-2,1h-1l2,-1v-2l1,-1l2,-1v-1l1,-1v-3l1,-1v1l1,1ZM382,913l-1,1v-2l-1,-1v-1h1v1l1,1ZM397,906v1l-1,1h-1v-1l1,-1v1ZM398,906h-1v-1h1l1,-1v1ZM10,905v-1ZM386,904v-1ZM386,901v2h-1v-1ZM259,895v2l1,1h-1v1v-1v2h-1v3l-3,6v2h-1l-1,1l-1,-1h-1v-5h1v-2l1,-1h-1v-3h1v-1h1l2,-2h1v-1l1,-1v-1l1,-1v1ZM361,898v1h1v1h1l-1,1v2h1l-1,2v1l2,2v4h1l-1,2l1,1v3l-1,1v2l-3,3v1l-1,1l-1,2h-1l-1,2h-1l-4,4v1h-2l-1,1h-1l-1,1v-1h-1l1,-1h-1l-1,1h-1v-1h-1v-3h1l-1,-1v-1l1,-1l-1,1h-1l3,-3l-2,1h-1l-1,2v-4l-2,-2h-2l-1,1h-4l-2,2h-4l-1,1v-1l-1,1h-2v-1h-1l1,-1v-1h1v-3l1,-1v-7l1,1v-3l1,-1v-1l1,-1l-1,1l2,-2h1l1,-1h2l1,-1h2v-1h1l1,-1v-2l1,-1v2l1,-1v-1h1v-1l2,-2h2v1h2v-2h1l1,-1v-1h2v-1h-1h1l1,1h3l1,1h-1v1h-1v1l-1,1v1l2,2v1h1l1,1h1v-1l1,-1v-1l1,-1v-3l1,-1v-2h1v-1v3l1,1Z"/>
<path class="tl" d="M383,894h-1v-1v1ZM337,892l-2,-1h2ZM381,893h-1v-1h1ZM382,892v-1l-1,-1h1ZM341,892h-1l3,-3h2l-1,1h-1l-1,1ZM335,889h1v1h-3l1,-1ZM340,889v1h-3v-1h2ZM381,890v1l-2,-2h1v1ZM378,889v-1h-1v-1l1,1ZM325,887h2v-1l2,1v1h2l1,1l-1,1l-1,-1h-4l-1,-1h-1l-2,-1h-1l1,-2h1l1,1ZM353,886v1v-2ZM377,888h-1v-2l-1,-1h1v2h1ZM373,885l-1,1h-1l-1,1l-1,-1h-1l1,-1l1,1v-1h2v-2h1v1ZM345,882h-1v-1h1ZM349,881v2l-1,-1h-2v-1h2ZM374,884l-1,-1v-1l-1,-1h-1h2v2h1ZM353,878v3l2,1v-2l2,-1h1l1,1h1l1,1l4,2v1h1v1l2,1v1h-1v1l1,1v2h1v1h1h-1l1,1l-1,1v-1h-2l-1,-1v-3h-3l-1,1v1h-2l-2,-2v1h-2l1,-2h1l-1,-2v-1l-2,-1h-1l-1,-2l-1,1l-1,-1h1l-1,-1l1,-1h-1v-1h-1l-1,-1h2v-1ZM343,875l-1,1h-4v1l1,2v-1h2l-1,1h-1l1,2v1l1,2v1h-1v-2l-1,1v-1l-1,-1l1,-1h-1v4h-1v-3h-1v-1l1,-1v-4h1v-1h4l1,-1ZM347,875v1h-1v1l1,1h-1v-4h1ZM321,885h-1l-2,-2v-1l-2,-2l-1,-2v-2l-1,-1v-1l-4,-4v-1h2l3,3l1,2h1l2,2h1l-1,2h1v1l1,1h1v3ZM335,874l1,1h-1v3l-1,1v1l-1,3v-1l-1,1l-1,-1h-1v-1l-1,1l-1,-1h-1l-2,-4v-2l1,-1h2v-2h2v-1l1,-1v-1h1l1,-1v-2h1v1l2,2v1h-1l-1,2l1,1ZM344,864v3l-1,-1v2l-2,-2h1l-1,-1v1l-1,-1l-1,1v-1l1,-1h2v-1h1v-1l1,1ZM294,868h-1v-1l-1,-2l1,-2l1,1v1l1,1v1ZM137,863h-1l1,-1h1ZM341,861v1l-1,1l-1,-1l1,-1v-1v1l1,-1ZM335,863l-1,1v-1l1,-1v-1l1,-1v1l-1,1ZM338,859h2v1l-1,1v-1h-1ZM342,858l1,2h-1v1v-1h-1v-1h1h-1v-1ZM338,857l-1,1l-1,-1h1ZM336,849h1v6h1l2,1v2l-1,-1v-1v1l-1,-1h-2v-1h1h-1l-1,-1v-5ZM133,851v1h-1v-1ZM121,852h-1v-1h2v1ZM126,849h3v1h1v1h-2l-1,1v-1h-1v-2h-1ZM324,849l-1,1h-1v-2l1,-1h1v1ZM37,846v-2h1v2ZM38,844h-1v-1h1ZM119,845h2l1,1v1h1v1h2l-1,1h-3v-1h-1v-2h-2l-1,-1h-1h1h-2l-1,1h-1l2,-2h3ZM122,843h-1v-1l1,-1v1ZM334,843v1l-2,-2v-2l1,-1l1,1ZM122,839l-1,1v-1ZM123,839v1v-1h-1ZM340,825h1v1h-1v1h-1v-2ZM240,828l-2,2v-1h-1h2ZM229,828v1h-1ZM220,825v2h-1l-1,-1h-1v-1h2ZM214,821v3h-1v-3ZM344,820v1l1,1v1l-1,1h-1l-1,2l-1,-1v-1l-2,1l-1,1h-1l2,1v3l-1,-1v-1h-1l-1,-1l1,-1v-3h3v-3l1,1v-2h1l-2,-4v-1l3,3v1ZM214,820v1l-1,-1v-1l1,-1ZM340,810l1,-1l1,2h-1v2l-2,-1l1,2h-1l-1,-2l-1,-1h1l-1,-2l-1,-1l3,1ZM144,812l1,1h1h-2ZM147,809h-1l-1,-1h1ZM92,806h-1l-1,-1v-2h-1v-1h1l1,1v1l1,1ZM153,807l-1,1h1v1h2l-1,1h1v1l-1,2l-1,-1l1,-1l-2,1v-1h-3l1,-1h-1l4,-4h1Z"/>
<path class="tl" d="M90,797h1l-2,2v1v-3ZM332,800l3,3l-2,-1l1,2l2,2v1l-2,-2l-1,-2l-6,-6v-1h-1h1l3,3ZM198,806l-1,1h-2l1,-2v-1l2,-2h1v3ZM216,801l-1,2l-1,-1v-1h1ZM79,791h-1v-1h2ZM202,797l-1,2h2v1l-1,1h1l2,4h1v1l-1,1h1l-1,1h-3l-1,1h-2l2,-2h-1v-1h1l-1,-1v-1h2l-1,-1h-1v-2l-1,-1l1,-2v-1l1,1ZM75,786h-1v-1h1ZM141,790l-1,1v-1ZM139,790h-2l1,-1h1ZM78,780v1h1h-2v-1ZM139,786h1v1h1l-1,1h1l-1,1l-1,-1h-1l-2,1l1,-1h-1h1l1,-1l1,-2ZM193,787v1l1,1l-1,1h-3l-1,1l-1,-1h-2l1,-1h-1h1v-1h-2l1,-1h1l1,1l2,-1h2ZM147,784h-1l1,-1h2l-1,1ZM81,776v1l1,-1h2l-1,2h-3l-1,1h-1l-1,-1h1v-1h-1h1h-2l-1,1l8,-5v1l-1,2ZM135,780l-1,1v-1h-1l1,-1h1ZM322,771h-1ZM88,771h-1h2ZM139,780l-1,2l2,-1v1h-1v1l1,-1l2,-1l1,-1h2v2h-1v1l-1,1l-2,1h-1v-1l-1,1l-2,1v1h-3l-2,2h-1l-1,1l-2,1l-1,1l-1,2h1l-1,1v1h1l3,3l2,1h1l-2,2v2l1,1h1l2,-4h-1l4,-2v-1l1,-1v-1l-1,-1l2,-1l2,-4l1,1h1l1,-1v1l1,1h1v2l-1,1l1,1h2l1,-2h1v3l1,1l-1,1l1,1v1h1l1,1v1l1,1l-2,2h-2l-2,2h-1l-2,-1h-2l-2,1l-1,1l-2,1l-1,1l2,-1l3,-1h2l-1,1l-1,2v1l1,1l2,-1l1,-1v1h1l-4,2h-1l-2,1v-1l2,-1h-3v1h-1l-1,1h-1l-2,2l1,1v-1v1h-3l-1,1l2,-1v1h-2l-2,2v1l-1,1l-1,-1l1,-1l-1,1v4l-1,1h-1l-1,1h-1l-3,3h-1v8l-1,1h-1v-3l-1,-1l1,-1l-1,-2l-1,1l-1,-1h-4v1h-1l-1,-1l-1,1l-1,-1l-2,2h-2v1h-1v3l-1,1v1l-1,2v4l1,1v1h1v1l1,-1h3v-1l1,-1v-1l1,-1h3v1l-1,1v2l-1,1v-1v2l-1,1v1h5v1h1v1l-1,1v3l-1,1h1v2h1v1h2l1,-1h1v1h1l1,1l1,-1v-2l1,-1h2l2,-2v2h-1h1v1l-1,1v1h1v-3h1v-1h1v1h1v1h3l1,1l1,-1h1l1,1h1v1l1,1h1v1h1v1l1,1l2,1v-1h1l1,1h1l1,1v1h1v1l1,2v1l-1,1l1,1h2v1v-1l4,2v1h1l3,1h1l2,1l2,2h2v5l-1,1l-1,2l-2,2v9l-1,2v2h-1v1h-2l-1,1h-1l-3,3v5l-1,2l-2,2v2l-2,2v-1l-1,1l-1,-1h-1v-1v1l1,1v1l1,1v2l-2,1h-3l1,1v2l-1,1l-1,-1h-1l1,2h2l-2,2l1,1v1h-1l-1,1v1l2,1h1v1l-1,1v2h-1v1l2,2h-1l-1,1v1h-1l-2,-1l-3,-3l-1,-3v-1l1,-1h-2l1,-2l-1,-2h1v-2l-1,-1v2l-1,-2v-4l-1,-1l-1,-2h1v-6l-1,-2v-8l-1,-2v-6l-1,-2l-1,-1l-2,-1l-3,-2l-1,-1v-1l-1,-2l-1,-3l-2,-3l-2,-2v-1l-1,-2l2,-2v-1h-1v-3l1,-1v-1h1v-2h1l1,-1v-5l-1,-1v-2h-1v1h-1v1h-1l-1,-1h-2v-2h-1v-1v1h-1v-3l-2,-2h1h-2v-1h-2l-1,-1l-1,-2h-1l-1,-1v1h-2l-1,-1h-2l-2,-2h-1l-1,-1v-1h-1v-3h1l-1,-1v-3l-1,-1v-1l-1,-1v-3h-1v-5l-1,-1l-1,1v4h1l-1,1h1v5h1v2h-1v-1l-1,-1v-3l-1,-1v1v-1h-1v-1h1v-9h-1v-1h-1v-9l2,-2v-1l1,-2l2,-2l1,-2l1,-1v-1h1v1l2,-2h-1v-2l-1,-1v-1l1,-1l-1,-1l1,-1v-1l1,-1l-1,-1l1,-1v-1l1,-1l-1,-1h-1v-2h-1v-1h-1l-1,-1h-1l-1,1h-4l1,-1l2,-1h-1l-1,1l-2,1h-1l-1,1l-2,1h-2l-2,1h-1l-1,1h-3l-1,1h-2l1,-1h2l2,-1h2l2,-1h1l2,-1l1,-1h-3l1,-1l-1,1h-1l2,-2h-1v-1l2,-2l2,-1h3l1,-1h1l1,-1h-3v-2h4l1,1l1,-1v-3h4l1,-1h2l2,-1l1,1l1,-1h1l-1,1h1l1,1h2l1,1h2v1l1,1l1,-1h6l1,-1v2l2,-1l-1,1h2l1,1h2v1l-2,1h4v1l2,-2h2v1h1l1,1h2v-1h1l1,1l-1,1l1,-1h1l1,-1v-2l1,-1l2,-1l1,1l-2,2Z"/>
<path class="tl" d="M128,774l-1,1h4l-1,1h1l2,-2v1l-1,2v1l1,1h-2v1h-8v-1h-1v-1h4l-1,-1h-3l2,-1h-1l1,-1h1ZM135,774l-2,1v-1h1ZM152,776v1l-1,-1l-1,1v-2h2ZM146,776v1l1,-1l2,-1v2h3l1,1l-1,1l2,-1v1l1,1v2h-1l2,2v1h1v1l-2,1h-1l-1,-2l-1,1v1l1,1v2l-1,1l-2,-2v1l1,1h-2l-2,-2v-1l-1,-1v1h-3v-1l1,-1h3l1,-1l2,-1v-1l-1,-1h-1l1,-1l-1,-1h-5l-1,-1h-1l1,-1h-1l1,-1l2,-1l1,-1h2ZM138,774h2l-1,1h-1l1,1l-2,1h-2v-2l1,1v-1ZM298,772h-2v-1ZM141,776l-2,1v-1l2,-2h2l1,1l-2,1ZM122,776h-2l-1,-1h1l2,-1l2,-2h2v1h2v1h-1l-3,1h-2ZM299,769v1h-3v-1h1ZM143,773v1l-1,-1h-1l1,-1h1l1,1ZM295,769l1,1h-2l-1,1l-2,-1l-1,-1h2ZM143,771h-1v1l-1,1h-2l1,-1h-1l1,-1h2ZM136,771h1v1h-4l-2,1h-1l1,-1h-1l-1,-1l2,-1h1l2,1l1,1v-2h2ZM246,780h-3l-2,-1v-1l1,-2h-1l1,-1l-1,-1h1l4,-2h2l-1,1l-2,1l-1,1v2l-1,1l1,1ZM145,770l1,1h1l-1,1h1l1,1h4v1h-7l-1,-1l1,-1v-1h-2l1,-1ZM134,769l-2,1h-4l2,-1h3ZM271,770l1,1v-1h2l2,1h1v1l-1,1h1l2,1v-1l1,1l1,-1h2l1,1h3l-2,-1h5l1,1v1h2l2,1l-1,-1h1l1,-1l2,1v-1h1l-2,-1h8l3,1l1,-1h2l2,2h2v-1h3l3,1v-1h-2v-1h7l8,5h-1l1,1l2,1h2v1h-1v1h-1l1,1v2l-2,-1v2l-1,-1v1h-1l2,2v1h1l3,2h-1l1,1h1v1l1,2h-1l1,2l1,1l-4,-2l-4,-3l-1,-2l-1,-1v-3l-1,-2v-1l-2,-2l-1,1l2,2l-3,-1l-1,1l1,2l1,1h-1l-1,1l-1,-1h-1v1h-4v7h1l2,1h1l-1,-1h1l3,1l1,2l1,1l1,2l2,2v9h-1l-1,-1v2h-1v1l1,1v1h-1v1l1,1h1l2,2v1l1,1v1l-1,1h-1l-1,-2l-1,-1h1l-2,-1v-1v1v-1h-1v-1l-1,-1h-2v1h-1l-1,-1l1,-1l-1,-1l-1,1v2h-1v1l2,2h1v-1h2l1,1l-2,1v2l2,2l1,2l2,1v2h1v6l-2,4l-1,1h-1v1l-1,-1v1l-2,1h-1v2l-1,-1v-1h-2l-1,2v2l1,1l1,2l2,2l1,3v4l-2,1v1l-2,1v-2l-1,-1h-1v-1l-2,-2h-1v-1h-1v6h1v3l1,1h1v1h1v1l1,1v3h1v2h-1l-2,-2v-1l-1,-1v-1l-1,-1v-2l-1,-1v-1h-1v-6l-1,-1v-1l-1,-2v-2l-1,-1l-2,2h-1v-3l-1,-2v-1h-1l-2,-2v-1l-1,-1h-1v2l-1,-1v1h-2v2l-2,1l-1,2v1l-2,2h-1v8l-1,1l1,1h-1l-1,1l-1,-1l-1,-2v-1l-1,-1v-1l-1,-2v-1l-3,-6v-3l-2,1h-1l-1,-2v-1l-2,-1l-1,-1v-1l-1,-1l-2,1h-5l-1,-1h-2v-2h-1l-1,1h-2l-3,-3l-1,-2l-1,1v-1l-1,1v2l1,1h1l1,1v2l1,1l-1,-1l1,-1v2h1v1l1,-1h2v-1l1,-1v-1v2l2,2h1l2,2l-1,1v1h-1v3h-1v1h-1v1h-2v1h-1l-2,2h-1l-2,2v-1l-1,1h-2v1h-2v-2l-1,-1v-3h-1v-1l-1,-1v-1l-1,-1h-1v-1l-1,-1v-3h-2v-2l-1,-1v-1l-2,-2v-1v1l-1,1l-1,-1l-1,-2l1,2l1,1l1,2v1l2,2h-1l2,2v1l1,1h-1l1,2v1l1,1l1,2v1l1,1l2,1v1h1v1h1v1l-1,1h1l1,1h3l1,-1h3v-1h1v2l-1,1v3l-1,1l-3,6l-1,1l-2,1l-1,1l-1,2v1h-1v1h-1v2l-1,1l-1,2l1,1v4l1,1v7l-1,1h-1l-3,3h-1v1l-1,1v2h1l-1,1h1v1l-1,1h1l-1,1h-1l-2,2v3l-3,3v1l-2,1v1l-1,1h-2v1l-1,-1v1l-1,-1l-1,1h-2l-1,1l-1,-1h-1v-5l-1,-1v-2l-1,-1v-1l-1,-1v-5l-1,-1v-1l-1,-2v-1l-1,-1v-3l1,-1v-3h1v-1l1,-1v-1h-1v-5l-1,-1v-2l-3,-3l-1,-2l1,-1v-5l-1,-1v-1l-1,1h-2l-1,-1v-1l-1,-1h-2l-1,1h-2l-1,1h-6l-1,1l-4,-4h-1l-1,-1v-1l-1,-1v-1h-1v-1l-1,-1v-1h-1v-3h-1l1,-1v-1h1l-1,-1l1,-1v-4l-1,-1v-1h1v-2l1,-1v-1h1v-2h1l1,-2h1l2,-2v-3l3,-3l1,-2v-1h1l1,1h2l1,-1h2l1,-1h4l1,-1h1v1h1l1,-1h1v1l1,-1v1h-1v1h1v2h-1v1h1v1h3l2,2h1l2,2l1,-1v-2l1,-1h2l1,1h1l1,1h2l1,1h1v-1h2l1,1v-1h1l1,1v-2l1,-1v-5h-2l-1,1l-1,-1h-2v1l-1,-1h-2v-1l-1,-1v-2l1,-1h1v-1h2l1,-1h1l2,-1l2,1l1,1h2l1,-1v-2h-1l-2,-2h-1l-1,-1l1,-1l-1,-1h2l-1,-1v1h-2l-1,1v1h1l-1,1h-1v-1h-1l1,-1h-2v-1h-1v1l-1,1v1h-1v4l1,1h-2v1h-1v-1h-2l1,1h-2v1l1,1h-1h1l1,1v1l-1,-1v1h-1l1,1h-2v-2l-1,-1v-1h-1v-3h-1v-1h-1l-1,-1h-1l-1,-1v-1l-1,-1v1v-1h-2v1l2,2v1l1,1h1l1,1h1l1,1v1l-1,-1h-1v1h1v1h-1v1h-1v-1h1l-1,-1v-1h-1l-1,-1h-1l-2,-2l-1,-2h-2v1h-4l-1,1v2h-2v1l-1,2h1l-1,1v1h-1l-1,1h-2l-1,1l-2,-2v1h-2l1,-1v-1h-1v-2l1,-1v-3l-1,-1l2,-1l1,1h5v-4l-1,-1v-1h-2v-1h3v-2l1,1l2,-1v-1h1l1,-1l1,-2l1,-1h2v-5h2l-1,1h1v1l-1,1v1h1v1l1,-1h2v1h1l2,-2l1,1h1v-1h1v-3l1,-1l1,1v-1l-1,-1v-1h4l1,-1h-4l-1,1l-2,-2v-4l2,-1v-1l-1,-1l-2,2l-1,2l-1,1v3h1v2h-1v2l-1,2h-1v1h-1v-2l-1,-1l-1,-2l-1,-1l-1,2h-1l-2,-1v-5l2,-1l3,-3l2,-3l3,-3h2l1,-2h3l2,1l-1,1h2l1,1h3l3,1l1,1v1l-1,1h-1l-3,-1h-1l2,1v2l1,1h1v-1h-1l1,-1l2,1v-1l1,-2h1l1,1v-1l-1,-1v-1l-1,-1l2,1h1l-1,1l1,1h1v-1l1,-1l2,-1h1v1l1,-1h1l1,-1l1,1l1,-1h-2l1,-1h2l1,1l4,1v-1h-2v-1h-1l-1,-1v-3h2l1,1v1h1l1,1l1,2h1v3l1,1v-1h1l-1,-1l1,-1h-1l-2,-2v-1l-2,-1l1,-1l-1,-1h1l1,2l-1,-1l1,-1h2l1,1l-1,-1l-1,-2h4l-2,-1v-1h1l1,-1h3l1,-1h1v-2l2,1h-1ZM253,820l1,1v2h-1v1l1,1h1l1,1h3l-1,-1v-2h-1v-2h1v-1l-1,-1h-1l1,1l-1,-1v-1h-2v-2h-1h1v-2l1,1v-3h-2l-1,1h-1v1h-1l-1,2l2,1v1l1,1Z"/>
<path class="tl" d="M146,770h-1v-1h1l1,1ZM137,769h-2l1,-1h1l1,1ZM220,771l-1,1h-1v-1h-1l2,-1v1ZM139,768h-2l1,-1v1ZM146,769h-1v-1h1l1,1ZM144,769h-1l-1,-1h-1h1v-1h1l1,1ZM268,768l-3,1v-2ZM215,769l3,1h-2v3h-1l-2,-1h1l-1,-1l-2,-1v-1l1,-1l1,1h1v-1h1ZM220,768h1l-1,1h-4l-1,-1h3ZM234,767l-1,1h-1v-1h-1h4ZM264,768h-4l-2,-1l-1,-1h1l1,-1l4,2ZM153,767v1h-1l-2,1h-2v-1h1h-1v-1l1,-1h2v-1h1v1h1ZM167,764h3v1h-3l-1,1h-1l-1,1l-2,1h-3v1h-1v1h-2l-2,1h1l-2,1h-4l-1,-1h2v-1h2v-1h-1h1l1,-1h1l-1,-1h4l-1,-1h-3v-1l1,-1h6v-1h3v1l2,-1l1,1ZM190,764l3,1h-6v1h5l-1,1l2,-1h4v1l-2,1h-1l-2,2v2l1,1h-2l1,1l-1,1v1h-1l1,1h-3l1,1v1l-1,-1l-1,1h1l1,1v1h-2l-1,-1v1l-1,1h3l-4,2h-3l-1,1l-4,2h-1l-2,1h-1v1l-2,2v1l-1,1l-1,2h-1l-1,-1h-1l-1,-1v-2l-1,-1v-1l1,-1l-1,-2l1,-1l1,-2h1l1,-1v-1l-1,1h-1v-1l1,-1h1l-1,-1h-1l1,-1v-4l-1,-1h-5v-1l-1,-1h1l-1,-1l1,-1h2l3,-1h1l-2,-1h1l3,-1h1v-1h9l1,1l-1,-1h1l2,-1h3l2,-1Z"/>
<path class="th" d="M129,901v-1l1,-1h-1v-6h-1v-1h2v-1v1v-1h1v-1h2v1h-1h1v3h3v1h2v2h1v1h-1h1v1h2v2h1v3h-1v-1h-2v1h-1v1h-1v2h-1v1h-1v-1h-2v1v-1v1h-1v-1h-1v-2h-1v-1h1h-1h1h-1v-2h-1Z"/>
<path class="tg" d="M66,970h1l1,-1h4v-1h5v-1h5v-1h6v-1h6l1,-1h7v-1h8v-1h9l1,-1h11v-1h14v-1h20v-1h79v1h20v1h14v1h11l1,1h9v1h8v1h7l1,1h6v1h6v1h5v1h5v1h4l1,1h1M21,927h6v-1h7v-1h8v-1h10v-1h10v-1h12v-1h14v-1h18v-1h23v-1h38v-1h75v1h38v1h23v1h18v1h14v1h12v1h10v1h10v1h8v1h7v1h6M5,877h399M21,826h4v1h7v1h8v1h9v1h10v1h11v1h14v1h16v1h21v1h32v1h103v-1h32v-1h21v-1h16v-1h14v-1h11v-1h10v-1h9v-1h8v-1h7v-1h4M66,783v1h5v1h4v1h5l1,1h5v1h6l1,1h6l1,1h7v1h10v1h10v1h13l1,1h17v1h36v1h21v-1h36v-1h17l1,-1h13v-1h10v-1h10v-1h7l1,-1h6l1,-1h6v-1h5l1,-1h5v-1h4v-1h5v-1M140,755h-1v1h-3v1h-2v1h-2v1h-2v1h-2v1h-2l-1,1h-1l-1,1h-1l-1,1h-1v1h-2v1h-2v1h-2v1h-1l-1,1h-1v1h-2v1h-1l-1,1h-1v1h-2v1h-1v1h-2v1h-1v1h-2v1h-1v1h-1l-1,1h-1v1h-1v1h-2v1h-1v1h-1v1h-1v1h-2v1h-1v1h-1v1h-1v1h-1v1h-1v1h-1l-1,1h-1v1h-1v1h-1v1h-1v1h-1v1h-1v1h-1v1h-1v1h-1v1l-1,1v1h-1v1h-1v1h-1v1h-1v1h-1v1l-1,1v1h-1v1h-1v1h-1v2h-1v1h-1v2h-1v1h-1v2h-1v1h-1v2h-1v2h-1v1h-1v2h-1v2h-1v2h-1v2h-1v2l-1,1v2h-1v2l-1,1v2h-1v3h-1v4h-1v4h-1v5h-1v9h-1v13l1,1v8h1v5h1v4h1v4h1v3h1v3h1v2h1v3h1v2h1v2h1v2h1v2h1v2h1v2h1v1l1,1v1h1v2h1v1h1v2h1v1h1v1h1v2h1v1h1v1l1,1v1h1v1h1v1h1v1l2,2v1h1v1h1v1h1v1h1v1h1v1h1v1h1v1h1v1h1v1h1v1h1v1h1v1h1v1h2v1h1v1h1v1h1v1h1v1h1l1,1h1v1h1v1h1v1h2v1h1v1h1l1,1h1v1h1v1h2v1h1v1h2v1h1l1,1h1v1h2v1h1v1h2v1h2v1h1l1,1h1v1h2v1h2v1h2v1h2v1h2v1h2v1h2v1h2l1,1h2v1h2v1h2M153,755h-1v1h-2v1h-2v1h-1v1h-2v1h-2v1h-1v1h-2v1h-1v1h-2v1h-1v1h-2v1h-1v1h-1v1h-2v1h-1v1h-1l-1,1h-1v1h-1v1h-1v1h-1v1h-1l-1,1h-1v1h-1v1h-1v1h-1v1h-1v1h-1v1h-1v1h-1v1h-1v1h-1v1h-1v1h-1v1h-1v1h-1v1h-1v1h-1v1h-1v1l-2,2v1h-1v1h-1v1h-1v1l-1,1v1h-1v1h-1v2h-1v1h-1v1l-1,1v1h-1v2h-1v1h-1v2h-1v1h-1v2h-1v2h-1v2h-1v2h-1v2h-1v2h-1v2h-1v3h-1v2h-1v3h-1v3h-1v3h-1v3h-1v4l-1,1v4h-1v6l-1,1v30h1v6h1v5h1v4h1v3h1v3l1,1v2l1,1v2h1v3h1v2h1v2h1v2h1v2l1,1v1h1v2h1v2h1v2h1v2h1v1h1v2h1v1h1v2h1v1h1v2h1v1h1v1h1v2h1v1h1v1h1v1l1,1v1h1v1h1v1h1v1h1v1h1v1h1v1l3,3v1h1l3,3h1v1h1v1h1v1h1v1h1v1h1v1h1v1h1l1,1h1v1h1v1h1v1h1l1,1h1v1h1v1h1l1,1h1v1h1v1h2v1h1v1h2v1h1v1h2v1h2v1h1v1h2v1h1l1,1h1v1h2M166,755h-1v1h-1v1h-1l-1,1h-1v1h-1v1h-1v1h-1v1h-1v1h-1l-2,2h-1v1h-1v1h-1v1h-1v1h-1v1h-1v1h-1v1h-1v1h-1v1l-2,2v1h-1v1h-1v1h-1v1h-1v1l-1,1v1h-1v1h-1v1h-1v2h-1v1h-1v1l-1,1v1h-1v1h-1v2h-1v1h-1v2h-1v2h-1v1h-1v2h-1v2h-1v2h-1v1l-1,1v1l-1,1v1l-1,1v2h-1v2h-1v2h-1v3h-1v2h-1v3h-1v3h-1v3h-1v3h-1v4h-1v4h-1v5h-1v6h-1v8h-1v30h1v7l1,1v5h1v5h1v4h1v4h1v3h1v3h1v3h1v3h1v3h1v2h1v2h1v2l1,1v2h1v2h1v2h1v2h1v1h1v2h1v2h1v2h1v1h1v2h1v1h1v2h1v1l1,1v1h1v1h1v2h1v1h1v1h1v1l1,1v1h1v1h1v1h1v1l1,1v1h1v1h1v1h1v1h1v1h1v1h1v1h1v1h1v1h1v1h1v1h1v1h1v1h1v1h1v1h1l2,2h1v1h1v1h1v1h1v1h2v1h1"/>
<path class="tg" d="M179,755h-1v1h-1v2h-1v1h-1v1h-1v1h-1v2h-1v1h-1v1l-1,1v1h-1v1l-1,1v1h-1v1l-1,1v1h-1v2h-1v1l-1,1v1h-1v2h-1v2h-1v2h-1v2h-1v2h-1v2h-1v2h-1v2h-1v2l-1,1v2h-1v2l-1,1v2h-1v3h-1v3h-1v3h-1v3h-1v4h-1v4h-1v4h-1v4h-1v5l-1,1v5h-1v8h-1v11h-1v29l1,1v10l1,1v7h1v6h1v5h1v4l1,1v4h1v3l1,1v3h1v3h1v3h1v3h1v3h1v3h1v2h1v3h1v2h1v2h1v2l1,1v2h1v2h1v1l1,1v1l1,1v1h1v2h1v2h1v1l1,1v1h1v2h1v1h1v2h1v1h1v2h1v1h1v1l1,1v1h1v1h1v1h1v2h1v1h1v1h1M192,755h-1v3h-1v2h-1v3h-1v3h-1v3h-1v3h-1v3h-1v3l-1,1v3h-1v4h-1v4h-1v4l-1,1v4h-1v5h-1v6h-1v6l-1,1v7h-1v8h-1v11l-1,1v18h-1v29l1,1v18h1v11h1v8l1,1v7h1v6h1v6h1v5h1v5h1v4h1v4h1v4h1v4h1v3h1v3l1,1v3h1v2l1,1v2h1v3h1v3h1v2h1M205,755v243M217,755h1v3h1v2h1v3h1v3h1v3h1v3h1v3h1v3l1,1v3h1v4h1v4h1v4l1,1v4h1v5h1v6h1v6l1,1v7h1v8h1v11l1,1v18h1v29l-1,1v18h-1v11h-1v8l-1,1v7h-1v6h-1v6h-1v5h-1v5h-1v4h-1v4h-1v4h-1v4h-1v3h-1v3l-1,1v3h-1v2l-1,1v2h-1v3h-1v3h-1v2h-1M230,755h1v1h1v2h1v1h1v1h1v1h1v2h1v1h1v1l1,1v1h1v1l1,1v1h1v1l1,1v1h1v2h1v1l1,1v1h1v2h1v2h1v2h1v2h1v2h1v2h1v2h1v2h1v2l1,1v2h1v2l1,1v2h1v3h1v3h1v3h1v3h1v4h1v4h1v4h1v4h1v5l1,1v5h1v8h1v11h1v29l-1,1v10l-1,1v7h-1v6h-1v5h-1v4l-1,1v4h-1v3l-1,1v3h-1v3h-1v3h-1v3h-1v3h-1v3h-1v2h-1v3h-1v2h-1v2h-1v2l-1,1v2h-1v2h-1v1l-1,1v1l-1,1v1h-1v2h-1v2h-1v1l-1,1v1h-1v2h-1v1h-1v2h-1v1h-1v2h-1v1h-1v1l-1,1v1h-1v1h-1v1h-1v2h-1v1h-1v1h-1M243,755h1v1h1v1h1l1,1h1v1h1v1h1v1h1v1h1v1h1l2,2h1v1h1v1h1v1h1v1h1v1h1v1h1v1h1v1h1v1l2,2v1h1v1h1v1h1v1h1v1l1,1v1h1v1h1v1h1v2h1v1h1v1l1,1v1h1v1h1v2h1v1h1v2h1v2h1v1h1v2h1v2h1v2h1v1l1,1v1l1,1v1l1,1v2h1v2h1v2h1v3h1v2h1v3h1v3h1v3h1v3h1v4h1v4h1v5h1v6h1v8h1v30h-1v7l-1,1v5h-1v5h-1v4h-1v4h-1v3h-1v3h-1v3h-1v3h-1v3h-1v2h-1v2h-1v2l-1,1v2h-1v2h-1v2h-1v2h-1v1h-1v2h-1v2h-1v2h-1v1h-1v2h-1v1h-1v2h-1v1l-1,1v1h-1v1h-1v2h-1v1h-1v1h-1v1l-1,1v1h-1v1h-1v1h-1v1l-1,1v1h-1v1h-1v1h-1v1h-1v1h-1v1h-1v1h-1v1h-1v1h-1v1h-1v1h-1v1h-1v1h-1v1h-1v1h-1l-2,2h-1v1h-1v1h-1v1h-1v1h-2v1h-1M256,755h1v1h2v1h2v1h1v1h2v1h2v1h1v1h2v1h1v1h2v1h1v1h2v1h1v1h1v1h2v1h1v1h1l1,1h1v1h1v1h1v1h1v1h1l1,1h1v1h1v1h1v1h1v1h1v1h1v1h1v1h1v1h1v1h1v1h1v1h1v1h1v1h1v1h1v1h1v1h1v1l2,2v1h1v1h1v1h1v1l1,1v1h1v1h1v2h1v1h1v1l1,1v1h1v2h1v1h1v2h1v1h1v2h1v2h1v2h1v2h1v2h1v2h1v2h1v3h1v2h1v3h1v3h1v3h1v3h1v4l1,1v4h1v6l1,1v14l1,1h-1v15h-1v6h-1v5h-1v4h-1v3h-1v3l-1,1v2l-1,1v2h-1v3h-1v2h-1v2h-1v2h-1v2l-1,1v1h-1v2h-1v2h-1v2h-1v2h-1v1h-1v2h-1v1h-1v2h-1v1h-1v2h-1v1h-1v1h-1v2h-1v1h-1v1h-1v1l-1,1v1h-1v1h-1v1h-1v1h-1v1h-1v1h-1v1l-3,3v1h-1l-3,3h-1v1h-1v1h-1v1h-1v1h-1v1h-1v1h-1v1h-1l-1,1h-1v1h-1v1h-1v1h-1l-1,1h-1v1h-1v1h-1l-1,1h-1v1h-1v1h-2v1h-1v1h-2v1h-1v1h-2v1h-2v1h-1v1h-2v1h-1l-1,1h-1v1h-2"/>
<path class="tg" d="M269,755h1v1h3v1h2v1h2v1h2v1h2v1h2l1,1h1l1,1h1l1,1h1v1h2v1h2v1h2v1h1l1,1h1v1h2v1h1l1,1h1v1h2v1h1v1h2v1h1v1h2v1h1v1h1l1,1h1v1h1v1h2v1h1v1h1v1h1v1h2v1h1v1h1v1h1v1h1v1h1v1h1l1,1h1v1h1v1h1v1h1v1h1v1h1v1h1v1h1v1h1v1l1,1v1h1v1h1v1h1v1h1v1h1v1l1,1v1h1v1h1v1h1v2h1v1h1v2h1v1h1v2h1v1h1v2h1v2h1v1h1v2h1v2h1v2h1v2h1v2l1,1v2h1v2l1,1v2h1v3h1v4h1v4h1v5h1v9h1v13l-1,1v8h-1v5h-1v4h-1v4h-1v3h-1v3h-1v2h-1v3h-1v2h-1v2h-1v2h-1v2h-1v2h-1v2h-1v1l-1,1v1h-1v2h-1v1h-1v2h-1v1h-1v1h-1v2h-1v1h-1v1l-1,1v1h-1v1h-1v1h-1v1l-2,2v1h-1v1h-1v1h-1v1h-1v1h-1v1h-1v1h-1v1h-1v1h-1v1h-1v1h-1v1h-1v1h-1v1h-2v1h-1v1h-1v1h-1v1h-1v1h-1l-1,1h-1v1h-1v1h-1v1h-2v1h-1v1h-1l-1,1h-1v1h-1v1h-2v1h-1v1h-2v1h-1l-1,1h-1v1h-2v1h-1v1h-2v1h-2v1h-1l-1,1h-1v1h-2v1h-2v1h-2v1h-2v1h-2v1h-2v1h-2v1h-2l-1,1h-2v1h-2v1h-2"/>
<rect x="117" y="879" width="35" height="39" fill-opacity="0" stroke="#ffffff" stroke-opacity="0.5" stroke-width="5.0"/>
<rect x="119" y="881" width="35" height="39" fill-opacity="0" stroke="#113311" stroke-opacity="0.8" stroke-width="5.0"/>
<rect x="118" y="880" width="35" height="39" fill-opacity="0" stroke="#45a249" stroke-opacity="0.9" stroke-width="5.0"/>
</svg>
