<?xml version="1.0" encoding="UTF-8" standalone="no"?>
<svg xmlns:svg="http://www.w3.org/2000/svg" xmlns="http://www.w3.org/2000/svg" xmlns:xlink="http://www.w3.org/1999/xlink" height="1000" width="1000">
<!-- made with pythonshp (GPL): github.com/sanjayrao77/pythonshp , underlying data may come from naturalearthdata.com -->
<!-- 
COPYRIGHT: THIS SVG FILE IS RELEASED INTO THE PUBLIC DOMAIN
 -->
<!-- 
vars : {
	'cmdline' : 'pythonshp.py publicdomain wiki1 belize locatormap'
	'title' : 'Belize locator'
	'version' : '1.0.5'
}
 -->
<defs>
	<radialGradient id="watergradient" cx="500" cy="500" r="500" fx="500" fy="500" gradientUnits="userSpaceOnUse">
		<stop offset="0%" stop-color="#70add3"/>
		<stop offset="11%" stop-color="#6eaad0"/>
		<stop offset="22%" stop-color="#6ca7cc"/>
		<stop offset="31%" stop-color="#6ba5c9"/>
		<stop offset="41%" stop-color="#69a2c6"/>
		<stop offset="51%" stop-color="#679fc2"/>
		<stop offset="59%" stop-color="#669dbf"/>
		<stop offset="67%" stop-color="#649abc"/>
		<stop offset="75%" stop-color="#6297b9"/>
		<stop offset="81%" stop-color="#6095b6"/>
		<stop offset="87%" stop-color="#5f92b2"/>
		<stop offset="92%" stop-color="#5d8faf"/>
		<stop offset="95%" stop-color="#5b8dac"/>
		<stop offset="98%" stop-color="#598aa8"/>
		<stop offset="100%" stop-color="#5685a2"/>
	</radialGradient>
	<radialGradient id="landgradient" cx="500" cy="500" r="500" fx="500" fy="500" gradientUnits="userSpaceOnUse">
		<stop offset="0%" stop-color="#dddddd"/>
		<stop offset="11%" stop-color="#d7d7d7"/>
		<stop offset="22%" stop-color="#d1d1d1"/>
		<stop offset="31%" stop-color="#cccccc"/>
		<stop offset="41%" stop-color="#c6c6c6"/>
		<stop offset="51%" stop-color="#c0c0c0"/>
		<stop offset="59%" stop-color="#bbbbbb"/>
		<stop offset="67%" stop-color="#b5b5b5"/>
		<stop offset="75%" stop-color="#afafaf"/>
		<stop offset="81%" stop-color="#aaaaaa"/>
		<stop offset="87%" stop-color="#a4a4a4"/>
		<stop offset="92%" stop-color="#9e9e9e"/>
		<stop offset="95%" stop-color="#999999"/>
		<stop offset="98%" stop-color="#939393"/>
		<stop offset="100%" stop-color="#888888"/>
	</radialGradient>
	<radialGradient id="bordergradient" cx="500" cy="500" r="500" fx="500" fy="500" gradientUnits="userSpaceOnUse">
		<stop offset="0%" stop-color="#444444"/>
		<stop offset="11%" stop-color="#3f3f3f"/>
		<stop offset="22%" stop-color="#3a3a3a"/>
		<stop offset="31%" stop-color="#363636"/>
		<stop offset="41%" stop-color="#323232"/>
		<stop offset="51%" stop-color="#2d2d2d"/>
		<stop offset="59%" stop-color="#292929"/>
		<stop offset="67%" stop-color="#242424"/>
		<stop offset="75%" stop-color="#1f1f1f"/>
		<stop offset="81%" stop-color="#1b1b1b"/>
		<stop offset="87%" stop-color="#161616"/>
		<stop offset="92%" stop-color="#121212"/>
		<stop offset="95%" stop-color="#0e0e0e"/>
		<stop offset="98%" stop-color="#090909"/>
		<stop offset="100%" stop-color="#000000"/>
	</radialGradient>
</defs>
<style type="text/css">
<![CDATA[
.c2 {stroke:#45a211;fill-opacity:0;stroke-width:2}
.fs {font:14px sans;stroke:#ffffff;stroke-width:2px;stroke-opacity:0.8;text-anchor:middle}
.ft {font:14px sans;fill:#000000;fill-opacity:1;stroke-opacity:0;text-anchor:middle}
.sb {stroke:url(#bordergradient);fill-opacity:0}
.sg {stroke:#000000;fill-opacity:0.0;stroke-opacity:0.2}
.sh {fill:#45a211;stroke:#000000}
.sl {fill:url(#landgradient);stroke:url(#bordergradient)}
.sp {stroke:url(#landgradient);fill-opacity:0}
.sr {stroke:url(#watergradient);fill-opacity:0}
.sw {fill:url(#watergradient);stroke:url(#watergradient);stroke-opacity:0.8}
.tb {fill:#eeeeee;stroke:black;stroke-width:2}
.tg {stroke:black;stroke-opacity:0.2;fill-opacity:0}
.th {fill:#45a211;stroke:#378100}
.tl {fill:#aaaaaa;stroke:black}
.w2 {stroke:#ffffff;fill-opacity:0;stroke-opacity:0.6;stroke-width:2}
.zb {stroke:#444444;fill-opacity:0}
.zh {fill:#45a211;stroke:#115511}
.zl {fill:#dddddd;stroke:#444444}
.zp {stroke:#dddddd;stroke-dasharray:3 3;fill-opacity:0}
.zr {stroke:#5685a2;stroke-dasharray:3 3;fill-opacity:0}
.zw {fill:#64a8d2;fill-opacity:0.9;stroke-opacity:0.9}
]]>
</style>
<circle cx="500.0" cy="500.0" r="500.0" fill="url(#watergradient)"/>
<path class="sl" d="M855,148l-1,-1l5,5v1v-1v1h1l1,2l1,1h1v1h1v1h-1v-1h-1h1h-1l1,1l1,2l2,2h1l1,2l2,2v1h1l2,2l2,3v1h1v1l1,1v1l1,1v1h1v1h1h-1h1l2,4l4,4v1l5,5v2l1,1h1v1l1,1v1h1v1h1v2l1,1v1l2,2l1,2h-1l1,1h-1v2l1,1l-1,1h1v2l1,1v1v-1h-1l-2,-2v-1h-1l-1,-1v-1v1v-1l-2,-1v-1v3h-1v1h-1h1h-1v-1l-1,-2l-3,-3l-1,-2l-2,-2h1h-2v-1l-1,-1v-1l-1,-1l1,2v1v-1h-1v-1l-2,-2v-1h-1v-1l-1,-2l-2,-2v-1h-1l-1,-3h-1v-1l-5,-5v-1h-1l-1,-1v-1v1l-1,-2h-1v-1l-2,-2h-1v-1h-1l-2,-2v-3h-1v-2h-1h3v-1h2v-2l1,1v-1h1v-1l-8,-8v-1v1l-5,-5h1v1l2,1l-2,-2h-1v-1h-1l-1,-1h1h-1l-4,-4l-2,-1l-2,-2h-1v-1h-1l-1,-1h-1l-1,-1v1v-1v1v-1h-1v1v-1h-2v-1l-1,-1h-1v-1h-1v-1l-1,-1h1h-1v-1l2,1v-1h-1h1v-1h-1l-3,-3h-1l-1,-1v-1h-1v-1l2,2h1v-1h-1v-1h-1l-2,-2v-1l-2,-2h-1l-4,-4v-1h-1v-1l-1,-1v-1h-1v-1h-1l1,1h-1v-1h-1h1h-1v-1l-1,-1h-1v-1h-1l-2,-2h-1l-5,-5h-1l-1,-1v-1l-2,-2h-1h1l1,1l-1,-1l1,1l-2,-2h-1v-1h-1h1h-1l2,1l-2,-1l-2,-2h-1h1h-1l-2,-2h-1l-1,-1h1h-1h1l1,1h1h-1h1h-1h1l1,1v1h1l-2,-1v-1h-1v-1h-1l-1,-1l1,1h1h-1l1,1h1l2,2h1l3,3h1l2,2h1l4,4h1l2,2h1l6,6h2l10,10h1l1,1h1l16,16h1l10,10Z"/>
<path class="sp" d="M786,90l1,1h1l2,2h1l3,3h1l2,2h1l4,4h1l2,2h1l6,6h2l10,10h1l1,1h1l16,16h1l11,11"/>
<path class="sl" d="M314,122l-2,2v1h-1l-2,2l-2,1h-1v-1l2,-2h1h-1h1v-1l1,-1v-2h1v-1l-1,1h-3v1h-1v1h-1v-1h1v-1h1l2,-1h1l-1,-1v-2l1,-1h-1v-1h1v-1l-2,-1l3,-3v1h1l-1,-1h1v-1l1,1l-1,-1l-1,1v-2h1v-1l2,-1h-1l-1,1l-1,-1v-1l1,-1v-1l2,-2v-1v1h-1v1l-4,4v1l-2,-2h1v-1l1,-1h1h-1l1,-1h-1v1h-1v-1h-1v3l-1,1h-2v-1l-1,-1v-2h1v-2h-1h1h-1v-1l-1,-1v-1h2v-1h1v1h-1h1v-1h1v-1h-1l-1,1h-3l-1,-1h1v-1h-2l-1,-1h-4v-2l1,-1h1l1,-1h-1v1h-4l1,-1h1h-1v-2h1l1,-1h1h-2v1h-1v-1l-1,1v-1v1h-1v-1l2,-1h-1v1h-1v-1v1h-1h1h-2v1h-1v1h-1h1v1h-2l-2,2h-2v-1h-1l-1,1v-1v1h-2l-1,1h-1v-1v1h-2v1h-1v-1v1h-2v-1h1l1,-1h2l2,-1l-2,1v-1l1,-1h1l1,-1h1l2,-1v-1h1v-1h5l1,1v-2h1l1,-1h1h-1l-1,1l-1,-1h-2v1h-3v1h-2l-2,1l-1,1h-2v1h-2v1l-1,-1v1h-3v1h-2v1h-2v1h1v1h-1l-1,1h-2l-1,1h-2v1h-1l-1,1l-1,-1l-1,1h-2v1h-2l-1,1v-1v1h-2v1h-2v1h-3v1h-4v1h-1h1h-1v1h-1v-1v1h-1l-2,1h-2v1v-1h1v-1v1v-1l-1,1h-3v1v-1l-1,1h-1l1,-1h1v-1l-1,1h-1l-2,1l-1,1v-1h1v-1v1h-1l-1,1v-1l-1,1h-1h1v-1h1l1,-1v1v-1h2v-1h2l1,-1h2l1,-1v1l-1,1h1l2,-2h2v-1h2l2,-1h2v-1h2l1,-1h2l1,-1h1v-1h1l1,-1h1l1,-1h1h-1l1,-1h1v-1h3v-1h1l2,-1h-2l-1,1h-3l1,-1h1v-1v1h1v-1h-1l-1,1v-1v1h-1l-2,2h-1l3,-3h-1v-1h1h-1l-1,1v-1l-1,1h-2l1,-1h1v-1h1v-1h1l1,-1h1l4,-4h1l1,-1h2v-1l-1,1h-1l-1,1h-1v1h-4v-1h1l1,-1v-1h1v-1h1l1,-1h1v1h-1h1v1v-1h1v-1h1h-1v-1h1v-1h1h-1h1h-1l2,-2h1h-1h1v-1v1h1v-1h2v-1h1l2,-1h1l1,-1v1v-1h1l1,-1h2l1,-1h1v1h-1h1h-1h3l1,-1h4l1,-1h1v-1l2,-1h1v-1h2l1,-1h-3l-1,1h-1l1,-1h1h-2v1v-1h1l-1,-1h-2v-1h1l1,-1h1l1,-1h2v-2h1v-1h3l1,-1h1l1,1v-1h4l-1,1h-1l-1,1h1v1h1l1,-1h1v1h-1l1,-1h1h-1v-1h1l1,-1h1v-1h1l-1,1h-1l-1,1l1,1h-1h2v-1h-1l1,-1h1l1,-1h-1h1h-1v-1h1v-1h2v-1l3,-2v-1h1v-1h2l2,-1h5l2,-1h2l1,-1l3,-1h5l-1,1l1,-1h1l1,-1h3v1h1v-1h4l1,-1v1h-1v1h-1h1l-1,1h2v1h1h-2v1h-1l1,1h3v1h1h-1h1v1h2v1l1,1h4l-1,1l1,1h-1h1l1,1h2l-1,1l1,1h-1l2,2h1v1h1v-1h1v-1l1,-1v1l1,-1v1l1,-1h3v-1l1,1h-1h1h-1v1h-1h3l1,-1h5v-1v1h1v-1h4l-1,1h-3l-1,1h-5v1h-4v1h-2l1,1v-1h2v-1h4v-1h2l-1,1l1,-1v1h-1h1l1,-1h3l2,-1h1v1h-1h2l1,-1h1l1,-1h1v-1h2v1h-1v2h-1v2h3v-1h1l1,-1h1h-1h2v-1v1h-1v2h-2v1h2l1,-1h2v-1h3v1h2v1l1,1h2l2,2h2l1,1h2l-1,-1h2l1,1h1v1h1v1l-1,1h-4v1h-1h1l1,1h5l1,1v-1h9v1h1v1h2v1h1v1h-2v1l1,1v1h1l-1,-1v-1h1v-1v1h1v-4l1,-1h4v-1h3v-1h1h-3v1l-1,-1v1h-6l2,-2h6l1,-1h1v1h1v2h1v1h4l2,2h13v-1h1l1,1v1h2l1,-1h-1v-1h-2v1h-1v-3l1,1h1v-1h2v1h2l-1,1h1l2,-1v1l-1,1v1h-1v2h1l1,-1v1h-1h2v1h-4l2,1v1v-1l-1,-1h3v-3h-1l1,-2h4v-1h1l1,-1h1v-2h-1v1h-2v-1h1v-1h1l1,-1v1h1v-1h-3l-1,-1v1l-2,-1h-1l-2,-2v-1h2v-1h1h-1h1h-2v-1l1,-1h-1h1v-1h2v-1h1l1,-1h2v1h2v1h1v1h1v1h-1l1,1h1v1h1v1h1h-3v1h1l-2,1h2v1h2v-1h1v1h-1h2v1h-1l2,2v1h-1l1,1h1l1,-1v-2h1v-1h2v1h2v1h1v3l-1,-1h-1l1,1v2h1l1,1v1h2v-1h2v-2l2,-2v-2h2v-2h-2v-1h1h-1v-1h10v1h-1h1v1h3v1h-1v1h2l-1,1h-3v1h1v1h1v1h1v1h2v3h-2v1h-1v1h-2v1h-2v-1l-1,-1h-2v-1h-2v1v-1h1v1h2v1l2,2h-1l-1,-1h-1v1l-1,-1h-2v-1h-5v1h2v1h1v1l-3,1v1h-1v1h-4l-1,-1h-1v-1h-1l-1,-1h-7l1,1v-1h2l1,1h2l2,2h7v1h1h-1v1l-3,2v1l-2,1h-2v1l-1,-1h-2v-1l-1,1h1v1l-1,-1v2h-7v-1h-4l-2,-1h-1h1h-1v1h2l3,1h1h-1v1v-1h3v1h2l1,1v2h-6v1h1v1l-1,-1v1h-2v1h1v1h-1v-1h-1l-1,1h1h-2v1h-1h1v1h-2v1h-1l1,1h-1v1l-1,1h-1v1l-1,1h-1l1,1h-1v2l-1,3v2h-1h1v1h1v1h1l-1,2h1v-1l1,-1h4v1l1,2v2h1v3h1h-1v2h-1h3l6,-1h2l2,1h1l2,1h2l1,1h1l1,1h1l3,3h3l4,2h2l2,2v1v-1h12v1h3v1l1,1l-1,2v2h1l1,1v6l3,3h1v1h-1v1h3l1,1l2,1v1h1v1l1,1l-1,1l1,-1h2l2,2l2,1v1v-1l-2,-1v-3h1v-1h1v1h1l1,1v1v-2h1l-2,-2h1v-1l1,-1v-2l-1,-1h-1v-2h-1v-2l-1,-1v-1l-1,-1l1,-1h-1l1,-1h-1v-1h-2v-1l-2,-2l4,-1l2,-1h1v-1h2v-1l2,-1v-1h1v-1l1,-1v-5l-1,-2l-2,-2v-1l-2,-2l-2,-1h-2v-1l-2,-1h-1v-1l1,-1v-1h1v-3h1l1,1l-1,-1h1v-1h-1l1,-1h-1l-2,-2h1v-1h-1v-1h-2v-1h1v-3h-1v-1h-1v-1l-1,-1v-1h1l1,-1h4l3,1h1l-1,1l1,-1h3l1,1v-1h2v-1h2l1,1h1l1,1h1v1h3v1h2v2h4l1,1h3v1h1v-1h2v1h-1v2h1v1h1v1h-4l1,1v-1l2,1h1l1,1v2h2v3l-1,-1l-1,1h2l1,-1h4v1l1,1h1v2l-1,1h-1v1l1,-1h1v-3h1v1h1l-1,1l1,-1v-1v1h1v1l2,-2h1v-2h2v1h1v1v-1l-1,-1h1v-1h-1h1v-1h1h-2v-1l1,1v-1l-1,-1h1h-1v-2h1h-1v-3h1l1,1h1h-1v1h2l1,1h1v1h1v1h1v1v-1h1l1,1h-1v1h-1h3v1h2v2h-1v1v-1h3v1l-1,1v1l2,-2h1l1,1h1l2,2l-1,1h-1h3v2h2l1,1h1v2h-3l-1,-1h-1h1l1,1h2v1h-1h3l-1,1h2v1h1h-1h1v1h2v-1l1,1h1v1v-1h1v1l1,1v2h1v-1h3v1v-1h1v1l-1,1v1v-1l1,-1v-1h2v1l1,1h5v1h3v1h-1l-1,1h-1l-1,1v1h-1l-1,1h-1l-1,1v-1v1h-1v1h-1l1,1h1h-1v1h1v-1h1l1,-1h1v-1l1,-1v-1h2v-1h1h2l2,1h1v1l-1,1h1v1v-1l1,-1h3v1h2l2,2v1l1,1v1h1l-1,1h-1h3v1h-1h1l1,1v2l-1,1h-1l-1,2h-2l-2,1h-1l-1,1h-1l-1,2v1l-1,1v1l-2,2h-3l-1,1h-22l-2,1h-4v1h-1l-1,1v4h-1l-3,1l-1,1h-1v1h-1l-1,1l-1,2v1l-1,1v1h-1l-1,-1h-3l-3,-1l1,1h4l1,1h1v3l-2,2l-1,2l-2,2h-1l-1,1h-2l-2,2l-2,1l-1,1v1h-1l-1,1v1l-2,1l-1,1h-2l2,1h-1l-3,3h4l3,-1h12l1,-1v-1h1l1,-1v1h1v-2l1,-1v-1h1v-1l-1,-1v-1l1,-1v-3l1,-1v-1l1,-1v-1l1,-1l1,1v1h2l1,-1h2l3,3v2h1v2l1,2v2h2l1,1v2h1v1l1,-1h1v2h1v1l-1,1h-2v1h-1v1h-1l-1,-1h-1v1l-1,-1v2h-1v-1h-1v-1v1h-1l1,1l-1,1l1,1h-2v1h-2v-1v2h-2l-1,1h1l-2,2v2l-1,1v1h1v1h1v1h-1v1h-1v1h2l1,2h1v1l1,1h2v-1l-1,-1v-1v1l-1,-1h1l2,2v1h-1l-2,1h-1l-1,-1l-2,2h-1v-1l-1,-1v3h-4l-1,1h-5l-1,1l-2,1l-2,2v-3l-1,-1l1,1v3l-1,1v1h1l1,1v3h-1v3h-1v2h-1v1l-2,2v-2h-1l-1,-1h-1l-1,-1v-3h2v-1l-1,1h-1v1l-1,1v1h1l1,1v2l2,2h1l-1,1h1v3h-1v1l-2,4h1l-1,1h-1v3l-1,-1v-1l1,-2v-2l1,-1h-2l1,-1h-1v-2l-1,1h-1v-1h-1v-2l1,1h1l-1,-1h-1v-1l-1,1v-1h1v-1h-1h1v-1l-1,-1l1,-1h1v-2h-1v2h-1v-1v1h-1v1h-1h1v1h-1l1,1v3l1,1h-1l-1,-1l3,3v1v-1h-1l-1,-1h-1l-1,-1v1l-1,-1h-2l1,-1v-1l1,-1h-1v1l-1,1v2h2l1,1h3v1h1l1,1v1l-1,1h-1l-1,-1l1,1h2l-1,1h1v1h-1v1l-1,-1l1,1h1v1h1l-1,1h-1v-1h-1v-1h-3l-1,-1v1h3l2,2v1h1l1,-1h2v1l1,1l1,4l2,2v1v-1l-2,-1v-2l-1,-2h-1v-1v2h1v1l1,1h-2l-1,-1v2l-1,-1v1h-2v-1h-1v1h1v1h4v2h1v-2h1v1h1v1l-2,1v1h-3l-1,-1v1h-2l-1,-1v1l3,1h1v1h-1v1h-1l-2,-1l1,1v1h2l2,-1v1l-1,1h-1v1h-4v1v-1h-1v1h1l-2,2h-1l-1,1v1v-1v2h-3l-1,1l-2,1h-1l-1,2v2l-1,-1v-1v3h-1l-2,2h-1v1l-1,1h-2v1h-1l-1,-1v1h1v1h-2v-1v2h1l-1,1h-1v1l-1,1v1h-1v3h-1l1,1l-1,1v-1v2l-1,1v1l1,1l1,3v1l1,3l3,6l3,4v4l1,1l-1,-2l-1,-1v-1l-1,-1l1,-1h-1v-1v3l1,1v1l4,8l1,1l1,2v8h-1v1l-1,1v2l-1,1l-2,1h-3v-1h1v-1h-1l-1,-2l-1,-1v-1h-2l-2,-2v-3h-1v-1l1,-1l-1,1h-1v-3h-1v1h-1v-1l-1,-1l-1,-3h-1v-1l2,-2v-1l-1,1v-1h-1l1,1h-1v1h-1v-4l1,-2v-4l-5,-4l-6,-6l-2,1h-1v1h-1l-2,1h-1l-1,1h-2l-1,-1h1v1v-2h-1l-2,-2h1h-1l1,-1h-1v1h-1l-5,-2h3l-1,-1l-1,1v-1l-1,1h-3l-2,1v-1h1l1,-1h-2v1h-1v1h-1v-1v1h-1l-3,1v-1h1v-1h-1v-2l-1,1v2h-1l-1,-1l-2,1l-1,-1h-1l-1,1h-2l-1,1h-1l-3,-1h-1v-1h-1l-1,1v1l1,1h2l1,-1h1v1h-1l1,1h1v-1h1v1h1v1h-2v1h-1v1l1,1l2,1h1v1h1l-1,1v1v-1h-1v1h-1l1,-1h-1v-1h-1v-1h-2v-1l-3,-1v1h1v3h-1l-1,-1v-1h-2l-1,1v1l-4,-2h1l-1,-1v-1h-2l-1,-2h-3v2h-5v-1h-2l-1,-1h-5v-2l-1,2v1l-5,1l-1,1l1,-1h-1v-2h-1v1h-1v-1v2l1,1l-3,3h-1v1l-3,1l-1,1h-1l-2,1h1l1,-1h-4l-1,-1l1,2v1h-2v1h-1v1l-1,-1v1h-1v1l1,-1l-2,2h-2l1,2v2l-1,1h-1l-1,-1v1h2v1l-1,1v3l2,5h1l-1,1v3l-3,5l-1,5l-1,3v3l-1,3v4l-1,1v4l1,1l1,3l1,1v1h1v1l-1,1v-2l-2,-4v4h1v1l2,5v1l4,5l3,5v2l3,3v1l1,1l-1,-1v1h1l1,1h1h-1v-1l1,1h3l1,1h2l1,2l1,1h3l3,-1h1l1,-1h7v-1l2,-1h4l1,1v1h4l1,-1v-1h-1v-1h1v-1l1,-1h1l1,-1l2,-1v-4l2,-1v-7l1,-3h1l3,-2l9,-1l1,-1h4v-1h1l2,1h1l1,1h2l1,-1h-1l1,-1l2,2h1v3l-2,4l-3,3v4h-1l-1,1v1h2l-1,1h-1v2l1,-1v2l-2,4v2l-1,1v-2h-1v-3l-1,1v1l-2,2h2l1,1l-1,1v3h-1v2h1l-1,2v6l-2,2v1h-2l-1,2v2h1l1,1l1,-1l-1,-1l3,2h2v-1h1l2,-1l1,1h2l3,1l2,-1h3l2,-1h2l-1,-1h2l2,1h4l1,-1l2,1l1,1h1l-1,-1l3,1l4,3l-2,-1l-1,1v1h1v-1l1,1h1v1h2v-1h-1l2,1l1,1v1h1l-1,2v-1h-1v1h1l1,4l-1,1v1l-1,1l-1,2v11h1l-1,1v-2h-1l-1,1h1v4h-1v1l1,1v2h-1v4l1,1h1v2l2,4l2,2h1l1,2l1,1l2,1h1l1,1v2h1v2h1v1l2,-1h1h-1v-1h1v1l4,2h1l1,-1h2l2,-2l4,-1l3,-3h1l1,-1l1,1h4v1h4l3,1l2,2l2,1l2,2v3h1v1l1,1v1l-1,1v1l-2,2l-1,-1v-1l-1,1l1,1h-1v1l-1,2v-1l-2,-2l-2,-3v-2h1v-1l1,-1h1l2,2v-1l-2,-1v-1h-1l-1,1v-1h-1v1l-1,-1v-1l-1,-1h-1v-1h-1l-2,-2h-3l-3,3v1l-3,2v1h-2l-1,1v1h1l1,2l2,1v2h-2l-1,1v1h-4v-2l-2,-2v-1h-1v2h-1v-1h-2l-1,-2v-1l-1,-1h-4v-1h-5v2l-2,-2h-1v-2l-1,-1h-1l1,1v1h-3l-1,-1l1,-1v-3l-2,-2l-2,-1l-1,-1h-2l-1,-1h-1v-3l-5,-2v1h1l2,2l-1,1v1h-1l-2,-2l-2,-1h-1l-1,-2v-2l1,-1v-2l-1,-1h-1l2,-1v-1l-2,-2l-5,-3l-1,-3l-4,-4h-1l-4,-4l1,-1l1,1h1v-1l-1,-1v-2h-3v1l-1,1h-4l-2,-1l1,1l-3,-1l-4,-2h-4l-2,-2l-4,-1l-1,-1h-6l-4,-2l-3,-3h-1l-2,-3l-8,-8l-2,-1l-1,-1l-2,-1l-1,-1h-1l1,1l2,1l-4,-1l-1,-1h-1l1,-1l-1,1h-1v-2l-1,1v1h1h-1l-1,1l-6,2l-4,2h-2l-2,-1l-8,-2l-3,-2l-3,-1l-2,-2h-2v-1h-3l-3,-1l-2,-2h-2l-5,-2l-2,-2l-2,-1l-4,-4h-3l-2,-1h-2l-2,-2l-3,-1l-1,-1l-1,-2l-2,-1l-3,-3h-2l-5,-5l-1,-3v-1l-1,-1v-2h2l1,-1v-1l-1,-1h-1h1v-1l1,-1h1v-4l-2,-2l-1,-2l1,-3l-2,-4h-1l-1,-2l-1,-1l-1,-3l-3,-3v-2l-5,-4l2,1v-1h-2l-2,-2l-1,-2v-1v1h2v-1h-1l-2,-1v-1l-2,-1v-1h-2l1,-1v-1v1h-3l-1,-1l1,-2v-1l1,-1h1v-1h-1l1,-1h-1l-1,-2h-2v-1l-1,-1v-1l-2,-1l-1,-1v-1h-1v-2l1,-1v-1h-2l-1,-1h-1l-1,-1l-1,-3h-1v-1l-1,-1v-1l-1,-1v-3l-1,-1v-1l-1,-2v-1l-1,-1v-4l-1,-2v-1l1,-1v-2l-1,-1h-2v-2h-1l-1,-1v1h-2l-2,-2h-1v-1h-1h1v2h-1l-1,3v10l2,2v1l2,2l1,3v1h1v1h1v3h1l1,1l-1,1h1l-1,1l1,1v1l1,2l1,1v3h1l1,1l-1,1l1,1v1l1,1v-1h-1v-1h1l1,1v3h1v7h1v1l1,2v2l1,1v1h-1v3l2,2h1v-2l2,2v1h1v2h1v1l1,1v3l-1,1h-1l-1,1v1h-2v-1l-1,-3v-2h-1l-1,-2l-7,-7h-1v-1l-1,-2h-1l1,-1v-3l1,-1v-1h-1l1,-1l-2,-4v-1h-1l-3,-2v-3l-1,1h-3v-1l-1,-1h-1v-1l-1,-1h-1l-1,-1v-1l-2,-2v-1h-1l1,-1h1l2,1h1l1,-1v2h1l-1,-1l1,-1h-1l2,-2v-4l-1,-1l-2,-3l-1,-1v-1l-2,-2l-2,-1v-2h-1l1,-1v-3h-1v-3l-1,-2v-3l-1,-1v-2h1v-1l-1,-1v-2l-1,-1v-8l-4,-4l-1,1v-3h-2l-2,-1v-1l-2,-2h-5v-1h-1v-1l1,-1v-3h-1v-1l1,-1l-1,-1v-1h-1v-2l-2,-4h1v-1l1,-1v-2l-1,-1l-1,-2v-2l1,-1v-1h1l-1,1l1,1v1h1v-2l-1,-1v-1l1,-1h1l2,1l1,-1v1v-1h-4v-1l-1,1v1l-1,1v-1h-1v-1h-1v-1l1,-1v1v-2l-1,-1v-1l-1,-2v-2l1,-1v-2h1v-2l-1,-2v-3l1,-1v-1h1v1v-1l1,-1l1,-2l1,-1v-3l1,-1v-4l1,-1v-2l3,-3h1v-2h1v-1l2,-2l1,-2v-1h1v-1l1,-1l2,-4l1,-1l2,-4v-1l2,1l1,-1v1h1h-1v-1h-3v-1l1,-1v1l1,-1v-2l2,-1h-2l1,-1v-2l1,-2v-1h-1l1,-1v-1l1,-1v-1v1h1l1,1h1l3,1h2v2l-1,1v-1l-2,2h-1v1h1h-1v-1h1l1,-1h1l1,-1v-1l1,1h-1v1h-1v1v-1v2l-1,1l-1,-1v1v-1l-1,1h-1l1,1h1l1,-1h1v-1h1v-2h1v-1h1v-1l-1,-1h1v-2h1v-1l1,-1h-1v-2h-1v-2h1h-1l1,-1v-1h1h-1v1h-3v-2h1v1h1h-1v-1l1,-1v-1h1v-1h-1v1l-2,2h-1l-1,-1v-4h1l1,-1v-1h1v-1l-1,1v1h-1v1h-2v-1l-1,1l-1,-1h-2v-1h2h-2v-1h1v-1h-4v-2l1,-1l2,-1v-1h1h-1l-1,1h-1v-1l2,-2v-1h2v-1h2l1,1v1v-1l-1,-1h1v-1l1,-1h1v-1v1h-1v1l-3,1h-2l-3,3v-2l2,-1h1v-1h1h-2v1v-1l2,-2h1v-1l-2,1v-1l1,-1v-2h-1v-1l1,-1h1v2h2v1v-1h-2v-1h1v-1h1v-1h-1v1v-1l-1,1h-1l-2,2h-1v1l-1,-1v-1h1l-1,-1v-1h1l2,-2h1h-1l-1,-1l2,-2h1l1,-1l2,-1v-1h1l2,-1h-1v-1v1h-1v1h-1l-1,1v-1h1l1,-1v-1l1,-1Z"/>
<path class="sl" d="M698,858l-6,2l-4,1l-8,1l-1,1h-6v-1h-1v1l-1,1v1h1h-1l1,1l-1,2h-1v1h-1l-1,1v1l-1,1l1,1l-1,1h-1l-4,2h-6l-2,-1h-2v-1l-1,1h-1v1l-1,1v3l-1,2v1h2v1h3v-1h-1l1,-1h3v1l-1,1v1h-1v1h-3v-1l-1,-1l-1,1h-2l-1,1l2,1h1l-2,1h-1l-2,2h-1v1l-1,1v1l-1,1v1h-1l-2,1v2h-4l-1,1h-1v1h-3l-3,3l-2,1v1h-1v1l3,3h5v1l-1,1v1h-1l-1,1h-1h2l-1,1l-3,1l-1,1h-1l-2,1h-1l-2,2l-2,1v1l-3,3h-3v-1l-1,1h-2h3v1h-2l-1,1h-1v1h-1v1h-1l-1,1h1v2h-2l1,1v-1l1,1v1l1,1h-5l-1,1h-2l-3,1h-1l-1,1v1l-2,1v1l-1,1h-6v-2h3v1h-1h1v-1l2,-1h1l1,-1h-1l-3,1h-1l-1,1h-2v1h-1l-1,-1h1v-1l1,-1h2l2,-1l1,1l1,-1h1h-7v1h-1v1h-4l2,-1h1l1,-1h-1v1h-4v-2h-1h4v-1v1h2v-1h3v1h-1h1v-1l1,-1l-2,-2l-1,1h3v1h-2l-2,1h-2v-1h-2v-1h1l1,-1h-3v-1h-2v-1l1,-1h1v-1h1l1,1v1h2l1,-1h1h-1l1,-1h-1v1l-1,1h-1v-1h-1l1,-1l1,1v-1h-3v-1h1l1,-1h1l-1,-1l1,-1h1v-1h1v-1h1h-2v1l-1,1v-3l2,-2h1h-3v-1l1,-1h4l1,1h1v-1h-1v-2l-1,1h-1l-1,1h-1v-1h-1v-1h2l-1,-1h1l1,-1v-1h1l-1,-1h-4v-1h-2l-1,1l1,1h-2v-2h2v-1h1l1,-1h1v-2h5l1,-1v-1h2l-1,1v1h-1v1l-1,1h-1h2v-1l1,-1h1v1l-1,2h-1l-1,1h1l2,-2v-1l1,-1l-1,-1v-1h3v-1h1l1,1v-1h-2v-2h2l3,-1v-2h-2l-1,-1h1v-1l2,-2l-1,-1h1l1,-1v-1h1v-2l1,-1h1h-1v-1l1,-1l1,1v1v-2l1,-1h-2v-1h2l1,-1v-1v1h-4l-1,1h-4l1,-1h-1v-4l2,-2v-1l1,-1v-1l2,-1l2,-2v-2l-1,-3v-2l1,-1v-1l-1,-2h1v-3h3l1,-1v-2h1l1,-1v-1l2,-2v-1l1,-1v-1h1v-1h1v-1l2,-1v-1l2,-2v-2l1,-1v-1l3,-3v-3l1,-1l1,-2l1,-1v-13l1,-2l2,-1l1,-1v-2l1,-2l-1,-1v-3h1l1,-1v-1l1,-1l1,-2v-2l2,-2v-2l1,-1v-1l1,-1l1,-2v-3l1,-1v-4h1l1,-1v-5l1,-3v-3l1,-1v-1h1l-2,-2l1,-1v-1h1v-1l1,-1l1,-2v-3l1,-1v-1l1,-2v-8l1,-3v-14h-1l-3,-2v-1h-1l-2,-2h-1v-2l-1,-1h-1l-1,-1h-1l-3,-3h-1l-2,-1h-1l-3,-1l-1,-1l-2,-1h-1l-3,-2h-2l-1,-1l-4,-3h-1l-1,-1v-1l-2,-2h-1l-2,-2v-1l-1,-1v-1h-1v-2l-1,-1h1l1,-2v-2l-3,-3v-1l-2,-2v-2l-1,-1h-1v-1h-1v-3l-3,-3v-1l-1,-1v-2l-3,-5l-1,-1v-2l-3,-6l-1,-1v-3l-2,-2v-1l-3,-3v-1l-2,-3v-1l-3,-3v-1l-1,-1l-6,-3l-3,-2l-1,-1l1,-1h2v-3l-2,-3v-1l-1,-1v-1l-1,-1l1,-3v-1l5,-5l2,-1l2,-2h2v-1l1,-1v-2l1,-2v-1l-1,-1v2h-1v-2h-1v2l-1,1h-2l-3,-3h-1v-2h1v-7l-1,-2l1,-1h2v-1l1,-1v-1h1l-1,-1v-1l1,-2h1l2,-2v-3l-1,-1v-2h1l1,-1h1v-1h3l4,-2l1,-1v-2h-2l2,-2h2v-5h1v-1h4v-1h1v-1h1v-1l1,-1v-1h1v-1l1,-1v-1h1v-2l2,-3h-1v1h-1v-2l-1,1v-3l-1,1v-1h1v-1l1,-1v-3l-1,-2v-3l-1,-1l2,-1v-1l-1,-2l-1,-1v-1h1v-3l-3,-3l-1,-2h-1l1,-2v-1h1l-1,-1l1,-1v1l1,1l2,-2v-1l1,-1v-1l-1,-1v-1h-1v-3h1v1l2,1l1,1v1l1,1l-1,1h2v-3l-1,-1v-1h-1l1,-1h1l4,-3l1,-3h1l1,-1h2v-2l-1,-1l1,-1v-3l-1,1v-1l1,-1l1,-2v-1l1,-1h1l1,-1l1,-2h1l3,1h1h-1v2h1v-1l1,-1v-3h8l4,-4l4,-2l1,-1v-2h1l2,-1l1,-1h1l2,1l1,2v1l-3,3h-3v2l1,2v1l1,1v1l1,1v1l-1,2l-1,1v1l-1,1l-1,2l1,2v1l1,1h1v2l1,1h1l2,-1h1v-1l1,-1v-4l-2,-2v-1l-1,-1l-1,-2v-1l-1,-1l1,-1v-1h2l5,-3l3,-1l1,-1h2v-2h-1l-2,1v-1l-1,-1v-1l1,-1v-1h2v1h1v3l2,2l3,-1l1,1h2l4,2v2l1,1h-1l1,1v1l1,1h2l3,-1h3l1,-1h7v1h1l2,2h2l2,1h4l5,-4h3l-1,-1h-3l3,-1h3l2,-1h7l3,-1v1h-1l-1,1h-4l-2,1h1v1h1v1l1,1l-1,1h1v-1h1l1,2v1h1v-1l1,1v-2h1l1,1v1l1,1v-2h2l1,2h3l1,1v2h-1v2h-1v3l-1,1h-2l1,1h3l1,-1h3l1,-1h3v1l1,1h2l1,1l2,1l4,4h1l1,1v8l-1,1h1v-3l1,-1h3l5,5h1v1l1,2v1v-1l1,-1h6l2,1v1v-2l1,-1h3l1,-1h3l3,1h2l1,1v1l-1,1v1l1,-3v-1h1l3,2h1l3,1l3,3h1v2l1,-1l1,1v1l1,1v1v-2h1l1,3v2l1,-2v-1l2,2l2,7v2l1,3v1l1,1v3h1v1l1,1h2l1,1l1,2v3h-1v1l-2,1v1l-1,1l-2,4v1h-1l-1,2h-2v3l-1,1l-1,2l-1,1v3h-1v2h-2l-3,2h5l7,-7v1h1l-1,1v1h1v2l1,1v1h-1l2,2l1,-1h1l1,-1h1l1,1l1,-1l2,-1l-1,2v2l-1,1v2l-1,1h1v-1h1v-2l2,-4l1,-1l2,-3h1v1h1v-4l1,-1v-2h1v-1h2v-1l1,1l1,-1v1h1l-1,-1h4v1h1l1,1h2v1h2l1,1h2l1,2v1l1,-1v-1h1l1,1v1h1h-1h1l1,1v2h-1v2l2,-2v2h-1v2h-1v2l-1,3h1l2,-4v-2h2l-1,1v2l1,-2l1,-1h1l2,-1v-1h1l2,1h1l1,1l2,1h1l1,-1h1v1h2l1,-1h2l2,-1h3l1,1h1l1,1h1l2,2v1l1,1h1l1,1v1l3,3l1,2h1l1,2h2v1h1l1,-1h5v1l1,2v6l1,1v8l-1,2v4l-4,11l-2,2l-1,2v1h-1l-3,6l-3,3l-1,3h-1v1l-1,1v1v-2l-1,2v2l-2,4l-2,3l-1,1l-2,4h-1v-3l-1,1v1l-1,2v1l-1,1v1h-1v1h1v1h-1v3l-1,5l-1,2v5l-1,3l-1,2l-1,3l-1,2v2l-1,2v1l-1,2v1l-1,1v1h-1v1h-159v157Z"/>
<path class="sp" d="M859,700h-159v157"/>
<path class="sl" d="M997,444v13l1,1l-1,1v3h-1v-2v1l-1,1v1l1,-1l-1,1v1h-1h1l-1,1v2l-1,2v5h-1v-1h-1l-1,-3l-1,-1l-1,-2l-1,-4l-1,-1v-1l-2,-2v-2l-1,-1v-1h-1l-1,-1v-2h-1v-1l-1,-2v-2l-1,-1h1v-2h-1v1v-3l-1,-1v-3l-1,-1v-2h-1v-1v1v-1l-2,-2l-1,-2v-2l-1,-1v1v-1h-1v-1l-1,-1v-3l-1,-1v-1l1,-1v-1v1h-1v1l-1,1v-2l-1,1v-1l-1,-1v-1v1l-1,-1v-2h-1v-4l-1,-1v-2l1,1v-1h1v-1l1,-1l-1,1h-1v1l-1,-1v-1l-1,-1v-2l-1,-1v-1l-1,-1v-1l-1,-1h-1h1h-1v-1l1,-1v-8l-1,-1l-1,-3v-3l-1,-3v-2l-1,-4v-2l-2,-6l-1,-1l-1,-3v-1l-1,-1v-2l-1,1v-5l-1,-1v-1l-1,-1l-1,-2v1l-2,-4v2l-1,-4h-1l-1,-4v-5l-1,-2v-3l-1,-1v-3l-1,-1v-2h-1v-9l-1,-1l-1,-3v-1l-1,-1l-1,-3v-1l-1,-2v-6l-1,-2l-1,-3l-1,-2v-3l1,-2v-2l-1,-2v-5l-1,-2l-1,-3l-1,-1v-1l-1,-2l-1,-1v-1l-2,-2v-1l-1,-2l-2,-2l-2,-6l-1,-1l-1,-2l-2,-6l-1,-1v-5l-1,-1v-2l-7,-11l-1,-1v-1h1l3,3h1h-1l1,-1v-1l-1,-1l2,2v-3h-1v-1l-1,-1v-1l-2,-4l-1,-1v-1l-1,-1v-2l-1,-1v-1l-1,-1v-1l-1,-1h1v1l-1,-2l-1,-1v-1h-1h1h-1v-1l1,1h-1h1l1,1v1l2,2v1l3,3v1l3,3v1l2,2v1l3,3v1l1,1v1l3,3v1l2,2v1l1,1v1l3,3v1l1,1v1l2,2v1l2,2v1l1,1v1l1,1v1l2,2v1l2,2v1l1,1v1l1,1v1l2,2v1l1,1v1l1,1v1l1,1v1l1,1v1l1,1v1l2,2v1l1,1v1l1,1v1l1,1v1l1,1v2l1,1v1l1,1v1l1,1v1l2,2v2l1,1v1l1,1v1l1,1v1l1,1v2l1,1v1l1,1v2l1,1v1l1,1v1l1,1v2l1,1v1l1,1v2l1,1v1l1,1v1l1,1v2l1,1v1l1,1v2l1,1v2l1,1v2l1,1v2l1,1v2l1,1v2l1,1v2l1,1v2l1,1v2l1,1v2l1,1v2l1,1v3l1,1v2l1,1v4l1,1v2l1,1v3l1,1v3l1,1v3l1,1v3l1,1v4l1,1v3l1,1v4l1,1v5l1,1v4l1,1v5l1,1v5l1,1v7l1,1v6l1,1v2Z"/>
<path class="sp" d="M897,197h1l1,1v1l2,2v1l3,3v1l3,3v1l2,2v1l3,3v1l1,1v1l3,3v1l2,2v1l1,1v1l3,3v1l1,1v1l2,2v1l2,2v1l1,1v1l1,1v1l2,2v1l2,2v1l1,1v1l1,1v1l2,2v1l1,1v1l1,1v1l1,1v1l1,1v1l1,1v1l2,2v1l1,1v1l1,1v1l1,1v1l1,1v2l1,1v1l1,1v1l1,1v1l2,2v2l1,1v1l1,1v1l1,1v1l1,1v2l1,1v1l1,1v2l1,1v1l1,1v1l1,1v2l1,1v1l1,1v2l1,1v1l1,1v1l1,1v2l1,1v1l1,1v2l1,1v2l1,1v2l1,1v2l1,1v2l1,1v2l1,1v2l1,1v2l1,1v2l1,1v2l1,1v2l1,1v3l1,1v2l1,1v4l1,1v2l1,1v3l1,1v3l1,1v3l1,1v3l1,1v4l1,1v3l1,1v4l1,1v5l1,1v4l1,1v5l1,1v5l1,1v7l1,1v6l1,1v3"/>
<path class="sl" d="M715,48v1h2v1h2v1v-1v1h2l1,1h1v1h1l2,1h1v1h1l1,1h2v1h1l1,1h1l1,1h1l1,1h1l2,2h1l1,1h1l1,1h1l1,1h1l1,1h1l2,2h1l1,1h1l1,1h1l2,2h1l1,1h1l3,3h1l1,1h1l2,2h1l1,1h1l2,2h1v1h1l2,2v-1h-1l-1,-1h-1v-1l-2,-1h-1h1h-1v-1h-1l-2,-2h-1l-4,-2h1h-1l-1,-1h-1l-2,-2l-4,-2l-1,-1h-1l-1,-1h-1l-1,-1h-1l-1,-1l1,1h1l1,1l2,1l1,1l-1,-1l2,2h2l3,3h1v1h1v1h1h-1v-1v1v-1h-2l-1,-1h-1l-1,-1h-1v-1l1,1l-1,-1h-1h1h-1l-1,-1h-1l-1,-1h-1h2v1h1v1h1h-1l-2,-2h-1v-1v1l-1,-1h-1v-1h-1l-1,-1h-1l-1,-1l1,1h1l-2,-1l-1,-1l1,1h1v1h1l2,2h1l1,1l-1,-1h-1l-1,-1h-1v-1v1l-1,-1h-1v-1h-1l-1,-1l1,1h-1l-1,-1h-1v-1h-1h1h-1v-1h-1h1l-1,-1h-1l-1,-1l1,1h1v1v-1h-1h1v1h1h-1h1v1h-1v-1h-1l-1,-1h-1l-1,-1h-1v-1v1h1l-1,-1h-2v-1v1v-1h-1l-2,-2v1h1h-1l-1,-1v-1h-1l-1,-1l1,1v1v-1h-1l-1,-1h-1v-1v1h1l-1,-1h-1l-1,-1h-1l-1,-1h-1h1h-1v-1l1,1v-1h-2v-1h-2l-1,-1l1,1h1l2,1l1,1l-1,-1h-1l-1,-1h-1l-1,-1h-1l-2,-1h-1v-1h-1l-1,-1h-1h1h-2l-2,-2v1h1l-1,-1h-1h1h-1l-1,-1h-1l-2,-1h-1v-1h-1l-1,-1h-2l-1,-1h-2v-1h-2l-1,-1h-1l-1,-1v1v-1h-2l-1,-1h1l1,1l-1,-1h-1h1h-2l-2,-1h-1l-1,-1h1l1,1l-1,-1h-2l-1,-1h-2v-1h-2l-1,-1h-2l-1,-1h-2v-1l1,1h-1v-1h-2l-1,-1h-1h1l1,1h1h-1l-2,-1h-1v-1h-1h1l1,1h1l2,1l-2,-1h-1l-1,-1h-3v-1h-2l-1,-1l1,1h1h-1l-1,-1h-3v-1h-3v-1h-1h1l1,1h2l1,1h1l-1,-1h-1l-3,-1h-2l-1,-1v1h3v1h3l1,1h2l1,1h2l1,1h2l1,1h2l1,1h2l1,1h2l1,1h1l1,1h2l1,1h2l1,1h1l1,1h2l1,1h1l1,1h2l1,1h1l1,1h1l1,1h1l1,1h2l1,1h1l1,1h1l1,1h2l1,1h1l1,1h1l1,1h1l1,1h1ZM647,22h-1ZM260,61h1l1,-1h1l1,-1h1l2,-2h1l1,-1h1l1,-1h2l1,-1h1l1,-1h1l1,-1h1h-1h1v-1h2l1,-1h1l1,-1h1l2,-2h2l1,-1h1l1,-1h1l1,-1h1l1,-1h2l1,-1h1l1,-1h1l1,-1h1l1,-1h2l1,-1h2l1,-1h1l1,-1h2l1,-1h1l1,-1h1l1,-1h3l1,-1h1l1,-1h1l1,-1h3l1,-1h1l1,-1h1l1,-1h3l1,-1h2l1,-1h2l1,-1h2l1,-1h2l1,-1h1h-1l-1,1h-2l-1,1h-2v1h-3v1h-3l-1,1h-2l-1,1h-1l-2,1h-2l-2,1h2l1,-1h1l1,-1h1v1h-2l-1,1h-1h1h-1l-1,1h-1l-1,1h-2l-1,1h-1l-1,1l1,-1h2l1,-1h2v-1h3l1,-1l-1,1h-1v1h-2v1l-1,1h-1l-1,1h-1v1h-2v1l-2,1h-1v1h-2l-1,1h1v-1v1h-2v1h-1h1l1,-1l-1,1h-1l-1,1l-4,2v1h-2v1h-2l-1,1h-1l-1,1h-1l-1,1h-1h1h-1l-1,1h1l1,-1h1v-1h2l1,-1h1l-1,1h-1h2v-1v1l-2,2h-1l-2,1v1h-1l-1,1h-2l-1,1v-1h1h-1l-1,1h-1v-1h1h-1v1h-1h1h-2v1h-2l-1,1v-1l-1,1h-1v1h-2v1v-1h1h-1l-1,1v-1h1h-1h1v-1h1l1,-1h1v-1h-1h2v-1h2l1,-1h1v-1h1v-1l-1,1v-1l1,-1h2v-1h2l1,-1h1h-2v1v-1h1h-1l-1,1h-2v1h-2v1h-2l-1,1h-3l-1,1v-1h1l2,-1l1,-1h-1v1h-1l1,-1h-1v1v-1h1l-1,1h-1l-1,1h1v-1v1h-1l-1,1h-1l-1,1h1v-1v1h-2v1h-1l-1,1h-2v1h-2v1h-1l-1,1h-1l-1,1h-1v1h-2l1,-1h1v-1h1h-1l-1,1h-3l-1,1h1h-3l-1,1l1,-1l-1,1h-1l-1,1h-2l-1,1h-1v1h-2v1h-1h1l2,-2l2,-1h1v-1h1h-1l-2,1v1l1,-1Z"/>
<path class="sp" d="M734,58l1,1h1l1,1h1l2,2h1l1,1h1l1,1h1l1,1h1l1,1h1l2,2h1l1,1h1l1,1h1l2,2h1l1,1h1l3,3h1l1,1h1l2,2h1l1,1h1l1,1M775,83h1l1,1M652,24h2l1,1h2l1,1h2l1,1h2l1,1h2l1,1h2l1,1h2l1,1h1l1,1h2l1,1h2l1,1h1l1,1h2l1,1h1l1,1h2l1,1h1l1,1h1l1,1h1l1,1h2l1,1h1l1,1h1l1,1h2l1,1h1l1,1h1l1,1h1l1,1h2M645,22h2M262,60h1l1,-1h1l2,-2h1l1,-1h1l1,-1h2l1,-1h1l1,-1h1l1,-1h1M281,51l1,-1h1l1,-1h1l2,-2h2l1,-1h1l1,-1h1l1,-1h1l1,-1h2l1,-1h1l1,-1h1l1,-1h1l1,-1h2l1,-1h2l1,-1h1l1,-1h2l1,-1h1l1,-1h1l1,-1h3l1,-1h1l1,-1h1l1,-1h3l1,-1h1l1,-1h1l1,-1h3l1,-1h2l1,-1h2l1,-1h2l1,-1h2l1,-1h2M258,63l2,-2"/>
<path class="sl" d="M729,487h-1l1,-1h1ZM705,471v2h-5l1,-1h3v-1ZM694,474h-1v-1ZM728,489v-1l1,-1v2ZM691,409l-1,1l-1,-1h1ZM692,409h-1ZM692,414h1l-1,1h-1v-1ZM681,409h3l1,2h-1v1h-1l-1,1h-6v1h-3v-3h-1v-1h1v-1h7ZM686,412h-1v-1h2ZM668,413h-1ZM308,117h-1l1,-1h1v1ZM306,119v-1h1v-1v1h1h-1ZM311,107h-1h1v-1ZM293,91l1,-1v1ZM291,94l1,-1h1ZM285,90v1l-1,-1ZM279,87l1,-1ZM230,107h-1h1v-1ZM230,108l-1,1v-1ZM211,111l1,-1ZM191,113h1ZM303,54h1ZM280,61h-1h1l-1,1h1v-1h1v1h-1l-1,1v1h-2l-1,1h-1h1v-1h1v-1h1v-1h-1h1l1,-1ZM259,78h-1h1v1h-2v1h-1v1h-1v-1v1h-1v-1l2,-2h2ZM260,99h1h-1v1l-1,1h-1v-1h-1v1h1h-2v1h-3v1h-2l2,-1h-1h1h-1h1v-1h-1v1l-1,1v-1l2,-2h1l1,-1h1v1h-1v1l3,-3h1l-1,1h1l1,-1h1h-1ZM223,106l-1,1v1h-4v-1h1l2,-1h1ZM301,122v1h-2l-1,1l1,-1v-1h1ZM305,126v1h-1l1,-1h-1h1v-1h1ZM308,120l-1,1h-1v-2h1v-1l2,-1v2ZM309,124h-1l-1,1h-1l1,-1h-1l-1,1h-1l2,-2h1l1,-1l2,-1v2h-1ZM308,114h1v1l-1,1h-1v-1v1l-1,1h-2l2,-2v-1h1ZM299,126h1v1h-1v1l-1,-1v-1l1,-1v-1h1v1h-1ZM291,90h1h-2v-1h1ZM284,92v-1h2l1,-1h2l-2,1h-2v1ZM288,89l-1,1h-1h1h-1l1,-1h2ZM290,87v-1h1ZM255,102l-1,1v-1ZM265,96v-1h1ZM259,98v1v-1h1ZM241,107h1ZM247,105v-1h1ZM249,105h-1v-1h1ZM229,106h1l-1,1h-1l1,-1h1ZM224,108v-1h1h-1ZM220,110v-1ZM229,108h-1l-1,1l1,-1h1l1,-1v1ZM214,109h-1h1l1,-1v1ZM215,109h-1h1v-1h1h-1ZM252,90h-1l1,-1h1ZM255,74h-1v1v-1l1,-1h1h-1ZM232,90l-1,1ZM202,113h-1ZM199,113v1v-1h1ZM196,114v-1h1h-1ZM228,93v1ZM191,113v1ZM192,112v1v-1h1ZM190,113h1v-1h1h-1v1ZM192,109v-1h1h-1ZM188,112l1,-1ZM197,102h1ZM304,111v2l-2,2v1h-1v1h-1v1h-1v-1l1,-1h1v-2h-1h1l1,-1v-1l-1,1h-1l1,-1v-1h2l1,-1v1h1ZM310,107v1h1l-1,1v1v-2h1h-1v1l-1,1v1h-1v1h-1l-1,1h-1v-1l1,-1h1v-1l2,-2v-1h1v-1ZM307,106v1h-1v1l1,-1h1v1l-1,1h-1v1l-1,1v-1h-1v-1v1h-1v1l-1,-1l1,-1v-2h1l1,-1v1v-1h1ZM304,118h1v1h-1l1,1v1l-1,1v1v-1l-1,1h1v1l-1,1h1l-1,1h-1v1l-1,1v-2h-1h1v-1l-1,1v-3h1l1,-1h-1v-1h1v-1h1h-2l1,-1h1v-1ZM305,115v1h-1v1h-1v1h-1l-1,1h-1l2,-2h1v-2h1v-1h1ZM264,96h1v1h-1v1v-1h-1v1v-1l-1,1l1,-1h-1v1h-1v-1h1l1,-1v1l1,-1h1ZM207,112h-2l-1,1h-1h1v-1h2v-1h1v-1h1v1h-1ZM212,110h-1h1v-1h1l-1,1h-1v1h-1h1h-2v1h-2l1,-1h2v-1v1v-1h1v-1h1ZM194,114v-1Z"/>
<path class="sl" d="M193,113h1l1,-1h1h-1v1h-1ZM191,113l-1,1v-1v1l2,-2ZM190,113v-1h1v-1h1l-1,1ZM192,110v-1h1h-1ZM192,108l1,-1h1h-1v1ZM203,98l-2,2v-1h1v-1ZM65,366l-1,1v-2l1,-2v-3l2,-2v-2l1,1v2l1,1l-1,1v1l1,1l-2,2h-1ZM66,346v1h1v1h-1l-1,-1ZM67,350h1v2h-2l1,-1h-1v-2h1ZM65,344v1h-1v-1v1h-1l1,-1v-2h1v1ZM62,338h-1v-1l1,-1v-1l1,1v1h-1ZM59,338l1,-1v1ZM66,350l-1,1v-2h1ZM604,230h1l1,-1l1,1v-1h1l-3,2h-2v1l-3,1h-5v-1h1v-1h2l1,-1v1h1v-1h4l1,-1ZM624,205h-1v-1h1ZM594,234v-1h1ZM616,227h-2l1,-1h1ZM611,226v-1ZM619,227h-1h1v-1ZM590,269v1ZM592,274h-1h1v-2l-1,-2h1v3ZM590,275h-1ZM586,279h-1l1,-1ZM550,346h-1v-1ZM550,345v1v-1l-1,-1h1ZM564,357l-1,2v-2h1v-1l1,-1ZM475,321v1l-1,-1h-1l1,-1ZM435,334h-1l1,-1ZM437,332h-1h1v-1l2,-1h1h-1l-1,1ZM432,339h-1h1v-2l2,-2l-1,2ZM450,324l2,-1v-1v1ZM432,348l-1,-5v-3v3l1,4ZM282,276h-1ZM285,283h-1v-1h1ZM291,286h-1v-1ZM283,277h-1v-1h1l1,1ZM284,276h2v1h-1ZM292,282v1h-1v-2ZM314,170l-1,-1v1v-1h1ZM312,171v-1ZM313,173v1h1l-1,1v-3l1,-1v1h-1ZM610,226v-1ZM596,240l-1,1ZM590,254v-2l1,-1v1ZM585,279h-1ZM557,361h-1v-1ZM561,360v-1ZM559,361h-1l1,-1h1h-1ZM553,309v1h-1ZM555,362h-1l1,-1ZM564,339v-1l-2,-4v1l1,1ZM553,362h1ZM500,316h-2v-1ZM503,315v1h-2l1,-1ZM495,317h-1l1,-1ZM498,319h-1l1,-1l-1,-1h1v1ZM527,320v1l-1,-1h3ZM311,178v-1ZM312,177h-1v-1h1ZM313,171v-1ZM622,206l-1,-1h1ZM977,645v-1ZM976,589v-1h1ZM209,756v1l-1,-1ZM705,409l-2,1l1,-1ZM655,926h2v1h-1h1l2,-1v1h-1l1,1h-3v1h-3v1h-2l-1,1h-2v-1h1l2,-1l1,-1h1v-1h1v-1ZM647,928h1l1,-1h3v1h-2l-1,1l-2,1h-2v1h-3l1,-1h2l1,-1h1h-1h1v-1h-1v-1h1ZM643,929v1h-1h1ZM654,929v1ZM648,927h1ZM648,931h-1ZM559,406h1l-1,1h-1v-1ZM570,403h-1ZM571,403h-1l1,-1h1ZM670,294v-1h1ZM694,408h-1ZM692,409v-1h1ZM694,406h-1ZM635,383h-2v-1l1,1ZM633,383l-1,-1h1ZM629,383h1ZM713,422h-1v-1ZM826,129v-1ZM824,127v1ZM791,104h1h-1l-2,-2h1v1h1ZM810,116v1h1v1l-1,-1h-2v1v-1h-1v-1h-1v-1l-3,-3h-1v-1h-1l-1,-1v1h1h-1v-1h-1v-1h-1v-2h-1h1h-1v-1l1,1h-1l-3,-3h-1v-1h-1v-1v1h-1v-1h-2v-1l-2,-1l-1,-1v1h1h-1l1,1h-1h1h-1l-3,-3h-1v-1h-1l-1,-1h-1v-1h-1v-1h-1l1,1v1v-1h-1v-1h-1l1,1h1l1,1l3,2v1v-1h-1l-1,-1h-1v-1l-2,-1l-2,-2h-1v-1h-1l-1,-1l2,2h-1l-2,-2h-1l-1,-1v-1h-2v-1h-1l-3,-3h-1v-1h-1l-1,-1h-1v-1l1,1l-1,-1h1l-1,-1h1v1h2v1l2,2h1l2,2v-1h-1v-1h1h-1h2l2,2h1l2,2h1v1h1v1h1v1v-1l2,2v1h1v-1h1v1h2v1h1l2,1l1,1l2,1l1,1h1l1,1h1l1,1h1v1h2l1,1h-1l4,2v1h1v1h1l-1,-1h2v1h1l2,2h1v1l1,1h1v1h1v1h1v1h2v1h1v1h1v1h1v2h-1l2,2h-1h1h-1v1h1v1l1,1h-1l1,1v1l1,1l-1,-1v1h1h-1v-1h-1v-1l-1,-1v-1l-2,-1v-1h-1v-1l-1,-1v-1l-3,-3Z"/>
<path class="sl" d="M797,108h1v1h-1v-1h-1ZM746,71h-1l-1,-1l1,1ZM746,71v1h1h-1h1l1,1h1l1,1h1h-1l-1,-1h-2v-1h-1v-1h-1ZM744,70h1h-2ZM758,80h-1ZM759,80h-1ZM756,79h1v1h1h-1v-1v1ZM755,78h1h-2ZM773,93h-1ZM782,98h-1l-1,-1v-1v1h1ZM775,94l-1,-1h-2v-1l1,1h1ZM778,96l1,1h1v1l-1,-1h-1v-1v1ZM779,96v1h-1v-1h-1v-1h-1h1ZM760,84l1,1v1h1l2,2h-1v-1h-1v-1h-1v-1h-1v-1h-1ZM770,91h-1ZM766,88l1,1h2v1h1h-2l-1,-1h-1v-1h-1ZM764,88h1v1h-1ZM768,91h-1v-1h-1ZM791,105v1h-1v-1h-2v-1v1h1v1h1h-2l-1,-1h-1v-1h-1v-1h-1v-1h-1v-1l-1,-1h2l1,1h1v1h1l1,1h1h-1l1,1v-1l1,1v1h1v1ZM816,120h1h-1v-1ZM728,469l1,-1h1ZM727,478l-1,1h-6l2,-1h1v-1l1,-2l-1,-1h-1v-1h4v-1h1v5ZM35,683l-1,-1Z"/>
<path class="sp" d="M34,682v0M35,683v0"/>
<path class="sl" d="M28,664v-1ZM35,684l1,1h-1ZM890,191v-1ZM884,182l2,2v1h1h-1v-1h-1h1v1v-1h-1l-1,-2l-1,-1h1ZM883,180l1,1l-1,-1h-1v-1ZM889,189v1v-1h-1v-1ZM919,285v2l1,1h-1v-1l-1,-1v-2l1,-1v1ZM922,278v-1ZM924,284l1,1h-1v-2l-1,-2v-1v1l2,2ZM922,286v1l1,1v1l-2,-2v-1ZM918,289l-1,-1v-1l1,1ZM917,291l1,2l-1,-1ZM915,286l-2,-2v-1h1v2h1ZM981,454l-1,-1l1,-1v1ZM17,623v1l-1,-1ZM19,629h-1v-1ZM724,452h-1v-2h1v1ZM723,454v-1h1h-1ZM725,446v1h-1v-3h1v1ZM709,419v-1ZM708,418v-1h-1v-1l1,1ZM540,2h1ZM555,3h2v1h2h-3v-1ZM552,3h-1h7v1h1h-1h1h-1l-1,-1h-4ZM397,11h1h-4l-1,1h-3l-2,1h1v-1h4l1,-1h2Z"/>
<path class="sp" d="M393,12l1,-1h3"/>
<path class="sl" d="M336,32l1,-1h3l1,-1v1l1,-1l-5,2ZM342,31h-1v1h-2l-1,1l-1,-1l2,-1h2l1,-1ZM346,24h1ZM331,30v-1h3l1,-1h1h-2l-1,1h-2ZM403,10h1ZM557,3h-1ZM556,3h1ZM551,3h-1ZM550,3h1ZM546,2h1h-2ZM542,2h1ZM538,1l1,1h-1v-1h-2ZM547,2h1h-2ZM539,2h1ZM540,2h1h-2ZM552,3h1ZM547,2h2l1,1v-1h-2ZM541,2h-1h2ZM546,2h-1h2ZM534,1h1ZM539,2h1h-2ZM330,31h1v-1h1l-1,1ZM898,252h1l1,1h-2ZM857,229l1,1h-1ZM825,217v1v-1h-1ZM843,219h-2v-1h2ZM841,220v1l-1,-1h-2h2ZM838,221v1l-1,-1ZM840,221l1,1h-2v-1ZM851,224h1l1,-1v1h-2v-1ZM583,502h-1v-2h1v1ZM560,510l-1,1l-2,-2l1,-1h1v2ZM554,493l-1,-1h1ZM741,65h-1ZM747,68l1,1l-1,-1h-1ZM703,44h-1ZM720,53l-1,-1h1ZM723,54h-1ZM652,24h1l1,1h1h-1v-1h-1ZM648,22h-1h1v1h1ZM654,24l1,1h1h-1ZM654,24h-1ZM681,35h1l1,1h-1v-1ZM685,36v1l-1,-1h-1h1ZM675,32l1,1h1h-2v-1h-1ZM661,27h1h-2ZM661,27h-1v-1ZM662,27l1,1l-1,-1l1,1h2v1h1h-1v-1h-2l-1,-1h-1ZM700,43l-1,-1ZM699,42v1v-1h-1ZM709,47h1h-1h1ZM668,29v1v-1v1v-1v1h3v1h1h-2v-1h-2ZM677,33h-1l-1,-1h-1h1l1,1h2v1v-1v1h2l1,1l-1,-1h-1l-2,-1h-2v-1h-2l-1,-1h-1h2v1h2l1,1ZM661,37v1v-1h-1l-1,-1h1ZM628,18h1h-2v-1v1ZM589,9h-1ZM574,6l1,1h-1l-2,-1ZM593,10h1l1,1v-1h1v1h5l1,1h1h-1l-1,-1h-1h1h-1h1v1h1h-2v-1h-6ZM580,9v-1h1h-3l-1,-1h1l1,1h5l1,1h1v1v-1h-1v1h-1v-1h-5ZM585,10h-1h9v1h5v1h4l1,1h4l1,1h4v1l-1,-1h-6l-1,-1h-3v-1v1h1h-2l-1,-1h-3l-1,-1v1h1h-1h1h-1h3l1,1h1h-4v-1h-7v-1h-1h1h-1h1h-2l-1,-1h1l1,1h2l-2,-1h-4ZM597,13h2h-3ZM580,9h1ZM585,8h1l1,1l-1,-1ZM8,582v-1ZM33,672v1v-2ZM59,702v-1h-1h1ZM812,111v1h1v1l-1,-1ZM796,99h1ZM797,99v1ZM798,101h1ZM798,100h-1ZM800,102v1v-1h-1ZM809,110h1ZM796,98h-1ZM670,464l-1,1v-1h-1v-1l1,1ZM706,416h-1v-1h1ZM703,415v-1l1,1ZM656,463h-1v-1h-1l1,-1v1h1ZM665,465v1l-2,-1l-1,-1v-1h1v1ZM859,153v-1ZM513,398l-1,1v-1l1,-1v-1h1v1ZM356,384v1v-1h-1v-1h1ZM320,407h-1l-1,-1h1v-1v1ZM330,354v1l-1,-1v-1h1ZM318,319h-1l-1,-2l-1,-1l1,-1l1,1v1h1ZM302,326v1l-1,-1l1,-1v-1v1ZM324,320l-1,2l-1,-1l1,-2v-1h1v1ZM283,318l-1,-2l1,-1v2ZM515,390v1h-1v-1ZM474,412l-1,1v-1l2,-1v1ZM334,361v-1ZM312,297v-1ZM327,345l-1,1v1l1,-2h1ZM321,358v1l-2,-2h1ZM318,357v-2h-1l2,-4l-1,3v2ZM948,355v1v-2ZM6,548h-1Z"/>
<path class="sl" d="M3,545v1ZM34,511v1v-1l-1,-1l1,1v-1ZM29,491v1ZM4,533v1ZM593,413h2l2,2h3l1,2v1h-3v-1h-2v1h-2l-1,1l-1,-1h-3l-1,-1h-1l-1,-1v-1h-2v-2h8ZM885,181l-2,-2v-1h-1v-1h-1v-1l-2,-2v-1h-1v-1h-1v-1h-1v-1h-1h1h-1v-1l-2,-1v-1l3,3v1l6,6v1l2,2Z"/>
<path class="sp" d="M873,167l3,3v1l6,6v1l3,3"/>
<path class="sl" d="M885,181l1,1ZM874,169h1l-1,-1ZM789,109h-1ZM783,101v1h1v1h1v1h1v1h1l1,1h1v-1h-1v-1v1h2v1h1v-1v1h1v1h1l1,1h1v1h1v1h1l1,1h1v1h1v1h1v1l1,1h1l1,1h-1v1h1v1l1,1h-1h1v2h1v1h-1l-1,-1v1v-1h-1v-1v1h-1v-1h-1v-1h-1v-1l-2,-2v-1v1l-3,-3v-1h-3l-1,-1h-1v-2h-2v-1h-1h1h-2v-1h1v-1l1,1v-1h-1l-1,-1v-1h-2v-1h-1l-1,-1v-1h-1h1h-1h2v1v-1h-1l-1,-1h1ZM693,56h-1v-1h1v1h1v1h3v1v-1v1h4v1h1l1,1h1v1h2v1h-1h2v1h1v2h1v3h1v1l-1,1h-1v-1l-1,1l-1,-1h-3v-1v1l-1,1h-1l-1,-1h-1h1v-1l-1,-1h-2v-1v1v-1h-4v1v-1h-1v-1h1v-1h1h-3v-1h-3v1h-2v-1h1h-1l-1,-1l1,1l1,-1h-2l-1,-1h-1h1h-1v-1l1,1h2l-1,-1h-2v-1v1h-1v-1h3v1h3v1h1v1h3l1,1l-1,-1h-1v-1h1h-1l-1,-1h-1l-1,-1h1l1,1h1l-1,-1h-1h1h-1v-1h1v1h2l1,1h1h-1v-1h-1l-1,-1h-1h2l-1,-1h1h-1l-1,-1v-1v1h2ZM517,432l-1,1v-1h3ZM522,431l-1,1ZM635,401h1v3l1,1v1h-1v1l1,1v1l-1,1h-1v1l1,1h1v3l-1,-1h-1l-1,-1l-3,1h-10l-1,1v1l-2,-2h-1l-1,-1h-1v-1l1,-1v-1h1l1,1h4l5,1h2v-1h3v-1l-1,-1l-2,-1l-1,-2v-3h-1l-1,-1h-3l-1,-1l1,-1h1l1,-1h4l1,1h2l2,1ZM628,409v1l-4,-2l1,-1l1,1h1ZM628,398h1v1l-1,-1h-1ZM968,427v1l-1,-1v-1h1ZM968,427v-1ZM968,426h1h-1v-1h1ZM968,423v-1h1h-1ZM968,424h-1v-1ZM967,420v1h-1v-1ZM720,462v-1l1,-1v2ZM785,89l1,1l-1,-1h-1v-1h-1h1v1Z"/>
<path class="sp" d="M785,89v0"/>
<path class="sl" d="M787,91v-1h-1h1ZM786,91l-1,-1h-1h2ZM787,91h-1ZM871,165v-1h-1v-1h-1v-1h-1v-1h-1v-1h-1l-1,-1v-1h-1v-1h-1v-1l-1,-1v1h1l1,1v1l8,8Z"/>
<path class="sp" d="M864,158l8,8"/>
<path class="sl" d="M848,147v1v-1h-1ZM725,440v1h-2v-2h-1v-2l1,1h1v1ZM719,426h-1v-2h1l1,1ZM718,428h-1l-1,-1v-2h2l-1,1l1,1ZM720,428v1v-1h1ZM682,183v-1l-1,-1h1v1ZM14,617v-1ZM705,411h-1v-1h1ZM82,683h-1ZM74,676v-1ZM84,685h1v1l-1,-1h-1v-2l1,1ZM120,630v1h1h-2ZM120,632l-1,1v-1ZM123,637h-1ZM113,622v1l-1,-1v-1ZM114,627l-1,-1h1ZM123,695h1h-1v-1h1h-1ZM116,623h-1ZM125,699v1ZM124,698v-1h-1h1ZM149,705l-1,-1ZM145,703l-1,-1ZM142,721v-1ZM108,683l-1,-1h1ZM107,683v-1ZM99,675l-1,-1ZM98,678h-1v-1v1ZM573,599v1h-1v-2l1,-1h2l-1,1h-1ZM583,563v-1ZM484,581l-2,-1l1,-1h2v2ZM492,583h-2v-1h2v-1h1v1ZM475,579h-1l-1,-1v-1h2v1ZM483,586h-1l1,-1l1,1ZM476,574v1l1,2l2,2v1l1,1l-1,2h-5v-2h1l2,-1v-1l-2,-2v-2h-2l1,-1h1ZM482,578l-2,-1h-1l1,-1h1l1,1ZM637,415v-3h-1l-1,-1v-1h1l1,-1v-1l-1,-1v-1h1v-1l-1,-1v-3h-1l1,-1v-1h7l1,1h3l1,1l1,-1h1v1l1,1v1h5v1h-3v1h4l1,1h2l2,2h1v2l-2,2h-1v-1h-10v1l-1,1h-3v-1h-3v1h-1v1l-2,4h-1v-1h-1v-1ZM721,434h-1v-1l-1,-1v-1h1v1l1,1ZM548,13h4l-1,1h-1h3v-1h6l1,1h1l-3,1l1,1h1v-1h3v-1h1l1,1h4v1h2l1,1h1h-1v-1h-2l-2,-1h2v-1h-1v-1h2l1,1h2l1,1h2v1h1h-1h3l1,1h-2l1,1h4l1,1h3v1h2l1,1h1l1,1h2l1,1h1v-1l1,1h3l1,1h1v-1h1l1,1h2v1h1h-3l1,1h-1h3l1,1h1l-1,-1h2l1,1h3v1h3l1,1h1h-2v1h1h-1h3l1,1h1l-1,-1h-1h3l1,1h2l-1,1h1h-4l-1,-1l1,1h2v1h6l1,1h-1v1h-3l-2,-1l1,1h-2h2v1h1v1l-1,-1h-2l1,1h1v1h1l-1,-1h1v-1l1,-1l1,1h5l1,1h1l2,1h1v1h-1l-1,-1h-4l-2,-1h-1v1h1v-1l2,1h1v1h1h-1h7l1,1h1l1,1h1l1,1l-1,-1h-1h3l1,1h1l1,1h2v1h1h-3l-1,-1h1l1,1h1h-1v1l-1,-1h-3l-1,-1h-2v-1h-3l1,1h1v1h-2l-1,1h2l1,1v1h2l1,-1h1v1h1v1h1l-1,-1h1v-1h5l1,-1v1l1,1h-1h1v1h1h-1h1v2h1v1h1v1h1h-1v1l-1,1v1h-1v1h-1h1h-5v-1v1h1l1,1h1v1l1,1h-1h1v1h1v1h1l2,2v1v-1v1l1,1h-2l1,1v1l1,1l-1,-1h-1h1v1h-1v1h-1l-2,-2v-1h-1v1l1,1h-1h1l1,1v1h-3v1h2v1h1l-1,1h-1l1,1v-1l1,1h1l1,1h1v1h-1h1v1h-1h2l3,3h-1l1,1h1v1h-2l1,1h1v1h-1l-1,1v-1v1h3l3,3h1v1h-1h1v1h1v1l3,3v2h-1l-1,-1h-1v1h4v1l2,1v1h-1l-2,-1l2,1h-3v-1l-1,-1v2h-1l-2,-1h-1v-1h1v-1l-1,-1v2h-1l-1,-1h-1l-3,-3v1l-1,1v1h-3v1l-1,-1v-1h-2l-1,-1h-2l-1,-1h-2v-1h-1v-2h-1v1h-1v-1h-1v-1h-3v-1h-1v-2h-1v1l-1,-1h-2l-2,-2l-2,-1h-1v-1h-1v-1h3v-1h-2l-1,1h-2v-2h1v-1h1l1,1h1h-1v-1h-3v-1h-1v-1h-1v1h1l1,1h1h-1v1v-1h-1v1l1,1v1h-1v-1h-1l-3,-3h-2v-3h2v-1h-1v1h-1v1h-4v-1l-1,-1h-1v-1l1,-1v-1h1v-1h-1v2h-1v1h-1v1l-2,-2v-2h1h-3l-2,-1v-1h-1h1v-1l1,-1h4l2,1l-2,-1h-5v1l-1,1v-1h-1v-2h-1l1,-1v1h4v-2h-1v1h-5v-2h1l2,1h1l1,-1v-1h-1v1l-2,-2h1h-1l-1,-1v-1h-1l1,-1h-1v-1h-1v1h-1v-1l-1,1h-2l-1,-1h-6l-1,-1h-1v-1h5l3,1h1l-2,-2h-1h1l-1,-1l-1,1h-1l-1,-1l-1,1l-1,-1v-1h1v-1v1h-3v-1h-2l-1,-1h-2l1,-1l-1,1h2v1h1v1h1h-1h1v1h-5v-1l-1,-1v-1l-1,1v-1h-1v-1h1v-1h-2l-1,-1l1,1h-2v-2h-3v-1h-1v-1h-3v-1h-1v-1h-2l-1,-1h-3v-1h-2v-1h-4v-1h-12v1v-1h-2v1h-1v-1v1h-4l-1,-1h-1l1,-1h1h-4v-1v1h-1l-1,-1h-1h1l2,-1l1,1v-1h4v-1h-5v1h-2v-1h-4l-1,-1h-1v-1h-1h1l1,-1h3v-1h4v-2l-1,-1h-4v-2h1v-1h1l1,1v-1h-1h2v-1h-2v-1h5l1,1h1h-1l-1,-1h-4v-1h3v-1h1l1,1h1l1,1h1l-1,-1h-1l-1,-1l2,1h3l-2,-1h-1h7l-1,-1h-4v-1h3h-4v-1h2v-1h1h-1h2v-1h1Z"/>
<path class="sl" d="M600,56l1,1h3v1l-1,1h-3v-1h-4l-1,-1h1h-1v-1h-1l1,-1h3v1ZM606,57v1l-1,-1h-1v-1h2ZM593,52h-1v-1v1ZM582,46v1h-2v-1h1ZM532,33h-1ZM548,18h-3l-1,-1h-1h4ZM646,44h1l1,1v1h-3l-1,-1h-1h1v-1h1h-1h1ZM567,14h-1ZM583,18h1h-3v-1h2ZM598,22h-2l-2,-1h2l1,1ZM613,26h-3l-1,-1h-1l2,1ZM619,28h2l1,1h-2l-1,-1h-1ZM601,22h-1ZM662,69h-1v-1v1ZM664,96h-2l1,-1h1ZM598,53h-1v-1h1ZM734,69h-1ZM737,71h-1l-1,-1h1v1ZM731,68h1v1h-1ZM731,67l1,1h-1h1v1h1h-1l-1,-1h-1v-1ZM731,67v1v-1h-1ZM776,83l1,1h1v1h1l1,1h1v1h1l1,1h1h-2v-1h-1l-1,-1h-1v-1h-1v-1h-1l-1,-1v1h1l-1,-1h-1l-1,-1h1v1ZM785,90h1h-1l-1,-1h-1l-2,-2l-3,-1v-1h-1l-2,-1l-3,-3h-1h1h-1l-1,-1l1,1h1v1h1h-1v-1h-2l-1,-1v-1h-1l-2,-2h-1v-1h-1h1v1h1l1,1h1l2,2h1l1,1h1v1h1l1,1l-1,-1v1h1l1,1h1v1v-1v1h2v1h1v1h1l1,1h1l1,1ZM779,85v1h1l1,1h1l1,1h-1l-2,-2h-1ZM783,88h1h-1h1v1h1h-1v-1ZM785,89h-1l-2,-2v1l2,1ZM782,87l1,1h-1v-1h-1ZM777,84h1ZM784,89h1h-2ZM778,85l-1,-1h-1h1ZM767,77v1l-1,-1ZM553,374h5l1,1l1,-1h3l1,1h4v1h1l2,1l3,3h5l6,3l1,1l2,1h1v-1h-1h1l2,2h1h-2l1,1h1v-1l2,2h1l1,1h3l1,1h4v2h-1v1h7v1h1l2,2h3v2h-2l-1,1h-2l-1,1h-1v-1l-1,1h-13l-1,1h-6l1,-2l3,-2l1,-1l-1,-1v-1h-7l-2,-2h-1v-1h-1v-2l-1,-1v-1h-1l-1,-1l-3,1h-1l-5,-2h-1l-1,-1h-1l-1,-1v-1v1h-5v-1h-1v-1v1l-1,1l-1,-1h-3l-2,-2h2l1,-1l-1,-1h-8l-1,1h-1v1h-1v1h-1l-1,1h-4v1l-1,1h-1v1l-2,1h-1l1,-1l-1,-1l-1,1h-2l3,-1h1l1,-1l-1,-1v-1l3,-3l6,-2l1,-1h4l2,-1h2ZM587,383v1v-1h-2v-1h2ZM584,380v1v-1h-2v-1h1ZM579,378l1,1l1,-1l1,1h-3ZM585,382l-1,-1v-1l2,2ZM548,387l-1,1h-3l-1,-1h1v1l1,-1l-1,-1v-1l1,-1h2v1l1,1ZM573,378l-1,-1h-1v-1h1l1,1ZM590,551v1l-1,-1ZM342,788h-1v-1h2ZM570,835h-1ZM603,936l-1,1v1l-2,2v1l-1,2l-1,1v1h-5v-1v1h-7l-1,-1l-2,1v-1h5v-1h1v1h2l-1,-1h-1v-2h1l1,-1h1l-1,1v1h-1h1v1h4v1h1v-1h1h-1l-3,-1v-2h3l1,-1h1h-5v-1h1l1,-1h-1v-1h1l1,1h1v-1h1l1,-1h1v1h1l2,-1ZM604,945v1h-5v-1h4ZM592,892h-3v-1h1l1,-2v-2l1,-1v-1h1v-2l2,1h1v2l-1,1h1h-2v1l1,1v1h-1v1h-1v1ZM579,921v2l-1,1h1h-1v1h-2v-1h1v-1h1h-2v1l-1,1h-1l-1,-1l-1,1v-1h2v-1h-1l1,-1h1v-1h2v-1l1,-1l1,1h1ZM574,920v-1l1,-1v-2h1v1l1,1l-2,2ZM574,938h2v1h2l1,1h-2v-1h-3l-1,-1h-1v-1l1,1ZM580,919h-3v-3h1l1,-1v2h1v1Z"/>
<path class="sl" d="M580,940v1v-1h2v1h1l-1,1h-1l-1,1h-1v-1h1h-3l1,-1h-3l1,-1h3ZM573,933v1h1l-1,1h-1v-2ZM593,945h6l-2,1h1v1h1v1h-1v-1h-3l1,-1h-2l-1,1h1h-2v-1h-1l1,-1ZM586,942h2v1h-5l-1,-1h3ZM591,897v1h-2v1h1v3h-1l-1,1l-1,-1h1h-1v-2h-1l-1,-1h1v-1h3v-2h2ZM595,899l-2,1v-1h-1l1,-1h1v-1h1l1,1h1l-1,1ZM582,900h1ZM572,929l-1,-1h2ZM576,920l-2,2h-1l1,-1h-1v-1h2ZM578,915h-1h2ZM587,894h-1v-1h1ZM591,900v-1h-1l1,-1v1ZM575,931v1l-1,-1v1h-2l-1,1v-1h1v-1h2ZM574,927h-2l1,-1h2ZM592,894v1h-2l1,-1ZM577,934h-2v-1h1ZM586,904l-1,1h-2v-1h1l1,-1v-1h1v1ZM600,948h-1h2ZM607,946h-1v-1h1ZM587,945v1h1l1,-1l1,1h-4v-1h-1v1h-1l1,-1h1ZM602,948h-1v-1h1ZM927,388v-1h-1l1,-1l1,1ZM938,402v1h-1v-1l-1,-1v-1l1,1ZM929,389h-1v-1h1ZM937,391h1v2h-1v-1ZM935,405h-1v-2h1v1ZM932,389v2l-1,-1v-1ZM936,388v-1ZM939,401h-1v-2l1,1ZM296,131h1v2h-3v1h2v-1h1v-1h2l1,-1l-3,3h-1l-1,2h-3v-1h1v1v-1l-1,-1h1v-2l2,-2v1ZM295,137l-2,2v-1l-1,1h1v1h1h-1l-1,1v1h1h-1h1v1h-1v-2h-1v-3h1l-1,-1h3v-1h1ZM302,155l1,1h2l2,1h1v7h1l2,2v2l-1,2h1v-1v2h-3l-1,-1h-1l-1,-1h-1v-1h-1l1,-1h1l1,-1v-1h1h-1v1h-4l-1,-1h1v-2h-2v-1h2v-1h-1v-1l-1,-1v1h-1v-2h1h-1l-1,-1l-1,1v-1h1v-1h-1h1v-1l1,1h1v-1h-3v-2h3ZM464,29h1h-1v1h-6v-1h5ZM461,31h1h-1v1h-2v1l-1,-1l-2,1v-1h-1v-1h3l2,-1ZM450,32l-2,1h-1v1h-1l-2,1h-2l1,-1h1h-3v1h-3v1h-2v-1h-1v1h-1v-1h-1l1,-1h4v-1h3l1,-1h6l1,-1h1ZM459,37h1v1h-1h2v1v-1h1v-1h1l1,1v1h-1v1h-2v1h-5v-1h-1v1h-5l-1,1h-6l-1,-1h2l1,-1h6v-1l-1,1h-2v-1l-1,1h-2v-1h1v-1v1h-2v1h-2v-1h-1v1l-1,-1h-2v-1h6l1,-1l-2,1h-1l-1,-1h-1h3v-1h3v-1h3v1h2v1h1h-1h1v1h1v1h4v-1h-1v-1h1v-1h-1h1l1,-1h2v2ZM434,48h4l1,-1h1l1,1h2l-1,1h-1l-1,1h1l1,-1l-1,1h1l1,-1h2v-2l1,1h1l1,1v2l-1,1v1h1l2,-1v-3l1,-2h4l1,1h1v2l-1,2l1,1v1h-1v1h-1v1h1v1l1,1h1v-1l2,2h2v1h1v2h-1l-1,-1v1h-1v-1h-2v1h-2v-1h-1v1h1v1h-1h2l1,-1h1v2l-1,1h-8l-2,-2h-2v-1h-2v1h-1l-1,1h-4l-1,1h-14v-2h1v-1l-1,-1h-5l-1,-1h1l-1,-1l1,-1v-1h10l1,1h5v-1h-1l-2,-1h-8l-2,-1h-2v-1l2,-1h6l-1,-1h-4l1,-1h-2v-1h1l1,-1h2v-1h1l2,-1h2l1,-1h3l3,-1l1,1l-1,1h-1v1h-1ZM429,42h6v2h1v1h-3l-1,1h-3l-1,1h-4l-2,1l-1,1h-2l-2,2h-4l-2,1h-3v-1h1v-1l-1,-1h-1v-1h-1h2v-1h2v-1h2v-1h2v-1h1l1,-1h2l2,-2v-1h8v1h1l1,1Z"/>
<path class="sl" d="M520,18h3l-1,1h1v-1h5v1h3v1h-2v1h-2l-1,1l3,-1h1v1h-1l-1,1v1h-3l2,1h-1h1h-1v1h-3l1,1h-5l1,1h1h-2l-1,1l-1,-1l-1,1h8v1h-1v2h-4v1h1h-1v1h-4l-2,-1v1h1h-1h5v1h3v1l-2,1h-2l-1,1v-1h-2l-1,-1h-1h1v1h-4v-1v1h-5v-1v1h-2v-1v1h-2v-1v1h-2v-1l1,-1h4v-1h-2v-2h2l1,1h1l1,1h3v-1h1l1,-1l-1,1h-4l-1,-1h1l1,-1h1h-2v-1v1l-1,1h-1v-1h1h-2v1h-1v-2h1l1,-1h4l1,1v-1h1h-2l-1,-1h-1v-1h-3v-2h4l1,1h1l1,1h1l-1,-1h-1l-1,-1h4l1,-1h3v-1h-2v-1h1h-1l-1,1h-1v1h-5l-1,1h-1l-1,-1l-1,1v-1h1v-1h1h-2v1h-4l1,-1h-2l1,-1h1h-4v-1h8l-2,-1h5v1v-1h1l2,1h1h-1l-2,-1h-1h1v-1h-1h2v-1h1l1,1v-1h1v1h1l-1,-1h4l1,1l-1,-1h3ZM487,32l1,1h3v1h-1l-1,-1h-3ZM489,42v1h-4v-1h-3v-1h1v-1h5v1h1ZM472,45l2,1h4v-1v1h1v1h-1v1h-2l-1,1h3v1h1v1h-1v1h1h-1v1h-1v1h-4v-1v2h-3v-2h-1l-1,-1h-1v-1h-2v-1h-1v-2h2v1h1v1h1l1,-1h2v-1h-1h1v-1h-1l-1,1l-1,-1l1,-1h1v1v-1l1,-1l1,1h1l-1,-1v1ZM513,82h1v-1h1v1h1l1,1h2v1h3l1,1h2v1l1,1v1h-1h5v1h2l-1,1h-1l-1,1h-1v-1h-4l-1,-1v-1h-2v-1h-1v1h-1v1h-1l-1,1h-1v1l-1,1h-1l-1,1h-1v-1l-1,-2h-5v1l-1,-1l1,-1l2,-1h1v-1h-1v-3l1,-1v-3l1,-1h1l1,1v1h1ZM481,37v2h-1h1v1h-1l-1,1h1h-6v-1h-1h1l1,-1h-4v-1h1l1,1h1h-1v-1h-1l1,-1h-1h1v-1l2,2h2v-1h-2v-1h3v1h1v-1h2ZM476,28h1v1h-1h1l1,-1l1,1h2v1h-1v1h1v1h-3v-1h-3v-1h-1l-1,1h-1v-1h2v-1h1h-1h1h-1v-1v1h-1v-1h-1h1v-1h3ZM495,23h1v1h1v1h2v1h1v-1h1v1h1v1h2v1v-1h1v1h1h-1l-1,1h-2v1h-1v-1v1h-1h1h-1v1h-2v-1h-1l1,1h-6l1,-1h1h-2v-1h-1l1,-1h1h-5l1,-1h1h-2v-1h3v-1l-1,1l-1,-1h-1h1v-1h2l1,1v-1h-2l1,-1h1l1,-1h1ZM489,35h1v1h1h-1v1l1,-1h4l1,1h2l1,1h-2v1h1v1h10v-1h10v1h2v1h-2l1,1l1,-1v1h1h-2v1h-3v1h-1v-1h-3v-1h-1h1v1h-5l-1,1v-1h-2v1h-4v-2l-1,1h-5l1,-1l-1,1h-2v-2h-1v-1h1v-2h-1v-1h-6v-1h1h-2v-1h4ZM487,30h1l1,1h-1v1h-4v-1h1h-2v-1h1h-1v-1h2l1,1ZM489,45h5l1,1h1h-1l-2,2h-1h1l-2,2h-5l1,1l-1,1h-1v1h-3v-6l1,-1h1v-1h4ZM473,62h1v1h1l1,1h1v1l1,1v-1l1,1h-2v1h-5l-1,-1h-3v-1h-2v-1h3v-1h1h-1h1v-1v1h1l-1,-1h1v-1h2ZM660,191l1,-1v2h2v-2l-1,1l1,-1l-1,-1l1,-1h1v1h2v1h1l-2,2l-2,1h-4l-1,-2v-3l1,-2v-2h1v-1h1v1l1,1v5h-1ZM629,198h-1l-1,1v-1h-1v-2l-1,-1h-2v-2l-1,-2v-2h-1v-2l-3,-3h-2l-1,1h-2v-1l-1,-1l-1,1v1l-1,1v1l-1,1v3l-1,1v1l1,1v1h-1v1l-1,1v2h-1v-1l-1,1h-1v1l-1,1h-12l-3,1h-4l1,-1l2,-1h1l1,-1l2,-1v-2l1,-1v-1h1l3,-3h1v-1h2l2,-1h1v-1h1l2,-1l1,-1v-1l1,-1l1,-2l1,-1v-1l3,-3h1l2,-2h1l8,-4h2l1,-1h1l3,1h2l2,1l1,1h-2l2,1v1l-2,1v1h-1v1h-4l-1,-1v1h-3l-1,1h1l1,-1l1,1h2l2,2h1v-1h1l1,-1v1h2v1h-1l1,2l-2,2h3v1l2,2v1h1v1h4v1h1h-1l1,1h2l1,1h4v1l1,-1v1l1,-1h1l1,-1v1h4v1h1l-1,1h2v1h-2l-2,2h-1l-2,1h-1l-1,1h-1l-1,1h-1v1h-2v-1h-1l1,1h-1v-1l-1,1v1h1v1l-1,-1v2l-1,1v1l-1,1h-2l1,1h-3l-1,-1h-2l-1,-2v-2l1,-2l-1,1v-1h2v-1h1h-1l3,-3h1l2,-1l-1,-1h1v2h1l2,-2h-5v1l-1,-1v-1l2,-2h-2v-1v2h-1l-3,3l-2,1l-1,-1v-1v2h-1v1l-1,-1l-1,1h-1l-1,-1v1Z"/>
<path class="sl" d="M670,152v1h-2v1h1l1,1v2h-1h1v1l-1,1v3l1,1l-1,1h1v1v-1l1,-1v-2h1v1h3v1l-1,1h-1h2l-1,1h4v-1v1h1v1h1l1,-1v-1h1v1h1l1,-1h1l1,1h1v3l-1,1l1,-1v1h2l-1,1h1l-1,1h1v-1h2v-1h1v2h-1v2l-1,1h1v-1v3h2v-3h1v-1h1v1h-1l1,2v2h1v-2h1v1h1v4h1v2h-2v1l-1,-1v-1l-1,-1v-1h-1v2l-1,1v-1l-1,-1v-3l-2,-2h-1v3h-1l-1,2v2h-3v-1l2,-2v-1l1,-1v-1v1h-3v1h-3l1,-1l-1,-1h-1v1h-1l-1,1h-10l-2,1h-1l-2,-2v-1l2,-2v-1h1v-1v1l-1,-1h-1l-1,1h-1v-1l1,-1v1h1v-3h2v-1h-1l-1,-1v-1h2l-1,-1l-1,-3v-3l1,-1h-1l1,-1v-1h-1l1,-1v-2l1,-1h3v-1v1ZM505,57h2l1,-1h2v1l1,-1v-2h-3v-1h-1h1v-1h2l1,1v-1h-1v-1h-2l-1,-1h1v-1h1l2,1l-2,-1h-1l1,-1h1v-1h3v-1h4v1h1v1h2v1h1v1l-1,1h-1v1l1,-1h1l-1,1h1h-1v1h1l1,-1h1l-1,-1h3v1l1,1h1h-1v-2h1l2,1l-1,-1h-2v-1h8l1,1h1l-1,1v1h-1h1v-1h3v1h-2l1,1l1,-1v1h-1h1v1h-1h1v-2h2v1l-1,1l1,-1h1l1,1v-2h1v1v-1h1l1,1h3v1h-2v1h-1v1h1v-1h3v-1h1v2h-1l-1,1h2v1v-2h1l1,-1h3v1h3v1h-2l-1,1h-1v1l1,-1h2v1h1v-1h1h-1v-1h2l2,1l1,1h-3v1h-2v1l1,-1h1l1,1h1v-1h2v1h2v1h-3l-1,-1v1h-1h2l1,1h-5l2,1h3v1h1v-1l1,1h2l1,1h1h-1v-1h1l1,1v1l1,-1v1h1v-1v1h1l1,1h-1v-2h1v1h2l1,1h1l1,1h-1h4v2h1v-1l1,1v-1h1v1l1,-1h1l1,1h2v1h-2v-1h-1v1h2l1,1h-3v1h3l-1,1h-1h1v1h-1v1l-1,-1h-1v1h1l1,1v2l-1,-1h-2v-1h-1v1h-1v-1h-2v-1h-1v-1h-1h1v-1h1v-1h-1v1h-3v-1v1h-1l-1,-1h-1l-1,-1h-2l1,1h-2v1h3v1h-3l-1,-1h-1h1v1h1v1h1v1h1v-1h1v1h2l-1,1h2v1h1l1,1v-1l1,1h4l1,1h-1h2v1h-2l1,1h2v1h1v-1l1,1h-1h1l1,1v1h1v1l-2,-1v-1h-1v1h1v1h1h-1h1l1,1v1h1h-2l1,1h-1l-1,-1h-2l-1,-1v1h-1v-1h-1v1v-1h-2v-1v1l-1,-1h-1l-1,-1h-1l1,1l-2,-1h-2l2,2h2l1,1h1h1v1h1l1,1h2l1,1h1l1,1v1h1l-1,1l-1,-1h-4v-1h-5l-2,-1h-1l-2,-1h-3l-1,-1h-2v-1l-1,1l-1,-1l-2,-1h1v-1h1h-2v-1l-2,1v-1h-2v-1h-1l-2,-1l-1,-1v-1h-1v1l-1,-1v1l-1,-1h-2v-1v1h-1h1v1h-3v1h-3l-1,1l-1,-1h-4v-1h-1v-2h1l1,-1h1l-1,-1h5l1,1h1l1,1h-1h1v-1h-1l-1,-1h5v-1h2v-1h-1l-1,-1h-1l-1,-1l2,-2h1v-1h1v-1h1v-2l-2,-1l-2,-2l-2,-1h-2v-1h-1h1h-3v-1h-1h1h-1l1,-1h-1v1h-2l-1,1h-2v-1l1,-1h2l-1,-1h-2l-1,-1h1h-2v-1h-3v-1h-2l-1,-1h-1v-1h-1v1h1v1h1v1h-6l-1,-1h-2l1,1h2v1l-2,-1h-2v1l-1,-1h-8l-1,-1l-1,1h-1l-1,-1v-1h-2v1h-2l-1,-1h-2l-1,-1v-1h-1h6v-1h-5l-1,-1h-1v-2l1,-1h-1v-1h1v-1h1v-2h2l2,-2h7l-1,1h-1l-2,2v1l1,1v2l1,1h1v1h2l-1,1h-2l-1,1Z"/>
<path class="sl" d="M647,170h-7l-3,-1v-1h-1v-1h-1l-3,-1h-1h1v-1h1l2,1h5l1,1l4,1l2,1l1,1ZM644,188h9v1l-1,1v1h-3l1,-1h-1v-1h-1v1h-3l-1,-1h-2v-1l-1,-1h-1v-1h1v-2l1,1v1l1,1v1ZM526,93v2l-1,1h-1l-2,1h-1l-1,1l-1,-1v-2l1,-1h4l1,-1ZM536,96l1,1v3h-2v-1h-1v-3h1ZM541,67l2,1v1l1,1v2h-6l-1,-1v-2l1,-1h2v-1ZM522,46h4l1,1h2l1,1h1v1h1h-7l-1,1h-1l-1,-1h-1v-1h-2v-2h2ZM541,151h-3l-3,-1h-1v-1h1l2,-1h1l2,1l1,1ZM547,130v1h-1v-1h1v-1ZM546,130v1l-1,1v-2l-1,2h-1v1l1,-2h-1l-1,1h-1l2,-2v-2h1v2h-1h1v-2h1v1h1ZM541,130l1,-1h1ZM497,34h-2v-1h2v1h1ZM469,34h-1v-2h1v1h1v1ZM484,26v1h-1v-1h-1h1v-1l1,1h1ZM458,48h-1l-1,-1v-1h-1h1v-1h4v1h1l-2,2ZM471,38h1h-2v1h-1v-1h-2v-1h4ZM469,36h1v1h-2v-1ZM438,37h-1h1l1,-1h2l-1,1ZM455,31h-2v-1h2ZM304,130v-1h1ZM292,145v-1ZM304,133l-1,1v-1h-1v1v-1h1l1,-1ZM302,138v-1l-1,-1v-1h1l1,1v2ZM307,128l2,-1l-1,1ZM306,140l-1,2l-2,2v-1l2,-2h-2v-1h1v-1h1v-1h1l1,1ZM301,163v1ZM311,163h-1v-1h1ZM300,162v-1h-1v-1h2l-1,1ZM308,159v1v-1l1,-1v-1h1v1h-1v1ZM303,142l-1,1v-2h1v-1v1ZM302,149v-1h1ZM304,143h1v-1l1,-1h1h-1l-1,1v1ZM303,139v-1h1ZM304,139v-1h1v-1v1ZM311,169v-1h1h-1ZM673,204h-1ZM662,194h-1v-1h1ZM652,182h1h-1v1l-1,-1v-1h1v-1h1v-1l1,1h-1l-1,1ZM636,179v1ZM636,179v-1ZM635,204v1v-1h1ZM632,202h-1v-1h1ZM590,198h-1h1v-1h1ZM589,197v1v-1h1ZM603,188h-1l1,-1h1ZM672,157v-1ZM681,164h-1h1v-1ZM669,150h-1v-1h1ZM683,163v1h-1v-2ZM690,178v-1ZM593,93h1v1h-1v-1h-1ZM586,106h-1v-2h2v1ZM572,94h-2v-1h-2v-1l1,1h2ZM596,99h-1v-1h-2v-1h3v1ZM594,96v1h1h-1l-1,-1ZM585,112v1v-1h-1ZM601,104h-2v-1h1v1ZM629,127h-1v-1h1ZM621,119h1h-2v-1ZM561,61h-1h2ZM585,71h-1h1v-1ZM520,38v1h-1v-1ZM541,127v-1ZM541,123v-1ZM543,128v-1ZM545,148h-1v-1ZM549,156h-2l2,-1ZM312,168l-1,-1v-1l1,1ZM309,160v-1h1ZM549,70h-4v-2h1l1,1h2ZM541,90l1,1h1v1h-3l-1,-1l1,-1ZM487,39h-1v-1h1v1h1ZM536,111v-1h1v1ZM537,110v-1l1,1ZM479,49h-1v-1h1l1,1ZM479,43h1ZM476,46h-1l-1,-1h3ZM495,63v1h-1v-1ZM494,64h-1ZM558,94h-1ZM543,67h-1l-1,-1h2v1h1h-1h1ZM542,105v-1h1v1ZM531,68h-1ZM546,91h-1l-1,-1h-1l1,-1l1,1h1ZM527,62h1h-2v1h-1v-1h-1h2l1,-1ZM532,62h-1v1h-1v-1h1ZM541,88h-1h2ZM519,77h1l-1,1v-1h-1ZM529,66v-1h-1h1v-1h1v-1h2l-2,2Z"/>
<path class="sl" d="M536,64h-2v-1h2ZM505,60v1v-1l1,1h-2v-1ZM517,80h1h-1h1h-2v-1h-1l-1,-1h2v1h1ZM506,71l-1,-1v-1l1,-1l1,1v2ZM514,81h-1v-1h-1v-1h1l1,1ZM481,99h1ZM474,36h2ZM474,31h1ZM476,32h-1h2ZM498,37h-1l-1,-1h1v1ZM484,40h-1v-1v1ZM484,43h-1ZM434,36h-1h2ZM451,34h-1h2ZM465,41h-1v-1h3v1h-1ZM463,65v1h-1v-1h1v-1v1h1ZM464,65v-1ZM466,58h-1ZM479,63v1h-1v-1h-1l1,-1ZM461,63v-1h1v1ZM458,66h-1l1,-1h1v1ZM449,67l-1,-1h2v1ZM436,71l-1,-1h1v-1l1,1h-1ZM434,68h1ZM435,72v1h-1ZM433,68v-1l1,1ZM365,53h1ZM814,560h1l1,-1h5l1,1v2l-1,1v3l-2,2v1l-1,1v1h-1v-1v1l-1,1l-1,-1l-1,1v1h-1v1h-1l-1,-1l-1,1h-3v-2l-1,-1v-2h1v-1h-1v-5l1,-1v-1l1,-1h2ZM847,579l-1,1l1,-1l-1,-1h1v-1v1ZM872,659v-1l1,-1v1ZM870,662v1ZM845,565l-1,1v-1ZM813,556l-1,2v1h-1v-1h-2v-1h1l2,-1ZM809,542h-1v-2h1ZM807,560l-2,2h-1v-2h2v-1h1ZM815,559h-2v-1h1l1,-1l1,1ZM808,558v1l-1,-1v-1h1v-3h1v2ZM810,555v1l-1,-1v-1h1l1,-1v1ZM799,572l-1,1l1,-3l1,-1v-2l1,-2v-1h2v1l-1,3l-1,2l-1,1ZM736,452h-1v-2l1,1h1ZM586,364l-1,1h1v-1l1,1v3h-2v-1l-1,-1v-1l-1,-1h2ZM588,350l-1,-1v-1h1v-3l-3,-3h-3v-1h1l1,1h2v1h1v1h1l1,1v1l-1,1v2ZM624,388v2l-2,1h-2l-1,-1h1h-1v-1h2v-1l1,1h1l1,-1v-1ZM585,360v2l-1,1h-1v1l-1,-1v-1h-2v-1h1v-1h-1l1,-2v-2h1l1,1v1l1,1ZM578,343l1,1v-1h3v1h-2l-2,1h-3l-1,-1l1,1l1,-1h1v-1ZM588,357l-1,1l-1,-1h1ZM615,376h-2v-1h1ZM611,365h-1v-1h1ZM614,380l1,-1v-1h1v-2h1v1l-1,2h-1ZM593,353l1,1h1l2,2v4l-1,-1h1v-3l-1,-1h-1l-1,-1h-2v-1ZM602,370h-1l-1,-1h-1v-1h1l1,1v1ZM609,375l-1,-2h-2v-2l-1,-1v-1l1,1v1l3,3ZM604,364h-1v-1l-1,-2h-1l-1,-1h1l1,2ZM623,378h2l1,1h-1v-1h-3ZM625,386h-1v-1ZM598,945v-1l1,-1l1,-2v-1l2,-2v-1l1,-1l1,1h-1v1h-1h2v2h1l1,1h1l1,1h1l1,1h4v1h-4l-1,1h-3l-1,-1l-3,1h-1l-1,-1h-1v1ZM617,943h1h-1l-1,1v-1ZM674,864h-1ZM715,419h-1v-1h2v1ZM715,414v1l-1,-1v-1ZM667,957h1v1h-2v-1ZM494,988h-1ZM399,990h4l1,1h1h-1l-1,-1h2l1,1h4l2,1h7l2,1h7l4,1h12v1h-1h4l-1,-1h1l1,1h2v1h21v1h5l-1,-1h-5l-1,-1h-1h2h-2v-1h-1h9l1,1h19l1,-1h4l-1,1h14l1,1l2,-1h3v-1h3l1,1h11l3,-1h10l1,-1h5l1,-1h2v-1l1,-1h1v-2h1h-1h1v-1h6l-1,-1h2v-1h1l1,-1h2v-1h-1l-1,1h-1v-1h2v-1h2l-1,1h2v-1h1v-1h4v-1h2l1,-1h3l1,-1h2v-1h4v-1h3v-1v1h1l1,-1h2l1,-1h2l3,-1h1l2,-1h3l1,-1h3l2,-1h1v1h-3l-1,1h-3l-1,1h-2v1h-3v1h-1l1,-1h-1l-1,1h-2l-2,1h-3v1h-2v1h-2l-1,1h4v-1h1v1h-4v1h-1v-1h-2v1h-1v1h-1v-1h-3v1h-3l-1,1h-1v1h-3l-1,1h-1h1l-1,1h-1h1h-1h5l-1,1l1,1h-1v1h-1h1h-1v1h-1h1h-1v1h-2l-2,1h-1h1h-1l-1,1h1h-2v1h-1v-1l-1,1h-1h1h-2l-1,1h1h-1h1h-4v1h-5l-1,1h-7l-3,1h-8v1h-6l-1,1h-17v1h3l1,-1h4v1h-1h1h-1h4l1,-1h1h-1l-1,1h-44l-1,-1h-15l-1,-1h-10l-1,-1h-8l-1,-1h-7l-1,-1h-6l-1,-1h-6l-1,-1h-5l-1,-1h-5l-1,-1h-3l-1,-1h-3Z"/>
<path class="sp" d="M525,999h-2l-1,1h-44l-1,-1h-15l-1,-1h-10l-1,-1h-8l-1,-1h-7l-1,-1h-6l-1,-1h-6l-1,-1h-5l-1,-1h-5l-1,-1h-3l-1,-1h-4"/>
<path class="sl" d="M558,997h1v-1h7l3,-1h1h-2l-1,1h-7l-1,1Z"/>
<path class="sp" d="M572,995h-4l-1,1h-7l-1,1h-1"/>
<path class="sl" d="M532,999h-1h7l1,-1l-1,1h1v-1h1h-1l-1,1h-5Z"/>
<path class="sp" d="M542,998h-3l-1,1h-6"/>
<path class="sl" d="M556,987v1v-1h1v3h-1h1h-1l-1,1h-1v1h-2l-2,1h-3l1,-1h-1l-1,1h-2v-1h1h-5v1h-4l-1,-1h6l1,-1h8l1,-1l1,1v-1h-2h2v-1h1h-4l1,-1h1h-1v-1h7ZM474,993h7v1h-9l-1,-1h-1h3ZM426,992l1,1h-4v-1h-1h3ZM412,990v1h5v1h1h-2l-1,-1h-4v-1h-1h1ZM528,999h-1h5l4,-1h1h-2l-1,1h-5ZM612,973l1,-1v1h-2l-1,1v-1l-1,1l1,-1h-1h1l1,-1h1ZM623,969v1l1,-1v1h-3ZM620,966v1v-1h1l-1,1h-3v1h-2l1,-1h2ZM592,975v1v-1h1l-1,1h-4l2,-1h3ZM595,975h-1l1,-1h2l-1,1ZM567,983v1h-3l1,-1h2l1,-1h1h-1v1h1h-1ZM542,990h1l-1,1h-3v-1l1,1v-1h1ZM541,989h1h-1v1h-3v-1h2ZM536,994h-1v1h-4v-1h3ZM493,995h-1l1,-1h-1h2v1ZM533,999h-1h2ZM533,999h-1h2ZM632,963v1v-1h1ZM620,971h-1v-1h2ZM611,974h1l1,-1h1h-1v1ZM621,969l-1,1v-1h2ZM614,972h1h-2ZM577,987h1v-1h1l-1,1ZM608,969h2l-1,1h-1v-1h-1v1h-1v-1h1ZM549,989h-2v-1h2ZM483,994h-1h3ZM460,994h-2ZM429,993h-1h2ZM417,992h-1ZM636,963h1ZM615,968h-1ZM579,987h-1ZM585,985h-1ZM577,988h1ZM576,989h-1h2ZM613,968l-1,1v-1ZM607,970h-1v1v-1ZM603,973h-1h1v-1h1ZM598,974h-1h2ZM590,976h-1h2ZM599,971h1ZM579,979h-1h2ZM575,980l-1,1l1,-1h1ZM571,982h-1ZM568,984h-1h2ZM549,989v1l1,-1v1h-1ZM536,994h1ZM486,994h1ZM435,994l-1,-1h1l1,1ZM407,991h-1ZM410,991h-1ZM704,411h1Z"/>
<path class="sh" d="M495,420v-1l1,-1v1h2v-1l2,-4h2l-1,1h2l1,1l-1,1v3h-1v2h1l-1,2v6l-2,2v1h-2l-1,2v1h-3v-14ZM505,419h-1h1v-2ZM505,423v1v-1h1v-1v1Z"/>
<path class="sw" d="M746,65l-1,-1Z"/>
<path class="sr" d="M745,64l1,1"/>
<path class="sw" d="M535,222v2h3l1,1v-1l1,-1h1l1,-1h1l2,-2h1l2,-1l1,1h3v-1h1l1,-1h6l1,-1h-1v-1h1v3h-1v1h-1l-2,2l-3,1l-1,1l-4,1l-2,1l-2,2h-4l-1,1h-1l-1,-1h-1v1h-1v-1h1h-1l-1,-1h-1l-1,-1v-1h1v-1h1h-1v-1h1ZM560,217h1v-1h-1ZM457,164v1h-1v-1l-1,1v1h-2v-2h1v-2l2,-2h-1l-1,1v-1l1,-1h1l-1,-1h-2v1v-3h-2l1,-1h-1v1h-1v1l-1,-1v-2l-2,-1v-1l-1,-1v-1l2,-1h-3l-1,-1l1,-1v-1h1v-1l1,-1h3l1,1h1l-1,-1h-1v-1l2,-2h1v1h-2v1h-1h1v1v-1h1v3l1,1v2h1v1h-1l1,1v2h1v4h1v2l2,2h-1v2ZM450,154v-1h-1ZM456,161h-1v1h-1h1ZM420,92v1h-1l-1,-1h-7v1h2v1h-3v1h-2v1h-1l-2,1l-1,1h-3v1v-1h-2l-1,1h-1v1h1h-5v1l-1,-1v1h-4l-1,-1h-1v-1h-2l-1,-1h1l1,1l1,-1h2v1h1v-1h1h-1h2v-1h1v-1h4v-2h-1v-1h1h-1h1v-1h-2v-1h1l1,1h1v1h2v1h1v1h6l1,-1h2v-1h1v-1h2l2,-1h3l1,1h1ZM408,95h-1l-1,1h-4v1h1v1l1,-1h1v-1h2ZM579,206h-1l-2,2v1l1,-1v2h-1h1v2h-1v1h-1l-1,1h-4l-1,1v-1h-7l-2,1h-5l1,-1v-1l1,-1h1l1,-1h1l1,-1h5v-1h2l1,1l1,-1v1h3v-1h-1v1v-1h-1v-1h-1v1v-1h-1l-1,1v-1h3v1h1l2,-2h1l2,-1h1v-1ZM574,208h-1ZM576,207l-1,1h1ZM402,73h1h-1v1h-2v1h-1v1h1h-4l-1,-1h-1v1h-2v1h1h-2v1h-3l-1,1h-1l1,-1l2,-1h1l1,-1h-4l-2,2h-4l-1,-1h2l2,-2h2v-1h4v-1h-2v-1h-2v1h-3l-1,-1h-1v1h-2l1,-1h2l3,-1h8l1,-1h6l-1,1h-3v1h-1v1h6v-1h2ZM535,222h1v-2h1v-1h1v2h1v1h-3ZM751,68v-1v1h1l1,1h1v1h2v1v-1h-1h1v1h1v1v-1v1h1h-1v-1h-1l-1,-1h-1v-1h-1h1v1v-1h-2v-1v1h1l-1,-1h-1l-1,-1h-1v-1v1h2ZM561,342v2h-2v-1h-1v-2h1v-1h1l1,1ZM532,477v1h-1v1v-1h-3l-1,-1h-2v-1h-1v-1h-1v-2h-1v-3l1,-1h1v1h1l1,1h1l4,4v1ZM657,706v-2h-2v-1h-1v1h-1v-3l1,1v-3h1v-1h1v1h1v1h1v1h1v1h1l1,1h-1h2v1l-1,1h1l1,1h1h-1v1h-2v2h-1v-1h-1l1,-1v-1h1v-1h-2v1h-1ZM444,148l-1,1h-1v-1h-1v1h-1v-1h-1l-1,-1h-1l-1,-1h3v-2h1h-1v-1h1v-1h1v-1v1h1h-1v1h-1h1v1h1l1,-1v1h-1l-1,1h-1v1h1v2h1v-1h2l-1,1ZM350,227v1h-1l-1,1h-1v-1h-1l-1,-1v-4l1,-1h1v1h-1l1,1v2h1v-2h2v1h-2l1,1v1ZM348,228h1v-1h-1ZM523,198h-1l-1,1v1h1h-1l-1,1h-1v3l-1,1v-1h1v-1h-1v1v-2h-1v1h-1v1h-1v1h-1v3l-2,2h1v2l-1,1l1,2l1,1v1l1,1v2l-1,1v2l-1,1v1h-1v1h-1l-2,1h-3v-2l-1,-1v-1l-1,-1v-1l1,-1v-1h-1v-5l1,-1v-3l1,-1v-2l1,-1v-2h-1l-2,2h-1v-1l2,-2h1v-2h1v-1l1,-1v-1h1v-1v1h1v-1h2v1h-1v1h1v-1h1v-1h1v-1h1v1h1v-1h2v-1h1l1,1h1l2,1ZM518,198v1ZM515,202v1h1v-1ZM510,200l-1,1h1ZM509,201v1h-1v1h-1v1h1v-1h1v-1Z"/>
<path class="sw" d="M524,193l1,-1v1h-4v-2h-6l-1,1v-1v1h-1l-1,1h-3v-1v1h-2v-1h-1l-1,-1v-1h-4l-1,1v-2l-1,-1h-1v1h-2l-1,1h-2l-1,1h-1l-1,1h-3v-1v1h-1v-2h1h-3l-1,1h-4l2,-2l5,-3v-1h2l2,-1h1l1,-1h2v-1h1v-1h1v-1l1,-1h1v1h1v-2h1v-1h1v1l-1,1v1v-1h2v-3h-1h3l1,1h6v1l1,-1v1h1v2h1v2h1l1,1h5v3h1l1,1v1h-1h1l-1,1l1,1h1v2ZM487,191l1,-1h-1v1h-1ZM488,190h-1ZM489,189h-1ZM503,177h-1v1h1l1,-1ZM498,183l1,-1h1h-1h1v-1v1h-1l-3,1v1h1v-1h1h-1ZM504,187l1,-1h-3l-2,2h-1h1v1v-1h1l-1,1h1l2,-2ZM505,178v-1h-1v1ZM517,184h-1ZM525,192h1l1,1h-1l1,1h3l3,1h8v1v-1h1v1h5v1h1v1h1v1v-1v1l1,1h2v1h-1h1v1l1,1h1v1v-1v1h1h-3v1h1v1h-3l-1,-1h-2v-1h-1v-1h-1v-1h-1v-1h-2v1h1v1h1v1h1v2h-1v1h-1v2l-1,1h1v5h-1l-2,2h-2v-2l-1,-2v-2l-1,-1h-3l-1,1v1h-1v1h-2v-3h2v-2h1v-4l-1,-1h1v-1l-2,-2h-3v-1h-1l-1,-1h-2v-2h4v-1h-1v-2h-1ZM531,196v1l1,-1ZM530,196v-1h-1v1h-1h1ZM528,195v-1h-1v1ZM526,194v-2l-1,1h1ZM525,197h-1v1h1ZM534,197h1l1,1h2v1h2l1,-1l-1,1h1l1,-1v-1h-1v1v-1h-1h1h-1v-1h-1v1h-1v-1h-2v1h-2v-1h-2v1ZM541,199v1ZM430,355v1l-1,1l-2,5v5h-1l1,-1v-3h-1v-1h1l1,-1l-1,-1l1,-1v-1h-1l1,-1v-1h-1l1,-1h1v-1h1ZM435,117h-1v1h-1v1h-1v1h-2l1,-1h-1h1v-2h1v-1l1,1l1,-1h1ZM409,112h-4l-1,1h-1v1h-2v1v-1h-1v-1h-1h3l2,-2h1l1,-1h2v-1h3v1h1h-1h6l1,1h5v1l-3,-1h-5l-1,1h-4ZM584,160v1h-1v1h-1v1v-1l1,-1v-1l-2,2v5h-1v1l-1,-1h1l1,-1l-1,-1h1l-1,-1v1h-1l1,-2v-1h-1h1h-1v-1h2l1,-1v-1h2l-1,1h1l1,-1v1ZM803,104h1v1l1,1l-1,-1h-1v-1h-1v-1h-1v-1h-1l1,1h1v1ZM804,105l-1,-1l1,1h1v1v-1ZM469,173v1h-1v-1h-1v-1l-1,1h-1l1,1h1l1,1h-1l-1,1l-2,1v-1h-3v-1h1v-1h1v-1h1v-1h1v-1v1h-2v1l-1,-1h1v-1h1v1v-1h2v-1l-1,-1h1v1l1,1v1h1v1ZM465,174h-1l1,1h1v-1ZM503,170h-1v3h-2v-1v1h-2l1,-1h1h-2v1h-1v-1h1v-1h-1v-1v1h1v-2l1,-1v-1l1,1h1l-1,-1h1l1,1v1h1ZM500,169h-1v1l1,1v-1h-1ZM501,172v-1h-1v1ZM439,120h1l-2,2h-1v1h1v1h-2l1,1h-1l-1,1h-1v1h-1l-2,1h-1v1h-1v-1h1v-1l1,-1v1h1v-1h2v-2h-1h1v-1h-1v-1h1v-1h1l1,-1h1l1,-1h1ZM580,214l1,1h-2l-1,-1ZM271,88l-1,1h-2v1h-1l-2,-1l1,-1h3ZM254,97h-1v1h-1l1,-1h1l-1,-1l1,-1h1v1ZM297,238v1h-1l1,-1h-1l1,-1h1ZM501,210v1l-1,1v-2l1,-1ZM558,75v-2h2l1,1h4v1h1v1h-4l-1,1v1h-1v-2l-1,-1ZM448,91h1v-1h1v1v-1h3v1h-2v2h-1v1h-1v-1v1h-1v-1h-1v-2Z"/>
<path class="sw" d="M477,87v1h1h-6v-1h4ZM594,207v1h-1v-1l1,-1h-1v-1l-1,-1l1,-1l-1,-1v-1h1v1v-1h1l-1,1h1v4ZM310,284l-1,1h-1v-1l-1,-1v-1h1v1l1,1ZM391,88l-1,1v-1h-1l-1,-1h-1h1l1,-1h1v1h1ZM601,880v-1l1,-1v1h1v1h-1ZM594,178l-2,-2h3v2ZM573,219v1l-1,1v-1h1ZM574,221v-3l-1,-1l1,2v1ZM577,220h-1v-1l-1,-1v-1v2h1ZM419,120v2h-4l-1,1v-1h1l-1,-1h3l1,-1ZM456,93h1l1,-1v1l-1,1h-2ZM440,106h1v-1h1v1l1,1v1h-1l-1,1v-2h-1ZM486,315l-1,1h-1l1,-1ZM570,130v1h-1l-1,-1h-2v-1h2l1,1ZM548,194h2v-1h4l1,1h-3l-1,1v-1h-2ZM558,130v-2h1v1h1v1h1h-1ZM690,811h-2l-1,1l-2,-2h1l1,-1h3v1ZM564,145v-1h1l1,-1h1l1,1l2,-1v1h-2v1h3l1,-1v1h-6v1h-2v-1h1ZM564,145h-2v1h-5v-1h-1l1,-1h3v-1h-1v-1l1,1h1v-1h1v2h-1l-1,1h3ZM253,97h-1l-1,1h-1v-1h2ZM639,411h-1v1l-2,-1h2ZM389,104h-1v1l-1,-1h-1h2l1,-1ZM562,148h-1v1l-1,-1v-1l1,-1v1v-1h1v1h-1h1ZM591,926h-4l-2,1h1l-1,1v-1h-1v-1h1h-1v-1h1v1h4l1,-1ZM425,107v1h-2l1,-1h-1h2v-1h1l1,1h-1ZM335,28h1ZM520,21l3,-1v1ZM495,151v-1h3l-1,1h-1ZM843,137l1,1ZM786,102l1,1h1l-1,1v-1h-1ZM752,68l1,1h1v1h2l1,1h1l1,1l-4,-2l-1,-1h-1ZM368,204h-1v-1h-1h1l1,-1v1ZM350,44l-1,1h-1v-1h1ZM355,178v-1h1v1l-1,1v1h-1v-1h1h-1ZM328,265h-1v-2h-1l-1,1h-1v-1h-3v1v-1l1,-1h2v-1l1,-1l-1,1v2h2v-1l1,1v1h1ZM397,114l-1,1h-1v-1h-1v-1h1l1,-1h1v1h-1h2ZM625,139l1,1h-2l-1,1h-1l-1,-1h-2v-1v1h-1h1v1h-2v2h1l1,1h-3v-1h1l-1,-1v-1h-1v-1h-2l-2,-1l-2,-2v1h1v2h1h-1l-1,-1v-1h-1v-3h-1v-1h1v2h1v1h1v1l1,1h2v1l1,-1l1,1h3l-2,-2h-2v-2h1v1l1,1h1v1h3v-1l-1,1v-2l-1,-1h1v1l1,1h1v1h3ZM497,438l-1,1v1h-1l-1,1h-1v-1l1,-1h1l1,-1ZM720,51h-1h1l1,1h1l1,1l-1,-1h-1ZM484,163h1v-1l1,1h1v-1h1l1,-1v1h1h-1l-1,1h-3ZM580,178l-1,1v-1h-1v-1v2h-1v-1h-1h1l-1,1v-1h-1l1,-1h1v-1v1l1,-1h2v1h1v1h2v1h-2v-1ZM747,66h1h-1v-1Z"/>
<path class="sr" d="M747,65v0"/>
<path class="sw" d="M576,136v-1h3l1,-1v1l-1,1h-2v1h-2v-1h-1h1ZM776,521v1h-1v1l-1,1v-1h-1v-2l1,-1v-1h1v1h1ZM683,35h-1h2ZM572,218h-1v1v-2h1ZM577,218l-1,-1ZM578,218l-1,-1h1ZM262,80h-2l-1,1h1v-1h1v-1h1ZM356,220v1h-1v-1h1v-1ZM349,233v1h-1v-1h1v-1h1v1ZM380,68h1h-1v1h-1ZM466,188l-1,1v-1h-1v1v-1h1v-1h1ZM490,176v1h-2v-1v1h1ZM576,189v1h-2v-1h1v-1ZM607,874h-1l1,-1ZM367,101h-1v-1h1l1,-1v1ZM590,924l-1,-1h-2v-1h1v1h3v1ZM343,25l-1,1ZM337,27v1h-1ZM718,50h-1h1v1h1h-1ZM643,204v1h-1v-1ZM633,193h-1h1v-1ZM304,216v1l-1,1v-2ZM303,232h-1v-2h1v1ZM294,253l-1,1v-1ZM405,63h1v-1v1h-1v1h-1ZM603,170h-1v-1h-1v1h-1l1,1h-1v-1v1h-1v-1h-1v1v-1h2v-1h1l-1,-1h1v1h2v1h1l1,1h-1v-1ZM670,167v-1l1,1h-1v2l-1,1v1h-1v-1h1l1,-1v-1ZM381,67l1,-1v-1l1,1h-1h1h-1v1ZM383,67l-1,1h-1v-1h1ZM394,79v-1h2v1h-1v1h-1h1h-1ZM490,145h4v1h-2l-1,-1ZM475,162h-2v-1h2ZM470,145h-3v-1h1l1,1l1,-1h2v1h-1ZM593,148h1h-1v1h1v1l-1,-1v1v-1h-2v-1h1h-1h1ZM422,135h-2v1h-2v1v-1h-1h1v-1l1,-1h2v1ZM470,194v1h-2v-1h1ZM607,210v1h1h-2v-1ZM556,207v1v-1h-1l1,-1v-1h1v1h1v1h-1ZM473,139h1h-1l-1,1h-2v1h-1v-1h1v-1h2ZM317,208h-1v-1h2v1ZM676,173v1ZM465,134l-1,1h-1h1v-1ZM296,58l-1,1v-1ZM267,76h-1v1v-1h2ZM265,79v-1h1ZM259,88l1,-1v1ZM265,85h-1v-1v1ZM266,83h1h-1v1ZM262,87h-1v-1h1h-1h1ZM475,180l-1,-1h1h-1v-1l-1,1h1h-1v-1h-1v-1h-1h1v-1h1v2h2l1,1v-1v1h1h-1h1v1h-1ZM344,124h-2l-1,1l-1,-1h-1l-1,1v3h1h-1v1v-4h-1v-1h1h-2v-1l1,1v-4h1v4h7v1h-1ZM463,131h-1v-1h1ZM397,183v-2h-1v1h-2v1v-1h-4l-1,1h-1v1v-1h-1v-1h-1h2v1h1v-1h5l1,-1h1v-1h2v1h-1h1v2ZM420,184h-1l1,-1h-2v-3h-3v1h-2v-1l-1,1v-1h6l1,1v1h-1h2v-1v2h1h-1v1h5v1h-4v-1ZM326,101h-1l1,-1v-4h1l-1,1v1h1v1l-1,1ZM340,167v-2l1,-1l-1,2ZM345,176h-1l-1,1v-1h1v-1h-1h2ZM325,176h-1v-1l-1,-1v-1v1l1,1ZM425,112l-1,1h-1h1l1,-1l2,-1v1h1h-2ZM303,81v-1h1h-1ZM462,182h1v1h-2v-1ZM462,181h3v1h-3ZM462,95h-1v-1h3v-1v3h1h-2v-1v1h-1ZM566,83h-2v1h-3v-1h-1v-1v1h2v-1h-1h1h-1v-1l-1,-1l1,1h3v1h1l1,1v1h1h-1ZM406,320h-2v-1h1v1h1v-1ZM571,187h1v1h-1l-1,-1v-1v1h-1v-2h-1h1v-1h1h-1v1l1,-1v1h1v1ZM385,397v1h-1l-1,-1h-3v-1h4v1ZM521,467v1l-1,1h-1v-1h-2v-1h-1h1l1,-1h1v1h1ZM756,763h-1v1h-1v3h1h-2v1h-1v-1h1v-1h-1l1,-1v-1h-1h2v-1h1v-2h1v-3h1v2l-1,1v1Z"/>
<path class="sw" d="M576,494v1h-2v-1v1h-1l-1,1v-1h1v-1l1,-1h1v1h-1h1ZM834,128l-1,-1v1ZM996,444h1v2h-1v-8h-1v-1h1h-1v-1v1v-5h-1v-4h-1h1v1v-1l-1,-1v-1v1h1v4l1,1v-1v1v-2h-1v-1h1v7h1v7ZM996,444v-1ZM747,817v1h-1v1h-1v1h-1v-1h-1v1l-1,1h-1v1h-1v2h-1v-2l2,-2h1v-1h1v-1h1l2,-2h1v-1h1l-1,1ZM448,166l-1,1h-3v-4l-1,-1v-1v1h1v-1h-1v-2l-1,-1h-1v-1h1v1h1v-1v2h1v-1h1v1h-1v1h1v1h-1v2h2v1h1v1ZM440,158h-1v-1h-1v-4h1v-3h-1v1v-2h-1v1h-1v1h-1l1,-1h-1v-2h1v1v-1h2v1h3v1h1h-1v3l-1,1v2l-1,1h1v-1v1ZM608,157v2h-1v2l-1,-1v-1h-1l-1,-1h-1v-2h-1h1v-1v1h1v-1l1,1v-1h1v-1v2h1l1,-1l-1,1h1h-1ZM607,157h-1h1v1v-1l-1,-1h-1l-1,1v1l1,1h2l1,-1h-1ZM405,126v1v-2h1v2h1v1h-1v2h-1l-1,1h-1v1v-2h-1v-1h2v1l2,-2l-1,-1ZM603,908h-7l-2,1l-1,1h-1v1v-1h1v-1h1v-1v1h1l1,-1h2l1,-1h3v1ZM328,265h-1v-2h-1l-1,1h-1v-1h-3v1v-1l1,-1h2v-1l1,-1l-1,1v2h2v-1l1,1v1h1ZM353,251v1h-1l-2,2v1h-1v1h1h-1l-1,1h-3v1h-1v-1h1l1,-1v1v-1h1v1l1,-1h1v-1l2,-2h1v-1ZM454,123h1v1h-1v1h-1l-1,1h-2l-1,1h-1v-1h1v-1v1h1v-1v1h1v-1h1v-1h1v-2h1ZM864,629l1,1v1h-2v2h-1l-1,1h-1v1h-1l-1,-1v1h-1v1l-1,1l2,2h-1v-1h-2v3l1,1l-1,1v1l-1,1l1,-1v-4h-1v1l-1,1v1l-1,1v2l-1,1v1h-1v-1h-1v-1l2,-2v-1h1v-2l1,1v-2h1v-2l-1,-1h-1h1v-1v1h1v1v-1h1v-1h1v-1l-1,-1h1v-1h1v-1h1v1h4v-3h1l1,-1v-1ZM851,645v-1h1h-1v1h-1h1v1h-1l1,1v-1ZM548,177v-1h2v1h3v1h-4v-1ZM397,183v-2h-1v1h-2v1v-1h-4l-1,1h-1v1v-1h-1v-1h-1h2v1h1v-1h5l1,-1h1v-1h2v1h-1h1v2ZM428,202h-1v1l-1,1h-1v1h1v1h1h-2v-2h-2v-1h4v-1l1,-1v-1h-2l1,-1h1l-1,-1v-1v1h1v-2l-1,-1v-1l1,-1v-2h-1v-1h1v6h1l-1,1v4ZM326,101h-1l1,-1v-4h1l-1,1v1h1v1l-1,1ZM340,167v-2l1,-1l-1,2ZM996,444h1v2h-1v-8h-1v-1h1h-1v-1v1v-5h-1v-4h-1h1v1v-1l-1,-1v-1v1h1v4l1,1v-1v1v-2h-1v-1h1v7h1v7ZM996,444v-1ZM696,40h-1l-1,-1l1,1ZM696,40h1h-1h1v1h1h-1v-1ZM714,48v1v-1h-1l-1,-1h-2l-1,-1l1,1h1h-1h2v1h1ZM709,46h-1h1v1ZM427,86h-1l-1,1l-1,-1h1v-1h1v-1v1h1h-1v1ZM427,86h3v1h-1h1l-1,1h-1v-1h-1ZM433,213l1,1v1h1v1h1h-1l-3,-3v-1h-1l1,-1v-1h1h-1v3ZM417,343h1l-1,1v1v-2h-1v-2h-1v-1l2,2ZM406,134l-1,-1v-1h2v-1l1,-1v1l-1,1v1h-1ZM435,105h-1v1h-1l1,-1h-1v-2h1h-1v-1h1v2h1l1,-1h1h-1v1h-2v1h1v-1h1ZM475,83l-1,1h-2v-1h2ZM596,141h1h-1l-1,1h-1l1,-1h-3l1,-1h-1v-1h1l1,1v1h1Z"/>
<path class="sw" d="M600,143v1h1h-1v1h-1v-1h1v-1h-1h1l-1,-1h-2v-1h2v1h1ZM591,139l-1,1v-1h2v-2l1,1v1h-1ZM503,265v1l1,1v3h-1l1,-1v-1l-1,-1v1v-3l-1,-2v-1ZM544,285v1h1v1l1,1h-2l1,-1l-1,-1h-1v-1h1v1ZM347,149h1v1h-2l1,-1v-1h-1v-2l1,2ZM552,322v-1v1l1,1v1l-1,-1ZM320,276v-1v1h1l1,1h-1v-1ZM290,223v1h1h-1ZM410,79v-1h-1h1v-1h1v1h-1h1v1h2l1,1h1v1v-1h-2l-1,-1h-1ZM297,211v3l-1,-1h1h-1v-1h1ZM314,208h1v1h-1ZM624,195h2v1h-1l-1,-1h-1ZM812,596l-1,-1h1v-2l1,-1v-1v1l1,1v4h1v5l1,1h1l-1,1l-2,-2v-1l-1,-1v-2h-1l1,-1v-1ZM826,710v1h-1v1h-1l-1,1v-1h1v-1h1v-1l-1,1l1,-1v-1l-1,1v-1h1l-1,-1v1h-1l1,-1h1v-2h1l-1,1v3ZM783,728v-1h2v-1h1v-3l1,-1v2l-1,1l1,-1l2,-1l-2,2h-1v2h-1l-1,1l1,1h-1l-1,-1v1ZM604,877v-1h2l-1,1ZM619,901v2h-1l-1,-1l1,-1ZM834,128h-1v-1v1ZM287,50v-1h1h-1v1h-1h1v-1h1h-1ZM321,89l-1,1l1,-1v-1ZM261,93h-1v1h-1v-1h1h-1v-1h1v1ZM273,86h2l1,-1v1h-4v1v-1ZM279,88h1v1h-1l1,-1ZM273,78h-1l1,-1ZM267,78h-1v1v-1ZM270,74v1h-1ZM278,70h1ZM506,279h3l2,1v1h1h-1l-2,-2h-2ZM731,57l1,1ZM729,56h-1h1l1,1h1h-1ZM564,159h1v1h-2v-1ZM484,162h-1ZM481,157l1,-1v1ZM554,162h-1v-1ZM558,185h-1v-1h1ZM566,184v1h1h-1v1h1h-1v-1h-1ZM428,83h1ZM428,83l-1,1h-1h1v-1ZM425,83v1ZM424,83v1ZM527,56h1h-2ZM452,61h1ZM467,72v1h-1v-1ZM461,136h2l1,-1h1l-1,1h-2ZM431,139v-1h1v2h-2ZM413,141l1,-2h1v1h-1v1h-1v1ZM590,145h-1v-1ZM641,148h1v1h1h-1l-1,-1h-2l1,-1ZM415,83v-1l-1,-1l1,1ZM528,180h-1h2v-1ZM411,131v-1h1ZM413,132v-1h1v1ZM444,94v1h-1h1v-1h-1ZM438,101v-1h1l1,-1v1h-1v1ZM431,116v-1h1v1ZM591,127l1,1l2,1l-2,-1l-1,-1v-1ZM499,76h-1ZM501,76h-2l1,-1h1Z"/>
<path class="sb" d="M894,210l-2,-1v-1h-1v-1l-1,-1v-1l-1,-1v-1l-2,-1v-1h-1v-1l-1,-1v-1h-1v-1h-1l-1,-2h-1v-1h-1v-2l-1,-1v-1h-1v-1h-1v-1h-1v-2h-1v-1h-1l-1,-1v-1l-1,-1v-1l-3,-3h-1v-1v1v-1v1h-1h1v1h-1v1v-1l-1,-1h-1l1,1M869,166h-1v-1M869,165v1h1h-2v-1h-1v1h-1v-1h-2v-1h-1v-1M824,120v1v-1M820,117h-1h1v1h1v1h1l1,1h1v1v-1h-2v-1h-1l-1,-1h1v1l-1,-1h-1v-1v1l-1,-1h-1v-1h-1h1h-2v-1h-1v-1M815,113v1v-1h-1v-1h-1v-1h-2v-1v1v-1v1h1v1v-1M835,130v-1h-1l-1,-1v-1h-1v-1h-1l-5,-5h-1h1v1v-1h-1l1,1l-1,-1h-1v-1h-1v-1h-1v-1h-1l-1,-1h-1v-1l-1,-1h-1v-1h-2v-1h-1v-1h-1v-1h-1l-2,-2h-1v-1h-1v-1h-1v-1h-1v-1h-1l-1,-1h-1v-1h-1l-2,-2h-1l-2,-2M846,140v-1h-1l-1,-1v-1h-1l2,2h-1v-1h-1v-1h-1v-1l-2,-2h-1v-1h-1v-1h-1v-1h-1h1h-1v-1h-1v-1h-1v-1v1v-1h-1h1M837,131v-1h-1M838,131h-1l1,1v-1h-1v-1h-1l-1,-1v-1h-1l-1,-1l1,1M859,152l-1,-1h-1v-1h-1v-1h-1v-1h-1v-1l-1,-1h-1v-1h-1v-1h-1v-1h-1v-1h-1v-1h-1v-1h-1v-1l-2,-2h-1v-1h-1v-1v1h1v1h1l1,1v1v-1h-1v-1l-1,-1h-1v-1h-1v-1v1h1h-1h1l-1,-1h-1v-1h-1h1h-1v-1l-1,-1M551,491v1h-1v-1h-1v1h-1v4h2v1h-1l-1,1l1,1v2l-1,1h-1l2,2M542,479v1l-1,1h-4v-1h-1v-1h-2l-1,-1l-1,1h-3l-4,-2l-1,1M545,444h-3l-1,1h-1l-1,1h-3v1h-4l-1,-1h-1l-1,1v1h-1v2h-1v1l-2,2h-1v1h-1l-2,-1v-1h-1v1l-2,2h-3v4h-1v1h-1v1l-1,1h-2M502,438l-3,3l-2,1l-2,2h-1v4h-1v1M487,455h-1v-1h1l1,-1v-1h2v-1h1v-2h2l1,1h2v1h1v1h1v1h2v1h1l1,-1h2v1h3v1l-1,1v1h1v1h-1M495,420h-16v5h-2v1l2,2l2,1h1v2h1l1,1v3h-11l-1,1l-2,4l-1,1v1l1,1v1h-1v4M432,350h-1v1h-1l-1,-1l-2,-1h-3l-1,-1h-1l-1,-1h-1l-1,-1h-1l-1,-1v-2l-1,-1v-1l-1,-1h1v-1h-1v-1l1,-1l-3,-3l-1,-2l-1,-1v-1h-1v-3l-1,-1l-1,-2l-2,-2v-2l-2,-1l-1,-1h-1v-1v1h-1l-2,-1h-4l-1,1h-1l-1,2v2h-1l-2,2v-1h-1l-2,-1l-1,-1h-1l-3,-3h-1v-2l-1,-1l1,-1l-1,-3l-6,-6l-1,-2h-1l-1,-1v-1l-1,-1h-11l-1,-1v1l-1,1v2h-7l-3,-1h-10l-3,-1l-3,-2l-3,-1l-5,-3l-3,-1l-3,-2l-3,-1v-1l1,-1h-16M584,202h-1l-1,1h-1l-3,3h-1v1h-1v1l-2,2v1l-1,1h-11l-1,1h-2l1,1v3h1v1h-1v1h-2l-4,2h-1l-3,1h-2l-1,1l-2,1h-1l-2,1l-1,1l-2,1h-1l-1,-1h-1l-1,-1v-3h1l3,-3v-4l1,-1v-3l-1,-1v-1l-1,-2v-2l-1,-1v-2l-3,-3h-2l-2,-2l1,-1h-1v-1h-1l-1,1h-1v-2h-1v-2l-1,1h-1l-1,-1h-1v-2l-2,-1h-1l-1,-1h-1l-1,-1h-1l-2,-1h-1v-1h-1l-2,-1h-1l-4,-2h-1l-1,-1h-3l-1,1h-2l-2,1l-1,-1l-1,1l-1,-1h-4l-1,-1h-1l-1,1h-2l-2,-2h-2v1h-1v-1l-1,-1h-1l-1,-1h-2l-1,1h-2v-1h-3l-1,-1h-1v-4h-2v3h-4l-2,-1h-34l-2,-1h-21l-3,-1h-16l-2,-1h-13l-3,-1h-11l-2,-1h-10l-3,-1h-8l-2,-1h-8l-2,-1h-1"/>
<path class="sb" d="M362,52l-4,2l-3,3l-8,4l-2,2l-4,2l-1,1l-2,1l-2,2l-4,2l-3,3l-4,2l-2,2l-4,2l-1,2l-2,1l-2,2l-2,1l-3,3l-2,1l-2,2l-2,1h1v1l1,-1v1h4l-1,1h-1v5l-1,1v1h-1h1l1,-1h3l1,-1h1v-1h3l1,-1v2h-1v8l-1,1v2l-1,1v2h-1v1h1h-1l-1,1h1v1h-1h1v1h1v1h1v2h1l-1,1M722,804l-3,3v2h-1v2l-2,2v2h-1l-1,1v3l-1,1M752,769l-2,4v2l-2,2h-1v1l-1,1h-1v1h-2v1h-1v1h-1v1h-4l-1,1v1h-1v-1h-1v1h-1v-1h-1l-1,1h-2l-2,-1h-6l2,-2v-1h1l1,-1v-1h1v-2h1v-1l1,-1h1v-1l1,-1v-1h1v-1h1v-2l-1,-1h-1l-1,-1h-2v-1h-2l-2,-1l-1,-1h-1l-2,-2l-2,-1h-2l-3,-1h-1v-1l-1,-1h-1l-1,-1h-1v-1l-2,-2l-1,-2v-1l-2,-1v-1M668,756l1,1l-1,2l-2,3l-1,2v1l-4,2h-2l-2,2h-1v1h-1v3h1l-1,1h-1v7l-1,1v1h-1v1l2,2v1h-1l-1,1h-2l-1,1v1h-1v1l-1,2l-3,3h-1l-1,1v1l-1,1v1l-1,2l-2,2v6l-1,1h-1v1h-1v1l-1,1v2h-1l-1,1v1h-1v2l2,2h-1v3h1l-1,1l1,1v1l-1,1v1h2v2l-1,1v2l-1,1v1h-1l-2,2v1h-1v1l-1,2h-1v5l-1,1h-1l-1,1v1h-2v1h-1v1h-1v3h-1v1h1l-1,1v5l1,1h-1v1h-2l-1,1h-1v2l-1,1v1h-2v3h-1v2h-1v1l-1,1v1l-1,2v5h-2l-1,1h1l-1,1v1l-1,2h2v1h-1v4h-1v2h3v1l-1,1h-5v1h3v1h1v1h-1l-1,1h-1v1l-1,1h1l-1,1h-1v1h1h-1v2h-1v1h-1v1l-1,1l-2,1l-2,2l1,1v1h-1l-1,1v1h-1v1h-2l-2,2h-2v2l-1,1v1l1,1v1h4v2h-1v1l-1,1h1v1h1v1h3l2,-1h6l1,1h5M737,731l1,-1v-2l-6,-3h-7l-6,2l-2,1l-3,1h-2l-1,1l-1,2l-1,1l-1,2l-1,1v2l-1,2l-1,3l-3,6h-1v-1h-8l-1,1l-1,2l-1,1v1l-1,1v1v-1l-1,-1v-3h-9v-1l-2,-1h-1l-1,1v1l-2,1h-1v1h-1v1h-2v2l-1,1h-2l-1,1h-2v-1h-1l1,-1v-1l-1,-1l1,-1l-1,-1v-3l-1,-1l1,-1v-1l-1,-1l-1,-2h-1v-1h1v-1l-1,-1h-1v-1h1v-2l1,-1v-2l1,-1v-1h1v-1h-1l-2,-2h-1v-8h-1l-1,-1v-1l-1,-1v-1M659,663l1,2l1,1l1,2v1l1,2l1,1l2,4h-1v1l-1,1h-1v6l-1,1v3h1v1l-1,1v1h-1v1h-1v1l-2,2v1h1l1,2l-1,1l-1,2h-1l1,1l1,3v1h2v1h-1v2l-1,1h-1v1l-1,1h-1v1l-1,1h-1h1v3h-2l-1,1l1,1v1l-2,2h-1l-1,1h-2M614,574h-3l1,1h1v1l2,2h-1v1l1,2h-2v1l-1,2v2l-8,8l-2,1l-1,1l-3,1h-1l-2,1h-1l-2,1v1l-2,1v1h-1v1h1h-2v2h-1v2l-1,1v1l-1,1v3l-1,1h-1v1l-1,1h-3v-1h-1v-2l-1,-1h-3l-1,-1h-1l-1,1h-1v-1l1,-1h-1v-1h-1l1,-1h2v-4l-1,-1M659,607h-1v-1h-1v-1l-1,-1h-4l1,-2l2,-3l1,-2l2,-2v-1h-1v-1h-1l-1,-1h-2v-1l-2,-1h-1l-1,1h-3l-1,-1h-1l-2,2h-3v1l-1,-1h-2l-1,1h-1v-1h-2v-1l1,-1l-1,-1v-2h-3v-3l-1,-1h-2v-1h-1v-1h-2v-1h-1v-3h-1v-1h-1l-2,-2h-2v-1h-1l-1,1l-2,-2h-3v-1l-1,-1l-2,-1l-1,1v1h-5l-1,-1h-3v-2h-1v-1h-1v-1h-3l-2,-2l-2,-1h-2v-1l-1,-1"/>
<path class="sb" d="M684,559v-3h-1v-2l-1,-1v-2l-1,-1l1,-1h-1v-1h-1l-1,-1v-1h-1l-1,-1l-1,1v-1l4,-4v-1l-1,-2l-1,-1v-1l-1,-2l-1,-1v-10h1v-3l2,-2v-1h-1v-1l-2,-1h-1v1h-2l-3,1h-6v1l-1,-1h-1l-1,-1l-1,-2l-2,-1l-1,-2h-2l-1,-1h-3l-2,1h-1l-2,-1h-2l-1,1h-2l-1,-1v-1l-1,-1h-1v-1h-1v-5l1,-1l-1,-1v-1l-2,-2l-1,-2v-2h-2v-1h-3v-1l2,-2v-1l1,-1v-4l2,-4v-1l1,-2l2,-2l2,-3v-1h2l2,-1h1v-1h1M732,521l-2,-2l-1,-2l-2,-2v-1l2,-2l-1,-1v-3h2v-1h2l2,-1v-2h-2v-2l-1,-1l1,-1v-1l1,-1h1v-1l1,-1h1v-1l1,-1v-1l-1,-2M765,547v-1h-2v-1l-1,-1v-1l-1,-1v-1l-1,-1v-1h-1v-4h-3v-1l-1,-1v-1l-2,-2v-3l1,-1v-4l1,-1h2l1,-1v-1h1v-1h-1v-2h1M779,542l1,-1l1,-3l1,-1v-1l-1,-1v-1l2,-2v-2h-1v-1h-1v-1l-1,-1v-2l-1,-1v-6l1,-1v-1l1,-1M739,825v-1l1,-2v-1h1l2,-2h1v-1h-1l-1,-1v-3h-2l-2,-2v-1h-2v-1h-2v-2h-1v-1v1h-1l-1,1h-1l1,-1v-1h-1v-1l-1,-1l-1,-2h-3v1h-1l-1,1l-1,-1l2,-1v-1h1v-1l1,-1h2l1,-2l2,-2h1v-1l3,-3h1v-1h1v-1h2l-1,-1h1l1,-1h1l2,-2h1v-1h1v-1h2v-1h2l2,-2h1v-1h1l1,-1v-1h1v-3l1,-1v-5h-3v1h-1v-2l2,-2v-2l2,-3v-3h1l-2,-2l-2,2h-4v-1h1v-1h-1v-1l1,-1v-5l1,-1h-1v-2h-3l-1,-1v-1l-2,2h-6l-1,-1v1h-2v-1h1v-3h1v-3h1v-6l-1,-1v-1h1v-1h1l1,-1l-1,-1h-1l1,-1l1,-2l1,-1v-2h1v-2l1,-3l1,-1h1v-1h-1v-2l-1,-2l1,-1h-2l-1,-1h-1v-5l1,-2v-1h-8l-3,1h-2v-7l-2,-2l1,-1h1l1,-4h-1v-4h1l-1,-1v-1h-1l-2,-2h-5l-1,1l-1,-1l-1,-2h-2l-2,-1h-1l-1,-1h-1v-2h-1l-1,1l-1,-1h-1v-1h-2l-1,1l-1,-1h-3v-1l-1,-1h-1v-1h-2v-2h-1v-2h-1v-9l1,-1v-4l-1,-1l-1,1h-3l-2,1h-3l-4,4h-2l-3,3h-3v1h-1l-1,2h-1l-1,1h-2l-1,-1h-9l-1,1h-1l-1,1l-1,-1h-1v-10h1v-3l-1,1h-1v1h-1l-1,1v1h-1l-1,1h-8l1,-1h-1v-2h-1v-1h-7l1,-1l1,-2v-2h-1l-2,-2v-1h-1v-2h-1v-2h-1v-2l-1,-1h-1l1,-1v-1h2v-1l-1,-1v-2h1l3,-3h1l1,-1v-1l-1,-1v-1l1,-1v-1l1,-2v-1l1,-2v-1h1l1,-1l2,-1l1,-1v-1l2,-1h1l1,-1h3v-1h4l1,-1v-1h5v1h3v-3l1,-3v-2l1,-3v-3l1,-3v-3l1,-2v-3l1,-2l-1,-1v-1h-1v-4h-1l-1,-1h-1l-1,-1v-7h2l1,-1h1l1,-1l1,1h2v-2h-1v-1l-1,-1v1h-1v-1h-1l-1,1v-1h-1v-5h2v-1h1l1,1h2l2,-1h5v-2h1v1l1,1h1l1,-1v-1l1,-1h1v-1h1v1h1l1,2v1l1,1v3h1l2,2l2,1l1,1h1l1,-1h1l2,-2l1,1v2h1v-1l4,-4h2v-1l1,-1h2l1,-1v-1l1,-1v-2h2l2,-2h1v-2h-5v-3l-2,-4v-4l-3,-2l-2,-2l1,-1l1,1h3l1,1v1h5l1,-1l3,3h1l1,-1v-3h1l1,-1h3l4,-2l2,-2h2l1,-1v-1h1l1,-1v-3h-1h3l1,-1h1v1l1,1v3h-1v2h3v2l1,2h1l-1,1v1l-1,1h-1v2h1v1h-1v3l-1,2l1,1v2h1v4h1v1l1,1h1v1h1v1h1l1,1h1v1h1v-1h2v-2h1v-1h3v-1h1l1,-1h1l1,-2h2v-1l1,1h8v-2l-1,-1h-1l1,-1v-1l1,-1l1,1h1l2,-1h1v-1h2v1h2v1h1v1h3l1,-1h1v-1h1l1,1h1v-1h1v1h3v-1h1v-1h1v-2l1,-2v-1l1,-1v-2l1,-1v-1l1,-2v-1h1v-2h1"/>
<path class="sb" d="M936,282l-1,-2l-1,-1l-1,-2v-1l-1,-1v-2l-1,-1v-2l-1,-2v-3h1h-1v-5l-1,-1v-1l-1,-1v-3l-1,-1v-2l-1,-1v-1h-1v-1h-1v-2l-1,-2v-1l-1,-1v-1h1v-1l-1,-1v-1l-4,-4v-1l-1,-1l-1,-2l-1,-1v-1l-2,-2l-1,-2l-1,-1v-1h-1v-1h-1v-1h-1M941,342l2,-2h1v-1h3v-2h-1v-4l-1,-1v-2l-1,-1v-3h-1v-1l-1,-3v-2l-1,-1v-1h1v-2h-1v-7h-1v-3l-1,-1v-1l-1,-1v-2l-1,-1v-4h-1v-3l-1,-1v-2h3l-1,-1v-2h1v-1l-1,-1v-1l-1,-1v-1l1,1v2M943,347v-2l-1,-1v-2h1l1,-1h1l1,-1h1l1,-1h1l1,-1h1l-1,-2v-1l-1,-2v-1l-1,-1v-1l-1,-1v-1l-1,-1v-4l-1,-1v-1h1v-3l-1,-1v-1l-1,-1v-1l-1,-1v-1l-1,-1v-1l-1,-1v-2l-1,-1v-1l-1,-1v-1l-1,-1v-1l-1,-1v-1h1v-1h1l2,-2h1v-2l-1,-1l-1,-2v-2l-1,-1l-1,-2l-1,-1l1,1h1v1l1,1h1v1l1,1h1v1l1,1h1v1h1l1,1v1h1v1l2,2v1M969,391h1v-3l-1,-1v-4l1,1v1l1,1v-3h2v-2h1v-1h1l3,-3v-3l-1,-2v-2l-1,-1v-1l-2,-4v-2l-2,-4v-2l-3,-6v-2l-3,-6v-2l-3,-6v-2l-5,-10v-2l-8,-16v-2l-1,-1v-1h1v-1l4,4l1,2l2,2l1,2l2,2l1,2l1,1v1l1,2l2,2v2l2,2v2h1v2l2,2v2l1,1v2h1v3h1h-1v-2M983,374v-3l-1,-1v-5l-1,-1v-2h-1v-2M976,347l-1,-2v-2l-1,-3l-2,-4v-2M957,387v-6h1v-1h1v-1l1,-1h1l2,2v1h1v1h1v3h1v1h1v2h1v1l1,1v1l1,1v2h1v2l1,1v3l1,1v1h1v2h1v3l1,1v2M962,406h2v-1h1v-2h1l1,1h2v2l-1,1v-1h-1l-1,-1v1l-1,1v2h-1v1h-1v1M964,417h1v-2h1l1,-1v-2h1l1,-1h2M971,427v-1l-1,-3l1,-1v-2h1v-4h-1v-6h1v1h1l1,1l2,-2v2l1,1v-1h1v-2h1v1h1v-3l-1,-1h1v1l1,1v2l1,1v2l1,1v3h1v3l1,1v3M988,420v-4l-1,-1v-5l-1,-1v-8l-1,-1v-4l-1,-1v-3l1,2v-3l-1,-1v-5l-1,-1v-1l1,1v-1l-1,-2v-5l-1,-2h1v1l1,2v2l1,1v3l1,1v2h1h-1l1,1v2l1,1v1v-1v4h1v3M977,441h1v-9l1,1v-2h1v-1v1h1v2l1,1v3l1,1v3h1l-1,1l1,1v1v-2M984,457v-15h1v-1v1v-1v1h1v5l1,1v3l1,1v-4M992,474v-11l-1,-2v-2l-1,-1h-1v-6l-1,-3v-2h1l-1,-1v-6h-1l1,-1v1v-3h-1v-6h-1v-4h-1v-2h1v-1l-1,-1v-1h1v1h1v1v-4l-1,-1h1v1v-1v2l1,1v-2h1v3h1v1v-2l1,-1v2h1v1M996,462h1v-2h-1v-6l-1,-3v-7l-1,-1v-8l-1,-3v-4h-1v-5l-1,-1v-5h-1v-3l-1,-3h1v-2h1v-1h-1v-1M997,448v-4l-1,-1v-7l-1,-1v-6l-1,-1v-5l-1,-1v-5l-1,-1v-4h-1v-5h-1h1v-1M997,446v-4l-1,-1v-5l-1,-3v-4l-1,-3v-5l-1,-1v-4l-1,-1v-3l-1,-3v-4l-1,-1v-5l-1,-2v-3l-1,-1v-1l1,2v2M995,431v-5h-1v-6M669,30h3v1h2M667,29h2v1v-1v1h1l-1,-1h-1h1h-1h1v1h2l1,1h2l1,1h1l1,1h2l1,1h-1h1l1,1h3v1h2v1h2l1,1h2l2,1h1l2,2h1l2,1h1l1,1l3,1h1l2,1l1,1l2,1h1l1,1h2v1h1v1h1l2,1h1l2,1l1,1h1l1,1h1l1,1l2,1h1l4,2h1v1h1l1,1h1l1,1h1l1,1h1l1,1h1l1,1h1v1h2v1h1l2,2h1l1,1h1l1,1l-1,-1"/>
<circle class="w2" cx="499" cy="425" r="43"/>
<circle class="w2" cx="499" cy="425" r="41"/>
<circle class="c2" cx="499" cy="425" r="42"/>
<path class="sg" d="M 258.4553 936.9902 A 249.7500 37.3146, 0, 0 0, 740.5447 936.9902"/>
<path class="sg" d="M 68.5696 752.0850 A 432.5797 64.6307, 0, 0 0, 930.4304 752.0850"/>
<path class="sg" d="M 0.0000 499.5000 A 499.5000 74.6291, 0, 0 0, 999.0000 499.5000"/>
<path class="sg" d="M 68.5696 246.9150 A 432.5797 64.6307, 0, 1 0, 930.4304 246.9150"/>
<path class="sg" d="M 258.4553 62.0098 A 249.7500 37.3146, 0, 1 0, 740.5447 62.0098"/>
<path class="sg" d="M 367.0263 981.1129 A 434.0017 499.5000, 15.37959148, 0 1, 631.9737 17.8871"/>
<path class="sg" d="M 453.9750 996.9211 A 257.9867 499.5000, 5.22925841, 0 1, 545.0250 2.0789"/>
<path class="sg" d="M 497.5585 998.9962 A 12.8443 499.5000, 0.22269786, 0 1, 501.4415 0.0038"/>
<path class="sg" d="M 539.9040 997.3632 A 235.7398 499.5000, -4.63965917, 0 0, 459.0960 1.6368"/>
<path class="sg" d="M 617.8607 984.7741 A 421.1575 499.5000, -13.70709106, 0 0, 381.1393 14.2259"/>
<path class="sg" d="M 991.5960 585.1840 A 493.7264 499.5000, -80.12265466, 0 0, 7.4040 413.8160"/>
<text x="0" y="0" class="fs" transform="translate(105,315) rotate(110)">150W</text>
<text x="0" y="0" class="ft" transform="translate(105,315) rotate(110)">150W</text>
<text x="0" y="0" class="fs" transform="translate(265,340) rotate(102)">120W</text>
<text x="0" y="0" class="ft" transform="translate(265,340) rotate(102)">120W</text>
<text x="0" y="0" class="fs" transform="translate(488,350) rotate(91)">90W</text>
<text x="0" y="0" class="ft" transform="translate(488,350) rotate(91)">90W</text>
<text x="0" y="0" class="fs" transform="translate(714,342) rotate(79)">60W</text>
<text x="0" y="0" class="ft" transform="translate(714,342) rotate(79)">60W</text>
<text x="0" y="0" class="fs" transform="translate(882,318) rotate(69)">30W</text>
<text x="0" y="0" class="ft" transform="translate(882,318) rotate(69)">30W</text>
<text x="0" y="0" class="fs" transform="translate(870,777) rotate(-14)">30S</text>
<text x="0" y="0" class="ft" transform="translate(870,777) rotate(-14)">30S</text>
<text x="0" y="0" class="fs" transform="translate(925,534) rotate(-15)">0N</text>
<text x="0" y="0" class="ft" transform="translate(925,534) rotate(-15)">0N</text>
<text x="0" y="0" class="fs" transform="translate(867,282) rotate(-12)">30N</text>
<text x="0" y="0" class="ft" transform="translate(867,282) rotate(-12)">30N</text>
<text x="0" y="0" class="fs" transform="translate(709,89) rotate(-15)">60N</text>
<text x="0" y="0" class="ft" transform="translate(709,89) rotate(-15)">60N</text>
<path class="tb" d="M127,998h-2l-1,-1h-2l-1,-1h-2l-1,-1h-2v-1h-3v-1h-2l-1,-1h-2v-1h-2l-1,-1h-2v-1h-2v-1h-2l-1,-1h-2v-1h-2v-1h-2v-1h-2v-1h-2v-1h-2v-1h-2v-1h-2v-1h-2v-1h-1l-1,-1h-1v-1h-2v-1h-2v-1h-1v-1h-2v-1h-1l-1,-1h-1v-1h-2v-1h-1v-1h-2v-1h-1v-1h-1l-1,-1h-1v-1h-1v-1h-1l-1,-1h-1v-1h-1v-1h-1v-1h-2v-1h-1v-1h-1v-1h-1v-1h-1l-2,-2h-1v-1h-1v-1h-1v-1h-1v-1h-1v-1h-1v-1h-1v-1h-1v-1h-1v-1h-1v-1h-1v-1h-1v-1h-1v-2h-1v-1h-1v-1h-1v-1h-1v-1l-1,-1v-1h-1v-1h-1v-1l-1,-1v-1h-1v-1l-1,-1v-1h-1v-1l-1,-1v-1h-1v-2h-1v-2h-1v-1l-1,-1v-1l-1,-1v-1l-1,-1v-2h-1v-2h-1v-3h-1v-2h-1v-4h-1v-3h-1v-5h-1v-6l-1,-1v-17h1v-7h1v-4l1,-1v-3h1v-3h1v-3h1v-2l1,-1v-2h1v-2h1v-2h1v-2h1v-2h1v-2h1v-2h1v-1h1v-2h1v-1h1v-2h1v-1h1v-1l1,-1v-1h1v-1h1v-1l1,-1v-1h1v-1h1v-1h1v-1h1v-1h1v-1h1v-2h1v-1h1v-1h1v-1h1v-1h1l3,-3h1v-1h1v-1h1v-1h1v-1h1v-1h1v-1h1l1,-1h1v-1h1v-1h1v-1h1l1,-1h1v-1h1v-1h2v-1h1v-1h1v-1h2v-1h1v-1h2v-1h1v-1h2v-1h1l1,-1h1v-1h2v-1h1l1,-1h1v-1h2v-1h2v-1h2v-1h1l1,-1h1l1,-1h1l1,-1h1l1,-1h1l1,-1h2v-1h2v-1h2v-1h2l1,-1h2v-1h2v-1h2l1,-1h2v-1h3v-1h2l1,-1h2v-1h3v-1h3v-1h159v1h3v1h3v1h2l1,1h2v1h3v1h2l1,1h2v1h2v1h2l1,1h2v1h2v1h2v1h2l1,1h1l1,1h1l1,1h1l1,1h1l1,1h1v1h2v1h2v1h2v1h1l1,1h1v1h2v1h1l1,1h1v1h2v1h1v1h2v1h1v1h2v1h1v1h1v1h2v1h1v1h1l1,1h1v1h1v1h1v1h1l1,1h1v1h1v1h1v1h1v1h1v1h1v1h1l3,3h1v1h1v1h1v1h1v1h1v2h1v1h1v1h1v1h1v1h1v1h1v1l1,1v1h1v1h1v1l1,1v1h1v1h1v2h1v1h1v2h1v1h1v2h1v2h1v2h1v2h1v2h1v2h1v2l1,1v2h1v3h1v3h1v3l1,1v4h1v7h1v17l-1,1v6h-1v5h-1v3h-1v4h-1v2h-1v3h-1v2h-1v2l-1,1v1l-1,1v1l-1,1v1h-1v2h-1v2h-1v1l-1,1v1h-1v1l-1,1v1h-1v1l-1,1v1h-1v1h-1v1l-1,1v1h-1v1h-1v1h-1v1h-1v2h-1v1h-1v1h-1v1h-1v1h-1v1h-1v1h-1v1h-1v1h-1v1h-1v1h-1v1h-1v1h-1l-2,2h-1v1h-1v1h-1v1h-1v1h-2v1h-1v1h-1v1h-1l-1,1h-1v1h-1v1h-1l-1,1h-1v1h-1v1h-2v1h-1v1h-2v1h-1l-1,1h-1v1h-2v1h-1v1h-2v1h-2v1h-1l-1,1h-1v1h-2v1h-2v1h-2v1h-2v1h-2v1h-2v1h-2v1h-2v1h-2l-1,1h-2v1h-2v1h-2l-1,1h-2v1h-2l-1,1h-2v1h-3v1h-2l-1,1h-2l-1,1h-2l-1,1h-2Z"/>
<path class="tl" d="M169,986h1v1h-3l-1,-1h2v-1ZM114,989h-3l-1,-1h2l1,1ZM176,983h1l1,1v1h1l-1,1h-2l-1,1h-1l-1,-1l1,-1v-2h1v-1ZM124,980h2v1h-1ZM122,980l1,1h-1l-1,-1ZM136,977h1h-2ZM156,974v1l1,1h-5v-1l1,-1v-1l-1,-1l1,-1v1h1l1,1ZM158,964v1h-2v2h1l-2,2v1h1l1,1h1l4,4v1l1,1v1h-1v2h-1l-1,1h-1v1h-2l1,1h1v1h-2l1,1h1v1h3l1,1h3l1,1h3l1,1h1l1,1v-1h1v-1h2l2,-1l1,1h1v-1h4v-1h3l1,-1h-1v-1h-4l-1,-1l1,-1h1l2,-2h4l1,-1h1l2,-2h-1v-1h1v-1h2v-1l1,-1h1v1h1v-1h8v-1h3v-1h1l1,1h2v-1h1v1l1,-1h4v1h6v-1h3v-1h2v1h3l1,-1h3v-1h2l1,-1h2l1,-1h4v1h1v1h1l1,1h1l1,-1l1,1h2v1l-2,2h-1v1h1h-1v1h-1v1h2l2,-2h1v-1h3l1,-1h1v-1h2l1,-1h5v-1h1v1h5v1h1l1,-1l1,1l1,-1h1l2,-1v1l1,1h3l1,-1h2v1h1v1h4l1,-1v1h9l1,-1l-1,1v1h-1h3l1,1h2l-1,1v1h1v1h2v1h1v2h2l1,1v1h-1l-1,1h-2l-1,1h-3l-1,1h-2l-1,1h-2l-2,2v1h-5l-1,1h-2v1h-1v3h2l-11,4h-155l-11,-4h-1h2l1,-1l1,1h14l-1,-1h-7v-1h-2v-1h-3l-1,-1h4v-1h-2l-1,-1h-7l-1,-1l-2,-1l1,1l1,-1l2,1v-1h1v-1l-1,-1h-1h2v-1h2v-1h4l1,-1h5l1,-1l1,1v-1h1l1,1h1v-1l1,1h6v-1h-2l-1,-1h-1l-1,-1h4l1,1h1l1,-1h3l-1,-1h1l1,1l1,-1l1,1h3v-1l1,1h4v-1h2l1,-1v-1h-1v-1h-1v-1h-1v-1h-1v-2l-1,-1v-1h1v-2h1v-1h1v-1h1l1,-1l1,1ZM144,951l2,1h1v1h-1v-1v1h-4l-2,-2l-2,-1l2,1h2v-2h1v1ZM151,947h1v1h-2v1l-1,-1l1,-1ZM269,946h-1v-2h1l1,1ZM345,939v1h1l1,-1v1l-3,3v-1l-1,1h-1l1,-1v-1l1,-1v-1ZM368,943v1l1,-1v1h-1l-3,3h-1l-1,1h-1l-2,2h-2v1h-1v-1h-1v-1l4,-2h1l1,-1h2l2,-2h1l2,-2ZM376,936l-1,2l1,-1l-1,1l1,1h1l-2,2h-1l-2,2l-2,1h-1l2,-1v-2l1,-1l2,-1v-1l1,-1v-3l1,-1v1l1,1ZM382,913l-1,1v-2l-1,-1v-1h1v1l1,1ZM397,906v1l-1,1h-1v-1l1,-1v1ZM398,906h-1v-1h1l1,-1v1ZM10,905v-1ZM386,904v-1ZM386,901v2h-1v-1ZM259,895v2l1,1h-1v1v-1v2h-1v3l-3,6v2h-1l-1,1l-1,-1h-1v-5h1v-2l1,-1h-1v-3h1v-1h1l2,-2h1v-1l1,-1v-1l1,-1v1ZM361,898v1h1v1h1l-1,1v2h1l-1,2v1l2,2v4h1l-1,2l1,1v3l-1,1v2l-3,3v1l-1,1l-1,2h-1l-1,2h-1l-4,4v1h-2l-1,1h-1l-1,1v-1h-1l1,-1h-1l-1,1h-1v-1h-1v-3h1l-1,-1v-1l1,-1l-1,1h-1l3,-3l-2,1h-1l-1,2v-4l-2,-2h-2l-1,1h-4l-2,2h-4l-1,1v-1l-1,1h-2v-1h-1l1,-1v-1h1v-3l1,-1v-7l1,1v-3l1,-1v-1l1,-1l-1,1l2,-2h1l1,-1h2l1,-1h2v-1h1l1,-1v-2l1,-1v2l1,-1v-1h1v-1l2,-2h2v1h2v-2h1l1,-1v-1h2v-1h-1h1l1,1h3l1,1h-1v1h-1v1l-1,1v1l2,2v1h1l1,1h1v-1l1,-1v-1l1,-1v-3l1,-1v-2h1v-1v3l1,1Z"/>
<path class="tl" d="M383,894h-1v-1v1ZM337,892l-2,-1h2ZM381,893h-1v-1h1ZM382,892v-1l-1,-1h1ZM341,892h-1l3,-3h2l-1,1h-1l-1,1ZM335,889h1v1h-3l1,-1ZM340,889v1h-3v-1h2ZM381,890v1l-2,-2h1v1ZM378,889v-1h-1v-1l1,1ZM325,887h2v-1l2,1v1h2l1,1l-1,1l-1,-1h-4l-1,-1h-1l-2,-1h-1l1,-2h1l1,1ZM353,886v1v-2ZM377,888h-1v-2l-1,-1h1v2h1ZM373,885l-1,1h-1l-1,1l-1,-1h-1l1,-1l1,1v-1h2v-2h1v1ZM345,882h-1v-1h1ZM349,881v2l-1,-1h-2v-1h2ZM374,884l-1,-1v-1l-1,-1h-1h2v2h1ZM353,878v3l2,1v-2l2,-1h1l1,1h1l1,1l4,2v1h1v1l2,1v1h-1v1l1,1v2h1v1h1h-1l1,1l-1,1v-1h-2l-1,-1v-3h-3l-1,1v1h-2l-2,-2v1h-2l1,-2h1l-1,-2v-1l-2,-1h-1l-1,-2l-1,1l-1,-1h1l-1,-1l1,-1h-1v-1h-1l-1,-1h2v-1ZM343,875l-1,1h-4v1l1,2v-1h2l-1,1h-1l1,2v1l1,2v1h-1v-2l-1,1v-1l-1,-1l1,-1h-1v4h-1v-3h-1v-1l1,-1v-4h1v-1h4l1,-1ZM347,875v1h-1v1l1,1h-1v-4h1ZM321,885h-1l-2,-2v-1l-2,-2l-1,-2v-2l-1,-1v-1l-4,-4v-1h2l3,3l1,2h1l2,2h1l-1,2h1v1l1,1h1v3ZM335,874l1,1h-1v3l-1,1v1l-1,3v-1l-1,1l-1,-1h-1v-1l-1,1l-1,-1h-1l-2,-4v-2l1,-1h2v-2h2v-1l1,-1v-1h1l1,-1v-2h1v1l2,2v1h-1l-1,2l1,1ZM344,864v3l-1,-1v2l-2,-2h1l-1,-1v1l-1,-1l-1,1v-1l1,-1h2v-1h1v-1l1,1ZM294,868h-1v-1l-1,-2l1,-2l1,1v1l1,1v1ZM137,863h-1l1,-1h1ZM341,861v1l-1,1l-1,-1l1,-1v-1v1l1,-1ZM335,863l-1,1v-1l1,-1v-1l1,-1v1l-1,1ZM338,859h2v1l-1,1v-1h-1ZM342,858l1,2h-1v1v-1h-1v-1h1h-1v-1ZM338,857l-1,1l-1,-1h1ZM336,849h1v6h1l2,1v2l-1,-1v-1v1l-1,-1h-2v-1h1h-1l-1,-1v-5ZM133,851v1h-1v-1ZM121,852h-1v-1h2v1ZM126,849h3v1h1v1h-2l-1,1v-1h-1v-2h-1ZM324,849l-1,1h-1v-2l1,-1h1v1ZM37,846v-2h1v2ZM38,844h-1v-1h1ZM119,845h2l1,1v1h1v1h2l-1,1h-3v-1h-1v-2h-2l-1,-1h-1h1h-2l-1,1h-1l2,-2h3ZM122,843h-1v-1l1,-1v1ZM334,843v1l-2,-2v-2l1,-1l1,1ZM122,839l-1,1v-1ZM123,839v1v-1h-1ZM340,825h1v1h-1v1h-1v-2ZM240,828l-2,2v-1h-1h2ZM229,828v1h-1ZM220,825v2h-1l-1,-1h-1v-1h2ZM214,821v3h-1v-3ZM344,820v1l1,1v1l-1,1h-1l-1,2l-1,-1v-1l-2,1l-1,1h-1l2,1v3l-1,-1v-1h-1l-1,-1l1,-1v-3h3v-3l1,1v-2h1l-2,-4v-1l3,3v1ZM214,820v1l-1,-1v-1l1,-1ZM340,810l1,-1l1,2h-1v2l-2,-1l1,2h-1l-1,-2l-1,-1h1l-1,-2l-1,-1l3,1ZM144,812l1,1h1h-2ZM147,809h-1l-1,-1h1ZM92,806h-1l-1,-1v-2h-1v-1h1l1,1v1l1,1ZM153,807l-1,1h1v1h2l-1,1h1v1l-1,2l-1,-1l1,-1l-2,1v-1h-3l1,-1h-1l4,-4h1Z"/>
<path class="tl" d="M90,797h1l-2,2v1v-3ZM332,800l3,3l-2,-1l1,2l2,2v1l-2,-2l-1,-2l-6,-6v-1h-1h1l3,3ZM198,806l-1,1h-2l1,-2v-1l2,-2h1v3ZM216,801l-1,2l-1,-1v-1h1ZM79,791h-1v-1h2ZM202,797l-1,2h2v1l-1,1h1l2,4h1v1l-1,1h1l-1,1h-3l-1,1h-2l2,-2h-1v-1h1l-1,-1v-1h2l-1,-1h-1v-2l-1,-1l1,-2v-1l1,1ZM75,786h-1v-1h1ZM141,790l-1,1v-1ZM139,790h-2l1,-1h1ZM78,780v1h1h-2v-1ZM139,786h1v1h1l-1,1h1l-1,1l-1,-1h-1l-2,1l1,-1h-1h1l1,-1l1,-2ZM193,787v1l1,1l-1,1h-3l-1,1l-1,-1h-2l1,-1h-1h1v-1h-2l1,-1h1l1,1l2,-1h2ZM147,784h-1l1,-1h2l-1,1ZM81,776v1l1,-1h2l-1,2h-3l-1,1h-1l-1,-1h1v-1h-1h1h-2l-1,1l8,-5v1l-1,2ZM135,780l-1,1v-1h-1l1,-1h1ZM322,771h-1ZM88,771h-1h2ZM139,780l-1,2l2,-1v1h-1v1l1,-1l2,-1l1,-1h2v2h-1v1l-1,1l-2,1h-1v-1l-1,1l-2,1v1h-3l-2,2h-1l-1,1l-2,1l-1,1l-1,2h1l-1,1v1h1l3,3l2,1h1l-2,2v2l1,1h1l2,-4h-1l4,-2v-1l1,-1v-1l-1,-1l2,-1l2,-4l1,1h1l1,-1v1l1,1h1v2l-1,1l1,1h2l1,-2h1v3l1,1l-1,1l1,1v1h1l1,1v1l1,1l-2,2h-2l-2,2h-1l-2,-1h-2l-2,1l-1,1l-2,1l-1,1l2,-1l3,-1h2l-1,1l-1,2v1l1,1l2,-1l1,-1v1h1l-4,2h-1l-2,1v-1l2,-1h-3v1h-1l-1,1h-1l-2,2l1,1v-1v1h-3l-1,1l2,-1v1h-2l-2,2v1l-1,1l-1,-1l1,-1l-1,1v4l-1,1h-1l-1,1h-1l-3,3h-1v8l-1,1h-1v-3l-1,-1l1,-1l-1,-2l-1,1l-1,-1h-4v1h-1l-1,-1l-1,1l-1,-1l-2,2h-2v1h-1v3l-1,1v1l-1,2v4l1,1v1h1v1l1,-1h3v-1l1,-1v-1l1,-1h3v1l-1,1v2l-1,1v-1v2l-1,1v1h5v1h1v1l-1,1v3l-1,1h1v2h1v1h2l1,-1h1v1h1l1,1l1,-1v-2l1,-1h2l2,-2v2h-1h1v1l-1,1v1h1v-3h1v-1h1v1h1v1h3l1,1l1,-1h1l1,1h1v1l1,1h1v1h1v1l1,1l2,1v-1h1l1,1h1l1,1v1h1v1l1,2v1l-1,1l1,1h2v1v-1l4,2v1h1l3,1h1l2,1l2,2h2v5l-1,1l-1,2l-2,2v9l-1,2v2h-1v1h-2l-1,1h-1l-3,3v5l-1,2l-2,2v2l-2,2v-1l-1,1l-1,-1h-1v-1v1l1,1v1l1,1v2l-2,1h-3l1,1v2l-1,1l-1,-1h-1l1,2h2l-2,2l1,1v1h-1l-1,1v1l2,1h1v1l-1,1v2h-1v1l2,2h-1l-1,1v1h-1l-2,-1l-3,-3l-1,-3v-1l1,-1h-2l1,-2l-1,-2h1v-2l-1,-1v2l-1,-2v-4l-1,-1l-1,-2h1v-6l-1,-2v-8l-1,-2v-6l-1,-2l-1,-1l-2,-1l-3,-2l-1,-1v-1l-1,-2l-1,-3l-2,-3l-2,-2v-1l-1,-2l2,-2v-1h-1v-3l1,-1v-1h1v-2h1l1,-1v-5l-1,-1v-2h-1v1h-1v1h-1l-1,-1h-2v-2h-1v-1v1h-1v-3l-2,-2h1h-2v-1h-2l-1,-1l-1,-2h-1l-1,-1v1h-2l-1,-1h-2l-2,-2h-1l-1,-1v-1h-1v-3h1l-1,-1v-3l-1,-1v-1l-1,-1v-3h-1v-5l-1,-1l-1,1v4h1l-1,1h1v5h1v2h-1v-1l-1,-1v-3l-1,-1v1v-1h-1v-1h1v-9h-1v-1h-1v-9l2,-2v-1l1,-2l2,-2l1,-2l1,-1v-1h1v1l2,-2h-1v-2l-1,-1v-1l1,-1l-1,-1l1,-1v-1l1,-1l-1,-1l1,-1v-1l1,-1l-1,-1h-1v-2h-1v-1h-1l-1,-1h-1l-1,1h-4l1,-1l2,-1h-1l-1,1l-2,1h-1l-1,1l-2,1h-2l-2,1h-1l-1,1h-3l-1,1h-2l1,-1h2l2,-1h2l2,-1h1l2,-1l1,-1h-3l1,-1l-1,1h-1l2,-2h-1v-1l2,-2l2,-1h3l1,-1h1l1,-1h-3v-2h4l1,1l1,-1v-3h4l1,-1h2l2,-1l1,1l1,-1h1l-1,1h1l1,1h2l1,1h2v1l1,1l1,-1h6l1,-1v2l2,-1l-1,1h2l1,1h2v1l-2,1h4v1l2,-2h2v1h1l1,1h2v-1h1l1,1l-1,1l1,-1h1l1,-1v-2l1,-1l2,-1l1,1l-2,2Z"/>
<path class="tl" d="M128,774l-1,1h4l-1,1h1l2,-2v1l-1,2v1l1,1h-2v1h-8v-1h-1v-1h4l-1,-1h-3l2,-1h-1l1,-1h1ZM135,774l-2,1v-1h1ZM152,776v1l-1,-1l-1,1v-2h2ZM146,776v1l1,-1l2,-1v2h3l1,1l-1,1l2,-1v1l1,1v2h-1l2,2v1h1v1l-2,1h-1l-1,-2l-1,1v1l1,1v2l-1,1l-2,-2v1l1,1h-2l-2,-2v-1l-1,-1v1h-3v-1l1,-1h3l1,-1l2,-1v-1l-1,-1h-1l1,-1l-1,-1h-5l-1,-1h-1l1,-1h-1l1,-1l2,-1l1,-1h2ZM138,774h2l-1,1h-1l1,1l-2,1h-2v-2l1,1v-1ZM298,772h-2v-1ZM141,776l-2,1v-1l2,-2h2l1,1l-2,1ZM122,776h-2l-1,-1h1l2,-1l2,-2h2v1h2v1h-1l-3,1h-2ZM299,769v1h-3v-1h1ZM143,773v1l-1,-1h-1l1,-1h1l1,1ZM295,769l1,1h-2l-1,1l-2,-1l-1,-1h2ZM143,771h-1v1l-1,1h-2l1,-1h-1l1,-1h2ZM136,771h1v1h-4l-2,1h-1l1,-1h-1l-1,-1l2,-1h1l2,1l1,1v-2h2ZM246,780h-3l-2,-1v-1l1,-2h-1l1,-1l-1,-1h1l4,-2h2l-1,1l-2,1l-1,1v2l-1,1l1,1ZM145,770l1,1h1l-1,1h1l1,1h4v1h-7l-1,-1l1,-1v-1h-2l1,-1ZM134,769l-2,1h-4l2,-1h3ZM271,770l1,1v-1h2l2,1h1v1l-1,1h1l2,1v-1l1,1l1,-1h2l1,1h3l-2,-1h5l1,1v1h2l2,1l-1,-1h1l1,-1l2,1v-1h1l-2,-1h8l3,1l1,-1h2l2,2h2v-1h3l3,1v-1h-2v-1h7l8,5h-1l1,1l2,1h2v1h-1v1h-1l1,1v2l-2,-1v2l-1,-1v1h-1l2,2v1h1l3,2h-1l1,1h1v1l1,2h-1l1,2l1,1l-4,-2l-4,-3l-1,-2l-1,-1v-3l-1,-2v-1l-2,-2l-1,1l2,2l-3,-1l-1,1l1,2l1,1h-1l-1,1l-1,-1h-1v1h-4v7h1l2,1h1l-1,-1h1l3,1l1,2l1,1l1,2l2,2v9h-1l-1,-1v2h-1v1l1,1v1h-1v1l1,1h1l2,2v1l1,1v1l-1,1h-1l-1,-2l-1,-1h1l-2,-1v-1v1v-1h-1v-1l-1,-1h-2v1h-1l-1,-1l1,-1l-1,-1l-1,1v2h-1v1l2,2h1v-1h2l1,1l-2,1v2l2,2l1,2l2,1v2h1v6l-2,4l-1,1h-1v1l-1,-1v1l-2,1h-1v2l-1,-1v-1h-2l-1,2v2l1,1l1,2l2,2l1,3v4l-2,1v1l-2,1v-2l-1,-1h-1v-1l-2,-2h-1v-1h-1v6h1v3l1,1h1v1h1v1l1,1v3h1v2h-1l-2,-2v-1l-1,-1v-1l-1,-1v-2l-1,-1v-1h-1v-6l-1,-1v-1l-1,-2v-2l-1,-1l-2,2h-1v-3l-1,-2v-1h-1l-2,-2v-1l-1,-1h-1v2l-1,-1v1h-2v2l-2,1l-1,2v1l-2,2h-1v8l-1,1l1,1h-1l-1,1l-1,-1l-1,-2v-1l-1,-1v-1l-1,-2v-1l-3,-6v-3l-2,1h-1l-1,-2v-1l-2,-1l-1,-1v-1l-1,-1l-2,1h-5l-1,-1h-2v-2h-1l-1,1h-2l-3,-3l-1,-2l-1,1v-1l-1,1v2l1,1h1l1,1v2l1,1l-1,-1l1,-1v2h1v1l1,-1h2v-1l1,-1v-1v2l2,2h1l2,2l-1,1v1h-1v3h-1v1h-1v1h-2v1h-1l-2,2h-1l-2,2v-1l-1,1h-2v1h-2v-2l-1,-1v-3h-1v-1l-1,-1v-1l-1,-1h-1v-1l-1,-1v-3h-2v-2l-1,-1v-1l-2,-2v-1v1l-1,1l-1,-1l-1,-2l1,2l1,1l1,2v1l2,2h-1l2,2v1l1,1h-1l1,2v1l1,1l1,2v1l1,1l2,1v1h1v1h1v1l-1,1h1l1,1h3l1,-1h3v-1h1v2l-1,1v3l-1,1l-3,6l-1,1l-2,1l-1,1l-1,2v1h-1v1h-1v2l-1,1l-1,2l1,1v4l1,1v7l-1,1h-1l-3,3h-1v1l-1,1v2h1l-1,1h1v1l-1,1h1l-1,1h-1l-2,2v3l-3,3v1l-2,1v1l-1,1h-2v1l-1,-1v1l-1,-1l-1,1h-2l-1,1l-1,-1h-1v-5l-1,-1v-2l-1,-1v-1l-1,-1v-5l-1,-1v-1l-1,-2v-1l-1,-1v-3l1,-1v-3h1v-1l1,-1v-1h-1v-5l-1,-1v-2l-3,-3l-1,-2l1,-1v-5l-1,-1v-1l-1,1h-2l-1,-1v-1l-1,-1h-2l-1,1h-2l-1,1h-6l-1,1l-4,-4h-1l-1,-1v-1l-1,-1v-1h-1v-1l-1,-1v-1h-1v-3h-1l1,-1v-1h1l-1,-1l1,-1v-4l-1,-1v-1h1v-2l1,-1v-1h1v-2h1l1,-2h1l2,-2v-3l3,-3l1,-2v-1h1l1,1h2l1,-1h2l1,-1h4l1,-1h1v1h1l1,-1h1v1l1,-1v1h-1v1h1v2h-1v1h1v1h3l2,2h1l2,2l1,-1v-2l1,-1h2l1,1h1l1,1h2l1,1h1v-1h2l1,1v-1h1l1,1v-2l1,-1v-5h-2l-1,1l-1,-1h-2v1l-1,-1h-2v-1l-1,-1v-2l1,-1h1v-1h2l1,-1h1l2,-1l2,1l1,1h2l1,-1v-2h-1l-2,-2h-1l-1,-1l1,-1l-1,-1h2l-1,-1v1h-2l-1,1v1h1l-1,1h-1v-1h-1l1,-1h-2v-1h-1v1l-1,1v1h-1v4l1,1h-2v1h-1v-1h-2l1,1h-2v1l1,1h-1h1l1,1v1l-1,-1v1h-1l1,1h-2v-2l-1,-1v-1h-1v-3h-1v-1h-1l-1,-1h-1l-1,-1v-1l-1,-1v1v-1h-2v1l2,2v1l1,1h1l1,1h1l1,1v1l-1,-1h-1v1h1v1h-1v1h-1v-1h1l-1,-1v-1h-1l-1,-1h-1l-2,-2l-1,-2h-2v1h-4l-1,1v2h-2v1l-1,2h1l-1,1v1h-1l-1,1h-2l-1,1l-2,-2v1h-2l1,-1v-1h-1v-2l1,-1v-3l-1,-1l2,-1l1,1h5v-4l-1,-1v-1h-2v-1h3v-2l1,1l2,-1v-1h1l1,-1l1,-2l1,-1h2v-5h2l-1,1h1v1l-1,1v1h1v1l1,-1h2v1h1l2,-2l1,1h1v-1h1v-3l1,-1l1,1v-1l-1,-1v-1h4l1,-1h-4l-1,1l-2,-2v-4l2,-1v-1l-1,-1l-2,2l-1,2l-1,1v3h1v2h-1v2l-1,2h-1v1h-1v-2l-1,-1l-1,-2l-1,-1l-1,2h-1l-2,-1v-5l2,-1l3,-3l2,-3l3,-3h2l1,-2h3l2,1l-1,1h2l1,1h3l3,1l1,1v1l-1,1h-1l-3,-1h-1l2,1v2l1,1h1v-1h-1l1,-1l2,1v-1l1,-2h1l1,1v-1l-1,-1v-1l-1,-1l2,1h1l-1,1l1,1h1v-1l1,-1l2,-1h1v1l1,-1h1l1,-1l1,1l1,-1h-2l1,-1h2l1,1l4,1v-1h-2v-1h-1l-1,-1v-3h2l1,1v1h1l1,1l1,2h1v3l1,1v-1h1l-1,-1l1,-1h-1l-2,-2v-1l-2,-1l1,-1l-1,-1h1l1,2l-1,-1l1,-1h2l1,1l-1,-1l-1,-2h4l-2,-1v-1h1l1,-1h3l1,-1h1v-2l2,1h-1ZM253,820l1,1v2h-1v1l1,1h1l1,1h3l-1,-1v-2h-1v-2h1v-1l-1,-1h-1l1,1l-1,-1v-1h-2v-2h-1h1v-2l1,1v-3h-2l-1,1h-1v1h-1l-1,2l2,1v1l1,1Z"/>
<path class="tl" d="M146,770h-1v-1h1l1,1ZM137,769h-2l1,-1h1l1,1ZM220,771l-1,1h-1v-1h-1l2,-1v1ZM139,768h-2l1,-1v1ZM146,769h-1v-1h1l1,1ZM144,769h-1l-1,-1h-1h1v-1h1l1,1ZM268,768l-3,1v-2ZM215,769l3,1h-2v3h-1l-2,-1h1l-1,-1l-2,-1v-1l1,-1l1,1h1v-1h1ZM220,768h1l-1,1h-4l-1,-1h3ZM234,767l-1,1h-1v-1h-1h4ZM264,768h-4l-2,-1l-1,-1h1l1,-1l4,2ZM153,767v1h-1l-2,1h-2v-1h1h-1v-1l1,-1h2v-1h1v1h1ZM167,764h3v1h-3l-1,1h-1l-1,1l-2,1h-3v1h-1v1h-2l-2,1h1l-2,1h-4l-1,-1h2v-1h2v-1h-1h1l1,-1h1l-1,-1h4l-1,-1h-3v-1l1,-1h6v-1h3v1l2,-1l1,1ZM190,764l3,1h-6v1h5l-1,1l2,-1h4v1l-2,1h-1l-2,2v2l1,1h-2l1,1l-1,1v1h-1l1,1h-3l1,1v1l-1,-1l-1,1h1l1,1v1h-2l-1,-1v1l-1,1h3l-4,2h-3l-1,1l-4,2h-1l-2,1h-1v1l-2,2v1l-1,1l-1,2h-1l-1,-1h-1l-1,-1v-2l-1,-1v-1l1,-1l-1,-2l1,-1l1,-2h1l1,-1v-1l-1,1h-1v-1l1,-1h1l-1,-1h-1l1,-1v-4l-1,-1h-5v-1l-1,-1h1l-1,-1l1,-1h2l3,-1h1l-2,-1h1l3,-1h1v-1h9l1,1l-1,-1h1l2,-1h3l2,-1Z"/>
<path class="th" d="M107,853h1v-2h1v-1v3h-1v1v-1v1v-1v1h-1ZM109,852v-1Z"/>
<path class="tg" d="M66,970h1l1,-1h4v-1h5v-1h5v-1h6v-1h6l1,-1h7v-1h8v-1h9l1,-1h11v-1h14v-1h20v-1h79v1h20v1h14v1h11l1,1h9v1h8v1h7l1,1h6v1h6v1h5v1h5v1h4l1,1h1M21,927h6v-1h7v-1h8v-1h10v-1h10v-1h12v-1h14v-1h18v-1h23v-1h38v-1h75v1h38v1h23v1h18v1h14v1h12v1h10v1h10v1h8v1h7v1h6M5,877h399M21,826h4v1h7v1h8v1h9v1h10v1h11v1h14v1h16v1h21v1h32v1h103v-1h32v-1h21v-1h16v-1h14v-1h11v-1h10v-1h9v-1h8v-1h7v-1h4M66,783v1h5v1h4v1h5l1,1h5v1h6l1,1h6l1,1h7v1h10v1h10v1h13l1,1h17v1h36v1h21v-1h36v-1h17l1,-1h13v-1h10v-1h10v-1h7l1,-1h6l1,-1h6v-1h5l1,-1h5v-1h4v-1h5v-1M140,755h-1v1h-3v1h-2v1h-2v1h-2v1h-2v1h-2l-1,1h-1l-1,1h-1l-1,1h-1v1h-2v1h-2v1h-2v1h-1l-1,1h-1v1h-2v1h-1l-1,1h-1v1h-2v1h-1v1h-2v1h-1v1h-2v1h-1v1h-1l-1,1h-1v1h-1v1h-2v1h-1v1h-1v1h-1v1h-2v1h-1v1h-1v1h-1v1h-1v1h-1v1h-1l-1,1h-1v1h-1v1h-1v1h-1v1h-1v1h-1v1h-1v1h-1v1h-1v1l-1,1v1h-1v1h-1v1h-1v1h-1v1h-1v1l-1,1v1h-1v1h-1v1h-1v2h-1v1h-1v2h-1v1h-1v2h-1v1h-1v2h-1v2h-1v1h-1v2h-1v2h-1v2h-1v2h-1v2l-1,1v2h-1v2l-1,1v2h-1v3h-1v4h-1v4h-1v5h-1v9h-1v13l1,1v8h1v5h1v4h1v4h1v3h1v3h1v2h1v3h1v2h1v2h1v2h1v2h1v2h1v2h1v1l1,1v1h1v2h1v1h1v2h1v1h1v1h1v2h1v1h1v1l1,1v1h1v1h1v1h1v1l2,2v1h1v1h1v1h1v1h1v1h1v1h1v1h1v1h1v1h1v1h1v1h1v1h1v1h1v1h2v1h1v1h1v1h1v1h1v1h1l1,1h1v1h1v1h1v1h2v1h1v1h1l1,1h1v1h1v1h2v1h1v1h2v1h1l1,1h1v1h2v1h1v1h2v1h2v1h1l1,1h1v1h2v1h2v1h2v1h2v1h2v1h2v1h2v1h2l1,1h2v1h2v1h2M153,755h-1v1h-2v1h-2v1h-1v1h-2v1h-2v1h-1v1h-2v1h-1v1h-2v1h-1v1h-2v1h-1v1h-1v1h-2v1h-1v1h-1l-1,1h-1v1h-1v1h-1v1h-1v1h-1l-1,1h-1v1h-1v1h-1v1h-1v1h-1v1h-1v1h-1v1h-1v1h-1v1h-1v1h-1v1h-1v1h-1v1h-1v1h-1v1h-1v1h-1v1l-2,2v1h-1v1h-1v1h-1v1l-1,1v1h-1v1h-1v2h-1v1h-1v1l-1,1v1h-1v2h-1v1h-1v2h-1v1h-1v2h-1v2h-1v2h-1v2h-1v2h-1v2h-1v2h-1v3h-1v2h-1v3h-1v3h-1v3h-1v3h-1v4l-1,1v4h-1v6l-1,1v30h1v6h1v5h1v4h1v3h1v3l1,1v2l1,1v2h1v3h1v2h1v2h1v2h1v2l1,1v1h1v2h1v2h1v2h1v2h1v1h1v2h1v1h1v2h1v1h1v2h1v1h1v1h1v2h1v1h1v1h1v1l1,1v1h1v1h1v1h1v1h1v1h1v1h1v1l3,3v1h1l3,3h1v1h1v1h1v1h1v1h1v1h1v1h1v1h1l1,1h1v1h1v1h1v1h1l1,1h1v1h1v1h1l1,1h1v1h1v1h2v1h1v1h2v1h1v1h2v1h2v1h1v1h2v1h1l1,1h1v1h2M166,755h-1v1h-1v1h-1l-1,1h-1v1h-1v1h-1v1h-1v1h-1v1h-1l-2,2h-1v1h-1v1h-1v1h-1v1h-1v1h-1v1h-1v1h-1v1h-1v1l-2,2v1h-1v1h-1v1h-1v1h-1v1l-1,1v1h-1v1h-1v1h-1v2h-1v1h-1v1l-1,1v1h-1v1h-1v2h-1v1h-1v2h-1v2h-1v1h-1v2h-1v2h-1v2h-1v1l-1,1v1l-1,1v1l-1,1v2h-1v2h-1v2h-1v3h-1v2h-1v3h-1v3h-1v3h-1v3h-1v4h-1v4h-1v5h-1v6h-1v8h-1v30h1v7l1,1v5h1v5h1v4h1v4h1v3h1v3h1v3h1v3h1v3h1v2h1v2h1v2l1,1v2h1v2h1v2h1v2h1v1h1v2h1v2h1v2h1v1h1v2h1v1h1v2h1v1l1,1v1h1v1h1v2h1v1h1v1h1v1l1,1v1h1v1h1v1h1v1l1,1v1h1v1h1v1h1v1h1v1h1v1h1v1h1v1h1v1h1v1h1v1h1v1h1v1h1v1h1v1h1l2,2h1v1h1v1h1v1h1v1h2v1h1"/>
<path class="tg" d="M179,755h-1v1h-1v2h-1v1h-1v1h-1v1h-1v2h-1v1h-1v1l-1,1v1h-1v1l-1,1v1h-1v1l-1,1v1h-1v2h-1v1l-1,1v1h-1v2h-1v2h-1v2h-1v2h-1v2h-1v2h-1v2h-1v2h-1v2l-1,1v2h-1v2l-1,1v2h-1v3h-1v3h-1v3h-1v3h-1v4h-1v4h-1v4h-1v4h-1v5l-1,1v5h-1v8h-1v11h-1v29l1,1v10l1,1v7h1v6h1v5h1v4l1,1v4h1v3l1,1v3h1v3h1v3h1v3h1v3h1v3h1v2h1v3h1v2h1v2h1v2l1,1v2h1v2h1v1l1,1v1l1,1v1h1v2h1v2h1v1l1,1v1h1v2h1v1h1v2h1v1h1v2h1v1h1v1l1,1v1h1v1h1v1h1v2h1v1h1v1h1M192,755h-1v3h-1v2h-1v3h-1v3h-1v3h-1v3h-1v3h-1v3l-1,1v3h-1v4h-1v4h-1v4l-1,1v4h-1v5h-1v6h-1v6l-1,1v7h-1v8h-1v11l-1,1v18h-1v29l1,1v18h1v11h1v8l1,1v7h1v6h1v6h1v5h1v5h1v4h1v4h1v4h1v4h1v3h1v3l1,1v3h1v2l1,1v2h1v3h1v3h1v2h1M205,755v243M217,755h1v3h1v2h1v3h1v3h1v3h1v3h1v3h1v3l1,1v3h1v4h1v4h1v4l1,1v4h1v5h1v6h1v6l1,1v7h1v8h1v11l1,1v18h1v29l-1,1v18h-1v11h-1v8l-1,1v7h-1v6h-1v6h-1v5h-1v5h-1v4h-1v4h-1v4h-1v4h-1v3h-1v3l-1,1v3h-1v2l-1,1v2h-1v3h-1v3h-1v2h-1M230,755h1v1h1v2h1v1h1v1h1v1h1v2h1v1h1v1l1,1v1h1v1l1,1v1h1v1l1,1v1h1v2h1v1l1,1v1h1v2h1v2h1v2h1v2h1v2h1v2h1v2h1v2h1v2l1,1v2h1v2l1,1v2h1v3h1v3h1v3h1v3h1v4h1v4h1v4h1v4h1v5l1,1v5h1v8h1v11h1v29l-1,1v10l-1,1v7h-1v6h-1v5h-1v4l-1,1v4h-1v3l-1,1v3h-1v3h-1v3h-1v3h-1v3h-1v3h-1v2h-1v3h-1v2h-1v2h-1v2l-1,1v2h-1v2h-1v1l-1,1v1l-1,1v1h-1v2h-1v2h-1v1l-1,1v1h-1v2h-1v1h-1v2h-1v1h-1v2h-1v1h-1v1l-1,1v1h-1v1h-1v1h-1v2h-1v1h-1v1h-1M243,755h1v1h1v1h1l1,1h1v1h1v1h1v1h1v1h1v1h1l2,2h1v1h1v1h1v1h1v1h1v1h1v1h1v1h1v1h1v1l2,2v1h1v1h1v1h1v1h1v1l1,1v1h1v1h1v1h1v2h1v1h1v1l1,1v1h1v1h1v2h1v1h1v2h1v2h1v1h1v2h1v2h1v2h1v1l1,1v1l1,1v1l1,1v2h1v2h1v2h1v3h1v2h1v3h1v3h1v3h1v3h1v4h1v4h1v5h1v6h1v8h1v30h-1v7l-1,1v5h-1v5h-1v4h-1v4h-1v3h-1v3h-1v3h-1v3h-1v3h-1v2h-1v2h-1v2l-1,1v2h-1v2h-1v2h-1v2h-1v1h-1v2h-1v2h-1v2h-1v1h-1v2h-1v1h-1v2h-1v1l-1,1v1h-1v1h-1v2h-1v1h-1v1h-1v1l-1,1v1h-1v1h-1v1h-1v1l-1,1v1h-1v1h-1v1h-1v1h-1v1h-1v1h-1v1h-1v1h-1v1h-1v1h-1v1h-1v1h-1v1h-1v1h-1v1h-1l-2,2h-1v1h-1v1h-1v1h-1v1h-2v1h-1M256,755h1v1h2v1h2v1h1v1h2v1h2v1h1v1h2v1h1v1h2v1h1v1h2v1h1v1h1v1h2v1h1v1h1l1,1h1v1h1v1h1v1h1v1h1l1,1h1v1h1v1h1v1h1v1h1v1h1v1h1v1h1v1h1v1h1v1h1v1h1v1h1v1h1v1h1v1h1v1h1v1l2,2v1h1v1h1v1h1v1l1,1v1h1v1h1v2h1v1h1v1l1,1v1h1v2h1v1h1v2h1v1h1v2h1v2h1v2h1v2h1v2h1v2h1v2h1v3h1v2h1v3h1v3h1v3h1v3h1v4l1,1v4h1v6l1,1v14l1,1h-1v15h-1v6h-1v5h-1v4h-1v3h-1v3l-1,1v2l-1,1v2h-1v3h-1v2h-1v2h-1v2h-1v2l-1,1v1h-1v2h-1v2h-1v2h-1v2h-1v1h-1v2h-1v1h-1v2h-1v1h-1v2h-1v1h-1v1h-1v2h-1v1h-1v1h-1v1l-1,1v1h-1v1h-1v1h-1v1h-1v1h-1v1h-1v1l-3,3v1h-1l-3,3h-1v1h-1v1h-1v1h-1v1h-1v1h-1v1h-1v1h-1l-1,1h-1v1h-1v1h-1v1h-1l-1,1h-1v1h-1v1h-1l-1,1h-1v1h-1v1h-2v1h-1v1h-2v1h-1v1h-2v1h-2v1h-1v1h-2v1h-1l-1,1h-1v1h-2"/>
<path class="tg" d="M269,755h1v1h3v1h2v1h2v1h2v1h2v1h2l1,1h1l1,1h1l1,1h1v1h2v1h2v1h2v1h1l1,1h1v1h2v1h1l1,1h1v1h2v1h1v1h2v1h1v1h2v1h1v1h1l1,1h1v1h1v1h2v1h1v1h1v1h1v1h2v1h1v1h1v1h1v1h1v1h1v1h1l1,1h1v1h1v1h1v1h1v1h1v1h1v1h1v1h1v1h1v1l1,1v1h1v1h1v1h1v1h1v1h1v1l1,1v1h1v1h1v1h1v2h1v1h1v2h1v1h1v2h1v1h1v2h1v2h1v1h1v2h1v2h1v2h1v2h1v2l1,1v2h1v2l1,1v2h1v3h1v4h1v4h1v5h1v9h1v13l-1,1v8h-1v5h-1v4h-1v4h-1v3h-1v3h-1v2h-1v3h-1v2h-1v2h-1v2h-1v2h-1v2h-1v2h-1v1l-1,1v1h-1v2h-1v1h-1v2h-1v1h-1v1h-1v2h-1v1h-1v1l-1,1v1h-1v1h-1v1h-1v1l-2,2v1h-1v1h-1v1h-1v1h-1v1h-1v1h-1v1h-1v1h-1v1h-1v1h-1v1h-1v1h-1v1h-1v1h-2v1h-1v1h-1v1h-1v1h-1v1h-1l-1,1h-1v1h-1v1h-1v1h-2v1h-1v1h-1l-1,1h-1v1h-1v1h-2v1h-1v1h-2v1h-1l-1,1h-1v1h-2v1h-1v1h-2v1h-2v1h-1l-1,1h-1v1h-2v1h-2v1h-2v1h-2v1h-2v1h-2v1h-2v1h-2l-1,1h-2v1h-2v1h-2"/>
<rect x="96" y="839" width="23" height="25" fill-opacity="0" stroke="#ffffff" stroke-opacity="0.5" stroke-width="5.0"/>
<rect x="98" y="841" width="23" height="25" fill-opacity="0" stroke="#113311" stroke-opacity="0.8" stroke-width="5.0"/>
<rect x="97" y="840" width="23" height="25" fill-opacity="0" stroke="#45a249" stroke-opacity="0.9" stroke-width="5.0"/>
<rect x="691" y="691" width="309" height="309" fill="#ffffff" fill-opacity="1.0"/>
<rect x="694" y="694" width="302" height="302" fill="#000000" fill-opacity="1.0"/>
<rect x="700" y="700" width="300" height="300" fill="#70add3" fill-opacity="1.0"/>
<path class="zl" d="M943,1000l-1,-2l-4,-2h-1l1,2l2,2h-6l-2,-2l2,-2v-5l-2,-2l-6,-4l-2,-1l-5,-1l-1,-1l-2,-1v-3l-1,-2l-8,-5l-1,-1v3l2,1l3,2l1,1v1l-2,2h-1v1l-1,1v-1l-3,-3l-5,-2l-1,-1l-2,-3l-1,-2v-2l2,-3l1,-1v-2l-1,-1l-2,-1l-1,-1l2,-1v-2l-1,-2l-2,-2l-9,-7l-5,-7l-2,-2l-4,-3l-1,-2l-5,-4l-4,-2v-1l2,-2l2,2h2v-3h-1l-1,-2l-1,-1v-1l-2,-1l-1,1l-1,-1h-2l1,2l-2,2h-4l-7,-2h-1l2,2l-6,-2l-7,-3l-9,-2l-3,-2l-8,-4h-12l-8,-4l-3,-2l-7,-6l-5,-5l-4,-5l-2,-2l-2,-1l-2,-3l-6,-5l-4,-3l-3,-3l-2,-1l-3,-1l-2,-2h-1v1l1,1h2l1,1l3,1v1l-8,-3h-3v-1l1,-1v-1h-1l-1,1h-1v-1l-1,-1h-1l-2,2l3,1h-2l-3,1l-5,3l-6,1l-7,3l-3,1h-2l-5,-2l-6,-3l-5,-1v-168h14l-1,1l-3,6l-2,3l-3,11l-1,7l-1,4l-1,8v7l-1,2l-1,3v2l1,4v3l4,7l2,1l1,1l-1,3l-1,1v1v-4l1,-1l-2,-1l-2,-2l-2,-5l2,7v2h1v1l1,1h-1l3,5l2,6v1l1,2l10,13l1,6l1,2v2l3,2l1,2l1,1l1,3l2,1h-2l1,1l4,2l-2,-2h1l2,1l6,1l3,2l3,1l4,6h6l7,-3l4,-1h11l2,-1v-1l1,-1h3l1,-1h8l1,1v1h-1l1,1l2,1l3,1l1,-1l4,-2v-3h-1v-2l-1,1h-1v-1h1l5,-3l1,-1l2,-1l3,-3l1,-7l3,-3l1,-2v-12h1l1,-5l3,-2l5,-2l16,-3h2l3,-2h5l1,-1h3l4,1h1l7,2l2,-2h-4l1,-1h5l3,3l1,3v4l-2,4l-2,3l-3,2l-4,7v2l1,2l-1,1h-1l-1,1l-1,2l-1,1l1,1l1,-1h3v2l-1,1h-1l-1,1h-1v2h1l1,-1h1l-2,4l-1,5l-1,2l-1,4v2l-1,1h-1l-1,-3l-1,-1v-6h-1l-2,2v2l-1,2v1l-1,2h3l1,2v2l-2,4v2l-1,3l1,1l-1,2v8l-1,6l-1,2l-1,1l-2,3h-2l-3,4l-1,1l1,2h1l2,1l1,1l2,-2l-1,-1l6,3l1,1l2,-1v-1l2,-1h1l3,-1h1l1,2h5l6,1l2,-1h7l3,-2h2l2,-1v-1h3l5,2h5l2,-1l1,-1l6,2l2,2l1,-1h-1v-1l4,1l9,7l-4,-2h-2v2h3l3,3h1l2,-1l1,1l-1,-1l-2,-1h1l4,2l2,3h1l1,1v1h-1l-1,2v-1h-2v1l1,1h1l2,7l-2,4l-2,2l-2,12l1,7v9h-1l-1,-1v-1l1,-1v-2l-1,2h-1v1l-1,1l1,1v1l1,1l-1,1v3h-1v3h-1v1h2l1,2v2l-2,1v1l-1,1l-1,2v1l1,3l1,2l1,1h1l1,1v1l1,1l2,5l2,2l3,5l2,1l3,4h1v1l3,1l2,2l2,1l1,1l-1,1l1,2h3l-1,1v2l2,1l1,1l3,-1h2l-2,-2v-1h1v1l2,1l3,3l3,1h3l2,-1l4,-1l3,-3l2,-1l7,-2l2,-3h2l2,-2v13l-1,1l1,1l-5,4ZM964,702l-1,-2h16v4l-1,2l-2,1h-1l-3,2h-5l-1,-1v-2h1l2,2v-1l-1,-1h-1l-1,-1Z"/>
<path class="zp" d="M940,1000h-6M700,868v-168h14M1000,981v13M1000,996v0M995,1000h-52M963,700h16"/>
<path class="zl" d="M978,709l-3,3v-1l3,-3v-2l1,-1h1ZM964,718h-1l-1,-1v-1l2,1ZM971,715l1,-1v1ZM974,713h1ZM968,717h-1v-1h2ZM960,719h-1l1,-1v-1v1ZM957,720h-1l1,-1ZM967,810h4l1,1h-5l-1,-1l1,-1ZM990,803h-1l-1,1h-1v-1h2ZM992,803h-1l1,-1h1ZM958,984v1l-2,-2h1ZM876,796h-1l-1,-2l1,-2l1,-1h3l-1,2ZM879,779l1,1h-1v-2ZM798,824h-3l4,-2h1l-2,1ZM885,864l-3,1h-1l4,-2h3ZM894,862l-1,1v-1l1,-1h1v1ZM999,770h-1l-9,-3l-4,-1l-1,-1l-2,-1l-3,-3v1l-7,1l-1,-1h-1l-1,-1v-1l-1,-1v1l-1,1v1h-2l-1,-1h-7l-3,-3l1,-1l4,-1l1,-1l-1,-1v-1h-2l-1,-1l-14,1l-3,3l-2,1l-1,1v1l-2,1l-1,1l-2,1l-1,-1h-1v1h-5v1l-1,1v2h-1l-1,1h-2l-3,2h-1v-2h-3l-2,1h-1v-1l5,-2h3l1,-1l-1,-3v-2l1,-2l3,-2l1,-1l12,-6h2l8,-1l1,-1l4,-2h8l4,1l3,-1h2l1,1h3l6,-1v1l1,1h2l1,1h5l2,1h2v1l3,1l2,3l1,1l2,1h1l2,1v14Z"/>
<path class="zp" d="M1000,756v14"/>
<path class="zl" d="M946,772l-1,1l-3,1h-4l-2,-2v-1l2,2l1,-1h1l-2,-4l1,-2h4l1,1v1l1,1l1,2ZM997,751v1l-3,-2l-1,-1h-1h1l3,2Z"/>
<path class="zh" d="M839,864v-27l1,-1h2v1h1l1,1v-1l2,-2v-1h1v-2h1v-1h1v-2h1v-2h3l1,1h-1l-1,1v1l1,-1v1h-1h2v-1l1,1h1v-1h1v1h-1h1v5l-1,1l-1,2v3h-1v2l1,1h1v1h-2v4l-1,1h1v2h1v2h-1v3h-1v1h1l-1,1v3h-1l1,-2v-1l-1,1v2l-1,1v1l-1,1v1h-3v1h-1v1h-1v1h-1v1h-1v3l-2,-1h-2l-1,1v-6Z"/>
<rect class="zh" x="861.5" y="846.5" width="1" height="1"/>
<path class="zh" d="M861,844h1v1l-1,1h-1v2h-1h1v-3h2v-1Z"/>
<rect class="zh" x="857.5" y="842.5" width="1" height="1"/>
<rect class="zh" x="856.5" y="840.5" width="1" height="1"/>
<path class="zh" d="M860,835v2h-1v-1l1,-1v-2h1v1l-1,1v1Z"/>
<rect class="zh" x="856.5" y="844.5" width="1" height="1"/>
<rect class="zh" x="858.5" y="834.5" width="1" height="1"/>
<rect class="zh" x="859.5" y="833.5" width="1" height="1"/>
<rect class="zh" x="860.5" y="832.5" width="1" height="1"/>
<path class="zw" d="M913,953l1,1v1l-2,2l-1,-1h-3l-2,-1l-3,-1h-2l-2,-2h-1v-1l-2,-2v-1l-1,-1v-3l-1,-2v-2l1,-1v-1h2l1,1l2,1l2,2h2l6,6l1,2l1,1ZM710,705l-1,1l-3,8l-1,6l-1,3l-1,6v-4l1,-2v-3h-1v-2l1,1l1,-3v-3l1,-1l-1,-1v-5l1,-1v-1h1v1h1l1,-2l1,1ZM844,876h-1l-1,1v1l-1,2h-1l-1,1h-3v-1h-1l1,-1h2l1,-1h1l2,-2l2,-1ZM891,935v2h-3v-1l-1,-1h-3l-1,-1v-1h2l1,-1h2l1,1l1,2l1,-1ZM1000,988h-1v-1h-1v-1v1l-1,1v1l-1,-1v1h-1l1,-2l1,-1v-2h1l1,-1v3h1Z"/>
<path class="zr" d="M1000,986v2"/>
<path class="zb" d="M952,981v1h-1l-2,-1h-2v2h-1v7h1l2,1v1h1l-1,1h-1l-2,2l1,2l1,1v2M933,958v2h-1l-2,1h-6v-1l-3,-3h-2l-3,-1h-1l-1,1l-2,1l-5,-1l-3,-2l-3,-1h-2v1l-1,1h-1M940,887h-6l-1,2h-2l-1,1l-2,1h-4v1h-2v1h-1l-1,-1l-2,2h-1l-2,-1h-1l-1,-2h-1l-3,1v1l-1,1h1l-1,1h-1v1l-1,1v3h-1l-2,1l-2,2l-1,2l-2,1h-1v2h-1l-3,-2l-1,-2l-1,1h-1l-2,2l-1,2l-1,1l-4,-1l-2,1l-1,1l1,1v4l1,1l-1,1h-2l-1,1v2l-1,1v1h-6M855,875l-1,1l-2,1l-2,3l-3,2l-2,2l-3,1v1l-3,1l-1,3v2l1,2v1l-2,1l-1,2M823,910v-2l1,-1l2,-1l1,-1h1l2,-2v-1h2v-3l1,-1h3l3,1h1l4,4l2,1l1,1l2,1h1v2h2l4,-2h1l2,2l1,-1h2l1,1v4l-1,1v1h1v1l-1,1M839,839h-30v10l-4,-1h-3v1h1l8,8l2,1l1,1v3h1l2,1l1,1l-1,2v2l1,1h-22l-2,2l-4,8l-2,3v1l2,3v1l-1,1v1l-1,2v4h-1"/>
</svg>
