<?xml version="1.0" encoding="UTF-8" standalone="no"?>
<svg xmlns:svg="http://www.w3.org/2000/svg" xmlns="http://www.w3.org/2000/svg" xmlns:xlink="http://www.w3.org/1999/xlink" height="1000" width="1000">
<!-- made with pythonshp (GPL): github.com/sanjayrao77/pythonshp , underlying data may come from naturalearthdata.com -->
<!-- 
COPYRIGHT: THIS SVG FILE IS RELEASED INTO THE PUBLIC DOMAIN
 -->
<!-- 
vars : {
	'cmdline' : 'pythonshp.py publicdomain wiki1 cookislands locatormap'
	'title' : 'Cook Islands locator'
	'version' : '1.0.5'
}
 -->
<defs>
	<radialGradient id="watergradient" cx="500" cy="500" r="500" fx="500" fy="500" gradientUnits="userSpaceOnUse">
		<stop offset="0%" stop-color="#70add3"/>
		<stop offset="11%" stop-color="#6eaad0"/>
		<stop offset="22%" stop-color="#6ca7cc"/>
		<stop offset="31%" stop-color="#6ba5c9"/>
		<stop offset="41%" stop-color="#69a2c6"/>
		<stop offset="51%" stop-color="#679fc2"/>
		<stop offset="59%" stop-color="#669dbf"/>
		<stop offset="67%" stop-color="#649abc"/>
		<stop offset="75%" stop-color="#6297b9"/>
		<stop offset="81%" stop-color="#6095b6"/>
		<stop offset="87%" stop-color="#5f92b2"/>
		<stop offset="92%" stop-color="#5d8faf"/>
		<stop offset="95%" stop-color="#5b8dac"/>
		<stop offset="98%" stop-color="#598aa8"/>
		<stop offset="100%" stop-color="#5685a2"/>
	</radialGradient>
	<radialGradient id="landgradient" cx="500" cy="500" r="500" fx="500" fy="500" gradientUnits="userSpaceOnUse">
		<stop offset="0%" stop-color="#dddddd"/>
		<stop offset="11%" stop-color="#d7d7d7"/>
		<stop offset="22%" stop-color="#d1d1d1"/>
		<stop offset="31%" stop-color="#cccccc"/>
		<stop offset="41%" stop-color="#c6c6c6"/>
		<stop offset="51%" stop-color="#c0c0c0"/>
		<stop offset="59%" stop-color="#bbbbbb"/>
		<stop offset="67%" stop-color="#b5b5b5"/>
		<stop offset="75%" stop-color="#afafaf"/>
		<stop offset="81%" stop-color="#aaaaaa"/>
		<stop offset="87%" stop-color="#a4a4a4"/>
		<stop offset="92%" stop-color="#9e9e9e"/>
		<stop offset="95%" stop-color="#999999"/>
		<stop offset="98%" stop-color="#939393"/>
		<stop offset="100%" stop-color="#888888"/>
	</radialGradient>
	<radialGradient id="bordergradient" cx="500" cy="500" r="500" fx="500" fy="500" gradientUnits="userSpaceOnUse">
		<stop offset="0%" stop-color="#444444"/>
		<stop offset="11%" stop-color="#3f3f3f"/>
		<stop offset="22%" stop-color="#3a3a3a"/>
		<stop offset="31%" stop-color="#363636"/>
		<stop offset="41%" stop-color="#323232"/>
		<stop offset="51%" stop-color="#2d2d2d"/>
		<stop offset="59%" stop-color="#292929"/>
		<stop offset="67%" stop-color="#242424"/>
		<stop offset="75%" stop-color="#1f1f1f"/>
		<stop offset="81%" stop-color="#1b1b1b"/>
		<stop offset="87%" stop-color="#161616"/>
		<stop offset="92%" stop-color="#121212"/>
		<stop offset="95%" stop-color="#0e0e0e"/>
		<stop offset="98%" stop-color="#090909"/>
		<stop offset="100%" stop-color="#000000"/>
	</radialGradient>
</defs>
<style type="text/css">
<![CDATA[
.c1 {stroke:#45a211;fill-opacity:0}
.c2 {stroke:#45a211;fill-opacity:0;stroke-width:2}
.fs {font:14px sans;stroke:#ffffff;stroke-width:2px;stroke-opacity:0.8;text-anchor:middle}
.ft {font:14px sans;fill:#000000;fill-opacity:1;stroke-opacity:0;text-anchor:middle}
.sb {stroke:url(#bordergradient);fill-opacity:0}
.sg {stroke:#000000;fill-opacity:0.0;stroke-opacity:0.2}
.sh {fill:#45a211;stroke:#000000}
.sl {fill:url(#landgradient);stroke:url(#bordergradient)}
.sp {stroke:url(#landgradient);fill-opacity:0}
.sr {stroke:url(#watergradient);fill-opacity:0}
.sw {fill:url(#watergradient);stroke:url(#watergradient);stroke-opacity:0.8}
.tb {fill:#eeeeee;stroke:black;stroke-width:2}
.tg {stroke:black;stroke-opacity:0.2;fill-opacity:0}
.th {fill:#45a211;stroke:#378100}
.tl {fill:#aaaaaa;stroke:black}
.w1 {stroke:#ffffff;fill-opacity:0;stroke-opacity:0.6}
.w2 {stroke:#ffffff;fill-opacity:0;stroke-opacity:0.6;stroke-width:2}
.zh {fill:#45a211;stroke:#115511}
.zl {fill:#dddddd;stroke:#444444}
]]>
</style>
<circle cx="500.0" cy="500.0" r="500.0" fill="url(#watergradient)"/>
<path class="sl" d="M696,40l-1,-1h-3v-1l1,1h-1h3v1h1l2,1h1l1,1h2l1,1h1l1,1h1l1,1h1v1h1l-1,-1l1,1h-1v-1h-1l1,1v-1l1,1h1h-2v-1h-2l-1,-1h-2l-1,-1h1v1h2l1,1h2v1h2v1h2l2,1l1,1h-1h1h-1v-1v1h2v1v-1h-1h1v1h2v1v-1h-1v1h2l1,1h1v1h1l1,1h1v1h2v1h1l1,1h1l1,1l3,2l2,1h1l1,1h1l1,1h1l2,2l-2,-1v-1h1v1h2v1l2,1l1,1l2,1h1l2,1l1,1h1v1h1v1v-1h1v1v-1l1,1h1l1,1h1l1,1h1l2,2h2l3,3h1l1,1l2,1h1v1h2v1h1l1,1h1v1l-1,-1h1l1,1h1v1h1l2,2h1l3,3h1l3,3h1l2,2h1v1h1l2,2h1l4,4h1l2,2h1l3,3h1l3,3h1v1l2,2h1l3,3h1l7,7h1l7,7h1l3,3v1l1,1h1l24,24v1l2,2h1l1,1v1l4,4v1l1,1h1l1,1v1l4,4v1l6,6v1l3,3v1l5,5v1l3,3v1l2,2v1l3,3v1l2,2v1l1,1v-1v1l2,2v1v-1v1h1v2h1v1h1v1v-1h-1l2,2l1,2v1v-1l1,1v1l1,1v1v-1v1l1,1h-1h1v1l-1,-1l2,2v1l1,1v1h1v2h1v1l1,1h-1v-1l1,1v1l1,1v1l3,3v1l2,3l1,3l5,7v1h1v2l2,2h-1l-1,-2v-1l-1,-2v1v-1l-1,-1v-1v2l2,2v1l5,7v2h1v2l1,2l2,3l1,2v1l1,1v1l1,1v1v-1v1l-1,-1v-1v1v-1l-1,-2l-2,-2v-1l-1,-1v-1l-1,-2l-1,-1v-1v1l-1,-2l-1,-1v-1v1h1h-1v-1l-1,-1l-1,-2l-1,-1v-1l-1,-1v-2h-1l1,1v1v-1l-2,-3l-2,-4v-1l-1,-1l-5,-7l-2,-2v1h1h-1v1l-1,-1h1h-1v-1l-2,-2h1h-1v-1v1v-1l-2,-2v1v-1h-1l-1,-1v1v-1v1h-1h1l-2,-2v-1h-1l1,1v1h-1v-1h-1v1l-2,-2v1l1,1h1v1l1,1v-1v1h1v3h1v1h1v1h1v1h1v1l-1,-1v1v-1l-1,-1v-1h-1v-1h-1l-1,-1l1,1v1h1v1l-1,-1h-1h1v1l-2,-2h-1h1l-1,-1v-1h-1v-1l-1,-1h-1v-1v2l-1,-1h-1l-2,-2h-2v-1l1,1h-1v1l-1,1l1,-1h-1v-1l-1,-1v1v-1h-1l1,2h1v3h1l-1,1v2h-1l1,-1h-2v-1h-1l1,2h1v1h-1v-1v1h1v1h-1v-1v1l1,1v1h-1l1,1l1,2v1h-1v-1l-1,-1l1,2h1v1l1,1v1l1,1l1,2v1l2,2v1l1,2l1,1v4l2,4l1,4l1,1l2,7v1l1,1v1l1,2l1,1l1,3h1l1,1v1l-2,-2l-1,-2l2,3v1l1,1l1,2l1,3l1,1l5,7l1,3l1,1v2h1v1l2,2h-1l1,1h1h-1h1l3,3v1l1,2h1l2,-2l1,1h1v-1h2v1h1v1h1v-2h-1v-2l1,-1v-1l-1,-3v-2h-1v-2l-1,-1v-1l-1,-2v-3l2,-1h2l2,2v-1h-1h1l1,1v1l1,1v2l1,1v4l1,1v4h1v2l1,1v2l1,2v2l1,1v1l-2,-4v-1v4h1v1l1,1v4l1,1v2l1,2l1,3v5l1,1v-1l1,2l1,-1v1h1l1,1h1v1v-1h1v-1h-1l2,2h1v1l1,1v-1v1l2,3v1v-1l-1,-1v1h1v2h1v1v-1l-1,-1l1,2l1,1v3l1,3l1,1v4l2,6v3l1,1v1l-1,-1v-1v2h1v5l1,1v4l1,1v2l1,1v2l1,2v2l1,1v3l2,2v4l1,1v-1v1l1,1v1h1v-4h1v2h1v2l1,2v1l1,3v4l1,1v6l-1,-3v-5l-1,-1v-1l1,1v1v-1l-1,-1v-1v1v-1v1v-2l-1,-1v-3l-1,-1v8l1,1v5l-1,-1v-3l-1,-2v1l1,1h-1v-1l-1,-3v-2h-1v-1l-1,-1v1v-1l-1,-2v-1v1l-1,-1v-5l-1,-1v-1l-1,-1v-1h-1v-3l-1,-2l-1,-1v-1v1l1,1v2l-1,-1v-1l-1,-1v-5h-1v-3l-1,-1v-2l-3,-6v-2h-1l-1,-2v-1l-2,-4v-1l1,1v-1h-1v-2l-1,-1v1h-1l-1,-1l1,1l-4,-4v-1l-3,-3v-1h-2l-2,-2v-1l-2,-3v-1l-2,-2l-1,-3l-1,-1v-1l-1,-1l-2,-3l-1,-1l-1,-2l-1,-1l1,1v1l-2,-2v-1l-1,-1v1v-2h-1v1l1,1h-1l-1,1v1l-1,1h-1l-2,-1l-1,-2l-3,-1l-5,-5v-1h-1l-1,-1l-2,-1l-1,-2l-1,-1h-1l-6,-6h-1l-1,-2v-1h-2l-2,-2l-4,-2l-1,-2l-1,-1l-1,-2l-2,-2h-1l-4,-4v-1l-4,-4v-2l-1,-1v-1h1v-1l-1,-1v-4l-2,-2v-1l-2,-2l-1,-3l-2,-4h-1l-3,-3l-1,-3l-4,-4l-5,-4l2,1v-1h-1v-1h-1l-1,-1h-1v-1l-1,-2h-1h1l-2,-1v-1l-2,-1l-1,-1h-1v-1h-1l-1,-1l-1,-2v-2h1h-1v-1h-1v-1l-2,-2h-1l-2,-2v-1l-2,-1h-1v-1h-1v-1l-1,-1v-2h-2v-1v1l-1,-1h-1l-4,-4v-1l-1,-1h-1v-1l-4,-4v-1h-1l-1,-2l-1,-1h-1v-1l-1,-1v-1l-4,-4v-2l-1,-1h-1l-1,-1h-1v-1h-1v-1h-3l-2,-2h-1l-1,-1v1l1,1v1l1,2l3,3v1l1,1l1,2l2,2v1l2,1l9,9v1h1l1,1v1l2,2v1l1,1l2,1l1,1l1,2l1,1l1,2l1,1v-1l-1,-1h1l1,2l2,2v1l1,1l1,2v1l3,3l1,2l2,2v2h1l1,2v1l1,1h1l-1,-1v-1h1l1,2l2,2v1h1v1l2,2l1,2l-1,1v1h-1l-1,-1l-1,-3h-1v-1l-1,-1l-2,-1l-7,-7h-1v-1l-3,-3v-2l-1,-2v-1l-2,-2l-1,-2l-1,-1h-1l-3,-2l-1,-2l-1,-1v1h-1l-1,-1h-1v-1h-1l-2,-2h-1l-1,-1v-1l-2,-1l-1,-1h-1v-1h1l2,1v-1h1v1l1,1v-1l-1,-1v-2l-1,-2l-7,-7h-1l-3,-3h-1l-1,-2h-1v-1l-1,-1v-1h-1l-1,-1v-1l-1,-1l-1,-2h-1v-1l-2,-1l-1,-1v-1l-1,-1v-1l-2,-1l-2,-2v-1l-1,-1v-1h-1v-1h-1v-1l-2,-2l-3,-2l-2,-2h-2v-1l-1,-1h-2l-2,-1l-2,-2h-3l-1,-1h-2l-2,-2v-1h-1v-2h-2v-2h-1l-2,-2h-1l-3,-3l-2,-1v-1l-1,-1v-1l-2,-2l-2,-1l-3,-3v-1h1v1l1,1h1l-3,-3h2v-1h-1v1l-1,-1h-1l1,1v1h-1v-1h-1l-1,-1v1v-1h-1v-1l1,1l-1,-1h-1l-3,-3l-2,-1l-1,-2l-2,-2v-1l-3,-3l-2,-1l-1,-1v-2l-1,-1v-1l-1,-2l-1,-1v-1h-1v-1l-2,-1l-1,-1v-1l-2,-2v-1l-1,-2v-2l-2,-2v-1l-1,-1v-1l-1,-1l-2,-3v-1l-1,-2l-2,-1v-1v1h3l-1,-1h-3v-1l-1,-1l1,1v-1h-1l-1,-1h1l-1,-1h-1l-4,-4l-2,-1l-1,-1v-1h-1h2l1,1h1l4,1h2l1,1h1v1h-1v2h1v-1h-1h1v-2l1,1h-1h1v1l1,1v1v-1v1l-1,-1v1h2v-1l-1,-1v-1h-1v-1h-1v-1h-1h1v1l-1,-1v-1h-2v-1h1l-1,-1h-1l-1,-1h-1v-1h-1v1v-1h-1v-1h-1h1h-1v-1h-1v-1v1h-3l-1,-1h1l-2,-2h1h-1v-1h-1l2,2h-2l-2,-1h-1l-1,-1v-1h-1v-1h-1v-1v1h-2l-1,-1l1,1h-4v-1h1h-2v-1h-1l-1,-1h1v1h-2l-1,-1h-1l-1,-1h-2v-2h2h-2v1h-1v-1h-1v-1h-1v-1l-1,-1h4v1h1h-1v-1h-2v-2h-1h1v1l-1,1h-1v1l1,1l-2,-1l-1,-1h1l-1,-1h-1v-2h-2l-2,-2h-3v-1h-1v-1h1v1h1l1,1h1v-1l1,1h1h-1v-1h-3v-1h-1h1l-1,-1l-1,1v2h-1l-2,-2h-3v-1h1l-1,-1h1h-1l-1,-1h-2v-4l-1,-1v1h1v1h-1v-1l-1,-1h-1v-1v1h1v1h1v2h-2l-2,-2h1h-1v-1h-1v-1h-1l-1,-1h-3l1,1h-2v-2h1h-2v-1h-2v-1h-1l-1,-1h-2v-1h-3l-2,-2h-1h3l-2,-1h-1h1h-2l-1,-1h-1v-1h-1v-1v1h-2l-1,-1h-1l-1,-1h-1l-2,-2h-1h1v1v-1l-1,1h1l1,1h1l2,2h-1l-1,-1h-2v-1h-1v-1l-1,1v-1h-1h1v1h-1v-1h-1v1h3v1h-1v1l-1,-1h-1l-3,-1h-1l-1,-1h-1l-1,-1h-3l-3,-1h-1l-1,-1h1l-1,-1h1v1h1v-1h-3l-1,1h-1l-1,-1h-4l1,-1h-12l-1,-1h-3v-1h-4v-1h-4l-1,-1h1h-6v-1v1h-2v1h1h-1v1v-1h2l1,1h-1l1,1h-6v1v-1h-1v1h-1h1h-2v1l-1,-1v1h-3l-1,1l-1,-1h1l1,-1h1h-4l2,-2v-1h-1v-1h7l-1,-1h-1h1l1,-1h1h-2v1h-6v1h-2v1h-1v1h-1v1h-2v1h-3l-1,1v1h4v1h-2l-1,1h-1h1v1h-4v1h-2v1h-3l-1,1v1h-2l-1,1h-4v1h1h-3v1h1h-2v1h-4v1h-1v-1h-1l-1,1h-3v1h-3v-1h1h-2l-2,2h-3l-1,1l-1,-1h-1v1h-1v-1h3v-1h1l1,-1h1l1,-1h5l1,1v-1h1v-1h1v-1h3l2,-1h1v-1h1v1h1v-1l1,-1h1l1,-1h1v-2h2l-1,-1h-1h1l1,-1h1h-1l1,-1v-1v1h-1l-2,1h-4v-1h1l-1,-1v1h-2v1h1v1h-2l-1,-1v-1h-9v1h-2v-1l1,-1h-2v-1h1v-1l-1,-1h-1l-1,-1h1l1,-1h-1l-1,1h-1l1,1h-1l-1,1h-5v-1h-2v-1h-3l1,-1h1v-1l1,1h3v-1h1l-1,1h-2l-1,-1h-3v-1h1h-1v1h-1v-1h-1v-1l-1,1v-1h1h-1h1l2,-2h2v-1h1v1v-1h1h-1v-1h2v-1h2v1h1h-1h4v-1h6l1,-1h1v-1h-1l-1,-1h-1h3v-1h-5l-1,1h-2l-1,-1v1h-12v-1l-1,-1h-1h-1l-2,-1h2l1,-1h5v-1h7l-1,1h8l1,-1h1v1l1,-1v1v-1h-3l-1,-1h-1h1l1,1h4l-1,-1l-1,1h-1v-1h-1h1h-3v-1v1h-2l-2,-1h-1v-1l-4,-1h-3v-1h6l1,-1h3v-1h1l2,-1h5l1,-1h1l-1,1h1h-1h2l-1,-1h-1h8l1,-1h4v1h-1h10v1h13l1,1h14l1,1h4l1,1h7l2,1h3l2,1h6l1,1l-1,-1h-3v-1h4v1l1,-1h5v-1h1v1h1h-3v1h-1v1h1h1l-1,-1h4v-1h3v1h1v-1h-1h1h-1l-1,-1h1l1,1h3l1,1h1l2,1h2v-1h-1h1h-1h1h-1h2v1h3v1h1v-1h4l1,1h3l1,1h4l1,1h4l1,1h4l1,1h3v1h1h-1h1v1h5l1,1h6v1h3l1,1h1h-1v-1v1h2l2,1h1h-1h1l1,1h2l2,1h1h-2l-2,-1h-1v-1l1,1h1h-2v-1h-2l-1,-1h-2v-1h-1v-1h-1h1h-5v-1h-1h4v1h2l1,1h3v1h3l1,1h3v1h4l1,1h1h-1l-1,-1h-1h1l2,1h1l1,1v-1h-3l-1,-1h-2l-1,-1h1h-1h1l1,1h2l1,1l3,1h2l1,1h1l1,1h1h-1l3,1h1h-1l-1,-1h-1h1v1v-1h-2l-1,-1h-2l-1,-1l-2,-1h1v1l-1,-1h-2v-1h-3v-1l1,1h-1v-1h-3v-1l1,1l-1,-1h-2l-1,-1h-3v-1h-2l-1,-1h-2l-1,-1l1,1l-1,-1h-3v-1h-3v-1v1h1h-1h3l1,1h2l1,1h2l1,1h2l1,1h2l1,1h2l1,1h2l1,1h1l1,1h2l1,1h2l1,1h2l1,1h1l1,1h2l1,1h1l1,1h2l1,1h2l1,1h1l1,1h1l1,1ZM645,21h-1Z"/>
<path class="sp" d="M699,41l1,1h2l1,1h1l1,1h1l1,1h1M780,86h1l2,2h1l3,3M787,91h1l3,3M799,99l2,2M801,101l2,2h1l2,2h1l3,3h1l3,3h1v1l2,2h1l3,3h1l7,7h1l7,7h1l3,3v1l1,1h1l24,24v1l2,2h1l1,1v1l4,4v1l1,1h1l1,1v1l4,4v1l6,6v1l3,3v1l5,5v1l3,3v1l2,2v1l3,3v1l2,2v1l1,1M907,210l2,2v1M645,22h3l1,1h2l1,1h2l1,1h2l1,1h2l1,1h2l1,1h2l1,1h1l1,1h2l1,1h2l1,1h2l1,1h1l1,1h2l1,1h1l1,1h2l1,1h2l1,1h1l1,1h1l1,1h1M644,21h1"/>
<path class="sl" d="M958,699h1v-2l1,-1v-1l1,-1l1,-3l2,-4v-1l1,-2v-1l1,-1v-1l2,-4v-2l1,-2l1,-4h1v-2l1,-2l1,-4l1,-2v-2h1v-3l1,-1v-2l1,-1v-3l1,-1v-3l1,-1v-4l1,-1v-5l1,-1v-4l1,-1v-6l1,-1v-3l1,-2v-1l1,-2v-5l1,-2v-5l1,-1v-6l1,-2v-4l1,-5v-6l1,-2v-7l1,-2v-21l-1,-1v-2l1,-1v1v-14l1,-1v-4h1v-2h1v-6l-1,-1v-14l1,-1v-7l1,-1v-2l-1,-2v-2h1v-2h1v-12l1,-1l-1,-1l1,-1v-6h-1v-9l-1,-2v-7l-1,-2v-6l-1,-1v-9l-1,-1v-2l1,2v-1l-1,-1v-9l-1,-1v-4l-1,-2v-2l1,1l-1,-1v-1l1,1v4l1,1v5l1,1v5l1,1v6l1,1v5l1,1v7l1,1v9l1,1v10l1,1v15l1,1v44l-1,1v15l-1,1v10l-1,1v9l-1,1v7l-1,1v6l-1,1v5l-1,1v5l-1,1v5l-1,1v3l-1,1v4l-1,1v4l-1,1v3l-1,1v4l-1,1v3l-1,1v3l-1,1v3l-1,1v2l-1,1v4l-1,1v2l-1,1v3l-1,1v2l-1,1v1l-1,1v3l-1,1v2l-1,1v3l-1,1v1l-1,1v2l-1,1v2l-1,1v2l-1,1v1l-1,1v2l-1,1v2l-1,1v1l-1,1v2l-1,1v2l-1,1v1l-1,1v1l-1,1v2l-1,1v2l-1,1v1l-1,1v1l-1,1Z"/>
<path class="sp" d="M990,400v2l1,1v4l1,1v5l1,1v5l1,1v6l1,1v5l1,1v7l1,1v9l1,1v10l1,1v15l1,1v44l-1,1v15l-1,1v10l-1,1v9l-1,1v7l-1,1v6l-1,1v5l-1,1v5l-1,1v5l-1,1v3l-1,1v4l-1,1v4l-1,1v3l-1,1v4l-1,1v3l-1,1v3l-1,1v3l-1,1v2l-1,1v4l-1,1v2l-1,1v3l-1,1v2l-1,1v1l-1,1v3l-1,1v2l-1,1v3l-1,1v1l-1,1v2l-1,1v2l-1,1v2l-1,1v1l-1,1v2l-1,1v2l-1,1v1l-1,1v2l-1,1v2l-1,1v1l-1,1v1l-1,1v2l-1,1v2l-1,1v1l-1,1v1l-1,1"/>
<path class="sl" d="M349,23h2l1,-1h2l1,-1h3l1,-1h1h-1h3l1,-1h1h-1h3l1,-1h3v-1l-1,1h-1h1l1,-1h3l1,-1h2l2,-1h2l-1,1h-1l2,-1h1h-1l-1,1h-2h1h-1l-1,1h-2h2v-1h2l2,-1h3l-1,1h-1h1h1h-2l-1,1v-1h2l-1,1h2l1,-1h4l2,-1h6v1h-3l-1,1h1v1h-2l-1,1h-1h3v-1h2v-1h4l1,-1h10l2,-1h1v1h-1h2v1h3l2,-1v-1h1h-1h1v-1h13l2,-1h1v1h7l1,1h4l1,1h-1h1l-1,-1l2,1h2l4,1l-1,1h1v-1h1v1h-1v1h-1h1v1h3v-1h-1h1v-1h2v1v-1h6v1h2l1,1h-1h2l-1,1h-3v1h-4l-1,-1h-1l1,1h1h-2v1l1,-1v1h-3v1h1h-1h2v1h-2v-1l-1,1h-1v-1v1h-2l-1,-1h-5v-2h-6l-2,1v-1h-1v-1h2v-1h1h-1l-1,1h-1l1,-1h-1v1h-3v1h1v1h-2l-2,1h-1l-1,1h-7l-1,-1h-2v1h1l1,-1v1h-7l-3,1h3l2,-1h2l-1,1l1,-1l1,1l1,-1h2l-1,1h3v1h-1h1l-1,1h-1h1l-1,1h1v-1v1h1v1h-1h1v1h-2l-1,1l-3,-1h-4l-1,1h-2l-3,1h-3l-1,1h-3l-2,1h-2l-1,1h-2v1h-3l-1,1h-1l-2,1h-3l-1,1h-1l-1,1h-2v-1h-7l-2,1h-1l-4,2h-1l2,-2h-1l-2,1h-2v1h-4v1v-1h-2v1h-2l-3,3h-2l-1,1h-2l-2,1l-2,2h-1v1h1l1,-1h2v1h-1l-1,1h-1l-1,1v1h-1v1h1h-1v1l-1,1h-2v1v-1h-1l1,-1h1h-1l-1,1h-2v1l-2,1l-1,1h-1l-1,1v2h-2l-1,1h-3l-1,1h-2l-1,1h-2v1h-1l-3,3v1h-4l-1,1l-2,1v-1l-1,1h1l-1,1h-1l-3,3l-4,2h-1l-1,1l-2,1l-3,1v1v-2h1v-1l2,-2l1,-2h1v-1l1,-1v-1l6,-6l1,-2l2,-1l1,-1l2,-1l2,-2l4,-2v-1l3,-1h2l2,-2h1v-1h2l2,-1h2l1,-1h1l1,-1h2l1,-1h2l1,-1l2,-1l3,-1l1,-1h2l4,-2l1,-1h1l1,-1h2l2,-1h3v-1h2l2,-1h1v-1h-1h1l1,-1h1l1,-1h1l1,-1h3l-1,-1h-1l-4,1v1h-2v1h-2v1h-3l-1,1l-6,2h-1l-1,1h-2l2,-1h-1v-1h1l1,-1h1l1,-1h1h-1l-2,1h-1v-1l-1,1h-5v1h-3v1h-2l-1,1h-1l-1,1h-2l-1,1h-2l-2,1l-3,1l-1,1h-1l-1,1l1,1h-1l-1,1h-4l-1,1h-4l-1,1h-2l2,-1h2v-1h-7v1h-2v1v-1v1h-6l-2,1l-1,1v-1h-3l-1,1h-2l-3,1h-1l-4,2l-1,1h-1l-2,1l-1,1h-1l-2,1l-1,1h-2l-2,2h-1l-1,1l-2,1h-2l-3,2h-1v1l-3,1l-2,1l-1,1h-1l-1,1h-1l-1,1l-4,2h-1l-1,1h-1l-1,1h2v1l-2,1l-1,1h-1h1l2,-1v-1h1l-1,1h1h-1v1h-2l-1,1h2l1,-1l2,-1h1h-1l-2,1l-1,1h1v-1l2,-1l1,-1h1l1,-1h1l1,-1h1l-2,2v2l-1,1h-2v1l-2,2h-1v1l-1,1h-1v1l-2,1h-1l-1,1l-2,1l-1,1l-2,1l-1,2l-3,2l-4,4h-1v1h-1v1h-1l-1,1l-2,1v1l-1,1h-2l-2,2h-1l-3,3l-4,2v1h-1l-4,4l-3,2l-1,1l-2,1l-2,2l-2,1l-1,1h-1l-1,1l-2,1v1l-1,1h-1l-3,3h-1v1l-2,1l-3,3l-3,2h-1l-2,1l-1,1h-2l2,-2v-1v1l-1,1h-1h1v-1h-1l-1,2l-2,1l-1,1h-1v1h-1l-1,2h-1l-1,1h-1v1h-1v1h-1l-1,1v1h-1v1l-5,5h-1l-1,1v1h-1l-1,1v1h-2v1h-1l-4,4v1h-1v1l-1,1v2l-2,3l-1,1v1l-2,3l-1,1v1l-2,2v1l-2,2v1h-1h1l-2,2l-1,2l-3,3h-1l-1,1v1h-1v-1v1h-1v1h-1v1v-1l-1,1v1h-1v1v-1l1,-1l-3,3h-1h1v-1l1,-1v-1h1v-1l1,-1v-1h1l1,-1v-1h1h-1l2,-2v-1h1v-1l2,-2v-1l1,-1l-1,1l1,-1v-1h1v-1h1l-1,1h1v-1l1,-1v-1l1,-1v-1h1v-1h1v-1l-1,1v-1l-1,1v1h-1v-1l1,-1h-1l1,-1h1l1,-1v-1l1,-1h1v-1l4,-4v-1h-1v1l1,-1v-1l1,-1l-2,2h-1v1h-1v1h-1l-4,4v1h-1l-2,2v-1h1l2,-2v-1h1h-1h1v-1l7,-7v-1h1v-1l1,-1l-1,1h-1v1l-5,5l-2,1v1l-3,3v1l-2,1v1h-1v1v-1l-1,1l-1,2l-1,1h-1l-1,2l-1,1h1l-1,1v1h-1v1l-2,2v1v-1l1,-1l2,-1v-1l2,-2v1h1h-1h1l-2,2v1h-1v1h-1h1v-1v1l-2,1v1h-1l-3,3v1h-1v1v-1v1h-1v1l-2,2v1h-1v1l-1,1h-1l-2,4h-1h1l-1,1v2h-1l-1,2l-1,1v1l-2,2v2l-2,2v2h-1v2h-1v2h-1v-1l-1,1h-1v1l1,-1v-1h1l-1,1v2h-1v2l-1,1v1h-1v1h-1v1l-1,2h-1v1h-1l-1,1v1v-1h1l-1,1h1l1,-2v1l-1,1h1l-1,1l-1,2h-1v1l1,-1v-1v1l-2,3v-1v1l-1,1h1h-1v1l-1,1v1l-1,1v1l-1,1h-1v1l-1,1v1h-1v2h-1v1l-1,1v1l-2,2l-1,2v1h-1v1v-1l1,-1v1h-1v1l-1,1v2h-1v1l-1,1v1v-1v1h-1v1l-1,1v2h-1v2h-1v1h-1v2h-1v2h-1v1l-1,1v1l-1,2h-1v2h-1v2h-1l1,-1l-1,1v1v-1l-1,2v1h-1v1l-1,2v1h-1v1l-1,1v1h-1v1l1,-1h-1v2h-1l1,-1v-1l1,-1v-1v1h-1v2h-1v3h-1v2h-1v1l1,-1h-1v2h-1h1l-1,1v1v-1v1l-1,1v1v-1l1,-1v-1l1,-1v-2l1,-1v-1l1,-1v-1l1,-1v-2l1,-1v-1l1,-1v-1l1,-1v-2l1,-1v-1l1,-1v-1l1,-1v-1l1,-1v-1l1,-1v-2l2,-2v-2l2,-2v-2l1,-1v-1l2,-2v-2l2,-2v-1l1,-1v-1l1,-1v-1l1,-1v-1l2,-2v-1l1,-1v-1l2,-2v-2l2,-2v-1l1,-1v-1l2,-2v-1l2,-2v-2l2,-2v-1l2,-2v-1l1,-1v-1l3,-3v-1l2,-2v-1l2,-2v-1l1,-1v-1l1,-1v-1l3,-3v-1l2,-2v-1l3,-3v-1l2,-2v-1l2,-2h1v-1l3,-3v-1l2,-2v-1l3,-3v-1l4,-4v-1l6,-6v-1l4,-4v-1l2,-2h1l1,-1v-1l4,-4v-1l1,-1h1l2,-2v-1l10,-10v-1h1l10,-10h1v-1l4,-4h1l2,-2v-1l1,-1h1l4,-4h1l2,-2v-1l1,-1h1l4,-4h1l3,-3h1v-1l2,-2h1l3,-3h1l3,-3h1l3,-3h1l3,-3h1l2,-2h1l3,-3h1l2,-2h1l3,-3h1l2,-2h1l3,-3h1l2,-2h1l2,-2h1l1,-1h1l3,-3h1l2,-2h2l2,-2h1l2,-2h1l1,-1h1l2,-2h2l2,-2h1l1,-1h1l2,-2h1l1,-1h1l1,-1h1l1,-1h1l2,-2h2l2,-2h2l2,-2h2l1,-1h1l2,-2h2l1,-1h1l2,-2h2l1,-1h1l1,-1h2l2,-2h1l1,-1h2l1,-1h1l1,-1h2l1,-1h1l1,-1h2l1,-1h1l1,-1h1l1,-1h2l1,-1h2l1,-1h1l1,-1h2l1,-1h1l1,-1h2l1,-1h2l1,-1h2l1,-1h2l1,-1h2l1,-1h2l1,-1h2Z"/>
<path class="sp" d="M353,22h1l1,-1h3M36,315v-2l1,-1v-1l1,-1v-2l1,-1v-1l1,-1v-1l1,-1v-2l1,-1v-1l1,-1v-1l1,-1v-2l1,-1v-1l1,-1v-1l1,-1v-1l1,-1v-1l1,-1v-2l2,-2v-2l2,-2v-2l1,-1v-1l2,-2v-2l2,-2v-1l1,-1v-1l1,-1v-1l1,-1v-1l2,-2v-1l1,-1v-1l2,-2v-2l2,-2v-1l1,-1v-1l2,-2v-1l2,-2v-2l2,-2v-1l2,-2v-1l1,-1v-1l3,-3v-1l2,-2v-1l2,-2v-1l1,-1v-1l1,-1v-1l3,-3v-1l2,-2v-1l3,-3v-1l2,-2v-1l2,-2h1v-1l3,-3v-1l2,-2v-1l3,-3v-1l4,-4v-1l6,-6v-1l4,-4v-1l2,-2h1l1,-1v-1l4,-4v-1l1,-1h1l2,-2v-1l10,-10v-1h1l10,-10h1v-1l4,-4h1l2,-2v-1l1,-1h1l4,-4h1l2,-2v-1l1,-1h1l4,-4h1l3,-3h1v-1l2,-2h1l3,-3h1l3,-3h1l3,-3h1l3,-3h1l2,-2h1l3,-3h1l2,-2h1l3,-3h1l2,-2h1l3,-3h1l2,-2h1l2,-2h1l1,-1h1l3,-3h1l2,-2h2l2,-2h1l2,-2h1l1,-1h1l2,-2h2l2,-2h1l1,-1h1l2,-2h1l1,-1h1l1,-1h1l1,-1h1l2,-2h2l2,-2h2l2,-2h2l1,-1h1l2,-2h2l1,-1h1l2,-2h2l1,-1h1l1,-1h2l2,-2h1l1,-1h2l1,-1h1l1,-1h2l1,-1h1l1,-1h2l1,-1h1l1,-1h1l1,-1h2l1,-1h2l1,-1h1l1,-1h2l1,-1h1l1,-1h2l1,-1h2l1,-1h2l1,-1h2l1,-1h2l1,-1h2l1,-1h2"/>
<path class="sl" d="M246,572l1,2h1v-2h1v2l1,2v2h-3v-1h-1v-2l-1,-3l-1,-1l1,-1v1ZM252,582h1v1h2v1h1v1h-2v1h-1v-1l-1,-2v-1l-1,1v-3l1,1ZM261,587v1l-1,-1l-1,1v-1h-1v-1h1l1,1ZM259,584h-2v-1h-1h1v-1l1,-1v1l1,1ZM262,594l1,1v1h-2v-1h-1l1,-1ZM255,576v1h-1v-2h2ZM258,581v-1l-1,-2v-1l1,3ZM257,575v1v-1l-1,-3l1,2ZM251,579h-1v-1h1ZM252,566l-1,1h-1v-2h2ZM250,563v-2l1,1v1ZM276,616h-1v-1ZM272,610v1h-1l-1,-1v-1h1v1ZM270,605v1h-1l-2,-1v-2h1l1,1ZM211,400v-1ZM72,385l-1,1v-1ZM139,391h-1ZM180,390h-1v-1h1ZM260,391l1,-1v-1v1ZM255,379h-1ZM276,380h1ZM272,379l1,1l1,-1v1h-1ZM118,322v-1ZM112,340h-1ZM122,308v-1h1ZM116,331v1v-1l1,-1v1ZM115,333v-1ZM108,348l-1,-1l1,-1ZM423,559l-1,-1h2ZM633,54h-1v-1l1,1h1ZM634,55h-2l1,-1v1ZM621,47h-1ZM570,38h-1l1,-1ZM574,39h-1ZM558,38h-1h2ZM541,37v-1ZM506,54v1l-1,-1ZM511,56v-1ZM476,61v-1h1ZM423,70h-1ZM484,20v-1h1ZM462,27h3v-1h1l1,1h5v1h-6v-1h-4v1h-1v-1h-1h1v-1ZM480,36h2v2h-6v-1h1v-1h2ZM540,45h2v1h2l-1,1h-1l-1,-1h-1v1h1h-2l-1,1h-1h1l-1,1h-1l1,-1h-2v1l-1,-1h-1v-1h-1v-1h4v1h1h-1v-1h1h-1v-1h1v1h1v-1h1h-1h1ZM490,56h1v1h1h-5l-1,1h-3v-1h1l1,-1h2l2,-1h1ZM634,58v1h-1v-1h-1h1ZM644,61h1h-2v-1h-1h1ZM637,56l1,1h-2v-1h-2v-1h1v-1v1h1ZM644,59l1,1h-2v-1h-1v1l-1,-1v-1l-1,-1h2l1,1h1ZM629,52h1v1h1l1,1h-1l-1,-1h-1h1l1,1h-2l-1,-1h-1v-1h-1h1ZM638,61h2v1h-1l-1,-1h-1v-1h-1l-1,-1h-1h2v1h1ZM565,37h1h-1l-1,1v-1h-1h1ZM560,39v-1h1v-1h2l-1,1h-1v1ZM559,37v1ZM557,36v-1ZM540,48h1ZM541,43v-1h1v1ZM539,45h-1ZM529,53v-1ZM533,50h1ZM535,50h1ZM504,54h1v1h-1ZM496,56h1ZM495,58h-1ZM508,55l-1,1v-1h2ZM478,59v1h-1v-1h2ZM480,59h-1ZM503,42h-1h1l1,-1ZM452,36l1,1h-1l-1,-1ZM460,48h-2l2,-1ZM457,65h-1ZM452,66h-1ZM442,68h-1h1v-1h1ZM461,50h1ZM421,70v1ZM423,70l-1,-1h1ZM417,71h-1l1,-1h1h-1ZM398,73h-2l-1,-1h1l1,1ZM372,70h-1h2ZM621,50v1h1l1,1h1v1h1v1l1,1h-1v-1h-2v-1h-1v-1h-1v-1h-3l-1,-1h3ZM619,47l1,1h2l1,1h1l1,1h-1l-2,-2h-1h1v1h1l1,1h1v1h-1v1h-1v-2h-1l-2,-2h-1v-1h-1ZM615,47h1v1v-1h1l1,1h1v1h1v1h1h-2l-1,-1h-1l1,1h-2v-1h-1l-2,-1h-1v-1h2ZM630,55h3v1h2l1,1h1v1h2v1l-1,-1h-1v1h3v1h1l1,1v1l-1,-1h-2v-1h-2l-1,-1h-1h1l-1,-1h-2v-1h-1h1v-1h-2v-1ZM627,53h1v1h1v2h-1v-1l-1,-1h1h-2v-1h-1v-1h1v1Z"/>
<path class="sl" d="M542,43h1v1h1h-3v1h-1l-2,-1h2v-1h1ZM467,63h-3v1h-2l-1,1h-1h1l1,-1v-1h2l1,-1h2ZM474,60h2l-1,1h-1h1h-1l-1,1h-3v1h-2v-1h3v-1h1h-1v-1h2ZM436,69h1h-2l1,-1ZM430,69h-1h1l2,-1h1h-1h1v-1l1,1h-1v1h-1ZM420,70h1v1h-3l1,-1ZM413,71v1l-1,-1h1h-1v-1h1l1,1ZM401,71h-1l1,-1ZM389,71v1v-1h1l1,-1v1h-1ZM370,68h2l-1,1h-2v-1h-1h1ZM549,275v1l-2,-1v-2l-1,-2l-1,-1l2,-2l-1,-2h3l3,2l1,1v1h1v1h1l1,1h-1l-1,1l-3,1l-1,1ZM535,258h3v1h1l-1,1l-1,-1h-2ZM541,260l1,1v-1h1l1,1h1v2h-3v-1l-1,-1v1l-1,-1v-1ZM531,256v1h1v1h-2v-1h-2l-1,-1v-1h2v-1l1,2ZM518,253h-2l-1,-1h-1l2,-2h2v2ZM511,253v1v-1l1,-1v1ZM538,262h-1v-1l1,-1v1h1ZM940,268v1v-2ZM940,268v-1l-1,-1v1ZM947,280l1,1l-1,-1v-1ZM908,236v-1h-1h1ZM899,243v-1ZM899,241v-1ZM900,247l-1,-2v-2l1,2ZM901,235h-1l1,-1h-1h1ZM905,256l-4,-8h-1l4,6ZM781,187h-1v-1ZM788,190h-1l-1,-1l1,1ZM775,182h-1v-1h1ZM775,181h2v1h-1v-1ZM786,186v1h-1v-1h-1h1ZM707,93v1l-1,-1l1,1l-1,-1ZM706,94h1h-2v-1h1ZM710,96l1,1v-1l1,1h-2v-1h-1v-1v1ZM948,283l-1,-1ZM948,282v-1ZM922,235l1,2v-1ZM948,283l-1,-1ZM939,264l1,1l-3,-6v1l1,1ZM915,237h-1ZM913,234v-1ZM912,234v-1ZM914,236v1v-1l-1,-1h1ZM923,241v1ZM712,101v-1ZM714,100h-1ZM713,99h-1v-1v1ZM708,95l-1,-1h1ZM750,654v-1ZM965,325v1ZM966,324v-1ZM390,618h1v1h-1l-1,-1v-1v1ZM398,596v1v-1h-1h2ZM392,619l1,1h-1ZM27,550v1ZM28,563l-1,-1v-3h-1v-1l1,-1v-2l1,-2h1l2,-2h1v2l-1,1v1h-1v2l-1,1v1l-1,2v1ZM25,563v-1l1,-1v2ZM50,296l-1,1v1l-1,1v1l-1,1v1v-2l1,-1v-2l1,-1v-2l1,-1v-2h1v-1l1,-1v-1l4,-8l1,-1v-1l2,-2v-1h1v1l-1,1v1h-1v2l-2,2v1l-1,1v2l-1,1l-2,4v1l-1,1l-1,2ZM52,284v1ZM115,198l-1,1v-1h1v-1h1ZM113,199v-1h1h-1h1ZM107,203v1v-1l1,-1v1ZM124,180l-1,1ZM118,189h-1l1,-1ZM109,201h-1h1v-1ZM133,178h1ZM102,211v-1h1l1,-1h1h-1v1l-1,1ZM191,521l-1,1v-1h-1h1v-1v1ZM244,544h-1v-1h1ZM238,537h-2v1h-1v-1l1,-1h2l-1,1ZM200,549l-1,1l-2,-2h-2v-1h1l3,2ZM204,530v1v-1l-1,1v-3ZM188,527h-1v-1h1ZM194,525h1v1h1v1h-1v-1h-1ZM178,521l1,2h-1v1v-1h-1v-1h-1v-1h-1v1h-1v-1l1,-1v-1l1,-1v2h1ZM181,525v-1ZM180,524v1h-1v-2h1ZM175,525l-1,-1v-1h1v-1v2ZM170,519v-1l-1,-1v-1h1v1h1l-1,1ZM170,521l-1,-1v-1h1v1ZM174,520h-1l-1,-1v-1h2v1Z"/>
<path class="sl" d="M164,512h-1v-1ZM177,525h-1ZM192,528l1,1h3l1,1h1v1h1v2h-2l-1,-1l-2,1h-1l-2,-2v-3ZM192,522l-2,-2h-2v-1h-1l-1,-1h-1v-1h-1l-2,-2v-1h1l3,3h2v1l3,2v1h1ZM175,513v1h-1v-1h-2l-1,-1l-1,-2l-2,-1v-2l2,2h2v1l1,1v1l1,1ZM198,519l2,2l-1,1v1h1v1h1v2h1v1l1,2v1l-5,-5l-1,-3l1,-1l-1,-1v-1ZM206,536l1,1h2l1,2l1,1h-3l-1,-1l-2,-1v-1l-1,-1h-1v-1h1ZM409,551l2,2l-1,1h-2l-2,-2h-1h1l2,-1ZM417,556h-4l-1,-1v-1h1l2,1h2ZM215,128h-1ZM212,130l1,-1v1ZM249,75l-1,1h-1h1ZM309,52h1v-1v1ZM395,11h2l1,-1h1l-1,1h-1h1v-1v1h-4l-1,1h-4v1h-1l1,-1h4l1,-1Z"/>
<path class="sp" d="M397,11l1,-1h2M386,13h2l1,-1h4l1,-1h1"/>
<path class="sl" d="M401,10h4v-1l-1,1h-4l-1,1v-1v1v-1h3ZM445,11h1l1,-1h3l-1,1h-3ZM260,75l-1,1h-1v1h-1v1l-2,1v1h-1v1h-1l-1,2h-2v1h-1l-4,4v1h-1l-4,4v1l-4,4v1h-1v2l-1,1v-2l1,-1h-2l-1,1h-1l-2,2l-4,3l-2,1l-1,1v1h-1v2h-1v2h-1v1v-1h1v1l-1,1h-1v1l-1,1h-1v1l1,-1v-1l1,-1h-1v-1h-1v1h-1l-4,4h-1h1v-1l1,-2l2,-1l2,-2h1v-1l2,-2h1v-1l1,-1h1l1,-2l4,-4l2,-1v-1h1l6,-6h1l1,-1v-1l2,-1l1,-1v-1h1v-1l2,-1l2,-2l2,-1l3,-3h2l1,-1h1v-1h1h-1h1l1,-1v-1h2v-1ZM453,10h1l-1,1h-4v-1h3ZM353,63l-1,-1h1ZM400,15h-1v-1h1ZM392,18h1v-1h1l-1,1ZM414,8h1ZM413,8h-1h2ZM362,20h-1h1v-1ZM384,14h-1h2v-1h1h-1ZM385,14h-3l-1,1h-1h1l1,-1h2ZM251,75l-1,1h-1l-1,1v-1h-1v1l2,-2h1l1,-1ZM415,15h-1v-1l2,1ZM351,48l-1,1l1,-1h2v-1h1l2,-1h1v1h-2l-2,1ZM348,62v1v-1h-1v-1l-1,-1h3l-1,1ZM275,93h-1l1,-1l2,-1l-1,1h-1ZM288,85h-1h1l1,-1v1ZM284,87l-1,1h-2v1h-1l2,-2h2v-1l2,-1h1l-1,1h-1ZM270,96h-1l1,-1h1ZM285,85v-1h1v1ZM261,101v1h-1ZM252,107h-1h1l2,-2h1ZM237,115h-1l2,-1l1,-1h1l2,-2h1l-2,1v1h-1l-1,1ZM231,117l-1,1l-2,1l-1,1h-2v1l-2,1h-1v1h-1v-1h1l1,-1h1l2,-2h1v-1h1l1,-1v1h1l2,-2h1v1h-1ZM216,127v1v-1h1ZM218,123v1l1,-1v1h-1l-1,1l-2,1l-3,3v-2h2v-1h1v-1h1ZM38,328v2l1,-1v-1h1h-1v2l-1,1l-1,3v4h-1h1l-1,1v2l-2,3v1l-1,2v1l-1,1v1l-1,1v2l-1,1v3l-1,2v2l-1,2v2h1v-2l1,-1h1v2h-1v2l1,-1v-1h1v1l-1,1v4h-1h1v3l-1,2v-3l-1,-1l1,-1v-2l-1,-1v-1v3l-1,1v1v-5l-1,1v1h-1v1v-2l-1,1l1,-2v-2h1v-2l1,-1v-2l-1,1v3h-1l1,-1v-5l1,-1v-1l1,-3v-3l1,-1v1l-1,1h1v-2l1,-1v-2l1,-1v-2l1,-1v-3l1,-1l1,-5l1,-1v-1l1,-1v-1ZM11,417v1v-2l1,-1v-3l1,-1v-2l1,-1v-2l2,-4v-1l1,-2v-2l1,-1v-3l1,-3v2h-1v6h-1v2l-1,1v1l-1,1v1l-1,3v3h-1v3l-1,1v2ZM25,384v1v-1h1v1h-1l1,-1v2l-1,1v2l-1,1v1l-1,1v1h-1v1v-2l1,-1v-2l1,-2v-4h1ZM22,405v-7h1v-2l1,-1v-4h1v-2h1v2l-1,1v2l-1,2v2l-1,2v5ZM29,384l1,-1v4l-1,1v4l-1,1v1v-2l1,-2v-3l-1,1v-2l1,-2v-1ZM33,374v3l-1,1v5l-1,1h1v1h-2v-3l1,-1v-2l-1,-1v-2l1,-2h1l1,-1ZM25,371v-1v1l1,-1v3l-1,1v3l-1,1v2l-1,1v-3h1v-7ZM30,400v4l-1,1v12l-1,2v1h-1v1v-4l-1,1v2l-1,1v9l-1,2v-3l-1,1h-1v-10h1v-4h-1v-1v1l-1,1v1v-1l-1,1v1v-2l-1,1v3l-1,1v3l-1,-1v-1l1,-1v-1l1,-3v-3h1v-1l1,-1v-2l1,-1v-1l1,-1v4l1,-1v-3h1l1,-2v-2h1v1v-2h1v-2l1,-4l1,1v1Z"/>
<path class="sl" d="M23,402v-1h1v-4l1,-1v-2l1,-1v-3l1,-2v-2l1,-1v1l-1,1v4l-1,2v2h-1v2l-1,3ZM40,325v-1ZM41,321l-1,1v-1ZM44,313v-1h1ZM45,310v-1ZM15,433v1l-1,1v-1ZM10,422v1v-2l1,-1ZM18,397v-1ZM21,382h1v1h-1v1v-3ZM20,386v1v-1l1,-2v2ZM23,394v-1l1,-1v-1v1l-1,1ZM27,397v1h-1v1h-1v-2l1,-1v-1l1,-1v1ZM13,441l-1,1v-1v1v-1l1,-1ZM17,429v-3l1,1l-1,1ZM30,396v-1l1,-2v3ZM30,395v-1h-1l1,-1v1ZM25,369h-1l1,-1ZM27,369h1l-1,1v1v-1ZM25,378v1v-1l1,-1v-1v1ZM26,378v1v-2h1v1ZM29,373v1v-2h-1l1,-1ZM29,376v1v-2ZM29,377v4l-1,-1v-2l-1,2v-1l1,-2v-1h1ZM33,365v1h-1v-1l1,-1v-1v1ZM29,364v1v-2ZM31,356v1h-1v1v-2ZM27,391l1,-1ZM29,395v-1ZM20,419v1v-1v1ZM26,420v-1ZM29,383v-2h1v1ZM26,403v-1ZM39,324v-1ZM20,388v1h-1h1ZM27,386v1ZM26,377v-1ZM30,397v1v-2ZM30,382v-1ZM11,419v-1ZM24,403v1h-1v-1ZM145,494l-1,1v-1l-1,-1v-4l-1,-1l-1,-3h-1v-1h-2v-1h-1l-1,-2h-1l-2,-2h-2v-2l2,2h1l1,1h1v1h1l2,1v1l1,1h1l4,4l1,2v1l-1,1v1ZM138,491h1v-1l1,1h1v5l-1,1h-1v1l1,1v2l-1,1h-2l-1,1v2l-1,1h-1v1h-1l-1,1v1h-1l-2,1h-3l-1,-1h-2l-2,-1v-1h-2l-1,-1v-1l1,-1h7l1,-1v-3l1,-1v3l1,1h1l1,-1v1h1v-1h1v-1l1,-1v-1l1,-2h2v-3l-1,-2v-2h2ZM84,543v-2l-1,-2v-5l-1,-2v-8l-1,-1v-10l-1,-2v-12l-1,-2v-11h1l2,2h1v1l1,-1v1h1l2,1l1,1h4l2,2v1h3v1h1l2,2v1h1l3,3v5l1,1h3l3,2l1,1h1v-1l2,2v1h1v4h-4v2l1,2v2l2,2h1l1,2h1l1,1v1l1,1v2l1,1l1,2l1,1h1l1,-1h1v1l1,1l-1,1v1h1l1,1h3v1l-1,1l1,1v1h4l1,1l1,-1l-1,1v1l-1,-1l-1,1h1l1,1l-2,2l-1,-1h-1v-1h-1v-1h-12v-1h-1l-1,-1v-1l-3,-3v-2h-2v-1l-2,-4l-1,-1v-1h-1v-1h-1l-1,-1h-4v-1h-1v-1h-2v1l-1,1h-2v-1l-1,-1l1,1l1,3h-1l1,1h-2v1h1l-1,1h-1l-1,1h-4v-1v1l1,1h1l1,-1l2,2v1h1v2l-1,1v1l-2,2h-1v-1h-1l-1,1h-4v1ZM117,508h-1v-1l-1,-1v-1l2,1v1ZM105,500h-1v-1h1v-1v1ZM142,480v1ZM139,479v1l-1,-1v-1ZM125,469h-2v-1h1ZM138,541l1,-1v3l-2,-1v-1l-1,-1v-1v1ZM133,537v1l-1,-1v-2h1v1ZM137,530v1l-1,-1v-3l1,1v1ZM159,550v1h-2v-1l1,1l-1,-1h1ZM96,535h-1v-1h-1h2ZM112,505h-1v-2h1ZM110,475h2v1h-1l-1,1h-3v1v-2l1,-1h1ZM129,478h-2v-1h-1l1,-1h2v1ZM134,536l1,1v-1h1v2l-1,1v-1l-1,1v-1l-1,-1v-1ZM146,531h2v2h-1v-1h-1l-1,-1ZM154,552h1l1,1h-3v-1h-1v-1h1ZM96,536h-1l-1,-1h1ZM114,477v1l-1,-1ZM138,478v-1ZM137,546v1ZM149,488h-1l1,-1Z"/>
<path class="sl" d="M165,508v1h-1v1h-3v-1h-1v-3l-1,-1h-1v-1h-1v-1l-1,-1v-3h2l1,1v2h1v1l1,1h1v1h1l1,1v1ZM156,499h-1v-4h1v3ZM991,420v1v-2h-1h1ZM988,425v-1ZM985,407v-1ZM991,420v1ZM40,448h-1ZM55,407v-2l1,-1l-1,1v1ZM130,170l1,-1ZM339,781h1l1,-1h1v-1h1v-1h1v1h-1h1l-1,1h1l-1,1h1v-2h2v1h-1v1l1,-1h1l-1,1h-1v1l1,1v1h1v2l-1,1v1l-1,2v2l-1,1v1h-1l-1,1v2h-1h2v1h2l1,1v1h-2v-1l-1,1h-1l1,-1h-1v1h-1l-1,-1h-1l1,1h1h-1v1h-1v1h-2v1h-1h1v2l1,2v1h-1h1v1l-1,1l1,1v1l-1,1h1v1l-1,1h-1v1l-1,2v1l-2,1h-5l-1,-1h-3l-2,-2v1h-4v-1h-1v-1l-1,1v-1l1,-1h1h-1v-1h-1v-1h1l-1,-1h1l1,1l-1,-1h1h-1v-1h-1v-1h1v-2l1,1l-1,-1h1v-1h1v-2l1,-1v-1l1,-1h1l1,-1h1h-1l2,-2h2l-1,-1h1h-1l1,-1v-1h2l-1,-1h1v-1h1v1v-2l1,-1v1v-2l1,-1h-1v-5h1l1,-1v-6l2,-2h1h-1v1h1v1h2v2ZM343,778h-1v-1h1ZM316,814l1,1h-2v-1ZM316,811l1,1h-1ZM328,822h-1l1,1h1l-1,1h-1l-1,1v-3h-1v-1h1ZM343,743v1v-1h-1v-1ZM326,734l1,-1v1h2v1v-1h1v1h2v1h2v1h1v2l1,1h-1l1,1v1h1l2,2h-1l1,1v3h2l2,1l1,1h1v-1l-1,-1v-2h-1v-1l2,2h1v1h1l1,2v2l1,1h1h-1h1v1h1l2,1h1l3,1h1l2,-2v-1h1v-1h3l1,1v7l-1,1v3h-4l-2,2l1,1v1h1v2l-1,2v2l-1,1v1h-1v3l-1,1v1h-1l-1,1v1h-1l-1,-1v-1h-1l-1,1v-2h-1l1,1h-2v-1h1v-1l1,-2v-4h-1v-1l-1,-1l-2,-1h-2l-1,-1l-2,-1h-1l-2,-2l2,-2h2v-1l1,-1l-1,-1v-7l-2,-2v-1l-1,-1l1,1v-1h1l-1,-1h-2l-1,-1v-1l-2,-2l2,1v-1h-1v-2h-1v1l-2,-1v-1l-1,-1v1l2,2v1v-1h-1v-1l-5,-5l1,-1h-1v1h-1v-1h-1v-1h-1l1,-1h-1v-1l-1,-1l-2,-1l-1,-2h2v1l2,2v1ZM351,857l1,1h-1ZM331,848h1h-2v-2h1v1ZM409,796h-1v1v-1h-1v1h1v1h-1v-2h-1ZM410,800l-1,-1h1ZM406,509v-1ZM418,515h-1ZM432,599v1l-1,-1v-1h1ZM952,311v1v-2l-1,-1h1v1ZM881,282h-1v-1h1ZM866,300v1l-1,-1l1,-1ZM852,252l1,1h-1v-1h-1ZM827,220v1l-4,-4v-1l3,3ZM819,226h-1l1,-1l-1,-1h1v1ZM832,221v2l-1,-1l-1,-2h1v1ZM800,217v1l-1,-2h1ZM950,304v1ZM945,319v1l-1,-1ZM858,259l-1,-1ZM810,201v-1ZM847,244v1l-1,-1l1,1h-1v-1ZM848,256l-2,-1h1ZM846,254v1l-1,-1v-1l-1,-1v-1l-1,-2h1v3h1v2ZM8,453h-1v-1v1h-1v1l-1,1v10l-1,1v7h-1v8h-1v1v-1l-1,1v6l-1,2v-7h1v1v-13l1,-1v-3l1,-1v-7l1,-2v-1v1v-1l1,-1v-5l1,-1v-5l1,-1v-5l2,-8v1v-1h1l-1,1v2h1v1l-1,1v2h1v1l-1,1v1l1,-1v-1v2l1,1v3h-1v1h-1v7h-1ZM10,428l-1,1l1,-1v-1ZM1,476v-1ZM8,453v-1Z"/>
<path class="sl" d="M285,412v1ZM284,413h1ZM286,423v1l-1,-1ZM286,424l-1,1ZM286,431l-1,1l1,-1h-1v-1ZM297,446v-2h-1h1v1ZM299,449v-1ZM286,428h-1h1v-1h1v1ZM259,449h-1ZM416,473v-1ZM557,469v-1h1h-1ZM583,533v1ZM537,417l1,1h-2l-1,-1v-1v1h1v-1h1l-1,-1v1h1ZM519,399l1,1h-1h1l-1,-1v1ZM412,458h1v1h-1v-1h1v1v-1ZM134,184v1v-1h1ZM158,170h-1h1v-1l1,-1h1l-1,1ZM130,196v1h-1v-1h1l1,-1ZM100,228v1v-1l1,-1v1ZM102,227h-1h1v-1l1,-1v-1h1l-2,2ZM107,215v-1l1,-1v1ZM113,202v1v-1l1,-1ZM115,201h-1l1,-2h1v-1v1l-1,1ZM106,212v1h-1v1v-1ZM109,213h-1l1,-1ZM204,122v1v-2l1,1ZM204,123h-1ZM182,142h1v-1ZM129,195v1v-1h1ZM148,189v1h-1v-1ZM107,211v1v-1l1,-2v2ZM110,208l-1,1l1,-1v-1ZM113,204l-1,1ZM122,199v1ZM121,201h-1ZM103,219h1v-1v1ZM128,245v-1h1ZM207,127h1l1,1h1l2,-2l2,-1l-2,1l-1,2h-1v2l-1,1h1l1,-1l-1,1h-1l-1,1h-1v1h-3l-1,1h-1l-2,1l-5,5h-1l-1,-1v-1h-2l-3,2v-1h1v-1h-1v1h-1l-1,1v1h1l-1,1v1h-2l-1,1v1h-1l-1,1v-1l3,-3v-1l4,-4h1l2,-2v-1h1v1l1,-1h2v-1l2,-2l2,-1v-1l6,-6v-1h1v-1h2l-1,1v4ZM116,204h1v-1v1l-1,1v3h-1v1l-3,3v1h-1l-1,1v1l-1,1v1h-1l-1,3l-1,-1v2l-2,1l-1,1h1v-1l1,-1v-1l1,-1v-1h1h-1l-1,1v1l-1,1v1l-1,-1h1v-1l1,-1v-1l2,-2v-1h1v-1l2,-2v-1l1,-1v-1l-1,1v1h-1l-1,1v1v-2h1v-1v1v-1h1v-2l1,-1h1v-1h1v-1h1v-1h1v-1l1,-1h1l-1,1ZM128,197h1l-1,1v1l-4,4h-1l-2,1l-2,2v1l-2,2v-2l1,-1v-1l1,-1h-1l-1,1h1l3,-3v-1h1v-1h1v-1v1h1l4,-4ZM185,145h1l-4,4v1l-1,1v2h-1v2h-1l-1,2l-2,2h-1v1h-1v1h-1v1l-1,1v1h-2l-3,3v1l-1,2l-3,3v1h-1l-2,2v1h-1v1h-1v3h-1l-3,3v1h-1v1h-1l-2,2v-1h1v-1l3,-3h-1v1h-1l-1,1v1h-1v-1v1h-1v1h-1v1l-2,2h-1v1v-1l2,-2v-1l-2,2h-1v1l-1,1h-2l-1,1h-1l1,-1h-1v1v-2h1v-1v1h-1l-2,2v2l-2,1l-1,1l-2,3l-2,1l-1,1v-2l1,-1v-1l3,-3v-1l-1,1v-1h-1l-2,2h-1v1h-2v1h-1v1v-1l-2,1h-1v1l-2,2v1v-1h-2v1v-1l-1,1l1,-2l1,-1h1v-1h1v-1h1v-1h1l1,-1v-1h1v-1l1,-1l2,-1l1,-1h1l1,-1h2l2,-2h1l2,-1v1h-1h2v-1h1l1,-1v-1l7,-7l1,-2l2,-1v-1h1l1,-1v1h-1l-3,3v1l4,-2l1,-1h1l1,-2h1l1,-1v-1h1l1,-1l2,-1v-1h1l1,-1v-1l1,-1h1v-1l1,-1h1l1,-2l1,-1h1v-1l2,-2v-1h-1h1l3,-3v-1l1,-1h1v-1h1v-1h1v-1h1l-1,2h1v-1h2v-1l1,-1h-1l-1,1l2,-2ZM62,278v1h-1h1v-1l1,-1ZM61,280h-1h1v-1ZM66,275h-1l1,-1ZM80,257l-2,2v1h-1v2h-1v-1h1v-1l1,-1v-1h1v-1v1v-1l1,-1Z"/>
<path class="sl" d="M86,249h-1l1,-1v-1v1ZM89,245h-1v-1h1v-1h1v-1h1h-1v1l-1,1ZM88,245v1ZM142,200h1ZM972,337v1l1,1v1l1,2v1v-1v1v-1h-1v-2l-1,-1v-1l-1,-1v-1ZM11,565v3h-1v-6l1,1ZM9,562v4l-1,-1v-3ZM18,522v6h1v1l-1,1v2h-1v-2l1,-1v-2h-1v-5l1,-1ZM17,529v-2l-1,-1v-1l1,-1v-1v5ZM1,524v1v-2Z"/>
<path class="sp" d="M1,528v-5"/>
<path class="sl" d="M54,475h1l1,1v-1l1,1v1l1,1v1h-2v-3l-1,1v-1h-1ZM55,483h5l1,1h-1l-1,1h-2l-1,-1h-1ZM38,474v1h1v2h-1v-1l-1,-1v1l1,1v1h-1v-1v1v-1h-1v-1l1,-1ZM31,459l-1,1v-4l1,-1v-1v4ZM30,492h-2v1l-1,-1v-1l1,-1v-1v1h1v1h1ZM24,501v-2h-1v-2h1v3ZM24,495l-2,2v-1h1ZM21,496v-1v1h1v1h-1v1v-1l-1,1v1l-1,-1v-2h1v-1ZM44,543h-1v-6h1v-1l1,2l-1,2v2ZM30,545v1l-1,1v1h-1l-1,1v-2l1,-1h1v-1ZM25,552v-1h1v2l-1,1h-1v-2ZM38,486v-1l-1,-1v-1l1,-1l1,1v1ZM21,558v1h-1v1l-1,1v1h-3v1v-1h-1v-3h1v-2h1v1v-1v1h1v1l1,-1v-1v1h1v-2h1v-2h-1l1,-1v4ZM17,567v2h1v1l1,1v4h-1v-2h-1v-2h-1v1v-1h-1v-3h1v-1ZM12,560l1,1v-1v1v-2h1v6h-1v-2v3l-1,1v1h-1v-6h1v2h1v-2h-1v-3ZM21,472l-1,2v3h-1v2l-1,1h-1l-1,-1l-1,1h-1v1h-1v-1v1l-1,1l-1,-1v3l-1,1v7l1,2v4h1v-1v1v-2l1,-1v-2h1v-2l1,-1h1v-2h1v4l-1,-1v2l-1,1v3l-1,1v3h-1v2h1v3l1,1v4h1l-1,1v3l1,1v2h1v1v-1v4h-1v4h-1v-1l-1,-1v-5l-1,-3v-7l-1,-1v2l-1,1v2l1,1v12l1,1v8h-1v1v-1l-1,-1v-12l-1,-2v-3l-1,1v-23l1,-2v1v-14l1,-1v-1v1v-1l1,-1v-3h1v1h2l1,1v-1h2l1,-2v-2h1v-3l1,-1v-1l1,2h-1v3ZM3,555v-1v1v-1v4h1v-1v1v-3h1v3l1,1v2l1,-1v-1v2l1,1v5l1,1h-1v-1v1v-1l-1,-1v2l-1,-1v1h-1v-2h-1h1v1h-1v-7l-1,-1v-5Z"/>
<path class="sp" d="M4,566v-6l-1,-1v-5"/>
<path class="sl" d="M0,481v9l1,-2v-6l1,-1v1v-1h1v-8h1v-7l1,-1v-10l1,-1v-1h1v-1v1h1v1h-1l1,1v3h-1v-1v17l1,2v2l1,1l-1,1v1h-1v-1v3l-1,3v15h-1v-1v26l-1,3v-6l-1,-1v-1v1v-1v1l-1,-2v2l-1,-1v2v-8h-1v-33ZM28,470v1l1,-1v-4l1,-1v-1l1,-1v5h-1v4h1v2l1,1l-2,-1l-1,-1v9l1,2v1v-1h-1v-3h-1v-11l-1,-2v-1l1,-2v-4l1,-2v-1v10l-1,1ZM35,500l1,1h1l1,1v2l1,1v3l-4,-4l-1,1v1h-1v-1l-1,-1v3h-1l-1,-2v3h-1v-2l1,-3v-1l1,-1h2v1v-1l1,-1ZM26,505l1,1v2h1v2h-1v1l-1,1l-1,-1v-1l-1,-1v-3l1,1v-1ZM26,558v1h1v3l1,1h-1v6l-1,1v2l-1,-1v-4l-1,-1v-1l1,-1v-1h1v-4ZM54,520v5h-1v-1h-1v-1h1v-2h-1v-1l1,-1v-1h1v1ZM54,526v2l-1,2v1v-1h-1v-3h1h-1v-3l1,1v1ZM72,538l-1,1h-1l-1,1h-1v-1l1,-3v-4h1v-1l1,-1h1l1,1v5l-1,1ZM79,486v11l1,2v12l1,2v10l1,1v8l1,2v5l1,2v2l-2,-2v-1l-4,-4v-1l1,-2l-1,1v1h-1v1h-2v-1v1h-1v1h-1v-3h1v-3h-1v-1h-1v-2h1h-1v-1l-1,-1l1,-1l-1,-1v-1l-1,-1v-1l-1,-2v-2h-1v-1h1h-2v-3h-1l-2,-2v-1v1h-1v-1v1l-1,-1h-1l-1,-1h-1l-1,-1h-3l-2,-1v-3l-1,1l-1,-1v1v-1h-1v-1h-1v-5h-1v7l-1,2l-1,1v-3l-1,-1l1,-1l-1,-1v-1l-1,-1v-1l-1,-1h-1v-1l1,-1h2v-1l1,-1v-1h1l1,1v-1v1v-2h1v-3l-2,2h-1l-1,1h-2l-1,-1v-4h-1l-2,-1v1h-1v-1l1,-1v-4l3,-3v-1l1,-1h3v1l1,1h1v-1h1v3l1,1v10l1,2v1v-2h1v4l1,-1v3l1,1h1v-1h1v-1l1,-2v-2l1,-2v-1l1,-1v-1h1l1,-1v-1l1,-1v-2l2,-2v-1h1l1,1l2,1h1v1h1l1,1h1l1,1h4v1h1v1ZM74,539h-2v-2h1l1,1ZM0,509v-1ZM6,555v2h-1v-3l1,-1v1ZM53,480h-1v-2h1v1ZM27,483h-1v-2h1v1ZM28,481v3h1v1h-2v-4ZM47,523v-2l1,-3v2l-1,2ZM47,523v1l-1,-1v-2h1v1ZM31,509l-1,1v-1v1v-2h1ZM27,444h-1l1,-1v-1v1ZM23,450v1v-2ZM43,546l-1,1l1,-1v-2h1l-1,1ZM39,544v1l-1,-1v-1h1ZM33,548h1v1h-1ZM36,490h1v1h-1l1,1h-1v1h-1l-1,-1l1,-1ZM16,531v1v-3ZM17,493v1v-1v1l-1,1v-2ZM14,488v1h-1v-1ZM14,540v1v-4l-1,-1l1,1ZM7,552v-1ZM6,524v2v-2l-1,-1v-4l1,1v3ZM25,577h-1v-1l1,-1v-1v2ZM24,554v1h-1v-1h1v-1ZM23,554v2l-1,1v-1v1v-3l1,-1ZM22,555l-1,1v-2h1ZM55,527h-1v-1ZM1,474v1Z"/>
<path class="sp" d="M1,475v-1"/>
<path class="sl" d="M0,513v1ZM7,555l-1,-1ZM4,545v1v-2ZM18,497h-1v-1h1ZM18,518v2l-1,-1v-1l1,-1ZM18,499v-1ZM17,499h-1h1v-1ZM15,563v-1ZM14,559v-1ZM10,567v1v-2ZM8,453v1ZM7,461v-1ZM21,534v-1ZM20,528v1h-1v-1ZM15,547v-1ZM12,562l-1,-1v-1h1ZM6,521v1v-2ZM27,471v1ZM51,489v-1ZM49,508v1l-1,-1v-1v1ZM38,481v1l-2,1l1,-1ZM37,479v-1ZM34,477h-1v-1ZM27,478v-1ZM27,473v-1ZM27,485v-1ZM32,507v1l-1,-1ZM31,508v1v-2ZM26,445v1v-2ZM27,446h-1ZM22,457v1v-2ZM45,535v1v-1h-1ZM35,539h-1v-1v1ZM31,544v-1ZM25,572v-1ZM22,576v-1ZM55,526v-1ZM55,529h-1v-1h1ZM29,503v1ZM29,507h-1v-1ZM21,557v-1h1h-1ZM964,344h-1l1,-1ZM965,344l-1,-1h1ZM974,342v-2l-1,-1v-1v1l1,1v1Z"/>
<path class="sp" d="M973,339l1,1v2"/>
<path class="sl" d="M377,551v-1h1ZM363,560h-2v-1h1v1ZM584,579v-1ZM597,587l-1,-1h1ZM584,581v-1h1ZM601,588h1v1h-1v-1l-1,1l-1,-1v-1l1,-1l1,1ZM689,522l1,1h-1l-1,1v-1ZM689,524l-1,1v-1ZM691,530v-1h1ZM681,515h-1v-1h1ZM681,519v1l-1,-1ZM669,592h-1h1v-1h1h-1ZM685,515v1v-1h1ZM669,597l-1,-1ZM668,595l-1,-1h1ZM702,600l-1,-1ZM698,598l-1,-1ZM683,619v-1ZM649,581h-1v-1h1ZM648,581l-1,-1h1ZM637,573v1v-1h-1ZM633,577v1v-1h-1v-1h1ZM236,619l1,1h2l3,3h2v1h1l1,1v1h1l1,1h1v1h1l1,1l2,1l2,2h1l1,1h1l1,2h-1v1h-1l-1,-1h-1v-1h-2l-2,-2h-1l-1,-1h-1l-1,-1h-1l-1,-1l-2,-1l-7,-7v-1h-1v-1ZM263,637v1h-1v-1ZM206,614v-1ZM264,627h1v2h-1v-1l-1,-1h1v-1ZM253,622v-1ZM260,625h-1l-1,-1h-1v-1l1,-1h-1v-1h1v2h1l1,1ZM348,577l-1,1v1h-1l-1,1v2l2,-2h1v2h-6l-1,1h-1l-1,1h-1v-1h-1v-2h1v1l1,-1v-1h1l1,-1h2l1,-1h1v-1h2ZM336,588l2,2v1l1,1v2h-2l-1,1h-1l-1,1l-1,-1h-4v-1l-1,-1v-1h1v-2l1,-1h1l1,-1h2l1,-1ZM349,583v1v-3h1v2ZM349,584h-1v-1l1,-1v1ZM339,601v1h-2v1h-2v-1h1l1,-1h1ZM358,592h-1v-1ZM360,594h-1ZM363,592v-1ZM357,586v-1h1v1ZM362,602v-1ZM352,600v1ZM327,586v-1h1v1ZM345,587l-1,1v-2h1ZM345,594l-1,-1v-1v1h1ZM340,591v-1ZM349,580h-1l1,-1ZM349,577h-1v-1h1ZM323,546h-1ZM313,626h-1ZM994,516v-1ZM996,481v-1ZM973,485v-2h1v2ZM976,487v1l-1,-1l1,-1v-1v1ZM970,481v-1ZM973,490v-1ZM971,477v2l1,2v5h-2v-2l1,-1v-2l-1,-1v-4ZM973,481h-1v-1ZM969,327v-1h-1v-1l-1,-2v-1l-1,-1v-2h-1v-1l-1,-1v-2h-1v-1l-1,-2v-1l-1,-1v-1l-1,-2l-2,-2v-1h-1v-1l-1,-1l1,1l-1,-1h-1v-3h-1v-1l-1,-1v3h-1l1,1v1h-1v-1h-1l1,-1l-1,-1v-3h-1l1,-2h1l3,3v1h1v1l1,1v1l1,1v1h1v1l2,4l1,1v1v-1h-1h1v2h1v1v-1h-1l1,1v1h1v2h1v3h1v2h1v2l1,1v2l1,1Z"/>
<path class="sp" d="M968,324v1l1,1v1"/>
<path class="sl" d="M961,308v-1h-1h1ZM960,305h-1v-1ZM958,302v1h1v1v-1h-1ZM960,307v-1ZM956,306v1v-1l-1,-1h1v1v-1l-1,-1v-1v1h1ZM957,301v-1l-1,-1ZM996,470v1v-2ZM52,284l-1,1v-1ZM85,228v-1l1,-1v1h-1ZM79,239v-1h1v-1v1ZM78,241v-1ZM79,239h1ZM57,275l1,-1v1ZM70,254v-1ZM41,302v1ZM36,313l1,-1v-1v1ZM36,313h1v-1ZM40,304h1h-1v1ZM39,306v1l1,-1ZM39,307v-1h1ZM852,689l-1,1v-1ZM642,64h2v1h1v1h-1h1v-1h-1h2v-1v2h1v1l1,1h-4v-1h1v1v-1h-2l-2,-2h-1v-1h1ZM649,68l1,1v1h-1h2l2,2h1v1h1h-1l-1,-1h-1l-1,-1l-2,-1h-1v-1h-2v-1h2ZM679,82l3,1h2l2,1h3l1,1v1h2l1,1v1h1l1,1h1l2,1h2v1h1l1,1l2,1l1,1h1h-1v1l-2,-1h-1l-2,-1h-2l-1,-1h-1v-2h-1h1v1h-3l-1,-1h-1h1v-1h-2v-1h-3l-1,-1h1h-1v-1h-2v-1h-3v-1h-3l-2,-2h2l1,1h-1v-1h-3l-1,-1h-1l1,-1h1l1,1ZM576,6h-1Z"/>
<path class="sp" d="M575,6h1"/>
<path class="sl" d="M582,7h1h-3v-1h-1l1,1h1Z"/>
<path class="sp" d="M582,7h1M579,6l1,1h2"/>
<path class="sl" d="M579,6l1,1h1h-1h1h-1h1h-5l-1,-1h-1h1h-1h4ZM597,9v1h4l1,1h1h-4v-1h-1h1h-4v-1h-7v-1l1,1h1v-1h-5v-1h-1h1v1h5l1,1h5v1h2l-2,-1h-4v-1h-1h1v1h4ZM609,14h1v-1h-1h2l1,1h3l1,1h-1h1v-1h-1h2v1h4v1h2l2,1h1h-1l-1,-1h-3v-1h-1l-3,-1h1h-1h1l1,1h3v1h4l3,1l1,1h3v1h3l2,1h1l2,1h1h1l1,1h3v1h3v1h1h-1l-1,-1l1,1v-1h-1v1h1h-1v-1h-1l1,1h3v1h1h-2l-1,-1h-3v-1h-10l-1,-1h-2l-1,-1h-2l-1,-1h-4l-2,-1h-2l-1,-1h4l1,1h2l-1,-1h-4v-1h-8l-3,-1h-1l1,-1h2h-5v-1h-4l-1,-1h1h-2v-1h3l1,1h2ZM591,10h5l1,1h5v1h1h-2l1,1h-1h1l2,1h-5l-1,-1h-2l-3,-1h-3l-1,-1h-1v-1h-2v-1h-5v-1l2,1h7ZM630,17h1l1,1h2l1,1h3v1h4v1v-1h-1l1,1h1h-1l-1,-1h-3l-2,-1h-1l-1,-1h-3v-1h-4v-1h-1h1v1h1h-1v-1h-1h1h-4v-1l1,1h1h-1l-1,-1h-1h1h-1l2,1h3l1,1h1Z"/>
<path class="sp" d="M631,17l1,1h2l1,1h2M624,16h3l1,1h2"/>
<path class="sl" d="M657,25h-1h1l1,1h2l1,1h2l1,1h2v1h1h-1l-1,-1h-2l-1,-1h-3v-1h-2v-1h-1h1v1l-1,-1h-1h1ZM796,97l-1,-1Z"/>
<path class="sp" d="M795,96l1,1"/>
<path class="sl" d="M622,15h-3l-1,-1h-1h2v1h2ZM585,8h-2v-1h1v1ZM578,6h-1ZM657,74h-1v-1v1ZM653,66h-2v-1h1ZM658,69h-1l-1,-1h-2l-1,-1h2l1,1ZM649,62v-1ZM664,71l2,1v1h-1v-1l-1,-1v1l-1,-1h-1l-1,-1v-1h1v1h1ZM689,88v1l-1,-1ZM697,88v1l-1,-1h-1l-1,-1h1l1,1ZM686,87h-1l-1,-1h-1h2v1ZM690,85l-1,-1h-1h2ZM664,72v1l-1,-1ZM673,78h-1v-1h-1v-1l1,1ZM667,73h-1v-1ZM661,70h-2v-1l1,1ZM661,70h-1v-1ZM704,93h-1l-1,-1h1ZM703,92h-1l-1,-1ZM691,86v-1h1ZM720,52l-1,-1ZM580,7h-1ZM585,7h-1ZM609,12h-2l-1,-1h1v1h1ZM659,26v1v-1h-1ZM657,26h1h-2ZM646,22h-1ZM659,26h1l1,1l-1,-1h-1h1v1h1h-1v-1ZM653,25v-1h-1h1ZM658,26h-1ZM654,26l-1,-1h-1h1ZM655,27h-1ZM649,25v1h1ZM657,28h1v1ZM648,25h-1ZM567,14h-1ZM5,450v1ZM5,450v5l-1,1v1v-4l1,-1v-3ZM956,329v1v-2ZM958,334v1v-2ZM953,290l1,1l-1,-1l1,1v1l1,1v1v-1h-1v-2ZM948,278l-1,-1v-1l-1,-1v-1l-1,-1v-1l-1,-2l-1,-1v1h1v1l1,1v1l1,1v1l1,2ZM952,286v2l1,1l-1,-1v-1l-1,-1l1,1l-1,-1v-1l-1,-1v-1l-1,-1l1,1v1h1v2ZM943,270h1v1l-1,-1l1,1l-1,-1v-1ZM951,284h-1ZM950,281v2l1,1v1l1,2l1,1l-1,-1v-1l-1,-1v-1l-1,-1v-2h-1ZM958,298h-1v-1v1ZM959,302v-1l-1,-1v-1l-1,-1v-1v1l1,1v1l1,1v2l1,1Z"/>
<path class="sp" d="M959,303l1,1"/>
<path class="sl" d="M955,293v-1l-1,-2l-1,-1l1,2ZM98,565v3l1,1v1l1,1v1l1,1v2l1,1v2l1,2v1l1,1v2l1,1v1h1l1,-1v-1l1,-1l1,1v2l2,1l1,1h1v1l1,1v3l2,4v1l1,2v2l4,4l1,3l1,2v3l2,4l1,1v2l2,2h1v1h3v1h2l1,1l1,2h2l2,2h1l3,3h-1v1l2,2h1l1,2v1h1v1l1,1l3,6l2,2v-3h1v1l1,1h1v-1h1l1,1l1,3v2l1,3h1l4,4h2l3,3v1l1,1h2v2l2,2h1l1,1l1,2v1l1,1h1v3l2,6l1,1l3,5l1,1v1l1,1l1,3l1,1v5l2,5v5l1,2l1,1v2l1,2v7h1v1l-1,1v2l-1,1v7l1,1v1h-1h1v4l1,2v3h1v1h-1l1,3v4l1,2l1,1v2l1,2l1,1v1l1,1v1h-1v2h-2l-3,1h-1l-1,1v2l-1,4l-1,1h-1l1,1v-1l1,1v1h-1l-1,-1h-1l-1,-1h-2v-1h-1v-2h-1v2h-1l-1,-1h1v-1l-2,-2l-1,1v1h1v1l-1,1v3l-1,1l-1,-1h-1l-1,-1h-2l-1,-1h-3v1h-1l-1,-1l-2,-1h-1l-4,-2l-4,-4v-1l-1,-2l-6,-6l-2,-1v-1h1l-1,-1h-1v2h-2v-2l-1,-2l-2,-2v-1l-2,-1l-1,-1v-1v2l2,5h-1v1l-1,1l-1,-3h1v-1l-1,-2l-1,-1v-1l-1,-1v-2l-1,-1v-2l-1,-1v-2l-2,-3h-1v-1v1l1,1v3l1,2v3h-1v2l1,3v3h1l1,1v1h-1v-1v1l-2,-2h-1v-1h-1h1l-1,-1l-1,-2l-5,-5v-1h-1l-1,-1l-1,1l-1,-2l-1,-1v-2l-2,-1l-1,-1h-2l-3,-1l-1,1l-3,-2l-1,-1h-2v1h-2l-2,2l-1,2v2l-1,1v2h-3v9l1,2l1,1v4l-1,-1l-1,2v-1h-2v1l-1,1v2l1,2v4l1,2v1h-2l-1,-1l-2,-1v-1h-2v-1l-1,-1l-2,-4v1h1l-1,-1v-1l-1,-2l-1,-1l-2,-3l-3,-6l-1,-1l-2,-3l-2,-2v-1l-2,-2l-3,-6l-2,-2l-2,-4l-1,-1v-1l-2,-2l-3,-6l-1,-1l-2,-4l-2,-3l-1,-1v-1l1,2l1,1v-1l-2,-2l-1,-2l-1,-1v-1v1h1l1,2v1v-1l1,1v1v-1l-1,-1v-1l-1,-1l-1,-2l-2,-3v-1l-1,-2l-1,-1v-1l-1,-2l-1,-1v-2l-1,-1l-1,-3v-1l-1,-1v-1l-1,-1v-1l-1,-1v-3l-2,-3v-1v1l1,2l1,1v1v-2l-1,-3v-1l-1,-1v-6h-1v-5l1,1v-5l1,-1l-1,-2h1v-1l1,-1v-8l-1,-2v-8h-1l-1,-2v-3l-1,-1v-8l1,2v1l2,4v1h1h-1v-5l-1,-1v-1l-1,-1v-3l1,2v-1h2l-1,-1v1v-1h-1v-1h1l-1,-1v-2h-1v-5l1,1v1v-2h-1v-2h1v-1l-1,-1v-4l1,1v-1v1l1,-1l-1,-1v-2h1l-1,-1h1v1v-4h1v1h1v1h1v1l2,2l1,2v3l1,2v-1v1v-5h2v1l1,1v1v-1l-1,-2h1l1,1v1v-2h-1l1,-1l-1,-1v-1h-1v-8l-1,-1h1v-4h-1v-1l1,-1v-4l1,1v-5h1v2l1,-1h1l1,-1l1,1v-5l-1,-1v-1h-2l-1,-1v-1h1v1v-1h1l1,1v1v-1h1l1,1v1h1l1,1v-1h1l1,1h1v1h1l1,-1v1h2v-1h1v-2l1,-1v3h1v2h1v-4h1v1l2,2l-1,4v1l1,1l-1,2v-1h-1v1l-1,1l1,3l1,1v4h-1v6h1v1l2,1v1h1l1,1v1h1l1,1v-1v2h3v1l1,1h1l4,4h3l1,1v1l1,2h1l1,1h2v1h1l2,-2v-14l-1,-3v-5l-1,-2l-1,-3v-4h-1v-6l-1,-3l1,-1v-1v1v-2h-1v-15l1,-1v-1h1l-1,1h1l1,1v3l1,1v3l1,1Z"/>
<path class="sl" d="M180,673h-1v-2l-1,-1v-5h-1h1v-1l1,2v6ZM90,608l-1,1v1h-1v-3h2ZM72,587l1,1v-1v3h1v1h-2v-2l-1,-1l1,-1v-1ZM46,576h1v1h-2v-4l1,1v1ZM46,573h1v-1l1,-1h1v4l-1,2l-2,-2v-1l-1,-2v-1l1,1ZM52,713l-1,-2h1v1ZM146,763h1v-1v1h1v1h-1v1h-2v1h-1l-2,-2l2,-1v-1h1ZM187,776h-1l1,-1ZM187,777h-1ZM144,631h-1v-1h1ZM143,630v-1ZM163,656h1v2ZM157,647l-1,-1h1ZM153,646v-1ZM187,686v2l-1,-1v-1ZM186,685h-1v-2l1,1ZM92,555v1h-1v-2ZM92,551h-1v-1ZM91,551l-1,-1h1ZM125,616v1h1v1h-1v-1h-1v-1ZM68,567v-2ZM67,569v1v-2h1ZM78,604h-1v-1h1ZM77,603h-1v-1h1ZM75,603v-1ZM91,613h-1v-1h1ZM71,588h-1v-1ZM53,570l-1,-1v-1l1,1ZM37,606v1l-1,-1v-1ZM37,614v-1ZM36,668v1v-2ZM196,793h2v1v-1v1h2l2,1h2v-1h1v1v-2h2v-1h1v-1l1,1h1l1,1v1l1,1v1h1v1l2,2v1l1,1l-2,-2v1h1v2l1,1v1l2,2l1,2h-2v-2h-1v1l-1,-1h-1h1v2h1v1l-1,-1v1h1v3l-1,-1h-2v1l-1,-1v-1h1h-2l-2,-1v-1h-1l-5,-5l2,1l1,1l-2,-2h-1v-1l-2,-1l-1,-2l-2,-1v-1l-1,-1h-1l-1,-1v-1l-1,-1h1ZM189,789h-1l-1,-1v-2h-1h1l1,1v1h1ZM204,784l1,1h1v1l1,1h-1l-2,-1v-1h-1v-1ZM217,810h1h-1v1v-1h-1h1v-1ZM217,805v-1ZM217,809l-1,-1ZM194,792l-1,-1h1h-1h1ZM207,788h2v1h-2l-1,-1ZM208,789v1ZM316,874v1v-1l-1,-1ZM278,690h1ZM29,589v1ZM671,954h1ZM700,958v0h-2v1h-1h1v-1h1h-1l-1,1l1,-1h1h-2v1h-1l2,-1l1,-1l-1,1h-2l-1,1h-1h1h-2v1h-2l-1,1h-2l-1,1h-2v1l1,-1l-1,1h-2v1h-2l-1,1l1,-1h1v1h-3l-1,1h-2l-1,1h-1l-1,1h-1l-2,1h-1l-1,1h-3v1h-2l-1,1h-1h1h-2l-1,1h-2v1h-3l-1,1v-1l-1,1h-1l-1,1h-3l-1,1h-1l-2,1h1h-1v-1l-1,1h-2l-1,1h-3v1l1,-1h-1l-1,1h-2l-1,1h-1h1v-1h-1l-1,1h-1h2v-1l-1,1h-4v1h-11l1,-1h-1h1h-4l-2,1h-1l-2,2h-4l1,-1v-1h1h-2l-1,1l-2,1h-4l2,-1h1l1,-1h1h-1l-1,1h-1l1,-1l-1,1h-3l-1,1h-1l-1,1h-1h1v1h-2l-2,1h-2v-1l-1,1h1h-1l-1,1h-4l-1,1h1h-1h1h-1v1h-2l-3,1h-1l-1,1h-1h1v-1h-1v1h-1v-1v1h-4l1,1h-10v1h6v1h-2h4v1h-2l-5,1h1h-1h1l1,-1l8,-1h5l2,-1h4l2,-1h5v-1l-1,1h-4l-1,1h-6l-1,1h-6l-1,1h-7l-1,1h-7l-1,1h-11l-1,1h-15l-1,1h-44l-1,-1h-15l-1,-1h-10l-1,-1h-9l-1,-1h-6l-1,-1h-7l-1,-1h-5l-1,-1h-5l-1,-1h-4l-1,-1h-4l-1,-1h-5l-1,-1h-3l-1,-1h-3l-1,-1h-3l-1,-1h-4l-1,-1h-3l-1,-1h-3l-1,-1h-2l-1,-1h-3l-1,-1h-3l-1,-1h-2l-1,-1h-3l-1,-1h-2l-1,-1h-2l-1,-1h-2l-1,-1h-2l-1,-1h-2l-1,-1h-2l-1,-1h-2l-1,-1h-2l-1,-1h-2l-1,-1h-1l-1,-1h-2l-1,-1h-2l-1,-1h-1l-1,-1h-2l-1,-1h-1l-1,-1h-1l-1,-1h-2v-1h-2v-1h-1l-1,-1h1h-2l-2,-2l-2,-1h-1l-1,-1h6l-2,-2h-2l-2,-1v-1h-1v-1h2l3,1h2l1,1l2,1l2,2h1v-1h-1v-1h-1v-1l1,1v-1h1v-1h-1h1l2,2v-2h-1v-1h-1v-2h1v-1h-1v-1h2l4,2h1v-1l1,1v-1h1l-4,-2l-1,-1v-1h2v-1h1v-1l1,1h2l1,1h1l-1,-1v-1h2l2,1v-1h15l1,-1v1h3l2,2h1v1h1l1,-1h-1h4l2,1h2v1h6l1,-1h3l1,1h6v-1l-1,-1h-1h2l2,1h2l1,1h5l2,1v-1h3l3,1h2l1,1h1l2,1h1l1,1l3,1l1,1h2l-2,-2h-1v-1h1l1,1h14v1h4l3,1h1v1v-1h1l1,1h1v1h-1l1,1h1v1h-2l2,1l1,1h-4l-1,1l-1,-1h-1l1,1h3v1h-3l1,1h-1l-1,-1h-1l3,3h2v1h-3l-1,-1v2l2,1h-1l-1,1h4v1h2l1,1h1l2,2h1v1h4l1,1h1l1,1h1v1h2v-1l1,1h4v1h-1l-1,-1l-2,1h-1v1l-2,-1h-1l2,1h-1v1h2v1h1l1,1v-1v1h1l-1,1h5v1h2v1h4l1,1h3v1h-1h7l1,1h4l1,1l1,-1v1h9l1,1h12l3,1h5v-1h-7v-1v1l1,-1h-1h1l-1,-1h-5l-2,-1h-3l-1,-1l2,1v-1h1l1,1h7v1h1v-1h1v1h3l2,-1h1h-1h3v-1h2l1,-1h-1l-1,-1h2l-1,-1h-3v-1h12v-1h-2v-1h4v-1h1h-2l-2,-1h-1l-1,-1h-4l-2,-1v-1h4l-1,-1h-6v-2l1,-1h8v1h4l1,1h5v-1h-1l1,-1l1,1h2v1h2v-1h1h-1v-1h1v-1h-1l-1,-1h-3l1,-1h1l2,1h2l-1,-1h4l2,-1h5l1,1h1l-1,-1h3l2,-1h7l1,-1h4v1h15l1,1h9l3,1h1l1,-1h3l1,1h3l1,-1h2l1,-1h1v1l-1,1h-1l-1,1h-2l-1,1h-1h6v-1h2v-1h2v1h-1l-1,1h-3l-2,1h3l1,1h1l1,1l2,-1h1v1h3v1h2l1,1v-1h1l1,-1h-1h1l1,-1h1h-1l1,-1l2,-1v-1h3v1h3v-1h1l-1,-1h-2v-1l2,-1h1v1h2v1h2v1h1h-1l1,1h4v1h3l1,-1h1v1l1,-1h1v1h-3l-1,1h1l-1,1h1l-2,2v1l1,-1h2l2,-1l-1,1h1l1,-1h1l-2,1l-1,1h1l-1,1h-1h1h-1v1l2,-1v1h5l2,-1h2l2,-1h2l1,-1l2,-1h2l2,-1h2l1,-1l2,-1h2l2,-1l1,-1h2l1,-1h1l-1,1l1,-1h2l1,-1h2v-1h2l1,-1h2l1,-1h1l1,-1h2v-1h2l1,-1h1l-1,1h-1h1l1,-1h2v-1h1h-1v1v-1h3v-1v1Z"/>
<path class="sp" d="M700,958v0M586,992l-1,1h-4l-1,1h-6l-1,1h-6l-1,1h-7l-1,1h-7l-1,1h-11l-1,1h-15l-1,1h-44l-1,-1h-15l-1,-1h-10l-1,-1h-9l-1,-1h-6l-1,-1h-7l-1,-1h-5l-1,-1h-5l-1,-1h-4l-1,-1h-4l-1,-1h-5l-1,-1h-3l-1,-1h-3l-1,-1h-3l-1,-1h-4l-1,-1h-3l-1,-1h-3l-1,-1h-2l-1,-1h-3l-1,-1h-3l-1,-1h-2l-1,-1h-3l-1,-1h-2l-1,-1h-2l-1,-1h-2l-1,-1h-2l-1,-1h-2l-1,-1h-2l-1,-1h-2l-1,-1h-2l-1,-1h-2l-1,-1h-1l-1,-1h-2l-1,-1h-2l-1,-1h-1l-1,-1h-2l-1,-1h-1M700,956v1"/>
<path class="sl" d="M587,992h-3l-1,1h-6l-1,1h-1v-1h-1l2,-1h9l1,-1h6v-1h3l-1,1h-4v1h-2ZM582,991h-2l1,-1h-1h3v-1h1l-1,1h1v1h-1ZM678,964h-2l-6,3l-3,1h-1l-1,1h-2l-1,1l-2,1l-3,1h-3v1h-5l1,-1h3l1,-1v1l1,-1h1l1,-1h1h-1l-2,1v-1h1h-1l-1,1h-1l1,-1h1l1,-1h5v-1h1v1h1h-1h2v-1h2l1,-1h1v1v-1h2v-1h-1h2v-1h2l1,-1h2v-1h3v-1h2v1h-2ZM639,962h-1h1h-1v1h1v-1h2l-1,1h-1h1l-1,1h-5v-1h-1h1v-1h-1v-1h-1h4v1l1,-1h2ZM592,962h-1l-2,1h-4v-1h2v-1h-1h5ZM583,959h1l-1,1h-1v1h2v1h-3v-1h-1v-1h1h-1v-1h2ZM504,976h-3l-1,-1h-4v-2h4v1h3v1h1ZM443,971h4v1h-4l-1,-1h1h-1l-1,-1h1ZM567,995h1h-1l-1,1h-1h1l1,-1h2ZM573,994h1ZM590,988v-1h5l1,-1h4v1h-8l-1,1ZM691,959l-1,1h-1l1,-1h2l1,-1h2v-1h1l-1,1h-1l-1,1h-1ZM666,967h-4l1,-1h3l-2,1h1l1,-1l-1,1l1,-1ZM673,963v1h-2l-1,1h-1l1,-1h2ZM645,973h-1l-1,1h-2l2,-1h2v-1v1h1v-1h1v1h-1ZM636,968l2,-1h1v-1h2l-1,1h-2l-1,1ZM447,973h1h-1l-1,1l-1,-1h1ZM296,955h-2v-1h-1h1l1,1ZM586,989h3l1,-1h1h-1v1h-3ZM591,988h1ZM671,969l1,-1h1l2,-1h1h-2v1h-2ZM673,965v-1h2v-1h1l-1,1ZM637,965h-1h2ZM621,964v-1h1ZM592,963h-1h1v-1h2l-1,1ZM575,963h-1v-1h2v1ZM500,984h-2v-1h1ZM501,980h-1ZM426,964h-1v-1h1ZM428,966v1l-1,-1ZM432,959h-1v-1h1ZM394,937v-1h-1v-1v1h1ZM387,934h-1v-1v1ZM383,933l-1,-1h1ZM301,958h1v1h1h-1ZM300,957h1ZM303,959l-1,-1ZM293,953h-1l-1,-1l1,1ZM303,959v1v-1h-1ZM569,995h1ZM668,970h1v-1v1ZM678,966v1v-1h1ZM662,972h1v-1h1h-1v1ZM659,973h1v-1h1h-1v1ZM696,958v-1h1h-1ZM689,960h1ZM669,966v1h-2l1,-1ZM643,974h1l1,-1l-1,1ZM636,966h1ZM596,964h-1v-1h2v1ZM565,962h-1l1,-1h1ZM567,962h-1l1,-1l1,1ZM528,967h-1ZM535,964h-1ZM529,968h-1h2ZM525,968h-1h2ZM524,967h1v1ZM523,969h1ZM522,967h1ZM531,966h-1l-1,-1h1ZM529,967h-1ZM521,969h-1ZM512,976h-1ZM524,968h-1ZM504,982v-1h-1h2ZM337,511v-1Z"/>
<path class="sh" d="M515,617h-1v-1h1Z"/>
<path class="sw" d="M862,157h1v1h1v1h1l-1,-1v-1h-1v-1h-1h1v1h1v1v-1h-1v-1v1v-1h-1v-1v1h1v1h1v1h1v1h1v1h1v1l1,1v1h1h-1v-1h-1h1h-1v-1v1v-1h-1v-1h-1l-1,-1v-1h-1v-1ZM863,156h-1v-1v1ZM866,160v1ZM787,99h1l-1,-1v1h1v1h1h-1l-1,-1h-1v-1h-1v-1h-1v-1h-1v-1v1l-2,-2h-1v-1v1h1h-1l-2,-2h-1v-1v1v-1h-1l1,1h-1v-1h-1l-1,-1h-1l-1,-1v-1h-1l-2,-1l-2,-2h-2l-1,-1v-1l-1,-1h-1h2l1,1l-1,-1h-1l-2,-2h1v1h1v1v-1v1v-1l1,1h-1h1l1,1h1v1h1l1,1h1v1h1l1,1h1v1h1l2,1v1h1v1h2v1h1v1h1l1,1h1v1h1l1,1h1v1l2,1ZM774,90v-1h-1ZM784,96v1h1ZM681,41h1h-1l-1,-1h-1l1,1h1h-2v1h1v2h-1v-1h-1v1h1v1h1h-4l-1,-1h-4v-1h-3l-1,-1h-1h1l1,1h1v-1h1v1h1v-1v1l1,-1h-2v-1h1v1h1v-1h-2v-1h-2v-1h-3v-1h-1h1l1,1h2l1,1h3v1h3v1h1v-1v1h1v-2h-1h5ZM679,42h-1h1h-1v1h1ZM861,154h-1v-1l-1,-1l1,1Z"/>
<path class="sr" d="M858,151l3,3"/>
<path class="sw" d="M638,26h1v1h1v1h1h-3l1,1h1h-1l-1,1h-1l-1,-1h1v-1h-3l1,1h-3l-2,-1h1h-1v-1l-2,-1h1l1,1h1v-1h-4l-1,-1h-1h1v1h-1v-1h-3v1v-1v1l-1,-1h-1h7v-1h4v1h1h-1l1,1h-1h6ZM863,157h-1v-1l-1,-1v-1v1h1v1l1,1h-1ZM940,266l1,1v1v-1h-1v-1l-1,-1v-1v1h1ZM977,388v1h1v1h-1v-1l-1,-1v-1h-1v-3l-1,-1v-2h1v2h1v3l1,1ZM980,641v-3h1v-1v1v-2l1,-1v-1v1l-1,1v2l-1,1v1Z"/>
<path class="sr" d="M982,635l-1,1v2l-1,1v2"/>
<path class="sw" d="M765,85h1h-1l-1,-1l1,1h-1v-1h-2v-1h-2v-1h-1h1l-1,-1h-1v-1h-1l-1,-1h1h-1h1v1h1l1,1v-1v1h1v1h1v1h2v1h2ZM787,142h1l-1,1v1v-1h-1l-1,-1h1v1h-1v-1h-1v-1h-1v-1h-1v-1h-1v-1h-1h2v1h1l1,1h1h-1v-1v1h1v1h1ZM787,143v-1h-1v-1v1h1ZM839,134h1v1l1,1h1h-1l3,3v1v-1l-1,-1v1h1l-1,-1v1h1v1h1v1l1,1h1v1l6,6h1v1l2,2v1h1l2,2v1h1v1h-1v-1h-1l-2,-2v-1l-3,-3h-1v-1h-1v-1h-1v-1l-5,-5v-1h-1v-1h-1l-1,-1v-1h-1v-1v1h1v1l-2,-2v-1h-1v-1h-1l-1,-1v-1h-1v-1h-1h1l1,1h-1v-1l2,2v-1h-1v-1h-1h1h-1h1l1,1ZM839,134h-1h1v1ZM841,137h1ZM838,135h1ZM839,135v1h1v1h1v1v-1h-1v-1h-1ZM835,130h1v1l-1,-1h-1v-1l-1,-1h-1v1h1h-1v-1h-1v-1h-1l-2,-2h-1h1h-1l-1,-1h-1v-1v2l-1,-1v1v-1h-1v-1h-3v-2l-2,-1v-3h-1v-1h-1v-1v1h1v1v-1h-1v-1h-1v-1l1,1v-1h-2v-1v1h2v1h2v1h1v1h1l2,2h1v1h1l2,2h1v1h1v1h1v1h1l1,1v1h1v1h1l2,2h1ZM822,123h1ZM823,124v-1ZM822,123v-1v1h1ZM816,114v1ZM820,119v-1h-1v1ZM825,123v-1h-1v1h1l1,1h-1v-1l1,1v-1h-1v-1ZM817,115h-1ZM826,122h-1ZM835,130h1v1h1v1h1v1h1l1,1h1v1h1h-1h1v1h1h-1h1v1h1v1h1v1h1l7,7v-1h-1l-5,-5v1h1v1h1v1h1l1,1v1h1v1h1v1h1l3,3v1h1v1h1v1v-1l-2,-1l-2,-2l-1,-2h-1v-1h-1h1v1h1v1h-1v-1l-2,-2v-1h-1v-1h-1l-3,-3v-1h-1v-1h-2v-1h-1v-1h-1v-1h-1v-1h-1v-1h-1h1v1v-1h-1v-1h-1v-1h-1v-1ZM840,134v1h1ZM840,134l-1,-1v1ZM839,133h-1v-1h-1h1l1,1h-1ZM837,132h1ZM837,131h-1v-1v1ZM840,134v1ZM842,135v1h1v1h1v1v-1v1h1h-1v-1h-1v-1v1v-1h-1v-1v1v-1h-1h1v1v-1h-1l-1,-1l1,1ZM851,144v-1h-1ZM907,261v2l1,3l1,2v1l1,3v-1l-1,-1v-2h-1v-1v-1l-1,-1v-1l-1,-1v-2ZM724,60h1v1l1,1h1h-1v-1v1h-1v-1h-1v-1h-2v-1h1h-1h1ZM703,54h-1v1h1h-2l-1,-1h-1h1v-2h2v1h4l1,1h2l2,1l-2,-1h-5ZM801,107v1h1h-1v-1h-1l-1,-1v1h1l1,1h1v1v-1v1h-1l-1,-1v-1h-1v-1h-1v-1v1h-1v-1l1,1v-1h-1l-1,-1h1v1h1l1,1h1v1ZM800,108h1v1h1l-1,-1ZM808,108l2,2h1v1h1h-1v-1h-1l1,1h-1v-1h-1h1h-1h1h-1v-1h-1v-1v1v-1h-1v-1h-1v-1h-1l1,1h1h-1v-1v1h1v1v-1v1ZM807,108h1v1h1h-1v-1ZM730,62v1h1l2,2h1h-1h1v1h1v1h1v1h-1v-1h-1h1h-1v-1h-1l1,1h1v-1h-2v-1h-1l-1,-1h-1v-1h-1v-1h-1v-1v1h1h-1h2v1ZM533,38v1h-4l-3,1h-1v-1h4l3,-1ZM526,45l-1,1v-1h-3v-1h2ZM758,149h-1v-1ZM844,141l1,1v1l-2,-2ZM694,42h1h-1h1h-1h2v1h1l1,1h1v1v-1h-1h1h-2v-1h-2ZM701,43h1h-2v-1h-2l-1,-1l1,1h2Z"/>
<path class="sw" d="M800,189h1v1h-1l-3,-3h1v1ZM657,36h-2l-1,-1h-1h3v1ZM876,826v-1l1,-1v1h-1v1v-1ZM88,219l-1,1v1h-1h1h-1h1v-1v1v-1l-1,1l1,-1v-1h1l-1,1h1v-1l1,-1v-1v1v-1l1,-1v1h-1v1l-1,1v1ZM178,130h-1l-1,2l-1,1h-1l1,-1v-1h1v-1h1v-1h1l1,-1v1ZM720,61h1v1h1h-3v-1h1h-1ZM701,44h-1h1l1,1h-1ZM712,52h-1v-1l1,1h1l2,2h1h-1l-1,-1h-1ZM909,231v1h-1v-1ZM842,136h1h-1v-1h-1h1h-1h1l1,1Z"/>
<path class="sr" d="M842,135l1,1"/>
<path class="sw" d="M178,118v-1h1h-1v1h-1v1h-1l-2,2h-1h1l3,-3Z"/>
<path class="sr" d="M173,121h1l3,-3"/>
<path class="sw" d="M81,232v1l-1,1v-1l1,-2l2,-2v1h-1v1l-1,1h1ZM523,45l-1,1h-1h1ZM507,19h-1ZM680,47h-1ZM820,880v1h-1v-1l-1,1v1h-1l2,-2h1v-1h1v-1v1h-1ZM706,52h1v1v-1h-1h1h-2v-1v1h1l-1,-1h1v1l-1,-1ZM391,18h-1ZM787,92h1v1h-1ZM68,250v1v-1v1h-1v1l-1,1l1,-1h-1h1v-1l1,-1v-1l1,-1v-1h1v-1v1h-1v2h-1v2ZM71,244h1ZM71,244v1h-1h1v-1v1ZM70,245v-1h1v-1v1l-1,1v1ZM352,762l-1,1h-1v-2h2ZM779,124v-1h-1v-1v1h1ZM525,11h-3l-1,-1h2ZM747,102l-1,-1h1v1l1,1h-1ZM801,173h-1v-1h-1l-1,-1v1h-1v-1h-2v-1h1h-1v-1l2,2v1l1,-1l-1,-1l1,1h1v1l1,1ZM699,55h1v1h1h-1l-1,-1h-1v-1h-2l1,-1v1h2ZM960,347h-1l1,1v1h-1v-3h1ZM383,15h-1h2ZM796,101v-1v1h1l-1,-1h1v1ZM87,221v1v-1l1,-1v-1h1v-1v1h-1v1v-1h1v-1v1h-1v1ZM492,36h-1v1h-1v-1h-1h2ZM786,136v1h-1v-1ZM792,147v1l-1,-1v-1h-1h1v1ZM613,23v-1v1h1ZM814,119h-1h1h-1v-1v1ZM811,112v1h1h-1v-1h-1ZM882,820h-1v-1h1ZM660,44h-2v-1h1h-1h1ZM823,878v-1h1h-1h1v-1h1v-1v1h-1v1ZM72,243v-1v2ZM168,126h1v-1h1h-1l-1,1v1ZM331,799v1h1v1h-1v-1l-1,-1v-1ZM375,16h-1h2ZM392,16v1h-1v-1ZM391,18v-1h1v1ZM80,231h1v-1v1l-1,1ZM68,248v1h-1h1ZM80,232v-1l-1,1v-1h1h-1h1ZM745,131v1l-1,-1v-1ZM757,144l-2,-2h1v1h1ZM71,244v-1ZM72,241h1v-1v1ZM93,210v1v-1l1,-1v1ZM71,243h1v-1v1ZM69,246v1v-1h1v-1v1ZM69,247v1v-1l-1,1l1,-1v-1ZM622,20h-1h1v1v-1v1h1h-1ZM611,22l-1,-1h-1h2v1h1ZM613,22h1h-2ZM644,30h-2v-1h1v1h2v1h1h-1ZM780,88v-1h-1h1v1h1ZM792,99l-1,-1h-1h1ZM773,85h-2v-1h-1h2v1ZM740,73v-1h-1v1h1h-2v-1h-1h3ZM821,125h-1v-1ZM854,147l1,1v-1h-1v-1h-1l-1,-1h1v1Z"/>
<path class="sr" d="M853,146l1,1"/>
<path class="sw" d="M766,80h1v1h-1v-1h-1ZM748,124l-1,1v-1h-1h2v1ZM758,76h1ZM486,22h-1ZM491,34h-1v-1h1ZM496,35h-1ZM512,40h-1ZM515,38h-4l1,-1h2ZM510,37h1v-1h1v1h-1ZM513,39h-1h1h-1ZM809,113h-1h1l-1,-1h-1l-1,-1h-1v-1l1,1h1v1v-1v1h2v1h1v1v-1ZM676,60h-3v1h2v1h2v1l-1,-1h-1l-1,-1h-1l-1,-1h-2v-1h-1h1h-1l-1,-1h-1l-3,-2l1,1h2v1h2v1h3l1,1h1v-1h1l1,1h1ZM754,73h-1v-1v1ZM777,108l1,1h-1v-1l-1,-1h-1v1h-1v-1h-2v1h1h-1v-1h-1h1v1v-1h3l-1,-1h1v1h1ZM790,111h-1v-1h-1l-2,-2h-3v-1v1v-1l1,1v-1l1,1h1l1,1h1v1v-1v1h1l1,1h1l1,1v-1v1h1v-1v1h-2v-1ZM624,43l-1,-1h-1l-1,-1h-2l-2,-1h2l1,1h1l1,1h1ZM725,92h-1l-1,-1h-1v-1l1,1v1h1ZM737,99v1l-1,-1h-1v-1l1,1ZM723,99h-1l-1,-1h-1l-1,-1h-1v-1l2,2h1l1,1ZM713,56v-1h1v1ZM560,31h-1ZM807,114h1v1l-1,-1h-1ZM806,113h1v1ZM706,47v-1h-2v-1v1v-1l1,1v-1h-1l1,1h2v1h1h-1ZM879,227v1v-1h-1v-1h-1h1v1ZM902,296v1h-1v-1h-2v-1h2v1ZM973,378v1v-1h-1v-1ZM989,412v1v-1h-1h1v1l-1,-1v1v-2ZM50,615v1h1v2h-1h1v2h-1v-4h-1v-1h1v1ZM786,99v1h-1v-1h-1l-3,-3h-1l-1,-1h-1h1h-1v-1h-1l-1,-1h-1v-1h-1h1h-1l-1,-1h1v1h1h-1h1l1,1h1v1v-1h-1l-1,-1h1v1h1v1h2v1h1v1h1v1h2v1h1l1,1ZM774,92h-1v-1h-1l-1,-1h-1h1l1,1l-2,-2h-1l-3,-3h-1v-1v1l1,1v-1h-1l-1,-1h-1h1v1v-1h-2v-1h-1h2l1,1h1l1,1h1l4,4h1v1h1h-1h1ZM720,64v1v-1h-2v-1l1,1h1l1,1h2v1h1v1h1v1h1v1l-1,-1h-1v-1h-2v-1h-1h1l1,1h1h-1v-1h-1v-1h-1ZM844,860v-1l-2,2h-1l1,-1h1v-1h1v-1v1h-1h2v-1v1ZM801,173h-1v-1h-1l-1,-1v1h-1v-1h-2v-1h1h-1v-1l2,2v1l1,-1l-1,-1l1,1h1v1l1,1ZM807,162l1,1v3l1,1h-2v1l-1,-1h2v-2h-1v-1l1,1v-2h-1ZM740,66h1v1h1l1,1h-1h1v1l-1,-1v1h1h-1v-1h-1v-1l1,1h-1v-1l1,1v-1h-1l-1,-1h-1v-1v1v-1ZM330,802l1,1h-1v-1l-1,-1v-1l1,1ZM330,804h-1v-1l-1,-1h1v2ZM777,108l1,1h-1v-1l-1,-1h-1v1h-1v-1h-2v1h1h-1v-1h-1h1v1v-1h3l-1,-1h1v1h1ZM810,127v1h1h-1h1v1h1v1h1h-1v-1h-1v-1h-2v-1h1v1v-1l-1,-1v-1h-1v-1h-1l-1,-1h-1h1l-3,-3h-1v-1l-1,-1h-1v-1h-1h1v1h1l3,3h1v1h1v1l1,1h1v1h1v1h1ZM624,43l-1,-1h-1l-1,-1h-2l-2,-1h2l1,1h1l1,1h1ZM725,92h-1l-1,-1h-1v-1l1,1v1h1ZM676,37h-2l-1,-1v1v-1h-1h2l1,1ZM676,37h2v1h1h-1l-1,-1ZM822,137h1v1h1l1,1h1h-2v-1h-1l-2,-2h-1v-1h-1v-1h-1v-1l1,1v1h1l1,1ZM896,249v1l-1,-1v-1h-1v-1l1,1v1ZM730,70h-1l-1,-1h-1h1l-1,-1h-1v-1l2,2h1v1Z"/>
<path class="sw" d="M708,51v1v-1h-1l-1,-1h-1v-1h-1l1,1h-1v-1h-1h2v1h1l1,1v-1ZM693,40h1h-1h1h-1v-1h-1h1ZM885,189v1h1l1,1v1l1,1v1v-1l-2,-2v-1h-1l-1,-1l-1,-2l-1,-1l1,1ZM907,213h1v1l1,1l-2,-2h1h-1v-1ZM710,79h1h-1l-1,-1h-1l-1,-1h-1l-2,-1h2l2,1l1,1ZM929,247l-1,-1h1l1,1v1h-1ZM803,182h-1v-1l2,2v1v-1h-1ZM740,136v1h1h-1ZM654,31l-1,-1h-1h1l1,1h2l1,1h3v1v-1h-3l-1,-1h-1ZM735,127l1,1h1v1l-1,-1h-1ZM746,124h-1h1v1ZM850,855v1l-1,1v-1h1v-1l1,-1h1h-1v1ZM247,81h-2v1v-1h1ZM413,26h1h-1v1h-1v-1h1h-1ZM139,188v-1h1h-1v1l-1,1v-1ZM599,35v1h1h-1l-1,-1h-1h1ZM528,42h-1h1v1h-1l-1,-1h-1h2ZM495,34h-1ZM531,37l1,-1h2l-2,1h-2ZM545,37h2v1l-1,-1ZM507,33h-1ZM497,34v1l-1,-1ZM491,32v1v-1h-1ZM492,29h1ZM894,202h1l2,2l-2,-2ZM795,100h1ZM789,95v1ZM672,35h-1ZM672,35h-1ZM670,35h-1h2ZM670,35h-1v-1v1ZM645,23l-1,-1h1ZM672,31l1,1v-1h-2ZM759,77h1ZM749,76h-1h1l1,1h-1ZM742,76l-1,-1h-1h1l2,2ZM663,34v-1h-2h2ZM825,120v1v-1h-1h1h-1ZM729,68h-1ZM731,69h1ZM697,44h1v1l-1,-1h-1ZM703,48h-1v-1h1ZM720,58h1v1ZM56,684v-1l-1,-1v-2l1,2v1l1,1ZM67,669h-1v-1h-1l1,-1v-3h1v2h1v3ZM125,739v-1l-1,-1v-2h-1v-1h-1v-1h-1v-1h-1v-1h-1l-1,-1h1l1,1l1,-1l1,1v1h1v1l1,2h1l1,2v1h-1ZM129,732l1,2l-1,-1v-1l-1,-2l-2,-2v-1l-1,-1v-1l-1,-1h-1v-1l-2,-2h1v1h1l4,4v1h1l1,2v1ZM73,732l1,1h-1v-1l-1,-1v-1v2l1,1l-1,-2v1l-1,-1v-2l1,1v1h1ZM134,725h1v1h-1l-1,-1h-1v-5l1,1l1,3ZM120,714l-2,2v-2l1,-1ZM120,712h-3l-1,-1v1l-1,-1v-1l-2,-2l1,-1h-1v-1l-2,-2h1v-1l2,2h2v2l1,1v1l2,2Z"/>
<path class="sb" d="M984,405v5h1v7M980,392v2l-1,-1v-2h-1v-1v1l-2,-2v-1v1M973,359v-1v1h-1v1v-1v1h-1v-1l-1,-1v2h1h-1l1,1v4l-1,-1v-1v3l-1,-1v3l1,1h-1v1h1v1h-1M961,347v4l-1,1v1h1v4M959,345h-1v-2l-2,-6v-2l-2,-4v-2M961,362l-1,-1v-1l1,-1v-2h1v2h1v1l1,1v1h1l1,1v1l1,1v2M954,325v-1v4h-1h1v1h-1l-1,-1h-2l-1,-1v2l1,1v1h-1l1,1v1l1,1v1l2,2v2h1v2l1,1h-1l-1,-1h-2v6l1,1v2l1,1v2M905,257v1v-1l-1,-1h-1l-1,-1h-1l-1,-1h-1v-1l-1,-1h-1l-1,-1l-1,-2v-1l-2,-2v-1l-1,-1v-1l-5,-5v-1l-1,-1h-1v-2l-2,-1l-1,-2l-5,-5v-1h-2l-1,-1h-1v-1v1h-1v3h1v2h-1l-3,-3h-1l-1,-1h-1v-1h-1v-1l-2,-1v-1l-1,-1l-2,-3v-1h-1l-3,-3l-3,-2l-1,-2h-1l-2,-2v-1h-5l-1,-1h-2v1l2,2h-3l-2,-1h-3l-2,-1h-3l-3,-1l-3,-2l-3,-1l-2,-2l-6,-2l-3,-2l-3,-1v-1h-1l-1,-1h-10M859,152l3,3v1h1v1h1v1h1v1l1,1v1h1h-1v-1h-1l-2,-2v-1h-1v-1l-1,-1v-1l-2,-1v-1l-2,-2h-1l-1,-2l-2,-1l-1,-1l-1,-2l-5,-5h-1l-5,-5h-1v-1h-1v-1h-1v-1h-1v-1h-1h1h-1l-2,-2h-1v-1l-1,-1h-1l-3,-3h-1l-2,-2h-1l-3,-3h-1l-1,-1v1h1h-2v-1h-1l-1,-1h-1l-2,-2h-2v-1h-1l-1,-1h-2v-1h-2l-2,-2h-1v-1l-1,-1h-1l-1,-1l1,1l2,1h-3l-1,-1h-3l-1,-1h-2l-2,-1h-2l-1,-1h-4l-1,-1h-4l-1,-1h-3l-1,-1h-4l-2,-1h-4l-2,-1h-4l-2,-1h-4l-2,-1h-5l-1,-1h-5l-2,-1h-5l-2,-1h-7l-2,-1h-6l-1,-1h-7M561,14h1l1,1h1v1l1,1h1l2,2h1v1l1,1h1l2,2v1h1l8,8v1l3,3v1h1l2,2h7v1h2l1,1h2l1,1h1l1,1h1l1,1h1l1,-1h1v-1h2l1,-1v1h2v1h2v1h3v1h2v1h2l1,1h1l1,1h1l1,1h1l2,2h2l1,1h1v1h2v1h2v1h3l1,1h2v1h3v1M955,708l-1,1v1l-1,1v1l-1,1v1l-2,4l-2,3v2h-1v1l-1,2v1h-1v2h-1h1h-1v1l-1,1v1l-1,1v1l-2,2v2l-2,2l-1,2v1h-1v1l-2,4h-1v2h-1v2h-1v1l-2,2v1l-1,1v1l-3,3v2h-1v1l-1,1v1h-1v1l-1,2l-1,1v1h-1v1l-1,1v1h-1v1l-1,1v1l-3,3v1l-1,1v1h-1v1h-1v1l-1,1v1h-1v1h-1v1l-1,1v1h-1v1l-3,3v1h-1v1h-1v1l-2,2v1h-1v1h-1v1l-2,2v1l-2,2v1h-1v1h-1v1h-1v1l-2,1v1l-3,3v1h-1v1h-1v1h-1v1l-4,4l-1,2h-1l-1,1v1l-3,3h-1v1h-1v1h-1v1l-3,3v1h-1v1h-1v1h-1v1h-1v1l-1,1h-1v1h-1v1h-1v2h-1l-1,1h-1v1l-5,5h-1v1l-1,1h-1v1h-1v1l-1,1h-1l-3,3h-1v1h-1v1h-1v1h-1l-4,4h-1l-1,1v1h-1l-1,1h-1v1h-1l-2,2h-1v1l-1,1h-1l-4,4h-1v1l1,-1v1h-1l-2,2h-1v1l-2,1l-1,1v1h-1v1h-1v2h-1v1h-1v1h-1v1M968,677v-2M968,675l1,-1v-1M972,665v-1l1,-1v-2l1,-1v-2l1,-1v-2l1,-1v-2l1,-1M981,635v2"/>
<path class="sb" d="M978,646v2l-1,1v2l-1,1v2l-1,1v2h-1M999,497v-1v13l-1,1v6l-1,1v1h-1v4l-1,1v8h-1v1v-3h-1v-1h-1h1v-9M1000,520v-1v1h-1v-4l1,-1v-2l-1,-1h1v-4h-1v-15l-1,-1v-1v1v-2h-1v-6l-1,-1v-4M994,420l-1,-1v-5l-1,-2v-1M991,596v1v-5l1,-2v-3l1,-1v-1l-1,1v-1h1v-7l1,-1v-8h1v-8h1v-6h1v-8l1,-1v-8l1,1v-1M132,167l2,-2h1v-1h1v-1l1,-1h1v-1h1v-1h1l1,-1h1v-1l3,-3h1v-1v1h2v-1h1v-2h1l1,-1h1l2,-2h1v-1h1v-1h1l2,-2v-1h1v1h-1v1M125,180v-1l1,-1h1v-1h1v-1h1l1,-1h1v-1h1l1,-1M168,126l-1,1l2,-2h1v-1v1h-1v1h-1v1h-1v1h-1v1h-1l-2,2h-1v1h-1v1h-1h1h-1v1h-1v1v-1v1h-1M158,148v-1l1,-1v-1h1l1,-1h1v-1h1l2,-2v-1h1v-1h1l1,-2h1l2,-3l2,-2h1v-1h1v-1h1l1,-1h1v1l1,-1h1l2,-2v-1h2v-1l1,-1h1v-1h1l4,-4h1v-1l1,-1h1v-1h1l1,-1h1l1,-1v-1h1l3,-3h-1l-2,1v1h-2l-1,1h-1v1h-1l-1,1h-1l-1,1h-2l1,-1h1v-1l1,-1h1v-1h1v-1h1v-1l1,-1v-1l-1,1l1,-1h-1h1h-1v-1l1,-1h1l1,-1v-1h1l2,-2h1v-1h1v-1h1v-1h1l2,-2h1v-1h1v-1h1v-1h1v-1h1l1,-1h-1h1v-1v1v-1l-1,1h-1v1h-1l-1,1h-1l-1,1l-2,1l-3,3h-1v1h-1l-3,3h-1l-1,1l-2,1v1h-1v1h-1l-1,1h-1v1h-1v1h-1l-1,1h-1v1h-1v1l-2,1l-2,2"/>
<circle class="w2" cx="532" cy="605" r="12"/>
<circle class="w2" cx="532" cy="605" r="10"/>
<circle class="c2" cx="532" cy="605" r="11"/>
<circle class="w2" cx="529" cy="622" r="12"/>
<circle class="w2" cx="529" cy="622" r="10"/>
<circle class="c2" cx="529" cy="622" r="11"/>
<circle class="w2" cx="514" cy="616" r="12"/>
<circle class="w2" cx="514" cy="616" r="10"/>
<circle class="c2" cx="514" cy="616" r="11"/>
<circle class="w2" cx="522" cy="600" r="11"/>
<circle class="c2" cx="522" cy="600" r="10"/>
<circle class="w2" cx="505" cy="524" r="12"/>
<circle class="w2" cx="505" cy="524" r="10"/>
<circle class="c2" cx="505" cy="524" r="11"/>
<circle class="w2" cx="531" cy="511" r="11"/>
<circle class="c2" cx="531" cy="511" r="10"/>
<circle class="w2" cx="464" cy="528" r="11"/>
<circle class="c2" cx="464" cy="528" r="10"/>
<path class="sg" d="M 256.7345 936.0377 A 249.7500 33.5555, 0, 1 1, 742.2655 936.0377"/>
<path class="sg" d="M 68.2477 751.5352 A 432.5797 58.1198, 0, 1 1, 930.7523 751.5352"/>
<path class="sg" d="M 0.0000 499.5000 A 499.5000 67.1110, 0, 1 1, 999.0000 499.5000"/>
<path class="sg" d="M 68.2477 247.4648 A 432.5797 58.1198, 0, 0 1, 930.7523 247.4648"/>
<path class="sg" d="M 256.7345 62.9623 A 249.7500 33.5555, 0, 0 1, 742.2655 62.9623"/>
<path class="sg" d="M 477.1568 0.5000 A 156.4939 499.5000, -182.56376401, 0 0, 521.8432 998.5000"/>
<path class="sg" d="M 513.2325 0.1888 A 99.2626 499.5000, -178.42459940, 0 1, 485.7675 998.8112"/>
<path class="sg" d="M 558.6003 3.5087 A 328.4219 499.5000, -173.20491153, 0 1, 440.3997 995.4913"/>
<path class="sg" d="M 686.2685 36.2314 A 469.5807 499.5000, -158.04298677, 0 1, 312.7315 962.7686"/>
<path class="sg" d="M 225.4156 81.9141 A 484.9158 499.5000, -213.27907138, 0 0, 773.5844 917.0859"/>
<path class="sg" d="M 424.6815 5.6352 A 370.3180 499.5000, -188.61457253, 0 0, 574.3185 993.3648"/>
<text x="0" y="0" class="fs" transform="translate(596,308) rotate(87)">150W</text>
<text x="0" y="0" class="ft" transform="translate(596,308) rotate(87)">150W</text>
<text x="0" y="0" class="fs" transform="translate(820,323) rotate(81)">120W</text>
<text x="0" y="0" class="ft" transform="translate(820,323) rotate(81)">120W</text>
<text x="0" y="0" class="fs" transform="translate(957,351) rotate(77)">90W</text>
<text x="0" y="0" class="ft" transform="translate(957,351) rotate(77)">90W</text>
<text x="0" y="0" class="fs" transform="translate(27,358) rotate(102)">120E</text>
<text x="0" y="0" class="ft" transform="translate(27,358) rotate(102)">120E</text>
<text x="0" y="0" class="fs" transform="translate(139,328) rotate(100)">150E</text>
<text x="0" y="0" class="ft" transform="translate(139,328) rotate(100)">150E</text>
<text x="0" y="0" class="fs" transform="translate(347,310) rotate(94)">180W</text>
<text x="0" y="0" class="ft" transform="translate(347,310) rotate(94)">180W</text>
<text x="0" y="0" class="fs" transform="translate(419,894) rotate(-2)">60S</text>
<text x="0" y="0" class="ft" transform="translate(419,894) rotate(-2)">60S</text>
<text x="0" y="0" class="fs" transform="translate(362,688) rotate(-3)">30S</text>
<text x="0" y="0" class="ft" transform="translate(362,688) rotate(-3)">30S</text>
<text x="0" y="0" class="fs" transform="translate(342,432) rotate(-2)">0N</text>
<text x="0" y="0" class="ft" transform="translate(342,432) rotate(-2)">0N</text>
<text x="0" y="0" class="fs" transform="translate(363,193) rotate(-1)">30N</text>
<text x="0" y="0" class="ft" transform="translate(363,193) rotate(-1)">30N</text>
<text x="0" y="0" class="fs" transform="translate(422,37) rotate(0)">60N</text>
<text x="0" y="0" class="ft" transform="translate(422,37) rotate(0)">60N</text>
<path class="tb" d="M127,998h-2l-1,-1h-2l-1,-1h-2l-1,-1h-2v-1h-3v-1h-2l-1,-1h-2v-1h-2l-1,-1h-2v-1h-2v-1h-2l-1,-1h-2v-1h-2v-1h-2v-1h-2v-1h-2v-1h-2v-1h-2v-1h-2v-1h-2v-1h-1l-1,-1h-1v-1h-2v-1h-2v-1h-1v-1h-2v-1h-1l-1,-1h-1v-1h-2v-1h-1v-1h-2v-1h-1v-1h-1l-1,-1h-1v-1h-1v-1h-1l-1,-1h-1v-1h-1v-1h-1v-1h-2v-1h-1v-1h-1v-1h-1v-1h-1l-2,-2h-1v-1h-1v-1h-1v-1h-1v-1h-1v-1h-1v-1h-1v-1h-1v-1h-1v-1h-1v-1h-1v-1h-1v-1h-1v-2h-1v-1h-1v-1h-1v-1h-1v-1l-1,-1v-1h-1v-1h-1v-1l-1,-1v-1h-1v-1l-1,-1v-1h-1v-1l-1,-1v-1h-1v-2h-1v-2h-1v-1l-1,-1v-1l-1,-1v-1l-1,-1v-2h-1v-2h-1v-3h-1v-2h-1v-4h-1v-3h-1v-5h-1v-6l-1,-1v-17h1v-7h1v-4l1,-1v-3h1v-3h1v-3h1v-2l1,-1v-2h1v-2h1v-2h1v-2h1v-2h1v-2h1v-2h1v-1h1v-2h1v-1h1v-2h1v-1h1v-1l1,-1v-1h1v-1h1v-1l1,-1v-1h1v-1h1v-1h1v-1h1v-1h1v-1h1v-2h1v-1h1v-1h1v-1h1v-1h1l3,-3h1v-1h1v-1h1v-1h1v-1h1v-1h1v-1h1l1,-1h1v-1h1v-1h1v-1h1l1,-1h1v-1h1v-1h2v-1h1v-1h1v-1h2v-1h1v-1h2v-1h1v-1h2v-1h1l1,-1h1v-1h2v-1h1l1,-1h1v-1h2v-1h2v-1h2v-1h1l1,-1h1l1,-1h1l1,-1h1l1,-1h1l1,-1h2v-1h2v-1h2v-1h2l1,-1h2v-1h2v-1h2l1,-1h2v-1h3v-1h2l1,-1h2v-1h3v-1h3v-1h159v1h3v1h3v1h2l1,1h2v1h3v1h2l1,1h2v1h2v1h2l1,1h2v1h2v1h2v1h2l1,1h1l1,1h1l1,1h1l1,1h1l1,1h1v1h2v1h2v1h2v1h1l1,1h1v1h2v1h1l1,1h1v1h2v1h1v1h2v1h1v1h2v1h1v1h1v1h2v1h1v1h1l1,1h1v1h1v1h1v1h1l1,1h1v1h1v1h1v1h1v1h1v1h1v1h1l3,3h1v1h1v1h1v1h1v1h1v2h1v1h1v1h1v1h1v1h1v1h1v1l1,1v1h1v1h1v1l1,1v1h1v1h1v2h1v1h1v2h1v1h1v2h1v2h1v2h1v2h1v2h1v2h1v2l1,1v2h1v3h1v3h1v3l1,1v4h1v7h1v17l-1,1v6h-1v5h-1v3h-1v4h-1v2h-1v3h-1v2h-1v2l-1,1v1l-1,1v1l-1,1v1h-1v2h-1v2h-1v1l-1,1v1h-1v1l-1,1v1h-1v1l-1,1v1h-1v1h-1v1l-1,1v1h-1v1h-1v1h-1v1h-1v2h-1v1h-1v1h-1v1h-1v1h-1v1h-1v1h-1v1h-1v1h-1v1h-1v1h-1v1h-1v1h-1l-2,2h-1v1h-1v1h-1v1h-1v1h-2v1h-1v1h-1v1h-1l-1,1h-1v1h-1v1h-1l-1,1h-1v1h-1v1h-2v1h-1v1h-2v1h-1l-1,1h-1v1h-2v1h-1v1h-2v1h-2v1h-1l-1,1h-1v1h-2v1h-2v1h-2v1h-2v1h-2v1h-2v1h-2v1h-2v1h-2l-1,1h-2v1h-2v1h-2l-1,1h-2v1h-2l-1,1h-2v1h-3v1h-2l-1,1h-2l-1,1h-2l-1,1h-2Z"/>
<path class="tl" d="M169,986h1v1h-3l-1,-1h2v-1ZM114,989h-3l-1,-1h2l1,1ZM176,983h1l1,1v1h1l-1,1h-2l-1,1h-1l-1,-1l1,-1v-2h1v-1ZM124,980h2v1h-1ZM122,980l1,1h-1l-1,-1ZM136,977h1h-2ZM156,974v1l1,1h-5v-1l1,-1v-1l-1,-1l1,-1v1h1l1,1ZM158,964v1h-2v2h1l-2,2v1h1l1,1h1l4,4v1l1,1v1h-1v2h-1l-1,1h-1v1h-2l1,1h1v1h-2l1,1h1v1h3l1,1h3l1,1h3l1,1h1l1,1v-1h1v-1h2l2,-1l1,1h1v-1h4v-1h3l1,-1h-1v-1h-4l-1,-1l1,-1h1l2,-2h4l1,-1h1l2,-2h-1v-1h1v-1h2v-1l1,-1h1v1h1v-1h8v-1h3v-1h1l1,1h2v-1h1v1l1,-1h4v1h6v-1h3v-1h2v1h3l1,-1h3v-1h2l1,-1h2l1,-1h4v1h1v1h1l1,1h1l1,-1l1,1h2v1l-2,2h-1v1h1h-1v1h-1v1h2l2,-2h1v-1h3l1,-1h1v-1h2l1,-1h5v-1h1v1h5v1h1l1,-1l1,1l1,-1h1l2,-1v1l1,1h3l1,-1h2v1h1v1h4l1,-1v1h9l1,-1l-1,1v1h-1h3l1,1h2l-1,1v1h1v1h2v1h1v2h2l1,1v1h-1l-1,1h-2l-1,1h-3l-1,1h-2l-1,1h-2l-2,2v1h-5l-1,1h-2v1h-1v3h2l-11,4h-155l-11,-4h-1h2l1,-1l1,1h14l-1,-1h-7v-1h-2v-1h-3l-1,-1h4v-1h-2l-1,-1h-7l-1,-1l-2,-1l1,1l1,-1l2,1v-1h1v-1l-1,-1h-1h2v-1h2v-1h4l1,-1h5l1,-1l1,1v-1h1l1,1h1v-1l1,1h6v-1h-2l-1,-1h-1l-1,-1h4l1,1h1l1,-1h3l-1,-1h1l1,1l1,-1l1,1h3v-1l1,1h4v-1h2l1,-1v-1h-1v-1h-1v-1h-1v-1h-1v-2l-1,-1v-1h1v-2h1v-1h1v-1h1l1,-1l1,1ZM144,951l2,1h1v1h-1v-1v1h-4l-2,-2l-2,-1l2,1h2v-2h1v1ZM151,947h1v1h-2v1l-1,-1l1,-1ZM269,946h-1v-2h1l1,1ZM345,939v1h1l1,-1v1l-3,3v-1l-1,1h-1l1,-1v-1l1,-1v-1ZM368,943v1l1,-1v1h-1l-3,3h-1l-1,1h-1l-2,2h-2v1h-1v-1h-1v-1l4,-2h1l1,-1h2l2,-2h1l2,-2ZM376,936l-1,2l1,-1l-1,1l1,1h1l-2,2h-1l-2,2l-2,1h-1l2,-1v-2l1,-1l2,-1v-1l1,-1v-3l1,-1v1l1,1ZM382,913l-1,1v-2l-1,-1v-1h1v1l1,1ZM397,906v1l-1,1h-1v-1l1,-1v1ZM398,906h-1v-1h1l1,-1v1ZM10,905v-1ZM386,904v-1ZM386,901v2h-1v-1ZM259,895v2l1,1h-1v1v-1v2h-1v3l-3,6v2h-1l-1,1l-1,-1h-1v-5h1v-2l1,-1h-1v-3h1v-1h1l2,-2h1v-1l1,-1v-1l1,-1v1ZM361,898v1h1v1h1l-1,1v2h1l-1,2v1l2,2v4h1l-1,2l1,1v3l-1,1v2l-3,3v1l-1,1l-1,2h-1l-1,2h-1l-4,4v1h-2l-1,1h-1l-1,1v-1h-1l1,-1h-1l-1,1h-1v-1h-1v-3h1l-1,-1v-1l1,-1l-1,1h-1l3,-3l-2,1h-1l-1,2v-4l-2,-2h-2l-1,1h-4l-2,2h-4l-1,1v-1l-1,1h-2v-1h-1l1,-1v-1h1v-3l1,-1v-7l1,1v-3l1,-1v-1l1,-1l-1,1l2,-2h1l1,-1h2l1,-1h2v-1h1l1,-1v-2l1,-1v2l1,-1v-1h1v-1l2,-2h2v1h2v-2h1l1,-1v-1h2v-1h-1h1l1,1h3l1,1h-1v1h-1v1l-1,1v1l2,2v1h1l1,1h1v-1l1,-1v-1l1,-1v-3l1,-1v-2h1v-1v3l1,1Z"/>
<path class="tl" d="M383,894h-1v-1v1ZM337,892l-2,-1h2ZM381,893h-1v-1h1ZM382,892v-1l-1,-1h1ZM341,892h-1l3,-3h2l-1,1h-1l-1,1ZM335,889h1v1h-3l1,-1ZM340,889v1h-3v-1h2ZM381,890v1l-2,-2h1v1ZM378,889v-1h-1v-1l1,1ZM325,887h2v-1l2,1v1h2l1,1l-1,1l-1,-1h-4l-1,-1h-1l-2,-1h-1l1,-2h1l1,1ZM353,886v1v-2ZM377,888h-1v-2l-1,-1h1v2h1ZM373,885l-1,1h-1l-1,1l-1,-1h-1l1,-1l1,1v-1h2v-2h1v1ZM345,882h-1v-1h1ZM349,881v2l-1,-1h-2v-1h2ZM374,884l-1,-1v-1l-1,-1h-1h2v2h1ZM353,878v3l2,1v-2l2,-1h1l1,1h1l1,1l4,2v1h1v1l2,1v1h-1v1l1,1v2h1v1h1h-1l1,1l-1,1v-1h-2l-1,-1v-3h-3l-1,1v1h-2l-2,-2v1h-2l1,-2h1l-1,-2v-1l-2,-1h-1l-1,-2l-1,1l-1,-1h1l-1,-1l1,-1h-1v-1h-1l-1,-1h2v-1ZM343,875l-1,1h-4v1l1,2v-1h2l-1,1h-1l1,2v1l1,2v1h-1v-2l-1,1v-1l-1,-1l1,-1h-1v4h-1v-3h-1v-1l1,-1v-4h1v-1h4l1,-1ZM347,875v1h-1v1l1,1h-1v-4h1ZM321,885h-1l-2,-2v-1l-2,-2l-1,-2v-2l-1,-1v-1l-4,-4v-1h2l3,3l1,2h1l2,2h1l-1,2h1v1l1,1h1v3ZM335,874l1,1h-1v3l-1,1v1l-1,3v-1l-1,1l-1,-1h-1v-1l-1,1l-1,-1h-1l-2,-4v-2l1,-1h2v-2h2v-1l1,-1v-1h1l1,-1v-2h1v1l2,2v1h-1l-1,2l1,1ZM344,864v3l-1,-1v2l-2,-2h1l-1,-1v1l-1,-1l-1,1v-1l1,-1h2v-1h1v-1l1,1ZM294,868h-1v-1l-1,-2l1,-2l1,1v1l1,1v1ZM137,863h-1l1,-1h1ZM341,861v1l-1,1l-1,-1l1,-1v-1v1l1,-1ZM335,863l-1,1v-1l1,-1v-1l1,-1v1l-1,1ZM338,859h2v1l-1,1v-1h-1ZM342,858l1,2h-1v1v-1h-1v-1h1h-1v-1ZM338,857l-1,1l-1,-1h1ZM336,849h1v6h1l2,1v2l-1,-1v-1v1l-1,-1h-2v-1h1h-1l-1,-1v-5ZM133,851v1h-1v-1ZM121,852h-1v-1h2v1ZM126,849h3v1h1v1h-2l-1,1v-1h-1v-2h-1ZM324,849l-1,1h-1v-2l1,-1h1v1ZM37,846v-2h1v2ZM38,844h-1v-1h1ZM119,845h2l1,1v1h1v1h2l-1,1h-3v-1h-1v-2h-2l-1,-1h-1h1h-2l-1,1h-1l2,-2h3ZM122,843h-1v-1l1,-1v1ZM334,843v1l-2,-2v-2l1,-1l1,1ZM122,839l-1,1v-1ZM123,839v1v-1h-1ZM340,825h1v1h-1v1h-1v-2ZM240,828l-2,2v-1h-1h2ZM229,828v1h-1ZM220,825v2h-1l-1,-1h-1v-1h2ZM214,821v3h-1v-3ZM344,820v1l1,1v1l-1,1h-1l-1,2l-1,-1v-1l-2,1l-1,1h-1l2,1v3l-1,-1v-1h-1l-1,-1l1,-1v-3h3v-3l1,1v-2h1l-2,-4v-1l3,3v1ZM214,820v1l-1,-1v-1l1,-1ZM340,810l1,-1l1,2h-1v2l-2,-1l1,2h-1l-1,-2l-1,-1h1l-1,-2l-1,-1l3,1ZM144,812l1,1h1h-2ZM147,809h-1l-1,-1h1ZM92,806h-1l-1,-1v-2h-1v-1h1l1,1v1l1,1ZM153,807l-1,1h1v1h2l-1,1h1v1l-1,2l-1,-1l1,-1l-2,1v-1h-3l1,-1h-1l4,-4h1Z"/>
<path class="tl" d="M90,797h1l-2,2v1v-3ZM332,800l3,3l-2,-1l1,2l2,2v1l-2,-2l-1,-2l-6,-6v-1h-1h1l3,3ZM198,806l-1,1h-2l1,-2v-1l2,-2h1v3ZM216,801l-1,2l-1,-1v-1h1ZM79,791h-1v-1h2ZM202,797l-1,2h2v1l-1,1h1l2,4h1v1l-1,1h1l-1,1h-3l-1,1h-2l2,-2h-1v-1h1l-1,-1v-1h2l-1,-1h-1v-2l-1,-1l1,-2v-1l1,1ZM75,786h-1v-1h1ZM141,790l-1,1v-1ZM139,790h-2l1,-1h1ZM78,780v1h1h-2v-1ZM139,786h1v1h1l-1,1h1l-1,1l-1,-1h-1l-2,1l1,-1h-1h1l1,-1l1,-2ZM193,787v1l1,1l-1,1h-3l-1,1l-1,-1h-2l1,-1h-1h1v-1h-2l1,-1h1l1,1l2,-1h2ZM147,784h-1l1,-1h2l-1,1ZM81,776v1l1,-1h2l-1,2h-3l-1,1h-1l-1,-1h1v-1h-1h1h-2l-1,1l8,-5v1l-1,2ZM135,780l-1,1v-1h-1l1,-1h1ZM322,771h-1ZM88,771h-1h2ZM139,780l-1,2l2,-1v1h-1v1l1,-1l2,-1l1,-1h2v2h-1v1l-1,1l-2,1h-1v-1l-1,1l-2,1v1h-3l-2,2h-1l-1,1l-2,1l-1,1l-1,2h1l-1,1v1h1l3,3l2,1h1l-2,2v2l1,1h1l2,-4h-1l4,-2v-1l1,-1v-1l-1,-1l2,-1l2,-4l1,1h1l1,-1v1l1,1h1v2l-1,1l1,1h2l1,-2h1v3l1,1l-1,1l1,1v1h1l1,1v1l1,1l-2,2h-2l-2,2h-1l-2,-1h-2l-2,1l-1,1l-2,1l-1,1l2,-1l3,-1h2l-1,1l-1,2v1l1,1l2,-1l1,-1v1h1l-4,2h-1l-2,1v-1l2,-1h-3v1h-1l-1,1h-1l-2,2l1,1v-1v1h-3l-1,1l2,-1v1h-2l-2,2v1l-1,1l-1,-1l1,-1l-1,1v4l-1,1h-1l-1,1h-1l-3,3h-1v8l-1,1h-1v-3l-1,-1l1,-1l-1,-2l-1,1l-1,-1h-4v1h-1l-1,-1l-1,1l-1,-1l-2,2h-2v1h-1v3l-1,1v1l-1,2v4l1,1v1h1v1l1,-1h3v-1l1,-1v-1l1,-1h3v1l-1,1v2l-1,1v-1v2l-1,1v1h5v1h1v1l-1,1v3l-1,1h1v2h1v1h2l1,-1h1v1h1l1,1l1,-1v-2l1,-1h2l2,-2v2h-1h1v1l-1,1v1h1v-3h1v-1h1v1h1v1h3l1,1l1,-1h1l1,1h1v1l1,1h1v1h1v1l1,1l2,1v-1h1l1,1h1l1,1v1h1v1l1,2v1l-1,1l1,1h2v1v-1l4,2v1h1l3,1h1l2,1l2,2h2v5l-1,1l-1,2l-2,2v9l-1,2v2h-1v1h-2l-1,1h-1l-3,3v5l-1,2l-2,2v2l-2,2v-1l-1,1l-1,-1h-1v-1v1l1,1v1l1,1v2l-2,1h-3l1,1v2l-1,1l-1,-1h-1l1,2h2l-2,2l1,1v1h-1l-1,1v1l2,1h1v1l-1,1v2h-1v1l2,2h-1l-1,1v1h-1l-2,-1l-3,-3l-1,-3v-1l1,-1h-2l1,-2l-1,-2h1v-2l-1,-1v2l-1,-2v-4l-1,-1l-1,-2h1v-6l-1,-2v-8l-1,-2v-6l-1,-2l-1,-1l-2,-1l-3,-2l-1,-1v-1l-1,-2l-1,-3l-2,-3l-2,-2v-1l-1,-2l2,-2v-1h-1v-3l1,-1v-1h1v-2h1l1,-1v-5l-1,-1v-2h-1v1h-1v1h-1l-1,-1h-2v-2h-1v-1v1h-1v-3l-2,-2h1h-2v-1h-2l-1,-1l-1,-2h-1l-1,-1v1h-2l-1,-1h-2l-2,-2h-1l-1,-1v-1h-1v-3h1l-1,-1v-3l-1,-1v-1l-1,-1v-3h-1v-5l-1,-1l-1,1v4h1l-1,1h1v5h1v2h-1v-1l-1,-1v-3l-1,-1v1v-1h-1v-1h1v-9h-1v-1h-1v-9l2,-2v-1l1,-2l2,-2l1,-2l1,-1v-1h1v1l2,-2h-1v-2l-1,-1v-1l1,-1l-1,-1l1,-1v-1l1,-1l-1,-1l1,-1v-1l1,-1l-1,-1h-1v-2h-1v-1h-1l-1,-1h-1l-1,1h-4l1,-1l2,-1h-1l-1,1l-2,1h-1l-1,1l-2,1h-2l-2,1h-1l-1,1h-3l-1,1h-2l1,-1h2l2,-1h2l2,-1h1l2,-1l1,-1h-3l1,-1l-1,1h-1l2,-2h-1v-1l2,-2l2,-1h3l1,-1h1l1,-1h-3v-2h4l1,1l1,-1v-3h4l1,-1h2l2,-1l1,1l1,-1h1l-1,1h1l1,1h2l1,1h2v1l1,1l1,-1h6l1,-1v2l2,-1l-1,1h2l1,1h2v1l-2,1h4v1l2,-2h2v1h1l1,1h2v-1h1l1,1l-1,1l1,-1h1l1,-1v-2l1,-1l2,-1l1,1l-2,2Z"/>
<path class="tl" d="M128,774l-1,1h4l-1,1h1l2,-2v1l-1,2v1l1,1h-2v1h-8v-1h-1v-1h4l-1,-1h-3l2,-1h-1l1,-1h1ZM135,774l-2,1v-1h1ZM152,776v1l-1,-1l-1,1v-2h2ZM146,776v1l1,-1l2,-1v2h3l1,1l-1,1l2,-1v1l1,1v2h-1l2,2v1h1v1l-2,1h-1l-1,-2l-1,1v1l1,1v2l-1,1l-2,-2v1l1,1h-2l-2,-2v-1l-1,-1v1h-3v-1l1,-1h3l1,-1l2,-1v-1l-1,-1h-1l1,-1l-1,-1h-5l-1,-1h-1l1,-1h-1l1,-1l2,-1l1,-1h2ZM138,774h2l-1,1h-1l1,1l-2,1h-2v-2l1,1v-1ZM298,772h-2v-1ZM141,776l-2,1v-1l2,-2h2l1,1l-2,1ZM122,776h-2l-1,-1h1l2,-1l2,-2h2v1h2v1h-1l-3,1h-2ZM299,769v1h-3v-1h1ZM143,773v1l-1,-1h-1l1,-1h1l1,1ZM295,769l1,1h-2l-1,1l-2,-1l-1,-1h2ZM143,771h-1v1l-1,1h-2l1,-1h-1l1,-1h2ZM136,771h1v1h-4l-2,1h-1l1,-1h-1l-1,-1l2,-1h1l2,1l1,1v-2h2ZM246,780h-3l-2,-1v-1l1,-2h-1l1,-1l-1,-1h1l4,-2h2l-1,1l-2,1l-1,1v2l-1,1l1,1ZM145,770l1,1h1l-1,1h1l1,1h4v1h-7l-1,-1l1,-1v-1h-2l1,-1ZM134,769l-2,1h-4l2,-1h3ZM271,770l1,1v-1h2l2,1h1v1l-1,1h1l2,1v-1l1,1l1,-1h2l1,1h3l-2,-1h5l1,1v1h2l2,1l-1,-1h1l1,-1l2,1v-1h1l-2,-1h8l3,1l1,-1h2l2,2h2v-1h3l3,1v-1h-2v-1h7l8,5h-1l1,1l2,1h2v1h-1v1h-1l1,1v2l-2,-1v2l-1,-1v1h-1l2,2v1h1l3,2h-1l1,1h1v1l1,2h-1l1,2l1,1l-4,-2l-4,-3l-1,-2l-1,-1v-3l-1,-2v-1l-2,-2l-1,1l2,2l-3,-1l-1,1l1,2l1,1h-1l-1,1l-1,-1h-1v1h-4v7h1l2,1h1l-1,-1h1l3,1l1,2l1,1l1,2l2,2v9h-1l-1,-1v2h-1v1l1,1v1h-1v1l1,1h1l2,2v1l1,1v1l-1,1h-1l-1,-2l-1,-1h1l-2,-1v-1v1v-1h-1v-1l-1,-1h-2v1h-1l-1,-1l1,-1l-1,-1l-1,1v2h-1v1l2,2h1v-1h2l1,1l-2,1v2l2,2l1,2l2,1v2h1v6l-2,4l-1,1h-1v1l-1,-1v1l-2,1h-1v2l-1,-1v-1h-2l-1,2v2l1,1l1,2l2,2l1,3v4l-2,1v1l-2,1v-2l-1,-1h-1v-1l-2,-2h-1v-1h-1v6h1v3l1,1h1v1h1v1l1,1v3h1v2h-1l-2,-2v-1l-1,-1v-1l-1,-1v-2l-1,-1v-1h-1v-6l-1,-1v-1l-1,-2v-2l-1,-1l-2,2h-1v-3l-1,-2v-1h-1l-2,-2v-1l-1,-1h-1v2l-1,-1v1h-2v2l-2,1l-1,2v1l-2,2h-1v8l-1,1l1,1h-1l-1,1l-1,-1l-1,-2v-1l-1,-1v-1l-1,-2v-1l-3,-6v-3l-2,1h-1l-1,-2v-1l-2,-1l-1,-1v-1l-1,-1l-2,1h-5l-1,-1h-2v-2h-1l-1,1h-2l-3,-3l-1,-2l-1,1v-1l-1,1v2l1,1h1l1,1v2l1,1l-1,-1l1,-1v2h1v1l1,-1h2v-1l1,-1v-1v2l2,2h1l2,2l-1,1v1h-1v3h-1v1h-1v1h-2v1h-1l-2,2h-1l-2,2v-1l-1,1h-2v1h-2v-2l-1,-1v-3h-1v-1l-1,-1v-1l-1,-1h-1v-1l-1,-1v-3h-2v-2l-1,-1v-1l-2,-2v-1v1l-1,1l-1,-1l-1,-2l1,2l1,1l1,2v1l2,2h-1l2,2v1l1,1h-1l1,2v1l1,1l1,2v1l1,1l2,1v1h1v1h1v1l-1,1h1l1,1h3l1,-1h3v-1h1v2l-1,1v3l-1,1l-3,6l-1,1l-2,1l-1,1l-1,2v1h-1v1h-1v2l-1,1l-1,2l1,1v4l1,1v7l-1,1h-1l-3,3h-1v1l-1,1v2h1l-1,1h1v1l-1,1h1l-1,1h-1l-2,2v3l-3,3v1l-2,1v1l-1,1h-2v1l-1,-1v1l-1,-1l-1,1h-2l-1,1l-1,-1h-1v-5l-1,-1v-2l-1,-1v-1l-1,-1v-5l-1,-1v-1l-1,-2v-1l-1,-1v-3l1,-1v-3h1v-1l1,-1v-1h-1v-5l-1,-1v-2l-3,-3l-1,-2l1,-1v-5l-1,-1v-1l-1,1h-2l-1,-1v-1l-1,-1h-2l-1,1h-2l-1,1h-6l-1,1l-4,-4h-1l-1,-1v-1l-1,-1v-1h-1v-1l-1,-1v-1h-1v-3h-1l1,-1v-1h1l-1,-1l1,-1v-4l-1,-1v-1h1v-2l1,-1v-1h1v-2h1l1,-2h1l2,-2v-3l3,-3l1,-2v-1h1l1,1h2l1,-1h2l1,-1h4l1,-1h1v1h1l1,-1h1v1l1,-1v1h-1v1h1v2h-1v1h1v1h3l2,2h1l2,2l1,-1v-2l1,-1h2l1,1h1l1,1h2l1,1h1v-1h2l1,1v-1h1l1,1v-2l1,-1v-5h-2l-1,1l-1,-1h-2v1l-1,-1h-2v-1l-1,-1v-2l1,-1h1v-1h2l1,-1h1l2,-1l2,1l1,1h2l1,-1v-2h-1l-2,-2h-1l-1,-1l1,-1l-1,-1h2l-1,-1v1h-2l-1,1v1h1l-1,1h-1v-1h-1l1,-1h-2v-1h-1v1l-1,1v1h-1v4l1,1h-2v1h-1v-1h-2l1,1h-2v1l1,1h-1h1l1,1v1l-1,-1v1h-1l1,1h-2v-2l-1,-1v-1h-1v-3h-1v-1h-1l-1,-1h-1l-1,-1v-1l-1,-1v1v-1h-2v1l2,2v1l1,1h1l1,1h1l1,1v1l-1,-1h-1v1h1v1h-1v1h-1v-1h1l-1,-1v-1h-1l-1,-1h-1l-2,-2l-1,-2h-2v1h-4l-1,1v2h-2v1l-1,2h1l-1,1v1h-1l-1,1h-2l-1,1l-2,-2v1h-2l1,-1v-1h-1v-2l1,-1v-3l-1,-1l2,-1l1,1h5v-4l-1,-1v-1h-2v-1h3v-2l1,1l2,-1v-1h1l1,-1l1,-2l1,-1h2v-5h2l-1,1h1v1l-1,1v1h1v1l1,-1h2v1h1l2,-2l1,1h1v-1h1v-3l1,-1l1,1v-1l-1,-1v-1h4l1,-1h-4l-1,1l-2,-2v-4l2,-1v-1l-1,-1l-2,2l-1,2l-1,1v3h1v2h-1v2l-1,2h-1v1h-1v-2l-1,-1l-1,-2l-1,-1l-1,2h-1l-2,-1v-5l2,-1l3,-3l2,-3l3,-3h2l1,-2h3l2,1l-1,1h2l1,1h3l3,1l1,1v1l-1,1h-1l-3,-1h-1l2,1v2l1,1h1v-1h-1l1,-1l2,1v-1l1,-2h1l1,1v-1l-1,-1v-1l-1,-1l2,1h1l-1,1l1,1h1v-1l1,-1l2,-1h1v1l1,-1h1l1,-1l1,1l1,-1h-2l1,-1h2l1,1l4,1v-1h-2v-1h-1l-1,-1v-3h2l1,1v1h1l1,1l1,2h1v3l1,1v-1h1l-1,-1l1,-1h-1l-2,-2v-1l-2,-1l1,-1l-1,-1h1l1,2l-1,-1l1,-1h2l1,1l-1,-1l-1,-2h4l-2,-1v-1h1l1,-1h3l1,-1h1v-2l2,1h-1ZM253,820l1,1v2h-1v1l1,1h1l1,1h3l-1,-1v-2h-1v-2h1v-1l-1,-1h-1l1,1l-1,-1v-1h-2v-2h-1h1v-2l1,1v-3h-2l-1,1h-1v1h-1l-1,2l2,1v1l1,1Z"/>
<path class="tl" d="M146,770h-1v-1h1l1,1ZM137,769h-2l1,-1h1l1,1ZM220,771l-1,1h-1v-1h-1l2,-1v1ZM139,768h-2l1,-1v1ZM146,769h-1v-1h1l1,1ZM144,769h-1l-1,-1h-1h1v-1h1l1,1ZM268,768l-3,1v-2ZM215,769l3,1h-2v3h-1l-2,-1h1l-1,-1l-2,-1v-1l1,-1l1,1h1v-1h1ZM220,768h1l-1,1h-4l-1,-1h3ZM234,767l-1,1h-1v-1h-1h4ZM264,768h-4l-2,-1l-1,-1h1l1,-1l4,2ZM153,767v1h-1l-2,1h-2v-1h1h-1v-1l1,-1h2v-1h1v1h1ZM167,764h3v1h-3l-1,1h-1l-1,1l-2,1h-3v1h-1v1h-2l-2,1h1l-2,1h-4l-1,-1h2v-1h2v-1h-1h1l1,-1h1l-1,-1h4l-1,-1h-3v-1l1,-1h6v-1h3v1l2,-1l1,1ZM190,764l3,1h-6v1h5l-1,1l2,-1h4v1l-2,1h-1l-2,2v2l1,1h-2l1,1l-1,1v1h-1l1,1h-3l1,1v1l-1,-1l-1,1h1l1,1v1h-2l-1,-1v1l-1,1h3l-4,2h-3l-1,1l-4,2h-1l-2,1h-1v1l-2,2v1l-1,1l-1,2h-1l-1,-1h-1l-1,-1v-2l-1,-1v-1l1,-1l-1,-2l1,-1l1,-2h1l1,-1v-1l-1,1h-1v-1l1,-1h1l-1,-1h-1l1,-1v-4l-1,-1h-5v-1l-1,-1h1l-1,-1l1,-1h2l3,-1h1l-2,-1h1l3,-1h1v-1h9l1,1l-1,-1h1l2,-1h3l2,-1Z"/>
<path class="th" d="M35,908v1Z"/>
<path class="tg" d="M66,970h1l1,-1h4v-1h5v-1h5v-1h6v-1h6l1,-1h7v-1h8v-1h9l1,-1h11v-1h14v-1h20v-1h79v1h20v1h14v1h11l1,1h9v1h8v1h7l1,1h6v1h6v1h5v1h5v1h4l1,1h1M21,927h6v-1h7v-1h8v-1h10v-1h10v-1h12v-1h14v-1h18v-1h23v-1h38v-1h75v1h38v1h23v1h18v1h14v1h12v1h10v1h10v1h8v1h7v1h6M5,877h399M21,826h4v1h7v1h8v1h9v1h10v1h11v1h14v1h16v1h21v1h32v1h103v-1h32v-1h21v-1h16v-1h14v-1h11v-1h10v-1h9v-1h8v-1h7v-1h4M66,783v1h5v1h4v1h5l1,1h5v1h6l1,1h6l1,1h7v1h10v1h10v1h13l1,1h17v1h36v1h21v-1h36v-1h17l1,-1h13v-1h10v-1h10v-1h7l1,-1h6l1,-1h6v-1h5l1,-1h5v-1h4v-1h5v-1M140,755h-1v1h-3v1h-2v1h-2v1h-2v1h-2v1h-2l-1,1h-1l-1,1h-1l-1,1h-1v1h-2v1h-2v1h-2v1h-1l-1,1h-1v1h-2v1h-1l-1,1h-1v1h-2v1h-1v1h-2v1h-1v1h-2v1h-1v1h-1l-1,1h-1v1h-1v1h-2v1h-1v1h-1v1h-1v1h-2v1h-1v1h-1v1h-1v1h-1v1h-1v1h-1l-1,1h-1v1h-1v1h-1v1h-1v1h-1v1h-1v1h-1v1h-1v1h-1v1l-1,1v1h-1v1h-1v1h-1v1h-1v1h-1v1l-1,1v1h-1v1h-1v1h-1v2h-1v1h-1v2h-1v1h-1v2h-1v1h-1v2h-1v2h-1v1h-1v2h-1v2h-1v2h-1v2h-1v2l-1,1v2h-1v2l-1,1v2h-1v3h-1v4h-1v4h-1v5h-1v9h-1v13l1,1v8h1v5h1v4h1v4h1v3h1v3h1v2h1v3h1v2h1v2h1v2h1v2h1v2h1v2h1v1l1,1v1h1v2h1v1h1v2h1v1h1v1h1v2h1v1h1v1l1,1v1h1v1h1v1h1v1l2,2v1h1v1h1v1h1v1h1v1h1v1h1v1h1v1h1v1h1v1h1v1h1v1h1v1h1v1h2v1h1v1h1v1h1v1h1v1h1l1,1h1v1h1v1h1v1h2v1h1v1h1l1,1h1v1h1v1h2v1h1v1h2v1h1l1,1h1v1h2v1h1v1h2v1h2v1h1l1,1h1v1h2v1h2v1h2v1h2v1h2v1h2v1h2v1h2l1,1h2v1h2v1h2M153,755h-1v1h-2v1h-2v1h-1v1h-2v1h-2v1h-1v1h-2v1h-1v1h-2v1h-1v1h-2v1h-1v1h-1v1h-2v1h-1v1h-1l-1,1h-1v1h-1v1h-1v1h-1v1h-1l-1,1h-1v1h-1v1h-1v1h-1v1h-1v1h-1v1h-1v1h-1v1h-1v1h-1v1h-1v1h-1v1h-1v1h-1v1h-1v1h-1v1h-1v1l-2,2v1h-1v1h-1v1h-1v1l-1,1v1h-1v1h-1v2h-1v1h-1v1l-1,1v1h-1v2h-1v1h-1v2h-1v1h-1v2h-1v2h-1v2h-1v2h-1v2h-1v2h-1v2h-1v3h-1v2h-1v3h-1v3h-1v3h-1v3h-1v4l-1,1v4h-1v6l-1,1v30h1v6h1v5h1v4h1v3h1v3l1,1v2l1,1v2h1v3h1v2h1v2h1v2h1v2l1,1v1h1v2h1v2h1v2h1v2h1v1h1v2h1v1h1v2h1v1h1v2h1v1h1v1h1v2h1v1h1v1h1v1l1,1v1h1v1h1v1h1v1h1v1h1v1h1v1l3,3v1h1l3,3h1v1h1v1h1v1h1v1h1v1h1v1h1v1h1l1,1h1v1h1v1h1v1h1l1,1h1v1h1v1h1l1,1h1v1h1v1h2v1h1v1h2v1h1v1h2v1h2v1h1v1h2v1h1l1,1h1v1h2M166,755h-1v1h-1v1h-1l-1,1h-1v1h-1v1h-1v1h-1v1h-1v1h-1l-2,2h-1v1h-1v1h-1v1h-1v1h-1v1h-1v1h-1v1h-1v1h-1v1l-2,2v1h-1v1h-1v1h-1v1h-1v1l-1,1v1h-1v1h-1v1h-1v2h-1v1h-1v1l-1,1v1h-1v1h-1v2h-1v1h-1v2h-1v2h-1v1h-1v2h-1v2h-1v2h-1v1l-1,1v1l-1,1v1l-1,1v2h-1v2h-1v2h-1v3h-1v2h-1v3h-1v3h-1v3h-1v3h-1v4h-1v4h-1v5h-1v6h-1v8h-1v30h1v7l1,1v5h1v5h1v4h1v4h1v3h1v3h1v3h1v3h1v3h1v2h1v2h1v2l1,1v2h1v2h1v2h1v2h1v1h1v2h1v2h1v2h1v1h1v2h1v1h1v2h1v1l1,1v1h1v1h1v2h1v1h1v1h1v1l1,1v1h1v1h1v1h1v1l1,1v1h1v1h1v1h1v1h1v1h1v1h1v1h1v1h1v1h1v1h1v1h1v1h1v1h1v1h1v1h1l2,2h1v1h1v1h1v1h1v1h2v1h1"/>
<path class="tg" d="M179,755h-1v1h-1v2h-1v1h-1v1h-1v1h-1v2h-1v1h-1v1l-1,1v1h-1v1l-1,1v1h-1v1l-1,1v1h-1v2h-1v1l-1,1v1h-1v2h-1v2h-1v2h-1v2h-1v2h-1v2h-1v2h-1v2h-1v2l-1,1v2h-1v2l-1,1v2h-1v3h-1v3h-1v3h-1v3h-1v4h-1v4h-1v4h-1v4h-1v5l-1,1v5h-1v8h-1v11h-1v29l1,1v10l1,1v7h1v6h1v5h1v4l1,1v4h1v3l1,1v3h1v3h1v3h1v3h1v3h1v3h1v2h1v3h1v2h1v2h1v2l1,1v2h1v2h1v1l1,1v1l1,1v1h1v2h1v2h1v1l1,1v1h1v2h1v1h1v2h1v1h1v2h1v1h1v1l1,1v1h1v1h1v1h1v2h1v1h1v1h1M192,755h-1v3h-1v2h-1v3h-1v3h-1v3h-1v3h-1v3h-1v3l-1,1v3h-1v4h-1v4h-1v4l-1,1v4h-1v5h-1v6h-1v6l-1,1v7h-1v8h-1v11l-1,1v18h-1v29l1,1v18h1v11h1v8l1,1v7h1v6h1v6h1v5h1v5h1v4h1v4h1v4h1v4h1v3h1v3l1,1v3h1v2l1,1v2h1v3h1v3h1v2h1M205,755v243M217,755h1v3h1v2h1v3h1v3h1v3h1v3h1v3h1v3l1,1v3h1v4h1v4h1v4l1,1v4h1v5h1v6h1v6l1,1v7h1v8h1v11l1,1v18h1v29l-1,1v18h-1v11h-1v8l-1,1v7h-1v6h-1v6h-1v5h-1v5h-1v4h-1v4h-1v4h-1v4h-1v3h-1v3l-1,1v3h-1v2l-1,1v2h-1v3h-1v3h-1v2h-1M230,755h1v1h1v2h1v1h1v1h1v1h1v2h1v1h1v1l1,1v1h1v1l1,1v1h1v1l1,1v1h1v2h1v1l1,1v1h1v2h1v2h1v2h1v2h1v2h1v2h1v2h1v2h1v2l1,1v2h1v2l1,1v2h1v3h1v3h1v3h1v3h1v4h1v4h1v4h1v4h1v5l1,1v5h1v8h1v11h1v29l-1,1v10l-1,1v7h-1v6h-1v5h-1v4l-1,1v4h-1v3l-1,1v3h-1v3h-1v3h-1v3h-1v3h-1v3h-1v2h-1v3h-1v2h-1v2h-1v2l-1,1v2h-1v2h-1v1l-1,1v1l-1,1v1h-1v2h-1v2h-1v1l-1,1v1h-1v2h-1v1h-1v2h-1v1h-1v2h-1v1h-1v1l-1,1v1h-1v1h-1v1h-1v2h-1v1h-1v1h-1M243,755h1v1h1v1h1l1,1h1v1h1v1h1v1h1v1h1v1h1l2,2h1v1h1v1h1v1h1v1h1v1h1v1h1v1h1v1h1v1l2,2v1h1v1h1v1h1v1h1v1l1,1v1h1v1h1v1h1v2h1v1h1v1l1,1v1h1v1h1v2h1v1h1v2h1v2h1v1h1v2h1v2h1v2h1v1l1,1v1l1,1v1l1,1v2h1v2h1v2h1v3h1v2h1v3h1v3h1v3h1v3h1v4h1v4h1v5h1v6h1v8h1v30h-1v7l-1,1v5h-1v5h-1v4h-1v4h-1v3h-1v3h-1v3h-1v3h-1v3h-1v2h-1v2h-1v2l-1,1v2h-1v2h-1v2h-1v2h-1v1h-1v2h-1v2h-1v2h-1v1h-1v2h-1v1h-1v2h-1v1l-1,1v1h-1v1h-1v2h-1v1h-1v1h-1v1l-1,1v1h-1v1h-1v1h-1v1l-1,1v1h-1v1h-1v1h-1v1h-1v1h-1v1h-1v1h-1v1h-1v1h-1v1h-1v1h-1v1h-1v1h-1v1h-1v1h-1l-2,2h-1v1h-1v1h-1v1h-1v1h-2v1h-1M256,755h1v1h2v1h2v1h1v1h2v1h2v1h1v1h2v1h1v1h2v1h1v1h2v1h1v1h1v1h2v1h1v1h1l1,1h1v1h1v1h1v1h1v1h1l1,1h1v1h1v1h1v1h1v1h1v1h1v1h1v1h1v1h1v1h1v1h1v1h1v1h1v1h1v1h1v1h1v1h1v1l2,2v1h1v1h1v1h1v1l1,1v1h1v1h1v2h1v1h1v1l1,1v1h1v2h1v1h1v2h1v1h1v2h1v2h1v2h1v2h1v2h1v2h1v2h1v3h1v2h1v3h1v3h1v3h1v3h1v4l1,1v4h1v6l1,1v14l1,1h-1v15h-1v6h-1v5h-1v4h-1v3h-1v3l-1,1v2l-1,1v2h-1v3h-1v2h-1v2h-1v2h-1v2l-1,1v1h-1v2h-1v2h-1v2h-1v2h-1v1h-1v2h-1v1h-1v2h-1v1h-1v2h-1v1h-1v1h-1v2h-1v1h-1v1h-1v1l-1,1v1h-1v1h-1v1h-1v1h-1v1h-1v1h-1v1l-3,3v1h-1l-3,3h-1v1h-1v1h-1v1h-1v1h-1v1h-1v1h-1v1h-1l-1,1h-1v1h-1v1h-1v1h-1l-1,1h-1v1h-1v1h-1l-1,1h-1v1h-1v1h-2v1h-1v1h-2v1h-1v1h-2v1h-2v1h-1v1h-2v1h-1l-1,1h-1v1h-2"/>
<path class="tg" d="M269,755h1v1h3v1h2v1h2v1h2v1h2v1h2l1,1h1l1,1h1l1,1h1v1h2v1h2v1h2v1h1l1,1h1v1h2v1h1l1,1h1v1h2v1h1v1h2v1h1v1h2v1h1v1h1l1,1h1v1h1v1h2v1h1v1h1v1h1v1h2v1h1v1h1v1h1v1h1v1h1v1h1l1,1h1v1h1v1h1v1h1v1h1v1h1v1h1v1h1v1h1v1l1,1v1h1v1h1v1h1v1h1v1h1v1l1,1v1h1v1h1v1h1v2h1v1h1v2h1v1h1v2h1v1h1v2h1v2h1v1h1v2h1v2h1v2h1v2h1v2l1,1v2h1v2l1,1v2h1v3h1v4h1v4h1v5h1v9h1v13l-1,1v8h-1v5h-1v4h-1v4h-1v3h-1v3h-1v2h-1v3h-1v2h-1v2h-1v2h-1v2h-1v2h-1v2h-1v1l-1,1v1h-1v2h-1v1h-1v2h-1v1h-1v1h-1v2h-1v1h-1v1l-1,1v1h-1v1h-1v1h-1v1l-2,2v1h-1v1h-1v1h-1v1h-1v1h-1v1h-1v1h-1v1h-1v1h-1v1h-1v1h-1v1h-1v1h-1v1h-2v1h-1v1h-1v1h-1v1h-1v1h-1l-1,1h-1v1h-1v1h-1v1h-2v1h-1v1h-1l-1,1h-1v1h-1v1h-2v1h-1v1h-2v1h-1l-1,1h-1v1h-2v1h-1v1h-2v1h-2v1h-1l-1,1h-1v1h-2v1h-2v1h-2v1h-2v1h-2v1h-2v1h-2v1h-2l-1,1h-2v1h-2v1h-2"/>
<rect x="12" y="880" width="34" height="42" fill-opacity="0" stroke="#ffffff" stroke-opacity="0.5" stroke-width="5.0"/>
<rect x="14" y="882" width="34" height="42" fill-opacity="0" stroke="#113311" stroke-opacity="0.8" stroke-width="5.0"/>
<rect x="13" y="881" width="34" height="42" fill-opacity="0" stroke="#45a249" stroke-opacity="0.9" stroke-width="5.0"/>
<rect x="691" y="691" width="309" height="309" fill="#ffffff" fill-opacity="1.0"/>
<rect x="694" y="694" width="302" height="302" fill="#000000" fill-opacity="1.0"/>
<rect x="700" y="700" width="300" height="300" fill="#70add3" fill-opacity="1.0"/>
<path class="zl" d="M715,916l-2,1l-1,-1l2,-2l1,1Z"/>
<rect class="zh" x="908.5" y="963.5" width="1" height="1"/>
<rect class="zh" x="912.5" y="926.5" width="1" height="1"/>
<rect class="zh" x="911.5" y="737.5" width="1" height="1"/>
<rect class="zh" x="878.5" y="950.5" width="1" height="1"/>
<rect class="zh" x="919.5" y="932.5" width="1" height="1"/>
<rect class="zh" x="906.5" y="929.5" width="1" height="1"/>
<rect class="zh" x="903.5" y="926.5" width="1" height="1"/>
<rect class="zh" x="903.5" y="926.5" width="1" height="1"/>
<rect class="zh" x="893.5" y="916.5" width="1" height="1"/>
<rect class="zh" x="776.5" y="770.5" width="1" height="1"/>
<rect class="zh" x="860.5" y="762.5" width="1" height="1"/>
<rect class="zh" x="858.5" y="755.5" width="1" height="1"/>
<rect class="zh" x="879.5" y="909.5" width="1" height="1"/>
<circle class="w1" cx="909" cy="963" r="7"/>
<circle class="c1" cx="909" cy="963" r="6"/>
<circle class="w1" cx="913" cy="927" r="7"/>
<circle class="c1" cx="913" cy="927" r="6"/>
<circle class="w1" cx="912" cy="738" r="7"/>
<circle class="c1" cx="912" cy="738" r="6"/>
<circle class="w1" cx="879" cy="951" r="7"/>
<circle class="c1" cx="879" cy="951" r="6"/>
<circle class="w1" cx="920" cy="933" r="7"/>
<circle class="c1" cx="920" cy="933" r="6"/>
<circle class="w1" cx="907" cy="930" r="7"/>
<circle class="c1" cx="907" cy="930" r="6"/>
<circle class="w1" cx="894" cy="917" r="7"/>
<circle class="c1" cx="894" cy="917" r="6"/>
<circle class="w1" cx="861" cy="763" r="7"/>
<circle class="c1" cx="861" cy="763" r="6"/>
<circle class="w1" cx="879" cy="909" r="7"/>
<circle class="c1" cx="879" cy="909" r="6"/>
<circle class="w1" cx="777" cy="771" r="6"/>
<circle class="c1" cx="777" cy="771" r="5"/>
<circle class="w1" cx="858" cy="756" r="6"/>
<circle class="c1" cx="858" cy="756" r="5"/>
</svg>
