<?xml version="1.0" encoding="UTF-8" standalone="no"?>
<svg xmlns:svg="http://www.w3.org/2000/svg" xmlns="http://www.w3.org/2000/svg" xmlns:xlink="http://www.w3.org/1999/xlink" height="1000" width="1000">
<!-- made with pythonshp (GPL): github.com/sanjayrao77/pythonshp , underlying data may come from naturalearthdata.com -->
<!-- 
COPYRIGHT: THIS SVG FILE IS RELEASED INTO THE PUBLIC DOMAIN
 -->
<!-- 
vars : {
	'cmdline' : 'pythonshp.py publicdomain wiki1 chile locatormap'
	'title' : 'Chile locator'
	'version' : '1.0.5'
}
 -->
<defs>
	<radialGradient id="watergradient" cx="500" cy="500" r="500" fx="500" fy="500" gradientUnits="userSpaceOnUse">
		<stop offset="0%" stop-color="#70add3"/>
		<stop offset="11%" stop-color="#6eaad0"/>
		<stop offset="22%" stop-color="#6ca7cc"/>
		<stop offset="31%" stop-color="#6ba5c9"/>
		<stop offset="41%" stop-color="#69a2c6"/>
		<stop offset="51%" stop-color="#679fc2"/>
		<stop offset="59%" stop-color="#669dbf"/>
		<stop offset="67%" stop-color="#649abc"/>
		<stop offset="75%" stop-color="#6297b9"/>
		<stop offset="81%" stop-color="#6095b6"/>
		<stop offset="87%" stop-color="#5f92b2"/>
		<stop offset="92%" stop-color="#5d8faf"/>
		<stop offset="95%" stop-color="#5b8dac"/>
		<stop offset="98%" stop-color="#598aa8"/>
		<stop offset="100%" stop-color="#5685a2"/>
	</radialGradient>
	<radialGradient id="landgradient" cx="500" cy="500" r="500" fx="500" fy="500" gradientUnits="userSpaceOnUse">
		<stop offset="0%" stop-color="#dddddd"/>
		<stop offset="11%" stop-color="#d7d7d7"/>
		<stop offset="22%" stop-color="#d1d1d1"/>
		<stop offset="31%" stop-color="#cccccc"/>
		<stop offset="41%" stop-color="#c6c6c6"/>
		<stop offset="51%" stop-color="#c0c0c0"/>
		<stop offset="59%" stop-color="#bbbbbb"/>
		<stop offset="67%" stop-color="#b5b5b5"/>
		<stop offset="75%" stop-color="#afafaf"/>
		<stop offset="81%" stop-color="#aaaaaa"/>
		<stop offset="87%" stop-color="#a4a4a4"/>
		<stop offset="92%" stop-color="#9e9e9e"/>
		<stop offset="95%" stop-color="#999999"/>
		<stop offset="98%" stop-color="#939393"/>
		<stop offset="100%" stop-color="#888888"/>
	</radialGradient>
	<radialGradient id="bordergradient" cx="500" cy="500" r="500" fx="500" fy="500" gradientUnits="userSpaceOnUse">
		<stop offset="0%" stop-color="#444444"/>
		<stop offset="11%" stop-color="#3f3f3f"/>
		<stop offset="22%" stop-color="#3a3a3a"/>
		<stop offset="31%" stop-color="#363636"/>
		<stop offset="41%" stop-color="#323232"/>
		<stop offset="51%" stop-color="#2d2d2d"/>
		<stop offset="59%" stop-color="#292929"/>
		<stop offset="67%" stop-color="#242424"/>
		<stop offset="75%" stop-color="#1f1f1f"/>
		<stop offset="81%" stop-color="#1b1b1b"/>
		<stop offset="87%" stop-color="#161616"/>
		<stop offset="92%" stop-color="#121212"/>
		<stop offset="95%" stop-color="#0e0e0e"/>
		<stop offset="98%" stop-color="#090909"/>
		<stop offset="100%" stop-color="#000000"/>
	</radialGradient>
</defs>
<style type="text/css">
<![CDATA[
.c1 {stroke:#45a211;fill-opacity:0}
.fs {font:14px sans;stroke:#ffffff;stroke-width:2px;stroke-opacity:0.8;text-anchor:middle}
.ft {font:14px sans;fill:#000000;fill-opacity:1;stroke-opacity:0;text-anchor:middle}
.sb {stroke:url(#bordergradient);fill-opacity:0}
.sg {stroke:#000000;fill-opacity:0.0;stroke-opacity:0.2}
.sh {fill:#45a211;stroke:#000000}
.si {stroke:#000000;fill-opacity:0;stroke-opacity:0.3}
.sl {fill:url(#landgradient);stroke:url(#bordergradient)}
.sp {stroke:url(#landgradient);fill-opacity:0}
.sr {stroke:url(#watergradient);fill-opacity:0}
.sw {fill:url(#watergradient);stroke:url(#watergradient);stroke-opacity:0.8}
.tb {fill:#eeeeee;stroke:black;stroke-width:2}
.tg {stroke:black;stroke-opacity:0.2;fill-opacity:0}
.th {fill:#45a211;stroke:#378100}
.tl {fill:#aaaaaa;stroke:black}
.w1 {stroke:#ffffff;fill-opacity:0;stroke-opacity:0.6}
]]>
</style>
<circle cx="500.0" cy="500.0" r="500.0" fill="url(#watergradient)"/>
<path class="sl" d="M411,8h3v-1h1l-1,1h-1h2v-1h6l1,-1h6l1,-1h3v1h1v-1h3v-1h8v-1l-1,1h-7v1h-1l1,-1h6l1,-1h16l1,-1h12l1,-1l-1,1h-1h1l2,-1v1h-1h1h-1v1v-1h-1h3l1,-1h1h-1h1h-1h1l1,-1h7v1v-1h6v1h-1v-1v1h5l1,-1h1l1,1h4v1l1,-1h5v-1h-1h1h-1h8l1,1h1h-1h4l1,1h1h-15l-3,1h-1l-1,1h-10l1,1h-4v1h-7l-1,1h-1h1h-3v1h-1h1h-3v1h-2l-1,1h-1l-1,1v1h-1v1h2v1l1,-1h4l2,2h1v1h-1v1h-1h1v-1h1v1l1,-1h13l1,1h5l1,1h2l1,1h7l1,1h3l-1,1l1,-1h6l1,1h7l1,1l-1,1l1,1h1v3h1l1,1h2v1h-1h3v1h3v1h1l1,1h-1h3l1,1h1l2,1v-1h-2v-1l1,-1h1v1h2v1v-1h1h-1l-1,-1h1v-1h1v-1h-1l-1,-1v-1h-1l-2,-2h1h-1h1l-1,-1h-1h1h-2v-1h-1l3,-1h6l1,-1h1l1,-1h1v-1h-1v-1h-1v-1h-1v-1h-2l-2,-1h-3l-2,-1h-1h1v-1h2l-1,-1h2l-1,-1h-1h1h-1l-1,-1h1h-1v-1h-1h1h-2v-1h-1l1,-1h1l1,1h8l1,1h10v1h2l1,1v-1h1l1,1h-1h3v1h6v1h1v-1h1v2h1h-2h3v1h1h-1h1v1h2v1h-1v-1h-2l1,1h7v1h1v1h-1h2v-1h1v1v-1h1v1h4v-1h1l1,1h1h-1v-1h1h-1h1h-1h1l-1,-1h1l1,1l-1,-1h-1h1h-1v-1h2v1h-1h4v1h2v1h1h-1h3v1h3v1h-1h3v1h-1h4l1,1h1h-1v1h3v1h3v1h1h-3l-2,-1l2,1h1l1,1h2l1,1h3v1h2l1,1h1v1h-1h5v1h1v-1l1,1h1l1,1h4v1h3v1h-10l2,1h-1h1h-1h5l1,-1h1l1,1h1l-1,-1h-1l3,1h1l1,1h1h-1l1,1h4l1,1h2l1,1h1v1l1,1h-1h2l1,1h-1l-1,-1v1h3v1h-3l-1,1l-1,-1h-6l-1,1h-1v1h-6l-1,-1h-5l-1,-1h-4l-2,-1h-5l-2,-1h-10v2h-7v1h-2v1h-1l-1,1l-1,-1h-3l-3,-1h2l1,1h3v1h1v1l-2,1l-1,1h-2l-1,1h-5l-2,1h-2v1h-1l-1,1h-4l2,1h-2l-2,1h4l3,1h9l3,1v-1h3v-1h1l1,-1v-2h1v-2h1l1,-1v-1l1,1h1l1,1h2l1,-1v1h2l1,1h1v2h1v1l1,1v1h1l1,1h1h-1h1v1h1v1v-1l1,1h1v1h1l-1,1l-1,-1l-1,1h-5v-1v1h-2v-1h-1v2h-4v1v-1h-2v2h-1l-1,1v2h1h-1v1h-1h2v1l2,1h-1h1l1,1h3l-1,-1h-1h2v2h-4v-1l-2,1h-1v-1h-1v-1h-1v2h-12l-1,1h-1v-1h-1v-1v3h-1v1h2v2l-1,1v1h-1v1h-1l-1,1h-1v-1h-2l-1,-1h-1v-2h2v-1v1h-2l-1,1h1v1l3,3h1v1h-1h1v2h-1l-1,2v1h-2v2l-1,-1v-1l2,-2h-1v-1h-1v-1h-2l-1,-1v-1h1l1,1v-1h-3l1,-1h-1v-1h1v1v-2h1v-1h1h-2v1h-1v-1v1h-2l1,1h1h-1v2l1,1h-1l-1,-1v1h1l1,1h1v1l-1,-1h-2l-1,-1v1v-1h-2v-1h1v-1h-1v1h-1v1h2l1,1l2,1h2l1,1v1h-1l-3,-2h-1l-1,-1l1,1h1l1,1h1v1h2v1h-1v1h1h-1l-2,-1h1l1,1h1v1h1h-2l-1,-1l-3,-1h-1l1,1h3v1h1v1h1l1,-1l1,1h1v1h1l1,2l2,2v1v-1l-2,-1v-1l-1,-1v-1h-1v1l2,2h-1v-1h-2v1v-1v1h-3v-1h-1l1,1h1l1,1l1,-1l1,1v1h1v-1h2v1l-2,1v1h-2v-1h-4l-1,-1v1l3,1h1l-1,1h-1l-2,-1l1,1l2,1l2,-1v1l-1,1h-6v-1v2h-2v1h-1v1v-1v2l-3,-1l-1,1h-2l-2,2v1l-1,-1v1l-1,1h-1l-1,1h-1v1h-5l1,1h-2v1h-1v1l-1,1h-1h1h-1v2h-1v1h-1v3l1,1v2h1l2,4l4,6h1l-1,1v1l2,2h-1l-1,-2v-1h-1v-2h-1l1,1v1l1,1l4,6l1,1v8h-1v3h-2l-1,1h-3l-1,-1h1v-1l-2,-2v-1h-2l-3,-3v-1l1,-1h-1l-1,1v-3h-1v1h-1l-1,-1l-2,-3h-1h1l1,-1v-1h1l-1,-1v1l-1,-1v1h-1v1v-1h-1l1,-3v-4l-1,-1l-4,-2l-3,-3l-3,-1h-2v1h-1l-2,1h-5v-1v1h1v-1h-2l-1,-1h1l-1,-1h1h-2l-3,-1h-2h1h-5v-1h-1v1h-1l-2,1l1,-1h-1l-1,1h-1v-1h-1v-1l-1,-1v2h-9l-1,1h-4l-1,-1h-1l-2,2h5v-1l1,1h-1v1h2v-1h1v2h-2l-1,1h2v1h3v1h1l-1,1h-2v-1h-1l-1,-1h-2l-2,-1l1,1v1l-1,1h-1v-1h-3v1l-2,-1h-2v-1l1,1v-1h-1v-1h-3v-1h-4v1h-6l-2,-1h-4l-1,1v-1h1v-1h-1v2h-2l-5,2l2,-1h-2l1,-1h-3l1,1v1l-1,1h-1v1l-1,1h-1l-2,1l-1,1h-2l-1,1v-1h-3v-1v2h1l-1,1h-1l-1,-1v2h-3v1l1,-1v1l-1,1h-2l1,1l-1,2h-3l1,1h1v5l2,2v2l-3,3v2l-3,6v7l-2,2l1,1v3l1,2h1l1,1v1l-1,1v-1l1,-1h-1l-1,-1l-1,-2l1,3v1h1l2,4v1l5,5l1,2v2l2,1l1,1v1h1h-1l1,1h5l2,1h1l2,2h3l3,-1h1l2,-1h5l1,-1h1l1,-1h5v1l1,1h2l2,-2v-1h-1l3,-1v-1h1l2,-2v-2l2,-2v-5h1v-2l4,-2l9,-1l2,-1h7l2,1h2v-1h-1h2l1,1h1v4h-1l-4,4v3h-1l-1,1v1h2v1h-2v1h1v-1h1v1l-1,1l-1,2v1l-1,1v2h-1v-1l-1,-1v-2h-1v1l-1,1v1h1l1,1v1l-1,2l-1,1l1,1l-1,1v5l-1,1v1l-1,1h-1l-2,2v1h2v1l1,-1l-1,-1l4,2h1v-1h2l1,-1h1v1h2l4,1l1,-1h6l1,-1h1l3,1h2l1,-1h1l3,1v1h1v-1h2l4,3v1l-2,-1h-1v1h1v-1l1,1h1v1h2v-1h-1l2,1l1,1h1v1l-1,1v-1l-1,1h1l1,3v1l-2,2v2l-1,3l1,3l-1,2l1,1v1h-1v-2h-1v2l1,1h-1v2h-1v1h1v1h1l-2,2v2l1,1v1h1v1l2,4l2,2h1l2,2v1h2l2,2v1l1,1v-1v2h1v1l2,-1l1,1v-1l-1,-1l1,1h1l1,2h4l2,-1l1,-1h2l3,-1l1,-1h1l1,-1h1l1,-1l2,1h2l1,1h4l3,2l3,1l1,2l3,2h-1v1l1,1v1h1v2l-1,1v1l-2,1l-1,-1h-1l1,1v1h-1l-1,1l-2,-2l-2,-3v-1h1v-2h1v-1l2,2h1l-2,-1v-1l-1,-1v1h-2v-1v1h-1v-2h-1v-1h-1l-1,-1h-1l-1,-1h-4v1h-1v1h-1v1l-3,2h-2l-1,1v1h1l1,2l2,1v2h-3v1h-4v-1l-1,-3l-1,-1h-1v2h-1l-3,-3v-1h-2l-1,-1h-2v-1l-1,1l-1,-1h-3v2l-3,-3v-1l-1,-1h-2l2,2h-3l-1,-1l1,-1v-3l-2,-2h-2l-1,-1l-2,-1h-1l-1,-1v-1l-3,-2l-1,-1h-1v1l1,1h2v1l-1,1v1h-1l-1,-2l-3,-1h-1l-1,-1v-2l1,-2v-1l-1,-1h-1h1l1,-1v-1l-2,-2l-4,-3l-4,-4l-2,-1h-1l-2,-2l-2,-1v-1h3v-1h-1v-2h-3v1h-1l-1,1h-1l-2,-1h-4l-3,-2h-5l-2,-2l-5,-1h-6l-4,-2l-3,-2h-1l-7,-7l-5,-3l-1,-1h-1l-2,-1h-1l1,1h2v1l-4,-2h-1v-1l-1,1v-1h-1l-1,1h2h-2l-1,1l-6,2l-3,2h-5l-3,-2h-5l-6,-2l-2,-1h-1l-1,-1h-6l-4,-2l-6,-1l-1,-1l-2,-1l-1,-1h-1l-2,-2h-1l-1,1l-3,-1h-1l-3,-1h-3l-4,-4h-2l-1,-1h-1l-3,-1l-1,-1v-1l-1,-1l-2,-1v-2l-1,-1h1v-1h2l1,-1l-1,-1h-1l3,-3v-2h-2v-2l-1,-1v-2l-1,-2l-2,-2l-2,-1l-1,-2l-3,-3l-4,-2h2v-1h-4v-1l-1,-1v-1h1l-2,-1h-2v-1h-3l1,-1h1v-1v1h-2l-1,1v-1h-1v-2l1,-1h1v-1h1h-1v-1l-1,-1h-2l-1,-1v-1h-2l-2,-2v-1l1,-1h-4l-1,-1l-1,-2h-1l-1,-1v-1h-1v-2h-1v-2l-2,-2v-3l-1,-1l1,-1v-2h-3v-1h-3v1l-1,-1h-2l-1,-1h-1l1,1l-1,1l-1,2v1h1v1l-1,1v4h1v1h1l1,1h1v1l1,1v1h1v1h1v1h1l1,1h-1l1,1l-1,1h1v1l2,2v1l1,1v1h1v2h1l-1,-1v-1h1l1,1v2l1,1l-1,2h1v2h1v2l2,2l-1,1v2l1,1h1v-1h1l1,1h1l1,1v2h2v1l-1,1v1h-1l-2,2h-1l-1,-1v-3h-1l-2,-1v-1h-1l-1,-1l-3,-1l-1,-1h-1v-1l-2,-1v-1l1,-2l1,-1l-1,-1l1,-1l-2,-2h-1v-1l-3,-1v-1h-2l-1,1h-1v-1h-2v-1h-2l-1,-1v-1h-1l-1,-1v-1h4l1,-1v1h1v-1h-1l2,-2v-2l-1,-1l-1,-2l-2,-1h-1l-1,-1h-1l-1,-1v-1h-1h1v-2h-1v-1l1,-1l-2,-1l1,-1l-2,-2l1,-1h-1h1v-1h-1v-1l-1,-1v-1l1,-1h-1v-3l-1,-1h-1l-1,-1h-1v1h-1l1,-1l-1,-1h-4l-1,-1h-1l-1,1l-1,-1l-1,1h-2v-2l1,-1v-1h-1v-1h-1v-1h-1v-2h-1v-1l2,-2v-1h-2v-3h1v1h1v-2l1,-1h3l1,-1h-1l-1,1v-1l-1,1h-2l-1,1v1v-1h-2v-1h1h-1v-1l-1,-1v-3h1v-1l1,-1l-1,-1v-1l1,-1v-1h1l3,-3v-2h1v-2l1,-1v-1l3,-3h1v-1h1v-1l2,-1l1,-2h1v-1l1,-1l3,-2v-1l2,-2v-1h3v-1l-1,1h-1v-1h1h-1h1l1,-1h-1l2,-1h-1v-1l1,-1v-2h1v-1h8v-1v1l-1,1l-2,1h-1v1l1,-1h-1v1v-1h2v-1h1l1,-1h1h-1v1h-1v1h-1v1v-1v1h-2l-1,1l1,-1h2v-1h2v-1h1v-1h1v-1h1h-1l1,-1h-1h1v-1h1h-1l1,-1h-2l1,-1h1h-1l1,-1h-1v1h-2l1,-1v1h-1v-1h1v-1h1l-1,1h-1l-1,1h-2v-1h1v-1h1v-1h1v-1v1h-1v1h-3v1h-3l1,-1h1l-2,1h-1h1v-1h1h-1h1h-1l-2,1h-1l-1,-1h1l1,-1h2v-1h3v-1l-1,1h-2l-1,1h-1v-1h1l1,-1h1l1,-1h2v-1h2v-1h1h-1v1h-1l-3,1h-1v1h-1l-2,2v-1l2,-1l1,-1h1h-1l-1,1h-1h1l2,-2h1h-1v-1h-1h1v-1h1l-1,1h1l1,-1h1h-1l1,-1l-1,1h-1l-2,1h-1v1h-2l1,-1h1v-1h2l1,-1h-1v1h-2v-1h2v-1h2l1,-1h1l1,-1l2,-1h-1v1v-1v1h-1l-2,1h1v-1h1l1,-1h1h-2v1h-1l-1,1h-1l-1,1h-1v1h-1v-1h1l2,-1h-1h1v-1h1v-1h1l-1,1h-2l-1,1h-1v1h-1v-1h2l2,-1l1,-1h-1h1h-1v-1h1h-1h1v-1h2v-1h1h-1v1h-1h1l-1,-1h2l1,-1l-1,1h-1l1,-1h1v-1h1h-1v1h-1l-1,1h-2v1h-2l-1,1l1,-1h1l1,-1h-1v1h-2v1v-1h1h-1v1h-2l-1,1h-1h1v-1h-1v1v-1h2v-1h1l-1,1h-1h1l1,-1h1h-1l-2,1l-1,1h-2l-1,1h-1h1l1,-1h1l1,-1h1l1,-1h2l1,-1h1l1,-1h1l1,-1h2l1,-1h1l1,-1h2l1,-1h2l1,-1h1l1,-1h2l1,-1h2l1,-1h1l1,-1h2l1,-1h2l1,-1h2l1,-1h2l1,-1h2l1,-1h2l1,-1h2l1,-1h2l1,-1h3l1,-1h2l1,-1h3l1,-1h2l1,-1h3l1,-1h3l1,-1h3l1,-1h3l1,-1h3l1,-1h4l1,-1h4l1,-1h3l1,-1h5l1,-1h1Z"/>
<path class="sp" d="M479,0h6M296,43h2l1,-1h1l1,-1h1l1,-1h2l1,-1h1l1,-1h1l1,-1h2l1,-1h1l1,-1h2l1,-1h2l1,-1h1l1,-1h2l1,-1h2l1,-1h1l1,-1h2l1,-1h2l1,-1h2l1,-1h2l1,-1h2l1,-1h2l1,-1h2l1,-1h2l1,-1h3l1,-1h2l1,-1h3l1,-1h2l1,-1h3l1,-1h3l1,-1h3l1,-1h3l1,-1h3l1,-1h4l1,-1h4l1,-1h3l1,-1h5l1,-1h1"/>
<path class="sl" d="M795,340l1,-1v-1l2,2l2,7v2l1,4l1,1v2l1,1h-1h1v1l1,1v1h1l1,1h1l1,1v5h-1l-2,1v1l-2,2l-1,2h-1l-1,1h-2v3l-3,3v2h-1v2h-1l-1,-1l-3,1l2,1l1,1h2l2,-1h1l2,-2h1v-1h1l1,1l-1,1v1h1v2l1,1v1h-1l1,1l1,2l1,-1h2l1,1h2l2,-1l-1,2v3l-1,2v1v-1h1v-2l2,-3h1l2,-3l2,2v-1h1l-1,-1v-2l1,-1v-1h1v-1h1v1l1,-1l1,1h1l1,1v-1h1l1,1h1v1h1l1,1v1h1v1h2v1h1v1l2,1v1h2v3h1v-1h1l2,2v1h1v4h-1v1l1,-1h1v2h-1v2h-1v4l2,-2v-1l1,-2h1v1l-1,1v1l2,-2h4l2,1l4,4l2,1h2v1l1,1h2l2,1h3l2,1l1,2l1,1v1h1l2,3l1,1l1,2l2,2v1l1,3l2,2l1,2l1,1l1,2l4,4h2l2,2h1v1l1,3v6l1,2v8l-1,1v5l-1,3l-3,6l-3,3v-1v1l-3,3l-1,2h-1l-4,4v-1v1l-1,2v-1l-1,1v2l-4,6l-3,3h-1v-4l-1,1v1l-1,-1l1,1v1l-1,1v1h-1v1l-1,1v4l-1,1h1l-2,5v5l-1,3v2l-2,6l-1,2v2l-1,1v1l-1,3l-4,4l-1,3v2l-1,4l-1,1v1l-1,1h-1l-2,4l-2,2l-1,2h-2v1l-2,4v1l-1,2v1l-1,1h-4l-2,2v1h-1l1,1h-1v1h-1l-2,-1h-3v-3h-1v2h-3v-1h-3l-1,-1h-1l-1,1v2h-2l-2,1h-2v1h-1l-1,-1h-1l-5,2l-1,1l-3,1l-3,2l-2,1h-1v2h-1l-1,1h-1l1,-1h-2v1h-1v-1v1l1,1v1l-1,1h-1v1l-1,2l-1,1l1,1l-1,1v3l-1,1v3l-2,4v2l-2,2v1l-1,1h-2l-3,3l-3,2l-2,3l-4,5l-6,6l-2,1l-2,2l-3,1h-1l-1,1l1,-1v-1h2l2,-2h2l1,-1v-2h2v-1l1,-1h1l1,-3v1h1v-2h-3v-1l-1,-1l1,-1h-1v3l-1,1v2h-1v1h-1v1l-2,2h-2l-1,1v1l-2,2v3h-1l-1,1l-3,4l-1,2l-2,2l-4,2l-2,2l-2,1v1l-2,1l-1,1h-1l-1,1l-4,1l-2,-2l-2,-1h-1l-2,1h-1v-1l-1,-1l-2,-1l-1,-2l-2,-1h-2l-1,-1l-1,-2v-5l1,-2l1,-1h1v-1h1v-4l-1,3v1h-2v2l-2,3v5h-1v4l3,2l1,1l1,2l1,1l-1,1l-1,2l-1,1v3l1,1v1h2l-1,3v1l-4,4l-3,2l-1,1l-1,2h-1l-4,2l-5,1h-17l-1,-1h-1l-1,-1h-1v4l1,1l-1,-1v2l-1,2h-1v1l-1,2l-1,1v4h-1l-3,1h-1l-2,1l-2,-1h-1l-2,-1l-2,-2h-2l1,-1h-2v1h-1v5l-1,2v3l1,1h1v1h-1l1,1h2l1,-1l-1,-1h3v3l-1,1v1h-3v-2h-1v-1h-1l-2,1h-1v1l2,1l1,1h1h-1v1h-3l-3,3h-1v4h-1v2l-1,1l-2,1l-1,1l1,1h-1v1h-1l-2,-1h-1l-1,1h-2l-3,3l-2,1l-1,2l-1,1v2l1,1l2,4h1l3,1l1,1v1l-1,2l-1,1h-2v1h2v1h-1v1l-3,1l-1,1h-1l-2,1h-1l-4,4v1l-2,3v1h-1l-1,1h-1l-1,-1v-2h-1l1,1l-1,1h-2h3v2h-2l-1,1h-1v1l-1,1v1l-1,1h-1h1v4h-2l1,1h1v3l1,1v1l-3,-1h-2l-1,1h-2l-3,1h-1l-1,1v1l-2,2v2l-1,2h-3l-1,-1h-1v-1l-1,-1v-1h3v1h-1v1l1,-1v-1l2,-1l1,-1h1v-1l-1,-1l-3,2h-1l-1,1h-1v1h-1v1h-1l-1,-1v-1l1,-1v-1l1,-1h2l2,-1l1,1h2v-1h-2l-2,-1l-1,1l-1,-1l-2,2v1l-1,1h-1l-1,-1v-1h1l1,-1h1v-1h-1v1l-1,-1l-1,1h-2v-4h-1h2l1,1v-1h5v-1h1v2l-1,1h1v-1h1l-1,-1v-1h1v-2l-2,-2h-1v1h1l1,1h1v1h-2l-2,1l-1,1v-1h-1v-2l-1,1v-1h-1v-1h1l1,-2l-1,-1h-2l-1,-1h-1v-2h-1v-1h3v-1l-1,-1h2l1,1v2l2,1l1,-1v-2l-1,2h-1l-1,-1l1,-1h1h-1l-2,-2v-1h1l1,-1h1l-1,-1v-2h2l1,1v-1h-1v-2l1,-1v-1l-1,1v1l-1,1v1v-1h-1v-1l1,-2v-2l1,-1v-1h1h-2v-4h1l1,1h2l2,1h1l-1,-1v-3l-2,2h-2v-1h-1v-1h-1l1,-1h1v1h1v-1h-1v-2l2,-1v-3h-1v1h-2v-1l-1,-1v-1h-1l-1,1h-1v2l-1,-1v-2l2,-1l1,-1h1l1,-1l-1,-1l1,-1h4l1,-1h1v-2h1v1l-1,2l-1,1v1l-2,1h2l1,-1l1,-2h1l-1,1v1l-1,2l-1,1v1h1v-1h1v-2l1,-2v-4h5v1v-1h-1l-1,-1h-1l1,-1v-1h1l1,-1l2,-1l1,-1v-1l-2,-2h-1v-1l1,-2h1v-4l2,-2h1v-4h1v-3h1v1l1,1v-3h-2v-2h2l1,-1h-2v-1h-2l-1,1v1h-2l-1,-1v-1l-1,-1v-4l1,-1l1,-3l1,-2v-2l2,-1l2,-3v-7l-1,-1l1,-1v-9l1,-1l1,1h1v-1l1,-1v-2l3,-3l1,-3l1,-1v-2l2,-2v-1l2,-1v-2l2,-2v-3l1,-1v-1l1,-1v-1l2,-1v-5h1v-1l1,-2l1,-1v-16l1,-3l2,-1l1,-2v-9l2,-2v-1l1,-1v-3l1,-2l2,-2v-3l1,-2v-1l2,-4v-1l1,-2l-1,-1v-1l1,-2h1v-1l1,-1v-8l1,-2v-3l1,-1v-1l-1,-1v-3l1,-1h1v-1l2,-6v-1l1,-1v-2l1,-2v-2l-1,-4l1,-2v-3l1,-3v-3l-1,-2v-8l-7,-7v-2l-1,-1l-2,-1l-1,-1l-2,-1l-1,-1v-1l-1,-1l-3,-1l-1,-1l-6,-3l-3,-3l-4,-2l-5,-4v-1l-1,-1l-1,-2l-2,-1l-2,-2l-1,-2v-1l-1,-1v-1l-1,-1h1v-1l1,-2v-1l-2,-3v-1l-1,-1v-1l-1,-2l-1,-1l-1,-2h-1v-1h-1v-4l-3,-3v-2l-5,-9v-2l-3,-6v-2l-1,-2v-1l-2,-1v-2l-1,-2l-2,-1v-1l-2,-3v-1l-1,-2l-2,-2v-1l-1,-1l-6,-3l-2,-2h-1v-2h2v-3l-2,-3v-1l-1,-1v-1l-1,-1l1,-3v-1l5,-5l2,-1l1,-1h2v-1h1v-1h1v-3l1,-1v-2l-1,-2v-1v4l-1,1v-2l-2,2v1l-1,-1h-1l-3,-3h-1v-1l1,-1v-7l-1,-1l1,-1l2,-1l1,-1v-1h1l-1,-2l1,-2h1l2,-2v-4l-1,-1l1,-1h2v-1h3l2,-1h3v-3l-2,-1l2,-2l2,1l1,-1l-1,-1v-3h1v-1h1v1l1,-1h2l1,-1h1v-1l1,-1v-1h1v-1h1v-1h1v-1l1,-1l1,-3l-1,1l-1,-1l1,-1h-1v1l-1,-1v-2l-1,1v-1h1l1,-1v-3l-1,-2v-3l-1,-1l2,-1v-1l-1,-1l-1,-2v-1h1v-2l-2,-2v-1h-1l-1,-2l-1,-1l1,-1h1v-1l-1,-1h1l1,1l2,-1v-1l1,-1v-2h-1v-1l-1,-1v-1h1l3,3v1h1v2h1v-3l-1,-2l-1,-1h2l4,-2l1,-3h1l1,-1l1,1l1,-1v-5h1l-1,-1v1h-1h1v-1l1,-2l2,-1v-1h1l2,-2l3,1h1l-1,1v1h1l1,-1v-3h4l1,1h3l4,-3l3,-1h1l1,-1v-1l1,-1h1l1,-1h2l2,1l1,2v1h-1v1l-1,1h-4v2l1,1v1l2,1h-1v1l1,1v2l-2,2v1l-2,2l2,2v1h1v1l1,1v1h4v-1l1,-1v-4l-3,-3l-1,-2v-4h2l3,-1h3l2,-1h1v-1l2,1l1,-1l-1,-1h-3l-1,-2h1v-1h1v-1l2,2v1l1,1v1l1,1h3l2,1h1l2,1l2,2h1v3l2,2h9l7,1v1l2,2h2l2,2h4l5,-2l3,1v-1h1h-1l-3,-1h-1h10l1,1h5l3,1h-8l2,2v2h1v-1l1,2l1,1h1v-1h1l2,2v1h1l-1,-1h1l1,-1v1l2,2h1l3,3h-1l-1,1v3l-1,1h-1l1,1h8l2,1l2,2l2,1l8,8v3l-1,1v3l1,-1v-1l1,-1l1,1h2l1,2l2,2v1h2l1,1v6l1,-1v-3l5,1l1,1l3,1v1v-2h2l2,1h4l3,2h2v4l1,-2v-1h1l3,3h1l3,2l1,1l2,3l1,1v1l1,-1l2,4v1v-2h1l1,3v1Z"/>
<path class="sl" d="M997,448v1v-2l-1,-2v-2l-1,-2v-2l-1,-1v-1v1v-1h-2v1l-1,-1v-2l-1,-1l-1,-6l-1,-2l-1,-3l-1,-7l-1,-1v-2l-1,-1v-2l-1,-1v-3h-1v-2l-1,-1l-1,-3v-3h-1v-2l-1,-2v-2l-1,-1v-1v1v-1h1v-1l-1,1v-3l-1,-1v-3l-1,-1v-3l-1,-1v-1l-1,-1v-2l-1,-1l-1,-3v-2h-1v-2h-1l1,1h-1v-3l-1,-1v-2h-1v-1h1v-1h-1v-3h-1v1l-1,-1v-1l-1,-1v-2h-1l-1,-2v-2l1,1v-1h-1v-1v1v-1l-1,-1v-2l-1,-2v-1l1,1v1l1,1v-1l1,1h1h-1v-1h-2v-2l-1,-1v-2h-1v-1h1h-1v-1l-1,-1v-2l-1,-1v-1l-1,-1v-7l-1,-3v-1l-1,-2v-3l-1,-3l-1,-2l-1,-3v-2l-3,-6l-1,-1v-3l-1,-2v-1l-2,-4l-1,-1v1h1h-1l-2,-4v-1v1l1,1h-1l-2,-8l-1,-1v-2l-1,-2v-2l-1,-1v-2l-1,-1v1v-4l-1,-1v-1l-1,-3l-1,-1v-1l-1,-1v-1l-1,-1v-3l-2,-4l-1,-1v-1l1,1v-1l-1,-1v-1l-1,-2l-2,-2v-2l-3,-3v-1l-1,-1l-2,-4l-1,-1l1,1v1l1,1v1l2,2v1l2,2v1l2,2v1l1,1v1l2,2v1l1,1v1l2,2v1l2,2v1l1,1v1l1,1v1l1,1v1l1,1v1l2,2v1l1,1v1l1,1v1l2,2v2l1,1v1l2,2v2l2,2v1l1,1v2l2,2v2l1,1v1l1,1v1l1,1v1l1,1v1l1,1v1l1,1v2l1,1v1l1,1v1l1,1v2l1,1v1l1,1v2l1,1v1l1,1v1l1,1v2l1,1v1l1,1v2l1,1v2l1,1v1l1,1v2l1,1v2l1,1v2l1,1v2l1,1v2l1,1v2l1,1v2l1,1v2l1,1v3l1,1v2l1,1v2l1,1v3l1,1v2l1,1v3l1,1v3l1,1v3l1,1v3l1,1v3l1,1v4l1,1v4l1,1v3l1,1v5l1,1v4l1,1v5l1,1v5l1,1v7l1,1v6l1,1v6Z"/>
<path class="sp" d="M917,224l1,1v1l1,1v1l2,2v1l2,2v1l2,2v1l1,1v1l2,2v1l1,1v1l2,2v1l2,2v1l1,1v1l1,1v1l1,1v1l1,1v1l2,2v1l1,1v1l1,1v1l2,2v2l1,1v1l2,2v2l2,2v1l1,1v2l2,2v2l1,1v1l1,1v1l1,1v1l1,1v1l1,1v1l1,1v2l1,1v1l1,1v1l1,1v2l1,1v1l1,1v2l1,1v1l1,1v1l1,1v2l1,1v1l1,1v2l1,1v2l1,1v1l1,1v2l1,1v2l1,1v2l1,1v2l1,1v2l1,1v2l1,1v2l1,1v2l1,1v3l1,1v2l1,1v2l1,1v3l1,1v2l1,1v3l1,1v3l1,1v3l1,1v3l1,1v3l1,1v4l1,1v4l1,1v3l1,1v5l1,1v4l1,1v5l1,1v5l1,1v7l1,1v6l1,1v7"/>
<path class="sl" d="M725,286h-1h2ZM700,267l1,1v1h-3v-1h-2v-1h1l1,1h1ZM690,268h-1l-1,-1h2ZM724,288h-1v-1h2v1ZM686,213h-1ZM688,213h-1ZM687,217l1,1h1h-3v-1ZM19,598v1v-2ZM676,211h1h-1h2l1,1h1v1l-2,2h-3v-1h-6l-1,-1v-3h3ZM682,214h-1h2ZM306,43h-1l1,-1h1h-1ZM304,43h1ZM309,39v1ZM299,46l-1,1h-1l1,-1ZM303,45v1h-1h1h-1l1,-1h1ZM306,43l-1,1h-1v-1h1l2,-1v1ZM307,44h-1l-1,1h-1l1,-1l-1,1h-1l-1,1v-1h2l2,-2h1ZM306,42h1h-2v1v-1v1h-2v1h-1h1v-1h1v-1h1ZM297,48v-1h1l-1,1h-1l1,-1h1h-1ZM303,43h-1l-1,1h-1l-1,1h-1v1h-1l1,-1h1v-1v1v-1h1v-1h1h-1l-1,1h-1h2v-1h2v-1h1ZM308,40h1h-1v1v-1h1h-1l-1,1h-1l-1,1h-1l-1,1h-1h1v-1h2v-1h1l1,-1ZM305,41h-1h1h-1v1l1,-1l-1,1h-2v1h-1v-1h2l1,-1ZM302,44h1h-1h1l-1,1h-1v1v-1h1v1h-1h1h-2v1h-2v-1h1v-1h1h1v-1ZM303,43h-1v1h-1l-1,1h-1l1,-1h1l1,-1ZM63,289h-1l1,-2v-3h1v-1l1,-1v-2h1l1,1l-1,1h1l-1,1h1l-3,3l-1,2ZM64,276h1v1h-1ZM65,277l1,-1v2h-1v1v-3ZM63,276v1h-1v1v-2h1v-1ZM60,276v1v-1l1,-1v-1v2ZM58,279v-1l1,-1v1h-1ZM64,279h-1h1v-1ZM600,74h4l-2,1h-11l1,-1h9ZM621,62h-1v1v-1h-1h1ZM590,75h1ZM612,74h-1l-1,-1h2ZM608,73h-1v-1ZM616,74h-1ZM588,101h-1l1,-1v-1l-1,-1h1v2ZM586,101h-1ZM582,103h-1h1l1,-1h-1ZM546,148v1l-1,-1ZM546,148l-1,-1ZM560,157l-2,1l2,-2ZM471,130h-1l-1,-1h2ZM430,141l1,-1v-1h1l-1,1ZM432,139l1,-1h2v-1v1h-1ZM427,144v1v-1l1,-1l1,-2h1l-2,2ZM446,132h1l1,-1l-1,1ZM428,151v1l-1,-2v-3l1,3ZM278,124h-1ZM281,128v-1ZM287,129l-1,-1h1ZM279,125l-1,-1h2ZM281,123h2l-2,1ZM289,125v1h-1v-1h-1h1ZM311,58v1v-1v1h-1v-1ZM310,59h-1ZM310,60h1v1h-1v-1l1,-1ZM607,73v-1ZM592,79l-1,1ZM586,87l1,-1v-1v1ZM581,103h-1ZM552,160v-1ZM558,159h-1l1,-1ZM555,160h-1v-1h1ZM549,122l-1,1v-1ZM550,160h1ZM560,144l-2,-2v-1ZM493,128h-1ZM495,125h-1ZM499,125h-1ZM490,126h-1h1l1,-1ZM493,127v1v-2ZM523,129h-1l1,-1h1ZM306,64h-1ZM309,62h-1ZM619,63h-1v-1ZM730,865v1v-1h1ZM728,826v1h1h-1v1h1v1l-1,1h1l-1,1v1h-2v-1h1v-2h-1l1,-1h-1v-2h-1l1,-1h-1v-1l1,1h1v1ZM975,522v-1ZM205,587v-1ZM700,216h-1ZM652,784l1,1h1v1l-1,-1v1l1,1v-1h2v1h-1h1v1h-2l-1,1h-2v1h-1l-2,-1v1h-1l-1,1v-1h-1l2,-2h-1l2,-1h2v-2h2ZM645,784v1l1,-1h1v1l2,-1v1v-1v1h1h-1v1h-2l-2,2h-2v1h-3l-1,-1l2,-1l1,1v-1h2v-1h-1h1v-1l-1,-1h1v-1v1Z"/>
<path class="sl" d="M640,786h1l-1,1h-1v-1ZM652,790h-1ZM646,784h-1v-1h1ZM645,790v-1ZM554,195h2v1h-2ZM565,193h-1ZM566,193h1ZM667,124h-1ZM689,213v-1h1ZM688,213h-1ZM690,211h-1ZM630,184v-1h-1h1ZM628,183l-1,-1h1ZM625,183h1ZM708,228v-1ZM724,271v-1h2ZM723,278l-1,1l-5,-1h-1l2,-1h1v-3h-1v-1h5v1h-1l1,1l-1,1h1v1ZM34,664l1,1h-1ZM27,641l1,1h-1ZM35,665v1ZM917,231l1,1v1l-1,-2l-1,-1h1ZM921,233v-1h-1h1h-1v-1l1,1ZM923,237v1v-1l-1,-1v-2h-1h1v1l1,1ZM921,234v2h1v1h-1v-2h-1v-1ZM917,231h-1v-1ZM916,231v1v-1h-1ZM913,227v-1l-1,-2v1h1v1ZM980,399l-1,-2l1,1ZM16,596l1,1v2l-1,-1v-1ZM18,598v1l-1,-1v-1h1ZM719,255h-1v-1h1l1,1ZM718,258h1ZM721,250l-1,1l-1,-1l1,-1v-1l1,1ZM705,224h-1ZM704,223h-1l-1,-1h1ZM896,199h1v1h1v1l-1,-1v-1ZM856,157h-1ZM823,132l-1,-1h1ZM841,144l-1,-1h1ZM839,143l-1,-1h-1l-1,-1l2,1ZM836,142v-1h-1h1ZM838,143h1h-1l-1,-1ZM850,151l1,1l-1,-1h-1v-1ZM578,278l-1,-1l1,-1v1ZM555,284h-2v-1h-1h1v-1h1v1ZM549,268h-1ZM129,831h-1v-1h-1v-2h-1h1v1h1v1v-1h-1v-1h-1v-1v1h1v1h1l-1,-1l1,1v1h1v1l1,1h1v1l1,1h1v1l1,1l1,2h1l3,3v1l4,4h1v2h1h-1h1v1h1v1l10,10l2,1v1h1v1l1,1h1v1l2,1l1,1v1l1,1v1h1h-1h1h-1l1,1l-2,-1h1v1v-1h-1h1v1v-1h-1v-1h-1v-1v1v-1h-1v-1v1v-1h-1v-1h-1v-1h-1v-1h-1l-1,-1h1h-1l-6,-6v-1h-1l-1,-1v-1h-1l-1,-1v-1h-1v-1h-1v-1h-1v-1h-1v-1l-2,-2h1h-1l-1,-1v-1v1l-2,-2v-1h-1v-1l-1,-1h-1v-1l-1,-1h-1v-1l-1,-1v-1h-1l-3,-3l-1,-2l-2,-2v-1v1l1,1h1v1h1v1ZM126,827v1l-1,-1v-1v1ZM163,868v1h1h-1h1h-1ZM160,865v1ZM168,872v1h2v1h1v1h1h-1l-2,-2h-1v-1h-1ZM100,795v1v-1h-1v-1v1ZM95,791v1v-1l-1,-1l3,3v1h1v1l5,5v1v-1l1,1v1v-2l-1,-1h-1v-1h-1v-1l3,3l1,2h1v1h1v-2l-2,-2v-1l3,3l1,2l1,1v1h1v1l3,3h-1v-1v2h1v1l2,2h1l2,4l4,4v1l2,2v1h1l1,1v1l2,2h-1v-1v1l-1,-1h1v1l-2,-2l-1,-2l-6,-6v1v-1h-1l-3,-3v-1l-1,-1v-1l-4,-4v-1h-1v-1h-1v-1h-1v-1h-1v-1h-1v-1l-1,-1l1,1l-1,-1v-1v1l-2,-2v-1v1v-1h-1v-1l-1,-1v1h1h-1v-1l-1,-1v1h1v1h1v1v-1h-1l-2,-3l-1,-1v-1h-1h1v2h1h-1v-1h-1v-1l-1,-1v-1l-1,-1h-1v-1v1h1v1ZM203,898h1ZM196,895l1,1l-1,-1h-1v-1h-1h1v1ZM139,825l1,1l-1,-1v1h1l1,1v1v-1h-1v-1h-1ZM142,828h1h-1v-1ZM32,634v1v-2ZM665,255v1h-1v-2ZM702,221h-1ZM651,251v1l-1,-1v-1ZM661,255h-2l-2,-2h1v1l2,1Z"/>
<path class="sl" d="M508,188v-2h2l-1,1ZM352,186v1h-1v-1ZM315,210h-1l1,-1ZM326,168h-1v-1ZM314,145h-1l-1,-1v-2l1,1v1h1ZM298,153h-1l1,-1v-1v1ZM320,144l-1,2h-1v-1l1,-1v-1h1ZM279,151v1v-2ZM510,181v1ZM469,199h-1l2,-1v1ZM330,172v1v-2ZM308,131h1ZM323,162l-1,1l1,-1v-1ZM317,173h-1l-2,-1h2ZM314,172v-1h-1l1,-1l1,-3v1l-1,2v1ZM947,293v1l-1,-1v-1ZM4,522v-1ZM5,519v-1ZM41,473v-1ZM32,429l1,1h-1l-1,-1h1v1v-2ZM27,417v1ZM588,203h2v1h2l1,1l2,1l1,1h1l-1,1h-2l-1,-1h-4v1h-1l-1,-1h-3l-1,-1h-1v-1l-1,-1h-2v-1h3v-1h1l3,1h1ZM513,215l-2,1l1,-1h2ZM517,215v-1h1ZM631,198l1,1v3l-1,1h1v1l-1,1h-1l1,1v1h1v2l-1,-1l-5,-1v1h-3l-2,-1h-5v1h-1v-1l-1,-1h-1l-2,-1h-1l1,-2h2l1,1h3v1l7,1h1v-1h2v-1h-1l-3,-3h1v-2l-1,-1l-2,-1h-3v-1h1v-1h3l2,1h2l1,1h3ZM624,203l-1,1l-2,-1l-1,-1h1l2,1ZM624,195h-2l-1,-1h2ZM966,361v-1ZM967,361l-1,-1h1ZM967,361v-1ZM967,358v1ZM966,358v-1ZM965,355v-1ZM716,263v-2l1,1v1ZM721,246h-1l-3,-3v-1h1l1,1h1v2ZM715,232h-1l-1,-1h1l-1,-1h1v1h1l1,1ZM713,234h-1v-1l-1,-2h2v2ZM716,235l-1,-1h1ZM680,63v-1ZM680,62h-1l-1,-1h1v1ZM14,605v-1h-1h1ZM16,618h-1v-1v1ZM700,217h-1ZM702,219v-1ZM71,569v-1ZM80,572l-1,1v-1ZM72,570v1l-1,-1v-1ZM82,572h1v1l-1,1v-1h-1l-1,-1l1,-1ZM117,482v1l1,-1l-2,2v-1ZM117,484l-1,1v-1ZM120,489h-1v-1h1ZM110,478h-1v-1h1ZM111,482l-1,1v-1ZM121,555h-1v-1h1v-1v1l-1,1ZM113,477h-1ZM121,558l-1,-1h1ZM146,552h-1v-1ZM142,551v1l-1,-1ZM139,576v-1ZM109,544h-1v-1h1ZM105,550v1v-1v1ZM105,551h-1v-1v1ZM96,547v1v-1h-1ZM95,552v1v-1l-1,-1ZM20,638v1l1,1v2l1,1l-1,-1v-1v1h1v5h1h-1v-3h-1v-4l-1,-1v-2ZM24,652v1h1v2l1,1v2l-1,-1v-2l-1,-1v-3ZM22,644v-2h-1v-1l1,1v1ZM22,644v-1ZM28,664v1h1v1v-1h-1ZM24,649h1ZM25,651v-1ZM23,644v-1h-1h1ZM27,659h1ZM24,653v-1ZM23,649v-1ZM25,655v-1ZM25,653h-1v-1v1ZM21,640v1v-2ZM20,637v1ZM21,641v-1ZM39,694v1ZM32,669v1ZM568,369h-1v-2l1,-1h1l1,1l-1,1h-1ZM578,334v-1h1ZM479,349l-2,-1l1,-1h2v2ZM487,350l-1,1v-1h-1l1,-1h1l1,-1v1ZM470,347h-2v-2h2v1ZM478,354l-1,-1h2ZM471,343l1,2l2,2v1l1,1l-1,2h-5v-2h1l2,-1v-1l-2,-2v-2h-2l1,-1h2ZM477,345v1l-2,-1h-1l1,-1h1ZM632,209v-2h-1v-1l-1,-1h1l1,-1v-1h-1l1,-1v-3l-1,-1v-1h1l1,-1v1h6l1,1h1l2,1h2l1,1v1h1v1h4v1h-2l1,1h2l1,1h1l4,2l1,1l-2,2h-1l-1,-1h-2l-1,-1h-6l-1,1h-3l-1,-1h-3v2l-2,2h-1l-1,-1h-1v-1Z"/>
<path class="sl" d="M716,239l-1,-1v-2l1,1l1,2ZM657,25l1,1h2l1,1h2l1,1l-1,-1h-1h1l1,1h1h-1h1h-2v-1h-1h1v1h2l1,1h2v1h1h-1h2l1,1h1l1,1h1h-1l-1,-1h-1h1v1h3l1,1h-1l-2,-1h1l1,1h-1v-1h-2l-1,-1v1h1h-1v-1h-3v-1h-1h1h-2l-1,-1h-2l-1,-1h-3v-1h-3v-1h-3v-1h-3v-1h-3v-1h1h-3l-1,-1h-3v-1h-3v-1h-3l-1,-1h-2l-1,-1h-1h1h-2v-1h-1h1l1,1l-1,-1l1,1h1h-1v-1h-3l-1,-1l1,1h1h-1h1h-2l-1,-1h-2l-1,-1h-1h2v1v-1h-5v-1h-3v-1h-4v-1h-1l2,1h3l1,1h3l1,1h3l1,1h3l1,1h3l1,1h2l1,1h3l1,1h2l1,1h3l1,1h2l1,1h2l1,1h2l1,1h1ZM609,12h-2l-1,-1l1,1h3Z"/>
<path class="sp" d="M658,26h2l1,1M612,13h3l1,1h3l1,1h3l1,1h3l1,1h3l1,1h2l1,1h3l1,1h2l1,1h3l1,1h2l1,1h2l1,1h2l1,1h2M606,11l1,1h3"/>
<path class="sl" d="M662,28l1,1l-1,-1h-1ZM549,169l2,1h8v1h4l1,1h1l2,2h1l1,1h4l1,1l5,2l1,1h1l2,1h1l-1,-1l1,1h1l1,1h1h-2l1,1h1l2,1h1h-1h2v1h3l2,1h1l2,1h1l-1,1h1l-1,1h4l2,1h1l1,1h1l2,2h2v1h-4l-2,1h-2v-1v1h-4l-1,-1h-16l2,-1l2,-2h1v-1l-1,-1h-1l-1,-1h-5l-2,-2h-1l-1,-2v-1l-1,-1h-6l-4,-2h-2l-2,-2h-6v-1l-1,-1v1l-1,1l-1,-1h-3l-2,-2h3v-1h-2l-7,-1v1h-1l-1,1h-1l-1,1h-4l-1,1v1h-2l-2,1v-1h-2v1h-1v-1l3,-1h1v-3l2,-1l7,-2h5l2,-1h2ZM583,179h-2v-1h2ZM580,177h-1v-1h-1v-1h1v1ZM575,174l1,1h1h-3ZM581,178l-1,-1v-1v1h1ZM544,180h-1l-2,1h-1v-1h-1v-1v1h1v-1l-1,-1l1,-1h2v1h1v1ZM569,173v1l-2,-1v-1ZM996,444v-1ZM585,324l-1,-1h1ZM925,293v-1l-1,-1h1l1,1ZM936,312h-1v-1l-1,-1v-1l1,1ZM927,294h-1v-1ZM935,303v1h1v1h-1v-1ZM933,311l-1,-1v-1h1v1ZM930,298h-1v-1ZM934,300v1v-2ZM937,311h-1v-1h1ZM294,50h1h-1l-2,1h2v-1h1l1,-1h1l-2,1l-2,2h-1l-2,1h-1l1,-1h1h-1l1,-1h1v-1h1ZM293,52h-1v1h-1v1h-1h1h-1v1v-1h1l-1,1h-1l1,-1h-1v-1h1h-1h2v-1h1ZM299,56h2l2,-1h2v1l1,1h-1h3v3h-2l-1,1h-4v-1h1l1,-1h1v-1v1h-1l-2,1h-1v-1h-1v1v-1h1h-2l-1,1v-1h1l2,-1h-5v-1h2l1,-1h-1v1h-2v-1h3ZM454,2h1h-1h1h-1v1h-11l-1,1h-7l-2,1h-6v1h-7l-1,1h-1h1l1,-1h6l1,-1h6l1,-1h6l1,-1h9l1,-1h2Z"/>
<path class="sp" d="M417,7h2l1,-1h6l1,-1h6l1,-1h6l1,-1h9l1,-1h3"/>
<path class="sl" d="M471,1h-1Z"/>
<path class="sp" d="M470,1h1"/>
<path class="sl" d="M511,3h6v1h6l1,1h-1h5l-1,1h-1l-1,-1h-6l-1,-1v1h-6v1h-2l-1,-1h-5l2,-1v-1h4ZM471,1h1h-1l-1,1h-4v-1h6ZM657,61h1l-1,1h2v-1h1v-1l1,1h2v1h1h-1v1h-6v-1h-1l-1,-1v-1l1,-1v-1h2l1,1v2h-1ZM625,60l-1,-1v1v-1h-1v-1h-1h1h-1l-1,-1h-1v-1l-1,-1v-1h-1v-2h-1l-1,-1h-2v-1l-1,1h-2l-1,-1h-1l-1,-1v1l-1,1h-1v2h-1v2l-1,1h-1v1h-3v1l-3,-1h-9l-3,-1h-2l2,-1h2v-1h1v-1h1l2,-1h2v-1h7l2,-1h1l1,-1h1l2,-2h1l1,-1h6l2,-1h7l1,1h3l4,2h1h-2h2v1h-2v1h-3l-2,-1h-2l2,1h1l1,1h4l1,1h-1v1h-1v1h3v1h1l1,1v1h1l2,1h3l-1,1h3v1h4l1,1h4v1h3l1,1l2,1h-6l-1,1h-5v-1h-1l1,1h-2v-1h-1v1v-1h-1v1h1h-1v1h-2v1h-2v1h-1v-1h-2l-1,-1h-1l-1,-1v-1l1,-1h-1h2v-1v1h-1v-1h1l3,-1h3v1h5l-1,-1h-7l-1,-1h2v-1h1h-2v-1v1h-1l-1,1h-5v-1v1h-1h1h-5ZM667,46h-1v1h1v2l-1,1h1v1h1v-1h1v1h3l-1,1h2l1,1h2v2l1,-1h-1h4l2,1h2v1h1h-1v1h-1h2l1,1h-1h2v1l1,-1v1l1,-1v1h1h-1l-1,1h1h-1h1v1h-1h1v1h1v-1h1v-1l1,1v1l1,1h1l-1,-1h1l1,1v2h1v1h-3v-2h-3v-2h-1l-1,-1h-1l-1,-1v1l1,1h-1v-1v1h-1v-1l-1,1h1l-1,1h-2v-1h-1h2v-1h1v-1h-5l-1,-1h-4l-3,-1h-1l-1,-1h-6l-1,-1h-1l-1,-1h2v-1h1l-1,-1h-1v-1h2l-1,-1h-1l1,-1l1,1l-1,-1v-2h-1v-1h1h-1h1v-2h3v1h1v-1v1ZM507,0h1h-2h16l1,1h16l1,1h10l1,1h7l2,1h-1v-1h-1l2,1h1h-1h1h-1h5v1h7v1h1h-1h5l1,1l-1,-1h-1l1,1h6v1h6v1h-1v-1h-2l2,1h1h-1l-1,-1h-1h1h-1l2,1h1h-3l-1,-1v1v-1v1h1h-2v-1h-1v1l-1,-1h-3v-1l1,1v-1h-6l-2,-1h-1l1,1h-1l-1,-1h-1h1v1h5v1h5l1,1h2l1,1h4v1h-1v-1h-1l1,1h1h-1h2l1,1h-1l-1,-1l1,1h-1v-1h-5v-1h-4l-1,-1h-3l1,1h5v1h4v1h3v1h-1v-1h-5l-5,-1h-1l-1,-1h-4v-1h-6l-1,-1h-3l-1,-1h-3l-2,-1h-5l-1,-1h-1l1,1h-2l-1,-1v1h-1v-1h-9v-1h7l1,1h1h5l-1,-1h-2h5l-2,-1h-5v-1h-10v-1h-18l-1,-1h-10Z"/>
<path class="sp" d="M509,0h13l1,1h16l1,1h4M545,2h4M550,2l1,1h4M495,0h11"/>
<path class="sl" d="M644,49l-2,-1h-3l-2,-1l-3,-1h-1v-1h-1l-3,-1h-1h2l2,1h4l1,1h1l4,1v1h2l1,1ZM641,57h3l1,1h5l1,1h-2v1h-2v-1h-1h1h-1l-1,-1h1h-2l1,1l-2,-1h-1l-1,-1h-2v-1h-2v-1h2l-1,1h2v1ZM524,6l-1,1h-7l1,-1h6ZM534,7h1v1h-4v-1h2ZM539,2h3v1h-6v-1h-1h3ZM538,28h-2l-1,-1h-4v-1h4l2,1h1ZM544,19h1ZM543,19v1h-1l1,-1h-1v1h-2l1,-1l-1,1h-1l1,-1h1v-1v1v-1h1l1,1h1ZM539,19h-1h1l1,-1v1ZM302,47l1,-1ZM290,55h-1ZM302,48h-2v1v-1h1ZM300,50h-1v-1h2v1ZM305,46v-1h1l1,-1v1h-1ZM304,49l-2,2h-1l-1,1v-1h1l1,-1l-1,1v-1h1v-1h1ZM299,59v1h-1v-1ZM308,57l-1,-1h1ZM297,59v-1h1v1ZM306,56v-1h1v-1v1h-1ZM300,51v-1h1v1ZM300,54h-1l1,-1h1h-1ZM302,51l1,-1h1v-1v1h-1v1ZM301,50v-1ZM302,49h1ZM309,59h-1l1,-1ZM670,71h-1l-1,-1l1,1ZM659,63h-1ZM649,55l1,1h-1l-1,-1h1v-1h2l-1,1ZM632,64v-1ZM628,62v-1ZM587,55h-2v-1h2ZM586,54h-1h2ZM599,51l1,-1v1ZM670,48h-1ZM678,53v1l-1,-1ZM666,45v-1ZM680,53l1,1h-1l-1,-1ZM688,62h-1v-1h1ZM590,12h2v1v-1h-1ZM584,14h-1h2ZM570,10h-2v-1h-1h2ZM594,14h-1l-2,-1h2v1ZM592,13h-1ZM583,16h-1ZM599,16h-1ZM627,28h-1ZM618,24h1h-2ZM560,4h-1ZM583,7h1ZM538,18v-1h1v1ZM542,26h-1ZM546,30h-2ZM307,56h-1l1,-1ZM547,3h-1ZM539,6h2v1h-2l-1,-1h-1h1ZM534,12h-1ZM534,11h1ZM493,0h-1ZM492,1v-1h-1h1ZM555,8h-1ZM542,2h-1ZM540,10h-1h2ZM529,2h-1ZM544,7h-1v-1h-1h2ZM526,1h-1ZM530,1h-1ZM539,6h-1v-1h1ZM517,2h1h-2ZM527,1h1ZM534,1h-1ZM503,0h1h-2ZM515,3h1h-3l-1,-1h1l1,1ZM504,1h-1h1h-1h2ZM512,3h-2v-1l1,1ZM479,8h-1v-1h1ZM462,2h-1ZM463,2h-1ZM464,1h-1h2ZM477,1h-1ZM460,2h-1h1h-1ZM456,2h-1h2ZM447,3h-1h2ZM434,5h1h-1h1ZM432,5h1ZM433,5h1ZM432,5h-1ZM810,378l1,1l1,-1h1v1l3,1h2v4h-1v2l-1,1v1h-1v2h-1l-1,-1v1h-2v-1v1l-1,1h-2l-1,-1h-3l-1,-1v-2l-1,-1v-2h1h-1v-5h1h-1l1,-1v-1l1,-1h2ZM818,582h-1l1,-1ZM784,602v-1l1,-1v1ZM810,586v1v-1h-1l1,-1ZM843,410v1v-3h1l-1,1ZM869,507h-1l1,-1h1v1ZM867,510v1v-2ZM841,396h-1h1v-1ZM809,374v2h-2v-1h-2v-1l1,-1l1,1l1,-1ZM805,359l-1,1v-3h1v1ZM803,376l-2,1l-1,-1l1,-1h2ZM811,378l-2,-1v-1h3v1ZM804,374v1l-1,-1v-1h1v-3h1v3ZM806,372h-1v-1h2v-1v1ZM795,385h-1l1,-2l1,-1v-2l1,-1v-1h2v1l-1,3l-2,2ZM781,613v-1l1,-1h1l-1,1ZM500,204h-1h1v-1h1ZM501,208l-1,1v-1l1,-1ZM732,258l-1,-1v-1l1,1Z"/>
<path class="sl" d="M581,164v1l1,-1v1l1,1h-1h1l-1,1h-1v-1h-1v-1h-1v-1h1ZM584,154h-1v-1h-1l1,-1v-3h-1l-1,-1l-2,-1h-1h3v1h1l1,1h1v1l1,1h-1v2ZM620,187l-1,1h-4v-1h1v-1h1l1,1l1,-1h1ZM580,161v1h1l-1,1h-2l-1,-1h-1l-1,-1h1v-1l1,-1l-1,-1h2v1h1l1,1ZM573,148h2l-2,1h-2l-1,-1l1,1h1v-2ZM583,159h-1h2ZM611,176h-2v-1h1ZM607,167h-1v-1ZM610,179h-1l1,-1h1l1,-1l-1,-1h1l1,1l-1,1h-1ZM588,156l2,1l2,2h1v3h-1v-1h-1h1v-1h1l-3,-3h-3ZM598,170h-1l-2,-1h-1l1,-1v1h1l1,1ZM604,174l-2,-2h-1h1v-1l-1,-1l1,1v1l1,1h1ZM600,165v1h-2v-1h1l-3,-3h1l1,2ZM619,178h1v1h1h-3v-1ZM621,185h-1l-1,-1h1ZM234,923h1l-2,-1v1ZM595,802l1,-1v-2l2,-4v-2l2,-4v-2l1,2v1h-1v2h1v2l1,1v1l1,1v1h1l2,2v1l1,1h1l1,1h3l-1,1v1h-2l-1,-1l-1,1h-3l-1,-1h-1l-3,-1h-1l-1,-1h-1ZM615,804h3v1h-5l1,-1ZM670,690v1v-1h-1v-1ZM711,226h-1v-1h1ZM710,222l-1,-1h1ZM665,856h1v1l-1,-1h-1ZM492,886l-1,-1h1ZM571,995h-3l-1,1h-4l-1,-1h1h-1l-1,1h-1h1h-3l-1,1h-1h1h-6l-1,1h-11l-1,1h-15l-1,1h-44l-1,-1h-15l-1,-1h-10l-1,-1h-8l-1,-1h-8l-1,-1h-5l-1,-1h-6l-1,-1h-5l-1,-1h-4l-1,-1h-4l-1,-1h-4l-1,-1h-5l-1,-1h-3l-1,-1h-3l-1,-1h-3l-1,-1h-3l-1,-1h-3l-1,-1h-2l-1,-1h-4v-1v1h1l-2,-1h-1l-2,-1h-2v-1h-3l-2,-1h-1l-2,-1l-1,-1h-1l-1,-1h-2l-1,-1h1l1,1h2l1,1h2h-2l-1,-1h-1l-1,-1h-1h2l1,1v-1h-1l-1,-1h-2v-1h-1l-1,-1h1l1,1l-1,-1h-1l-1,-1h-1l-1,-1h-2l-1,-1h3l-1,-1h-1v-2l1,1h5l-1,-1h-1l-1,-1h1l-1,-1v-1h-1l1,-1h5l-1,-1h-1h2l1,1h1l2,1h3l1,1h-1v1h1v-1h2l2,1l1,1h-1h1l1,1h2l1,1h1v1h-1h2l2,1h5l1,1h1v1h-1h2l1,1h4v1h8l2,1h12l1,1v-1h-1h2v-1h1l1,1h-1l1,1h2l1,1h2v1h6l1,1h1l-1,-1h2v1h12v-1h5l1,1h1l-1,-1h1h-2l1,-1h6v-1h2v-1h2l1,-1h1l1,-1h1v-1h1l1,-1h2l1,-1h1l3,-1h-2l-1,-1v1h-1l-3,1h-2v-1h-5v1h-6l-3,1h-1l2,-1h-1h1l2,-1h1v-1h4v-1h1l-1,-1h-2v-1l-2,-2h-2l-2,-1h-3l-1,-1h-2l-2,1l-1,-1h-1h1l2,-4h-5l-1,-1h-1l1,-1h-1v-1h-3l-2,1h-1v-1h-3l-1,1h-6v-2h-2l-1,1h-5l-1,-1h-1l-1,-1h-2v-1l1,1l1,-1h-1l1,-1h4l1,-1h4v-2h-3v-1h1l1,1v-1h2v-1h-2v-1h-3l-2,-1l-1,1h-1l-1,1h-1v-2h5v-1h-4v-2h1l-1,-1v-1h1v-1h1l2,1h1l-2,-1v-3l2,-1h1l-1,-1v-1h1l1,-1h3l1,-1h5l2,-2l2,-1h3l2,-1h1l7,-2h1v-1l1,-1h7l-1,-1v-2h3v2h2l-1,1l1,1v1v-1h2l1,-1h1l-1,-1v-1h-1v-1h3l1,1v1h1v1l-1,1v1h3l1,-1h3l1,1l1,-1h1l3,-1h5l2,-1l1,1h1v1h1l1,-1h3v-1h-1l-1,-1h-2v-2h-3l-1,-2h-4v-1l1,-1h3v1h1l2,-1h1l-1,-1h-8l-2,-2v-1h2v1h14l1,1h2l1,-1h2l1,1l1,-1h9v-1h1v-1h2v-1h1l1,1l-1,1l1,1h2l1,1h1l2,-1h1l2,2h4l1,1h3l1,-1v-2l2,1v-2h2v1l2,2h4v1l-1,1h2l1,-1h3v1l1,-1v1h1l3,-1h1l1,-1h9l2,-1h1l2,-1l1,-1l1,-2l1,-1v-1l-1,-1l2,-2v-6l1,-1v-2h5l1,-1v-1l-1,-1h2v-2h1l1,-1l-1,-1l2,-2h1v-1h-2v-1l1,-1h1v-1h1v1l-1,1h2v-2h1v-1l1,-1h1v1h1v-1h1v-1l1,-1h1v-1h1l1,1h1v-2l1,1v-1h1v-1h1v1l1,-1h-1l1,-1v-1h3v1l1,-1v-1h2l1,-1v1h1l1,-1h2v-1h2l1,-1v-1h6l1,-1h3l2,-1h4v2h-1v-1h-1l-1,1h-3l-2,2h-2v1h1h-1v1h-1l-1,-1h-1v1v-1h-1l-1,1h-2l-2,1v1h-2v-1h-1v2h-1v-1v1h-1v2h-1l-1,1h-1v1l1,1h2v-1h3v1h-2v1h-1v-1h-2v1h-1v-1h-3l1,1h-1v2l-1,-1v-2h-2l-1,1h-1v1h1v1h-3v-1l-1,1h-1v1h-1l1,1h-3v2h-1v2h-1h2v1h-2v1h1h-1l-1,1h1l1,1h1l1,-1h1v1h-1h1v1h-1v3h1v1l-1,1v3h-2l1,1h1v1h-2v1h1v3h-2l-2,1h2v1h-3l-1,1h3v1l-1,1h-1l-1,1h2l-1,1v1h1h-1v1h-3l-1,-1h-1v2h1v1l-1,1h-2l1,1h-2v1h1v1h-2v-1h-1v2h-2v-1h-1v1h-1v1h-3v1h1l-2,1h-3l-2,1h-3l-4,1l-2,1h-8l-3,-1h-4v1l1,1v1h1v1h4l1,1l-1,1h-1l-1,1h-3l-1,-1h-3l-3,-1h-3l6,2v2h-6l-2,-1l-2,-2v-1v2h-1v1l2,2h1l1,1v1h1v-1h2l4,1h1v1l-1,1h-5l1,1h3v1h1v2h2v1l1,-1h3v1h2v1l2,2h2l2,1h-6v1l-1,1h6l-2,1h-2v2h1h-1v1h-1v1h1l3,-1l1,-1h1l2,-1h3l1,-1h1v1h1l1,-1h1l1,1h4l-1,1h-1l-1,1h-1h4l2,-1h2l1,-1h4v-1l1,1l1,-1h2v1h9v1l2,-1l1,1h1l4,1h3l-3,-3v-1h1l1,-1l-2,-1h-1v-3h1l2,-1l3,-1h3l2,-1h10l1,-1h9l3,1h2l1,1h3v1h1l1,1v-1h1l1,-1h4l3,-1h1v1h5v-1h-1v-1h1v-1h3l2,-1h1v1h1l2,-1v1h6l2,-1h2v-1l1,-1h1l1,-1h1l-1,1v1h-1h1l1,-1h3v1h-1l-1,1l-3,1h1v1h1l2,-1h1v-1h2l1,-1v1l1,1h1h-1l-1,1h-4v1l1,1v1h1l-1,1v1h1l-2,1h-1h5l1,1h1v1l2,2h1l-1,1h2l-1,1h-1l-1,1l-2,1l-1,1h4l1,-1h1h-1l-1,1h-1v1l-1,1l1,1h-3v1l-2,1h1l-1,1h-3l-1,1h-1v1h2v1h-2l-1,1h-1h1l-1,1h-2l-1,1h-1v1h-1v1h1v1h-1l-1,1h4l1,-1h3l1,-1v1h-2v1h-3l-1,1l-3,1h-2l-1,1h-2l-1,1h-2l-2,1h-1h5v1h-1l-1,1h-1h1h-2v1h-1h1v-1h1l-1,1h-3l-1,1h-2l-1,1h-1h1l1,-1h2l1,-1v1h-2l-2,1h-1h2v-1h1l-1,1h-3l-1,1h-3l-1,1h-3l-1,1h-3l-1,1h-3l-1,1h-4l-1,1h-4l-1,1h-4l-1,1h-3l-1,1h-5l-1,1h-5l-1,1h-6l-1,1h-3Z"/>
<path class="sp" d="M556,997h-5l-1,1h-11l-1,1h-15l-1,1h-44l-1,-1h-15l-1,-1h-10l-1,-1h-8l-1,-1h-8l-1,-1h-5l-1,-1h-6l-1,-1h-5l-1,-1h-4l-1,-1h-4l-1,-1h-4l-1,-1h-5l-1,-1h-3l-1,-1h-3l-1,-1h-3l-1,-1h-3l-1,-1h-3l-1,-1h-2l-1,-1h-3M632,982l-1,1h-3l-1,1h-3l-1,1h-3l-1,1h-3l-1,1h-3l-1,1h-4l-1,1h-4l-1,1h-4l-1,1h-3l-1,1h-5l-1,1h-5l-1,1h-6l-1,1h-3"/>
<path class="sl" d="M566,943h1v1h1h-1l-3,3h-1l-1,1h-12v1l-6,-1v-1h2v-1h2v-1h1v1l1,-1v1l1,-1h2l2,-1h1v-1h1v-1h2v-1h1l1,-1h1l2,-1h6l1,1v2h-1l-1,1h-2ZM540,945h-1l-1,1h-1l-1,1l-1,-1h-1v-1h-2v-1h-1l-1,-1l7,1h1v-1h1v-1h3v1h-1v1h-1ZM555,890l-1,1h1v9l-1,1v1l-1,2v1h-1l-1,1h-1l-2,2h-8v-1h-1v-1h4l1,1h2v-1h-3l-1,-1h4v-1h-3v-1h-1l-2,1l-1,-1h-1v1l-1,1h-1v-1h-2v-2h3v-1h2v1h1l-1,-1h4l-1,-1h7l1,1v-1h1v-1h-3v-2h5l-2,-2h-3l-1,-1h1v-2h1v-1l-1,-1l2,-2h5v1ZM473,903v1v-1h1v1h1v-1l1,-1h1l1,1l-1,1h-1v1h1v-1h2v-1l1,1v1h-1v1h-10l-1,-1h-6v-1l4,-1h2v1l1,-1h1l1,-1h1v1ZM425,919h1v2l-2,1h-2v-1l-1,-1h-2v-1h5ZM411,919h2v1h2l-1,1h2v-1h2v1h2v1h-6l-1,-1h-3l-1,-1v-1h1ZM416,958v1h-9v-1h-2l1,-1h7l1,1h1ZM394,972v-1h2v1h2l1,1h-3l-1,-1h-2ZM574,952h1v-1v2h-2v-1l1,-1h1ZM575,949l-2,-1h2ZM527,940h-2v-1l1,-1h1v-1h2l1,-1h1l4,-1h1v1h-2l-1,1l-2,1h-1v1h-1l-1,1ZM610,867h1v1l-1,1h-3v-1h1l1,-1h-1v-1h2ZM621,863v1h1v1h-1l-1,-1h-3l1,-1h1ZM618,854v1h1h-3v1l-1,-1l-1,1v-1l-1,1v-1h2l1,-1ZM590,867h1h-1l-1,1h-3v-1l2,-1h1v-1h1l1,1h-1ZM593,867h-1v-1h1l1,-1h-1h1v-1h1v2h-1v1ZM565,882h-2v1h-1v-2l1,-1h1v-1h1l1,-1l2,-1h1h-1v1h-1v2h-1v1h-1ZM541,897v1h-1l-1,1h-7v-1h4l1,-1h1v1v-1h2ZM539,892l1,1v1h-4v-1h2v-1ZM534,910h-1v2l-3,-2v-1h1v-1h1l2,1h1ZM492,909h-1v-2l-1,-1h3l-1,1h1v1h-1ZM400,972l1,1h1h-2l-1,-1ZM652,969h1v-1h2v1h-2ZM665,940h-1h1v-1l1,1ZM666,943v-1h2l-1,1ZM532,942l-1,-1h1l-1,-1h3l-1,1h1l-1,1ZM532,940h-1v-1h-1h2ZM630,852v-1l2,1h-1ZM618,865v1l-1,-1h2ZM610,870h-1h1l1,-1h1l-1,1ZM620,863h-2v-1h2ZM612,866h1h-2ZM576,896v-3h1v1h1l-1,1ZM606,857h2l-2,1v-1h-2l1,-1h1ZM548,893h-1l-2,-1v-1h2ZM482,906h-1h1l1,-1v1ZM459,911h-1l-1,-1ZM428,920h-1v-1l-1,-1h3v1ZM416,925h-2l-1,-1h2v1ZM442,966h1h-2ZM430,963h-2v1h-1v-1h1l1,-1h1ZM376,971h-2v-1l1,1ZM382,972l1,1h-1ZM362,965l-1,-1h-1h1ZM318,956v1l-1,-1h-1h1ZM314,956h-1ZM312,956h-2ZM558,996h1ZM561,996h-1ZM557,997h1Z"/>
<path class="sp" d="M558,997h-1"/>
<path class="sl" d="M636,981h1h-2ZM666,959h-1h2v-1h1v1h-1ZM666,948h1l-1,1ZM660,945v-1h1ZM669,946h-1h1l1,-1h1l-1,1ZM664,944v1h-2v-1h1l1,-1h1v1ZM667,950v-1h1h-1ZM628,939l-2,1l-1,1h-1l2,-2h2v-1h2l-1,1ZM641,938h1l1,-1v1h-1ZM648,940v-1h1ZM574,951l1,-1v1ZM634,853h1ZM613,856h-1ZM577,898v-1ZM583,892h-1v-1h1ZM575,902v-1h1ZM575,903h-1ZM611,857h-1v-1h1ZM605,859h-1ZM601,864l-1,1v-1h1v-1h1ZM596,865h-1h1v-1h1ZM588,869v-1h1ZM597,859v-1h1ZM577,873h-1h1v-1l1,-1l1,1h-1ZM573,875l-1,1v-1h1v-1h1v1ZM569,879h-1v-1h1ZM567,883l-1,1l-1,-1h1ZM547,896h1l-1,1ZM535,911h-1v-1h2ZM485,908l-1,-1h1ZM434,919h-1l1,-2v1ZM406,927h-1ZM409,927h-3v-1h3ZM400,943h-1ZM396,939h-2v-1l1,1ZM404,944h-2l1,-1ZM402,945h-1ZM399,945l1,-1h1h-1l1,1h-1ZM404,946h1l-1,1h-1v-1ZM399,945l-1,1v-1ZM398,942h-1v-1h-1h1ZM401,943h1h-2ZM403,947h-2ZM421,956h-1v1l-1,-1v1h-1v-1h2ZM402,946h-2v-1l1,1ZM435,963h-1l-1,-1h2ZM699,217h1Z"/>
<path class="sp" d="M6,578v0"/>
<path class="sh" d="M338,586h-1v-1ZM566,634h-1v-1h1ZM643,507h3l2,-2v-4h2l1,-1v1l1,2v1l2,1v1h-1v3l1,1v5h1l1,1v1h1v1l-2,2l1,1v2h-2v2h1l-1,1v1l2,1l-1,1v2h1l1,2v6l1,1v8h1l1,1l2,-1h1l1,2l-1,2l-2,6v1h-2l-3,1h-1l-2,1v1h-1v1h-1v3l1,1h-1l-1,1v2h-1l1,2v4l-1,1v1h-1v1l1,1v2h1v1l-1,1h-3l-2,2v2l-2,2v1h-1v1h-1v1h-1l-1,1v2h-1v1l-1,3h-1l-1,1v9l-1,1h-1v-1v1l-1,1v1l-1,1v2h-1v1h-1v1l-1,1v2l1,2l1,1h-1v4h1l-1,2l1,1v1l-1,1v1l1,1h1v2l-1,1v3l-1,1v1h-1v1l-2,2v1l-1,1v1l-1,1v1h-1v1h1l-1,1l1,1h-1v4l-1,1h-1l-1,1v1h-2l-1,1v1l-1,1v5l-1,1v3l1,1l-1,1v2l1,1l-2,2h-2v1h-1v4h-1v1h-1v3h-1v1h-1v2h1h-1v1h-1v2h-1l1,1l-1,1v5h-1v1l1,2v1h-2l-1,1v2l-1,1v4h1l1,1h-1v1h-1l1,1v2h-1l1,1l-1,1v1l-1,1v1h3l1,1v1h-1v1h-5v1h1l2,1v1l1,1h-1l-1,1v1h-1l-1,1v1l1,1l-1,1h-1v5h-1l-1,1v2h-1v1h-1l-1,1v1l-2,2v1h1v2l-1,1h-1v1l-1,1v1l-1,1h-2v1l-1,1v1l-2,-1v2h-1l1,1v1l-1,1v2l1,1v3h3v-1h1v4h-1v3h-1v1h1v1h1v2h7l3,1h1l1,1h2l1,1h1l1,1l-3,-1h-2l-1,1h-2l-3,1h-1l-1,1v1l-2,2v2l-1,2h-3l-1,-1h-1v-1l-1,-1v-1h3v1h-1v1l1,-1v-1l2,-1l1,-1h1v-1l-1,-1l-3,2h-1l-1,1h-1v1h-1v1h-1l-1,-1v-1l1,-1v-1l1,-1h2l2,-1l1,1h2v-1h-2l-2,-1l-1,1l-1,-1l-2,2v1l-1,1h-1l-1,-1v-1h1l1,-1h1v-1h-1v1l-1,-1l-1,1h-2v-4h-1h2l1,1v-1h5v-1h1v2l-1,1h1v-1h1l-1,-1v-1h1v-2l-2,-2h-1v1h1l1,1h1v1h-2l-2,1l-1,1v-1h-1v-2l-1,1v-1h-1v-1h1l1,-2l-1,-1h-2l-1,-1h-1v-2h-1v-1h3v-1l-1,-1h2l1,1v2l2,1l1,-1v-2l-1,2h-1l-1,-1l1,-1h1h-1l-2,-2v-1h1l1,-1h1l-1,-1v-2h2l1,1v-1h-1v-2l1,-1v-1l-1,1v1l-1,1v1v-1h-1v-1l1,-2v-2l1,-1v-1h1h-2v-4h1l1,1h2l2,1h1l-1,-1v-3l-2,2h-2v-1h-1v-1h-1l1,-1h1v1h1v-1h-1v-2l2,-1v-3h-1v1h-2v-1l-1,-1v-1h-1l-1,1h-1v2l-1,-1v-2l2,-1l1,-1h1l1,-1l-1,-1l1,-1h4l1,-1h1v-2h1v1l-1,2l-1,1v1l-2,1h2l1,-1l1,-2h1l-1,1v1l-1,2l-1,1v1h1v-1h1v-2l1,-2v-4h5v1v-1h-1l-1,-1h-1l1,-1v-1h1l1,-1l2,-1l1,-1v-1l-2,-2h-1v-1l1,-2h1v-4l2,-2h1v-4h1v-3h1v1l1,1v-3h-2v-2h2l1,-1h-2v-1h-2l-1,1v1h-2l-1,-1v-1l-1,-1v-4l1,-1l1,-3l1,-2v-2l2,-1l2,-3v-7l-1,-1l1,-1v-9l1,-1l1,1h1v-1l1,-1v-2l3,-3l1,-3l1,-1v-2l2,-2v-1l2,-1v-2l2,-2v-3l1,-1v-1l1,-1v-1l2,-1v-5h1v-1l1,-2l1,-1v-16l1,-3l2,-1l1,-2v-9l2,-2v-1l1,-1v-3l1,-2l2,-2v-3l1,-2v-1l2,-4v-1l1,-2l-1,-1v-1l1,-2h1v-1l1,-1v-8l1,-2v-3l1,-1v-1l-1,-1v-3l1,-1h1v-1l2,-6v-1l1,-1v-2l1,-2v-2l-1,-4l1,-2v-3l1,-3v-3l-1,-2v-6Z"/>
<path class="sh" d="M600,787v2l-2,4v2l-2,4v2l-1,1h-1v1h-1l-2,-1l-1,-1h-1v1l-1,-1h-3v-1h-3l-2,-1v-1h1l1,1v-1h4v1h2l-1,-1v-1h-1v-2h1l1,-1v-1h1v3h-2l3,3v-1h1l1,1h1v1l1,-1l-4,-2v-3h1l2,-1h2v-1h-1v-1h-1l-2,1l-1,-1v-2h2v-2h-1h2v1l1,-1h1l1,-1v-1l2,2l2,-1ZM602,805l-1,1h-1v-1h-1v1h-1l-1,-1v-1h-1l1,-1h2l2,1ZM589,715h-2l-1,-1h-1l1,-1v-1l1,-1l1,-2v-3l1,-1v-1l1,-1h-1l1,-1l1,1h2v3l-1,1v1h-1l-1,1l1,1v1l1,1h-1v1h-2v1ZM576,759v2l-1,1v2l-1,1h-1v-3h1v-1h-1v1l-1,1v1h-1l-1,-1h-1v-1h2v-1l-1,-1h1v-1h1v1l1,-1l-1,-1h1l1,-1v-1l1,-1l1,1ZM571,756l-1,-1v-1l1,-2h1v-2h1v5h-2ZM571,786v1h2v1h2l1,1v1h-1l-2,-2h-1l-1,-1h-1v-1l-1,-1h1v1ZM576,755h-2v-3l-1,-1v-1h1l1,-1h1v3l1,1h-1ZM577,791v1h2v1h1l-1,1v1h-3l1,-1v-1l-1,1v-1v1h-1v1v-1h-1l1,-1v-1h-2v-1h-1l1,-1h2v1h1v-1h1ZM570,777v2h1v1l-1,1v1l-1,-1v-4l1,1ZM590,802l4,1h2v1h-1v1h1v1h-1l1,1v1h-1v-1h-2v-2h-1v-1h-1v2h-1l-1,-1v-1v1v-1h-1l1,-1v-1ZM584,795l1,1v2h-1l-1,-1h-3v-3h1l1,1h1ZM588,723h-1l-1,1v4l1,1h-1v1h-2v-1l-1,-1v-3l-1,-1h1v-1h2l1,-1v-1h1v1h1ZM592,726l-2,1h-1v-2l1,-1v-1h2l1,1v1ZM579,726v-1ZM569,770h-1l1,-1v-1h1l1,1h-2ZM573,756v1l-2,2h-1v-1h1v-1h-1v-1h2ZM574,749v-1h1v1ZM583,716h-1ZM588,726h-1v-2h1v1ZM572,774v1h-2l-2,2v-2h1v-1l1,1l1,-1ZM571,767l-1,1v-1h-1v-1h1v-1h1l1,1h1l-1,1ZM588,718v1h-2v-1h1ZM574,779h-2v-1h1ZM582,733h-2v-1l1,-1h1v-2h1v3ZM598,810h-1ZM604,806v1v-1h1ZM584,801v1h3v1l-1,1h-1v-1h-1v-1h-1l-1,-1v1v-1h1ZM599,810v-1h-1h1v-1v1Z"/>
<path class="sw" d="M531,65v1h5v-1h3l1,-1h2l1,-1h1l2,1h2l1,-1h8v-1h-1h1v1h1v1h-2l-1,1h-2l-2,1h-2l-3,1h-2l-2,1h-6v1h-1v-1h-3l-1,-1h-2l1,-1h1ZM557,63v-1ZM534,67h1ZM454,34h-2v1h-2v-1h1v-1h1v-1h1h-1l-1,1v-1h1v-1h-1l-1,1h-1h1v-2h-1v1h-1l1,-1h-1l-1,1h-1v-1h-2v-1h-1v-1h1h-3v-1h1l1,-1h1v-1h1v1l1,-1h1l1,1h1l-1,-1h-1l1,-1h2h-2v1h1v1h1v1h1v1h-1h1v1h1v2h1v1h2v1h-1ZM447,30v-1h-1ZM453,33h-1ZM418,11h-6v1h-1h1l2,-1h1h-1v1h-5l-1,1h-2l-2,1h-2l-2,1h-3l-1,1h-3l-1,1h-4l-1,1h-3v-1h5v-1h4v-1h1h-1h1h-1h-1v-1h11l1,-1h3v-1h3l2,-1h5ZM405,13h1h-2v1h-4v1h1v-1h3ZM575,58l-2,1h-1h2v1h-1l1,1h-2l-1,1h-6l-1,-1h-8l-1,1h-2v-1h-1l1,-1h1l1,-1h12v1h1l1,-1h-1h1h-2l1,-1h-2v1v-1h-1v1v-1h3v1v-1h1l-1,1l1,-1h5ZM570,59v-1v1h-1ZM573,58h-2v1h1ZM574,58h-1ZM400,10h1h-1v1h-3l-1,1h-4l-1,1h-1h1h-3l-1,1h-3l-1,1v-1h2l2,-1h1h-1l-1,1h-3v1h-4l-1,1v-1h4l1,-1h2l1,-1h1h-1l-1,1h-3l-1,1h-1h1l3,-1l1,-1v1v-1h4l1,-1h4v-1h1h-1v1h-1h2v-1h5l1,-1h1h-1ZM531,65v-1h2v-1h1v1h1v1h-1l-1,-1h-1v1ZM557,146h-1v1h-1l-1,-1h-1v-1h1l1,-1h1v1h1ZM527,253v2h-2l-1,-1h-2l-1,-1h-2v-1l-1,-1v-1h-1v-3h3l2,2h1l3,3v1ZM653,489h-1v-2h-1v-1h-1v-1h-1v1h-1v-2h2l-1,-1v-2h2l4,4v1h1v1h1l1,1h-1v1l1,1h1v1h-3v1h1v1h-1l-1,-1v-2h2l-2,-2v2h-1ZM441,28h-7v-1h-1h3v-1h1h-1h1v-1h1v1h-1h3v-1h1h-1v1h-3v1h1v1h1v-1h2ZM346,80v1h-2v1h-1v-1h-1v-1l-1,-1l1,-1h1v1h1v1v-1h1v-1v1h1v-1h1l-1,1h-1v1ZM345,81v-1ZM519,50h-1v1h-1h1v1h-2v1h-1v1v-1v1h-1v-1l1,-1h-1v1h-2l-1,1h-1l1,1h-1v1l-1,1v2l1,1v1h1v3h-1v1h-1v1h-2l-1,1h-3l-1,-1v-1h-1v-4h-1v-1l1,-1v-1h1h-1v-1h1l1,-1v-2h1h-3v1h-2l2,-2h1v-1h1l2,-2h3v1v-1h2v-1h2v1v-1h6ZM515,50h-1v1h1ZM506,51v1h1h-1ZM505,52h-1v1h-1v1h1l1,-1v-1h1ZM521,47h1l-1,1h-3l-1,-1h1h-1h1l-1,-1l-1,1h-8v1l-1,-1v1l-1,-1h-3l-1,-1h-5v-1h-3v1h-5l-1,1h-5v-1h-3l-1,1h-4v-1h3l4,-2h1l1,-1h4l1,-1h3v-1h1v-1h2v1h-1h1l2,-2h1v1h-1h2v-1h-1h11v1h1v1h1v1h7v1h-1v1h3v1h-1v1h1v1h1h-1l1,1ZM484,46h-1v1v-1ZM484,46h1ZM485,45v1ZM499,39h1ZM494,42h2l1,-1h-1l-1,1h-2v1ZM501,44h-4l-1,1h1v1v-1h1l2,-1h-1h1ZM501,39h1ZM514,43h-1ZM522,47h1v1h3v1h11v1h1v-1l1,1h-1h5l1,1h1v1h1v1h3v1h-1h2v1h1h-2v1h-3l-1,-1h-2v-1h-2v-1h-1v1h1v2h-1v1h-1v4h-2l-1,1h-1v-1h-1v-2l-1,-1h-1v-1h-2l-1,1h-1v1h-3v-1l1,-1h1l1,-1h1v-2h-1v-1h1h-1v-1h-3v-1h-4l-1,-1h-1h1h-1h1h-1l1,-1h2l2,1v-1h-1v-1h-2ZM528,50h-1ZM527,49h-2v1v-1v1h2ZM525,49l-1,-1h-1v1h1ZM523,48v1ZM523,48v-1h-1v1ZM521,50h1ZM530,50h2v1h4v1h1l1,-1h1h-1v-1l-1,1v-1h-8ZM538,52h-1ZM548,55h-1Z"/>
<path class="sw" d="M426,156l-2,2v2l-1,2v2l-1,2v-4h1v-2l1,-1h-1v-2h1v-1v1h1v-1ZM432,16v1h-2l-1,1v-1h-1l-1,1l1,-1h-1h2v-1h4ZM407,17l-1,1h-3l-1,1h-3l-1,1l1,-1h-1v1h-1l1,-1h-1h2l2,-1h1l2,-1h3l1,-1l1,1l1,-1l-1,1h1l1,-1h2v1h-5ZM581,35h-1v1h-1l1,-1h-1l-1,1v2h-1h1v-1h-1v-1v1h-1v-1l1,-1h2v-1h3l-1,1h-1h2ZM465,38h-1v1h1h-3l-1,1h-1v-1h-1v1h-1v-1h2v-1h1l1,-1h-1v1h-2v-1h4l-1,-1h1v1h2ZM462,39h-1h2ZM499,35v2h-3v-1h-1v1h-1h1l-1,-1h-1h1l2,-2h1l1,1l-1,-1h1v1h1h-1ZM497,35h-1v1h-1h1v-1ZM497,36h1h-1v1ZM437,17h1h-2l-1,1h-1h1h-1v1h-2l-1,1h-2l-1,1h-1v-1h4v-2h-1h2v-1h3l1,-1v1v-1h1l-1,1ZM577,63h-1ZM294,97v1h-1v-1h1l1,-1v1ZM498,57l-1,1v-1h-1h1v-1h1ZM556,5v-1h1h-1h2v1h1h-2ZM446,7h3v1h-4ZM475,5h1h-2ZM590,60l1,1v1v-1h-1v-2l-1,-1v-1h1v-1l1,1h-1v1h1h-1v1h1h-1ZM306,123l-1,1h-1v-1h-1l1,-1ZM389,15h-2l1,-1h1ZM597,699v-2h1v-1l1,1v1h1h-1l-1,1ZM591,44h-2v-1h2v1h1ZM569,65v1ZM571,66l-1,-1v-1v1h1ZM573,66l-2,-2h1v1ZM416,19h1h-1v1h-3l1,-1h1ZM454,7h1h-2ZM438,12h1h-1h2v1h-1l-1,-1h-1ZM481,125h-1l1,-1ZM567,21h-3l-1,-1h2l1,1ZM545,49h6v1h-3v-1h-2ZM555,20v-1h1v1h1ZM686,621h-2l-1,1l-1,-1v-1l-1,-1h3v-1l1,1h1l1,1ZM561,26h6l-1,1h1h-5v-1ZM561,26h-2v1h-4v-1h-1h3v-1h-1h3v1h1ZM634,206v1h-1l-1,-1h1ZM387,18l-1,1h-1h1ZM559,27h-1v1h-1v-1h1ZM588,768h-6v1h1v1h-1v-2h-1h2v-1h-2v-1h1v1h6ZM423,14h-1v1h-1v-1h1ZM492,27v-1h3l-1,1ZM113,810v1l-1,-1ZM365,64h-1v-1h1l-1,1ZM352,53l1,-1v1h-1v1h-1h1l-1,-1ZM324,107v-1h-2v1h-2v-1v1h-3l2,-1h1v-1l1,-1v1l-1,1h1v1v-1h1l1,-1v1h1ZM394,20v1h-2v-1h1h-1h3ZM623,32h-4l-1,-1h-4l1,1h1h-2v-1h-2v-1h-2l-2,-1h-1l-1,-1v1h1l1,1l-1,-1h-1v-1h-1h1h-1v-1h-1h2v1h-1h1l1,1h2v1v-1l1,1h2l1,1h1h-1h2l-1,-1h-1l-1,-1h1v1h2v1h2v-1h-1v-1h-1h1v1h2v1h2l1,1l1,-1v1ZM492,220h-1v2h-3v-1h2l1,-1ZM481,32h1l-1,1ZM577,43h-1v1v-1h-2v1v-1h-2v-1h4v1h3v1h-1v-1ZM573,24h1h-2ZM772,329h-1v1h1h-1v1h-2v-3h1v-1h1v1h1ZM568,64h-1ZM573,64h-1ZM574,64h-1ZM353,75h-1v1v-1l1,-1ZM346,84h-1v-1h1ZM378,15h1h-2ZM463,45v1h-2v-1h1v1ZM487,39h-1ZM572,48h1v1h-2v-1ZM603,691h-2v-1h2ZM365,22h-1l-1,1v-1h3ZM587,764h-1v-1h-2v-1h1l1,1h2v2ZM145,850h1v1h1v1h1h-1v-1l-2,-1h1v1v-1ZM640,65h-1ZM629,58v-1h1v1Z"/>
<path class="sw" d="M301,84h-1v1v-1l1,-1ZM300,93h-1v-2h1v1ZM291,107h-1ZM405,9h-2v1h-1h1v-1h1Z"/>
<path class="sr" d="M404,9h1"/>
<path class="sw" d="M600,42h-1v-1h-1v1v-1h-1v1h-1v-1h-1v1v-1h2v-1h1v1h1l1,1h1l1,1h-1v-1ZM668,52l-2,2h-1l1,-1h1v-1ZM381,14l-1,1h-1h1Z"/>
<path class="sr" d="M379,15h1l1,-1"/>
<path class="sw" d="M392,13l1,-1h1h-1v1ZM488,24h1ZM471,32h-1h2ZM468,25h-4v-1h2v1v-1h3v1ZM590,31h1h-1h1v1v-1h-2v-1h-1h1v1ZM419,24h-1l-1,1h-2v-1h3ZM466,49h-1l1,-1ZM604,63v1l-1,-1ZM553,57h-1v-1h2v1ZM470,22h1h-3v1h-1v-1h2ZM314,76h-1ZM674,56h-1v1v-1ZM462,20v1h-1v-1ZM471,41h-1h3l-1,-1h-4v-1h1v1h1h-1h4v1h1h-2ZM342,34h-2l-1,1h-3v2h-1h1v-1h-1v-1v1h-1v-1h1v-1h1v1h-1h4v-1h4ZM461,19h-1h1h-1h1h-1ZM394,49v-1h-2v1h-5l-1,1h-1l-1,1v-1h1h-1h2v-1h5v-1h2l1,-1v1ZM417,47h-1v-1h-1v-1h-3l-1,1h-2l1,-1v1h1v-1h4v1h1l1,-1v2h3v-1h2v1h-4ZM324,34v-1h1h-1h1h-1ZM337,51v-1h1h-1ZM342,54h-1l-1,1v-1h1h-1h1ZM322,59h-1v-1h-1h1ZM423,16h-1l2,-1h1h-1ZM459,43h1h-2ZM459,42h1v1h-1ZM460,7h-1h1v1ZM564,7h-2v-1v1h-1l-1,-1h-1h1h-1h4l1,1h1h-2ZM402,133h-2v-1h-1h1l1,1h1v-1ZM568,47v1v-1h-2v-1h-1h1h-1l1,-1h1h-1v1h1v1ZM380,193v1h-4l-1,-1h4ZM516,245v1h-2v-1h-2l-1,-1h3l1,1ZM752,579v1h-1l1,1h-2l1,1v1h-1l1,1h-2l1,1h-2v-1l1,-1v-1h-1h2v-1l-1,-1h-1h2v-1h1v-2h1v-3h1v2l-1,1ZM571,271h-2v1h-1v-1v1v-1l2,-2v1h-1h1v1ZM996,440v-1ZM994,426v-1ZM994,422v1v-3h-1v-1v1v-1l1,1v1Z"/>
<path class="sr" d="M996,438v2M995,430v0M994,426v0M994,425v1M994,423v1M994,421v1"/>
<path class="sw" d="M744,647l-1,1v1h-1v1h-1v-1h-1l-1,1h-1v1h-1v1h-1v2h-1v-1h1v-3h1v-1h2v-1h1v-1h1v-1h1l1,-1v-1h1v2ZM444,36h-3v-1l-1,-1v-1v1h1l-1,-1v-1h-1h1v1h1v-1h1h-1v1h1v1h-1h2v1h2ZM437,32h-1v-1l-1,1v-2h2l-1,-1h-1v1v-1h-3v-1h7v1h-1v1h-1v2h-1ZM605,37h1h-2v1h-1v-1h-2l-2,-2h4v1h2ZM604,36h-1h1v1v-1h-3v1h3ZM403,23h-1v-1h2v1h-1h1v1h-2l-1,1h-2v-1h2v1v-1h2ZM599,741h-1l-1,-1h-3l-1,1l-2,1h-2v1h-1h1v-1l1,-1v-1h1v1l1,-1h3v-1h2l1,1h1ZM324,107v-1h-2v1h-2v-1v1h-3l2,-1h1v-1l1,-1v1l-1,1h1v1v-1h1l1,-1v1h1ZM349,94v1h-1l-1,1h-1v1h-1v1l1,-1v1h-3l-1,1h-1l-1,1v-1h2v-1h2l1,-1h1v-1h1v-1h1ZM452,17h1h-2l-1,1h-4v1h-1l1,-1h3v-1h1v-1h1v1v-1h1ZM861,470v2h-1l-1,1v1h-3l-1,-1h-1l-1,1v1l1,1v1v-1h-1l-1,-1h-1l1,3v3l-1,1v-1l1,-1v-1l-1,-1v-1l-2,2v1l-1,1v2l-1,1v-1l-1,-1v-2h1l1,-1h-1v-1h1v1h1v-1h-1v-1l1,1h1v-1h-1v-1h2l-1,-1v-1l-1,-1l1,-1v2h1v-1v1h1v-3l1,1v-1h1v-1v1h2l1,1h1v1v-1l1,1v-3h1v-1l1,-1v1ZM848,481v-1l-1,1v2l1,-1ZM149,854l-1,-1ZM150,855l-1,-1h-1v-1v1h1l-1,-1l1,1ZM544,40h2l1,1h1v-1l1,1h1v1v-1h-4v-1h-1ZM394,49v-1h-2v1h-5l-1,1h-1l-1,1v-1h1h-1h2v-1h5v-1h2l1,-1v1ZM424,56h-1v1h-1h1l-1,1h1h-1v-1h-1v-1h1v1l1,-1h1v-1h1l-1,-1h-1h1v-1h-1h2l-1,-1v-2h1h-1v-1l1,1v1h-1v1h1v1l-1,1h1v1ZM324,34v-1h1h-1h1h-1ZM337,51v-1h1h-1ZM996,440v-1ZM994,426v-1ZM994,422v1v-3h-1v-1v1v-1l1,1v1Z"/>
<path class="sr" d="M996,438v2M995,430v0M994,426v0M994,425v1M994,423v1M994,421v1"/>
<path class="sw" d="M425,9h-2l1,-1h1h-1v1l1,-1ZM425,8h3l-1,1h-2ZM429,62h2l1,1h1h-2v-1h-2l-1,-1v-1h1v-1v1h-1v1h1ZM413,148v2h-1v-2h-1h1l-1,-1h1ZM403,26v-1h1l1,-1l-1,1h-1ZM433,12h-1v1h-1v-1h-1h1h-1h2ZM473,4h-1ZM593,28h1h-4v-1h1h-1h1l1,1ZM597,29v1h1h-1v-1h-3v-1h1v1h1ZM588,27h-1h3v-1h-1h1v1h1h-2ZM499,90v1l1,1v2h-1l1,-1v-1h-1v-2l-1,-1ZM540,105l1,1h1v1l-1,-1l-1,1h-1v-1h1l-1,-1ZM345,42h1h-2v-1h-1h1v1ZM547,131v-1l1,1h1v1h-1v-1ZM317,115h-1h1l1,1h-1ZM287,91v1h-1v-1v1ZM408,10h-1h1l1,-1l-1,1h1l1,-1h1h-1v1h-1ZM294,83v1h-1v-1ZM311,77l1,-1v1ZM621,57l1,1v-1v1h-1l-1,-1ZM808,413l-1,-1h1v-2h1v-1v1l1,1v3l1,1v5l2,2h-1l-1,-1v-1l-1,-1v-2l-1,-1v-1h-1l1,-1v-1ZM823,544h-1v1l-1,1v-1h-1v-1h1v-1v1l-1,-1h1v-1h-1h1v-1h-1v-1h1v-2h1v1l-1,1v1h1v2h1ZM779,547v-1h2v-1h1v-3h1v-1v3h1l1,-1v1h-1l-2,2v1h-2v1h1h-1v-1ZM600,694h1ZM616,734v1h-2v-3h1v1h1ZM319,34h-1h2ZM502,100h5v1l-3,-1h-1ZM561,33h1h-2ZM481,32h-1ZM478,29h1v1h-1ZM551,33h-1ZM555,45h-2v-1h2ZM562,45h1l1,1h-2ZM426,8h1ZM426,8h-1ZM525,1h1h-2ZM451,3h-1l1,-1ZM465,2h1h-1v1h-1v-1ZM459,21h2ZM428,25l1,-1v1ZM410,27h1v1h-1ZM587,29h1h-2ZM638,38h1l1,1l-1,-1h-2ZM413,10v-1h-1h1ZM525,41h-1h2ZM408,24h1v-1v1ZM410,24h1ZM442,8v1h-1v-1ZM436,11l1,-1h1h-1ZM429,16h1ZM589,22l1,1h2h-2l-1,-1h-1ZM497,2h-1ZM499,2h-1Z"/>
<path class="sb" d="M546,266v1h-1l-1,-1v1h-1v3h1v1h1v1h-1l-1,1l1,1v1l-1,1h-1l2,2M537,256v1h-5v-1l-1,-1h-4l-1,1l-4,-2h-3v1M540,226l-2,-1l-1,1h-1l-1,1h-4v1h-3l-1,-1h-2l-2,2v1h-1v1l-1,1h-1l-1,1v1h-1l-2,-2l-1,1h-1v1h-4v4h-1v1h-1v1h-3M498,220h-1l-2,2h-1l-2,1l-3,3v1l1,1l-1,1h-1M492,219h-3v-7l1,-2v-5M482,234v-1h1l1,-1h1v-1h1v-2h2l2,1h1v1h1v1h3v1l1,1v-1h5l1,1v1l-1,1h1l-1,1M497,200h-2v2l-2,1v1h-3v1h-15v4h-4l1,1h1l2,2h1l1,1v1l1,1h1v2h-2l-2,1h-7l-2,2l-1,2l-1,1v1l1,1l-1,1v3M428,153h-3l-2,-1h-4l-1,-1h-4l-1,-1v-2h-1l-1,-1v-3l-1,-1h-1l-1,-1v-1l-1,-1h-1v-2h-1l-1,-1v-2h-1l-3,-3h-1v-1h-2l-1,1h-3v-1h-1v1h-2l-2,2v1l-1,1h-1v1h-3l-1,-1h-3v-1h-2v-1h-1l-1,-1v-3l-2,-2h-1l-1,-1l-2,-1l-1,-1h-1l-2,-2h-2l-1,1h-8l-2,2v1h-2l-3,1h-5l-2,1h-5l-3,1l-3,-1h-3l-2,-1h-6l-3,-1h-6l1,-1v-1l-2,1h-2l-2,1h-2l-2,1h-4l-2,1M581,56h-3l-1,1l-2,1h-2v1h-2v1h-1v1h-3l-2,-1h-9l-1,1h1v1h1v1l-1,1h-4l-1,1h-8l-1,1h-2l-1,1h-7l-1,-1v-1l1,-1h2l1,-1v-2h1v-1l1,-1l-2,-2v-2h-1v-2h-1v-1h-2l-2,-1h-1l-2,-1h1v-1h-4v-2h-1v1h-2v-1h-1l-1,-1h-1l-1,-1h-4l-1,-1h-3l-1,-1h-3l-1,-1h-3v-1h-6l-1,1h-10v-1h-1l-1,1h-4l-1,-1h-3l-1,-1h-3l-1,1h-2v-1h-5v-2h-2v1h-2l-2,1h-17l-2,1h-12l-3,1h-9l-2,1h-10l-2,1h-7l-2,1h-7l-2,1h-5l-2,1h-5l-2,1h-4l-3,1h-4l-2,1h-4l-3,1h-4l-2,1h-4l-2,1h-3l-2,1h-4l-2,1h-2l-2,1h-2l-2,1h-2M307,39h-1l-4,2h1v-1h2l1,-1h1h-1v1h-1h1v-1l-2,2h-1h1l1,-1h1l1,-1h2l1,-1h1l1,-1h1l1,-1h1l-1,1h-1h1h-1h1h-1v1h1h-1l-2,2h-1v1v-1h1l-1,1h-1h3v1M718,621v1l-1,1h-1v2l-1,1v2l-1,1v1l-2,2h1v1h-1v1h-1v1l-1,1v2l-1,1M748,586l-1,4l-2,4l-1,1h-1v1h-1v1h-3v1h-1v1l-1,1h-1l-1,-1h-2v1h-3l-1,-1h-2l-1,-1l-3,-1l-2,-1h-3v-2h1v-1h1v-1h1v-1h1v-3l1,-1v-1h2v-1l1,-1v-1h1l1,-1v-2l-1,-2l-1,-1h-1l-3,-3l-3,-2l-3,-3l-1,-2l-2,-1h-1l-4,-2l-1,-1v-1l-3,-3v-1h-1l-1,-1v-1l-3,-6l-1,-1v-1M733,535v-1l1,-1l-1,-1l-1,-2l-2,-1l-2,-2l-4,-1h-16l-2,4l-2,2l-2,4v2l-1,3l-1,2l-1,3l-1,1v1l-1,-1v-1l-4,-1h-5l-1,2l-2,2v2h-1v-4l-1,-1v-1h-1l-1,-1h-6v-1h-1l-1,-2h-1v-1v1l-1,1v1h-2l-1,1h-1v1l-2,1l-1,1v1h-1M655,443l1,2v2l1,2l1,1v2l1,2l1,1l1,3h-1v1l-2,2v6h-1v1l1,2v2l-1,1v1h-1v1h-1v2h-1v2l1,2l-1,1l-1,2v1l1,4h1l1,1h1v1h-1l-1,1v1l-3,3v1h-1l-1,1v1h1v1"/>
<path class="sb" d="M610,347l-1,1h-1l-1,-1v1h1v2l1,1h1v3h-2v3l-1,2l-3,3l-1,2l-2,1h-1l-2,2h-2l-3,1l-1,1h-3l-2,1l-1,2h-1v1h-1h1v1h-1v-1h-1v2l-1,1v2h-1v1l-1,1v3l-1,1h-1v1l-1,1h-2l-2,-2v-2h-2l-1,-1h-1l-1,-1h-1l-1,1h-1v-1l1,-1h-1v-1h-1l1,-1h2v-4l-1,-1M654,386l-1,-1v-1h-1v-2h-3l-1,-1l1,-1l1,-3l3,-3v-2h-1l-1,-1h-1v-1h-2v-1l-2,-1h-2l-1,1h-1v-1h-1v-1h-3v1h-3l-1,1l-1,-1h-4v-1h-2v-1l1,-1v-1l-1,-1v-1h-2l-1,-1l1,-1h-1v-2h-1v-1h-2v-1h-1l-1,-1h-1v-1l-1,-1v-1l-1,-1v-1h-1l-1,-1v-1h-2l-1,-1h-3l-1,-1l-2,-1h-1v-1l-1,-1l-2,-1h-1v2h-2v-1h-1v1l-1,-1h-1l-1,-1h-3v-2h-1v-1h-1v-1h-1l-2,-1h-1l-1,-1l-2,-1l-1,-1h-1v-1h-1M680,343l-1,-1h1l-1,-1v-2l-1,-1v-1l-1,-1h1h-1v-3h-1v-1h-1v-1l-2,-2h-2l4,-4h1v-1l-3,-3l-1,-2v-3h-1v-8h1l1,-1v-2l1,-1v-2h-1l-1,-1h-14l-3,-3l-1,-2l-2,-2h-1l-1,-1h-2l-1,-1h-1l-2,1h-1l-2,-1h-5v-1l-3,-3h-1v-4l1,-1v-2h-1l-2,-2v-2l-1,-2h-1v-1h-1v-1l-1,1h-2v-1h1v-1l2,-2v-4l2,-4l1,-1v-1h1l2,-1l1,-3h3l1,-1h2M728,317l-6,-6l1,-1v-1h1v-3h-1l1,-1h3l1,-1h2v-2h-2l-1,-1h1v-1l-1,-1v-1l1,-1h1l1,-1h2v-1l1,-1l-1,-2M761,350l-1,-1h-1v-1l-1,-1v-1l-1,-1v-2h-1v-2h-1v-3l-1,-1h-2v-2l-1,-1h-1v-2l-2,-2v-1h1v-2l1,-1v-1h-1v-1h1v-1h4v-4M774,349h1l2,-2v-2l1,-1l-1,-1l2,-2v-1h-1v-2h-1v-1l-1,-1v-2l-1,-1v-5l1,-2l1,-1M736,656l-1,-1l1,-1v-3l1,-1h1v-1l1,-1h1v-1l-1,-1v-1h-1v-4h-1v-1h-1v-1l-1,-1v-2h-1l-1,-1l-1,-2v1l-1,-1v-2l-1,-1v-1h-1v1h-1l-1,1h-1v-1h1v-3h-1l-1,-2l-1,-3l-1,-1h-1l-1,1h-3v-1h1l3,-3h1l5,-5h1l1,-1v-1l1,-1h1v-1h1v-1h2v-1l1,-1h1l1,-1h2v-1h1v-1h1l1,-1v1l1,-1h2l1,-1h1l1,-1v1v-1l2,-2v-1l1,-2v-1l1,-1l-1,-1v-5h-1v-1l-1,1h-2v-2l1,-2h1v-1l3,-6v-3l-2,-2l-1,1h-4v-11l1,-1l-1,-1v-2h-1v-1h-2v-1l-1,-1h-1v1h-3l-1,-1h-2l-2,-2l-1,1l-1,-1v-1h1v-3h1v-3h1v-7l-1,-1v-2h1l1,-1v-1l-1,-1l1,-1l1,-2v-1l1,-2h1v-2l1,-3l1,-1h1v-1h-1v-2l-1,-3v-1h-1l-1,-2l-1,-1h-1v-3l2,-4v-1l-5,-1l-3,-1h-3l-2,-1v-7l-1,-1l-1,-2h2v-12h-1l-3,-3h-6v-1l-2,-2v-1h-2l-2,-2h-1v-1l-1,-1h-1v-2l-1,1l-1,-1h-1v-1h-1l-1,-1l-1,1l-1,-1h-2l-2,-2v-1l-1,-1h-1v-1h-1v-1l-1,-1v-1v1h-1v-3h-1v-3l1,-1v-1l-1,-2v-2h1v-4l1,-1l-1,-1h-10l-1,1l-3,2h-2l-1,1h-1l-1,1v1h-1v-1h-1l-1,1h-1l-1,1v1h-2l-1,1h-1v-1l-2,-1h-2l-1,-1h-5l-2,1h-1l-1,-1h-1v-9l1,-1v-3h-1v1h-1l-1,1h-1v1l-1,1h-4l-2,-1h-2v-1l-1,-1v-2h-1l-2,-1h-1l-2,-1h-2l3,-3l-2,-2v-1h-1l-1,-1h1l-2,-2v-1h-1v-2l-1,-1h1v-1h-1l-1,-1v-1h-1h1v-2h2v-1l-1,-1v-1h1v-1l2,-1l1,-1h2v-3l-1,-1v-1h1l1,-2v-1h1v-4h2l3,-3h1l1,-1h1l1,-1h7l2,-2h1v1h3l1,1h2v-2l1,-3v-3l1,-2l1,-3v-3l1,-3v-3l1,-2v-3h-1v-1l-1,-1v-3h-1l-3,-3v-2l1,-3v-1h6v1h1v-3h-1v-1h-4v-1l-1,1v-6h4l1,1h7l1,1h1v-1h-1v-1h1v-1v1l1,1v1h1l2,-2h1v-1h2v1l1,2l1,1v4h2l2,2l1,2h4l1,-1h2v1h1l-1,1v1h1l1,-1v-1h1v-1h1l1,-1h2l1,-1h2l1,-1h1v-3h3l1,-1h1l1,-1v-1h-2l-1,-1h-3v-1l1,-1l-1,-1l-1,-2v-5h-1l-2,-2l-1,-2l-1,-1v-1h1v1l1,1h3v1h1v1h4v1l1,-1l4,4h1v-3h1l1,-1h1l2,1l3,-1h2v-1h1l1,-1l1,1h1v-2h2l1,-1v-1h-1v-2l1,1h3l1,1v4h-1v1h3l1,1v2l1,1v2l-2,2v2l-1,2v4l1,2h1v4h1v1h1v1l1,1v1l1,1h2l1,1v1l1,-1h2v-1l1,-1h1v1h1l1,-1h3l1,-1v-1h2l2,2h3l2,1h2v-2h-1v-1h-1v-1h1v-1h1l1,1h6l1,1h1v1h1v1l1,1h2v1l1,-1h1v-1h1v1h1v1l1,-1h1v1h1l1,1h1v-1h1l1,-1v-1l1,-2v-1h1l-1,-1h1v-1h1v-1l1,-1v-1l1,-1v-1h1"/>
<path class="sb" d="M935,254l-2,-4l-1,-1v-1l-1,-1v-1M940,279h1l1,1v1h1v1h1v1h1v1v-2l-1,-1v-3l-1,-1v-1l-1,-1v-2l-1,-1v-1l-1,-1v-3l-1,-1v-3l-1,-1v-1h-1v-2h-1v-3h-1v-2h-1v-1l1,1v1l1,1v1h1l-1,-1h1v1v-1h-1v-1l-1,-1v-1v1l2,2M942,283h-1v-2l-1,-1h1l1,1v1h1l4,4v1h1v1h1v1h1l-1,-1v-1l-1,-1v-2l-1,-1v-1l-1,-1v-1l-1,-1v-2h-1v-1h1l-1,-1v-2l-1,-1v-1l-1,-1v-1l-1,-1v-1l-1,-1v-1l-1,-1v-1l-1,-1v-1l-1,-1v-1l-1,-1h1v1l1,1v1h1v1l1,1v1h1v1l1,1l-2,-2v-2l-1,-2l-2,-2v-2v2l2,2v1l1,2l1,1M968,341l1,1v-2l-1,-1v-2l1,1v2l1,1v1v-1h1v1l1,1v-1v1l1,1v1h1v2h1v1l1,1v2h1v2h1l-2,-4v-2l-1,-1v-2l-1,-1v-3l-2,-4v-2l-2,-4v-2l-3,-6v-1l-4,-8v-2l-4,-8v-2l-6,-12v-2l-1,-2l-1,-1M956,322l-1,-2v-2h1v1h1l1,1v-1v1l2,2l1,2v1l1,1v1h1v2l1,1v2h1v2h1v3h1v2h1v2l1,1v3h1v2l1,1v3l1,1v1l1,1v3h1v3l1,1v1M961,340l2,2v-1h1v1l1,2h1v2h1v1h1v1h-1l-1,-2l-1,-1v-1h-1v-1v1h-1v1v-1h-1v-1h-1M962,349h1v1l1,-1v1l1,1h1v-1v1l1,1h1l1,1v1M969,364v-3h1l1,1v-3h-1v-4l-1,-1l2,2v1h1v2l1,1v1h1l1,1v3l1,1v-1v1l1,1v1v-1h1v1l1,1v1v-3h-1h1v2l1,1v3l1,1v3h1v4h1v4l1,1v2l1,1M987,394v-4l-1,-1v-5h-1v-1h1v-1h-1v-4l-1,-1v-3v3h1h-1v-3l-1,-2M976,384l1,1v-5l1,1v-1v1h1v2l1,1v1l1,2v4h1v6h1v-1v1M983,406v-9l1,1v1h1v5l1,1v4l1,1v-1M992,438v-1l-1,-1v-10h-1v-5h-1v-2l-1,-1v-8l-1,-1l1,1v-2l-1,-1v-3h1h-1v-4h-1v-5l-1,-1v-4l1,1v1v-1h1v3h1v3l1,1v4h1v1v-1v2l1,1v4M996,444v-5l-1,-1v-7l-1,-1v-8h-1v-7h-1v-6h-1v-5l-1,-1v-4l-1,-1v-1v1l1,1v1"/>
<path class="si" d="M596,739v2"/>
<circle class="w1" cx="552" cy="634" r="6"/>
<circle class="c1" cx="552" cy="634" r="5"/>
<circle class="w1" cx="566" cy="633" r="6"/>
<circle class="c1" cx="566" cy="633" r="5"/>
<circle class="w1" cx="337" cy="586" r="6"/>
<circle class="c1" cx="337" cy="586" r="5"/>
<circle class="w1" cx="365" cy="577" r="5"/>
<circle class="c1" cx="365" cy="577" r="4"/>
<circle class="w1" cx="563" cy="571" r="5"/>
<circle class="c1" cx="563" cy="571" r="4"/>
<path class="sg" d="M 295.1154 955.2710 A 249.7500 78.6525, 0, 1 1, 703.8846 955.2710"/>
<path class="sg" d="M 74.9320 762.6393 A 432.5797 136.2301, 0, 1 1, 924.0680 762.6393"/>
<path class="sg" d="M 0.0000 499.5000 A 499.5000 157.3049, 0, 1 1, 999.0000 499.5000"/>
<path class="sg" d="M 74.9320 236.3607 A 432.5797 136.2301, 0, 0 1, 924.0680 236.3607"/>
<path class="sg" d="M 295.1154 43.7290 A 249.7500 78.6525, 0, 0 1, 703.8846 43.7290"/>
<path class="sg" d="M 244.4525 70.0224 A 418.8346 499.5000, -210.70418112, 0 0, 754.5475 928.9776"/>
<path class="sg" d="M 402.8283 9.4440 A 251.6662 499.5000, -191.15926599, 0 0, 596.1717 989.5560"/>
<path class="sg" d="M 493.8347 0.0321 A 17.0640 499.5000, -180.64985926, 0 0, 505.1653 998.9679"/>
<path class="sg" d="M 581.7802 6.8234 A 222.1104 499.5000, -170.51873617, 0 1, 417.2198 992.1766"/>
<path class="sg" d="M 723.8677 53.2273 A 401.7705 499.5000, -153.30861464, 0 1, 275.1323 945.7727"/>
<path class="sg" d="M 995.7650 442.7435 A 473.7766 499.5000, -96.52441358, 0 1, 3.2350 556.2565"/>
<text x="0" y="0" class="fs" transform="translate(106,219) rotate(114)">150W</text>
<text x="0" y="0" class="ft" transform="translate(106,219) rotate(114)">150W</text>
<text x="0" y="0" class="fs" transform="translate(263,165) rotate(105)">120W</text>
<text x="0" y="0" class="ft" transform="translate(263,165) rotate(105)">120W</text>
<text x="0" y="0" class="fs" transform="translate(483,144) rotate(90)">90W</text>
<text x="0" y="0" class="ft" transform="translate(483,144) rotate(90)">90W</text>
<text x="0" y="0" class="fs" transform="translate(708,160) rotate(76)">60W</text>
<text x="0" y="0" class="ft" transform="translate(708,160) rotate(76)">60W</text>
<text x="0" y="0" class="fs" transform="translate(877,210) rotate(66)">30W</text>
<text x="0" y="0" class="ft" transform="translate(877,210) rotate(66)">30W</text>
<text x="0" y="0" class="fs" transform="translate(330,849) rotate(-16)">60S</text>
<text x="0" y="0" class="ft" transform="translate(330,849) rotate(-16)">60S</text>
<text x="0" y="0" class="fs" transform="translate(208,631) rotate(-13)">30S</text>
<text x="0" y="0" class="ft" transform="translate(208,631) rotate(-13)">30S</text>
<text x="0" y="0" class="fs" transform="translate(165,379) rotate(-15)">0N</text>
<text x="0" y="0" class="ft" transform="translate(165,379) rotate(-15)">0N</text>
<text x="0" y="0" class="fs" transform="translate(211,158) rotate(-13)">30N</text>
<text x="0" y="0" class="ft" transform="translate(211,158) rotate(-13)">30N</text>
<path class="tb" d="M127,998h-2l-1,-1h-2l-1,-1h-2l-1,-1h-2v-1h-3v-1h-2l-1,-1h-2v-1h-2l-1,-1h-2v-1h-2v-1h-2l-1,-1h-2v-1h-2v-1h-2v-1h-2v-1h-2v-1h-2v-1h-2v-1h-2v-1h-2v-1h-1l-1,-1h-1v-1h-2v-1h-2v-1h-1v-1h-2v-1h-1l-1,-1h-1v-1h-2v-1h-1v-1h-2v-1h-1v-1h-1l-1,-1h-1v-1h-1v-1h-1l-1,-1h-1v-1h-1v-1h-1v-1h-2v-1h-1v-1h-1v-1h-1v-1h-1l-2,-2h-1v-1h-1v-1h-1v-1h-1v-1h-1v-1h-1v-1h-1v-1h-1v-1h-1v-1h-1v-1h-1v-1h-1v-1h-1v-2h-1v-1h-1v-1h-1v-1h-1v-1l-1,-1v-1h-1v-1h-1v-1l-1,-1v-1h-1v-1l-1,-1v-1h-1v-1l-1,-1v-1h-1v-2h-1v-2h-1v-1l-1,-1v-1l-1,-1v-1l-1,-1v-2h-1v-2h-1v-3h-1v-2h-1v-4h-1v-3h-1v-5h-1v-6l-1,-1v-17h1v-7h1v-4l1,-1v-3h1v-3h1v-3h1v-2l1,-1v-2h1v-2h1v-2h1v-2h1v-2h1v-2h1v-2h1v-1h1v-2h1v-1h1v-2h1v-1h1v-1l1,-1v-1h1v-1h1v-1l1,-1v-1h1v-1h1v-1h1v-1h1v-1h1v-1h1v-2h1v-1h1v-1h1v-1h1v-1h1l3,-3h1v-1h1v-1h1v-1h1v-1h1v-1h1v-1h1l1,-1h1v-1h1v-1h1v-1h1l1,-1h1v-1h1v-1h2v-1h1v-1h1v-1h2v-1h1v-1h2v-1h1v-1h2v-1h1l1,-1h1v-1h2v-1h1l1,-1h1v-1h2v-1h2v-1h2v-1h1l1,-1h1l1,-1h1l1,-1h1l1,-1h1l1,-1h2v-1h2v-1h2v-1h2l1,-1h2v-1h2v-1h2l1,-1h2v-1h3v-1h2l1,-1h2v-1h3v-1h3v-1h159v1h3v1h3v1h2l1,1h2v1h3v1h2l1,1h2v1h2v1h2l1,1h2v1h2v1h2v1h2l1,1h1l1,1h1l1,1h1l1,1h1l1,1h1v1h2v1h2v1h2v1h1l1,1h1v1h2v1h1l1,1h1v1h2v1h1v1h2v1h1v1h2v1h1v1h1v1h2v1h1v1h1l1,1h1v1h1v1h1v1h1l1,1h1v1h1v1h1v1h1v1h1v1h1v1h1l3,3h1v1h1v1h1v1h1v1h1v2h1v1h1v1h1v1h1v1h1v1h1v1l1,1v1h1v1h1v1l1,1v1h1v1h1v2h1v1h1v2h1v1h1v2h1v2h1v2h1v2h1v2h1v2h1v2l1,1v2h1v3h1v3h1v3l1,1v4h1v7h1v17l-1,1v6h-1v5h-1v3h-1v4h-1v2h-1v3h-1v2h-1v2l-1,1v1l-1,1v1l-1,1v1h-1v2h-1v2h-1v1l-1,1v1h-1v1l-1,1v1h-1v1l-1,1v1h-1v1h-1v1l-1,1v1h-1v1h-1v1h-1v1h-1v2h-1v1h-1v1h-1v1h-1v1h-1v1h-1v1h-1v1h-1v1h-1v1h-1v1h-1v1h-1v1h-1l-2,2h-1v1h-1v1h-1v1h-1v1h-2v1h-1v1h-1v1h-1l-1,1h-1v1h-1v1h-1l-1,1h-1v1h-1v1h-2v1h-1v1h-2v1h-1l-1,1h-1v1h-2v1h-1v1h-2v1h-2v1h-1l-1,1h-1v1h-2v1h-2v1h-2v1h-2v1h-2v1h-2v1h-2v1h-2v1h-2l-1,1h-2v1h-2v1h-2l-1,1h-2v1h-2l-1,1h-2v1h-3v1h-2l-1,1h-2l-1,1h-2l-1,1h-2Z"/>
<path class="tl" d="M169,986h1v1h-3l-1,-1h2v-1ZM114,989h-3l-1,-1h2l1,1ZM176,983h1l1,1v1h1l-1,1h-2l-1,1h-1l-1,-1l1,-1v-2h1v-1ZM124,980h2v1h-1ZM122,980l1,1h-1l-1,-1ZM136,977h1h-2ZM156,974v1l1,1h-5v-1l1,-1v-1l-1,-1l1,-1v1h1l1,1ZM158,964v1h-2v2h1l-2,2v1h1l1,1h1l4,4v1l1,1v1h-1v2h-1l-1,1h-1v1h-2l1,1h1v1h-2l1,1h1v1h3l1,1h3l1,1h3l1,1h1l1,1v-1h1v-1h2l2,-1l1,1h1v-1h4v-1h3l1,-1h-1v-1h-4l-1,-1l1,-1h1l2,-2h4l1,-1h1l2,-2h-1v-1h1v-1h2v-1l1,-1h1v1h1v-1h8v-1h3v-1h1l1,1h2v-1h1v1l1,-1h4v1h6v-1h3v-1h2v1h3l1,-1h3v-1h2l1,-1h2l1,-1h4v1h1v1h1l1,1h1l1,-1l1,1h2v1l-2,2h-1v1h1h-1v1h-1v1h2l2,-2h1v-1h3l1,-1h1v-1h2l1,-1h5v-1h1v1h5v1h1l1,-1l1,1l1,-1h1l2,-1v1l1,1h3l1,-1h2v1h1v1h4l1,-1v1h9l1,-1l-1,1v1h-1h3l1,1h2l-1,1v1h1v1h2v1h1v2h2l1,1v1h-1l-1,1h-2l-1,1h-3l-1,1h-2l-1,1h-2l-2,2v1h-5l-1,1h-2v1h-1v3h2l-11,4h-155l-11,-4h-1h2l1,-1l1,1h14l-1,-1h-7v-1h-2v-1h-3l-1,-1h4v-1h-2l-1,-1h-7l-1,-1l-2,-1l1,1l1,-1l2,1v-1h1v-1l-1,-1h-1h2v-1h2v-1h4l1,-1h5l1,-1l1,1v-1h1l1,1h1v-1l1,1h6v-1h-2l-1,-1h-1l-1,-1h4l1,1h1l1,-1h3l-1,-1h1l1,1l1,-1l1,1h3v-1l1,1h4v-1h2l1,-1v-1h-1v-1h-1v-1h-1v-1h-1v-2l-1,-1v-1h1v-2h1v-1h1v-1h1l1,-1l1,1ZM144,951l2,1h1v1h-1v-1v1h-4l-2,-2l-2,-1l2,1h2v-2h1v1ZM151,947h1v1h-2v1l-1,-1l1,-1ZM269,946h-1v-2h1l1,1ZM345,939v1h1l1,-1v1l-3,3v-1l-1,1h-1l1,-1v-1l1,-1v-1ZM368,943v1l1,-1v1h-1l-3,3h-1l-1,1h-1l-2,2h-2v1h-1v-1h-1v-1l4,-2h1l1,-1h2l2,-2h1l2,-2ZM376,936l-1,2l1,-1l-1,1l1,1h1l-2,2h-1l-2,2l-2,1h-1l2,-1v-2l1,-1l2,-1v-1l1,-1v-3l1,-1v1l1,1ZM382,913l-1,1v-2l-1,-1v-1h1v1l1,1ZM397,906v1l-1,1h-1v-1l1,-1v1ZM398,906h-1v-1h1l1,-1v1ZM10,905v-1ZM386,904v-1ZM386,901v2h-1v-1ZM259,895v2l1,1h-1v1v-1v2h-1v3l-3,6v2h-1l-1,1l-1,-1h-1v-5h1v-2l1,-1h-1v-3h1v-1h1l2,-2h1v-1l1,-1v-1l1,-1v1ZM361,898v1h1v1h1l-1,1v2h1l-1,2v1l2,2v4h1l-1,2l1,1v3l-1,1v2l-3,3v1l-1,1l-1,2h-1l-1,2h-1l-4,4v1h-2l-1,1h-1l-1,1v-1h-1l1,-1h-1l-1,1h-1v-1h-1v-3h1l-1,-1v-1l1,-1l-1,1h-1l3,-3l-2,1h-1l-1,2v-4l-2,-2h-2l-1,1h-4l-2,2h-4l-1,1v-1l-1,1h-2v-1h-1l1,-1v-1h1v-3l1,-1v-7l1,1v-3l1,-1v-1l1,-1l-1,1l2,-2h1l1,-1h2l1,-1h2v-1h1l1,-1v-2l1,-1v2l1,-1v-1h1v-1l2,-2h2v1h2v-2h1l1,-1v-1h2v-1h-1h1l1,1h3l1,1h-1v1h-1v1l-1,1v1l2,2v1h1l1,1h1v-1l1,-1v-1l1,-1v-3l1,-1v-2h1v-1v3l1,1Z"/>
<path class="tl" d="M383,894h-1v-1v1ZM337,892l-2,-1h2ZM381,893h-1v-1h1ZM382,892v-1l-1,-1h1ZM341,892h-1l3,-3h2l-1,1h-1l-1,1ZM335,889h1v1h-3l1,-1ZM340,889v1h-3v-1h2ZM381,890v1l-2,-2h1v1ZM378,889v-1h-1v-1l1,1ZM325,887h2v-1l2,1v1h2l1,1l-1,1l-1,-1h-4l-1,-1h-1l-2,-1h-1l1,-2h1l1,1ZM353,886v1v-2ZM377,888h-1v-2l-1,-1h1v2h1ZM373,885l-1,1h-1l-1,1l-1,-1h-1l1,-1l1,1v-1h2v-2h1v1ZM345,882h-1v-1h1ZM349,881v2l-1,-1h-2v-1h2ZM374,884l-1,-1v-1l-1,-1h-1h2v2h1ZM353,878v3l2,1v-2l2,-1h1l1,1h1l1,1l4,2v1h1v1l2,1v1h-1v1l1,1v2h1v1h1h-1l1,1l-1,1v-1h-2l-1,-1v-3h-3l-1,1v1h-2l-2,-2v1h-2l1,-2h1l-1,-2v-1l-2,-1h-1l-1,-2l-1,1l-1,-1h1l-1,-1l1,-1h-1v-1h-1l-1,-1h2v-1ZM343,875l-1,1h-4v1l1,2v-1h2l-1,1h-1l1,2v1l1,2v1h-1v-2l-1,1v-1l-1,-1l1,-1h-1v4h-1v-3h-1v-1l1,-1v-4h1v-1h4l1,-1ZM347,875v1h-1v1l1,1h-1v-4h1ZM321,885h-1l-2,-2v-1l-2,-2l-1,-2v-2l-1,-1v-1l-4,-4v-1h2l3,3l1,2h1l2,2h1l-1,2h1v1l1,1h1v3ZM335,874l1,1h-1v3l-1,1v1l-1,3v-1l-1,1l-1,-1h-1v-1l-1,1l-1,-1h-1l-2,-4v-2l1,-1h2v-2h2v-1l1,-1v-1h1l1,-1v-2h1v1l2,2v1h-1l-1,2l1,1ZM344,864v3l-1,-1v2l-2,-2h1l-1,-1v1l-1,-1l-1,1v-1l1,-1h2v-1h1v-1l1,1ZM294,868h-1v-1l-1,-2l1,-2l1,1v1l1,1v1ZM137,863h-1l1,-1h1ZM341,861v1l-1,1l-1,-1l1,-1v-1v1l1,-1ZM335,863l-1,1v-1l1,-1v-1l1,-1v1l-1,1ZM338,859h2v1l-1,1v-1h-1ZM342,858l1,2h-1v1v-1h-1v-1h1h-1v-1ZM338,857l-1,1l-1,-1h1ZM336,849h1v6h1l2,1v2l-1,-1v-1v1l-1,-1h-2v-1h1h-1l-1,-1v-5ZM133,851v1h-1v-1ZM121,852h-1v-1h2v1ZM126,849h3v1h1v1h-2l-1,1v-1h-1v-2h-1ZM324,849l-1,1h-1v-2l1,-1h1v1ZM37,846v-2h1v2ZM38,844h-1v-1h1ZM119,845h2l1,1v1h1v1h2l-1,1h-3v-1h-1v-2h-2l-1,-1h-1h1h-2l-1,1h-1l2,-2h3ZM122,843h-1v-1l1,-1v1ZM334,843v1l-2,-2v-2l1,-1l1,1ZM122,839l-1,1v-1ZM123,839v1v-1h-1ZM340,825h1v1h-1v1h-1v-2ZM240,828l-2,2v-1h-1h2ZM229,828v1h-1ZM220,825v2h-1l-1,-1h-1v-1h2ZM214,821v3h-1v-3ZM344,820v1l1,1v1l-1,1h-1l-1,2l-1,-1v-1l-2,1l-1,1h-1l2,1v3l-1,-1v-1h-1l-1,-1l1,-1v-3h3v-3l1,1v-2h1l-2,-4v-1l3,3v1ZM214,820v1l-1,-1v-1l1,-1ZM340,810l1,-1l1,2h-1v2l-2,-1l1,2h-1l-1,-2l-1,-1h1l-1,-2l-1,-1l3,1ZM144,812l1,1h1h-2ZM147,809h-1l-1,-1h1ZM92,806h-1l-1,-1v-2h-1v-1h1l1,1v1l1,1ZM153,807l-1,1h1v1h2l-1,1h1v1l-1,2l-1,-1l1,-1l-2,1v-1h-3l1,-1h-1l4,-4h1Z"/>
<path class="tl" d="M90,797h1l-2,2v1v-3ZM332,800l3,3l-2,-1l1,2l2,2v1l-2,-2l-1,-2l-6,-6v-1h-1h1l3,3ZM198,806l-1,1h-2l1,-2v-1l2,-2h1v3ZM216,801l-1,2l-1,-1v-1h1ZM79,791h-1v-1h2ZM202,797l-1,2h2v1l-1,1h1l2,4h1v1l-1,1h1l-1,1h-3l-1,1h-2l2,-2h-1v-1h1l-1,-1v-1h2l-1,-1h-1v-2l-1,-1l1,-2v-1l1,1ZM75,786h-1v-1h1ZM141,790l-1,1v-1ZM139,790h-2l1,-1h1ZM78,780v1h1h-2v-1ZM139,786h1v1h1l-1,1h1l-1,1l-1,-1h-1l-2,1l1,-1h-1h1l1,-1l1,-2ZM193,787v1l1,1l-1,1h-3l-1,1l-1,-1h-2l1,-1h-1h1v-1h-2l1,-1h1l1,1l2,-1h2ZM147,784h-1l1,-1h2l-1,1ZM81,776v1l1,-1h2l-1,2h-3l-1,1h-1l-1,-1h1v-1h-1h1h-2l-1,1l8,-5v1l-1,2ZM135,780l-1,1v-1h-1l1,-1h1ZM322,771h-1ZM88,771h-1h2ZM139,780l-1,2l2,-1v1h-1v1l1,-1l2,-1l1,-1h2v2h-1v1l-1,1l-2,1h-1v-1l-1,1l-2,1v1h-3l-2,2h-1l-1,1l-2,1l-1,1l-1,2h1l-1,1v1h1l3,3l2,1h1l-2,2v2l1,1h1l2,-4h-1l4,-2v-1l1,-1v-1l-1,-1l2,-1l2,-4l1,1h1l1,-1v1l1,1h1v2l-1,1l1,1h2l1,-2h1v3l1,1l-1,1l1,1v1h1l1,1v1l1,1l-2,2h-2l-2,2h-1l-2,-1h-2l-2,1l-1,1l-2,1l-1,1l2,-1l3,-1h2l-1,1l-1,2v1l1,1l2,-1l1,-1v1h1l-4,2h-1l-2,1v-1l2,-1h-3v1h-1l-1,1h-1l-2,2l1,1v-1v1h-3l-1,1l2,-1v1h-2l-2,2v1l-1,1l-1,-1l1,-1l-1,1v4l-1,1h-1l-1,1h-1l-3,3h-1v8l-1,1h-1v-3l-1,-1l1,-1l-1,-2l-1,1l-1,-1h-4v1h-1l-1,-1l-1,1l-1,-1l-2,2h-2v1h-1v3l-1,1v1l-1,2v4l1,1v1h1v1l1,-1h3v-1l1,-1v-1l1,-1h3v1l-1,1v2l-1,1v-1v2l-1,1v1h5v1h1v1l-1,1v3l-1,1h1v2h1v1h2l1,-1h1v1h1l1,1l1,-1v-2l1,-1h2l2,-2v2h-1h1v1l-1,1v1h1v-3h1v-1h1v1h1v1h3l1,1l1,-1h1l1,1h1v1l1,1h1v1h1v1l1,1l2,1v-1h1l1,1h1l1,1v1h1v1l1,2v1l-1,1l1,1h2v1v-1l4,2v1h1l3,1h1l2,1l2,2h2v5l-1,1l-1,2l-2,2v9l-1,2v2h-1v1h-2l-1,1h-1l-3,3v5l-1,2l-2,2v2l-2,2v-1l-1,1l-1,-1h-1v-1v1l1,1v1l1,1v2l-2,1h-3l1,1v2l-1,1l-1,-1h-1l1,2h2l-2,2l1,1v1h-1l-1,1v1l2,1h1v1l-1,1v2h-1v1l2,2h-1l-1,1v1h-1l-2,-1l-3,-3l-1,-3v-1l1,-1h-2l1,-2l-1,-2h1v-2l-1,-1v2l-1,-2v-4l-1,-1l-1,-2h1v-6l-1,-2v-8l-1,-2v-6l-1,-2l-1,-1l-2,-1l-3,-2l-1,-1v-1l-1,-2l-1,-3l-2,-3l-2,-2v-1l-1,-2l2,-2v-1h-1v-3l1,-1v-1h1v-2h1l1,-1v-5l-1,-1v-2h-1v1h-1v1h-1l-1,-1h-2v-2h-1v-1v1h-1v-3l-2,-2h1h-2v-1h-2l-1,-1l-1,-2h-1l-1,-1v1h-2l-1,-1h-2l-2,-2h-1l-1,-1v-1h-1v-3h1l-1,-1v-3l-1,-1v-1l-1,-1v-3h-1v-5l-1,-1l-1,1v4h1l-1,1h1v5h1v2h-1v-1l-1,-1v-3l-1,-1v1v-1h-1v-1h1v-9h-1v-1h-1v-9l2,-2v-1l1,-2l2,-2l1,-2l1,-1v-1h1v1l2,-2h-1v-2l-1,-1v-1l1,-1l-1,-1l1,-1v-1l1,-1l-1,-1l1,-1v-1l1,-1l-1,-1h-1v-2h-1v-1h-1l-1,-1h-1l-1,1h-4l1,-1l2,-1h-1l-1,1l-2,1h-1l-1,1l-2,1h-2l-2,1h-1l-1,1h-3l-1,1h-2l1,-1h2l2,-1h2l2,-1h1l2,-1l1,-1h-3l1,-1l-1,1h-1l2,-2h-1v-1l2,-2l2,-1h3l1,-1h1l1,-1h-3v-2h4l1,1l1,-1v-3h4l1,-1h2l2,-1l1,1l1,-1h1l-1,1h1l1,1h2l1,1h2v1l1,1l1,-1h6l1,-1v2l2,-1l-1,1h2l1,1h2v1l-2,1h4v1l2,-2h2v1h1l1,1h2v-1h1l1,1l-1,1l1,-1h1l1,-1v-2l1,-1l2,-1l1,1l-2,2Z"/>
<path class="tl" d="M128,774l-1,1h4l-1,1h1l2,-2v1l-1,2v1l1,1h-2v1h-8v-1h-1v-1h4l-1,-1h-3l2,-1h-1l1,-1h1ZM135,774l-2,1v-1h1ZM152,776v1l-1,-1l-1,1v-2h2ZM146,776v1l1,-1l2,-1v2h3l1,1l-1,1l2,-1v1l1,1v2h-1l2,2v1h1v1l-2,1h-1l-1,-2l-1,1v1l1,1v2l-1,1l-2,-2v1l1,1h-2l-2,-2v-1l-1,-1v1h-3v-1l1,-1h3l1,-1l2,-1v-1l-1,-1h-1l1,-1l-1,-1h-5l-1,-1h-1l1,-1h-1l1,-1l2,-1l1,-1h2ZM138,774h2l-1,1h-1l1,1l-2,1h-2v-2l1,1v-1ZM298,772h-2v-1ZM141,776l-2,1v-1l2,-2h2l1,1l-2,1ZM122,776h-2l-1,-1h1l2,-1l2,-2h2v1h2v1h-1l-3,1h-2ZM299,769v1h-3v-1h1ZM143,773v1l-1,-1h-1l1,-1h1l1,1ZM295,769l1,1h-2l-1,1l-2,-1l-1,-1h2ZM143,771h-1v1l-1,1h-2l1,-1h-1l1,-1h2ZM136,771h1v1h-4l-2,1h-1l1,-1h-1l-1,-1l2,-1h1l2,1l1,1v-2h2ZM246,780h-3l-2,-1v-1l1,-2h-1l1,-1l-1,-1h1l4,-2h2l-1,1l-2,1l-1,1v2l-1,1l1,1ZM145,770l1,1h1l-1,1h1l1,1h4v1h-7l-1,-1l1,-1v-1h-2l1,-1ZM134,769l-2,1h-4l2,-1h3ZM271,770l1,1v-1h2l2,1h1v1l-1,1h1l2,1v-1l1,1l1,-1h2l1,1h3l-2,-1h5l1,1v1h2l2,1l-1,-1h1l1,-1l2,1v-1h1l-2,-1h8l3,1l1,-1h2l2,2h2v-1h3l3,1v-1h-2v-1h7l8,5h-1l1,1l2,1h2v1h-1v1h-1l1,1v2l-2,-1v2l-1,-1v1h-1l2,2v1h1l3,2h-1l1,1h1v1l1,2h-1l1,2l1,1l-4,-2l-4,-3l-1,-2l-1,-1v-3l-1,-2v-1l-2,-2l-1,1l2,2l-3,-1l-1,1l1,2l1,1h-1l-1,1l-1,-1h-1v1h-4v7h1l2,1h1l-1,-1h1l3,1l1,2l1,1l1,2l2,2v9h-1l-1,-1v2h-1v1l1,1v1h-1v1l1,1h1l2,2v1l1,1v1l-1,1h-1l-1,-2l-1,-1h1l-2,-1v-1v1v-1h-1v-1l-1,-1h-2v1h-1l-1,-1l1,-1l-1,-1l-1,1v2h-1v1l2,2h1v-1h2l1,1l-2,1v2l2,2l1,2l2,1v2h1v6l-2,4l-1,1h-1v1l-1,-1v1l-2,1h-1v2l-1,-1v-1h-2l-1,2v2l1,1l1,2l2,2l1,3v4l-2,1v1l-2,1v-2l-1,-1h-1v-1l-2,-2h-1v-1h-1v6h1v3l1,1h1v1h1v1l1,1v3h1v2h-1l-2,-2v-1l-1,-1v-1l-1,-1v-2l-1,-1v-1h-1v-6l-1,-1v-1l-1,-2v-2l-1,-1l-2,2h-1v-3l-1,-2v-1h-1l-2,-2v-1l-1,-1h-1v2l-1,-1v1h-2v2l-2,1l-1,2v1l-2,2h-1v8l-1,1l1,1h-1l-1,1l-1,-1l-1,-2v-1l-1,-1v-1l-1,-2v-1l-3,-6v-3l-2,1h-1l-1,-2v-1l-2,-1l-1,-1v-1l-1,-1l-2,1h-5l-1,-1h-2v-2h-1l-1,1h-2l-3,-3l-1,-2l-1,1v-1l-1,1v2l1,1h1l1,1v2l1,1l-1,-1l1,-1v2h1v1l1,-1h2v-1l1,-1v-1v2l2,2h1l2,2l-1,1v1h-1v3h-1v1h-1v1h-2v1h-1l-2,2h-1l-2,2v-1l-1,1h-2v1h-2v-2l-1,-1v-3h-1v-1l-1,-1v-1l-1,-1h-1v-1l-1,-1v-3h-2v-2l-1,-1v-1l-2,-2v-1v1l-1,1l-1,-1l-1,-2l1,2l1,1l1,2v1l2,2h-1l2,2v1l1,1h-1l1,2v1l1,1l1,2v1l1,1l2,1v1h1v1h1v1l-1,1h1l1,1h3l1,-1h3v-1h1v2l-1,1v3l-1,1l-3,6l-1,1l-2,1l-1,1l-1,2v1h-1v1h-1v2l-1,1l-1,2l1,1v4l1,1v7l-1,1h-1l-3,3h-1v1l-1,1v2h1l-1,1h1v1l-1,1h1l-1,1h-1l-2,2v3l-3,3v1l-2,1v1l-1,1h-2v1l-1,-1v1l-1,-1l-1,1h-2l-1,1l-1,-1h-1v-5l-1,-1v-2l-1,-1v-1l-1,-1v-5l-1,-1v-1l-1,-2v-1l-1,-1v-3l1,-1v-3h1v-1l1,-1v-1h-1v-5l-1,-1v-2l-3,-3l-1,-2l1,-1v-5l-1,-1v-1l-1,1h-2l-1,-1v-1l-1,-1h-2l-1,1h-2l-1,1h-6l-1,1l-4,-4h-1l-1,-1v-1l-1,-1v-1h-1v-1l-1,-1v-1h-1v-3h-1l1,-1v-1h1l-1,-1l1,-1v-4l-1,-1v-1h1v-2l1,-1v-1h1v-2h1l1,-2h1l2,-2v-3l3,-3l1,-2v-1h1l1,1h2l1,-1h2l1,-1h4l1,-1h1v1h1l1,-1h1v1l1,-1v1h-1v1h1v2h-1v1h1v1h3l2,2h1l2,2l1,-1v-2l1,-1h2l1,1h1l1,1h2l1,1h1v-1h2l1,1v-1h1l1,1v-2l1,-1v-5h-2l-1,1l-1,-1h-2v1l-1,-1h-2v-1l-1,-1v-2l1,-1h1v-1h2l1,-1h1l2,-1l2,1l1,1h2l1,-1v-2h-1l-2,-2h-1l-1,-1l1,-1l-1,-1h2l-1,-1v1h-2l-1,1v1h1l-1,1h-1v-1h-1l1,-1h-2v-1h-1v1l-1,1v1h-1v4l1,1h-2v1h-1v-1h-2l1,1h-2v1l1,1h-1h1l1,1v1l-1,-1v1h-1l1,1h-2v-2l-1,-1v-1h-1v-3h-1v-1h-1l-1,-1h-1l-1,-1v-1l-1,-1v1v-1h-2v1l2,2v1l1,1h1l1,1h1l1,1v1l-1,-1h-1v1h1v1h-1v1h-1v-1h1l-1,-1v-1h-1l-1,-1h-1l-2,-2l-1,-2h-2v1h-4l-1,1v2h-2v1l-1,2h1l-1,1v1h-1l-1,1h-2l-1,1l-2,-2v1h-2l1,-1v-1h-1v-2l1,-1v-3l-1,-1l2,-1l1,1h5v-4l-1,-1v-1h-2v-1h3v-2l1,1l2,-1v-1h1l1,-1l1,-2l1,-1h2v-5h2l-1,1h1v1l-1,1v1h1v1l1,-1h2v1h1l2,-2l1,1h1v-1h1v-3l1,-1l1,1v-1l-1,-1v-1h4l1,-1h-4l-1,1l-2,-2v-4l2,-1v-1l-1,-1l-2,2l-1,2l-1,1v3h1v2h-1v2l-1,2h-1v1h-1v-2l-1,-1l-1,-2l-1,-1l-1,2h-1l-2,-1v-5l2,-1l3,-3l2,-3l3,-3h2l1,-2h3l2,1l-1,1h2l1,1h3l3,1l1,1v1l-1,1h-1l-3,-1h-1l2,1v2l1,1h1v-1h-1l1,-1l2,1v-1l1,-2h1l1,1v-1l-1,-1v-1l-1,-1l2,1h1l-1,1l1,1h1v-1l1,-1l2,-1h1v1l1,-1h1l1,-1l1,1l1,-1h-2l1,-1h2l1,1l4,1v-1h-2v-1h-1l-1,-1v-3h2l1,1v1h1l1,1l1,2h1v3l1,1v-1h1l-1,-1l1,-1h-1l-2,-2v-1l-2,-1l1,-1l-1,-1h1l1,2l-1,-1l1,-1h2l1,1l-1,-1l-1,-2h4l-2,-1v-1h1l1,-1h3l1,-1h1v-2l2,1h-1ZM253,820l1,1v2h-1v1l1,1h1l1,1h3l-1,-1v-2h-1v-2h1v-1l-1,-1h-1l1,1l-1,-1v-1h-2v-2h-1h1v-2l1,1v-3h-2l-1,1h-1v1h-1l-1,2l2,1v1l1,1Z"/>
<path class="tl" d="M146,770h-1v-1h1l1,1ZM137,769h-2l1,-1h1l1,1ZM220,771l-1,1h-1v-1h-1l2,-1v1ZM139,768h-2l1,-1v1ZM146,769h-1v-1h1l1,1ZM144,769h-1l-1,-1h-1h1v-1h1l1,1ZM268,768l-3,1v-2ZM215,769l3,1h-2v3h-1l-2,-1h1l-1,-1l-2,-1v-1l1,-1l1,1h1v-1h1ZM220,768h1l-1,1h-4l-1,-1h3ZM234,767l-1,1h-1v-1h-1h4ZM264,768h-4l-2,-1l-1,-1h1l1,-1l4,2ZM153,767v1h-1l-2,1h-2v-1h1h-1v-1l1,-1h2v-1h1v1h1ZM167,764h3v1h-3l-1,1h-1l-1,1l-2,1h-3v1h-1v1h-2l-2,1h1l-2,1h-4l-1,-1h2v-1h2v-1h-1h1l1,-1h1l-1,-1h4l-1,-1h-3v-1l1,-1h6v-1h3v1l2,-1l1,1ZM190,764l3,1h-6v1h5l-1,1l2,-1h4v1l-2,1h-1l-2,2v2l1,1h-2l1,1l-1,1v1h-1l1,1h-3l1,1v1l-1,-1l-1,1h1l1,1v1h-2l-1,-1v1l-1,1h3l-4,2h-3l-1,1l-4,2h-1l-2,1h-1v1l-2,2v1l-1,1l-1,2h-1l-1,-1h-1l-1,-1v-2l-1,-1v-1l1,-1l-1,-2l1,-1l1,-2h1l1,-1v-1l-1,1h-1v-1l1,-1h1l-1,-1h-1l1,-1v-4l-1,-1h-5v-1l-1,-1h1l-1,-1l1,-1h2l3,-1h1l-2,-1h1l3,-1h1v-1h9l1,1l-1,-1h1l2,-1h3l2,-1Z"/>
<path class="th" d="M129,901v1h1v2h1h-1h1h-1v1h1v2h1v1h1v2h-1v6h-1v2h1v1h-1h1h-1v1h1h-1v1h1v2h1v7h1v1h-1h1v1h-1h1v4h1v2h1v1h-1h1v2h1v6h2v2h2v1v-1v2h-1v-1v1v-1v1h1h-1h1h-1v-1h1h-1h1h-1v1h-1v-1h1v1v-1v1v-1h-1h1h-1h1h-1h1v-1h-1v1v-1v1v-1v1v-1v1h-1h1h-1v-1h1h-1h1v-1h-1h1v1v-1h-1v1h1h-1v-1v1v-1v1v-1h-1h1h-1h1h-1h1h-1v-1v1v-1h-1v-1v1v-1h1h-1h1h-1h1h-1v-1v1v-1v1h1h-1v-1h-1v-1h1h-1h1h-1v-1v1v-1v1v-1h1v1v-1v1v-1v1v-1h-1v-1h-1v-1l-1,1h1h-1v-1h1h-1h1v-1v1v-1v1h1h-1h1v-1h-1h1h-1v-1h1v-1v1v-1h-1v-1v1v-3h-1h1v-1v1h-1v-1v1h-1h1v-1h-1v1v-4h-1v-2h-1v-1h1v1v-8h-1v-10h-1v-7l-1,-1h1h-1v-1h1ZM144,952v1l-1,-1v1v-1h-1v1v-1h-1h1h-1h2v-1h-1h1v-1h-1v1v-1h-1h1h-1h1v-1v1v-1h1v2h1ZM146,954h-1ZM146,954v-1v1v-1ZM143,953h1ZM145,953v1v-1h-1h1h-1h1h-1h1h-1ZM145,953h-1v-1h1v1h1ZM143,953h-1h1h-1h1h-1ZM143,953v-1v1h1ZM143,952v1h-1v-1ZM141,952h-1ZM140,952h1h-1h1ZM140,952h-1ZM141,952v-1v1h1l-1,-1h1v1h-1h1h-1h1ZM141,952v-1h-1h1v1v-1ZM142,951v1ZM140,952v-1v1v-1v1v-1v1v-1h-1h1h-1h1h-1h1h-1h1h-1h1v1v-1v1v-1ZM138,951v-1ZM139,950h-1ZM139,951v-1h-1h1v1v-1v1v-1ZM138,950v-1ZM138,949h-1ZM137,949v-1ZM137,949v-1v1h1ZM138,948v1ZM137,949v-1ZM138,948v1l-1,-1ZM137,948h1ZM137,948h-1h1h-1ZM137,948v-1ZM137,947v1v-1v1h-1v-1v1v-1h1h-1ZM136,947h-1ZM137,947h-1ZM136,947h-1v-1l1,1v-1v1v-1h-1h1ZM135,945v1ZM135,945h-1h1h-1ZM135,946v-1v1v-1h1v1h-1h1h-1h1h-1v-1h1h-1v1v-1v1h1h-1h1ZM135,944v1ZM134,944h1h-1v1ZM136,944h-1ZM134,944h1ZM135,944h-1v-1v1v-1v1ZM134,943h1v1v-1ZM134,942h1ZM135,941h-1ZM135,941h-1v-1v1ZM133,940h1v1h-1v-1v1v-1v1ZM134,940h1h-1v1ZM134,940v1ZM134,940h-1ZM134,940h-1ZM134,940h-1ZM134,940h-1v-1ZM134,940v-1v1v-1ZM133,939h1ZM134,939h-1ZM134,939h-1ZM133,939v-1v1h1ZM133,939v-1ZM134,938v1ZM134,939v-1v1v-1v1l1,-1v1ZM133,938h1v1ZM134,938h-1ZM133,938h1ZM132,937h1ZM133,935v1ZM133,937h-1h1h-1h1h-1l1,-1h-1h1h-1v-1h1v1ZM142,951v1ZM137,949h1ZM136,946v-1ZM133,942h1ZM130,928h1Z"/>
<path class="tg" d="M66,970h1l1,-1h4v-1h5v-1h5v-1h6v-1h6l1,-1h7v-1h8v-1h9l1,-1h11v-1h14v-1h20v-1h79v1h20v1h14v1h11l1,1h9v1h8v1h7l1,1h6v1h6v1h5v1h5v1h4l1,1h1M21,927h6v-1h7v-1h8v-1h10v-1h10v-1h12v-1h14v-1h18v-1h23v-1h38v-1h75v1h38v1h23v1h18v1h14v1h12v1h10v1h10v1h8v1h7v1h6M5,877h399M21,826h4v1h7v1h8v1h9v1h10v1h11v1h14v1h16v1h21v1h32v1h103v-1h32v-1h21v-1h16v-1h14v-1h11v-1h10v-1h9v-1h8v-1h7v-1h4M66,783v1h5v1h4v1h5l1,1h5v1h6l1,1h6l1,1h7v1h10v1h10v1h13l1,1h17v1h36v1h21v-1h36v-1h17l1,-1h13v-1h10v-1h10v-1h7l1,-1h6l1,-1h6v-1h5l1,-1h5v-1h4v-1h5v-1M140,755h-1v1h-3v1h-2v1h-2v1h-2v1h-2v1h-2l-1,1h-1l-1,1h-1l-1,1h-1v1h-2v1h-2v1h-2v1h-1l-1,1h-1v1h-2v1h-1l-1,1h-1v1h-2v1h-1v1h-2v1h-1v1h-2v1h-1v1h-1l-1,1h-1v1h-1v1h-2v1h-1v1h-1v1h-1v1h-2v1h-1v1h-1v1h-1v1h-1v1h-1v1h-1l-1,1h-1v1h-1v1h-1v1h-1v1h-1v1h-1v1h-1v1h-1v1h-1v1l-1,1v1h-1v1h-1v1h-1v1h-1v1h-1v1l-1,1v1h-1v1h-1v1h-1v2h-1v1h-1v2h-1v1h-1v2h-1v1h-1v2h-1v2h-1v1h-1v2h-1v2h-1v2h-1v2h-1v2l-1,1v2h-1v2l-1,1v2h-1v3h-1v4h-1v4h-1v5h-1v9h-1v13l1,1v8h1v5h1v4h1v4h1v3h1v3h1v2h1v3h1v2h1v2h1v2h1v2h1v2h1v2h1v1l1,1v1h1v2h1v1h1v2h1v1h1v1h1v2h1v1h1v1l1,1v1h1v1h1v1h1v1l2,2v1h1v1h1v1h1v1h1v1h1v1h1v1h1v1h1v1h1v1h1v1h1v1h1v1h1v1h2v1h1v1h1v1h1v1h1v1h1l1,1h1v1h1v1h1v1h2v1h1v1h1l1,1h1v1h1v1h2v1h1v1h2v1h1l1,1h1v1h2v1h1v1h2v1h2v1h1l1,1h1v1h2v1h2v1h2v1h2v1h2v1h2v1h2v1h2l1,1h2v1h2v1h2M153,755h-1v1h-2v1h-2v1h-1v1h-2v1h-2v1h-1v1h-2v1h-1v1h-2v1h-1v1h-2v1h-1v1h-1v1h-2v1h-1v1h-1l-1,1h-1v1h-1v1h-1v1h-1v1h-1l-1,1h-1v1h-1v1h-1v1h-1v1h-1v1h-1v1h-1v1h-1v1h-1v1h-1v1h-1v1h-1v1h-1v1h-1v1h-1v1h-1v1h-1v1l-2,2v1h-1v1h-1v1h-1v1l-1,1v1h-1v1h-1v2h-1v1h-1v1l-1,1v1h-1v2h-1v1h-1v2h-1v1h-1v2h-1v2h-1v2h-1v2h-1v2h-1v2h-1v2h-1v3h-1v2h-1v3h-1v3h-1v3h-1v3h-1v4l-1,1v4h-1v6l-1,1v30h1v6h1v5h1v4h1v3h1v3l1,1v2l1,1v2h1v3h1v2h1v2h1v2h1v2l1,1v1h1v2h1v2h1v2h1v2h1v1h1v2h1v1h1v2h1v1h1v2h1v1h1v1h1v2h1v1h1v1h1v1l1,1v1h1v1h1v1h1v1h1v1h1v1h1v1l3,3v1h1l3,3h1v1h1v1h1v1h1v1h1v1h1v1h1v1h1l1,1h1v1h1v1h1v1h1l1,1h1v1h1v1h1l1,1h1v1h1v1h2v1h1v1h2v1h1v1h2v1h2v1h1v1h2v1h1l1,1h1v1h2M166,755h-1v1h-1v1h-1l-1,1h-1v1h-1v1h-1v1h-1v1h-1v1h-1l-2,2h-1v1h-1v1h-1v1h-1v1h-1v1h-1v1h-1v1h-1v1h-1v1l-2,2v1h-1v1h-1v1h-1v1h-1v1l-1,1v1h-1v1h-1v1h-1v2h-1v1h-1v1l-1,1v1h-1v1h-1v2h-1v1h-1v2h-1v2h-1v1h-1v2h-1v2h-1v2h-1v1l-1,1v1l-1,1v1l-1,1v2h-1v2h-1v2h-1v3h-1v2h-1v3h-1v3h-1v3h-1v3h-1v4h-1v4h-1v5h-1v6h-1v8h-1v30h1v7l1,1v5h1v5h1v4h1v4h1v3h1v3h1v3h1v3h1v3h1v2h1v2h1v2l1,1v2h1v2h1v2h1v2h1v1h1v2h1v2h1v2h1v1h1v2h1v1h1v2h1v1l1,1v1h1v1h1v2h1v1h1v1h1v1l1,1v1h1v1h1v1h1v1l1,1v1h1v1h1v1h1v1h1v1h1v1h1v1h1v1h1v1h1v1h1v1h1v1h1v1h1v1h1v1h1l2,2h1v1h1v1h1v1h1v1h2v1h1"/>
<path class="tg" d="M179,755h-1v1h-1v2h-1v1h-1v1h-1v1h-1v2h-1v1h-1v1l-1,1v1h-1v1l-1,1v1h-1v1l-1,1v1h-1v2h-1v1l-1,1v1h-1v2h-1v2h-1v2h-1v2h-1v2h-1v2h-1v2h-1v2h-1v2l-1,1v2h-1v2l-1,1v2h-1v3h-1v3h-1v3h-1v3h-1v4h-1v4h-1v4h-1v4h-1v5l-1,1v5h-1v8h-1v11h-1v29l1,1v10l1,1v7h1v6h1v5h1v4l1,1v4h1v3l1,1v3h1v3h1v3h1v3h1v3h1v3h1v2h1v3h1v2h1v2h1v2l1,1v2h1v2h1v1l1,1v1l1,1v1h1v2h1v2h1v1l1,1v1h1v2h1v1h1v2h1v1h1v2h1v1h1v1l1,1v1h1v1h1v1h1v2h1v1h1v1h1M192,755h-1v3h-1v2h-1v3h-1v3h-1v3h-1v3h-1v3h-1v3l-1,1v3h-1v4h-1v4h-1v4l-1,1v4h-1v5h-1v6h-1v6l-1,1v7h-1v8h-1v11l-1,1v18h-1v29l1,1v18h1v11h1v8l1,1v7h1v6h1v6h1v5h1v5h1v4h1v4h1v4h1v4h1v3h1v3l1,1v3h1v2l1,1v2h1v3h1v3h1v2h1M205,755v243M217,755h1v3h1v2h1v3h1v3h1v3h1v3h1v3h1v3l1,1v3h1v4h1v4h1v4l1,1v4h1v5h1v6h1v6l1,1v7h1v8h1v11l1,1v18h1v29l-1,1v18h-1v11h-1v8l-1,1v7h-1v6h-1v6h-1v5h-1v5h-1v4h-1v4h-1v4h-1v4h-1v3h-1v3l-1,1v3h-1v2l-1,1v2h-1v3h-1v3h-1v2h-1M230,755h1v1h1v2h1v1h1v1h1v1h1v2h1v1h1v1l1,1v1h1v1l1,1v1h1v1l1,1v1h1v2h1v1l1,1v1h1v2h1v2h1v2h1v2h1v2h1v2h1v2h1v2h1v2l1,1v2h1v2l1,1v2h1v3h1v3h1v3h1v3h1v4h1v4h1v4h1v4h1v5l1,1v5h1v8h1v11h1v29l-1,1v10l-1,1v7h-1v6h-1v5h-1v4l-1,1v4h-1v3l-1,1v3h-1v3h-1v3h-1v3h-1v3h-1v3h-1v2h-1v3h-1v2h-1v2h-1v2l-1,1v2h-1v2h-1v1l-1,1v1l-1,1v1h-1v2h-1v2h-1v1l-1,1v1h-1v2h-1v1h-1v2h-1v1h-1v2h-1v1h-1v1l-1,1v1h-1v1h-1v1h-1v2h-1v1h-1v1h-1M243,755h1v1h1v1h1l1,1h1v1h1v1h1v1h1v1h1v1h1l2,2h1v1h1v1h1v1h1v1h1v1h1v1h1v1h1v1h1v1l2,2v1h1v1h1v1h1v1h1v1l1,1v1h1v1h1v1h1v2h1v1h1v1l1,1v1h1v1h1v2h1v1h1v2h1v2h1v1h1v2h1v2h1v2h1v1l1,1v1l1,1v1l1,1v2h1v2h1v2h1v3h1v2h1v3h1v3h1v3h1v3h1v4h1v4h1v5h1v6h1v8h1v30h-1v7l-1,1v5h-1v5h-1v4h-1v4h-1v3h-1v3h-1v3h-1v3h-1v3h-1v2h-1v2h-1v2l-1,1v2h-1v2h-1v2h-1v2h-1v1h-1v2h-1v2h-1v2h-1v1h-1v2h-1v1h-1v2h-1v1l-1,1v1h-1v1h-1v2h-1v1h-1v1h-1v1l-1,1v1h-1v1h-1v1h-1v1l-1,1v1h-1v1h-1v1h-1v1h-1v1h-1v1h-1v1h-1v1h-1v1h-1v1h-1v1h-1v1h-1v1h-1v1h-1v1h-1l-2,2h-1v1h-1v1h-1v1h-1v1h-2v1h-1M256,755h1v1h2v1h2v1h1v1h2v1h2v1h1v1h2v1h1v1h2v1h1v1h2v1h1v1h1v1h2v1h1v1h1l1,1h1v1h1v1h1v1h1v1h1l1,1h1v1h1v1h1v1h1v1h1v1h1v1h1v1h1v1h1v1h1v1h1v1h1v1h1v1h1v1h1v1h1v1h1v1l2,2v1h1v1h1v1h1v1l1,1v1h1v1h1v2h1v1h1v1l1,1v1h1v2h1v1h1v2h1v1h1v2h1v2h1v2h1v2h1v2h1v2h1v2h1v3h1v2h1v3h1v3h1v3h1v3h1v4l1,1v4h1v6l1,1v14l1,1h-1v15h-1v6h-1v5h-1v4h-1v3h-1v3l-1,1v2l-1,1v2h-1v3h-1v2h-1v2h-1v2h-1v2l-1,1v1h-1v2h-1v2h-1v2h-1v2h-1v1h-1v2h-1v1h-1v2h-1v1h-1v2h-1v1h-1v1h-1v2h-1v1h-1v1h-1v1l-1,1v1h-1v1h-1v1h-1v1h-1v1h-1v1h-1v1l-3,3v1h-1l-3,3h-1v1h-1v1h-1v1h-1v1h-1v1h-1v1h-1v1h-1l-1,1h-1v1h-1v1h-1v1h-1l-1,1h-1v1h-1v1h-1l-1,1h-1v1h-1v1h-2v1h-1v1h-2v1h-1v1h-2v1h-2v1h-1v1h-2v1h-1l-1,1h-1v1h-2"/>
<path class="tg" d="M269,755h1v1h3v1h2v1h2v1h2v1h2v1h2l1,1h1l1,1h1l1,1h1v1h2v1h2v1h2v1h1l1,1h1v1h2v1h1l1,1h1v1h2v1h1v1h2v1h1v1h2v1h1v1h1l1,1h1v1h1v1h2v1h1v1h1v1h1v1h2v1h1v1h1v1h1v1h1v1h1v1h1l1,1h1v1h1v1h1v1h1v1h1v1h1v1h1v1h1v1h1v1l1,1v1h1v1h1v1h1v1h1v1h1v1l1,1v1h1v1h1v1h1v2h1v1h1v2h1v1h1v2h1v1h1v2h1v2h1v1h1v2h1v2h1v2h1v2h1v2l1,1v2h1v2l1,1v2h1v3h1v4h1v4h1v5h1v9h1v13l-1,1v8h-1v5h-1v4h-1v4h-1v3h-1v3h-1v2h-1v3h-1v2h-1v2h-1v2h-1v2h-1v2h-1v2h-1v1l-1,1v1h-1v2h-1v1h-1v2h-1v1h-1v1h-1v2h-1v1h-1v1l-1,1v1h-1v1h-1v1h-1v1l-2,2v1h-1v1h-1v1h-1v1h-1v1h-1v1h-1v1h-1v1h-1v1h-1v1h-1v1h-1v1h-1v1h-1v1h-2v1h-1v1h-1v1h-1v1h-1v1h-1l-1,1h-1v1h-1v1h-1v1h-2v1h-1v1h-1l-1,1h-1v1h-1v1h-2v1h-1v1h-2v1h-1l-1,1h-1v1h-2v1h-1v1h-2v1h-2v1h-1l-1,1h-1v1h-2v1h-2v1h-2v1h-2v1h-2v1h-2v1h-2v1h-2l-1,1h-2v1h-2v1h-2"/>
<rect x="79" y="890" width="77" height="74" fill-opacity="0" stroke="#ffffff" stroke-opacity="0.5" stroke-width="5.0"/>
<rect x="81" y="892" width="77" height="74" fill-opacity="0" stroke="#113311" stroke-opacity="0.8" stroke-width="5.0"/>
<rect x="80" y="891" width="77" height="74" fill-opacity="0" stroke="#45a249" stroke-opacity="0.9" stroke-width="5.0"/>
</svg>
