<?xml version="1.0" encoding="UTF-8" standalone="no"?>
<svg xmlns:svg="http://www.w3.org/2000/svg" xmlns="http://www.w3.org/2000/svg" xmlns:xlink="http://www.w3.org/1999/xlink" height="1000" width="1000">
<!-- made with pythonshp (GPL): github.com/sanjayrao77/pythonshp , underlying data may come from naturalearthdata.com -->
<!-- 
COPYRIGHT: THIS SVG FILE IS RELEASED INTO THE PUBLIC DOMAIN
 -->
<!-- 
vars : {
	'cmdline' : 'pythonshp.py publicdomain wiki1 colombia locatormap'
	'title' : 'Colombia locator'
	'version' : '1.0.5'
}
 -->
<defs>
	<radialGradient id="watergradient" cx="500" cy="500" r="500" fx="500" fy="500" gradientUnits="userSpaceOnUse">
		<stop offset="0%" stop-color="#70add3"/>
		<stop offset="11%" stop-color="#6eaad0"/>
		<stop offset="22%" stop-color="#6ca7cc"/>
		<stop offset="31%" stop-color="#6ba5c9"/>
		<stop offset="41%" stop-color="#69a2c6"/>
		<stop offset="51%" stop-color="#679fc2"/>
		<stop offset="59%" stop-color="#669dbf"/>
		<stop offset="67%" stop-color="#649abc"/>
		<stop offset="75%" stop-color="#6297b9"/>
		<stop offset="81%" stop-color="#6095b6"/>
		<stop offset="87%" stop-color="#5f92b2"/>
		<stop offset="92%" stop-color="#5d8faf"/>
		<stop offset="95%" stop-color="#5b8dac"/>
		<stop offset="98%" stop-color="#598aa8"/>
		<stop offset="100%" stop-color="#5685a2"/>
	</radialGradient>
	<radialGradient id="landgradient" cx="500" cy="500" r="500" fx="500" fy="500" gradientUnits="userSpaceOnUse">
		<stop offset="0%" stop-color="#dddddd"/>
		<stop offset="11%" stop-color="#d7d7d7"/>
		<stop offset="22%" stop-color="#d1d1d1"/>
		<stop offset="31%" stop-color="#cccccc"/>
		<stop offset="41%" stop-color="#c6c6c6"/>
		<stop offset="51%" stop-color="#c0c0c0"/>
		<stop offset="59%" stop-color="#bbbbbb"/>
		<stop offset="67%" stop-color="#b5b5b5"/>
		<stop offset="75%" stop-color="#afafaf"/>
		<stop offset="81%" stop-color="#aaaaaa"/>
		<stop offset="87%" stop-color="#a4a4a4"/>
		<stop offset="92%" stop-color="#9e9e9e"/>
		<stop offset="95%" stop-color="#999999"/>
		<stop offset="98%" stop-color="#939393"/>
		<stop offset="100%" stop-color="#888888"/>
	</radialGradient>
	<radialGradient id="bordergradient" cx="500" cy="500" r="500" fx="500" fy="500" gradientUnits="userSpaceOnUse">
		<stop offset="0%" stop-color="#444444"/>
		<stop offset="11%" stop-color="#3f3f3f"/>
		<stop offset="22%" stop-color="#3a3a3a"/>
		<stop offset="31%" stop-color="#363636"/>
		<stop offset="41%" stop-color="#323232"/>
		<stop offset="51%" stop-color="#2d2d2d"/>
		<stop offset="59%" stop-color="#292929"/>
		<stop offset="67%" stop-color="#242424"/>
		<stop offset="75%" stop-color="#1f1f1f"/>
		<stop offset="81%" stop-color="#1b1b1b"/>
		<stop offset="87%" stop-color="#161616"/>
		<stop offset="92%" stop-color="#121212"/>
		<stop offset="95%" stop-color="#0e0e0e"/>
		<stop offset="98%" stop-color="#090909"/>
		<stop offset="100%" stop-color="#000000"/>
	</radialGradient>
</defs>
<style type="text/css">
<![CDATA[
.c1 {stroke:#45a211;fill-opacity:0}
.fs {font:14px sans;stroke:#ffffff;stroke-width:2px;stroke-opacity:0.8;text-anchor:middle}
.ft {font:14px sans;fill:#000000;fill-opacity:1;stroke-opacity:0;text-anchor:middle}
.sb {stroke:url(#bordergradient);fill-opacity:0}
.sg {stroke:#000000;fill-opacity:0.0;stroke-opacity:0.2}
.sh {fill:#45a211;stroke:#000000}
.sl {fill:url(#landgradient);stroke:url(#bordergradient)}
.sp {stroke:url(#landgradient);fill-opacity:0}
.sw {fill:url(#watergradient);stroke:url(#watergradient);stroke-opacity:0.8}
.tb {fill:#eeeeee;stroke:black;stroke-width:2}
.tg {stroke:black;stroke-opacity:0.2;fill-opacity:0}
.th {fill:#45a211;stroke:#378100}
.tl {fill:#aaaaaa;stroke:black}
.w1 {stroke:#ffffff;fill-opacity:0;stroke-opacity:0.6}
]]>
</style>
<circle cx="500.0" cy="500.0" r="500.0" fill="url(#watergradient)"/>
<path class="sl" d="M866,160v-1l-1,-1h-1l-1,-2h-1h1h-1v-1h-1v-1h-1l-1,-2l-1,-1h-1l-1,-2h-1v-1l-2,-2h-1v-1h-1h1v1l1,1l-4,-4h-1h1v1h1v1v-1v1h1v1h1l1,1v1h1v1h1l1,2l2,1v1l1,1h1l1,2h1l1,1l1,2l4,4l2,1l1,2h1l1,1v1h1v1h1l2,2v1l1,1h1v1l2,2h-1v-1l1,1l1,2l4,4v1l2,1v1l2,2l1,2h1l1,2l1,1v1v-1l-3,-3v-1h-1v-1l-2,-2l-1,-2l-4,-4l-1,-2h-1l-1,-1v-1h-1h1l-1,-1h-1l-2,-2v-1h-1h1h-1v-1h-1l-8,-8h-1v-1h-1v-1h-1v-1l-4,-4h-1v-1h-1l-2,-1v-1h-1l3,3v2h1l1,2l1,1v1h-1l-1,-1h-1v-1v1l-1,-1h-1v-1v1l1,2v1l7,7v1l1,1v2l1,1v3l2,2h-1l2,2v1l1,1v1l2,2v1l2,3h1l1,1h1v3l1,1v1l1,1v1h1v1l1,1h-1v1l2,4v1h-1v1v-1h-1v1h-3l1,1l-1,1v2h1v1h-1l-3,-3h-1v-1l-1,-1v-1v1l-3,-3h-1h1h-2v2l-1,-1h-2v1l-1,-1l-1,-2l-1,-1v-1l-1,-1v-1l-3,-3h1h-1v-1v1h-1v-1h-1v-2l-1,-1l1,1v1h-1l-2,-2v-2h-1v-1l-2,-4v-1h-1l-2,-3v-1l-1,-1v-1h-1l-3,-3v-1h-1v-1l-2,-2v-1h-1v-1l-1,-1h-1v-1h-1v-1h-1l-1,-1v-2h1v-1h-1v-2h1l1,1h6l2,1l1,-1h1l1,1v-1h1l1,1v-1h1l-1,-1l-2,-3l-4,-4v-1v1l-5,-5h2v1l2,1v1v-1l-2,-2h-1l-2,-1v-1l-3,-3h-1l-2,-1l-4,-4h-1v-1h1h-2l-1,-1h-1v-1h-3l-1,-1v1l-1,-1h-1l-1,-1v-1h-1h1l-1,-1h-1l-1,-1l1,-1v-1h1l2,2v-1h1l-5,-5h-1v-1h-1h2l2,2h2l-1,-1h1h-1l-1,-1v-1l-1,-1v-1l-4,-4h-1v-2l-1,-1v-1v1h1v-1h-2v-1l1,1v-1h-1l-1,-1h-1v-1h-1v-1l-4,-4h-1v-1h-1v-1h-1v-1h1l-2,-2l2,1h-1v-1l1,1h1h-1l-2,-2l2,1l-2,-1h-1v-1l-2,-1l-2,-2h-1l-1,-1h-1h2l1,1h1v1v-1v1h2l1,1v-1h-1l-1,-1h1l2,2v-1l3,3v-1h-2v-1l-2,-2h-1v-1h-1l-2,-2l2,2h1l3,3h1l2,2h1l4,4h1l4,4h1l4,4h1l1,1h1l4,4h1l3,3v1l1,1h1l5,5h1l7,7h1l16,16h1v1l9,9v1Z"/>
<path class="sp" d="M879,173v1l2,2M791,93l3,3h1l2,2h1l4,4h1l4,4h1l4,4h1l1,1h1l4,4h1l3,3v1l1,1h1l5,5h1l7,7h1l16,16h1v1l9,9v1l1,1"/>
<path class="sl" d="M268,93h-1v1h-1v1h-1v1l-2,1l-1,1h-2v-1h1v-1h2v-1l3,-3h1h-3l-1,1h-1v1h-1v-1h1l1,-1l2,-1h1h-1h1v-2h1h-1l1,-1v-1h1l-1,-1l2,-2h1v-1v1h1v-1l1,-1v1v-1l-1,1v-1l2,-2h1l1,-1l-1,1h-1l-1,1v-2h1l4,-4h-1v1h-1l-4,4h-1v-1h1l2,-2h-1h1h-1v1h-1v-1h1h-1v-1v1h-1h1v1h-1v1l-1,1h-2v-2h1v-1h1v-3h1v-1h2v-1h1h-1v1h-1h1v-1h-1l-1,1h-1v-1l1,-1h1h-5v-2h2v-1h1h-1l-1,1h-1v-1h1v-1h1h-1h1v-1h1h-1l1,-1h-1l-1,1h-2v1h-1v1h-1h1h-1l-1,1h-1v1h-2v-1v1h-2v1h-1h1v-1v1h-1l-2,1h-1l-1,1h-1v-1h2v-1h1l1,-1h1l1,-1h1v-1h2v-1h1l1,-1h2l1,-1v1h-1h1l1,-1h1v-1h2v-1v1h-3l-1,1h-2v1h-2v1h-2v1h-2l-1,1h-1l-1,1h-1v1h-1l1,-1h-1v1h-1l-1,1h-1l-1,1h-1v1h-1v1h-2v1h-2v1h-2v1v-1v1h-2v1h-2l-1,1h-1l-1,1h-1v1h-2v1h-2l-1,1h-1v1h-2v1h-1l-1,1l1,-1l-1,1l-2,1h-1v1v-1h1v-1v1h-2v1h-2v1v-1h2v-1l-1,1h-1l-2,2v-1v1v-1h1l-1,1h-1h1h-1l-1,1l1,-1h1v-1h1l1,-1h1l1,-1h1v-1h1l1,-1v1h-1h1h-1l-1,1l1,-1v1v-1h1v-1h1l1,-1h1l2,-2h2l1,-1h1l1,-1h1v-1h1l1,-1h1l2,-2h2v-1h1l1,-1h1l2,-2h1l-1,1h-2l-1,1v-1h2v-1h1l1,-1l-1,1h-1l-1,1l-2,1h-1h1l1,-1h1l1,-1h-1h1v-1v1h-2l-1,1l1,-1h1v-1h2l2,-2h1l1,-1l4,-2v-1h2l1,-1l-2,1h-1v1h-2v1h-1h1v-1h1l1,-1h1v-1h1l2,-1l1,-1v1h-2v1h-1h1v-1h1l-1,1h-1h1l1,-1h1v-1v1v-1h1v-1v1l1,-1h1h-1h1v-1h2v-1v1v-1h1l1,-1h1l1,-1l2,-1h1l1,-1h1h-1h1l1,-1h1l1,-1h1h-1v1h-1h1h-1h1l1,-1l2,-1h2l1,-1h1v-1h2l1,-1h1h-1l1,-1h2v-1h1h-1v1h-1l-2,1l1,-1h1h-1l-1,1l1,-1h-1h1l1,-1h1l1,-1l2,-1h2v-1h2v-1h2l1,-1h2v-1h1l-1,1h-2v1v-1v1l2,-1h-1h2v-1h1l1,-1h1l-1,1h-1l-1,1l1,-1h1h-1h1l1,-1h2v-1h1h-1h1l1,-1h1l2,-1l3,-2h2v-1h2l2,-1h2l1,-1h2l1,-1h1l1,-1l3,-1h1h-1h3l1,-1l-1,1h-1h2l1,-1h3l1,-1h2l1,-1l-1,1h-1l-1,1h-1h1l1,-1v1h-1h1h-1h1l-1,1h-2v1h2l-1,1h1v1h-1h3l-1,1l1,1h1l-1,1h-1v1h1v1h1v-1h1l2,-1h3v-1h1v1h-1h2l1,-1h5l1,-1h3l-1,1h-4v1h-5v1h-4l-1,1h2v-1h4v-1h2l-1,1h1l1,-1h2l1,-1h1v1l1,-1h2l1,-1h3v-1h1v1h-1l-1,1h-1v1h-1v1h2v-1h2v-1v1l1,-1h1l-2,2h-1h3l1,-1h5v2h2v1h3v1h1v-1h2v1h1v1h-1h1l-1,1h-4l-1,1h-1h2v1h10l1,-1h2l-1,1h2l-1,1h1v-1l1,1h-1l1,1h-1l-1,1v-1v2l1,-1h2v-2h1v-1h1v-1h5v-1v1l1,-1h2v-1h1h-2l-1,1h-4v1h-2v-1h-1h1l2,-1h3l2,-1h3v1l-1,1h1v1h3l1,1h2l1,1l2,-1h5v1h2l1,-1h-1h1v-1v1l1,1h3v-1h-3v-2h1v1h1l1,-1h-1h2l1,1h1l-1,1h1v-1h1l-2,2h-1v2h1v-1h1l-1,1h1v1h-2v-1l-1,1v-1v2h1l-1,-1h3v-1h1v-2l1,-1h3l1,-1h2v-1h2v-1h-2l1,-1h1h-1h1v-1h2l-1,1l1,-1h-2v-1h-4v-2l1,-1h1v-1h1v-1h3l1,-1h-1h1v-1h3l1,1v-1l2,2l-1,1h-1l1,1h1v1h1v1h-2v-1l-1,1h1l-1,1h-1l1,1h1v-1h1v1h-1h2v1h-2h2v1h-1v2h1l1,-1h1v-1h1v-1h3l1,1v2h-2v3l1,1h2v-1h2v-1h1l2,-2h1v-1h3l-1,-1h1v-1h-1v-1l1,-1h-1h9l1,1h-1l1,1h2l-1,1h-1h2v1h-1l-1,1h-2v1h1v1h1v1h1v1h-1v1h-2l-1,1h-1l-1,1h-4v-1h-1v-1h-1l1,1v1l1,1h-4l-1,-1h-5l1,1h1v1l-3,1l-1,1h-5l-1,-1h-1l-1,-1h-2v1h1v1h5l2,1h1l-1,1h-1l-3,2v1h-2l-1,1h-1l-1,-1v1l-1,-1v1h-1v-1h-1v1h-1l-1,1h-5l-1,-1h-3l-2,-1l-1,1h4v1h1h-1h3l1,1h2l-1,1v1h-3v1l-2,-1h-2v1h1v1l-1,-1v1h-2v1h-1l-1,-1v1h1h-1v1h-3v1h1h-1l-1,1h-1v1h-1l-3,3h-2v2h-1l-1,1l-1,2v1l-1,1h-1h1v1h1v1l-1,2l1,-2h5v8h-1l-1,1h-1h1l1,-1h1l-1,1h1l1,-1l6,-1l1,1h2l1,1h4v1h1l1,1h1l1,1l1,2h3l2,1h1l1,1h2v1h1v1l-1,1l1,-1h12l1,1h1v1l-1,2v2l1,1v1l-1,1v2h-1v1l3,3v1h-1v1l1,-1l1,1h1v1h1l1,1h1v1l1,1l-1,1h-1l-1,1h1v-1h4l1,1h1l1,1v1v-1l-1,-1h-1v-1h1v-1h1v-1h1l1,1h1v1v-1h1v-1l-1,-1v-1h1l2,-2h-1v-2h-1l1,-1l-1,-1v-2l-1,-1v-1h1v-1h-1h1v-1h-1l-1,-1v-1h-1v-1l4,-1l2,-1h2l1,-1h1l2,-1l1,-1v-1h1l1,-1h1v-7l-1,-1v-1l-1,-1l-2,-1h-1v-1h-1l-1,-1h-1v-1l1,-1h1v-1h1l1,-1h-1h1v-1h1v1l1,-1h-1l1,-1v-1h-1v-1h-1l1,-1h-1v-1h1h-2l1,-1v-1h1v-1l1,-1h-2v-1h-1v-2h1l2,-1h4l3,1v1l1,-1h3l1,1h-1h1v-1h3v-1h1l2,2h2v1h-1h3v1h2v1h-1h1l1,1h2l1,1h3v1h1v-1h2v1h-1v3h-4v1h4l1,1v1h-1l1,1h1v2h-2v-1v1h-1l1,1h1l1,-1h5v1h1v1l-1,1v1h-3v1l1,-1h2l1,-1v-1h1v1h1v-1v2h1v-1h1l1,-1h1l1,-1v-1h2v1h1v1v-1l-1,-1h1v-1h1h-1h1l-1,-1h1v-1v1v-1h1h-1v-2h1v1l1,-1h-1v-2h3v1h-1h1l1,1v1v-1h1v1h1v1h1v1v-1h1v2h-1h3l-1,1h2v1h-1v1h-1h3l1,-1v1l-1,1h-1v1l1,-1h2l1,1h2v2h-2v1h3v1h1l2,1v2l-3,-1h-1l1,1h1v1h1l1,1h1l1,1h-1h2v1h1v-1h1v1h2v1l1,1h-1v2l1,-1h2v-1l1,1h1l-1,1v1l1,-1h1v-1h1l2,2h5v1h2v1h-3v1h-1v1h-2v1h-4l-1,1v1h-1l-1,-1v1h2l-1,1h2v-1h2l3,-3h1v-1h5l2,2v1h-1v1h1l1,-1h1l1,-1l1,1h2l1,1v1h1v2h1v2h-1h1l1,1h-1h1v1h1l-1,2h-1l-1,1l-2,1h-3l-1,1h-4v1l-5,5h-1v1h-12l-1,-1h-4l-1,1h-2v-1h-2l-1,1l-2,-1l-2,1l-1,-1h-1l-3,1h-4l-1,1h-1l-1,3v1h-2l-3,1h-1h1l-1,1h-2v1h-1l-2,2v1l-1,1h-4l-1,-1h-1l2,1h2v2l-5,5h-1l-2,2h-2l-1,1l-1,-1v1h-1l-1,1l-2,1h-2v1h-1v1h-1l-2,2h-1l-1,1h-2h2v1h-1l-1,1l-3,1h20l1,-1v-1h3l1,-1v1v-1l2,-2v-3h1v-1l1,-1v-2h1l2,-2v-1h2v1h3l1,-1h1l1,1h1v1l1,1v6h1v1h-1l1,1h2v3h2v2h1l-1,1h-2v1h-2v1h-1l-1,-1h-1v1v-1h-1v2h-1v-1h-1h1h-1v-1l-1,1v2h-1v1h-3v1v-1h-1v1h-2l-1,1h1l-3,3v1l-1,1v1h2v1h-2v1l-1,1h2l1,2l2,2l1,-1h1l-1,-1v-1v1l-1,-1h1l1,1v2h-3v1h-1v-1h-1l-1,1h-2v-1h1h-2v-1v3h-4l-2,1v-1l-1,1h-5l-2,1l-1,1h-1v1h-1l1,-1v-2h-1l1,1v1h-1v2h-2v1l2,1v-1v4l-1,1l1,-1h-1v1l-1,1v1h-1v1h-1v1l-2,2v-2h-2v-1h-1l-1,-1v-2h1l1,-1h1h-2v1h-1l-1,1v1l1,1l1,2v1l1,1h1l-1,1h1v1l-1,1v1l-1,1l-2,3v1h-1v1h-1v2l-1,-1v-1l1,-2l2,-2h-2v-1h1l-1,-1v-1h-2v-1h-1l1,-1h1l-1,-1h-1h1v-1h-1v-1h1v-2h2v-2l-1,1v1h-1v-1v1h-1v1h-1l1,1h-1v4h1v1h-1l-1,-1v-1v1l2,2v1l-1,-1h-2l-1,-1v-1h-1l-1,1v-1l1,-1v-1h1l-1,-1v1l-1,1v1l-1,1h2l1,1l2,1h1l1,1v2h-1l-3,-3v1l1,1h1v1h1l1,1v1h-1v1l-1,-1l2,2v1h-1v-1h-1v-1h-1l-2,-1h-1l1,1h3v1l1,1h3v1h1v1l2,6l-1,-2l-1,-1v-3h-1v2h1v2l-1,-1h-1v1h-1v-1v1h-1v1h-1l-1,-1v-1v2h4l1,1h-1v1h1v-1l1,-1l1,1v1l-2,1l-1,1v1l-1,-1h-2v-1l-1,1h-1l-1,-1v1l3,1v1h-1v1h-1l-2,-1l1,1l2,1l2,-1v1l-1,1h-4l-1,1h-1v-1v2h-1l-1,1h-1l-1,1v1v-1l-1,2h-4l-2,2h-1l-1,2l-1,1v-1v2l-1,1h-2v1h-1v1l-1,-1v1l-1,1h-2l-1,1v-1h-1l-1,1h2l-1,1h-1v-1v1l-1,-1v1h1v1h-1v1h-1v1h-1v1h-1v2h-1h1l-1,1h-1l1,1l-1,1v-1v1l-1,1v3l1,3v3l1,3l2,3l2,4v4l1,1h-1v-5l-1,1v1v-3h-1h1l-1,-1v2l1,1v2l3,8l1,1v7l-1,3v-1v1l-1,1v2l-1,1h-1l-2,1h-3v-1h1v-1h-1v-1l-1,-2l-2,-1l-2,-2v-3h-1l1,-1l-1,1v-4l-1,1h-1l-1,-1l-1,-3l-1,-1h1l1,-1v-1h1v-1h-2v-1v2h-1v1v-1l-1,-1l2,-5v-4l-4,-3l-3,-4l-2,-1h-3v1h-1l-2,1h-1v1h-3l-1,-1h1v1v-2h-1l-1,-1v-2l-1,1h-1l-4,-2h1h-2l-3,1h-1v-1h2l-1,-1v1l-1,-1v1h-1v1h-1v-1l-1,1h-1l-2,1v-1h1v-1h-1l1,-1h-1v-1l-1,1v2h-1l-1,-1l-2,1l-1,-1h-2l-1,1h-1l-1,1h-1l-3,-1v-1h-1l-2,2l1,1h2l1,-1h1v1h-1l1,1h1v-1h1v2h-2l1,1h-2l2,2h2v1h1v1h-1v1l-1,-1v1h-1v-2h-2v-1h-1v-1h-2l1,1l-1,1v1h-1v-1h-2l-1,1h-1l-1,-1h-2v-1h1l-1,-1v-1v1h-2v-1l-1,-1h-1v-1l-1,1h-1v1h-5l-1,-1h-6v-1h1v-1h-1l-1,1v1h-1l-4,2l-1,1v-1l2,-1h-2v-1h-2v1l1,1v1h-1l-3,3h-1l-2,1v1h-1l-1,1h-1l1,-1h-4v-1l-1,1l1,1v1h-2v1h-1v1h-1v-1v1h-1v1l1,-1l-2,2h-2l1,2l-1,2h-2l-1,-1l1,2h1v1h-1v6l1,2h1v1h-1v2l-1,1l-3,5l-3,8v2l-1,4v3l-1,1v2h-1l1,2v4l1,1h1v2h-1v1v-1l1,-1l-2,-2v2l1,1v3l1,2v2l3,3l2,3v4l1,2h1v1l2,2h-1l2,1l-1,-1l1,1h3l1,1h2l1,2l1,1h2l3,-1h1l2,-1h6v-1l2,-1h4l1,1h-1l1,1h3l2,-1v-1h-1v-1h-1h1l2,-2h2l2,-5l2,-2v-4l1,-1v-2l1,-2l1,-1l3,-1l9,-1l1,-1h4v-1h1l4,2h2v-1h-1h1l1,-1l1,1v1h1v3l-1,1v1l-1,2l-2,1l-2,2v3l-2,2h2v1h-1v1h-1v1l1,-1v1l-1,2v2l-1,1v2h-1v1h-1v-1l-1,-1l1,-2v-1h-1v1h-1v1l-1,1v2l1,-1h1v2l-1,3l-1,1v3l-1,1l1,2l-1,3l-1,1v1l-1,1h-1l-2,2v1h1v1h2l-1,-1l3,2h1l2,-2h2l1,1h9l2,-1h2v-1h1l3,1h4l3,1h3l4,3v1l-2,-1h-1v1h2v1h2l-1,-1h1l2,1l1,1v1h1l-1,1v1h-1v-1l-1,1h1l1,4l-1,1v1l-1,1l-1,2v11h-1v-1h-1v2h1l-1,1v1l-1,1h1l-1,1h1v3h-1v1l-1,1l1,1v1l2,2v1l1,2l1,1l1,3h1l2,2v1h2v1h1l1,1v2h1v2h4l-1,-1h1v1l2,1l1,1h2l1,-1h2l2,-2l4,-1l1,-1h1l2,-2h5l1,1h4l3,2l3,1l1,2l2,2v3h1v1l1,1v1h-1v2l-2,1v1l-1,-1v-1h-1v2h-1v2l-2,-2l-2,-4l-1,-1h2v-2h1v-1l1,1v1h1l-1,-1v-1l-1,-1v1h-2v-1v2l-1,-1v-2l-1,-1h-2v-1l-1,-1h-5v1h-1l-2,2h1l-3,3h-3v2l3,3v1l1,1h-1l-2,1l-1,1h-4v-2l-1,-2v-2l-1,1v1l-1,1l-1,-1h-1l-2,-3v-1h-4v-1h-6v1l-2,-2v-2h-1l-1,-1h-1l2,2v1h-2l-2,-2l1,-1v-3l-2,-2l-2,-1h-1l-2,-1h-1l-1,-1l1,-1l-1,-1l-3,-2l-1,-1h-1l1,1v1l2,1v1l-2,2v-1l-1,-1l-3,-1v-1l-1,-1l-1,-2l2,-2v-2h-1l-1,-1l2,-1l-1,-1l-1,-2l-4,-3l-2,-2v-2l-1,-1l-2,-1l-3,-3l-2,-1v-1h2v1h1v-2l-1,-1v-1h-3v1h-5l-1,-1h-1v1h1l-2,-1l-4,-1l-2,-1h-2l-2,-2l-3,-1h-6l-1,-1l-3,-1l-6,-6l-2,-3l-1,-1h-1l-5,-5l-1,-2l-2,-1h-1l-1,-1v1h2l1,1v1l-4,-2h-1l1,-1h-2v-1h-1l-1,1l2,1h-3l-3,2h-2l-4,2h-4l-3,-2h-4l-3,-3h-3l-1,-2l-5,-2h-2l-3,-2h-1l-6,-3v-1l-2,-1l-1,-1h-1v-2l-1,-1h-3l-2,-1h-1l-5,-2l-1,-2l-5,-5h-1l-3,-3v-1l-1,-1l-1,-2l-1,-1v-3l1,-1h2v-2h-1l2,-2v-1l1,-1v-2l-1,-1l-1,-2v-6l-1,-1v-1l-1,-2l-1,-1l-1,-2l-1,-1l-1,-3v-1l-4,-3h2v-1h-2l-1,-1v-1l-1,-2h1v-1h-1l-2,-2v-1h-2v-1l1,-1v1h-3v-3l2,-2h1v-2l-1,-2h-2l-1,-1v-1h1v-1h-2l-1,-1v-4l1,-1h-3v-1h-1v-1l-1,-2l-1,-1v-1l-1,-1l1,-1h-1v-4h-1v-13h1v-2h-3l1,-1l-2,-2v1h-2l-1,-2h-1v-1v2l-1,1l-1,3v3l-1,1v1l-1,2v2l2,2v1l1,1v1l1,2h-1v1h1v1h1v3h1v2l-1,1v2l2,2v3l1,1h-1v1l1,1v1v-1h1l1,1l-1,1l1,1h-1l1,1v2l-1,1v1l1,2v4l1,1v1l-1,1v4h1v1h1v-2l2,2v1h1v3h1v2l-1,1v1h-1l-2,2h-1v-5l-3,-3v-1l-4,-4v-1h-1v-1l-1,-1v-2l1,-2l1,-1v-4l-1,-2v-1h-1l-2,-2v-3l-1,1h-2v-1l-1,-1h-1v-1h-1l-1,-1v-2l-2,-2v-1h2l1,1h1v-1h1v2h1l-1,-1h1v-1h-1l2,-2l1,-2v-1l-1,-1l-2,-5v-1h-1v-1l-2,-1v-3l1,-2l-1,-1v-1l1,-1v-1l-1,-1v-1h1v-1l-1,-1v-3h1v-1l-1,-1l1,-2h-1v-2l1,-1h-1l1,-1v-4l-1,-2l-1,-1h-1v-3h-3v-1l-1,-1v-1l-1,1v-1h-3l-1,-1l1,-1v-2l1,-1l-1,-1l1,-1v-1l-1,-1v-7h1l1,-1v-1l-1,-1v-4h1v-1h1v1v-1l1,-1v-1h2v-1l-1,1v-1h-1l-1,1v1h-1v-1h-1l1,-1v-1v1v-7l1,-2l2,-2v-5l4,-4v-1l2,-1v-2l1,-1v-1h1v-3h1l1,-1v-2l3,-3v-1h1l2,-2l1,-2l4,-4v-1l4,-4v-1l2,-1l1,-2v-1v1h1l1,-1v1h1h-1l1,-1h-3l2,-2v1h-1l1,-1h1v-1h-1l1,-1h1v-1l-1,1v-1h1v-1l2,-2v-2l2,-2v-1l2,2h4v1l-1,1h-1l-2,1l-1,1v1l1,-1h-1h1l1,-1h1l1,-1h1v-1v1h-1v1h-1v1l-1,1h-1v1v-1h-1v1h-1h2l1,-1h1l1,-1v-1h1v-1l1,-1h1v-1h-1l1,-1v-1h1l1,-1v-2h-1v-1h1v-1h1l1,-1l-1,1h-1l2,-2h-1v1h-2v-2h1v1h-1h1v-1l1,-1h1v-1l-1,1h-1v1h-2v-2l1,-1v-1h1l1,-1h1v-1h-1v1h-1v1h-2v-1h1h-1v1h-2v-1h-1h3v-1l-2,1v-1h1v-1v1v-1l1,-1l-1,1h-3v-1l1,-1v-1h1l2,-1h3l-2,-1h-1v1h-1l-1,1v-1h1v-1l1,-1h1h-1l1,-1h1v-1h3v1h-1v1l1,-1v-2l2,-1h1v-1l-1,1h-1l-3,2h-1l-2,2l-2,1l2,-2l2,-1v-1h1h-1l-1,1v-1l2,-1l1,-1h-1l2,-2v-1h-1h1v-1h1v-1h1v1h-1v1h1v1l1,-1h-1v-2h2v-1l-4,2h-1v1h-1l-1,1v-1l1,-1l-1,-1h1l1,-1h1l1,-1h1l1,-1h-1l-1,1v-2h1l1,-1h1l1,-1l2,-1l1,-1l2,-1h-1l-2,2h-1l1,-1h1l1,-1v-1h1v-1Z"/>
<path class="sl" d="M692,483l1,-1v-1h1l2,2l1,4v3l1,2l1,4v1l1,1v2h1v2l1,1h3l1,1l1,2l-1,1l1,1l-1,1h-1v1l-2,1v1l-1,1l-2,4h-2v1l-1,1h-2v3l-3,3v3l-1,1h-1v2h-2l-3,1h2l1,1h2l3,-2l2,-2h1l2,-1v-1h1v1h-1l1,1v3l1,1v1h1v1l1,1l2,-1h5l2,-1l-1,2v2h-1v3l-1,1l2,-2v-1l2,-4l2,-1l2,-3h1v1h1l1,-1h-1v-3l1,-1v-1h1l1,-1v-1l1,1v-1h2v1v-1h1l1,1v-1h2v1h3l1,1v1h3v1h2l2,1l1,1v-1l2,2v2l1,-1v-1h1l1,1h1v1h1h-1h1l1,1v2h-1v1h-1l1,1l1,-1h1v1l-1,1v1l-1,1v1l-1,3v1l3,-3v-1l1,-2v-1h1v2l-1,1h1l3,-3h2l1,-1h1l2,1h1l1,1v1l3,1h2l1,-1l1,1l2,1h1l1,-1h2l3,-1h2l2,1l1,1h1l2,2l2,1l1,1l2,1l2,2v1l5,5l2,1l1,2h2l1,1h8v1l1,1l1,2v6l1,1v14l-1,1v3l-2,4l-2,3l-2,2l-1,2h-1v1l-1,2l-2,1l-1,3l-2,1h-1l-2,4h-1v1l-1,1v1v-2l-1,2v2l-2,4l-3,3v1l-3,3h-1v-2h-1v-1v1l-1,1v2l-2,2v1l-1,1v1l1,-1v1l-1,1v3l1,-1l-2,5v11l-1,2l-1,3l-2,4v1l-1,2v3l-2,2h-1l-1,2l-1,4l-1,1v4l-1,1v1l-3,3l-1,2l-1,1v1l-5,5l-2,4v4l-1,1l-4,1l-3,3v1l-1,1v1h-7v-2h-1v2h-1l-2,1h-1v-1h-2l-1,1l-1,-1l-2,1h-1v1l1,1h-1l-4,2h-1l-1,1v1h-4l-7,4l-2,2l-6,3v1h-1v1l-2,2h-1l1,-1h-2v1h-2v1h2l-1,2h-1v1l-1,2l-1,1h1v1l-1,1v6l-1,1v2l-1,2v1l-2,2v1l-4,2l-7,7l-3,5l-3,4l-4,4l-3,2l-3,1l-2,2v-1h1v-2l1,1v-1h1l2,-2h2l1,-1v-2h2v-1l2,-2v-2h1l1,-1h-1l-2,1h-1l1,-1h-1l-1,-1v-1v2l1,1h-1l-1,1v1l-1,1v1h-1v1l-2,1l-1,1h-1v1l-1,1v1l-1,1v2h-1l-1,1v1l-2,3l-4,4l-3,2l-4,4v1l-2,1l-1,1h-2l-4,2h-2l-1,-1h-3l-2,1h-1l-1,-1l-3,-1l-2,-1h-4l-1,-1l-1,-2l-1,-1v-3l1,-2l1,-1h1v-1l-1,1h-1l-2,4v4l-1,1v1h1v1l4,2l3,3v1l-2,1v3l2,2h2l-1,2v2l-4,3l-3,3l-1,2l-4,2l-6,2h-5l-1,1l-8,1h-5l-2,-1h-2l1,1l-1,1h1v1h1h-1v1h1v1l-2,2l-1,2l-1,1l1,2v1h-1l-3,1l-1,1h-5l-4,-2h-3v-1l-1,1h-1v8h1l1,1h1h-1v1h3l1,-1h-1l1,-1h2v1l1,1l-1,1v1l-3,1l-1,-1v-1l-1,-1l-1,1h-2l-1,1l3,1h1v1h-2l-1,1h-1l-3,3l1,2h-1v2h-1l-2,1v1l1,1h-1v1l-3,-1l-1,1h-1l-1,1h-2l-5,5v1l1,1v1l4,2l4,1h1v3h-1l-1,1h-1h2v1h-1l-2,2h-2l-1,1h-1l-1,1h-1l-1,1l-1,2l-1,3h-1v1h-3l-1,-1v-1v1l-2,1h3v1h-2l-1,1h-1v1l-1,1v1h-1h1v1l1,1v1h-1l3,3v1h-3v-1h-1l-1,1h-1v1h-2l-2,1h-3v1l-1,1v3l-2,1v-1h-4v-1h-1v-2h2l1,1l-1,1h1v-2h2l1,-1h1v-1h-2l-4,2l-1,1h-1v1l-1,-1h-1v-2l1,-1h2l2,-1l1,1h1l1,-1h-7v1h-1v1l-1,1h-1l-2,-2h3v-1h1h-2l-1,1h-2v-1h-1h1l-2,-2h6l1,-1h2v2h-1h1l1,-1l-1,-1h1v-1h-1l-1,-1l-2,-1v1h2l1,1l-2,1h-1l-1,1l-2,-2h-2v-1h1v-2h-4l-2,-2v-1h2l-1,-1h3v1l2,2h1v-2h1h-1l1,-1h-1v1l-1,1h-1v-2l1,1l-1,-1h-2v-1h-1l1,-1h3v-1l-1,1v-1h-1v-1l1,-1l1,1h1l-1,-1h-1v-1h1v-1h-1v2h-1v-5h2l-1,-1h-1v1l-2,-2v-1h5l1,1h1v-1h-1v-1l-1,-1v1l-1,1h-2v-1h-2v-1l1,-1v1h2v-1h-2v-1l1,-1h1v-1l-1,-1h-1v1l-1,-1h-2l-1,-1l1,-1l-1,1h-2v1h-1h2l-1,1l-1,-1v-1l1,-1h1l2,-2h-1v-1l2,-1l1,1h1l1,-1h1v-2h2v1l-1,2h-1l1,1h-1l-1,1h-1h2l2,-2v-1l1,1v1l-1,2h-1v1h1v-1h1v-4h-1v-2l2,1l1,-1h2l-1,-1h-2l1,-1v-1h2l2,-1v-2h-1l-1,-1h-2l1,-1v-1h1v-3l1,-1v-1h1v-1l-1,-1l1,-1h1l-1,-1v-1h1l1,1v-3h-2v-1h2l1,-1v-1l-1,1h-2l-1,-1l-2,2h-3v-1l-1,-1v-1l-1,-1v-1l1,-1v-2l1,-2v-2h1l1,-1l1,-2l-1,-5l-1,-1v-1l1,-2l-2,-2v-1l1,-1l-1,-1h1v-1h3v-3h1v-1l1,-1l1,-3v-1l1,-1v-1l3,-3v-1l1,-2v-2l1,-1v-2l2,-2v-5h1l1,-2v-6l-1,-3v-3l-1,-2v-1l1,-2l2,-2v-1l1,-2v-2h-1l-1,-2v-2l1,-1h1v-2l1,-1v-2l1,-2v-1h1v-4l1,-1v-1l1,-2v-1l1,-1l-1,-1l1,-2l-1,-1l1,-2v-1l1,-1v-12l1,-1v-1h-1v-4h1l1,-1l1,-3v-4l1,-1v-5l-1,-4l1,-2v-8l-1,-2v-7h-1v-1l-3,-2l-1,-1h-1l-2,-2h-1v-2l-1,-1l-2,-1h-1l-1,-1h-1l-3,-3l-2,-1h-2l-2,-1l-1,-1l-3,-1h-1l-3,-2l-2,-1l-1,-1l-5,-3h-1v-2h-1l-1,-2l-4,-2v-1l-3,-3v-2l-1,-1h1l1,-2v-2l-3,-3v-1l-1,-1l-1,-2l-2,-2v-1h-1v-2l-1,-2l-1,-1l-3,-2v-4l-4,-5v-1l-1,-3l-1,-1l-1,-3l-1,-1l-1,-2v-3l-2,-2l-1,-2l-3,-3l-2,-3v-1l-2,-4l-2,-2l-6,-3l-3,-2l-1,-1l1,-1h2v-2l-1,-1l-2,-3h1v-1l-2,-2v-4l7,-7l2,-1l1,-1h1v-1h1v-1l1,-3l1,-1v-1l-1,-1v-3l-1,1v3l-1,1v-2l-2,2v1l-1,-1h-1l-2,-2h-1l-1,-1v-1h1l1,-1v-2l-1,-2v-5l2,-1h1v-3l1,1h1l-2,-2v-1l2,-1v-1l2,-2v-6h1l1,-1h2l1,-1h2l3,-1l1,-1l-1,-1v-1l-1,-1v-1l2,-1l2,1v-1l-1,-2v-2h1v-1h2v-1l2,1v-1h1v-1h1v-1h1l1,-1l-1,-1h2v-2l2,-2v-1l2,-3h-1v1l-1,-1v-1l-1,1v-3l-1,1v-1h1v-1l1,-1v-3l-1,-2v-3l-1,-1l2,-1v-3l-1,-2h-1h1v-4h-1l-1,-1v-1l-1,-2l-1,-1v-2h1v-2h1v1l1,1v-1l2,-1v-2h1v-1l-1,-1v-1h-1v-3h1v1l2,1l1,1v1l1,1h-1v1h2v-3l-1,-1v-1h-1l1,-1h1l4,-3l1,-2l2,-2h2l1,-1v-1h-1v-1l1,-2v-2l-1,1l1,-2l1,-1v-1l2,-1l3,-3l5,1h-2v1l1,1l1,-1v-1l1,-1v-2h7l5,-3l3,-1l2,-2v-2h2v-1l2,-1h2l2,1l1,2v1l-1,1h-1v1h-1l-3,1h-1v2l1,2l2,2h-1v1l1,1v2l-1,2l-1,1h-1l-1,3l1,1v1l1,1v1h1v2h1v1h1l2,-1l2,-2v-4l-1,-2l-2,-2l-1,-2v-4h2l6,-3l3,-1l1,-1l2,1l1,-1l-1,-1h-3v-1l-1,-1l1,-1v-1h1l1,-1v1l1,1v1l1,2v1h4l2,1h2l2,1l2,2v1l1,1h-1v1l2,2h5l3,-1h9v1l2,2h2l1,1h6l5,-3h4l-1,-1h-3l3,-1h8l2,-1l4,1l3,-1l-1,1h-2l-1,1h-5l2,2v2h1v-1h1l1,3v1h1v-1h1h-1l1,-1h1l1,1v1h1v1v-2h2l2,2l2,1h2v2l-1,1h-1v3l-1,1v1h-3l2,2l1,-1h1l2,-1h7l2,2h1l4,2l6,6v3l-1,2v3l1,-1v-1l1,-1h3l2,2l2,1v1l2,1l1,1l1,2l-1,3l1,-1v-2l1,-1l4,1h2l3,1v1v-2l1,-1h8l5,1h1v3l-1,1h1l1,-2v-1h1l3,2h2l3,1l3,3l2,1l-1,1l1,-1l2,2v3l1,-1v-2l1,1l1,2v1Z"/>
<path class="sl" d="M928,241v1l2,2v1l1,1v1l2,2v1l1,1v1l2,2v2l1,1v1l2,2v1l1,1v1l1,1v1l1,1v1l2,2v1l1,1v2l2,2v1l1,1v2l2,2v2l1,1v1l1,1v1l1,1v1l1,1v2l2,2v2l1,1v1l1,1v1l1,1v1l1,1v2l1,1v1l1,1v2l1,1v1l1,1v1l1,1v2l1,1v2l1,1v1l1,1v2l1,1v1l1,1v2l1,1v2l1,1v2l1,1v2l1,1v2l1,1v2l1,1v2l1,1v2l1,1v3l1,1v2l1,1v2l1,1v3l1,1v2l1,1v3l1,1v3l1,1v3l1,1v3l1,1v4l1,1v3l1,1v4l1,1v3l1,1v5l1,1v4l1,1v5l1,1v6l1,1v5l1,1v7l1,1v8l1,1v11l1,1v15l1,1v44l-1,1v16l-1,1v9l-1,1v9l-1,1v6l-1,1v7l-1,1v5l-1,1v5l-1,1v4l-1,1v5l-1,1v4l-1,1v3l-1,1v4l-1,1v3l-1,1v3l-1,1v3l-1,1v3l-1,1v2l-1,1v3l-1,1v3l-1,1v2l-1,1v3l-1,1v2l-1,1v2l-1,1v2l-1,1v2l-1,1v2l-1,1v2l-1,1v2l-1,1v1l-1,1v3l-1,1v2l-1,1v1l-1,1v1l-1,1v2l-1,1v1l-1,1v2l-1,1v2l-1,1v1l-1,1v1l-1,1v2l-1,1v1l-1,1v1l-1,1v2l-2,2v2l1,-3v-1l2,-3l1,-2v-1l1,-2v-1h1h-1l1,-1v-1l2,-4l1,-3l1,-1v-2l2,-4l2,-6v-1l3,-9l1,-1v-2l1,-2v-2l1,-2l1,-3v-2l1,-3l1,-1v-2l2,-4v-3l1,-1v-2l2,-6l1,-5l1,-2l2,-6v-4l1,-1v-2l1,-1v-3l1,-3v-4l1,-1v-4l1,-1v-5l1,-1v-5l1,-3v-2l1,-5v-5l1,-2v-8l1,-1v-1v1h-1l1,-1v-36l-1,-2l1,2v1v-3l-1,-2v-4h1v-7l1,-1h-1v-27l-1,-2v-4h-1v-4l-1,-1v-2v3h-1v-1v1v-1v2h-1v-1v1l1,1h-1v-1v2h-1v-4l-1,-1v-4l-1,-1v-1h1h-1v-1v1v-2l-1,-2v-1l-1,-1v-1l-1,1v-2l-1,1v1h-1l-2,2v1h-1v3h-1l-1,2l-1,1v1l-1,1v1l-2,2v2h-1v-2h-2v-1h-1h1l-1,-1v1l-2,-1h-1h1l-2,1h-1v1h-2l-4,4v1l-2,2l-2,-1l-4,-4l-2,-4l-3,-5l-1,-1h-1v-1l-1,-1v-1l-4,-4v-1l-2,-1l-1,-1v-3l-1,1l-1,-1v-2l-1,-1v-1h-1v-1l1,-1v-1h-1v-1l-1,-1h1v-1h-1v-2l-1,-1v-1l-1,-1v-1l-1,-1v-1l-5,-5v-2l-1,-1v-1h-1v1v-2h-1v1v-1h-1v-2h-1v-1l1,-1h1v-1h-1v1h-1v-2l1,-1h-2v1l-1,1v-2h-2v-1l-1,-1h1h-1l-2,-1v-2h1v-1h-1v1v-1l-1,-2v-2l-1,-2l1,-1v2h2v-1h1l1,-1h-2l-1,1l-1,-1v-2h-1v-1h-1l1,-1v-1l-1,1v-1l-1,-1v-2h-1l-1,-2h-2l2,-2l1,-3v-5l-1,-4v-2l-1,-3v-8l-2,-6l-1,-1l-1,-2v-2l-2,-1v-1h1v-1l-1,1v-5l-1,-1v-1l-1,-1l-1,-2v-1v1h-1v-1l-2,-3v2l-2,-8v-10h-1v-8l1,-3v-4l-1,-3l-1,-1v-4l-1,-2v-2l1,-1v-1l1,-1l-1,-1v-2l-1,-2v-5h1l1,-1l1,-2v-3l1,-2v-5l-1,-2v-2l-1,-2v-1l-1,-1h-1v-1l-2,-2l-1,-3l-1,-2v-3l-1,-1l-1,-2v-3l-1,-2v-2l2,-4v-1l-1,-1l-1,-5l-4,-6v-1h1v-1l5,5h1v-1h2v-1l1,1v1h3v-2l-1,-1v-3h1l-1,-2v-3l1,-1h1v-3h2v1l1,1h1l-1,-1v-2h1l-1,-1h1v1h1v1v-1h1l-1,-1v-1l-1,-1h1v1h1h-1v-1l1,2l1,1h1v1v-1h-1v-1l1,1l1,2l1,1v1h1v1l1,1v1h1l1,1v1l1,1h1v1l1,2l2,2v1l1,2v1h1v1l2,2v1v-1l1,1v1v-1l1,2h1v1h1l1,2h1l-1,-1l1,1h1v2h1v1h1v1l1,2l2,2v1l1,1v1Z"/>
<path class="sp" d="M928,241v1l2,2v1l1,1v1l2,2v1l1,1v1l2,2v2l1,1v1l2,2v1l1,1v1l1,1v1l1,1v1l2,2v1l1,1v2l2,2v1l1,1v2l2,2v2l1,1v1l1,1v1l1,1v1l1,1v2l2,2v2l1,1v1l1,1v1l1,1v1l1,1v2l1,1v1l1,1v2l1,1v1l1,1v1l1,1v2l1,1v2l1,1v1l1,1v2l1,1v1l1,1v2l1,1v2l1,1v2l1,1v2l1,1v2l1,1v2l1,1v2l1,1v2l1,1v3l1,1v2l1,1v2l1,1v3l1,1v2l1,1v3l1,1v3l1,1v3l1,1v3l1,1v4l1,1v3l1,1v4l1,1v3l1,1v5l1,1v4l1,1v5l1,1v6l1,1v5l1,1v7l1,1v8l1,1v11l1,1v15l1,1v44l-1,1v16l-1,1v9l-1,1v9l-1,1v6l-1,1v7l-1,1v5l-1,1v5l-1,1v4l-1,1v5l-1,1v4l-1,1v3l-1,1v4l-1,1v3l-1,1v3l-1,1v3l-1,1v3l-1,1v2l-1,1v3l-1,1v3l-1,1v2l-1,1v3l-1,1v2l-1,1v2l-1,1v2l-1,1v2l-1,1v2l-1,1v2l-1,1v2l-1,1v1l-1,1v3l-1,1v2l-1,1v1l-1,1v1l-1,1v2l-1,1v1l-1,1v2l-1,1v2l-1,1v1l-1,1v1l-1,1v2l-1,1v1l-1,1v1l-1,1v2l-2,2v2"/>
<path class="sl" d="M721,51v1h2v1v-1v1h2v1h2v1h1l1,1h1l1,1h1l2,2h2v1h2v1h2v1h1l1,1h1l1,1h1l1,1l-1,-1l1,1h1l1,1h1v1h1l1,1h1l1,1h1l1,1h-1v-1l1,1h1v1h1l1,1h1l1,1h1v1h1l1,1h1l2,2h1l1,1h1v1l1,1h1l1,1h1l2,2h1l2,2h1h-1h1v1h1v1h1l1,1h1l1,1v1l-2,-2h-1v-1h-1l-2,-1l-1,-1h1h-2v-1l-1,-1h-1l-1,-1l-3,-1l-2,-1h1l-1,-1h-1l-2,-2h-2l-2,-2l-2,-1l-1,-1h-1l-1,-1h1h-2l-1,-1h-1l-1,-1h-1v-1v1h2v1h1l2,1v1l-1,-1l1,1h1v1h1l1,1l2,1v1h1v1h-1v-1v1v-1h-1l-2,-1h-1l-1,-1h-1v-1h-1h1h-1v-1v1l-1,-1h-1v-1h-1l-1,-1l2,2h-1l-3,-3v1h1l-1,-1h-1v-1h-1v-1h-1l-1,-1l1,1h1l-2,-1h-1h1v1h1l2,2h1v1v-1h-2v-1h-1h1h-1v-1h-1l-2,-1l-1,-1l1,1l-1,-1h-1l-1,-1h-1v-1h1h-1h1l1,1v-1h-2v-1h-1h1v1l-1,-1v1h1h-2l-1,-1h-1v-1h-1l-1,-1h-1h1h-1l-1,-1h-1h1h-1v-1h-1h1l-1,-1v1v-1h-1h1h-1v-1h-1l1,1l-1,-1h-1v-1h-1h1l1,1v-1h-2v-1h-1l-1,-1h-2v-1l1,1h1h-1v-1l1,1h1h-1h1h-1v-1h-2v-1h-2v-1v1h2v1h2v1h-1v-1h-1l-1,-1h-2v-1l-2,-1h-1v-1h-2l-1,-1l-2,-1h1h-1l-1,-1h1v1h1h-1l-1,-1h-2v-1h-1l-1,-1h-1h1h-2v-1h-1l-1,-1h-2v-1h-2l-1,-1h-1v-1h-3v-1v1h1l-1,-1h-2l-1,-1h-1l-1,-1h-1h1l1,1h1h-1v-1h-2l-1,-1h-1h1h-2v-1h-2l-1,-1h-2l-1,-1h-1h1h-1l-1,-1h-2h2l1,1l-2,-1h-1l-1,-1h1l1,1h1l2,1l-2,-1h-1l-1,-1h-1h1h-3v-1h-1h1l1,1h2l1,1h1l1,1h2l1,1h1l1,1h2l1,1h1l1,1h2l1,1h1l1,1h2l1,1h1l1,1h1l1,1h2l1,1h1l1,1h1l1,1h2l1,1h1l1,1h2l2,2h1l1,1h1l1,1h2l1,1Z"/>
<path class="sp" d="M667,29h2l1,1h2l1,1h1l1,1h2l1,1h1l1,1h2l1,1h1l1,1h2l1,1h1l1,1h2l1,1h1l1,1h1l1,1h2l1,1h1l1,1h1l1,1h2l1,1h1l1,1h2l2,2h1l1,1h1l1,1h2l1,1"/>
<path class="sl" d="M615,440l-1,1v-1h2ZM589,423v2h-5l1,-1h3ZM578,425h-1ZM614,443h-1v-1l1,-1h1v1h-1ZM578,362h-1ZM579,362h-1ZM579,366l1,1h-2ZM567,361h3l2,1v1h-1l-2,2h-10v-3h-1h1v-1l1,-1l2,1ZM573,364h-1l1,-1h1v1ZM265,89l1,-1v1ZM263,91v-1h1v-1l1,1h-1ZM272,81h-1l1,-1ZM266,69h1ZM263,72l1,-1h1h-1ZM260,70h1ZM258,68h1l1,-1h-1v1ZM214,92l1,-1v1ZM215,91h1ZM204,97h1v-1v1ZM299,43v-1ZM276,53h-1Z"/>
<path class="sp" d="M275,53h1"/>
<path class="sl" d="M253,65v1h-2v1h-2v1h-1h1l2,-2h2ZM239,79v1v-1h1h-1v1h-1v1h-2v1h-3v1h-1l-1,1h-1h1l2,-2h-1h1l-1,1h-1h1l2,-2h1l1,-1h1h-1l-1,1v1v-1l2,-1l1,-1h1h-1v1v-1h2ZM213,91l-1,1h-1v1v-1v1h-1l-1,1v-1h1l2,-2h1h-1h2ZM258,94h-1v1h-1v-1h1ZM260,97h-1v1v-1l1,-1ZM264,91l-1,1h-1h1v-1h-1h2v-1l2,-1v1l-1,1ZM263,95l-1,1h-1v-1h1h-1l-1,1h-1l1,-1h1v-1h1l2,-1l1,-1v1l-1,1ZM266,87h1v1h-2v1v-1l-1,1h-1l2,-2v-1h1ZM255,97v1h-1v1v-2l1,-1v-1h1v1ZM265,68v1h1h-1ZM259,71h1v-1h1l1,-1h1l-2,1h-1v1ZM264,68h-1v1h-1h1ZM266,67v-1h1h-1ZM234,83h-1l1,-1ZM244,76h1ZM239,79l1,-1ZM222,88v1v-1h1ZM227,86l1,-1h1h-1ZM228,85h1ZM216,90h1h-2v1l2,-2v1ZM212,92h1v-1v1ZM209,94h1ZM215,91h-1v1h-1h1v-1h1l1,-1v1ZM207,95l1,-1ZM207,95l1,-1v1ZM240,74h1v-1ZM265,85h-1v1h-1l-1,1v1h-1v1h-1l-1,1h-1h1v-1h1v-1h1h-1l2,-2h-1l1,-1h1l1,-1h1ZM271,81h1l-3,3v-1h1v-1h1h-1l-1,1v1h-1l-1,1l-2,1h-1h1v-1l1,-1h1v-1h1l2,-2h1v-1ZM269,80v1h-1v1v-1h1v1h-1l-1,1v-1v2h-1v-1h-1l-1,1h-1h1v-1l1,-1v-1h2v-1v1l1,-1v1v-1ZM262,90h1h-1v1h-1l1,1h-1v1l-1,1v1v-1h-1v1v-1v2h-1h1l-1,1h-1v1h-1v-1l1,-1l-1,1v-1l2,-2v-1l1,-1v1v-1h1h-1l1,-1h1ZM264,87v1h-1v1h-1l-2,2h-1l2,-2h1v-1l1,-1ZM243,77h1h-1l-1,1l1,-1l-1,1h-1h1h-2l2,-1h1l1,-1v1ZM203,98l1,-1h1v-1h1v-1v1h-1h1v-1v1h-1l-2,2h-1v1Z"/>
<path class="sp" d="M202,99l1,-1"/>
<path class="sl" d="M33,340v1h-1l1,-1v-3l1,-2v-1l1,-1v-1l1,-1v-1v4l-1,1v2l-2,2ZM37,322h1v1h-1v-2ZM37,324h1v1h-1v2h-1l1,-1v-3h1ZM38,319l-1,1v1v-2l1,-1v-1ZM38,315v-2h1v1h-1ZM37,315v1v-1l1,-1v1ZM36,325l1,-1v1ZM512,188h-1h1l1,-1h1v1l1,-1h1l-3,1h-1v1h-2l-3,1h-3l-1,1v-1h-1v-1h2v-1h7l1,-1h1h-1ZM538,165h-1v1v-1ZM501,191h-1l1,-1h1h-1ZM525,185h-1v-1ZM520,184h-1h1v-1ZM528,186h-1l1,-1ZM491,224h-1v-1ZM491,228l-1,1l2,-2v-1l-1,-1h1v2ZM489,229h-1ZM484,233l1,-1ZM440,296h-1v-1ZM439,295v-1ZM452,306l-1,1v-1h1v-1l1,-1ZM369,271l-1,-1h2ZM329,283l1,-1ZM332,281h-1l1,-1l2,-1l-1,1ZM326,288v-1l1,-1l1,-2l1,-1l-2,3ZM345,273l2,-1h1l-1,1ZM326,297h-1v-8l1,-1l-1,3l1,4ZM202,232h-1ZM204,238h-1ZM208,241v1l-1,-1v-1ZM203,233h-1v-1h1ZM204,232h2l-2,1ZM210,237v1h-1v-1ZM253,134h-1ZM251,135v-1ZM251,137v1v-1v1h-1h1h-1v-1h1v-1h1v-1v1h-1ZM501,197l-1,1l1,-2ZM493,209l1,-1v-1l1,-1l-1,1v1ZM484,233h-1v-1ZM444,310v-1ZM448,309l1,-1v1ZM447,309l-1,1v-1h2ZM447,260l-1,2v-1ZM442,310h1ZM454,289l1,1l-2,-4v-1v1ZM391,270h-1l1,-1ZM394,266h-1l-1,-1l1,1ZM397,265v1h-1l-1,-1h1ZM389,267h-1v-1h1ZM391,269v-1ZM420,270l-1,1l-1,-1h3ZM245,143v-1h1ZM248,141v1h-1ZM249,140h-1ZM251,135h1v-1v1ZM695,933h-1ZM677,914h2v1h-1h2v1h-1h1v1h-1h1h-1v1h-1v-2h-1v-1h-2v-1h1ZM948,645h-1l1,-1ZM929,579h-1ZM132,717h-1ZM593,363h-1l1,-1ZM583,902h2l1,1h-1l1,1v-1h2l-1,1h1h-1l-1,1h-3v1h-3l1,1h-3v-2h2v-1h1l1,-1ZM575,903h5v1h-1l-1,1l-2,1h-2v1h-2l-1,-1h2l1,-1h1v-1h-1v1l-1,-1h2l-1,-1ZM571,905h1h-1v1l-1,-1ZM576,903v-1h1ZM442,354h1v-1l1,1h-2v-1ZM453,351h-1ZM455,351h-1l1,-1ZM570,250h-1h1v-1h1ZM582,361h-1v-1h1ZM580,361h-1ZM582,358v1h-1v-1ZM521,334v-1h-1h2ZM520,333h-1l-1,-1h1v1ZM516,333h1v1h-1ZM601,375v1h-1v-1ZM811,126h-1ZM808,124l1,1ZM775,99v1v-1h-1l-1,-1l1,1ZM795,112v2h-1l-1,-1h-1v-1h-1v1l-1,-1h-2v-3h-1v-1h-1v-1h-1v-1h-2v-1h-1v-2l1,1l-1,-1h1h-1v-1h-1v-1h-1l-2,-2h-2v-1l-4,-2v-1h-1v1h1h-3v-1h-1l-4,-4h-1v-1h-1h1h-2v-1v1h1h-1h1h-1l-1,-1l2,2l3,2h-1l-2,-2l-2,-1v-1h-1l-2,-2h-1v-1l1,1h-2v-1h-1v-1h-1l-2,-2h-1v-1h-1l-2,-2h-1v-1h-1v-1h-1v-1v1h1v-1v1v-1h2l2,2v1h1v1h1l1,1v-1h3l1,1h1v1h1v1h1l3,3v1v-1l1,1h1v1h-1l1,1h1v-1l2,1h1l1,1h1v1l6,3v1h2l1,1h1l1,1h1v1h1l1,1h1l1,1h-1l-1,-1v1h1l2,1h1l2,2v1h1v-1h1v1h2v1h1l3,3v1h1v1h1v1h1h-1v1l1,-1v1h2l1,1v1h1h-1l1,1h-2v1v-1h-2l1,1h-1h1v1h-1h1h-1l-1,-1v1l1,1v1h1h-3l1,1v1h-1v-1v1v-1h-1v-2h-1h1h-1v-2h-1l-1,-1h1l-1,-1h1v-1l-1,-1v-1h-1Z"/>
<path class="sl" d="M781,103v1h1v1l-2,-2ZM743,74h-1ZM736,68h-1l-1,-1h1v1ZM735,68h1l1,1h1v1h1l1,1l-1,-1h-1v-1v1l-1,-1ZM734,67h1ZM745,76h-1ZM746,76h-1ZM744,75h1v1l-1,-1v1v-1h-1ZM743,74h-1ZM755,87h-1ZM765,93h-1l-1,-1v-1l1,1h1ZM758,88v1h-1v-1h-1v-1h-1h2v1ZM760,90l1,1h1v1h-1v-1v1l-1,-1ZM761,91h-1v-1l-1,-1l1,1ZM743,79h1v1h1l1,1v1v-1h-1l-1,-1h-1v-1v1h1l-2,-2h1ZM753,85h-1ZM749,83h1l1,1h1l1,1l-1,-1h-2l-1,-1h-1h1h-1v-1h1ZM746,82h1v1ZM750,85l-1,-1h-1v-1v1ZM751,86h-1v-1h1ZM772,100h-1v-1h-2v-1h-1l2,2h-1l-1,-1h-2v-2h-1v-1h-1v-1l-1,-1h2l1,1h1l1,1h1v1h1l1,1h-1v-1l3,3ZM803,117l1,1l-1,-1h-1ZM910,217l-1,-1ZM914,224h1h-1v-1ZM615,423h-1v-1h1l1,-1h1v1ZM613,432h-7l2,-1h1v-4h-1v-1h6l-1,1v4ZM766,76v1h1l2,2h1l2,2h1l-1,-1h-1l-2,-2h-1l-1,-1h-1v-1v1l-1,-1ZM777,84l1,1v-1h-1l-1,-1h-1l-3,-3h-2v-1l3,3h1ZM765,76h1ZM757,71h-1ZM754,69h-1ZM879,192h-1v-1v1ZM875,184h1v1h1v1l1,1h-1v-1h-1v-1v1h-1v-1l-1,-2v-1v1h1ZM876,183l-1,-1ZM877,190h-1v-1h1ZM873,272v3l-2,-2v-1h1v-1l1,-1v1ZM881,267v1l-1,-2h1v-1l1,1v1ZM882,273v1h-1l1,-1l-1,-2v-2h1v1l1,1v1ZM877,274h1v2h1l-1,1l-2,-2l1,-1h-1ZM871,275h-1v-1h1ZM868,277l1,1h-1l-1,-1ZM866,272v-1l-1,-1v-1h1v2ZM937,445h-1l-1,-1v-1h2v1ZM995,489v1v-1h-1l1,-1ZM994,502v1v-2ZM860,154h-1ZM611,406h-1v-2h1v1ZM609,410v-1h1h-1ZM613,400l-1,1l-1,-1v-1l1,-1h1ZM597,372v-1ZM597,371h-1l-1,-1h1v1ZM853,238v1l1,-1l1,1v1h-1l-1,-1ZM803,210h-1ZM764,194v1v-1h-1ZM787,199h-2v-1h1ZM784,200l-2,-1h-1l-1,-1l3,1ZM780,200h-1v-1ZM782,200l1,1h-2v-1h-1h1ZM796,204h3v1h-3v-1h-1ZM460,448v1v-2h1v1ZM437,456h-1l-1,-1v-1h1v1ZM432,438v1l-1,-1ZM459,448l-1,1v-1ZM738,65h-1v-1ZM743,68h1h-1v-1h-1ZM706,45v1l-1,-1ZM720,53h-1ZM722,55v-1h-1h1ZM665,28h-1h2Z"/>
<path class="sp" d="M664,28h2"/>
<path class="sl" d="M685,36h1v1h1h-1h1h-1ZM688,38h1l-1,-1h-1h1ZM680,34h1l1,1h-1v-1h-2ZM669,29v1h1h-1v-1h-1ZM670,30h-1v-1h-1h1ZM670,30h1h-1h1l1,1h2v1h1h-1v-1h-2l-1,-1h-2v-1v1ZM704,44h-1ZM703,44h-1v-1h-1h1v1ZM712,48v1v-1v1v-1h-1ZM674,32h1h-1h3v1h1h-1h1h-1l-1,-1h-1ZM683,35h-1v-1h-1l1,1h2v1v-1v1h1h-1h1h-1v-1h-2l-1,-1h-2v-1h-1l1,1h2l1,1ZM649,31l-1,-1h1ZM634,19h1l-1,-1h-1h1ZM597,9h-1ZM598,10h1h3v1h4l1,1h1h-1h1h-1l-1,-1h-5v-1h-2ZM584,7h1l1,1l-1,-1h-2h1h-1h3v1h5l1,1h1h-1l-1,-1l1,1h-1v-1h-6l-1,-1h1h-2ZM588,8h-1h3v1h2l-2,-1l1,1h5l1,1h4v1h3l2,1h3l2,1h3v1h1l-2,-1h-4v-1h-4v-1v1h1h-1l-1,-1h-1h1h-3l-1,-1l1,1h-1v-1h-1h1v1v-1h-1l1,1h1h-2l-1,-1h-4l-1,-1v1h1h-1l-1,-1h-3l-1,-1h1v1h1h-1v-1l1,1h4l2,1l-2,-1h-4v-1h-3ZM598,11h2h-2v-1h-1h1ZM584,7h1ZM993,464v1ZM35,683v-1ZM806,112v1h1h-2v-1h1h-1ZM793,100v1ZM795,103l-1,-1ZM803,110l1,1h-1ZM552,415l-1,1v-2h-1v-1l2,1ZM594,369h-1ZM591,368h1ZM537,412l-1,-1h1ZM547,415v1l-2,-1l-1,-2l1,1ZM397,345v1v-2l1,-1h1v1ZM252,332v1l-1,-1v-1h1ZM218,355h-1v-1h1ZM232,304v1v-1h-1v-1h1ZM226,271h-1l-1,-2v-1l1,-1v2h1ZM211,279l-1,-1l1,-1v-1h1v2ZM231,272l-1,2l-1,-1l1,-2l1,-1h1l-1,1ZM196,271v-2h1v1ZM400,338v-1ZM358,358v1l-1,-1h2ZM235,311v-1ZM224,251v-1ZM231,295v1l-1,1v-2ZM223,308v1l-1,-2h1ZM222,307h-1v-3l2,-3v1l-2,2v2ZM899,342v1v-1h-1v-1l1,-1ZM905,208v-1ZM904,207v-1ZM8,539v-1ZM22,603v1v-1h-1ZM4,486v1v-2ZM3,468v1ZM475,361h1l2,1h1l1,1l3,1l1,1v1h-4l-1,-1h1h-1l-1,1h-2v1h-1v-1h-4v-1h-1l-1,-2h-2v-2h7ZM865,162h1h-1h1ZM879,175v-1ZM900,202h-1ZM893,191v1h1l1,2l1,1v1h1v1h1v1l2,2v1h1v1l-2,-2v-1h-1v-1h-1v-1h-1v-1h-1v-1h-1v-1l-1,-1v-1h-1l1,1v-1l1,1v-1h-1v-1v1v-1l-1,-1ZM876,175l3,3v1h1v1h1v1l3,4l1,1h1h-1l1,1v1l-2,-2l-1,-2h-1v-1h-1h1l-2,-2v-1h-1l-1,-1v-1h-1v-1h-1l-1,-1v-2l-1,-1v-1h-1l1,1h1v1h1ZM885,187l1,1ZM874,174v-1ZM765,101l1,1l-1,-1h-1ZM764,95v1h1v1h1v2h2l1,1h1l-2,-2h1v1h2v1h1l1,1h1v1h1l1,1h1v1l1,1h1l5,5h-1l-1,1h1v1h-1v1h1v1h-2v1v-1l-1,-1v1h-1v-1h-2v-2h-2v-1h1h-1v-2h1h-1v-1v1h-1v1v-2h-1l-1,-1v-1h-2v-1v1l-1,-1h-1l-1,-1h1h-1v-1h-1l-1,-1v-1l-1,1v-1h-1l1,-1l1,1v-1h1v1v-1h-1v-2l-1,1l-1,-1v-1h-1v-1h-1v-1h1h-1h1v1h1v1v-1l-1,-1h-1l1,-1v1h1v1Z"/>
<path class="sl" d="M672,47h1h-1l1,-1v1h1v1h2l1,1h4v1h1l1,1h1v1h1v1h1v4h-1v1h-6v-1h-7v-1h-1h1v1l1,-1l-1,-1h-1l-1,-1h1h-3l-1,-1h-2v1h-1v-1h-1h2v-1h1h-1v-1h-2v-1h-1l-1,1h-3v-1h1v1h1l-1,-1h-1h1h-1v-1h-1h1h-1v-1h1v1h2l-1,-1h-2v-1v1h-1v-1h2l1,1h2l1,1h1l1,1h-1h2v1h1v-1h1h-1v-1h-1l-1,-1h1l1,1h2l-2,-1h3v1h1l-2,-1h2l-1,-1h1v1h1v-1h-1l-1,-1h2v1ZM399,378l-1,1v-1h3ZM404,378h-1v-1h1ZM521,351v3l1,1v1h-1v3l-1,1h-1l2,2v3l-1,-1v-1h-6v1h-2l-3,-1h-4l-1,1v1h-1v-1l-1,-1h-1l-2,-1v-2l1,-1h1l1,1h3l1,1h8v-1h2v-1h-1l-1,-2l-2,-1h1v-3l-1,-1h-2l-2,-1h-1v-1l1,-1h6l1,1h2l2,1h1ZM512,358v1l-4,-2h2l1,1ZM513,348h1h-3l1,-1v1ZM917,415l-1,-1h1ZM918,414v1ZM919,413v1h-1v-1ZM919,410v1ZM917,411v-1ZM916,408v1ZM607,415l-1,1v-2h1ZM791,94v1h1h-1h1h-1v-1h-1l-1,-1h1v1ZM794,96v1h1h-1v-1h-1ZM790,95v-1h-1ZM786,93h-1l-1,-1h1v1ZM787,94h-1v-1ZM865,162l1,1v1l3,2l1,2l1,1v1l1,1h1h-1l-1,-1v-1h-1v-1h-1v-1h-1l-1,-1v-1h-1v-1h-1v-2l-1,-1h-1h1v1ZM833,145v1v-1h-1v-1v1ZM613,394v1l-1,-1h-1v-1h-1l-1,-1v-1h2l1,1v1ZM608,379l-1,1l-1,-1v-2h1v1l2,1ZM606,381l-1,1l-1,-1v-3l1,1h1ZM609,382h-1v-1h1ZM607,149h-1ZM606,149h-1v-1h1ZM593,364h-1ZM595,366h-1v-1h1ZM33,648v-1ZM38,655v1ZM34,649h-1v-1v1ZM40,657l1,1h-1v-1h-1v-2l1,1ZM54,593h1v1h-1ZM55,595h-1ZM57,600v-1ZM50,586h-1v-1h1ZM50,590v-1ZM64,661h-1v-1h1v-1v1h-1v1ZM51,586v-1v1h1ZM65,665v1ZM64,664v-1h-1h1ZM81,668v-1ZM78,666v-1ZM79,686v-1ZM54,646v-1ZM52,650h1ZM52,650l-1,-1h1ZM46,643v-1h-1ZM46,647v-1h-1v-1v1h1ZM749,66h-1l-1,-1l1,1ZM747,65h-1Z"/>
<path class="sp" d="M748,66h1M746,65h1"/>
<path class="sl" d="M995,470l1,1l-1,2l1,1h-1v-3ZM449,546h-1v-2h3l-1,1ZM460,509h-1h1v-1ZM362,526h-1l-1,-1l1,-1h2v2ZM370,528h-2v-1h1l1,-1h1v1h-1ZM353,523l-1,1l-1,-1v-1h2ZM361,531h-1l1,-1v1h1ZM354,519l1,1v1l2,2v2l1,1l-1,2h-5v-1l1,-1h1l1,-1v-1l-2,-2v-2h-2v-1h1l1,-1ZM360,522l-1,1l-1,-1h-1l1,-1h1ZM521,365v-3l-2,-2h1l1,-1v-3h1v-1l-1,-1v-4h1v-1h1l2,1l1,-1h3l1,1h2l1,1h3v2h1l1,1h4l-1,1h-2v1h4l1,1h2l2,2h1v1l-1,1v1h-1v1h-1l-2,-2l-1,1l-1,-1h-6l-2,2h-3l-1,-1h-1l-1,1h-1v1h-1l-2,4l-1,-1h-1v-2ZM609,388h-1l-1,-2v-1h2v2ZM539,5h5v1h-1h9v1h2l1,1l1,-1h-1h3v1h3v1h1v-1h-2l-1,-1h1l1,1h1v-1h-1h5l1,1h2v1h3v1h-1h1v1l1,-1v1h4v1h1l1,1h2l1,1h2l1,1l-1,-1h3l1,1l-1,-1h-1v1h6l1,1h1h-3l1,1h-1l-1,-1v1h3l1,1h1v-1v1h4l1,1h2l1,1h1h-1v1h-1l-1,-1l1,1h1v-1l1,1h1v-1v1h4v1h1v1h-3v-1h-1h1v1h5l1,1h2v1h-6l-2,-1h1h-2l1,1h1l-1,1v-1h-1l1,1h-1h2v-1h5l1,1h2l1,1h1l2,1h1h-5v-1h-2l-2,-1h-1l-1,1h1l1,-1l2,1v1h5l1,1h4v1h1v1h1l-1,-1h1l1,1h2l1,1h1l1,1h1h-3l-1,-1l1,1h1l-1,1l-2,-1h-2l-1,-1h-1v-1h-4l-1,-1h-3v1h5v1h-3v1h1v1h5v1h1h-1l1,-1l1,1v-1h4l1,1h1l2,-1v1h1h-1l1,1h-1h1h-1v1h1h-1v1h1h-1h1v2h-3v1h-3v1l-1,-1v1h1h-4l-1,-1h-1h1v1h2v1l-1,1h1v2h1l1,1v1h-1h1l-1,1h-2l-1,-1v1h1l1,1v1l-1,-1v1h-1v1h-2v-1h-1v-2h-1v2l-1,-1v1h2l-1,1h-4l2,1h1v1h-3l1,1h1l1,1h2v1h-1v1l-1,-1h-2l2,1h2l1,1h1v1h-1l1,1v1h-2l2,1v1h-2l2,1v1h1v1h1l1,1h-1h1v2l1,1l1,2v1h-1l-2,-1h-1v1h4v1l1,1h-3l2,1h-2v-1v1h-1l-1,-1l1,-1h-1v1h-1l-3,-1v-1h1v-1l-1,1h-4v-1h-1v-2h-1h1l-1,1h-2v1h-5l1,-1h-2v-1h-3v-1h-2v-1h-1l-1,-1h1v-1h1h-2v1h-1l-1,-1h1l-1,-1h-3v-1h-1v-1l1,-1h-1v1h-1l-1,-1h-1l-1,-1h-1l-2,-1v-1h-1v-1h2l1,-1h1h-2l-1,1h-2v-2h1l1,-1h1v1h1v-1h-3v-1h-1l-1,-1l2,2l-1,1v-1h-1v2h-1l-1,-1v-1h-1l-2,-2h-1h1v-1h1v-1h1h-1v1h-5v-2h-1l1,-1h1v-1h1v-1h1h-1v1l-2,1h-1v1h-2v-3h-2l-2,-2h1l1,-1h6l2,1v-1h-2v-1l-1,1h-3v-1l-1,1h-2v1h-1v-3h2l2,1h1v-2h-1l1,1h-6v-1l1,-1h1l2,1h2v-1h-1l-1,-1h2l-1,-1v1h-1v-1l-1,-1h1v-1h-1h1h-6l-1,-1h-5l-1,-1h-1l1,-1h1v1h6l1,1h2l-1,-1h-2v-1h-1h1l-1,-1h-5v-1h1h-3v-1h-1l-1,-1h-1h1v1h1v2h-3l-1,-1h-1v-2h-2v-1h2l-1,-1h-3l1,-1h-2v-1h-1v-1h-3v-2h-3l-1,-1h-3l1,-1h-3v-1h-6l-1,-1h-3v1h-1v-1h-1v1h-8l-1,-1h-1h1h-1l-1,-1h-3v-1h9v-1h-2v1h-2v-1h-1v1h-2v-1h-1h1h-4l-1,-1v-1h6l1,-1h4v-2h1h-4v-1h4v-1h1v-1h4v1h1l-1,-1h2v-1h1v1h1v-1h1l1,1h1l-1,-1h2l3,1h3l-1,-1h-2h3l-3,-1h-1v1h-1v-1h-1h6v-1v1h1v-1h-1h4Z"/>
<path class="sl" d="M563,37h1l1,1h1v1h-2l-1,1h-1v-1h-1h1h-3l-2,-2h2h-2v-1h4v1ZM569,38v1l-1,-1h-1v-1h2ZM558,34h-2v-1h2ZM549,28v1h-3l1,-1l1,1v-1ZM505,17h-1ZM534,8h-1l-1,-1h-1h2ZM623,32h1v1h1h-1v1l-1,-1l-1,1h-1l-1,-1h-1v-1l1,1h1v-1h1ZM559,7h-1ZM574,10h-1ZM586,14h-1l-1,-1h-1h1l1,1ZM600,18l-5,-1v-1v1h2ZM605,19l1,1h1h-3v-1l1,1ZM589,14h-1ZM625,52h-1v-1h1ZM615,73h-2l1,-1h1ZM563,34h-1ZM719,63v1l-1,-1h-1h1ZM721,65h-1l-1,-1h1v1ZM715,62h1ZM716,62l1,1l-1,-1l-2,-1h1ZM716,61v1l-1,-1ZM781,88h1v1h1l1,1h1v1h1v1h2v1l-1,-1h-1v-1h-2v-1l-1,-1h-2v-1l-1,-1h-1h1l1,1h-1v-1h-1v-1h-1h1v1h1ZM786,93h-1v-1h-1v-1h-2v-1h-1l-1,-1l-2,-1l-1,-1h-1l-3,-3v1h1l-1,-1h-1v-1l1,1l-2,-2h-1l2,2h1h-1l-2,-2h-1h1h-1h1l-1,-1l-2,-1v-1h-1h1l2,2h1l2,2h1l1,1h1v1h1l1,1h-1h1l2,2h1l2,2h1v1h1l1,1h1ZM781,89h1l1,1h1v1h1v1v-1h-1l-2,-2h-1h1ZM787,92v1h1l1,1l-2,-1v-1h-1ZM787,93h1h-1l-2,-2ZM787,92h-1v-1ZM782,88v1v-1h-1ZM787,93l-1,-1ZM786,92v1v-1h-1ZM780,88l-1,-1ZM770,81h-1v-1v1ZM787,91l-1,-1h-1v-1l1,1ZM440,322h4l1,1h5l1,1h4v1l1,-1l-1,1l2,1l2,2h4l1,1h1l4,2l2,2h2l1,1v-1h-1h1l1,1h1l1,1h-2l1,1h1v-1l2,1v1h2v1h3l2,1h3v2l-1,1h5l2,1l1,1h1l2,2h2v1l-1,1h-5v1h-2v-1v1h-5l-3,-1h-1l-2,1h-10l1,-1l3,-2l1,-1v-1h-1v-1h-3l-2,-1h-2l-2,-1v-1h-1v-3h-1v-1l-1,-1h-5l-4,-1l-2,-1h-1l-1,-1v-1h-6v-2l-1,1v1h-1l-1,-1h-3l-2,-2h3l1,-1l-1,-1h-8l-1,1h-1l-1,1v1h-1l-1,1h-4l-1,1v1h-2l-2,1v-1h-2v1h-1v-1l3,-1h1v-3h1l1,-2h1l6,-2l1,-1h5l2,-1h2ZM473,332h-1l-1,-1h2ZM470,329h-2v-1h1v1ZM465,327h2l1,1h-3ZM471,331l-1,-1v-1v1h1ZM433,335l-1,1h-3v-1h-1h2l-1,-2l1,-1h2v1h1ZM459,326h-1l-1,-1h1ZM866,159v1ZM865,158h-1ZM864,157h-1ZM859,153v-1ZM854,147h-1v-1h-1h1v1ZM855,148v1v-1h-1ZM858,151h-1v-1h-1v-1h-1h1v1h1ZM860,154l-1,-2ZM860,153v1ZM856,149h-1l-1,-1v-1h-1v-1h-1l1,1h1v1l1,1ZM867,160v1ZM867,160h-1v-1h-1l1,1v-1v1Z"/>
<path class="sp" d="M866,160h1"/>
<path class="sl" d="M245,743h-1v-1h1ZM467,794h-1v-1h1l1,1ZM530,909v3l-1,2v5l-1,1h-11l-2,-1h-3l1,-1l1,1v-1h4l1,1h1v-1h-1v-1h-1v-1l1,-1v-1l1,2h-1v1h2v1h4v1h1v-1h1h-1l-4,-1v-1h-1v-1h1l2,-1h2v-1h-6v-2h1v-1h3l1,-1h1l1,1h1l1,-1ZM536,922h-5v-1h-1h6ZM503,858h-3v-1h-1h1v-1l1,-1v-5h1v-2l2,1h1v1l1,1h-1v1l-1,1h-1l1,1h1v1h1l-1,1h-1l-1,1h1ZM499,891v4l-1,1h-1v-3h1h-2v2h-3v-1h1v-1l-1,-1h3l-1,-1h1v-2h3ZM493,889h-1v-1l1,-1v-2h1v1l1,1v2ZM500,911h2l1,1h2v1h1h-2v-1h-4l-2,-2h1v1ZM498,888h-2v-1h-1v-2h-1h1l1,-1h1v2h1v1ZM507,914h3v1h1h-1v1h-1l-1,1h-1v-1h1v-1h-2v1h-1v-1h-1v-1h-2l1,-1h1l1,1h1v-1h1ZM497,904v1h1v1h1l-1,1v1h-1v-1l-1,-1v-1h1ZM523,921h5v1h2v1h1v1h-1v-1h-3v-1h-2v1h-1l-1,-1h-2l1,-1v-1ZM515,916l1,1h1l-1,1h-1l-1,-1h-1l-1,1v-1h-1v-1h3ZM504,864h-1l-1,1v1h1v2h1v1h-1v1h-2v-1l-1,-1v-1h-1v-1h-1l1,-1v-1h2v-1h3ZM508,866l-1,1h-1v-1h-1l1,-1v-1h3v1h1l-1,1ZM495,867v-1ZM494,899v1v-1h-1h1v-1h1v1ZM495,890l-2,2l-1,-1h1v-1h-1h1l1,-1h1ZM495,884h-1l1,-1h1v1ZM498,859h-1ZM504,867v-1h-1v-1h1v1ZM499,903h-3l-1,1v-1h2l1,-1h1ZM496,897l-1,1h-1v-2h3v1ZM503,861h-1l1,-1ZM501,906h-1l-1,-1h1ZM500,872h-2v-1l1,-1v-1h1v2ZM533,925h-1ZM539,922h-1ZM517,920v1h2v-1l1,1l-1,1v-1h-3v-1h-1v1h-1v-1h2ZM534,924h-1ZM862,367h-1v-1h-1l2,-1v1ZM875,383l-1,1h-1v-1l-1,-1v-2l2,2ZM863,368h-1l1,-1ZM875,373h1l1,1l-1,1l-1,-1ZM870,385h-1v-2h1v1ZM868,370h1h-2v1l-1,-1v-1h1ZM874,369v-1ZM876,382h-1v-2h1v1ZM251,101l-1,1h1l-1,1l-2,1h1l1,-1h1v-1h1l-2,2h-1l-1,2h-3l1,-1v1h1v-1h-1l1,-1v-1h1v-1h1l1,-1ZM247,107v1h-2v2h-1v2h-1v-1l1,-1v-2h1v-1h2v-1ZM247,122h1l1,1h2v2l-1,1v2h-1l2,2v1l-1,1v3h-1l-1,1l-2,-2h-1v-1h-1h1v-1h1l1,-1h1v-1l-1,1h-2l-1,1v-2h1h-1l1,-1h-2v-1h1l1,-1h1h-2l1,-1h-2v-1h1v-1v1h-1l1,-1h-1v-1h1v-1h1v1v-1h1h-3l1,-1v-1h2ZM443,13v1h-3v-1h2ZM439,15h1h-2l-1,1h-5l1,-1h5ZM428,16h-3v1h-2v1h-4l1,-1h1h-2v1h-5v1h-1v-1l-1,1h-1v-1v1h-1v-1h1h-1h4l2,-1h3l1,-1h6l1,-1h1ZM433,19v1h-1h3v-1h2v1h-1l-1,1h-2v1h-11l-1,1h-6v-1h7v-1h1h-3v-1v1v-1h-1v1h-6v-1h3l1,-1h3v-1h1v1h1v-1h-1h3v1l1,-1l1,1h-1v1h1h-1h1l3,1v-1h1h-1v-1h2v-1h3l1,-1l1,1h-2v1ZM403,28h3l1,-1h3l1,1h-1l-1,1h-1h2l1,-1h2v-1h2v2h-1v1h-1v1h2v-1h1v-1h1v-1l2,-1h1v-1h1l1,1v-1l1,1h1v1h-1v1h-1l-1,1v2h-1l-1,1h-1l1,1h-1h1v1h2l1,1h1v1l-1,1h-1v-1v1h-1v-1h-2v1h-2v1h-1h2v-1h1v2h-4v1h-2l-1,-1h-3v-1h-2l1,-1h-1l-1,1h-1l-2,1h-5l-2,1h-10v-1h1v-1h1v-1h-5v-1l1,-1h1v-1h13l-1,-1h-10v-1l1,-1h6v-1h3h-5l1,-1h-1v-1h4v-1h2l2,-1h2l1,-1h5v1h-2v1h-1Z"/>
<path class="sl" d="M402,23h2l-1,1l2,-1h2v2h-1v1h-6l-2,1h-3v1h-3l-1,1h-2l-1,1h-2v1h-6l-1,1h-1v-1h1l1,-1v-1h-1h1v-1h3l1,-1h2v-1h2l1,-1h3l1,-1h1l2,-1v-1h6v1h1ZM505,7h10v1h-4v1h-3h3l-1,1h-2l-1,1h-1l-1,1h-1h1h-4v1v-1l-1,1h-3l-1,-1v1h1h-4l1,1h1l1,-1h1v1h1h-2l1,1h1l-1,1h-4v1h-3v1h3l-1,1h-3l-1,1h-2v-1h1h-3v-1v1h-4v-1v1h-8v-1h-1v1h-2l1,-1h2v-1h3v-1h3l1,1h4v-1h2h-2l-1,1h-1v-1l-1,1l-1,-1h1v-1h1l1,-1l-1,1h-4v-1h11v-1h-1v1h-3l-1,-1h1l-1,-1h-2l1,-1h5v1h2l-1,-1h-1h5v-1h2l1,-1h2h-3v1h-8v1h-2v-1h-1h5v-1l-2,1h-2l1,-1h1h-2l-1,1h-4v-1h2h-1h1h-3v-1h9v-1h1l1,1h2v-1h1h-1h11v-1l1,1h1h-1l1,-1h1ZM462,16h2v1l-1,-1h-2ZM457,22v1h-5v-1l-1,1v-1h2v-1h5v1ZM440,25l1,1h1l1,-1h3v1h-2v1h-3v1h-1h3v1h-1h1v1h-1l-1,1h-1l-1,1h-3v-1h1h-1v1l-1,1h-2v-2h-1v-1h-2v-1l-1,-1h2v-1h1v1h4v-1h1h-1l-1,-1h2v-1h2ZM461,55h1v-1h2v1h3v1h1l1,1h2v1h1v1l-1,1h3l1,-1l2,2h-1l-1,1h-2l-3,-1h-1v-1h-2v-1h-2v1h-1v1h-3v1h-1v1h-4v-2h-5v-1h1l2,-1h1v-2l1,-1l1,-2h1v-1l1,-1h1l1,1v1ZM454,19h-1v1h-2v1h-1l-1,1h-5v-1h4v-1h-1l-3,1h-3v-1h3v-1h3v1h1v-1h1h-1h1h-1v-1h3v1v-1h2ZM455,12v1h-1h1h-1h2v1l1,-1l1,1h-2v1h1h-1l-1,1h-1v-1h-1v-1h-1v1v-1h-1h1h-1h2v-1h-1h1h-1h1h-2l1,-1h2ZM477,9v1l1,1v-1h1v1h-1h3v1h-1h2l1,1h-4v1h-2v-1h1h-1v1h-1h1h-2v1h-1l-1,-1v1h-5v-1h1h-1h1h-1l-1,-1h5l-1,-1l-1,1h-1v-1h-1v1h-1l-1,-1h1v-1h3v-1h-1h3l1,-1v1l1,-1h1h-1h2ZM461,18h1v1h-1h1l1,-1h4v1h-1h3v1h-3l-1,-1v1h3v1h-1h7v1h1v-1h-1h13l1,1h-1l-1,1h1h-1h1h-1v1h-6v-1h-1v1h-12l1,-1h-2v1h-3v-1h-1h1h-3v-1h1v-1h1v-2h-5l1,-1h-1v-1h3ZM463,14h2v1h-3l-1,1h-2v-1h1h-1h1h-1v-1h3ZM456,25h5l1,1h-3v1h-2v1h-2v1h-1l-2,-1h-1l-1,1h1h-1v1h-2v1h-3v-1h1v-2h1v-1h1v-1h3v-1h4ZM432,38h1v1h1v2h1h-2v1h-5l-1,-1h-1h1h-2v-1v1h-1v-1h2l1,-1h1v-1h1v1v-1h1v-1h2ZM579,155h1v-1h1v1h-1v1h2l1,-1h-1v-1l2,-2v1h2v1l1,1h-2v1l-1,1h-6v-1l-1,-1v-2h1l1,-3v-1h1l1,-1h1v1l1,1v1l-1,1v1l-1,1h-1ZM544,160h-2v-3h-2l-1,-1h1v-1h-1v-6l-1,-1v-1h-1l-1,-1h-1l-1,1h-3v-1h-2v1l-2,2h-1v2l-1,1v1h-1v3l-2,2v1v-1l-1,1h-3v1l-1,1h-19l2,-1h2l1,-1l2,-1v-1l3,-3h1l2,-1l1,-1h1v-1h3l1,-1h2l1,-1l2,-1h1l6,-6l2,-1l1,-1h1l2,-2h2l4,-2l3,-1h10l1,1l2,1h1h-1l1,1v1l-1,1h-2v1h-1v1h-4l-1,-1h-1v1h-1l2,1h1l1,1h1l1,-1h2l1,1l-1,1v1l-2,2h3v2h1v1l1,1v1h3l1,1h1h-1l1,1h2l1,1h4v1h2l2,-2h1v1l1,1h1v-1l2,2h-1l2,1h1h-2v1h-3l-1,1h-1l-2,1h-1l-2,1h-3v1h-2v-1l-1,1h-1v1l-4,4h-1l-1,1v1l-1,-1h-1l-1,-1h-2v-4l1,-1l-1,1v-1l1,-1h1l7,-4h1v1h1v1v-1l2,-1h3l-2,-1h-6l-1,1h-1l3,-3h-1v-1h-1l1,1l-1,1h-2l-1,1l-2,1l-1,1h-1l-1,-1v-1v2h-3l-1,1l-1,-1Z"/>
<path class="sl" d="M600,121v1h-2v1h2v1l-1,1v1l-1,1v2h-1v3h1v-1h1v-2h1v1h3v1h-2v1h1v1h4v-1v3h1v-1h1l1,-1h1v-1v1h1v1v-1h3l1,1h1v1h-1v1l-2,1h3v2h-1h1v-1h1v1l1,-1h1l1,-1v2h-1v1h-1v1h-1h1v1l-1,1h1v1h1v-1l1,-2h2v1l-1,1v1h1v1l1,-1v-1h1v1l1,1l-1,2l1,1l-1,1v1h-1v-1h-1v1h-1v-2h-1v-1v1h-1v1h-1v-4l-1,-1v-1h-1l-1,-1v3h-1l1,-1h-1v1h-1l-1,2l-1,1h-1l-1,1h-1l-1,-1l1,-1h2v-1l1,-1h1v-1h-3v1h-3l1,-1l-1,-1h-1l-1,1h-11l-1,-1v1h-3l-1,1v-1h-1l-1,-1v-1h1l3,-3h1h-5l2,-2v1h1v-2l1,-1h1l1,1l-1,-1h1v-1h-2v-1h2v-1h-1l1,-2v-4h1v-1h1v-1h-1h1v-2h1l2,-1h2l1,-1ZM465,34h6v-1l1,-1h-2v-1h-1h1l1,-1h1l1,1v-1h-1h1h-2v-1l1,-1h1l1,1l-1,-1h-1l1,-1h3l1,-1h6v1l1,1v1h1h-2l-1,1h1h-1v1h1h-1h2l1,-1v1v-1h3l-1,1h1v1v-2h2l1,1v-1h-2v-1h7l1,1h1l-1,1h-1v1v-1h4v1h-1l-1,1h1h-1v1l1,-1v-1h2l-1,1h1l1,-1v1h1v-1h3l1,1h2v1h-3l-1,1h1v-1h4v1h-1l-1,1h-1h2v1v-1h1v-1h7v1h-1l-1,1h-1h2v1h1v-1h1v-1l1,1h2v1h-3v1h-1h5l1,1h1h-6l-2,1h1l1,-1h1l1,1v1l-1,-1h-1v1l-2,-1l1,1h3v1l1,-1l1,1h2v1h1v-1h1v2h-1h1v-1h1l1,1v-1h1v1l1,-1h1l-1,1h3l1,1h1h-1v1h-1h4v1l-1,1l1,-1h5l2,1h1l-1,1l-1,-1h-1l2,1h-1v1l-1,-1h-1v1h2v1h-1v1h-3l-1,-1l1,1h-1h1v1l1,1v1h-1l-1,-1h-2v-1v1h-2v-1h-1v-1h-1v-1h1l1,-1h-1l-1,1h-2v-1h-3l-2,-2v1h-1h1v1h-1l-1,-1h-1h1v1h2v1h-3v-1h-1v1h1h-1h1v1h1v1l1,-1h1v1h1h-1l1,1h1l1,1v1v-1h2v1l1,-1h1v1h1v1h2l-1,1l-1,-1v1h2v1h2l1,1h-1l1,1v1l-2,-1v-1h-1h1v2h1v1h1l-1,1v-1h-1l1,1v1h-1v-1h-1l-1,-1h-3l-1,-1v1v-1h-3l-2,-2v1h1h-1l-2,-1h-2v1h1l1,1h1l1,1h2l1,1h1l1,1h2v1h2v1h-1l1,1h-2l-1,-1h-3l-4,-1h-3l-2,-2h-4l-1,-1h-3v-1h-1l-1,-1h2v-1h-3v-1l-1,1v-1h-1l-1,-1h-1l-1,-1h1h-1v-1l-1,1h-1v-1h-3l1,1h-6l-1,1h-4v-1h-2v-1h-1h1v-1h1l1,-1h1h-1l1,-1h3l2,1h1l1,1h-1h1v-1h-1h2v-1h6l-2,-2h-1v-1h1l1,-1h1v-1h2v-1h2v-1l-4,-4h-2l1,-1h-1l-1,1v-1h-2l1,-1h-1h1h-4l-1,1h-1v-1h2l1,-1h-1l-1,-1h-1h1h-2v-1h-2v-1h-2v-1h-2v1h1l-1,1h-2l-1,-1h-4v1h-5v-1l-1,1h-1l-2,-1h-5l-1,-1h1h-4l-1,1v-1h-2v-2h4v-1h-4l-1,-1h1v-1l1,-1h1v-1h2v-1h1v-1h1l2,-1h7l-1,1h-1l-2,1l-1,1h1v1h-1v2h1l1,1h-1l-1,1h-2ZM571,135l-2,1l-2,-1h-3l-3,-1l-1,-1h-1v-1l-4,-1h8l1,1h1l4,2h1ZM563,152v-1h2l1,1h3l2,-1h1l1,1l-1,1h-1v2h-2v-1h-1h1l-1,-1h-1h1h-1v1h-1l-2,-1h-1v-1h-2v-1h-2v-1l2,-2v2l1,1h1Z"/>
<path class="sl" d="M470,64v1h-1v1h-2v1h-4l-1,1v-1h-1v-1h1l2,-2l1,1h1l1,-1h2ZM479,67h1v1h-1v1h-1v1h-2v-1h-1l1,-1v-1h2ZM496,43l1,1h1h-1v3h-7v-2h1v-1h1l1,-1h2ZM487,26h4l1,1h2v1h1v1h-2l-2,-1l-1,1h-4l-1,-1v-1h-1v-1h2ZM466,115h-1l-1,-1h-1l-3,-1v-1h4l2,2ZM478,96v1v-2h1v1ZM478,96h-1v1l-1,1v-2h1h-1l-1,2h-2l2,-1h-2v1h-1l3,-3v-1v2l1,-1v-1h1v1h1ZM472,96l1,-1h1ZM470,17h-1v-1h2v1ZM444,17h-1v-1h1v-1l1,1h-1h1v1ZM464,11v1h-1v-1h-1h1ZM424,28v-2h-1h1l1,-1h3v1h1h-1v1h-3v1ZM443,20h1h-4l1,-1h-1h3ZM442,18h2v1h-3v-1h2ZM413,20h-1l1,-1h2l-1,1ZM432,15h-1h2v-1h1l-1,1ZM257,100h1v-1h1h-1v1ZM242,113h1v-1v1ZM256,103h-1l1,-1h1ZM253,107v-2l1,-1v3ZM260,98h2l1,-1l-1,1h-1l-1,1ZM255,109l-3,3h-1h1v-1h1v-1l1,-1l-1,1v-1h1v-1h1v-1h1v1ZM244,129v1h-1v-1ZM252,128v1l-1,-1v-1h1ZM243,128v-1h1v-1v1ZM251,125l1,-1v-1h1v1h-1v1ZM252,111h-1l1,-1v-1h1v1h-1ZM249,117v-1h1v-1v1ZM253,111v1v-1h1v-1l1,-1h1l-2,2ZM253,108l1,-1v1ZM255,107h-1h1v-1h1ZM251,133h-1l1,-1ZM590,168h-2v-1l1,1l1,-1ZM581,158l-1,-1h1ZM573,146v1h1h-2v-1l1,-1h1v-1h1v1h-1ZM557,143v1h-1v-1ZM557,142v1ZM550,166v-1ZM547,163h-1v-1h1ZM504,158h-1h1l1,-1v1ZM504,157l-1,1v-1ZM520,149h-1h2ZM602,126h-1v-1h1ZM610,132h-1v1h-1v-1h1ZM600,119v-1ZM612,131v1h-1v-1ZM616,145v-1ZM538,66h1v1h-1ZM526,76v-1h2v1h-1ZM516,66h-2v-1h-1h2ZM539,71h-1l-1,-1h3v1ZM538,69h1v1l-1,-1h-1ZM523,82h-1ZM542,76h-1v-1h-1h2ZM564,97h-1v-1h1ZM558,89h1v1h-1l-1,-1ZM519,39h-1h2ZM539,48v-1h1ZM490,20l-1,1v-1ZM473,93h1ZM475,89v1l-1,-1v1v-1ZM475,94v-1ZM471,112h-1v-1ZM473,119h-2l2,-1ZM252,132h-1v-1ZM252,125h-1h1v-1ZM502,45h-3v-1h4v1ZM486,62h1v1l-1,1h-1l-2,-2h2ZM457,20h1ZM474,79h-1ZM475,79h-1l1,-1ZM444,28h-1h1v-1h1v1ZM448,24h-1l1,-1ZM444,25h1ZM452,39l-1,1v-1ZM451,40h-1v-1h1ZM501,66h-2v-1h2ZM498,43h-2v-1h2ZM482,74h-1h2ZM485,44h-1v-1h1ZM491,62h-3l1,-1l1,1ZM485,38v1h-5v-1h4ZM489,38v1h-1v-1ZM487,60h-1h2ZM469,51h1ZM485,41h-1h1l1,-1h1h-1h1v1h-1ZM492,40h-1v-1h1v1h1ZM463,37h1h-2ZM466,53h1h-2v-1h-1v-1h1l1,1h1h-1ZM460,45h-1v-1h1v-1h1v2ZM463,53h-1l-1,-1h2ZM424,69v-1ZM447,18h2ZM451,15h-1h1v-1ZM451,16h-1v-1h2v1ZM469,19h-1v-1h1ZM454,21h-1ZM452,24h-1v-1h1Z"/>
<path class="sl" d="M410,19h1ZM427,17h-1h2ZM436,22h-1v-1h2v1ZM421,41h-1v-1h1ZM422,40h1ZM427,35h-1ZM437,38v1h-1v-1v1h-1l1,-1ZM420,39h1v-1h-1h1v1ZM416,41l-1,1v-1h2ZM407,42l-1,-1h2v1ZM394,45l-1,1v-1h1v-1ZM393,43v1ZM391,47h1ZM392,43h1ZM342,35h1ZM709,521l1,-1h7v1h2l-1,1v2h-1v3l-2,2v2h-1v1h-1l-1,-1v1h-2l-2,2h-2v-1h-1v1h-3l-2,-2v-3h1v-1h-1l-1,-1l1,-2v-3l2,-2h2ZM731,713h-2l1,-1h1ZM694,739v-1l1,-1v1h-1ZM722,719h-1l1,-2v1ZM748,543l-1,1l1,-1v-1ZM783,629v1v-1l1,-1ZM782,633h-1v-1h1ZM746,529l-1,1h-1l1,-1v1v-1ZM708,516v1l-2,2l-1,-1h-2v-1h2l2,-1ZM703,502h-1v-2h1v1ZM701,520l-3,2v-1h-1l2,-2h1ZM710,519l-2,1l-1,-1l1,-1h3v1ZM702,517v2l-1,-1v-1l1,-1v-2h1v-1v3ZM705,515h-1v-1l1,-1v1ZM691,531l-1,1l1,-3l1,-1v-2l1,-2h1l2,-1v5h-1l-2,2ZM693,749h-1l1,-1v-2h1v1ZM388,365h-1h1v-2h1ZM388,369l-1,1l1,-1v-1h1v1ZM624,406h-1v-2h1v1h1ZM473,313v1h1v4l-2,-1v-2h-1v-2h1ZM477,300l-1,-1h1v-4l-2,-2l-2,-1h-1h3v1h1l2,2l1,2h-1ZM510,338v1l-1,1h-2l-2,1v-2h1v-1h1l1,1h1v-1l1,-1ZM473,310v2h-1l-1,1h-1v-1l-1,-1v1v-1h-1l-1,-1h1v1l1,-1l-1,-1l2,-2l-1,-1h2v2l1,1ZM467,293l1,1h2l2,-1v1h-3l-2,1h-2l-1,-1l1,1l1,-1v-1ZM476,307h-1h2ZM502,326h-2v-1h1v1ZM499,315l-1,1v-1l1,-1ZM501,330h-1l2,-2h1v-2h1h-1l1,1l-1,2h-1ZM481,303l2,1l2,2h1v1l-1,1v1h-1h1v-3h-1v-1h-1l-1,-1h-2ZM489,320h-1l-1,-1h-1v-1h1l1,1v1ZM496,324v1l-1,-2h-2v-2l-1,-1v-2l1,1v1l1,1v1l1,1ZM492,314h-1v-1l-1,-2h-1v-1l1,2ZM510,328h1l1,1h1h-4v-1ZM511,336h-1l1,-1ZM528,920l1,-1v-5l1,-2v-2l1,1h1v1l-1,-1l-1,1l1,1h1l3,3h1l1,1h1l1,1h1l1,1h5l-1,1h-3l-1,1h-3l-1,-1h-8ZM549,919v1l2,-1v1l1,-1h1l-1,1h-3ZM583,831h-1v-1ZM604,373h-1v-1h1ZM604,368h-1v-1h1ZM618,944h1v1l-1,-1h-1ZM424,994h-4l-1,-1h-5l-1,-1h-4l-1,-1h-5l-1,-1h-3l-1,-1h-5l-1,-1h-1h2l1,1h1h-1l-1,-1h1l1,1h1h-1l-1,-1h-4l-1,-1h-4v-1l2,1h1h-1l-1,-1h-2h1l-1,-1h1h-1v-1l1,1h14l1,1h6v-1h4l2,1v-1l-2,-1h1l2,1h2l1,1h1v1h1v-1h1h-1l-1,-1h3l1,1h2l-1,1h7l1,1h2l2,-1h7v1h6l-1,-1h-3l-1,-1h-3l-2,-1h-4v-1h2l1,1h5l-1,-1h-9l-1,-1h-2v-1h2l1,1h11l1,1h17v-1h4v1h8l1,1h10v-1l2,1v-1h-1h4l1,1h4v1l1,-1h12l1,-1h9l1,-1h1l1,-1h1v-1h-1v-4h-1v-2h-1h5v-1h1h-1v-1h1v-1h1v-1h-1h1v-1h1v-1h-2v-1h2v1v-1h1v1v-1h1v-1l1,-1l1,1l1,-1v-1h2l1,-1l1,1l1,-1h-1h1v-1h2v-1h1l1,-1l1,1v-1l1,1v-1h2v-1h5v-1h2l1,-1l2,-1h5v-1h4l2,-1h3v1h-4l-2,1h-1l-1,1h-2v1h1h-1h1l-1,1v-1h-2v1h-1v-1h-1l-1,1h-2l-1,1h-3v1h-2v1h1h-1l-1,1h-1l1,1h2l1,-1h2v1h-2v1v-1h-2v1h-1v-1h-2l-1,1v1l-1,-1v-1h-2v1h-2v1h1h-3l-1,1h-1h1v1h-3v1h-1l1,1h-1h2l-1,1h-1h1v1h3v-1h2l-1,1h1v1h1v1h1v2h-1l1,1h1h-2v1l1,-1h1v2h-1v1h-2l1,1v-1h1v1h-2v1h1v1l1,-1v1h-5v1h1v1h-1v-1l-1,1h1h-1h1v1h-3l-1,1h-1v-1h-1v1h-1h1h-1v1h-5l-1,1h-8l-1,1h-14l1,1h7l-1,1h-8l1,1h-8l-2,-1h-1v1h4l1,1h7v1h-2h5v1l1,-1h1v1h1v-1h4v1h4v1h3v1h2l2,-1h7v-1h8l-1,1h2v-1h7l1,-1h10l1,-1h8l7,-1h1h-3v-1h-1l-2,1h-1v-1h-1h2l3,-1h2l1,-1h4l2,-1h5l1,-1h7l1,-1h2l4,-1h9l1,-1h3l1,-1h2l3,-1h3l1,-1h2v-1h3l2,-1h3l1,-1h3l2,-1h3l2,-1h1l1,-1h-1h2v-1h1v1h-1h1l1,-1h3v-1h1h-1h1l-1,1h-1l-2,1h1l1,-1h3l1,-1h2v-1h2l-1,1h-2l-1,1h2v-1h1v1v-1h1l-1,1h-1h1l2,-1h2l1,-1h2l1,-1h3l1,-1h1l1,-1v1l1,-1h1h-1l-1,1h-2l-1,1h-2l-1,1h-2l-1,1h-2l-1,1h-2l-1,1h-2l-1,1h-3l-1,1h-1l-1,1h-3l-1,1h-3l-1,1h-3l-1,1h-2l-1,1h-3l-1,1h-3l-1,1h-4l-1,1h-2l-1,1h-4l-1,1h-4l-1,1h-4l-1,1h-3l-1,1h-5l-1,1h-5l-1,1h-5l-1,1h-6l-1,1h-8l-1,1h-7l-1,1h-11l-1,1h-16l-1,1h-43l-1,-1h-15l-1,-1h-10l-1,-1h-9l-1,-1h-6l-1,-1h-6l-1,-1h-1Z"/>
<path class="sp" d="M420,994l-1,-1h-1M409,992l-1,-1h-5l-1,-1h-3l-1,-1h-5l-1,-1h-1M668,971h-1l-1,1h-2l-1,1h-2l-1,1h-2l-1,1h-2l-1,1h-2l-1,1h-2l-1,1h-3l-1,1h-1l-1,1h-3l-1,1h-3l-1,1h-3l-1,1h-2l-1,1h-3l-1,1h-3l-1,1h-4l-1,1h-2l-1,1h-4l-1,1h-4l-1,1h-4l-1,1h-3l-1,1h-5l-1,1h-5l-1,1h-5l-1,1h-6l-1,1h-8l-1,1h-7l-1,1h-11l-1,1h-16l-1,1h-43l-1,-1h-15l-1,-1h-10l-1,-1h-9l-1,-1h-6l-1,-1h-6l-1,-1h-2"/>
<path class="sl" d="M547,994h1l1,-1v1h-2l-1,1l-13,1h-3l1,-1h6v-1h1h-1h3v-1h4l3,-1h5v1h-5ZM521,996h-2v-1h3v1ZM513,974v1l1,-1v1h1v2h1l1,1v3h-1v1h-2l-1,1h-10v-1h6v-1h-7l-1,1h-3v-1h-1l1,-1l1,1h1v-1h4v-1h-1h7v-1h-1l2,-1h1h-4l-1,-1l1,-1h-1v-1h1l1,-1h4ZM437,981h4v1h1v-1h2l1,1h-1h-10v-1h-6l4,-1l1,1h2l1,-1h1ZM399,984h2v1h-3v-1h-3v-1h-1h3ZM387,982h1l1,1h5v1h1h-3l-1,-1h-4l-1,-1h-1h1ZM561,994h1h-1l-1,1v-1ZM560,994h-1ZM506,995h-2l1,-1h3l4,-1h1v1h-4l-1,1h-1ZM562,958h1v-1h1l-1,1h1h-1v1h-3l1,-1h-1l1,-1h1ZM573,955h-3l-1,1v-1l2,-1h2ZM566,950h1l-1,1h-4l1,-1h2ZM542,959l-1,1h1h-2l-1,1l-1,-1h-1h2v-1h2ZM545,959h-1v1l-1,-1h2l-1,-1h2v1ZM521,969h-1l-1,1h-2v-1h1l2,-2h2v1l-1,1h-1ZM502,978l-2,1h-5l2,-1h4ZM498,976h1v1h-3l-1,-1h2ZM500,984h-1v1h1h-1l-3,-1h-1h1v-1h4ZM458,984h-1v-1h-2l1,-1h1l1,1h1ZM655,974h-1l1,-1h1ZM658,973h-1h2l1,-1v1h-1ZM512,996v-1h-1h2v1ZM511,995h-1h2ZM579,947h2ZM570,956h-1l2,-1v1ZM563,960l-1,-1h2ZM571,954l-1,1l-1,-1ZM564,957h1h-2ZM537,976v-1l-1,-1h2v1h-1ZM554,953h1l1,-1l1,1h-4l1,-1ZM507,976h-1l-1,-1h-1h2ZM447,983v-1h2ZM427,983h-2ZM403,984h-1ZM394,985h-2l-1,-1h1l1,1ZM662,973l1,-1h1h-1ZM653,975h-1h2ZM664,972h-1h2v-1v1ZM656,974h-1l-1,1h-1h1l1,-1h2ZM664,972h1ZM612,983l-2,1h-1l-1,1l1,-1h-1h2l1,-1h2ZM627,980h-1h2ZM635,979v-1h1h-1ZM560,994h1ZM583,947h1ZM562,951l-1,1v-1ZM539,976h-1ZM543,973h-1ZM539,978h-1h2ZM539,979h-1ZM560,952h-1ZM554,954h-1ZM552,957h-1h2ZM547,958h-1h2ZM540,961l1,-1v1ZM546,954h1ZM530,964h-1h1v-1h1ZM527,965l-1,1v-1ZM524,967h-1ZM523,970h-1h2ZM508,977h1h-1v1l-1,-1ZM501,984v1l-1,-1h2ZM451,983h-1ZM408,985h-2l1,-1h1ZM386,984h-1ZM389,985l-1,-1h-1h1ZM389,987h1h-2ZM383,986h-1v-1h-1l1,1ZM393,988h-1ZM392,988h-1ZM389,987l1,1ZM394,989h1h-1v-1ZM389,987h-1ZM387,987h-1l-1,-1ZM390,987v1l-1,-1ZM394,989l-1,-1h1ZM392,988h-1ZM592,364h1Z"/>
<path class="sw" d="M860,154h-1Z"/>
<path class="sh" d="M525,417v1h-3l-2,1l-2,4l-2,1h-1v1l-2,2l-1,2v3l-1,1v3l-2,2v1l-1,1v1l2,-1h1l1,1h1l1,2v2l2,2v1l1,1v1h-1v6h2l1,1v1l1,1h13l1,1h2l5,5l1,2h2l1,-1h1l2,1h2l3,-1h2l1,-1h1l1,1h1v3h-1v3l-1,1h-1v10l1,1v1l1,2l1,1l1,2h1v1h-1l-4,4v1h2l3,3h1v3h1l-1,1h1v1l1,2v1l1,1l-1,1l1,1h-2v-4l-1,-1v-1l-1,-2h-3l-1,1l-1,2h-1l-1,-1v-1h-1v2h-14v6h5v1l1,1v2h-2v-1h-2v1h-4v7l2,2h1v1h1v3l1,1v1h1v1l-1,2v3l-1,2v2l-1,4v3l-1,3v2l-1,3v2h-1v-1h-1v-1l-1,-1h-2l-2,-1l1,-1l2,-3l2,-4l1,-1v-1h-2l-1,-1h-1l-1,-1h-1l-2,-1h-2l-1,1h-1v-1h-1l-1,-1h-1l-2,2h-3v1l-1,-1h-5l-1,-1v-4h-3v-3h-1v-2h-2l-2,-2h-2v-2l-1,-1v-1l-1,-1h-1v-1h-1v-1h-2l-1,-1h-3l-2,-1h-1l-2,-2v-1h-2l-1,-1v2h-6l-1,-1h-2l-1,-2l-2,-2h-1l-2,-1h-1l-1,-1l-2,-1l-2,-2h-1v-1l-1,-1v-1l2,-1l2,1v-1l-1,-2v-2h1v-1h2v-1l2,1v-1h1v-1h1v-1h1l1,-1l-1,-1h2v-2l2,-2v-1l2,-3h-1v1l-1,-1v-1l-1,1v-3l-1,1v-1h1v-1l1,-1v-3l-1,-2v-3l-1,-1l2,-1v-3l-1,-2h-1h1v-4h-1l-1,-1v-1l-1,-2l-1,-1v-2h1v-2h1v1l1,1v-1l2,-1v-2h1v-1l-1,-1v-1h-1v-3h1v1l2,1l1,1v1l1,1h-1v1h2v-3l-1,-1v-1h-1l1,-1h1l4,-3l1,-2l2,-2h2l1,-1v-1h-1v-1l1,-2v-2l-1,1l1,-2l1,-1v-1l2,-1l3,-3l5,1h-2v1l1,1l1,-1v-1l1,-1v-2h7l5,-3l3,-1l2,-2v-2h2v-1l2,-1h2l2,1l1,2v1l-1,1ZM467,498h-1v-1h1Z"/>
<path class="sw" d="M755,70h-1v-1h-1h1h-1l1,1ZM443,179h1h-1v1l1,1h1l1,-1v1h1v-1h1l1,-1h2l1,-1l2,-1l1,-1h3l1,1h2v-1h1l1,-1h7v-2l1,1v1l-1,1h-1v1h-1l-1,1h-1l-1,1l-2,1h-2l-4,1l-2,1l-1,1l-2,1h-4l-1,1h-1v-1h-3v-1h-2v-2h1l1,-1ZM470,174h1ZM987,387v1v-2ZM381,125v1h-1v-1v1h-1v1h-1v-3h1v-1h1v-1h1h-1l1,-2v-1l-2,2h-1l1,-1v-1h1v-1h-1v-1h-1v1h-2v-2h-1v-1l-1,-1v-1h1v-1h1h-2v-2h1l1,-1v-1l1,-1h1l1,1h2v-1h-1h1v-1h1l1,-1h1h-1l-1,1h-1v1h2v-1v1h-1v14l1,1l-1,1v1h-1ZM377,116h1v-1h-1ZM381,123v-1l-1,1h-1l1,1v-1ZM370,63v1h-2v-1h-5l-1,1h1v1h-3v1h-2l-1,1h-1l-1,1h-2l-1,1h-5v1l-1,1h-9v-1h-2v-1h1v1h1v-1h3v1v-1h2v-1h1l1,-1h4v-1h-1h1h-1h1v-1h-1h1v-1h-1v-1h1h-1h1l1,1h1v1h1v-1v2h5l1,-1h2l1,-1h1l1,-1h7ZM358,66h-1l-1,1h-3v1h-1h2l1,-1h1l1,-1ZM491,164v1h-1l-2,1l-1,1h1v1h1h-1l-1,1h1v2h-2l-1,1h-15l-1,1h-3v-1h-1l2,-2h1l1,-1h2l1,-1h7v-1h1l-1,1h4l1,-1h-1l-1,-1l-1,1h-1h1v-1h2v1v-1h1l-1,1l1,-1h3l2,-1h1v-1ZM485,167v-1l-1,1ZM488,168v-1ZM488,166h-2v1h1v-1ZM489,166h-1ZM362,48h1h-1v1h-2l-1,1h-1h1l-1,1h-2v-1h-2v1h-2v1h-2l-1,1h-3l-1,1h-1l1,-1h2l2,-1h1l1,-1h-3l-1,1h-1l-1,1h-3l-1,-1h3v-1h2l1,-1h1v-1h3v-1h-3v1h-1v-1l-1,1v-1h-2v1h-1h1h-1v-1h3l2,-1h7v-1h6l-1,1h-3v1h-1h6l1,-1h1l-1,1ZM444,179h-1h1v-1h1v-1h1v-1h1v1h1v1l-1,1l-2,-1h-1ZM757,72h1v1h2v1h1h-1h1v1h1h-1h1h-1l-1,-1h-1v-1h-1l-1,-1h1v1l-2,-2h-1l-1,-1h1v1h1ZM451,292v1h-1v1h-1v-1h-1v-1h-1l1,-1h1v-1h1l1,1ZM411,422v2h-3l-1,-1h-2v-1h-2v-1l-1,-1v-5h2v1h1v1h1l4,4ZM541,659h-1l1,-1v-1h-2l-1,-1h-1v1v-1h-1v-2h1l1,1v-1l-1,-1v-1h1v-1h1v1h1l2,2h1v1h1v2h2v1h-1l1,1h2v1h-2v1h-1v1h-1l-1,-1h1v-2h1l-1,-1h-1v1h-1ZM373,111v1h-1v-1h-1l-1,1v-1h-2v-1h-1v-1h3v-1l1,-1h-1h1v-1h1v-1h1v1h1h-2v1h-1h3v-1v1h-1v1h-2l-1,1h1v2l1,-1h1ZM269,184v1h-1l-1,1h-1v-1h1h-1v-5h1v1h1v1h1v-1v1h1h-1v1ZM268,185v-1ZM437,156h-2v1h-1v1h1h-1l-1,1h-1v2l-1,1v-1v1h-1l1,-1v-1h-1v1h-2v1h-1v1h-1v2l-2,2v2l-1,1l1,1v6l-3,3v1h-1l-1,1l-2,1h-2v-1h-1v-10l1,-1v-1h1v-2l1,-1v-1h1v-1l1,-1v-1h1v-1h-2l-1,1h-1v1v-2h1v-1h2v-1l1,-1v-1h1l1,-1v-1h1v-1h1h-1v1h2v-1h1v1h-1v1l1,-1h1v-1h4l1,-1h3l1,1h1ZM432,156l-1,1h1ZM428,160h1ZM423,158v1h1v-1ZM422,159v1h-1l-1,1v1l2,-2v-1h1Z"/>
<path class="sw" d="M439,151h1h-1v1h-1v-1l-1,1v-1h-1v-1h1h-8l-1,1h-1l-1,1v-1h-4v-1l-1,-1h-3v-1l-1,1h-1l1,-1h-1v-1h-1l-1,1h-1l-1,1h-4l-1,1h-2l-1,1v-1h-2v-1h1v-1h-1l-1,1h-2l-2,1h-1l-1,-1h1l4,-2l3,-2l1,-1h2l2,-1h1l1,-1h2l1,-1h1v-1l1,-1l2,-1v1l-1,1h1v-1h1v-1h1v-1h1v1l-2,1h2v-1h1v-2h3v1h6v1l1,-1v3h1v1l1,1h1l1,1l1,-1h3v1h-1v1h-1v1h2v2h-1l1,1h-1l1,1h1h-1v1h1h-1v2ZM403,148h1ZM404,149h-1ZM404,148h1h-1v1ZM422,137h-1l1,1v-1h1ZM415,142h3v-1h-1l-3,1v1h1ZM421,146v-1h-2l-1,1h-2v1h1v1l1,-1l2,-1ZM424,137h-1ZM434,144v-1h-1l-1,1h1ZM440,151h1v1h2v1h6l1,1l2,-1v1h4v1h5v1h1v1h1v2h1v1h1h-1l1,1h1v1h1v1h-1v-1h-2v1h1v1h-3l-1,-1h-2v1v-2h-1v1v-1h1v-1l-1,1v-1h-1v-2h-2v1h1v1h1l-1,1h1v2h-1v1h-1l-1,1v2l-1,2v2h-1l-1,1h-1l-1,1h-1v-6h-1v-1h-3v1h-1v1h-1l-1,1h-1v-3h2v-1h1l1,-1v-4h1v-1h-1v-1h-1l-1,-1h-2v-1h-2v-1h-1v-2h1v1h4v-1h-1v-1h-1h1v-1h-1ZM445,155h-1h2ZM444,154h-1v1l-1,-1v1h2ZM443,154v-1h-2l1,1ZM441,152v-1l-1,1ZM439,156h-1ZM448,156h2l1,1h3v1l2,-2h-1v-1v1h-1v-1h-4v1h-1v-1v1v-1h-1h1h-3ZM455,158h-1ZM464,162h-1ZM323,303l-2,2l-2,5v2l-1,3v-2l1,-1v-2h-1v-1h1v1l1,-1v-5l1,-1h1v-1ZM375,84h-1v1h-2v1h-1v1h-1h1v-1h-1l-1,1l1,-1h-1h1v-1h1v-1h2v-1h2ZM353,80h-3l-1,1h-2v1h-2v1v-1h-1v1v-2h1h-1h2l2,-1h1l2,-1h1v-1h4v1l1,-1h2l1,1h6v1l-3,-1h-4l-1,1h-4ZM508,124h-1v1h-2v1v-1h1v-1l-3,3v2h-1v1h-1l1,-1h1h-1v-1l1,-1h-1v1h-1l1,-2v-1l2,-1l1,-1h1l1,-1v1h1v-1v1h-1v1l1,-1h1ZM799,105l2,2h-1v-1h-1l-2,-2h-1v-1l1,1h1v1ZM800,106l-1,-1v1h1v1h1v-1ZM390,133v1h-1v-1h-2v1h2v1h-1l-2,1h-4l1,-1v-1h2v-1h1v-1h1h-1l-1,1h-1l1,-1h1l1,-1h1v-1h1v2ZM386,134v1h1v-1ZM424,130h-1v2h-1v1h-1v1l-1,-1h-1v-1h1h-1v1h-1v-1v1v-2h1v-1l1,-1v-1h1v1h1v-1l1,1v1ZM421,130h-1v1v-1ZM378,86v1l-1,1h-2l-1,1h1v1h-1v1h-1l-1,1h-1l-1,1h-2v1h-2v-1h1l1,-1v-1v1l-1,1h1l1,-1h1l1,-1v-2l1,-1h1v-1h1l2,-1l1,-1v1h1h-1v1ZM491,173h-2v-1l1,1ZM252,70v1h-2l-1,1h-1l1,-1l2,-1ZM237,79h-1l-1,1v-1h1l2,-2v1h-1ZM222,196v1h-1l1,-1v-1h1ZM413,167v1h-1v-2h1ZM510,50v-1h1v-1h-1h2l1,1h3v1h1h-1h2l-1,1h-5l-1,1v-2ZM396,62h1v-1h4l-1,1h-2v2h-1l-1,1v-1h-1v1v-1h-1v-1l1,-1ZM424,59h1h-5l-1,-1h5ZM506,167v1h-1v-2h1v-1l-1,-2h1v-1l1,-1v3h-1h1v1h-1v1Z"/>
<path class="sw" d="M224,239l-1,1l-1,-2v-1h1l1,1ZM346,61h-2v-1h-1h1l1,-1h1v1ZM509,845v-2h2v1h-1ZM513,140l-1,-1h-1v-1h3l1,1h-1v1ZM482,177l-1,1ZM483,178v-1ZM486,177v1l-2,-2v-1l1,1v1ZM983,414v1l-1,-1v-1ZM359,87v1h-1l-1,1h-3v-1h1l2,-1h1ZM403,63h1l1,-1v1h-1h1l-1,1h-2ZM383,75h1v-1l1,-1v3h-1v1h-1l1,-1l-1,-1h-1ZM380,265v1h-1v-1l1,-1ZM502,97h-2v1v-1h-2l-1,-1h1v-1l1,1h2v1ZM463,153h4l1,-1l1,1v1h-1l-1,-1h-1v1v-1h-2ZM489,96h1v-1h1h-1l1,1h1l-1,1l-1,-1ZM590,773h-3l-1,1v-1h-1l-1,-1h2v-1h4v1ZM491,110v-1h1l2,-1h1v1l2,-1h1v1h-3v1h3l1,-1v1h-6v1h-2v-1h1ZM491,109v1h-2l-2,1h-2v-1h-2v-1h4v-1h1h-1v-1l1,1v-1l1,1v-1h-1h2v1h-1v1h1ZM236,79h-1l-1,1h-1h1l1,-1ZM523,361h-2l1,-1v1ZM301,43v-1h1h-1ZM338,74h-1v1l-1,-1h-1h3v-1ZM488,112h-1v1h-1v-1h1h-1l1,-1h-1h2ZM513,897h-5l-1,1h1v1h-1v-1h-1v-1h1h-1v-1h1v1h3l2,-1ZM369,76h-1v1h-1v-1h1l1,-1h1h-1ZM502,9l5,-1h-2l-2,1ZM421,113h3l-1,1h-2ZM841,140l-1,1l1,1v-1l-1,-1ZM767,97h2v1l-1,-1ZM759,73h1v1h2v1h1v1h1l1,1h1v1l-2,-2l-2,-1l-2,-2ZM290,163v-1h-1h1v-1h1l-1,1ZM337,30h-1h2ZM285,140l1,-1v1l-1,1h-1h1v-1h-1ZM243,220v-1l-1,-1l-1,1h-1v-1h-2v1l-1,-1h2l2,-2v-1h1l-1,1v1h-1v1l1,1v-1h1v-1l1,1v1ZM341,82v1h-2v-1h1h-1h1v-1h2v1ZM557,107h-1l1,1h-5l-2,-1h-1v1h-1l-1,1h-1h1v1l1,1h-1l-2,-1h1v-2h-1l-1,-1h-1l-2,-2h-1v1l1,1h-1v-1h-1v-3h-1h1v-1h-1h2v1h-1h1h-1l3,3h1v1h2v1l1,-1l1,1v-1h1l-2,-2h-1v-1h1v1l2,2h3v-1h-1v-1h1v1h2v1h3ZM379,384h-1v2h-3v-1h2l2,-2ZM725,54h-1h2v1h1l1,1v-1h-2v-1ZM408,124h3v-1h2l-1,1h-3ZM499,140h-2v-1h-1v1h-1v1v-2h1h-1v1h-1v-1h1v-1h3l1,1h1v1h1h-2v-1ZM755,70l1,1h-1ZM506,102l1,-1h3v1h-2l-1,1h-3v-1h1ZM666,477l-1,1l1,1h-2v1h-2v-2h1v-2h3ZM691,38h-1l-1,-1h1l1,1h1ZM842,136h1h-1v-1h-1v-1h-1h1l1,1ZM481,175v1h-1h1ZM486,176v-1ZM487,176v-1h-1v-1l1,1ZM253,66h-1v1h-1h1v-1ZM277,178h-1v1v-2h1ZM268,190h-1v1v-1l1,-1ZM345,45h1l-1,1ZM384,147h-2v-1h2ZM410,136h-1v1h-1l-1,-1h2ZM492,149v1h-2v-1h1ZM514,838v1h-2v-1h1ZM320,72h-1h1l1,-1h1h-1v1ZM511,895l-1,-1h-2l-1,-1h3l2,1v1ZM722,53h-1v-1v1h2v1v-1ZM558,166h-1ZM550,155l-1,1v-1h1v-1h1ZM233,176l-2,2v-1l2,-2ZM228,191v-2l1,-1v1h-1v1ZM216,210v1ZM369,40h1l-1,1h-1h1ZM524,134v-1h-1v-1l-1,1v1h-1v-1v1h-1v-1l-1,1v-1h2l1,-1h1h-1v-1h1v1h1v1h1l1,1h-1v-1h-1Z"/>
<path class="sw" d="M597,134v1h-1l-1,1v1l-1,1h-1l3,-3v-1ZM348,44h-1h1v-1h1v1ZM349,44h-1v1h-1v-1h1ZM352,53h1v-1h1v1h-1v1h-1h1h-1ZM418,109v-1h3v1h1h-3ZM398,123v1v-1h-1v-1h2v1ZM399,109h-1l-1,-1h-1v-1h2l-1,1h2ZM520,113v2h1h-1v-1v1h-1v-1h-1l1,-1h-1h1ZM357,100h-2v1h-2v-1l1,-1h2ZM386,152v1h-1v-1ZM519,170v1v-1h-1v-1ZM468,166h-1v-1h1v-2h1v1h1v1h-1ZM403,103h1h-1v1h-4v1h-1v-1h2v-1h2ZM245,168h-1h1v-1h1v1ZM602,140h-1v1v-1ZM397,98v1h-1h1ZM290,46v1h-1ZM259,63h-1h1v-1ZM245,72l1,-1v1ZM251,69h-1h1v-1v1v-1ZM252,67h1ZM248,70l-1,1v-1ZM394,139h-1h2v-1h-3v-1h-1h1v-1h1v1h1h-1v1h1v-1v1h1v-1v1h1v1h1v1h-1v-1h-1ZM292,93h-5v1l-1,1v2h-1v1v-1l1,-1v-3h1h-1h1v-2l1,-2h1l-1,1v1l-1,1h1h-1v1h6ZM397,96h-1h1h-2l1,-1h1ZM322,143h-1h1v-2h-1v1h-6l-1,1h-1v1v-1h-1v-1h1v1h1v-1h6v-1h1v-1h2l-1,1v1ZM342,143h-1h1v-1h-1v-2h-3l-1,1v-1h-1v1l-1,-1h7v1h-1v1h1v-1h1v1l-1,1h5v1h-4ZM286,75v-1l2,-2v-1h1h-1v2h-1v1h-1ZM275,131v-2l1,-1h1l-2,2ZM277,138h-1v1h-1l1,-1h1v-1h-1h1ZM260,139h-1l1,-1h-1v-1l1,1ZM367,80h-1v1h-1h1l1,-1l2,-1v1h1h-2ZM279,60v1v-1h1ZM382,141l1,1h-3l1,-1ZM382,141l1,-1h2l-1,1h-1ZM407,65h-1h1v-1h-1h4v-1v1h-1v2h1v-1v1h-1l-1,-1v1h-1ZM514,57h-5v-1h-1h1v1h1v-1h-1h1v-1l-1,-1h1v1h3v1h1v1h1h-1h1v1l-1,-1h-1ZM305,270h-2v-1h1v1l1,-1v1v-1ZM487,148h1h-1l-1,-1v-1h-1v-1h1l1,-1v1h-1h1v1h1h-1v1ZM277,344v1h-2v-1h-2l1,-1h2v1ZM400,413v1h-2v-1h-2v-1h2v-1l1,1ZM656,726l-1,1v1h1h-2l1,1l-1,1h1v1h-1v1h-2v-1l1,-1v-1h-1h1v-1h-1h1l1,-1v-1h1v-2h1v-1l-1,-1h1v-1v3ZM454,441h-3v1v-1v1h-1l1,-1v-1h1v-1h1v1h-1h1v1ZM836,133h-1v-1h-1h1v1ZM979,447v1h-1h1v2h-1v-2h-1v-1h-1v-1l1,1v-1v1v-1v1h1v1v-7h-1v-1v1v-2h-1v1v-2h1l-1,-1v-2h-1v1v-2l-1,-1v-2h-1v1v-2h-1v1v-1h1v-3h-1h1v3l1,1v-1v3h1v1h1v2l1,1v1v-5l-1,-1v-1v1h1v6h1v7ZM978,447v-1v2ZM656,785l-2,2h-2l-2,2h-1v2l-1,1v-3l1,-1h1v-1h1v-1h1v-1h1l1,-1h1v-2h1v2ZM372,127v1h-3v-5h1v-1h-1v-2h-1v-1h1v1h1v-1v1h1v-1v3l-1,1v1h1l1,1v1ZM367,120h-1v-1h1v-1l-1,1v-3h1l1,-1v-2h-1h1l-1,1v-2h-1v1h-2l1,-1v-1h3l1,1h1v1h1h-1v2h-1l-1,1v2h-1v1l1,-1v1h-1ZM533,122v1l-2,2v1v-1l-2,-2h-1v-2h-1h1v-1v1h1v-1l1,1l1,-1v-1l1,1h-1l1,1h1v-1v1ZM531,122h1v-1h-3l-1,1l1,1h1v1h1v-1h1Z"/>
<path class="sw" d="M345,93h-1v-1h1h-1v-1h1v1h1l-1,1h1v1h-1v1h-1v1h-2l-1,1v1l-1,-1h1v-1h-1v-1h2v1h1v-1h1v-1h1h-1v-1ZM519,877h-3l-1,-1l-1,1h-2l-2,1l-1,1h-1h1v-1h1v-1l-1,-1h1v1h1l1,-1h3v-1h1v1h2ZM243,220v-1l-1,-1l-1,1h-1v-1h-2v1l-1,-1h2l2,-2v-1h1l-1,1v1h-1v1l1,1v-1h1v-1l1,1v1ZM268,206l-5,5h1h-1l-1,1h-3v1l-1,-1h2v-1l1,1v-1h2v-1h1v-1h1v-1h1l1,-1v-1ZM391,89h1h-1v1h-1v1h-2l-1,1h-4v1h-1v-1h2v-1h4v-1h1v-1h1v-1h1ZM772,597v2h-2v2h-2l-1,1h-4v1l-1,1l2,2h-1v-1h-3l1,3v3l-1,1v-1l1,-2v-1h-1v-1l-1,1l-1,2l-1,1v3h-1v1h-1v-1l-1,-1v1v-2h1v-1l1,-1h-1v-1h1v1h1v-1l-1,-1h2v-2l1,1v-2l-2,-1v-1h1v1v-1v1h1v-1h1v1h1v-3h1v-1h7v-2h1v-1h1v-2h1l-1,1ZM756,612l1,-1h-1v1h-1h1v1h-1h1v1v-1ZM466,137h2v1h1l1,-1v1h2l-1,1h1l-1,1v-2h-1v1h-1v-1h-3ZM322,143h-1h1v-2h-1v1h-6l-1,1h-1v1v-1h-1v-1h1v1h1v-1h6v-1h1v-1h2l-1,1v1ZM345,160h-1v1h-2v1h1v1h-1v-2h-1h1v-1h1v1l2,-2v-1h1l-1,-1h-1h2v-1h-1v-1v1h1v-1h1l-1,-1v-2h1v-2h1l-1,-1h1v2l-1,1v3l-1,1v3h-1ZM286,75v-1l2,-2v-1h1h-1v2h-1v1h-1ZM275,131v-2l1,-1h1l-2,2ZM979,447v1h-1h1v2h-1v-2h-1v-1h-1v-1l1,1v-1v1v-1v1h1v1v-7h-1v-1v1v-2h-1v1v-2h1l-1,-1v-2h-1v1v-2l-1,-1v-2h-1v1v-2h-1v1v-1h1v-3h-1h1v3l1,1v-1v3h1v1h1v2l1,1v1v-5l-1,-1v-1v1h1v6h1v7ZM978,447v-1v2ZM704,44v-1h-1h1ZM704,44h2v1l-1,-1ZM721,52h-1v-1h-1h1h-2v-1h-2l-1,-1h-1h1l1,1h1h-1h2l2,2ZM713,49v-1v1h1ZM379,58h-2v1l-1,-1h-1h2v-1h2l-1,1ZM379,58h2v1h-2v-1v1ZM347,170h1v1h1v1h1h-2v-1l-1,-1v-1l-1,-1h1v-1l1,-1v1h-1v2ZM312,292h1h-1v1h-1v-3h1v1ZM343,99v-2l1,1v-1h1v-1h1l-1,1h-1v1ZM379,74h-1l-1,1v-1h1l-1,-1l1,-1h-1h1v-1h1v1h-1h1v1h-1h1l1,-1h1l-1,1h-1h1ZM424,55l-1,1h-1v-1h3ZM525,107l1,1h-2l-1,-1h-1v-1h1h-1h1l1,1h-1h1ZM529,109v1h-1v1h-1l1,-1v-2h-1h1ZM521,105h-1v1h-1v-1l1,1v-1h2v-1l1,1h-1ZM405,218v4l-1,1v-1l1,-1l-1,-1v-5ZM441,238h1l1,1v1h-2l1,-1h-1v-1h-1v-1h1ZM287,114v1h-1v-2l1,-1v-1v2ZM444,273v-1l1,1v1ZM235,230l1,1l-1,1v-1ZM219,183v1h1h-1ZM367,52h-1h1v-1h1h-1v1h2v1h1v1v-1h-3ZM228,172v1l-1,1v-2ZM243,168h1v1h-1ZM540,157h1h-1l-1,-1h1ZM707,557l-1,-1h1v-2l1,-1v-1v1l1,1v2h1v2l1,1l-1,1h1v1h-1l1,2v1h2v1h-2l-1,-1v-2l-1,-1v-1l-2,-2h1v-1ZM732,678h-1v2l-1,-1h-1l-1,1l1,-1h1v-1h-1h1v-2l-1,1v-1h1v-1h-1v1h-1l1,-1h1v-2h1l-1,1v1h1v2h1Z"/>
<path class="sw" d="M682,692v-1h2v-1h1v-1l1,-2v1h1l2,-1l-1,1h-1v1h-1v2h-2v1l1,1h-1l-1,-1ZM511,841h1ZM534,870l1,1h-2v-1ZM288,65v1h-2v1v-1h1ZM243,75h-1v1v-1h1v-1ZM255,68h1l1,-1h1h-1l-1,1l-2,1ZM258,69l1,-1v1h-1l-1,1ZM257,64h-1h1l1,-1ZM262,61h-1h1l1,-1ZM270,56v1l1,-1ZM405,231h3l2,1v1l-3,-2h-1ZM735,60h-1v-1ZM733,59l-1,-1h-1h1l1,1h1l1,1l-1,-1ZM487,122h1v1h-2v-1ZM408,123v1h-1v-1h-1h1ZM406,119l1,-1v1ZM476,124h-1ZM475,145h-1l-1,-1h2ZM483,145h1v1h-2v-1ZM381,56v-1h1v1ZM381,56h-1ZM378,56v-1h1v1ZM377,56v-1h1h-1ZM487,34h1h-2ZM413,37h-1h2ZM422,46l-1,1v-1ZM393,100h1ZM364,103l1,-1v1l-1,1h-1ZM347,105l2,-2v1l-1,1h-1v1ZM517,110v1h1h-1l-1,-1ZM570,115l2,1v1v-1h-2l-1,-1h-1h1ZM369,55v-1l1,1ZM446,140h-1h2v-1v1ZM348,96h1ZM350,97h1ZM391,64v1h-1v1v-1h1ZM383,70l1,-1h1h-1v1ZM372,83v-1h1v1ZM525,95v1l2,1l-2,-1v-1h-1v-1h1ZM450,49l-1,1v-1ZM452,49h1h-2Z"/>
<path class="sb" d="M866,204l-2,-2v-2l-1,-1v-2h-1l-2,-1v-1l-1,-1v-2l-1,-1h-1l-1,-2h-1v-1l-1,-1h1l-1,-1v-1l-1,-1h-1v-2h-1v-1l-3,-3v-2l-1,-1v-1h-1l-1,-1v-1h-2v1h-1v-1l-1,1h-1v-1l-1,-1h-1v1M858,166v1l-1,-1M860,166v1h-2v-1h-1v-1v1l-1,-1h-1v-1h-1l1,1h-3l-2,-2h-1l-1,-1h-1v-1h-1M821,123l-1,-1v1v-1M816,119h1v1l2,2h1h-2v-1h-1l-2,-2v1h1h-1l-1,-1h-1v-1h-1l-1,-1h-1l-1,-1h-1l-2,-2M812,115h-1l-2,-2h-1v-1v1l-1,-1h-1v-1v1M834,133h-1v-1l-1,-1h-1v-1h-1v-1l-2,-2h-1l-1,-2h-1l-1,-1h-1h1h-1l-1,-1h-1v-1v1l-1,-1v-1h-2v-1h-1v-1h-1l-3,-3h-1v-1l-1,-1h-1l-3,-3h-1v-1h-1v-1h-1h1l-1,-1h-1v-1h-1v-1h-1l-3,-3l-2,-1v-1M844,143h-1v-1h-1l-1,-1v-1h-1v1h1v1h1h-1v-1h-1v-1h-1v-1h-1v-1l-4,-4h1h-1v-2h-1h2v1h1M839,136h-1v-1h-1M840,137v-1v1v-1h-1l-1,-1h-1v-1l-1,-1h-1h2v1h1h-1v-1h-1h1v-1h-1v-1v1v-1v1h1l-1,-1h-1v-1h-1v-1h-1v-1h-1v-1l-1,-1h-1v-1h-1M842,135h-1v-1h-1v-1h-1v-1h-1v-1h-1v-1h-1h1h-1v-1h-1l-1,-1M831,125h-1v-1h-1h1h-1l-1,-1l1,1h1h-1l1,1h1h-1l1,1l-1,-1h-1v-1h-1v-1h-1l-1,-1h-1v-1l-1,-1h-1l-2,-2h-1v-1h-1v-1v1h1h-1v-1h-1v-1h-1v-1h-1v-1h-1v-1h-1h1l1,1M836,129v1v-1h-1l-3,-3h-1v-1h-1l-1,-1v-1v1v-1h-1v-1h-1v-1h-1l-1,-1M822,117h-1v-1h-1l-1,-1h1h-1l1,1h1v1v-1h-1l-1,-1h-1v-1h-1v-1h-1l-1,-1v1h1h-1v-1l-1,-1h-1l-2,-2h-1v-1h-1v-1h-1v-1h-1l-1,-1h-1v-1h-1l-2,-2h-1v-1h-1l-3,-3h-1M857,157v-1l-1,-1v-1h-2v-1h-1v-1h-1v-1h-1v-1h-1v-1h-1l-1,-1h1h-1v-1h-1v-1h-1v-1h-1v-1h-1v-1h1h-1v-1h-1v-1l-1,-1l1,1h1v1h1v1h1h-1v-1h-1v-1l-1,-1h1h-1h1v1v-1h-1v-1h-1v-1v1v-1l-1,-1h-1h1l-1,-1v-1v1h1l1,1h1v1h1M850,144v-1h-1l-3,-3h-1v-1h-1v-1h1h-1v-1h-1v-1h-1v-1v1h1v1h1M850,144l1,1v-1h-1v-1h-1h1v1h1h-1h1h-1v-1h-1v-1h-1v-1h-1v-1h-1v-1h-1v-1h-1v-1l3,3v1h1M866,159h-1l-1,-1v-1h-1v-1h-1v-1l-5,-5h-1v-1l-1,-1h-1v-1l-2,-1v-1l1,1v1v-1l-1,-1h1v1l-1,-1l1,1v-1h-1M429,437h-2l-1,1v3l1,1h1l-1,1h-1v2l1,1h-1l-1,1v1h1v2M420,425v1l-1,1h-1l-2,-1l-1,-1h-1l-1,-1h-2l-1,1l-3,-1l-1,-1h-3v1M426,390h-4v1h-1l-1,1h-4v1h-3l-1,-1h-2v2h-1v1h-1l1,1h-1l-2,2h-1l-1,1v1h-1l-2,-2l-3,3l-2,-1h-1v5h-1l-1,1v1h-3M384,384l-2,2l-2,1l-1,1h-1v1h-2v4l-1,1h-1v1M379,382h-3v-2l1,-3v-7l1,-2v-2M368,400v-1l1,-1h2v-1l1,-1h1l-1,-1h5v1l2,2h2v2l1,-1h1l1,-1v1h3v4l-1,1"/>
<path class="sb" d="M385,360h-1l-1,1v1l-2,2v1h-1l-1,-1l-1,1v1h-15v4h-3v1l3,3h1l1,1v2h1l1,1l-1,1v1h-10l-1,2l-1,1l-2,4l1,2h-1v3l-1,1M325,298h-1v1h-1l-2,-2h-3l-1,-1h-2v-1h-1l-1,-1h-1v-3l-1,-2v-4l-2,-2v-2l-1,-1h-1v-3l-1,-2v-3l-1,-1h-1v-1l-2,-2h-1v-1v1h-1l-2,-1h-2l-1,1h-2l-1,2l-1,1v1h-1l-1,1h-2l-2,-2h-1l-3,-3v-8h-1l-2,-2l-1,-2l-3,-3v-1h-3l-1,-1h-7v1l-1,1v2h-7l-2,-1h-9l-4,-2l-3,-1l-2,-2l-7,-3l-2,-1v-1l1,-1h-5l-2,1h-7M497,161h-1l-1,1l-4,2v1h-2l-1,1l-2,1v1l-2,2h-13l-1,1h-1l1,1v2l1,1h-1l-1,1h-2l-4,2h-1l-3,1h-4l-2,1l-1,1h-2l-1,1l-2,1h-1l-2,-1h-1v-3h1v-1h1l1,-1h1l1,-1v-2l1,-2l2,-2l-1,-1v-10l-2,-1h-1l-2,-2h-1l1,-1v-1h-4v-3h-2v1l-2,-2v-1l-1,-1h-1l-1,-1h-1l-1,-1h-1l-1,-1h-1l-1,-1h-1l-2,-1l-1,-1h-2l-1,-1h-1l-1,-1h-1l-2,1h-1l-1,1h-4l-1,-1h-10v-1h-2l-2,-2h-7l-1,-1h-2v-3h1h-1v-1h-1v1l-1,1h-49l-3,-1h-34l-2,-1h-25l-2,-1h-14M340,34l-8,4l-3,1l-10,5l-3,1l-4,2l-2,2l-8,4l-3,1l-4,2l-2,2l-8,4l-2,2l-6,3l-2,2l-3,1h1v1l1,-1h2l-1,1h-1v1l-1,1v1h-1v1h-1v1l-1,1h1v-1h2l1,-1h2v-1h2l1,-1h1l-1,1v1h-1l-1,1v1h-1v2l-2,2v1h-1v1l-2,2v1h-2l1,1h-1v1l-1,1v1h1v2l-1,1M624,768v1l-1,1h-1v3l-1,1v1l-1,1v1l-1,1h1v1h-1v1h-1v4l-1,1M652,733l-1,3v3l-2,2h-1v1h-1v1h-1v1h-2v1h-1v1l-1,1h-2l-1,-1l-1,1h-1l-1,1h-3v-1h-1l-1,1l-2,-1h-3l-3,-1l-3,1v-2h1v-1h1v-1h1v-1h1v-3h1v-1l1,-1h1v-1l1,-1v-1h1v-1h1v-2l-2,-1l-1,-1h-3v-1h-1l-1,-1l-3,-1l-2,-1v-1l-1,-1l-4,-2h-3l-3,-1l-2,-2l-2,-1v-1h-2l-1,-1v-1l-1,-1l-1,-3l-1,-1l-2,-1h-1M557,712l1,2v2l-2,3v2h-1v1l-4,2h-1l-2,1l-1,1h-1v1l-1,1l1,1v1h1l-1,1h-1v4l1,3l-1,1v3l1,1v2l-1,1h-3v1l-1,1v1l-1,2l-2,2v1h-1v1l-2,2v1l-1,2v1h-1v1h-1l1,2v4l1,1h-1v1h-2v1l-1,1v3h-1v1h-1v4l1,1h1v1h-1v2h1v2l1,2v3h2v1h-1v6h-1l-1,1v1h-1v2l-1,1v1l-1,1v1l1,1v2h-1v2h-1v1h-1v1h-2v1l-1,1v10l1,1v1h1l-2,2h-2v1h-1l1,2h-1v2h-2v1l1,1v1h-1v3h-1v9l1,1h-2l-1,1v5h1l1,1v1h-1l1,1v4h-1v1h4l1,1h-1v1h-5v1h1l2,1l1,1v1h-1v1h-1l-1,1v1h1v1h-1v2l1,1l-1,1h-1v2l-3,3v1h-1v1h1v1h1l-1,1h-1v2l-1,1h-2v2h-2v1h-1v1l1,1h-1v1l1,1v1h1v2h1v-1h4v5h-1h1v1h1l1,1h10l2,1h5v1h1M630,691l1,-2v-1l-3,-2l-4,-2h-8l-3,1h-4l-1,1h-4l-2,1v1l-1,2l-2,2l-2,4v2l-1,3l-1,2l-1,3v1l-1,1v-1l-1,-1h-9l-1,3l-2,2v1h-1v-3l-2,-2h-8l-2,-2h-1v-1h-1v1l-1,1v1h-1l-1,1h-1v1h-1l-1,1h-1v1l-2,2h-4v-1h-1l1,-1v-1l-1,-1v-3h-1v-2l-1,-1v-1l1,-2l-3,-3v-2l-1,-1h-1v-1h1v-1h-1l1,-1h-1l1,-1h1v-1l-1,-1l1,-2h1v-1h-1v-1h-1v-1h-1l-1,-1v-3l-1,-1v-4l-1,-1h-1v-1l-1,-1v-1"/>
<path class="sb" d="M540,615l1,2l1,1l1,2l1,1l1,2l1,1l2,4h-1v2h-1v1h-1v6l-1,1l1,1v2h1v1l-1,1v1h-1l-1,1v1l-2,2v1h1l1,2l-1,1l-1,2v1l2,3v1h2l1,1h-1l-1,1v2h-1v1h-1l-1,1v1h-1l-1,1v1l1,1v1h-1l-1,1h-1v3l-2,2h-3v1M491,521v1h-1l-1,-1h-1v1h1l1,1v1l1,1h1v1h-1v1l1,2h-1l-1,-1v2l-1,2v2h-1l-1,1l-1,2l-5,5l-2,1h-1l-3,1l-2,1h-1l-1,1h-2l-2,2v1h-1v1h-1l-1,2v2l-1,1v1l-1,1v3h-1l-1,1v2h-1v1l-1,-1h-2v-1h-1v-2l-1,-1h-2l-1,-1h-3v1h-2v-1h1v-1l-1,-1v-1h2v-1h1v-1h-1h1v-1l-1,-1v-1M617,474l-6,-6l1,-1v-1h1v-5h4v-1h1l1,-1h1v-2h-1l-1,1v-1h-1v-1l-1,-2h1v-1l1,-1h1v-1h1l1,-1h1v-1l1,-1h1v-1l-2,-2M653,502h-2v-1l-1,-1v-1h-1v-2h-1v-2h-1v-3h-1v-2h-3v-1l-2,-2v-1l-1,-1v-3l1,-1v-4l1,-1h3l1,-1v-1l-1,-1h1v-2M668,499h1v-1h1l1,-3h1v-4l1,-1v-3h-1v-1h-1v-1l-1,-1v-3h-1v-6l2,-2v-1M649,793h-1v-4h1l3,-3l-1,-1h-1l-1,-1v-3h-1l-1,-1h-1l-2,-2v-1h-2l-1,-1h-1v-1h-1v-1l-1,-1h-1l-1,1h-2l1,-1v-1h-1v-1l-2,-1l-1,-2l-1,-1h-2v1l-1,1h-3v-1h1l2,-2v-1h1l2,-1l1,-2l2,-2h1v-1l2,-2h1l1,-1v-1h1v-1h1v1v-1h1h-1v-1l2,-1h1v-1h2l1,-1h1v-2h2l1,-1h2l1,-1h1l1,-1h1v-1l1,-1v-3l1,-1v-2l-1,-1v-3h-5v-1l1,-2l1,-1v-2l2,-4v-2h1l-1,-1h-1l-1,-1l-1,1h-1l-1,1h-3v-3h-1v-1h1v-3h-1v-3h1v-1h-1v-2h-1l-1,-1h-2l-1,-1h-1v1h-8v-1h-3v-1h1v-4l1,-1v-5h-1v-4h-1l1,-1h1l1,-1l-2,-2l2,-2v-2l2,-2v-1h-1l1,-1l2,-4v-1l-1,-1l-1,-3v-1h-1l-2,-1l-1,-1v-5l1,-1v-2h-15v-7l-3,-3h3v-5l-1,-1v-5h-1l-2,-2h-8l-2,-2v-1h-2l-2,-1h-2v-1h-1l-1,-1v-1h-3l-2,-2h-1l-1,1h-3l-4,-4h-1l-1,-1v-1l-1,-1v1v-1l-1,-1v-1h-1v-3l1,-1v-1l-1,-1v-3l1,-1v-4l-1,-1h-1v1h-6l-1,1h-3l-3,3h-2v1h-1l-3,3l-1,-1h-1l-1,1l-1,2h-2v1h-3v-1h-11l-1,1h-2v-1h-2v-10h1v-3l-1,1h-1v1h-1v1h-1l-1,1h-1l-1,1h-7v-2l-1,-1v-1l-1,-1h-7l1,-1l1,-2v-2h-1l-1,-1v-1h-1v-1l-1,-1h-1v-3h-1v-2l-2,-2v-2h2v-1l-1,-1l1,-1v-1l3,-3h2v-2l-1,-1v-1l2,-2v-2h1v-4h1l1,-1h1l2,-2h1l2,-2h1l2,-1h4l2,-1l1,-1h3l1,-1v1h1v1h3v-1M565,510l3,3h1l1,1h1l1,-1h1l1,-1h2v2h1v-1h1l1,-1v-1l1,-1h1l1,-1h2v-1h1v-1h3v-1l1,-1v-2h2l1,-1h1l1,-1h1v-2h-5l-1,-1v-2l-2,-4v-4l-3,-2l-1,-1v-1l-1,-1h1l1,1h4v1h1v1h6l2,1v1l1,1h1l1,-1v-3h1l1,-1h4l4,-2l1,-1h1v-1l1,1h1v-1h1v-1h1l2,-2v-2h-1v-1h1l1,1l1,-1h2v1h1v4l-1,1h1l1,1h2v1h-1v1h1v2h1v1l-1,1v1h-2l1,2v1h-1v3l-1,2l1,1v2h1v1l1,1v2h-1h1v1l1,1h1l1,1v1l1,1h2l1,1h1l1,-1h1v-1h1v-1h3v-1h4v-1l1,-1h1v-1h2v1h5v-1v1h4l1,-1l-2,-2v-1l1,-1v-1l1,1h4l1,-1h3v1h2v1h1v1h3v1l1,-1h1v-1h5v1h3l3,-3v-1l1,-2v-1l1,-1v-1l1,-1v-1l1,-2l1,-1v-1h1v-1h1v-1"/>
<path class="sb" d="M903,276l-1,-2v-2l-1,-2l-1,-1v-1l-1,-1h1v-7h2v-2h1l1,-1v-3l-1,-1v-1h1v-5h-1v-1h-1v-1l-1,-1v-1h1v-3h3v-1l-1,-1v-1l-3,-3l-1,-2h-1v-1l-1,-2l-1,-1v-1h-1v-1l-1,-2l-1,-1h-1v-1l-1,-1v-1h-1l-1,-1v-1h-1M929,250l-1,-1l-1,-2v-1l-2,-2l-3,-6l-1,-1v-1h-1l-1,-1v-1l-4,-4v-1h-1v-1l-1,-2l-3,-3v-1l-1,-1v-1h-1v-2h-1v-1l-1,-1v-1l-1,-1v-1h-1l-1,-2v-1h-1v-1l-3,-3v-1h-1v-1l-1,-1v-1M957,302v-2l-1,-1l-1,-2v-1h-1v-1l-1,-1v1v-1l-1,-1v-1l-1,-2l-1,-1v-1l-2,-2l-2,-4v-1l-1,-1v-2l-1,-2l-1,-1l-6,-12l-2,-3v-1l-2,-2l-1,-2l-1,-1l-1,-2v-1l-1,-1v-1l-1,-1v-2l-2,-2l-1,-2l-1,-1v-2h-1v-2h-1v-2l-1,-1v-1h-1v-1l-1,-1v-1l-2,-2M892,328l1,-1h8v-8l-1,-2v-2l-1,-1v-3h-1v-3l1,-1v-1h1l-1,-1v-3l1,-1v-4l-1,-2v-2l-1,-1v-3h1l-1,-1v-5h-1v-1h1v-1h2v1h3v-2h2v-1l-1,-1v-1l-1,-1l2,2M893,333v-2l-1,-1v-1l1,-1h13l1,-1h1v-2l-1,-1v-1l-1,-1v-2l-1,-1v-2l-1,-1v-4l1,-1h1v-2l-1,-1v-1l-1,-1v-2l-1,-2v-1l-1,-1v-1l-1,-1v-2l-1,-1v-1l-1,-1v-1l-1,-2l1,-1h10v-1l-1,-2v-1l-2,-4l-1,-1v-2l5,5h1l8,8h1l4,4M927,382h1v-8l1,1l1,2l1,1h1v-2h3l1,-1v-2v2h4l1,-1h8v-3l-1,-2v-2l-2,-2v-2l-1,-2l-1,-3v-2l-2,-4v-2l-3,-6v-2l-3,-6v-2l-4,-8v-2l-6,-12v-2l-7,-14h3l1,-1h1l16,16l1,2l2,1l2,4l2,1l1,2l3,3v1h1v2l2,2v1l1,1h1v1l2,2h1v1l1,1v2h1v3h1v1v-1h1v-1M966,377v-1h1v-3h2l1,-1v-1l1,1v-6l-1,-1v-4l-1,-1v-2l-1,-3l-2,-4v-3l-2,-4l-1,-3v-2h1v-7l-1,-2v-4l-1,-1v-5l-1,-2v-3l-1,-3v-2l-2,-6l-1,-2l1,1h1v1l1,1v1l1,2v-1l-1,-2M985,382v-3l-1,-2v-1l-1,-1v-3l-1,-5l-1,-2l-2,-8l-1,-2l-2,-9l-1,-3l-2,-4l-3,-9v-1l-1,-2v-1l-1,-2v-1l-1,-1v-1l-2,-3v-2l-3,-6l-2,-5v-1l-1,-1v-1l1,2M907,374v-6h3l1,-1h4l2,2v1l1,1v-1l1,1h1v1l1,1v1l1,1v1h1v1l1,1v1h1v1h1v1h1v1l1,1v3h1v2l1,1v2l1,1v2h1v-1v1l1,1v1l1,1v4h1v1M911,393h5v-2h2l1,1h1v1h3v2l-1,1l-1,-1h-1l-1,-1h-1v-1h-1v1l-1,1h-1v2h-4v1M912,404h2v-1h2l2,-2h1l1,-1h5M922,415v-4h1v-1h1v-1h2v-4h-1v-1h1v-1l-1,-1v-2h3v1h1v1h2v1l1,-1h3v2l1,1v-1l1,-1v1l1,1v1v-1h1v-2h1v1h2v-2h1l-1,-1v-1h1v1h1v3l1,1v2h1v2h1v1h1h-1v3l1,-1v1l1,1v4l1,1h1v1M958,417v-10h-1v-4h1v-2h1v-1l-1,-1v-5l-1,-1h1v-2l2,2v-10l2,1l-1,-3h1v-1l1,-2v-2h2l1,1v3l1,1v1l1,1v2l1,1v1h1v2h1v4l2,2v1h1v-1l1,1v4l1,1v1M932,431h1v-2l1,-1v-4l1,-1l1,1v-1h1l1,-1h1v1l1,1v1l2,2v3h1v7h1v-2h1"/>
<path class="sb" d="M941,449h1v-3l1,-1v-2l1,-1v-4h1v-2l1,-1h1v1h1v4l1,1v3h1v2l1,-1v-4h1v2M958,470v-11l-1,-2h-1v-3l-1,-1h-1v-1h-1v-8l-1,-1v-1h1v-5h-1v-3h1l1,1v-2l-2,-2v-1h1v-1l-1,-1v-1l-1,-1v-4h-1v-1h1v-3h1v-1v1l1,1h1v1v-2h1v-2h-1v-1l1,1v-1h1v3l1,1v-2h2v1h1v1l1,1v2h1v1h1v-1l1,-1h2v1h1v2l1,1v-1M972,462v-4l-1,-1v-3l-1,-3v-18l-1,-3v-2h-1v-5l-1,-1v-5h-1v-4l-1,-2h4v-1l1,1v-1v1l1,-1v1v-2h1M981,452v-2h-1v-2l-1,-1v-6h-1v-8l-1,-1v-5l-1,-1v-3l-1,1v-8h-1v-1l-1,-1v-3l-1,-1v-1h1l1,1h1M982,451v-5l-1,-1v-7l-1,-3v-4l-1,-2v-3l-1,-2v-2l-1,-2v-3l-2,-2v-9h1v-7h-1l1,-1v-1l1,2l1,1v2l1,1M984,449v-7l-1,-2v-4l-1,-1v-7l-1,-2h1v-3l-1,-1v-3l1,-1l-1,-1v-6l-1,-1v-3l-1,-1v-4l-1,-1v-4l-1,-1v-5l-1,-3v-2l1,-1h1v-1v1h1l1,1v2l1,2v1h1v-3l1,2l1,1h1l-1,-3v-1h1v-1l1,1v1v-4l-1,-1v-1l1,2v2l1,2M994,461v-20l1,1v1v-8l-1,-1v-9l-1,-1v-6l-1,-1v-4l-1,-2v-5l-1,-2v-4l-1,-1v-4l-1,-1v-3l-1,-3v-1v3h1v2l1,2v4l1,1v4l1,1v4l1,1v6l1,1v5l1,1v4l1,2v5h1v2M999,473v-11l-1,-1v-8l-1,-4v-7l-1,-1v-7M997,482v1h1M997,493v1v-1h1v-12h1v1M997,536v-2l1,-1v1v-12h1v-1v1v-1v1v-2l1,-1v-30l-1,1v-8h1v-1v2M998,541v1v-1v2v-4l1,-1v-2M997,545v-3h1v-1v1l-1,2v7M997,552v-1M976,649h1v-1l1,-1l-1,1v2M678,33h2v1h1M677,32h-1h1l1,1h2l1,1h1l1,1h1h1l2,2v-1h-1h1l1,1l2,1h1l1,1h1l1,1h2l1,1l4,2h1l2,1h1v1h1l3,1l1,1l2,1h1l1,1h1l1,1h1l1,1h1h-1h1v1h1l1,1h2l1,1l2,1h1v1h1l1,1h1l2,1l2,2l2,1h2l1,1h1v1h2v1h1l2,2h2v1h2v1h1v1h2v1h1l1,1h1l1,1h1v1h1h-1v-1"/>
<circle class="w1" cx="440" cy="405" r="6"/>
<circle class="c1" cx="440" cy="405" r="5"/>
<circle class="w1" cx="437" cy="486" r="6"/>
<circle class="c1" cx="437" cy="486" r="5"/>
<circle class="w1" cx="437" cy="411" r="5"/>
<circle class="c1" cx="437" cy="411" r="4"/>
<circle class="w1" cx="451" cy="402" r="5"/>
<circle class="c1" cx="451" cy="402" r="4"/>
<path class="sg" d="M 250.3739 932.4393 A 249.7500 10.1774, 0, 0 0, 748.6261 932.4393"/>
<path class="sg" d="M 67.0402 749.4576 A 432.5797 17.6278, 0, 0 0, 931.9598 749.4576"/>
<path class="sg" d="M 0.0000 499.5000 A 499.5000 20.3548, 0, 0 0, 999.0000 499.5000"/>
<path class="sg" d="M 67.0402 249.5424 A 432.5797 17.6278, 0, 1 0, 931.9598 249.5424"/>
<path class="sg" d="M 250.3739 66.5607 A 249.7500 10.1774, 0, 1 0, 748.6261 66.5607"/>
<path class="sg" d="M 420.6429 992.7361 A 483.6226 499.5000, 9.08340700, 0 1, 578.3571 6.2639"/>
<path class="sg" d="M 478.6594 998.5650 A 357.1953 499.5000, 2.39124686, 0 1, 520.3406 0.4350"/>
<path class="sg" d="M 493.7787 998.9672 A 135.0578 499.5000, 0.65628646, 0 1, 505.2213 0.0328"/>
<path class="sg" d="M 504.6879 998.9731 A 123.2683 499.5000, -0.59509012, 0 0, 494.3121 0.0269"/>
<path class="sg" d="M 519.3473 998.6055 A 348.5648 499.5000, -2.27721208, 0 0, 479.6527 0.3945"/>
<path class="sg" d="M 571.1622 993.8327 A 480.4636 499.5000, -8.24857145, 0 0, 427.8378 5.1673"/>
<text x="0" y="0" class="fs" transform="translate(17,548) rotate(82)">150W</text>
<text x="0" y="0" class="ft" transform="translate(17,548) rotate(82)">150W</text>
<text x="0" y="0" class="fs" transform="translate(143,557) rotate(84)">120W</text>
<text x="0" y="0" class="ft" transform="translate(143,557) rotate(84)">120W</text>
<text x="0" y="0" class="fs" transform="translate(365,563) rotate(88)">90W</text>
<text x="0" y="0" class="ft" transform="translate(365,563) rotate(88)">90W</text>
<text x="0" y="0" class="fs" transform="translate(622,563) rotate(91)">60W</text>
<text x="0" y="0" class="ft" transform="translate(622,563) rotate(91)">60W</text>
<text x="0" y="0" class="fs" transform="translate(847,558) rotate(95)">30W</text>
<text x="0" y="0" class="ft" transform="translate(847,558) rotate(95)">30W</text>
<text x="0" y="0" class="fs" transform="translate(677,937) rotate(-3)">60S</text>
<text x="0" y="0" class="ft" transform="translate(677,937) rotate(-3)">60S</text>
<text x="0" y="0" class="fs" transform="translate(803,758) rotate(-2)">30S</text>
<text x="0" y="0" class="ft" transform="translate(803,758) rotate(-2)">30S</text>
<text x="0" y="0" class="fs" transform="translate(848,510) rotate(-3)">0N</text>
<text x="0" y="0" class="ft" transform="translate(848,510) rotate(-3)">0N</text>
<text x="0" y="0" class="fs" transform="translate(800,259) rotate(-2)">30N</text>
<text x="0" y="0" class="ft" transform="translate(800,259) rotate(-2)">30N</text>
<text x="0" y="0" class="fs" transform="translate(671,72) rotate(0)">60N</text>
<text x="0" y="0" class="ft" transform="translate(671,72) rotate(0)">60N</text>
<path class="tb" d="M127,998h-2l-1,-1h-2l-1,-1h-2l-1,-1h-2v-1h-3v-1h-2l-1,-1h-2v-1h-2l-1,-1h-2v-1h-2v-1h-2l-1,-1h-2v-1h-2v-1h-2v-1h-2v-1h-2v-1h-2v-1h-2v-1h-2v-1h-2v-1h-1l-1,-1h-1v-1h-2v-1h-2v-1h-1v-1h-2v-1h-1l-1,-1h-1v-1h-2v-1h-1v-1h-2v-1h-1v-1h-1l-1,-1h-1v-1h-1v-1h-1l-1,-1h-1v-1h-1v-1h-1v-1h-2v-1h-1v-1h-1v-1h-1v-1h-1l-2,-2h-1v-1h-1v-1h-1v-1h-1v-1h-1v-1h-1v-1h-1v-1h-1v-1h-1v-1h-1v-1h-1v-1h-1v-1h-1v-2h-1v-1h-1v-1h-1v-1h-1v-1l-1,-1v-1h-1v-1h-1v-1l-1,-1v-1h-1v-1l-1,-1v-1h-1v-1l-1,-1v-1h-1v-2h-1v-2h-1v-1l-1,-1v-1l-1,-1v-1l-1,-1v-2h-1v-2h-1v-3h-1v-2h-1v-4h-1v-3h-1v-5h-1v-6l-1,-1v-17h1v-7h1v-4l1,-1v-3h1v-3h1v-3h1v-2l1,-1v-2h1v-2h1v-2h1v-2h1v-2h1v-2h1v-2h1v-1h1v-2h1v-1h1v-2h1v-1h1v-1l1,-1v-1h1v-1h1v-1l1,-1v-1h1v-1h1v-1h1v-1h1v-1h1v-1h1v-2h1v-1h1v-1h1v-1h1v-1h1l3,-3h1v-1h1v-1h1v-1h1v-1h1v-1h1v-1h1l1,-1h1v-1h1v-1h1v-1h1l1,-1h1v-1h1v-1h2v-1h1v-1h1v-1h2v-1h1v-1h2v-1h1v-1h2v-1h1l1,-1h1v-1h2v-1h1l1,-1h1v-1h2v-1h2v-1h2v-1h1l1,-1h1l1,-1h1l1,-1h1l1,-1h1l1,-1h2v-1h2v-1h2v-1h2l1,-1h2v-1h2v-1h2l1,-1h2v-1h3v-1h2l1,-1h2v-1h3v-1h3v-1h159v1h3v1h3v1h2l1,1h2v1h3v1h2l1,1h2v1h2v1h2l1,1h2v1h2v1h2v1h2l1,1h1l1,1h1l1,1h1l1,1h1l1,1h1v1h2v1h2v1h2v1h1l1,1h1v1h2v1h1l1,1h1v1h2v1h1v1h2v1h1v1h2v1h1v1h1v1h2v1h1v1h1l1,1h1v1h1v1h1v1h1l1,1h1v1h1v1h1v1h1v1h1v1h1v1h1l3,3h1v1h1v1h1v1h1v1h1v2h1v1h1v1h1v1h1v1h1v1h1v1l1,1v1h1v1h1v1l1,1v1h1v1h1v2h1v1h1v2h1v1h1v2h1v2h1v2h1v2h1v2h1v2h1v2l1,1v2h1v3h1v3h1v3l1,1v4h1v7h1v17l-1,1v6h-1v5h-1v3h-1v4h-1v2h-1v3h-1v2h-1v2l-1,1v1l-1,1v1l-1,1v1h-1v2h-1v2h-1v1l-1,1v1h-1v1l-1,1v1h-1v1l-1,1v1h-1v1h-1v1l-1,1v1h-1v1h-1v1h-1v1h-1v2h-1v1h-1v1h-1v1h-1v1h-1v1h-1v1h-1v1h-1v1h-1v1h-1v1h-1v1h-1v1h-1l-2,2h-1v1h-1v1h-1v1h-1v1h-2v1h-1v1h-1v1h-1l-1,1h-1v1h-1v1h-1l-1,1h-1v1h-1v1h-2v1h-1v1h-2v1h-1l-1,1h-1v1h-2v1h-1v1h-2v1h-2v1h-1l-1,1h-1v1h-2v1h-2v1h-2v1h-2v1h-2v1h-2v1h-2v1h-2v1h-2l-1,1h-2v1h-2v1h-2l-1,1h-2v1h-2l-1,1h-2v1h-3v1h-2l-1,1h-2l-1,1h-2l-1,1h-2Z"/>
<path class="tl" d="M169,986h1v1h-3l-1,-1h2v-1ZM114,989h-3l-1,-1h2l1,1ZM176,983h1l1,1v1h1l-1,1h-2l-1,1h-1l-1,-1l1,-1v-2h1v-1ZM124,980h2v1h-1ZM122,980l1,1h-1l-1,-1ZM136,977h1h-2ZM156,974v1l1,1h-5v-1l1,-1v-1l-1,-1l1,-1v1h1l1,1ZM158,964v1h-2v2h1l-2,2v1h1l1,1h1l4,4v1l1,1v1h-1v2h-1l-1,1h-1v1h-2l1,1h1v1h-2l1,1h1v1h3l1,1h3l1,1h3l1,1h1l1,1v-1h1v-1h2l2,-1l1,1h1v-1h4v-1h3l1,-1h-1v-1h-4l-1,-1l1,-1h1l2,-2h4l1,-1h1l2,-2h-1v-1h1v-1h2v-1l1,-1h1v1h1v-1h8v-1h3v-1h1l1,1h2v-1h1v1l1,-1h4v1h6v-1h3v-1h2v1h3l1,-1h3v-1h2l1,-1h2l1,-1h4v1h1v1h1l1,1h1l1,-1l1,1h2v1l-2,2h-1v1h1h-1v1h-1v1h2l2,-2h1v-1h3l1,-1h1v-1h2l1,-1h5v-1h1v1h5v1h1l1,-1l1,1l1,-1h1l2,-1v1l1,1h3l1,-1h2v1h1v1h4l1,-1v1h9l1,-1l-1,1v1h-1h3l1,1h2l-1,1v1h1v1h2v1h1v2h2l1,1v1h-1l-1,1h-2l-1,1h-3l-1,1h-2l-1,1h-2l-2,2v1h-5l-1,1h-2v1h-1v3h2l-11,4h-155l-11,-4h-1h2l1,-1l1,1h14l-1,-1h-7v-1h-2v-1h-3l-1,-1h4v-1h-2l-1,-1h-7l-1,-1l-2,-1l1,1l1,-1l2,1v-1h1v-1l-1,-1h-1h2v-1h2v-1h4l1,-1h5l1,-1l1,1v-1h1l1,1h1v-1l1,1h6v-1h-2l-1,-1h-1l-1,-1h4l1,1h1l1,-1h3l-1,-1h1l1,1l1,-1l1,1h3v-1l1,1h4v-1h2l1,-1v-1h-1v-1h-1v-1h-1v-1h-1v-2l-1,-1v-1h1v-2h1v-1h1v-1h1l1,-1l1,1ZM144,951l2,1h1v1h-1v-1v1h-4l-2,-2l-2,-1l2,1h2v-2h1v1ZM151,947h1v1h-2v1l-1,-1l1,-1ZM269,946h-1v-2h1l1,1ZM345,939v1h1l1,-1v1l-3,3v-1l-1,1h-1l1,-1v-1l1,-1v-1ZM368,943v1l1,-1v1h-1l-3,3h-1l-1,1h-1l-2,2h-2v1h-1v-1h-1v-1l4,-2h1l1,-1h2l2,-2h1l2,-2ZM376,936l-1,2l1,-1l-1,1l1,1h1l-2,2h-1l-2,2l-2,1h-1l2,-1v-2l1,-1l2,-1v-1l1,-1v-3l1,-1v1l1,1ZM382,913l-1,1v-2l-1,-1v-1h1v1l1,1ZM397,906v1l-1,1h-1v-1l1,-1v1ZM398,906h-1v-1h1l1,-1v1ZM10,905v-1ZM386,904v-1ZM386,901v2h-1v-1ZM259,895v2l1,1h-1v1v-1v2h-1v3l-3,6v2h-1l-1,1l-1,-1h-1v-5h1v-2l1,-1h-1v-3h1v-1h1l2,-2h1v-1l1,-1v-1l1,-1v1ZM361,898v1h1v1h1l-1,1v2h1l-1,2v1l2,2v4h1l-1,2l1,1v3l-1,1v2l-3,3v1l-1,1l-1,2h-1l-1,2h-1l-4,4v1h-2l-1,1h-1l-1,1v-1h-1l1,-1h-1l-1,1h-1v-1h-1v-3h1l-1,-1v-1l1,-1l-1,1h-1l3,-3l-2,1h-1l-1,2v-4l-2,-2h-2l-1,1h-4l-2,2h-4l-1,1v-1l-1,1h-2v-1h-1l1,-1v-1h1v-3l1,-1v-7l1,1v-3l1,-1v-1l1,-1l-1,1l2,-2h1l1,-1h2l1,-1h2v-1h1l1,-1v-2l1,-1v2l1,-1v-1h1v-1l2,-2h2v1h2v-2h1l1,-1v-1h2v-1h-1h1l1,1h3l1,1h-1v1h-1v1l-1,1v1l2,2v1h1l1,1h1v-1l1,-1v-1l1,-1v-3l1,-1v-2h1v-1v3l1,1Z"/>
<path class="tl" d="M383,894h-1v-1v1ZM337,892l-2,-1h2ZM381,893h-1v-1h1ZM382,892v-1l-1,-1h1ZM341,892h-1l3,-3h2l-1,1h-1l-1,1ZM335,889h1v1h-3l1,-1ZM340,889v1h-3v-1h2ZM381,890v1l-2,-2h1v1ZM378,889v-1h-1v-1l1,1ZM325,887h2v-1l2,1v1h2l1,1l-1,1l-1,-1h-4l-1,-1h-1l-2,-1h-1l1,-2h1l1,1ZM353,886v1v-2ZM377,888h-1v-2l-1,-1h1v2h1ZM373,885l-1,1h-1l-1,1l-1,-1h-1l1,-1l1,1v-1h2v-2h1v1ZM345,882h-1v-1h1ZM349,881v2l-1,-1h-2v-1h2ZM374,884l-1,-1v-1l-1,-1h-1h2v2h1ZM353,878v3l2,1v-2l2,-1h1l1,1h1l1,1l4,2v1h1v1l2,1v1h-1v1l1,1v2h1v1h1h-1l1,1l-1,1v-1h-2l-1,-1v-3h-3l-1,1v1h-2l-2,-2v1h-2l1,-2h1l-1,-2v-1l-2,-1h-1l-1,-2l-1,1l-1,-1h1l-1,-1l1,-1h-1v-1h-1l-1,-1h2v-1ZM343,875l-1,1h-4v1l1,2v-1h2l-1,1h-1l1,2v1l1,2v1h-1v-2l-1,1v-1l-1,-1l1,-1h-1v4h-1v-3h-1v-1l1,-1v-4h1v-1h4l1,-1ZM347,875v1h-1v1l1,1h-1v-4h1ZM321,885h-1l-2,-2v-1l-2,-2l-1,-2v-2l-1,-1v-1l-4,-4v-1h2l3,3l1,2h1l2,2h1l-1,2h1v1l1,1h1v3ZM335,874l1,1h-1v3l-1,1v1l-1,3v-1l-1,1l-1,-1h-1v-1l-1,1l-1,-1h-1l-2,-4v-2l1,-1h2v-2h2v-1l1,-1v-1h1l1,-1v-2h1v1l2,2v1h-1l-1,2l1,1ZM344,864v3l-1,-1v2l-2,-2h1l-1,-1v1l-1,-1l-1,1v-1l1,-1h2v-1h1v-1l1,1ZM294,868h-1v-1l-1,-2l1,-2l1,1v1l1,1v1ZM137,863h-1l1,-1h1ZM341,861v1l-1,1l-1,-1l1,-1v-1v1l1,-1ZM335,863l-1,1v-1l1,-1v-1l1,-1v1l-1,1ZM338,859h2v1l-1,1v-1h-1ZM342,858l1,2h-1v1v-1h-1v-1h1h-1v-1ZM338,857l-1,1l-1,-1h1ZM336,849h1v6h1l2,1v2l-1,-1v-1v1l-1,-1h-2v-1h1h-1l-1,-1v-5ZM133,851v1h-1v-1ZM121,852h-1v-1h2v1ZM126,849h3v1h1v1h-2l-1,1v-1h-1v-2h-1ZM324,849l-1,1h-1v-2l1,-1h1v1ZM37,846v-2h1v2ZM38,844h-1v-1h1ZM119,845h2l1,1v1h1v1h2l-1,1h-3v-1h-1v-2h-2l-1,-1h-1h1h-2l-1,1h-1l2,-2h3ZM122,843h-1v-1l1,-1v1ZM334,843v1l-2,-2v-2l1,-1l1,1ZM122,839l-1,1v-1ZM123,839v1v-1h-1ZM340,825h1v1h-1v1h-1v-2ZM240,828l-2,2v-1h-1h2ZM229,828v1h-1ZM220,825v2h-1l-1,-1h-1v-1h2ZM214,821v3h-1v-3ZM344,820v1l1,1v1l-1,1h-1l-1,2l-1,-1v-1l-2,1l-1,1h-1l2,1v3l-1,-1v-1h-1l-1,-1l1,-1v-3h3v-3l1,1v-2h1l-2,-4v-1l3,3v1ZM214,820v1l-1,-1v-1l1,-1ZM340,810l1,-1l1,2h-1v2l-2,-1l1,2h-1l-1,-2l-1,-1h1l-1,-2l-1,-1l3,1ZM144,812l1,1h1h-2ZM147,809h-1l-1,-1h1ZM92,806h-1l-1,-1v-2h-1v-1h1l1,1v1l1,1ZM153,807l-1,1h1v1h2l-1,1h1v1l-1,2l-1,-1l1,-1l-2,1v-1h-3l1,-1h-1l4,-4h1Z"/>
<path class="tl" d="M90,797h1l-2,2v1v-3ZM332,800l3,3l-2,-1l1,2l2,2v1l-2,-2l-1,-2l-6,-6v-1h-1h1l3,3ZM198,806l-1,1h-2l1,-2v-1l2,-2h1v3ZM216,801l-1,2l-1,-1v-1h1ZM79,791h-1v-1h2ZM202,797l-1,2h2v1l-1,1h1l2,4h1v1l-1,1h1l-1,1h-3l-1,1h-2l2,-2h-1v-1h1l-1,-1v-1h2l-1,-1h-1v-2l-1,-1l1,-2v-1l1,1ZM75,786h-1v-1h1ZM141,790l-1,1v-1ZM139,790h-2l1,-1h1ZM78,780v1h1h-2v-1ZM139,786h1v1h1l-1,1h1l-1,1l-1,-1h-1l-2,1l1,-1h-1h1l1,-1l1,-2ZM193,787v1l1,1l-1,1h-3l-1,1l-1,-1h-2l1,-1h-1h1v-1h-2l1,-1h1l1,1l2,-1h2ZM147,784h-1l1,-1h2l-1,1ZM81,776v1l1,-1h2l-1,2h-3l-1,1h-1l-1,-1h1v-1h-1h1h-2l-1,1l8,-5v1l-1,2ZM135,780l-1,1v-1h-1l1,-1h1ZM322,771h-1ZM88,771h-1h2ZM139,780l-1,2l2,-1v1h-1v1l1,-1l2,-1l1,-1h2v2h-1v1l-1,1l-2,1h-1v-1l-1,1l-2,1v1h-3l-2,2h-1l-1,1l-2,1l-1,1l-1,2h1l-1,1v1h1l3,3l2,1h1l-2,2v2l1,1h1l2,-4h-1l4,-2v-1l1,-1v-1l-1,-1l2,-1l2,-4l1,1h1l1,-1v1l1,1h1v2l-1,1l1,1h2l1,-2h1v3l1,1l-1,1l1,1v1h1l1,1v1l1,1l-2,2h-2l-2,2h-1l-2,-1h-2l-2,1l-1,1l-2,1l-1,1l2,-1l3,-1h2l-1,1l-1,2v1l1,1l2,-1l1,-1v1h1l-4,2h-1l-2,1v-1l2,-1h-3v1h-1l-1,1h-1l-2,2l1,1v-1v1h-3l-1,1l2,-1v1h-2l-2,2v1l-1,1l-1,-1l1,-1l-1,1v4l-1,1h-1l-1,1h-1l-3,3h-1v8l-1,1h-1v-3l-1,-1l1,-1l-1,-2l-1,1l-1,-1h-4v1h-1l-1,-1l-1,1l-1,-1l-2,2h-2v1h-1v3l-1,1v1l-1,2v4l1,1v1h1v1l1,-1h3v-1l1,-1v-1l1,-1h3v1l-1,1v2l-1,1v-1v2l-1,1v1h5v1h1v1l-1,1v3l-1,1h1v2h1v1h2l1,-1h1v1h1l1,1l1,-1v-2l1,-1h2l2,-2v2h-1h1v1l-1,1v1h1v-3h1v-1h1v1h1v1h3l1,1l1,-1h1l1,1h1v1l1,1h1v1h1v1l1,1l2,1v-1h1l1,1h1l1,1v1h1v1l1,2v1l-1,1l1,1h2v1v-1l4,2v1h1l3,1h1l2,1l2,2h2v5l-1,1l-1,2l-2,2v9l-1,2v2h-1v1h-2l-1,1h-1l-3,3v5l-1,2l-2,2v2l-2,2v-1l-1,1l-1,-1h-1v-1v1l1,1v1l1,1v2l-2,1h-3l1,1v2l-1,1l-1,-1h-1l1,2h2l-2,2l1,1v1h-1l-1,1v1l2,1h1v1l-1,1v2h-1v1l2,2h-1l-1,1v1h-1l-2,-1l-3,-3l-1,-3v-1l1,-1h-2l1,-2l-1,-2h1v-2l-1,-1v2l-1,-2v-4l-1,-1l-1,-2h1v-6l-1,-2v-8l-1,-2v-6l-1,-2l-1,-1l-2,-1l-3,-2l-1,-1v-1l-1,-2l-1,-3l-2,-3l-2,-2v-1l-1,-2l2,-2v-1h-1v-3l1,-1v-1h1v-2h1l1,-1v-5l-1,-1v-2h-1v1h-1v1h-1l-1,-1h-2v-2h-1v-1v1h-1v-3l-2,-2h1h-2v-1h-2l-1,-1l-1,-2h-1l-1,-1v1h-2l-1,-1h-2l-2,-2h-1l-1,-1v-1h-1v-3h1l-1,-1v-3l-1,-1v-1l-1,-1v-3h-1v-5l-1,-1l-1,1v4h1l-1,1h1v5h1v2h-1v-1l-1,-1v-3l-1,-1v1v-1h-1v-1h1v-9h-1v-1h-1v-9l2,-2v-1l1,-2l2,-2l1,-2l1,-1v-1h1v1l2,-2h-1v-2l-1,-1v-1l1,-1l-1,-1l1,-1v-1l1,-1l-1,-1l1,-1v-1l1,-1l-1,-1h-1v-2h-1v-1h-1l-1,-1h-1l-1,1h-4l1,-1l2,-1h-1l-1,1l-2,1h-1l-1,1l-2,1h-2l-2,1h-1l-1,1h-3l-1,1h-2l1,-1h2l2,-1h2l2,-1h1l2,-1l1,-1h-3l1,-1l-1,1h-1l2,-2h-1v-1l2,-2l2,-1h3l1,-1h1l1,-1h-3v-2h4l1,1l1,-1v-3h4l1,-1h2l2,-1l1,1l1,-1h1l-1,1h1l1,1h2l1,1h2v1l1,1l1,-1h6l1,-1v2l2,-1l-1,1h2l1,1h2v1l-2,1h4v1l2,-2h2v1h1l1,1h2v-1h1l1,1l-1,1l1,-1h1l1,-1v-2l1,-1l2,-1l1,1l-2,2Z"/>
<path class="tl" d="M128,774l-1,1h4l-1,1h1l2,-2v1l-1,2v1l1,1h-2v1h-8v-1h-1v-1h4l-1,-1h-3l2,-1h-1l1,-1h1ZM135,774l-2,1v-1h1ZM152,776v1l-1,-1l-1,1v-2h2ZM146,776v1l1,-1l2,-1v2h3l1,1l-1,1l2,-1v1l1,1v2h-1l2,2v1h1v1l-2,1h-1l-1,-2l-1,1v1l1,1v2l-1,1l-2,-2v1l1,1h-2l-2,-2v-1l-1,-1v1h-3v-1l1,-1h3l1,-1l2,-1v-1l-1,-1h-1l1,-1l-1,-1h-5l-1,-1h-1l1,-1h-1l1,-1l2,-1l1,-1h2ZM138,774h2l-1,1h-1l1,1l-2,1h-2v-2l1,1v-1ZM298,772h-2v-1ZM141,776l-2,1v-1l2,-2h2l1,1l-2,1ZM122,776h-2l-1,-1h1l2,-1l2,-2h2v1h2v1h-1l-3,1h-2ZM299,769v1h-3v-1h1ZM143,773v1l-1,-1h-1l1,-1h1l1,1ZM295,769l1,1h-2l-1,1l-2,-1l-1,-1h2ZM143,771h-1v1l-1,1h-2l1,-1h-1l1,-1h2ZM136,771h1v1h-4l-2,1h-1l1,-1h-1l-1,-1l2,-1h1l2,1l1,1v-2h2ZM246,780h-3l-2,-1v-1l1,-2h-1l1,-1l-1,-1h1l4,-2h2l-1,1l-2,1l-1,1v2l-1,1l1,1ZM145,770l1,1h1l-1,1h1l1,1h4v1h-7l-1,-1l1,-1v-1h-2l1,-1ZM134,769l-2,1h-4l2,-1h3ZM271,770l1,1v-1h2l2,1h1v1l-1,1h1l2,1v-1l1,1l1,-1h2l1,1h3l-2,-1h5l1,1v1h2l2,1l-1,-1h1l1,-1l2,1v-1h1l-2,-1h8l3,1l1,-1h2l2,2h2v-1h3l3,1v-1h-2v-1h7l8,5h-1l1,1l2,1h2v1h-1v1h-1l1,1v2l-2,-1v2l-1,-1v1h-1l2,2v1h1l3,2h-1l1,1h1v1l1,2h-1l1,2l1,1l-4,-2l-4,-3l-1,-2l-1,-1v-3l-1,-2v-1l-2,-2l-1,1l2,2l-3,-1l-1,1l1,2l1,1h-1l-1,1l-1,-1h-1v1h-4v7h1l2,1h1l-1,-1h1l3,1l1,2l1,1l1,2l2,2v9h-1l-1,-1v2h-1v1l1,1v1h-1v1l1,1h1l2,2v1l1,1v1l-1,1h-1l-1,-2l-1,-1h1l-2,-1v-1v1v-1h-1v-1l-1,-1h-2v1h-1l-1,-1l1,-1l-1,-1l-1,1v2h-1v1l2,2h1v-1h2l1,1l-2,1v2l2,2l1,2l2,1v2h1v6l-2,4l-1,1h-1v1l-1,-1v1l-2,1h-1v2l-1,-1v-1h-2l-1,2v2l1,1l1,2l2,2l1,3v4l-2,1v1l-2,1v-2l-1,-1h-1v-1l-2,-2h-1v-1h-1v6h1v3l1,1h1v1h1v1l1,1v3h1v2h-1l-2,-2v-1l-1,-1v-1l-1,-1v-2l-1,-1v-1h-1v-6l-1,-1v-1l-1,-2v-2l-1,-1l-2,2h-1v-3l-1,-2v-1h-1l-2,-2v-1l-1,-1h-1v2l-1,-1v1h-2v2l-2,1l-1,2v1l-2,2h-1v8l-1,1l1,1h-1l-1,1l-1,-1l-1,-2v-1l-1,-1v-1l-1,-2v-1l-3,-6v-3l-2,1h-1l-1,-2v-1l-2,-1l-1,-1v-1l-1,-1l-2,1h-5l-1,-1h-2v-2h-1l-1,1h-2l-3,-3l-1,-2l-1,1v-1l-1,1v2l1,1h1l1,1v2l1,1l-1,-1l1,-1v2h1v1l1,-1h2v-1l1,-1v-1v2l2,2h1l2,2l-1,1v1h-1v3h-1v1h-1v1h-2v1h-1l-2,2h-1l-2,2v-1l-1,1h-2v1h-2v-2l-1,-1v-3h-1v-1l-1,-1v-1l-1,-1h-1v-1l-1,-1v-3h-2v-2l-1,-1v-1l-2,-2v-1v1l-1,1l-1,-1l-1,-2l1,2l1,1l1,2v1l2,2h-1l2,2v1l1,1h-1l1,2v1l1,1l1,2v1l1,1l2,1v1h1v1h1v1l-1,1h1l1,1h3l1,-1h3v-1h1v2l-1,1v3l-1,1l-3,6l-1,1l-2,1l-1,1l-1,2v1h-1v1h-1v2l-1,1l-1,2l1,1v4l1,1v7l-1,1h-1l-3,3h-1v1l-1,1v2h1l-1,1h1v1l-1,1h1l-1,1h-1l-2,2v3l-3,3v1l-2,1v1l-1,1h-2v1l-1,-1v1l-1,-1l-1,1h-2l-1,1l-1,-1h-1v-5l-1,-1v-2l-1,-1v-1l-1,-1v-5l-1,-1v-1l-1,-2v-1l-1,-1v-3l1,-1v-3h1v-1l1,-1v-1h-1v-5l-1,-1v-2l-3,-3l-1,-2l1,-1v-5l-1,-1v-1l-1,1h-2l-1,-1v-1l-1,-1h-2l-1,1h-2l-1,1h-6l-1,1l-4,-4h-1l-1,-1v-1l-1,-1v-1h-1v-1l-1,-1v-1h-1v-3h-1l1,-1v-1h1l-1,-1l1,-1v-4l-1,-1v-1h1v-2l1,-1v-1h1v-2h1l1,-2h1l2,-2v-3l3,-3l1,-2v-1h1l1,1h2l1,-1h2l1,-1h4l1,-1h1v1h1l1,-1h1v1l1,-1v1h-1v1h1v2h-1v1h1v1h3l2,2h1l2,2l1,-1v-2l1,-1h2l1,1h1l1,1h2l1,1h1v-1h2l1,1v-1h1l1,1v-2l1,-1v-5h-2l-1,1l-1,-1h-2v1l-1,-1h-2v-1l-1,-1v-2l1,-1h1v-1h2l1,-1h1l2,-1l2,1l1,1h2l1,-1v-2h-1l-2,-2h-1l-1,-1l1,-1l-1,-1h2l-1,-1v1h-2l-1,1v1h1l-1,1h-1v-1h-1l1,-1h-2v-1h-1v1l-1,1v1h-1v4l1,1h-2v1h-1v-1h-2l1,1h-2v1l1,1h-1h1l1,1v1l-1,-1v1h-1l1,1h-2v-2l-1,-1v-1h-1v-3h-1v-1h-1l-1,-1h-1l-1,-1v-1l-1,-1v1v-1h-2v1l2,2v1l1,1h1l1,1h1l1,1v1l-1,-1h-1v1h1v1h-1v1h-1v-1h1l-1,-1v-1h-1l-1,-1h-1l-2,-2l-1,-2h-2v1h-4l-1,1v2h-2v1l-1,2h1l-1,1v1h-1l-1,1h-2l-1,1l-2,-2v1h-2l1,-1v-1h-1v-2l1,-1v-3l-1,-1l2,-1l1,1h5v-4l-1,-1v-1h-2v-1h3v-2l1,1l2,-1v-1h1l1,-1l1,-2l1,-1h2v-5h2l-1,1h1v1l-1,1v1h1v1l1,-1h2v1h1l2,-2l1,1h1v-1h1v-3l1,-1l1,1v-1l-1,-1v-1h4l1,-1h-4l-1,1l-2,-2v-4l2,-1v-1l-1,-1l-2,2l-1,2l-1,1v3h1v2h-1v2l-1,2h-1v1h-1v-2l-1,-1l-1,-2l-1,-1l-1,2h-1l-2,-1v-5l2,-1l3,-3l2,-3l3,-3h2l1,-2h3l2,1l-1,1h2l1,1h3l3,1l1,1v1l-1,1h-1l-3,-1h-1l2,1v2l1,1h1v-1h-1l1,-1l2,1v-1l1,-2h1l1,1v-1l-1,-1v-1l-1,-1l2,1h1l-1,1l1,1h1v-1l1,-1l2,-1h1v1l1,-1h1l1,-1l1,1l1,-1h-2l1,-1h2l1,1l4,1v-1h-2v-1h-1l-1,-1v-3h2l1,1v1h1l1,1l1,2h1v3l1,1v-1h1l-1,-1l1,-1h-1l-2,-2v-1l-2,-1l1,-1l-1,-1h1l1,2l-1,-1l1,-1h2l1,1l-1,-1l-1,-2h4l-2,-1v-1h1l1,-1h3l1,-1h1v-2l2,1h-1ZM253,820l1,1v2h-1v1l1,1h1l1,1h3l-1,-1v-2h-1v-2h1v-1l-1,-1h-1l1,1l-1,-1v-1h-2v-2h-1h1v-2l1,1v-3h-2l-1,1h-1v1h-1l-1,2l2,1v1l1,1Z"/>
<path class="tl" d="M146,770h-1v-1h1l1,1ZM137,769h-2l1,-1h1l1,1ZM220,771l-1,1h-1v-1h-1l2,-1v1ZM139,768h-2l1,-1v1ZM146,769h-1v-1h1l1,1ZM144,769h-1l-1,-1h-1h1v-1h1l1,1ZM268,768l-3,1v-2ZM215,769l3,1h-2v3h-1l-2,-1h1l-1,-1l-2,-1v-1l1,-1l1,1h1v-1h1ZM220,768h1l-1,1h-4l-1,-1h3ZM234,767l-1,1h-1v-1h-1h4ZM264,768h-4l-2,-1l-1,-1h1l1,-1l4,2ZM153,767v1h-1l-2,1h-2v-1h1h-1v-1l1,-1h2v-1h1v1h1ZM167,764h3v1h-3l-1,1h-1l-1,1l-2,1h-3v1h-1v1h-2l-2,1h1l-2,1h-4l-1,-1h2v-1h2v-1h-1h1l1,-1h1l-1,-1h4l-1,-1h-3v-1l1,-1h6v-1h3v1l2,-1l1,1ZM190,764l3,1h-6v1h5l-1,1l2,-1h4v1l-2,1h-1l-2,2v2l1,1h-2l1,1l-1,1v1h-1l1,1h-3l1,1v1l-1,-1l-1,1h1l1,1v1h-2l-1,-1v1l-1,1h3l-4,2h-3l-1,1l-4,2h-1l-2,1h-1v1l-2,2v1l-1,1l-1,2h-1l-1,-1h-1l-1,-1v-2l-1,-1v-1l1,-1l-1,-2l1,-1l1,-2h1l1,-1v-1l-1,1h-1v-1l1,-1h1l-1,-1h-1l1,-1v-4l-1,-1h-5v-1l-1,-1h1l-1,-1l1,-1h2l3,-1h1l-2,-1h1l3,-1h1v-1h9l1,1l-1,-1h1l2,-1h3l2,-1Z"/>
<path class="th" d="M117,875v-2h2v-1h-1h1h-1h1v-1v1v-5h-1v-1h1v-1h1v1v-2h1v-2h1v-1h1h-1v1v-1h1v1v-1v1v-1h1v-1h2v-1v1h-1v2h-1v3h1v1h-1h1h-1h1v1h2v1h3v1h-1v2h1v1h-1v1h1v1h-3v1h1v1h-1v2h1v1h-1v3h-1v-1h1v-1h-4v-2h-1v-1h-2v-1h-2v-1v1v-1ZM118,872v1Z"/>
<path class="tg" d="M66,970h1l1,-1h4v-1h5v-1h5v-1h6v-1h6l1,-1h7v-1h8v-1h9l1,-1h11v-1h14v-1h20v-1h79v1h20v1h14v1h11l1,1h9v1h8v1h7l1,1h6v1h6v1h5v1h5v1h4l1,1h1M21,927h6v-1h7v-1h8v-1h10v-1h10v-1h12v-1h14v-1h18v-1h23v-1h38v-1h75v1h38v1h23v1h18v1h14v1h12v1h10v1h10v1h8v1h7v1h6M5,877h399M21,826h4v1h7v1h8v1h9v1h10v1h11v1h14v1h16v1h21v1h32v1h103v-1h32v-1h21v-1h16v-1h14v-1h11v-1h10v-1h9v-1h8v-1h7v-1h4M66,783v1h5v1h4v1h5l1,1h5v1h6l1,1h6l1,1h7v1h10v1h10v1h13l1,1h17v1h36v1h21v-1h36v-1h17l1,-1h13v-1h10v-1h10v-1h7l1,-1h6l1,-1h6v-1h5l1,-1h5v-1h4v-1h5v-1M140,755h-1v1h-3v1h-2v1h-2v1h-2v1h-2v1h-2l-1,1h-1l-1,1h-1l-1,1h-1v1h-2v1h-2v1h-2v1h-1l-1,1h-1v1h-2v1h-1l-1,1h-1v1h-2v1h-1v1h-2v1h-1v1h-2v1h-1v1h-1l-1,1h-1v1h-1v1h-2v1h-1v1h-1v1h-1v1h-2v1h-1v1h-1v1h-1v1h-1v1h-1v1h-1l-1,1h-1v1h-1v1h-1v1h-1v1h-1v1h-1v1h-1v1h-1v1h-1v1l-1,1v1h-1v1h-1v1h-1v1h-1v1h-1v1l-1,1v1h-1v1h-1v1h-1v2h-1v1h-1v2h-1v1h-1v2h-1v1h-1v2h-1v2h-1v1h-1v2h-1v2h-1v2h-1v2h-1v2l-1,1v2h-1v2l-1,1v2h-1v3h-1v4h-1v4h-1v5h-1v9h-1v13l1,1v8h1v5h1v4h1v4h1v3h1v3h1v2h1v3h1v2h1v2h1v2h1v2h1v2h1v2h1v1l1,1v1h1v2h1v1h1v2h1v1h1v1h1v2h1v1h1v1l1,1v1h1v1h1v1h1v1l2,2v1h1v1h1v1h1v1h1v1h1v1h1v1h1v1h1v1h1v1h1v1h1v1h1v1h1v1h2v1h1v1h1v1h1v1h1v1h1l1,1h1v1h1v1h1v1h2v1h1v1h1l1,1h1v1h1v1h2v1h1v1h2v1h1l1,1h1v1h2v1h1v1h2v1h2v1h1l1,1h1v1h2v1h2v1h2v1h2v1h2v1h2v1h2v1h2l1,1h2v1h2v1h2M153,755h-1v1h-2v1h-2v1h-1v1h-2v1h-2v1h-1v1h-2v1h-1v1h-2v1h-1v1h-2v1h-1v1h-1v1h-2v1h-1v1h-1l-1,1h-1v1h-1v1h-1v1h-1v1h-1l-1,1h-1v1h-1v1h-1v1h-1v1h-1v1h-1v1h-1v1h-1v1h-1v1h-1v1h-1v1h-1v1h-1v1h-1v1h-1v1h-1v1h-1v1l-2,2v1h-1v1h-1v1h-1v1l-1,1v1h-1v1h-1v2h-1v1h-1v1l-1,1v1h-1v2h-1v1h-1v2h-1v1h-1v2h-1v2h-1v2h-1v2h-1v2h-1v2h-1v2h-1v3h-1v2h-1v3h-1v3h-1v3h-1v3h-1v4l-1,1v4h-1v6l-1,1v30h1v6h1v5h1v4h1v3h1v3l1,1v2l1,1v2h1v3h1v2h1v2h1v2h1v2l1,1v1h1v2h1v2h1v2h1v2h1v1h1v2h1v1h1v2h1v1h1v2h1v1h1v1h1v2h1v1h1v1h1v1l1,1v1h1v1h1v1h1v1h1v1h1v1h1v1l3,3v1h1l3,3h1v1h1v1h1v1h1v1h1v1h1v1h1v1h1l1,1h1v1h1v1h1v1h1l1,1h1v1h1v1h1l1,1h1v1h1v1h2v1h1v1h2v1h1v1h2v1h2v1h1v1h2v1h1l1,1h1v1h2M166,755h-1v1h-1v1h-1l-1,1h-1v1h-1v1h-1v1h-1v1h-1v1h-1l-2,2h-1v1h-1v1h-1v1h-1v1h-1v1h-1v1h-1v1h-1v1h-1v1l-2,2v1h-1v1h-1v1h-1v1h-1v1l-1,1v1h-1v1h-1v1h-1v2h-1v1h-1v1l-1,1v1h-1v1h-1v2h-1v1h-1v2h-1v2h-1v1h-1v2h-1v2h-1v2h-1v1l-1,1v1l-1,1v1l-1,1v2h-1v2h-1v2h-1v3h-1v2h-1v3h-1v3h-1v3h-1v3h-1v4h-1v4h-1v5h-1v6h-1v8h-1v30h1v7l1,1v5h1v5h1v4h1v4h1v3h1v3h1v3h1v3h1v3h1v2h1v2h1v2l1,1v2h1v2h1v2h1v2h1v1h1v2h1v2h1v2h1v1h1v2h1v1h1v2h1v1l1,1v1h1v1h1v2h1v1h1v1h1v1l1,1v1h1v1h1v1h1v1l1,1v1h1v1h1v1h1v1h1v1h1v1h1v1h1v1h1v1h1v1h1v1h1v1h1v1h1v1h1v1h1l2,2h1v1h1v1h1v1h1v1h2v1h1"/>
<path class="tg" d="M179,755h-1v1h-1v2h-1v1h-1v1h-1v1h-1v2h-1v1h-1v1l-1,1v1h-1v1l-1,1v1h-1v1l-1,1v1h-1v2h-1v1l-1,1v1h-1v2h-1v2h-1v2h-1v2h-1v2h-1v2h-1v2h-1v2h-1v2l-1,1v2h-1v2l-1,1v2h-1v3h-1v3h-1v3h-1v3h-1v4h-1v4h-1v4h-1v4h-1v5l-1,1v5h-1v8h-1v11h-1v29l1,1v10l1,1v7h1v6h1v5h1v4l1,1v4h1v3l1,1v3h1v3h1v3h1v3h1v3h1v3h1v2h1v3h1v2h1v2h1v2l1,1v2h1v2h1v1l1,1v1l1,1v1h1v2h1v2h1v1l1,1v1h1v2h1v1h1v2h1v1h1v2h1v1h1v1l1,1v1h1v1h1v1h1v2h1v1h1v1h1M192,755h-1v3h-1v2h-1v3h-1v3h-1v3h-1v3h-1v3h-1v3l-1,1v3h-1v4h-1v4h-1v4l-1,1v4h-1v5h-1v6h-1v6l-1,1v7h-1v8h-1v11l-1,1v18h-1v29l1,1v18h1v11h1v8l1,1v7h1v6h1v6h1v5h1v5h1v4h1v4h1v4h1v4h1v3h1v3l1,1v3h1v2l1,1v2h1v3h1v3h1v2h1M205,755v243M217,755h1v3h1v2h1v3h1v3h1v3h1v3h1v3h1v3l1,1v3h1v4h1v4h1v4l1,1v4h1v5h1v6h1v6l1,1v7h1v8h1v11l1,1v18h1v29l-1,1v18h-1v11h-1v8l-1,1v7h-1v6h-1v6h-1v5h-1v5h-1v4h-1v4h-1v4h-1v4h-1v3h-1v3l-1,1v3h-1v2l-1,1v2h-1v3h-1v3h-1v2h-1M230,755h1v1h1v2h1v1h1v1h1v1h1v2h1v1h1v1l1,1v1h1v1l1,1v1h1v1l1,1v1h1v2h1v1l1,1v1h1v2h1v2h1v2h1v2h1v2h1v2h1v2h1v2h1v2l1,1v2h1v2l1,1v2h1v3h1v3h1v3h1v3h1v4h1v4h1v4h1v4h1v5l1,1v5h1v8h1v11h1v29l-1,1v10l-1,1v7h-1v6h-1v5h-1v4l-1,1v4h-1v3l-1,1v3h-1v3h-1v3h-1v3h-1v3h-1v3h-1v2h-1v3h-1v2h-1v2h-1v2l-1,1v2h-1v2h-1v1l-1,1v1l-1,1v1h-1v2h-1v2h-1v1l-1,1v1h-1v2h-1v1h-1v2h-1v1h-1v2h-1v1h-1v1l-1,1v1h-1v1h-1v1h-1v2h-1v1h-1v1h-1M243,755h1v1h1v1h1l1,1h1v1h1v1h1v1h1v1h1v1h1l2,2h1v1h1v1h1v1h1v1h1v1h1v1h1v1h1v1h1v1l2,2v1h1v1h1v1h1v1h1v1l1,1v1h1v1h1v1h1v2h1v1h1v1l1,1v1h1v1h1v2h1v1h1v2h1v2h1v1h1v2h1v2h1v2h1v1l1,1v1l1,1v1l1,1v2h1v2h1v2h1v3h1v2h1v3h1v3h1v3h1v3h1v4h1v4h1v5h1v6h1v8h1v30h-1v7l-1,1v5h-1v5h-1v4h-1v4h-1v3h-1v3h-1v3h-1v3h-1v3h-1v2h-1v2h-1v2l-1,1v2h-1v2h-1v2h-1v2h-1v1h-1v2h-1v2h-1v2h-1v1h-1v2h-1v1h-1v2h-1v1l-1,1v1h-1v1h-1v2h-1v1h-1v1h-1v1l-1,1v1h-1v1h-1v1h-1v1l-1,1v1h-1v1h-1v1h-1v1h-1v1h-1v1h-1v1h-1v1h-1v1h-1v1h-1v1h-1v1h-1v1h-1v1h-1v1h-1l-2,2h-1v1h-1v1h-1v1h-1v1h-2v1h-1M256,755h1v1h2v1h2v1h1v1h2v1h2v1h1v1h2v1h1v1h2v1h1v1h2v1h1v1h1v1h2v1h1v1h1l1,1h1v1h1v1h1v1h1v1h1l1,1h1v1h1v1h1v1h1v1h1v1h1v1h1v1h1v1h1v1h1v1h1v1h1v1h1v1h1v1h1v1h1v1h1v1l2,2v1h1v1h1v1h1v1l1,1v1h1v1h1v2h1v1h1v1l1,1v1h1v2h1v1h1v2h1v1h1v2h1v2h1v2h1v2h1v2h1v2h1v2h1v3h1v2h1v3h1v3h1v3h1v3h1v4l1,1v4h1v6l1,1v14l1,1h-1v15h-1v6h-1v5h-1v4h-1v3h-1v3l-1,1v2l-1,1v2h-1v3h-1v2h-1v2h-1v2h-1v2l-1,1v1h-1v2h-1v2h-1v2h-1v2h-1v1h-1v2h-1v1h-1v2h-1v1h-1v2h-1v1h-1v1h-1v2h-1v1h-1v1h-1v1l-1,1v1h-1v1h-1v1h-1v1h-1v1h-1v1h-1v1l-3,3v1h-1l-3,3h-1v1h-1v1h-1v1h-1v1h-1v1h-1v1h-1v1h-1l-1,1h-1v1h-1v1h-1v1h-1l-1,1h-1v1h-1v1h-1l-1,1h-1v1h-1v1h-2v1h-1v1h-2v1h-1v1h-2v1h-2v1h-1v1h-2v1h-1l-1,1h-1v1h-2"/>
<path class="tg" d="M269,755h1v1h3v1h2v1h2v1h2v1h2v1h2l1,1h1l1,1h1l1,1h1v1h2v1h2v1h2v1h1l1,1h1v1h2v1h1l1,1h1v1h2v1h1v1h2v1h1v1h2v1h1v1h1l1,1h1v1h1v1h2v1h1v1h1v1h1v1h2v1h1v1h1v1h1v1h1v1h1v1h1l1,1h1v1h1v1h1v1h1v1h1v1h1v1h1v1h1v1h1v1l1,1v1h1v1h1v1h1v1h1v1h1v1l1,1v1h1v1h1v1h1v2h1v1h1v2h1v1h1v2h1v1h1v2h1v2h1v1h1v2h1v2h1v2h1v2h1v2l1,1v2h1v2l1,1v2h1v3h1v4h1v4h1v5h1v9h1v13l-1,1v8h-1v5h-1v4h-1v4h-1v3h-1v3h-1v2h-1v3h-1v2h-1v2h-1v2h-1v2h-1v2h-1v2h-1v1l-1,1v1h-1v2h-1v1h-1v2h-1v1h-1v1h-1v2h-1v1h-1v1l-1,1v1h-1v1h-1v1h-1v1l-2,2v1h-1v1h-1v1h-1v1h-1v1h-1v1h-1v1h-1v1h-1v1h-1v1h-1v1h-1v1h-1v1h-1v1h-2v1h-1v1h-1v1h-1v1h-1v1h-1l-1,1h-1v1h-1v1h-1v1h-2v1h-1v1h-1l-1,1h-1v1h-1v1h-2v1h-1v1h-2v1h-1l-1,1h-1v1h-2v1h-1v1h-2v1h-2v1h-1l-1,1h-1v1h-2v1h-2v1h-2v1h-2v1h-2v1h-2v1h-2v1h-2l-1,1h-2v1h-2v1h-2"/>
<rect x="103" y="847" width="37" height="46" fill-opacity="0" stroke="#ffffff" stroke-opacity="0.5" stroke-width="5.0"/>
<rect x="105" y="849" width="37" height="46" fill-opacity="0" stroke="#113311" stroke-opacity="0.8" stroke-width="5.0"/>
<rect x="104" y="848" width="37" height="46" fill-opacity="0" stroke="#45a249" stroke-opacity="0.9" stroke-width="5.0"/>
</svg>
