<?xml version="1.0" encoding="UTF-8" standalone="no"?>
<svg xmlns:svg="http://www.w3.org/2000/svg" xmlns="http://www.w3.org/2000/svg" xmlns:xlink="http://www.w3.org/1999/xlink" height="1000" width="1000">
<!-- made with pythonshp (GPL): github.com/sanjayrao77/pythonshp , underlying data may come from naturalearthdata.com -->
<!-- 
COPYRIGHT: THIS SVG FILE IS RELEASED INTO THE PUBLIC DOMAIN
 -->
<!-- 
vars : {
	'cmdline' : 'pythonshp.py publicdomain wiki1 costarica locatormap'
	'title' : 'Costa Rica locator'
	'version' : '1.0.5'
}
 -->
<defs>
	<radialGradient id="watergradient" cx="500" cy="500" r="500" fx="500" fy="500" gradientUnits="userSpaceOnUse">
		<stop offset="0%" stop-color="#70add3"/>
		<stop offset="11%" stop-color="#6eaad0"/>
		<stop offset="22%" stop-color="#6ca7cc"/>
		<stop offset="31%" stop-color="#6ba5c9"/>
		<stop offset="41%" stop-color="#69a2c6"/>
		<stop offset="51%" stop-color="#679fc2"/>
		<stop offset="59%" stop-color="#669dbf"/>
		<stop offset="67%" stop-color="#649abc"/>
		<stop offset="75%" stop-color="#6297b9"/>
		<stop offset="81%" stop-color="#6095b6"/>
		<stop offset="87%" stop-color="#5f92b2"/>
		<stop offset="92%" stop-color="#5d8faf"/>
		<stop offset="95%" stop-color="#5b8dac"/>
		<stop offset="98%" stop-color="#598aa8"/>
		<stop offset="100%" stop-color="#5685a2"/>
	</radialGradient>
	<radialGradient id="landgradient" cx="500" cy="500" r="500" fx="500" fy="500" gradientUnits="userSpaceOnUse">
		<stop offset="0%" stop-color="#dddddd"/>
		<stop offset="11%" stop-color="#d7d7d7"/>
		<stop offset="22%" stop-color="#d1d1d1"/>
		<stop offset="31%" stop-color="#cccccc"/>
		<stop offset="41%" stop-color="#c6c6c6"/>
		<stop offset="51%" stop-color="#c0c0c0"/>
		<stop offset="59%" stop-color="#bbbbbb"/>
		<stop offset="67%" stop-color="#b5b5b5"/>
		<stop offset="75%" stop-color="#afafaf"/>
		<stop offset="81%" stop-color="#aaaaaa"/>
		<stop offset="87%" stop-color="#a4a4a4"/>
		<stop offset="92%" stop-color="#9e9e9e"/>
		<stop offset="95%" stop-color="#999999"/>
		<stop offset="98%" stop-color="#939393"/>
		<stop offset="100%" stop-color="#888888"/>
	</radialGradient>
	<radialGradient id="bordergradient" cx="500" cy="500" r="500" fx="500" fy="500" gradientUnits="userSpaceOnUse">
		<stop offset="0%" stop-color="#444444"/>
		<stop offset="11%" stop-color="#3f3f3f"/>
		<stop offset="22%" stop-color="#3a3a3a"/>
		<stop offset="31%" stop-color="#363636"/>
		<stop offset="41%" stop-color="#323232"/>
		<stop offset="51%" stop-color="#2d2d2d"/>
		<stop offset="59%" stop-color="#292929"/>
		<stop offset="67%" stop-color="#242424"/>
		<stop offset="75%" stop-color="#1f1f1f"/>
		<stop offset="81%" stop-color="#1b1b1b"/>
		<stop offset="87%" stop-color="#161616"/>
		<stop offset="92%" stop-color="#121212"/>
		<stop offset="95%" stop-color="#0e0e0e"/>
		<stop offset="98%" stop-color="#090909"/>
		<stop offset="100%" stop-color="#000000"/>
	</radialGradient>
</defs>
<style type="text/css">
<![CDATA[
.c1 {stroke:#45a211;fill-opacity:0}
.fs {font:14px sans;stroke:#ffffff;stroke-width:2px;stroke-opacity:0.8;text-anchor:middle}
.ft {font:14px sans;fill:#000000;fill-opacity:1;stroke-opacity:0;text-anchor:middle}
.sb {stroke:url(#bordergradient);fill-opacity:0}
.sg {stroke:#000000;fill-opacity:0.0;stroke-opacity:0.2}
.sh {fill:#45a211;stroke:#000000}
.sl {fill:url(#landgradient);stroke:url(#bordergradient)}
.sp {stroke:url(#landgradient);fill-opacity:0}
.sr {stroke:url(#watergradient);fill-opacity:0}
.sw {fill:url(#watergradient);stroke:url(#watergradient);stroke-opacity:0.8}
.tb {fill:#eeeeee;stroke:black;stroke-width:2}
.tg {stroke:black;stroke-opacity:0.2;fill-opacity:0}
.th {fill:#45a211;stroke:#378100}
.tl {fill:#aaaaaa;stroke:black}
.w1 {stroke:#ffffff;fill-opacity:0;stroke-opacity:0.6}
]]>
</style>
<circle cx="500.0" cy="500.0" r="500.0" fill="url(#watergradient)"/>
<path class="sl" d="M792,94l1,1h1l3,3h1l4,4h1l4,4h1l3,3h1l2,2h1l5,5h1l6,6h1l7,7h1l9,9v1h1l15,15v1h1l1,1v1h1v1h1v1l-1,-1h-1v-1v1v-1h-1l1,1l1,2h1l1,1v1l2,1l1,1v1h1v1h1v1l2,2l1,2l1,1v1l1,1l1,2l1,1v1l3,3v1l6,6v1h1v1l1,1v1l1,1v1h1v1l2,2v1h1v3l3,3v2h-1l-1,1h1v3l1,1v1l-2,-2h-1v-1h-1v-1l-1,-1v-1v1l-3,-3v2h-2v1l-1,-1l-1,-2l-1,-1v-1l-3,-3v-1l-1,-1v-1h-1v1v-1h-1v-2h-1v-1v1l1,1h-1v-1h-1l-1,-1v-2h-1v-2l-2,-1l-1,-3l-3,-3v-1l-2,-2v-1h-1l-2,-2v-1h-1v-1h-1v-1l-4,-4h-1v-1l-1,-1h-1v-1l-1,-1v-2l-1,-1v-1h1l1,1h1v-1h2l1,1v-1h3v-1l-13,-13h1v1h1l1,1v1h1h-1v-1l-2,-1v-1h-1l-1,-1v-1v1v-1h-1l-4,-4l-2,-1h-1v-1l-1,-1h-1v-1h-1v-1h-1v-1l-1,1v-1h-2l-1,-1v1v-1h-1l-1,-1v-1h-1v-1h-1l-1,-1v-2l1,1h1v-1v1v-1h-1l-3,-3l-2,-1v-1h-1v-1l1,1h1v1h2l-1,-1h-1v-1h-1l-1,-1v-1l-5,-5h-1v-1h-1v-1l-1,-1v-1h-2v-1h1h-2v-1h-1v-1h-1v-1h-1l-2,-2l-3,-2l-1,-1h1h-1l-1,-1h-1v-1h-1v-1h1h-2v-1h-1v-1l1,1h-1v-1l1,1h-1v-1l-1,-1h-1l2,1l-2,-1v-1h-1l-2,-1v-1h-1l-1,-1h-1v-1h-1h1l1,1h1h-1h1v1v-1v1v-1v1l1,1Z"/>
<path class="sp" d="M792,94l1,1h1l3,3h1l4,4h1l4,4h1l3,3h1l2,2h1l5,5h1l6,6h1l7,7h1l9,9v1h1l11,11M790,92v1l1,1"/>
<path class="sl" d="M301,102h-1l-1,1v1h-1v1h-1l-1,1h-1l-1,1h-1v-1h1v-1l2,-1h-1h1v-1h1v-1l1,-1v-1h1l-2,1h-2v1h-1l-1,1h-1l2,-2h1l1,-1h1l1,-1h-1v-4h1l-1,-1l1,-1v-1h1v-1l1,1v-2l1,1v-1h-1v1v-2h1v-1l1,-1h1l-1,1h-1l-1,1v-3h1v-1l2,-2h1v-1l-1,1h-1v1l-4,4h-1v-1h-1h1v-1h1v-1h1v-1v1h-2v-1h-1v1h1h-1l1,1h-1v1h-2l-1,1v-4h1l-1,-1h1h-1v-2h-1h1v-1h2v-1h1l-1,1h1v-1h-2l-1,1h-2v-1l1,-1h-2l-1,-1h-3v-1h-1h1v-1h1l1,-1h-1v1h-2v-1h1h-1h1l-1,-1v1v-1h1v-1h1h-3l2,-1h-3v1h1h-3v2h-1h1h-2v1h-1v1h-3v-1v1h-2l-1,1l1,-1v1h-2l-1,1h-2l-1,1h-2v-1h2l1,-1h2v-1l-2,1v-1h1l1,-1h1l1,-1h1l1,-1h1v-1h2l1,-1h1v1h1v-1v1h1v-2h3l1,-1h-2v1h-4v1h-3v1h-2l-1,1h-1l-1,1h-2v1h-2v1h-1h1h-3v1h-1l-1,1h-2v2h-1v1h-2l-1,1h-2v1h-2v1h-3v1h-2l-1,1h-2v1h-1l-1,1h-2v1h-3l-1,1h-1l-1,1h-1v1h-1l1,-1v1h-2l-2,1h-1v1l1,-1h-2v1h-2v-1l-1,1h-1l-1,1h-1v1h-1h1v-1l-1,1h-1h1v-1l-1,1h-1v1v-1h1v-1h2l1,-1h1l2,-2h2l1,-1v1h1h-1l-1,1l1,-1v1v-1h1l2,-2h2l1,-1h1l1,-1h2v-1h1l1,-1h2l1,-1h1h-1h1l2,-2h1l1,-1h1l2,-2h2v-1h2l1,-1h-1l-1,1h-2l-1,1v-1h1v-1h2v-1h-1v1h-1l-1,1h-1l-1,1h-1l2,-1v-1h1h-1l1,-1h-1l-1,1h-2l-1,1v-1h2v-1h1l2,-2h1l1,-1h1l3,-3h1l1,-1l2,-1h-1l-2,2h-1l-1,1h-1l-1,1h-1v-1h1l3,-3h1h-1l2,-1l1,-1v1l-1,1l1,-1v1h-1h1l1,-1h1v-1l-1,1v-1h1v-1h1h-1h1h-1l1,-1h1l1,-1h-1h2v-1h2v-1h1l2,-1h1l1,-1v1v-1h1l1,-1h2v-1h1v1h-1h2l1,-1l2,-1h1h-1v1h1l1,-1h1l1,-1h2l3,-3v1l1,-1h1l1,-1h-2l-1,1h-2v1l1,-1v-1v1h-1v-1l-1,1v-1l1,-1h1l1,-1h1l1,-1h1h-1l1,-1h1v-1h3l1,-1h3l1,-1h2l-1,1h-2l-1,1h1v1l2,-1h1v-1h1l1,-1h1v-1h1l-1,1h-1l-1,1v1l1,-1h-1h1v-1h1l1,-1h1h-1h1h-1v-1h1l2,-1h1l3,-2v-1h1v-1h2l2,-1h3l2,-1h2l1,-1h2l3,-1l1,-1h1h-1v1l1,-1h2l-1,1l1,-1h2l1,-1h1h-1h5l1,-1h1v1h-2l-1,1h1l1,-1h1h-1v1h-1h3l-1,1h-2l1,1h-1h3v1h1h-1h1h-1l1,1h2l-1,1h4v1h1v1h2l-1,1v1l1,1h2v1l1,-1h-1h1v-1h3l1,-1h3l-1,1h-1h3l1,-1h3l2,-1h4l-3,1h-4v1h-4l-1,1h-1l-1,1h-1h2l1,-1h2l1,-1h3l-1,1h1v-1h2l1,-1h5v-1l-1,1h-1h3v-1h3v-1h1v1l-1,1v1h-1v1h3v-1h1v-1v1h1v-1h2v-1h1v1h-2v1l-2,1h4v-1h5l1,1v1h3v1h1l2,1h5l1,1v2h-1l-1,-1l-1,1h-2l-1,1h3v1h10l2,-1h1v1h2v1h1l1,1v1h-2v1h1v1l1,1v-1h-1v-1l1,-1h1v1v-1h1l-1,-1l1,-1v-1h1v-1h5v-1h2l1,-1h-2l-1,1h-4v1h-2v-1h-1h1l1,-1h3l2,-1h4v1l-1,1h1v1h5v1h1l1,1h6v-1h1l1,1h5v-1h-1h1l1,1h3l-1,-1h-3v-2h1v1h1l1,-1h-1h2l1,1h2l-1,1v-1h2l-1,2l-1,1v1h2v1h-3l1,1h1l-1,-1h2l1,-1v-1l-1,-1l2,-1h2l1,-1h1l1,-1h1v-1h-2v-1h1v-1h1l1,1v-1h1h-1h1l-1,-1v1h-2v-1h-3l-1,-1h-1v-2h2v-1h-1v-1h1v-1h3v-1h-1h1l1,-1h2v1h2l1,1v2h1v1h1v1h1h-2l1,1h-1l-2,1h4l1,1h1h-2l2,1v3h1l1,-1v-1h1v-1h1l1,-1v1h1l1,1h1v2h-1v2l3,3v-1h2v-1l3,-3v-1h1v-1h2v-1h-2v-3h1v1l1,-1h2l1,1h4v1h-1h2v1l1,-1l1,1h1h-1v1h-1h2v1h-1l-1,1v-1h-2v1h1l1,1v1h1l1,1h1v2h-2v1h-1l-1,1h-2l-1,1h-1v-1h-1v-1h-2v-1h-2v1h1v-1l1,1h1v1h1v1h1h-2l-1,1v-1h-2l-1,-1h-5v1h3v1l-3,2h-1v1h-4l-1,-1h-1l-1,-1h-2v-1h-1v1h-2l-1,-1h-2v1h5l2,2h8v1l-3,3h-1v1h-1l-2,1h-1l-1,-1l1,1h-2l-1,-1h-1h1v1h-1v1h-3v1h-1v-1h-3v-1h-1v1h-1l-1,-1h-1l-2,-1h-1h1v1h-1h2l2,1h2l-2,1h1l1,-1h2v1h2l1,1v1h-2l-1,1h-4v1h1h-2l-1,1l1,1h-1v-1h-1v1h-2v1h1h-1v1h-2l-1,1v1h-1h1h-1v1l-2,2h-1v2l-1,1l-1,3v1l-1,1h1v1h1v2l1,-1v-1h4v2l1,1v2h1v4h-1v1h-1h1l1,-1h1l-1,1l1,-1h1l4,-1h3l1,1h1l1,1h4l1,1h1l1,1h1l3,3h3l2,1h2v1h2l1,1h1v1l-1,1l1,-1h11l1,1l1,-1v1h2v3l-1,1v1l2,2v3l-1,1l4,4v1h-1h2v1h2l2,2h1l1,1v1l-1,1h1v-1h1l1,1h1l1,1l2,1v1v-1l-1,-1h-1v-2h1v-1h2v1h1v1l1,-1v-1l-1,-1v-1l2,-2v-1l-1,-1h-1v-2h-1v-2l-1,-1v-3l-1,-1h-1v-1h-1v-1h-1v-1l4,-1l2,-1h1v-1h2v-1l2,-1h1v-1l2,-2v-3l-1,-1v-2l-1,-1v-1h-1v-1l-2,-1l-1,-1h-1l-1,-1h-1l-2,-1v-1l1,-1v-1h1v-2h1l1,-1v-1h-1l-1,-2v-1h-1v-1h1h-3l1,-1h1v-3h-2v-1l-1,-1v-1h1l1,-1h4l3,1h1v1l1,-1h2l1,1h1h-1l1,-1h2v-1h1l1,1h1l1,1h2v1h-1h3v1h1h-1h2v1h1h-1l1,1h3l1,1h3v1h1v-1h1h-1h2v1h-1v2h1v2h-2h3v3h2v3l-1,-1l-1,1h2l1,-1h4v1h1v1h1v2h-1l-1,1h-1h3v-3h1l1,1l-1,1l1,-1h1v1v-1h2v-1h2v-2h1v1h1v1h1v-1h-1l-1,-1h1v-1h1h-1v-1h1l-1,-1h1h-1v-2h1h-1v-2h3v1h-1h2l1,1h1v1h1v1h1v1v-1h1l1,1h-1v1h-1h3v1h2v1h-1v1h-1h3l1,-1v2h-1v1h-1h1l1,-1h1l2,1h1l1,1v1h-1v1h-1h3v1h2l2,1v2h-3l-1,-1h-1l1,1h3v1h-1h3v1h-1h2v1h1h-1h1l1,1h1v-1v1h1l1,1v-1h1v2h1v2h-1h1v-1h4v2l1,-1v-1h1l2,2h5v1h3l-2,2h-2v2h-3l-1,1h-2v1h-1l1,1h1h-1v1h1v-1h2v-1h1v-1h1l2,-2h1h-1v-1l3,1h1l2,1v1l-1,1h1v1l1,-1v-1h3v1h3v1h1v1h1v2h1v1h-2v1h4l-1,1l-1,-1v1h2v2l-3,3h-4v1h-3l-1,1l-1,2l-1,1v1l-2,2h-6l-2,1l-1,-1h-18l-3,1l-1,-1v1h-3v1h-1l-1,3v1h-1l-3,1h-1l1,1h-2v1h-1l-2,2v2h-1l-1,1h-1l-1,-1h-2l-4,-1h1v1h4l2,1h1v2l-3,3l-1,2h-1l-2,2h-2v1h-3v1l-2,1h-1l-2,2v1l-1,1h-2l-1,1h-2l2,1v1h-2l-2,2h14l3,-1h2l1,-1h1l1,-1h1v1v-1h1v-2h1v-4l1,-1v-3l2,-2v-1h1v-1l2,2h2l1,-1h2l2,2v1l1,2v2l1,1v2l1,1h2v2l1,1h2v2h1l-1,1h-2v1h-2v1h-1v-1h-1l-1,1v-1v1h-1l1,1h-2v-2h-1v3l-1,1h-1l-1,1v-1v1l-1,-1v1h-2l-1,1v1l-1,1l-1,2v3h1v1h-1v1h-1v1h2l1,1v1h1v1h3v-1l-1,-1l2,2v1h-3l-1,1v-1h-1l-1,1h-2v-1h-1v-1v2l-1,1h-3l-1,1h-5l-1,1l-2,1h-1v1h-1l-1,1v-1l1,-1v-1l-1,-1v1l1,1l-1,2h-1v2h2v3h-1v3h-1v2h-1v1l-2,2v-2h-2v-1h-1l-2,-1v-1l1,-1v-1h2v-1l-1,1h-1v1h-1v2h1v1l1,1v1l2,2v1l1,1v1h-1v-1v2h-1v1l-1,3v1h-1l-1,1v2l-1,-1v-1l1,-2v-1h1v-1h-1v-1l-1,-1v-1h-2l-1,-1v-1h2l-1,-1h-1v-1h1h-1v-1h1v-1l-1,1v-2h2v-1h-1h1h-1v-1v1h-1v1l-1,-1v2l-1,-1v1h1v1h-1v2l1,2l1,1h-1v-1h-1v-1h-1l1,1l2,1v1h-3l-2,-2l-1,1v-2l1,-1v-1v1l-2,2v1h2l1,1h2l2,2h1v1l-1,1h-1l-1,-1h1v1h1l1,1h-1h1v1h-1v1l-1,-1l2,2v1l-1,-1h-1v-1h-1l-2,-1h-1v1h4v1l2,2l1,-1h1l1,1v1l2,3l1,3h1h-1l-1,-2l-1,-1l-1,-2v-1v2l1,1v1l-1,-1h-1v1h-2v1h-2v-1v1h5v1l1,-1h1v3l-2,2h-2l-1,-1v1v-1h-3l2,1h1v2h-1l-1,1l-1,-1l1,1h3v1h-2v1h-4v1v-1h-1v2h-1l-2,2v1v-1v1l-1,1h-4l-2,1v1l-2,2v1v-1h-1l1,1v1l-1,1h-2v1h-2v1l-1,1h-1l-1,1h-1l-1,-1v1h1v1h-2v-1v2h1h-1v1h-1v1h-1v2h-1v2h-1v2h-1v4l1,3v1l1,3l3,6l3,4v3l1,2h-1v-2l-1,-2v-1v1l-1,-1l1,-1h-1v-1v3l1,1v1l4,7l1,1v10l-1,1v3h-1l-1,1l-2,1h-3v-1h1v-1h-1l-1,-2l-1,-1v-1h-1l-2,-2l-1,-2v-1h-1l1,-1l-1,1v-4h-1v1h-2v-1l-2,-3v-1h-1h1l2,-2v-1h-1l-1,-1v2h-1l-1,-1l1,-3l1,-2v-3l-5,-4l-3,-4l-3,-2l-2,1v1h-2l-2,1h-1l-2,1h-1v-2l-2,-2v-1h-1v1h-1l-4,-2h2l-1,-1h-1l-1,1h-3l-2,1l1,-1h1v-1h-2v2h-2v-1l-1,1h-1v-1h-1v-2h-1v1l-1,1h-7l-1,1v-1h-1l-2,2l-2,-1l-1,-1h-1l-2,2l1,1h2l1,-1h2l-1,1h-1l1,1h1v-1h2v2h-2v1h-1v1h1l1,1h2v1h1v1h-1v1v-1l-1,1h-1l1,-1h-1v-1h-2l-1,-1v-1h-2v3h-1l-1,-1h-2v1h-1l-2,-1h-2v-1h1l-1,-1v-1v1h-2v-1l-1,-1h-1v-1l-1,1h-1v1h-5l-1,-1h-7v-1h1v-1h-1l-1,1l1,1h-2l-4,2l-1,1v-1l2,-1h-2v-1h-2v1l1,1v1l-1,1h-1v1l-1,1h-1l-2,2h-2l-1,1h-1l-1,1l1,-1l-1,-1h-1v1l-1,-1h-1l1,2h1h-1l-1,1l-1,-1v2h-3v1h1h-1v1h-2v1l1,1l-1,2l-1,1h-1l-1,-1v1h2v1l-1,1v4l1,1l1,3v2l-3,5v1l-2,5l-1,5v1l-1,3v4l-1,1v5l2,3v1h1l1,1l-1,1v1h-1l1,-1v-1l-1,-1v-1l-2,-2l1,3v1h1v1l2,5v2l3,3l2,3l1,3v2l2,1v1h1v1l1,1h-1l1,1h1v-1l1,1h3l1,1l2,1l1,1l1,2h1l2,-1h2l1,-1h2l3,-1l1,1l2,-1h1v-1h2l2,-1h2l1,1l-1,1h2l1,1l1,-1h1l1,-1v-1h-1v-1h-1h1l2,-1l1,-1h1l2,-2v-4l2,-1v-7l1,-2l4,-2l9,-1l2,-1h2l1,-1h1l2,1h3l1,1l1,-1h-1l1,-1h1l2,2v3l-1,1v1l-2,2l-2,3l-1,1v1l1,1h-1l-1,1v1h2v1h-1v1h-1v1l1,-1v1l-1,2v2l-1,1v2l-1,1l-1,-1v-1h-1l1,-2v-1h-1v1h-1v2l-1,1v1h2v1l-1,3v1l-1,1l1,1l-1,1v6l-1,1v1l-1,1h-1l-2,2v2h2v1l1,-1v-1h-1h1l3,2h1v-1h2l1,-1h1v1h2l4,1l1,-1h5l1,-1h1l-1,-1l2,1h7l3,1h3l4,3v1l-2,-1h-1v1h2l1,1h2l-1,-1l2,1l2,2v1l-1,1v-1h-1v1h1l1,4l-1,1v1l-1,1l-1,2v12l-1,-1l1,-1v-1l-2,2h1v3h-1v3l1,-1v2l-1,1v1l-1,1l1,1v2h1v1h1v1l2,4l2,2h1l1,2v1h1l1,1h1l1,1v1l1,1h1l-1,1v1h1l1,1l1,-1h1l-1,-1h1l2,2l2,1h3l1,-1l2,-1l1,-1l4,-1l1,-1h1l2,-2h5v1h4l6,3l1,2l3,2l-1,1l2,2v1l1,1v1h-1v1l-1,1h1l-2,1h-1v-1h-1v2l-1,2l-4,-6l-1,-1h1l1,-1v-1l1,-1l2,2h1h-1l-2,-2v-1v1h-1l-1,-1h-1l1,1h-1l-1,-2v-1h-1l-2,-2h-5v1h-2v1l-1,1h1l-3,3h-3v2l3,3v1l1,1h-1v1h-2l-1,1h-4v-1l-1,-3v-2l-1,1v2h-1l-1,-1h-1l-2,-2v-2h-4l-1,-1h-4l-1,1v1l-1,-1v-1h-1v-2h-1l-2,-2v1l1,1v1h-2l-1,-2v-1h1v-2h-1v-1l-4,-2l-1,-1l-2,-1h-1v-1h-1l1,-1l-1,-1l-3,-2h-1v-1h-1l1,1v1l2,1l1,1l-1,1h-1v1h-1l-1,-2l-3,-1l-1,-2l-1,-1v-1l2,-2v-2h-2v-1h1v-2l-2,-1l-4,-4l-1,-2l-4,-4h-1l-2,-3l-2,-1l1,-1l1,1h1v-1l-1,-1v-1h-1h1v-1h-3v1h-1v1h-2l-2,-1h-2l1,1l-3,-1l-4,-2h-2l-2,-1l-1,-1h-1l-4,-2h-7l-2,-2h-2l-3,-3h-1l-2,-3l-9,-9l-2,-1l-2,-2h-1v1h1l1,1l-5,-2l1,-1h-1l-1,1v-2h-1v1h-1v1h1l-7,3l-4,2h-2l-10,-3l-3,-2l-3,-1l-2,-2h-2l-6,-2l-4,-2l-1,-1l-4,-1l-2,-2l-2,-1l-4,-4h-5l-1,-1l-5,-2l-1,-1l-1,-2l-2,-1l-3,-3h-2l-3,-3v-1l-3,-3v-3l-1,-1h1v-1h3v-1l-1,-1h-1v-1h1l1,-1v-1l1,-1v-2l-1,-1h-1v-2l-1,-1l1,-3l-2,-4h-1l-1,-2l-1,-1l-3,-6l-4,-4h1v-1h-2l-2,-2v-1l-1,-1v-1h1l-2,-1v-1l-2,-1v-1h-1v-1h-1l-1,1v-1h-1v-3l2,-2h1l-1,-1v-1l-1,-2l-2,1v-1h-1v-3h-2l-1,-1v-1l-1,-1v-1l1,-1v-1h-1l-1,-1v1l-1,-1h-1v-1l-1,-2l-2,-2v-2h-1v-1l-1,-1v-2h-1l1,-1v-1l-1,-1v-1l-1,-1l1,-1l-1,-2v-6h1v-1h-1l-2,-1h-1l1,-1l-1,-1h-3l-2,-1v-1h-1l-1,-1v1h1v1l-1,1l-1,3v5l-1,2v2l3,3l2,4v2h1v1h1v3h1v5l2,2v2l2,2v3l1,1v-1h-1l1,-1l1,1v2l1,1l-1,1l1,1l-1,1v1l1,2l1,1v3l1,1v3h-1l1,2v1l1,1h1v-2l3,3v1l1,1v1l1,1v3h-1l-2,2h-2v-3l-1,-1v-2l-2,-1l-2,-2v-1l-3,-2l-1,-1v-1h-1v-1l-2,-1v-2l1,-2l1,-1v-1h-1l1,-2l-1,-1v-2l-1,-1h-1l-2,-2l-1,-2l1,-1h-1l-1,1h-2l-1,-1v-1h-1l-1,-1h-1l-1,-1v-2l-2,-2v-1h1l2,1v-1h2l-1,1h1v1h1l-1,-1v-1h1h-1v-1h1l1,-2v-3l-1,-1l-1,-3l-3,-3h-1l-2,-4v-1l1,-2l-1,-1v-3l-1,-1v-1h1v-1l-1,-1v-1l-1,-1l1,-1h-1h1v-1l-1,-1v-5h-1l1,-1v-4l-2,-2v-1h-1v-1h-1v1l-1,-1l1,-1l-1,-1h-2l-1,-1h-1v-2h-3l-1,-1h-2l-1,-1h1v-2l1,-1v-1h-1v-2l-1,-1v-2h-1v-3l-1,-1l1,-1v-1h1v-2l-1,-1l-1,-2l1,-1v-3h1v2l1,1v-4h5l-1,-1h-4l-1,1v1h-1v-1l-1,-1v1v-2l1,1v-1l-1,-1v-2l-1,-2v-2l2,-2v-5l-1,-1l2,-2v-1h1v-1l3,-3v-2l1,-1h-1l1,-1v-3h1l1,-2v-2l3,-3h1h-1l2,-2l1,-2l2,-2v-1l2,-2l3,-4v-1l2,-4h1v-1v1h2v-1h-2v-1l1,-1v1l1,-1v-1h-1l1,-1h1v-1h-1v1v-1l1,-1v-1l1,-2v-3l1,-1h1l1,1h1l2,1h3v1h-1l-1,1l-2,1l-1,1v1h1v-1l1,-1h1l1,-1h1v-1v1h-1v1h-1v1l-2,2v-1h-1v1h2l1,-1h1v-1l1,-1v-1l1,-1h1v-1h-1v-1h1v-1h1v-4h-1v1v-1h1h-1v-1h2v-1h-1l1,-1v-1l-1,1v1h-1l-2,-1v-1h1v1l1,-1h1h-2l1,-1v-1h1v-1v1h-1v1h-3v-4h1l2,-2h-1v1h-1v1h-2v-1l-1,1h-2v-1h-1h3v-1l-2,1h-1v-1h1v-1h1v-1l-1,1h-3v-2l1,-1l2,-1h3v-1h-3l-2,2v-2h1v-1h1v-1l1,-1h2l1,-1v1h1v1v-2l1,-1h1v-1v1h-1l-3,1v1h-2v1l-2,1l-1,1l1,-2v-1h2v-1h1v-1l-1,1h-1l2,-1l2,-2h-1l-1,1v-1l1,-1v-1h-1v-2h2v1h2v1v-1h-2v-1h1v-1h1v-1l-1,1h-1l-1,1h-1v1h-2l-1,1v-1l1,-1h-1v-1l1,-1h1l1,-1h2v-1h-1l-1,1v-2h1v-1h2v-1h1l2,-2h1l2,-1h-1v-1l-1,1v1h-1l-1,1v-1h1l1,-1v-1h1v-1Z"/>
<path class="sl" d="M773,495l1,-1v-1l2,2l2,7v1l1,4v1l1,1l1,2l-1,1h1v1h1v1h2l1,1h1v5l-1,1l-1,2l-3,3l-1,2v1h-1l-1,2h-2v1l-1,2v1h-1l-1,2v2l-1,1v2l-1,1h-2l-2,1h2l1,1l1,-1l3,-1l5,-5l1,1l-1,1l1,1v2l1,1v2l2,2l1,-1v-1h2l1,1l1,-1l2,-1v2l-1,2v3h-1v1l1,-1v-1l1,-1l1,-4h1l1,-1l2,-3l1,1h1v-1l-1,-1l1,-1v-1l1,-1v-2h1v-1h1v1l1,-1h2l1,1v-2l1,1h2v1l1,-1v1l1,1h1l1,1l1,-1v1h1l1,1h1l1,1h1l1,2v1l1,-1v-1h1l2,2v1v-1h1v4h-1v1l1,-1h1v1l-1,1v2l-1,1v3l2,-2v-1l1,-2v-1h1v1l-1,1v1l2,-1v-1h1v-1h2v-1h2l2,1l1,1h1l2,1h3l1,1h2l1,-1h2l2,-1h2l2,2h1l1,1h1l4,4h1l1,2l1,3l2,1l1,2l2,1v1h2l1,1h6l1,1l1,3v5l1,2v10l-1,1v3l-1,3l-1,5l-2,2l-1,3l-2,2v1l-3,3l-1,3l-2,1l-2,2l-1,2v1l-2,2v-1h1v-1h-1v3l-1,1l-2,4l-2,3v1l-3,3v-1l-1,-1l-1,1v1l-1,1v1l-1,1v1l-1,1v1h1l-1,1v3l-1,5v2l-1,3v5l-1,2l-1,3l-1,2l-1,3v1l-1,1v3l-2,2h-1l-2,6l-1,1v4l-2,2v1l-1,1l-2,4h-1v1l-1,2l-2,1l-2,2l-2,4v1l-1,3l-1,1l-3,1l-3,3v2h-1v1h-3l-2,1h-1v-2h-1v2h-2l-2,1h-1l1,-1v1l1,-1l-1,-1l-1,1h-2l-2,1l-1,1h1v1h-1l-4,2l-1,1v1h-4l-5,3l-1,1l-6,4l-2,2h-1v1l-1,1l-2,1h1h-1v-1l-1,1v1h-1l-1,-1v1h1l1,1l-2,2h-1h1v1l-1,1v1h-1v5l-1,1v2l-2,4v2l-6,6l-2,1l-2,3l-7,7l-3,4l-1,1l-1,2l-2,1l-3,2l-3,1l-1,1v-1h2l3,-2l2,-2v-1l1,-1h1v-1l2,-1l1,-2v-1v1h1v-2l-2,1h-1v-1h-1v-1v3h-1v2h-1v1h-1v1l-2,2h-2v1l-3,3v2l-2,2l-2,4l-2,1l-2,2l-4,3l-2,2l-2,1v1l-2,1l-1,1h-1l-1,1l-3,1h-6l-2,1h-1l-1,-1l-4,-2h-4v-1l-1,-1l-1,-2v-1l1,-1v-2l1,-1h1v-1h1v-3l-1,3l-1,1v-1l-1,1v1l-2,3v4h-1v2l1,1l3,1l2,2v2l-2,1v3l1,1v1l2,-1v1l-1,2v1l-4,4l-3,2l-2,2v1l-4,2l-6,1l-4,1h-1l-7,2h-6l-1,-1h-2v1l-1,1v1h1v2l-2,2l-1,2l-1,1l1,2h-1l-1,1l-2,1h-2l-1,1h-4l-2,-1l-1,-1h-2v-1h-1l-1,1h-1v6l-1,1v1h1l1,1h1h-1v1h2l1,-1h-1v-1h4v1l-1,1v1l-1,1h-3v-1l-1,-1h-1l-1,1h-1l-1,1l3,1h1h-1l-1,1h-1l-1,1l-2,1l-1,1v2l-1,1v1l-1,1l-2,1l-1,1h1v1h-5l-1,1h-2l-1,1l-2,1l-1,2l-2,1v3l3,2v1h5v1l-1,1v1h-1l-1,1h-1h2v1h-1l-3,2h-1l-1,1h-3l-2,2l-2,1v1l-1,3h-1l-2,1h-1v-1h-1v-1v1h-2v1l1,-1l1,1h1h-1v1h-3v1l-3,3h1v2h-2l-1,1h3l1,2l1,1h-6l-1,1h-2l-2,1h-3v1l-1,2h-1v2h-1l-1,1h-1l-1,-1h-2l-1,-1v-1h3v1l1,-1l2,-1l1,-1l-1,-1l-3,2h-2l-2,2l-2,-1l1,-1v-1h3l2,-1h2v-1h-3l-1,1l-1,-1v1h-1l-1,1v1h-3v-1h1l1,-1h1v-1l-1,1h-4v-1l-1,-1h3v-1h1v1h2l1,-1h2v1h-1v1h1v-2l1,-1v-1h-1l-2,-1v1h2l1,1h-2l-2,1h-2v-1h-3v-1h2v-2h-4v-1h-1v-1h1l1,-1v-1h1l1,1v1h1l1,1v-1h1v-1h1h-1l1,-1l-2,2h-1v-1h1v-1h-2l-1,-1l1,-1h2l-1,-1v-1h3l-1,-1v-2h1h-1v1l-1,1h-1v-2l1,-1v-1l1,-1h1h-2l-1,-1v-1h5l1,1l1,-1h-1v-2l-1,1h-3v-1h-1v-1h1v1h1l1,-1h-2v-1l2,-1v-2h-1l-1,1l-1,-1h-2v-1h1h-3l-1,1h1v1h-1v-1h-1l2,-2h1l2,-1h1l-1,-1v-1h5l1,-1v-1l1,-1h1v1l-1,2h-1v1l-2,1h2v-1h1v-1h1v1l-1,2h-1v1h1v-1h1v-2l1,-1v-1h-1v-1h2l1,-1h2l-1,-1h-1v-1h1l1,-1l2,-1l1,-1l-1,-1h-1v-1h-1v-1l1,-1h1v-3l2,-2h1l-1,-1v-1l1,-1h1l-1,-1l1,-1l1,1v1v-3h-2l1,-1h1l1,-1h1v-1l-1,1h-1l-1,-1h-1l-2,2h-3v-1h1h-1v-1h-1v-3l1,-1l1,-2v-1l1,-2l2,-1l2,-3v-1l-1,-4v-1l1,-2v-1h-1v-5h3l1,-1v-2l1,-1h1v-1l2,-3v-1l1,-1v-1h1v-2h1l2,-2l1,-2v-2l1,-1v-1l3,-3v-4h1v-1l1,-2l1,-1v-16l2,-1l1,-1l1,-3v-2l-1,-1v-2l2,-2v-1l1,-1v-2l1,-2v-1h1l1,-1v-3l1,-1v-1l1,-2v-1l1,-1v-4l1,-2v-1h1v-8l1,-2v-3l1,-1v-1h-1v-3h1l1,-1v-1l1,-2l1,-3v-2l1,-1v-2l1,-2l-1,-6l1,-2v-15l-1,-1l-3,-2l-1,-1h-1l-2,-2v-2l-1,-1l-2,-1h-1l-1,-1h-1l-2,-2v-1h-3l-1,-1l-3,-1l-1,-1l-2,-1h-1l-3,-2h-2l-1,-2l-4,-2l-2,-2h-1l-1,-2l-2,-1l-2,-2l-1,-2v-1h-1v-2l-1,-1h1l1,-2v-2l-2,-2v-1l-1,-1v-1l-1,-2l-3,-3h-1v-4l-4,-4v-3l-3,-5l-1,-1l-1,-2v-2l-2,-4l-1,-1l-1,-2v-1l-2,-4l-3,-3l-2,-4v-1l-1,-2l-3,-3l-6,-3l-2,-2h-1v-2h2v-3l-2,-3v-2l-2,-2l1,-3v-1l5,-5l2,-1l1,-1l2,-1l2,-2l1,-3v-6l-1,1v3l-1,1v-2l-2,2v1h-1l-3,-3h-1l-1,-1v-1h1v-1l1,-1v-1l-1,-1v-3l-1,-2l1,-1l2,-1l1,-2v-1l1,1h1l-2,-2l1,-2l3,-3v-4l-1,-2h2l1,-1h2l1,-1h2l3,-1v-3l-1,-1v-1l2,-1l2,1v-2l-1,-1v-2l1,-1h2v-1l1,1l1,-1h1v-1l1,-1v1v-1l1,-1v-1h1v-1h1v-2h1v-1l1,-1l1,-3h-1v-1l-1,1l-1,-1v-1h1l-1,-1v-1h1v-2l1,-1l-1,-1v-4l-2,-2l2,-1l1,-1l-2,-4v-1l1,-2l-1,-1h-1v-1l-1,-1v-1l-2,-2l1,-2v-2h1v1h1l2,-1h-1l1,-1v-1h1v-1l-1,-1v-1l-2,-2l1,-1l2,2l2,1v1l1,1h-1v1h1l1,-1l-1,-2v-2l-1,-1h1l1,-1l4,-2l1,-3l1,-1h3v-2l-1,-1l1,-1v-2l1,-1h-1l-1,1v-1l1,-1l1,-2l2,-1v-1l1,-1l2,-1v-1l3,1h1l-1,1v1h1l1,-2v-1l1,-1v-1h2l1,1h1l3,-1l7,-4l2,-2v-2h2v-1l2,-1h2l2,1l1,2v1l-1,1h-1v1h-1l-3,1l-1,1v1l1,2l2,2h-1l2,2v1l-1,2l-2,2l-1,3l1,2l1,1v1h1v2l1,1h1l2,-1v-1l1,-1v-4l-1,-2v-1l-2,-1v-2h-1v-2l1,-1v-1h1l6,-3l3,-1l1,-1l1,1l1,-1v-1h-3v-1l-1,-1v-1l2,-2l2,2v3l1,1h5l6,3v1l1,1v3l1,1h2l3,-1h3l2,-1h7v1l2,2h2l1,1h1l2,1h1l1,-1l5,-3h4l-1,-1h-3l3,-1h5l1,-1l1,1l2,-1h7l-1,1h-2l-1,1h-4v1h1v1h1v2h-1h1v-1h1l1,2l1,1h1v-1h1l1,1h1v1v-1h1v-1l3,3h2l2,2v1h-1l-1,1v2l-1,1v1l-3,1h1l2,1v-1h3v-1l3,1l1,-1h1l2,1l1,1h1l4,2l6,6v5l-1,1l1,2l-1,1l1,-1v-2l1,-1h3l5,5h1l1,1v2l1,-1h4l2,1h2l1,1v-2h4l1,-1h3l3,1h2l1,1v2l-1,2l1,-1v-2l1,-1l3,2h2l2,1l1,1l3,2l1,1v1l1,-1l1,2l1,1l-1,1v1l1,-1v-2h1v1l1,2v1Z"/>
<path class="sl" d="M998,458v-8h-1v-4h-1v9l-1,1v6l-1,1v-1l-1,-1v-2h-1l1,1v1l-1,-1h-1v1v-1h1l-2,2v-1v1l-1,1v1l-1,2l-1,1v3h-1l-1,-1l-2,-4l-1,-1l-1,-3l-2,-4v-1h-1v-2l-2,-2v-2h-1v-1l-3,-3v-2h-1v-3h-1v-2l-1,-1h1v-1l-1,-1v1v-4h-1v-3l-1,-1v-1l-1,-1v-1l-1,-1v-1h-1v-1l-1,-2l-1,-1v-1v1v-2l-1,-1v1l-1,-1v-1v1v-1h-1v-4h1h-1v-1v1l-1,-1v-1h1v-1h-1v1l-1,1v-1h-2v-3l-1,1l-1,-1v-3h1h-1v-1v1h-1h1l-1,-2v-2l-1,-2v-1h1v1l1,1v-2h2v-1l-1,1h-1v1h-1v-1l-1,-1v-2h-1v-2l-1,-1v-2h-1l-1,-2h-1v-1l1,-1v-8l-1,-4v-1l-1,-2v-5l-1,-3v-3l-1,-2l-1,-3l-1,-1l-1,-3v-1l-2,-2h1v-1h-1v-2l-1,-2v-2l-1,-1l-1,-2v-1v1l-1,-1l-2,-3v1l1,2l-1,-1l-2,-8l-1,-2v-1l1,-1l-1,-2v-4h-1v-4l-1,-2v-1v1v-8l-1,-1l-1,-3v-2l-1,-1v-2l-1,-1v-8l-1,-2l-1,-3l-1,-1v-3h1v-2l1,-1v-1l-1,-1v-5l-2,-4v-3l-1,-1l-1,-2v-1l-1,-1h-1v-2l-1,-1l-2,-3l-1,-2l-1,-3v-1l-2,-2v-1l-1,-3l-1,-2v-6l-1,-2l-3,-4l-3,-7l-1,-1v-1l5,5v-1h1v-1l-1,-1l2,2h1v-1l-1,-1v-1l-1,-1v-1l-1,-1h1l-1,-1v-1l-1,-1v-1l-1,-1v-2l-1,-1v-2l1,1l-1,-1v-1l-1,-1l1,1l-1,-1v-1v1h1h-1l1,1v1h1l1,1v1l2,2v1l4,4v1l1,1v1l2,2v1l3,3v1l2,2v1l1,1v1l2,2v1l3,3v1l1,1v1l2,2v1l1,1v1l1,1v1l3,3v1l1,1v1l2,2v1l1,1v1l1,1v1l1,1v1l1,1v1l1,1v1l1,1v1l3,3v1l1,1v1l1,1v1l1,1v1l1,1v1l1,1v1l1,1v1l1,1v1l1,1v1l1,1v2l1,1v1l1,1v1l1,1v1l1,1v1l1,1v1l1,1v2l1,1v1l1,1v1l1,1v2l1,1v1l1,1v1l1,1v2l1,1v1l1,1v2l1,1v1l1,1v2l1,1v2l1,1v2l1,1v2l1,1v1l1,1v2l1,1v2l1,1v2l1,1v2l1,1v2l1,1v2l1,1v3l1,1v2l1,1v2l1,1v3l1,1v2l1,1v4l1,1v2l1,1v3l1,1v3l1,1v4l1,1v3l1,1v3l1,1v5l1,1v4l1,1v4l1,1v5l1,1v5l1,1v7l1,1v7l1,1v7l1,1v7Z"/>
<path class="sp" d="M899,199l1,1v1h1l1,1v1l2,2v1l4,4v1l1,1v1l2,2v1l3,3v1l2,2v1l1,1v1l2,2v1l3,3v1l1,1v1l2,2v1l1,1v1l1,1v1l3,3v1l1,1v1l2,2v1l1,1v1l1,1v1l1,1v1l1,1v1l1,1v1l1,1v1l3,3v1l1,1v1l1,1v1l1,1v1l1,1v1l1,1v1l1,1v1l1,1v1l1,1v1l1,1v2l1,1v1l1,1v1l1,1v1l1,1v1l1,1v1l1,1v2l1,1v1l1,1v1l1,1v2l1,1v1l1,1v1l1,1v2l1,1v1l1,1v2l1,1v1l1,1v2l1,1v2l1,1v2l1,1v2l1,1v1l1,1v2l1,1v2l1,1v2l1,1v2l1,1v2l1,1v2l1,1v3l1,1v2l1,1v2l1,1v3l1,1v2l1,1v4l1,1v2l1,1v3l1,1v3l1,1v4l1,1v3l1,1v3l1,1v5l1,1v4l1,1v4l1,1v5l1,1v5l1,1v7l1,1v7l1,1v7l1,1v8"/>
<path class="sl" d="M765,76l-2,-1l-2,-2h-1l-2,-1l-1,-1h-1v-1h-1h1h-1l-1,-1h-1l-1,-1h-1v-1v1h1l1,1h1v1l2,1h1h-1h1l1,1h1v1h1l2,2h2v1h1h-1h1h-2v-1h-2l-2,-2h-1l-1,-1l1,1v-1h-1h1h-2v-1h-1l-1,-1h-1h1l2,2l-2,-1l-2,-2h1h-2v-1h-1l-1,-1h-1l-1,-1l1,1h1l-2,-1h-1v-1l2,2h1v1h2v1h1l1,1l-1,-1h-1l-1,-1h-1v-1h-1l-1,-1h-1l-1,-1l1,1l-1,-1l-2,-1h-1l-1,-1h1h-1h1l-1,-1h-1l-1,-1v1h2v1v-1h-1l1,1h1h-2v-1h-2v-1h-2v-1h-1l-1,-1h-1h1h-1l-1,-1h-1v-1v1h1h-1v-1h-1v-1h-2l-1,-1h-1v-1l1,1h-1v-1h-2v-1h-2v-1l1,1l-1,-1h-1h1l1,1v-1h-1h1h-2l-1,-1h-1l-1,-1h1v1h1l2,1h-1l-1,-1h-1l-1,-1h-1l-2,-1l-1,-1h-1l-1,-1h-1h1h-1l-1,-1h-1l-1,-1h-1h1h-1l-1,-1h-1l-2,-1h-1l-1,-1h-1l-1,-1h-1h1v1h1l-2,-1h-1l-1,-1h-1v-1h-3v-1h-1h1l1,1h1l1,1h2l1,1h1l1,1h2l2,2h1l1,1h2l1,1h1l1,1h1l1,1h2l2,2h2l1,1h1l2,2h1l1,1h2l1,1h1l2,2h1l1,1h1l1,1h1l1,1h1l2,2h2l2,2h1l1,1h1l1,1h1l1,1h1l2,2h1l2,2h2l2,2h1l3,3ZM690,38h1h-1v-1h-1ZM688,37l-1,-1h-1h1h-1l-1,-1l1,1h1ZM684,35h-1ZM332,29h-1v1h-1h1h-2l-1,1h-2v1h-2l-2,1h-1v1h-2v1h-2l-1,1h-1h1l1,-1h1h-1l-1,1h-1l-1,1l-4,2h-2v1v-1v1h-2l-1,1h-1l-1,1h-2v1h-1l-2,1h1l1,-1h1l1,-1h2v-1h1l-1,1h-1h1v-1h1l-1,1h1v-1v1h-2l-2,2h-1v1h-1h1h-1l-1,1h-1h1h-2l-1,1h-1h1v-1l-1,1h-1h1v-1l-1,1h-1h1h-1l-1,1h-1l-1,1h-2v1h-2v1h-1h1v-1l-1,1h-1h1l1,-1l-1,1v-1h2v-1h1l1,-1h1l1,-1h1l1,-1h1l1,-1l-1,1v-1h2v-1h2v-1h2l1,-1l-1,1l1,-1l-1,1h-1h1h-1l-1,1h-2l-1,1h-2l-1,1h-1l-1,1h-1l-1,1l1,-1h1l1,-1h1l1,-1v1h-2l-1,1l1,-1h1l1,-1h1l1,-1h2l2,-2h2l1,-1h1l1,-1h2l1,-1h1l1,-1h2l1,-1h1l1,-1h2l1,-1h1l1,-1h2l1,-1h2l1,-1h1l1,-1h2l1,-1h1l1,-1ZM290,46l-1,1ZM289,47h-1h1l-2,1h-1l-1,1h-1h1h-2v1h-1l-1,1h-2v1h-1h-1v1h-2v1h-2v1h-1l-1,1h-1l-1,1v-1l2,-1h2v-1h1h-1h1l1,-1h1l1,-1h2l1,-1h1l1,-1h1l1,-1h1l2,-2h1Z"/>
<path class="sp" d="M691,38h1l1,1h1l1,1h2l1,1h1l1,1h2l2,2h1l1,1h2l1,1h1l1,1h1l1,1h2l2,2h2l1,1h1l2,2h1l1,1h2l1,1h1l2,2h1l1,1h1l1,1h1l1,1h1l2,2h2l2,2h1l1,1h1l1,1h1l1,1h1l2,2h1l2,2h2l2,2h1l3,3h1M688,37h1l1,1M685,35l1,1h1l1,1M683,35h1M291,46l1,-1h1l1,-1h2l2,-2h2l1,-1h1l1,-1h2l1,-1h1l1,-1h2l1,-1h1l1,-1h2l1,-1h1l1,-1h2l1,-1h2l1,-1h1l1,-1h2l1,-1h1l1,-1h1M289,47l1,-1M273,54h1l1,-1h1l1,-1h2l1,-1h1l1,-1h1l1,-1h1l2,-2h1M272,55v0"/>
<path class="sl" d="M701,454h-1v-1h1ZM676,437v1l-1,1h-4l1,-1h3v-1ZM665,439l-1,1v-1h-1h1ZM700,456h-1v-1l1,-1v1h1ZM662,376l-1,-1h1ZM664,375l-1,1v-1ZM663,380l1,1h1h-2ZM17,626v-1ZM652,375h1h-1h4v2l-2,2h-10v-3h-1h1v-1h3ZM658,378h-1v-1h2ZM639,379l-1,-1h1ZM295,98v-1h1l1,-1v1h-1ZM294,99h-1v-1h2v1ZM300,89h-1v-1h1ZM285,76l1,-1h-1ZM283,78h1l1,-1l-1,1ZM277,76h1ZM272,74v-1h1ZM225,95h-1ZM223,97h1ZM224,96v1v-1h1ZM208,101h-1ZM191,108v-1ZM301,46h1ZM278,54h1v1h-2v1l-1,1h-1v-1h1l1,-1h-1h1v-1h2ZM256,69h-1h1v1h-2v1h-2v1h-1h1v-1l1,-1h1l1,-1h1h-1ZM253,85h1v1h-1v1h-3v1h-3v1h-1l-1,1h-1l2,-1h-1h1v-1l-1,1h-1h1l2,-2v-1h2v1h-1h1l1,-1h1v-1h1h-1h2v-1h1v1ZM219,96l-1,1h-2v1v-1h-1v1h-1v-1h2l1,-1h1l1,-1ZM288,102v1h-1l-1,1v-1h1v-1v1h1ZM292,105v1l-1,1v-1h1h-1l2,-2v1ZM295,100l-1,1h-1v-1h1h-1l1,-1h1l1,-1h1h-1v1ZM296,103l-2,2h-1v-1h1h-2v1h-1h1v-1l1,-1h1l1,-2h2v1ZM296,95h1v1h-1v1h-1v-1v1h-1v1h-2v-1h1v-1h1v-1l1,-1v1ZM286,106h1l-1,1h-1l1,-1v-2h1v1ZM283,75h1h-2v1v-1ZM276,77h1l1,-1h1l2,-1l-2,1l-1,1h-1ZM281,74l-1,1h-1v1v-1h1v-1h1h-1ZM283,73h-1v-1h1ZM248,89h-1l1,-1ZM258,82h1ZM253,85h-1h1v-1ZM235,94h-1h2ZM240,91v1v-1h1ZM242,91h1ZM224,95h1h-1v1h-1l1,-1h1ZM219,97v-1h1ZM216,99h-1h1v-1ZM224,96h-1v1h-1h1v-1h2ZM210,100v-1h1ZM211,99h1ZM247,79l1,-1h1ZM254,67h-1v1v-1h1v-1h1ZM230,83v-1ZM199,105v-1ZM197,106v-1h1h-1v1v-1ZM194,107v-1h1ZM226,85v1h-1h1ZM191,108h-1h1v-1ZM192,107v-1h1h-1ZM190,108l1,-1h1h-1ZM293,93l-2,2v1h-1v1h-1l-1,1v1l-1,-1h1v-1h1v-2h1v-1h1h-1l1,-1l-2,1l1,-1h1v-1h2ZM298,89h2l-1,1v1h-1v1v-1l1,-1v-1l-1,1v2h-1l-1,1h-1l-1,1h-1v-1h2v-1l3,-3v-1h1ZM296,88v1h-1h2v1h-2l-1,1h1v1h-2v-1h-1v1h-1l1,-1v-2h1v-1h1v1v-1h1ZM292,98h1v1h-1v4h-1v-1v1h-1h1v1h-1v1h1l-1,1h-1v1h-1v-2h-1l1,-1v-1h1v-1h-1v-1h2l1,-1h-1l1,-1v-1ZM293,96v1h-1l-1,1h-1v1h-1l1,-1h1v-2l1,-1h1ZM258,83l-1,1v-1l-1,1h-2l2,-1h1v-1h1ZM204,103h-2v1h-2l-1,1h1v-1h1l1,-1h1v-1h2v-1v1h-1ZM208,100h1h-1v1h-1v1h-2v1h-1v-1h1l1,-1h1h-1h1v-1h2ZM192,107h1v-1h1l1,-1l-2,2ZM191,107v1h-1h1h-1l1,-1h1v-1v1ZM190,108l1,-1h1v-1v1h-1ZM54,349h-1v-1l1,-2v-3l1,-1v-1l1,-1v-2h1v8l-1,1h-1l-1,1ZM56,330l1,1h-2v-1ZM57,333v1h1l-1,1h-1v-3h1Z"/>
<path class="sl" d="M55,328v1h-1v-1v1v-1v1v-3h1v1ZM53,323h-1v-1l1,-1v-1h1v1l-1,1ZM51,323v-1h1ZM55,334v-2h1v1ZM581,200h-1h2l1,-1v1l1,-1l-2,1l-1,1h-2l-2,1h-1l-2,1h-2l1,-1h-1v1h-1v-1l1,-1h1l1,-1h6l1,-1h1h-1ZM602,177h-1v-1h1ZM570,203l1,-1v1ZM593,197h-2l1,-1ZM588,196h-1h1v-1ZM596,198l-1,-1h1ZM565,237l-1,-1ZM566,242h-1l1,-1v-1v1ZM564,242l-1,1ZM560,246h-1l2,-2h1l-1,1ZM522,310v1h-1v-1ZM522,310l-1,-1v-1v1ZM535,321l-1,2v-2h1v-1l1,-1ZM447,286l-1,-1h2v1ZM407,298v-1l1,-1v1ZM409,296h1l2,-2v1h-1ZM404,303h-1h1v-2l2,-2l-1,2ZM423,288l1,-1h1l-1,1ZM404,312l-1,-5v-3v3l1,4ZM260,246h-1v-1ZM262,252v-1l1,1ZM268,255h-1v-1ZM261,246l-1,1v-1ZM262,245l1,1h-1ZM270,251v1l-1,-1h-1v-1h1v1ZM297,145h-1v-1h1ZM295,146v-1ZM296,148v1v-1v1h-1v-1h1h-1v-1h1l1,-1v1h-1ZM571,209v1l1,-1ZM565,222l1,-1v-1v1ZM559,246h-1ZM528,325h-1v-1ZM532,324v-1ZM530,325h-1l1,-1h1ZM526,275l-1,1v-1ZM526,326h-1l1,-1ZM536,304l-1,-1l-1,-2v-1l1,1ZM524,326h1ZM469,284v1ZM472,280v1l-1,-1ZM476,280h-1ZM467,281v1h-1v-1ZM470,284v-1ZM499,285h-1h2v-1h1ZM291,154v-1ZM294,153h-1v-1h1ZM296,146h-1h1v-1ZM600,177v1ZM723,935h1ZM717,918h1v1h1l-1,1h1l-1,1h-1l-1,1v-1h1v-1h-1v-1h-1v-1h-1h2ZM972,644v-1ZM967,581v-1ZM187,730h-1v-1ZM677,376l-1,1v-1ZM637,910h1v1h1v-1h2v1h-1h1v1h-3l-2,1v1l-2,-1h-1v1h-1l-1,1v-1l2,-2h2v-1ZM629,911h1l1,-1h1v1l2,-1h1l-1,1h-1l-1,1h-1l-1,1h-2v1h-4l2,-1h2v-1h1h-1h1v-1h-1v-1h1ZM625,912h1l-1,1h-1h1ZM637,913v1l-1,-1ZM631,910h-1ZM630,914v1ZM529,369h1l-1,1h-1v-1ZM540,366h-1ZM541,366h-1h2ZM645,263h-1l1,-1h1ZM666,374l-1,1v-1ZM664,375h-1h2ZM666,372h-1ZM606,348h-1l-1,-1h2ZM604,347v1l-1,-1ZM601,347v1h1h-2ZM685,389h-1v-1ZM824,125v1ZM789,99v1l-1,-1ZM808,112v1l1,1h-1l-1,-1h-1v-1h-1v1h1h-1v-1h-1l-2,-2v-1h-1v-1h-1v-1h-1l-1,-1h-1h1v1v-1h-1v-1h-1l-1,-1v-1l1,1l-1,-1h1h-1l-2,-2h-1v-1h-1v-1h-2l-2,-2l-2,-1l-1,-1v1h1h-1l1,1l-1,-1h-1l-3,-3h-1v-1h-2v-1h-1v-1h-1l-1,-1l1,1h1v1l-1,-1h-1v-1v1h1v1h2l2,2v1v-1h-1l-2,-2l-2,-1l-1,-1h-1v-1h-1v-1h-1l1,1h-1l-4,-4h-1l-1,-1h-1v-1h-1l-1,-1h1h-1l-1,-1h-1v-1h-1l-1,-1h1h-1v-1h1l1,1h1v1l1,1h1v1h1l1,1h1h-1v-1h2l2,2h1v1l2,1l1,1h1v1h1v1v-1l1,1v1h1v1h1v-1l1,1h1l1,1h1l2,2l4,2v1h2l1,1h1v1h1l1,1h1l1,1h-1h1l2,2l2,1h1v1l1,1v-1h-1h2l2,2h1v1l1,1h1v1h1v1h1h-1h1v1h1v1h2l2,2v1h1v1h-1h1h-1v1h1v1l-1,-1v1h1h-1v-1h-1l3,3h-1v1l1,1h-1l-1,-1v-1h-1v-1l-4,-4h1v-1l-1,-1h-1v-1l-1,-1v1Z"/>
<path class="sl" d="M795,104h1v1l-2,-2ZM745,68h-1l-1,-1h1v1ZM744,68h2l2,2h1v1l-1,-1h-1v-1h-1l-1,-1ZM743,66v1h-1h1l-1,-1ZM756,76h-1ZM757,76h-1ZM755,75l1,1l-1,-1v1v-1h-1ZM754,74h-1ZM770,88h-1v-1v1ZM779,93l-1,-1h-1h1ZM772,89l-1,-1h-1v-1v1h1ZM775,91l1,1h1v1l-1,-1h-1ZM776,91v1v-1h-2v-1ZM757,79l1,1h1v1h1v1h1h-1v-1h-2v-1h-1h1h-1v-1h-1ZM767,86v-1ZM763,83h1v1h2v1h1h-2l-1,-1h-1v-1v1v-1h-1v-1v1ZM761,83h1ZM765,85v1v-1h-1l-1,-1ZM788,100h-1l1,1h-1v-1h-2v-1h-1h1v1h1v1l-1,-1h-1l-2,-2h-1h1h-1v-1l-1,-1h-1h1l-1,-1v-1l1,1h1l1,1h1v1h1l1,1h1h-1l1,1h1v1ZM815,117h-1v-1h1ZM700,436v-1h2ZM699,445l-1,1h-6l2,-1v-1h1v-3h-1v-1h-1h2l1,-1h3v1h-1l1,1l-1,1l1,1v1ZM890,190h-1ZM884,182h1v1l1,1v1h1h-1l-1,-1h1h-1v-1l-2,-2h1ZM884,181l-1,-1v-1v1ZM888,189h1h-1v-1h-1v-1l1,1ZM909,275l1,2v1l-2,-2v-1h1v-2ZM914,269v1l-1,-1v-1l1,-1h-1h1v1ZM916,275v1h-1h1v-1l-1,-2v-1l-1,-1h1v1l1,1v1ZM913,276v1l1,1v1h-1v-1l-1,-1v-1ZM908,278l-1,-1h1ZM907,280v1l-1,-1ZM905,275h-1v-1l-1,-1v-1h1v2ZM972,446v1v-1h-1v-1h1ZM14,618v1l1,1v1v-1l-1,-1ZM16,623v-1h-1v-1v1h1ZM695,419v-2h1v2ZM695,420v1ZM695,423h-1ZM697,413v1h-1v-3h1v1ZM681,385v1ZM681,384l-1,1v-1h-1v-1h1v1ZM337,28l1,-1h2l1,-1h1l-4,1ZM342,26h-1v1h-2l-1,1h-1h1v-1h1l2,-1h2ZM888,241h1l1,1h-1v-1ZM845,215v-1ZM811,200h-1l1,-1ZM830,204h-1v-1h1ZM828,205l-1,-1h-2h2ZM825,205h-1v-1ZM827,206h1h-2l-1,-1h1ZM839,209h2l-1,1l-1,-1h-1v-1ZM551,464v-2l1,1v1ZM528,472v1l-2,-2v-1h1v2ZM522,455v-1ZM550,464l-1,1v-1ZM742,64l-1,-1ZM748,67h1h-2v-1ZM705,44h-1ZM721,52h-1ZM724,54v-1h-1h1ZM683,35h2v1v-1h-1ZM687,36h-1ZM677,32l1,1h1h-2v-1h-1ZM702,43h1h-1v-1h-1ZM701,42h-1ZM711,47h1h-2ZM681,34h1h-1h1l1,1l-1,-1h-1l-2,-1h-1l-1,-1h-2l-1,-1l1,1h2v1h3Z"/>
<path class="sp" d="M679,33h1l1,1"/>
<path class="sl" d="M659,32l-1,-1h-1h1ZM631,17h-1ZM591,8h-1Z"/>
<path class="sp" d="M591,8v0"/>
<path class="sl" d="M601,10l1,1h1h-1v-1h-5l-1,-1h-1h1l1,1h1h-1h3Z"/>
<path class="sp" d="M600,10v0"/>
<path class="sl" d="M582,7h-1h1h-2l-1,-1l1,1h1h-1v-1h-1h1h-1h1h-1h1l1,1h5l1,1h1h-3v-1h-4ZM586,8h-1h6v1h1h-1v-1v1h5l1,1h4v1h5l1,1h3l1,1h-1v-1h-3l-2,-1h-1h1h-5v-1h-1h1v1h1h-1l-1,-1h-5v-1h-1h1v1l-1,-1h-5v-1v1h1l-1,-1h-1h2l1,1h-1h1h-1v-1h-1h1l1,1h1l-2,-1h-4ZM598,10h1v1h1h-1l-1,-1h-1ZM29,666v-1ZM50,690v-1ZM812,111h1v1ZM797,99h1ZM799,100v1ZM798,100v-1ZM800,101l1,1ZM810,109v1v-1h-1ZM797,98h-1ZM640,429v1h-1v-2h1ZM678,382v1l-1,-1ZM675,381h1ZM626,427l-1,-1h-1h1v-1v1ZM636,430h-1l-2,-1l-1,-1v-1l1,1v1h2ZM483,361h-1v-1h1v-1h1v1ZM328,348v1v-1h-1v-1h1ZM292,371h-1v-1h1ZM303,319v1v-1h-1v-1h1ZM293,286h-1l-1,-2v-2h1v2h1v1ZM277,293h-1l1,-1v-1h1v1ZM299,287l-1,1h-1v-1l1,-2h1v1ZM259,285v-1ZM485,353v1v-1h-1ZM444,375h-2l2,-1h1h-1ZM307,326v-1l1,1ZM288,265v-1ZM301,311l-1,1l1,-2ZM294,324l-2,-2h1ZM292,322l-1,-1v-1l1,-1l1,-3v1l-1,3v1ZM938,344v1v-1h-1v-1h1ZM2,530v-1ZM3,541h-1ZM31,548v-1ZM49,613v-1ZM29,561v-1ZM23,495l1,1l-1,-1v-1v1v-1ZM19,476v1ZM1,526v1ZM563,376l1,1h1l1,1h1l3,1l1,1v1h-4v-1h-1v1l-1,1v-1h-1v1l-1,1v-1h-2l-2,-1l-1,-1h-1l-1,-1h-2v-2h2l1,-1h5ZM888,184h-1v-1h-1l-1,-2l-1,-1v-1h-1v-1h-1v-1l-1,-1h-1v-1l-2,-2v-1h-1h1h-1l5,5v1l1,1h1v1l2,2v1l1,1Z"/>
<path class="sp" d="M877,172l5,5v1l1,1h1v1l2,2v1l1,1h1"/>
<path class="sl" d="M888,184v1v-1h-1ZM877,171h-1ZM784,103h1h-1v-1h-1h1ZM779,96h1l1,1v1h1h-1h1l2,2h1l1,1v-1h-1v-1h-1h1v1h2v1h1l-1,-1h1v1h1v1h1l1,1h1v1h1l2,2h1v1h1v1l1,1h1v1h1v1v-1v1l-1,-1l1,1v1l1,1h-1h1v3l-1,-1v-1v1h-1v-1h-2v-2h-2v-1l1,1v-1h-1l-1,-1v-1l-1,-1l1,1h-1l1,1h-1v-2h-1l-1,-1v-1h-3v-1h-1v-1h-1l-1,-1h1h-1l-1,-1h-1v-1h-1v-1h1v1v-1h1h-1v-1h-1v-1h-2v-1h-1v-1h-1v-1h1v1h1h-1v-1h-1l-1,-1h1v1h1ZM689,49l-1,-1h1l1,1h1v1h3v1h3v1h2v1h1l1,1h1h-1h1v1h1v1h1h-1v1h1v3h1v1h-2l-1,-1h-3v-1v1h-1l-1,-1v1h-2l-1,-1h-1h1v-1h-1v-1v1l-1,-1h-1v-1v1h-1v-1h-3v1h-1v-1h-1h1v-1h2l-1,-1v1h-1v-1h-1v-1h-3v1h-2v-1h1h-1h1v-1h-3v-1h-1h2v1v-1h1h-1h1v1h1l-1,-1h-2v-1h-1h3l1,1h2v1h1h-1h1l1,1h1l1,1h1h-1v-1h-1l-1,-1h1v1v-1l-1,-1h-2v-1l1,1h2l1,1v-1h-2v-1h-1h1h-1h2l1,1h1h-1l-1,-1h-1h2v-1l1,1v-1h-1l-1,-1h-1h2l1,1ZM487,394l-2,1l1,-1h2ZM491,394v-1h1ZM606,365h1v4l1,1l-1,1v3h-1l-1,1h1v1l1,1h1l-1,1l1,1h-1l-1,-1h-7l-1,1l-2,-1h-5v1l-1,1l-1,-1v-1h-1l-2,-1h-1v-1l2,-2l1,1h4l7,1h1v-1h2l1,-1h-1l-2,-2l-2,-1l1,-1v-2l-1,-1l-2,-1h-3v-1l1,-1h7l2,1h2ZM599,373v1l-3,-1l-1,-1h1l2,1ZM599,363h-2v-1h1ZM957,417v-1ZM958,417v-1ZM958,416v-1ZM958,413v-1ZM957,414v-1ZM956,410v1ZM692,429v-2h1v2Z"/>
<path class="sp" d="M789,92v0"/>
<path class="sl" d="M788,91v1l-1,-1ZM788,92h1h-1v-1ZM873,167v-1h-1v-1h-1v-1h-1v-1h-1v-1h-1v-1h-1v-1l2,2v1l4,4v1Z"/>
<path class="sp" d="M867,160l2,2v1l4,4v1"/>
<path class="sl" d="M846,145l-1,-1ZM697,407v1h-2v-2h-1v-2l1,1h1v1h1ZM692,393h-2v-3l1,1v1h2ZM690,395h-1l-1,-1v-2h2v2ZM693,396h-1v-1h1ZM664,159v-1ZM664,158h-1l-1,-1h1v1ZM677,378h-1v-1h1ZM678,379h1ZM60,657v-1ZM68,665v-1ZM61,659v-1h-1v-1l1,1ZM70,666l1,1v1l-1,-1h-1v-2h1ZM100,605l1,1h-1ZM100,607v1ZM103,612v-1ZM94,598l-1,-1h1ZM95,602h-1l1,-1ZM106,672h-1v-1h1v1h-1ZM97,598h-1ZM107,677v-1ZM106,675l-1,-1h1ZM129,680h-1v-1v1ZM125,678v-1ZM124,698l-1,-1ZM94,657v-1ZM91,661h-1v-1v1ZM83,654h-1v-1ZM82,657v1v-1h-1v-1ZM541,562h-1v-2h3l-1,1h-1ZM552,525h-1h1v-1ZM452,543l-2,-1v-1h3v2ZM460,544l-1,1v-1h-1h1l2,-2v2ZM443,540h-2v-1l1,-1l1,1ZM451,548v-1h1v1ZM444,536l1,1v1l2,2v1l1,1v1l-1,1l-2,1h-2l-1,-1v-1l1,-1h2v-1l-1,-2h-1v-3h-1v1l-1,-1h1v-1h2ZM450,539h-3l1,-1h1ZM608,379l-1,-1l1,-1h-1l-1,-1v-1h-1l1,-1h1v-3l1,-1l-1,-1v-4h-1h1v-1h5l1,-1l1,1h1v1h3l1,1h1v-1h1l1,1v2h4l1,1h-3v1h3l1,1h2l4,2l1,1l-1,1v1h-1v1h-2v-1h-10v1h-1l-2,1l-1,-1h-4v2l-1,2l-1,1v1h-1v-1h-1v-1l-1,-1ZM693,401h-1v-1l-1,-1v-1h1l1,1v1ZM546,7h3l-1,1h1v-1h8v1h2l-3,1h5v-1h1l1,1h4v1h3v1h1l-1,-1h-2v-1h-1h1l-1,-1h-1h5l1,1h2v1h4v1h1h-1v1h5l1,1h2l1,1h1h-1h2l1,1h2l1,1h3l2,1h5l1,1h1h-3l1,1l-1,-1h-1l1,1h6l1,1h3v1h3l1,1h-1v1l-1,-1h1v1h1l-1,-1h1l1,1h1l-1,-1l1,1h3l1,1h1h-1h1v1h-2l-1,-1h-1h1v1h6l1,1h1l-1,1h-3l-2,-1l1,1h-1l-1,-1h-1h1l1,1h1v1h-1h1h-1v1h1v-1h1l-1,-1h3l1,1h4l1,1h1l1,1h2v1v-1h-5l-2,-1h-1l-1,-1h-1v1h1h-1v1h1v-1h1l2,1h2l2,1h3l2,1h2v1h1h-1v-1h1l1,1h1l1,1h2l1,1h1v1h-1l-1,-1l-2,-1l1,1l2,1h-2l-1,-1h-3l-1,-1h-2l-1,-1h-1l1,1h1v1h-2l1,1h1v1h-1h3l1,-1v1h1v1h1l-1,-1h9v1h-1h1h-1h1v1h1h-1h1v1h1v1l1,1l-1,1h-1v1h-2v1h-1h1h-4l-1,-1v1h2l1,1v1l1,1v1h1l2,2v1h1v1h-2l-1,-1v1h1l1,1v1l-1,-1v1h1h-2l1,1h-2v-1h-1l-1,-1v-1h-2l1,1h1v1h-1h2l1,1h-3l-1,1h-1h3v2h-2l1,1l1,-1l1,1h1l1,1v1h-2l1,1h2l1,1h2l-1,1h1h-1l2,2h-3l1,1h2v1h-2v1h2l2,2h1l1,1h-1v1h2v1l1,2l2,1v1h-2l1,1h2v1h1v1h-1v1h-1v-1h-2v-1h-1v1h1h-1l-3,-1l-1,-1h1v-1l-1,1h-3v-1h-1l-1,-1v-1h-1h1l-1,1h-1v1h-5l1,-1h-2l-1,-1h-3v-1h-1l-1,-1h-1v-2h1h-2v1h-1v-1l-1,-1h-3v-1h-1v-2h-1v1h-1v-1h-2l-1,-1h-1l-2,-1l-2,-2h2v-1h1h-2l-1,1l-1,-1v-1h1v-1h2l1,1l-1,-1h-2l-1,-1h-1v-1h-1h1v1h1v1h-1v2h-1v-1h-1v-1h-1l-2,-2h-1v-1l1,-1h1h-2v1h-4v-1l-1,-1h-1l2,-2v-1h1v-1h-1v1l-1,1v1h-2v1l-1,-1v-1h-1l1,-1h1v-1h-5l-1,-1v-1h1v-1h5l2,1l-2,-1h1h-6l-1,1h-1v-3l2,1h2v-2l-1,1h-5v-1h5v-1h-1l-1,-1h2l-1,-1l-1,1l-1,-1v-1h-1l1,-1h-6l-1,-1h-6l-1,-1h-1v-1h5l1,1h3l2,1v-1h-2l-1,-1h-1l-1,-1h1h-6v-1l2,-1h-2l-1,1h-1v-1h-1v-1h-2l-1,-1l1,1h1l1,1v1h1h-1l-1,1l-1,-1h-2l-1,-1h1h-1v-2h-1v1h-1h1v-1h-1h1v-1h-1l-1,-1v1h-1v-1h-1v-1h-3v-1h-1l-1,-1h-2v-1h-1h1h-2v-1h-3l-1,-1h-2v-1h-3l-1,-1h-7l-1,-1h-1v1h-6l1,1h-1l-2,-1h-4v-1h1h-2l-1,-1l-1,1v-1h-1l2,-1l1,1v-1h4v-1h-1l-1,1h-1l-1,-1v1h-3v-1h-1h1h-4l-1,-1h-1h1h-1v-1h5v-1h5v-1h-1v-1h-4v-1l1,-1h2l-1,-1h2l-1,-1h4l1,1h1h-1l-1,-1h-3l1,-1h5l1,1h1h-1v-1h1l1,1h2v-1h-2h4v-1h-1h-4v-1h4v-1h-1h4Z"/>
<path class="sl" d="M591,42h1l1,1h2v1h-2l-1,1h-1l-1,-1h1h-4v-1h-1v-1h1h-2v-1h4v1ZM597,43h-1l-1,-1h2ZM584,39l-1,-1h1ZM574,33h-1v1h-1v-1v1v-1h-1h2ZM525,21h-1ZM544,10h-3l-1,-1h-1h4v1ZM641,35h1l1,1h-1h1h-2l-1,1l-1,-1h-1l-1,-1h2v-1l1,1ZM565,8v1l-1,-1h-1h1ZM581,12h1h-2l-1,-1h2ZM595,15h-3l-1,-1h1v1h2ZM610,20h1l-4,-1l-1,-1h-1h1l2,1ZM616,21h1v1h1h-1l-1,-1h-1ZM598,16l-1,-1ZM653,56h-1ZM652,79h-2l1,-1h1ZM590,39h-1ZM731,64h1h-2ZM734,66l-1,-1h-1h2ZM728,63h1ZM728,62l1,1h1h-1l-2,-1ZM728,62h1h-2ZM783,88l-1,-1h-1v-1h-1l1,1h1Z"/>
<path class="sp" d="M780,86l1,1h1l1,1"/>
<path class="sl" d="M787,91l-1,-1h-1v-1h-1l-2,-2l-2,-1h-1l-2,-2l-2,-1v-1h-2v-1v1h1l-2,-2h-1h1l2,2h-1v-1h-1l-2,-2l-2,-1l-1,-1h-1v-1v1h1l2,2h1l1,1l2,1l1,1h1h-1h1l1,1h1v1l-1,-1l2,2h1l1,1l-1,-1l1,1h1v1h1l2,2h1l1,1ZM781,87h1l1,1h1v1h1h-1l-2,-2h-1h1ZM787,90h-1l1,1Z"/>
<path class="sp" d="M786,90l1,1"/>
<path class="sl" d="M787,91v-1h-1l-1,-1h-1h1l2,1ZM787,90h-1ZM787,90h-2v-1v1h1ZM780,86l-1,-1h-1h2ZM769,79v-1h-1h1ZM524,337l2,1h2l1,-1v1h5l1,1h3l1,1h1l2,1l1,1v1h2l1,1h4l4,2l2,2h2l1,1v-1l2,1h1v1h-2l1,1h1l1,-1l2,2h1v1h4l1,1h4v1l-1,1h1h-1v1h4l2,1h2l2,2h2l1,1v1h-1l-1,1h-3l-1,1h-2v-1v1h-5l-3,-1h-1l-2,1h-6l-2,1h-2l5,-5v-1h-1v-1h-3l-2,-1h-2l-2,-1l-1,-1l-1,-2v-1l-1,-1v-1h-1l-3,1l-1,-1l-5,-1l-2,-1h-1v-1h-1l-1,-1h-5v-1h-1v1h-1l-1,-1h-4l-1,-1l1,-1h2v-1l-1,-1h-7v1h-1l-1,1h-1v1h-2v1h-3l-1,1h-1v1l-1,1h-1l-2,1v-1h-3l2,-1h2v-3l2,-2v-1l11,-3h1l2,-1h2ZM558,347h-1l-1,-1h2ZM555,344v1l-1,-1h-1v-1h1v1ZM550,342h2l1,1h-3l-1,-1ZM556,346l-1,-1v-1v1h1ZM518,351l-2,1h-1l-1,-1h1v-1l-1,-1v-1l1,-1l2,1l1,1v1ZM544,341v1l-2,-2ZM559,514h-1v-1v1ZM316,757h-1v-1ZM544,806l-2,1l1,-1ZM585,918l-1,1v1l-1,2l-1,1v1l-1,1v2l-1,1h-4l-1,-1v1h-5l-1,-1h-4v-1h1v1h1v-1h4l1,1v-1l1,1v-1h-1v-1h-1v-1l1,-1h1v1h-1v1h2l-1,1h5v1v-1h1l-4,-1v-2h1l2,-1h1l1,-1h-6v-1h1v-1l1,1v-1h1h-1v-1h1v1h1v-1h1l1,-1h1l1,1l2,-1ZM587,929l-1,1h-1v-1l-1,1l-2,-1v-1h5ZM570,868h-4v-1h1l1,-1v-4h1v-1l1,-1v-1l2,1h1v2h-1v1h1h-2v1l1,1v2h-2ZM559,901l-1,1v3h-2v-2h1v-1l-1,1h-1v1h-3v-1h2v-1h-1l1,-1h1v-1h1v-1h1l1,-1v1h1ZM553,899v-1l1,-2v-1h1v1l1,1v1h-2ZM555,919v1v-1v1h4l1,1h1h-3l-1,-1h-3v-1h-1h1ZM559,898h-2v-1h-1v-3h2v1h1v2ZM561,922h3v1h1l-1,1h-1l-1,1h-1v-1h1h-3v-1h-1v-1h-1h2ZM554,913v1h1v1l-1,1h-1l-1,-1v-1h1ZM575,928l4,1l1,-1h1v1h-1h1v1l1,1h-4v-1l-1,-1l-1,1v1h-1v-1h-1v-1h-1h1v-1ZM568,924l1,1h1v1h-2v-1h-2v1h-1v-1h-1l1,-1h2ZM569,874l-1,1h-1v1h1v3l-1,1h-1v-1h-1v-1l-2,-2h1v-1h1v-1l1,1l1,-1v-1h1v1ZM573,877h-3v-1h1v-1h1v-1h1l1,1h1l-1,1ZM552,909v-1h1ZM556,899l-2,2h-1v-2h2ZM557,894h-1v-1h2ZM564,870h-1ZM569,877h-1v-2h1v1ZM556,911v1h-3l-1,1v-1h2l1,-1ZM554,907h-2v-1h1v-1h1l1,1h1h-1ZM569,871h-1v1h-1v-1h1ZM557,915h-1v-1h1ZM564,882h-2v-1h1v-2h1v2ZM583,932h-1h2ZM590,929l-1,1v-1ZM569,928v1h2v-1h1v1h-1v1v-1h-3v-1h-1v1v-1h1ZM585,932h-1v-1h1ZM913,372h-1v-1l1,-1v1ZM924,388v1h-1v-1l-1,-1v-1l1,1ZM914,373h-1l1,-1ZM924,377h1v2h-1v-1ZM921,389v1h-1v-2ZM918,374v1h-1v1v-2ZM923,373v1l-1,-1v-1ZM925,386v1l-1,-1v-1h1Z"/>
<path class="sl" d="M283,110v1l1,-1v1l-1,1l-2,1h1l1,-1h1v-1h2v-1v1h-1l-2,2l-1,2h-1l-2,1v-1h-1l1,-1v1h1l-1,-1v-1l1,-1v-1h1l1,-1ZM281,116v1h-2v1h1l-1,1v1h-1h1l-1,1h1l-1,1v-5h1l-1,-1h2l1,-1ZM286,132h2l2,1h1l1,1v4h-1v1h1v1h1l1,1v2l-1,2h1v-1v2h-4l-2,-2h-1v-1l2,-1l1,-1h-1v1h-3l-1,-1h1v-1h-1l1,-1h-2v-1h2l-1,-1v-1h-2v-1h1v-1v1h-1v-1h-1v-1l1,-1h1v1v-1h1h-3v-1l1,-1h2ZM458,18h1h-3l1,-1h1ZM455,19h1h-2v1h1h-3l-2,1l-1,-1l1,-1h4ZM444,20l-2,1h-1v1h-3l-1,1h-1v-1h2v-1l-1,1h-2l-1,1h-3v1h-2v-1h1h-3l1,-1h4v-1h4l1,-1h6ZM452,24h1l-1,1h2l1,-1h2v1h-1l-2,2h-11v1h-8v-1h7l1,-1h1h-4v-1h-1v1v-1h-1v1h-3v1v-1h-1l-1,1v-1h-2v-1h3v-1h2l1,-1h3l1,-1h1v1h1h-1h2v1h1h-1h1v1h1l3,1v-1h-1l1,-1h1l-1,-1h2l1,-1h2l-1,1v1ZM426,34h1l1,-1v1l1,-1h5v1h-2l-1,1h1l1,-1v1l1,-1h3l-1,-1h2l1,1v2h-1v1h2l1,-1h-1l1,-1v-1l1,-1v-1h5v1h1v1l-1,1v3l-1,1h-1l1,1v1h3v1h2v1h2l-1,1v1h-1v-1h-4v1h-2v-1h-1l1,1v1h-1h2l1,-1h1v2h-4v1l-1,-1l-1,1l-1,-1h-3v-1h-3v-1h-1l-1,1h-2v1h-5l-2,1h-11v-2h1v-1h-5l-1,-1v-2h1l2,-1h9l1,1h3v-1h-1l-2,-1h-11v-2h5l1,-1h3h-5l1,-1h-3l1,-1h2l1,-1h1v-1h3l1,-1h5l3,-1h1v1h-1l-1,1h-1ZM422,29l1,-1v1h-1h1l1,-1h3v1l1,1v1h-4l-1,1h-3l-3,1h-1l-2,1h-2l-1,1h-1l-2,1h-1l-1,1h-5l-1,1v-2h1v-1h-1v-1h-1h1v-1h4v-1h2v-1h1h-1h2l1,-1h1l1,-1h1l1,-1v-1h8v1h1ZM516,9h3v1h-1h3v-1l1,1v-1l1,1h4v1h-3v1h-2h3l-1,1h-1v1h-2v1h-1h1h-1h1v1h-2l-2,-1h-1v1h1h-3v1h1h-4l1,1v-1h3v1h1h-1v1h1v1h-4l1,1h-2l-2,1l-1,-1h-1l-1,1h-1h6l1,1l1,-1l1,1h-1l-1,1h-6v-1h-1v1h-3l-1,-1v1h-4v-1l-1,1h-1v-1v1h-2v-1h-1v1h-2l2,-2h4v-1h-2v-1h4v1h5l1,-1l-1,1h-4v-1h1v-1h1h-2v1h-1v-1h-2v-1h9v-1v1h-4v-1h-1h1l-1,-1h-2l-1,-1h7v1h1v-1h-2v-1h6l1,-1h1h-2l1,-1h-1v1h-2v1h-9l1,-1h1h-2l-1,1h-3v-1h1h-1v-1h-1h1h-2l1,-1h6l1,-1v1h6l1,1l-1,-1h-3v-1h1h-1h5v-1h3l1,1h1h-1v-1h3v1l-1,-1h1ZM480,20h5v1h-6v-1ZM480,28h1h-1v1h-3v-1h-3v-1h1l1,-1h4v1h1ZM464,31h6v1h-1l-1,1h-2v1l1,-1h1v1h1l-1,1h1l1,-1v1h-1v1l-1,1h-1v1h-3v-1h-1v2h-3v-2h-1l-1,-1h-1v-1v1h-1v-1h-1v-2h2l1,1h2l1,-1v1v-1h1v-1h-1v1h-1l-1,-1h3l-1,-1h2ZM500,62h3v1h2l1,1h2l2,1h1v1l1,1l-1,1h1l1,-1l1,1h1v-1l1,1h1l1,1h-1l-1,1h-3l-2,-1h-2v-1h-2v-1h-2v1l-1,1h-1l-1,1h-1v1h-1l-2,1h-1v-3h-4l-1,1h-1v-1h1v-1h2v-1h1l-1,-1v-1l1,-1v-2l1,-1v-1h3v2Z"/>
<path class="sl" d="M474,23v1l-1,1h-1l1,1h-1l-1,1h1h-6v-1h-1h1h-4l1,-1h2v-1h1h-1l1,-1h1v1l1,1h1h-1v-1h1h-1h1h-1v-1h5ZM470,16h1v1h2v1h1v1h1v1h-4l1,-1h-6v-1h2v-1h1h-2v-1h1ZM491,13v1h3v1h1h-1v-1h2v1h-1h2v1h-1h3v1h1h-3v1v-1l-1,1h-1v-1l-1,1h1v1h-1v-1h-1v1h-1l-1,-1v1h1h-6l1,-1h-2l-1,-1h4v-1h-1l-1,1h-1v-1l-1,1h-1v-1h1h-1l-1,-1h1v-1h3v-1h-1h3v-1h1l1,1ZM481,22h1l1,1l-1,1h1l1,-1h4v1h-1h1h-1v1h4v1h-1h6v1h2l-1,-1h5v-1l1,1h1l1,-1h1l1,1h4l1,1h-1l-1,1h1h-1h1v1h-7v-1h-1v1h-11v-1h-1v1v-1h-1v1h-4v-1l-1,1h-1v-2h-1l1,-1v-1l-1,-1h-6v-1h-1h1v-1h3ZM480,18h2v1h-1h1v1h-5v-1h1h-1v-1h2ZM480,30h2v1h4v1h-1l-1,1h-1v1h-2v1h-1l-2,-1h-2l1,1v1h-1l-1,1h-3l1,-1v-2h-1h1v-2h1v-1h1l1,1v-1h-1l1,-1h3ZM462,45h2v1h1v1h1v1h1h-2v1h-6v-1h-3v-1v1h-1v-1h2v-1h1v-1h2v-1h2ZM640,165h1h-1h1v1h2v-1h-1l1,-1h-1l1,-1v-1l1,1h2v1h1v1h-1l-1,1v1h-6v-1l-1,-1v-2l1,-3v-1l1,-1h1l1,1v5h-1ZM607,171h-1l-1,-1v-2h-2l-1,-1v-2l-1,-1v-2l-1,-2v-1l-2,-2h-2l-1,1h-2l-2,-2v1h-1v1l-2,2v3l-1,1v4h-1v2h-1v1v-1h-1l-1,1h-1l-1,1h-2l-3,1h-14l1,-1l2,-1h1l1,-1h2v-2l1,-1v-1l1,-1h2l1,-1v-1h1l1,-1h2l1,-1h2l1,-1l2,-1h1l1,-1v-2l3,-3h1l1,-2h1v-1h1l1,-1l4,-2h2l5,-2h8l2,2h1h-1l1,1v2h-2v1h-1v1h-4l-1,-1v1h-4l1,1l1,-1l1,1h3l1,1v1l1,-1h1l1,-1v1h2l-1,1v2l-1,1h3v3h1l1,1v1h1l2,1h2l-1,1h1l2,1h6v1h-1h2l2,-2l2,2h3v1l-1,1h2l-1,1h-1l-1,1h-1l-1,1h-1l-2,1h-2v1h-2v1h-1l-1,-1h-1h1l-1,1v-1h-1v1l1,1h-1v1h-1v1l-2,2h-1v1h-1v1v-1h-1l-1,-1h-2l-1,-2v-2l1,-1h-1l-1,1v-1h1v-1h2l1,-1l-1,1h-1v-1h1l3,-2l1,-1h2l-1,-1l1,1v1h1l1,-1l2,-1h2h-9v-1l1,-1h1v-1h-1l-1,-1v1h1l-2,2l-2,1l-1,1h-3v-1l-1,1h1l-1,1h-4ZM653,129v1h-1l-1,1h1v1h1v1l-1,1v3l-1,1v1h1v2l1,-1v-1l1,-1v1h1v-1h1v1h1v-1l1,1h-1l-1,1v1v-1h1v1l-1,1h1l1,-1v1h1l1,-1v1h1h-1v-1h1v3h1l-1,-1h1l2,-2l1,1l2,-1v1h2l1,1v1h-1v1l-1,1l1,-1h1v1h-1h2v1h-1v1h1v-1h2l1,-1v1h1l-1,1h-1v2h-1h1v2h2v-2h1v-1h1v4l1,1v-2h1l1,1v3l1,1v1l-1,1v-1h-1l-1,1l-1,-2v-1h-1v1l-1,1l-1,-1v-4h-1l-2,-2v2l-1,1h-1v3l-1,1l-1,-1v1h-2v-2h2v-2h1l1,-1h-3v1h-4l1,-1v-1h-2v1h-2v1h-1l-3,-1h-6v1h-4v-1l-1,-1v-1l2,-1v-1h1l1,-1h-5l1,-1h1h-1h1v1h1v-3h1v-1h1h-1l-1,-1v-1h2l-1,-1h-1v-6h1h-1v-1h1v-3h1v-1h1l1,-1l1,1h1v-1h-1h1Z"/>
<path class="sl" d="M495,40h5v-1h1l-1,-1h-2v-1h-1h1v-1h2l1,1v-1h-1h1h-2l-1,-1v-1h1l-1,-1h3v-1h4l1,-1l1,1h2v1h2v1h1v1h-1l-1,1l1,-1v1h-1l1,1h-1h1l1,-1h4v1h1h-1v-1h1v-1h8l1,1l-1,1v1h-1h1v-1h3v1h-1h1h-1l1,1h-1h1v-1h2l-1,1h1v-1h1v1h1v-1h5v1h1v1h-3v1h1v-1h4v1h-1l-1,1h1v1h1v-2h7v1h-2v1h-1h3v1h1v-1h1h-1v-1h1l1,1h1l1,1h-2l-1,1h-1h6l1,1h-5l-1,1l1,-1h1l1,1h1v1h-1l1,1h3l1,1h1v1v-1h2l-1,1h1v-1h1v1h2v1v-2h1v1h2l1,1h1v1h-1h5v1l-1,1h1l1,-1h1l1,1v-1h2l1,1h1v1h-1l-1,-1v1h2v1h-2l-1,-1v1h1h-1h1l1,1h1h-1v2h-2v-1h-1l-1,1h2l1,1v2l-1,-1h-2l-1,-1v1h-1l-1,-1h-1v-1h-1l-1,-1h1v-1h1v-1h-1v1h-5v-1h-2v-1h-2l1,1h-2v1h3l-1,1h-2l-1,-1h-1h1v1h2v1h2v1h1l1,1h1v1h3v1l1,-1l1,1h2l-1,1h2v1l-1,-1l-1,1h3v1h2l1,1v1h1v1h-1l-2,-2h-1h1v1h1v1l1,1h1v1l-1,-1v1l1,1h-1l-1,-1h-2v-1h-3v-1h-1l1,1h-1l-1,-1h-1l-1,-1h-2v-1h-1l1,1h1v1h-1l-2,-1l-1,-1h-1v1h1l1,1h1v1h3l1,1h1l1,1h2l1,1h1v1h1v1h1l-1,1l-1,-1h-4v-1h-6l-1,-1h-2l-1,-1h-3l-1,-1h-2v-1l-1,1v-1h-1l-2,-1h1l1,-1h-4v-1h-1l-1,-1h-1l-1,-1h-1v-1h-2v1h-1v-1h-2v-1h-1l1,1l-1,1h-1v-1h-2v1h-3v1h-1v-1h-4l-1,-1v-2h2v-2h1l1,1h4l1,1v1h1v-1h-1l-1,-1h5v-1h2v-1h-2l-1,-1v-1h1l1,-1v-1h1v-1h1l1,-1l-3,-3h-1l-1,-1h-2v-2h-1v1h-1l-1,-1h-1h1h-1v-1l-1,1l-1,-1v1h-2v1h-1v-2h2v-1h-2l-1,-1h1h-2v-1h-3v-1h-3v-1h-2l1,1h1v1h-7l-1,-1l-1,1h3v1l-2,-1h-11l-1,-1l-1,1l-1,-1h-1v-1h-2v1h-3v-1h-2l-1,-1v-1h3l1,1h1l1,-1h-4l-1,-1h-2v-2l1,-1v-1h1v-1h1v-1h1v-1h3l1,-1h6v1h-2l-2,2h-1v1h1v2l1,1h1l1,1l-1,1h-2ZM628,145h-5l-5,-2h-1l-1,-1l-4,-1l1,-1h1l2,1h4l1,1l5,1l2,1l1,1ZM624,162v-1h1v1h8l-1,1h-1v1h1v1h-2v-1h-1h1h-1l-1,-1h1h-1l-1,1h1h-2l-1,-1h-1v-1h-2v-1h-2v-2h1v-1v1h1l-1,1l2,1v1ZM511,72v2h-1l-1,1l-2,1h-2l-1,-1v-1l2,-1h1l1,-1l1,1l1,-1ZM521,75h1l1,1v1h-1v1h-1v1l-1,-1h-1v-3h1ZM529,50h3v4h-6v-1h-1v-2h1v-1h2ZM513,32h6v1h3v1h-8v1l-1,-1h-1v-1h-2v-2h1l1,1ZM522,125h-2l-2,-1h-3v-1h1l2,-1h1l2,1v1ZM529,106v-2h1v2ZM529,105l-1,1v1l-1,1v-1l1,-1h-1v1h-1v1h-1l1,-2l-2,2v-1l2,-2v-1v1h1v-1h1v1ZM524,106h-1v-1h2v-1v1ZM490,22l-2,-1h3v1ZM462,21v1v-1h-1v-1h2v1ZM479,15v1h-1v-1h-1h1ZM449,33h-1v-1h-1v-1h5v1h-1v1h-1ZM464,25h-4l1,-1h-1h4ZM462,23h1v1h-2v-1ZM431,25h-1l-1,-1h5v-1h1l-1,1h-1l-1,1Z"/>
<path class="sl" d="M449,19l-1,1v-1h-1h1ZM291,109v-1h1ZM278,123v-1ZM291,112h-2l1,-1h1ZM288,116v-2h-1h2v2ZM293,107h1l1,-1h1l-2,1ZM292,118l-4,4v-1h1v-1l1,-1h-1v-1h1v-1h1v-1h1v1ZM285,139v1h-1h1ZM294,139v-1h-1v-1h1v1ZM284,138h-1v-1h1v-1h1v1h-1ZM292,135v1v-1l1,-1v-1l1,1h-1v1ZM288,120v1v-2l1,-1v2ZM287,126v1v-2h1v1ZM290,121v-1l1,-1h1l-1,1ZM289,117v-1h1ZM290,117v-1h1ZM294,144v-1h1v1ZM652,178h-1h1l1,-1ZM642,168l-1,-1h1ZM632,156v1l1,-1v1h-1v-2l1,-1h1v1h-1ZM617,153l-1,1v-1ZM617,153h-1v-1ZM614,177v-1ZM610,174v-1ZM569,170h-3l1,-1h1l1,-1v1ZM568,169h-1v-1h1ZM582,160h-1h1v-1h1ZM655,134h-1ZM663,141h-1h1v-1ZM665,140h1l-1,1v-1h-1ZM672,154v-1ZM579,73h1l1,1h-2ZM571,84h-1v-1h2v1ZM558,74h-2v-1h-2v-1h1l1,1h2ZM582,79h-1v-1h-2v-1h3v1ZM580,76v1h1h-1l-1,-1ZM570,90l-1,1v-1ZM586,83v1l-1,-1h-1h1ZM613,105h-1v-1v1ZM605,97h1v1h-1l-1,-1ZM551,45h-1v-1h1ZM574,54h-1v-1h1ZM512,25h-1h2ZM524,103h-1v-1h1ZM524,99h-1h1h-1h1v-1ZM525,103h1ZM526,122h-1ZM529,130h-1v-1h2ZM295,143v-1ZM293,136v-1h1h-1ZM537,52h-3l-1,-1h4ZM527,70h1l1,1h-1v1h-1v-1h-2v-1h1ZM479,26v-1h1ZM520,88h1ZM521,87h1ZM470,34h-1v-1h1ZM471,29h-1ZM468,31h-2v-1h3v1ZM484,46h-1v1v-1ZM483,47h-1v-1h1ZM543,74h-1l-1,-1h2ZM532,50h-1l-1,-1v-1l1,1h1ZM527,83h-1l1,-1h1v1ZM519,50v1l-1,-1ZM532,70h-2l-1,-1h1l1,1ZM516,45h1h-2v1h-1v-1h-1h2ZM521,45h-1l-1,1h-1l1,-1h1ZM527,68h-1h1l1,-1v1ZM506,58h1ZM518,48h-1v-1h2v-1h1v1h-1v1ZM524,47h-1v-1h2v1ZM494,43h1v1h-2v-1ZM504,60h2v1h-2v-1h-2v-1h-1h3ZM494,52h-1v-1l1,-1h1v2ZM501,61h-1l-1,-1v-1h1v1h1ZM466,77h1ZM467,23h1ZM468,19h1ZM469,20h-1h2ZM490,24h-1v-1h1ZM476,26h-2v1v-1h1ZM476,29h-1ZM427,24h1v-1v1ZM445,22h-1ZM457,27h-1l1,-1h2v1h-1ZM452,48h-1v-1h1ZM453,47h-1ZM455,42v-1h1v1ZM468,45v1h-1v-1v1h-1v-1h1ZM451,46h-1v-1h1h-1h1ZM447,48h-1ZM438,49h-1v-1h1ZM425,53h-1v-1h1v-1v1ZM423,50v1ZM423,54h1h-1v1ZM358,40h1ZM788,532h2l1,-1h5v1h1v2l-1,1v2l-1,1v1l-1,1v2h-1v1h-1l-1,-1v2h-1v-1h-1v1l-1,1h-5l-1,1l-1,-1v-2l-1,-1v-2h1v-1l-1,1v-5h1l-1,-1l1,-1l1,-2h2ZM800,721v1h-2l1,-1ZM765,748v-1l1,-1v1h-1ZM791,728h-1l1,-2l1,1h-1ZM823,553v1v-2ZM851,638v-1l1,-1v1ZM849,641v-1ZM821,539v1h-1v-1Z"/>
<path class="sl" d="M788,527v1l-1,2h-4v-1l1,-1h1l2,-1ZM783,513v1l-1,-1v-2h1ZM781,531l-2,2h-1v-2h2ZM790,531h-3v-1h1v-1h2v1ZM783,529l-1,1h-1v-2h1v-1l1,-1v2ZM785,527h-1v-2h1v-1v1ZM772,543l1,-2v-3l1,-2l1,-1h2v1l-1,3l-1,2l-1,1ZM762,758v-1l1,-1h1l-1,1ZM474,381l1,-2ZM475,385l-1,2v-1l1,-1v-1ZM708,419h-1v-2h1v1l1,1ZM557,328l-1,1h1v-1l1,1v3h-2v-2l-2,-2h2ZM560,315h-1v-1h-1l1,-1v-4h-1l-1,-2h-3v-1h1l1,1h1l1,1h1v1h1l1,1v1l-1,1v2ZM595,353v1l-1,1h-4v-1h1v-1h4v-1ZM556,324v2l-1,1h-1v1v-1h-1v-1h-2v-1h1v-1l1,-1v-1l-1,-1l1,-1l1,1v1l1,1v1ZM549,308h5v1h-5l-1,1h-1l-1,-2v1h2v-1ZM559,322h-1v-1h1l1,1ZM586,340v1l-1,-1v1l-1,-1v-1l1,1ZM582,329v1ZM585,345v-1h1l1,-1v-1h1l-1,-1v-1h1v2l-2,2ZM564,318l2,1h1l2,2v2l-1,1l1,1h-1v-1h-1v-1h1v-2l-1,-1v-1h-1l-1,-1h-1v-1ZM573,335l-2,-2h-1h1l1,1ZM580,339l-2,-2h-1v-2l-1,-1v-1l1,1v1h1v2h1l1,1ZM576,328v1h-2l1,-1l-2,-2v-1h-1v-1h1l1,2v1ZM595,343h2v1l-1,-1h-2ZM596,350l-1,1v-1ZM580,928l1,-1v-2l1,-1v-1l1,-1l1,-2v-1l1,-1l1,1v1l-1,-1v1h-1v1h2v1h1v1l2,2h2l1,1h2l1,1h2l-1,1h-15ZM600,927h1h-1l-1,1v-1ZM651,841h-1ZM688,386h-2v-1h2ZM687,381v1l-1,-1v-1h1ZM655,948h1v1v-1l-1,1v-1h-1ZM422,994h1h-3l-1,-1h-5v-1h-5l-1,-1h-5l-1,-1h-3l-1,-1h-1h1l1,1h4l1,1v-1h-1l2,1l-1,-1h-4v-1h-5l-1,-1h-1l3,1h1h-1l-2,-1h-1h1h-1h3v-1l1,1h2l-1,-1h2l1,1h15l1,1h8v-1h1l1,1h5l-1,-1h4v1h-1h2v1h5l-1,-1h-1h4v1l3,1h19v-1h-3l-1,-1h-4v-1h3l1,1h3v-1h1h-10v-1h-2v-1h1l1,1h12l1,1h18v-1h5v1h9l1,1h8v-1h2v-1l1,1h3l1,1h1v-1h3v1h-1h7l3,-1h8l2,-1h5l1,-1h1l2,-1v-1h-1l2,-2v-1h-1l1,-1v-1h5l1,-1h-1l1,-1h1l1,-1v-1h1l1,-1h-2v-1h2v-1h1v1h1v-1h1l1,-1h3v-1h2l1,-1h1v1l1,-1h1v-1h2v-1h1l1,-1l1,1h1v-1h3v-1h4v-1h2l4,-2h5l1,-1h3l2,-1h3l-1,1h1h-4l-2,1h-2l-1,1h-1v1h-3l-1,1v-1l-2,1h-2l-1,1h-3v1h-2l-1,1h1h-2v1h-1l1,1l1,-1h2v1h-6v1h-2v-1h-2v1h-2l1,1h-4l-1,1h1h-3v1h-1l-2,2h2l1,-1v1h-2v1h-1h3l1,-1h2l-1,1h-1h1l-1,1h1v3h-1h1l-1,1h-1h1v1h-2l-1,1h-1h2h-3l-1,1h3l-1,1h-1h1l-1,1h1v-1h1l-1,1h-5v1h1h-3v1h1h-1h1h-2v1l-1,-1l-1,1h-5l1,1h-3l-2,1h-6l-4,1h-4l-2,1l-2,-1h-1l-1,1l-3,-1h-2l-2,1h2v1h1h-12l4,1h2h-9v-1h-1v1h1h-1h2l1,1h4l1,1h1l1,-1h1v1h12l-1,1h-1h1h-1h9l2,-1h12l2,-1h7l2,-1h8l1,-1h4l6,-1h-2h2h-2l1,-1h4l1,-1h6v-1h4l3,-1h2l3,-1h4l2,-1h5l1,-1h3l2,-1h3l1,-1h2l3,-1h2l1,-1h3l1,-1l-1,1h-1h1v-1h4l1,-1h2l1,-1h2l2,-1h3l1,-1h2l1,-1h2v-1h2l1,-1h3v-1h1l-1,1h-2l-2,1h1l2,-1h1l1,-1h1h-1l-1,1h-2l-1,1h-3l-1,1h-1l-1,1h-3l-1,1h-2l-1,1h-2l-1,1h-3l-1,1h-2l-1,1h-3l-1,1h-3l-1,1h-3l-1,1h-3l-1,1h-4l-1,1h-3l-1,1h-4l-1,1h-3l-1,1h-5l-1,1h-4l-1,1h-5l-1,1h-6l-1,1h-6l-1,1h-7l-1,1h-8l-1,1h-10l-1,1h-15l-1,1h-43l-1,-1h-16l-1,-1h-11l-1,-1h-7l-1,-1h-8l-1,-1h-5l-1,-1h-3Z"/>
<path class="sp" d="M413,992h-4l-1,-1h-5l-1,-1h-3l-1,-1h-4M660,974h-2l-1,1h-2l-1,1h-3l-1,1h-1l-1,1h-3l-1,1h-2l-1,1h-2l-1,1h-3l-1,1h-2l-1,1h-3l-1,1h-3l-1,1h-3l-1,1h-3l-1,1h-4l-1,1h-3l-1,1h-4l-1,1h-3l-1,1h-5l-1,1h-4l-1,1h-5l-1,1h-6l-1,1h-6l-1,1h-7l-1,1h-8l-1,1h-10l-1,1h-15l-1,1h-43l-1,-1h-16l-1,-1h-11l-1,-1h-7l-1,-1h-8l-1,-1h-5l-1,-1h-4"/>
<path class="sl" d="M562,995h1h-3l-1,1h-3l-10,1h-1h1l1,-1h5l1,-1h4l2,-1h5l1,-1h1l1,1h-4ZM536,997h-2v1h-7v-1h-1h11ZM545,979h1v2l1,1h-1l1,1h-1v1h-1v1h-2v1h-5l-1,1l-1,-1h-1l-1,1h-2v-1h-1h3v-1h1l-1,-1v1h-4l-1,1h-1v-1h-2l1,-1l1,1h1v-1h4v-1h7l-1,-1h3l1,-1v1h1l-1,-1h-4v-1h1v-1h-1v-1h7ZM464,985h2v1h1v-1h2l-1,1h3v-1v1h1h-13l-3,-1h7ZM418,987h2v1h-1h-3v-1h-1h1ZM405,985v1h3v1h6v1l-2,-1h-4l-1,-1h-4v-1h1ZM571,995h1v-1h1h-1v1h-1l1,-1ZM572,994h-1ZM522,997h-1l1,-1h4l4,-1h1l-1,1h-5v1h-2ZM599,963h1v-1h1v1h-1v1h-1v-1h-1v1h-1l1,-1h-1l1,-1h2ZM610,959h2v1h-5l2,-1h2ZM606,955h1v1h-4v1v-1h-1h1l2,-1ZM580,965h-1h1h-3v1h-1l-1,-1h2l1,-1h1ZM583,964h-1v1v-1v1h-1v-1h2v-1h1v1ZM556,974h-2v1h-2v-1l1,-1h2l1,-1h1v1h-1v1h-1ZM532,982v1h-4l-4,1v-1h4v-1h1v1h1v-1h1ZM530,980l1,1h-3l1,-1ZM526,988h-1h1l-1,1l-3,-1h2v-1h-1h4ZM484,988h-1v-1h-1h3v1ZM528,997h-1h1h-1h2ZM528,997h-2v-1h2ZM619,952h1ZM608,961h-1v-1h2ZM599,964h1l1,-1v1ZM609,959h-1ZM602,962h1h-2ZM567,979v-1h2v1h-1ZM595,958h2h-3ZM539,980h-3v-1h2v1ZM474,987h-1l1,-1h1v1ZM451,987h-1ZM422,988h-1l-1,-1h2ZM410,988h-2l-1,-1h1l1,1ZM625,983l-2,1h-1l-1,1h-1h1l1,-1h1h-1h3v-1h1ZM639,980h-1h2ZM646,978h1ZM571,995l1,-1ZM623,952h1ZM602,957h-1ZM569,980h-1ZM574,977h-1ZM567,982v-1h1ZM567,982h-1ZM599,957h1ZM594,959h-1ZM590,962h-1h2ZM585,963h1ZM578,966h-1h1l1,-1ZM586,960h-1h1v-1h1v1ZM567,969h-1l1,-1h1v1ZM563,970l-1,1v-1h2ZM559,972h-1ZM557,975h-1v-1h2ZM538,981h1v1h-1ZM527,988h1ZM477,987h-1ZM428,988h-1ZM401,987h-1ZM404,987h-1ZM397,989h-1ZM393,988h-1l-1,-1h-1h2v1ZM401,990h-1l-1,-1l1,1ZM399,990v-1h-1h1ZM396,989h1ZM401,990h1h-2ZM396,989h-1ZM395,988h-1ZM398,989h-1ZM400,990h-1ZM399,990h1h-1l-1,-1h-1h2ZM676,378h1Z"/>
<path class="sh" d="M520,453h-1v1l-1,-1h-1v1h-1v3h1l1,1v1h-1v4h-1v1l1,1v1l-1,-1v-1h-1v-2h-1l-2,-2v1l1,1v1h-2l-1,-2v-1h1v-2h-1v-1l-4,-2l-1,-1l-2,-1h-1v-1h-1l1,-1l-1,-1l-3,-2h-1v-1h-1l1,1v1l2,1l1,1l-1,1h-1v1h-1l-1,-2l-3,-1l-1,-2l-1,-1v-1l2,-2v-2h-2v-1h1v-1h1v-1h1l1,1h2l2,1h1l1,-1h1l1,1h2v1h1v1h3l1,-1v-1v1h1v1l2,4l2,2h1l1,2v1h1l1,1Z"/>
<path class="sw" d="M511,191v2h4v1v-1h1v-1h3v-1v1v-1h1v-1l1,-1h8l1,1h1l-1,-1h-1v-1h2l2,-1h5l-1,-1h1v2h-1v1h-1l-2,2h-1l-2,1h-1v1h-1l-6,2l-1,1h-1l-1,1h-4v1h-1v-1h-1l-1,-1v1h-1v-1h-2v-1h-1l2,-2v-1ZM537,186v1l1,-1ZM437,137h-2v2h-1v-1h-1v-1l1,-1v-2h1l1,-1l-1,1h-1v-1h1l1,-1v-1h-2v1h-1v-1l1,-1v-1h-2l1,-1h-2v2l-1,-1v-1h-1h1l-1,-1h-1v-1l-1,-1v-2h1h-2v-2l2,-2v-1h3l2,1l-1,-1v-1l2,-2v1h-1l-1,1l1,1v-1h1l-1,1l1,1h-1v1h1v2h1v1h-1v1h1v3h1h-1v2h1v2h1v1l1,1v1h-1v2ZM431,127v-1h-1v1ZM436,134h-1v1ZM406,72h1h-1l-1,1v-1h-2l-1,-1h-2v1h-1h4l-1,1h-5v1h-2v1h-1h1h-1l-1,1h-1l-1,1h-3l-1,1v-1h-1l-1,1h-1v1h-3l-2,1h-5l-1,-1h-2l-1,-1v-1l1,1h2v-1h1v1h2v-1h2v-1h1l1,-1v1h2v-1h1v-1h-1h1l-1,-1h1v-1h-1l-1,-1h1l1,1h1h-1h1v1h3v2h2l1,-1v1h1l1,-1h2l1,-1h1v-1h2v-1h8ZM394,75v-1l-1,1h-3l-1,1h-1h1v1h1v-1h2l1,-1ZM556,176v1l-2,1l-1,1h1v1l1,-1v1h-1v3h-2v1h-2v1v-1h-3l-1,1v-1h-7l-2,1h-5v-1l2,-2h1l1,-1h2l1,-1h6v-1h1v1h3v-1h1h-2v-1l-1,1h-1l1,-1h2v1v-1h1l-1,1l1,-1h3l2,-1ZM551,179v-1h-1v1ZM554,179v1ZM554,178h-2v1h1v-1ZM555,178v-1h-1v1ZM391,55h1h-1v1h-2v1h-1v1v-1l1,1h-4l-1,-1h-1v1h-2v1h1h-2v1h-3l-1,1h-2l1,-1h1l2,-1h1l1,-1h-3l-1,1h-1l-1,1h-5v-1h3v-1h2l1,-1h1l-1,-1h2l1,1l1,-1h1h-1l-1,-1h-3v1h-1v-1h-3l-1,1h-1v-1h3l3,-1h7v-1h7l-1,1h-4v1h-1h7l1,-1h1v1ZM511,192v-1h1l1,-1v-1h1v1h2v1h-4ZM533,307h-1v1h-2v-1h-1v-1h1v-1h2l1,1ZM500,438v1h1v1h-5l-1,-1h-1v-1h-2v-2l-1,-1v-4h2l2,2h1v1l2,1l1,1v1ZM628,673h-1v-1h1v-1h-3v-1h-1l1,1h-1v-1h-1v-1l1,-1v1h1v-1l-1,-1v-1h1v-1h1l2,2h1v1h1v1h1v2h2l-1,1v1h2v1h-1l-1,1h-1h1v1h-1l-1,-1l1,-1v-1h1l-1,-1h-1v1h-1ZM425,122l-1,1v-1h-4v-1h-2v-1h3v-2h-1l1,-1h1v-1h2l-1,1h-1h1v1h-1h2v-1h1v1h-2v1h-1v3h1v-1h2ZM328,197v1h-1l-1,1h-1v-1h-1v-3h-1v-2h2v1h1v1l1,-1v1h1v-1v1h-1v2ZM326,198h1v-1h-1ZM500,168h-1v1h-1v1h1v1h-2v2h-1v1v-1v1h-1v-2h1h-1l-1,1h-1v1h-1v1h-1v3l-1,1h-1l1,1v1l-1,1l1,2v1h1v6h-1v1l-3,3l-2,1h-2v-1h-1v-2h-1v-11h1v-3h1v-2l1,-1v-1h1l-1,-1h-1l-2,2h-1v-1h1v-1h1v-1h1v-1l2,-2v-1h1v-1h1v-1v2l1,-1h1v-1h1v1h-1v1l1,-1h1v-1h4v-1h3l1,1h1l1,1ZM496,168l-1,1h1ZM493,172h-1h1v1ZM487,170v1h1v-1ZM486,171v1h-1v1h-1v1h2l-1,-1h1v-1h1v-1ZM502,163h1h-1v1h-1v-1l-1,1v-1h-1v-1h-7l-1,1h-1l-1,1v-1h-1v1v-1h-4v-1l-1,-1h-3v-1l-1,1h-1v-2h-2v1h-2v1h-4l-1,1h-1l-1,1h-1l-1,-1l-1,1l-1,-1h1v-1h1v-1h-1l-1,1h-3l-2,1h-1v-1l3,-1l1,-1l3,-2l1,-1h1l3,-1h1l1,-1h2v-1h1v-1h1v-1l2,-1v1h-1v1h1v-1h1v-1h1v-2h1v2h-2v1h1v-1h1l1,-1v-1h-1h4l1,1h6v1h1v2h1v1l1,1h6v1h-1v2h2v2l-1,1h1v1h1v1ZM465,160v1ZM465,161h1h-2l1,1ZM466,161v-1h-1v1ZM482,149h-1h2v-1h-1ZM476,154l2,-1h1h-2l-2,1v1ZM483,158v-1h-4v1h-1v1h1l-1,1h1l2,-2ZM484,149h-1ZM496,155h-2v1l1,-1Z"/>
<path class="sw" d="M503,163h2v1h-1h2v1h9v1h5v1h-1h3v-1v1h3v1h1v1h1v1l1,1h1h-1l1,-1v2h1h-1l1,1h1v1h1v1h-1v-1h-2v1h1v1h-3l-1,-1h-1l-1,1v-2l-1,1l1,-1v-1h-1v1v-1h-1v-2h-3v1h1l1,1h1v3h-1v1h-1v2h-1l1,1v4h-1v1h-1v1h-3v-1l-1,-3v-1l-2,-2l-1,1h-2v2h-3v-2h1v-1h1v-1h1v-2h1v-1l-1,-1v-1h1h-1v-2h-1l-2,-1h-2v-1h-2v-1h-1v-2h1v1h4v-1h-1l-1,-1v-1h-1ZM509,167h-1h2ZM508,166h-1l-1,1v-1v1h2ZM506,166v-1h-1v1ZM504,164v-1h-1ZM503,168h-1ZM511,168h3l1,1h3v1l2,-2h-1v-1v1h-1v-1h-4v1h-1v-1v1v-1h-3ZM519,170h-1ZM529,174h-1ZM402,319h-1l-1,2v2l-2,5v1v-3h1v-3l1,-1h-1v-3h2v-1ZM419,94h-1v1h-2v2h-1h1v-1h-2l-1,1v-1h1v-1h1v-1h1v-1h3ZM394,89h-1l-2,1h-2l-1,1h-2v1v-1h-1v1v-1h-1l1,-1v1h1v-1l2,-1h2l1,-1h2v-1h4l-1,1h2l1,-1l1,1h5l3,1h-5l-1,-1h-2v1h-5ZM565,134h-1v1h-1v1h-1h1v-1h1v-1h-1l-1,1v1h-1v4h-1v1h-1l1,-1h1v-3h-1v1l-1,1v-1l1,-1v-2h1l2,-2h2l-1,1l1,-1h1v1ZM804,104l2,2v-1h-1l-2,-2h-1v-1h-1l-1,-1h1l1,1v1h1v1ZM805,104h-1l1,1h1h-1ZM448,145v1h-1v-2h-2l-1,1h1v1h2v1h-1l-1,1h-2l-1,-1l-1,1h-1v-1h1v-1h2v-1h-1h1l1,-1h1v-1h-1v1h-2v-1h1v1l1,-1h1v-2h1v2h1v1h-1h2l-1,1ZM444,146v1h1v-1ZM482,142h-1h1l-1,1h1l-1,1v1h-2v-1v1h-1v-1h1h-2v-1h-1v-1l1,1v-2l1,-1h3v1h1ZM479,141v1h-1h1v1v-1ZM480,144v-1h-1v1ZM423,96h1l-1,1h-1v1h-2v1h1l-1,1v1h-1l-1,1h-1v1h-3v1h-1v-1h1v-1v1l1,-1h2v-3h-1l1,-1h1v-1h1l2,-1v-1h1v1l1,-1l-1,1ZM558,185h-3l1,-1l1,1ZM265,76h-2l-1,1h-2v-1h3l1,-1ZM248,84l-1,1h-1h1l1,-1h-1l1,-1h1v1ZM277,209l-1,1v-2h1ZM478,179v2h-1v-2l1,-1ZM546,56v-1h2l1,1h4v1h-1h2l-1,1h-4l-1,1v-2h-1ZM434,71v-1h2v-1v1h1v-1v1h1v-1h1v1h-2v2h-1v1h-1v-1l-1,1v-1h-1v-1ZM463,67h1v1h-1v-1h-6v-1h5v1ZM571,178v1l1,1v1l-1,-1v-4l-1,-1v-2l1,-1v1v-1h1v1h-1h1v5ZM286,253l-1,1l-1,-2v-1h1l1,1ZM379,69h-3v-1h-1h1l1,-1h1v1h1ZM577,856v-1l1,-1h1l1,1h-1l-1,1ZM573,150h-1v-2l1,1h2v1h-1ZM550,189v1h-1v-1ZM551,190v-1l-1,-1v-1l1,1v1ZM553,190v-1h-1v-1v1h1ZM992,411v3l1,1l-1,-1v-4l-1,-2v1v-1v1h1v1ZM402,97h1v1h-2l-1,1v-1v1l-1,-1v1h-1v-1h1l1,-1ZM442,72l1,-1h1h-1l1,1h-1v1h-1l-1,-1ZM425,84h1v-2h1v4h-1v-1l-1,-1h-1ZM458,280v1h-1v-2ZM553,106l-1,1h-1v-1h-3v-1h3v1h1ZM526,165h2v-1h4l1,1h-6ZM540,106l1,-1v-1v1h2v1h-2ZM665,784l-1,1h-3v-1h-1l1,-1h1l1,-1l1,1v-1h1v1Z"/>
<path class="sw" d="M545,120v-1h1l2,-1h1v1h1l1,-1h1l-1,1h-2l1,1h3v-1v1h-5l-1,1h-2v-1h1ZM545,119v1h-2l-2,1h-2l-1,-1h-1v-1h4v-2l1,1v-1l1,1v-1h-1h2v1h-1v1h-1h1ZM247,84l-1,1h-1l-1,1v-1h2v-1ZM609,376l-2,-1h2ZM307,47v-1h1ZM375,82v1h-2l1,-1ZM543,122h-1h1l-1,1v1l-1,-1v-2h2l-1,1ZM571,906h-4l-1,1h-1h1v1h-1v-1h-1v-1h1h-1v-1h1v1h4ZM410,85h-1v1h-1v-1h1l1,-1h1v1ZM515,12h1l2,-1h1h-1l-2,1ZM475,124h1ZM844,138h1v1l1,1l-2,-2v-1ZM783,97l1,1h-1ZM347,175h-1v-1h-1h2ZM346,34h-1ZM336,151v-1h1v1l-1,1v1l-1,-1h1h-1ZM305,234l-1,-1v-1l-1,-1l-1,1v1l-1,-1h-3l1,-1h2v-1l1,-1v1l-1,1v1h2v-1h1v1l1,1ZM382,91v1h-1v1h-1v-2h-1h1v-1h1v1ZM608,116h1v1h-1l-1,-1v1h-3l-2,-1h-1v1h-1v1h-1l1,1v1h1h-3v-1h1v-1l-1,-1h-1v-1h-2l-1,-1h-1l-1,-1v1l1,1l-1,-1h-1v-3h-1v-1h1v1l3,3h1v1h2l1,1h1v-1h1l-2,-2h-1v-1h1l-1,1h1l2,2h3v-1h-1l-1,-1v-1h1v1h1v1h1l1,1h2ZM466,400l-1,1v1h-1l-1,1h-1v-1l1,-1h1l1,-1ZM464,135h4v-1h1v1h-1l-1,1h-3ZM559,151h-1v-1h-1v1h-1v1v-2h1h-1v1h-2v-1h1l1,-1h2v-1h1v2h1l1,1h1h-2v-1h-1ZM558,111h3l1,-1v1h-1v1h-4l-1,1v-1h1h-1h2ZM749,490h-1v1h1v1h-1v-1v1l-1,1h-1v-1h-1h1v-2l1,-1v-1h1v1h1ZM548,188v-1ZM553,188v-1ZM555,188l-1,-1ZM258,70h-1v1h-1l1,-1h-1h1ZM335,190l-1,1v-1ZM327,203l-1,1v-1h1v-1l1,1ZM370,52h1h-1v1h-1v-1ZM444,159h-2v-1v1l1,-1h1ZM469,148l-1,1h-1v-1h1ZM554,161v1l-1,-1h-1h1v-1h1ZM583,849v1h-2v-1h1ZM354,81h-1v-1h1l1,-1v1h-1ZM570,904l-1,-1h-2v-1h1l1,1h2v1ZM720,51h-1h2v1v-1ZM622,177h-1v-1v1ZM612,166h-1h1v-1ZM284,188v1l-1,1v-2ZM282,203v-1h-1l1,-1h1l-1,1ZM272,223v1ZM395,47h1v-1h1h-1v1h-1v1h-1ZM583,144h-1v-1h-1v1h-1h1h-3v-1h1v1l1,-1h1v-1l-1,-1h1v1l1,1v-1v1h2v1h1v1h-1v-1ZM652,143h1l-1,1v-1v1l-1,1v1l-1,1h-1l1,-1h1v-1l1,-1h-1ZM372,51v-1h1l-1,-1h1v2ZM374,51h-1ZM382,61h1v-1h1v1h-1v1h-1ZM472,119h3l-1,1h-1v-1ZM455,135h-1l-1,-1v-1h2v1ZM452,119h-4v-1h5v1ZM574,123h1v2h1h-1v-1h-1v1v-1h-2v-1h1ZM404,110h-1v1h-2l-1,1v-2h1l1,-1v1l1,-1v1h2ZM448,165h-2v-1h2ZM585,182h-1v-1h1ZM534,178h-1v-1l1,-1v-1l1,1v1h-1ZM455,113h1v1h-4v1h-1v-1h1v-1h2ZM297,180h-1v-1h2v1ZM658,149l-1,1v-1ZM447,109l-1,1h-1h1v-1ZM293,50h-1ZM263,67h-1h1v-1h1ZM262,69h-1v-1h1ZM254,77v-1h1ZM260,74v-1l-1,1v-1h1Z"/>
<path class="sw" d="M261,72h1ZM257,75h-1v1v-1ZM453,151v-1l1,1l1,-1h-4v-1l-1,-1h2v1h2v1h1v1h1h-2ZM330,102h-3v1h-1l-1,-1h-1v4h-1v1v-1l1,-1l-1,-1v-2h-1h1v-2l1,-2v4h6v1ZM446,106h-1v-1h1ZM377,155v-2h-1v1h-6l-1,1h-1l-1,1l1,-1h-1v-1h-1h2v1h1v-1h5v-1h2v-1h1v2ZM400,155h-1v-1h-1l-1,-1h1v-1h-3l1,-1l1,1h1v2h1v-1h1h-1v1h1l-1,1h1l1,1l1,-1h3v1h-5ZM314,82l1,-1v-3h1l-1,1v1h1v1h-1v1ZM322,142v-3h1l-1,1v1ZM326,149l-1,1h-1l1,-1h1h-1v-1h1ZM307,150h-1v-1l-1,-1v-1l1,1v2ZM410,90h-2l1,-1h1ZM296,66l-1,1l1,-1h1ZM441,153h1v1h-3l1,-1ZM441,153v-1h3v1h-2ZM448,74h-1v-1l-1,1v-1h1v-1h1v1v-1h1v1l1,1h-1h1h-3ZM552,64h-1l-1,1h-1l-1,-1h-1v-1h1v1h1v-1h-1v-1h-1v-1l1,1h3v1h1l1,1v1h1h-2ZM379,285h-2v-1h1v1h1v-1ZM549,159h1v1v-1h-1v-1h-1v1v-1h-1v-2h1v1v-1v1h2l-1,1ZM356,360v1h-2v-1h-2l1,-1h2ZM489,429v1h-3v-1h-1v-1h3v1ZM732,737h-1v2l-1,-1v2h-1v1h1h-1v1h-1v1h-1v-1l1,-1v-1h-1h2v-1h-1l-1,-1h3l-1,-1h1v-1l1,-1v-2l1,-1v3l-1,1v1ZM544,457h-2v1v-1h-1v1l1,-1v-1l1,-1v1ZM837,130h-1l-1,-1l1,1ZM995,445v2l-1,-1v-1l1,1v-1h-1v-7h-1h1v-1h-1v1v-5h-1h1v1l-1,-1v-4h-1v1v-2l1,1v-1v4h1v1v-4h-1v-1l1,1v6h1v7l1,1v1ZM995,445v-1ZM725,795h-1v1h-1v1h-1v-1h-1v1h-1v1h-1v1h-1v1l-1,1v1l-1,-1h1v-3h1v-1h1l1,-1h1v-1h1v-1h1l1,-1v-1h1v2ZM428,139h-2l-1,1v-1h-1l1,-1l-1,-1v-2h-1v-1h1v1v-2h-1v-2h-2v-1h2v1v-1h1v1h1v2h1l-2,2l1,1h2v1l1,1ZM421,131h-1l-1,-1h1v-2l-1,1v1v-3l2,-2h-1l1,-1h-2v1v-2h-1v1h-2v-2h4l1,1h2v1h-1v2l-1,1v2h-1v1h1ZM589,132v2h-1v1h-1v-1h-1v-1h-2v-2h-1v-1l1,1v-1v1h1v-1h2v-1v1l1,1v-1h1v1ZM588,132h-1h1v-1h-3v2h1l1,1l1,-1h1h-1ZM389,103h-1v-1h1l-1,-1h1l1,1v1h1l-1,1v1h-1v1h-1l-1,1h-1v1v-2h-1v-1h2v1h1v-1l1,-1h1h-1ZM581,886l-1,1l-1,-1h-3l-1,1l-2,1h-2v1v-1h1v-2l1,1h1l1,-1h2v-1h2l1,1ZM305,234l-1,-1v-1l-1,-1l-1,1v1l-1,-1h-3l1,-1h2v-1l1,-1v1l-1,1v1h2v-1h1v1l1,1ZM330,220l-4,4h-1l1,1h1h-4v1h-1l-1,1v-2l1,1v-1h3v-1h1l1,-1v-1h1l1,-1v-1ZM437,99h1l-1,1v1h-2l-1,1h-3l-1,1v-1h1l1,-1h3v-1h1v-2h1h-1h2ZM842,606l1,1v1h-2v1l-1,1h-1l-1,1h-3l-1,1v2h1v1l-1,-1h-1l-1,1l1,2v2l-1,2v-1l1,-1v-1l-1,-1h-1v1l-2,2v3h-1v1l-1,-1h-1l1,-1v-1l1,-1v-1l1,1v-3l1,1v-2h1v-2l-1,-1h1v1h1v-1h1v-3h1l1,-1l1,1l1,-1h3v-2h1v-1v1v-1h1v-1ZM829,621h-1h1v-1l-1,1h-1h1v2l1,-1Z"/>
<path class="sw" d="M527,149v-1h2v1h3v1h-4v-1ZM377,155v-2h-1v1h-6l-1,1h-1l-1,1l1,-1h-1v-1h-1h2v1h1v-1h5v-1h2v-1h1v2ZM406,172h-1v1l-1,1h-1v1h1v1h-1v-2h-2v-1h4v-1h1v-2h-1h1v-1l-1,-1h1v-7l1,1v1l-1,1v2h1v2h-1v1h1l-1,1v1ZM314,82l1,-1v-3h1l-1,1v1h1v1h-1v1ZM322,142v-3h1l-1,1v1ZM995,445v2l-1,-1v-1l1,1v-1h-1v-7h-1h1v-1h-1v1v-5h-1h1v1l-1,-1v-4h-1v1v-2l1,1v-1v4h1v1v-4h-1v-1l1,1v6h1v7l1,1v1ZM995,445v-1Z"/>
<path class="sr" d="M712,47v0"/>
<path class="sw" d="M711,47h1ZM414,66h-1l-1,1l-1,-1h-1h2v-1h2l-1,1ZM414,66h3l-1,1h1h-1v1l-1,-1h-1ZM410,183h1l2,2h-2v-1l-1,-1h-1v-2l1,-1v-1v1l-1,1ZM389,307h1v1h-1v1v-2h-1v-2l1,1ZM389,110v-2h-1h2v-1l1,-1v1l-1,1v1h-1ZM420,83h-1l-1,1v-1h1l-1,-1v-1h1h-1h1v-1v2h1l1,-1h1h-1v1h-1h1ZM462,63h-1v1h-2v-1h2ZM578,117h1h-2l-1,1v-1h1h-3l1,-1v-1v1v-1h-1h1l1,1h1h-1l1,1ZM582,118v2h-1v-1h1h-1l1,-1h-2v-1h-1h2v1ZM573,115h-1h3v-1h-1v-1v1v-1l1,1v1h1h-2ZM477,231l1,1v5h-1l1,-1v-2h-1v-3l-1,-2h1ZM518,252v1h1v1h-2l2,-1h-1l-1,-1h-1h1h-1v-1h1v1ZM330,125h1h-1v-3l-1,-1h1v3ZM524,287v-1v1l1,1v1l-1,-1ZM297,244v-1v1h1v1h-1ZM270,196h1h-1l-1,1v-1h1h-1ZM398,60l-1,-1h1l1,1h2l1,1h1v1h-1l1,-1h-3v-1l-1,1ZM278,184v2h-1v-2ZM294,180h1v1h-1ZM603,167l1,1h1h-2l-1,-1ZM787,568h-1v-2h1v-3h1v4l1,1v2h1v2h-1v1l1,1v1h2v1h-2l-1,-1v-2l-1,-1v-2h-1v-1ZM803,687h1v1h-1v-1h-1v2h-2v-1h2v-1v1h-1v-1l1,-1h-1l1,-1h-1l-1,1v-1h1v-1h1v-2h1v1l-1,1v1h1h-1v1h1h-1v1ZM758,703v-2h2v-1h1v-1l1,-2v-1v3l1,-1h1l1,-1l-3,3h-1v1h1v1l-1,-1v1h-2l1,1h-1ZM580,852h1ZM598,880v1h-2v-2h1v1v-1h1ZM836,130v-1h-1h1ZM311,72v1h-1v1v-1h1ZM255,80l-1,1h-1h1l-1,-1h1ZM263,67h1ZM267,73h1v1h-1ZM273,74v1h-1h1ZM268,67h1ZM263,68h-1ZM266,65h1v-1v1ZM275,60l-1,1ZM480,245h3l2,2l-3,-1l-1,-1l-1,1ZM734,58h-1ZM732,57l-1,-1h-1h1l2,2h1h-1ZM544,133h1h-2ZM464,135h-1v-1h1ZM462,130v-1ZM534,135h-1v-1v1ZM536,156h-1h2ZM544,156h1l1,1h-1v1l-1,-1h1h-1ZM415,64h-1ZM412,64v-1h1v1ZM411,64v-1h1l-1,1h1ZM517,40h-1ZM442,44h-1ZM455,53v1h-1v-1ZM443,111h1l1,-1h1v1h-2ZM413,114v-1h1v1h-1v1ZM395,115l1,-1h1v1h-1v1h-1ZM571,120h1v1h-1v-1h-1ZM623,124l2,1v1v-1h-2l-1,-1h-1h1ZM402,63v-1h1v1ZM507,151v1h-1v-1h2ZM394,106h1h-1v1ZM396,108v-1h1h-1ZM430,73v1h-1v-1ZM424,79v-1h1v-1v1ZM415,92h1v1ZM575,104v1l2,1l-2,-1v-1h-1v-1ZM486,57h-1ZM488,57h1h-2v-1h1Z"/>
<path class="sb" d="M889,205l-2,-2v-1l-2,-2v-2h-1l-2,-2v-1h-1v-2h-1v-1l-3,-3h-1v-2l-2,-2v-1h-1v-1h-1v-1l-2,-2v-1h-1v-1l-1,-1v-1l-1,-1v-1h-1l-2,-2h-1v1h1h-1v1h-1v-2h-1v1M868,165l-1,-1M869,164v1h-1v-1h-1l-1,-1h-1h1v1h-1l-1,-1h-1v-1v1v-1h-1v-1h-1M825,121v-1v1l-1,-1M821,117h-1h1v1h1v1h1l1,1h1v1l-1,-1h-1v-1h-1v-1l-2,-1l1,1h1v1h-1v-1h-1v-1h-1l-2,-2h-1v-1v1v-1h-2v-1M816,113v1v-1h-1v-1h-1v-1h-2v-1h-1h1h-1h1h-1h1v1M837,131l-4,-4h-1v-1l-1,-1h-1v-1l-2,-1v-1h-1l-1,-1h-1v-1h-1v-1h-1l-2,-2h-1v-1h-1v-1h-1l-1,-1h-1v-1h-1v-1h-1v-1h-1l-2,-2h-1l-1,-1v-1v1v-1h-1l-2,-2h-1v-1h-1v-1h-1v-1h-1l-1,-1l-2,-1v-1M848,141h-1v-1h-1l-1,-1v-1h-1h1v1h1v1v-1h-1v-1h-1v-1h-1l-2,-2v-1h-1l-1,-1v-1h-1l-1,-1v-1h-1l-1,-1l1,1h1M840,133h-1v-1h-1M840,133h-1v-1h-1l-1,-1v-1h-1M861,154h-1v-1l-2,-2h-1v-1h-1v-1h-1v-1h-1v-1h-1v-1l-3,-3h-1v-1h-1v-1h-1v-1v1v-1l-1,-1l1,1h-1v-1l-2,-2h-1v-1v1h1v1M514,406h-3v1h-2l-1,1h-2v1l-1,-1v1h-4l-1,-1h-1l-1,1v1h-1v2h-1l-1,1v1h-1l-1,1h-1v1l-2,-1v-1h-1v1l-2,2h-3v4h-2v2h-3M472,400h-1l-3,3l-2,1l-1,1h-1v1l-1,1v1l1,1h-1l-1,1v1M466,398h-3v-5l1,-2v-9M456,417l-1,-1l1,-1h1v-1h1l1,-1h1v-2h2l1,1l1,-1v1h1l1,1v1h1l1,1h1v1h1l1,-1h2v1h3l-1,2v2M471,377v-1h-1v1l-1,1l-1,2l-1,1h-1l-1,-1l-1,1v1h-15v5h-3l4,4h1v1l2,2v3h-11v1l-2,2l-1,2l-1,1v1l1,1v1h-1v4M404,314h-2l-1,-1h-4l-1,-1h-1l-1,-1h-1l-1,-1h-2l-1,-1v-3l-1,-1v-4l-3,-3v-1l-2,-2v-1l-1,-1h1l-1,-1l-1,-2v-2l-2,-2v-1l-2,-1l-1,-1h-1v-1v1h-1l-2,-1h-3v1h-2l-2,2v2h-1l-2,2v-1h-1l-2,-1l-1,-1h-1l-2,-2h-1v-1l-1,-1v-5l-1,-1v-1h-1l-2,-2l-2,-3l-1,-1h-1l-1,-1v-2h-13v3h-20l-2,-2l-9,-3l-5,-3l-6,-2l1,-1v-1h-8l-2,1h-5M562,173h-3l-3,3v1h-2v1l-2,1v1l-2,2h-12l-1,1h-1v1l1,1v2h1l-1,1h-1l-1,1l-2,1h-2l-1,1h-3l-2,1h-2l-1,1h-2l-1,1l-2,1l-1,1h-2l-1,-1h-1l-1,-1v-3h2v-1h1l1,-1v-3l1,-1l1,-2v-2l-1,-1v-3l-1,-1v-3l-1,-1v-1l-1,-1h-1l-2,-1l-1,-1h-1v-2h-3v-1h-1v-2h-2v1l-2,-2v-1l-1,-1h-2l-1,-1h-1l-1,-1h-1l-1,-1h-2l-2,-2h-2l-2,-1l-1,-1h-1l-1,-1h-3l-2,1h-1l-1,1h-4v-1h-5v-1h-1l-1,1h-3l-2,-2l-1,1h-1v-1h-1v-1h-7l-1,-1h-3v-1l-1,-1v-2h-1l-1,1v1h-39l-2,-1h-34l-3,-1h-24l-2,-1h-20l-3,-1h-16M356,40h-2l-2,1l-2,2l-22,11l-2,2l-6,3l-1,1l-2,1l-2,2l-6,3l-2,2l-4,2l-1,2l-4,2l-2,2l-2,1h2v1l1,-1h2l-1,1h-1v4h-1v1l-1,1h2l1,-1h2l1,-1h1v-1h4l-2,2v5h-1v2h-1v2l-1,1v1h-1v2h-1h1l-1,1h1v2h1v1h1v1h-1v1"/>
<path class="sb" d="M698,779h-1v1l-2,2v2h-1v2l-2,2v2l-1,1h-1v3l-1,1M727,744l-1,3l-2,4v1h-1l-1,1h-1v1h-2v1h-1v1h-1v1l-1,1h-1v-1h-2v1h-1l-1,1h-3v-1h-1l-1,1l-1,-1h-3l-3,-1l-3,1v-1h1v-1h1v-1h1v-1h1v-1l1,-1v-2h1v-1l1,-1h1v-1l1,-1v-1h1l1,-1v-1l-1,-2h-1l-1,-1h-2l-1,-1h-1l-3,-2l-1,-1h-1l-2,-2l-2,-1h-3l-2,-1l-1,-1h-1v-1l-2,-1v-1h-1l-3,-3v-2l-1,-2h-2v-1M640,725l1,2l-1,2l-1,3l-1,2h-1v1l-4,2h-1l-2,1l-1,1h-1v1l-1,1v1h1v2h-1l-1,2v1l1,1v3l-2,2v1l1,1v1l1,1l-1,1h-1l-1,1v-1h-1v1h-1v2h-1v1l-1,1v1l-2,2h-1v1h-1l-1,1v1l-1,1v1l-1,2v1h-1l-1,1l1,2v2l-1,1v1h1h-1v1l-1,1l-1,-1v2l-1,1v1h-1v1h1l-1,1h-1v1h-1v3l2,2h-1v3h1v6h1v1l-1,1v5h-2v1l-1,1v1h-1v1l-1,2h-1v6l-1,1h-1l-1,1h-1v1h-1v1h-1v1h-1l1,1v1l-1,1v2l-1,1l1,1v4h1l-1,1v1h-3v1h-1v2l-1,1v1h-2v2h1l-2,2l1,1h-1v1l-1,1v2l-1,2v5h-2v1h-1h1v1h-1v2l-1,1h1v1h1v1h-1v1h1v3h-1v1l-1,1h4v2h-4l-1,1l-1,-1v1h2l2,2v1h-1v1h-2v3h-1v3l-1,1h-1v2h-1v1h-1l-2,2v1h-1h1v2l-1,1h-1v2h-2l-2,2h-2v1l-1,1h1v1l-1,1v1h1v3l1,-1h4v1l-1,1v1l-1,1v1l1,1h1v1h14l1,1h2M711,702v-2l-2,-2l-4,-2h-7l-7,2h-1l-3,1h-2l-2,4l-2,2l-2,4v2l-1,2l-1,3l-2,4l-1,-1v-1h-7v1l-1,-1l-1,1l-1,2l-2,2v2l-1,-1v-3l-1,-1h-2l-1,-1h-4l-1,1h-1v-1l-2,-1v-1h-1v1l-1,1v1h-1l-1,1h-1l-2,2h-1v1l-1,1l-2,1h-4v-1l1,-1v-1l-1,-1v-5l-1,-1v-4l-1,-1h-1v-2h1v-1l-2,-1v-3h1l1,-1v-1l-1,-1l2,-2v-1h-1l-3,-3v-7l-1,-1h-1v-1l-1,-2M629,629l1,2l1,1l1,2v1l2,4l1,1l1,2l-1,1v1h-1v1h-1v6l-1,1v1l1,1v3h-1v1l-1,1h-1v2h-1v2l1,2v1h-1l-1,2v1l1,3l1,1h2v1l-1,1v1l-1,1h-1l-2,2v1h-1l-1,1v1h1v2h-1v1h-2v3l-2,2h-3M583,537h-3l1,1v1l1,1h1v4h-1v1l-1,2v2l-3,3l-2,3l-1,1h-1l-2,1l-1,1l-6,3h-3l-4,4v1h-2v3l-1,1v1l-1,1v2h-1l1,1l-3,3v1h-1v1l-1,-1h-1l-2,-2v-2h-3l-1,-1h-2v1h-2v-1l1,-1h-1v-2h2v-1h1l-1,-1v-3h-1M628,572v-1h-1l-1,-1v-1h-1v-1l-1,1h-1l-1,-1l1,-1l1,-3l1,-2l2,-2v-2h-1l-1,-1h-1l-1,-1h-1l-2,-1h-1l-1,1h-2v-1h-1l-1,-1h-1l-2,2h-2l-1,1l-1,-1h-2l-1,1h-1v-1h-1l-1,-1v-4h-2l-1,-1v-2l-2,-2h-1l-1,-1h-2v-1l-1,-1v-1l-1,-1v-1h-1v-1h-1v-1h-2l-2,-2l-1,1l-2,-1l-1,-1h-2l-1,-1v-1h-1l-1,-1h-1l-1,1v1h-5l-1,-1h-2v-1l-1,-1v-1h-1l-1,-1h-1l-2,-1h-1l-1,-1l-2,-1l-2,-2h-1M654,524v-2l-1,-1v-2l-1,-1v-2l-1,-1v-1l-1,-1v-1h-1v-1h-1v-1h-1l-1,1v-1l4,-4v-1l-1,-2l-2,-2v-2l-1,-1v-10l1,-1v-2l1,-1v-1l1,-1l-1,-1v-1h-3l-2,1h-8l-1,1h-2l-1,-2l-2,-1l-1,-2l-2,-2h-2l-1,-1h-5l-1,1l-2,-1h-3l-1,1l-1,-1l-1,-2l-1,-1h-2v-5l1,-1v-2h-1l-1,-1l-1,-2v-1l-1,-3h-1l-1,-1h-1v1h-2v-1l1,-1v-1l2,-2v-4l1,-3l1,-2v-1l2,-2l2,-1l2,-3v-1l2,-1h3v-1"/>
<path class="sb" d="M703,488l-1,-2l-4,-4l1,-1v-1h1v-3h-1v-2h2v-1h2l1,-1h1l1,-1v-1h-2l-1,-1l1,-1h-1v-2l1,-2h1l2,-2h1v-1l1,-1l-1,-2M737,515h-1v-1h-1v-2h-1v-1l-1,-1v-1l-1,-1v-2h-1v-3h-3v-1l-1,-1v-1l-2,-2v-3l1,-1v-4l1,-1h3v-2h1h-1v-2l1,-1M751,511h1v-1h1l1,-2l1,-1v-2l-1,-1h1v-2l1,-1v-1l-1,-1v-1h-1v-1l-1,-1v-2h-1v-6l1,-2v-1h1M717,803l-1,-1l1,-1v-2l1,-1h1v-1l1,-1h1v-1h-1l-1,-1v-3h-1v-1h-2v-1l-1,-1v-1h-2l-1,-1h-1v-2h-1v-1h-1v1h-1l-1,1v-3h-1l-1,-2l-2,-2h-2l-1,1h-2v-1h1l1,-1v-1h1l2,-2l2,-1l1,-1v-1h1l4,-4h1v-1h1v-1h1v-1l2,-1l2,-2h2v-1h1v-1h1v-1v1l1,-1h2l2,-2h1v-1h1l2,-2v-3l1,-1v-5h-1l-1,-1v1h-3v-1l2,-2v-1l3,-6v-3h-1v-1h-2v1h-1l-1,1h-2l-1,-1l1,-1v-1h-1v-1l1,-1v-7l-1,-1h-3v-2h-1v1h-2v1h-2l-1,-1h-6v-1h1v-4l1,-1v-1l1,-1v-3l-1,-1v-4h1v-1h1l-1,-1v-2l1,-1l1,-2l1,-1v-1l1,-1h-1l1,-1l2,-4v-1l-1,-1v-4h-2l-2,-2v-5l1,-1v-2h-1v1h-13v-5l1,-2l-1,-1l-1,-2h2v-6h-1v-2l1,-1v-1h-1v-1h-1v-1l-2,-1h-7l-2,-2v-1h-3l-1,-1h-1l-1,-1h-1v-2h-1l-1,1l-2,-2h-7v-2h-1l-2,-2h-1v-1l-1,-1v-1l-1,-1v-1l-1,-1v-1h1v-2l-1,-2v-2h1v-1l1,-1l-1,-1v-1l1,-1h-1v-1h-1v1h-6l-1,1h-2l-1,1l-3,2h-1l-1,1h-1l-2,2v1h-3l-3,3h-2l-1,1v-1h-2l-2,-1h-6l-1,1h-3l-1,-1v1h-1v-1l1,-3v-7h1l-1,-1l1,-1h-1l-1,1h-1v1h-1v1h-1l-1,1h-1l-2,1h-5v-2h-1v-2l-1,-1h-7l3,-3v-1l-1,-1h-1v-1l-1,-1h-1v-2h-1v-1l-1,-1v-1h-1v-1l1,-1h-1l-2,-2h1v-2h2l-1,-1v-3h1l2,-1l2,-2h1v-2l-1,-1v-1l1,-1v-1l1,-2v-1l1,-1v-2h2l3,-3h1l2,-2h1l2,-1h3v-1h3v-1h1l1,-1h2l2,2l1,-1v1h1v-3l2,-6v-3l1,-3v-3l1,-2v-4l1,-1v-4h-1v-2h-1v-3h-1l-3,-3v-1l1,-1v-4h2l1,-1h3v1h1v-3l-1,-1h-5v-6h14v-2h1v1h1v1h1v-1l3,-3h1v1l1,2l1,1v4h2l2,2l2,1l1,1h2v-1h1l1,-1h2v2h1v-1h1l1,-1v-1h1v-1h1l1,-1h1l1,-1h2v-1h1l1,-1v-3h2l2,-2h2v-2h-5v-1h-1l1,-1l-1,-1l-1,-2v-5l-4,-4l-1,-2h1v1h4v1h1v1h6l2,1v1l1,1l1,-1h1v-3h1v-1h1v-1l2,1h1l4,-2l1,-1h1v-1h2l1,-1v-1h1l1,-1v-3h-1h4v-1h1v1h1v4l-1,1v1h3v1h1v2l1,1v2h-1v1l-1,1v2l-1,2v5l1,1v1h1v4h1v1h1v1l2,2h2l1,1h2l1,-1v-1h1v-1h3v-1h3v-1h1v-1l1,-1h2v1h2l1,-1h2l1,1h2l1,-1v-1h-1v-1l-1,-1l1,-1v-1h1l1,1h1l2,-1l1,-1l1,1v-1h1v1h2v1h1v1h1l1,1h1l2,-1v-1h2l1,1v-1h1l1,1h2l3,-3v-3l1,-1v-2h1v-2h1l1,-2v-2h1v-1l1,-1M930,276l-1,-2l-1,-1l-1,-2v-1l-1,-1v-3h-1v-6h1h-1v-2h1v-2l-1,-1v-1l-1,-1v-5l-1,-1h-1v-2h-1v-2h-1h1l-1,-2v-2h1v-1l-1,-1v-1h-1v-1l-2,-2l-1,-2l-1,-1l-1,-2l-1,-1v-1h-1v-1l-1,-2l-1,-1h-1v-1l-1,-1v-1h-1l-1,-1v-1"/>
<path class="sb" d="M918,226v-1l-2,-2v-1l-2,-2v-1l-2,-2v-1h-1M901,202v-1M931,331l1,-1h1l1,-1h1v1h1v-1h1v-5h-1h1l-1,-1v-3l-1,-2v-1l-1,-2v-2h-1v-9h-1v-1h1v-2l-1,-1v-2l-1,-1v-2l-1,-1v-2h-1v-2h1h-1v-4l-1,-1v-1h-1l1,-1v-1h1v1h2v-2h1v-1l-1,-1v-1l-1,-1v-1l1,2v1M933,336l-1,-1v-2l-1,-2h5l1,-1h4l1,-1v-2l-1,-1v-1l-1,-1v-1l-1,-1v-2l-1,-1v-2h-1v-4h1v-3l-1,-1v-2l-1,-1v-1l-1,-1v-1l-1,-1v-1l-1,-1v-1l-1,-2v-1l-1,-1v-1l-1,-1v-1l-1,-1h3v-1h3l1,-1v-1l-1,-1l-1,-2v-1l-2,-4l-1,-1l2,2h1l1,1v1l1,1h1l1,1v1l4,4v1h1l2,2v1l1,1M961,383l1,1v-4l-1,-1v-3h1l1,2v1h1v-2h2v-2h4v-1h3v-3l-1,-3v-1l-1,-2v-1l-2,-4v-2l-2,-4v-2l-2,-4v-2l-3,-6v-2l-4,-8v-2l-5,-10v-2l-8,-16v-2l-1,-2h1v-1h1l1,1l1,2l2,1l1,2l1,1l1,2l1,1l1,2l1,1l1,2l1,1l1,2l1,1l2,4l1,1l1,2l1,1v1l1,1v2h1v1l1,1v1h1v2h1v2l1,1v2h1v3h1l-1,-1v-1M981,375v-1h1l-1,-2v-2h1v-2l-1,-2v-2l-1,-1v-3l-1,-2v-2l-1,-1l-1,-3v-2l-1,-2l-1,-3l-1,-2v-2l-1,-3l-1,-1v-2l-1,-1v-3l-1,-1l-1,-2v-1M947,377v-2l-1,-1v-3h2v-1h1v-1h3l1,2l1,1v1v-1l2,2v1l1,1v1l2,2v2h1v1l2,2v3h1v2l1,1v3l1,1v1h1v2h1v3l1,1v2M951,396h2l1,-1h1v-2h1l1,1v1h1v1v-1h2v2l-1,1l-2,-2h-1v-1v2h-1l-1,1l1,1h-2v1h-1v1M953,407v-1l1,1v-1h1v-1h2v-2h2l1,-1h2M961,418v-6l1,-1h1v-3l-1,-1v-5h1l2,2h1v-1h2v2l1,1v-2h1v3h1v-3l1,1h1v-3h1v2l1,2v2l1,1v1h1v4l1,1v3l1,1v1M983,416v-4l-1,-1v-6h-1v-2l1,-1v-3l-1,-1v-4l-1,-1v-3l1,2v-6l-1,-1v-3h1l-1,-2h1v-4l-1,-1v-1h1v1l1,1v2l1,1v3l1,1v2h1v3l1,1v3l1,1v-1v2h1v3l1,2M968,433h1v-8h2v-1h2v1l1,1v3h1v4l1,1v2h1M976,450v-5l1,-2v-7l1,-1v1l1,1v4l1,1v3l1,1v-4l1,1M986,470v-11l-1,-2v-1l-1,-1v-1h-1v-7l-1,-3v-7h-1v-2h1v-3h-1v-5h-1v-3l-1,-1v-5h1v-1v2h1v1v-4h1l-1,-1l1,-1v4l1,1v-2h1v2h1v3h1v-2h1l1,1v2h1M993,461v-5h-1v-7h-1v-12l-1,-1v-1h1h-1v-7l-1,-1v-4l-1,-1v-4l-1,-1v-4l-1,-1v-2h1v-1h1v-2h1M996,450v-2l-1,-1v-6l-1,-1v-4l-1,-4v-4l-1,-1v-6h-1v-4l-1,-3v-2l-1,-1v-3M996,448v-5h-1v-8l-1,-2v-3l-1,-2v-5l-1,-1v-4l-1,-2v-2l-1,-1v-4l-1,-1v-10l-1,-2v-1l1,2v3M996,446v-6l-1,-3v-5l-1,-2v-5l-1,-2v-6l-1,-1v-5l-1,-2v-4h-1v-5h-1v-4l-1,-2v-4l-1,-1v-1l-1,-3v-4h-1v-1l1,1v1M699,42h2M709,46h1l2,1h1v1M716,49h1v1h2l1,1h1v1l2,1h2v1h2v1h1l3,1v1h1l1,1l2,1h1l1,1M739,61h1v1h1l2,1h1v1"/>
<path class="sb" d="M745,64l1,1M747,65l1,1h1v1h2v1h1l1,1h1l1,1h1v1h1l-1,-1"/>
<circle class="w1" cx="481" cy="488" r="6"/>
<circle class="c1" cx="481" cy="488" r="5"/>
<path class="sg" d="M 251.7604 933.2342 A 249.7500 18.2097, 0, 0 0, 747.2396 933.2342"/>
<path class="sg" d="M 67.3058 749.9165 A 432.5797 31.5402, 0, 0 0, 931.6942 749.9165"/>
<path class="sg" d="M 0.0000 499.5000 A 499.5000 36.4195, 0, 0 0, 999.0000 499.5000"/>
<path class="sg" d="M 67.3058 249.0835 A 432.5797 31.5402, 0, 1 0, 931.6942 249.0835"/>
<path class="sg" d="M 251.7604 65.7658 A 249.7500 18.2097, 0, 1 0, 747.2396 65.7658"/>
<path class="sg" d="M 421.7843 992.9172 A 452.0811 499.5000, 8.95083763, 0 1, 577.2157 6.0828"/>
<path class="sg" d="M 473.8809 998.3426 A 286.8755 499.5000, 2.93996069, 0 1, 525.1191 0.6574"/>
<path class="sg" d="M 496.2114 998.9892 A 44.8019 499.5000, 0.37722181, 0 1, 502.7886 0.0108"/>
<path class="sg" d="M 516.3496 998.7157 A 209.2763 499.5000, -1.93312523, 0 0, 482.6504 0.2843"/>
<path class="sg" d="M 550.9302 996.3452 A 407.2791 499.5000, -5.90983538, 0 0, 448.0698 2.6548"/>
<path class="sg" d="M 813.2975 888.1276 A 496.1518 499.5000, -38.91915612, 0 0, 185.7025 110.8724"/>
<text x="0" y="0" class="fs" transform="translate(48,558) rotate(83)">150W</text>
<text x="0" y="0" class="ft" transform="translate(48,558) rotate(83)">150W</text>
<text x="0" y="0" class="fs" transform="translate(213,573) rotate(85)">120W</text>
<text x="0" y="0" class="ft" transform="translate(213,573) rotate(85)">120W</text>
<text x="0" y="0" class="fs" transform="translate(455,579) rotate(90)">90W</text>
<text x="0" y="0" class="ft" transform="translate(455,579) rotate(90)">90W</text>
<text x="0" y="0" class="fs" transform="translate(709,576) rotate(93)">60W</text>
<text x="0" y="0" class="ft" transform="translate(709,576) rotate(93)">60W</text>
<text x="0" y="0" class="fs" transform="translate(906,564) rotate(95)">30W</text>
<text x="0" y="0" class="ft" transform="translate(906,564) rotate(95)">30W</text>
<text x="0" y="0" class="fs" transform="translate(855,763) rotate(-5)">30S</text>
<text x="0" y="0" class="ft" transform="translate(855,763) rotate(-5)">30S</text>
<text x="0" y="0" class="fs" transform="translate(908,516) rotate(-7)">0N</text>
<text x="0" y="0" class="ft" transform="translate(908,516) rotate(-7)">0N</text>
<text x="0" y="0" class="fs" transform="translate(851,265) rotate(-8)">30N</text>
<text x="0" y="0" class="ft" transform="translate(851,265) rotate(-8)">30N</text>
<text x="0" y="0" class="fs" transform="translate(701,76) rotate(-5)">60N</text>
<text x="0" y="0" class="ft" transform="translate(701,76) rotate(-5)">60N</text>
<path class="tb" d="M127,998h-2l-1,-1h-2l-1,-1h-2l-1,-1h-2v-1h-3v-1h-2l-1,-1h-2v-1h-2l-1,-1h-2v-1h-2v-1h-2l-1,-1h-2v-1h-2v-1h-2v-1h-2v-1h-2v-1h-2v-1h-2v-1h-2v-1h-2v-1h-1l-1,-1h-1v-1h-2v-1h-2v-1h-1v-1h-2v-1h-1l-1,-1h-1v-1h-2v-1h-1v-1h-2v-1h-1v-1h-1l-1,-1h-1v-1h-1v-1h-1l-1,-1h-1v-1h-1v-1h-1v-1h-2v-1h-1v-1h-1v-1h-1v-1h-1l-2,-2h-1v-1h-1v-1h-1v-1h-1v-1h-1v-1h-1v-1h-1v-1h-1v-1h-1v-1h-1v-1h-1v-1h-1v-1h-1v-2h-1v-1h-1v-1h-1v-1h-1v-1l-1,-1v-1h-1v-1h-1v-1l-1,-1v-1h-1v-1l-1,-1v-1h-1v-1l-1,-1v-1h-1v-2h-1v-2h-1v-1l-1,-1v-1l-1,-1v-1l-1,-1v-2h-1v-2h-1v-3h-1v-2h-1v-4h-1v-3h-1v-5h-1v-6l-1,-1v-17h1v-7h1v-4l1,-1v-3h1v-3h1v-3h1v-2l1,-1v-2h1v-2h1v-2h1v-2h1v-2h1v-2h1v-2h1v-1h1v-2h1v-1h1v-2h1v-1h1v-1l1,-1v-1h1v-1h1v-1l1,-1v-1h1v-1h1v-1h1v-1h1v-1h1v-1h1v-2h1v-1h1v-1h1v-1h1v-1h1l3,-3h1v-1h1v-1h1v-1h1v-1h1v-1h1v-1h1l1,-1h1v-1h1v-1h1v-1h1l1,-1h1v-1h1v-1h2v-1h1v-1h1v-1h2v-1h1v-1h2v-1h1v-1h2v-1h1l1,-1h1v-1h2v-1h1l1,-1h1v-1h2v-1h2v-1h2v-1h1l1,-1h1l1,-1h1l1,-1h1l1,-1h1l1,-1h2v-1h2v-1h2v-1h2l1,-1h2v-1h2v-1h2l1,-1h2v-1h3v-1h2l1,-1h2v-1h3v-1h3v-1h159v1h3v1h3v1h2l1,1h2v1h3v1h2l1,1h2v1h2v1h2l1,1h2v1h2v1h2v1h2l1,1h1l1,1h1l1,1h1l1,1h1l1,1h1v1h2v1h2v1h2v1h1l1,1h1v1h2v1h1l1,1h1v1h2v1h1v1h2v1h1v1h2v1h1v1h1v1h2v1h1v1h1l1,1h1v1h1v1h1v1h1l1,1h1v1h1v1h1v1h1v1h1v1h1v1h1l3,3h1v1h1v1h1v1h1v1h1v2h1v1h1v1h1v1h1v1h1v1h1v1l1,1v1h1v1h1v1l1,1v1h1v1h1v2h1v1h1v2h1v1h1v2h1v2h1v2h1v2h1v2h1v2h1v2l1,1v2h1v3h1v3h1v3l1,1v4h1v7h1v17l-1,1v6h-1v5h-1v3h-1v4h-1v2h-1v3h-1v2h-1v2l-1,1v1l-1,1v1l-1,1v1h-1v2h-1v2h-1v1l-1,1v1h-1v1l-1,1v1h-1v1l-1,1v1h-1v1h-1v1l-1,1v1h-1v1h-1v1h-1v1h-1v2h-1v1h-1v1h-1v1h-1v1h-1v1h-1v1h-1v1h-1v1h-1v1h-1v1h-1v1h-1v1h-1l-2,2h-1v1h-1v1h-1v1h-1v1h-2v1h-1v1h-1v1h-1l-1,1h-1v1h-1v1h-1l-1,1h-1v1h-1v1h-2v1h-1v1h-2v1h-1l-1,1h-1v1h-2v1h-1v1h-2v1h-2v1h-1l-1,1h-1v1h-2v1h-2v1h-2v1h-2v1h-2v1h-2v1h-2v1h-2v1h-2l-1,1h-2v1h-2v1h-2l-1,1h-2v1h-2l-1,1h-2v1h-3v1h-2l-1,1h-2l-1,1h-2l-1,1h-2Z"/>
<path class="tl" d="M169,986h1v1h-3l-1,-1h2v-1ZM114,989h-3l-1,-1h2l1,1ZM176,983h1l1,1v1h1l-1,1h-2l-1,1h-1l-1,-1l1,-1v-2h1v-1ZM124,980h2v1h-1ZM122,980l1,1h-1l-1,-1ZM136,977h1h-2ZM156,974v1l1,1h-5v-1l1,-1v-1l-1,-1l1,-1v1h1l1,1ZM158,964v1h-2v2h1l-2,2v1h1l1,1h1l4,4v1l1,1v1h-1v2h-1l-1,1h-1v1h-2l1,1h1v1h-2l1,1h1v1h3l1,1h3l1,1h3l1,1h1l1,1v-1h1v-1h2l2,-1l1,1h1v-1h4v-1h3l1,-1h-1v-1h-4l-1,-1l1,-1h1l2,-2h4l1,-1h1l2,-2h-1v-1h1v-1h2v-1l1,-1h1v1h1v-1h8v-1h3v-1h1l1,1h2v-1h1v1l1,-1h4v1h6v-1h3v-1h2v1h3l1,-1h3v-1h2l1,-1h2l1,-1h4v1h1v1h1l1,1h1l1,-1l1,1h2v1l-2,2h-1v1h1h-1v1h-1v1h2l2,-2h1v-1h3l1,-1h1v-1h2l1,-1h5v-1h1v1h5v1h1l1,-1l1,1l1,-1h1l2,-1v1l1,1h3l1,-1h2v1h1v1h4l1,-1v1h9l1,-1l-1,1v1h-1h3l1,1h2l-1,1v1h1v1h2v1h1v2h2l1,1v1h-1l-1,1h-2l-1,1h-3l-1,1h-2l-1,1h-2l-2,2v1h-5l-1,1h-2v1h-1v3h2l-11,4h-155l-11,-4h-1h2l1,-1l1,1h14l-1,-1h-7v-1h-2v-1h-3l-1,-1h4v-1h-2l-1,-1h-7l-1,-1l-2,-1l1,1l1,-1l2,1v-1h1v-1l-1,-1h-1h2v-1h2v-1h4l1,-1h5l1,-1l1,1v-1h1l1,1h1v-1l1,1h6v-1h-2l-1,-1h-1l-1,-1h4l1,1h1l1,-1h3l-1,-1h1l1,1l1,-1l1,1h3v-1l1,1h4v-1h2l1,-1v-1h-1v-1h-1v-1h-1v-1h-1v-2l-1,-1v-1h1v-2h1v-1h1v-1h1l1,-1l1,1ZM144,951l2,1h1v1h-1v-1v1h-4l-2,-2l-2,-1l2,1h2v-2h1v1ZM151,947h1v1h-2v1l-1,-1l1,-1ZM269,946h-1v-2h1l1,1ZM345,939v1h1l1,-1v1l-3,3v-1l-1,1h-1l1,-1v-1l1,-1v-1ZM368,943v1l1,-1v1h-1l-3,3h-1l-1,1h-1l-2,2h-2v1h-1v-1h-1v-1l4,-2h1l1,-1h2l2,-2h1l2,-2ZM376,936l-1,2l1,-1l-1,1l1,1h1l-2,2h-1l-2,2l-2,1h-1l2,-1v-2l1,-1l2,-1v-1l1,-1v-3l1,-1v1l1,1ZM382,913l-1,1v-2l-1,-1v-1h1v1l1,1ZM397,906v1l-1,1h-1v-1l1,-1v1ZM398,906h-1v-1h1l1,-1v1ZM10,905v-1ZM386,904v-1ZM386,901v2h-1v-1ZM259,895v2l1,1h-1v1v-1v2h-1v3l-3,6v2h-1l-1,1l-1,-1h-1v-5h1v-2l1,-1h-1v-3h1v-1h1l2,-2h1v-1l1,-1v-1l1,-1v1ZM361,898v1h1v1h1l-1,1v2h1l-1,2v1l2,2v4h1l-1,2l1,1v3l-1,1v2l-3,3v1l-1,1l-1,2h-1l-1,2h-1l-4,4v1h-2l-1,1h-1l-1,1v-1h-1l1,-1h-1l-1,1h-1v-1h-1v-3h1l-1,-1v-1l1,-1l-1,1h-1l3,-3l-2,1h-1l-1,2v-4l-2,-2h-2l-1,1h-4l-2,2h-4l-1,1v-1l-1,1h-2v-1h-1l1,-1v-1h1v-3l1,-1v-7l1,1v-3l1,-1v-1l1,-1l-1,1l2,-2h1l1,-1h2l1,-1h2v-1h1l1,-1v-2l1,-1v2l1,-1v-1h1v-1l2,-2h2v1h2v-2h1l1,-1v-1h2v-1h-1h1l1,1h3l1,1h-1v1h-1v1l-1,1v1l2,2v1h1l1,1h1v-1l1,-1v-1l1,-1v-3l1,-1v-2h1v-1v3l1,1Z"/>
<path class="tl" d="M383,894h-1v-1v1ZM337,892l-2,-1h2ZM381,893h-1v-1h1ZM382,892v-1l-1,-1h1ZM341,892h-1l3,-3h2l-1,1h-1l-1,1ZM335,889h1v1h-3l1,-1ZM340,889v1h-3v-1h2ZM381,890v1l-2,-2h1v1ZM378,889v-1h-1v-1l1,1ZM325,887h2v-1l2,1v1h2l1,1l-1,1l-1,-1h-4l-1,-1h-1l-2,-1h-1l1,-2h1l1,1ZM353,886v1v-2ZM377,888h-1v-2l-1,-1h1v2h1ZM373,885l-1,1h-1l-1,1l-1,-1h-1l1,-1l1,1v-1h2v-2h1v1ZM345,882h-1v-1h1ZM349,881v2l-1,-1h-2v-1h2ZM374,884l-1,-1v-1l-1,-1h-1h2v2h1ZM353,878v3l2,1v-2l2,-1h1l1,1h1l1,1l4,2v1h1v1l2,1v1h-1v1l1,1v2h1v1h1h-1l1,1l-1,1v-1h-2l-1,-1v-3h-3l-1,1v1h-2l-2,-2v1h-2l1,-2h1l-1,-2v-1l-2,-1h-1l-1,-2l-1,1l-1,-1h1l-1,-1l1,-1h-1v-1h-1l-1,-1h2v-1ZM343,875l-1,1h-4v1l1,2v-1h2l-1,1h-1l1,2v1l1,2v1h-1v-2l-1,1v-1l-1,-1l1,-1h-1v4h-1v-3h-1v-1l1,-1v-4h1v-1h4l1,-1ZM347,875v1h-1v1l1,1h-1v-4h1ZM321,885h-1l-2,-2v-1l-2,-2l-1,-2v-2l-1,-1v-1l-4,-4v-1h2l3,3l1,2h1l2,2h1l-1,2h1v1l1,1h1v3ZM335,874l1,1h-1v3l-1,1v1l-1,3v-1l-1,1l-1,-1h-1v-1l-1,1l-1,-1h-1l-2,-4v-2l1,-1h2v-2h2v-1l1,-1v-1h1l1,-1v-2h1v1l2,2v1h-1l-1,2l1,1ZM344,864v3l-1,-1v2l-2,-2h1l-1,-1v1l-1,-1l-1,1v-1l1,-1h2v-1h1v-1l1,1ZM294,868h-1v-1l-1,-2l1,-2l1,1v1l1,1v1ZM137,863h-1l1,-1h1ZM341,861v1l-1,1l-1,-1l1,-1v-1v1l1,-1ZM335,863l-1,1v-1l1,-1v-1l1,-1v1l-1,1ZM338,859h2v1l-1,1v-1h-1ZM342,858l1,2h-1v1v-1h-1v-1h1h-1v-1ZM338,857l-1,1l-1,-1h1ZM336,849h1v6h1l2,1v2l-1,-1v-1v1l-1,-1h-2v-1h1h-1l-1,-1v-5ZM133,851v1h-1v-1ZM121,852h-1v-1h2v1ZM126,849h3v1h1v1h-2l-1,1v-1h-1v-2h-1ZM324,849l-1,1h-1v-2l1,-1h1v1ZM37,846v-2h1v2ZM38,844h-1v-1h1ZM119,845h2l1,1v1h1v1h2l-1,1h-3v-1h-1v-2h-2l-1,-1h-1h1h-2l-1,1h-1l2,-2h3ZM122,843h-1v-1l1,-1v1ZM334,843v1l-2,-2v-2l1,-1l1,1ZM122,839l-1,1v-1ZM123,839v1v-1h-1ZM340,825h1v1h-1v1h-1v-2ZM240,828l-2,2v-1h-1h2ZM229,828v1h-1ZM220,825v2h-1l-1,-1h-1v-1h2ZM214,821v3h-1v-3ZM344,820v1l1,1v1l-1,1h-1l-1,2l-1,-1v-1l-2,1l-1,1h-1l2,1v3l-1,-1v-1h-1l-1,-1l1,-1v-3h3v-3l1,1v-2h1l-2,-4v-1l3,3v1ZM214,820v1l-1,-1v-1l1,-1ZM340,810l1,-1l1,2h-1v2l-2,-1l1,2h-1l-1,-2l-1,-1h1l-1,-2l-1,-1l3,1ZM144,812l1,1h1h-2ZM147,809h-1l-1,-1h1ZM92,806h-1l-1,-1v-2h-1v-1h1l1,1v1l1,1ZM153,807l-1,1h1v1h2l-1,1h1v1l-1,2l-1,-1l1,-1l-2,1v-1h-3l1,-1h-1l4,-4h1Z"/>
<path class="tl" d="M90,797h1l-2,2v1v-3ZM332,800l3,3l-2,-1l1,2l2,2v1l-2,-2l-1,-2l-6,-6v-1h-1h1l3,3ZM198,806l-1,1h-2l1,-2v-1l2,-2h1v3ZM216,801l-1,2l-1,-1v-1h1ZM79,791h-1v-1h2ZM202,797l-1,2h2v1l-1,1h1l2,4h1v1l-1,1h1l-1,1h-3l-1,1h-2l2,-2h-1v-1h1l-1,-1v-1h2l-1,-1h-1v-2l-1,-1l1,-2v-1l1,1ZM75,786h-1v-1h1ZM141,790l-1,1v-1ZM139,790h-2l1,-1h1ZM78,780v1h1h-2v-1ZM139,786h1v1h1l-1,1h1l-1,1l-1,-1h-1l-2,1l1,-1h-1h1l1,-1l1,-2ZM193,787v1l1,1l-1,1h-3l-1,1l-1,-1h-2l1,-1h-1h1v-1h-2l1,-1h1l1,1l2,-1h2ZM147,784h-1l1,-1h2l-1,1ZM81,776v1l1,-1h2l-1,2h-3l-1,1h-1l-1,-1h1v-1h-1h1h-2l-1,1l8,-5v1l-1,2ZM135,780l-1,1v-1h-1l1,-1h1ZM322,771h-1ZM88,771h-1h2ZM139,780l-1,2l2,-1v1h-1v1l1,-1l2,-1l1,-1h2v2h-1v1l-1,1l-2,1h-1v-1l-1,1l-2,1v1h-3l-2,2h-1l-1,1l-2,1l-1,1l-1,2h1l-1,1v1h1l3,3l2,1h1l-2,2v2l1,1h1l2,-4h-1l4,-2v-1l1,-1v-1l-1,-1l2,-1l2,-4l1,1h1l1,-1v1l1,1h1v2l-1,1l1,1h2l1,-2h1v3l1,1l-1,1l1,1v1h1l1,1v1l1,1l-2,2h-2l-2,2h-1l-2,-1h-2l-2,1l-1,1l-2,1l-1,1l2,-1l3,-1h2l-1,1l-1,2v1l1,1l2,-1l1,-1v1h1l-4,2h-1l-2,1v-1l2,-1h-3v1h-1l-1,1h-1l-2,2l1,1v-1v1h-3l-1,1l2,-1v1h-2l-2,2v1l-1,1l-1,-1l1,-1l-1,1v4l-1,1h-1l-1,1h-1l-3,3h-1v8l-1,1h-1v-3l-1,-1l1,-1l-1,-2l-1,1l-1,-1h-4v1h-1l-1,-1l-1,1l-1,-1l-2,2h-2v1h-1v3l-1,1v1l-1,2v4l1,1v1h1v1l1,-1h3v-1l1,-1v-1l1,-1h3v1l-1,1v2l-1,1v-1v2l-1,1v1h5v1h1v1l-1,1v3l-1,1h1v2h1v1h2l1,-1h1v1h1l1,1l1,-1v-2l1,-1h2l2,-2v2h-1h1v1l-1,1v1h1v-3h1v-1h1v1h1v1h3l1,1l1,-1h1l1,1h1v1l1,1h1v1h1v1l1,1l2,1v-1h1l1,1h1l1,1v1h1v1l1,2v1l-1,1l1,1h2v1v-1l4,2v1h1l3,1h1l2,1l2,2h2v5l-1,1l-1,2l-2,2v9l-1,2v2h-1v1h-2l-1,1h-1l-3,3v5l-1,2l-2,2v2l-2,2v-1l-1,1l-1,-1h-1v-1v1l1,1v1l1,1v2l-2,1h-3l1,1v2l-1,1l-1,-1h-1l1,2h2l-2,2l1,1v1h-1l-1,1v1l2,1h1v1l-1,1v2h-1v1l2,2h-1l-1,1v1h-1l-2,-1l-3,-3l-1,-3v-1l1,-1h-2l1,-2l-1,-2h1v-2l-1,-1v2l-1,-2v-4l-1,-1l-1,-2h1v-6l-1,-2v-8l-1,-2v-6l-1,-2l-1,-1l-2,-1l-3,-2l-1,-1v-1l-1,-2l-1,-3l-2,-3l-2,-2v-1l-1,-2l2,-2v-1h-1v-3l1,-1v-1h1v-2h1l1,-1v-5l-1,-1v-2h-1v1h-1v1h-1l-1,-1h-2v-2h-1v-1v1h-1v-3l-2,-2h1h-2v-1h-2l-1,-1l-1,-2h-1l-1,-1v1h-2l-1,-1h-2l-2,-2h-1l-1,-1v-1h-1v-3h1l-1,-1v-3l-1,-1v-1l-1,-1v-3h-1v-5l-1,-1l-1,1v4h1l-1,1h1v5h1v2h-1v-1l-1,-1v-3l-1,-1v1v-1h-1v-1h1v-9h-1v-1h-1v-9l2,-2v-1l1,-2l2,-2l1,-2l1,-1v-1h1v1l2,-2h-1v-2l-1,-1v-1l1,-1l-1,-1l1,-1v-1l1,-1l-1,-1l1,-1v-1l1,-1l-1,-1h-1v-2h-1v-1h-1l-1,-1h-1l-1,1h-4l1,-1l2,-1h-1l-1,1l-2,1h-1l-1,1l-2,1h-2l-2,1h-1l-1,1h-3l-1,1h-2l1,-1h2l2,-1h2l2,-1h1l2,-1l1,-1h-3l1,-1l-1,1h-1l2,-2h-1v-1l2,-2l2,-1h3l1,-1h1l1,-1h-3v-2h4l1,1l1,-1v-3h4l1,-1h2l2,-1l1,1l1,-1h1l-1,1h1l1,1h2l1,1h2v1l1,1l1,-1h6l1,-1v2l2,-1l-1,1h2l1,1h2v1l-2,1h4v1l2,-2h2v1h1l1,1h2v-1h1l1,1l-1,1l1,-1h1l1,-1v-2l1,-1l2,-1l1,1l-2,2Z"/>
<path class="tl" d="M128,774l-1,1h4l-1,1h1l2,-2v1l-1,2v1l1,1h-2v1h-8v-1h-1v-1h4l-1,-1h-3l2,-1h-1l1,-1h1ZM135,774l-2,1v-1h1ZM152,776v1l-1,-1l-1,1v-2h2ZM146,776v1l1,-1l2,-1v2h3l1,1l-1,1l2,-1v1l1,1v2h-1l2,2v1h1v1l-2,1h-1l-1,-2l-1,1v1l1,1v2l-1,1l-2,-2v1l1,1h-2l-2,-2v-1l-1,-1v1h-3v-1l1,-1h3l1,-1l2,-1v-1l-1,-1h-1l1,-1l-1,-1h-5l-1,-1h-1l1,-1h-1l1,-1l2,-1l1,-1h2ZM138,774h2l-1,1h-1l1,1l-2,1h-2v-2l1,1v-1ZM298,772h-2v-1ZM141,776l-2,1v-1l2,-2h2l1,1l-2,1ZM122,776h-2l-1,-1h1l2,-1l2,-2h2v1h2v1h-1l-3,1h-2ZM299,769v1h-3v-1h1ZM143,773v1l-1,-1h-1l1,-1h1l1,1ZM295,769l1,1h-2l-1,1l-2,-1l-1,-1h2ZM143,771h-1v1l-1,1h-2l1,-1h-1l1,-1h2ZM136,771h1v1h-4l-2,1h-1l1,-1h-1l-1,-1l2,-1h1l2,1l1,1v-2h2ZM246,780h-3l-2,-1v-1l1,-2h-1l1,-1l-1,-1h1l4,-2h2l-1,1l-2,1l-1,1v2l-1,1l1,1ZM145,770l1,1h1l-1,1h1l1,1h4v1h-7l-1,-1l1,-1v-1h-2l1,-1ZM134,769l-2,1h-4l2,-1h3ZM271,770l1,1v-1h2l2,1h1v1l-1,1h1l2,1v-1l1,1l1,-1h2l1,1h3l-2,-1h5l1,1v1h2l2,1l-1,-1h1l1,-1l2,1v-1h1l-2,-1h8l3,1l1,-1h2l2,2h2v-1h3l3,1v-1h-2v-1h7l8,5h-1l1,1l2,1h2v1h-1v1h-1l1,1v2l-2,-1v2l-1,-1v1h-1l2,2v1h1l3,2h-1l1,1h1v1l1,2h-1l1,2l1,1l-4,-2l-4,-3l-1,-2l-1,-1v-3l-1,-2v-1l-2,-2l-1,1l2,2l-3,-1l-1,1l1,2l1,1h-1l-1,1l-1,-1h-1v1h-4v7h1l2,1h1l-1,-1h1l3,1l1,2l1,1l1,2l2,2v9h-1l-1,-1v2h-1v1l1,1v1h-1v1l1,1h1l2,2v1l1,1v1l-1,1h-1l-1,-2l-1,-1h1l-2,-1v-1v1v-1h-1v-1l-1,-1h-2v1h-1l-1,-1l1,-1l-1,-1l-1,1v2h-1v1l2,2h1v-1h2l1,1l-2,1v2l2,2l1,2l2,1v2h1v6l-2,4l-1,1h-1v1l-1,-1v1l-2,1h-1v2l-1,-1v-1h-2l-1,2v2l1,1l1,2l2,2l1,3v4l-2,1v1l-2,1v-2l-1,-1h-1v-1l-2,-2h-1v-1h-1v6h1v3l1,1h1v1h1v1l1,1v3h1v2h-1l-2,-2v-1l-1,-1v-1l-1,-1v-2l-1,-1v-1h-1v-6l-1,-1v-1l-1,-2v-2l-1,-1l-2,2h-1v-3l-1,-2v-1h-1l-2,-2v-1l-1,-1h-1v2l-1,-1v1h-2v2l-2,1l-1,2v1l-2,2h-1v8l-1,1l1,1h-1l-1,1l-1,-1l-1,-2v-1l-1,-1v-1l-1,-2v-1l-3,-6v-3l-2,1h-1l-1,-2v-1l-2,-1l-1,-1v-1l-1,-1l-2,1h-5l-1,-1h-2v-2h-1l-1,1h-2l-3,-3l-1,-2l-1,1v-1l-1,1v2l1,1h1l1,1v2l1,1l-1,-1l1,-1v2h1v1l1,-1h2v-1l1,-1v-1v2l2,2h1l2,2l-1,1v1h-1v3h-1v1h-1v1h-2v1h-1l-2,2h-1l-2,2v-1l-1,1h-2v1h-2v-2l-1,-1v-3h-1v-1l-1,-1v-1l-1,-1h-1v-1l-1,-1v-3h-2v-2l-1,-1v-1l-2,-2v-1v1l-1,1l-1,-1l-1,-2l1,2l1,1l1,2v1l2,2h-1l2,2v1l1,1h-1l1,2v1l1,1l1,2v1l1,1l2,1v1h1v1h1v1l-1,1h1l1,1h3l1,-1h3v-1h1v2l-1,1v3l-1,1l-3,6l-1,1l-2,1l-1,1l-1,2v1h-1v1h-1v2l-1,1l-1,2l1,1v4l1,1v7l-1,1h-1l-3,3h-1v1l-1,1v2h1l-1,1h1v1l-1,1h1l-1,1h-1l-2,2v3l-3,3v1l-2,1v1l-1,1h-2v1l-1,-1v1l-1,-1l-1,1h-2l-1,1l-1,-1h-1v-5l-1,-1v-2l-1,-1v-1l-1,-1v-5l-1,-1v-1l-1,-2v-1l-1,-1v-3l1,-1v-3h1v-1l1,-1v-1h-1v-5l-1,-1v-2l-3,-3l-1,-2l1,-1v-5l-1,-1v-1l-1,1h-2l-1,-1v-1l-1,-1h-2l-1,1h-2l-1,1h-6l-1,1l-4,-4h-1l-1,-1v-1l-1,-1v-1h-1v-1l-1,-1v-1h-1v-3h-1l1,-1v-1h1l-1,-1l1,-1v-4l-1,-1v-1h1v-2l1,-1v-1h1v-2h1l1,-2h1l2,-2v-3l3,-3l1,-2v-1h1l1,1h2l1,-1h2l1,-1h4l1,-1h1v1h1l1,-1h1v1l1,-1v1h-1v1h1v2h-1v1h1v1h3l2,2h1l2,2l1,-1v-2l1,-1h2l1,1h1l1,1h2l1,1h1v-1h2l1,1v-1h1l1,1v-2l1,-1v-5h-2l-1,1l-1,-1h-2v1l-1,-1h-2v-1l-1,-1v-2l1,-1h1v-1h2l1,-1h1l2,-1l2,1l1,1h2l1,-1v-2h-1l-2,-2h-1l-1,-1l1,-1l-1,-1h2l-1,-1v1h-2l-1,1v1h1l-1,1h-1v-1h-1l1,-1h-2v-1h-1v1l-1,1v1h-1v4l1,1h-2v1h-1v-1h-2l1,1h-2v1l1,1h-1h1l1,1v1l-1,-1v1h-1l1,1h-2v-2l-1,-1v-1h-1v-3h-1v-1h-1l-1,-1h-1l-1,-1v-1l-1,-1v1v-1h-2v1l2,2v1l1,1h1l1,1h1l1,1v1l-1,-1h-1v1h1v1h-1v1h-1v-1h1l-1,-1v-1h-1l-1,-1h-1l-2,-2l-1,-2h-2v1h-4l-1,1v2h-2v1l-1,2h1l-1,1v1h-1l-1,1h-2l-1,1l-2,-2v1h-2l1,-1v-1h-1v-2l1,-1v-3l-1,-1l2,-1l1,1h5v-4l-1,-1v-1h-2v-1h3v-2l1,1l2,-1v-1h1l1,-1l1,-2l1,-1h2v-5h2l-1,1h1v1l-1,1v1h1v1l1,-1h2v1h1l2,-2l1,1h1v-1h1v-3l1,-1l1,1v-1l-1,-1v-1h4l1,-1h-4l-1,1l-2,-2v-4l2,-1v-1l-1,-1l-2,2l-1,2l-1,1v3h1v2h-1v2l-1,2h-1v1h-1v-2l-1,-1l-1,-2l-1,-1l-1,2h-1l-2,-1v-5l2,-1l3,-3l2,-3l3,-3h2l1,-2h3l2,1l-1,1h2l1,1h3l3,1l1,1v1l-1,1h-1l-3,-1h-1l2,1v2l1,1h1v-1h-1l1,-1l2,1v-1l1,-2h1l1,1v-1l-1,-1v-1l-1,-1l2,1h1l-1,1l1,1h1v-1l1,-1l2,-1h1v1l1,-1h1l1,-1l1,1l1,-1h-2l1,-1h2l1,1l4,1v-1h-2v-1h-1l-1,-1v-3h2l1,1v1h1l1,1l1,2h1v3l1,1v-1h1l-1,-1l1,-1h-1l-2,-2v-1l-2,-1l1,-1l-1,-1h1l1,2l-1,-1l1,-1h2l1,1l-1,-1l-1,-2h4l-2,-1v-1h1l1,-1h3l1,-1h1v-2l2,1h-1ZM253,820l1,1v2h-1v1l1,1h1l1,1h3l-1,-1v-2h-1v-2h1v-1l-1,-1h-1l1,1l-1,-1v-1h-2v-2h-1h1v-2l1,1v-3h-2l-1,1h-1v1h-1l-1,2l2,1v1l1,1Z"/>
<path class="tl" d="M146,770h-1v-1h1l1,1ZM137,769h-2l1,-1h1l1,1ZM220,771l-1,1h-1v-1h-1l2,-1v1ZM139,768h-2l1,-1v1ZM146,769h-1v-1h1l1,1ZM144,769h-1l-1,-1h-1h1v-1h1l1,1ZM268,768l-3,1v-2ZM215,769l3,1h-2v3h-1l-2,-1h1l-1,-1l-2,-1v-1l1,-1l1,1h1v-1h1ZM220,768h1l-1,1h-4l-1,-1h3ZM234,767l-1,1h-1v-1h-1h4ZM264,768h-4l-2,-1l-1,-1h1l1,-1l4,2ZM153,767v1h-1l-2,1h-2v-1h1h-1v-1l1,-1h2v-1h1v1h1ZM167,764h3v1h-3l-1,1h-1l-1,1l-2,1h-3v1h-1v1h-2l-2,1h1l-2,1h-4l-1,-1h2v-1h2v-1h-1h1l1,-1h1l-1,-1h4l-1,-1h-3v-1l1,-1h6v-1h3v1l2,-1l1,1ZM190,764l3,1h-6v1h5l-1,1l2,-1h4v1l-2,1h-1l-2,2v2l1,1h-2l1,1l-1,1v1h-1l1,1h-3l1,1v1l-1,-1l-1,1h1l1,1v1h-2l-1,-1v1l-1,1h3l-4,2h-3l-1,1l-4,2h-1l-2,1h-1v1l-2,2v1l-1,1l-1,2h-1l-1,-1h-1l-1,-1v-2l-1,-1v-1l1,-1l-1,-2l1,-1l1,-2h1l1,-1v-1l-1,1h-1v-1l1,-1h1l-1,-1h-1l1,-1v-4l-1,-1h-5v-1l-1,-1h1l-1,-1l1,-1h2l3,-1h1l-2,-1h1l3,-1h1v-1h9l1,1l-1,-1h1l2,-1h3l2,-1Z"/>
<path class="th" d="M112,861h1v2h1h-1v1h-1h1v1h-1v-2h-1v-1v1h-1v-2h3Z"/>
<path class="tg" d="M66,970h1l1,-1h4v-1h5v-1h5v-1h6v-1h6l1,-1h7v-1h8v-1h9l1,-1h11v-1h14v-1h20v-1h79v1h20v1h14v1h11l1,1h9v1h8v1h7l1,1h6v1h6v1h5v1h5v1h4l1,1h1M21,927h6v-1h7v-1h8v-1h10v-1h10v-1h12v-1h14v-1h18v-1h23v-1h38v-1h75v1h38v1h23v1h18v1h14v1h12v1h10v1h10v1h8v1h7v1h6M5,877h399M21,826h4v1h7v1h8v1h9v1h10v1h11v1h14v1h16v1h21v1h32v1h103v-1h32v-1h21v-1h16v-1h14v-1h11v-1h10v-1h9v-1h8v-1h7v-1h4M66,783v1h5v1h4v1h5l1,1h5v1h6l1,1h6l1,1h7v1h10v1h10v1h13l1,1h17v1h36v1h21v-1h36v-1h17l1,-1h13v-1h10v-1h10v-1h7l1,-1h6l1,-1h6v-1h5l1,-1h5v-1h4v-1h5v-1M140,755h-1v1h-3v1h-2v1h-2v1h-2v1h-2v1h-2l-1,1h-1l-1,1h-1l-1,1h-1v1h-2v1h-2v1h-2v1h-1l-1,1h-1v1h-2v1h-1l-1,1h-1v1h-2v1h-1v1h-2v1h-1v1h-2v1h-1v1h-1l-1,1h-1v1h-1v1h-2v1h-1v1h-1v1h-1v1h-2v1h-1v1h-1v1h-1v1h-1v1h-1v1h-1l-1,1h-1v1h-1v1h-1v1h-1v1h-1v1h-1v1h-1v1h-1v1h-1v1l-1,1v1h-1v1h-1v1h-1v1h-1v1h-1v1l-1,1v1h-1v1h-1v1h-1v2h-1v1h-1v2h-1v1h-1v2h-1v1h-1v2h-1v2h-1v1h-1v2h-1v2h-1v2h-1v2h-1v2l-1,1v2h-1v2l-1,1v2h-1v3h-1v4h-1v4h-1v5h-1v9h-1v13l1,1v8h1v5h1v4h1v4h1v3h1v3h1v2h1v3h1v2h1v2h1v2h1v2h1v2h1v2h1v1l1,1v1h1v2h1v1h1v2h1v1h1v1h1v2h1v1h1v1l1,1v1h1v1h1v1h1v1l2,2v1h1v1h1v1h1v1h1v1h1v1h1v1h1v1h1v1h1v1h1v1h1v1h1v1h1v1h2v1h1v1h1v1h1v1h1v1h1l1,1h1v1h1v1h1v1h2v1h1v1h1l1,1h1v1h1v1h2v1h1v1h2v1h1l1,1h1v1h2v1h1v1h2v1h2v1h1l1,1h1v1h2v1h2v1h2v1h2v1h2v1h2v1h2v1h2l1,1h2v1h2v1h2M153,755h-1v1h-2v1h-2v1h-1v1h-2v1h-2v1h-1v1h-2v1h-1v1h-2v1h-1v1h-2v1h-1v1h-1v1h-2v1h-1v1h-1l-1,1h-1v1h-1v1h-1v1h-1v1h-1l-1,1h-1v1h-1v1h-1v1h-1v1h-1v1h-1v1h-1v1h-1v1h-1v1h-1v1h-1v1h-1v1h-1v1h-1v1h-1v1h-1v1h-1v1l-2,2v1h-1v1h-1v1h-1v1l-1,1v1h-1v1h-1v2h-1v1h-1v1l-1,1v1h-1v2h-1v1h-1v2h-1v1h-1v2h-1v2h-1v2h-1v2h-1v2h-1v2h-1v2h-1v3h-1v2h-1v3h-1v3h-1v3h-1v3h-1v4l-1,1v4h-1v6l-1,1v30h1v6h1v5h1v4h1v3h1v3l1,1v2l1,1v2h1v3h1v2h1v2h1v2h1v2l1,1v1h1v2h1v2h1v2h1v2h1v1h1v2h1v1h1v2h1v1h1v2h1v1h1v1h1v2h1v1h1v1h1v1l1,1v1h1v1h1v1h1v1h1v1h1v1h1v1l3,3v1h1l3,3h1v1h1v1h1v1h1v1h1v1h1v1h1v1h1l1,1h1v1h1v1h1v1h1l1,1h1v1h1v1h1l1,1h1v1h1v1h2v1h1v1h2v1h1v1h2v1h2v1h1v1h2v1h1l1,1h1v1h2M166,755h-1v1h-1v1h-1l-1,1h-1v1h-1v1h-1v1h-1v1h-1v1h-1l-2,2h-1v1h-1v1h-1v1h-1v1h-1v1h-1v1h-1v1h-1v1h-1v1l-2,2v1h-1v1h-1v1h-1v1h-1v1l-1,1v1h-1v1h-1v1h-1v2h-1v1h-1v1l-1,1v1h-1v1h-1v2h-1v1h-1v2h-1v2h-1v1h-1v2h-1v2h-1v2h-1v1l-1,1v1l-1,1v1l-1,1v2h-1v2h-1v2h-1v3h-1v2h-1v3h-1v3h-1v3h-1v3h-1v4h-1v4h-1v5h-1v6h-1v8h-1v30h1v7l1,1v5h1v5h1v4h1v4h1v3h1v3h1v3h1v3h1v3h1v2h1v2h1v2l1,1v2h1v2h1v2h1v2h1v1h1v2h1v2h1v2h1v1h1v2h1v1h1v2h1v1l1,1v1h1v1h1v2h1v1h1v1h1v1l1,1v1h1v1h1v1h1v1l1,1v1h1v1h1v1h1v1h1v1h1v1h1v1h1v1h1v1h1v1h1v1h1v1h1v1h1v1h1v1h1l2,2h1v1h1v1h1v1h1v1h2v1h1"/>
<path class="tg" d="M179,755h-1v1h-1v2h-1v1h-1v1h-1v1h-1v2h-1v1h-1v1l-1,1v1h-1v1l-1,1v1h-1v1l-1,1v1h-1v2h-1v1l-1,1v1h-1v2h-1v2h-1v2h-1v2h-1v2h-1v2h-1v2h-1v2h-1v2l-1,1v2h-1v2l-1,1v2h-1v3h-1v3h-1v3h-1v3h-1v4h-1v4h-1v4h-1v4h-1v5l-1,1v5h-1v8h-1v11h-1v29l1,1v10l1,1v7h1v6h1v5h1v4l1,1v4h1v3l1,1v3h1v3h1v3h1v3h1v3h1v3h1v2h1v3h1v2h1v2h1v2l1,1v2h1v2h1v1l1,1v1l1,1v1h1v2h1v2h1v1l1,1v1h1v2h1v1h1v2h1v1h1v2h1v1h1v1l1,1v1h1v1h1v1h1v2h1v1h1v1h1M192,755h-1v3h-1v2h-1v3h-1v3h-1v3h-1v3h-1v3h-1v3l-1,1v3h-1v4h-1v4h-1v4l-1,1v4h-1v5h-1v6h-1v6l-1,1v7h-1v8h-1v11l-1,1v18h-1v29l1,1v18h1v11h1v8l1,1v7h1v6h1v6h1v5h1v5h1v4h1v4h1v4h1v4h1v3h1v3l1,1v3h1v2l1,1v2h1v3h1v3h1v2h1M205,755v243M217,755h1v3h1v2h1v3h1v3h1v3h1v3h1v3h1v3l1,1v3h1v4h1v4h1v4l1,1v4h1v5h1v6h1v6l1,1v7h1v8h1v11l1,1v18h1v29l-1,1v18h-1v11h-1v8l-1,1v7h-1v6h-1v6h-1v5h-1v5h-1v4h-1v4h-1v4h-1v4h-1v3h-1v3l-1,1v3h-1v2l-1,1v2h-1v3h-1v3h-1v2h-1M230,755h1v1h1v2h1v1h1v1h1v1h1v2h1v1h1v1l1,1v1h1v1l1,1v1h1v1l1,1v1h1v2h1v1l1,1v1h1v2h1v2h1v2h1v2h1v2h1v2h1v2h1v2h1v2l1,1v2h1v2l1,1v2h1v3h1v3h1v3h1v3h1v4h1v4h1v4h1v4h1v5l1,1v5h1v8h1v11h1v29l-1,1v10l-1,1v7h-1v6h-1v5h-1v4l-1,1v4h-1v3l-1,1v3h-1v3h-1v3h-1v3h-1v3h-1v3h-1v2h-1v3h-1v2h-1v2h-1v2l-1,1v2h-1v2h-1v1l-1,1v1l-1,1v1h-1v2h-1v2h-1v1l-1,1v1h-1v2h-1v1h-1v2h-1v1h-1v2h-1v1h-1v1l-1,1v1h-1v1h-1v1h-1v2h-1v1h-1v1h-1M243,755h1v1h1v1h1l1,1h1v1h1v1h1v1h1v1h1v1h1l2,2h1v1h1v1h1v1h1v1h1v1h1v1h1v1h1v1h1v1l2,2v1h1v1h1v1h1v1h1v1l1,1v1h1v1h1v1h1v2h1v1h1v1l1,1v1h1v1h1v2h1v1h1v2h1v2h1v1h1v2h1v2h1v2h1v1l1,1v1l1,1v1l1,1v2h1v2h1v2h1v3h1v2h1v3h1v3h1v3h1v3h1v4h1v4h1v5h1v6h1v8h1v30h-1v7l-1,1v5h-1v5h-1v4h-1v4h-1v3h-1v3h-1v3h-1v3h-1v3h-1v2h-1v2h-1v2l-1,1v2h-1v2h-1v2h-1v2h-1v1h-1v2h-1v2h-1v2h-1v1h-1v2h-1v1h-1v2h-1v1l-1,1v1h-1v1h-1v2h-1v1h-1v1h-1v1l-1,1v1h-1v1h-1v1h-1v1l-1,1v1h-1v1h-1v1h-1v1h-1v1h-1v1h-1v1h-1v1h-1v1h-1v1h-1v1h-1v1h-1v1h-1v1h-1v1h-1l-2,2h-1v1h-1v1h-1v1h-1v1h-2v1h-1M256,755h1v1h2v1h2v1h1v1h2v1h2v1h1v1h2v1h1v1h2v1h1v1h2v1h1v1h1v1h2v1h1v1h1l1,1h1v1h1v1h1v1h1v1h1l1,1h1v1h1v1h1v1h1v1h1v1h1v1h1v1h1v1h1v1h1v1h1v1h1v1h1v1h1v1h1v1h1v1h1v1l2,2v1h1v1h1v1h1v1l1,1v1h1v1h1v2h1v1h1v1l1,1v1h1v2h1v1h1v2h1v1h1v2h1v2h1v2h1v2h1v2h1v2h1v2h1v3h1v2h1v3h1v3h1v3h1v3h1v4l1,1v4h1v6l1,1v14l1,1h-1v15h-1v6h-1v5h-1v4h-1v3h-1v3l-1,1v2l-1,1v2h-1v3h-1v2h-1v2h-1v2h-1v2l-1,1v1h-1v2h-1v2h-1v2h-1v2h-1v1h-1v2h-1v1h-1v2h-1v1h-1v2h-1v1h-1v1h-1v2h-1v1h-1v1h-1v1l-1,1v1h-1v1h-1v1h-1v1h-1v1h-1v1h-1v1l-3,3v1h-1l-3,3h-1v1h-1v1h-1v1h-1v1h-1v1h-1v1h-1v1h-1l-1,1h-1v1h-1v1h-1v1h-1l-1,1h-1v1h-1v1h-1l-1,1h-1v1h-1v1h-2v1h-1v1h-2v1h-1v1h-2v1h-2v1h-1v1h-2v1h-1l-1,1h-1v1h-2"/>
<path class="tg" d="M269,755h1v1h3v1h2v1h2v1h2v1h2v1h2l1,1h1l1,1h1l1,1h1v1h2v1h2v1h2v1h1l1,1h1v1h2v1h1l1,1h1v1h2v1h1v1h2v1h1v1h2v1h1v1h1l1,1h1v1h1v1h2v1h1v1h1v1h1v1h2v1h1v1h1v1h1v1h1v1h1v1h1l1,1h1v1h1v1h1v1h1v1h1v1h1v1h1v1h1v1h1v1l1,1v1h1v1h1v1h1v1h1v1h1v1l1,1v1h1v1h1v1h1v2h1v1h1v2h1v1h1v2h1v1h1v2h1v2h1v1h1v2h1v2h1v2h1v2h1v2l1,1v2h1v2l1,1v2h1v3h1v4h1v4h1v5h1v9h1v13l-1,1v8h-1v5h-1v4h-1v4h-1v3h-1v3h-1v2h-1v3h-1v2h-1v2h-1v2h-1v2h-1v2h-1v2h-1v1l-1,1v1h-1v2h-1v1h-1v2h-1v1h-1v1h-1v2h-1v1h-1v1l-1,1v1h-1v1h-1v1h-1v1l-2,2v1h-1v1h-1v1h-1v1h-1v1h-1v1h-1v1h-1v1h-1v1h-1v1h-1v1h-1v1h-1v1h-1v1h-2v1h-1v1h-1v1h-1v1h-1v1h-1l-1,1h-1v1h-1v1h-1v1h-2v1h-1v1h-1l-1,1h-1v1h-1v1h-2v1h-1v1h-2v1h-1l-1,1h-1v1h-2v1h-1v1h-2v1h-2v1h-1l-1,1h-1v1h-2v1h-2v1h-2v1h-2v1h-2v1h-2v1h-2v1h-2l-1,1h-2v1h-2v1h-2"/>
<rect x="97" y="850" width="27" height="29" fill-opacity="0" stroke="#ffffff" stroke-opacity="0.5" stroke-width="5.0"/>
<rect x="99" y="852" width="27" height="29" fill-opacity="0" stroke="#113311" stroke-opacity="0.8" stroke-width="5.0"/>
<rect x="98" y="851" width="27" height="29" fill-opacity="0" stroke="#45a249" stroke-opacity="0.9" stroke-width="5.0"/>
</svg>
