<?xml version="1.0" encoding="UTF-8" standalone="no"?>
<svg xmlns:svg="http://www.w3.org/2000/svg" xmlns="http://www.w3.org/2000/svg" xmlns:xlink="http://www.w3.org/1999/xlink" height="1000" width="1000">
<!-- made with pythonshp (GPL): github.com/sanjayrao77/pythonshp , underlying data may come from naturalearthdata.com -->
<!-- 
COPYRIGHT: THIS SVG FILE IS RELEASED INTO THE PUBLIC DOMAIN
 -->
<!-- 
vars : {
	'cmdline' : 'pythonshp.py publicdomain wiki1 ecuador locatormap'
	'title' : 'Ecuador locator'
	'version' : '1.0.5'
}
 -->
<defs>
	<radialGradient id="watergradient" cx="500" cy="500" r="500" fx="500" fy="500" gradientUnits="userSpaceOnUse">
		<stop offset="0%" stop-color="#70add3"/>
		<stop offset="11%" stop-color="#6eaad0"/>
		<stop offset="22%" stop-color="#6ca7cc"/>
		<stop offset="31%" stop-color="#6ba5c9"/>
		<stop offset="41%" stop-color="#69a2c6"/>
		<stop offset="51%" stop-color="#679fc2"/>
		<stop offset="59%" stop-color="#669dbf"/>
		<stop offset="67%" stop-color="#649abc"/>
		<stop offset="75%" stop-color="#6297b9"/>
		<stop offset="81%" stop-color="#6095b6"/>
		<stop offset="87%" stop-color="#5f92b2"/>
		<stop offset="92%" stop-color="#5d8faf"/>
		<stop offset="95%" stop-color="#5b8dac"/>
		<stop offset="98%" stop-color="#598aa8"/>
		<stop offset="100%" stop-color="#5685a2"/>
	</radialGradient>
	<radialGradient id="landgradient" cx="500" cy="500" r="500" fx="500" fy="500" gradientUnits="userSpaceOnUse">
		<stop offset="0%" stop-color="#dddddd"/>
		<stop offset="11%" stop-color="#d7d7d7"/>
		<stop offset="22%" stop-color="#d1d1d1"/>
		<stop offset="31%" stop-color="#cccccc"/>
		<stop offset="41%" stop-color="#c6c6c6"/>
		<stop offset="51%" stop-color="#c0c0c0"/>
		<stop offset="59%" stop-color="#bbbbbb"/>
		<stop offset="67%" stop-color="#b5b5b5"/>
		<stop offset="75%" stop-color="#afafaf"/>
		<stop offset="81%" stop-color="#aaaaaa"/>
		<stop offset="87%" stop-color="#a4a4a4"/>
		<stop offset="92%" stop-color="#9e9e9e"/>
		<stop offset="95%" stop-color="#999999"/>
		<stop offset="98%" stop-color="#939393"/>
		<stop offset="100%" stop-color="#888888"/>
	</radialGradient>
	<radialGradient id="bordergradient" cx="500" cy="500" r="500" fx="500" fy="500" gradientUnits="userSpaceOnUse">
		<stop offset="0%" stop-color="#444444"/>
		<stop offset="11%" stop-color="#3f3f3f"/>
		<stop offset="22%" stop-color="#3a3a3a"/>
		<stop offset="31%" stop-color="#363636"/>
		<stop offset="41%" stop-color="#323232"/>
		<stop offset="51%" stop-color="#2d2d2d"/>
		<stop offset="59%" stop-color="#292929"/>
		<stop offset="67%" stop-color="#242424"/>
		<stop offset="75%" stop-color="#1f1f1f"/>
		<stop offset="81%" stop-color="#1b1b1b"/>
		<stop offset="87%" stop-color="#161616"/>
		<stop offset="92%" stop-color="#121212"/>
		<stop offset="95%" stop-color="#0e0e0e"/>
		<stop offset="98%" stop-color="#090909"/>
		<stop offset="100%" stop-color="#000000"/>
	</radialGradient>
</defs>
<style type="text/css">
<![CDATA[
.c1 {stroke:#45a211;fill-opacity:0}
.fs {font:14px sans;stroke:#ffffff;stroke-width:2px;stroke-opacity:0.8;text-anchor:middle}
.ft {font:14px sans;fill:#000000;fill-opacity:1;stroke-opacity:0;text-anchor:middle}
.sb {stroke:url(#bordergradient);fill-opacity:0}
.sg {stroke:#000000;fill-opacity:0.0;stroke-opacity:0.2}
.sh {fill:#45a211;stroke:#000000}
.sl {fill:url(#landgradient);stroke:url(#bordergradient)}
.sp {stroke:url(#landgradient);fill-opacity:0}
.sr {stroke:url(#watergradient);fill-opacity:0}
.sw {fill:url(#watergradient);stroke:url(#watergradient);stroke-opacity:0.8}
.tb {fill:#eeeeee;stroke:black;stroke-width:2}
.tg {stroke:black;stroke-opacity:0.2;fill-opacity:0}
.th {fill:#45a211;stroke:#378100}
.tl {fill:#aaaaaa;stroke:black}
.w1 {stroke:#ffffff;fill-opacity:0;stroke-opacity:0.6}
]]>
</style>
<circle cx="500.0" cy="500.0" r="500.0" fill="url(#watergradient)"/>
<path class="sl" d="M864,157h-1h1h-1v-1v1v-1h-1v-1v1h1l1,2h1l1,1v1l3,3v1h1l1,1v1h1v1l3,3v1l2,2v1h1l1,2l2,2v1l5,5v1h1v1h1v2l2,2l1,2h1v1l1,1v2l1,1l1,2l1,1v-1h-1v1h1h-2v2l1,1v1h1v1l-1,-1h-1l-1,-1v-1l-3,-3v-1v1v-1l-2,-2h-1h1h-1v2l-1,-1h-1l-2,-2l-1,-2l-2,-2l-1,-2l-1,-1v-1h-1v1v-1l-1,-1v-1h-1v-1v1l1,1h-1v-1l-2,-2v-1h-1v-2l-2,-2l-1,-2l-3,-3v-1l-5,-5v-1h-1l-1,-1v-1v1v-1l-1,-1h-1v-1l-2,-2h-1v-1l-1,-1h-1v-1l-1,-1v-2h-1v-1h1l1,1h3v1h3l1,1l-1,-1l1,1h1l-7,-7v-1h-1v-1v1l-5,-5h1v1h1l-1,-1h-1l-1,-1v-1l-3,-3h-1l-1,-1l-2,-1v-1l-2,-2h-1v-1h-1l-1,-1v-1h-1v1v-1h-1v-1h-1h1h-2v-1v1l-4,-4h-1v-1l-1,-1l1,1v-1h-1h1l1,1h1l-4,-4l-2,-1l-1,-1h1v1h1v1h1v-1v1v-1h-1l-1,-1v-1h-1v-1l-1,-1h-1l-3,-2v-1h-1v-1h-1l-1,-1v-1v1h1h-1h1h-1v-1h-1h1h-1v-1h-1l1,1v-1h-1l-2,-2h-1l-1,-1v-1h-1l-3,-2v-1h-1l-1,-1l1,1h1l3,3h1l5,5h1l6,6h1l2,2h1l4,4h1l8,8h1l28,28v1Z"/>
<path class="sp" d="M800,100l1,1h1l3,3h1l5,5h1l6,6h1l2,2h1l4,4h1l8,8h1l28,28v1"/>
<path class="sl" d="M297,83l-1,1h-1v1l-2,2h-1l-1,1h-1l-1,1h-1l1,-1v-1h1v-1h1l1,-1h1v-1l2,-2l-2,1h-2v1h-1v1h-2l1,-1h1l2,-2h1v-2l1,-1h-1v-1h1l-1,-1h1l1,-1v-1h1v1v-2h1h-1v-1h1v-1l2,-1l-1,1h-1v1v-1h-1l1,-1v-1h1l1,-1v-1h1v-1v1h-1l-4,4h-1v1v-1h-1l2,-2h1h-1l1,-1h-1v1h-1v-1h-1v1h-1h1v1h-1h1v1h-2l-1,1v-1h-1v-1h1h-1h1v-3l-1,-1h1l1,-1h1v-1h1v1h-1l-1,1l1,-1h1v-1l-2,1h-3l1,-1h-6v-1l1,-1h1l1,-1l-1,1h-2v1h-1v-1h1v-1h-1h1l1,-1h1h-3v1v-1l-1,1v-1h1l1,-1l-1,1h-2v1h-1v1h-1v1h-2l-2,2h-1v-1l-1,1v-1h1l-1,1h-1l-1,1v-1h1h-1v1h-3v1v-1v1h-2v1h-2v-1h2l1,-1h2h-2l1,-1h1l1,-1h1v-1h2l1,-1h1v-1h2l1,-1v1l1,-1v1h1v-1l1,-1h2l1,-1h-1l-1,1h-2l-1,1h-3l-1,1h-1v1h-2l-1,1h-1v1h-1v-1v1h-1v1h-2v1h-3v1h-1l-1,1h-1l-1,1v1h-1l-1,1h-2l-1,1h-1v1h-2v1h-2l-1,1h-1l-1,1h-2l-2,2h-1v1v-1l-1,1h-2v1h-2v1h-1h1h-2l-2,2h-1v1h-3v1h-1h1v-1v1h-2v1h-2v1h-1l1,-1h1v-1v1h-1l-2,2h-1v-1v1h-1l-1,1v-1v1h-1v1v-1h1v-1h2v-1h1l1,-1h1l1,-1h1l1,-1h1h-1v1v-1h1h-1v1h1v-1h1v-1h1l1,-1h1v-1h1l2,-1h1l1,-1l-1,1l1,-1h1v-1h2v-1h2v-1h2v-1l2,-1h1v-1h1l1,-1h1l1,-1h1l1,-1h1l1,-1h-1l-2,2h-1v-1h1v-1h1v1v-1l-1,1h-1l-2,2h-1l2,-2h-1h1l1,-1l-1,1h-1l-1,1h-1h1v-1h1l1,-1h-1h1l1,-1h1l1,-1h1l2,-2h1l2,-2h2v-1v1h-1l-1,1h-2v1h-2v1h-1v-1h1l1,-1h1v-1h1l1,-1h1l-1,1l1,-1v1h-1h1l1,-1h1v-1l-1,1v-1v1v-1h1l1,-1l-1,1l1,-1l-1,1l1,-1h1l1,-1h1v-1h2v-1h1l2,-1l1,-1h2v-1h1h-1v1v-1h1l1,-1h2v-1h1h-1v1h-1h1l1,-1h1l2,-1h1h-1h2l1,-1h1l1,-1l2,-1l1,-1h2v-1h1h-2v1h-2v1l1,-1h-1h1h-1l1,-1h1l1,-1h1l1,-1v1v-1h1v-1h2l1,-1h2v-1h1h-1h2l1,-1h1l-1,1h-1v1v-1v1v-1h3v-1h1l1,-1h1l1,-1v1h-2l-1,1h2v-1v1v-1l-1,1v-1h1l1,-1h1h-1h1l1,-1h1l1,-1l3,-1h1v-1h2l1,-1h2v-1h3l1,-1h2v-1h2l1,-1l3,-1h3l1,-1h1h-1l-1,1h1h-1l1,-1h2l1,-1h1h-1h4l1,-1h2l1,-1l-1,1h-1h1h-1l-1,1h1v-1v1h-1h1l-1,1h1h-1h3v1h5v1h3l-1,1v1h2v1h1v-1h1v-1h3v-1h2l-1,1h1l1,-1h4v-1h5v-1h3l-3,1h-1l-1,1h-4l-1,1h-3l-1,1h-1h3v-1h3v-1h2v1h-1h1l2,-1h1v-1h6l1,-1h2v-1h1h-1h2v1h-1v1h-1v1h2v-1h3v-1h1v1h-1l-1,1h-1h4v-1h6v1h3v1h5v1v-1h3l1,1v1h-3v1h-3v1h13l2,-1h1v1h1v1l1,-1h1l-1,1h1v1h-2l1,1v1h1l-1,-1h1v-1h1v1h1v-3l1,-1h4v-1h3l1,-1h-3v1h-6l2,-1h3l2,-1h3v2h1v1h5l1,1h4l1,-1h3l1,1h3l1,-1h-1h1l1,1h3v-1h-4v-1h1h-1h3v-1h2v1h2l-1,1l1,-1h1l-1,1v1h-1v1h2v1h-3l1,1v-1h3v-2l1,-1h2l1,-1h2v-1h1v-1h1h-2l1,-1h-1h2v-1v1h1v-1h-6v-1h-1l-1,-1l1,-1h1l-1,-1h1v-1h2v-1h3l1,-1h1v1h2v1h1v1h-1h1v1h1v1h1h-1v1h-1l-2,1h6v1h-1h1v3h1l3,-3h2l1,1h1v1h1v1h-2v2l2,1h3v-1h1v-1h1v-1h1v-1h1v-1h2v-1h-2v-1h1h-1h1h-1v-1h5l1,1h4v1h3l-1,1h-1h2v1h-4l1,1h1v1h1v1h2v1l-1,1h-1l-1,1h-3l-1,1h-1v-1h-3l1,-1h-1l1,1v1h1v1l-1,-1h-1v1h-1l-1,-1h-1v-1h-2v1h-1v1h1h-1l-2,1l-1,1h-1v1h-3v-1h-2v-1h-7l-1,-1h-2v1h6l1,1h1l1,1h7l-1,1h-1l-3,3h-4v1l-1,-1h-2v1h-1v1h-5l-1,-1h-5l-1,-1h-1v1h4l1,1h-1h5v1h1v1h-1l-1,1h-4v1h1h-3l-1,1h1v1v-1h-2v1h-3v1h1l-2,1h-1v1h-1v1l-1,1h-1v1h-1v1l-1,1v1l-1,2v1h-2l1,1h1v1h1l-1,2h1v-2h5v2l1,1v1l1,2v1h-1l-1,1h-1h3l1,-1h8l1,1h6v1h1l1,1h2v1l2,1l1,1h2l2,1h4v1h2v1l-1,1l1,-1h12v1l1,-1v1h2v1l-1,2v1l1,1v1h1v1h-1v1h1v1h-1v2h1l2,2h1v1h-1h2v1h1l1,1l2,1l1,1v1h-1l-1,1h1l1,-1h2l1,1h1l2,2h1h-1v-1h-1l-1,-1v-1h1v-1h3v1h1v1v-1l1,-1h-1l-1,-1v-1h1v-1h1v-1h1h-1v-1l-1,-1v-1l-2,-2v-2h-1l1,-1h-1l1,-1h-1v-1h-2v-1l-1,-1l4,-1l2,-1h1l1,-1h1l2,-1l2,-2v-1h1v-4l-1,-1v-1l-3,-3l-2,-1h-2v-1h-2l-1,-1v-1h1v-1h1l1,-1h-1l1,-1h1l1,-1h-1l1,-1h-1l-1,-1v-1h-1v-1h-2l1,-1h1v-1h-1l1,-1l-1,-1h-1v-1h-1v-1l1,-1h5l4,1h3l2,1l-1,-1h3v-1h1l1,1h2l1,1h1l-1,1h4v1h-1h1v-1l1,1h1h-1v1h1h-1h1l1,1h6v1h1v-1h1l1,1h-1v2h1v1h-4v1h5v2h2v3h-1v-1h-1v1h-1h3l1,-1h3l2,2h1l-1,1v1h-2v1l1,-1h2v-2h1v1l1,-1v2h1v-1h1l1,-1h1v-1h2l1,1v-1h-1h1v-1h-1h2v-1h-1v-1l1,1v-1h-1h1h-1v-2l1,1v-1h-1v-1l1,-1h1l1,1h-1v1l1,-1h1v1h1v1v-1l1,1h1v1h1v1v-1h1v2h-1h3v1l1,-1v1h1l-1,1h-1v1l1,-1h1v1l1,-1h1v2h-1h2l1,1h2l1,1h-1v1h-1h3v1h1l2,1v1h1v1h-1l-2,-1h-2l2,1h1v1h2v1h2v1h-1h4l1,1h1l1,1h1l-1,1v1h1v-1h3v1h1l-1,1v1v-1l1,-1h3v1h1l1,1h2v-1h1v1h2l1,1l-1,1h-2l-1,1h-1v1h-4v1h-1v1l-1,-1v1h2l-1,1h2v-1h1l1,-1h1v-1h1l1,-1h1h3l2,1l1,1h-1v1h-1h2l1,-1h2l1,1h2l2,2v1h1v2h1h-1h1v1h1h-1h1v1h1l-4,4h-4l-1,1h-3l-1,2l-2,2v1h-5l-1,1h-4l-1,-1h-24v1h-1l-1,1l-1,2l1,1h-2l-2,1h-2v1h-1l-2,1l-1,1v2h-1l-1,1h-1l-1,-1h-2l-4,-1h1v1h5l1,1h1v2h-1l-1,2h-1l-1,2h-1l-2,2h-3l-1,1h-1v1l-2,1h-2v1h-1l-2,2h-1l-1,1h-2l2,1h-1l-1,1l-2,1h19v-1h2l1,-1v1h1v-1h1h-1v-1h1v-1h1v-4h1v-3h1v-1l1,-1v-1h2v1h4v-1l1,1h1l1,1h1v2l1,1v2l1,1v2h1v1h1v1h1v1h1v1v-1h1v1l2,2l-1,1l-2,-1v1h-2v1h-2v-1l-1,1h-1v1h-2v-1h1h-1v-1v1h-1h1l-1,2l-1,1h-2v1l-1,-1v1h-2v1l-2,2v1h-1v2l1,1h1l-1,1h-1l-1,1h2l2,2h-1l1,1h1v1h2l1,-1l-1,-1h-1h2v2l-3,1h-1v-1h-1l-1,1h-1l-1,-1h1h-2v-1v3h-4l-1,1h-6l-2,1l-2,2h-1h1v-3h-1v1l1,1l-1,1v1h-1v1h2v3h-1v3h-1v1h-1v1h-1v2h-1v-1h-1v-1h-2v-1l-2,-1l1,-1v-1h2v-1l-1,1h-1v1h-1v2l2,2v1l1,1h1v1l-1,1l1,-1v3h-1v1l-2,3v1h-1v1l-1,1v-3l2,-2h-2v-1h1h-1v-2h-1v1v-1v1l-1,-1h-1v-2h1l-1,-1v1h-1l1,-1v-1h-1h1l1,-1h-1v-1l1,-1h1h-1h1v-1h-1v1h-1l-1,1v-1v1h-2l1,1h1l-1,1v-1v4h1v1h-1l-1,-1v-1v1h1l1,2h1v1h-1v-1h-2l-1,-1v1v-1h-1v-1l-1,1l-1,-1h1v-1h1v-1l-1,1h-1v2h2l1,1l2,1h1l1,1h1v1h-1v1h-1l-3,-3v1l1,1h1l1,1h1v1h1v1h-2l-2,-1h1l1,1v1h2v1h-2v-1h-1l-2,-1h-2h2v1h2l1,1v1h4l1,1v1l1,3l2,2v1v-1l-2,-1v-2l-1,-2h-1h1l-1,1l2,2h-2l-1,-1l1,1h-2v1h-2v-1h-1l1,1v1h3v-1h1v2h1v-1h1l1,1l-3,3h-1l-1,-1v1l-1,-1h-3l3,1h1l-1,1v1h-2l-1,-1v1l1,1h1l2,-1l1,1h-1v1h-5v1h-1v-1h-1v1h1v1h-1l-1,1h-1v1l-1,1v1v-1v1h-5l-2,2l-1,2l-1,1v-1v2h-2l-2,2h-1v1h-1v1h-3v2h-1v-1h-1v1h1l-1,1h-1v1l-1,1v1h-1v2l-1,1v1h-1v4l1,3v1l1,2l1,3l2,3l2,4h1l-1,1v1l1,1v1l-1,-2v-1h-1v-3h-1v1l1,1v1l1,1l3,8l1,1v1l1,1v2l-1,3v3l-1,1v3h-2l-1,1h-3l-1,-1h2l-2,-2l-1,-2l-2,-1l-2,-2v-2h-1v-1l1,-1h-1v1h-1v-3h-1v1h-1v-1l-1,-1l-1,-3h-1l1,-1v-1h1v-1h-1v-1h-1l1,1v1h-2v-1l1,-3v-5l-5,-4l-3,-4l-2,-1h-3v1h-1l-2,1h-1v1h-3l-1,-1h1v1v-1l-1,-1l-2,-1h1v-1h-2l-2,-1h-1h1v-1h-3v1h-4l1,-1v-1l-1,1h-1v1h-1l-1,1v-1l-1,1h-1l-1,-1v-2h-1l-1,2h-9l-1,1h-4v-1h-2v1l-1,1h1l1,1l1,-1h2v-1v1l-1,1h2l1,-1v1h1v1h-2v1h-1v1l1,1l2,1h1l1,1l-1,1h-2v-1l-1,-1h-2v-1l-3,-1l1,1v2h-1l-1,-1h-2l-1,1h-2l-2,-1h1l-1,-1v-1h-2l-1,-1h-1v-1h-1l-1,1v1h-5l-1,-1l-2,-1h-2l-2,1h-1v-1l1,-1h-1l-1,1l1,1h-2l-4,2h-1l2,-1h-2v-1h-2v1l1,1v1h-1l-1,1v1l-1,1h-1l-2,1l-1,1h-1l-1,1h-1l1,-1h-4l-1,-1v1l2,2h-3v1h-1v1v-1l-1,1h-1v1l1,-1l-2,2h-2l1,2l-1,1v1h-2v1h1v6l1,3h1v2l-1,2l-2,2l-3,7v3l-1,2v7h-1v1l-1,1l1,1v3l1,3l1,1h1v2h-1v1v-3l-1,-1l-1,-2v3l1,1v1l2,5v1h1l3,4l2,2v4l2,2v1h1v1l1,1h-1l1,1h1v-1l1,1h3l1,1h2l1,2l1,1h3l2,-1h1l2,-1h6l1,-1l2,-1h5v1h-1h1v1h3v-1l2,-1v-1h-1v-1v1h-1l1,-1l2,-1h1l3,-3v-3l2,-1v-7h1v-2l4,-2l8,-1l1,-1h2l1,-1h3l2,1h3l1,-1h2l2,2v4l-6,6v1l1,1l-1,1h-1v2h2l-1,1h-1v1h1l-1,2v2l-1,1v2l-1,1l-1,-1h-1v-1l1,-1v-1h-1l-1,1v1l-1,1v1h2v2l-1,2v1l-1,1l1,1l-1,1v6l-1,1v1l-1,1h-1l-2,2v1h1v1h1l1,-1h-1l3,1l1,1l2,-2h2l1,1h10l2,-1h2l-1,-1h2l2,1h3l1,-1h1l2,1l1,1h1v-1h-1l3,1l4,3l-2,-1h-1v1h1l2,2l1,-1l1,1v-1l3,3h-1v1v-1h-1v2h1l1,3l-1,1v1h-1v1l-1,2l-1,4l1,3v4l-1,1v-2h-1v1l1,1v1l-1,2v-1v1l-1,1h1l1,1v1l-2,2v2l1,1v1h1v2l1,2l1,1l2,3h1l1,2h1v1h2v1h1l1,1v2h1v1l1,1h3l-1,-1v-1v1h1l2,2h6l1,-2l5,-1l2,-2l2,-1l1,-1l2,1h3v1h4l6,3l1,2l3,2h-1v1l1,1v1l1,1v2l-1,1v1l-1,1h-1l-1,-1v2h-1l-1,2l-4,-6v-1h1v-2l1,-1l1,1h1l1,1h1l-1,-1l-2,-1v-1h-1v1h-1v-1h-1v1l-1,-1v-1l-1,-1h-1v-1h-1l-1,-1h-1l-1,-1l-2,1h-1l-1,1v1h-1v1l-5,3h-1v2h1l3,3v2h-2l-1,1l-2,1h-2v-1l-1,-1l-1,-2v-2h-1v2h-3l-1,-3l-1,-1h-1l-1,-1h-1v1l-1,-1h-3l-1,-1l-1,1v1l-1,1v-1l-2,-2v-2l-1,-1h-2l2,2v1h-1l-1,-1h-1l-1,-1l1,-1v-3l-2,-2l-2,-1h-1l-2,-1h-1l-1,-1v-2l-5,-3v1l2,2h1v1l-1,1h-1v1v-1l-4,-2l-2,-2v-2l1,-2v-2h-1l-1,-1h2v-1l-16,-16v-1h1v1h1v-2h-1v-2h-3v2h-5l-1,-1h-1h1l1,1h-1l-3,-1l-3,-2h-4l-2,-1l-1,-1l-3,-1h-6l-1,-1l-3,-1l-5,-4l-2,-2l-2,-3h-1l-6,-6l-2,-1l-1,-1h-1l-1,-1h-1v1h2l1,1l-3,-1h-2v-1h1l-1,-1l-1,1v-1h-1l-1,1h2v1h-3l-3,2h-2l-4,2h-5l-3,-2h-4l-3,-2l-3,-1l-2,-2h-2l-6,-2l-4,-2h-1l-3,-2h-2l-3,-3h-1l-1,-2h-1v-1h-5l-1,-1l-6,-2l-2,-2l-1,-2l-1,-1h-2l-1,-1h-1l-3,-2v-1l-2,-2l-1,-2v-2l-1,-1v-1h1l1,-1h1l1,-1h-1l-1,-1l2,-2v-2l1,-1l-2,-1v-2l-1,-1l1,-3l-1,-3l-1,-1h-1l-1,-2l-1,-1l-1,-2l-1,-1l-1,-3l-5,-4l1,1h1v-1h-1l-1,-1h-1l-1,-1l1,-1l-2,-1v-1h1v1l1,-1h-1l-1,-1h-1l-2,-2v-1l-1,1h-1v-1h1l1,-1h-1v1h-2l-1,-1v-2l2,-2h1l-1,-1v-1l-1,-2l-1,1l-1,-1v-2l-3,-1v-1h-1v-4h1l-2,-1h-2l-1,-1l-1,-2l-1,-1v-1l-1,-1v-1l-1,-1v-2l-1,-1v-4h-1v-8l1,-1l-1,-1h-3l1,-1l-2,-2v1h-2l-2,-1v-1h-1v1l-1,1l-1,3v5l-1,2v1l1,1v1l3,3l1,2v2l1,-1v1l1,1v2h1v5l2,2v3h1v2l1,1v2h1l-1,-1v-2l2,2v7l1,1v2l1,2v1l1,1l-1,1v4h1v1h1v-2h1l1,1v1h1v2h1v1l1,1v3h-1l-3,3l-1,-1v-3l-1,-1v-1l-2,-1l-1,-1v-1l-5,-5h-1v-1l-1,-1v-1l1,-3v-4l-1,-3h-2l-2,-2v-3l-1,1h-1l-1,1l-1,-1v-1h-1l-1,-1v-1h-2v-2l-3,-3h5l1,1h1h-1v-1l1,-1h-1h1l1,-2v-3l-1,-1l-1,-3l-1,-1h-1v-1h-1l-2,-2v-2h-1l1,-1v-2h-1v-2l1,-1l-1,-2v-1l-1,-1v-3l1,-1l-1,-1v-2h-1v-2l1,-1h-1v-1l1,-1v-1l-1,-2l-2,-2v-1h-1l-1,1v-3h-4v-2h-3l-1,-1h-3v-1l1,-1v-1l1,-1l-1,-1v-2l-1,-1v-2l-1,-2v-2l1,-1v-1h1v-1h-2v-4l1,-1v-1h1h-1v1l1,1v-3h1v-1h1h-2v1l-1,1l-1,-1v-1l-1,1l1,-1v-1v1v-2l-1,-1v-1l-1,-1l1,-2v-1l2,-2v-3l-1,-1v-1l1,-1v-1h1l2,-2v-1l2,-2v-2l1,-1v-3h1l1,-1v-3h1l3,-3h-1h1l1,-1l2,-3l1,-1v-1l2,-2l4,-5l1,-2l1,-1v-1h2v1h1v-1h-3v-1h1v-1v1l1,-1v-2h1v-1v1h-1v-1h1v-2l1,-1v-2l1,-1v-1h2l1,1h5v1l-1,1l-2,1l-1,1h-1h1l1,-1h1l1,-1h1v-1h1l-1,1h-1v2h-1v1h-3v1h2l1,-1h1v-1l1,-1v-1h1v-1h1v-2h1l-1,-1h1v-1h1v-1h-1l1,-1h-1v-2h1h-1h1v-1l1,-1l-1,1h-1v1v-1l-1,1l-1,-1v-1h1v1l1,-1h-1l1,-1v-1h1v-1v1h-1v1h-1l-1,1h-1v-4h1l2,-2h-1v1h-1v1h-2v-1l-1,1h-3v-1h1h-1h1v-1h1h-1l1,-1h-1v1h-3v-2l1,-1l2,-1h2l1,-1h-2l-1,1h-1v1h-1v-1h1v-1l1,-1h1h-1l2,-2h3v1v-2l2,-1l1,-1h-1v1h-1l-3,2h-1l-1,1l-2,1l-1,1l1,-1v-1l2,-1h1v-1h1h-1l-1,1h-1h1l2,-2v-1h1l-2,1v-1l1,-1v-1h-1l2,-2h1l-1,1h2v1v-1h-1v-1h1v-1h1h-2v1h-2v1h-1v1h-2v-2l1,-1h1l1,-1h1l1,-1h-1l-1,1v-2h1v-1h1l1,-1l2,-1h1l1,-1h-1l-1,1l2,-2v-1h1Z"/>
<path class="sl" d="M764,458l1,-1v-1l2,2l2,7v2l2,4v2l1,2h-1h1v1l1,1v1h2l1,1h1l1,3l-1,1l1,1h-1l-1,1l-1,2h-1l-1,1v2l-2,2h-1v1l-1,1l-2,1v2l-3,3v3l-1,1v1l-1,1h-2l-2,1h2l1,1h1l3,-2h1l4,-4l1,1l-1,1l1,1v2l1,1v2l2,1h1v-1h2l2,1l1,-1l2,-1l-1,2v2l-1,1v2h-1v1h1v-1l1,-2l1,-3l1,-1h1l2,-3h1v1h1v-1h1h-1v-3l1,-1v-1l1,-1v-1h1v1l1,-1h2l1,1v-1h2v1h3l1,1v1h3v1h1v1h2l1,1h1l1,2v1v-1l1,-1h1v1l1,1h1l-1,1h2v3h-1v1h-1l1,1l1,-1v-1h1v2h-1v2l-1,1l-1,4h1l2,-4v-2h2v1l-1,1v1l1,-2h1l1,-1h2v-1h2l2,1v1h1l1,1l2,1h3l1,1h5l3,-1h1l2,1l1,1h1v1l1,1l2,1l1,1l1,2h2v2h1l1,3l2,1v2l2,1l1,2h2v1h5l2,1h1v1l1,3v5l1,2v11l-1,1l1,1l-1,1v1l-1,2l-1,5l-2,2l-1,3l-2,1v1v-1v2l-3,3l-1,2l-2,1l-2,2l-1,2l-1,1l-1,2v-1h1v-1l-1,1v2l-1,1l-2,4l-2,3v1l-3,3h-1v-3l-1,1v1h-1h1v1l-1,1v1l-2,2v5h-1l1,1v-1l-2,5v11l-1,2l-2,3v2l-1,3l-1,1v4l-2,2h-1l-1,3l-2,3v2l-1,3v2l-4,4v2h-1l-1,1v2l-2,1l-2,2l-2,4v1l-1,3l-1,1l-3,1l-4,4l1,1h-1v1h-6l-1,-1l1,-1h-1v2h-2l-1,1h-2v-1l1,1v-2l-2,1h-2l-2,1v2h-2l-2,2h-1l-1,1v1h-1l-1,-1h-2l-4,3l-2,1l-2,2l-4,2l-2,2h-1v1l-2,2h-1l1,-1h-2v1h-2v1h2v1l-2,2l-1,2v1h-1v1h1l-1,1v5h-1v2l-1,1v2l-1,2v1l-2,2v1l-4,2l-7,7l-3,5l-8,8l-3,1l-4,4v-3h1v1l1,-1h1l2,-2h1l1,-1v-1l1,-1h1v-1l1,-1h1l1,-1v-2h1l1,-1l-1,-1l-2,1h-1h1l-1,-1v-1h-1v1l1,1l-2,2v1l-2,2v1l-4,2v1l-1,1h-1l-1,2v2l-2,2l-2,3l-4,4l-4,2v1l-5,5l-2,1l-1,1l-4,1h-2l-1,-1h-3l-2,1l-1,-1h-1l-2,-1l-1,-2h-3l-2,1v-2l-1,-1l-1,-2v-1l1,-2v-1l1,-1h1v-1h1v-3l-1,2v1h-1l-1,1v1l-2,3v4h-1v2l1,1l3,2l3,3l-1,1l-1,2l-1,1v2l1,1h2v3l-10,10l-4,2l-11,2l-8,1h-6l-1,-1h-1v3h1v1h-1l1,1h-1v2h-1l-2,2v5h-1l-3,1l-1,1h-5l-4,-2h-2v-1h-2v1l-1,1v5l-1,1l2,2h1v1h-1h4v-1h-1h1l1,-1h1v4h-1v1h-3v-2h-2l-1,1h-2l2,1l1,1h1h-1l-2,1h-1l-4,4v3l-1,1l-2,1l-1,1l1,1h-1v1h-1l-2,-1l-1,1h-1v1h-3l-2,2l-2,1l-1,2v1h-1v1h1v1l3,3h4l1,1v1l-1,1v1h-1l-1,1h-1h2v1h-1l-3,2h-1l-1,1l-2,1l-1,1h-2l-1,2h-1l1,1l-2,3h-1l-1,1h-2v-1l-1,-1v1h-1l1,1h1v1h-2l-1,1h-1v1l-2,2h-1h1v1l1,1l-1,1h-1v1h2v2l1,1v1l-3,-1h-2l-1,1h-2l-3,1h-1l-1,1v1l-2,2v2h-1l-1,1l-1,-1h-3v-1l-1,-1l1,-1h2v1l-1,1h1l1,-2h2v-1h1v-1h-1l-3,1h-1l-1,1h-1v1h-3v-1h1v-2h3l1,-1h3l-1,-1h-2l-1,1l-1,-1l-2,2h-1v1h-2v-1h1l2,-2h-1v1h-4v-1h-1v-2h1l1,1h1v-1h4l1,-1v1h1v1h-1v1l1,-1v-2h1v-1l-1,-1l-2,-1v1h-1h2l1,1l-2,1h-1l-1,1h-1v-1h-1v-1h-2l2,-2v-1h-4v-1h-1l-1,-1v-1h2v-1l1,-1v1h1v1l2,2h1v-2h1v-1h-1l-1,2l-1,-1v-1h1h-1l-2,-2h1l1,-1h1l-1,-1l1,-1h2l-1,-1v-1h1v-1h-1v1l-1,1h-1l1,-2v-3h2l-1,-1l-1,1v-1l-1,-1l1,-1h4l1,1h1v-1h-1v-2h-1v1h-2v1l-2,-2h-1l1,-1h1v1h1v-1h1h-1l-1,-1l1,-1h1v-2l-1,-1h-1v1h-2l-1,-1v-1h1h-1l-2,1h-1h1v1h-2v-1l1,-1h1v-1h1l1,-1h1v-2h3l1,-1h2v-2h2l-1,1l-1,2v1h-1l-1,1h-1h3v-1l2,-2v2l-1,2l-1,1h1v-1l1,-1v-1l1,-1v-1h-1v-2h4l-1,-1h-1l1,-1v-1h2l2,-1l1,-1v-1h-1l-1,-1h-1l-1,-1h1v-2h1l1,-1l-1,-1l2,-2v-1h1v-3h1v-2h1l1,1v-3h-2v-1h1l1,-1h1v-1v1h-2l-1,-1h-1l-1,2h-3l-1,-1h1v-1h-1v-1l-1,-2v-1h1l1,-3v-1l1,-2l2,-1v-1l2,-2l-1,-7v-3l-1,-2v-1l1,-1v-2l2,1h1v-1l1,-2v-1h1v-1l1,-1l1,-3l2,-2v-1l1,-1v-1h1l1,-1v-2l1,-2l1,-1v-2l2,-2v-1l2,-2l-1,-1v-2l3,-3v-18l3,-1v-2l1,-2v-2l-1,-1v-3l1,-1h1v-2l1,-1v-2l1,-2v-1l1,-1h1v-3l1,-2v-1l1,-2v-1l1,-1v-6h1l1,-1v-8l1,-2v-3l1,-1v-1h-1l-1,-1l1,-1v-2h1l1,-1l1,-3v-3l1,-2v-2l1,-1v-11l1,-3v-1l-1,-1v-10h-1v-1l-3,-2l-1,-1l-3,-2v-3h-1l-2,-1h-1v-1l-2,-1l-2,-2l-3,-1l-1,-1l-3,-1l-1,-1h-3v-1l-3,-2l-2,-1l-1,-1l-5,-2v-1l-3,-3l-2,-1l-1,-2l-2,-2v-1l-1,-1v-2h-1l1,-1l1,-2v-1l-2,-3l-1,-1v-1l-1,-1l-1,-2v-1l-2,-1v-1l-1,-1v-3l-1,-1l-3,-2v-3l-1,-1l-3,-5v-2l-1,-2l-1,-1l-1,-3l-1,-2v-1l-1,-2v-1l-2,-2v-2l-2,-1l-1,-1v-1l-2,-4v-1l-5,-5l-6,-4l-2,-1l-1,-1v-1l1,-1l1,1l1,-1v-1l-1,-2l-2,-2v-1h1l-1,-2l-1,-1v-4h1l3,-3l1,-2l2,-2l2,-1h1l2,-2l1,-3l1,-2v-1l-1,-1v-2h-1l1,3l-1,1h-1v-1l-2,2h-1l-2,-2l-2,-1h-1v-1l1,-1h1v-2l-1,-2l1,-2l-1,-1v-3h2l1,-1v-1l1,-1h1h-1l-1,-1v-1l3,-3l1,-2v-6h2l1,-1h1l1,-1h2l3,-1l1,-1l-1,-1v-1h-1l1,-2h3v-1l-1,-1l1,-2v-1l1,-1h4v-1l1,-1h1v-1h1v-1h-1l1,-1h1v-1l1,-1l1,-2v-1l2,-2h-2v-2l-1,1v-2h-1l1,-1v-1h1v-3h-1v-5l-1,-1l2,-2v-1l-1,-1l-1,-2v-1h1v-2l-1,-1l-1,-2l-3,-3l1,-2h1v-2l1,1h1l1,-1v-1l1,-1v-2l-1,-1v-1l-1,-1v-1h1l4,4v2h1v-5h-1v-1h1l1,-1l3,-2l1,-3l1,-1h3l1,-1l-1,-1v-2l1,-1v-2l-1,1v-1l1,-1v-1l3,-3h1l1,-2h1l3,1h1h-1v1l1,1v-2l1,-1v-2h8l5,-4h2l2,-2v-2h2v-1l2,-1h2l2,1v2l1,1l-1,1h-1v1h-1l-3,1h-1v2l1,2h1l1,1v1h-1l1,1v3l-1,1l-1,2l-2,3l2,2v1h1v2l1,1h3l2,-2v-4l-1,-2l-2,-2v-2h-1v-4h2l8,-4h1l1,-1l1,1h1v-2h-4v-4h3v1h1v3l1,1v1h1v-1h3l1,1h2l4,2v2l1,1v2l1,1h5l3,-1h9v1l2,2h2l1,1h2l1,1h2l6,-4l2,1l1,-1h-1l-2,-1l-1,1v-1h6l2,-1h11v1h-3l-1,1h-4v1h1l1,1v2h-1h1l1,-1h-1h1l1,2l1,1l1,-1v1v-1h1l1,1h1v1h1v1v-1h-1v-1h2v-1v1l2,2h3l1,1v2h-1v1h-1v3l-1,2h-1l1,1h1l1,-1h5v-1h2l1,1l1,2h2l1,1l3,1l4,4v1l2,2v2l-1,2v2l1,-1v-1h4l1,2l2,1v1l2,1l1,1l1,2l-1,3h1v-3l1,-1l4,1h2l2,1v1v-2h1l1,-1l2,1l2,-1h2l4,1l2,1l1,1v1l-1,1v1l1,-3v-1h1l3,2h1l3,1l1,2l3,2l1,1v1l1,-1l1,2l1,1v1l-1,1l1,-1v-2h1v1l1,2v1Z"/>
<path class="sl" d="M999,462v-1v1l-1,-1v-10h-1v-1v1h1h-1v-7h-1v-1v1l-1,1v4l-1,2v3l-1,1v1h-1v-1h-1v-1l-1,-1v-1h-1v1h1l-1,1h-1v-1v1h-1v1h-1v2l-1,1v1h-1v1l-2,-2l-4,-8l-2,-5v-1h-1v-2l-2,-2l-1,-2v-2l-3,-3v-2h-1v-2l-1,-1v-2h-1v-3h1v-1l-1,1v-2h-1h1v-1l-1,-1v-2h-1v-1l-1,-1v-4l-1,1v-1l-1,-1v-1v1l-2,-4v-1l-1,-1v-2h-1v1v-2l-1,1v-1l-1,-1v-3h1v-1h-1v1l-1,-1v-2l1,1v-1h-1v1h-1v-1h-1l-1,-1v-2l-1,1l-1,-2v-2h1h-1v-1v1v-1l-1,-1v-3l-1,-1v-1h1v1h1l1,-1h1h-2v1h-1v-2l-1,-1v-1h-1v-2h1h-1v-1l-1,-1v-1l-2,-2v-1h-1l1,1l-1,-1l1,-2v-7l-1,-4v-3l-1,-2v-5l-2,-6l-3,-6v-2l-1,-1v-2l-1,1v-5l-1,-1l-2,-4l-1,-1l-1,-3h-1v1l1,2v-1l-2,-4l-1,-4v-6l-1,-2v-3l-1,-1v-3l-1,-1v1h1v1l-1,-1v-9l-2,-4v-1l-1,-2v-1l-1,-2v-2h1v-2l-1,-1v-2l-1,-3l-1,-1v-3h1v-1l1,-1v-2l-1,-1v-5l-1,-2v-1l-1,-1v-2l-3,-3v-1l-1,-1l-2,-4l-1,-3l-1,-2l-1,-1l-1,-2v-1l-2,-4v-6l-1,-1l-6,-11l-1,-1h1l-1,-1l1,1v1l4,4h1v-1v1h1l-1,-1v-1v1h1v1h1v1v-1v1h1v-1l-1,-1v-1l-1,-1l-1,-2l1,1v-1l-2,-2v-1l-1,-1v-1l1,1l-1,-1v-1h-1h1l1,1l-1,-1l2,2v1l2,2v1l3,3v1l2,2v1l2,2v1l3,3v1l2,2v1l2,2v1l1,1v1l3,3v1l2,2v1l1,1v1l1,1v1l2,2v1l1,1v1l1,1v1l3,3v1l1,1v1l1,1v1l1,1v1l2,2v1l1,1v1l1,1v1l1,1v1l1,1v1l1,1v1l1,1v1l1,1v1l1,1v1l1,1v1l1,1v1l1,1v1l1,1v1l1,1v1l1,1v1l1,1v1l1,1v1l1,1v2l1,1v1l1,1v1l1,1v1l1,1v2l1,1v1l1,1v1l1,1v2l1,1v1l1,1v1l1,1v2l1,1v1l1,1v2l1,1v1l1,1v3l1,1v2l1,1v1l1,1v2l1,1v2l1,1v2l1,1v2l1,1v2l1,1v3l1,1v2l1,1v2l1,1v2l1,1v2l1,1v4l1,1v2l1,1v3l1,1v2l1,1v4l1,1v3l1,1v3l1,1v5l1,1v3l1,1v5l1,1v4l1,1v6l1,1v4l1,1v7l1,1v6l1,1v8l1,1v10l1,1Z"/>
<path class="sp" d="M900,200l2,2v1l2,2v1l3,3v1l2,2v1l2,2v1l3,3v1l2,2v1l2,2v1l1,1v1l3,3v1l2,2v1l1,1v1l1,1v1l2,2v1l1,1v1l1,1v1l3,3v1l1,1v1l1,1v1l1,1v1l2,2v1l1,1v1l1,1v1l1,1v1l1,1v1l1,1v1l1,1v1l1,1v1l1,1v1l1,1v1l1,1v1l1,1v1l1,1v1l1,1v1l1,1v1l1,1v1l1,1v1l1,1v2l1,1v1l1,1v1l1,1v1l1,1v2l1,1v1l1,1v1l1,1v2l1,1v1l1,1v1l1,1v2l1,1v1l1,1v2l1,1v1l1,1v3l1,1v2l1,1v1l1,1v2l1,1v2l1,1v2l1,1v2l1,1v2l1,1v3l1,1v2l1,1v2l1,1v2l1,1v2l1,1v4l1,1v2l1,1v3l1,1v2l1,1v4l1,1v3l1,1v3l1,1v5l1,1v3l1,1v5l1,1v4l1,1v6l1,1v4l1,1v7l1,1v6l1,1v8l1,1v10l1,1v1"/>
<path class="sl" d="M303,40l-1,1h-1l-1,1h-1l-1,1h-2v1h-2l-1,1l1,-1h2l1,-1h1l1,-1h1l1,-1h1l1,-1h1Z"/>
<path class="sp" d="M293,45l1,-1h2l1,-1h1l1,-1h1l1,-1h1l1,-1h1"/>
<path class="sl" d="M691,414h-1h1v-1h1v1ZM666,397v2h-2v-1h-2v-1h1l1,1h1v-1l1,-1ZM655,399h-1l-1,-1h2ZM690,416h-1l1,-1h1v1ZM653,336h-1ZM654,336h-1ZM654,341h-1ZM16,624v-1ZM643,335h2l1,1h1v1h-1v1h-1l-1,1h-10l1,-1l-1,-1v-2h8ZM648,338h-1h2ZM629,338h-1ZM291,80h1l1,-1v1h-1ZM290,82v-1h1h-1ZM296,73v-1ZM283,64h-1ZM280,66h1v-1h1l-1,1ZM275,65h-1ZM270,64h1ZM222,90v-1ZM223,89h-1h1v-1ZM207,96h1ZM300,42h1ZM278,52h1h-2v1h-2v1h-1h1v-1h2v-1h2ZM255,65h-1v1h-1l-1,1h-1l-1,1l1,-1h1v-1h1l1,-1ZM251,75v1v-1h1v1h-1l-1,1h-2v1h-2v1h-2v1h-2l2,-1h-1h1h-1v1h-1l2,-2h1l1,-1h1v-1h1v1h-1l-1,1l1,-1h1v-1h1l1,-1l-1,1h1v-1h2ZM218,90l-2,1l-1,1h-2v1h-1h1v-1h1l2,-2h2v-1ZM284,85l-1,1h-1h1v-1ZM288,87v1h-1l1,-1h-1v1v-1h1v-1h1v1ZM291,82l-1,1h-1h1h-1v-1h1l2,-2l1,1h-1v1ZM292,85l-1,1h-1l-1,1v-1h1h-2v1h-1l2,-2h1l1,-1l2,-1v1ZM292,78h1v1h-1v1h-1v-1v1h-1v1h-2l1,-1h1v-2h1ZM282,88h1v1h-2v-1h1v-2h1v2ZM281,63v1h-1v-1ZM274,66h1l1,-1h1l1,-1h1h-1l-2,1v1h-1ZM278,64h-1l-1,1l1,-1h-1h1l1,-1v1v-1h1ZM280,62h1ZM246,79h-1l1,-1ZM256,72h1ZM251,75h-1ZM233,85h1ZM239,82h-1h1v-1h1ZM240,82v-1h1h-1ZM223,88h-1v1h-1h1v-1ZM218,90h1ZM214,93v-1h1ZM222,89l-1,1h-1l1,-1h2v-1v1ZM209,95v-1h1ZM210,94h1v-1v1ZM246,73h-1l1,-1h1ZM230,80h-1h1v-1ZM199,101h-1v1v-1ZM197,103h-1h1v-1ZM195,104h-1v1Z"/>
<path class="sp" d="M194,105l1,-1"/>
<path class="sl" d="M226,82h-1v1v-1ZM289,77l-2,2v1h-1l-2,2v-1l1,-1h1h-1l1,-1h-1h1l1,-1v-1l-1,1h-1h1v-1h1l1,-1h1ZM295,73h1v1h-1v1h-1h1v-1h-1v1l-2,2l-2,1h-1v-1h1l1,-1h1v-1l2,-1v-1h1v-1ZM292,73h-1v1l1,-1h1v1h-1l-1,1v-1v1l-1,1v-1h-1l-1,1h-1l1,-1v-1l1,-1h3v-1ZM288,81h1v1h-1l1,1h-1v2h-1v1h-1v1h1l-1,1h-1v1h-1v-2l-1,1v-1h1v-1h1v-2h-1h2v-1h1h-2l1,-1h1ZM289,79h1h-1v1h-1v1h-1v1h-2v1h-1l2,-2h1v-1l1,-1h1v-1l1,1ZM255,73h1h-1v1v-1v1h-2l-1,1v-1h1l1,-1h2ZM203,98l-1,1h-1v1h-1v1h-1h1v-1h1v-1h2v-1h1v-1v1ZM208,96h-1h1v-1v1h-2v1v-1h1l-1,1h-1v1h-2v1v-1h1l1,-1h1v-1h1l1,-1ZM51,335h-1v-1l1,-2v-3l2,-2v-2l1,1v5l-3,3ZM53,317l1,1h-1ZM54,319v1v-1v3h-1v-3ZM52,315v1h-1v-1h1v-1l1,-1l-1,1ZM50,312v-2l1,-1v2ZM49,312l-1,1v-1h1v-1ZM52,321v-1l1,-1v1ZM573,167h-1h1l1,-1h1v1l1,-1h1l-3,1h-1v1h-2l-2,1h-6l1,-1h1v-1v1v-1h7v-1h1ZM595,146h-1h1h-1v-1h1ZM562,170v-1h1v1ZM585,164l-2,1v-1h1ZM580,163v1v-2ZM589,165h-1v-1ZM557,206h-1l2,-2v-1l-1,-1l1,1v2ZM556,206h-1ZM551,210v-1l2,-1l-1,1ZM512,271h-1v-1ZM512,270l-1,-1h1ZM526,281l-2,1l2,-2v-1h1ZM438,248l-1,-1v-1h1v1ZM398,260h-1l1,-1ZM400,258h-1l1,-1l2,-1h1l-1,1ZM395,264l-1,1v-1l3,-3v-1l-1,3ZM414,250h-1l2,-1h1h-1ZM395,273v1l-1,-2v-4l1,4ZM261,224h-1v-1v1ZM254,216h-1v-1h1ZM255,215h2l-2,1ZM262,220h-1v-1ZM291,121h-1ZM290,122h-1v-1h1ZM290,124v1v-1l1,1h-1v-2h1v-1v1h-1ZM580,163l-1,1v-1ZM563,175v1l1,-1ZM557,187v-1l1,-1v-1v2ZM551,210h-1v-1ZM518,285l-1,-1ZM522,284v-1ZM524,283h-1ZM520,284v1v-1h1ZM516,236v1ZM516,285h1ZM527,264v1l-1,-1l-1,-2v-1ZM515,286h-1l1,-1ZM463,242h-1ZM466,242h-1ZM458,243h-1l1,-1ZM461,245h-1l1,-1l-1,-1l1,1ZM490,246l-1,1v-1l1,1v-1h2ZM288,128h-1ZM288,127v-1h1ZM290,122h1ZM593,146v1h-1v-1ZM720,924h1ZM713,902h1v1h-1h1l1,1h-1v1l1,-1l-1,1v1h-2v-1l1,-1h-1v-1l-1,-1h-1h1h-1v-1h2v1ZM963,567v-1ZM180,702l-1,-1h1ZM667,337l-1,1v-1ZM631,886h2v1h-1l1,1v-1h2v1l-1,1h-2l-2,1h-3v1h-1l-1,1v-2h1v-1h1l1,-1h1v-1ZM623,887h2v-1l1,1h2v-1l1,1h-1l-1,1h-1l-2,2h-2l-1,1h-2l-1,-1h3v-1h2v-1h-1h1v-1h-1v-1h1ZM619,889h1h-1v1l-1,-1ZM631,890h-1ZM624,887v-1h1ZM519,327v1v-1h1l1,1h-3v-1ZM530,325h-1l1,-1ZM531,325h-1l1,-1h1ZM637,227h-1h1v-1Z"/>
<path class="sl" d="M656,335h1ZM655,336h-1v-1h1ZM657,333h-1ZM596,308h-1v-1h1ZM594,307h-1v-1h1ZM591,307l1,1h-1ZM675,349v1ZM823,121v-1ZM821,119v1ZM787,94h1h-1v-1h-1h1ZM807,107v1l1,1l-1,-1h-1v-1v1h-1v-1h-2v-1h-1v-1l-3,-3h-1v-1h-1l-1,-1v1h1h-1v-1h-1v-1h-1v-1l1,1l-1,-1h1h-1l-1,-1h-1v-1h-1v-1h-1l-1,-1h-1l-2,-2l-2,-1l-1,-1v1h1h-1v-1v1l-1,-1l1,1l-1,-1h-1l-2,-2h-1v-1h-1l-3,-3h-1l1,1h1h-1l-1,-1h-1h1l2,2l3,2l-1,-1h-1v-1h-1l-3,-3h-1l-1,-1h-1v-1l1,1h-1l-1,-1h-1v-1l-1,-1h-1l-1,-1h-1v-1h-2v-1h-1l-1,-1h-1v-1h-1v-1h-1h1h-1h1h-1h1l-1,-1h1v1h1v1h1l2,2h1l1,1h1h-1h2l1,1h1l3,3h1l2,2h1v1h1h-1h1v1v-1v1h2l2,2h1l2,2l4,2l1,1h1l2,2h1v1h1l1,1h1l1,1h-1v-1v1l2,1l1,1h1l2,2h1h-1v-1v1h1l2,2h1v1h1l2,2h1v1h1v1h1v1h1l2,2h1v1h-1l-1,-1l1,1v1h1h-1h1h-1v-1h-1l3,3h-1v-1h-1l2,2h-1v-1v1l-2,-2v-1h-1l-1,-1v-1h-1v-1h-1v-1l1,1v-1h-1l-1,-1v-1h-1ZM794,98v1h1h-1l-1,-1ZM753,70h-1ZM744,64h-1l-1,-1h1v1ZM744,64v1v-1l2,2h1l1,1h1h-1l-1,-1h-1v-1h-2v-1h-1ZM742,63h1v1ZM755,72h1h-1v-1h-1h1ZM756,72h-1ZM754,71h1h-2v-1v1ZM753,70h-1v-1v1ZM768,82v-1ZM778,87h-2v-1l1,1ZM771,83h-1l-1,-1h-1h2ZM773,85l1,1h1l1,1l-1,-1h-1h1h-1v-1ZM774,86v-1h-1v-1h-1h1v1ZM756,74h1v1h2v1h1h-1l-1,-1h-1v-1h-1h1h-1l-1,-1ZM766,80h-1ZM762,77l1,1h1v1h1l1,1l-1,-1h-1l-1,-1h-1v-1v1v-1h-1ZM760,77h1ZM764,79h-1l-1,-1ZM765,80h-1ZM786,94h-1v-1h-2v-1v1h1v1h1h-1l-2,-2h-1v-1h-1v-1h-1v-1h-1h1h-1v-1l1,1h1l2,2h1v1h1l1,1h1v1h1ZM814,113h1h-1v-1h-1h1ZM691,396l-1,1v-1h1l1,-1v1ZM689,405l-1,1h-6l2,-1v-1h1v-3h-1v-1h4v-1h2l-1,1v4ZM889,187l-1,-1ZM884,180l1,1v1h1v1v-1h-1v-1v1v-1h-1l-1,-2ZM884,179v1l-2,-2h1v1ZM888,185v1l-1,-1v-1v1ZM906,260v2h1l-1,1l-1,-1v-2h-1h1v-1l1,-1v1ZM911,256v1v-1l-1,-1l1,-1h-1h1v1ZM913,262v1l-1,-1v-2l-1,-2v-1l1,1v1l1,1v1ZM909,262h1v2h1l-1,1l-1,-1v-1ZM905,263h-1v-1h1ZM903,264v1l-1,-1ZM901,259l-2,-2v-1h1v1l1,1ZM969,433l-1,-1v-1h1v1ZM14,616v2l1,1l-1,-1v-1ZM15,621v-1ZM686,380l-1,-1v-1h1v1ZM686,381h-1h1h-1ZM685,384v-1ZM688,374l-1,1l-1,-1v-1l1,-1ZM672,346h-1ZM671,345h-1l-1,-1h1ZM885,226l1,1v-1l1,1v1h-1v-1h-1ZM841,196h-1ZM806,179v1v-2ZM826,185h-1l-1,-1h2ZM824,185h-2v-1h-1l1,1ZM820,185h-1ZM823,186h-2v-1Z"/>
<path class="sl" d="M835,190h1l1,1h-2l-1,-1ZM541,421l-1,-1v-1h1v1ZM517,429h-1l-1,-1v-1h1v-1l1,1v1ZM512,411v1l-1,-1ZM742,62h-1Z"/>
<path class="sp" d="M741,62h1"/>
<path class="sl" d="M658,27h-1l-1,-1h1v1ZM29,663h-1v-1v1ZM48,680h-1v-1h1ZM812,109v1h1h-1h1h-1Z"/>
<path class="sp" d="M798,99v0"/>
<path class="sl" d="M800,100l1,1v-1ZM809,107l1,1v-1v1ZM630,388v1l-1,-1v-1h1ZM616,385v1l-2,-2h1ZM625,389l-2,-1l-1,-1v-1h1v1l2,1ZM473,320h-1v-1l1,-1h1v-1v1ZM319,310h-1v-1h1ZM283,333h-1v-1ZM295,283v1h-1v-2h1ZM285,252h-1v-1l-2,-2l1,-1h1v2h1v1ZM269,259v1l-1,-1l1,-1v-1h1v1ZM291,252l-1,2h-1l-1,-1l1,-2l1,-1h1v1ZM251,253v-2h1h-1l1,1ZM434,333h-2l2,-1h1ZM299,289h-1v-1ZM280,232v-1v1h1ZM293,275h-1v1h-1l1,-1v-1h1ZM286,288h-1l-1,-1v-1l1,1ZM283,286v1v-2h-1l2,-4l-1,3v1ZM934,329v1v-3ZM2,539v-1ZM27,533h1ZM45,597v-1ZM20,482l1,1h-1v-2ZM17,464v1h-1h1v-1h-1v1v-1ZM1,524v1v-1v1ZM553,335h2l1,1h1l3,1l1,2v1h-2l-1,-1h-2l-1,1l-1,-1v1l-1,1v-1h-4l-1,-1v-1h-1l-1,-1h-2v-2h3v-1l5,1ZM783,95h-1v-1ZM778,89h1v1h1v1h1v1h1l2,2h1h-1v-1h-1v-1v1h2v1h1l1,1h1l2,2h1v1h1l2,2h1v1l1,1h1l2,2h-1h1h-1v1h1v1v-1h-1l1,1h1h-1l1,1v1l-1,-1v1l-1,-1v-1v1h-1v-1h-1v-1h-1v-1h-2v-1h1v1v-1h-1v-1h-1h1v-1h-1v1v-1v1l-1,-1v-1h-1l-1,-1v-1h-2l-1,-1h-1v-1h-1v-1h-1l-1,-1h-1v-1v1l-1,-1h2l-1,-1h-1v-1h-1v-1h-1l-1,-1h-1h1l-1,-1h1v1l-1,-1h1v1h1v1v-1h-1v-1h-1h1ZM687,41l1,1h2l1,1h2v1v-1l1,1h2v1h2v1h1l1,1h-1h2v1h1v1l1,1h-1v1h1v1l-1,-1h-4v-1h-3v-1v1h-3v-1h-1h1v-1h-2v-1h-2l-1,-1h-3v-1h1h-1l-1,-1h-1v-1h-2v1h-2v-1h1h-2v-1h-1v-1h-1h1l1,1h1h-1h1l-2,-1h-1l-1,-1h1l1,1h2l1,1h2l1,1h-1h2v1h2l1,1l-1,-1h-1v-1h-1h1h-1l-1,-1h-1h3v1h1h-1l-1,-1v-1v1h3l1,1h-1v-1h-2v-1v1h2l-1,-1v1h1v-1h-2v-1l1,1h1ZM477,352l-2,1v-1h3ZM481,351v1h-1ZM597,325v3l1,1l-1,1v2h1l-1,1v1h-1l2,2v2h-1l-1,-1h-15v1h-1l-2,-2h-2v-1h-1l2,-2h1l1,1h4l6,1h1v-1h3v-1h-1l-3,-3v-3l-1,-1l-2,-1h-3v-1l1,-1h6l1,1h2l2,1h1ZM589,332v1l-4,-2h2l1,1ZM589,322h1h-2ZM953,401v-1ZM954,401v-1ZM954,400v-1h1v1ZM954,397v1v-1h1ZM953,398v-1ZM952,394l1,1h-1ZM682,389v-1l1,-1v2ZM845,140v1v-1h-1v-1v1ZM688,368v1h-2l-1,-1l1,-1h-1l-1,-1v-1h1l1,1h1v1ZM682,354h-1l-1,-1h1l-1,-1l1,-1v1l2,2ZM680,356h-1v-1l-1,-2h2v2ZM683,357l-1,-1h1ZM658,131h-1ZM657,131v-1h-1v-1v1h1ZM667,338h-1ZM56,641v-1ZM64,648h-1v-1h1ZM57,643v-1ZM66,649l1,1h-1v-1l-1,1v-2h-1l1,-1v1h1ZM94,580l1,1v-1v1h-1ZM94,582v1ZM97,587v-1ZM88,573v1l-1,-1v-1ZM89,578l-1,-1h1ZM100,650v-1ZM91,574l-1,-1h1ZM102,654h-1Z"/>
<path class="sl" d="M101,652v1v-1h-1v-1v1ZM123,655l-1,-1h1ZM118,674h-1v-1ZM89,635v-1ZM86,639v1l-1,-1ZM85,640v-1ZM78,633v1l-1,-1v-1ZM77,637h-1v-1ZM598,338v-2l-2,-2h-1h2v-1l1,-1h-1v-2l1,-1l-1,-1v-4l1,-1h1l1,1h1l1,-1h2v1h3l1,1h3l1,1v2h5v1h-3v1h5l1,1h2l3,3l-1,1v1h-1v1h-1l-2,-2h-7l-1,1h-1l-1,1h-3v-1h-3l-1,1v1l-1,2l-1,1v1l-1,-1h-1v-1l-1,-1ZM683,362l-1,-1v-2h1v2ZM545,3h9v1h5l2,1h1h-1v-1h-1h2v1h6v1h1h-1v-1h-1h1h-1h5v1h4l1,1h1h-1h3l1,1h4v1h3l1,1h4v1h1h-1v-1l1,1h4v1h5l1,1h-1v-1h-2l1,1h-1l-1,-1v1h5v1v-1l1,1h3l1,1h4v1h1h-1h2l1,1h1h-1l-1,-1l1,1h4v1h1h-1h1h-3l-1,-1h-1h1v1h3v1h5l1,1h-3l-2,-1h-1v1h1h-1v1v-1h5l1,1h2l2,1h2v1h1h-2l-1,-1h-3l-2,-1h-1v1v-1h1l2,1h2l1,1h4l1,1h2l1,1h2l1,1h2l1,1h2v1h1h-2v-1h-2l2,1h-1l-1,-1h-2l-1,-1h-2l-1,-1h-4v-1h-2v1h4l1,1h-2l1,1h1h-1h1l1,1h1l1,-1v1h1l1,1v-1h-1h5l1,1h3v1h1h-1h1v1h1v1h1v1h-2v1h-2v1h-1l-1,-1h-3l-1,-1l1,1h1l1,1h1v1l1,1h1v1l1,1h1h-1l1,1h-2l1,1v1v-1h-1l1,1h-1v1h-1v-1h-2v-1l-1,-1h-1l2,2l-2,-1h1l1,1l-1,1h-3h3v1h-2v1h2l1,1h2v1h-1h1h-3l2,1h2l1,1h1v1h1h-1v1h1v1h-1l-1,-1h-1h1v1h2v1h-1v1h2v1h1l1,1h1v1h1v1l3,3v1h-1h1v1h1l1,1v1h-1v-1h-1l1,1h-3v-2h-1v1h-1l-2,-1h-1h1v-2l-1,1h-3l-2,-2v-1h-1v1h-1v1h-5v-1h1h-2l-1,-1h-2l-1,-1h-1l-1,-1h-1v-1l1,-1h-2v1h-1v-1h-2v-1h-2v-1h-1v-1h-3v-1h-2l-1,-1l-2,-1h-1v-1h-1h2v-1h1h-3v1l-1,-1v-1h1v-1h1l1,1h1l-1,-1h-3l-1,-1h-1h1l1,1h1l-1,1v-1h-1v2h1h-2v-1h-1v-1h-1l-1,-1h-1l-1,-1l1,-1h1h-2v1h-1l-1,-1h-2l-1,-1h-1v-1h1l2,-2h-1l-1,1v1h-3v-2h1h-3v-1h-2v-1h-1h1v-1h6l2,1l-2,-1h-6v1h-1v-1h-1l1,-1h-1v-1h1l1,1h3v-1h-6v-1h4l-1,-1h2l-1,-1h-2l-1,-1h1l-1,-1h-7v-1h-5l-1,-1h-1h6l2,1h1v-1h-2l-1,-1h1h-5l-1,-1h2v-1l-1,1l-1,-1v1h-2v-1h-1l-1,-1h-1h1l1,1v1h1h-5v-1h-1v-1h-1l-1,-1h1h-1v-1h-3v-1h-3v-1h-2v-1h-2v-1h-4l-1,-1h-3l1,-1h-4l-1,-1h-20v-1h1h-3v-1l-1,1h-1v-1h-1h8v-1h-11l-1,-1h-1h1v-1h9v-1h-1v-1h1h-4v-1h3v-1h-1h5v1h1l-1,-1h-1h10l-2,-1h3h-1h1h-1h2ZM588,28h1l1,1h2v1h-5v-1h-4v-1h1h-2v-1h3l1,1ZM594,29v1v-1h-2v-1h1l1,1h-1ZM581,25h-1v-1ZM571,21h-1v-1h1ZM523,11h-2v-1h1ZM543,4h-5v-1l2,1h2ZM639,26l1,1h1v1l-1,-1h-4v-1h2ZM564,5h-1v-1h-1l1,1ZM581,7v1l-1,-1h-1h1ZM594,10h-1ZM609,14l-3,-1h-1h1Z"/>
<path class="sl" d="M615,15l1,1h1h-2l-1,-1l1,1ZM597,11h-1ZM650,43h-1v-1h1ZM648,61h-2l1,-1h1ZM587,26h-2v-1h1ZM730,59v-1h-1h1ZM733,60h-1l-1,-1h1v1ZM727,57h1v1ZM727,57h1h-1h1l1,1l-1,-1h-2ZM727,57l-1,-1ZM514,297h6v1l1,-1h3l1,1h3l1,1h1l2,1l3,3h5l6,3l2,2h1v-1l2,1l1,1h-1v1h1l1,-1l2,2h1l1,1h3l1,1h3l1,1v1l-1,1h2l1,1l1,-1l2,1h1l1,1h1l2,2h2v1l-1,1h-4l-1,1h-2v-1v1h-5l-3,-1h-1l-2,1h-10l2,-1l3,-3v-1h-1v-1h-3l-2,-1h-2l-2,-1l-1,-1l-1,-2v-1l-1,-1v-1h-1l-3,1l-1,-1l-5,-1l-2,-1h-1v-1h-1l-1,-1l-4,1v-1h-1v-1l-1,1h-1v-1h-5l-1,-1h1l2,-1h1l-1,-1l-8,-1v1h-1l-1,1h-1v1h-1v1h-3l-1,1h-2v1l-1,1h-1l-2,1v-1l-1,-1v1h-2l3,-1h1v-3l2,-2h1l6,-3h5v-1h2l2,-1ZM548,306v1l-1,-1h-1v-1h1ZM545,304h-1v-1h-1l1,-1v1h1ZM540,302h1ZM546,305h-1v-1h1l1,1ZM509,309l-1,1h-4v-1l1,1v-1l-1,-1v-1l1,-1l2,1h1v1ZM534,301l-1,-1h-1v-1l2,1ZM548,471l-1,-1h1ZM307,722h-1h2ZM535,771h-1v-1h1ZM578,893v2l-1,1v2l-1,1v2l-1,1v2l-1,1h-4l-1,-1h-1v1h-1v-1h-5l-1,-1l-2,1v-1h2l1,-1l1,1l1,-1h1v1h2l-1,-1h-1v-2l2,-2v2h-1v1h1l1,1h-1h4l1,1h1v-1l-4,-1v-2h1l1,-1h2v-1h-5v-2h2v-1h-1h4v-1h1v-1h1l1,1ZM581,906v1h-2v-1l-1,1h-2v-2h5ZM562,838h-3v-1h-1h1v-1l1,-1l1,-2l-1,-1h1v-1l1,-1v-2h2l1,1v1h1l-1,1v1h-1v1h-1v1h1v1h1l-2,2ZM552,873v2l-1,1v2h-2v-2h1v-1l-3,3v-1h-2l1,-1h1v-1h-1v-1h2v-1h1v-1h1h-1l1,-1h2ZM546,871v-1l1,-1v-2h1v1l1,1v1l-1,1h-1ZM548,895h4v1h2v1h-2v-1h-1v-1h-4v-1h1ZM552,870h-2l-1,-1v-2l1,-1h1v1h1v2ZM555,898h2l1,1v1h-1l-1,1h-2l1,-1h1l-1,-1v1h-1v-1v1h-1v-1h-1v-1h-2l1,-1h2l1,1v-1h1ZM547,887v2h2l-2,2l-1,-1v-2h1ZM569,905l4,1l1,-1h1v1h-1h1v1l1,1v1h-1v-1h-3v-1l-1,-1l-1,1l1,1h-2v-1h-1v-1h-1h1v-1ZM562,900l1,1h1v1h-2l-1,-1v1v-1h-1v1h-1v-1h-1l1,-1h2ZM561,845h-1v1h-1h1v3h1v1h-1v1h-1l-1,-1v-1h-1v-1l-1,-1v-1h1v-1h2v-2h2v1h1ZM565,847l-1,1l-1,-1v-1l1,-1v-1h1l1,1h1v1l-1,1ZM553,848h-1v-1h1ZM546,882v1h-1v-2h2ZM549,872l-1,1h-1l-1,1h-1l1,-1v-1h1l1,-1h1ZM550,866h-1v-1h2ZM556,840h-1v-1h1ZM562,847h-1v-1h1ZM549,886h-3v1h-1l1,-1h2v-1h1ZM548,880h-2v-2l1,1h2ZM561,841h1h-1v1h-1l-1,-1h1ZM551,889h-2v-1h1ZM556,853h-2l2,-2v-1l1,-1v3ZM577,910h-1h2ZM584,907h-1h1v-1ZM563,905h3v1h-3v-1h-1ZM579,909h-1h1v-1ZM908,351h-1v-2h1v1Z"/>
<path class="sl" d="M919,367v1h-1v-1l-1,-1v-1l1,1ZM909,352h-1v-1h1ZM919,357h1v2h-1v-1ZM916,368l-1,1v-2ZM913,353v1h-1v-1ZM918,353v1v-1h-1v-1ZM920,366h-1v-2h1v1ZM279,92h1v1h-1v1h-1h1v-1h1l1,-1h1l-1,1h-1l-3,3h-1l-1,1h-1v-1h1v-1l1,-1v-1h1v-1h1ZM277,97l-1,1h-1v2h-1v1h1h-1v1h-1v-3h1v-1h1l-1,-1h2ZM281,110l2,1h3l1,1v3h-1v1l1,1h1v1h1v1h-1v2h1l-1,1h-1v1h-2v-1h-1l-1,-1h-1v-1l1,-1h1l1,-1h-1v1h-4l1,-1h-1l1,-1h-3l1,-1h2v-1h-1v-1h-2l1,-1h-3l2,-2h2v-1h-1v1h-2v-1l1,-1h2ZM457,9h-3l1,-1h1ZM453,9h2v1h-3l-1,1h-4v-1h3l2,-1ZM442,11h-2v1h-4v1h-2v-1h1h-2v1h-4v1h-2v-1h1h-1l-1,1v-1h-1l-1,1v-1h1h-1h4l1,-1h4l1,-1h7v-1h1ZM450,13h1h-1v1h-1h1l1,-1v1h1v-1h2v1h-1l-1,1h-3l-1,1v-1h-3l-2,1h-5l-1,1h-4l-1,-1h3l2,-1h1h-5l-1,1v-1h1h-2v1v-1h-1h1v-1h1h-1h3v-1h4l1,-1h1v1h3l-1,1h1h-1h4v-1h1l1,-1h3v1ZM423,21h3v-1h4l1,1h-2v1h-1h1v-1h1v1l1,-1h3l-1,-1h3v2l-1,1h3l-1,-1h1v-1l1,-1h1v-1h1h-1h4v1h1v1h-1v3h-1l-1,1h1v1h2l1,1h3v1l-1,1h-1v-1v1h-1l-1,-1l-1,1h-2l-1,1h1l1,-1h2v1h-1h1h-1v1h-10v-1h-5l-1,1h-5v1h-11l-1,1h-1v-2h1v-1h-6v-2h3l3,-1h9l-2,-1h-11v-1h5l1,-1h3h-7v-1h2l1,-1h2v-1h4l1,-1h5l2,-1h1v1h-2v1h-1ZM419,18l1,-1h1l-1,1l2,-1h3v1l1,1h-4l-2,1h-3l-3,1h-1l-2,1h-2l-1,1h-1l-1,1h-4l-2,1h-3l1,-1l-1,-1h-1h1v-1h3v-1h3l1,-1h1l2,-1h2l2,-2h8ZM515,3h10v1h1h-5v1h1l-1,1h-2v1h-6v1h1h-1h3l-1,1h-1h1h-2v1h-3v1h-5l-1,-1v1h-1h8v1h-2l-1,1h-2v-1h-7l-2,1h-1v-1h-8l2,-1h2v-1h4l1,1h2l1,-1h2v-1v1h-6l1,-1h1h-4v-1h5v-1h-3v-1h5l1,1h1v-1h3l1,-1h1h-1h2h-4l-1,1h-3l1,-1h-2v1h-4v-1h1h-2l-1,1v-1h-1l1,-1h1h-2l-2,1l1,-1h-1h7v-1h1v1h3l-1,-1h13ZM478,10h-1ZM478,15v1h-6v-1h-1h2v-1h5ZM461,18h5v1h-1l-1,1h-1h3l-1,1h1v1h-1h1h-1v1h-5v1h-3v-1h-1v-1h-3v-1h-1v-1h3v1h1l1,-1h1v-1h1h-2v-1h1v1h1v-1h-1h2ZM495,43h1v-1h1l1,1h3v1h1l2,1h2l1,1v1h4l1,1h-1h2l-1,1h-7v-1h-1l-1,-1h-3v1l-2,1h-1v1h-2l-1,1h-1l-1,-1v-1h-6l1,-1l2,-1h1v-3h1v-2l1,-1h3v1h-1h1ZM472,12h-1v1h-1v1h1h-2v1h-6v-1h2h-4v-1h1v1h1v-1h-1h1h-1h1v-1h1v1h2v-1h-1h6ZM469,7v1h4v1h-1v1h-3v-1h-3v-1h1h-1h1h-2l1,-1h2ZM489,5h1v1h5v1h-1h3v1h-5v1l-1,-1v1h-2v-1v1h1h-4l-2,-1h-1h1h-1h2l1,-1h1h-7v-1h2v-1h2v1h1l-1,-1h4ZM479,11h1l1,1h-1h5l3,1h-1l1,1h-1h12v-1l1,1h2l1,-1l1,1h5v1h-1h1l-1,1v-1h-1h1v1h-7l-1,-1v1h1h-20v-2h1v-1h-1v-1h-1v1h-4v-1h-1h1h-2v-1h4Z"/>
<path class="sl" d="M478,9h2l-1,1h-4v-1h1h-1v-1h3ZM477,17h5l1,1h1h-2v1h-2v1h-7v1h1l-1,1h-4l1,-1l-1,-1h1v-1l1,-1h1v-1h4ZM458,29h2l1,1h1v1h1h-1v1h-8v-1h-3v-1h4v-1h1v-1h2l1,1ZM633,136h1v1h2l1,-1h-2l1,-1v-1h1v1l1,-1l1,1h1l-1,1h1h-1v1l-1,1h-6v-1l-1,-1v-2h1v-3h1v-1h1l1,1v2l1,1v1h-2ZM600,141v-1h-1v1v-1h-1v-1h-1v-1h1h-2v-1h-1v-2l-1,-1v-2l-1,-1v-2h-1l-1,-1h-1l-1,-1v1h-4v-1h-2v1l-1,1v1h-1v3h-1v4h-1v1h-1v1h1h-1v1h-1v-1l-1,1h-2v1h-18l1,-1h2l1,-1h2v-2l1,-1v-1h1l1,-1l2,-1h1v-1h3l1,-1h2l1,-1l2,-1h1l1,-1v-1l5,-5h1l1,-1h1l1,-1h1l4,-2l3,-1h9l4,2h-1l2,2l-2,1v1h-2l-1,1h-1l-2,-1h-3l-2,1h1l1,-1l1,1h2l2,2h1v-1h4v2l-2,2h3v2h1v1l2,2h2l2,1h-1l1,1h3l1,1h4v1h1l1,-1l2,-1v1l1,1h3v1h-1l3,1h-1l-1,1h-2l-1,1h-1l-1,1h-4l-1,1h-1v1h-1l-1,-1h-1v1v-1h-1v3h-1v1h-1v1h-2v2l-1,-1v1l-1,-1v1l-2,-2h-2v-2h-1l1,-2l1,-1h-1l-1,1l1,-1h2v-1h-1l4,-2h1l2,-1h-1h1v1h1l1,-1h3l1,-1h-8v1l-1,-1l2,-2h-1v-1h-1l1,1l-1,1h-2l-2,2h-3v-1l-1,1h1h-1v1h-4ZM647,105h-1l-1,1h1v1h1v1l-1,1v3l-1,1h1v1h-1h1v1l1,-1v-2h1v1h3v1h-1l-1,1h2l-1,1h5v1h2v-1h2v1v-1h3l1,1h1v1h-1v1l-1,1h3v1h-1v1h1v-1h3v-1v1h1v1h-1l-1,1v1h-1h1v2h2v-2h1v-1l1,1h-1v1l1,1v1h1v-1h1l1,1v5h-2l-1,-1v-1l-1,-1v1h-1v1h-1v-4h-1v-1h-1v-1h-1v3h-1v-1v1h-1l-1,1h1l-1,1v1l-1,-1l-1,1h-1v-1h-1h1v-1h2v-2h1v-1h-3l1,1h-4l1,-1v-1h-1v1l-1,-1v1h-2l-1,1h-1l-3,-1h-7l-1,1l-1,-1h-1v-2l2,-2h1v-1h-4v-1h1l1,1v-3h2v-1h-1v-2h1v1h1h-1v-1h-1v-5l1,-1h-1h1v-3h1v-1h1l1,-1h1v1h1v-1h1ZM492,25h5v-2h-2l-1,-1h3v-1h-2v-1h1h-1l1,-1h3l1,-1h6v1h2v1h1l-1,1h-2v1l2,-1l-1,1h1h-1v1v-1h2v-1h3v1h1l1,1v-1h-1v-1l1,1h1l-1,-1h-1h2v-1h2l1,1h5v1h-1l-1,1l1,-1h3v1h-1v1h1v-1h2l-1,1h1v-1l1,1h1h-1l1,-1h3l1,1h2l-1,1h3v1h-3v1h1v-1h1v1v-1h2v-1h1l1,1h4v1h-3l-1,1h1v-1h3v1h-1h2v-1h1l2,1h1v1l-2,-1h-1v1h4l1,1h1h-4l1,1h-2l1,1h5v1h1v1v-1v1h1v-1h-1h2v1h-1h4v1v-1h1v1h1v-1h1v1h2l1,1h-1h4v1l-1,1h1l1,-1h4l1,1h1v1l-1,-1h-1l2,1h-2v1h1h-1v1h1v1h-2l-2,-1h1l-1,1h2l1,1v1h-3l-1,-1v1l-1,-1h-1l-1,-1h-1v-1h-1h1v-1h1v-1h-1v1h-5l-1,-1h-1l-1,-1v1h-1v-1v1h1h-2v1h2v1h-2v-1h-1v1h2v1h3l-1,1h2v1h2v1v-1h2v1h-1h1v-1h1l1,1h1v1h1h-1v1h2v1h1l1,-1v1h1l1,1h-1h1v1h1h-1l-1,-1h-1l-1,-1v1h1v1h1v1h1l1,1h-2l1,1h-1l-1,-1h-2v-1h-3v-1v1h-1v-1h-3l-1,-1h-1h1v1l-2,-1h-2l-1,-1v1h2v1h1l1,1h2l1,1h1l2,1h2l1,1h2v1h-1h1v1h-2l-1,-1h-3l-4,-1h-3l-2,-2h-5l-1,-1h-1h1h-3l-1,-1h-1h1l1,-1h-4v-1h1h-2v-1h-1l-2,-1h-1l1,-1h-3v1l-1,-1h-2v-1v1h-1h2l-1,1h-2l-1,-1v1h-4v1l-1,-1h-4l-1,-1v-1h1l2,-1h-1l1,-1h2l1,1h3l1,1v-1h-1h2v-1h1v1h1v-1h3l-1,-1h-1l-1,-1h-1l2,-1h1v-1h1v-1h2v-1l-2,-1v-1h-1l-1,-1h-3v-1h-1h1h-3v-1h-1h1h-1h1l-1,-1v1h-4v1h-1v-1h2v-1h1h-2v-1h-3v-1h-2l-1,-1h-2l-1,-1h-2v1h2v1h-6l-1,-1h-1v1h2h-12v-1h-1l-1,1l-2,-1v-1l-1,1h-4l-1,-1h-2v-1h-1h6l-1,-1h-5v-2h1h-1v-1h2v-1h1v-1h1l2,-1h7l-1,1h-1l-1,1h-1v1h1v2h2v1h1h-3v1Z"/>
<path class="sl" d="M622,118h-3l-1,-1h-3l-3,-1h-1v-1h-1l-1,-1h-3v-1h3l3,1h3l1,1l3,1h1l1,1h1ZM617,133v-1h1l1,1h8l-1,1h-1l-1,1h1v1h-2v-1h-1h1l-1,-1h-1h1h-1v1h-1l-1,-1h-1l-1,-1h-2v-1h-2v-2h1v-1l1,1l-1,1l2,1v1ZM506,51l1,1h-1v1h-1l-1,1h-3l-1,1v-1h-1v-1h1l1,-1h2l1,-1h1ZM516,54h2v1h-1v1l-1,1h-1v-1h-1v-2h1ZM526,33h2v3h-6l-1,-1v-1l1,-1h3ZM510,18h5l1,1h2v1h-9v-1h-2v-1h2ZM515,98h-1l-1,-1h-4l-1,-1h1v-1h4l2,2ZM523,81v-2h1v2ZM523,80l-1,1v1h-1l1,-1v-1l-1,1v1h-2l1,-1l-1,1h-1l1,-1v-1h1v-1v1h1v-1h1ZM518,80l-1,1v-1h2v-1v1ZM488,11h-2v-1h2ZM460,11h-1v-1h2l-1,1h1ZM477,6v1h-2v-1h1ZM446,20h-1v-1h-1l1,-1h4v1l-1,1h-1ZM461,13h1h-1l-1,1h-1l1,-1h-1ZM460,12h1v1h-3v-1h1ZM429,14h-1h3v-1h2l-1,1h-1ZM447,10h-1ZM286,90h1v-1l1,1h-1ZM273,103l1,-1ZM286,93h-1l1,-1ZM284,97h-1v-2l1,-1v1h1l-1,1ZM289,89l1,-1h1l1,-1l-2,2ZM287,98l-1,2h-1l-1,1v-1h1l1,-1h-1v-1l2,-2l1,1ZM280,117v1h-1v-1ZM289,116h-1v-1h1ZM279,116h-1v-1h1v-1h1v1h-1ZM287,113v-1h1v-1v2ZM284,100h-1l1,-1ZM282,106v-1h1v-1v1ZM285,101v-1h1v-1h1l-1,1ZM285,98h-1l1,-1ZM286,97h-1h1v-1h1h-1ZM289,120v1v-2ZM645,148h-1h2ZM635,139l-1,-1h1ZM625,128h1h-1v-1l1,-1h1l-1,1ZM610,125h-1ZM610,124h-1ZM607,146h-1l1,-1ZM603,143l-1,1v-1ZM561,139h-2v-1h1l1,-1v1ZM560,138h-1l1,-1h1ZM575,130h-1h2ZM649,109h-1l1,-1ZM657,115v1h-1v-1ZM646,103v-1ZM659,114l1,1h-2v-1l1,1ZM666,127v1v-2ZM574,53h2v1h-2ZM566,62l-1,1v-1l1,-1h1v1ZM553,53h-2v-1h-1h2ZM577,58h-1l-2,-1h3ZM575,56h1h-2ZM564,68v-1h-1h1ZM581,62h-2v-1h1ZM607,82h1h-1l-1,-1h2ZM600,74v1h1h-2v-1ZM547,29h-1h2ZM570,37h-1ZM510,13h-1ZM518,78v-1ZM518,74v1ZM520,78h-1ZM519,95h-1l1,-1ZM523,102h-1l-1,-1h2ZM290,120l-1,-1v-1l1,1ZM288,113v-1h1v1ZM533,34h-4l1,-1l1,1h3ZM522,49l1,1h1v1h-2l-1,-1h-1v-1h1ZM477,14h-1v-1h1ZM516,64h-1ZM467,20h-1v-1h1ZM468,16h-1h2ZM465,18h-2l1,-1h2v1ZM480,29v1h-1v-1ZM479,30h-1ZM538,53h-2v-1h1ZM528,33l-1,-1h-1h2ZM522,60h-1h2ZM515,33h-1ZM527,50h-1l-2,-1h3ZM513,28v1h-4v-1h3ZM517,29h-1v-1h1ZM523,47v1h-1v-1ZM502,39v1l-1,-1ZM514,31h-1h1v-1h1l1,-1v1h1h-1l-1,1ZM521,30h-2v-1h2ZM490,27h1v1h-2v-1ZM500,41h1v1l-1,-1h-1h1h-2v-1h-1h2l1,1h-1ZM490,35l-1,-1v-1h2v1ZM496,42l-1,-1h-1v-1h1l1,1Z"/>
<path class="sl" d="M461,56v-1l1,1ZM465,12h-1h2ZM466,9h-1h2ZM467,10h-1h2ZM488,12h-1h1h-1ZM473,14h-1ZM473,16h-1ZM425,14h1ZM443,12h-1ZM455,15h-1h1v-1h1v1ZM448,31v1v-1h-1h2ZM450,31h-1v-1h1ZM452,26h-1ZM464,29v1h-1v-1v1h-1v-1h1ZM447,30v-1h1h-1ZM443,32h-1l1,-1h1v1ZM434,33v-1h-1h2v1ZM421,36h-1l1,-1ZM419,34h1ZM419,37h1l-1,1ZM419,34h-1ZM356,30h1ZM780,496h1l1,-1h1l3,1h2v4h-1v3l-2,2v1l-1,1h-1v-1v1l-1,1h-1l-1,-1v2h-1l-1,1l-1,-1h-3l-1,1v-1h-1v-2l-1,-1v-2h2l-1,-1h-1v-4h1v-3l1,-1h2ZM792,691l1,1l-1,-1v1h-1ZM757,717v-1l1,-1v1ZM784,697v1l-1,-1v1v-1l1,-1ZM815,520l-1,1l1,-1v-1ZM844,608h-1l1,-1v-1l1,1ZM842,611v1l-1,-1ZM813,506h-1v-1h1ZM779,492l-1,2h-4v-1l1,-1h1l2,-1ZM775,477h-2v-2h1ZM772,495l-2,2l-1,-1v-1h1l1,-1h1ZM781,495h-3v-1h1l1,-1h1v1ZM774,493v1l-2,-1v-1h1l1,-1v-2v3ZM776,490l-1,1v-2h1v-1l1,1ZM763,506l1,-2v-3l1,-2h3v1l-1,3l-1,1l-1,2ZM755,728h-1l1,-2l1,-1v1l-1,1ZM464,339l1,-2ZM465,343l-1,2v-2h1v-1ZM699,380v1l-1,-1v-2l2,2ZM547,288v1l1,-1v3h1l-1,1h-1v-1h-1v-1l-1,-1v-1h1ZM550,275l-1,-1l1,-1v-3h-1l-2,-2l-2,-1h-1h3l2,2h1v1h1v2h-1ZM586,313h-1v1l-2,1h-2v-2h1l1,-1l1,1l1,-1h1ZM546,284l1,1v1l-1,1h-1l-1,1v-1l-1,-1h-1l-1,-1h1v-1l1,-1v-2h2v2ZM540,269h2l-2,1h-2l-2,-1l2,1l1,-1v-1ZM549,282h-1h1l1,-1v1ZM577,300l-1,1l-1,-1v-1v1h1ZM573,290h-1v-1h1ZM576,304l-1,1v-1l1,-1h1v-1h1v-1h-1v-1h1v2l-1,1v1ZM555,278l3,3h1v4l-1,-1l1,-1v-2l-1,-1h-1l-1,-1h-2v-1ZM563,294l-2,-1h-1h1l1,1ZM570,299l-1,-2h-2v-1h1v-1l-1,-1v1h1v2h1l1,1ZM566,288v1h-1v-1l-1,-1v-1h-1v-1h-1h1l1,1v1ZM585,303h2v1l-1,-1h-2v-1ZM586,310h-1ZM574,905l1,-1v-2l1,-1v-2l1,-1v-2l1,-1v-2h1v2h1h-1l-1,1v1h2v2h1l3,3h1l1,1h2l1,1h2l-1,1h-5v1h-1l-1,-1h-8ZM594,904h4l-1,1h-4ZM644,811h-1v-1h-1h1ZM678,347h-1v-1h1l1,1ZM678,343h-1v-1ZM651,932l1,1h-2v-1ZM478,963v1ZM449,997h1v1h3l-1,-1h-1h1h-9l-2,-1h-1h2l1,1h1l-1,-1h1l1,1v-1h-5l-1,-1h-6v-1h-6l1,-1h1h-5l-1,-1h-2l-1,-1h-7l-1,-1h-7v-1h-6v-1h-3l-2,-1h-2h7l2,1h2l-1,-1h-1h1h1h-2v-1h-3l-2,-1h-1h1h-3v-1h-1h1l-1,-1h3l1,1l-2,-2h3l-1,-1h26v-1h7v-1h3v1h1l1,1h4v-1h-1l-1,-1h2l1,1h1l1,1h-1v1h13v-1l1,1l1,-1h5l1,1h6v-1h-4v-1h-4l-1,-1h-2l-1,-1h-1h8l-1,-1h-9l-1,-1h-1v-1h2l1,1h12l2,1h8l2,-1h1l3,1h2v-1h3v-1h2v1h-1l1,1h1l1,-1l1,1h3v-1l1,1h4l1,1h6v-1h2v-1h2l2,1h5l-1,1h7l3,-1h8l2,-1h5l2,-2h1l1,-1h-1v-2h1v-5h1v-1h1l2,1l1,-1h1v-1h-1l1,-1h1v-1h2l-1,-1l1,-1h1l1,-1h-3v-1h2v-1h1v1h1v-1h1v-1h3l1,-1h-1h1l1,-1h4l-1,-1h3v-1h1v-1h1l1,-1l1,1v-1v1h1v-1h3v-1h4v-1h2l1,-1h1l2,-1h3l1,-1h3l2,-1h2l2,-1l1,1h-1v1h-1h1v-1h-1l-1,1h-2l-1,1h-2l-1,1h-1v1h-1h1h-1v1v-1h-2l-1,1v-1l-2,1h-2l-1,1h-3v1h-3v1h1h-1l-1,1h-1v1h4v1h-3l-1,1v-1h-2v1h-1v1v-1h-1v-1h-2l-1,1h-1l1,1h-4v1h-1v1h-3v1h-1v1h-1h3v1h-2v1h2l1,1v-1h1l2,-1h1v1h-3v1h1h-1v1l1,1l-1,1v1h1h-2v1h1v1h-1h1v1l-1,1h-1h1l-1,1h-4l1,1h2v1h-1v1h1l-1,1h-4v1h1h-1l-1,1l-1,-1v1h-1h1h-2l1,1l1,-1h1l-1,1h-3v1h-2v-1h-1v1h-1v1h-3l-2,1h-4l-3,1h-4l-1,1h-15l1,1h3l2,1h1h-2l-1,1h-4l-2,-1h-7l3,1h4v1h-8l-1,-1h-2v-1v1h1h-1v1h2l1,1h9l-1,1h-1h1v1h2l1,1h1v-1h3l1,1h5l1,1h1h-5v1v-1v1h2l1,-1h3l-1,1h-3v1h-1h4l1,-1h5l2,-1h8l-1,1h-1h3l2,-1h5l1,-1h10l1,-1h13l1,-1h-3l2,-1h-3v-1h2l3,-1h3l2,-1h3l1,-1h6l1,-1h6l1,-1h7l1,-1l1,1l1,-1h5l1,-1h3l1,-1h6l1,-1h2l1,-1l-1,1h-1v-1h2l1,-1h4l1,-1v1l1,-1h2l2,-1h4l2,-1h1l1,-1h1v-1h1v1l1,-1h2l1,-1h1l-1,1h-1l-2,1h2l1,-1h1l1,-1h3l1,-1l-1,1h-1l-1,1h-1h1l-1,1h1v-1h1l-2,1h-1h3l1,-1h2l1,-1h3l1,-1h1h-1l-1,1h-2l-1,1h-2l-1,1h-2l-1,1h-2l-1,1h-2l-1,1h-2l-1,1h-3l-1,1h-2l-1,1h-2l-1,1h-3l-1,1h-3l-1,1h-2l-1,1h-3l-1,1h-3l-1,1h-3l-1,1h-3l-1,1h-4l-1,1h-3l-1,1h-5l-1,1h-4l-1,1h-4l-1,1h-6l-1,1h-4l-1,1h-6l-1,1h-7l-1,1h-8l-1,1h-11l-1,1h-15l-1,1h-44l-1,-1h-16l-1,-1h-10Z"/>
<path class="sp" d="M667,971l-1,1h-2l-1,1h-2l-1,1h-2l-1,1h-2l-1,1h-2l-1,1h-2l-1,1h-3l-1,1h-2l-1,1h-2l-1,1h-3l-1,1h-3l-1,1h-2l-1,1h-3l-1,1h-3l-1,1h-3l-1,1h-3l-1,1h-4l-1,1h-3l-1,1h-5l-1,1h-4l-1,1h-4l-1,1h-6l-1,1h-4l-1,1h-6l-1,1h-7l-1,1h-8l-1,1h-11l-1,1h-15l-1,1h-44l-1,-1h-16l-1,-1h-10l-1,-1"/>
<path class="sl" d="M560,989h2v1h-2l-1,1h-3l-1,1h-10v1h-6v-1h4v-1v1h1v-1h5l1,-1h1h-1h2l1,-1h2l2,-1h2l3,-1h2l1,1l-1,1h-3ZM534,992h-2v1h-3l-1,-1h1h3v-1h3v1ZM542,965h-1h1l1,1v5h-1v2h-1l-1,1h-2l-1,1h-9v-1h3l2,-1h1h-3v-1l-2,1h-2l-1,1h-1v-1h-2v-1h3v-1l1,1h1v-1h2v1l2,-1h-1h3l1,-1h3v1h1v-1h-3v-1h2l1,-1h1v1h1l-1,-1h-5v-1l1,-1v-1h-1l1,-1h6ZM461,973v1h1v-1h1v1h1v-1h2l-1,1h2l1,-1v1h1h-1l-1,1h-7l-1,-1h-8v-1h9ZM416,978l1,1h1h-1l1,1h-4v-1h-3v-1h3ZM402,977h2v1h2v1h2v-1l2,1h2v1h-2l-1,-1h-4v-1h-4v-1ZM414,992h-1l-3,-1h-4l-1,-1h-1h3l1,1h5v1ZM570,991h1h-1l-1,1l1,-1h-1h2ZM571,990h-1ZM521,991h-2v-1h1l2,-1h2l4,-1h1l-1,1h-3l-2,1h-1ZM595,947h1v-1h1l-1,1h1h-1v1h-3l1,-1h-1l1,-1h2ZM606,943h1v1h-4v-1h2ZM602,938h1h-1l-1,1h-1h1h-2v-1h2ZM575,948v1l1,-1v1h-3l-1,1v-1h-1l2,-1h1l1,-1ZM578,948h-1l1,-1h1v-1h1v1l-1,1ZM552,959h-2v1h-2v-1l1,-1h1l1,-1h1l2,-1v1h-1v1h-1v1h-1ZM529,969v1h-4l-4,1h-1v-1h4l1,-1l1,1v-1h2ZM526,966l1,1l-1,1h-3v-1h2v-1l1,1ZM523,976v1h-1h1l-1,1l-3,-1v-1h5ZM481,976v1h-1v-2h-1h2v1h1ZM663,971h-1h1l1,-1v1ZM664,971h1l1,-1v1h-1ZM526,991h-1v-1h2v1ZM526,990h-1h2ZM615,935h-1v-1l3,1ZM604,945h-1v-1h2ZM595,949v-1h2ZM605,943h-2l1,-1ZM598,946h-1ZM564,967v-2h1v1ZM590,941h1h-2v-1h1ZM535,966l-1,1v-1h-1v-1l1,1ZM471,975h-1h2ZM448,977l-1,-1h-1h1ZM420,979h-1l-1,-1h1ZM408,981h-1v-1h-1h2ZM441,996h-1ZM429,994h-1ZM666,971h1ZM659,973h1v-1v1ZM668,970l-1,1l1,-1h1ZM663,972h-1h1h-2l-1,1h-1h1v-1h3v-1ZM667,971h1l1,-1v1h-1ZM624,979l-2,1h-1l-1,1h-1l2,-1h-1h3v-1h2ZM638,976l-1,1v-1h2ZM645,975h1ZM570,991h1ZM618,935v1v-1h1ZM597,940h-1v-1h1ZM565,967h1ZM571,964h-1v-1h1ZM564,970v-1h1ZM564,971h-1v-1h1ZM595,940h-1ZM589,942h-1ZM586,946h-1l1,-1h1h-1ZM581,947h-1l1,-1h1h-1ZM574,950h-1v-1h1ZM581,943v-1h1ZM562,953h-1h1l1,-1h1v1h-1ZM559,955h-1l1,-1ZM555,957h-1ZM553,960h-1h2ZM535,968h1l-1,1ZM524,977l1,-1v1ZM474,976h-1ZM425,979h-1h2ZM399,980h-1ZM402,981h-2v-1h-1h3ZM396,986h-1ZM391,984l-1,-1h-1h2ZM400,986h-1ZM398,986h-1ZM395,986h1ZM400,987h1h-2ZM395,986h-1ZM394,985h-2v-1l1,1ZM397,986h-1v-1ZM400,987h-1ZM419,992h-1ZM398,987h1h-3v-1h1ZM434,995h-1ZM666,338h1v1Z"/>
<path class="sh" d="M572,494h-3l1,1h1v1l2,2l-1,1l1,2h-2v1l-1,2v2l-8,8l-2,1l-1,1l-3,1h-2l-1,1h-1l-2,1h-1l-1,2l-1,1v1l-1,-1v1l-1,1v3h-1v2l-1,1v3h-2v2h-1v1h-3v-1l-1,-1v-2h-3v-1h-1l-1,-1h-1l-2,2l-1,-1h1v-2h-1v-1l1,-1v1h1v-1h1v-3h-1v-2h1l2,-2l1,-3l1,-2v-1l-1,-1v-2h-1l1,3l-1,1h-1v-1l-2,2h-1l-2,-2l-2,-1h-1v-1l1,-1h1v-2l-1,-2l1,-2l-1,-1v-3h2l1,-1v-1l1,-1h1h-1l-1,-1v-1l3,-3l1,-2v-6h2l1,-1h1l1,-1h2l3,-1l1,-1l-1,-1h1l1,1v1h2l1,2h1l2,1l1,1l2,-1v2h2v2l1,1h3l1,1h1v-1l1,1h1l1,-1v-1h1l2,1l2,2h2l1,1ZM530,519h-1v-2h1v-1h2l-1,1v1ZM541,482l-1,-1h1ZM442,499h-2v-2h2l1,1ZM449,501h-1v-1h1v-1h2v1h-1ZM432,497h-2v-2h2v1ZM441,504h-1v-1ZM433,493h1v2l2,1v2l1,1h1l-1,2l-2,1h-2l-2,-2h1l1,-1l2,-1l-1,-1v-1l-1,-1l-1,-2h-1v-1h2ZM439,496h-2v-2h2l1,1Z"/>
<path class="sw" d="M503,158h1l-1,1v1h5v-1h1l1,-1h2v-1l2,-1h7l2,1v-1h-2v-1h5l1,-1h1v1h1l1,-1h-1v-1h1v2l-2,2h-1l-1,1h-1l-2,1h-1v1h-1l-5,2h-2l-1,1h-3l-1,1h-2l-1,-1v1v-1h-1v1h-1v-1h1h-1l-2,-1h-1l1,-1v-1h1v-1ZM530,154v-1h-1v1ZM506,162v-1ZM430,108v1l-1,-1v2h-2v-3h1v-1h1l1,-1h-1l-1,1v-1l1,-1h1h-1v-1h-1v1h-1v1l-1,-1h1v-3l-1,1v-1h-1l-1,1h-1v-2h-1v-1l-2,-2h1l2,-1h-4v-1h1l1,-1v-1h1v-1h3l1,1h1l-1,-1h-1l3,-3v1h-1l-1,1l1,1v-1h1h-1v2l1,1v2h1l-1,1v1h1v4h1h-1h1v2l1,1v2h-1ZM424,100h1v-1h-1ZM429,106h1h-2v1h1ZM402,52v1h-2l-1,-1h-3v1h-1h1h-1v1h-3v1h-2v1h-2l-1,1h-1l-2,1h-4v1h-1v1h-12l-1,-1h3v-1h1v1h2v-1h1l1,-1h3l1,-1h1h-1h1h-1v-2h1h-2v-1h2v1h3v1v-1v1h1v1h1l1,-1v1v-1h4l1,-1h2v-1h1l1,-1h7ZM390,55h-1l-1,1h-4v1h1h-1h3v-1h2ZM549,145h-1l-2,1l-1,1h1l1,1v-1v1h-1v1h1v1h-1l-1,1h-1v1h-7v-1h-6l-2,1h-5l1,-1v-1h2v-1h1l1,-1h7v-1h2v1h3l1,-1h-1v-1l-1,1h-2l1,-1h2v1l1,-1l-1,1l2,-1h2l2,-1h1v-1ZM543,147l1,-1h-1ZM546,147v1ZM546,146h-1v1v-1ZM388,39h1h-1v1h-2v1h-1v1h-8l1,1h-2l-1,1h-1l-2,1h-1v-1h1l2,-1h2v-1h-2v1h-3v1h-2l-1,1l-1,-1h1v-1h1l1,-1h2v-1h4l-1,-1h-3l-1,1h-2l-1,-1v1h-2l1,-1h5l1,-1h5l1,-1h4l1,-1h1v1h1h-2l-1,1h-3v1h5l1,-1h3ZM504,158h-1h2v-2h1v1h2v1h-3ZM523,267v2h-1l-2,-2v-1h1v-1h1l1,1ZM490,395v2h-3l-1,-1h-2l-1,-1h-1v-1l-1,-1v-2h-1h1l-1,-1v-1h1v-1h1l1,1h1v1h1l4,4v1ZM618,633h-1v-1h1v-1h-2v-1h-1v-1v1h-1h1h-2v-1l1,-1h1v-1l-1,-1l1,-1h2v1l1,1h1v1h1v1h1v1l1,1h1h-1v1l1,1h1v1h-1l-1,1v1h-1v-1h-1h1v-2h1v-1h-2v1h-1ZM419,95v1h-5v-1h-2v-1h2l1,-1v-1h-1h2v-2h2v1h-2l1,1h-1h2v-1h1v1h-2v1h-2l1,1v1h2ZM321,167v1h-1l-1,1h-1v-1h-1v-1h-1l1,-1h-1v-2l1,-1h-1h2v1h1v1l1,-1v1h1h-1v2ZM319,168l1,-1h-1ZM493,137h-2v1l1,1h-2l-1,1v2h-1v1v-1v1l-1,-1h1v-2l-2,2v-1v1h-1v1h-1v2h-1v1l-1,1v4l1,1v5l-1,1v1l-2,2h-1l-1,1h-4v-2l-1,-1v-8h1v-3l2,-2v-2l1,-1v-1h-2v1h-1v1h-1v-1l4,-4v-1h1v-1h1v-1h1l-1,1h1l1,-1h1v1h-1l1,1v-1l1,-1h1l1,-1v1h1l1,-1h5l1,1ZM489,137h-1v1ZM485,140v1ZM480,139h-1ZM479,139v1h-1l-1,1v1h1v-1h1v-1ZM495,132h1h-1v1h-1v-1l-1,1l-1,-1h-1h1v-1h-8l-2,2l-1,-1v1l-1,-1h-3v-1l-1,-1h-5v1v-2h-1v-1l-1,1h-2l-1,1h-2l-1,1h-2l-1,1h-2v-1h-1v1h-1l1,-1v-1h-2l-1,1h-5l1,-1l4,-2l3,-2h1l1,-1h4l1,-1h1l1,-1h1v-1h1v-1l2,-1v1h-1v1l1,-1h1v-1h1v-1h1v1l-2,1h1v-1h2v-1l-1,-1h4v1h7v1h1v2h1v1h1v1h5v2h1v1h1v1l-1,1h1h-1l1,1h1l-1,1h1l-1,1ZM458,130h1h-1v1h-1h1ZM459,130h-1ZM460,129h-1ZM475,119h-1v1h1v-1h1ZM469,124l2,-1h1h-2l-2,1h-1h1h-1l1,1v-1ZM475,127h1h-4l-1,1h-1l1,1l1,-1v1h-1h1l1,-1h1v-1ZM477,119h-1ZM488,125h-1Z"/>
<path class="sw" d="M496,132h1v1h2l1,1h9v1h6v1h3v1h1v1h1v1h2v1h-1h1v1h1v1h1v1h-1v-1h-1v2h-3l-1,-1h-1v1v-1l-1,-1v1h-1l1,-1h-1v-1h-1v-1h-1v1h1v2h1l-1,1v1h-1v1h-1v6h-2v1h-2v1v-1h-1v-1l-1,-2v-2l-1,-1h-2l-1,1h-1h1l-1,1h-1v1h-1l-1,-1v-1l1,-1h1v-1h1l1,-1v-3h-1v-1h1v-1h-1v-1h-3v-1h-1l-1,-1h-3v-1l1,-1h2l2,1v-1h-1v-1h-1v-1ZM502,135h-1v1h1ZM501,135h-2v1h2ZM499,134h-1v-1h-1v1l1,1v-1ZM497,133v1ZM497,133v-1h-1v1ZM495,136h-1l1,1ZM504,136l1,1h3l1,1h1l1,-1v1h-1h1l1,-1v-1h-1v1v-1h-1v-1l-1,1h-1v-1h-1v1h-1h1h-2v-1h-1v1h-1v-1v1h-1h1ZM512,138h-1v1ZM521,143v-1ZM392,280l-3,6v2l-1,3v-1l1,-1v-2h-1v-1h1l1,-1h-1l1,-1v-5h1v1l1,-1ZM414,71h-1v1h-2v1l-1,1v-1h-1v-1h1v-1l1,-1h3ZM389,68h-4l-1,1h-1v1h-3l-1,-1h3l1,-1h1l1,-1h2l1,-1h1l1,-1h1v1h1h-1h7l2,1h2h-9l-2,1h-1ZM558,106l-1,1v-1l-3,3v2h1h-1v1h-1v-1h1v-1h-1v-2h1l-1,-1h1l2,-1l1,-1h1h-1h1l-1,1h2ZM805,104l-1,-1h-1v-1h-1v-1h-1v-1l4,4h1ZM805,104h1Z"/>
<path class="sr" d="M801,100l4,4h1M806,104h-1"/>
<path class="sw" d="M441,116v1h-1h1v-1h-1v-1h-2l-1,1h1l1,1v-1v1h1h-1v1h-1l-1,1h-1v-1h-1l-1,1l-1,-1h1v-1h2v-1l1,-1h1v-1l-1,1h-2l1,-1v1h1v-1h2v-1h-1l1,-1v2h1v1h1ZM437,117v1h1v-1h1h-1ZM475,113v1l-1,1h-1v1v-1h-1v1l-1,-1h1v-1h-1v1h-1v-1h-1v-1l1,1v-2l1,-1h3v1v-1h-1h1l1,1h-1h1ZM472,112v1h-1h1ZM473,114h-1ZM417,73h1l-1,1h-1l-1,1v1h-1v1h-1v1h-1l-1,1h-2v1h-2v-1h1v-1h1h-1v1h1v-1h2l1,-1h-1v-1h1h-1v-1h1v-1h2v-1h1l1,-1h1h-1v1l1,-1ZM550,152v1h-1l-1,-1h1ZM263,67h-2v1h-2l-2,1l1,-1h1l1,-1h1ZM247,75l-1,1h-1v1v-1h1v-1h1v-1ZM270,181h-1v-1l1,-1h1ZM471,147l-1,1v1l-1,-1v-1h1v-1h1ZM542,38v-1h2v1h5v1h-1h1v1h-3v-1h-1v1h-1v1l-1,-1h1l-1,-1h-1ZM429,51l1,-1h3l1,-1h1v1h-2l-1,1h1v1h-2l-1,1v-1h1h-1l-1,1v-1h-1v-1ZM458,47h1v1l-1,-1h-6l1,-1h1l2,1h1ZM564,147v1l-1,-1v-1h1v-1h-1v-3h1v-1h1h-1v5ZM279,221h-1v1l-1,-1v-1l-1,-1h1l1,1ZM375,51h-4v-1h4ZM569,824l2,-2v1h1v1h-1l-1,1ZM566,121l-1,-1v-1h1v1h2v1h-1ZM542,156v1h-1ZM543,157v-2h-1h1v1ZM546,157h-1v-1l-1,-1v-1v1l1,1ZM992,410v1v-1l-1,-1v-1v1h1ZM397,74h1h-1v1h-1l-1,1v-1l-1,1v-1l-1,1h-1h1v-1h1l1,-1h1ZM437,52l1,-1h1v1h-1ZM420,62h1v-1h1v3h-1v-1h-2v-1ZM449,242h-1v-1h1ZM547,81l-1,1h-1h1l-1,-1h-2v-1h-1h3v1h1ZM519,134h2v-1h4v1h-5ZM534,81v-1h1v-1l1,1h-1h2v1h-2ZM657,750h-2l-1,1h-1v-1h-1v-1h1l1,-1h2l1,1ZM539,93l1,-1h5l-1,1h-1h1h-3v1h-2v-1h1ZM539,93h-2v1h-5v-1h-1l1,-1h3v-1h-1h2v-1h1l1,1h-1v1h-1v1h-1h3ZM245,76h-1l-1,1h-1h2ZM599,335h-2v-1h2ZM306,41h1ZM371,63h-1v-1h1ZM536,95v1h-1h1l-1,1v-3h2l-1,1h1ZM565,880h-6v1h1h-1v1v-1l-1,-1h-1h2v-1h-1l-1,1v-1h1v-1v1h6ZM405,64h-2v1v-1h1l-1,-1h1v1v-1h1ZM514,4h3ZM469,97h1v-1h1v1l1,-1v1h-2ZM782,91l1,1ZM340,146h-1v-1h-1h2ZM344,28h-1h1v-1h1v1ZM330,125v-1h1l-1,1v1h-1v-1ZM297,202v-1l-1,-1l-1,1h-1l-1,-1v1v-1h-1l-1,1v-1h2v-1h1v-1l1,-1v1l-1,1v2h1v-1l1,-1v1h1v1ZM377,70h-1v1h-1v-1h-1h1v-1h2v1h1ZM602,91h1v1h-1l-1,-1v1h-3v-1h-2l-1,1h-2v1h1v1h1h-2v-2h-2v-1h-1l-2,-1l-1,-1h-1v1h1v1l-2,-2v-2h-1v-1h1v1l3,3h2v1h4l-2,-2h-1v-1h1v1h1v1l1,1h3v-1h-1v-1l-1,-1h1v1h1v1h1l1,1h2ZM456,358h-1v1l-1,1h-2v-1h2l2,-2ZM458,107h2l1,-1h2l-1,1h-3ZM552,121v1v-1h-1l-1,-1v2h-1v-1l1,-1h-1v1h-1v-1h2v-1h2v1h1v1h2v1h-1v-1h-1Z"/>
<path class="sw" d="M552,86l1,-1h3v1h-3v1h-3l1,-1h-1h1ZM739,452v1h1v1h-1v-1v1h-1v1h-1v-1h-1v-1h1v-3h1l1,1h1v1ZM541,155h-1v1v-1l1,-1ZM546,155h-1v-1ZM547,155h-1v-1ZM257,65h-2v1v-1h1ZM328,160l-1,1v-1ZM320,172l-1,1v-1h1v-1ZM367,38h1h-1l-1,1v-1ZM437,128v1h-2v-1h1ZM462,118v1h-2v-1v1h1ZM547,130v1h-2l1,-1h1v-1ZM575,818h-2v-1h2ZM349,62h-1h2v-1h1v1h-1ZM563,877h-1v-1h-2v-1h1l1,1h2l1,1h-1ZM615,146l-1,1h-1v-1h1ZM605,136h-1h1v-1ZM278,161v1h-1v1l-1,-1h1v-1h1v-1ZM276,175h-1v-2h1v1ZM266,194h-1ZM392,33v-1h1l-1,1h-1ZM576,116v-1h-1v-1l-1,1h1h-1v1l-1,-1v1h-1v-1l-1,1v-1h2v-1h1v-1l1,1h1v1h1l1,1h-1v-1h-1ZM646,117h1h-1v1l-1,1v1h-1v-1l1,-1v-1ZM369,37v-1h1h-1h1v1ZM371,37h-1ZM379,44l1,-1h1v1h-1v1h-1h1h-2ZM465,92h4v1h-3v-1ZM448,107h-1v-1h-1h1v-1h1v1h1h-1ZM446,93h-3l-1,-1h1v-1h1v1h-1h4ZM568,96v1h1v1l-1,-1v1h-1v-1h-1h1v-1h1v1ZM399,86h-2l-1,1h-2v-1h1v-1h4ZM440,134h1h-1v1l-1,-1l1,-1ZM577,150h1h-2v-1h1h-1h1ZM526,146l-1,-1h1v-2l1,1h1v1h-1ZM448,87h2l-1,1h-3l-1,1h-1h1v-1h1v-1h1ZM291,153h-1v-1h1ZM652,122l-1,1v-1ZM441,83v1h-1ZM292,46h-1ZM262,62v-1h1ZM261,63h-1ZM252,70l1,-1v1ZM259,66h-1l-1,1v-1h1ZM259,65h1ZM255,68l-1,1v-1h2ZM446,121h1l-1,-1h-2v-1h-1h1v-1h1v2l1,-1l-1,1h3v1h1v1v-1h-2ZM325,82h-2l-1,1l-1,-1h-1l-1,1v3h-1l1,-1v-2h-1h1v-1h-1h1v-3h1l-1,1v1h1l-1,1h7ZM440,81h-1v-1h1ZM370,126v1v-2h-2v1h-5l-1,1h-1v1v-2h-1h1v1l1,-1h5v-1h2v-1h1v1h1v1ZM393,126h-1v-1h-1v-1l-1,-1h-2v1h-2v-1l-1,1v-1h6v2h1v-1h1v2h5l-1,1h-4ZM311,66v-1h1v-1h-1h1v-1v2h-1ZM316,117v-2h1v-1l-1,1v1l1,1ZM320,123v1h-1l-1,1v-1h1v-1h1h-1ZM301,125h-1v-1ZM405,67l-1,1h-1l1,-1h2ZM293,56l1,-1ZM434,123l1,1h-2v-1ZM434,123h1ZM443,53h-1v-1h3v-1v1l-1,1h1v1l-1,-1ZM548,45h-5v-1l1,1v-2h-1v-1v1h3v1h2l1,1ZM371,248h-3v-1h1v1h1v-1h1h-1v1ZM542,129h1h-1v-1h-1v-1h-1v-1h1l1,-1v1h-1l1,1v1ZM347,321h-1v1l-1,-1h-3l-1,-1h4l1,1ZM479,386v1h-3l-1,-1v-1h2l1,1ZM723,703l-1,1v1h1h-2l1,1h-1v1h1v1h-1l-1,1h-1v-1l1,-1v-1h-1h1l1,-1h-2v-1l1,1h1v-2h1v-2h1v-3h1v1h-1l1,1l-1,1ZM534,413v1h-1l-1,-1v1h-1l1,-1v-1h1v1l1,1ZM994,441v1h-1v-1h1h-1v-7h-1v-1l1,1v-1h-1v-4h-1v-1v1v-3l-1,-1v-1v1v-1h-1v-1h1v-2l-1,-1h1v4h1v3h1v1v-3h-1v-1v1h1v6h1v7l1,1v1ZM994,441v-1h-1Z"/>
<path class="sw" d="M717,764l-1,1v1h-3v1h-1v1h-1l-1,1v1l-1,1v-3h1v-1h1l1,-1v-1h1l1,-1h1v-1h1v-1h1v-1v2ZM421,111h-3v-3h-1v-1h1v-1h-1v-2h-2v-1h1v1h1v-1v1l1,1v-2h1v2h-1h1v1h-1v2h1l1,1h1v1ZM414,104h-1v-1h-1v-1l1,-1v-1l1,-1v-2h-1v1v-1h-1l-1,1h-1h1v-1h-1v-1h5l1,1h1h-1v2l-1,1h-1v1l1,1h-1v1l1,-1v1ZM583,105v1h-1v1h-1v1v-1h-1l-1,-1h-1v-2l-1,-1l1,1v-1v1h1v-1h2v-1v1l1,1v-1v1ZM581,105v-1l1,1v-1h-4v1h1v1h3ZM384,79l-1,1v-2h1v1v-1l1,1l-1,1h1v1h-1v1h-1l-1,1h-1v1h-1l1,-1v-1h-1v-1h1l1,1l-1,1l1,-1h1v-1h1v-1h-1h1ZM574,858h-6l-4,2v1h-1l1,-1v-1h1v-1h3l1,-1h2l1,-1v1h1ZM297,202v-1l-1,-1l-1,1h-1l-1,-1v1v-1h-1l-1,1v-1h2v-1h1v-1l1,-1v1l-1,1v2h1v-1l1,-1v1h1v1ZM322,188v1l-2,1l-2,2v1l1,-1v1h-3l-1,1h-1l-1,1v-1h1l1,-1h2l2,-2v-1h2v-1h1ZM432,75h1h-1v1h-1l-1,1h-1l-1,1h-3v1h-1v-1h1l1,-1h2v-1v1h1v-1h1l1,-1v-1h1ZM835,575v2h-2v2h-2v1h-3v-1v1h-1l-1,2l2,2h-1v-1h-1l-1,-1v7h-1v1v-1l1,-2v-1h-1v-1h-1v1l-1,1l-1,2v3h-1l-1,-1h-1l1,-1v-1h1v-3l1,1v1l1,-1l-1,-1v-1l1,1h1l-1,-1v-1h2l-1,-1v-1l-1,-1h1v1h1v-1h1v-2h1v-1h1v-1h1v1h4v-1h1l-1,-1h1v-1h1v-2h1v1ZM821,590v-1h-1v1v-1v2h1ZM520,119v-1h1l1,1v1l1,-1h1v1h1v1v-1h-4v-1ZM370,126v1v-2h-2v1h-5l-1,1h-1v1v-2h-1h1v1l1,-1h5v-1h2v-1h1v1h1v1ZM399,141l-1,1h-1v1h-1v1h1h-1l1,1h-1v-2h-1v-1h1v1h1v-1h1v-1h1v-2h-1h1v-1h-1h1v-3h-1l1,-1v-2h1v1l-1,1v2h1v1h-1v3ZM311,66v-1h1v-1h-1h1v-1v2h-1ZM316,117v-2h1v-1l-1,1v1l1,1ZM994,441v1h-1v-1h1h-1v-7h-1v-1l1,1v-1h-1v-4h-1v-1v1v-3l-1,-1v-1v1v-1h-1v-1h1v-2l-1,-1h1v4h1v3h1v1v-3h-1v-1v1h1v6h1v7l1,1v1ZM994,441v-1h-1ZM410,48h-3l-1,-1l-1,1h-1h1l1,-1h3v-1v1h1h-1h1ZM410,47h2v1l-1,1v-1h-1h1h-1ZM403,151v1h1v1h2v1h-1v-1h-1v-1h-1l-1,-1v-1h-1l1,-1v-1h1l-1,1v2ZM380,269h1h-1v1v-1h-1v-2h-1v-1h1v1h1v1ZM383,86v-2h1v-1h1v-1h1l-1,1v1h-1v1h-1ZM415,61l-1,1h-1l1,-1h-1l1,-1h-1h1v-1v1h1h-1h1h-1v1v-1h2l-1,1h-1h2ZM457,44h-1v1v-1h-1h1ZM572,91h1h-2v1h-1v-1h1h-3v-1h1h-1h1v-1v1h2l-1,1h1ZM576,92v2h-1v-1h1h-1h1v-1h-3v-1h2v1ZM567,89v1l-1,-1h3v-1h-1h1v1h1h-2ZM469,196v1l1,1v2l-1,1v-3h-1l1,-1v-1h-1v-2ZM509,215l1,1v1h-1l1,-1l-1,-1h-1l-1,-1h1v1ZM325,101l1,1v-1v1h-2l1,-1l-1,-1v-1h1v1ZM515,248v-1v1l1,1v1h-1v-1ZM289,212v-1l2,2h-1Z"/>
<path class="sw" d="M264,169l-1,1v-1ZM394,43v-1h1h-1h1v1h5l-1,1h-1h1h-1l-1,-1v1v-1h-2ZM272,157l-1,1l1,1h-1v1v-2ZM288,153h1l-1,1ZM596,137v1h1v-1v1h-1l-1,-1ZM778,533l-1,-1v-2h1v-3l1,1v2l1,1v2l1,1v5l1,1h1l-1,1l-2,-2v-1l-1,-2v-1l-1,-1l1,-1ZM796,656h-2l1,1l-1,1v-1h-1h1v-1h-1l1,-1v-1l-1,1v-1h1v-1h-1v1h-1h1v-1l1,-1v-1h1v1h-1v1h1v2h1ZM750,669v-2l1,1v-1h1v-1v1l1,-1v-3h1v-1v3h1l1,-1v1h-2v1l-1,1v1h-2v1h1v1l-1,-1ZM572,820h2l-1,1ZM590,851h1v2h-2v-3h1l-1,1ZM308,59h-1v1v-1h1v-1ZM253,72h-1ZM262,62h1ZM265,65h1l1,-1h1l-1,1h-2l-1,1ZM271,65v-1v1h-1ZM267,60h1ZM262,62v1h-1v-1ZM265,60h1v-1v1ZM274,55l-1,1ZM471,209l1,-1h1l1,1l2,1l-3,-1h-1ZM538,105h-1ZM457,106l1,1l-1,-1h-1ZM455,102h1ZM527,106l1,1l-2,-1ZM529,126h-1v-1h1l1,1ZM537,126h2v1h-2ZM411,45l-1,1ZM408,46v-1h1v1ZM407,46v-1h1h-1l1,1ZM513,24l1,1h-2v-1ZM438,29v-1h1v1ZM451,36h-1ZM437,85h3v-1h1v1h-3ZM407,89v-1h1v1ZM390,90v-1h1v1h-1v1h-1ZM565,94h1h-2v-1h1ZM617,99l2,1h1h-2v-1h-2ZM398,45h1ZM500,121v1h-1v-1h2ZM388,83v-1h1v1ZM390,84v-1h1ZM425,53v1h-1l1,-1v-1ZM419,58v-1h1ZM410,70v-1h1v1ZM569,79v1h1l1,1l-1,-1h-1l-1,-1h1v-1ZM482,38l-1,1v-1ZM484,38h1h-2Z"/>
<path class="sb" d="M887,196l-3,-3v-1l-1,-1v-1h-1l-2,-2v-1l-1,-1v-1h-1v-1l-4,-4v-1l-1,-1v-1h-1v-1h-1v-1l-2,-2v-1h-1l-1,-1v-1l-1,-1v-1l-2,-2h-1v-1h-1v-1v1v-1h-1l1,1h-2v-1h-1v-1v1M867,162h1h-1v-1M868,162v1h1h-1v-1v1v-1h-1v-1h-1h1h-1v-1h-1v-1v1h1h-2l-4,-4M824,119h-1v-1h-1v-1l-2,-1h1v1h1h-1v-1h-1v-1h-1l-1,-1h-1v-1h-1v-1v1l-2,-2h-1M813,110l-1,-1h-1h1h-1h1h-1h1M509,410h-1l-1,-1v1h-1v4l1,1h1l-1,1h-1v1l1,1v1l-2,1l1,1v2M500,398v1h-1l-1,1h-1l-1,-1h-1v-1h-2l-2,-1h-1l-1,1l-2,-1h-2l-1,-1h-1l-1,1M504,364l-2,-1l-1,1h-1v1h-4v1h-3v1h-1l-2,-2l-2,1v1h-1v2l-1,1h-1l-3,3l-2,-1h-1l-2,2h-4v1l1,2v1h-2v2h-1v1h-3M461,357v1h-1l-1,2l-2,1h-1l-2,2h-1v4l-1,1M456,356h-3v-8l1,-2v-6M445,374v-1h1l1,-1h1v-1h1v-1h1v-1l1,-1h1v1h2l2,2h1v1h2v1l2,-1h1l1,1h2v4h-1M461,335h-2v1l-1,2l-1,1h-3v1h-15v5h-3l4,4h1v2h1l1,1v3h-11l-1,1l-1,2l-1,1l-1,2v1l1,1l-1,1v3h-1M395,275h-3l-2,-1h-4v-1h-2l-1,-1h-1l-1,-1h-1v-2l-1,-1v-2h-1h1v-1h-1v-1h1v-1l-3,-3v-1l-2,-2v-2l-2,-2v-2l-2,-2v-1l-2,-1v-1h-2v-1v1h-3l-1,-1h-2v1h-1l-3,3v1h-1v1h-1v1h-1l-1,-1l-2,-1l-1,-1h-2v-1h-1v-1h-1v-2l-1,-1l1,-1l-1,-2v-1l-2,-2l-2,-1l-1,-2l-2,-1v-1h-1v-1l-1,-1h-12v2l-1,1h-12l-2,1h-5l-5,-3l-9,-3l-5,-2l-3,-1h1l1,-1h-10l-2,1h-4M555,141h-1l-1,1h-1l-1,1l-2,1l-1,1h-1v1h-1l-2,2v1l-1,1h-14l-1,1l1,1v2h1v1h-2l-1,1l-2,1h-2l-1,1h-5l-2,1h-1l-2,1l-1,1h-2l-1,1h-3l-2,-2v-2h2l1,-1v-1h1v-1l1,-1v-2l1,-1v-4l-1,-1v-3l-1,-1v-3h-2l-2,-2h-2l-1,-1l1,-1h-3v-1h-1v-2h-2v1h-1v-1h-1v-2h-2l-1,-1h-1l-1,-1h-1l-1,-1h-1l-2,-1h-1l-1,-1l-2,-1h-2l-1,-1h-1l-1,-1h-3l-2,1h-2l-1,1h-3v-1h-5v-1l-1,1h-4l-1,-1h-3v-1h-1l-1,-1h-4v1h-2v-1h-3l-2,-2v-2h-1v1l-1,1h-88l-2,1h-51M354,30l-6,3h-2l-28,14l-2,2l-10,5l-3,3l-8,4l-2,2l-2,1h5v-1v1h-1l-1,1v2h-1v2h-1l-1,1h1v-1h3l2,-2h2l1,-1h2v1h-1v2h-1v3l-1,1v1h-1v1l-1,1v1h-1v1l-1,1h1h-1v1h1v1h1v1h1v1h-1M690,746h-1v1h-1l-1,1v3h-1v2l-2,2v3h-2v4l-1,1M719,710l-2,6l-1,2l-1,1h-1v1h-1v1h-3v1h-1v1l-1,1h-4v1h-1v1l-1,-1h-4l-2,-1h-3l-2,-1l-3,1v-2h1v-1l1,-1h1v-1l1,-1v-2h1v-1l1,-1h1v-1l1,-1v-1h1l1,-1v-2l-1,-2h-1l-1,-1h-2v-1h-2l-3,-2l-1,-1v-1l-2,-1l-1,-1l-2,-1h-3l-2,-1l-1,-1v-1h-1l-2,-1v-1h-1v-1h-1l-1,-1l-2,-4l-2,-2v-1"/>
<path class="sb" d="M630,687l2,2l-1,2l-2,3l-1,2v1l-4,2h-2l-2,2h-1v1h-1v2h1v2h-1v1l-1,1v3l1,2v1l-2,2v1l1,1v1l1,1l-1,1h-1l-1,1h-2v1l-1,1v1l-2,2v1l-4,4v1h-1v2l-1,2l-2,2l1,1v3l-1,1v1h1l-1,1v1h-2v1l-1,1v1l-1,1h1v1h-2v2l-1,1v1l1,2h1v1h-1v2h1v4h1l-1,1v2h2v1l-1,1v3l-1,1v2h-1l-2,2v1l-1,1v2h-1l-1,1h1v5l-1,1h-1v1h-1v1h-1l-1,1h-1v1h-1v5l-1,1v2l1,1v5h-1l-1,1h-1l-1,1v2l-1,1v1h-2v2h1l-1,1v1h-1v1h1l-2,2v3l-1,2v5h-2v3h-1v3l1,1h1v1h-1v2h1h-1v3h-1v2h4v1h-1v1h-5v1h3v2h1v1h-1v1h-2v3h-1l-1,1h1v3l-1,1h-1v2h-1v1h-2v1l-1,1v4h-1l-1,1v2h-2l-2,2h-2v3l-1,1v1l1,1v3h1l1,-1h3v2h-1v3h-1h1v1h1v2h14l2,1h2v1M702,666v-3l-4,-2l-2,-2h-7l-3,1h-4l-1,1h-4l-2,1v1l-1,2l-4,4v4l-2,6l-1,2l-1,1v1l-1,-1v-1h-9l-2,3v1l-2,2v1v-2l-1,-1v-2l-1,-1h-8l-2,-2v-1h-1l-1,1v1l-1,1h-2v1h-1v1l-2,1v1l-1,1h-1l-1,1h-4v-7h-1v-6l-1,-1l-1,-2h-1v-2h1v-1l-1,-1h-1v-1h1v-1l-1,-1h2v-2l-1,-1l2,-2v-1h-1v-1l-1,-1h-1v-2l-1,-2v-5l-3,-3v-1M619,588l1,2l1,1l1,2v1l2,4l1,1l1,2l-1,1v1h-1v1l-1,1v6h-1v1l1,2v2h-1v2h-1v1h-1v1l-1,1v2l1,1v1l-1,1l-1,2v1l1,3l1,1h2v1l-1,1v1l-1,1h-1v1l-3,3h-1v1h1v2l-1,1h-2v1l1,1v1l-1,1h-1l-1,1h-2v1h-1M618,530l-3,-3v-1h-1l-1,1l-2,-1l1,-2l2,-2l2,-4l1,-1v-1h-1l-1,-1h-1l-1,-1h-1v-1l-2,-1h-2l-1,1h-2l-1,-1h-2l-1,1h-1l-1,1h-3v-1h-1v1h-2l-1,-1h-1v-4h-1v-1h-2v-3h-1v-1h-1v-1h-2v-1h-2l-1,-1v-2h-1v-2h-1l-2,-2h-1l-1,-1h-1v-1h-1l-1,1M644,482v-2l-1,-1v-2l-1,-1v-2l-1,-1v-1l-2,-2h-1v-1h-1l-1,-1v1v-1l2,-3l2,-1v-1l-1,-2l-2,-2v-2l-1,-1v-2h-1v-2l1,-2v-4h1v-4l1,-1h1l-1,-1v-1h-1l-1,-1h-1l-1,1h-9l-1,1h-1l-1,-1v1l-2,-2l-1,-2l-3,-3v-1h-4l-1,-1h-1l-2,1h-8l-1,-1v-1l-1,-1h-1v-1h-1v-5h1v-1l-1,-1v-1l-2,-2l-1,-2v-2h-2v-1l-1,-1v1h-2v-1l2,-2v-1l1,-1v-4l2,-4v-1l1,-1v-1h1l2,-1l2,-4l2,-1h3v-1M694,448l-6,-6l1,-1v-1h1v-3l-1,-1l1,-1h1l1,-1h2l2,-1v-2h-2v-2l-1,-1v-1h1v-2h2v-1h1l1,-1v-1h1l1,-1l-2,-2M728,477v-1h-2v-1l-1,-1v-1h-1v-3h-1v-1h-1v-3l-1,-1v-1h-2v-1l-2,-2v-1h-1l-1,-1v-2h1v-3l1,-1l-1,-1v-1h1v-1h4v-5M742,473h1l1,-1l1,-2v-4l1,-2h1v-2h-1v-1l-1,-1l-1,-2v-1h-1v-7l1,-2l1,-1M709,772v-1l1,-3l2,-2h1v-2h-1v-1h-1v-3h-1v-1h-1l-2,-2v-1l-2,-1l-1,-1h-1v-2h-1v-1h-1v1h-2v1h-1v-1h1v-2l-2,-2l-1,-2l-1,-1h-2l-1,1h-2v-1h1l1,-1v-1h1l2,-2l2,-1l1,-1v-1h1v-1h1l3,-3v-1h1v-1h2v-1l1,-1h1l2,-2h1v-1h2v-1l1,-1v1l1,-1h2l2,-2h1l2,-2v-2h1v-3h1v-2l-1,-1l1,-2h-1v-1h-4v-1l1,-2l1,-1v-2l2,-2v-3l1,-1l-2,-2h-1l-1,1h-2l-1,1l-1,-1v-10h1l-1,-1v-2h-3v-1h-1v-1h-1l-1,1h-7v-1h-3l1,-1v-3h1v-3h1v-5h-1v-1h1l-1,-1v-2h1v-1h1l-1,-2v-1l2,-4l1,-1v-1h1h-1l2,-4v-1l1,-1v-1l-1,-1v-3l-1,-1h-1l-2,-2v-1l-1,-2v-2h1l1,-1v-2h-14v-7l-1,-1l-1,-2h2l1,-4l-1,-1v-6l-1,-1h-1l-1,-1l-2,-1h-6v-1l-2,-2h-1l-2,-1h-2v-1h-1v-1h-1v-1h-2l-1,-1h-1l-1,-1l-2,1h-1l-1,-1h-1l-1,-1v-1h-1v-1h-1v-1h-2v-2h-1v-1l-1,-1v-2h-1v-1h1v-4l-1,-1v-1l2,-2v-4h-1v-1l-1,1h-6l-1,1h-2l-1,1l-3,2l-1,1h-2l-2,2v1h-3l-3,3h-3v1v-1h-1l-1,-1h-9l-1,1h-2l-1,-1h-1v-5l1,-2v-6h1h-1l-3,3h-1v1h-1l-1,1h-7v-2h-1v-2h-1l-1,-1h-6l1,-2l1,-1v-1l-2,-2v-1l-1,-1v-1h-1v-1h-1v-2h-1v-3h-1v-1h-1v-2h2v-4l2,-2l2,-1h1v-5l1,-2l1,-1v-3l1,-1v-1h2l3,-3l2,-1h1l1,-1h3l1,-1h3l2,-2h4v1h1l1,1l1,-1v-2l1,-3v-3l1,-3v-3l1,-3v-2l1,-3v-3l1,-1v-1l-1,-1v-1h-1v-4h-1l-1,-1h-1l-1,-1v-7h2l1,-1h5v-2h-1v-1h-5v-6h2v-1h1v1h11v-1h-1l1,-1l2,2h1v-1l2,-2h1v-1l1,1l1,2l1,1v5l2,-1l4,4h4l1,-1h1v-1v1h1v2h1v-1l4,-4h2l1,-1h1v-1h2l1,-1v-1l1,-1v-1h1l1,-1h2v-1h1v-2h-5v-1h-1l1,-1l-1,-1l-1,-2v-5l-4,-4v-1l-1,-1h1v1h4v1h1v1h6l2,1v1l1,1h1l1,-1v-3h1l1,-1h5l2,-1l1,-1h1v-1h3v-2h2v-1h1v-1l-1,-1v-1h5v1h1v1l-1,1v3h2l1,1v2l1,1v3h-1l-1,1v3l-1,1v5l1,2h1v4h1v1l2,2h1v1l1,1h2v1h1v-1h2v-1l1,-1h3v-1h3l2,-2v-1h2l1,1h8v-2h-1v-2l1,-1l2,1v-1h3l1,-1h1l1,1h1l2,2h1l1,1h1l1,-1h1v-1h1v1h2l1,-1v1h1l1,1h1v-1h1l2,-2v-3l1,-1v-2h1v-2h1l1,-2v-2h1v-1h1v-1"/>
<path class="sb" d="M928,266l-1,-2l-1,-1l-1,-2l-1,-1v-2h-1v-6h1v-1h-1v-1h1v-2l-1,-2v-1h-1v-4l-1,-1v-1h-1v-1l-1,-1v-3h-1v-1h1l1,1v-1l-1,-1v-1h-1v-1l-2,-2l-1,-2h-1v-1l-1,-2l-3,-3v-2l-3,-3v-1h-1l-1,-1v-1h-1M927,315l1,-1h3l1,1h2v-3h-1v-5l-1,-1v-2l-1,-1v-1l-1,-2v-3l-1,-1h1v-4l-1,-1v-1l1,-1v-1h-1v-2l-1,-1v-2l-1,-1v-3h-1v-1h1l-1,-1v-3l-1,-1v-2h2v1h1v-1h1l1,-1h-1v-1l-1,-1v-1l-1,-1h1v2l1,1M929,320v-1l-1,-1v-3h1v1h10v-2l-1,-1v-1l-1,-2v-1l-1,-1v-2h-1v-2h-1v-4h1v-2l-1,-1v-2l-1,-1v-1l-1,-1v-2l-1,-1v-1l-1,-1v-1l-1,-1v-1l-1,-1v-1l-1,-1v-1l-1,-1h8v-1l-1,-1l-2,-4l-1,-1v-2l-1,-1l2,2v1l2,2h1l1,1v1l3,3v1l1,1h1l1,1v1l4,4M958,370l1,1v-3l-1,-1v-4l2,2v2h1v-2h3v-1h-1v-1l1,1v1h7v-2l-1,-3v-2l-1,-1v-1l-2,-4v-2l-2,-4v-2l-1,-2l-1,-3v-2l-3,-6v-2l-4,-8v-2l-5,-10v-2l-9,-18v-2h3l1,2l1,1l3,6l2,1l3,6l1,1l3,6l1,1l4,8h1v3h1v1l1,1v2h1v1l1,1v1l1,1v2l1,1v2l1,1v1v-1M980,371v-1h1v-1l-1,-1h1v-1h1l-1,-1v-3h-1v-3l-1,-1v-2l-1,-2v-1l-1,-3l-1,-2v-2l-1,-3l-1,-2l-1,-3v-2l-1,-1v-2h-1v-2M943,361v-4l-1,-1v-1h4v-1h1l3,3v1l1,1v-1v1h1v1l1,1v1l1,1v1h1v2h1v2h1v1l2,2v3h1v3h1v4l1,1v1v-1h1v2l1,1v4h1v1M948,380h3v-2h1l1,1v1h1l1,1v-1h1v2h1l-1,1h-1l-3,-3v2h-2l1,2l-1,-1h-2v1M949,390h2v-1l1,1l1,-1v-1h5M957,402v-4l1,-1v-1l1,1v-1h1v-1l-1,-1v-2h-1v-1h1v-1l-1,-1v-1h2v2l1,-1v1h1v1h1v-1h1v1l1,-1v3l1,1v-2h1v2l1,1v-3l2,2v-4l1,1v1l1,1v3l1,1v2h1v3l1,1v3l1,1v2h1v1M981,408v-3l-1,-1v-7h-1v-2h1v-4l-1,-1v-4l-1,-1v-2h1v2h1v-2l-1,-2v-11h1v-1v2l1,1v2l1,1v3l1,1v2h1v3h1h-1l1,1v2l1,1v2h1v3l1,1v2M965,419h1v-7l1,-1v1h1v-1h1l1,1v2l1,1v1l1,1v4l1,1v2h1M972,438v-1l1,-1v-4l1,-1v-6l1,-1v1h1v4l1,1v4h1v1v-1l1,-1v-1h-1v-1h1v1M984,460v-2l-1,-2v-9h-1v-3l-2,-2v-5l-1,-3v-2h1v-2l-1,-1l1,-1l-1,-1v-2h1v-1l-1,-1v-4l-1,-1v-2h-1v-8h1v2h1v-5l1,1v4h1v-1h1v2h1v2l1,1v1v-1l1,-1h1v2l1,1v1M991,454h1v-1l-1,-1v-5l-1,-1v-6h-1v-15l-1,-2v-3h-1v-5l-1,-1v-5l-1,-1v-4l-1,-1h1v1h1v-1v1h1v-2l1,1M995,446v-2l-1,-1v-7l-1,-1v-3l-1,-4v-5h-1v-6h-1v-4l-1,-3v-2l-1,-1v-3h1M995,445v-7l-1,-3v-3l-1,-2v-5l-1,-2v-4l-1,-1v-5h-1v-4h-1v-6h-1v-2l1,-1l-1,-1v-5h-1v-2l1,3v1l1,1v1M996,444v-3l-1,-1v-7l-1,-1v-6l-1,-1v-6l-1,-2v-6h-1v-5l-1,-1v-4l-1,-1v-4l-1,-1v-4l-1,-1v-3l-1,-4v-2h-1h1l-1,-1l1,1v1"/>
<circle class="w1" cx="438" cy="495" r="23"/>
<circle class="w1" cx="438" cy="495" r="21"/>
<circle class="c1" cx="438" cy="495" r="22"/>
<path class="sg" d="M 249.8299 932.1258 A 249.7500 3.6472, 0, 1 1, 749.1701 932.1258"/>
<path class="sg" d="M 66.9357 749.2766 A 432.5797 6.3172, 0, 1 1, 932.0643 749.2766"/>
<path class="sg" d="M 0.0000 499.5000 A 499.5000 7.2945, 0, 1 1, 999.0000 499.5000"/>
<path class="sg" d="M 66.9357 249.7234 A 432.5797 6.3172, 0, 0 1, 932.0643 249.7234"/>
<path class="sg" d="M 249.8299 66.8742 A 249.7500 3.6472, 0, 0 1, 749.1701 66.8742"/>
<path class="sg" d="M 482.8283 0.2783 A 457.6066 499.5000, -181.91270223, 0 0, 516.1717 998.7217"/>
<path class="sg" d="M 494.1262 0.0289 A 296.2448 499.5000, -180.61642336, 0 0, 504.8738 998.9711"/>
<path class="sg" d="M 498.6843 0.0007 A 55.5045 499.5000, -180.09356614, 0 0, 500.3157 998.9993"/>
<path class="sg" d="M 502.6897 0.0102 A 200.1082 499.5000, -179.63411515, 0 1, 496.3103 998.9898"/>
<path class="sg" d="M 509.3991 0.0981 A 402.1020 499.5000, -178.86443779, 0 1, 489.6009 998.9019"/>
<path class="sg" d="M 564.1817 4.2056 A 496.3530 499.5000, -172.55971477, 0 1, 434.8183 994.7944"/>
<text x="0" y="0" class="fs" transform="translate(88,278) rotate(111)">150W</text>
<text x="0" y="0" class="ft" transform="translate(88,278) rotate(111)">150W</text>
<text x="0" y="0" class="fs" transform="translate(233,275) rotate(104)">120W</text>
<text x="0" y="0" class="ft" transform="translate(233,275) rotate(104)">120W</text>
<text x="0" y="0" class="fs" transform="translate(450,274) rotate(92)">90W</text>
<text x="0" y="0" class="ft" transform="translate(450,274) rotate(92)">90W</text>
<text x="0" y="0" class="fs" transform="translate(679,275) rotate(79)">60W</text>
<text x="0" y="0" class="ft" transform="translate(679,275) rotate(79)">60W</text>
<text x="0" y="0" class="fs" transform="translate(861,277) rotate(70)">30W</text>
<text x="0" y="0" class="ft" transform="translate(861,277) rotate(70)">30W</text>
<text x="0" y="0" class="fs" transform="translate(850,742) rotate(0)">30S</text>
<text x="0" y="0" class="ft" transform="translate(850,742) rotate(0)">30S</text>
<text x="0" y="0" class="fs" transform="translate(902,491) rotate(0)">0N</text>
<text x="0" y="0" class="ft" transform="translate(902,491) rotate(0)">0N</text>
<text x="0" y="0" class="fs" transform="translate(846,242) rotate(2)">30N</text>
<text x="0" y="0" class="ft" transform="translate(846,242) rotate(2)">30N</text>
<path class="tb" d="M127,998h-2l-1,-1h-2l-1,-1h-2l-1,-1h-2v-1h-3v-1h-2l-1,-1h-2v-1h-2l-1,-1h-2v-1h-2v-1h-2l-1,-1h-2v-1h-2v-1h-2v-1h-2v-1h-2v-1h-2v-1h-2v-1h-2v-1h-2v-1h-1l-1,-1h-1v-1h-2v-1h-2v-1h-1v-1h-2v-1h-1l-1,-1h-1v-1h-2v-1h-1v-1h-2v-1h-1v-1h-1l-1,-1h-1v-1h-1v-1h-1l-1,-1h-1v-1h-1v-1h-1v-1h-2v-1h-1v-1h-1v-1h-1v-1h-1l-2,-2h-1v-1h-1v-1h-1v-1h-1v-1h-1v-1h-1v-1h-1v-1h-1v-1h-1v-1h-1v-1h-1v-1h-1v-1h-1v-2h-1v-1h-1v-1h-1v-1h-1v-1l-1,-1v-1h-1v-1h-1v-1l-1,-1v-1h-1v-1l-1,-1v-1h-1v-1l-1,-1v-1h-1v-2h-1v-2h-1v-1l-1,-1v-1l-1,-1v-1l-1,-1v-2h-1v-2h-1v-3h-1v-2h-1v-4h-1v-3h-1v-5h-1v-6l-1,-1v-17h1v-7h1v-4l1,-1v-3h1v-3h1v-3h1v-2l1,-1v-2h1v-2h1v-2h1v-2h1v-2h1v-2h1v-2h1v-1h1v-2h1v-1h1v-2h1v-1h1v-1l1,-1v-1h1v-1h1v-1l1,-1v-1h1v-1h1v-1h1v-1h1v-1h1v-1h1v-2h1v-1h1v-1h1v-1h1v-1h1l3,-3h1v-1h1v-1h1v-1h1v-1h1v-1h1v-1h1l1,-1h1v-1h1v-1h1v-1h1l1,-1h1v-1h1v-1h2v-1h1v-1h1v-1h2v-1h1v-1h2v-1h1v-1h2v-1h1l1,-1h1v-1h2v-1h1l1,-1h1v-1h2v-1h2v-1h2v-1h1l1,-1h1l1,-1h1l1,-1h1l1,-1h1l1,-1h2v-1h2v-1h2v-1h2l1,-1h2v-1h2v-1h2l1,-1h2v-1h3v-1h2l1,-1h2v-1h3v-1h3v-1h159v1h3v1h3v1h2l1,1h2v1h3v1h2l1,1h2v1h2v1h2l1,1h2v1h2v1h2v1h2l1,1h1l1,1h1l1,1h1l1,1h1l1,1h1v1h2v1h2v1h2v1h1l1,1h1v1h2v1h1l1,1h1v1h2v1h1v1h2v1h1v1h2v1h1v1h1v1h2v1h1v1h1l1,1h1v1h1v1h1v1h1l1,1h1v1h1v1h1v1h1v1h1v1h1v1h1l3,3h1v1h1v1h1v1h1v1h1v2h1v1h1v1h1v1h1v1h1v1h1v1l1,1v1h1v1h1v1l1,1v1h1v1h1v2h1v1h1v2h1v1h1v2h1v2h1v2h1v2h1v2h1v2h1v2l1,1v2h1v3h1v3h1v3l1,1v4h1v7h1v17l-1,1v6h-1v5h-1v3h-1v4h-1v2h-1v3h-1v2h-1v2l-1,1v1l-1,1v1l-1,1v1h-1v2h-1v2h-1v1l-1,1v1h-1v1l-1,1v1h-1v1l-1,1v1h-1v1h-1v1l-1,1v1h-1v1h-1v1h-1v1h-1v2h-1v1h-1v1h-1v1h-1v1h-1v1h-1v1h-1v1h-1v1h-1v1h-1v1h-1v1h-1v1h-1l-2,2h-1v1h-1v1h-1v1h-1v1h-2v1h-1v1h-1v1h-1l-1,1h-1v1h-1v1h-1l-1,1h-1v1h-1v1h-2v1h-1v1h-2v1h-1l-1,1h-1v1h-2v1h-1v1h-2v1h-2v1h-1l-1,1h-1v1h-2v1h-2v1h-2v1h-2v1h-2v1h-2v1h-2v1h-2v1h-2l-1,1h-2v1h-2v1h-2l-1,1h-2v1h-2l-1,1h-2v1h-3v1h-2l-1,1h-2l-1,1h-2l-1,1h-2Z"/>
<path class="tl" d="M169,986h1v1h-3l-1,-1h2v-1ZM114,989h-3l-1,-1h2l1,1ZM176,983h1l1,1v1h1l-1,1h-2l-1,1h-1l-1,-1l1,-1v-2h1v-1ZM124,980h2v1h-1ZM122,980l1,1h-1l-1,-1ZM136,977h1h-2ZM156,974v1l1,1h-5v-1l1,-1v-1l-1,-1l1,-1v1h1l1,1ZM158,964v1h-2v2h1l-2,2v1h1l1,1h1l4,4v1l1,1v1h-1v2h-1l-1,1h-1v1h-2l1,1h1v1h-2l1,1h1v1h3l1,1h3l1,1h3l1,1h1l1,1v-1h1v-1h2l2,-1l1,1h1v-1h4v-1h3l1,-1h-1v-1h-4l-1,-1l1,-1h1l2,-2h4l1,-1h1l2,-2h-1v-1h1v-1h2v-1l1,-1h1v1h1v-1h8v-1h3v-1h1l1,1h2v-1h1v1l1,-1h4v1h6v-1h3v-1h2v1h3l1,-1h3v-1h2l1,-1h2l1,-1h4v1h1v1h1l1,1h1l1,-1l1,1h2v1l-2,2h-1v1h1h-1v1h-1v1h2l2,-2h1v-1h3l1,-1h1v-1h2l1,-1h5v-1h1v1h5v1h1l1,-1l1,1l1,-1h1l2,-1v1l1,1h3l1,-1h2v1h1v1h4l1,-1v1h9l1,-1l-1,1v1h-1h3l1,1h2l-1,1v1h1v1h2v1h1v2h2l1,1v1h-1l-1,1h-2l-1,1h-3l-1,1h-2l-1,1h-2l-2,2v1h-5l-1,1h-2v1h-1v3h2l-11,4h-155l-11,-4h-1h2l1,-1l1,1h14l-1,-1h-7v-1h-2v-1h-3l-1,-1h4v-1h-2l-1,-1h-7l-1,-1l-2,-1l1,1l1,-1l2,1v-1h1v-1l-1,-1h-1h2v-1h2v-1h4l1,-1h5l1,-1l1,1v-1h1l1,1h1v-1l1,1h6v-1h-2l-1,-1h-1l-1,-1h4l1,1h1l1,-1h3l-1,-1h1l1,1l1,-1l1,1h3v-1l1,1h4v-1h2l1,-1v-1h-1v-1h-1v-1h-1v-1h-1v-2l-1,-1v-1h1v-2h1v-1h1v-1h1l1,-1l1,1ZM144,951l2,1h1v1h-1v-1v1h-4l-2,-2l-2,-1l2,1h2v-2h1v1ZM151,947h1v1h-2v1l-1,-1l1,-1ZM269,946h-1v-2h1l1,1ZM345,939v1h1l1,-1v1l-3,3v-1l-1,1h-1l1,-1v-1l1,-1v-1ZM368,943v1l1,-1v1h-1l-3,3h-1l-1,1h-1l-2,2h-2v1h-1v-1h-1v-1l4,-2h1l1,-1h2l2,-2h1l2,-2ZM376,936l-1,2l1,-1l-1,1l1,1h1l-2,2h-1l-2,2l-2,1h-1l2,-1v-2l1,-1l2,-1v-1l1,-1v-3l1,-1v1l1,1ZM382,913l-1,1v-2l-1,-1v-1h1v1l1,1ZM397,906v1l-1,1h-1v-1l1,-1v1ZM398,906h-1v-1h1l1,-1v1ZM10,905v-1ZM386,904v-1ZM386,901v2h-1v-1ZM259,895v2l1,1h-1v1v-1v2h-1v3l-3,6v2h-1l-1,1l-1,-1h-1v-5h1v-2l1,-1h-1v-3h1v-1h1l2,-2h1v-1l1,-1v-1l1,-1v1ZM361,898v1h1v1h1l-1,1v2h1l-1,2v1l2,2v4h1l-1,2l1,1v3l-1,1v2l-3,3v1l-1,1l-1,2h-1l-1,2h-1l-4,4v1h-2l-1,1h-1l-1,1v-1h-1l1,-1h-1l-1,1h-1v-1h-1v-3h1l-1,-1v-1l1,-1l-1,1h-1l3,-3l-2,1h-1l-1,2v-4l-2,-2h-2l-1,1h-4l-2,2h-4l-1,1v-1l-1,1h-2v-1h-1l1,-1v-1h1v-3l1,-1v-7l1,1v-3l1,-1v-1l1,-1l-1,1l2,-2h1l1,-1h2l1,-1h2v-1h1l1,-1v-2l1,-1v2l1,-1v-1h1v-1l2,-2h2v1h2v-2h1l1,-1v-1h2v-1h-1h1l1,1h3l1,1h-1v1h-1v1l-1,1v1l2,2v1h1l1,1h1v-1l1,-1v-1l1,-1v-3l1,-1v-2h1v-1v3l1,1Z"/>
<path class="tl" d="M383,894h-1v-1v1ZM337,892l-2,-1h2ZM381,893h-1v-1h1ZM382,892v-1l-1,-1h1ZM341,892h-1l3,-3h2l-1,1h-1l-1,1ZM335,889h1v1h-3l1,-1ZM340,889v1h-3v-1h2ZM381,890v1l-2,-2h1v1ZM378,889v-1h-1v-1l1,1ZM325,887h2v-1l2,1v1h2l1,1l-1,1l-1,-1h-4l-1,-1h-1l-2,-1h-1l1,-2h1l1,1ZM353,886v1v-2ZM377,888h-1v-2l-1,-1h1v2h1ZM373,885l-1,1h-1l-1,1l-1,-1h-1l1,-1l1,1v-1h2v-2h1v1ZM345,882h-1v-1h1ZM349,881v2l-1,-1h-2v-1h2ZM374,884l-1,-1v-1l-1,-1h-1h2v2h1ZM353,878v3l2,1v-2l2,-1h1l1,1h1l1,1l4,2v1h1v1l2,1v1h-1v1l1,1v2h1v1h1h-1l1,1l-1,1v-1h-2l-1,-1v-3h-3l-1,1v1h-2l-2,-2v1h-2l1,-2h1l-1,-2v-1l-2,-1h-1l-1,-2l-1,1l-1,-1h1l-1,-1l1,-1h-1v-1h-1l-1,-1h2v-1ZM343,875l-1,1h-4v1l1,2v-1h2l-1,1h-1l1,2v1l1,2v1h-1v-2l-1,1v-1l-1,-1l1,-1h-1v4h-1v-3h-1v-1l1,-1v-4h1v-1h4l1,-1ZM347,875v1h-1v1l1,1h-1v-4h1ZM321,885h-1l-2,-2v-1l-2,-2l-1,-2v-2l-1,-1v-1l-4,-4v-1h2l3,3l1,2h1l2,2h1l-1,2h1v1l1,1h1v3ZM335,874l1,1h-1v3l-1,1v1l-1,3v-1l-1,1l-1,-1h-1v-1l-1,1l-1,-1h-1l-2,-4v-2l1,-1h2v-2h2v-1l1,-1v-1h1l1,-1v-2h1v1l2,2v1h-1l-1,2l1,1ZM344,864v3l-1,-1v2l-2,-2h1l-1,-1v1l-1,-1l-1,1v-1l1,-1h2v-1h1v-1l1,1ZM294,868h-1v-1l-1,-2l1,-2l1,1v1l1,1v1ZM137,863h-1l1,-1h1ZM341,861v1l-1,1l-1,-1l1,-1v-1v1l1,-1ZM335,863l-1,1v-1l1,-1v-1l1,-1v1l-1,1ZM338,859h2v1l-1,1v-1h-1ZM342,858l1,2h-1v1v-1h-1v-1h1h-1v-1ZM338,857l-1,1l-1,-1h1ZM336,849h1v6h1l2,1v2l-1,-1v-1v1l-1,-1h-2v-1h1h-1l-1,-1v-5ZM133,851v1h-1v-1ZM121,852h-1v-1h2v1ZM126,849h3v1h1v1h-2l-1,1v-1h-1v-2h-1ZM324,849l-1,1h-1v-2l1,-1h1v1ZM37,846v-2h1v2ZM38,844h-1v-1h1ZM119,845h2l1,1v1h1v1h2l-1,1h-3v-1h-1v-2h-2l-1,-1h-1h1h-2l-1,1h-1l2,-2h3ZM122,843h-1v-1l1,-1v1ZM334,843v1l-2,-2v-2l1,-1l1,1ZM122,839l-1,1v-1ZM123,839v1v-1h-1ZM340,825h1v1h-1v1h-1v-2ZM240,828l-2,2v-1h-1h2ZM229,828v1h-1ZM220,825v2h-1l-1,-1h-1v-1h2ZM214,821v3h-1v-3ZM344,820v1l1,1v1l-1,1h-1l-1,2l-1,-1v-1l-2,1l-1,1h-1l2,1v3l-1,-1v-1h-1l-1,-1l1,-1v-3h3v-3l1,1v-2h1l-2,-4v-1l3,3v1ZM214,820v1l-1,-1v-1l1,-1ZM340,810l1,-1l1,2h-1v2l-2,-1l1,2h-1l-1,-2l-1,-1h1l-1,-2l-1,-1l3,1ZM144,812l1,1h1h-2ZM147,809h-1l-1,-1h1ZM92,806h-1l-1,-1v-2h-1v-1h1l1,1v1l1,1ZM153,807l-1,1h1v1h2l-1,1h1v1l-1,2l-1,-1l1,-1l-2,1v-1h-3l1,-1h-1l4,-4h1Z"/>
<path class="tl" d="M90,797h1l-2,2v1v-3ZM332,800l3,3l-2,-1l1,2l2,2v1l-2,-2l-1,-2l-6,-6v-1h-1h1l3,3ZM198,806l-1,1h-2l1,-2v-1l2,-2h1v3ZM216,801l-1,2l-1,-1v-1h1ZM79,791h-1v-1h2ZM202,797l-1,2h2v1l-1,1h1l2,4h1v1l-1,1h1l-1,1h-3l-1,1h-2l2,-2h-1v-1h1l-1,-1v-1h2l-1,-1h-1v-2l-1,-1l1,-2v-1l1,1ZM75,786h-1v-1h1ZM141,790l-1,1v-1ZM139,790h-2l1,-1h1ZM78,780v1h1h-2v-1ZM139,786h1v1h1l-1,1h1l-1,1l-1,-1h-1l-2,1l1,-1h-1h1l1,-1l1,-2ZM193,787v1l1,1l-1,1h-3l-1,1l-1,-1h-2l1,-1h-1h1v-1h-2l1,-1h1l1,1l2,-1h2ZM147,784h-1l1,-1h2l-1,1ZM81,776v1l1,-1h2l-1,2h-3l-1,1h-1l-1,-1h1v-1h-1h1h-2l-1,1l8,-5v1l-1,2ZM135,780l-1,1v-1h-1l1,-1h1ZM322,771h-1ZM88,771h-1h2ZM139,780l-1,2l2,-1v1h-1v1l1,-1l2,-1l1,-1h2v2h-1v1l-1,1l-2,1h-1v-1l-1,1l-2,1v1h-3l-2,2h-1l-1,1l-2,1l-1,1l-1,2h1l-1,1v1h1l3,3l2,1h1l-2,2v2l1,1h1l2,-4h-1l4,-2v-1l1,-1v-1l-1,-1l2,-1l2,-4l1,1h1l1,-1v1l1,1h1v2l-1,1l1,1h2l1,-2h1v3l1,1l-1,1l1,1v1h1l1,1v1l1,1l-2,2h-2l-2,2h-1l-2,-1h-2l-2,1l-1,1l-2,1l-1,1l2,-1l3,-1h2l-1,1l-1,2v1l1,1l2,-1l1,-1v1h1l-4,2h-1l-2,1v-1l2,-1h-3v1h-1l-1,1h-1l-2,2l1,1v-1v1h-3l-1,1l2,-1v1h-2l-2,2v1l-1,1l-1,-1l1,-1l-1,1v4l-1,1h-1l-1,1h-1l-3,3h-1v8l-1,1h-1v-3l-1,-1l1,-1l-1,-2l-1,1l-1,-1h-4v1h-1l-1,-1l-1,1l-1,-1l-2,2h-2v1h-1v3l-1,1v1l-1,2v4l1,1v1h1v1l1,-1h3v-1l1,-1v-1l1,-1h3v1l-1,1v2l-1,1v-1v2l-1,1v1h5v1h1v1l-1,1v3l-1,1h1v2h1v1h2l1,-1h1v1h1l1,1l1,-1v-2l1,-1h2l2,-2v2h-1h1v1l-1,1v1h1v-3h1v-1h1v1h1v1h3l1,1l1,-1h1l1,1h1v1l1,1h1v1h1v1l1,1l2,1v-1h1l1,1h1l1,1v1h1v1l1,2v1l-1,1l1,1h2v1v-1l4,2v1h1l3,1h1l2,1l2,2h2v5l-1,1l-1,2l-2,2v9l-1,2v2h-1v1h-2l-1,1h-1l-3,3v5l-1,2l-2,2v2l-2,2v-1l-1,1l-1,-1h-1v-1v1l1,1v1l1,1v2l-2,1h-3l1,1v2l-1,1l-1,-1h-1l1,2h2l-2,2l1,1v1h-1l-1,1v1l2,1h1v1l-1,1v2h-1v1l2,2h-1l-1,1v1h-1l-2,-1l-3,-3l-1,-3v-1l1,-1h-2l1,-2l-1,-2h1v-2l-1,-1v2l-1,-2v-4l-1,-1l-1,-2h1v-6l-1,-2v-8l-1,-2v-6l-1,-2l-1,-1l-2,-1l-3,-2l-1,-1v-1l-1,-2l-1,-3l-2,-3l-2,-2v-1l-1,-2l2,-2v-1h-1v-3l1,-1v-1h1v-2h1l1,-1v-5l-1,-1v-2h-1v1h-1v1h-1l-1,-1h-2v-2h-1v-1v1h-1v-3l-2,-2h1h-2v-1h-2l-1,-1l-1,-2h-1l-1,-1v1h-2l-1,-1h-2l-2,-2h-1l-1,-1v-1h-1v-3h1l-1,-1v-3l-1,-1v-1l-1,-1v-3h-1v-5l-1,-1l-1,1v4h1l-1,1h1v5h1v2h-1v-1l-1,-1v-3l-1,-1v1v-1h-1v-1h1v-9h-1v-1h-1v-9l2,-2v-1l1,-2l2,-2l1,-2l1,-1v-1h1v1l2,-2h-1v-2l-1,-1v-1l1,-1l-1,-1l1,-1v-1l1,-1l-1,-1l1,-1v-1l1,-1l-1,-1h-1v-2h-1v-1h-1l-1,-1h-1l-1,1h-4l1,-1l2,-1h-1l-1,1l-2,1h-1l-1,1l-2,1h-2l-2,1h-1l-1,1h-3l-1,1h-2l1,-1h2l2,-1h2l2,-1h1l2,-1l1,-1h-3l1,-1l-1,1h-1l2,-2h-1v-1l2,-2l2,-1h3l1,-1h1l1,-1h-3v-2h4l1,1l1,-1v-3h4l1,-1h2l2,-1l1,1l1,-1h1l-1,1h1l1,1h2l1,1h2v1l1,1l1,-1h6l1,-1v2l2,-1l-1,1h2l1,1h2v1l-2,1h4v1l2,-2h2v1h1l1,1h2v-1h1l1,1l-1,1l1,-1h1l1,-1v-2l1,-1l2,-1l1,1l-2,2Z"/>
<path class="tl" d="M128,774l-1,1h4l-1,1h1l2,-2v1l-1,2v1l1,1h-2v1h-8v-1h-1v-1h4l-1,-1h-3l2,-1h-1l1,-1h1ZM135,774l-2,1v-1h1ZM152,776v1l-1,-1l-1,1v-2h2ZM146,776v1l1,-1l2,-1v2h3l1,1l-1,1l2,-1v1l1,1v2h-1l2,2v1h1v1l-2,1h-1l-1,-2l-1,1v1l1,1v2l-1,1l-2,-2v1l1,1h-2l-2,-2v-1l-1,-1v1h-3v-1l1,-1h3l1,-1l2,-1v-1l-1,-1h-1l1,-1l-1,-1h-5l-1,-1h-1l1,-1h-1l1,-1l2,-1l1,-1h2ZM138,774h2l-1,1h-1l1,1l-2,1h-2v-2l1,1v-1ZM298,772h-2v-1ZM141,776l-2,1v-1l2,-2h2l1,1l-2,1ZM122,776h-2l-1,-1h1l2,-1l2,-2h2v1h2v1h-1l-3,1h-2ZM299,769v1h-3v-1h1ZM143,773v1l-1,-1h-1l1,-1h1l1,1ZM295,769l1,1h-2l-1,1l-2,-1l-1,-1h2ZM143,771h-1v1l-1,1h-2l1,-1h-1l1,-1h2ZM136,771h1v1h-4l-2,1h-1l1,-1h-1l-1,-1l2,-1h1l2,1l1,1v-2h2ZM246,780h-3l-2,-1v-1l1,-2h-1l1,-1l-1,-1h1l4,-2h2l-1,1l-2,1l-1,1v2l-1,1l1,1ZM145,770l1,1h1l-1,1h1l1,1h4v1h-7l-1,-1l1,-1v-1h-2l1,-1ZM134,769l-2,1h-4l2,-1h3ZM271,770l1,1v-1h2l2,1h1v1l-1,1h1l2,1v-1l1,1l1,-1h2l1,1h3l-2,-1h5l1,1v1h2l2,1l-1,-1h1l1,-1l2,1v-1h1l-2,-1h8l3,1l1,-1h2l2,2h2v-1h3l3,1v-1h-2v-1h7l8,5h-1l1,1l2,1h2v1h-1v1h-1l1,1v2l-2,-1v2l-1,-1v1h-1l2,2v1h1l3,2h-1l1,1h1v1l1,2h-1l1,2l1,1l-4,-2l-4,-3l-1,-2l-1,-1v-3l-1,-2v-1l-2,-2l-1,1l2,2l-3,-1l-1,1l1,2l1,1h-1l-1,1l-1,-1h-1v1h-4v7h1l2,1h1l-1,-1h1l3,1l1,2l1,1l1,2l2,2v9h-1l-1,-1v2h-1v1l1,1v1h-1v1l1,1h1l2,2v1l1,1v1l-1,1h-1l-1,-2l-1,-1h1l-2,-1v-1v1v-1h-1v-1l-1,-1h-2v1h-1l-1,-1l1,-1l-1,-1l-1,1v2h-1v1l2,2h1v-1h2l1,1l-2,1v2l2,2l1,2l2,1v2h1v6l-2,4l-1,1h-1v1l-1,-1v1l-2,1h-1v2l-1,-1v-1h-2l-1,2v2l1,1l1,2l2,2l1,3v4l-2,1v1l-2,1v-2l-1,-1h-1v-1l-2,-2h-1v-1h-1v6h1v3l1,1h1v1h1v1l1,1v3h1v2h-1l-2,-2v-1l-1,-1v-1l-1,-1v-2l-1,-1v-1h-1v-6l-1,-1v-1l-1,-2v-2l-1,-1l-2,2h-1v-3l-1,-2v-1h-1l-2,-2v-1l-1,-1h-1v2l-1,-1v1h-2v2l-2,1l-1,2v1l-2,2h-1v8l-1,1l1,1h-1l-1,1l-1,-1l-1,-2v-1l-1,-1v-1l-1,-2v-1l-3,-6v-3l-2,1h-1l-1,-2v-1l-2,-1l-1,-1v-1l-1,-1l-2,1h-5l-1,-1h-2v-2h-1l-1,1h-2l-3,-3l-1,-2l-1,1v-1l-1,1v2l1,1h1l1,1v2l1,1l-1,-1l1,-1v2h1v1l1,-1h2v-1l1,-1v-1v2l2,2h1l2,2l-1,1v1h-1v3h-1v1h-1v1h-2v1h-1l-2,2h-1l-2,2v-1l-1,1h-2v1h-2v-2l-1,-1v-3h-1v-1l-1,-1v-1l-1,-1h-1v-1l-1,-1v-3h-2v-2l-1,-1v-1l-2,-2v-1v1l-1,1l-1,-1l-1,-2l1,2l1,1l1,2v1l2,2h-1l2,2v1l1,1h-1l1,2v1l1,1l1,2v1l1,1l2,1v1h1v1h1v1l-1,1h1l1,1h3l1,-1h3v-1h1v2l-1,1v3l-1,1l-3,6l-1,1l-2,1l-1,1l-1,2v1h-1v1h-1v2l-1,1l-1,2l1,1v4l1,1v7l-1,1h-1l-3,3h-1v1l-1,1v2h1l-1,1h1v1l-1,1h1l-1,1h-1l-2,2v3l-3,3v1l-2,1v1l-1,1h-2v1l-1,-1v1l-1,-1l-1,1h-2l-1,1l-1,-1h-1v-5l-1,-1v-2l-1,-1v-1l-1,-1v-5l-1,-1v-1l-1,-2v-1l-1,-1v-3l1,-1v-3h1v-1l1,-1v-1h-1v-5l-1,-1v-2l-3,-3l-1,-2l1,-1v-5l-1,-1v-1l-1,1h-2l-1,-1v-1l-1,-1h-2l-1,1h-2l-1,1h-6l-1,1l-4,-4h-1l-1,-1v-1l-1,-1v-1h-1v-1l-1,-1v-1h-1v-3h-1l1,-1v-1h1l-1,-1l1,-1v-4l-1,-1v-1h1v-2l1,-1v-1h1v-2h1l1,-2h1l2,-2v-3l3,-3l1,-2v-1h1l1,1h2l1,-1h2l1,-1h4l1,-1h1v1h1l1,-1h1v1l1,-1v1h-1v1h1v2h-1v1h1v1h3l2,2h1l2,2l1,-1v-2l1,-1h2l1,1h1l1,1h2l1,1h1v-1h2l1,1v-1h1l1,1v-2l1,-1v-5h-2l-1,1l-1,-1h-2v1l-1,-1h-2v-1l-1,-1v-2l1,-1h1v-1h2l1,-1h1l2,-1l2,1l1,1h2l1,-1v-2h-1l-2,-2h-1l-1,-1l1,-1l-1,-1h2l-1,-1v1h-2l-1,1v1h1l-1,1h-1v-1h-1l1,-1h-2v-1h-1v1l-1,1v1h-1v4l1,1h-2v1h-1v-1h-2l1,1h-2v1l1,1h-1h1l1,1v1l-1,-1v1h-1l1,1h-2v-2l-1,-1v-1h-1v-3h-1v-1h-1l-1,-1h-1l-1,-1v-1l-1,-1v1v-1h-2v1l2,2v1l1,1h1l1,1h1l1,1v1l-1,-1h-1v1h1v1h-1v1h-1v-1h1l-1,-1v-1h-1l-1,-1h-1l-2,-2l-1,-2h-2v1h-4l-1,1v2h-2v1l-1,2h1l-1,1v1h-1l-1,1h-2l-1,1l-2,-2v1h-2l1,-1v-1h-1v-2l1,-1v-3l-1,-1l2,-1l1,1h5v-4l-1,-1v-1h-2v-1h3v-2l1,1l2,-1v-1h1l1,-1l1,-2l1,-1h2v-5h2l-1,1h1v1l-1,1v1h1v1l1,-1h2v1h1l2,-2l1,1h1v-1h1v-3l1,-1l1,1v-1l-1,-1v-1h4l1,-1h-4l-1,1l-2,-2v-4l2,-1v-1l-1,-1l-2,2l-1,2l-1,1v3h1v2h-1v2l-1,2h-1v1h-1v-2l-1,-1l-1,-2l-1,-1l-1,2h-1l-2,-1v-5l2,-1l3,-3l2,-3l3,-3h2l1,-2h3l2,1l-1,1h2l1,1h3l3,1l1,1v1l-1,1h-1l-3,-1h-1l2,1v2l1,1h1v-1h-1l1,-1l2,1v-1l1,-2h1l1,1v-1l-1,-1v-1l-1,-1l2,1h1l-1,1l1,1h1v-1l1,-1l2,-1h1v1l1,-1h1l1,-1l1,1l1,-1h-2l1,-1h2l1,1l4,1v-1h-2v-1h-1l-1,-1v-3h2l1,1v1h1l1,1l1,2h1v3l1,1v-1h1l-1,-1l1,-1h-1l-2,-2v-1l-2,-1l1,-1l-1,-1h1l1,2l-1,-1l1,-1h2l1,1l-1,-1l-1,-2h4l-2,-1v-1h1l1,-1h3l1,-1h1v-2l2,1h-1ZM253,820l1,1v2h-1v1l1,1h1l1,1h3l-1,-1v-2h-1v-2h1v-1l-1,-1h-1l1,1l-1,-1v-1h-2v-2h-1h1v-2l1,1v-3h-2l-1,1h-1v1h-1l-1,2l2,1v1l1,1Z"/>
<path class="tl" d="M146,770h-1v-1h1l1,1ZM137,769h-2l1,-1h1l1,1ZM220,771l-1,1h-1v-1h-1l2,-1v1ZM139,768h-2l1,-1v1ZM146,769h-1v-1h1l1,1ZM144,769h-1l-1,-1h-1h1v-1h1l1,1ZM268,768l-3,1v-2ZM215,769l3,1h-2v3h-1l-2,-1h1l-1,-1l-2,-1v-1l1,-1l1,1h1v-1h1ZM220,768h1l-1,1h-4l-1,-1h3ZM234,767l-1,1h-1v-1h-1h4ZM264,768h-4l-2,-1l-1,-1h1l1,-1l4,2ZM153,767v1h-1l-2,1h-2v-1h1h-1v-1l1,-1h2v-1h1v1h1ZM167,764h3v1h-3l-1,1h-1l-1,1l-2,1h-3v1h-1v1h-2l-2,1h1l-2,1h-4l-1,-1h2v-1h2v-1h-1h1l1,-1h1l-1,-1h4l-1,-1h-3v-1l1,-1h6v-1h3v1l2,-1l1,1ZM190,764l3,1h-6v1h5l-1,1l2,-1h4v1l-2,1h-1l-2,2v2l1,1h-2l1,1l-1,1v1h-1l1,1h-3l1,1v1l-1,-1l-1,1h1l1,1v1h-2l-1,-1v1l-1,1h3l-4,2h-3l-1,1l-4,2h-1l-2,1h-1v1l-2,2v1l-1,1l-1,2h-1l-1,-1h-1l-1,-1v-2l-1,-1v-1l1,-1l-1,-2l1,-1l1,-2h1l1,-1v-1l-1,1h-1v-1l1,-1h1l-1,-1h-1l1,-1v-4l-1,-1h-5v-1l-1,-1h1l-1,-1l1,-1h2l3,-1h1l-2,-1h1l3,-1h1v-1h9l1,1l-1,-1h1l2,-1h3l2,-1Z"/>
<path class="th" d="M117,875h1v1v-1v1h2v1h1v2h-1v1h-1v1h-1v1v-1v1l-1,1v1v-1h-1h1h-2v-1h1v-2h-1v-2h1h-1v-1h1v-2ZM116,880v1ZM104,878v1ZM106,878h-1ZM105,877v1h-1v-1ZM104,878h-1h1v-1h-1v-1v1v-1v1h1Z"/>
<path class="tg" d="M66,970h1l1,-1h4v-1h5v-1h5v-1h6v-1h6l1,-1h7v-1h8v-1h9l1,-1h11v-1h14v-1h20v-1h79v1h20v1h14v1h11l1,1h9v1h8v1h7l1,1h6v1h6v1h5v1h5v1h4l1,1h1M21,927h6v-1h7v-1h8v-1h10v-1h10v-1h12v-1h14v-1h18v-1h23v-1h38v-1h75v1h38v1h23v1h18v1h14v1h12v1h10v1h10v1h8v1h7v1h6M5,877h399M21,826h4v1h7v1h8v1h9v1h10v1h11v1h14v1h16v1h21v1h32v1h103v-1h32v-1h21v-1h16v-1h14v-1h11v-1h10v-1h9v-1h8v-1h7v-1h4M66,783v1h5v1h4v1h5l1,1h5v1h6l1,1h6l1,1h7v1h10v1h10v1h13l1,1h17v1h36v1h21v-1h36v-1h17l1,-1h13v-1h10v-1h10v-1h7l1,-1h6l1,-1h6v-1h5l1,-1h5v-1h4v-1h5v-1M140,755h-1v1h-3v1h-2v1h-2v1h-2v1h-2v1h-2l-1,1h-1l-1,1h-1l-1,1h-1v1h-2v1h-2v1h-2v1h-1l-1,1h-1v1h-2v1h-1l-1,1h-1v1h-2v1h-1v1h-2v1h-1v1h-2v1h-1v1h-1l-1,1h-1v1h-1v1h-2v1h-1v1h-1v1h-1v1h-2v1h-1v1h-1v1h-1v1h-1v1h-1v1h-1l-1,1h-1v1h-1v1h-1v1h-1v1h-1v1h-1v1h-1v1h-1v1h-1v1l-1,1v1h-1v1h-1v1h-1v1h-1v1h-1v1l-1,1v1h-1v1h-1v1h-1v2h-1v1h-1v2h-1v1h-1v2h-1v1h-1v2h-1v2h-1v1h-1v2h-1v2h-1v2h-1v2h-1v2l-1,1v2h-1v2l-1,1v2h-1v3h-1v4h-1v4h-1v5h-1v9h-1v13l1,1v8h1v5h1v4h1v4h1v3h1v3h1v2h1v3h1v2h1v2h1v2h1v2h1v2h1v2h1v1l1,1v1h1v2h1v1h1v2h1v1h1v1h1v2h1v1h1v1l1,1v1h1v1h1v1h1v1l2,2v1h1v1h1v1h1v1h1v1h1v1h1v1h1v1h1v1h1v1h1v1h1v1h1v1h1v1h2v1h1v1h1v1h1v1h1v1h1l1,1h1v1h1v1h1v1h2v1h1v1h1l1,1h1v1h1v1h2v1h1v1h2v1h1l1,1h1v1h2v1h1v1h2v1h2v1h1l1,1h1v1h2v1h2v1h2v1h2v1h2v1h2v1h2v1h2l1,1h2v1h2v1h2M153,755h-1v1h-2v1h-2v1h-1v1h-2v1h-2v1h-1v1h-2v1h-1v1h-2v1h-1v1h-2v1h-1v1h-1v1h-2v1h-1v1h-1l-1,1h-1v1h-1v1h-1v1h-1v1h-1l-1,1h-1v1h-1v1h-1v1h-1v1h-1v1h-1v1h-1v1h-1v1h-1v1h-1v1h-1v1h-1v1h-1v1h-1v1h-1v1h-1v1h-1v1l-2,2v1h-1v1h-1v1h-1v1l-1,1v1h-1v1h-1v2h-1v1h-1v1l-1,1v1h-1v2h-1v1h-1v2h-1v1h-1v2h-1v2h-1v2h-1v2h-1v2h-1v2h-1v2h-1v3h-1v2h-1v3h-1v3h-1v3h-1v3h-1v4l-1,1v4h-1v6l-1,1v30h1v6h1v5h1v4h1v3h1v3l1,1v2l1,1v2h1v3h1v2h1v2h1v2h1v2l1,1v1h1v2h1v2h1v2h1v2h1v1h1v2h1v1h1v2h1v1h1v2h1v1h1v1h1v2h1v1h1v1h1v1l1,1v1h1v1h1v1h1v1h1v1h1v1h1v1l3,3v1h1l3,3h1v1h1v1h1v1h1v1h1v1h1v1h1v1h1l1,1h1v1h1v1h1v1h1l1,1h1v1h1v1h1l1,1h1v1h1v1h2v1h1v1h2v1h1v1h2v1h2v1h1v1h2v1h1l1,1h1v1h2M166,755h-1v1h-1v1h-1l-1,1h-1v1h-1v1h-1v1h-1v1h-1v1h-1l-2,2h-1v1h-1v1h-1v1h-1v1h-1v1h-1v1h-1v1h-1v1h-1v1l-2,2v1h-1v1h-1v1h-1v1h-1v1l-1,1v1h-1v1h-1v1h-1v2h-1v1h-1v1l-1,1v1h-1v1h-1v2h-1v1h-1v2h-1v2h-1v1h-1v2h-1v2h-1v2h-1v1l-1,1v1l-1,1v1l-1,1v2h-1v2h-1v2h-1v3h-1v2h-1v3h-1v3h-1v3h-1v3h-1v4h-1v4h-1v5h-1v6h-1v8h-1v30h1v7l1,1v5h1v5h1v4h1v4h1v3h1v3h1v3h1v3h1v3h1v2h1v2h1v2l1,1v2h1v2h1v2h1v2h1v1h1v2h1v2h1v2h1v1h1v2h1v1h1v2h1v1l1,1v1h1v1h1v2h1v1h1v1h1v1l1,1v1h1v1h1v1h1v1l1,1v1h1v1h1v1h1v1h1v1h1v1h1v1h1v1h1v1h1v1h1v1h1v1h1v1h1v1h1v1h1l2,2h1v1h1v1h1v1h1v1h2v1h1"/>
<path class="tg" d="M179,755h-1v1h-1v2h-1v1h-1v1h-1v1h-1v2h-1v1h-1v1l-1,1v1h-1v1l-1,1v1h-1v1l-1,1v1h-1v2h-1v1l-1,1v1h-1v2h-1v2h-1v2h-1v2h-1v2h-1v2h-1v2h-1v2h-1v2l-1,1v2h-1v2l-1,1v2h-1v3h-1v3h-1v3h-1v3h-1v4h-1v4h-1v4h-1v4h-1v5l-1,1v5h-1v8h-1v11h-1v29l1,1v10l1,1v7h1v6h1v5h1v4l1,1v4h1v3l1,1v3h1v3h1v3h1v3h1v3h1v3h1v2h1v3h1v2h1v2h1v2l1,1v2h1v2h1v1l1,1v1l1,1v1h1v2h1v2h1v1l1,1v1h1v2h1v1h1v2h1v1h1v2h1v1h1v1l1,1v1h1v1h1v1h1v2h1v1h1v1h1M192,755h-1v3h-1v2h-1v3h-1v3h-1v3h-1v3h-1v3h-1v3l-1,1v3h-1v4h-1v4h-1v4l-1,1v4h-1v5h-1v6h-1v6l-1,1v7h-1v8h-1v11l-1,1v18h-1v29l1,1v18h1v11h1v8l1,1v7h1v6h1v6h1v5h1v5h1v4h1v4h1v4h1v4h1v3h1v3l1,1v3h1v2l1,1v2h1v3h1v3h1v2h1M205,755v243M217,755h1v3h1v2h1v3h1v3h1v3h1v3h1v3h1v3l1,1v3h1v4h1v4h1v4l1,1v4h1v5h1v6h1v6l1,1v7h1v8h1v11l1,1v18h1v29l-1,1v18h-1v11h-1v8l-1,1v7h-1v6h-1v6h-1v5h-1v5h-1v4h-1v4h-1v4h-1v4h-1v3h-1v3l-1,1v3h-1v2l-1,1v2h-1v3h-1v3h-1v2h-1M230,755h1v1h1v2h1v1h1v1h1v1h1v2h1v1h1v1l1,1v1h1v1l1,1v1h1v1l1,1v1h1v2h1v1l1,1v1h1v2h1v2h1v2h1v2h1v2h1v2h1v2h1v2h1v2l1,1v2h1v2l1,1v2h1v3h1v3h1v3h1v3h1v4h1v4h1v4h1v4h1v5l1,1v5h1v8h1v11h1v29l-1,1v10l-1,1v7h-1v6h-1v5h-1v4l-1,1v4h-1v3l-1,1v3h-1v3h-1v3h-1v3h-1v3h-1v3h-1v2h-1v3h-1v2h-1v2h-1v2l-1,1v2h-1v2h-1v1l-1,1v1l-1,1v1h-1v2h-1v2h-1v1l-1,1v1h-1v2h-1v1h-1v2h-1v1h-1v2h-1v1h-1v1l-1,1v1h-1v1h-1v1h-1v2h-1v1h-1v1h-1M243,755h1v1h1v1h1l1,1h1v1h1v1h1v1h1v1h1v1h1l2,2h1v1h1v1h1v1h1v1h1v1h1v1h1v1h1v1h1v1l2,2v1h1v1h1v1h1v1h1v1l1,1v1h1v1h1v1h1v2h1v1h1v1l1,1v1h1v1h1v2h1v1h1v2h1v2h1v1h1v2h1v2h1v2h1v1l1,1v1l1,1v1l1,1v2h1v2h1v2h1v3h1v2h1v3h1v3h1v3h1v3h1v4h1v4h1v5h1v6h1v8h1v30h-1v7l-1,1v5h-1v5h-1v4h-1v4h-1v3h-1v3h-1v3h-1v3h-1v3h-1v2h-1v2h-1v2l-1,1v2h-1v2h-1v2h-1v2h-1v1h-1v2h-1v2h-1v2h-1v1h-1v2h-1v1h-1v2h-1v1l-1,1v1h-1v1h-1v2h-1v1h-1v1h-1v1l-1,1v1h-1v1h-1v1h-1v1l-1,1v1h-1v1h-1v1h-1v1h-1v1h-1v1h-1v1h-1v1h-1v1h-1v1h-1v1h-1v1h-1v1h-1v1h-1v1h-1l-2,2h-1v1h-1v1h-1v1h-1v1h-2v1h-1M256,755h1v1h2v1h2v1h1v1h2v1h2v1h1v1h2v1h1v1h2v1h1v1h2v1h1v1h1v1h2v1h1v1h1l1,1h1v1h1v1h1v1h1v1h1l1,1h1v1h1v1h1v1h1v1h1v1h1v1h1v1h1v1h1v1h1v1h1v1h1v1h1v1h1v1h1v1h1v1h1v1l2,2v1h1v1h1v1h1v1l1,1v1h1v1h1v2h1v1h1v1l1,1v1h1v2h1v1h1v2h1v1h1v2h1v2h1v2h1v2h1v2h1v2h1v2h1v3h1v2h1v3h1v3h1v3h1v3h1v4l1,1v4h1v6l1,1v14l1,1h-1v15h-1v6h-1v5h-1v4h-1v3h-1v3l-1,1v2l-1,1v2h-1v3h-1v2h-1v2h-1v2h-1v2l-1,1v1h-1v2h-1v2h-1v2h-1v2h-1v1h-1v2h-1v1h-1v2h-1v1h-1v2h-1v1h-1v1h-1v2h-1v1h-1v1h-1v1l-1,1v1h-1v1h-1v1h-1v1h-1v1h-1v1h-1v1l-3,3v1h-1l-3,3h-1v1h-1v1h-1v1h-1v1h-1v1h-1v1h-1v1h-1l-1,1h-1v1h-1v1h-1v1h-1l-1,1h-1v1h-1v1h-1l-1,1h-1v1h-1v1h-2v1h-1v1h-2v1h-1v1h-2v1h-2v1h-1v1h-2v1h-1l-1,1h-1v1h-2"/>
<path class="tg" d="M269,755h1v1h3v1h2v1h2v1h2v1h2v1h2l1,1h1l1,1h1l1,1h1v1h2v1h2v1h2v1h1l1,1h1v1h2v1h1l1,1h1v1h2v1h1v1h2v1h1v1h2v1h1v1h1l1,1h1v1h1v1h2v1h1v1h1v1h1v1h2v1h1v1h1v1h1v1h1v1h1v1h1l1,1h1v1h1v1h1v1h1v1h1v1h1v1h1v1h1v1h1v1l1,1v1h1v1h1v1h1v1h1v1h1v1l1,1v1h1v1h1v1h1v2h1v1h1v2h1v1h1v2h1v1h1v2h1v2h1v1h1v2h1v2h1v2h1v2h1v2l1,1v2h1v2l1,1v2h1v3h1v4h1v4h1v5h1v9h1v13l-1,1v8h-1v5h-1v4h-1v4h-1v3h-1v3h-1v2h-1v3h-1v2h-1v2h-1v2h-1v2h-1v2h-1v2h-1v1l-1,1v1h-1v2h-1v1h-1v2h-1v1h-1v1h-1v2h-1v1h-1v1l-1,1v1h-1v1h-1v1h-1v1l-2,2v1h-1v1h-1v1h-1v1h-1v1h-1v1h-1v1h-1v1h-1v1h-1v1h-1v1h-1v1h-1v1h-1v1h-2v1h-1v1h-1v1h-1v1h-1v1h-1l-1,1h-1v1h-1v1h-1v1h-2v1h-1v1h-1l-1,1h-1v1h-1v1h-2v1h-1v1h-2v1h-1l-1,1h-1v1h-2v1h-1v1h-2v1h-2v1h-1l-1,1h-1v1h-2v1h-2v1h-2v1h-2v1h-2v1h-2v1h-2v1h-2l-1,1h-2v1h-2v1h-2"/>
<rect x="92" y="863" width="39" height="31" fill-opacity="0" stroke="#ffffff" stroke-opacity="0.5" stroke-width="5.0"/>
<rect x="94" y="865" width="39" height="31" fill-opacity="0" stroke="#113311" stroke-opacity="0.8" stroke-width="5.0"/>
<rect x="93" y="864" width="39" height="31" fill-opacity="0" stroke="#45a249" stroke-opacity="0.9" stroke-width="5.0"/>
</svg>
