<?xml version="1.0" encoding="UTF-8" standalone="no"?>
<svg xmlns:svg="http://www.w3.org/2000/svg" xmlns="http://www.w3.org/2000/svg" xmlns:xlink="http://www.w3.org/1999/xlink" height="1000" width="1000">
<!-- made with pythonshp (GPL): github.com/sanjayrao77/pythonshp , underlying data may come from naturalearthdata.com -->
<!-- 
COPYRIGHT: THIS SVG FILE IS RELEASED INTO THE PUBLIC DOMAIN
 -->
<!-- 
vars : {
	'cmdline' : 'pythonshp.py publicdomain wiki1 fiji locatormap'
	'title' : 'Fiji locator'
	'version' : '1.0.5'
}
 -->
<defs>
	<radialGradient id="watergradient" cx="500" cy="500" r="500" fx="500" fy="500" gradientUnits="userSpaceOnUse">
		<stop offset="0%" stop-color="#70add3"/>
		<stop offset="11%" stop-color="#6eaad0"/>
		<stop offset="22%" stop-color="#6ca7cc"/>
		<stop offset="31%" stop-color="#6ba5c9"/>
		<stop offset="41%" stop-color="#69a2c6"/>
		<stop offset="51%" stop-color="#679fc2"/>
		<stop offset="59%" stop-color="#669dbf"/>
		<stop offset="67%" stop-color="#649abc"/>
		<stop offset="75%" stop-color="#6297b9"/>
		<stop offset="81%" stop-color="#6095b6"/>
		<stop offset="87%" stop-color="#5f92b2"/>
		<stop offset="92%" stop-color="#5d8faf"/>
		<stop offset="95%" stop-color="#5b8dac"/>
		<stop offset="98%" stop-color="#598aa8"/>
		<stop offset="100%" stop-color="#5685a2"/>
	</radialGradient>
	<radialGradient id="landgradient" cx="500" cy="500" r="500" fx="500" fy="500" gradientUnits="userSpaceOnUse">
		<stop offset="0%" stop-color="#dddddd"/>
		<stop offset="11%" stop-color="#d7d7d7"/>
		<stop offset="22%" stop-color="#d1d1d1"/>
		<stop offset="31%" stop-color="#cccccc"/>
		<stop offset="41%" stop-color="#c6c6c6"/>
		<stop offset="51%" stop-color="#c0c0c0"/>
		<stop offset="59%" stop-color="#bbbbbb"/>
		<stop offset="67%" stop-color="#b5b5b5"/>
		<stop offset="75%" stop-color="#afafaf"/>
		<stop offset="81%" stop-color="#aaaaaa"/>
		<stop offset="87%" stop-color="#a4a4a4"/>
		<stop offset="92%" stop-color="#9e9e9e"/>
		<stop offset="95%" stop-color="#999999"/>
		<stop offset="98%" stop-color="#939393"/>
		<stop offset="100%" stop-color="#888888"/>
	</radialGradient>
	<radialGradient id="bordergradient" cx="500" cy="500" r="500" fx="500" fy="500" gradientUnits="userSpaceOnUse">
		<stop offset="0%" stop-color="#444444"/>
		<stop offset="11%" stop-color="#3f3f3f"/>
		<stop offset="22%" stop-color="#3a3a3a"/>
		<stop offset="31%" stop-color="#363636"/>
		<stop offset="41%" stop-color="#323232"/>
		<stop offset="51%" stop-color="#2d2d2d"/>
		<stop offset="59%" stop-color="#292929"/>
		<stop offset="67%" stop-color="#242424"/>
		<stop offset="75%" stop-color="#1f1f1f"/>
		<stop offset="81%" stop-color="#1b1b1b"/>
		<stop offset="87%" stop-color="#161616"/>
		<stop offset="92%" stop-color="#121212"/>
		<stop offset="95%" stop-color="#0e0e0e"/>
		<stop offset="98%" stop-color="#090909"/>
		<stop offset="100%" stop-color="#000000"/>
	</radialGradient>
</defs>
<style type="text/css">
<![CDATA[
.c1 {stroke:#45a211;fill-opacity:0}
.c2 {stroke:#45a211;fill-opacity:0;stroke-width:2}
.fs {font:14px sans;stroke:#ffffff;stroke-width:2px;stroke-opacity:0.8;text-anchor:middle}
.ft {font:14px sans;fill:#000000;fill-opacity:1;stroke-opacity:0;text-anchor:middle}
.sb {stroke:url(#bordergradient);fill-opacity:0}
.sg {stroke:#000000;fill-opacity:0.0;stroke-opacity:0.2}
.sh {fill:#45a211;stroke:#000000}
.sl {fill:url(#landgradient);stroke:url(#bordergradient)}
.sp {stroke:url(#landgradient);fill-opacity:0}
.sr {stroke:url(#watergradient);fill-opacity:0}
.sw {fill:url(#watergradient);stroke:url(#watergradient);stroke-opacity:0.8}
.tb {fill:#eeeeee;stroke:black;stroke-width:2}
.tg {stroke:black;stroke-opacity:0.2;fill-opacity:0}
.th {fill:#45a211;stroke:#378100}
.tl {fill:#aaaaaa;stroke:black}
.w1 {stroke:#ffffff;fill-opacity:0;stroke-opacity:0.6}
.w2 {stroke:#ffffff;fill-opacity:0;stroke-opacity:0.6;stroke-width:2}
.zh {fill:#45a211;stroke:#115511}
.zl {fill:#dddddd;stroke:#444444}
]]>
</style>
<circle cx="500.0" cy="500.0" r="500.0" fill="url(#watergradient)"/>
<path class="sl" d="M937,256v1v-1v1l-1,-1v-1v1l1,1v1h1h-1h1v2h1v1l1,2l1,1v1v-1h-1l1,1v1h1v2h1v1l1,1v1l1,1l1,3l1,1v1l5,10l1,3l3,6l1,3v1l1,1v1l1,2l1,1l1,3v1l1,1v1l1,1h-1v-3l-1,-1l-1,-2l1,3l1,1v1l1,3l1,2l1,1v1l2,4l1,3l1,2v2l1,2l1,1v2l1,1v-1v2l1,1v2l1,2v-1v2l1,1v2l1,1v2l1,1v2l1,1v3l1,1v2l1,1v2l1,1v2l1,1v1l-1,-1v-3l-1,-1v-2l-1,-1v-1v1l1,1l-1,-2v-1l-1,-1v1h1v1v2l-1,-1v-2l-1,-1l-1,-3l-1,-1l-1,-2v-1l-1,-1v-1l-1,-2l-1,-1v-1l-1,-1v-1l-2,-2v-2l-1,-2l-2,-2v-1l-1,-1l-1,-2l-2,-2v-2l-2,-2v-1l-2,-2v-2l-2,-2l-1,-2v-1l-1,-2v-1h-1v-1h1v-1h-1v-2l-1,-1v-1l-1,-1v-1l-1,-1v-1l-1,-1v-2l-1,-2l-2,-3v-1l-1,-1l-1,-2l-1,-1l-3,-6l-1,-1l-3,-4l1,1v-1h-1v-1h-1v-1h-1v-1l-1,-2l-1,-1h1v1v-1l-1,-1h-1l-1,-1v-2h-1v-1h-1l-1,-1l-1,-2v-2l-1,-1v-1l-2,-2h-1v-1l-1,-1v-1l-1,-1h-1v-1l-1,-1v-1l-1,-1v-1l-1,-1h-1v-1l-4,-4v-1h-1l-1,-1v-1h-1v-2h-1l-1,-1v-1l-1,-1v-1l-2,-2v-1h-1l-1,-1v-2l-2,-1l-1,-1v-1l-1,-1v-1l-1,-1v-1h-1l-3,-3v1v-1h-1l-1,-2h-1l-1,-1v1l2,2l1,2v1l3,3v1l1,2l5,5l1,2h1l1,2l1,1v1h1v1l2,2v1h1v1l1,1v1h1v1l3,3l1,2l1,1v1h1v1l1,1v1l1,1v-1h-1v-1l2,2v2h1v1l2,2v1l1,2l1,1v1l1,2l2,2v1l1,1l1,2l1,1v1v-1l1,1v1h1l1,1v1l1,2l1,1v1l1,1v2h-1v-1l-2,-3v-1l-4,-4v-1l-2,-3l-4,-4v-1l-1,-1v-2l-1,-1v-1h-1v-1l-1,-1l-1,-3l-1,-1h-1l-2,-2v-2h-1v-1v1l-1,-1v1v-1h-1l-1,-1v-1l-1,-1h-1v-1h-1v-1l-3,-3v-1h-1h1l1,1h1v1h1l-1,-1v-1l-1,-2l-1,-1l-1,-2l-1,-1l-2,-3l-8,-8v-2h-1l-1,-1v-1l-1,-1v-1l-2,-1v-1l-3,-3v-1l-1,-1v-1l-2,-1l-2,-2l-1,-2v-1h-1l-1,-1v-1l-6,-6h-1l-2,-2v-1h-1l-1,-1h-1v-1h-1l-1,-1h-1l-1,-1h-2v-1h-1v-1l-1,-1v-1l-2,-2h-1v-1l-2,-2h-1v-1l-1,-1h-1l-1,-2l-2,-1v-1l-1,-1v-1h-1v-1l-4,-2v-1l-3,-3h1v1h1v1h1l-2,-2v-1h-1h1v-1l-1,1v-1h-1l1,1v1v-1h-1l-1,-1h-1v-1l1,1l-3,-3h-1l-6,-6v-1l-4,-4l-2,-1v-1h-1v-1l-1,-1h1h-1v-1l-1,-1l-1,-2l-2,-2h-1v-1h-1l-2,-2v-1l-2,-2h-1v-2l-2,-1v-1l-3,-3l-1,-2l-1,-1v-1h-1l-3,-4l-4,-4h2v1h1h-1v-1h-2l-5,-5v1v-1l-1,-1l-2,-1l-3,-3h-1l-1,-1v-1h-1h1l1,1h1v1h3l1,1h1l2,2v1h1h-1v-2h-1h1v1h1v1h1v1h1h-1v1h1v-1l-1,-1h-1v-1h-1v-2h-2v-1h-1v-1h-1l-1,-1v-1h-1l-1,-1h-2v-1h-1v-1v1v-1h-1l-1,-1v-1v2l-1,-1h-1l-1,-1h1h-1v-1l-1,-1h-1v-1h-1l1,1h1v1h-1l-2,-1l-2,-2h-1v-1h-1v-1h-1v-1v1h1v1h-1v-1h-1l1,1h-1v-1h-3v-1l1,1v-1h1h-3v-1h-1l-1,-1l1,1h-1l-1,-1h-1l-1,-1h-1l-1,-1v-1h1h-3v-1h-1v-1h-1v-1h-1l1,-1v1h1l1,1h1l-1,-1h-2v-1h-1v-1h-1h1v2l1,1v1l-1,-1l-2,-1l1,-1h-1v-1h-1l1,1h-1l-1,-1v-1h-1l-2,-2h-1l-2,-1l-1,-1h-1v-1l1,1l2,1h2l1,1h-1l-1,-1h-2v-1h-1l-1,-1h1h-2l2,2h-1h1h-1l-1,-1h-1l-1,-1h-1l-2,-2h1h-1l-1,-1h-1l-1,-1h-1v-1l-1,-1v-1l-1,-1v1v-1h-1l1,1h1v1l-2,-2h-1v-1h-1v-1v1l1,1h1l2,2v1l-1,-1h-1l-1,-1h-1l1,-1h-2v-1h-1l-1,-1h-1l-1,-1h-1v1h1v1l-1,-1h-1v-1l-1,-1h1h-2v-1h-2v-1h-1l-1,-1h-2l-1,-1l-2,-1h-1l-2,-1v-1h-1h1l1,1h1l-2,-1h-1h1l-2,-1v1l-1,-1h-1v-1h-1l-1,-1l1,1h-1l-1,-1h-1l-2,-1h-1v-1h-1l-1,-1h-1l-1,-1v1h1h-1h1l1,1h1l1,1h1l1,1h1h-3l-1,-1h-1l-1,-1h-1l-1,-1h1v1h-1v-1h-1l1,1h2v1h2v1l-1,-1v1h-1l-1,-1h-1l-2,-1h-1v-1h-2l-1,-1h-2v-1h-2l-2,-1h-2v-1h-1v-1h-1h1v1h1l-1,-1h-1v1h-1l-1,-1h-4v-1h-1h1h-3l-1,-1h-6l-1,-1h-3v-1h-4v-1h-3l-1,-1h-1h1v-1h-1v1h-4v-1h-1v1h-1h2v1h-1h3v1l-1,1v-1h-3l1,1h-1v-1v1h-1h1h-2v1h-5v-1h2v-1l-1,1l-1,-1h-1v-2h-1v-1h-1h2l1,-1v1h3l-2,-1h-1h1v-1h1h-2v1h-5v1h1h-1v1h-1l1,1h-1v1h1h-3v1l1,1h3v1h-1v1h-1h1v1h-3v1h-2v1h-1v1h-2v1h-3v1h-1l1,1h-2l-3,1h-4v1v-1l-1,1h-3v-1h1h-2v1l-1,1h-2v-1h-1v1h-2v1h-1v-2h3v-1l1,-1h5l1,1v-1h1l1,1h1l-1,-1h-1v-1l1,-1h3v-1h2v-1l1,-1h1v-1l-1,-1h1l-1,-1v-1h1l-1,-1l-2,1h-3v-1h-1h1l-1,-1v1h-1l1,1v1l-1,-1l-2,-1h-4v-1h-3l-1,1h-2l-1,-1v-1l-1,1v-1h-1h1v-1h-1v-1h-2l-1,-1h-1v-1h1v-1h-1v1l-1,1h1l-1,1h-4l-1,-1h-2l-1,-1h-2v-1h-1h1v-1h2v1h3l-1,-1h1h-6v-1v1l-1,-1h-1h1h-3v-1h-1v-1h-1h1v-1h1v-1h1v-1h1l1,-1v1h5l1,-1h5l-2,-2h-1v-1h-5l-1,1l-1,-1h-1h1v1l-1,-1h-11l-1,-1h-1l-1,-1h2h-2l-3,-1h-1l1,-1h4l1,-1h6v1h1l2,1h4l1,-1l1,1v-1l1,1l-1,-1h-3l-2,-1h-1h2l1,1h1l-1,-1h-1h1h-3v-1h-5l-1,-1l-6,-1h-2l-1,-1h-1v-1h8l-1,-1h1l1,-1h1h-1h5l1,1v-1h-1h1h-1h5v-1h2l2,1h3l1,1h7v1h8l1,1h6l2,1h6l1,1h4l2,1h4l5,2h3l2,1h4l2,1h-1l-1,-1h-1h1h-1l-1,-1l1,1v-1h-1h1l1,1h4l1,1h-1h2v1h1h-1v-1l1,1v-1h-1h1h-1h1v-1l1,1h1h-1v-1h-2h2l1,1h2l1,1h3l1,1h1h-1v-1h-1h1l1,1h2l1,1h1h-1v-1h-1h1l1,1h2l3,1h1l2,1h1l1,1h1l2,1h2l1,1h2v1h3l1,1l-1,-1v1h3v1h3v1h2l1,1h1l1,1h2l1,1h1l1,1h2l1,1h2l1,1h1l1,1h2l1,1h1l1,1h1l1,1h1l1,1h1l1,1h2l1,1h1l1,1h1l1,1h1l1,1h2l2,2h2l1,1h1l2,2h1l1,1h2l2,2h2l2,2h1l1,1h1l1,1h1l2,2h1l1,1h1l1,1h1l2,2h2l2,2h1l1,1h1l1,1h1l2,2h1l2,2h1l1,1h1l3,3h2l3,3h1l1,1h1l2,2h1l3,3h1l2,2h1l1,1h1l4,4h1l1,1h1l4,4h1l4,4h2l6,6h1l5,5h1l1,1h1l8,8h1l12,12h1l23,23v1l11,11v1l8,8v1l3,3v1l4,4v1l5,5v1l2,2v1l3,3v1l5,5v2l3,3v1l3,3v1l1,1v1l3,3v1l2,2v1l1,1v1l3,3v1l1,1v1l2,2v1l2,2v2l3,3v1l1,1v1l1,1v1l2,2v1l1,1v1l1,1v1Z"/>
<path class="sp" d="M974,340v2l1,1v2l1,1v2l1,1v2l1,1v3l1,1v2l1,1v2l1,1v2l1,1v1M675,32h2l1,1h1l1,1h2l1,1h1l1,1h2l1,1h2l1,1h1l1,1h2l1,1h1l1,1h1l1,1h1l1,1h1l1,1h2l1,1h1l1,1h1l1,1h1l1,1h2l2,2h2l1,1h1l2,2h1l1,1h2l2,2h2l2,2h1l1,1h1l1,1h1l2,2h1l1,1h1l1,1h1l2,2h2l2,2h1l1,1h1l1,1h1l2,2h1l2,2h1l1,1h1l3,3h2l3,3h1l1,1h1l2,2h1l3,3h1l2,2h1l1,1h1l4,4h1l1,1h1l4,4h1l4,4h2l6,6h1l5,5h1l1,1h1l8,8h1l12,12h1l23,23v1l11,11v1l8,8v1l3,3v1l4,4v1l5,5v1l2,2v1l3,3v1l5,5v2l3,3v1l3,3v1l1,1v1l3,3v1l2,2v1l1,1v1l3,3v1l1,1v1l2,2v1l2,2v2l3,3v1l1,1v1l1,1v1l2,2v1l1,1v1l1,1v1"/>
<path class="sl" d="M375,16h1l1,-1h3l1,-1h4v-1h1h-1h2l-1,1h-2l-1,1h-3l-1,1h-1h1h-2v1l1,-1l-1,1l1,-1h3l1,-1h2l1,-1h1v1h1l1,-1h3l1,-1l1,1h1v-1h1h-1h5v-1h3l1,-1h-1v1h-1h1v-1h4l1,-1h10v-1v1h1h-4l-1,1h-1h2l1,-1h4v-1h5v1h-2h1h-1l-1,1l1,-1h3v1h1l2,-1h9l2,-1h3l2,1l-1,1h-1h3l-1,1v1h-1h2v-1h1l2,-1h15l2,-1h1v1h3v1h3l2,-1h-1v-1h-1h2v-1h2l2,1h20v1h6l1,1h3v1l1,-1h-2h3v1h2l6,1h1v1h1v1h1l1,1v-1h1v1h1v-1h-2v-1h3v1v-1h4l1,1h3v1h5v1h-2v1h-1l-1,-1h-1l1,1h-4v-1h-1l1,1h-1h1l1,1h-2v1h-1h1v1h-1l-1,-1h-4l-1,-1h-5v-1h-1l-1,-1h-9v-1h1v-1l-1,1h-1v-1v1h-2v1h1v1h-2v1h-5v1l-1,-1h-4l-1,-1l-1,1l-1,-1v1h1h-2v1l1,-1l1,1l1,-1h2l-1,1h1l1,1h1v-1h1v1h1v1h-1h1v1h1v-1v1h2v1h-1h2v1h-2v1l-1,-1h-6v-1h-2v1h1h-3v1h-5v1h-5l-1,1h-4v1h-3v1h-3l-1,1h-3l-2,2h-2v-1h-1l-1,-1h-5l-2,1h-3l-3,2h-1v-1l1,-1h-2l-1,1h-3v1h-7v1h-1l-2,2h-1l-1,1h-2l-2,1v1l-1,1l1,1l1,-1h3l-2,2h-2v2h2l-1,1v1h-1l-1,1h-1v-1l1,-1h1h-2l-1,1h-1l-3,3h-1v3h-1l-1,1h-5l-1,1h-2l-1,1h-1l-1,1v2h-1h1l-1,1h-4l-1,1h-2l-1,1v1h-1v1l-1,1l-4,2l-1,1h-1l-2,1l-3,1v-2l2,-4v-1h-1l1,-1l1,-3l1,-1v-2l1,-2l1,-1v-1l2,-1l4,-4l3,-1l1,-1h1l1,-1h1v-1h-1h3l2,-1h3l1,-1h1l2,-1h1v-1h2l2,-1l3,-1l1,-1h2l2,-1l1,-1h2l1,-1h1l3,-1h3v-1h1l2,-1v-1h1l2,-2l2,-1h2v1v-1h1h-8v1h-1l-2,2h1h-5l-6,2v1h-3v1h-1v-1h1l1,-1h-1l-1,1h-1h1l2,-2h1l1,-1h-8l-1,1h-4l-1,1h-1l-1,1h-2l-1,1h-2v1h-2l-2,1l-3,1h-1v1h-2v1h3v1h-8l-1,1h-5l-1,1h-2v-1h4l1,-1h-2l-1,-1v1h-3l-2,-1h-1v1h-2v1h-1v-1l-1,1h1h-4l-1,1h-6l-1,1v-1h-1l-4,1h-5l-2,1h-2l-1,1l-2,1h-1l-2,1h-2l-1,1h-1l-2,2l-3,1h-1l-1,1h-1l-2,1h-1l-2,1l-3,1v1h-2l-2,2h-2l-1,1h-2l-1,1h-2v1l-4,2h-1l-2,1h-1v1h3l1,-1h1l-3,3h-1v1h1v-1h2v-1l2,-1h1l-2,1v1h1h-1l-2,1h-1v1l2,-1h1l1,-1l2,-1h1l-1,1h-1l-1,1h-1h2l2,-2h1v-1h3l2,-1v3h1l1,1h-1l-1,1h-1v1l-1,1h-1v1h1l-2,2h-1l-1,1h-1l-1,1l-2,1l-2,2l-2,1l-1,2v1h-1l-1,1v1l-2,1l-5,5h-1l-2,1v1h-2l-1,1l-2,1l-1,2l-4,1v1h-1l-4,4l-3,2h-1l-2,2l-2,1l-3,1v1l-1,1l-2,1l-1,1h-1v1h-2l-3,3h-1v1l-2,1l-1,1h-1l-6,3l-2,2h-2l-1,1h-1v-1h-2l1,-2l-2,1l1,-1h-1l-2,2l-2,1v1h-1v1h-2l-2,2h-1l-1,1h-1l-2,2h-1v1l-1,1h-1v1l-1,1l-1,2l-3,1v1l-2,1h-1v1h-1l-1,1h-1v1h-2l-1,1l-2,1l-1,1v1h-1v1h-1v1h1v3l-1,2v5l-2,4l-1,1v1h-1v2h-1h1v1l-2,1l-1,2l-2,2h-1v1h-3v1l-1,1v-1l-1,1v-1h-1l-1,1v1h-2v1l-1,1h-1l1,-1h1v-1l-3,3l-1,-1l-1,1v1v-3l1,1v-1h1v-1l-1,1l1,-1v-1l1,-1v-1l1,-1h1v-1h1v-1l1,-1v-1l1,-1v-1l1,-1v-1v1h-1v-1h1l1,-1v-1h1v1h1v-2l1,-1v-1l1,-1v-1h-1l-1,1v-1h-1l-2,2v-1h-1l2,-1h-2l3,-3l2,-1h1v-1h-1l3,-3v-1h1l-1,-1h-1l-1,1l1,-1v-2l-2,2h-2v1h-2v1h-2l-4,4h-1l-1,1h-1v1h-1l-1,1h-1h1v-1h1l3,-3h-1v-1h1v-1h1l3,-3h1l3,-3v-2l-1,1h-2l-2,2l-3,2v1l-3,2h-2l-2,2v1l-1,1l-2,1l-1,1h-1l-1,1v-1h-1v1l-4,4v2h1l1,-1v2h-1v1l-2,2v1h1l1,-1h1v-1l2,-1l2,-2l2,-1v1h1v1h1l1,-1l1,1v-1h1l-1,1v1h-1v1h-1h1h-1v1h-2l-1,1l-2,1h-1l-1,1h-1v1h-1v1l-2,2h-1l1,-1h-1v2h-1l-1,1v1h-2v1l-1,1h-1v1l-4,4h1v1h1v2l-1,2v1l-1,1v2l-1,1v1l-1,1v1h1v1l-1,1v1h1v1h-1v1h-1v-1l-1,1h-1v-1h-1l-1,1h-1h1l1,-1h1v1h-1l1,1v1l1,1v1l-1,1v1h-2v1l-1,1l-2,1v1h-1v1l-1,-1l-2,2h1v-1v1h1l2,-1v-1l1,1v1l1,1l-1,1l-2,1v1h-1h1l1,-1v1l-1,2h-1v-1v1h-1v2h-1h1l-1,1v1h-1v2l-1,1v-1l-1,1h-1v1l-1,1h-1v1l-2,2v1l-1,1v1h-1v1l-3,3v1h-1v1v-1h-1v3h-1v1l-1,1h-2v1h1l1,-1l-1,1v1l-1,1v2h-2v2h-1l-1,1v1h-1l-1,1v1l-1,1h-1v1v-1h-1v1l-1,1v1l-1,2h-1l-1,1v1h-1v2h-1v-1v1h-1l-1,2h-1v2h-1l-1,1v1h-1v1h-1l-1,1h-1v1h-1v-1v1h-1v1h-1v-1v1h-1v1h-1v1v-1v1h-1v-4h1h-1v1h-1v3l-1,1v2h-1v1h-1l-1,2h-1v1h-1v-1v1l-1,1h-1v1h-1v1h-1v1h-1l-2,2v1h-1v-1v2h-1v1l-1,1h1v1h-1v3h-1v1h-1v-2l1,-1v-3h1v-2h1v-2l-1,1v1h-1v-1h-1l1,-1h-1h1v-1l-1,1v1h-1v1l-3,3v1l-2,2v1h-1v-1v3l-2,2v1l-1,1l-1,2l-1,1l-1,3v1l-1,1v2h-1v3l-1,1v6l-1,3h1v2l-1,1h1v15l-1,2v5l-1,1v2l-1,2v4l-1,1v2l-1,3v1l-1,1v2l-1,1v2l-1,1v1l-2,2l-2,4v1h-1v1v-2h-1v1l-1,1h1v1h-1v3l-1,1v-2v5h-1v-1v2l-2,4l-1,1v1l-1,1v2h-1l1,-2v-3l1,-4v-2l1,-1v-2h-1v1v-3h-1v1h-1l1,-1v-2h-1v-2l1,-1v-9l-1,-1v1h-1v1v-2l1,-1v-3l1,-1h-1l-1,1v3l-1,1v2l-1,1v4l-1,1v1l-1,2v2l-1,3v2l-2,5v4l-1,2v4l1,-2v2l-1,5v2l-1,7v3l1,1v-1h1v7h-1v1l-1,1v1v-6h-1v-1v2v-14h-1v1v-2l1,-2v-2l1,-3v-2l1,-3v-4l1,-2v-2l1,-1v-4l1,-1v-4l1,-1v-3l1,-1v-5l1,-2v-3l1,-1l-1,3v-3l1,-1v-3l1,-1v-2l1,-2v-2l1,-5l1,-1v-3h1v-1v1h-1l1,-1v-3h1v-2l-1,1v3l-1,1v2h-1v1v-1l1,-1l-1,1v2h-1v2l-1,1v2l-1,1l1,-1v-1v1l-1,1l1,-1v-1v1h-1v1v-1h1v-3l1,-1l-1,1v2l-1,1l1,-4h1v-3l1,-1v-1l1,-2v-2l1,-1v-1l2,-5v-3h1v-2l1,-1l-1,1v2h-1h1v-3h1l-1,1v-1h1v-3h1v-3h1v-1l-1,1h1v-2l1,-1v-2l1,-1v-1l1,-1v-1l1,-1v-2l1,-1v-1l1,-1v-2l1,-1v-2l1,-1v-1l1,-1v-1l1,-1v-1l1,-1v-2l2,-2v-2l1,-1v-1l1,-1v-1l1,-1v-1l1,-1v-2l2,-2v-2l2,-2v-2l1,-1v-1l2,-2v-2l2,-2v-1l1,-1v-2l2,-2v-1l2,-2v-1l1,-1v-1l1,-1v-1l1,-1v-1l2,-2v-1l2,-2v-1l1,-1v-2l2,-2v-1l2,-2v-1l1,-1v-1l2,-2v-1l2,-2v-1l2,-2v-1l1,-1v-1l2,-2v-1h1l1,-1v-1l2,-2v-1l2,-2v-1l2,-2v-1l3,-3v-1l2,-2v-1l1,-1h1v-1l2,-2v-1l3,-3v-1l2,-2v-1h1l1,-1v-1l3,-3v-1l5,-5v-1l3,-3v-1h1l3,-3v-1l6,-6v-1h1l3,-3v-1l10,-10v-1h1l3,-3v-1h1l10,-10h1l3,-3v-1h1l6,-6h1l3,-3v-1h1l3,-3h1l5,-5h1l3,-3h1l1,-1v-1h1l2,-2h1l3,-3h1l2,-2h1v-1l1,-1h1l2,-2h1l3,-3h1l2,-2h1l2,-2h1l2,-2h1l1,-1v-1h1l2,-2h1l1,-1h1l2,-2h1l2,-2h1l2,-2h1l1,-1h1l2,-2h1l2,-2h2l1,-1h1l2,-2h1l2,-2h1l1,-1h1l1,-1h1l1,-1h1l2,-2h1l2,-2h2l1,-1h1l2,-2h2l2,-2h1l1,-1h2l2,-2h2l2,-2h2l1,-1h1l1,-1h1l1,-1h1l1,-1h2l2,-2h2l1,-1h1l1,-1h1l1,-1h1l1,-1h2l1,-1h2l1,-1h1l1,-1h2l1,-1h1l1,-1h1l1,-1h2l1,-1h2l1,-1h2l1,-1h2l1,-1h1l1,-1h2l1,-1h2l1,-1h2l1,-1h2l1,-1h2l1,-1h2l1,-1h3l1,-1h2l1,-1h3l1,-1h2l1,-1h3l1,-1h2l1,-1h1Z"/>
<path class="sp" d="M32,323l1,-1v-2l1,-1v-1l1,-1v-1l1,-1v-2l1,-1v-1l1,-1v-2l1,-1v-2l1,-1v-1l1,-1v-1l1,-1v-1l1,-1v-2l2,-2v-2l1,-1v-1l1,-1v-1l1,-1v-1l1,-1v-2l2,-2v-2l2,-2v-2l1,-1v-1l2,-2v-2l2,-2v-1l1,-1v-2l2,-2v-1l2,-2v-1l1,-1v-1l1,-1v-1l1,-1v-1l2,-2v-1l2,-2v-1l1,-1v-2l2,-2v-1l2,-2v-1l1,-1v-1l2,-2v-1l2,-2v-1l2,-2v-1l1,-1v-1l2,-2v-1h1l1,-1v-1l2,-2v-1l2,-2v-1l2,-2v-1l3,-3v-1l2,-2v-1l1,-1h1v-1l2,-2v-1l3,-3v-1l2,-2v-1h1l1,-1v-1l3,-3v-1l5,-5v-1l3,-3v-1h1l3,-3v-1l6,-6v-1h1l3,-3v-1l10,-10v-1h1l3,-3v-1h1l10,-10h1l3,-3v-1h1l6,-6h1l3,-3v-1h1l3,-3h1l5,-5h1l3,-3h1l1,-1v-1h1l2,-2h1l3,-3h1l2,-2h1v-1l1,-1h1l2,-2h1l3,-3h1l2,-2h1l2,-2h1l2,-2h1l1,-1v-1h1l2,-2h1l1,-1h1l2,-2h1l2,-2h1l2,-2h1l1,-1h1l2,-2h1l2,-2h2l1,-1h1l2,-2h1l2,-2h1l1,-1h1l1,-1h1l1,-1h1l2,-2h1l2,-2h2l1,-1h1l2,-2h2l2,-2h1l1,-1h2l2,-2h2l2,-2h2l1,-1h1l1,-1h1l1,-1h1l1,-1h2l2,-2h2l1,-1h1l1,-1h1l1,-1h1l1,-1h2l1,-1h2l1,-1h1l1,-1h2l1,-1h1l1,-1h1l1,-1h2l1,-1h2l1,-1h2l1,-1h2l1,-1h1l1,-1h2l1,-1h2l1,-1h2l1,-1h2l1,-1h2l1,-1h2l1,-1h3l1,-1h2l1,-1h3l1,-1h2l1,-1h3l1,-1h2l1,-1h1"/>
<path class="sl" d="M24,392v1v-2ZM28,403v-1ZM32,388h-1l1,-1ZM54,303v-1ZM57,299l-1,1l1,-1v-1ZM56,301v-1h1ZM54,303l1,-1v1ZM394,553l1,3h1v-2h1v2l1,2v1l-1,1h-3v-1l-1,-1v-1l-1,-3v-2h1v1ZM400,564h1v1l1,1h1v1h1l-1,1h-2l-1,-1v-2l-1,-1v1l-1,-1v-2h1v1ZM409,570h-3v-1l1,-1v1h1v1ZM407,566h-2l-1,-1h2v-1h1v1ZM409,576l1,2h1l-1,1h-2v-1h-1v-1h1v-1v1ZM404,558l-1,1h-1l1,-2h2ZM407,563h-1v-4l1,3ZM406,557v1v-1l-1,-2v-1h1v2ZM398,561h-1v-1h1ZM401,548l-1,1h-1v-2h1ZM400,545h-1v-1l1,-1v1ZM422,599h-1l1,-1ZM419,593l-1,1l-1,-1v-1l1,1ZM417,588v1l-3,-1v-2h2l1,1h-1ZM359,380v1ZM175,361l-1,1v-1h1v-1ZM269,369h-1ZM321,370h-1v-2l1,1ZM416,374h-1l1,-1v-1v1ZM409,362h-1v-1v1ZM432,363h1l1,1h-2ZM428,363h1h-1v-1ZM394,330h-1ZM234,299h-1ZM228,317h-1ZM237,285l-1,1ZM232,309v-1h1ZM232,310l-1,1v-1ZM223,325v-2h1v-1h1l-1,1ZM583,549l-1,-1h2ZM704,59h-1v-1l1,1h1ZM706,60h-1ZM690,52h-1v-1ZM644,40h-1v-1ZM648,42v-1ZM634,39h-1h2ZM598,52l1,1ZM604,54h-1ZM603,53v1h-1v-1ZM573,57h1ZM525,64h-1ZM550,18h1ZM535,23v1h3v-1h2v1h5l1,1h-6v-1h-6v-1ZM562,34h2v1h1h-7l-1,-1h3v-1l1,1v-1ZM624,45v1l1,-1l1,1h1v1h-3v1h-1h1l-1,1h-1l1,-1h-2v-1h-1v1h1h-1l-1,-1h-1v-1h3l1,1l-1,-1h-1h1l-1,-1h1v1h1v-1h1h-1h1ZM584,53l1,1h1h-4l-1,1h-2l-1,-1h1l1,-1h3ZM708,63v1l-1,-1ZM717,66l1,1h-1v-1h-1l-1,-1h1ZM709,61l1,1h-2v-1h-2v-1h1l1,1ZM716,65h1v1l-1,-1h-2l-2,-2v-1l2,2h1ZM700,57h1v1h2v1l-1,-1h-1h1v1h1h-2l-2,-2h-1ZM713,66h1v1l-1,-1h-1l-1,-1h-1v-1h-1h1l1,1h1ZM639,39h1h-2ZM636,40v-1h1v1ZM634,38v1h1h-1ZM632,37h-1ZM626,48h-2ZM623,43h-1ZM622,45h-1ZM619,52h-1ZM621,50h-1l1,-1ZM623,50h-1v-1h1ZM597,52l1,1h-1l-1,-1ZM590,54v-1ZM590,55v1l-1,-1ZM601,53v1h-1v-1ZM575,56h-2l1,-1v1ZM576,56l-1,-1h1v1h1ZM588,40l-1,1v-1ZM534,32l1,1h1h-2l-1,-1h-1h1ZM549,44h-1v-1h1ZM557,60v1l-1,-1v1v-1ZM552,61h-1h2ZM543,62h-1h2ZM552,46h1ZM523,64h-1ZM525,63h-1ZM519,64h-3v1v-1h2l1,-1ZM495,63v1v-1h1ZM500,66h-1l-2,-1h-1h3v1ZM470,62h-2v-1h2ZM693,55h1v1h1l1,1h1v1h1l1,1h1h-1l-1,-1h-2v-1h-2v-1h-1l-1,-1v1l-1,-1h-1h1v-1h-1h2v1ZM689,52h2l1,1h1l1,1h1h-2v-1h-1l2,1h1v1h1v1h-1l-2,-2h-1l-2,-1v-1h-1l-1,-1ZM686,51l1,1h2l1,1h-1h2v1h1h-1l-2,-1v1h1h-2l-2,-2h-2v-1h1Z"/>
<path class="sl" d="M703,60h2v1h2l1,1h1l1,1h1l1,1h-1l-1,-1v1h2l1,1h1l1,1h1v1h-1l-1,-1h-1v-1h-1h1h-2l-1,-1h-1h1l-1,-1h-2v-1h-1v-1h-2v-1ZM699,57v1h2v1l1,1h1h-2l-2,-2h-1l-1,-1h1ZM624,44v-1l1,1h1h-2v1v-1v1h-1l-2,-1h1v-1h1ZM565,59h-2v1h-1l-2,1v-1h1v-1h2v-1h3ZM571,57h1v-1l1,1h-1h1v1h-3l-1,1h-2v-1h2v-1h1v1h1v-1h-2v-1h2ZM538,63h1h-2ZM532,63h-2h3l1,-1h-1h1v1h-1ZM522,64l-1,1h-1v-1h1v-1h1ZM515,65h-1v-1h-1v-1h1l1,1h1h-1ZM502,63l-1,1l-1,-1h1ZM489,64h-1l1,-1h1ZM465,59h3l1,1h-5v-1ZM700,273h-1l-1,-1h-1v-2l-1,-2l-1,-1l2,-2l-1,-1v-1l5,2l2,2v1h1l1,1v1l-2,1h-1l-2,1ZM685,255h2l2,1h-5ZM691,258h1v-1l1,1h1v1h1h-1v1h-3v-1h-1v-1h-1v-1h1ZM680,253h1v1h1h-3v-1v1h-1v-1l-1,-1h1v-1h1l1,1ZM668,249h-2v-1h-1v-1l1,-1h2v2ZM662,249h-1v-1h2ZM688,259h-1v-2l1,1ZM939,261v-1h-1h1ZM938,260v-1ZM941,265v1v-1l-1,-1l-1,-2l1,2ZM946,274v1l-4,-8v-1l1,3l2,4ZM860,192h-1v-1ZM872,202h-1v-1l-1,-1l1,1ZM861,193l-1,-1h1ZM861,192h1l1,1h-1v-1ZM869,198l1,1v-1h-2v-1ZM779,102h1h-1h1ZM780,103h-1v-1ZM783,105h1v1h1h-1v-1h-1l-2,-2h1v1h1ZM787,109v1ZM788,109h-1v-1ZM786,108v-1h-1h1ZM781,103h-1v-1v1ZM860,661v-1ZM544,607v-1h1l-1,1l-1,-1h-1h2ZM555,585l-1,1v-2h1ZM546,608v1ZM101,525v1h-1v-1ZM99,537v-2h-1l1,-1v-1h-1v-1l1,-2l1,-1l2,-1v-1h4v-1h1v-1h3l-1,2l-4,4h-1v1l-1,1h-1l-1,2l-1,1ZM94,537l2,-2v1l-1,1ZM23,383v1ZM23,380v1v-1v-1h1v1ZM11,420v1v-2ZM16,403v-1ZM15,404v1ZM11,430v-1ZM11,420v-1ZM12,410v1ZM11,422v1ZM107,273l-1,1v1h-1v2l-1,1v-8h1v-2h1v-2l1,-1l4,-6l1,-2l2,-2v-1h1l2,-2l1,1v1h-1v2h-1v1l-1,2l-1,1v1l-1,1l-3,6v1l-2,2ZM102,261v1h-1ZM182,178h-1h1v-1l1,-1ZM179,178v1h-1v-1h2ZM170,183h-1v-1h1ZM185,161l-1,1v-1l1,-1ZM172,183h-1l1,-1ZM177,180l1,-1ZM179,169v-1ZM171,180v1h-1l1,-1v-1ZM203,159h-1l1,-1ZM166,190l-1,1v-1h1l2,-2h1v1h-1l-1,1ZM333,501h-1v-1h1ZM394,526h-1v-1h1ZM387,518h-1l-1,1h-1v-1h1l1,-1h1ZM342,529l-1,1v-1h-1l-1,-1h-2v-1h1l3,1ZM349,510v1h-1v-3h-1h1ZM329,507h-1v-1l1,-1v1h1ZM337,505h1v1h1v1l-1,-1v1v-1h-1ZM317,500h1l1,2h-1v1l-2,-2v-1h-2v1l-1,-1l2,-2v-1l1,1v1h1ZM321,504v-1v1h1ZM320,503v1h-1v-2h2ZM315,504h-1l-1,-1v-1l1,-1l1,1v1h-1ZM309,497h-1v-1h-1v-1l1,-1v1h1l1,1h-1Z"/>
<path class="sl" d="M308,500v-1ZM313,499h-1l-1,-1v-1h2v1ZM302,491h-2v-1h2ZM317,504h-1ZM334,508l2,1h3l1,1h1l1,1h1v1l-1,1h-2l-1,-1h-5v-1l-1,-1v-2ZM335,501h-1l-1,-1l-3,-1l-1,-1h-1l-1,-1h-1v-1h-1v-1h-1v-1l-1,-1l2,1l1,1h1l1,1h1l1,1h1l3,2v2ZM315,492v1l-1,-1h-2l-2,-1l-2,-2l-1,-2h-1v-1h1l4,2l1,1v1l2,1v1ZM342,499l2,2v1l-1,1h1l2,2v2l1,2v1l-1,-2l-2,-1l-2,-2l-1,-3v-1l-1,-2h1ZM351,517h3l1,2v1h1h-4l-1,-1l-2,-1v-2h-2v-1h1l2,1ZM16,469v1h-1l1,-1v-1ZM570,541h1v2h-3l-2,-2h2ZM577,546h-2l-1,-1h-1l-1,-1h4v1h1ZM300,113v1h-1v-1ZM303,112h-1ZM300,114v-1h1h-1ZM308,62l-2,1h-1h1l1,-1ZM376,42v-1h1ZM386,13h1ZM422,6h1h-1h3v1h-1v-1h1h-1l-1,1h-5l-1,1v-1v1h-2l1,-1h5v-1h2ZM432,6l1,-1h4l-2,1h-3v-1ZM498,8v-1h4v1h-3ZM326,62v2h-1l-1,1v2h-1v1l-2,2h-1l-2,2v1l-1,1v1h-1l1,1l-2,3l-1,1v2l-1,1v1h-1v1l1,1l-1,1v-2h-1v-1h-1l-2,1h-1l-2,2l-4,3l-3,3v1h1v1h-1v2h1v1l-2,2v1h-1l1,-1v-2h-3l-1,1h-1v1l-2,1v1h-1v-1l1,-1l1,-2l2,-1l1,-1v-1l3,-3h1l1,-2v-2l2,-1v-1l1,-1h1l1,-1l2,-3h1v-1l1,-1v-1h1l2,-2v-3l2,-1v-1h1l4,-4h1l1,-1v1h1v-1h1v-1h1l1,-1v-1h1ZM505,7h4v1h-7v-1h2ZM443,54l-2,-1h-1v-1h1v1h1ZM445,13h-1h1v-1h-1h1l1,-1h1h-1v1h-1ZM446,4h1ZM442,4h1ZM395,13h-1ZM414,8l-1,1l1,-1h1ZM416,8h1v1h-7l-1,1v-1h5l1,-1ZM413,8h-1h3v-1h1h-1v1h-1ZM405,10l1,-1v1ZM311,62h-1l-1,1h-1v1h-1l1,-1h-1l1,-1h1l1,-1v1ZM469,10l-1,1l-1,-1h-1h4ZM429,40h-1l1,-1h1v-1h3l1,-1l1,1h-1l-2,1h-1ZM436,53h-1l-1,-1v-1h-1h2v1h1ZM364,80h-1v-1l2,-1h1h-1v1h-1ZM376,73h-1v-1h2ZM373,75h-3v1h-1v-1h1v-1h2l2,-1v-1h1v1h-1v1ZM359,82v1v-1h1ZM373,72h-1ZM351,88h-1l1,-1ZM343,92l-2,1h1l2,-2h1ZM327,100h-2l2,-1h1l1,-1l3,-1l-1,1h-1l-1,1h-1ZM320,102h-1l-1,1l-2,1h-2l-1,1l-2,1l-1,1h-1l-1,1l2,-2h1v-1h2l2,-2h1v-1h1v1l1,-1l3,-1h1h-1v1ZM305,111v1l-1,-1h2ZM305,108h1h-1l-1,1h-1l-2,2h-2l-1,1l1,-1h1l2,-2h1l1,-1ZM97,304l1,1h1v1l1,-1h1v-2l1,1l-1,1v1l-1,1l-1,2v3l1,1h-1v1h1v1h-1v2l-2,3v1l-2,2h-1v1l-1,1v2h-1v1l-1,1v9l-1,1h1v1h2v-1h-1l1,-1v-1h3v4h1v-3h1v1h1l1,1h-1l-1,1v4h1v1h1l-1,2v2l-1,-1v-1l1,-1h-2l-1,-1v-3l-2,-2v-1h-1v6h-1v-3l-2,-2h-1v1h-1v2h-1l-1,-1v-1h-1v1v-3h1v-1l1,-2h1v-2h-1v-1l-1,1v3h-1v-3l-1,1v-2l1,-1v-7l1,-2h1v1h1v-3l1,-1v-2l1,-1v-1l1,-2v-3l2,-4l1,-1v-2h1l1,-1Z"/>
<path class="sl" d="M63,392h-1h1v-3h1v-1l1,-1v-1l1,-2h1v-1l2,-2l2,-4v-1l1,-2l1,-1v-1l1,-1v-3h1l1,-3v2l-1,1v5h-1l-1,1v2l-1,1h-1v2l-2,3v1h-1v1l-1,1v1l-1,1v1l-2,2v1h-1ZM90,359h2l-1,1l1,-1h1v1l-1,1v1l-2,2v1l-3,3h-1v1h-1l1,-1v-2l1,-1v-3l1,-3h-1v-1l1,-1v1h1v1ZM89,380h-1v-2l-1,-1v-4h1v-1l2,-2v-3l1,-1v-2h1v-1l2,2l-1,1v1l-1,1v1l-1,2v1l-1,1v4h1l-1,1v1ZM99,359h1l1,-1v10h-1v-1v3l-1,-1v-5h1l-1,-1v-1l-1,1v-5h1ZM104,349v1h1v2l-1,1v6h1v1h-3v-1h-1v-2l1,-1v-1h-1v-2h-1v-4h2l2,-1ZM85,346v-1h1v1h1v1l1,1l-1,1v3l-1,1v2h-1v1l-1,-1v-7h-1v-2h1ZM104,374v1h1v4h-1v2h1v11l-1,1l-1,2h-1l1,1l-1,2v1v-4l-1,-1v-2h-1v1l-1,1v1l-1,1v2h1v6l-1,2l-1,1v-4l-1,1v1h-1l-4,-4v-5l1,-1v-1h1v-2l-2,-2h-1v1h-1v2h-1v-2l-1,1v1h-1v-2h-1v1l-1,1v2l-1,2v1l-1,1l-1,-1l1,-1v-2l1,-2v-2l1,-1v-1h2v-1h1l1,-1v-2l1,-1h1v-2l1,1h1v4l-1,1l2,-2h1v-2l1,-1v-1l1,1l1,-1v-3h2v-1h2v-6l1,-1v1l1,1ZM91,376v1v-2l1,-2v-3l1,-1l3,-6v-2l1,-1v1l-1,1v4l-1,2l-2,2v2l-1,3ZM101,301v-1h1ZM100,297v1ZM105,289v-1ZM106,286l-1,1v-1l1,-1ZM77,407v1h1v1l-1,-1v1h-1v-1ZM61,397v-2h1ZM76,371v1v-2h1v1ZM80,357l1,1h-1l-1,1v-2ZM79,361l-1,1v-3h1v1ZM89,368v1h-1v-2h1v-1v1ZM97,372v1h-1v1h-2v-2l1,-1v-1h1v-1h1v2ZM72,415v1h-1v1h-1h1v-1ZM82,403h-1v-2h2v1ZM105,371l-1,-1l1,-1v-1v2ZM103,370v-1h-1v-1l1,-1v-2l1,1l-1,1v2ZM83,344v1l-1,-1l1,-1ZM90,344h1v1l-1,1v1l-1,-1v-1ZM89,353l-1,3v-3h1v-2h1h-1v1ZM91,353v-1h1v1ZM95,348v1v-1l-1,-1v-1h1ZM97,351v1v-1l-1,-1l1,-1v1ZM96,352l1,1l1,2l-1,1v-1h-1v-1l-1,-1l-1,2l-1,1v-1l1,-1v-3l1,-1v1h1ZM102,340l-1,1v1l-1,-1l1,-2v-2h1v2ZM92,339v1l-1,-1v-1ZM93,332v2l-1,1v-3ZM97,366v-1ZM101,370l-1,-1v-1h1v1ZM87,394l-1,1v-1ZM100,395v-2h1ZM100,358h-1v-2l1,1ZM98,377l-1,1v-2ZM99,300h-1l1,-1ZM78,363l-1,1v-1ZM95,361v1ZM90,352v-1ZM104,372v-1ZM101,357v-1ZM63,394v-1ZM92,378v1h-1v-1l1,-1ZM278,472v1l-1,-1v-1h-1v-4l-1,-2l-3,-3v-1h-3v-1l-2,-1l-1,-1l-3,-2h-3l1,-1v-1l1,1l2,1v1h2l1,1h1l1,1h1l3,3l6,5v4ZM270,469l1,-1h2l1,1l-1,1v1h1v1l-1,1v1h-1l-1,1v2l1,1l-2,2h-3v1l-3,3h-1l-1,1h-1l-1,1v1h-7l-1,-1h-3l-2,-1l-1,-1h-2l-1,-1v-1l1,-1h10l1,-1l1,-3v-1h1l-1,1v3h5l1,-1h1v-1l1,-1v-1l2,-2h2v-2l-1,-3v-1h2ZM193,518v-5l-1,-2v-10l-1,-2v-12l-1,-2v-22l-1,-1h2l3,1l1,1h2l1,1l3,1h2l1,1h3l2,1l2,2h4v1h1l1,1h1v1l1,1h2l3,3v5l1,1h2l7,3h3l1,1v1h1v1h1v3h-1l-3,1h-1l-1,1v1l1,2l1,1v1l1,1h1v1l2,1l1,1l2,1v1l1,1v2l1,1h1v2l1,1h2l2,-1h1v4l2,1h4v1h-1l-1,1l1,1v1h3v1h5l-1,1h-2v1h1v1l-1,1h-2l-1,-1h-1l-1,-1h-2l-1,-1h-11l-1,-1h-1l-1,-1v-1l-1,-1h-1l-3,-3v-1h-1l-1,-1l-1,-2l-1,-1l-1,-2h-1v-2h-1v-1h-5l-1,-1h-3v-2l-1,1v-1h-2v1h-1v1h-3v-1h-1v-1h-1l1,1l2,3h-1v1l-1,-1h-1v2h1l-2,1h-1l-1,1h-5v-1h-1h1v1l1,1v-1h2l2,1l2,2v2l-1,1h-1l-1,2l-1,1h-1l-1,-1h-3l-2,1h-1l-1,-1l-1,1h-1Z"/>
<path class="sl" d="M241,484h-1l-1,-1v-1l2,1ZM226,476l-1,1v-2h1ZM275,458v1v-1h-1l1,-1ZM271,457l-1,-1h1ZM253,446h-2v-1h1ZM266,519h1v-1h1v2h-3v-2l-1,-1v-1v1h1l1,1ZM260,515l-1,-1v-2l2,2ZM266,508h-1v-3h1v1ZM292,529h-1l-1,-1h1ZM211,511h-1l-1,-1h1ZM234,482l-1,-1v-1h2v1ZM233,452h1v1h-1l-1,1l-2,-1v1h-1v-2h2ZM258,455l-1,1l-1,-1h-1v-1h-1l1,-1h1l2,1ZM262,513l1,1h1v1h1v1h-4l1,-1l-1,-1v-1ZM277,509h3v2h-1v-1h-1ZM286,530h1l1,1h-3v-1l-1,1l1,-1h-1v-1h-1h1ZM211,512h-1l-1,-1h1ZM239,454h-1v-1ZM270,456v-1ZM283,466v-1ZM302,487v1h-1v1h-1l-1,-1h-2v-1l-1,-1v-2h-1v-1l-1,-1h-1v-1l-1,-1v-3h1l1,1h1l1,1v1l1,1l1,2h2v1h1l1,1v1ZM291,477v-4h1v3ZM128,422h-1ZM151,382h-1v-2h1v-1v2ZM186,151v-1ZM459,768h1l1,-1h1l1,-1h1v-1v2l-1,1h1v-1l1,-1h-1h2v1h-1v1l1,-1h1l-2,2v1h1l-1,1h2l-2,2v1h-1v1l-1,2h-1l-1,2v1l-2,2h-1v1h-1h1v1h-2h2v1h2v2h-1l-1,-1l-1,1h-1l1,-1h-1v1h-1l-1,-1v1h1l-1,1h-2v1h-2v1h-1h1l-1,2v2l-1,1h1l-1,1v3l-1,1l1,1h-1l-1,1h-1v1h-1l-1,2l-1,1l-2,1h-2l-1,-1h-1v1h-2v-1l-1,-1h-2l-1,-1h-2l-2,1l-1,-1h-1l1,-1h-1v-1l-1,1h-1v-1l2,-1h1h-1v-1h1h-2v-1h1v-1h1v1v-1h1h-1l-1,-1l1,-1h1h-1l1,-1h1v-1l1,-1h1v-2l2,-2h1l1,-1h2v-1l1,1v-1l1,-1h1l1,-1h1v-1h1v-1h1v-1h1h-1l1,-1h1v1v-1h1v-1l1,-1v1h1v-1h-1l1,-2h1v-4l1,-1h1v-1h1v-1l1,-1v-3l1,-2l2,-2h2l-1,1v1l1,1h1v2ZM464,765h-1v-1h1ZM423,800v1h-1v-1ZM424,797l1,1h-1ZM433,809h1v1h-1l-1,1h-1l-1,-1h1v-3h1ZM473,730h-2v-1h1v-1v1h1ZM456,720h1v-1v1h2l1,1v-1l1,1h1v1l1,1v-1h1v1h1v2l1,1h-1v1l1,1v1l2,1l-1,1v1l1,1l-1,1l1,1h3v1h1v1h1v-4h-1v-1h1l1,2h1v1l1,2v2l2,2l3,1h1l3,1h2v-1h1v-1h1l1,-1h3l1,1l-1,1v4l-1,1v1h-1l-1,1v3h-1l-1,-1h-2v1h-2v1l-1,1v1h1l1,1l-1,2l-2,2l-1,2v1h-1v1l-2,2v1l-2,2l-2,1h-1l-1,-1h-2v-1h-1v-1l2,-2l1,-2v-4l-1,-1l-2,-1h-1l-1,-1h-1l-1,-1h-2l-1,-1v-2l2,-1h2v-1h1v-2l1,-1v-3l1,-1h-1l1,-1l-1,-1v-3h-1l-1,-2h1l1,1v-1h1l-1,-1h-1v1l-1,-1h-1v-1l-2,-2h1l1,1v-2l-1,-1h1l-1,-1v1l-2,-1v-1l-1,-1v1l2,2v1h-1v-2l-5,-5h1l1,-1h-1l-1,1v-1h-1v-1h-1l1,-1v-1h-1l-1,-1l-1,-2l-1,-1h2v2l1,1h1ZM446,845v1h-1ZM428,835h-2l1,-1v-1h1v1ZM528,786h-1l-1,1l1,-1h-1v1l1,1h-2v-1h1h-1v-1h-1h1ZM528,790h-1v-1h1ZM581,505h-1ZM588,590h-1l1,-1h1ZM666,612h-1v-1h1Z"/>
<path class="sl" d="M947,298v1v-1l-1,-1h1ZM944,316l-1,-1h1ZM926,267v1v-1h-1v-1ZM904,234h-1l-1,-2l-2,-2h1v1h1v1h1v2ZM901,239h-1v-2l1,1ZM907,236v1l-1,-1l-1,-2h1v1ZM888,230l-2,-2h1v1ZM931,275l-1,-1v-1l1,1ZM921,259v1ZM925,271l-2,-2h1ZM923,269v-1l-2,-2l-1,-3l1,1l1,2v2h1ZM12,430v-1h1v1v-1v5l1,-1v1v-2h1v-2l1,2v4l1,5l-1,2v18l1,4v3h-1h1l-1,-1v1l-1,2v-2l-1,-1v-1l-1,-1v-1l-1,-2v-2h-1v-2l1,-1v-1l-1,-2v-17l1,-1v-5ZM60,428l-1,-1h-3v1h-2l-1,1v2l-1,1v7l-2,2v4l-1,1v2h-1l1,1v1l-1,1v3h-1v1v-1l-1,1h-1v2h-1v1v-1h-2v-1h-2v1h-1v3l-1,1v1h-3v1l-1,1v1h-1v-1l-1,-2v-1l-1,-1v-3l1,1h1l1,1h1v-1v1h1h-1v-2h1v-7l1,1v-4l2,-2l3,-2v-1l1,-1v-1l1,-2v-2l1,-2l1,-3l1,-1v-1h1v3h1v-1l1,-1h-1l1,-1v-4l1,-1v5h1l-1,-1l1,-2l-1,-1v-1h1v-1h1v-5h1l1,-1v-2l1,-1v-1l2,-4v-1l1,-3v2l1,-1v-1l1,-1v3h1v5l-1,1l2,-1v-1l1,1v1h-1v1l1,-1h1v1h1l1,1h1v2l-3,3l-1,-1v1l-1,1l1,1l1,2v1h-1l-1,1h-2l-1,1ZM17,457v-1ZM11,440v-1ZM11,430v1ZM61,403v-2h1l-1,1ZM11,458v1ZM37,450h-1l1,-2v-1v2ZM62,427h-1v1v-1ZM444,396l-1,1v-1ZM443,397h-1ZM444,407v-1ZM444,408h1ZM444,414l1,1l-1,1l1,-1l-1,-1v1ZM457,430v-2h-1h1v1ZM460,433v1h-1v-1ZM445,412h-1v-1h1ZM573,462v1l-1,-1ZM553,464v-1h-1h1ZM716,466l-1,-1h1ZM736,531v1ZM697,413l2,1h-1l-1,-1l-2,-1h1v1l1,-1l-1,-1l1,1ZM681,394v1h-1v-1ZM577,447v1h1h-1h1h-1v-1v1ZM210,165h-1v-1h1ZM241,151h-1l1,-1v-1h1l1,-1l-1,1h1l-1,1ZM211,176l-1,1h-1v-1h1l1,-1ZM175,207h-1v-1h2ZM177,206l1,-1v-1l1,-1v1l-1,1ZM179,194v-1l1,-1h1l-1,1ZM182,182l1,-1ZM184,180l-1,1v-1l2,-2v1ZM174,191h1v1l-1,1v-1ZM181,192h1ZM282,106v-1ZM282,107v-1l1,1ZM262,125v-1h1ZM208,175v1v-1h-1h2ZM177,191h-1l1,-1ZM180,188h-1h1v-1h1h-1ZM183,184v-1h1ZM198,179h-1ZM196,180v1l1,-1v1h-1ZM175,198h1v-1ZM230,224h-1v-1h1ZM291,111h3v1l1,-1h1l4,-2h-1l-1,1l-1,2h-1v3h1l1,-1h1h-1l-1,1h-1l-1,1h-2l-1,1h-3l-1,1l-2,1h-1l-2,2h-1v1l-1,1h-2l-1,-1l-2,-1h-3l-3,1v-1h-1v1h-2v2h1l1,1v1h-3l-2,2h-2l2,-2v-1h1v-1h-1l2,-2v-1h1l1,-1h1l1,-1v-1h1v-1h1l1,1h2v-1h1v-1h1v-1l2,-2h1l1,-2l3,-3v-2h1v-1h2l1,1v2l1,1v1h2ZM189,184h1l1,-1h1v1l-2,2h1l1,-1l-1,1v2l-6,6v1l-1,1v1l-2,1h-1v2l-2,1l-1,1v-1h1v-1l1,-1v-1l1,-1h-1l-1,1v1h-1l1,1h-1v1l-1,-1v-1h1v-3h1v-1l1,-1h1v-1l2,-2v-1l1,-1h-1l1,-1l-1,-1v1h-1v1h1v1h-1v1h-1v-1l-1,1h-1v1v-1h1v-1h1v-2l-1,-1h2v-1h1l1,-1h1v-1h1v-1h1l1,-1h1v1Z"/>
<path class="sl" d="M208,177h1l-1,1v1l-1,1l-2,1v1h-1v1l-1,1v-2h-2l-2,2h-1l-1,2h-1v1l-1,1h-1v-1h-1h1v-2h1l-1,-1h1h-1l-1,1v-1h1l2,-2h1l1,-1v-1h1l1,-1v1l1,-1h2v-1l1,-1h1l1,-1h1ZM268,128h1l-1,1l-1,2v6h-1v1l-2,2v1h-1v1h-2v1l-1,1v1h-1l-1,1h-1l-2,1v1l-1,1v2l-2,3l-1,1h-1v1l-3,3v3l-1,1h-1l-2,2v1h-1l-1,1h-1v1h-1v-1l1,-1h1v-1h1v-2l-1,1h-1v1h-1v2h-1v-1h-1l-2,2v1h-1v1h-1v1h-1l1,-2l1,-1h-2v1h-1l-1,1v1l-1,1l-1,-1h-1v1h-3l-1,1v-1h1v-1h-1v1h-1v-1h1v-1h-1l-1,2h-1v1h1v1l-1,1h-1l-2,1l-2,3l-2,1l-1,1h-1v-2l-1,-1h1v-2h1l2,-2v-1h-1l-1,1l-1,-1h-1l-1,1h-1l-1,1h-1v1h-2l-1,1h-2l-1,1h-2l-3,3l-1,-1l-2,1h-3l3,-3h2v-1h1l1,-1h1l1,-1v-1h1l2,-2l2,-1v-1h2l1,-1h1v1l1,-1h2l1,-1h2l4,-2v2h2v-1h1l1,-1h1v-2l1,-1h1v-1h1l4,-4l1,-2l1,-1h1l1,-1h1l-2,1v1h-1v1l-1,1h2l1,-1l3,-1l1,-1h1l2,-1l3,-3v-1l3,-1h1v-1l9,-9v-2l-1,1v-1h1l2,-2v-1l2,-2h1v-1h1l1,-1v-1h1v2h2v-1h1v-1h1h-3l2,-2h1ZM127,255l-1,1v-1l1,-1ZM124,257h-1h1v-1h1v1ZM133,252h-1v-1h1l-1,1ZM152,235h-1v1l-1,1h-1v1h-1v2h-1v-1h1v-1l2,-2v-1h1l2,-2v1h-1ZM159,227h-1l1,-1v-1v1ZM163,223h-2l1,-1h1v-1h1l1,-1v1h-1l-1,1ZM162,223v1h-1v-1ZM233,181v-1ZM5,477v2l1,1v1l-1,2v1v-8ZM7,502v-2l1,1v1ZM60,539v2h1l-1,1h-2v-5l1,-1h1l1,1ZM55,536l1,1v1h1l-1,1l-1,2v1v-1h-1v-1h-1v-1h-1v-2h2v-1ZM21,492v2l1,3v2h1v4h-1v-1h-1v-5h-1v-1v1h-1v-2l1,-1l-1,-1h1v-1v-1h1ZM86,496v2h-1v4h1v2h-1v2h-1v1l-1,-1v-1l1,-1v-8l1,-1ZM84,503l-1,1h-1v-5l1,-1v-1l1,1v2l-1,2ZM28,443v1l-1,-1h1v-1h-1v-1l1,-2v3ZM27,501v1h-1v1v-2h-1h1v-3h1v1ZM153,450h3l1,1v1l1,1h1l-1,1h-3v-3l-1,1l-1,-1ZM153,458h9l-1,1l-2,1h-1l-1,-1h-4ZM125,449h1l2,1v2h-1v-1l-1,1l-1,-1v2l-1,-1v-1v1h-1v-1l-1,1v-2h1l1,-1ZM112,434h-1v-4l1,-1h1v3l-1,1ZM110,466h-1l-1,1h-2v-2l1,-1h2v1h1ZM99,475v-2h-1v-2h1v3ZM99,469h1v1h-2l-2,1v-1h1ZM93,470h1v-1l1,1v1h-1v1l-1,-1l-2,2l-1,-1v-2h1l1,-1ZM132,518h-2v-4l1,-1v-1l1,-1v-1h1v5h-1v2ZM106,519v1l-1,1v1h-3v1h-1v-1l1,-2h2v-1h1ZM95,526h3v1l-3,2v-2ZM126,460h-1v-1l-1,-1v-1l1,-1l1,1v-1l1,1l-1,2ZM6,445v-1l1,1v-1v9h1v3l1,2v6l1,1v1v-1h1v4h1v4l1,1v2h1v4l-1,1l1,-1v-2l1,-1v1l1,1v1l-1,1v7l1,1h1v5l1,2v6l1,-2v-1h1v1l2,5v1l-1,1v3l1,1v10l1,7h-1v-1h-1v1l-1,-1v3l-1,-1v-2h-1v-2l-1,-1v-1l-1,-1v-1l-1,-1l-1,-2v-1l-1,-2v-2l-1,-1v-3l-1,-1v-3l-1,-1v-3l-1,-6v-5l-1,-1v-4h-1v-14l-1,-2v-5l-1,-1v-18Z"/>
<path class="sl" d="M87,532l-1,1h-1l-3,3v-1h-1v1h-1l-1,1l-1,-1h-3v1h-1v-3l1,-1v-1h1v-1h1v1h3l1,1l1,-1h1v-1v1h1l1,1v-1h1v-2h1v-3l1,1v2l-1,1ZM75,542h1l1,1v1l1,-1v1l2,2v1l-2,2h-1v-1l-3,-3v1h-2v-1h-1v-2h1v-1h3v-1ZM67,535v-1h1l1,1v-1h1v2h1v1h-2v1h1h-1l-1,1v-2l-1,2h-1v1h-1l-1,1v1h-1v1h-1v-1h-1v-4h1v-2l1,1v-1h1v1h1v1h1l1,-1v-1h-1l-2,-2l1,-1h1v1ZM93,446l-1,2v1l-1,1v2h-1l-1,1l-2,1h-2l-1,-1h-1l-3,1h-1l-1,1h-2l-2,1l-1,-1h-1v1h-1v1l-1,1v8l1,2h1v3l1,1v-1h1v1l1,-1v-2l1,-2l1,-1l1,1l1,-1v-1h1l1,-1h2v-1l1,-1h1l1,1l-1,2v1l-1,-1h-1v1l-1,1v1l-1,1l-1,2v1l-2,1v2h-2v1l2,2v1l1,1v1l2,2v7h1v1l1,1v1l1,-1v3h-1v1h-1l-2,2v1l1,1h-3v-6l-1,-1l-2,-3h-1v-1l1,-2v-4h-1v-1l-2,2v1l-1,1v1h1v8l1,3v10h1h-2v1h-1v1h-1l-1,-1v-13l-1,-2v-3l-1,1h-1l-1,-1v-7l1,-1v-3l1,-1v-10l1,-2h1v1v-3l-1,-3v-1h1v-4l1,-1v-2l1,-1v-1v1h1v-1h1v-2l1,-1v-1h2v1h1v1l1,-1h4l1,1v-1h5l2,-2l1,-2v-2h1l1,-1v-1l1,-1v1l1,1l-1,1v2ZM27,528v1h3v1h1v3h2l1,-1l1,1l1,-1h1v-5h1l1,2l1,-1v1h2v1l1,-1h1v3h1v2l1,1h3v-1h2v5h1v2l1,1v1h-1v-1h-2l-1,-1l-2,-1v1h-1v1h-2l-2,1l-1,-1l-1,1l-1,-1l-3,-1v-1h-2l-1,1v-1l-1,1v1h-3v-1h-3v-3l-1,-1h-1l-1,1h-1v-2h1v1v-8h3v-1ZM31,456v4l1,1v1l1,2v1h1v-1l1,-1v-1h3v-1l1,-1v-3h1v-1h2v1h2v1v-1h1v-2h1l1,-1v1v-1h1v-3l1,-1v-1l-1,-1h1v-2l1,-1v-4l2,-2v-7l1,-1v-2l1,-1h2v-1h3l1,1v2l1,1v1h-1v-1v1l-1,1h-1l1,1v2l1,1v2l1,1v2l1,1l-1,1v1l-1,1h1v2l3,3l1,2v1l-1,1h-3v-1v2h-1v1l-1,4v9l-1,1v2l-1,1v1h-1v-1v2l-1,1v2l-1,1h1v3h-1l1,1v7h-1v-1v1l1,1h-1v4l-5,7v-4l-1,-2v-1v1h-1v-1v1v-1h-1v1l-1,1v-2h-1v1l-2,-3v4l-1,1h-1l-1,2v-2l-1,-2v-1l-1,1v-1v1l-1,1h-1v-1v1l-1,-1v1h-1v-8l-1,-1v-7h-1v-1h-1v-2l-1,-1v-3l1,-1v-1h-1v-12l1,-1v-3ZM108,445h1v-2l1,-1v-2l3,-3v5l-2,2v2h2v2h1v1l-2,-1h-3v6l2,4l1,1h-1l-1,-1h-1v-3h-1v-1l-1,-1v-2l1,-1l-1,-1v-5l-1,-2l1,-2v-4l1,-1l1,-2h1l-1,2v7l-2,1v1ZM119,475h4l1,1v1l2,2v3l-2,-1h-1v-1h-2v-1h-3v1h-1l-1,-1h-2v1l-1,1h-1l-1,-2h-1v3h-1v-2l1,-3l1,-1h3l1,-1l1,1l2,-2ZM104,480h1v1l1,1v2h-1l-1,1v1h-2v-1h-2v-2h-1v-2h1l1,-1h1l1,-1ZM98,532v1h1v1l-1,1h1v4l-1,1v2l-4,4h-1v-8l1,-1h1l1,-1v-1l2,-2ZM150,494v2l1,1v2h-1v1h-2v-1l-1,-1v-1h1v-1l-1,-1h1v-2h1v-1l1,1ZM149,501v3l-1,1h-1v-6l1,1Z"/>
<path class="sl" d="M176,513l-1,2h-4v-4l1,-3l2,-2l2,-1h1l1,1v1l1,1l-1,1v2l-1,1ZM189,462l1,1v22l1,2v12l1,2v10l1,2v5l-7,-7v-1h-1l-1,1h-1l-1,1h-1v-2l-1,1v1l-1,1h-1v-2l1,-1v-4h-1v-1l-1,-1h2l1,-1h-4v-2h1v-1h-1v-2l-2,-2v-1l-1,-2v-1h-1l1,-1h-2v-2l-1,-1h-1l-3,-2v-1v1h-1v-1h-3l-2,-1h-1l-1,-1h-6l-3,-3v-1h1h-2v1v-1h-1l-1,1v-2h-1v1l-2,-2v-4h-1v4l-1,1v2l-1,2h-2v-1l-1,-1v-1l1,-2l-1,-1v-1l-1,-1l-2,-1h-1l-1,-1l1,-1h1v-1l2,1h1l1,-1v-2h1v-1l1,1h2v1v-1l2,-2h-1v-1h1v-1l-2,1h-2l-1,1h-4v1h-1l-1,-1v-1h-1v-4h-2l-2,-1v1h-2v-1l1,-1v-1l1,-1v-1l1,-1l2,-1v-1h1v-1l2,-2h3l2,2h5l1,1h-1v1l1,1v1l1,1l-1,1v7l2,3v1v-2h1v1l1,2h1v3h1v1h2l1,-1v-1h1l1,-2v-1l1,-1v-1l1,-1v-1l1,-1v-1l2,-1h1l2,-2v-2l1,-1l2,-1l1,-1h1l1,1l4,1l1,1h1l1,1h1l1,1l2,1h1l2,-1v1h4v1ZM179,514h-3v-1h1v-1h1l1,1ZM12,466v2l-1,1v-3l1,-1ZM13,474v-1ZM13,470v1v-1h-1v-1h1ZM14,475v1v-1h-1v-2l1,1ZM14,474v-1h-1l1,-1v1ZM15,477h-1v-1l1,-1v1ZM15,475v1v-2ZM16,470v1l1,-1v1h-1v1v-1ZM18,469v3l-1,1v-3ZM18,481v1v-1l-1,1v-2h1ZM17,483v1ZM16,484h-1v-1h1ZM31,483v1h-1v-2h1ZM48,529v1h-1v1h-2l-1,-1l1,-1v-1l4,-1v1ZM150,454v1l-1,-1v-1h1ZM105,457h-1v-2h1v1ZM107,455v3h1l1,1h-1v1l-1,-1h-1v-1l-1,-1v-1h1v-1v1v-1ZM139,498v-2l1,-1v-2v2l-1,1ZM139,497l-1,1v-1l-1,-1l1,-1v1ZM111,483v1v-1l-1,1v-1h1v-1h1ZM104,418v1h-1v-1l1,-1v-1h-1v-1l1,-1v3ZM97,425v-1ZM129,521v-1l1,-1h1l-1,1h-1ZM123,519l-1,1v-3h1v1ZM112,522h2l-1,1h-1ZM122,464h1v2h-1v1h-2l-1,-1l2,-2ZM15,530l-1,-1v-1l1,1ZM10,513v1v-3l-1,-1v-1l1,2v1ZM9,509v1v-3ZM9,506h-1v-1ZM6,492v1v-2ZM4,470v-1ZM81,505v1l-1,-1v-2h1ZM85,467v1l1,-1v3h-1v1h-1v-1h1l-1,-2v2l-1,1v-4h1ZM78,462v1h-1ZM75,514l-1,2v-4ZM54,526v1l-1,-1l1,-1ZM55,498l-1,2v-6l1,-1v4ZM91,551l-1,1v-2h1v-1l1,-1v-1v1l1,1h-1v1ZM94,528v2h-1v-1h-1l2,-2ZM92,528l-1,1v2l-1,-1v1h-1l1,-1v-2h1v-1h1ZM89,529l-1,1v-2h1ZM151,502h-1v-1h1ZM15,472v1ZM16,474v-1ZM17,473h-1v-1ZM18,479h-1v-1ZM22,450v1ZM21,454v-1ZM29,449v1v-2ZM29,488v1v-2ZM25,501v-1ZM24,503h-1v-1h1ZM50,529v-1ZM43,520v-1ZM22,536v-1ZM5,471v1v-2ZM5,442v-1ZM87,471h-1v-1ZM86,492l-1,2v-1l-1,-1h1l1,-1ZM84,473v-1ZM72,537v-1ZM70,533v-1ZM57,542l-1,-1h1ZM61,428v-1h1v1l-1,1Z"/>
<path class="sl" d="M60,435v-1ZM91,508l-1,-1h1ZM88,502v1ZM64,536v-1h-1v-1h1ZM55,495v-1ZM106,446h-1v-1h1ZM146,464v-1h1ZM142,483h1h-1l-1,-1h1ZM126,455l-1,1l-2,1v-1h2v-1ZM124,454l-1,-1h1ZM118,452l-2,-2l2,1ZM106,452v1v-2ZM106,447v-1ZM105,459v-1ZM114,482h-1v-1h1ZM113,482l-1,1v-1ZM103,420v-1ZM104,421v-1h-1h1ZM96,432v-1ZM135,510h-2v-1h1ZM116,513h-1v-1h1ZM110,518l-1,1v-2h1ZM92,546v-1ZM85,550h-1l1,-1v-1l1,1ZM151,501v-1h1ZM151,503l-1,1v-1l1,-1ZM110,477l-1,1v-1ZM108,481h-1v-1ZM88,531v1v-2h1ZM5,435v-1ZM6,431l-1,1v-1ZM6,424v-1ZM6,427v-1ZM6,425v1v-2ZM7,417v-1ZM9,405v1v-2h1v-1l-1,1ZM11,398v-1ZM11,397v-3h1v-4l1,-2v-3l1,-1v-3l1,-1v1h-1v4h-1v4l-1,2v3l-1,1v1ZM12,392v1ZM13,386v-1h1ZM538,539h-1v-1h1ZM521,547h-1v-1l1,1h1ZM733,577v-1ZM744,585v1h-1v-1ZM733,579v-1l1,1ZM747,587l1,1v1l-1,-1v-1h-2v-1l1,-1l1,1ZM827,526l1,1h-2ZM827,528l-1,1v-1ZM829,534h-1v-1h1ZM821,518h-1v-1h1ZM820,523v-1h1ZM805,595h-1l1,-1l-1,1ZM824,519v-1v1h1ZM804,599v1ZM804,598l-1,-1v-1v1h1ZM831,605v-1h-1h1ZM813,622v-1ZM796,578h1ZM789,582l1,1ZM780,574l-1,1v-2ZM776,578v-1h-1v-1l1,1ZM377,601h2l1,1l3,2l2,1h1v1h1v2h2v1h1l1,1h1l1,1l2,1l3,3h1l2,2l-1,1h-1l-2,-1h-1l-1,-1h-1l-2,-2h-1l-1,-1h-1l-1,-1h-1l-1,-1l-2,-1h-1v-1l-3,-3h-1v-1l-2,-2v-1l-1,-1v-1ZM405,620h-1v-1ZM343,594v1l-1,-2h1ZM408,610h1v1l-1,1v-1h-1l-1,-1l1,-1h1ZM396,604h-1l1,-1v-1h1h-1v1ZM403,608l-1,-1h-1l-1,-1l1,-1v-1h-1h2v1l1,1v1ZM1000,506v-1Z"/>
<path class="sp" d="M1000,505v1"/>
<path class="sl" d="M1000,503v-1ZM1000,512v-1Z"/>
<path class="sp" d="M1000,511v0"/>
<path class="sl" d="M1000,499v2v-3ZM1000,503v-1ZM101,261v1ZM140,207l-1,-1v-1h1v1ZM136,217h-1v-1h2ZM135,219h-1l1,-1ZM136,217v1v-1h1ZM111,252l-1,1v-1h1v-1ZM64,296v1l1,-1v1h-1ZM125,231v1v-1h1ZM79,279v1ZM73,290v-1h1v-1v1ZM73,289v1h-1ZM63,304v1l-1,1v2h-1l-1,2v1l-1,1v1l-1,1v2h-1v1h-1v1h-1v2h-2v-4l1,-3h1v-1l1,-1v-1l1,-1v-1h1v-1h1v-1h1v-1h2v-1ZM77,284h1ZM80,281h1v-1v2h-2ZM79,283v1v-1l1,-1ZM718,69v1h2l1,1h-1l1,1v-1l-1,-1h1v1h1v1h1l1,1l-1,1v-1h-1l-1,-1h-1l-1,-1h-1v-1h-1l-1,-1h1ZM725,74h1l1,1h-1h1v1h2v1h1l1,1h1l1,1l-1,-1h-2v-1h-1l-2,-1h-1v-1h-1l-1,-1h-1h1ZM755,89l2,1h2l1,1h2v1l4,2l3,3h1l2,1h1l2,2h1l1,1h1v1l1,1l-4,-2h-1l-1,-1h-1l-1,-1v-1h-1h1h-3l-1,-1h1h-1l-1,-1v1v-1h-1l-1,-1v1v-1h-1h1h-1l-1,-1h1h-2l-2,-2v1v-1h-1l-1,-1v1v-1h-2v-1h-1l-1,-1h1l1,1l-1,-1h-2l-1,-1h-1v-1h1l1,1ZM661,27l-1,-1h-2l-1,-1h-2l-1,-1h-1h1l1,1h2l1,1h2ZM648,22l-3,-1h-1h1l1,1h2l1,1ZM638,20v-1Z"/>
<path class="sp" d="M653,24h1l1,1h2l1,1h2l1,1M644,21h1l1,1h2l1,1M638,19v1"/>
<path class="sl" d="M633,18h1l1,1h1h-1l-1,-1h-3l-2,-1h-2v-1h-4v-1h-3l-1,-1h-4v-1h-1h1l1,1h3l1,1h3l1,1h3l1,1h3l1,1Z"/>
<path class="sp" d="M612,13h3l1,1h3l1,1h3l1,1h3l1,1h3l1,1h1"/>
<path class="sl" d="M721,69v-1ZM734,80l-1,-1h1ZM727,72h-1l-1,-1l1,1h-1v-1h1ZM732,75l-2,-1h-1l-1,-1h1l1,1ZM721,68v-1ZM738,77l1,2h1l1,1h-1v-1h-1l-1,-1h-1l-1,-1h-1v-1l-1,-1l1,1h1ZM765,96h1ZM770,96l1,1l-2,-1v-1h-1l1,1ZM762,94h-1l-1,-1h1v1ZM764,93l-2,-1v-1l1,1h1ZM739,79l-1,-1h-2v-1l2,1ZM748,84h-1l-1,-1l1,1ZM741,80v-1h-1l-1,-1h1l1,1ZM735,76h-2v-1l1,1ZM735,76h-1v-1h-1h1ZM777,101l-1,-1ZM776,100l-1,-1h-1ZM765,93h-1v-1v1ZM616,17h-1ZM23,385v1v-1h1ZM23,390v-1ZM15,395v1v-2ZM13,403v1v-2h1h-1ZM16,390v-1ZM17,386v-1ZM17,387l-1,2v-1ZM18,380v3h-1l1,-2ZM17,385v-1ZM21,358v-1l1,-1v-1v1l-1,1ZM25,351v-1ZM28,336v-1ZM31,327v1v-2ZM30,329v2h-1h1v-1ZM15,394l1,-1ZM16,388v-1ZM17,383v1ZM19,376v1ZM21,358v1v-2ZM31,327v1v-2ZM51,424v1l1,1l-1,2l1,1h-1v-4ZM51,424l-1,1v4l-1,1h1l-1,1v1h-1v-3h-1v-1h1v-1h1v-1l1,-1v-1l1,-1ZM211,541v4h1v1l1,1v1l1,1v2l1,2v3l1,1v1l1,2l1,1v1h2l1,-1v-1h1l2,2l2,1l2,2h1v3l1,1v3l1,1l1,2v3l1,1v1l2,2h1v1l2,3v2l1,3v2l1,2l1,1v2l2,2h1l1,1h2l1,1h3v1l2,2h1v1h2l2,1h1l3,3v1l-1,-1v1l1,2h1l1,1l1,2l1,1l1,2h1v2l2,4l1,1h1l1,1l-1,-2l1,-1l2,2h1l1,1v-2l2,2v3l2,4v1h1l1,1v1h1l2,2h3v1l5,5h1v2l1,1h1l2,2v2l2,2v3l2,5v2l3,5v1l2,2l1,3v4l-1,2l1,2v11l1,2v5l-1,3v3l-1,1v1h-1h1h-1l-1,1v1l-1,1v2h-1v7l-1,1v5l1,1h-1l1,1h-1v3l-1,1v4l1,2v3l1,2v1l1,1v1l-2,2v1h-3l-4,1h-1l-3,3l-2,4h-4l2,2v-1l1,1v1h-1l-2,-2v1h-1v-1l-1,-1h-3v-1l1,-1h-1v-1h-1v2l-1,1l-2,-2v1l1,-1v-2l-1,-1h-1l-1,2h-1h1l1,1h-1v1l-1,1l-1,2h-1v1l-2,-1h-1l-2,-1h-2l-1,-1l-1,1l-2,-1h-1v1h-1l-2,-2h-4l-3,-3l-3,-2l-2,-2v-3l-6,-6l-2,-1h-1v-1l1,1v-1h1v1v-2h-2v1h-1l-1,1h-2v-4l-1,-2l-1,-1l-1,-2l-2,-2v3l1,2v3h-1l-1,1h-2v-2h2l-1,-2v-2l-1,-1v-1l-1,-3l1,-1v-2l-2,-2h1v-1l-2,-2v-1l-1,-1v1l1,1v1l-1,1v6h-1v1h-1v1h-1v7l1,1l-1,-1v1h-1l-1,-1h-1v-1h-1l-1,-1h1l1,1v-1l-2,-2v-1l-1,-1l-2,-1l-1,-1l-1,-2v-1h-1l-1,-1h-2l-1,-1l-1,-2h1h-1v-1l-2,-1l-1,-1h-1l-1,-1v1h-1l-4,-2l-1,1h-1l-6,-3h-1l-1,1h-1l-3,1l-2,1h-2l-5,5l-2,1l-1,1h-4l-1,1v2h-1v1l-1,3h-1l-1,1v4l1,1v2l-1,1h-3l-2,1h-3l-2,1h-1v1h-1l-1,1h-1v1l1,2l-1,1h-1v5h-1v1h-6l-1,-1l-2,-1l-1,-1l-2,-1v1l-2,-2l-2,-4h1v1l1,-1v-1l-1,-1v-1l-1,-2l-2,-2v-2l-3,-4v-2l-3,-2l-2,-3l-1,-1l-1,-2l-2,-2v-2l-2,-2v-2h-1l-1,-2l-3,-3v-1l-1,-1l-1,-2l-2,-1v-1l-2,-3l-1,-2l-3,-3l-2,-3l-1,-2h-1h1v-1v1l1,2l1,1h1v-1l-1,-2h-1l-1,-1l-1,-2l-1,-1v-1h1v1l1,1v1h1v1v-1l1,2l1,1v-1l-1,-2v-2l-2,-2l-2,-3l-1,-1l-1,-2l-2,-2v-2l-1,-1v-2l-1,-1v-4l-1,-1v-2l-2,-2v-3l-1,-3v-1h1v3l1,1v1h1v-2l-1,-3v-1l1,-1v-1l1,-2v-2l1,-1v-1l1,-3v-1h1l1,-1l1,1l1,-1v-1l1,-1v-1l2,-2l1,-2h2v-1l2,-1l1,-1l1,-2h1v-2l1,-1v-9l1,-2v-1l-1,-1v-2l-1,-1v-6h1v-4l1,2l2,2l1,3h1v1v-3h1v-2l-1,-1v1v-1l-2,-2v-3l1,1h1v-1l1,1h2v-1l1,1v-1h-2v-3l-1,-1v-1l-1,-1v-1h1v-2h1l1,1v-1h-1v-3l1,1h1v-1h-1v-4h1v-2h1v1h1v1v-5h1v1v-1l1,-1v1l1,1v-4h2l1,1h1v1l1,1h1l1,2l2,2v5h1v-2l-1,-1h1v-2h4l1,1v-1h1l1,1v1v-3h1l-1,-1h-1l1,-1h-1v-1h-1v-2l1,-2v-5h1l1,-1v-1l-1,-1v-1l1,-1v-2h1v-3l1,1v-2h1v-1h1v-1v1h5v-1h1l1,1v-2h1v-2l-1,-1v-1l-1,-1h-2l-1,-1h-1v-1l1,-1v1h1v-1h1l1,1l1,2l1,-1v-1h1v1l1,1v1h5l1,1h2v1h1l1,-1h1v1h2l1,-1h1l1,-1v-1l1,-1v2l-1,1v1h1v-1h1l1,2h1v-2l1,-2l2,2h1v1l-2,4l1,1v1l-1,2l-1,-1v1h-1l-1,1l1,3v5l-1,1v2l-1,1v2h1v1l2,1l1,1l2,1v1h1l1,1h2v1h2v1h1l1,1h1l2,1l3,3h1l2,1v-1l2,1h1l1,1v1l1,2h1l4,2h2l2,-1l1,-1v-1l1,-2l1,-6v-15l-1,-3v-3l-2,-2l1,-3v-2l-1,-3l1,-1v-1h1v1v-2h-1v-1h-1v-1l1,-3v-1v1h1v-1h-1l1,-3v-6h1v-1l1,-1h1l-1,1l2,1v1l1,1v4l1,1v1h1Z"/>
<path class="sl" d="M300,652l-1,-1v-3l1,-2v-1l-1,-1h1v1l1,1l-1,4ZM193,584l-1,1h-1v1l-1,-1l1,-1v-1h1l1,-1l1,1ZM171,563v-1h1v1l-1,1v1l1,1h1v1h-4v-4h1v-1h1ZM131,550v1h1l-1,1l-1,-1l-1,1v-5h1v2ZM131,547h2l2,-2v1h1v1h1l-1,1l-2,4l-2,-1l-1,-1l-1,-2v-2ZM89,689l-2,-2l-1,-2l2,2v1h1ZM229,742h2v-1h1l1,1l-1,1l-1,-1l-1,1v1h-3v1h-1l-1,-1h-1v-2l2,-1h3ZM281,756v1h-1v-1ZM281,757v1h-1v-1ZM263,609h-1v-1h1ZM262,608v-1ZM283,634v1h1v1l-2,-1v-1ZM277,625h-1v-1ZM272,624v-1ZM306,666v2ZM305,665v-1ZM203,531v1l-1,-1l1,-1ZM203,527h-1v-1h1ZM202,526v1ZM240,593l1,1v1h-1v-1h-1v-1ZM167,542h-1h1v-3l1,-1v2ZM166,544l-1,1v-1l1,-1ZM176,579v1l-1,-1v-1h1ZM174,578v-1ZM173,578h-1ZM193,589v-1h1ZM168,563h-1v-1h1ZM142,545v-2l1,1ZM107,581v-1ZM106,588h-1v-1h1ZM80,644v-1ZM286,774h2l1,1h2v1h5v-1l1,1v-1h2v-1h1v1v-1h1v-1h3l1,1v1l1,1v1l1,1v2l1,1v1h1v1h-1v-2h-1v3l1,1v2l1,1l1,2h-2v-2h-1v1l-2,-2v1h1v3l-2,-1h1v4l-1,-1h-4v-1h1h-2l-2,-2h-1v-1l-3,-2v-1l-1,-1h1l1,1v-1l-1,-1h-1l-2,-2l-2,-1l-1,-2v-1l-1,-1h-1v-1l-1,-2h1ZM278,770l-1,-1v-1l-1,-1h1l-1,-1h1l1,2l1,1v1ZM300,765l3,3l-1,1h-1v-1l-2,-2v-1ZM307,792l-1,1v-2h1ZM309,786v1v-1h-1ZM307,791l-1,-1v-1l1,1ZM284,772v1ZM303,769h1v1h-2v-1ZM303,771v-1ZM399,861v1l-1,-1v-1h1ZM28,569v-1ZM15,594v1ZM15,594v1ZM413,673v1ZM681,961v-1h1h-1ZM636,981h-1l-1,1h-2l-1,1v-1l-1,1h-2l-2,1h-1h2v-1v1h-3l-1,1h-3l-1,1h-4v1h-1l1,-1h1h-1l-1,1v-1l-1,1h-5l4,-2h-3l-2,1h-2v1h-3v1h-3l1,-1h2l1,-1h1v-1v1l-3,1h-3l-1,1h-2v-1h1l2,-1h3l1,-1h1h-1l-1,1h-4l-1,1h-3l-1,1h-1h1h-1l-1,1h-3l-1,1h-1v-1h-1l-1,1h-2l-2,1h-3v1h1h-5v1h-5l-1,1h-7v1h-1v-1h-1v1h-4l1,1h-2l-1,1h-3l-2,1h-5l-4,1h-14l-1,1h-44l-1,-1h-15l-1,-1h-10l-1,-1h-9l-1,-1h-6l-1,-1h-7l-1,-1h-5l-1,-1h-5l-1,-1h-4l-1,-1h-5l-1,-1h-4l-1,-1h-3l-1,-1h-4l-1,-1h-3l-1,-1h-3l-1,-1h-3l-1,-1h-3l-1,-1h-2l-1,-1h-4l-1,-1h-2l-1,-1h-2l-1,-1h-2l-1,-1h-3l-1,-1h-2l-1,-1h-2l-1,-1h-2l-1,-1h-2l-1,-1h-2l-1,-1h-2l-1,-1h-2l-1,-1h-2l-1,-1h-1l-1,-1h-2l-1,-1h1l1,1h1l1,1h2l1,1h2l1,1h2v1h3l1,1h1l1,1h2l1,1h1h-1v-1h-1h1l1,1h1l3,1h1l1,1h1l2,1h1l3,1h2l1,1h2l3,1h1l1,1v-1v1l-4,-2h-2l-1,-1h-2l-2,-1h-2l-1,-1h-2l-1,-1h-2l-2,-1h-1l-2,-1h-1l-1,-1h-2l-1,-1h-2l-2,-1h-1h1l-1,-1h-1l-2,-1h-1l-1,-1h-1l-1,-1h-1l-2,-1h-1l-1,-1h-2l-1,-1h-1v-1l-2,-1h-2l-2,-2l-2,-1h-1l-1,-1h-1v-1h-1v-1h-1l-1,-1v-2l-1,-1h-1h1v-1h1l-1,-1h1v-1h-1h2l-1,-1h1l1,1v-1h-1v-1l-2,-2h-1v-1l1,-1l1,1v-1h1l1,1v-1l4,1l1,-1l1,1h5l-1,-2h-1l-1,-1l-2,-1v-1h1v-1h3l3,1l1,1h4l1,1v2l1,1h1v-2h1v-1h2v-1l1,1h1v-2h1v2h1l1,-1v-1h1v-2h1v-1h3v-1h-1v-1h3l2,1l3,1h4l-1,-2l-1,-1v-2h4l1,-1h4l1,1h1v-2h1l2,1h2l2,-1l1,1h15l1,1l1,-1h5l1,1v3h2v-1h1v-1h2l2,1h2v1h1v1h11l1,-1h1l1,1v1h1v-1h4l1,1l1,-1v-1l-1,-1h1l1,1h1l2,1h1l2,1h4l2,1l1,-1h1l1,1h4l1,1h1v1h2l1,1h1l3,3h2l-2,-2v-1h1l2,1h12l1,1h1l1,1h2l3,1l1,1h1v-1l2,2h-2v2h1v1l-1,-1h-3l2,1h1v1l-1,1l-1,-1h-1v1h-3l-1,-1h-1l2,1h2v1h-3l-1,1h1h-1v1h-1v-1h-1v-1h-1v1l3,3h1h-5v1h-1l1,2h-1l1,1h1v1h1v1h1l1,1v2h3v1h1v1h2v1l1,1l1,-1h1l1,1h2v1h-1v-1h-3l-1,1h-3l-1,-1v1l1,1h-1v2h1h-1h1l1,1l-2,1h4v1h1v1h1l2,1h1l1,1h2l-2,1h-1h7v1h3v1h-1h6v1h5l1,1h7l3,1h3l2,1h3l-1,-1h-3v-1h-1h2v-1h-3v-1h-2l-1,-1h-2v-1l1,1h4v1h6v1h2l2,-1h4l1,-1h3l1,-1v-1h1v-1h-2l1,-1h11v-1l1,-1h5l-1,-1h-2v-2h-3l-1,-1h-1v-1h5v-1h-5v-1l2,-2h1v-1v1h7v1h3v1h1v1h1l1,-1h2v-1h1l1,1h4v-1h1v-2h-4v-1h4l1,1h2v-1h4l1,-1h5v1h1v-1h11l1,-1h4v1h4l1,1h6l1,1h3l3,1h7v1h3l3,-1h1l-1,1h-2v1h-2l-2,1h-1h6l1,-1h1v1h-1l-2,1h-4l-1,1h2v1h1l1,1l1,-1v1h2v1h-2v1h3v-1h1l1,-1h3v-1h1l1,-1h1v-1h1l2,-1v2h2v-1h1v-1h-1v-1h1l2,-1h2l-1,1h-1h1v1h1v1h-1l-1,1h1l-1,1h2l-1,1h1l1,-1h1v1v-1v1l1,-1h1l-1,1h-3l-2,2h1h-2l-2,2h-1l-1,1h1l1,-1h2h-1h1l1,-1h1l-1,1l-2,1h-3v1h-2l-1,1l1,-1l-1,1h1h-2h2l-1,1h1h-1h2l2,-1h2l1,-1h2l2,-1h2l1,-1h2l1,-1l3,-1h1l2,-1h2l1,-1h2l1,-1h2l1,-1h1h-1l-1,1h-2l-1,1h-2l-1,1h-2l-1,1h-2l-1,1h-2l-1,1h-2l-1,1h-3l-1,1h-2l-1,1h-3l-1,1Z"/>
<path class="sp" d="M635,981l-1,1h-2l-1,1M537,999h-14l-1,1h-44l-1,-1h-15l-1,-1h-10l-1,-1h-9l-1,-1h-6l-1,-1h-7l-1,-1h-5l-1,-1h-5l-1,-1h-4l-1,-1h-5l-1,-1h-4l-1,-1h-3l-1,-1h-4l-1,-1h-3l-1,-1h-3l-1,-1h-3l-1,-1h-3l-1,-1h-2l-1,-1h-4l-1,-1h-2l-1,-1h-2l-1,-1h-2l-1,-1h-3l-1,-1h-2l-1,-1h-2l-1,-1h-2l-1,-1h-2l-1,-1h-2l-1,-1h-2l-1,-1h-2l-1,-1h-2l-1,-1h-1l-1,-1M668,971h-1l-1,1h-2l-1,1h-2l-1,1h-2l-1,1h-2l-1,1h-2l-1,1h-2l-1,1h-3l-1,1h-2l-1,1h-3l-1,1h-1"/>
<path class="sl" d="M568,995h-1l-1,1h-5l3,-1h8v-1h2l-1,1h-4ZM572,994h-2v-1h4l2,-1h1h-1l-2,1h-1h1l-1,1ZM666,971l-1,1h1h-1l-2,1h-1l-2,1h-2l-4,2h-3l-1,1h-2l-3,1l-1,1h-3l-1,1v-1h2v-1h1v1h-1h1l1,-1h2l1,-1h2v-1h1h-1l-1,1h1v-1l-1,1h-1h1v-1h3v-1h1l-1,1l1,-1h1h-1v1h-1h1l1,-1l-1,1h1v-1h1l-1,1l1,-1l-1,1h-1h1l1,-1h2l1,-1h1h-1v1l1,-1h2v-1h2l1,-1h3v-1h2l1,-1h1h-1l-1,1h-1ZM654,966l-1,1h1h-2v1v-1h3l-2,1h-1h1h-1l-1,1h-2v-2h1v-2h4l-1,1h-1h3ZM621,963v1h-1l-2,1h-4v-1h2l1,-1h1v-1h1v1h1ZM617,960v1h-1v1h-1h1v1h-1l-1,1h-1l-1,-1h1v-1l1,-1h-1h1v-1h2ZM532,973h-3l-2,-1h-1v-1h2v-1h3v1h1v1h1v1ZM477,965v1l2,-1l2,1h-3v1h-2l-1,-1h1v-1h-1h1ZM543,998h2Z"/>
<path class="sp" d="M545,998v0"/>
<path class="sl" d="M554,997h1h-4Z"/>
<path class="sp" d="M554,997h-3"/>
<path class="sl" d="M584,991l1,-1h3l-1,1h-2ZM677,968h-1h1v-1h3v-1l-1,1h-1Z"/>
<path class="sp" d="M680,966l-1,1h-1l-1,1"/>
<path class="sl" d="M659,973l-1,1h-1v-1h3ZM667,971h-3l-1,1h1l1,-1h1ZM640,979h-2l-1,1h-1l3,-1l1,-1h1l-1,1l1,-1h2h-2v1ZM645,973h-1h1l1,-1h1l1,-1h1v1h-4ZM479,968h-1v-1h1ZM298,944h-1v-1h-1h2ZM578,992h3l2,-1h1h-1v1h-4ZM584,991h1ZM664,972h1l1,-1h1h-1ZM649,970h-1h1v-1h1ZM641,967h-1h2ZM620,965h-1h1v-1h2l-1,1ZM606,964v-1h2l-1,1ZM519,982h-1v-1h1ZM525,978h-3v-1h-1h3ZM465,957h-1h1v-1ZM465,960h-1ZM477,952h-1v-1v1ZM452,928h-1v-1h1ZM445,925l-1,-1h1ZM442,923v1l-1,-1v-1ZM299,947l1,1h-1ZM302,946h-1ZM303,948h-1ZM298,942h1h-1l-1,-1h-1h2ZM295,949h1h-1v-1ZM305,956v1l-1,-1h-1h1ZM303,955v1v-1h-1ZM302,956l-1,-1h1ZM354,978h1ZM358,979h-1l-1,-1l1,1ZM342,974h-1v-1h-1h1v1ZM547,998h1Z"/>
<path class="sp" d="M548,998h-1"/>
<path class="sl" d="M660,973l-1,1h-1h1ZM637,980l1,-1h1h-1v1ZM622,966v-1h3l-1,1h-1ZM600,962h-1ZM601,963h-1v-1h2v1ZM563,966l-1,-1h1ZM571,963h-1v-1h1l1,1ZM563,967h-1l1,-1l1,1ZM560,967h-1v-1h1ZM560,966h1h-2ZM557,967v1l-1,-1ZM558,966h-1v-1h1ZM566,965v-1h1ZM564,966h-1l1,-1ZM555,967h-1ZM539,975l-1,-1h-1h2ZM558,967h-1l-1,-1h2ZM526,979h1ZM498,497v-1Z"/>
<path class="sh" d="M505,563l-2,2v1h-1l-1,1v1l1,-1l2,-1v2h-1l-2,1h-1l-1,-1h-1l-1,1v1h-1v-1l-1,1h-1v-1h-2v-1h1v-1h2v-1h2l1,-1h2l1,-1h3ZM491,574l2,2v2l1,2h-3l-1,1h-5l-1,-1h-1l-1,-1v-1h1v-2l2,-2h3l1,-1h1ZM505,570v-1l1,-1v1ZM505,570h-1v-1h1ZM492,587v1h-2v1h-2l1,-1h1v-1h1ZM513,579v-1ZM515,581h-1ZM519,579v-1ZM514,573h-1v-1h1ZM517,589h-1ZM507,587h-1v1v-1ZM482,572h-1l1,-1ZM500,574v-1ZM499,580v-1l1,1ZM495,577l-1,-1h1ZM506,566h-1l1,-1ZM480,531v1v-1h1Z"/>
<path class="sw" d="M235,77l-1,1h-1v1h-1v1h-2v1h-1v1h-1l-2,1v1h-2v1l-1,1h-2v1l1,-1l-2,1l-1,1h1v-1l-3,3h-2v1h-1l-1,1h-1l-2,2h-1v1h-1l-1,1h-1l-2,2h-1v1l-1,1h-2v1h-1h1v-1h1v-1h2v-1h1v-1h1l2,-2h1l1,-1h1v-1h1l1,-1h1v-1h1l1,-1h1l3,-3h2l1,-1v-1h2v-1h1v-1h2v-1h1l1,-1h1v-1h1v-1h1l1,-1h1v-1h2v-1v1ZM216,90l1,-1l-1,1h-1l-1,1h-1h2ZM717,49v1h1h-1v-1h-2v-1h-1h1v1h2v1l-1,-1l1,1h1h-1h1l1,1h1l1,1h-1h1l1,1h1h-3v-1h-2v-1h-2l-1,-1h-1h1l1,1l-1,-1h1v1h1h-1v-1h-1v-1v1h1h-1v-1h-2v-1h-2v-1h-2l-1,-1h-1h1l1,1h2v1h2l1,1h1l1,1h1l-1,-1h-1l-1,-1h1v1h1ZM718,50l1,1h-1h2v1h1l-1,-1h-1ZM678,33h1v1h2v1h1h-1l-1,-1h-1h1l1,1h1l1,1h-1l-1,-1h-1v-1h-1v1h2h-3l-1,-1h-1h1h-1l-1,-1h-1l-1,-1h1v1h1l-1,-1h-2l-1,-1h-1h1v1v-1h-4v-1h-1h2l1,1v-1v1v-1h1l1,1h2v1h2v1h2l-1,-1v1h1ZM851,155h1v1l-2,-2v1h1l-1,-1h-1v-1h-1v-1h-1v-1h-1v-1h1v1h1v1l1,1v-1h-1v-1v1h1v1h1v1h1ZM852,155h-1v-1h-1h1v1ZM949,280v1l1,1l1,2l1,3v1l2,3h-1v-2l-1,-1v-1l-1,-1v-1l-1,-1v-1l-1,-2v-1h-1h1l-1,-1v1ZM743,63v1h2v1l-1,-1l1,1l-1,-1l1,1l-1,-1h-1v-1h-1h1v1v-1h-2v-1h-1v-1v1h2v1h1l1,1h1l1,1l-1,-1h-1v-1v1h-1ZM613,38h-1v1h-6l2,-1h4ZM611,44v1l-1,-1h-3v-1l2,1ZM839,159v1h-1v-1h-1v-1h1ZM879,202l-2,-2h-1v-1l2,2ZM701,43l1,1l-1,-1h-2v-1h-1h1l1,1ZM135,198h-1v1l-1,1h-1v1v-1h1v-1h-1v1h-1h1v-1h1v-1v1h1v-1l1,-1h1v-1v1l-1,1v1ZM194,104l-4,4h-1v1h-1h1l4,-4Z"/>
<path class="sr" d="M188,109h1l5,-5"/>
<path class="sw" d="M243,113l-2,2h-1l-1,1v-2h1v-1l1,-1h3ZM29,374v-1h-1v-5h1v5ZM108,192h-1v1h-1v1v-1v1v-1l2,-2v-1h1l-1,1ZM757,71l1,1h1v1h1h-1h1h-1v-1v1h1h-1v-1h-1ZM207,106l3,-3h1l2,-2v1h-1h1h-1v1h-1l-1,1l-2,1ZM134,211l-2,1h-1v-1l2,-2v-1h1v1l-1,1v1l1,-1ZM609,44v1h-1v1v-1h-1h1v-1ZM571,18h-1ZM725,55h1v1v-1h-2ZM742,62h-1ZM740,61v1Z"/>
<path class="sr" d="M741,62h1M740,61v1"/>
<path class="sw" d="M443,12h-1ZM112,228v1h-1l-1,1v1v-1v1v-4h1v-1l1,-1v1h-1v2h-1h1v1v-1ZM115,222v1h-1v-1ZM114,223h-1v1h-1l2,-2ZM108,223h1v-1v1h-1v1ZM477,749v1h-2v-2h1ZM837,136h-1v-1h-1h1h-1h1ZM577,11h-2ZM807,113l-1,-1h1v1h1v1h1h-1v-1ZM873,186h-1v-1l-1,-1h-1h1v1l-1,-1h-1v-1v1v-1h-1h1l-1,-1v-1l1,1v1l1,1v-1l2,2ZM743,64h1v1h1h-1v-1h-2v-1h-1h1ZM423,9l-1,1h-1h1v-1ZM39,326l-1,1v-1h1v-1ZM136,200h-1v1v-1h1v-2h1h-1v1h-1v-1h1l1,-1v2h-1ZM573,34h-1h1l-1,1v-1h-1h1ZM847,149h1v1v-1h-1v-1ZM856,160l1,1l-1,-1v-1h-1h1ZM659,28h-1h2ZM712,51h-1v-1h-1h2ZM115,222v-1ZM203,110h1v-1h1h-1v1ZM445,786v2h-1v-2ZM409,10h-1v1v-1ZM440,11h-1ZM442,12h1ZM128,210v-1h1v1ZM104,226v1h-1v1v-1h1ZM126,210h-1l-1,1v-1h1v-1v1ZM823,141v1l-1,-1v-1v1ZM836,154v1l-2,-2v-1v1h1v1ZM110,222v1h-1ZM111,220v-1h1ZM136,190h-1h1v-1ZM110,222h-1l1,-1v1v-1h1h-1ZM107,225v1h-1l1,-1v-1h1h-1v1v-1ZM106,226v-1h1h-1ZM849,172v1ZM659,26h-1h2v1h1h-1v-1ZM657,27h-1l-1,-1h-1h2v1ZM658,27l1,1h-1v-1h-1ZM686,37l-1,-1l1,1h2v1h1l-1,-1h-1ZM777,84h1v1v-1h-1l-1,-1h1ZM821,135l-1,-1h1ZM555,20h-1ZM570,32h-1v-1h1ZM576,33h-1ZM595,39h-1v-1ZM595,37l-1,-1l-1,1h-1v-1h3ZM591,36v-1h1v1ZM594,38h1h-2l-1,-1h1v1h2ZM737,67h-2v1h2v1h1l1,1h1l1,1h-1v-1l-1,-1h-2l-1,-1h-1v-1h-2v-1h-1h1h-2l-1,-1l-3,-2h1v1h1l1,1h1v1h3v1h3l1,1ZM825,121h-1v-1h-1v-1v1h-1h1v1v-1h-1l-1,-1h1v1v-1v1v-1v1h1l-1,-1l1,1h1v1ZM831,125h-1v-1h-1v-1h-1l-2,-2h-1h1h-1v-1v1h1l2,2h1h-1h1v1h1v1h1v1h1h-1ZM689,48l-1,-1h-1l-2,-1h-1v-1h-2l-1,-1l1,1h1l1,1h3v1h1ZM789,102l-1,-1h-1v-1h-1l1,1h1ZM801,110h-1v-1h-1h1ZM792,108h-1l-2,-2h-1h1l2,2ZM749,66h-1Z"/>
<path class="sr" d="M748,66h1"/>
<path class="sw" d="M630,33h-1v-1ZM928,245v-1h-1v-1v1h1ZM959,314v1v-1h-1v-1h-1h1ZM130,590v2h-1v1l1,1v1h-1v-1h-1v-4h1ZM94,208v1v-1h1v-1v1ZM94,208v1h-1h1ZM762,75l-1,-1h-1v-1v1h2l2,2h1l2,2h1v1h1h-1v-1h-1l-1,-1h-1v-1h-1l1,1h1l1,1v-1h-2v-1h-2v-1ZM950,299h-1ZM873,186h-1v-1l-1,-1h-1h1v1l-1,-1h-1v-1v1v-1h-1h1l-1,-1v-1l1,1v1l1,1v-1l2,2ZM871,176h1v2l2,2v1h-1h1h-1v-1h1h-1v-1l-1,-1v-1ZM8,466v1h-1v-2ZM443,789h-1v-1ZM441,790l-1,-1v-1h1v1v-1v1ZM825,121h-1v-1h-1v-1v1h-1h1v1v-1h-1l-1,-1h1v1v-1v1v-1v1h1l-1,-1l1,1h1v1ZM848,141l1,1l-1,-1h-1v-1l-3,-3v1v-1h-1v-1l-1,-1h-1v-1h-1v-1l-1,-1h-1v-1h-1h1v1h1v1h1v1h1v1h1l2,2v1h1l2,2ZM689,48l-1,-1h-1l-2,-1h-1v-1h-2l-1,-1l1,1h1l1,1h3v1h1ZM789,102l-1,-1h-1v-1h-1l1,1h1ZM230,79l-2,2h-1l-1,1h-1l-3,3h-1l-2,2h-1l-1,1h-1v1l1,-1h-1l-1,1v1h-2v1h-1v1v-1v1h-1l-2,2v-1l3,-2h1v-1h1l2,-2h1l1,-1h1v-1h1l1,-1h1l2,-2h1v-1h1l1,-1h1l1,-1Z"/>
<path class="sr" d="M229,80l1,-1M707,45v0"/>
<path class="sw" d="M859,152l-3,-3v-1v1l4,4Z"/>
<path class="sr" d="M859,152l1,1"/>
<path class="sw" d="M941,267h1v1l-1,-1v-1h-1v-1l1,1ZM773,81h-1l-1,-1h-1v-1v1v-1h-2v-1l2,2h1v1h1ZM771,88h1h-1l-2,-2h-1l-2,-2v1h1l2,1l1,1ZM877,195v-1v1h1l1,1h-1v-1ZM822,146v1h1h-1ZM691,38h-1l-1,-1l1,1h2v1h1h-1h3v1h1h-1l-1,-1h-2v-1ZM814,136l1,1h1v1h1h-1v-1h-1ZM820,135v-1v1h1ZM286,48h2v-1h1l1,-1h1h-1h2v-1v1h-1h1h-2v1v-1v1h-1h1l1,-1h1v-1v1h-1h1h-2v1v-1h2l1,-1h1h-2v1h-2v1h-1h1v-1h1h-1v1h-2v1h-2v1h-2v1h-2l-1,1h-1l-1,1h-1h1l1,-1h1l1,-1h1l1,-1h2ZM311,67l-1,1h-1h1v-1ZM481,21h1h-1v-1ZM220,168l1,-1v2l-2,1h-1v1v-1l1,-1h1ZM664,39h1v1h1h-1l-1,-1h-1l-1,-1l1,1ZM611,42h-1h1h-3l-1,-1h-1h3l1,1ZM574,32h-1ZM609,37h1v-1h2l-1,1h-1ZM622,38h1ZM584,32h1ZM576,32v1h1h-1ZM569,30h1l-1,1v-1h-1ZM568,27h-1h1h-1ZM782,87h-1l-1,-1h1v1h1l1,1h-1ZM699,41h-1h1v1ZM769,79h1ZM118,659h-1v-1h-1v-2h1l1,1ZM142,645h-1v-1l-1,-1h1v-1l2,-2v-1h1v3h1v1l-1,1v1ZM209,717v-4h-1l-2,-2h-1v-1l-2,-2v-1l1,1h3v1l1,1v1l2,2v2l1,1h-2ZM218,710v2l-1,-1v-1l-1,-3h-1l-1,-1l1,-1l-1,-1v-1l-1,-1h-1l-1,-1v-1h-1v-1l1,1h2l1,1v1h1l1,2h1v1l1,2v1ZM125,709v1h-1v-2h-1v-1v1l1,1l-1,1l-1,-3v2l-1,-1v-2h1v-2h1v2l1,2ZM227,703h1l-1,1h-1l-1,-1v-3l1,-2l1,1v3ZM210,692h-1v1h-2v-2h1l1,-1h1ZM211,690l-1,-1h-3l-1,-1v2h-1v-1l-1,-1v-1l-1,-2v-2l-1,-1h-1v-1l1,-1l2,1l1,1h2v1l1,1v2l1,2l1,1h1Z"/>
<path class="sb" d="M947,276l-1,-1v-1h-1v-1l-1,-1v-1h-1v-1l-1,-1l-1,-2v-1l-1,-1v-1l-1,-1v-1h-1v-1l-1,-1v-1l-2,-2v-2h-1v-1l-1,-1v-1l-2,-2v-1l-1,-1v-1l-2,-2l-1,-2l-2,-2v-1v2l1,1v2h1v1l-3,-3v-1l-1,-1v-1h-1v-1l-3,-3l-1,-3l-4,-4l-2,-3l-2,-2v-1l-1,-1h-1v-1h-1l-1,-1h-1l1,1v1h1v1h-1l-1,-1h-1l-1,-1h-1l-1,-1h-1l-2,-1l-7,-7l-2,-1l-2,-2l-3,-1v-2h-4l-1,-1h-2M823,118h-1v-1h-1l-1,-1h-1v-1h-1l-1,-1h-1v-1h-2l-1,-1h-1l-1,-1h-1v-1h-2l-1,-1h-2l-1,-1h-1l-1,-1h-2l-1,-1h-2l-1,-1h-3l-1,-1h-2l-1,-1h-2l-2,-1h-2l-1,-1h-3l-1,-1M611,16l1,1h2l1,1l2,1h1l2,1l1,1h2l1,1l2,1h1l2,1l1,1l2,1h1l2,1l1,1l2,1l1,1h2l1,1l2,1l2,2l2,1l1,1l2,1l1,1h2l2,2l2,1l1,1h5l1,1h1l1,1h1l1,1h2l1,1h2v1h1l1,1h1v-1h1l-1,-1h2l4,2h1l1,1h2v1h2l1,1h1l1,1h2l2,2h1l2,1l1,1h1l1,1h1v1h2v1h1l1,1h3v1h2l1,1h1l1,1v-1v1h2M40,351l1,-1v-2l1,-1v-5h1v-3h-1v-1l1,-1l-1,1v-1l1,-2v-12h1v-1l-1,-1v-3l1,-1v-2h1l2,-2v-2h1v-1h-1h1v-1h-1l1,-1v-2l-1,1v1v-1h-1l1,-2v-2l1,-1v-3l1,-1v-2M34,357v1l1,1v-1h1v-2l1,-1v-1l1,1v-1h1v-1h1v-1v2h-1v3l-1,2v3l-1,2v3l-1,1v3h-1v1v-1v1l-1,1v1h-1v1h-1v3h-1v1h-1v7l-1,-1v-1v1h-1v1h-1v2l-1,1v1h-1v1M45,304l-1,1v1h-1v2h-1v2h-1v2l-1,1l-1,2M14,400l1,-1v-3l1,-1v-3l1,-3l1,-1v-2l1,-3v-5l1,-1v-3l1,-2v-3l1,-1v-6l1,-1v-3h1v-2l1,-2v-2h1v-2l1,-1v-1l-1,1l1,-1v-2l1,-1v-5l1,-1v-2l1,-1v-3h1v-1l1,-3l1,-2v-1l1,-1v-2l2,-2v-1l1,-1v-1h1v-2h1v-1v1v-1l1,-1v1l-1,1v2l-1,1v1h1l-1,2v1l-1,1v2l-1,1v2h-1v2l-1,1v2l-1,2v1v-1l1,-1v-1l1,-1v-1l1,-1v-1l1,-1v2l1,-1v-1l1,-1v-2h1v1l1,-1l-1,1v6l-1,2v2l-1,2v7l-1,1v2h-1v4l-1,1v2h-1v2h-1v-1v1h-1l-1,1h-1v1l-1,1v1l-1,1v2l-1,1v1h-1v3l-1,1v6l-1,1v4M59,296v-1l-1,1v-2h-1l1,-1v-2l1,-1v-1l1,-1v-1h-2v-2l-1,1v1l-1,1v1l-2,2v-1v2h-1v-1v1l-1,1l1,-1h-1v1l-1,1v1v-2l-1,1v1h-1v1h-1v2h-1v3h-1v2l-1,1v2h-1v1v-2l1,-1v-1h-1v2h-1v1v-2l1,-1v-3l1,-1v-1l1,-1v-1l1,-1v-3h1v-2l1,-1v-1l1,-1h-1v1l-1,1v1v-2l1,-1v-1l1,-1v-1l1,-1v-2h1v-1l1,-1v-1l1,-1v-1l1,-1v-1h1v-2h1v-1l1,-1v-1l1,-1v-1l1,-1l1,-2v-1l1,-2l1,-1l-1,1v-1l1,-2l1,-1v-1h1v-1l-1,1v1M186,148h1v-1l2,-1l1,-1h1l1,-1h1l1,-1h1v-1h2v-1h1l1,-1v-1h2v-1l2,-2h1v1h4v-1h1v-2h1v-1h4v-1h1v-1h1l1,-1h2v-1l2,-2h1v-1h1v1l-1,1v1M185,160h1v-1h1l2,-2h1v-1h4v-1h1v-1h1"/>
<path class="sb" d="M213,100h-1l-2,2l-2,1l-1,1v1h-1l-2,2h-1l-1,1v1h-2l-1,1v1h1l1,-1h3l2,-2h2l-1,1v1l-1,1v1l-2,2h-3v1h-2l-1,1h-2v1h-1v1h-2v1h-1l-2,2h-1v1h-1l-1,1h-1v1h-1l-1,1h-2v1h-1l-2,2h-1v1h-1l-1,1h-1v-1h-1l-5,5h-1v1l-1,1v1h-1l-3,3h-1l-3,3h-1v1h-1v1h-1l-2,2h-1l-1,1h-2v1l-2,1h-1v1h-1l-2,2l-2,1l-2,2v1v-1l1,-1l-1,1h-1v1v-1h-1h1v-1l1,-1h-1v1h-1l-1,1v1M222,130v-1l1,-1v-1h2v-1h2v-1h1l1,-1v-1h1v-2l2,-1v-1l2,-2v-1l1,-1h1l1,-1h1l1,-1h1v-1h1l1,1h2l3,-3h1v-1h1l1,-1h1v-1h1v-1h1v-1h1v-1h1l3,-3h1v-1h1v-1h2l1,-1h1v-2h1v-1h1l-1,-1l-1,1h-2l-1,1h-2v1h-2l-2,2h-2l-2,1h-3l1,-1v-1l1,-1h1v-2h1v-1v1h-1v-2h-2v-1l-2,1h-1v-1l2,-2v-1h1v-1h1v-1l2,-2v-1h1v-1h1v-1h1v-1h1v-2h1v-1h1h-1v-1l-1,1h-1v-1h-3l-1,1h-2l-1,1h-1l-2,1l-1,1l-2,1h-1l-1,1h-1v1l1,-1v1h-1v1h-1l-2,2l-2,1h-1l-1,1l-2,1l-1,1h-1v1h-1l-2,2h-1v1h-1l-2,2h-1l-4,2l-1,1h-2v-1h1h-1l-1,1h-1v-1h-1l-1,1h-1v1h-1l-1,1h-1v1h-1l-1,1h-1l-1,1h-1v1h-2l-2,2h-3v1h-1l1,-1v-1h1l1,-1h-1h1v-1l-1,1v-1v1h-1l-1,1h-1v1h-1l-1,1l3,-3h1v-1h1l1,-1v-1h1h-1v1v-1h1M65,253l1,-1l-1,1h1v-1l1,-1v-1l1,-1h-1v2h-1v2h-1l1,-1l-1,1v1l-1,1v1l-1,1l1,-1v1v-1v1l-1,1v1h-1v1l-1,1v1l-1,1l-1,2v1v-1v1h-1v2h-1v1l-1,1v1l-1,1v1l-1,1v1l-1,1v1h-1v2l-1,1v1h-1v2h-1v1l-1,1v2l-1,1v1l-1,2l-1,1v1l-1,1h1h-1M44,296l-1,1v1l-1,1l-1,2v1M39,307l-1,1v1"/>
<circle class="w2" cx="500" cy="577" r="56"/>
<circle class="w2" cx="500" cy="577" r="54"/>
<circle class="c2" cx="500" cy="577" r="55"/>
<path class="sg" d="M 259.1290 937.3607 A 249.7500 38.6722, 0, 1 1, 739.8710 937.3607"/>
<path class="sg" d="M 68.6950 752.2990 A 432.5797 66.9822, 0, 1 1, 930.3050 752.2990"/>
<path class="sg" d="M 0.0000 499.5000 A 499.5000 77.3443, 0, 1 1, 999.0000 499.5000"/>
<path class="sg" d="M 68.6950 246.7010 A 432.5797 66.9822, 0, 0 1, 930.3050 246.7010"/>
<path class="sg" d="M 259.1290 61.6393 A 249.7500 38.6722, 0, 0 1, 739.8710 61.6393"/>
<path class="sg" d="M 500.2937 0.0006 A 5.0639 499.5000, -179.90895485, 0 1, 498.7063 998.9994"/>
<path class="sg" d="M 545.0291 2.0793 A 251.1102 499.5000, -174.77027087, 0 1, 453.9709 996.9207"/>
<path class="sg" d="M 631.7970 17.8386 A 429.8718 499.5000, -164.64142918, 0 1, 367.2030 981.1614"/>
<path class="sg" d="M 1.0934 466.4683 A 493.4496 499.5000, -266.20829350, 0 0, 997.9066 532.5317"/>
<path class="sg" d="M 372.9257 16.3031 A 424.8079 499.5000, -194.67891705, 0 0, 626.0743 982.6969"/>
<path class="sg" d="M 456.0625 1.8923 A 242.3393 499.5000, -184.98885677, 0 0, 542.9375 997.1077"/>
<text x="0" y="0" class="fs" transform="translate(745,307) rotate(83)">150W</text>
<text x="0" y="0" class="ft" transform="translate(745,307) rotate(83)">150W</text>
<text x="0" y="0" class="fs" transform="translate(920,335) rotate(78)">120W</text>
<text x="0" y="0" class="ft" transform="translate(920,335) rotate(78)">120W</text>
<text x="0" y="0" class="fs" transform="translate(84,334) rotate(101)">120E</text>
<text x="0" y="0" class="ft" transform="translate(84,334) rotate(101)">120E</text>
<text x="0" y="0" class="fs" transform="translate(263,307) rotate(97)">150E</text>
<text x="0" y="0" class="ft" transform="translate(263,307) rotate(97)">150E</text>
<text x="0" y="0" class="fs" transform="translate(504,297) rotate(88)">180E</text>
<text x="0" y="0" class="ft" transform="translate(504,297) rotate(88)">180E</text>
<text x="0" y="0" class="fs" transform="translate(375,890) rotate(-2)">60S</text>
<text x="0" y="0" class="ft" transform="translate(375,890) rotate(-2)">60S</text>
<text x="0" y="0" class="fs" transform="translate(286,684) rotate(-5)">30S</text>
<text x="0" y="0" class="ft" transform="translate(286,684) rotate(-5)">30S</text>
<text x="0" y="0" class="fs" transform="translate(254,428) rotate(-4)">0N</text>
<text x="0" y="0" class="ft" transform="translate(254,428) rotate(-4)">0N</text>
<text x="0" y="0" class="fs" transform="translate(288,191) rotate(-5)">30N</text>
<text x="0" y="0" class="ft" transform="translate(288,191) rotate(-5)">30N</text>
<path class="tb" d="M127,998h-2l-1,-1h-2l-1,-1h-2l-1,-1h-2v-1h-3v-1h-2l-1,-1h-2v-1h-2l-1,-1h-2v-1h-2v-1h-2l-1,-1h-2v-1h-2v-1h-2v-1h-2v-1h-2v-1h-2v-1h-2v-1h-2v-1h-2v-1h-1l-1,-1h-1v-1h-2v-1h-2v-1h-1v-1h-2v-1h-1l-1,-1h-1v-1h-2v-1h-1v-1h-2v-1h-1v-1h-1l-1,-1h-1v-1h-1v-1h-1l-1,-1h-1v-1h-1v-1h-1v-1h-2v-1h-1v-1h-1v-1h-1v-1h-1l-2,-2h-1v-1h-1v-1h-1v-1h-1v-1h-1v-1h-1v-1h-1v-1h-1v-1h-1v-1h-1v-1h-1v-1h-1v-1h-1v-2h-1v-1h-1v-1h-1v-1h-1v-1l-1,-1v-1h-1v-1h-1v-1l-1,-1v-1h-1v-1l-1,-1v-1h-1v-1l-1,-1v-1h-1v-2h-1v-2h-1v-1l-1,-1v-1l-1,-1v-1l-1,-1v-2h-1v-2h-1v-3h-1v-2h-1v-4h-1v-3h-1v-5h-1v-6l-1,-1v-17h1v-7h1v-4l1,-1v-3h1v-3h1v-3h1v-2l1,-1v-2h1v-2h1v-2h1v-2h1v-2h1v-2h1v-2h1v-1h1v-2h1v-1h1v-2h1v-1h1v-1l1,-1v-1h1v-1h1v-1l1,-1v-1h1v-1h1v-1h1v-1h1v-1h1v-1h1v-2h1v-1h1v-1h1v-1h1v-1h1l3,-3h1v-1h1v-1h1v-1h1v-1h1v-1h1v-1h1l1,-1h1v-1h1v-1h1v-1h1l1,-1h1v-1h1v-1h2v-1h1v-1h1v-1h2v-1h1v-1h2v-1h1v-1h2v-1h1l1,-1h1v-1h2v-1h1l1,-1h1v-1h2v-1h2v-1h2v-1h1l1,-1h1l1,-1h1l1,-1h1l1,-1h1l1,-1h2v-1h2v-1h2v-1h2l1,-1h2v-1h2v-1h2l1,-1h2v-1h3v-1h2l1,-1h2v-1h3v-1h3v-1h159v1h3v1h3v1h2l1,1h2v1h3v1h2l1,1h2v1h2v1h2l1,1h2v1h2v1h2v1h2l1,1h1l1,1h1l1,1h1l1,1h1l1,1h1v1h2v1h2v1h2v1h1l1,1h1v1h2v1h1l1,1h1v1h2v1h1v1h2v1h1v1h2v1h1v1h1v1h2v1h1v1h1l1,1h1v1h1v1h1v1h1l1,1h1v1h1v1h1v1h1v1h1v1h1v1h1l3,3h1v1h1v1h1v1h1v1h1v2h1v1h1v1h1v1h1v1h1v1h1v1l1,1v1h1v1h1v1l1,1v1h1v1h1v2h1v1h1v2h1v1h1v2h1v2h1v2h1v2h1v2h1v2h1v2l1,1v2h1v3h1v3h1v3l1,1v4h1v7h1v17l-1,1v6h-1v5h-1v3h-1v4h-1v2h-1v3h-1v2h-1v2l-1,1v1l-1,1v1l-1,1v1h-1v2h-1v2h-1v1l-1,1v1h-1v1l-1,1v1h-1v1l-1,1v1h-1v1h-1v1l-1,1v1h-1v1h-1v1h-1v1h-1v2h-1v1h-1v1h-1v1h-1v1h-1v1h-1v1h-1v1h-1v1h-1v1h-1v1h-1v1h-1v1h-1l-2,2h-1v1h-1v1h-1v1h-1v1h-2v1h-1v1h-1v1h-1l-1,1h-1v1h-1v1h-1l-1,1h-1v1h-1v1h-2v1h-1v1h-2v1h-1l-1,1h-1v1h-2v1h-1v1h-2v1h-2v1h-1l-1,1h-1v1h-2v1h-2v1h-2v1h-2v1h-2v1h-2v1h-2v1h-2v1h-2l-1,1h-2v1h-2v1h-2l-1,1h-2v1h-2l-1,1h-2v1h-3v1h-2l-1,1h-2l-1,1h-2l-1,1h-2Z"/>
<path class="tl" d="M169,986h1v1h-3l-1,-1h2v-1ZM114,989h-3l-1,-1h2l1,1ZM176,983h1l1,1v1h1l-1,1h-2l-1,1h-1l-1,-1l1,-1v-2h1v-1ZM124,980h2v1h-1ZM122,980l1,1h-1l-1,-1ZM136,977h1h-2ZM156,974v1l1,1h-5v-1l1,-1v-1l-1,-1l1,-1v1h1l1,1ZM158,964v1h-2v2h1l-2,2v1h1l1,1h1l4,4v1l1,1v1h-1v2h-1l-1,1h-1v1h-2l1,1h1v1h-2l1,1h1v1h3l1,1h3l1,1h3l1,1h1l1,1v-1h1v-1h2l2,-1l1,1h1v-1h4v-1h3l1,-1h-1v-1h-4l-1,-1l1,-1h1l2,-2h4l1,-1h1l2,-2h-1v-1h1v-1h2v-1l1,-1h1v1h1v-1h8v-1h3v-1h1l1,1h2v-1h1v1l1,-1h4v1h6v-1h3v-1h2v1h3l1,-1h3v-1h2l1,-1h2l1,-1h4v1h1v1h1l1,1h1l1,-1l1,1h2v1l-2,2h-1v1h1h-1v1h-1v1h2l2,-2h1v-1h3l1,-1h1v-1h2l1,-1h5v-1h1v1h5v1h1l1,-1l1,1l1,-1h1l2,-1v1l1,1h3l1,-1h2v1h1v1h4l1,-1v1h9l1,-1l-1,1v1h-1h3l1,1h2l-1,1v1h1v1h2v1h1v2h2l1,1v1h-1l-1,1h-2l-1,1h-3l-1,1h-2l-1,1h-2l-2,2v1h-5l-1,1h-2v1h-1v3h2l-11,4h-155l-11,-4h-1h2l1,-1l1,1h14l-1,-1h-7v-1h-2v-1h-3l-1,-1h4v-1h-2l-1,-1h-7l-1,-1l-2,-1l1,1l1,-1l2,1v-1h1v-1l-1,-1h-1h2v-1h2v-1h4l1,-1h5l1,-1l1,1v-1h1l1,1h1v-1l1,1h6v-1h-2l-1,-1h-1l-1,-1h4l1,1h1l1,-1h3l-1,-1h1l1,1l1,-1l1,1h3v-1l1,1h4v-1h2l1,-1v-1h-1v-1h-1v-1h-1v-1h-1v-2l-1,-1v-1h1v-2h1v-1h1v-1h1l1,-1l1,1ZM144,951l2,1h1v1h-1v-1v1h-4l-2,-2l-2,-1l2,1h2v-2h1v1ZM151,947h1v1h-2v1l-1,-1l1,-1ZM269,946h-1v-2h1l1,1ZM345,939v1h1l1,-1v1l-3,3v-1l-1,1h-1l1,-1v-1l1,-1v-1ZM368,943v1l1,-1v1h-1l-3,3h-1l-1,1h-1l-2,2h-2v1h-1v-1h-1v-1l4,-2h1l1,-1h2l2,-2h1l2,-2ZM376,936l-1,2l1,-1l-1,1l1,1h1l-2,2h-1l-2,2l-2,1h-1l2,-1v-2l1,-1l2,-1v-1l1,-1v-3l1,-1v1l1,1ZM382,913l-1,1v-2l-1,-1v-1h1v1l1,1ZM397,906v1l-1,1h-1v-1l1,-1v1ZM398,906h-1v-1h1l1,-1v1ZM10,905v-1ZM386,904v-1ZM386,901v2h-1v-1ZM259,895v2l1,1h-1v1v-1v2h-1v3l-3,6v2h-1l-1,1l-1,-1h-1v-5h1v-2l1,-1h-1v-3h1v-1h1l2,-2h1v-1l1,-1v-1l1,-1v1ZM361,898v1h1v1h1l-1,1v2h1l-1,2v1l2,2v4h1l-1,2l1,1v3l-1,1v2l-3,3v1l-1,1l-1,2h-1l-1,2h-1l-4,4v1h-2l-1,1h-1l-1,1v-1h-1l1,-1h-1l-1,1h-1v-1h-1v-3h1l-1,-1v-1l1,-1l-1,1h-1l3,-3l-2,1h-1l-1,2v-4l-2,-2h-2l-1,1h-4l-2,2h-4l-1,1v-1l-1,1h-2v-1h-1l1,-1v-1h1v-3l1,-1v-7l1,1v-3l1,-1v-1l1,-1l-1,1l2,-2h1l1,-1h2l1,-1h2v-1h1l1,-1v-2l1,-1v2l1,-1v-1h1v-1l2,-2h2v1h2v-2h1l1,-1v-1h2v-1h-1h1l1,1h3l1,1h-1v1h-1v1l-1,1v1l2,2v1h1l1,1h1v-1l1,-1v-1l1,-1v-3l1,-1v-2h1v-1v3l1,1Z"/>
<path class="tl" d="M383,894h-1v-1v1ZM337,892l-2,-1h2ZM381,893h-1v-1h1ZM382,892v-1l-1,-1h1ZM341,892h-1l3,-3h2l-1,1h-1l-1,1ZM335,889h1v1h-3l1,-1ZM340,889v1h-3v-1h2ZM381,890v1l-2,-2h1v1ZM378,889v-1h-1v-1l1,1ZM325,887h2v-1l2,1v1h2l1,1l-1,1l-1,-1h-4l-1,-1h-1l-2,-1h-1l1,-2h1l1,1ZM353,886v1v-2ZM377,888h-1v-2l-1,-1h1v2h1ZM373,885l-1,1h-1l-1,1l-1,-1h-1l1,-1l1,1v-1h2v-2h1v1ZM345,882h-1v-1h1ZM349,881v2l-1,-1h-2v-1h2ZM374,884l-1,-1v-1l-1,-1h-1h2v2h1ZM353,878v3l2,1v-2l2,-1h1l1,1h1l1,1l4,2v1h1v1l2,1v1h-1v1l1,1v2h1v1h1h-1l1,1l-1,1v-1h-2l-1,-1v-3h-3l-1,1v1h-2l-2,-2v1h-2l1,-2h1l-1,-2v-1l-2,-1h-1l-1,-2l-1,1l-1,-1h1l-1,-1l1,-1h-1v-1h-1l-1,-1h2v-1ZM343,875l-1,1h-4v1l1,2v-1h2l-1,1h-1l1,2v1l1,2v1h-1v-2l-1,1v-1l-1,-1l1,-1h-1v4h-1v-3h-1v-1l1,-1v-4h1v-1h4l1,-1ZM347,875v1h-1v1l1,1h-1v-4h1ZM321,885h-1l-2,-2v-1l-2,-2l-1,-2v-2l-1,-1v-1l-4,-4v-1h2l3,3l1,2h1l2,2h1l-1,2h1v1l1,1h1v3ZM335,874l1,1h-1v3l-1,1v1l-1,3v-1l-1,1l-1,-1h-1v-1l-1,1l-1,-1h-1l-2,-4v-2l1,-1h2v-2h2v-1l1,-1v-1h1l1,-1v-2h1v1l2,2v1h-1l-1,2l1,1ZM344,864v3l-1,-1v2l-2,-2h1l-1,-1v1l-1,-1l-1,1v-1l1,-1h2v-1h1v-1l1,1ZM294,868h-1v-1l-1,-2l1,-2l1,1v1l1,1v1ZM137,863h-1l1,-1h1ZM341,861v1l-1,1l-1,-1l1,-1v-1v1l1,-1ZM335,863l-1,1v-1l1,-1v-1l1,-1v1l-1,1ZM338,859h2v1l-1,1v-1h-1ZM342,858l1,2h-1v1v-1h-1v-1h1h-1v-1ZM338,857l-1,1l-1,-1h1ZM336,849h1v6h1l2,1v2l-1,-1v-1v1l-1,-1h-2v-1h1h-1l-1,-1v-5ZM133,851v1h-1v-1ZM121,852h-1v-1h2v1ZM126,849h3v1h1v1h-2l-1,1v-1h-1v-2h-1ZM324,849l-1,1h-1v-2l1,-1h1v1ZM37,846v-2h1v2ZM38,844h-1v-1h1ZM119,845h2l1,1v1h1v1h2l-1,1h-3v-1h-1v-2h-2l-1,-1h-1h1h-2l-1,1h-1l2,-2h3ZM122,843h-1v-1l1,-1v1ZM334,843v1l-2,-2v-2l1,-1l1,1ZM122,839l-1,1v-1ZM123,839v1v-1h-1ZM340,825h1v1h-1v1h-1v-2ZM240,828l-2,2v-1h-1h2ZM229,828v1h-1ZM220,825v2h-1l-1,-1h-1v-1h2ZM214,821v3h-1v-3ZM344,820v1l1,1v1l-1,1h-1l-1,2l-1,-1v-1l-2,1l-1,1h-1l2,1v3l-1,-1v-1h-1l-1,-1l1,-1v-3h3v-3l1,1v-2h1l-2,-4v-1l3,3v1ZM214,820v1l-1,-1v-1l1,-1ZM340,810l1,-1l1,2h-1v2l-2,-1l1,2h-1l-1,-2l-1,-1h1l-1,-2l-1,-1l3,1ZM144,812l1,1h1h-2ZM147,809h-1l-1,-1h1ZM92,806h-1l-1,-1v-2h-1v-1h1l1,1v1l1,1ZM153,807l-1,1h1v1h2l-1,1h1v1l-1,2l-1,-1l1,-1l-2,1v-1h-3l1,-1h-1l4,-4h1Z"/>
<path class="tl" d="M90,797h1l-2,2v1v-3ZM332,800l3,3l-2,-1l1,2l2,2v1l-2,-2l-1,-2l-6,-6v-1h-1h1l3,3ZM198,806l-1,1h-2l1,-2v-1l2,-2h1v3ZM216,801l-1,2l-1,-1v-1h1ZM79,791h-1v-1h2ZM202,797l-1,2h2v1l-1,1h1l2,4h1v1l-1,1h1l-1,1h-3l-1,1h-2l2,-2h-1v-1h1l-1,-1v-1h2l-1,-1h-1v-2l-1,-1l1,-2v-1l1,1ZM75,786h-1v-1h1ZM141,790l-1,1v-1ZM139,790h-2l1,-1h1ZM78,780v1h1h-2v-1ZM139,786h1v1h1l-1,1h1l-1,1l-1,-1h-1l-2,1l1,-1h-1h1l1,-1l1,-2ZM193,787v1l1,1l-1,1h-3l-1,1l-1,-1h-2l1,-1h-1h1v-1h-2l1,-1h1l1,1l2,-1h2ZM147,784h-1l1,-1h2l-1,1ZM81,776v1l1,-1h2l-1,2h-3l-1,1h-1l-1,-1h1v-1h-1h1h-2l-1,1l8,-5v1l-1,2ZM135,780l-1,1v-1h-1l1,-1h1ZM322,771h-1ZM88,771h-1h2ZM139,780l-1,2l2,-1v1h-1v1l1,-1l2,-1l1,-1h2v2h-1v1l-1,1l-2,1h-1v-1l-1,1l-2,1v1h-3l-2,2h-1l-1,1l-2,1l-1,1l-1,2h1l-1,1v1h1l3,3l2,1h1l-2,2v2l1,1h1l2,-4h-1l4,-2v-1l1,-1v-1l-1,-1l2,-1l2,-4l1,1h1l1,-1v1l1,1h1v2l-1,1l1,1h2l1,-2h1v3l1,1l-1,1l1,1v1h1l1,1v1l1,1l-2,2h-2l-2,2h-1l-2,-1h-2l-2,1l-1,1l-2,1l-1,1l2,-1l3,-1h2l-1,1l-1,2v1l1,1l2,-1l1,-1v1h1l-4,2h-1l-2,1v-1l2,-1h-3v1h-1l-1,1h-1l-2,2l1,1v-1v1h-3l-1,1l2,-1v1h-2l-2,2v1l-1,1l-1,-1l1,-1l-1,1v4l-1,1h-1l-1,1h-1l-3,3h-1v8l-1,1h-1v-3l-1,-1l1,-1l-1,-2l-1,1l-1,-1h-4v1h-1l-1,-1l-1,1l-1,-1l-2,2h-2v1h-1v3l-1,1v1l-1,2v4l1,1v1h1v1l1,-1h3v-1l1,-1v-1l1,-1h3v1l-1,1v2l-1,1v-1v2l-1,1v1h5v1h1v1l-1,1v3l-1,1h1v2h1v1h2l1,-1h1v1h1l1,1l1,-1v-2l1,-1h2l2,-2v2h-1h1v1l-1,1v1h1v-3h1v-1h1v1h1v1h3l1,1l1,-1h1l1,1h1v1l1,1h1v1h1v1l1,1l2,1v-1h1l1,1h1l1,1v1h1v1l1,2v1l-1,1l1,1h2v1v-1l4,2v1h1l3,1h1l2,1l2,2h2v5l-1,1l-1,2l-2,2v9l-1,2v2h-1v1h-2l-1,1h-1l-3,3v5l-1,2l-2,2v2l-2,2v-1l-1,1l-1,-1h-1v-1v1l1,1v1l1,1v2l-2,1h-3l1,1v2l-1,1l-1,-1h-1l1,2h2l-2,2l1,1v1h-1l-1,1v1l2,1h1v1l-1,1v2h-1v1l2,2h-1l-1,1v1h-1l-2,-1l-3,-3l-1,-3v-1l1,-1h-2l1,-2l-1,-2h1v-2l-1,-1v2l-1,-2v-4l-1,-1l-1,-2h1v-6l-1,-2v-8l-1,-2v-6l-1,-2l-1,-1l-2,-1l-3,-2l-1,-1v-1l-1,-2l-1,-3l-2,-3l-2,-2v-1l-1,-2l2,-2v-1h-1v-3l1,-1v-1h1v-2h1l1,-1v-5l-1,-1v-2h-1v1h-1v1h-1l-1,-1h-2v-2h-1v-1v1h-1v-3l-2,-2h1h-2v-1h-2l-1,-1l-1,-2h-1l-1,-1v1h-2l-1,-1h-2l-2,-2h-1l-1,-1v-1h-1v-3h1l-1,-1v-3l-1,-1v-1l-1,-1v-3h-1v-5l-1,-1l-1,1v4h1l-1,1h1v5h1v2h-1v-1l-1,-1v-3l-1,-1v1v-1h-1v-1h1v-9h-1v-1h-1v-9l2,-2v-1l1,-2l2,-2l1,-2l1,-1v-1h1v1l2,-2h-1v-2l-1,-1v-1l1,-1l-1,-1l1,-1v-1l1,-1l-1,-1l1,-1v-1l1,-1l-1,-1h-1v-2h-1v-1h-1l-1,-1h-1l-1,1h-4l1,-1l2,-1h-1l-1,1l-2,1h-1l-1,1l-2,1h-2l-2,1h-1l-1,1h-3l-1,1h-2l1,-1h2l2,-1h2l2,-1h1l2,-1l1,-1h-3l1,-1l-1,1h-1l2,-2h-1v-1l2,-2l2,-1h3l1,-1h1l1,-1h-3v-2h4l1,1l1,-1v-3h4l1,-1h2l2,-1l1,1l1,-1h1l-1,1h1l1,1h2l1,1h2v1l1,1l1,-1h6l1,-1v2l2,-1l-1,1h2l1,1h2v1l-2,1h4v1l2,-2h2v1h1l1,1h2v-1h1l1,1l-1,1l1,-1h1l1,-1v-2l1,-1l2,-1l1,1l-2,2Z"/>
<path class="tl" d="M128,774l-1,1h4l-1,1h1l2,-2v1l-1,2v1l1,1h-2v1h-8v-1h-1v-1h4l-1,-1h-3l2,-1h-1l1,-1h1ZM135,774l-2,1v-1h1ZM152,776v1l-1,-1l-1,1v-2h2ZM146,776v1l1,-1l2,-1v2h3l1,1l-1,1l2,-1v1l1,1v2h-1l2,2v1h1v1l-2,1h-1l-1,-2l-1,1v1l1,1v2l-1,1l-2,-2v1l1,1h-2l-2,-2v-1l-1,-1v1h-3v-1l1,-1h3l1,-1l2,-1v-1l-1,-1h-1l1,-1l-1,-1h-5l-1,-1h-1l1,-1h-1l1,-1l2,-1l1,-1h2ZM138,774h2l-1,1h-1l1,1l-2,1h-2v-2l1,1v-1ZM298,772h-2v-1ZM141,776l-2,1v-1l2,-2h2l1,1l-2,1ZM122,776h-2l-1,-1h1l2,-1l2,-2h2v1h2v1h-1l-3,1h-2ZM299,769v1h-3v-1h1ZM143,773v1l-1,-1h-1l1,-1h1l1,1ZM295,769l1,1h-2l-1,1l-2,-1l-1,-1h2ZM143,771h-1v1l-1,1h-2l1,-1h-1l1,-1h2ZM136,771h1v1h-4l-2,1h-1l1,-1h-1l-1,-1l2,-1h1l2,1l1,1v-2h2ZM246,780h-3l-2,-1v-1l1,-2h-1l1,-1l-1,-1h1l4,-2h2l-1,1l-2,1l-1,1v2l-1,1l1,1ZM145,770l1,1h1l-1,1h1l1,1h4v1h-7l-1,-1l1,-1v-1h-2l1,-1ZM134,769l-2,1h-4l2,-1h3ZM271,770l1,1v-1h2l2,1h1v1l-1,1h1l2,1v-1l1,1l1,-1h2l1,1h3l-2,-1h5l1,1v1h2l2,1l-1,-1h1l1,-1l2,1v-1h1l-2,-1h8l3,1l1,-1h2l2,2h2v-1h3l3,1v-1h-2v-1h7l8,5h-1l1,1l2,1h2v1h-1v1h-1l1,1v2l-2,-1v2l-1,-1v1h-1l2,2v1h1l3,2h-1l1,1h1v1l1,2h-1l1,2l1,1l-4,-2l-4,-3l-1,-2l-1,-1v-3l-1,-2v-1l-2,-2l-1,1l2,2l-3,-1l-1,1l1,2l1,1h-1l-1,1l-1,-1h-1v1h-4v7h1l2,1h1l-1,-1h1l3,1l1,2l1,1l1,2l2,2v9h-1l-1,-1v2h-1v1l1,1v1h-1v1l1,1h1l2,2v1l1,1v1l-1,1h-1l-1,-2l-1,-1h1l-2,-1v-1v1v-1h-1v-1l-1,-1h-2v1h-1l-1,-1l1,-1l-1,-1l-1,1v2h-1v1l2,2h1v-1h2l1,1l-2,1v2l2,2l1,2l2,1v2h1v6l-2,4l-1,1h-1v1l-1,-1v1l-2,1h-1v2l-1,-1v-1h-2l-1,2v2l1,1l1,2l2,2l1,3v4l-2,1v1l-2,1v-2l-1,-1h-1v-1l-2,-2h-1v-1h-1v6h1v3l1,1h1v1h1v1l1,1v3h1v2h-1l-2,-2v-1l-1,-1v-1l-1,-1v-2l-1,-1v-1h-1v-6l-1,-1v-1l-1,-2v-2l-1,-1l-2,2h-1v-3l-1,-2v-1h-1l-2,-2v-1l-1,-1h-1v2l-1,-1v1h-2v2l-2,1l-1,2v1l-2,2h-1v8l-1,1l1,1h-1l-1,1l-1,-1l-1,-2v-1l-1,-1v-1l-1,-2v-1l-3,-6v-3l-2,1h-1l-1,-2v-1l-2,-1l-1,-1v-1l-1,-1l-2,1h-5l-1,-1h-2v-2h-1l-1,1h-2l-3,-3l-1,-2l-1,1v-1l-1,1v2l1,1h1l1,1v2l1,1l-1,-1l1,-1v2h1v1l1,-1h2v-1l1,-1v-1v2l2,2h1l2,2l-1,1v1h-1v3h-1v1h-1v1h-2v1h-1l-2,2h-1l-2,2v-1l-1,1h-2v1h-2v-2l-1,-1v-3h-1v-1l-1,-1v-1l-1,-1h-1v-1l-1,-1v-3h-2v-2l-1,-1v-1l-2,-2v-1v1l-1,1l-1,-1l-1,-2l1,2l1,1l1,2v1l2,2h-1l2,2v1l1,1h-1l1,2v1l1,1l1,2v1l1,1l2,1v1h1v1h1v1l-1,1h1l1,1h3l1,-1h3v-1h1v2l-1,1v3l-1,1l-3,6l-1,1l-2,1l-1,1l-1,2v1h-1v1h-1v2l-1,1l-1,2l1,1v4l1,1v7l-1,1h-1l-3,3h-1v1l-1,1v2h1l-1,1h1v1l-1,1h1l-1,1h-1l-2,2v3l-3,3v1l-2,1v1l-1,1h-2v1l-1,-1v1l-1,-1l-1,1h-2l-1,1l-1,-1h-1v-5l-1,-1v-2l-1,-1v-1l-1,-1v-5l-1,-1v-1l-1,-2v-1l-1,-1v-3l1,-1v-3h1v-1l1,-1v-1h-1v-5l-1,-1v-2l-3,-3l-1,-2l1,-1v-5l-1,-1v-1l-1,1h-2l-1,-1v-1l-1,-1h-2l-1,1h-2l-1,1h-6l-1,1l-4,-4h-1l-1,-1v-1l-1,-1v-1h-1v-1l-1,-1v-1h-1v-3h-1l1,-1v-1h1l-1,-1l1,-1v-4l-1,-1v-1h1v-2l1,-1v-1h1v-2h1l1,-2h1l2,-2v-3l3,-3l1,-2v-1h1l1,1h2l1,-1h2l1,-1h4l1,-1h1v1h1l1,-1h1v1l1,-1v1h-1v1h1v2h-1v1h1v1h3l2,2h1l2,2l1,-1v-2l1,-1h2l1,1h1l1,1h2l1,1h1v-1h2l1,1v-1h1l1,1v-2l1,-1v-5h-2l-1,1l-1,-1h-2v1l-1,-1h-2v-1l-1,-1v-2l1,-1h1v-1h2l1,-1h1l2,-1l2,1l1,1h2l1,-1v-2h-1l-2,-2h-1l-1,-1l1,-1l-1,-1h2l-1,-1v1h-2l-1,1v1h1l-1,1h-1v-1h-1l1,-1h-2v-1h-1v1l-1,1v1h-1v4l1,1h-2v1h-1v-1h-2l1,1h-2v1l1,1h-1h1l1,1v1l-1,-1v1h-1l1,1h-2v-2l-1,-1v-1h-1v-3h-1v-1h-1l-1,-1h-1l-1,-1v-1l-1,-1v1v-1h-2v1l2,2v1l1,1h1l1,1h1l1,1v1l-1,-1h-1v1h1v1h-1v1h-1v-1h1l-1,-1v-1h-1l-1,-1h-1l-2,-2l-1,-2h-2v1h-4l-1,1v2h-2v1l-1,2h1l-1,1v1h-1l-1,1h-2l-1,1l-2,-2v1h-2l1,-1v-1h-1v-2l1,-1v-3l-1,-1l2,-1l1,1h5v-4l-1,-1v-1h-2v-1h3v-2l1,1l2,-1v-1h1l1,-1l1,-2l1,-1h2v-5h2l-1,1h1v1l-1,1v1h1v1l1,-1h2v1h1l2,-2l1,1h1v-1h1v-3l1,-1l1,1v-1l-1,-1v-1h4l1,-1h-4l-1,1l-2,-2v-4l2,-1v-1l-1,-1l-2,2l-1,2l-1,1v3h1v2h-1v2l-1,2h-1v1h-1v-2l-1,-1l-1,-2l-1,-1l-1,2h-1l-2,-1v-5l2,-1l3,-3l2,-3l3,-3h2l1,-2h3l2,1l-1,1h2l1,1h3l3,1l1,1v1l-1,1h-1l-3,-1h-1l2,1v2l1,1h1v-1h-1l1,-1l2,1v-1l1,-2h1l1,1v-1l-1,-1v-1l-1,-1l2,1h1l-1,1l1,1h1v-1l1,-1l2,-1h1v1l1,-1h1l1,-1l1,1l1,-1h-2l1,-1h2l1,1l4,1v-1h-2v-1h-1l-1,-1v-3h2l1,1v1h1l1,1l1,2h1v3l1,1v-1h1l-1,-1l1,-1h-1l-2,-2v-1l-2,-1l1,-1l-1,-1h1l1,2l-1,-1l1,-1h2l1,1l-1,-1l-1,-2h4l-2,-1v-1h1l1,-1h3l1,-1h1v-2l2,1h-1ZM253,820l1,1v2h-1v1l1,1h1l1,1h3l-1,-1v-2h-1v-2h1v-1l-1,-1h-1l1,1l-1,-1v-1h-2v-2h-1h1v-2l1,1v-3h-2l-1,1h-1v1h-1l-1,2l2,1v1l1,1Z"/>
<path class="tl" d="M146,770h-1v-1h1l1,1ZM137,769h-2l1,-1h1l1,1ZM220,771l-1,1h-1v-1h-1l2,-1v1ZM139,768h-2l1,-1v1ZM146,769h-1v-1h1l1,1ZM144,769h-1l-1,-1h-1h1v-1h1l1,1ZM268,768l-3,1v-2ZM215,769l3,1h-2v3h-1l-2,-1h1l-1,-1l-2,-1v-1l1,-1l1,1h1v-1h1ZM220,768h1l-1,1h-4l-1,-1h3ZM234,767l-1,1h-1v-1h-1h4ZM264,768h-4l-2,-1l-1,-1h1l1,-1l4,2ZM153,767v1h-1l-2,1h-2v-1h1h-1v-1l1,-1h2v-1h1v1h1ZM167,764h3v1h-3l-1,1h-1l-1,1l-2,1h-3v1h-1v1h-2l-2,1h1l-2,1h-4l-1,-1h2v-1h2v-1h-1h1l1,-1h1l-1,-1h4l-1,-1h-3v-1l1,-1h6v-1h3v1l2,-1l1,1ZM190,764l3,1h-6v1h5l-1,1l2,-1h4v1l-2,1h-1l-2,2v2l1,1h-2l1,1l-1,1v1h-1l1,1h-3l1,1v1l-1,-1l-1,1h1l1,1v1h-2l-1,-1v1l-1,1h3l-4,2h-3l-1,1l-4,2h-1l-2,1h-1v1l-2,2v1l-1,1l-1,2h-1l-1,-1h-1l-1,-1v-2l-1,-1v-1l1,-1l-1,-2l1,-1l1,-2h1l1,-1v-1l-1,1h-1v-1l1,-1h1l-1,-1h-1l1,-1v-4l-1,-1h-5v-1l-1,-1h1l-1,-1l1,-1h2l3,-1h1l-2,-1h1l3,-1h1v-1h9l1,1l-1,-1h1l2,-1h3l2,-1Z"/>
<path class="th" d="M10,905v-1ZM10,906v-1ZM399,904v1h-1h1v1v-1v1v-1h-1v1v-1v1v-1v1h-1v-1h2ZM12,907v1ZM12,906h-1ZM397,909v1ZM396,909h-1ZM398,909h-1ZM397,908v-1ZM397,907v1h-2v-1h1v-1v1v-1h1v1v-1ZM395,906h1ZM398,906v1ZM396,905v1ZM14,911v-1ZM12,907h-1ZM12,907h-1Z"/>
<path class="tg" d="M66,970h1l1,-1h4v-1h5v-1h5v-1h6v-1h6l1,-1h7v-1h8v-1h9l1,-1h11v-1h14v-1h20v-1h79v1h20v1h14v1h11l1,1h9v1h8v1h7l1,1h6v1h6v1h5v1h5v1h4l1,1h1M21,927h6v-1h7v-1h8v-1h10v-1h10v-1h12v-1h14v-1h18v-1h23v-1h38v-1h75v1h38v1h23v1h18v1h14v1h12v1h10v1h10v1h8v1h7v1h6M5,877h399M21,826h4v1h7v1h8v1h9v1h10v1h11v1h14v1h16v1h21v1h32v1h103v-1h32v-1h21v-1h16v-1h14v-1h11v-1h10v-1h9v-1h8v-1h7v-1h4M66,783v1h5v1h4v1h5l1,1h5v1h6l1,1h6l1,1h7v1h10v1h10v1h13l1,1h17v1h36v1h21v-1h36v-1h17l1,-1h13v-1h10v-1h10v-1h7l1,-1h6l1,-1h6v-1h5l1,-1h5v-1h4v-1h5v-1M140,755h-1v1h-3v1h-2v1h-2v1h-2v1h-2v1h-2l-1,1h-1l-1,1h-1l-1,1h-1v1h-2v1h-2v1h-2v1h-1l-1,1h-1v1h-2v1h-1l-1,1h-1v1h-2v1h-1v1h-2v1h-1v1h-2v1h-1v1h-1l-1,1h-1v1h-1v1h-2v1h-1v1h-1v1h-1v1h-2v1h-1v1h-1v1h-1v1h-1v1h-1v1h-1l-1,1h-1v1h-1v1h-1v1h-1v1h-1v1h-1v1h-1v1h-1v1h-1v1l-1,1v1h-1v1h-1v1h-1v1h-1v1h-1v1l-1,1v1h-1v1h-1v1h-1v2h-1v1h-1v2h-1v1h-1v2h-1v1h-1v2h-1v2h-1v1h-1v2h-1v2h-1v2h-1v2h-1v2l-1,1v2h-1v2l-1,1v2h-1v3h-1v4h-1v4h-1v5h-1v9h-1v13l1,1v8h1v5h1v4h1v4h1v3h1v3h1v2h1v3h1v2h1v2h1v2h1v2h1v2h1v2h1v1l1,1v1h1v2h1v1h1v2h1v1h1v1h1v2h1v1h1v1l1,1v1h1v1h1v1h1v1l2,2v1h1v1h1v1h1v1h1v1h1v1h1v1h1v1h1v1h1v1h1v1h1v1h1v1h1v1h2v1h1v1h1v1h1v1h1v1h1l1,1h1v1h1v1h1v1h2v1h1v1h1l1,1h1v1h1v1h2v1h1v1h2v1h1l1,1h1v1h2v1h1v1h2v1h2v1h1l1,1h1v1h2v1h2v1h2v1h2v1h2v1h2v1h2v1h2l1,1h2v1h2v1h2M153,755h-1v1h-2v1h-2v1h-1v1h-2v1h-2v1h-1v1h-2v1h-1v1h-2v1h-1v1h-2v1h-1v1h-1v1h-2v1h-1v1h-1l-1,1h-1v1h-1v1h-1v1h-1v1h-1l-1,1h-1v1h-1v1h-1v1h-1v1h-1v1h-1v1h-1v1h-1v1h-1v1h-1v1h-1v1h-1v1h-1v1h-1v1h-1v1h-1v1h-1v1l-2,2v1h-1v1h-1v1h-1v1l-1,1v1h-1v1h-1v2h-1v1h-1v1l-1,1v1h-1v2h-1v1h-1v2h-1v1h-1v2h-1v2h-1v2h-1v2h-1v2h-1v2h-1v2h-1v3h-1v2h-1v3h-1v3h-1v3h-1v3h-1v4l-1,1v4h-1v6l-1,1v30h1v6h1v5h1v4h1v3h1v3l1,1v2l1,1v2h1v3h1v2h1v2h1v2h1v2l1,1v1h1v2h1v2h1v2h1v2h1v1h1v2h1v1h1v2h1v1h1v2h1v1h1v1h1v2h1v1h1v1h1v1l1,1v1h1v1h1v1h1v1h1v1h1v1h1v1l3,3v1h1l3,3h1v1h1v1h1v1h1v1h1v1h1v1h1v1h1l1,1h1v1h1v1h1v1h1l1,1h1v1h1v1h1l1,1h1v1h1v1h2v1h1v1h2v1h1v1h2v1h2v1h1v1h2v1h1l1,1h1v1h2M166,755h-1v1h-1v1h-1l-1,1h-1v1h-1v1h-1v1h-1v1h-1v1h-1l-2,2h-1v1h-1v1h-1v1h-1v1h-1v1h-1v1h-1v1h-1v1h-1v1l-2,2v1h-1v1h-1v1h-1v1h-1v1l-1,1v1h-1v1h-1v1h-1v2h-1v1h-1v1l-1,1v1h-1v1h-1v2h-1v1h-1v2h-1v2h-1v1h-1v2h-1v2h-1v2h-1v1l-1,1v1l-1,1v1l-1,1v2h-1v2h-1v2h-1v3h-1v2h-1v3h-1v3h-1v3h-1v3h-1v4h-1v4h-1v5h-1v6h-1v8h-1v30h1v7l1,1v5h1v5h1v4h1v4h1v3h1v3h1v3h1v3h1v3h1v2h1v2h1v2l1,1v2h1v2h1v2h1v2h1v1h1v2h1v2h1v2h1v1h1v2h1v1h1v2h1v1l1,1v1h1v1h1v2h1v1h1v1h1v1l1,1v1h1v1h1v1h1v1l1,1v1h1v1h1v1h1v1h1v1h1v1h1v1h1v1h1v1h1v1h1v1h1v1h1v1h1v1h1v1h1l2,2h1v1h1v1h1v1h1v1h2v1h1"/>
<path class="tg" d="M179,755h-1v1h-1v2h-1v1h-1v1h-1v1h-1v2h-1v1h-1v1l-1,1v1h-1v1l-1,1v1h-1v1l-1,1v1h-1v2h-1v1l-1,1v1h-1v2h-1v2h-1v2h-1v2h-1v2h-1v2h-1v2h-1v2h-1v2l-1,1v2h-1v2l-1,1v2h-1v3h-1v3h-1v3h-1v3h-1v4h-1v4h-1v4h-1v4h-1v5l-1,1v5h-1v8h-1v11h-1v29l1,1v10l1,1v7h1v6h1v5h1v4l1,1v4h1v3l1,1v3h1v3h1v3h1v3h1v3h1v3h1v2h1v3h1v2h1v2h1v2l1,1v2h1v2h1v1l1,1v1l1,1v1h1v2h1v2h1v1l1,1v1h1v2h1v1h1v2h1v1h1v2h1v1h1v1l1,1v1h1v1h1v1h1v2h1v1h1v1h1M192,755h-1v3h-1v2h-1v3h-1v3h-1v3h-1v3h-1v3h-1v3l-1,1v3h-1v4h-1v4h-1v4l-1,1v4h-1v5h-1v6h-1v6l-1,1v7h-1v8h-1v11l-1,1v18h-1v29l1,1v18h1v11h1v8l1,1v7h1v6h1v6h1v5h1v5h1v4h1v4h1v4h1v4h1v3h1v3l1,1v3h1v2l1,1v2h1v3h1v3h1v2h1M205,755v243M217,755h1v3h1v2h1v3h1v3h1v3h1v3h1v3h1v3l1,1v3h1v4h1v4h1v4l1,1v4h1v5h1v6h1v6l1,1v7h1v8h1v11l1,1v18h1v29l-1,1v18h-1v11h-1v8l-1,1v7h-1v6h-1v6h-1v5h-1v5h-1v4h-1v4h-1v4h-1v4h-1v3h-1v3l-1,1v3h-1v2l-1,1v2h-1v3h-1v3h-1v2h-1M230,755h1v1h1v2h1v1h1v1h1v1h1v2h1v1h1v1l1,1v1h1v1l1,1v1h1v1l1,1v1h1v2h1v1l1,1v1h1v2h1v2h1v2h1v2h1v2h1v2h1v2h1v2h1v2l1,1v2h1v2l1,1v2h1v3h1v3h1v3h1v3h1v4h1v4h1v4h1v4h1v5l1,1v5h1v8h1v11h1v29l-1,1v10l-1,1v7h-1v6h-1v5h-1v4l-1,1v4h-1v3l-1,1v3h-1v3h-1v3h-1v3h-1v3h-1v3h-1v2h-1v3h-1v2h-1v2h-1v2l-1,1v2h-1v2h-1v1l-1,1v1l-1,1v1h-1v2h-1v2h-1v1l-1,1v1h-1v2h-1v1h-1v2h-1v1h-1v2h-1v1h-1v1l-1,1v1h-1v1h-1v1h-1v2h-1v1h-1v1h-1M243,755h1v1h1v1h1l1,1h1v1h1v1h1v1h1v1h1v1h1l2,2h1v1h1v1h1v1h1v1h1v1h1v1h1v1h1v1h1v1l2,2v1h1v1h1v1h1v1h1v1l1,1v1h1v1h1v1h1v2h1v1h1v1l1,1v1h1v1h1v2h1v1h1v2h1v2h1v1h1v2h1v2h1v2h1v1l1,1v1l1,1v1l1,1v2h1v2h1v2h1v3h1v2h1v3h1v3h1v3h1v3h1v4h1v4h1v5h1v6h1v8h1v30h-1v7l-1,1v5h-1v5h-1v4h-1v4h-1v3h-1v3h-1v3h-1v3h-1v3h-1v2h-1v2h-1v2l-1,1v2h-1v2h-1v2h-1v2h-1v1h-1v2h-1v2h-1v2h-1v1h-1v2h-1v1h-1v2h-1v1l-1,1v1h-1v1h-1v2h-1v1h-1v1h-1v1l-1,1v1h-1v1h-1v1h-1v1l-1,1v1h-1v1h-1v1h-1v1h-1v1h-1v1h-1v1h-1v1h-1v1h-1v1h-1v1h-1v1h-1v1h-1v1h-1v1h-1l-2,2h-1v1h-1v1h-1v1h-1v1h-2v1h-1M256,755h1v1h2v1h2v1h1v1h2v1h2v1h1v1h2v1h1v1h2v1h1v1h2v1h1v1h1v1h2v1h1v1h1l1,1h1v1h1v1h1v1h1v1h1l1,1h1v1h1v1h1v1h1v1h1v1h1v1h1v1h1v1h1v1h1v1h1v1h1v1h1v1h1v1h1v1h1v1h1v1l2,2v1h1v1h1v1h1v1l1,1v1h1v1h1v2h1v1h1v1l1,1v1h1v2h1v1h1v2h1v1h1v2h1v2h1v2h1v2h1v2h1v2h1v2h1v3h1v2h1v3h1v3h1v3h1v3h1v4l1,1v4h1v6l1,1v14l1,1h-1v15h-1v6h-1v5h-1v4h-1v3h-1v3l-1,1v2l-1,1v2h-1v3h-1v2h-1v2h-1v2h-1v2l-1,1v1h-1v2h-1v2h-1v2h-1v2h-1v1h-1v2h-1v1h-1v2h-1v1h-1v2h-1v1h-1v1h-1v2h-1v1h-1v1h-1v1l-1,1v1h-1v1h-1v1h-1v1h-1v1h-1v1h-1v1l-3,3v1h-1l-3,3h-1v1h-1v1h-1v1h-1v1h-1v1h-1v1h-1v1h-1l-1,1h-1v1h-1v1h-1v1h-1l-1,1h-1v1h-1v1h-1l-1,1h-1v1h-1v1h-2v1h-1v1h-2v1h-1v1h-2v1h-2v1h-1v1h-2v1h-1l-1,1h-1v1h-2"/>
<path class="tg" d="M269,755h1v1h3v1h2v1h2v1h2v1h2v1h2l1,1h1l1,1h1l1,1h1v1h2v1h2v1h2v1h1l1,1h1v1h2v1h1l1,1h1v1h2v1h1v1h2v1h1v1h2v1h1v1h1l1,1h1v1h1v1h2v1h1v1h1v1h1v1h2v1h1v1h1v1h1v1h1v1h1v1h1l1,1h1v1h1v1h1v1h1v1h1v1h1v1h1v1h1v1h1v1l1,1v1h1v1h1v1h1v1h1v1h1v1l1,1v1h1v1h1v1h1v2h1v1h1v2h1v1h1v2h1v1h1v2h1v2h1v1h1v2h1v2h1v2h1v2h1v2l1,1v2h1v2l1,1v2h1v3h1v4h1v4h1v5h1v9h1v13l-1,1v8h-1v5h-1v4h-1v4h-1v3h-1v3h-1v2h-1v3h-1v2h-1v2h-1v2h-1v2h-1v2h-1v2h-1v1l-1,1v1h-1v2h-1v1h-1v2h-1v1h-1v1h-1v2h-1v1h-1v1l-1,1v1h-1v1h-1v1h-1v1l-2,2v1h-1v1h-1v1h-1v1h-1v1h-1v1h-1v1h-1v1h-1v1h-1v1h-1v1h-1v1h-1v1h-1v1h-2v1h-1v1h-1v1h-1v1h-1v1h-1l-1,1h-1v1h-1v1h-1v1h-2v1h-1v1h-1l-1,1h-1v1h-1v1h-2v1h-1v1h-2v1h-1l-1,1h-1v1h-2v1h-1v1h-2v1h-2v1h-1l-1,1h-1v1h-2v1h-2v1h-2v1h-2v1h-2v1h-2v1h-2v1h-2l-1,1h-2v1h-2v1h-2"/>
<rect x="-1" y="893" width="21" height="22" fill-opacity="0" stroke="#ffffff" stroke-opacity="0.5" stroke-width="5.0"/>
<rect x="1" y="895" width="21" height="22" fill-opacity="0" stroke="#113311" stroke-opacity="0.8" stroke-width="5.0"/>
<rect x="0" y="894" width="21" height="22" fill-opacity="0" stroke="#45a249" stroke-opacity="0.9" stroke-width="5.0"/>
<rect x="384" y="895" width="23" height="23" fill-opacity="0" stroke="#ffffff" stroke-opacity="0.5" stroke-width="5.0"/>
<rect x="386" y="897" width="23" height="23" fill-opacity="0" stroke="#113311" stroke-opacity="0.8" stroke-width="5.0"/>
<rect x="385" y="896" width="23" height="23" fill-opacity="0" stroke="#45a249" stroke-opacity="0.9" stroke-width="5.0"/>
<rect x="691" y="691" width="309" height="309" fill="#ffffff" fill-opacity="1.0"/>
<rect x="694" y="694" width="302" height="302" fill="#000000" fill-opacity="1.0"/>
<rect x="700" y="700" width="300" height="300" fill="#70add3" fill-opacity="1.0"/>
<path class="zl" d="M960,925h1v-1h1v1l-2,2l-4,-4l1,-1v1l2,1h1h-1ZM987,870l-1,2l-2,-2l2,-1h2ZM965,928v3l-1,-2ZM944,753v1l-1,-1l1,-2l1,1ZM904,774h-3v-2h1v1Z"/>
<rect class="zh" x="862.5" y="813.5" width="1" height="1"/>
<rect class="zh" x="862.5" y="820.5" width="1" height="1"/>
<path class="zh" d="M862,831v-4l2,-1v-1h1v1l1,1l-1,1v1l-2,1v1Z"/>
<rect class="zh" x="861.5" y="821.5" width="1" height="1"/>
<path class="zh" d="M862,828v4h-2v-1l2,-2ZM862,814l-1,1h-1v1h-1v1l-1,1v1l-2,2l-2,1v1l-1,1v1h-1v1h-1h1v1h-1h2l1,-1h1v-1h1v-1l1,-1h1v-1h1l1,-1h1v1l-1,2l-1,1h1v1h1v1h-2v-1h-3v1h-1l-1,1h-6v-1h1v-1h-2v-1v1h-2l-1,1v1h-2v2h1h-1v1v-1h-2v-1h-1l-2,2v1h-2v-2h-1v-2h-1v-1l-1,1h-1v-2h1v-1h1h-1v-1h1v1h2l2,-1v-1v1h1l-1,-1h1v-1v1h1v-1h1v-2l1,1l1,-1h3v-1h5l-1,-1h1v-1h1v-1h2v-1v1h2v-1h2v-1l1,1h2v-1Z"/>
<rect class="zh" x="891.5" y="878.5" width="1" height="1"/>
<rect class="zh" x="883.5" y="874.5" width="1" height="1"/>
<rect class="zh" x="865.5" y="874.5" width="1" height="1"/>
<rect class="zh" x="886.5" y="858.5" width="1" height="1"/>
<rect class="zh" x="881.5" y="853.5" width="1" height="1"/>
<rect class="zh" x="897.5" y="852.5" width="1" height="1"/>
<rect class="zh" x="883.5" y="837.5" width="1" height="1"/>
<rect class="zh" x="857.5" y="879.5" width="1" height="1"/>
<path class="zh" d="M830,875h1v1l-1,1v-1v1h-2v-1h-1h1h-1l-1,1h-1v1v-1l-1,1h1v1h-1v-1v1h-4l1,-1h1v-1h2l1,-1v-1h3v-1h1v1Z"/>
<rect class="zh" x="831.5" y="873.5" width="1" height="1"/>
<rect class="zh" x="859.5" y="866.5" width="1" height="1"/>
<rect class="zh" x="813.5" y="865.5" width="1" height="1"/>
<rect class="zh" x="823.5" y="862.5" width="1" height="1"/>
<path class="zh" d="M849,854v3l-1,-1v-1h-1v-1v1v-2h-1h2v1Z"/>
<rect class="zh" x="849.5" y="849.5" width="1" height="1"/>
<rect class="zh" x="835.5" y="848.5" width="1" height="1"/>
<rect class="zh" x="836.5" y="847.5" width="1" height="1"/>
<rect class="zh" x="841.5" y="845.5" width="1" height="1"/>
<path class="zh" d="M835,854v2h-1l-1,1h-1v-1h-1v1h-1l-1,-1v1h-3v1h-1v1l-1,1l-1,-1l-1,1h-5v-1h-3l-1,-1h-4v-1h-2l-1,-1v-2h-1v-1h1v-1h-1v-1h2l1,-1v-1h1v-2h-1v-1h1v-1h1v-1v1v-1l1,-1v1l2,-2v1h1v-1l1,-1v1l1,-1h1v-1v1h4v-1h3v-1h2v1l1,1h-1v2l1,-1h1v1h1v1h2v1h1v1h1v2l-1,1h1v1h1l-1,1h1h-1h1v1h-1v1h1v1Z"/>
<rect class="zh" x="802.5" y="838.5" width="1" height="1"/>
<path class="zh" d="M851,839v1h-1v1h-1v-3h1v-1h1v1ZM805,834l1,-1v2h-1v1h-1v-1v1h-1h1v-2Z"/>
<rect class="zh" x="807.5" y="829.5" width="1" height="1"/>
<rect class="zh" x="826.5" y="828.5" width="1" height="1"/>
<path class="zh" d="M811,825h1v1l-3,3v-1h1v-1l1,-1h1Z"/>
<rect class="zh" x="860.5" y="824.5" width="1" height="1"/>
<rect class="zh" x="832.5" y="822.5" width="1" height="1"/>
<rect class="zh" x="848.5" y="817.5" width="1" height="1"/>
<rect class="zh" x="799.5" y="734.5" width="1" height="1"/>
<rect class="zh" x="752.5" y="935.5" width="1" height="1"/>
<rect class="zh" x="887.5" y="911.5" width="1" height="1"/>
<rect class="zh" x="898.5" y="893.5" width="1" height="1"/>
<rect class="zh" x="894.5" y="879.5" width="1" height="1"/>
<rect class="zh" x="884.5" y="872.5" width="1" height="1"/>
<rect class="zh" x="892.5" y="868.5" width="1" height="1"/>
<rect class="zh" x="876.5" y="848.5" width="1" height="1"/>
<rect class="zh" x="879.5" y="842.5" width="1" height="1"/>
<rect class="zh" x="879.5" y="838.5" width="1" height="1"/>
<circle class="w1" cx="800" cy="734" r="12"/>
<circle class="w1" cx="800" cy="734" r="10"/>
<circle class="c1" cx="800" cy="734" r="11"/>
<circle class="w1" cx="753" cy="936" r="12"/>
<circle class="w1" cx="753" cy="936" r="10"/>
<circle class="c1" cx="753" cy="936" r="11"/>
</svg>
