<?xml version="1.0" encoding="UTF-8" standalone="no"?>
<svg xmlns:svg="http://www.w3.org/2000/svg" xmlns="http://www.w3.org/2000/svg" xmlns:xlink="http://www.w3.org/1999/xlink" height="1000" width="1000">
<!-- made with pythonshp (GPL): github.com/sanjayrao77/pythonshp , underlying data may come from naturalearthdata.com -->
<!-- 
COPYRIGHT: THIS SVG FILE IS RELEASED INTO THE PUBLIC DOMAIN
 -->
<!-- 
vars : {
	'cmdline' : 'pythonshp.py publicdomain wiki1 falklandislands locatormap'
	'title' : 'Falkland Islands locator'
	'version' : '1.0.5'
}
 -->
<defs>
	<radialGradient id="watergradient" cx="500" cy="500" r="500" fx="500" fy="500" gradientUnits="userSpaceOnUse">
		<stop offset="0%" stop-color="#70add3"/>
		<stop offset="11%" stop-color="#6eaad0"/>
		<stop offset="22%" stop-color="#6ca7cc"/>
		<stop offset="31%" stop-color="#6ba5c9"/>
		<stop offset="41%" stop-color="#69a2c6"/>
		<stop offset="51%" stop-color="#679fc2"/>
		<stop offset="59%" stop-color="#669dbf"/>
		<stop offset="67%" stop-color="#649abc"/>
		<stop offset="75%" stop-color="#6297b9"/>
		<stop offset="81%" stop-color="#6095b6"/>
		<stop offset="87%" stop-color="#5f92b2"/>
		<stop offset="92%" stop-color="#5d8faf"/>
		<stop offset="95%" stop-color="#5b8dac"/>
		<stop offset="98%" stop-color="#598aa8"/>
		<stop offset="100%" stop-color="#5685a2"/>
	</radialGradient>
	<radialGradient id="landgradient" cx="500" cy="500" r="500" fx="500" fy="500" gradientUnits="userSpaceOnUse">
		<stop offset="0%" stop-color="#dddddd"/>
		<stop offset="11%" stop-color="#d7d7d7"/>
		<stop offset="22%" stop-color="#d1d1d1"/>
		<stop offset="31%" stop-color="#cccccc"/>
		<stop offset="41%" stop-color="#c6c6c6"/>
		<stop offset="51%" stop-color="#c0c0c0"/>
		<stop offset="59%" stop-color="#bbbbbb"/>
		<stop offset="67%" stop-color="#b5b5b5"/>
		<stop offset="75%" stop-color="#afafaf"/>
		<stop offset="81%" stop-color="#aaaaaa"/>
		<stop offset="87%" stop-color="#a4a4a4"/>
		<stop offset="92%" stop-color="#9e9e9e"/>
		<stop offset="95%" stop-color="#999999"/>
		<stop offset="98%" stop-color="#939393"/>
		<stop offset="100%" stop-color="#888888"/>
	</radialGradient>
	<radialGradient id="bordergradient" cx="500" cy="500" r="500" fx="500" fy="500" gradientUnits="userSpaceOnUse">
		<stop offset="0%" stop-color="#444444"/>
		<stop offset="11%" stop-color="#3f3f3f"/>
		<stop offset="22%" stop-color="#3a3a3a"/>
		<stop offset="31%" stop-color="#363636"/>
		<stop offset="41%" stop-color="#323232"/>
		<stop offset="51%" stop-color="#2d2d2d"/>
		<stop offset="59%" stop-color="#292929"/>
		<stop offset="67%" stop-color="#242424"/>
		<stop offset="75%" stop-color="#1f1f1f"/>
		<stop offset="81%" stop-color="#1b1b1b"/>
		<stop offset="87%" stop-color="#161616"/>
		<stop offset="92%" stop-color="#121212"/>
		<stop offset="95%" stop-color="#0e0e0e"/>
		<stop offset="98%" stop-color="#090909"/>
		<stop offset="100%" stop-color="#000000"/>
	</radialGradient>
</defs>
<style type="text/css">
<![CDATA[
.c4 {stroke:#45a211;fill-opacity:0;stroke-width:4}
.fs {font:14px sans;stroke:#ffffff;stroke-width:2px;stroke-opacity:0.8;text-anchor:middle}
.ft {font:14px sans;fill:#000000;fill-opacity:1;stroke-opacity:0;text-anchor:middle}
.sb {stroke:url(#bordergradient);fill-opacity:0}
.sg {stroke:#000000;fill-opacity:0.0;stroke-opacity:0.2}
.sh {fill:#45a211;stroke:#000000}
.sl {fill:url(#landgradient);stroke:url(#bordergradient)}
.sp {stroke:url(#landgradient);fill-opacity:0}
.sr {stroke:url(#watergradient);fill-opacity:0}
.sw {fill:url(#watergradient);stroke:url(#watergradient);stroke-opacity:0.8}
.tb {fill:#eeeeee;stroke:black;stroke-width:2}
.tg {stroke:black;stroke-opacity:0.2;fill-opacity:0}
.th {fill:#45a211;stroke:#378100}
.tl {fill:#aaaaaa;stroke:black}
.w4 {stroke:#ffffff;fill-opacity:0;stroke-opacity:0.6;stroke-width:4}
.zh {fill:#45a211;stroke:#115511}
.zl {fill:#dddddd;stroke:#444444}
.zp {stroke:#dddddd;stroke-dasharray:3 3;fill-opacity:0}
]]>
</style>
<circle cx="500.0" cy="500.0" r="500.0" fill="url(#watergradient)"/>
<path class="sl" d="M833,127l-3,-3h-1v-1h-1v-1h-1h1h-1l-1,-1h-1v-1h-1v-1v1l1,1l2,1l1,1v1h1v1h1l1,1h-1h-1v-1h-1l1,1h1h-1l1,1v1l1,2h1l5,5h-1l1,1v1h1v1h1h-1l-1,-1h-1l1,1v1l-1,-1h-1l-1,-1h-1l-1,-1h-1l-2,-1l-1,-1h-1v1h-1l-1,-1h-1l-1,-1v-1l-1,-1h-1v-1h-1v-1h1h-2l-3,-3h-1l-1,-1h-1l-1,-1h-2v-1h-2v-1l-1,-1v-1h-1l-1,-1v-1l-2,-2h-1v-1h-1l-1,-1h1h-1v-1h1h-1v1h-1v-1l-2,-2v-1l-1,-1v-1h-1v-1l-1,-1v-1h-1v-1h-1l-1,-1l-1,-2h-1l-2,-2v-1h-1l-1,-1h-1v-1h-1v-1h-1l-1,-1v-1l1,1h3v1l1,1h2l2,2h2v1l2,1h1l3,2l1,1h1l1,1l2,1l1,1l2,1h1v1h1h-1l-1,-2l-3,-2v-1h-1l-3,-3h-1h1l1,1h1l1,1v1h1h-1l-3,-3l-2,-1v-1v1h1h-1l-2,-2h-1v-1h-1l-4,-4h-1l-1,-1h-1v-1v1h1l-1,-1h-1l-1,-1h-1v-1h-1v-1h-2v-1h-1l-2,-1l-1,-1h-1v-1l-2,-1h1v1v-1h-1l-1,-1h-1v-1l1,1h1v1h1l2,2h1l1,1h1l1,1h1h-1l-1,-1l-2,-1l-2,-2h-1l-1,-1l1,1h1v1h1l1,1h1v1h1l2,1l1,1h1v1l1,1h1l1,1h1l3,3h1l3,3h1l2,2h1l1,1v1h1l1,1h1l4,4h1l3,3h1l4,4h1l1,1v1h1l2,2h1v1l1,1h1l4,4h1l4,4Z"/>
<path class="sp" d="M781,86l1,1h1v1l1,1h1l1,1h1l3,3h1l3,3h1l2,2h1l1,1v1h1l1,1h1l4,4h1l3,3h1l4,4h1l1,1v1h1l2,2h1v1l1,1h1l4,4h1l5,5"/>
<path class="sl" d="M383,14h-2l-1,1h-1h1l1,-1h1ZM376,16l1,-1l-1,1h-3v1h-4l-1,1h1h-3l-1,1h-3l-1,1h-2l-1,1h-2l-1,1h-2l-1,1h-1h1l-2,1h1l1,-1h1l1,-1h1v1h-1v1h-3v1h-1h1l1,-1h1h-1h2l4,-1l1,-1h4l1,-1h14l1,-1h5l1,-1h4l-2,1l-1,1h1h-1v1h-1v1h-1l1,1l-1,1h1v-1h1v1h3v1h-2l-1,1l1,-1h5v-1h2v-1h2v1l1,-1h1h-1v-1h2l1,-1h1h-1h1l-1,-1h1h-1v-1h1v-1h1h-1l1,-1h-1l4,-1l2,-1h3l1,-1h3l1,-1h1l1,-1h2v-1h1l1,-1h-1v-1h-2l1,-1h3v-1h1l1,-1h-1v1h-1l1,-1h2v-1h5l1,-1h9l1,-1h15v1h-1h1h-1v1l1,-1v1h-2h6v1h-1h1l1,-1h1l-1,1l1,-1h1l-1,1h1v-1h5v-1h2v1h1v-1h1h-1h3v-1h1h-1h2l1,-1h2l-1,1h-1h5v1h-1h1l1,-1v1h1h-1h2l-1,1h-1h6v1h-1h3l-1,1l-2,-1h-2l2,1h1h1h-1h2v1h6l-1,1h-1h9l1,1h2v-1h1v1h1h-2l-1,1h-9v1h-1h1h-1h5l1,-1h10v1h-1h8v2h1h-2h2v1h-1v-1l1,1h-1l-2,1h-8l-1,1h-3l-2,1h-2l-1,1h-10l-2,1l-1,-1h-12l-1,1l-2,-1l-2,1h-10v1h-1l-2,1h-1v1h-5l-1,1h-2l-2,1h-2l-1,1h-1l-1,1h-1l-1,-1v1l-2,-1h-3l1,1h1l1,-1l2,1h1v1h-1l-2,1h-1l-4,2h-2l-2,1h-2l-1,1h-1l-3,1h-2l-1,1h-1l-1,1h-2l-1,1h-1l-2,1l-3,1h2l3,-1h7l3,-1h5v-1h4v-1h2l1,-1h1v-1l1,-1h1v-1h2l2,-2h2v-1h1v1h4v-1h1v1h2v1l-1,1v2h2v1h-1h1h-1v1h2v1h1h-3l-1,1h-3v1v-1h-2l-1,1h-1v-1l-1,1h-1v1h-2l-1,1h-4l-2,2h-1l-1,1h-1v1h-1l1,1h-2v1h1l1,1h-1h1v1h2l1,-1h-1v-1h1l1,1v1h-4l-1,1v-1l-2,1h-2l1,-1l-1,1v-1h-1v1l-1,1h-4l-1,1h-5l-1,1h-3v1h-2v1h-1l2,-2h-1v1l-1,1h-1l-1,1h2v1h-1v1l-1,1v-1h1h-1v1h-1l-2,2h-1l-2,2v-1h-1l-1,-1h-1v-1l1,-1h2v-1v1h-2l-1,1h-1v1h1v2h1v2h-1v1h-1v1l-3,2h-1v1h-1l-1,1v-1h1v-1l1,-1h1v-1h-1h1h-1v-1h1h-3v-1h2l-1,-1h-1v1l1,-1v-1h1v-1h2v-1h-1h1h-1v1h-1v-1v1h-3l1,1h-1l1,1h-1v2h-1v-1v1h1v1h-2l-1,-1v1l-1,-1l-1,1v-1l1,-1h1v-1v1h-1l-2,2h5v1h1v1h-1l-2,-1h-1v-1h-1l1,1h1v1h3l-1,1h1h-1v1h-1l-2,-1h1v1h2v1h-2v-1h-1h1v1h4v3l1,1v1v-1l-1,-1v-2h-1v1l1,1h-2l-1,1v-1v1h-4v1h3v-1h2v1h-1v1h1v-1l1,-1h1v1h-1l-2,2h-6l2,1h1h-1v1h-3l1,1h1l2,-1v1h-2l-1,1h-2l-1,1h-1v-1v1l-1,1h-2v1h-1l-1,1v-1v1l-1,1h-4l-2,1v1l-2,1l-1,1v-1v2h-3v1l-1,1h-2v1h-2l-1,1h-1v1h-2v-1v2h-1v1h-1l-1,1h-1v1h-1v1h1h-1l-1,1h1l-1,1h-1v1h-1v6l1,1l2,5h1h-1v3l-1,-1l1,-1v-1l-1,1v-1v2l2,5l1,1v1l-1,1l-1,3v1h-1v1l-1,1v1l-1,1h-1v1h-3l-1,1h-1v-1h2l-2,-2v-1h-2l-1,-1v-2h-1l1,-1l-1,1v-2l1,-1h-1l-1,1h-1v-1l-1,-2h-1h1l2,-2v-1l-1,1v-1h-1l1,1l-1,1h-1v-1l2,-4l1,-1v-2l-3,-1l-2,-2l-3,-1l-1,1h-1v1h-1l-2,1h-2v1h-2v-1h-1l-1,-1h1v-1v1h-5l1,-1h1h-2l-1,1h-1l-2,1h-1l1,-1h-1v1h-1l-1,1v-1v1h-1l-3,1h1l1,-1h-1v-1h-1v1h-1v1h-5l-1,1h-1l-1,1l-2,1h-2v-1h-1l-2,2h3v-1h1v1h1l1,-1v1l-1,1h-1h1h-1v1h-1h1v1h3l-1,1h-1v1h-1l1,-1h-1l-1,-1v1h-1v-1h-1v1h-1v1h-3l-1,1h-3v-1h-2v-1h-2l-1,1v1h-1l-3,1l-1,-1h-1l-1,1h-3v1h-1v-1h1v-1l-1,2l-5,2l-1,1l2,-1h-1v-1h-1v1h-1v2l-1,1h-1l-4,4h-1l-1,1h-1l-1,1h-1l1,-1h1h-2v1h-1v-1l-1,1l1,1h-1l-1,1v-1l-1,1v1h-1l-2,2v1h-2l1,1l-2,2h-2v1h1v1h-1v5h1v1l-4,4l-3,6l-1,3l-1,1l-2,5v1h-1v4l-1,1l1,1v1h1v1l-1,1v-1h1v-1h-1l-1,-2v3h1v5l2,2l1,2l1,1v2l1,1v1h1h-1l1,1h1l-1,-1h6l1,1v1h1l4,-2l1,-1h2l4,-2h1v-1h1l1,-1h1l1,-1h2v1h3v-1l2,-1v-1h-1h1h-1l2,-2h1l1,-1l2,-1v-3l2,-2l1,-2v-2l1,-1l1,-2l1,-1l2,-1h1l7,-3h1l1,-1h1l2,-1h5l1,-1h1h-1h1l1,-1l1,1h1l-1,1l1,1l-1,1h-1v1l-1,1l-2,1l-1,2l-1,1v2h-1v1l-1,1h1v1h-1v1h-1h2l-1,1l-1,2l-1,1v2h-1v1l-1,-1v-2h-1v1l-2,2h2v1l-1,2l-1,1v2l-1,1v2l-1,3l-5,5v1h2l1,-1h-1l3,1h1v-1h1v-1h5l3,-1h3l2,-2h2v-1h6l1,-1h3v1h1v-1h2l3,2h-2v1h2v1l1,-1h1l-1,-1l2,1v1h1v1l-1,1v-1l-1,1h1l1,3h-1v1l-1,1v1l-2,5v2l-1,3h1v1h-1v-1h-1v4h-1v2l1,-1v2h-1v1h-1v3l1,1h1v1l1,2v1l2,2h1l1,1v1h2l1,1h1l-1,1l1,1l1,-1v1h-1v1h4v-1h-1h2l2,2l1,-1h2l1,-1l2,-1l1,-1l5,-2v-1h1l2,-2h4l1,1h2l2,-1l5,2l1,1l3,2h-1v2l2,2v1h-1l-1,1v1l-1,1h-1l-1,-1v2h-1v2h-1l-1,-2l-2,-2v-2h1v-1l1,-1h1l1,1h1h-1l-1,-1v-1h-1l-1,1v-1h-1v1h-1v-2h-1l-1,-1h-1l-1,-1h-2l-1,1h-1l-2,2v1l-3,2l-1,1h-1l-1,1v1h1l2,2v1h1l-1,1h-2v1l-1,1h-2l-1,1l-1,-1v-1l-1,-2v-1h-1v2h-2l-2,-2v-1h-4v-1l-1,1h-4v2l-1,-1v-1h-1v-2h-2l1,1v1h-3l-1,-1l1,-1v-3l-2,-1h-1l-1,-1h-3v-1l-1,-1l-2,-1l-1,-1h-1v1l1,1h2v1l-2,2l-1,-2h-3l-1,-1v-2l1,-2h1h-1l1,-1h-2v-1l1,-1v-1l-1,-1l-4,-2l-2,-2v-1l-2,-1h-1l-1,-2h-2v-1h1v-1v1h2v-1h-1v-2h-3v2h-1l-1,1h-2l-1,-1l-1,1h-1l-3,-1h-6l-3,-1h-1l-3,1h-4l-1,-1l-3,-1l-1,-2l-2,-1l-2,-2l-2,-1l-2,-2h-2l1,1h-4v-1h-2l-1,1h1l-2,1l-2,2l-6,3l-1,1h-5l-3,1l-3,-1h-2l-1,-1h-12l-1,-1h-2l-2,-2h-1l-2,1h-6l-1,-1v-1l-1,-1h-5v-1l-1,-1l-1,-2v-2l1,-1h1l1,-1v-1h-1l2,-2v-2l1,-1l-1,-1v-2l1,-2v-1l-2,-2v-1l-1,-1v-1l-2,-2v-1h-2v-2l1,-1h-3v-1v1h-1v-1l1,-1v1h-1l-1,1v-2l2,-2v-1v1l1,-1h-1l1,-1h-2v-2l-1,1l-1,-1v-2l1,-1h-1v1h-1v-2h-1v-2h-1l1,-1v-3l1,-1v-3l1,-1v-1h1v-1h-1v1h-1l1,-1h-2v1h-2l-1,1v1l-2,2v1l-1,1v1l-1,2h-1v1l1,1v3l1,-1v1h-1h1v2l-1,1v2h1l-1,1v1h1v2h-1l1,1v-2l1,1v1h-1v3l-1,1v1h1l-1,2h1v1h-1v2l-1,1l1,1l1,-1v-1l1,1v1h1l-1,1h1v1l-1,2l-3,3v-4h-1l-2,-2h-1v-1v1h-1v-3l1,-2l1,-1v-1l1,-1l-1,-1h-1v-2h-1l-1,1h-2v-1l-1,1v-2h-1v-1h1l1,-1h2v-1v1v-1h1v-1l-1,1l1,-1l1,-2l1,-1v-2l-1,-1h-1v-3l1,-1v-2h1l-1,-1h1v-2l1,-1v-1l1,-1v-2l1,-1v-1h1v-2h-1l-1,1l1,-1v-1v1h-3v1h-1l-1,1v-1l2,-2v-1v1v-2h1v-2l2,-2v-1h1h-1l1,-1v-1h1v-1h1v-1v1l1,-1v-1h1v-1h1l1,-1h-1v1v-1v1h-1v1l-1,1h-1l-1,1l2,-2v-1l6,-6v-1h1v-1h1v-1h1l9,-9h1v-1l1,-1l2,-1v-1h1h-1l1,-1h1v-1l2,-1l2,-2h1v-1h1l4,-4h1l3,-3h1l2,-2v-1h1l3,-3h1l2,-2h1l4,-4h1l2,-2h1l3,-3h1l2,-2h1l3,-3h1l2,-2h1l2,-2h1l1,-1h1l3,-3h1l2,-2h1l2,-2h2l2,-2h1l2,-2h1l1,-1h1l2,-2h1l2,-2h2l2,-2h1l1,-1h1l2,-2h1l1,-1h1l1,-1h1l1,-1h1l2,-2h2l1,-1h1l1,-1h1l2,-2h2l2,-2h1l1,-1h2l1,-1h1l1,-1h1l1,-1h1l1,-1h1l1,-1h1l1,-1h2l1,-1h1l1,-1h1l1,-1h2l1,-1h1l1,-1h1l1,-1h2l1,-1h1l1,-1h2l1,-1h1l1,-1h2l1,-1h1l1,-1h2l1,-1h2l1,-1h1l1,-1h2l1,-1h2l1,-1h2l1,-1h2l1,-1h2l1,-1h2l1,-1h2l1,-1h2l1,-1h3l1,-1h2l1,-1h3l1,-1h2l1,-1h4l1,-1h1Z"/>
<path class="sp" d="M378,15h2l1,-1h2M180,116l3,-3h1l3,-3h1l2,-2v-1h1l3,-3h1l2,-2h1l4,-4h1l2,-2h1l3,-3h1l2,-2h1l3,-3h1l2,-2h1l2,-2h1l1,-1h1l3,-3h1l2,-2h1l2,-2h2l2,-2h1l2,-2h1l1,-1h1l2,-2h1l2,-2h2l2,-2h1l1,-1h1l2,-2h1l1,-1h1l1,-1h1l1,-1h1l2,-2h2l1,-1h1l1,-1h1l2,-2h2l2,-2h1l1,-1h2l1,-1h1l1,-1h1l1,-1h1l1,-1h1l1,-1h1l1,-1h2l1,-1h1l1,-1h1l1,-1h2l1,-1h1l1,-1h1l1,-1h2l1,-1h1l1,-1h2l1,-1h1l1,-1h2l1,-1h1l1,-1h2l1,-1h2l1,-1h1l1,-1h2l1,-1h2l1,-1h2l1,-1h2l1,-1h2l1,-1h2l1,-1h2l1,-1h2l1,-1h3l1,-1h2l1,-1h3l1,-1h2l1,-1h4l1,-1h2"/>
<path class="sl" d="M568,271l1,-1v-1h1l2,2l2,6v2l2,3v3l1,1v1l2,2h1l1,1h1l1,1l1,2v2h-2v1l-2,1v1l-4,4h-2l-1,2h-1v1l-2,2h-1l-1,2v2l-1,1h-1v2h-3l-2,1h2l1,1h2l3,-2h1l2,-1v-1h2v-1h1l1,1h-1v1l1,1v1l1,2v1h1l1,2l1,-1h4l1,1l1,-1l3,-1l-2,4v3h-1v1v-1h1v-1l1,-1l1,-3h1l1,-1l3,-2h1l1,1v-1h1l-1,-1v-2l3,-3h5v1h1v-1h2v1h3v1l1,1h2v1h2l1,1l1,-1v1l2,1l1,1h1l1,2l1,1v-1l1,-1h1v1h1l1,1v1h1h-1h1l1,1v2l-1,1h-1h1v1l2,-2v1l1,1h-2v2l-1,1v3l2,-1v-2l2,-2h1v1l-1,1v1l2,-1v-1h4v-1h2l3,1v1l5,3h5v1l2,1h10l4,2l1,1h1l1,1l3,2l10,10l1,2l2,1l1,2l2,1h1l1,1h1l2,1h3l3,1h1l1,1l1,3v3l1,2v2l1,4v10l-1,1v2l-2,4l-2,3l-3,3h-1v1l-5,5h-2l-6,6v-1l-1,1v2l-2,4l-6,6h-1v-2l-1,-1l-1,1h-1l1,1l-1,1v1l-2,2v5l1,1l-2,5v8l1,2l-2,6l-2,4v6l-1,1h-1l-3,3l-1,3v7l-1,1v1l-2,1l-1,1l-1,2l-1,1v1l-1,1l-1,2h-1l-1,1v1l-2,1l-1,3l1,1l-1,2v1l-1,1l-3,1h-1l-3,2v2l-1,1h-7v-1h-1v-1h1v-1h-2v2h-1l-1,1h-3l-1,-1h3l-2,-1h-1l-1,1h-4v1l1,1h-4l-2,2h-1v1h-1v1l-1,-1h-3l-7,3l-2,2l-4,3l-2,1h-1v2h-1l-1,2h-1l1,-1h-1l-1,-1v2h-2v-1v1l1,1h1l-1,2h-1v3l-1,1v7h1v1l-1,1v4l-1,3v2l-1,1v1l-4,2l-4,4l-2,4l-3,5l-3,4l-1,1l-1,2l-4,4l-3,1l-2,2v-3h1v1h1v-1h1l2,-2h1l1,-1v-2l1,-1l1,1v-2l2,-2v-2h1v-2l-3,1v-1h-1l-1,-1v-1v2l1,1v1h-1v2h-1v1l-1,1v1l-2,2h-2v2l-1,1l-1,2v2h1l-2,2v1l-2,3l-2,4l-1,1l-3,2l-1,1l-2,4l-2,2l-2,1l-1,1l-4,1h-2l-1,-1h-4l-2,1h-1l-1,-1l-3,-1l-2,-2h-5v-1l-4,-4v-4l1,-2h-1l1,-1h1v-1l1,-1l-1,-1v2l-1,1h-1v2l-1,3v1l1,1v3h-1l2,4l4,1l4,4v2l-2,1v3l3,3h2v5l-5,7l-1,1v2h-1l-4,2l-5,2l-5,1l-1,1l-7,1h-8l-1,-1h-1v3l1,1h1l-1,1h1v3l-1,1h-1v5l1,1v2h-1l-3,2h-2l-3,1h-1l-2,-2h-2l-2,-1h-1v-1h-1l-1,1v4l1,2v4l1,1l2,1h1l-1,1h4v-1h-1v-1h3l1,1v4h-1l-2,1l-1,-1v-1l-1,-1h-2l-1,1h-1v1l4,2l-2,1l-1,1h-1l-1,2v8l-2,2v1l1,1l-1,1l-3,-1l-2,2l-2,1l-2,3l-1,1l-1,2v2h1v2l1,1l4,3h5l1,1v4l-1,1h-1v1h1l1,-1v2h-1l-2,3h-1l-2,2h-1v1l-2,4v5l-2,2h-1l-2,-2v-1v2h-1h2v2h-1l-2,2v4h-1v1l1,-1l1,1v1l1,2h-1l-1,1h-1h3v1l4,4h-3l-1,-1h-1l-1,1v1l-1,1h-1l-2,1h-1l-1,1v8l-1,1h-1l-1,-1h-2l-3,-3h1v-1h2v2h1v-2l2,-2v-1l-1,-1l-2,2l-2,1v1l-1,1v1h-1l-2,-1v-1h1l-1,-2l1,-1h1l2,-1h3v-1h-4l-1,1v-1h-1l-1,1h1l-1,1v2l-1,1h-1l-2,-2l2,-1v-1h1l-1,-1v1h-1l-1,1h-2v-2h-1v-1h-1v-1h1l1,1l1,-1v-1l1,1h1l1,-1h1v-1h1v1h1v1l-1,1h1v-2h-1v-1l1,-1v-1h-1l-1,-1l-2,-1l-1,1h3v1h1v1h-2l-2,2l-2,-2h-3l1,-1h1l-1,-2v-1h-4v-1h-1l-2,-2l1,-1h1v-1h-1v-1h1l2,1l1,2l2,1v-2l1,-1h-1v-1v3h-1l-1,-1v-1l-1,-1l2,1l-1,-1h-2l-1,-1v-2h3l-2,-2h-1v-1h1v-1h1l1,1l-2,-2v-1v2h-1v-1l-1,-3v-1l-1,-2l1,-1h1h-3v-1l-1,-1v-2h1l1,1l2,-1l2,1h1h-1v-1l-1,-1l-1,-2v2l-1,1h-2v-1h-1l-1,-1v-1h1l1,1l1,-1h-1l-1,-1v-1l1,-1v-2l-1,-1h-1v1h-1l-1,-1h-1l-1,-1v-1v1h-2l-1,1h1l1,1l-1,1l-1,-1v-1h-1l3,-3v-1l1,-1l-1,-1v-1l1,-1h3l1,-1v-2l1,-1v6l-2,1h2l1,-1v-2h1v4l-1,1v1h1v-2l1,-1h-1v-4h-1v-2h1l1,-1h2l-1,-1h-2v-2l1,-1h1l2,-2v-2h-1l-1,-1h-1l-1,-1v-2l1,-1v-1l-1,-2v-2l1,-1v-1l-1,-1v-1l1,-2v-1h-1v-1h2l1,1l-1,-1v-2h-2l-1,-1h1v-1h1l1,-1v-1v1h-2l-1,-1h-1v1l-1,1v1h-4v-1h1v-1h-1l-1,-1v-1l-1,-1v-8l1,-1l-1,-1l2,-2v-5l-2,-4l-1,-1v-5l-2,-2v-4h2l1,-1v-4l1,-1v-5l1,-1v-3l1,-1v-2l1,-1v-1l1,-3v-7l1,-2l1,-1l-1,-1v-1l-1,-1l1,-1v-1l1,-2v-3l-1,-1v-4l-2,-5v-1l-1,-2v-4l2,-2v-7l-1,-1l-1,-2v-1l1,-1v-1l1,-1v-6l1,-1v-5l1,-2v-5h1l-1,-1v-7l1,-1v-2l-1,-3v-9l1,-1v-1h-1l-1,-1v-3h1v-1l1,-1v-11l1,-1v-2l-2,-4v-2l1,-3l-1,-3v-3l-1,-2l-1,-4v-4h-1v-1l-3,-1l-2,-2l-3,-1v-3h-1l-2,-1h-1l-1,-1h-1l-2,-1v-1l-1,-1h-3l-1,-1l-3,-1l-1,-1h-4l-2,-2l-8,-4h-1l-1,-2h-1l-1,-2l-4,-2v-1l-3,-3v-1l-1,-1h1l1,-3l-3,-3v-1l-1,-2l-2,-2v-1l-2,-1v-1h-1v-2l-1,-2l-3,-3l-1,-2v-1l-4,-5v-1l-4,-8l-1,-1l-1,-2v-1l-1,-2l-2,-2l-2,-1v-1l-2,-3v-1l-5,-5l-7,-3h-1l-1,-1l1,-1v-1l1,1v-1h1v-1l-1,-2l-2,-2l1,-1l-2,-2v-4h1l2,-4l3,-3l2,-1v-1h1l2,-2l1,-3v-6l-1,1v3l-1,1v-2l-2,2v1h-1v-1l-2,-1h-2v-1h-1l2,-2v-2l-1,-1l1,-2l-1,-1v-2l2,-1l1,-1v-2h1l-1,-1v-1l1,-2h1l2,-2v-4l-1,-1l1,-1h1l2,-2h2l1,-1l3,-1l1,-1v-1l-1,-1h-1l2,-2h2v-1l-1,-1l1,-2v-1l1,-1h3v-1h1v-1h1v-1h1v-2h1l1,-1v-1l1,-1v-1l3,-3h-2v-1l-1,1v-3l-1,1v-1h1v-1l1,-1v-2l-1,-2l1,-1l-1,-1v-1l-1,-1l2,-1l1,-1l-2,-2v-1l1,-2v-1h-1l-1,-1v-1h-1l-1,-1v-3h1v-2l1,1h1l1,-1v-1l1,-1h1v-1l-2,-2v-2h1v1h1l2,2h1l-1,1v1h1v-5h-1l1,-1h1l4,-3l1,-2l1,-1h2l1,-1v-3l1,-1v-2l-1,1l1,-1l1,-2l2,-1v-1l1,-1l2,-1v-1l5,1h-2v1h1l2,-2v-2h7l5,-4l3,-1h1l1,-2v-1h2v-1h2l1,-1h1l2,1v1l1,1l-2,1v1l-5,1v3l2,2h-1l1,1v3l-2,1v1h-1l-1,3l2,2v1l1,1v1h1l2,-1h1v-1l1,-1v-1l1,-1l-1,-1l-1,-2l-1,-1l-1,-2v-3l2,-1l4,-1l5,-2h1v-1h3v-1h-4v-3l1,-1h2v1h1v3l1,1h1l2,-1l2,1h4l2,2v3l1,1h5l5,-1l6,-1l2,1l2,2h3l1,1h4l6,-3h4v-1h-4l3,-1h8l2,-1l4,1l3,-1l-1,1h-2l-1,1h-4v1h1v2h-1h2v-1l1,2l1,1h1v-1h2l1,1v1h1v-1h1v-1l1,1l2,1v1h2l1,1h1v1h-1l-1,1v1h-1v2l-1,1h-2v1h4l1,-1h8l2,2v-1l1,1h1l6,4l3,3v2l-1,2v2l-1,1h1v-1l2,-2h3l2,2l2,1v1h2l1,1v5l1,-1v-2h8l2,1v1l1,-1l-1,-1h10l4,1h2v1h1v1l-1,1v1l1,-2l1,-1l4,2h1l5,2l2,2l2,1l-1,1h1l2,1l1,1l-1,1v1l1,-1v-2h1v1l1,2v1Z"/>
<path class="sl" d="M918,699l3,-8l3,-6l2,-7v-2l1,-3v-3l2,-5v-1l1,-2v-2l1,-1v-1h1v-2l1,-3l2,-4v-2l1,-1l1,-3l1,-2v-3l1,-1l1,-3l1,-2v-1l1,-2v-1h1v-1h1v-3l1,-2v-4l1,-2l1,-7v-3l1,-3v-2l2,-10v-10l2,-4v-2l1,-3l1,-1v-2l1,-4v-1h1v-1h1v-1l3,-6l1,-5l4,-8h2l1,-2v-1l1,-2v-3l1,-3v-3l1,-1v-1l-1,-1l1,-1v-12l1,-2h1v-19l-1,-3v-2h1l1,1h1l-1,-1h-1v-2h-1v-2l1,-1v-4l-1,-1v-5l-1,-3v-3l-1,-1v-5l-1,-1v-3l-2,-6v-1v1l1,1v-1l-1,-1v-3l-1,-1v-1l1,1v-1l-1,-1v-3l-1,-2l1,3v1h1v-1h-1v-2l-1,-1v-4l-1,-3l1,1v1v-1h1v-6h1v2l1,1v-1l-1,-1v-2l-1,-1v-1h1v1v-4l-1,-1l1,-1v-3l1,-1l-1,-1v-6l1,-1l-1,-2v-3h-1v-3l1,1l-1,-1v-1h-1v-1l-1,-1v-4h-1v-1h-1v-3l-1,-1l1,2v1l-2,-2h-1v-1h-1v-2h-1l1,1l-1,1v-3h-1v1l1,1v1l-1,-1v-1v1h-1v-1h-1v-1l-1,-1l-1,-3v-1l-1,-1v-4l-1,-1v-1l1,1v-1h-1v-1v1v-2h-1l-1,-3l-1,-2l-1,-1l-1,-2l-2,-2h1v-1h-2v1l-2,-2l-4,-2h-3v1h-1l-2,-2l-2,1h-7l-1,1v-1l-2,-2l-1,-2l-1,-1h-1v-1v1v-2l-1,-1v2l-3,-2v-1l-1,-1h-1l-1,-1h-1l3,2l-3,-1l-2,-2h-1h1v1l-4,-2h-1l-2,1l-2,-1v1h-4l-2,-2l-1,-2l-5,-6l-2,-2l-1,-3l-4,-6l-2,-2h-1v-1l-4,-4l-1,-2v-1l-1,-1l-2,-1l-2,-3h-1v-3h-2v-1l-1,-1v-2h-1v-1h-1v-1l-1,-1v-1h1v1h1v-1h-1l-1,-1v-1h1v-1h-1v-2h-1v-2h-1l-1,-1v-2l-1,-1v-1v1v-1l-1,-1h-1v-1h-1l-1,-2l-2,-2v-2h-1v-2h-1v1h-1v-3h-1v1v-1l-2,-2h1l-1,-1l1,-1v1h1v-1h-2l-1,-1v-1h2l-2,-1l-1,1h-1l-1,-1l1,-1h-2l-1,-1v-2h-1l-3,-3h2v-1h-1v1h-1v-5l-1,-1l1,-1v1l1,1h1v1h1v-1h1l1,1h1l-1,-1h-4v-1l-1,-1v-1l-1,-1v-2h-1l-1,-1v-2l-3,-3h-1l-1,-1h3l2,-4v-1l-1,-3v-4l1,-2v-4l-1,-3l-1,-2l-1,-1l-1,-2l-1,-1l-1,-2h1v-1h-1v-4l-2,-4h-1l-1,-1l-2,-3l-1,1l1,1h-1v-4l-1,-3v-1l2,-2v-6h-1v-1h1v-1h1l1,-2h1v-1l-1,-2v-6h2l1,-1v-3l-1,-1v-1h1v-1h1l1,1h5v-1h1l1,-1v-1l1,-1v-2l-1,-1v-1l-2,-1v-1l-1,-1v-1l-2,-2v-3l-1,-2l1,-1v-1h5v-1l-1,-3l-2,-4h-1h2v1v-1l1,1v1h1l1,2l2,1l1,1l2,1h1v1h1l1,1h2v1l1,1h1v1h1l1,1h1l1,-1h1v1h1v1v-1h2l2,1l2,2l2,1l3,3h1v1l2,1l3,3h1h-1h1l2,2v1h1l4,4v1l2,1v1h1v1h1v1l4,4l1,2h1v1l2,2v1l2,2v1l4,4v1h1h-1h1l1,2h1v1l1,1v1h1l2,3v1l1,1h1l1,2l2,2l1,2l2,2v1l2,2v1l2,2v1l2,2v1l1,1h1v1l1,1v1l2,2v1l2,2v1l2,2v1l1,1v1l2,2v1l2,2v1l2,2v1l1,1v2l2,2v1l1,1v1l2,2v1l2,2v2l2,2v1l1,1v1l1,1v1l1,1v1l1,1v1l1,1v1l2,2v1l1,1v2l2,2v2l1,1v1l2,2v2l1,1v1l1,1v1l1,1v2l2,2v2l1,1v1l1,1v1l1,1v2l1,1v1l1,1v2l1,1v1l1,1v1l1,1v2l1,1v1l1,1v2l1,1v2l1,1v1l1,1v2l1,1v2l1,1v2l1,1v2l1,1v2l1,1v2l1,1v2l1,1v2l1,1v3l1,1v1l1,1v3l1,1v3l1,1v2l1,1v3l1,1v3l1,1v3l1,1v3l1,1v3l1,1v4l1,1v3l1,1v5l1,1v3l1,1v5l1,1v5l1,1v6l1,1v5l1,1v7l1,1v9l1,1v10l1,1v15l1,1v43l-1,1v16l-1,1v10l-1,1v9l-1,1v6l-1,1v6l-1,1v6l-1,1v5l-1,1v4l-1,1v5l-1,1v3l-1,1v4l-1,1v3l-1,1v4l-1,1v3l-1,1v3l-1,1v2l-1,1v4l-1,1v3l-1,1v2l-1,1v2l-1,1v2l-1,1v3l-1,1v2l-1,1v2l-1,1v2l-1,1v2l-1,1v1v-1v2l-1,1v1l-1,1v1v-1v1l-1,1v1l-1,1v-1v1l-2,4v1l-1,1v2l-1,3l-1,1l-1,3v1l-1,2l-1,1v1l-1,1h1v-1v1l-1,2l-1,1v1l-1,2l-2,3h-39Z"/>
<path class="sp" d="M905,207l2,2v1l2,2v1l2,2v1l2,2v1l1,1h1v1l1,1v1l2,2v1l2,2v1l2,2v1l1,1v1l2,2v1l2,2v1l2,2v1l1,1v2l2,2v1l1,1v1l2,2v1l2,2v2l2,2v1l1,1v1l1,1v1l1,1v1l1,1v1l1,1v1l2,2v1l1,1v2l2,2v2l1,1v1l2,2v2l1,1v1l1,1v1l1,1v2l2,2v2l1,1v1l1,1v1l1,1v2l1,1v1l1,1v2l1,1v1l1,1v1l1,1v2l1,1v1l1,1v2l1,1v2l1,1v1l1,1v2l1,1v2l1,1v2l1,1v2l1,1v2l1,1v2l1,1v2l1,1v2l1,1v3l1,1v1l1,1v3l1,1v3l1,1v2l1,1v3l1,1v3l1,1v3l1,1v3l1,1v3l1,1v4l1,1v3l1,1v5l1,1v3l1,1v5l1,1v5l1,1v6l1,1v5l1,1v7l1,1v9l1,1v10l1,1v15l1,1v43l-1,1v16l-1,1v10l-1,1v9l-1,1v6l-1,1v6l-1,1v6l-1,1v5l-1,1v4l-1,1v5l-1,1v3l-1,1v4l-1,1v3l-1,1v4l-1,1v3l-1,1v3l-1,1v2l-1,1v4l-1,1v3l-1,1v2l-1,1v2l-1,1v2l-1,1v3l-1,1v2l-1,1v2l-1,1v2l-1,1v2l-1,1M956,700h-39"/>
<path class="sl" d="M489,231h-1l1,-1h1ZM463,217v1l-1,1h-1l-1,-1h-1l1,-1v1h1l1,-1ZM451,219h-1v-1h1ZM487,233v-1l1,-1v1h1h-1v1ZM456,168h-1v-1h1ZM458,168h-2l1,-1ZM457,171v1l1,-1l-1,1h-2l1,-1ZM445,167l1,1v-1h2l1,1h1v1h-2v1h-1l-2,1h-8v-2h-1v-1h1v-1h3ZM451,169h-1h2ZM431,171l-1,-1h1ZM415,53h2v-1h2l-3,1h-1l-1,1h-1l-3,1h-4v-1h4l1,-1h4l1,-1h1l-1,1ZM446,39h-1l1,-1ZM404,56h-1l1,-1h1ZM429,50l-2,1h-1l1,-1h1ZM424,50h-1ZM432,50l-1,1l-1,-1h1ZM388,76l-1,1v-1ZM387,79h-1h1l1,-1v-1v2ZM386,80h-1ZM380,83l1,-1ZM329,131h-1ZM328,131v-1ZM339,137l-2,1l1,-1h1v-1h1ZM268,128h-1v-1h1ZM231,146v-1h1v-1h1l-1,1ZM233,144l2,-2h1l-1,1ZM228,150h-1l2,-2ZM246,135l2,-1ZM226,156v1v-4l1,-2l-1,2ZM138,165v1ZM141,165h-1v-1h1h-1v1ZM139,163h-1l1,-1ZM140,161h1l-1,1ZM143,162h-1ZM403,59l-1,1ZM393,67h-1l1,-1h1l1,-1l-1,1ZM380,83h-1ZM331,141v-1ZM337,139h-1l1,-1ZM333,140h1ZM340,106l-1,1ZM329,141v1v-1h1ZM343,124v1v-1l-1,-1v-1h1ZM290,119h-1ZM294,118h-1ZM286,121h-1l1,-1ZM288,121l-1,1l1,-1v-1ZM314,117h-1h1l1,-1ZM644,804h-1v-1h1ZM612,764h2v2h1v2h1v2h-2v-3h-1l-3,-3h-1v-1h-1v-1l2,1h1ZM888,514v-1ZM851,425v-1l1,1ZM76,624h-1v-1v1ZM471,168h-1ZM324,174h1ZM336,170h-1ZM337,170h-1l1,-1ZM462,87l-1,1v-1ZM460,167h-1l1,-1ZM458,167h-1h2ZM461,165h-1ZM402,149h-1h2ZM401,149h-1v-1ZM397,149l1,1l1,-1l-1,1h-1ZM478,178h-1l1,-1ZM775,83h1h-1v-1ZM772,81h1ZM768,78h-1v-1l1,1l-2,-1l-1,-1h-1v-1h-1h1v1h1h-1v-1h-1l-1,-1h-2v-1h-1v-1h-1h1v1h2v1v-1h-1l1,1h1l2,2h1l1,1h1ZM760,73h-1l-2,-2h-1v-1h-2v-1h-1l-1,-1h-1v-1h-1l1,1h1h-1v-1l2,2h1l2,2h2l1,1ZM750,67h1ZM747,66v-1Z"/>
<path class="sp" d="M760,73l1,1h1l2,2h1l1,1h1l1,1M751,67l2,2h1l2,2h2l2,2M750,67h1M747,65v1"/>
<path class="sl" d="M735,59v-1h-2v-1h-2v-1v1v-1h-2v-1h-2v-1h-1h1v1h1l1,1h1l1,1h1l1,1h1Z"/>
<path class="sp" d="M727,55h1l1,1h1l1,1h1l1,1h1l1,1"/>
<path class="sl" d="M769,78v1Z"/>
<path class="sp" d="M769,78v1"/>
<path class="sl" d="M888,185v-1ZM892,190l-1,-1v-1v1ZM489,216l1,-1h1ZM487,224h-7l2,-1h1v-3h-1v-1h5l1,-1l-1,1v3h1l-1,1ZM842,138h-1v-1v1ZM841,136l1,1h1v1l1,1l-1,-1h-1v-1h-1v-1h-1v-1ZM845,139l-2,-2h-1h1v1h1v1ZM840,137v-1h-1h1ZM801,154v2h-1l-2,-2v-1l1,1h1l1,-1l1,1ZM814,157h-1v-1h1l1,1ZM813,160v1l-1,-1h1v-3l1,1v1h1v1ZM807,158v1h1v1h-1v-1h-1l-1,-1v-1ZM797,155v-1h-1h2v1ZM794,155h-1v-1h-1h2ZM792,151v-1l-1,-1v-1l1,1v1h1ZM863,306h-1l-2,-2h2v1h1ZM960,410v-1ZM957,419v-3l1,1v1ZM486,202h-1v-1h1ZM486,203h-1ZM485,205h-1ZM488,197v1h-1v-1l1,-1v-1v1ZM475,175h-1ZM474,174h-2l1,-1v1ZM783,128h1l1,1h1h-2ZM726,93h-1ZM684,74h-1v-1ZM710,82h-2l-1,-1h1l1,1ZM706,82h-1l-1,-1h-1l-1,-1l2,1ZM701,81h-1l-1,-1h1ZM704,82h-2v-1h-1h1ZM720,88l2,1h1h-1l-2,-1h-1ZM336,248v1l-1,-1v-1h1ZM314,259h-2v-2h1v1h1ZM310,244l-1,1v-1ZM335,249h-1v-1ZM958,387v-1ZM426,211v1v-1h-1v-1ZM472,173h-1ZM412,210h-1v-1h1ZM422,212h-2l-2,-1v-1h1v1l2,1ZM284,175v1v-2h1v-1h1l-1,1ZM160,205v1l-1,-1h1v-1ZM130,235h-1h1v-1ZM148,193h-1ZM148,174l-1,-1l1,-1v1h1ZM136,185h-1l2,-2v1h-1ZM152,172l-1,2h-1l2,-2v-1h1h-1ZM126,188v-2h1l-1,1ZM248,194h-1l2,-1h-1ZM149,196v-1ZM148,188l-1,1l1,-1v-1ZM140,199v1l-1,-1ZM139,199v1v-3l2,-2l-2,3ZM822,209l-1,-1h1ZM988,611v-1ZM988,610v-1ZM10,599v-1ZM356,175h2l1,1h3l1,1v1h-5v1h-2l-1,1l-1,-1h-4l-1,-1h-2v-1l1,-1h2v-1h5ZM861,154l1,1l-1,-1v1h1l-5,-5v-1h-1l1,1l-1,-1l4,4Z"/>
<path class="sp" d="M851,144l10,10"/>
<path class="sl" d="M860,153h-1Z"/>
<path class="sp" d="M849,142v0"/>
<path class="sl" d="M724,53h-1ZM727,55v-1h-1h1v1h1h1v1h2v1v-1v1h2v1h2v1h1h-1h1l1,1h1l1,1h1l2,2h1l1,1h1h-1l-1,-1h-1l-1,-1h-1h1v1v-1h-2v-1h-2l-1,-1h-1v-1h-1l-1,-1h-1h1l1,1l-1,-1h-1h1l1,1h1h-1v-1h-2l-1,-1h1h-2l-1,-1h-1v-1h-2v-1l1,1l-1,-1h-1h1h-1l-1,-1h-1v-1h-1h1v1h1l1,1h1l1,1v-1h-1h1h-2l-1,-1h-1v-1v1h1l1,1h1Z"/>
<path class="sp" d="M735,59h1M723,53h1l1,1h1l1,1"/>
<path class="sl" d="M283,200l-1,1h-1h1l1,-1h1ZM287,199v1l-1,-1h2ZM400,162l1,2l-1,1l1,1l-1,1h-1h1v2h-1l-1,1l2,2h-1v1l-1,-1h-5v1h-9l-2,2l-1,-1h-1l-2,-1v-2h14l1,-1h2v-1h-1l-1,-1l-2,-1h1v-2h1l-2,-1h-4v-1h1l1,-1h10ZM391,169v1l-2,-1h-2l1,-1h1l1,1ZM393,161h1h-2ZM837,270h-1h1v-1l1,1ZM839,271h-1v-1ZM839,270h1h-1v-1l1,1ZM840,268v-1l1,1ZM838,268l-1,-1h1ZM837,264v1h-1v-1ZM481,210v-1h1v1ZM796,98h1h-1l-1,-1ZM489,193h-2v-1h-1v-2h1l1,1v1h1ZM485,181h-2v-2h1v1h1l1,1ZM483,182l-1,1l-1,-1v-2h1l1,1ZM486,183h-1l1,-1ZM519,30v-1h1ZM471,169h-1ZM473,170h-1ZM21,638v-1ZM23,639v1ZM22,639v1v-1h-1ZM24,639v1v-1v1l-1,-1v-1ZM15,542l1,-1v2h-1ZM16,544v-1ZM17,547v-1ZM13,539h-1v-1h1ZM13,543v-1ZM30,612h-1v-1v1ZM14,537l-1,1v-1ZM30,615h1h-1v-1ZM39,603h-1ZM37,603h-1ZM41,628v-1ZM23,604v-1ZM24,611h-1ZM24,612h-1v-1v1ZM20,610l1,1h-1ZM21,616v-1ZM963,396l1,1v4l-1,-1v-3ZM324,338h-1v-2h1l1,-1l1,1l-1,1ZM334,302v1l-1,-1ZM244,335v1l-2,-1v-1h1l1,-1h1v1ZM251,335h-2l2,-2h1v1h-1ZM236,335h-2v-1l2,-1v1ZM243,340v-1l1,1ZM237,331l1,2l1,1v1l1,1v2l-2,1h-3v-1h1v-1l2,-1v-1h-1v-1l-1,-1v-2h-1v1v-2h2ZM242,332v1h-2v-1l1,-1ZM399,173v-1h1l-2,-2l1,-1h1v-2h-1h1l1,-1l-1,-1l1,-1l-1,-2h1v-1h5l1,-1l1,1h3l1,1h1l1,-1h1v2h1v1l4,-1v1h-3v1h6l4,2v1l-1,1h-1v1h-1l-1,-1h-8l-1,1h-1v1h-4l-1,-1l-2,1h-1v1l-3,3v1l-1,-1h-1v-2ZM485,188h-1v-3h1v2ZM571,5h-4v-1v1h1h1h1h-1v1h1h-1h1l1,1h-2l-2,-1h-1h1v1h1h-1h1h-4l-1,-1h-1h1h-4l-1,-1h-10v-1h1h-6v-1h-1h1h-1h1h-5l-1,-1h1h-7v-1h-1h4l1,1l-1,-1h-1h2l1,1v-1h-14v-1l1,1h15l1,1h10l1,1h8l1,1h8l1,1h2ZM524,1h-2v-1h-1l1,1h1Z"/>
<path class="sp" d="M525,1h13l1,1h10l1,1h8l1,1h8l1,1h3M521,0l1,1h2"/>
<path class="sl" d="M556,5h-1ZM325,150h7l2,-1h1v1h6l2,2h5l5,1l1,1h4l1,1h-1v1h1v-1h1l1,1h5l1,1h4l-1,1h1l-2,1h9l1,1h2l1,1h-1v1h-3l-2,1h-1l-1,1v-1h-1v1h-8l-2,1h-3l-1,1h-6l5,-3v-1h1l-1,-1h-7l-1,-1h-2v-3h-1l-1,-1l-2,1h-7l-1,-1h-1l-1,-1v1h-4l-1,-1v1h-6v-1h2l1,-1h-1v-1l-7,1v1h-1l-1,1h-1v1h-1v1h-2l-1,1h-2l-1,1v1h-2l-2,1v-1v1h-2v1l-1,-1l3,-1h1l1,-1l-1,-1l1,-1h1l2,-2l6,-3l5,-1l2,-1h2ZM356,153h-1ZM353,152v-1h-1h1ZM349,151h1v-1h1v1h-3ZM354,152h-1v-1h1ZM318,161l-1,1h-2l-1,-2h1v-1h2v1h1ZM344,151l-2,-1l1,1ZM915,349v1l-1,-1ZM341,291v1l-1,-1ZM160,595v1v-1l1,-1ZM363,598h-1v-1ZM452,746v2l1,2v4l1,2v6h-1l-1,1l-2,-1l-1,-1v1h-8l-1,-1l-2,1v-2h1v1l1,-1h2v-1h2v1h2l-1,-1h-1v-1h-1l-1,-1v-1l1,-1v-1l1,2h1h-2l2,2h1v1h2v-1l1,1h1l1,1l1,-1h-1l-4,-2l-1,-1v-2l2,-1l1,-1v-1h-3l-1,1h-1v-1l-1,-1v-1h1l1,-1h-1v-1h-1h3l1,-1v-1h1l1,1h1l1,-1h1ZM462,764v1h-1v-1h-1v1h-3v-1l-1,-1l1,-1h1l3,1h1ZM411,675h-3l-1,-1v-7l-1,-1l1,-1v-2l-1,-1h1l2,1h1v1l1,1v3h-1l-1,1h1l2,2v1l-1,1h-1l1,1ZM416,721v4h1v3h-2v-1l-1,-1v-1h1l-1,-1h1l-1,1v2h-3v-1h1v-1l-1,-1v-1h1v-2l1,-1l-1,-1l1,-1h2v1ZM409,719l-1,-1v-4l1,-1l1,2l1,1v2l-1,1ZM423,750h1l1,1h3l2,2h-3v-1l-1,-1h-3l-1,-1h-1v-1l1,1ZM414,717h-1l-1,1v-1l-2,-2v-2h-1h1l1,-1v-1l1,2l1,1v1h1v1ZM431,754h3v1h1v2h-1v1h-2l1,-1l-1,-1h-1v2l-1,-1v-1h-1l-1,-1h-1v-1l1,-1l1,1h1v-1h1ZM418,741l2,2v2h-1l-2,-2v-2ZM449,763h7l-1,1l1,1h1h-1v1h1l1,1v1l-1,-1h-1l-1,-1v1l-1,-1v1v-2h-3v1h1v1h-1v-1h-1v-1h-2v-2ZM440,757h2v2h-5l-1,-1v-2h3ZM412,683v1h-1v1h1v2l1,1v1h1v1h-1v1h-1l-3,-3v-1h-1l-1,-1l1,-1v-1h2v-3h1v1h1ZM417,686l-1,1h-1v-1l-1,-1h1v-3l2,1h1v2ZM405,688v-1ZM414,734h-1v-2h2l-1,1ZM412,719v1l-1,1v1l-1,1l-1,-1h1v-1h-1v-1h1l1,-1ZM410,711l-1,1v-1l1,-1h1v1ZM405,677v1l-1,-1ZM414,687h-1v-1h-1v-1l1,-1v1l1,1ZM419,738v1h-2l-1,1v1l-1,-1h1v-2h1l1,-1ZM414,731h-2v-1h1l-1,-1h3v1ZM411,679h-1v1l-1,-1h1l1,-1ZM422,743l-1,-1h-1v-1h1v1h1ZM411,694l-1,1l-1,-1v1v-5h1v2l1,1ZM461,769h-1ZM466,764l-1,1v-1ZM443,763v1h1l1,-1h1l1,1v1h-2v-1v1h-1l-1,-1h-1v-1h-1v1v-1h1ZM462,769v-1h-1v-1h1v1ZM770,209h-1v-1h2v1ZM784,226h-1l-1,-1v-1l1,1h1ZM772,211h-1v-1h1ZM786,218l1,1h1v1h-2v-1Z"/>
<path class="sl" d="M779,225h-2v-1h1ZM778,214l-1,-1l-1,1v-1h1ZM786,216l-1,-1v-1l1,1ZM786,226v-1h-1l1,-1v1ZM416,7h4v-1h1l-1,1h-5l-1,1v-1l-1,1h-3l-2,1h-4l-1,1h-4l-1,1h-1l1,-1h4l1,-1h5l1,-1h5l1,-1Z"/>
<path class="sp" d="M402,10l1,-1h5l1,-1h5l1,-1h1"/>
<path class="sl" d="M490,32h1v1h-1h3l1,-1h-1h1v-1h4v1h-2v1h-8v-1l1,-1h1l1,-1h1l1,-1h2v1l-2,2h-1ZM453,36h-2v-1h1h-1h1v-1h-2v-2l1,-1v-1h-2v-1h-1v1h-4v-1h-1v1h-2l-2,2h-2v1h-1l-1,1v1h-1l-1,1h-2v1h-4v1h-5l-3,1h-7l-3,1h-1l2,-1h2l2,-1h1l1,-1h1v-1h1l1,-1h2l2,-1h2v-1h4l1,-1h2l3,-1h1l1,-1h1l2,-1h1l1,-1h1l2,-1h2l1,-1h2l2,-1h5l3,-1h4l2,-1h4l1,1h1h-1h1l1,1h-1l-2,1h-2l-1,1h-2l-1,-1h-2v1h2v1h1l1,-1h3v1h-1l-1,1h-1h3l-1,1h1v1h1v1h4l1,1h9l1,-1v1h4v1h1h-1l-1,1h-5l-1,1h-7v1h-5v1h-2v1h-2l-1,1h-2v1v-1v1h-2l-1,-1h-1l-1,-1l1,-1l2,-1h-1l-1,1l1,-1h2l5,-2h3v-1l1,1h-1h2l2,-1h-6v1v-1h-1h2l1,-1h1h-2l-1,1h-3l-2,1h-4l-1,1h-4ZM522,17v1h-2v1h-1l-1,1h-1l-1,1h-1v1h1v-1h5l-1,1h-1h2h-1h3l1,1v-1l1,1h-1h4v-1h1v1h5v1h-1l-1,1h1h-1l-1,1l1,-1h5v1h-2l-1,1h-1h1h-1l1,1h1v-1h2l1,-1l1,1h-1l-1,1h3v1h-1v2h-2v-1l-1,1h-1v-2l-1,1h-2v-1h1v-1l-1,-1h-1l-1,1h-1h1h-2l-2,1h-1v1l-1,-1l-1,1h-1v-1h-1h3l1,-1h2l1,-1h-1v1l-1,-1h-2v1h-4l2,-1h-21v-1h2l2,-1h1h-4v-1h4v-1h1v-1h2l2,-2h1v-1h1h-1h2v-1h2l2,-1h2l1,1v-1ZM493,0h-14l-1,1h-1h1v-1v1h-1l1,-1h14ZM473,1h-1ZM471,1h1h-1h7v1h-10l-4,1h-3l-1,-1v1h-18v1h-8v1h-1l1,-1h6l1,-1h1h-1v1v-1h1h-1h8l1,-1h10l1,-1h9Z"/>
<path class="sp" d="M475,1h2l1,-1h14M472,1h1M449,3l1,-1h10l1,-1h10"/>
<path class="sl" d="M487,23h-10v-1h-5l1,-1h6l1,1h6l1,1h1ZM474,31h8v1h-3v-1h-1l-1,1h1h-3v-1h-1h1h-2l-1,-1h-1h1v-1h1v1h1ZM413,8h-3v1h-4l-2,1h1h-1l1,-1h4l1,-1h2ZM421,7h-2v1h-2v-1h3ZM391,23h-5v-1h5ZM408,14v1v-1h1ZM408,14l-1,1h-1h1h-3l-1,1l2,-1h-2l-1,1l1,-1h2l1,-1l-1,1h1v-1h1ZM403,15h-1h3v-1v1h-1ZM498,38v1h-1l-1,-1h3ZM491,33v1v-1h-1h2ZM486,28h1h-1l2,-1h1h-1l-1,1ZM471,27h-1ZM471,27h-1h1v-1ZM455,37h-1ZM415,38h-2l1,-1h1ZM414,37v1h-1l1,-1h1ZM432,32h-1h2ZM522,19h-1ZM528,22h-1ZM522,17v-1h1v1ZM531,22h-1ZM531,28h1ZM479,2h1h-2ZM462,4h1ZM457,3h-1ZM478,2h-1h2ZM477,2h1ZM457,6h-1ZM479,3h-1ZM493,8h-1ZM490,6h-1ZM405,14h-1ZM396,21h-1ZM395,23v1h-1l2,-1ZM430,5h-1v1h-1v-1h1ZM410,10h1ZM412,10h-1h2ZM443,4h-1ZM420,8h1ZM434,5h-1ZM432,5h-1ZM370,17h-1ZM586,306h7l2,1h2v1h-1v2h-1v3l-1,1h-1v2h-1l-1,1l-1,-1v1h-2l-1,-1v1l-1,1h-8v-1h-1v-1l-1,-1v-2h2v-1h-2v-3l1,-1v-2l2,-1h2ZM622,504h-1v-1ZM585,529l-1,-1l2,-1v1h-1ZM613,510h-2v-1l1,-1h1v1ZM629,332v-2h1v1ZM673,423h-1v-1h1l1,-1v1ZM671,426h-1v-1h1ZM626,318v1h-1v-1ZM585,302l-1,2h-2l-2,-1v-1h4ZM580,288l-1,1v-1l-1,-1l1,-1l1,1ZM577,305l-2,1l-1,-1v-1h3ZM588,305h-4v-1h4ZM579,303v1l-2,-1v-1h1l1,-1v-2h1v3ZM581,301h-1v-1l1,-1h1v1ZM567,314l-1,1l1,-2l1,-1v-2l1,-2h3l1,1l-1,2h-1l-1,2l-1,1ZM585,541h-1v-2h1v-1h1l-1,1v1ZM274,192l-1,1l1,-1v-1h1ZM274,196l-1,1v-1l1,-1ZM500,202v1l-1,-1v-1l1,1h1ZM358,139l-1,1h1v-1l1,1v1l-1,1h-1l-1,-1v-1l1,-1ZM363,129h-1l2,-2v-2h-1l-1,-1h-1h2l1,1h1v2h-1v2ZM391,154l-1,1l-2,1h-2v-1h1v-1h3l1,-1ZM358,137v1l-1,1h-2v-1l-1,1v-1h-1h1v-1l1,-1v-2h1l1,1v1ZM355,126h2l1,-1h1v1h-2l-3,1h-2l-1,-1h1v1h1l1,-1v-1ZM361,134l-1,1v-1h2ZM384,145v1l-1,-1h-1h1ZM383,137l-1,1v-1ZM383,148l-1,1v-1h1l1,-1h1v-2h1v1l-2,2ZM367,131l1,1h2l1,1l-1,1v1h-1h1v-3h-2l-1,-1l-1,1v-1ZM373,142h-3v-1h1v1h1ZM378,145l-1,-1h-1v-3h-1h1v1h1v1l1,1ZM376,137v1h-1v-1l-1,-1v-1h-1h1l1,1ZM392,146h2v1h-3v-1ZM392,152h-1ZM454,762v-6l-1,-2v-4l-1,-2v-2l2,1v1l-1,1v1h2l1,2l4,4h2l2,2h1l1,1h1l2,1h3l-2,2h-4v1h-1l-2,-1h-8ZM475,760h3v1h-4v-1ZM484,636h-1v-1h1ZM482,176h-1l-1,-1h2ZM482,172h-1v-1h1ZM559,804l1,1h1v1l-1,-1h-2v-1ZM407,866h-1ZM520,1000h-2h3l1,-1l-1,1h-43l-1,-1h-15l-2,-1h-10v-1h-8l-1,-1h-7l-3,-1h-3l-1,-1h-4l-1,-1h1l1,1h1h-1l-1,-1h-5v-1h-1h1h-2l-2,-1h-3l-1,-1h-2l-1,-1h-3l-1,-1h-5v-1h-1l-1,-1h-2v-1h-3v-1h-2v-1h3v-1h-5v-1h-1l-2,-1h-1l-1,-1h-1v-1h-1h1v-1h-1v-1h-1v-1h1l1,1h5v1h1l1,1v-1h-1h4l1,1h1l2,1h-1h1v-1h1v1h3v1v-1h2v1h-1h8v1h1h-1h8v1h1v-1h1h-1h3l1,-1h4v-1h2v-1h1l1,1h1l-1,-1h-1v-1h1l2,1h4v1h-1h10v-1h3v-1h4l1,-1h-1h1v-1h1v-1h2l2,1v-1h-3v-2h1v-1h1l1,-1h-1h1v-1h-1h1h-1h1l-1,-1h1v-3h-1v-2l1,-1v-2l1,-1h-3v1l-1,1h-1v1l-1,-1l-1,1h-1v-1h-1l-1,1l1,1h-3l-3,3v-1h-1l2,-2l-1,-1h2v-1h-1h1l-1,-1h1l-2,-1h-3v-1h-2l-4,-2l-2,1h-2l-1,-1h-2l-1,1h-3l-2,-5h-1l-1,1l-1,-1v1h-3l-1,-1v-1h-4l-1,1h-3v1l-1,1h-4l-1,-1h-2v1l1,1h-5l-1,-1h-4l2,-1h-2v-2h2v-2h3v-1h-1l-1,-1h-3l-1,-1h2v-1h1h-1v-1h-7v2h-1l-1,-1h-1v-1h2v-1h1h-3l-1,-1h-1v-1l-2,-2v-1h2v-1h-2v-1l-2,-1v-2l1,-1h-1l-2,-2v-1h2v-1l2,-2h1v-2l1,-1v-1h1l2,-2h1l2,-2l1,-2v-2h1l1,-1h1l2,-1h-1l-3,-3h4v1h1v1v-1h1v2l2,1h1v-1l1,-1v-1h-1l-1,-1h-1l-1,-1h4l1,1h1v2l1,1h1l1,-1h1l1,-1h4l1,-2l1,-1h1l1,-1h5l1,1v-1h1v-1h2v-1h-6l1,-1l-1,-1h-4l-2,-1v-1h-2l-1,1l-2,-2h5l1,-1h1l-1,-1h1h-1l-2,-1h-1l-1,1h-2l-1,1h-1l-2,-2h-1v-1h2v1h2l1,-1h2v-1l4,-1l1,1l1,-1l1,1h2l1,-1h1l1,-1h2l1,-1h5l1,-1v-1h-1v-1h2v-2h1l1,1l1,2h1l1,-1l2,1h1l1,-1h1l1,1h7l1,1l2,-1v-1l-1,-1v-1l2,1v-1h-1v-1l-1,-1h2l1,1l2,1l1,1h2v-1h3v2l1,-1h2l1,-1h1l1,1v-1h1l2,-1h1v-1h2l1,-1h3l1,-1h2l3,-3v-4l-2,-2v-2l-1,-1v-2l-1,-2l-3,-3v-1l-1,-1v-1h4l1,-1v-1l-1,-1h-1l1,-1v-3h1l-1,-1h-1v-2h1v-2h-1l-1,1h-1v-3h1v-1h1v2h1v-1v1h1l-1,-1v-3h2l1,-1v-1h-1v-1h1v-1l1,1v-2h2v1v-2h1l-1,-1h2l1,-1h-1l-1,-1v-1h1v-1h2l1,1v-1l1,-1h1v-2l1,1l1,-1h2v-1h1v-1l1,-1l2,-1h1l2,-1l1,-1h1l1,-1h2l1,-1l2,-1h2v2h1l-1,1h-1v-1h-1l-1,1h-1l-3,3h-1v1h1h-1v1h1v1h-1v-1h-1l-1,-1v2h-1v-1h-1l-4,4h-2v1h-1v1h-1l1,1h1l-2,2v1h1v1h3v-1h2v1h-1v1h-1v-1h-1v1h-1v1v-1h-3v2h1v1h-1l-1,-2h-1v-1h-2l1,1h-1v1h-1v1h1v1h1h-4v2h-1h1v1h-2v4h1l-1,1h3l-2,1h1v2h1l2,1h1l-1,-1l1,-1h2l-1,1l1,1v2l1,1h1l1,1v2l2,2v1h-1v1h2v1h-1v1h2v1l1,1v1h-1v1h-1v1h-1h1l1,-1h1v2h-3v1h2v1l1,-1h1v2l-1,1h-1l1,1h1v1l1,1v-1h1v2h-5v-1v2h1l1,1h1v1l-1,1h-2h2v1h-1v1h2v1h-3l1,1v1h-2v-1h-1v1h-1l-1,1h2v1h-3l1,1h2l-2,1l-1,1h-1l-2,1l-3,1l-3,2l-2,2h-11l-2,1v1h2l1,2h7v2l-2,2h-1l-2,-1h-8l-1,1h-1h1l4,1h4v1l1,1h-2l-2,1h-1l-3,-1h-1l-2,-1l-1,-1h-1h1v1h1v1h1h-1v1h1l1,1h1l2,1h2v1h1v-1h7v3h-4l1,1h3l1,-1l1,1h1v1h1v1h1v1v-1h3l1,-1h2v1h3v1h1l3,1l1,1h1h-1l-1,1h2h-2v2h5l1,-1h1v1h-1l-1,1h-1h1v2h1v2h2l2,-2v-1h2v-1h1l1,-1h1v-1h9v2h-1v1h1v-1h2l2,-1l3,-3h1v-1h2l2,-1l1,1v1l1,-1h3v-1h10l8,1l1,-1h-1v-1h-1l-5,-2h-1l2,-2h-4v-1h-2v-1l-2,-2h1l3,-3l2,-1h1l1,-1h1l1,-1h4l4,-1v-1h1l3,-1h15v1h3l1,-1l1,1h3v-1h2l1,-1l4,-2h2l1,1h3l1,-1h1v-1h-3v-1h1v-1h1v-1h1l2,-1h2l1,1h1l1,-1h1l1,1l2,-1h4l2,-1l1,-1h1v-1h-1v-1l2,-2l1,1v2l1,-1h2v-1h1v-1h1v2l-1,1l-1,2h2l2,-1h1v-1h1v-1h2v1h3v1h-1l-1,1h-2v1l2,1l1,1h1l1,1v1h3v1h-2v1h-1h11l1,1l4,1l2,1h3v2h1l2,-1v1l-1,1l-1,2v1h3l1,-1h2v-1l1,1l-1,1h-1v1h1l1,1v1h1l-1,1v2h3l-1,1h-1l-2,1h-1l-1,1h1v1l1,1l1,-1h4l-1,1h-2v1h-1v1h2l2,-1v1h-1v1h-2l-2,2v1h1v1h1l1,1h4v2h1l1,1h1l1,-1h2l1,-1h1l1,-1h4l-1,1h-2l-1,1v1h-1l-4,2v2h-1l-1,1h1l-1,1l-2,1h-1h5l2,-1h4l1,1v1h2v1l1,1v1h1l1,-1h1l-1,1h-1v1h-2l-2,2h-1h4l2,-2l1,1h-1l-2,2h2l1,-1h2l1,1l-1,1v1l-2,1l-1,1h-1l-1,1h-1l-2,1l-1,1l-2,1v-1h1l1,-1l-1,1h-4v1h1l-1,1h-2v1h-2l-2,1l-2,2h-1l-1,1l-2,1l-2,2h-1l-1,1l-3,1l-2,1l-1,1h-1l-2,1l-1,1h-3l-1,1h-8v-1h-2l-1,1h-1v1h-5l-1,-1h-10l-1,1h3v2h6l-1,1h3v1h-2l-2,1h-1h2l-2,2h2l-4,2l-1,1h-3v1h-1l-2,1h-2l-4,2h-3v1h-4v1h-4l-1,1h-3l-2,1h-4l-1,1h-5l-1,1h-5l-2,1h-4l-1,1h1h-6l-2,1h-5l-5,1h-10l-2,1h-14l-1,1h-1Z"/>
<path class="sp" d="M483,1000h-4M465,999h-2M534,999h-11l-1,1h-1"/>
<path class="sl" d="M524,913h2v4l-2,2v-1v1h-1l-8,2l-8,1v-2h1l1,-1v-1h3l2,-2v-1h1v-1h-1h1v-2h1h-1l3,-3h1v-1l3,-1h1l1,1h1l1,1h1v3h-3ZM500,919v2h-1v1h-2l-1,-1h-1v-1h-1l-1,1l-1,-1h-2v-1h-1h8l1,-1h-1v-1h1v-1h1l1,1v1ZM468,859v1h1l2,4l3,3v1l1,1v1l1,2v5l-1,1v1h-2l-1,1h-7v-2h6l1,-1h-2l-1,1h-1l-1,-1l2,-1h1l-2,-1h-2l-1,-1l-1,2h-2v1h1l-1,1h-1v-1h-3v-1h-1v-1h1v-1l1,1h1h-1v-2h1v1h1v-1h4l-1,-1h-2l1,-1h3l1,-1h3l1,1v-2h-4v-1l2,-2h1v1h1v-1h-2v-1h-2v1h-1l-2,-1l-1,-1v-3h-1v-1h-1v-1l1,-1h1l3,-1l1,1v1ZM403,888h1v1h1l-1,-1v-1l2,2v-2l1,-1l1,1l-1,1v1h1v-1l1,-1l2,2h-1l1,1h-3v1h-8l-3,1h-1l-1,-1l3,-2h1l1,1v-1h1v-2h2ZM378,913l1,1h1v1l1,1l-2,2v-1h-1l-1,-1h-3v-1h2v-1h1ZM368,917h4v1h1v-1h3l1,1h1h-1l-1,1h-5v-1l-1,1h1h-2l-1,-1h-1v-1ZM413,957v2l-1,1h-5l-1,-1h-1v-1h4v-1h3ZM420,978v-1h-1l-1,-1h2l1,1h3v1h-3ZM542,921l1,-1l1,1l-1,1v-1l-1,1v-1h-1v-1h1ZM540,918l-4,-1l1,-1h1l2,1ZM483,916h-2v-1l-1,-1h1v-1h1v-1h1v-1l3,-1l1,-1v2h-1v1l-2,2v2ZM506,826h1v-1h1l1,1v1h-1v1h-1v-1h-1v1v-1l-1,1v-1h1h-1v-1h-1l1,-1v-1h2v1ZM516,820h1v1h-4l-1,1v-2h2ZM506,811h2v1h-2v1h-4l1,-1l2,-1ZM486,828v1h1l-1,1h-1v1h-1l-1,-1h-1l1,-1h1l-1,-1h1l1,-1h1ZM489,828v1h-1v-1l1,-1l-1,-1l1,-1l1,1v2ZM472,848v1h-1v1h-2l-1,-1v-1l1,-1v-1l1,-1v-1l1,-1h1v1h-1v2h1v1h-1v1ZM459,869h1v1l-1,1h-2l-3,1l-1,1v-1h-1v-1h1l2,-1h1v-1l1,1v-1h1v-1ZM454,864l1,1h1v1l-1,1l-1,-1h-2v-1h1v-1ZM463,883v1h-1h1v1h1v1h-1l-3,-1h-1v-2h1h-1v-1h4ZM424,890h-1v-1h-1l-1,-1v-1h2v1h1v1ZM425,977h2v1h-1v-1h-2ZM569,995h1h-2ZM668,928h-1v-1h1l1,-1h1v1h-1ZM634,893h-1l1,-1v1l1,-1v1ZM639,896h-1v-1h3v1h-1ZM490,918v-1h-2v-1h-1v-1h1v1h3v1ZM488,915h-2v-1h2ZM518,807l-1,-1h2ZM514,822v1l-1,-1l1,-1h1v1ZM509,829h-1v-1h1l1,-1v1ZM514,819l-1,1h-1v-2l1,1ZM508,824h1h-2ZM493,861l-1,1v-2l-1,-1v-1h1v1h1v1ZM496,816l2,-1v1h1l-2,1v-1h-3l1,-1ZM463,863h-3l-1,-1l1,-1l1,1ZM413,890v-1l1,-1v1h1ZM398,898v1h-2v-1h-1ZM381,914h-1l-1,-1v-1h1l1,1ZM377,922v1h-2l-1,-1h2ZM442,961h-2l1,-1v1ZM428,959v2h-2v-1h1ZM410,981h-1l-1,-1h1ZM416,981h1ZM393,977h-1ZM366,978h1h-2ZM366,979h1ZM366,979l1,1h-1ZM582,993h-1h2ZM574,994h1h-2ZM596,991v-1h1h-1ZM611,986h1ZM610,987l1,-1v1Z"/>
<path class="sl" d="M614,986l1,-1ZM620,975h-1ZM620,974h1l-1,1ZM624,977v-1h1v1ZM687,946h1v-1v1ZM666,914l-1,1l1,-1v-1h2v1h-1ZM647,902l1,-1h1v1h-1ZM634,899v-1h1ZM647,899h-1h1l1,-1h1v1ZM638,897v1l-1,1h-2l1,-1h1v-2ZM650,903l1,-1h1v1h-1ZM587,898l-2,2v1h-1v-1l1,-1l-1,-1h-1h3l1,-1h1v-1l1,1h-1ZM602,895v-1h1v1ZM612,895v-1ZM541,920v-1h1ZM523,807h-1h1v-1ZM503,814h-2l1,-1ZM495,863h-1v-1h1ZM496,856l-1,-1h1ZM496,867v-1h1v1ZM497,869h-1ZM501,815h-1v-1h-1h2ZM496,818v1l-1,-1ZM496,824l-1,1v-1h-1h1v-1h1ZM491,826h-1v-1h1ZM486,831h-1h1v-1ZM488,819v-1h1ZM477,838h-1v-1h1v-1h1v1h-1ZM475,840v1h-1l1,-1h-1l1,-1ZM473,845h-1l1,-1h1ZM474,850h-1v-1h2ZM464,866h2l-1,1h-1ZM465,884h-1v-1h1ZM417,890h-1ZM385,912h-1v-2l1,1ZM372,926v1h-1v-1ZM374,926h-3v-1h2ZM385,945h-1ZM377,941h-1ZM387,945h1h-2l1,-1ZM388,946v1h-1v-1ZM385,946h1l-1,1ZM390,947h1v1h-1ZM386,947v1h-1v-1ZM381,943v1h-1v-1ZM385,944v1h-1v-1ZM391,948l-1,1h-1l1,-1ZM414,954v1h-1v-1ZM389,947h-1v1h-1v-1h-1h2ZM432,958l-1,1h-2l1,-1h1ZM470,169h1Z"/>
<path class="sw" d="M988,610v-1ZM988,611v-1Z"/>
<path class="sh" d="M504,733l1,1h1v1h-1h1l1,1v-1l1,-1l1,1v1h-1h1v1h-2v1h-1l-1,1v1l-3,-1v2l-1,-1v1h-1l-1,-1l1,-1v-1l1,-1h2l-1,-1v-1l1,-1v-1ZM496,735h1l1,-1l1,1l1,-1v1l1,-1v2h-1v1l-2,2h-2v1h-1v1h-1l-1,-1h-1l1,-1h1l1,-1h1v-1h-1l1,-1h-1v-1l-1,-1h1ZM492,737v1h1l-1,1l-1,-1h1ZM506,739v1h-1v-1ZM497,734h-1v-1ZM499,741v-1Z"/>
<path class="sw" d="M352,57h3l1,-1h2l1,-1h2l1,-1h1l1,-1h5v-1h2l1,-1h5l1,-1h1h-1h1v1h-2v1h-3v1h-2l-2,1h-1v1h-1l-6,2h-1l-2,1h-2l-1,1h-4l-1,1v-1h1h-3l1,-1h1v-1ZM378,50h1ZM354,58h-1ZM969,344h-1v-1h1ZM983,629v1v-3h1v-1l-1,1v-1h1v-3l1,-1v-3l1,-1v-3l1,-1v-4l1,-1v-3h1v-4l1,-1v-4h1v-5l1,-1v-3v3l-1,2v4h-1v5h-1v4l-1,1v4h-1v2l-1,2v4l-1,1v3h-1v2l-1,2ZM988,610v-1ZM988,610v1ZM310,44h-1v1h-1l-1,1v-1h1v-1h2v-1h1h-1v1h-1l1,-1l2,-1h-1v1h-1l1,-1h-1h1h-1l-1,1h-1h1v-1h-1h1h-1v-1h3v-1l-1,1h-1l1,-1h1l1,-1h2l1,-1h1l1,-1l2,-1v1v-1v1h-2l-1,1h1v-1h1h-1v1h-1v1h-1v1h-1v1h-1v1h-1h1v1h-2v1ZM310,42l1,-1h-1ZM311,43h-1v1h-1h1ZM400,42v1l-3,1h-1h1v1h-1v1h-2l-1,1h-3l-1,1h-8l-3,1h-1v1h-3l1,-1h1v-1h2l1,-1h3v-1h5v-1h6v-1l-1,1h-1l1,-1l-1,1h-1h1h-1l1,-1h1v1l2,-1h2v-1h3ZM394,44h1h-2ZM396,44h1ZM397,44v-1l-1,1h-1h1ZM352,57v-1h2v-1h2v1h-4ZM339,127v1h-2l-1,-1h1v-1h3v1ZM291,234v1h-1v1h-4l-1,-1h-1l-1,-1v-2h-1h1v-3h1l1,1h1l2,2h1l1,1v1ZM418,440h-1v-2h-2v-1h-1v1h-1v-1h-1v-1h1v-1h1v1v-2l-1,-1h1v-1h1v1h1l1,1h1v1h1l2,2h1l1,1h-1v1l1,1h1v1h-2v2h-1v-1h-1h1v-2h1l-1,-1h-1v1h-1ZM308,41v1h-4v1h-1v-1h3v-1h2v-1h2v-1h1h-1l-1,1h-1h1h-1v1v-1h2l1,-1l-1,1h-2v1h-1l-1,1h1v-1ZM201,108h-1l-1,1h-1v1v-1h1h-1v1v-2h1v-1h1v-1h1l-1,1h1h-1v1v-1h1v-1h1l-1,1ZM199,109l1,-1ZM351,46h-2v1l-1,1h-2v1h-1v1h-1l1,-1v1h-1v-1h1h-1l-1,1h-1l-1,1h-1v1h-1l-2,2v1h-1v2l-1,1v1h-1l-2,2h-1l-2,2h-2l-1,1h-1v-3l1,-1v-1h1v-1l1,-1h1v-1h1v-1h1l3,-3h-1l-1,1h-1l-1,1v-1h1l1,-1h1l1,-1h1l1,-1h1v-1h1l1,-1h1h-1h2v-1h1v1h-1h1v-1h3v-1h3v-1h3v1l1,-1ZM347,47h-1ZM343,49h-1ZM338,49v1l1,-1ZM337,50l-1,1h-1l-1,1h1l1,-1h1v-1h1ZM355,43h1h-2l-1,1h-1v-1h1h-3l-1,1h-3l-1,1h-1l-1,1h-4v-1h-1l-1,1h-2v-1v1v-1h-1v1h-2l-1,1h-2l-1,1h-1l-1,1h-2l-1,1h-1v-1h1h-3v1h-1l-2,1h-1l3,-2h2l3,-2h1l1,-1l3,-1h2l1,-1h1v-1h2v-1h2l1,-1l-1,1h1v-1h2v-1h1v1h-1h1l1,-1v-1h7v-1h2v2h2l1,-1h2v1h-1h1v1h-1v1h1h-1v1v-1h1l-1,1h-1ZM323,49h1h-2ZM324,49v-1v1h-1ZM343,40h-1h2v-1ZM336,43h2v-1h1h-1l-1,1l-3,1h1v-1ZM340,44h-3l-2,1h1h-1v1l1,-1h1l1,-1h1h-1h1ZM344,39h1h-1v1ZM352,40h-1v1h-1h1ZM356,43h7l1,-1h9l1,-1v1h1v1h1v1h1v1v-1h-1l-1,1h1h-1v1h-3v-1l-1,1h-1l1,-1h-1l-1,1l1,-1h1h-2v-1h-1l-1,1h1v2h-2v1h-1l-2,2v1h-1v1h-2l-1,1h-1v-3h-3v1h-1l-1,1h-2v-1h2l1,-1h1v-1h1v-1h1v-1h1v-1h-1h1h-7l1,-1h2l2,-1h1h-1v-1h-1ZM360,44h-1ZM359,44h-1ZM357,44h1v-1h-2v1ZM356,43v1ZM356,43h1ZM353,45h-1l1,1ZM361,44h5l1,-1h1l-1,1h-1h1l1,-1h1h-1h1v-1l-1,1v-1h-1v1h-3v1v-1h-1v1v-1h-1h1h-2v1h-1ZM368,44h-1ZM375,45v-1Z"/>
<path class="sw" d="M222,162l-3,6l-1,1l-1,2v-1h1v-3l1,1v-2l1,-1v-2l1,-1h1v-1ZM320,34h-2l-1,1h-2v1l1,-1h-1l-1,1l1,-1v1v-1h2l1,-1h2l1,-1h-1ZM427,21v1h-3v1v-1h2v-1l-1,1h-2v1h-2v1h-1v1h-1l1,-1h1l1,-1h-1v1h-1l2,-2v1v-1h1l2,-1h4ZM315,45v1v-1h-1l-1,1h-1h1l-1,1l-2,1h-1v-1h2v-1h1l1,-1h1h-1l-1,1h-1h1l1,-1h2v-1v1v-1ZM312,47h-1h1l1,-1h-1ZM346,36v1h-1v1h-3v1h-1l1,-1h1h-2v1h-1h1v-1h1v-1h1l1,-1h3ZM344,37h-1ZM344,38v-1v1h-1ZM322,33h-1l-1,1h-2v1h-2v1h-2l-1,1h-1l-2,1h-1l-1,1l1,-1h1l1,-1h1h-1l-1,1h1l1,-1h1v-1h2l1,-1h1l1,-1h2l1,-1h1h-1h1h-1ZM398,47h-2ZM162,135h-1h1l1,-1ZM982,632v1v-2ZM327,56l-1,1h-1l2,-2ZM459,2h-1h2Z"/>
<path class="sr" d="M465,1v0M464,1v0M459,2h1"/>
<path class="sw" d="M414,42v1v-3h1v-1h1v1l-1,1h1h-1v1ZM153,156l-1,1v-2h1ZM413,657h-1v-1l1,-1h1l1,1v1l-1,-1ZM994,564v3l-1,1v1v-1v1v-4l1,-1v-1ZM428,28h-1v-1h3v1h-1ZM389,50l-1,1v-1ZM390,50v-1ZM392,50l-1,-1l1,-1v1ZM943,332v2h-1l1,-1h-1v-3l1,1ZM306,39h-1v1h-2v1h-2l-1,1l1,-1h1l1,-1h1l1,-1Z"/>
<path class="sr" d="M301,41h1l1,-1h1l1,-1"/>
<path class="sw" d="M278,121v1h-1ZM430,12h-1ZM377,40h2l1,-1h2v1h-3ZM991,587h-1v1v-2l1,-2v2ZM1000,509v4l-1,1v-3h1v-3ZM1000,501v-1v2ZM419,13h1v-1v1h1h-1ZM480,564l-2,1h-3v-1h-1v-1h1l1,-1h3l1,1ZM416,18v-1h4l2,-1h1h-1v1h-1h1h-4v1h-2v-1ZM416,17v1h-5l-1,1h-2v-1h1h-1h4l1,-1h-1h2l-1,1h-1h1l2,-1ZM402,170h-1v1l-2,-1h2ZM412,19h-1l1,-1h1h-1ZM431,728v1h-4l-1,1v1h1l-1,1v-1l-1,-1h-1v-1h1l-1,-1v1v-2l1,1h1l1,1v-1h3ZM349,30h2l1,-1v1h-2ZM223,89l-1,1v-1h2ZM227,82h1h-1v1h-1ZM172,137h-1h1v-1h-1l-1,1h-1v1h-1v1v-1h1l2,-2v-1h1h-1v1l-1,1l1,-1h1ZM481,12h1h-4v1h-2v-1h-2v1h-3v1h1h-3v-1h1h-1l-1,-1h-3v1v-1h-1h1v-1h1h-1h1h-1h1v1h3v1h1v-1l1,1v-1h1h-1v-1h1l-1,1h4v-1h1h-1h1v1h4ZM264,209l-1,1v1h-1l-1,1h-1v-1h1l2,-2h1v-1ZM334,37h2l1,-1h1h-1l-1,1h-1ZM995,571v1v-3ZM414,29h-1v1v-1h-1v1h-1v-1h1h-1v1h-1v-1h3l1,-1h1l-1,1h1ZM432,13h4l1,-1v1h-5v1h-1v-1ZM540,264v1h1l-1,1h-1l-1,1v-1h-2l1,-1v-1l1,-1h3v1ZM388,49l-1,1h1ZM393,49v-1ZM394,49v-1ZM208,101v1h-1h1v-1h1ZM198,111l-1,1v-1h1v-1h1v1ZM306,52v1h-1l1,-1h1ZM332,42h-1l-1,1v-1h1ZM405,35h-1v-1h1ZM416,648v1h-2v-1h1v-1ZM429,725l-2,-1h-1l-1,1h-1l1,-1h-1v-1h3l2,1h1v1ZM988,465v-1ZM466,38h-1ZM460,33h1v-1v1ZM176,121h-1v1h-1l1,-1ZM168,129h1v-1v1ZM154,144v1ZM440,24h-2v1v-1l-1,1v-1h-1v1h-1h1v-1h4l-1,-1h1v1h2v1v-1h-1ZM514,23h1h-2l-1,1h-1l1,-1h1ZM349,29h1v-1h1v1h-1ZM326,39h-1h2v-1v1ZM332,33l-1,1h-1v-1h1l-1,1h1v-1h2ZM443,16v1h-2v-1v1h-1v-1h2ZM298,43h-1v1h-2v1h-1h1v-1h2v-1h2ZM307,55h-1v-1h1ZM426,43h1h-2v-1h1ZM378,46h-1l1,-1h1v-1v1h1l-1,1ZM337,30h1l-1,1h-2l-1,1h-1h1l1,-1h2ZM188,111h-1v1v-1ZM518,25l-1,1h-1l1,-1ZM334,31h-1ZM317,47l1,-1h1h-2v1h-1v-1h2ZM334,30h-1l-1,1l1,-1h2l1,-1l-1,1ZM255,69h-1v1l1,-1h-1l-1,1h-1l-1,1h-1l-2,2h-1l1,-1h-1v1v-1h2l1,-1h1l1,-1h1l1,-1h1v-1h1h-1l1,1ZM272,63h-1v-1h1h-1v1v-1h-2v1h-2v1v-1h2l1,-1h3v-1v1h-1h2l1,-1h1h-1v1h-2ZM223,84h-1h1l1,-1h1ZM221,85v1h-1v1h-1l1,-1h1v-1v1ZM208,94h1Z"/>
<path class="sr" d="M208,94h1"/>
<path class="sw" d="M306,51h1h-2ZM306,50h1ZM459,2h-1h1h-1ZM212,144l-1,1h-1v-1v1v-1h1v1ZM401,34h1h-1v1v-1h-1v-1h1h-1h2v1ZM179,206h-2l-1,1h-1l1,-1h1v-1h1ZM281,228v1l-1,1v-1h-2v-1h2ZM542,512h-1v1h1v1l-1,-1v3l1,1h-2v1h-1v-3h-1h1l1,-1l-2,-1h-1h3v-1h1v-1h-1v-1h1v-4h1v5ZM330,243h-1v1h-1l1,-1h-1v1h-1l1,-1v-1h1v1ZM979,626v1v-1v1h-1v-1h1h-1v-1v1h-1v1v-1v2h-1v1h-1v1v-1l1,-1v-1l1,-1v-1h1v-1v1v-1v1v-1h1v-1v2ZM929,347v1v-1v2h-1v-1l-1,-1v-1l-2,-2v-1v1h1v1v-1v1h1v1l1,1v-6h-1v-1l-1,-1h1v1v-1l-1,-1h-1h1v-2l-1,-1v-1h-1v-1h-1h1l-1,-1v-2l-2,-2v1v-1l-1,-1v-1h-1v1l-1,-1h2v1l1,1v-2h-1v-2l1,1v2l1,2v-1v1h1v3h1v1h1v1h1h-1v1h1v1l1,1v1v-4h1v1h-1v1h1h-1v2h1v3h1v5ZM929,347v-1h-1v1ZM994,570v-1h1l-1,-1v1v-1h1h-1h1v-7l1,-1v-10h1v-9h1v-10l1,-2v-1v1l-1,1v-1h1v2l-1,1v11l-1,1v10l-1,1v6l-1,1v8h-1v1ZM551,581l-1,1v1h-2v-1h-1v1l-1,1v1h-1l-1,1v3h-1v-4l1,-1h1v-2h1l1,-1h1v-1l2,-2v-1v2h1v1ZM302,47l-1,1h-1v-1l1,-1v1v-1h1h-1v-1h1v1v-1h1v1h-2v1ZM300,46h-1h1v-1l-1,1l1,-1h1l1,-1h1v-1l-1,1h1h-1l1,-1h-1v1h-1h1v-1h3v-1h1l-1,1h-1v1h-2v1h-2v1l1,-1ZM453,19h-1l-1,1h-1l-1,1v-1h1h-2v-2h1v1l1,-1h3ZM451,19h1v-1h-2v1h-1v1h2v-1h1ZM292,45h1h-1v1h-2l-1,1h-1l-1,1h-1h1l1,-1h-1v1v-1h2l1,-1h2v-1l-1,1l1,-1h1Z"/>
<path class="sr" d="M291,46l1,-1h1"/>
<path class="sw" d="M431,699h-5l-2,1l-3,3v1v-2l1,-1v-1h-1l1,-1v1h1l1,-1h2v-1h1l1,-1v1h2v1ZM172,137h-1h1v-1h-1l-1,1h-1v1h-1v1v-1h1l2,-2v-1h1h-1v1l-1,1l1,-1h1ZM194,119v1h-1l-3,3h-1v1l1,-1l-1,1h-1l-2,2h-1h1v-1h2v-1l1,-1h1l3,-3ZM332,30h-2v1h-2l-1,1h-2l-1,1h-1h1l1,-1h2v-1v1l1,-1h2v-1h2l1,-1ZM657,388l1,1v1h-2l-1,1h-1l-1,1h-3l-1,-1h-1v1l-1,1l2,2v1v-1h-1l-1,-1h-1l-1,-1v1l1,3l1,1l-1,1v2h-1v-1l1,-2v-1h-1v-1h-1v1l-2,2v2l-1,1v1h-1v-1h-1v-1h-1l2,-2h1l-1,-1v-1l1,1h1v-1l-1,-1l1,1h1v-1l-1,-1h2v-1l-2,-2v-1v1h1v1h1v-1h2v-2h1v-1h2v1h6v-2h1l1,-1h-1h1v-1v1ZM641,400v-1h1h-1v1h-1h1l-1,1l1,1v-1ZM384,32h4v1v-1h-3ZM255,69h-1v1l1,-1h-1l-1,1h-1l-1,1h-1l-2,2h-1l1,-1h-1v1v-1h2l1,-1h1l1,-1h1l1,-1h1v-1h1h-1l1,1ZM269,69l-1,1h-1v1h-1h1h-1h1h-1v1v-1h-2v1v-1h2v-1h2v-1h2v-1h-1h2v-1h-1h2v-2h1v-1h1v-1v1l-1,1h-1v2h-1v1h-1v1ZM223,84h-1h1l1,-1h1ZM929,347v1v-1v2h-1v-1l-1,-1v-1l-2,-2v-1v1h1v1v-1v1h1v1l1,1v-6h-1v-1l-1,-1h1v1v-1l-1,-1h-1h1v-2l-1,-1v-1h-1v-1h-1h1l-1,-1v-2l-2,-2v1v-1l-1,-1v-1h-1v1l-1,-1h2v1l1,1v-2h-1v-2l1,1v2l1,2v-1v1h1v3h1v1h1v1h1h-1v1h1v1l1,1v1v-4h1v1h-1v1h1h-1v2h1v3h1v5ZM929,347v-1h-1v1ZM268,73h1v1h1h-2v-1l1,-1h1h-1ZM215,157v1h-1v-2h1ZM287,48l1,-1h2v-1h1h-1l-1,1h-1ZM450,14h-4l1,-1h1h-1h1v1h2v-1ZM453,14h-1v1h-1v-1h1h-1h1v-1v1ZM446,13h-1h2ZM308,86v2l-1,1v-1h1h-1v-1h1v-2ZM339,92l1,1h-2l-1,1v-1h2l-1,-1h-1h1ZM336,115v-1l1,1ZM163,146h1l-1,1ZM164,131h-1v1v-1v1v-1ZM174,122h-1v1h-1h1v-1ZM186,113v-1v1h-1ZM450,34h1h-2ZM585,340h-1v-2l1,-1v-2h1v3l1,1v2l1,1v1h1v1h-1v1l1,1v1l2,1h-2l-1,-1l-1,-2l-1,-1v-2h-1v-1ZM619,465v1h-1v1h-3v-1h2v-1v1h-1v-1l1,-1h-1l1,-1h-2v-1h1v-2h1v4h1v1ZM566,476v-2h2v-1l1,1v-4h1v-1v3h1l1,-1h1l-1,1h-1l-1,1v2h-2v1l1,1l-1,-1h-1ZM414,652h1ZM444,689v1h1v1h-2v-1l-1,-1v-1h1v1ZM306,94h1ZM408,23h1h-2ZM334,37h-1ZM397,25h-1ZM390,35h-1v-1h1ZM397,34h1h-1v-1ZM329,32h2l1,-1l-1,1h-1ZM303,42v-1h1ZM289,47h2v-1l-1,1h-1v1h-1ZM441,15h1h-2ZM493,15h1h-3ZM364,36v1h-1l1,-1h1ZM293,45h1ZM294,45v-1h1h-1ZM318,34h1ZM454,9v1h1h-2l1,-1h-1Z"/>
<path class="sb" d="M814,125l-2,-2v-2h-1l-2,-2v-1h-1h1l-4,-4h-1l-1,-1h1l1,1v-1h-1v-1h-1v-1l-3,-3v-1l-1,-1h-1v-1h-1v-1h-1l-1,-1h-1h1h-2v-1h-2v-1h-1v-1h-2M823,119h-1v-1M828,123h-1v-1h-1l-1,-1h-1v-1l-1,-1h-1v-1h-1l-1,-1l-2,-1h1h-1v-1h-2v-1h-1v-1h-1l-1,-1h-1l-1,-1v-1h-1v-1h-2v-1h-1M307,243v1h-1l-1,-1v1h-1v4h1v1h-1v3l-1,1v1h1v1M299,235v1h-1l-1,1h-2v-1l-1,-1v1h-1l-1,-1h-1l-1,1h-6v1h-1M306,205l-2,1h-1v1h-1l-1,1h-2v1h-2l-1,1h-1l-1,-1h-1l-1,1v1h-1l-1,1v1h-1v1l-1,1h-1l-1,1v1h-2l-1,-1v1h-1l-1,1v1h-3v3l-1,1h-1v1l-1,1l-2,1M269,208l-1,1l-2,1l-3,3l-2,1v3l-1,1h-1v1M264,208h-2v-1l1,-3v-4l1,-1v-2l1,-2M253,225v-1l2,-2h1v-1h1v-1h1h-1v-1h5v1h3v1h1l1,-1h4l-1,1v2h-1M272,189h-1v1h-1l-1,1l-1,2l-1,1h-2v1h-2l-2,1l-7,2h-2l-1,1v3h-2l-1,1h1l1,1v1h2v1l1,1h1l-1,1v1l-2,1h-4l-1,1h-2l-1,1l-2,4l-1,1v3h-1v3h-1M226,158h-2v1l-1,-1h-1l-2,1h-3v-1h-1l-1,1v-3h-1v-1h1v-3h-1v-1l-1,-1v-2l-1,-1l1,-1h-1v-1h-1l-1,-1h-2l-1,1h-2l-1,1h-1l-2,2v2h-1l-2,2h-2l-1,-1v1l-1,-1h-1v-3l1,-1v-1h-2v-1h-1l-1,-1v-1h-2l-1,1h-1l-1,1h-1l-1,1h-1l-1,1h-1v2h-1l-2,1l-1,1l-4,2h-1l-4,2l-1,1h-4l-1,1h-5l-1,1h-1l1,-1h-1l-2,2h-2l-3,3l-2,1h-1M407,40h-1l-2,1h-1l-3,1l-1,1h-2v1h-2l-1,1h-1l-1,1h-2l-2,1h-5l-2,1h-3v2l-1,1l-2,1h-2l-2,1h-2l-2,1l-3,1h-1l-2,1h-2l-1,1l-2,1h-5v-1h1v-1h2l1,-1h1l4,-4h1v-2l1,-1v-3h1h-4l-1,-1h1h-3v-1h1h-3v-1h-16l-2,1h-2l-1,1h-4l-1,1h-2l-1,1h-9v1h-3l-2,1h-1l1,-1v-1l-2,2h-1l-2,1h-2l-2,1h-2l-4,2h-2l-2,1h-2l-1,1l-2,1h-2l-4,2h-2l-1,1l-2,1h-2l-4,2h-1l-4,2h-1l-4,2h-1l-4,2l-1,1h-2l-2,1l-1,1l-2,1h-1l-2,1l-1,1l-2,1h-1l-2,1l-1,1l-2,1h-1l-2,1l-2,2l-2,1h-1l-1,1l-2,1l-2,2l-2,1h-1l-3,3M514,559v2l-1,1h-1l1,1v2h-1v3l-1,1v4h-1v6M539,519l-1,4v3l-1,2v1h-1v1h-1l-1,1h-2v1l-1,1h-1v2h-2v-1h-2l-2,2h-1v-1l-1,1h-1v-1h-4l-4,-1h-6v-2h1v-2h1v-1h1v-3l1,-1v-1l3,-3v-1l1,-1v-2l-3,-3h-1l-1,-1v1l-2,-2h-2l-5,-3v-1l-6,-3h-3l-4,-2v-1l-1,-1l-2,-1h-1v-1h-1l-2,-2l-1,-2l-5,-5M439,496l1,2v2l-2,6v1l-6,3h-1v1h-1v1l-1,1v2h1v2h-1v5h1l1,3v1l-1,1v1h-1v1h1v1l1,2h1v1l-1,1h-1v1h-1v-1l-1,1v1l-1,1v1l-1,2v2h-1v1l-1,1v1l-1,1v1l-1,1v4l-1,1v3l1,2v3h1l-1,1v1h-2v4l-1,1h1v1l-1,1h-1v4l3,3v1h-1l1,1v1l1,1v2l1,1v1h1l-1,1v2h2v1h1l-1,1v4l1,1v2h-1l-1,1v1l-1,1v4l-1,1v1h1v2l1,2l-1,1h1v1l-2,2v1h-1l-1,1v2l-1,1v1l1,1v6l1,1v1l1,2v2h1v2h-1l-2,2v6h-1v2h1h-1l1,1l-1,1v1l1,1h-1v5l1,3v4l1,1v2h-1l-1,1l1,1v5l1,1h2v1l-1,1l1,1v1h1l-1,1l1,1v4h4v3h-5v1h2l1,1h1v1l1,1l-1,1v1h-1v3h1v1l-1,1v1h1v1l1,2v1h-1l-1,1l1,1v2h-1v1l-1,1v4l1,1v3h-1v3l-1,1h-1v3h-1v1h-1v1l1,1v3h1v1l1,1v1l1,1v1h1v-1h4v4h1v3l2,2h1v1h3l2,-1h5l2,1h4l1,1h2"/>
<path class="sb" d="M511,472v-4l-5,-2l-2,-2h-8l-7,2h-2l-3,1h-2l-2,4v1l-1,1l-1,2v5l-3,8v2l-2,-2h-9v1l-1,2l-1,1v3h-1l-1,-2v-2l-1,-1h-2l-1,-1h-7l-2,-1v-1h-1l-1,1v2h-1l-1,1h-1v1l-1,1h-1v2l-1,1l-2,1h-4v-3l-1,-2v-2l-1,-1v-2l-1,-1v-3l-3,-3v-2l-2,-1v-4h1v-2l-1,-1l2,-2v-1h-1l-2,-2h-1v-1h-1v-4l-1,-1v-3l-2,-1v-2l-2,-2M414,395l1,2l2,2l1,2l1,1l3,6v1l-2,2v7h-1l1,1v1l1,1v1l-1,1v1l-1,1v1h-1v1l-1,1v1l2,2v1l-1,1l-1,2l1,1l1,3v1h3v1l-1,1v2h-1v1h-1l-1,2v1h-1l-1,1l1,1v2l-1,1h-1v3l-1,2h-1l-1,1h-2M364,309v1h-2v1h1v1l1,1v1l1,2h-2v1l-1,2v2l-3,3l-1,3l-2,1h-1l-1,1l-1,2h-2l-2,2h-2l-2,2h-2l-2,2v1l-1,1h1v1h-1v-1h-1v3h-1v2h-1v3h-1v1h1v1h-1v1h-1v1h-1l1,1h-1v1h-3v-1h-1v-2h-1v-1l-1,1h-1l-1,-1h-2l-1,1h-1v-1l1,-1h-1l-1,-1h2v-1h1v-3h-1v-1M410,339l-3,-3h-4l3,-5l1,-1l1,-2l1,-1v-1h-2v-1h-2l-1,-1h-1l-2,-1h-1l-1,1h-3v-1h-2l-2,2h-2v1h-2l-1,-1h-1v1h-2v-1h-2v-1h1l-1,-1v-2h-3v-3h-1v-1h-2v-1h-2l-1,-1h-1v-3h-1l-1,-1h-1l-1,-1h-1l-1,-1h-3l-2,-1h-2l-1,-1l-2,-1h-1v2h-8l-1,-1v-1l-1,-1h-1v-1l-1,1l-2,-1h-1l-1,-1l-2,-1h-1v-1h-1M436,293v-2l-1,-1v-2l-1,-1v-1l-1,-1v-1l-2,-2h-1v-1h-2v-1l3,-2l1,-1v-1l-1,-2h-1v-1h-1v-2l-1,-1v-9l1,-1h1v-3h1l1,-1l-2,-2h-2l-1,1h-4l-3,1l-1,-1l-2,1h-3l-2,-2l-1,-2l-2,-1v-1h-1v1l-2,-1h-3l-2,1h-9v-1l-1,-1h-1l-1,-1v-4h1v-3h-1l-1,-1l-1,-2v-2h-2v-1l-1,1h-2l1,-1v-1l2,-2v-1l1,-1v-2l3,-6h1v-1h2l2,-3l1,-1l2,-1h2l1,-1M489,260l-5,-5l1,-1v-1h1v-3h-1l1,-1h2v-1h1l1,1v-1h1l1,-1h1v-2h-1l-1,1l-1,-1l1,-1l-1,-1v-1h1v-1h2v-1l1,-1h2v-1l1,-1l-1,-2M527,286h-1v-1h-2v-1l-1,-1v-1h-1v-2h-1v-1h-1v-3l-1,-1h-2l-1,-1v-1l-3,-3v-2l1,-1v-2h1l-1,-1v-1h1v-1h4v-1h1v-1l-1,-1h1v-1M543,283h1l1,-1l1,-2v-1l1,-1l-1,-1l2,-1v-3h-1v-1h-1v-1l-1,-1v-1l-1,-1v-5l1,-2h1l1,-1M545,590h-2v-1l1,-1v-3l1,-1v-1h1l1,-1v-1h-1l-1,-1h-1v-1l-1,-1v-2h-1v-1h-1l-1,-1h-1l-2,-2v-1l-3,-1l-1,-1h-1v-1h-1v-1l-1,-1v-1h-1v1h-1l-1,1h-1v-3l-6,-6h-1l-1,1v1h-3l-1,-1l1,-1h1l1,-1v-2h1l2,-1l1,-2l1,-1v-1h1l1,-1v-2l1,-1h1l1,-1v-1h1v-1h1v1v-1h1h-1v-1l1,-1h2v-1l1,-1h1l1,-1h1v-2h3l1,-1h1v-1h1l1,-1h1l1,-1v-6h1v-1l-1,-1v-1l-1,-2v-1h-1v-1h-2l-1,1h-1v-2l1,-2v-3l1,-3l1,-2l-1,-1l1,-1l-2,-2h-2v1h-3l-1,1v-1h-1v-1l-1,-1v-5l-1,-1v-4l-1,-1v-1h-1v-1h-3v-1h-1v-1l-2,2h-4l-1,-1h-3v-1l-1,1h-1v-1h-1h1v-7h1v-3h-1v-3h-1v-2h-1v-1l2,-2h1l-2,-1l-1,-1l1,-1l2,-4v-1h1v-1h-1l2,-4v-2h1l-1,-1l-1,-2v-2l-1,-1v-1l-1,1v-1l-2,-1l-1,-1h-1v-5l1,-1v-2h-15l-1,-2v-5l-1,-2l-1,-1h-1l2,-1h1l-1,-5v-1l-1,-1v-1l1,-1h-1v-2h-1l-1,-1l-2,-1h-8l-2,-2v-1h-2l-1,-1h-3v-1l-1,-1h-1v-1h-4v-1h-1v-1h-1l-2,1h-2l-2,-1v-1l-1,-1h-1l-1,-1h-2v-2h-1v-2h-1v-1l-1,-1v-5l-1,-1v-1l1,-1v-6h-1v1h-4l-3,1h-2l-2,1l-3,3h-1l-1,1h-1l-2,2v1h-3l-3,3h-1l-1,1h-1v-1h-11l-1,1h-2l-1,-1v1h-1v-11h1l-1,-1l1,-1h-1l-1,1h-1v1l-3,3h-5l-3,1v-2h-1v-2h-1v-1h-7l2,-2v-1l-1,-1v-1h-1l-1,-1v-1h-1v-1h-1v-2l-2,-2l1,-1h-1l-1,-1h-1v-2h1l1,-1v-4l4,-2l1,-1v-2l-1,-1v-1l2,-2v-3l1,-1v-2h2v-1l2,-2h1l2,-1v-1h1l1,-1h2l1,-1h3l1,-1h1v-1h3l1,-1v1h1v1l1,-1l1,1l1,-1v-2l1,-3v-2l1,-3v-3l1,-3v-5l1,-1v-5h-1v-1l-1,-1h1v-1h-1v-1h-1v-1h-1l-1,-1l-1,-2l1,-1v-3h1l1,-1h2v-1h1v1h2v-3h-6v-5h1v-1h14v-1h-1v-1h1l1,1h2l3,-3h1v1l2,2v4h2l2,2l2,1h1v1l1,-1h2v-1h1l1,-1l1,1h1l-1,1v1h1l1,-1v-1h1l1,-1v-1h1l1,-1h2l1,-1v-1h3l1,-1v-1l1,-1v-1h1l2,-1h2v-3h-5v-2l-2,-4v-3l-3,-2l-2,-2v-1h1v1h5v1l1,1h5l1,-1v1l2,1l1,1h1l1,-1v-2h1l1,-1h4l2,-1h2l2,-2h3v-1l1,-1h1l2,-2l-1,-1v-1h-1h6v1h1v3h-1v2h3v2h1v2h1v1h-1v1h-1l-1,1v2l-1,2v4l1,1v1h1v3h1v1l2,2h1l1,1h1l2,2l1,-1h2v-2h4v-1h4l1,-1v-1h2l1,-1l1,1h7l2,1v-3h-1v-1h1v-1h7v-1v1h1v-1h1v1h2v1h1v1h1l2,1h1l2,-1h1v-1v1h4l1,1h3v-1h1l2,-2v-2h1v-2h1v-1l1,-1l1,-2l2,-2v-1h1"/>
<path class="sb" d="M843,176v-2l-2,-2v-1l-1,-1v-1h2v-1h3l1,1h1v-1v1h2l1,1h1v-2h4l-1,-1h-1v-2h-1v-1l1,1h1v-1h1l2,2h1l2,2v-1l-1,-1h1l-1,-1h-1v-1h-1v-1h-1l-1,-2l-1,-1l-1,-2l-3,-3l-1,-2l-5,-5M903,208l-1,-2l-1,-1v-2l-3,-3l-2,-4l-2,-1l-1,-2l-3,-3v-1l-2,-2v-1h-1l-1,-1v-1l-4,-4v-1h-1v-2h-1v-1l-1,-1v-1h-1l-1,-1v-1h-1v-1h-1v-1l-2,-2v-1h-1v-1h-1v-1M935,259l-1,-1l-3,-6l-2,-2l-1,-2h-1v-1l-1,-1v-1l-2,-2v-2h-1l-1,-3l-2,-2l-1,-2v-1h-1h1v-1h-1v-2h-1v-1l-2,-2v-1l-1,-2l-1,-1l-2,-4l-2,-2v-1l-1,-1v-1l-1,-2h-1l-1,-2l-2,-2h1l-1,-1v-1l-1,-1l-1,-2l-1,-1v-1h-1h1h-1v-2l-2,-2v-1l-1,-1M815,196h1l1,1h2l1,1h2l1,1h1l1,1h2v1h1v-4h1v-1l-1,-1v-3l-1,-2v-2h3v-3h2v-5l-1,-1v-1h2v-3l-1,-1h2l1,1h1l2,2h1l1,1h3l1,1h1l-1,-1v-1l-1,-1l2,2M816,200l-1,-1v-2h2l2,1h1l1,1l2,1h1l1,1h2l1,1h1l2,1h1l1,1h1l2,1h1l1,1v-1l-1,-1v-1l-1,-1v-2l-1,-1v-1l-1,-1v-3h4v-1l-1,-1v-2l-1,-1v-1l-1,-1v-1l-1,-1v-2l-1,-1v-1h-1v-2l-1,-1l1,1h2l1,1h1l1,1h1l1,1h2l1,1h1l1,1h1l1,1h1v1h1v-2l-2,-2v-2l-1,-1v-1l8,8l2,1l1,1l1,2l2,2l2,1l2,2l1,2l1,1l2,1l1,2l2,1M855,252l1,1h1v-4l1,-1l1,1l1,2l2,2l1,-1h1l1,1h1v1h2l1,1h1v-1h-1l1,-1v2h1l1,1h1l1,1h1l1,1h1l1,1h2l1,1h1l2,2h1l1,1h1l1,1h1l1,1v-2l-1,-2v-1l-1,-2l-1,-1v-2l-2,-4v-1l-2,-4v-2l-1,-2l-1,-1l-1,-2v-2l-2,-4v-1l-3,-6v-1l-3,-6l-1,-1v-2l-1,-2l-1,-1l-2,-4v-2l-1,-1l-2,-4l-1,-1l-1,-2v-1h1l2,1l1,1l4,2l8,8l2,3l6,6l2,3l4,4l2,3l4,4l2,3l2,2l2,3l3,3v1l1,1v1l2,2v1h1v1h1v1l1,1h1v2h1l1,1v1h1l1,1v1l1,2v2l1,1v1h1l1,1h2M917,285h1l2,2l1,-1h1l2,2l2,1h1l3,3v-7l-1,-2v-1l-1,-2v-2l-2,-4v-2l-2,-4v-1h1l1,1h1l1,1l1,-1v-2l1,-1v-1h1v-1l1,-1h1v-1h1v-1l1,-1l1,2l2,3l2,2v1l1,2l2,3h1M965,335l-1,-3l-1,-2v-4l-1,-2v-7l-5,-16l-1,-2l-1,-3l-1,-2v-1l-2,-2v-1l-1,-1v-1l-2,-4v-1l-1,-1l-1,-2l-1,-4l-1,-2l4,6l1,3l2,4l2,3l1,3l2,3l2,7l1,1M978,352l-1,-1v1h1v3h1v4h1v3l1,1v3h1v5h1v3l1,1v3l1,2v2l1,1v3l1,1M828,235v-4h2v1h4l1,1v-1l1,1h1l2,1l1,1l2,1l1,2v1h2v1h1v1h1v1l1,2h1v1l2,2v1h1v1l3,3l1,2v2h1v1l1,1v3l1,1v1l1,1h1v1l1,1v1h1v4h1v1M831,251h2l4,2h1v-1h1l1,1h1l3,3h1v1h2l1,1v1h-2l-1,-1l-2,-1l-2,-2h-1v-1v1h-3v-1h-1v2l-1,-1h-1l-1,-1h-2M832,259l1,1h2l2,1h5l4,2h2l2,1M844,274v-1l1,-2v-1h1l1,1v-1h1l1,1h2v-2l-1,-1h-1v-1h1v-3l2,1l1,1h1v1h1v1h1l1,1h1v1h2l1,1h2v1h1h-1v1l2,2h1v-1h1v2l1,1h1v-1h1l1,1h1l1,2h1v-1h1v-1h1l1,1v1l1,1l1,2v2l1,1v1h1v1h1v1h-1v2l1,-1v1l1,1v3l2,2v1"/>
<path class="sb" d="M898,302v-2l-1,-2v-1h1v-3l-1,-1v-1h3v-1h1l-1,-1v-2h1v-1h-1v-3h1l1,1l1,2h1v-3l1,1h1l-1,-1v-1h1v-1h1l1,2h1v-1h1v-1h2l1,-1l1,1v1h1l3,3v3l1,1v1l1,1v1l1,1v1h1v1l1,1v1l1,1v1v-1h-1l1,1v1l1,1l1,2l1,1v1h1v1l1,-1v1l1,1v3l1,2l1,1M857,292h1v-1h1l1,-1v-2h2l1,1h1v-1l1,1h1l1,1h1v2h1l1,1v2l1,1v1h1h-1v1l1,1v1l1,1v2l-1,1h3M869,313l1,-1v-1h1v-1h1l1,-1v-3h1l1,-1v-1h1v1h1l1,1v-1v1l1,1v1l1,1v5l1,1h1v2h2v-3h1v2M893,343l-1,-2v-4h1v-4l-2,-2v-1h-1v-3h-1l-2,-2v-1h-1v-1l1,-1v-2l-1,-3v-1h-1h2v-3h1l-2,-2v-2l1,1h1v1h1v1v-3h-1l-1,-1v-2h1l-1,-1v-2h-1l-1,-1v-5h1l1,-1v1v-1l1,1v1h1l1,1v1h1v-1h1v-1h1v1v-1h1v2l1,1h-1l1,1h1v-1l1,1h1v1h1v1h1v1l1,1v1l2,2v1h1v1h4l1,1h1v1l1,1v1l1,1v1h1M915,350h1v-4h-1v-3l-1,-1v-2l-1,-1v-4l1,-1v-5l1,-1v-3l-1,-2v-2h-1v-4l-1,-1v-4l-1,-1h1h-1v-2l-1,-1v-3l1,1h1l1,1l2,1l1,1l2,1l1,1h1v1h1v-1l2,1M934,355v-1h-1v-2h-1v-1l-1,-1v-2l-1,-1v-5h-1v-1l1,-1l-1,-3v-3l-1,-1v-5l-1,-1v-1h-1v-6h-1v-1l-1,-1v-1l-1,-1v-4l1,1l1,2h1l1,1M935,355h1v-1l-1,-2v-2l-1,-1h1l-1,-3v-5l-1,-2v-4l-1,-2v-1l-1,-1v-3l-1,-1v-2l-1,-1l-1,-2l-1,-1v-5h1h-1h1v-2h1v1l1,1h1v-1h1v-2l-1,-1v-1h1v1v-1h1v1l2,4l1,1v1l1,1M940,357v-3l-1,-1v-6h-1v-7l-1,-2v-1h1v-3h1l-1,-1l1,-1v1v-7l-1,-1v-2l-1,-2v-3h-1v-11h2v1h1v1l1,-1l1,2l2,2v1h1v1l1,1v1l1,2v1h1v1h2l1,1l2,3l1,2v1l1,1l2,1v-1h1l2,1l1,2l1,1l1,2v1l1,1v-1h2l1,2l1,3v1M962,388v-1l1,-1v-7l1,-1v-2h2v1h1v-1v2l1,1v2l1,1v1h1v-12h1v-2l-1,-2v-1h1v-2l-1,-1v-8l1,1v-3l-1,-1v-3l-1,-1v-2h-1v-1l-1,-4l1,1v2l1,1v1l1,1v1l1,2v2l1,2v3l1,1v4l1,2v1l1,1v2l1,1v1l-2,-2v-1l-1,-1v4l1,1v1l1,2v2h1v2l1,2v2l1,2v2l1,1v2M984,433v-6h-1v-4l-1,-1v-2l-1,-2v-6l-1,-1v-2l-1,-3v-4l-1,-3v-5l1,-1v-3l1,1v-1v1h1v-1v2l1,1h1v1h1v1v-1h1v-2h-1v-2h1v2h1v1v-6h1v2l1,3v3l1,1v4l1,2v4l1,1v2M997,449v-7l-1,-1v-7l-1,-1v-5l-1,-3v-4h-1v-5l-1,-1v-4l-1,-1v-6l-1,-1v-1v1h1v2M967,411l1,1v1l2,2v1l1,1h1M967,421h1v2h1l3,3v1v-11l1,1l1,2l1,1v1h1v1l1,1v1M971,466v-2h1v2h1v-7l-1,-1l1,-1v-2l1,1v1h1v-3h1v3l1,2v2h1v-1h1v3h1v-10l1,-2v-1l-1,-1v-3l-1,-1v-4l1,-1v-7h-1v-1h-1v-1h-1v-7l3,3v1h1v3h1v2h1v1l1,1v1v-6l1,-1h-1v-4l1,-1v1l1,1l1,2v1l1,1v1M976,478v3l1,-1v-1h2v6h1v-1l1,-1v-1h1v-1h1l1,-2v-11l1,-1v-1l1,-2v-1h1v-1l1,-1v-27l1,-1l-1,-2v-9l1,-1v2h1v3l1,2v3l1,1v2l1,1v1l1,3v-1h1v1l1,2v-1v2l1,2v6l1,2v6"/>
<path class="sb" d="M1000,508v-17M999,517v-4l1,-1v-3M998,532l1,-1v-13l1,-1v2M995,566v-4l1,-1v-8l1,-2v-8l1,-1v-9h1v-12l1,-1v-1v1v-10M972,477h1v-1h1v-1v1l1,-1v2l1,1h-1l-1,1v3l-1,2v1v-1h-1M975,488v1l2,2v1h1l2,2v2l2,2v1l1,1v5l-1,1v1l1,2l-1,1v10l1,1v1h1v1h1v2l1,1v-3l1,-1v-3h1v1l1,1v5l1,2v5l-1,2v5l-1,2v4l-1,1v9l-1,1v4h-1h1v1l1,1v2h1v-1M973,616v-5l1,-2v-6l1,-3v-2l2,-4v-3l1,-3l1,-2l1,-3v-2l1,-3l1,-2v-1v1l1,1v2l1,1v-1l1,-1v-2l1,-2v-3l1,-1v-3l1,-1v-1v4l-1,1v1h1v11l1,-1v2l-1,2v8l-1,2v5h-1v2h1v1h-1v1l1,-2v-2l1,-2v-3l1,-1l-1,1v-3l1,-1v-6h1v-3l1,-2v-2l1,-2v-4l1,-1v-5h1v-3l1,1v5l-1,1v8l-1,1v4M985,620v-4l1,-1v-2l1,-1v-3h1v-3l1,-2v-3l1,-1v-4h1h-1h1v-4l1,-1v-6h1v-2v3l-1,1v4l-1,2v4h-1v5h-1v4l-1,1M952,575h1v1h1v1h3v6h1v1l2,2l1,2l1,1v1l1,1l1,2l1,1v1l1,1v1h1v1l-1,1v3l1,1v2l1,1v3h1v2h1v2h1v1h1v1l2,2v2l1,1l-1,1v2M946,659l1,-1l1,-3l5,-10l1,-3l2,-4v1l1,1v1l1,-1l2,-6l2,-4l4,-12l2,-3v-2l3,3v1l1,1l-1,2v3l1,-1v-1h1v2l1,-1v1M963,670v-3h1v-4l1,-2v-3l1,-2v-1l1,-1v-2h1v-4l1,-1v-5l1,-2v-2l1,-3v-1l1,-1v-2l1,-2v-4l1,-1v-1v7h1v-1l2,-2v-1l1,-1h1v-1l1,-1v-2h1v2M926,677h1l2,-2v3l-1,1v1l-1,1v1l1,1v2l1,1v2h1v-1h1v-1h1v1l1,-1l2,-4l1,-3l4,-6l2,-4l1,-3l2,-3l1,-4v5h-1v3l-1,2l-1,1v2h-1v1l-1,1v1l-1,1v2l1,1v1l1,-1v1v-1l1,-1h2v-1l2,-2v-2h2v2l-1,1v7h1l1,-1v-1l2,-2v-1h2v-1h1l2,-3v-1h1v-1h2v-2h2l1,-1v7l-1,1M946,712v1l-2,2v-2l1,-1v-1l1,-2v-1l1,-2l2,-2v-1l1,-1v2l-1,1M946,715v-3l1,-2v-1l2,-2v-2h1v-1l1,-1l2,-4l1,-1v-2l1,-1v-1l1,-1v-2l1,-1v-1h1v-2l1,-1v-1l2,-4v-2l1,-1v-1h1l1,-1v-1l1,-1v-1h1v-1l1,-1v-2l1,-1v-1l1,-1v-1h1v-3l1,-1v-1l1,-1v-2l1,-1v-1l1,-1v-2l1,-1l1,-3l1,-2v-2l1,-2v-2h1v-5l1,-3v-1l1,-2v-6l1,-1v-2l1,-1v-1h1v2h1l-1,1v4l-1,1v3l-1,1v3h-1v3l-1,1v2l-1,1v2l-1,2v1l-1,2v2l-1,1v1l1,-2v-2l1,-1v-2h1v-2l1,-2v-1l1,-2v-1l1,-2v-2l1,-3v-1l1,-2v-2l1,-2v-2l1,-1v-3l1,-2v-2l1,-2v-4h1l-1,1v3M932,725h1l1,-1v-1h1v-1l2,-2v-2l1,-1v-2l1,-1l-1,-1v1h-1l-1,1h-1v1h-1v1h-1v2l-1,1v1l-1,1v1l-1,1v2h1v-1l1,-1v1"/>
<circle class="w4" cx="500" cy="736" r="26"/>
<circle class="w4" cx="500" cy="736" r="24"/>
<circle class="c4" cx="500" cy="736" r="25"/>
<path class="sg" d="M 334.5375 970.9739 A 249.7500 99.3317, 0, 1 1, 664.4625 970.9739"/>
<path class="sg" d="M 80.6871 771.7058 A 432.5797 172.0475, 0, 1 1, 918.3129 771.7058"/>
<path class="sg" d="M 0.0000 499.5000 A 499.5000 198.6634, 0, 1 1, 999.0000 499.5000"/>
<path class="sg" d="M 80.6871 227.2942 A 432.5797 172.0475, 0, 0 1, 918.3129 227.2942"/>
<path class="sg" d="M 334.5375 28.0261 A 249.7500 99.3317, 0, 0 1, 664.4625 28.0261"/>
<path class="sg" d="M 212.4454 90.7215 A 398.7752 499.5000, -215.07750241, 0 0, 786.5546 908.2785"/>
<path class="sg" d="M 385.6764 13.1417 A 232.4208 499.5000, -193.17200082, 0 0, 613.3236 985.8583"/>
<path class="sg" d="M 497.8573 0.0027 A 3.7895 499.5000, -180.18843173, 0 0, 501.1427 998.9973"/>
<path class="sg" d="M 609.2679 12.2103 A 225.8572 499.5000, -167.30532040, 0 1, 389.7321 986.7897"/>
<path class="sg" d="M 779.2152 85.6647 A 394.9857 499.5000, -145.94486007, 0 1, 219.7848 913.3353"/>
<path class="sg" d="M 998.8921 489.1173 A 458.2780 499.5000, -91.19104301, 0 1, 0.1079 509.8827"/>
<text x="0" y="0" class="fs" transform="translate(80,286) rotate(103)">120W</text>
<text x="0" y="0" class="ft" transform="translate(80,286) rotate(103)">120W</text>
<text x="0" y="0" class="fs" transform="translate(255,215) rotate(97)">90W</text>
<text x="0" y="0" class="ft" transform="translate(255,215) rotate(97)">90W</text>
<text x="0" y="0" class="fs" transform="translate(496,189) rotate(91)">60W</text>
<text x="0" y="0" class="ft" transform="translate(496,189) rotate(91)">60W</text>
<text x="0" y="0" class="fs" transform="translate(737,214) rotate(82)">30W</text>
<text x="0" y="0" class="ft" transform="translate(737,214) rotate(82)">30W</text>
<text x="0" y="0" class="fs" transform="translate(915,284) rotate(77)">0W</text>
<text x="0" y="0" class="ft" transform="translate(915,284) rotate(77)">0W</text>
<text x="0" y="0" class="fs" transform="translate(624,807) rotate(11)">60S</text>
<text x="0" y="0" class="ft" transform="translate(624,807) rotate(11)">60S</text>
<text x="0" y="0" class="fs" transform="translate(714,575) rotate(14)">30S</text>
<text x="0" y="0" class="ft" transform="translate(714,575) rotate(14)">30S</text>
<text x="0" y="0" class="fs" transform="translate(746,323) rotate(13)">0N</text>
<text x="0" y="0" class="ft" transform="translate(746,323) rotate(13)">0N</text>
<text x="0" y="0" class="fs" transform="translate(712,118) rotate(14)">30N</text>
<text x="0" y="0" class="ft" transform="translate(712,118) rotate(14)">30N</text>
<path class="tb" d="M127,998h-2l-1,-1h-2l-1,-1h-2l-1,-1h-2v-1h-3v-1h-2l-1,-1h-2v-1h-2l-1,-1h-2v-1h-2v-1h-2l-1,-1h-2v-1h-2v-1h-2v-1h-2v-1h-2v-1h-2v-1h-2v-1h-2v-1h-2v-1h-1l-1,-1h-1v-1h-2v-1h-2v-1h-1v-1h-2v-1h-1l-1,-1h-1v-1h-2v-1h-1v-1h-2v-1h-1v-1h-1l-1,-1h-1v-1h-1v-1h-1l-1,-1h-1v-1h-1v-1h-1v-1h-2v-1h-1v-1h-1v-1h-1v-1h-1l-2,-2h-1v-1h-1v-1h-1v-1h-1v-1h-1v-1h-1v-1h-1v-1h-1v-1h-1v-1h-1v-1h-1v-1h-1v-1h-1v-2h-1v-1h-1v-1h-1v-1h-1v-1l-1,-1v-1h-1v-1h-1v-1l-1,-1v-1h-1v-1l-1,-1v-1h-1v-1l-1,-1v-1h-1v-2h-1v-2h-1v-1l-1,-1v-1l-1,-1v-1l-1,-1v-2h-1v-2h-1v-3h-1v-2h-1v-4h-1v-3h-1v-5h-1v-6l-1,-1v-17h1v-7h1v-4l1,-1v-3h1v-3h1v-3h1v-2l1,-1v-2h1v-2h1v-2h1v-2h1v-2h1v-2h1v-2h1v-1h1v-2h1v-1h1v-2h1v-1h1v-1l1,-1v-1h1v-1h1v-1l1,-1v-1h1v-1h1v-1h1v-1h1v-1h1v-1h1v-2h1v-1h1v-1h1v-1h1v-1h1l3,-3h1v-1h1v-1h1v-1h1v-1h1v-1h1v-1h1l1,-1h1v-1h1v-1h1v-1h1l1,-1h1v-1h1v-1h2v-1h1v-1h1v-1h2v-1h1v-1h2v-1h1v-1h2v-1h1l1,-1h1v-1h2v-1h1l1,-1h1v-1h2v-1h2v-1h2v-1h1l1,-1h1l1,-1h1l1,-1h1l1,-1h1l1,-1h2v-1h2v-1h2v-1h2l1,-1h2v-1h2v-1h2l1,-1h2v-1h3v-1h2l1,-1h2v-1h3v-1h3v-1h159v1h3v1h3v1h2l1,1h2v1h3v1h2l1,1h2v1h2v1h2l1,1h2v1h2v1h2v1h2l1,1h1l1,1h1l1,1h1l1,1h1l1,1h1v1h2v1h2v1h2v1h1l1,1h1v1h2v1h1l1,1h1v1h2v1h1v1h2v1h1v1h2v1h1v1h1v1h2v1h1v1h1l1,1h1v1h1v1h1v1h1l1,1h1v1h1v1h1v1h1v1h1v1h1v1h1l3,3h1v1h1v1h1v1h1v1h1v2h1v1h1v1h1v1h1v1h1v1h1v1l1,1v1h1v1h1v1l1,1v1h1v1h1v2h1v1h1v2h1v1h1v2h1v2h1v2h1v2h1v2h1v2h1v2l1,1v2h1v3h1v3h1v3l1,1v4h1v7h1v17l-1,1v6h-1v5h-1v3h-1v4h-1v2h-1v3h-1v2h-1v2l-1,1v1l-1,1v1l-1,1v1h-1v2h-1v2h-1v1l-1,1v1h-1v1l-1,1v1h-1v1l-1,1v1h-1v1h-1v1l-1,1v1h-1v1h-1v1h-1v1h-1v2h-1v1h-1v1h-1v1h-1v1h-1v1h-1v1h-1v1h-1v1h-1v1h-1v1h-1v1h-1v1h-1l-2,2h-1v1h-1v1h-1v1h-1v1h-2v1h-1v1h-1v1h-1l-1,1h-1v1h-1v1h-1l-1,1h-1v1h-1v1h-2v1h-1v1h-2v1h-1l-1,1h-1v1h-2v1h-1v1h-2v1h-2v1h-1l-1,1h-1v1h-2v1h-2v1h-2v1h-2v1h-2v1h-2v1h-2v1h-2v1h-2l-1,1h-2v1h-2v1h-2l-1,1h-2v1h-2l-1,1h-2v1h-3v1h-2l-1,1h-2l-1,1h-2l-1,1h-2Z"/>
<path class="tl" d="M169,986h1v1h-3l-1,-1h2v-1ZM114,989h-3l-1,-1h2l1,1ZM176,983h1l1,1v1h1l-1,1h-2l-1,1h-1l-1,-1l1,-1v-2h1v-1ZM124,980h2v1h-1ZM122,980l1,1h-1l-1,-1ZM136,977h1h-2ZM156,974v1l1,1h-5v-1l1,-1v-1l-1,-1l1,-1v1h1l1,1ZM158,964v1h-2v2h1l-2,2v1h1l1,1h1l4,4v1l1,1v1h-1v2h-1l-1,1h-1v1h-2l1,1h1v1h-2l1,1h1v1h3l1,1h3l1,1h3l1,1h1l1,1v-1h1v-1h2l2,-1l1,1h1v-1h4v-1h3l1,-1h-1v-1h-4l-1,-1l1,-1h1l2,-2h4l1,-1h1l2,-2h-1v-1h1v-1h2v-1l1,-1h1v1h1v-1h8v-1h3v-1h1l1,1h2v-1h1v1l1,-1h4v1h6v-1h3v-1h2v1h3l1,-1h3v-1h2l1,-1h2l1,-1h4v1h1v1h1l1,1h1l1,-1l1,1h2v1l-2,2h-1v1h1h-1v1h-1v1h2l2,-2h1v-1h3l1,-1h1v-1h2l1,-1h5v-1h1v1h5v1h1l1,-1l1,1l1,-1h1l2,-1v1l1,1h3l1,-1h2v1h1v1h4l1,-1v1h9l1,-1l-1,1v1h-1h3l1,1h2l-1,1v1h1v1h2v1h1v2h2l1,1v1h-1l-1,1h-2l-1,1h-3l-1,1h-2l-1,1h-2l-2,2v1h-5l-1,1h-2v1h-1v3h2l-11,4h-155l-11,-4h-1h2l1,-1l1,1h14l-1,-1h-7v-1h-2v-1h-3l-1,-1h4v-1h-2l-1,-1h-7l-1,-1l-2,-1l1,1l1,-1l2,1v-1h1v-1l-1,-1h-1h2v-1h2v-1h4l1,-1h5l1,-1l1,1v-1h1l1,1h1v-1l1,1h6v-1h-2l-1,-1h-1l-1,-1h4l1,1h1l1,-1h3l-1,-1h1l1,1l1,-1l1,1h3v-1l1,1h4v-1h2l1,-1v-1h-1v-1h-1v-1h-1v-1h-1v-2l-1,-1v-1h1v-2h1v-1h1v-1h1l1,-1l1,1ZM144,951l2,1h1v1h-1v-1v1h-4l-2,-2l-2,-1l2,1h2v-2h1v1ZM151,947h1v1h-2v1l-1,-1l1,-1ZM269,946h-1v-2h1l1,1ZM345,939v1h1l1,-1v1l-3,3v-1l-1,1h-1l1,-1v-1l1,-1v-1ZM368,943v1l1,-1v1h-1l-3,3h-1l-1,1h-1l-2,2h-2v1h-1v-1h-1v-1l4,-2h1l1,-1h2l2,-2h1l2,-2ZM376,936l-1,2l1,-1l-1,1l1,1h1l-2,2h-1l-2,2l-2,1h-1l2,-1v-2l1,-1l2,-1v-1l1,-1v-3l1,-1v1l1,1ZM382,913l-1,1v-2l-1,-1v-1h1v1l1,1ZM397,906v1l-1,1h-1v-1l1,-1v1ZM398,906h-1v-1h1l1,-1v1ZM10,905v-1ZM386,904v-1ZM386,901v2h-1v-1ZM259,895v2l1,1h-1v1v-1v2h-1v3l-3,6v2h-1l-1,1l-1,-1h-1v-5h1v-2l1,-1h-1v-3h1v-1h1l2,-2h1v-1l1,-1v-1l1,-1v1ZM361,898v1h1v1h1l-1,1v2h1l-1,2v1l2,2v4h1l-1,2l1,1v3l-1,1v2l-3,3v1l-1,1l-1,2h-1l-1,2h-1l-4,4v1h-2l-1,1h-1l-1,1v-1h-1l1,-1h-1l-1,1h-1v-1h-1v-3h1l-1,-1v-1l1,-1l-1,1h-1l3,-3l-2,1h-1l-1,2v-4l-2,-2h-2l-1,1h-4l-2,2h-4l-1,1v-1l-1,1h-2v-1h-1l1,-1v-1h1v-3l1,-1v-7l1,1v-3l1,-1v-1l1,-1l-1,1l2,-2h1l1,-1h2l1,-1h2v-1h1l1,-1v-2l1,-1v2l1,-1v-1h1v-1l2,-2h2v1h2v-2h1l1,-1v-1h2v-1h-1h1l1,1h3l1,1h-1v1h-1v1l-1,1v1l2,2v1h1l1,1h1v-1l1,-1v-1l1,-1v-3l1,-1v-2h1v-1v3l1,1Z"/>
<path class="tl" d="M383,894h-1v-1v1ZM337,892l-2,-1h2ZM381,893h-1v-1h1ZM382,892v-1l-1,-1h1ZM341,892h-1l3,-3h2l-1,1h-1l-1,1ZM335,889h1v1h-3l1,-1ZM340,889v1h-3v-1h2ZM381,890v1l-2,-2h1v1ZM378,889v-1h-1v-1l1,1ZM325,887h2v-1l2,1v1h2l1,1l-1,1l-1,-1h-4l-1,-1h-1l-2,-1h-1l1,-2h1l1,1ZM353,886v1v-2ZM377,888h-1v-2l-1,-1h1v2h1ZM373,885l-1,1h-1l-1,1l-1,-1h-1l1,-1l1,1v-1h2v-2h1v1ZM345,882h-1v-1h1ZM349,881v2l-1,-1h-2v-1h2ZM374,884l-1,-1v-1l-1,-1h-1h2v2h1ZM353,878v3l2,1v-2l2,-1h1l1,1h1l1,1l4,2v1h1v1l2,1v1h-1v1l1,1v2h1v1h1h-1l1,1l-1,1v-1h-2l-1,-1v-3h-3l-1,1v1h-2l-2,-2v1h-2l1,-2h1l-1,-2v-1l-2,-1h-1l-1,-2l-1,1l-1,-1h1l-1,-1l1,-1h-1v-1h-1l-1,-1h2v-1ZM343,875l-1,1h-4v1l1,2v-1h2l-1,1h-1l1,2v1l1,2v1h-1v-2l-1,1v-1l-1,-1l1,-1h-1v4h-1v-3h-1v-1l1,-1v-4h1v-1h4l1,-1ZM347,875v1h-1v1l1,1h-1v-4h1ZM321,885h-1l-2,-2v-1l-2,-2l-1,-2v-2l-1,-1v-1l-4,-4v-1h2l3,3l1,2h1l2,2h1l-1,2h1v1l1,1h1v3ZM335,874l1,1h-1v3l-1,1v1l-1,3v-1l-1,1l-1,-1h-1v-1l-1,1l-1,-1h-1l-2,-4v-2l1,-1h2v-2h2v-1l1,-1v-1h1l1,-1v-2h1v1l2,2v1h-1l-1,2l1,1ZM344,864v3l-1,-1v2l-2,-2h1l-1,-1v1l-1,-1l-1,1v-1l1,-1h2v-1h1v-1l1,1ZM294,868h-1v-1l-1,-2l1,-2l1,1v1l1,1v1ZM137,863h-1l1,-1h1ZM341,861v1l-1,1l-1,-1l1,-1v-1v1l1,-1ZM335,863l-1,1v-1l1,-1v-1l1,-1v1l-1,1ZM338,859h2v1l-1,1v-1h-1ZM342,858l1,2h-1v1v-1h-1v-1h1h-1v-1ZM338,857l-1,1l-1,-1h1ZM336,849h1v6h1l2,1v2l-1,-1v-1v1l-1,-1h-2v-1h1h-1l-1,-1v-5ZM133,851v1h-1v-1ZM121,852h-1v-1h2v1ZM126,849h3v1h1v1h-2l-1,1v-1h-1v-2h-1ZM324,849l-1,1h-1v-2l1,-1h1v1ZM37,846v-2h1v2ZM38,844h-1v-1h1ZM119,845h2l1,1v1h1v1h2l-1,1h-3v-1h-1v-2h-2l-1,-1h-1h1h-2l-1,1h-1l2,-2h3ZM122,843h-1v-1l1,-1v1ZM334,843v1l-2,-2v-2l1,-1l1,1ZM122,839l-1,1v-1ZM123,839v1v-1h-1ZM340,825h1v1h-1v1h-1v-2ZM240,828l-2,2v-1h-1h2ZM229,828v1h-1ZM220,825v2h-1l-1,-1h-1v-1h2ZM214,821v3h-1v-3ZM344,820v1l1,1v1l-1,1h-1l-1,2l-1,-1v-1l-2,1l-1,1h-1l2,1v3l-1,-1v-1h-1l-1,-1l1,-1v-3h3v-3l1,1v-2h1l-2,-4v-1l3,3v1ZM214,820v1l-1,-1v-1l1,-1ZM340,810l1,-1l1,2h-1v2l-2,-1l1,2h-1l-1,-2l-1,-1h1l-1,-2l-1,-1l3,1ZM144,812l1,1h1h-2ZM147,809h-1l-1,-1h1ZM92,806h-1l-1,-1v-2h-1v-1h1l1,1v1l1,1ZM153,807l-1,1h1v1h2l-1,1h1v1l-1,2l-1,-1l1,-1l-2,1v-1h-3l1,-1h-1l4,-4h1Z"/>
<path class="tl" d="M90,797h1l-2,2v1v-3ZM332,800l3,3l-2,-1l1,2l2,2v1l-2,-2l-1,-2l-6,-6v-1h-1h1l3,3ZM198,806l-1,1h-2l1,-2v-1l2,-2h1v3ZM216,801l-1,2l-1,-1v-1h1ZM79,791h-1v-1h2ZM202,797l-1,2h2v1l-1,1h1l2,4h1v1l-1,1h1l-1,1h-3l-1,1h-2l2,-2h-1v-1h1l-1,-1v-1h2l-1,-1h-1v-2l-1,-1l1,-2v-1l1,1ZM75,786h-1v-1h1ZM141,790l-1,1v-1ZM139,790h-2l1,-1h1ZM78,780v1h1h-2v-1ZM139,786h1v1h1l-1,1h1l-1,1l-1,-1h-1l-2,1l1,-1h-1h1l1,-1l1,-2ZM193,787v1l1,1l-1,1h-3l-1,1l-1,-1h-2l1,-1h-1h1v-1h-2l1,-1h1l1,1l2,-1h2ZM147,784h-1l1,-1h2l-1,1ZM81,776v1l1,-1h2l-1,2h-3l-1,1h-1l-1,-1h1v-1h-1h1h-2l-1,1l8,-5v1l-1,2ZM135,780l-1,1v-1h-1l1,-1h1ZM322,771h-1ZM88,771h-1h2ZM139,780l-1,2l2,-1v1h-1v1l1,-1l2,-1l1,-1h2v2h-1v1l-1,1l-2,1h-1v-1l-1,1l-2,1v1h-3l-2,2h-1l-1,1l-2,1l-1,1l-1,2h1l-1,1v1h1l3,3l2,1h1l-2,2v2l1,1h1l2,-4h-1l4,-2v-1l1,-1v-1l-1,-1l2,-1l2,-4l1,1h1l1,-1v1l1,1h1v2l-1,1l1,1h2l1,-2h1v3l1,1l-1,1l1,1v1h1l1,1v1l1,1l-2,2h-2l-2,2h-1l-2,-1h-2l-2,1l-1,1l-2,1l-1,1l2,-1l3,-1h2l-1,1l-1,2v1l1,1l2,-1l1,-1v1h1l-4,2h-1l-2,1v-1l2,-1h-3v1h-1l-1,1h-1l-2,2l1,1v-1v1h-3l-1,1l2,-1v1h-2l-2,2v1l-1,1l-1,-1l1,-1l-1,1v4l-1,1h-1l-1,1h-1l-3,3h-1v8l-1,1h-1v-3l-1,-1l1,-1l-1,-2l-1,1l-1,-1h-4v1h-1l-1,-1l-1,1l-1,-1l-2,2h-2v1h-1v3l-1,1v1l-1,2v4l1,1v1h1v1l1,-1h3v-1l1,-1v-1l1,-1h3v1l-1,1v2l-1,1v-1v2l-1,1v1h5v1h1v1l-1,1v3l-1,1h1v2h1v1h2l1,-1h1v1h1l1,1l1,-1v-2l1,-1h2l2,-2v2h-1h1v1l-1,1v1h1v-3h1v-1h1v1h1v1h3l1,1l1,-1h1l1,1h1v1l1,1h1v1h1v1l1,1l2,1v-1h1l1,1h1l1,1v1h1v1l1,2v1l-1,1l1,1h2v1v-1l4,2v1h1l3,1h1l2,1l2,2h2v5l-1,1l-1,2l-2,2v9l-1,2v2h-1v1h-2l-1,1h-1l-3,3v5l-1,2l-2,2v2l-2,2v-1l-1,1l-1,-1h-1v-1v1l1,1v1l1,1v2l-2,1h-3l1,1v2l-1,1l-1,-1h-1l1,2h2l-2,2l1,1v1h-1l-1,1v1l2,1h1v1l-1,1v2h-1v1l2,2h-1l-1,1v1h-1l-2,-1l-3,-3l-1,-3v-1l1,-1h-2l1,-2l-1,-2h1v-2l-1,-1v2l-1,-2v-4l-1,-1l-1,-2h1v-6l-1,-2v-8l-1,-2v-6l-1,-2l-1,-1l-2,-1l-3,-2l-1,-1v-1l-1,-2l-1,-3l-2,-3l-2,-2v-1l-1,-2l2,-2v-1h-1v-3l1,-1v-1h1v-2h1l1,-1v-5l-1,-1v-2h-1v1h-1v1h-1l-1,-1h-2v-2h-1v-1v1h-1v-3l-2,-2h1h-2v-1h-2l-1,-1l-1,-2h-1l-1,-1v1h-2l-1,-1h-2l-2,-2h-1l-1,-1v-1h-1v-3h1l-1,-1v-3l-1,-1v-1l-1,-1v-3h-1v-5l-1,-1l-1,1v4h1l-1,1h1v5h1v2h-1v-1l-1,-1v-3l-1,-1v1v-1h-1v-1h1v-9h-1v-1h-1v-9l2,-2v-1l1,-2l2,-2l1,-2l1,-1v-1h1v1l2,-2h-1v-2l-1,-1v-1l1,-1l-1,-1l1,-1v-1l1,-1l-1,-1l1,-1v-1l1,-1l-1,-1h-1v-2h-1v-1h-1l-1,-1h-1l-1,1h-4l1,-1l2,-1h-1l-1,1l-2,1h-1l-1,1l-2,1h-2l-2,1h-1l-1,1h-3l-1,1h-2l1,-1h2l2,-1h2l2,-1h1l2,-1l1,-1h-3l1,-1l-1,1h-1l2,-2h-1v-1l2,-2l2,-1h3l1,-1h1l1,-1h-3v-2h4l1,1l1,-1v-3h4l1,-1h2l2,-1l1,1l1,-1h1l-1,1h1l1,1h2l1,1h2v1l1,1l1,-1h6l1,-1v2l2,-1l-1,1h2l1,1h2v1l-2,1h4v1l2,-2h2v1h1l1,1h2v-1h1l1,1l-1,1l1,-1h1l1,-1v-2l1,-1l2,-1l1,1l-2,2Z"/>
<path class="tl" d="M128,774l-1,1h4l-1,1h1l2,-2v1l-1,2v1l1,1h-2v1h-8v-1h-1v-1h4l-1,-1h-3l2,-1h-1l1,-1h1ZM135,774l-2,1v-1h1ZM152,776v1l-1,-1l-1,1v-2h2ZM146,776v1l1,-1l2,-1v2h3l1,1l-1,1l2,-1v1l1,1v2h-1l2,2v1h1v1l-2,1h-1l-1,-2l-1,1v1l1,1v2l-1,1l-2,-2v1l1,1h-2l-2,-2v-1l-1,-1v1h-3v-1l1,-1h3l1,-1l2,-1v-1l-1,-1h-1l1,-1l-1,-1h-5l-1,-1h-1l1,-1h-1l1,-1l2,-1l1,-1h2ZM138,774h2l-1,1h-1l1,1l-2,1h-2v-2l1,1v-1ZM298,772h-2v-1ZM141,776l-2,1v-1l2,-2h2l1,1l-2,1ZM122,776h-2l-1,-1h1l2,-1l2,-2h2v1h2v1h-1l-3,1h-2ZM299,769v1h-3v-1h1ZM143,773v1l-1,-1h-1l1,-1h1l1,1ZM295,769l1,1h-2l-1,1l-2,-1l-1,-1h2ZM143,771h-1v1l-1,1h-2l1,-1h-1l1,-1h2ZM136,771h1v1h-4l-2,1h-1l1,-1h-1l-1,-1l2,-1h1l2,1l1,1v-2h2ZM246,780h-3l-2,-1v-1l1,-2h-1l1,-1l-1,-1h1l4,-2h2l-1,1l-2,1l-1,1v2l-1,1l1,1ZM145,770l1,1h1l-1,1h1l1,1h4v1h-7l-1,-1l1,-1v-1h-2l1,-1ZM134,769l-2,1h-4l2,-1h3ZM271,770l1,1v-1h2l2,1h1v1l-1,1h1l2,1v-1l1,1l1,-1h2l1,1h3l-2,-1h5l1,1v1h2l2,1l-1,-1h1l1,-1l2,1v-1h1l-2,-1h8l3,1l1,-1h2l2,2h2v-1h3l3,1v-1h-2v-1h7l8,5h-1l1,1l2,1h2v1h-1v1h-1l1,1v2l-2,-1v2l-1,-1v1h-1l2,2v1h1l3,2h-1l1,1h1v1l1,2h-1l1,2l1,1l-4,-2l-4,-3l-1,-2l-1,-1v-3l-1,-2v-1l-2,-2l-1,1l2,2l-3,-1l-1,1l1,2l1,1h-1l-1,1l-1,-1h-1v1h-4v7h1l2,1h1l-1,-1h1l3,1l1,2l1,1l1,2l2,2v9h-1l-1,-1v2h-1v1l1,1v1h-1v1l1,1h1l2,2v1l1,1v1l-1,1h-1l-1,-2l-1,-1h1l-2,-1v-1v1v-1h-1v-1l-1,-1h-2v1h-1l-1,-1l1,-1l-1,-1l-1,1v2h-1v1l2,2h1v-1h2l1,1l-2,1v2l2,2l1,2l2,1v2h1v6l-2,4l-1,1h-1v1l-1,-1v1l-2,1h-1v2l-1,-1v-1h-2l-1,2v2l1,1l1,2l2,2l1,3v4l-2,1v1l-2,1v-2l-1,-1h-1v-1l-2,-2h-1v-1h-1v6h1v3l1,1h1v1h1v1l1,1v3h1v2h-1l-2,-2v-1l-1,-1v-1l-1,-1v-2l-1,-1v-1h-1v-6l-1,-1v-1l-1,-2v-2l-1,-1l-2,2h-1v-3l-1,-2v-1h-1l-2,-2v-1l-1,-1h-1v2l-1,-1v1h-2v2l-2,1l-1,2v1l-2,2h-1v8l-1,1l1,1h-1l-1,1l-1,-1l-1,-2v-1l-1,-1v-1l-1,-2v-1l-3,-6v-3l-2,1h-1l-1,-2v-1l-2,-1l-1,-1v-1l-1,-1l-2,1h-5l-1,-1h-2v-2h-1l-1,1h-2l-3,-3l-1,-2l-1,1v-1l-1,1v2l1,1h1l1,1v2l1,1l-1,-1l1,-1v2h1v1l1,-1h2v-1l1,-1v-1v2l2,2h1l2,2l-1,1v1h-1v3h-1v1h-1v1h-2v1h-1l-2,2h-1l-2,2v-1l-1,1h-2v1h-2v-2l-1,-1v-3h-1v-1l-1,-1v-1l-1,-1h-1v-1l-1,-1v-3h-2v-2l-1,-1v-1l-2,-2v-1v1l-1,1l-1,-1l-1,-2l1,2l1,1l1,2v1l2,2h-1l2,2v1l1,1h-1l1,2v1l1,1l1,2v1l1,1l2,1v1h1v1h1v1l-1,1h1l1,1h3l1,-1h3v-1h1v2l-1,1v3l-1,1l-3,6l-1,1l-2,1l-1,1l-1,2v1h-1v1h-1v2l-1,1l-1,2l1,1v4l1,1v7l-1,1h-1l-3,3h-1v1l-1,1v2h1l-1,1h1v1l-1,1h1l-1,1h-1l-2,2v3l-3,3v1l-2,1v1l-1,1h-2v1l-1,-1v1l-1,-1l-1,1h-2l-1,1l-1,-1h-1v-5l-1,-1v-2l-1,-1v-1l-1,-1v-5l-1,-1v-1l-1,-2v-1l-1,-1v-3l1,-1v-3h1v-1l1,-1v-1h-1v-5l-1,-1v-2l-3,-3l-1,-2l1,-1v-5l-1,-1v-1l-1,1h-2l-1,-1v-1l-1,-1h-2l-1,1h-2l-1,1h-6l-1,1l-4,-4h-1l-1,-1v-1l-1,-1v-1h-1v-1l-1,-1v-1h-1v-3h-1l1,-1v-1h1l-1,-1l1,-1v-4l-1,-1v-1h1v-2l1,-1v-1h1v-2h1l1,-2h1l2,-2v-3l3,-3l1,-2v-1h1l1,1h2l1,-1h2l1,-1h4l1,-1h1v1h1l1,-1h1v1l1,-1v1h-1v1h1v2h-1v1h1v1h3l2,2h1l2,2l1,-1v-2l1,-1h2l1,1h1l1,1h2l1,1h1v-1h2l1,1v-1h1l1,1v-2l1,-1v-5h-2l-1,1l-1,-1h-2v1l-1,-1h-2v-1l-1,-1v-2l1,-1h1v-1h2l1,-1h1l2,-1l2,1l1,1h2l1,-1v-2h-1l-2,-2h-1l-1,-1l1,-1l-1,-1h2l-1,-1v1h-2l-1,1v1h1l-1,1h-1v-1h-1l1,-1h-2v-1h-1v1l-1,1v1h-1v4l1,1h-2v1h-1v-1h-2l1,1h-2v1l1,1h-1h1l1,1v1l-1,-1v1h-1l1,1h-2v-2l-1,-1v-1h-1v-3h-1v-1h-1l-1,-1h-1l-1,-1v-1l-1,-1v1v-1h-2v1l2,2v1l1,1h1l1,1h1l1,1v1l-1,-1h-1v1h1v1h-1v1h-1v-1h1l-1,-1v-1h-1l-1,-1h-1l-2,-2l-1,-2h-2v1h-4l-1,1v2h-2v1l-1,2h1l-1,1v1h-1l-1,1h-2l-1,1l-2,-2v1h-2l1,-1v-1h-1v-2l1,-1v-3l-1,-1l2,-1l1,1h5v-4l-1,-1v-1h-2v-1h3v-2l1,1l2,-1v-1h1l1,-1l1,-2l1,-1h2v-5h2l-1,1h1v1l-1,1v1h1v1l1,-1h2v1h1l2,-2l1,1h1v-1h1v-3l1,-1l1,1v-1l-1,-1v-1h4l1,-1h-4l-1,1l-2,-2v-4l2,-1v-1l-1,-1l-2,2l-1,2l-1,1v3h1v2h-1v2l-1,2h-1v1h-1v-2l-1,-1l-1,-2l-1,-1l-1,2h-1l-2,-1v-5l2,-1l3,-3l2,-3l3,-3h2l1,-2h3l2,1l-1,1h2l1,1h3l3,1l1,1v1l-1,1h-1l-3,-1h-1l2,1v2l1,1h1v-1h-1l1,-1l2,1v-1l1,-2h1l1,1v-1l-1,-1v-1l-1,-1l2,1h1l-1,1l1,1h1v-1l1,-1l2,-1h1v1l1,-1h1l1,-1l1,1l1,-1h-2l1,-1h2l1,1l4,1v-1h-2v-1h-1l-1,-1v-3h2l1,1v1h1l1,1l1,2h1v3l1,1v-1h1l-1,-1l1,-1h-1l-2,-2v-1l-2,-1l1,-1l-1,-1h1l1,2l-1,-1l1,-1h2l1,1l-1,-1l-1,-2h4l-2,-1v-1h1l1,-1h3l1,-1h1v-2l2,1h-1ZM253,820l1,1v2h-1v1l1,1h1l1,1h3l-1,-1v-2h-1v-2h1v-1l-1,-1h-1l1,1l-1,-1v-1h-2v-2h-1h1v-2l1,1v-3h-2l-1,1h-1v1h-1l-1,2l2,1v1l1,1Z"/>
<path class="tl" d="M146,770h-1v-1h1l1,1ZM137,769h-2l1,-1h1l1,1ZM220,771l-1,1h-1v-1h-1l2,-1v1ZM139,768h-2l1,-1v1ZM146,769h-1v-1h1l1,1ZM144,769h-1l-1,-1h-1h1v-1h1l1,1ZM268,768l-3,1v-2ZM215,769l3,1h-2v3h-1l-2,-1h1l-1,-1l-2,-1v-1l1,-1l1,1h1v-1h1ZM220,768h1l-1,1h-4l-1,-1h3ZM234,767l-1,1h-1v-1h-1h4ZM264,768h-4l-2,-1l-1,-1h1l1,-1l4,2ZM153,767v1h-1l-2,1h-2v-1h1h-1v-1l1,-1h2v-1h1v1h1ZM167,764h3v1h-3l-1,1h-1l-1,1l-2,1h-3v1h-1v1h-2l-2,1h1l-2,1h-4l-1,-1h2v-1h2v-1h-1h1l1,-1h1l-1,-1h4l-1,-1h-3v-1l1,-1h6v-1h3v1l2,-1l1,1ZM190,764l3,1h-6v1h5l-1,1l2,-1h4v1l-2,1h-1l-2,2v2l1,1h-2l1,1l-1,1v1h-1l1,1h-3l1,1v1l-1,-1l-1,1h1l1,1v1h-2l-1,-1v1l-1,1h3l-4,2h-3l-1,1l-4,2h-1l-2,1h-1v1l-2,2v1l-1,1l-1,2h-1l-1,-1h-1l-1,-1v-2l-1,-1v-1l1,-1l-1,-2l1,-1l1,-2h1l1,-1v-1l-1,1h-1v-1l1,-1h1l-1,-1h-1l1,-1v-4l-1,-1h-5v-1l-1,-1h1l-1,-1l1,-1h2l3,-1h1l-2,-1h1l3,-1h1v-1h9l1,1l-1,-1h1l2,-1h3l2,-1Z"/>
<path class="th" d="M151,948v1h-1v-1ZM150,948v1v-1h-1h1h-1h1h-1h1h-1v-1h1h-1h2l-1,1h1ZM152,948h-1v1v-1h-1h1h-1h1h-1h1v-1v1v-1v1v-1v1h1v-1h-1h1ZM151,949h-1ZM152,948h-1Z"/>
<path class="tg" d="M66,970h1l1,-1h4v-1h5v-1h5v-1h6v-1h6l1,-1h7v-1h8v-1h9l1,-1h11v-1h14v-1h20v-1h79v1h20v1h14v1h11l1,1h9v1h8v1h7l1,1h6v1h6v1h5v1h5v1h4l1,1h1M21,927h6v-1h7v-1h8v-1h10v-1h10v-1h12v-1h14v-1h18v-1h23v-1h38v-1h75v1h38v1h23v1h18v1h14v1h12v1h10v1h10v1h8v1h7v1h6M5,877h399M21,826h4v1h7v1h8v1h9v1h10v1h11v1h14v1h16v1h21v1h32v1h103v-1h32v-1h21v-1h16v-1h14v-1h11v-1h10v-1h9v-1h8v-1h7v-1h4M66,783v1h5v1h4v1h5l1,1h5v1h6l1,1h6l1,1h7v1h10v1h10v1h13l1,1h17v1h36v1h21v-1h36v-1h17l1,-1h13v-1h10v-1h10v-1h7l1,-1h6l1,-1h6v-1h5l1,-1h5v-1h4v-1h5v-1M140,755h-1v1h-3v1h-2v1h-2v1h-2v1h-2v1h-2l-1,1h-1l-1,1h-1l-1,1h-1v1h-2v1h-2v1h-2v1h-1l-1,1h-1v1h-2v1h-1l-1,1h-1v1h-2v1h-1v1h-2v1h-1v1h-2v1h-1v1h-1l-1,1h-1v1h-1v1h-2v1h-1v1h-1v1h-1v1h-2v1h-1v1h-1v1h-1v1h-1v1h-1v1h-1l-1,1h-1v1h-1v1h-1v1h-1v1h-1v1h-1v1h-1v1h-1v1h-1v1l-1,1v1h-1v1h-1v1h-1v1h-1v1h-1v1l-1,1v1h-1v1h-1v1h-1v2h-1v1h-1v2h-1v1h-1v2h-1v1h-1v2h-1v2h-1v1h-1v2h-1v2h-1v2h-1v2h-1v2l-1,1v2h-1v2l-1,1v2h-1v3h-1v4h-1v4h-1v5h-1v9h-1v13l1,1v8h1v5h1v4h1v4h1v3h1v3h1v2h1v3h1v2h1v2h1v2h1v2h1v2h1v2h1v1l1,1v1h1v2h1v1h1v2h1v1h1v1h1v2h1v1h1v1l1,1v1h1v1h1v1h1v1l2,2v1h1v1h1v1h1v1h1v1h1v1h1v1h1v1h1v1h1v1h1v1h1v1h1v1h1v1h2v1h1v1h1v1h1v1h1v1h1l1,1h1v1h1v1h1v1h2v1h1v1h1l1,1h1v1h1v1h2v1h1v1h2v1h1l1,1h1v1h2v1h1v1h2v1h2v1h1l1,1h1v1h2v1h2v1h2v1h2v1h2v1h2v1h2v1h2l1,1h2v1h2v1h2M153,755h-1v1h-2v1h-2v1h-1v1h-2v1h-2v1h-1v1h-2v1h-1v1h-2v1h-1v1h-2v1h-1v1h-1v1h-2v1h-1v1h-1l-1,1h-1v1h-1v1h-1v1h-1v1h-1l-1,1h-1v1h-1v1h-1v1h-1v1h-1v1h-1v1h-1v1h-1v1h-1v1h-1v1h-1v1h-1v1h-1v1h-1v1h-1v1h-1v1h-1v1l-2,2v1h-1v1h-1v1h-1v1l-1,1v1h-1v1h-1v2h-1v1h-1v1l-1,1v1h-1v2h-1v1h-1v2h-1v1h-1v2h-1v2h-1v2h-1v2h-1v2h-1v2h-1v2h-1v3h-1v2h-1v3h-1v3h-1v3h-1v3h-1v4l-1,1v4h-1v6l-1,1v30h1v6h1v5h1v4h1v3h1v3l1,1v2l1,1v2h1v3h1v2h1v2h1v2h1v2l1,1v1h1v2h1v2h1v2h1v2h1v1h1v2h1v1h1v2h1v1h1v2h1v1h1v1h1v2h1v1h1v1h1v1l1,1v1h1v1h1v1h1v1h1v1h1v1h1v1l3,3v1h1l3,3h1v1h1v1h1v1h1v1h1v1h1v1h1v1h1l1,1h1v1h1v1h1v1h1l1,1h1v1h1v1h1l1,1h1v1h1v1h2v1h1v1h2v1h1v1h2v1h2v1h1v1h2v1h1l1,1h1v1h2M166,755h-1v1h-1v1h-1l-1,1h-1v1h-1v1h-1v1h-1v1h-1v1h-1l-2,2h-1v1h-1v1h-1v1h-1v1h-1v1h-1v1h-1v1h-1v1h-1v1l-2,2v1h-1v1h-1v1h-1v1h-1v1l-1,1v1h-1v1h-1v1h-1v2h-1v1h-1v1l-1,1v1h-1v1h-1v2h-1v1h-1v2h-1v2h-1v1h-1v2h-1v2h-1v2h-1v1l-1,1v1l-1,1v1l-1,1v2h-1v2h-1v2h-1v3h-1v2h-1v3h-1v3h-1v3h-1v3h-1v4h-1v4h-1v5h-1v6h-1v8h-1v30h1v7l1,1v5h1v5h1v4h1v4h1v3h1v3h1v3h1v3h1v3h1v2h1v2h1v2l1,1v2h1v2h1v2h1v2h1v1h1v2h1v2h1v2h1v1h1v2h1v1h1v2h1v1l1,1v1h1v1h1v2h1v1h1v1h1v1l1,1v1h1v1h1v1h1v1l1,1v1h1v1h1v1h1v1h1v1h1v1h1v1h1v1h1v1h1v1h1v1h1v1h1v1h1v1h1v1h1l2,2h1v1h1v1h1v1h1v1h2v1h1"/>
<path class="tg" d="M179,755h-1v1h-1v2h-1v1h-1v1h-1v1h-1v2h-1v1h-1v1l-1,1v1h-1v1l-1,1v1h-1v1l-1,1v1h-1v2h-1v1l-1,1v1h-1v2h-1v2h-1v2h-1v2h-1v2h-1v2h-1v2h-1v2h-1v2l-1,1v2h-1v2l-1,1v2h-1v3h-1v3h-1v3h-1v3h-1v4h-1v4h-1v4h-1v4h-1v5l-1,1v5h-1v8h-1v11h-1v29l1,1v10l1,1v7h1v6h1v5h1v4l1,1v4h1v3l1,1v3h1v3h1v3h1v3h1v3h1v3h1v2h1v3h1v2h1v2h1v2l1,1v2h1v2h1v1l1,1v1l1,1v1h1v2h1v2h1v1l1,1v1h1v2h1v1h1v2h1v1h1v2h1v1h1v1l1,1v1h1v1h1v1h1v2h1v1h1v1h1M192,755h-1v3h-1v2h-1v3h-1v3h-1v3h-1v3h-1v3h-1v3l-1,1v3h-1v4h-1v4h-1v4l-1,1v4h-1v5h-1v6h-1v6l-1,1v7h-1v8h-1v11l-1,1v18h-1v29l1,1v18h1v11h1v8l1,1v7h1v6h1v6h1v5h1v5h1v4h1v4h1v4h1v4h1v3h1v3l1,1v3h1v2l1,1v2h1v3h1v3h1v2h1M205,755v243M217,755h1v3h1v2h1v3h1v3h1v3h1v3h1v3h1v3l1,1v3h1v4h1v4h1v4l1,1v4h1v5h1v6h1v6l1,1v7h1v8h1v11l1,1v18h1v29l-1,1v18h-1v11h-1v8l-1,1v7h-1v6h-1v6h-1v5h-1v5h-1v4h-1v4h-1v4h-1v4h-1v3h-1v3l-1,1v3h-1v2l-1,1v2h-1v3h-1v3h-1v2h-1M230,755h1v1h1v2h1v1h1v1h1v1h1v2h1v1h1v1l1,1v1h1v1l1,1v1h1v1l1,1v1h1v2h1v1l1,1v1h1v2h1v2h1v2h1v2h1v2h1v2h1v2h1v2h1v2l1,1v2h1v2l1,1v2h1v3h1v3h1v3h1v3h1v4h1v4h1v4h1v4h1v5l1,1v5h1v8h1v11h1v29l-1,1v10l-1,1v7h-1v6h-1v5h-1v4l-1,1v4h-1v3l-1,1v3h-1v3h-1v3h-1v3h-1v3h-1v3h-1v2h-1v3h-1v2h-1v2h-1v2l-1,1v2h-1v2h-1v1l-1,1v1l-1,1v1h-1v2h-1v2h-1v1l-1,1v1h-1v2h-1v1h-1v2h-1v1h-1v2h-1v1h-1v1l-1,1v1h-1v1h-1v1h-1v2h-1v1h-1v1h-1M243,755h1v1h1v1h1l1,1h1v1h1v1h1v1h1v1h1v1h1l2,2h1v1h1v1h1v1h1v1h1v1h1v1h1v1h1v1h1v1l2,2v1h1v1h1v1h1v1h1v1l1,1v1h1v1h1v1h1v2h1v1h1v1l1,1v1h1v1h1v2h1v1h1v2h1v2h1v1h1v2h1v2h1v2h1v1l1,1v1l1,1v1l1,1v2h1v2h1v2h1v3h1v2h1v3h1v3h1v3h1v3h1v4h1v4h1v5h1v6h1v8h1v30h-1v7l-1,1v5h-1v5h-1v4h-1v4h-1v3h-1v3h-1v3h-1v3h-1v3h-1v2h-1v2h-1v2l-1,1v2h-1v2h-1v2h-1v2h-1v1h-1v2h-1v2h-1v2h-1v1h-1v2h-1v1h-1v2h-1v1l-1,1v1h-1v1h-1v2h-1v1h-1v1h-1v1l-1,1v1h-1v1h-1v1h-1v1l-1,1v1h-1v1h-1v1h-1v1h-1v1h-1v1h-1v1h-1v1h-1v1h-1v1h-1v1h-1v1h-1v1h-1v1h-1v1h-1l-2,2h-1v1h-1v1h-1v1h-1v1h-2v1h-1M256,755h1v1h2v1h2v1h1v1h2v1h2v1h1v1h2v1h1v1h2v1h1v1h2v1h1v1h1v1h2v1h1v1h1l1,1h1v1h1v1h1v1h1v1h1l1,1h1v1h1v1h1v1h1v1h1v1h1v1h1v1h1v1h1v1h1v1h1v1h1v1h1v1h1v1h1v1h1v1h1v1l2,2v1h1v1h1v1h1v1l1,1v1h1v1h1v2h1v1h1v1l1,1v1h1v2h1v1h1v2h1v1h1v2h1v2h1v2h1v2h1v2h1v2h1v2h1v3h1v2h1v3h1v3h1v3h1v3h1v4l1,1v4h1v6l1,1v14l1,1h-1v15h-1v6h-1v5h-1v4h-1v3h-1v3l-1,1v2l-1,1v2h-1v3h-1v2h-1v2h-1v2h-1v2l-1,1v1h-1v2h-1v2h-1v2h-1v2h-1v1h-1v2h-1v1h-1v2h-1v1h-1v2h-1v1h-1v1h-1v2h-1v1h-1v1h-1v1l-1,1v1h-1v1h-1v1h-1v1h-1v1h-1v1h-1v1l-3,3v1h-1l-3,3h-1v1h-1v1h-1v1h-1v1h-1v1h-1v1h-1v1h-1l-1,1h-1v1h-1v1h-1v1h-1l-1,1h-1v1h-1v1h-1l-1,1h-1v1h-1v1h-2v1h-1v1h-2v1h-1v1h-2v1h-2v1h-1v1h-2v1h-1l-1,1h-1v1h-2"/>
<path class="tg" d="M269,755h1v1h3v1h2v1h2v1h2v1h2v1h2l1,1h1l1,1h1l1,1h1v1h2v1h2v1h2v1h1l1,1h1v1h2v1h1l1,1h1v1h2v1h1v1h2v1h1v1h2v1h1v1h1l1,1h1v1h1v1h2v1h1v1h1v1h1v1h2v1h1v1h1v1h1v1h1v1h1v1h1l1,1h1v1h1v1h1v1h1v1h1v1h1v1h1v1h1v1h1v1l1,1v1h1v1h1v1h1v1h1v1h1v1l1,1v1h1v1h1v1h1v2h1v1h1v2h1v1h1v2h1v1h1v2h1v2h1v1h1v2h1v2h1v2h1v2h1v2l1,1v2h1v2l1,1v2h1v3h1v4h1v4h1v5h1v9h1v13l-1,1v8h-1v5h-1v4h-1v4h-1v3h-1v3h-1v2h-1v3h-1v2h-1v2h-1v2h-1v2h-1v2h-1v2h-1v1l-1,1v1h-1v2h-1v1h-1v2h-1v1h-1v1h-1v2h-1v1h-1v1l-1,1v1h-1v1h-1v1h-1v1l-2,2v1h-1v1h-1v1h-1v1h-1v1h-1v1h-1v1h-1v1h-1v1h-1v1h-1v1h-1v1h-1v1h-1v1h-2v1h-1v1h-1v1h-1v1h-1v1h-1l-1,1h-1v1h-1v1h-1v1h-2v1h-1v1h-1l-1,1h-1v1h-1v1h-2v1h-1v1h-2v1h-1l-1,1h-1v1h-2v1h-1v1h-2v1h-2v1h-1l-1,1h-1v1h-2v1h-2v1h-2v1h-2v1h-2v1h-2v1h-2v1h-2l-1,1h-2v1h-2v1h-2"/>
<rect x="138" y="936" width="24" height="23" fill-opacity="0" stroke="#ffffff" stroke-opacity="0.5" stroke-width="5.0"/>
<rect x="140" y="938" width="24" height="23" fill-opacity="0" stroke="#113311" stroke-opacity="0.8" stroke-width="5.0"/>
<rect x="139" y="937" width="24" height="23" fill-opacity="0" stroke="#45a249" stroke-opacity="0.9" stroke-width="5.0"/>
<rect x="691" y="691" width="309" height="309" fill="#ffffff" fill-opacity="1.0"/>
<rect x="694" y="694" width="302" height="302" fill="#000000" fill-opacity="1.0"/>
<rect x="700" y="700" width="300" height="300" fill="#70add3" fill-opacity="1.0"/>
<path class="zl" d="M700,728v-7l2,1l1,3l-2,1ZM700,717v-17h2v1l1,3v8l-2,4Z"/>
<path class="zp" d="M700,728v-7M700,717v-17h2"/>
<path class="zl" d="M712,979l-1,2h-2v-3l1,-1h1l2,1ZM702,969h-2v-24h1l13,10l6,1l5,2l7,-2h3l1,2l-1,4l-2,3l-2,1l-3,1h-7l-2,2l-2,1h-2l-4,2h-3Z"/>
<path class="zp" d="M700,969v-24"/>
<path class="zl" d="M749,958l2,1l4,-1h4l3,-1h2l-1,2l-2,2l-2,-1l-5,1l-3,1h-1l-2,3l-3,-3l1,-2h1l1,-1Z"/>
<path class="zh" d="M846,867h1v1h-1v1h-1v-3h-1v-2l1,1v1h2v1Z"/>
<rect class="zh" x="812.5" y="853.5" width="1" height="1"/>
<path class="zh" d="M819,858v1h-1l-1,-1v-1h-1v-2h-1v-1h2v-1h1v-1h1v2l-1,1v1l2,-2h1v-1h-1l1,-1v4l-1,1h1v1h-1ZM812,849h1l1,1h-2v2l-1,-1v-1h1ZM848,851l-5,5v2h-1l-2,2v-1l-1,-1h-1v2h-3l1,-1h-2v4l-2,2v1h-1v-1h-1v1v-1h-1v-1h-1v1h1v2l-1,1h-2l-1,-1h1l-1,-1v-2h-2l1,1v1h-1l-1,-2h-2l-1,-1v-1h-1v-1h3v1v-1h2l1,-1h-1l-1,-1h5l1,1h1l-1,-1h2v-1l1,-1l-1,1h-2l-1,-1l1,1l1,-1h1v-5h1v1h1v2l1,-1v-3h1v1h2v-2h-4v1h-1l-1,1h-2v1v-1h-1v-1h-1v-2h1l2,1h1v-1h1l1,-1l1,1l2,-1l1,1h2l-1,-1h-1l-2,-2h-1v-1h-1l-3,-2v-1h2v-1h-1l-1,-1h-3v-3l1,1l3,1l3,2l1,1h2l4,-1h-2v-1l1,-1v-1h1v1l1,-1h1v1h2l1,1h-2l1,1h1l4,-1l1,-1h1l-2,1l1,1h1l2,-1l-1,-1v-2h2v1l2,1h1h-1l-1,1v1h1l-1,1h-2v1h1l-1,1v2l-1,1h-1v-1l-2,2v1Z"/>
<rect class="zh" x="840.5" y="835.5" width="1" height="1"/>
<path class="zh" d="M836,839h-2l-1,-1h1v-1h1l1,1h1v-1l-1,-1h-1l-1,-1h-1v-1h1v1h1v1h1l1,-1h1v1l1,1h-1v1l-1,1ZM887,850l1,-1h1v1h-1l-2,1h-3v1h-4l1,1h-3l-1,1h-1h3l-1,1l-2,1h-9l-1,-1h-1v-1h-1v-1h-1v2l1,1h2v1l1,1h-1h4v2h1l-1,1h-1h1v3h-1v-2h-1l-1,-1h-2v2h-1l-1,-1v-1h-2v-1h-1l-1,-1v1h-2v-1v1h-1v1l1,-1l1,1v1h2l-1,1h2l-1,1h-1v1h2l-1,1l1,1v1h-1l-1,-1h-2v-2h-2l-1,-1v1h-1v-1v4h2v2h-1h1v2l-2,-2h-1v-1l-1,-1h-1v-1h-1v-1l-1,-1h-1v-2h1v1h1v-1l1,-1l-1,-1v-1h1v-1h1l-1,-1h-1v-1h2l1,1v-1l-1,-1v-1l1,1v-2h3v-2h1v-1l2,-1h1v-1h2v1l1,1v1h-1l1,1l-1,1l1,-1h1v-1l-1,-1v-3h1h-1v-1h-2l-1,-1v-2h1v-1l1,2h1v-3l1,1l-1,-1l-2,-1v-2h1v1h1v-1h1v-1h2v-2h-1v-2l1,1h1l2,2h3v-1h4l2,2v2l-1,1h-2v-2h-1l-1,1h1v3l1,-1h1v2h1v1h1v-1l1,1v2l1,1v-2l1,1v-2h-1v-1h1h-1v-1l-1,1v-2h-1v1h-1v-1h1l1,-2l1,-1h5l1,-1h1v1h1v2l2,2l-1,1h1l-1,1l-4,-2h-1l1,1h-3v1h1l1,1h4l1,1h1v1l-1,1h-2ZM845,835h-1v-1l1,-1v1h4v1h1v-1h1v1h1v1h-1v1h-2v-1l-1,-1ZM845,871l1,-1l1,1h-1v1h-1l1,1h1v-1l1,1h-1v1h-1l-1,-1h-1v-1h1ZM874,860v1h-1h1l-1,1l1,1v1l-1,-1h-1v-1l-1,-1v-1h2Z"/>
<rect class="zh" x="846.5" y="858.5" width="1" height="1"/>
<path class="zh" d="M845,836l1,1v1v-1h1l1,1l-1,1h-2v-1h1h-2l-1,-1h2Z"/>
<rect class="zh" x="827.5" y="834.5" width="1" height="1"/>
<rect class="zh" x="815.5" y="826.5" width="1" height="1"/>
</svg>
