<?xml version="1.0" encoding="UTF-8" standalone="no"?>
<svg xmlns:svg="http://www.w3.org/2000/svg" xmlns="http://www.w3.org/2000/svg" xmlns:xlink="http://www.w3.org/1999/xlink" height="1000" width="1000">
<!-- made with pythonshp (GPL): github.com/sanjayrao77/pythonshp , underlying data may come from naturalearthdata.com -->
<!-- 
COPYRIGHT: THIS SVG FILE IS RELEASED INTO THE PUBLIC DOMAIN
 -->
<!-- 
vars : {
	'cmdline' : 'pythonshp.py publicdomain wiki1 federatedstatesofmicronesia locatormap'
	'title' : 'Federated States of Micronesia locator'
	'version' : '1.0.5'
}
 -->
<defs>
	<radialGradient id="watergradient" cx="500" cy="500" r="500" fx="500" fy="500" gradientUnits="userSpaceOnUse">
		<stop offset="0%" stop-color="#70add3"/>
		<stop offset="11%" stop-color="#6eaad0"/>
		<stop offset="22%" stop-color="#6ca7cc"/>
		<stop offset="31%" stop-color="#6ba5c9"/>
		<stop offset="41%" stop-color="#69a2c6"/>
		<stop offset="51%" stop-color="#679fc2"/>
		<stop offset="59%" stop-color="#669dbf"/>
		<stop offset="67%" stop-color="#649abc"/>
		<stop offset="75%" stop-color="#6297b9"/>
		<stop offset="81%" stop-color="#6095b6"/>
		<stop offset="87%" stop-color="#5f92b2"/>
		<stop offset="92%" stop-color="#5d8faf"/>
		<stop offset="95%" stop-color="#5b8dac"/>
		<stop offset="98%" stop-color="#598aa8"/>
		<stop offset="100%" stop-color="#5685a2"/>
	</radialGradient>
	<radialGradient id="landgradient" cx="500" cy="500" r="500" fx="500" fy="500" gradientUnits="userSpaceOnUse">
		<stop offset="0%" stop-color="#dddddd"/>
		<stop offset="11%" stop-color="#d7d7d7"/>
		<stop offset="22%" stop-color="#d1d1d1"/>
		<stop offset="31%" stop-color="#cccccc"/>
		<stop offset="41%" stop-color="#c6c6c6"/>
		<stop offset="51%" stop-color="#c0c0c0"/>
		<stop offset="59%" stop-color="#bbbbbb"/>
		<stop offset="67%" stop-color="#b5b5b5"/>
		<stop offset="75%" stop-color="#afafaf"/>
		<stop offset="81%" stop-color="#aaaaaa"/>
		<stop offset="87%" stop-color="#a4a4a4"/>
		<stop offset="92%" stop-color="#9e9e9e"/>
		<stop offset="95%" stop-color="#999999"/>
		<stop offset="98%" stop-color="#939393"/>
		<stop offset="100%" stop-color="#888888"/>
	</radialGradient>
	<radialGradient id="bordergradient" cx="500" cy="500" r="500" fx="500" fy="500" gradientUnits="userSpaceOnUse">
		<stop offset="0%" stop-color="#444444"/>
		<stop offset="11%" stop-color="#3f3f3f"/>
		<stop offset="22%" stop-color="#3a3a3a"/>
		<stop offset="31%" stop-color="#363636"/>
		<stop offset="41%" stop-color="#323232"/>
		<stop offset="51%" stop-color="#2d2d2d"/>
		<stop offset="59%" stop-color="#292929"/>
		<stop offset="67%" stop-color="#242424"/>
		<stop offset="75%" stop-color="#1f1f1f"/>
		<stop offset="81%" stop-color="#1b1b1b"/>
		<stop offset="87%" stop-color="#161616"/>
		<stop offset="92%" stop-color="#121212"/>
		<stop offset="95%" stop-color="#0e0e0e"/>
		<stop offset="98%" stop-color="#090909"/>
		<stop offset="100%" stop-color="#000000"/>
	</radialGradient>
</defs>
<style type="text/css">
<![CDATA[
.c2 {stroke:#45a211;fill-opacity:0;stroke-width:2}
.fs {font:14px sans;stroke:#ffffff;stroke-width:2px;stroke-opacity:0.8;text-anchor:middle}
.ft {font:14px sans;fill:#000000;fill-opacity:1;stroke-opacity:0;text-anchor:middle}
.sb {stroke:url(#bordergradient);fill-opacity:0}
.sg {stroke:#000000;fill-opacity:0.0;stroke-opacity:0.2}
.sh {fill:#45a211;stroke:#000000}
.sl {fill:url(#landgradient);stroke:url(#bordergradient)}
.sp {stroke:url(#landgradient);fill-opacity:0}
.sr {stroke:url(#watergradient);fill-opacity:0}
.sw {fill:url(#watergradient);stroke:url(#watergradient);stroke-opacity:0.8}
.tb {fill:#eeeeee;stroke:black;stroke-width:2}
.tg {stroke:black;stroke-opacity:0.2;fill-opacity:0}
.th {fill:#45a211;stroke:#378100}
.tl {fill:#aaaaaa;stroke:black}
.w2 {stroke:#ffffff;fill-opacity:0;stroke-opacity:0.6;stroke-width:2}
]]>
</style>
<circle cx="500.0" cy="500.0" r="500.0" fill="url(#watergradient)"/>
<path class="sl" d="M917,223h-1v-1l-2,-2v-1h-1v-1h-1h1h-1v-1l-2,-2v-1l-2,-2v-1h-1l-1,-1v-1h-1v-1l-3,-3v-1l-2,-2v-1h-1v-1l-4,-4v-1v1h1v1v-1l-3,-3h1h-1v-1v1v-1v1l1,1v1v-1l-1,-1v1v-1l-1,-1l1,1l-5,-5l-1,-2l-2,-1v-1l-2,-2v-1l-2,-1l-1,-1v-1l-5,-5l-1,-2h-1v-1l-8,-8v-1h-1l-2,-2v-1l-7,-7v-1h-1l-4,-4v-1h-1l-4,-4h1h-1v-1h-1h1h-1l-1,-1h1h-1l-3,-3h-1l-2,-2l-1,-2l-1,-1h-1l-2,-2h-1v-1l1,1h2v1h1l1,1h-1l2,1v1h1v1v-1h-1v-1h-1v-1h-1v-1v1h1v1h1l2,2h-1h1h-1h1v1h1h-1h1h-1v-1l-2,-2h-1v-1h-1v-1h-1v-1h-1h1h-1v-1h-1v-1h-1l-2,-2h-1v-1h-1h1h-1v-1h-1v-1h-2l-1,-1v-1v1h1v1h1l-1,-1h-1l-1,-1l1,1v-1h-1l-2,-2h-1h1v1h1l1,1h-1l-1,-1v-1l-2,-1h-1l-1,-1v-1h-1l-1,-1l2,2h1h-1l-1,-1l1,1h-1v-1h-2v-1v1v-1l-1,-1v1h1v1l-2,-2h-1v-1h-1l-1,-1h-1v-1h-1v-1h-1l-2,-2h-1v-1l1,1h1v1h1l-1,-1h-1v-1h-1l-2,-2h-1h1v1h1l1,2h1v1l2,1l1,1l-2,-1l-5,-5h-1l-2,-1l-1,-1h-1v-1h-1l-1,-1h1v1h2l1,1l-1,-1h-1l-1,-1h-1v-1h-1l1,1h1v1h1v1l-1,-1h-1l-2,-2h-1l-1,-1v-1h-1l1,1l-1,-1h-1v-1h-1l-2,-2l-2,-1v-1h-1l-2,-2v1h1l2,2v-1h-2v-1h-1l-1,-1h1v1h1v1h1l1,1h1v1h1v1l-1,-1h-1v-1h-1l-2,-2h-1v-1h-1l-1,-1h-1v-1h-1l1,1v1h2v1l-1,-1h-1l-2,-2h-1v-1h-1l-1,-1h-1l-1,-1h-1l-1,-1h-1l-1,-1h-1l-2,-1l-1,-1h2h-2l-1,-1h-1l-1,-1h-1l-2,-2v1h1h-2l-2,-2h-1l-2,-1l-1,-1h-1v-1v1h1l2,2h1l1,1h1l2,1v1v-1h-2l-1,-1l-2,-1l-1,-1h-1l1,1h1h-2l-1,-1l1,1h2v1h1l1,1h1v1h-1v-1h-2l-1,-1h-1l-1,-1h-2v-1h-2l-1,-1h-2v-1h-1l-1,-1h-1h1l1,1h1h-1v-1h-1h1h-1l-1,-1v1h1v1h-1l-2,-1h-1l-1,-1l1,1h-7v-1h-2v-1h-1v-1v2h-1l-1,-1h-2v-1v1v-1h-2v-1h-1h1h-1v1h-2v-1h-1v1v-1l1,1v1h2v1h1v-1v1h1v1h1v1h1h-2v1h1h-1v1v-1v1h1h-1v1v-1v1l1,1h-1h1h-3v-2h-3v-1h-1v-1l-1,-1h-1v-1h-1v-2h2l-2,-1h-1v-1h-1h1v1h-2l1,1h-1v1h1v1h1v1h1v1h-1h2v2h1v1l-1,-1v1h1v2h3l1,1h1v2l2,2h-1l-1,1h1v2l-1,1h1v1h1v1h-1h1h-1l1,1h-1v1h-1h1l-1,1v1h2v1l-1,-1v1l-1,1v1h1h-1v-1h-1v1h-1v1h-1v1h-1v-1h-1h1h-1v3h-1v-1h-1l1,1h-1v1h-1v-1h-1v-1h1v-4h3l1,1v-1h1h-1v-1h-1v-2l1,-1v-1h1l-2,-2v-2h1v1h1v-1h-2v-1h-1l-1,-1v-1h-1v-1h-1v-2h-1v-1h-1v2h-2l-1,-1h-1v-1h1h-1v1h-1h1l2,2h-1l-2,-1h-1l-1,-1v1l-1,-1h-2l-1,1v1h-2l1,-1l-1,-1h-1v-1v1l-1,-1h-1v-1h-1v-1h-1l-2,-2h-2l-1,-1v-1h-1v-1v1l1,1v1h1v1h-1l-1,1h-1l-1,-1l-4,-2h-2v-1h-1v-1h2l1,1v-1l1,1h1v-1h-2v-1l-1,1h-3l-1,-1h1h-1l-1,-1v1v-1h-1l1,1h-1l-1,-1h-1v-1h-2v-1v1l1,-1h-1v-1h-1v-1h-1v-1h1v-1h-1l-1,-1v-1h1h-2l1,-1h1v1h3v-2h-1h3v-1l-1,-1h-1l-1,-1l-2,-1h-1h1v-1h-2v-1h-1v1h-1v2l-1,-1h-1h1h-5v1l-2,-1h-4v-1h-1l-1,-1h-1h1v-1h1h-5l-2,-1h-1h1v-1h1v-1h1v-1h1v-1h3v1h1v1h6l-1,-1h-1l-1,-1h-2v-1h-1h1l1,1h3l1,1h1v-1h-2l-1,-1v1h-1l-1,-1h-1v-1h-7l-1,-1l-2,-1l-5,-1h-2l-1,-1h-1l-2,-2h4v-1l-2,-2h-1v-1l-1,-1h1v1v-1h1v-1h1l1,1l-1,-1h1h-2v-1h2v-1l-1,-1h1l2,1h1v1h1v-1h-1h2l1,1h1v-1h3v1h3v1h1v-1h4l1,1v-1h1v1h12l1,1h6l1,1h3l1,1l1,-1v1h1h-1v-1h-2l-1,-1h-1v-1h-1h2v1h1v-1h-2v-1h-1v-1h-1v-1v1h1l2,1h1h-1l1,1h1v1h1l1,1h2v1v-1h-1h1h-2v-1h-1l-1,-1h-1h2l1,1l-1,-1h-2v-1h-1v-1h-1h1v1h1h-1l-1,-1h-1v-1h-2l-1,-1h-1h1l1,1h2l1,1h3l2,1h1h-2l-1,-1h-1l-1,-1h-1h1l1,1h2l1,1h1h-1v-1h-1h1l2,1h3l1,1l-1,-1h1v1h2l1,1h1l1,1h2v1h3l1,1h1l1,1h1l1,1h1l1,1h2l1,1h2l1,1h1l1,1h1l1,1h1l1,1h1l1,1h1l1,1h1l1,1h1l1,1h2l1,1h1l1,1h1l1,1h1l1,1h1l2,2h1l1,1h1l1,1h1l1,1h1l1,1h1l2,2h1l1,1h1l1,1h2l2,2h1l1,1h1l2,2h1l1,1h1l2,2h1l1,1h1l2,2h1l1,1h1l2,2h1l2,2h1l1,1h1l1,1v1h1l2,2h1l2,2h1l2,2h1l2,2h1l2,2h1l2,2h1l2,2h1l1,1v1l1,1h1l2,2h1l3,3h1l2,2h1l1,1v1l1,1h1l3,3h1l3,3h1v1l2,2h1l3,3h1l1,1v1l1,1h1l7,7h1l27,27v1l1,1h1l2,2v1l7,7v1l6,6v1l3,3v1l1,1h1l1,1v1l3,3v1l2,2v1l2,2h1v1l2,2v1l3,3v1l2,2v1l2,2v1l4,4v1l2,2v1l2,2v1l2,2v1l1,1Z"/>
<path class="sp" d="M689,37h1l1,1h1l1,1h1l1,1h1l1,1h2l1,1h2l1,1h1l1,1h1l1,1h1l1,1h1l1,1h1l1,1h1l1,1h1l1,1h2l1,1h1l1,1h1l1,1h1l1,1h1l2,2h1l1,1h1l1,1h1l1,1h1l1,1h1l2,2h1l1,1h1l1,1h2l2,2h1l1,1h1l2,2h1l1,1h1l2,2h1l1,1h1l2,2h1l1,1h1l2,2h1l2,2h1l1,1h1l1,1v1h1l2,2h1l2,2h1l2,2h1l2,2h1l2,2h1l2,2h1l2,2h1l1,1v1l1,1h1l2,2h1l3,3h1l2,2h1l1,1v1l1,1h1l3,3h1l3,3h1v1l2,2h1l3,3h1l1,1v1l1,1h1l7,7h1l27,27v1l1,1h1l2,2v1l7,7v1l6,6v1l3,3v1l1,1h1l1,1v1l3,3v1l2,2v1l2,2h1v1l2,2v1l3,3v1l2,2v1l2,2v1l4,4v1l2,2v1l2,2v1l2,2v1l1,1"/>
<path class="sl" d="M105,194h-1v1h-1v2h-1v1h-1v2h-1l-1,2l-1,1v1l-1,1h-1v2h-1v1h-1v1l-1,1v1h-1v1h-1v1l-1,1v1h-1v1l-1,1v1l-2,2l-1,2l-2,2v1h-1v1l-1,1v1l-1,2l-1,1l-2,3l-1,2h-1v1l-1,1v1l-1,1v1l-1,2l-1,1l-2,4l-3,3v2l-2,2v1l-1,2l-1,1v1l-1,1v1l-1,1v2l-1,1l-2,4v1h-1v2l-1,1v1h-1v2h-1v1h-1v2h-1v2l-1,1v1l-1,1l-1,2v1h-1h1v-3h1v-2l1,-1v-1l2,-2v-2l1,-1v-1l1,-1v-1l2,-2v-1l1,-1v-1l1,-1v-1l1,-1v-1l1,-1v-1l2,-2v-2l2,-2v-1l1,-1v-1l1,-1v-1l2,-2v-1l1,-1v-1l2,-2v-2l3,-3v-1l1,-1v-1l2,-2v-1l2,-2v-1l1,-1v-1l2,-2v-1l2,-2v-1l2,-2v-1l3,-3v-1l3,-3v-1l1,-1v-1l2,-2v-1l2,-2v-1l3,-3v-1l3,-3v-1l1,-1ZM38,308v1l-1,1v2l-1,1v1v-1l1,-1v-1l1,-1v-2l1,-1Z"/>
<path class="sp" d="M49,285v-2l1,-1v-1l2,-2v-2l1,-1v-1l1,-1v-1l2,-2v-1l1,-1v-1l1,-1v-1l1,-1v-1l1,-1v-1l2,-2v-2l2,-2v-1l1,-1v-1l1,-1v-1l2,-2v-1l1,-1v-1l2,-2v-2l3,-3v-1l1,-1v-1l2,-2v-1l2,-2v-1l1,-1v-1l2,-2v-1l2,-2v-1l2,-2v-1l3,-3v-1l3,-3v-1l1,-1v-1l2,-2v-1l2,-2v-1l3,-3v-1l3,-3v-1l1,-1M36,315v-2l1,-1v-1l1,-1v-2l1,-1"/>
<path class="sl" d="M322,33h-2v1h-2l-1,1l1,-1h2l1,-1ZM316,35h1l1,-1h1h-1v1v-1h2l1,-1v1h-3v1h-2v1v-1h3v-1h2l1,-1l3,-1h1l2,-1l-2,2h-2l-1,1h1h-2l-1,1h-1l-1,1h-1v1h-1l2,-1h2l1,-1h1l1,-1l2,-1h1h-1h1l1,-1h2v-1h3l1,-1l2,-1h2l1,-1h-1h4l1,-1h1l2,-1h1l6,-2h2v-1v1h1h-1v1h-2l-1,1h-3l-2,1h-1l-1,1h-2l-1,1h-1l-5,2h-1l-1,1l-3,1l-2,1h-1l-2,1h-1l-1,1h-1l-1,1h-1l-1,1h-1l-1,1h-2l-1,1h-1l-6,2h-1l-1,1h-2v1v-1h1l1,-1h-1v1h-2v1h-1h1v1l1,-1h1l3,-1h1l1,-1h1l2,-1l3,-1h1l1,-1h1l1,-1h1l2,-1h1l1,-1h2l-1,1h-1l-1,1h-1l-3,2h-2v1h1v-1h1l1,-1h2l1,-1h1l1,-1l2,-1h1v-1h-2l2,-1h1l1,-1h1l3,-1h1l1,-1h2l3,-2h2v-1h1l3,-1h3l1,-1h2l1,-1h2v-1v1h-2l-1,1h-2l-1,1h-2l-1,1h-2v1h-1v1v-1h1l-1,1h-1h2l2,-2h1l1,-1h2l-1,1l1,-1h2v-1h3l-1,1h-1v1h-1h1v1h-2l-2,1h-2v1h-2l-1,1h1l1,-1h1h-1l-1,1h-2l-1,1h-1h2l1,-1h2v-1h2l1,-1h1l2,-1h1l2,-2h1v-1h2v-1h3v-1h3v-1h8l-1,1h-3v1v-1h5v-1h1l2,-1h2v-1h3l1,-1h5l1,-1h7l1,-1h4v1h-1h1h-1h3l1,-1h2v1h-1h1l1,-1h4l1,-1h2l1,-1h6l1,-1v1h1h-1l-1,1h-1h2l-1,1h-1h6v1h1h-1v1h-1h1v-1h1v1h-1l-1,1h-1v-1h-1v1h1h-1h1l-1,1h-3l-2,1h-4l-1,1h-3l-1,1h-5l-1,1h-4l-5,2h1l1,-1h7l1,-1h6v-1l-1,1h-2v-1h4v1h3v-1h1l-1,1h-1l-1,1h1h-1l-1,1h-2v1h1h-1v-1h2l1,-1h1v-1h11l1,1h-3l1,1h6v1h1v-1h1v1h1v-1h2v-1h2v-1h2l1,1h1l1,1l1,-1h2v1h1h-1h2v1h-1v1h-1v1h-3v-1h-1v1h1v1h2v1l-1,-1l-1,1v1h1v1h2v1h1v-1h2v-1h1l1,-1h1l1,-1v1h1l1,1h3l1,-1h3l2,1h1v1h1v-1h1h-1l1,-1h2l1,1h2v-1h-1l1,-1h-1h2v-1h-1l-1,1v-1h4l1,-1v-1l1,1h10l1,1h2h-6v1h1l1,-1h5l-1,1h-1l-1,-1v1l-1,1v-1h-1v1h3l1,-1h1l1,-1h5l1,1h1l1,1h-1l1,1h1l-1,1v-1h4v1h1h-1l3,1h3l2,-1h12l2,1h1l1,1h1v1h-1l1,1h-1h2l2,1h1v2h2l-1,1v1v-1h1v-2h-1h1l1,-1h2l1,-1h3l1,1h8l1,-1h1v1h1l1,1h3l1,1h4v-1l-1,-1h-1l-2,-1h1v-1h-1h8l1,1v-1h7l1,1h6l1,1h3l3,1h2l1,1h3v1h1l-1,-1h1l2,1h1v1v-1l1,1l7,1l1,1h2l3,3h2v1h2l1,1v-1h-1v-1h-1l-1,-1h-2l-1,-1h4v1h2l-1,-1h1l1,1h3l1,1h2l2,1h3l1,1h-2v1h1v1l-1,-1h-1l1,1h1h-3v1h-1h2v1h1h-1v1h-1h1v1h3v1h-1v-1h-1l1,1h-2v-1v1h-2l-1,-1h-2l-1,-1h-4v-1h-1l-1,-1h-1l-2,-1h-2v1h-4v-1h-1l-1,-1h-1h1l-1,-1h1h-1v-1v1h-2v-1v1h-1v1h1l1,1h1l1,1v2h-1v1h-1l-1,1l-1,-1h-3l-2,-1h-1h1v1h-2l-2,-1v1h-2l-2,1l2,-1h4v1l1,-1l1,1v-1h2v1h1l1,1h2l1,1h1l1,1h1v1h-1h1l1,1v-1h-1l1,1h3v2h2v2h-1l-4,-1h-3v-1v1l-1,-1v1h1h-1v1h-1l-2,1h-1v1h-2v1h-3l-1,1v1h-2l1,1h-1l-1,1h-1l-2,2h-1v3h-1l-1,-1h-1v-1l-1,-1h-9l-1,1h-1l-1,2h-2v-3h-1v1l-2,1h-1v1h-1v1v-1h-1l-1,-1v1h-4v4h-1v1l-3,3v1l1,1h1l1,1v-1h3v1h1l-2,2l1,1v2h2l1,1v2h-2l-1,-1h1v-1h1h-2l-1,1h1h-1v1h-1l-1,2v2l2,2v1h1l-1,1h-1v1h-2l-1,-1h-2l-2,2h-1v4h1h-1v1h1v1h-4l-2,2v-1h-1v5l-1,2l-2,1h-1v1l-4,2v1v-1l-2,-2v-3l-1,-2v-1l-1,-1v-1h-1v-1l-1,-4l-1,-1l-1,-3l-1,-2v-6l1,-4l2,-1l2,-2v-2h-1h3l1,-1h3v-1l1,-1h2v-1h1v-1h1v-2l2,-1l1,-1h1l3,-3h1v-1l1,-1h2v-1h3l-1,-1h1v-1h1v-1h-1v-4h4v-1h-8v4h1v1h-1v-1h-2l-1,1l-4,2v1h-2v1h-1v-2h-1l-1,1v-2l1,-1v-2h-1l-1,1h-2v-1h-1l-1,1h-7l-1,1h-1v1l-1,1h-1v1l-2,2h-2l-2,2v1h-1v2h1l1,-1l2,1v1h1h-4l-2,1v-1h-4l-1,1h-3l-2,1l-2,-1v-1h4v-1l-1,1v-1l-2,-1h-2l-1,1l-1,-1v1v-1h-2l-2,-1h-2l-1,1h1v1h-1l-1,-1v1h1v1h-2l-1,-1h-3l-1,1l-2,-1h-2l-1,1h-2v-1h-12l-2,1h-2l-1,1l-6,3h-1v1l-2,2h-2l-1,1h-1l-1,1h-1l-2,1l-1,1l-3,1v1h-1l-2,2h-1l-1,1h-1l-1,1h-1l-6,3h-1l-2,1v1h1l1,1h5v1l-1,2l-1,1h3v-2h2v1h-1h1l1,1h-1l-1,1h-1v1h2l1,-1h2l1,-1h1l-2,2h1l1,-1v-1l1,-1v-1h6l2,2l1,2h2l1,1v1l-1,1l-1,-1h-1v1l1,1h1v1l-1,1v1h1l1,1h-1v1h-1l-4,4v1l-1,1l-1,2v3h1h-1v1h-1l1,1v1l-1,1h-1v2l-1,1l-1,2v1h-1l-2,2h-1l-1,1l-2,1l-1,2l-3,2v1l-8,8l-5,3l-2,2l-2,1v1h-2l-6,6l-2,1l-1,1l-4,1l-1,1l-2,1h-3l-1,1v-1h-1l-1,-1h-3l1,-2v-1v1l-2,1h-1v-1h1h-2l-1,2l-1,1h-2v1h-3l1,1l-1,1h-2l-1,1h-1l-2,2h-1l-1,1v3l-1,1v1l-1,1l-2,1h-1l-2,2h-2l-1,1v1h-4l-1,1l-2,1v1h-1v2h-1v1h1v1h1l1,1v1h1v1h1v3l2,4l1,3v4h-1v3l-1,1v1h1l-2,4l-2,2h-1v1h-2l-1,-1h-1v2h-3v-1h-2v1h-1l1,1h-1l-1,-1l-1,1l1,1h-1v1h-1v-1l1,-1h-1l-2,2h-2l-1,1v-1l-1,-1v-1h2v-1h-1v-2l2,-2v-1h1h-1v-1h1l1,-1v-6h-1v-2h2v-1h1v1h1v1v-1h1l-1,-1v-1l1,-1h-1v-3h1h-1l-1,-1h-1v1h-1v-1l-1,-1h-1v1h-1l-1,1v-1h-2l1,-1h1l-1,-1l-1,1v-1h-2l2,-1l3,-3h1l-1,-1l3,-3v-2h-2l-1,-1h-1v1v-2h-1v-1h-1l-1,1h-5v1h-2l-1,1l-4,1l-2,2h-1l-1,1v-1l-2,2h-2v-1h1l3,-1v-1l1,-1h-3v-1l1,-1h1v-1h1l2,-1v-1h1l3,-3v-1l-2,-1l1,-1h-1v1h-1l-2,-1l-1,1h-1v1h-2l-2,3l-5,1l-1,1l-2,1l-2,2l-1,2h-4l-1,1l-1,-1v-1l-1,1h-1l-3,3v2l2,2h4l1,1v1l-1,1h1h-1v1l-1,1v2h5v-1l4,-2h-1h1l3,-1h1l2,2h2l1,1v-1h1v1h3l-1,1v1h-1v1l-1,1h-1v-1h-1l-4,2h-3v1l-1,-1v2l-1,-1v1h-1v2h-2v-1h-1l-1,1l1,1l-2,1v1h-2v1h-1l-5,5v1h2v1l1,1h1l1,1h1v12l-1,1h1l2,1v3h1l1,1v2h-1l-2,-1h-3v-2h-2l-2,1h1l1,-1l1,1v1h1l1,1l1,2l2,1v3h-2l-2,2l-2,1h-1v1h-3l-2,1h1l1,-1v2h2l2,-1h2l1,2h1v1h1l-1,1l-2,1l-1,1h1l1,-1h1v1l-1,3h-1v-1h-2v1l1,1h-1v2h-1v3h-1l-1,1l-1,-1h-1v1l-1,1h-1v1l-2,2v1l-1,1v1h-1l-3,3v1l-1,1h-1v-1h-2v1h1v3h-1l-2,2h-1v-1h-1l1,1h2v1l-1,1v3h-1v-1h-2v2h-2v2h-1l-1,1h-1v2h-5v1h-1v1h1v1l-2,2h-1l-1,1h-1v2h-1v-1l-1,1h-1l-1,-1v2l-1,1h-1v1h-1l-1,2h-2l-1,1h-4v1h-1v-1h-1l-1,1h-2v-1l-1,1v1h-1l-1,-1v1h-3v-2h-1v-3h1h-1l-2,2l1,1v4h-1v1h-2l-1,-1v1l-1,2l-1,-1l-2,2v-1h-1h1v-1h-1v2h-1l-1,-1h-1v1h-1v1h-3v1h-2l-1,1h-2l-1,1v-1l-1,1v1h-1l-1,1v1h1v1l1,2h-1v1h-1l-1,1l-1,-1h-1l1,-1v1v-1l-1,-1l1,-1v-1h-1v-1l1,-1v-1l2,-2h-1v-1l-1,-1v1h-1l-1,1h-1v-2h-2v-2h-1v2h-1v-1l-1,1v1l-1,-1v1h-2l-1,1h-1l-1,1v1l-2,1h-3v2l-1,2v1l-1,1h-1l-2,2h-1l-2,3v3l-2,2v3l1,1v2h1v1l1,1v3h-1h1l1,3v1l1,2v1l2,2v1l1,1v1h2v2h1v3l1,2l1,1v5l1,1v7l-1,3v7h-1v3h-1v4l-1,1h1v1h-1v1h-1v2h-1l-1,1h-1l-2,2h-1l-1,2h-1l-2,1l-2,2v-1h-1v-2h-1v3l-1,-1v-1l-1,1h1v1h-2v1h1l1,1h-1v1l-1,1l-1,-1l-1,-2l1,3l1,1v1h-1v1h-1l-2,-4h-1l2,2v3l-4,2l-1,1l-1,2l-1,1l-2,1v-1l1,-1h-1v-4l2,-5v-1h1v-1l-1,-1h-1l-1,-1v-1h-1v-2h-2v-1h-1v1l-1,1v-1h-1l1,-1v-1l1,-1v-1l-1,-1v1h-1v1h-1v-8l-1,1v-3l-1,-1h-1v-1l-1,-1v-1h-1v-1h-1v-1l-2,1l-2,-1l-1,1v-2l1,-2v-3h1l-1,-1h-1v-1l-1,1h-2l-1,1v3l-1,2v5l-2,2v2h-1v2l-1,2l-1,1v2l-1,3l-1,1v2l-1,2v6h3v7h1v2l1,8v1h-1v-5l-1,1v2l1,2l1,1v-1l1,1v1l1,1h3l1,1v3l2,2v1l-1,1v1l-1,1h-1v-1h-1l-2,2v-1h-1v-1l1,-1v-2h-1v-2h-2l-1,-1v-1h-1v2l-1,-3l-1,-1v-3h-1l1,-1h-1v-1l-1,-1v-2h-1v-2l-1,-1v-2h-1v1h-1v-5l1,-2v-3l1,-1v-1l1,-2l1,-3l-1,1v-5l1,-1v-1l1,-1v-1l1,-1v-4h1v-1l-1,1v-4l1,-1h-1l1,-1v-14l-1,3v-3l1,-1l-1,-2v-3h1v-1l-1,1v-1l1,-3v-2l1,-4l-1,-1l1,-1v-3l1,-1h-2v-4l1,-1h-1v-1l-1,-1l1,1h-1v2l-1,1v2l-1,1h-2v-1v2h-2v1l-2,2l-1,2h-1v-2l-1,1v1v-1l-1,1v-2l-1,1v-2l1,-1v-1h-1v1l-2,2v-1l1,-4h1v-1l1,-1v-3h1v-1l1,-2v-2l1,-4v-8l-1,2l-1,-1v-3h1v2l2,-2h-1v-4l-1,-1v-1l-1,1v-2l1,-1h-1v1l-1,1v-1h1v-3l-1,1v1v-5l-1,-2l1,-3l1,-1v-5h1v-1l-1,1l1,-1v-4l-2,2h-1v-4l1,-2v-1h-1v3h-1v2h-1v4l-3,3v1h-1v-1l2,-2h-1v1h-1v-1l2,-2h-1v1l-1,1v1l-2,2v-1l1,-3v1l-1,1v2l-1,1h-1v-2l1,-1v-1l-1,2v2h-1v-1v1l-1,1v-2l1,-2v-1l-1,2v2h-1v-1l-1,1v-1l1,-2l1,-1v-1h-1v-1v1l1,1l-4,4h-2v1l-2,2v2l-1,2v1h-1v1l-2,2v1l-1,1v-1v1l-1,1h-1l-2,1l1,-1v-1l-2,1v2l1,-1l-4,4v1l-1,1l-1,2l-2,2v1l-2,2h-1l-1,2l-1,1l-1,2l-2,1l-1,1v3l-1,1v1h-1l-1,2l-1,-1h-1v1l-1,3h-1v1v-1h-1l-1,1l-1,4l-2,4v4h-1v5l-1,2v-1v2l-1,6l-1,2l-1,1v1l-1,2v2l-1,1v4l-1,3v4h-2v2l-2,3v4h1v1l-1,-1l-2,1v1l-1,1v3l-1,1l-1,2l-1,1v-4l-1,-3v-6l1,-2v-1v-8l1,-3v-13l1,-2v-2l1,-5v-5h1v-8l1,-2v-5l1,-1v-4l3,-9v-3l1,-1v-2l1,-1v-2l1,-1v-2l1,-1l-1,1v-1l1,-1v-3l1,-1v-1l3,-6v-2l1,-1v-2l1,-1v-2h1v-1h1h-1v-2h1h-1l1,-2h1v-1h-1v1l-1,1v1h-1v3l-2,3l-3,3v-4l1,-3v-2l1,-2v-2l1,-1v1v-1h1v-1h1l1,-2v-1h1v-1l-1,1h-1v1v-5l1,-2l1,-1v-1v1h-1v1v-1l1,-1l-1,1l1,-1h-1l1,-1l-1,1v-1l1,-1v-2l1,-1l1,-3v-1l1,-2v-1l1,-1v-1v1v-1l-1,1h-1v1v-1h-1v1v-1h-1h1v-1l1,-2l1,-1v-1l1,-1v-2h1v-2h1v-1h1v-2h1v-1l1,-1v-2h1v-1l2,-4l1,-1v-2l1,-1v-1l1,-1v-1l1,-1l1,-2v-1l2,-2v-2l3,-3l2,-4l1,-1l1,-2v-1l1,-1v-1l1,-1v-1h1l1,-2l2,-3l1,-1l1,-2v-1l1,-1v-1h1v-1l2,-2l1,-2l2,-2v-1l1,-1v-1h1v-1l1,-1v-1h1v-1h1v-1l1,-1v-1h1v-1h1v-2h1l1,-1v-1l1,-1l1,-2h1v-2h1v-1h1v-2h1v-1h1h-1l1,-1h1v-1l2,-2v-1l1,-1h1v-1l2,-2v-1h1l1,-1v-1l2,-2v-1h1l1,-1v-1l6,-6v-1l7,-7v-1l1,-1h1l1,-1v-1l1,-1h1v-1l2,-2h1v-1l21,-21h1l1,-1v-1l1,-1h1l4,-4h1v-1l2,-2h1l1,-1v-1h1l2,-2h1v-1l1,-1h1l4,-4h1l4,-4h1l5,-5h1l2,-2h1l1,-1v-1h1l1,-1h1l4,-4h1l1,-1h1l3,-3h1l3,-3h1l2,-2h1l1,-1h1l3,-3h1l1,-1h1l3,-3h1l1,-1h1l1,-1h1l1,-1v-1h1l1,-1h1l1,-1h1l1,-1h1l2,-2h1l2,-2h1l1,-1h1l1,-1h1l2,-2h1l1,-1h1l1,-1h1l1,-1h1l1,-1h1l1,-1h1l2,-2h1l1,-1h1l1,-1h2l1,-1h1l1,-1h1l2,-2h1l1,-1h1l1,-1h2l1,-1h1l1,-1h1l1,-1h2l1,-1h1l1,-1h1l1,-1h1l1,-1h1l1,-1h1l1,-1h2l1,-1h1l1,-1h2l1,-1h2Z"/>
<path class="sp" d="M317,35l1,-1h2l1,-1h1M104,194l1,-1h1v-1l2,-2v-1l1,-1h1v-1l2,-2v-1h1l1,-1v-1l2,-2v-1h1l1,-1v-1l6,-6v-1l7,-7v-1l1,-1h1l1,-1v-1l1,-1h1v-1l2,-2h1v-1l21,-21h1l1,-1v-1l1,-1h1l4,-4h1v-1l2,-2h1l1,-1v-1h1l2,-2h1v-1l1,-1h1l4,-4h1l4,-4h1l5,-5h1l2,-2h1l1,-1v-1h1l1,-1h1l4,-4h1l1,-1h1l3,-3h1l3,-3h1l2,-2h1l1,-1h1l3,-3h1l1,-1h1l3,-3h1l1,-1h1l1,-1h1l1,-1v-1h1l1,-1h1l1,-1h1l1,-1h1l2,-2h1l2,-2h1l1,-1h1l1,-1h1l2,-2h1l1,-1h1l1,-1h1l1,-1h1l1,-1h1l1,-1h1l2,-2h1l1,-1h1l1,-1h2l1,-1h1l1,-1h1l2,-2h1l1,-1h1l1,-1h2l1,-1h1l1,-1h1l1,-1h2l1,-1h1l1,-1h1l1,-1h1l1,-1h1l1,-1h1l1,-1h2l1,-1h1l1,-1h2l1,-1h2l1,-1"/>
<path class="sl" d="M143,426v3l-1,-2v-1l1,-1ZM157,441v-1ZM162,427v-1ZM177,338v-1ZM182,335l-1,1ZM181,338v-1h1ZM178,339l-1,-1h1ZM635,649v3h1v-1l1,-1v1l1,1v3l-1,1h-3v-1l-1,-1l1,-1l-1,-3v-2h1v1ZM639,660h1l2,2v1h-1l-1,1h-1v-4h-2l1,-1v-1h1ZM647,665v1h-2v-2l1,1ZM646,662h-2v-1h-1h1l1,-1h1v1ZM646,672l1,1v1h-2v-1h-1l1,-1ZM644,654l-1,1h-1l1,-2h2ZM646,659v-1l-1,-2l1,-1v3ZM646,653v1v-2ZM638,657h-1v-1h1ZM642,645h-2l1,-1h1ZM641,642v-2l1,1ZM655,693h-1ZM653,688l-1,1l-1,-1v-2h1v1ZM652,683l-2,-1v-1l1,-1v1l1,1h-1h1ZM123,183v-1h1v-1v1h-1ZM124,183v-1ZM663,471h-1h1v-1ZM656,458l-1,1v-1h-1h1ZM678,460v1l1,-1v1h-1ZM674,460h1h-1v-1ZM460,361v1v-1h-1ZM459,382v-1l1,1ZM455,400v1h-1v-1ZM460,367l1,-1v1ZM460,392h-1v-1h1ZM459,393l-1,1v-1ZM451,408h-1v-1l2,-2l-1,2ZM803,641v1l-1,-1h2ZM768,86h-1l-1,-1l1,1ZM770,88l-1,-1h1ZM754,79h1h-1v-1h-1h1ZM728,73h-1v-1v1ZM719,73h-1v-1ZM708,72v-1ZM715,98h-1ZM720,100l-1,-1h1ZM719,99h-1h1h-1v-1ZM703,107h-1ZM670,119v1l-1,-1ZM638,50v-1h1ZM637,61h2v-1h2v1h2l1,1h1v1h1h-2l-1,-1h-2l-2,-1v1h-2l-2,-2h1ZM669,74h2v1h1v1h1l-1,1h1h-2l-2,-1h-2l-1,-1h2v-1ZM722,84h2v1h1l1,1h-1h1v1h-1v1l1,1h-1v-1h-1v1l-1,-1l-2,-1h-1v-1h-1l1,-1h1v1h1l1,1v-1h-1l-1,-1h-1v-1h-1h1l1,1v-1h1h-2l1,-1v1ZM706,100l1,1h1l1,1h-3v1h-1v1l-1,-1h-1v-2h1l1,-1ZM775,91v1h1v1l-1,-1h-1v-1h1h-1ZM780,93l1,1l-1,-1v1v-1h-1v-1v1ZM772,88l1,1h-1l-1,-1ZM778,91v1h1v1v-1h-1l1,1l-1,-1h-1v-1h-1l-2,-1v-1h1l2,2ZM764,84h1h-1h1l1,1h1v1l-1,-1l1,1h1v1h-1v-1h-1l-1,-1h-1v-1h-1ZM780,95v-1v1h1v1v-1h-1l-1,-1h-1l-1,-1h-1v-1l1,1h1l1,1ZM720,71h1v1l-1,-1h-1ZM721,74v-1h-1v-1l-1,-1l1,1v1h1ZM717,71h1v1h1h-1v-1ZM714,69h-1ZM726,88h-1v-1h1ZM719,81h-1v-1h1ZM721,84h-1v-1v1ZM727,95h-1v-1h1ZM726,91h-1v-1ZM727,91h-1v-1h1ZM714,98h1v1h-1l-1,-1ZM711,101h-1v-1h1ZM712,103h-1ZM718,99v1h-1v-1ZM702,105v1l-1,-1h2ZM703,105l-1,-1ZM695,82l-1,-1h1ZM647,75h1h-2v-1h1ZM672,90h-1ZM693,113h-1ZM690,114v1ZM684,116h-1ZM676,93h1ZM669,120l-1,-1ZM670,118v1l-1,-1ZM666,120h-1v-1v1ZM645,120l-1,-1h1ZM651,123h-1l-2,-1l-1,-1h-1h1l2,1h2ZM620,118v-1h-1h1ZM760,83h1v1h1l2,1v1h2v1h1l1,1h-1l-1,-1h-1v-1h-1l-1,-1v1v-1h-1v-1h-1l-1,-1l1,1v1v-1h-1l-2,-2h1v1Z"/>
<path class="sl" d="M754,79h1l1,1h1l1,1h1h-1v-1h-2v-1v1h1l1,1h1l3,3h1h-2v-1l-1,-1h-1l-1,-1l-2,-1l-1,-1h-1l-1,-1ZM753,79h1v1h1h-1v-1l1,1h1l1,1h-1h2v1h1h-1l-1,-1v1h1v1l-1,-1h-1l-1,-1h-1l-2,-2h1v1v-1h-1h1h-1ZM769,87v1v-1l1,1h1v1h2v1h2l1,1h-1h1v1v-1l1,1h1v1l2,1h1v1h1h-1l-1,-1h-1l-1,-1l1,1l-2,-2h-1l-1,-1h-2v-1h-1h1h-1v-1h-2v-1h-1ZM765,85l1,1h1v1h1l1,1l-2,-1l-1,-1h-1l-1,-1ZM720,81h1v1h1h-1h1v1h-1v-1v1h-2v-1h1h-1v-1ZM698,110h-1v2h-1v1v-2h-1v-1h1v-1h2ZM700,107h1v-1h1v1h-1v1l1,-1v2h-2v1h-1v-1h1v-1h1l-1,-1h-2v-1h2ZM680,117h2v1h-4v-1l1,1v-1ZM675,118h-1l1,-1h1l-1,-1h2v2ZM667,119h1l1,1h-1v1l-1,-1v1l-1,-1h1ZM662,121h-1v-1h1h-2v-1h2v1h1h-1h1ZM650,119v1l-1,-1ZM639,120v-1h1h-1h1v1ZM614,114h2l1,1h-4v-1ZM882,350v1h-1l-1,-1v-1l-1,-2v-1l-1,-2v-3l-1,-1h1l1,1l2,1l2,2v1h1v3h-1l-1,1ZM868,333h3v1l-1,-1h-2v-1ZM873,335l1,-1l1,1v1h1l-1,1h-1l-1,-1h-1v-2ZM865,331h1v1h-2v-1v1h-1v-2h-1h1v-1l1,1h1ZM856,327l-1,1l-1,-1h-1v-1l1,-1h1l1,1ZM852,328v1h-1v-1l1,-1ZM871,336l-1,-1h1ZM914,221v-1ZM920,229v-1h-1v-1v1ZM915,221v1l-1,-1ZM914,220v1v-1v1h1h-1ZM917,225h1h-1v-1ZM830,126h-1ZM831,127h-1v-1v1ZM833,129l1,1v-1v1h1h-1v-1h-1v-1h-1v-1v1h1ZM839,134v1ZM838,133h-1ZM837,132h-1v-1v1ZM831,127h-1ZM15,569l-1,-1h1v1v-1ZM950,710v-1ZM763,698v1h-1l-1,-1h1ZM775,678h-1l1,-1ZM764,699v1ZM292,592l-1,1v-1ZM288,603l-1,-1v-1h1v-2h-2v-1h1l1,-2l1,-1h10l1,-1h2v-1l1,1h2l-3,3h-2l-2,2h-3l-1,1h-1l-3,1l-1,1ZM280,602l1,-1l2,-1v1l-1,1h-1ZM136,414v1ZM136,411v1h-1v-2ZM109,446l-1,1v-2l1,-2v2ZM120,431v-1h-1h1ZM120,431v1l-1,1v-1ZM115,458h-1v-1l1,-1v1ZM110,445v-1ZM110,436h-1v-1h1ZM112,448v1ZM128,176v-1h1h-1ZM122,183v1ZM272,327v1l-1,1v2h-1v1h-1v-3l-2,-2h1l-1,-1v-5l1,-1v-2l5,-7l1,-1h1v-1l2,-2l2,-1l1,-1h1v1h1l1,1v1h-1v2l-1,1l-1,2l-1,1v3l-1,1l-2,4v1l-2,2ZM258,311v1l-1,-1ZM35,424v-1ZM34,429v1ZM35,423h1v1l1,3v7l1,1v13l-1,2v2h-1l-1,2l-2,2h-1v-2l-1,-2v-4l1,-6v-6h1l-1,2h1v-3l1,-3v-2l1,-1v-4h1v1v-2h-1ZM347,233h-1v-1h1v-1h1ZM343,233h-2l1,-1h1ZM330,236l-1,-1l1,-1h1v1ZM339,211v1h-1v-1ZM333,236v-1ZM341,234h-1l1,-1ZM336,220l-1,1v-2ZM330,233v-1h1ZM367,214h-1v-1h1ZM328,244h-1v-1h1l1,-1h4v1h-1l-1,1h-1Z"/>
<path class="sl" d="M578,597l-1,-1h1ZM638,623h-1v-1ZM632,615h-1l-1,1h-1v-1h1l1,-1ZM585,625h-1l-1,-1v-1h-3v-1h1l3,2h1ZM594,606v1h-1v-3ZM574,602h-1v-1h1ZM582,601h2v1h-2ZM562,594l1,1v3l-1,-1h-1v-1l-1,-1h-3l1,-1v-1l1,-1h2v2ZM566,599h-1l1,-1ZM565,598l-1,1l-1,-1v-1h2ZM559,599l-2,-2h1v-1h1v1h-1v1ZM553,592l-2,-2v-1h2v1h1v1h-1ZM552,594v-1ZM557,593v1l-1,-1h-1v-1l1,-1h1v1ZM546,585h-2l1,-1h1ZM561,599h-2v-1h1ZM579,603l2,2v-1h3l3,3h1v1l-1,1h-1l-1,-1h-5l-2,-2v-3ZM580,597l-1,-1h-1l-2,-1l-1,-1l-2,-1h-1l-3,-3v-1h-1v-1l3,1l3,3h2v1l4,2l-1,1h1ZM560,587l-1,1v-1h-2l-4,-4l-2,-1v-1h1l4,2h1v2l2,1v1ZM588,595l2,2v1h-1v1l1,1h1v2h1v1l1,2v1h-1l-1,-2l-1,-1l-2,-1v-2l-1,-2v-1l-1,-2h1ZM595,613h3l2,2v1h1h-4l-1,-1l-2,-1v-1h-1v-1h-1v-1h1l2,1ZM137,504l-1,1l-1,-1l1,-1ZM793,634l1,1v2h-2l-2,-2h2ZM799,639h-3l-1,-1v-1h1l2,1h1ZM470,173h1v1h-1ZM474,172h-1ZM471,174l1,-1v1ZM434,103l-1,1h-1l1,-1ZM500,84v-1h1ZM427,28h-1ZM429,15h-1v-1h1ZM425,17h-1h1v-1ZM407,17h1ZM404,18h1ZM431,11h-1ZM363,23h1ZM378,21l-1,1v-1ZM384,20l-1,1h-1l1,-1ZM424,6h1ZM423,6h-3v1v-1h2ZM422,6h-1l-1,1h-1h1v-1v1h-1h1v-1h1ZM382,16h-6v1h-5v1h-4l-1,1v-1v1h-3l-1,1h-3l-1,1h-1h1l1,-1h3v-1h2l2,-1h3l1,-1h3l1,-1h4v-1v1v-1h7v-1h3l-1,1h-4ZM348,24l1,-1h2l1,-1h3v-1h1l-1,1h-3v1h-3v1h-3v1h-2l-2,1h-1l-2,1h-2l-1,1h-1h1h-1h1l1,-1h2v-1v1l1,-1h2v-1h3l1,-1h1Z"/>
<path class="sp" d="M343,25h2l1,-1h2"/>
<path class="sl" d="M437,9h-2l-1,1h-5v-1h7l1,-1h1v1ZM432,10l-1,1h-1h1h-1l-1,1h-2l-1,1h-3v-1h-1h1h-1h1v-1h4v-1h4ZM431,12h-1v1h-1h2v-1v1h-1h1l-1,1h-9l-1,1h-1v-1h4v-1h5v-1h4ZM478,21v1h1v-1h6l4,1h-2v1h-4v-1h1h-2v1h1v1h-12v-1h-1v-1l1,1v-1h1v-1h3l1,-1v1h1ZM492,23l1,-1l2,1h1h-1h6l-1,1h-8v-1h-1v-1h1ZM578,35l-1,-1h-1l1,-1h1l2,1v1ZM461,107v5l1,1v5h-1v1l-1,1v1l1,1v1l1,1l-1,1h1v4l1,2v2l1,1v2l1,1v1l1,1v1v-1l-1,-1h-1l-2,-2h-3l-2,2v1l-3,4v1l-1,1v1l1,1v1h1v1l1,1v2h2v3l-1,1v-2l-1,-1h-3v-1h-1v1h-1v1h-1v2l-1,1h-1v-5l1,-2h1v-5h1v-4l-1,-1l2,-4l1,-1v-6l1,-1v-2l1,-1l-1,-1v-1h-1v-1h-1h1v-1h-1l1,-2v-1l1,-1v-1l1,-1v-2l1,-1h1v1h1l1,-1h-1l1,-1h1h-1h1v-1l-2,-2h2v-1ZM580,32l2,1h3v1h-1l-2,1l-1,-1h-2l-1,-1h1ZM342,26h-2l-1,1h-1h1v-1h2Z"/>
<path class="sp" d="M340,26h2"/>
<path class="sl" d="M587,106l-2,-1h-1v-1v1h2ZM529,36h-1v-1ZM534,42h-1v-1h-1v-1h1v1ZM505,21h-1ZM497,19h1ZM465,34h-2v-1h2ZM430,15h-1ZM429,18v1h-1v-1ZM404,18h-1ZM409,16h-1h2ZM403,15h1ZM357,24h1ZM362,23h1ZM374,22h-1ZM326,33h1ZM334,30h1l1,-1ZM303,43v1l1,-1h1h-1ZM415,7h1ZM414,8v-1h1h-1ZM423,6h1ZM416,7h-1ZM418,7h-1h2ZM413,8h1ZM422,7h-1l1,-1h1h-1ZM419,7h1ZM414,8h1l1,-1h1l-1,1h-1ZM420,7h-2l-1,1v-1h4ZM421,7h1ZM415,7h1ZM416,7l-1,1h-1h1ZM427,6h-1ZM423,6h-1l-1,1h-1h1v-1h1ZM427,6h1ZM428,6h1v-1v1ZM424,11v-1h3v1h-2ZM434,8h-1ZM477,26h-1v-1h1l1,1ZM480,27h2v1h-7l1,-1h3v-1ZM468,22h-1h1v-1h1v1ZM466,26h-2v-1h1ZM438,103v1h1h-1l-2,2h-1v-1h-1v-1h1l1,-1h1ZM556,40h-1l-2,-1h-2v-1h1l3,1h1ZM559,86h-1l1,-1v-1l2,-1l1,-1v1l1,1h-2l-1,1ZM580,105h-1l-1,-1h-1v-1h-1l-1,-1h2v1l1,1h1ZM524,136v1h-1v-1l1,-2l1,1h-1ZM532,128v1l-1,-1l1,-1h1v1ZM530,131h-2l-1,1h-1v-1h1v-1h1l1,-1v-1h2v1l-1,1ZM520,140v-1h1ZM528,128l-1,-1h1ZM515,146h-1ZM509,151l-1,1h-1l1,-1h1l1,-1ZM495,159l-1,1h-1l3,-3l3,-1h1l-2,1l-1,1h-1ZM488,161l-1,1h-1l-2,1l-1,1l-1,-1v1h-1l-2,2l-2,1v-1h1l2,-2h1l2,-2h1v-1l1,1l1,-1l2,-1h1v1ZM476,171v1l-1,-1h2ZM473,167h1l-1,1h-1l-4,4v-1l2,-2h1v-1l1,-1ZM419,24h-2l-1,1h-1v-1h2v-1l1,1ZM414,10h-1h1h-1ZM425,8h-1h2ZM357,23h-1h3l1,-1l-1,1h-1ZM355,26h-1h3v-1v1h-1ZM360,25h-1h1l2,-1v1h-1ZM383,19h-1h2ZM328,31h-1l-1,1l1,-1h1l1,-1h2l1,-1h1h-1v1h-2l-1,1ZM267,360h1l2,2h1l1,1h1v-1h1v-1h1v3l-1,1l-1,2v2l2,2v3l-1,1l-2,3v1l-2,2h-1l-2,2v2l-1,1v1h-1v2l1,1v2h1v1h-1v4l1,1v1l2,1h1v-3h1l1,-1h1l1,1h1v1l1,1v2h2v-1l-1,-1h1l1,1h2l1,1l-1,1h-2l1,1v1l1,1v2h1l1,1v2l-1,2v-1h-1v-1l1,-1v-1l-1,1h-2l-2,-2v-2l-1,-1l-2,-1v-2l-2,-1h-1l1,1v5l-1,-1v-2h-1l-2,-2l-2,-1v-1v1h-2v1l-1,1h-2l-2,-2h-1v-3l1,-1l2,-1v-2l-1,-1h-1v-1l-1,1v3h-1v-1l-1,-1v-1h-1v-5l-1,-1l1,-3v-1h-1v-3h1v1h1l1,1h1l1,-1v-5l1,-1v-4h1l-1,-1v-1l2,-5h1v-2l1,-1h2ZM229,446l-1,1v-1l1,-1v-1l2,-2v-1l1,-1l2,-1h1v-1l2,-2l2,-1l1,-3h1l4,-4v-4h1l1,-2v-1v6l1,1v1h-1v1h-2v1l-1,1l-2,1h-1v1h-1v1l-1,3l-2,2h-2v1l-3,3h-1v1h-1v1ZM270,420h3v1h-1l2,-1h1l-1,1v2l-2,2h-1v1l-2,2h-3l-1,1v1v-1h-1l1,-1v-2l1,-1v-3l1,-3h-1v-1h-1v-1h2l2,2ZM273,442h-1l-1,-1v-2h-2v-1l-1,-2v-2h2l1,-1v-4h1v-1l1,-1v-1l2,-1l2,1v2l-1,1v1l-1,1v2h-1v1l-1,1v2l1,2v1l-1,1Z"/>
<path class="sl" d="M285,422l1,1l1,-1h1v1l1,1v2l-1,1v1h1v2l1,1v1h-1l-1,-1v3l-1,-1h-1v-5h1l-1,-1v-1h-2v-4h-1v-1h1ZM291,412l1,1v1l1,1v2l-1,2h1v4l1,1v1v-1h-4v-1h-1v-1l-1,-1l1,-1v-1h-1v-1h-1v-1l-1,-1h-1v-1h-1v-3h4ZM258,403h2v1h2l1,1v1h1v1h-1v5h-1v1h-1v1h-1v-1h-1v-3h-1v-2l-1,-2l-1,-1v-1h-1v-1h1ZM295,440l1,1v1l1,1v2h-1v2h1v2l1,1v4h1v3l-1,1v1l-2,2h-1v1l1,1l-1,2v1v-1h-1v-4l-1,-1v-3h-1l-1,1v1l-1,1v1l-1,1v2h1v1l1,2v2l-1,1l-1,2h-1l-1,-1v-1l1,-1v-1h-1l-1,2h-1l-6,-3l-1,-2v-5l1,-1v-1h1v-2l-3,-3h-3v3h-1l-1,-1v-1h-1v1h-2v-2h-1l-2,2l-1,2v1l-1,1v1h-2v-2l1,-1v-1l1,-2v-2l1,-1h1v-1h4l1,-1v-1l1,-1l2,-1l1,-1h1l2,2v3l-1,1l1,-1h1l1,-1h1v-2l1,-1l2,1l1,-1v-3h2v1h1v-1l1,-1l1,1h1v-7l1,1l2,1l1,1ZM275,438l-1,1v-2l1,-2v-1l1,-1l1,-2l1,-1v-1l2,-4v-1l1,-1v6l-1,1v1l-1,1h-1v1l-1,1l-1,3ZM273,358v-1h1ZM271,354h-1v-1ZM276,345h-1h1v-1ZM276,342l-1,1v-1l1,-1ZM256,467v1h2v1h-4v-1l1,-1ZM227,451h-1v-2h1ZM249,429l-1,-1l1,-1l1,1ZM252,414l1,1v-1v1h1v1h-3v-3ZM251,418v1v-1l-1,-2h1l1,1v1ZM270,429v1h-1v-2h1v-1h1v1ZM284,436h-1v1h-4l-1,-1v-1h1v-1h1l1,-1l2,-1v1h1v2ZM249,474v1h-2v1h-2l2,-2h1ZM263,464l-1,1v-2h-1v-1h2l2,1h-1v1ZM296,436h-1v-1l1,-1v1l1,1ZM293,435l-1,-1v-3h1v-1v4ZM255,401h-1v-1h1ZM267,403h1v3h-1l-1,-1v-1ZM267,413l-1,2v-2l1,-1v-1h1v1ZM271,414l-1,-1v-1h1l1,1ZM277,409v1l-3,-3h1l1,2ZM280,413l-1,-1v-1h1ZM279,414l2,1l1,2v2l-2,-2h-1v-1h-1v-1h-1l-2,2v-1l1,-2v-3l1,1h1v1ZM285,403h-2v-1l1,-1v-2h1v1h1v2ZM269,399l-1,-1v-1ZM269,390v3h-1v-3ZM283,429v-1ZM290,434v1l-1,-2ZM270,456v1h-1v-1ZM292,460v1l-1,-1v-1h1ZM286,421h-2v-2h1v1ZM286,441l-1,1l-1,-1l1,-1v1ZM269,356h-1v-1h1ZM250,420v1h-1v-1ZM279,423v1ZM269,412v-1ZM295,438v-1ZM288,420l-1,1v-1ZM229,448h-1l1,-1ZM277,440v1l-1,1v-1h-1h1ZM521,565h-1l-1,-1l-1,-2l1,-1l-1,-2v-1l-2,-3l-1,-1h-1l-1,-1h-1l-1,-1l-2,-1l-1,-1h-1l-3,-2h-1l-1,-1l1,-1h-1l2,1l1,1h2l1,1h1l2,2l2,1l2,2h1l6,6v3l-1,1ZM512,561l2,-1v1h2v4l-2,2h-2l1,1v1l1,1l-1,1h-1l-1,1l-1,-1l-2,1v1l-2,2h-1l-1,1h-2l-1,1h-1l-1,1h-7l-1,-2h-4l-2,-1l-1,-1h-2l-1,-1v-2h7l1,1h2l1,-1h3v-3l1,-1h1l-1,1v2l1,1h6v-1h1v-1l3,-3h3v-2l-1,-3v-1h2ZM418,602v-12l-1,-2v-6l-1,-1v-1l1,-1v-33h2l4,2l1,1h2l4,2l4,1h1l3,1h1l2,2h1l1,1h4l1,1v1h1l2,2h1v1h3l4,5v2l-1,2l1,1h3l7,4h4l3,3v1l1,1v1h-1l-1,1h-5l-1,1l2,4l1,1v1h1l3,3h1l2,1v1l1,1v2l2,1v1l1,2v1h2l2,-1h1l1,1v1l-1,1v1h1l1,1h3l1,1h1v1h-2v1h1v1h2l1,1h3l1,1h2h-2v1l-2,-1v1l1,1h1l-2,1h-4v-1l-1,-1h-3l-1,-1h-5l-1,-1h-6l-1,-1h-2v-1h-1v-1l-2,-2l-2,-1v-1l-1,-1v-1h-1l-1,-1h-1l-1,-2v-1l-2,-2v-1h-1v-1h-1v-1l-2,-1h-3l-1,-1h-4v-2h-4v1h-4l-2,-2h-1l1,1l2,3h-1l1,1h-1l-1,-1h-2l1,1v1h-1l-2,1h-7v-1h-1v1h1v1l1,-1h2l2,1h1l2,2v3h-1l-1,1l-4,2h-1l-2,-2l-3,1h-4v-1h-1l-1,1h-1Z"/>
<path class="sl" d="M478,574l-2,-2v-1l2,1v1ZM461,564l-1,1v-1h-1l1,-1h1ZM518,551l-1,-1h1ZM513,549h-1v-1ZM493,537h-1l-1,-1l1,-1l1,1ZM505,610v-1h1v2h-1l-2,-1v-1l-1,-1v-1l2,2v1ZM498,605v1v-1l-2,-1v-1h2v1ZM505,599h-1l1,-1v-1h-1v-1h1v1ZM532,621v1h-2v-1h1ZM440,597l-2,-1h2ZM471,570l-1,1l-1,-1v-1l1,-1l1,1ZM470,540l3,1h-1l-1,1h-5l-1,1v-1h1l-1,-1l1,-1h2ZM499,546l-2,1v-1h-1v-1h-1l1,-1h1l2,1ZM500,604l1,1h1l1,1v1h-1h1h-3l-1,-1h1l-1,-1v-1ZM518,601h2v1h1v1h-2v-1h-1l-1,-1ZM525,622l2,1l-1,1l-1,-1h-1v-1l-1,1l1,-1h-1v-1h1ZM440,598h-1l-1,-1h-1v-1l2,1ZM477,543l-1,1l-1,-1h1ZM512,548v-1h1v1ZM503,615h-1v-1h1ZM527,559h-1l1,-1ZM547,581v1h-2v1h-1l-1,-1h-2v-1l-1,-1l1,-1l-3,-3h-1v-1h-1v-4h3v1l1,1v1h1v1h1l1,2h1l3,3ZM536,570l-1,1v-4h1v2ZM334,496v-1ZM364,458h-1v-2h1v-1v2ZM644,846h1l1,-1h1l2,-1h1v-1v1h-1v1l-1,1l2,-2h2l-1,1h-1h1l1,-1v1h-1v1h-1v1h-1h1l-1,1h1v1h-1l-3,3l-2,1l-4,4h-1l-1,1h-1v1h-1h1v1h1l1,1h-1v1h-1l-1,-1h-1v1v-1h-1v1l-1,-1h-1l1,1h-2v1h-3v1h-1l-1,2l-1,1v1h-1v1l-4,4h1l-1,1h-2l-1,1h-1l-2,1l-1,1v1h-8v-1h-2l-1,-1h-6l2,-1h-1v-1l-1,1h-1v-1h3v-1h1h-1l1,-1h-1v-1h2v-1l1,-1v1v-1l2,-1v1v-1l1,-1h2v-1l1,-1l2,-1l1,-1h3l1,-1h1l1,-1h2l1,-1h1v-1h1l1,-1h2v-1h-1h2v-1h1v1v-1h1l1,-1v1v-1h1l1,-1v-1h1h-1l2,-2v-1l1,-1h2l2,-2l1,-2l1,-1l1,-2h2l1,-1h2h-2v2h1v2ZM650,843h-1l1,-1h1h-1ZM597,873h-1ZM600,870v1h-1v-1ZM603,880h1v1h-3l-1,1h-1l1,-1h1v-2h2ZM670,813l-1,-1l1,-1v1ZM658,804h1v-1h1l-1,1h2v1l1,-1l1,1v1h2v3h-1v2h1v4l-1,1v1h3v2h1l1,-1v-4l1,1v1h1v5h-1l1,1h1l1,1h1l2,1h2l1,-1h1l2,-2h3l1,1h-1v1h-1l-2,4l-1,1h-1v1h-1l-1,2h1l-1,1v-1h-3l-2,1l-2,2l1,1l-3,3v1h-1l-2,2h-1v1l-2,2h-1v1l-2,1h-1l-1,1h-1v1l-1,-1v-1h-2l1,-1h-1l1,1h-2l2,-2l2,-1l1,-2h1v-4l-1,-1h-2l-1,-1h-1l-2,-2h1v-1l2,-1h2l2,-2v-1l3,-3v-2h1v-4l-1,-1h1v1l1,-1h1l-1,-1h-2v-1l-1,-2h1v1h1v-1l-1,-1h1v-1h-1v1l-1,-1v-2l-1,1l1,1v1h-1v-1l-2,-4l1,-1h1v-1h-1v1h-1v1v-1h-1h1v-1h-1v-1l1,-1l-2,-2l-1,-2h3l-1,1v1l1,1ZM597,910h-1ZM585,901h-1h1v-1h1v1ZM698,859v1h-2v1l-1,1v-1l1,-1h-1l1,-1ZM696,863v-1h1v1ZM801,680v1v-2l1,1ZM855,695h1ZM937,258h1l-1,-1v-1h-1h1v1ZM14,469v-1ZM117,459v-2h1v1l1,1h2v2h1v2l-1,1v1h1v1l2,-2h1v1h1l1,-1v-1l1,-1v-1h1v1l1,3l2,1v1l1,1v1l1,1l1,5v3l-1,3v10l2,2v1l1,2l1,5l1,2v1h-1v-1l-1,-1v1h-2l-1,1v-1l-5,-5l-3,-2l-1,-2l-3,-3v-4l-1,-2l-1,-1l-1,-2v-4l-1,-1l1,-3l-1,-3v-10l-1,-1Z"/>
<path class="sl" d="M229,483h-1l-2,-1h-3l-1,-1v1h-1v-1l-1,1v-1h-2l-1,1l-1,-1v1l-2,2v5l-1,1v3h-2l-1,1v2l1,1l-1,1h-1l-1,1v4h-1v2l-1,1h-4l-2,2l-1,-1h-1l-2,-1h-1v-1h-5v2h-1v1l-1,1h-7l-2,1h-1l-1,-1l-1,-2h-1v-1l-2,-2v-2h-1v-1l1,-1v1l2,2h3l2,1v1h1l1,1h1v-1h-1v-2h1v-3l1,-1h-1v-2h2v-3h1l1,-1h3l4,-1l1,-1h1l1,-2l1,-1l1,-2l2,-2l1,-2l1,-1v-2h1l1,1v2h1l1,1v1h1v-1l1,-1v-4h-1l1,-1h1l1,-1l-1,1v1l1,1v2h1v-3l-1,-1v-1h2l2,-2l-1,-1v-1l1,-1v-1v1h1l1,-1v-1l2,-2v-1l5,-7v-1v1l1,1h-1v2l2,-2v-1h1v1l1,1v1h1l1,1v5h2v-1h1v2h-1v1h1l1,-1h1l4,4h2v2h-1l-1,1l-2,1l-1,-1h-2l-1,2l3,3v1h-3l-1,1l-1,-1h-2ZM139,492h-1v-1h1ZM117,469v-1ZM116,458v2h-1l-1,-1h1ZM227,457h-1v-1h1l1,-1v2ZM122,489v-1ZM184,497v-1ZM231,483h-2l1,-1v1ZM690,494v1ZM689,495h1ZM691,505v1v-1h-1ZM691,507v-1ZM691,513h1l-1,1ZM703,528v1v-2h-1v-1v1h1ZM705,532v-1ZM691,510l1,-1v1ZM663,530h-1l1,-1ZM802,558h-1ZM810,546v-1ZM894,498l1,1h-1l-1,-1h1v-1ZM883,481v1v-1h-1ZM806,543v-1ZM381,223h-1v-1h1ZM416,212v-1h1l-1,-1l2,-2v2h-1h1v1ZM389,237l-1,1h-1v-1h1v-1l1,-1h1l-1,1ZM353,267h-1l-1,-1h2ZM355,266v-1l1,-1v-1h1l-1,1v1ZM352,252h-1h1v-2h1v1ZM350,238h-1l1,-2v1ZM351,236h-1l1,-1v-1h1v1ZM343,248h2v1h-2ZM354,251v-1h1ZM442,161v-1ZM443,162h-1ZM429,182h-1l1,-1ZM385,236h-1v-1h1ZM421,234v1h-1v-1ZM346,247v-1l1,-1v2ZM350,245h-1v-1h1ZM353,241h-1v-1h1ZM372,238v1l-1,-1ZM370,239v1h1h-2v-1ZM349,256l-1,1l1,-1v-1ZM435,297l-1,-1h1ZM458,169h2l2,1h2l4,-2l-1,1l-1,2v2h1v1h1v1v-1h1l-1,1h-2l-1,1h-2l-1,1h-1l-1,-1h-1l-2,2l-2,1l-1,1v1l-1,1v1h-1l-1,-1l-5,-2l-2,-1h-3l-2,2l-1,-1h-1v-1h-1l-1,1h-1v1l1,1h2l2,2v1h-2v-1h-2v1l-2,2h-1v-1h-1l1,-1v-1l1,-1l-1,-1h-1v-2l1,-1v-1h2l2,-2v-2h1l1,1h3l1,-1v-2l2,-2v-1l1,-1v-2l1,-1v-1l-1,-1v-2h1v-1h2l8,8h1ZM362,242h4l-1,1v1h-1l1,1h1v3l-3,3v1h-1v2l-1,1v2l-1,2l-1,-1h-1l-1,1l1,1l-2,1h-1v-1l1,-1l-1,-1v-1h1v-1h-1l-1,1v3l-2,-1h-1v-1h1l1,-1v-1h-1v-2l1,-1h1v-1h1l1,-2l1,-1h-1v-3l-1,-1h-1v2h1v2h-1l-1,-1h-1l-1,1h-1h1v-1l-1,-1v-1h1v1h1v-1l-2,-2h2v-1h1l1,-1h2l1,-1v-1h2v-1l1,1h1v1ZM385,237l1,1h1l-1,1l1,1h-1l1,1h-2l-3,3v1l-1,-2h-2l-3,1v1l-1,1h-1v1l-1,1h-2v-1h-1v-2h1v-1h-1v-1h-1l-1,1h-1h1l1,-1h1l2,-2h1v-2h1l1,-1v1l1,1l1,-1h2l1,-1l-1,-1h5Z"/>
<path class="sl" d="M439,187h2l-1,1v5h1l1,2v1l1,1v2l-1,2v2h-1l-1,1v1h-1v1l-1,1v1h-3l-1,2v7l-1,1v1h-1v1l-1,1v1l-1,1v2l1,1v1h-1v1l-1,1h-1v2h-1l-1,1h-1v1h-1v-3h1v-1h1v-2h-2v2h-1v2l-1,-1h-2l-1,1v2h-1v1l-1,1h-1v-2l1,-1l-1,-1l-2,2h-1l-1,1v1h-8l2,-1h-2v-1h-1v1v-2h-1l-1,2h-1l2,2h1l-1,1l-2,1h-2v1l-2,2l-1,2h-4v-2h-1v-4h1l1,-1v-1h1h-3l-1,-1h-5l-1,1h-1v1h-4l-1,1h-5v-1l-1,1h-1v2h-1v1h-1l-1,-1h-6v-2l1,-1h2l1,-1h1v-1h2l2,-2h1v-1h2l1,-2h1v-1h11l1,-1h3l2,-1l1,1v1h4l2,-2h-1v-1l3,-3l2,-1l1,-2l1,-1v-2l1,-1h1l1,-1h1l-1,2h-2v3h2l5,-2h1l1,-1h1l2,-2h1v-1l1,-1l3,-2h1v-1l1,-1v-1l2,-2v-1l1,-1v-1h1v-1l1,-1v-2l-1,-1h-1h1v-1h1v-4l1,-1h2v-3h2v3h1v-1h3v-2h-1l-2,1v-1l1,-1v-1h1v1ZM299,312l-1,1h-1v-1h1l1,-1ZM295,314h-1v-1h2ZM307,310h-1v-1h1ZM330,295v1h-1l-1,1h-1v1h-1v2h-1v-1l1,-1v-1h1l1,-1v-1h2v-1l1,-1v2ZM337,287v-1h1ZM341,283v1l-1,-1h-1h1v-1h2v-1h2l-1,1h-1ZM340,284l-1,-1h1ZM422,247v-1ZM100,501l2,3l1,1v1l-1,3h-1v-2l-1,-1v-1l-1,-1l-1,-3l1,1ZM109,530l-1,-1v-1l-2,-3l1,-2l1,-1v2l1,1v2l1,1v2ZM224,594l-1,2h1l-1,1l-1,-1h-3v-1h1v-3l2,-2l2,1l1,1ZM215,590h1l1,2l-3,3v1l-1,-1h1v-1h-1v-1h-1l-1,-1h-1v-1h-1v-1h-1v-1h2l1,1h1l1,-1h2ZM150,531v2l2,5l3,1l-1,1l-1,2h1v2l-1,-1h-1v-1h-2v-1l-1,-1v-2l-1,-1v-2h-3l-1,-1v-1h1l1,-1l-1,-1l1,-1h1v1l1,1v-2h1ZM271,560v2h-1v1l-1,1v2h1v-1l1,1v2h-2v2h-2v-3l1,-1v-5l1,-2h1ZM267,566v1h-3v-2h1v-1l-1,-1l1,-1h1l1,-1l1,3l-1,1ZM165,485h-2l1,-1h-1v-2l1,-1v-1v1l1,2v1ZM164,543v1l-1,1h-1v-1h-1v1h-1v-2l-1,-1h1v-3h1l2,1l1,1v1ZM369,528l2,1h2l2,1l2,2h1l-1,1h-3l-1,-1l-1,-2h-1l-1,-1v1v-1h-1ZM370,536l3,1h3l2,1h4l-2,1h-4l-1,-1h-2l-3,-1ZM331,522h2l2,1v2h-3v-1h-1l-1,-1v1h1v1h1v1h-1l-1,-1h-1v-1h-3l1,-1h1l1,-1v1v-1h1ZM312,504h-1l-1,-1v-1l1,-2l1,-1h1l1,1l-1,2v1ZM310,536h-4l-1,1l-1,-1h-1v-1l2,-2h1l2,1l1,1v1ZM293,543l-1,-1v-1l-1,-2l1,-1v2l1,2ZM293,537h2l-3,1h-4l-1,-1h3ZM284,536h2v1h1l-2,1h-5l-1,-1l1,-1v-1h2ZM337,591h-2v-2l1,-1v-2h1l1,-1v-1h2l-1,1l1,2l-1,1v1h-1l-1,1ZM300,588h1l-1,1h-2v1h-5v-1l1,-1h3l1,-1h1ZM283,591v1h4l1,1l-6,1v-2ZM333,533l-1,1l-1,-1v-1h-1v-2h3v2ZM97,468h3v1l2,-1v1l1,1l1,2v2l2,2v1l-1,1l1,1h1v1l1,1v1h1l1,1l2,3l1,1l1,2v1l1,2l1,1v2h1v1h1v1l1,1v-3h1l1,2v1l1,1v2h2l1,2l1,1v2l2,2v1h2l1,1v2l-1,1l-2,1h2v-1h1l1,-1h1v-1l1,1v1h1v1l1,2h-1v1l-1,1h-1h1l-1,1l1,1v3l1,1l2,1h2v1l1,1v5l1,1v1h1v2l-1,1v2h1l1,-2h3v1h1l3,6v1l-1,1v3l1,1l-1,2v1l1,3v10l-1,1h-1v-1l-1,-1l-1,1h-2l-1,-2l-1,1l1,2v1l-2,-2l-1,-2l-1,-1l-2,-3l-3,-3v-1h-1l-4,-4l-2,-5l-4,-4l-1,-3v-1l-3,-3v-4l-2,-6l-1,-1v-3l-2,-2v-2h-1l-1,-3v-1l-2,-1v-1l-1,-1v-2l-2,-8v-1l-1,-2l-2,-3h-1v-1h-1v-3l-1,-1v-1l-1,-1v-2l-1,-1l-1,-2v-2h-2v-1l-1,-1v-1l-1,-2l-2,-3v-1l-1,-1v-1l-1,-3h1v-2l1,-1l1,1h1l1,2l1,1Z"/>
<path class="sl" d="M270,595h-1l-1,1h-4l-1,1h-4v1l-1,-1h-1v1h-1l-1,-1l-2,-1h-4l-1,1v-1l-1,-1v-1l1,-1h1l1,-1h5l1,1h1l1,1h1v1h1l1,-1h3l2,1h1v-1h1v-1h2v-1h-1v-1h2v2l-1,1ZM249,601l1,1h1v1l1,1h2v1l2,2v1h-1v1h-3l-1,-1h-1v-1l-1,-1h-1l-1,-2h-4l-1,-1v-1l1,-1h5ZM236,592h1v-1h1v1h1v1v-1h2l1,1v2l-1,1v-1h-1v1h-3v-1l-1,1h-1l-2,1h-1l-1,1h-5v-1h-1v-1h1l-1,-2l1,-1h1l1,-1l1,1h2l2,2h3v-1h-1v-1h-1l-2,-1v-2h3v1ZM283,512l-1,2h-1v2l-1,1h-1l-1,1h-7l-2,-2h-8l-1,1l-1,-1h-11v1l-1,1v1l-1,1v5l1,1l1,2l1,1h1v2l1,1h2l1,1l1,-1v-1l2,-2v-1h2l1,1h1l1,-1v-1h5v-1h5v3l-1,1l-2,-2l-1,1h-1v1l-2,2l-1,2h-2l-2,1l-1,1v1h-2l-1,-1v1l4,4l1,2v1h1l2,2v4l-1,1v1h1v1h1l1,1v1l1,1h1v1h1v1l-1,1l-1,-1v1h-2l-2,1l-1,1v1l-1,1l-1,-1h-1l-1,-1v-4h1v-1l-1,-1h-1l-4,-4v-1l1,-2v-4l-1,-1h-2l-3,3v2h1v1l1,3v1l-1,1v5l1,1v1l-1,2v2l1,2v2l-1,-1l-1,1h-4l-2,-2v-2l1,-1v-4l1,-1v-4l-1,-2l-1,-1l1,-1h-1v-1h-1l-2,1l-1,-1v-2l-1,-1v-1l1,-1h-1v-2h1v-1h1l1,-1v-3l1,-1v-6l2,-5h1v1l1,1v-2l-1,-2v-3l1,-1l-1,-2l1,-2h1v-2h1v-1h1v-1h1v1h1l2,-2v-2h4l1,1v1h3l2,1h4l1,1h1l1,-1l2,1l4,1l1,-1l3,-1l2,-2v-1h1v-1h1v-1l1,-1h1l1,1v1l-1,1v2l-1,1ZM160,569v1l1,1h2l1,1h2l1,1v1l1,2h1l1,1h5l1,1h5v-2l1,-1v-1h2l1,2h3v1h2l1,1h3l1,2v1h1v3l2,1h2l1,1l2,-1h2l3,1v6l2,2v1h-1l-2,-2h-2l-2,-1l-3,-2h-1v1h-5l-2,-1h-5l-2,-1h-1l-6,-3h-1l-4,-2h-5v1h-2l-2,-1l-1,-1h-1v-1h-3l-3,-1h-1v-3l-4,-2h-4v-2h1v1l1,-1v-1h1v-3l1,-1v-1h1l1,1h2l1,1h1v-1l1,-1v1h1ZM173,500l-1,1v1h1v2l2,2v1h1l1,2l1,1h1l2,-1h7l1,-1v-1h1v-2h5v1h1l2,1h1l1,1l2,-2h4l1,-1v-2h1v-4l1,-1h1l1,-1l-1,-1v-2l1,-1h2v-3l1,-1v-5l2,-2v-1l1,1l1,-1h2v1l1,-1v1h1v-1l1,1h3l2,1h1h-1v2l1,1h1v1l-1,1l-1,-1v1h-3l2,2l-1,1l1,1h1v1l1,1h-1h1v1l1,1v1l1,2h1v1h-1v1h-1v1l1,1l1,2l3,2l1,1l1,2l1,1v1l-1,1h-2l-2,-1h-1l-1,-1v1h-1v1h-1l-1,4h-1v5l1,2v2h-1l-3,3v1h-2v-1v2l-1,1h-1v2h-1v1h1v2l-1,1h1v1h1v1l-1,1h-1v4h-1v1h1l-2,2v2l-5,3l-4,2h-1v-6l-1,-1v1h-1v-1h-1l-1,-1l-2,2l-1,-1v-2h-1v1h-1l-2,-3v2l-2,1l-1,1h-1l-1,-1l-2,2h-1v-4l-1,-1v-1l-1,1h-2l-2,1l-1,-1v-1v1h-1l-1,-1h-1l-1,1v-3l-1,-4v-2l-1,-1v-6l-1,-1v-1h-1l-2,-1h-1v-2h1h-1l-1,-1v-3l1,-1v-2h-1v-1l-1,-1v-6l1,-1h-1l1,-2v-1l2,-2v-1ZM306,514h2v-2h1l1,-1h-1l1,-1v-1l2,-1h2v4l-2,1l-2,2l1,1l2,1h1v2h1v1l-2,-1l-1,-1h-3l-1,-1v1h-1v1l1,1l-1,1l2,5l1,2l1,1h-1v-1h-1l-1,-1l-1,-2l-1,-1v-5l-1,-1v-4l-1,-1v-2l1,-2v-4l1,-1l2,-1l1,-1v1l-1,2h-1v1h1v4l-3,3Z"/>
<path class="sl" d="M323,547l2,1h3l2,2v1l2,2l-1,3l-3,-3h-1l-2,-1l-1,-1h-3v1h-1l-1,-1h-3v-1h-1l-1,1v1h-2v-1l-2,-2h-1v2l-1,1v-2l1,-3h1l3,-1l2,1l1,-1h1v1h2l1,-1h1ZM299,548l2,1v1h1v1l1,1l-1,1h-1l-1,1h-1v1h-1l-1,-1h-1l-2,-1v-1l-1,-1v-3l1,1l1,-1h2ZM286,598v1h2v2h-1v1l1,1l-1,1v1h-1l-1,2l-2,2h-2l-1,1h-3v-1l1,-1l-1,-1v-3l2,-1v-1h3l1,-1v-1h1l1,-1h1ZM364,572v1l1,1h-1l1,1v1l-1,1v1l-2,-1h-1v-1l-1,-1h1v-2l-1,-1h1l1,-1v-1h2v1ZM363,578v2h-1l-1,2h-2v-3h1v-1h-1v-2h1l2,2ZM397,594l-2,2l-3,-1h-1l-1,1v-2l2,-5l1,-1h1l1,-1h4l1,1v1l1,1l-1,1l-1,2l-1,1ZM417,546v33l-1,1v1l1,1v6l1,2v12h-1l-2,-2l-1,-2l-4,-3l-1,-1v-1h1v-1l-1,1h-3l-1,1h-1l-1,-1v-1l-1,1l-2,1v-3h1v-3h-1v-1l-1,-1v-1h2v1l1,-1h-3l-2,-2h1l1,-1l-1,-1v-1h-1l-1,-1v-1l-2,-4h1l-1,-1v-1h1h-3v-2l-1,-1h-1v-1l-4,-2h-2v-1l-1,1v-1h-3l-2,-2h-1l-1,-1h-1l-3,-1h-4l-4,-2v-2h1h-3l-1,-1l-1,1v-1h-1v-1l-1,1l-1,-1v-1h-1l-1,-1v-2l1,-1v-1h-1v3h-1v2l-1,1v1l-1,2h-3l-1,-1v-1l-1,-2l1,-1v-1l-1,-1l-1,-2l-2,-1h-2v-1h-1v-1h1l1,-1l1,1h3l1,-1l2,-1l1,-1l1,1h2l1,1v-1h1v-1h1v-1h-1l1,-1h-2l-2,1h-7l-1,-1l-1,1l-3,-3l-1,-2v-1l-1,-1l-4,-1l-1,1h-1v-2h1v-1l1,-1v-2h1l3,-1h1l2,-2l2,-1h2l4,2l1,1l2,1h5v2l1,1v1l1,1v1l-2,2l1,1v4l3,5v-3l1,1v1l1,2h1v3h1l1,1h3l1,-1v-1l2,-1l1,-1v-1l1,-1l2,-1v-2l1,-1h4l2,-2v-2l4,-2h3l1,1l5,1l1,1v1h2l1,1h1l2,1l3,1h3v1h4l1,1v1ZM400,595v1l-3,-1l1,-1h1ZM124,497v3h-2v-3h1ZM128,507h-1v-3l1,1v1ZM128,503v1l-1,-1h-1v-1h-1v-1h1l2,1ZM131,509v1v-1h-2l-1,-1v-2h1v1h1l1,1ZM132,508h-1l-1,-1h-1v-1h2v1ZM133,511h-1v-1h1ZM134,510l-1,-1v-1l1,1ZM137,506h1v1h-1ZM141,506v3h-1v-2h-1v-1h1ZM142,518h1v1l-2,-1h-1v-2h1v1ZM140,519v1h1l-1,1v1l-1,-1v1v-2ZM135,519h-1v-1h1l1,1ZM173,528l-1,1h-1v-3h2v1ZM203,580h-1l-1,1h-3l-2,-1v-1l1,-1h7l1,1l-1,1ZM366,532h-1l-1,-1h2ZM302,526h-1v-2h1v1ZM305,524l1,2l-1,1l2,1v1h-1l-1,-1h-1v-1h-1v-3l1,1v-1ZM349,573v-1l1,-1l1,-3v3l-1,1ZM348,573v1h-1v-3h1v1ZM311,554h-3l1,-1h1l1,-1v1ZM299,486h-1l1,-1v-3h1v3ZM290,491h-1v-1l-1,-1h1v1ZM333,594l1,-2h2l-1,1h-1ZM325,591l-1,1v-1l-1,-1v-1l2,1ZM309,592h2l-1,1l-1,-1h-1ZM327,537h1v2h-1v1h-2l-2,-2h-1l2,-1h2ZM129,563l-1,-1h-1l1,-1l1,1ZM117,543v1l-1,-1v-2l-1,-2h1l1,2v1Z"/>
<path class="sl" d="M115,539h-1v-2l1,1ZM113,535h-1v-2l1,1ZM105,519v-5l1,2v2ZM95,493v-1l-2,-1l-1,-1v-2h1v1l1,1l1,2ZM262,568l-1,-1v-2h1v1ZM270,531h1l-1,1l1,1v-1h2v1l-1,1l-1,-1v1l-1,1v-3l-1,2h-1l-1,-1v-1l1,-1h1ZM260,524v1h-2l1,-1ZM251,575v-2l-1,-2l1,-1v2ZM214,580l-1,-1l1,-1l1,1h-1ZM219,553l-1,1v-2l-1,-1v-2l1,-1h1v4ZM272,615l-1,-1h1l1,-1h1l1,-1v-1l1,1v1h-1l-2,2ZM281,593v1h-1v1h-1v-1h-1l1,-1h1l1,-1ZM278,592l-1,1v1h-1v1h-3l2,-2h-1v-1h1l1,1l1,-1ZM274,593h-3l1,-1h2ZM364,579v-1l1,1ZM134,507h-1v-1v1ZM136,509h-1v-1h1ZM138,509v-1ZM141,516v-1l-1,-1l1,1ZM152,489l-1,1v-1ZM148,492v-2l1,1h-1ZM168,492v1l-1,-1l1,-1ZM168,532h-1v-1h1ZM159,542h-1ZM155,543h-1v-1h1ZM207,581v-1ZM195,569h-1v-1h1ZM147,574h-1l1,-1ZM100,496l-1,-1v-1v1h1ZM92,463h-1v-1h1ZM273,536v-1h1ZM271,556l-1,2v-1h-1v-2h2ZM275,538h1h-1v-1ZM270,537h-1v-1h1ZM245,596h-1v-3h1v2ZM242,591h-1l1,-1ZM217,595h-1v-1h1ZM229,483h2v1l-1,1l-1,-1ZM229,491h-1v-1h1ZM278,573l-1,-1h1ZM275,567h-1v-1ZM254,582h-1l-1,-1h1ZM231,592h-1v-2h1v1ZM220,549v2l-1,-1ZM303,515l-1,-1h1ZM361,541h-1l1,-1ZM354,559l1,1l-1,-1h-2v-1l1,1ZM332,529h-1l-3,1v-1h3ZM330,527h-1l-1,-1h2ZM321,523h-1l-1,-1v-1ZM304,522v-1h-1l1,-1v1ZM304,516h-1v-1h1ZM303,528h-2l1,-1ZM314,553l-1,-1h1ZM313,553h-1v-1h1ZM298,488v-2l1,1ZM299,488v1ZM288,498l-1,-1h1ZM342,585l-1,-1h-1h1ZM315,584h-1v-1h1ZM305,588v-1h1ZM276,610h-1v-1l1,-1v1h-1ZM264,612h-1v-1h2ZM365,578v-1h1ZM364,581v-1h1ZM308,547v1h-1ZM305,550l1,1l-1,-1h-1ZM271,595h-1h1v-1h1h-1ZM85,453v-1h-1v-1l1,-1l1,2ZM85,449h-1l1,-1ZM83,441v-1ZM84,444v-1ZM85,443h-1v-1l1,-1v1ZM82,433v-1h1v1ZM83,421h-1v-1l1,-1v-1v1ZM85,414v-1ZM85,412v-3l1,-1v-2h1v-5h1v-2l1,-1v-2l1,-1v1l-1,1l1,1l-2,2v4l-1,1v2l-1,1v3ZM87,408v1ZM87,401v-1h1ZM21,408v-1ZM767,634v-1ZM752,643l-1,-1h1ZM906,655v-1ZM911,662v-1h1ZM906,657v-1ZM913,663h1l-1,1v-1h-1v-1l1,-1v1ZM964,592h1v1h-1ZM964,594v1ZM964,599v-1ZM962,585v1v-2ZM962,590h-1v-1h1ZM943,661v-1h1ZM964,586v-1ZM942,666v-1ZM942,664v-1ZM954,665h-1ZM953,664v-1ZM942,685h-1h1v-1ZM938,652h-1ZM934,646v1v-2ZM931,650v-1ZM611,694l1,1l1,-1l1,1l2,3h2l1,1v1h1v1h1v1h1l2,2l2,1l2,2h1l2,2v1l-1,1h-1l-1,-1h-1v-1h-2v-1h-1l-1,-1h-1v-1h-1l-2,-1l-1,-1l-2,-1v-1h-1l-1,-2l-1,-1h-1v-1l-2,-2v-2h-1l1,-1Z"/>
<path class="sl" d="M635,713h-1v-1h1ZM577,687v-1ZM640,703h1l-1,2h-1l-1,-1h1l-1,-1h1l1,-1l-1,1ZM629,698h-1l1,-1v-2h1v1h-1v1h1h-1ZM635,701h-1l-2,-2h1l1,-1h-1l1,-1h1v3ZM176,880h1h-1v-1l1,1h1v1h1v1h1h-1v-1v1h1v1v-1v1h1h-1v-1h-1l1,1h-1v-1h-1v-1h-1v-1h-1l-2,-2v-1h-1h1v1h1v1h1ZM176,880v-1h-1h1ZM736,659l-1,1h-1v1l-1,1h2v-1v2h-2l-1,1h-1l-1,-1l-2,1v1h-3v-1h-1v-1h3v-1l1,-1h3v-1h1l1,-1h2l1,-1ZM722,669l2,2v4h-3l-1,1h-4l-1,-1h-1v-2h1v-2l1,-1h1l2,-1h2v-1h1ZM735,665v-1l1,-1h1l-1,1ZM735,665h-1l1,-1ZM721,682h-1l-1,1h-1h1v-1h1ZM741,673h-1ZM746,673v-1ZM742,667v1v-1h1ZM743,683h-1v-1h1h-1v1ZM734,681v1v-1v1h-1v-1ZM715,667h-1l1,-1ZM730,669v-1h1ZM729,675l-1,-1h1v-1v1ZM726,672h-1v-1h1ZM736,661v1ZM736,658v1v-1h1ZM736,662v-1ZM718,629l-1,-1h1ZM690,704l-1,1v-1ZM256,311v-1ZM295,257l-2,-1l-1,-1v-1h1v1h1l1,1ZM295,268h-2v-1h1ZM294,271h-1v-1ZM295,269v-1h1ZM269,303v1h-1l1,-1v-1h1v1ZM199,337h1v1h-2v-1ZM284,283h-1v-1h1ZM223,324l-1,-1ZM215,333v-1h1v1ZM214,333l1,-1ZM200,346v3h-1v1l-2,2v1h-1v2l-1,1v1h-1l-1,1h-1v1h-2v1h-1v1h-1v-1h-2l-2,-2v-3l1,-3v-1l1,-1h1l2,-2h1h-1v-1h1v-1l1,1v-1h4l1,-1l1,1v-1l1,1v-1h1v1ZM221,329v-1ZM225,326h2v1l-1,1l-1,-1h-1ZM226,329l-1,-1h1ZM224,329l-1,-1h1ZM785,98l1,1v-1v1h1l1,1v1h1v-1h-1l-1,-1h-1h1v-1h-1l2,2h1l3,3h-1l-1,-1h1h-2v-1h-1l-1,-1h-1v-1ZM793,103v1h2v1h-1h2v1h1l1,1h1v1h1v1v-1h-1l-1,-1h-1l-2,-1v-1h-1v-1h-2v-1ZM814,116h1l1,1h2v1h1l2,2h1v1h1l2,2h1v1h1l3,3v-1h-1h1l1,1v1v-1v1h1h-1l-1,-1h-1v-1h-1l-2,-2v1h1h-1l-2,-2h-1v-1v1v-1v1v-1v1l-1,-1v-1h-2v-1h-1l-1,-1h-1v-1h-1l-1,-1h1h-1v-1h-1v1h1h-1v-1h-1l-1,-1h1ZM597,10h1h-1v-1h-1h1ZM602,11v-1v1h4l1,1h1h-2v-1h-3ZM609,12h1l1,1h3l1,1h3v1h1h-1l-1,-1h-1h1l1,1h1h-1h3v1h1h-1v-1h-1h1v1h-1v-1h-1h1h-3l-1,-1h-3l-1,-1h-2l-1,-1l1,1l-1,-1h-1ZM628,17h3l1,1h1h-2l-1,-1h-2l-1,-1h-1h1v1v-1v1h1h-1v-1h-1h1v1h1h-2v-1h-3l-1,-1h-1h1h-3v-1h-1h1h-1l1,1h4l1,1h3ZM622,15h-2l-1,-1h-3l-1,-1h-1h1v1h4l1,1h1Z"/>
<path class="sp" d="M623,15l1,1h3l1,1M615,14h4l1,1h2"/>
<path class="sl" d="M682,34h-2v-1h-2l-1,-1h-1h1h-3l-1,-1h-1l-1,-1h-2v-1h-1h1l1,1h2l1,1h1l1,1h2l1,1h1l1,1h1ZM666,28h-1h1v1l-2,-1h-2v-1h-2v-1h-4v-1h-1l-2,-1h-2l-1,-1h-2l-1,-1h-1l-2,-1h-1h1l1,1h3l1,1h-1v-1h-1h1l1,1h1h-1h1h-1h2l1,1h2l1,1h2l1,1h2l1,1h2l1,1h1ZM644,21h1Z"/>
<path class="sp" d="M667,29h2l1,1h2l1,1h1l1,1h2l1,1h1l1,1h2M649,23h2l1,1h2l1,1h2l1,1h2l1,1h2l1,1h2M644,21h1"/>
<path class="sl" d="M637,20l-1,-1l1,1h1h-1l-1,-1h1v1h4v1h3l1,1h2l5,2h1v1h2l3,1h1v1h1l1,1h1h-1l-2,-1h-2v-1h-4v-1h-3l-1,-1h-2v-1h-2l-1,-1h-3l-1,-1h-2l-3,-1h-1v-1h-1h3ZM592,9v-1h-1Z"/>
<path class="sp" d="M590,8h1l1,1"/>
<path class="sl" d="M624,16h1h-2l-1,-1h-1h1l1,1ZM606,11v1v-1h-1ZM785,96h-1v-1v1ZM802,110v-1h-1ZM789,99h1h-2v-1ZM795,103l-2,-1l-2,-2v1h2l1,1h1ZM783,95v-1h-1v-1v1h1ZM798,104l2,1v1h1l1,1h-1v-1h-1l-1,-1h-1v-1h-1l-2,-2h1v1ZM824,123h-1ZM823,121h1h-2v-1v1ZM821,122v-1h-1v-1l1,1ZM819,118v1v-1l-1,-1h-1h1v1ZM800,106h-1l-1,-1h1ZM808,111v1v-1h-1v-1h-1h1v1ZM801,106v1v-1h-1l-1,-1v-1v1l1,1ZM797,104h-1v-1h-1h1ZM796,103h-1v-1h-1h1ZM829,126l-1,-1h1ZM828,125v-1h-1h1ZM820,119l-1,-1h-1h1ZM623,16h-1ZM614,13h-1ZM664,35h1h-1v-1ZM138,418v-1h1ZM139,423v-1ZM111,419l1,2h-1v-1ZM110,428v-1h1ZM112,415v-2l1,-1v2h-1ZM114,411v-1l1,1ZM114,412v2h-1v-2ZM115,405v1l-1,1v-3ZM113,409h-1v-1h1ZM101,375v1v-2h1v-1v2ZM117,374l-1,-1l1,-1ZM103,352v-2h1v2ZM105,342v1v-2ZM106,345v2h-1v-2ZM113,419v-1ZM112,413h-1l1,-2v1ZM113,407l-1,1v-1ZM115,401v1v-2ZM102,376v1v-1h1ZM103,342v-1ZM211,476v1l1,1v3h-1v-2l-1,-1v-1ZM211,476l-1,1h-1l-1,1h1v4l-1,1v1h-1v-1l-1,-1h-1v-2l-1,-1h1l1,-1h1l1,-1v-1h1l1,-1h1ZM101,322v1l1,-3v2ZM104,321h-1v-1l1,-1v1ZM100,323h-1l1,-2v-3h1v-1v4l-1,1ZM103,326v-1h1ZM103,328v-1ZM102,316h-1v-1h1ZM437,626v4h1v1l1,1v1l1,1v3l1,2v3l1,1v2l1,1v1h3v-1h1l2,-1l1,1v1l2,2l2,1l1,1h1v1l-1,1h1v5l1,1v4l1,1v1l3,3v1l2,2v5l-1,2l1,1l1,2h1v2l1,1v1l1,1h1l1,1h3v1h3l1,2l1,1h1v1h3l2,2h1l2,2v1l-1,-1v1l1,2l1,1h1l1,2v1h1v2h1v2l1,2v2h1v1h1l1,1h1l-1,-2v-1h1l1,1v1h2l1,1v-1h1l1,1v7l3,3l3,2h2l1,1l1,2v1l2,1l1,1v1l2,2h1l1,2v3h1v12l2,2v2l1,2v4l-2,4v4l-1,1v1l-1,3v3l-1,1v2l-1,3l-2,2v1l-1,1v1h-1l-1,1v1h-2l-2,2v1l-3,3l1,1h-1v1h-1v1h1l-3,3v4h-1v1h-1l-1,3h-1l-1,1v5l-1,1v6h-2l-1,1l-2,1l-2,-1l-6,1h-1l-4,2l-3,3l-3,1h-1v-1l-1,1h1v1l1,-1v2h-1v-1h-1v-1l-1,1l-1,-1v-1h-2l-1,-1l1,-1l-1,-1h-1v1h-1l-1,1h-1l-1,-1h1l2,-2h-1v-1h-1l-2,1h-1v1h2l-1,1h-2l-1,1l-2,1l-1,1h-3l-1,-1h-1l-2,-1l-1,-1h-4l-1,-1l-1,1h-1l-2,-1l-1,-1h-3l-2,-1l-1,-2l-3,-2l-1,-1v-2l1,-1l-2,-2l-1,-2l-1,-1l-2,-1l-2,-2h2l1,-1h-2l-1,1h-1l-2,1h-1l-1,-1v-1h1v-1l1,-2l-1,-1v-1l-2,-2v-1l-1,-1l-1,1v3l-1,3h-3l-1,1h-2l1,-3l1,1l1,-1h1v-2l-1,-1l1,-1l-1,-1l1,-2l2,-2v-1l-1,-1v-1h1l-1,-3l-1,-1v3l-1,1h-1v2l-1,2h-2l-1,1h-1l-1,1l-2,3l-1,1v1l1,2h-1l-1,-1v1l-3,-3h-2l1,-1l1,1h1l-1,-1l-1,-2l-1,-1v-1l-3,-3v-1h-1l-1,-1h-2l-1,-1l-1,-2h1v-1l-3,-1l-2,-2h-3l-4,-2l-3,1v-1l-4,-2l-3,-1h-12l-3,1h-2l-2,1l-6,2l-2,1h-9l-2,1l-1,1h-1l-3,2h-2l-1,1l-1,3v1l-2,2h-8l-1,-1h-10v1h-4l-1,1v1l-1,1h-2l-4,4h-7l-4,-2h-2l-2,-2l-4,-2h-1l-1,-1v-1l-1,-1v-2l1,1h1l1,-1v-3l-1,-1l-1,-2v-2l-1,-4l-4,-4l-2,-3l-1,-1l-4,-8v-2l-4,-4v-1l-1,-1v-1l-2,-2l-2,-1v-1l-2,-5l-7,-7l-1,-2h1v1v-1l-1,-1h1v1l2,2v1h1v-2l-3,-3l-1,-2h1v1h1v2h1v1v-1h1l1,2l1,1v-3l-1,-1l-4,-6l-1,-1l-1,-2l-2,-2v-3l-1,-2l1,-1v-5l-1,-1v-1l-1,-2v-5h1v-1l1,1v2l1,1v1h1v-1l1,-3v-1h1l2,-1l4,-4v-1l4,-2v-1h3l1,1h1l2,-1h1l2,-2h4l2,-3l2,1h1l1,-1h5l3,-2h1l1,-1l1,-2l1,-1v-3l1,-1v-1l3,-3v-1h-1v-2l-1,-2v-2l1,-1v-1l1,-1h1v-1l1,-1v-1l1,-1l2,4l1,1l1,2l1,1v1h1l-1,-1l1,-1l-1,-1v-1h1l1,1v-2h-1v-1l-2,-2h1v-2h-1l1,-1l1,2h1v-1h1l1,1h2l-1,-1v-1h2v-3l-1,2l-1,-1v-4l1,1v-1h1v-1l2,1h1v-1h-2v-2h2l1,1l1,-1l-2,-1v-3h2l1,-1v-1v2h1v-1l1,1v1v-1h1v-5h1v1l1,1v-1h1l1,1l1,-1v-2l1,-1l1,1h1l1,1l4,2v1l1,2l3,2v1l-1,2l1,2v-1h1v1v-1l-1,-1v-1h1v-1h1v-1h2l3,1l1,1v-1h1l2,2h1v-1h-1v-1h1v-1l-1,-1h1h-1l-2,-2l1,-1l1,-2v-1l1,-1v-2h2v-1h1v-1l-1,-1v-2h1l1,-2h2l-1,-2h2l1,1v-2h1v-1h1l1,-1v1l1,1h2l2,-1v1h1l1,-1h1l1,1v-1h1v-1l1,1l-1,-1v-3h1l-2,-2h-3l-1,-1h-1l-1,-1h3v1h1v-1h1l2,1l1,1l1,-1l3,3h1l1,1h4l2,1l1,1h4l1,1h1l2,1l2,-2h1l2,-2v2h-1v2l1,-1h1v1l2,2l1,-1v-1l-1,-1l2,-1h1v1l1,1h2v1l-3,4v1l-1,2h-2l-2,1v3l1,1v1l-1,2v1h-1l-1,3h-1v2l1,1l6,3v2l2,1h2v1l1,1h1v-1l1,1h1l1,1l2,1h1l2,2l1,2h2l2,1h1l2,1h1l1,1v1h1v2h2l4,2l1,1h1l3,-1l3,-3v-2l2,-3l1,-1v-2l1,-2l-1,-1l1,-2l1,-5v-2l-1,-3v-4h-1v-2l1,-2v-1l1,-1l-1,-3l1,-1h2v-1h-1v-1h-1v-2l1,-2v-1l1,1v-4l1,-3v-3h2v-1l1,-1h1v2l2,2v4l1,2l1,1Z"/>
<path class="sl" d="M520,738h-1v-2l1,-1v-1l1,-1v-2h-1l1,-1h1v3l-2,3v1ZM408,664v1h-1l-1,1h-1v-1l1,-1l2,-1h1l1,1h-1ZM384,641v1l1,-1v1l-1,1v1h2v1h-5v-1h1l-1,-1v-1l2,-2h1ZM332,623h1v1h-1l-1,-1l-2,1l-1,-1h1l1,-1l-1,-1l1,-1h1v2ZM333,620h1l1,-1l1,1l1,-1h1l1,1h1v2h-1l-3,3l-3,-2l-2,-2v-3l1,1ZM227,736l-2,-2v-2l1,2l1,1ZM409,810h3l1,1h-3l-1,1h-5l-2,-1v-1h3l2,-1h2ZM465,828l-1,1v-1ZM464,829h1h-2ZM488,695h-1v-1v1ZM487,694h-1l1,-1ZM505,720v1l1,1v1h-1v-1l-1,-1v-1ZM500,711h-1v-1ZM495,710h-1l1,-1ZM523,751l-1,2v-2ZM522,750v-2h1l-1,1ZM429,615v1h-1v-1l1,-1ZM430,611l-1,1v-1h-1h1ZM428,611v-1ZM465,678v2h-1v-1h-1h1v-1ZM382,621h-1l1,-2h1v-1v1ZM380,623h-2l1,-1h2v-1v1h-1ZM388,658h-1v-2l1,1ZM386,656v-1ZM384,656h-1ZM408,669v-1h1v1ZM380,641h-1l1,-1ZM349,620l-1,-2v-1h1v2ZM293,646l-1,1v-2h1ZM289,653h-1v-1h1ZM231,695v1h-1v-1l1,-1ZM464,844h3v1h2l2,1h5v-1h4v-1h5v8h1v1h-1v-1h-1v2l-1,1v2l1,2h-2v-1h-1h1v-1h-1v1h-1v-1l-1,-1v1h1h-1v2h-1v1h-1v1h-6v-1h1v-1v1l-1,-1h-1l-1,-1h-1v-1l-2,-2v-1l-1,-1l2,1v1l1,-1l-2,-1v-1v1v-1l-4,-4v-2h-1v-3h1ZM456,840l-1,-1h1l-1,-1v-1h1v-1h1v3ZM483,837l2,2v1h-1v1l-2,-2v-1h-1h1v-1ZM480,860l-1,1h-1v-1h1v-1ZM484,856v-1h1v1ZM480,859h-1v-1h1ZM462,842v1l-1,-1ZM485,841h1v1h-2l-1,-1h1ZM485,842l-1,1v-1ZM542,921v-1ZM153,607v1ZM106,619v-1ZM208,903l-1,-1h-1h1ZM631,762h-1h1h-1ZM279,628h-1ZM312,963l1,1h1h-1h1l1,1h2l1,1h2l1,1h2v1h2l1,1h1l1,1h1l-1,-1h-2l-1,-1h-2l-1,-1h-1l-1,-1h-2l-1,-1h-2l-1,-1h-1ZM334,972l-1,-1h1v1h2l1,1h2l1,1h1h-1l-1,-1h-2l-1,-1h-1ZM351,977h-2l-1,-1h-2l-1,-1h-2l-2,-1h-1l-1,-1h-2v-1h-2l-1,-1h-2v-1v1h1l-1,-1h-1l-1,-1h-1l-1,-1h-1l-2,-1h-1v-1h-1v-1h1h-1v-1h-1h3v-1h2l1,1h1v-1h4l1,1h1v-1h1l1,1h10v-1h-1v-1h4l1,1h5l5,1l2,1h3l2,1h4v-1h-1v-1h1l1,-1h4l1,1h1l3,1h1l1,1h1l2,1h-1l-1,1h6v-1l1,1h7l1,1l3,-1h3v-1h9v-1h3l1,1h2l2,1h2l2,1l1,-1v1l1,-1v-2h15v1h1l1,-1h4l2,1h9l1,1h9l1,1h3l1,-1h1v1h3v1h-1v1h-1h8l2,1v1h14v1h8v-1h2l1,1h1l1,1h10l2,1h1l1,1h1v1h1v1h1l1,1v-2h3l1,1h2l1,-1h1l1,1h6v1h2l2,1h1l1,-1v1l-1,1h-2l-1,1h1h-2v1h-2l-1,1l-1,-1h-5v1h1h-4v1h1h-3l1,-1h-1l-1,1v2l-1,-1h-3l-1,1h-2v1h-2v1h1h-1v1h-1v1h-1h2l-1,1h1h-1v1h2v-1h1l-1,1h-7v1h-4v1h-1h1h-1h1h-1v1h-1h1h-1h1l1,1h-1h5l-1,1h18v-1h1h-1h1h-1h12l1,-1h7l1,-1h5l4,-1h5v-1h7v-1h1h-1l1,-1h2l1,-1h3l2,-1h1h-1h5l-1,1h1l1,-1h3l1,-1v1h1h-1h1l1,-1h4v-1h-1h4l1,-1h4l1,-1h5l1,-1h3l1,-1v1h1v-1h3l1,-1v1v-1h1l-1,1h-3l-1,1h-3l-1,1h-3l-1,1h-3l-1,1h-4l-1,1h-4l-1,1h-3l-1,1h-5l-1,1h-4l-1,1h-5l-1,1h-5l-1,1h-7l-1,1h-6l-1,1h-8l-1,1h-11l-1,1h-15l-1,1h-44l-1,-1h-15l-1,-1h-10l-1,-1h-9l-1,-1h-7l-1,-1h-5l-1,-1h-6l-1,-1h-5l-1,-1h-5l-1,-1h-4l-1,-1h-3l-1,-1h-4l-1,-1h-4l-1,-1h-3l-1,-1h-3l-1,-1h-3l-1,-1h-3l-1,-1h-2l-1,-1h-3l-1,-1h-3l-1,-1h-2l-1,-1h-3l-1,-1h-2Z"/>
<path class="sp" d="M330,970h-1l-1,-1h-2l-1,-1h-2l-1,-1h-1l-1,-1h-2l-1,-1h-2l-1,-1h-1l-1,-1M341,974h-1l-1,-1h-2l-1,-1h-2M629,983h-1l-1,1h-3l-1,1h-3l-1,1h-3l-1,1h-3l-1,1h-4l-1,1h-4l-1,1h-3l-1,1h-5l-1,1h-4l-1,1h-5l-1,1h-5l-1,1h-7l-1,1h-6l-1,1h-8l-1,1h-11l-1,1h-15l-1,1h-44l-1,-1h-15l-1,-1h-10l-1,-1h-9l-1,-1h-7l-1,-1h-5l-1,-1h-6l-1,-1h-5l-1,-1h-5l-1,-1h-4l-1,-1h-3l-1,-1h-4l-1,-1h-4l-1,-1h-3l-1,-1h-3l-1,-1h-3l-1,-1h-3l-1,-1h-2l-1,-1h-3l-1,-1h-3l-1,-1h-2l-1,-1h-3l-1,-1h-2l-1,-1"/>
<path class="sl" d="M568,994h-1v-1h4l-1,1h-1ZM531,992h3l-1,1h-4l1,-1ZM530,993l-1,1h-2v-1h2ZM343,961h-2v-1h1ZM544,998h1ZM555,996h-1h2ZM530,988h1ZM527,989l-1,1v-1ZM547,985h-1ZM547,970v-1l1,1ZM542,967h-1v-1ZM336,962h1l1,1h-1ZM345,963h-1ZM343,964l-1,-1ZM348,961h-1l-1,-1h-1h1l1,1ZM326,961l-1,-1h1ZM323,963v1v-1h-1ZM323,963h-1ZM320,962h-1ZM347,976h1ZM337,973v-1h-1h1ZM631,983h-1h1v-1ZM630,983h1v-1h1h-1v1ZM602,988v1ZM611,987v-1h1h-1ZM600,989h1ZM598,989h1ZM600,989h-1ZM598,989h1ZM606,988h-1h1v-1h1ZM603,988l-1,1v-1ZM594,990h-1ZM571,994h1h-1h1ZM597,989v1h-1v-1h2ZM554,997h1v-1v1Z"/>
<path class="sw" d="M123,183v-1h1v-1v1h-1ZM124,183v-1ZM122,183v1ZM128,176v-1h1h-1Z"/>
<path class="sh" d="M607,476v1ZM394,440l-1,1v-1h1v-1l1,1ZM511,459v-1h1ZM567,464h-1v-1h-1l1,-1h1v1Z"/>
<path class="sw" d="M316,98l-1,1h-1v1h-1v1h-1v1h-1v1h-1l-2,2v1h-1l-2,1v1h-1v-1h1h-1l-2,1l-1,1h1v-1h1v1h-1v1h-2l-1,1h-1v1h-2l-1,1h-3l-1,1h-1l-1,1h-3v1l-1,1h-1l-1,1h-1l-2,1h-5l-1,-1h4v-1h3l1,-1h1l2,-2h2l1,-1h2l2,-2h1l1,-1h1l2,-1v-1h2l2,-1l1,-1h1v-1h1l2,-2h1l1,-1h1v-1h1l1,-1h1v-1l1,-1h1l1,-1h1l1,1ZM297,110l1,-1h-1l-1,1h-1l-1,1h-1h2l1,-1ZM742,63h1h-1v-1v1v-1h-2v-1v1h1h-1v-1h-2v-1h-1l-1,-1h-1v-1h-2v-1h-2v-1h-2v-1h-1h1v1h2v1v-1l1,1h1l2,2h1l1,1h1l1,1h1l1,1Z"/>
<path class="sr" d="M731,56l1,1h1l2,2h1l1,1h1l1,1h1l2,2"/>
<path class="sw" d="M700,42h-1h2v1h2l1,1h2v1l-1,-1v1h2v1h2l1,1h1l1,1h1h-2v-1l-2,-1h-2v-1h-1l1,1h1l1,1h2v1h-1v-1h-2v-1h-2v-1h-1l-1,-1h-1h1h-2v-1h-1v1h1h-1h1v1v-1l1,1h-1v-1h-2v-1h-1v-1h-2v-1h-1v-1h-1h1v1h2v1h2l1,1v-1h-2v-1h-1h1v1ZM149,167l-1,1h-1v1h-1v1h-1v-1l-1,-1h1v-1h3v-1v1l1,-1h1v1ZM707,75v1h1v1h-4l2,-2ZM714,84v1l1,1l-1,-1h-1l-1,-1h-2l1,-1l1,1h1ZM888,186h1l-2,-2ZM194,136h-1l-1,1v-4h2v-1h1v-1h1l2,-2h2v-1h1v-3h1v1v-1h1h-1v1l-1,2l-1,1h-2v1h-1l-2,2v1h-1v2ZM725,54h1h-2v-1h-1h2ZM279,243l-2,2h-2v-1l1,1v-2h-1l-1,1h-1h1v-1h2v2l1,-1h1v-1h-2l1,-1v1l1,-1h1v-1h1l1,1h-1v1l-1,1ZM262,119l-2,2h-1l-2,2v1h-1v-1h1l2,-2v-1l1,-1h1l1,-1ZM228,124l1,-1h1v-1h2l-1,1h1l-1,1h-1v1h-2ZM392,162v1l-1,1l-2,1v1l-2,-2l1,-1v-2l1,-1h1l1,1h1l1,1ZM149,408h-1l-1,-1v-2h-1l-1,-1v-3h1v1l1,1v3h2l-1,1h1ZM194,213v1h-1v1l-1,-1h-2v-2h1v-2h2l1,1v1ZM316,39v-1h1h-1ZM223,95h3l-1,1h-1v1h-1v-1ZM176,148l-1,-1h1v-1l2,-2h1l-1,1v1h-1v1ZM318,138v-1l1,-1h1l2,-2h1v1h1v1h-2l-1,1l-2,1ZM286,259l-1,1l-2,1v-1l-1,-1v-1l2,-2h1v1h1h-1v2ZM713,85v1h1v1h-1v-1l-1,-1ZM652,48h1h-2ZM747,65l1,1h1h-2ZM126,256l1,-1v-1h3v-1v1h-1v1l-1,1h-1ZM531,41h-1ZM315,39h1l1,-1l-1,1ZM331,32h1ZM333,32v-1ZM168,175v-1h-2v1v-1h1v-1h1v1ZM257,274h-2v2h-1v-1l-1,-1v-2h-1h1v-1l1,-1v-1h1v1h-1v3h1v1v-1h2ZM257,267h1h-2v-1h1ZM256,267l-1,1h-1v-1h1v-1ZM245,265l1,-1h1v1l-1,1v-1h-1v1ZM127,246v1l-1,1h-1l1,-1h-1v-1h1l1,-1l1,1ZM218,136l-1,1h-2v1h-1v-1h1l2,-2h1l-1,1h1v-1h1ZM668,829l-1,1h-1v-1h1ZM639,33l-1,1h-1v-1h1ZM394,24h2l1,-1h-1h2v-1h2l1,-1l-1,1h-1h1l1,1l2,-1h4v-1v1h-2l-1,1h-5v1h-1v-1h1h-2l-1,1h-1v1ZM497,32h-1ZM153,205h-1v-1h2v1ZM149,356l-1,1v-2h1v1h1ZM283,246l-1,1h-1v-1h1v-2h1h-1v-1h1v2ZM345,36h-1h1l1,-1h1h-1h1v-1h1h-1v1h-1ZM678,74h-1h1v1l-1,-1h-1h1h-1h1ZM694,42v-1l1,1h1h-1ZM746,66h1h-1h1h-1v-1h-1ZM257,266v-1h1v1ZM317,144v-1h1v-1h1v1h-1v1ZM106,247v-1h1v1ZM116,250v1h-1v1l-1,1v-1l3,-3v1ZM216,106h-1v1h-1v-1h1v-1h1ZM207,104l1,-1v-1h1l-1,1ZM234,93h-1ZM624,861l-1,1v1v-1l1,-2ZM478,30v1h-1v-1ZM122,269h-1v1h-1v-1h1l1,-1v-1h-1h1v-1v2h1v1ZM227,88h-1h1v-1v1v-1ZM221,89h-1h1v-1ZM525,38v1h-1v-1ZM529,40h1v1h-1h1h-1Z"/>
<path class="sw" d="M275,257v-1h1v1ZM239,267h-1v1h-1v-1h1ZM270,256v-1h-1v1h-2v-1h3ZM872,166v1h1h-1v-1h-1v-1v1ZM884,180l-2,-2h1v1ZM248,264v1l-1,-1v1v-1ZM247,262h1v-1h1v1h-1ZM274,233h-1v-1l1,-1v1ZM247,264h-1v-1h1v1v-1h1ZM244,266v1h-1v-1l1,-1ZM243,268l-1,-1v-1h1v1ZM899,199v1ZM683,35h-1h1l1,1h1h-1ZM692,40h-2l-1,-1l1,1h1ZM692,40l1,1h1h-2ZM711,47h-1v-1h-1h1v1h2v1h1h-1v-1ZM151,219h-1v-1v1ZM864,157v1v-1h-1v-1v1ZM646,54h-1ZM673,70v1h-1v-1ZM678,72h-1ZM698,79h-1v-1h-1h2ZM695,75h-1ZM691,74h1ZM696,77h1h-3l1,-1v1ZM226,131h-2v-2h1l1,1ZM112,252v1h-1l1,-1h-1v-1h2ZM779,86v1h1v1h1l1,1h1v1h1l1,1l-1,-1h-1l-2,-2h-1l-1,-1h-1v-1h-1l-1,-1l-3,-1v-1v1h1l1,1h1v1h2v1h1l-1,-1ZM747,72l-1,-1h-1l-1,-1h-2v-1h-2l-1,-1h1l1,1h1l1,1h1l1,1h1ZM826,121l-1,-1h-1v-1h-1v-1l2,2v1ZM834,128l-1,-1ZM832,126l1,1l-1,-1v1Z"/>
<path class="sr" d="M833,127l1,1M832,126v1"/>
<path class="sw" d="M836,130h-1v-1h-1l-1,-1l1,1h1v1ZM707,63l-1,-1h-1h1ZM324,660h-1v2h-1v2h-1v-1h-1v-1l1,-1v-1l1,-1v1h1v-1ZM174,226h-1v1h-1v-1h1v-1h1v-1v1ZM172,225v1h-1v-1ZM136,171h-1v1v-1h1v-1ZM98,253h-1v-1h1v-1v1ZM99,252l-1,1v-1ZM147,146l1,-1v-1h1l3,-3v1l-2,1h-1l-1,2h-1v1l-4,4v-1h1l2,-2ZM153,140h1l1,-1v-1l2,-2v1l-1,1l1,-1h-1h1v-1h1h-1l-1,1v1v-1h1h-1v1l-1,1h-1v1ZM153,140l1,-1h1h-1ZM175,141h1h-1v1h-1v1h-1v1l-1,-1v1h-1v-1h-1l1,-1h-1v1v-1h-2v-1h1h-1v1h-2l-3,3v-1v1h-1l-1,1v1h-1l-4,4v-1h1v-1l2,-2v-1h1v-1h2v-1l1,-1h1v-1h1l1,-1h1v-1h3v1h1v1h1v-1v2l1,-1h1v-1ZM194,136h-1l-1,1v-4h2v-1h1v-1h1l2,-2h2v-1h1v-3h1v1v-1h1h-1v1l-1,2l-1,1h-2v1h-1l-2,2v1h-1v2ZM110,494h-2l-1,-1v-1l1,1v-2h-1l-1,-1v-1h1v1h1v1l1,1v1ZM621,863v1h-1l1,-1v-2h1h-1v1ZM619,864v1v-1h-1h1v-1h1h-1ZM747,72l-1,-1h-1l-1,-1h-2v-1h-2l-1,-1h1l1,1h1l1,1h1l1,1h1ZM826,121l-1,-1h-1v-1h-1v-1l2,2v1ZM283,107h1l-1,1h-1l-2,2v-1l2,-1v-2h1v-1l1,-1h1l2,-2v-1l1,-1h1l3,-3v-1h1v-1l1,-1h-3l-1,1h-1v2l-2,2h-1h1l1,-1v-1h1h-1l-1,1v-1h1v-1h1l-1,-1h1l2,-2h1l-1,1l1,-1h2v1h1h-1v1h-1v1l-2,2v1h-1v1l-2,1l-1,1v1l-1,1h-1h1v-1l-1,1h-1v2h-1ZM343,40h1h-2ZM345,39h-3v-1h1v1h3ZM346,37h-1v-1h5l-1,1v-1h-3ZM807,105v1l-1,-1v-1h-1l-1,-1l2,2ZM878,174v1v-1v1v-1v1ZM708,45h-1l-1,-1h-1h1v1h1Z"/>
<path class="sr" d="M707,45h1"/>
<path class="sw" d="M868,163l1,1h-1ZM864,158v-1v1h1ZM127,173v1h-1ZM354,65l1,-1v-1h-1h1l-1,-1h1v-1h-1h2v-1v2h-1h1v1h-1h1l2,-2v1h-1v1h1v-1h1v1h-1v1l1,-1h1v-1h1v-1v1h-1v1l-1,1h-3v-1h3v-1l-1,1h-2v1h-1v1h-1v1h-1h1h-1v1h-1l-1,1v-1h-4l-1,1h-1h1v-1h2l1,-1l1,1h2v-1h1v-1h-1h1h-1h1ZM445,112l-1,1v-1ZM587,58h1v1h-1l-1,-1ZM398,229h1v1l-2,1v1h-1v-1h1l1,-1ZM727,64l1,1h1v1v-1h-1l-1,-1h-1ZM711,81h-1h1h-3v-1h1v1h1ZM676,71h-1v-1ZM703,73h1v-1v2h-1ZM711,73v-1h1l1,1h-1ZM678,71l1,1h-1ZM671,69h-1l-1,-1h1ZM224,124l-1,1v-1ZM138,234l-1,1v-1v1l1,-1v-1h1v-1ZM136,234h1l-2,2v-1ZM91,241v-1h1v-1v1ZM136,246v-1h1ZM121,245h1ZM105,227h1l-1,1v1v-1ZM187,116h-1l-1,1v1h-2v1v-1h1l2,-2ZM197,104h1v-1h1l-1,1h-1l-1,1h1ZM287,720l-2,-2v-2h2v2l1,1h-1ZM327,712h-1l-1,-1v-1h2l3,-3h1v1l-1,1l1,1h1v1h-1v1h-1l-1,1ZM393,786v-1l1,-1v-1h-1l-1,-1v-1h-2v-2h-1v-1l-1,-1h1l1,1h3v1l1,1v1l1,2h1l-1,2h1l-1,1v-1h-1ZM406,782v1h-1v-5h-1v-4h-2v-1l-1,-1v-1h-1h1l2,2h1l3,3v1l1,2v1ZM277,763l1,1h-1v-1h-1v-2h-1l1,1v1l-1,1v-3h-1l-1,1l-1,-2h3l1,-1h2v1h-1v-1l-1,1v1l1,1ZM421,777l-1,1v-1h-1l-1,-1v-1l1,-1l1,-2h1v4ZM403,765h-4v-1h1l2,-1h1ZM404,763l-1,-1h-3l-1,-1h-1v1h-1v-2l-1,-2l1,-1l-1,-1v-1h-1v-1h1l1,-1l2,1l1,1h2v2h1h-1v2l1,2l1,1h1v1Z"/>
<path class="sb" d="M828,122v2M662,35l6,3h3l8,4l3,2l10,5l3,1l8,4l2,2l2,1l3,1l4,2l2,2l6,3l2,2l6,3l1,1h1l-1,-1l1,1h1v-1h-1h1l1,1h2v1h2l1,1h1l1,1h2v1h1l1,1h1h-1v-1l-2,-2h-1v-1h2v1h1l1,1h1l1,1h2v1h2l1,1h1l1,1h1l2,2h1l1,1l4,2l1,1h1l1,1h1l1,1h2v1h2l1,1h1v1h1M170,390v-3h1v-1l1,-1l-1,-1v-1l-1,-1v-2l1,-1v-1l-1,-1v-1h-1v-2h-1v1v-1l-1,-1v-5l-2,-2v-1l-1,-1v-3l-1,-1v-1l-1,-1v-2h1l-1,-1l-2,-1v-1h-1l-1,-2h-1v-2h1v-2h2l1,1l2,-2v-1h1v-2h-1v-2h-1v-1h1v-1h1h-1v-1l-1,-1v-1h-1l-1,1h-1v1h-1l-2,-1l-1,-3v-1h1v-1l1,-1v-1h-1v-1v1h-1v-4l-1,-1v-1M155,392v1l1,1h2v1h1v1h1v-4h1l1,-1v1l1,-1h1v1h1v1h1v-1h1l1,-1h1l1,-1v1l-2,2v6l1,1v1l-1,1l-1,2v6h-1v1l-1,-1h-1v1l-1,1h-1l-1,1h-2v2h-2v-1l-1,1v1h-1v3l2,2l-1,1v1l-1,-1h-1v-1h-2l-1,1h-1v1l-2,2h-2v1h-1M147,331h-1l-1,1h-1v1l-1,1v1h-1v2l-1,-1v1h-1v1l-1,2v1M113,426v-2h1v-3h1l1,-1l3,-6l1,-1v-8h-1v-5h1v-7l-1,-2l-1,-1v-3l-1,-1l1,-1v-3h2v-2l1,-2v-1l2,-2v-1h1v-1l-1,1l-1,-1v-3l1,-1v-1l-2,-4v-7l-1,-1v-1h1l1,-1h1v-3l1,-1v-1l1,-2l1,-1v-1l1,-1v1h4v-1h1v-2h3v-2h3l1,1h-1h1v-1h1v3l-1,1v3h4l-1,1v4l-1,1l-1,2v1h-1v4l-2,4h1l1,-1h1l2,-2v-1h1l1,-1h1l1,1v1h1v1v-1h2v-1l1,-1h1v-1l1,-1h1v1h2v1l1,2v2l2,2v2l-1,2v8h1l1,1v2h1v3h-1v1l-1,2v4l-2,2h-1v1h-1v-1l-1,-1l-1,1h-1l-1,-1l-1,1h-2v-1h-2l-1,1h-1l-2,2v1l-2,2v1h-2v8l1,1v7M185,333v-1h-3v-1h-1l-1,-1v-1h-1v-1v1v-5h1v-1h1v-1l-1,-1h-2v-1h-1v1h-1v-1h-1v-1l-1,-1v-1l-1,1h-1l-2,2v1h-2l-1,1v-1h-1v1h-1v1h-1l-1,-2v1l-1,1v-2h-1v1l-2,2v-1h-1v-1h-1v-1l-3,3h-1l-1,-1v1h-1v2h-1v1l1,1v1l-1,1v2l-1,1h1v1h-2v-1l-1,1l-1,-1h1v-4l-2,1l-1,1h-3v-1h1v-1h-1v-2h1v-1h-4v-1l1,-1v-1l1,-1v-1l2,-2v-1h-1v-1h-2l1,-1v-5l2,-2h-4l-1,1h-1v1h-1v-1l2,-2v-2h-1l1,-1l1,-2h1v-2l1,-1h1v-1h1v-1l1,-1h1v-1h1v-1h1v-2h1v-1l1,-1v-2l1,-1v-1l1,-1v-2l1,-1v-2h-1v1h-1v-1h1v-7h-1l-2,2M331,195v-1h1l2,-1v-1h2v-1h3l1,-1h1v-1h3v-1l1,-1h1v-1h1l1,-1v-1h2v-1h1v2h3v1l2,-1v1h1l1,-1v-2l-1,-1h6v-1h2v-1h1v-1h3v-1l1,-1v-1h1v-1v1h2v2h1M340,211v-1l1,-1h1l2,-2h7l1,-1v-1h1M110,214v2h1M320,131l-1,1l-2,1l-1,2h-1l-1,1v1h-1v1h-1l-1,1v1h-2l-1,1v2l1,1v-1h6v1h1v-1h1l1,-1h5v2h1v1h1v2h1v1l-1,1h1l-2,2h-3v-1h-6l-1,1h-2l-1,1h-4l-2,2h-1v1h-1v1h-2l-1,1h-1v1h-6l-1,1h-1l-1,1h-1v1h-1l-1,1h-1v-1h-3l-1,-1v-1h-3l-5,5v2l1,1v1h-2v1h-2l-1,1h-2v1h-1l-2,2h-1v1h-2l-1,1h-3l-1,1h-13v1h-3l-4,2h-1l-1,1h-1l-1,1v-1h-2l1,-1h-5v-1l-1,-1h-2l-1,-1h-1v-2h-1l-1,-1h-2l-2,-1l-1,1h-2l-1,-1h-3l-2,-1h-5l1,-1v-3l1,-2l1,-1v-2l1,-1h-2v-3h-1v-2h-2v-1l-1,1v-1h-3v-1h-1v-1l1,-1v-1h1l2,-2h1v-1l1,-1h1l1,-1v-1l1,-1v-1l1,-1v-1l1,-1v-1h1v-2l-1,1v-2h-1v-2h1v-1h-1l1,-1v-1h1v-1h1v-1"/>
<path class="sb" d="M374,180v-3h2v-1h2v-1h1v-1l1,-1v-2l1,-2v-6h3l1,-1h1v-1l1,-1l1,1h2l1,1h3v-1l1,-1v-1h2v-1h1v-1h1v-1l1,-1h1v-2l2,-2v-1h1v-2h1v-1h2l1,-1v-3h1v-1h-6v1h-4l-1,1h-1l-1,1h-2l-2,1h-2v-1h-3v-3l1,-1h-1v-2h1l-1,-1h-2l-1,-2h-1v-1h-3v-1h-1h1h-4l-1,-1h-1v-2l1,-1l-1,-1v-1h1v-2l-1,-1v-2h1h-1l1,-1h-1l1,-1l-1,-1v-1h1h-1l1,-1v-1h-1h1l-1,-1v-2h-1l-1,-1h-3l-1,-1h-1v-1h-11l-1,1h-4l-4,2l-1,1h2l1,1h-1v2h-1v1l-2,1h-1l-2,1l-4,4h-1v1h-1v1h-1l-1,1v1l-1,1h-2l-6,3h-1l-1,-1h-2v-1h-1v-1h-6v-1h-1v-1h-3l-2,1h-1l-1,1h-2l-1,1v1h-4l-1,1h-5l-2,1h-1v-1h-1l-1,1v-1h-4l-1,-1l-1,1v-1l-1,-1v-1l1,-1l-1,-1h-2v-2h-4v-1h-2v1h-4v1h-4v-1h-1v-1h-1v-1h1v-2h1v-1l1,-1v-1h-2v-1h-1v-1h-2v-1h-1l-1,-1l-1,1h-1l-2,1l-1,1h-1l-1,1h-1v1h-1v1h-1v1l-1,1h1l-3,3h-1v1h-3v1h-1v-1h-2v-1h-5v-2h1v-1h1l-1,-1h-2v-1h-1v-1l-1,1h-2l-1,1h-2v1h-2l-1,1h-2l-1,1h-1l-1,1h-1v1h-2l-1,1v-1v1h-1v-1l-1,1h-1v1h-3v1v-1M186,111h-1v1l1,-1h-1v1l-1,1h-1v1h-1h1v-1h1h-1v1l3,-3h1l2,-2h1v-1h1v-1h1v-1h1l1,-1h1v-1l1,-1h1l1,-1h1v-1v1v-1h1l2,-2h1v-1h1v-1h1l1,-1v1v-1h2v-1v1l1,-1h1h-1h1h-1h1l1,-1h2l1,-1h2v-1h1l1,-1h1v1h-1h2l-2,2l-2,1h-1v1h-1v1h-1l-1,1h1v-1v1l1,-1v1h-1l-1,1h1v-1h1l-1,1h1h-1v1h-2v1h-1v1l1,-1h1l-1,1h1v-1h1l1,-1h2v-1h2l1,-1h1l1,-1l-2,2h-1v1h-1v1l-2,2v1l-2,2l-2,1l-1,2l-3,3l-1,2l-4,4h1v-1h1l1,-1h1v-1h1v1h-1h1h-1v1h-1h1l-2,2h1v-1l1,1h1v-1h3v1l-3,3h1v1l-1,1v1h-1v1h1v1h1v-1h1l1,-1v1h-1v1l-1,1v1h-1l-1,1h-1v1l-1,1h-1l-1,1h-2l-1,1h-1l-5,5v1h-1l-1,1h-1v1h-1v-1h-2l-1,-1l-1,1l-3,2l-6,6h-1v2h-1v1h-2v-1h-1l-1,1h-3l-1,1h-1v1h1l-3,3v1h-1l-1,1l-1,2v1h-1v1h-1v1l-1,1v-1v1h-1v1h-1l-3,3v1h-1M95,256v1l2,-2h1v6h1v1l-1,1v1h2v1l-1,1v3h1v1l1,-1v1h-1v2h1v3l1,-1v1h1l1,-1v1h1v1h3M109,281l1,-2h1v-1l4,-4h1v-1h1v1h1h-1v1h2v1h1l1,-1v1l1,1l-1,1M108,218l1,-1h1v-1h2l-1,1h-1v1l-1,2v1l-1,1v3h-1v1h-1v2h-1v1l-1,1v2h-1v2l-1,1v1h-1v2h-1v1h-1v-1l1,-1h-1v1h-1v2l-1,1v1l-1,1v1l-1,1v1l-1,1h1v-1v10h-1l-1,1v1l-3,3v1l-1,1v1h-1v1l-1,1v2l1,-1v7h1v2h1l-1,1l1,1h2v1l1,-1h1v6h1l1,-1v2h1v1h1v1l2,-1l-1,1h1v1l1,-1h1v1h1v-1l1,-1v-1l1,-1v-2l2,-4l1,-1v-1l1,-1h1l1,-1v2l-1,1l-1,2v2h-1v4l1,-1v1h1v1h1l2,-2v1h3v1l1,-1l1,1v-1h2v-2l1,-1v-1h-1v-2h1v-1h4v-1h1v-1l1,-1h1l1,-1v-1h1v-1h1l2,-1h1v-1h1v-1h1l1,-1h1l1,-1v1h1v1h2v-1l2,-1h1v-1h1v2l-2,2h1l1,-1v3l-2,1l-1,1v1l1,-1h1v1h2v3h-1v1h-1l-2,2v3l-1,1v-2h-3l-1,1h-1v1h-1v1l-2,1l-1,1h-1l-1,1v1l-1,1v2h-1v2h-1v1l-1,1h-1l-1,1v3l-1,2l-3,3l-1,2v1l-1,1v-1h-1l-1,-1v1h-1v-1l-1,2v2l-1,2v1l-1,1h-1v2l-1,1v1l-1,2v1h-1v1l-1,1v-1h-1v1"/>
<path class="sb" d="M113,204v4h-1v1l-2,2v1h1l-1,1v2l-2,2v1l-3,3h-2v1h-1v-1h-1v-1h-1l-1,1v1h-1v2h-1v2h-1v1h-1v2l-2,2v2h-1v2l-1,1v3h-1v1l-1,1h-1l-1,1l-2,4v1h-1v1h-1v1l-2,2v1h-1v1l-3,3l-2,4l-6,6v1l-2,2v1h-1l-1,1h-1l1,-1v-1l-2,2l-1,2l-1,1v1l-1,1v1l-1,1v3l-1,1v1l-1,1v1h-1v3l-1,1v2l-1,1v3h-1v2h-1v1l-1,1v-1l1,-1l-1,1h-1v1v-1h-1v-1v1l-1,2h-1v1M93,322v-1l1,-2v-3h1v-1l1,-1v-1h-1l1,-2v-3l2,-2v-2h-1v-3l1,-2v1h1v-1l1,-2h1v1l1,-1v-2h-1v-4h1v-1l2,-2v-2h1v3h1v-1v3h1v-1h1v2l-1,1v2l-1,1v1l1,1h4v1h4v2h-1v1l-2,2v1h-1v1h-1v1v-1l-1,1h-1v1h-1l-1,2v1l-1,2v1h1v1l-1,1h1l1,-1v-1l1,-1v-1h1v-2l1,1v-1v4h-1v5l-1,1v1l-1,3v1l-1,3v1l-1,1l-1,-1v1h-1v4M136,167l2,-2h1v-1h2l-1,1v2l5,-5h1v1l-1,1l1,1l1,-1l1,1l1,-1v1h2v1h1v1h-1v1l1,1l-1,1v1h-1l-2,2h-2l-2,2h-1l-2,2h-1l-1,1v-1h-1l-4,4h-1h1h-1l-1,1v-1l1,-1v-1l-1,1h-1v1h-1l-2,2h-1v1h-1v1l-2,2M125,181h-1l-1,1h-1h1v-1h-1v1h-1l-1,1v1l-1,1h1v1h1v-1h1l-1,1v1h-1h1v1v-1h3l-2,2v1h-1v1l-1,1v1v-1h1v2h-1l-1,1v1l-1,1v1h-1v1l-1,1v1h-1v1h-1M149,144l1,-1l-4,4v1h-1v1h-1v1h-1v1h-1v1h-1v1h-1v1l-3,3h1v-1v1h1v-1h1l-2,2v1l-1,1h-1v1l-1,1l1,-1l-1,1v1l-1,1h-1l-2,2v1h-1v1l-2,2v1l-1,1h-1v1h1v1h-1v1l-2,2h1v-1h1v-1h1v-1h1v-1h1v-1h1v-1h2v-1h1v-1h1v-1v1v-1h2v-1v1h-1v1h-1l-3,3v1v-1v1l-1,1v1l1,-2v1v-1h1v-1h1l-1,1v1h-1v2l-1,1h1h-1h1l-1,1h-1v1h-1v1h-2v1h-1v-1v1h-1v-1h1v-1l1,-1h1v-1l1,-1v-1v1h-1l-1,1v-1v1h-1v1h-1l-1,1v1h-1v1h-1v1h-1v1h-1v1h-1v1v-1h-1v1l-2,1v1l-1,1h1l-2,2v1l-1,1h-1v2h-1v1h-1v1l-2,2h-1l-1,2v1M132,162h-1v1h-1h1l1,-1v-1h1v-1v1l-1,1h-1v1h-1v1l-1,1v1h-1v1h-1v1h-1v1h-1v1l-1,1v1h-1v1h-1l-1,2l-4,4v1l-1,1v1h-1v1l-2,2v1h-1v1l-1,1v1l-1,1l-1,2v1v-1v2h-1v1l-3,3v1M94,209l-1,1v1h-1v2h-1l1,-1v1v-1h1v-1l2,-2v-1h1v-1h1l1,-1v-1h1v-1l3,-3v-1l1,-1h1v-1h1v-1v4h-1v1l1,-1h1v-1h1h-1v1h1v-1l1,-1v-1h1v1v-1h1v-1l1,-1h1v-1l2,-2h1l-1,1v1l-1,1h-1v1h1v-1v1h-1l-1,2l-2,2v1l-2,2v1l2,-2h1l3,-3v2h-1h1l1,-1h1l-2,2v1h-1l-1,1v-1h-2v1h-2v1h-1v1h-1l-2,2v1h-1v1l-1,1v1l-1,1v1h-1v1h-1v1l-3,3v1h-1v1l-1,1v1h-2l-1,1v1l-1,1v1l-2,2h-1v1l-1,1v1h-1v1h-1v1l-1,1l-1,3l-1,1h-1v1v-1h-1l-1,1v1h-1v1h-1l-1,2h-1v1l-1,2h-1v2l-2,2v1h-1v1h-1v1h-1v1h-1v-2l1,-1v-2"/>
<circle class="w2" cx="566" cy="463" r="10"/>
<circle class="c2" cx="566" cy="463" r="9"/>
<circle class="w2" cx="608" cy="476" r="9"/>
<circle class="c2" cx="608" cy="476" r="8"/>
<circle class="w2" cx="509" cy="459" r="8"/>
<circle class="c2" cx="509" cy="459" r="7"/>
<circle class="w2" cx="394" cy="440" r="9"/>
<circle class="c2" cx="394" cy="440" r="8"/>
<circle class="w2" cx="538" cy="491" r="9"/>
<circle class="c2" cx="538" cy="491" r="8"/>
<circle class="w2" cx="499" cy="449" r="9"/>
<circle class="c2" cx="499" cy="449" r="8"/>
<circle class="w2" cx="537" cy="515" r="8"/>
<circle class="c2" cx="537" cy="515" r="7"/>
<circle class="w2" cx="527" cy="477" r="8"/>
<circle class="c2" cx="527" cy="477" r="7"/>
<circle class="w2" cx="557" cy="473" r="8"/>
<circle class="c2" cx="557" cy="473" r="7"/>
<circle class="w2" cx="489" cy="465" r="8"/>
<circle class="c2" cx="489" cy="465" r="7"/>
<circle class="w2" cx="414" cy="438" r="8"/>
<circle class="c2" cx="414" cy="438" r="7"/>
<path class="sg" d="M 250.5682 932.5510 A 249.7500 11.6492, 0, 0 0, 748.4318 932.5510"/>
<path class="sg" d="M 67.0775 749.5221 A 432.5797 20.1769, 0, 0 0, 931.9225 749.5221"/>
<path class="sg" d="M 0.0000 499.5000 A 499.5000 23.2983, 0, 0 0, 999.0000 499.5000"/>
<path class="sg" d="M 67.0775 249.4779 A 432.5797 20.1769, 0, 1 0, 931.9225 249.4779"/>
<path class="sg" d="M 250.5682 66.4490 A 249.7500 11.6492, 0, 1 0, 748.4318 66.4490"/>
<path class="sg" d="M 512.6474 998.8269 A 245.2795 499.5000, -1.50826141, 0 0, 486.3526 0.1731"/>
<path class="sg" d="M 538.8431 997.4482 A 429.6712 499.5000, -4.51757860, 0 0, 460.1569 1.5518"/>
<path class="sg" d="M 988.5577 601.1015 A 498.9329 499.5000, -78.26377455, 0 0, 10.4423 397.8985"/>
<path class="sg" d="M 458.3678 997.3036 A 434.5060 499.5000, 4.72346745, 0 1, 540.6322 1.6964"/>
<path class="sg" d="M 485.7512 998.8107 A 253.6535 499.5000, 1.57727238, 0 1, 513.2488 0.1893"/>
<path class="sg" d="M 499.2742 998.9999 A 4.8347 499.5000, 0.02589655, 0 1, 499.7258 0.0001"/>
<text x="0" y="0" class="fs" transform="translate(883,284) rotate(69)">150W</text>
<text x="0" y="0" class="ft" transform="translate(883,284) rotate(69)">150W</text>
<text x="0" y="0" class="fs" transform="translate(112,283) rotate(111)">90E</text>
<text x="0" y="0" class="ft" transform="translate(112,283) rotate(111)">90E</text>
<text x="0" y="0" class="fs" transform="translate(273,291) rotate(102)">120E</text>
<text x="0" y="0" class="ft" transform="translate(273,291) rotate(102)">120E</text>
<text x="0" y="0" class="fs" transform="translate(495,294) rotate(90)">150E</text>
<text x="0" y="0" class="ft" transform="translate(495,294) rotate(90)">150E</text>
<text x="0" y="0" class="fs" transform="translate(718,291) rotate(77)">180E</text>
<text x="0" y="0" class="ft" transform="translate(718,291) rotate(77)">180E</text>
<text x="0" y="0" class="fs" transform="translate(624,940) rotate(-3)">60S</text>
<text x="0" y="0" class="ft" transform="translate(624,940) rotate(-3)">60S</text>
<text x="0" y="0" class="fs" transform="translate(713,763) rotate(-1)">30S</text>
<text x="0" y="0" class="ft" transform="translate(713,763) rotate(-1)">30S</text>
<text x="0" y="0" class="fs" transform="translate(745,515) rotate(-1)">0N</text>
<text x="0" y="0" class="ft" transform="translate(745,515) rotate(-1)">0N</text>
<text x="0" y="0" class="fs" transform="translate(711,264) rotate(-1)">30N</text>
<text x="0" y="0" class="ft" transform="translate(711,264) rotate(-1)">30N</text>
<text x="0" y="0" class="fs" transform="translate(620,75) rotate(0)">60N</text>
<text x="0" y="0" class="ft" transform="translate(620,75) rotate(0)">60N</text>
<path class="tb" d="M127,998h-2l-1,-1h-2l-1,-1h-2l-1,-1h-2v-1h-3v-1h-2l-1,-1h-2v-1h-2l-1,-1h-2v-1h-2v-1h-2l-1,-1h-2v-1h-2v-1h-2v-1h-2v-1h-2v-1h-2v-1h-2v-1h-2v-1h-2v-1h-1l-1,-1h-1v-1h-2v-1h-2v-1h-1v-1h-2v-1h-1l-1,-1h-1v-1h-2v-1h-1v-1h-2v-1h-1v-1h-1l-1,-1h-1v-1h-1v-1h-1l-1,-1h-1v-1h-1v-1h-1v-1h-2v-1h-1v-1h-1v-1h-1v-1h-1l-2,-2h-1v-1h-1v-1h-1v-1h-1v-1h-1v-1h-1v-1h-1v-1h-1v-1h-1v-1h-1v-1h-1v-1h-1v-1h-1v-2h-1v-1h-1v-1h-1v-1h-1v-1l-1,-1v-1h-1v-1h-1v-1l-1,-1v-1h-1v-1l-1,-1v-1h-1v-1l-1,-1v-1h-1v-2h-1v-2h-1v-1l-1,-1v-1l-1,-1v-1l-1,-1v-2h-1v-2h-1v-3h-1v-2h-1v-4h-1v-3h-1v-5h-1v-6l-1,-1v-17h1v-7h1v-4l1,-1v-3h1v-3h1v-3h1v-2l1,-1v-2h1v-2h1v-2h1v-2h1v-2h1v-2h1v-2h1v-1h1v-2h1v-1h1v-2h1v-1h1v-1l1,-1v-1h1v-1h1v-1l1,-1v-1h1v-1h1v-1h1v-1h1v-1h1v-1h1v-2h1v-1h1v-1h1v-1h1v-1h1l3,-3h1v-1h1v-1h1v-1h1v-1h1v-1h1v-1h1l1,-1h1v-1h1v-1h1v-1h1l1,-1h1v-1h1v-1h2v-1h1v-1h1v-1h2v-1h1v-1h2v-1h1v-1h2v-1h1l1,-1h1v-1h2v-1h1l1,-1h1v-1h2v-1h2v-1h2v-1h1l1,-1h1l1,-1h1l1,-1h1l1,-1h1l1,-1h2v-1h2v-1h2v-1h2l1,-1h2v-1h2v-1h2l1,-1h2v-1h3v-1h2l1,-1h2v-1h3v-1h3v-1h159v1h3v1h3v1h2l1,1h2v1h3v1h2l1,1h2v1h2v1h2l1,1h2v1h2v1h2v1h2l1,1h1l1,1h1l1,1h1l1,1h1l1,1h1v1h2v1h2v1h2v1h1l1,1h1v1h2v1h1l1,1h1v1h2v1h1v1h2v1h1v1h2v1h1v1h1v1h2v1h1v1h1l1,1h1v1h1v1h1v1h1l1,1h1v1h1v1h1v1h1v1h1v1h1v1h1l3,3h1v1h1v1h1v1h1v1h1v2h1v1h1v1h1v1h1v1h1v1h1v1l1,1v1h1v1h1v1l1,1v1h1v1h1v2h1v1h1v2h1v1h1v2h1v2h1v2h1v2h1v2h1v2h1v2l1,1v2h1v3h1v3h1v3l1,1v4h1v7h1v17l-1,1v6h-1v5h-1v3h-1v4h-1v2h-1v3h-1v2h-1v2l-1,1v1l-1,1v1l-1,1v1h-1v2h-1v2h-1v1l-1,1v1h-1v1l-1,1v1h-1v1l-1,1v1h-1v1h-1v1l-1,1v1h-1v1h-1v1h-1v1h-1v2h-1v1h-1v1h-1v1h-1v1h-1v1h-1v1h-1v1h-1v1h-1v1h-1v1h-1v1h-1v1h-1l-2,2h-1v1h-1v1h-1v1h-1v1h-2v1h-1v1h-1v1h-1l-1,1h-1v1h-1v1h-1l-1,1h-1v1h-1v1h-2v1h-1v1h-2v1h-1l-1,1h-1v1h-2v1h-1v1h-2v1h-2v1h-1l-1,1h-1v1h-2v1h-2v1h-2v1h-2v1h-2v1h-2v1h-2v1h-2v1h-2l-1,1h-2v1h-2v1h-2l-1,1h-2v1h-2l-1,1h-2v1h-3v1h-2l-1,1h-2l-1,1h-2l-1,1h-2Z"/>
<path class="tl" d="M169,986h1v1h-3l-1,-1h2v-1ZM114,989h-3l-1,-1h2l1,1ZM176,983h1l1,1v1h1l-1,1h-2l-1,1h-1l-1,-1l1,-1v-2h1v-1ZM124,980h2v1h-1ZM122,980l1,1h-1l-1,-1ZM136,977h1h-2ZM156,974v1l1,1h-5v-1l1,-1v-1l-1,-1l1,-1v1h1l1,1ZM158,964v1h-2v2h1l-2,2v1h1l1,1h1l4,4v1l1,1v1h-1v2h-1l-1,1h-1v1h-2l1,1h1v1h-2l1,1h1v1h3l1,1h3l1,1h3l1,1h1l1,1v-1h1v-1h2l2,-1l1,1h1v-1h4v-1h3l1,-1h-1v-1h-4l-1,-1l1,-1h1l2,-2h4l1,-1h1l2,-2h-1v-1h1v-1h2v-1l1,-1h1v1h1v-1h8v-1h3v-1h1l1,1h2v-1h1v1l1,-1h4v1h6v-1h3v-1h2v1h3l1,-1h3v-1h2l1,-1h2l1,-1h4v1h1v1h1l1,1h1l1,-1l1,1h2v1l-2,2h-1v1h1h-1v1h-1v1h2l2,-2h1v-1h3l1,-1h1v-1h2l1,-1h5v-1h1v1h5v1h1l1,-1l1,1l1,-1h1l2,-1v1l1,1h3l1,-1h2v1h1v1h4l1,-1v1h9l1,-1l-1,1v1h-1h3l1,1h2l-1,1v1h1v1h2v1h1v2h2l1,1v1h-1l-1,1h-2l-1,1h-3l-1,1h-2l-1,1h-2l-2,2v1h-5l-1,1h-2v1h-1v3h2l-11,4h-155l-11,-4h-1h2l1,-1l1,1h14l-1,-1h-7v-1h-2v-1h-3l-1,-1h4v-1h-2l-1,-1h-7l-1,-1l-2,-1l1,1l1,-1l2,1v-1h1v-1l-1,-1h-1h2v-1h2v-1h4l1,-1h5l1,-1l1,1v-1h1l1,1h1v-1l1,1h6v-1h-2l-1,-1h-1l-1,-1h4l1,1h1l1,-1h3l-1,-1h1l1,1l1,-1l1,1h3v-1l1,1h4v-1h2l1,-1v-1h-1v-1h-1v-1h-1v-1h-1v-2l-1,-1v-1h1v-2h1v-1h1v-1h1l1,-1l1,1ZM144,951l2,1h1v1h-1v-1v1h-4l-2,-2l-2,-1l2,1h2v-2h1v1ZM151,947h1v1h-2v1l-1,-1l1,-1ZM269,946h-1v-2h1l1,1ZM345,939v1h1l1,-1v1l-3,3v-1l-1,1h-1l1,-1v-1l1,-1v-1ZM368,943v1l1,-1v1h-1l-3,3h-1l-1,1h-1l-2,2h-2v1h-1v-1h-1v-1l4,-2h1l1,-1h2l2,-2h1l2,-2ZM376,936l-1,2l1,-1l-1,1l1,1h1l-2,2h-1l-2,2l-2,1h-1l2,-1v-2l1,-1l2,-1v-1l1,-1v-3l1,-1v1l1,1ZM382,913l-1,1v-2l-1,-1v-1h1v1l1,1ZM397,906v1l-1,1h-1v-1l1,-1v1ZM398,906h-1v-1h1l1,-1v1ZM10,905v-1ZM386,904v-1ZM386,901v2h-1v-1ZM259,895v2l1,1h-1v1v-1v2h-1v3l-3,6v2h-1l-1,1l-1,-1h-1v-5h1v-2l1,-1h-1v-3h1v-1h1l2,-2h1v-1l1,-1v-1l1,-1v1ZM361,898v1h1v1h1l-1,1v2h1l-1,2v1l2,2v4h1l-1,2l1,1v3l-1,1v2l-3,3v1l-1,1l-1,2h-1l-1,2h-1l-4,4v1h-2l-1,1h-1l-1,1v-1h-1l1,-1h-1l-1,1h-1v-1h-1v-3h1l-1,-1v-1l1,-1l-1,1h-1l3,-3l-2,1h-1l-1,2v-4l-2,-2h-2l-1,1h-4l-2,2h-4l-1,1v-1l-1,1h-2v-1h-1l1,-1v-1h1v-3l1,-1v-7l1,1v-3l1,-1v-1l1,-1l-1,1l2,-2h1l1,-1h2l1,-1h2v-1h1l1,-1v-2l1,-1v2l1,-1v-1h1v-1l2,-2h2v1h2v-2h1l1,-1v-1h2v-1h-1h1l1,1h3l1,1h-1v1h-1v1l-1,1v1l2,2v1h1l1,1h1v-1l1,-1v-1l1,-1v-3l1,-1v-2h1v-1v3l1,1Z"/>
<path class="tl" d="M383,894h-1v-1v1ZM337,892l-2,-1h2ZM381,893h-1v-1h1ZM382,892v-1l-1,-1h1ZM341,892h-1l3,-3h2l-1,1h-1l-1,1ZM335,889h1v1h-3l1,-1ZM340,889v1h-3v-1h2ZM381,890v1l-2,-2h1v1ZM378,889v-1h-1v-1l1,1ZM325,887h2v-1l2,1v1h2l1,1l-1,1l-1,-1h-4l-1,-1h-1l-2,-1h-1l1,-2h1l1,1ZM353,886v1v-2ZM377,888h-1v-2l-1,-1h1v2h1ZM373,885l-1,1h-1l-1,1l-1,-1h-1l1,-1l1,1v-1h2v-2h1v1ZM345,882h-1v-1h1ZM349,881v2l-1,-1h-2v-1h2ZM374,884l-1,-1v-1l-1,-1h-1h2v2h1ZM353,878v3l2,1v-2l2,-1h1l1,1h1l1,1l4,2v1h1v1l2,1v1h-1v1l1,1v2h1v1h1h-1l1,1l-1,1v-1h-2l-1,-1v-3h-3l-1,1v1h-2l-2,-2v1h-2l1,-2h1l-1,-2v-1l-2,-1h-1l-1,-2l-1,1l-1,-1h1l-1,-1l1,-1h-1v-1h-1l-1,-1h2v-1ZM343,875l-1,1h-4v1l1,2v-1h2l-1,1h-1l1,2v1l1,2v1h-1v-2l-1,1v-1l-1,-1l1,-1h-1v4h-1v-3h-1v-1l1,-1v-4h1v-1h4l1,-1ZM347,875v1h-1v1l1,1h-1v-4h1ZM321,885h-1l-2,-2v-1l-2,-2l-1,-2v-2l-1,-1v-1l-4,-4v-1h2l3,3l1,2h1l2,2h1l-1,2h1v1l1,1h1v3ZM335,874l1,1h-1v3l-1,1v1l-1,3v-1l-1,1l-1,-1h-1v-1l-1,1l-1,-1h-1l-2,-4v-2l1,-1h2v-2h2v-1l1,-1v-1h1l1,-1v-2h1v1l2,2v1h-1l-1,2l1,1ZM344,864v3l-1,-1v2l-2,-2h1l-1,-1v1l-1,-1l-1,1v-1l1,-1h2v-1h1v-1l1,1ZM294,868h-1v-1l-1,-2l1,-2l1,1v1l1,1v1ZM137,863h-1l1,-1h1ZM341,861v1l-1,1l-1,-1l1,-1v-1v1l1,-1ZM335,863l-1,1v-1l1,-1v-1l1,-1v1l-1,1ZM338,859h2v1l-1,1v-1h-1ZM342,858l1,2h-1v1v-1h-1v-1h1h-1v-1ZM338,857l-1,1l-1,-1h1ZM336,849h1v6h1l2,1v2l-1,-1v-1v1l-1,-1h-2v-1h1h-1l-1,-1v-5ZM133,851v1h-1v-1ZM121,852h-1v-1h2v1ZM126,849h3v1h1v1h-2l-1,1v-1h-1v-2h-1ZM324,849l-1,1h-1v-2l1,-1h1v1ZM37,846v-2h1v2ZM38,844h-1v-1h1ZM119,845h2l1,1v1h1v1h2l-1,1h-3v-1h-1v-2h-2l-1,-1h-1h1h-2l-1,1h-1l2,-2h3ZM122,843h-1v-1l1,-1v1ZM334,843v1l-2,-2v-2l1,-1l1,1ZM122,839l-1,1v-1ZM123,839v1v-1h-1ZM340,825h1v1h-1v1h-1v-2ZM240,828l-2,2v-1h-1h2ZM229,828v1h-1ZM220,825v2h-1l-1,-1h-1v-1h2ZM214,821v3h-1v-3ZM344,820v1l1,1v1l-1,1h-1l-1,2l-1,-1v-1l-2,1l-1,1h-1l2,1v3l-1,-1v-1h-1l-1,-1l1,-1v-3h3v-3l1,1v-2h1l-2,-4v-1l3,3v1ZM214,820v1l-1,-1v-1l1,-1ZM340,810l1,-1l1,2h-1v2l-2,-1l1,2h-1l-1,-2l-1,-1h1l-1,-2l-1,-1l3,1ZM144,812l1,1h1h-2ZM147,809h-1l-1,-1h1ZM92,806h-1l-1,-1v-2h-1v-1h1l1,1v1l1,1ZM153,807l-1,1h1v1h2l-1,1h1v1l-1,2l-1,-1l1,-1l-2,1v-1h-3l1,-1h-1l4,-4h1Z"/>
<path class="tl" d="M90,797h1l-2,2v1v-3ZM332,800l3,3l-2,-1l1,2l2,2v1l-2,-2l-1,-2l-6,-6v-1h-1h1l3,3ZM198,806l-1,1h-2l1,-2v-1l2,-2h1v3ZM216,801l-1,2l-1,-1v-1h1ZM79,791h-1v-1h2ZM202,797l-1,2h2v1l-1,1h1l2,4h1v1l-1,1h1l-1,1h-3l-1,1h-2l2,-2h-1v-1h1l-1,-1v-1h2l-1,-1h-1v-2l-1,-1l1,-2v-1l1,1ZM75,786h-1v-1h1ZM141,790l-1,1v-1ZM139,790h-2l1,-1h1ZM78,780v1h1h-2v-1ZM139,786h1v1h1l-1,1h1l-1,1l-1,-1h-1l-2,1l1,-1h-1h1l1,-1l1,-2ZM193,787v1l1,1l-1,1h-3l-1,1l-1,-1h-2l1,-1h-1h1v-1h-2l1,-1h1l1,1l2,-1h2ZM147,784h-1l1,-1h2l-1,1ZM81,776v1l1,-1h2l-1,2h-3l-1,1h-1l-1,-1h1v-1h-1h1h-2l-1,1l8,-5v1l-1,2ZM135,780l-1,1v-1h-1l1,-1h1ZM322,771h-1ZM88,771h-1h2ZM139,780l-1,2l2,-1v1h-1v1l1,-1l2,-1l1,-1h2v2h-1v1l-1,1l-2,1h-1v-1l-1,1l-2,1v1h-3l-2,2h-1l-1,1l-2,1l-1,1l-1,2h1l-1,1v1h1l3,3l2,1h1l-2,2v2l1,1h1l2,-4h-1l4,-2v-1l1,-1v-1l-1,-1l2,-1l2,-4l1,1h1l1,-1v1l1,1h1v2l-1,1l1,1h2l1,-2h1v3l1,1l-1,1l1,1v1h1l1,1v1l1,1l-2,2h-2l-2,2h-1l-2,-1h-2l-2,1l-1,1l-2,1l-1,1l2,-1l3,-1h2l-1,1l-1,2v1l1,1l2,-1l1,-1v1h1l-4,2h-1l-2,1v-1l2,-1h-3v1h-1l-1,1h-1l-2,2l1,1v-1v1h-3l-1,1l2,-1v1h-2l-2,2v1l-1,1l-1,-1l1,-1l-1,1v4l-1,1h-1l-1,1h-1l-3,3h-1v8l-1,1h-1v-3l-1,-1l1,-1l-1,-2l-1,1l-1,-1h-4v1h-1l-1,-1l-1,1l-1,-1l-2,2h-2v1h-1v3l-1,1v1l-1,2v4l1,1v1h1v1l1,-1h3v-1l1,-1v-1l1,-1h3v1l-1,1v2l-1,1v-1v2l-1,1v1h5v1h1v1l-1,1v3l-1,1h1v2h1v1h2l1,-1h1v1h1l1,1l1,-1v-2l1,-1h2l2,-2v2h-1h1v1l-1,1v1h1v-3h1v-1h1v1h1v1h3l1,1l1,-1h1l1,1h1v1l1,1h1v1h1v1l1,1l2,1v-1h1l1,1h1l1,1v1h1v1l1,2v1l-1,1l1,1h2v1v-1l4,2v1h1l3,1h1l2,1l2,2h2v5l-1,1l-1,2l-2,2v9l-1,2v2h-1v1h-2l-1,1h-1l-3,3v5l-1,2l-2,2v2l-2,2v-1l-1,1l-1,-1h-1v-1v1l1,1v1l1,1v2l-2,1h-3l1,1v2l-1,1l-1,-1h-1l1,2h2l-2,2l1,1v1h-1l-1,1v1l2,1h1v1l-1,1v2h-1v1l2,2h-1l-1,1v1h-1l-2,-1l-3,-3l-1,-3v-1l1,-1h-2l1,-2l-1,-2h1v-2l-1,-1v2l-1,-2v-4l-1,-1l-1,-2h1v-6l-1,-2v-8l-1,-2v-6l-1,-2l-1,-1l-2,-1l-3,-2l-1,-1v-1l-1,-2l-1,-3l-2,-3l-2,-2v-1l-1,-2l2,-2v-1h-1v-3l1,-1v-1h1v-2h1l1,-1v-5l-1,-1v-2h-1v1h-1v1h-1l-1,-1h-2v-2h-1v-1v1h-1v-3l-2,-2h1h-2v-1h-2l-1,-1l-1,-2h-1l-1,-1v1h-2l-1,-1h-2l-2,-2h-1l-1,-1v-1h-1v-3h1l-1,-1v-3l-1,-1v-1l-1,-1v-3h-1v-5l-1,-1l-1,1v4h1l-1,1h1v5h1v2h-1v-1l-1,-1v-3l-1,-1v1v-1h-1v-1h1v-9h-1v-1h-1v-9l2,-2v-1l1,-2l2,-2l1,-2l1,-1v-1h1v1l2,-2h-1v-2l-1,-1v-1l1,-1l-1,-1l1,-1v-1l1,-1l-1,-1l1,-1v-1l1,-1l-1,-1h-1v-2h-1v-1h-1l-1,-1h-1l-1,1h-4l1,-1l2,-1h-1l-1,1l-2,1h-1l-1,1l-2,1h-2l-2,1h-1l-1,1h-3l-1,1h-2l1,-1h2l2,-1h2l2,-1h1l2,-1l1,-1h-3l1,-1l-1,1h-1l2,-2h-1v-1l2,-2l2,-1h3l1,-1h1l1,-1h-3v-2h4l1,1l1,-1v-3h4l1,-1h2l2,-1l1,1l1,-1h1l-1,1h1l1,1h2l1,1h2v1l1,1l1,-1h6l1,-1v2l2,-1l-1,1h2l1,1h2v1l-2,1h4v1l2,-2h2v1h1l1,1h2v-1h1l1,1l-1,1l1,-1h1l1,-1v-2l1,-1l2,-1l1,1l-2,2Z"/>
<path class="tl" d="M128,774l-1,1h4l-1,1h1l2,-2v1l-1,2v1l1,1h-2v1h-8v-1h-1v-1h4l-1,-1h-3l2,-1h-1l1,-1h1ZM135,774l-2,1v-1h1ZM152,776v1l-1,-1l-1,1v-2h2ZM146,776v1l1,-1l2,-1v2h3l1,1l-1,1l2,-1v1l1,1v2h-1l2,2v1h1v1l-2,1h-1l-1,-2l-1,1v1l1,1v2l-1,1l-2,-2v1l1,1h-2l-2,-2v-1l-1,-1v1h-3v-1l1,-1h3l1,-1l2,-1v-1l-1,-1h-1l1,-1l-1,-1h-5l-1,-1h-1l1,-1h-1l1,-1l2,-1l1,-1h2ZM138,774h2l-1,1h-1l1,1l-2,1h-2v-2l1,1v-1ZM298,772h-2v-1ZM141,776l-2,1v-1l2,-2h2l1,1l-2,1ZM122,776h-2l-1,-1h1l2,-1l2,-2h2v1h2v1h-1l-3,1h-2ZM299,769v1h-3v-1h1ZM143,773v1l-1,-1h-1l1,-1h1l1,1ZM295,769l1,1h-2l-1,1l-2,-1l-1,-1h2ZM143,771h-1v1l-1,1h-2l1,-1h-1l1,-1h2ZM136,771h1v1h-4l-2,1h-1l1,-1h-1l-1,-1l2,-1h1l2,1l1,1v-2h2ZM246,780h-3l-2,-1v-1l1,-2h-1l1,-1l-1,-1h1l4,-2h2l-1,1l-2,1l-1,1v2l-1,1l1,1ZM145,770l1,1h1l-1,1h1l1,1h4v1h-7l-1,-1l1,-1v-1h-2l1,-1ZM134,769l-2,1h-4l2,-1h3ZM271,770l1,1v-1h2l2,1h1v1l-1,1h1l2,1v-1l1,1l1,-1h2l1,1h3l-2,-1h5l1,1v1h2l2,1l-1,-1h1l1,-1l2,1v-1h1l-2,-1h8l3,1l1,-1h2l2,2h2v-1h3l3,1v-1h-2v-1h7l8,5h-1l1,1l2,1h2v1h-1v1h-1l1,1v2l-2,-1v2l-1,-1v1h-1l2,2v1h1l3,2h-1l1,1h1v1l1,2h-1l1,2l1,1l-4,-2l-4,-3l-1,-2l-1,-1v-3l-1,-2v-1l-2,-2l-1,1l2,2l-3,-1l-1,1l1,2l1,1h-1l-1,1l-1,-1h-1v1h-4v7h1l2,1h1l-1,-1h1l3,1l1,2l1,1l1,2l2,2v9h-1l-1,-1v2h-1v1l1,1v1h-1v1l1,1h1l2,2v1l1,1v1l-1,1h-1l-1,-2l-1,-1h1l-2,-1v-1v1v-1h-1v-1l-1,-1h-2v1h-1l-1,-1l1,-1l-1,-1l-1,1v2h-1v1l2,2h1v-1h2l1,1l-2,1v2l2,2l1,2l2,1v2h1v6l-2,4l-1,1h-1v1l-1,-1v1l-2,1h-1v2l-1,-1v-1h-2l-1,2v2l1,1l1,2l2,2l1,3v4l-2,1v1l-2,1v-2l-1,-1h-1v-1l-2,-2h-1v-1h-1v6h1v3l1,1h1v1h1v1l1,1v3h1v2h-1l-2,-2v-1l-1,-1v-1l-1,-1v-2l-1,-1v-1h-1v-6l-1,-1v-1l-1,-2v-2l-1,-1l-2,2h-1v-3l-1,-2v-1h-1l-2,-2v-1l-1,-1h-1v2l-1,-1v1h-2v2l-2,1l-1,2v1l-2,2h-1v8l-1,1l1,1h-1l-1,1l-1,-1l-1,-2v-1l-1,-1v-1l-1,-2v-1l-3,-6v-3l-2,1h-1l-1,-2v-1l-2,-1l-1,-1v-1l-1,-1l-2,1h-5l-1,-1h-2v-2h-1l-1,1h-2l-3,-3l-1,-2l-1,1v-1l-1,1v2l1,1h1l1,1v2l1,1l-1,-1l1,-1v2h1v1l1,-1h2v-1l1,-1v-1v2l2,2h1l2,2l-1,1v1h-1v3h-1v1h-1v1h-2v1h-1l-2,2h-1l-2,2v-1l-1,1h-2v1h-2v-2l-1,-1v-3h-1v-1l-1,-1v-1l-1,-1h-1v-1l-1,-1v-3h-2v-2l-1,-1v-1l-2,-2v-1v1l-1,1l-1,-1l-1,-2l1,2l1,1l1,2v1l2,2h-1l2,2v1l1,1h-1l1,2v1l1,1l1,2v1l1,1l2,1v1h1v1h1v1l-1,1h1l1,1h3l1,-1h3v-1h1v2l-1,1v3l-1,1l-3,6l-1,1l-2,1l-1,1l-1,2v1h-1v1h-1v2l-1,1l-1,2l1,1v4l1,1v7l-1,1h-1l-3,3h-1v1l-1,1v2h1l-1,1h1v1l-1,1h1l-1,1h-1l-2,2v3l-3,3v1l-2,1v1l-1,1h-2v1l-1,-1v1l-1,-1l-1,1h-2l-1,1l-1,-1h-1v-5l-1,-1v-2l-1,-1v-1l-1,-1v-5l-1,-1v-1l-1,-2v-1l-1,-1v-3l1,-1v-3h1v-1l1,-1v-1h-1v-5l-1,-1v-2l-3,-3l-1,-2l1,-1v-5l-1,-1v-1l-1,1h-2l-1,-1v-1l-1,-1h-2l-1,1h-2l-1,1h-6l-1,1l-4,-4h-1l-1,-1v-1l-1,-1v-1h-1v-1l-1,-1v-1h-1v-3h-1l1,-1v-1h1l-1,-1l1,-1v-4l-1,-1v-1h1v-2l1,-1v-1h1v-2h1l1,-2h1l2,-2v-3l3,-3l1,-2v-1h1l1,1h2l1,-1h2l1,-1h4l1,-1h1v1h1l1,-1h1v1l1,-1v1h-1v1h1v2h-1v1h1v1h3l2,2h1l2,2l1,-1v-2l1,-1h2l1,1h1l1,1h2l1,1h1v-1h2l1,1v-1h1l1,1v-2l1,-1v-5h-2l-1,1l-1,-1h-2v1l-1,-1h-2v-1l-1,-1v-2l1,-1h1v-1h2l1,-1h1l2,-1l2,1l1,1h2l1,-1v-2h-1l-2,-2h-1l-1,-1l1,-1l-1,-1h2l-1,-1v1h-2l-1,1v1h1l-1,1h-1v-1h-1l1,-1h-2v-1h-1v1l-1,1v1h-1v4l1,1h-2v1h-1v-1h-2l1,1h-2v1l1,1h-1h1l1,1v1l-1,-1v1h-1l1,1h-2v-2l-1,-1v-1h-1v-3h-1v-1h-1l-1,-1h-1l-1,-1v-1l-1,-1v1v-1h-2v1l2,2v1l1,1h1l1,1h1l1,1v1l-1,-1h-1v1h1v1h-1v1h-1v-1h1l-1,-1v-1h-1l-1,-1h-1l-2,-2l-1,-2h-2v1h-4l-1,1v2h-2v1l-1,2h1l-1,1v1h-1l-1,1h-2l-1,1l-2,-2v1h-2l1,-1v-1h-1v-2l1,-1v-3l-1,-1l2,-1l1,1h5v-4l-1,-1v-1h-2v-1h3v-2l1,1l2,-1v-1h1l1,-1l1,-2l1,-1h2v-5h2l-1,1h1v1l-1,1v1h1v1l1,-1h2v1h1l2,-2l1,1h1v-1h1v-3l1,-1l1,1v-1l-1,-1v-1h4l1,-1h-4l-1,1l-2,-2v-4l2,-1v-1l-1,-1l-2,2l-1,2l-1,1v3h1v2h-1v2l-1,2h-1v1h-1v-2l-1,-1l-1,-2l-1,-1l-1,2h-1l-2,-1v-5l2,-1l3,-3l2,-3l3,-3h2l1,-2h3l2,1l-1,1h2l1,1h3l3,1l1,1v1l-1,1h-1l-3,-1h-1l2,1v2l1,1h1v-1h-1l1,-1l2,1v-1l1,-2h1l1,1v-1l-1,-1v-1l-1,-1l2,1h1l-1,1l1,1h1v-1l1,-1l2,-1h1v1l1,-1h1l1,-1l1,1l1,-1h-2l1,-1h2l1,1l4,1v-1h-2v-1h-1l-1,-1v-3h2l1,1v1h1l1,1l1,2h1v3l1,1v-1h1l-1,-1l1,-1h-1l-2,-2v-1l-2,-1l1,-1l-1,-1h1l1,2l-1,-1l1,-1h2l1,1l-1,-1l-1,-2h4l-2,-1v-1h1l1,-1h3l1,-1h1v-2l2,1h-1ZM253,820l1,1v2h-1v1l1,1h1l1,1h3l-1,-1v-2h-1v-2h1v-1l-1,-1h-1l1,1l-1,-1v-1h-2v-2h-1h1v-2l1,1v-3h-2l-1,1h-1v1h-1l-1,2l2,1v1l1,1Z"/>
<path class="tl" d="M146,770h-1v-1h1l1,1ZM137,769h-2l1,-1h1l1,1ZM220,771l-1,1h-1v-1h-1l2,-1v1ZM139,768h-2l1,-1v1ZM146,769h-1v-1h1l1,1ZM144,769h-1l-1,-1h-1h1v-1h1l1,1ZM268,768l-3,1v-2ZM215,769l3,1h-2v3h-1l-2,-1h1l-1,-1l-2,-1v-1l1,-1l1,1h1v-1h1ZM220,768h1l-1,1h-4l-1,-1h3ZM234,767l-1,1h-1v-1h-1h4ZM264,768h-4l-2,-1l-1,-1h1l1,-1l4,2ZM153,767v1h-1l-2,1h-2v-1h1h-1v-1l1,-1h2v-1h1v1h1ZM167,764h3v1h-3l-1,1h-1l-1,1l-2,1h-3v1h-1v1h-2l-2,1h1l-2,1h-4l-1,-1h2v-1h2v-1h-1h1l1,-1h1l-1,-1h4l-1,-1h-3v-1l1,-1h6v-1h3v1l2,-1l1,1ZM190,764l3,1h-6v1h5l-1,1l2,-1h4v1l-2,1h-1l-2,2v2l1,1h-2l1,1l-1,1v1h-1l1,1h-3l1,1v1l-1,-1l-1,1h1l1,1v1h-2l-1,-1v1l-1,1h3l-4,2h-3l-1,1l-4,2h-1l-2,1h-1v1l-2,2v1l-1,1l-1,2h-1l-1,-1h-1l-1,-1v-2l-1,-1v-1l1,-1l-1,-2l1,-1l1,-2h1l1,-1v-1l-1,1h-1v-1l1,-1h1l-1,-1h-1l1,-1v-4l-1,-1h-5v-1l-1,-1h1l-1,-1l1,-1h2l3,-1h1l-2,-1h1l3,-1h1v-1h9l1,1l-1,-1h1l2,-1h3l2,-1Z"/>
<path class="th" d="M379,865v1ZM357,862h-1Z"/>
<path class="tg" d="M66,970h1l1,-1h4v-1h5v-1h5v-1h6v-1h6l1,-1h7v-1h8v-1h9l1,-1h11v-1h14v-1h20v-1h79v1h20v1h14v1h11l1,1h9v1h8v1h7l1,1h6v1h6v1h5v1h5v1h4l1,1h1M21,927h6v-1h7v-1h8v-1h10v-1h10v-1h12v-1h14v-1h18v-1h23v-1h38v-1h75v1h38v1h23v1h18v1h14v1h12v1h10v1h10v1h8v1h7v1h6M5,877h399M21,826h4v1h7v1h8v1h9v1h10v1h11v1h14v1h16v1h21v1h32v1h103v-1h32v-1h21v-1h16v-1h14v-1h11v-1h10v-1h9v-1h8v-1h7v-1h4M66,783v1h5v1h4v1h5l1,1h5v1h6l1,1h6l1,1h7v1h10v1h10v1h13l1,1h17v1h36v1h21v-1h36v-1h17l1,-1h13v-1h10v-1h10v-1h7l1,-1h6l1,-1h6v-1h5l1,-1h5v-1h4v-1h5v-1M140,755h-1v1h-3v1h-2v1h-2v1h-2v1h-2v1h-2l-1,1h-1l-1,1h-1l-1,1h-1v1h-2v1h-2v1h-2v1h-1l-1,1h-1v1h-2v1h-1l-1,1h-1v1h-2v1h-1v1h-2v1h-1v1h-2v1h-1v1h-1l-1,1h-1v1h-1v1h-2v1h-1v1h-1v1h-1v1h-2v1h-1v1h-1v1h-1v1h-1v1h-1v1h-1l-1,1h-1v1h-1v1h-1v1h-1v1h-1v1h-1v1h-1v1h-1v1h-1v1l-1,1v1h-1v1h-1v1h-1v1h-1v1h-1v1l-1,1v1h-1v1h-1v1h-1v2h-1v1h-1v2h-1v1h-1v2h-1v1h-1v2h-1v2h-1v1h-1v2h-1v2h-1v2h-1v2h-1v2l-1,1v2h-1v2l-1,1v2h-1v3h-1v4h-1v4h-1v5h-1v9h-1v13l1,1v8h1v5h1v4h1v4h1v3h1v3h1v2h1v3h1v2h1v2h1v2h1v2h1v2h1v2h1v1l1,1v1h1v2h1v1h1v2h1v1h1v1h1v2h1v1h1v1l1,1v1h1v1h1v1h1v1l2,2v1h1v1h1v1h1v1h1v1h1v1h1v1h1v1h1v1h1v1h1v1h1v1h1v1h1v1h2v1h1v1h1v1h1v1h1v1h1l1,1h1v1h1v1h1v1h2v1h1v1h1l1,1h1v1h1v1h2v1h1v1h2v1h1l1,1h1v1h2v1h1v1h2v1h2v1h1l1,1h1v1h2v1h2v1h2v1h2v1h2v1h2v1h2v1h2l1,1h2v1h2v1h2M153,755h-1v1h-2v1h-2v1h-1v1h-2v1h-2v1h-1v1h-2v1h-1v1h-2v1h-1v1h-2v1h-1v1h-1v1h-2v1h-1v1h-1l-1,1h-1v1h-1v1h-1v1h-1v1h-1l-1,1h-1v1h-1v1h-1v1h-1v1h-1v1h-1v1h-1v1h-1v1h-1v1h-1v1h-1v1h-1v1h-1v1h-1v1h-1v1h-1v1h-1v1l-2,2v1h-1v1h-1v1h-1v1l-1,1v1h-1v1h-1v2h-1v1h-1v1l-1,1v1h-1v2h-1v1h-1v2h-1v1h-1v2h-1v2h-1v2h-1v2h-1v2h-1v2h-1v2h-1v3h-1v2h-1v3h-1v3h-1v3h-1v3h-1v4l-1,1v4h-1v6l-1,1v30h1v6h1v5h1v4h1v3h1v3l1,1v2l1,1v2h1v3h1v2h1v2h1v2h1v2l1,1v1h1v2h1v2h1v2h1v2h1v1h1v2h1v1h1v2h1v1h1v2h1v1h1v1h1v2h1v1h1v1h1v1l1,1v1h1v1h1v1h1v1h1v1h1v1h1v1l3,3v1h1l3,3h1v1h1v1h1v1h1v1h1v1h1v1h1v1h1l1,1h1v1h1v1h1v1h1l1,1h1v1h1v1h1l1,1h1v1h1v1h2v1h1v1h2v1h1v1h2v1h2v1h1v1h2v1h1l1,1h1v1h2M166,755h-1v1h-1v1h-1l-1,1h-1v1h-1v1h-1v1h-1v1h-1v1h-1l-2,2h-1v1h-1v1h-1v1h-1v1h-1v1h-1v1h-1v1h-1v1h-1v1l-2,2v1h-1v1h-1v1h-1v1h-1v1l-1,1v1h-1v1h-1v1h-1v2h-1v1h-1v1l-1,1v1h-1v1h-1v2h-1v1h-1v2h-1v2h-1v1h-1v2h-1v2h-1v2h-1v1l-1,1v1l-1,1v1l-1,1v2h-1v2h-1v2h-1v3h-1v2h-1v3h-1v3h-1v3h-1v3h-1v4h-1v4h-1v5h-1v6h-1v8h-1v30h1v7l1,1v5h1v5h1v4h1v4h1v3h1v3h1v3h1v3h1v3h1v2h1v2h1v2l1,1v2h1v2h1v2h1v2h1v1h1v2h1v2h1v2h1v1h1v2h1v1h1v2h1v1l1,1v1h1v1h1v2h1v1h1v1h1v1l1,1v1h1v1h1v1h1v1l1,1v1h1v1h1v1h1v1h1v1h1v1h1v1h1v1h1v1h1v1h1v1h1v1h1v1h1v1h1v1h1l2,2h1v1h1v1h1v1h1v1h2v1h1"/>
<path class="tg" d="M179,755h-1v1h-1v2h-1v1h-1v1h-1v1h-1v2h-1v1h-1v1l-1,1v1h-1v1l-1,1v1h-1v1l-1,1v1h-1v2h-1v1l-1,1v1h-1v2h-1v2h-1v2h-1v2h-1v2h-1v2h-1v2h-1v2h-1v2l-1,1v2h-1v2l-1,1v2h-1v3h-1v3h-1v3h-1v3h-1v4h-1v4h-1v4h-1v4h-1v5l-1,1v5h-1v8h-1v11h-1v29l1,1v10l1,1v7h1v6h1v5h1v4l1,1v4h1v3l1,1v3h1v3h1v3h1v3h1v3h1v3h1v2h1v3h1v2h1v2h1v2l1,1v2h1v2h1v1l1,1v1l1,1v1h1v2h1v2h1v1l1,1v1h1v2h1v1h1v2h1v1h1v2h1v1h1v1l1,1v1h1v1h1v1h1v2h1v1h1v1h1M192,755h-1v3h-1v2h-1v3h-1v3h-1v3h-1v3h-1v3h-1v3l-1,1v3h-1v4h-1v4h-1v4l-1,1v4h-1v5h-1v6h-1v6l-1,1v7h-1v8h-1v11l-1,1v18h-1v29l1,1v18h1v11h1v8l1,1v7h1v6h1v6h1v5h1v5h1v4h1v4h1v4h1v4h1v3h1v3l1,1v3h1v2l1,1v2h1v3h1v3h1v2h1M205,755v243M217,755h1v3h1v2h1v3h1v3h1v3h1v3h1v3h1v3l1,1v3h1v4h1v4h1v4l1,1v4h1v5h1v6h1v6l1,1v7h1v8h1v11l1,1v18h1v29l-1,1v18h-1v11h-1v8l-1,1v7h-1v6h-1v6h-1v5h-1v5h-1v4h-1v4h-1v4h-1v4h-1v3h-1v3l-1,1v3h-1v2l-1,1v2h-1v3h-1v3h-1v2h-1M230,755h1v1h1v2h1v1h1v1h1v1h1v2h1v1h1v1l1,1v1h1v1l1,1v1h1v1l1,1v1h1v2h1v1l1,1v1h1v2h1v2h1v2h1v2h1v2h1v2h1v2h1v2h1v2l1,1v2h1v2l1,1v2h1v3h1v3h1v3h1v3h1v4h1v4h1v4h1v4h1v5l1,1v5h1v8h1v11h1v29l-1,1v10l-1,1v7h-1v6h-1v5h-1v4l-1,1v4h-1v3l-1,1v3h-1v3h-1v3h-1v3h-1v3h-1v3h-1v2h-1v3h-1v2h-1v2h-1v2l-1,1v2h-1v2h-1v1l-1,1v1l-1,1v1h-1v2h-1v2h-1v1l-1,1v1h-1v2h-1v1h-1v2h-1v1h-1v2h-1v1h-1v1l-1,1v1h-1v1h-1v1h-1v2h-1v1h-1v1h-1M243,755h1v1h1v1h1l1,1h1v1h1v1h1v1h1v1h1v1h1l2,2h1v1h1v1h1v1h1v1h1v1h1v1h1v1h1v1h1v1l2,2v1h1v1h1v1h1v1h1v1l1,1v1h1v1h1v1h1v2h1v1h1v1l1,1v1h1v1h1v2h1v1h1v2h1v2h1v1h1v2h1v2h1v2h1v1l1,1v1l1,1v1l1,1v2h1v2h1v2h1v3h1v2h1v3h1v3h1v3h1v3h1v4h1v4h1v5h1v6h1v8h1v30h-1v7l-1,1v5h-1v5h-1v4h-1v4h-1v3h-1v3h-1v3h-1v3h-1v3h-1v2h-1v2h-1v2l-1,1v2h-1v2h-1v2h-1v2h-1v1h-1v2h-1v2h-1v2h-1v1h-1v2h-1v1h-1v2h-1v1l-1,1v1h-1v1h-1v2h-1v1h-1v1h-1v1l-1,1v1h-1v1h-1v1h-1v1l-1,1v1h-1v1h-1v1h-1v1h-1v1h-1v1h-1v1h-1v1h-1v1h-1v1h-1v1h-1v1h-1v1h-1v1h-1v1h-1l-2,2h-1v1h-1v1h-1v1h-1v1h-2v1h-1M256,755h1v1h2v1h2v1h1v1h2v1h2v1h1v1h2v1h1v1h2v1h1v1h2v1h1v1h1v1h2v1h1v1h1l1,1h1v1h1v1h1v1h1v1h1l1,1h1v1h1v1h1v1h1v1h1v1h1v1h1v1h1v1h1v1h1v1h1v1h1v1h1v1h1v1h1v1h1v1h1v1l2,2v1h1v1h1v1h1v1l1,1v1h1v1h1v2h1v1h1v1l1,1v1h1v2h1v1h1v2h1v1h1v2h1v2h1v2h1v2h1v2h1v2h1v2h1v3h1v2h1v3h1v3h1v3h1v3h1v4l1,1v4h1v6l1,1v14l1,1h-1v15h-1v6h-1v5h-1v4h-1v3h-1v3l-1,1v2l-1,1v2h-1v3h-1v2h-1v2h-1v2h-1v2l-1,1v1h-1v2h-1v2h-1v2h-1v2h-1v1h-1v2h-1v1h-1v2h-1v1h-1v2h-1v1h-1v1h-1v2h-1v1h-1v1h-1v1l-1,1v1h-1v1h-1v1h-1v1h-1v1h-1v1h-1v1l-3,3v1h-1l-3,3h-1v1h-1v1h-1v1h-1v1h-1v1h-1v1h-1v1h-1l-1,1h-1v1h-1v1h-1v1h-1l-1,1h-1v1h-1v1h-1l-1,1h-1v1h-1v1h-2v1h-1v1h-2v1h-1v1h-2v1h-2v1h-1v1h-2v1h-1l-1,1h-1v1h-2"/>
<path class="tg" d="M269,755h1v1h3v1h2v1h2v1h2v1h2v1h2l1,1h1l1,1h1l1,1h1v1h2v1h2v1h2v1h1l1,1h1v1h2v1h1l1,1h1v1h2v1h1v1h2v1h1v1h2v1h1v1h1l1,1h1v1h1v1h2v1h1v1h1v1h1v1h2v1h1v1h1v1h1v1h1v1h1v1h1l1,1h1v1h1v1h1v1h1v1h1v1h1v1h1v1h1v1h1v1l1,1v1h1v1h1v1h1v1h1v1h1v1l1,1v1h1v1h1v1h1v2h1v1h1v2h1v1h1v2h1v1h1v2h1v2h1v1h1v2h1v2h1v2h1v2h1v2l1,1v2h1v2l1,1v2h1v3h1v4h1v4h1v5h1v9h1v13l-1,1v8h-1v5h-1v4h-1v4h-1v3h-1v3h-1v2h-1v3h-1v2h-1v2h-1v2h-1v2h-1v2h-1v2h-1v1l-1,1v1h-1v2h-1v1h-1v2h-1v1h-1v1h-1v2h-1v1h-1v1l-1,1v1h-1v1h-1v1h-1v1l-2,2v1h-1v1h-1v1h-1v1h-1v1h-1v1h-1v1h-1v1h-1v1h-1v1h-1v1h-1v1h-1v1h-1v1h-2v1h-1v1h-1v1h-1v1h-1v1h-1l-1,1h-1v1h-1v1h-1v1h-2v1h-1v1h-1l-1,1h-1v1h-1v1h-2v1h-1v1h-2v1h-1l-1,1h-1v1h-2v1h-1v1h-2v1h-2v1h-1l-1,1h-1v1h-2v1h-2v1h-2v1h-2v1h-2v1h-2v1h-2v1h-2l-1,1h-2v1h-2v1h-2"/>
<rect x="345" y="850" width="50" height="35" fill-opacity="0" stroke="#ffffff" stroke-opacity="0.5" stroke-width="5.0"/>
<rect x="347" y="852" width="50" height="35" fill-opacity="0" stroke="#113311" stroke-opacity="0.8" stroke-width="5.0"/>
<rect x="346" y="851" width="50" height="35" fill-opacity="0" stroke="#45a249" stroke-opacity="0.9" stroke-width="5.0"/>
</svg>
