<?xml version="1.0" encoding="UTF-8" standalone="no"?>
<svg xmlns:svg="http://www.w3.org/2000/svg" xmlns="http://www.w3.org/2000/svg" xmlns:xlink="http://www.w3.org/1999/xlink" height="1000" width="1000">
<!-- made with pythonshp (GPL): github.com/sanjayrao77/pythonshp , underlying data may come from naturalearthdata.com -->
<!-- 
COPYRIGHT: THIS SVG FILE IS RELEASED INTO THE PUBLIC DOMAIN
 -->
<!-- 
vars : {
	'cmdline' : 'pythonshp.py publicdomain wiki1 southgeorgiaandtheislands locatormap'
	'title' : 'South Georgia and the Islands locator'
	'version' : '1.0.5'
}
 -->
<defs>
	<radialGradient id="watergradient" cx="500" cy="500" r="500" fx="500" fy="500" gradientUnits="userSpaceOnUse">
		<stop offset="0%" stop-color="#70add3"/>
		<stop offset="11%" stop-color="#6eaad0"/>
		<stop offset="22%" stop-color="#6ca7cc"/>
		<stop offset="31%" stop-color="#6ba5c9"/>
		<stop offset="41%" stop-color="#69a2c6"/>
		<stop offset="51%" stop-color="#679fc2"/>
		<stop offset="59%" stop-color="#669dbf"/>
		<stop offset="67%" stop-color="#649abc"/>
		<stop offset="75%" stop-color="#6297b9"/>
		<stop offset="81%" stop-color="#6095b6"/>
		<stop offset="87%" stop-color="#5f92b2"/>
		<stop offset="92%" stop-color="#5d8faf"/>
		<stop offset="95%" stop-color="#5b8dac"/>
		<stop offset="98%" stop-color="#598aa8"/>
		<stop offset="100%" stop-color="#5685a2"/>
	</radialGradient>
	<radialGradient id="landgradient" cx="500" cy="500" r="500" fx="500" fy="500" gradientUnits="userSpaceOnUse">
		<stop offset="0%" stop-color="#dddddd"/>
		<stop offset="11%" stop-color="#d7d7d7"/>
		<stop offset="22%" stop-color="#d1d1d1"/>
		<stop offset="31%" stop-color="#cccccc"/>
		<stop offset="41%" stop-color="#c6c6c6"/>
		<stop offset="51%" stop-color="#c0c0c0"/>
		<stop offset="59%" stop-color="#bbbbbb"/>
		<stop offset="67%" stop-color="#b5b5b5"/>
		<stop offset="75%" stop-color="#afafaf"/>
		<stop offset="81%" stop-color="#aaaaaa"/>
		<stop offset="87%" stop-color="#a4a4a4"/>
		<stop offset="92%" stop-color="#9e9e9e"/>
		<stop offset="95%" stop-color="#999999"/>
		<stop offset="98%" stop-color="#939393"/>
		<stop offset="100%" stop-color="#888888"/>
	</radialGradient>
	<radialGradient id="bordergradient" cx="500" cy="500" r="500" fx="500" fy="500" gradientUnits="userSpaceOnUse">
		<stop offset="0%" stop-color="#444444"/>
		<stop offset="11%" stop-color="#3f3f3f"/>
		<stop offset="22%" stop-color="#3a3a3a"/>
		<stop offset="31%" stop-color="#363636"/>
		<stop offset="41%" stop-color="#323232"/>
		<stop offset="51%" stop-color="#2d2d2d"/>
		<stop offset="59%" stop-color="#292929"/>
		<stop offset="67%" stop-color="#242424"/>
		<stop offset="75%" stop-color="#1f1f1f"/>
		<stop offset="81%" stop-color="#1b1b1b"/>
		<stop offset="87%" stop-color="#161616"/>
		<stop offset="92%" stop-color="#121212"/>
		<stop offset="95%" stop-color="#0e0e0e"/>
		<stop offset="98%" stop-color="#090909"/>
		<stop offset="100%" stop-color="#000000"/>
	</radialGradient>
</defs>
<style type="text/css">
<![CDATA[
.c4 {stroke:#45a211;fill-opacity:0;stroke-width:4}
.fs {font:14px sans;stroke:#ffffff;stroke-width:2px;stroke-opacity:0.8;text-anchor:middle}
.ft {font:14px sans;fill:#000000;fill-opacity:1;stroke-opacity:0;text-anchor:middle}
.sb {stroke:url(#bordergradient);fill-opacity:0}
.sg {stroke:#000000;fill-opacity:0.0;stroke-opacity:0.2}
.sh {fill:#45a211;stroke:#000000}
.sl {fill:url(#landgradient);stroke:url(#bordergradient)}
.sp {stroke:url(#landgradient);fill-opacity:0}
.sr {stroke:url(#watergradient);fill-opacity:0}
.sw {fill:url(#watergradient);stroke:url(#watergradient);stroke-opacity:0.8}
.tb {fill:#eeeeee;stroke:black;stroke-width:2}
.tg {stroke:black;stroke-opacity:0.2;fill-opacity:0}
.th {fill:#45a211;stroke:#378100}
.tl {fill:#aaaaaa;stroke:black}
.w4 {stroke:#ffffff;fill-opacity:0;stroke-opacity:0.6;stroke-width:4}
.zh {fill:#45a211;stroke:#115511}
.zl {fill:#dddddd;stroke:#444444}
]]>
</style>
<circle cx="500.0" cy="500.0" r="500.0" fill="url(#watergradient)"/>
<path class="sl" d="M807,105v1h1v1v-1l2,2h1v1h1v1l-2,-2h1v1h1v1l2,2h1v1l1,1h1l-1,-1v1h1l1,2l1,1h1l6,6l3,2l1,1v1v-1l-2,-1l-1,-1h-1v-1v2l-1,-1v-1h-1l-1,-1h-1v-1l-1,-1l-2,-1h-1l-2,-2h-2v-1v1h1v1h1l2,2h1h-1l-1,-1v1h1h-1l-1,-2h-1l1,1l-1,-1l-2,-1l-1,-1v-1h-1v1h1v1h1l5,5h1v1v-1h-1l-1,-1l2,2h-1l1,1h1l4,4h1l1,1h-1v1h1v1h1v1h1h-1l-2,-2h-1l1,1h1l3,3v1l1,1h1h-1l-2,-2v1l-1,-1v-1l-2,-1l-1,-1v1l-3,-3v-1l-2,-2h-1l-2,-2h2l2,1l3,3h1l-1,-1h-1v-1h-1l-1,-1h-1l-2,-1v-1h-1l-1,-1h-1l-3,-3h-1h1v-1h-2v-1l-1,-1h-1l-2,-2h-1v-1h-1v-1l-1,-1l-3,-1v-1h-1v-1v1h1h-1v-1l-1,-1h-1v-1l-3,-3v-1h-2l-1,-1v-1l-4,-2l-2,-2h-1l-1,-1h-1v-1h-1l-2,-2l-4,-2l-1,-1h-1l-1,-1h-1v-1h-2l-2,-2l-2,-1l-1,-1h1v1h1l-1,-1h-1l-2,-1l-4,-4h-2v-1v1l1,1h-1l-2,-2h-1l-1,-2h-1v-1v1l-2,-1h-2v-1v1h1l2,2h-1h1l1,2h1l1,1l2,1l1,1l3,1l1,1l2,1l4,4l2,1l2,2l3,1l1,1l4,2h1v1h1h-1h1v1l4,2l3,2l2,2l3,1l1,1l2,1l2,2v1l-1,-1l-3,-2l-1,-1h-1l-1,-1h-1v-1v2l1,1h1l4,4h-1v1l1,1v1h-1l-2,-2h1l-1,-1v-1l-1,-1h-1l-6,-6h-1l-2,-2h-1v-1h-1v-1h-3v-1h-1v-1h-1l-2,-2h-1v-1h-2v-1h-2l-2,-2l-3,-2l-2,-1l-1,-1l-2,-1h-1l-1,-1h-1v-1l-2,-1h-1v-1h-2v-1h-1v-1h-1l-4,-4l-2,-1l-3,-1h-1l-1,-1h-7v1h-2v-1h-2l-2,-1l-1,-1h-2v-1h-3v-1h-2v-1h-1v1h-2v1l2,2h1l1,1l-1,-1v1h1v1h-3v1h-1l-2,-1h-3v1h-1h2l-1,1v-1h-1v1l-1,1v1l-1,1h1l1,2h1l1,1h1l1,1h-3v3l1,1h-1l-1,-1h-3l-1,1v1l-1,1l-1,-1h-3l-2,-1h-2l-2,-1h-8v1h-3l-2,-2h-1l-1,-1h-1v-1h1v-1h-1v1l-1,-1l-3,-2h-8l-2,-1h-3v-3l-1,-1v-2h-1h1l-1,-1h-2l-1,-1h1v-1h1h-1v1h-3v-3h1v-5l-3,-3v-1h-1h1h-1v-2h-1v-1h-2l1,-1h-2v-1h-1h1l1,-1l1,1h2v-1h4v1h4l1,1h4l2,1h2l1,1l3,1h5l1,1h1l2,1h2l2,1h4l-1,-2l-1,-1v-1h1h-1l-2,-2v-1l1,1h1l2,2v-1l-2,-1h-1l-2,-1l-1,-1h1v1v-1h-1l-2,-2l-3,-1l-1,-1h-2v-1h-1v-1h1l1,1l-2,-1h-2l-1,-1h1h-2v-1h-3l-1,-1h-1l-2,-1h-3v-1h-1h1h-1l-1,-1h1l1,1l-1,-1h-2v-1l2,1h6l2,2h4l2,1l-1,-1l-2,-1l-1,-1h-1l-1,-1h2l1,1h1v1h3l1,1h2v-1l2,1h3l-2,-2h5v1h3v1h1v-1h-3v-1h-1h1l1,1h1h-1h1l-2,-1v-1l-1,-1h3v1h3l1,1h1h-1v-1l1,1h2l1,1h2v1v-1h-1h1l1,1h1l2,1h1h-1l-3,-1v-1h-2l-1,-1h-1l-1,-1l1,1v-1h-2v-1h-1h1l1,1h1l1,1h2v1h2l1,1h2v1h2v1h2l1,1h2l2,1l1,1h1l1,1h2v1h1l1,1h1h-1v-1h-2v-1l1,1h2l1,1h1l1,1h2v1h1l1,1h1h1v1h1l1,1h2l2,2h2l2,2h1l1,1h1l1,1h1l1,1h1l2,2h1l1,1h1l1,1h1l1,1h1l2,2h1l1,1h1l2,2h1l1,1h1l2,2h1l2,2h1l2,2h1l2,2h1l1,1h1l3,3h1l1,1h1l3,3h1l1,1h1l3,3h1l3,3h1l2,2h1l5,5h2l1,1Z"/>
<path class="sp" d="M728,55h1l2,2h2l2,2h1l1,1h1l1,1h1l1,1h1l2,2h1l1,1h1l1,1h1l1,1h1l2,2h1l1,1h1l2,2h1l1,1h1l2,2h1l2,2h1l2,2h1l2,2h1l1,1h1l3,3h1l1,1h1l3,3h1l1,1h1l3,3h1l3,3h1l2,2h1l5,5h2l2,2"/>
<path class="sl" d="M278,52h1v-1v1v-1h1h-1l-2,2h-2v1h-1l-1,1h-1l-1,1h-1l-2,2h-1v1v-1h1v1h-1l-1,1h-1l2,-1h2v-1h1l2,-2v1l1,-1v1h-1l1,-1h1v-1h2l1,-1h1v-1h2v-1h1v-1h2v-1h1l1,-1h1h-1h1v-1h1l6,-3h2l1,-1h1v-1l2,-1h2l1,-1h2l2,-2h1l1,-1h1l1,-1h2l1,-1h2l1,-1h1l1,-1h2l1,-1h1l1,-1h2l1,-1h2l1,-1h1l1,-1h2l1,-1h2l1,-1h2l1,-1h2l1,-1h2l1,-1h2l1,-1h3v-1h1h-1v1h-3v1h-2l-2,1h-1h1l2,-1h-1v1h-1h1h-3v1h-1h1h-1l2,-1h1l-1,1h-2l-1,1l1,-1h3l1,-1h1h-2h2l1,-1h3l1,-1h2v-1h1l-1,1l1,-1h2l1,-1h1h-1h2v-1h3v-1h3l1,-1v1h-1h1v-1v1h-1h1h-1h1h-2v1h-1h1l1,-1h1h-1h1l-1,1h1v-1h1l-1,1h-3l-1,1l2,-1h1l-1,1h-1h2v-1h1h-1v1h1h-1l-1,1h-1h1h-1l-1,1h2v-1h2v1h-2l-1,1l1,-1h3v-1v1l1,-1v1h-3v1l1,-1h2l1,-1h1v1l1,-1h3l-1,1h-3v1h-3l-1,1h-2l-1,1h-3v1h-1h1h-1h2v-1h3l1,-1h1l2,-1h3v-1h1h-1v1h-1v-1h4v1h1l1,-1h3v1h-1l-1,1h-1h1l-1,1h1h-1l-2,1h-1l-5,2h-2l-2,1h-3l-1,1h-1l-3,1l-1,1h-1l-2,1h-1l-1,1h-2l-1,1h-4l-2,1h-4v1h-3l-2,1h-2l-2,1h-2l-1,1h-4l-1,1h-1l-1,1h-1l-1,1l-3,1l-1,1h-2l-4,2h1h-2v1h-1l-6,3l-1,1h-4l-2,1h2l1,-1h1l-2,2l-3,1l-1,1l-4,2h-1l-1,1l-2,1h-1l-1,1h-1l-1,1l-2,1h-1l-1,1h-2v1h-1l-1,1l-2,1l-1,1h-1l-1,1l-4,2h1l6,-3h2l2,-1h2l2,-1l1,-1h1v-1h2v-1h2l1,-1h1v-1h1v-1h1l2,-2h1l1,-1h1l1,-1h1l2,-2h3l1,-1h2l-1,1v1h-1v1h-1v1h-1v1h1h-1v1h1l-1,1h1h-1l-1,1h-2v1h-2v1h-3l-1,1h-1l1,-1h-1v1h-1l-2,2h-1l-1,1h-1h1h-1l-1,1v-1v1h-2v1h-1l-1,1l-2,1l-1,1h-1v1h-1v1h-1l-2,2h1v1h1l1,-1h1v-1h-1h1v1h-1v1l-2,1h-2l-2,1h-1h1v-1l-1,1v-1v1h-1v1h-1l-1,1h-1l-1,1h-2l-2,1l-1,1h-1l-3,1v1h-1l-1,1h-1h1v-1h1l1,-1h-1v1h-1l-1,1v1h-1l-1,1h1l-4,4h-1v1h-1l-1,1h-1l-1,2h-1l1,-1h-2v-1h1l2,-2h1h-1l-1,1h-1v1h-1v1l-1,1v1h1h-1v1h-1h1l-6,6h-1l-2,2h-1l3,-3h1l1,-1h-1v-1h1h-1v-1h1v-1l-1,1l1,-1h1h-1v-1h2v-1l-1,1v-1h1l1,-1h1h-1h1v-1l-1,1h-1v1h-1v1h-1v1h-1v1h-1v2h-1v-1v2h-2v-1v1v-1l-1,1v-1h1l1,-1v-1v1h-1v1h-1l-1,1h3v1l-1,1h-1v-1h-1h1v1h1v1h-1v1h-1v-1h-1v1h1v1h-1v-1v1h-1h1h-1l1,1l1,-1h1v1l-1,2v1v-3h1h-1v1h-1h1l-1,1h-1v1h-2v1h-1l-1,1h1l1,-1h1v1h-1h1l1,-1v-1h1v1h-1v1l-2,1l-1,1h-2l-1,1h-1h1v1h-1l-1,1h-1h1l2,-1v1l-1,1h-2v1h-1l-1,1h-1v1h-1l-1,1h-1v1l-1,1h-1v1v-1v1h-1l-2,1h-1l-5,5v-1v2h-1l-1,1h-1v1l-1,1h-1l-2,2h-1v1h-1v1h-2v1l-3,3h-1v1l-1,1v1h-1v1h-1v1h-1v1h-1v2l-2,4v2l-1,2l1,2l-2,2v1v-1l1,-1v-1v1h-1l1,-1v-1v1h-1v2l-1,6v1l-3,6l-2,2v1l-3,3h-1l-1,1v-1h1v-1l-1,1v-3h-1v-1l1,-1h-1v-1h1v-1v1h-1v-1l1,-1h-1v1v-3l2,-2v-1h-1v1l-1,1v-1l2,-2l2,-4v-1l-1,-1v-2h-1l-2,1l-1,1l-2,1v1h-1l-1,1h-1h1v-1l-1,-1h1v-1v1h-2l-1,1l1,-1h-1v1h-1l-2,1l-1,1h1v-1h1v-1l-3,3v-1v1h-1l-1,2v-1h1v-2l-1,1v1h-1v1l-2,1h-1l-1,1h-1v1l-1,1h-2l-2,2h2v-1h1v-1v1h-1v1h1v-1l1,-1v1h-1v1l-1,1h-1v1h2l-1,1v1h-1l-1,1l1,-1v-1h-2v1l-1,1v1h-1l1,-1h-1l-1,1v1h-2v1v-1l1,-1h-1v1v-1h-1l-1,1v1h-1l-1,1h-1l-1,1l-2,1v1v-1l1,-1l-1,1v1h-1v1l-3,2l-1,1l2,-1h-1v-1h1h-1v1l-1,1v1l-4,4l-1,2h-1v1l-2,2v-1l1,-1v1h-1l-1,1v1v-1v1h-1v1h-1v1l-1,1v-1v1h-1v1l1,-1l-2,2v1h-1v1l-1,2v1h-1v1h-1v1l-1,1v2h-1v3l-2,2l-2,3l-3,6l-2,3l-1,2l-1,3l-1,2v1l-2,2v2l-1,1v4h-1v1v-1l1,-1v-2l-1,2v3l-1,2v9h1l1,-1v1h1v1h1l1,-1l1,-2h1l2,-2v-1l1,-1h1v-1l1,-1h1l2,-2v1h-1h2v-1l2,-2h-1l1,-1l-1,1v-1l3,-3l1,-2l2,-3l1,-1v-1l1,-2v-1l1,-1v-1l2,-4l2,-1v-1l5,-3l3,-3h1v-1h2l1,-1h1v-1v1h-1h1v-1h1v2l-1,1v1l-2,2l-1,2l-2,2v2l-1,1v1l-1,1h1v-1v1l-1,1h-1v1h1l-2,4l-1,1v1l-1,1v1v-1h-1l1,-2v-1v1l-2,2v1h1v1h-1l-1,3l-1,2h1l-1,1v1l-1,1v1l-1,3l-1,1l-1,2l-2,3l1,1v-2l2,1l1,-1v-1h1l1,-1h1v-1h2l2,-2h1l3,-3h1l2,-1l1,-1h2l1,-1l2,2h-1l-1,1h3v-1h1v1h1l-1,1v1h-1v1h1l-1,2v2l-1,1l-1,2l-1,4l-1,2v4h-1v-1l1,-1l-1,1v1h-1l1,1v1l-1,1v1l-1,1h1v1l-1,1v1l-1,1v2l1,1v2l1,1l1,2l1,1v1h2v2l1,-1v1h-1v1h3v-1l-1,-1h1v1l1,1h1l1,-1h1l1,-2l9,-9h9v1l2,1v1l-1,1h1v2l1,1v1h-1v1h-1v1l-1,1h-1v-1v2l-1,1v1l-2,-1l-1,-2v-1l1,-1v-1l1,-1v-1l1,1h1h-1v-2l-1,1h-1v1h-1v-2h-1l-1,-1h-2l-2,2v1h-1v2l-2,3h-1l-1,1v1h-1v1h1v1l1,1v2h-1l-1,1v1l-2,1h-1v-4h-1v2h-2l-1,-2v-1v1l-1,-1l-1,1v-1l-1,1h-2v1l-1,1v1v-1h-1v-2l-1,-1l-1,1l1,1l-1,1h-1v-2l1,-1v-1l-1,-1v-1h-4v-2l-1,-1h-1v1h1v1l-1,1v1h-1v-1h-2v-3l1,-1v-2h-1l1,-1v-2h-1l-2,-2v-2l-1,-1h-1v-1l-1,-1h-1v-1h1v-1v1h1v-3h-1v1h-1v1l-1,1h-1l-1,1h-1h-2l-1,1h-3l-1,-1l-1,1l-2,1h-2l-1,-1h-1v-2l-1,-1v-1h-1v-1l-1,-1h-1l-1,-1v1h1h-1l-1,1l1,-1h-1v1v-1h-1v1h1l-1,1h-1l-1,3l-2,1l-2,3l-2,2l-1,-1l-2,2l-1,-1l-1,1v-1h-1l-1,1h-4v-2l-1,1h-1v1h-2l1,-1v-1h-2v-1l1,-1v-3h1v-2l1,-1v-2h1v-1l1,-1v-1l1,-1v-3l2,-3v-2l1,-1v-2l1,-1v-2l1,-1l-1,1l1,-1v-2h1v-1l-1,1h1v-2h1h-1v1l1,-2v-1l1,-1v-1h1v-1l1,-1v-1l1,-1v-1l2,-2v-1l1,-1v-1l2,-2v-1l1,-1v-1l2,-2v-1l1,-1v-1l2,-2v-1l1,-1v-1l2,-2v-1l2,-2v-1l2,-2v-1l2,-2v-1l1,-1v-1l1,-1h1v-1l2,-2v-1l3,-3v-1l2,-2v-1l2,-2v-1l2,-2v-1l1,-1h1l1,-1v-1l2,-2v-1l3,-3v-1l5,-5v-1l3,-3v-1l1,-1h1l1,-1v-1l3,-3v-1l2,-2h1l1,-1v-1l3,-3v-1l1,-1h1l2,-2v-1l17,-17v-1h1l4,-4h1v-1l3,-3h1l1,-1v-1l2,-2h1l3,-3h1v-1l3,-3h1l6,-6h1l3,-3h1l1,-1v-1l1,-1h1l3,-3h1l2,-2h1l5,-5h1l2,-2h1l3,-3h1l2,-2h1l4,-4h1l2,-2h1l2,-2h1l2,-2h1l2,-2h1l1,-1h1l2,-2h1l2,-2h1l1,-1h1l2,-2h1l2,-2h1l1,-1h1l2,-2h1l1,-1h1l1,-1h1l2,-2h1l1,-1h1l1,-1h1l2,-2h1l1,-1h1l1,-1h1l1,-1h1l2,-2h1l1,-1h1l1,-1h1l1,-1h1l1,-1ZM54,275h-1v1v-1h1v-1v1h-1v2h-1v2h-1v1l-1,1v1l1,-2v-1h1v-1l1,-1v-2l1,-1v-1Z"/>
<path class="sp" d="M313,36h2l1,-1h1l1,-1h2l1,-1h1l1,-1h2l1,-1h2l1,-1h1l1,-1h2l1,-1h2l1,-1h2l1,-1h2l1,-1h2l1,-1h2l1,-1h1M64,255l1,-1v-1l1,-1v-1l2,-2v-1l1,-1v-1l2,-2v-1l1,-1v-1l2,-2v-1l1,-1v-1l2,-2v-1l1,-1v-1l2,-2v-1l2,-2v-1l2,-2v-1l2,-2v-1l1,-1v-1l1,-1h1v-1l2,-2v-1l3,-3v-1l2,-2v-1l2,-2v-1l2,-2v-1l1,-1h1l1,-1v-1l2,-2v-1l3,-3v-1l5,-5v-1l3,-3v-1l1,-1h1l1,-1v-1l3,-3v-1l2,-2h1l1,-1v-1l3,-3v-1l1,-1h1l2,-2v-1l17,-17v-1h1l4,-4h1v-1l3,-3h1l1,-1v-1l2,-2h1l3,-3h1v-1l3,-3h1l6,-6h1l3,-3h1l1,-1v-1l1,-1h1l3,-3h1l2,-2h1l5,-5h1l2,-2h1l3,-3h1l2,-2h1l4,-4h1l2,-2h1l2,-2h1l2,-2h1l2,-2h1l1,-1h1l2,-2h1l2,-2h1l1,-1h1l2,-2h1l2,-2h1l1,-1h1l2,-2h1l1,-1h1l1,-1h1l2,-2h1l1,-1h1l1,-1h1l2,-2h1l1,-1h1l1,-1h1l1,-1h1l2,-2h1l1,-1h1l1,-1h1l1,-1h1l1,-1h1M52,278l1,-1v-2l1,-1v-1"/>
<path class="sl" d="M334,281v-2l1,-1l2,2l1,3v3l1,1l1,5l1,1v1l2,2v1h4l1,2v2l-1,1h-1v1l-2,1v1l-1,1l-2,4h-2v1l-1,1l-2,1v1l-2,2v1l-1,2v2l-1,1h-1v2h-3l-2,2h5l3,-3l2,-1l2,-2h1v-1l1,1l-1,1h1v3l1,1v1h1l2,1l1,-1h1l1,-1l1,1h1l1,-1l3,-1l-2,4v3h-1v1h1v-1l1,-1l1,-5h1l4,-4h1v1h1v-1h1h-1v-3l1,-1v-1h1v-1h1v-1l1,1l1,-1h3v-1h2l1,1h3l1,1h1l1,1h1l1,-1v1h2l1,1h3l1,2v1h1v-2h2l2,2h1v1h1v2h-1v1h-1l1,1l1,-1v-1h1v2h-1v2h-1v1l-1,3v1l1,-1l2,-1v-2l1,-2l1,-1l1,1l-1,1v1l2,-2h2l2,-1v-1h2l3,1h2l1,1l3,1h2l1,-1l1,1h7l4,-1h4l2,1l1,1h1l4,2l1,1l4,2l1,1h1l4,4l4,2l1,2h3l1,1h11v1h1l2,6l2,4v4l1,1v8l-1,1v3l-2,4l-1,3l-3,2l-1,2h-1v1l-1,2l-2,1l-1,2v1h-2l-1,1l-2,1l-1,3h-1v1l-1,1v1v-2l-1,2v2l-2,4l-2,3l-4,4h-1v-1l-1,-1v-1l-1,2h-1h1v1l-1,1v1l-1,1v2l-1,1h1v4l1,-1l-1,6v2l1,3v3l1,2l-2,6v5l-1,1v1l1,3l-1,2h-1l-1,1l-1,2v12l-2,2l-2,4v2l-3,3h-1v2l-2,4v1l1,3v1h-1l-4,2l-3,3v2h1l-1,1h-1l-3,1h-4v-2h-2v1l1,1v1h-4l-2,1v-1h2l-1,-1l-2,1h-2l-2,1h-1v1h1v1l-3,1l-1,2h-1l-1,1v1h-4l-5,4l-2,1l-5,5l-1,2h-1l-1,1h1v1l-2,2v-1h-1l-1,1h1l-1,1h-1l-1,-1l1,1h1l1,1l-1,2h-1v1h1v2l-1,1v1h1v3l1,1v2l1,1l-1,1l1,1l-1,1l1,2v5l-1,1v1l-3,3l-3,5l-2,9l-2,5v1l-1,2l-6,6v1l-1,1v-1l-1,-1h2l1,-1l1,-2l2,-2v-2h1v-2l1,-1v-3h1v-2h-1l-2,2l-3,-3v1l2,2h-1v4l-1,1v1l-1,2l-1,1h-1v8l-1,2v3l-1,3v1l-1,1l-2,4h-1v2l-1,2v1l-1,2l-1,1h-1v1l-3,2h-7l-2,2l-1,-1h-1l-3,-1l-2,-1h-3l-2,1v-1h-1l-3,-3l-1,-2v-1l-1,-3l1,-1v-1h1l-1,-1v-1l-1,-2l1,5h-1v6l2,2v4h1l1,1l4,1l1,1l2,1l2,2v1l-1,2v1l4,4l1,-1l1,1l1,2v2l-1,5l-2,3v3l-3,3l-4,3l-4,2l-1,1l-6,2h-1l-2,1h-4l-1,-1h-1v1l1,1v1l1,1h1v1l1,1v3h-1v1l1,2v2l2,1v2l-4,4h-6l-1,-1h-5v2l1,1v1l2,2l1,2v2l1,1h3v1h3v-1h-2v-1h1l1,-1h1l1,1v1l1,1v2l-1,1h-2v-1l-1,-1h-1l-1,1v1h-1v1h2l2,1v-1v1l-2,2v1l-1,2v1l1,1l1,2v2l1,1v1l-1,1v2h1v1h-1l-2,1h-1v2l-2,1v8h1v1l1,1h1l4,3h6l1,1v4h-1v1l1,-1h1v2l-1,2l-1,1v1l-1,1v2l-1,1v3h1v1l1,3v3h-2v-1h-1l-1,-1v1h1l-1,1h-1h3l1,1h-1v1l-1,1v1l1,2v2h1l1,2l1,1v1h-1h3l4,4h-4v3h-1l-3,3v1l1,1v2l2,2l1,2l-1,1h-2l-1,-1h-2l-2,-2l1,-1h1l1,1v1l-1,-2l1,-2v-2h-1l-1,2l-1,1v3h-3v-1l-1,-2v-1h2v-2h2v-1h-3v1h-2v1h1v4h-1l-1,-1h-1l1,-1v-2l-1,-1v1h1v1h-2l-1,1l-2,-2h-1v-1h-1v-1l1,1v-1l1,1l1,-1l-1,-1l1,1h1v-1h1v-2h1v1h1v1h1l-1,1h1v-1l-1,-1h-1v-2l-1,-1h-1l-2,-1v1h3v1l-1,1v1l-1,1l-1,-1h-2v-1v1l-1,-1h-1v-1l1,1l-1,-3h-5l-2,-2h-1l1,-1h1l-2,-2h2l2,2h1l1,1h1l-1,-1v-2h-1v-1v1l1,2h-1l-2,-2h1l-2,-1h-2v-2l2,-1h-2l-1,-1v-2h1h-1v-1h-1v-3h-1v1h1v3l-1,-1l-2,-4l-1,-1v-1h1v-1h-1v1h-1l-3,-3l1,-1h4v-1h-1v-1l-1,-1h-1l1,1v1l-1,1h-1l-1,-1h-1v-2l1,1l1,-1h-2l-1,-1v-2h1l-3,-3v1l-1,1l-1,-1h-1l-1,-1v-1v1l-2,2h1l1,1h-2v-4l1,-1v-1l-2,-2l1,-1h2v-1h1v-1h-1v-2h1v1l1,2v2h1l-1,1h-1l1,1v-1h1v-2l-1,-1v-1h1v1h1v1l1,3v1v-3l-1,-2l-3,-3h1l1,-2h1l-1,-1l-1,1l-1,-2v-1h1l1,-2v-2l-1,-1h-2l-1,-1h-1v-1l-1,-1h1l-2,-4v-4l-2,-2v-1h1v-1h-1l-1,-1v-1h1l1,2v-1l-1,-1l-1,-2v1h-1v-2l1,-1v-2h-1l1,1l-1,1h-1l-1,-1h-1v3h-3v-1h-1v-1l-3,-3v-1l-1,-3v-2l-1,-2l1,-2l-1,-3v-2l-5,-5v-1l-1,-2v-1l-3,-3v-2l-1,-1l2,-1v-3h-1v-1l1,-1l-1,-1v-7l-1,-1v-3l1,-2l-1,-1v-5l-1,-1v-7h-1v-1l-1,-2v-1h1l-1,-3v-2l-2,-5l-2,-2l-1,-3l-1,-1l-1,-2v-1l-1,-3l2,-2l-1,-2v-2l-1,-2l-2,-1l-1,-3l1,-1v-4l-1,-3v-3l1,-1l-1,-1v-5h-1v-6l-1,-2v-1h-1v-3h1v-3l-2,-3v-1l-1,-3v-2l-1,-1v-4h-1v-1l-1,-1v-2h1v-8l-1,-2v-6l-2,-4v-2l-1,-2l-1,-5v-1l-1,-1l-1,-5l-1,-2v-2h-1l-3,-1l-1,-1h-1l-2,-2l-1,-2h-1l-2,-1h-1l-1,-1h-1l-1,-1h-3l-1,-1h-2l-1,-1h-3l-3,-1l-1,-1h-2l-3,-1l-2,-2h-1l-1,-2h-1l-2,-1v-1l-2,-2h-1v-2h-1l1,-1v-4l-3,-3v-1h-1l-1,-2v-1l-2,-1v-1h-1v-1l-1,-2v-1l-3,-1v-2l-4,-5v-2l-1,-2l-1,-1l-1,-2l-1,-1v-2l-1,-1v-1l-1,-2l-3,-3h-1l-1,-3v-1l-1,-2l-1,-1h-1l-1,-1l-4,-1l-2,-1v-3l1,1v-4l-2,-2v-2l-1,-1v-4l2,-4l1,-1v-1l1,-2l2,-2v-1h1v-2l1,-3v-5l-1,1v1l-1,1v1l-1,1v1h-1l-1,-1h-1l-1,-1l1,-1v-7l-1,-1l1,-1l1,-2v-2l1,-1h1h-1v-1l1,-2v-1l1,-1v-7l1,-1h1v-1h1l4,-4v-2l-1,-1l2,-2h1v-5l1,-1h1v-1h1v-1h1v-2h1l1,-1v-2h1v-2l1,-1v-1l1,-1l1,-3h-1v1v-1l-1,1v-3l-1,1l1,-1v-1l1,-1v-7h-1l1,-2l1,-1l-1,-1v-2l1,-2v-1h-1l-1,-1v-1l-1,-1v-2l1,-1v-1h1l1,-1v-1h1v-1h1v-1l-1,-1v-2h-1l1,-1v-1v1h1v1l1,1h1v1h-1v1h1v-1l1,-2l-1,-1v-1l4,-5l1,-2l2,-2h1l1,-1v-4l1,-1v-1l-1,1l1,-1l1,-2v-1l1,-1v-1h1l2,-2v-1h3l-1,1v1h1v-1l1,-1v-1l1,-1v-1h2l1,-1l2,-1l5,-4l2,-1l1,-1l1,-2v-1h1v-1h1l2,-2h2v2l-1,1v1l-1,1l-3,2h-1v1l1,2l1,1h-1v1l1,1l-1,2l-2,2v1l-1,3v1l1,1h1l-1,1v1h2l1,-1h1v-1l1,-1v-1l1,-2v-1l-1,-1v-1h-1v-2h-1v-2h1v-1l5,-4h2l2,-2v-1h2l1,-1v-1h-1l-2,1v-3h1v-1h2v4h2l2,-1h4l1,1v1l1,1h-1v1l1,1h2l5,-2l1,-1l6,-2l2,2h1l2,1l1,-1l1,1l1,-1h1l5,-4l3,-1h1h-4l8,-3h2l1,-1h4l2,-1l-1,1h-1l-1,1l-3,1h-1v1h1v2h1v-1l1,2v1h1v-1h1v-1h2v1h1v1v-2h2l1,1h2l1,1h1l-3,3v2l-1,1v1h-2v1h1l1,-1h1l2,-1h2l1,-1h3l1,1h3l5,3l2,2v3l-1,2v2l-1,1h1v-2l1,-1v-1h4l1,1l2,1v1h2v1h1v2l-1,2h1v-2l1,-1l4,-1h2l2,1h1v-2h4l2,-1h9v2h-1v1l1,-2l1,-1l3,1h5l3,3h2v1l-1,1l1,-1l1,1h1v2l1,-1v-1l1,1v2h1v1Z"/>
<path class="sl" d="M969,525v5l-1,1v2l-1,1v4l-1,2v4l-1,1v4h-1v4l-1,2v3h-1h1v2h-1v2h-1v2l-1,1l-1,2h-1v2l-1,1v-1l-1,1v1h-1l-1,1h-1v1h-1v-1h-4l-1,1h-1l-1,1h-1v1l-3,3v1h-1v-1v1h-2l-2,2l-3,2v-1l-1,1v1l-1,3v4l-1,3l-1,2v3l-1,3l-1,1v2l1,-1v-1v2l-1,2l-1,1v2l-1,1l-2,4v1l-1,2v1l-2,1v1h-8l-3,1l-1,1v1h-1l-1,1v3l1,-1v-1v2l-2,4h-1v2l-2,2l-1,2l-3,4l-1,2h-1l-2,1v1h-1l-3,2l-8,8l-2,1l-2,2h-1l-1,1l-4,2l-2,2l-3,1l-4,2h-1l-4,2h-3l-2,-2h-1l-1,1v1h-1l-1,-2h-1l-1,1h-1l-1,-2l-2,-2h-2l-3,-3h-1l-3,1h-2l-1,-1h-1v-1l-1,1l-1,-1h-1l-3,2v-1l-2,-2v-3h-1v-2h1l-1,-1h-1l-1,2v-2l1,-1v-1h1v-1l1,-2v-1l-1,-1l1,-1l-1,-1l1,-1v-2h2l1,-1l1,-2l1,-1l1,-4l-1,-3v-4l1,-5v-3l1,-6l1,-4l-1,-3v-2l-1,-3v-3l-1,-6l1,-3v-3h1v-2l-1,-1l1,-3v-2l1,-2v-1l1,-1v-2l1,-2l-1,-2l1,-3v-2l1,-3v-1l1,-2v-3l1,-1v1v-1l1,-1v-5l-1,-4v-3l-1,-5v-7l-1,-2l-1,-12l-1,-2v-3l-1,-2v-3l1,-2v-2l1,-3l1,-1v-2l1,-4v-2h1v-1l1,-1l3,-6l1,-5l1,-2l1,-3l3,-2l1,-2l1,-1h2l1,-2l1,-1l1,-2v-3l1,-4v-3l-1,-2v-2l-1,-3v-5l-1,-2v-2h1l2,-1v-3l-2,-11v-2l-2,-4v-2l-1,-2h5v-1h-4l-1,-1v-6l-1,-2v-1h-1v-3l-2,-4l-1,-1l-1,-2l-1,-1v-2l-2,-2v-2l-2,-2l-2,-3l-1,-3l1,1h1h-1l-2,-2v-1l-1,-1v-1l-1,-1v-1l1,1l-1,-1v-1l-2,-4l2,3h1v-1v1l-1,-1v-1h-1l-1,-1v-2l-1,-1v-1l-1,-3v1l1,1h1v-1h1l1,-1v-6l1,1v1h1l1,1v1v-1h1h-1l-1,-2l-1,-1v-1h-1v-1h2v1v-4h-1v-3l2,-2v-9l1,-1v-1l-1,-1l-1,-2v-1l-1,-1v-1h1l-1,-1h1h-1v-1h-1l1,1h-2v-1h-1l-1,-1v-2l-1,-1l1,-1h-2v-1v1h-1v-2h-1v-1l-1,-1l1,2l-1,1l-1,-1h-3v-1l-1,-1v1h-1l-1,-1v-1h-1l1,1v1h-2v-2l-1,-1v2l1,1h-2v-1v1h-1v-1h-1v-1l-1,1l-1,-1h-1v-1l-2,-2v-1l-1,-1l-1,-2h1h-1v-2h1h-1l-1,-1v-1h1v1l1,-1h-1v-1l-1,1l-1,-1v-1l-2,-2l-1,-2l-2,-1l-2,-2l-5,-1h1l1,-1h-2v1l-5,-1l-3,-1h-8l-1,1v1h-2l-3,-1l-3,1h-3l-1,1h-6l-1,1h-1l-2,1v-1l-2,-1h-1l-2,-2h-2l-1,-1h1h-1l-1,-1v-1l-1,1l-4,-1l-1,-1h-1l-2,-1h-1l-1,1h5v1l-5,-1h-2l-1,-1h-2h2v1l-4,-1h-4l-4,1h-2v1h-3l-1,1h-2l-5,-3l-7,-5l-2,-1l-2,-3l-7,-6h-1l-1,-1h-1v-2l-4,-2l-4,-4h-1l-4,-2l-1,-1v-2h-2l-1,-1v-1l-1,-1v-1h-1l-1,-1v-1h-1v-1h1v1h1v-1h1v-1v1l-1,-1l-1,1l-1,-1v-1h2l-2,-2v-1l-3,-3h-1v-3h-2l-1,-1v-1h-1l-2,-1l-2,-2v-1l-1,-1v-1l-1,-1h-1v1h-1l1,-1h-1v-1l-1,1v-1h-1v-1h-1v-1h1h-1v-1h3v-1h-3l-1,-1l1,-1h2h-4l-1,1l-1,-1v-1h-3l-1,-1v-1h1h-2l-2,-1v-1h-1l1,-1h1v-1l-1,1l-1,-1h1l-1,-1v-4h1l1,1h2l1,1v-1h3l-3,-1l-1,1h-1l-1,-1v-1l-2,-2v-1h1h-1l-1,-1v-1l-3,-3h-1v-1h-1v1l-1,-1h1l2,-1l2,-2l2,-3h1l-1,-3l1,-2v-3l1,-1l1,-2v-5l-1,-2v-1l-1,-2l-3,-3h1l1,-1l-1,1l1,-2v-3l-1,-1l-1,-2h-2l-1,-1l-1,-2h-1v2l-1,-1l1,-3v-3l1,-2h2l1,-2v-1l1,-1l-1,-1l3,-3v-1h-1v1v-1l1,-1h1l3,-2h1l1,-1v-5l1,-1v-2l1,-1h1l2,-1h2v-1h1v-2l1,-1v-1l1,-1v-1h10l1,-1l4,-2h1l4,-4v-3l-1,-1h-1v-2l-1,-2l1,-1l1,-2v-2l3,-3h2l4,-1h4l1,-1l1,-3v-4h4v1l2,2l2,1h2l2,1h4v1h4l1,1h1l1,1h2l1,1h2l1,-1h2l1,-1h3l1,1h1v-1h9l2,1h3l4,1l6,1l1,1h1l2,2h4v-1h1l1,1l2,1h2l1,1l2,1h2l2,1h5v1h2v1h1l1,1v1h4v2h-1v1l2,2h1v1l2,1l2,2v2h-1l-1,1v1l2,1l2,2h1v1h2v1l1,1h1v1h1l1,1h1l1,1l3,2h1l2,1h1l1,1l2,1h1l2,2h1l1,1h1l3,2l6,6v1l1,1l4,2l1,1l4,2l5,3l5,5h1l1,1h1v-3l-3,-3l-1,-2v-2h4l1,1h1l3,3h1l2,2v1l1,1l3,2l1,1h1l2,2h1v1h1l1,1v1l1,1h1l1,1l3,2l3,3l2,1l4,4l2,1l1,1v1h3v-1v1h1h-1l1,1h1h-1v-1l3,3h1l1,2l-1,-1v1h1v1h1l-1,-1l2,2v1h2v1h1v1h1v1h1l1,2l1,1l1,2h1v1l1,2l2,2l1,2l1,1v1l2,3l1,2l1,1v1l-2,-2l-1,-2l-3,-3v-1h-1l-1,-2v-1l-3,-3l-2,-4v2l3,3l1,2l1,1v1h1v1l3,3l1,2l2,2v1l1,1v1l2,2l2,3v1l5,7l1,2l5,8l1,2l2,2l1,2l-1,-1v1l3,6l1,1v1h1l2,4l2,3l1,1l1,2v1l2,3v1l1,1l-1,-1l1,1v1l1,1v1l1,1v2l1,3l1,1l2,4l1,3v1h1l1,2v1l1,1v1l2,2v1l3,8l2,3l1,4l2,4v2h1v1l1,2v1v-2h-1v-1l1,1v2l1,1v1l1,1v1h1v2l2,2l1,4l4,9v2l2,4v1v-1v1l1,1l1,2v5h-1h1v1h1v1l1,2l3,9v1l1,2h1l1,1v1l1,1h1v2h1v2l1,1v1h1l-1,-1l1,2v2l1,1v3l1,3v2l1,1l-1,-1v1l1,2v2l1,2v8l1,2v22l-2,7l-2,1l-1,1l-1,2v1l-1,1l-1,4h-1v1l-1,1v3l-1,1v2l-1,1l-1,-1v1v-1v3l-1,1v-1h-1v5h-1v1l-1,2v2l-1,2v1h-1v4h-1v3l-1,2v6l1,1v5l-1,1v6l-1,1v12l-1,2v4h1v3Z"/>
<path class="sl" d="M979,357v-1h-1l1,1v1v-1h-1v-1v1l-1,-1l-1,-2v-1v2l-1,-1v1v-1h-1v-1l-1,-1v-1l-1,-1l-2,-7v-2l-1,-1v-2l-1,-1v-2l-1,-1v-2l-1,-1v-2h-1h1l-1,-3l-1,-2l-1,-3v-2h-1v-2l-1,-1v-2l-1,-1v-1l-2,-3l-1,-2v-2l-1,-2l-1,-1l-1,-3l-1,-1v-2l-2,-4l-1,-1v-1l-1,-1l-1,-2l-1,-3l-2,-2v-1l-2,-4l-2,-3v-2l-1,-1v-1l-1,-1v-1l-1,-1v-1l-1,-1v-1l-1,-1v-1l-2,-2v-1l-1,-3l-1,-1l-1,-2l-2,-2v-1l-2,-2v-1l-1,-1l-1,-2l-1,-1v-1l-1,-2l-2,-3l-1,-1v-1l-2,-2l-2,-4l-2,-2l-2,-4l-1,-1l-2,-3l-2,-2v-1l-1,-1h-1v-1l-1,-1v-2l-3,-3v-1l-1,-1l-1,-2l-2,-2l-1,-2v-1h-1l-1,-2l-1,-1l-1,-2l-1,-1l-1,-2l-1,-1l-2,-4l-1,-1h1v1v-1v1v-1v1v-1v1v-1h-1v-1h-1v-1l-1,-1v-1l-2,-2v-1l-3,-3v-1h-1l-1,-2l-3,-3v-1h-1v-1h-1v-1l-1,-1v1v-1v1l-3,-3v-1v1l-1,-1h-1l-2,-2v-1l-2,-1v-1l-1,-1l-3,-2l-2,-2l1,2l1,1l-1,-1h-1l-4,-4v-1h-1l-2,-2h-1v-1h-1l-1,-1l1,1v-1l-2,-1l-1,-1h-1h1v-1h-1l-3,-3v-1h-1l-3,-3h-1v-1h-1h1h-1l-1,-1h1l1,1v1h1l-1,-1l1,1h1h-1l-2,-2v-1h-1v-1l-2,-1v-1h-1l-1,-1h-1v-1l-2,-2v-1l1,1h1v1l1,1h1l-1,-1l3,3h1l1,1l-2,-2v1h2l1,1h-1l-1,-2h-1l-2,-2l3,2l1,1l2,1l1,1h-1h2v1l3,2l8,8h1v1l15,15v1h1l2,2v1h1l1,1v1l6,6v1l7,7v1l3,3v1l6,6v1l3,3v1l2,2v1h1l1,1v1l3,3v1l3,3v1l2,2v1l3,3v1l1,1v1l3,3v1l1,1v1l1,1h1v1l1,1v1l1,1v1l3,3v1l1,1v1l1,1v1l3,3v1l1,1v1l2,2v1l1,1v1l1,1v1l2,2v1l1,1v1l1,1v1l1,1v1l2,2v1l1,1v1l1,1v1l1,1v1l1,1v1l2,2v1l1,1v1l1,1v2l1,1v1l1,1v1l1,1v1l2,2v2l1,1v1l1,1v1l1,1v2l1,1v1l2,2v2l1,1v1l1,1v2l1,1v1l1,1v2l1,1v1l1,1v2l1,1v1l1,1v1l1,1v2l1,1v2l1,1v1l1,1v2l1,1v2l1,1v2l1,1v2l1,1v2l1,1v2l1,1v2l1,1v3l1,1v1l1,1v1Z"/>
<path class="sp" d="M842,135l7,7h1v1l15,15v1h1l2,2v1h1l1,1v1l6,6v1l7,7v1l3,3v1l6,6v1l3,3v1l2,2v1h1l1,1v1l3,3v1l3,3v1l2,2v1l3,3v1l1,1v1l3,3v1l1,1v1l1,1h1v1l1,1v1l1,1v1l3,3v1l1,1v1l1,1v1l3,3v1l1,1v1l2,2v1l1,1v1l1,1v1l2,2v1l1,1v1l1,1v1l1,1v1l2,2v1l1,1v1l1,1v1l1,1v1l1,1v1l2,2v1l1,1v1l1,1v2l1,1v1l1,1v1l1,1v1l2,2v2l1,1v1l1,1v1l1,1v2l1,1v1l2,2v2l1,1v1l1,1v2l1,1v1l1,1v2l1,1v1l1,1v2l1,1v1l1,1v1l1,1v2l1,1v2l1,1v1l1,1v2l1,1v2l1,1v2l1,1v2l1,1v2l1,1v2l1,1v2l1,1v3l1,1v1l1,1v2"/>
<path class="sl" d="M706,44l1,1l-1,-1h-2l-1,-1l1,1l-1,-1l1,1h1h-1l-1,-1h-2v-1h-2l-1,-1l-2,-1h-1h1h-1l-1,-1h-1l-1,-1l-3,-1h-2v-1h-2l-1,-1h-1l-1,-1h-2v-1h-2l-1,-1h-1h1h-2l-1,-1h-1h1l1,1h2l1,1h1l1,1h2l1,1h1l1,1h2l1,1h1l1,1h2l1,1h1l1,1h1l1,1h2l1,1h1l1,1h1l1,1h1ZM672,30v1h1h-1l-1,-1h1v1v-1h-1l1,1v-1h-3l-1,-1h-3v-1h-1l-2,-1h-2l-1,-1h-1h1l1,1v-1h-3v-1h-3v-1v1h1l-1,-1l1,1h1h-1l-1,-1h-1h1h-1h1h-2l-1,-1h-2l-1,-1h-1h1l1,1h2l1,1h2l1,1h2l1,1h3l1,1h1l1,1h2l1,1h2l1,1h1ZM648,22h-3v-1h-1h1l1,1h2l1,1Z"/>
<path class="sp" d="M673,31h1l1,1h2l1,1h1l1,1h2l1,1h1l1,1h2l1,1h1l1,1h2l1,1h1l1,1h1l1,1h2l1,1h1l1,1h1l1,1h1M650,23h1l1,1h2l1,1h2l1,1h3l1,1h1l1,1h2l1,1h2l1,1h2M645,21l1,1h2l1,1"/>
<path class="sl" d="M965,328v1ZM969,339h-1v-1ZM263,255h-1h1v-1h1v1ZM242,245v2h-1v1h-1v-1h-1l-1,1v-1h1v-1h1v1h1v-1ZM232,250h-1v-1h1ZM262,257h-1v-1h2ZM244,197h-1ZM245,196v1h-1v-1ZM243,200h2l-1,1h-1ZM235,198h3v1h-1v1h-1l-2,2h-3l-1,1h-3v-1h1l-1,-1h1v-1h1l1,-1ZM239,199v1h-1v-1h2ZM223,204h-1ZM256,85h-1h1l1,-1h1l1,-1l-3,2h-1l-1,1l-3,1l-2,1l-1,1h-1h1v-1v1h-1v-1h2v-1h2v-1h2l1,-1h2l1,-1h-1ZM290,64l-1,1h-1h1v-1ZM246,90h-1l1,-1h1h-1ZM267,80h-1ZM264,80v1h-1h1v-1h1ZM270,79l-1,1h-1l1,-1ZM220,117l-1,1l2,-2v-1l1,-1v1h-1v1ZM218,118l-1,1ZM212,122l1,-1l2,-1l-1,1ZM158,181h-1ZM158,180v1ZM162,185l-1,2v-1h1v-1h1v-1h1ZM125,187h-1v-1h1ZM100,211v-1h1v-1v1ZM102,208l1,-1v-1h1l-1,1ZM97,215l-1,1l2,-2l1,-2l1,-1l-2,3ZM111,197v1l1,-2h1v-1l-1,1ZM93,222v1l3,-6v-1l-2,6ZM263,81v-1h1ZM243,93l-1,1ZM230,104l1,-1ZM156,190v1ZM159,188h1ZM160,187h1ZM158,189v1h-1l1,-1h1ZM175,153l-1,1ZM155,191l-1,1ZM170,172h-1l1,-1v-1ZM154,192h-1ZM142,173h-1ZM137,176v1h-1h1ZM138,177h-1l1,-1ZM154,168v1h-1h1v-1h1ZM287,66v-1ZM714,455h1ZM651,376v-1l1,1ZM47,709v-1ZM257,194l-2,1l1,-1ZM360,747h2v1h1v-1h1l1,1h1v1h-1l-1,1v1h-2l1,1v1l-3,-1v1l1,1h-1v1h-1l-1,-1v-2l1,-1v-1h1l-1,-1l1,-2h-1ZM353,750h1v-1h2l1,-1h1v2h-1v3h-2v2h-3v-1l1,-1h1v-1h-1v-1h1l-1,-1h-1l-1,-1h1ZM351,753h1v1h-1v-1h-1ZM364,752h-1ZM354,749h-1v-1h1ZM359,755h-1v-1ZM143,225h1l-1,1ZM151,220h-1ZM152,219h1ZM272,113v1v-1h1ZM247,195h1ZM246,196h-1ZM248,193h-1ZM205,187h-1v1v-1ZM201,188h1h-1v1h-1ZM261,203h-1l1,-1ZM664,40h-1ZM661,39h-1ZM636,25h-1ZM653,33h-4l-1,-1h-2v-1h-4l-1,-1h-1v-1l1,1h3v-1h-2v-1h-2l1,-1l1,1h4v1h1h-1v-1h-2v-1h-1h1h-1v-1h-3l-1,-1h-1h2l-2,-1h-4l-1,-1h-2v-1h-1l-1,-1h1h-3l-1,-1h1h-1l1,1v1v-1h-1l-1,-1h-1v-1h-3l-1,-1h1v1h1l-1,-1h-1l-1,-1h1h-1h2h-2v-1h1v1h4l1,1h1h-1h1v1h4v1h4l1,1h1v1h1h-3l2,1h2l2,1h2l1,1h1l1,1h1l2,1h1l2,1h2l1,1h1l1,1h-1h1l1,1h1h-1v-1h-1l3,1l1,1h1v1h4v1h2l1,1h1l1,1h1l-1,1v-1v1l-1,-1h-1l1,1h1h-1l1,1h3v1h-3l-1,-1h-3l-1,-1h-2l-1,-1h-1l1,1h-1v-1h-4l-1,-1h-3v1l-1,-1h-3v-1h-3v1l-1,-1h-1h1v-1h2v-1l2,1h2l1,1v-1h2ZM640,27h1h-2ZM626,17h1ZM627,17h-1ZM626,17h3v1l-1,-1h-2l-1,-1h1ZM627,17h-1ZM626,18l-1,-1h-1h1Z"/>
<path class="sl" d="M627,18h-1ZM625,17h1v1h1h-1v-1h-2ZM626,17h-1ZM619,18h-1ZM629,22h-1v-1h-1h2ZM623,19h-3v-1v1h2ZM623,20h1h-2ZM624,20h-1h1h-1ZM615,16h-1h1h-2l-1,-1h2ZM619,18h-1ZM618,17h1v1h1h-2v-1h-1ZM613,16h-1ZM614,17h-1v-1ZM628,24v-1h-3v-1h-5l-1,-1h-1h7l1,1h2l1,1h-1h2v1h1h-2ZM664,37h-1ZM825,124h-1v-1v1ZM782,120v-1ZM784,125l-1,-1v-1l1,1ZM265,240l2,-2v1ZM263,248h-2l-3,1h-1l1,-1h1v-3h-1l1,-1h1l2,-1h1l1,-1l-1,2v3ZM972,487v2h-1v-5l1,-1v3ZM974,478v3l-1,1v-4ZM971,502h-1h1v-1ZM708,46h1h-1v-1h-1l-1,-1l1,1Z"/>
<path class="sp" d="M706,44l1,1"/>
<path class="sl" d="M717,84h-1ZM722,82h2v2h-1l-1,-1h-1v-1h-2l-1,-1h4ZM728,83l-2,-1h-1h2ZM715,83h-1v-1h2v1ZM620,114v1h-3l-1,-1v-1h5ZM638,113v-1h2v1ZM636,117h-1l1,-1v-1l1,-1h1v2ZM627,116v1h1l-1,1h-1l-1,-1h-1v-1h1v-1ZM614,115h-1v-1h2v1ZM609,116h-1l1,-1ZM609,112l-2,-2h2v1ZM667,255h-1l-3,-2h3v1h1ZM998,530v-2ZM922,239l-2,-2v-1v1l1,1ZM961,316v1v-1l-1,-1v-1v2ZM920,236l-1,-1h1ZM819,334h-1v-1h1ZM813,344h-1v-2h2v1ZM264,226h-1v-1h1ZM263,227v1v-1h1ZM262,230v-1ZM267,221l-1,1h-1v-1l1,-1v-1h1v1ZM258,200h-1ZM608,90h4v1h-2l-1,-1ZM550,67h-1l-1,-1h1ZM507,55h-1ZM535,59h-2l-1,-1h3ZM530,59h-3l-1,-1l3,1ZM524,59h-1ZM527,59l1,1h-1l-1,-1h-1h1ZM545,63h-1l-1,-1h1ZM140,299h-1v-1h1ZM123,313h-1v-1l1,-1v1ZM122,299v1l-1,-1ZM139,300h-1l1,-1ZM646,22h-1v-1v1ZM650,23h-1ZM817,312h-1v-1h1ZM685,42h-1v-1h-1h1ZM685,39l-1,-1ZM684,38h-1ZM681,38h-1v-1h1ZM681,38v-1l1,1ZM681,38h-1ZM682,40l1,1l-1,-1h-1ZM212,246v1v-1h-1v-1ZM201,248v-1h-1h1ZM209,248h-2l-1,-1v-1l1,1h1ZM117,233v1v-2h1v-1v1ZM52,281v1v-1h1ZM36,316h-1h1v-1ZM56,271v-1Z"/>
<path class="sp" d="M56,271v-1"/>
<path class="sl" d="M120,226v1ZM92,258h-1l2,-2v1h-1ZM54,273v1v-1h1v-1ZM968,660v-1l1,-1v-1l1,-1v1l-1,1v2ZM628,165v1l-1,-1h1v-1ZM795,121l-1,-1ZM793,119h-1ZM950,520h-1l1,-1ZM950,519h-1v-1ZM983,571v5l-1,1v5l-2,7l-1,2v4l-2,4v1l-1,1v-1l1,-1v-3l-1,1v4l-1,1v2h-1v2h-1v1l-1,1v1l-1,3v1l-2,4v1l-3,6l-2,3l-1,2l-1,1l-1,3l-2,3l-1,4l-3,3v1l-1,2l-1,1l-1,2l-1,3h-1v1l-1,2h-1v2l-3,3h-1v-1h-3v1l-1,-1v-9l1,-1v-2l1,-2v-2l1,-1l1,-2v-1h1v-2l1,-1v-4l1,-1v-3h1l1,-2v-2h1v-1l1,-2h1l1,-1v-1l3,-3v-2h1v-1l1,-2v-1l1,-1v-4l1,-1v-2l1,-1v-2l1,-3v-1l1,-1v-2l3,-4v-1l1,-2v-1l1,1l1,-1v1h1v1v-1h1v2l1,-1v-1h1l1,-1v1l-1,1h1v-2h1v-2h1v1h-1v1h1v-1h1v-3l1,-2v-2l1,-1v1h1v-1v1l1,-1v-2l1,-1v-3l1,-1v-1v3ZM980,574v-1ZM974,607l-1,1l1,-1v-1ZM978,460v-1h1v1ZM164,222h1v-1h1l1,1h2v1l-1,1h-2l-1,1h-1l-1,1v1v-1h-1l-1,1h-1v-1h-1v-1l-1,1l-1,-1h1v-1h1l1,-1h1l2,-1ZM748,81h1h-2v-1v1ZM791,111v3h1v1h1v1h1v1l1,1l-1,-1h-1l-1,-1h-1l-2,-2h-1v-1h-1l-2,-1l-2,-2h-2v-1h-1l-1,-1h-1v-1h-1v-1h1l1,1v-1l1,1h1v1h2v1h1l2,1h2l1,1v-1l1,1ZM752,88l2,1v1l4,4v1h-1l-1,-1h-1l1,1h-2v-1h-1l-2,-2v-1h-1h1l-1,-1h-1v-1l-2,-2h-1v-1h-1v-1l1,1h2v-1h1v1h1l1,1h1ZM753,94h-1v-1ZM745,85h-1v-1h1ZM891,193l1,1h-1ZM611,21l-1,-1ZM621,21h-2l1,1h5v1h3v1h1h-1h1l1,1h1l1,1h1v1h-1l1,1h-1v-1h-14l1,-1h-3v-1h-1h1h-1l-1,-1h1v1h1v-1h3l1,1v-1h-3v-1h-1h-1v-1h-3v-1v1h1l-1,-1h1h-2v-1h-1h2l1,1h3l-1,-1h6ZM536,1h2v1h11l1,1h9l1,1h6l1,1v-1h-1h1h-10l-2,-1h-10v-1h-8l-1,-1h-1h1l2,1l-1,-1h-1h1h-2Z"/>
<path class="sp" d="M545,2h3M549,2l1,1h9l1,1h6M534,1h2"/>
<path class="sl" d="M111,259l-1,1h-1h1l2,-2ZM114,257l-1,1v-1ZM200,201v2l-1,1h1v1h-1l-1,1l1,1l-2,2h-1h1v1l1,1h-1v1h-2l-2,1h-1l-1,1h-4l-1,1h-1l-1,1v1l-1,-1h-2v-1l1,-1v-1h4l5,-1l1,-1l2,-1v-1l-1,-1h-1l1,-1v-1l1,-1h-1l-1,-1l-2,1v-1l1,-1h1l1,-1h4l2,-1ZM192,209l-1,1h-2v-1h2ZM195,201h-1ZM636,224h-1l1,-1ZM637,224v1ZM639,224h-1l1,-1ZM640,222l-1,-1h1ZM637,222h-1v-1h1ZM636,219h-1ZM259,235h-1h1v-1h1ZM848,147l-1,-1h1ZM812,121h1v1h1v1l-1,-1h-1v-1h-1h1v-1h-1ZM816,124l1,1h-1l-1,-1h-1v-1l1,1ZM811,120v-1h-1h1ZM813,121h-1v-1v1ZM805,115h1l-1,-1h-1v-1l-2,-1h1v1h1v1h1ZM821,124v1h1v1h1l1,1h1v1h1l1,1v1h1v1h1v1v-1h-1v-1h-1v-1h-1v-1h-1l-1,-1h-1v-1h-1v-1h-1l-1,-1h-1v-1h1v1ZM821,124l-1,-1ZM822,124h-1ZM826,128v-1h-1v-1v1ZM818,119l-1,-1h1ZM826,130l-1,-1h1ZM831,138h1l-1,-1h-1v-1l1,1ZM850,151l-1,-1v-1v1h1ZM843,143v-1h-1h1ZM844,144h1ZM838,139h-1v-1ZM840,142h-1ZM839,138l1,1h-1v-1h-1ZM837,137l1,1h-1ZM840,141h-1h1v-1ZM843,143v1l-1,-1ZM831,133h-1ZM832,135v-1h-1h1ZM835,138h-1ZM833,135l1,1h-1ZM832,134l-1,-1ZM834,135v1v-1h-1v-1h-1h1v1ZM835,138l-1,-1ZM834,134l-2,-2h1v1ZM830,129l2,2h-1h1l-1,-1h-1v-1h-1v-1h-1h1ZM822,122l-1,-1h1ZM823,124h1h-1v-1h-1h1ZM835,137v-1ZM833,136v-1ZM851,150h-1v-1h-1v-1h1v2ZM837,143h1l2,2h1v1h1l1,1h1l2,2v1h2v1h1h-1l-1,-1h-1l-2,-2h-1v-1h-1l-1,-1l-2,-1l-1,-1h-1v-1l-1,-1h1v1v-1h-1h1ZM709,46v1h1l-1,-1h-1h1h-2l-1,-1h1l1,1ZM713,48v1v-1h-2v-1l1,1ZM700,43h-1v-1v1ZM687,38l-1,-1v1h2ZM689,39l-1,-1ZM744,79v1h1l2,2v1l1,1v1l-1,-1h-1l-2,-2h-1v-1h-1v-1h-1v-1h2l-1,-1h1v1ZM679,52l-1,-1ZM975,561v-2h1v-1v2h-1ZM965,660v-2h1v-2l1,-1v2l-1,1v2ZM268,216v1h-2v-1h1h-1l-1,-1v-1h2v1h1ZM266,205h-1v-2l2,2ZM264,207h-1v-2h1ZM266,207v-1l1,1ZM361,41h-1ZM360,41v-1h1v1ZM256,195l-1,1ZM257,196h1ZM958,315h-1v-1ZM959,318v1v-1h-1v-1v1v-1ZM827,320h1v1l-1,2v1h-1l-1,-1v-1h1v-2ZM129,391h-1v-1l1,-1v-1h1v1l-1,1ZM136,354h-1l1,-1ZM75,401h-1v-1h1l1,-1v2ZM80,400h-1v-2h1v1ZM70,402h-1v-1h1ZM75,406h-1l1,-1ZM71,398v1l1,1v2h1v2l-1,2h-2v-1l2,-2v-1h-1v-1l-1,-1v-1h-1l2,-2ZM74,399h-1v-1h1ZM197,212v-1h1l-1,-1v-1h-1h1l2,-2l-1,-1l1,-1h1v-1h-1l1,-1v-3h1l1,-1h2l1,-1h7v2l3,-1l-1,1h-1v1v-1h5l2,1v1l-2,2v1h-1v-1h-3l-1,1h-2l-1,1h-1l-1,1v1h-4l-1,1h-1v1h-1v1l-1,1l-1,2h-2v-1Z"/>
<path class="sl" d="M265,212l-1,-1v-2h1l1,1v1ZM492,0h-13l-1,1h-1h1v-1v1h-12l-1,1h1v-1h2v1h-7l-1,1h-1h1h-2l-1,1h-2l-1,1h-5v1h-1v-1v1h-1v-1h1h-1l-1,1h-2v-1h1h-3v1h-1v-1h1h-2l-1,1h-7l1,-1l-1,1h-3l1,-1h1h-1l-1,1h-2v-1h1h-1h6l1,-1l-1,1h-6l-1,1v-1h6l1,-1h7l1,-1h8l1,-1h11l1,-1h15l1,-1h13Z"/>
<path class="sp" d="M427,5h5l1,-1h7l1,-1h8l1,-1h11l1,-1h15l1,-1h14"/>
<path class="sl" d="M482,0h1ZM441,5l-1,1h-2l2,-1ZM602,11h-1ZM603,11h-1ZM599,10h-1ZM600,10l1,1l-1,-1l1,1l-2,-1h-1h1ZM601,11v-1h-1ZM698,41v1h2v1h1h-1l-1,-1h-1v-1h-2l-1,-1h-2v-1v1h1v-1h-1l1,1h1h-1h2v1h1ZM692,40l-1,-1h-1l-1,-1h-2v-1v1l-1,-1h-1l-1,-1h-1l-2,-1h-1l-1,-1h-1h3v1v-1h-3v-1h-1h2l1,1h2v1h2l1,1h1l1,1h2v1v-1h-1v1h1h-1v-1v1h2v1h2ZM692,39l1,1h1h-1l-1,-1h-2v-1l1,1ZM698,42h1l1,1h1h-1l-3,-1v-1ZM696,41h-1ZM702,43h-1ZM695,41l-1,-1h-1h2ZM693,40h-1l-1,-1h1ZM691,39v-1h-1h1ZM685,36v-1ZM710,47v-1h-2h2ZM874,171v-1h-1v-1h-1v-1h-1v-1h-1h1h-1v-1v1h1l1,1h1v2h1ZM870,167h1v1h1v1h1v1h1v1h1h-1v-1v1l-1,-1v1h1h-1v-1h-1v-1h-1v-1l-1,-1v-1ZM150,201h1l1,-1h1h-1h2l2,-1h2v-1l1,1l1,-1l-1,1h1v1h2l1,-1h4l1,1h2v-1l1,1v1h-1h1h-1h1l1,-1v1h1h-1h6l1,-1v1l-1,1h1h-1v1l1,-1h3l1,-1v1h1l1,1l1,-1v2h-2l-1,1l-2,1l-1,1v-1l-1,1l-2,1h-1l-2,1h-1l-2,1h-1l-1,1h-1l-2,2h-2l4,-4h1v-2h-2l-2,1h-1l-1,-1h-1l1,-1v-2h-1l-2,1l-1,1h-4l-1,-1l-3,1v-1l-1,1v1h-4l1,-1h1v-1h1v-1h-1v1l-4,2h-1l-2,2v1h-1l-1,1v1h-1l-2,1v1h-1v1l-2,2h-1l1,-1h-1v1h-1l2,-2h1v-2h1v-1l2,-2l5,-4l5,-3l1,-1ZM169,199v1v-1h-1h1l1,-1ZM168,198h-1v-1h1ZM165,198l1,-1h1v1h-1ZM168,199v-1h1ZM142,213l-2,2h-1l1,-1v-2h2ZM162,199h-1l-1,-1h1ZM775,91l1,1h1l1,1h-1v-1h-2ZM777,92l-2,-1h-1l-1,-1h1l2,2ZM775,90h-2v-1v1h2v1ZM764,84h1h-2ZM759,80h-1v-1h-1l-1,-1l1,1h1ZM760,81h-1v-1ZM763,83h-1v-1h-1l-1,-1h1v1h1ZM765,85l-2,-2h-1h1ZM765,85h1ZM759,80v1l-2,-2h-1v-1v1h1l1,1ZM780,94l1,1l-2,-1ZM785,97h-1l-1,-1l-2,-1l-1,-1l-2,-1l-1,-1l3,2h1v1h1l1,1h1ZM742,286h-1ZM976,551v1l-1,1v-2ZM974,551v-1ZM974,546v-4h1l-1,2v1ZM141,342l-1,-1h1ZM66,670v1v-2ZM197,641h-1h1v-1ZM320,768l4,8l3,3l1,3l1,1h-1l-1,1h-2l-1,-1v1h-1v1l-1,-1l-1,1h-7l1,-1h-1h2v-1h2v-1l1,1h2l-2,-1l-1,-1h-1l-1,-1v-3l1,2h1l-1,1h1l1,1h1v1h1v-1h4v1v-2h-5l-1,-1v-1l-1,-1l2,-2v-1h-3v1h-2l-1,-1v-2h1l-1,-1h-1v-1h1l1,1v-3l1,-1l2,1l1,-1ZM336,783l1,1h-1v1l-1,-1l-1,1h-2v-1h-1v-1h1l2,-1h1ZM259,707h-4v-3l-1,-2l-1,-1v-1l-1,-1v-3h-1v-1h3v1h1v1h1v2l1,1h-1v1h-1h1v1h1l1,1h1v1l-1,1v1ZM280,751l1,1v1l1,1v1h1v2h-1l-1,-1v-1h-1v-1v2l1,1h-3v-3h-1v-1h1l-1,-1v-2l-1,-1v-1h2ZM274,750h-1l-1,-1v-2l-1,-1v-1h-1l1,-1l4,4v1h-1Z"/>
<path class="sl" d="M297,777h5l1,1h1v1h-2v-1h-4l-1,-1h-2v-1h1ZM277,747h-1v1l-2,-2h-1v-1h-1v-3h1v1l1,1h1v1h1v1ZM306,779v1l1,-1h1l1,1h1v3h-2v-2l-1,1v1h-1v-1l-1,-1v1l-1,-1h-2v-1l1,-1l1,1l1,-1ZM290,769l2,2h1v2h-1l-3,-3h1l-1,-1ZM325,785h4v-1h2l-1,1h2v1l1,1h1l1,1h-1l-1,-1h-3v-1h-2v1l1,1h-2v-1h-2v-1l-1,-1ZM314,781h2l1,1v1h-1l-1,-1l-1,1h-1l-1,-1h-1v-1l2,-1v1ZM263,715l-1,1v1h2v1l1,1v1h1v2h-1v-1h-2l-1,-1v-1h-1l-1,-1v-2h1v-2h-1l1,-1l1,1h1ZM268,716l-1,1h-1l-1,-1v-3h1l1,1h1v1ZM259,721l-1,-1h1ZM283,763l1,1h-1v-1h-1v-1l1,-1v1ZM276,750v3h-1v-2h-1v-1h1v-1ZM271,742v1v-1h-1l1,-1h1ZM255,710v1v-1h-1ZM265,718l-2,-2h1l1,1ZM289,766v2h-1v2l-1,-1v-2h1v-1ZM283,760l-1,1h-1v-2h-1v-1h2l1,1ZM260,710l1,1h-1ZM294,770h-2v-1h1ZM266,725v1h-2v-2l-1,-1v-2l1,1l1,2ZM338,789h-2l1,-1h1ZM339,783v1ZM320,786h2l1,1h-4v-1v1h-1v-1h1ZM338,788h-1v-1h1ZM558,177l-1,1v-2h2l1,1h-1ZM573,191v1h-2l-1,-1v-1h1l-1,-1h1l1,1ZM561,178l-1,1l-1,-1h1ZM577,183h2v2h-2v-1ZM566,192h-1l-1,-1h2ZM567,180h1l-1,1l-1,-1l-1,1v-1h1ZM577,180v1v-1h-1v-1h1ZM575,191v-2h1v1ZM332,49h1h-1v1h-1h2v-1h2v-1l-1,1l1,-1h1v-1h3v1h-1h1h-2v1h-2l-2,1h-2v1h-2v-1h1v-1h2v-1l3,-1v-1h1l1,-1h1v1l-2,1v1h-2v1h-1ZM298,60h-1v-1h1h-1v-1h1v-1h1v-1h1v-1l1,-1h1h-3l-1,1h-3l-2,2h-1l-1,1h-1l-1,1h-1l-2,2h-1v1h-1v1h-1l-1,1h-2v1h-2v1h-1l-1,1l-2,1h-2l-2,1h-2l-6,3h-1h1l2,-1l1,-1l2,-1h1v-1h1l2,-2h1l1,-1l4,-2h1l1,-1l2,-1h1l1,-1h2l1,-1l3,-1l2,-1l1,-1h1l1,-1l2,-1l1,-1h1l3,-1l2,-2h2l4,-2l6,-2l2,-1h2l2,-1l3,-1h1v1h-1h1l-1,1h-1l-1,1h-2l-1,1l-2,1h-4l-1,1h-1h4l1,-1h2l-1,1l-2,1l-1,1l1,-1h1v1h-1v2l1,-1h2l-1,1h2v-1l1,1v-1h4l1,-1h4l-1,1l2,-1v1h-3v1h-2l-1,1h-2l-1,1h-2l-1,1h-1l-1,1h-2v1h-1v-1h-1v1h-1l-1,1h-1l-2,2h-2l-1,1h-1l-1,1h-1v1h-1v-1h-1v1l-1,-1l2,-2l2,-1l-2,1h1l1,-1h2v-1h1h-1l-1,1l1,-1l5,-2l1,-1h2l1,-1v1h-1h1l1,-1h2l1,-1h1h-1l-2,1h-3l-1,1h-1h1l2,-1l1,-1h1h-2l-1,1h-1l-1,1h-2l-1,1l-3,1v-1v1h-2v1h-2l-1,1ZM377,27h-1v1h-2v1h-1l-1,1h-1l-2,1h-1v1h-2v1h-1h1l1,-1h4l1,-1h1h-1v1h-3l-1,1h1l1,-1v1h-2h3l1,-1v1l1,-1v1h-2v1l1,-1h2v-1h4l1,-1h2v1h-2v1h-1h1l-1,1h-2v1l1,-1h2l1,-1h2l-1,1h-2l-1,1h-1h1h-1v1h-1h2l1,-1h2l1,-1l-1,1h-1v1h-1h2v-1h1v1h-1l-2,1v1l-1,1h-3v-1h1h-2v1h-2l1,-1h1l1,-1v-1h-1l-2,1v1h-1l1,-1l-1,1h-2l-1,1h-1l-1,1h-2l-1,1h-1v-1h3v-1h1l2,-1h2v-1l-1,1h-3v1h-3l1,-1h1h-2v1h-4v1h-5l-2,1v-1l-1,1h-1l-2,1h-1v-1h1l2,-1l1,-1h1l1,-1h1h-2l-1,1h-1l2,-1h-1h2l1,-1h1v-1h2v-1h2v-1l2,-1h1l2,-1l1,-1h1h-1h2v-1h1l1,-1h2v-1h3l1,-1v1h1v-1Z"/>
<path class="sl" d="M370,17h-1v1h-1h1Z"/>
<path class="sp" d="M375,16v0M365,18h4l1,-1"/>
<path class="sl" d="M338,40l-2,1h-8l1,-1h6l1,-1l1,1h2ZM319,51h1v-1h5v-1h2l-1,1h-1l-1,1h1h-2v-1l-1,1h-1h1h-5l1,-1h1l1,-1v1h-1ZM273,55l-1,1h-1h1l2,-2v1ZM297,43h1l1,-1l-1,1ZM298,43h-1l-1,1h-1l1,-1h1h-1l-2,1v1h-2l3,-1l-2,1h-1l2,-1h2l1,-1h-1v1h-1h1v-1h2v-1ZM294,44v1v-1h2l1,-1l-1,1ZM333,55h-1h2ZM331,51v-1h1ZM332,46h-1l1,-1h2l1,-1l-1,1h-2ZM321,47h-1v1h-1h1v-1ZM321,47h-1ZM299,62l1,-1ZM298,61h-1h2ZM268,68v1h-1l2,-2v1ZM268,68h-1h2ZM286,59h-1h2ZM374,29h1ZM377,32h-1v-1h1ZM378,26h1ZM379,31h-1ZM373,37v1h-1l1,-1h1ZM376,16l1,-1l-1,1h-1ZM354,22h-1h2l1,-1h-1v1ZM371,17h-1h2ZM372,17h-1ZM345,25h-1h2ZM368,18h-1ZM365,22h-1h2ZM368,20h-1ZM297,43h1ZM298,43v-1ZM279,52h-1ZM274,55v1h-1l2,-1ZM350,312h2l1,-1h7v2l-1,2v1l-1,1v1h-1v3l-1,1h-1l-1,-1v1l-1,1h-1l-1,-1v1l-2,2h-1l-1,-1h-1v1h-2l-1,1l-2,-2v-3h1v-1h-2v-3l1,-1v-2l2,-2h2ZM405,501v1h-2l1,-1ZM373,533v-2h1v1ZM396,509h-1l1,-2v1h1h-1ZM393,330h-1l1,-1v-1ZM444,412v-1l1,-1v1ZM443,415h-1v-1h1ZM390,317h-1v-1h1ZM349,308v1l-1,1v1h-4v-1l1,-1h1l2,-1ZM344,296h-1v-2h1l1,1ZM341,312l-2,2h-1v-1h1l1,-1ZM351,311l-2,1l-1,-1l1,-1h3ZM343,310v1h-1v-2h1v-2l1,-1v3ZM346,308h-1v-2h2v1ZM332,324l-1,1l1,-3l1,-1v-2l3,-3l1,1l-2,5l-2,1ZM376,545h-1v-3h1v2ZM107,252l-1,1l1,-1v-1h1ZM106,256l-1,1l1,-1v-1ZM276,224h-1v-1h2ZM175,184v1h-1h1v2l-1,1h-1v-3h1ZM182,173h-1l2,-2v-3h-2l-1,1l1,-1h2l1,1h-1h1v1l-1,1ZM195,194l-1,2h-2l-1,1v-1l1,-1h2v-1l1,-1ZM176,182l-3,3v-1h-1l1,-1l1,-2v-1h1v1ZM177,171h1l1,-1h1l-4,2l-1,1l-1,-1l1,1v-1h1v-1ZM179,179h-1ZM192,186v1h-1v-1ZM193,179h-1l1,-1ZM190,190l1,-1v-1h1l1,-1h-1v-1h1v1l-2,2ZM184,175h2v1l-1,1v1l-1,1v-1l1,-1v-1h1l-1,-1h-2v-1h1ZM184,185h-2l1,-1ZM188,187l-1,-1h-1h1v-1v1h1ZM188,180h-1h1v-1h-1v-2v2ZM198,186h1h-1l-1,1v-1ZM196,192h-1l1,-1ZM329,783l-1,-1l-1,-3l-3,-3l-4,-8l2,1l1,1h-1v1l1,1h2l3,3h2l1,1h1l2,1h1l1,1h6l1,1l-1,1h-2v1h-1v1h-9ZM345,777l1,1l1,-1h2l-1,1v-1l-1,1h-1v1h-1v-1ZM308,656h-2v-1l1,1ZM264,200v1h-1v-1l1,-1v1h1ZM265,197h-1v-1h1ZM442,804h1l1,1h1h-4v-1ZM346,890h-1ZM700,919l-2,1v-1l-1,1h-3l-1,1h2v2h-1l-3,3h1v1l-1,1v1l-2,2h1v1l-1,1l-1,2l-1,1v1h-1l-1,1v2h1h-2l-1,1h-2l-1,1h-3l-1,1h-5v1h-2v-1h1h-4l-1,1v1h-1l-1,1h-9l-2,1h-5l-2,1h-3v1h3l1,-1h1l1,1h2v1h4l2,-1h10v1h-1l-1,1v1h1l1,-1v1h1v1h4l1,-1h1v4l-1,1h2l-5,5h-1v1h-1l-3,3h-1l-1,1h-1l-1,1h-1v1h-2l-1,1h-1v1h-2l-1,1h-1v1h-3v1h-1v1h1h-1l-1,1h-1l-2,1h-2l-1,1h-2l-1,1l-5,1l-2,1h-2l-1,1h-2l-2,1h-2v1h1h-1l-2,1h-2l-1,1h-3l-2,1h-3l-1,1h-2l2,-1h1h-3v1h-2l-1,1h-3l-2,1h-3l-1,1h-2h2v-1l-1,1h-3l-1,1h-3l-1,1h-5l-1,1h-4l-1,1h-7l-1,1h-5l-1,1h-9l-1,1h-10v1h-17v1h-32l-1,-1l-1,1l-2,-1h-14l-2,-1h-7l-1,-1h-2v-1h-1v1h-3v-1h-7l-1,-1h-4v-1h-3l-1,-1h-1h7v1h1v-1h5v1h1v-1h-1h6v1h-1h2v-1h10v-1h-1h1l1,-1h-1h1l1,-1h1h-2v-1h1h-1h1h-1v-1h1h-2l-1,-1h-1h8l1,1h1v-1h3l1,-1h1h-1v-1h1v-1h1h-1l1,-1h1h-1v-1h-1v-1h-1v-1h1h-2v-1h-1v-1h1h-1h1v-1h-3l1,-1h-1l-1,-1h-1h1h-1l-1,-1v-1h-2v-1h-1l-2,-1l-3,-3v-1h-3v1l1,1v1h-3l-1,1h2v1h-1v1l1,2h-1v-1h-1l-1,-1v-1h-2v-1h1h-2l1,-1h-2v-1h-7l-2,-1h-2l-2,1h-4v2h-1l-1,-1l-4,-1l-3,-2h-2v1h-3l-1,-1h-3v2h-2l2,2l-1,1h-2l-2,-1h-1l2,1v1h-6l-1,-1h-2v-1h-1v-1h1l-2,-1h1v-1h-1v-1h-4v-1h-1h1v-1h-7v1l1,1h1h-3l-1,-1l1,-1h-1h1h-1v-1l-1,1h-1l-2,-1l-1,-1h-1l-2,-1h-1l-1,-1h2v-1h-4l-2,-1v-1l-2,-1v-1h-1l-2,-1h-1l-1,-1h1v-1h-1v-3l-2,-2v-2l-1,-1l1,-1l-1,-2v-2l-1,-1h-1v-1l1,-1v-2h-1l-3,-1v-1h2l1,1h2l1,1h2v1h1v-1h-1v-2h-2v-1h-2l-1,-1h4l1,1h1l2,2h1v-2h1v-1h2v-2l-1,-1h1v-1l1,-1h4v-2h1h-1v-1h-3v1h-1v-1h-1l-2,-1v1h-2l-2,-1h-5v-1h1l1,-1h1v-2h-3l-3,3l-1,-1h-2l-1,-1v-1h1l1,1h1v-1l1,-1h1l2,-2h4v-2h2v-1l2,-2h2v-2h-1v-2h-1l1,-1h1l2,2h2v-1l2,1v-2h1l2,1h2v-1h2v1l1,-1h2l1,-1v-1h-1l-2,-1h3l-1,-1h-2v-1h4l2,1h1v-1h3v1h2v-1h1v-1h2l1,-2l1,-1h1v-1h1l1,-1h1l1,-1l1,-2v-2l-1,-1v-2l-2,-1h-1l-2,-1l-1,-2l-3,-3l-2,-1l-1,-1l-2,-1l-2,-2h-1l-1,-1h1l3,-1h-1l1,-1h-1v-1h-1l-1,-1v-1h-1v-3h-1l-1,-1h-1v-3h-2v1h-1v-1l-1,-1v-2l1,1h1v1v-1l1,1v-1h-1v-1l-2,-2h2v-1l-1,-1v-1l-1,-1h1v-1h2v-1h-1v-1l1,-1v-1h-1l-1,-1v-2h2l1,1v-1l-1,-1l1,-1h1h-1v-1h1l1,-1h1v-4l1,-1h1l2,-1v-1l2,-2h1l1,-2h1l1,-1v1h1l1,1v1h-1v-1h-1l-1,1v1l-2,2v2h1v1l1,1h-1l-1,-1h-2l1,1v1l-1,-1h-1v1l-1,1v2l-1,1h-1l1,1h-1v2h1v2l2,2h1v-1h1v-1h2v1h-1h1v1h-1v-1h-1v2h-1l-1,-1l-1,1v1h1v1h1v1l-2,-2h-1l-1,-1h-1v3l1,1h1v1h-3l1,1v1h1v1h-2v1h1v1h1v1l1,1v1h1l1,-1v2h1v1h1l1,1h2v-1l-1,-1h1l1,-1h1h-1v2h1l1,1v1h1l1,1h1l1,1h1l1,1l2,1l1,1v1h-1l1,1h2v2h2v-1l2,2h1v1h-1h1l-1,1v1h1v-1h1v1h1v1h-2v1h4v1h1v1h-1v1h2l2,2v-1h1v1l1,1h-2v1l-1,-1h-1v1l1,1v-1l1,1h2v2h-1v1l1,-1l1,1h-1v1h2v-1v2h-2l2,1v1h-1l-1,-1h-1v1h1v1l-1,-1v1h1l1,1h-1v1h2l-1,1v1l-5,5v3h-2l-2,1h-2l-2,1h-2l-1,1l1,1h2l2,1h7l1,1v2h-3l-3,1h-4v1h8l1,1v1h-1l-1,1h-7l-1,-1h-1l1,1h1v1h2l1,1h5l1,1h1v-1h1l3,-2l1,1h2v1l1,1l-1,1h2v-1l1,1h1l1,1h2v1h1v-1h2v-1h1v-1h1v1h5l4,1h2v1h-1h3l-1,1h-1h1v1h4l1,-1h1l-1,1v1h1l1,1h1l2,2h2v-2l-1,-1l1,-1v-2l1,-1h1l1,-1h2l1,-1h1l1,1l1,-1v1h1v2h1v-1h1l1,-1v-3l1,-1v-1h1l1,-1h5v-1l1,-1h3l1,-1h3l1,-1h8l1,-1h-1v-1l-9,-1v-2h-4v1l-4,-2h-1l-1,-1v-1l1,-2l2,-2v-2h2l1,-1h1l1,-1l2,-1h1l1,-1l2,-1l1,-1h4l1,-1l4,-1h8v-1l2,1h2l1,-1v-2h1l3,-3h3l1,1l2,-2h1l1,-1h-4v-1h1l-1,-1l1,-1h1l1,-1l2,-1l1,1h1l1,-1l-1,-1h2l1,1l4,-2h1l3,-3l-2,-2v-1h2l1,1v1h1v-1l1,-1h2v-1h-1h1v-1l1,1v1h1v3h3v-1l1,-1v-2h6v2h-2l-1,1l1,1h4l1,1h3l1,1h3l-1,1v1h2l1,-1h3l2,-1h10l2,1h6l1,1h1l2,-1v2l1,2l1,1h1l1,-1h2l1,-1h1v-1h1v3h3l1,1h2l-1,1l2,2h1l1,-1h2v1l-2,1l-1,1h-1v1l1,1h4l1,-1l2,-1h1v1h-1v1h-1l-1,1l1,1h1l2,-1h1v1l-1,1h-1v2h1v1h4l2,1h1l3,-1l1,1h2v1h5l1,-1h1l1,-1h1v-1l1,-1l2,-1h3v2h-3v1l1,1l-2,2h-1l-1,1h1l1,1v1h-1h2v1h-1l-1,2l-1,1l1,-1h3l1,-1h2l4,-2h6l1,1h3l1,1h3v1h3v-1h1l1,1h-1v1h-2v1h-1h1v1h-1l-1,1h2l1,-1h2l1,-1v-1h3l-2,2v1h1l1,-1h1l1,-1h1l1,-1h1v1h1Z"/>
<path class="sp" d="M700,911v8"/>
<path class="sl" d="M478,912h3v1l1,1v1h1v4l-7,3l-6,2v-1h-1v-3h2v-3h1l-1,-1h-1v-3l-1,-1l1,-2v-1l2,-1h5l1,1h1v1h1v1ZM461,923l1,1h1v2h-3l-1,-1h-2v1l-1,-1h-4v-1h1v1h1l4,-1v-1h1h-1v-1h-1h1l-1,-1l1,-1h1v1h1v1h1ZM391,873v1l1,-1v1l2,1h1l1,1l2,1l2,2h1l2,2h1l4,4v1l1,1v2l1,1l-2,1h-2v1h-1l-1,1h-1v-1v1l-1,-1h-1v-1h3l1,-1h1v-1h-1l-1,1h-2l1,-1v-1h-3l-1,-1h-1v1l1,1h-2v1h1v1h-5v-1h-1v-1h2l-1,-1h3l-1,-1h1v-1h1h-2l-1,-1h3v-2h4l-1,-1h-4l-1,-1l2,-2h1h-2l-1,-1l-1,1h-3l-2,-2v-1h-1v-1h-2l-1,-1v-1l1,-1l2,-1l1,1h1ZM358,911h1l1,1l-1,-1v-1l1,1h1l-2,-2h1l2,2v-2l1,1h2v1h1l-1,1h-1v1h-1v1h-4l-2,1v1h-2v-3h2v-2ZM360,939h2l2,1v1h1l1,1h-3l-1,-1h-1v1l-1,-1h-1h1v-1ZM357,944v-1h3v1h1v-1h-1h4v1h-2v1h-4ZM429,973h2v3h-3l-1,-1h-1v-1h1v-1h1ZM464,989h-1l-1,-1h-1h5v1h-1ZM502,916h2v1h-3l-1,-1l1,-1v1ZM497,914h-4v-1h1l2,1ZM445,923h-1v1h-1l-3,-3v-1h1v-1l1,-2v-1h1v4l1,1v1h1ZM405,834h1v-1v1h2v1h-1h1v1h-3v-1h-2v-1l1,-1h1ZM411,827h1l1,1h-4v1h-1v-1h-1h1l1,-1h1ZM397,820l1,1v-1h1v1h-1v1h-1h1h-2l1,1h-2v-1l1,-1h1ZM389,841h1v1h-1v1h-3v-1l1,-1v-2h1v1ZM392,840h-2v-2h-1v-1h1l1,1h1v1ZM388,862v1h-1h1v1h-2l-1,-1v-1l-1,-1v-4h1v1l1,1v1h1v2ZM390,883l1,1v1l-3,3h-1l-1,-1v-1l2,-1h-1v-1h1l1,1v-1h-1h1v-1ZM382,880h2l1,1v1h-3v-1ZM402,896l2,2h1v1l-4,-1h-2v-1h1v-1h-1v-1h3ZM376,909v1l-2,-1l-1,-1h-2v-1h2l1,1h1ZM465,987h3v1h-3ZM650,974h1l1,-1h1l-1,1h-1ZM644,898h-1v-2h3l-1,1ZM574,873h-1v-1h1ZM580,875v-1l1,-1h2v1h-1v1ZM452,923v1l-1,-1h-2v-1h-1h3ZM447,921l-1,1l-1,-1l1,-1h1ZM406,814h-1v-1h2ZM410,830h-1v-1h2ZM409,837h-1v-1l1,-1v1h1ZM408,827h-2v-1h2ZM406,832h1v1h-2v-1ZM414,871l-3,-3h-1h3v2h1ZM390,827l2,-1h1l-1,1h-2l-1,1v-1h-1h1v-1h1ZM389,877v1h-2l-1,-1h-1l1,-1h1ZM367,911v-1h1ZM362,922h-2v-1ZM363,939h-1l-1,-1h-1h1v-1v1h1ZM368,947h-1v1l-1,-1h1ZM454,971h1h-1v1h-1v-1ZM443,972l1,1h-2v-1ZM464,993h-1ZM467,992h1ZM447,992h1h-2ZM444,997h1ZM448,997h-1h1h-1ZM449,997h1ZM658,970h-1h2ZM649,974h1ZM651,973v-1h1h-1ZM645,976h2l1,-1h1l-1,1h-2ZM668,965h1v-1h1l-1,1ZM673,959v-1h1ZM673,959h1ZM676,958v-1h1ZM652,949h-1ZM649,948h1ZM661,949l1,-1h1l-1,1ZM695,909h-1l1,-1ZM628,886h-1v-1h1v-1h2v1h-1ZM596,879h-1v-1h2Z"/>
<path class="sl" d="M579,878h-1v-1v1ZM593,876h-1l1,-1v-1h1v1ZM581,876h1v1l-1,1h-1v-2h-1v-1h2ZM600,879h-1v-1h2v1ZM528,887l-1,1v2h-1v-2h-2v-1h3v-1l1,-1v1ZM541,881h-1v-1h1ZM551,879v-1v1h1ZM500,916h-1v-1h1ZM410,814v-1ZM396,824h-2l1,-1ZM417,871v1l-1,-1ZM414,864h-1ZM421,875h-1v-1h1ZM423,877h-1v-1ZM394,825h-1l1,-1ZM392,829h-1ZM395,835h-1v-1h1ZM391,837v-1ZM390,843h-1h1v-1ZM385,831v-1h1v1ZM387,851h-2v-2h1v2ZM386,854h-1v-1h1ZM387,858h-1v-1ZM391,863h-2l1,-1h1ZM393,880h1v1h-1v-1h-1ZM405,897h-1v-1h-1h1ZM371,911h-1ZM364,936v1h-1l-1,-2l1,1ZM368,951l1,1h-1ZM369,950v1h-2v-1h1ZM396,966h-1ZM386,964h1h-2ZM397,965l1,1h-1l-1,-1ZM399,967h1ZM398,967h-1ZM402,967h1v1h-1ZM399,968h1h-2ZM392,965v1h-1v-1ZM395,965l1,1h-2ZM404,968v1h-1l1,-1h-1ZM426,970h1l-1,1ZM401,967v1h1h-2ZM444,970v1h-1ZM255,196l1,-1v1Z"/>
<path class="sw" d="M950,519l-1,-1v1ZM950,520v-1l-1,1Z"/>
<path class="sh" d="M527,787v1l-1,-1ZM475,755v1l1,-1h1v2l1,-1v1h1v-1v1h1v2h1v1h1h-1v1h-1l-2,-2v-1h-2v-1h-1l-2,-1h-1v-1h-2h4Z"/>
<path class="sw" d="M948,393h-1v5h-1l-1,1v1l-1,1v-5h1v-1h1l1,-1v-1ZM213,99h-1v1l1,-1h1v-1h1l1,-1h1l2,-2l2,-1l1,-1h2l1,-1h1h-1h1v-1h2v-1h2v-1h2v-1h1v-1h1v1h-1l-2,2h-1l-1,1h-1l-1,1l-2,1v1h-2l-3,2l-2,1l-2,2h-1v1h-2l-1,1h-1v1h-1l1,-1h-1v1h-1l2,-2h1v-1ZM233,88l1,-1h-1ZM212,100h1ZM856,264h-3v-2h2v1ZM947,539v1v-4l-1,1l-1,-1l1,-1v-7l1,-1v-10h1v-1l1,-1v-4l1,-1v-5h1v-2l-1,-1v-4h1v-1l1,2v10l-1,1v9h-1v1l-1,1v5h-1v5l-1,2l1,1v3ZM949,519h1l-1,-1ZM949,520h1v-1ZM960,423v1h-1v1l-1,-1v4h-1v3h-1v2h-1v-1v2h-1l2,2v1l-1,1l-1,-1v-1h-1v3l-1,1v-1l1,-1v-2h-1v-1l-1,-1v-2l-1,1v1h-1v1l1,1l-1,-1v-4h-1v-3l1,-3v-8l1,-1v-2h2v-1l1,1v1h1v-1h1v1h1v1h-1h1v1v-1v1l1,1v2h1v3h1v-1ZM950,432v-1h-1v-1v2ZM951,417v-1l-1,-1v1h1v2ZM954,434v-2h-1v-1v2ZM955,416v-1v1h-1h1v1ZM254,76h-1l-2,2h-1h1h-1v1h-1v1h-1v1h-2l-1,1h-1v1h-2l-1,1h-2l-2,1l-1,1l-2,1h-1l-1,1h-1l1,-1h1v-1h1l1,-1h1l1,-1h1l1,-1h1v-1h2v-1h3v-1v1v-1v1l1,-1h1h-1h1v-1v1h-1l1,-1l-1,1h-1h1h-1l-1,1l1,-1h1l1,-1h1h-1v1l2,-2h2l2,-2ZM248,79h1v-1ZM250,79v-1ZM251,78h-1ZM252,77h-1ZM213,99v-1h1l1,-1h1v-1v1v-1v1h-1l-1,1h-1ZM685,35h-1Z"/>
<path class="sr" d="M683,35h2"/>
<path class="sw" d="M166,175l-1,1h-1v-1h1l1,-1v-1v1h1h-1ZM110,292v2h-4l-1,-1v-2l1,-1v-2h1v1h2v1l1,1ZM958,338v-1h-1v-3l1,1v-1v2h1v3ZM210,476h-1v-1h-1v-1h-2v1v-1h-1v-2h1v1v-1l-1,-1v-2h2l1,1h1v1h1l1,1h1v1h1v2h2l-2,2l1,1h-2v-2l1,-1h-1v-1h-1v2ZM223,87h-1v1h-1v1h-1h1h-1l-1,1h-1v1h-1l-2,2v-1h1v-1h1h-1l-1,1v1h-1l-1,1h-1v1h-1v1h-1v1h-1l-3,3h-1v1h-1v1h-1v1h-1v1l-1,1h-1v1l-2,1l-1,1h-1l-2,2h-1l6,-6h1v-1h1v-1h1v-1h1v-1h1l1,-1h1v-1h1v-1h1l1,-1h-1v1h-1l-1,1h-1v1v-1h1l1,-1h1l4,-4h1l2,-2h1h-1v1v-1h1v-1h1l-1,1h-1h1l1,-1h1v-1h2v-1h1l1,-1ZM220,88v1h-1h1ZM213,93h1ZM212,93v1h-1v1h-1l-1,1l1,-1h1v-1h1ZM228,83l-1,1h-1v1v-1h1v-1v1h-1l-1,1h-1l-1,1h-1l-1,1h-1v1h-2v1v-1l-2,2h-1h1v-1h1h-1l-1,1h-1v1h-1l-1,1h-1v1h-1l-2,2h-1l-1,1l1,-1h1v-1l-2,2h-1l-1,1v1v-1l3,-2l1,-1l3,-2h1l3,-3h1l1,-1h1v-1h1v-1h2v-1h1l2,-1h-1l-1,1l1,-1h1v-1h1v-1h1l-1,1h-1v1v-1h2v-1h1v-1h1l1,-1h1l1,-1h1v-1v1h-1v1h-1h2l1,-1h1h-1l-1,1h-1v1h-1v1h-1h1h-1l-1,1h1h-1v1h-1h1ZM208,94h1l-1,1ZM228,81h-1v1v-1ZM220,86l1,-1h1h-1l-2,2h1ZM221,86h-1v1h-1v1h-2v1v-1v1h-1h1l2,-2h1ZM228,81h1ZM230,81h-1ZM228,83h1h-1h2l1,-1h1l1,-1h2v-1h2l1,-1v1v-1h1v1h-1h1l-1,1h1v-1v1h-1v1v-1h1h-1v1h-1h1h-1l-1,1h-1v1h-2v-1h1l-1,1v-1h1h-2v1v-1v1l-2,2h-1v1h-1l-3,3h-1v1h-1v1h-1l-1,1h-1l-1,1l3,-3h-2v1h-1l-1,1h-1v1h-1l1,-1h1v-1h1l1,-1h1v-1h1l3,-3h1v-1h-1v1h-1v-1h1v-1h2v-1h1ZM229,83v1h-1h1ZM229,84h-1ZM228,84l1,-1ZM228,84v-1h1h-1ZM224,86v1ZM230,83h2l2,-1h-1v1v-1h1l1,-1l-1,1v-1h1h-1l-1,1h-1v1h-1h1h-2l-1,1ZM233,82v1ZM236,82h1ZM90,228l-2,2l-1,3l-3,6v-1l1,-1v-2h1v-1l1,-1v-1l1,-2l1,-1ZM295,48l-1,1h-1l-1,1h-1h1l1,-1h1h-1l-4,2v1h-2v1h-1l1,-1h1h-1h1l1,-1l-1,1h-1l2,-1l1,-1l2,-1h2l1,-1h1h-1h1l1,-1v1h-1h1h-1ZM687,41h1h-2l-1,-1h-1v-1h-1h2v1h2ZM687,41v-1h-1ZM234,77h-1l-2,2h-1v1h-1h1v-1v1h-1h1v-1v1h-1l1,-1l-1,1h1v-1h1v-1h1l1,-1h1v-1h1h-1v1h-1ZM232,78h1h-2v1v-1ZM231,79h-1ZM249,81h-1ZM947,542v1h-1v-1l1,-1ZM202,101l-1,1h-1v1v-1h1ZM966,408v1l-1,-1v-4l-1,-1v-2l-1,-1v-9l-1,-1h1v-1v2l1,3v7l1,2v1l1,1v2ZM729,56v-1v1v-1h-1h1Z"/>
<path class="sr" d="M729,55v1"/>
<path class="sw" d="M729,55v1v-1h-1ZM264,73l-2,2v-1h1v-1h1l1,-1v-1h1l2,-2h1h-1v1h-1v1h-1v1h-1ZM254,690v-3h1v1h1l-1,1ZM934,475h-1v1l-1,1l-1,2h-1v1l-1,-1v-2l1,-1l1,-2l2,-1v1ZM894,195v1l1,1l-1,-1v-1l-1,-1ZM287,55v1v-1h1l1,-1v1h-1ZM240,86l-1,1v-1ZM240,86h1v-1l1,-1l-1,1v1ZM242,85l1,-1ZM795,261v3l-1,-1v-2l-1,-1v-2l1,1h1v1ZM133,178l-1,1ZM314,37h-2l-1,1l1,-1h1ZM242,77h1v-1h2l1,-1l-1,1h-1l-1,1l1,-1h-1ZM934,497l-1,1v1h-1v-3l1,-1h1v1ZM939,418v4l-1,1h-1v-3l1,-1v-2ZM940,410h-1v-1l1,-1v-1h1l1,1v1l-2,2ZM305,40h1v-1h1h-1ZM285,587l-1,1h-1l-1,1l-1,-1h-1v-1l2,-2h2l1,1ZM294,46l1,-1h1l2,-1h1l1,-1h1h-1v1h-1l1,-1h1l-1,1h-2l-1,1h-1l-1,1h-1l1,-1ZM295,45l-1,1h-2l-2,2h-1l1,-1h1l1,-1h2v-1h2v-1h1h-1v1h-2v1h-1ZM199,209h-1ZM290,47v1h-1l-1,1l1,-1h1v-1h1ZM295,755l-1,1h-2v2h1v1l-2,-2h-1v1v-1h1v-1h-1v1l-1,-1v-1l1,1h2l2,-2h1ZM855,148v1l1,1h1h-1l-2,-2v-1h-1v-1v1h1v1ZM717,61h-3v-1h1ZM625,22h1v1v-1ZM693,39l-1,-1Z"/>
<path class="sr" d="M692,38l1,1"/>
<path class="sw" d="M349,28v1h-3v1h-4l-1,1h-2l-1,1h1h-1h1h-1l1,-1h-3v1h-1l1,-1h1v-1h1v1h-1h3l1,-1h1h-1h1h-1h1v-1h1l-1,1h2l1,-1h-1h2v-1v1h2ZM98,271h-1v2h-1v1h-1v-1h1v-1l2,-2ZM948,480h-1v-1l-2,-2v-3h1v1l1,2v2ZM277,59h-1v1h-1h1v-1h-1v1h-1l-1,1l1,-1h1v-1v1h-2v1v-1h2v-1h2v-1h1l-1,1h1h-1h1ZM312,38h1l1,-1h2v-1h1h-1v1h-2v1h-3v1h-1h1v-1v1v-1ZM307,279v1h1h-1v1v-1l-1,1v1h-1l-1,-1v1v-2l1,-1v-1h3v1ZM962,454l1,-1v2l-1,1v-1ZM967,381h1v2h-1v1v-4ZM761,78l-1,-1h1v1h1ZM240,85v1h-1h1v-1h1ZM244,84v-1ZM245,84l-1,-1h1ZM200,100h-1v1Z"/>
<path class="sr" d="M199,101l1,-1"/>
<path class="sw" d="M221,85l-1,1h-1h1ZM265,67h-2v1v-1h1l1,-1ZM254,680v1h-1v-2ZM292,752h-4v-1h4l1,1ZM884,380v-1h-1v-1h1l1,1h-1l1,1v1h-1ZM306,60l-1,1v-1ZM306,56h-1h1v-1h1h-1ZM300,49l-1,1h-2v1h-1l1,-1h1l1,-1h2v-1v1ZM363,35v-1v1h-2l-1,1h-1v1h-1v-1h2l1,-1h1ZM313,40h1h-2v1v-1v1h-1l1,-1l-1,1v-1h1ZM197,103h-1l-1,1l1,-1h1v-1ZM272,72h-1ZM237,83l1,-1h1v-1v1l-1,1ZM363,37h-1ZM972,355v1ZM211,92h1h-1l1,-1v1Z"/>
<path class="sr" d="M211,92l1,-1M211,92v0"/>
<path class="sw" d="M94,211v1h-1h1v-1v1v-1h1ZM262,67h1h-1v-1h2v-1h1h-1l-1,1h1h-1h1h-1v1ZM58,279v1h-1l-1,1l1,-1v-1v1ZM105,288v1h-2v-1h1v-1ZM330,524h-1v2h1h-1l-1,1h1v2h1h-1v1h-1v1h-1v-1l1,-1v-1h-1h1v-1h-2l-1,-1h3v-1h-1l1,-1v-4l1,1v3ZM136,294v1h-1v1v-1l-1,1v-1l1,-1v1h1ZM920,539h-1v1v-1v1h-1v-1h-1v1v-1h-2v1h-2v1l-1,1h-1v1h-1v1h-1v1h-1l1,-1v-1h1v-1h1v-1l2,-2h1v-2h1v1h1v-1h3v2ZM955,405h-1l1,1h-1h1v2l-1,-1v-2h-1v1v-1l-1,-1v-1h1v1h2ZM725,62v-1h-2l-1,-1l1,1h2ZM896,198h-1v-1ZM889,188v1ZM766,280h1h-1v1h-1l1,1h-2v-1l-2,-2h-1l-2,-2h1v1v-1v1h2v1h1l1,1v-2h1v-2h-1v-1v1h1v-1l-1,-1v-1h-1v1v-1h-1v-1l1,1h1v-1h-5l1,-1h3v-1h-1v-1h-1v-1h-1l-1,-1v1v-1h-1h1l-2,-2h1h-1v-1l-1,-1h-2v-1h-1v-1h-1v1h-1v-1h2l1,1h1v-1l-1,-1v-1h1v2l1,1v1h1v1v-1h1v1h-1l1,1v1h1v1h3v1h-1h1v1h1v2h1v-2h1l-1,-1h1v-1h-1v-3h1l-1,1v2h1v1v-1v3h-1h1v1h1h-1h1h-1h1v8ZM765,280l1,-1h-1ZM940,479v-1h-1h1h-1v-2h1v-3l-1,-1v-7l-1,-1v-1l-1,-2v-7h-1v-2h1v-11l1,-1v-2l-1,1v1v-4l1,-1h-1h1v-3h1v3l-1,1h1v11h1v1l-1,1v3l1,2v1h-1v1h-1v1l1,1v1l1,1v2h1v14h1h-1v1h1v4h-1v1v-1ZM353,590v2h-1v1h-1v-1h-1v2l-1,1h-1v2l1,1v1h-1v-1l-1,-1v-2l1,-1v-2h1v-1h1v-2h1v-2h1v1l1,1ZM316,41v1h-2l-1,1l-2,1h1v-2h2v-1h1h-1v1v-1h2l1,-1l-1,1h1v-1h1l-1,1ZM315,42v-1v1l1,-1h-2v1h-2v1h1v-1h1ZM283,727h-2l-3,3v2h-1h1v1h-1v-4h-1h2v-1l1,-1h1l-1,-1h4ZM425,380l1,1l-3,1v2h-2l-1,1h-4l-2,2l1,1h1l1,1h-1v-1h-3v1l1,2l1,1l-1,1v2h-1l1,-1v-2l-2,-2v1l-1,1v1l-1,1v3h-1v1h-1v-1h-2l1,-1v-1l1,-1h1l-1,-1v-1v1l1,1v-1h1v-1h-1v-1l1,1l1,-1l-1,-1h2v-1h-1v-1l-2,-1l1,-1v1h1v1h1v-1h-1h2v-3h1l1,-1h7v-2h1v-1h1v-2h1v1ZM409,395l1,-1h-1v1h-1h1v1h-1l1,1v-1ZM255,67h1l1,-1l-1,1h1v-1h1v1h-1l1,-1h-1v1h-1ZM916,244v-1h-1v1h1v1h-1v1v-3h-1h2v1h1v-1h-1v-3h-1v-2l-1,-1l1,1v1h1h-1l1,1v1l1,1v1v-1v2h1h-1v-1v2h-1h1ZM766,280h1h-1v1h-1l1,1h-2v-1l-2,-2h-1l-2,-2h1v1v-1v1h2v1h1l1,1v-2h1v-2h-1v-1v1h1v-1l-1,-1v-1h-1v1v-1h-1v-1l1,1h1v-1h-5l1,-1h3v-1h-1v-1h-1v-1h-1l-1,-1v1v-1h-1h1l-2,-2h1h-1v-1l-1,-1h-2v-1h-1v-1h-1v1h-1v-1h2l1,1h1v-1l-1,-1v-1h1v2l1,1v1h1v1v-1h1v1h-1l1,1v1h1v1h3v1h-1h1v1h1v2h1v-2h1l-1,-1h1v-1h-1v-3h1l-1,1v2h1v1v-1v3h-1h1v1h1h-1h1h-1h1v8ZM765,280l1,-1h-1Z"/>
<path class="sw" d="M789,100h1l1,1l-2,-2ZM89,224v1h-1l1,-1h-1h1v-1ZM323,36h-2l1,-1v1v-1v1ZM324,35v1h-2v1h-1l1,-1h2v-1v1v-1h-1v1v-1ZM321,36h-1h1l1,-1h1h-1ZM168,137h-1v1l-1,1v-1v1v-1h1v-1h1v-1l1,-1ZM181,138v1l-1,1h-1h1l1,-1h-1ZM169,163v-1v1h-1ZM297,59h1v-1v1h-2ZM350,346h-2v-1h1v-2h1v-1h1v3l1,1v1h1v5l1,1h2l-2,1l-1,-1v-1l-2,-2v-2h-1v-1ZM395,464l1,1h-2v1h-2l1,-1v-1v1h-1v-1l1,-1h-1v-1h-1v1v-2h1v-1h-1h1v-1l1,1h-1v1l1,1v1h1v1ZM345,484h1l-1,-1h1l1,-1v-1l1,1v-4l1,1v1l2,-2v1l-2,2v2h-2v1l1,1h-1l-1,-1ZM254,684l1,-1v1ZM291,715h1v1l-1,1l-1,-1v-1l-1,-1h1v1h1v-1ZM722,60h-1ZM162,146v-1h1h-1v1h-1ZM281,53h1h-2v1v-1ZM256,69h-1ZM261,67l1,-1v1v-1v1h-2ZM314,39h-1ZM354,30h-1ZM240,75h-1v1v-1h2l1,-1h-1ZM334,30h-1h1h-1h1l1,-1Z"/>
<path class="sb" d="M667,79l-2,-2v-1h1v-1l1,1v-1h-1l-2,-2v-1h1v-1h-1l-2,-2h-1v-1h-1h4l-1,-1h-1v-1h1v-1h-1v-1l-1,-1h1v-1h1v-1h-2v-1h-2l-1,-1h-1v1l-1,-1h-5v-2h-3v1M705,68h-1M714,71h-1v-1h-4l-1,-1h-2l-1,-1h-1v-1v1l-1,-1h-2v-1h-4v-1h-3v-1h-2l-1,-1h-1l-2,-1h-2v-1h-2v-1M702,50h-2v-1M699,48h-1l1,1h1h-2l-1,-1h-2v-1h-2v-1h-1h1h-3v-1h-1v-1h-3v-1h-2v-1h-3l-1,-1h-1v-1M695,46l-1,-1h-1h1h-1v-1h-2l-1,-1h-2v-1v1v-1h-3M716,58h-1v-1h-1l-1,-1v-1h-1h1l-1,-1h-1l-1,-1h-2l-1,-1h-2l-1,-1h-1v-1h-1v-1h-2l-1,-1h-1h1l-1,-1h-1v-1h-2v-1h-1v-1h-1l-1,-1h-1h2v-1h-2v-1l1,1h-1v-1h-1v-1M720,63h-1l-1,-1h-1v-1h-1l-1,-1l-1,1h1h-1v-1h-1v-1h1h-1h1v-1h-1h3l1,1h3v1v-1h-1h1v1h2l1,1h2M727,63h-1v-1M731,65h-1l-1,-1h-1v-1h-2v-1h-1v-1v1h2v1h3v1h2l1,1v-1v1h3v1h2l1,1h1h-1v-1h-1l-1,-1h-1v-1l1,1v-1l1,1v-1h-1M755,75h1l-3,-3h-1h1l1,1h1h-1v-1M750,70l-1,-1h-1l-1,-1h-1l-2,-1l-1,-1h-2v-1v1h-1v-1h-1l-1,-1h-1l-1,-1h-2v-1h-1l-1,-1h-1l-1,-1h-1l-1,-1h-1v-1h-1l-1,-1h-1l-1,-1h1v1v-1l1,1h3v1h1l-1,-1l1,1h1l1,1M770,80l-1,-1h-2v-1h-2v-1h-1l-1,-1l1,1h-1l-1,-1h-1l-1,-1v1h1h-1l-1,-1h-1l-1,-1h-1v-1h-2v-1h-1l-2,-2h-1v-1h-1h1v1h1v-1h1v1M767,78l-1,-1h-1v-1h-1l-1,-1h-2v-1h-1l-1,-1h-2v-1h-1l-1,-1h-1l-1,-1h-1v-1h-2v-1h-2v-1h-2v-1h-1v-1v1v-1h-2l-1,-1h-1v-1v1h1h-1l-1,-1h-1l-1,-1h-1v-1h-2v-1h-2v-1h-2v-1v1l-2,-2h-1l-1,-1h-1l-1,-1h-1v-1h-1l-1,-1h-1l-2,-1l-1,-1h-1l-2,-1v-1h-1M732,57l-2,-1h-1l-1,-1M757,71h-1v-1h-2v-1h-1l-1,-1h-1M774,83l-1,-1h-1v-1h-1v-1h-1l-1,-1h-1v-1h-1l1,1h1h-1v-1h-1l-1,-1h-1v-1h-1v-1l1,1h-1v-1h-1l-1,-1l1,1l-1,-1h-1l-2,-2h-1l-1,-1l1,1v-1M785,89l1,1h1v1h1l1,1h1v1h1v1h1l1,1M794,96h1l1,1h1v1h1v1h1v1h2v1l1,1h1v1h1l1,1l-1,-1h-1v-1h-1v-1v1h1v1h1v1h1M775,85v1h1v-1h-1v-1h-1v-1h1h-1h1l1,1h1l2,2h1l2,2h1l1,1h1h-1h1l1,1h1v1h1l3,3h1l2,2h1v1h1l3,3h1l2,2h1v1h1v1h1l1,1l2,1h-1h1l2,2M793,98l1,1h1v1v-1v1h1l1,1h1l2,2h1l2,2h1l2,1v1v-1l1,1h1v1l2,1h1v1h1l2,2h1v1M730,72v-1h-2v-1h-1l-1,-1h-1v-1h-1h1l-1,-1h-1l-1,-1h-1h2l-1,-1h-1v-1h-2v-1h1v1h4v-1v1h1l1,1h1l1,1h1v1v-2h-1h1l1,1h2v1h1l-1,-1h-1h1l-1,-1h1l1,1h3v1h2l2,2h2v1h1l1,1h2l1,1M751,75v1h1l-1,-1h-1v-1h-1l-1,-1h-1v-1h1v1h2l1,1h3v1h2l1,1h1v1"/>
<path class="sb" d="M751,75v1h2l1,1h1h-1h1l1,1h2v1h1h-1v-1h-1h1v-1h-2v-1l1,1h1l-1,-1h1v1h1l1,1h1v1h2v1h1l1,1h1v1h2l1,1h2M776,88l-1,-1h1h-1l-1,-1h-1v-1h-1l-1,-1v-1v1v-1v1h2l1,1h1v1h1l1,1h1v1h1l2,2h1l1,1h1v1h1v1h1v1h1l1,1h1l1,1v-1v1h1v1v-1v1h1v1h1v1h1v1h1l2,2h1v1h1v1h1h-1h1h-1h1v1h1v1M798,104l1,1h2v1l1,1h1l3,3h1l1,1v1M779,93h1h-1l-2,-1l-1,-1v-1h-1l-2,-1l-2,-2h-1l-2,-2h-1l-1,-1l-2,-1l-2,-2h1l1,1h2l1,1h1v1h2v1h2v1h2v1h1v1h2v1h1v1h1v1h1l1,1h1v1v-1h-1l2,2h1h-1M791,99l-1,-1h1v1h1v1h1l2,2l2,1l1,1v1v-1h-2M803,110h1l1,1h2v1h1l-1,-1h1v1h1l1,1h2v1h1v1h2v1h1l2,2h1l-1,-1h-1h1M791,100l1,1h1v1h1l1,1h1v1l5,5h1v1h1l1,1v1h1v1l-1,-1v1h1v1l-1,-1M785,97l-1,-1h-1v-2h-1h1v1h1l-1,-1h-1h2v1h1l2,2h1l2,1v1h1h-1h1v1h-1v-1h-1v1h1l1,1v1M822,121v-1h-1v-1h-1v-1h-1v-1h-1h1l2,2h1l1,1M120,299h-1l-1,1v2l-1,2l1,-1v2l-1,1l1,1l-2,2l1,1v1M116,292l-2,2h-1v-1h-3v1l-1,1h-3l-1,1M125,260l-2,1v1h-1v1h-1v1h-2v1h-1v1h-1v1h-1v-1h-1v1l-1,1v1h-1v2h-1v1l-2,2v1h-1v1l-1,-1v1l-2,2h-1l-1,1v3l-1,1h-1v2h-1l-1,1M101,269h-1v1l-1,1l-1,2l-3,3v1l-1,1v2l-1,1M98,269v1h-2l1,-1l1,-3v-2l2,-4v-2l1,-1M88,289v-1h1v-1l1,-1v-1h1v-1l1,-1v-1h1v-1h1v1h2v1l2,-2v1l1,-1h1l-1,2v1l-1,1M106,250h-1l-2,4l-1,1h-1v2h-1l-4,2l-4,4v1l-1,2l-1,1v1h1v1h1l-1,1h1v1l-1,1v1h-1l-2,2h-1l-2,2l-1,3l-1,1l-1,2v3l-1,1v2M93,224h-1v1h-1l-1,1h-2v-1l1,-1v-1l1,-1v-1l1,-1v-3h1v-1l1,-1v-2h1v-1h-1v1h-1v1h-1v1l-3,3v1l-2,2v-1h1v-1l1,-1l1,-2v-1l2,-2M261,72h-1v1h-2l-1,1l-3,2h-1l-1,1h-1v1l-2,1h-1l-2,2l-2,1h-2l-1,1l-2,1h-1l-1,1h-1l-1,1h-1v1h-1v1l-1,1h-1l-1,1l-4,2l-1,1l-4,2h-1l-1,1l-2,1l-1,1l-2,1l-2,2h-1v-1l1,-1h1v-1h1l1,-1h1l1,-1v-1l4,-2l3,-3v-1h1l1,-1v-1h1l1,-1v-1h1h-1l1,-1v-1v1h-1v-1h1h-1l-1,1l1,-1h-3v1h-1l-1,1h-2l-2,2h-1v1h-2v1h-1v1h-1l-1,1h-1l-1,1l1,-1v1M314,575v2l-1,1v1l1,1v8h1v1h-1v4l1,1v2M328,532v10h-1v1l-1,1v1h-1l-1,1v1h-1v2l-1,1v-1h-3v1h-1v1h-4l-1,1h-2l-3,-1h-3l-3,1v-3h1v-2h1v-2l-1,-1v-1h1v-1l1,-1v-4h1v-3l-2,-1l-1,-1h-3l-1,-1h-2l-4,-1l-2,-2h-1l-4,-2h-5l-4,-2l-1,-1h-1l-1,-1h-1l-3,-3l-1,-2l-2,-1h-1l-1,-1M235,528l2,1v9l-1,2l-2,1l-2,2v1h-1v4h1v5l1,1v1l1,3h1l-1,2v2l2,2h1v2h-1v1h-2v8l-1,1v2l-1,2l1,1l-1,1l1,1v3l-1,1v1l1,2l2,2v2h1v2l-1,1h-1h1v6l-1,1h1v3l2,2v1h1v2l3,3l1,2v2h1v1h2v3l1,1v2l1,1v2h-1v4l1,1v3h-1l2,2v1l1,1v1l1,1v1l-1,1v2h-1v5l1,1v2l2,2v2l2,2v1l2,2h1v2l-2,2v1l1,2v2l1,1h-1v1l1,1v3h1v1h1l-1,1v2l2,2l1,3v1l1,1v1h1l1,2l1,1h-1v1h-1v1h1v2l1,1v1l1,1v1h2l1,1v1l2,2v1l1,1v2l1,1h4v3h-2l-1,1h-1l1,1h3l2,2v2h-1v2h1l1,1v2l1,1v1l1,1h1v1l-1,1v1h1v1h1v1h-1v3l1,1v2h1l1,1v1l1,1l-1,1l1,1v3h-1v1h1v2h-1v2l2,2v1l3,3h1v1h1v1h1v-1h1l1,-1l2,2v2h1v1l1,1v1h1v1h2v1h3l4,-2h10"/>
<path class="sb" d="M294,490v-3l-8,-3l-10,3l-3,2h-1l-3,2h-2v4l-1,2v1l-1,2l1,2v8l-1,3v2l-1,-1v-1h-1l-2,1l-3,1h-2v1l-1,3v4l-2,-2v-2l-1,-1h-4l-2,1h-3l-2,-1v-1h-1v3l-2,2h-1v2l-1,1v2l-1,1h-1l-1,1h-2v-2l-1,-1v-1h-1v-2l-1,-1v-1l-1,-1v-1l-1,-1v-1l-1,-1l-1,-2h-1v-1h-1l1,-1l-2,-1v-2h-1v-2h1v-2h-1v-2l1,-1v-1h-1l-1,-1h-1v-1h-1v-1l-1,-1v-2l-1,-1v-1l-1,-1v-1h-1l-1,-2l-1,-1v-1M202,432l1,2l1,1v1l1,1l1,2l1,1l1,2l1,1v3h-1v2l1,3v2l-1,1l1,1v1l1,1v1l-1,1l1,1h-1v2h-1v4l1,1h1l-1,1v1l-1,2h1v1l2,3v1l1,-1l1,1v1h-1v1l1,1h-1v1l-1,1v3h-1l-1,1l2,2l-1,1v1h-1v2l1,1v1l-2,2v1h-2M158,356l-1,1h-1h1v1l1,1v4h-1v5l-2,2v2l-3,3v1l-1,1l-1,2l-1,1l-2,1l-1,2h-1l-3,3l-1,2v2h-1v3l-1,1v3h-1v3l-1,1v3h-1v1h-1l-1,-1v-1l-1,-1h-4v1l-1,1v-3h-1v-1h2v-5h-1M194,377l-2,-2h-3l2,-5l1,-1l1,-3v-1h-1v-1h-3v-1h-3l-1,1v1h-2v-1h-2v1l-2,2h-1l-1,1h-2v1h-1l-1,-1h-1v-4h-1v1h-1v-3h-1v-1h-2l-1,-1h-1l-1,-1v-2h-1v-1h-2v-1v1h-1v-1h-1l-1,1h-1l-1,-1h-2v-1h-3v2h-2v1h-2v-1l-1,1h-1v-2h-2v-1h-4l-1,-1h-1v-1h-1M215,327v-4l-1,-1v-2h-1v-2h-1v-1h-1l-1,-1h-1l3,-5h1v-1h-1l-1,-1v-1h-1v-4l-1,-1v-1l1,-2v-4l1,-1v-2l2,-2v-2h-3l-1,1h-1l-4,2h-2l-2,2v-1h-1v1l-2,-2l-1,-2l-1,-1h-5l-2,2h-3l-2,1h-1l-1,-1v-1h-2v-1l1,-1v-3h1l-1,-1v-2h-1v-2l-1,-2v1h-1v-1h-1v1h-1v-1l2,-2v-1l1,-1v-2l1,-1v-3l1,-2l2,-2v-1h1l1,-1l2,-4h1l3,-3h1M262,284l-2,-1l-3,-3l2,-2v-4h1v-1h1l1,-1h2l2,-2v-1h-2v-1l-1,-1l1,-1v-1l1,-1h1l1,-1v-1h2v-1l1,-1v-1l-1,-1M294,303h-2v-1l-1,-1v-1h-1v-2h-1v-2h-1v-3h-1v1h-2v-2h-1v-1l-2,-2v-1h1v-2l1,-1v-3h1v-1h3v-1l1,-1l-1,-1h1v-2M309,298h1v-1l1,-1l1,-2l1,-1v-3l1,-1v-3l-1,-1h-1v-2h-1v-6l1,-2l1,-1h1M350,601h-1v-1h-1v-6h1v-1l1,-1l-1,-1h-1l-1,-1h-1l-1,-1v-1l-2,-2h-2l-2,-1l-1,-1v-1h-1l-2,-1h-2l-2,-2v-1h-2v1h-1v1h-1v-2h-1v-1l-1,-1l-2,-1l-3,-2h-2l-1,2h-2l-1,-1h1v-1l1,-1v-1l2,-2l1,-2v-2l2,-2v-3l1,-1v-1h1v-1h1v-2l3,-3h1v-1l1,-1v-2h2v-1h2v-1l2,-2h1v-6l-1,-1l1,-1l-2,-2l-1,-2v-1h-1l-1,-1l-1,1h-2v-13l-2,-2h-1v1h-1l-1,1h-1l-1,1h-1v-1h-1v-2h-1v-4h-1v-2l-1,-1v-2l-1,-1v-1h-4l-2,-2v2h-2v1h-6l-1,-1v1h-2v-10l-1,-1v-1l-1,-1v-2h-1v-1l-1,-1h1v-1h1v-1l-1,-1h-1v-1l1,-2v-2l1,-1v-2h-1l1,-2v-4h1l-2,-2l-1,-3l-1,-1h-1l-2,-1h-1v-2l-1,-1v-5h-4l-7,2h-2l-1,-1v-3l-1,-3l-2,-2h-1l2,-1h1l-1,-4l-1,-1v-1l-1,-1v-3l-1,-1h-1l-2,-1h-1l-3,1h-3l-2,-2h-3l-1,-1h-2l-2,-2l-1,1h-1l-1,-1h-3l-1,1h-3v-2h-2l-1,-1h-1v-1h-1v-1h-1v-1l-1,-1v-1h-1v-2l1,-1l-1,-1v-1l-1,-1v-2l1,-1v-3l-1,-1v-1l-2,2v-1l-4,2l-1,1h-1l-4,4v1h-1v1h-1l-1,1v1l-1,1h-1l-2,2v1l-2,2h-1v1h-1v-1h-3l-1,1h-3l-1,1h-1l-1,1v1h-1l-1,-1v1l-1,-2v-7l-1,-1l1,-1v-3l-2,2v1l-1,1v1h-1v1l-1,1h-2l-2,1l-1,1h-1v-3h-1v-1h-3l-2,1h-1l1,-1v-4h-1v-1h-1l-1,-1v-1h-1v-1h-1v-2h-1v-1l-2,-2h1v-1h-1h1v-1h1v-1l-1,-1v-1l1,-1l1,-2l1,-1h1v-4h-1v-1l1,-1v-1l1,-2v-5h1l2,-2v-1l4,-4h1l1,-1h1l1,-1l2,-1v-1l1,-1h1l1,-1l1,1h2v-1l1,-2v-5l1,-3v-6l1,-3v-6l1,-1h-1v-1l-1,-1v-3h-2v-1h-1v-7h2v-1h1v-1h3v-2l-1,-1h-1l-1,1h-2v-5h1l1,-1h2l1,-1h2l2,-1h3v-3h1v2h1l1,-1v-1l2,-2h1l1,2h1v5l1,-1l4,2h2l3,-3l1,1v1l3,-3v-1h1l4,-4h1l2,-2v-2l1,-1h1l2,-2h1v-2h-5v-3l-1,-2v-3l-2,-2h-1v-1l-1,-1h5v1h3v-1h3l1,1h1v1h1l1,-1v-3h1l2,-2h2l4,-2l2,-2h1l1,-1h1v-1l1,-1h1v-1h1v-2h-1v-1h3l1,-1l1,1h1l-1,1v3h-1v1h4l-1,1v1h1v1h1l-1,1v1h-1v1l-1,1v2l-1,2v4l2,2v4h2v1h1l1,1h2v1h1v-1h2v-2h1v-1h3v-1h1l1,-1h2v-1l2,-2h6v-1h5v-1l-1,-1v-1h-1l1,-1v-1h1l1,1l1,-1h2v-1h3v-1l1,1h2v1h2l1,1h1v-1h2v-1h1v-1v1h3v-1h1v1h3v-1l1,-1h1v-1h1v-1l1,-2v-1l1,-1v-1l2,-2l1,-2v-1h1v-1l1,-1h1"/>
<path class="sb" d="M676,126v-3l-1,-1v-2l1,-1h1l4,-2h6v1h1v-2l1,1h7v-1h1v-1h4l1,-1h3l-1,-1h-1v-2h-1v-1h1l1,1l3,-1v-1l1,1h4l2,1h2l1,1h1v-1h-1v-1h1h-1v-1h-1v-1h-1l-3,-3v-1l-1,-1v-1h-1v-2l-3,-3l-2,-1l-1,-1M787,141l-1,-2l-1,-1v-1l-3,-3l-1,-2l-2,-2v-1l-1,-1h-2l-3,-3l-1,-2h-1v-1h-2l-1,-1v-1l-4,-4h1v-1h1v-3h-1v-1l-2,-2v-1h-1v-2h-1l-1,-1h1v-1M819,186l-1,-1l-2,-4l-1,-1l-3,-2l-3,-1h-1l-3,-3l-1,-2v-1l-6,-6v-2h1v-2h-1v-1l-1,-1v-2l-1,-1l-1,-2l-1,-3l-1,-2l-1,-1v-1l-2,-2v-1l-1,-1l-2,-1l-1,-1h3v-2h1l-1,-1l-1,-2l-1,-1v-1h1v-1h3v-1l-1,-1v-1h-1v-1M889,228v-1l-1,-2v-1l-1,-2l-1,-1v-2l-1,-1l-1,-2v-1l-1,-2l-1,-1v-2l-1,-1l-1,-2v-1l-1,-1l-1,-2l-1,-1v-2l-1,-1l-1,-2l-1,-1v-1l-1,-2l-1,-1l-1,-2v-1l-1,-1l-1,-2l-1,-1v-2l-2,-2l-1,-2l-3,-3v-2h-1v-1l-2,-2v-1l-1,-1v-1M891,242v-1l-1,-1v-1l1,1h1l2,1l1,1l-2,-4l-2,-7l-2,-3l4,2l1,1l4,2l1,1l2,1l1,2l2,1l1,1l2,1l1,1l2,1l1,1l2,1l1,1v1h1l-1,-1h1v1l4,4l2,1h1l11,11M951,317v-2l-1,-2v-1l-1,-2v-5l-1,-2v-1l-1,-1v-2h1v-2h1v1v-2M971,349v2h1l-1,-1h1M951,346v-10l1,1v1v-6l-1,-1l1,-1v-3h1v-2l-1,-2v-4l-1,-2h1l2,2l1,2v-2l-1,-1v-1h1v2h1v2l2,2v-1v1h1v1h1v1l1,1v1h1v2l1,1v1l1,1v1l1,3l3,6v1l1,2v1l1,1v1l1,1v8l1,2v1h1l1,1v1M988,402l-1,-1v-1l-1,-1v-2l-1,-2l-1,-3l-1,-2l-1,-1v-2l-2,-4v-2h-1v-1l-1,-3v-1l-1,-2v-2l-1,-1v-2l-1,-1v-3h-1v-6M980,414v-1h1l1,1v-2h1v1h1v1l2,2v-3l1,-2v-5l1,-1v-8l-1,-1v-6l-2,-6v-2l-1,-2M960,380v1l1,2l1,1v5l1,1v1l2,2v1h1v2l1,2l1,1l1,2v2l2,2v1l1,1v1h1v1l1,1v-2h3v2l1,1v1h1v1l1,1l-1,1v3l-1,1v19l1,7l-1,3v1l1,2v4l1,2v1M622,154h9l2,1h5l1,1v-1h1v-2l3,-3l-1,-1v-1l1,-1v-4h1v-1h4v-2h1v-1h2v-1h2v-1h1v-6h3v-2h1l1,-1v-1h-1h7l1,1h2l1,1h2v-1h5v-2l-1,-1l1,1h1v2M622,158v-4h1l2,1h7l2,1h5l2,1h7l2,1h3v-1h-1v-4l-1,-1v-2h-1v-2h1l1,-1h3l1,-1h2v-2l-1,-1v-4l-1,-1v-3l-1,-1v-3h2l2,1h4l1,1h6l1,1h4l1,1h3v-2l-1,-1v-2l-1,-1v-1h2l1,1l2,1l1,1l2,1l1,1l2,1l1,1h2l1,1l2,1l1,1l2,1l1,1l2,1l1,1l2,1l1,1l4,2M664,202l2,1v-1h1v-1l1,-1v-2h1v-1h1l1,1l2,1l1,2h1l1,-1h4l1,1h5v-1h1v1h3l1,1h5l1,1h5l2,1h3l1,1h3l2,1h3v-5l-2,-2v-2l-1,-2v-1l-1,-2v-2l-1,-2v-1l-1,-2v-2l-1,-1v-2l-1,-2l-1,-1v-2l-1,-2v-1l-1,-2v-1l-1,-2v-2l-1,-1v-2l-1,-1l-1,-2v-2l-1,-1v-2l-1,-1v-2l-1,-1l-1,-2v-2l-1,-1v-1h4l2,1l4,1h2l8,5l2,2l3,1l2,2l6,4l2,2l6,4l5,3l3,2l2,2l3,2l2,2l3,2l2,2v1l1,1l2,1l3,3h2v1l1,1h1l1,1h2l2,2v1l1,1v3h1v1h6"/>
<path class="sb" d="M759,220v-1l1,1h5l1,-1l2,1h3l3,1h2l2,1v-1l2,1l1,1v-1l1,-1h1v-3l1,-1v-4l-1,-2v-2l-1,-2v-2l-1,-2v-4l-1,-1h2l1,1h7l4,-2l4,-4h2l10,-4h2l5,-2l2,-1l3,2l4,2l3,2l5,5h2l1,-1M848,257l-1,-4l-1,-2l1,-1v-2l2,-3v-1l4,-4v-5l-1,-4l-1,-2v-3l-1,-3v-2l-1,-3v-2l-2,-3h-1v-2l-3,-4h-1v-1l-5,-10h5l2,2l3,2l6,6l3,2l9,9l3,2l23,23l1,4l2,3l3,9v3l2,7l1,1l-2,-1h-1l-1,-1h-1v1l1,1v1l-1,1v2h-1l1,1v2h1v1h-2v1l1,1v2l1,1h-1v1h-1v1l1,1v1h2v1l1,1v2l1,1v1l1,3v1l2,2v3M630,191v-3h1v-1l1,-1h1l1,1h6v-1h1v1v-1h1v1h3l4,2l1,1v1h2l1,1v-1l3,3v1l1,1h1l1,1v1h1v1h1v1h1l3,3v1l1,1v1h1v2l1,1l-1,1l1,1v1h1v1l1,-1v1h1v1l1,1v1h1v4M631,206h2l2,1h4l1,-1h4l1,1h1l2,2h5v1l-1,1h-2l-2,-1h-2l-2,-2h-2l-1,1h-4v1h-2l-1,-1h-4l-1,1M630,215h3l1,-1h1l2,1h2l2,-1h5l3,1h5M645,226v-1l1,-2h3l1,-1h5v-2h-1v-1h-1v-1h2v-1l-1,-1v-1l3,1h3v1h1l1,1h1l1,1h8l1,1v1h-1h1v1l1,1h1v-1h2l2,2h1l1,-1h2l1,1h2v1h1v-1h1l1,-1h1h-1v-1h2l2,2v1l1,2v2h1v1h1l1,1h1l-1,1h-1v2l1,-1l2,2v3l2,1v1h1M720,242h1v-3l-1,-1l1,-1h1v-3l-1,-1v-1h4v-1h2v-3l1,-1v-2h-1l1,-1h1v-1h1l1,1l2,1h2v-2h2v-2l1,-1h1l1,-1l3,2v-2h4l2,-1h1l1,-1h3v1h1l4,2v2l1,1v1l1,1v2l2,2h1v1h1l2,2h1l-1,1v-1h-1v2h1v1l2,1l1,2h1l1,1h1l1,-1v1h1l1,1v1h-1v1l1,1l1,2M660,242h2v-1h1l1,-1v-1h1v-1l1,-1h10v1l1,1h1v1l1,1l1,2h1v1h-1v1h1v1l1,1v2l-1,1l1,1l1,-1h1M675,260h1v-1l2,-2h1l2,-2h1v-2l1,-1h1v-2h4l1,1h1v1l1,1v3h1v2l-1,1h2v1h1v1h2v-1l1,-1v-1h1v1h1M708,285h-1v-6h1v-5h-1l-2,-2v-1l-1,-1v-1h-3v-1h-1v-1h-1l2,-2v-2l-1,-3h-1v-1h2l1,-1v-2h1l-1,-1h-1v-2h3v1h1v-2l-1,-1h-1v-2h1v-1h-1v-2h-2v-2l-1,-2v-1h1l1,-1v1v-1h1l1,-1h1l1,1v1h2l1,1h1l-1,-1h3l-1,-1v-1h1l1,1h1l-1,-1h2v4h2l1,-1h2l1,1h2v1h1v1l1,1v1h1v1h1l1,1h1l1,1l1,-1h6l1,1h1v1h1v1h1v1l1,1h1M743,286h1v-3l-1,-1h-1v-2l-1,-1v-3h-1v-3l1,-1v-1l1,-1v-4h1v-1h1v-1h1v-1l-1,-2v-2l-1,-1v-1l-1,-1h1v-2l-1,-1v-4l-1,-1h1h-1v-2h-1v-4h1v1h4l2,1h3l2,1h2l1,1h1l1,1v-1h2v-1l2,1M773,286v-1h-1v-1h-1v-1h-1v-2h-1v-1h-1v-3l1,-1v-1h-1v-8l-2,-2v-1h1l-1,-1v-4h-2v-1h1h-1v-1v1h1v-5h-1l-1,-1v-1h-1v-1h-1v-4l1,1l3,1v1h3M776,286h1v-1l-1,-2v-2l-1,-1h1v-5l-1,-3v-5l-1,-2v-1l-1,-2v-1l-1,-1v-3l-1,-1l-2,-1l-1,-2h-1v-2l1,-1v-2l1,1v-2h1v1v-1h4l1,1l2,-1v-2l1,-1l-1,-1h2l1,-1v1l3,2l1,1v1l1,1h1v1"/>
<path class="sb" d="M784,287v-9h-1v-11h2v-3h1v-2h2v-2l-1,-1l1,-1l1,1v-2l-1,-1v-2l-1,-1l-1,-2v-2h1l-1,-1v-5l2,-2v-4h2v-1h1l1,1h5l2,2l2,1h1l2,2v1h1l1,2l2,2l1,-1l1,1l2,-1h2v1l3,2l2,2l2,1l1,1l3,1l1,-2h4l5,2h1l1,1l2,1l2,2h1l1,-1h1l1,-1l1,1v-1h1l2,2l2,3l1,1M825,312v-1h1v-2l1,-2v-3l2,-2h1v-1h1l1,-1v-1l1,-1h1v1h1l1,1l1,-1l2,2v1h1v2l1,1h1l1,-1v-2h1l1,-1l-1,-1v-1h1v-2l1,-1v-3l1,-1v-1l1,1v-1h1v-5h2v-4l1,-1v-4l1,-1h2l1,-1h1v-1l-1,-1h1l-1,-1v-2l-1,-1v-1h-2v-2l-1,-4l3,3v1l2,2l1,2v2l1,1v1l1,1v6l1,2l1,1v1l1,2l2,2h-1l-1,-1h-1l-2,-1h-1l-2,-1v-1l-2,2l1,1l1,2l1,1l1,2l2,2v1h1v1l1,1l1,2l1,3l1,2l1,1v1h-1M873,350v-4l-1,-1h1l-1,-1v-1h-1v-1l-2,-2v-1l-1,-2l-1,-1v-1l-1,-1v-1h1l-1,-1v-2l-2,-2v-1l-1,-3v-2h-1l1,-1l-1,-3v-1l-1,-1v-1h2v-2l1,-1v-1l1,-1v-2h1v-1h1l1,1h3l1,-1l1,1v1l1,1h2v-1h2l1,1h2l2,1l2,-2v-1h1l-2,-2l1,-1l2,1l1,1h2l2,1l1,-1h1v-2l1,-1h1v-1h1v-3h4l2,2v1l2,3l3,6v7l2,2h1v1M929,359v-2l-1,-1v-3l-1,-1l-1,-2l-2,-2v-2l-1,-1l1,-1l-1,-1v-1l-1,-1v-1l-4,-4v-1l-1,-1v-3l-1,-1l-1,-2v-1l-2,-1l-1,-1v-3h-1v-1h2v-6l1,-1v-2l1,1h2v2h1v1l1,1v1l2,4l1,1h2l3,2v1l1,2l4,3l-1,-1l1,-1h2v-2h1l4,6v1h2l1,-2v-2l1,-2v-2l-1,-1v-2l-2,-3l3,2v-1h-1v-1l2,2v2l1,1l1,8l2,2l2,4v5h1v2l1,1v5h1v1h-1l-2,-2v2l-1,1h1v2l1,1h1v1l1,2v1l1,1v1l1,1v1l1,2v2h1v3l1,2v2l1,1v2l1,1l-1,1v1l-2,2v1l-1,1M834,334l1,1l4,2h1l2,1h2M833,343h1v1h1v1h3l1,1l2,1h2l1,1v-11l1,1l3,1h1v1h2l2,2h3v1M842,387l1,-1v-1h2l1,1v1h1v-3l-1,-1v-3l-1,-1v-1l1,-1l-1,-1v-1h1v1h2v1h3v-3l1,-1v1h1v2l1,1v1l2,2h2l1,-1v1l1,1h-1l1,1h2v-1h-1l1,-1v-1h1v-9l1,-2h-1v-1l-3,-3v-5h1v-1h2v-4h-1v-2l-1,-1h-5v-3l-1,-1v-1l1,-1v-2l2,1l1,1h2l1,1h2v1h1v1h1v1h2v1h1l1,1h1l1,2l1,1v-4l1,-1v-2l1,-1v-5h1l2,1h3l1,2h1l1,1h2v1l1,1M854,397v1h1v1l1,1h1l1,-1v-1h4v5h1l1,1v-1h1l1,-2l1,-1h2v-1h2l1,-1l1,-2v-10l3,-3l1,-3l1,-1h2l3,-3l-1,-2l1,-2v-2l1,-2l-1,-3v-2l1,-2v-4l1,-3v-2l1,-1v-1l1,-2v-1l-1,-2l1,-2l-1,-1v-2h1v-1l1,-2l2,-1h1l2,2v1l2,1l1,2v1l1,1v1h1l4,4h1l3,3h1v-2l1,-1h2v1h1v1h5l2,2h2v-1h2v1l4,4h2l1,2h1v1l1,2v2h1v2h1v1h1v1h2l1,1v1h1l1,-1v1l1,1v1l1,1v1l2,4v2h1v1l1,1M940,417v-5l1,-1v-7l1,-1v-3h1v-1h1l2,-2l1,-2v-2h-1v-2h-1v-10h1l1,1v1h1v-1v1h1v2l1,1v-1h1l1,1h1v1l1,1h1v-1l1,-1l1,3v2l1,1v4l1,2v2h1v8l1,1l-1,1v2h-1v2l-1,1v2h-1v10"/>
<path class="sb" d="M938,426l-1,-1v-2h1v-4l1,-1v-1h2v1h1v1v-1h1v-1h1M938,441v-15h1v2l1,1h1v-3h1v1h1l1,1M941,476v-1l-1,-1v-10l-1,-1v-1l-1,-1v-20l2,1h1l1,-1v-2h1v-2h1v-1h1v-2l-1,-1v-1h-1v-1l1,-1h-1l1,-2h1v1v-9l-1,-2v-1v1h2l2,2h1v1h1l1,1v1h1l2,2h1v1h1l1,1v1l1,1v1l2,4l1,1v2l1,2l1,1v2l1,1l1,2v2l1,1l1,2v2l1,1v2l1,1v2l-1,1v1h1v4l1,1v1l1,2v3l1,1v2M847,398h1v-1h1v-1h2l1,-1h1v2h1v1h-2l-1,1h-1v6h-2M853,408h2l4,2h1l1,1l4,2h2l4,2l1,1h1l1,1v6l1,1v5l1,1v3l2,4v1h2v1l1,-1l1,1h2l2,2h2v-3l1,-1v-2l1,-1h1l1,1h3v4l1,1h2l2,1l1,1v3l-1,2v2l1,2l-1,3v2l-1,2v5l1,1v8h-1v4h1v-1h1v1h1l1,1h3v1h2M893,532l-1,-2v-2l-1,-3l-1,-1v-3l-1,-1v-3l1,-3v-2l1,-2v-3l1,-3v-2l2,-6v-2l1,-3v-1h1l1,1l2,1l1,1h2l2,2h1l-1,-2h1v-2h1v-5l1,-1v-5l1,-1v-1v1l1,1v4h4l1,1h-1v4h1v1l3,3v1h1l1,1h1v-1l1,-1v2l1,1v4h1v1l2,2v4l1,1v5h1v1h1v-1h1v2l1,-2v-2l1,-2v-4h-1v1h-1v-1h-1v-3l-1,-1v-6l1,-2v-3h1v-3l1,-2v-8l1,-1h1v-1l1,-1v-1h2l2,1h1l1,1h1l1,1v4l2,2v3h1v1l1,1v1h1v2l1,1v1M941,531v-1h-1v-4l1,-1v-1h1v-4l1,-1h2v-8l1,-1v-1l1,-1l-1,-1v-1h1v-1l1,-1v-9h-1v-3h1v2l1,1v1h1v1l1,1v-1l1,2v10l-1,1v6M831,499h3v1h1l1,1h1l1,-1h2l1,1h1v2l2,2v1h1l2,1h1l10,5l3,1l4,2h1l2,2h1v2l1,1v1h1v1h1l3,3h2l1,1v1h1v1h2l1,1h1l1,1h2l1,1h4l2,1h2l1,1h1l2,2h1l1,1v2M858,581h1v-2l2,-4l1,-3v-2l1,-2l1,-3l1,-2v-2l1,-2h1l2,1l1,1h1v-2l2,-3l4,-13v-4l2,-6l1,-2l1,1h2l2,1h2l2,1h2l1,1v4h1l1,-1h1v-1h2v1h2l1,-1l1,1M907,586v-2h-1v-2h1v-1h-1v-1l-1,-1l-1,-2h-1v-1l1,-1v-1l-1,-2l1,-1v-2h1v-2l-1,-1h-1l1,-1v-3l-1,-1l-1,-2v-1l-1,-3v-5h1l-1,-2v-10l1,1v1h1v1l1,1h2v2l1,1h1l3,-3l2,-1l1,-2l1,-1h4v-1l1,-1v-2h1l2,-1h2l2,2M829,604h2l1,-1v-1h1v-1h1l1,1l-1,1h1v2h-1v2l4,4h1l2,2h1l1,-1h1l1,-1h2l1,-1l2,-7l2,-4l1,-3l2,-4l3,-11l1,1v2l1,2l-1,3v5h-1v1l-1,1v1l-1,1v2h1v1l2,1h3l2,-2l2,-1h1l1,-2l1,-1v-1l1,-1h3v1l1,1v2l2,2v1l1,1h2v1h2l1,-2l3,-3v-1l1,-1l1,1h1l2,-2h1l2,-4l1,-1h3v-1h1l3,-3h4v-1h1l1,1h1l1,1l1,2l1,1h1l1,1v1l1,1M902,630l-2,2v1h-1l-1,-1v-1l-1,-2l1,-2v-2l1,-2l4,-4v1l1,1v2M904,632h-1v-1l-1,-1l1,-2v-2h1v-2h1l-1,-1l1,-1v-1l1,-1l1,-2v-1l1,-1v-2l1,-2l1,-1v-4l1,-1v-4l1,-2v-2l1,-2v-3h1v-1l1,-1h1l4,-4h1v-1l1,-2l1,-1v-1h1l1,-1v-1l1,-2h1v-5l1,-1v-4h1l1,-1v-1l1,-1v-2l1,-3l1,-2v-4l1,-1v-3l-2,-2l-1,-2v-2l-1,-1v-2l-1,-1l-2,-1v-4l1,-1v-4h10l2,1h1v6l1,-1l1,1h1v6l-1,1v1l-1,1v1l-1,1v4h-1l1,1v9l1,-2v-3l1,-1v-1h2l1,-1v-2l1,-2v-1l1,-2v-1l1,-2l-1,-2v-10l-1,-1v-4l1,-1v-7l1,-1v-1h1v-2l3,3h2v4h1l1,1v-1l1,1v1l1,1h1l1,-1v-1v1h1v2h3v1l1,-1h2l1,-1"/>
<path class="sb" d="M878,646h2l1,-1v-1h1l1,-1v-1h1v-3l-1,-1v-4h-3v1h-2l-3,3h-2v5l-1,1v4h1v1l3,-3h2M901,202l3,3l1,2l2,2l1,2l1,1l1,2l1,1l2,4l2,2l2,4h1M963,321v-3l-1,-1v-1h1v2h1v1l1,1v1h1v2l1,1v1l1,1v1h1v2l1,1v-1h-1v-3l-1,-1l1,1M895,193l1,2l1,1l2,4v-1l1,2l1,1h-1v-1h-1v-1h-1l4,4l1,2l1,1l1,2l1,1v1l-1,-1v1l-2,-2h-1l-1,-1M891,191v1h1v1l2,2v1M890,189l1,2l-1,-1v-1h-1l1,1v1h1v1l1,1v1v-1v1h1v1l3,3v1l1,1v1l2,2v1l1,1l1,2M895,193v1h-1l-3,-3v-1h-1v-1l-2,-2v-1h-1v-1M882,178v1h1h-1h1v1h1v1l2,2v1v-1v1l1,1M879,174v-1h-1l-1,-1v-1h-1v-1h-1v-1h-1v-1h-1h1v1h1l1,2v-1v1l1,1l-1,-1M678,33h1h-1l-1,-1"/>
<circle class="w4" cx="500" cy="774" r="51"/>
<circle class="w4" cx="500" cy="774" r="49"/>
<circle class="c4" cx="500" cy="774" r="50"/>
<path class="sg" d="M 334.5375 970.9739 A 249.7500 99.3317, 0, 1 1, 664.4625 970.9739"/>
<path class="sg" d="M 80.6871 771.7058 A 432.5797 172.0475, 0, 1 1, 918.3129 771.7058"/>
<path class="sg" d="M 0.0000 499.5000 A 499.5000 198.6634, 0, 1 1, 999.0000 499.5000"/>
<path class="sg" d="M 80.6871 227.2942 A 432.5797 172.0475, 0, 0 1, 918.3129 227.2942"/>
<path class="sg" d="M 334.5375 28.0261 A 249.7500 99.3317, 0, 0 1, 664.4625 28.0261"/>
<path class="sg" d="M 2.2375 452.2742 A 457.9671 499.5000, -264.57480431, 0 0, 996.7625 546.7258"/>
<path class="sg" d="M 232.4996 77.3495 A 387.9619 499.5000, -212.31239813, 0 0, 766.5004 921.6505"/>
<path class="sg" d="M 396.8333 10.6649 A 214.0026 499.5000, -191.86104692, 0 0, 602.1667 988.3351"/>
<path class="sg" d="M 507.0032 0.0564 A 17.2986 499.5000, -179.13930735, 0 1, 491.9968 998.9436"/>
<path class="sg" d="M 620.6938 14.9256 A 243.9646 499.5000, -165.95817077, 0 1, 378.3062 984.0744"/>
<path class="sg" d="M 800.0109 100.5095 A 405.2604 499.5000, -143.01374361, 0 1, 198.9891 898.4905"/>
<text x="0" y="0" class="fs" transform="translate(91,279) rotate(102)">90W</text>
<text x="0" y="0" class="ft" transform="translate(91,279) rotate(102)">90W</text>
<text x="0" y="0" class="fs" transform="translate(274,211) rotate(96)">60W</text>
<text x="0" y="0" class="ft" transform="translate(274,211) rotate(96)">60W</text>
<text x="0" y="0" class="fs" transform="translate(518,189) rotate(90)">30W</text>
<text x="0" y="0" class="ft" transform="translate(518,189) rotate(90)">30W</text>
<text x="0" y="0" class="fs" transform="translate(756,218) rotate(82)">0W</text>
<text x="0" y="0" class="ft" transform="translate(756,218) rotate(82)">0W</text>
<text x="0" y="0" class="fs" transform="translate(926,291) rotate(78)">30E</text>
<text x="0" y="0" class="ft" transform="translate(926,291) rotate(78)">30E</text>
<text x="0" y="0" class="fs" transform="translate(634,809) rotate(14)">60S</text>
<text x="0" y="0" class="ft" transform="translate(634,809) rotate(14)">60S</text>
<text x="0" y="0" class="fs" transform="translate(731,579) rotate(14)">30S</text>
<text x="0" y="0" class="ft" transform="translate(731,579) rotate(14)">30S</text>
<text x="0" y="0" class="fs" transform="translate(765,327) rotate(15)">0N</text>
<text x="0" y="0" class="ft" transform="translate(765,327) rotate(15)">0N</text>
<text x="0" y="0" class="fs" transform="translate(729,122) rotate(14)">30N</text>
<text x="0" y="0" class="ft" transform="translate(729,122) rotate(14)">30N</text>
<path class="tb" d="M127,998h-2l-1,-1h-2l-1,-1h-2l-1,-1h-2v-1h-3v-1h-2l-1,-1h-2v-1h-2l-1,-1h-2v-1h-2v-1h-2l-1,-1h-2v-1h-2v-1h-2v-1h-2v-1h-2v-1h-2v-1h-2v-1h-2v-1h-2v-1h-1l-1,-1h-1v-1h-2v-1h-2v-1h-1v-1h-2v-1h-1l-1,-1h-1v-1h-2v-1h-1v-1h-2v-1h-1v-1h-1l-1,-1h-1v-1h-1v-1h-1l-1,-1h-1v-1h-1v-1h-1v-1h-2v-1h-1v-1h-1v-1h-1v-1h-1l-2,-2h-1v-1h-1v-1h-1v-1h-1v-1h-1v-1h-1v-1h-1v-1h-1v-1h-1v-1h-1v-1h-1v-1h-1v-1h-1v-2h-1v-1h-1v-1h-1v-1h-1v-1l-1,-1v-1h-1v-1h-1v-1l-1,-1v-1h-1v-1l-1,-1v-1h-1v-1l-1,-1v-1h-1v-2h-1v-2h-1v-1l-1,-1v-1l-1,-1v-1l-1,-1v-2h-1v-2h-1v-3h-1v-2h-1v-4h-1v-3h-1v-5h-1v-6l-1,-1v-17h1v-7h1v-4l1,-1v-3h1v-3h1v-3h1v-2l1,-1v-2h1v-2h1v-2h1v-2h1v-2h1v-2h1v-2h1v-1h1v-2h1v-1h1v-2h1v-1h1v-1l1,-1v-1h1v-1h1v-1l1,-1v-1h1v-1h1v-1h1v-1h1v-1h1v-1h1v-2h1v-1h1v-1h1v-1h1v-1h1l3,-3h1v-1h1v-1h1v-1h1v-1h1v-1h1v-1h1l1,-1h1v-1h1v-1h1v-1h1l1,-1h1v-1h1v-1h2v-1h1v-1h1v-1h2v-1h1v-1h2v-1h1v-1h2v-1h1l1,-1h1v-1h2v-1h1l1,-1h1v-1h2v-1h2v-1h2v-1h1l1,-1h1l1,-1h1l1,-1h1l1,-1h1l1,-1h2v-1h2v-1h2v-1h2l1,-1h2v-1h2v-1h2l1,-1h2v-1h3v-1h2l1,-1h2v-1h3v-1h3v-1h159v1h3v1h3v1h2l1,1h2v1h3v1h2l1,1h2v1h2v1h2l1,1h2v1h2v1h2v1h2l1,1h1l1,1h1l1,1h1l1,1h1l1,1h1v1h2v1h2v1h2v1h1l1,1h1v1h2v1h1l1,1h1v1h2v1h1v1h2v1h1v1h2v1h1v1h1v1h2v1h1v1h1l1,1h1v1h1v1h1v1h1l1,1h1v1h1v1h1v1h1v1h1v1h1v1h1l3,3h1v1h1v1h1v1h1v1h1v2h1v1h1v1h1v1h1v1h1v1h1v1l1,1v1h1v1h1v1l1,1v1h1v1h1v2h1v1h1v2h1v1h1v2h1v2h1v2h1v2h1v2h1v2h1v2l1,1v2h1v3h1v3h1v3l1,1v4h1v7h1v17l-1,1v6h-1v5h-1v3h-1v4h-1v2h-1v3h-1v2h-1v2l-1,1v1l-1,1v1l-1,1v1h-1v2h-1v2h-1v1l-1,1v1h-1v1l-1,1v1h-1v1l-1,1v1h-1v1h-1v1l-1,1v1h-1v1h-1v1h-1v1h-1v2h-1v1h-1v1h-1v1h-1v1h-1v1h-1v1h-1v1h-1v1h-1v1h-1v1h-1v1h-1v1h-1l-2,2h-1v1h-1v1h-1v1h-1v1h-2v1h-1v1h-1v1h-1l-1,1h-1v1h-1v1h-1l-1,1h-1v1h-1v1h-2v1h-1v1h-2v1h-1l-1,1h-1v1h-2v1h-1v1h-2v1h-2v1h-1l-1,1h-1v1h-2v1h-2v1h-2v1h-2v1h-2v1h-2v1h-2v1h-2v1h-2l-1,1h-2v1h-2v1h-2l-1,1h-2v1h-2l-1,1h-2v1h-3v1h-2l-1,1h-2l-1,1h-2l-1,1h-2Z"/>
<path class="tl" d="M169,986h1v1h-3l-1,-1h2v-1ZM114,989h-3l-1,-1h2l1,1ZM176,983h1l1,1v1h1l-1,1h-2l-1,1h-1l-1,-1l1,-1v-2h1v-1ZM124,980h2v1h-1ZM122,980l1,1h-1l-1,-1ZM136,977h1h-2ZM156,974v1l1,1h-5v-1l1,-1v-1l-1,-1l1,-1v1h1l1,1ZM158,964v1h-2v2h1l-2,2v1h1l1,1h1l4,4v1l1,1v1h-1v2h-1l-1,1h-1v1h-2l1,1h1v1h-2l1,1h1v1h3l1,1h3l1,1h3l1,1h1l1,1v-1h1v-1h2l2,-1l1,1h1v-1h4v-1h3l1,-1h-1v-1h-4l-1,-1l1,-1h1l2,-2h4l1,-1h1l2,-2h-1v-1h1v-1h2v-1l1,-1h1v1h1v-1h8v-1h3v-1h1l1,1h2v-1h1v1l1,-1h4v1h6v-1h3v-1h2v1h3l1,-1h3v-1h2l1,-1h2l1,-1h4v1h1v1h1l1,1h1l1,-1l1,1h2v1l-2,2h-1v1h1h-1v1h-1v1h2l2,-2h1v-1h3l1,-1h1v-1h2l1,-1h5v-1h1v1h5v1h1l1,-1l1,1l1,-1h1l2,-1v1l1,1h3l1,-1h2v1h1v1h4l1,-1v1h9l1,-1l-1,1v1h-1h3l1,1h2l-1,1v1h1v1h2v1h1v2h2l1,1v1h-1l-1,1h-2l-1,1h-3l-1,1h-2l-1,1h-2l-2,2v1h-5l-1,1h-2v1h-1v3h2l-11,4h-155l-11,-4h-1h2l1,-1l1,1h14l-1,-1h-7v-1h-2v-1h-3l-1,-1h4v-1h-2l-1,-1h-7l-1,-1l-2,-1l1,1l1,-1l2,1v-1h1v-1l-1,-1h-1h2v-1h2v-1h4l1,-1h5l1,-1l1,1v-1h1l1,1h1v-1l1,1h6v-1h-2l-1,-1h-1l-1,-1h4l1,1h1l1,-1h3l-1,-1h1l1,1l1,-1l1,1h3v-1l1,1h4v-1h2l1,-1v-1h-1v-1h-1v-1h-1v-1h-1v-2l-1,-1v-1h1v-2h1v-1h1v-1h1l1,-1l1,1ZM144,951l2,1h1v1h-1v-1v1h-4l-2,-2l-2,-1l2,1h2v-2h1v1ZM151,947h1v1h-2v1l-1,-1l1,-1ZM269,946h-1v-2h1l1,1ZM345,939v1h1l1,-1v1l-3,3v-1l-1,1h-1l1,-1v-1l1,-1v-1ZM368,943v1l1,-1v1h-1l-3,3h-1l-1,1h-1l-2,2h-2v1h-1v-1h-1v-1l4,-2h1l1,-1h2l2,-2h1l2,-2ZM376,936l-1,2l1,-1l-1,1l1,1h1l-2,2h-1l-2,2l-2,1h-1l2,-1v-2l1,-1l2,-1v-1l1,-1v-3l1,-1v1l1,1ZM382,913l-1,1v-2l-1,-1v-1h1v1l1,1ZM397,906v1l-1,1h-1v-1l1,-1v1ZM398,906h-1v-1h1l1,-1v1ZM10,905v-1ZM386,904v-1ZM386,901v2h-1v-1ZM259,895v2l1,1h-1v1v-1v2h-1v3l-3,6v2h-1l-1,1l-1,-1h-1v-5h1v-2l1,-1h-1v-3h1v-1h1l2,-2h1v-1l1,-1v-1l1,-1v1ZM361,898v1h1v1h1l-1,1v2h1l-1,2v1l2,2v4h1l-1,2l1,1v3l-1,1v2l-3,3v1l-1,1l-1,2h-1l-1,2h-1l-4,4v1h-2l-1,1h-1l-1,1v-1h-1l1,-1h-1l-1,1h-1v-1h-1v-3h1l-1,-1v-1l1,-1l-1,1h-1l3,-3l-2,1h-1l-1,2v-4l-2,-2h-2l-1,1h-4l-2,2h-4l-1,1v-1l-1,1h-2v-1h-1l1,-1v-1h1v-3l1,-1v-7l1,1v-3l1,-1v-1l1,-1l-1,1l2,-2h1l1,-1h2l1,-1h2v-1h1l1,-1v-2l1,-1v2l1,-1v-1h1v-1l2,-2h2v1h2v-2h1l1,-1v-1h2v-1h-1h1l1,1h3l1,1h-1v1h-1v1l-1,1v1l2,2v1h1l1,1h1v-1l1,-1v-1l1,-1v-3l1,-1v-2h1v-1v3l1,1Z"/>
<path class="tl" d="M383,894h-1v-1v1ZM337,892l-2,-1h2ZM381,893h-1v-1h1ZM382,892v-1l-1,-1h1ZM341,892h-1l3,-3h2l-1,1h-1l-1,1ZM335,889h1v1h-3l1,-1ZM340,889v1h-3v-1h2ZM381,890v1l-2,-2h1v1ZM378,889v-1h-1v-1l1,1ZM325,887h2v-1l2,1v1h2l1,1l-1,1l-1,-1h-4l-1,-1h-1l-2,-1h-1l1,-2h1l1,1ZM353,886v1v-2ZM377,888h-1v-2l-1,-1h1v2h1ZM373,885l-1,1h-1l-1,1l-1,-1h-1l1,-1l1,1v-1h2v-2h1v1ZM345,882h-1v-1h1ZM349,881v2l-1,-1h-2v-1h2ZM374,884l-1,-1v-1l-1,-1h-1h2v2h1ZM353,878v3l2,1v-2l2,-1h1l1,1h1l1,1l4,2v1h1v1l2,1v1h-1v1l1,1v2h1v1h1h-1l1,1l-1,1v-1h-2l-1,-1v-3h-3l-1,1v1h-2l-2,-2v1h-2l1,-2h1l-1,-2v-1l-2,-1h-1l-1,-2l-1,1l-1,-1h1l-1,-1l1,-1h-1v-1h-1l-1,-1h2v-1ZM343,875l-1,1h-4v1l1,2v-1h2l-1,1h-1l1,2v1l1,2v1h-1v-2l-1,1v-1l-1,-1l1,-1h-1v4h-1v-3h-1v-1l1,-1v-4h1v-1h4l1,-1ZM347,875v1h-1v1l1,1h-1v-4h1ZM321,885h-1l-2,-2v-1l-2,-2l-1,-2v-2l-1,-1v-1l-4,-4v-1h2l3,3l1,2h1l2,2h1l-1,2h1v1l1,1h1v3ZM335,874l1,1h-1v3l-1,1v1l-1,3v-1l-1,1l-1,-1h-1v-1l-1,1l-1,-1h-1l-2,-4v-2l1,-1h2v-2h2v-1l1,-1v-1h1l1,-1v-2h1v1l2,2v1h-1l-1,2l1,1ZM344,864v3l-1,-1v2l-2,-2h1l-1,-1v1l-1,-1l-1,1v-1l1,-1h2v-1h1v-1l1,1ZM294,868h-1v-1l-1,-2l1,-2l1,1v1l1,1v1ZM137,863h-1l1,-1h1ZM341,861v1l-1,1l-1,-1l1,-1v-1v1l1,-1ZM335,863l-1,1v-1l1,-1v-1l1,-1v1l-1,1ZM338,859h2v1l-1,1v-1h-1ZM342,858l1,2h-1v1v-1h-1v-1h1h-1v-1ZM338,857l-1,1l-1,-1h1ZM336,849h1v6h1l2,1v2l-1,-1v-1v1l-1,-1h-2v-1h1h-1l-1,-1v-5ZM133,851v1h-1v-1ZM121,852h-1v-1h2v1ZM126,849h3v1h1v1h-2l-1,1v-1h-1v-2h-1ZM324,849l-1,1h-1v-2l1,-1h1v1ZM37,846v-2h1v2ZM38,844h-1v-1h1ZM119,845h2l1,1v1h1v1h2l-1,1h-3v-1h-1v-2h-2l-1,-1h-1h1h-2l-1,1h-1l2,-2h3ZM122,843h-1v-1l1,-1v1ZM334,843v1l-2,-2v-2l1,-1l1,1ZM122,839l-1,1v-1ZM123,839v1v-1h-1ZM340,825h1v1h-1v1h-1v-2ZM240,828l-2,2v-1h-1h2ZM229,828v1h-1ZM220,825v2h-1l-1,-1h-1v-1h2ZM214,821v3h-1v-3ZM344,820v1l1,1v1l-1,1h-1l-1,2l-1,-1v-1l-2,1l-1,1h-1l2,1v3l-1,-1v-1h-1l-1,-1l1,-1v-3h3v-3l1,1v-2h1l-2,-4v-1l3,3v1ZM214,820v1l-1,-1v-1l1,-1ZM340,810l1,-1l1,2h-1v2l-2,-1l1,2h-1l-1,-2l-1,-1h1l-1,-2l-1,-1l3,1ZM144,812l1,1h1h-2ZM147,809h-1l-1,-1h1ZM92,806h-1l-1,-1v-2h-1v-1h1l1,1v1l1,1ZM153,807l-1,1h1v1h2l-1,1h1v1l-1,2l-1,-1l1,-1l-2,1v-1h-3l1,-1h-1l4,-4h1Z"/>
<path class="tl" d="M90,797h1l-2,2v1v-3ZM332,800l3,3l-2,-1l1,2l2,2v1l-2,-2l-1,-2l-6,-6v-1h-1h1l3,3ZM198,806l-1,1h-2l1,-2v-1l2,-2h1v3ZM216,801l-1,2l-1,-1v-1h1ZM79,791h-1v-1h2ZM202,797l-1,2h2v1l-1,1h1l2,4h1v1l-1,1h1l-1,1h-3l-1,1h-2l2,-2h-1v-1h1l-1,-1v-1h2l-1,-1h-1v-2l-1,-1l1,-2v-1l1,1ZM75,786h-1v-1h1ZM141,790l-1,1v-1ZM139,790h-2l1,-1h1ZM78,780v1h1h-2v-1ZM139,786h1v1h1l-1,1h1l-1,1l-1,-1h-1l-2,1l1,-1h-1h1l1,-1l1,-2ZM193,787v1l1,1l-1,1h-3l-1,1l-1,-1h-2l1,-1h-1h1v-1h-2l1,-1h1l1,1l2,-1h2ZM147,784h-1l1,-1h2l-1,1ZM81,776v1l1,-1h2l-1,2h-3l-1,1h-1l-1,-1h1v-1h-1h1h-2l-1,1l8,-5v1l-1,2ZM135,780l-1,1v-1h-1l1,-1h1ZM322,771h-1ZM88,771h-1h2ZM139,780l-1,2l2,-1v1h-1v1l1,-1l2,-1l1,-1h2v2h-1v1l-1,1l-2,1h-1v-1l-1,1l-2,1v1h-3l-2,2h-1l-1,1l-2,1l-1,1l-1,2h1l-1,1v1h1l3,3l2,1h1l-2,2v2l1,1h1l2,-4h-1l4,-2v-1l1,-1v-1l-1,-1l2,-1l2,-4l1,1h1l1,-1v1l1,1h1v2l-1,1l1,1h2l1,-2h1v3l1,1l-1,1l1,1v1h1l1,1v1l1,1l-2,2h-2l-2,2h-1l-2,-1h-2l-2,1l-1,1l-2,1l-1,1l2,-1l3,-1h2l-1,1l-1,2v1l1,1l2,-1l1,-1v1h1l-4,2h-1l-2,1v-1l2,-1h-3v1h-1l-1,1h-1l-2,2l1,1v-1v1h-3l-1,1l2,-1v1h-2l-2,2v1l-1,1l-1,-1l1,-1l-1,1v4l-1,1h-1l-1,1h-1l-3,3h-1v8l-1,1h-1v-3l-1,-1l1,-1l-1,-2l-1,1l-1,-1h-4v1h-1l-1,-1l-1,1l-1,-1l-2,2h-2v1h-1v3l-1,1v1l-1,2v4l1,1v1h1v1l1,-1h3v-1l1,-1v-1l1,-1h3v1l-1,1v2l-1,1v-1v2l-1,1v1h5v1h1v1l-1,1v3l-1,1h1v2h1v1h2l1,-1h1v1h1l1,1l1,-1v-2l1,-1h2l2,-2v2h-1h1v1l-1,1v1h1v-3h1v-1h1v1h1v1h3l1,1l1,-1h1l1,1h1v1l1,1h1v1h1v1l1,1l2,1v-1h1l1,1h1l1,1v1h1v1l1,2v1l-1,1l1,1h2v1v-1l4,2v1h1l3,1h1l2,1l2,2h2v5l-1,1l-1,2l-2,2v9l-1,2v2h-1v1h-2l-1,1h-1l-3,3v5l-1,2l-2,2v2l-2,2v-1l-1,1l-1,-1h-1v-1v1l1,1v1l1,1v2l-2,1h-3l1,1v2l-1,1l-1,-1h-1l1,2h2l-2,2l1,1v1h-1l-1,1v1l2,1h1v1l-1,1v2h-1v1l2,2h-1l-1,1v1h-1l-2,-1l-3,-3l-1,-3v-1l1,-1h-2l1,-2l-1,-2h1v-2l-1,-1v2l-1,-2v-4l-1,-1l-1,-2h1v-6l-1,-2v-8l-1,-2v-6l-1,-2l-1,-1l-2,-1l-3,-2l-1,-1v-1l-1,-2l-1,-3l-2,-3l-2,-2v-1l-1,-2l2,-2v-1h-1v-3l1,-1v-1h1v-2h1l1,-1v-5l-1,-1v-2h-1v1h-1v1h-1l-1,-1h-2v-2h-1v-1v1h-1v-3l-2,-2h1h-2v-1h-2l-1,-1l-1,-2h-1l-1,-1v1h-2l-1,-1h-2l-2,-2h-1l-1,-1v-1h-1v-3h1l-1,-1v-3l-1,-1v-1l-1,-1v-3h-1v-5l-1,-1l-1,1v4h1l-1,1h1v5h1v2h-1v-1l-1,-1v-3l-1,-1v1v-1h-1v-1h1v-9h-1v-1h-1v-9l2,-2v-1l1,-2l2,-2l1,-2l1,-1v-1h1v1l2,-2h-1v-2l-1,-1v-1l1,-1l-1,-1l1,-1v-1l1,-1l-1,-1l1,-1v-1l1,-1l-1,-1h-1v-2h-1v-1h-1l-1,-1h-1l-1,1h-4l1,-1l2,-1h-1l-1,1l-2,1h-1l-1,1l-2,1h-2l-2,1h-1l-1,1h-3l-1,1h-2l1,-1h2l2,-1h2l2,-1h1l2,-1l1,-1h-3l1,-1l-1,1h-1l2,-2h-1v-1l2,-2l2,-1h3l1,-1h1l1,-1h-3v-2h4l1,1l1,-1v-3h4l1,-1h2l2,-1l1,1l1,-1h1l-1,1h1l1,1h2l1,1h2v1l1,1l1,-1h6l1,-1v2l2,-1l-1,1h2l1,1h2v1l-2,1h4v1l2,-2h2v1h1l1,1h2v-1h1l1,1l-1,1l1,-1h1l1,-1v-2l1,-1l2,-1l1,1l-2,2Z"/>
<path class="tl" d="M128,774l-1,1h4l-1,1h1l2,-2v1l-1,2v1l1,1h-2v1h-8v-1h-1v-1h4l-1,-1h-3l2,-1h-1l1,-1h1ZM135,774l-2,1v-1h1ZM152,776v1l-1,-1l-1,1v-2h2ZM146,776v1l1,-1l2,-1v2h3l1,1l-1,1l2,-1v1l1,1v2h-1l2,2v1h1v1l-2,1h-1l-1,-2l-1,1v1l1,1v2l-1,1l-2,-2v1l1,1h-2l-2,-2v-1l-1,-1v1h-3v-1l1,-1h3l1,-1l2,-1v-1l-1,-1h-1l1,-1l-1,-1h-5l-1,-1h-1l1,-1h-1l1,-1l2,-1l1,-1h2ZM138,774h2l-1,1h-1l1,1l-2,1h-2v-2l1,1v-1ZM298,772h-2v-1ZM141,776l-2,1v-1l2,-2h2l1,1l-2,1ZM122,776h-2l-1,-1h1l2,-1l2,-2h2v1h2v1h-1l-3,1h-2ZM299,769v1h-3v-1h1ZM143,773v1l-1,-1h-1l1,-1h1l1,1ZM295,769l1,1h-2l-1,1l-2,-1l-1,-1h2ZM143,771h-1v1l-1,1h-2l1,-1h-1l1,-1h2ZM136,771h1v1h-4l-2,1h-1l1,-1h-1l-1,-1l2,-1h1l2,1l1,1v-2h2ZM246,780h-3l-2,-1v-1l1,-2h-1l1,-1l-1,-1h1l4,-2h2l-1,1l-2,1l-1,1v2l-1,1l1,1ZM145,770l1,1h1l-1,1h1l1,1h4v1h-7l-1,-1l1,-1v-1h-2l1,-1ZM134,769l-2,1h-4l2,-1h3ZM271,770l1,1v-1h2l2,1h1v1l-1,1h1l2,1v-1l1,1l1,-1h2l1,1h3l-2,-1h5l1,1v1h2l2,1l-1,-1h1l1,-1l2,1v-1h1l-2,-1h8l3,1l1,-1h2l2,2h2v-1h3l3,1v-1h-2v-1h7l8,5h-1l1,1l2,1h2v1h-1v1h-1l1,1v2l-2,-1v2l-1,-1v1h-1l2,2v1h1l3,2h-1l1,1h1v1l1,2h-1l1,2l1,1l-4,-2l-4,-3l-1,-2l-1,-1v-3l-1,-2v-1l-2,-2l-1,1l2,2l-3,-1l-1,1l1,2l1,1h-1l-1,1l-1,-1h-1v1h-4v7h1l2,1h1l-1,-1h1l3,1l1,2l1,1l1,2l2,2v9h-1l-1,-1v2h-1v1l1,1v1h-1v1l1,1h1l2,2v1l1,1v1l-1,1h-1l-1,-2l-1,-1h1l-2,-1v-1v1v-1h-1v-1l-1,-1h-2v1h-1l-1,-1l1,-1l-1,-1l-1,1v2h-1v1l2,2h1v-1h2l1,1l-2,1v2l2,2l1,2l2,1v2h1v6l-2,4l-1,1h-1v1l-1,-1v1l-2,1h-1v2l-1,-1v-1h-2l-1,2v2l1,1l1,2l2,2l1,3v4l-2,1v1l-2,1v-2l-1,-1h-1v-1l-2,-2h-1v-1h-1v6h1v3l1,1h1v1h1v1l1,1v3h1v2h-1l-2,-2v-1l-1,-1v-1l-1,-1v-2l-1,-1v-1h-1v-6l-1,-1v-1l-1,-2v-2l-1,-1l-2,2h-1v-3l-1,-2v-1h-1l-2,-2v-1l-1,-1h-1v2l-1,-1v1h-2v2l-2,1l-1,2v1l-2,2h-1v8l-1,1l1,1h-1l-1,1l-1,-1l-1,-2v-1l-1,-1v-1l-1,-2v-1l-3,-6v-3l-2,1h-1l-1,-2v-1l-2,-1l-1,-1v-1l-1,-1l-2,1h-5l-1,-1h-2v-2h-1l-1,1h-2l-3,-3l-1,-2l-1,1v-1l-1,1v2l1,1h1l1,1v2l1,1l-1,-1l1,-1v2h1v1l1,-1h2v-1l1,-1v-1v2l2,2h1l2,2l-1,1v1h-1v3h-1v1h-1v1h-2v1h-1l-2,2h-1l-2,2v-1l-1,1h-2v1h-2v-2l-1,-1v-3h-1v-1l-1,-1v-1l-1,-1h-1v-1l-1,-1v-3h-2v-2l-1,-1v-1l-2,-2v-1v1l-1,1l-1,-1l-1,-2l1,2l1,1l1,2v1l2,2h-1l2,2v1l1,1h-1l1,2v1l1,1l1,2v1l1,1l2,1v1h1v1h1v1l-1,1h1l1,1h3l1,-1h3v-1h1v2l-1,1v3l-1,1l-3,6l-1,1l-2,1l-1,1l-1,2v1h-1v1h-1v2l-1,1l-1,2l1,1v4l1,1v7l-1,1h-1l-3,3h-1v1l-1,1v2h1l-1,1h1v1l-1,1h1l-1,1h-1l-2,2v3l-3,3v1l-2,1v1l-1,1h-2v1l-1,-1v1l-1,-1l-1,1h-2l-1,1l-1,-1h-1v-5l-1,-1v-2l-1,-1v-1l-1,-1v-5l-1,-1v-1l-1,-2v-1l-1,-1v-3l1,-1v-3h1v-1l1,-1v-1h-1v-5l-1,-1v-2l-3,-3l-1,-2l1,-1v-5l-1,-1v-1l-1,1h-2l-1,-1v-1l-1,-1h-2l-1,1h-2l-1,1h-6l-1,1l-4,-4h-1l-1,-1v-1l-1,-1v-1h-1v-1l-1,-1v-1h-1v-3h-1l1,-1v-1h1l-1,-1l1,-1v-4l-1,-1v-1h1v-2l1,-1v-1h1v-2h1l1,-2h1l2,-2v-3l3,-3l1,-2v-1h1l1,1h2l1,-1h2l1,-1h4l1,-1h1v1h1l1,-1h1v1l1,-1v1h-1v1h1v2h-1v1h1v1h3l2,2h1l2,2l1,-1v-2l1,-1h2l1,1h1l1,1h2l1,1h1v-1h2l1,1v-1h1l1,1v-2l1,-1v-5h-2l-1,1l-1,-1h-2v1l-1,-1h-2v-1l-1,-1v-2l1,-1h1v-1h2l1,-1h1l2,-1l2,1l1,1h2l1,-1v-2h-1l-2,-2h-1l-1,-1l1,-1l-1,-1h2l-1,-1v1h-2l-1,1v1h1l-1,1h-1v-1h-1l1,-1h-2v-1h-1v1l-1,1v1h-1v4l1,1h-2v1h-1v-1h-2l1,1h-2v1l1,1h-1h1l1,1v1l-1,-1v1h-1l1,1h-2v-2l-1,-1v-1h-1v-3h-1v-1h-1l-1,-1h-1l-1,-1v-1l-1,-1v1v-1h-2v1l2,2v1l1,1h1l1,1h1l1,1v1l-1,-1h-1v1h1v1h-1v1h-1v-1h1l-1,-1v-1h-1l-1,-1h-1l-2,-2l-1,-2h-2v1h-4l-1,1v2h-2v1l-1,2h1l-1,1v1h-1l-1,1h-2l-1,1l-2,-2v1h-2l1,-1v-1h-1v-2l1,-1v-3l-1,-1l2,-1l1,1h5v-4l-1,-1v-1h-2v-1h3v-2l1,1l2,-1v-1h1l1,-1l1,-2l1,-1h2v-5h2l-1,1h1v1l-1,1v1h1v1l1,-1h2v1h1l2,-2l1,1h1v-1h1v-3l1,-1l1,1v-1l-1,-1v-1h4l1,-1h-4l-1,1l-2,-2v-4l2,-1v-1l-1,-1l-2,2l-1,2l-1,1v3h1v2h-1v2l-1,2h-1v1h-1v-2l-1,-1l-1,-2l-1,-1l-1,2h-1l-2,-1v-5l2,-1l3,-3l2,-3l3,-3h2l1,-2h3l2,1l-1,1h2l1,1h3l3,1l1,1v1l-1,1h-1l-3,-1h-1l2,1v2l1,1h1v-1h-1l1,-1l2,1v-1l1,-2h1l1,1v-1l-1,-1v-1l-1,-1l2,1h1l-1,1l1,1h1v-1l1,-1l2,-1h1v1l1,-1h1l1,-1l1,1l1,-1h-2l1,-1h2l1,1l4,1v-1h-2v-1h-1l-1,-1v-3h2l1,1v1h1l1,1l1,2h1v3l1,1v-1h1l-1,-1l1,-1h-1l-2,-2v-1l-2,-1l1,-1l-1,-1h1l1,2l-1,-1l1,-1h2l1,1l-1,-1l-1,-2h4l-2,-1v-1h1l1,-1h3l1,-1h1v-2l2,1h-1ZM253,820l1,1v2h-1v1l1,1h1l1,1h3l-1,-1v-2h-1v-2h1v-1l-1,-1h-1l1,1l-1,-1v-1h-2v-2h-1h1v-2l1,1v-3h-2l-1,1h-1v1h-1l-1,2l2,1v1l1,1Z"/>
<path class="tl" d="M146,770h-1v-1h1l1,1ZM137,769h-2l1,-1h1l1,1ZM220,771l-1,1h-1v-1h-1l2,-1v1ZM139,768h-2l1,-1v1ZM146,769h-1v-1h1l1,1ZM144,769h-1l-1,-1h-1h1v-1h1l1,1ZM268,768l-3,1v-2ZM215,769l3,1h-2v3h-1l-2,-1h1l-1,-1l-2,-1v-1l1,-1l1,1h1v-1h1ZM220,768h1l-1,1h-4l-1,-1h3ZM234,767l-1,1h-1v-1h-1h4ZM264,768h-4l-2,-1l-1,-1h1l1,-1l4,2ZM153,767v1h-1l-2,1h-2v-1h1h-1v-1l1,-1h2v-1h1v1h1ZM167,764h3v1h-3l-1,1h-1l-1,1l-2,1h-3v1h-1v1h-2l-2,1h1l-2,1h-4l-1,-1h2v-1h2v-1h-1h1l1,-1h1l-1,-1h4l-1,-1h-3v-1l1,-1h6v-1h3v1l2,-1l1,1ZM190,764l3,1h-6v1h5l-1,1l2,-1h4v1l-2,1h-1l-2,2v2l1,1h-2l1,1l-1,1v1h-1l1,1h-3l1,1v1l-1,-1l-1,1h1l1,1v1h-2l-1,-1v1l-1,1h3l-4,2h-3l-1,1l-4,2h-1l-2,1h-1v1l-2,2v1l-1,1l-1,2h-1l-1,-1h-1l-1,-1v-2l-1,-1v-1l1,-1l-1,-2l1,-1l1,-2h1l1,-1v-1l-1,1h-1v-1l1,-1h1l-1,-1h-1l1,-1v-4l-1,-1h-5v-1l-1,-1h1l-1,-1l1,-1h2l3,-1h1l-2,-1h1l3,-1h1v-1h9l1,1l-1,-1h1l2,-1h3l2,-1Z"/>
<path class="th" d="M181,957h1ZM173,951h-2v-1h1h-1h1v1v-1v1Z"/>
<path class="tg" d="M66,970h1l1,-1h4v-1h5v-1h5v-1h6v-1h6l1,-1h7v-1h8v-1h9l1,-1h11v-1h14v-1h20v-1h79v1h20v1h14v1h11l1,1h9v1h8v1h7l1,1h6v1h6v1h5v1h5v1h4l1,1h1M21,927h6v-1h7v-1h8v-1h10v-1h10v-1h12v-1h14v-1h18v-1h23v-1h38v-1h75v1h38v1h23v1h18v1h14v1h12v1h10v1h10v1h8v1h7v1h6M5,877h399M21,826h4v1h7v1h8v1h9v1h10v1h11v1h14v1h16v1h21v1h32v1h103v-1h32v-1h21v-1h16v-1h14v-1h11v-1h10v-1h9v-1h8v-1h7v-1h4M66,783v1h5v1h4v1h5l1,1h5v1h6l1,1h6l1,1h7v1h10v1h10v1h13l1,1h17v1h36v1h21v-1h36v-1h17l1,-1h13v-1h10v-1h10v-1h7l1,-1h6l1,-1h6v-1h5l1,-1h5v-1h4v-1h5v-1M140,755h-1v1h-3v1h-2v1h-2v1h-2v1h-2v1h-2l-1,1h-1l-1,1h-1l-1,1h-1v1h-2v1h-2v1h-2v1h-1l-1,1h-1v1h-2v1h-1l-1,1h-1v1h-2v1h-1v1h-2v1h-1v1h-2v1h-1v1h-1l-1,1h-1v1h-1v1h-2v1h-1v1h-1v1h-1v1h-2v1h-1v1h-1v1h-1v1h-1v1h-1v1h-1l-1,1h-1v1h-1v1h-1v1h-1v1h-1v1h-1v1h-1v1h-1v1h-1v1l-1,1v1h-1v1h-1v1h-1v1h-1v1h-1v1l-1,1v1h-1v1h-1v1h-1v2h-1v1h-1v2h-1v1h-1v2h-1v1h-1v2h-1v2h-1v1h-1v2h-1v2h-1v2h-1v2h-1v2l-1,1v2h-1v2l-1,1v2h-1v3h-1v4h-1v4h-1v5h-1v9h-1v13l1,1v8h1v5h1v4h1v4h1v3h1v3h1v2h1v3h1v2h1v2h1v2h1v2h1v2h1v2h1v1l1,1v1h1v2h1v1h1v2h1v1h1v1h1v2h1v1h1v1l1,1v1h1v1h1v1h1v1l2,2v1h1v1h1v1h1v1h1v1h1v1h1v1h1v1h1v1h1v1h1v1h1v1h1v1h1v1h2v1h1v1h1v1h1v1h1v1h1l1,1h1v1h1v1h1v1h2v1h1v1h1l1,1h1v1h1v1h2v1h1v1h2v1h1l1,1h1v1h2v1h1v1h2v1h2v1h1l1,1h1v1h2v1h2v1h2v1h2v1h2v1h2v1h2v1h2l1,1h2v1h2v1h2M153,755h-1v1h-2v1h-2v1h-1v1h-2v1h-2v1h-1v1h-2v1h-1v1h-2v1h-1v1h-2v1h-1v1h-1v1h-2v1h-1v1h-1l-1,1h-1v1h-1v1h-1v1h-1v1h-1l-1,1h-1v1h-1v1h-1v1h-1v1h-1v1h-1v1h-1v1h-1v1h-1v1h-1v1h-1v1h-1v1h-1v1h-1v1h-1v1h-1v1h-1v1l-2,2v1h-1v1h-1v1h-1v1l-1,1v1h-1v1h-1v2h-1v1h-1v1l-1,1v1h-1v2h-1v1h-1v2h-1v1h-1v2h-1v2h-1v2h-1v2h-1v2h-1v2h-1v2h-1v3h-1v2h-1v3h-1v3h-1v3h-1v3h-1v4l-1,1v4h-1v6l-1,1v30h1v6h1v5h1v4h1v3h1v3l1,1v2l1,1v2h1v3h1v2h1v2h1v2h1v2l1,1v1h1v2h1v2h1v2h1v2h1v1h1v2h1v1h1v2h1v1h1v2h1v1h1v1h1v2h1v1h1v1h1v1l1,1v1h1v1h1v1h1v1h1v1h1v1h1v1l3,3v1h1l3,3h1v1h1v1h1v1h1v1h1v1h1v1h1v1h1l1,1h1v1h1v1h1v1h1l1,1h1v1h1v1h1l1,1h1v1h1v1h2v1h1v1h2v1h1v1h2v1h2v1h1v1h2v1h1l1,1h1v1h2M166,755h-1v1h-1v1h-1l-1,1h-1v1h-1v1h-1v1h-1v1h-1v1h-1l-2,2h-1v1h-1v1h-1v1h-1v1h-1v1h-1v1h-1v1h-1v1h-1v1l-2,2v1h-1v1h-1v1h-1v1h-1v1l-1,1v1h-1v1h-1v1h-1v2h-1v1h-1v1l-1,1v1h-1v1h-1v2h-1v1h-1v2h-1v2h-1v1h-1v2h-1v2h-1v2h-1v1l-1,1v1l-1,1v1l-1,1v2h-1v2h-1v2h-1v3h-1v2h-1v3h-1v3h-1v3h-1v3h-1v4h-1v4h-1v5h-1v6h-1v8h-1v30h1v7l1,1v5h1v5h1v4h1v4h1v3h1v3h1v3h1v3h1v3h1v2h1v2h1v2l1,1v2h1v2h1v2h1v2h1v1h1v2h1v2h1v2h1v1h1v2h1v1h1v2h1v1l1,1v1h1v1h1v2h1v1h1v1h1v1l1,1v1h1v1h1v1h1v1l1,1v1h1v1h1v1h1v1h1v1h1v1h1v1h1v1h1v1h1v1h1v1h1v1h1v1h1v1h1v1h1l2,2h1v1h1v1h1v1h1v1h2v1h1"/>
<path class="tg" d="M179,755h-1v1h-1v2h-1v1h-1v1h-1v1h-1v2h-1v1h-1v1l-1,1v1h-1v1l-1,1v1h-1v1l-1,1v1h-1v2h-1v1l-1,1v1h-1v2h-1v2h-1v2h-1v2h-1v2h-1v2h-1v2h-1v2h-1v2l-1,1v2h-1v2l-1,1v2h-1v3h-1v3h-1v3h-1v3h-1v4h-1v4h-1v4h-1v4h-1v5l-1,1v5h-1v8h-1v11h-1v29l1,1v10l1,1v7h1v6h1v5h1v4l1,1v4h1v3l1,1v3h1v3h1v3h1v3h1v3h1v3h1v2h1v3h1v2h1v2h1v2l1,1v2h1v2h1v1l1,1v1l1,1v1h1v2h1v2h1v1l1,1v1h1v2h1v1h1v2h1v1h1v2h1v1h1v1l1,1v1h1v1h1v1h1v2h1v1h1v1h1M192,755h-1v3h-1v2h-1v3h-1v3h-1v3h-1v3h-1v3h-1v3l-1,1v3h-1v4h-1v4h-1v4l-1,1v4h-1v5h-1v6h-1v6l-1,1v7h-1v8h-1v11l-1,1v18h-1v29l1,1v18h1v11h1v8l1,1v7h1v6h1v6h1v5h1v5h1v4h1v4h1v4h1v4h1v3h1v3l1,1v3h1v2l1,1v2h1v3h1v3h1v2h1M205,755v243M217,755h1v3h1v2h1v3h1v3h1v3h1v3h1v3h1v3l1,1v3h1v4h1v4h1v4l1,1v4h1v5h1v6h1v6l1,1v7h1v8h1v11l1,1v18h1v29l-1,1v18h-1v11h-1v8l-1,1v7h-1v6h-1v6h-1v5h-1v5h-1v4h-1v4h-1v4h-1v4h-1v3h-1v3l-1,1v3h-1v2l-1,1v2h-1v3h-1v3h-1v2h-1M230,755h1v1h1v2h1v1h1v1h1v1h1v2h1v1h1v1l1,1v1h1v1l1,1v1h1v1l1,1v1h1v2h1v1l1,1v1h1v2h1v2h1v2h1v2h1v2h1v2h1v2h1v2h1v2l1,1v2h1v2l1,1v2h1v3h1v3h1v3h1v3h1v4h1v4h1v4h1v4h1v5l1,1v5h1v8h1v11h1v29l-1,1v10l-1,1v7h-1v6h-1v5h-1v4l-1,1v4h-1v3l-1,1v3h-1v3h-1v3h-1v3h-1v3h-1v3h-1v2h-1v3h-1v2h-1v2h-1v2l-1,1v2h-1v2h-1v1l-1,1v1l-1,1v1h-1v2h-1v2h-1v1l-1,1v1h-1v2h-1v1h-1v2h-1v1h-1v2h-1v1h-1v1l-1,1v1h-1v1h-1v1h-1v2h-1v1h-1v1h-1M243,755h1v1h1v1h1l1,1h1v1h1v1h1v1h1v1h1v1h1l2,2h1v1h1v1h1v1h1v1h1v1h1v1h1v1h1v1h1v1l2,2v1h1v1h1v1h1v1h1v1l1,1v1h1v1h1v1h1v2h1v1h1v1l1,1v1h1v1h1v2h1v1h1v2h1v2h1v1h1v2h1v2h1v2h1v1l1,1v1l1,1v1l1,1v2h1v2h1v2h1v3h1v2h1v3h1v3h1v3h1v3h1v4h1v4h1v5h1v6h1v8h1v30h-1v7l-1,1v5h-1v5h-1v4h-1v4h-1v3h-1v3h-1v3h-1v3h-1v3h-1v2h-1v2h-1v2l-1,1v2h-1v2h-1v2h-1v2h-1v1h-1v2h-1v2h-1v2h-1v1h-1v2h-1v1h-1v2h-1v1l-1,1v1h-1v1h-1v2h-1v1h-1v1h-1v1l-1,1v1h-1v1h-1v1h-1v1l-1,1v1h-1v1h-1v1h-1v1h-1v1h-1v1h-1v1h-1v1h-1v1h-1v1h-1v1h-1v1h-1v1h-1v1h-1v1h-1l-2,2h-1v1h-1v1h-1v1h-1v1h-2v1h-1M256,755h1v1h2v1h2v1h1v1h2v1h2v1h1v1h2v1h1v1h2v1h1v1h2v1h1v1h1v1h2v1h1v1h1l1,1h1v1h1v1h1v1h1v1h1l1,1h1v1h1v1h1v1h1v1h1v1h1v1h1v1h1v1h1v1h1v1h1v1h1v1h1v1h1v1h1v1h1v1h1v1l2,2v1h1v1h1v1h1v1l1,1v1h1v1h1v2h1v1h1v1l1,1v1h1v2h1v1h1v2h1v1h1v2h1v2h1v2h1v2h1v2h1v2h1v2h1v3h1v2h1v3h1v3h1v3h1v3h1v4l1,1v4h1v6l1,1v14l1,1h-1v15h-1v6h-1v5h-1v4h-1v3h-1v3l-1,1v2l-1,1v2h-1v3h-1v2h-1v2h-1v2h-1v2l-1,1v1h-1v2h-1v2h-1v2h-1v2h-1v1h-1v2h-1v1h-1v2h-1v1h-1v2h-1v1h-1v1h-1v2h-1v1h-1v1h-1v1l-1,1v1h-1v1h-1v1h-1v1h-1v1h-1v1h-1v1l-3,3v1h-1l-3,3h-1v1h-1v1h-1v1h-1v1h-1v1h-1v1h-1v1h-1l-1,1h-1v1h-1v1h-1v1h-1l-1,1h-1v1h-1v1h-1l-1,1h-1v1h-1v1h-2v1h-1v1h-2v1h-1v1h-2v1h-2v1h-1v1h-2v1h-1l-1,1h-1v1h-2"/>
<path class="tg" d="M269,755h1v1h3v1h2v1h2v1h2v1h2v1h2l1,1h1l1,1h1l1,1h1v1h2v1h2v1h2v1h1l1,1h1v1h2v1h1l1,1h1v1h2v1h1v1h2v1h1v1h2v1h1v1h1l1,1h1v1h1v1h2v1h1v1h1v1h1v1h2v1h1v1h1v1h1v1h1v1h1v1h1l1,1h1v1h1v1h1v1h1v1h1v1h1v1h1v1h1v1h1v1l1,1v1h1v1h1v1h1v1h1v1h1v1l1,1v1h1v1h1v1h1v2h1v1h1v2h1v1h1v2h1v1h1v2h1v2h1v1h1v2h1v2h1v2h1v2h1v2l1,1v2h1v2l1,1v2h1v3h1v4h1v4h1v5h1v9h1v13l-1,1v8h-1v5h-1v4h-1v4h-1v3h-1v3h-1v2h-1v3h-1v2h-1v2h-1v2h-1v2h-1v2h-1v2h-1v1l-1,1v1h-1v2h-1v1h-1v2h-1v1h-1v1h-1v2h-1v1h-1v1l-1,1v1h-1v1h-1v1h-1v1l-2,2v1h-1v1h-1v1h-1v1h-1v1h-1v1h-1v1h-1v1h-1v1h-1v1h-1v1h-1v1h-1v1h-1v1h-2v1h-1v1h-1v1h-1v1h-1v1h-1l-1,1h-1v1h-1v1h-1v1h-2v1h-1v1h-1l-1,1h-1v1h-1v1h-2v1h-1v1h-2v1h-1l-1,1h-1v1h-2v1h-1v1h-2v1h-2v1h-1l-1,1h-1v1h-2v1h-2v1h-2v1h-2v1h-2v1h-2v1h-2v1h-2l-1,1h-2v1h-2v1h-2"/>
<rect x="160" y="939" width="32" height="28" fill-opacity="0" stroke="#ffffff" stroke-opacity="0.5" stroke-width="5.0"/>
<rect x="162" y="941" width="32" height="28" fill-opacity="0" stroke="#113311" stroke-opacity="0.8" stroke-width="5.0"/>
<rect x="161" y="940" width="32" height="28" fill-opacity="0" stroke="#45a249" stroke-opacity="0.9" stroke-width="5.0"/>
<rect x="691" y="691" width="309" height="309" fill="#ffffff" fill-opacity="1.0"/>
<rect x="694" y="694" width="302" height="302" fill="#000000" fill-opacity="1.0"/>
<rect x="700" y="700" width="300" height="300" fill="#70add3" fill-opacity="1.0"/>
<path class="zl" d="M735,928h3v1h2v1l-2,-1l-3,1l-1,-1l-1,1v-2h1Z"/>
<rect class="zh" x="893.5" y="899.5" width="1" height="1"/>
<rect class="zh" x="892.5" y="899.5" width="1" height="1"/>
<rect class="zh" x="899.5" y="892.5" width="1" height="1"/>
<rect class="zh" x="902.5" y="881.5" width="1" height="1"/>
<rect class="zh" x="903.5" y="870.5" width="1" height="1"/>
<rect class="zh" x="901.5" y="857.5" width="1" height="1"/>
<rect class="zh" x="897.5" y="851.5" width="1" height="1"/>
<rect class="zh" x="894.5" y="843.5" width="1" height="1"/>
<rect class="zh" x="800.5" y="812.5" width="1" height="1"/>
<rect class="zh" x="789.5" y="804.5" width="1" height="1"/>
<path class="zh" d="M812,816h1v1h1h-1l-1,1l-1,-1h-1h1v1h1v1l-1,-1v1h-1v-1h-1v-1h-1v-2l-1,-1h-1v-1h-2v-1h-1v-1h-1v-1h-2v-1h-3v-1h-1h1l1,-1h-3v1h-1v-1h-1h1v-1l-1,1v-1h1v-1h-1l-1,1v-1l-1,1h-1v-1h3v-1h1l-1,1h2l1,-1h1l-1,1h2v1v-1h1v1h1v-1h1l-1,1h1v-1h1v1h1h-1l1,1v-1h1v1v-1v1h1l-1,1v1h1v-1h1v1h1v1h1l-1,-1v-1h1v1l1,1h-1h1v1h1v1v-1v1h1v1h-1l1,1h1v-1v2Z"/>
<rect class="zh" x="887.5" y="850.5" width="1" height="1"/>
</svg>
