<?xml version="1.0" encoding="UTF-8" standalone="no"?>
<svg xmlns:svg="http://www.w3.org/2000/svg" xmlns="http://www.w3.org/2000/svg" xmlns:xlink="http://www.w3.org/1999/xlink" height="1000" width="1000">
<!-- made with pythonshp (GPL): github.com/sanjayrao77/pythonshp , underlying data may come from naturalearthdata.com -->
<!-- 
COPYRIGHT: THIS SVG FILE IS RELEASED INTO THE PUBLIC DOMAIN
 -->
<!-- 
vars : {
	'cmdline' : 'pythonshp.py publicdomain wiki1 guatemala locatormap'
	'title' : 'Guatemala locator'
	'version' : '1.0.5'
}
 -->
<defs>
	<radialGradient id="watergradient" cx="500" cy="500" r="500" fx="500" fy="500" gradientUnits="userSpaceOnUse">
		<stop offset="0%" stop-color="#70add3"/>
		<stop offset="11%" stop-color="#6eaad0"/>
		<stop offset="22%" stop-color="#6ca7cc"/>
		<stop offset="31%" stop-color="#6ba5c9"/>
		<stop offset="41%" stop-color="#69a2c6"/>
		<stop offset="51%" stop-color="#679fc2"/>
		<stop offset="59%" stop-color="#669dbf"/>
		<stop offset="67%" stop-color="#649abc"/>
		<stop offset="75%" stop-color="#6297b9"/>
		<stop offset="81%" stop-color="#6095b6"/>
		<stop offset="87%" stop-color="#5f92b2"/>
		<stop offset="92%" stop-color="#5d8faf"/>
		<stop offset="95%" stop-color="#5b8dac"/>
		<stop offset="98%" stop-color="#598aa8"/>
		<stop offset="100%" stop-color="#5685a2"/>
	</radialGradient>
	<radialGradient id="landgradient" cx="500" cy="500" r="500" fx="500" fy="500" gradientUnits="userSpaceOnUse">
		<stop offset="0%" stop-color="#dddddd"/>
		<stop offset="11%" stop-color="#d7d7d7"/>
		<stop offset="22%" stop-color="#d1d1d1"/>
		<stop offset="31%" stop-color="#cccccc"/>
		<stop offset="41%" stop-color="#c6c6c6"/>
		<stop offset="51%" stop-color="#c0c0c0"/>
		<stop offset="59%" stop-color="#bbbbbb"/>
		<stop offset="67%" stop-color="#b5b5b5"/>
		<stop offset="75%" stop-color="#afafaf"/>
		<stop offset="81%" stop-color="#aaaaaa"/>
		<stop offset="87%" stop-color="#a4a4a4"/>
		<stop offset="92%" stop-color="#9e9e9e"/>
		<stop offset="95%" stop-color="#999999"/>
		<stop offset="98%" stop-color="#939393"/>
		<stop offset="100%" stop-color="#888888"/>
	</radialGradient>
	<radialGradient id="bordergradient" cx="500" cy="500" r="500" fx="500" fy="500" gradientUnits="userSpaceOnUse">
		<stop offset="0%" stop-color="#444444"/>
		<stop offset="11%" stop-color="#3f3f3f"/>
		<stop offset="22%" stop-color="#3a3a3a"/>
		<stop offset="31%" stop-color="#363636"/>
		<stop offset="41%" stop-color="#323232"/>
		<stop offset="51%" stop-color="#2d2d2d"/>
		<stop offset="59%" stop-color="#292929"/>
		<stop offset="67%" stop-color="#242424"/>
		<stop offset="75%" stop-color="#1f1f1f"/>
		<stop offset="81%" stop-color="#1b1b1b"/>
		<stop offset="87%" stop-color="#161616"/>
		<stop offset="92%" stop-color="#121212"/>
		<stop offset="95%" stop-color="#0e0e0e"/>
		<stop offset="98%" stop-color="#090909"/>
		<stop offset="100%" stop-color="#000000"/>
	</radialGradient>
</defs>
<style type="text/css">
<![CDATA[
.fs {font:14px sans;stroke:#ffffff;stroke-width:2px;stroke-opacity:0.8;text-anchor:middle}
.ft {font:14px sans;fill:#000000;fill-opacity:1;stroke-opacity:0;text-anchor:middle}
.sb {stroke:url(#bordergradient);fill-opacity:0}
.sg {stroke:#000000;fill-opacity:0.0;stroke-opacity:0.2}
.sh {fill:#45a211;stroke:#000000}
.sl {fill:url(#landgradient);stroke:url(#bordergradient)}
.sp {stroke:url(#landgradient);fill-opacity:0}
.sr {stroke:url(#watergradient);fill-opacity:0}
.sw {fill:url(#watergradient);stroke:url(#watergradient);stroke-opacity:0.8}
.tb {fill:#eeeeee;stroke:black;stroke-width:2}
.tg {stroke:black;stroke-opacity:0.2;fill-opacity:0}
.th {fill:#45a211;stroke:#378100}
.tl {fill:#aaaaaa;stroke:black}
]]>
</style>
<circle cx="500.0" cy="500.0" r="500.0" fill="url(#watergradient)"/>
<path class="sl" d="M858,151l3,3v1h1v1h1l-1,-1h-1h1v1v-1h-1h1v1l4,4l1,2l1,1h1v1l2,2h1v1l2,3l3,3v1l2,2v1h1h-1h1l2,4h1l1,1l2,3v1l2,2h1v1h1v1l2,2v1l1,1l1,2h1v1l1,1v1l1,2l1,1l1,2l1,1v1v-1v4l1,1v1l1,1v1l1,1h-1v-1h-1v-1h-1v-1h-1v-1h-1v-1l-2,-2h-1v-1v1h1h-1v1l1,1h-2l1,1h-1h1h-1v-1l-1,-2l-3,-3v-1l-3,-3h-1v-1l-1,-1v-1l-1,-1l1,2v1v-1h-1v-1l-2,-2v-1h-1v-1l-1,-2l-2,-2v-1h-1l-2,-3v-1l-2,-2h-1v-1l-6,-6v-1h-1v-1h-1v-1v1l-1,-1v-1h-1l-2,-2v-3h-1l-1,-1v-1h1v1h1v-2h2v-1h1v-1l-4,-4l-3,-4l-1,-1v1h1l-5,-5h1l1,2h1h-1l-2,-2v-1h-1l-4,-4h-1l-3,-3h-1v-1h-1v-1h-1h1l-1,-1v1l-1,-1h-1v-1h-3v-1h-1v-1h-1v-1h-1l-2,-2v-1l1,1h1l-1,-1h1h-1v-1v1v-1l-3,-3h-1l-2,-2h-1h1l-1,-1l1,1h1v1h1v-1h-1v-1h-1l-2,-2v-1l-2,-2h-1l-7,-7v-1h-1l-1,-1h1h-1l-1,-1h-1v-1h-1v-1l-2,-1l-1,-1l-3,-2l-4,-4h-1v-1v1v-1h-1v-1h-1l-1,-1l1,1h1h-1v-1h-1h1v1h1l-1,-1h-1l-1,-1h-1v-1v1h1l1,1h-1v-1l-1,-1h-1l-2,-1v-1v1v-1h-1l-1,-1h-1v-1h-1v-1v1h1l2,2h1l2,2h1l4,4h1l1,1h1l3,3h1l5,5h1l1,1h1l5,5h1l8,8h1l1,1h1l8,8h1l12,12h1l1,1v1l7,7Z"/>
<path class="sp" d="M786,90l1,1h1l2,2h1l4,4h1l1,1h1l3,3h1l5,5h1l1,1h1l5,5h1l8,8h1l1,1h1l8,8h1l12,12h1l1,1v1l8,8"/>
<path class="sl" d="M321,120h-2v2h-1v1l-1,1h-1l-1,1h-1l-1,1v-1h-1l1,-1v-1h2v-1l1,-1v-1h1v-2h-1l-1,1h-2v1l-1,1l-1,-1l1,-1h1v-1l2,-1h1h-1v-1h1h-1v-1l1,-1h-1h1l-1,-1v-1h1l-2,-1l2,-2v-1h1v1h1l-1,-1v-1h1h-1v-1l2,-2h1h-1l-1,1h-1v-4l2,-2h-1v1l-1,1v1h-1v1l-1,1h-1v1v-2h-1l1,-1v-1h1v-1v1h-2v-1h-1v1h1h-1h1l-1,1h1v1h-3v1h-1v-1l-1,-1l1,-1h-1l1,-1v-2h-1h1h-1l-1,-1v-1l1,-1h1v-1h1v1l-1,1v-1h1v-1h1v1v-2l-1,1h-2l-1,1l-1,-1h-1v-1h1v-1h-1v1h-1v-1h-1l-1,-1h-3v-1h-1v-1h1l1,-1h1h-2l-1,1h-1v-1h1v-1h-1v-1l1,-1h1h-4v-1h1h-1l-1,1h-2v1h-1v1h-1h1l-1,1h-1v1h-3v-1l-1,1h-1l-1,1l1,-1h-1v1v-1l-1,1h-2l-1,1h-2v1v-1h-1v-1h3v-1h1h-2l1,-1h1l1,-1h1l2,-2h1v-1h3l2,-1v1h1l1,1v-1h-1v-1h1l1,-1h2v-1l-1,1h-5v1h-3l-1,1h-1l-1,1h-1l-1,1h-1v-1v1h-1v1h-3v1h-2l-1,1h-2l-1,1v2h-1l-1,1h-1l-1,1h-2l-1,1h-3v1h-3v1h-2v1h-2v1h-2v1l-1,-1v1h-3v1h-4l-1,1h1h-1v1h-2l-2,1h-1l-1,1l1,-1h-3v1h-2v-1h1h-1l-1,1l-2,1h-1v-1l-1,1h-2v1h-1l1,-1h1v-1h2l1,-1h1l1,-1h1l1,-1h2v1h2v-1h1l1,-1h1l1,-1h3v-1h2l1,-1h1v-1h3l1,-1v1v-1h1l2,-2h1v-1h1l1,-1h1l1,-1h2v-1h1l2,-1h-2l-1,1h-2l-1,1v-1l1,-1h2v-1h-1v1h-2l-2,2h-1l1,-2h1v-1l-1,1v-1h1v-1l-1,1h-3l-1,1v-1h1l1,-1h1l1,-1h-1l1,-1h2v-1h1l2,-2l2,-1v-1h1l2,-1h1h-2l-1,1h-2v1h-1v1v-1l-1,1h-2v-1h1v-1l2,-2h1h-1v-1h2l1,-1h1l-1,1h1l-1,1h1v-1h1v-1l-1,1v-1h-1h1v-1h1v-1h1h-1v1h-1l1,-1h1v-1h1v-1h2v-1h2l1,-1h1l2,-1h1l1,-1l-1,1l1,-1h1l1,-1h1l1,-1h1v1h-1v1h1v-1h2l1,-1h1v1h2l1,-1h1l1,-1l2,-1l1,-1v-1l1,1v-1h2v-1h-2l-1,1h-1v-1l-1,1v-1h-2v-1l3,-3h2v-1l1,-1h1v-1v1h1l1,-1h4v-1h4v1h-2l-1,1h1v1h2l1,-1l-1,1h1h-1h1v-1l1,-1h1v-1h1l-1,1h-1v1h1h-1h2v-1h-1l1,-1h2v-1h-1h1h-1v-1h1l4,-4h1v-1h1v-1v1v-1h2l2,-1h1l1,1h1v-1h3l1,-1v1v-1h2l1,-1l3,-1h5l-1,1l1,-1h1l2,-1h1h-1v1l1,-1v1h1l1,-1h4l1,-1l-1,1v1h-1h1v1h-1h3v1h-2v1h1h-1v1l1,-1h1v1h2v1h1h-1h1h-1l1,1h2v1h4l1,1l-1,1h1v1h2l1,1v2l1,1h2v1h1v-1h-1h1v-1h3l1,-1h3v1h-1h3l1,-1h6v-1h4l-1,1h-3l-1,1h-5v1h-3l-1,1h-2v1h1v-1h2v-1h4v-1h2v1h-1l1,-1v1h-1h1l1,-1h3l2,-1h1v1h-1h2l1,-1h2l1,-1v-1h1l1,1h-1v2h-1v2h3v-1h1v-1v1l1,-1h1l1,-1v1h-1v1l-1,1h-1v1h3v-1h1l1,-1h4v1h1l2,2h2l1,1h1l1,1h6v1h1l1,1v1h-3l-1,1h-2v1h3l1,1h10l1,-1h2v1h2v2l1,-1v1l1,1h-2l1,1v1l1,1v-2h2v-1l-1,-1h1v-1h-1v-1h1l1,-1h4v-1h3v-1h-3v1h-4v1h-2v-1h-1h1l1,-1h2l1,-1h6v2h1v1h1v1h2l1,-1l2,2h14l-1,-1h1l2,2h2v-1l-1,-1h-1l-1,1l-1,-1h1l-1,-1h3l-1,-1h3v1h2l-1,1h1l1,-1v1l-1,1v3h1v-1h1l-1,1h1v1h-2l-1,-1v1l2,1v1v-1l-1,-1h3v-3h-1l1,-2h3l1,-1h1v-1h1v-2l-1,1h-2l1,-1h1l-1,-1h2l1,-1l-1,1h1v-1h-3v-1h-1v1l-1,-1h-2l-2,-2l1,-1h1v-1h1h-2v-2h1l1,-1v1h1l1,-1h-1v-1h1l1,-1h1v1h2v1h2v1l1,1h-1v1h2v1h1v1h1l-1,1v-1h-2v1h1l-2,1h2v1h2l1,-1v1h-1h3l-1,1h-1h1h-1l1,1h1v3h2v-2h1v-1l1,-1h1v1h2v1h1v1h1v1h-2v2h1v1l2,1l1,1h1v-1h1v-1l2,-2v-2l1,-1h1v-1h1l-1,-1h-1v-1h-1v-1h10v1h-1h1l1,1h3l-1,1h-1h1l1,1v1h-3v1l1,1v-1h1l-1,1h1v1h1l1,1h1v2l-1,1h-1v1h-1l-1,1h-2v1h-1v-1l-1,-1h-2v-1h-1l1,1h1v1h1v1h1h-5l-1,-1h-5v1h2l1,1l-3,3h-2l-1,1l-1,-1h-1l-1,-1h-2l-1,-1h-2l1,1l2,1h1l2,1h5v1h-1v1l-3,3h-1l-1,1h-2v-1v1h-2v-1h-1v1h-1l1,1h-1v1h-3l-2,-1h-4l-1,-1h-2l-1,-1v2h1v-1h1l2,1h2l-1,1h-1h2l1,-1v1h3v1h1v2h-2v1h-4v1h1h-3v1l1,1h-1l-1,-1h-1h1v1h-1h1l-1,1h-1h1h-2v1h1l-2,2h-1v1l-1,1v1h-1v1h-1v2l-1,1v5h-1l2,2h1v1l-1,1v1l1,-1v-2h5v2l1,1v2l1,1v1l1,1l-1,1v1h-1h4l4,-1h3l2,1h3l1,1h2v1h2v1h1l1,1l2,1v1h3l3,1h2l1,1h1v1h2v1l-1,1l1,-1h13l1,1h1v5l1,1v1h1v6h1l3,3v1h-1h2v1h2l2,2h1l1,1v1l-1,1h5l3,3h-1v-1l-1,-1h-1v-2h1v-1h2v1h1v1h1h-1l1,-1v-1l-2,-1l1,-1v-1l2,-2h-1v-1h-1v-1h-1v-1l-1,-1v-1l-1,-2l-1,-1v-1h1h-1v-1l-1,-1h-1v-1h-1v-1l-1,-1l3,-1l1,-1h1l1,-1h1l1,-1h1l1,-2h1v-1h1v-2h1v-1l-1,-1v-2l-1,-2v-1h-1l-1,-1v-1l-2,-2l-2,-1h-2l-2,-2h-1v-2l2,-2l-1,-1h1v-1l1,1v-3h-1l-1,-1v-1h-1v-2h-2l1,-1v-3h-1l-2,-2v-2l1,-1h3l1,1h4l1,1h-1l1,-1h2l1,1h1v-1h2v-1h1l1,1h2v1h2v1h2l1,1h-1h3v1h-1h1v1h2v1h5l1,1h1v-1h1l1,1h-1v2h1v1h1v1h-4l1,1v-1l2,1h1l1,1v1l1,1h1v2h-1v1h-1h2l1,-1h4l2,2v3h-1h1v-1h1l-1,-2h1l1,1v1v-2l1,1v1l1,1v-1h-1v-1h1l1,-1h1l1,-1h-1v-1h2v1h1v1v-1l-1,-1l1,-1h-1h1v-1l1,1v-1h-1l-1,-1h1l-1,-1h1h-1v-2h1h-1v-3h1l1,1v1h-1h3v1h2v1h1v1h1v1v-1h1l1,1h-1v1h-1h3v1h2v2h-1v1l1,-1h2v-1v3h-1h2v-1h1l1,1h2v1l1,1l-1,1h-1h3v1h2l2,1v2h1h-4l1,1h1v1h2v1h1l1,1h1v1h1v-1h1l1,1h1v1h1l1,1v1h2v-1l1,1h1v2l1,-1v-1h1l2,2h3v-1h1v1h3v2h-2v1h-1v1h-1v1h-1l-1,1h-2v2h-1l-1,-1l1,1h1v2l1,-1v-1h2v-1l3,-3h1h-1v-1h4l2,2v1h-1v1h2v-1h1v-1h2v1h1l2,1h1v1l1,1v1l2,2h-1h1v1h1h-1l1,1h1v1l-1,1v1l-3,3l-1,-1l-2,1v1h-3v1l-1,2v1l-2,2v1h-2l-1,1l-1,-1v1h-2l-2,1l-1,-1h-11l-1,1l-1,-1l-2,1h-6v1l-1,-1l-1,1h-1v1h-1v4l-1,1h-3l-1,1h1h-1l-2,2l-1,2l-1,1v1l-1,1h-1l-1,-1h-2l-4,-1h1v1h4l1,1h2v2l-2,2v1l-1,2l-2,1l-1,1l-2,1h-1l-1,1h-1v1l-2,1h-1v1l-2,2v1h-2v1h-1v1h-1h1v1l-2,1l-1,2v-1h18l1,-2h1v-1h1v1h1v-3h1v-1l1,-1h-1v-3l1,-1v-2l1,-1v-2l1,-1v-1h1v1l1,1h2l1,-1h2l1,1h1v1l1,2v1l1,1v1l1,1v3h3v1h-1h1v2h2l1,1v1h1v1l-1,1h-2v1h-1v-1v1h-1v1l-1,-1h-1v1l-1,-1v2l-1,-1v1v-1h-1v-1v3l-1,1h-1v1h-1v-1v1l-1,-1v1l-1,1v-1h-1v1l-1,1h1l-1,1v1l-1,2v3h1v1h-1v1h-1l1,1h2l1,1v1l1,1h3v-1h-1v-1h-1h1l1,1v2h-2l-1,1h-1v-1l-2,1h-1v-1h-1v-1h-1l1,1l-1,1l1,1h-1l-1,1h-4l-3,1v-1l-1,1h-1l-3,3h-1v1v-4h-1l1,1v3h-1v2h2v3h-1v4h-1v1h-1v1l-1,2h-1l1,-1l-1,-1h-2l-2,-2v-2h1l1,-1v-1v1h-1l-1,1v1h-1v1h1v1l1,1v1l2,2h1v2h-1h2v2l-1,-1v1l-1,1v1l-1,3v1h-1v2l-1,1v-4l1,-1v-1h-1v-2h-1v-1h-2v-1h-1v-1h2l-1,-1h-1v-1h1h-1v-1l-1,1v-1h1l1,-1l-1,1v-2l1,-1h1h-1v-1h1h-2v1h-1v1v-1v1h-1h1h-2l1,1h1v1h-1v2l1,2h1v1h-1v-1h-1v-1v1l2,2v1v-1h-3v-1h-1v-1h-1v1h-1v-2l1,-1v-1v1l-1,1v2h1l2,1l1,1h1l1,1h1v2h-1l-2,-2h-1l-1,-1v-1h-1l2,1v1l1,1h1l2,2h1v1h-1v1h-1l-2,-2v1h1l1,1h1v1h1v1h-1l-1,-1h-1l-2,-1h-1h1l1,1h1l1,1h1v1h1l1,-1v1h2v2l4,6h-1l-1,-2l-1,-1l-1,-3v2l1,1h-2v1v-1h-1l1,1h-2v1l-1,-1h-1v-1v2h5v2h1v-2h1v1h1l-2,2v1l-1,1h-1v-1h-2v-1v1h-3l3,1h1v1h-1v1l-1,1l-1,-1l1,1h3v1h-2v1h-3l-1,1l-1,-1v1h1l-2,2h-1v2l-1,1v-2v2h-3l-1,1l-2,1l-2,3v1v-1h-1l1,1v1h-1l-1,1h-1v1l-1,1l-1,-1v2h-2v1h-2l1,1h-1v1v-1h-1l-1,-1v1l1,1v1h-1v1l-1,1h-1h1v1h-1v1l-1,1h1v1h-1v2l-1,-1v4l1,1v3l1,1l1,3l3,6l3,4v4l1,1l-1,-2l-1,-1v-3h-1v-1v3l1,1v1l4,8l1,1l1,2v8l-1,1v2l-1,1v1h-1l-1,1h-3l-1,-1l1,-1l1,1v-1h-1l-1,-2l-2,-2h-1l-2,-2l-1,-3h-1l1,-1v-1v1h-1l-1,-1v-1l1,-1h-2l1,1h-1l-2,-2l-1,-3h-1l1,-1v-1l1,-1v-1l-1,1v-1h-1l1,1v1h-2v-4l1,-2v-4l-5,-4l-4,-4l-2,-1h-3v1h-1l-2,1h-1v1h-3l-1,-1h1v1v-1l-1,-1l-2,-1h1v-1h-1h1v-1h-1v1h-1l-5,-2h1h-2l-2,1h-2v-1h2l-1,-1v1l-1,-1v1h-1v1h-2v1h-2v-2h-1v-2l-1,1v2h-4l-1,-1h-1l-1,1h-2l-1,1h-4l-1,-1h-1l-1,1v1h1v1l2,-1h1l1,-1v1h-1v1h1l1,1v-1l1,-1v1h1v1l-1,1h-2v2h1l3,1l1,1v1l-1,1v-1l-1,1v-1h-1v-1h-1v-1h-2v-1h-2v3h-1l-1,-1v-1h-1l-1,1v1h-1l-2,-1h-2v-1h1l-1,-1v-1v1l-2,-1l-1,-1h-1l-1,-1h-1v2h-5l-2,-1l-1,-1h-2l-2,1h-1l-1,-1h1v-1l-1,1v1h-1l-4,2l-1,1v-1l1,-1h-1v-1h-2v2l1,1l-1,1h-1v1l-1,1h-1l-2,2h-1l-1,1h-1l-2,1l1,-1h1h-1l-1,-1h-1v1h-1v-1h-1l1,2h1h-1v1h-1l-1,-1v2h-3v1h1l-1,1v1h-2l1,1l-1,2l-1,1h-2v-1v1l2,1v1l-1,1v1l1,1v3l1,3h1v2l-1,2l-2,2v2l-2,5v4l-1,1v8l-1,1v6l2,2v1l1,1h1l-1,1v1v-2l-1,-1l-2,-3l1,4l1,1v1l2,5l4,5l3,5v2l3,3v1l1,1h-1h1l1,1h1h-1v-1l1,1h3l1,1l2,1l1,1l1,2h2l1,-1l3,-1h1l2,-1h6v-1h1l1,-1h5v2h4l1,-1v-3l-1,1l3,-2l1,-1l2,-1v-4h1l1,-1v-7l1,-3h1l3,-2l9,-1l1,-1h4v-1h1l2,1h2l2,1l1,-1h-1l1,-1h1l1,2h1v3l-1,1v1l-1,2l-3,3v4l-1,-1v1l-1,1v1h2v1h-2v1h1v2l-1,2v2l-1,1v2h-1v-2h-1v-3l-1,1v1l-1,1v1h1l1,1v1l-1,2v1l-1,2h1l-1,1v7l-1,1v1l-1,1h-1l-2,2v1l1,1h2v-1l3,2h1v-1h2v-1h2l1,1h10l1,-1h2v-1h1l3,1h2l1,-1h1l3,1l1,1h1l-1,-1l2,1l4,3l-1,-1h-2v1h2v1h1v1h1v-1h1v1h1l-2,-2l3,2v1h1v2h-1v-1v1h-1l1,1l1,3v2l-1,1l-2,6l1,3v5h-1v-1l1,-1l-1,-1v2h-1v1l1,1v2h-1v2h1v2h-1v2h-1v1l1,1v1l1,1h1v2l1,2l1,1l2,3h1l1,2h1v1h1l2,2h1l-1,1l1,1h1v1l1,1h3l-1,-1v-1v1h1l2,2h4l2,-1l1,-1h1l4,-2l1,-1h1l2,-2h4l1,1h4l6,3l1,2l3,2h-1v1l1,1v1l2,2v1h-1l-1,1v1l-1,1h-1l-1,-1v2l-1,2l-4,-6l-1,-1h1l1,-1l-1,-1h1l1,-1v1h1l1,1h1h-1l-2,-2v-1l-1,1h-1v-1h-1l1,1h-1l-1,-2l-1,-1h-1v-1h-1l-2,-1h-3v1h-2v2h-1l1,1l-3,2h-2l-1,1v2h1l1,1l1,2h1v2h-3v1h-1l-2,1h-1l-1,-1v-1l-1,-2v-2h-1v2h-3l-1,-3l-1,-1h-1l-1,-1h-1v1l-1,-1h-6l1,2h-1v-1l-2,-2v-2h-1l-1,-1h-1l2,2v1h-2l-2,-2l1,-1v-2l-3,-3h-1l-1,-1l-3,-1l-1,-1v-1l-3,-3h-2v-1v1l2,2h1v1l-1,1h-1v1l-2,-2l-2,-1h-1l-1,-2v-2l1,-2v-2h-2v-1h1v-2l-6,-5l-1,-2l-2,-2l-3,-2l-2,-3l-2,-1l1,-1l1,1h1v-1l-1,-1v-1h-1v-1h-3v2h-5l-1,-1h-1h1l1,1l-3,-1l-4,-2h-4l-2,-1l-1,-1l-3,-1l-1,-1h-7l-2,-1l-5,-4l-2,-3l-3,-2l-1,-1v-1l-2,-1l-4,-4l-2,-1l-1,-1h-2v-1h-1v1h2l1,1l-5,-2h1l-1,-1l-1,1v-1h-1l-1,1h1l-7,3l-4,2h-3l-5,-2l-5,-1l-3,-2l-3,-1l-2,-2h-2l-6,-2l-6,-3l-3,-1l-2,-2l-2,-1l-1,-1h-1l-1,-2h-1v-1h-3l-2,-1h-2l-5,-2l-1,-2l-3,-3h-1l-2,-1l-2,-2l-3,-1l-1,-1v-1l-1,-2l-2,-2v-3l-1,-1h1l2,-1h1v-1l-1,-1h-1l2,-2v-3l1,-1l-2,-1v-2l-1,-1v-3l-1,-3l-3,-3l-2,-4l-1,-1l-2,-4l-5,-4l2,1v-1h-2l-2,-2l-1,-2v-1v1h1v-1l-2,-1l-3,-3l-1,1l-1,-1h1l1,-1h-2l-1,1v-1l-1,-1v-2l2,-2h1l-1,-1v-1l-1,-2h-3v-3l-2,-1h-1l-1,-1v-4l1,-1h-4v-1l-1,-1l-1,-2l-2,-1v-1h-1v-2l-1,-1v-3h-1v-2l-1,-1v-2h-1v-5l-1,-1v-3l1,-1v1v-2h-3l-1,-1l1,-1h-1v-1h-1l-1,1h-1l-2,-2v-1h-1l-1,-1v3l-1,3v5l-1,3l2,2v1l1,1v1l2,1v1l1,2v2l1,-1v2h1v2h1v1h1v5l1,1l1,2v1l1,1v1h1v4l1,1v-3l1,1v2h1v6l1,2h1v4l1,1v5l1,2h1v1v-1h1l-1,-1h1l2,1v1l1,1v1l2,2v3l-1,1h-1l-1,1v1h-2v-1l-1,-3v-2h-1l-2,-2v-1l-2,-2l-3,-2l-1,-1v-1h-1v-1l-2,-1v-2l1,-2v-5l-1,-3h-1l-4,-4v-1h-2l-1,1l-1,-1v-2h-2v-1h-2v-2l-4,-4h6v1l1,1v-2h-1v-1h1l1,-2v-3l-1,-1l-3,-5v-1h-2v-1l-2,-1v-1l-1,-1v-2l1,-1l-1,-1v-4l-1,-1v-2l-1,-1v-1l-1,-1l1,-1h-1h1v-1l-1,-1v-2l-1,-1v-2l1,-1h-1v-5l-3,-3v-1h-2v-2h-2l-2,-1h-1v-2l-1,-1h-6v-4l1,-1v-1h-1v-2l-1,-1v-1l-1,-1v-1l-1,-2v-3l1,-1v-1h1l-1,-1h-1l-1,-2v-3l1,-1v-1h1v1h-1l1,1v1h1v-2l-1,-1v-1h3v-1h-3v1l-1,1l-1,-1v-1h-1v1v-1l1,-1v1v-2h-1v-2l-1,-1l-1,-2l1,-1v-2l1,-1v-4l-1,-2v-1h1v-1l2,-2v-1l1,-1l1,-2l1,-1v-1l-1,-1h1v-4l1,-1v-2l1,-1l2,-3h1v-1l3,-3l1,-2v-1l1,-1v-1l3,-5l1,-1l2,-4h2l1,1v-1h-1v-1l-2,1v-2l1,-1v1l1,-1l-1,-1l2,-1h-1v-1v1v-3l1,-2v-3l1,-1v-1l1,1h1v1h1l3,1l1,-1v1h1v1l-1,1l-2,1l-1,1v1h1v-1h-1h1v-1h2v-1h1l1,-1v1h-1v1h-1v2h-1l-1,1l1,-1h-1v1h-1h1v1l1,-1h1v-1h1v-1l1,-1v-1l1,-1h1v-1h-1v-1h1v-1h-1v-1l1,1v-1l1,-1h-1v-2h-1v-1h1h-1v-1h1h-1l2,-2h-1v1h-3v-2h1v1h1v-1l-1,1v-1l1,-2h1v-1h-1v1h-1v1l-1,1h-1v-1h-1v-4l1,-1h1v-1l1,-1l-1,1v1h-1l-1,1l-2,-1h1h-1v1h-1v-1h-3v-1h1v-1h1h-1l1,-1h-3v1v-1h-1l-1,-1v-1h1v-1h1l1,-1h4l-2,-1h-1l-2,1v-2h1l1,-1h-1h1v-1h2v-1h1v1h1v1v-3h1l1,-1v-1v1h-1v1l-3,1h-1l-1,1l-2,1l-1,1l1,-1v-1l2,-1v-1h1l-2,1v-1l2,-2h-1l1,-2v-1l-1,-1v-1h2v-1v1h-1h1v1h1l1,1v-1h-2v-1h1v-1h1v-1l-1,1h-1l-1,1h-1v1h-2l-1,1v-2l-1,-1l1,-1l4,-2h1h-3v-1l3,-3h1l1,-1h1l2,-2v-1v1h-1v1h-1l-1,1v-1h1l1,-1v-1l1,-1Z"/>
<path class="sl" d="M811,518l1,-1v-1l2,2l1,3v4l1,1l1,4v2h1v2l1,1v1l1,1h2l1,1l1,2l-1,1l1,1l-3,3v1l-1,1l-2,4l-1,1h-1v1l-2,1v1l-1,2v1h-1l-1,2v3l-1,1v1l-1,1h-1l-2,1l-1,1h5l7,-7v4l1,1v2l2,2l1,-1h1v-1h1l2,1l2,-2v2l-1,2v3h-1v1l1,-1l1,-2l1,-4l1,-1l2,-3h1l1,1v-1h1h-1v-3l1,-1v-1l1,-1v-1h2v-1h1v1l1,-1v1h1v-1h1l1,1v-1h1v1h1l1,1h2v1h2l1,1h2l1,2v1l1,-2h1v1l1,1h1l-1,1h1v-1v1l1,1v1h-1v1l-1,1h1v-1h1v2l-1,1v2l-1,3v1l1,-1l1,-2v-2l1,-1v-1h1v2h-1v1l2,-2h1v-1h2v-2h1l2,1h1l1,1l2,1h1l1,-1l1,1h3l4,-2h2l1,1h1l2,2l2,1l2,2h1v2h1l2,4l1,1l2,1v1h1l2,2l1,-1h5v1l1,2v20l-1,1l-1,3l-1,5l-1,2l-2,3l-1,2h-1h1l-1,1l-3,6l-3,3l-1,2l-1,1v1l-1,1v1v-2l-1,2v2l-2,4l-2,3v1l-3,3v-1l-1,-1v1h-1v3l-2,2v1l-1,1h1v1l-1,1v1l1,1l-2,5v2l-1,3v5l-1,2l-2,3v2l-1,2l-1,1v5l-2,2h-1l-1,2l-1,4l-1,1l-1,4v1l-1,1v1l-3,3v1l-2,2v1l-4,4l-2,4v1l-1,2v1l-1,1l-3,1v1l-3,2v2l-1,1l-3,1h-2v-2l-1,1v2h-2l-1,1h-2l1,-1h1l-1,-1l-1,1l-2,1h-1l-1,1l1,1h-1l-2,1l-2,2h-1v1h-1v1l-1,-1h-1l-1,1l-4,3l-2,1l-2,2l-3,2l-2,2h-1v2h-1l-1,1h-2v1h-2v1h2l-2,2h-1h1v1l-1,2h-1v3h-1v4h-1v1l-1,2v2l-2,2v1l-1,1v1l-2,1l-2,2l-2,1l-2,2l-9,12l-2,1l-3,3l-3,2l-2,1l-2,2v-1l1,-1h1l1,-1l2,-1l3,-3v-1h1l3,-3v-2h1v1v-1h1v-1h-1l-2,1l-1,-1v-1v3h-1v1l-3,3v1l-2,1l-1,1h-1v1h-1v1l-2,2v2l-1,1h-1l-2,3l-4,4l-4,3v1l-1,1l-2,1l-1,1l-2,1l-1,1h-1v1l-4,1h-5l-2,1h-1l-1,-1h-2l-1,-1h-4v-1l-2,-2v-2l1,-1l1,-2l1,-1h1v-2l1,-1v-1l-1,1v2l-1,1h-1l-2,4l-1,1l1,1h-1v2h-1v2l1,1l2,1h1l1,1v2l-2,2v3l1,1h1v2l-5,5l-3,2l-1,1v1l-1,1l-4,1l-6,2l-4,1l-1,1l-8,1h-7v1l-1,1h1v1h1h-1v1l-1,2h-1l-2,2v3l-1,1l-3,1l-1,1h-5l-2,-1h-4v-1h1h-1l-1,1h-1v2l-1,2v1l-1,1v1h1l1,1h1h-1v1h2l1,-1h-1v-1h4v1l-1,1v1h-1v1h-3v-1l-1,-1h-1l-1,1h-1l-1,1l2,1h1l-2,1h-1l-1,1l-2,1v1l-1,1v1l-1,1v1h-1l-2,2h-1l1,1h-4l-1,1h-1l-1,1h-2l-2,2l-2,1l-1,1v1h-1v2h1l2,2h4v1h1l-1,1v1h-1l-1,1h-1h1v1h-1l-3,2h-1l-1,1h-2v1h-2l-5,5v1h-1l-1,1h-2v-1h-2l-1,1l2,-1l1,1h-1l-1,1h-1l-3,3h-1h1v2l-1,1h-1h2v2h1v1h-5l-1,1h-2l-3,1h-2l-3,3v1l-1,1h-5v-1h-1v-1h3v1l1,-1l2,-1h1v-1h1h-1l-3,1h-3l-2,2l-1,-1h-1h1v-1h1v-1h2l2,-1h2h-5v1h-1l-1,1h-2l-1,-1h3v-1h1h-2l-1,1h-2v-2h-1v-1h1v1h2v-1h4l1,-1h1v2h-1h1v-2h1v-1h-1l-1,-1h-1h1l1,1h1v1h-2l-2,1h-2v-1h-2v-1h1l1,-1l-1,-1h-3l-1,-1v-1h2v-1h2v1h1v1h1l1,-1h1l-1,-1h1h-1l-2,2v-2h-1v-1h-1l1,-1h3v-1v1l-1,-1h-1l1,-1h2v-1h-1h1v-2h1l-1,1h-1v1h-1l1,-2v-1l1,-1h1l1,-1h-2v1h-1v-3h4l2,1h1h-1v-3l-2,2h-2v-1h-2l1,-1h1v1h1v-1h1h-1l-1,-1l2,-1l1,-1h-1v-1h-1v1h-1l-1,-1h-1v-1h1h-2l-1,1h-1l1,1h-2v-1l2,-1l2,-2h1v-1l2,-1h4v-2h2v1l-1,1h-1v1l-1,1h-1h2v-1l1,-1h1v1l-1,2l-1,1h-1h2v-1l1,-1v-1l1,-1l-1,-1l1,-1h2l1,-1l1,1v-1h-2v-1h1v-1h1l3,-1v-1l1,-1h-3v-2l2,-2v-1l2,-2h1v-2l1,-1v-2h1l1,1v-2h-2l1,-1h1l1,-1h1v-1l-1,1h-1l-1,-1h-1v1l-2,1h-3v-1h1h-1v-4l2,-2v-2l1,-1l2,-1v-1l2,-2v-8h1l-1,-1v-2h1l-1,-1l1,-1h2l1,-1v-1l1,-1v-1h1l1,-1l1,-3l2,-2v-1h1v-1h1v-1l2,-2l1,-2l1,-1v-2l2,-2l2,-1v-4l3,-3v-10l1,-1v-5l3,-1v-2l1,-2v-2l-1,-1v-2h1l1,-1l1,-2l1,-1v-2l1,-2l1,-1h1v-3l1,-2v-1l1,-1l1,-2v-1l1,-2l-1,-1l1,-2l1,-1h1v-8l1,-2v-1l1,-1v-1l1,-1h-1l-1,-1v-1l1,-1v-1h1l1,-1l1,-2v-3l1,-2v-1l1,-1v-9l1,-2l1,-4l-1,-1v-10h-1l-3,-3h-1l-2,-2v-2l-1,-1h-2v-1h-1l-3,-3h-1l-2,-1h-2l-2,-1l-1,-1l-3,-1l-3,-2h-2l-1,-1l-4,-3h-1v-1l-1,-1l-1,-2h-2l-2,-2v-1l-1,-1v-1h-1v-2l-1,-1h1l1,-3v-1l-2,-2v-1l-1,-1v-1l-1,-1l-1,-2l-2,-2v-1l-1,-2v-1l-3,-2v-3l-1,-1l-3,-5v-1l-2,-4v-2l-1,-2l-1,-1l-1,-2v-1l-2,-4l-3,-3l-1,-3l-1,-1l-1,-2l-1,-1l-1,-2l-1,-1l-8,-4l-1,-1v-1h2l1,-1v-1l-1,-1l-2,-3h1v-1l-2,-2v-1l1,-3v-1l6,-6l2,-1l1,-1h1v-1h1v-1l1,-3l1,-1v-1l-1,-1v-2v2l-1,1v1h-1l1,-2h-1v1l-1,1v1h-2v-1l-2,-2h-1l-1,-1h-1l1,-1h1v-7l-1,-2l2,-2h1v-1l1,-1h1l-1,-2l1,-2h1l1,-1v-2l1,-2l-1,-2v-1l1,-1h1l1,-1h1l1,-1h2l3,-1l1,-1v-1l-2,-2l2,-2l2,1v-6h2v-1l2,1v-1h1v-1h1v-1h1l1,-1l-1,-1l1,-1h1v-1l1,-1v-1l1,-1l2,-3h-2v-1l-1,1v-1l-1,-1l1,-1h-1l1,-1v-2l1,-1l-1,-1v-5l-2,-1l2,-1l1,-1l-2,-4v-1l1,-2l-1,-1h-1v-1l-1,-1v-1l-2,-2l1,-2v-2l1,1h1l1,-1v-1l1,-1h1v-1l-2,-2v-1l-1,-1v-1h1l4,4h1l-1,1v1h1l1,-1l-1,-3v-1h-1v-1h1l4,-4l1,-2l2,-2l1,1l2,-2l-1,-1v-4h1v-1l-1,1h-1h1l1,-1v-3l2,-1v-1h1l2,-2v-1l3,1h1v1h-1v1h1l1,-1v-3l1,-1h2l1,1h1l3,-1l4,-3l3,-1l1,-1l1,-2v-1h1v-1h1l1,-1h2l2,1l1,1v1l-1,1v1h-1v1h-1l-3,1v2l1,2l1,1v2l1,1v2l-1,1l-1,2h-1l-1,3l1,1v1l1,1h1v2l1,1h3l2,-2v-5l-3,-3l-1,-2v-1l-1,-2h1v-1l5,-3h2l3,-1v-1l1,-1l1,1l1,-1v-1h-3v-1l-1,-1v-2h1l1,-1l2,2v3l1,1h7l2,1l1,2l2,2l-1,1l1,1v1h5l5,-1l6,-1l1,1v1l2,1h2l1,1h1l2,1l1,-1h1l5,-3h3v-1h-4v-1h6l2,-1h2l2,-1l4,1l2,-1v1h-2l-1,1h-4v1h1v1h1v2h-1h1v-1h1l2,4v-1h1v-1h1l1,1v1h1v1v-2h1v-1l3,3h2l1,1v1l-1,1v2h-1v3l-3,1h1l1,1l1,-1h1l1,-1h7l2,2v-1h1l3,3l3,2l3,3v5l-1,1v3l1,-1v-2l2,-2l1,1h1l1,2l2,1v1h2l1,1v6l1,-2v-2l1,-1h3l2,1h2l1,1v-1h-1l1,-1h3l2,-1h5l2,1h1v3l-1,1l1,-1v-2l1,-1l3,2h4l1,2l2,2h1v2l1,-1l1,1v1l1,1v1v-2h1l1,2v1Z"/>
<path class="sl" d="M997,450l1,2v8h-1v-1l-1,1l1,-1l-1,2v1v-1v3l-1,2v5h-1v-1l-2,-3v-1l-1,-2l-1,-5h-1v-1l-1,-1v-1l-1,-1v-2l-2,-2v-1l-1,-1v-1l-1,-1v-3h-1v-4l-1,-1h1h-1v-3l-1,-1v-1l-1,-1v-2l-1,-1v-1l-1,-1l-1,-2v-1l-1,-1v-1v1v-1h-1v-1v1v-1l-1,-1v-3l-1,-1v-1l1,-1v-1v1h-1v1l-1,1v-1h-1v-2h-1l-1,-1v-2h1l-1,-1v1v-1l-1,-1v-3l-1,-1v-2l1,1v1h1v-2l1,-1l-2,2v-1l-1,-1v-1l-1,-1v-2l-1,-1v-1l-1,-1v-1h-1v-11l-1,-3l-1,-2v-4l-1,-2v-3l-3,-9l-1,-1l-1,-2v-2h-1v-2l-1,-3v-2l-1,-1v-1l-1,-1l-1,-2v1l-2,-4v2l-1,-4l-2,-4v-4l-1,-3v-3h-1v-4l-1,-1v-1l-1,-1v-7l-1,-1v-2l-2,-4v-1l-1,-2v-1l-1,-2v-5l-1,-1v-1l-2,-4v-2l-1,-1v-3l1,-1v-3l-1,-1v-2l-1,-2v-1l-1,-3l-1,-2v-1l-1,-2v-1l-1,-2h-1l-1,-1v-1l-1,-1l-2,-4l-1,-3l-2,-3v-1l-1,-2l-1,-1l-1,-3l-1,-2l-1,-1v-3l-1,-2v-1l-1,-1l-7,-12v-2h-1v-1l1,1v1h1l2,2v1h1l-1,-1h1l-1,-1l1,1v-1l-1,-1h1v1l1,1v-2l-1,-1v-1l-2,-2l-1,-2v-1l-1,-1v-1l-1,-1v-1h-1v-1l-1,-1v-1l-1,-1v-1l-2,-2h1v1l-1,-1l1,1h1v1l1,1v1l2,2v1h1l1,1v1l1,1v1l4,4v1l1,1v1l2,2v1l3,3v1l1,1v1l3,3v1l1,1v1l2,2v1l2,2v1l2,2v1l1,1v1l1,1v1l1,1v1l1,1h1v1l1,1v1l1,1v1l1,1v1l1,1v1l1,1v1l2,2v1l1,1v1l1,1v1l1,1v1l1,1v1l1,1v1l1,1v1l1,1v1l1,1v1l2,2v1l1,1v1l1,1v1l1,1v2l1,1v1l1,1v1l1,1v1l1,1v2l1,1v1l1,1v1l1,1v2l1,1v1l1,1v1l1,1v2l1,1v1l1,1v2l1,1v1l1,1v2l1,1v2l1,1v1l1,1v2l1,1v2l1,1v1l1,1v2l1,1v2l1,1v2l1,1v2l1,1v2l1,1v2l1,1v2l1,1v3l1,1v2l1,1v2l1,1v3l1,1v4l1,1v2l1,1v3l1,1v3l1,1v3l1,1v4l1,1v4l1,1v4l1,1v4l1,1v4l1,1v5l1,1v6l1,1v5l1,1v8l1,1v7Z"/>
<path class="sp" d="M898,198l1,1h1v1l1,1v1l2,2v1h1l1,1v1l1,1v1l4,4v1l1,1v1l2,2v1l3,3v1l1,1v1l3,3v1l1,1v1l2,2v1l2,2v1l2,2v1l1,1v1l1,1v1l1,1v1l1,1h1v1l1,1v1l1,1v1l1,1v1l1,1v1l1,1v1l2,2v1l1,1v1l1,1v1l1,1v1l1,1v1l1,1v1l1,1v1l1,1v1l1,1v1l2,2v1l1,1v1l1,1v1l1,1v2l1,1v1l1,1v1l1,1v1l1,1v2l1,1v1l1,1v1l1,1v2l1,1v1l1,1v1l1,1v2l1,1v1l1,1v2l1,1v1l1,1v2l1,1v2l1,1v1l1,1v2l1,1v2l1,1v1l1,1v2l1,1v2l1,1v2l1,1v2l1,1v2l1,1v2l1,1v2l1,1v3l1,1v2l1,1v2l1,1v3l1,1v4l1,1v2l1,1v3l1,1v3l1,1v3l1,1v4l1,1v4l1,1v4l1,1v4l1,1v4l1,1v5l1,1v6l1,1v5l1,1v8l1,1v7"/>
<path class="sl" d="M764,76l-2,-2h-1v-1h-2v-1l-2,-1h-1l-1,-1l-2,-1l-1,-1h-1v-1h-1l-2,-1h-1h2v1h1l1,1l2,1h1h-1h1v1h1l2,2l3,1v1h1l1,1h1h-1h1h-2v-1v1v-1h-2l-1,-1l-2,-1h1h-1v-1v1v-1h-2v-1h-1l-1,-1l1,1h1v1h1l-2,-1h-1v-1h-1l-1,-1h-1l-1,-1h-1v-1h-1l-1,-1l1,1h1l-2,-1h-1h1l2,2h2v1h1l1,1h1h-2v-1h-1l-1,-1h-1l-1,-1h-1l-1,-1h-1h1l-2,-1h-1v-1h-1v-1l1,1h-1v-1h-1v-1v1l-1,-1h-1h1l1,1h-1h2v1h-1v-1h-2v-1h-2v-1h-1h1l-1,-1v1l-2,-1l-1,-1h-1h1l-1,-1h-1h1v1v-1h-2v-1h-1v-1h-1l1,1h1h-1l-2,-2h-1h1h-2v-1h-1l-1,-1h-2v-1l1,1l-1,-1h1v1v-1h-1l-1,-1h-2v-1h-1h1v1h1l2,1h-1v-1h-2l-1,-1h-1l-2,-1l-1,-1h-1v-1h-2l-1,-1l-2,-1l1,1l-1,-1h-1l-1,-1v1h1l-1,-1h-2l-1,-1h-1l-1,-1h-1l-1,-1h-1h1h-1l-1,-1h-2l-1,-1h-1l-1,-1h-2v-1h-1h1v1v-1h-2l-1,-1h1v1v-1h-3l-1,-1h-2v-1h1v1v-1h-3l-1,-1h-1h1h-2v-1h-2v-1h-2l-1,-1h-3v-1h-2l-1,-1h-1l2,1h1l-2,-1h-2v-1v1h2l1,1h1l-2,-1h-2l-1,-1h-1h1l1,1h2l1,1h2l1,1h2l1,1h2l1,1h1l1,1h2l1,1h1l1,1h2l1,1h1l1,1h2l1,1h1l1,1h2l1,1h1l1,1h2l1,1h1l1,1h1l1,1h2l1,1h1l1,1h1l1,1h1l1,1h1l1,1h1l1,1h2l2,2h2l2,2h2l1,1h1l2,2h1l1,1h1l1,1h2l2,2h1l2,2h2l2,2h1l1,1h1l1,1h1l1,1h1l2,2h1l2,2h1l1,1h1l2,2h1l1,1h1l1,1ZM658,26l-1,-1h-1h1l1,1h1ZM277,53h-1h1v-1h2v-1h1l1,-1h1l1,-1h2l1,-1h1l1,-1h1l1,-1h1l1,-1h1l1,-1h2l1,-1h1l1,-1h1l1,-1h1l1,-1h2l1,-1h1l1,-1h1l1,-1h2l1,-1h2l1,-1h1l1,-1h2l1,-1h1l1,-1h2l1,-1h2l1,-1h1l1,-1h2l1,-1h2l1,-1h2l1,-1h2l1,-1h2l1,-1h2l1,-1h2l1,-1l-1,1h-2l-1,1h-2l-2,1h-1l-1,1h-2l-1,1h-2l-1,1h-2l-1,1h-2v1h-2l-1,1h-1l2,-1h1l1,-1h1l-1,1h-1l-1,1h1l1,-1l-1,1h-2l-1,1h-1l-1,1h-2l-1,1h1l1,-1h2l2,-1h1v-1h2l-1,1h-1h1h-1v1h-1h1l-1,1h-2v1h-1v1h-2v1l-2,1h-1l-1,1h-1v1v-1v1h-2v1h-1h1l1,-1l-1,1h-1l-1,1l-3,2h-1v1h-2v1h-2l-1,1h-1l-1,1h-1v1h-1h1h-1l-1,1l1,-1h1v-1h2l1,-1h1v-1l1,1h-1l-1,1l1,-1v1v-1h1v1h-1l-1,1h-1v1h-1l-1,1h-1h1v1h-2v1v-1l-1,1h-2v1h-1l1,-1h1h-2v1h-1v-1h1v-1l-1,1h-1v1h-2v1h-3v1h-2v1h-1h-1h1l1,-1l-1,1h-1l1,-1h1v-1h1v-1h1v-1h1l1,-1h1l1,-1h1v-1l-1,1v-1l1,-1h2v-1h2l1,-1h1h-1l-1,1v-1h1h-2v1h-2v1h-2v1h-1l-1,1h-3l-1,1h-1l2,-2h1l1,-1h-1h1h-1v1h-1l-1,1l1,-1h-1h1h-1l-1,1h1h-1h-1l-2,2h1h-1l-1,1h-1l-1,1l-2,1h-2v1v-1h1l-1,1h-1l-1,1h-1v1h-2v1h-2l-1,1l2,-1v-1h1v-1h1h-1h1h-1v1h-3l-1,1h-2l-1,1v-1l-1,1h-1h1h-1v1v-1v1h-2l-1,1h-1l-1,1h-2l-1,1h-1v1v-1h2v-1h1l1,-1h1l1,-1h-1l-2,1v1v-1h2v-1h1l1,-1h1h-1v1l2,-2h1l1,-1h1l1,-1h1l1,-1h1l2,-2h1l1,-1h2l1,-1Z"/>
<path class="sp" d="M660,26l1,1h2l1,1h2l1,1h2l1,1h2l1,1h1l1,1h2l1,1h1l1,1h2l1,1h1l1,1h2l1,1h1l1,1h2l1,1h1l1,1h2l1,1h1l1,1h1l1,1h2l1,1h1l1,1h1l1,1h1l1,1h1l1,1h1l1,1h2l2,2h2l2,2h2l1,1h1l2,2h1l1,1h1l1,1h2l2,2h1l2,2h2l2,2h1l1,1h1l1,1h1l1,1h1l2,2h1l2,2h1l1,1h1l2,2h1l1,1h1l1,1M655,25h2l1,1h1M279,51h1l1,-1h1l1,-1h2l1,-1h1l1,-1h1l1,-1h1l1,-1h1l1,-1h2l1,-1h1l1,-1h1l1,-1h1l1,-1h2l1,-1h1l1,-1h1l1,-1h2l1,-1h2l1,-1h1l1,-1h2l1,-1h1l1,-1h2l1,-1h2l1,-1h1l1,-1h2l1,-1h2l1,-1h2l1,-1h2l1,-1h2l1,-1h2l1,-1h2l1,-1M260,62l2,-2h1l1,-1h1l1,-1h1l1,-1h1l2,-2h1l1,-1h2l1,-1h1"/>
<path class="sl" d="M742,480v1v-1h1ZM718,465v2h-2v-1l-1,1l-1,-1l1,-1l1,1h1v-1l1,-1ZM708,467l-1,1l-1,-1h1ZM741,483v-1l1,-1v1ZM704,403h-1ZM705,403h-1ZM705,408h1h-2ZM22,634v-1ZM694,403v-1l2,1h2v1l-3,3h-9v-2l-1,-1h1v-1l1,-1l1,1l5,-1ZM699,405h-1h2ZM681,407h-1v-1h1ZM314,115h-1v-1h1l1,-1v2ZM312,116v-1h1v1ZM317,105h-1v-1h1ZM298,89h-1ZM296,92l1,-1h1l-1,1ZM289,89h-1ZM282,86v-1h1ZM233,106h-1ZM233,107l-1,1v-1v1ZM213,111v-1h1h-1ZM192,114v-1ZM305,54h-1l1,-1h1h-1ZM281,61h-1h1h-1h2l-1,1h-1v2h-3v1v-1h1v-1h1v-1h-1h1v-1h1l1,-1ZM260,78v1h-2v1h-2v1v-1l1,-1v-1h2ZM263,98h1l-1,1h1h-1l-1,1v-1h-1v1h-2l-1,1h-2v1h-2l2,-1v-1v1h-1l1,-1v-1h1v-1h2v1h-1v1l2,-2h1v-1h1v1v-1v1h1v-1h1ZM225,106l-1,1v1v-1l-1,1l-1,-1h-1v1h-1v-1h1l1,-1h1v-1l1,1v-1h2ZM307,120l-1,1h-1v-1h1ZM312,123v1l-1,1v-2h1v-1ZM314,117l-1,1h-1v-2h2l1,-1v2ZM315,121l-1,1v1h-1v-1h-1h1h-1l-1,1v-1l3,-3h2v2ZM314,112h1v1h-1v1h-1v-1v1h-1v1h-2v-1h1v-1h1v-2h1ZM305,124h1l-1,1v-4h1v2h-1ZM295,88h1h-1l-1,1v-1ZM288,90h1l1,-1h1l1,-1h1v1h-3v1h-1ZM292,87v1h-1l-1,1v-1h1ZM259,101h-1l-1,1v-1h1ZM269,94h1ZM263,97v-1ZM245,106h-1ZM251,104h-1l1,-1h1ZM252,104v-1h1h-1ZM232,106h1h-1l-1,1v-1h1v-1ZM226,107h1ZM223,109h-1ZM232,107v1h-1v-1h2ZM216,109h-1h1v-1h1ZM217,109v-1h1h-1ZM254,89l1,-1h1ZM256,74h-1v1v-2h1ZM233,90h1ZM200,114v-1h1v1l-1,-1ZM197,114v-1h1ZM230,93v1h-1v-1ZM191,114l1,-1v1ZM193,113v-1h1ZM191,114h-1l1,-1h-1h2v-1v1h-1ZM188,113l1,-1v-1h1l-1,1h-1ZM196,103h1ZM310,109v1l-1,1v1l-1,1v1h-1l-2,2v-1l1,-1v-1h1h-1l1,-1h-1h1v-1h1v-1h-1l-1,1v-1h1v-1h2v-1h1ZM315,105h2l-1,1v2h-1l1,-1v-1l-1,1v2h-1v1h-1l-2,1h-1l3,-3v-1l2,-2v-1h1ZM312,104v1h-1v1l1,-1h1l1,1h-1v1h-1v1l-1,1v-1h-1v-1l-2,2v-4h1l1,-1v1l1,-1ZM310,115v1h1v1h-1l1,1v3h-1v-1l-1,1h1v1h-1h1l-1,1v1h-1v1h-1v-2h-1l1,-1v-1h-1h1v-1h1h-1v-2h1v1v-1h1v-1h-1l-1,1v-1h2v-1h1ZM311,112v2h-2v1l-1,1h-1v1v-1v1h-1l2,-2h1v-2l1,-1ZM268,95h1l-1,1h1h-3l-1,1h-1v-1l2,-1h1ZM208,111l-1,1h-1v1h-1v-1h1l1,-1v1v-1h1l1,-1h1v1h-1ZM214,109l-1,1h1v-1h1h-1v1h-1v1h-2v1h-3l1,-1h2v-1h1v1v-1l1,-1ZM195,114v1v-1h-1ZM194,114l-1,-1h3v-1h1h-1v1h-1ZM192,113l-1,1h-1l1,-1h1l1,-1ZM190,113v1v-1h1v-1h1h-1v1Z"/>
<path class="sl" d="M192,110h-1h1v-1ZM192,109h-1l1,-1h1h-1ZM201,99v1l-1,1v-1h1ZM70,366l-1,-1l1,-1v-2l1,-1v-3h1v-2l1,-1v1l1,2v5l-1,1h-1l-1,1ZM71,346h1v1h-2ZM73,349l1,1v1h-1v1h-1v-4h1ZM70,343v2h-1v-3l1,-1v1ZM67,338h-1v-2l1,-1h1l-1,1v1ZM64,338v-1l1,-1v1h-1ZM71,350h-1l1,-1v-1v1ZM615,224v1h1v-1h3l-3,1l-1,1h-1l-5,2h-2v-1v1h-1v-1l1,-1h1v-1h5l1,-1h1l1,-1ZM634,199v1v-1v1h-1v-1ZM605,228v-1h1v1ZM627,221l-2,1v-1h1ZM622,220v1h-1v-2h1ZM630,222h-1v-1h1ZM602,264l-1,-1h1ZM604,268l-1,1l1,-1v-2l-1,-1v-1v1l1,1v1ZM602,269h-1ZM598,273h-1l1,-1ZM564,340h-1l-1,-1l1,1ZM563,339v1v-2ZM577,351l-1,1l1,-1v-1h1v-1ZM488,316l-1,-1h1ZM448,328l1,-1v1ZM450,326h1l1,-1h1h-1ZM445,333v1v-2l2,-3l-1,2ZM463,318v1l2,-2h1l-1,1ZM446,343l-1,-2l-1,-4v-2l1,-1v3l1,5ZM296,279h-1v-1h1ZM302,282h-1v-1ZM294,273h-1v-1h1ZM295,272h2v1h-2ZM303,278v1v-1h-1v-1ZM322,166v1v-1v1l-1,-1ZM321,167v1l-1,-1ZM322,170l-1,1l1,-1v1h-1v-2l1,-1v1h-1h1ZM621,221v-1ZM607,234l-1,2v-1ZM601,248l1,-1v-1v1ZM597,273h-1ZM570,355v-1ZM574,354v-1ZM576,353h-1l1,-1ZM573,354l-1,1v-1ZM566,303v2h-1v-2ZM569,355l-1,1v-1ZM578,333v1l-3,-6l1,1v1ZM510,314v1ZM513,310h-2ZM516,310h-1ZM508,311h-1l1,-1ZM511,313l-1,1l1,-2l-1,-1l1,1ZM540,314v1h-1v-1l1,1l1,-1h1ZM317,176v-1ZM320,175h-1l1,-1ZM320,173v1ZM321,168v-1ZM632,200v1l-1,-1ZM735,925h1l-1,1h1h-1v1h1h-1v1h-1v-2h-1v-1h-1h2ZM978,643l1,-1v1ZM219,754v-1ZM717,403l-1,1v-1ZM663,923h2l-1,1h1v-1h2v1h-1v1h-2l-1,1h-2v1l-2,-1v1h-2v1h-1v-1l1,-1h2v-1h2v-1l1,-1ZM656,924h4l-1,1h-1l-1,1l-2,1h-2v1h-2l-1,-1h2l1,-1h1h-1h1l1,-1h-1l1,-1ZM651,926h1l-1,1h-1v-1ZM662,926v1ZM657,924h-1ZM656,928h-1v-1h1ZM573,400h1h-1v1l-1,-1ZM584,397h-1v-1h1ZM585,396v1h-1l1,-1h1ZM682,288h-1h1v-1ZM707,402h-1v-1h1ZM705,402h1ZM707,399v1v-1h-1ZM648,377h-1l-1,-1h2ZM646,376h-1v-1h1ZM643,376l1,1h-1ZM725,415v1ZM826,126l1,1ZM825,125v1v-1h-1ZM792,101l1,1h-1l-1,-1ZM810,114h1v1h1h-2l-1,-1v1h-1v-1h-1v-1l-3,-3h-1v-1h-1v-1h-1v1v-1h-1v-1h-1v-1l-1,-1h1h-1v-1v1h1h-1v-1h-1l-1,-1h-1v-1h-1v-1h-1v-1h-1v1h1l-1,-1h-1l-1,-1h-1l-2,-2v-1v2h1h-1h1h-1v1h1h-1v-1h-1l-1,-1l-2,-1v-1h-1v-1h-2v-1h-1l-1,-1l1,1l-2,-2v1h1v1h1l1,1l3,2h-1l-2,-2l-2,-1l-2,-2h-1v-1h-1v-1h-1l1,1h1h-2v-1h-1l-1,-1h-1l-2,-2h-1v-1h-1l-2,-2h-1v-1h-1l-1,-1h-1v-2h1v1h1l3,3h1l1,1v-1h2v1h1v1h1l2,2h1l2,2v1h1l-1,-1h1l2,2h-1l1,1h1v-1h-1h1l1,1h2v1l4,2l1,1h1v1h1l1,1h2v1h1v1h2l1,1h-1l2,1h1l1,1v1h1l1,1l-1,-1h1l1,1h1v1h1l3,3h1v1h1v1h1v1h1l2,2h1v1h1v2h-1h1v1h1v1h-1l2,2h1v1h-1v-1v1l1,1v1h1h-1h1h-1l-1,-1v-1h-1v-1h-1l-1,-1v-1h-1v-1l-1,-1h-1l1,-1l-2,-2h-1l-1,-1h1Z"/>
<path class="sl" d="M798,106h1v1l-1,-1h-1v-1ZM756,76h-1v-1v1ZM746,69h-1v-1v1ZM746,69v1h1l1,1h1l1,1h1h-1l-1,-1h-1l-1,-1h-1l-1,-1ZM744,68h1v1ZM759,78h-1ZM759,78h-1ZM757,77h1v1v-1v1h-1v-1v1v-1h-1ZM756,76h-1ZM774,91l-1,-1v1ZM783,95h-2v-1l1,1ZM776,91v1l-1,-1h-1v-1h-1h1v1h1ZM779,94h1v1h1h-2ZM780,94h-1l-1,-1h-1v-1l1,1ZM761,82l2,2v-1v1h1v1h1h-1l-1,-1h-1v-1h-1h1h-1v-1h-1v-1v1ZM771,89l-1,-1h1ZM767,86h1v1h2v1h1l-2,-1l1,1h-1v-1h-2v-1h-1v-1ZM765,86h1v1v-1ZM769,89v-1h-1l-1,-1h1ZM770,89v1ZM792,103v1l-1,-1h-1v-1h-1l1,1h1v1h-1l-1,-1h-1v-1h-1v-1h-1v-1h-1v-1h-1v-1l-1,-1h1v1h1l1,1h1l1,1h1l1,1h-1v-1v1h1l1,1ZM817,117v1l-1,-1ZM741,463v-1h1l1,-1v1ZM740,472h-1l-3,1h-2l2,-2h1v-2l-1,-1v-1h-1h1l1,-1h3v5ZM36,685l-1,-1h1v1l-1,-1ZM29,665v1ZM36,686l1,1ZM890,189v-1ZM884,180h-1h1v1h1v1l1,1l-1,-1v1v-1l-2,-2v-1v1ZM883,179l-1,-1v-1v1ZM889,187v1v-1h-1v-1ZM923,281v2l1,1l-1,1v-1l-1,-1v-3h1ZM926,275l-1,-1v-2l1,2ZM928,281v1h-1l1,-1v-1l-1,-1l-1,-2v-1l1,1v2l1,1ZM926,282v1l1,1v1h-1l-1,-1v-2ZM922,285v-1h-1h1ZM921,287l1,2l-1,-1ZM919,282l-2,-2v-1h1v1l1,1ZM984,450v1v-1h-1l1,-1ZM18,624l1,1v2l-1,-1v-1ZM21,630h-1v-1v1ZM736,446v-2h1v1ZM736,450v-1ZM738,440v1l-1,-1v-2l1,-1v1ZM722,412h-1ZM721,411h-1v-1h1ZM538,1l1,1ZM554,3h-1h2ZM550,3h1ZM392,12h-3v1h-1h1l1,-1h3l1,-1Z"/>
<path class="sp" d="M387,13h2l1,-1h3l1,-1"/>
<path class="sl" d="M336,32l1,-1h3l1,-1h1l-5,2ZM342,31h-1l-1,1h-3l2,-1h2l1,-1ZM345,25h1v-1v1ZM329,30h2v-1h2l1,-1h1h-1v1h-3v1h-1ZM393,12h1ZM401,10h1ZM555,3h-1ZM555,3h1h-2Z"/>
<path class="sp" d="M554,3h1"/>
<path class="sl" d="M549,2h-1ZM548,2h1ZM542,2h-1Z"/>
<path class="sp" d="M541,2h1"/>
<path class="sl" d="M539,2v-1h-1h1Z"/>
<path class="sp" d="M537,1h2"/>
<path class="sl" d="M551,3h1h-2v-1Z"/>
<path class="sp" d="M550,2l1,1"/>
<path class="sl" d="M539,2h1ZM544,2h-1h2ZM532,1h1ZM538,1v1v-1h-2ZM329,31h1l1,-1h1l-1,1h-1ZM902,248h1v1h-1ZM863,225h-1ZM831,213h1h-1v-1ZM848,215h-1v-1h1ZM847,216h-2l-1,-1l2,1ZM844,217h-1v-1h1ZM846,217v1h-1v-1h-1h1ZM857,219h1v1h-2v-1ZM597,495v1v-2h1v1ZM574,504h-1l-1,-1l1,-1h1l-1,1h1ZM569,486v1l-1,-1ZM596,496h-1l1,-1ZM741,63v1l-1,-1ZM747,67h1h-2v-1ZM702,43h-1ZM719,52v-1h-1h1ZM722,53h-1v-1v1ZM653,24h1h-2l-1,-1l1,1Z"/>
<path class="sp" d="M651,23l1,1h1"/>
<path class="sl" d="M680,34h-1h2l1,1l-1,-1l1,1h-1v-1ZM683,35l1,1l-1,-1h-1ZM673,31h1v1h1h-1v-1ZM659,26h1ZM659,26h-1ZM661,27h2l1,1h1h-2v-1h-3v-1h-1h1ZM699,42v-1h-1ZM698,41h-1ZM708,46h1h-2ZM666,29v-1v1h3v1h1h-1v-1h-2ZM676,32h-2v-1h-1h1v1h3v1v-1v1h1h-1h1l1,1h1h-1v-1h-2l-1,-1h-2l-1,-1h-2v-1h-1h1l1,1h2v1h1ZM662,36v-1h-1l-1,-1l1,1h1ZM627,17h-1ZM588,8h-1ZM572,6h-1v-1ZM592,9l1,1h6l1,1h1h-1h1h-3l-1,-1h-5ZM579,8h1h-1v-1h2l1,1h3l1,1h-2v-1h-1h1v1h-1l-1,-1h-4ZM584,9h-1h8l1,1h4v1h5l1,1h3l1,1h4l1,1h-1v-1h-6l-1,-1h-2l-1,-1l1,1h1h-3l-1,-1h-4v-1v1h1h-1h1h-1h4v1h1h-3l-1,-1h-6l-1,-1h-1h1h-2v-1v1h1v-1h-4ZM597,12h1h-3v-1v1h1ZM580,8h-1ZM584,8v-1h-1l1,1h1h-1v-1ZM35,674v-1ZM63,702v-1ZM811,110h1v1ZM795,97h1ZM797,99l1,1ZM797,98v1l-1,-1ZM799,100l1,1l-1,-1h-1ZM809,108l1,1ZM795,97v-1h-1ZM683,458v1v-1l-1,-1h1ZM719,409h-1ZM670,456h-1l-1,-1h1ZM679,459l-2,-1l-1,-1v-1v1l1,1h1Z"/>
<path class="sp" d="M858,151v0"/>
<path class="sl" d="M527,392v1l-1,-1l1,-1v-1h1v1ZM370,379l-1,1v-2h1ZM333,402h-1v-1h1ZM343,349v1h-1v-1ZM330,315l-3,-3v-1l1,-1l1,1v1l1,1v1ZM314,322l-1,-1h1v-1v1ZM336,315l-1,2h-1v-1l1,-2h1ZM295,313l-1,1v-3h1l-1,1h1ZM529,384v1l-1,-1ZM488,406l-1,1v-1h2ZM347,356v-1ZM324,293l-1,-1h1ZM340,340v1l-1,1v-2ZM333,354l-2,-2h1ZM331,352l-1,-1v-1h-1l1,-1l1,-3v1l-1,2v1l1,1ZM952,351v1v-2ZM6,548v1ZM49,565v-1ZM47,577l-1,-1ZM40,511v1l-1,-1v-1v1v-1h1l-1,-1l1,1ZM34,491v1ZM6,534v1ZM606,407h3l1,1h1l3,1l1,2h-5l-1,1l-1,-1v1l-1,1v-1h-4l-3,-3h-2v-2h3v-1l4,1ZM790,107v-1h-1h1ZM784,99h1v1h1v1h1v1h1v1h1l1,1h1v-1h-1l-1,-1h1v1h1l1,1v-1v1h1l1,1h1v1h1l2,2h1l4,4h1v1h1h-1l1,1l-1,-1l1,1v2h1v1v-1h-1h1v1h1v3l-1,-1v-1v1l-1,-1v-1v1h-1l-1,-1v-1h-2v-1h1v1v-1h-1v-1h-1v-2h-1l1,1h-1l1,1l-2,-2v-1h-1l-1,-1h-1v-1v1h-1v-1h-1v-1h-1l-1,-1v-1v1l-1,-1h-1v-1h-1v-1h1h-1h1l-1,-1v-1h-2v-1h-1v-1h-1l-1,-1v-1v1v-1l1,1h-1v-1h-1v-1h1v1h1ZM694,54h1h-1v-1l1,1h2v1h2l1,1h3v1h2v1h1v1h1l1,1h1v1h1h-1l1,1v1l1,1v1h1v2h-4v-1h-1h1h-3l-1,1h-1l-1,-1h1v-1h-1l-1,-1h1h-1v1v-1h-1v-1h-1l1,1h-1l-1,-1h-2v1h-1l-1,-1h1v-1v1v-1h1v-1h-2l-1,-1h-2v1h-2v-1v1h1l-1,-1h-1h1v-1l-1,1v-1h-1h1h-2v-1h1h-1h2l1,1v-1h-3v-1h-1v-1l1,1h3v1h2l1,1h-1h2v1h1l-1,-1h1l-1,-1h-1l-1,-1h-1h3v1h1l-1,-1h-1v-1h-1h2l1,1h1l-1,-1h-2l1,-1v1h1v-1h-1h1l-1,-1h-1l-1,-1h2v1ZM532,426l-1,1h-1l1,-1h1l1,-1v1ZM536,425v1v-1h1ZM649,394l1,2v2l1,1h-1v1h-1l1,1v2l-1,1h-1l3,3h-1l1,2l-2,-2h-5v1h-5v-1h-2l-1,1h-1l-1,1l-1,-1h-1l-1,-1h-2v-3h4l1,1h9v-1h3l-1,-1h-1l-1,-2l-2,-1h1v-3l-1,-1h-2l-2,-1h-1v-1h1l1,-1h4l2,1h4ZM642,403h-2l-2,-1v-1h2l1,1ZM642,392h-3l1,-1h1ZM972,423v1v-2ZM972,423v-1ZM973,422l-1,-1h1ZM972,419h1h-1v-1h1v1ZM972,420l-1,-1h1ZM971,416v1ZM733,456v-2h1v1ZM785,89v1l-2,-2h1v1ZM785,90h1h-1v-1ZM848,145v1v-1h-1v-1v1ZM738,434v1l-1,-1h-1v-1h-1l-1,-2h2v1h1v1ZM732,419h-2l1,-1h-1v-1h1v1h1l1,1ZM730,421v1l-1,-1v-3l1,1l1,2ZM733,422h-1l1,-1ZM692,178h-1ZM691,178l-1,-1v-1v1h1ZM15,619v-1h-1h1ZM16,625v-1ZM80,674v-1ZM89,682v1v-1h-1ZM81,675h-1v-1ZM91,684l1,1v1v-1l-1,-1h-1v-2l1,1ZM129,628l1,1h-1l-1,-1ZM132,635v-1ZM122,620v1v-1h-1v-1h1v1h1ZM123,625v-1Z"/>
<path class="sl" d="M132,693v-1h1ZM125,621v-1v1h1ZM134,698v-1ZM133,696l-1,-1ZM159,703h-1v-1h-1h1ZM154,700v1ZM151,719v-1ZM120,678v-1ZM116,681h1ZM116,681l-1,-1v1ZM107,673v1v-1h-1v-1v1ZM106,677l-1,-1v-1v1ZM588,593h-2l1,-1v-1h3l-1,1h-1ZM598,556v1l-1,-1h1v-1ZM499,575l-2,-1l1,-1h2v2ZM507,576l-1,1v-1h-1h1l2,-2v1h1h-1v1ZM490,573h-1l-1,-1v-1h2v1ZM498,580v-1l1,1ZM491,568v1l1,2l2,1v2h1v1l-1,2h-5v-2h1l2,-1v-1l-2,-2v-2h-2l1,-1h1ZM497,571v1l-2,-1h-1l1,-1h1ZM651,409l-1,-2h1l-3,-3h1l1,-1v-2l-1,-1h1v-1h1l-1,-1v-2l-1,-2v-1h4l1,-1h2l1,1h2l1,1h3l1,1v1h1v1h4v1h-3l1,1h5l4,2v1h1v1l-2,2v1h-1v-1h-1l-1,-1h-6l-1,1h-1l-1,1l-2,1l-1,-1h-4v2l-1,2l-1,1v1l-1,-1h-1v-1ZM734,428h-1l-1,-2v-2l1,1l1,2ZM549,12h3l-1,1h1v-1h9v1h1h-1l-2,1h6v-1h-1h3l1,1h2l1,1h1l-1,-1l-2,-1h1h-1v-1h-1h5l1,1h2v1h2l1,1h2v1h-1h2l1,1h5v1h3v1h2l1,1h2v1h3l1,1l-1,-1h-1h2l2,1h6v1h1h-3l1,1h-1h2l1,1h7v1h3l1,1h1h-1v1h-1h4v1h1h-1v-1h-1h3l1,1h2l-1,1h1h-4v-1l1,1h1l1,1h5l1,1v1h-3l-2,-1v1h1h-2l-1,-1v1h3v1h1h-1v1h1h-1h1h-1h1v-2h2v1h4l2,1h1l1,1h2v1l-1,-1h-5l-2,-1h-1v1h1v-1l2,1h1v1h1l-1,-1h1v1h6l1,1h2v1h1h-1h1l-1,-1h1l1,1h1l1,1h2l2,1l1,1h-2v-1h-1l1,1h1h-3l-2,-1h-2l-1,-1h-2l1,1v1h-1v1h1l1,1h2l1,-1v1h1v1h1h-1v-1h1v-1h6v1h1v1h1v1h-1h1l3,3v1l-1,1v1h-1v1h-1h1v1h-2l-1,-1h-1v1h2v1l1,1v1h1v1h1l2,2v1h1v2l-2,-1h-1h1l2,1v1h-1l1,1h-1v1h-1l-1,-1h-1v-1l-1,-1h-1h1v1l1,1h-1h1l1,1l-1,1h-2l2,1l1,1v1l-2,-1v1h-1h1l1,1v-1l1,1h1l1,1h1v1h-2l2,1h1l1,1h2v3h1v1h1h-1l1,1v1h-1v1h2v1h1v1h2l1,1h-1v1h1l4,4v2h-1h1l1,1h1l1,1v1h-1v1h-1v-1h-2v-1h-1l1,1h-1l-3,-1h-1l1,-1v-1v1h-4l-2,-2v-1h-1h1l-1,1h-1v1h-2v1h-2v-1h1v-1h-1l-1,1v-1v1l-1,-1h-1v-1h-2l-1,-1h-1l-1,-1h-1v-1l1,-1h-1v1h-2v-1h-2l-1,-1h-1l-1,-1v-2l-1,1h-2v-1h-2l-1,-1l-2,-1l-2,-2h1l1,-1h1h-2l-1,1h-1v-1l-1,-1h1v-1h2l1,1v-1h-1l-1,-1h-2l-1,-1h-1h1l2,2h-2l1,1v1h-2l-1,-1v-1h-1l-2,-2h-1v-2l1,-1h1h-1l-1,1v1h-1l-1,-1l-1,1h-1l-1,-1v-1h-1v-1l1,-1v-2h1v-1h-1v1l-1,2v1h-2v-1h-1v-2h1h-4l-2,-2v-1h1v-1h5l2,1v-1h-2v-1l-1,1h-4l-1,1h-1v-2h-1v-1h1l1,1h3v-1h-1v-1h-1v1h-4l-1,-1l1,-1h1l2,1l1,-1v-1v1h-1l-1,-1v-1h-1h1h-1l-1,-1v-1h-1h1v-1h-1v-1h-1v1h-5l-1,-1h-5v-1h-2l1,-1h4v1h3v-1h-1v-1h-1h1h-5l-1,-1h-1h1l1,-1h-2l-1,1v-1h-1l-1,-1h-2v-1h-1h1v1h2v2h1l-1,1l-1,-1h-3v-1h-1v-2h-1v1l-1,-1h1h-1v-1h1h-1v-1h-4v-1h1h-1v-1h-1v1v-1h-2v-1h-2v-1h-2l-1,-1h1h-1l-1,-1h-3l-1,-1h-3v-1h-1v-1h-6l-1,-1h-5v1h-1v-1v1h-5l1,1h-3l-1,-1h-2v-1h1h-3v-1h-1h1h-1v1h-1v-1h-1v-1h4l1,-1l1,1h1v-1h-8v-1l-1,1h-1v-1h-3v-1h-1h1v-1h3l1,-1h2l1,-1h1l-1,-1v-1h-1h1h-5v-2h1v-1h1l1,1l-1,-1h2l-1,-1h-1v-1h4v1h1l-1,-1h-3v-1h5l2,1v-1h-2l-1,-1h1l2,1h1l-1,-1h4l3,1h1l-1,-1h-2v-1h-1h1v-1h-1l-2,1h-3v-1h3v-1h-1h2l2,1v-1h-3v-1h3Z"/>
<path class="sl" d="M604,53l2,1h2v1l-1,1h-2l-1,-1h-4v-1h-1h2h-2v-1h-1l1,-1h1l1,1h2ZM610,55l-1,-1h-1v-1h2v1ZM597,49v1l-1,-1ZM585,43v1h-1ZM535,31h-1ZM549,16h-3l-2,-1h3l1,1ZM648,41v1h2v1h-1l-1,1l-1,-1h-1l-1,-1h2l-1,-1h1ZM567,13h-2v-1v1h1ZM584,16h1v1h-1l-1,-1h-1h1ZM599,20h-2l-2,-1h1l1,1h1ZM614,25h1l-4,-1l-1,-1h-1h1l2,1ZM620,26h2v1v-1l1,1h1h-3ZM602,21h-1l-1,-1h2ZM666,66h-2l1,-1v1ZM669,92l1,1l-1,-1h-1v-1h1ZM602,50h-1v-1ZM735,67h-1ZM737,69h1h-1v-1h-1h1ZM732,66h1ZM732,65l1,1h-1h2v1l-1,-1h-1l-1,-1ZM731,65h1ZM779,85l-1,-1h-1l-2,-2h-1l1,1h1l1,1h1Z"/>
<path class="sp" d="M774,82l1,1h1l1,1h1l1,1"/>
<path class="sl" d="M784,88v1l-1,-1h-1v-1h-1l-1,-1h-1l-3,-3l-4,-2h1h-1l-1,-1h-1h1l-2,-2h-1l1,1h1l1,1h-1l-2,-2h-1v-1l-2,-1l-1,-1h-1l-1,-1l1,1h1v1h1l1,1l2,1l2,2h2v1h1l2,1l1,1h1v1h1v1h1l1,1h1v1h1v1h1ZM777,84h1v1h2v1h1v1v-1h-1l-1,-1h-1v-1ZM783,88l-1,-1Z"/>
<path class="sp" d="M782,87l1,1"/>
<path class="sl" d="M783,88l-2,-2h-1h1ZM783,88l-1,-1ZM783,88l-1,-1ZM776,83h-1v-1v1ZM567,368h10v1h4l1,1h1l1,1l2,1v1h2l1,1l2,-1v1h2l4,2l1,1h1l2,1h1v-1v1l2,1h1v1h-1l1,1v-1h1l1,1h1v1h3l2,1h1l1,1h3v2h-1v1h7l1,1h1l2,2h2v2h-4l-1,1h-2v1v-1h-1v1h-4l-1,-1h-3l-3,1h-5l-2,1h-2l1,-2l3,-2v-1h1l-1,-1v-1h-7l-1,-1l-2,-1v-1h-1l-1,-2v-2l-1,-1h-1l-3,1h-1v-1l-5,-1h-2v-1h-1l-2,-2v1h-4v-1h-1v-1v1h-6l-1,-1v-1l2,-1h1l-1,-1h-8l-1,1h-1l-1,1v1h-1l-1,1h-4v1l-1,1h-1l-2,2h-1v-2h-1v1h-2l3,-1v-1h2l-1,-1v-1l1,-1l1,-2h1l6,-3h5l4,-2ZM601,377h-1l-1,-1h2ZM598,374h-1l-1,-1h1ZM593,372h2l1,1h-3v-1h-1ZM599,376l-1,-1v-1v1h1ZM562,381l-1,1h-4v-1h2l-1,-2v-1h3v1ZM587,371v1l-2,-2ZM997,459v1ZM605,545h-1v-1h1ZM355,784h-1v-1h1ZM582,830l-1,1v-1h2ZM612,932l-1,2l-2,2v1l-1,1l-1,2l-1,1v1h-4l-1,-1v1h-7l-1,-1l-2,1v-1h3v-1l1,1l1,-1h1v1h2l-1,-1h-1v-1h1v-1h1v-1h1v2h-1l1,1h4v1h-1h1v-1h1l-4,-1v-1h1v-1h2l2,-1h-5v-1h1v-1h1v-1h1l1,1v-1h2v-1h1l1,1l2,-1ZM612,943h-5l1,-1h-1h5ZM603,888h-3v-1h-1h1v-1l2,-2v-2h1v-1l1,-1v-1l2,1h1v2h-1v1h-1l-1,1h1v1h1l-2,2h-1ZM589,918v1h-1v2h-1v1h-1v-2h1v-1l-2,1v1h-3v-1h2l-1,-1h2v-1l1,-1h1v-1h2ZM584,916h-1v-1l1,-1h1v-1h1v3ZM582,935h4v1h2v1h-1l-1,-1h-3l-1,-1h-1v-1h1ZM589,915h-2v-2h-1h1h-1l1,-1h2v2ZM589,937h-1h3v1l-1,1h-2v1h-1v-1h1h-2v-1h-1l-1,-1h4ZM582,929v1h1v1l-1,1h-1v-2h1ZM601,942h6l-2,1h1v1h1v1h-1v-1h-3l1,-1h-2v1h-1h1h-2v-1l-1,1v-1l1,-1ZM595,939h1v1h-4l-1,-1h3ZM601,893v1h-1v4h-1v1h-1v-1h-1v-2h-1v-1h1v-1h2v-1l1,-1h1v1h1ZM605,895l-1,1h-1v-2h1v-1h2l1,1l-1,1ZM593,896v1h-1v-1ZM582,925l-1,1v-2h2v1ZM586,916v1l-1,1h-2v-1h1l1,-1ZM588,912h-1v-1h1ZM597,889l-1,1v-1ZM601,896v-2l1,1ZM585,928h-3l-1,1h-1h1v-1h2l1,-1ZM584,923l-2,1h-1l2,-2h2v1ZM602,890v1h-2v-1h1ZM585,931l-1,-1h2ZM596,900l-1,1h-1v-1h1v-2h2l-1,1ZM608,946h-1v-1h1ZM615,943h-1l1,-1ZM595,942v1h1l1,-1l1,1h-4v-1h-1v1v-1h1ZM610,945h-1l1,-1ZM934,383l-1,1v-3h1v1ZM944,398v1h-1v-1l-1,-1v-1l1,1ZM935,384h-1v-1h1ZM943,387h1v2h-1v-1ZM941,400h-1v-1h1ZM938,385v1l-1,-1ZM942,383v1v-1l-1,-1h1ZM944,396v1v-2l1,1ZM302,128v1h2l-1,1l-2,1h-1h2l2,-2h2l-1,1h-1l-1,1v1l-1,1h-1v1h-3v-1h2l-1,-1v-2l2,-2ZM301,134v2h-2l1,1v1h-1v1h1l-1,1h1l-1,1l-1,-1l1,-1h-1v-4h1h-1v-1h2Z"/>
<path class="sl" d="M309,152l2,1h2l1,1h2v7h1l1,1h1v6h-3l-1,-1h-1l-2,-2h-1l2,-2h1v-1h1h-1v1h-4l-1,-1h1v-1h-1l1,-1h-3l1,-1h2v-1h-1v-1h-1v-1l-1,1v-2h-3l1,-1v-1h2v-1h1h-3v-2h3ZM467,27v1h-6l1,-1h4ZM464,29h1h-2v1h1h-1l-1,1h-3v-1h-1h1v-1h4ZM453,30v1h-2v1h-2v1h-3v-1h1h-3v1h-1l-1,1v-1h-1v1h-2v-1l-1,1h-1v-1h-1v1h-1v-1h1h-1h1l1,-1h4l1,-1h3l1,-1h6ZM463,35h1h-1v1h2v-1h2l1,1l-1,1h-1v1h-1l-1,1h-5v-1h-1l-1,1h-4l-1,1h-6v-1h1v-1h8v-1l-1,1h-2v-1h-1v1h-2v-1h1h-1v-1v1h-1l-1,1h-1v-1h-1v1h-1v-1h-3l1,-1h6v-1l-2,1h-2v-1h2v-1h3v-1h3v1h2l2,2h-1h2l3,1v-1h-1v-1h2l-1,-1h-1h2v-1h2v1h1h-1v1h-1ZM438,46h3l1,-1h3l1,1h1l-1,1h-2v1l1,-1h3l1,-1v-1h1l1,1h1v5l1,-1h1v-3h1v-2h1v-1h1l1,1h2l1,1v6h-1v1l2,2h2v1h3v1h1v2h-2v-1v1h-1v-1h-1l-1,1h-2v1l-1,1h1v-1h3v2h-10v-1h-3v-2h-1v1h-1l-1,1h-5v1h-15v-1l1,-1v-1h-5l-1,-1h-1v-2l1,-1h15l-3,-1l-1,-1h-10l-1,-1v-1h5l1,-1h3h-7l1,-1h1h-2v-1h1l1,-1h2v-1l1,-1h3l1,-1h4l3,-1l1,1h-1v1h-1v1h-1ZM433,40h1h-1h5l1,1v1h1v1h-4l-2,1h-2l-4,1l-2,1l-1,1h-2l-2,2h-4l-2,1h-3v-1h1v-1l-1,-1h-1v-1h-1h1l1,-1h1l1,-1h2v-1h1l1,-1h2l1,-1h1l1,-1v-1h1v-1h7v1h2ZM522,16h3l-1,1h1l1,-1h2v1h5v1h-1l-1,1h-2v1h-1l3,-1h1v1h-1v1h-1v1h-2l1,1h-1h1l-1,1h1h-3v1h-4l1,1h1h-5v1h3l1,-1v1h4l-1,1h-2h2v1h-1l-1,1h-2l1,1h-1v1h-4l-1,-1h-1h1v1h-1h5v1h3v1h-1l-1,1h-3v-1h-3l-2,1l-1,-1h-1v1h-4v-1h-1v1h-1v-1v1h-2v-1h-1v1h-1l-1,-1v-1h3v-1h1v-1h-1v-1h3l1,1h1l1,1h2v-1h1l1,-1l-1,1h-4v-1l1,-1h1h-2v-1v1h-1l-1,1v-1h1h-3v-1h1l1,-1h4l-1,-1h-1v-1h-3v-1h-1l1,-1h4v1h2l1,1h1l-1,-1h-2v-1h4v-1h1v-1h1v-1h-1v1h-1v1h-3l-1,1h-1l1,-1h-2v1h-4v-1h2l1,-1h1h-3l-1,1h-1h1v-1h1h-5l1,-1h1h-1l-2,1v-1h1h-2l1,-1h4l1,-1h3v1h1v-1l1,1h2h-2v-1h-1h1h-1v-1h1v1h1l-1,-1h6v1v-1h-2l1,-1h2v1h1v-1h2v1v-1h1ZM490,30h2l1,1l1,-1v1h1h-6ZM493,39v1h-1l-1,1h-1l-1,-1h-2v-1l-1,1v-1h1v-1h1l2,-1h1l1,1ZM477,43l1,1l1,-1h4v1h-1v1v-1v1h1h-2l-1,1h-1h3v2l1,-1h1v1l-2,2h1v1h-5v1h-1v1h-1v-1h-1l-3,-3h-2v-1h-1l-1,-1v-1h3v1h3v-1l1,1v-1h-1v-1h1h-2l-1,-1h2v-1h2ZM519,79h1v-1h2v1h3l1,1h1l1,1h2v1h1l1,1v1h4l1,1h1v1h-1l-1,1h-2l-2,-1h-2v-1h-3v-1h-2v2h-1v1h-1l-1,1h-1v1h-2l-2,-2v-1l-2,1h-3v-1l1,-1h2v-2l-1,-1h1v-5l1,-1h2v2h1ZM485,34v2h-1v1h1h-1v1h-1v1h-6v-1h1h-1h1l1,-1h2h-7v-1h2v1h1v-1h-1v-1h1h-1v-1h1l2,2h1h-1v-1h1h-1h1l-1,-1h-1h6Z"/>
<path class="sl" d="M479,26h1v1h-1h1l1,-1l1,1h1l1,1h-1v1h1v1h-3v-1h-3v-1h-2v1h-1v-1h2v-1h1h-2v-1h-1h3ZM498,21l1,1v1h3v1h1l-1,-1h2v1h-1h2v1h2v1v-1l1,1l-1,1h-2v1h-1v-1h-1l1,1h-1h1h-1v1h-2v-1h-1l1,1h-6v-1h1h-1v-1h-1h1v-1h1h-5v-1h1h-2v-1h1v-1h1v-1h1v1h1v-1h-1l1,-1h3ZM492,33h2v1h-1v1v-1h6v1v-1h-1v1h4l-2,1l-1,-1h-1v1h3v1h1h-1h1l1,1v-1h1v1l1,-1l1,1v-1l1,1h2l1,-1h5l1,-1h1l1,1h4v1h1v1h-1h2l-1,1v-1h-1v1h1v1h-6v-1h-1v1h-12v-1h-2v1h-3v-1h-1h1h-1v1l-1,-1v1v-1h-1v-1h-1v-1l1,-1v-1h-1l-1,-1h-6v-1h1h-2v-1v1l1,-1h-1h4ZM490,28h1l1,1h-1h1v1h-5v-1h1h-2v-2h2v1h1ZM493,42h1v1h6l-2,2h-1v1h-1v1h-6l1,1v1h-1v1h-3v-2l-1,-1v-1l1,-1v-1h2l-1,-1h1v-1h3ZM478,59h1v1h1l1,1h1v1l1,1h1h-2v1h-6v-1h-3v-1h-2v-1h4v-1h1v-1l1,-1ZM669,186l1,-1v2h2l1,-2l-2,1l1,-1l-1,-1h1v-1h1v1h2v1h1l-1,1v1h-1l-1,1h-5v-1l-1,-1v-3l1,-2v-2h1v-1h1v1l1,1v5h-1ZM638,193h-2v-2h-1h1v-1h-3v-3l-1,-1v-1l-1,-1v-1l-1,-2v-1h-1l-1,-1h-2l-1,1h-2l-1,-1v-1h-1v1l-1,1v2l-1,1v2l-1,1v3h1l-1,1v1h-1v3h-1v-1h-1v1h-1l-1,2h-18v1v-1l2,-1h1l2,-1l1,-1v-2l1,-1v-1h1l3,-3h1v-1h1l1,-1h2l1,-1h1l2,-1l1,-1v-1l1,-1l1,-2v-1l3,-3v-1h2v-1l1,-1h1l8,-4h2l1,-1h1l3,1h2l2,1v1h-1l2,1v1l-1,1h-1v1h-1v1h-1v1l-1,-1h-5l-1,1h4l2,2h1v-1h1l1,-1v1h2v3l-2,2h3v1l1,1h1v1l2,2h4v1h-1l1,1h3l1,1h6l1,-1l1,1h3l1,1h-1v1h3l-1,1v-1l-1,1h-1v1h-1l-1,1h-1l-1,1h-1l-2,1l-1,1v-1l-1,1l-1,-1l1,1v1h-1l-1,-1h-1v1l-1,-1v1l1,1h-1v1h-1v2h-1v2h-2l1,1h-3l-1,-1v-1h-1v1l-1,-1l-1,-2v-2l1,-1l-1,1v-1h1v-1h1h-1h1l4,-4h1v-1h1v1l1,1v-1l2,-1h2l-2,-1l-1,1h-6v-1l2,-2h-1l-1,-1l1,1l-4,4h-3v-1l-1,1h1v1h-1l-1,1v-1l-1,1h-1v-1h-1ZM677,147v1l-1,1v1l1,-1v1h1v2h-1v1h1l-1,2l1,1l-1,1v1h1v2h1v-3l1,-1v2l1,-1h2v1l-1,1v1v-1h1v1l-1,1h1v-1l1,1l1,-1h1v1v-1h1v3l1,-1h-1v-1h2v-1l1,-1v2h1v-1h3l1,1v2l-1,1h3v1l-1,1v1v-1h1v-1l1,1v-1h1v-1h1v2h-1v3h-1h1v1l1,1h1v-2l1,-1h1v3l1,1v-1h1l-1,-1h1v1h1v3l1,1v2h-1l-1,1v-1l-2,-2v-1v1l-1,1v1l-1,-1v-3l-3,-3h-1l1,1v2h-1v-1v1h-1v4h-4v-1h1v-1h1v-2h1v-1h-3l1,1h-3v-2h-2v1l-1,1h-10l-2,1h-2v-1l-1,-1v-1l2,-2v-1h1h-4v-1l1,-1v1h1v-3h1v-1h-1v-2h1l-1,-1v-4l-1,-1v-1h1l-1,-1h1v-2h-1l1,-1v-1l2,-2l1,1h1v-1h-1ZM510,54h2v-1h3v1v-3h-2l-1,-1h1v-1h1l1,1h1l-1,-1h-1h1h-2v-1h-1v-1h3l-2,-1h-1l1,-1h3v-1h6l1,1h1v1h1v1h1h-1v1h-1v1l1,-1v2h1v-1h1v-1h1v1l1,-1l1,1v1h1l-1,-1v-1h1v1h1l-1,-1v-1h7l1,1h1v1h-1v1h1v-1h3v1h-2v1h1v1h1v-1h1v-1h1l-1,1v1v-1h2v1h1l-1,-1l1,-1v1h5v2h-2v1h1v-1h2l1,-1v1h1v1h-1l-1,1h1l1,1v-2h1l1,-1h2l1,1h2v1h-2v1h-1h3v1h1v-1h1h-1v-1h2l1,1h1v1h1h-3v1h-1h5v1h2v1h-3l-1,-1v1l-1,-1l-1,1h-1h4l1,1h-5l2,1h7v1h1v1h1l-1,-1h1l1,1v1v-1h1l1,1v-1h1v1l1,1v-1h-1v-1h1v1h4l1,1h-1l1,1h-1h2v-1h1v1h1v1h1h-1v1l1,-1h4l2,1h1v1l-1,-1h-1l1,1h1l-1,1h-1v-1h-1l2,2h1h-1v1h1h-1v1h-2l-1,-1l1,1h-1h1l2,2v1h-3v-1h-1v-1v2l-1,-1h-1l-1,-1h-1v-1h-1v-1h1v-1h-1v1h-2v-1h-3l-1,-1h-1v-1h-1v1h1h-1l1,1h-1l-1,-1h-1v1h2l1,1h1h-1v1h-1l-1,-1h-1l-1,-1h-1v1h2v1h2v1h3v1h1h-1h1v1h2v1h1v1v-1h2l-1,1h1v-1h1l1,1h1v1h2v1h-1h1l1,1h2l1,1v1l1,1h1l-1,1l-3,-3v1l1,1h1v1h1v1h1h-2l2,1v1h-1v-1h-2l-1,-1v1v-1h-3l-1,-1l1,1h-1v-1h-2l-2,-1l-1,-1h-1h1v1h1h-1l-2,-1h-2v1h2v1l2,1h2l1,1h1l2,1h1l1,1h1v1h2v2h-1l-2,-1h-3l-3,-1h-4l-2,-2h-5l-1,-1h-1h1h-2l-1,-1h-1l-1,-1h2v-1h-4v-1h-2v-1h-1l-1,-1h-2l1,-1h-3v1v-1h-2v-1h-1v1h1l-1,1h-2v-1h-1v1h-1l-1,1h-4l-1,-1h-2v-3h1l1,-1h-1v-1h2l2,1h2l1,1h1v1v-1h-1l-1,-1h2l1,-1h5l-2,-2h-1l-1,-1h-1v-1h1l2,-2v-1l1,-1h1v-1h-1l-2,-2h-1l-2,-2h-2v-1h-1v-1h-1l1,1h-2v-1h-2v-1h1h-1v1h-2l-1,1h-1v-1h-1v-1h3l-1,-1h-2l-1,-1h1h-2v-1h-3v-1h-2l-1,-1h-1l-1,-1v1h-1h2v1h1v1h-6l-1,-1h-2l1,1h2v1l-2,-1h-2v1l-1,-1h-11v-1h-1v-1h-2v1h-3l-1,-1h-1l-2,-2h6l-1,-1h-5v-1h-1v-2h1l-1,-1v-1h1v-2h1l2,-2h2l1,-1h4l1,1h-1l-1,1h-1v2h-1v1h1v2h1v1h1l1,1h1l1,1h-3l-1,1Z"/>
<path class="sl" d="M656,165h-7l-3,-1v-1h-2v-1l-4,-1h7l2,1h1l3,1h1l1,1h1ZM653,183h9v1l-1,1v1h-2v-1h-1v-1l-1,1h1h-3l-1,-1h-2l-1,-1v-1h-2v-1h1v-1l1,-1v2l1,1ZM533,90v1h-1l-1,1v1l-2,1l-1,-1l-1,1h-1v-1h-1v-1h1l1,-2h5ZM543,92l1,1v3h-3v-4h1ZM546,64l2,1h1v2h1v1h-1l-1,1h-4l-2,-2v-1h1v-1h1v-1h1ZM526,44h6l1,1h2v1h1l-1,1l-1,-1h-4v1h-4v-1h-1v-1h-2v-2h1l1,1ZM550,147h-2l-1,-1h-3l-1,-1v-1h4l2,1l1,1ZM555,126v-2l1,1v1ZM554,125v3h-1l1,-2h-1v1l-1,1h-1l1,-1v-1l-2,2l1,-2l1,-1v-1v1v-1h1ZM550,126h-1v-1h2v-1v1ZM501,32h-3v-1h3ZM472,32h-1v-2h1v1h1v1ZM487,24v1h-1v-1h-1h1ZM462,46h-1v-1l-1,-1h-1l1,-1h5v2h-2v1ZM475,36h-4l1,-1h-1h4ZM472,34h1v1h-2v-1h1v-1h1v1ZM441,35v1h-1v-1h-1h2l1,-1h2l-1,1h-1ZM458,29h-1v-1h1ZM311,127h-1h1v-1h1v1ZM299,142v-1ZM311,130v1h-1l-1,-1v1v-1h1ZM309,135l-1,-1v-1l1,-1v1h1v2ZM313,126l1,-1h1l1,-1v1h-2ZM313,137l-1,2v1h-1l-1,1v-1l2,-2h-1v1l-1,-1l1,-1v-1h1v-1h1v1h1ZM309,160v1h-1ZM319,160h-1v-1h-1l1,-1v1h1ZM308,159h-1v-2h1v1ZM316,156v-1l1,-1v2ZM310,140h-1v-2h1v1ZM310,146h-1v-1h1ZM312,141h-1l2,-2v-1h1v1l-1,1h-1ZM310,137v-2h1l-1,1ZM311,136v-1h1ZM319,165v1v-2h1v1ZM682,199h-1h1l1,-1ZM671,189v-1ZM661,177h1l-1,1v-1l-1,-1h1v-1h1l-1,1ZM646,174v1h-1v-1ZM646,174h-1v-1ZM645,199v-1ZM642,196l-1,1v-1ZM601,193h-2l1,-1v-1h1v1ZM600,192h-1l1,-1ZM612,183l1,-1ZM689,159l-1,1v-1ZM676,145v-1l1,1ZM691,158l-1,1v-1ZM699,173h-1v-2l1,1ZM599,89h2v1h-2ZM593,102h-1v-2h2v1ZM578,90h-2l-1,-1h-1h4v1h1ZM603,95h-1l-2,-1l1,-1h1v1h1ZM600,92h1v1h-1ZM592,108v1ZM608,100h-2v-1l1,1ZM636,123h1h-2v-1h1ZM628,114v1h1h-2v-1ZM566,58h-1h2ZM590,68v-1h1h-1ZM524,36h-1v-1h1v1h-1ZM549,123v-1ZM549,118v1h-1ZM551,123v-1ZM558,152h-1v-1h1ZM320,165v-1ZM317,157v-1h1v-1v1h-1ZM554,66h-4v-1h4v1h1ZM548,87h1v1h1h-1l-1,1v-1h-1l-1,-1h-1h1ZM491,37h-1v-1h1ZM544,107h-1h1v-1ZM544,106l1,-1v1ZM483,47v-1h1h-1ZM483,41v-1l1,1ZM481,43h-1l1,-1h1v1ZM500,60v1h-1ZM499,61h-1ZM564,91h-1l-1,-1h2ZM549,64h-2v-1h2ZM550,101h-1l1,-1h1ZM536,65h-1l1,-1v1h1ZM552,87h-1l-1,-1h2ZM532,59h1h-2v1l-1,-1h-1h3v-1ZM537,59h-1v1h-1v-1h1ZM548,84h-1ZM525,74h1h-2ZM535,62h-1v-1h2l-1,-1h2v1h-1v1ZM541,61h-1l-1,-1h2Z"/>
<path class="sl" d="M510,58h1h-2v-1ZM523,76h1l1,1h-2v-1h-2v-1h-1h3ZM512,68l-1,-1v-2h1v1h1v1h-1ZM520,77h-2v-2h1v1h1ZM488,96v-1h1v1ZM478,34h-1h1l1,-1h1l-1,1ZM477,29h1ZM479,30h-1h2ZM501,34h-2l1,-1h1ZM487,38h-2l1,-1h2ZM488,41h-1ZM437,34h1ZM455,32h-2ZM469,39h-1v-1h1v-1h1v2ZM469,63h-2v-1h2ZM470,62h-1v-1h1ZM471,56h-1v-1h1ZM484,60v1h-1v-1v1h-1v-1h1v-1ZM467,60h-1h1h-1v-1h1ZM463,63h-1h1v-1l1,1ZM455,64h-2v-1h2ZM442,68h-1v-1h1ZM439,65h1v1ZM440,70h1ZM439,65h-1ZM369,52h-1v-1h1ZM825,554h2v-1h6v1h1l-1,1v2h-1l1,1l-1,1v1l-1,1v2l-1,1v1h-1l-1,-1v2h-1v-1h-1v2h-2v1h-1v-1h-1v1h-3v-1l-1,-1v-3h1v-1h-1v-6l2,-2h1ZM831,738v1h-1ZM798,766h-1v-1l1,-1l1,1h-1ZM823,745h-1l1,-1ZM858,573l-1,1v-2l1,-1v1ZM881,654l1,-1v-1v1ZM880,657l-1,1v-1l1,-1ZM856,560h-1v-1h1ZM825,550l-1,2v1h-1l-1,-1h-1v-1h1l2,-1ZM821,536h-1l-1,-1v-1h1l1,1ZM819,554l-2,2l-1,-1v-1l1,-1h1ZM827,553h-3l1,-1h1v-1h1v1ZM820,552v1l-1,-1v-1l1,-1v-2h1v2ZM822,549h-1v-1l1,-1h1v1ZM810,566l1,-2l1,-1v-2l1,-2v-1h2v1l-1,3l-1,2l-1,1ZM795,776h-1l1,-1v-1h1v-1v2ZM519,413v-2h1ZM520,417l-1,1v-1h1v-1ZM749,445v1l-1,-1v-2l1,1ZM599,358v1l1,-1v2h1v1l-1,1h-1v-1h-1v-2h-1v-1h1v-1h1ZM601,344l-1,-1l1,-1v-4h-1l-2,-2h-3v-1h1l1,1h2v1h1v1h1l1,1v1l-1,1v2ZM638,382v1l-1,1h-4v-1h1v-1h3l1,-1ZM598,354v2l-1,1h-1l-1,-1h-1v-1h-1h1v-1l1,-2v-1l-1,-1h2v1l1,1v1ZM591,337h4v1h-2l-2,1h-2l-2,-1h1l1,1v-1h1v-1ZM601,351h-1h2ZM628,369l1,1h-2v-1h-1h1ZM624,358v1h-1ZM628,374h-1l3,-3l-1,-1v-1h1v2l-1,1v1ZM606,347l1,1h1l2,1v4h-1l1,-1v-2l-2,-2h-2v-1l-1,1v-2ZM615,364h-1l-1,-1h-1l1,-1l1,1ZM622,368l-2,-2h-1h1v-1h-1v-1l-1,-1v-1l1,1v1l1,1v1l1,1h1ZM617,357l1,1h-2l1,-1l-3,-3v-1v1l2,1v1ZM637,372h2v1l-1,-1h-2v-1ZM638,379l-1,1v-1ZM606,942v-1l1,-1l1,-2l1,-1v-1l2,-2l1,-2v1l1,1h-2v1h1v1h1v1l1,1h1l1,1h1l1,1h4v1h-4l-1,1h-8l-1,-1h-1v1ZM625,940h1h-1v1h-1v-1ZM684,860h-1v-1h1ZM728,413h-1v-2l1,1ZM727,408l-1,-1h1ZM673,955v1h-1v-1l-1,1l1,-1ZM499,987v-1ZM400,990h-1h3l2,1h1l-2,-1l2,1h2l-1,-1l1,1h6l2,1h7l2,1h14l2,1h3v-1l3,1h1v1h4v-1h-1h4v1h1h4l2,1h17l-1,-1h-5l-1,-1h-1h-2v-1h-1h9l4,1h21v-1l1,1l1,-1h2v1h-1h14l1,1h2l1,-1h2l1,-1h2l1,1h11l3,-1h10l1,-1h5l1,-1h2v-1l1,-1h1v-1h1v-2h5l1,-1h1h-1h1l2,-2h1h-1h1v-1h1h-1l1,-1h1l1,-1v1h1l1,-1h1v-1h3l1,-1h4v-1h3v-1h1l1,-1h4l1,-1h3l1,-1h2l1,-1h2l3,-1h1l2,-1h3l1,-1h3l2,-1h1l-1,1h1h-4v1h-3l-2,1h-1v1h-3v1h-1v-1l-2,1h-2l-1,1h-3v1h-3v1h1h-2l-1,1h2v1v-1h-1v1h-5v1h-1v-1h-2l-1,1h-1h1v1h-5v1h-1h1h-3v1h-1l-1,1h2h-2v1h-1h3l1,-1h2l-1,1h-1h1h-1v1l-1,1h1h-1v1h-1h1h-2v1h-1h1l-1,1h-2h-1v1h-1h1h-1l-1,1h1h-2l-1,1v-1h-1v1h-1h1h-1h1h-1l-1,1h-1h1h-1h1h-4v1h-6v1h-1h-4l-2,1h-8l-2,1h-14v1h1h-11l3,1h2h1h-1v1v-1h2l-1,1h-44l-1,-1h-15l-1,-1h-10l-1,-1h-9l-1,-1h-7l-1,-1h-6l-1,-1h-5l-1,-1h-5l-1,-1h-4l-1,-1h-4l-1,-1h-2Z"/>
<path class="sp" d="M530,999h-7l-1,1h-44l-1,-1h-15l-1,-1h-10l-1,-1h-9l-1,-1h-7l-1,-1h-6l-1,-1h-5l-1,-1h-5l-1,-1h-4l-1,-1h-4l-1,-1h-3"/>
<path class="sl" d="M551,997h1ZM556,997h3v-1h6l2,-1h6l1,-1v1h-7l-1,1h-7l-1,1h-3Z"/>
<path class="sp" d="M551,997v0M569,995h-2l-1,1h-7l-1,1h-3"/>
<path class="sl" d="M537,999h-3l6,-1h1h-2Z"/>
<path class="sp" d="M539,998v0"/>
<path class="sl" d="M561,986h1v1h-1v2l-1,1h-2v1h-4v1h-3v-1h1h-2l-1,1l-1,-1h1h-5l-1,1h-2v-1h-1h3l1,-1h1v1h1v-1h6l1,-1h2l1,-1h1h-3v-1h2v-1h-1h2l1,-1h4ZM479,992h7v1h-11l-1,-1h-1h5ZM429,992h2l-1,1h-1l-2,-1h-1h1ZM415,990h1l1,1h4l1,1h1h-3l-1,-1h-4l-1,-1h-1h1ZM530,999h-1h2l1,-1h3l-1,1h-3ZM617,971h1v-1h1h-1l1,1h-2l-1,1l1,-1h-1v1h-1h1v-1l-1,1l1,-1h-1h1v-1h2ZM628,967h2l-1,1h-2l1,-1h1ZM626,964h1h-1v1h-3l1,-1ZM598,973l-1,1h1v-1h1l-1,1h-2v-1h1ZM601,973h-1l1,-1h2l-1,1ZM573,982h-3l-1,1v-1l2,-1h1l1,-1h2l-1,1h-1l-1,1ZM547,989l-2,1h-5l3,-1h3ZM546,988h1h-2ZM540,993h-1v1h-3l-1,-1h3ZM498,994h-1v-1h-1h3v1ZM535,999h-1h1l1,-1v1l1,-1l-1,1ZM536,998l-1,1h-1l1,-1h2ZM638,961h1ZM626,969h-1v-1h1ZM617,972h-1h1l2,-1l-1,1ZM627,967l-1,1h-1v-1h1ZM620,970h-1ZM582,986v-1h1v-1l1,1h-2ZM614,967h1h-2l-1,1v-1h1ZM554,987h-1ZM488,993h-1h2ZM464,993h-1ZM433,993h-1l-1,-1h2v1h1ZM420,992h-2l-1,-1l1,1h1ZM642,961h-1h1v-1h1ZM621,966h-1ZM583,986h1ZM581,987h1ZM580,988h1ZM619,966h-1ZM613,968h-1ZM609,971h-1h1v-1h1ZM604,972h-1h1v-1ZM596,974l-1,1l1,-1h1ZM605,969h1l1,-1l-1,1ZM584,977v1h-1v-1h2ZM581,979h-1l1,-1ZM576,980h1ZM574,982h-1h2ZM554,988h1h-2ZM540,993h1ZM491,994h-1v-1h1ZM439,993h-2ZM410,991h-1ZM413,991h-1ZM399,990h-1l-1,-1h1v1ZM717,404v1Z"/>
<path class="sh" d="M483,442l1,-1v-4l-1,-1l1,-1v-1l2,-2l1,-2v-1h11v-3l-2,-2v-1h-1l-4,-4h3v-5h15v11l-1,3v2h3l1,1h2v-1l3,2h-1v1l-2,1l-3,3h-2v4l-1,1v1h-2v2h-1l-1,1h-1l-1,1v1h-1v1l-3,-1l-1,-1h-7l-2,-1l-1,-1Z"/>
<path class="sw" d="M546,217v2h4v1v-2h1l1,-1h2v-1h1l1,-1v-1h4l1,1h2v-1v1v-1l1,-1h4l1,-1h2v-1h1v2l-2,2h-1v1l-1,1l-3,1h-1v1l-6,2h-1l-2,2h-6l-1,-1v1l-1,-1h-2v-1h-1l1,-1v-1h1v-1ZM571,212l1,-1h-1ZM549,221v-1ZM466,160h1h-2v2h-2v-5h1l1,-1l-1,1h-1v-1h1l1,-2h-1v-1l-1,1v1h-1v-4h-1v1v-1h-1l-1,1h-1v-2l-2,-1v-1l-1,-1v-1l2,-1h-3l-1,-1v-1l1,-1h1v-2h4l1,1h1l-1,-1h-1v-1l2,-2v1h-1l-1,1l1,1v-1h2h-2v1l1,1v1l1,1v2h1v1h-1l1,1l1,2v3h1h-1v1h1v1h1v1l1,1v1h-1v2ZM459,150v-1ZM465,157h-1v1h1ZM426,89h1h-1v1h-1v-1h-7l-1,1h2v1h-3v1h-1l-1,1h-1l-1,1h-1l-1,1h-2l-1,1v-1h-2v1h-1v1h-4l-1,1v-1l-1,1h-3l-1,-1h-1v-1l-1,1v-1h-2v-1h-1h2v1h1l1,-1h2v1h1h-1h1v-1h1v-1h1l1,-1h4v-1h-1v-1h-1l1,-1v-1h-1l-1,-1h1l2,1l1,1h1l2,2h5l1,-1h2l2,-2h2l2,-1h2l1,1h1ZM414,92h1h-2v1h-4v2h1l2,-2h2ZM589,200v1l-2,2h-1l1,1v-1v1h1l-1,1v1h1v1h-2v1h-1v1h-7l-2,-1l-2,1h-3l-1,1h-4v-1l1,-1v-1h2v-1h1v-1h4l1,-1h5l1,1v-1v1h1l1,-1h-1h1v-1l-1,1v-1h-3v1v-1h3v1v-1h1l1,-1h2l2,-1ZM584,203h-1ZM587,202h-2v1h1v-1ZM588,202h-1ZM407,70h1v1h-1l-1,1h-1l-1,1h1l-1,1h-2v-1h-4l-1,1h1v1h-3l-1,1h-3v1h-1v-1h2l2,-1l1,-1h1l-1,-1l-1,1h-2l-1,1h-1v1h-3l-1,-1h-1l1,-1h2v-1h2l1,-1h1l-1,-1h2v1h1l1,-1h1h-1l-1,-1h-4v1l-1,-1h-3l-1,1v-1v1h-1v-1l1,-1h9l2,-1h5l1,-1h2l1,1l-2,1h-3v1h-1h2v1l1,-1l1,1h2l1,-1h1l1,-1h1l-1,1ZM546,217l1,-1v-1h1v-1h1v1l1,1v1h-3ZM755,70h1h-1h1h-1l-1,-1h-1v-1h-2v-1h-1h1l2,2h1ZM749,66h-1h1l1,1Z"/>
<path class="sr" d="M751,67l2,2h1l1,1M748,66h1l1,1"/>
<path class="sw" d="M574,336v2h-2v-1h-1v-2h1v-1h2v1ZM546,470l1,1v1h-4l-2,-1h-1v-1h-1l-1,-1v-1l-1,-1v-4h2l2,2h1v1l2,1l1,1v1ZM671,700h-1v-1h1v-1h-2l-1,-1v1h-1v-1h-1v-1h1v-1l1,1v-1l-1,-1v-1h2v-1l2,2h1v1h1v1h1v1h1l1,1h-1v1l1,1h1h-1v1h-2v1h1v1h-1v-1h-1v-2h2l-1,-1h-1v1h-1ZM453,144h-1v1h-1v-1h-1v1h-1v-1h-2v-1h-2v-1h3v-2h-1l1,-1h1v-1h1l-1,1h1l-1,1h2v-1h1v1h-2v1h-1v1h1v2h1v-1h1v1ZM360,223v1h-1l-1,1h-1v-1h-1v-3h-1v-3h2v2h1v1l1,-1h2l-1,1h-1v1ZM359,224v-1h-1ZM533,193h-1v1h-1v1h1h-1v1h-1v2l-1,1v1v-1v1l-1,-1l1,-1h-1h1v-1h-1l-1,1h-1v2h-1v3h-1v1l-1,1h1v2l-1,1l1,1l1,2v1l1,1v3h-1v2l-1,1v1h-1v1h-1l-1,1h-3l-1,-1v-1l-1,-1v-5l-1,-1v-4l1,-1v-4h1v-3h1v-2h-2v1h-1v1h-1v-1l2,-2v-1h1v-1l1,-1v-1h1v-2h1v1h1v-1h1v1h1l2,-2v1h1l1,-1h1l1,-1l1,1h2l1,1ZM529,193h-1v1h1ZM526,197v1ZM520,195v1h1v-1ZM520,196h-1v1h-1v2h-1h2v-1h1v-1h-1h1ZM535,188h-4v-2h-2l-1,1l-2,-1l-1,1h-2l-1,1h-5v-1h-1l-1,-1v-1h-4v1h-1v-1h1v-1h-1l-1,-1h1h-1l-1,1h-1v1h-2l-1,1h-3l-1,1h-4v-1l1,-1h-3l-1,1h-1l-2,1l-1,-1l3,-2l1,-1l5,-3l2,-1h2l1,-1h1l1,-1v-1h1v-1h1l1,-1v1h1v-1h1v-2h1v1l-1,1v1v-1h2v-2h-1v-1h2l1,1h3v1h3v-1h1v1h1l1,1v1l2,2v1h6v3h2v3h-1h1v1h1v1h1l-1,1v1ZM497,186h1v-1ZM499,184v1ZM513,172h-1v1h2v-1ZM508,178h1l1,-1h-1l-3,1v1h2v-1h-1ZM514,182h1l-1,-1h-1l-2,1l-1,1v1h1v-1v1h-1h1l2,-2ZM515,173v-1h-1v1ZM527,179h-2v1h1ZM535,188l1,-1h1v2h4l2,1h9v1h5v1h1v1h1v1l1,-1v2h2v1h1v1h-1h1v1h1v1h1v-1v1h-2v-1v1h-1h1v2h-3v-1h-2v-1h-1v-1h-2v-2h-2v1h1v1h1v4h-1v1l-1,1v1l1,2v2l-1,1h-1v1h-1l-1,1l-1,-1v-1l-1,-3l-1,-1v-1h-1v-1h-1v1h-2v2h-1v1h-1l-1,-1v-2h1l1,-1v-1h1v-4l-1,-1v-1l1,1v-1h-1v-1h-1v-1h-3v-1h-2v-1h-3v-2h4v-1h-1v-2ZM542,191h-1v1h1ZM541,191h-1v-1h-1l1,1h-1h1ZM539,190v-1h-2v1h1ZM536,189h1ZM537,189l-1,-1h1v-1h-1v2ZM535,192h-1v1h2ZM544,192h1l1,1h3l1,1l1,-1v1h-1h2v-2h-1v1v-1h-1v-1h-1v1v-1h-2l-1,1h1h-1h1h-2v-1h-3v1h1ZM552,194h-1v1h1ZM562,199v-1ZM443,349v1l-1,2v2l-1,3v2l-1,2v-3l1,-1h-1v-1h1v-2l1,-1h-1v-4h1v1h1ZM443,114h-1l-1,1h-1v2h-1h1v-1h-2l-1,1v-1h1v-1h1h-1l1,-1v-1h2v-1h1l1,1ZM416,108h-1l-2,1h-2v1h-1h1l-1,1h-3v-1h1l2,-2h2l2,-1h1v-1h4v1h6l2,1h-3v-1h-1v1h-6ZM593,155v1l-2,2v-1h1v-1h-1v2h-1v4h-1v1v-1h1v-3h-1v1h-1l1,-2v-1l3,-3h1h-1h1l-1,1h2Z"/>
<path class="sw" d="M802,102l1,1l2,1h-1l-1,-1h-1v-1h-1v-1h-1l-1,-1l1,1h1ZM803,103l-1,-1v1h1l1,1v-1ZM478,169v1v-1h-1v-1h-3v1h2v1l1,-1v1h1h-1v1h-2l-1,1h-1v-1l-1,1h-1v-2h2v-2h1l1,-1h-1v1h-2v-1h2l1,-1h1l-1,-1h1v1h1v2h1ZM475,170h-1l1,1l1,-1ZM512,165v3h-1l-1,1v-1h-2l1,-1h-1v1h-1v-1v1l1,-1h-1v-1v1v-1h-1h1v-1h1h-1l1,-1v-1h2v1h1v-1h-1h1l1,1h-1v1l1,-1ZM509,165v-1v1h-1v1h1ZM447,116h1v1h-1v1h-2v1l1,1h-1l-1,1h1h-1v1h-2v1h-1v1h-2v1l-1,-1v1h-1h1v-2l1,-1v2l1,-1h1v-1h1v-1h-1v-1h1h-1v-1l1,-1v-1h2l1,-1v-1h1v1l1,-1v1h-1ZM591,209v1h-1l-1,-1h1ZM274,87v1h-3v1l-1,-1h-2l1,-1h3ZM258,96h-2v1v-1h1l-1,-1l1,-1h1v1ZM307,234v1v-2h1ZM512,205v1l-1,1v-3h1ZM564,71v-2h1v1h3l1,1h1v1h1v1h-4v1h-1v-2h-1ZM454,88h1v-1h4v1h-2v1h1v1h-1v1h-1v-1h-1v1v-1h-2l1,-1h-1v-1ZM483,84h2l-1,1h-2l-1,-1l-1,1h-1v-1h-2v-1h4l1,1ZM604,202v1l1,1v1l-1,-1v-4h-1v-3l1,-1v5ZM321,280l-1,1h-1v-1l-1,-1v-1h1v1ZM397,85v1h-2v-1h-1l-1,-1h2l1,-1v1h1ZM612,876h-1l1,-1v-1h2v2l-1,-1ZM603,173v-1h-1v-1h3v1l-1,1ZM584,214v1h-1v-1ZM585,215v-1l-1,-1v-1l1,1v1ZM587,215v-1h-1l-1,-1v-2l1,2l1,1ZM426,117h1v1h-2l-1,1h-1v-1v1h-1v-1h1l1,-1h1ZM463,90v-1h2v1h-3ZM447,103h1v-1l1,-1v1l1,1v1l-1,1l-1,-1v-1ZM499,310h-2l1,-1h1ZM578,126l-1,1v-1h-3v-2h1l1,1h2ZM559,189h2v-1h3l1,1h-3v1l-1,-1h1h-2ZM566,126v-2h1v1h2v1h-1ZM702,805l-2,1h-1l-1,1v-1h-1v-1h1l1,-1h3ZM572,140h1v-1h5l-1,1h-1h5l-1,1h-2v-1l-1,1h-2l-1,1h-1l-1,-1h1v-1ZM572,140l-1,1h-1l-1,1h-3v-1h-1h1h-2l1,-1h2l1,-1h1l-1,-1h1l1,-1l1,1h1h-1v1h-1v1h-1h1ZM256,96h-1l-1,1h-1h1v-1h1ZM652,405h-2v-1h2ZM313,56v-1ZM396,100l-2,2v-1h-1h2v-1ZM570,143v2h-1v-3h1v1h1ZM600,922l-1,1h-5v1h1h-1v-1h-1h2v-1h-1l-1,1v-1h1v-1v1h4ZM432,104v1h-2l1,-1h-1h2v-1h1l-1,1h1ZM333,29h1v-1ZM522,19h3ZM504,146h3l-1,1h-2ZM842,135v1h1l1,1h-1l-1,-1ZM787,100h1l1,1h-1ZM378,200h-1v-1h-1h1v-1h1v1ZM352,43h-1h2ZM364,174v-1h1v2l-1,1v-1h-1h1ZM339,261v-1h-1v-1l-1,-1l-1,1v1l-1,-1h-3v-1h3v-1l1,-1l-1,1v2h1l1,-1h1v1h1v1ZM404,111v1h-2v-3h1v1h2ZM633,134v1h1v1l-1,-1h-1v1h-3v-1h-3l1,1h-1l-1,1v1h1v1h1h-2v-1h-1v-2h-2v-1h-1l-2,-1h-1v-1h-1l1,1v1h1h-1l-2,-2v-2h-1v-1h1v1l2,2l2,1l1,1h1l1,1h2l-1,-1h1v-1h-1l-1,-1h-1v-1h1v1h1l1,1v1h3v-1h-1l-1,-1v-2l1,1v1h1l1,1h1l1,1h1v-1Z"/>
<path class="sw" d="M511,432v1h-1v1h-1l-1,1l-1,-1h1v-1h1l2,-1l1,-1v1ZM718,50h1v1h1h-1v-1ZM494,158h3l1,-1h1v1h-2l-1,1h-2ZM590,173h-1v1v-1h-1l-1,-1v1l1,1h-1v-2h-1v1h-1v-1h2l1,-1h1v1h1l1,1h1v1h-1v-1ZM584,131h2l1,-1h1v1h-1v1h-4v1l-1,-1h1h-1h2ZM788,514v2h-1v1h-2v-1h1l-1,-1h1v-2h3v1ZM682,34h-1ZM582,212v1ZM587,213v-1ZM589,212h-2v-1l1,1ZM264,79h-1l-1,1h-1h1v-1h1ZM367,216l-1,1v-2h1ZM360,229h-1v1v-1l1,-1h-1h1ZM384,66h1l-1,1ZM476,183v1h-1v-1l-1,1v-1h1ZM500,172h-1v1h-1v-1h-1l1,-1v1h1ZM586,184v1h-2v-1h1v-1ZM618,870h-2v-1h2ZM373,98h-1h1v-1h1v-1v2ZM599,920h-3v-1h3l1,1h1h-1ZM341,26h-1h2ZM335,28h-1ZM716,49h-1h2v1ZM653,199l-1,1v-1ZM642,188v-1h1v1ZM314,213h-1v1h-1l1,-1v-1h1ZM313,228h-1v-2h1v1ZM304,249v1ZM410,61v-1h1v1h-1v1h-1v-1ZM612,166v-1h-1v-1h-1v1h1h-1v1h-1l-1,-1v1h-1v-1h2v-1h1v-1h-1h1v1h2v1h1l1,1h-1v-1h-1ZM679,162v1l-1,1v1l-1,1v1l-1,-1h1v-1l1,-1v-2ZM386,65v-1h1v-1h-1h1v2ZM388,65h-1l-1,1v-1h1ZM399,77v-1h1v-1h1v2h-1h1h-1v1ZM499,141h1v-1v1l1,-1h1v1h1l-1,1h-1v-1h-1ZM484,158h-1v-1h-1l1,-1h1v1ZM479,141h-3v-1h5v1h-1ZM602,143v2h1v1l-1,-1h-1v-1h-1v1v-2h1ZM430,132h-2l-1,1h-1v-2h4ZM480,190h-1v-1h1ZM617,205h1v1ZM567,202v1l-1,-1v-1h1v-1h1v1h1l-1,1ZM481,135h1h-1v1h-2l-1,1h-1l3,-3h1ZM327,204h-1v1v-1h-1v-1h1ZM685,168v1h-1v-1ZM474,130h-1v1h-1v-1h1ZM297,58h-1ZM269,76h-1l1,-1ZM268,78h-1ZM262,87l-1,1v-1ZM268,84h-1ZM268,83v-1h1v1l-1,-1ZM264,86h-1h1v-1v1l1,-1v1ZM484,175v-1v1h1l1,-1h-4v-1l-1,-1h1h-1h2v1h2v1h1v1h1h-2ZM351,121h-2l-1,1h-1l-1,-1h-1v4h1h-1v1v-3l-1,-1v-1h-1v-1v1h1v-4h1v4h7v1h-1ZM472,127h-1v-1h1ZM407,179v-2h-1v1h-7v1h-1l-1,1v-2h-1h1l1,1l1,-1h4v-1h3v-1h1v2ZM430,180h-1v-1h1v-1h-2v-2h-4l-1,1v-1h-1h6l1,1h-1v1h1v-1h1v2l1,1h3l1,-1h1v1h-5ZM331,99v-1l1,-1v-1h-1v-1l1,-1v4h-1ZM349,164h-1v-2l1,-1l-1,1v1h1ZM354,172h-1l-1,1v-1h1v-1v1l-1,-1h1ZM333,173v-1l-1,-1v-1v1l1,1ZM433,109h-1l-1,1h-1h1v-1h1l2,-1h1v1h-1ZM307,79v-1h1h-1ZM472,177l1,1h-2v-1ZM472,177l1,-1h2v1h-2ZM469,92l-1,-1h-1v-1h1v1v-1h3v1h-1h1v1h1h-1v1v-1h-1ZM572,80h-1l-1,-1v1h-3v-1h-1h1v-1h1h-1v-1h-1h2v1h3v1h1v1h1h-1h1ZM419,315h-2v-1h-1h2v1l1,-1ZM581,182h1v1h-1l-1,-1v-1v1h-1v-2h-1h1v-1h1h-1v1v-1v1h2v1Z"/>
<path class="sw" d="M399,392h-5v-1h-1h4l1,1ZM535,461v1h-3v-1h-1v-1h3v1ZM767,757v1h-1v1h1h-2v1h1l-1,1h1v1h-2v1h-1v-1h1v-1h-1v-1h2v-1h-1h1v-1l1,-1v-1l1,-1v-2h1v1l-1,2ZM590,488l-1,1v-1h-1v1h-1l1,-1v-1h1v-1v2ZM997,442v-1v1h-1h1l-1,-1l1,1v1v-2h-1v-7h-1v-6l-1,-1v-1v1v-1v1v-1v1l1,1v1v-3h-1v-1v1l1,1v6l1,1v1v-1v7ZM997,442v-1h-1ZM757,813l-2,2h-1v-1l-2,2h-1v1l-1,1v1l-1,1v-2h1v-2h1v-1h1v-1h1l1,-1h1v-1h1l1,-1v-1h1l-1,1v1h1h-1ZM457,162l-1,1h-2v-2l-1,-2v-1h-1v-1l1,1v-2h-1v-2h-2v-1h1v1h1v-1l1,2v-2h1v3h1l-2,2l2,1l2,2ZM449,154h-1v-1h-1v-4l1,-1v-2h-1v1v-2h-2l1,1h-1v1h-1v-2h-1v-1h4l1,1h2v1h1h-1v3l-1,1v3ZM617,153v1h-1v2h-1v-1h-1v-1h-1l-1,-1v-1l-1,-1h1l-1,-1h1v1h2v-1h1v1h1v1h1ZM615,153v-1l1,1v-1l-1,-1h-1l-2,2h1v1h3v-1ZM413,123v-1h-1v-1h1v1h1v1h1v1h-1v2h-1v1h-1l-1,1v-2h-1l-1,-1h2l1,1v1v-1h1v-1h1v-1h-1ZM612,904h-4l-4,2h-2v1v-1h1v-1h1v-1v1h1l1,-1h2l1,-1h2ZM339,261v-1h-1v-1l-1,-1l-1,1v1l-1,-1h-3v-1h3v-1l1,-1l-1,1v2h1l1,-1h1v1h1v1ZM364,247l-4,4v1h1h-2l-1,1h-2l-1,1v-1h1l1,-1h2l2,-2v-1h1l1,-1ZM462,119h2l-2,2h-1l-1,1h-2l-1,1h-1l-1,1v-1h1v-1h2v-1h1l-1,1h1v-1h1v-1h1v-1h1v-1h1ZM874,624l1,1h-1l-1,1v1h-1v1h-1v1h-3l-2,2v1h1v1h1h-1l-1,-1h-1v3l1,2h-1v2h-1v1l1,-2v-3h-1v1l-1,1l-1,2v2l-1,1h-1v-1l-1,1v-1l2,-2v-2l1,1v-2h1v-2h1v-2h-1v-1h1v1v-1h1l1,-1v-1l1,-1v-1h1v1l1,-1h3v-2h1v-1h1v-1ZM862,640h-1v-1h1h-1l-1,1h1v1ZM557,172h1v-1h1v1h4v1h-4v-1h-1ZM407,179v-2h-1v1h-7v1h-1l-1,1v-2h-1h1l1,1l1,-1h4v-1h3v-1h1v2ZM438,197v1l-1,1h-1v1l1,1h-1h1v1v-1h-1v-2h-1v-1h1v1h1v-1l1,-1v-2h-1h1v-1l-1,-1h1v-2l-1,-1v-1h1v-3h-1h1v5h1v2h-1v1h1v2ZM331,99v-1l1,-1v-1h-1v-1l1,-1v4h-1ZM349,164h-1v-2l1,-1l-1,1v1h1ZM997,442v-1v1h-1h1l-1,-1l1,1v1v-2h-1v-7h-1v-6l-1,-1v-1v1v-1v1v-1v1l1,1v1v-3h-1v-1v1l1,1v6l1,1v1v-1v7ZM997,442v-1h-1ZM695,39h-2l-1,-1v1h2Z"/>
<path class="sr" d="M692,39h2"/>
<path class="sw" d="M713,47h-1h1v1l-1,-1h-1l-1,-1h-2v-1l1,1h1l1,1h1ZM707,45h1v1v-1ZM433,83h-1v1h-1v-1h-1h1v-1h1v-1l1,1h-1h1h-1v1h2ZM434,83h2v1l-1,1h-1v-1l-1,-1ZM444,209l1,1h1v1h1h-2v-1h-1l-1,-1v-1l-1,-1v-1h1v-1v1l-1,1h1v1ZM431,338v1h-1v-1l-1,-1v-2l1,1v1ZM414,131v-2h-1h1v-1v1h1v-2h1v-1v1l-1,1v1l-1,1ZM442,101v1h-1l-1,1l1,-1v-1h-1v-1h1h-1v-1h1v1h2v-1l1,1h-1l-1,1h-1h2ZM482,80h-1v1h-1l-1,-1v1v-1h2ZM605,137h-3l-1,-1v1v-1h1v-1h-1h2v1h1ZM608,138l1,1h-1v1h-1h1v-2h-1v-1h-1h1ZM599,135h-1h1v-1h2v-1h-1h1v1h1h-1v1h-1ZM515,259l1,1v5h-1l1,-1v-1l-1,-1v-3l-1,-2ZM556,280h1v1h1v1h-2h2l-1,-1h-1v-1h-1v-1ZM355,146h1h-1v1l-1,-1l1,-1l-1,-1v-1l1,1v1ZM565,316v-1v1l1,1v1l-1,-1ZM331,272v-1h1v1l1,1h-1v-1ZM300,220h-1h1v1h-2l1,-1ZM416,76l-1,-1h1v1h3v1h2v1h-1l1,-1h-5ZM307,208h-1v1h1l-1,1v-1h-1h1v-1ZM324,205v-1h1v1ZM634,190h1h-2v-1ZM824,590h-1v-2h1v-3h1v4h1v2l1,1h-1l1,1h-1v3l1,1h1l-1,1l-1,-1v-2l-1,-1v-2h-1v-1ZM836,705l1,1h-2v1h-1v-1h1v-1v1h-1v-1h1v-1l-1,1v-1h1v-1h-1v1h-1h1v-1l1,-1v-1h1v1l-1,1h1l-1,1h1l-1,1ZM794,723v-1h1l2,-2v-2l1,-1v2h1l1,-1l-1,1h-1l-1,1v2h-2v1h1h-1ZM615,872h1v1ZM629,898v1h-2v-2h1v1l1,-1ZM286,50h1h-2v1v-1h2v-1v1ZM326,87l-1,1v-2h1ZM264,92h-1v1v-1h-1v-1h1v1ZM269,77v-1ZM276,85h2l1,-1v1h-4v1ZM283,87l1,-1v1h-1v1ZM275,77v-1h1ZM269,77v1h-1ZM272,74h-1h1v-1ZM280,69h-1h2ZM518,274l1,-1h1l1,1l2,1h1l-3,-1h-2ZM730,56h-1ZM728,55h-1l-1,-1l1,1h1l1,1h1h-1v-1ZM573,155h1h-2v-1ZM494,158h-1l-1,-1h2ZM491,152v1ZM563,157h-1v-1ZM568,180h-1v-1h1ZM576,179v1h1h-1v1h1h-1v-1h-1v-1ZM434,80l-1,1ZM431,80v1v-1h1v1h-1ZM430,80h1h-1v1ZM532,53h-1ZM457,58h1ZM473,69l-1,1v-1ZM470,132h1l1,-1h1v1h-2ZM439,135l1,-1l1,1h-1v1h-1ZM422,137v-2h1v1l-1,1v1h-1v-1ZM598,140l1,1h-1v-1h-1ZM649,143l1,1h1v1l-1,-1h-1v-1h-1ZM421,80l-1,-1v-1l1,1ZM538,175l-1,1v-1v1v-1h1l1,-1v1ZM419,127h1ZM421,128h1ZM451,91v1h-1v-1l1,-1ZM445,97l1,-1h1l-1,1ZM439,112l1,-1v1ZM599,122l1,1v1l2,1l-2,-1v-1h-1v-2ZM505,73h-1ZM507,73l-1,-1v1h-1v-1h2Z"/>
<path class="sb" d="M895,208l-1,-2l-2,-2v-2h-1v-1l-3,-3v-1h-1v-1l-1,-1v-1h-1l-2,-2v-1h-1v-1l-1,-1v-1h-1v-1h-1v-2h-1v-1h-1v-1h-1v-1l-1,-1h-1v-2h-1v-1l-1,-1v-1h-1l-1,-1h-1l1,1h-1v1v-1h-1v-1h-1v1l1,1M868,164h1h-1v-1M868,163h1v1h-1v-1h-1v-1v1l1,1h-1h1h-1v-1v1l-1,-1h-1v-1h-1l-1,-1M823,119v-1v1M819,115h-1h1l1,1v1h1l1,1h1v1l-1,-1h-1h1h-1v-1h-1l-1,-1h1v1h1h-1v-1h-2v-1h-1l-1,-1h-1v-1h-1M814,112h1h-1v-1h-1l-2,-2v1v-1h-1h1h-1h1h-1h1v1M834,128l-2,-2h-1v-1h-1v-1l-2,-2h-1l-2,-2h-1v-1v1h1h-1h1h-1v-1v1h1l-1,-1h-1v-1v1l-1,-1v-1h-1l-1,-1h-1v-1h-1v-1h-1v-1h-1l-1,-1h-1l-1,-1v-1h-1v-1h-1l-1,-1h-1v-1h-1v-1h-1l-3,-3h-1v-1h-2v-1h-1l-1,-1v-1h-1l-1,-1h-1M845,138h-1v-1l-1,-1h-1v-1v1h1v1h1v1v-1h-1v-1h-1v-1h-1v-1h-1v-1h-1v-1h-1l-1,-1v-1h-1l-3,-3M833,127h-1v-1M856,148v1l-1,-1v-1h-1l-5,-5v-1h-1l-2,-2h-1v-1l-1,-1v1v-1h-1v-1M566,485h-3v4l1,1h1l-1,1h-1v2l1,1h-1l-1,1v1h1v2M556,473v1l-1,1h-1l-1,-1h-1l-1,-1h-2l-1,-1h-2v1l-3,-1h-1l-2,-1h-1v1h-1M559,438h-3v1h-2l-1,1h-4v1h-2l-2,-2l-1,1v1l-1,1v2h-1l-2,2h-1v1h-1v1l-2,-1l-1,-1v1h-1l-1,2h-4v1l1,2v1h-2v2h-1l-2,1M507,443h1l1,1h1v1h2v1h1v1h2v1l2,-1h1l1,1h2v4M516,408h-2v2l-3,3l-1,-1h-1v2M446,344l-1,1h-1l-2,-1h-1l-2,-1h-2l-1,-1h-2v-1h-2l-1,-1v-1l-1,-2v-1l-1,-1v-1l-1,-1l1,-1v-1l-5,-5v-1l-1,-1v-2l-1,-2l-1,-1v-1l-5,-5v-1h-9l-1,1l-1,2v1l-1,1h-1v1h-3l-1,-1l-2,-1h-1v-1l-1,-1h-1v-1h-1l-1,-2v-2l-1,-3v-1l-2,-2l-2,-1l-2,-2l-1,-2h-1l-1,-1v-1l-1,-1h-12v1h-1v2h-15l-2,-1h-3l-6,-2l-3,-2l-6,-2l-3,-2l-3,-1l-3,-2h1l1,-1h-17M595,197h-3l-3,3v1h-1l-4,4v2h-12l-1,1h-1v1h1v3h1l-1,1h-1l-1,1l-4,2h-1l-3,1h-3l-2,1l-1,1l-2,1l-1,1h-4l-2,-2v-2h1v-1h1l1,-1v-1l1,-2v-2l1,-1v-1l-1,-2v-3l-1,-1v-1l-1,-1v-3l-1,-1v-1h-1l-1,-1h-2l-1,-1l-2,-1l1,-1l-1,-1h-1l-1,1l-1,-1v-2l-1,-1l-1,1h-1l-2,-2v-1h-1l-1,-1l-2,-1h-1l-1,-1h-1l-1,-1h-2l-1,-1h-2l-1,-1l-2,-1l-1,-1h-2l-1,-1h-3l-1,1h-1l-1,1h-5v-1h-5v-1l-1,1h-4l-1,-1h-3v-1h-1v-1h-7l-1,-1h-4v-4h-2v2h-31l-2,-1h-28l-3,-1h-21l-2,-1h-16l-2,-1h-13l-2,-1h-11l-2,-1h-11l-2,-1h-3M365,51l-2,1l-1,1l-8,4l-3,3l-6,3l-3,3l-4,2l-2,2l-2,1l-1,1l-2,1l-2,2l-2,1l-3,3l-4,2l-5,5l-2,1l-3,3l-2,1l1,1h4v1h-1v5l-1,1v1h-1h1l1,-1h3l1,-1h1l1,-1h2l1,-1v1h1v1h-1l-1,1h1v2h-1v1h1v2l-1,1v3l-1,1v2l-1,1h1l-1,1v1l-1,1h1l2,2v1h1v2"/>
<path class="sb" d="M733,799l-3,3v2h-1v2l-2,2v2h-1v1h-1v3l-1,1M763,764l-2,6l-2,2h-1v1h-1v1h-1v1h-2v1h-1v1l-1,1h-4v1h-1v1l-1,-1h-13v-1l2,-2h1v-1h1v-2l1,-1v-1h1v-1h1v-1h1l1,-1v-1l2,-2l-1,-1v-1l-1,-1h-3v-1h-2l-2,-2h-2v-1l-2,-2h-4l-3,-1l-5,-5h-1l-1,-2v-2l-1,-1h-1l-1,-1M680,750l1,2v1l-2,3l-1,3l-2,1l-3,1l-1,1h-2v1l-1,1h-1v3l1,1h-1l-1,1v1l-1,1l1,1v3l-2,2v1l1,1v3h-1l-1,1l-1,-1v1h-1v1l-3,3v2h-1l-4,4v1l-1,1v2h-1l-1,1v4h-1v2h1v1h-1v1h-2v1l-2,2v2h-2v2l-1,1l1,1v1h1v1h-1v3h1l-1,1l1,1v2h-1v2h1v-1l1,1l-1,1v2l-1,1v2h-2v2h-1l-1,1v1l-1,2h-1v4l-1,1v1h-1l-2,2h-1v1h-1v1h-1v3h-1v2l-1,1v1l1,1l-1,1v2h1v1h-1l-1,1h-2v1h-1v2l-1,1v1h-2v3h-1v2h-1l-1,1v2l-1,2v2h-1h1v2l-1,1h-2v2h-1v3h1v1h-1v1l1,1l-1,1h1l-1,1h-1v2h4l-2,2h-4v1h2v1h1v1h-1l-1,1h-1v1l-1,1h1l-1,1h-1v3l-1,1h-1v2h-2l-1,1v1h-1l-1,1v1h1v1l-1,1h-2v2h-2l-1,1h-1v1h-2v1h-1v2l-1,1l1,1v2h2v-1h2v2h-1v2h-1v1h1l1,1h13l1,1h2M749,725l1,-1v-1l-2,-2l-4,-2h-3l-10,3h-2l-3,1h-1l-2,4l-4,4v4l-2,2l-1,3l-1,2v1l-1,1v-1l-1,-1h-6v1h-2l-2,2v1l-1,1v2h-1v-3l-1,-1v-1h-9l-1,-1v-1h-1l-1,1v1l-1,1h-2v1h-1v1l-2,1v1l-1,1h-1l-1,1h-4v-1l1,-1v-1l-1,-1l1,-1l-1,-1v-2l-1,-1l1,-2v-1l-2,-2v-1h-1l1,-1v-1l-1,-1v-3h1l1,-1v-1l-1,-1l2,-2v-1h-1l-3,-3h1v-1l-1,-1v-5h-1v-2l-1,-1v-1M673,657l1,2l1,1v2l1,1l1,2l1,1v2l1,2v1h-1v1h-1v1l-1,4v2h-1l1,1v3h1h-1v1h-1v1l-1,1v1h-1v1h-1v2l1,2v1h-1l-1,2v1l1,3v1h3v1h-1l-1,1v1l-3,3v1h-1l-1,1v1h1v1l-1,1h-1l-1,1v3l-2,2h-3M629,567v1h-2l-1,-1v1h1v1l2,2v4h-1v-1v2l-1,2v2h-1l-1,1l-1,2l-5,5l-2,1h-2l-4,2l-1,1h-1l-2,1h-1l-1,2l-1,1v1l-1,-1v1l-1,1v3h-1v2l-1,1v2l-1,1h-1v2h-1v1h-3v-1l-1,-1v-2h-3l-1,-1h-1l-1,-1v1l-1,1h-2v-1h1l1,-1h-1l-1,-1v-1h2l1,-1v-3h-1v-1M673,601l-2,-2v-1h-1v-1h-1v1h-1l-1,-1v-1l2,-3l1,-2l2,-2v-2h-1l-1,-1h-1l-1,-1h-1l-2,-1h-1l-1,1h-3v-1h-3v1h-1l-1,1h-7l-1,-1v-3l-1,-1h-2v-3h-1v-1l-1,-1h-2v-1h-2v-1h-1v-2l-1,-1v-1h-1v-1h-2v-1h-2v-1h-4l-1,-1h-1l-2,-2h-1l-1,-1h-2v2h-1l-1,-1v1h-1l-1,-1h-3l-1,-1l-1,-2h-1v-1h-2l-1,-1h-2l-3,-3h-1v-1h-1M698,552v-3h-1v-2l-1,-1v-1l-1,-2v-1l-2,-2h-1v-1h-2v-1l3,-2l1,-2v-1l-1,-2h-1l-1,-1v-2l-1,-1v-10l1,-1v-2l1,-1v-1l1,-1l-1,-1v-1h-3l-2,1h-8l-1,1h-2l-1,-2l-1,-1l-1,-2l-2,-2h-3l-1,-1h-2l-2,1h-8l-1,-2l-1,-1h-2v-5l1,-1v-2l-1,-1h-1l-1,-2v-2l-1,-2h-1l-1,-1h-1v1h-2v-1h1v-2l2,-2v-4l1,-3l1,-2v-1l1,-1v-1h1l1,-1l2,-4h1l1,-1h2l1,-1h1"/>
<path class="sb" d="M745,515l-2,-2l-1,-2l-2,-2l1,-1v-1l1,-1v-1l-1,-1v-2h1v-1h3l2,-2v-2h-1v1l-1,-1v-1l-1,-1v-1h1v-2h1l3,-3v-1h1v-1l-1,-2M778,540h-2v-1l-1,-1v-1h-1v-2h-1v-2h-1v-3l-1,-1v-1h-1v1h-1v-2h-1l-1,-1v-1l-1,-2v-4h1v-2h-1v-1h1v-1h1v-1h3v-5M791,536v-1h1v-1l1,-2l1,-1v-3l1,-2v-2l-2,-2l-1,-2v-3h-1l1,-1l-1,-1v-3l2,-2v-1M749,821v-2l1,-2l3,-3h1v-1h-1l-1,-1v-2l-1,-1h-1l-1,-1v-1l-1,-1h-1l-1,-1h-1v-2h-1v-1v1h-1l-1,1h-1l1,-1l-1,-1v-1l-1,-1l-1,-2h-3l-2,2l-1,-1l2,-1v-1h1v-1l1,-1l2,-1l2,-2h1v-1h1l1,-1v-1l2,-2h1v-1h1v-1h2l-1,-1h1l1,-1h1l1,-1v-1h2v-1h1v-1h1v-1l1,1v-1h1l1,-1h1v-1h2v-1h1l1,-1v-2h1v-2l1,-1v-5h-1v-1l-1,1h-2v-1l1,-2h1v-2l2,-3l1,-2v-2h-1v-1h-1l-1,1h-1l-1,1h-2v-6h1l-1,-1l1,-1h-1l1,-1v-3h-1v-1h-3v-1h-1v1h-1l-1,1h-2v-1h-1l-1,1v-1h-4v-1h1v-3l1,-1v-1l1,-1v-6h-1v-2h1v-1h2l-2,-2l1,-1l1,-2l1,-1v-1l1,-1v-2l2,-4h1v-1h-1v-5h-2l-1,-1h-1v-5l1,-2v-1h1h-5l-3,1h-6v-1l1,-2v-4l-2,-2l1,-1h1v-10h-1l-2,-2h-7l-1,-2h-1v-1l-1,1l-2,-1h-1l-1,-1h-1v-2h-1l-1,1v-1h-1l-1,-1h-6l-1,-1v-1h-1l-1,-1h-1v-1l-1,-1h-1v-2l-1,-1v-2l1,-1v-1l-1,-2v-2h1v-4l1,-1h-1v-1h-1v1h-6l-1,1h-1l-2,1l-3,2v1h-2v1l-2,1l-1,1h-3v1l-3,3h-3v-1h-9l-1,1h-3l-1,-1v1v-10h1v-3h-1v1h-1v1h-1v1h-1l-2,2h-7v-1l-1,-1v-1l-1,-1h-7l1,-2l2,-1v-1l-1,-1h-1v-1l-1,-1v-1h-1v-1h-1v-2h-1v-1h-1v-1h1v-1h-1l-1,-1v-2h1l1,-1v-1h-1v-1l1,-1v-1l2,-1l1,-1h1l1,-1v-3h-1l1,-1v-1l2,-2v-5h2l3,-3h1l2,-2h3l1,-1h3l1,-1h1v-1h1l1,-1h2l1,1h1l1,1l1,-1v-2l1,-3v-3l1,-3v-3l1,-3v-2l1,-3v-3l1,-1v-1h-1v-2l-1,-1v-3h-2v-1l-1,-1h-1v-7h3l1,-1v1v-1h3v1h1v-2l-1,-1v-1h-5v-5l1,-1h13l-1,-1v-1l1,-1v1l1,1h2v-1l2,-2h1l1,1v1l1,1v5h1l1,-1l4,4h3l2,-2h2v2l5,-5h2v-1l1,-1h2v-1h1v-2l1,-1v-1h2l1,-1h1l1,-1v-2h-6l1,-1v-1l-1,-1v-1l-1,-2v-3l-4,-4v-1l-1,-1h1l1,1h4v1h4v1l1,-1h1l3,3l1,-1v-3h1l1,-1h3l4,-2l1,-1h1v-1h2l1,-1v-1h1v-1h1v-3h-1l1,-1v1h1l1,-1h2v1h1v3l-1,1v1h2l1,1v2l1,1v1h1h-1v2h-1l-1,1l1,1v1l-1,1v8h1l1,2l-1,1v1h1v1h1l1,1v1h1v1h2l1,1h1l1,-1h1v-1l1,-1v-1l1,1h2v-1h1v-1h2v-1l1,-1h1v-1h1l1,1h2l1,-1v1v-1h1l1,1h2l1,-1v-1h-1v-2h-1l1,-1v-1h1l1,1l2,-1h1l1,-1h2v1h1l1,1h1v1h3l1,-1v-1h5v1h2v-1l2,-2v-2l1,-2v-1h1v-2l1,-1v-1l1,-2v-1h1v-2h1v-1"/>
<path class="sb" d="M938,279l-1,-2l-1,-1l-1,-2v-1l-1,-1v-2l-1,-1v-2l-1,-2v-4l-1,-1h1v-1h-1v-3l-2,-2v-3l-1,-1v-2h-1v-1l-1,-1v-1h-1v-2l-1,-1v-1l-1,-1v-2h1h-1v-1l-1,-1v-1l-2,-2v-1l-2,-2v-1l-2,-1v-1l-2,-2v-2l-3,-3v-1h-1l-1,-1v-1M946,338v-1l1,-1h2v-1h1v-3l-1,-1v-4l-1,-1v-1l-1,-1v-3l-1,-2v-1l-1,-1v-5l-1,-1v-6h-1v-2l-1,-1v-2l-1,-1v-1l-1,-1v-4h-1v-3l-1,-1v-3h1v1v-1l1,1v-2l-1,-1h1v-2h-1v-1l-1,-1v-1l1,1l1,2M947,343v-3l-1,-2h1l1,-1h1l1,-1h1l1,-1h1l1,-1v-1l-1,-1v-2l-1,-1v-1l-1,-2l-1,-1v-2h-1v-8l-1,-1v-1l-1,-1v-1l-1,-2v-1l-1,-1v-1l-1,-1v-1l-1,-1v-1l-1,-1v-1l-1,-1v-1l-1,-2v-1h1l1,-1h1v-1h1v-1h1l-2,-2v-2l-1,-2l-1,-1l-1,-2v-1v1h1v1l1,1h1v1l1,1h1v1l4,4v1h1v1l2,2M973,387v1v-5l-1,-1v-3l1,1v1l1,1v1v-3h1v-1h1v-1h-1v-1l1,1l3,-3v-1h1l-1,-3v-2l-1,-2v-1l-1,-1l-1,-2v-2l-1,-2v-2l-3,-6v-2l-2,-4v-2l-3,-6v-2l-4,-8v-2l-5,-10v-2l-7,-14l-1,-1l1,-1v-1h1l1,1v1l1,1l1,2l2,2l1,2l2,2v2l2,2l1,2v1l1,1l1,2v1l1,2l1,1v2h1v2l1,1v1M983,372v-3l-1,-1v-1M962,383l-1,-2v-4h1v-1h1v-1h1v-1l2,2v1l1,1v-1v1v-1l1,1v1l1,1v2h1v1h1v2l1,1v1h1v2l1,1v2l1,1v3l1,1v2h1v1l1,1v2l1,2v2M966,402h2v-1h1v-2h1v1h1v1h1v-1h1v2l-1,1l-1,-1h-1v-1v2h-1v2h-1v1h-1v1M968,413h1v-1h1v-1h1v-2l1,-1h1l1,-1M975,423v-1l-1,-3v-1h1v-2h1v-3l-1,-1v-3l-1,-1v-1h2v1v-1l1,1h1v-1h1v2h1v1v-2l1,1v1v-3h1v1v-4h1v2l1,2v2l1,1v4h1v2l1,1v3h1v1M990,417v-1l-1,-1v-5l-1,-2v-3l-1,-1v-7l-1,-1v-5h-1v-1l1,1v-2l-1,-2v-4l-1,-2v-1l1,1h-1v-5l-1,-1v-2l1,1v2l1,1v4l1,1v2l1,2v2l1,1M981,437v-2h1v-3l-1,-1v-2h1v-1l1,-1h1v2l1,2v3h1v7h1v-2M987,454v-15l1,-1v3h1v6h1v1v-4l1,1M995,471h-1v-11l-1,-2v-3h-1v-1h-1l1,-2v-1l-1,-1v-10h-1v-7l-1,-1v-4h-1v-8h1v1v-3l-1,-1v-1l1,1v-1h-1v-1h1v4h1v-1h-1v-1h1v2h1v2l1,1v-1h1v1v-1M997,459v-8l-1,-2v-7l-1,-1v-9h-1v-5l-1,-1v-5l-1,-1v-5h-1v-4l-1,-2v-1v1v-1h1v-4M997,442l-1,-1v-7l-1,-2v-5l-1,-1v-5l-1,-1v-5l-1,-1v-5l-1,-1v-4M992,412v-2l-1,-3v-4h-1v-3M665,28h1M667,29h2l1,1h2l1,1h1l1,1h2l1,1l2,1h2l1,1h1l1,1h2l1,1h1l2,1h1l1,1h1l1,1h1l1,1h2v1l3,1h1l2,1l1,1l2,1h2l1,1h1l1,1h1l2,2h2l2,1l1,1h1l1,1h1l1,1l2,1h1l1,1l2,1h1l1,1h1l1,1h1l1,1l2,1h1v1h2v1h2v1h1l1,1h1l1,1h1l1,1h1l1,1"/>
<path class="sg" d="M 257.0455 936.2105 A 249.7500 34.2700, 0, 0 0, 741.9545 936.2105"/>
<path class="sg" d="M 68.3060 751.6349 A 432.5797 59.3574, 0, 0 0, 930.6940 751.6349"/>
<path class="sg" d="M 0.0000 499.5000 A 499.5000 68.5400, 0, 0 0, 999.0000 499.5000"/>
<path class="sg" d="M 68.3060 247.3651 A 432.5797 59.3574, 0, 1 0, 930.6940 247.3651"/>
<path class="sg" d="M 257.0455 62.7895 A 249.7500 34.2700, 0, 1 0, 741.9545 62.7895"/>
<path class="sg" d="M 0.2203 514.3349 A 494.7711 499.5000, 88.29809662, 0 1, 998.7797 484.6651"/>
<path class="sg" d="M 385.0253 985.7055 A 427.4757 499.5000, 13.24872060, 0 1, 613.9747 13.2945"/>
<path class="sg" d="M 460.4203 997.4689 A 245.6386 499.5000, 4.48727688, 0 1, 538.5797 1.5311"/>
<path class="sg" d="M 499.7794 998.9999 A 2.0172 499.5000, -0.03205366, 0 0, 499.2206 0.0001"/>
<path class="sg" d="M 539.3179 997.4104 A 249.1325 499.5000, -4.57221929, 0 0, 459.6821 1.5896"/>
<path class="sg" d="M 616.0335 985.2162 A 429.4929 499.5000, -13.49145186, 0 0, 382.9665 13.7838"/>
<text x="0" y="0" class="fs" transform="translate(70,577) rotate(84)">150W</text>
<text x="0" y="0" class="ft" transform="translate(70,577) rotate(84)">150W</text>
<text x="0" y="0" class="fs" transform="translate(252,602) rotate(85)">120W</text>
<text x="0" y="0" class="ft" transform="translate(252,602) rotate(85)">120W</text>
<text x="0" y="0" class="fs" transform="translate(502,611) rotate(90)">90W</text>
<text x="0" y="0" class="ft" transform="translate(502,611) rotate(90)">90W</text>
<text x="0" y="0" class="fs" transform="translate(750,602) rotate(94)">60W</text>
<text x="0" y="0" class="ft" transform="translate(750,602) rotate(94)">60W</text>
<text x="0" y="0" class="fs" transform="translate(931,577) rotate(95)">30W</text>
<text x="0" y="0" class="ft" transform="translate(931,577) rotate(95)">30W</text>
<text x="0" y="0" class="fs" transform="translate(877,773) rotate(-16)">30S</text>
<text x="0" y="0" class="ft" transform="translate(877,773) rotate(-16)">30S</text>
<text x="0" y="0" class="fs" transform="translate(933,529) rotate(-14)">0N</text>
<text x="0" y="0" class="ft" transform="translate(933,529) rotate(-14)">0N</text>
<text x="0" y="0" class="fs" transform="translate(873,278) rotate(-16)">30N</text>
<text x="0" y="0" class="ft" transform="translate(873,278) rotate(-16)">30N</text>
<text x="0" y="0" class="fs" transform="translate(713,86) rotate(-16)">60N</text>
<text x="0" y="0" class="ft" transform="translate(713,86) rotate(-16)">60N</text>
<path class="tb" d="M127,998h-2l-1,-1h-2l-1,-1h-2l-1,-1h-2v-1h-3v-1h-2l-1,-1h-2v-1h-2l-1,-1h-2v-1h-2v-1h-2l-1,-1h-2v-1h-2v-1h-2v-1h-2v-1h-2v-1h-2v-1h-2v-1h-2v-1h-2v-1h-1l-1,-1h-1v-1h-2v-1h-2v-1h-1v-1h-2v-1h-1l-1,-1h-1v-1h-2v-1h-1v-1h-2v-1h-1v-1h-1l-1,-1h-1v-1h-1v-1h-1l-1,-1h-1v-1h-1v-1h-1v-1h-2v-1h-1v-1h-1v-1h-1v-1h-1l-2,-2h-1v-1h-1v-1h-1v-1h-1v-1h-1v-1h-1v-1h-1v-1h-1v-1h-1v-1h-1v-1h-1v-1h-1v-1h-1v-2h-1v-1h-1v-1h-1v-1h-1v-1l-1,-1v-1h-1v-1h-1v-1l-1,-1v-1h-1v-1l-1,-1v-1h-1v-1l-1,-1v-1h-1v-2h-1v-2h-1v-1l-1,-1v-1l-1,-1v-1l-1,-1v-2h-1v-2h-1v-3h-1v-2h-1v-4h-1v-3h-1v-5h-1v-6l-1,-1v-17h1v-7h1v-4l1,-1v-3h1v-3h1v-3h1v-2l1,-1v-2h1v-2h1v-2h1v-2h1v-2h1v-2h1v-2h1v-1h1v-2h1v-1h1v-2h1v-1h1v-1l1,-1v-1h1v-1h1v-1l1,-1v-1h1v-1h1v-1h1v-1h1v-1h1v-1h1v-2h1v-1h1v-1h1v-1h1v-1h1l3,-3h1v-1h1v-1h1v-1h1v-1h1v-1h1v-1h1l1,-1h1v-1h1v-1h1v-1h1l1,-1h1v-1h1v-1h2v-1h1v-1h1v-1h2v-1h1v-1h2v-1h1v-1h2v-1h1l1,-1h1v-1h2v-1h1l1,-1h1v-1h2v-1h2v-1h2v-1h1l1,-1h1l1,-1h1l1,-1h1l1,-1h1l1,-1h2v-1h2v-1h2v-1h2l1,-1h2v-1h2v-1h2l1,-1h2v-1h3v-1h2l1,-1h2v-1h3v-1h3v-1h159v1h3v1h3v1h2l1,1h2v1h3v1h2l1,1h2v1h2v1h2l1,1h2v1h2v1h2v1h2l1,1h1l1,1h1l1,1h1l1,1h1l1,1h1v1h2v1h2v1h2v1h1l1,1h1v1h2v1h1l1,1h1v1h2v1h1v1h2v1h1v1h2v1h1v1h1v1h2v1h1v1h1l1,1h1v1h1v1h1v1h1l1,1h1v1h1v1h1v1h1v1h1v1h1v1h1l3,3h1v1h1v1h1v1h1v1h1v2h1v1h1v1h1v1h1v1h1v1h1v1l1,1v1h1v1h1v1l1,1v1h1v1h1v2h1v1h1v2h1v1h1v2h1v2h1v2h1v2h1v2h1v2h1v2l1,1v2h1v3h1v3h1v3l1,1v4h1v7h1v17l-1,1v6h-1v5h-1v3h-1v4h-1v2h-1v3h-1v2h-1v2l-1,1v1l-1,1v1l-1,1v1h-1v2h-1v2h-1v1l-1,1v1h-1v1l-1,1v1h-1v1l-1,1v1h-1v1h-1v1l-1,1v1h-1v1h-1v1h-1v1h-1v2h-1v1h-1v1h-1v1h-1v1h-1v1h-1v1h-1v1h-1v1h-1v1h-1v1h-1v1h-1v1h-1l-2,2h-1v1h-1v1h-1v1h-1v1h-2v1h-1v1h-1v1h-1l-1,1h-1v1h-1v1h-1l-1,1h-1v1h-1v1h-2v1h-1v1h-2v1h-1l-1,1h-1v1h-2v1h-1v1h-2v1h-2v1h-1l-1,1h-1v1h-2v1h-2v1h-2v1h-2v1h-2v1h-2v1h-2v1h-2v1h-2l-1,1h-2v1h-2v1h-2l-1,1h-2v1h-2l-1,1h-2v1h-3v1h-2l-1,1h-2l-1,1h-2l-1,1h-2Z"/>
<path class="tl" d="M169,986h1v1h-3l-1,-1h2v-1ZM114,989h-3l-1,-1h2l1,1ZM176,983h1l1,1v1h1l-1,1h-2l-1,1h-1l-1,-1l1,-1v-2h1v-1ZM124,980h2v1h-1ZM122,980l1,1h-1l-1,-1ZM136,977h1h-2ZM156,974v1l1,1h-5v-1l1,-1v-1l-1,-1l1,-1v1h1l1,1ZM158,964v1h-2v2h1l-2,2v1h1l1,1h1l4,4v1l1,1v1h-1v2h-1l-1,1h-1v1h-2l1,1h1v1h-2l1,1h1v1h3l1,1h3l1,1h3l1,1h1l1,1v-1h1v-1h2l2,-1l1,1h1v-1h4v-1h3l1,-1h-1v-1h-4l-1,-1l1,-1h1l2,-2h4l1,-1h1l2,-2h-1v-1h1v-1h2v-1l1,-1h1v1h1v-1h8v-1h3v-1h1l1,1h2v-1h1v1l1,-1h4v1h6v-1h3v-1h2v1h3l1,-1h3v-1h2l1,-1h2l1,-1h4v1h1v1h1l1,1h1l1,-1l1,1h2v1l-2,2h-1v1h1h-1v1h-1v1h2l2,-2h1v-1h3l1,-1h1v-1h2l1,-1h5v-1h1v1h5v1h1l1,-1l1,1l1,-1h1l2,-1v1l1,1h3l1,-1h2v1h1v1h4l1,-1v1h9l1,-1l-1,1v1h-1h3l1,1h2l-1,1v1h1v1h2v1h1v2h2l1,1v1h-1l-1,1h-2l-1,1h-3l-1,1h-2l-1,1h-2l-2,2v1h-5l-1,1h-2v1h-1v3h2l-11,4h-155l-11,-4h-1h2l1,-1l1,1h14l-1,-1h-7v-1h-2v-1h-3l-1,-1h4v-1h-2l-1,-1h-7l-1,-1l-2,-1l1,1l1,-1l2,1v-1h1v-1l-1,-1h-1h2v-1h2v-1h4l1,-1h5l1,-1l1,1v-1h1l1,1h1v-1l1,1h6v-1h-2l-1,-1h-1l-1,-1h4l1,1h1l1,-1h3l-1,-1h1l1,1l1,-1l1,1h3v-1l1,1h4v-1h2l1,-1v-1h-1v-1h-1v-1h-1v-1h-1v-2l-1,-1v-1h1v-2h1v-1h1v-1h1l1,-1l1,1ZM144,951l2,1h1v1h-1v-1v1h-4l-2,-2l-2,-1l2,1h2v-2h1v1ZM151,947h1v1h-2v1l-1,-1l1,-1ZM269,946h-1v-2h1l1,1ZM345,939v1h1l1,-1v1l-3,3v-1l-1,1h-1l1,-1v-1l1,-1v-1ZM368,943v1l1,-1v1h-1l-3,3h-1l-1,1h-1l-2,2h-2v1h-1v-1h-1v-1l4,-2h1l1,-1h2l2,-2h1l2,-2ZM376,936l-1,2l1,-1l-1,1l1,1h1l-2,2h-1l-2,2l-2,1h-1l2,-1v-2l1,-1l2,-1v-1l1,-1v-3l1,-1v1l1,1ZM382,913l-1,1v-2l-1,-1v-1h1v1l1,1ZM397,906v1l-1,1h-1v-1l1,-1v1ZM398,906h-1v-1h1l1,-1v1ZM10,905v-1ZM386,904v-1ZM386,901v2h-1v-1ZM259,895v2l1,1h-1v1v-1v2h-1v3l-3,6v2h-1l-1,1l-1,-1h-1v-5h1v-2l1,-1h-1v-3h1v-1h1l2,-2h1v-1l1,-1v-1l1,-1v1ZM361,898v1h1v1h1l-1,1v2h1l-1,2v1l2,2v4h1l-1,2l1,1v3l-1,1v2l-3,3v1l-1,1l-1,2h-1l-1,2h-1l-4,4v1h-2l-1,1h-1l-1,1v-1h-1l1,-1h-1l-1,1h-1v-1h-1v-3h1l-1,-1v-1l1,-1l-1,1h-1l3,-3l-2,1h-1l-1,2v-4l-2,-2h-2l-1,1h-4l-2,2h-4l-1,1v-1l-1,1h-2v-1h-1l1,-1v-1h1v-3l1,-1v-7l1,1v-3l1,-1v-1l1,-1l-1,1l2,-2h1l1,-1h2l1,-1h2v-1h1l1,-1v-2l1,-1v2l1,-1v-1h1v-1l2,-2h2v1h2v-2h1l1,-1v-1h2v-1h-1h1l1,1h3l1,1h-1v1h-1v1l-1,1v1l2,2v1h1l1,1h1v-1l1,-1v-1l1,-1v-3l1,-1v-2h1v-1v3l1,1Z"/>
<path class="tl" d="M383,894h-1v-1v1ZM337,892l-2,-1h2ZM381,893h-1v-1h1ZM382,892v-1l-1,-1h1ZM341,892h-1l3,-3h2l-1,1h-1l-1,1ZM335,889h1v1h-3l1,-1ZM340,889v1h-3v-1h2ZM381,890v1l-2,-2h1v1ZM378,889v-1h-1v-1l1,1ZM325,887h2v-1l2,1v1h2l1,1l-1,1l-1,-1h-4l-1,-1h-1l-2,-1h-1l1,-2h1l1,1ZM353,886v1v-2ZM377,888h-1v-2l-1,-1h1v2h1ZM373,885l-1,1h-1l-1,1l-1,-1h-1l1,-1l1,1v-1h2v-2h1v1ZM345,882h-1v-1h1ZM349,881v2l-1,-1h-2v-1h2ZM374,884l-1,-1v-1l-1,-1h-1h2v2h1ZM353,878v3l2,1v-2l2,-1h1l1,1h1l1,1l4,2v1h1v1l2,1v1h-1v1l1,1v2h1v1h1h-1l1,1l-1,1v-1h-2l-1,-1v-3h-3l-1,1v1h-2l-2,-2v1h-2l1,-2h1l-1,-2v-1l-2,-1h-1l-1,-2l-1,1l-1,-1h1l-1,-1l1,-1h-1v-1h-1l-1,-1h2v-1ZM343,875l-1,1h-4v1l1,2v-1h2l-1,1h-1l1,2v1l1,2v1h-1v-2l-1,1v-1l-1,-1l1,-1h-1v4h-1v-3h-1v-1l1,-1v-4h1v-1h4l1,-1ZM347,875v1h-1v1l1,1h-1v-4h1ZM321,885h-1l-2,-2v-1l-2,-2l-1,-2v-2l-1,-1v-1l-4,-4v-1h2l3,3l1,2h1l2,2h1l-1,2h1v1l1,1h1v3ZM335,874l1,1h-1v3l-1,1v1l-1,3v-1l-1,1l-1,-1h-1v-1l-1,1l-1,-1h-1l-2,-4v-2l1,-1h2v-2h2v-1l1,-1v-1h1l1,-1v-2h1v1l2,2v1h-1l-1,2l1,1ZM344,864v3l-1,-1v2l-2,-2h1l-1,-1v1l-1,-1l-1,1v-1l1,-1h2v-1h1v-1l1,1ZM294,868h-1v-1l-1,-2l1,-2l1,1v1l1,1v1ZM137,863h-1l1,-1h1ZM341,861v1l-1,1l-1,-1l1,-1v-1v1l1,-1ZM335,863l-1,1v-1l1,-1v-1l1,-1v1l-1,1ZM338,859h2v1l-1,1v-1h-1ZM342,858l1,2h-1v1v-1h-1v-1h1h-1v-1ZM338,857l-1,1l-1,-1h1ZM336,849h1v6h1l2,1v2l-1,-1v-1v1l-1,-1h-2v-1h1h-1l-1,-1v-5ZM133,851v1h-1v-1ZM121,852h-1v-1h2v1ZM126,849h3v1h1v1h-2l-1,1v-1h-1v-2h-1ZM324,849l-1,1h-1v-2l1,-1h1v1ZM37,846v-2h1v2ZM38,844h-1v-1h1ZM119,845h2l1,1v1h1v1h2l-1,1h-3v-1h-1v-2h-2l-1,-1h-1h1h-2l-1,1h-1l2,-2h3ZM122,843h-1v-1l1,-1v1ZM334,843v1l-2,-2v-2l1,-1l1,1ZM122,839l-1,1v-1ZM123,839v1v-1h-1ZM340,825h1v1h-1v1h-1v-2ZM240,828l-2,2v-1h-1h2ZM229,828v1h-1ZM220,825v2h-1l-1,-1h-1v-1h2ZM214,821v3h-1v-3ZM344,820v1l1,1v1l-1,1h-1l-1,2l-1,-1v-1l-2,1l-1,1h-1l2,1v3l-1,-1v-1h-1l-1,-1l1,-1v-3h3v-3l1,1v-2h1l-2,-4v-1l3,3v1ZM214,820v1l-1,-1v-1l1,-1ZM340,810l1,-1l1,2h-1v2l-2,-1l1,2h-1l-1,-2l-1,-1h1l-1,-2l-1,-1l3,1ZM144,812l1,1h1h-2ZM147,809h-1l-1,-1h1ZM92,806h-1l-1,-1v-2h-1v-1h1l1,1v1l1,1ZM153,807l-1,1h1v1h2l-1,1h1v1l-1,2l-1,-1l1,-1l-2,1v-1h-3l1,-1h-1l4,-4h1Z"/>
<path class="tl" d="M90,797h1l-2,2v1v-3ZM332,800l3,3l-2,-1l1,2l2,2v1l-2,-2l-1,-2l-6,-6v-1h-1h1l3,3ZM198,806l-1,1h-2l1,-2v-1l2,-2h1v3ZM216,801l-1,2l-1,-1v-1h1ZM79,791h-1v-1h2ZM202,797l-1,2h2v1l-1,1h1l2,4h1v1l-1,1h1l-1,1h-3l-1,1h-2l2,-2h-1v-1h1l-1,-1v-1h2l-1,-1h-1v-2l-1,-1l1,-2v-1l1,1ZM75,786h-1v-1h1ZM141,790l-1,1v-1ZM139,790h-2l1,-1h1ZM78,780v1h1h-2v-1ZM139,786h1v1h1l-1,1h1l-1,1l-1,-1h-1l-2,1l1,-1h-1h1l1,-1l1,-2ZM193,787v1l1,1l-1,1h-3l-1,1l-1,-1h-2l1,-1h-1h1v-1h-2l1,-1h1l1,1l2,-1h2ZM147,784h-1l1,-1h2l-1,1ZM81,776v1l1,-1h2l-1,2h-3l-1,1h-1l-1,-1h1v-1h-1h1h-2l-1,1l8,-5v1l-1,2ZM135,780l-1,1v-1h-1l1,-1h1ZM322,771h-1ZM88,771h-1h2ZM139,780l-1,2l2,-1v1h-1v1l1,-1l2,-1l1,-1h2v2h-1v1l-1,1l-2,1h-1v-1l-1,1l-2,1v1h-3l-2,2h-1l-1,1l-2,1l-1,1l-1,2h1l-1,1v1h1l3,3l2,1h1l-2,2v2l1,1h1l2,-4h-1l4,-2v-1l1,-1v-1l-1,-1l2,-1l2,-4l1,1h1l1,-1v1l1,1h1v2l-1,1l1,1h2l1,-2h1v3l1,1l-1,1l1,1v1h1l1,1v1l1,1l-2,2h-2l-2,2h-1l-2,-1h-2l-2,1l-1,1l-2,1l-1,1l2,-1l3,-1h2l-1,1l-1,2v1l1,1l2,-1l1,-1v1h1l-4,2h-1l-2,1v-1l2,-1h-3v1h-1l-1,1h-1l-2,2l1,1v-1v1h-3l-1,1l2,-1v1h-2l-2,2v1l-1,1l-1,-1l1,-1l-1,1v4l-1,1h-1l-1,1h-1l-3,3h-1v8l-1,1h-1v-3l-1,-1l1,-1l-1,-2l-1,1l-1,-1h-4v1h-1l-1,-1l-1,1l-1,-1l-2,2h-2v1h-1v3l-1,1v1l-1,2v4l1,1v1h1v1l1,-1h3v-1l1,-1v-1l1,-1h3v1l-1,1v2l-1,1v-1v2l-1,1v1h5v1h1v1l-1,1v3l-1,1h1v2h1v1h2l1,-1h1v1h1l1,1l1,-1v-2l1,-1h2l2,-2v2h-1h1v1l-1,1v1h1v-3h1v-1h1v1h1v1h3l1,1l1,-1h1l1,1h1v1l1,1h1v1h1v1l1,1l2,1v-1h1l1,1h1l1,1v1h1v1l1,2v1l-1,1l1,1h2v1v-1l4,2v1h1l3,1h1l2,1l2,2h2v5l-1,1l-1,2l-2,2v9l-1,2v2h-1v1h-2l-1,1h-1l-3,3v5l-1,2l-2,2v2l-2,2v-1l-1,1l-1,-1h-1v-1v1l1,1v1l1,1v2l-2,1h-3l1,1v2l-1,1l-1,-1h-1l1,2h2l-2,2l1,1v1h-1l-1,1v1l2,1h1v1l-1,1v2h-1v1l2,2h-1l-1,1v1h-1l-2,-1l-3,-3l-1,-3v-1l1,-1h-2l1,-2l-1,-2h1v-2l-1,-1v2l-1,-2v-4l-1,-1l-1,-2h1v-6l-1,-2v-8l-1,-2v-6l-1,-2l-1,-1l-2,-1l-3,-2l-1,-1v-1l-1,-2l-1,-3l-2,-3l-2,-2v-1l-1,-2l2,-2v-1h-1v-3l1,-1v-1h1v-2h1l1,-1v-5l-1,-1v-2h-1v1h-1v1h-1l-1,-1h-2v-2h-1v-1v1h-1v-3l-2,-2h1h-2v-1h-2l-1,-1l-1,-2h-1l-1,-1v1h-2l-1,-1h-2l-2,-2h-1l-1,-1v-1h-1v-3h1l-1,-1v-3l-1,-1v-1l-1,-1v-3h-1v-5l-1,-1l-1,1v4h1l-1,1h1v5h1v2h-1v-1l-1,-1v-3l-1,-1v1v-1h-1v-1h1v-9h-1v-1h-1v-9l2,-2v-1l1,-2l2,-2l1,-2l1,-1v-1h1v1l2,-2h-1v-2l-1,-1v-1l1,-1l-1,-1l1,-1v-1l1,-1l-1,-1l1,-1v-1l1,-1l-1,-1h-1v-2h-1v-1h-1l-1,-1h-1l-1,1h-4l1,-1l2,-1h-1l-1,1l-2,1h-1l-1,1l-2,1h-2l-2,1h-1l-1,1h-3l-1,1h-2l1,-1h2l2,-1h2l2,-1h1l2,-1l1,-1h-3l1,-1l-1,1h-1l2,-2h-1v-1l2,-2l2,-1h3l1,-1h1l1,-1h-3v-2h4l1,1l1,-1v-3h4l1,-1h2l2,-1l1,1l1,-1h1l-1,1h1l1,1h2l1,1h2v1l1,1l1,-1h6l1,-1v2l2,-1l-1,1h2l1,1h2v1l-2,1h4v1l2,-2h2v1h1l1,1h2v-1h1l1,1l-1,1l1,-1h1l1,-1v-2l1,-1l2,-1l1,1l-2,2Z"/>
<path class="tl" d="M128,774l-1,1h4l-1,1h1l2,-2v1l-1,2v1l1,1h-2v1h-8v-1h-1v-1h4l-1,-1h-3l2,-1h-1l1,-1h1ZM135,774l-2,1v-1h1ZM152,776v1l-1,-1l-1,1v-2h2ZM146,776v1l1,-1l2,-1v2h3l1,1l-1,1l2,-1v1l1,1v2h-1l2,2v1h1v1l-2,1h-1l-1,-2l-1,1v1l1,1v2l-1,1l-2,-2v1l1,1h-2l-2,-2v-1l-1,-1v1h-3v-1l1,-1h3l1,-1l2,-1v-1l-1,-1h-1l1,-1l-1,-1h-5l-1,-1h-1l1,-1h-1l1,-1l2,-1l1,-1h2ZM138,774h2l-1,1h-1l1,1l-2,1h-2v-2l1,1v-1ZM298,772h-2v-1ZM141,776l-2,1v-1l2,-2h2l1,1l-2,1ZM122,776h-2l-1,-1h1l2,-1l2,-2h2v1h2v1h-1l-3,1h-2ZM299,769v1h-3v-1h1ZM143,773v1l-1,-1h-1l1,-1h1l1,1ZM295,769l1,1h-2l-1,1l-2,-1l-1,-1h2ZM143,771h-1v1l-1,1h-2l1,-1h-1l1,-1h2ZM136,771h1v1h-4l-2,1h-1l1,-1h-1l-1,-1l2,-1h1l2,1l1,1v-2h2ZM246,780h-3l-2,-1v-1l1,-2h-1l1,-1l-1,-1h1l4,-2h2l-1,1l-2,1l-1,1v2l-1,1l1,1ZM145,770l1,1h1l-1,1h1l1,1h4v1h-7l-1,-1l1,-1v-1h-2l1,-1ZM134,769l-2,1h-4l2,-1h3ZM271,770l1,1v-1h2l2,1h1v1l-1,1h1l2,1v-1l1,1l1,-1h2l1,1h3l-2,-1h5l1,1v1h2l2,1l-1,-1h1l1,-1l2,1v-1h1l-2,-1h8l3,1l1,-1h2l2,2h2v-1h3l3,1v-1h-2v-1h7l8,5h-1l1,1l2,1h2v1h-1v1h-1l1,1v2l-2,-1v2l-1,-1v1h-1l2,2v1h1l3,2h-1l1,1h1v1l1,2h-1l1,2l1,1l-4,-2l-4,-3l-1,-2l-1,-1v-3l-1,-2v-1l-2,-2l-1,1l2,2l-3,-1l-1,1l1,2l1,1h-1l-1,1l-1,-1h-1v1h-4v7h1l2,1h1l-1,-1h1l3,1l1,2l1,1l1,2l2,2v9h-1l-1,-1v2h-1v1l1,1v1h-1v1l1,1h1l2,2v1l1,1v1l-1,1h-1l-1,-2l-1,-1h1l-2,-1v-1v1v-1h-1v-1l-1,-1h-2v1h-1l-1,-1l1,-1l-1,-1l-1,1v2h-1v1l2,2h1v-1h2l1,1l-2,1v2l2,2l1,2l2,1v2h1v6l-2,4l-1,1h-1v1l-1,-1v1l-2,1h-1v2l-1,-1v-1h-2l-1,2v2l1,1l1,2l2,2l1,3v4l-2,1v1l-2,1v-2l-1,-1h-1v-1l-2,-2h-1v-1h-1v6h1v3l1,1h1v1h1v1l1,1v3h1v2h-1l-2,-2v-1l-1,-1v-1l-1,-1v-2l-1,-1v-1h-1v-6l-1,-1v-1l-1,-2v-2l-1,-1l-2,2h-1v-3l-1,-2v-1h-1l-2,-2v-1l-1,-1h-1v2l-1,-1v1h-2v2l-2,1l-1,2v1l-2,2h-1v8l-1,1l1,1h-1l-1,1l-1,-1l-1,-2v-1l-1,-1v-1l-1,-2v-1l-3,-6v-3l-2,1h-1l-1,-2v-1l-2,-1l-1,-1v-1l-1,-1l-2,1h-5l-1,-1h-2v-2h-1l-1,1h-2l-3,-3l-1,-2l-1,1v-1l-1,1v2l1,1h1l1,1v2l1,1l-1,-1l1,-1v2h1v1l1,-1h2v-1l1,-1v-1v2l2,2h1l2,2l-1,1v1h-1v3h-1v1h-1v1h-2v1h-1l-2,2h-1l-2,2v-1l-1,1h-2v1h-2v-2l-1,-1v-3h-1v-1l-1,-1v-1l-1,-1h-1v-1l-1,-1v-3h-2v-2l-1,-1v-1l-2,-2v-1v1l-1,1l-1,-1l-1,-2l1,2l1,1l1,2v1l2,2h-1l2,2v1l1,1h-1l1,2v1l1,1l1,2v1l1,1l2,1v1h1v1h1v1l-1,1h1l1,1h3l1,-1h3v-1h1v2l-1,1v3l-1,1l-3,6l-1,1l-2,1l-1,1l-1,2v1h-1v1h-1v2l-1,1l-1,2l1,1v4l1,1v7l-1,1h-1l-3,3h-1v1l-1,1v2h1l-1,1h1v1l-1,1h1l-1,1h-1l-2,2v3l-3,3v1l-2,1v1l-1,1h-2v1l-1,-1v1l-1,-1l-1,1h-2l-1,1l-1,-1h-1v-5l-1,-1v-2l-1,-1v-1l-1,-1v-5l-1,-1v-1l-1,-2v-1l-1,-1v-3l1,-1v-3h1v-1l1,-1v-1h-1v-5l-1,-1v-2l-3,-3l-1,-2l1,-1v-5l-1,-1v-1l-1,1h-2l-1,-1v-1l-1,-1h-2l-1,1h-2l-1,1h-6l-1,1l-4,-4h-1l-1,-1v-1l-1,-1v-1h-1v-1l-1,-1v-1h-1v-3h-1l1,-1v-1h1l-1,-1l1,-1v-4l-1,-1v-1h1v-2l1,-1v-1h1v-2h1l1,-2h1l2,-2v-3l3,-3l1,-2v-1h1l1,1h2l1,-1h2l1,-1h4l1,-1h1v1h1l1,-1h1v1l1,-1v1h-1v1h1v2h-1v1h1v1h3l2,2h1l2,2l1,-1v-2l1,-1h2l1,1h1l1,1h2l1,1h1v-1h2l1,1v-1h1l1,1v-2l1,-1v-5h-2l-1,1l-1,-1h-2v1l-1,-1h-2v-1l-1,-1v-2l1,-1h1v-1h2l1,-1h1l2,-1l2,1l1,1h2l1,-1v-2h-1l-2,-2h-1l-1,-1l1,-1l-1,-1h2l-1,-1v1h-2l-1,1v1h1l-1,1h-1v-1h-1l1,-1h-2v-1h-1v1l-1,1v1h-1v4l1,1h-2v1h-1v-1h-2l1,1h-2v1l1,1h-1h1l1,1v1l-1,-1v1h-1l1,1h-2v-2l-1,-1v-1h-1v-3h-1v-1h-1l-1,-1h-1l-1,-1v-1l-1,-1v1v-1h-2v1l2,2v1l1,1h1l1,1h1l1,1v1l-1,-1h-1v1h1v1h-1v1h-1v-1h1l-1,-1v-1h-1l-1,-1h-1l-2,-2l-1,-2h-2v1h-4l-1,1v2h-2v1l-1,2h1l-1,1v1h-1l-1,1h-2l-1,1l-2,-2v1h-2l1,-1v-1h-1v-2l1,-1v-3l-1,-1l2,-1l1,1h5v-4l-1,-1v-1h-2v-1h3v-2l1,1l2,-1v-1h1l1,-1l1,-2l1,-1h2v-5h2l-1,1h1v1l-1,1v1h1v1l1,-1h2v1h1l2,-2l1,1h1v-1h1v-3l1,-1l1,1v-1l-1,-1v-1h4l1,-1h-4l-1,1l-2,-2v-4l2,-1v-1l-1,-1l-2,2l-1,2l-1,1v3h1v2h-1v2l-1,2h-1v1h-1v-2l-1,-1l-1,-2l-1,-1l-1,2h-1l-2,-1v-5l2,-1l3,-3l2,-3l3,-3h2l1,-2h3l2,1l-1,1h2l1,1h3l3,1l1,1v1l-1,1h-1l-3,-1h-1l2,1v2l1,1h1v-1h-1l1,-1l2,1v-1l1,-2h1l1,1v-1l-1,-1v-1l-1,-1l2,1h1l-1,1l1,1h1v-1l1,-1l2,-1h1v1l1,-1h1l1,-1l1,1l1,-1h-2l1,-1h2l1,1l4,1v-1h-2v-1h-1l-1,-1v-3h2l1,1v1h1l1,1l1,2h1v3l1,1v-1h1l-1,-1l1,-1h-1l-2,-2v-1l-2,-1l1,-1l-1,-1h1l1,2l-1,-1l1,-1h2l1,1l-1,-1l-1,-2h4l-2,-1v-1h1l1,-1h3l1,-1h1v-2l2,1h-1ZM253,820l1,1v2h-1v1l1,1h1l1,1h3l-1,-1v-2h-1v-2h1v-1l-1,-1h-1l1,1l-1,-1v-1h-2v-2h-1h1v-2l1,1v-3h-2l-1,1h-1v1h-1l-1,2l2,1v1l1,1Z"/>
<path class="tl" d="M146,770h-1v-1h1l1,1ZM137,769h-2l1,-1h1l1,1ZM220,771l-1,1h-1v-1h-1l2,-1v1ZM139,768h-2l1,-1v1ZM146,769h-1v-1h1l1,1ZM144,769h-1l-1,-1h-1h1v-1h1l1,1ZM268,768l-3,1v-2ZM215,769l3,1h-2v3h-1l-2,-1h1l-1,-1l-2,-1v-1l1,-1l1,1h1v-1h1ZM220,768h1l-1,1h-4l-1,-1h3ZM234,767l-1,1h-1v-1h-1h4ZM264,768h-4l-2,-1l-1,-1h1l1,-1l4,2ZM153,767v1h-1l-2,1h-2v-1h1h-1v-1l1,-1h2v-1h1v1h1ZM167,764h3v1h-3l-1,1h-1l-1,1l-2,1h-3v1h-1v1h-2l-2,1h1l-2,1h-4l-1,-1h2v-1h2v-1h-1h1l1,-1h1l-1,-1h4l-1,-1h-3v-1l1,-1h6v-1h3v1l2,-1l1,1ZM190,764l3,1h-6v1h5l-1,1l2,-1h4v1l-2,1h-1l-2,2v2l1,1h-2l1,1l-1,1v1h-1l1,1h-3l1,1v1l-1,-1l-1,1h1l1,1v1h-2l-1,-1v1l-1,1h3l-4,2h-3l-1,1l-4,2h-1l-2,1h-1v1l-2,2v1l-1,1l-1,2h-1l-1,-1h-1l-1,-1v-2l-1,-1v-1l1,-1l-1,-2l1,-1l1,-2h1l1,-1v-1l-1,1h-1v-1l1,-1h1l-1,-1h-1l1,-1v-4l-1,-1h-5v-1l-1,-1h1l-1,-1l1,-1h2l3,-1h1l-2,-1h1l3,-1h1v-1h9l1,1l-1,-1h1l2,-1h3l2,-1Z"/>
<path class="th" d="M107,856h-1v1h-2v-3h2v-2h-1h1v-1h2v2h-1v1h1v1h-1Z"/>
<path class="tg" d="M66,970h1l1,-1h4v-1h5v-1h5v-1h6v-1h6l1,-1h7v-1h8v-1h9l1,-1h11v-1h14v-1h20v-1h79v1h20v1h14v1h11l1,1h9v1h8v1h7l1,1h6v1h6v1h5v1h5v1h4l1,1h1M21,927h6v-1h7v-1h8v-1h10v-1h10v-1h12v-1h14v-1h18v-1h23v-1h38v-1h75v1h38v1h23v1h18v1h14v1h12v1h10v1h10v1h8v1h7v1h6M5,877h399M21,826h4v1h7v1h8v1h9v1h10v1h11v1h14v1h16v1h21v1h32v1h103v-1h32v-1h21v-1h16v-1h14v-1h11v-1h10v-1h9v-1h8v-1h7v-1h4M66,783v1h5v1h4v1h5l1,1h5v1h6l1,1h6l1,1h7v1h10v1h10v1h13l1,1h17v1h36v1h21v-1h36v-1h17l1,-1h13v-1h10v-1h10v-1h7l1,-1h6l1,-1h6v-1h5l1,-1h5v-1h4v-1h5v-1M140,755h-1v1h-3v1h-2v1h-2v1h-2v1h-2v1h-2l-1,1h-1l-1,1h-1l-1,1h-1v1h-2v1h-2v1h-2v1h-1l-1,1h-1v1h-2v1h-1l-1,1h-1v1h-2v1h-1v1h-2v1h-1v1h-2v1h-1v1h-1l-1,1h-1v1h-1v1h-2v1h-1v1h-1v1h-1v1h-2v1h-1v1h-1v1h-1v1h-1v1h-1v1h-1l-1,1h-1v1h-1v1h-1v1h-1v1h-1v1h-1v1h-1v1h-1v1h-1v1l-1,1v1h-1v1h-1v1h-1v1h-1v1h-1v1l-1,1v1h-1v1h-1v1h-1v2h-1v1h-1v2h-1v1h-1v2h-1v1h-1v2h-1v2h-1v1h-1v2h-1v2h-1v2h-1v2h-1v2l-1,1v2h-1v2l-1,1v2h-1v3h-1v4h-1v4h-1v5h-1v9h-1v13l1,1v8h1v5h1v4h1v4h1v3h1v3h1v2h1v3h1v2h1v2h1v2h1v2h1v2h1v2h1v1l1,1v1h1v2h1v1h1v2h1v1h1v1h1v2h1v1h1v1l1,1v1h1v1h1v1h1v1l2,2v1h1v1h1v1h1v1h1v1h1v1h1v1h1v1h1v1h1v1h1v1h1v1h1v1h1v1h2v1h1v1h1v1h1v1h1v1h1l1,1h1v1h1v1h1v1h2v1h1v1h1l1,1h1v1h1v1h2v1h1v1h2v1h1l1,1h1v1h2v1h1v1h2v1h2v1h1l1,1h1v1h2v1h2v1h2v1h2v1h2v1h2v1h2v1h2l1,1h2v1h2v1h2M153,755h-1v1h-2v1h-2v1h-1v1h-2v1h-2v1h-1v1h-2v1h-1v1h-2v1h-1v1h-2v1h-1v1h-1v1h-2v1h-1v1h-1l-1,1h-1v1h-1v1h-1v1h-1v1h-1l-1,1h-1v1h-1v1h-1v1h-1v1h-1v1h-1v1h-1v1h-1v1h-1v1h-1v1h-1v1h-1v1h-1v1h-1v1h-1v1h-1v1h-1v1l-2,2v1h-1v1h-1v1h-1v1l-1,1v1h-1v1h-1v2h-1v1h-1v1l-1,1v1h-1v2h-1v1h-1v2h-1v1h-1v2h-1v2h-1v2h-1v2h-1v2h-1v2h-1v2h-1v3h-1v2h-1v3h-1v3h-1v3h-1v3h-1v4l-1,1v4h-1v6l-1,1v30h1v6h1v5h1v4h1v3h1v3l1,1v2l1,1v2h1v3h1v2h1v2h1v2h1v2l1,1v1h1v2h1v2h1v2h1v2h1v1h1v2h1v1h1v2h1v1h1v2h1v1h1v1h1v2h1v1h1v1h1v1l1,1v1h1v1h1v1h1v1h1v1h1v1h1v1l3,3v1h1l3,3h1v1h1v1h1v1h1v1h1v1h1v1h1v1h1l1,1h1v1h1v1h1v1h1l1,1h1v1h1v1h1l1,1h1v1h1v1h2v1h1v1h2v1h1v1h2v1h2v1h1v1h2v1h1l1,1h1v1h2M166,755h-1v1h-1v1h-1l-1,1h-1v1h-1v1h-1v1h-1v1h-1v1h-1l-2,2h-1v1h-1v1h-1v1h-1v1h-1v1h-1v1h-1v1h-1v1h-1v1l-2,2v1h-1v1h-1v1h-1v1h-1v1l-1,1v1h-1v1h-1v1h-1v2h-1v1h-1v1l-1,1v1h-1v1h-1v2h-1v1h-1v2h-1v2h-1v1h-1v2h-1v2h-1v2h-1v1l-1,1v1l-1,1v1l-1,1v2h-1v2h-1v2h-1v3h-1v2h-1v3h-1v3h-1v3h-1v3h-1v4h-1v4h-1v5h-1v6h-1v8h-1v30h1v7l1,1v5h1v5h1v4h1v4h1v3h1v3h1v3h1v3h1v3h1v2h1v2h1v2l1,1v2h1v2h1v2h1v2h1v1h1v2h1v2h1v2h1v1h1v2h1v1h1v2h1v1l1,1v1h1v1h1v2h1v1h1v1h1v1l1,1v1h1v1h1v1h1v1l1,1v1h1v1h1v1h1v1h1v1h1v1h1v1h1v1h1v1h1v1h1v1h1v1h1v1h1v1h1v1h1l2,2h1v1h1v1h1v1h1v1h2v1h1"/>
<path class="tg" d="M179,755h-1v1h-1v2h-1v1h-1v1h-1v1h-1v2h-1v1h-1v1l-1,1v1h-1v1l-1,1v1h-1v1l-1,1v1h-1v2h-1v1l-1,1v1h-1v2h-1v2h-1v2h-1v2h-1v2h-1v2h-1v2h-1v2h-1v2l-1,1v2h-1v2l-1,1v2h-1v3h-1v3h-1v3h-1v3h-1v4h-1v4h-1v4h-1v4h-1v5l-1,1v5h-1v8h-1v11h-1v29l1,1v10l1,1v7h1v6h1v5h1v4l1,1v4h1v3l1,1v3h1v3h1v3h1v3h1v3h1v3h1v2h1v3h1v2h1v2h1v2l1,1v2h1v2h1v1l1,1v1l1,1v1h1v2h1v2h1v1l1,1v1h1v2h1v1h1v2h1v1h1v2h1v1h1v1l1,1v1h1v1h1v1h1v2h1v1h1v1h1M192,755h-1v3h-1v2h-1v3h-1v3h-1v3h-1v3h-1v3h-1v3l-1,1v3h-1v4h-1v4h-1v4l-1,1v4h-1v5h-1v6h-1v6l-1,1v7h-1v8h-1v11l-1,1v18h-1v29l1,1v18h1v11h1v8l1,1v7h1v6h1v6h1v5h1v5h1v4h1v4h1v4h1v4h1v3h1v3l1,1v3h1v2l1,1v2h1v3h1v3h1v2h1M205,755v243M217,755h1v3h1v2h1v3h1v3h1v3h1v3h1v3h1v3l1,1v3h1v4h1v4h1v4l1,1v4h1v5h1v6h1v6l1,1v7h1v8h1v11l1,1v18h1v29l-1,1v18h-1v11h-1v8l-1,1v7h-1v6h-1v6h-1v5h-1v5h-1v4h-1v4h-1v4h-1v4h-1v3h-1v3l-1,1v3h-1v2l-1,1v2h-1v3h-1v3h-1v2h-1M230,755h1v1h1v2h1v1h1v1h1v1h1v2h1v1h1v1l1,1v1h1v1l1,1v1h1v1l1,1v1h1v2h1v1l1,1v1h1v2h1v2h1v2h1v2h1v2h1v2h1v2h1v2h1v2l1,1v2h1v2l1,1v2h1v3h1v3h1v3h1v3h1v4h1v4h1v4h1v4h1v5l1,1v5h1v8h1v11h1v29l-1,1v10l-1,1v7h-1v6h-1v5h-1v4l-1,1v4h-1v3l-1,1v3h-1v3h-1v3h-1v3h-1v3h-1v3h-1v2h-1v3h-1v2h-1v2h-1v2l-1,1v2h-1v2h-1v1l-1,1v1l-1,1v1h-1v2h-1v2h-1v1l-1,1v1h-1v2h-1v1h-1v2h-1v1h-1v2h-1v1h-1v1l-1,1v1h-1v1h-1v1h-1v2h-1v1h-1v1h-1M243,755h1v1h1v1h1l1,1h1v1h1v1h1v1h1v1h1v1h1l2,2h1v1h1v1h1v1h1v1h1v1h1v1h1v1h1v1h1v1l2,2v1h1v1h1v1h1v1h1v1l1,1v1h1v1h1v1h1v2h1v1h1v1l1,1v1h1v1h1v2h1v1h1v2h1v2h1v1h1v2h1v2h1v2h1v1l1,1v1l1,1v1l1,1v2h1v2h1v2h1v3h1v2h1v3h1v3h1v3h1v3h1v4h1v4h1v5h1v6h1v8h1v30h-1v7l-1,1v5h-1v5h-1v4h-1v4h-1v3h-1v3h-1v3h-1v3h-1v3h-1v2h-1v2h-1v2l-1,1v2h-1v2h-1v2h-1v2h-1v1h-1v2h-1v2h-1v2h-1v1h-1v2h-1v1h-1v2h-1v1l-1,1v1h-1v1h-1v2h-1v1h-1v1h-1v1l-1,1v1h-1v1h-1v1h-1v1l-1,1v1h-1v1h-1v1h-1v1h-1v1h-1v1h-1v1h-1v1h-1v1h-1v1h-1v1h-1v1h-1v1h-1v1h-1v1h-1l-2,2h-1v1h-1v1h-1v1h-1v1h-2v1h-1M256,755h1v1h2v1h2v1h1v1h2v1h2v1h1v1h2v1h1v1h2v1h1v1h2v1h1v1h1v1h2v1h1v1h1l1,1h1v1h1v1h1v1h1v1h1l1,1h1v1h1v1h1v1h1v1h1v1h1v1h1v1h1v1h1v1h1v1h1v1h1v1h1v1h1v1h1v1h1v1h1v1l2,2v1h1v1h1v1h1v1l1,1v1h1v1h1v2h1v1h1v1l1,1v1h1v2h1v1h1v2h1v1h1v2h1v2h1v2h1v2h1v2h1v2h1v2h1v3h1v2h1v3h1v3h1v3h1v3h1v4l1,1v4h1v6l1,1v14l1,1h-1v15h-1v6h-1v5h-1v4h-1v3h-1v3l-1,1v2l-1,1v2h-1v3h-1v2h-1v2h-1v2h-1v2l-1,1v1h-1v2h-1v2h-1v2h-1v2h-1v1h-1v2h-1v1h-1v2h-1v1h-1v2h-1v1h-1v1h-1v2h-1v1h-1v1h-1v1l-1,1v1h-1v1h-1v1h-1v1h-1v1h-1v1h-1v1l-3,3v1h-1l-3,3h-1v1h-1v1h-1v1h-1v1h-1v1h-1v1h-1v1h-1l-1,1h-1v1h-1v1h-1v1h-1l-1,1h-1v1h-1v1h-1l-1,1h-1v1h-1v1h-2v1h-1v1h-2v1h-1v1h-2v1h-2v1h-1v1h-2v1h-1l-1,1h-1v1h-2"/>
<path class="tg" d="M269,755h1v1h3v1h2v1h2v1h2v1h2v1h2l1,1h1l1,1h1l1,1h1v1h2v1h2v1h2v1h1l1,1h1v1h2v1h1l1,1h1v1h2v1h1v1h2v1h1v1h2v1h1v1h1l1,1h1v1h1v1h2v1h1v1h1v1h1v1h2v1h1v1h1v1h1v1h1v1h1v1h1l1,1h1v1h1v1h1v1h1v1h1v1h1v1h1v1h1v1h1v1l1,1v1h1v1h1v1h1v1h1v1h1v1l1,1v1h1v1h1v1h1v2h1v1h1v2h1v1h1v2h1v1h1v2h1v2h1v1h1v2h1v2h1v2h1v2h1v2l1,1v2h1v2l1,1v2h1v3h1v4h1v4h1v5h1v9h1v13l-1,1v8h-1v5h-1v4h-1v4h-1v3h-1v3h-1v2h-1v3h-1v2h-1v2h-1v2h-1v2h-1v2h-1v2h-1v1l-1,1v1h-1v2h-1v1h-1v2h-1v1h-1v1h-1v2h-1v1h-1v1l-1,1v1h-1v1h-1v1h-1v1l-2,2v1h-1v1h-1v1h-1v1h-1v1h-1v1h-1v1h-1v1h-1v1h-1v1h-1v1h-1v1h-1v1h-1v1h-2v1h-1v1h-1v1h-1v1h-1v1h-1l-1,1h-1v1h-1v1h-1v1h-2v1h-1v1h-1l-1,1h-1v1h-1v1h-2v1h-1v1h-2v1h-1l-1,1h-1v1h-2v1h-1v1h-2v1h-2v1h-1l-1,1h-1v1h-2v1h-2v1h-2v1h-2v1h-2v1h-2v1h-2v1h-2l-1,1h-2v1h-2v1h-2"/>
<rect x="93" y="840" width="25" height="27" fill-opacity="0" stroke="#ffffff" stroke-opacity="0.5" stroke-width="5.0"/>
<rect x="95" y="842" width="25" height="27" fill-opacity="0" stroke="#113311" stroke-opacity="0.8" stroke-width="5.0"/>
<rect x="94" y="841" width="25" height="27" fill-opacity="0" stroke="#45a249" stroke-opacity="0.9" stroke-width="5.0"/>
</svg>
