<?xml version="1.0" encoding="UTF-8" standalone="no"?>
<svg xmlns:svg="http://www.w3.org/2000/svg" xmlns="http://www.w3.org/2000/svg" xmlns:xlink="http://www.w3.org/1999/xlink" height="1000" width="1000">
<!-- made with pythonshp (GPL): github.com/sanjayrao77/pythonshp , underlying data may come from naturalearthdata.com -->
<!-- 
COPYRIGHT: THIS SVG FILE IS RELEASED INTO THE PUBLIC DOMAIN
 -->
<!-- 
vars : {
	'cmdline' : 'pythonshp.py publicdomain wiki1 guam locatormap'
	'title' : 'Guam locator'
	'version' : '1.0.5'
}
 -->
<defs>
	<radialGradient id="watergradient" cx="500" cy="500" r="500" fx="500" fy="500" gradientUnits="userSpaceOnUse">
		<stop offset="0%" stop-color="#70add3"/>
		<stop offset="11%" stop-color="#6eaad0"/>
		<stop offset="22%" stop-color="#6ca7cc"/>
		<stop offset="31%" stop-color="#6ba5c9"/>
		<stop offset="41%" stop-color="#69a2c6"/>
		<stop offset="51%" stop-color="#679fc2"/>
		<stop offset="59%" stop-color="#669dbf"/>
		<stop offset="67%" stop-color="#649abc"/>
		<stop offset="75%" stop-color="#6297b9"/>
		<stop offset="81%" stop-color="#6095b6"/>
		<stop offset="87%" stop-color="#5f92b2"/>
		<stop offset="92%" stop-color="#5d8faf"/>
		<stop offset="95%" stop-color="#5b8dac"/>
		<stop offset="98%" stop-color="#598aa8"/>
		<stop offset="100%" stop-color="#5685a2"/>
	</radialGradient>
	<radialGradient id="landgradient" cx="500" cy="500" r="500" fx="500" fy="500" gradientUnits="userSpaceOnUse">
		<stop offset="0%" stop-color="#dddddd"/>
		<stop offset="11%" stop-color="#d7d7d7"/>
		<stop offset="22%" stop-color="#d1d1d1"/>
		<stop offset="31%" stop-color="#cccccc"/>
		<stop offset="41%" stop-color="#c6c6c6"/>
		<stop offset="51%" stop-color="#c0c0c0"/>
		<stop offset="59%" stop-color="#bbbbbb"/>
		<stop offset="67%" stop-color="#b5b5b5"/>
		<stop offset="75%" stop-color="#afafaf"/>
		<stop offset="81%" stop-color="#aaaaaa"/>
		<stop offset="87%" stop-color="#a4a4a4"/>
		<stop offset="92%" stop-color="#9e9e9e"/>
		<stop offset="95%" stop-color="#999999"/>
		<stop offset="98%" stop-color="#939393"/>
		<stop offset="100%" stop-color="#888888"/>
	</radialGradient>
	<radialGradient id="bordergradient" cx="500" cy="500" r="500" fx="500" fy="500" gradientUnits="userSpaceOnUse">
		<stop offset="0%" stop-color="#444444"/>
		<stop offset="11%" stop-color="#3f3f3f"/>
		<stop offset="22%" stop-color="#3a3a3a"/>
		<stop offset="31%" stop-color="#363636"/>
		<stop offset="41%" stop-color="#323232"/>
		<stop offset="51%" stop-color="#2d2d2d"/>
		<stop offset="59%" stop-color="#292929"/>
		<stop offset="67%" stop-color="#242424"/>
		<stop offset="75%" stop-color="#1f1f1f"/>
		<stop offset="81%" stop-color="#1b1b1b"/>
		<stop offset="87%" stop-color="#161616"/>
		<stop offset="92%" stop-color="#121212"/>
		<stop offset="95%" stop-color="#0e0e0e"/>
		<stop offset="98%" stop-color="#090909"/>
		<stop offset="100%" stop-color="#000000"/>
	</radialGradient>
</defs>
<style type="text/css">
<![CDATA[
.c1 {stroke:#45a211;fill-opacity:0}
.c3 {stroke:#45a211;fill-opacity:0;stroke-width:3}
.fs {font:14px sans;stroke:#ffffff;stroke-width:2px;stroke-opacity:0.8;text-anchor:middle}
.ft {font:14px sans;fill:#000000;fill-opacity:1;stroke-opacity:0;text-anchor:middle}
.sb {stroke:url(#bordergradient);fill-opacity:0}
.sg {stroke:#000000;fill-opacity:0.0;stroke-opacity:0.2}
.sh {fill:#45a211;stroke:#000000}
.sl {fill:url(#landgradient);stroke:url(#bordergradient)}
.sp {stroke:url(#landgradient);fill-opacity:0}
.sr {stroke:url(#watergradient);fill-opacity:0}
.sw {fill:url(#watergradient);stroke:url(#watergradient);stroke-opacity:0.8}
.tb {fill:#eeeeee;stroke:black;stroke-width:2}
.tg {stroke:black;stroke-opacity:0.2;fill-opacity:0}
.th {fill:#45a211;stroke:#378100}
.tl {fill:#aaaaaa;stroke:black}
.w1 {stroke:#ffffff;fill-opacity:0;stroke-opacity:0.6}
.w3 {stroke:#ffffff;fill-opacity:0;stroke-opacity:0.6;stroke-width:3}
.zh {fill:#45a211;stroke:#115511}
.zl {fill:#dddddd;stroke:#444444}
]]>
</style>
<circle cx="500.0" cy="500.0" r="500.0" fill="url(#watergradient)"/>
<path class="sl" d="M910,215v-2h-1v-1l-1,-1v-1h-1v-1h-1v-1h-1v-2h-1l-1,-2l-1,-1v-1l-1,-1h-1v-1l-1,-1l-1,-2l-3,-3v-1v1l1,1l-1,-1v-1h-1v-1h-1v-1l1,1v1h1h-1v-1h-1l1,1v-1h-1l-1,-1l1,1v-1h-1v-1h-1v-1l-5,-5v-1l-4,-4v-1h-1l-1,-1v-1l-1,-1h-1l-1,-1l-1,-2l-1,-1v-1l-1,-1h-1v-1h-1v-1l-2,-2h-1l-1,-2l-6,-6v-1h-1l-2,-2l-1,-2h-1l-1,-1v-1l-5,-4v-1l-1,-1l-2,-1l-2,-2v-1v1v-1h-1h1h-1h1h-1h1h-1l-1,-1h1h-1l-3,-3h-1v-1l-2,-1l-1,-2h-1l-3,-3h1h-1h1h-1h1l4,4h1h-1l-3,-3h1v1h1v1h1v1h1v1v-1v1h1v1v-1l-1,-1h-1l-1,-1v-1h-1v-1h-1v-1h-1l-1,-1l1,1l-1,-1h-1v-1h-1v-1l-1,-1h-1v-1h-1v-1h-1l1,1h-1v-1h-1v-1l-1,-1l1,1h-1v-1h-1v-1h-1l1,1h1v1l-1,-1v-1h-1l1,1l-1,-1l-2,-1v-1h-1h1v1h1v1h1h-1l-2,-2h-1v-1l-1,-1h-1v-1h-1h1v1l1,1l-1,-1l1,1h-1v-1v1l-1,-1h-1v-1h-1h1v1h-1v-1h-1v-1h-1l-2,-2v-1v1l1,1l-1,-1h-1v-1h-1v-1h-1l-2,-2h1v1h1h-1v-1h-2v-1l-1,-1h-1v-1v1h1v1l2,1v1h1v1l2,1l1,1l-2,-1l-2,-2v-1h-1v-1v1h1v1l-3,-3h-1h1h-1l-2,-1v-1h-2l-1,-1v-1h-1h1v1h2l1,1l-1,-1h-2v-1h-1v-1h-1h1h-1l2,2h1v1h1v1v-1h-1l-1,-1h-1l-2,-2h-1v-1h-1h1h-2v-1h-1l-2,-2l-2,-1v-1h-1l-1,-2v1l-1,-1l1,1h1v1h1v1l-2,-2h-1v-1h-1l-1,-1h-1h1l1,1h1l2,2h1v1h1l1,1v1v-1v1l-2,-2h-1v-1h-1l-1,-1h-1v-1h-1l-2,-1v-1v1l1,1h1v1h1v1v-1h-2v-1h-1l-1,-2h-2v-1h-2v-1h-2v-1h-1l-2,-1l-1,-1h-2v-1h-1h2h-2v-1h-2l-1,-1h-1v-1l-2,-1l1,1h1v1l-1,-1h-1l-2,-1l-1,-1l-2,-1h-1l-1,-1h-1h1l1,1h1l2,2h2v1l2,1h-2v-1h-1l-2,-1v-1v1l-1,-1h-1h1l1,1h-2v-1v1h2l1,1h1l1,1h1h-1l1,1h-1l-1,-1h-2v-1h-2v-1h-3l-1,-1h-2l-1,-1h-1v-1h-1v-1v1h1l1,1l-1,-1h-1l-1,-1l1,1v1h-2l-1,-1h-1h1h-3v1h-3v-1h-2v-1h-1l1,1h-2v-1h-4v-1h-1v-1v2h-1h1h-2l-1,-1h1h-1v1h1l1,1h1l1,1h1v1h1l2,2h-2l-1,-1l2,2h-1v-1v1h1h-1l1,1h1h-1v1h1v1h-1h1l-1,1h-1v-1h-1l1,-1h-1v-1h-1h1v1h-1v-1h-1l-1,-1h-1v-1h-1l-1,-1v-1h-1l-1,-1v-1h2v-1h-2v-1h-1v-1h-1l1,1l-1,1v-1v2l2,2h-1h1v1h1v1h-1h1v1h2v2h1h-1v1h1v1l1,1h2v1h2l1,1v2h1v1h1h-1v1h1h-1v2h1v3h1v4h-1h1v1h-1l1,1h1v1v-1h-1v1h1v1l-1,1h1v1l-1,-1h-1v2h-1h1h-1v1h-1l-1,-1h1h-1v1l1,1v1h-1l-1,-1h-1l1,1h1v1h-1v1h-1v-1h-1v-1h1v-2l-1,-1v-2l1,-1v1h1v-1v1l2,1l-1,-1h1l-1,-1v-1h-1v-4h1l-1,-1v-1h-1v-2h1h-1v-1h-1l-2,-2l1,-1h-2l-1,-1v-1h-1v-1l-1,-1h-1h1v2l-1,1l-1,-1h-1v-1h-1h1l-1,-1v2h1l2,1v1h-1l-2,-1l-1,-1h-3l-1,-1v2h-1h1v1h-2v-1h-1v-1h-2l-1,-1v-1l-1,-1h-1l-2,-1l-1,-1l-2,-1v-1h-1v-1v1l1,1v1h1l1,1h-1v1h-3v-1h-2l-2,-1h-1l-1,-1h-1v-1l-1,-1h1l1,1h1v1v-1h2v-1h-6v-1h-1l-1,1v-1h-2l-1,-1h-1l-1,-1h1h-1v-1h1h-1l-2,-2v-1h1l-1,-1h1h-1l-1,-1h-1v-1h1h-1v-1h1l1,1h2v-1l-1,-1v-1h2v-1l-1,-1h-1l-2,-1l-1,-1h-1v-1l-1,-1h-1l-1,1v-1v2l1,1h-1l-1,-1h-1h1v1v-1h-3l-1,1h-5l-1,-1h-1l-2,-1h1l-1,-1h-3l-2,-1h-1l1,-1v-2h1v-1l1,-1h2v1h1l2,1h2l1,-1h1l-1,-1h1l1,1l-1,-1h-3l-2,-1h-1l-1,-1h2v1h1l2,1v-1h1l1,1l1,-1h-5l-1,-1h-1v-1h-1v1h-1v-1v1h-2l-1,-1h-1l-2,-1l-6,-1l-2,-1h-3v-1v1v-1l-1,-1h-1l1,-1h3v-1h-1v-1h-1l-1,-1l-1,-2h-1v-1h1v1v-1h1l-1,-1h1l1,1h1l-1,-1h-1h1h-2v-1h1v-1h1v-1h-1l-1,-1h1l2,1h1v1h1v-1h-1h8v1l1,-1v1h2v-1h10v-1h2l1,1h9v1h4l-1,-1h-1l-1,-1h-1v-1h-1h2l1,1l-1,-1h-1l-1,-1h1h-1v-1h-1l-1,-1h-1h1l-1,-1l1,1h1l1,1h1v1h1l1,1h1v1h2v1h1v-1h-2l-1,-1h-1v-1h-1h1v1v-1l1,1h1h-1v-1h-2l-2,-2h-1h1l1,1v-1h-2l-1,-1h-1v-1h-1h1l1,1h2l1,1h1v-1h-2v-1h-1h1l1,1h1l1,1h1v-1h-2l-1,-1h-1h4l1,1h1l-1,-1h2v1h3v1h2v1h1v-1h-2l-2,-1h1l1,1l-1,-1l1,1h1h-1h2l1,1h1l1,1h1l1,1h2l1,1h1l1,1h2l1,1h1l1,1h1l1,1h2l1,1h1l1,1h1l1,1h1l1,1h1l1,1h1l1,1h1l1,1h1l1,1h2l1,1h1l1,1h1l1,1h1l1,1h1l1,1h1l2,2h1l1,1h1l1,1h1l1,1h1l1,1h1l2,2h1l1,1h1l1,1h1l2,2h1l1,1h1l1,1h1l2,2h1l1,1h1l2,2h1l1,1h1l2,2h1l2,2h1l3,3h1l2,2h1l2,2h1l1,1h1l2,2h1l2,2h1l4,4h1l3,3h1l2,2h1l5,5h1l2,2h1l5,5h1l3,3h1l1,1v1l1,1h1l3,3h1l1,1v1l1,1h1l3,3h1v1l3,3h1l1,1v1l1,1h1l12,12h1v1l12,12v1l1,1h1l1,1v1l3,3v1h1l3,3v1l2,2h1v1l3,3v1l2,2v1h1l2,2v1l3,3v1l1,1h1v1l3,3v1l2,2v1l4,4v1l2,2v1l3,3v1l2,2v1l2,2ZM678,33h-1v-1l-2,-1h-1h1l1,1h1Z"/>
<path class="sp" d="M683,35h2l1,1h1l1,1h1l1,1h2l1,1h1l1,1h2l1,1h1l1,1h1l1,1h2l1,1h1l1,1h1l1,1h1l1,1h1l1,1h1l1,1h1l1,1h1l1,1h2l1,1h1l1,1h1l1,1h1l1,1h1l1,1h1l2,2h1l1,1h1l1,1h1l1,1h1l1,1h1l2,2h1l1,1h1l1,1h1l2,2h1l1,1h1l1,1h1l2,2h1l1,1h1l2,2h1l1,1h1l2,2h1l2,2h1l3,3h1l2,2h1l2,2h1l1,1h1l2,2h1l2,2h1l4,4h1l3,3h1l2,2h1l5,5h1l2,2h1l5,5h1l3,3h1l1,1v1l1,1h1l3,3h1l1,1v1l1,1h1l3,3h1v1l3,3h1l1,1v1l1,1h1l12,12h1v1l12,12v1l1,1h1l1,1v1l3,3v1h1l3,3v1l2,2h1v1l3,3v1l2,2v1h1l2,2v1l3,3v1l1,1h1v1l3,3v1l2,2v1l4,4v1l2,2v1l3,3v1l2,2v1l2,2M673,31h2l1,1h1l1,1"/>
<path class="sl" d="M105,194h-1v1l-1,2l-4,4v1l1,-1v1v-1l3,-3h-1h1l2,-2v-1h1v-1h1v1v-1h1l-1,1h1h-1v1h-1v2h-1v3l-1,1v1h-1v2l-1,1v1l-1,1v1l-2,2v2h-1v1h-1v2h-1v1h-1v1h-1v1l-2,2v1h-1v1h-1v1l-1,1v1h-1l-1,2l-1,1v2h-1v1h-1l-1,1v2l-1,1l-1,2l-2,2v1l-1,1v1l-1,1v1l-1,1v2l-1,2l-1,1v1l-4,4l-2,4v1l-1,1v1l-1,2l-1,1v2l-1,1v3l-3,6l-1,1v3h-1v1l-1,2h-2v1l-1,1l-1,2l-1,1v1l-1,1l-1,2v1h-1v-2l1,-1l-1,1v-7l1,-1v-1l1,-1v-1l2,-3v-2h1v-2l-1,1v1h-1v-1l1,-1v-1l1,-1v-1l1,-2l1,-1v-1l1,-1v-2h1l1,-2v-1l1,-2l1,-1v-1l2,-2v-1l1,-1v-1l1,-1v-1l1,-1v-1l2,-2v-1l1,-1v-1l2,-2v-1l2,-2v-1l2,-2v-2l2,-2v-1l2,-2v-1l2,-2v-1l2,-2v-1l3,-3v-1l2,-2v-1l3,-3v-1l2,-2v-1l3,-3v-1l3,-3v-1l3,-3v-1l1,-1ZM45,293l-1,2v1v-1v1v-1h1v-2l1,-1l1,-2l1,-1v-1l1,-1l1,-2v-1l2,-2v-1v1l-1,1l-1,2v1h-1v1l-2,4v1l-2,4v1l-1,2v1l-1,1v5l-1,1v1l-1,1v1l-1,2v3l-1,1v1l-1,1v1l-1,1l-1,2v1l-1,1v1l-1,2l-1,3h-1l1,-1l-1,1v1l-1,1v1l-1,2v1l-1,2v1l-1,1v1h-1v1l-2,5v1h-1v1l-1,1v3l-1,1v1v-1v1l-1,1v1v-1l1,-1v-2l1,-1v-3l1,-1v-2l1,-1v-3l1,-1v-2l1,-1v-2l1,-1v-1l1,-1v-2l1,-1v-2l1,-1v-2l2,-2v-2l1,-1v-2l1,-1v-1l1,-1v-2l1,-1v-1l1,-1v-2l1,-1v-1l1,-1v-1l1,-1v-2l1,-1v-1l1,-1v-2l1,-1v-1Z"/>
<path class="sp" d="M61,260l1,-1v-1l2,-2v-1l1,-1v-1l1,-1v-1l1,-1v-1l2,-2v-1l1,-1v-1l2,-2v-1l2,-2v-1l2,-2v-2l2,-2v-1l2,-2v-1l2,-2v-1l2,-2v-1l3,-3v-1l2,-2v-1l3,-3v-1l2,-2v-1l3,-3v-1l3,-3v-1l3,-3v-1l2,-2M21,357v-1l1,-1v-2l1,-1v-3l1,-1v-2l1,-1v-3l1,-1v-2l1,-1v-2l1,-1v-1l1,-1v-2l1,-1v-2l1,-1v-2l2,-2v-2l1,-1v-2l1,-1v-1l1,-1v-2l1,-1v-1l1,-1v-2l1,-1v-1l1,-1v-1l1,-1v-2l1,-1v-1l1,-1v-2l1,-1v-1l1,-1"/>
<path class="sl" d="M326,31l-2,1h-1v1h-1l-2,1v-1v1h-2l-1,1h-1l-2,1h-1l-1,1h-1l-2,1l-3,1l-1,1l1,-1h1l1,-1h1l1,-1h2l1,-1h1l1,-1h2l1,-1h2l1,-1h2l1,-1h1l1,-1h2l1,-1ZM293,45h1l2,-2h1l1,-1h2l1,-1h2v-1h2l1,-1l-1,1h-1l-1,1h-2v1h-1h1l1,-1h1l1,-1h1l1,-1h2l1,-1h2l1,-1h1l3,-1v-1h3l2,-2h1l-2,1l-1,1h-2l-1,1l-2,1h-3v1h-1l-1,1h-2l-1,1h-1h1l2,-1h2v-1h4l1,-1h1v1v-1h2l1,-1h1v1h-2l-1,1h-2v1v-1v1h-1l2,-1h2l-1,1h1l2,-1h1h-1v1h-2l-1,1h-1h2l1,-1h3l1,-1l2,-1h1l1,-1h2l-1,1h1h-1v1l-1,1h-1l-3,3h-1v1h-1l-1,1h1l4,-2h1h-1h1v-1l2,-1h1l1,-1h-1h1l1,-1h2l1,-1h1l4,-2h1h-1h1l1,-1h3l1,-1h2l2,-1h1l6,-2h3v1l-2,1h-1l-2,1h-1l-2,1h-2l-1,1h-1l-1,1h-1l-1,1l-3,1h-1l-1,1h-1l-2,1l-3,1l-1,1h-1l-1,1h-1l-2,2h-1l-1,1h-2l-1,1h-2v1h-2l-5,2h-2l-1,1h-1v-1h1h-1h1v-1h-1v1h-2v1l1,1h2v-1h4l1,-1h1l2,-1h1l3,-1l1,-1h2v-1h1l1,-1h2v-1h4v1h-1l-1,1h-1l-1,1l-3,1l-2,2h2v-1h-1l4,-2h2v-1h1l2,-1l1,-1v-1h-3l2,-1h1v-1h1l1,-1l3,-1h2l1,-1h1l3,-2h1l1,-1l4,-1h3l1,-1h1l1,-1h2v-1h1v1h-2v1h-3v1h-2l-1,1h-1l-1,1h-2v1h1h-1h1l-1,1l1,1v-1h1h-1l2,-1h-1l2,-2h2v-1h1v1h-1h3v-1l-1,1v-1h4v2h-1l-1,1h2l-1,1h-3l-2,1l-1,1h-2v1h-1l2,-1h1l-1,1h-2l-1,1h-1v1l1,-1h2l1,-1h1l1,-1h1l1,-1h1l2,-1h1v-1h1v-1h1v-1h1h-1l1,-1h1v-1h3v-1h1l1,-1h8v1h1v-1h2v1h-4v1h-1v1v-1h1l1,-1h4l2,-2h-1h3v-1h4v-1h6l2,-1l1,1h1l1,-1l1,1v-1h6l-1,1h5v-1h2v1h-1l-1,1h1v-1h2v-1h4l1,-1h2v-1h4l2,-1h2v1h1h-1l-1,1h-1h1h-1h2v1h-1l-2,1h3v-1h1v1h5v1h-1h1v1h-1h1l1,-1v1l-1,1h-1v1h-1l1,-1h-1v1h-1l-4,2h-4l-2,1h-2l-1,1h-1l-4,1h-4l-1,1h-1l-2,1h-1h2v-1h8l1,-1v1h1l1,-1h1h-1v-1h4l-1,1h4v-1v2h-2l1,1h-1l-1,1h-2v1h1v-1h1l1,-1h1v-1h11l1,1h-2v1h2v1h9l1,-1v-1h4l1,1h2v-1v1h4v1h1v1h-1h1v1h-1l1,1l-1,1h-1l-2,-2v1l1,1v1h1v-1v1h1h-2v1h1v1l1,1h2v1h1l1,-1h1v-1h1h-1h1v-1h1v-1h2v1h1v1h3l1,-1h4l2,1l1,1h1v-1h1h-1v-1h3l1,1h2v-1h-1v-1h-1h1l1,-1h-2l1,-1h4v-1h-1h8l2,1h5v1h-2l-1,-1h-1l-1,1h-1h7l-1,1h-1l1,-1h-2v1h1h-2v1h3v-1l2,-1h7l1,1h-2v1h-1h3v1h2l-1,1v-1h4l1,1h1h-1l2,1h4l1,-1h12l2,1h2l1,1v2l1,1h3l3,3v1h1v-2h-1v-1l1,-1h2l1,-1l1,1v-1h1l2,1h7l1,-1h2l2,2h3l1,1h3l1,-1l-1,-1h-1l-1,-1h-1v-1h-1v-1h7l1,1v-1h9l2,1h6v1h1l3,1h4l1,1h1h-1h3v1h1l-2,-1l2,1h4l6,2h1v1h2v1h2v1h1v1h2l1,1v-1l1,1h1l-1,-1h-2v-1h-1v-1h-1l1,-1v1h2v1l1,-1h-1h1h-1h5l1,1h2l2,1h2v1l1,-1l1,1h-1v1l1,1h-2l-1,-1v1h2v1h-3l-1,-1h-1l1,1h2v1h1v1h1v1h-1h1v1h2l1,1h-1l-1,-1l1,1l-1,1v-1h-1v-1v1h-2l-1,-1h-5l-1,-1h-1l-1,-1h-1l-1,-1h-5l-1,1h-1v-1h-1l-1,-1h-1l-1,-1h1h-1v-1v1h-1l-1,-1v1h-1h1v1l1,1h2v1l1,1v1h-1v1h-1v1h-5l-1,-1h-1h1v1h-3l-1,-1l-1,1h-1l-2,1h1l1,-1h4v1v-1l1,1h1v-1h1l1,1l2,1h1v-1l1,1h1v1h1l2,2h-1h1l1,1v-1l1,1l2,1h1h-1l1,1h1l1,1v2h-1l-4,-1h-3v-1h-1v1h1h-1v1h-1l-3,3h-2v1h-2v2h-1l-1,-1v1h1h-1l1,1h-1v1h-1v1h-1l-2,2h-1h1v3l-1,-1h-1l-2,-2h-8v1h-3l-1,2v1h-1v-3h-2l-2,2h-1l1,1h-2l-1,-1l-1,1h-1v-1h-1v1h-1v2l1,1v1h-1v1l-1,1v1l-1,1v3h2l1,1v-1h3v2l-1,1v1h1v2h2l2,2v2h-2l-1,-1l1,-1v-1v1h-2l1,1h-1l-1,1v2l-1,1l1,1v1l1,1h1v1l1,1h-1v1h-5l-2,2h-1v4h1v2l1,1h-1l-1,-1h-1l-2,1l-1,1h-1v-1h-1v1h1v5l-1,2l-2,2v1l-2,1l-1,1h-1v-1h-1v-1h-1v-3l-2,-3v-1l-1,-1v-1h-1v-1l-2,-4v-2l-2,-3l-2,-4v-9h1l2,-2v-1l1,-1l-1,-1h-1l1,-1h2l1,-1h3v-1l1,-1h1l2,-2l2,-4l1,-1h1l3,-3v-1l2,-2h3v-1h1l-1,-1l1,-1v-1h-1v-2l-1,-1v-1l1,-1h1l-1,-1h-2l-3,1l1,1h-1v1h1v2h1v1h-1v-1h-2l-4,4v1h-2v1h-1v-2h-2v-4h-2l-1,1v-1h-5l-1,1l-1,-1h-1v1h-1l-1,1h-1v1l-2,2v1h-1l-2,2l-2,1v1l-1,1h1v1h-1l1,1l1,-1l2,1h1v1h-3l-1,1h-1l-1,-1h-2v1h-1l-1,1l-1,-1h-2v1h-4l-1,-1l2,-1l1,1l1,-1h1h-2l-2,-2h-2v1h-2l1,-1h-2l-3,-1h-1v1h-1v1h1h-1l-1,1h-1l-2,-1h-1l-1,1h-4l-1,-1h-1v1l-1,1l-1,-1h-1l-1,-1l-4,1l-2,-1h-1l-2,1h-4l-1,1h-1l-2,2l-2,1l-1,1h-1l-1,1l-1,2l-2,1h-1l-1,1h-1l-1,1l-2,1h-1l-5,5h-1l-1,1h-1l-1,1h-1l-2,1l-1,1h-1l-2,1l-1,1l-2,1v1h1l2,1h5v1h-1v2l-1,1l1,1v-1h2l1,-1h-1v-1h2v1h-1h1v1h1h-1v1l-2,1h4l2,-2h1v1h-1l-1,1h2v-1l1,-1v-2h6l2,2v1l2,1l2,2h1v1h-3l2,1v3l1,1v2l-1,1h-1l-1,1v1l-1,1l-1,2l-1,1v4l1,1h-1v3l-1,1v2h-1l1,1l-1,1l-1,2l-2,2h-1l-3,3l-1,2l-3,2v1l-1,1l-2,4l-2,2h-1l-2,2l-2,1l-4,4l-2,1v1h-1l-4,4v1l-2,1l-2,2h-2l-3,2l-1,1l-2,1h-6l-1,-1h-2v-3l-2,1h-1h1l1,-1h-2v1l-2,1l-3,3v-1h-2v1l-1,2h-3v1h-1l-1,1v1h-1l-1,1v1h-1l1,1v1l-1,1v2l-3,1h-1l-2,2h-1l-2,2h-1l-1,1h-3l-2,1v3h-1l-1,1l1,1h2v2h1v1h1l1,1l2,5l2,5v6l-1,1v3l1,-1v1l-2,4l-2,2h-1v1h-2l-1,-1h-1v2h-3v-1h-2l-1,1l1,1h-2v-1h-1v1l1,1h-1v1h-1l-1,-1h1v-1l-2,1l-1,1h-2v1v-1l-2,-2h2v-1h1h-1v-1l-1,-1v-1h1v-1l1,-1h1v-1h-1h1v-1h1l1,-1h-1v-6h-2v-1l1,-1h1l1,-1l2,2l1,-1h-1v-3l-1,-1l1,-1h-1v-1h1h-1l-1,-1h-1v1h-1v-1l-1,-1h-1l-2,2h-1h1l-1,-1h-1v-1h-1l2,-1h-3l1,-1v-1l1,-1h1l2,-1h1v-1h-2v-1l3,-3v-1l-1,-1h-1l-1,-1h-1v1h-1v-2h-1v-1l-2,1h-4l-1,1h-3l-4,2l-2,2h-3v1l-1,1h-2v-1h1l3,-1v-2h1v-1l-2,1l-1,-1v-1h2v-2l2,-1h1l1,-1l2,-1v-1l1,-1h-1v-1l-1,-1v-1l-1,1h-1l-2,-1l-1,1h-1v1h-1l-3,3h-1l-4,2h-1l-2,1l-1,1l-1,2l-1,1h-4l-1,1l-1,-1v-1l-1,1h-1l-3,3v2l2,2l3,1h2l1,2h-1v1l-1,2v2h5v-1h1l2,-1l1,-1l3,-1l2,1l1,1h1l1,1h2l1,-1v1h3v1l-2,2h1v1h-1l-1,1v-1h-4l-4,2h-2v1h-1v1l-1,1h-1l-1,1v-1h-2l1,1v1h-2v1h-1v1h-1l-2,2h-1l-1,2h-1v2h1v1l1,1h1l2,2h1v7l1,2v3h-1v1l1,1l2,1v2l1,1h1v3h-1l-2,-1v-1l-1,1l-2,-2h-1l-1,-1l-3,1h-1l1,1l1,-1h3v2h1l1,1h1v1l3,3v2h-1l-2,1l-1,1l-3,1l-1,1h-3l-1,1h-1h2l1,1h2l2,-1h2l1,3h2l1,1h-2l-2,2h-1h2l1,-1v2l-1,2l-1,-1h-1l-1,1l1,1v1h-1l1,1h-1v1h-1l1,1v2h-3v-1l-2,2v1h-2l1,1l-2,1v1h-1v3h-1l-1,1h-1l-1,2v1l-1,1h-1v-2h-1v1h-1v1h1v3h-1l-1,1h-3v1h3v1l-1,1v3h-1v-1h-2v2h-2l-1,1l1,1h-1l-1,1h-1v2h-5v1h-1l1,1v1l-2,2h-1l-1,1h-1v1l-1,1v-1h-1l-1,1v-1h-1l-1,2h-1v1h-1h1l-1,1h-1v2h-1l-1,-1v1h-1l-2,1h-1v-1h-1v1h-2l-1,-1v1h-2v1h-1v-1h-1v1h-5v-1l-1,-1v-3h-1v1h-1v3h1l-1,2v1l-1,1h-1v1h-1v-2l-1,1v2h-1l-1,-1v1h-1v1l-1,-1v-1h-1v2h-1l-1,-1h-1v1h-2v1h-2l-1,1v-1l-1,1v-1h-1v1h-1l-1,1h-2v-1v1l-2,2v1h1v1h-1v1l1,1v2h-4v-1h1h-1v-4h-1v-1l1,-1v-1l1,-1h1v-1h-1v-1l-1,-1v1l-1,1h-3l1,-1v-1h-2l-1,-1v-1h-1v2l-1,-1v1h-2l-1,1h-2v1h-2v1l-2,2l-1,-1l-1,1v-1h-1v2l-2,2v2l-1,1l-2,1h-1l-1,1l-1,2l-1,1v2l-1,1v1l-1,1l1,1v3l1,1v1h1l1,2v3l-1,-1l1,1l1,3l1,1l1,2v1l2,2v1l1,1v1h2v1l1,1v1v-1v1l1,2v2l1,1v1h1v5l1,1v11l-1,1v1l1,2v3h-1v-1l-1,1l1,2h-1v4h-1v-1v3l-1,1v1l-1,1h-1l-1,1h-1l-2,2h-1l-1,2h-1l-2,1h-1l-1,1h-1v-1h-1v-1l-1,1v1l-1,-1h-1h1v2h-1l-1,-1l1,1h1v1l-1,1v1h-2l-1,-3v1l2,3v1l-1,1l-1,-1l-2,-3h-1l2,3v2l-5,2v1l-1,2h-1l-1,1h-2l1,-1v-8l2,-2v-2h-1v-1h-1l-1,-1v-1l-1,-1l-2,-1h-1l-1,1l-1,-1v-1h1v-4l-1,1v1h-2v-7l-1,-1v1v-3l-1,-1v-1v1h-1l-1,-1v-1l-1,-1v-1h-1v-1h-3l-2,-1l-1,1v-4l1,-1v-3h-2v-1v1h-3l-1,1v2l-1,3v5l-2,2v1l-1,1v2l-1,2l-1,1v2l-2,2v2h-1v10h1l2,-1v1l1,1v6h1v2l1,8v1h-1v-5l-1,1v2l1,2l4,4l1,-1l1,1h1v1l1,3l2,2v1l-1,1v1h-1v1h-1v-1l-1,-1l-1,1h-1v1h-1v-5h-1v-2h-2l-1,-1v-1h-1v2l-2,-3l-1,-1l1,-2l-1,-1v-1l-1,-1v-2h-1v-1h-1v-2l-1,-1v-2l-1,-1h-1v1h-1v-5l2,-4v-2l1,-1v-2l1,-3l-1,1v-1l1,-1v-4l1,-1v-2l1,-1v-3l1,-1v-1l-1,1v-2h1v-3h-1h1v-6l1,-2l-1,-1v-2l-1,-2l1,-1v-1l-1,3v-9h1l-1,-1v-6l1,-3l-1,-2l1,-1v-3h1h-2v-6l-1,-1v-1v1l-1,1v2l-1,1v1l-1,1h-2v-1v2h-2v1l-2,1v1l-2,2h-1v-1l1,-1v-1l-1,2h-2v-2l1,-1h-1v2h-1v-2l1,-1v-1v1h-1l-2,2v-1l1,-3v-1h1v-2l1,-1v-2l1,-1l1,-2v-14l1,-1h-1v2l-1,1l-1,-1v-3l1,1h1l1,-1v-1h-1v-2h-1l1,-1v-1l-1,-1h-1v1l-1,1v-3h1h-1l1,-2l-1,1v1h-1v-1h1v-2l-1,2v-2l-1,-2v-4l1,-3v-6h1v-3l-1,-1v-1l1,-1l-1,1h-1v1h-2v-4l1,-2v-1h-1v3h-1v2h-1v5h-1l-2,2v1h-1v-1l2,-2h-1v1h-1v-1l1,-1v-1l-1,1v1l-1,1v1h-1v1v-2l1,-2h-1v3h-1l-1,1v-2h-1v2h-1v-1v1l-1,1v-1l1,-1v-2h1h-1v-1l-1,3v1h-1v-1l-1,1v-2l1,-1v-1l-2,2v1h-1l-3,1l-2,2v2l-1,2v1l-1,1v1h-1v1l-1,1h-1v1v-1h-1v2h-2l-1,1h-1l1,-1v-1l-2,1v1h1l-4,4v1h-1v1l-2,1l-1,3h-1l-2,2h-1l-1,2l-4,4l-2,1v3h-1v1l-1,1l-2,1l-1,-1l-1,1l-1,2v1l-1,1v-1h-2v1l-2,3l-1,2v5l-1,1v5l-1,1v1v-1v3l-1,5l-3,6l-1,3v2l-1,1h1v1l-2,7h-2v2l-2,3v3l1,1v1v-1h-1l-2,1h-1v1l-1,2v2l-3,3v-1l-1,-2v-1l-1,-4v-7l1,-3v1v-29l1,-4v-4l1,-1v-11h1v-10l2,-6v-3l1,-1v-2l1,-2v-2l1,-2v-2l1,-1v-1l-1,1l1,-1v-2h1l-1,-1h1v-4l1,-2l2,-3v-1l1,-2v-3l1,-1v-1l2,-2h-1v-1l1,-1h-1l1,-2h1l-1,-1h-1h1v1l-2,2v2l-1,1l-1,2v1l-2,1l-1,1h-1v1l-1,-1v-4l1,-3v-7l1,-1v1l1,-1v1l1,-1h1l1,-2l1,-1v-1v1h-2v1h-1v-6l1,-2l1,-1v-1l-1,1v1h-1l1,-1v-2h-1v-2h1v-2l2,-4l-1,-1l1,-2v-1l1,-1v-2l-1,1h1h-3l-1,1v-3h-1v1h-1v-1v1h-1v-1v1v-2l1,-2l1,-1v-1l1,-1l1,-2l1,-1v-1h2l1,-2v-1h1v-3l1,-1l3,-6v-3l1,-1v-2l1,-1l1,-2v-1l1,-1v-1l2,-4l4,-4v-1l1,-1l1,-2v-2l1,-1v-1l1,-1v-1l1,-1v-1l2,-2l1,-2l1,-1v-2l1,-1h1v-1h1v-2l1,-1l1,-2h1v-1l1,-1v-1h1v-1h1v-1l2,-2v-1h1v-1h1v-1h1v-2h1v-1h1v-2l2,-2v-1l1,-1v-1l1,-1v-2h1v-1l1,-1v-3h1v-2h1v-1h1h-1l1,-1h-1v1v-1h-1v1h-1v1l-2,2h-1h1l1,-2l2,-2v-1l2,-1v-1l1,-1v-1h1l1,-1v-1h1v-1l1,-1v-1h1v-1l1,-1v1h-1h1v-1l2,-2v-1v1l-1,1v-1h1l1,-1v-1l4,-4v1v-1v1h-1v1v-1h1v-1h1v-1h1l1,-2l1,-1v-1h1l1,-1l1,-2l-2,2v1h-1l-1,1l1,-1l1,-2h1l1,-1v-1l1,-1h1v-1h1l1,-2h1h-1l2,-2v-1h1v-1h1l1,-1v-1h1l1,-1l1,-2l1,-1h1v-1h1v-1l1,-1l-1,1h1v-1l1,-1h1v-1h1l1,-1v-1v1l2,-2l2,-1l1,-2l1,-1h1v-1h1l1,-1v-1h1v-1v1h-1l1,-1h1v-1h-1v1h-1v1h-1v1v-1v1h-1v1h-1l-1,1v1h-1l7,-7h1l8,-8h1l7,-7h1l6,-6h1l5,-5h1l2,-2h1l2,-2h1l4,-4h1l4,-4h1l2,-2h1l1,-1h1l4,-4h1l3,-3h2l2,-2h1l3,-3h1l1,-1h1l2,-2h1l2,-2h1l1,-1h1l1,-1h1l3,-3h1l1,-1h1l1,-1h1l2,-2h1l2,-2h2l1,-1h1l2,-2h1l1,-1h1l1,-1h1l2,-2h2l1,-1h1l2,-2h1l1,-1h2l2,-2h2l1,-1h1l2,-2h2l1,-1h1l1,-1h1l1,-1h2ZM128,166l-3,3v1l-2,1v1l-3,3v1v-1l-1,1l-1,2l-3,3v-1l7,-7v-1l7,-7Z"/>
<path class="sp" d="M305,40l1,-1h1l1,-1h1l1,-1h2l1,-1h1l1,-1h2l1,-1h2l1,-1h2l1,-1h1l1,-1h2l1,-1M297,43l1,-1h2M153,140l7,-7h1l8,-8h1l7,-7h1l6,-6h1l5,-5h1l2,-2h1l2,-2h1l4,-4h1l4,-4h1l2,-2h1l1,-1h1l4,-4h1l3,-3h2l2,-2h1l3,-3h1l1,-1h1l2,-2h1l2,-2h1l1,-1h1l1,-1h1l3,-3h1l1,-1h1l1,-1h1l2,-2h1l2,-2h2l1,-1h1l2,-2h1l1,-1h1l1,-1h1l2,-2h2l1,-1h1l2,-2h1l1,-1h2l2,-2h2l1,-1h1l2,-2h2l1,-1h1l1,-1h1l1,-1h2M115,181v-1l7,-7v-1l7,-7"/>
<path class="sl" d="M12,390v1v-1v1v-2ZM179,454v3h-1v-3ZM195,471h-1v-1h1ZM200,456h-1ZM213,367l-1,-1h1ZM218,364l-1,1v-1l1,-1ZM217,366h-1h1v-1h1v1ZM214,367h-1v-1ZM681,680v2h1v-1l1,-1v2l1,2v1l-1,1h-3v-1l-1,-1l1,-1l-1,-3v-2h1v1ZM685,690l1,1h1v1h1l-1,1h-2l-1,-1v-2h-1v-2h1ZM692,695h-2v-2l1,1ZM691,691h-2v-1h1l1,-1v1ZM691,701l1,1v1h-2v-1h-1l1,-1ZM689,684h-2l2,-1h1ZM691,688v-3l1,3ZM692,683l-1,1v-4l1,2ZM684,687h-1v-1h1ZM688,675h-2v-1h2ZM687,672v-2l1,1ZM699,721v1h-1v-1ZM697,716l-1,1l-1,-1v-1h1v1ZM696,712l-2,-1v-2h1l1,1v1ZM132,194v-1h1v-1v1ZM133,194v1v-1h1ZM655,509l1,1h-1ZM443,475l-1,1v-1h2ZM616,498h-1v-2h1v1ZM709,502v1v-2h1h-1ZM702,490h-1ZM724,491h1v1v-1ZM720,490l1,1l1,-1v1h-2l-1,-1ZM685,457h-1ZM508,396h-1v-1h1ZM508,416v1h-1v-1ZM504,435v1h-1v-1ZM508,402v-1h1ZM508,427v-1h1h-1ZM507,428v1ZM839,664v-1h1ZM773,90h-1v-1h-1h2ZM775,91h-1v-1v1ZM760,83h-1v-1ZM733,78v1l-1,-1ZM737,81v-1h-1v-1v1h1ZM730,81h-1ZM721,81v1l-1,-1ZM733,111h-1ZM738,112h-1ZM736,111v1v-1h-1ZM695,138h-1v-1ZM654,74h1l1,-1h1v1h3l1,1v-1h2v1h-1v1h-1l-1,-1h-7v-1h-1h1ZM687,87h1l1,1h1v1h1v1h-4l-1,-1h-2v-1h2v-1ZM736,94h1v1h2v1h-1h1v3h1v1l-1,-1h-1v-1h-1v1h1h-1l-1,-1h-1v-1h-1v-1h1l1,1h1h-1l-1,-1v-1h-1l-1,-1h1l1,1v-1h-1h1ZM725,114l2,1h1v1l-1,-1v1h-2v2h-1l-1,-1v-2l1,-1ZM780,95l1,1h1v1l-1,-1h-1ZM785,96l1,1h-2v-1h-1h1ZM777,92l1,1l-1,-1h-1v-1h-1l-1,-1h1l1,1ZM782,94l1,1v1v-1h-1h1v1h1h-1l-1,-1h-1v-1l-2,-1l-1,-1h1l1,1h1v1ZM770,88h1v1h1v1h1l-1,-1h-1h1v1h1v1h1h-1l-1,-1h-1v-1h-2v-1ZM785,98h1v1h1h-2v-1h-1l-1,-1h-1v-1l2,2ZM730,78v1v-1h1v1h-1l-1,-1ZM732,82h-1v-1l-1,-1v-1h-1h1v1l1,1h1ZM728,79l1,1h1h-2ZM725,77v1h-1v-1ZM740,98v1v-1h-1ZM732,91v-1h-1h1ZM735,94h-1ZM742,106v-1ZM741,102h-1v-1ZM741,102v-1ZM732,111h1v1h-1l-1,-1ZM730,114h-1ZM731,117h-1ZM735,112v1v-1h-1v-1h1ZM723,120h-1v1v-1h-1h1ZM723,120l-1,-1h1ZM712,94h-1v-1ZM666,89l1,1l1,-1l1,1h-2l-1,-1h-1ZM692,105h-1ZM715,129h1h-2ZM713,131h-1v-1h1ZM708,134h-1v-1h1ZM696,108h1ZM695,137h-1v-1h1ZM691,139h-2l1,-1v-1l1,1ZM672,139h-1ZM678,142h-1l-2,-1h-1h1l1,1h1ZM648,138h-2l1,-1h1ZM766,87l2,2l2,1h1l2,2h1v1v-1h-2v-1h-1v-1v1l-1,-1h-1h1h-1v-1h-2v-1h-1l1,1h1h-1l-1,-1h-1v-1h-1h1Z"/>
<path class="sl" d="M760,83h1l1,1h1v1h1h-1v-1h-1h1l1,1h1v1h1l2,2h-1l-2,-2h-1l-1,-1l-2,-1l-1,-1h-1v-1v1ZM759,83l2,2v-1h-1h2v1h1h-1h1v1v-1l1,1h-1h1v1h1h-1l-1,-1h-2l-1,-1h-1v-1h-1h1ZM774,91h1v1h1l1,1h2l2,2h-1h2v1h1l2,1v1h1l1,1l-1,-1h-2v-1h-1h1h-1l-1,-1h-1v-1h-2l-2,-2h-1v-1h-2ZM770,89h1v1h1l1,1h1v1h1v1h1h-1h1l-1,-1l-2,-1h-1v-1h-1ZM733,91h2v1h-1h1v1l-1,-1l1,1h-2v-1l-1,-1ZM719,125v3h-1v1v-2h-1v-1h1l-1,-1v-1h2ZM721,122v-1h1v2h1v1h-1v1h-1v1h-1v-1h1v-2h1h-1h1h-1l-1,-1v1v-1h-1v-1h1ZM704,135h1h-2ZM700,136h-1v-1h2v-1h-1v-1l1,1v1h1h-1ZM693,138h1v1h-2v-2h1ZM688,139v1l-2,-2h2ZM677,139h-1l-1,-1h2ZM666,140v-2h1v1ZM641,134l1,1l1,-1l1,1h1h-1v1h-2l-1,-1h-1h1ZM908,366v1l-2,-1v-3l-1,-1l-1,-2v-3l-1,-1h1l1,1l2,1l1,1v1h1l1,1v1l-2,2v1ZM895,349h3v1h-3ZM899,351h2v1h1v1h-1v1h-1v-2h-1l-1,-1v-1ZM892,348h1v1h-1v-1l-1,1h1h-1l-1,-1v-2h1l1,1ZM884,345v1l-1,-1h-1v-2h1l1,1ZM880,346v1v-2l1,1ZM898,353l-1,-1v-1l1,1ZM830,125v1ZM831,127v-1h-1h1ZM833,128l1,1h1v1v-1h-1l-1,-1h-1v-1ZM839,134h1ZM838,133v-1h-1h1ZM837,131v1v-1h-1ZM831,127h1h-1v-1ZM28,581v1l-1,-1v-1v1l1,1v-1h-1v-1h1ZM44,295v-1h1h-1ZM45,294v-1ZM44,296v-1ZM111,187l-1,1l2,-2v-1v1ZM812,700h1Z"/>
<path class="sp" d="M813,700h-1"/>
<path class="sl" d="M338,625l-1,1v-1ZM334,636l-1,-1v-1h1v-2l-1,1h-1v-1l2,-2v-1h2l3,-1h8l1,-1h1l2,1l-1,1l-2,1l-1,1h-1l-1,1h-3v1h-2l-1,1l-3,1l-1,1ZM325,635l1,-1l2,-1v2h-2ZM171,442v1ZM170,439v-1ZM141,472v-2h1l-1,1ZM153,457v1v-2ZM153,458v1l-1,1v-2ZM148,485v-1ZM143,472l-1,-2l1,1ZM142,462v-1ZM145,475v1ZM137,187v-1ZM131,194l-1,1v-1ZM314,358l-1,1v1l-1,1v3h-1v-3h-1v-1l-1,-1v-1l-1,-1v-5h1v-3l6,-7l1,-1v-1l2,-2h2l1,-1h1l1,1h1v1l-1,1v3l-1,2l-2,2v1l-2,4v2l-3,3ZM298,342v1l-1,-1ZM54,441v1v-2ZM53,446v1l-1,-1ZM54,440h1v2l1,2l1,3v6h1v15l-1,1v2l-1,1h-1l-2,2h-1l-1,-1v-1l-1,-2v-4l1,-7v-4l1,-2v-1l1,-2v-2l1,-2v-4h1v1v-1l-1,-1ZM387,263h-2v-1h1v-1h1ZM382,263h-2v-1h2ZM369,265l-1,1v-1l1,-1h1v1ZM376,240v1h-1v-2ZM372,266h-1l1,-1ZM380,264h-1l1,-1ZM373,249v1v-2ZM369,263h-1v-2l1,1ZM405,243h-1l1,-1ZM368,274l-1,1v-2h1l3,-1h1v2h-3ZM627,629v1l-1,-1v-1ZM685,654h-1l-1,-1h1ZM679,646h-2v1h-1v-1h1l1,-1ZM633,657h-1l-1,-1h-1l-1,-1h-1v-1h1l3,2h1ZM642,638v1h-1v-3ZM623,635h-1v-1h1ZM631,633h1v1l1,1h-1v-1h-2ZM611,628h1v2l-1,1v-1h-1v-1l-1,-1h-1l-1,1v-2h1v-1l1,-1l1,1v1ZM615,632h-1l1,-1ZM614,631l-1,1h-1v-2h2ZM608,632h-1l-1,-2h1l1,-1v2h-1ZM602,625h-1v-3l1,1h1v1ZM601,627v-1ZM606,627h-1l-1,-1v-1h2v1ZM595,618l-1,1v-2ZM610,632h-1ZM627,636l2,1h3l2,1h1v1h1v2h-3l-1,-1h-5v-1l-1,-1v-2ZM629,630l-2,-2l-3,-1l-2,-1h-1l-3,-3v-1h1l2,2h2l1,1h1l4,3l-1,1h1ZM609,620v1h-1v-1h-2l-2,-1l-2,-2l-1,-2h-1v-1h2l1,1l2,1l1,1v1l2,2ZM636,627l2,3v1l-1,1h1l2,2v2l1,1v1h-1l-1,-2h-1v-1h-1l-1,-2l-1,-3l1,-1l-1,-1h1ZM643,645h4l1,2v1h-3l-1,-1l-2,-1l-1,-1v-1h-1v-1h1l2,1ZM173,533h-2l1,-1h1ZM2,541v1v-2ZM831,657v1l1,1l-1,1h-2v-1h-1v-1h2ZM835,662h-1l-1,-1h-1v-1h3v1h1ZM510,200h-1ZM462,126l-1,1h-1v-1h1ZM526,104h-1h2ZM440,40l-1,1l-1,-1h1ZM436,23h1ZM433,26h1ZM411,27h1ZM437,19h-1ZM384,29l-1,1v-1ZM390,28v1h-1v-1ZM421,9h-2l1,-1v1ZM421,9h-2l-1,1v-1l-1,1v-1h-1v1h-1l1,-1h-1h5ZM384,21h-10l-1,1h-5v1v-1l-1,1h-1h1h-5v1h-3l-1,1h-1v-1h1h-1h1l2,-1h2l1,-1h4v-1h4v-1h1l-1,1l2,-1h6l1,-1h1l-1,1h1v-1h1v1h4l1,-1h3v1h-3l-1,1h-1ZM356,25h-2v1h-4v1h-3l-1,1h-2v1h-3l-1,1l-2,1h-1l-1,1h-2l1,-1h1v-1h3l1,-1h1l1,-1h-1h2l1,-1h2l1,-1v1v-1h4v-1h3l1,-1h2Z"/>
<path class="sl" d="M442,15v1h-1h1h-2v1h-8l1,-1h4v-1h6ZM437,18h-1h2v1h-3v1h-2l-1,1h-3v-1h-2l1,-1h1l-1,-1h5v-1h1v1l1,-1h1v1l1,-1ZM438,20h-1v1h-1h2v1v-1v1h-1l-2,1h-8v-1h4v-1h3l1,-1h2ZM490,33h2v-1h2l1,1h3l3,1h-1v1h-4l-1,-1h1v-1h-2v1l1,1h1v1h-9v1v-1h-3v-1h-1v-1h1v-1h1v-1h4ZM504,34h4v1h5v1h-8v-1h-2v-1ZM592,47l-1,-1h-1v-1h1v-1l3,2ZM490,130l1,2l-1,1v1l1,2l1,1v5l-1,1v2l1,1v1l1,1l1,6l1,1l1,3v1l1,1v2l3,3v1h-1v-2h-1l-2,-2h-6v2l-2,5l-1,1v2l1,1v1h1v1l1,2v1h2l1,2v1l-1,1v1v-1l-1,-1v-1l-1,-1h-4v1h-1v1l-1,2v1h-1v-2l-1,-2l1,-1v-2l1,-1v-1l-1,-1v-1l1,-1v-1h1v-3l-2,-2v-1l1,-1v-1l1,-1v-10l1,-1v-1l-1,-2l-2,-2h1h-1v-4h1v-1l1,-1v-4h3l1,-1h-1h1v-2l-1,-1v-1h1v-1ZM594,44h3l1,1h1l-1,1h-4l-1,-1h-1l-1,-1h2ZM340,29h-1v1h-1l1,-1h2ZM614,127h1l-3,-1l-1,-1h1l1,1ZM545,49v1h-1v-1ZM552,57h-1v-1h-1v-1h-1l1,-1l1,1h-1l1,1ZM517,32h-1ZM509,30h-1ZM481,48h-2v-1h2ZM438,24h-1l-1,-1h2ZM438,28v1h-1v-1ZM412,27h-1ZM416,25h-1h1l1,-1v1ZM409,23h1ZM362,31h-1h2ZM367,30h1ZM380,30h-1ZM329,39v1v-1h1ZM337,36l1,-1h1h-1ZM308,51h-1l1,-1h1h-1ZM414,10h1ZM413,10v1v-1h1ZM422,9h1ZM416,11h-1ZM417,10h1ZM413,12h1ZM422,10h-1l-1,1v-1h3ZM152,141l1,-1ZM323,34l-1,1v-1l-1,1h-1l1,-1h2v-1h3l-2,1ZM420,11h1ZM414,11h1ZM421,11h-1h1h-1ZM422,11v-1h1v1ZM415,10h1ZM416,11h-1ZM427,9h-1v1h-3l1,-1h-1h3ZM423,9l-1,1h-1h1ZM428,10h1ZM428,9h1ZM429,18v-1h3v1h-2ZM438,15h-1v-1h1v1h1ZM491,39h-2v-1h2ZM494,39h1l1,1h1v1h-8l2,-2h2ZM481,34h-1v-1h1ZM479,39l-1,-1h1l1,1ZM466,126h1v1h-1v1h-1l-1,1v-1l-1,-1l-1,1v-1h1v-1h1v-1ZM572,53h-5v-1h5ZM584,105v1v-1h-1h1v-2l1,-1h2l1,1l-2,1h-1ZM607,125l1,1h-1l-1,-1h-1l-2,-2h-1h2v1h2v1ZM557,161h-1v-2h1v1ZM564,152h-1v-1h1ZM562,155h-2v1h-2v-1l1,-1h2v-2h1v2ZM553,164v1v-1h1ZM559,151h-1h2ZM549,171l-1,1v-1ZM543,177l-1,1h-1v-1h1l1,-1h1v-1ZM530,186h-2l3,-3l2,-1h2l-2,1v1h-1l-1,1ZM523,188l-1,1h-1l-1,1h-1l-1,1v-1l-3,3h-1l-1,1l1,-1h1v-2h1l1,-1h1v-1h1v-1h3l1,-1h2v1ZM512,199h-1l1,-1h1v1ZM509,194h2v1h-3l-1,1v1l-1,1h-1v2l-1,-1v-1l2,-1v-1h1v-1l1,-1ZM430,35h-1v1h-3v-1h3ZM416,15v1h-1h1ZM428,14h-1l1,-1h1v1ZM360,30h-1l1,-1h2l1,-1h1v1h-2l-1,1ZM360,34h-1l1,-1h2v1h-1ZM365,33v-1h2v1ZM388,26l-1,1v-1h2Z"/>
<path class="sl" d="M329,36h-1v-1h1h-1h2v-1h2l1,-1v1h-2v1h-1ZM51,280l-1,1v1l1,-1Z"/>
<path class="sp" d="M50,282l1,-1v-1"/>
<path class="sl" d="M310,392l3,3h4v-1h1l1,1l-1,1v1h-1v6l1,1v1h1v1l-1,1v1l-2,3v1l-2,2h-2l-2,2v1h1l-2,2v4l1,2v6h1v1l2,1h1v-2l1,-1h4l1,1v3l1,1h1v-3l1,1l2,1h1l1,1h-3v2l2,2v1l-1,1h3v2l-1,2l-1,-1v-1l1,-1h-3l-2,-1v-1l-1,-2l-3,-3l-1,-2h-1v4l1,1v1h-1v-1h-1v-1l-3,-3l-2,-1h-2v2h-3l-2,-2h-2v-1l1,-2v-1l2,-1v-2l-1,-1h-1v-1l-1,1l1,2v1h-2v-2h-1v-1h-1v-5l-1,-1v-7l1,-1v1h1v1l1,1h1v-1h1v-1l-1,-1v-2l1,-1l1,-2v-6l2,-4v-2l1,-1h1v-1h2ZM272,478l-1,1v-1l1,-2h1l1,-1v-1l2,-1l1,-1h1l1,-1l1,-2l7,-7h1v-1l1,-1v-1l-1,-1l1,-1l1,-2l1,-1v8l-1,1h-1l-1,1v1h-1l-2,1h-1v2l-2,3l-1,1h-1l-5,5h-1l-1,1ZM314,453l1,1l1,-1h1l1,1h-1v1l2,-1v3l-1,1h-1l-1,1v1h-1l-1,1l-3,1h-1l-1,1l1,-2h-1v-1l1,-1v-2l1,-2v-3h-1v-2h1v1l2,1h1ZM318,476h-1v-1h-1v-2h-1l-1,-1h-1l-1,-2v-1l1,-1v-1h2l1,-1v-4h1v-2h1v-1h4v3l-1,1l-1,2v1l-1,1v1l-1,1v2l1,2v2h-1ZM331,456v1l1,-1h1l1,1v5h1v2l1,1l-1,1h-1v-1h-1v1l1,1v1l-1,-1h-1v-2l-1,-1l1,-2v-2h-3v-5h1v1ZM337,446v2h1v1h1v1l-1,1v4l1,1v2h1v1l-1,-1h-3l-2,-2v-1l-1,-1h1v-1h-1v-2h-1v-1h-1l-1,-1v-1l-1,-1v-2l2,1h5ZM302,436h2v1h2v1l2,2l-1,1v4l-1,1v1h-2v-1h-1v-2h-1v-3l-1,-2h-1v-2h-1v-1h2ZM341,474l1,1h1v5h-1v1h1l1,1v6h1v5l-1,2l-1,1h-1v3l-1,2v-4l-1,-1v-2l-1,-1v-1h-1l-2,2v1l-1,1v2h1v1h1v5l-2,2h-1v-4h-1v1l-1,1h-1l-6,-3l-1,-2v-6l1,-1h1v-2l-2,-2l-2,-1h-1v-1l-1,1v1l-1,2l-1,-1h-1v-2l-1,1v1h-1l-1,-2h-2v1l-2,2v2l-1,1v1h-1l-1,-1v-2h1v-1l1,-3v-1l2,-2h2l1,-1h2v-1l2,-2h2v-1h1l1,1h1v4h-1l1,1l1,-1l2,-1l1,-1v-2h1l2,1v-1l1,-1v-2h1l1,1h1v-1h3v-3l-1,-3l1,-1l3,3h1ZM320,472h-1l1,-1v-3l1,-2l1,-1l3,-6v-1h1v-1v6l-1,1v1h-1v1h-1l-1,1v1l-1,3ZM316,390v1h-1l1,-1v-1l1,1ZM314,386v1h-1v-1ZM318,378v-1h1ZM318,374v1h-1v-1ZM301,501h1l1,1l-1,1l-1,-1h-3l1,-1h1ZM270,483l-1,1v-2h1ZM293,462h-1v-1l1,-1l1,1ZM296,447h1v1h1l-1,1h-2v-1l-1,-1v-1h1ZM295,451l-1,1v-3h1v1ZM315,463h-1v-1l1,-1l1,1ZM330,470h-1l-1,1h-3l-1,-1v-2h2v-1h1l1,-1v1h1l1,1v1ZM293,508h-2v1h-1v-1h1l1,-1h1ZM308,498h-1v-1l-1,-1h1l1,-1l2,1v1l-1,1ZM342,470h-1v-1l1,-1v2h1ZM339,469l-1,-1v-1h-1h1v-2l1,-1v4ZM298,434l-1,-1h1ZM311,436h1l1,1h-1l1,1l-1,1h-1v-1h-1v-1ZM312,447l-1,2l-1,-1l1,-1h-1v-1h1v-2h1v1ZM316,447l-1,-1h-1l1,-1l1,1Z"/>
<path class="sl" d="M321,443l1,1l-2,-2v-1h-1v-1h1l1,2ZM325,446v1l-1,-2v-1l1,1ZM324,448l2,1l1,2v1h-1l-1,-1h-1v-1l-1,-1v-1h-1l-1,2l-1,1v-2l1,-2v-2h1v1h1v1ZM330,436v1h-1l-1,-1l1,-1v-2l1,-1v2h1v2ZM313,432l-1,-1v-1ZM313,424v3h-1v-4h1ZM328,463v-1h1ZM336,468v1l-2,-2h1ZM315,490h1h-1v1h-1v-1ZM338,495v-2ZM331,455h-1l-1,-2h1l1,1ZM331,475v1l-1,-1ZM311,388v1ZM294,453l-1,1h-1v-1h1ZM324,456v1ZM341,472v-1ZM333,454v1v-1h-1v-1h1ZM272,480l-1,1v-1ZM322,474v1h-1v-1ZM571,599l-1,1v-1l-2,-2v-1h1v-1l-1,-1v-2l-4,-4h-2v-1h-1l-2,-2h-1v-1l-3,-1l-1,-1h-1v-2l1,1l2,1v1h1l1,1h1l1,1h1l2,1l3,3l5,4l1,2v2l-1,1ZM562,595l2,-1v1h2v5l-1,1h-2l-1,1l2,2l-2,2h-4v1l-3,3h-3v1h-2l-1,1h-7l-1,-1h-4l-2,-2h-2l-1,-1h-1v-2h13l1,-1v-2l1,-1v-1l1,1l-1,1v2l1,1h1l1,-1h1l1,1h1v-1h1l1,-1v-1l1,-1l2,-1h2l1,-1v-2l-1,-2v-2h2v1ZM467,636v-19l-1,-1v-1l1,-1v-33h2l4,2l1,1h2l4,2l4,1h2l2,1h1l2,1v1h1l1,1h4v1h1l1,1h1v1l1,1h1l1,1h2l4,4v3l-1,2l1,1h3l7,3l1,1h4v1h1l1,1v1l1,2l-1,1h-6l-1,1v1l2,4l4,4h1l1,1l2,1v2l1,1v1l1,1h1v2l1,1h1l3,-1l2,2l-1,1v2h5l1,1h1l-1,1h-1v1l1,1h1l1,1h3l1,1h1h-3l2,2l-1,1h-3l-1,-1h-1l-2,-2l-1,1l-2,-1h-4l-1,-1h-7l-1,-1h-1l-2,-2v-1l-1,-1l-2,-1h-1l-1,-1v-1l1,-1h-3v-1l-1,-2l-2,-2v-1l-2,-2l-2,-1h-2l-1,-1h-3l-1,-1h-1v-1h-3v-1l-1,1h-1v1h-3l-2,-2h-1h1l2,4h-4l1,1v1h-3l-2,1h-1l-1,-1h-2l-1,1l-1,-1v-1h-1v1h1v1h4l2,1h1v1l1,1h1v2l-1,1h-2l-2,1l-1,1h-1l-1,-1h-11ZM528,609v-1h-1l-1,-1v-1h1l1,1h1l-1,1ZM511,599h-1v-1h1ZM568,585v1v-1h-1l1,-1ZM564,584h-1l-1,-1h1ZM543,572l-2,-1l1,-1l1,1ZM554,644l1,-1h1l-1,2l-2,-1l-1,-1v-1l-1,-1h1v1l2,1ZM548,639v1l-2,-2v-1h2v1ZM554,633l1,1l-1,-1v-3h1v2ZM581,654v1h-2v-1h1ZM490,631h-2l-1,-1h3ZM521,605h-1l-1,-1l1,-1l1,1ZM520,575l3,1h-1v1h-6v1h-1v-1h1v-1h1l1,-1ZM549,581h-3v-1h-1l1,-1h1l2,1ZM549,638l2,1h1v2h-1l-1,-1h-1v-1ZM567,635h3v2h-1l-2,-2h-1ZM575,655l1,1v1h-1l-1,-1h-2l1,-1h-1v-1l1,1ZM490,632v1l-1,-1l-2,-1h-1h2ZM527,578v1h-1v-1ZM562,583v-2l1,1ZM552,648v1h-1v-1ZM577,593h-1ZM596,615v1h-4l-2,-2v-2l-1,-1h-1v-1h-1l-1,-1v-4h2l2,2v1l3,3h1v1h1l1,1v1ZM585,604v-2h-1l1,-1h1v3ZM382,531v-1h1ZM412,493v1v-3l1,-1v2ZM32,332v-1l1,-1v-1v2ZM48,290v-1ZM413,8h1l1,-1l-1,1Z"/>
<path class="sl" d="M408,8h5l1,-1h1h-1v1h-5l-1,1h-1Z"/>
<path class="sp" d="M409,8h3M407,9l1,-1"/>
<path class="sl" d="M430,5h-1h1h-1h1h-3v1l1,-1l-1,1h1v-1l-1,1h-6v1h-1l1,-1h5l1,-1h4ZM434,4h-1v1ZM432,5h-1ZM428,5h1h-3v1h-6v1h-1l1,-1h6l1,-1Z"/>
<path class="sp" d="M433,5l1,-1M430,5h2M419,7l1,-1h6l1,-1h1"/>
<path class="sl" d="M432,5h1ZM413,8h1h-1h1ZM369,226l-1,1ZM678,866h2l1,-1l2,-1h1l-1,1v1h-1h1v-1h1v-1h2v1h-1l-1,1l1,-1h1l-1,1h-1l-1,1l1,1h-1l1,1h-1l-2,2h-1v1l-2,1h-1l-4,4h-1l-1,1h-1v1h-1h1v1h1v1h-4l-1,1v-1h-1h1v1h-2l-1,1h-2v1h-1l-1,2h-1v1l-1,1h-1h1l-1,1h-1v1l-2,2v1h-1l-2,1h-1v1l-4,2h-2l-2,1l-1,-1l-1,1h-2v-1h1h-1v-1h-1l-1,1v-1l-1,-1v1h-5l2,-1h-1v-1l-1,1v-1h3v-1h-1l1,-1h-1h1v-1l1,1h1l-1,-1h1h-1v-1h2v-1l1,-1v1h1v-1h1v-1h2v-1h1l1,-1l4,-2h3v-1h1l1,-1h2v-1h1l1,-1h1l1,-1h1h-1h1v-1l1,1v-1h1l2,-2v1v-1l2,-1h1v-1l2,-2v-1h2v-1h1l6,-6l2,-1h1h-1v2h1l-1,1ZM684,864h-1l1,-1h1ZM631,893h-1ZM633,890v1h-1ZM636,899h-1v1h1h-2l-1,1h-1v-1h1l1,-1v-1h1ZM700,861h-1l-3,3h-1v1l-1,1h-1l-2,1h-1v-1h-1l-1,1v-1l1,-1h-1v1h-1v-1l2,-1l1,-1l2,-1v-1l1,-1v-2l-1,-1h-2v-1h-1l-1,-1h-1v-1h1v-1l2,-1h3v-1h1v-1l1,-2l2,-2v-1h1v-3l1,-1h-1v-1h1v1v-1h1v20ZM700,828v11h-2v-1l-1,-2h1v1h1v-3h-1l1,1h-1l-1,-1v-1v1l1,1l-1,1v-2l-2,-4h1v-1h1h-1v1h-2l1,-1h-1v-1h1v-2h-1v-1l-1,-1l1,-1h1l-1,1h1v3h1v-1h1v1h3Z"/>
<path class="sp" d="M700,840v20M700,828v10M700,838v1M700,827v1"/>
<path class="sl" d="M626,926v1h-1v-1ZM616,919h-1v-1h1v1h-1ZM835,617v-1ZM689,559h-1l1,-1ZM32,677v-2l-1,-1v-1v1l1,1v1ZM27,491v-1ZM28,483v-1ZM151,486v-2h1v1l1,1h2v2h1v5h1v-1h1l1,-1l1,1v1h1v-1h1v-1l1,-1v-1h1v1l2,2l1,2l1,1v1l1,1v1l2,4v4l-1,3v10l1,1l1,2h1v3l2,5v3l-1,-1v-1l-1,-1v2l-1,-1l-1,1h-1v-1l-1,-1l-3,-2l-6,-6l-1,-2l-3,-3l1,-1v-1l-1,-1l-1,-2v-1l-1,-2h-1v-2h1h-1v-5l-1,-4v-8l-1,-2v-1ZM272,516h-1l-1,-1l-2,-1h-8l-1,-1v1h-1l-1,1v2h-1v7l-1,1h-2v2h-1v1h1v1l-2,2h-1v3l-1,1v2h-1v1l-1,-1l-1,1h-3l-1,1h-2l-1,-1h-1l-1,-1v-1h-5l-1,1v1h-1v1l-1,1h-7l-3,1h-1v-1h-1l-1,-2l-2,-2v-1h-1l-1,-1v-4l1,2l1,1h2l1,1v-1l1,1l2,1h2l1,2h1l-1,-1h-1v-1l1,-1v-2h1v-4h1v-2l1,-1h1l1,-1h2l6,-1l2,-2l2,-4l3,-2l1,-2l1,-1v-2l1,1h1v2l2,2v1h1v-1l1,-1v-5h1l1,-1v5h2l-1,-1v-4h2v-1h1v-1l-1,-1v-1l1,-1v-1v1h2v-1l2,-2v-1l4,-4v-1l2,-3v3h1l1,-1v-1l1,-1v1h1h-1v1l2,2h1v1h1v2h-1v2l-1,1h2l1,-1h1l1,1l-1,1h-1l1,1l1,-1h2l1,1v1h1l2,1v1h2v2h-1l-1,1h-5l-1,1l1,2l2,1v1l-1,1h-5l-1,-1v1ZM175,521v-1ZM151,496h-1l1,-2v1ZM149,485v2h-1v-1ZM270,489l-1,1v-1l1,-1h1v1ZM156,517v-1h1ZM225,528h-1v-3h1v1ZM274,516h-1v-1ZM736,524l-1,1ZM735,525l-1,1v-1ZM736,536v-1ZM736,537v-1h1ZM737,543v1h-1h1v-1h-1ZM748,558l-1,-2h1v1ZM750,561v1v-1h-1ZM737,540h-1h1v-1l1,1ZM709,561v-1ZM846,581v-1ZM923,515l1,1h-1l-1,-1h1v-1h-1h1ZM913,499v1ZM844,566v1v-1v1ZM147,146v1v-1l1,-1ZM147,146l1,-1v1ZM149,145l1,-1v1ZM420,253h-1v-1h1ZM456,241h-1l1,-1h-1l2,-2v3ZM429,268l-1,1v-1h-1l2,-2h1l-1,1ZM394,299h-1v-1l1,-1l1,1ZM397,298h-1v-1l2,-2v-1v2l-1,1ZM393,283h-1v-2h2v1ZM389,268v-1h1ZM390,266v1v-3h1v1ZM383,278l1,1h1l-1,1h-1v-1ZM395,282h-1v-1h1ZM477,188v-1ZM479,189h-1v-1v1ZM466,210v1l-1,-1l1,-1ZM425,266v1v-1h-1h2ZM462,265h-1ZM386,278v-1l1,-1v1ZM390,275l-1,1v-1l1,-1ZM392,271v-1ZM412,269v-1ZM410,270h1v1h-1ZM389,288v-1l1,-1v1ZM480,330l-1,-1h1ZM494,196h2l2,2h2l3,-3h1v1l-2,2v2h1v1l1,1h1l1,-1h1l-1,1h-1v1h-2l-1,1h-2l-1,1h-1l-1,-1h-1l-1,1l-2,1l-2,2v2l-1,1h-1l-1,-1l-5,-2l-2,-1h-3l-3,2l-1,-1v-1h-2v1h-1v1l1,1h2l2,2v1h-2l-1,-1v1h-1v1l-1,1h-2v-3h1l-1,-1v-1h-1v-3l1,-1h1l1,-1h1v-1h1l-1,-1v-1h1l2,1h3v-1l1,-1v-2l1,-1v-3h1v-5l-1,-1v-1h1v-1h2l4,4l1,2h1l2,1l2,2Z"/>
<path class="sl" d="M402,273h2v-1h1l1,1l-2,2h3l-1,1l1,1v2l-3,3v1h-1v2l-1,1v2l-1,2h-2v1l-2,1l-1,1v-1l1,-1v-1l-1,-1v-1h1v-1h-1v1h-1v2l1,1h-4v-1l2,-2l-1,-1v-3h1l1,-1l1,-2l1,-1h-1l1,-1v-1l-1,-1v-1h-2v2h1v2h-1v-1h-2l-1,1v-3l1,1h1l-1,-1v-1l-1,-1h-1l1,-1h1l1,-1h2v-1h1l1,-1l2,-1h2v2ZM425,268h2v3l1,1h-2l-3,3v1l-1,-2h-3l-2,1l-2,2v1h-1v1l-1,1l-1,-1v-1h-1v-1h-1h1v-2h-1l1,-1h-1l-2,1v-1h2l2,-1v-1l3,-3l1,1h3l1,-1v-1h1l1,-1h1l1,1ZM477,216l1,-1v7h1l1,1l1,2v6l-1,1v1h-1v1h-1v3h-1v1l-1,-1l-2,2v1l-1,1l1,1v5l-2,2v1l-1,2v1l-1,1l1,1l1,2l-1,1h-1l-1,1v2l-1,1h-1l-2,2l-1,-1h1v-3h1v-1h1v-1h-2l-1,1v3h-1v-1h-3v2l-1,1v1h-1v1h-1v-3h1l-1,-1h-1l-3,3v1h-2l-1,-1h-2l-1,1h-2l1,-1v-1l-1,1v-1h-1v1h-1l1,-1l-1,-1l1,-1h-1l-2,2v2l2,1v1h-2l-2,1v1l-2,2l-1,2h-4v-2h-1v-1l-1,-1l1,-1l-1,-1h1l2,-2v-1h-3l-1,-1h-3l-1,1h-2v1h-3l-1,1h-2v1l-1,-1l-2,1h-2v-1h-1l-1,1v1l-1,1v1l-2,-2h-2l-1,1h-2v-1h-1v-2l1,-1h3v-1h1l1,-1h1l1,-1h1v-1h1l1,-1l2,-1l2,-2h3v1h1v-1h7l3,-1h3v1l2,1h1v-1h1l1,-1h1l-1,-1v-1l1,-1v-1h1l1,-1l2,-1l1,-2v-3l2,-2h3l-2,1l-1,1h-1v1h1v2h2l1,-1l5,-2h1l2,-1v-1l1,-1h1v-2l3,-1l1,-1v-1l1,-1v-1h1v-1l1,-1l1,-2v-1h1v-5h-1v-1h1v-4l1,-1h1v-1h1v-2h2v3l1,-1h2l1,-1v-1h-3v-2h2ZM341,344l-1,1h-1v-1h1l1,-1ZM337,346h-1v-1h2ZM350,342l-1,1l-1,-1l1,-1v1ZM373,327l-1,1h-1l-1,1v1h-1v1l-1,1v-2l2,-2v-1h2l1,-1h1ZM380,319h-1v-2l1,1ZM383,315v1l-1,-1h-1h1v-1h2l1,-1h1h-1v1h-1v1ZM382,316v-1ZM464,278h-1v-1h1ZM54,276v1l-1,1h1h-1v-1h1v-1h1ZM133,527l1,3l1,1v4h-1v-1l-2,-2v-2l-1,-1l-1,-2h2v-1ZM143,556h-1l-1,-1v-1l-2,-3l1,-2h1v1l1,2l1,1v2ZM267,625l-1,2l1,1h-3l-2,-1h-1v-1h2v-1l-1,-1l2,-2h1l2,1v1ZM257,621h1l1,2h1l-1,1l-2,1l-1,1v1l-1,-1h1v-1h-1v-1h-1l-1,-1h-1l-2,-2v-1h1l2,1h1l1,-1ZM187,560v1h1v4l2,2l3,1l-1,1l-1,2l1,1v1h-1v-1h-1v-1h-1l-1,-1h-1v-1l-1,-1l1,-1h-1v-3h-2v-1l-1,1l-1,-1h-1v-1l1,-1h1v-2h1l1,1v-1h2ZM316,594l1,2l-1,-1h-1v4h1l1,1l-1,1h-1v1l-1,1h-2v-2l1,-1v-2l1,-1v-3l1,-1v-1h1v1ZM312,600v1h-1v-1h-2l1,-2v-3h1l1,-1h1v3l-1,1ZM203,515h-1l1,-1l-2,-2l2,-1v-1v1l1,1v2ZM202,573v2h-1v-1l-1,-1v1h-2v-4l1,-1h2l1,1l1,2ZM418,563l2,1h3l3,3h1l-1,1h-4v-1l-1,-2h-2v-1h-1ZM419,572h6l2,1h4v1h-7l-2,-1Z"/>
<path class="sl" d="M379,557h2l2,1l1,1h-1h1l-1,1h-3v-1h-1l-1,-2v1l1,1h1v1l-1,1l-1,-1v-1v1h-1v-1h-2l-1,-1h1v-1l1,1l1,-1h1ZM359,538h-1v-3l2,-1h1v3l-1,1ZM357,570l-1,1h-5v-3h1l1,-1v1h2l1,1ZM340,577h-1v-2h-1v-3h1v2l1,2ZM339,571h3l-1,1h-7v-1h3ZM331,570h1v1l1,-1v1h-1l-1,1l-2,-1l-1,1h-2l-1,-1l1,-2h2ZM385,625v1l-1,-1h-1v-2l1,-1v-1h1v-1h1v-2h2v1h-1l1,2l-1,1v1h-1v1h-1ZM347,621v1h-1l-2,2l-1,-1h-3l-1,1v-2l1,-1h1l1,1l1,-1h3ZM329,625h4l1,1l-1,1h-6l1,-1v-1ZM381,568h-2v-1l-1,-1v-1h3v2ZM128,494h1l1,-1l1,1h3v1h1v1l1,2l1,1v1l1,2v3l2,1l1,1v1l6,6l1,2v1l1,2l1,1v1l1,1v1h1v1l1,1v-2l1,-1l2,2v2l1,1v1h1l1,1l2,1v2l1,1v2l1,1v1h3l1,1v2l-2,1h-1h3l1,-1h1v-1l2,2v1l1,1v1h-1v1l-2,2l1,1v3h1l2,2h1l1,1h1v2l1,2v3l2,2v2h-1v2h1v-1h1v-1l2,1h2v1l2,4l2,2v1l-1,1l-1,2v1h1v3h-1l1,5v10h-1v-1h-1v-1l-1,-1l-2,1v1v-1h-1l-2,-2v1l1,2v1h-1l-2,-2l-1,-2l-1,-1l-1,-3h-1l-2,-3h-1l-1,-1v-1l-2,-1l-3,-5l-2,-2v-1l-4,-4l-1,-2v-1l-1,-1v-1h-1l-1,-2v-1l-1,-1v-2l-2,-6l-1,-2v-2l-2,-3l-1,-1v-1l-1,-2v-1l-2,-2h-1v-1l-1,-1v-2l-1,-3v-4l-2,-4l-5,-5v-4l-2,-1v-2l-1,-1l-1,-3l-2,-2h-1v-2l-2,-2l-2,-4l-1,-1v-2l-1,-3v-2l1,-1h1l3,3v1h1ZM315,628h-1l-1,1h-4l-2,1h-1l-1,-1h-1l-1,1h-2l-2,-1h-4l-1,-1l-1,1h-1v-1h-1v-2h1v-1h1l1,-1h3l1,1h3v1h2l1,1h4v-1l1,1l2,1h1v-1h1v-1h1l1,-1h1l-2,-1h2v2l-1,1ZM293,633l3,3h2v1l2,2v1l-1,1h-3l-1,-1h-1v-1l-1,-1h-1l-2,-1l-1,-1h-3v-1h-1v-1l1,-1h6ZM279,624h1l1,-1l2,2v-1h2v2l1,1v1h-1v-1h-2v1h1h-4v-1l-1,1h-1l-2,1l-1,-1l-1,1h-3l-1,1l-1,-1h-1v-4h1l1,-1h4v1h1v1l1,1h1l1,-1h1l-1,-1h-1l-2,-2v-1h3l1,1ZM330,546l-2,2v1h-1v1l-1,1h-1l-1,1h-7l-2,-2h-12l-1,-1l-4,1l-2,-1h-3v1l-2,2v2l-1,1v1l1,1v2l1,2h1l1,1h1v2l1,1h2l1,1l1,-1v-1l2,-2v-1h1l1,1h3v-1h6v-1h2l1,-1l1,1h1v3h-2v-1h-3v1h-1v1l-4,4l-3,1l-1,1h-3v1h1l1,1v1h2v1l1,2l1,1v1l2,1v1l1,1v1h-1v4h1l1,1v1h1v1l1,1v-1h1v3h-3l-2,1h-1l-1,1l1,1l-1,1h-1l-1,-1h-1l-1,-1v-4h1v-1l-1,-1h-2l-3,-4v-1l1,-2v-4h-1v-1h-2l-1,1l-2,1v3h1v15l-1,1v1l1,2l1,1h-4l-1,1h-1l-2,-2h-1v-2l1,-1v-4l1,-1v-5l-1,-2v-2h-5v-2l-1,-1v-1l1,-1l-1,-1v-1h1v-1l2,-2v-2l1,-1v-6l3,-5l1,1v1v-4l-1,-3v-1l1,1v-3l1,-2l1,-1v-1h1v-1l1,-1v1h2l1,-1v-1h1v-1l1,-1h1l1,1h2v1h1v1l2,-1l2,1h3l1,1h1l1,1h1v-1h3l4,1h1l3,-1l6,-6h1v1l1,1l-1,1l-1,2Z"/>
<path class="sl" d="M198,598l1,1v1h3v1h3v1l1,1l1,2v1h3l2,1h1v-1l1,1h4l1,1h2v-3h1v-1h2l1,2h3v1h1l2,1l1,1h3l1,1v2h1v2l4,2h6l2,1l1,1v6h1v2l-1,-1h-1v-1h-3l-1,-1l-4,-2h-2l-1,1h-2l-1,-1h-2l-4,-1h-2l-2,-1h-1l-8,-4l-4,-1h-2l-1,-1h-2v1h-2l-2,-1h-1l-1,-1h-1v-1h-2l-1,-1h-3l-1,-1h-1v-1l1,-1l-3,-2h-1l-1,-1h-4v-1h1v1l1,-1v-2h1l1,-3v-1h3l1,1h1l1,1h1v-1l1,-1v1ZM212,530v4l1,1h1v1l2,2l1,2h1v1h1l3,-1h7l1,-1v-1h1v-1l1,-1h5v1l1,1h1l1,1h2l1,-1h3l1,-1l1,1v-1h1v-2l1,-1v-3h1l2,-2v-1h-1v-1h1v-2h2l1,-1v-7h1v-2l1,-1h1v-1l1,1h8l2,1l1,1h1h-1v1h1v1l1,1v1h-5l2,2v2h1v1h1v2h1h-1v1h1v1l1,1l1,2v1h-1v1l-1,1h1v1l1,2h1l2,2l2,1l1,2l1,1v1h-6l-1,-1v-1h-1l1,1l-2,2l-2,3l-1,6l1,2v2h-1l-2,2h-1v1h-2v-1v3h-1l-1,1v1h-1v1h-1h2v2l-1,1h1v1h1v1l-1,1h-1v4h-1v1h1l-2,2v2h-1l-5,3l-4,2v-1h-1v-5l-1,-1v1v-1h-1v-1h-2l-1,1h-2v-2h-2l-3,-3v2l-2,1l-1,1h-1l-1,-1h-1l-2,2h-1l1,-1l-1,-1v-4h-1v1h-1l-1,-1h-1l-1,1h-2v-1h1h-2v1v-1l-1,-1l-1,1h-1v-3l-1,-4v-2h-1v-6l-4,-4h-2l1,-1v-1h-1v-2h-1v-1l1,-1v-3l-2,-2v-6l1,-1h1h-1v-2l2,-2v-2ZM353,549h2v-2l1,-1h1v-2l2,-1h3l-1,1h1l-1,3l-1,1h-2v2l1,1h2v2h1v1h1l-3,-1h-3l-1,-1h-1v6l1,2l2,2v1l1,1h-1v-1l-2,-1l-1,-2l-1,-1h-1v-6h-1v-5l-1,-2v-1l1,-2v-2l1,-1v-1l2,-2h1v1l-1,1v1l1,1v4l-1,1l-2,1v1ZM370,581l2,1h3l3,3v1h1l1,1v1l-1,2l-1,-1l-2,-1h-1l-2,-1l-2,-2h-3l1,1h-3l-1,-1h-1v-1h-1l-2,2h-2l-1,-2l-1,-1l-1,1v2h-1v-2l2,-3h8v1h1v-1h3ZM346,582l2,1v1h1v1l1,1l-1,1h-1l-1,1h-1l-1,1l-1,-1h-1l-2,-1v-1h-1v-2l-1,-1l1,-1l1,1l1,-1h2ZM332,632v1h1l1,-1v2h-1v1l1,1l-1,1v1h-1l-1,2h-1l-1,1v1h-2l-2,1h-2l-1,-1l1,-1l-1,-1v-2l1,-1l1,-2h4v-2h2ZM413,607v5h-2l-1,-1h-1l-1,-1v-1h1l1,-1l-1,-1v-1l1,1l1,-2v-1h1v2h1ZM412,613l-1,1v1l-2,2l-1,-1v-3h1h-1v-2h1l1,1h1ZM446,629l-2,1h-5v-1l2,-5l2,-2h1l2,-1l2,1l1,1h1v1l-1,2l-2,2ZM467,581v33l-1,1v1l1,1v19l-1,-1l-2,-1v-1l-4,-4h-1v-1l1,-2l-2,2h-6v-1v1h-1l-1,1h-1v-2l1,-1v-2h1v-1h-1l-1,-1v-1h-1v-1h2l-1,-1h-1l-1,-1h-1l1,-1h1v-1l-3,-3l-1,-2v-3h-1v-1h1h-2v-2h-1l-1,-1h-1v-1l-4,-2h-1l-1,-1h-2l-4,-2h-1l-1,-1h-1l-3,-1h-4l-4,-2l-1,-1l1,-1h1l-1,-1v1h-2l-1,-1l-1,1l-1,-1v-1h-2l-2,-2v-3h1v-1h-1v2l-1,1h-1l1,1l-1,1v2l-2,1h-1l-1,1l-1,-1v-1l-1,-1v-1l1,-1v-1l-3,-3l-4,-2l-1,-1h1l1,-1h1l2,1h2l2,-2h1l1,-1v1h3l1,1v-1l1,-1h1v-1h-1l1,-1h-2l-2,1h-1l-1,-1l-2,1h-3l-1,-1l-1,1h-1l-2,-2v-1h-1v-3h-1l-1,-1l-4,-1h-2v-1h1v-1l1,-1v-2h2l3,-1l1,-1h1v-1l3,-1h2l4,2l1,1l2,1h5v3l2,2l-1,1v2h-1l1,1v5l2,2v2l1,-1v-2l1,1v1l1,2h1v3h1l1,1h3l2,-2l2,-1v-1l1,-1v-1l2,-1v-1l1,-1l2,-1h2l2,-1h1v-1l-1,-1h1l4,-2l1,-1h1l1,1h1l5,2l1,1h2l1,1h1l2,1l2,2h5l3,1h1v1Z"/>
<path class="sl" d="M449,630h-3v-1h1v-1h1ZM159,525v2l-1,1h-1v-3h1v-1ZM163,535l-1,-1v-3l1,1v2ZM164,531v1l-1,-1h-1v-1h-1v-1l2,1ZM167,537v1v-1h-2l-1,-1h-1v-1h1v-1l2,2h1ZM168,536h-1v-1h-2v-2h1l1,1v1ZM169,539h-1v-1ZM170,538l-1,-1v-1l1,1ZM174,534v1v-1v2h-1v-2ZM177,534v1h1v1l-1,1l-1,-1h-1v-1l1,-1ZM179,546v1v-1v1h1v1h-1l-1,-1h-1v-1h-1h1v-1h1v1ZM177,548v2h-1v-1h-1v-1h1ZM172,547h-2v-1h1ZM213,558l-2,1v-3h1l1,1ZM245,611h-2v1h-4l-2,-1v-1l1,-1h8l1,1ZM415,567h-2l1,-1h1ZM349,560h-1v-2h2l-1,1h1ZM352,559l1,1l-1,1l1,1h1v1h1h-1v1l-1,-1h-2v-2h-1v-2h1ZM398,608l-1,1l1,-2v-1l1,-3h1l-2,4ZM397,608h-1v-1l-1,-2l2,2ZM358,588h-2v1l-1,-1l1,-1h1l1,-1h1l-1,1ZM346,521h-1v-1l1,-1v-1h-1v-1l1,-1l1,1v1l-1,1ZM336,525v1l-1,-1v-2h1v1ZM381,628h-1h1l1,-2h1l1,1h-3ZM372,625h-1l-1,-1v-1h1l1,1ZM356,625l1,1h1l-1,1l-1,-1h-1ZM375,571l1,1v2h-5l-1,-1l2,-1h2ZM164,590l-1,-1h1ZM151,569v2l-1,-1v-2l-1,-2h1l1,2ZM149,565v1h-1v-3ZM147,562l-2,-2v-1h1v1l1,1ZM138,545h-1l1,-1v-2l1,1v1ZM127,518h-1l-3,-3v-2h1v1l1,1v1l2,1ZM308,601h-1l-1,-1v-2h1l1,1ZM316,565v1l1,-1h1l1,1v1h-1l-1,1v-1l-1,1h-1l1,-1v-1h-1l-1,1v1h-1v-3h1l2,-1ZM305,557l1,1h-2v-1l1,1ZM296,608v1l-1,-1v-5l1,1v1ZM256,611h-1v-1h2l1,1h-1ZM262,585l-1,1h-1v-5l1,-1h1v4ZM317,647h-1v-1h2l2,-2l1,1l-2,2h-1ZM327,626l-1,1v1h-1v-1h-1v-1h1l1,-1h1ZM324,626h-1l-1,1h-1v1h-3l2,-2l-1,-1h2v1l2,-1h1ZM319,626h-2v-1h2ZM413,614l-1,-1h1ZM170,535h-1v-1ZM172,537v1v-2ZM175,537h-1v-1ZM178,544h-1v-1ZM189,518v1ZM186,521h-1v-2h1v1ZM207,522v1l-1,-1l1,-1ZM207,561v1l-1,-1ZM197,572v-1ZM193,572h-1v-1h1ZM249,612l-1,-1h1ZM236,600h-1v-1h1ZM184,602h-1v-1h1ZM132,522l-1,-1v-1h1v1ZM122,488l-1,-1h1ZM319,569h-1v-1h1ZM317,590l-1,1l-1,-1v-1h2ZM321,572h1h-1v-1ZM316,570l-1,1v-1ZM289,628h-1v-3h1v2h-1ZM285,623h1ZM259,626h-1l1,-1ZM273,516h1l1,1h-2l-1,-1ZM272,524v-1h-1l1,-1l1,1ZM324,606v1v-1h-1v-1ZM320,600v1ZM298,615h-1v-1h1ZM274,624h-1v-2h1ZM263,581v2l-1,-1ZM350,549v-1ZM410,576h-1v-1h1ZM403,594h-1l-1,-1l1,1ZM380,564h-1l-3,1v-1h3v-1ZM378,561h-1v-1h1ZM369,558h-1l-1,-1v-1ZM351,556v-1ZM351,550h-1v-1h1ZM350,563h-1v-2l1,1ZM362,587h-1v-1v1ZM361,587l-2,1v-1h1Z"/>
<path class="sl" d="M345,522v-1ZM346,523v-1ZM334,532v-1h1ZM390,619h-1v-1h1ZM362,618h-1v-1h1ZM352,621v-1ZM321,642l-1,1v-2h1ZM309,644h-1v-1h2ZM414,613v-1h1ZM413,616l-1,-1h1ZM356,581l-1,1h-1h1ZM353,585h-1v-1ZM316,628v-1h1ZM115,478h-1v-4h1v2ZM114,473v1v-2ZM112,465v-1ZM113,468v-1ZM114,467v-1ZM111,457v-1ZM111,444v1l-1,-1l1,-1v-1l1,-1v2ZM113,437v-1ZM114,436h-1v-4h1v-2h1v-4l1,-1v-2l1,-2v-1l1,-1v3l-1,1v2l-1,3l-1,2v2h-1v1h1h-1v2ZM116,432v1l-1,-1ZM116,425h-1v-1h1ZM34,421h-1ZM30,447v-1ZM807,659h-1l1,-1ZM793,668h-1v-1v1ZM930,667h-1ZM933,673v-1h1ZM929,669v-1h1v1ZM935,674v1v-1h-1v-1l1,-1v1ZM979,597v1h-1v1v-1ZM978,599v1ZM978,604v-1ZM977,592v-1h1ZM977,596v-1ZM958,667h1v-1v1ZM979,591l-1,1v-1ZM957,671v1ZM957,670v-1h1ZM965,669v-1ZM965,668v-1ZM955,689v1ZM959,654v1ZM955,660h-1l1,-1ZM952,655v-1ZM950,659v-1ZM656,724h2l3,3h2v1h1v1l1,1h1v1h1v1h1l2,2l2,1l1,1h1l1,1v2h-2l-1,-1h-2l-1,-1v-1h-2l-1,-1h-1l-1,-1h-1v-1l-2,-1h-1v-1l-1,-2h-1l-1,-1v-1h-1l-1,-2v-2ZM679,741h-1v-1v1ZM623,718v-2h1v1ZM684,732v1h-2v-2h1ZM673,726h1v-2h1l-1,1v1ZM679,730l-1,-1h-1v-1l1,-1h-1v-1h2v2l1,1ZM183,885v-1v1h1h-1h1v1h1h-1h1l-1,-1l1,1h1v1h1h-1l1,1h1v1l-2,-2v1h1h-1v-1h-1l-2,-2h-1v-1h-1v-1h-1v-1v1h1v1h1ZM183,885l-1,-1h-1h1ZM777,684l-2,2v1h-1l-1,1v1l2,-2h1v1h-1l1,1h-3l-1,1v-1h-1l-2,1v1h-2v-1h-1v-1h2l1,-1v-1h2l1,-1h1l1,-1h2ZM755,700l2,-2v-1h1l2,-2h2l1,-1v1h1v1l1,1v3Z"/>
<path class="sp" d="M765,700h-10"/>
<path class="sl" d="M776,690v1v-2l1,-1v2ZM776,691h-1v-1l1,-1v1ZM781,698h-1Z"/>
<path class="sp" d="M782,700v0"/>
<path class="sl" d="M786,698l-1,-1h1ZM782,693v-1h1ZM756,694v-1h1ZM771,694v-1ZM769,700v-1h1v1Z"/>
<path class="sp" d="M770,700h-1"/>
<path class="sl" d="M767,697l-1,1v-1ZM777,687h-1l1,-1ZM761,656h-1ZM508,0h-1h2ZM506,0h-1ZM503,0h1h-2Z"/>
<path class="sp" d="M507,0h2M504,0h2M491,0h12"/>
<path class="sl" d="M296,342h-1h1h-1l1,-1ZM334,287h-1l-3,-3h2v1l2,1ZM334,299h-1l-1,-1v-1h1l1,1h1ZM333,301h-1v-1h1ZM335,299v1l-1,-1ZM309,334v1v-2h1v1h-1h1ZM236,366l1,1h-2ZM324,314h-1v-1h1ZM261,354v-1h-1h1ZM254,363l-1,1v-1l1,-1ZM253,363h-1l1,-1ZM238,376v3h-1v1l-3,3v1l-1,2v1h-2v1h-1v1h-2l-1,1h-2v-1h-2l-2,-2v-3l1,-3v-1h1l2,-2h1l1,-1h-1v-1h3v-1h1l1,1l1,-1h2l1,1v-1l1,1v-1h1v1ZM259,359l1,-1v1ZM264,356h1l1,1h-1h1l-1,1h-1v-1l-1,1v-1h1ZM265,359h-1v-1h1ZM263,359h-1v-1h1ZM791,102h1v1h1l1,1l-1,-1h-1v-1h-1v-1l3,3h1l1,2h1v1l-1,-1h-1v-1h-1l-1,-1h-1v-1h-1l-1,-1ZM798,106v1h1l1,1h-1h1l1,1h1v1h1l1,1h1v1l-1,-1h-1v-1h-1l-2,-1v-1h-1l-1,-1h-1h1h-1v-1ZM817,117l1,1h2l1,1v1h1l1,1h1l1,1v1h2v1l1,1h1l2,1h-1l1,1h1v1l-1,-1h-1l-2,-2h-1v-1l1,1v1v-1h-1v-1h-2v-1l1,1h-1v-1v1v-1v1l-1,-1v-1h-1l-1,-1v1v-1h-1v-1h-1h1v1l-1,-1v1v-1h-1v-1h-1v-1h-1l1,1h-1v-1h-1v-1h-1h1ZM595,10h2v1h1h-2v-1h-2ZM600,11h-1h3v1v-1v1h4l1,1h-1l-1,-1h-4ZM608,13l1,1h4v1h4v1h1h-2v-1h-1h1v1h3v1h1h-1h2v1v-1h-4v-1h-2l-1,-1h-4v-1h-2v-1h-1ZM615,14h1h-2v-1v1h4l1,1h4v1h1h-1h3v1h2l1,1h1h-2v-1h-3v-1h-1l1,1h1h-2l-1,-1l1,1h-1h3l1,1h1h-1h1h-3v-1h-3v-1l1,1h-1l-1,-1h-1h1h-3v-1h-1h3l1,1v-1h-4l-1,-1h-4l-1,-1h-1h3l1,1ZM670,30h1l1,1h2l1,1h2v1h2v1v-1h-2l-1,-1h-3l-1,-1h-3v-1h-1l-2,-1h-1v-1h-1v1l-1,-1h-3v-1h-2v-1h-2l1,1h1h-1l-1,-1v1v-1h-2l-2,-1h-2v-1h-2l-2,-1h-1l-1,-1h-2l-1,-1h1l1,1h2l1,1h1h-1v-1v1v-1h-3v-1v1v-1l1,1h3v1h1h-1v-1h-1h1v1v-1h-3v-1h-1h1l1,1h2l2,1h-1v-1h-3l-1,-1h-2l-3,-1h-1l-1,-1h1v1h4v1l3,1h3l1,1h2l1,1h2l1,1h2l1,1h2l1,1h2l1,1h2l1,1h2Z"/>
<path class="sp" d="M647,22h1l1,1h2l1,1h2l1,1h2l1,1h2l1,1h2l1,1h2l1,1h2l1,1"/>
<path class="sl" d="M636,21h-1h2l-2,-1h1l2,1h3l1,1h2l1,1h1l2,1h1l2,1h1v1h2l1,1h3v1h1l1,1h2v1v-1h-4l-1,-1h-4v-1h-2l-1,-1h-2l-1,-1h-2l-1,-1h-2l-1,-1h-3l-2,-1h-1l-2,-2h1v1h1ZM569,5h-2l-1,-1h-1h1l1,1h1ZM563,4h-4v-1l1,1h2ZM557,3h-1ZM554,3h-4v-1l1,1h8l1,1h1h-2v-1v1h1h-1l-1,-1h-1l2,1h1l-2,-1l1,1h1h-1h1h-3l-1,-1h-7v-1v1h-1v-1h-10l-1,-1h-1h2l1,1h10l1,1h3Z"/>
<path class="sp" d="M564,4h2l1,1h2M559,3l1,1h3M556,3h1M529,1h9l1,1h10l1,1h3"/>
<path class="sl" d="M592,9l-1,-1h-1h1l1,1h1ZM616,14h1h-2v-1h-4v-1l1,1h2l1,1v-1h-4v-1v1v-1h-4l-1,-1h-1h1l1,1h4l1,1h3Z"/>
<path class="sp" d="M609,12h2l1,1h3l1,1"/>
<path class="sl" d="M586,8h5v1h3l1,1l-1,-1h-5l-1,-1h-1ZM576,6h4l1,1h1h-2v-1h-1l1,1l-1,-1h-7l-1,-1h-1h1h-7v-1h1l1,1h1l-1,-1l1,1h6l1,1h1Z"/>
<path class="sp" d="M577,6h3l1,1M582,7h1M583,7h2M570,5h3l1,1h2"/>
<path class="sl" d="M602,11v-1h-1Z"/>
<path class="sp" d="M597,10h4l1,1"/>
<path class="sl" d="M587,8h4l1,1h1h-2v-1h-1h1h-5ZM604,11h-1ZM578,6l1,1h1h-2l-1,-1ZM638,19v1v-1h-3l-1,-1h-1h1l2,1h1ZM611,13h1h-2v-1h-1h1ZM608,12h2v1l-1,-1ZM624,17v1l-1,-1h-3v-1h-1h2l1,1h1ZM604,12h-1ZM789,99h-1v-1v1ZM807,113l-1,-1h-1h1ZM793,102h1h-1h1h-1l-1,-1ZM799,105h-2v-1h-1l-1,-1l1,1h1l1,1ZM787,98v-1l-1,-1l1,1ZM801,106l2,1l1,1h-1l-1,-1h1h-2v-1h-1v-1h-1l-1,-1h1v1h1ZM826,124h-1ZM824,122h1l-1,-1h-1v-1v1h1ZM824,123l-1,-1h-1v-1l1,1ZM821,119l-2,-1v-1v1h1v1ZM804,108v1l-2,-2h-1h1l1,1ZM811,113h-1v-1h-1h1v1ZM805,109l-1,-1h-1v-1h-1v-1v1l2,1ZM800,106h-1v-1ZM799,105l-1,-1v1ZM829,125l1,1l-2,-1ZM829,125l-1,-1h-1h1v1ZM821,119h-1v-1v1ZM606,11v1v-1h-1ZM595,9v1v-1h-1ZM598,10h-1ZM623,18l-1,-1h-1h1v1ZM612,14h1h-2ZM620,15h1h-1l-1,-1h-1h1v1ZM680,34h1ZM680,34v-1ZM669,40h1h-1v-1ZM174,446h-1v-1h1ZM175,451h-1v-1ZM143,445l1,2h-1v-1ZM142,454v-1h1ZM144,441v-2l1,-1v2h-1ZM146,437v-1h1v1ZM146,439v1l-1,-1h1l-1,-1h1ZM147,431v1l-1,1v-3ZM145,435h-1v-1h1ZM130,400v-2h1v-1v2ZM148,399h-1v-2h1v1ZM131,376v-2h1v2ZM133,365v1ZM133,368l1,1v1l-1,1v-2ZM145,445v-1ZM144,439h-1v-2l1,1ZM144,433v1ZM147,427v1l-1,-1h1v-1ZM132,401h-1l1,-1ZM131,365v1l-1,-1v-1l1,-1v1ZM254,508v4l1,1h-2v-5ZM253,508l-1,1h-1v5l-1,1v1h-1v-1l-2,-2v-2h-1l-1,-1h4l2,-2l2,-1ZM127,345h-1l2,-3v2ZM130,343l-1,1v-2l1,-1v1ZM125,345h-1l1,-2l1,-1v-3h1l-1,1v1l1,1l-1,1v2ZM130,348l-1,1v-1h1v-1ZM129,351v-2h1v1ZM127,338v-1ZM486,660v3l1,1v1l1,1v1l1,1v3l1,1l-1,3l1,1v1l1,1v2h1l1,1l2,-2h2l2,2l2,1l3,3v4l1,2v1l1,2v1l-1,1l1,1v1l2,2h1v2l2,2v5l-1,2l2,2h1v1l-1,2l2,2h2l1,1h1l1,1h3v1l2,2h1l1,1h2l1,1l2,1l2,2v1l-1,-1v1l4,4v2l2,2v3l1,2v1h2v1h1v-3h1v1l2,2h1l1,-1l1,1v7l2,2h1v1l2,1h2l1,1v1l3,3h1l1,1v2l1,1h1l1,2v3h1v8l-1,1l1,2l1,3v2l1,1v4l-1,2l-1,1v2l-1,3l-2,4v3l-1,1v2l-2,3l-2,2v2h-1l-2,2v1h-2l-2,2v1h-1v1l-1,1h-1v3h-1h1l-2,1l-1,1v1l-1,2v2h-1v1h-1l-1,2l-2,2v2l-1,1v2l-1,1v5h-2l-1,1h-4l-6,1h-2l-1,1l-2,1l-4,3h-4v1h1v2l-2,-2h-2v-1h-2l-1,-1l1,-1v-1h-2v1l-2,1h-1v-1h1l1,-1v-1h-1v-1l-3,1l-1,1h2l-1,1h-1l-4,2v1h-1l-2,-1h-2l-1,-1h-2l-1,-1h-4l-1,-1l-1,1h-1l-2,-1l-1,-1h-3l-3,-3l-2,-1l-1,-1v-3l1,-1l-5,-5l-2,-1v-1h2v1v-2h-2l-1,1h-1l-1,1h-1l-2,-1h1v-1h1v-4l-2,-2v-1l-1,-1l-1,1v3l-2,2h-1l-1,1h-3l1,-2h2l1,-1v-1l-1,-1v-2l1,-2l2,-2v-2h-1l1,-1v-2l-1,-1v-1v2l-2,2l-1,2l-1,1v1h-2l-1,1h-1l-4,4v1h-1h1v2l-1,-1l-1,1l-2,-2h-1v-1h-1h2v1v-1l-1,-1v-2l-2,-2l-2,-1v-1l-1,-1v-1h-3l-1,-1l-1,-2h1v-1l-3,-1l-2,-2h-3l-3,-2h-1l-2,1h-1l-4,-3l-3,-1h-3l-1,1l-5,-1h-4l-2,1h-2l-9,3h-12l-2,1v1h-2l-3,2h-2l-1,1h-1v2l-1,1l-1,2h-2v1l-2,-1h-6l-1,-1h-9l-1,1l-2,-1l-2,1h-1l-1,2h-2l-1,1l-2,1l-2,2h-6l-2,-1h-2l-6,-3l-1,-1l-2,-1h-2l-1,-1v-1l-1,-2v-1h1l1,1l1,-1v-4l-1,-2v-2l-2,-5l-2,-2l-2,-3l-1,-1l-1,-2l-2,-2v-1l-1,-3v-1l-1,-1l-1,-2l-2,-2v-1h-1v-1l-4,-4v-1l-1,-3l-4,-5l-4,-3l-1,-2h1v-1l1,1l1,2v1h2v-2h-1l-3,-3l-1,-2h1l1,1h1v3h1v-1l1,2h1v1l1,-1v-1l-1,-1v-1l-2,-3l-2,-2l-2,-4l-2,-2v-1l-1,-1v-2l1,-1v-6l-1,-1v-7h1v-1l1,1v3l1,1h1v-1l1,-3l1,-1l4,-2l1,-1h1l1,-1v-1l4,-2l1,-1h1l1,1h5l2,-2h3l2,-1l2,-2l2,1h2l1,-1h5l3,-2h1l2,-2l1,-2l1,-1v-2l1,-1v-1h1l2,-2h1v-1h-1l-2,-4v-2l1,-1v-1h2v-1l2,-2v-1h1l1,2v1l2,2l1,2l1,1v1v-5l1,1h1v-2h-1v-1h-1l-1,-1v-1h1v-2l2,2v-1h2l1,1h4l-1,-1h-2v-2l1,1v-3l-1,1v-1h-1v-2l1,-1v1l1,-1v-1h1l2,1v1v-2h-1l-1,-1h1l1,-1h1l1,1h1v-1l-2,-1v-3h3v-2h1l-1,1l1,1h-1h1v-1l1,1v1l1,-1v-2l1,-1l-1,-1h1l1,1l1,-1l1,1h1l1,-1v-2h2l2,2l2,1l3,3l3,2v1l-1,1v3h2l-1,-1v-1l1,-1h1v-1h2l3,1l1,1v1h1l-1,-2h2v1h1v1h1v-2h1v-1h-1l-1,-1h1h-1l-2,-2l1,-1l1,-2h1v-3h1v-1h2v-1l1,-1l-1,-1v-1l1,-1l1,-2h2l-1,-1l1,-1l1,1h1v-1h1v-2h2v-1v2h9v1v-1l1,-1h1v-4l-1,-1h-4l-2,-2l1,-1h1v1h2l2,1l1,1h1l1,-1h1v1l2,2h2v1h4l2,1v1h3l2,-1v1h1l1,1l2,1l2,-2l2,-1l1,-1h1l-1,1v1l-1,1v1h1v-1h1l1,2h2v-2h-1h1l1,-2l1,1v1l1,1h2v1l-3,3v1l1,1l-1,2h-1l-1,-1l-1,1l-2,1v2l1,2l-1,1v1l-1,1v1l-2,2v1h-1v1l1,1l3,2l1,1l2,1h1v1l1,1h2v1l1,1h3v1h1l4,2l4,4h4l1,1h2l1,1v1l1,2h2l2,1l1,1h1l1,1h1l4,-2l2,-2v-2l2,-3l1,-1v-2l1,-1v-4l1,-3v-3l-1,-3l1,-1v-2l-1,-1v-4l1,-1v-4l1,-1h2l-1,-1v-1h-1v-2l1,-2v-1v1h1v-1l1,-3v-3l1,-2l1,-1h1v-1h1v1l2,2v4l1,2l1,1Z"/>
<path class="sl" d="M565,768h-1v-2l1,-1v-1l2,-2l-1,-1l1,-1v2h1l-1,1l-1,3l-1,1ZM456,698h-1l-1,1h-1v-1l2,-2h2v1h-1ZM432,675h1v-1v2h-1v1l1,1h1l-1,1h-2l-1,-1h-1v-3h1l1,-1h1ZM379,656h1v1h-5l1,-1h1v-1l-1,-1l1,-1h1v2h1ZM380,654h1l1,-1h3v-1l1,1h1v1h1l-1,1v1l-1,-1v2l-3,1l-3,-1l-1,-1l-1,-2v-2l1,1ZM265,763l-2,-2l-1,-2l2,2v1ZM449,837h3l1,1h-3l-1,1h-6l-1,-1v-1h4l1,-1h2ZM505,854h-1ZM504,855h-1ZM535,727h-1v-1ZM534,726v-1ZM551,751l1,1h-1l1,1h-1l-1,-1v-1ZM546,742v1ZM541,742v-1ZM568,780l-1,2h-1v-1l1,-1ZM567,779h-1v-1l1,-1v1ZM478,650h-1v-1h1ZM479,645l-1,1v-1ZM477,645v-1l1,1ZM512,711l1,1v1h-1v-1l-1,-1ZM430,655l1,-2v-1h1l-1,1ZM428,657h-1v-1h2v-1v1h-1ZM436,691h-1v-1h-1h1v-1v2ZM434,690h-1v-1h1ZM431,690v-1ZM456,702h-1l1,-1l1,1ZM428,675h-1v-1h1ZM396,653v-1l-1,-1h1v1h1ZM338,678l-1,1v-2ZM334,685h-1v-1h1ZM271,724v1l-1,-1l1,-1ZM502,869h3l1,1h1l2,1h3l1,-1v1h1h-1l1,-1h4v-1h5v7h-1l-1,1v1l-1,1v3l-1,1v-1h-1l1,-1h-1l-1,1v-1l-1,-1v3h-1l-1,-1v1h1h-1v1l-1,1h-1l-1,-1h-2l-1,1v-2h1h-3v-1l-1,-1h-1l-1,-2v-2l1,1v1l1,-1l-1,-1h-1v-1l-2,-2l-1,-2l-1,-1v-2l1,-1ZM494,865v-3h1l1,1h-1l1,1h-1ZM522,863l1,1v1h1h-1l-1,1v-1l-1,-1v-1h-1l1,-1ZM516,884h-1l1,-1ZM521,880v-1h1ZM517,883h-1v-1h1ZM500,867v1l-1,-1ZM524,866v1h-2l-1,-1h2ZM523,867h-1ZM570,938l1,-1v1ZM190,635v1v-1h-1ZM138,643h-1ZM216,909l-1,-1h-1h2ZM337,973l-1,-1l1,1h1h-1l-1,-1h-1l-1,-1h-1l-1,-1h-1h2l-1,-1h-1h6l1,1h2v-1l1,1h5l1,1v-1l1,1h6l1,1v-1h1v1h5v-1h3l2,1h5l5,1l2,1h3v1l1,-1l1,1h2l2,1v-1h1l-1,-1l1,-1h4l1,1h3l2,1h2v1h4v1h-3v1h7v-1h1l1,1h6l1,1h3l2,-1h7v-1h1l1,1h2v-1h4l1,1h1l2,1h7v-1h1v-1h13v1h4l1,-1l1,1h8l1,1h10l1,1l1,-1h1l1,1h8v1h-1v1h-1h3l1,-1h3l1,1h2v1h-1h14v1h8l1,-1h2l1,1h3l1,1l2,-1l1,1l1,-1h1l1,1h4v1h1v2h2v-1h1v-1h2v1h13l2,1h1l1,-1v1h-2v1h-2l-1,1h-2l-1,-1v1h1h-1l-2,1h-4l-1,1h-7v1h-5l-1,1h-4l-2,1h1v1h1h-2v1h-1h4l-1,1h-12l-1,1h-1h1h-2l-2,1h-1h3l1,-1h1h-1l-1,1h-43l-1,-1h-17l-1,-1h-10l-1,-1h-7l-1,-1h-8l-1,-1h-5l-1,-1h-6l-1,-1h-5l-1,-1h-5l-1,-1h-3l-1,-1h-5l-1,-1h-3l-1,-1h-3l-1,-1h-4l-1,-1h-3l-1,-1h-3l-1,-1h-3l-1,-1h-3l-1,-1h-2l-1,-1h-3l-1,-1h-2l-1,-1h-3l-1,-1h-2l-1,-1h-2l-1,-1h-2l-1,-1h-3l-1,-1h-1l-1,-1h-1ZM588,992h4l1,-1h1h-1h1h-2l-1,1h-2Z"/>
<path class="sp" d="M524,999h-1l-1,1h-43l-1,-1h-17l-1,-1h-10l-1,-1h-7l-1,-1h-8l-1,-1h-5l-1,-1h-6l-1,-1h-5l-1,-1h-5l-1,-1h-3l-1,-1h-5l-1,-1h-3l-1,-1h-3l-1,-1h-4l-1,-1h-3l-1,-1h-3l-1,-1h-3l-1,-1h-3l-1,-1h-2l-1,-1h-3l-1,-1h-2l-1,-1h-3l-1,-1h-2l-1,-1h-2l-1,-1h-2l-1,-1h-3l-1,-1h-1l-1,-1h-2M596,991h-4l-1,1h-3"/>
<path class="sl" d="M572,995h2v-1h1h-1l-1,1Z"/>
<path class="sp" d="M578,994h-4l-1,1h-1"/>
<path class="sl" d="M542,996h2l-1,1h-3l1,-1ZM540,997h-1ZM357,970h-1l-1,-1h2ZM543,994l1,-1v1ZM539,995h-1ZM560,991h-1h2ZM565,980l1,-1v1ZM562,978h1ZM561,978l-1,-1h1ZM349,970h1h-2ZM359,971h-1ZM357,972h-1v-1h-1h2ZM363,970h-2v-1h-1h1v1h1ZM338,968l-1,-1h1ZM332,969l-1,-1h-1h1ZM332,968h-1ZM329,968v-1h-1ZM780,621h-1Z"/>
<path class="sw" d="M48,290v-1ZM132,194l1,-1v-1v1h-1ZM133,194h1h-1v1ZM131,194h-1v1ZM137,187v-1Z"/>
<path class="sh" d="M500,443h-1v-1l1,-1v-1h1l-1,2Z"/>
<path class="sw" d="M338,118h-1v1l-1,1v1h-1l-4,4v1h-1l-1,1h-1v1h-1l1,-1h-1l-2,1l-1,1h2v1h-2l-2,1h-1v1l-2,1h-3l-2,1h-1l-1,1h-2l-2,2h-1v1h-1l-1,1h-8v-1h-1h1l1,-1h6v-1h2l2,-2h2l1,-1h2l2,-2l2,-1h1l2,-1v-1h1l1,-1h2l2,-2h1v-1h1l2,-2h1v-1h1l4,-4h1l1,-1h1v1ZM320,130l1,-1h-1l-1,1h-1l-1,1h-1h2l1,-1ZM734,58h-1h2v1h1l1,1h1l1,1h1v1v-1h-1h1h-1h1h-2v-1h-1h1h-2v-1h-2v-1h-1l-1,-1h-1v-1h-2v-1h-2l-1,-1h1v1h1h-1h2v1h1h-1v-1v1l-1,-1l1,1h2l2,2ZM732,57h-1l-1,-1h1v1Z"/>
<path class="sr" d="M728,55l1,1h2l2,2M732,57h-1l-1,-1"/>
<path class="sw" d="M698,42h2v1h2v1h2v1h1h-1h1h-1h1l1,1h2v1h1l1,1h1l1,1h-1v-1h-1l-2,-1l-1,-1h-1h1v1h2v1h2v1h-1v-1h-2v-1h-2v-1h-1l-1,-1h-2v-1h-1v1h1v1h1h-1l-2,-2h-1v-1h-1l-1,-1h-1v-1h-1h1v1h2v1h1v-1h-1l-1,-1h-1h1ZM162,181l-1,1h-1l-1,1h-2v-1h-1v-1h1l1,-1h5v1ZM721,85v1h-1h1v1l-1,1h-2v-1l2,-2ZM729,95v1l1,1l-1,-1h-3v-1h-1h3ZM887,183v1v-1h-1v-1ZM209,151h-1l-1,1v-3h-1v-1h3v-2h1l2,-2h2v-1h1l1,-1v-1h-1v-1h1v3h-1v1h-3l-3,3h1v1h-2v1h1v1ZM723,53h1v1v-1h-2l-1,-1h1v1ZM315,272v1h-1v1h-3l1,-1v1l1,-1l-1,-1h-1l-1,1l1,-1h2v2l1,-1v-1h-1v-1h1l1,-1l1,1v-1l-1,-1h1v1h1v1l-1,1v1v-1ZM283,138v1h-1v1h-1v1l-2,1l-1,1h-1l4,-4v-1h1l1,-1ZM247,141v-1h1l1,-1h2l-1,1v1l-1,1h-1l-1,1h-1v-2ZM427,189l-4,4v-1h-1v-4l1,-1h3v1h1ZM185,437l-3,-3v-1h-1l-1,-1v-3h1l1,1v1l1,2v1h1v2h1ZM222,236l-1,1v1h-1v-1h-3v-2h1v-2h3v2ZM320,46l1,-1v1ZM128,172h-1v-1l2,-1l1,-2h1h-1v1h-1v1l-1,1ZM233,107v-1h1v1l1,-1h1v1h-2v1h-1v-1h-1ZM190,163v-3h1v-1h1v-1h1v2h-1v1l-1,1ZM347,162h-1l1,-1h-1l3,-3h2v-1h1l-1,1l1,1h1h-2v1h-2l-1,1v1ZM325,289l-2,1h-2l-1,-1v-1l2,-2h1l1,1h-1v1h1v1h-1h1ZM728,96v1l1,1h-1v-1ZM665,58h-1ZM744,63l1,1v1v-1h-1ZM150,277v-1l1,-1v-1v1h2l1,-1v1h-1l-2,2ZM548,56h-2v-1h1ZM319,46h1ZM336,39h-1l1,-1ZM335,39h1l1,-1v1h-1ZM336,38h1ZM544,2h-1ZM186,192h-2v-1h1v-1h1l1,1ZM294,303v1v-1h-1v3h-1v-1l-2,-2v-2h1v-1l1,-1h-1l1,-1v2l-1,1v1h1v1l1,-1h1ZM295,296v1h-1l-1,-1h1ZM293,296v1h-2v-1h1ZM281,294l1,-1h1v2l-1,-1l-1,1ZM150,267h-1l-1,1v-1h-1v-2l1,1l1,-1l1,1ZM237,154h-1l-2,2h-1v-1h1v-1h1l1,-1h1h-1v1h1v-1h1v1ZM702,850v1h-1v-2h1v1h1ZM647,41h-2v-1ZM404,35l1,-1h1v-1h-1h2v-1h1v-1h1v1l1,1h4v-1h3v1h-8l-1,1h-1v-1h1h-1l-2,2ZM512,46h-1v-1h1ZM174,224h-1v-1h2v1ZM183,384v-1l-1,1v-1h-1v-2h1v1h1v1ZM320,276h-2v-1h1v-1h1v-1h-1l-1,1l-1,-1h2v-1h1v3ZM354,46h-1h1v-1h1v-1h1v1h-1ZM694,86v1h1h-2v-1ZM696,44l-1,-1h1v1h1ZM746,66h-1v-1h-1h1v1ZM295,295h-1v-1l1,1v1ZM346,168v-1l1,-1h1v1l-1,1ZM125,265v-1h-1v-1h1v1ZM137,270h-1l-1,1v1h-1h1v-1l2,-2v-1h1l-1,1ZM227,118v1h-1v-1h1l1,-1v1ZM215,114l2,-2v1l-1,1ZM245,105h-1ZM658,881h-1v1l-1,1v-1h1v-1ZM493,44h-1ZM147,290h-2v1h-1v-1h1v-1h1v-1h-1h1v1h1ZM234,97h-1v1v-1Z"/>
<path class="sw" d="M226,97h-1l1,-1v1v-1ZM542,52l-1,1l-1,-1h1ZM546,55h1ZM313,286v-1h1v1ZM275,295v1h-1v1h-1v-1h1v-1ZM308,285h-1v-1l-1,1h-2v-1h3v1ZM870,164l1,1h1h-1l-1,-1v-1ZM881,176h-1v-1l2,2Z"/>
<path class="sr" d="M881,176l1,1"/>
<path class="sw" d="M284,293v1h-1v-1h2ZM284,290h1l-1,1ZM310,261l-1,1v-2h1ZM283,293v-1h-1h2ZM280,295v1h-1v-1l1,-1ZM279,296h-1v-1h1ZM682,36h-1v-1h-1h1v1h3v1l-1,-1ZM693,42v1v-1h-1ZM693,42l1,1h1h-1ZM710,47h-2v-1h1v1h2v1v-1v1h1h-1ZM173,239v1h-1v-1ZM862,155l-1,-1Z"/>
<path class="sr" d="M861,154l1,1"/>
<path class="sw" d="M660,65v1h-1v-1ZM689,83h-1v-1h1ZM694,84h-1ZM713,90h-1v-1v1ZM710,86h-1v1h-1v-1h1ZM706,85h1ZM711,88v1h1h-1l-1,-1ZM246,149h-2l-1,-1v-1h2v1h1ZM133,271h-1v1v-1h-1v-1h2ZM779,86v1h1h-1l1,1h1v1h2v1h1l1,1h-1v-1h-1l-1,-1h-1v-1h-2v-1v1v-1h-1l-1,-1l-3,-1v-1v1h1l1,1h1l1,1v-1v1h1v-1h-1h1v1ZM751,75h-1l-1,-1h-1l-1,-1h-1l-1,-1h-1l1,1h3v1h2v1ZM823,118v1v-1h-1v-1h-1v-1h-1l2,1v1ZM834,128l-1,-1h-1v-1v1h1ZM716,70h1h-2v-1v1ZM370,692h-1v3l-1,-1v3h-1v-1h-1v-3h1l-1,-1h3ZM200,249h-1v-1h1v-1h1v1h-1ZM199,248h-1v1h-1v-2h1ZM146,183h-1v-1h1ZM115,269v1v-2h1ZM116,269v1h-1v-1h1v-1ZM147,151h1l4,-4h1v-1h1l-1,1v-1l-9,9v-1h1l1,-2ZM155,147v-1h1l1,-1h-1l1,-1h-1h1l1,-1v1v-1h1v-1v1l-1,1v1v-1h1v-1v1h-1v1h-1l-1,1ZM154,146l2,-2v1l-1,1ZM188,155v-1v2h-2v1h-3v-1h-1v-1h-1l-1,-1h-2l1,-1l-1,1h-2l-2,2h-1v1v-1l-2,2v1h-2l-1,1v1l-2,2v-1h1v-1l1,-1v-2h2v-1h1v-1h1v-1h1l1,-1h1v-1h2v-1h2v1l2,-1v2h1v1h2v-1v1h1l-1,1h1v-1h1h-1h2v-1h1ZM209,151h-1l-1,1v-3h-1v-1h3v-2h1l2,-2h2v-1h1l1,-1v-1h-1v-1h1v3h-1v1h-3l-3,3h1v1h-2v1h1v1ZM209,94l3,-3h1l1,-1h1v-1h2v-1h1h-1h1v-1v1h-1v1v-1v1h1h-1l1,-1h1v-1h1h-1v1h-1h1h-1h1h-1v1h-2l-1,1h-1l-1,1h-1v1h-1v1h-1l-1,1h-1v1v-1h1h-1v1h-1v1h-1l-1,1l1,-1l-1,1h-1v1h-1l-1,1l1,-1h1v-1l1,-1h1l2,-2ZM143,520h-2l-1,-1v-1l1,1h1h-1v-2h-1v1l-1,-1v-1h2v1l1,1v1ZM654,884v-2h1v-1v2h-1ZM652,885v-2h1h-1h1v1h-1ZM751,75h-1l-1,-1h-1l-1,-1h-1l-1,-1h-1l1,1h3v1h2v1ZM823,118v1v-1h-1v-1h-1v-1h-1l2,1v1ZM305,126v1h-2l-1,2h-1h1l1,-2l1,-1l-1,-1h1v-1l2,-2h1v-1l5,-5v-1h1v-2l1,-1h-4v1h-1v2l-1,1v1h-1l-1,1v-1h2v-1l1,-1h-1v-2l-1,-1h2l1,-1h1l-1,1h1l1,-1h2v1h1h-1v1l-1,1v1h-1v1l-1,1v1h-1l-2,2v1l-1,1v1h-1l1,-1h-1v1h-1v2h-1v1ZM354,51h-1ZM355,50h-3v-1h1v1l1,-1h1v1h1ZM355,47h-1h2l1,-1h1v1h1h-3ZM804,104h1l-1,-1l1,1l-1,-1h-1l-1,-1h1l1,1ZM878,173v1ZM704,44l-1,-1h-1h1l1,1v-1v1h1h-1h2v1v-1h-1ZM867,161l2,2v1v-1h-1v-1ZM862,155l1,1ZM134,183v1h-1ZM373,81l1,-1h-2v-1h1h-1v-1h1v-1h-1v1l-1,-1h3v1h-1v1h1v-1v1h-1v1h1v-1l1,-1h1l-1,1h2v-1l1,1h-1v1h-1h2v-1l1,-1h-1h1v1h-1l1,1h-1v1h-2v-1v1l-1,-1h2v-1h-1v1h-2v1l-1,1h-1v1h1h-1v1v-1l-2,2v-1h-5l-1,1v-1h2l1,-1h1l1,1h2v-1h1v-1h-1h1Z"/>
<path class="sw" d="M475,135l-1,1h-1l1,-1ZM606,73h1h-1h1v1h-1v-1h-1ZM438,260v-1h1l1,1l-1,1l-2,1v1v-2ZM733,69l1,1h2v1v-1h-2l-1,-1h-1ZM725,91v1h-3v-1h2ZM692,83h-1ZM717,83v-1v2ZM723,82v-1l2,1h-1ZM697,80h-1ZM694,83h1v1h-1v-1h-1ZM686,81h1h-2v-1ZM680,76h1h-1v-1ZM242,141h-1ZM161,254v1h-1v1l-1,-1h1v-1h1v-1ZM158,254h1v1h-1v1v-1ZM105,256v-1ZM160,267v-1h1ZM142,265l1,-1v1ZM120,242v2h1h-1v-1ZM193,125h1l-1,1h-2v1l-1,1v-1l2,-2v1ZM201,112v-1h1l1,-1l-2,2h-1ZM708,45h-1h1v1ZM329,749h-1l-1,-1v-2h2v1ZM371,743h-1l-1,-1v-1h2l3,-3h1l1,1l-1,1v1h1l-1,1v1h-2ZM435,814v-1l1,-1l-2,-2h-1v-1h-1v-1l-2,-2h1l1,1h4v2l1,2v3h-1ZM448,810v2l-1,-1l1,-1v-2l-1,-1h-1v-1h1v-2h-1v-1h-1l-1,-1v-1h-1v-1h1l2,2h1l2,2v1h1l-1,1h1v2ZM316,791h-1v-2l-1,-1v3h-1v-2h-2v-1l1,-1h3v-1h1l1,1h-1l-1,1v1l1,1ZM464,806h-1v1l-1,-1h-1v-1h-1l2,-2l1,-2h1v4ZM446,794h-1l-1,1h-2v-2h3l1,-1v1ZM448,792h-5v-1h-1l-1,1l-1,-1v-6h-1v-1l1,-1l3,1l1,1h2v4l2,2Z"/>
<path class="sb" d="M825,120l2,2v1h1v1M667,40l3,1l6,3l3,1l4,2l3,1l6,3l3,1l2,1l2,2l2,1l3,1l8,4l3,2l6,3l2,2l2,1l3,1l2,1l2,2l4,2l2,2h2l-1,-1h1v1v-2l2,2h2l1,1h1l1,1h2v1h2l1,1v-1h-1v-1l-2,-1l-1,-1v-1l1,1h1v1h3v1h2v1h2l1,1h1l1,1h1l1,1h1v1h1l1,1h1l1,1h2v1h1l1,1h1v1h2l1,1h2l1,1h1v1M39,309h-1h1v-3l1,-1v-2h1v-2h1v-2l1,-1v-1M28,335v-1h1v-2l1,-1v-1l1,-1v-1l1,-1v-2l1,-1v-2h1v-2l1,-1v-2l1,-1v-1l1,-1v-1l1,-1v-2l1,-1v-2l1,-1v-1l1,-2l1,-1v-1l1,-1v-1h1v-2l1,-1v-2h1v-2h1v-1v1h-1v1h1v-1M49,286v1v-1h1v-1l1,-1v-1M23,349v2l-1,2v2l-1,1M207,419v-3h1l1,-1v-1l-1,-1v-1h-1v-2h-1v-1h1l1,-1v-1h-1l-1,-2l-1,-1v-1l-1,1v-2h-1l1,-2v-1h-1v-2l-2,-2v-1l-1,-1v-1l-1,-1v-3h-1l-1,-1v-2l1,-1l-1,-1l-2,-1l-3,-3v-1h-1v-1h1v-1h1l-1,-1h4l1,-1h1v-1l1,-1v-2l-1,1v-2h-1l-1,-1h1v-1h1v-1h-1v-1l-1,-1h-1l-1,1h-1v1h-1v-1h-1l-1,-1h-1v-5l1,-1v-2h-1v1h-1v-3l-1,-1v-2M191,421v1h1v1h2l1,1v1h1l1,-1v-1l-1,-1v-1h2v-1h2v-1v1h1v1l1,1h1v-1h2v-1h1l1,-1v1l-1,1v1l-1,2v1l1,2v3l-1,2v6l-1,1v1h-1v-1l-2,2h-2l-1,1h-2v2h-2l-1,-1v1h-1v4l2,2l-1,1v1l-1,-1h-1v-1h-3v1l-1,-1h-1v2h-1v1h-2l-1,1M179,357l-1,1h-1v1h-1l-1,1v1h-1v2h-2l-1,1v2l-1,1M145,452l1,-1v-3h1v-1l2,-2l2,-3l1,-1v-1l1,-1v-3l-1,-1v-2l1,-1h-1v-6l1,-2v-3l-1,-1v-1l-1,-2l-1,-1v-2l-1,-1v-4l2,-2l1,1v-2l1,-2v-2l2,-1v-2l-1,1v-6l-1,-2v-2l-1,-1v-2l-1,-1l1,-1v-3h-1v-2h2v-1l1,-2v-1l1,-1v-3l1,-1h1v-1h1v1h2l1,-1h2v-2h3l1,-1v-1h3v1h1v-1h1v4h-1v3l1,1h1v-1h1l1,1v5l-1,1l-1,2l-1,1v4l-1,1l-1,2v1h1l2,-2h1l2,-2h1l1,-1h1v1l1,1h1l-1,1h1l1,-1h1l1,-1v-1h1v-1h3l1,1h1v1l1,2v1l1,2l1,1v4l-1,2v3l1,1v2l1,1h1v3h1v2l-1,1v1h-1v6h-1v1h-1v1h-1l-1,1v-2h-8v-1h-4l-2,2v1h-1v1l-2,2v1h-1v8l1,1v7M221,362v-1l-1,-1h-1l-1,1v-1h-1v-1h-1v-2l-1,1v-1h-1v-5h1v-1h1v-1l-1,-1h-2v-1h-2v1l-2,-2v-1l-1,-1h-1l-1,1h-1l-1,1v1l-1,1h-3v-1v1h-1v1h-1v1l-1,-3l-1,1v1h-1v-2l-3,3l-1,-1v-1l-1,-1h-1v1h-1v1h-1v1v-1h-3v1h-1v7l-1,1v2h-1v-1h-2v-5l-2,1l-1,1h-3v-5l-2,-1h-2v-1h1v-1l1,-1v-2l2,-2v-1h-2l-1,-1v-3l1,-1v-1l-1,-1h1v-1l1,-1h-5l-1,1h-2l2,-2v-4l1,-1h1v-2l1,-1v-1h2v-1l1,-1h1l1,-1v-1h2v-2l1,-1v-2l1,-1v-1l1,-1v-3h1v-4h-1v1h-1h1v-7h-1v-1h-1v1h-1v1h-1M366,223l1,-1l2,-1l1,-1h1v-1h2l1,-1h2v-1h2l1,-1h1v-1h1l1,-1v-1h1v-1l1,-1h2v1h1v1h5v1h1v-1h1v-1h-1v-3h7v-1h1v-1h3v-2h1v-1l1,-1h1l1,1v1l1,1"/>
<path class="sb" d="M377,240v-1l2,-2h1v-1h8v-1h1v-1h1M123,228v1h1v1h1M348,154l-1,1l-2,1l-1,2l-1,1h-1v1h-1v1l-1,1h-1v2h-2l-1,2h1v1h2l1,-1l1,1l1,-1l1,1h1l1,1l2,-2h5v2h2v2h1h-1h1v2h1v3h-1l-1,1l-1,-1h-2l-1,-1l-1,1h-1l-1,-1l-1,1h-2v1h-1v-1h-1l-1,1v1l-1,-1h-2l-1,1h-1v1h-1l-3,3h-2l-1,1h-6l-2,2h-1l-1,1h-1l-1,1h-3l-1,-1h-1l-1,-1v-1h-3l-5,5v2h1v3h-2l-1,1h-3v1h-1l-1,1h-1v1h-1l-1,1h-1l-1,1h-3v1h-17l-4,2h-3l-1,1h-1v1h-2l-2,-1l1,-1h-4l-1,-1h-1v-1h-1l-1,-1h-2l-1,-1v-2h-1l-1,-1h-3l-2,-1h-6l-4,-2h-6v-1h1v-2l-1,-1h1v-1l1,-2v-3l1,-1h-1l-1,-1v-1l-2,-2v-2h-1l-1,-1h-3v-1h-3v-1h-1h1v-2l1,-1v-1h1l1,-1h1v-1l4,-4v-3l1,-1v-1h1v-3l-1,1v-2h-2l1,-1h-1v-1h1v-1l-1,-1l1,-1v-1h1v-1l1,-1M410,208v-1h-1v-1h1v-1h-1v-1h4v-1h1v-1l1,-1v-3l1,-2v-5h-1v-1h2l1,-1h1l1,-1h1v-1h1v1h3l1,1h3v-2l1,-1h1v-1l1,-1v-1h1v-1l1,-1h1v-2l1,-1v-1l2,-2l-1,-1h1v-1h2l1,-1v-3l1,-1h-1v-1h-2l-2,1h-1l-1,1h-4l-1,1h-1v1h-9v-1l-1,-1v-2h1v-1h-1v-3h-3l-1,-2v-1h-3l-1,-1h-1h1v-1h-6v-1h-1v-1l1,-1v-1l-1,-1v-1h1v-2l-1,-1v-5l-1,-1v-3l-1,-1h1v-1h-1v-1h-1h1l-1,-1h-1l-1,-1h-1v1l-1,-1h-1l-1,-1h-1l-1,-1h-8l-2,1h-4l-1,1l-2,1h-2v1h-1v1h3v1h-1v2l-1,1h-1l-2,1l-3,3h-1v1l-1,1h-1v1h-1v1h-1v1h-1h1v1l-1,1h-1l-1,1h-3l-4,2h-2l-1,-1h-1l-1,-1v-1h-6l-1,-1v-1h-2l-1,-1h-1v1h-3l-1,1h-1l-2,2h-1l-1,1l-1,-1h-1l-2,1h-4l-3,1h-3v-1h-3v-1h-4v-1h-1v-2h1v-1h-3v-2h-1v-1h-3v-1h-7v1h-5v-1h-1l-1,-1v-3h1v-1l1,-1v-1h-1v-1h-1l-1,-1h-1v-1h-2l-1,-1v-1h-1v-1h-1l-2,2h-2v1h-1v1l-1,-1v1h-1v1h-1l-1,1v1l-1,1v2l-1,1h-1v1h-1l-1,1h-3v1h-1v-1l-1,-1h-1l-1,-1v1v-1h-1l-1,1v-1h-3v-2h1v-1l1,-1h-3v-1h-1v-1h-1v1v-2l-1,1h-3v1h-3l-1,1h-2v1h-3v1l-1,-1v1h-1v1h-2l-1,1h-1v-1v1h-3v1h-4M156,137h1v-1h1v-1h1v-1h1h-1l2,-1l6,-6M175,120l1,-1h1v-1M179,117l3,-3h1v-1h1l-1,1l-2,1l-1,1h-1h1l2,-2h1l2,-2h-1h1l1,-1h1v-1h1v-1h2v-1h1h-1v1h-1h1l-1,1v1h-1l-5,5h-1h1l1,-1h1v-1l-1,1v1h-1v1v-1h1l1,-1h1h-1h1l-1,1h1v1h-1l-1,1v1l-1,1h1v-1h1l1,-1l-1,1v1l2,-2h1l1,-1h1v-1l1,-1v-1h1v-1h1v-1h2v-1v1v-1h1l3,-3h1l1,-1v1h1v-1h1v-1l1,-1h1v-1h1v-1h1l1,-1v1h2v-1h3v1l1,-1h1l1,-1v1v-1l1,1h1v-1h3l1,-1h2l1,-1v2h1l-5,5h-1v1h-1h3l-1,1h-1v1l1,-1v1h1l-1,1h-1l-2,2h2v1v-1h1l1,-1h3v-1h2l1,-1h2l-1,1h-1l-2,2v2l-1,1v1l-2,2l-1,2l-1,1l-1,2l-1,1l-3,5l-2,2h1v-1h2v-1h2v1h-1v2h-1h2v1h1l1,-1h3v1l-1,1v1l-1,1v2h1h-1v1l-1,1v1l1,1h2l1,-1h1l-1,1h-1h1v1l-1,1v1h-2v1h-1l-2,2h-1l-1,1h-2l-6,6v1h-1l-1,1h-2v1h-1v-1h-1v-1v1h-1v-1l-1,-1v-1v1h-1v1h-1l-2,2l-2,1l-1,2l-1,1l-2,1l-2,2h1l-2,2h-2v-1h1v-1l-1,1h-5l-1,1h-1v1h1v1h-1v1h-1l-1,1v1h-1v1l-2,2v1l-1,1v1l-1,1h-1l-1,1v1h-2v1l-1,1v1l-1,1h-1"/>
<path class="sb" d="M112,273v1h1l1,-2h2v4l1,1v2h1v1l-1,1v1l1,1v-1h1v5h1l-1,1h2v1l-1,1v1h2v3h1v-1v1h1v1v-1l1,-1h1v2l1,1h4M132,301l6,-6h1l1,-1h1v1h1l-1,1h1v1h2v1l1,-1l1,1v2M121,233l1,-1h1v-1h2v-1v1h1l-2,2v2l-1,1v5h-1l-1,1v1h-1v2l-1,1v3h-1v2h-1v1l-1,1v1h-1v-1h-1l-1,1v1l-1,2v1l-1,1v1l-1,1v1h1v4h1v2l-1,1l1,1v3h-1l-1,1v1l-2,1v1l-2,2v1h-1v1l-1,1v3l1,-1v3h1v4h1v1l1,1h1v1h-1v1h1v1h1v1v-1h1l1,1v-1h1l1,1v1h1l-1,1v1l1,1v2h2v2l1,-1v1h1l1,1v1l2,-1v2l1,-1v1h3v-1l1,-2l1,-1v-2l1,-2v-1l1,-1v-1h1v-1h1v-1h2v2l-1,1l-1,2v1l-1,1v3h2v2h3v-1h2v1h7v-2h1v-1h1v-1l-1,-1h-1v-2h5l1,-1h1v-2h1l1,-1h1v-1l1,-1h3l1,-1h1v-1h1v-1h1l1,-1h2v1h-1h2v1h2v-1l2,-1h1l1,-1v2h1l-1,1h-1v1l-1,1h1l1,-1v2l-2,2v1h2v1h2v3l-1,1h-1v1h-2v5h-1v-2h-4l-2,2h-1l-2,2h-1l-1,1v1l-1,1v2h-1v1l-1,1v1h-1l-2,2v1h-1v1h1v1l-3,3v1h-1l-1,1v2l-2,2l-1,-1h-2v-1l-1,2v2l-1,2v1l-1,1h-1v1l-1,1v2l-1,2v1h-1v2h-1v-2h-1v1M124,217h1v1v-1v1h1l-1,2v-1l1,1l-1,1v1l-1,2h-1v2l-1,1h1v3l-1,1v1l-2,2h-1v1h-3v1h-1l-1,-1v-1h-1v-1h-1l-2,2v2h-1v2l-1,1h-1v2h-1v1l-1,1v2l-1,1v1h1l-2,2h1v3h-1l-2,1v1h-1v1l-1,1v1l-2,2v1h-1v1l-1,1l-2,1v1h-1v2h-1v1h-2l-1,2v1h-1l-2,4h-1l-4,4v1l-3,3h-2v-2h-1v1l-2,2l-1,2h-1v1l-2,2v2l1,1l-1,1v1l-1,1v1h-1v3h1h-1v2l-1,1v2l-1,2v2h-1v2h-1v1h-1v-1h1v-1h-1l-1,1v1h-1v-2h-1v-1v1l-1,2h-2v1M117,344v-1l1,-1v-5h1v-1l1,-1v-1h-1v-4l2,-2v-1l1,-1v-1h-1v-1h-1v-2l1,-2h1l1,-2h3v-2h-1v-2l-1,-1v-1l2,-2v-1h1v-2h1v3h1v-1h1v1h-1l1,1v1h1v-1h1v2l-1,1v2l-1,2l2,2h4l1,1h3l1,1v2l-1,-1v1l-2,2v1h-1v1h-1v1v-1h-1v1h-2v1h-1v2l-1,1v2l-1,2l1,1v-1v1h2v-3h1l1,-1v-1h2l-1,2v2l-1,1v5l-1,1v4l-2,4v1l-1,-1h-1v3l-1,1v1M145,178v-1h1v-1h1l1,-1h1l1,1v3l4,-4h1v-1h1v3h1v1l1,-1h1l1,1h2v1h3v2l1,-1v1h-1v2h1v1l-1,1v1h-2v1h-2l-1,1h-2l-1,1h-1v1l-2,1h-4l-1,1h-1v1l-1,1h-1v1v-1l-1,1v-1l-1,1l1,-2v-1l-1,1h-2v1h-1l-1,1h-1l-1,1h-1v1l-1,1v1h-1M133,192h-1v1h-1v-2l-1,1h-1v1v-1v1h-1v1h-1v1h1v1h1v1h2v-1v1h-1l1,1h-1v1h1h-1v1l1,-1h3v1l-1,1v1l-2,2v1h1v2l-1,1v1h-1v2h-1v1h-1v2l-1,1h-1v1M125,173l1,-1l1,-2l2,-1l1,-2l4,-4l1,-2l2,-1l1,-2l4,-4l2,-1l1,-2l1,-1h1v-1h2l1,-1h1l-1,1v1h-1v1l-1,1v1h-1v1l-1,1v1h-1v1l-1,1v1h-1v1l-2,2v1l-1,1h2l1,1h1v-1v1l-1,1v1l-2,2v1h-1h1v1h-1l-3,3v1l-1,1v1l-3,3v1l-1,1v1h1v2h-1v1h-1v1h1v-1h1v-1h1l3,-3h1l1,-1h1l1,-1h1v-1h2v-1h1v1h-1l-1,1h-1l-1,1l-2,1v1h1l-1,1v2l1,-1h1v-1h1v-1v1h-1v1l-1,1h1v1h-1v2h1v1h-2l-1,1v-1v1h-1v1v-1l-1,1h-1v1h-1l1,-1h-2v-2h1v-1h1v-1h1v-1l1,-1l-1,1h-1l-1,1h-1l1,-1h-1v1h-1l-1,2l-1,1v-1h-1v1l-1,1v1h-1l-2,2v-2l-1,1h-1l-1,2v1l-1,1h1v1h-1l-1,1v1l-2,2v1l-1,1h-1v1l-2,2h-1l-1,2"/>
<path class="sb" d="M127,167h1l1,-1v-1h1v1h-1v1l-1,1v1h-1l-1,1v1l-2,2h1v1h-1h1v-1h1l1,-1l1,-2l1,-1h1l1,-1v-1h1v1h-1v1v-1h1v-1l1,-1h1h-1v2h-1v1h-1l1,1h-1v1h-1v1h-1v1l-2,2v1h-1v2h1l-1,1v1h-1l-1,2l-1,1v1l-1,1l-1,2h-1v1l-1,1v1l-1,1v1l-1,1v1l-1,1h1l-1,1v2l-1,1v1l-1,1h1v1l-1,1v1l-3,3v1M96,216v2h-1h1v1h-1v1h1v-1h1l1,-1v-1h1v-1h2v-1h1v-1h1l1,-1v-1l1,-1l2,-1v-2h2l2,-2v2l1,1l-1,1h1v1h-1v1h1v-1h2v-1v2l3,-3h1v1v-1h1v-1l3,-3h1v-1h1v1l-2,2v2l-1,1l-1,2l-2,2l-1,2l-1,1h1l2,-2h1l1,-1h1l1,-1h1v1h-1v1h1v-1h2v1h-1v1h-1v1h-1l-1,1v-1h-5v1h-1v1h-1l-1,1h-1v1h-1v2l-1,1v1l-2,2v1h-1v1h-1v1h-1l-1,1v1h-1v1l-1,1v1l-1,1h-2v-1l-1,1v1l-1,1v2l-1,1h-1v1l-1,-1v1l-4,4v1l-2,3l-2,2v-2h-1v1h-1l-1,1v1h-2l-4,4v1l-1,1v1l-1,1v1h-1v1h-1l-1,1h-3v1v-2h-2v-1l1,-2v-2"/>
<circle class="w3" cx="500" cy="441" r="31"/>
<circle class="w3" cx="500" cy="441" r="29"/>
<circle class="c3" cx="500" cy="441" r="30"/>
<path class="sg" d="M 255.0123 935.0755 A 249.7500 29.2415, 0, 0 0, 743.9877 935.0755"/>
<path class="sg" d="M 67.9235 750.9796 A 432.5797 50.6478, 0, 0 0, 931.0765 750.9796"/>
<path class="sg" d="M 0.0000 499.5000 A 499.5000 58.4830, 0, 0 0, 999.0000 499.5000"/>
<path class="sg" d="M 67.9235 248.0204 A 432.5797 50.6478, 0, 1 0, 931.0765 248.0204"/>
<path class="sg" d="M 255.0123 63.9245 A 249.7500 29.2415, 0, 1 0, 743.9877 63.9245"/>
<path class="sg" d="M 540.6331 997.3035 A 286.0312 499.5000, -4.72357690, 0 0, 458.3669 1.6965"/>
<path class="sg" d="M 622.2537 983.6816 A 450.3591 499.5000, -14.22634802, 0 0, 376.7463 15.3184"/>
<path class="sg" d="M 105.4644 806.4792 A 494.0136 499.5000, 52.07910214, 0 1, 893.5356 192.5208"/>
<path class="sg" d="M 417.7487 992.2646 A 405.2976 499.5000, 9.41976169, 0 1, 581.2513 6.7354"/>
<path class="sg" d="M 472.5311 998.2714 A 207.9824 499.5000, 3.09500877, 0 1, 526.4689 0.7286"/>
<path class="sg" d="M 504.8342 998.9715 A 45.0615 499.5000, -0.61188127, 0 0, 494.1658 0.0285"/>
<text x="0" y="0" class="fs" transform="translate(904,296) rotate(68)">150W</text>
<text x="0" y="0" class="ft" transform="translate(904,296) rotate(68)">150W</text>
<text x="0" y="0" class="fs" transform="translate(136,304) rotate(110)">90E</text>
<text x="0" y="0" class="ft" transform="translate(136,304) rotate(110)">90E</text>
<text x="0" y="0" class="fs" transform="translate(313,322) rotate(101)">120E</text>
<text x="0" y="0" class="ft" transform="translate(313,322) rotate(101)">120E</text>
<text x="0" y="0" class="fs" transform="translate(540,326) rotate(87)">150E</text>
<text x="0" y="0" class="ft" transform="translate(540,326) rotate(87)">150E</text>
<text x="0" y="0" class="fs" transform="translate(756,317) rotate(74)">180E</text>
<text x="0" y="0" class="ft" transform="translate(756,317) rotate(74)">180E</text>
<text x="0" y="0" class="fs" transform="translate(750,785) rotate(-3)">30S</text>
<text x="0" y="0" class="ft" transform="translate(750,785) rotate(-3)">30S</text>
<text x="0" y="0" class="fs" transform="translate(788,543) rotate(-5)">0N</text>
<text x="0" y="0" class="ft" transform="translate(788,543) rotate(-5)">0N</text>
<text x="0" y="0" class="fs" transform="translate(748,289) rotate(-5)">30N</text>
<text x="0" y="0" class="ft" transform="translate(748,289) rotate(-5)">30N</text>
<text x="0" y="0" class="fs" transform="translate(641,91) rotate(-3)">60N</text>
<text x="0" y="0" class="ft" transform="translate(641,91) rotate(-3)">60N</text>
<path class="tb" d="M127,998h-2l-1,-1h-2l-1,-1h-2l-1,-1h-2v-1h-3v-1h-2l-1,-1h-2v-1h-2l-1,-1h-2v-1h-2v-1h-2l-1,-1h-2v-1h-2v-1h-2v-1h-2v-1h-2v-1h-2v-1h-2v-1h-2v-1h-2v-1h-1l-1,-1h-1v-1h-2v-1h-2v-1h-1v-1h-2v-1h-1l-1,-1h-1v-1h-2v-1h-1v-1h-2v-1h-1v-1h-1l-1,-1h-1v-1h-1v-1h-1l-1,-1h-1v-1h-1v-1h-1v-1h-2v-1h-1v-1h-1v-1h-1v-1h-1l-2,-2h-1v-1h-1v-1h-1v-1h-1v-1h-1v-1h-1v-1h-1v-1h-1v-1h-1v-1h-1v-1h-1v-1h-1v-1h-1v-2h-1v-1h-1v-1h-1v-1h-1v-1l-1,-1v-1h-1v-1h-1v-1l-1,-1v-1h-1v-1l-1,-1v-1h-1v-1l-1,-1v-1h-1v-2h-1v-2h-1v-1l-1,-1v-1l-1,-1v-1l-1,-1v-2h-1v-2h-1v-3h-1v-2h-1v-4h-1v-3h-1v-5h-1v-6l-1,-1v-17h1v-7h1v-4l1,-1v-3h1v-3h1v-3h1v-2l1,-1v-2h1v-2h1v-2h1v-2h1v-2h1v-2h1v-2h1v-1h1v-2h1v-1h1v-2h1v-1h1v-1l1,-1v-1h1v-1h1v-1l1,-1v-1h1v-1h1v-1h1v-1h1v-1h1v-1h1v-2h1v-1h1v-1h1v-1h1v-1h1l3,-3h1v-1h1v-1h1v-1h1v-1h1v-1h1v-1h1l1,-1h1v-1h1v-1h1v-1h1l1,-1h1v-1h1v-1h2v-1h1v-1h1v-1h2v-1h1v-1h2v-1h1v-1h2v-1h1l1,-1h1v-1h2v-1h1l1,-1h1v-1h2v-1h2v-1h2v-1h1l1,-1h1l1,-1h1l1,-1h1l1,-1h1l1,-1h2v-1h2v-1h2v-1h2l1,-1h2v-1h2v-1h2l1,-1h2v-1h3v-1h2l1,-1h2v-1h3v-1h3v-1h159v1h3v1h3v1h2l1,1h2v1h3v1h2l1,1h2v1h2v1h2l1,1h2v1h2v1h2v1h2l1,1h1l1,1h1l1,1h1l1,1h1l1,1h1v1h2v1h2v1h2v1h1l1,1h1v1h2v1h1l1,1h1v1h2v1h1v1h2v1h1v1h2v1h1v1h1v1h2v1h1v1h1l1,1h1v1h1v1h1v1h1l1,1h1v1h1v1h1v1h1v1h1v1h1v1h1l3,3h1v1h1v1h1v1h1v1h1v2h1v1h1v1h1v1h1v1h1v1h1v1l1,1v1h1v1h1v1l1,1v1h1v1h1v2h1v1h1v2h1v1h1v2h1v2h1v2h1v2h1v2h1v2h1v2l1,1v2h1v3h1v3h1v3l1,1v4h1v7h1v17l-1,1v6h-1v5h-1v3h-1v4h-1v2h-1v3h-1v2h-1v2l-1,1v1l-1,1v1l-1,1v1h-1v2h-1v2h-1v1l-1,1v1h-1v1l-1,1v1h-1v1l-1,1v1h-1v1h-1v1l-1,1v1h-1v1h-1v1h-1v1h-1v2h-1v1h-1v1h-1v1h-1v1h-1v1h-1v1h-1v1h-1v1h-1v1h-1v1h-1v1h-1v1h-1l-2,2h-1v1h-1v1h-1v1h-1v1h-2v1h-1v1h-1v1h-1l-1,1h-1v1h-1v1h-1l-1,1h-1v1h-1v1h-2v1h-1v1h-2v1h-1l-1,1h-1v1h-2v1h-1v1h-2v1h-2v1h-1l-1,1h-1v1h-2v1h-2v1h-2v1h-2v1h-2v1h-2v1h-2v1h-2v1h-2l-1,1h-2v1h-2v1h-2l-1,1h-2v1h-2l-1,1h-2v1h-3v1h-2l-1,1h-2l-1,1h-2l-1,1h-2Z"/>
<path class="tl" d="M169,986h1v1h-3l-1,-1h2v-1ZM114,989h-3l-1,-1h2l1,1ZM176,983h1l1,1v1h1l-1,1h-2l-1,1h-1l-1,-1l1,-1v-2h1v-1ZM124,980h2v1h-1ZM122,980l1,1h-1l-1,-1ZM136,977h1h-2ZM156,974v1l1,1h-5v-1l1,-1v-1l-1,-1l1,-1v1h1l1,1ZM158,964v1h-2v2h1l-2,2v1h1l1,1h1l4,4v1l1,1v1h-1v2h-1l-1,1h-1v1h-2l1,1h1v1h-2l1,1h1v1h3l1,1h3l1,1h3l1,1h1l1,1v-1h1v-1h2l2,-1l1,1h1v-1h4v-1h3l1,-1h-1v-1h-4l-1,-1l1,-1h1l2,-2h4l1,-1h1l2,-2h-1v-1h1v-1h2v-1l1,-1h1v1h1v-1h8v-1h3v-1h1l1,1h2v-1h1v1l1,-1h4v1h6v-1h3v-1h2v1h3l1,-1h3v-1h2l1,-1h2l1,-1h4v1h1v1h1l1,1h1l1,-1l1,1h2v1l-2,2h-1v1h1h-1v1h-1v1h2l2,-2h1v-1h3l1,-1h1v-1h2l1,-1h5v-1h1v1h5v1h1l1,-1l1,1l1,-1h1l2,-1v1l1,1h3l1,-1h2v1h1v1h4l1,-1v1h9l1,-1l-1,1v1h-1h3l1,1h2l-1,1v1h1v1h2v1h1v2h2l1,1v1h-1l-1,1h-2l-1,1h-3l-1,1h-2l-1,1h-2l-2,2v1h-5l-1,1h-2v1h-1v3h2l-11,4h-155l-11,-4h-1h2l1,-1l1,1h14l-1,-1h-7v-1h-2v-1h-3l-1,-1h4v-1h-2l-1,-1h-7l-1,-1l-2,-1l1,1l1,-1l2,1v-1h1v-1l-1,-1h-1h2v-1h2v-1h4l1,-1h5l1,-1l1,1v-1h1l1,1h1v-1l1,1h6v-1h-2l-1,-1h-1l-1,-1h4l1,1h1l1,-1h3l-1,-1h1l1,1l1,-1l1,1h3v-1l1,1h4v-1h2l1,-1v-1h-1v-1h-1v-1h-1v-1h-1v-2l-1,-1v-1h1v-2h1v-1h1v-1h1l1,-1l1,1ZM144,951l2,1h1v1h-1v-1v1h-4l-2,-2l-2,-1l2,1h2v-2h1v1ZM151,947h1v1h-2v1l-1,-1l1,-1ZM269,946h-1v-2h1l1,1ZM345,939v1h1l1,-1v1l-3,3v-1l-1,1h-1l1,-1v-1l1,-1v-1ZM368,943v1l1,-1v1h-1l-3,3h-1l-1,1h-1l-2,2h-2v1h-1v-1h-1v-1l4,-2h1l1,-1h2l2,-2h1l2,-2ZM376,936l-1,2l1,-1l-1,1l1,1h1l-2,2h-1l-2,2l-2,1h-1l2,-1v-2l1,-1l2,-1v-1l1,-1v-3l1,-1v1l1,1ZM382,913l-1,1v-2l-1,-1v-1h1v1l1,1ZM397,906v1l-1,1h-1v-1l1,-1v1ZM398,906h-1v-1h1l1,-1v1ZM10,905v-1ZM386,904v-1ZM386,901v2h-1v-1ZM259,895v2l1,1h-1v1v-1v2h-1v3l-3,6v2h-1l-1,1l-1,-1h-1v-5h1v-2l1,-1h-1v-3h1v-1h1l2,-2h1v-1l1,-1v-1l1,-1v1ZM361,898v1h1v1h1l-1,1v2h1l-1,2v1l2,2v4h1l-1,2l1,1v3l-1,1v2l-3,3v1l-1,1l-1,2h-1l-1,2h-1l-4,4v1h-2l-1,1h-1l-1,1v-1h-1l1,-1h-1l-1,1h-1v-1h-1v-3h1l-1,-1v-1l1,-1l-1,1h-1l3,-3l-2,1h-1l-1,2v-4l-2,-2h-2l-1,1h-4l-2,2h-4l-1,1v-1l-1,1h-2v-1h-1l1,-1v-1h1v-3l1,-1v-7l1,1v-3l1,-1v-1l1,-1l-1,1l2,-2h1l1,-1h2l1,-1h2v-1h1l1,-1v-2l1,-1v2l1,-1v-1h1v-1l2,-2h2v1h2v-2h1l1,-1v-1h2v-1h-1h1l1,1h3l1,1h-1v1h-1v1l-1,1v1l2,2v1h1l1,1h1v-1l1,-1v-1l1,-1v-3l1,-1v-2h1v-1v3l1,1Z"/>
<path class="tl" d="M383,894h-1v-1v1ZM337,892l-2,-1h2ZM381,893h-1v-1h1ZM382,892v-1l-1,-1h1ZM341,892h-1l3,-3h2l-1,1h-1l-1,1ZM335,889h1v1h-3l1,-1ZM340,889v1h-3v-1h2ZM381,890v1l-2,-2h1v1ZM378,889v-1h-1v-1l1,1ZM325,887h2v-1l2,1v1h2l1,1l-1,1l-1,-1h-4l-1,-1h-1l-2,-1h-1l1,-2h1l1,1ZM353,886v1v-2ZM377,888h-1v-2l-1,-1h1v2h1ZM373,885l-1,1h-1l-1,1l-1,-1h-1l1,-1l1,1v-1h2v-2h1v1ZM345,882h-1v-1h1ZM349,881v2l-1,-1h-2v-1h2ZM374,884l-1,-1v-1l-1,-1h-1h2v2h1ZM353,878v3l2,1v-2l2,-1h1l1,1h1l1,1l4,2v1h1v1l2,1v1h-1v1l1,1v2h1v1h1h-1l1,1l-1,1v-1h-2l-1,-1v-3h-3l-1,1v1h-2l-2,-2v1h-2l1,-2h1l-1,-2v-1l-2,-1h-1l-1,-2l-1,1l-1,-1h1l-1,-1l1,-1h-1v-1h-1l-1,-1h2v-1ZM343,875l-1,1h-4v1l1,2v-1h2l-1,1h-1l1,2v1l1,2v1h-1v-2l-1,1v-1l-1,-1l1,-1h-1v4h-1v-3h-1v-1l1,-1v-4h1v-1h4l1,-1ZM347,875v1h-1v1l1,1h-1v-4h1ZM321,885h-1l-2,-2v-1l-2,-2l-1,-2v-2l-1,-1v-1l-4,-4v-1h2l3,3l1,2h1l2,2h1l-1,2h1v1l1,1h1v3ZM335,874l1,1h-1v3l-1,1v1l-1,3v-1l-1,1l-1,-1h-1v-1l-1,1l-1,-1h-1l-2,-4v-2l1,-1h2v-2h2v-1l1,-1v-1h1l1,-1v-2h1v1l2,2v1h-1l-1,2l1,1ZM344,864v3l-1,-1v2l-2,-2h1l-1,-1v1l-1,-1l-1,1v-1l1,-1h2v-1h1v-1l1,1ZM294,868h-1v-1l-1,-2l1,-2l1,1v1l1,1v1ZM137,863h-1l1,-1h1ZM341,861v1l-1,1l-1,-1l1,-1v-1v1l1,-1ZM335,863l-1,1v-1l1,-1v-1l1,-1v1l-1,1ZM338,859h2v1l-1,1v-1h-1ZM342,858l1,2h-1v1v-1h-1v-1h1h-1v-1ZM338,857l-1,1l-1,-1h1ZM336,849h1v6h1l2,1v2l-1,-1v-1v1l-1,-1h-2v-1h1h-1l-1,-1v-5ZM133,851v1h-1v-1ZM121,852h-1v-1h2v1ZM126,849h3v1h1v1h-2l-1,1v-1h-1v-2h-1ZM324,849l-1,1h-1v-2l1,-1h1v1ZM37,846v-2h1v2ZM38,844h-1v-1h1ZM119,845h2l1,1v1h1v1h2l-1,1h-3v-1h-1v-2h-2l-1,-1h-1h1h-2l-1,1h-1l2,-2h3ZM122,843h-1v-1l1,-1v1ZM334,843v1l-2,-2v-2l1,-1l1,1ZM122,839l-1,1v-1ZM123,839v1v-1h-1ZM340,825h1v1h-1v1h-1v-2ZM240,828l-2,2v-1h-1h2ZM229,828v1h-1ZM220,825v2h-1l-1,-1h-1v-1h2ZM214,821v3h-1v-3ZM344,820v1l1,1v1l-1,1h-1l-1,2l-1,-1v-1l-2,1l-1,1h-1l2,1v3l-1,-1v-1h-1l-1,-1l1,-1v-3h3v-3l1,1v-2h1l-2,-4v-1l3,3v1ZM214,820v1l-1,-1v-1l1,-1ZM340,810l1,-1l1,2h-1v2l-2,-1l1,2h-1l-1,-2l-1,-1h1l-1,-2l-1,-1l3,1ZM144,812l1,1h1h-2ZM147,809h-1l-1,-1h1ZM92,806h-1l-1,-1v-2h-1v-1h1l1,1v1l1,1ZM153,807l-1,1h1v1h2l-1,1h1v1l-1,2l-1,-1l1,-1l-2,1v-1h-3l1,-1h-1l4,-4h1Z"/>
<path class="tl" d="M90,797h1l-2,2v1v-3ZM332,800l3,3l-2,-1l1,2l2,2v1l-2,-2l-1,-2l-6,-6v-1h-1h1l3,3ZM198,806l-1,1h-2l1,-2v-1l2,-2h1v3ZM216,801l-1,2l-1,-1v-1h1ZM79,791h-1v-1h2ZM202,797l-1,2h2v1l-1,1h1l2,4h1v1l-1,1h1l-1,1h-3l-1,1h-2l2,-2h-1v-1h1l-1,-1v-1h2l-1,-1h-1v-2l-1,-1l1,-2v-1l1,1ZM75,786h-1v-1h1ZM141,790l-1,1v-1ZM139,790h-2l1,-1h1ZM78,780v1h1h-2v-1ZM139,786h1v1h1l-1,1h1l-1,1l-1,-1h-1l-2,1l1,-1h-1h1l1,-1l1,-2ZM193,787v1l1,1l-1,1h-3l-1,1l-1,-1h-2l1,-1h-1h1v-1h-2l1,-1h1l1,1l2,-1h2ZM147,784h-1l1,-1h2l-1,1ZM81,776v1l1,-1h2l-1,2h-3l-1,1h-1l-1,-1h1v-1h-1h1h-2l-1,1l8,-5v1l-1,2ZM135,780l-1,1v-1h-1l1,-1h1ZM322,771h-1ZM88,771h-1h2ZM139,780l-1,2l2,-1v1h-1v1l1,-1l2,-1l1,-1h2v2h-1v1l-1,1l-2,1h-1v-1l-1,1l-2,1v1h-3l-2,2h-1l-1,1l-2,1l-1,1l-1,2h1l-1,1v1h1l3,3l2,1h1l-2,2v2l1,1h1l2,-4h-1l4,-2v-1l1,-1v-1l-1,-1l2,-1l2,-4l1,1h1l1,-1v1l1,1h1v2l-1,1l1,1h2l1,-2h1v3l1,1l-1,1l1,1v1h1l1,1v1l1,1l-2,2h-2l-2,2h-1l-2,-1h-2l-2,1l-1,1l-2,1l-1,1l2,-1l3,-1h2l-1,1l-1,2v1l1,1l2,-1l1,-1v1h1l-4,2h-1l-2,1v-1l2,-1h-3v1h-1l-1,1h-1l-2,2l1,1v-1v1h-3l-1,1l2,-1v1h-2l-2,2v1l-1,1l-1,-1l1,-1l-1,1v4l-1,1h-1l-1,1h-1l-3,3h-1v8l-1,1h-1v-3l-1,-1l1,-1l-1,-2l-1,1l-1,-1h-4v1h-1l-1,-1l-1,1l-1,-1l-2,2h-2v1h-1v3l-1,1v1l-1,2v4l1,1v1h1v1l1,-1h3v-1l1,-1v-1l1,-1h3v1l-1,1v2l-1,1v-1v2l-1,1v1h5v1h1v1l-1,1v3l-1,1h1v2h1v1h2l1,-1h1v1h1l1,1l1,-1v-2l1,-1h2l2,-2v2h-1h1v1l-1,1v1h1v-3h1v-1h1v1h1v1h3l1,1l1,-1h1l1,1h1v1l1,1h1v1h1v1l1,1l2,1v-1h1l1,1h1l1,1v1h1v1l1,2v1l-1,1l1,1h2v1v-1l4,2v1h1l3,1h1l2,1l2,2h2v5l-1,1l-1,2l-2,2v9l-1,2v2h-1v1h-2l-1,1h-1l-3,3v5l-1,2l-2,2v2l-2,2v-1l-1,1l-1,-1h-1v-1v1l1,1v1l1,1v2l-2,1h-3l1,1v2l-1,1l-1,-1h-1l1,2h2l-2,2l1,1v1h-1l-1,1v1l2,1h1v1l-1,1v2h-1v1l2,2h-1l-1,1v1h-1l-2,-1l-3,-3l-1,-3v-1l1,-1h-2l1,-2l-1,-2h1v-2l-1,-1v2l-1,-2v-4l-1,-1l-1,-2h1v-6l-1,-2v-8l-1,-2v-6l-1,-2l-1,-1l-2,-1l-3,-2l-1,-1v-1l-1,-2l-1,-3l-2,-3l-2,-2v-1l-1,-2l2,-2v-1h-1v-3l1,-1v-1h1v-2h1l1,-1v-5l-1,-1v-2h-1v1h-1v1h-1l-1,-1h-2v-2h-1v-1v1h-1v-3l-2,-2h1h-2v-1h-2l-1,-1l-1,-2h-1l-1,-1v1h-2l-1,-1h-2l-2,-2h-1l-1,-1v-1h-1v-3h1l-1,-1v-3l-1,-1v-1l-1,-1v-3h-1v-5l-1,-1l-1,1v4h1l-1,1h1v5h1v2h-1v-1l-1,-1v-3l-1,-1v1v-1h-1v-1h1v-9h-1v-1h-1v-9l2,-2v-1l1,-2l2,-2l1,-2l1,-1v-1h1v1l2,-2h-1v-2l-1,-1v-1l1,-1l-1,-1l1,-1v-1l1,-1l-1,-1l1,-1v-1l1,-1l-1,-1h-1v-2h-1v-1h-1l-1,-1h-1l-1,1h-4l1,-1l2,-1h-1l-1,1l-2,1h-1l-1,1l-2,1h-2l-2,1h-1l-1,1h-3l-1,1h-2l1,-1h2l2,-1h2l2,-1h1l2,-1l1,-1h-3l1,-1l-1,1h-1l2,-2h-1v-1l2,-2l2,-1h3l1,-1h1l1,-1h-3v-2h4l1,1l1,-1v-3h4l1,-1h2l2,-1l1,1l1,-1h1l-1,1h1l1,1h2l1,1h2v1l1,1l1,-1h6l1,-1v2l2,-1l-1,1h2l1,1h2v1l-2,1h4v1l2,-2h2v1h1l1,1h2v-1h1l1,1l-1,1l1,-1h1l1,-1v-2l1,-1l2,-1l1,1l-2,2Z"/>
<path class="tl" d="M128,774l-1,1h4l-1,1h1l2,-2v1l-1,2v1l1,1h-2v1h-8v-1h-1v-1h4l-1,-1h-3l2,-1h-1l1,-1h1ZM135,774l-2,1v-1h1ZM152,776v1l-1,-1l-1,1v-2h2ZM146,776v1l1,-1l2,-1v2h3l1,1l-1,1l2,-1v1l1,1v2h-1l2,2v1h1v1l-2,1h-1l-1,-2l-1,1v1l1,1v2l-1,1l-2,-2v1l1,1h-2l-2,-2v-1l-1,-1v1h-3v-1l1,-1h3l1,-1l2,-1v-1l-1,-1h-1l1,-1l-1,-1h-5l-1,-1h-1l1,-1h-1l1,-1l2,-1l1,-1h2ZM138,774h2l-1,1h-1l1,1l-2,1h-2v-2l1,1v-1ZM298,772h-2v-1ZM141,776l-2,1v-1l2,-2h2l1,1l-2,1ZM122,776h-2l-1,-1h1l2,-1l2,-2h2v1h2v1h-1l-3,1h-2ZM299,769v1h-3v-1h1ZM143,773v1l-1,-1h-1l1,-1h1l1,1ZM295,769l1,1h-2l-1,1l-2,-1l-1,-1h2ZM143,771h-1v1l-1,1h-2l1,-1h-1l1,-1h2ZM136,771h1v1h-4l-2,1h-1l1,-1h-1l-1,-1l2,-1h1l2,1l1,1v-2h2ZM246,780h-3l-2,-1v-1l1,-2h-1l1,-1l-1,-1h1l4,-2h2l-1,1l-2,1l-1,1v2l-1,1l1,1ZM145,770l1,1h1l-1,1h1l1,1h4v1h-7l-1,-1l1,-1v-1h-2l1,-1ZM134,769l-2,1h-4l2,-1h3ZM271,770l1,1v-1h2l2,1h1v1l-1,1h1l2,1v-1l1,1l1,-1h2l1,1h3l-2,-1h5l1,1v1h2l2,1l-1,-1h1l1,-1l2,1v-1h1l-2,-1h8l3,1l1,-1h2l2,2h2v-1h3l3,1v-1h-2v-1h7l8,5h-1l1,1l2,1h2v1h-1v1h-1l1,1v2l-2,-1v2l-1,-1v1h-1l2,2v1h1l3,2h-1l1,1h1v1l1,2h-1l1,2l1,1l-4,-2l-4,-3l-1,-2l-1,-1v-3l-1,-2v-1l-2,-2l-1,1l2,2l-3,-1l-1,1l1,2l1,1h-1l-1,1l-1,-1h-1v1h-4v7h1l2,1h1l-1,-1h1l3,1l1,2l1,1l1,2l2,2v9h-1l-1,-1v2h-1v1l1,1v1h-1v1l1,1h1l2,2v1l1,1v1l-1,1h-1l-1,-2l-1,-1h1l-2,-1v-1v1v-1h-1v-1l-1,-1h-2v1h-1l-1,-1l1,-1l-1,-1l-1,1v2h-1v1l2,2h1v-1h2l1,1l-2,1v2l2,2l1,2l2,1v2h1v6l-2,4l-1,1h-1v1l-1,-1v1l-2,1h-1v2l-1,-1v-1h-2l-1,2v2l1,1l1,2l2,2l1,3v4l-2,1v1l-2,1v-2l-1,-1h-1v-1l-2,-2h-1v-1h-1v6h1v3l1,1h1v1h1v1l1,1v3h1v2h-1l-2,-2v-1l-1,-1v-1l-1,-1v-2l-1,-1v-1h-1v-6l-1,-1v-1l-1,-2v-2l-1,-1l-2,2h-1v-3l-1,-2v-1h-1l-2,-2v-1l-1,-1h-1v2l-1,-1v1h-2v2l-2,1l-1,2v1l-2,2h-1v8l-1,1l1,1h-1l-1,1l-1,-1l-1,-2v-1l-1,-1v-1l-1,-2v-1l-3,-6v-3l-2,1h-1l-1,-2v-1l-2,-1l-1,-1v-1l-1,-1l-2,1h-5l-1,-1h-2v-2h-1l-1,1h-2l-3,-3l-1,-2l-1,1v-1l-1,1v2l1,1h1l1,1v2l1,1l-1,-1l1,-1v2h1v1l1,-1h2v-1l1,-1v-1v2l2,2h1l2,2l-1,1v1h-1v3h-1v1h-1v1h-2v1h-1l-2,2h-1l-2,2v-1l-1,1h-2v1h-2v-2l-1,-1v-3h-1v-1l-1,-1v-1l-1,-1h-1v-1l-1,-1v-3h-2v-2l-1,-1v-1l-2,-2v-1v1l-1,1l-1,-1l-1,-2l1,2l1,1l1,2v1l2,2h-1l2,2v1l1,1h-1l1,2v1l1,1l1,2v1l1,1l2,1v1h1v1h1v1l-1,1h1l1,1h3l1,-1h3v-1h1v2l-1,1v3l-1,1l-3,6l-1,1l-2,1l-1,1l-1,2v1h-1v1h-1v2l-1,1l-1,2l1,1v4l1,1v7l-1,1h-1l-3,3h-1v1l-1,1v2h1l-1,1h1v1l-1,1h1l-1,1h-1l-2,2v3l-3,3v1l-2,1v1l-1,1h-2v1l-1,-1v1l-1,-1l-1,1h-2l-1,1l-1,-1h-1v-5l-1,-1v-2l-1,-1v-1l-1,-1v-5l-1,-1v-1l-1,-2v-1l-1,-1v-3l1,-1v-3h1v-1l1,-1v-1h-1v-5l-1,-1v-2l-3,-3l-1,-2l1,-1v-5l-1,-1v-1l-1,1h-2l-1,-1v-1l-1,-1h-2l-1,1h-2l-1,1h-6l-1,1l-4,-4h-1l-1,-1v-1l-1,-1v-1h-1v-1l-1,-1v-1h-1v-3h-1l1,-1v-1h1l-1,-1l1,-1v-4l-1,-1v-1h1v-2l1,-1v-1h1v-2h1l1,-2h1l2,-2v-3l3,-3l1,-2v-1h1l1,1h2l1,-1h2l1,-1h4l1,-1h1v1h1l1,-1h1v1l1,-1v1h-1v1h1v2h-1v1h1v1h3l2,2h1l2,2l1,-1v-2l1,-1h2l1,1h1l1,1h2l1,1h1v-1h2l1,1v-1h1l1,1v-2l1,-1v-5h-2l-1,1l-1,-1h-2v1l-1,-1h-2v-1l-1,-1v-2l1,-1h1v-1h2l1,-1h1l2,-1l2,1l1,1h2l1,-1v-2h-1l-2,-2h-1l-1,-1l1,-1l-1,-1h2l-1,-1v1h-2l-1,1v1h1l-1,1h-1v-1h-1l1,-1h-2v-1h-1v1l-1,1v1h-1v4l1,1h-2v1h-1v-1h-2l1,1h-2v1l1,1h-1h1l1,1v1l-1,-1v1h-1l1,1h-2v-2l-1,-1v-1h-1v-3h-1v-1h-1l-1,-1h-1l-1,-1v-1l-1,-1v1v-1h-2v1l2,2v1l1,1h1l1,1h1l1,1v1l-1,-1h-1v1h1v1h-1v1h-1v-1h1l-1,-1v-1h-1l-1,-1h-1l-2,-2l-1,-2h-2v1h-4l-1,1v2h-2v1l-1,2h1l-1,1v1h-1l-1,1h-2l-1,1l-2,-2v1h-2l1,-1v-1h-1v-2l1,-1v-3l-1,-1l2,-1l1,1h5v-4l-1,-1v-1h-2v-1h3v-2l1,1l2,-1v-1h1l1,-1l1,-2l1,-1h2v-5h2l-1,1h1v1l-1,1v1h1v1l1,-1h2v1h1l2,-2l1,1h1v-1h1v-3l1,-1l1,1v-1l-1,-1v-1h4l1,-1h-4l-1,1l-2,-2v-4l2,-1v-1l-1,-1l-2,2l-1,2l-1,1v3h1v2h-1v2l-1,2h-1v1h-1v-2l-1,-1l-1,-2l-1,-1l-1,2h-1l-2,-1v-5l2,-1l3,-3l2,-3l3,-3h2l1,-2h3l2,1l-1,1h2l1,1h3l3,1l1,1v1l-1,1h-1l-3,-1h-1l2,1v2l1,1h1v-1h-1l1,-1l2,1v-1l1,-2h1l1,1v-1l-1,-1v-1l-1,-1l2,1h1l-1,1l1,1h1v-1l1,-1l2,-1h1v1l1,-1h1l1,-1l1,1l1,-1h-2l1,-1h2l1,1l4,1v-1h-2v-1h-1l-1,-1v-3h2l1,1v1h1l1,1l1,2h1v3l1,1v-1h1l-1,-1l1,-1h-1l-2,-2v-1l-2,-1l1,-1l-1,-1h1l1,2l-1,-1l1,-1h2l1,1l-1,-1l-1,-2h4l-2,-1v-1h1l1,-1h3l1,-1h1v-2l2,1h-1ZM253,820l1,1v2h-1v1l1,1h1l1,1h3l-1,-1v-2h-1v-2h1v-1l-1,-1h-1l1,1l-1,-1v-1h-2v-2h-1h1v-2l1,1v-3h-2l-1,1h-1v1h-1l-1,2l2,1v1l1,1Z"/>
<path class="tl" d="M146,770h-1v-1h1l1,1ZM137,769h-2l1,-1h1l1,1ZM220,771l-1,1h-1v-1h-1l2,-1v1ZM139,768h-2l1,-1v1ZM146,769h-1v-1h1l1,1ZM144,769h-1l-1,-1h-1h1v-1h1l1,1ZM268,768l-3,1v-2ZM215,769l3,1h-2v3h-1l-2,-1h1l-1,-1l-2,-1v-1l1,-1l1,1h1v-1h1ZM220,768h1l-1,1h-4l-1,-1h3ZM234,767l-1,1h-1v-1h-1h4ZM264,768h-4l-2,-1l-1,-1h1l1,-1l4,2ZM153,767v1h-1l-2,1h-2v-1h1h-1v-1l1,-1h2v-1h1v1h1ZM167,764h3v1h-3l-1,1h-1l-1,1l-2,1h-3v1h-1v1h-2l-2,1h1l-2,1h-4l-1,-1h2v-1h2v-1h-1h1l1,-1h1l-1,-1h4l-1,-1h-3v-1l1,-1h6v-1h3v1l2,-1l1,1ZM190,764l3,1h-6v1h5l-1,1l2,-1h4v1l-2,1h-1l-2,2v2l1,1h-2l1,1l-1,1v1h-1l1,1h-3l1,1v1l-1,-1l-1,1h1l1,1v1h-2l-1,-1v1l-1,1h3l-4,2h-3l-1,1l-4,2h-1l-2,1h-1v1l-2,2v1l-1,1l-1,2h-1l-1,-1h-1l-1,-1v-2l-1,-1v-1l1,-1l-1,-2l1,-1l1,-2h1l1,-1v-1l-1,1h-1v-1l1,-1h1l-1,-1h-1l1,-1v-4l-1,-1h-5v-1l-1,-1h1l-1,-1l1,-1h2l3,-1h1l-2,-1h1l3,-1h1v-1h9l1,1l-1,-1h1l2,-1h3l2,-1Z"/>
<path class="th" d="M363,855v1Z"/>
<path class="tg" d="M66,970h1l1,-1h4v-1h5v-1h5v-1h6v-1h6l1,-1h7v-1h8v-1h9l1,-1h11v-1h14v-1h20v-1h79v1h20v1h14v1h11l1,1h9v1h8v1h7l1,1h6v1h6v1h5v1h5v1h4l1,1h1M21,927h6v-1h7v-1h8v-1h10v-1h10v-1h12v-1h14v-1h18v-1h23v-1h38v-1h75v1h38v1h23v1h18v1h14v1h12v1h10v1h10v1h8v1h7v1h6M5,877h399M21,826h4v1h7v1h8v1h9v1h10v1h11v1h14v1h16v1h21v1h32v1h103v-1h32v-1h21v-1h16v-1h14v-1h11v-1h10v-1h9v-1h8v-1h7v-1h4M66,783v1h5v1h4v1h5l1,1h5v1h6l1,1h6l1,1h7v1h10v1h10v1h13l1,1h17v1h36v1h21v-1h36v-1h17l1,-1h13v-1h10v-1h10v-1h7l1,-1h6l1,-1h6v-1h5l1,-1h5v-1h4v-1h5v-1M140,755h-1v1h-3v1h-2v1h-2v1h-2v1h-2v1h-2l-1,1h-1l-1,1h-1l-1,1h-1v1h-2v1h-2v1h-2v1h-1l-1,1h-1v1h-2v1h-1l-1,1h-1v1h-2v1h-1v1h-2v1h-1v1h-2v1h-1v1h-1l-1,1h-1v1h-1v1h-2v1h-1v1h-1v1h-1v1h-2v1h-1v1h-1v1h-1v1h-1v1h-1v1h-1l-1,1h-1v1h-1v1h-1v1h-1v1h-1v1h-1v1h-1v1h-1v1h-1v1l-1,1v1h-1v1h-1v1h-1v1h-1v1h-1v1l-1,1v1h-1v1h-1v1h-1v2h-1v1h-1v2h-1v1h-1v2h-1v1h-1v2h-1v2h-1v1h-1v2h-1v2h-1v2h-1v2h-1v2l-1,1v2h-1v2l-1,1v2h-1v3h-1v4h-1v4h-1v5h-1v9h-1v13l1,1v8h1v5h1v4h1v4h1v3h1v3h1v2h1v3h1v2h1v2h1v2h1v2h1v2h1v2h1v1l1,1v1h1v2h1v1h1v2h1v1h1v1h1v2h1v1h1v1l1,1v1h1v1h1v1h1v1l2,2v1h1v1h1v1h1v1h1v1h1v1h1v1h1v1h1v1h1v1h1v1h1v1h1v1h1v1h2v1h1v1h1v1h1v1h1v1h1l1,1h1v1h1v1h1v1h2v1h1v1h1l1,1h1v1h1v1h2v1h1v1h2v1h1l1,1h1v1h2v1h1v1h2v1h2v1h1l1,1h1v1h2v1h2v1h2v1h2v1h2v1h2v1h2v1h2l1,1h2v1h2v1h2M153,755h-1v1h-2v1h-2v1h-1v1h-2v1h-2v1h-1v1h-2v1h-1v1h-2v1h-1v1h-2v1h-1v1h-1v1h-2v1h-1v1h-1l-1,1h-1v1h-1v1h-1v1h-1v1h-1l-1,1h-1v1h-1v1h-1v1h-1v1h-1v1h-1v1h-1v1h-1v1h-1v1h-1v1h-1v1h-1v1h-1v1h-1v1h-1v1h-1v1h-1v1l-2,2v1h-1v1h-1v1h-1v1l-1,1v1h-1v1h-1v2h-1v1h-1v1l-1,1v1h-1v2h-1v1h-1v2h-1v1h-1v2h-1v2h-1v2h-1v2h-1v2h-1v2h-1v2h-1v3h-1v2h-1v3h-1v3h-1v3h-1v3h-1v4l-1,1v4h-1v6l-1,1v30h1v6h1v5h1v4h1v3h1v3l1,1v2l1,1v2h1v3h1v2h1v2h1v2h1v2l1,1v1h1v2h1v2h1v2h1v2h1v1h1v2h1v1h1v2h1v1h1v2h1v1h1v1h1v2h1v1h1v1h1v1l1,1v1h1v1h1v1h1v1h1v1h1v1h1v1l3,3v1h1l3,3h1v1h1v1h1v1h1v1h1v1h1v1h1v1h1l1,1h1v1h1v1h1v1h1l1,1h1v1h1v1h1l1,1h1v1h1v1h2v1h1v1h2v1h1v1h2v1h2v1h1v1h2v1h1l1,1h1v1h2M166,755h-1v1h-1v1h-1l-1,1h-1v1h-1v1h-1v1h-1v1h-1v1h-1l-2,2h-1v1h-1v1h-1v1h-1v1h-1v1h-1v1h-1v1h-1v1h-1v1l-2,2v1h-1v1h-1v1h-1v1h-1v1l-1,1v1h-1v1h-1v1h-1v2h-1v1h-1v1l-1,1v1h-1v1h-1v2h-1v1h-1v2h-1v2h-1v1h-1v2h-1v2h-1v2h-1v1l-1,1v1l-1,1v1l-1,1v2h-1v2h-1v2h-1v3h-1v2h-1v3h-1v3h-1v3h-1v3h-1v4h-1v4h-1v5h-1v6h-1v8h-1v30h1v7l1,1v5h1v5h1v4h1v4h1v3h1v3h1v3h1v3h1v3h1v2h1v2h1v2l1,1v2h1v2h1v2h1v2h1v1h1v2h1v2h1v2h1v1h1v2h1v1h1v2h1v1l1,1v1h1v1h1v2h1v1h1v1h1v1l1,1v1h1v1h1v1h1v1l1,1v1h1v1h1v1h1v1h1v1h1v1h1v1h1v1h1v1h1v1h1v1h1v1h1v1h1v1h1v1h1l2,2h1v1h1v1h1v1h1v1h2v1h1"/>
<path class="tg" d="M179,755h-1v1h-1v2h-1v1h-1v1h-1v1h-1v2h-1v1h-1v1l-1,1v1h-1v1l-1,1v1h-1v1l-1,1v1h-1v2h-1v1l-1,1v1h-1v2h-1v2h-1v2h-1v2h-1v2h-1v2h-1v2h-1v2h-1v2l-1,1v2h-1v2l-1,1v2h-1v3h-1v3h-1v3h-1v3h-1v4h-1v4h-1v4h-1v4h-1v5l-1,1v5h-1v8h-1v11h-1v29l1,1v10l1,1v7h1v6h1v5h1v4l1,1v4h1v3l1,1v3h1v3h1v3h1v3h1v3h1v3h1v2h1v3h1v2h1v2h1v2l1,1v2h1v2h1v1l1,1v1l1,1v1h1v2h1v2h1v1l1,1v1h1v2h1v1h1v2h1v1h1v2h1v1h1v1l1,1v1h1v1h1v1h1v2h1v1h1v1h1M192,755h-1v3h-1v2h-1v3h-1v3h-1v3h-1v3h-1v3h-1v3l-1,1v3h-1v4h-1v4h-1v4l-1,1v4h-1v5h-1v6h-1v6l-1,1v7h-1v8h-1v11l-1,1v18h-1v29l1,1v18h1v11h1v8l1,1v7h1v6h1v6h1v5h1v5h1v4h1v4h1v4h1v4h1v3h1v3l1,1v3h1v2l1,1v2h1v3h1v3h1v2h1M205,755v243M217,755h1v3h1v2h1v3h1v3h1v3h1v3h1v3h1v3l1,1v3h1v4h1v4h1v4l1,1v4h1v5h1v6h1v6l1,1v7h1v8h1v11l1,1v18h1v29l-1,1v18h-1v11h-1v8l-1,1v7h-1v6h-1v6h-1v5h-1v5h-1v4h-1v4h-1v4h-1v4h-1v3h-1v3l-1,1v3h-1v2l-1,1v2h-1v3h-1v3h-1v2h-1M230,755h1v1h1v2h1v1h1v1h1v1h1v2h1v1h1v1l1,1v1h1v1l1,1v1h1v1l1,1v1h1v2h1v1l1,1v1h1v2h1v2h1v2h1v2h1v2h1v2h1v2h1v2h1v2l1,1v2h1v2l1,1v2h1v3h1v3h1v3h1v3h1v4h1v4h1v4h1v4h1v5l1,1v5h1v8h1v11h1v29l-1,1v10l-1,1v7h-1v6h-1v5h-1v4l-1,1v4h-1v3l-1,1v3h-1v3h-1v3h-1v3h-1v3h-1v3h-1v2h-1v3h-1v2h-1v2h-1v2l-1,1v2h-1v2h-1v1l-1,1v1l-1,1v1h-1v2h-1v2h-1v1l-1,1v1h-1v2h-1v1h-1v2h-1v1h-1v2h-1v1h-1v1l-1,1v1h-1v1h-1v1h-1v2h-1v1h-1v1h-1M243,755h1v1h1v1h1l1,1h1v1h1v1h1v1h1v1h1v1h1l2,2h1v1h1v1h1v1h1v1h1v1h1v1h1v1h1v1h1v1l2,2v1h1v1h1v1h1v1h1v1l1,1v1h1v1h1v1h1v2h1v1h1v1l1,1v1h1v1h1v2h1v1h1v2h1v2h1v1h1v2h1v2h1v2h1v1l1,1v1l1,1v1l1,1v2h1v2h1v2h1v3h1v2h1v3h1v3h1v3h1v3h1v4h1v4h1v5h1v6h1v8h1v30h-1v7l-1,1v5h-1v5h-1v4h-1v4h-1v3h-1v3h-1v3h-1v3h-1v3h-1v2h-1v2h-1v2l-1,1v2h-1v2h-1v2h-1v2h-1v1h-1v2h-1v2h-1v2h-1v1h-1v2h-1v1h-1v2h-1v1l-1,1v1h-1v1h-1v2h-1v1h-1v1h-1v1l-1,1v1h-1v1h-1v1h-1v1l-1,1v1h-1v1h-1v1h-1v1h-1v1h-1v1h-1v1h-1v1h-1v1h-1v1h-1v1h-1v1h-1v1h-1v1h-1v1h-1l-2,2h-1v1h-1v1h-1v1h-1v1h-2v1h-1M256,755h1v1h2v1h2v1h1v1h2v1h2v1h1v1h2v1h1v1h2v1h1v1h2v1h1v1h1v1h2v1h1v1h1l1,1h1v1h1v1h1v1h1v1h1l1,1h1v1h1v1h1v1h1v1h1v1h1v1h1v1h1v1h1v1h1v1h1v1h1v1h1v1h1v1h1v1h1v1h1v1l2,2v1h1v1h1v1h1v1l1,1v1h1v1h1v2h1v1h1v1l1,1v1h1v2h1v1h1v2h1v1h1v2h1v2h1v2h1v2h1v2h1v2h1v2h1v3h1v2h1v3h1v3h1v3h1v3h1v4l1,1v4h1v6l1,1v14l1,1h-1v15h-1v6h-1v5h-1v4h-1v3h-1v3l-1,1v2l-1,1v2h-1v3h-1v2h-1v2h-1v2h-1v2l-1,1v1h-1v2h-1v2h-1v2h-1v2h-1v1h-1v2h-1v1h-1v2h-1v1h-1v2h-1v1h-1v1h-1v2h-1v1h-1v1h-1v1l-1,1v1h-1v1h-1v1h-1v1h-1v1h-1v1h-1v1l-3,3v1h-1l-3,3h-1v1h-1v1h-1v1h-1v1h-1v1h-1v1h-1v1h-1l-1,1h-1v1h-1v1h-1v1h-1l-1,1h-1v1h-1v1h-1l-1,1h-1v1h-1v1h-2v1h-1v1h-2v1h-1v1h-2v1h-2v1h-1v1h-2v1h-1l-1,1h-1v1h-2"/>
<path class="tg" d="M269,755h1v1h3v1h2v1h2v1h2v1h2v1h2l1,1h1l1,1h1l1,1h1v1h2v1h2v1h2v1h1l1,1h1v1h2v1h1l1,1h1v1h2v1h1v1h2v1h1v1h2v1h1v1h1l1,1h1v1h1v1h2v1h1v1h1v1h1v1h2v1h1v1h1v1h1v1h1v1h1v1h1l1,1h1v1h1v1h1v1h1v1h1v1h1v1h1v1h1v1h1v1l1,1v1h1v1h1v1h1v1h1v1h1v1l1,1v1h1v1h1v1h1v2h1v1h1v2h1v1h1v2h1v1h1v2h1v2h1v1h1v2h1v2h1v2h1v2h1v2l1,1v2h1v2l1,1v2h1v3h1v4h1v4h1v5h1v9h1v13l-1,1v8h-1v5h-1v4h-1v4h-1v3h-1v3h-1v2h-1v3h-1v2h-1v2h-1v2h-1v2h-1v2h-1v2h-1v1l-1,1v1h-1v2h-1v1h-1v2h-1v1h-1v1h-1v2h-1v1h-1v1l-1,1v1h-1v1h-1v1h-1v1l-2,2v1h-1v1h-1v1h-1v1h-1v1h-1v1h-1v1h-1v1h-1v1h-1v1h-1v1h-1v1h-1v1h-1v1h-2v1h-1v1h-1v1h-1v1h-1v1h-1l-1,1h-1v1h-1v1h-1v1h-2v1h-1v1h-1l-1,1h-1v1h-1v1h-2v1h-1v1h-2v1h-1l-1,1h-1v1h-2v1h-1v1h-2v1h-2v1h-1l-1,1h-1v1h-2v1h-2v1h-2v1h-2v1h-2v1h-2v1h-2v1h-2l-1,1h-2v1h-2v1h-2"/>
<rect x="352" y="844" width="21" height="22" fill-opacity="0" stroke="#ffffff" stroke-opacity="0.5" stroke-width="5.0"/>
<rect x="354" y="846" width="21" height="22" fill-opacity="0" stroke="#113311" stroke-opacity="0.8" stroke-width="5.0"/>
<rect x="353" y="845" width="21" height="22" fill-opacity="0" stroke="#45a249" stroke-opacity="0.9" stroke-width="5.0"/>
<rect x="691" y="691" width="309" height="309" fill="#ffffff" fill-opacity="1.0"/>
<rect x="694" y="694" width="302" height="302" fill="#000000" fill-opacity="1.0"/>
<rect x="700" y="700" width="300" height="300" fill="#70add3" fill-opacity="1.0"/>
<path class="zl" d="M736,917l-1,2l-1,-1l1,-1v-1h2v1ZM968,955h-1l1,-1ZM972,953v-1l1,1ZM865,757v1h-1v-1ZM865,800l-1,-1h2ZM858,838h-2v-1h2ZM866,769v1l1,-2ZM866,821h-1l1,-2l1,-1v2ZM865,823l-1,1v-1l-1,-1h1Z"/>
<path class="zh" d="M852,847h1v1l-1,1h-1l-1,1v3h-1v1h-1v-2h-1l1,-1h-1v-1h2v-1h1v-1l1,-1v-1h1Z"/>
<circle class="w1" cx="850" cy="850" r="13"/>
<circle class="w1" cx="850" cy="850" r="11"/>
<circle class="c1" cx="850" cy="850" r="12"/>
</svg>
