<?xml version="1.0" encoding="UTF-8" standalone="no"?>
<svg xmlns:svg="http://www.w3.org/2000/svg" xmlns="http://www.w3.org/2000/svg" xmlns:xlink="http://www.w3.org/1999/xlink" height="1000" width="1000">
<!-- made with pythonshp (GPL): github.com/sanjayrao77/pythonshp , underlying data may come from naturalearthdata.com -->
<!-- 
COPYRIGHT: THIS SVG FILE IS RELEASED INTO THE PUBLIC DOMAIN
 -->
<!-- 
vars : {
	'cmdline' : 'pythonshp.py publicdomain wiki1 heardislandandmcdonaldislands locatormap'
	'title' : 'Heard Island and McDonald Islands locator'
	'version' : '1.0.5'
}
 -->
<defs>
	<radialGradient id="watergradient" cx="500" cy="500" r="500" fx="500" fy="500" gradientUnits="userSpaceOnUse">
		<stop offset="0%" stop-color="#70add3"/>
		<stop offset="11%" stop-color="#6eaad0"/>
		<stop offset="22%" stop-color="#6ca7cc"/>
		<stop offset="31%" stop-color="#6ba5c9"/>
		<stop offset="41%" stop-color="#69a2c6"/>
		<stop offset="51%" stop-color="#679fc2"/>
		<stop offset="59%" stop-color="#669dbf"/>
		<stop offset="67%" stop-color="#649abc"/>
		<stop offset="75%" stop-color="#6297b9"/>
		<stop offset="81%" stop-color="#6095b6"/>
		<stop offset="87%" stop-color="#5f92b2"/>
		<stop offset="92%" stop-color="#5d8faf"/>
		<stop offset="95%" stop-color="#5b8dac"/>
		<stop offset="98%" stop-color="#598aa8"/>
		<stop offset="100%" stop-color="#5685a2"/>
	</radialGradient>
	<radialGradient id="landgradient" cx="500" cy="500" r="500" fx="500" fy="500" gradientUnits="userSpaceOnUse">
		<stop offset="0%" stop-color="#dddddd"/>
		<stop offset="11%" stop-color="#d7d7d7"/>
		<stop offset="22%" stop-color="#d1d1d1"/>
		<stop offset="31%" stop-color="#cccccc"/>
		<stop offset="41%" stop-color="#c6c6c6"/>
		<stop offset="51%" stop-color="#c0c0c0"/>
		<stop offset="59%" stop-color="#bbbbbb"/>
		<stop offset="67%" stop-color="#b5b5b5"/>
		<stop offset="75%" stop-color="#afafaf"/>
		<stop offset="81%" stop-color="#aaaaaa"/>
		<stop offset="87%" stop-color="#a4a4a4"/>
		<stop offset="92%" stop-color="#9e9e9e"/>
		<stop offset="95%" stop-color="#999999"/>
		<stop offset="98%" stop-color="#939393"/>
		<stop offset="100%" stop-color="#888888"/>
	</radialGradient>
	<radialGradient id="bordergradient" cx="500" cy="500" r="500" fx="500" fy="500" gradientUnits="userSpaceOnUse">
		<stop offset="0%" stop-color="#444444"/>
		<stop offset="11%" stop-color="#3f3f3f"/>
		<stop offset="22%" stop-color="#3a3a3a"/>
		<stop offset="31%" stop-color="#363636"/>
		<stop offset="41%" stop-color="#323232"/>
		<stop offset="51%" stop-color="#2d2d2d"/>
		<stop offset="59%" stop-color="#292929"/>
		<stop offset="67%" stop-color="#242424"/>
		<stop offset="75%" stop-color="#1f1f1f"/>
		<stop offset="81%" stop-color="#1b1b1b"/>
		<stop offset="87%" stop-color="#161616"/>
		<stop offset="92%" stop-color="#121212"/>
		<stop offset="95%" stop-color="#0e0e0e"/>
		<stop offset="98%" stop-color="#090909"/>
		<stop offset="100%" stop-color="#000000"/>
	</radialGradient>
</defs>
<style type="text/css">
<![CDATA[
.c4 {stroke:#45a211;fill-opacity:0;stroke-width:4}
.fs {font:14px sans;stroke:#ffffff;stroke-width:2px;stroke-opacity:0.8;text-anchor:middle}
.ft {font:14px sans;fill:#000000;fill-opacity:1;stroke-opacity:0;text-anchor:middle}
.sb {stroke:url(#bordergradient);fill-opacity:0}
.sg {stroke:#000000;fill-opacity:0.0;stroke-opacity:0.2}
.sh {fill:#45a211;stroke:#000000}
.sl {fill:url(#landgradient);stroke:url(#bordergradient)}
.sp {stroke:url(#landgradient);fill-opacity:0}
.sr {stroke:url(#watergradient);fill-opacity:0}
.sw {fill:url(#watergradient);stroke:url(#watergradient);stroke-opacity:0.8}
.tb {fill:#eeeeee;stroke:black;stroke-width:2}
.tg {stroke:black;stroke-opacity:0.2;fill-opacity:0}
.tl {fill:#aaaaaa;stroke:black}
.w4 {stroke:#ffffff;fill-opacity:0;stroke-opacity:0.6;stroke-width:4}
.zh {fill:#45a211;stroke:#115511}
.zl {fill:#dddddd;stroke:#444444}
.zp {stroke:#dddddd;stroke-dasharray:3 3;fill-opacity:0}
]]>
</style>
<circle cx="500.0" cy="500.0" r="500.0" fill="url(#watergradient)"/>
<path class="sl" d="M310,38h-2l-1,1h-1h1h-1h1h-1l-1,1h-1l-1,1h-1h1l1,-1h1h-1v1l1,-1h1l1,-1h1h-1v1h-2v1h-1h1h-1v1l1,-1v1h-1h1h-1v1h-2l-1,1h-2v1h-1l-1,1h-1v1h-1h2v-1h2v-1h2l1,-1h2l1,-1v1h-1h1h-1v1h-2v1h1l1,-1h1v1h-1v1v-1v1l1,-1h3l1,-1h2v-1h1v1h2v-1h4v-1v1h1v-1v1h1v-1h1v1h-1l-1,1h-2v1h1v-1v1h-2v1l-1,1h-1v1h-2l-1,1h-2l-1,1h-1l-1,1h-1l-1,1h-1v1h-3l-2,1l-1,1h-1l-1,1h-2l-1,1h-2l-3,2l-1,1h-2v1l2,-1v-1h1h-1l-1,1h-1l-1,1v1h-1v-1l-1,1h-3l-1,1h-1l-1,1h-1l-2,1h-2l1,-1h1h-1h1l1,-1h2v-1l-1,1h-1l1,-1h-1l-2,2h-1l1,-1v1h-2v1h-2l-3,3h-1l-2,1l-1,1h-2v1h-1v1h-1v1h-1l-1,1l-3,1h1v-1v1h-1l-1,1h-1h1l-1,1h-1l-5,5h-2l-1,1v1h-1l-2,2l-2,1v2h-1v1h2v1h-1l-1,1h-3l-1,1l-2,1l-2,2l-2,1h-1l-3,3h-1v1v-1h1v-1h1v-1l2,-1h1h-1l-1,1h-4l-2,2h-2l-2,2h-1l-1,1v1v-1h1v1h-2v1l-1,1v-1h-1v1l-1,1v-1h1h-1v-1h1h-1l-1,1h-1v1l-1,1v1h-1h1v1l-1,1h-1h1v-1h-1v1h-1v1h1h-1l-1,1h-1v1v-1h2v1v-1v1h1l-1,1v1h-2l-1,1h-1v1h-1h1v1l-2,1v-1l-1,1v-1v1h-1v2l-1,1v1h-1v1v-1h-1l-1,1v-1h-1v1h-1v1v-2l1,-1h1v-1h-1h1h-1v-1h1l2,-2h1l1,-1h1l1,-1h2l1,-1h-2l-1,1h-1l-1,1h-1v1v-1l-1,1h-1h1v-2h2v-1h-1v1v-1h-1l1,-1v-1h1h-1v-1h1v-1l3,-3h1v-1l1,-1h1l1,-1h-1v-1h-2l1,-1l-1,1h-1l-1,1v-1h1h-1l1,-1h1v-1h1v-1h1v-1h1h-1l-3,3h-1h1v-1l1,-1h1l1,-1h-1v1h-1v1h-1l-1,1h-1v1l1,-1l-1,1h-1l-1,1v1h-1l-1,1h-1l-2,2v1v-1v1l-3,3v1l1,-1l2,-1h1h-1l-2,2h3v1l-1,1h-1v1h-1l1,-1l-1,1h-1v-1h1l-1,1h-1l-5,5h1l-1,1v1h-2l-1,1v1h-1l-1,2h-1l-1,1l-1,2h-1v1h-2l1,-1h1v-1l1,-1h1v-1h1l2,-2v-1l1,-1h1v-2h1h-1v1h-1v-1h1v-1h1h-1v1h-1l1,-1h-1v1v-1h1v-1l-1,1h-1v1v-1l1,-1h-1v1v-1h1v-1h1v-1h1v-1l2,-1v-1v1h-1l-1,1l2,-2h1l4,-4h1l3,-3h1l3,-3h1v-1l3,-3h1l2,-2h1l3,-3h1l3,-3h1l2,-2h1l3,-3h1l2,-2h1l2,-2h1l3,-3h1l2,-2h1l1,-1h1l1,-1h1l2,-2h1l1,-1h1l2,-2h1l2,-2h1l2,-2h1l1,-1h1l2,-2h2l2,-2h1l1,-1h1l2,-2h1l1,-1h1l1,-1h1l1,-1h1l1,-1h1l1,-1h1l1,-1h1l2,-2h1l1,-1h2l1,-1h1l1,-1h1l2,-2h1l1,-1h2l1,-1h1l1,-1h1l1,-1h1l1,-1h2l1,-1h1l1,-1h1l1,-1h1l1,-1h2l1,-1h1l1,-1h1l1,-1Z"/>
<path class="sp" d="M176,119l2,-2h1l4,-4h1l3,-3h1l3,-3h1v-1l3,-3h1l2,-2h1l3,-3h1l3,-3h1l2,-2h1l3,-3h1l2,-2h1l2,-2h1l3,-3h1l2,-2h1l1,-1h1l1,-1h1l2,-2h1l1,-1h1l2,-2h1l2,-2h1l2,-2h1l1,-1h1l2,-2h2l2,-2h1l1,-1h1l2,-2h1l1,-1h1l1,-1h1l1,-1h1l1,-1h1l1,-1h1l1,-1h1l2,-2h1l1,-1h2l1,-1h1l1,-1h1l2,-2h1l1,-1h2l1,-1h1l1,-1h1l1,-1h1l1,-1h2l1,-1h1l1,-1h1l1,-1h1l1,-1h2l1,-1h1l1,-1h1l1,-1"/>
<path class="sl" d="M120,175l2,-2v-1l2,-1l1,-1l2,-3h1l1,-2l2,-1v-1l2,-2v1v-1h1v-1h1v-1h1l7,-7h1h-1v1v-1h1h-1v1l-1,1h1v-1l1,-1h1l1,-2v1h-1l-1,1l-1,2l-2,2h-1v1l-1,1v1l-1,1l-1,2l-1,1l-2,1l-3,3v1l-2,2v1l1,-1l-1,1h1v-1h1l-1,1h2l3,-3h1l1,-1h2l2,-1l-1,1v1l-1,1v1h2l1,-1l2,-1h3v1h2l3,-3l3,-2l1,-2l1,-1v-2l3,-3v-1l2,-2l5,-3l1,-1l2,-1v-1h1l1,-1h3v1l-1,1h1l2,-1h1l2,-1h2v1h1l2,-2h3l1,-1h5l3,-1h3l1,-1h1l3,-3h1v-1h2v-1l1,-1l3,-1h-1l-1,1h2v-1h1v-1l2,1v-1h2v-1l1,1h-2l-1,1h2l1,-1l1,1l1,-1h1l2,-1h1l2,-1l1,-1l2,-1v7l-1,2l-1,1l-2,4l-2,2l-1,2h-1v1l-1,1h-1l-1,-1h-1v-1l-1,-1v-1l1,-1h-1v-4h-1v1l-1,1v6l1,1h1v2h-1l1,1v2l-1,2l1,1v2l1,2v3l1,3l2,2h-1v1h-1v3l-1,1l1,2h2l1,2l2,1v4l1,1v1v-1h-1v4l-1,1v4l-1,1v5h2l1,1h1v1h1l2,1l1,3v3l1,2l-1,3l1,2v2h1v1l1,1v1v-2l1,-1h1v2l1,1h4l2,1l3,3l4,2v2h1l2,1v1h2v1l2,2v1l-1,1v1l-4,2l-1,2h-1h2l1,-1h2l1,1l1,2l2,1l2,2h2l4,-1l6,-4h5l1,-1l6,-3l1,-1h2l6,-2l1,-1h4l8,-3l3,-2l3,-3l3,1h1h-1v1l-1,1v7l-1,1h1v-1h2v1h-2l-1,1h-1v1l-1,2v4l-2,1v1l-5,8l-2,2l-1,2v2l-1,1l-5,8v2l-3,5l-4,5l-2,4l-9,11l-6,8l-2,2l-7,5l-5,4l-2,3l-3,3l-1,2l-6,8h-1v1l-1,1v1l-4,4v2h-1v2l-1,2l-1,1l-1,2h-1l-1,1h-1v3l-2,2l-2,1l-1,1l-1,2l1,1l-1,2l-1,1v2h-1v4l-1,1v1l-1,3l-2,2v3l-1,1v3l-1,1v6l1,1h1l2,2h1l1,1v1l-2,2v4h1l1,2l-1,2v2l1,2v2l2,1v2l1,1v4h2v1h2l1,1h1v1l1,1l-1,1h1v3l-1,1v1l1,1v4h1v5l1,1v1l-1,1v1l1,-1v5l1,1v4h1v3l1,-1v1h1v3l-1,1v5l-2,3v1l-1,1v2h-1l-1,1l1,1v1l-1,1l-3,2v2l-1,1h-2v1l-2,1l-7,7l-1,2v2l-2,4v1l-1,1v1l-1,-1v2l-1,1h-1l-1,2l-1,4l-2,3h-2v1l1,1v4l3,3l1,3l1,1l1,2l1,1v2l1,2v1l1,1v-1l-1,-1v-1h1v2l1,2v1l1,2v7h2v3l-1,3v1l-7,7l-2,1l-1,1l-2,5v4h1v1h1v-1l1,6l1,2v4l1,5v4l-1,3l-1,1l-2,5v12l-1,3v3l-1,1v1l-1,2l-1,4v3l-4,11l-3,5l-3,1l-1,1v1l1,1h-1v1h-3v2l-1,1h-5l-1,1v1h-3l-2,2l-1,3l-2,2h-2v1l-1,1l-1,4h-4v-1h-1v-1v1l-1,-1v1h-1v-1h-1v-1h-1v1l1,2h-1l-1,-1v-1l-1,-1l1,-1h-1v-1l-2,-2h-1l-2,-2v-1l-1,-1v-1l1,1v-3l-1,-2l-1,-1l-2,-3l-2,-2l-3,-2l-3,-4l-2,-2l-4,-5l-2,-3l-3,-3l-3,-1l-2,-1l-3,-4l-1,-1l-1,-2l-2,-2v-2l-3,-3l-1,-2v-2l-1,-1v-1l-1,-2l-1,-1l-1,-2l-3,-3l-1,-4v-1l-1,-2l-1,-1v-3l-1,-2l-4,-4l-1,-2h-1l-5,-7l-1,-2l-1,-1l-5,-7l-4,-4l-2,-4v-2l-1,-2v-3l-1,-1v-2l-1,-4l-1,-1v-1l1,-1v-2l-1,-2v-6l-1,-5v-12l1,-1l1,-2v-10l-1,-4v-2l-2,-2v-1l-1,-2l-1,-1v-2l-1,-1v-1l-1,-1v-1l1,-4v-2l-2,-4l-1,-4l-3,-6l-1,-1v-1h1v-1l2,-2v-1l-1,1v1l-1,1h-1v-1l-1,-1v-3l-1,-1v-1l-1,-1v-1l-2,-2v-1l-2,-2v-1h-1l-2,-2l-1,-2l-1,-1h1v-1h-1v1h-1v-2l-1,-1h1v-1h-1l-1,-2v-1l1,2v-1h1v-1h-1v1v-1h-1l-1,-2v-3h1v-1l1,-3v-4l1,-1l1,1v-2h-2v-1l1,-1v-4h-1v-1l1,-2v-1l1,-2v-8l1,-2v-3l-1,-1v-1v1v-3l-1,1h-1v-3h-1v-1v2h-1v-1l1,-1h-1v1v-1h-1l1,2h-1l-1,1v1l-1,1v-1v1h-1v1v-1h-1v3h-1v-1v2h-1v1l-1,1v-1v2h-1v-1l-1,-1v-5l1,-1l-1,1v-1h-1v-2l-1,-1h-1l-2,2l1,-2l-1,1v2l-4,4l-1,2v1l-2,2v2l-1,1v2l-1,1l-2,3v1l-1,1v3l-1,1l-1,3h-1v3l-1,1v-1l-1,1h-1l1,-1h-1v2l-2,2v1l1,-1v-1v1l-1,2l-1,1v1h-1v1l1,-1l-2,4v1l-1,3v2l-1,1v3h-1v1l-1,-1v-4h-1l1,-1h-1v-1h1v-1h-1l1,-1v-6l1,-1v-4l1,-1v-6l1,-1v-4l1,-1v-3l1,-1v-5l1,-1v-3l1,-1v-3l1,-1v-3l1,-1v-3l1,-1v-3l1,-1v-3l1,-1v-2l1,-1v-3l1,-1v-2l1,-1v-2l1,-1v-3l1,-1v-2l1,-1v-2l1,-1v-3l1,-1v-1l1,-1v-2l1,-1v-2l1,-1v-2l1,-1v-2l1,-1v-1l1,-1v-2l1,-1v-2l1,-1v-1l1,-1v-2l1,-1v-1l1,-1v-2l1,-1v-1l1,-1v-1l1,-1v-2l1,-1v-1l1,-1v-1l1,-1v-2l1,-1v-1l1,-1v-1l1,-1v-1l1,-1v-1l1,-1v-2l1,-1v-1l1,-1v-1l1,-1v-1l2,-2v-1l1,-1v-1l1,-1v-1l1,-1v-1l1,-1v-1l1,-1v-1l1,-1v-1l1,-1v-1l1,-1v-1l1,-1v-1l2,-2v-1l1,-1v-1l1,-1v-1l2,-2v-1l1,-1v-1l1,-1v-1l3,-3v-1l1,-1v-1l1,-1v-1l2,-2v-1l2,-2v-1l2,-2v-1l1,-1v-1l3,-3v-1l2,-2v-1l1,-1v-1l3,-3v-1l2,-2v-1l4,-4v-1l1,-1v-1l4,-4v-1l2,-2v-1l4,-4v-1l4,-4v-1l5,-5v-1h1l1,-1v-1Z"/>
<path class="sp" d="M6,423v-3l1,-1v-4l1,-1v-6l1,-1v-4l1,-1v-3l1,-1v-5l1,-1v-3l1,-1v-3l1,-1v-3l1,-1v-3l1,-1v-3l1,-1v-3l1,-1v-2l1,-1v-3l1,-1v-2l1,-1v-2l1,-1v-3l1,-1v-2l1,-1v-2l1,-1v-3l1,-1v-1l1,-1v-2l1,-1v-2l1,-1v-2l1,-1v-2l1,-1v-1l1,-1v-2l1,-1v-2l1,-1v-1l1,-1v-2l1,-1v-1l1,-1v-2l1,-1v-1l1,-1v-1l1,-1v-2l1,-1v-1l1,-1v-1l1,-1v-2l1,-1v-1l1,-1v-1l1,-1v-1l1,-1v-1l1,-1v-2l1,-1v-1l1,-1v-1l1,-1v-1l2,-2v-1l1,-1v-1l1,-1v-1l1,-1v-1l1,-1v-1l1,-1v-1l1,-1v-1l1,-1v-1l1,-1v-1l1,-1v-1l2,-2v-1l1,-1v-1l1,-1v-1l2,-2v-1l1,-1v-1l1,-1v-1l3,-3v-1l1,-1v-1l1,-1v-1l2,-2v-1l2,-2v-1l2,-2v-1l1,-1v-1l3,-3v-1l2,-2v-1l1,-1v-1l3,-3v-1l2,-2v-1l4,-4v-1l1,-1v-1l4,-4v-1l2,-2v-1l4,-4v-1l4,-4v-1l5,-5v-1h1l1,-1v-1l1,-1"/>
<path class="sl" d="M302,70l2,-2v-1l1,-1v-1h-1l-1,-1l-2,1l-1,-1h-1h1l1,-1h6l3,-1h3l1,-1l1,1h-1h6l1,-1h2l1,-1h2v1l1,-1h1l-1,1v1h3l-1,1h-1h1v1h1v1h-8l-2,2h3l-2,1v1h2v1h-2v1h-1h5v1h-1l1,1h-1l-1,1h-1l-1,1v-2h-1v-1h1h-1l-2,1h-1v-1l-1,1h-1l1,1h1v1h4l1,-1h2l1,-1h1l2,-2h2l1,-1l2,-1h2v1h-1v2h-2v1h2l1,1l1,-1h1l-1,1v2l1,1h1l2,-1h3v1l1,1h10l8,-3h5v-2h1l1,-1h3v-1l1,-1h1l1,-1h1l1,-1h6v-1h2l1,-1h4v1h5l1,1h3l1,-1l2,1h1v1h3l1,1h1v1h3l3,-1v3h-1h1v2l-1,1h-1v2l-1,1h-1v1h-1v1h-1l-1,1v2h-1v1h3l-1,1h-1l-1,1v2h1v3l-1,1v2h7v3l-4,2l-2,2l-2,1l4,4v1l1,1h1v1h4l1,1h2l-1,1l1,1v2h-1v1h4v1h-1v2l-1,1h-5l-2,2h-3v2l-1,1h-1v3l-1,1h-7v-1h-1l-1,1h-19l-1,-1h-3v-2l-1,-1v-3h-1l-1,-1h-3l-1,1l-2,1h-2v1h-1l-1,1h-2l-2,1l-1,1h-2l-1,-1h-2l-2,1l-2,-1l-1,-1h-2l-2,-1v-1h-3l-1,-1h-1l-2,1l-3,-3v-2h-1l1,-1h-2v-1l1,-1l-1,-1h-1v-1h-1v-1h-1l-3,1h-1l-2,-1h1l1,-1h-2l-1,1v1l-1,1h-1l-1,1h-4v2h1h-2l-2,2h3v2l1,1v3h1v2h3l-1,1h1v1h1l1,1h2l1,1h-1v1h1v1l-1,1h-1v2h1v1l1,1v2h1v1h1v1h3v1h3v2h1l1,-1h1l2,-1h1l3,-1h7l2,-1l1,-1h1l1,-1v-1h1v-1h1l5,-3v-1l1,-1h1l3,-2l1,-1v-1l1,-1h1l1,-1v1l-1,2v2l-1,3l1,1l1,2h1l3,3h10l1,1h1v1h1v1l2,2h1v1h3l-1,1v1l-1,1l-1,2l-2,1v1l-4,2l-2,2l-1,2l-1,1h-2l1,-1h-1l-3,3v2l-1,1v5h-3l-4,2h-1l-2,1l-2,5h-3l-3,1h-1l-3,3h1v1l-2,2l-3,1h-3l-2,1h-1l-2,1l-1,1h-3l-1,1l-4,2l-1,1h-2v1l-1,2v2h-1l-2,2h-1l-1,1l-5,2l-4,1l-1,1l-2,1h-2l-3,2l-1,1l-2,1h-1v1l-3,3h-2l-1,1h-3l-2,1l-3,3l-2,1h-2l-1,1h-1l-2,1h-2l-2,1l-1,1l-2,1l-3,3h-1l-1,1l-1,-1l-2,2l-2,1h-4v-1l-1,-2v-5h-1v-8h-2l1,-1h1l-1,-2l2,-3v-5h-1v-1h-1v-3l-4,-2l-1,-2v-1l-1,-1v-3l-1,-2l-2,-2v-1l-2,-1l-2,1l-1,-1l-1,-2l-1,-1v-6l1,-1v-1h1v-3h-1h1l-1,-1v-1l-1,-2v-1h-1l-1,-1h-1l-1,-1v1h-1v-2l-1,-1l1,-1v-2l-1,-1v-1h-1v-1h1h-1l-1,-3v-1l-1,-1v-1l-1,-1v-1l-1,-1h-2l-1,1v-1l2,-2l3,-5l1,-1v-1l-1,1l1,-2v-6l5,-5l1,-2l5,-5h1l2,-2h1v-1h1h-1v1h-1l-2,2h-1l1,-1v-1l5,-5l2,-1l2,-2v-1l1,-1v-2l2,-2v-1h1v-1l1,-1l2,-1v-1l-1,1h-1v1h-1l-1,1h-5l-4,4h-1l-1,1h-2v1h-2l-1,1h-3v-1h-3l-2,1h-1l-4,4h-1l-2,1l-1,1h-1v-2h-1v1h-2l-1,1h-1h-1l-1,1h-1h1v-1h2v-1h1l1,-1l-3,1l-1,1h-1h1v-1h1l1,-1h-1v-1h1l1,-1v-1l-1,1v-1h-1v1h-1v-1h1v-1h1v1v-1h2l1,-1l-1,1v-1l2,-2h-1v1v-1h1v-1l1,-1h1h-1l-1,1h-1l-1,1v-1h1l1,-1v-1h1l1,-2l4,-2h2l1,-1h1h-1h1v-1h1h-1v1l2,-1l1,-1h2v-1v1v-1h1v-1l3,-1h-1v-1h1l1,-1h2l3,-1l1,-1h3v-1l1,-1l5,-2l1,-1l6,-3h1l6,-2l2,-1v1h1l2,-1h1v1h1l1,-1h1v1l2,-1h5l1,-1h1l4,-2h4l3,-2h2v-1l3,-1Z"/>
<path class="sl" d="M490,0h1ZM487,0h35l1,1h15l1,1h11l1,1h7l1,1h7l1,1h7l1,1h4l1,1h6l1,1h4l1,1h5l1,1h3l1,1h4l1,1h4l1,1h3l1,1h3l1,1h3l1,1h3l1,1h2l1,1h3l1,1h3l1,1h2l1,1h3l1,1h2l1,1h2l1,1h2l1,1h2l1,1h2l1,1h2l1,1h2l1,1h2l1,1h1l1,1h2l1,1h1l1,1h3l1,1h1l1,1h2l1,1h1l1,1h2l1,1h1l1,1h1l1,1h1l1,1h2l1,1h1l1,1h1l1,1h2l1,1h1l1,1h1l1,1h1l1,1h1l1,1h2l2,2h1l1,1h2l2,2h1l1,1h2l2,2h1l1,1h1l1,1h1l1,1h1l1,1h1l1,1h1l2,2h1l1,1h1l1,1h1l2,2h1l1,1h1l1,1h1l3,3h1l1,1h1l1,1h1l2,2h1l2,2h1l1,1h1l3,3h1l1,1h1l2,2h1l3,3h1l2,2h1l1,1h1l4,4h1l4,4h1l1,1h1l3,3h1l5,5h1l2,2h1v1h1v1h1l1,1v1l1,1v-1v1h-1v-1h-1l-2,-2h-1l-3,-3v1v-1h-1v-1v1l1,1h-1h1h-1l-1,-1l1,1h1v1l-1,-1v1l4,4h-1l1,1h-3l1,1v1h1v1h2v1l2,1l5,5l3,2l1,2l3,2l1,2h1l1,1v1l5,5v2h1h-2l-1,-1v1h1h-1v-1h-1l-1,-1h-1h1v1l-1,-1v1h1v1l-1,-1v-1h-1v1v-1h-1v1v-1h-1v-1h-1l-1,-1h1h-1v-1l-2,-2h1h-1v-1h-1v-1h1h-1v-1l-1,-1h-1v-1l-1,-1v-1h-1l-1,-1h-1v-1h1l1,1v-1h-1v-1h-1v-1h-1v-1h-1v-1h-1l-1,-1v1l-2,-2h-1h1h-1l-1,-1h-1v-1h-1h1h-1l-1,-1h-1h1v-1h-1v-1h1v1h1l-1,-1h-1v-1h-1l-1,-1v-1l-1,-1h-1v-1l-2,-1h-1v-1h-1l-1,-1h-2l-1,-1h1h-4v1h-1v-1h-1l1,1h-1v-1h-1l-1,-1l1,1h1l-1,-1h1h-1l-1,-1h-1v-1h-1h1l-1,-1h1v-2h-1l-3,-3v1l-1,-1l-2,-1v2h-3v2h-1v-1h-2l-1,-1h-1v2h1l3,3l3,1h1v1h1l3,3v1h1v1h2v1h2v-1h1h-1h2l2,1l1,1h1l1,1v1h2l1,1h1l2,2v1h1h-2v-1h-4l-1,-1l1,1h-1l1,1h-2v-1h-1l1,1h1h-1v1h-1v3h1l2,2l2,1h1l1,2h1l1,1l1,2h1v1l5,5v1l2,1l1,1h1v1l1,1h1l1,1v1h1v1h1h-1l-2,-2h-2l-3,-3h-2l1,1h2l3,3h1l1,2l2,1l3,3h-4v1l-1,-1h-1h1l1,2h3l4,4h1l-1,1h-1l1,1l1,-1v1h1l1,2h-1v-1h-2l1,1h1v1h-1h1v1l1,1v1l1,1l-1,-1h-1l-1,-1v2l-1,-1v1h1l-1,1h1l-1,1h1v2h-1v2l-1,-1v-1h-1v1v-1h-1h1v1h1v1l1,1v1h-2l-1,-1l1,1v1h2v2l1,1v1v-1h-1l-1,-1v1h1v1l-1,-1h-1v1l1,1h-1v1h-2v-1h-1v1h-1v-1v1h1v1h1l-1,1h-1v1h-1h1v1h-1v-1h-2v1h-1v2h-1l-1,-1v1h-2v-1h-3l-1,-1h-1v1l-2,-2v2l-1,-1h-2l-4,-4v-1h-1v1l2,2v1l1,1v1l-1,-1v1h-1l-1,-1v1h-3l-1,-1v1h-1v-1h-3v1h-3v-1h-2l-1,1h-1v-1v1h-1v2h1v1l2,1v1l-1,1l-1,-1h-2v-1l-1,-1v-1l-2,-2v-1l1,-1h-1h1v-1h-1v-1h-1v-1h-1l1,1h-3v-1h-1v-1h-2l-1,-1v-1h-1v1h1h-5l-1,1h-1v1h-4v-1h-1l1,2l-1,1l1,1h-1v1l-2,1h-1v5h-1v1l2,2v1h1l1,2h1l3,3v1h-1l7,7l2,1l1,2l3,3h1l1,1v1h1v1l3,3v1h1l1,1v1l1,2l1,1v2l2,2v2l1,1v1l-1,-1l1,2v3h1v2h1v2l-1,-1v1l1,2h-1v2l1,1h-1v1l1,1h-1v1l-1,1h-2l-2,2l-1,-1l-1,2l-1,-1l-2,1h-1l-1,1v-1l-1,-1h-1v1l-1,-1h-1l1,1h-2l1,1h1v1h-1v1l-1,-1l-3,-2h1l2,3l1,1v1h-2l-1,-1l-2,-3h-1l2,3h1v2l-5,1v1l-1,1h-1v1h-2l-1,-1l1,-1l-1,-3v-3l1,-2h1v-1h-1l-2,-2h-1l-1,-1v-1l-4,-2h-3v-1l1,-1l-1,-2l-1,-1v1l-1,1l-2,-2v-3l-1,-1v-1h-1l-1,-1v-1l-2,-2v1l-1,-1v-1l-1,-1v1l-2,-2h-1v-1h-1v-1h-3l-2,-1l-1,1l-1,-1v-6h-2l-1,-1v1l-2,-1h-1l-1,1v1l1,1l-1,2v1l1,2v1l-1,1v2l-1,1v1l-1,2v2l-1,2l-1,1v5l1,1v2l1,1h4v1l1,4l2,2v-1v1l1,1l2,7v1l-1,-1v-1h-1v-2h-1v1l1,1l1,2v1h2l1,1v1l2,1h3l2,2l1,2l3,3l-2,2v1l-2,-2h-1l-2,1v1h-1v-1l-1,-1l1,-1v-2h-2v-2h-1v-1l-1,1v-1l-2,-1l-1,-1v2h-1l-2,-3l-1,-1v-2h-1v-2h-2v-2h-1v-1h-1l-1,-1v-1l-1,-1h-1v-2h-1v-1h-1v1h-2v-8l1,-2v-2l1,-2l-1,1v-3l-1,-2l2,-2v-5h1h-1v-1l-1,1v-4h-1v-1h1l-1,-1v-3l-1,-1v-1l-1,-1v-1l-2,-2v-2l-1,2v-4l-2,-2v-2l1,1l-1,-1h-1v-1l-1,-2v-2l-1,-3l-1,-1v-4h-2l-1,-1l-1,-2v-1l-2,-2h-1v1l1,1l-1,1v1l-1,1h-2l-1,-1v-1h-1l2,2v1h-4l-1,1v1h-1l-1,1l-1,-1l1,-1v-1v1l-1,1h-2l-1,-1v-1l-1,1h-1v-3h-1v1l-2,1v-4l1,-2v-5l-1,-1l-1,-3l-1,-2v-1l-1,-1h-1v-2l-1,-1v2h-1l-3,-3v-1h1l2,2l1,-1v-1h-1l-2,-2v-1h-1l-1,-1h-2v1l-1,-2v-2l-1,1v1h-1v-2l-1,-1v2l-3,-3v-1h-1l-1,-1l-2,-4v-1l-1,-1v-2h-1v-1h1h-1l-1,-1l-1,-2h-1v-1v1h-1l-1,1h-2l-1,-1l-1,-2l-1,-1v-3h-1v1h-1l1,1h1v1h-1v1h1h-1v1l1,1v1h1v2h-2v1l-1,1v-1h-1v-1h1h-2l-1,-1v-1l1,-1l-1,1v3h-2v-1l-1,-2v1l1,1l-2,2v-1h-1v-1l-1,-1v1h-1h1v2h-1v-1l-1,1v-3h-1v-1l-1,2l1,1h-2l-1,-1v1h-1v-3l-2,-2v1h1v1h1l-1,1v1h-1l-1,1h-5l-1,1h-1v1l1,1v2h1h-1v1l-1,1l-2,1v1h-1l-1,-1l1,1h-1l-3,1h-2v-1h-1l-1,1h-1v1h1l1,-1v1h-1l-4,2v1l-4,4h-1l-3,2h-1l-1,1l-4,2l-5,2v2h1l-1,1v1h-1l-3,1h-5v2l-2,2l-1,-1v1v-1h-4v1l-2,2v4l1,1v4l1,1v2l-1,-1l-1,1l1,1h1l1,1l-1,5l-2,2v1l-1,1l-1,2v1l1,1l-1,1h1v7h-4v1h-1v1l-2,3v1h-1l1,1h1l1,1h2h-4l-5,1l-1,1h-1v3l-1,1l-4,2h-2l-2,-2h-1l-3,-4h-1l-1,-2v-1l-1,-1v-2l-1,-2h1v2l1,1l-1,-3h-1v-2l-1,-1l-1,-3l-2,-4l-1,-1l-1,-2h-1l-1,-2h-1l-3,-6v-1l-1,-3v-2l-2,-2v-1l-1,-2v-1h-1v-1l-1,-1h-1v-1l-1,-2l-1,-1h1h-1v-1h1h-1l-1,-1v-1l-2,-2l-1,-2v-5l-2,-4v-2l-1,-1v-4l1,-1h-1v1h-1v-2h2l-2,-1v-1h-1v-3l2,-3v-2l-1,-1v-1h-1v-2h1h-1l1,-1h2l1,-1l-1,1h-4v-1l1,-1h-1v-1h1l1,-1h-4v2h-2v1h1l1,1v1l-2,2l-4,1l-1,1l-3,1h-3l-5,-2v-1l-3,-2l-2,-2l-2,-1l-1,-1h-1v-1h2l1,1l2,-1h1v-1h4l1,-2l1,-1h1v-1l-1,1h-2l-3,1l-1,1l-7,-2l-3,-3h1l1,-1h-2v1h-1l-1,-1v-1v1l-1,-1v1l-1,-1v1h-2v-1h-1v-1h-1v-1l-1,-3h-4v-2l-1,-1v-1h-3v1l2,-1l1,1h-5l-2,1h-7l-1,1h-1l-3,-1h-3l-1,1h-3l-1,1h-5l-1,1v-1h-1l-1,1h-4l1,-1v-3h1l1,-1v-2h3l2,-2h5l1,-1v-2h1v-1h-4v-1h1v-2l-1,-1l1,-1h-2l-1,-1h-4v-1h-1l-1,-1v-1l-4,-4l2,-1l2,-2l4,-2v-3h-7v-2l1,-1v-3h-1v-2l1,-1h1l1,-1h-3v-1h1v-2l1,-1h1v-1h1v-1h1l1,-1v-2h1l1,-1v-2h-1h1v-3l-3,1h-3v-1h-1l-1,-1h-3v-1h-1l-2,-1l-1,1h-3l-1,-1h-5v-1h-4l-1,1h-2v1h-6l-1,1h-1l-1,1h-1l-1,1v1h-3l-1,1h-1v-3l1,-1v-2h1v-2h-4l1,-1h3l-1,-1l1,-1h-2l-1,1h-1v-3h1l1,-1v-1l1,1h7l1,-1h2v-2h-2l-1,-1v-2l-1,1h-3l-2,1l-2,2v1v-1h-1v-1l1,-1v-1h1v-1h1v-1h-7l1,-1v-1h-1v-1h-3v-1h1l2,-1h3l-1,-1h1l1,-1h1v-1h3l1,-1h7l-1,-1h-1l1,-1h1l3,-3h-4l-1,1h-7l-1,1h-3l-1,1h-1l-1,1h-3v1h-2v1h-3v1h-1l-2,1h-1l-2,1h-2v1h-1v1h-2v1h-1l-1,1h-1l-1,1h2v2l1,-1h1h-1v1l-1,1h-1v1h-1l1,1v1h1l1,1v1h2l1,1v1l1,1h4v1h-3l-1,1h-1l-3,3v1h-1l-2,2v-1h1h-1l-2,2v1h-1l-1,1l-1,-1h-2v-1h2v-2h1v-1h-2l-2,1l-1,1h-2l-2,2h-1l-1,1h-1l1,-1h-1h2l-1,-1h1v-1h-4v-1h2v-1h-2v-1l2,-1h-3l2,-2h8v-1h-1v-1h-1h1l1,-1h-3v-1l1,-1h-1l-1,1v-1h-2l-1,1h-2l-1,1h-5l-1,-1l-1,1h-3l-3,1h-6l-1,1h-2v-1h-5v-1l-1,1h-1l-1,-1l-2,1v-1h2v-1h2l2,-1h1h-1h1v-1h2l1,-1v-1h1l-1,1l1,-1h2v-1h-1v-1h3v-1h1l1,-1h2l1,-1h1h-2l-1,1h-1h1v-1h1l-1,1h-1l-2,1v-1h1l1,-1h1l1,-1h1l1,-1h2l1,-1h2v-1h1l1,-1v-1h2v-1v1h-1v-1h2l1,-1h1v-1h-1v1h-1v-1v1h-1v-1v1h-4v1h-2v-1h1h-2v1h-2l-1,1h-3l-1,1v-1v1v-1h1v-1h1h-2l-1,1h-1v-1h2v-1h1h-1h1v-1l-1,1h-2l-1,1h-2v1h-2v1h-1v-1h1l1,-1h1v-1h2l1,-1h2v-1h1h-1h1v-1l-1,1v-1h1h-1h1v-1h2v-1h1h-1l-1,1h-1l-1,1v-1h1h-1l-1,1h-1h1l1,-1h1l1,-1h1h-1h1h-1h1l1,-1h2v-1h2l1,-1h1l1,-1h2l1,-1h2l1,-1h1l1,-1h2l1,-1h1l1,-1h2l1,-1h2l1,-1h2l1,-1h2l1,-1h2l1,-1h2l1,-1h3l1,-1h1l1,-1h2l1,-1h3l1,-1h2l1,-1h3l1,-1h3l1,-1h2l1,-1h3l1,-1h3l1,-1h3l1,-1h3l1,-1h3l1,-1h5l1,-1h3l1,-1h5l1,-1h4l1,-1h5l1,-1h5l1,-1h7l1,-1h7l1,-1h8l1,-1h10l1,-1h15l1,-1h8Z"/>
<path class="sp" d="M490,0h1M496,0h26l1,1h15l1,1h11l1,1h7l1,1h7l1,1h7l1,1h4l1,1h6l1,1h4l1,1h5l1,1h3l1,1h4l1,1h4l1,1h3l1,1h3l1,1h3l1,1h3l1,1h2l1,1h3l1,1h3l1,1h2l1,1h3l1,1h2l1,1h2l1,1h2l1,1h2l1,1h2l1,1h2l1,1h2l1,1h2l1,1h1l1,1h2l1,1h1l1,1h3l1,1h1l1,1h2l1,1h1l1,1h2l1,1h1l1,1h1l1,1h1l1,1h2l1,1h1l1,1h1l1,1h2l1,1h1l1,1h1l1,1h1l1,1h1l1,1h2l2,2h1l1,1h2l2,2h1l1,1h2l2,2h1l1,1h1l1,1h1l1,1h1l1,1h1l1,1h1l2,2h1l1,1h1l1,1h1l2,2h1l1,1h1l1,1h1l3,3h1l1,1h1l1,1h1l2,2h1l2,2h1l1,1h1l3,3h1l1,1h1l2,2h1l3,3h1l2,2h1l1,1h1l4,4h1l4,4h1l1,1h1l3,3h1l5,5h1l2,2M310,37h2l1,-1h1l1,-1h2l1,-1h2l1,-1h1l1,-1h2l1,-1h1l1,-1h2l1,-1h2l1,-1h2l1,-1h2l1,-1h2l1,-1h2l1,-1h3l1,-1h1l1,-1h2l1,-1h3l1,-1h2l1,-1h3l1,-1h3l1,-1h2l1,-1h3l1,-1h3l1,-1h3l1,-1h3l1,-1h3l1,-1h5l1,-1h3l1,-1h5l1,-1h4l1,-1h5l1,-1h5l1,-1h7l1,-1h7l1,-1h8l1,-1h10l1,-1h15l1,-1h8"/>
<path class="sl" d="M252,214v1v-2ZM251,225v1v-1h1ZM252,223v1l-1,-1ZM335,217h1l2,-1l3,1h-1l-2,2h-5l-2,-1h1v-1h2ZM750,249v2l-2,-2h1v-1h1ZM772,254v1v-1h1ZM757,182l-1,-1h1ZM761,180l-1,1v-1ZM761,182h-1ZM758,182h-1ZM983,628l-1,3v-1v2l-1,2v1v-3l1,-1l1,-3v-1ZM979,640v3h-1v1v-1l1,-1v-3l1,-1v1ZM977,649v-2h1h-1v1ZM978,645v-1l1,-1l-1,1ZM975,655v1h-1v1v-1h1v-2ZM981,637h-1l1,-1ZM979,642v-1l1,-2v-1l-1,3ZM981,637h-1h1v-1ZM980,637v-1h1h-1ZM983,627v-1h1v-1v1ZM984,624v-2h1l-1,1v1v-1ZM966,679l1,-1v1ZM969,673l-1,1l1,-1v-1ZM970,668l1,-2v-1h1l-1,1v1ZM484,53h-1v-1l1,1h1h-1h1ZM946,340l-1,1v-1ZM985,401v-1v1v-1ZM994,428v-1ZM951,295l-1,-1h1ZM957,313v-1ZM960,327v1ZM953,300v-1ZM960,322l-1,-1h1ZM960,323v-1h-1h1ZM961,332h-1v-2h1v1ZM242,909v-1ZM225,913h1l-1,-1h1h-1h2l1,1h-1v1l-1,-1l1,1h-1v-1h-1h1ZM491,362l-1,-1h1v1v-1ZM28,591v-1ZM5,556v1ZM343,141h-1h1v-1l1,1ZM337,142l1,-1v1ZM347,141h-1v1h-1v-1h1ZM351,139h-1ZM271,66h-2ZM364,67v-1h1h-1ZM218,102h-1l1,-1ZM136,162v1l1,-1ZM131,169l-1,1l2,-2ZM891,444l-1,1v-1ZM886,454v-3h1v-1h-1v-1l1,-1v-1h4l1,1h1l2,1h2l1,1h1v1l-1,1h-3l-1,1h-7ZM881,450l1,-1l1,1v1h-2ZM738,237v1ZM736,234v1v-1h-1v-1ZM708,258v1l-1,-1v-2h1v1h1ZM720,248v1h-1v-1ZM719,271l-1,-1l1,-1v1ZM710,258l-1,-1h1ZM707,250v-1ZM714,262v1v-1h-1v-1h1ZM222,385v3l-1,-1h-1v-5l1,1v2ZM224,374v4l-1,1v-4ZM224,400v-1l2,-2v1l-1,1ZM481,49h-1ZM481,54h-1v-1v1ZM840,200v2h1v2l-1,-1v-1l-1,-1v-1l-1,-1h-1v-1h-1v-1l-1,-2h-1v-3h-1v-5l1,-1v-2h3v1l1,1h1v2l1,1v5l1,1v4ZM821,181v1l-1,-1l1,1ZM555,228h-1ZM555,233h-1v-1v1ZM555,227h3l1,2l3,2l1,2l3,3v1h1v1h1v2l2,3v1h1v1l1,1v5l-2,2l-2,1l-1,1h-3l-2,1h-4l-1,-2l-1,-1v-2l-1,-2l-1,-5v-2l-1,-2v-1l1,-1v2v-2l1,-1v-3l1,-2h1v-2l-1,-1h1l1,1h1v-1h-1l-2,-1h-1ZM837,145l-1,-1ZM834,143l1,1h-1v-1h-1v-1ZM828,142v-1h1ZM816,125l-1,-1ZM831,143h-1v-1ZM834,144v-1ZM821,131h-1v-1ZM827,139v1l-2,-2h1v1ZM834,136v-1ZM833,148l-1,-1h2l1,1v1h-1ZM301,725h-1v-1h1ZM993,555v-1ZM989,604v-1ZM991,595v-1ZM989,584v-1ZM993,570v1h-1l1,-1h-1h1v-3ZM992,558v-1ZM993,560v1ZM992,546v1v-2ZM992,552v-1ZM992,551v-1ZM991,548v1v-2l1,-1v1ZM992,540v-1ZM991,541v-1h1ZM992,543v-1Z"/>
<path class="sl" d="M992,530v-1ZM992,550h-1v-1h1ZM992,561v2l1,1l-1,2v1v-5ZM993,556v-1l1,-2v2ZM993,538v-1ZM994,557v5l-1,1v-1l1,-3v-3ZM992,577v1h-1h1l-1,1v1v-4h1v-1v1ZM753,318h-1l-1,-1h2ZM5,427l1,-1ZM346,349v1v-1h-1v-1ZM231,159h-2v-1h1ZM250,206v-1h1v1h-3v-1h1v-1h1l-1,1v1ZM229,158v-1h1h-1ZM43,407v-1ZM40,421v1v-3h1v1ZM185,113v-1ZM488,0h-1Z"/>
<path class="sp" d="M487,0h1"/>
<path class="sl" d="M277,64l1,-1h3l1,-1v1h1v1h1l1,-1h1l1,-1h1v1h-1l-1,1h-3l-1,1h-1l-1,1h-1l-1,1h-2l-1,1l-2,1l-1,1h-1v-1h1l1,-1v-1l-1,1h-2l4,-2l1,-1h1ZM328,142h-3v-5h1v-1h1l1,-2l1,-1h2l1,1l-1,1v4l-2,2ZM850,226l4,4h1v1h1v-1h1v5l1,1v1l2,2v1h1v2l-1,2v2h-2v5l2,4v2l1,2h1v1l2,2h1v-1h-1v-1h2l1,1h1v1l1,1v2l1,1h1v-1l-1,-1h1v1l1,1h1v1h1v1l-1,-1l-1,1l2,2v1l1,1h-1h1v1h1v1h1v3l-1,-1v-2h-1l-1,-1l-2,-1v-2l-1,-1v-1l-3,-3l-1,-2h-1v2h1v1l1,1v1h-1v-1l-1,-1l-1,-2l-3,-3h-2l1,1h-2v-1l-2,-2h-1l-1,-1v-2l1,-1v-2h-1v-1h-1v-1v3h-1v-1l-1,-1v-1h-1v-1l-1,-1v-2l-1,-1l-1,-3v-1h-1v-2h1v1l1,1h1v-2l-1,-1v-5l-1,-1v-2l-1,-3v-2h2ZM842,291v-2l3,-3h1l2,-2v-1l1,-1h1l1,-2h1v-5l1,-1v3l2,4h-1v1l-1,-1l-1,1v1h-2v1l-1,2v1h-2v1h-1v1h-1v1h-2ZM869,280h2v1l1,1h1v3h-1v1l-1,1l-2,-1l-1,1v-2h-1v-1l1,-1v-1l-1,-1v-3l-1,-1v-1v1h1l2,2ZM876,300h-1l-1,-2v-1h-1v-1h-1l-1,-2v-2h2v-6h2l1,2l1,1l-1,1v3l-1,1v1l1,1l1,3v1ZM881,287l1,1v-1l2,2v4h1v1h1v3l-1,-1v1h-1v-2l-1,-1v-3l-1,-1h-1v-2l-1,-2v-1v1h1ZM883,280l1,1v1l1,1v3l1,1v1l1,2v2h1h-1l-1,-1h-1v-1l-1,-1v-1l-1,-1v-2h-1v-1l-1,-1v-1h-1l-1,-1v-1l-1,-1v-2l2,1l1,1ZM857,262h1l1,1h1v1l1,1v1h1v2l1,2l-1,1v1h-1v-1h-1v-1l-1,-1v-1l-1,-1v-2l-2,-2v-1h-1v-1h1ZM891,306l2,2v2l1,1h-1v1l1,1v2l1,1v3h1v6l-1,1v-1v3l-1,-2v-2h-1v-1l-1,-2v1h-1v4l1,1v2l1,2l-1,1v1h-1v-2h-1l1,-1l-1,-1v1h-1l-2,-2l-1,-2l-1,-1l-1,-2l-1,-1v-5h1v-1h-1v-2l-3,-3h-1v3l-1,-1v-1l-1,-1v1h-1v-1l-1,-1v-1h-1v1l-1,1v3h-1l-1,-1v-2h1v-4l1,-1h1l1,1h1v-2h2v-1l1,1h1v1l1,1v3h2v-2l1,-1l1,2v-3h1l1,1v-1h1v1h1v-2l-1,-3v-1v1l3,3ZM877,298v-3l-1,-1l1,-1v-1l1,-1v-5l1,1v6h-1v4ZM854,227h-1v-1h1ZM851,222v1h-1v-1ZM851,217h-1v-1h1ZM849,214v-1ZM867,318l1,1h1v1h-1v-1h-2v-1ZM841,294v1v-2ZM856,282h-1v-2l1,1ZM855,270h1l1,1h-2l-1,-1v-1h1ZM855,273v-1l-1,-1h1v1ZM872,289h-1v-2h1v1ZM883,299h-2l-1,-1h-1v-2h1v-1h1l1,1v1h1v1ZM863,322l-1,1v-1v1l-1,-1v1h-1v-1h1l1,-1v1ZM873,318h-1l-1,-1v-1l1,-1l1,2h1h-1ZM891,303v-1l1,1ZM889,301l-1,-1v-2l1,2ZM854,259l-1,-1v-1v1ZM863,264h1l1,1v2h-1v-1h-1v-1ZM866,273v1l-1,-1v-2h1v1ZM869,275l-1,-1v-1l1,1ZM872,273l1,1l-2,-2v-1h-1v-1l2,2ZM875,277l1,1l-2,-2v-1l1,1ZM875,278l2,1l1,2v2l-1,-1v-1h-1v-1h-1v-1l-1,-1l-1,1v-3l-1,-1h1l1,1v1Z"/>
<path class="sl" d="M877,270h-1l-1,-1v-3l1,1v1h1v1ZM864,261l-1,-1v-1ZM862,254v2l-1,-1v-1ZM881,292v-1ZM887,299v1l-1,-2ZM877,313h-1v-1ZM892,324v-2ZM881,286l-1,-1v-1l1,1ZM885,304v1l-1,-1v-1h1ZM850,224h-1v-1ZM854,274h1v1h-1ZM877,285v1ZM867,273v-1ZM891,304v-1ZM882,286v-1ZM843,292h-1ZM879,301h-1v-1h1ZM990,502v-11l-1,-1v-4l-1,-2v-4l-1,-1v-2l1,1v4l1,1v5l1,2v11ZM988,494v1l1,-1v7h-1v-1v5l-1,-1v-1v1h-1v1h-2l-1,-1v-1h-1v-3h-1v-4l-1,-1v-2l1,-1v2h1v2l1,1h1v-3h1v1h-1v4h1v1h1v-2h2v-5ZM956,497v-3l1,-2v-5l1,-1v-9l1,-1v-5l1,-2v-10l1,-1v-13h1v1l2,3v2l3,6h1v1l1,1v2l1,1v2l1,1v1h1v3l1,1v3h1v5l1,1l-1,2v3h1v1l1,2l1,4v1l1,1v7l-2,-2v9l1,2v14h1v6l1,1v2h-1v2h1v3h1v2h-1v-1v2h-1v-5h-1v-1l-1,-2v-1l-1,-1v-1h-1v-6l-1,-1v-11l-1,-2v-5l-1,-1v-1l-1,-1v-2h-1l1,-1h-1v-2h-1v1v-1v1h-1v-3l-1,-1v1l1,3h-1v1v-1l-1,-1v2h-1l-1,-1v-1h-1v-2h-1v1l2,2v2l1,1v4h-3l-1,-1v-1l-1,-1h-1v-1l-1,-1h-1ZM979,494v-4l1,2l-1,1ZM975,478v-1ZM990,488v-1ZM989,484v1v-2ZM985,465v-1ZM981,538v-1v2l-1,-1l1,-1v-2v2ZM980,531v-1ZM983,527v1v-2ZM984,559h-1v-1h1v1v-1ZM965,501v-1l-1,-1l1,1ZM978,488h-1v-2h1v1ZM979,459l1,2v1l-2,-2v-1ZM986,476v-3l1,2v1ZM981,530v3h-1v-3ZM985,534v1ZM983,557v2h-1v-3ZM965,502l-1,-1v-1ZM981,465v-1v1v-1ZM989,483v-1ZM980,541l-1,1v-1ZM991,499v-1ZM992,527v1v-2ZM992,513v-2ZM922,370v-1ZM934,346v-1ZM380,161h-1l3,-3v1l-1,1v1ZM366,133h-1v-1h1ZM44,385h-1l1,-1ZM372,481l-1,1h-1l-1,-1h1l-1,-1l1,-1v-1l1,-1h1v1l1,1v1h-1ZM153,148l-1,1ZM153,148h-1ZM499,276v-1ZM722,272h1v-2l1,1l2,1v1l1,-1v1h1v2h2v2l-1,1l1,1v1h1v-1l2,-1h1l2,2v-1l2,-2h2l1,3l3,3h1l1,2v1l2,3l1,2v5l-1,2l1,2v5l3,3l1,3l3,6v1h-2v-2h-1v1h-3l-1,-1v-1l-4,-3h-1l-2,-2l-3,-2l-2,-2l-1,-2l-2,-1v-1h-1v-4l-3,-3l-1,-2h-1v-1l1,-1h-1l-1,-1v-4l-2,-7v-2l-1,-1v-2l-1,-1ZM847,324h-1l-1,-2h-1l-2,-1h-1l-1,-1h-1l-1,-1h-3l-1,1v8h-3v2l1,1v1h-1l-1,1h-1l1,1v1l-1,1v1l-1,1h-2l-1,-1h-2v1h-1l-1,-1h-1l-2,-2v-1h-1l-3,-1h-2v2h-1l-1,1h-1l-1,-1l-2,-1h-6v-1h-1l-1,-2l-1,-1v-1h-1v-1l-1,-1v-2h-1v-2l1,1v1l1,1h1l1,1h2l3,3h1l1,1v-1h-1v-1h1v-2l1,-1l-1,-1v-1l1,-1v1h1v-3h5l4,1l1,-1h1v-1l6,-6v-1h-1h2v1l1,1v1l2,2h1v-3l-1,-1v-1h2v-1v3l1,2h1v-2l-1,-1v-1h2v-1l1,-1h-1l-1,-1v-1l1,-1l1,1h1v-1l1,-1v-1h1l2,-3l1,-3v1l1,1l-1,1h1l1,-1v-1l1,1v1l1,1v1h1l1,1v4l-1,1h4v1h-1v1h3v1h1v2h1l2,2h1v1h1v1h-1v1h-3l-2,-2l-1,1l1,2l2,2v1h-2l-1,-1l-1,1v-1l-1,-1h-1Z"/>
<path class="sl" d="M755,307h-1l1,-1ZM724,281h-1v-1l1,-1v1h1ZM720,271l1,1v1l-1,-1v1l-1,-1v-1l1,1ZM842,300v-1h1v1ZM733,300h-1ZM807,324h-1v-3l1,2ZM849,325h-1l-1,-1h1ZM194,445h-1v-1h1ZM193,444v1l-1,-1ZM302,421v2l2,2h1v1l2,4l1,4v4l2,4l1,1v4l-1,3v1l-3,-3v-1h-1l-1,1v1l1,1v3h1v6h-1v2l-1,2l1,3v6l-1,2v2l-1,3v4l-1,4v4l-1,4v4l-2,11v12l-1,3v6l-4,4h-1l-2,1l-4,4h-3l-2,-1h-3l-1,-1l-2,-1v-1h-1v-1l-1,-1v-1l-2,-1v-3l-1,-2v-3l-1,-1v-1l-3,-3v-1l-1,-2v-1l-1,-2v-1l1,-1v-5h1l1,-1v-3l1,-2v-1l1,-2v-8l-1,-1l-1,-2v-2l-1,-1v-1l-2,-2v-5h-1v-3l2,-7v-4l3,-1l2,-2h2l1,-1v-1l2,-1h1l1,-1l1,2h1v-1h-1v-2l4,-4h1v2l1,-1v-1h-1v-1l1,-1v-1l1,-1v-1h1v2l1,-1v-2h2l-1,-1v-2l1,-3l-1,-1v-2l1,-1v1h2v-1l2,-2l2,-5v-1l-1,-1v-2h1l1,-1l1,-2h1v1l1,1ZM293,431h-1v-1h1ZM309,459l-1,2v-2l1,-2ZM315,117h-1v-2h1v1ZM231,350v-1h1ZM360,47h-1v-1h1l-1,1ZM361,46l-1,1v-1ZM375,43v-1ZM849,148v1v-1h-1ZM857,152v-1h-1v-1h-1h1v1h1ZM863,163h-1v-1ZM863,176l-1,-1ZM863,176v-2h-1v-1v1h1v1ZM853,163v-1h-1v-1l1,1ZM842,150l-1,-1h1ZM842,149h-1v-1h-1v-1h1v2ZM845,156h1v1h-1ZM839,132h-1ZM860,160h-1ZM846,157v-1l-1,-1l1,1ZM847,156h-1v-1ZM846,153h-1ZM855,158v1v-1h-1ZM854,165h-1v-1ZM916,230v-1ZM843,137h1l-1,-1h-1v-1h-1l-2,-2v-1h-1v-1h-1h1l1,1v1l1,1h1l3,3Z"/>
<path class="sp" d="M837,131h1l1,1v1l1,1h1l3,3"/>
<path class="sl" d="M852,157v1h1l1,1v1h1v1h1v1h1v1h1v2l1,1v1h1v2h1v1h-1l1,1h-1l-1,-1v-1l-1,-1v-1h-1v1h1v1l1,1l-1,-1h-1v-1h-1h1v-1h-1v-1h-1v-1h-1v-3h-1v-1l-1,-1v-1l-1,-1h-1l1,1v1h1v1v-1h-1v-1h-1v1v-1l-1,-1l1,1l-3,-3v-1l1,1l-1,-1h3v1l1,1ZM861,162h1v1l2,2v1l1,1h-1l-1,-2h-1v-1h-1v2h1v1v-1h-1v-1h-1l-1,-1v-1h-1v-1h-1v-1h-1h1v-1l-1,-1h1v1h1v1h1l-1,-1h1l1,1ZM850,143l11,11v1h1l1,1v1v-1v1h1v1h1v1l4,4v1l6,6h-1l2,2h-1v-1l-2,-2v-1h-1h1v1l1,1l-2,-2v1h1v1h1v1l-1,-1v-1h-1v-1h-1l1,1h-1v-1h-1v-1h-1l-1,-1l1,1v-1h-1l-1,-1l1,1h-1v-1l-1,-1v-1v2h1l1,2h1v1l-1,-1l1,2v1v-1l-1,-1h-1v-1h-1l-1,-1v-1l-2,-2v-1h-1v-1h-1l-2,-2h-2v-1h-2v-1h-1l-1,-1v1l-1,-1h-1l-1,-1h-1l-1,-2h2v-2h1v1l1,1h1l1,1h1l2,1v1h1v1h1l1,1l-1,-1v-1h-1v-2l-3,-3h1v1l1,1h1v1l1,1h1v-1h-1v-1l-2,-2v-1h-1l-1,-1v-1h-1v-1l-2,-2h-1v-1h-1v-1l-2,-2h-1h1l-1,-1l2,2ZM848,141l-1,-1Z"/>
<path class="sp" d="M848,141l2,2M846,139l2,2"/>
<path class="sl" d="M852,195l1,1h-1ZM851,196l-1,-1h1ZM857,197v-1l-1,-1v1h1ZM865,192h-1v1v-1h-1l1,-1h-1v-1l1,1v-1l1,1ZM865,187h-1v-1ZM865,185h-1v-1h1ZM865,185h-1v-1v1ZM884,183h-1v-1ZM173,122l-1,1ZM173,124v1ZM148,149v1ZM167,133l-5,5v1h-1v1l-1,1h-1v1h-1v1h-1v-1l-1,1h-2l3,-3v1v-1h1v-1h2v-1h1l2,-2h1v-1h1v-1h1ZM161,134h-1l-8,8v1h-1l-3,3v-1h1l1,-1v-1h1v-1h1v-1h1v-1l1,-1h1v-1h1v-1h1v-1h1l3,-3ZM148,146h-1ZM158,136h-1h1v-1ZM232,128l-3,3v-1l2,-1ZM367,123l-1,1h-2v1h-2l-1,1h-1v-1h2l2,-1v-1h4ZM703,307l2,2v1l1,1h1l-1,1v2h-1v-1l-2,-2h-1v-2l-2,-3l1,1l1,-1ZM716,335l-2,-1v-1l-2,-3v-2h3v1l1,2v1l1,1v2ZM838,425l-1,2h-2l-2,-2v-1v1h1v-3h2v-1h1l1,1v1h1v1ZM831,419l1,2v1h-3v2h-1v-3l-1,-1v-1h-2v-1l-1,-1v-1h1l2,1v1h1l1,-1l1,1ZM769,346v1l1,1v2l1,3l3,2h-1v3h-1l-2,-2h-1l-1,-1v-3l-1,-1v-2h-1l-1,-1h-2l-1,-1v-1h2v-2h1l1,1v1l1,-1l-1,-1h2v1h1ZM880,408v2l-1,-1v2l-1,1v1h1l1,1h-1v1l-1,-1v1l-1,1h-1v-3h1v-2h1v-3l1,-1v-1v1ZM876,413h-1v-1v1h-1v-1l1,-1v-3h1l1,-1v3l-1,1ZM785,308h-1l-1,-1h1v-1h-1v-1h-1v-1l2,-1v1l1,1v2ZM784,361v1h-2v-1h-2v-5h2l3,3ZM941,411l1,1v1h1v1l1,1v3h1h-1l-1,-1v-1l-1,-2l-1,-1v-1ZM941,419l5,5v1h1h-2l-2,-2v-1l-2,-2ZM921,393h1l1,2v2l-1,-1h-1v-2l-1,-1v2h1v1h-1v-1h-1v-1l-1,-1v-1h2v1ZM909,369h-1v-3l1,-1h1v3ZM908,398h-2l-1,-1h-1v-2l1,-1l1,1v1l1,1ZM896,399v-3l1,2ZM896,393l2,1v1l-2,-1h-1l-1,-1h-1v-1h1l1,1ZM891,390h1v1h1v1h-2l-1,-1h-2l-1,-2l1,-1h1ZM919,459l-1,-1v-2h1v-2h1v-1h2v1h-1v3h-1v1h-1ZM897,443v1h-1l-1,1l-2,-2h-1v-1l1,-1v1h3ZM885,441v1h2v1h1v1l-4,-1v-2ZM921,404v-1h-1v-3h1l1,1v2ZM694,276h4l1,1h4v1l3,3v1l3,3v2l2,1l1,1v1h1l1,1l2,1l6,6v1l2,2l1,2l1,1v1h1v1h1l2,2v-1l-1,-1v-1h1l3,3v1l1,1v1h2l1,1l1,2l1,1h1v3l2,2h1l2,1h1v1l1,1l-1,1h-3l1,1l1,-1h2l1,-1h1v1h1v1l2,2v1h-2l-1,1v1l1,1l-1,1l1,2l1,1l2,1l1,1h1v1h1l1,1v5l3,3v1h-1l-1,1v2h1l2,-2l2,1h1l1,1v1l2,3l1,2v2l-1,1v13l-1,5l-1,1h-1v-1l-2,-2l-1,1h-2l-2,-2v3l-2,-2l-1,-2v-1h-1l-2,-3v-1l-3,-2v-1l-6,-6l-1,-2l-4,-6l-2,-1v-1l-1,-2l-1,-1v-1l-1,-1h-1l-1,-3l-1,-1v-2l-2,-6l-3,-6l-2,-2v-1l-1,-2l-3,-3h-1l-1,-1v-3l-1,-3l-2,-4v-2l-6,-5h-2v-1l-1,-1v-3l-2,-1l-1,-1v-1l-1,-1l-1,-3h-1l-1,-1l-2,-1h-1l-1,-2v-1l-2,-1l-5,-5v-1l-1,-1l-1,-2v-3h1l1,1h2l1,1l2,1v1h1Z"/>
<path class="sl" d="M875,440h-7v-1h-4v-1l-2,-2h-2l-1,-1h-1l-1,-1v-2h1v-1v1h1l1,-1h1l2,2h1l1,1v1h1l1,1v1h3l2,2h1v-1h3l-1,-1v-1l1,1v2h-1ZM858,440l1,1v2h1l1,1v2h1v2h-3l-2,-2v-2h-1l-1,-2l-1,-1h-1l-1,-1v-1h-1v-1h4l1,1h2ZM848,427h2l1,1h1l1,1v3h-1v-1h-1v1h-2v-2l-1,1h-3v-1h-1l-1,1l-1,-1h-3v-1h-1v-1l1,-1v-2h2v-1l1,1h1v1h1v1h1v2h3v-1h-1v-1h-1l-1,-1v-2h1l2,1v1ZM891,368l-2,1v1h-1v1h-2l-2,-1h-1l-2,-2v-1h-1l-4,-2h-1l-2,-1l-1,-1h-1l-2,-1h-1l-2,-2h-1l-2,2v7l1,2l2,2v3h2l1,1l1,-1v-1l1,-1h1l2,2l1,-1h1l1,1h1l1,1v-1h3v4l-1,-1v-1h-2l-3,3h-3v1l-1,1v-1h-1v-1l-1,1h1v1l1,1v1l1,1v1l1,2v2l2,1v1h-1l1,1v1l-1,1v3h1v1l1,1v2h1v3l-1,-1v1v-1h-3l-1,1v1h-1l-2,-2v-1l1,-2v-3h-1l-1,-1l-2,-4v-1l1,-1v-5h-1v-1h-2l-1,1v15l-1,2v5h-1l-1,-1h-1v1h-1l-1,-2v-1l-1,-1v-1l1,-1v-3l1,-1v-9h-1v-1h-2l-1,-1v-6h1v-1h1v-3l1,-1v-4l2,-4v-1h1v1l1,1v-1l-1,-1v-5h1v-1l-1,-1l1,-2h1v-2h1v-1l2,2v-1h1v-1l1,-1h1l1,1h1v2h1v1h2l1,1l2,1v1h1l1,1v1l1,-1l5,3h2l1,-1h1v-1h1v-1h2v2l-1,2ZM777,384l1,1v1h2l2,2h2v1l1,1v2l1,1h1l1,1l2,1h2l2,1h2v1h1l1,1l2,-2v-2h1l1,1l1,2h1l1,1v-1h1l1,1v1l2,1v1h2l2,2v2h1v3l1,1l2,1l1,1h4l2,2v7l1,1v1l-1,-1h-1v-1h-1l-3,-3l-3,-2h-1v-1l-1,1h-2v-1l-2,-1h-1l-6,-3h-2l-1,-1l-2,-1l-3,-3l-5,-3l-1,-1h-2v-1h-3v1l-1,-1h-1l-2,-1h-1l-1,-1v-1h-1l-1,-1l-5,-2h-1v-1h-1v-1h1v-1l-2,-2l-2,-1h-2l-1,-1h-2v-1l1,-1v1l1,1l1,-1v-2l1,1v-1l1,-2l1,-1h1l2,1h1l1,1h1v1l2,-2v1h2ZM794,323v2h1v2l1,1v1h1v1l1,1l1,2h1v1h6l2,1l1,1h1l1,-1h1v-2h2l3,1h1v1l2,2h1l1,1h1v-1h2l1,1h2l1,-1v-1l1,-1v-1l-1,-1h1l1,-1h1v-1l-1,-1v-2h3v-8l1,-1h3l1,1h1l1,1h1l2,1h1l1,2h1h-1v1h1v2h1v2l-1,-1v-1l-1,1h-1l-1,-1v1l2,1v3h1v1l1,1h-1h1v1l1,1v2l1,1v2h-1v1l1,1l1,2l2,3l3,3v2h-2l-2,-1h-1v-1l-1,-1v-1v2h-1v1l-1,2l-1,1v6l1,1v1h-1l-1,1h-1l-1,1h-1l-1,-1v-1v3h-1v2h-1v3h-1l1,1h1v3h-1v-1l-1,1h1v1l-1,1v1l-1,-1v1l1,1h-1v1l-1,1v1l-9,2v-4l-1,-2v-1v1l-1,-1v-1h-1v-1l-1,1h-2v-2h-1v-1h-1l-2,-3l-1,2l-1,1h-2l-1,-1h-2l-1,1l-1,-1v-5h-1v1l-1,-1h-4v-1h-2v-1h-2l-1,-1v-8l-1,-1v-6h-1v-1l-1,-1l-2,-1l-1,-1v-1h1l-2,-2v-2l1,-1v-1l-1,-1v-1l-1,-1v-1l-1,-2l1,-1v-2l1,-1h-1v-1l2,-2v-1h1ZM906,377h1v-1h1v-2h2v4h-2v1l1,1l1,2v2h1v1l-1,-2h-1v-1h-1l-1,-1h-1v3l1,2v3l1,2l1,1v1l-1,-1v-1l-1,-1l-1,-2v-2h-1v-9l-1,-1v-5l1,-1v-2l1,-1h1v1l-1,1v1l1,1v3l-1,1h-1v1Z"/>
<path class="sl" d="M915,413l2,2h1l1,2v2l1,1v4l-2,-4h-1l-1,-2v-1h-1l-1,-1h-1l-2,-2v-1h-1v1h-1l-1,-1v-2h-1v-1v1h-1v1v-2l1,-2l2,1l1,1h2v1h2v1ZM900,406l1,1v1h1v4l-1,-1v1h-2v-1l-2,-2v-1l-1,-1v-3l1,1h2ZM886,449v1h1v1h-1v3l-3,3h-6v-1l1,-1v-3l2,-2h1v1h2v-1h1v-1h1ZM936,450v4l-1,1h-1v-2l-1,-1v-1h1v-2l1,-1v-1l1,1v1ZM935,456h-1v2h-2v-1l1,-2v-3l1,1v2ZM948,483h-1l-2,-2v-1l2,-4h1v-1h1v1h1v1l1,1v2l-1,1v1l-1,1ZM961,445v13l-1,1v10l-1,2v5l-1,1v9l-1,1v5l-1,2v3l-1,-1v-4l-1,-4v-2l-1,-1h-1l-1,-1v-1v1h-1v-3h1v-5h-1v-1h1v1h1h-1v-1l-1,-1v-2h1v-3l-1,-1v-7h-1v-4h-1v-1l-1,-3v-1h-1v-1l-2,-2l-1,-2v-1l-1,-1l-1,-2l-1,-1h-1l-2,-4v-2h1h-2v-1h-1v-2h-1v-2h-1v-4l1,-1h-1v2h-1v3l-1,1h-2v-7l-2,-4v-1h-1v-2h1v1l1,1h1v1l1,-1v-1h1v1h1l1,1v1l1,-1v-2l-1,-1h-1l-1,-1h-1l-2,-2h-1v-1l-1,-1v-5h-1l-2,-3h-2v-1h1v-1l1,-1v-1h3v-1h3v1l2,2l1,2l4,4h-1v2l1,1v3l-1,1v4l1,1v3l1,2v-1v3h1v3l2,2h1l2,-2v-1h1v-2h4v-2h3v2l2,3h1v2l1,1v1l2,4h1l1,1v1l1,1v1l1,1ZM950,485h-1v-2h1ZM736,308v1h1l-2,2h-1v-3h1ZM742,318h-1l-1,-1v-2h1v1h1v1ZM742,314v1h-1l-2,-2h-1v-1h1ZM746,321l-2,-1l-1,-1h-1v-2h1v1l1,1l2,1ZM747,320h-1v-1h-1l-1,-1v-1l2,1l1,1ZM748,323h-1v-1h1ZM749,322v-1h1v1ZM754,319v1h1h-1v1l-1,-1v-1l1,1ZM758,320v1h1l-1,1v1h-1v-2h-2v-1h2ZM759,331l1,1v-1v1h1v1h-1l-1,-1h-1l-1,-1l1,-2v1h1h-1ZM757,332l1,1v1h-1l-1,1v-3ZM752,331h-2v-1h2ZM795,349h-2v-2h1l1,1h1ZM821,406h-5v-1l-2,-1v-1l1,-1l1,1l6,2l1,1ZM939,414l-1,-1l1,-1v1ZM903,386h-1v-2h1v1ZM905,386v3h1v2l-2,-2v-1l-1,-2v-1h1v1ZM928,446v1v-2l1,-1v-2l1,1l-2,2ZM928,446h-1v-2l1,1ZM907,415v-1l-1,1v-1h2v1ZM900,349h-1l1,-1v-1h-1v-2h1v3ZM894,351l-1,-1v-1h1v1ZM917,460h-1l1,-1h1v1ZM912,454v1h-1v-3l1,1ZM902,450l1,1v1ZM918,405l1,1v1h-1h1h-2l-2,-2v-1h2ZM740,370h-1l-1,-1l1,-1v1h1ZM726,348v2l-1,-1v-2l-1,-1v-1h1l1,2ZM724,344v1h-1v-2h-1l1,-1ZM721,341h1l-2,-1l-1,-1v-1h1l1,1v1ZM711,324h-1v-2l1,-1l-1,-2v1l1,1v2ZM695,298h-1l-1,-1l-2,-1h-1v-1h-1v-2h1l4,4h1ZM873,412l-1,-1v-2h1v2ZM881,381v2l1,-1h1v2h-1v-1l-1,1v-2l-1,1h-1v-3h2ZM874,371v1h-1v-1l-1,1v-1h1ZM863,416v1v-5l1,-1v2ZM831,409l-1,-1v-1h1v1h1v1ZM839,385l-2,1v-5h1l1,-1v4ZM873,460h-1v-1l1,-1h1l1,-1h1v2h-1v1Z"/>
<path class="sl" d="M883,442l-1,1v-1h-1v-1h1v1l1,-1ZM881,441l-1,-1v1h-1v1h-1v-1h-1l1,-1h1h-1v-1h1v1l2,-1v1ZM878,440l-2,-1l1,-1l1,1ZM935,457v-1ZM749,319v1v-1h-1h1v-1ZM752,322v-1ZM755,322h-1v-1ZM759,329v1l-2,-2h1ZM770,308v-1ZM766,309v-1h1v1ZM789,315h-1l1,-1ZM790,351h-1v-1ZM779,358v1l-1,-1ZM775,358h-1v-1ZM825,408h-1v-1h1ZM814,393h-1l1,-1ZM761,385h-1l1,-1ZM702,302l-2,-2h1v1h1ZM685,270h-1v-1h1ZM883,386v-1ZM880,405h-1v-2l1,1h1ZM885,389h-1v-1ZM881,386h-1v-1h1ZM855,433v-2h1v1h-1ZM853,428v-1l1,1ZM831,424l-1,-1h1ZM847,324l1,1h1v1h-1l-1,-1ZM848,331h-1v-1h1ZM884,422h-1l1,-1ZM882,415v1v-1h-1ZM864,423v-1ZM844,425h-1h1l-1,-1h1v-1l1,1ZM840,382l-1,2v-1ZM904,376v1l-1,-1ZM936,420v-1v1h1ZM932,435v1v-1l-1,-1v-1l1,1ZM921,399v1l-2,-1v-1h1v1ZM920,396l-1,-1h1ZM915,390h-1v-1l-1,-1ZM904,383v-1ZM904,378v-1ZM903,389v-2ZM910,415v1l-1,-1v-1ZM909,415h-1v-1ZM899,350v-1l1,1ZM893,356v-1ZM923,454v1l-1,-1v-1h1ZM907,445v-1h-1h1ZM900,445v-1h1v1ZM876,456v-1h1h-1ZM867,454h-1h1v-1h1v1ZM935,459v-1ZM906,408v1ZM904,410v-1ZM876,440l-1,1v-1h2ZM673,260l-1,1l-1,-2v-2h1l1,2ZM671,256v1l-1,-1ZM666,249h-1l1,-1ZM669,252h-1v-1h1ZM669,251v-1ZM663,242h-1v-1h1ZM660,231h-1v-2h1v1ZM661,225h-1v-1ZM661,224l-1,-1v-1h-1l1,-1v-2h1v-1l-1,-1h1v-1l-1,-1h1v-4h1v-1h1v1l-1,1h1v1h-1v2l1,2l-1,1v2h-1v2h1l-1,1ZM663,221l1,1h-1ZM660,215v-1ZM494,216v-1ZM213,115h-1ZM187,121v1h-1v1v-1v1h-1h1v-1h1v-1h1ZM186,123v1h-1ZM189,120h-1l1,-1h1ZM188,121h-1ZM190,117h-1l1,-1h1h-1v1h-1ZM202,112l-1,1h2v-1h1l-1,1v1h-1h1v1h-1v-1h-1l-1,-1v1h-1l1,-1h1v-1ZM204,111h-1ZM205,110l-1,1ZM207,111h-1v-1h1h-1ZM215,102h-1l1,-1ZM198,117h-1ZM189,127h-1h1v-1ZM205,122l1,-1v-1h1l-1,1v1ZM210,115v-1ZM209,116l1,-1h1h-1v1ZM203,118l1,-1ZM202,118h-1h1l1,-1ZM201,121h-1ZM201,120v-1h1ZM213,111l-1,1h-1h1v-1ZM208,114h-1h1v-1h1ZM204,118h-1h1l1,-1ZM206,118h-1ZM200,117v1v-1h1ZM200,118h-1ZM198,121h-1l-1,1l1,-1ZM203,116l-1,1v-1ZM204,115h-1l1,-1ZM204,115v1h-1v-1ZM199,120v-1h1ZM211,110l-1,1v-1h1v-1h1ZM217,105h-1h1l-1,1h-1v-1v1h-1h1v-1h1l1,-1ZM218,101h-1ZM215,103v1h-1v1h-1l1,-1l-1,1v-1h2ZM204,116v-1h1v1ZM210,118v1v-2h1l1,-1l2,-1l-2,2h-1Z"/>
<path class="sl" d="M190,129l1,-1v1v-1h2v-1h3l1,-1h1h-1v1h1v-1h1l1,-1h1h-1l-2,2h-1l-1,1l-4,2v-1h-1l-2,1l-1,1v-1l2,-2ZM170,124l-1,1v1l-2,1v1l-1,1h-1l-1,1v1l-2,1v-1h1v-1v1l5,-5h1v-1h1v-1h1ZM269,432l-1,1v-2l-1,-1h2v1ZM358,491h-2l-1,-1h-1v-3h3v1l1,1v1ZM969,661v2l-1,4l-1,1v2l-1,1v2l-1,1v2l-1,2v2l-1,1v2l-1,1v1v-2l1,-1v-3l1,-1v-1l1,-2v-1l1,-2v-2l1,-2v-2l1,-1v-2l1,-1v-2ZM960,689v1v-1l1,-1v1ZM971,640v-1h1ZM964,682v1l-1,1v-1h1v-2ZM967,672v-1l1,-1v1h-1ZM965,678v-1h1v-2l1,-1v1l-1,1v1ZM475,717h1l1,-1l1,1h-1v1h2l1,-1h1l1,-1l1,1v2h-4v1l1,1v-1h1l1,1h-1v1l-1,-1h-4v-1h-1v1l-1,1h-1v-1l1,-1v-1h-1v-1l1,-1h-1v-3h1v-1v1h1h-1h1v2h-1v1ZM476,717h-1v-2h1v1ZM373,705h-1v-1v1ZM235,213v1ZM235,216h2l-1,1h-2v-1v1l1,-1h-1v-1h1ZM49,385v3l-1,1v1h-1v-1l1,-1v-2ZM240,111h-2v1h-4v1h-1l2,-2h2l1,-1l3,-1l1,-1h1l1,-1h1h-1l-4,3h-1v1ZM233,113h1v-1h4v-1h1l-1,1l-2,1l-1,1h-1l-1,1h-3v-1h1l1,-1ZM194,108v-1h1ZM196,106l-2,1h1ZM196,106h-1v1v-1ZM198,103h-1h1v-1ZM197,104h-1h1v-1ZM196,105h-1l1,-1ZM193,107l1,-1ZM195,105l1,-1v-1h1l-1,1ZM196,107h-1ZM198,106h-2v1h-1h1v-1h1ZM16,413l-1,1v-1ZM263,426v2h-1l-1,-1h1v-1ZM258,429l-1,1v-1h-1h1ZM255,426h-1l-1,-1v-3h1v2l1,1ZM820,181h-1ZM819,148h-1l-1,-1l-2,-1l-1,-1v-1l1,1h1v1h1l1,1ZM826,157h-1l-1,-1l1,1ZM826,159v-1h-1ZM827,158h-1ZM826,179v-1h-1v-1h1v1ZM780,186v1h1h-2v-1ZM826,166v-1ZM796,182h1h-1v-1h-1h1ZM794,188v-1ZM785,195h1v1l1,1h-1l-1,2v3h-2v1h-2l-1,1h-1l-2,-2h-1l-1,-1l-2,-1v-1l-1,-1v-4h2v-1h1h-1v-1h2v1l1,-1l2,1h3v1v-1l1,1v-1h1v1h1ZM797,186v-1l1,1ZM800,185h2v2l-1,-1h-1v-1h-1ZM802,187l-1,-1ZM800,187v-1h-1h1ZM742,241h-1v-1ZM744,245h-1v-1ZM705,235l1,2h-1v-1h-1v-1ZM705,243v-1h1v1ZM705,232h-1l1,-1v-1v1ZM707,229h-1v-1h1ZM707,230v1h-1v-1ZM705,224h1v1l-1,1v-2h-1l1,-1ZM704,227h-1v-1ZM672,195l-1,1v-1h1v-1h1v1ZM696,197h-1v-1h1ZM663,176h-1v-1h2ZM661,168v1h-1v-1ZM663,171h1l1,1h-2v-1h-1ZM708,236h-1v-1ZM703,230h1h-1v-1ZM703,225l-1,1v-1ZM704,220v1v-2ZM675,197h-1l1,-1ZM657,167v1l-1,-1v-1v1ZM831,313v1l1,1v2h-1l-1,-2v-3ZM830,312v1h-2v1l1,1v3h-1l-2,-2v-1l-1,-1v-1h-1h3l1,-1h1l1,-1ZM640,151l-1,1v-3l1,1ZM643,150v1l-1,-1v-1ZM637,152h-1l-1,-1l1,-1v-1l-1,-1v-1h1v1h1l1,1v2Z"/>
<path class="sl" d="M646,154v1ZM647,156h-1v-1h1ZM636,146h-1ZM325,135h-1v-2h1v1ZM315,73h1l1,-1v1h1l2,-1h1h-1v1h1v2h-4v-1h-1ZM870,700h1ZM871,700l1,-1h-4l-1,-1l1,-1h1v-1l2,-2l1,-2l1,-3v-1l1,-1h-1v1l-5,5h-1v-1l-1,1l-1,-1l2,-2h1v1l2,-2v-1l1,-1v-1l1,-1l2,-1l2,-2v-1l1,-1v-1h1l1,-3v-1l1,-1l-1,1v1l-2,1l-1,1l-1,2l-2,1h-3l-1,1l-3,2l-1,1h-1v1l-1,1v1v-2l-1,1l1,-2v-2h-1v-1h1v1l1,-1v-2h1v-5l1,-2v-2l-1,-1l1,-2v-2h1l1,-1l-1,-2v-3h-1l-1,-1v-3h-3v-4l-1,-2v-1h-3l-2,-2l-3,-1l-2,-1h-1l-2,1h-7l-1,-1h-1l-3,-2h-4v1h-1l-4,1l-1,-1h-1l-6,6h-1l-1,-1l-1,1v-1l-1,-1h-1l-3,-1v-1h-1l-2,-1l-3,-1l-2,-1v1l-1,-1l-2,-1l-1,1h-1l-1,2h-4l-2,1l-3,1h-4l-2,-2h-1l-2,-1l-1,-2l-1,-1v-2l-1,-1l-1,-2h-1v-3l2,-4v1h1l1,1l3,-3v-2l1,-3h1l1,-2l1,-4l1,-1l-1,-4l1,-3l-1,-2l1,-2v-4l1,-3l1,-2v-11l-1,-2v-1l1,-4v-6l-1,-6l-1,-1h1v1v-1h1v4l1,1v-1l1,-1v-1l-1,-1v-5h1v5l1,-1v4l2,-2v-9l-1,-2v-7l1,-1l1,-2v-1l3,-3v-2l1,-1v-3l1,-2l2,-3l1,-1v1l-1,2v3h1l1,-1l2,-3h1l1,-1h2l2,-1h1l2,-2h1l4,-2h2l1,1h1l1,1h3l2,-1h4l3,-1l2,2l1,-1l3,1h4l1,-1h1l2,-1l1,-2l1,-1v-1l2,-2h1l2,-2h1v-1h-1l1,-2v-4l2,-2h1l1,-1h1v-2h1v4l1,2v4h1v-3l1,-1v1l1,1v-4l-1,-1v-2l1,1v-2l1,-1v3h1v-1h1v1l1,1h1l1,1v-1h-1l-1,-1v-1h2v-2h1h-1l-1,1v-2l1,-1v-1h1l1,-1l1,1v1l1,-1h-1v-2h1v-1v1h1v1h1v-1l-1,-1v-2h1v-1l1,1v-1h1v-1h1l-1,1v1l1,-1v2h1v-1l1,-1v-3l1,1v1h1v1h1l1,-1v-1h1l1,1v1l2,4v3l1,2v2l-1,1v1l1,1v-2l1,-1h2l1,2l1,1v1v-1h1v1l1,1h-1l1,1v-3l1,1v-2h-1l1,-1l-1,-1v-1l2,-2v-1l1,-1v-2h2l1,-1v-3h1l1,-1h1v-1h1v1v-2l1,1v-2l1,1l1,-1v2l1,1h1v1h2v1l1,-1l1,1v-6l-1,-1h-1v-2l-1,-1h1v1h1v1v-1h1v2l1,2v-1h1v3l2,2v1l3,3v1l1,1h1v1l1,1v1h2l1,-1h1h-1v1l-1,1v1h1v2l1,1l1,-1v-1h-1l2,-2v4h1v1l-2,3h-1v1l-1,2v-1h-2v4l-1,1l-1,2l-2,2v1h-1v3l1,2l1,1v3l1,2h1v1h-1v2h1l1,1v2l1,1v4l1,1v2l1,1l1,2v5l1,1v2l1,1v2h2l2,-2l2,-4l1,-1l1,-2v-2l1,-3l2,-2v-3l1,-4l1,-2v-3l1,-2v-1l1,-1v-3h1v-1h1v-1h-1v-2l1,-2l1,-1v1v-1l2,-4v-3h1v-1h1v1l-1,1l1,1v4l-1,2v3h1l-1,1v10l-1,1v2l-1,2v7h2v5l1,1v3h-1v3l-1,2v4l-1,1v8l-1,3v2l-1,3l-1,1v4l-1,1v6l1,1v1h-1l1,1v9h1v1l-1,2v1l-1,1v7l-1,2v1l-1,1v2l-1,2v4l1,-2v-1v4l1,-1v1l-3,6l-1,3v9l-1,2v3l-1,1v2l-1,1v3l-1,2v1l-1,1v1l-5,9v2l-1,3l-2,2v2l-1,2l-3,3l-1,2l-1,1l-1,3l-2,2Z"/>
<path class="sp" d="M870,700v0M871,700h-1M925,700h-54"/>
<path class="sl" d="M943,667v-2l3,-3v-2h1l-1,1v2l-3,3ZM938,553l-1,1h-1v-1l1,-1h1l1,1ZM933,522v1h1v-1v2h-1v2h1l-1,1v-1h-1v-1h-1v-1h1v-2h1v-1h1ZM910,487h1v1h-1v-1h-2v-1h1v-2l1,-1v3ZM912,485h3v2h1v1h-1v1v-1l-1,1l-2,1l-1,-2v-4ZM787,564h-1v-5h1v4ZM865,697l1,1v2h-1v-1h-2v-1h-2v-3h1l2,1h2ZM954,612v-1ZM954,611v-1h1ZM948,644v2h-1l1,-2v-1ZM951,633v-1ZM950,630v-1ZM937,681l-1,2v-1l1,-1v-1ZM937,680l1,-1v-2l1,1l-1,1ZM958,514v1l-1,-1l1,-1ZM959,510v1l-1,-1ZM958,510v-1h1ZM954,588h-1v1v-2ZM937,502v1v-2h1v-1v1ZM936,503h-1ZM931,540v-1h-1l1,-1v1ZM930,538v-1h1ZM929,537v-1h1ZM936,558v-1h1v1ZM931,521v-1h1v1ZM921,490h-1v-2h1l-1,-1h1v2ZM880,496h-1v-1h1ZM875,501v1v-2ZM812,524v1h-1v-1h1v-1l1,1ZM762,418v1l-1,-1ZM693,418h1ZM694,419v-1ZM285,947h1h-1h1v1v-1ZM450,997h1ZM330,968h1l1,1l-1,-1v1h3l1,1l2,1h2l1,1v-1v1h2l1,1h1h1l1,1h1l2,1h2v1h4l1,1h1v-1h-3v-1l1,1h2l1,1h1l1,1h3v1h4l1,1h3v1h4l1,1h2l-1,-1h-1h1l1,1h1l-1,-1l1,1h1l-1,-1h-3v-1h-1h8l-1,-1l1,1h1v-1h3v1h2l-1,-1h1l1,1h1v-1h-1h3v1h1v-1h-1h5v1h1v-1h2l1,1h1h-1l1,-1v1h1v-1h-1h2v1h4v1h4l1,-1v1h5l2,1h4l4,1h4v1h3l1,1h1l2,1h4l1,-1h-1l-1,-1h-2l2,-1h2l1,1h2l2,1l3,1h3l-3,-1h-1v-1h-1h5l1,1h1l1,1h1v1v-1h2l-1,-1h-1v-1h1h-3l-4,-1v-1h6l1,1l-1,-1h-3v-1h1v-1h1h-2v-1h-4v-1h-1v-1l-2,-2h-1h3l1,1v-1h-1h4v-1h-3l-2,-1h3l1,1l1,-1h1h-1l1,-1h2l-1,-1h-13v-1h-3l-2,-1v-1h-1h4l-1,-1h-6l-2,-1h-4l-2,-1h-1v-1h-1l-1,-1h-3l-2,-2h-1l-1,-1h-1l-3,-3v-1h-2v4h-3l1,1v1h-1v1h-3l-4,-1h-2l-1,-1h-3l-1,-1h-2v-1h-1l-3,-1l-1,-1h-1l-2,-1l-1,-1h-1l-1,-1h-1l-4,-4v-1l-1,-1h-1v-2h-2l-1,-1h-2l-1,-1h-1l-3,-1v-1l1,-1h-1v-1h-1l-2,-1h-1v1h1l-1,1v-1h-4v-1l-2,-1l-1,-1h1l-1,-1h-2v-1l-2,-2v-1h-2l-2,-1l-1,-1h-1l-1,1l-1,-1h-2v-1h3l-1,-1h-2v-1h-2v-1h4l2,1v-1l-2,-1l-1,-1h-3v-3h1l2,2h2v-2h1v-1l1,-1h1v-1h-1v-1l1,1h2l-1,-1v-1l-1,-1v-2l-1,-1l1,-1v-3l1,-1v-2l1,-1h1h-1l-1,-2h1l2,1h4l1,-1l-2,-2v-1l-1,-1v1h-1v-1h4v-1h1l1,-1h1l-1,-1h1l2,1l1,-1h2l-1,-1v-1h1l2,2h4l1,-1l-2,-2l-1,-2h1l1,1h1l1,1h2v-2l-1,-1h2l1,1h1l1,1h1l1,-1h2v-1h1v-1l1,-1v-3l2,-2h1l2,-1v-2l-1,-1v-1h-1l-1,-1h-1l-2,-2v-2h3l1,1v1h1l1,-1l1,1l2,1l1,1h1l1,-1h4l1,-1l1,1l2,1h1v-2l-1,-1v-2l-1,-1v-3h1v-1l1,-1v-1h2v-2l1,-1h1l1,-1h1l1,-1v-1h1l1,-1h1v-1h-1v-1l1,-1l2,1v1l1,1h1l1,-1h1l1,1v1l1,-1l-1,-1v-3h-2l-1,-1l1,-1h1l2,1h3l-1,-2l-1,-1v-1l-1,-1h1l3,-3l2,-1h1l3,-1h6l1,1h1l2,1h2v1h1v1h-3l1,1v1l-1,1l1,1l2,-2h5l4,2h1l1,-1h2l2,1h5l1,-1h5l4,1h12v-1l1,1v1l1,1v1l1,1l-2,2l1,1v2h-2v2h1v1l-1,1h-1l-1,-1v1h-1l-1,1v1h1l1,1h2l1,-1l1,1l-1,1h1l-1,2v1h-1v1h-1v1l-1,1v2l-1,2v4l-1,1h2v1l2,-2v-2l2,-2h2v-1l1,-1h1v-1l1,-1h1v-3l1,-1v-2h2v-1l1,-1v-1l1,-1v-1h7l2,-2h1l2,-2h2l3,-3v-1l2,-2h1l6,-2h4l1,-1h3l2,-1l1,-1h9l1,-1h8l1,1l2,-1h8v1l2,-1v1h1l1,1h1v-1h4v1h6v1h1l3,-1v1h1v1h6l1,-1l2,-1h1v-1h1l2,1h3l1,1h1l2,2h1l3,3l2,1l1,1h1v1l2,2h1l3,-1h1l1,-2l2,-1h6l2,1l1,1v1l-1,2v1h1l1,1l-2,2h-5l-1,1v1h9v1h3v1h1v1l2,-1l1,1h2h-6v1h6l2,1l2,-1h2l2,1h3v1h2l1,-1h1l1,1v1h1l-2,2v2h1v1h1v1h1l3,-1l2,-2h4v1l1,1h2l1,1h1l1,1h-1v1l-1,1h4v1h1l-1,1l1,1v-1l1,1v2l1,1v2l1,1v1h1v2l-1,1h3l-2,2h1v1h-1l-2,1h-2l-1,1h3v2l-1,2h-1v1h-2v3h1v1h1v1h1v1l-2,1h-1v1l1,-1v2l-1,1h2l2,-1h1l-3,3h-1v1h-1v1l-1,1l1,1l-1,1h1l-1,1l-1,2l-1,1h-1l-1,1h-1l-1,1h-1l-1,1l-4,2h-1v1h-1h1l3,-1h1l1,-1v1l-2,2h1l-1,1v2h-1l-1,1v1h-1l-1,1h-1v1h-1l-2,2h-1v1l1,-1l-1,1l-2,1h-1v-1l-1,1h-3l-1,1v-1h1v-1h1v-1l-1,1h-1v1l-1,1h-4l1,-1v-1l1,-1h1h-1l-2,1l-1,1h-1v-1h-1h1l-1,-1v1h-2v-1h2l2,-1h-2l-2,1h-1l-4,2h-1v-2h1h-3l-3,1h-1v-1h-1v1h-2v1h-3l-1,1h-3l-1,1h-4v1h-2l-1,1h-2l-1,1h-4v1h-1h2l-2,1h-1v1h-2l1,-1v-1h-3l2,-1l1,-1h-1l-2,1h-1h1h-8v1h-2l-2,-1l-1,1v1h-4l-2,1h-2l-2,1h-1l-1,1h-2l-1,1l-1,-1h-2v1h1l-2,1h-1v1h-2l-1,1h-1v-1h-1v1h-2l1,1h-3v1h-2l-1,1h-1l-1,1h-1l-1,1h-2v1l-2,1h-2l-1,1h-1l-2,1h-1l-4,1h4l4,-1h7v-1h6l1,-1h3v1h-4l-1,1h-1v1h-4l-1,1h-1v1h2v1h-1l2,2h11l-3,2l-3,1v1h1v-1h5v1h-1v1h3l2,-1h5v-1h3l1,-1h4l-1,1h2l2,-1h2l1,-1h2l1,1h1h-1v1h-1v1h-5l-1,1h-1l-2,1h-3v1h2h-2v1h-2v1h1v-1v1h3l1,-1h3l1,-1h1v1h-1l-2,1h-2h3l-2,1h-1v1h-1l-1,1h-3v1h-1l-2,1h-3v1h1h-1l-1,1h-4l-2,1h-5l-1,1h-3l-2,1h-7l-9,2h-7l-3,1h-3v-1h-2l-2,1h-1h1h-4l1,-1h1h-25v1h-1h3l1,1h1h-2h3v1h1h-7l-1,-1h-12l-1,-1h-9v-1h-3v1h-1l-1,-1h-4l-1,-1h-4v-1h-4v-1h-10v-1h-1l-1,-1h-1h1h-1l-1,-1h-5v-1h-5l-1,-1h-4l-1,-1h-3l-2,-1h-14v1h-3l-1,-1h-3v-1h-2v1v-1h-7l-1,-1v1h1h-2l-1,-1h1h-4l-1,-1h-3l-1,-1h-3v-1h-4v-1h-4l-1,-1h-1l-2,-1h-2l-1,-1h-2l-1,-1h-3v-1h-3v-1h-2l-2,-1l-1,-1h-3l-1,-1l-2,-1h-1Z"/>
<path class="sl" d="M415,969l-1,-1h1l1,-1h6l1,1v-1h1l8,3h1l4,2l-1,1h-1v-1h-8l-1,-1h-3v1h-3v-1l-1,1h-2v-1h-4l-3,-1h-1l-1,-1v-1h4l2,1ZM439,975h6v1h-1h1v1l1,-1v2h-1h1l-4,-2h-6l1,-1h1ZM395,986h-1v-1h15l2,1h3l1,1h1h-3l-1,-1h-1h1l1,1l-2,-1h-2l1,1h2l2,1h5v1h1h-3l-1,-1v1h-1v-1h-3l-1,-1h-1l1,1h-1l-1,-1h-3l-1,-1h-1l1,1h-2l-1,-1h-1l1,1h1h-7l-2,-1h-1h1ZM477,997h1h-7v-1h4l1,1h13v1h-6v-1h-5ZM534,994h-1h1l3,-1h2v1h-1h-2ZM549,993h-1h1l1,-1v1h1h-1ZM570,973l1,-1h3l2,-1h2v-1h1l1,1h1v1h-4l-2,1h-4ZM610,950l-2,2h-2l1,-1h-1v-1h5ZM414,960h-1h2v1h-2ZM412,962l1,1h-2v-1ZM447,980h1v1h-7l-4,-1h-1h10ZM336,970h-1l-1,-1l1,1v-1v1h2l1,1v-1v1h1l-2,-1v1v-1v1h1h-1v-1h-2ZM325,966h-1h2l1,1h1h-2ZM324,967l-1,-1v1h3v1h1l1,1v-1h-2l-1,-1ZM352,976l1,1v-1h-1h1v1h3v1v-1h-3ZM350,975v1h1h-1l-1,-1h-1h1ZM381,983v1h1h-2l-1,-1h-1h1h-1h3v1ZM410,988h1l2,1h2l3,1h1h-2l-2,-1h-4v-1v1v-1ZM410,989h-1h3l1,1h-1l-1,-1ZM423,988h2l2,1h-2v-1h-1l1,1h-1l-2,-1ZM462,995h1h-2ZM602,952l-1,-1h1l1,1h1h-1ZM595,845h-2v-1h1l1,-1h1v2ZM378,886v1h-2l-1,-1v-1h1ZM336,920l1,1h-2v-1ZM338,917v1h-1v-1h-1v-1h2ZM444,978v1h-2v-1h1ZM442,979h1v1h1h-3v-1ZM312,962h1h-1l-2,-1ZM328,967h-1ZM337,970h1h-2l-1,-1h1v1ZM326,966l1,1h-1l-1,-1ZM333,969h1ZM379,979v1h-3v-1h2ZM335,971l-2,-1l2,1h-1h2v1h1h-1v-1ZM402,987h1l1,1h-2ZM470,996h-1ZM495,997h1ZM531,994h1h-1l1,1h-2v-1ZM547,992h1v-1h1v1h1h-2ZM549,969h1ZM559,971l3,-1h1l-2,1h-1ZM631,943h1ZM625,944h-1ZM640,946h1ZM691,926v-1h1v1ZM697,921l-1,1v-1h2ZM700,919h-1Z"/>
<path class="sp" d="M700,919v0"/>
<path class="sl" d="M580,845h1v1h-3l1,-1ZM591,848h-1ZM585,849v-1l1,1ZM603,846v-2h-1l1,-1l1,1l-1,1h1ZM567,841h-1ZM542,846h-1l-1,-1v-1l1,1h1ZM544,845h-1h1v-1l1,1ZM541,844h-1v-1ZM490,874v1ZM487,877h-1l1,-1ZM496,867h-1v-1h-1v-1h1v1h1ZM417,851h-1v-1h1ZM356,894v1h-1l-1,-1v-1h1v1ZM343,911h-1v-1h1ZM343,919l1,1h-2v-1ZM339,911l1,1h-1l-1,-1h-1v-1h1v1ZM340,917h1l2,2h-1v-1h-3v-1ZM344,909h-1l-1,-1h2ZM362,945h3l1,1h1h-4l-1,-1h-2l-1,-1h2ZM351,938h-1l-1,-1h1ZM347,933h-1v-1h1ZM414,961h-1ZM310,961h-1v-1v1ZM328,968l1,1h-1ZM378,979h1ZM370,978h1ZM382,979h-1ZM383,979h1ZM331,969v1l-1,-1ZM337,971v1ZM342,973h1h-2ZM347,975l-1,-1v1ZM355,977h1h-2ZM343,974h-1l-1,-1l1,1ZM367,980l1,1h-1v-1h-1ZM371,981l1,1h-1v-1h-1ZM376,983h1h-1v-1h-1h1ZM381,983h-1ZM404,987h-1ZM423,988h-2v-1h1ZM524,995h2h-3ZM559,990h1ZM555,990h1v1v-1ZM576,981h1ZM577,983h1l1,-1h1l-1,1h-1ZM573,981h1h-2ZM575,980h1ZM578,980h-1ZM574,980l1,-1v1ZM579,979h1v1h-1ZM577,982l1,-1h1l-1,1ZM575,981h1ZM576,979h2v-1v1ZM564,975h3v-1v1h-2ZM576,980v-1h3l-1,1h-1ZM554,971h1l-1,1Z"/>
<path class="sw" d="M185,113v-1ZM193,444h-1l1,1ZM194,445v-1h-1v1ZM366,133v-1h-1v1ZM484,53h1h-1h1h-1l-1,-1v1ZM481,54h-1v-1v1ZM481,49h-1Z"/>
<path class="sh" d="M501,748h-2v-1h2l1,1Z"/>
<path class="sw" d="M165,333v5h-1v1l-3,3v2h-1v2h-1v-1h-1l1,-1v-2h1v-1l1,-2l3,-3v-1l1,-1ZM83,296v1h-1v1h-1v1v-2h1v-1l1,-1ZM200,462v1l-2,-2h-1v-1v3h-1v-1h-1v-4h-1v-1v1l-1,-1v-1h-1l1,-1l-1,-1v-2l-1,-1v-2h-1v-1l-1,-1v-2l1,-1v-5l-1,-1v-5h-1h1v-2h-1v-1h-1v-1l-1,-1v-4l1,1l2,1l1,1v1l1,1v3l1,1v4h1v1h1v1l1,1v3l-1,1v3l1,2v4l1,1v3l1,1h1l1,2ZM193,445v-1h-1ZM193,445h1v-1h-1ZM187,346v2h-2v2l-1,-1v1h-1l-1,1v1l1,1v1h-1v1l-1,1v1h1l-1,1v1h-1v2h-1v1l-1,1h-1v1l1,-1h1v1h-2v1h2l1,-1h1v1h-1l-1,2l-1,1h-3v4l-1,1v-1l1,-1h-1v-1h-1v-1l-1,1h-1v-1h-1v1h-1l1,1h-1v2h-1v1l-1,-1h1h-1v-11l1,-2h-1v-4l1,-1v-1l1,-1h-1v-1h1v-1h1v-1h1v-1v1h1v-2h1v1l1,-1h1l1,-1v-2h1l1,-1l-1,1h1v1h1v-1h1v1l1,-1h1v2h1v1l1,1v-1l1,-1ZM169,370v-1l-1,1v-1l-1,1l1,1v-1ZM170,354l1,-1h-2v1h1l-1,1ZM177,366v-1h-1v-1l-1,1v-1l-1,1v1h2ZM178,346h-1v1h-1h1ZM668,31v1h2v1h1l1,1v1h1h-1v-1h-1h1v1h1h-7v1h-2l-1,-1h-3l-2,-1h-2v-1l2,1h3l1,1v-1h3v-1h2v-2h-1h1h-2v-1h1l1,1ZM668,34h-1ZM211,249h-2v-2l1,-1h2v-1h1v3h-1v1l-1,1ZM350,23h2v-1h3l1,-1h-1v1h-3v1h-3Z"/>
<path class="sr" d="M352,22h3l1,-1M350,23v0"/>
<path class="sw" d="M349,24l-1,1h-1h1h-1v-1v1v-1h3v-1h1h-1h1v1h-1ZM531,44h-3l-1,1h-5l-2,-1h-1l2,-1h8l1,1ZM201,465v1h-1v-2h1ZM564,29h-3l-1,-1h-4l-1,-1h2v-2h2l-1,-1h-1h1h-1h1l3,1h-3v1h-1l1,1h1h-1l1,1h4ZM201,321l-1,1h-1v-2l-1,-1v-1h-1v-1l-1,-1v-1h-1v-4l1,-2v-3h1v-1h1v11l1,2h1l1,1ZM796,131v1h-2v-1l1,1v-1h-1l-1,-1v1v-1v1v-1h1v1h1l1,1v-1h-1l-1,-1h1v-1h-1h1v1h1l1,1v1ZM643,31v1h1h-1v1h1h-2v-1l-1,-1v-1ZM603,27l-1,-1h4v1h2v1h-4v-1ZM154,429v2l-1,2v2l-1,1h-1v1h-1v-3l2,-6h2ZM804,104l1,1l-2,-2h-1v-1h-1l-1,-1h1l1,1v1h1ZM752,235l-1,-1l-2,-1l-1,-1v-1h-2v-1l-1,-1v-1h2l1,2l1,1v1h1l1,1v1h1ZM683,84v1l-1,-1h-2l-1,-1h-1l-2,-1h1v-1h-1h3l2,1l1,1ZM290,102v-1l1,-1l1,1v1h-1ZM292,107l-1,1h-2v-1l1,-1v-1h1v1ZM239,125l-2,2v1h-1l1,-1v-1h1v-1ZM311,37h1h-2v1Z"/>
<path class="sr" d="M310,38l1,-1"/>
<path class="sw" d="M41,347v4h-1v-2h1v-1h-1l1,-1v-2h1l-1,1ZM315,80h1l-1,1h1l-1,1h-1v1h-2v-2h1l-1,-1l1,-1h-1h1l2,-1v1l-1,1ZM399,52h-2l-1,1l-1,-1h-1l1,-1h1l1,-1h1v1h1ZM516,11h3v-1h3l1,1h-6ZM552,34h-2l-1,-1h-2v-1h3l1,1ZM729,61h-1l-1,-1h-1l1,-1h1v1h2v1l-1,-1l-1,1ZM162,447v2l-1,1h-1v-1h-1v-1l1,-2h1v-1h1v1ZM151,371v1l1,2h-1v2h-1v1l-1,1v-5l1,-2ZM152,362h-1l1,-1v-3h1l1,-1h1v2l-2,2v1ZM814,147h-3l-1,-1v-1l-1,-1h2v1l1,1h1l-1,1h1ZM288,54h-1v1h-3v-1h3l1,-1ZM625,103h-1v-2h1l1,1h1v-1l1,1v-1l1,1h-1l-1,1h-1ZM249,94h1l-1,1h-1v-1l1,-1h1ZM589,50h-4v-1h4ZM324,32h-1v1h-1h1v-1h2ZM799,150h-1v1h1h-1l-2,-2h-1v-1h-1v-3l1,1v2l1,1h2v1ZM795,144v1l-1,-1ZM793,144h1v1l-1,-1h-1v-1ZM783,139v-1v1h1v1h-1ZM616,96h-4l-1,-1h-1h5ZM610,33h-2v1l-1,-1h-1h1v-1h1v1h1v-1v1ZM880,821h1v-1v1ZM301,81h-1h1h-3v-1h2l1,-1h2v-1h1v1h-1v1h-1v1ZM610,69h-3l-1,-1h3v1ZM175,416h-4l-1,-1v-1l1,-1h1l1,1l2,1ZM732,190h-1l-1,-1v-1h-1h1v1h2ZM802,135h-2v-1h1h-1v-1h-1h1h-1h1v1h1ZM353,22h2l1,-1l-1,1h-1ZM194,372l1,-1v-1v3h-1ZM212,287v-1v2l-1,1v1l-2,2v-1l1,-1v-2l1,-1ZM216,89v1h-1h1l2,-2h1v-1h1l-1,1h-1l-1,1ZM88,395v-1h-1v-1h1v2h1ZM794,144v-1h-1h2v1ZM734,65v-1h-1h1l1,1ZM572,93h-2v-1h1v1h2v1ZM598,97h-1v1l-1,1v-2h1v-1h1ZM533,15h-2v-1h1ZM499,14h-1v-1h-1h2ZM534,10h-1ZM363,19h1h-2ZM859,835h-1l-1,1h1v-1l1,-1h1h-1ZM631,112h-2v-1h-1v-1h-1v1v-1h1l1,1h1v1v-1ZM493,8h-1ZM471,9l-1,1h-1v-1h1ZM803,141h-1h2v1h-1ZM778,139v1v-1h-1ZM798,139l-1,-1v1l-1,-1h-1v-1h-1h1v1h2ZM318,69h4v1h-3v-1ZM785,140h-1v-1h1ZM783,137h1l-1,1ZM785,121v1l-2,-2h1v1ZM784,139h-1v-1v1v-1h1ZM783,140v1l-1,-1v-1v1ZM782,141v-1h-1h1ZM624,79h-2v-1v1h1ZM312,112h-3l-1,1h-1v-1h-1h5ZM613,31h-3v-1h-1h2v1h1ZM592,98h-3l-1,-1h4ZM247,240v1ZM164,495v1h-1v1h-1l-1,1v1v-1h-1v1h-1v2l-1,1v1h-1v4h-1v3l-1,1v-2l1,-1v-5l1,-1v-1l1,-1h-1l1,-1h1v-2h1v-1h1v-1h2ZM178,335h-1v1h-1v1h1v1h-3v1v-1v1h-2v-1h1v-1h2v-1v1v-1h1v-1h2v-1ZM358,21h1ZM237,128v1h-1v-1ZM242,120h-1v-1h1ZM896,519v1h-1v1h-1v2l-1,1v-3l1,-1v-2h1v1ZM669,89h-2v-1h1ZM666,88v1h-1l-1,-1h1ZM498,46h-1h2ZM558,97h-1v-1h1ZM560,96v1h-1v-1ZM24,390l1,-1l-1,1v3h-1v-1h-1l1,-1v1v-1h1v-5h1v-2h-1v1v-1h1v-1l-1,1v1h-1v1v-1h1v-2h1v-2h-1v1v-1v1v-1v1v-3h-1v1v-1v1h-1v1v-1h1v-1l1,-1v-1v1v-1v3h1v-1v1v-1h1v-5h1h-1v6h-1v1l1,-1v2h-1v6l-1,1ZM24,390v-1Z"/>
<path class="sw" d="M407,40l2,-2h1v-1h3v-1h1l-1,1h-1l-1,1h-1v1l-2,2h-1v1h-1l1,-1l-1,-1ZM424,35h-1h1v-1h-3l-1,1l-1,-1h1l1,-1l1,1h1l1,-1h1h-1l1,1h1l1,-1h1l-1,1h-1l-1,1ZM417,36v-1h1ZM533,30h1v1h-14l-1,-1h-7l-1,1v-1h-1v1h-2v1h-4l1,1h-1h1h-2v1h1v1h-1v-1h-2v-1h-1l-1,-1h2v-1h2l2,-1h3v-1h1l1,1h16l2,1h1v-1h3ZM165,424h-2v1v-1h-1v-1l1,-1v-1l-1,-1h-1v-1h-1v-3l-1,-1v-1h-2v-1l-1,-1h-1v-2h-1l-1,-2v-1l-1,-1h1v-3l-1,-2v-2h-1v-4l1,-1v-3l-1,2v-8h1v4h1v1l1,1v1h1l-1,1v4l1,-1v1h1v5l1,1v2h-1v3h1l1,1v-1h1l2,2v1h1v5h1v1l2,2v2h1v1h1v3h-1ZM283,64h-1v-1h-1h1h-2l1,-1h1l-1,1l1,-1h1l-1,1v1ZM564,29h-3l-1,-1h-4l-1,-1h2v-2h2l-1,-1h-1h1h-1h1l3,1h-3v1h-1l1,1h1h-1l1,1h4ZM291,56l-1,1h-2l-1,1h-2v1h-2l-2,2h-1h1v-1h2v-1h1l1,-1h1l1,-1h2l1,-1h1v-1h1ZM376,23v-1h2l1,-1h1l1,-1h1l1,-1v1l1,-1h4v-1h6v-1h1h-1h1h-1l-1,1h-3l-5,1l-1,1h-3l-1,1h1h-2v1h-2v1l1,-1h3l1,-1v1h-3v1h-1h1l-1,1h-2v-1h1ZM716,302h-2l-2,-2h1l1,1v-1l-1,-1v-1l-1,1v-1l-1,-1h1l3,3v1h1ZM856,836h1l1,-1v-1h1h-1l-1,1v1ZM856,836v-1h1l1,-1l-1,1h1h-1ZM196,185h-1v1h-1v1h-1v1h-1v1h-1l-1,1v1h-1v1l-2,2v1h-1l2,-2v-1l4,-4v-1h1v-1h1v-1h3v-1h1v-1h1v-2h1v-1h1v-1h-1v-1h2v-2h1l-1,1v3h-1v1h-1l1,1h-2v1h-1v1h-1v1h-1v1h-1h1ZM24,390l1,-1l-1,1v3h-1v-1h-1l1,-1v1v-1h1v-5h1v-2h-1v1v-1h1v-1l-1,1v1h-1v1v-1h1v-2h1v-2h-1v1v-1v1v-1v1v-3h-1v1v-1v1h-1v1v-1h1v-1l1,-1v-1v1v-1v3h1v-1v1v-1h1v-5h1h-1v6h-1v1l1,-1v2h-1v6l-1,1ZM24,390v-1ZM648,28l1,1h1h-1v1v-1l-1,-1h-2l-1,-1l1,1l-1,-1h-1v-1h-1l-1,-1h-1l-1,-1h-1v-1h-2l-1,-1h-2l1,1h2v1h1h-1l-1,-1h-2v-1h-3v-1h-1h1v1h1v-1h-1h1v1h5v1h2l1,1h1l2,2h1l1,1h1h-1l1,1h1ZM292,104l-1,1h-1v-1h1ZM200,105v1h-1ZM361,20h-1h1h-1ZM464,49h1h-2Z"/>
<path class="sr" d="M639,20v0"/>
<path class="sw" d="M862,160v-1v1h1v1h-1ZM596,26h1ZM621,88v1h-1l-1,-1h-1h2v-1ZM616,88h2v1h-1v-1ZM520,89h-2v-1h1ZM631,97l-1,-1h1ZM602,94v-1h1v1ZM536,79l1,1h1l1,1h1h-2l-2,-1ZM477,19h1v1h-2v1h-3v-1h3ZM453,16h2v-1v1h-3ZM847,566v-4h2l-1,2v1h-1ZM878,572l-1,-1v-1l1,-1h2l2,-2l1,1v1h-1l-1,1h1v1h-1v1h-2ZM874,667h1v-1l1,-1h1v-4h-1l1,-1v-2l1,-1v-1v3h1v3h-1v3h-1l-1,2v1l-1,-1ZM883,668l-1,1v-1h1v-1l2,-2v-3h1v-2l1,-1l-1,-1l1,-1v-3l1,1v5l-1,2v1l-1,2v1ZM814,606v1l-1,-1h1v-2h1v-1h-1v2l-1,1h-1l1,-3l-1,1v-2h1v-1h1l1,1l1,-1h1v1l-2,1v3ZM893,668l-1,1v-3l3,-3h1l-1,1v1l-1,2ZM892,649h-2v-1l1,-1h1l1,1ZM894,648v-1h-1v-1h-1v-1h1l-1,-1v1h-1v-1l1,-1v-1l1,-2l1,-1v-3h2v3h1v1l-1,1v1l-1,1v3l-1,1Z"/>
<path class="sb" d="M203,98l2,-2h1l2,-2h1v-1h1l1,-1h1v-1l1,-1h1l1,-1M212,92l1,-1h1v-1h1l1,-1h1v-1h1h-1h1v-1h2v-1h1v-1M224,83v1h-1l-1,1h-1l-1,1h-1v1h-1v1h-2v1h-1h1h-1h1h-1M241,75h-2v1v-1l-1,1h-1l-1,1h-1l-3,3h-2v1h-1l-1,1h-1l-1,1h-1v1h-2v1h-1l1,-1h1v-1h1l1,-1h1l1,-1h1v-1h1l1,-1h1l1,-1v-1h2v-1M245,71v1h-1h1h-2l-1,1h-1v1h-2v1h-2v1h-1h1v-1h1h-1v1h-1l-1,1v-1h1h-1v1h-1l1,-1h1h-1l-1,1h-1v1h-1l1,-1l-1,1h1h-1M274,54l-2,1l-1,1h-2l-1,1M262,61h1v-1h1l1,-1l-1,1l1,-1h1l1,-1l2,-1h1v-1h1l1,-1h1l1,-1M241,75v-1v1v-1v1v-1l2,-1l1,-1h1v-1h2v-1h1l2,-2h2l2,-2h1l1,-1l2,-1h1v-1h1v-1h1l1,-1h1v-1h2l1,-1h1v-1h2l1,-1h1l1,-1h2l1,-1h2v-1h2l1,-1h2v-1h1l-1,1h1v-1h1l1,-1h3v-1h1v-1h2l1,-1h1l1,-1h1M257,67l1,-1h2l1,-1h3v-1h1v1v-1h1l-1,1h-1v1l-1,1h1h-1h1l-2,2h-2l-1,1l1,-1h-1v1h-1l-1,1h-1v1h-1v1h-2v1h-1l-1,1M222,87l1,-1h1l1,-1h1v-1h2v-1h1l2,-2h1v-1h1l1,-1h1l2,-2h1v-1h2l2,-2h1l1,-1h2l1,-1h1l1,-1l2,-1h1l1,-1h1l1,-1h1l1,-1h1l-1,1v1l-2,2v1h-2l-1,1v1h-1v1h1l1,-1h1l1,-1h1M222,90h1h-1v1h-1l2,-1h1l1,-1h2l2,-1h1l1,-1h1l2,-2l2,-1l1,-1h2l1,-1h2l1,-1v1l1,-1h1M196,103h1M198,102l3,-3v1h-1l1,-1h1l1,-1M198,102h1h-1l2,-2h1v-1h1l1,-1h1v-1h1l1,-1h1v-1h1l1,-1h1v-1h1l1,-1l-1,1M197,103v-1h2v-1h1v-1h1h-1v1v-1h2v-1h1v-1h1l1,-1h1v-1h1l1,-1h1v-1h1v-1h2l1,-1h1l1,-1h1v-1M211,95l2,-2h1v-1h1h-1h1v-1h1v-1h2v-1h1l1,-1h1v-1h1v1v-1v1h-1v1l1,-1v1h-1v1h-1h2l2,-2v1h-1l-2,2h-1v1h-1v1h-1v1h1h-1v1h-1l-1,1h-1v1h-1v1h-1v1h-1M208,101h1v-1h2v-1h1v1l-2,2M197,106v-1h1v-2h1v-1h1v-1h1l1,-1v-1h1v1v-1l1,-1h1l1,-1h1l1,-1h1v-1h2v-1v1l1,-1h1h-1v1h-1l-4,4h-1v1M206,101l1,-1h1l2,-2v1h1h-1h1l-1,1h-1v1h-1l-1,1h-1l-2,2h-1v1M200,108h1l1,-1h1v-1l2,-1h1v-1h2v-1h1l1,-1h1v-1h2l1,-1h1v-1h1l1,-1h1h-1h3l1,-1h1l1,-1h1v-1h1v-1h1M204,103v1h-1v1h-1l-2,2v1h-1v1l1,-1l-1,1v1h-1l-2,2h-1v1h-1v1h-1v1h-1v1h-1M198,106l3,-3h1v-1h1v-1h1l1,-1h1h-1v1h1v-1h1v1h-2v1l-1,1h-2v1h-1v1h-1l-1,1v1h-1M221,99l2,-2h1v-1l2,-1l1,-1h-1l1,-1h1v-1h2v-1h2v-1v1h1v-1h2M302,41h-1v1h-2l-1,1h-1l-1,1h-1l-1,1M289,47l1,-1h1l1,-1h1l-1,1v-1h1h-1v1h-2v1h-2v1h-2v1h-2v1h-1h1h-2v1h-2l-1,1h-1l-1,1h-1l-1,1h-1h1v-1v1h-1h1v-1h1l1,-1h1l-1,1h-1"/>
<path class="sb" d="M306,39h-1v1h-1M112,194v-2l3,-3v-1l1,-2l2,-2v-1h-1l2,-2v-1l1,-1v-1l2,-2l1,-2l1,-1h1v-1h1v-1l3,-3v-1h1v-1l5,-5v-1l2,-2h1v-1M97,230v-2l1,-1v-1h-1l-2,1l-1,1v-1l1,-2v-1l1,-2v-2l1,-1v-1l3,-3v-1l1,-1v-1l2,-2l2,-4l1,-3l2,-2v-1l1,-1v-1l1,-1v-1l1,-1v-1h1v-1l1,-1h1v-1l1,-1v-1l1,-1h1v-1l2,-2v-1l2,-2v-1h1l3,-3v-1l2,-2h1v-1l1,-1v-1l1,-1M153,206v-1l1,-2v-1l1,-2v-1l1,-2l1,-1v-2l1,-1v-1l1,-2l1,-1v-2l1,-1v-1l1,-2l1,-1v-2l2,-2v-2l1,-1l1,-2v-1l1,-1l1,-2v-1l1,-1l1,-2v-1l1,-1l1,-2v-1l1,-1v-1l2,-4h1l1,-1v-2l1,-1v-1h1l1,-1v-1h1M141,225l1,-1v-2l2,-1h1l1,-1l2,-1l3,-10l2,-3l8,-4h2l6,-3l5,-2l4,-2h2l5,-2l2,-1h1l1,-2h1v1h-1h1l2,-1h2l6,-3h2l5,-2h2l4,-2h2l2,-1h2l4,-2M208,233l1,-2v-4l1,-1v-1l1,-3h1l2,-4v-2l1,-1v-2h1l1,-1h1l1,-1v-1h1v-1h1v-1h2v-1h2v-1h1v-1l2,-2M247,235h1v-1l2,1v-1l2,-2h1M187,273v-2l1,-1v-1l1,-1v-3l1,-1v-1l1,-1h2v-1h1v-3l1,-1v-2l1,-1l1,-2l1,-1l2,-4h1v-1h1l1,-1h1v-3l2,-2v-1l1,-1v-3l1,-2l1,-1h3v-1h1v-1h1v1l1,1l1,-2l1,-1l1,-2v-1h1v1h1l1,1h1l4,-2v-1l1,1h2v-1h6l1,1h2l3,3l2,1l1,1v1l1,1h1l1,1v2l-3,3v1l-1,1h-1v6h1l1,-1h1l1,-1h1l1,-1h1v1h1v-1M286,259h-2l-3,1h-5l-2,-1h-6l-2,-1h-7l-4,-2l-1,-1v1l-1,-1h-1v-1l-1,-1v-1h-1l-1,-1v-2h-1v-1l1,-2l1,-1v-1l1,-1l1,-2l1,-1M238,299h1v-1l2,-1h1l3,-2h1v-1l3,-3l2,-1v-1h2l1,-1h3l2,-1h3l1,-2l3,-3l1,-2l5,-5l2,-3l2,-2l2,-3l2,-1l2,-3l6,-6l2,-4l2,-3l2,-2l1,-2v-7l1,-2v-4M192,301v1l1,-1h2v5h1v1h2l2,-1h4l2,1l1,1h1l2,1h3l1,-1h7l1,-1l1,-2v-1l2,-1l3,-3l2,-1h1l1,1v1h2l1,-1h2l1,-1l-2,4l-3,5l-2,2v29l1,2l3,3v1M21,355h1v-3h1v-3l1,-1v-1l1,-1v-2h1v-2h1v-1l1,-2v-3l1,-1v-2l1,-1v-2l2,-4v-1l1,-2v-2l1,-2l1,-1v-2l2,-4v-1l2,-4v-2l1,-1l2,-4v-1l2,-4v-1M56,270v1l-1,1v10l1,-1v1h1v-1v1l-1,1v2l-1,1v1h1v-1l1,-1l1,-2M37,327v-1h1l1,-1v-1l1,-2l1,-1v-1l4,-4v-1l1,-1v-1h1v-1l1,-2l1,-1v-2l1,-1v-1l1,-1l1,-2v-2l1,-1v-2l1,-3l1,-1l1,-3v-2l2,-4v-1l3,-3l1,-2l2,-2l2,-3v-1l2,-2l1,-2l1,-3l2,-2l1,-2l2,-2l2,-4l3,-4l3,-3l8,-11l3,-3l3,-4l2,-1h1l2,-1v1l1,1l2,-2l2,-3M80,294v-4l2,-2l3,-8l2,-3l2,-4l5,-7l1,-4l2,-4l3,-9l1,-2l1,-3h1l1,-3v-7l1,-2l2,-7l2,-2l2,-1l2,-2h4l1,1h3l2,1h3l2,1h4l2,1h3l2,1h2l-2,6v3l-3,10l-2,6v2h-2l-2,2h-1l-1,1v2l-1,1v1h-1v2h-1v1l-2,2v3l-2,2v1h-1v1l1,1l-1,1v1l-2,2v2h-1v1h1l1,-1h1v8h1v2l-1,1"/>
<path class="sb" d="M13,386v-1l1,-1l-1,1v1v-1l1,-2v-2l1,-1v-3h1v-1v1l-1,1v5h-1v5l-1,1v1M17,380v-1h1v-5h1v-4h1v-3l1,-1v-2h1v-3l1,-1v-1l1,-2v-3l1,-1v-1h1v-3l1,-1v-1h1v-3l1,-1l1,-2v-1h1v-3h1v-1l2,-4v-1l1,-1v-2h1v-1h1v2l-1,1v7l-1,1h1v1h1v-2h1v2h-1v4M9,407v-4h1h-1v6l-1,1v1M5,428l1,-1v-5l1,-1v-4l1,-2v-4l1,-1v1h-1l1,-2v3l-1,1v2h1v-3M7,434l1,-1v-8h1v-3l-1,1v-2h1h-1v-2l1,-1v-7h1v-6l1,-1v-4l1,-1v-4l1,-2v-3l1,-1v-2h1v-3l1,-1v-2l1,-1l-1,1v1h1v-2h1v1l-1,1h1v-1l1,-1v-2l2,-2v2M16,413v-3l1,-2h-1v1v-6l1,-1v-5h1v-5h1v-4h1v-7l1,-1v-5h1v-6l1,-2v-1l1,-1l1,-2l1,-1v-1l1,-1h1v-1v1v-2h1v-2M26,391v-1h-1v-4h1v-6l1,-3v-5h1v-7l1,-1v-8h2v-1l1,-1M28,389v-6l1,-3v-5l1,-2v-4l1,-2v-1h-1v-1l1,-1v-4l-1,-1l1,-2v-2l1,-1v-2h1v-2l2,-2v-1l1,-2v-1l1,-1v-3h1v-1l1,-1v-1l1,1v2M31,384v-5l1,-1v-7l1,-2v-4l1,-2l1,-1v-3l1,-1v-2l1,-1v-1l1,-1v-3l1,-1v-7l1,-1v-2l1,-1v-3l1,-1v-1l2,-4v-1l1,-3v-1l2,-2v-1h1v-1l1,-1v-1h2l1,-1l1,1v1h1v-1h1l1,-3l1,-1l1,1h2l2,-2l2,-3v-1l4,-4l2,-1v-1h3l1,-1v-1l2,-2l1,-2h1v-1l2,-2v3l1,1M49,378v-3l1,-1v-4l1,-1v-2l2,-4v-1h1v-2l1,-1v-1l1,-1v-1h1l1,-1v-1h1v1h1v2l1,-1v-1l1,-1v-3l1,-1v-2l1,-1v-2l1,-1v-2l1,-2v-1l1,-1v-2h1v-1l1,-1v-2l1,-1v-2l1,-1v-1h1v-3l1,-1v-2l1,-1v-2l2,-3l1,-2v-1l1,-1l1,-2h1v-2l1,-1v-4l-1,1v-2l1,-3v-1h1v2h1v7l-1,2v7l1,1l-1,1h-1v1h-1l-2,2h-1l-1,1v1l-1,1v1l1,1v1l3,3v3l1,1v2l-1,1M79,375v-6h-1l-2,-2v-1l-1,-1v-3l-1,-1v-5h-1v-1h1v-4h-1v-1l2,-2v-1l1,-2v-2h1v-2l1,-1v-2l1,-1v-1l1,-1h1l3,-3v-2h1v1l1,1v-1l1,-1v-1l3,-3h1l3,-3h1v-2h1l1,-2v-1l1,-1v-1h-1v-1h1v-1h1l2,-2h1l1,-1v-1h2l1,-2v-1h1v-1l2,-2v-1l2,-2v-1l1,-1v-1h1v-2h1v-2l1,-1h1v-1h1v-1l1,-1h1l1,-1l1,1l1,2l1,1v6l-1,1v1l-1,1h1v2l2,-1h1M141,322v-1h-1v-4h-4v-2h-1v-1l1,-1l-1,-1h-1v-1h-1l-1,-1h-1l-1,-1v-2l-2,-2h-3v-3l2,-2v-1h1v-3h1v-2l1,-1v-1l1,-1v-2l1,-1h1l3,-3l1,1l-1,1h1v1h1l2,2h1l2,-2l4,-1l1,-1v2l5,-2v-1l4,-4h1v-1l1,-1v-1l2,-1v-1l3,1l1,2l1,-1h1l5,-5v-1l1,-1v-1l4,-5v-3l1,-1v-1l-2,-1l5,-2v-1l3,-1l-1,2v2h-1v7h2l2,2v4h-1v2l2,-1l-1,2v5h-1v1h-1l-1,1h-2l-1,1v1l-1,2l-1,1l1,1h2l1,-1l2,1v1h1v1l2,2h1v1h1v2l1,1v3l2,2l-2,1l-3,5l-2,2l-2,4M52,394h1l2,-2h1l2,-2M51,404l1,-1v1v-1h1l1,-1h1l3,-3v-10l1,-1l2,-1l2,-2h1l2,-1v-1v1"/>
<path class="sb" d="M58,439v-2l1,-2l1,1h1v-4h-1v-3h-1v-4h1v-1h1l2,-1v-5h1v1l1,1v1h1l2,-2v-2l1,1v1h1v-5h1v-12h-1v-1h-2l1,-1v-5l2,-2v-4l-1,-1h-1l-3,3v1v-8l1,-1h1l2,-1l1,-1h1v-1h2l1,-1v1l1,-1h2l1,1v-5l1,-2v-1l1,-1v-6l1,-1v-1h1l3,-3h2v-1h2v-1l1,-1v1h1M66,439h1l1,1v-1h1v-3h1v-1h1v-1l1,-1v4h1l1,-1l1,-2v-2l1,-2l1,-1v-2l2,-2v-1l1,-3v-9l-1,-1l1,-1v-2l1,-2v-1l1,-3v-2h1l1,-1v-1l2,-3l1,-2l-1,-3l1,-1v-10l1,-3v-5l2,-6l1,-2v-2l1,-2v-8h1v-2l2,-3l1,-2l2,-2h1v1h2v1h1v1h1v-1h4l1,-1h1l3,-1l1,-3l1,-1v-1h1v-1h3v-1l4,-4h1l1,-1h1l2,-1l1,-1l1,-2l1,-1h2l2,-1h4v-1l1,-1h2v1h1l1,1v1h1l1,1h1l3,-3h3l1,-1v-1l1,-1h1v1l3,3h2v1h1v1h1M153,368v-8l1,-3v-2l1,-1v-5h1l1,-1v-2h1l1,-1l4,-7l1,-1v-2h-2v-1l-1,1v-4h1h-1v-2l1,-1v-3l2,-2h3l1,-2v1l1,1h1v-1h1v-1l2,-1h1l2,-2l1,1l1,-1h1l2,-2l2,-3v3h1l1,1v4h1v1h1v1l1,1v3l1,1v3h-1v2l-1,1v1l-2,2v2l-1,1v1h-1v1l-1,1v1l-1,1v10M150,380h-1v-2l1,-1v-1l1,-1l-1,-1v-2h1v-1l1,-1v-1l1,-1l2,-1v1l2,-2v-1h1v-2h1M153,393v-1l-1,-1v-2h-1v-7l-1,-1v-2h2v1h1l1,-1h1v-2l1,-2h1v-1h1l1,-1v1M164,421v-1l-2,-2v-1l-1,-1v-1l-1,-1v-1l-2,-2h-1l-2,-2v-2l-1,-1v-1l1,-1v-1l-1,-1v-2l-1,-1v-6h2v-1l1,-1l1,-2l1,-1v-2h1v-2l1,-1v-2h1v-3h-2v-4h1v-1h1v-7l-2,-2v-1h1v-1h2l1,-1h1l1,-1h3l1,-1h1l1,-1h2l2,-1h1l1,-1h2l1,-1h3l1,1h2l1,1h2l1,1h2l1,1h2l1,1h2l1,1h2l1,1h2l1,1h2v1h1v2h-1v1h1v1h1v1h1l2,1h1l2,2h1l1,1h1l1,1M62,446v-1l1,-1v-2h1v-1l1,-1v-2h1v2l-1,1v3h-1v1l1,2v3h-1v1M67,449h1v-1h2v-1h1l1,-1h1l3,-3l2,-1l1,-1l2,-1h2l1,1v4l2,2v2l2,2l1,2l1,1h1v-1h1l1,-1v-1h1l1,-1h2l1,-1v-4l1,-1v-4l2,-2h1l2,-2v3l2,-1h1l2,-1l1,-1h1v7l1,1l1,3v8l1,1h1l1,2v1l1,1v7h1v-1l1,-1h1l2,-1l1,-2h2l1,-1v-1M134,518l-1,-1l-2,-1l-1,-1l-2,-1v-1l-1,-1h-1l-2,-2v-3l-1,-2v-2l-2,-6v-2l-1,-3v-3l-1,-2v-3l-1,-1l2,-1l1,-1h2l1,-1l2,-1l1,-1h2v-1l-1,-1v-2l1,-1l-1,-1v-5l-1,-1v-5l-1,-1h1v1h2v2h1l3,-3h1v-1v2l1,1v1h7l1,-1h1v-1h1v-3h1v1l2,1v1l1,1h5v1h1v2h2l1,1v2h2l2,-2h1v1h1v-1l-1,-1v-6l-1,-2v-1v1h-2v1h1v1h-4l-1,-1l-2,-1v-1h-1v-14l-1,-2v-2l-1,-1l-1,-2l1,-1v-1h1v-2l1,-1v-3l2,-1l1,-1l4,-2l1,-1h2l1,-1l1,1v1h1v1l2,-1h1l1,1v1h1v-1h1v1h4l1,1h2M186,464v-1l-1,1v1v-1h-1v-1h-1v-1h-1l1,-1v-3h1v-1h-1v-4l3,-3v-1h-1l-1,-1v-4l-1,-1v-1l1,-2l-1,-1v-2h1v-1l1,-2v-1h-1v-2h-1l-1,-1v-1l-1,-1v-1h-1v1v-1h-1v-1h3v1h1v-1h3v-2l1,1l2,1l1,1v1l1,1v3l1,1v4h1v1h1v1h1v1"/>
<path class="sb" d="M79,546h1v-1l1,-1v1v-1h1l1,-1v-2h1v-1h1v-1l1,1h1l1,1h1l1,-1h1v-1l4,-2l1,-1l6,-3l1,-1l2,-1l2,-2h2l1,1h1v1h1l1,-1h1l2,-1h1l2,-2l1,1h1l2,-2h2l1,-2l1,-1l4,-2l5,-5l2,-1v-1h1l2,-1h2l2,1M135,585l-2,-4v-3l-2,-4l-2,-5v-2l-1,-3l-1,-2h1l2,-1l1,-1h1v-1l-1,-1l-6,-20v-4l-1,-3l-1,-2h1l2,-1l4,-4l2,-1l1,-2h2l2,2v1l1,-1v-2l1,-1v-1h1v-1h1l1,-2l2,-2h1M177,541h-2v-2h-7l-1,-1v-1l-2,-1v-4h-1v-1h-1l-1,1l-1,-1v-2h-1l-1,-1h-2l-1,-1h-2l-1,-1v-1l-2,-2v-1l-4,-4v-1h-1l-1,-1v-2h1l1,-1h1v1h1l1,-1h4l3,-6v-3l1,-2v-2l3,-3l1,-2l1,-1v-1l-1,-1v-2h1v-1l1,-1l1,-2l2,-1h1l2,-1h1M132,625v-6h1v1h2v2h1v1h3l1,-1l2,-1h2l1,-1l-1,-1l1,-1v-2l1,-1v-1l-2,-4l-2,-7l-2,-4l-1,-3l-2,-4l-2,-7l2,1l1,1h1l2,4l1,1v1h1v5l1,1v1h1v-1h1l2,-1h1v-2l1,-1v-2l1,-2v-1h1v-1l-1,-2v-5l1,-1h3l1,1h6l1,-1v-1h1l1,-1v-9l2,-2v-2l1,-1v-8h1v-1l1,-1v-1l1,-1v-3l1,-2l4,-4v-2l1,-1h1l1,-1h5l2,-1h1l1,-1h1v1M205,574h-1v1l1,2v1l-1,1h-3l-1,-1l-2,-1v-1h-1v-1l-1,-1v-1l1,-2v-3l1,-1v-1l2,1h2M209,573h-2l-1,1h-1l-1,-3l-1,-1v-2l-2,-2v-2l-1,-2v-2l-1,-2v-2l-1,-2v-1h-1l-1,-2v-1l-1,-1h-1v-1l-1,-1v-1l-1,-3l-1,-1l-1,-2v-1h-1l1,-1v-2l1,-2l1,-1v-2l2,-4l-1,-1v-5l1,-1v-3l1,-2v-1l-2,-2v-1l-1,-1v-3h-1v-2l1,-1v-3l-1,-1v-1l-1,-3v-4l-1,-2l-1,-1l1,-1v-1h-7l-2,-1h-2l-1,-1l-2,1h-2l-1,1h-1v-4l-1,-1v-1l-1,-1v-1l1,-1v-1l1,-1l2,-1l3,-3h1v-1l2,-1l1,-1h1l1,-2l2,-1l2,-2l4,4v-1l2,-1h1v-1h1l2,2v4l1,1l-1,2v2l-1,1l1,1h1v2l1,1h1l3,3h1v1h-1l1,1h1v-3l-1,-1v-4l2,-1v-1h1v-3l-1,-3v-4l-1,-2l-7,-7v-1h-3v-3l-1,-1v-3l-1,-1l-1,-2l1,-2v-3l1,-1h2l1,-1h3v-1h1v-1h3v1h2l2,-2h1v-1l1,1h2l3,-3v-1l1,-1h4v-1l2,-1l1,-1h1l3,-3h1l3,-3l1,-2l1,-1M195,608l1,-1v-1h1l-1,-1v-2h1v-2l-1,-1v-1h-1v-1h-2l-2,-2h-2l-1,2v1l-2,2v5l-1,1v2h1l2,2v1h1v1h1l1,1h2v-4l1,-1v-1h1M308,84v2h1h-1v1h1v1h2v1h1l2,-1v1h-1l-1,1v2h-2l-2,2v1h-2v2l-1,1l1,1v1v-1h1v1h-1h1l1,1l-1,1h3l1,1h3v2h1l1,1l-2,2l-1,2h2v2l-1,1h2l1,1h-1l1,1M302,122l6,-6h1l1,-1h3M261,117h3l2,-1h4l1,1h3l1,1h3l2,2h1l4,2l1,1h2l2,1h2l3,-1h5l2,-1h4l2,-1v3l2,-1h4M355,149h-3l-1,1h-16l-5,-5v-1h-1l1,-1M326,176l2,-1h1l1,-1h2l2,-2h2l1,-1h2l1,-1h1l2,-1l1,-1h2l1,-1h1l2,-1h1v-2h1v-1l1,-1v-1l1,-1v-1l1,-1v-1l1,-1v-1l1,-1v-1h1l-1,-1v-1h-1v-1l-1,-1v-2l1,-1l1,-2l1,-1v-1h1v-1h-1h1l1,-1h3l-1,-1h-1v-2h1v-2h1v-1l1,1h-1l1,1v-1h1l1,-1"/>
<path class="sb" d="M367,130h-1v-2h-1M255,207l1,-2h1v-1h1v-3l1,-1v-1l1,-1h5l1,-1h3l1,-1h8l2,-1h3l1,-1h1v1h1v1h1l1,-1h1l2,-2v-1l6,-6h1l2,-2l4,-2h1l2,-1h2l7,-3h2l3,-1h2l2,-1h2v2l1,1v2h1v2l1,1v1l1,1v1l1,1v1l1,1M262,111v2l-1,1v2h1l-2,2h-1l-1,1l-3,1l-1,1l-3,1l-1,1h-2l-2,1l2,2v1h1l1,1h-1l-2,1l-2,2l-2,1l-1,1h-2v1l-2,2l-2,1l-2,2h-5l-1,1M240,122v1h-1v1l-1,1v1h-1v1M243,120h-2v1l-1,1h-2l-2,2v1l-1,1h1l-1,1h-1v1h-1v1h1l1,-1h1l1,-1l-1,1v1l-1,1v1h-1v1l-1,1h-1v2l-1,1h-1v1l-1,1M294,88h-1l-2,1l-2,2h-1l-2,1h-1v1l-1,1v2h-1l-1,1v1l-4,4v1h-2l-2,1l-2,2l-14,7l-1,1l-3,2l-1,1l-6,3h-4v-1l1,-1v-1l1,-1M249,110l1,-1h1v1h1v1h-1l-1,1h-1v1h-1l-3,3M315,73h-2l-1,1v1h-2v1l-1,1h1l-1,1v2h-1v1h-1h1l1,1h-1v1h1l-1,1h-1v1h-2v-1h-1v1h-5l-1,1h-2l-2,1v1v-1h-1l-1,1h-2l-1,1h-3l-1,1h-1l-2,1l-3,1l-2,1l-1,1h-3l-1,1h-3l-2,1h-1l-2,1h-1l-1,1h-3l-1,1v2h-2v1h-1v1h-2M315,73l-1,-1h-3v1h-1v-2h1v-1h1v-1h-1M321,66h-1l-1,1h-4v1h-3l-1,1v-1l-1,1v-1h-3v1h-3l-1,1h-1M770,224v-3h1v-1h-1v-1h-1l-1,-1v-1h-1v-1l1,-1l-1,-1h-1l-1,-2h-1v-1l-1,-1v1l-2,-2v-2h-1v-1l-2,-2l-2,-1v-1h-1l-1,-1v-1l-2,-2v-1h-1v-1h-1l-1,-1v-1h-1v-1l-1,-1l-2,-1h-1v-1l-1,-1l-3,-2h-1v-1h1l-1,-1v-1h1l1,1h2v1l1,-1v-1l1,-1l-1,-1h-1v-1h-1l-1,-1h-1l1,-1v-1h-1l-2,-2h-2l-1,1h-1l-1,-1l-2,-1l-2,-3h-1v-3h-2v-1h-1v-1h-1l-1,-2h-1l-1,-1M754,222v1h1v1h2l2,1v1l1,1h1v-1l-1,-2h1l1,-1v1l1,-1h1v1h1v1h1v1h1v-1h2v-1l1,1v-1h1l-1,1v4l1,1l1,2v1h1l-1,2v2h1v4h-3l-1,1h-3v2l-1,-1h-1l-1,-1v1h-1v2l3,3v2l-1,-1h-1l-1,-1v-1h-3v1l-1,-1h-1v1h-1v1h-3M716,167l-1,1h-1v1h-1v1h-1v1h1h-3v3M709,242v-1h1v-2h-1v-1h1l1,-1l2,-1l1,-2v-1l1,-1v-1l-1,-2v-1l-1,-1v-2h-1l-1,-1v-2h-1v-1l1,-1l-1,-1v-2l-1,-1v-1l-1,-1l-2,-1l-2,-2v-1l-2,-2v-1l-1,-1v-1h3v-5l1,-1h1v-1h-2l-1,-1v-1h-1v-2h-1l-1,-2l-5,-5v-2l-1,-1h-1l-1,-1v-1h2v-6h1v-1h2l1,1h4v-2h4l-1,-1h4l1,1h2v1h1v4h1l1,1h3l1,1v2l1,1v3h-1v1h1v4l-1,1h1v1h1l1,-1h2l1,-1v-1h3l2,2h1v1h3v-1l1,-1h1h-1l1,-1l1,1h1l1,1h1l8,8v5l5,5h1v1l2,2v2h-1v1h1v5h-2v1h-1v-1l-1,-1h-3l-2,-1h-3l-1,-1h-4l-2,2v1h-1v1h-2v2l1,1v1h1v3l1,1h1v2l1,1l1,3M763,179l-1,-1h-2l-1,-1h-1l-1,-1h-1v-1h-1v-1h-2v-2h-1v-2h1v-1l-1,-1h-3l-2,-2v1h-1v-1h-1l-3,-3h-3v2h-4v-1l-1,1v1l-3,-2v1h-1l-1,-2v1h-1v1h-1l-2,-2h-1v-1h-1v1h-1v1h-1v-1h-3v1h-1h1v2h1v1h1v3l1,1h-1l-1,-1h-2l-1,-1v-2h-1v-1h-2l-1,1h-3l-1,-1v-1h-1l-1,-1v-1h-1l-1,-1h-2l-1,-1h-1l1,-1v-3l1,-1h-1l-1,-1h-2l-1,-1v-1h-1v-2h-1v-1h-1v-1h1v-1h-9l1,-1v-1h-1v-1h-1v-2h1v-3l1,1v-1h1v-1h2v-1h1l-1,-1v-1h1l-1,-1h1l-1,-1v-3l-1,-1v-1l-2,-2h-1v1v-1h-1l-1,-2l-2,-2h-1l-2,-2v1h-1v1"/>
<path class="sb" d="M797,109v-1h1h-1h3v-1h-1h1l-1,-1h1v1h1v1h2v1h2v1h1h-1v-1h-1l-1,-1v-1v1h2v1h1v-1h-1h1v1v-1l-1,-1h-1h2v1h1v1h1l1,1M816,125v-2l1,1h1l1,1h1l-1,-1M523,71h1l1,1h5M721,56v1h1v1h1v1h1v1h-1h1l1,1h1v1h3l1,1h1l1,1h3v1h2l1,1h1v1h2v1h2v1h1l1,1h1v1h1l1,1h-1l-1,-1h-1l-1,-1h-1l-1,-1h-3v-1h-1l1,1h-1l-1,-1h-1v1h1h-1v1h-1v-1h-3l-1,-1h-1h1v1h-3l-1,-1h-1l-2,-1h-1l-1,-1h-1l-1,-1h-1v2h1l2,2h1l1,1h1h-1l-1,1l-1,-1h-1v1h-1v1h-4v-1h-3l-1,-1h-3l-1,-1h-4l-1,-1h-7l-1,1l-1,-1h-2v-1h-1l-2,-1h-3l-2,-1l-1,-1h-1l-2,-1h-2l-4,-2h-1v-1h-3l-1,-1h-2l-3,-1h-3l-3,-1h-1l-6,-2h-4l-2,-1h-3v-1h-1l-1,-1h-2v-1l-2,-1l-1,-1h-1l-1,-1l-2,-1h-2l-1,-1h-1l-1,-1h-2l-1,-1h-2l-1,-1h-5l-2,-1h-4v-1h-4l-1,-1h-1v-1l1,-1l-1,-1v-1l-1,-1h-2l-2,-2h-1v-1h-4l-1,-1h-3l-1,-1h-2v-1h-4l1,-1h-2v-1M811,111h-1l-2,-2h1v1v-1h-1v-1h-1v-1h-1v-1h-1l-1,-1l-3,-2l-2,-2h1h-1v-1l2,2h1v1h1l1,1v-1h-1l-1,-1h1h-1l-1,-1h-1h1h-1v-1h-1v-1h-1v-1h-1l-1,-1h-1h1l-1,-1h-1v-1h-1l-1,-1M790,93v-1h-1l-1,-1v1v-1h-1l-1,-1h-1v-1h-1l-1,-1h-1l-2,-2h-1v-1h-1v-1h-1l-1,-1h-1l-1,-1l-2,-1l-1,-1h-1v-1h-2v-1h-1v-1h-2v-1h-1l-1,-1h-1l-2,-2h-1l-1,-1h-1v-1h-2l-2,-2h-1v-1h-1l-1,-1h-1v-1h-2l-1,-1h-1v-1h-1l-1,-1h-1v-1h-2v-1h-2v-1h-2l-2,-2h-2v-1h-1l-1,-1h-2v-1h-1l-1,-1h-2v-1h-2v-1h-2l1,1h2v1h1l1,1h1h-1v1h1l2,2h1v1h1h-3l-1,-1h-1l-1,-1h-1l-1,-1h-2v-1h-2v-1h-3l-1,-1h-1l-1,-1h-2v-1h-6l-1,-1h-4l-1,-1h-3l-1,-1h-1l-1,-1h-2l-1,-1h-3l-1,-1h-1v-1h-2v-1h-2l-1,-1h-2l-1,-1h-1l-1,-1h-3v-1h-4l-1,-1h-5l-1,-1h-2l-1,-1h-3v-1h-2v-1h-1l-1,-1h-1v-1h-4v-1h-2l-1,-1h-4v-1h-3l-2,-1h-3v1v-1h-1v1h1v1h1l1,1h1l1,1h-6l-1,-1h-4v-1v1l-1,-1h-4l-1,-1h-3v-1h-2l-1,-1h-5v-1h-4v-1v1h-2l-1,-1v1h-9v1h-5l-1,-1h-2v1h-4M358,43h-3v-1h3l-1,-1v-1h-5l-1,1v-1h1v-1h-2l1,-1l2,-1h1v-1l1,-1h1l1,-1h1l1,-1h1l1,-1l1,1h4v-2h2l1,-1h2v-1h3l1,-1h2v-1h2l1,-1h5l1,-1h10v1h1h-1h2v-1h7l1,-1h3l1,-1h2l1,1v-1h12l1,-1h7l1,-1h1v-1h-7v-1h5v-1h1h-1v-1h5l1,-1h1h-2v-1h-1v1h-1v-1h3l2,-1h7l1,-1h9v-1h7l1,-1h8v-1h13l1,1l-1,1h6v-1h1v1h5v1h6l1,-1h9v-1h2v1h-1l1,1h5v1h3l1,1l2,1l1,1h1l2,1h1l1,1h1l1,1l1,-1h4l1,1h6l1,1l1,-1h5l1,1h2l1,1h1l1,1h3v1h2l1,1h7l1,1h2l1,1h-3v1h-5v2h1v2h-5l-1,-1h-6l-2,-1h-1v1l-2,2v2h-1h2l1,1h-5l-1,-1h-1l-1,1h-8v1h2v1h1v1l2,2v1h1h-2v1h1h-2v3"/>
<path class="sb" d="M556,99h1v1h1v-1l1,-1h4l2,2l2,1h2l1,1l2,1h1l2,2h5v1h1v1h1l1,1l2,1h4v1h-1v1h5v1h1l1,1v1h1v-1h1l1,1h1v-1h2v1h2l1,1h7M618,119v-1h1v-1h1l1,-1v-1h7v1h2l2,1h3l1,1h1v1h1M525,74h1l1,-1h2l1,-1h2v2l2,2l2,1h2l1,1l-1,1v3h1l1,1h1v1h1v3h-3l-1,-1h-2v1l2,2h1l-1,1l1,1v1h3l1,1v1h4v1h3v2h3l1,1h1l1,1h-1l-1,1h-1l-2,2v2h-1v2h1l1,1h3v1h2l2,1l1,1h1l1,1h1l1,1l1,-1v1h2l2,1h1l1,1h2l1,1h8l2,1h2v2h2l1,1h1v1h2l1,-1h1v1l1,1h4l1,1h5v1h6l1,1v-1h1v-2h-1l-1,-1v-3h1v-1l-1,-1h5l1,1v1l-1,1h1v1h1l-1,1h1v1l1,1h4v1h8v1h11l-1,-1v-2h-3l-1,-1v-1h2l1,1l1,-1h4v-1h1l1,-1h1v-1h5v-1h1l1,-1h3v1h3l1,1h1l1,-1h2l1,-1v1l1,1h1h-1v2l2,-1l2,2h-1l-1,1v1h4l1,1h1l2,1v1l-1,1h-1v2l2,1v1l-1,-1h-1v-1h-6v1h-1l-2,1h-2l-1,1v1l1,1v2l-1,1h-1v1h-1v1h2v1l-1,1v1l-1,1v1l-1,1v1h-1l-1,-1h-3l-1,-1v2h1v4h-1v1l-1,1l1,1v2l-1,1h-1v-1h-1v1h-1M507,65h4l2,1h2l1,1h1v3h4l1,1h1v1h1v1h1v1l-1,1h-3l-2,1h-9l-1,-1h-5l-1,1h-1v1h1v2h1l-1,1l1,1h1l-1,1h-1h1v1h2v2l1,-1l1,1v1h5v2h-2l-2,1h-2v1l1,1v1h-1l1,1h-1l-1,1h-1l-1,2h-1v2h-2l-1,1h-1l-1,1v1l-3,3h-2l-2,1l-1,1v1h-1l-3,3h-4l-2,1h-2v-1l-1,-1h-2v1h-1l-3,3h-1v1h-1v1l-1,1h1v1h4l1,1v1h-1v2l1,1h3v2h1l1,1v1l1,1v3h-2v1h-1v-1h-4l-1,1h-10v2h-5M624,150v-1l-1,-2v-1h-1v-3h-2v-2h-1v-2l1,-1v-1l-1,-1h-2l-1,-1h-1l-1,-1v-1l1,-1l1,1v-1l1,-1h3l-1,-1v-1h-3l-2,-2h-1v-2h2v-2h-1h2l1,1v1h2v-1h1v1l2,2h2v-1h1l2,4v1l1,1h2l2,1h6l1,1h5l1,1h1l1,1v1v-1h-2l1,1h-1v2h-1v1h-4l-1,1v2l1,1l1,2v-1l1,1v1h2v-2l1,-1v-1h2l1,1v3l1,1v1h1v2h1v3l1,2v2h-1l-1,-1h-1v2h1v2h1M483,45v-1h1v-1h4l1,-1l2,1h7l1,1h1l-1,-1h1v-1h1v-1h4l2,1h20l2,1h7v1h3l1,1h2l1,1h-3l-1,1h-5l-1,1h-1l-2,1h-8l-1,1h-1v1h-1v1l-1,-1h-2v1h-2v-1l-1,-1l-2,1h-2v1h-5l-1,1h-1v1h1l-1,1h-1M483,52h-2v1h-3l-1,-1h-2l-2,1v1l-1,-1v1h-1l1,1h13l1,-1v1h1h-1h2v1l2,-1v1h2v-1h9v2h1h-1l1,1v1h1l1,-1h3l1,1h1v3h1l-1,1h2v1h-2M387,55v-1l1,-1v-2l2,-2v-2l1,-1v-1h1v-1l1,-1v-1l1,-1h3l2,-1h3l1,-1h3l1,-1h5l1,1h5l1,1h4v1h1l1,1h1l1,1h3l2,-1h11l1,-1h3v1h3v1h3l-1,1v2h-1v1l2,-1h2v3h9v2h3v-1h1l1,-1h1l1,-1h2v-1h3l1,-1h2v-1h4l1,-1h1v1h-2l-1,1h-2l-2,1h2v1l1,-1l1,1h2v1h1v-1l1,1v-1h1l1,-1h-1h2v1h2v1h4l1,1v-1l1,1h-2l-1,1h-3l-1,1h-11v-1h1l1,-1h1h-1v-1h-2v1h-4v1h-1l-1,-1h-1v1h-1l1,1h-1h1h-2l-2,1h-1h2v1h-2v1h-7l-2,2h2v1h4l-1,1v1h1v1h1h-1v1h-1l-1,1h-1v1l-1,1"/>
<path class="sb" d="M366,56l2,-1h1l1,-1h2l1,-1h3l1,-1h1l1,1h2v1h1v1h6l2,-1h4v-2l1,-1h1l1,-1h3l1,-1h2v-1h-1h3v-1l1,1h3l1,1l2,-1h1v2h1h-1v2h8v-1h3v1h1v2h1v1l1,1h1l1,1h2l2,1h1l1,1h4l1,1h3l2,1h5v1h3l-1,1v2M330,62h3l1,1h3l1,-1h1l2,-1h1v-1h1M414,75h5l1,1h3l2,-1h1v-1h1v-1h1l2,-1h3v-1h3l2,-2v-1l2,-2h5v-1h1v-1h1l2,1h11v1h4v-1h3v-1h2l1,1h1l1,-1h-1l1,-1h5v-2h2v-1h1l1,-1h2l1,1h1v1h2v1h-1v2l-1,1h1v1h1v1l1,-1h2l2,-1h2l1,-1h1l2,-1h3v1h4v-1h3v1h1h-3v1h1h-1l-1,1h-15v1h-2v1h-2l-2,1h-1l1,1h1l1,1v3h-1v1h-1l-1,1h-1v1h1h-1v2h-8l1,1v1h1v1l-1,1h-4v1l-3,3h1v2l-1,1h-2l-1,1l-1,-1h-4l-1,1h-3v1h1l-1,1h-7v1h-1v1h-1l-1,1v3h-1v1h1h-1v1h-2l-2,1h-4l-1,1h-6l-1,1h-4l-9,1l-3,-1h-5l-3,-1"/>
<circle class="w4" cx="500" cy="747" r="21"/>
<circle class="w4" cx="500" cy="747" r="19"/>
<circle class="c4" cx="500" cy="747" r="20"/>
<path class="sg" d="M 334.5375 970.9739 A 249.7500 99.3317, 0, 1 1, 664.4625 970.9739"/>
<path class="sg" d="M 80.6871 771.7058 A 432.5797 172.0475, 0, 1 1, 918.3129 771.7058"/>
<path class="sg" d="M 0.0000 499.5000 A 499.5000 198.6634, 0, 1 1, 999.0000 499.5000"/>
<path class="sg" d="M 80.6871 227.2942 A 432.5797 172.0475, 0, 0 1, 918.3129 227.2942"/>
<path class="sg" d="M 334.5375 28.0261 A 249.7500 99.3317, 0, 0 1, 664.4625 28.0261"/>
<path class="sg" d="M 98.6760 201.4390 A 439.4758 499.5000, -233.36474847, 0 0, 900.3240 797.5610"/>
<path class="sg" d="M 322.9900 32.2265 A 315.6084 499.5000, -200.69377940, 0 0, 676.0100 966.7735"/>
<path class="sg" d="M 451.9339 2.2700 A 107.1740 499.5000, -185.46440817, 0 0, 547.0661 996.7300"/>
<path class="sg" d="M 557.8536 3.4203 A 129.9776 499.5000, -173.29116078, 0 1, 441.1464 995.5797"/>
<path class="sg" d="M 692.4374 38.7664 A 332.3018 499.5000, -157.27795074, 0 1, 306.5626 960.2336"/>
<path class="sg" d="M 926.9195 241.0183 A 445.5860 499.5000, -121.16342370, 0 1, 72.0805 757.9817"/>
<text x="0" y="0" class="fs" transform="translate(22,483) rotate(81)">0E</text>
<text x="0" y="0" class="ft" transform="translate(22,483) rotate(81)">0E</text>
<text x="0" y="0" class="fs" transform="translate(157,396) rotate(84)">30E</text>
<text x="0" y="0" class="ft" transform="translate(157,396) rotate(84)">30E</text>
<text x="0" y="0" class="fs" transform="translate(383,347) rotate(88)">60E</text>
<text x="0" y="0" class="ft" transform="translate(383,347) rotate(88)">60E</text>
<text x="0" y="0" class="fs" transform="translate(641,350) rotate(92)">90E</text>
<text x="0" y="0" class="ft" transform="translate(641,350) rotate(92)">90E</text>
<text x="0" y="0" class="fs" transform="translate(860,403) rotate(95)">120E</text>
<text x="0" y="0" class="ft" transform="translate(860,403) rotate(95)">120E</text>
<text x="0" y="0" class="fs" transform="translate(571,798) rotate(8)">60S</text>
<text x="0" y="0" class="ft" transform="translate(571,798) rotate(8)">60S</text>
<text x="0" y="0" class="fs" transform="translate(623,559) rotate(7)">30S</text>
<text x="0" y="0" class="ft" transform="translate(623,559) rotate(7)">30S</text>
<text x="0" y="0" class="fs" transform="translate(641,305) rotate(8)">0N</text>
<text x="0" y="0" class="ft" transform="translate(641,305) rotate(8)">0N</text>
<text x="0" y="0" class="fs" transform="translate(622,103) rotate(8)">30N</text>
<text x="0" y="0" class="ft" transform="translate(622,103) rotate(8)">30N</text>
<path class="tb" d="M127,998h-2l-1,-1h-2l-1,-1h-2l-1,-1h-2v-1h-3v-1h-2l-1,-1h-2v-1h-2l-1,-1h-2v-1h-2v-1h-2l-1,-1h-2v-1h-2v-1h-2v-1h-2v-1h-2v-1h-2v-1h-2v-1h-2v-1h-2v-1h-1l-1,-1h-1v-1h-2v-1h-2v-1h-1v-1h-2v-1h-1l-1,-1h-1v-1h-2v-1h-1v-1h-2v-1h-1v-1h-1l-1,-1h-1v-1h-1v-1h-1l-1,-1h-1v-1h-1v-1h-1v-1h-2v-1h-1v-1h-1v-1h-1v-1h-1l-2,-2h-1v-1h-1v-1h-1v-1h-1v-1h-1v-1h-1v-1h-1v-1h-1v-1h-1v-1h-1v-1h-1v-1h-1v-1h-1v-2h-1v-1h-1v-1h-1v-1h-1v-1l-1,-1v-1h-1v-1h-1v-1l-1,-1v-1h-1v-1l-1,-1v-1h-1v-1l-1,-1v-1h-1v-2h-1v-2h-1v-1l-1,-1v-1l-1,-1v-1l-1,-1v-2h-1v-2h-1v-3h-1v-2h-1v-4h-1v-3h-1v-5h-1v-6l-1,-1v-17h1v-7h1v-4l1,-1v-3h1v-3h1v-3h1v-2l1,-1v-2h1v-2h1v-2h1v-2h1v-2h1v-2h1v-2h1v-1h1v-2h1v-1h1v-2h1v-1h1v-1l1,-1v-1h1v-1h1v-1l1,-1v-1h1v-1h1v-1h1v-1h1v-1h1v-1h1v-2h1v-1h1v-1h1v-1h1v-1h1l3,-3h1v-1h1v-1h1v-1h1v-1h1v-1h1v-1h1l1,-1h1v-1h1v-1h1v-1h1l1,-1h1v-1h1v-1h2v-1h1v-1h1v-1h2v-1h1v-1h2v-1h1v-1h2v-1h1l1,-1h1v-1h2v-1h1l1,-1h1v-1h2v-1h2v-1h2v-1h1l1,-1h1l1,-1h1l1,-1h1l1,-1h1l1,-1h2v-1h2v-1h2v-1h2l1,-1h2v-1h2v-1h2l1,-1h2v-1h3v-1h2l1,-1h2v-1h3v-1h3v-1h159v1h3v1h3v1h2l1,1h2v1h3v1h2l1,1h2v1h2v1h2l1,1h2v1h2v1h2v1h2l1,1h1l1,1h1l1,1h1l1,1h1l1,1h1v1h2v1h2v1h2v1h1l1,1h1v1h2v1h1l1,1h1v1h2v1h1v1h2v1h1v1h2v1h1v1h1v1h2v1h1v1h1l1,1h1v1h1v1h1v1h1l1,1h1v1h1v1h1v1h1v1h1v1h1v1h1l3,3h1v1h1v1h1v1h1v1h1v2h1v1h1v1h1v1h1v1h1v1h1v1l1,1v1h1v1h1v1l1,1v1h1v1h1v2h1v1h1v2h1v1h1v2h1v2h1v2h1v2h1v2h1v2h1v2l1,1v2h1v3h1v3h1v3l1,1v4h1v7h1v17l-1,1v6h-1v5h-1v3h-1v4h-1v2h-1v3h-1v2h-1v2l-1,1v1l-1,1v1l-1,1v1h-1v2h-1v2h-1v1l-1,1v1h-1v1l-1,1v1h-1v1l-1,1v1h-1v1h-1v1l-1,1v1h-1v1h-1v1h-1v1h-1v2h-1v1h-1v1h-1v1h-1v1h-1v1h-1v1h-1v1h-1v1h-1v1h-1v1h-1v1h-1v1h-1l-2,2h-1v1h-1v1h-1v1h-1v1h-2v1h-1v1h-1v1h-1l-1,1h-1v1h-1v1h-1l-1,1h-1v1h-1v1h-2v1h-1v1h-2v1h-1l-1,1h-1v1h-2v1h-1v1h-2v1h-2v1h-1l-1,1h-1v1h-2v1h-2v1h-2v1h-2v1h-2v1h-2v1h-2v1h-2v1h-2l-1,1h-2v1h-2v1h-2l-1,1h-2v1h-2l-1,1h-2v1h-3v1h-2l-1,1h-2l-1,1h-2l-1,1h-2Z"/>
<path class="tl" d="M169,986h1v1h-3l-1,-1h2v-1ZM114,989h-3l-1,-1h2l1,1ZM176,983h1l1,1v1h1l-1,1h-2l-1,1h-1l-1,-1l1,-1v-2h1v-1ZM124,980h2v1h-1ZM122,980l1,1h-1l-1,-1ZM136,977h1h-2ZM156,974v1l1,1h-5v-1l1,-1v-1l-1,-1l1,-1v1h1l1,1ZM158,964v1h-2v2h1l-2,2v1h1l1,1h1l4,4v1l1,1v1h-1v2h-1l-1,1h-1v1h-2l1,1h1v1h-2l1,1h1v1h3l1,1h3l1,1h3l1,1h1l1,1v-1h1v-1h2l2,-1l1,1h1v-1h4v-1h3l1,-1h-1v-1h-4l-1,-1l1,-1h1l2,-2h4l1,-1h1l2,-2h-1v-1h1v-1h2v-1l1,-1h1v1h1v-1h8v-1h3v-1h1l1,1h2v-1h1v1l1,-1h4v1h6v-1h3v-1h2v1h3l1,-1h3v-1h2l1,-1h2l1,-1h4v1h1v1h1l1,1h1l1,-1l1,1h2v1l-2,2h-1v1h1h-1v1h-1v1h2l2,-2h1v-1h3l1,-1h1v-1h2l1,-1h5v-1h1v1h5v1h1l1,-1l1,1l1,-1h1l2,-1v1l1,1h3l1,-1h2v1h1v1h4l1,-1v1h9l1,-1l-1,1v1h-1h3l1,1h2l-1,1v1h1v1h2v1h1v2h2l1,1v1h-1l-1,1h-2l-1,1h-3l-1,1h-2l-1,1h-2l-2,2v1h-5l-1,1h-2v1h-1v3h2l-11,4h-155l-11,-4h-1h2l1,-1l1,1h14l-1,-1h-7v-1h-2v-1h-3l-1,-1h4v-1h-2l-1,-1h-7l-1,-1l-2,-1l1,1l1,-1l2,1v-1h1v-1l-1,-1h-1h2v-1h2v-1h4l1,-1h5l1,-1l1,1v-1h1l1,1h1v-1l1,1h6v-1h-2l-1,-1h-1l-1,-1h4l1,1h1l1,-1h3l-1,-1h1l1,1l1,-1l1,1h3v-1l1,1h4v-1h2l1,-1v-1h-1v-1h-1v-1h-1v-1h-1v-2l-1,-1v-1h1v-2h1v-1h1v-1h1l1,-1l1,1ZM144,951l2,1h1v1h-1v-1v1h-4l-2,-2l-2,-1l2,1h2v-2h1v1ZM151,947h1v1h-2v1l-1,-1l1,-1ZM269,946h-1v-2h1l1,1ZM345,939v1h1l1,-1v1l-3,3v-1l-1,1h-1l1,-1v-1l1,-1v-1ZM368,943v1l1,-1v1h-1l-3,3h-1l-1,1h-1l-2,2h-2v1h-1v-1h-1v-1l4,-2h1l1,-1h2l2,-2h1l2,-2ZM376,936l-1,2l1,-1l-1,1l1,1h1l-2,2h-1l-2,2l-2,1h-1l2,-1v-2l1,-1l2,-1v-1l1,-1v-3l1,-1v1l1,1ZM382,913l-1,1v-2l-1,-1v-1h1v1l1,1ZM397,906v1l-1,1h-1v-1l1,-1v1ZM398,906h-1v-1h1l1,-1v1ZM10,905v-1ZM386,904v-1ZM386,901v2h-1v-1ZM259,895v2l1,1h-1v1v-1v2h-1v3l-3,6v2h-1l-1,1l-1,-1h-1v-5h1v-2l1,-1h-1v-3h1v-1h1l2,-2h1v-1l1,-1v-1l1,-1v1ZM361,898v1h1v1h1l-1,1v2h1l-1,2v1l2,2v4h1l-1,2l1,1v3l-1,1v2l-3,3v1l-1,1l-1,2h-1l-1,2h-1l-4,4v1h-2l-1,1h-1l-1,1v-1h-1l1,-1h-1l-1,1h-1v-1h-1v-3h1l-1,-1v-1l1,-1l-1,1h-1l3,-3l-2,1h-1l-1,2v-4l-2,-2h-2l-1,1h-4l-2,2h-4l-1,1v-1l-1,1h-2v-1h-1l1,-1v-1h1v-3l1,-1v-7l1,1v-3l1,-1v-1l1,-1l-1,1l2,-2h1l1,-1h2l1,-1h2v-1h1l1,-1v-2l1,-1v2l1,-1v-1h1v-1l2,-2h2v1h2v-2h1l1,-1v-1h2v-1h-1h1l1,1h3l1,1h-1v1h-1v1l-1,1v1l2,2v1h1l1,1h1v-1l1,-1v-1l1,-1v-3l1,-1v-2h1v-1v3l1,1Z"/>
<path class="tl" d="M383,894h-1v-1v1ZM337,892l-2,-1h2ZM381,893h-1v-1h1ZM382,892v-1l-1,-1h1ZM341,892h-1l3,-3h2l-1,1h-1l-1,1ZM335,889h1v1h-3l1,-1ZM340,889v1h-3v-1h2ZM381,890v1l-2,-2h1v1ZM378,889v-1h-1v-1l1,1ZM325,887h2v-1l2,1v1h2l1,1l-1,1l-1,-1h-4l-1,-1h-1l-2,-1h-1l1,-2h1l1,1ZM353,886v1v-2ZM377,888h-1v-2l-1,-1h1v2h1ZM373,885l-1,1h-1l-1,1l-1,-1h-1l1,-1l1,1v-1h2v-2h1v1ZM345,882h-1v-1h1ZM349,881v2l-1,-1h-2v-1h2ZM374,884l-1,-1v-1l-1,-1h-1h2v2h1ZM353,878v3l2,1v-2l2,-1h1l1,1h1l1,1l4,2v1h1v1l2,1v1h-1v1l1,1v2h1v1h1h-1l1,1l-1,1v-1h-2l-1,-1v-3h-3l-1,1v1h-2l-2,-2v1h-2l1,-2h1l-1,-2v-1l-2,-1h-1l-1,-2l-1,1l-1,-1h1l-1,-1l1,-1h-1v-1h-1l-1,-1h2v-1ZM343,875l-1,1h-4v1l1,2v-1h2l-1,1h-1l1,2v1l1,2v1h-1v-2l-1,1v-1l-1,-1l1,-1h-1v4h-1v-3h-1v-1l1,-1v-4h1v-1h4l1,-1ZM347,875v1h-1v1l1,1h-1v-4h1ZM321,885h-1l-2,-2v-1l-2,-2l-1,-2v-2l-1,-1v-1l-4,-4v-1h2l3,3l1,2h1l2,2h1l-1,2h1v1l1,1h1v3ZM335,874l1,1h-1v3l-1,1v1l-1,3v-1l-1,1l-1,-1h-1v-1l-1,1l-1,-1h-1l-2,-4v-2l1,-1h2v-2h2v-1l1,-1v-1h1l1,-1v-2h1v1l2,2v1h-1l-1,2l1,1ZM344,864v3l-1,-1v2l-2,-2h1l-1,-1v1l-1,-1l-1,1v-1l1,-1h2v-1h1v-1l1,1ZM294,868h-1v-1l-1,-2l1,-2l1,1v1l1,1v1ZM137,863h-1l1,-1h1ZM341,861v1l-1,1l-1,-1l1,-1v-1v1l1,-1ZM335,863l-1,1v-1l1,-1v-1l1,-1v1l-1,1ZM338,859h2v1l-1,1v-1h-1ZM342,858l1,2h-1v1v-1h-1v-1h1h-1v-1ZM338,857l-1,1l-1,-1h1ZM336,849h1v6h1l2,1v2l-1,-1v-1v1l-1,-1h-2v-1h1h-1l-1,-1v-5ZM133,851v1h-1v-1ZM121,852h-1v-1h2v1ZM126,849h3v1h1v1h-2l-1,1v-1h-1v-2h-1ZM324,849l-1,1h-1v-2l1,-1h1v1ZM37,846v-2h1v2ZM38,844h-1v-1h1ZM119,845h2l1,1v1h1v1h2l-1,1h-3v-1h-1v-2h-2l-1,-1h-1h1h-2l-1,1h-1l2,-2h3ZM122,843h-1v-1l1,-1v1ZM334,843v1l-2,-2v-2l1,-1l1,1ZM122,839l-1,1v-1ZM123,839v1v-1h-1ZM340,825h1v1h-1v1h-1v-2ZM240,828l-2,2v-1h-1h2ZM229,828v1h-1ZM220,825v2h-1l-1,-1h-1v-1h2ZM214,821v3h-1v-3ZM344,820v1l1,1v1l-1,1h-1l-1,2l-1,-1v-1l-2,1l-1,1h-1l2,1v3l-1,-1v-1h-1l-1,-1l1,-1v-3h3v-3l1,1v-2h1l-2,-4v-1l3,3v1ZM214,820v1l-1,-1v-1l1,-1ZM340,810l1,-1l1,2h-1v2l-2,-1l1,2h-1l-1,-2l-1,-1h1l-1,-2l-1,-1l3,1ZM144,812l1,1h1h-2ZM147,809h-1l-1,-1h1ZM92,806h-1l-1,-1v-2h-1v-1h1l1,1v1l1,1ZM153,807l-1,1h1v1h2l-1,1h1v1l-1,2l-1,-1l1,-1l-2,1v-1h-3l1,-1h-1l4,-4h1Z"/>
<path class="tl" d="M90,797h1l-2,2v1v-3ZM332,800l3,3l-2,-1l1,2l2,2v1l-2,-2l-1,-2l-6,-6v-1h-1h1l3,3ZM198,806l-1,1h-2l1,-2v-1l2,-2h1v3ZM216,801l-1,2l-1,-1v-1h1ZM79,791h-1v-1h2ZM202,797l-1,2h2v1l-1,1h1l2,4h1v1l-1,1h1l-1,1h-3l-1,1h-2l2,-2h-1v-1h1l-1,-1v-1h2l-1,-1h-1v-2l-1,-1l1,-2v-1l1,1ZM75,786h-1v-1h1ZM141,790l-1,1v-1ZM139,790h-2l1,-1h1ZM78,780v1h1h-2v-1ZM139,786h1v1h1l-1,1h1l-1,1l-1,-1h-1l-2,1l1,-1h-1h1l1,-1l1,-2ZM193,787v1l1,1l-1,1h-3l-1,1l-1,-1h-2l1,-1h-1h1v-1h-2l1,-1h1l1,1l2,-1h2ZM147,784h-1l1,-1h2l-1,1ZM81,776v1l1,-1h2l-1,2h-3l-1,1h-1l-1,-1h1v-1h-1h1h-2l-1,1l8,-5v1l-1,2ZM135,780l-1,1v-1h-1l1,-1h1ZM322,771h-1ZM88,771h-1h2ZM139,780l-1,2l2,-1v1h-1v1l1,-1l2,-1l1,-1h2v2h-1v1l-1,1l-2,1h-1v-1l-1,1l-2,1v1h-3l-2,2h-1l-1,1l-2,1l-1,1l-1,2h1l-1,1v1h1l3,3l2,1h1l-2,2v2l1,1h1l2,-4h-1l4,-2v-1l1,-1v-1l-1,-1l2,-1l2,-4l1,1h1l1,-1v1l1,1h1v2l-1,1l1,1h2l1,-2h1v3l1,1l-1,1l1,1v1h1l1,1v1l1,1l-2,2h-2l-2,2h-1l-2,-1h-2l-2,1l-1,1l-2,1l-1,1l2,-1l3,-1h2l-1,1l-1,2v1l1,1l2,-1l1,-1v1h1l-4,2h-1l-2,1v-1l2,-1h-3v1h-1l-1,1h-1l-2,2l1,1v-1v1h-3l-1,1l2,-1v1h-2l-2,2v1l-1,1l-1,-1l1,-1l-1,1v4l-1,1h-1l-1,1h-1l-3,3h-1v8l-1,1h-1v-3l-1,-1l1,-1l-1,-2l-1,1l-1,-1h-4v1h-1l-1,-1l-1,1l-1,-1l-2,2h-2v1h-1v3l-1,1v1l-1,2v4l1,1v1h1v1l1,-1h3v-1l1,-1v-1l1,-1h3v1l-1,1v2l-1,1v-1v2l-1,1v1h5v1h1v1l-1,1v3l-1,1h1v2h1v1h2l1,-1h1v1h1l1,1l1,-1v-2l1,-1h2l2,-2v2h-1h1v1l-1,1v1h1v-3h1v-1h1v1h1v1h3l1,1l1,-1h1l1,1h1v1l1,1h1v1h1v1l1,1l2,1v-1h1l1,1h1l1,1v1h1v1l1,2v1l-1,1l1,1h2v1v-1l4,2v1h1l3,1h1l2,1l2,2h2v5l-1,1l-1,2l-2,2v9l-1,2v2h-1v1h-2l-1,1h-1l-3,3v5l-1,2l-2,2v2l-2,2v-1l-1,1l-1,-1h-1v-1v1l1,1v1l1,1v2l-2,1h-3l1,1v2l-1,1l-1,-1h-1l1,2h2l-2,2l1,1v1h-1l-1,1v1l2,1h1v1l-1,1v2h-1v1l2,2h-1l-1,1v1h-1l-2,-1l-3,-3l-1,-3v-1l1,-1h-2l1,-2l-1,-2h1v-2l-1,-1v2l-1,-2v-4l-1,-1l-1,-2h1v-6l-1,-2v-8l-1,-2v-6l-1,-2l-1,-1l-2,-1l-3,-2l-1,-1v-1l-1,-2l-1,-3l-2,-3l-2,-2v-1l-1,-2l2,-2v-1h-1v-3l1,-1v-1h1v-2h1l1,-1v-5l-1,-1v-2h-1v1h-1v1h-1l-1,-1h-2v-2h-1v-1v1h-1v-3l-2,-2h1h-2v-1h-2l-1,-1l-1,-2h-1l-1,-1v1h-2l-1,-1h-2l-2,-2h-1l-1,-1v-1h-1v-3h1l-1,-1v-3l-1,-1v-1l-1,-1v-3h-1v-5l-1,-1l-1,1v4h1l-1,1h1v5h1v2h-1v-1l-1,-1v-3l-1,-1v1v-1h-1v-1h1v-9h-1v-1h-1v-9l2,-2v-1l1,-2l2,-2l1,-2l1,-1v-1h1v1l2,-2h-1v-2l-1,-1v-1l1,-1l-1,-1l1,-1v-1l1,-1l-1,-1l1,-1v-1l1,-1l-1,-1h-1v-2h-1v-1h-1l-1,-1h-1l-1,1h-4l1,-1l2,-1h-1l-1,1l-2,1h-1l-1,1l-2,1h-2l-2,1h-1l-1,1h-3l-1,1h-2l1,-1h2l2,-1h2l2,-1h1l2,-1l1,-1h-3l1,-1l-1,1h-1l2,-2h-1v-1l2,-2l2,-1h3l1,-1h1l1,-1h-3v-2h4l1,1l1,-1v-3h4l1,-1h2l2,-1l1,1l1,-1h1l-1,1h1l1,1h2l1,1h2v1l1,1l1,-1h6l1,-1v2l2,-1l-1,1h2l1,1h2v1l-2,1h4v1l2,-2h2v1h1l1,1h2v-1h1l1,1l-1,1l1,-1h1l1,-1v-2l1,-1l2,-1l1,1l-2,2Z"/>
<path class="tl" d="M128,774l-1,1h4l-1,1h1l2,-2v1l-1,2v1l1,1h-2v1h-8v-1h-1v-1h4l-1,-1h-3l2,-1h-1l1,-1h1ZM135,774l-2,1v-1h1ZM152,776v1l-1,-1l-1,1v-2h2ZM146,776v1l1,-1l2,-1v2h3l1,1l-1,1l2,-1v1l1,1v2h-1l2,2v1h1v1l-2,1h-1l-1,-2l-1,1v1l1,1v2l-1,1l-2,-2v1l1,1h-2l-2,-2v-1l-1,-1v1h-3v-1l1,-1h3l1,-1l2,-1v-1l-1,-1h-1l1,-1l-1,-1h-5l-1,-1h-1l1,-1h-1l1,-1l2,-1l1,-1h2ZM138,774h2l-1,1h-1l1,1l-2,1h-2v-2l1,1v-1ZM298,772h-2v-1ZM141,776l-2,1v-1l2,-2h2l1,1l-2,1ZM122,776h-2l-1,-1h1l2,-1l2,-2h2v1h2v1h-1l-3,1h-2ZM299,769v1h-3v-1h1ZM143,773v1l-1,-1h-1l1,-1h1l1,1ZM295,769l1,1h-2l-1,1l-2,-1l-1,-1h2ZM143,771h-1v1l-1,1h-2l1,-1h-1l1,-1h2ZM136,771h1v1h-4l-2,1h-1l1,-1h-1l-1,-1l2,-1h1l2,1l1,1v-2h2ZM246,780h-3l-2,-1v-1l1,-2h-1l1,-1l-1,-1h1l4,-2h2l-1,1l-2,1l-1,1v2l-1,1l1,1ZM145,770l1,1h1l-1,1h1l1,1h4v1h-7l-1,-1l1,-1v-1h-2l1,-1ZM134,769l-2,1h-4l2,-1h3ZM271,770l1,1v-1h2l2,1h1v1l-1,1h1l2,1v-1l1,1l1,-1h2l1,1h3l-2,-1h5l1,1v1h2l2,1l-1,-1h1l1,-1l2,1v-1h1l-2,-1h8l3,1l1,-1h2l2,2h2v-1h3l3,1v-1h-2v-1h7l8,5h-1l1,1l2,1h2v1h-1v1h-1l1,1v2l-2,-1v2l-1,-1v1h-1l2,2v1h1l3,2h-1l1,1h1v1l1,2h-1l1,2l1,1l-4,-2l-4,-3l-1,-2l-1,-1v-3l-1,-2v-1l-2,-2l-1,1l2,2l-3,-1l-1,1l1,2l1,1h-1l-1,1l-1,-1h-1v1h-4v7h1l2,1h1l-1,-1h1l3,1l1,2l1,1l1,2l2,2v9h-1l-1,-1v2h-1v1l1,1v1h-1v1l1,1h1l2,2v1l1,1v1l-1,1h-1l-1,-2l-1,-1h1l-2,-1v-1v1v-1h-1v-1l-1,-1h-2v1h-1l-1,-1l1,-1l-1,-1l-1,1v2h-1v1l2,2h1v-1h2l1,1l-2,1v2l2,2l1,2l2,1v2h1v6l-2,4l-1,1h-1v1l-1,-1v1l-2,1h-1v2l-1,-1v-1h-2l-1,2v2l1,1l1,2l2,2l1,3v4l-2,1v1l-2,1v-2l-1,-1h-1v-1l-2,-2h-1v-1h-1v6h1v3l1,1h1v1h1v1l1,1v3h1v2h-1l-2,-2v-1l-1,-1v-1l-1,-1v-2l-1,-1v-1h-1v-6l-1,-1v-1l-1,-2v-2l-1,-1l-2,2h-1v-3l-1,-2v-1h-1l-2,-2v-1l-1,-1h-1v2l-1,-1v1h-2v2l-2,1l-1,2v1l-2,2h-1v8l-1,1l1,1h-1l-1,1l-1,-1l-1,-2v-1l-1,-1v-1l-1,-2v-1l-3,-6v-3l-2,1h-1l-1,-2v-1l-2,-1l-1,-1v-1l-1,-1l-2,1h-5l-1,-1h-2v-2h-1l-1,1h-2l-3,-3l-1,-2l-1,1v-1l-1,1v2l1,1h1l1,1v2l1,1l-1,-1l1,-1v2h1v1l1,-1h2v-1l1,-1v-1v2l2,2h1l2,2l-1,1v1h-1v3h-1v1h-1v1h-2v1h-1l-2,2h-1l-2,2v-1l-1,1h-2v1h-2v-2l-1,-1v-3h-1v-1l-1,-1v-1l-1,-1h-1v-1l-1,-1v-3h-2v-2l-1,-1v-1l-2,-2v-1v1l-1,1l-1,-1l-1,-2l1,2l1,1l1,2v1l2,2h-1l2,2v1l1,1h-1l1,2v1l1,1l1,2v1l1,1l2,1v1h1v1h1v1l-1,1h1l1,1h3l1,-1h3v-1h1v2l-1,1v3l-1,1l-3,6l-1,1l-2,1l-1,1l-1,2v1h-1v1h-1v2l-1,1l-1,2l1,1v4l1,1v7l-1,1h-1l-3,3h-1v1l-1,1v2h1l-1,1h1v1l-1,1h1l-1,1h-1l-2,2v3l-3,3v1l-2,1v1l-1,1h-2v1l-1,-1v1l-1,-1l-1,1h-2l-1,1l-1,-1h-1v-5l-1,-1v-2l-1,-1v-1l-1,-1v-5l-1,-1v-1l-1,-2v-1l-1,-1v-3l1,-1v-3h1v-1l1,-1v-1h-1v-5l-1,-1v-2l-3,-3l-1,-2l1,-1v-5l-1,-1v-1l-1,1h-2l-1,-1v-1l-1,-1h-2l-1,1h-2l-1,1h-6l-1,1l-4,-4h-1l-1,-1v-1l-1,-1v-1h-1v-1l-1,-1v-1h-1v-3h-1l1,-1v-1h1l-1,-1l1,-1v-4l-1,-1v-1h1v-2l1,-1v-1h1v-2h1l1,-2h1l2,-2v-3l3,-3l1,-2v-1h1l1,1h2l1,-1h2l1,-1h4l1,-1h1v1h1l1,-1h1v1l1,-1v1h-1v1h1v2h-1v1h1v1h3l2,2h1l2,2l1,-1v-2l1,-1h2l1,1h1l1,1h2l1,1h1v-1h2l1,1v-1h1l1,1v-2l1,-1v-5h-2l-1,1l-1,-1h-2v1l-1,-1h-2v-1l-1,-1v-2l1,-1h1v-1h2l1,-1h1l2,-1l2,1l1,1h2l1,-1v-2h-1l-2,-2h-1l-1,-1l1,-1l-1,-1h2l-1,-1v1h-2l-1,1v1h1l-1,1h-1v-1h-1l1,-1h-2v-1h-1v1l-1,1v1h-1v4l1,1h-2v1h-1v-1h-2l1,1h-2v1l1,1h-1h1l1,1v1l-1,-1v1h-1l1,1h-2v-2l-1,-1v-1h-1v-3h-1v-1h-1l-1,-1h-1l-1,-1v-1l-1,-1v1v-1h-2v1l2,2v1l1,1h1l1,1h1l1,1v1l-1,-1h-1v1h1v1h-1v1h-1v-1h1l-1,-1v-1h-1l-1,-1h-1l-2,-2l-1,-2h-2v1h-4l-1,1v2h-2v1l-1,2h1l-1,1v1h-1l-1,1h-2l-1,1l-2,-2v1h-2l1,-1v-1h-1v-2l1,-1v-3l-1,-1l2,-1l1,1h5v-4l-1,-1v-1h-2v-1h3v-2l1,1l2,-1v-1h1l1,-1l1,-2l1,-1h2v-5h2l-1,1h1v1l-1,1v1h1v1l1,-1h2v1h1l2,-2l1,1h1v-1h1v-3l1,-1l1,1v-1l-1,-1v-1h4l1,-1h-4l-1,1l-2,-2v-4l2,-1v-1l-1,-1l-2,2l-1,2l-1,1v3h1v2h-1v2l-1,2h-1v1h-1v-2l-1,-1l-1,-2l-1,-1l-1,2h-1l-2,-1v-5l2,-1l3,-3l2,-3l3,-3h2l1,-2h3l2,1l-1,1h2l1,1h3l3,1l1,1v1l-1,1h-1l-3,-1h-1l2,1v2l1,1h1v-1h-1l1,-1l2,1v-1l1,-2h1l1,1v-1l-1,-1v-1l-1,-1l2,1h1l-1,1l1,1h1v-1l1,-1l2,-1h1v1l1,-1h1l1,-1l1,1l1,-1h-2l1,-1h2l1,1l4,1v-1h-2v-1h-1l-1,-1v-3h2l1,1v1h1l1,1l1,2h1v3l1,1v-1h1l-1,-1l1,-1h-1l-2,-2v-1l-2,-1l1,-1l-1,-1h1l1,2l-1,-1l1,-1h2l1,1l-1,-1l-1,-2h4l-2,-1v-1h1l1,-1h3l1,-1h1v-2l2,1h-1ZM253,820l1,1v2h-1v1l1,1h1l1,1h3l-1,-1v-2h-1v-2h1v-1l-1,-1h-1l1,1l-1,-1v-1h-2v-2h-1h1v-2l1,1v-3h-2l-1,1h-1v1h-1l-1,2l2,1v1l1,1Z"/>
<path class="tl" d="M146,770h-1v-1h1l1,1ZM137,769h-2l1,-1h1l1,1ZM220,771l-1,1h-1v-1h-1l2,-1v1ZM139,768h-2l1,-1v1ZM146,769h-1v-1h1l1,1ZM144,769h-1l-1,-1h-1h1v-1h1l1,1ZM268,768l-3,1v-2ZM215,769l3,1h-2v3h-1l-2,-1h1l-1,-1l-2,-1v-1l1,-1l1,1h1v-1h1ZM220,768h1l-1,1h-4l-1,-1h3ZM234,767l-1,1h-1v-1h-1h4ZM264,768h-4l-2,-1l-1,-1h1l1,-1l4,2ZM153,767v1h-1l-2,1h-2v-1h1h-1v-1l1,-1h2v-1h1v1h1ZM167,764h3v1h-3l-1,1h-1l-1,1l-2,1h-3v1h-1v1h-2l-2,1h1l-2,1h-4l-1,-1h2v-1h2v-1h-1h1l1,-1h1l-1,-1h4l-1,-1h-3v-1l1,-1h6v-1h3v1l2,-1l1,1ZM190,764l3,1h-6v1h5l-1,1l2,-1h4v1l-2,1h-1l-2,2v2l1,1h-2l1,1l-1,1v1h-1l1,1h-3l1,1v1l-1,-1l-1,1h1l1,1v1h-2l-1,-1v1l-1,1h3l-4,2h-3l-1,1l-4,2h-1l-2,1h-1v1l-2,2v1l-1,1l-1,2h-1l-1,-1h-1l-1,-1v-2l-1,-1v-1l1,-1l-1,-2l1,-1l1,-2h1l1,-1v-1l-1,1h-1v-1l1,-1h1l-1,-1h-1l1,-1v-4l-1,-1h-5v-1l-1,-1h1l-1,-1l1,-1h2l3,-1h1l-2,-1h1l3,-1h1v-1h9l1,1l-1,-1h1l2,-1h3l2,-1Z"/>
<path class="tg" d="M66,970h1l1,-1h4v-1h5v-1h5v-1h6v-1h6l1,-1h7v-1h8v-1h9l1,-1h11v-1h14v-1h20v-1h79v1h20v1h14v1h11l1,1h9v1h8v1h7l1,1h6v1h6v1h5v1h5v1h4l1,1h1M21,927h6v-1h7v-1h8v-1h10v-1h10v-1h12v-1h14v-1h18v-1h23v-1h38v-1h75v1h38v1h23v1h18v1h14v1h12v1h10v1h10v1h8v1h7v1h6M5,877h399M21,826h4v1h7v1h8v1h9v1h10v1h11v1h14v1h16v1h21v1h32v1h103v-1h32v-1h21v-1h16v-1h14v-1h11v-1h10v-1h9v-1h8v-1h7v-1h4M66,783v1h5v1h4v1h5l1,1h5v1h6l1,1h6l1,1h7v1h10v1h10v1h13l1,1h17v1h36v1h21v-1h36v-1h17l1,-1h13v-1h10v-1h10v-1h7l1,-1h6l1,-1h6v-1h5l1,-1h5v-1h4v-1h5v-1M140,755h-1v1h-3v1h-2v1h-2v1h-2v1h-2v1h-2l-1,1h-1l-1,1h-1l-1,1h-1v1h-2v1h-2v1h-2v1h-1l-1,1h-1v1h-2v1h-1l-1,1h-1v1h-2v1h-1v1h-2v1h-1v1h-2v1h-1v1h-1l-1,1h-1v1h-1v1h-2v1h-1v1h-1v1h-1v1h-2v1h-1v1h-1v1h-1v1h-1v1h-1v1h-1l-1,1h-1v1h-1v1h-1v1h-1v1h-1v1h-1v1h-1v1h-1v1h-1v1l-1,1v1h-1v1h-1v1h-1v1h-1v1h-1v1l-1,1v1h-1v1h-1v1h-1v2h-1v1h-1v2h-1v1h-1v2h-1v1h-1v2h-1v2h-1v1h-1v2h-1v2h-1v2h-1v2h-1v2l-1,1v2h-1v2l-1,1v2h-1v3h-1v4h-1v4h-1v5h-1v9h-1v13l1,1v8h1v5h1v4h1v4h1v3h1v3h1v2h1v3h1v2h1v2h1v2h1v2h1v2h1v2h1v1l1,1v1h1v2h1v1h1v2h1v1h1v1h1v2h1v1h1v1l1,1v1h1v1h1v1h1v1l2,2v1h1v1h1v1h1v1h1v1h1v1h1v1h1v1h1v1h1v1h1v1h1v1h1v1h1v1h2v1h1v1h1v1h1v1h1v1h1l1,1h1v1h1v1h1v1h2v1h1v1h1l1,1h1v1h1v1h2v1h1v1h2v1h1l1,1h1v1h2v1h1v1h2v1h2v1h1l1,1h1v1h2v1h2v1h2v1h2v1h2v1h2v1h2v1h2l1,1h2v1h2v1h2M153,755h-1v1h-2v1h-2v1h-1v1h-2v1h-2v1h-1v1h-2v1h-1v1h-2v1h-1v1h-2v1h-1v1h-1v1h-2v1h-1v1h-1l-1,1h-1v1h-1v1h-1v1h-1v1h-1l-1,1h-1v1h-1v1h-1v1h-1v1h-1v1h-1v1h-1v1h-1v1h-1v1h-1v1h-1v1h-1v1h-1v1h-1v1h-1v1h-1v1h-1v1l-2,2v1h-1v1h-1v1h-1v1l-1,1v1h-1v1h-1v2h-1v1h-1v1l-1,1v1h-1v2h-1v1h-1v2h-1v1h-1v2h-1v2h-1v2h-1v2h-1v2h-1v2h-1v2h-1v3h-1v2h-1v3h-1v3h-1v3h-1v3h-1v4l-1,1v4h-1v6l-1,1v30h1v6h1v5h1v4h1v3h1v3l1,1v2l1,1v2h1v3h1v2h1v2h1v2h1v2l1,1v1h1v2h1v2h1v2h1v2h1v1h1v2h1v1h1v2h1v1h1v2h1v1h1v1h1v2h1v1h1v1h1v1l1,1v1h1v1h1v1h1v1h1v1h1v1h1v1l3,3v1h1l3,3h1v1h1v1h1v1h1v1h1v1h1v1h1v1h1l1,1h1v1h1v1h1v1h1l1,1h1v1h1v1h1l1,1h1v1h1v1h2v1h1v1h2v1h1v1h2v1h2v1h1v1h2v1h1l1,1h1v1h2M166,755h-1v1h-1v1h-1l-1,1h-1v1h-1v1h-1v1h-1v1h-1v1h-1l-2,2h-1v1h-1v1h-1v1h-1v1h-1v1h-1v1h-1v1h-1v1h-1v1l-2,2v1h-1v1h-1v1h-1v1h-1v1l-1,1v1h-1v1h-1v1h-1v2h-1v1h-1v1l-1,1v1h-1v1h-1v2h-1v1h-1v2h-1v2h-1v1h-1v2h-1v2h-1v2h-1v1l-1,1v1l-1,1v1l-1,1v2h-1v2h-1v2h-1v3h-1v2h-1v3h-1v3h-1v3h-1v3h-1v4h-1v4h-1v5h-1v6h-1v8h-1v30h1v7l1,1v5h1v5h1v4h1v4h1v3h1v3h1v3h1v3h1v3h1v2h1v2h1v2l1,1v2h1v2h1v2h1v2h1v1h1v2h1v2h1v2h1v1h1v2h1v1h1v2h1v1l1,1v1h1v1h1v2h1v1h1v1h1v1l1,1v1h1v1h1v1h1v1l1,1v1h1v1h1v1h1v1h1v1h1v1h1v1h1v1h1v1h1v1h1v1h1v1h1v1h1v1h1v1h1l2,2h1v1h1v1h1v1h1v1h2v1h1"/>
<path class="tg" d="M179,755h-1v1h-1v2h-1v1h-1v1h-1v1h-1v2h-1v1h-1v1l-1,1v1h-1v1l-1,1v1h-1v1l-1,1v1h-1v2h-1v1l-1,1v1h-1v2h-1v2h-1v2h-1v2h-1v2h-1v2h-1v2h-1v2h-1v2l-1,1v2h-1v2l-1,1v2h-1v3h-1v3h-1v3h-1v3h-1v4h-1v4h-1v4h-1v4h-1v5l-1,1v5h-1v8h-1v11h-1v29l1,1v10l1,1v7h1v6h1v5h1v4l1,1v4h1v3l1,1v3h1v3h1v3h1v3h1v3h1v3h1v2h1v3h1v2h1v2h1v2l1,1v2h1v2h1v1l1,1v1l1,1v1h1v2h1v2h1v1l1,1v1h1v2h1v1h1v2h1v1h1v2h1v1h1v1l1,1v1h1v1h1v1h1v2h1v1h1v1h1M192,755h-1v3h-1v2h-1v3h-1v3h-1v3h-1v3h-1v3h-1v3l-1,1v3h-1v4h-1v4h-1v4l-1,1v4h-1v5h-1v6h-1v6l-1,1v7h-1v8h-1v11l-1,1v18h-1v29l1,1v18h1v11h1v8l1,1v7h1v6h1v6h1v5h1v5h1v4h1v4h1v4h1v4h1v3h1v3l1,1v3h1v2l1,1v2h1v3h1v3h1v2h1M205,755v243M217,755h1v3h1v2h1v3h1v3h1v3h1v3h1v3h1v3l1,1v3h1v4h1v4h1v4l1,1v4h1v5h1v6h1v6l1,1v7h1v8h1v11l1,1v18h1v29l-1,1v18h-1v11h-1v8l-1,1v7h-1v6h-1v6h-1v5h-1v5h-1v4h-1v4h-1v4h-1v4h-1v3h-1v3l-1,1v3h-1v2l-1,1v2h-1v3h-1v3h-1v2h-1M230,755h1v1h1v2h1v1h1v1h1v1h1v2h1v1h1v1l1,1v1h1v1l1,1v1h1v1l1,1v1h1v2h1v1l1,1v1h1v2h1v2h1v2h1v2h1v2h1v2h1v2h1v2h1v2l1,1v2h1v2l1,1v2h1v3h1v3h1v3h1v3h1v4h1v4h1v4h1v4h1v5l1,1v5h1v8h1v11h1v29l-1,1v10l-1,1v7h-1v6h-1v5h-1v4l-1,1v4h-1v3l-1,1v3h-1v3h-1v3h-1v3h-1v3h-1v3h-1v2h-1v3h-1v2h-1v2h-1v2l-1,1v2h-1v2h-1v1l-1,1v1l-1,1v1h-1v2h-1v2h-1v1l-1,1v1h-1v2h-1v1h-1v2h-1v1h-1v2h-1v1h-1v1l-1,1v1h-1v1h-1v1h-1v2h-1v1h-1v1h-1M243,755h1v1h1v1h1l1,1h1v1h1v1h1v1h1v1h1v1h1l2,2h1v1h1v1h1v1h1v1h1v1h1v1h1v1h1v1h1v1l2,2v1h1v1h1v1h1v1h1v1l1,1v1h1v1h1v1h1v2h1v1h1v1l1,1v1h1v1h1v2h1v1h1v2h1v2h1v1h1v2h1v2h1v2h1v1l1,1v1l1,1v1l1,1v2h1v2h1v2h1v3h1v2h1v3h1v3h1v3h1v3h1v4h1v4h1v5h1v6h1v8h1v30h-1v7l-1,1v5h-1v5h-1v4h-1v4h-1v3h-1v3h-1v3h-1v3h-1v3h-1v2h-1v2h-1v2l-1,1v2h-1v2h-1v2h-1v2h-1v1h-1v2h-1v2h-1v2h-1v1h-1v2h-1v1h-1v2h-1v1l-1,1v1h-1v1h-1v2h-1v1h-1v1h-1v1l-1,1v1h-1v1h-1v1h-1v1l-1,1v1h-1v1h-1v1h-1v1h-1v1h-1v1h-1v1h-1v1h-1v1h-1v1h-1v1h-1v1h-1v1h-1v1h-1v1h-1l-2,2h-1v1h-1v1h-1v1h-1v1h-2v1h-1M256,755h1v1h2v1h2v1h1v1h2v1h2v1h1v1h2v1h1v1h2v1h1v1h2v1h1v1h1v1h2v1h1v1h1l1,1h1v1h1v1h1v1h1v1h1l1,1h1v1h1v1h1v1h1v1h1v1h1v1h1v1h1v1h1v1h1v1h1v1h1v1h1v1h1v1h1v1h1v1h1v1l2,2v1h1v1h1v1h1v1l1,1v1h1v1h1v2h1v1h1v1l1,1v1h1v2h1v1h1v2h1v1h1v2h1v2h1v2h1v2h1v2h1v2h1v2h1v3h1v2h1v3h1v3h1v3h1v3h1v4l1,1v4h1v6l1,1v14l1,1h-1v15h-1v6h-1v5h-1v4h-1v3h-1v3l-1,1v2l-1,1v2h-1v3h-1v2h-1v2h-1v2h-1v2l-1,1v1h-1v2h-1v2h-1v2h-1v2h-1v1h-1v2h-1v1h-1v2h-1v1h-1v2h-1v1h-1v1h-1v2h-1v1h-1v1h-1v1l-1,1v1h-1v1h-1v1h-1v1h-1v1h-1v1h-1v1l-3,3v1h-1l-3,3h-1v1h-1v1h-1v1h-1v1h-1v1h-1v1h-1v1h-1l-1,1h-1v1h-1v1h-1v1h-1l-1,1h-1v1h-1v1h-1l-1,1h-1v1h-1v1h-2v1h-1v1h-2v1h-1v1h-2v1h-2v1h-1v1h-2v1h-1l-1,1h-1v1h-2"/>
<path class="tg" d="M269,755h1v1h3v1h2v1h2v1h2v1h2v1h2l1,1h1l1,1h1l1,1h1v1h2v1h2v1h2v1h1l1,1h1v1h2v1h1l1,1h1v1h2v1h1v1h2v1h1v1h2v1h1v1h1l1,1h1v1h1v1h2v1h1v1h1v1h1v1h2v1h1v1h1v1h1v1h1v1h1v1h1l1,1h1v1h1v1h1v1h1v1h1v1h1v1h1v1h1v1h1v1l1,1v1h1v1h1v1h1v1h1v1h1v1l1,1v1h1v1h1v1h1v2h1v1h1v2h1v1h1v2h1v1h1v2h1v2h1v1h1v2h1v2h1v2h1v2h1v2l1,1v2h1v2l1,1v2h1v3h1v4h1v4h1v5h1v9h1v13l-1,1v8h-1v5h-1v4h-1v4h-1v3h-1v3h-1v2h-1v3h-1v2h-1v2h-1v2h-1v2h-1v2h-1v2h-1v1l-1,1v1h-1v2h-1v1h-1v2h-1v1h-1v1h-1v2h-1v1h-1v1l-1,1v1h-1v1h-1v1h-1v1l-2,2v1h-1v1h-1v1h-1v1h-1v1h-1v1h-1v1h-1v1h-1v1h-1v1h-1v1h-1v1h-1v1h-1v1h-2v1h-1v1h-1v1h-1v1h-1v1h-1l-1,1h-1v1h-1v1h-1v1h-2v1h-1v1h-1l-1,1h-1v1h-1v1h-2v1h-1v1h-2v1h-1l-1,1h-1v1h-2v1h-1v1h-2v1h-2v1h-1l-1,1h-1v1h-2v1h-2v1h-2v1h-2v1h-2v1h-2v1h-2v1h-2l-1,1h-2v1h-2v1h-2"/>
<rect x="259" y="939" width="21" height="21" fill-opacity="0" stroke="#ffffff" stroke-opacity="0.5" stroke-width="5.0"/>
<rect x="261" y="941" width="21" height="21" fill-opacity="0" stroke="#113311" stroke-opacity="0.8" stroke-width="5.0"/>
<rect x="260" y="940" width="21" height="21" fill-opacity="0" stroke="#45a249" stroke-opacity="0.9" stroke-width="5.0"/>
<rect x="691" y="691" width="309" height="309" fill="#ffffff" fill-opacity="1.0"/>
<rect x="694" y="694" width="302" height="302" fill="#000000" fill-opacity="1.0"/>
<rect x="700" y="700" width="300" height="300" fill="#70add3" fill-opacity="1.0"/>
<path class="zl" d="M717,701v-1h9l-1,5l-3,2h-5l-1,-2v-2ZM752,700h7l-5,5h-6l-3,-3l-2,-1l-1,2l-2,1l-8,-4h18Z"/>
<path class="zp" d="M717,700h9M752,700h7M731,700h19"/>
<path class="zh" d="M856,852h2l-4,1l-2,1l-1,1h-2l-2,-2l-1,-2v-3h-3v-1l-1,-1h1l1,-1l2,2l1,-1v2h2v-1h2l1,1h1v2h1v1h1Z"/>
</svg>
