<?xml version="1.0" encoding="UTF-8" standalone="no"?>
<svg xmlns:svg="http://www.w3.org/2000/svg" xmlns="http://www.w3.org/2000/svg" xmlns:xlink="http://www.w3.org/1999/xlink" height="1000" width="1000">
<!-- made with pythonshp (GPL): github.com/sanjayrao77/pythonshp , underlying data may come from naturalearthdata.com -->
<!-- 
COPYRIGHT: THIS SVG FILE IS RELEASED INTO THE PUBLIC DOMAIN
 -->
<!-- 
vars : {
	'cmdline' : 'pythonshp.py publicdomain wiki1 honduras locatormap'
	'title' : 'Honduras locator'
	'version' : '1.0.5'
}
 -->
<defs>
	<radialGradient id="watergradient" cx="500" cy="500" r="500" fx="500" fy="500" gradientUnits="userSpaceOnUse">
		<stop offset="0%" stop-color="#70add3"/>
		<stop offset="11%" stop-color="#6eaad0"/>
		<stop offset="22%" stop-color="#6ca7cc"/>
		<stop offset="31%" stop-color="#6ba5c9"/>
		<stop offset="41%" stop-color="#69a2c6"/>
		<stop offset="51%" stop-color="#679fc2"/>
		<stop offset="59%" stop-color="#669dbf"/>
		<stop offset="67%" stop-color="#649abc"/>
		<stop offset="75%" stop-color="#6297b9"/>
		<stop offset="81%" stop-color="#6095b6"/>
		<stop offset="87%" stop-color="#5f92b2"/>
		<stop offset="92%" stop-color="#5d8faf"/>
		<stop offset="95%" stop-color="#5b8dac"/>
		<stop offset="98%" stop-color="#598aa8"/>
		<stop offset="100%" stop-color="#5685a2"/>
	</radialGradient>
	<radialGradient id="landgradient" cx="500" cy="500" r="500" fx="500" fy="500" gradientUnits="userSpaceOnUse">
		<stop offset="0%" stop-color="#dddddd"/>
		<stop offset="11%" stop-color="#d7d7d7"/>
		<stop offset="22%" stop-color="#d1d1d1"/>
		<stop offset="31%" stop-color="#cccccc"/>
		<stop offset="41%" stop-color="#c6c6c6"/>
		<stop offset="51%" stop-color="#c0c0c0"/>
		<stop offset="59%" stop-color="#bbbbbb"/>
		<stop offset="67%" stop-color="#b5b5b5"/>
		<stop offset="75%" stop-color="#afafaf"/>
		<stop offset="81%" stop-color="#aaaaaa"/>
		<stop offset="87%" stop-color="#a4a4a4"/>
		<stop offset="92%" stop-color="#9e9e9e"/>
		<stop offset="95%" stop-color="#999999"/>
		<stop offset="98%" stop-color="#939393"/>
		<stop offset="100%" stop-color="#888888"/>
	</radialGradient>
	<radialGradient id="bordergradient" cx="500" cy="500" r="500" fx="500" fy="500" gradientUnits="userSpaceOnUse">
		<stop offset="0%" stop-color="#444444"/>
		<stop offset="11%" stop-color="#3f3f3f"/>
		<stop offset="22%" stop-color="#3a3a3a"/>
		<stop offset="31%" stop-color="#363636"/>
		<stop offset="41%" stop-color="#323232"/>
		<stop offset="51%" stop-color="#2d2d2d"/>
		<stop offset="59%" stop-color="#292929"/>
		<stop offset="67%" stop-color="#242424"/>
		<stop offset="75%" stop-color="#1f1f1f"/>
		<stop offset="81%" stop-color="#1b1b1b"/>
		<stop offset="87%" stop-color="#161616"/>
		<stop offset="92%" stop-color="#121212"/>
		<stop offset="95%" stop-color="#0e0e0e"/>
		<stop offset="98%" stop-color="#090909"/>
		<stop offset="100%" stop-color="#000000"/>
	</radialGradient>
</defs>
<style type="text/css">
<![CDATA[
.c1 {stroke:#45a211;fill-opacity:0}
.fs {font:14px sans;stroke:#ffffff;stroke-width:2px;stroke-opacity:0.8;text-anchor:middle}
.ft {font:14px sans;fill:#000000;fill-opacity:1;stroke-opacity:0;text-anchor:middle}
.sb {stroke:url(#bordergradient);fill-opacity:0}
.sg {stroke:#000000;fill-opacity:0.0;stroke-opacity:0.2}
.sh {fill:#45a211;stroke:#000000}
.sl {fill:url(#landgradient);stroke:url(#bordergradient)}
.sp {stroke:url(#landgradient);fill-opacity:0}
.sr {stroke:url(#watergradient);fill-opacity:0}
.sw {fill:url(#watergradient);stroke:url(#watergradient);stroke-opacity:0.8}
.tb {fill:#eeeeee;stroke:black;stroke-width:2}
.tg {stroke:black;stroke-opacity:0.2;fill-opacity:0}
.th {fill:#45a211;stroke:#378100}
.tl {fill:#aaaaaa;stroke:black}
.w1 {stroke:#ffffff;fill-opacity:0;stroke-opacity:0.6}
.zb {stroke:#444444;fill-opacity:0}
.zh {fill:#45a211;stroke:#115511}
.zl {fill:#dddddd;stroke:#444444}
.zp {stroke:#dddddd;stroke-dasharray:3 3;fill-opacity:0}
.zw {fill:#64a8d2;fill-opacity:0.9;stroke-opacity:0.9}
]]>
</style>
<circle cx="500.0" cy="500.0" r="500.0" fill="url(#watergradient)"/>
<path class="sl" d="M864,157h-1v-1v1v-1l-7,-7v1l2,1l1,2l1,1h1v1l3,3v1l1,1v-1v1l-1,-1h-1v-1v1v-1h-1l3,3v1l7,7v1l3,3v1h1v2l1,1v1l1,1h1v1l2,2l1,2v1l3,3v1l5,5l1,2v1h1v1l1,1v1h1v1h1v2l1,1v1l2,2v3h-1v2l1,1h-1v1h1v1l1,1v1h-1v-1h-1l-1,-1v-1h-1l-1,-1v-1l-1,-1l-2,-1v2h-2v1v-1l-1,-2l-3,-3l-1,-2l-2,-2h1h-2l-1,-1v-2l-1,-1l1,2v1l-1,-1v-1l-2,-2v-1h-1v-1l-1,-2l-2,-2v-1h-1l-1,-3h-1v-1l-5,-5v-1h-1v-1l-1,-1v1v-1l-5,-5h-1v-1h-1l-1,-1v-3h-1v-2h2l1,-1h3l-1,-1h3v-1h-1v-1l-3,-3l-3,-4h-1v-1v1l-3,-3l-1,-2l-1,-1l1,1h1l1,2h1h-1l-2,-2v-1h-1l-1,-1h-1h1h-1v-1l-2,-2h-1v-1h-2l-3,-3v-1h-1v-1v1l-1,-1v1v-1h-1v-1v1l-1,-1h-3l-1,-1h-1v-1h-1v-1h-1l-1,-1v-3l1,1l1,-1v1v-1h-1h1l-1,-1l-3,-2l-2,-2h-1v-1h1l1,1h1v-1h-1l-1,-1l-1,-2l-2,-2h-1v-1l-3,-2v-1h-1v-1l-2,-2v-1v1v-1h-1v-1v1v-1v1l-1,-1h1h-1v-1h-1l-1,-1h-1v-1h-1l-1,-1v-1h-1l-3,-2v-1h-1v-1h-1l-2,-2v-1h-1h1l-2,-2h-1h1l1,1l-1,-1l1,1l-2,-2h-1v-1l1,1l-2,-1l-2,-2h-1v-1h-1l-1,-1h-1l-1,-1h1h-1h1l1,1h1v1v-1v1v-1v1v-1l2,2h1h-1h1h-1l-2,-2h-1l-1,-1h1l1,1h-1h1l1,1h1l3,3h1l4,4h2l4,4h1l4,4h1l6,6h1l6,6h1l7,7h1l8,8h1l11,11h1v1l9,9ZM790,93v-1h-1Z"/>
<path class="sp" d="M791,93l3,3h1l4,4h2l4,4h1l4,4h1l6,6h1l6,6h1l7,7h1l8,8h1l11,11h1v1l10,10M789,92l1,1"/>
<path class="sl" d="M306,116v1h-1l-1,1v1h-1v1l-1,1h-1l-1,1h-2v-1l2,-2h1h-1l1,-1h1v-2h1v-1h-2l-1,1h-1l-2,2v-1l1,-1h1v-1l2,-1h1h-1v-1h1h-1v-1h1v-3h1h-1l-1,-1l2,-2v-1h1v1v-2h1h-1v-1l1,-1l2,-1h-1l-1,1h-1v-1l1,-2v-1l2,-2h-1v1l-2,2v1h-1l-1,1v1l-1,-1h1l-1,-1h-1h1v-1h1v-1h1v-1l-1,1h-1v-1h-1v1h1h-1l1,1h-1h1l-1,1h-2l-1,1v-6l-1,-1v-1h1v-1h1l1,-1h1h-1v1l-1,1v-1h2v-2l-1,1h-2l-1,1l-2,-2h1l1,-1h-1v1h-1l-2,-2h-3v-2h1v-1h1h-1l-1,1h-1v-1h-1h2v-1h-1l1,-1h-1h1v-1h1h-3l1,-1h-2l-1,1h-1v1h-1v1v-1l-1,1h1h-1v1h-1l-1,1h-3l1,-1l-1,1h-1l-1,1l1,-1h-1v1h-1v-1v1h-3v1h-2v1v-1h-1v-1h3l1,-1h-2l1,-1h1l1,-1h1l1,-1h2v-1h1v-1h3l1,-1v1h1v1h1v-1h-1v-1h2v-1h1h-4l-1,1h-3v1h-1l-2,1h-1v1h-2v-1v2h-3v1h-3v1h-2l-1,1h-1v1h1l-2,2h-2l-1,1h-2v1h-3l-1,1h-2v1h-2l-1,1v-1l-2,2h-2v1h-3v1h-1v-1v1h-2l-1,1h-1v1h-1h1v-1v1h-2l-2,1h-1l-1,1l1,-1h1v-1l-1,1h-2v1v-1h-1v1v-1l-1,1h-1l1,-1h1v-1v1h-2l-2,1v1h-1l1,-1l-1,1h-1v-1v1h-1l1,-1h2v-1h2l1,-1h1l1,-1h1v1h1v-1h1l1,-1h1l1,-1h2l1,-1h3v-1h1l1,-1h2l1,-1h1h-1h1l2,-2h1l1,-1h1l1,-1h1l1,-1h1v-1h2l1,-1h-1l-1,1h-2l-1,1h-1v-1h1l1,-1h1v-1v1h-2l-2,2h-1l3,-3h-1v1v-1l1,-1h-1v1h-3l-1,1v-1h1l1,-1h1l1,-1h-1l1,-1h2v-1h1l2,-2l2,-1v-1h2l1,-1h1h-1l-2,1h-1v1h-2v1h-3l1,-1h1v-1l2,-2h1l2,-2h1v1h-1l-1,1h1v-1v1h-1h2v-1h1h-1v-1h1v-1h1h-1h1v-1v1h-1l1,-1h1v-1h1h-1h1v-1h2l1,-1h1l2,-1l1,-1h1v1v-1h1l1,-1h1l1,-1h1v1h2v-1h2l1,-1v1h-1h3l1,-1h1l3,-3h3v-1h1v-1l-1,1h-2l-2,1l1,-1v-1v1h-1h1l-1,-1h-1v-1h1v-1h1l1,-1h2v-1h1v-1h1v-1h1h-1h3l1,-1h1v1l1,-1h3l-1,1h-1l-1,1h1v1l2,-1h1h-1h1l-1,1l1,-1v-1h1l1,-1h1v-1h1l-1,1h-1l-1,1v1h1l1,-1h-1v-1h2l1,-1h-1h1h-1v-1h1v-1h2l4,-4h1v-1h1h-1h2l2,-1h5l1,-1h1h-1h2l2,-1l3,-1h1h-1h3l1,1h-1l1,-1h2l1,-1h1h-1h1v1h1v-1v1l1,-1h4l1,-1l-1,1v1h-1h1l-1,1h2v1h-2v1h1h-1h2l-1,1h2v1h1h-1l1,1h2l-1,1h4l1,1h-1l1,1h-1h1v1h2v3h1v1h1l1,1v-1h1v-1h3v-1h4l-1,1h-1h3l1,-1h6v-1h4l-1,1h-3l-1,1h-5v1h-4v1h-1h2v-1h4v-1h2l-1,1l1,-1v1h-1h1l1,-1h3l2,-1h1l-1,1h2l1,-1h2l1,-1v-1h1l1,1h-1v2h-1v2h2v-1h2v-1h2l1,-1v1h-1l-2,2h-1v1h3v-1h2v-1h4v1h1l1,1v1h3v1h1l1,1h3v1v-1h3v1h1v2h-3l-1,1h-2v1h3l1,1h10l1,-1h1v1h2v2l1,-1h1v2l-1,1v-1h-1l1,1v1l1,1v1v-3h2v-4h1v-1h5v-1h3v-1h-1l-1,1h-5v1h-2l-1,-1h1l1,-1h3l2,-1h4v3h1l1,1h4v1h3l1,1l2,-1h4l1,1h3v-2l1,1v1h3v-1h-3v-1h-1h1l-1,-1h3v-1l1,1h1v1h2l-1,1h1v-1h1l-1,2l-1,1h1v1h2v1h-3l1,1v1v-2l1,1h1v-1l1,-1v-1h-1v-1l1,-1h2l1,-1h1l1,-1h2v-2h-1v1h-2v-1h1l1,-1h-1v-1h2v1l1,-1h-3v-1h-3v-1h-2v-2h1v-1h1h-1v-2h1v-1h2v-1h1l1,-1h2v1h1l1,1h1v3h1l1,1v1v-1h1v1h-1v1h-1l-2,1h2l1,1l1,-1h1v1h-1h2v1h-1h1v1h1v1h-1v1h1v1h1v-1l1,-1v-1h1v-1h2l1,1h1v1h1v2h-2v1l1,1v1l2,1v1h1v-1h2v-2h1l1,-1v-1l1,-1v-1h2v-2h-1v-1h-1h1h-1v-1h2l1,-1l1,1h6l-1,1h1v1h3l-1,1h-1h2v1h1l-1,1h-3v1l1,1l1,-1v2h1l1,1h1v1l-1,1v1h-2v1h-2l-1,1h-2l-1,-1h-1l-1,-1h1h-2v-1l-1,1h2l1,1v1h1v1h1h-5v-1h-6l1,1h2v1l-3,2h-1v1h-4l-1,-1h-1l-1,-1h-2v-1h-1v1h-1v-1h-4v1h1v-1l2,1h2l2,2h5l2,1h1v1l-3,3h-1v1h-2l-1,1v-1h-1v1l-1,-1h-2v1h-1h1l-1,1h-7v-1h-4l-1,-1h-1v1h2l2,1h1h-1v1l1,-1h2l1,1h2v1h1l-1,1v1h-6v1h1v1l-1,-1h-1v1h-1v1h-1l-1,-1l1,1h-1v1h-1v1l-1,-1v1h1v1h-2l-1,1v1h-1v1l-3,3v1l-1,1v1l-1,2v2h-1l1,1v1h2v1l-1,2v-1l1,-1v-1h5v3l1,1v2l1,2v1l-1,1h-1v1l1,-1h3l4,-1h4l1,1h1l2,1h3v1l1,1h2l3,3h1l2,1h2l2,1h2v1h1l1,1l-1,1h1l1,-1h7l2,1h4l1,1v3l-1,1l2,2v6l3,3h1v1h-1v1h3v1h1l2,1l1,1v2h1h-1l-1,1l1,-1h2l1,1h1l3,3v-1h-1l-1,-1v-3h1v-1h1v1h1v1h1v1v-2h1h-1l-1,-1v-1h1v-1l1,-1v-1h1h-1v-1l-2,-2h1l-2,-2v-2l-1,-1v-1h1l-1,-1v-1h-1l-2,-2v-1h-1v-1l4,-1h2l2,-2h1l2,-2h1v-2h1v-1l1,-1v-1l-1,-1v-3l-2,-2v-1h-1l-1,-2l-2,-1h-1l-1,-1l-2,-1h-1v-2h1v-1h1v-1h1h-1v-2h1l1,1l-1,-1h1v-2h-1l-1,-1v-2h-1v-1h1h-3l2,-2l-1,-1h1v-1h-1l-1,-1h-1v-3h1l1,-1h3l1,1h3l1,1h-1l1,-1h2v1h2l1,-1h2v-1h1v1h2v1h2v1h2v1h1v1v-1h2v1h-1h1v1h1l1,1h5v1h2v-1h1v1h1h-1v3h1v1h-1l-2,1l-1,-1v1h5v3h2v3l-1,-1v1h-1l1,1h1v-1h1v-1h4v1h1v1h1v3h-2v1l1,-1h1v-3h1l1,1l-1,1h1v-1l1,1v1v-1l1,-1h1v-1h2v-2h1v1h1l1,1v-1h-1l-1,-1h1v-1h1l-1,-1v-1h1h-1l1,-1l1,1l-1,-1h-1l-1,-1h1v-3h2v1h1l1,1v1h1v-1v1h1l1,1l-1,1h2l1,1h-2l1,1l1,-1h1v1h2l1,1v1h-1v1h-1h1v-1h1v1l1,-1h1v2h-1l-1,1h1v-1h2l2,1h2v2h-1v1h-1h3v1h2l2,1v1l1,1h-5v-1h-1l1,1h3v1h-1h3v1h-1l1,1l1,-1l1,1l-1,1h4l1,1h1v1h1v3l1,-1h1l1,-1l1,1h1l-1,1v1l1,-1v-1h2l2,2h2v-1h1l1,1h2l1,1v1h-3v1h-1v1h-1v1h-1l-1,1h-2v1h-2l2,1v1h1v-1h1l2,-2v-1h1l1,-1h1h-1v-1h4l2,1v1h1l-1,1v1h1l1,-1v-1h2l1,1h1l1,1h1v1h1v2h1v1h1v1h-1h1l1,1h-1l1,1h1v1l-2,2v1l-2,1h-2l-1,1h-1v1h-3v1l-1,2l-1,1v1l-2,2h-4l-1,1h-6l-1,-1h-2l-1,1h-12l-2,1l-1,-1l-1,1h-2l-1,1h-1v4l-1,1h-1l-2,1h-1l-1,1h-1v1h-1l-1,2l-1,1v1l-1,1h-1l-1,-1h-2l-4,-1l1,1h2l2,1h3v1l-1,1v1l-1,2h-1l-1,2l-2,2h-1l-1,1h-2l-1,1h-1v1l-2,1h-1l-1,1v1h-1v1l-1,1h-1l-2,2h-1h1l1,1h-1l-1,1l-2,1h19v-2h2v-1h1v1v-1h1v-2h1v-1l1,-1h-1v-2l1,-1v-3l1,-1v-1l1,-1v-1h2v1h3l1,-1h1l1,1h1l1,1v2l1,1v2l1,1v3h1l1,1h1v2h1v1h1v-1v1h1v2h1l-1,1h-2v1h-2v1h-1v-1h-1v1h-1v-1v2h-2v-1h1h-1v-1v1h-1v3h-1l-1,1h-1v-1v1v-1v1h-1v1h-1v-1v1h-1v1l-1,1v1l-1,2v1l-1,1h1v1h1l-2,2v1h2l1,1v1h1v1h1l1,1v-1h1v-1h-1v-1h-1h1l2,2v1h-3v1h-2v-1l-1,1h-2v-1h-1v-1v3h-1l-1,1h-7l-1,1h-1l-2,1l-2,2h-1h1v-3h-1v1l1,1l-1,1v1h-1v2h2v3l-1,2v1h-1v2h-1v1l-2,2v-2h-1l-1,-1h-1l-1,-1v-2l1,-1h1v-1v1h-2v1l-1,1v1l1,1h1v2l3,3h-1v1h1v2h-1v1l-1,1l-1,3v1h-1v1l-1,2v-4l1,-1v-2h-1v-1h-1h1v-2h-1v1h-1l-1,-1v-1h2l-1,-1v1l-2,-2v1v-1h1v-1h-1h1v-1l-1,-1l1,-1h1v-2l-1,1v1h-1v-1v1h-1v1h-1l1,1v1l-1,-1l1,1v3l1,1v1l-2,-2v1l2,1v1h1v1l-1,-1h-1l-2,-2v1h-1v-1h-2v-1l2,-2h-1v1l-1,1v2h2l1,1h2v1h2v3h-1l-4,-4h-1l2,1v1l1,1h1l1,1h1v1h1v1h-1v1l-1,-1l-2,-1h1l1,1v1h1l1,1v1h-1l-1,-1v-1h-1l-2,-1h-2v1h4l2,2v1l1,-1h2v1h1v1l1,4l2,2v1v-1l-1,-2l-1,-1l-1,-2v-1v2l1,1v1h-2v-1v1h-2v1h-2v-1v2h3l1,-1l1,1v1v-1h2v2l-2,2h-3v-1h-1v1h-2l-1,-1l1,1l2,1h1l-1,1v1h-1l-2,-1l1,1h1l1,1l2,-1v1l-1,1h-2l-1,1l-1,-1l-1,1h-1v-1v3h-2v1l-1,1v1v-1v1l-1,1h-4l-2,2l-1,2l-1,1v-1v2l-1,1h-1l-1,1v1h-1l-1,1h-1l-1,1h-2v2h-1v-1v1l-1,-1v1h1l-1,1v1l-1,1h-1v1l-1,1h1l-1,1h1h-1v1h-1v1h1l-1,1v1l-1,1v1h1v1l1,3v1l2,6l2,3l2,4h1v1h-1v1l1,1v1l1,1h-1l-1,-2v-1l-1,-1v-1h1h-1v-2h-1l1,1v2l1,1v1l4,8v1l1,1v9l-1,1v3h-1l-1,1l-2,1h-2l-1,-1h1v-1h-1l-1,-2l-1,-1v-1h-1l-2,-2l-1,-3h-1l1,-1v-1v1h-1v1v-1l-1,-1l1,-1v-1h-1v1h-1l-1,-1v-1l-2,-2v-1h-1h1v-1l1,-1v-1h1l-1,-1v1l-1,-1v2h-1v-1h-1l1,-3v-5h1l-1,-1v-1l-5,-3l-3,-4l-2,-1h-3v1h-1l-2,1h-1v1h-3l-1,-1h1v1v-2h-1l-1,-1v-1h-1h1v-1h-1v1h-1l-5,-2h3l-1,-1l-1,1l-1,-1v1h-3l-2,1v-1h1l1,-1h-2v1h-1v1h-1v-1h-1v1l-3,1v-1h1v-1h-1v-2l-1,1v1l-1,1l-1,-1l-2,1l-1,-1h-2l-1,1h-1l-1,1h-1l-3,-1h-1v-1h-1l-1,1v1l1,1h2v-1h2v1h-1l1,1h1v-1h1v2h-1v1h-1v1l1,1l2,1h1l1,1l-1,1h-2v1v-2l-1,-1h-2v-1h-1l-2,-1v1h1v2h-1v1v-1l-1,-1h-2l-1,1h-2l-2,-1h1l-1,-1v-1h-2v-1l-1,-1h-3l-1,1h1l-2,1l-3,-1h-1l-1,-1h-7v-1h1v-1l-1,1v1l-1,1l-4,1l-1,1l1,-1v-1l-1,1l-1,-1h1v-1h-2v2l1,1l-2,1v1h-1l-2,2l-2,1l-1,1h-2l-1,1l1,-1h1h-1l-1,-1h-1v1h-1v-1h-1l1,2l-1,1h-1v-1l-1,1v1h-2v2l-1,1h-2l1,1l-1,2v1h-2l-1,-1l2,2v7l2,3v2l-1,2l-2,2v2l-2,5l-1,5v1l-1,3v5l-1,1v3l2,4v1l1,1h1l-1,1v1v-2l-2,-4v4l1,1v1l2,5l4,5l2,3v2l1,1v1l1,2l3,3h-1l2,1l-1,-1l1,1h3l4,2v1l1,2h2l1,-1h3l1,-1h2l2,-1l1,1l2,-1h1v-1h5l1,-1h1v2h1l2,1l2,-2v-2h-1l3,-1v-1h1l2,-2l1,-3v-1l1,-1v-5l2,-4l1,-1l2,-1l9,-1l1,-1h1l1,-1h6v1h5l-1,-1v1h-1v-1h3l1,1v2l1,1l-1,1v1l-3,3l-2,3v3h-1l-1,2h2v2h-2v1h1v-1h1v1l-2,4v1l-1,2v1h-1v-1h-1v-3h-1v1l-1,1v2h1l1,1v1l-1,2v1l-1,1l1,1l-1,1v6l-1,2h-1v1l-2,1l-1,2v1h1v1h1l1,-1h-1v-1l3,2l1,1l2,-2h3l1,1l1,-1l3,1h5l4,-2h1l2,1h3l1,-1h1l2,1l1,1h1v-1h2l4,4l-2,-1h-1v1h2l1,1v1l1,-1l1,1v-1l-1,-1l2,1l1,2l1,1l-1,1v-1h-1v2h1l1,3v1l-1,1v1h-1l-1,2v12h-1v-1h1v-2l-1,1v1h-1l1,1v3h-1v2h1v2h-1v2h-1v1l1,1v1l1,1h1v2l1,2l1,1l2,3h1l1,2h1v1h1l2,2v1l1,1h1l-1,1l1,1h3v-1h-1v-1l1,1h1l1,2h5l2,-1l1,-1l5,-1l1,-2h1l2,-2h2l1,1h2l1,1l2,-1l1,1l4,1l2,1l1,2l3,2v1h-1l1,1v1h1v1l1,1v1l-1,1v1l-2,2h-1v-2h-1v3l-1,2v-1l-2,-2l-2,-3l-1,-2h2v-2l1,-1v1h1v1h1l1,1l-3,-3h-2v-1v2h-1v-3h-1l-1,-1h-1l-2,-2h-3l-1,1h-1l-1,1v1l-1,1h1l-3,2h-1l-1,1h-1v2h1l1,1l1,2l1,1l-1,1h-2v1h-1l-2,1h-2v-2l-1,-2v-2h-1v2l-1,1l-1,-1h-1l-2,-3v-1h-1l-1,-1h-1l-1,1v-1h-6v2l-1,-1v-1l-1,-1v-2h-1l-1,-1h-1v1l1,1h1v1h-3v-1l-1,-1v-1l1,-1v-1l-1,-1v-1l-4,-2h-1l-2,-1h-1v-2l-1,-1l-3,-2l-1,-1h-1l1,1v1l2,1h1v1l-1,1h-1v1l-2,-2l-3,-1v-1l-2,-2l1,-1l1,-2v-2h-1l-1,-1l1,-1v-1l-2,-2l-4,-3l-2,-4l-1,-1l-2,-1l-3,-3l-2,-1v-1h1l1,1l1,-1v-1h-1v-1h-1v-1h-2v-1l-1,1h1l-1,1h-4l-2,-1h-1l1,1h1l-7,-2l-2,-1h-2l-2,-1l-1,-1l-3,-1h-5l-5,-2l-4,-4h-1l-2,-2l-2,-3l-3,-3l-3,-2l-4,-4h-2v-1h-1v1h2l1,1l-5,-1v-2l-1,1v-1h-1l-1,1h2h-2l-1,1l-6,2l-3,2h-3l-5,-2l-5,-1l-3,-2l-3,-1l-2,-2h-1l-1,-1h-3l-5,-3h-2l-1,-1l-5,-2l-1,-1l-2,-1v-1l-3,-3h-3l-2,-1h-2l-2,-2l-3,-1l-1,-1l-1,-2l-2,-1l-3,-3h-2l-3,-3v-1l-2,-1l-1,-3v-2l-1,-1v-1h3l1,-1l-1,-1h-1v-1l1,-1h1v-2l1,-1v-1l-2,-2v-1l-1,-2v-5l-2,-2l-1,-2l-1,-1l-2,-4l-2,-2v-1l-5,-4l2,1v-2l-1,1v-1h-1l-1,-1v-1l-1,-2l-1,-1v1h2v-1l-2,-1h-1l-2,-1v-2l-1,1h-1v-1h1l1,-1h-1l-1,1h-1l-1,-1v-3l2,-2h1h-1v-2l-1,-1h-2v-1h-1v-3l-2,-1h-1v-2h-1v-2l1,-1l-1,-1h-3l-1,-2v-2l-2,-1v-1l-1,-1v-1h-1v-4h-1v-2l-1,-1v-5l-1,-2v-4h1v-1l-1,-1h-2v-2h-1l-1,-1v1h-1l-1,-1l-2,-1v-1h-1l-1,-1v1h1v1l-1,1l-1,3v8h-1l1,1v2h1l1,1v1l2,2l1,2v2h1v1l1,2v1h1v5l1,1l1,2v2l1,1h1l-1,1l1,1v3h1l-1,-1v-2h1l1,2v3l1,2l-1,1v1l1,2l1,1v3l1,1v7h1v1l1,-1v-1h1l1,1v1h1v2h1v2h1l1,1l-1,1v2l-2,1l-1,1h-2v-4h-1v-2l-2,-1l-1,-2h-1v-2l-3,-2l-1,-1v-1h-1v-1l-2,-1v-2l2,-4h-1v-1l1,-1l-1,-1l-1,-3h-1v-1l-3,-3v-1h-2l-1,1l-1,-1v-2h-1l-1,-1h-1l-1,-1v-2l-2,-2h-1v-1h5v1l1,1v-2l-1,-1h1l1,-2l1,-1v-2l-1,-1l-3,-5l-1,-1h-1v-1l-2,-1v-2l-1,-1l1,-1v-2h-1v-4l-1,-1v-1h1v-1l-1,-1v-1l-1,-1l1,-1h-1h1v-1l-1,-1v-6h-1v-1h1v-2l-2,-4l-2,-2l-1,1v-3h-2l-2,-1v-1l-2,-2l-1,1v-1h-4v-1h-1l1,-1v-2l1,-1v-1h-1v-2l-1,-1v-3l-1,-2l-1,-1v-1l2,-2v-2h-1l-1,-2l1,-1v-3l1,-1v3h1v-2h-1l1,-1v-1h2v-1l-1,1l-1,-1h-1v2h-1l-1,-1v-1l-1,1v-1h1v-1v1v-3h-1v-2l-1,-1l1,-2v-2l1,-1v-1l1,-1l-1,-2v-3l1,-1v-1h1v-1l3,-3v-1l1,-1v-1h-1l1,-1v-2l1,-1v-1l1,-1v-3h1l3,-3h-1l1,-1h1v-1l1,-2l2,-2v-1l1,-1v-1l4,-5l2,-4v-1v1h3v-1h-3l1,-1v-1v1l1,-1v-2h2l-1,-1h-1h1v-3l1,-1v-2l1,-2v-1h1v1h2v1h4v1h1v-1v2l-1,1l-2,1l-1,1h1h-1h1v-1h1v-1h1l1,-1h1l-1,1h-1v2l-1,1h-2v1h-1h2l1,-1h1l1,-1v-1l2,-2v-2h1v-1h-1v-1h1l1,-1v-1h-1l1,-1l-1,-1l-1,1v-1h1h-1l1,-1h1l1,-1l-1,1l-1,-1l1,-1h-1v1h-1l-2,-2h1v1h1l1,-1h-1v-1l2,-2h-1v1h-1v1h-3v-4l1,-1h1v-1l1,-1l-2,2h-2v-1v1h-4v-1h1h-1v-1h1v-1h1v-1l-1,1h-3v-1l-1,-1l2,-2l2,-1h2h-2l-1,1h-1v-1l2,-2v-1h1v-1h3v2h1l-1,-1h1v-1h-1v-1h1l1,-1h1v-1l-1,1h-1l-2,2h-2l-3,3v-2l2,-1l1,-1h1h-2v1v-1l2,-2h1v-1l-2,1v-1l1,-1v-1l-1,-1l2,-2h1l-1,1v1h2v1v-1h-1v-2h2l-1,-1l-1,1h-1l-1,1h-1v1h-1l-1,1v-2h-1v-1l3,-3h1h-1v-1l1,-1v-1h2v-1h1l1,-1h1l1,-1l2,-1h-1v-1v1h-1v1h-1l-1,1v-1h1l1,-1v-1l1,-1h1Z"/>
<path class="sl" d="M698,828h-2v-1l-2,-2v-1l1,-2l1,-1v-1h1v-1h1v-3l-1,3h-1l-1,1v1l-2,2v4l-1,1v1l1,1l3,1l2,2v2l-2,1v2h-1l1,1v1h2v3h-1v1l-4,3l-5,5l-4,2l-5,2l-6,1l-8,1h-2l-1,1l-1,-1h-3v1l-1,1h1v2l-1,2h-1l-2,2v4h-1l-3,1l-1,1h-5l-2,-1h-4v-1l-1,1h-1v1l-1,1v3l-1,1l2,2h1h-1v1h2l1,-1h1h-1v-1h3v2l-1,1v1h-3v-1l-1,-1h-1l-2,1h-1v1h2l1,1h1h-1l-2,1h-1l-1,1l-2,1l-1,1v2l-1,1v1h-1l-2,1v2h-4l-1,1h-1l-2,1h-1l-3,3l-2,1v3l3,2h4v1h1l-1,2h-1l-1,1h-1h2l-1,1h-1l-2,2h-1l-2,1h-1l-1,1h-1l-1,1l-2,1v1l-2,2v1h-2l-1,1l-1,-1v-1h-1l1,1h-1h1v1h-1l-1,1h-1l-3,3h-1h1v2l-1,1h-1h2l1,1v1l1,1h-3l-1,-1l-2,1l-1,1h-1l-3,1h-2l-2,2v1h-1v2h-4l-1,-1h-1l-1,-1h1v-1h2v1l1,-1h2l1,-1h1l-1,-1l-3,1l-2,1h-1l-1,1h-3l3,-3v1h1l2,-1h3v-1h-4l-1,1v-1h-1v1h-1v1h-1v1h-2v-1h1v-1h1v-1v1h-4v-1h-1v-1h6l1,-1h1v2h-1h1l1,-1l-1,-1h1v-1h1h-1l-1,-1h-1h1l1,1l-2,1h-1l-2,1v-1h-1v-1h-2l1,-1v1l1,-2h-4v-1h-1v-1h-1l2,-1h1h-1l1,-1h1v1h1v1l2,1v-1l1,-1v-1v1l-1,1h-1l-1,-1v-1l2,1l-1,-1h-2l-1,-1h2v-1h1v-2h1l1,-1v-1h1h-1l-1,1v1h-1v-2l1,-2l1,-1h1h-2v-1h-1v-1h6v-2l-1,1h-4v-2l1,1h2l-1,-1h-1l1,-1h1v-2l-1,-1v1h-2l-1,-1v-1l-1,1h-2v1h-1v-1l2,-1h1l2,-2h-1v-1h4l1,-1h2v-2h1v1l-1,2h-1v1l-2,1h2l2,-2v-1h1v1h-1v1l-2,2h1l1,-1v-1h1v-2l-1,-1h2l1,-1h2l-1,-1h-1l1,-1h2l2,-2h1v-1h-1l-1,-1h-1v-2h1l1,-1v-2l1,-1v-1h1v-2l1,-1h1h-1v-1h2v1v-3h-1v-1h2l1,-1v-1v1h-1l-1,1v-1h-2l-2,1h-3l1,-1h-1l-1,-1v-2l1,-1l1,-2l1,-1v-2l2,-1l2,-3v-1l-1,-3v-2l1,-1v-2l-1,-1v-1h1v-2h3v-1l1,-1v-1l2,-2l1,-3h1l1,-1v-2h1v-1l3,-3l1,-2v-1l1,-1v-1l1,-1v-1l2,-1v-4h1v-1l1,-2l1,-1v-12l1,-2l2,-2v-1l1,-2v-2l-1,-1v-2l3,-3v-1l2,-4v-1l1,-1v-2l1,-1l2,-4v-1l1,-1v-6h1l1,-1v-8l1,-1v-3l1,-1v-1h-1v-3l1,-1h1v-1l1,-2l1,-3v-2h1v-3l1,-1v-1l-1,-4v-2l1,-2v-14l-1,-1l-3,-2v-1h-1l-2,-2h-1v-2l-1,-1h-2v-1h-1l-2,-2h-1l-1,-1l-3,-1h-1l-2,-1l-1,-1l-3,-1h-1l-2,-2l-2,-1l-1,-1l-5,-2h-1v-2h-1l-1,-2l-2,-1l-3,-3v-1l-1,-1v-1l-1,-1h1v-1l1,-2v-1l-3,-3v-1l-1,-1l-1,-2v-1l-3,-3v-3l-1,-1l-3,-2v-4l-3,-4l-2,-4v-1l-1,-3l-1,-1l-2,-4v-1l-1,-2l-1,-1l-1,-2l-1,-1h-1l-2,-4v-1l-1,-2l-3,-3l-6,-3l-2,-2h-1v-2h2l1,-1v-1l-1,-1l-2,-3l1,-1l-2,-2v-4l4,-4v-1l2,-1l1,-1l2,-1l1,-1h1l1,-1v-1l2,-4v-1l-1,-1v-2h-1v4h-1v-2l-1,2h-1v1h-1l-3,-3h-1l-1,-1l1,-1h1v-2l-1,-2v-6h2l1,-1v-2h1l-1,-1v-1l3,-3l1,-2v-5l1,-1h1l1,-1h1l1,-1h2l3,-1l1,-1l-1,-1v-1h-1v-2h4v-1l-1,-1v-2l2,-2h3v-1h1v-1h1l1,-1v-2h1l1,-1v-1l1,-1v-1l1,-1l1,-3v1h-1v-2l-1,1l-1,-1v-1h1v-1l-1,1v-1h1v-3l1,-1h-1v-6l-2,-1l2,-1l1,-1l-1,-2l-1,-1v-1l1,-2v-1l-1,-1h-1v-1h-1v-1l-1,-2h-1l1,-2v-3h1v2h1l2,-2v-1l1,-1v-1l-1,-1v-1h-1v-1l-1,-1h1v-1h1v1l1,1l2,1v2h1h-1v1h2l-1,-3v-2h-1v-1h2l4,-3l1,-3h1l1,-1h2v-2l-1,-1l1,-1v-3l-1,1v-1l1,-1l1,-2l5,-5l3,1h1l-1,1v1h1l1,-2v-2l1,-1h7l5,-4l2,-1h1l1,-2v-1h2v-1l2,-1h1l2,1l1,1v1l-1,1v1l-1,1l-3,1h-1v2l1,2l2,1h-1v2l1,1v2l-1,1l-1,2l-2,3l2,2v1h1v2l1,1h1l2,-1h1l1,-2v-4l-3,-3l-1,-2v-4l5,-3h3l2,-1l1,-1v-1h1l1,1h1v-1l-1,-1h-3v-4h2l1,1v1l1,2v1h6l4,2l2,2v1h1l-1,1v1l2,2h2l2,-1h4l1,-1h7v1l2,2h3l2,1h4l5,-4h3l-1,-1h-2l-1,1v-1l3,-1h7l2,-1h6l-1,1h-1l-1,1h-4v1h1v1h1v2h-1h1v-1h1l1,2l1,1l1,-1v1v-1h2l1,1v1h1l-1,-1h1v-1h1l2,2l2,1l1,1h1v1l-1,1h-1v3l-1,1v1h-3l1,1l2,1v-1h2l1,-1h3l1,-1h1l2,1l2,2v-1l2,1l2,2l3,2l1,2h1l1,1v3l-1,2v4h1v-3l1,-1h3l4,4h1l1,1v1l1,2v1v-1l1,-1h6l2,1v1v-2l1,-1h5l2,-1l5,1l1,1v2l-1,1h1l1,-2v-1h1l3,1h1l3,1l4,4v1h1l2,2v1v-2h1v1l1,2v2l1,-1v-1l2,2l2,7v1l1,4l1,1v1l1,2h-1h1v1l1,1v1h3l1,1v5h-1v1l-3,3v2l-6,6v2l-3,3v3l-1,1v1h-1v1h-1l-3,1h2l1,1l2,-1l2,-2h1l3,-3h1v-1l1,1l-1,1h1v3l1,1v2l2,1l2,-2h1l1,1l1,-1l2,-1v2l-1,2v1l-1,2v1l1,-1l1,-2l1,-4l2,-1l2,-3l1,1v-1h1h-1v-1l1,-1l-1,-1l1,-1v-1h1v-1h1v-1l1,1v-1h2l1,-1v1v-1h2v1h3l1,1h1v1h3v1h1l1,1h2v3h1v-2l1,-1v1h1l1,1v1h1v4h-1v1h1v-1l1,-1v2h-1v3l-1,4l2,-2v-2l1,-2v-1h1v2l-1,1h1l1,-1v-1h1l1,-1h1v-1h4v1h1l1,1l2,1h1l1,-1h1l1,1h2l2,-1l3,-1h3l2,2h1v1l2,1l2,2h1l1,2h1l2,4l1,1l2,1v2h3l1,1l1,-1h5v1l1,2v6l1,1v9l-1,1v5l-3,7l-1,3l-2,2l-1,2v1h-1l-3,6l-2,1v1l-2,1l-1,2v2l-2,2v-1h1v-1h-1v2l-3,6l-2,3v1l-3,3v-1l-1,-1v1h-1v2l-1,1v1l-1,1v1l-1,1h1v1l-1,1v1l1,1l-2,5v2l-1,3v5l-1,2l-1,3l-2,4v1l-1,2v3l-2,2h-1l-2,4h-144v128Z"/>
<path class="sp" d="M844,700h-144v128"/>
<path class="sl" d="M997,444v1v-1v12l-1,1v9l-1,-1v-1h-1l1,-1h-1v1l-1,-1v2l-1,1v-1v1l-1,1v1l-1,3v2l-1,1v1l-1,-1h-1l-1,-3l-1,-1l-3,-7l-1,-1v-1l-1,-1v-1l-1,-1v-1l-1,-1l-2,-1v-3h-1v-1l-1,-2v-1h-1v-2l1,-1v-1l-1,1v-3h-1v-2l-1,-1v-2h-1v-2l-1,-1v-1h-1l-1,-1v-2l-1,-1v-1v1v-2h-1v-1v1l-1,-1v-1v1v-1h-1v-3l1,-1h-2v-2h1v-1v1h-1v1l-1,1v-2h-1v1v-1h-1v-1l-2,-2v-1l1,-1l-1,-1v1l-1,-2v-2l-1,-2l1,-1v1h1v-1h1v-1h1h-1l-1,1v1l-1,-1v-2l-1,-1v-2l-1,1v-2l-1,-2h-1v-1l-1,-1v1v-11l-1,-4v-3l-1,-3v-2l-1,-3v-3l-1,-3l-3,-6v-1l-1,-1v-2h-1v-4l-1,-1v-1l-1,-2l-1,-1v-1v1l-1,-1l-1,-3h-1v1l1,2l-2,-5l-1,-4v-4l-1,-2v-4l-1,-1v-4l-1,-1v-1v1v-3l-1,-4l1,-1l-1,-1v-1l-1,-3l-1,-2v-1l-1,-2v-1l-1,-2v-7l-2,-4v-3l-1,-1v-1h1v-2l1,-2l-1,-2v-5l-2,-4v-2l-1,-1v-1l-1,-2l-2,-2v-1l-2,-2l-1,-3l-1,-2l-1,-4l-1,-1l-1,-2l-1,-3l-1,-2v-1l-1,-1v-6l-1,-1l-7,-12v-2l1,1v1l1,1l2,1h1v-2l1,1h1v-1l-1,-1v-2l-1,-1v-1l-1,-1v-1v1v-1l-1,-1v-2l-1,-1v-1l-1,-1v-3h-1v-2l1,1v-1l-2,-2v-1h-1h1l-1,-1l1,1v-1h-1v-1l-1,-1v-1l-1,-1v1l2,2v1l3,3v1l4,4v1l1,1v1l4,4v1l1,1v1l3,3v1l2,2v1l1,1v1l3,3v1l1,1v1l2,2v1l2,2v1l2,2v1l1,1v1l1,1v1l1,1v1h1l1,1v1l1,1v1l1,1v1l1,1v1l1,1v1l1,1v1l2,2v1l1,1v1l1,1v1l1,1v1l1,1v1l1,1v1l1,1v1l1,1v1l1,1v1l2,2v1l1,1v1l1,1v1l1,1v2l1,1v1l1,1v1l1,1v1l1,1v2l1,1v1l1,1v1l1,1v2l1,1v1l1,1v1l1,1v2l1,1v1l1,1v2l1,1v1l1,1v2l1,1v2l1,1v1l1,1v2l1,1v2l1,1v1l1,1v2l1,1v2l1,1v2l1,1v2l1,1v2l1,1v2l1,1v2l1,1v3l1,1v2l1,1v2l1,1v3l1,1v4l1,1v2l1,1v3l1,1v3l1,1v3l1,1v3l1,1v5l1,1v4l1,1v4l1,1v4l1,1v5l1,1v6l1,1v5l1,1v8l1,1v3Z"/>
<path class="sp" d="M896,194v1l2,2v1l3,3v1l4,4v1l1,1v1l4,4v1l1,1v1l3,3v1l2,2v1l1,1v1l3,3v1l1,1v1l2,2v1l2,2v1l2,2v1l1,1v1l1,1v1l1,1v1h1l1,1v1l1,1v1l1,1v1l1,1v1l1,1v1l1,1v1l2,2v1l1,1v1l1,1v1l1,1v1l1,1v1l1,1v1l1,1v1l1,1v1l1,1v1l2,2v1l1,1v1l1,1v1l1,1v2l1,1v1l1,1v1l1,1v1l1,1v2l1,1v1l1,1v1l1,1v2l1,1v1l1,1v1l1,1v2l1,1v1l1,1v2l1,1v1l1,1v2l1,1v2l1,1v1l1,1v2l1,1v2l1,1v1l1,1v2l1,1v2l1,1v2l1,1v2l1,1v2l1,1v2l1,1v2l1,1v3l1,1v2l1,1v2l1,1v3l1,1v4l1,1v2l1,1v3l1,1v3l1,1v3l1,1v3l1,1v5l1,1v4l1,1v4l1,1v4l1,1v5l1,1v6l1,1v5l1,1v8l1,1v3"/>
<path class="sl" d="M717,50h1l1,1h2v1h1h-1v-1v1h2v1h2l1,1h1l2,2h2l2,2h1l1,1h1l1,1h1l1,1h1l2,2h1l1,1h1l1,1h1l1,1h1l1,1h1l2,2h1l1,1h1l2,2h1l2,2h1l1,1h1l2,2h1l2,2h1l1,1h1l1,1h1v1h1l3,3h1l1,1l-1,-1h-1v-1h-1l-2,-1v-1h-1h1h-2v-1h-1v-1h-2v-1l-4,-2l-1,-1h-1l-2,-2h-2v-1h-1l-1,-1l-2,-1h-1v-1h-2v-1h-2v-1h-1h1v1h1l1,1h1l1,1h1v1v-1h-1h1v1h1v1h2l1,1l2,1v1h1l1,1v1v-1h-1h1v1v-1h-2v-1h-2l-2,-2h-1h1h-1h1h-1v-1h-2v-1h-1l-1,-1l1,1h1v1h1v1v-1l-2,-1h-1v-1h-1l-2,-2h-1l-1,-1h-1v-1v1h1l1,1l-2,-1v-1h-1l1,1h1v1h2v1h1v1h1l1,1l-1,-1h-1v-1h-2v-1h-1l-1,-1h-1l-1,-1l1,1l-1,-1l-2,-1h-1v-1v1v-1h-1h1h-1v-1h1v1l-1,-1h-1v-1h-1h1v1h1h-1h1v1h1h-2l-1,-1h-1v-1h-2v-1h-1h1h-1h1l-1,-1l1,1h-2l-2,-2h-1h1l-1,-1h-1v-1h-1h1h-1v-1h-1l1,1h-1h1h-1l-2,-2h1h-1l-1,-1h-1l-1,-1h-1l-1,-1h1v1l-1,-1h1l1,1l-1,-1h-1l-1,-1h-1v-1h-1h1v1l2,1h1h-2v-1h-1l-1,-1h-2l-2,-1v-1h-1l-1,-1h-1l-1,-1l-2,-1h-1l-1,-1l1,1l-1,-1h-1l-1,-1h-2v-1h-2l-1,-1h-1v-1v1h1l-2,-1h-1l-1,-1h-2v-1h-2v-1h-2l-1,-1h-1h1h-2v-1h-1l1,1v-1h-2l-1,-1h-2h1l-1,-1h-2v-1h-1h1v1l-1,-1h-1l-1,-1h-2l-1,-1h-2l-1,-1h1h-3v-1h-1h1l1,1l-1,-1h-2v-1h-1l1,1h2l1,1l-2,-1h-1l-1,-1h-1l-1,-1v1h1l-2,-1h-1l-1,-1h-1h1l1,1l-1,-1h-2l-1,-1h-2l-1,-1h-1h1l1,1h2l1,1h1h-1l-1,-1h-1l-2,-1h-1h1l1,1h2l1,1h2l1,1h2l1,1h2l1,1h1l1,1h2l1,1h2l1,1h2l1,1h2l1,1h1l1,1h2l1,1h1l1,1h2l1,1h1l1,1h2l1,1h1l1,1h1l1,1h1l1,1h2l1,1h1l1,1h1l1,1h1l1,1h1l1,1h2l1,1h1ZM338,27h-1l-1,1h-2v1h-1h1h-2l-1,1h-2l-1,1h-1l-1,1h-2h2l1,-1h2l1,-1h2v-1h2l-1,1h-2l-1,1l1,-1v1h-1l-1,1l-2,1h-1l-1,1h-1l-1,1l-2,1h-1v1h-2v1v-1v1h-2l-1,1h1l1,-1l-1,1h-1l-1,1l-4,2h-1l-1,1h-1v1h-2l-1,1h-2v1h-1l-1,1h-1h1h-1h2v-1h2v-1h2v-1h1v1h-2v1v-1h1h-1v1h1v-1v1l-1,1h-1l-1,1l-2,1h-1v1h-2l-1,1h-1l1,-1h-1v1h-1v-1h1h-1l-2,2h-2v1h-3v1h-1l-1,1h-1h1v-1l-1,1h-1h1v-1h1h-1h1v-1h2v-1h1v-1h2l2,-2h1v-1h1h-1h1v-1h2v-1h2v-1h1h-1h1h-1l-1,1h-2l-1,1h-1v1h-2l-1,1h-2l-1,1h-1l1,-1h1l1,-1h1l1,-1h-1v1h-1l1,-1l-1,1v-1v1h1v-1v1h-2l-1,1l1,-1l-1,1h1h-1l-1,1h-2v1l1,-1l-1,1h-1l-1,1h-1l-1,1h-2v1h-1h1h-1l-1,1h-1v1h-2v1h-2v1h-2l-1,1h1v-1l2,-1l1,-1h1h-1l-1,1h-2l-1,1h-1l-1,1h-2v1h-2v1v-1l-1,1h-1v1h-1l-2,1l1,-1h1l1,-1h1l1,-1h1l2,-2h2l1,-1h1l2,-2h2l2,-2h1l1,-1h2l2,-2h2l2,-2h2l1,-1h1l1,-1h1l1,-1h1l1,-1h2l1,-1h1l1,-1h1l1,-1h1l1,-1h1l1,-1h2l1,-1h2l1,-1h1l1,-1h1l1,-1h2l1,-1h2l1,-1h1l1,-1h2l1,-1h1l1,-1h2l1,-1h2l1,-1h2l1,-1Z"/>
<path class="sp" d="M738,60l1,1h1l2,2h1l1,1h1l1,1h1l1,1h1l1,1h1l2,2h1M754,69l1,1h1l2,2h1l2,2h1l1,1h1l2,2h1l2,2h1l1,1h1l1,1M652,24h2l1,1h2l1,1h2l1,1h2l1,1h2l1,1h1l1,1h2l1,1h2l1,1h2l1,1h2l1,1h1l1,1h2l1,1h1l1,1h2l1,1h1l1,1h2l1,1h1l1,1h1l1,1h1l1,1h2l1,1h1l1,1h1l1,1h1l1,1h1l1,1h2l1,1h1M257,63l1,-1h1l1,-1h1l1,-1h1l2,-2h2l1,-1h1l2,-2h2l2,-2h1l1,-1h2l2,-2h2l2,-2h2l1,-1h1l1,-1h1l1,-1h1l1,-1h2l1,-1h1l1,-1h1l1,-1h1l1,-1h1l1,-1h2l1,-1h2l1,-1h1l1,-1h1l1,-1h2l1,-1h2l1,-1h1l1,-1h2l1,-1h1l1,-1h2l1,-1h2l1,-1h2l1,-1h1"/>
<path class="sl" d="M712,480l-1,1v-1h2ZM687,464v2l-1,1h-1v-1h-2v-1h1l1,1h1v-1ZM676,467h-1v-1ZM711,483h-1v-1l1,-1l1,1h-1ZM673,403l-1,-1h1ZM675,402l-1,1v-1ZM674,407h2l-1,1h-2v-1ZM18,629v-1ZM663,402h1h-1h4v2l-2,2h-6l-1,1h-2l-1,-1v-2l-1,-1h1v-1h3ZM669,405h-1v-1h2ZM650,406h-1l1,-1ZM300,112h-1l2,-2v2ZM298,113v-1h2v1h-1ZM304,102h-1v-1h1ZM288,86h1ZM286,89h1v-1h1l-1,1ZM280,86h1ZM275,83h-1l1,-1h1ZM227,103h-1v-1ZM225,105h1ZM226,104v1v-1v1v-1h1ZM209,107h1ZM191,111v-1ZM302,51h1ZM279,58v1h-1h1l-1,1h-1v1h1h-1l-1,1v-1l-1,1h-1l1,-1h1v-1h1v-1v1h-1v-1h2v-1ZM257,75h-1h1l-1,1h-1v1h-2l-1,1v-1h1v-1h1v-1h2ZM256,94l-1,1h1v-1v1l-1,1h-1v1v-1h-1v1h-3v1h-2l-1,1h-1h1l2,-2h-1v1h-1l3,-3h2l-1,1v1v-1l1,-1h1v-1h1v1v-1h1ZM220,103h-1v1h-1h1h-2l-1,1h-1v-1h1l2,-2h2ZM293,117h-1v1h-2l1,-1h1ZM297,120v1h-1h1l-1,-1v1v-1h1v-1h1v1ZM300,114l-1,1h-1v-1l1,-1h1l1,-1v2ZM301,118l-1,1h-1l-1,1v-1l1,-1l-1,1h-1l-1,1v-1h1v-1h1l2,-2h2v1ZM300,109h1v1l-1,1v-1h-1v2h-2v-1l2,-2v-1h1ZM291,121h1l-1,1h-1v-2h1v-2h1v1l-1,1ZM286,85h1h-1v1h-1v-1ZM279,87h1l1,-1h1l1,-1h1v1h-2l-1,1h-1ZM283,84v1h-1v1h-1l1,-1h1v-1h1ZM285,83v-1h1ZM251,98h-1l1,-1ZM261,91h1ZM255,94v-1ZM237,103h1ZM243,100v1v-1h1ZM244,100h1ZM226,103v-1h1h-1v1h-1l1,-1ZM221,104v-1h1h-1ZM217,106l1,-1v1ZM226,104h-1l-1,1l1,-1h1l1,-1ZM211,106v-1h1v1ZM212,106v-1h1ZM249,86h-1h1l1,-1ZM254,71h-1h1l-1,1v-1h1v-1h1ZM231,87h-1ZM200,110v-1ZM198,110h-1ZM195,111v-1h1h-1ZM227,90v1h-1ZM191,111h-1h1v-1ZM192,110v-1h1h-1ZM190,110h1l1,-1l-1,1ZM189,110l1,-2h1l-1,1h-1Z"/>
<path class="sp" d="M200,100v0"/>
<path class="sl" d="M297,106v1l-2,2v1h-1v1h-1v1h-1v-1h1v-1h1h-1v-1h1h-1l1,-1h1v-1h-1l-1,1v-1l1,-1h2l1,-1ZM303,102h1v1l-1,1v1h-1l1,-1v-1l-1,1v1l-1,1v1h-1l-2,1h-1l2,-2h1v-2l2,-1v-1l1,-1ZM300,101v1h-1v1v-1h2v1l-1,1h-1v1l-1,1v-1l-1,-1v1h-1l-1,1v-1l1,-1v-2h1v-1h1v1v-1h1ZM296,112l1,1v1h-1l1,1v1l-1,1v1v-1h-1v1h1v1h-1h1l-2,2v1h-1v-1l-1,-1h1v-1v1h-1v-2h1v-1h1h-1v-2h2v-1h-1h1v-1h1ZM298,109l-1,1h1l-1,1h-1v1h-1l-2,2v-1l2,-1v-2h1v-1h1ZM260,92h1h-1h1h-1v1h1h-3l-1,1l-1,-1l2,-1h2v-1ZM205,108h-1l-1,1h-1l-1,1h-1h1l1,-1h1v-1h1l1,-1h1ZM210,106h-1h1l-1,1h-1h1h-1v1h-3v1h-1v-1h3v-1h1v-1h1l1,-1v1v-1ZM193,111v-1ZM193,110h-1h2v-1h1h-1v1ZM191,110l-1,1h-1l2,-1l1,-1v1ZM190,110h1v-1h1h-1v1ZM192,107h1v-1v1ZM193,106v-1h1l1,-1v1h-1ZM58,361h-1v-2l1,-2v-3l2,-2v-2l1,1v7l-1,1h-1l-1,1ZM59,341h1v1h1h-2ZM60,344h1v3h-1v-4h1ZM59,338v2h-1v-1h-1v-1l2,-2v1ZM56,333v-1h-1l2,-2v2h-1ZM54,333v-1l1,-1v1h-1ZM59,345v-1ZM590,223l-1,1h1l1,-1h2l-2,1h-1v1h-2l-2,1h-3l-1,1h-1l1,-1h-1v1h-1v-1h1v-1h1v-1h6l2,-2h1ZM611,199h-1l-1,-1h2ZM579,227v-1h1v1ZM602,220l-2,1v-1h1ZM597,219v1h-1v-1h1v-1ZM605,221h-1l1,-1ZM575,262v1l-1,-1ZM576,267h-1h1v-2ZM574,268h-1ZM570,272h-1l2,-2v1ZM533,338h-1v-1v1ZM532,337v1v-2ZM546,349l-1,2v-2h1v-1l1,-1ZM458,313h-2v-1h2ZM417,325v1l1,-1v-1h1l-1,1ZM420,323l-1,1l1,-1l2,-1l-1,1ZM414,330v1v-1l1,-1l1,-3h1l-2,2ZM433,316l2,-1v-1v1ZM415,340l-1,-2v-4l1,5ZM268,268h-1ZM271,275h-1v-1h1ZM277,278h-1v-1ZM269,269h-1v-1h1l1,1ZM271,268h1v1h-2v-1ZM278,274v1h-1v-2ZM303,163h-1ZM302,164h-1v-1h1ZM302,166v1l1,1h-1v-3h1ZM596,220v-1ZM581,233l-1,1ZM575,247h-1l1,-2l1,-1v1h-1ZM569,272h-1v-1ZM539,353l-1,-1ZM543,352v-1ZM541,353h-1l1,-1h1ZM536,301v1ZM537,354v-1ZM547,331v1l-1,-1l-1,-3v-1v1ZM535,354h1ZM480,312v-1ZM483,308h-1l-1,-1l1,1ZM486,307v1h-1l-1,-1h1ZM478,309h-1v-1h1ZM480,311v-2h1v1ZM510,312l-1,1v-1h2ZM297,172v1v-1h1ZM300,171v1v-1v1ZM301,170h-1h1v-1ZM302,164h1ZM609,200h-1v-1ZM974,647v-1ZM971,589v-1ZM195,749v1ZM687,403h-1l1,-1h1ZM644,923l1,1v-1h1v1h-1l1,1v-1h1l1,1h-2l-1,1h-2v1h-3v1h-3l1,-1l2,-1h1v-1h1v-1h1ZM636,925h1l1,-1h3v1h-2l-2,2h-2l-1,1h-3l2,-1h1l1,-1h1h-1h1v-1h-1v-1h1Z"/>
<path class="sl" d="M632,926h1l-1,1h-1h1ZM644,927h-1ZM637,924h1ZM540,398h1v1h-1ZM551,395h-1ZM553,395h-1l1,-1ZM655,287l-1,1v-1h1v-1ZM677,401h-1ZM675,402h-1h1v-1ZM677,399h-1ZM617,376l-1,-1h-1h2ZM615,375h-1v-1h1ZM612,375l1,1v-1v1h-1ZM696,415v1l-1,-1v-1ZM790,104h-1v-1h-1v-1v1h1ZM808,116h1v1l1,1h-1l-1,-1h-1v1l-1,-1h-1v-1h-1v-1l-1,-1v-1h-1v-1h-1l-1,-1h-1v-1v1h-1v-1l-1,-1v-1h-1v-1l1,1l-1,-1h1h-1l-2,-2h-1v-1h-1v-1h-2l-1,-1h-1v-1l-2,-1l-1,-1v1h1h-1l1,1h-1v-1v1h1h-2v-1h-1l-2,-2v-1h-2v-1h-1l-2,-2h-1h1v1h1h-1l-1,-1l2,2h1l2,2h1v1l-1,-1l-2,-1l-1,-1l-2,-1v-1h-1l-2,-2h-1v-1l1,1v1l-1,-1h-1v-1h-1v-1h-1l-1,-1h-1v-1h-1l-1,-1h-1v-1h-1h1h-1h1h-1l-3,-3h-1v-2h1l1,1h1v1l2,2h1l2,2v-1h-1v-1h1h-1h2l2,2h1v1l2,1l1,1h1v1h1v1v-1l2,2v1h-1h2v-1h1l1,1h1v1h1l2,1l3,3h2l1,1h1l1,1h1v1h1l2,2v-1h-1l2,1l2,2h1l2,2v-1h-1v-1l1,1h1l2,2h1l1,1v1h1v1h1v1h1v1h1v1h1l2,2h1v1l1,1h-2l1,1v1h1h-1l1,1h-1v-1h-1l1,1v1h1l1,1v1v-1h-1v1l1,1v1h-1v-1l-1,-1v-1h-1v-1l-2,-2h-1l-1,-1v-1h1v-1l-1,-1h-1v-1l-1,-1ZM796,108l1,1h-1l-1,-1ZM754,78v-1ZM745,71l-1,-1v1ZM745,71l1,1h-1h1l2,1l1,1h1h-1l-1,-1h-1l-1,-1h-1v-1h-1ZM743,70h1ZM757,80h-1ZM758,80h-1ZM755,79h2v1l-1,-1v1v-1v1v-1ZM754,78h1h-2ZM771,93l-1,-1ZM780,98l-1,-1h-1v-1l1,1h1ZM773,94l-1,-1h-1v-1l1,1ZM776,96h1v1h1v1v-1h-2ZM777,96h-1v-1h-1h1ZM758,84l1,1h1v1v-1v1h1l1,1h-1v-1h-2v-1h-1v-1h-1v-1ZM768,91v-1ZM765,88v1h2v1h1l-1,-1v1h-1v-1h-2v-1v1v-1l-1,-1l1,1ZM762,88h1l1,1h-1v-1h-1h1h-1h1ZM766,91v-1h-1l-1,-1h1ZM767,91v1ZM789,105v1h-1v-1h-1v-1h-1v1h1v1h1h-2v-1h-2v-1l-3,-3v-2l2,2h1l1,1h1l1,1h-1h1l1,1ZM816,120v1v-1v1l-1,-1ZM711,462v1v-1l1,-1h1v1ZM710,472l-5,1l-1,-1l1,-1h1v-3l-1,-1h-1h1l1,-1h3l1,-1v2h-1l1,1l-1,1h1v2ZM884,183l1,1v1h1v1h1v1l-1,-1v-1h-1l1,1h-1v-1l-1,-2h-1v-1ZM884,182h-1v-1ZM889,191h-1v-1ZM913,284l1,2v2l-2,-2v-2h1l-1,-1h1ZM917,278h1h-1v-2l1,1ZM919,284v1v-1l-1,-2v-2h1v2l1,1ZM916,285l1,1v1h1v2h-1v-1h-1v-2ZM912,288l-1,-1h1ZM911,290v1h-1h1ZM909,285l-2,-2v-1l1,1v1h1ZM976,454h-1v-1h1ZM15,620v2l1,1v-1h-1v-1ZM17,626l-1,-1v-1v1h1ZM706,446l-1,-1v-1h2v1ZM706,447v-1ZM705,450v-1h1v1ZM708,440v1l-2,-2h1v-2h1v1ZM692,412h-1v-1h1Z"/>
<path class="sl" d="M691,411h-1v-1h1ZM543,2h-1ZM557,3h1v1h1h-1v-1ZM554,3h4l1,1h1h-1l-1,-1h-3ZM336,30l2,-1h4l-5,1ZM342,29h-1v1h-2l-1,1l-1,-1h1l1,-1h2ZM397,11h1ZM406,9h-1Z"/>
<path class="sp" d="M405,9h1"/>
<path class="sl" d="M560,4l-1,-1h-1h1v1ZM559,3v1h1h-1l-1,-1ZM553,3h-1Z"/>
<path class="sp" d="M552,3v0"/>
<path class="sl" d="M552,3h1ZM545,2h1ZM543,2h-1Z"/>
<path class="sp" d="M542,2h1"/>
<path class="sl" d="M555,3h1h-2ZM543,2h1ZM549,2h-2h2l1,1h1h-1v-1ZM537,1h1h-2ZM542,2h-2ZM331,30l1,-1h2v-1h1l-2,1h-1ZM892,251h2v1h-1ZM850,227v1l-1,-1ZM817,215h-1v-1h1ZM835,217h-1v-1h1ZM833,218h-2l-1,-1l2,1ZM830,219h-1l1,-1ZM832,219h1l-1,1l-1,-1ZM844,222l1,-1h1v1h-3v-1ZM563,494v-2h1v1ZM540,502h-1l-1,-1v-1h2l-1,1ZM535,484l-1,1v-1ZM562,494h-1l1,-1ZM742,66l-1,-1ZM748,69h1h-2v-1ZM704,45h1h-1v-1ZM721,53h-1ZM724,55h-1v-1v1ZM655,25h2v1h1h-1v-1h-1ZM650,23h1ZM657,25l1,1h1h-1h1h-1l-1,-1h-1ZM656,25h1h-2ZM682,35h1v1h1h-1ZM686,37l-1,-1h-1h1v1ZM676,33h2l1,1h-1h1h-1l-1,-1h1h-1ZM663,27v1h1h-1l-1,-1ZM663,27v1v-1h-1ZM664,28h1h-1h1l1,1h2v1h1h-1v-1h-3v-1h-2ZM702,43v1v-1h-1ZM701,43h-1l-1,-1h1v1ZM711,48h-1v-1v1ZM669,30h1h-1h2v1h2l1,1l-1,-1h-2v-1h-1ZM679,34l-1,-1h-1h1l1,1h1l1,1l-1,-1h1v1h1h-1l-1,-1h-1l-2,-1h-1l-1,-1h-2v-1v1h3v1h2ZM660,37l-1,-1ZM630,18h-1ZM591,9h-1ZM575,6h-1ZM594,10h1l2,1l-1,-1h1v1h6v1h1h-1l-1,-1v1h1h-2v-1h-6v-1ZM581,8h1h-4v-1l1,1v-1h1l1,1h5v1h1h-6v-1h1h-2ZM585,9h2v1h2h-1h6l1,1h5v1h4l1,1h3l1,1h1h-4v-1h-3v-1h-1l1,1h1h-2l-1,-1h-3v-1v1l-1,-1h-1h1v1h1h-1l-1,-1h-1h1l1,1h-1v-1v1h4l1,1h-1v-1h-7v-1h-1h1v1h1h-1l-1,-1h-4l-1,-1h1h-1h1l1,1h1l-1,-1h-1h2l1,1h1l-2,-1h-5v-1h-1ZM598,12v1h1l-1,-1h-1ZM581,9h1ZM587,8h-1h2v1v-1ZM30,669h1h-1v-1ZM812,112v1h1v1v-1v1l-1,-1ZM797,100l1,1ZM800,103h1h-1v-1ZM651,457v1v-1h-1v-1h1ZM689,409h-1ZM637,455l-1,-1h1ZM647,458l-2,-1l-1,-1v-1v1l1,1h1ZM860,154h1ZM494,390v-2h2l-1,1ZM339,375v1h-1v-2ZM302,398l-1,-1h1ZM313,345v1v-1h-1l1,-1ZM302,311v-1l-2,-1v-3l1,1v1l1,1v1ZM287,318h-1l-1,-1h1v-1l1,-1v2ZM309,312l-1,2l-1,-1h-1v-1l1,-2h2v1ZM268,309v-1ZM455,404h-1l2,-1h-1ZM318,353h-1v-2l1,1ZM297,289v-1ZM311,336v1l-1,1ZM304,350l-2,-2h1ZM302,348l-1,-1v-2l1,-3l1,1l-1,2l-1,1h1v1ZM942,354v1v-2ZM3,544v-1ZM2,542v1ZM34,572h-1v-1h1ZM27,505l1,2h-1v-3ZM23,485v1ZM2,529v1ZM574,405h3v1h1l1,1h3l1,2v1h-3l-1,-1h-1l-1,1h-2v1h-1v-1h-4l-1,-1h-1v-2h-3v-1l1,-1h7ZM864,157v1h1h-1ZM876,171l2,1v1l2,2v1h1v1l6,6v1h1h-1v-1h-1v-1l-3,-3v-1h-1v-1h-1v-1l-2,-2h-1v-2h-1v-1h-1l-1,-1v-1h-1v-1v1h1v1h1ZM887,183v1ZM876,171v-1h-1h1ZM786,109h-1v-1h1Z"/>
<path class="sl" d="M781,101l3,3v1h2v1h1v-1h-1v-1h1v1h1v1h1v-1v1h1l2,2h1v1h1l1,1h1l1,1v1h1l1,1v1h1l2,2h-1v1h1v2h1v3l-1,-1h-1h1h-1v-1h-2v-1l-1,-1v1l-1,-1h1l-1,-1h-1v-3h-1l1,1h-1v1v-1h-1v-1h-1l-1,-1v-1h-2v-1v1l-1,-1h-1v-1h1h-2v-1h-1v-1h-1v-1h-1v1v-2l1,1v-1h1h-1l-1,-1v-1h-2v-1h-1v-1h-1v-1h-1h1h-1h1l-1,-1h1v1h1v1v-1h-1v-1h-1v-1v1h1ZM690,55v-1v1h1l1,1h2v1h1v-1v1h3l1,1h1l1,1h1h-1h1v1h1v1h1v1h1v2h1v3h1v1h-5v-1h-1l1,1h-1v-1h-2l-1,1h-2v-1h1l-1,-1h-1v-1h1h-1v1v-1h-1v-1h-1l1,1h-2v-1h-3v1h-1v-2l1,1v-1h1v-1h-2v-1h-3l-1,1h-2v-1l1,1v-1h-1h1v-1l-1,1v-1h-1h1h-2v-1h1h-1h3v1v-1h-2l-1,-1h1h-2v-1l1,1h3l1,1h1l1,1h1v1h2l-1,-1h1h-1v-1h-1l-1,-1h-1h2l1,1h1h-1l-1,-1h-1l1,-1h-1h2l1,1h1h-1l-1,-1h-1h2l-1,-1h1v-1h-2v-1h1v1h1ZM618,393v4h1v1l-1,1v1h1v1l-1,1v1h-1l2,2v2h-1l-1,-1h-5l-1,1h-1l-2,-1h-4l-1,1h-1v1l-2,-2h-1l-2,-1v-2h6l1,1h7l1,-1h2v-1h-1l-3,-3v-3l-2,-2h-3l-1,-1h1v-1h7l2,1h3ZM610,401v1l-4,-2h2l1,1ZM610,391h1h-3v-1h1ZM962,427h-1v-1h1ZM962,427v-1ZM962,425v1v-2ZM962,422v1v-2ZM961,423v1v-2ZM961,420v1h-1v-1ZM703,456v-2h1v1ZM787,90v1h1h-1h1h-1l-1,-1h-1v-1l1,1ZM789,92h1v1v-1h-2ZM788,92h1h-1v-1ZM787,92h1l-1,-1h-1h1ZM865,158l1,1v1l3,2v1l4,4v1v-1l-3,-3v-1h-1v-1h-1v-1h-1v-1h-1v-1h-1v-1h-1v-1v1ZM847,148v1v-1h-1v-1v1ZM708,434h-2v-1h-1v-2h1l1,1v1ZM702,419h-1v-2l2,2ZM701,421l-1,1v-1h-1v-3h1v1h1h-1ZM703,422v-1l1,1ZM672,178h-1ZM671,178h-1v-1h1ZM688,404h-1ZM689,406v-1ZM65,669v-1ZM73,677v1ZM66,670h-1v-1ZM75,679l1,1v1v-1l-1,-1h-1v-2l1,1ZM108,623h1l-1,1h-1v-1ZM108,625h-1ZM110,630v-1v1h1ZM101,615h-1v-1h1ZM102,620l-1,-1h1ZM112,688v1v-2h1ZM104,616v-1ZM114,693l-1,-1ZM113,691h-1v-1v1ZM137,698h-1v-1h-1h1v1ZM133,696l-1,-1ZM131,714h-1ZM100,673v-1ZM97,676l1,1ZM97,676h-1ZM89,668v1l-1,-1v-1v1ZM88,672l-1,-1v-1v1ZM553,591v1h-1v-3h3l-1,1ZM564,555h-1v-1h1ZM464,573l-1,-1v-2h2l1,1v1h-1v1ZM472,574h-1v-1h1v-1h2l-1,1ZM455,570h-2v-2h2v1ZM464,578h-1v-2l1,1ZM456,566h1v2l2,2v1l1,1l-1,2l-2,1h-2v-1h-1v-1h1l2,-2h1l-3,-3v-2h-2l1,-1h2ZM462,569h-2v-2l1,1h1ZM619,407v-2l-2,-2h1v-1l1,-1v-1h-1v-1l1,-1v-1h-1v-5h1v-1h1l1,1h1l1,-1h2v1h3l1,1h3l1,1v1l1,1h4v1h-3v1h6l2,1l2,2h1v1l-2,2v1h-1l-2,-2l-1,1l-2,-1l-1,1l-1,-1h-1l-1,1h-2v1h-1l-2,1l-2,-2l-2,1h-1v2l-1,2l-1,1v1l-1,-1h-1v-2h-1Z"/>
<path class="sl" d="M704,427l-1,1l-1,-2v-2l2,2ZM547,12h2v1h1v-1h9v1h1h-1l-2,1h6l-1,-1h3l1,1h2l1,1h2v1v-1h-2v-1h-2v-1l1,1h2v-1h-3v-1h5v1h2v1h2l1,1h-1h3l1,1h-1v1h5l1,1h2v1h1l1,1h3l1,1h2v1h1l-1,-1h4v1h-1h5l1,1h1h-2v1h1h-1l1,1h6l1,1h3l1,1h2v1h1h-2v-1v1h1v1h-1l-1,-1l1,1h1v-1h1l1,1h1h-1l-1,-1h1l1,1h3l1,1h1h-1v1h-2v-1h-1v1h2l1,1l1,-1h2v1h1l2,1h-1v1h-2l-1,-1h-4l2,1h1v1h-1h1h-1v1h1h-1h1v-1h1l-1,-1h5l1,1h3v1h2v1h-3l-4,-2h-1v2h1v-1l3,1h4v1h5v1h2v1h1h-1v-1l1,1h2l2,1h1l1,1h1v1h-1v-1h-1l-2,-1v1h1l2,1h-3l-2,-1h-1l-1,-1h-3l-1,-1h-4l1,1h1l1,-1l1,1h1l1,1l-1,1h-1h1v1h1v1h2l1,-1h1v2h1v-1l1,-1h7l-1,1h1h-1h1v1h-1h1v1h1v1h1v1h1v2h-1v1h-1v1h-1v1h-1h1h-5v-1v1h1l1,1h1v2h1v1h1v1l2,2v1h1v1h-2l1,1v1h1h-1v1l-1,-1v2h-1l-1,-1v-1h-1v-1h-1l-1,-1h-1v1h2v1h1v1l-1,-1h-1l1,1h2l-1,1h-1l-1,1h1l1,1v1h-2v1h2l1,1h2v2h-1h2l2,2v1h1h-1l2,2h-1l-1,1l-1,-1l1,1h2v1h-1l-1,1h-1h4v1h1v1h1v1h1v1h1v1l2,2l1,2v1h-3l1,1h3v1l2,1h-3l1,1h1h-3v-1h-1v-1v1h-3l-1,-1l1,-1l-1,-1v1l-1,1v-1h-3l-1,-1v-2h-1v1h-1v1h-1v1l-1,-1h-1v1h-2v-1h1h-2l-1,-1h-2l-2,-2h-1l-1,-1h-1l1,-1h-3v-1h-2l-1,-1h-1v-1h-1v-1l1,-1l-1,1v1v-1h-2l-1,-1h-1l-2,-1l-1,-1h-1v-1l-1,-1h1l1,-1h1h-2v1h-2l-1,-1v-1h1v-1h2l1,1v-1h-2v-1l-1,1v-1h-1l-1,-1h-1h1v1h2v1h-2l1,1v1h-2l-1,-1v-1h-1l-2,-2h-1v-1h1v-1l1,-1h-1v1h-1v1h-1l-1,-1l-1,1l-2,-2h-1l1,-1v-1h1v-2h1v-1h-1v1l-1,2v1h-3v-2h-1h1v-1h1h-4l-2,-2v-1h1v-1h5l2,1v-1h-2v-1l-1,1h-4l-1,1h-1v-2l-1,-1h3l1,1h1v-2h-1v1h-5v-2h1l2,1h1l1,-1v-1l-1,1l-1,-1v-1h1h-2v-1h-1v-2h-1v-1v1h-5l-1,-1h-5l-1,-1h-1v-1h5l2,1h1v-1h-1l-1,-1h-1h-4v-1h-1h1h-1l1,-1h1h-4v-1v1v-1h-1l-1,-1h-1l1,1h1v1l1,1h-5v-1l-1,-1v-1l-1,1v-1h-1h1h-1v-1h1v-1h-4v-2h-3v-1h-1v-1h-3v-1h-1h1l-1,-1h-3v-1h-3v-1h-1l-1,-1h-5l-2,-1h-8v1h-1v-1h-1v1h-1h1h-6l-1,-1h1l1,-1h-4v-1l-1,1h-1v-1h-1h4v-1h4v-1h-2v1h-2v-1l-1,1h-2v-1h-5l-1,-1v-1h2l1,-1h2v-1h4v-1l-1,-1v-1h-1v1h-3v-1h-1l1,-1h1v-1h1v-1h1v1h1v-1h-1v-1h-1h5l1,1h1l-1,-1h-4v-1h2v-1h2l1,1l2,1v-1h-2v-1l2,1h3l-2,-1h-1h5l3,1v-1h-2v-1h-4l3,-1h1h-4l-1,1l-1,-1h1v-1h1l1,1v-1h1h-1h1h-1h1v-1h3ZM595,53l1,1h2v1l-1,1h-3v-1h-4v-1h-1h1l-1,-1h-1l1,-1h3l1,1ZM601,54v1h-1l-1,-1v-1h1v1ZM588,49h-2v-1h1v1Z"/>
<path class="sl" d="M577,43v1h-2v-1h1ZM528,31h-1l-1,-1h2ZM546,16h-4l-1,-1h-1h4l1,1ZM643,42l1,1h1h-1h1v1h-2l-1,1v-1h-1l-1,-1h1v-1h1ZM566,13h-1ZM582,16l1,1h-2v-1h-1h1ZM596,21l-1,-1h-1h1ZM612,25l-5,-1h-1h3ZM617,27h3l1,1h-2l-1,-1ZM599,21h-1ZM657,67h-1l-1,-1h1ZM657,92v1l-1,-1h-1h1v-1v1ZM593,50h-1v-1ZM732,69h1h-2ZM735,70v1v-1h-1ZM729,68h1ZM729,67l1,1h1h-1l-2,-1ZM729,67h1h-1l-1,-1ZM778,84l1,1v1h2v1h1v1h1l1,1h1l1,1l-1,-1h-1l-1,-1h-1l-2,-2h-1v-1h-1l-1,-1h1v1h1h-1l-1,-1h-1v-1l1,1ZM786,91h1h-2v-1l-2,-1h-1v-1l-3,-1v-1h-1l-2,-1l-2,-2h1v1v-1h-1l-1,-1h-1l-1,-1l1,1h1v1h1h-1v-1l-1,-1h-2v-1h-1l-2,-2h-1v-1h-1h1v1h2l2,2h1l2,2h1l1,1h1v1l2,1l1,1h1v1h1l1,1h1v1h1l1,1h1ZM780,87h1l1,1h1l1,1h-1v-1l-2,-1ZM785,90h1l1,1l-1,-1h-1v-1ZM786,91v-1h-1l-1,-1h-1h1l2,1ZM784,88v1v-1h-1ZM779,85v1ZM786,90h-1ZM786,90v1v-1h-1ZM779,86v-1h-1h1ZM768,79v-1ZM781,86h-1l-1,-1h1Z"/>
<path class="sp" d="M780,85l1,1"/>
<path class="sl" d="M535,366h6v1l1,-1h3l1,1h4v1h1l2,1l3,3h5l6,3l1,1l2,1h1l-1,-1h1l2,2h1h-2l1,1h1v-1l2,2h1l1,1h3l1,1h3l1,1v1l-1,1v1l1,-1h1l2,1l1,-1l2,1l1,1h1l1,1h1l1,1l1,-1v3h-5l-1,1h-1l-1,-1v1h-14v1h-6l1,-2l3,-2v-1h1h-1v-1l-1,-1h-7l-3,-3l-1,-2v-2h-1l-1,-1l-3,1h-1l-5,-2h-2v-1h-1l-1,-1h-5l-1,-1v-1v1h-1v1l-1,-1h-4l-1,-1v-1h2l1,-1v-1h-9l-1,1h-1l-1,1v1h-1l-1,1h-4l-1,1v1h-2l-2,2v-2h-1l-1,1h-1l3,-2h2l-1,-2v-1h1l1,-2h1l6,-3h5l4,-2ZM569,375v1l-1,-1h-1v-1h1ZM566,373v-1h-2v-1h1l1,1ZM561,370l1,1l1,-1v1h1h-3ZM567,374h-1v-2l2,2ZM530,379l-1,1h-4v-1h2l-1,-2v-1h3v2ZM555,370l-1,-1h-1v-1h1l1,1ZM571,543l-1,1v-1ZM326,780h-1ZM554,829h-1ZM592,932l-1,2v1l-2,2v1l-1,1v2l-1,1h-4l-1,-1h-1l-1,1l-1,-1l-1,1h-1l-1,-1h-4l1,-1v1h1v-1h5l1,1v-1h-1v-1h-1v-1h1v-1h1v1h-1v1h1v1h3v-1v1h1v1l1,-1h1h-1l-3,-1v-2h3l1,-1h1h-1v-1h-2l-1,1h-1v-1h-1h1v-1h2l-1,-1h3l1,-1h4ZM594,942v1h-5v-1h-1h5ZM579,887h-4v-1h1v-1l1,-2v-2h1v-1l1,-1v-1l2,1h1v2h-1v1h1h-2v1h-1h1v1h1v1l-1,1h-1ZM567,917v1l-1,1v2h-2v-2h1h-2v2h-2l-1,-1h1l1,-1h-1v-1h2v-1h1v-1l1,-1h2v1ZM561,916v-1l1,-2v-1h1v1l1,1v1h-2ZM562,934v1h4l1,1h1h-3v-1h-3l-1,-1h-1h1ZM567,915h-2v-1h-1v-2l1,-1h1v1h1v2ZM569,937h2v1h1h-1v1h-2v-1h-2v1h-1v-1h-1v-1h-1l1,-1h1v1h2v-1h1ZM561,929v1h2l-2,2h-1v-3ZM582,942h6l-1,1h1v2l-1,-1h-2v-1h-2v1h-2v-1h-1l1,-1ZM575,939h2v1h-5v-1h-1l1,-1h3ZM577,893h-1v5h-2v-1h-1v-2h-1v-1h1v-1h2v-1h1l1,-1v1h1ZM581,895h-2v-1h1v-1l1,-1l1,1h1v1h-1ZM569,896h-1v-1h1ZM560,925h-1v-1h1ZM564,916h-1l-2,2h-1l1,-1l-1,-1h3ZM565,911h-1v-1h2ZM573,889h-1v-1h1ZM577,895v-1h1v1ZM563,927v1h-3v1h-1v-1h1v-1h2ZM562,923h-2v-1h1v-1v1h2ZM578,890h-1ZM565,930h-2v-1h1v1ZM572,900h-2v-1h1v-1h1v-1h1v3ZM590,945h-1ZM596,943v-1h1ZM576,942h2l1,1h-4v-1h-1h1ZM591,945h-1h1v-1v1h1ZM919,386h-1v-2h1v1ZM930,401v1h-1l-1,-1v-2l1,1ZM920,387h-1v-1h1ZM929,390h1v2h-1v-1ZM926,403h-1v-1h1ZM924,388h-1v1l-1,-1h1ZM928,386v1v-1l-1,-1h1ZM930,399v1v-2ZM288,125h1v1l-1,1l-2,1h1l1,-1h1v-1h2v-1v1h-1l-2,2v1l-1,1h-1l-2,1l-1,-1l1,-1v1h1l-1,-1v-1l1,-1v-1h1v-1h1ZM286,131v1l-1,1h-1v1h1h-1v3h-1v-5h1l-1,-1h2ZM292,148l4,2l1,1h1v7h2v4h1v1h-1v1h-1v1h-1l-1,-1h-1l-1,-1h-1v-1h-1v-1l2,-1l1,-1l-1,1h-3v-1h-1h1l1,-1h-2l1,-1h-1v-1v1l-1,-1v1v-2h1v-2h-2v-1h1h-1v-1h-1v-2h2v1v-1h1l-1,-1v1h-2v-2h3Z"/>
<path class="sl" d="M461,26v1h-7v-1h6ZM458,27l1,1h-2v1h-5v-1h2l2,-1h1ZM446,29h-1l-1,1h-1v1h-3v1h-2v-1h2v-1h-1v1h-2v1h-2v-1v1h-1v1h-3l1,-1h-3v-1l-1,1l1,-1h3l2,-1h3l1,-1h6l1,-1h1ZM455,34h1h-1v1v-1h2v1h-1h1v-1h3v1h-1l-2,2h-3v1l-1,-1h-6l-1,1h-3l-2,1h-2v-1h-1v-1h7l1,-1h1h-6v-1h1h-1l-1,1v-1v1h-5l-1,-1h1v-1h1l1,1h1l2,-1h-2h3v-1h-1v-1h1l2,1v-1h-1h3v1h2v1h1l-1,1h5l-1,-1h2v-1h-1v-1h3v-1h1l1,1h-1v1h-1ZM429,45h1v-1h3v-1h2v1h2v1h-1l-1,1h-1h2v-1v1h1l1,-1h2v-1h-1h3v1h1v1h-1v2l-1,1h2l1,-1v-2h1h-1h1v-1l1,-1v-1h4l1,1v6h-1v1h-1v1h1v1h1v1h1v-1l2,2h1v1h2l-1,1h-5v1h-1l-1,-1v2h-1h1l1,-1h2v2h-2v1h-4l-1,-1h-3l1,-1h-4v-1h-1l-1,1h-2l-1,1h-6l-1,1h-3l-1,-1v1h-6v-2h1v-1l-1,-1h-5l-1,-1h1v-1h-1v-1h1v-1h11l2,1h3v-1h-1l-2,-1h-8v-1h-3l-1,-1h1l1,-1h6v-1h-4l1,-1h-2v-1l2,-1h1v-1h2l2,-1h3l3,-1h4l-1,1h-1v1h-2ZM424,38h2l-1,1h1l1,-1h2l2,2v1h-1l-1,1h-5l-1,1h-3l-1,1h-2v1h-3l-1,1l-2,1h-2v1h-1v-1l-2,1h-3v-1h1v-1l-1,-1h-2v-1h2l1,-1h2v-1h2l1,-1h1l1,-1h2l1,-1h1v-1l1,-1h8l1,1ZM518,16h2v1v-1h6v1v-1l1,1h1v1h-2v1h-1l-2,1l3,-1h1l-2,2h-1v1h-1l-1,1h-1h2v1h-4l-1,-1v1h1v1h-1h1v1h-1h1l1,1h-2l1,1v1h-4v2h-5l-1,-1v1h-1h5l1,1h2v1l-1,1h-4v-1h-1v1h-1v-1h-1v1h-3l-1,-1v1h-4v-1h-1v1h-1l-1,-1v1h-1l-1,-1h1h-1v1h-2v-1l1,-1h4v-1h1h-2v-2h2l1,1h1v1h4v-1h1v-1h1h-1l-1,1h-3l-1,-1h1l1,-1h1h-2l1,-1l-2,2h-1v-1h1h-1l-1,1h-1v-2h3l1,-1l2,1h3v-1h-3l-1,-1h-1v-1h-2v-1h-1h6l1,1h1v-1h-2v-1h4l2,-1h1h-2v-1h1h-2v1l-2,1h-2v-1h1h-1l-1,1h-4v-1h4v-1l-2,1h-2l-1,1h-2v-1h-1h5l1,-1h-2l-1,1h-4v-1h1h-1h3v-1h-2l-1,1h-1l1,-1h-1h2l1,-1h2v1v-1h1l1,1v-1h-1h1v-1h1v1h5l1,1l-1,-1h-2l-1,-1h3v-1h3l1,1h1h-1v-1h-1h4l1,1v-1h-1h3ZM483,29v1l1,-1l2,1h1h-5ZM484,38v1h-6v-1h-1l1,-1h1l1,-1h3v1h1ZM467,41l2,1h5v1h-1v1h-2l-1,1h-1h3v1h1v1l-1,1h1h-1v1l-1,1h-4v-1v2h-3v-1l-2,-2h-1v-1h-2l-1,-1v-1h1l1,-1h1v2h3v-1h1v-1h-1h1h-1l-1,-1h2l-1,-1h3ZM505,78v-1h3v1h2l1,1h1l1,1h3v1h1v2h4l1,1h-1h2v1h-2v1h-2l-2,-1h-2l-2,-2h-3v1l-1,1h-1v1h-1v1h-2l-1,1h-1v-1l-1,-2h-3l-1,1h-2v-1l1,-1h1l1,-1h1v-6l1,-1v-1h3v2ZM477,33v1h-1h1l-2,2h1v1l-1,-1v1h-1h1v1h-1v-1v1h-5v-1h-1h1l1,-1h-5l1,-1h2v-1h1h-1v-1h2v1l1,1h1h-1v-1h1h-1h1l-1,-1h-1h6ZM473,25v1h1v-1h1v1h1h-1h1l1,1h-1v1h1v1h-3v-1h-3v-1h-1l-1,1h-1v-1h2v-1h1h-1h1h-2l1,-1h-1h3Z"/>
<path class="sl" d="M492,20l2,2h2v1h1h-1v-1h2v1h-1h2v1h-1v1l1,-1h1v1h1v-1v1h1v1h-3l-1,1h-1v-1v2h-1v-1v1h-2v-1h-1v1h1h-5v-1h1h-2l-1,-1h2l1,-1h1h-6v-1h1h-2v-1h1v-1h1v-1h1l1,1h1h-1v-1h-1h2l1,-1v1h1v-1h-1h1ZM484,32h2v1h-1v1v-1h6v1l-1,-1h-1v1h4l-1,1l-2,-1h-1l1,1h2l1,1h1h-1v1h1v-1h1l1,1l1,-1v1l1,-1l1,1h2v-1h12v1h2v1h-1h1l1,1h-2v1h-7v-1h-1h1v1h-12v-1h-2v1h-3v-1h-1v1l-1,-1h-1v-1h-1v-1h1v-2h-1v-1h-6v-1h1h-2v-1h1h-1h4ZM483,27h1l1,1h-1v1h-4v-1h1h-2v-1h1v-1h1l1,1ZM484,41h1v1h5v1h-2v1h-1v1h-1v1h-6l1,1l-1,1h-1v1h-3v-4l1,-1v-1l1,-1l1,1v-2h4ZM466,58h2v1h1v1h1v1h2v1h-3l-1,1h-3l-1,-1h-2v-1h-3v-1h3v-1h1v-1h1v1v-2h2v1h1ZM648,185h1l-1,1h1h-1v1h2v-1l1,-1h-1v-2h3l1,1v1h1l-1,1h-1l-2,2h-4v-1h-1v-1l-1,-1v-1l1,-1v-2l1,-1v-1l1,-1h1v1l1,1v4h-1v1ZM615,193v-1v1h-1v-1h-1v-2h-1l-1,-1h-1v-3l-1,-1v-2l-1,-1v-2l-1,-1h-1l-1,-1h-1l-1,1h-3v-1h-2v1l-1,1v1l-1,1v3l-1,1v2h1l-1,1v1h-1v2h-1v1v-1h-1v1h-2v2h-18l1,-1h1l2,-2h1v-1l1,-1v-1l2,-2h1l2,-2h1v-1h2l2,-1h1v-1h1l2,-1l2,-2v-1l1,-1l1,-2l4,-4h1v-1h1l2,-1l1,-1l5,-2l2,-1h7l4,2h1h-2v1h2v2h-2v2h-1l-1,1h-1l-2,-1h-2v1l-1,-1v1h-1h2l2,1l1,1h2v-1h2l2,1h-1v3l-1,1h2v1l1,1v1h1v1h1v1h1v1h4l-1,1h1l2,1h5v1h2l2,-2l2,2l1,-1l2,2h1l1,1h-1l-1,1h-1l-1,1h-1l-1,1h-1l-2,1h-1v1h-3l1,1h-3v-1v1h-2v1l1,1h-1v1h-1v1l-2,2h-1v2l-1,-1l-1,1v-1l-1,-1h-2l-1,-2v-2l1,-2l-1,1v-1h2l1,-1h-1l3,-3h1l2,-1v1h1l1,1l-1,-1l1,-1h2l1,-1h-7v1h-1v-1l2,-2v-1h-1l-1,2h-1l-2,1l-2,2h-1l-1,-1v1h-1v1h-4ZM659,147v1l-1,1h-1h1v1v-1h1v6h-1h1v1l-1,1v1h1v2l1,-1v-2l1,-1v1h3v1l-2,2h1v-1h1v1l-1,1h1v-1l1,1l1,-1h1v1v-1h1v3l1,-1h-1l1,-1h1v-1h1v-1v1l1,1v-1h4v1l1,1h-1v1l-1,1h1v1h2v1h-1v1v-1h2v-1h2v-1v3h-1v2h-1h1v2h2v-2l1,-1h1v4h1v-2h1v1h1v4h1v3h-1v-1h-1v1h-1l-1,-2v-1h-1v1l-1,1h-1v-5l-1,-1h-1v-1h-1v3h-2v4h-4v-1h1l1,-1v-2h1l1,-1h-3v1h-2l-1,-2h-1l-2,2h-11l-1,1h-2l-1,-1v-2l2,-2v-1l1,-1l-1,1v-1h-1l-1,1h-1v-1l1,-1v1h1v-3h2l-1,-1h1h-2v-2h2l-1,-1h-1v-6h1v-1h-1h1v-4h1l1,-1v-1h1v1h1v-1ZM499,53h1l1,-1h3l-1,1h1v-3h-2l-1,-1h1v-1h1l1,1h1l-1,-1h-2v-2h3l-2,-1h-1l1,-1h3v-1h6v1h1l1,1v1h1v1h-1l-1,1l1,-1h1v1h-1l1,1h-1h1l1,-1h1h-1v-1h1v1h1v-1l1,1v1h1v-1h1l-1,-1h1v-1h4l1,1h3l1,1l-1,1h-1v1l2,-2h2v1h-1v1h-1h1v1h1h-1v1l1,-1v-1h1l1,-1v1l-1,1h1v-1h1v1h1v-1h5v1h1l-1,1h-1l-1,1h1v-1h4v1h-1v1h-1v1v-1h1v2h1v-2l1,-1h6v1l-1,1h-2v1l1,-1h2v1h1v-1h1h-1h2l1,1h1v1h-4l-1,1h8v1h-5l-1,1l1,-1h1l1,1h1v1h-1l-1,-1v1h-1l-1,-1h-1v1h5v1h4v1h1v1v-1l1,1v-1h-1h2v1l1,-1v1h2v1h1h-1v-1l1,-1v1h2v1h3l-1,1h1h-1v1h2v-1h1l1,1v1h-1h4l1,-1l1,1h1l1,1h1h-1l1,1h-3v1h2v1h-1h1v1h-1l1,1h-2l-1,-1h-1h1l-1,1h1l1,2h1v1h-1v-1h-3v-1v1h-1l-1,-1h-1l-1,-1h-1v-1l1,-1v-1h1h-1v1h-3v-1v1h-2v-1h-2l-1,-1h-1h1h-1v1h1h-3l1,1h2v1h-2l-1,-1h-1h1v1l1,1h1v1l1,-1l1,1h1v1h1v1h1l1,1v-1l1,1h4l1,1h-1h2v1h-1l1,1h1v1l1,-1h1v1h-1h2v2h1v1l-2,-1v-1h-1l1,1v1l1,1h1v1h1h-2l1,1h-2v-1h-2l-2,-1h1v1h-1l-2,-2v1h1h-1l-1,-1h-1l-1,-1h-1l-1,-1v1h1v1l-4,-2h-1v1h1v1h2l1,1h2v1h2v1h2l1,1h1l1,1h2v1h-1h1v1h-3l-2,-1h-6v-1h-2l-2,-2h-5l-1,-1h-1h1h-3l-2,-2h1v-1h-3v-1h1h-1v1h-1v-1h-1l-2,-2h-1v-1h-2v1h-1v-1h-2v-1h-1v1h1v1h-2l-1,-1l-1,1h-1l-1,1h-4l-1,-1h-1l-1,-1v-2h2v-2h2l1,1h3l1,1v1h1v-1h-1l-1,-1h2l1,-1h1v1v-1h3v-1h-1v-1h-1l-1,-1h-1l2,-1l1,-1v-1h1v-1h1v-1h1h-1v-1l-2,-2h-1v-1l-2,-1h-2v-1h-1h1h-3v-1h-1l1,-1h-1v1h-2l-1,1h-2v-1l1,-1l1,1v-1h1l-1,-1h-2v-1h-1h1h-2v-1h-2l-1,-1h-2v-1h-2v-1l-1,1h1v1h1v1h-6l-1,-1h-1v1h2v1l-2,-1h-2v1l-1,-1h-7l-2,-1l-1,1l-1,-1h-1v-1h1h-3l1,1h-3l-1,-1h-2l-1,-1v-1h6l-1,-1h-5l-1,-1v-2l1,-1h-1l1,-1v-1h1v-1h1v-1h1l1,-1h2l2,-1h4v1h-1l-1,1h-1l-1,2v1h1v2l2,2h1v1h-2l-1,1Z"/>
<path class="sl" d="M635,165h-5l-1,-1l-4,-1l-1,-1h-1l-3,-1h-1l1,-1h3l3,1h2l7,3h1v1ZM631,183h1v-1h2v1h4v-1h3v1l-1,1h-1v1h1v1h-2l-1,-1v-1h-1v1h-1l-2,-1h-1v-1h-2v-1h-2v-2l1,-1v2l2,1ZM517,89v1l-1,1h-1l-2,1h-1l-2,1v-1l-1,-1h1l1,-2h4l1,-1h1ZM527,91l1,1v2l-1,1h-2v-1l-1,-1l2,-2ZM534,63l2,1v1l1,1v1h-1v1h-6v-2h-1h1v-1l1,-1h2v-1ZM516,43h6l1,1h1v1h2v1h-10v-1h-1v-1h-1l-1,-1h2ZM529,145h-3l-3,-1h-1v-1h1l3,-1l2,2h1ZM536,125v-2l1,1ZM535,124v2l-1,1v-2l-1,1v1h-1l1,-2h-1v1l-1,1l-1,-1l2,-2h1v-1v1l-1,1h1v-3l1,1h1ZM530,125v-1h2v-1v1ZM493,31h-2v-1h2ZM465,31h-1v-2h1v1h1ZM481,23v1h-1v-1h-1h1ZM452,45v-1h-1v-1h-1v-1h6l-2,2h-1ZM467,34v1h-4l1,-1h-1h2l1,-1l1,1h-1ZM465,33v-1v1h1h-3v-1h2ZM434,34h-2l1,-1h4v-1h1v1h-2ZM451,28h-1v-1h1v1h1ZM296,124v-1h1ZM283,139v-1l1,-1v1ZM296,127h-1v1h-1v-1v1v-1l1,-1h1ZM293,132v-3l1,1v2ZM298,122h2l1,-1v1h-2l-1,1ZM297,134l-1,2h-1v1h-1v1v-1l2,-2h-2l1,-1v-1h1l1,-1h1v1ZM291,157v1v-1h-1ZM301,157l-2,-2h1v1ZM290,155h-1v-1h1v-1l1,1ZM298,153l1,-2h1v1h-1ZM294,136l-1,1v-2h1v-1v1ZM293,143h-1l1,-1h1h-1ZM295,137h1v-2h1l-1,1v1ZM294,133v-1h1v1ZM296,133h-1v-1h1v-1v1ZM301,162h-1l1,-1ZM660,199h-1h1l1,-1ZM650,188v1l-1,-1ZM640,177h1h-2v-1l2,-2h1l-1,1h-1v1ZM624,174v1v-1h-1ZM622,198v1ZM619,196h-1v-1ZM577,192h-2l2,-2v1ZM576,191h-1h1l1,-1ZM590,182h-1l1,-1h1ZM662,152h-1ZM670,159v1h-1v-1ZM658,145v-1l1,1ZM672,158h1l-1,1h-1v-1ZM679,173v-1ZM584,89h1v-1l1,1h-1ZM577,101h-1v-2h1l1,1v1ZM563,90h-1v-1h-1l-1,-1h-1h2l1,1h1ZM587,95v-1h-2l-1,-1h3l1,1ZM585,92h1v1l-1,-1h-1ZM576,108h-1v-1h1ZM592,100h-1l-1,-1h1ZM619,122h-1ZM611,114h1v1h-1l-1,-1ZM555,58l-1,-1h1ZM578,67h-1ZM515,35v1h-1v-1ZM530,121v1v-1h1ZM531,117h-1v1v-1ZM532,122v-1ZM533,142h-1ZM537,150h-2l2,-1ZM302,161h-1v-1v1ZM299,153l1,-1v1ZM541,66h-2l-1,-1h-1v-1h2l1,1h2v1ZM533,86l1,1h-1v1l-1,-1h-1l-1,-1h2ZM482,36v-1h1v1ZM526,106v-1h1ZM527,105v-1h1v1ZM473,45h-1h1v-1l1,1ZM474,40h-1l1,-1l1,1ZM471,42h-2l1,-1h3l-1,1ZM488,59v1h-1v-1ZM487,60h-1v-1h1ZM549,90h-1l-1,-1h-1h3ZM536,63h-2v-1h2ZM533,100h-1v-1h2ZM523,64h1ZM537,86h-1l-2,-1h3ZM521,58h-2v1h-1v-1h-1h3ZM525,58l-1,1h-1v-1h1ZM533,83h-1Z"/>
<path class="sl" d="M511,73h1ZM522,61v1v-1h-1h1v-1h1v-1h2v1h-1v1h-1ZM529,60h-2v-1h2ZM498,56h1v1h-2v-1ZM509,75h2v1h-1v-1h-1v1v-1h-2v-1h2ZM499,66h-1v-2h1v1h1v1ZM506,76h-1l-1,-1v-1h1v1h1ZM470,33h-1h1v-1h2l-1,1ZM470,28h1ZM472,29h-1h2ZM493,33v1v-1l-1,1v-1h-1h1v-1h1ZM479,36l-1,1v-1l-1,1v-1h1ZM479,40h-1v-1h1ZM430,33h-1h2v-1v1ZM447,31h-1h2ZM460,37h-1l1,-1h2v1h-1ZM456,61h-1l1,-1l1,1ZM457,60v1ZM459,54h1ZM472,58v1h-1v-1v1h-1l1,-1ZM455,59h-1v-1h1h-1h1ZM451,62l-1,-1h2ZM442,62h-1l1,-1v1h1ZM429,66h-1l1,-1ZM427,63h1v1h-1ZM427,68h1ZM427,63h-1ZM361,49v1v-1v1ZM798,555h2v-1h6v1h1v1l-1,1v3l-1,1v1h-1v3h-1v1h-1l-1,-1v2h-1v-1h-1v1l-1,1h-1v1l-1,-1h-1l-2,1h-1l-1,-1v-1l-1,-1v-2h1l1,-1h-2v-4h1v-3l1,-1h2ZM832,575v1v-3h1v1ZM859,656l1,-1v-1v1ZM858,659l-1,1v-2h1ZM830,561v1h-1v-1ZM797,551h1l-1,2h-1v1l-1,-1h-2v-1h1l1,-1h1ZM793,537h-1v-2h1v1ZM791,555l-2,2l-1,-1l2,-2h1ZM800,554h-3l2,-2h1v1ZM793,552v2l-2,-1v-1h1v-1l1,-1v-1v2ZM795,550h-1v-2h1v1ZM783,567h-1l1,-2l1,-1v-2l1,-2l1,-1h1v4h-1l-1,2l-1,1ZM486,410l-1,1l1,-1v-2h1v1ZM487,415l-1,1v-1l1,-1ZM719,445v1l-1,-1v-2l2,2ZM568,356l-1,1h1v-1l1,1v3h-2v-2l-2,-2h2ZM571,342h-1v-1h-1h1v-4l-1,-1l-1,-2h-2h2v1h1v1h2v1l1,2h-1ZM607,381h-1v2h-4v-1h-1h1l1,-1h3v-1h1ZM567,352v2l-1,1h-1v1v-1h-1v-1h-2v-1h1v-1l1,-1v-1l-1,-2h1l1,1v1h1v2ZM560,336h3l1,-1l1,1h-3l-2,1h-1l-1,1v-1l-2,-1h1l1,1h1v-2ZM570,350h-2l1,-1h2ZM597,368h1l-1,1l-1,-1h-1v-1h1v1ZM593,357v1v-2ZM597,372l-1,1v-1h1l1,-1v-1h1v-1h-1v-1h1v2l-1,1ZM575,346h2l2,2h1v2l-1,2h1h-1l-1,-1h1v-2l-1,-1v-1h-1l-1,-1h-2l1,-1ZM584,362h-1l-1,-1h-1h1l1,1ZM591,367l-1,-2h-2v-1h1l-1,-1v-1l-1,-1l2,2v2h1l1,1ZM587,356h-1l-1,1v-1h1l-2,-2v-1l-1,-1h1l1,2ZM606,370v1h2v1l-1,-1h-2v-1ZM607,378l-1,1v-1ZM587,942l1,-1v-2l1,-1v-1l2,-2v-1l1,-2l1,1v1h-2v1h2v1l1,1h1v1h1l1,1h1l1,1h5l-1,1h-4v1h-3l-1,-1h-8ZM607,940h1l-1,1h-1v-1ZM660,860h-1v-1h1ZM698,412v1h-1v-1l1,-1v1h1ZM698,408h-1v-1h1ZM660,956h1v1h-2v-1v1v-1ZM486,986h1ZM396,989h-1h2l1,1h2l-2,-1h-1h1l1,1h2l-1,-1l1,1h6l1,1h7l2,1h7l3,1l1,-1l2,1h5l-1,-1h1l2,1h1h-1h2v1h4l-1,-1h2l1,1h1h-1h1l3,1h17l1,1h5l-1,-1h-6v-1h-5v-1h2v1h6l-1,-1h-9l-1,-1h2v1h20l1,1h1v-1h4l3,1h1l1,-1h4l1,1h20l-1,-1h3l1,1h12l3,-1h11l2,-1h3l1,-1h1v-2h1l1,-1l-1,-1h1v-1h5l1,-1h-1h1l1,-1h1l1,-1h-1h1l1,-1h1h-3l1,-1h2v-1l1,1h-1h2v-1h2v-1l1,1l1,-1h1v-1h4v-1h3l2,-2h3l2,-1h4v-1h3l1,-1h1l2,-1h3l2,-1h2l2,-1h4v1h-1l1,-1h-2v1h-3l-2,1h-1l-1,1h-1h1h-1v1h-1v-1h-1v1h-4l-1,1h-2l-1,1h-3l-1,1h1h-1l-1,1h-1v1h1v-1h2v1h-1h1h-6v1h-1v-1h-2v1h-2v1h-4v1h-1h1h-3v1h-2v1h2h-1v1h-1h4v-1h1l-1,1h-1h1l-1,1h1v2h-1h1h-1v1h-1h1v1h-2l-1,1h-1h1h-1l-1,1h-1h2l-1,1h-4l-1,1h-1l-1,1h-7l-1,1h1h-5l-1,1h-5l-6,1h-15v1h1h-10l3,1h-2l1,1h1l2,-1h1v1h4l1,-1h3l-1,1h-44l-1,-1h-15l-1,-1h-10l-1,-1h-9l-1,-1h-7l-1,-1h-5l-1,-1h-6l-1,-1h-5l-1,-1h-4l-1,-1h-4l-1,-1h-4l-1,-1h-1ZM580,994l2,-1h4l1,-1h1h-1l-1,1h-5l-1,1h-1ZM591,992h1Z"/>
<path class="sp" d="M527,999h-4l-1,1h-44l-1,-1h-15l-1,-1h-10l-1,-1h-9l-1,-1h-7l-1,-1h-5l-1,-1h-6l-1,-1h-5l-1,-1h-4l-1,-1h-4l-1,-1h-4l-1,-1h-2M590,992h-3l-1,1h-5l-1,1h-1M592,992h-1"/>
<path class="sl" d="M542,998h7l2,-1h6l1,-1h5l3,-1h1l-2,1h-1h1h-5l-1,1h-9l-1,1h-4Z"/>
<path class="sp" d="M562,996h-2l-1,1h-9l-1,1h-4"/>
<path class="sl" d="M537,999h-1l1,-1h1ZM550,986h-1h1l1,1h-1v1h1v1h-1l-1,1h-1l-1,1h-1l-2,1h-3l1,-1h-2v1h-2v-1h1h-5l-1,1h-1v-1h-1h2v-1h1v1h1v-1h6l1,-1h3v1l1,-1h-2l1,-1h2h-4v-1h1v-1h-1h2l1,-1h4ZM468,991v1h1v-1h1v1h1v-1h2v1h-1h1h-10l-4,-1h8ZM421,991h2l-1,1h-2l-1,-1h-1h1ZM407,989h2v1h4l2,1h1h-3l-1,-1h-5v-1h-1ZM525,999h-1h3l1,-1h2l-1,1h-3ZM604,971h2l-1,1h-2v-1h-1h2l1,-1v1ZM615,968h-1l-1,1h-1v-1h2ZM611,965h1h-2v1l-1,-1l-1,1h-1l1,-1h2ZM584,973v1h1h-3l-1,1v-1h-1h2l1,-1h2ZM588,973h-1h1v-1h1v1ZM560,982h-2l-1,1h-1v-1h1l1,-1h1l1,-1h2l-1,1h1h-2v1h-1ZM536,989l-2,1h-5l3,-1h3ZM534,987l1,1h-2v-1ZM530,993h-1v1l-3,-1h-1h3ZM488,993l-1,1v-1h-1h1ZM530,999h-1h1h-1h2ZM530,999h-1h2ZM624,962v-1h1ZM613,969h-1ZM604,972h1ZM614,968h-1ZM607,970h-1ZM571,986v-1h1v1ZM600,967h2l-2,1v-1l-1,1h-1l1,-1ZM543,987h-1ZM477,993v-1h2v1ZM455,993h-1l-1,-1ZM425,992h-1l-1,-1h2ZM413,991h-2l-1,-1v1h2ZM628,962v-1h1h-1ZM607,966h-1ZM573,986h-1ZM578,984h-1l1,-1ZM571,988v-1h1ZM570,988h1ZM604,967v-1h1v1ZM599,969h-1v-1ZM595,971h-1h2ZM590,972h1ZM583,975h-1v-1h1ZM591,969h1ZM571,978h-1v-1h1ZM568,979h-1v-1h1ZM564,980h-1ZM561,982v1l-1,-1h2ZM542,988h1ZM531,993h-1h2ZM481,993h-1ZM431,992h-1ZM403,990h-1ZM406,990h-1ZM687,404h1Z"/>
<path class="sh" d="M526,436l-2,-1l-1,1h-1v1h-2l-1,1l-1,-1v1h-2l-1,1h-1l-2,-2l-1,1h-1v1l-1,1v2h-2v1l-1,1h-1l-1,1v1l-2,-1v-1h-1l-2,2h-3v4l-1,1h-1v2h-3v-1h-1v-1h-1v-1h-2v-3l1,-1h-1v-1h-3v-1l-1,1h-1l-1,1v-2h-2l-3,-3h-2v-1l1,-1v-4h1l3,-3l2,-1l1,-1h1v-1l1,1l2,-2h3l1,1l1,-1l3,1h5l4,-2h1l2,1h3l1,-1h1l2,1l1,1h1v-1h2l4,4l-2,-1h-1v1h2l1,1v1l1,-1l1,1v-1l-1,-1l2,1l1,2ZM499,424h-2l1,-1h2ZM503,423h-1Z"/>
<path class="sw" d="M748,66l-1,-1Z"/>
<path class="sr" d="M747,65l1,1"/>
<path class="sw" d="M520,215v2h4v1v-1h1v-1h2l1,-1v1v-1h1v-1l1,-1h7v-1h2v-1h8v-1h-1v-1h1v3h-1v1h-2v1h-1l-1,1l-2,1h-1v1h-1l-5,2l-2,1l-1,1h-4l-1,1h-1v-1h-2v-1v1h-1v-1h-2l-1,-1l2,-2v-1ZM546,210h1ZM523,219h1ZM444,158h1h-2v1l-1,1l-1,-1v-3l2,-2h1l-1,-1l-1,1v1v-1l1,-2v-1l-1,1h-1v1h-1l1,-1v-3h-1v1h-1v-1h1h-1l-1,1h-1v-2l-1,-1v-1h-1l-1,-1v-1l1,-1h1h-3v-2l2,-2v-1h3l2,1v-1h-1v-1l2,-2v1h-1l-1,1l1,1v-1h1h-1v1l1,1h-1l1,1v1l1,1v3l1,1v4h1v3h1v4h-1ZM438,147v-1ZM443,155h1h-2v1h1ZM412,87h-1v1h-1v-1h-4l2,1h-3l-1,1h-3v1h-1l-1,1h-1l-1,1h-2l-1,1h-5v2h-10l-1,-1h-3v-1h3v-1l1,1h2v-1h2v-1h4l1,-1l-1,-1h1l-1,-1h1v-1h-2v-1h1l1,1h1v1h2l1,1v1h5l1,-1h2l1,-1h1v-1h1l1,-1h6l1,1ZM399,90h1h-2l-1,1h-3v1h2l1,-1h1ZM565,199v1l-3,1v1h1v1h1h-1v1v-1h-1v1h1v2h-2v1h-2v1h-5l-1,-1h-5l-2,1h-1l-1,1h-1l-1,-1h-1l1,-1v-1h1v-1h1l1,-1h3v-1v1l1,-1h4l1,-1v1h3v1l1,-1h1h-1v-1h1h-2v-1l-1,1h-1l1,-1h1v1h1v-1v1h-1h1l1,-1h3l1,-1h1v-1ZM560,202v-1h-1v1ZM562,203l1,-1h-1ZM562,201h-1v1ZM563,200v1ZM395,68h1v1h-2v1h-1h1h-2v1h1h-2v1h-1v-1v1v-1h-5v1h1v1h-3l-2,1h-2l-1,1v-1h2v-1h2l1,-1h1v-1h-2l-1,1h-2v1h-2v1h-1l-1,-1h-2v-1h3v-1h2v-1h2l-1,-1h4v-1h-5v1v-1h-5v1v-1l1,-1h7l1,-1h5l2,-1h3l1,1h1h-2l-1,1h-3v1h-1h8v-1h1v1ZM520,215h2v-2l1,-1v2h2v1h-4ZM753,69h1v1h2v1h1l1,1h-1v-1v1h2v1v-1v1l-1,-1h-1v-1h-2v-1v1h1l-1,-1h-1v-1v1h1h-1l-1,-1h-1v-1h-1h1h-1h1ZM544,335h-1v1h-1l-2,-2l2,-2h1v1l1,1ZM512,468v1h1l-1,1h-2l-2,-1h-1l-1,-1h-1v-1h-1v-2h-1v-4h3v1h1l1,1v1l2,1l1,1v1h1ZM639,699h-1l1,-1l-1,-1h-1l-1,-1v1h-1v-1h-1h1v-1h1v-1l-1,-1h1v-1h3v1h1v1h1v1h1v2h2v1h-1l1,1h2v1h-2l-1,1v1h-1l-1,-1h1v-2h1l-1,-1l-1,1h-1ZM432,142v1h-1v-1h-4v-1h-1v-1h-1h1v-1h2v-2h-1h2v-2h1v1h1h-1l-1,1h1h-1v1h1l1,-1h1l-1,1h-1l-1,1h-1h1v2h3ZM336,220h-1v1h-1v1h-1v-2l-1,1v-4h-1v-1h1v-1h1v1h1v2h1v-1h1h-1v2h1ZM335,221v-1h-1h1ZM509,191h-1l-1,1v1h1v1h-3v3l-1,1l1,-1v-1h-1v1v-2h-1v1l-1,1v-1v1h-1v1h-1v3l-2,2h1v2l-1,1l1,1v2h1v6h-1v1l-1,1v1h-1v1h-1l-1,1h-3l-1,-1v-2h-1v-8h-1l1,-1v-2l1,-1v-2l1,-1v-2l1,-1v-2h-1l-2,2h-1v-1l2,-2h1v-1l2,-2v-1h1v-2h1l-1,1h2v-1h1v1h-1v1h1v-1h1v-1h4l1,-1h4l1,1ZM505,191h-1v1h1ZM501,195v1h1v-1ZM496,193v1ZM495,194v1h-1v1h-1v2l1,-1v-1h1v-1Z"/>
<path class="sw" d="M511,186h-4v-2h1h-2l-1,1h-6l-1,1h-5v-1h-1v-1h-1v-1h-4v1v-2h-1h1h-1v-1h-1v1h-1l-1,1h-2v1h-3l-1,1h-5v-1h1v-1h-3v1h-5l5,-3l2,-2h1l1,-1l3,-1h2l1,-1h1v-1h1l1,-1v-1h1l1,-1v1l-1,1h1v-1h1v-1h1v-2h1v2h-1l-1,1h1v-1h2v-2l-1,-1h2v1h3l1,1h5l1,1v1l1,1v1l1,1h6v2h-1v1h1l1,1h1v1h-1v2h2v1h-1v1l1,-1v1h-1v1ZM474,184v-1l-1,1ZM490,170l-1,1h2v-1ZM484,176h2v-1h1h-2l-2,1v1h1ZM491,180v-1h-2l-1,1h-1l-1,1v1h1v-1v1h1v-1l2,-1h-1h1ZM492,171v-1h-1v1ZM504,178v-1h-2v1h1ZM511,186h2v1h3v1h10l1,1h1v-1v2l1,-1h2v1h3v1l1,1h1v1l1,1v-1h1v3h2v1l1,1h-1l-1,-1h-1v1h1v1l-1,1l-1,-1h-2v-1h-2v1v-2h-1v1v-1l1,-1h-1v1v-1h-1v-1h-1v-1h-2v1h1v1h1v1h1v2h-1v1h-1v2h-1v1l1,3v1l-2,2h-1v1h-2v-2l-1,-2v-2h-1v-1h-3v1h-1v1h-1v1h-2v-3h2v-2h1v-4h-1v-1h1v-1h-1v-1h-1l-1,-1h-2v-1h-2l-1,-1h-1v-1l1,-1h2l2,1v-1h-1v-1h-1v-2ZM518,189h-1v1h1ZM516,189h-1h1h-2v1h3v-1ZM515,188l-1,-1h-1v1l1,1v-1ZM513,187h-1l1,1ZM513,187v-1h-1v1ZM511,191h-1ZM520,190v1h4v1h2l1,-1v1h-1h2v-2h-1v1v-1h-1v-1l-1,1h-1v-1l-1,1h-1h1v1h-1v-1h-1v-1h-1v1h-1ZM528,193h-1ZM538,197h-1ZM412,346v1l-1,2v2l-1,3l-1,1v1v-3l1,-1v-6h1v1h1ZM425,111v1v-1v1h-1v1l-1,-1v1h-1v2h-1h1v-1h-1v-1h-1h1v-1h1h-1l1,-1h2v-1h1ZM400,106h-3l-1,1h-2v1h-2v1h-1l1,-1h-1v1h-1v-1h1h-1v-1h2l2,-1h1v-1h2l1,-1h1l1,-1h1l1,1h1h-1v1h1l1,-1h2l1,1h4l3,1h-3l-2,-1h-3v1h-5ZM572,154v1h-1v1h-1v1v-1h1v-2l-2,2v2h-1v1h1h-1l1,1l-1,1v1h-1v-1h1l1,-1h-1v-1h-1v-2l1,-1h-1l2,-1l2,-2h1h-1h1l-1,1h2ZM804,105l2,2h-1v-1h-1l-2,-2h-1v-1h-1l1,1h1l1,1ZM804,106v-1v1h1v1h1l-1,-1ZM456,167l-1,1v-2h-3v1h2v1h1h-1l-2,2h-1l-1,-1h-1l-1,1v-1h1v-1h1l1,-1h-1v-1h2v-1h1h-2v1h-1v-1h1l1,-1h1v-2l1,1v1h1l-1,1h1h-1l1,1ZM452,168h-1h1v1h1v-2ZM490,163h-1v1h1h-1v2h-1v1l-1,-1v1l-1,-1v-1h1h-1v1h-2v-1l1,1v-2l-1,1v-1h1v-2l1,-1h2v1h1l-1,-1h1v2ZM487,163h-1v1h1ZM488,165h-1ZM429,114h1v1h-1l-1,1h-1l-1,1h1v1h-1v1h-1v1h-1v1h-2l-1,1h-2v1v-2h1v-1h1l-1,1h2v-1h1v-1h1h-1v-2h-1h1v-1h1v-1h1l1,-1h1v-1h1v1v-1h1v1h-1ZM566,208h1h-3ZM267,84l-1,1h-2v1h-3v-1h1v-1h3ZM251,92l-1,1h-1v1v-1h1v-2h1ZM285,231h-1v-2h1ZM487,203v1l-1,1v-3h1ZM551,71v-2h2v1h4v1h1v1h-4l-1,1h-1h1v-1h-1v-1ZM439,86h2v-1h3v1h-2v1h1v1h-1v1h-2l1,-1h-1v1h-1h1l-1,-1h-1v-2Z"/>
<path class="sw" d="M468,82v1h1h-6l-1,-1h5ZM580,201v2l1,1h-1v-2l-1,-1l1,-1v-1h-1v-3h1v-1v5ZM295,276v1h-1l-1,-1v-2l1,1ZM384,83h-1v1l-1,-1h-1v-1h-1l2,-1h1v1ZM586,875l1,-1h2v1h-2ZM581,172v-1h-1l-1,-1h3l1,1l-1,1ZM559,212v1l-1,1v-1ZM560,214v-1l-1,-1v-1l1,1v1ZM562,213h-1l-1,-2v-1l1,1v1ZM992,410v3l1,1l-1,-1v-4l-1,-1l1,1ZM409,114v2h-4l-1,1v-2h4v-1ZM447,88h1l1,-1v1l-1,1h-1ZM431,101l1,-1h-1l1,-1h1v4h-1v-1l-1,-1h-1ZM469,307l-1,1h-1v-1h1v-1v1ZM559,125l-1,1v-1h-3v-1l1,-1h1v1h2ZM535,187h6v1h-3l-1,-1l-1,1ZM547,125v-3l1,1v1h2v1h-1ZM675,805l-1,1h-2l-1,1v-1h-1v-1h1l1,-1h3ZM552,139h1v-1h5l-1,1h-1h3v1h-1v-1h-3v1h-1l-1,1l-1,-1h1v-1ZM552,139l-1,1h-7v-1h2l1,-1h2l-1,-1h1v-1h1l1,1v-1l1,1h-1v1h-1v1h-1h1ZM249,93h-1l-1,1h-1l1,-1h1ZM621,404h-3v-1h2ZM309,53h-1ZM381,98l-1,1h-3v-1h3ZM550,142l-1,1v1v-3h1v-1v1ZM579,922h-5l-1,1h1v1h-1v-1h-1v-1h1h-1v-1h1v1h3l2,-1ZM416,102h-1v1h-1v-2h1v1v-1h1h-1v1ZM517,19l3,-1h1h-1ZM483,145v-1h3l-1,1h-1ZM844,138v1h1l1,1h-1l-1,-1ZM784,102h1v1h1h-1ZM754,70h2v1h1l1,1h1v1h1l1,1h1h-1l-2,-1l-2,-2h-1l-1,-1h-1v-1ZM355,197h-1v-1h-1h1v-1h1v1ZM347,41h-1h2ZM343,171v-1h1v2h-1v1v-1h-1ZM314,257h-1v-1l-1,-1l-1,1h-1v-1h-2l-1,1v-1h1l1,-1h1v-2h1v1h-1v3l2,-2l1,1v1ZM387,108v2h-1v-1h-1l1,-1h-1v-1h3v1ZM615,134l1,1h-3v1h-2v-1h-2l-1,-1v2h-2v1h1v1l1,1h-1l-2,-1h1v-1h-1v-1h-1v-1h-2l-2,-2h-1v-1h-1v1h1v1l1,1h-1v-1l-1,-1h-1v-1h1l-1,-1v-1h-1v-1h1h-1h1l1,1h-1h1v2h2v1h1v1h2l1,1h3l-2,-2h-1v-1h1v1h1v1h3v-1v1h-1v-3h-1h1v1l1,1h1l1,1h3ZM478,429v1h-1v1l-1,1h-2v-1h1l1,-1h1ZM721,52h1v1h2v1v-1h-2v-1h-1h1ZM472,156h3l1,-1h1v1h-2l-1,1h-2ZM567,172v1l-2,-2v2h-1v-1h-1v-1h1v-1l1,1v-1h2v1h1v1h2v1h-1v-1h-1ZM749,66v1h1h-1ZM565,130h3v-1h1v1h-1l-1,1h-3l-1,1v-1h1h-1h1ZM759,515v1h1l-1,1h-1v1h-1v-1h-1v-1l1,-1v-2h1l1,1h1v1ZM685,36h-1v-1l1,1h1ZM557,211v1ZM562,211v-1ZM564,211h-1l-1,-1h1v1ZM259,76l-1,1h-1h1v-1ZM343,213h-1v1v-2h1ZM336,226h-1v1h-1v-1h1v-2h1v1ZM374,64v-1l1,1h-1l-1,1v-1ZM453,181l-1,1l-1,-1v1v-1h-1h2l1,-1l-1,1ZM477,170l-1,1l-1,-1v-1v1h1ZM563,183l-1,1h-1v-1h1v-1ZM592,869v1l-1,-1h-1h1l1,-1ZM359,96h-1v-1l-1,1v-1h2v-1h1v1h-1ZM578,920l-1,-1h-2v-1v1h4v1Z"/>
<path class="sw" d="M719,51h-1h2v1h1h-1ZM630,198v1h-1v-1l1,1ZM620,187v1l-1,-1h1v-1h1ZM292,209l-1,1v1h-1v-1h1v-2h1ZM290,225l-1,-1v-1l1,-1v2ZM281,245v1h-1v-1ZM399,59v-1h1v1h-1v1h-1v-1ZM591,165l-1,-1h-2v1h-1l-1,-1v1v-1h2v-1h1l-1,-1h1v1h1l2,2h-1v-1ZM659,162h1h-1v2l-2,2h-1h1v-1h1v-1l1,-1h-1h1ZM376,62h-1h1v-1h1v1ZM377,62v1h-1ZM387,74v-1h2v1h-1v1h-1h1h-1v1v-1ZM479,139h3v1h-2v-1ZM462,156h-1v-2h1l1,1h-1ZM459,139h-4v-1h5v1ZM582,143v1h1v1h-1v-1h-1v-1h-1v1l-1,-1h1v-1l1,1v-1h1ZM411,129h-2v1h-2v-2h3ZM456,187v1h-1v-1ZM593,204h1v1h-1l-1,-1ZM542,201v-1h-1h1v-2h1v1h1v1l-1,1ZM462,133h1h-2v1h-2l-1,1h-1v-1h1l1,-1h1l1,-1v1ZM305,201h-1v-1h1ZM665,168v1h-1v-1ZM454,128l-1,1h-1h1v-1ZM294,55l-1,1v-1ZM264,73h1v-1v1ZM256,84l-1,1v-1ZM262,81h-1ZM262,80h1v-1v1ZM258,83v1v-2h1l-1,1h1ZM461,173v-1l1,1v-1h1h-4v-2h-1h1v-1h1v2h1h-1h2v1h1l1,1h-2ZM335,118h-2v1h-2l-1,-1l-1,1v1l-1,-1h1v-1h-1h1v-1h-1l1,-1v-1v2h1h-1v1h7v1h-1ZM453,125h-1v-1h1h-1v1ZM385,176h-1h1v-2h-1l-1,1h-2v1v-1h-4v1h-1l-1,1v-1l-1,-1h1v1h1l1,-1h5v-1h2v-1h1v2ZM408,177h-2l1,-1h-1l-1,-1l1,-1h-1l-1,-1h-1l-1,1h-1v-1h-1l-1,1v-1h2v1l1,-1h4v2h1v-1h1l-1,1v1h1h-1l1,1h5l-1,1h-3ZM318,96l1,-1v-4h1v3l-1,1v1ZM329,161v-1h-1l1,-1v-1h1l-1,1v1ZM333,169h-1v1h-1l1,-1h1v-1h-1h1ZM314,169h-1v-1l-1,-1v-1v1l1,1v1ZM416,107h-2v1h-1l1,-1h1l2,-1h1l-1,1ZM298,76v1v-1h1v-1v1ZM449,175h1v1h-3l1,-1ZM449,175v-1h3v1h-2ZM453,90v-1h-1v1v-1h1l1,-1h1v2h1v1h-1l-1,-1ZM557,79h-1l-1,1h-1l-1,-1h-1v-1h1v1l1,-1h-1v-2h-1h1v1h3l2,2v1h1h-2ZM390,312h-3v-2l2,2v-1h1ZM558,181h1l-1,1v-1h-1v-1h-1l1,1l-1,-1v-1h-1l1,-1h1v-1v1h-1v1h2v1h-1v1ZM367,388v1h-2v-1h-2l1,-1h2ZM501,459v1h-1v-1h-3v-1h2v-1l1,1ZM741,758h-1v2h-1v1h1h-1v1h1h-1v1h-2v1v-2h1v-1h-1h1v-1h-1h1l1,-1v-1h1v-2h1v-2l1,-1v1l-1,1v1ZM557,486h-1l-1,1v-1h-1v1h-1h1v-2h1v1h1ZM836,130l-1,-1h-1h1ZM996,446v2h-1v-1h1l-1,-1v-6h-1v-1h1l-1,-1v1v-4h-1h1h-1v-4h-1v1v-2l1,1v-1v4h1v-1v1v-3h-1v-1v1h1v6h1v8ZM996,447v-1h-1v-1v1h1ZM733,813v1l-2,2v-1h-2v1l-1,1h-1v1l-1,1v1h-1v-1h1v-2l1,-1h1v-1h1v-1h2v-1h1v-1h1v-1h1l-1,1h1v1ZM435,160h-1v1h-2v-4l-1,-1v-1h1h-1v-3h-1v-1h-1v1v-2h1v1h1v2h1v-2h1v1l-1,1h1v1l-1,1v1h1v1h1v1h1v1Z"/>
<path class="sw" d="M428,151l-1,1v-2l-1,1v-4h1v-1l1,-1v-1h-1v1h-1v-2h-1v1h-2v-2h5l1,1h1v2l-1,1v1l-1,1v2ZM596,152h1v1h-1v1l-1,1v1v-1h-1v-1l-1,-1h-1v-2h-1v-2l1,1v1l1,-1h1v-1h1v1h1v1ZM595,152v-1v1h1h-1v-1h-3v2h2l1,1v-1h1ZM395,120v1v-2h-1h2v2h1v1h-1v1l-2,2h-1v1h-1v-1h1v-1h-1l-1,-1h2v1h1v-1h1v-1h1h-1v-1ZM590,904h-7l-2,1l-1,1h-1l1,-1h1v-1h-1h3l2,-1h1l1,-1v1h2ZM314,257h-1v-1l-1,-1l-1,1h-1v-1h-2l-1,1v-1h1l1,-1h1v-2h1v1h-1v3l2,-2l1,1v1ZM339,243l-1,1v1h-1l-1,1v1h-1l-1,1h1h-1l-1,1h-2l-1,1v-1h1l1,-1v1v-1l1,1l1,-1v-1h1l3,-3v-1ZM444,117h1v1h-1v1h-2l-1,1h-2l-1,1h-1l1,-1v-1l1,1v-1h1v1v-1h2v-1h1v-2h1ZM851,626v1l-1,1h-1v2h-1l-1,1h-3l-2,2v1h2v1l-1,-1h-2v1l1,2v2l-1,1v1h-1l1,-1v-3h-1v1l-2,2v3h-1v1h-1v-1h-1l1,-1v-1l1,-1v-1l1,1v-2h1v-2h1v-2l-1,-1h1v1l1,-1h-1h2v-3h1v-1h6v-3h1v-2h1v1ZM838,641h-1h1v-1h-1v1h-1v1l1,-1v1ZM535,170h2v1h1v-1l1,1h1v1h1l-1,1v-2h-1v1h-1v-1h-3ZM385,176h-1h1v-2h-1l-1,1h-2v1v-1h-4v1h-1l-1,1v-1l-1,-1h1v1h1l1,-1h5v-1h2v-1h1v2ZM414,195l-2,2v-1v2h1v1h-2v-1h1l-1,-1v-1l-1,1h-2l1,-1h4v-1h1v-3h-1h1v-1l-1,-1h2v-1h-1v-3l1,-1v-1h-1v-1h1v3l-1,1v1h1v3h-1l1,1v2h-1ZM318,96l1,-1v-4h1v3l-1,1v1ZM329,161v-1h-1l1,-1v-1h1l-1,1v1ZM996,446v2h-1v-1h1l-1,-1v-6h-1v-1h1l-1,-1v1v-4h-1h1h-1v-4h-1v1v-2l1,1v-1v4h1v-1v1v-3h-1v-1v1h1v6h1v8ZM996,447v-1h-1v-1v1h1ZM698,41h-1v-1v1v-1h-1h1v1ZM698,41h1v1h1h-1v-1ZM716,49h-2v-1h-2v-1h-1l1,1h2v1h1ZM710,47h1ZM419,81h-2v1l-1,-1h1v-1h1v-1v1h1h-1v1ZM419,81h3v1h-1h1h-1v1h-1v-1h-1ZM419,206l3,3h-1v-1h-1l-1,-1v-1h-1v-1l-1,-1h1v-2h1v1h-1v3ZM400,334h1v1h-1v1h-1v-2h-1h1v-1l-1,-1h1v1h1ZM395,128v-2h1v-1h1v-1v2l-1,1ZM426,99l-1,1h-1v-1h-1v-1h1h-1h1v-1h1v1h2v-1v1h-1v1h-1ZM467,78l-1,1v1l-1,-1h-1v-1h2ZM585,136h1h-2v1h-1v-1h1h-3v-1h1v-1h-1h2v1l1,1ZM589,137v2h-1v1v-2h1h-1h1v-1h-2v-1l-1,1v-1h2v1ZM580,134h-1h2v-1h1h-1v-1l1,1v1h-1ZM487,257l1,1v5h-1l1,-2v-1h-1v-3l-1,-2v-1v1ZM528,278v1h1v1h-1h1v-1h-1l-1,-1v1v-1l-1,-1h1v1ZM337,143h1h-1l-1,1v-3l1,1ZM535,314v-1v1l1,1v1h-1v-1ZM306,268v-1v1h1v1h-1ZM278,216v1h-1v-1v1ZM403,74v-1h-1h1v-1v2h3v1h1v1v-1h-2l-1,-1ZM285,204v3l-1,-1h1l-1,-1h1ZM302,201v-1l1,1l-1,1ZM611,189h2v1h-1l-1,-1h-1Z"/>
<path class="sw" d="M797,591h-1v-2h1v-3h1v4h1v2l1,1l-1,1h1l-1,1v2l1,1h2l-2,1l-1,-1v-2l-1,-1v-2h-1v-1ZM812,707h1h-2v1h-1l-1,1v-1h2v-1h-1l1,-1h-1v-1h1h-1v-1h1v-2h1l-1,1v2h1v1h-1l1,1v-1ZM768,724v-1h1v-1h1v-1v1l1,-1v-3h1v2h1l1,-1l-1,1h-1l-1,1v2h-2v1h1h-1ZM589,872l1,-1h1v1h-1ZM606,897v1l-1,1v-1h-1v-1l1,-1v1ZM835,129v1ZM288,48h1h-1h1v-1ZM315,84v1h-1v1v-1ZM257,89h-1v1v-1h-1v-1h1v1ZM265,74v-1ZM269,82h2l1,-1v1h-3l-1,1ZM275,84l1,-1v1h-1v1ZM264,74v1h-1h1v-1h1ZM268,71h-1ZM276,66l-1,1ZM490,271h3l2,1v1l-3,-1l-1,-1l-1,1ZM733,58h-1ZM731,57h-1l-1,-1l1,1h1l1,1h1h-2ZM552,154h1h-2v-1ZM472,156h-1l-1,-1h2ZM469,150h1v1h-1ZM542,156l-1,-1ZM545,178h-1ZM553,178h1v1h1h-2v1v-1h-1v-1ZM420,78l-1,1ZM417,78h1v1h-1ZM416,78h1h-1v1ZM521,52h-1ZM446,57h-1v-1h1ZM460,67v1h-1v-1ZM450,130h1l2,-1v1h-2ZM420,133v-1h1v1l-1,1h-1v-1ZM402,134l1,-1h1v1h-1l-1,1ZM579,139v1h-1l-1,-1h1ZM630,143h1v1h1h-1l-1,-1h-1ZM407,78v-1h1ZM515,173v1h-1l1,-1h1ZM400,125l1,-1v1ZM402,126l1,-1v1ZM435,89v1h-1l1,-1v-1ZM429,95l1,-1h1l-1,1ZM421,110l1,-1v1ZM581,122l1,1l2,1l-2,-1h-1v-2ZM491,71l-1,1ZM493,71h1h-2Z"/>
<path class="sb" d="M891,211l-2,-2v-1l-1,-1v-1h-1v-2h-1v-1l-2,-1v-1l-1,-1v-1l-5,-5h-1v-1h1l-1,-1v-1h-1v-1h-1v-2h-1v-1h-1v-1h-1v-1l-2,-2v-1l-1,-1v-1h-1v-1h-1l-1,-1h-1h1h-1v1h1h-1v1h-1v-2h-1v1M868,167h1v1v-1h-1M869,166v1h1h-1v1v-1h-1v-1v1l-1,-1h-1l1,1h-1l-1,-1h-1l-1,-1h-1v-1M825,121h-1h1v1h-1v-1M820,118h1v1h1v1h1l1,1v1v-1h-1l-1,-1l-2,-1h1v1h1h-1v-1h-1l-1,-1v1l-2,-2h-1h1h-1l-2,-2M816,115v-1h-1v-1h-2v-1h-1l-1,-1l1,1h-1v-1l1,1h-1h1M836,131l-6,-6h-1l-1,-2h-1l-1,-1l1,1l-1,-1v1h1l-1,-1h-1v-1h-1l-2,-2h-1v-1h-1v-1h-1l-1,-1h-1v-1h-1l-1,-1v-1h-1l-2,-2h-1v-1h-1l-2,-2h1v1v-1h-1v-1h-2v-1l-1,-1h-1v-1h-1l-2,-2h-1l-2,-2M847,141h-1v-1l-1,-1h-1h1v1h1v1v-1h-1v-1h-1l-1,-1v-1h-1v-1h-1v-1h-1l-1,-1v-1h-1v-1h-1h1h-1v-1h-1h1h-1v-1h-1v-1v1v-1v1v-1l1,1M839,133v-1h-1v-1M840,133h-1v-1l1,1h-1v-1h-1v-1h-1l-1,-1h1v1l-2,-2h1v1v-1h-1l-2,-2M821,117l-2,-2h-1v-1h-1v-1h-1v-1v1h1h-1l-1,-1v-1h-1M860,154v-1h-1v-1h-1v-1v1l-1,-1v-1h-1l-5,-5v-1h-1l-1,-1h-1v-1l-3,-3v-1h-1v-1h-1h1v1h1v1h1v1h1h-1v-1h-1l-1,-1v-1h-1v-1v1h1h-1v-1v1h1h-1v-1h-1v-1h-1h1h-1v-1h-1v-1h-1h1h-1v-1h-1v-1h-1M532,483h-3v1h-1v3h1l1,1v1h-1v3l-1,1v1l1,1v1M522,471v1l-1,1h-1l-2,-1h-1v-1l-1,-1v1l-1,-1h-3l-1,1l-2,-1l-1,-1h-3v1h-1M478,428h-3v-10l1,-2v-5M467,446l2,-2h1v-1h1l1,-1v-1h1v-1h1v1M483,406h-2v1l-2,2v1h-3v1h-15v3l-1,2h-2l1,1v1l2,1l2,2v1l1,1h1v3h-11l-1,1l-2,4l-1,1v1l1,2h-1v4M415,341l-1,1h-1l-1,-1h-2l-2,-1h-2v-1h-2l-1,-1h-1l-1,-1h-1v-3l-2,-2v-5l-4,-4v-1l-1,-1v-2l-1,-2l-1,-1v-2l-5,-5h-5l-1,-1l-1,1h-1l-1,1l-1,2l-3,3h-1l-1,-1l-2,-1l-1,-1h-2v-1l-3,-3v-5l-1,-1v-1h-1l-1,-1l-1,-2l-4,-4h-1v-1l-1,-1h-4l-2,-1h-6v2l-1,1v1h-2l-3,-1h-14l-3,-2l-6,-2l-8,-5l-6,-2l1,-1v-1h-15M571,195h-1l-1,1h-1l-4,4h-1v1h-1l-2,2v1l-1,1h-10l-2,1h-1l-1,1v1h1v2h1v1h-1l-1,1h-1l-4,2l-1,1h-3l-2,1h-2l-1,1h-2l-1,1l-2,1l-1,1h-2l-1,-1h-1l-1,-1v-3h2l1,-1v-1h1v-3l1,-2l1,-1v-1l-1,-2v-2l-1,-2v-2l-1,-1v-3l-2,-1h-1l-1,-1l-2,-1h-1l1,-2h-3l-1,-1v-2h-4v-1l-1,-1v-1h-1l-1,-1h-1l-1,-1h-2l-1,-1h-1l-2,-2h-2l-2,-1l-1,-1h-2l-2,-2h-3l-1,1h-1l-1,1h-5v-1h-4l-1,-1h-1l-1,1h-2l-2,-1l-1,-1l-1,1h-1v-1h-1v-1h-2l-1,-1l-1,1h-3l-1,-1h-3v-1l-1,-1v-2l-1,-1l-1,1v2h-13l-3,-1h-28l-2,-1h-19l-2,-1h-16l-2,-1h-13l-2,-1h-13l-2,-1h-11l-2,-1h-8l-2,-1h-6"/>
<path class="sb" d="M358,49l-14,7l-3,3l-8,4l-2,2l-6,3l-1,2l-6,3l-2,2l-4,2l-3,3l-2,1l-2,2l-2,1l-2,2l-2,1l-1,1v1h4v1h-1v3h-1v3l-1,1h1v-1h4l2,-2h2l1,-1l1,1l-2,2v1h1l-1,1v4h-1v2l-1,1v2l-1,1v1h-1h1l-1,1v1l-1,1h2v1l1,1v1h1v1h-1M707,799v1l-2,2v1l-1,1v1l-1,1v1l-2,2h1l-2,2v1l-1,1v1l-1,1M737,765l-1,3l-2,4l-1,1h-1v1h-1l-1,1h-1l-2,2v1h-1l-1,1v-1h-2l-1,1h-1v1h-7l-2,-1h-6v-1h1v-1h1l1,-1v-1h1v-2h1v-2h1l3,-3v-1l1,-1h1v-1l-3,-3h-2l-1,-1h-1l-3,-1l-2,-2h-1l-1,-2h-5l-2,-1l-3,-3h-1v-1h-1l-1,-1h-1v-2l-1,-2l-2,-2h-1M650,750l2,1l-1,2l-2,3l-1,2v1l-4,2h-2l-1,1h-1v1h-1v1h-1v2l1,1l-1,1l-1,2v5l-1,1v3l1,1v1h-1l-1,1h-2v1l-2,2l-1,2v1h-1l-1,1v1h-1v1l-3,3v2h-1v1l-1,1v5h-1h1v1l-1,1h-2v1l-1,2v2h-1v1h-1v1l-1,1v1l1,2h1v1h-1v2l1,1v3l-1,1v1h2v1l-1,1v4h-1v1h-1v1h-1v1h-1v1l-1,1v1l-1,1h-1h1v4l-1,1v1h-1l-1,1h-1l-1,1h-1v1l-1,1v3h-1v7h1v1l-1,1h-2v1h-2v3l-1,1h-1v2l-1,1h-1v1h1v1h-1v1h-1v2l-1,2v5h-2l-1,1v3l-1,1h1v1h1v1h-1v1h1v1h-1v1h1h-1v1h-1v1l3,1h1l-1,1h-3v1h-1l1,1h1v1h1h-1l-3,3h1v1h-1l-1,1v3h-1l-1,1v1h-1v1h-1l-2,2v1h-1h1v2h-1l-1,1v1h-1v1h-2l-1,1v1h-2l-1,1v5h1v1l1,-1h3v2h-1v2h-1h1v1h1v1h16l1,1M721,726v-3l-2,-1l-1,-1l-3,-2h-3l-10,3h-2l-3,1h-2v2l-1,2l-4,4v4l-2,2l-1,3l-1,2l-1,1v1v-1l-1,-1h-6l-1,1v-1l-4,4v1l-1,2v-1l-1,-1v-3h-9l-2,-2h-1l-1,1v1l-2,1h-1l-1,1v1h-2v1l-2,2h-3l-1,1v-1h-1v-1l1,-1l-1,-2v-4l-1,-1v-4l-1,-1h-1v-2h1v-1h-2v-4h1l1,-1l-1,-1l1,-2l1,-1h-1v-1h-1v-1h-1v-1h-1v-7l-2,-2l-1,-2v-1M641,656l1,2v1l1,2l1,1l1,2v1l2,4v1l-2,2v1l-1,3v2l-1,1h1v2l1,1v1h-1l-1,1v1l-3,3v1l2,2l-3,3v1h1l1,4h2v1h1h-1l-1,1v2h-1l-4,4h-1l1,1v2l-1,1h-2v1l1,1l-3,3h-3M595,566h-3l3,3v4h-1v1l-1,2v2l-8,8l-8,4h-2l-2,1l-3,3v1h-1l-1,1v2l-1,1v1l-1,1v4h-1l-2,2h1h-1v1h-3l-1,-1v-1l-1,-1v-1h-2l-1,-1h-3v1h-2v-1l1,-1h-1v-2h2l1,-1l-1,-1v-3M640,600l-2,-2v-1h-1v-1h-1v1h-1l-1,-1h-1l1,-1l2,-3l2,-4l1,-1v-1h-2v-1h-2l-1,-1l-2,-1h-2v1h-3v-1h-3v1h-2v1h-7l-1,-1h-1v-4h-1l-1,-1h-1v-2l-1,-1v-1h-2v-1h-1l-1,-1h-1l-1,-1v-1l-1,-1v-1l-1,-1h-1v-1h-2v-1h-1l-1,-1l-1,1l-1,-1l-2,-1h-2l-1,-1v-1h-1l-1,-1h-1v1h-1v1h-5l-1,-1h-2l-1,-2l-2,-2h-3l-2,-2l-2,-1l-1,-1h-1v-1h-1M666,552v-1l-1,-1v-2l-1,-1v-3h-1v-3h-1l-2,-2v-1h-2v1v-1l2,-3l2,-1v-1l-2,-2v-1l-1,-1l-1,-2v-3h-1v-2l1,-2v-2l-1,-1l1,-1v-1l1,-1v-2l1,-1v-2l-1,-1h-2l-1,1h-4l-2,1l-2,-1h-1l-1,1h-2l-3,-3l-1,-2l-2,-2h-3l-1,-1h-2l-2,1h-8l-1,-1v-1l-1,-1h-1l-1,-1v-4l1,-1v-1l-1,-1v-1l-2,-2v-2l-1,-2h-2v-1h-2l-1,1v-1l1,-1v-1l1,-1v-1l1,-1v-3l1,-3l1,-2v-1l1,-1v-1l1,-1h2l1,-4h1l2,-1l1,-1h2"/>
<path class="sb" d="M714,514l-5,-5v-1l2,-2v-2l-1,-1v-1h1l1,-1h2v-1h1l1,-1h1v-2h-3l1,-1h-1v-3l2,-2h1l2,-2v-1h1v-1l-1,-2M748,541v-1h-2v-1l-1,-1v-1l-1,-1v-1l-1,-1v-1h-1v-4h-3v-1l-2,-2v-1l-1,-1v-4h1v-3l-1,-1h1v-1h2l1,-1h1v-1h1v-1h-1v-2h1M762,536h1v-1h1l1,-2v-5l1,-1v-3l-2,-2v-2h-1v-5h-1v-2l1,-2l1,-1v-1M726,821h-1v-1l1,-2v-1h1l2,-2h1v-1h-1l-1,-1v-3h-1l-1,-1h-1l-1,-1v-1l-2,-1h-1l-1,-1v-1l-1,-1h-1v1h-1v1h-1v-3l-2,-1l-1,-2l-1,-1l-1,1h-1v1h-3v-1h1l1,-1h1v-1l1,-1h1l6,-6v-1l1,-1h1l2,-2h2v-2h1l2,-2h2v-1h1v-1h1v-1h2v-1h2l1,-1h1l1,-1h1v-1l1,-1v-2l1,-1v-7h-2v1h-2v-1l1,-2l1,-1v-2l2,-2v-3l1,-1h-1v-1h-3v1h-4v-5h1v-1h-1v-1h1l-1,-1h1v-2l-1,-1h1l-1,-1h-3v-1l-1,-1v1h-1v1h-7v-1h-1l-1,1v-1h-1h1v-3h1v-3h1v-7h-1v-2h2v-1l-1,-1v-2l1,-1l1,-2l1,-1h1v-1h-1l2,-4l1,-1v-3l-1,-2v-1h-1l-2,-1l-1,-1v-5l1,-1v-1h1v-1h-2v1h-12v-6l-1,-2l-1,-1h1l1,-1l1,-3l-1,-1v-6h-1l-2,-2h-8l-1,-2v-1l-1,1l-1,-1h-3v-1l-1,-1h-1v-1h-3l-1,-1h-6l-1,-1v-1h-1v-1h-1l-1,-1h-1v-2h-1v-1l-1,-1v-9l1,-1v-4h-5l-3,1h-1l-1,1h-1l-4,3h-1l-1,1l-2,1v1h-1v1l-1,-1l-1,1h-1l-1,2h-1l-1,1h-4l-2,-1h-6l-1,1h-2v1h-1v-1h-2v-7l1,-1v-4l1,-1h-1l-3,3h-1v1l-1,1h-8v-1l-1,-1v-1l-1,-1h-2l-1,-1l-2,1h-2l1,-2l1,-1v-2h-1v-1l-1,-1h-1v-2h-1v-1l-1,-1v-1h-1v-2l-2,-2h1v-1h-1h1v-1h2l-1,-1v-2l1,-1l2,-1l1,-1h1v-1h1v-1l-1,-1v-2l1,-1v-1l1,-1v-1l1,-2v-2h2v-1l2,-1l1,-1l2,-1l1,-1h2l2,-1h3l1,-1h1v-1h1v-1l1,1h1l1,-1l1,1v1h1v-1l1,1l1,-1v-2l1,-3v-3l2,-6v-3l1,-2v-4l1,-1v-3h-1l1,-1h-1v-1h-1v-3l-1,-1h-1v-1l-1,-1h-1v-7h4v-1h2v1h2v-3h-1v-1h-5v-5h1v-1h13v-1h-1v-1h1l2,2l4,-4h1v1l1,2l1,1v4h2l4,4h1l2,-1h1l1,-1v-1h1l1,1v2l1,-1v-1h1l1,-1v-1h1l1,-1h1l1,-1h1v-1h2l1,-1v-1l1,-1v-2h1l2,-1h1v-1h1v-2h-5v-3l-2,-4v-3l-3,-2l-1,-1v-1l-1,-1v-1h1v1h1v1l1,-1h2l1,1v1h7l2,2v1h1l1,-1v-3h1v-1h1l1,-1l2,1l4,-2l1,-1h1v-1h2l1,-1v-1h1l1,-1v-1h1v-1l-2,-2h1l1,1l1,-1h2l1,1v4h-1v1h3v1h1v2l1,1v2l-2,2v3l-1,1v5l1,2h1v4h1v1h1v1l2,2h2l1,1h1l1,-1h1v-1h1v-1h3v-1h1v-1h2l1,-2h2v-1l1,1h8v-3h-1v-2l1,-1l2,1h2l1,-1h1l1,-1l1,1h1v1h2v1h2v1h1v-1h1v-1h1v-1v1h3v-1l1,1h3v-1h1v-1l1,-1v-1l1,-2v-2l1,-1v-1h1v-1l1,-2v-1l1,-1v-1l1,-1M932,283v-2l-2,-4l-1,-1v-1h-1v-5l-1,-1v-3h1v-1l-1,-1v-1h1v-1l-1,-1v-1l-1,-1v-4l-1,-1v-2l-1,-1v-1h-1v-2h-1v-3l-1,-1v-2h1v-1l-1,-1v-1h-1v-1l-3,-3v-1l-1,-1l-1,-2l-2,-2v-1l-3,-3v-1l-2,-2v-1h-1"/>
<path class="sb" d="M921,230l-2,-2l-1,-2v-1h-1v-1l-1,-2l-2,-2v-1h-1v-1l-2,-2v-1l-1,-1v-1h-1l-1,-1v-1l-1,-1v-1h-1l-1,-2v-1h-1v-1l-3,-3v-1h-1v-1l-1,-1v-1h-1M935,341l2,-2h4v-4h-1v-5l-1,-2v-1l-1,-1v-2l-1,-2v-1l-1,-1v-3h1v-2l-1,-1v-6l-1,-1v-2l-1,-1v-1l-1,-1v-2l-1,-1v-1h1v-1h-1v-4h-1v-1l-1,-1h1v-1h3v-1l-1,-1h1v-3h-1v-1l-1,-1l2,2M937,346v-1l-1,-1v-3h2l1,-1h2l1,-1h1l1,-1h2v-2h-1v-2l-1,-1v-1l-1,-1v-2l-2,-2v-10l-1,-1v-1l-1,-1v-1l-1,-1v-1l-1,-1v-1l-1,-2v-1l-1,-1v-1l-1,-1v-1l-1,-1v-2l1,-1h1v-1h2l1,-1h1l-1,-1v-2l-1,-1l-2,-4v-1l-1,-2l1,1v1h1l2,2v1h1l1,1v1h1l1,1v1h1l1,1v1h1l2,2v1l1,1M965,391v-5l-1,-1v-1l1,-1v1l2,2v-2h1l1,-1v-1h1v-1h2v-1h1v-1h2v-1h1l-1,-3l-1,-2v-2l-1,-1v-1l-1,-2v-2l-3,-6v-2l-2,-4v-2l-3,-6v-2l-3,-6v-2l-5,-10v-2l-7,-14v-2l-3,-6h1v-1h1l3,3l1,2l6,6l1,2v1l1,2l2,2l1,2l2,2l1,2v1l1,1v1l1,1v2h1l1,1v2h1v2l1,1v2l1,1v-1l-1,-1M982,376v-8l-1,-2v-3l-1,-2v-1l-1,-2v-2l-1,-1l-1,-3v-2l-1,-2l-1,-3l-1,-2v-2l-1,-3l-1,-1v-3l-1,-1v-1l-1,-2v-1l-1,-2M951,387v-4l-1,-2l1,-1v1h1v-1l1,-1v-1h3l1,1v2h2v1l1,1v2h1v1h1v2h1v1l2,2v3l1,1v1l1,1v3l1,1v2h1v-1v2h1v2l1,1v3M956,406l1,-1h2v-3h1l1,1v1h2l1,1l-1,1h-2v-1h-1v1l-1,1h-1l1,2h-2l-1,1v1M958,417v-1h1v-1h1l1,-1v-2h2l1,-1h1M965,427v-6l1,-1v-1h1v-2l-1,-1v-4l-1,-1l1,-1h1v1h1v1h1l2,-2v2l1,1v1v-1h1v-1v1l1,1v-3h1v1h1l-1,-1l1,-1v-2h-1l1,-1v1l1,1v3l1,1v2h1v4h1v2l1,1v2h1v2M985,421v-5l-1,-1v-5l-1,-1v-2l1,-1v-2l-1,-1v-5h-1v-4l1,1v-2l-1,-1v-1h1v-1h-1v-13l-1,-1h1v1l1,1v3h1v3l1,1v2h1v3l1,1v3h1v-1v3l1,2v1M972,441h1v-8h1v-1l1,-1h1v1l1,1v2l1,1v3l1,1v4l1,-1M979,458v-6h1v-9l1,-1v1l1,1v4h1v4h1v-3M989,475v-2l-1,-2v-9h-1v-3h-1v-1h-1v-9h-1v-1h1v-5h-1v-3h1v1v-2h-1v-5h-1v-2l-1,-2v-7l1,1v1h1v-1h-1v-1h1v-1l-1,-1v-1l1,1v-1v2l1,1v-2h1v1v-1v2h1v3h1v-3h1v1l1,1v1M995,463v-2l-1,-2v-4l-1,-2v-8l-1,-2v-9l-1,-2v-3l-1,-1v-5l-1,-1v-4h-1v-6h1v-1h1h-1v-2h1M997,450l-1,-1v-6h-1v-6l-1,-4v-3l-1,-1v-6l-1,-1v1v-5l-1,-2v-2l-1,-1v-4M997,449v-2l-1,-1v-7l-1,-3v-3l-1,-2v-4l-1,-3v-4l-1,-1v-3l-1,-1v-4l-1,-1v-8l-1,-1v-4l-1,-1v-1l1,2v2l1,1M997,446v-3h-1v-8h-1v-7l-1,-1v-5l-1,-2v-5l-1,-1v-4l-1,-1v-5l-1,-2v-3h-1v-4l-1,-1v-4l-1,-1v-1l-1,-4v-3l-1,-1v-1"/>
<path class="sb" d="M671,30h1v1h2l1,1h1M670,30h2v1v-1h-3l-1,-1h1v1h2l1,1h2v1h3v1v-1v1h2l1,1h1l1,1v-1h-1l1,1h1l3,1l1,1h2v1h2l6,3h1v1h2l1,1h2l2,2h1l4,2h1l1,1h2v1h2v1h1l1,1h1l1,1h1l1,1l2,1h1l1,1h1l1,1l2,1h1l1,1l2,1h1l1,1h1l1,1h1v1h2l1,1h1l1,1h1v1h1l1,1h1v1h2l2,2h1l1,1h1l1,1l-1,-1"/>
<circle class="w1" cx="519" cy="415" r="5"/>
<circle class="c1" cx="519" cy="415" r="4"/>
<path class="sg" d="M 256.5103 935.9130 A 249.7500 33.0293, 0, 0 0, 742.4897 935.9130"/>
<path class="sg" d="M 68.2056 751.4631 A 432.5797 57.2085, 0, 0 0, 930.7944 751.4631"/>
<path class="sg" d="M 0.0000 499.5000 A 499.5000 66.0587, 0, 0 0, 999.0000 499.5000"/>
<path class="sg" d="M 68.2056 247.5369 A 432.5797 57.2085, 0, 1 0, 930.7944 247.5369"/>
<path class="sg" d="M 256.5103 63.0870 A 249.7500 33.0293, 0, 1 0, 742.4897 63.0870"/>
<path class="sg" d="M 370.1027 981.9485 A 444.0640 499.5000, 15.01392223, 0 1, 628.8973 17.0515"/>
<path class="sg" d="M 455.5276 997.0607 A 275.0905 499.5000, 5.05044471, 0 1, 543.4724 1.9393"/>
<path class="sg" d="M 495.1671 998.9812 A 32.4068 499.5000, 0.49701562, 0 1, 503.8329 0.0188"/>
<path class="sg" d="M 532.0034 997.9414 A 218.9604 499.5000, -3.73097575, 0 0, 466.9966 1.0586"/>
<path class="sg" d="M 596.4723 989.4966 A 411.6573 499.5000, -11.19441392, 0 0, 402.5277 9.5034"/>
<path class="sg" d="M 946.9826 721.4450 A 494.0509 499.5000, -63.61924711, 0 0, 52.0174 277.5550"/>
<text x="0" y="0" class="fs" transform="translate(53,572) rotate(83)">150W</text>
<text x="0" y="0" class="ft" transform="translate(53,572) rotate(83)">150W</text>
<text x="0" y="0" class="fs" transform="translate(223,597) rotate(86)">120W</text>
<text x="0" y="0" class="ft" transform="translate(223,597) rotate(86)">120W</text>
<text x="0" y="0" class="fs" transform="translate(467,608) rotate(90)">90W</text>
<text x="0" y="0" class="ft" transform="translate(467,608) rotate(90)">90W</text>
<text x="0" y="0" class="fs" transform="translate(720,602) rotate(94)">60W</text>
<text x="0" y="0" class="ft" transform="translate(720,602) rotate(94)">60W</text>
<text x="0" y="0" class="fs" transform="translate(913,579) rotate(96)">30W</text>
<text x="0" y="0" class="ft" transform="translate(913,579) rotate(96)">30W</text>
<text x="0" y="0" class="fs" transform="translate(861,775) rotate(-11)">30S</text>
<text x="0" y="0" class="ft" transform="translate(861,775) rotate(-11)">30S</text>
<text x="0" y="0" class="fs" transform="translate(915,532) rotate(-12)">0N</text>
<text x="0" y="0" class="ft" transform="translate(915,532) rotate(-12)">0N</text>
<text x="0" y="0" class="fs" transform="translate(857,280) rotate(-11)">30N</text>
<text x="0" y="0" class="ft" transform="translate(857,280) rotate(-11)">30N</text>
<text x="0" y="0" class="fs" transform="translate(704,87) rotate(-15)">60N</text>
<text x="0" y="0" class="ft" transform="translate(704,87) rotate(-15)">60N</text>
<path class="tb" d="M127,998h-2l-1,-1h-2l-1,-1h-2l-1,-1h-2v-1h-3v-1h-2l-1,-1h-2v-1h-2l-1,-1h-2v-1h-2v-1h-2l-1,-1h-2v-1h-2v-1h-2v-1h-2v-1h-2v-1h-2v-1h-2v-1h-2v-1h-2v-1h-1l-1,-1h-1v-1h-2v-1h-2v-1h-1v-1h-2v-1h-1l-1,-1h-1v-1h-2v-1h-1v-1h-2v-1h-1v-1h-1l-1,-1h-1v-1h-1v-1h-1l-1,-1h-1v-1h-1v-1h-1v-1h-2v-1h-1v-1h-1v-1h-1v-1h-1l-2,-2h-1v-1h-1v-1h-1v-1h-1v-1h-1v-1h-1v-1h-1v-1h-1v-1h-1v-1h-1v-1h-1v-1h-1v-1h-1v-2h-1v-1h-1v-1h-1v-1h-1v-1l-1,-1v-1h-1v-1h-1v-1l-1,-1v-1h-1v-1l-1,-1v-1h-1v-1l-1,-1v-1h-1v-2h-1v-2h-1v-1l-1,-1v-1l-1,-1v-1l-1,-1v-2h-1v-2h-1v-3h-1v-2h-1v-4h-1v-3h-1v-5h-1v-6l-1,-1v-17h1v-7h1v-4l1,-1v-3h1v-3h1v-3h1v-2l1,-1v-2h1v-2h1v-2h1v-2h1v-2h1v-2h1v-2h1v-1h1v-2h1v-1h1v-2h1v-1h1v-1l1,-1v-1h1v-1h1v-1l1,-1v-1h1v-1h1v-1h1v-1h1v-1h1v-1h1v-2h1v-1h1v-1h1v-1h1v-1h1l3,-3h1v-1h1v-1h1v-1h1v-1h1v-1h1v-1h1l1,-1h1v-1h1v-1h1v-1h1l1,-1h1v-1h1v-1h2v-1h1v-1h1v-1h2v-1h1v-1h2v-1h1v-1h2v-1h1l1,-1h1v-1h2v-1h1l1,-1h1v-1h2v-1h2v-1h2v-1h1l1,-1h1l1,-1h1l1,-1h1l1,-1h1l1,-1h2v-1h2v-1h2v-1h2l1,-1h2v-1h2v-1h2l1,-1h2v-1h3v-1h2l1,-1h2v-1h3v-1h3v-1h159v1h3v1h3v1h2l1,1h2v1h3v1h2l1,1h2v1h2v1h2l1,1h2v1h2v1h2v1h2l1,1h1l1,1h1l1,1h1l1,1h1l1,1h1v1h2v1h2v1h2v1h1l1,1h1v1h2v1h1l1,1h1v1h2v1h1v1h2v1h1v1h2v1h1v1h1v1h2v1h1v1h1l1,1h1v1h1v1h1v1h1l1,1h1v1h1v1h1v1h1v1h1v1h1v1h1l3,3h1v1h1v1h1v1h1v1h1v2h1v1h1v1h1v1h1v1h1v1h1v1l1,1v1h1v1h1v1l1,1v1h1v1h1v2h1v1h1v2h1v1h1v2h1v2h1v2h1v2h1v2h1v2h1v2l1,1v2h1v3h1v3h1v3l1,1v4h1v7h1v17l-1,1v6h-1v5h-1v3h-1v4h-1v2h-1v3h-1v2h-1v2l-1,1v1l-1,1v1l-1,1v1h-1v2h-1v2h-1v1l-1,1v1h-1v1l-1,1v1h-1v1l-1,1v1h-1v1h-1v1l-1,1v1h-1v1h-1v1h-1v1h-1v2h-1v1h-1v1h-1v1h-1v1h-1v1h-1v1h-1v1h-1v1h-1v1h-1v1h-1v1h-1v1h-1l-2,2h-1v1h-1v1h-1v1h-1v1h-2v1h-1v1h-1v1h-1l-1,1h-1v1h-1v1h-1l-1,1h-1v1h-1v1h-2v1h-1v1h-2v1h-1l-1,1h-1v1h-2v1h-1v1h-2v1h-2v1h-1l-1,1h-1v1h-2v1h-2v1h-2v1h-2v1h-2v1h-2v1h-2v1h-2v1h-2l-1,1h-2v1h-2v1h-2l-1,1h-2v1h-2l-1,1h-2v1h-3v1h-2l-1,1h-2l-1,1h-2l-1,1h-2Z"/>
<path class="tl" d="M169,986h1v1h-3l-1,-1h2v-1ZM114,989h-3l-1,-1h2l1,1ZM176,983h1l1,1v1h1l-1,1h-2l-1,1h-1l-1,-1l1,-1v-2h1v-1ZM124,980h2v1h-1ZM122,980l1,1h-1l-1,-1ZM136,977h1h-2ZM156,974v1l1,1h-5v-1l1,-1v-1l-1,-1l1,-1v1h1l1,1ZM158,964v1h-2v2h1l-2,2v1h1l1,1h1l4,4v1l1,1v1h-1v2h-1l-1,1h-1v1h-2l1,1h1v1h-2l1,1h1v1h3l1,1h3l1,1h3l1,1h1l1,1v-1h1v-1h2l2,-1l1,1h1v-1h4v-1h3l1,-1h-1v-1h-4l-1,-1l1,-1h1l2,-2h4l1,-1h1l2,-2h-1v-1h1v-1h2v-1l1,-1h1v1h1v-1h8v-1h3v-1h1l1,1h2v-1h1v1l1,-1h4v1h6v-1h3v-1h2v1h3l1,-1h3v-1h2l1,-1h2l1,-1h4v1h1v1h1l1,1h1l1,-1l1,1h2v1l-2,2h-1v1h1h-1v1h-1v1h2l2,-2h1v-1h3l1,-1h1v-1h2l1,-1h5v-1h1v1h5v1h1l1,-1l1,1l1,-1h1l2,-1v1l1,1h3l1,-1h2v1h1v1h4l1,-1v1h9l1,-1l-1,1v1h-1h3l1,1h2l-1,1v1h1v1h2v1h1v2h2l1,1v1h-1l-1,1h-2l-1,1h-3l-1,1h-2l-1,1h-2l-2,2v1h-5l-1,1h-2v1h-1v3h2l-11,4h-155l-11,-4h-1h2l1,-1l1,1h14l-1,-1h-7v-1h-2v-1h-3l-1,-1h4v-1h-2l-1,-1h-7l-1,-1l-2,-1l1,1l1,-1l2,1v-1h1v-1l-1,-1h-1h2v-1h2v-1h4l1,-1h5l1,-1l1,1v-1h1l1,1h1v-1l1,1h6v-1h-2l-1,-1h-1l-1,-1h4l1,1h1l1,-1h3l-1,-1h1l1,1l1,-1l1,1h3v-1l1,1h4v-1h2l1,-1v-1h-1v-1h-1v-1h-1v-1h-1v-2l-1,-1v-1h1v-2h1v-1h1v-1h1l1,-1l1,1ZM144,951l2,1h1v1h-1v-1v1h-4l-2,-2l-2,-1l2,1h2v-2h1v1ZM151,947h1v1h-2v1l-1,-1l1,-1ZM269,946h-1v-2h1l1,1ZM345,939v1h1l1,-1v1l-3,3v-1l-1,1h-1l1,-1v-1l1,-1v-1ZM368,943v1l1,-1v1h-1l-3,3h-1l-1,1h-1l-2,2h-2v1h-1v-1h-1v-1l4,-2h1l1,-1h2l2,-2h1l2,-2ZM376,936l-1,2l1,-1l-1,1l1,1h1l-2,2h-1l-2,2l-2,1h-1l2,-1v-2l1,-1l2,-1v-1l1,-1v-3l1,-1v1l1,1ZM382,913l-1,1v-2l-1,-1v-1h1v1l1,1ZM397,906v1l-1,1h-1v-1l1,-1v1ZM398,906h-1v-1h1l1,-1v1ZM10,905v-1ZM386,904v-1ZM386,901v2h-1v-1ZM259,895v2l1,1h-1v1v-1v2h-1v3l-3,6v2h-1l-1,1l-1,-1h-1v-5h1v-2l1,-1h-1v-3h1v-1h1l2,-2h1v-1l1,-1v-1l1,-1v1ZM361,898v1h1v1h1l-1,1v2h1l-1,2v1l2,2v4h1l-1,2l1,1v3l-1,1v2l-3,3v1l-1,1l-1,2h-1l-1,2h-1l-4,4v1h-2l-1,1h-1l-1,1v-1h-1l1,-1h-1l-1,1h-1v-1h-1v-3h1l-1,-1v-1l1,-1l-1,1h-1l3,-3l-2,1h-1l-1,2v-4l-2,-2h-2l-1,1h-4l-2,2h-4l-1,1v-1l-1,1h-2v-1h-1l1,-1v-1h1v-3l1,-1v-7l1,1v-3l1,-1v-1l1,-1l-1,1l2,-2h1l1,-1h2l1,-1h2v-1h1l1,-1v-2l1,-1v2l1,-1v-1h1v-1l2,-2h2v1h2v-2h1l1,-1v-1h2v-1h-1h1l1,1h3l1,1h-1v1h-1v1l-1,1v1l2,2v1h1l1,1h1v-1l1,-1v-1l1,-1v-3l1,-1v-2h1v-1v3l1,1Z"/>
<path class="tl" d="M383,894h-1v-1v1ZM337,892l-2,-1h2ZM381,893h-1v-1h1ZM382,892v-1l-1,-1h1ZM341,892h-1l3,-3h2l-1,1h-1l-1,1ZM335,889h1v1h-3l1,-1ZM340,889v1h-3v-1h2ZM381,890v1l-2,-2h1v1ZM378,889v-1h-1v-1l1,1ZM325,887h2v-1l2,1v1h2l1,1l-1,1l-1,-1h-4l-1,-1h-1l-2,-1h-1l1,-2h1l1,1ZM353,886v1v-2ZM377,888h-1v-2l-1,-1h1v2h1ZM373,885l-1,1h-1l-1,1l-1,-1h-1l1,-1l1,1v-1h2v-2h1v1ZM345,882h-1v-1h1ZM349,881v2l-1,-1h-2v-1h2ZM374,884l-1,-1v-1l-1,-1h-1h2v2h1ZM353,878v3l2,1v-2l2,-1h1l1,1h1l1,1l4,2v1h1v1l2,1v1h-1v1l1,1v2h1v1h1h-1l1,1l-1,1v-1h-2l-1,-1v-3h-3l-1,1v1h-2l-2,-2v1h-2l1,-2h1l-1,-2v-1l-2,-1h-1l-1,-2l-1,1l-1,-1h1l-1,-1l1,-1h-1v-1h-1l-1,-1h2v-1ZM343,875l-1,1h-4v1l1,2v-1h2l-1,1h-1l1,2v1l1,2v1h-1v-2l-1,1v-1l-1,-1l1,-1h-1v4h-1v-3h-1v-1l1,-1v-4h1v-1h4l1,-1ZM347,875v1h-1v1l1,1h-1v-4h1ZM321,885h-1l-2,-2v-1l-2,-2l-1,-2v-2l-1,-1v-1l-4,-4v-1h2l3,3l1,2h1l2,2h1l-1,2h1v1l1,1h1v3ZM335,874l1,1h-1v3l-1,1v1l-1,3v-1l-1,1l-1,-1h-1v-1l-1,1l-1,-1h-1l-2,-4v-2l1,-1h2v-2h2v-1l1,-1v-1h1l1,-1v-2h1v1l2,2v1h-1l-1,2l1,1ZM344,864v3l-1,-1v2l-2,-2h1l-1,-1v1l-1,-1l-1,1v-1l1,-1h2v-1h1v-1l1,1ZM294,868h-1v-1l-1,-2l1,-2l1,1v1l1,1v1ZM137,863h-1l1,-1h1ZM341,861v1l-1,1l-1,-1l1,-1v-1v1l1,-1ZM335,863l-1,1v-1l1,-1v-1l1,-1v1l-1,1ZM338,859h2v1l-1,1v-1h-1ZM342,858l1,2h-1v1v-1h-1v-1h1h-1v-1ZM338,857l-1,1l-1,-1h1ZM336,849h1v6h1l2,1v2l-1,-1v-1v1l-1,-1h-2v-1h1h-1l-1,-1v-5ZM133,851v1h-1v-1ZM121,852h-1v-1h2v1ZM126,849h3v1h1v1h-2l-1,1v-1h-1v-2h-1ZM324,849l-1,1h-1v-2l1,-1h1v1ZM37,846v-2h1v2ZM38,844h-1v-1h1ZM119,845h2l1,1v1h1v1h2l-1,1h-3v-1h-1v-2h-2l-1,-1h-1h1h-2l-1,1h-1l2,-2h3ZM122,843h-1v-1l1,-1v1ZM334,843v1l-2,-2v-2l1,-1l1,1ZM122,839l-1,1v-1ZM123,839v1v-1h-1ZM340,825h1v1h-1v1h-1v-2ZM240,828l-2,2v-1h-1h2ZM229,828v1h-1ZM220,825v2h-1l-1,-1h-1v-1h2ZM214,821v3h-1v-3ZM344,820v1l1,1v1l-1,1h-1l-1,2l-1,-1v-1l-2,1l-1,1h-1l2,1v3l-1,-1v-1h-1l-1,-1l1,-1v-3h3v-3l1,1v-2h1l-2,-4v-1l3,3v1ZM214,820v1l-1,-1v-1l1,-1ZM340,810l1,-1l1,2h-1v2l-2,-1l1,2h-1l-1,-2l-1,-1h1l-1,-2l-1,-1l3,1ZM144,812l1,1h1h-2ZM147,809h-1l-1,-1h1ZM92,806h-1l-1,-1v-2h-1v-1h1l1,1v1l1,1ZM153,807l-1,1h1v1h2l-1,1h1v1l-1,2l-1,-1l1,-1l-2,1v-1h-3l1,-1h-1l4,-4h1Z"/>
<path class="tl" d="M90,797h1l-2,2v1v-3ZM332,800l3,3l-2,-1l1,2l2,2v1l-2,-2l-1,-2l-6,-6v-1h-1h1l3,3ZM198,806l-1,1h-2l1,-2v-1l2,-2h1v3ZM216,801l-1,2l-1,-1v-1h1ZM79,791h-1v-1h2ZM202,797l-1,2h2v1l-1,1h1l2,4h1v1l-1,1h1l-1,1h-3l-1,1h-2l2,-2h-1v-1h1l-1,-1v-1h2l-1,-1h-1v-2l-1,-1l1,-2v-1l1,1ZM75,786h-1v-1h1ZM141,790l-1,1v-1ZM139,790h-2l1,-1h1ZM78,780v1h1h-2v-1ZM139,786h1v1h1l-1,1h1l-1,1l-1,-1h-1l-2,1l1,-1h-1h1l1,-1l1,-2ZM193,787v1l1,1l-1,1h-3l-1,1l-1,-1h-2l1,-1h-1h1v-1h-2l1,-1h1l1,1l2,-1h2ZM147,784h-1l1,-1h2l-1,1ZM81,776v1l1,-1h2l-1,2h-3l-1,1h-1l-1,-1h1v-1h-1h1h-2l-1,1l8,-5v1l-1,2ZM135,780l-1,1v-1h-1l1,-1h1ZM322,771h-1ZM88,771h-1h2ZM139,780l-1,2l2,-1v1h-1v1l1,-1l2,-1l1,-1h2v2h-1v1l-1,1l-2,1h-1v-1l-1,1l-2,1v1h-3l-2,2h-1l-1,1l-2,1l-1,1l-1,2h1l-1,1v1h1l3,3l2,1h1l-2,2v2l1,1h1l2,-4h-1l4,-2v-1l1,-1v-1l-1,-1l2,-1l2,-4l1,1h1l1,-1v1l1,1h1v2l-1,1l1,1h2l1,-2h1v3l1,1l-1,1l1,1v1h1l1,1v1l1,1l-2,2h-2l-2,2h-1l-2,-1h-2l-2,1l-1,1l-2,1l-1,1l2,-1l3,-1h2l-1,1l-1,2v1l1,1l2,-1l1,-1v1h1l-4,2h-1l-2,1v-1l2,-1h-3v1h-1l-1,1h-1l-2,2l1,1v-1v1h-3l-1,1l2,-1v1h-2l-2,2v1l-1,1l-1,-1l1,-1l-1,1v4l-1,1h-1l-1,1h-1l-3,3h-1v8l-1,1h-1v-3l-1,-1l1,-1l-1,-2l-1,1l-1,-1h-4v1h-1l-1,-1l-1,1l-1,-1l-2,2h-2v1h-1v3l-1,1v1l-1,2v4l1,1v1h1v1l1,-1h3v-1l1,-1v-1l1,-1h3v1l-1,1v2l-1,1v-1v2l-1,1v1h5v1h1v1l-1,1v3l-1,1h1v2h1v1h2l1,-1h1v1h1l1,1l1,-1v-2l1,-1h2l2,-2v2h-1h1v1l-1,1v1h1v-3h1v-1h1v1h1v1h3l1,1l1,-1h1l1,1h1v1l1,1h1v1h1v1l1,1l2,1v-1h1l1,1h1l1,1v1h1v1l1,2v1l-1,1l1,1h2v1v-1l4,2v1h1l3,1h1l2,1l2,2h2v5l-1,1l-1,2l-2,2v9l-1,2v2h-1v1h-2l-1,1h-1l-3,3v5l-1,2l-2,2v2l-2,2v-1l-1,1l-1,-1h-1v-1v1l1,1v1l1,1v2l-2,1h-3l1,1v2l-1,1l-1,-1h-1l1,2h2l-2,2l1,1v1h-1l-1,1v1l2,1h1v1l-1,1v2h-1v1l2,2h-1l-1,1v1h-1l-2,-1l-3,-3l-1,-3v-1l1,-1h-2l1,-2l-1,-2h1v-2l-1,-1v2l-1,-2v-4l-1,-1l-1,-2h1v-6l-1,-2v-8l-1,-2v-6l-1,-2l-1,-1l-2,-1l-3,-2l-1,-1v-1l-1,-2l-1,-3l-2,-3l-2,-2v-1l-1,-2l2,-2v-1h-1v-3l1,-1v-1h1v-2h1l1,-1v-5l-1,-1v-2h-1v1h-1v1h-1l-1,-1h-2v-2h-1v-1v1h-1v-3l-2,-2h1h-2v-1h-2l-1,-1l-1,-2h-1l-1,-1v1h-2l-1,-1h-2l-2,-2h-1l-1,-1v-1h-1v-3h1l-1,-1v-3l-1,-1v-1l-1,-1v-3h-1v-5l-1,-1l-1,1v4h1l-1,1h1v5h1v2h-1v-1l-1,-1v-3l-1,-1v1v-1h-1v-1h1v-9h-1v-1h-1v-9l2,-2v-1l1,-2l2,-2l1,-2l1,-1v-1h1v1l2,-2h-1v-2l-1,-1v-1l1,-1l-1,-1l1,-1v-1l1,-1l-1,-1l1,-1v-1l1,-1l-1,-1h-1v-2h-1v-1h-1l-1,-1h-1l-1,1h-4l1,-1l2,-1h-1l-1,1l-2,1h-1l-1,1l-2,1h-2l-2,1h-1l-1,1h-3l-1,1h-2l1,-1h2l2,-1h2l2,-1h1l2,-1l1,-1h-3l1,-1l-1,1h-1l2,-2h-1v-1l2,-2l2,-1h3l1,-1h1l1,-1h-3v-2h4l1,1l1,-1v-3h4l1,-1h2l2,-1l1,1l1,-1h1l-1,1h1l1,1h2l1,1h2v1l1,1l1,-1h6l1,-1v2l2,-1l-1,1h2l1,1h2v1l-2,1h4v1l2,-2h2v1h1l1,1h2v-1h1l1,1l-1,1l1,-1h1l1,-1v-2l1,-1l2,-1l1,1l-2,2Z"/>
<path class="tl" d="M128,774l-1,1h4l-1,1h1l2,-2v1l-1,2v1l1,1h-2v1h-8v-1h-1v-1h4l-1,-1h-3l2,-1h-1l1,-1h1ZM135,774l-2,1v-1h1ZM152,776v1l-1,-1l-1,1v-2h2ZM146,776v1l1,-1l2,-1v2h3l1,1l-1,1l2,-1v1l1,1v2h-1l2,2v1h1v1l-2,1h-1l-1,-2l-1,1v1l1,1v2l-1,1l-2,-2v1l1,1h-2l-2,-2v-1l-1,-1v1h-3v-1l1,-1h3l1,-1l2,-1v-1l-1,-1h-1l1,-1l-1,-1h-5l-1,-1h-1l1,-1h-1l1,-1l2,-1l1,-1h2ZM138,774h2l-1,1h-1l1,1l-2,1h-2v-2l1,1v-1ZM298,772h-2v-1ZM141,776l-2,1v-1l2,-2h2l1,1l-2,1ZM122,776h-2l-1,-1h1l2,-1l2,-2h2v1h2v1h-1l-3,1h-2ZM299,769v1h-3v-1h1ZM143,773v1l-1,-1h-1l1,-1h1l1,1ZM295,769l1,1h-2l-1,1l-2,-1l-1,-1h2ZM143,771h-1v1l-1,1h-2l1,-1h-1l1,-1h2ZM136,771h1v1h-4l-2,1h-1l1,-1h-1l-1,-1l2,-1h1l2,1l1,1v-2h2ZM246,780h-3l-2,-1v-1l1,-2h-1l1,-1l-1,-1h1l4,-2h2l-1,1l-2,1l-1,1v2l-1,1l1,1ZM145,770l1,1h1l-1,1h1l1,1h4v1h-7l-1,-1l1,-1v-1h-2l1,-1ZM134,769l-2,1h-4l2,-1h3ZM271,770l1,1v-1h2l2,1h1v1l-1,1h1l2,1v-1l1,1l1,-1h2l1,1h3l-2,-1h5l1,1v1h2l2,1l-1,-1h1l1,-1l2,1v-1h1l-2,-1h8l3,1l1,-1h2l2,2h2v-1h3l3,1v-1h-2v-1h7l8,5h-1l1,1l2,1h2v1h-1v1h-1l1,1v2l-2,-1v2l-1,-1v1h-1l2,2v1h1l3,2h-1l1,1h1v1l1,2h-1l1,2l1,1l-4,-2l-4,-3l-1,-2l-1,-1v-3l-1,-2v-1l-2,-2l-1,1l2,2l-3,-1l-1,1l1,2l1,1h-1l-1,1l-1,-1h-1v1h-4v7h1l2,1h1l-1,-1h1l3,1l1,2l1,1l1,2l2,2v9h-1l-1,-1v2h-1v1l1,1v1h-1v1l1,1h1l2,2v1l1,1v1l-1,1h-1l-1,-2l-1,-1h1l-2,-1v-1v1v-1h-1v-1l-1,-1h-2v1h-1l-1,-1l1,-1l-1,-1l-1,1v2h-1v1l2,2h1v-1h2l1,1l-2,1v2l2,2l1,2l2,1v2h1v6l-2,4l-1,1h-1v1l-1,-1v1l-2,1h-1v2l-1,-1v-1h-2l-1,2v2l1,1l1,2l2,2l1,3v4l-2,1v1l-2,1v-2l-1,-1h-1v-1l-2,-2h-1v-1h-1v6h1v3l1,1h1v1h1v1l1,1v3h1v2h-1l-2,-2v-1l-1,-1v-1l-1,-1v-2l-1,-1v-1h-1v-6l-1,-1v-1l-1,-2v-2l-1,-1l-2,2h-1v-3l-1,-2v-1h-1l-2,-2v-1l-1,-1h-1v2l-1,-1v1h-2v2l-2,1l-1,2v1l-2,2h-1v8l-1,1l1,1h-1l-1,1l-1,-1l-1,-2v-1l-1,-1v-1l-1,-2v-1l-3,-6v-3l-2,1h-1l-1,-2v-1l-2,-1l-1,-1v-1l-1,-1l-2,1h-5l-1,-1h-2v-2h-1l-1,1h-2l-3,-3l-1,-2l-1,1v-1l-1,1v2l1,1h1l1,1v2l1,1l-1,-1l1,-1v2h1v1l1,-1h2v-1l1,-1v-1v2l2,2h1l2,2l-1,1v1h-1v3h-1v1h-1v1h-2v1h-1l-2,2h-1l-2,2v-1l-1,1h-2v1h-2v-2l-1,-1v-3h-1v-1l-1,-1v-1l-1,-1h-1v-1l-1,-1v-3h-2v-2l-1,-1v-1l-2,-2v-1v1l-1,1l-1,-1l-1,-2l1,2l1,1l1,2v1l2,2h-1l2,2v1l1,1h-1l1,2v1l1,1l1,2v1l1,1l2,1v1h1v1h1v1l-1,1h1l1,1h3l1,-1h3v-1h1v2l-1,1v3l-1,1l-3,6l-1,1l-2,1l-1,1l-1,2v1h-1v1h-1v2l-1,1l-1,2l1,1v4l1,1v7l-1,1h-1l-3,3h-1v1l-1,1v2h1l-1,1h1v1l-1,1h1l-1,1h-1l-2,2v3l-3,3v1l-2,1v1l-1,1h-2v1l-1,-1v1l-1,-1l-1,1h-2l-1,1l-1,-1h-1v-5l-1,-1v-2l-1,-1v-1l-1,-1v-5l-1,-1v-1l-1,-2v-1l-1,-1v-3l1,-1v-3h1v-1l1,-1v-1h-1v-5l-1,-1v-2l-3,-3l-1,-2l1,-1v-5l-1,-1v-1l-1,1h-2l-1,-1v-1l-1,-1h-2l-1,1h-2l-1,1h-6l-1,1l-4,-4h-1l-1,-1v-1l-1,-1v-1h-1v-1l-1,-1v-1h-1v-3h-1l1,-1v-1h1l-1,-1l1,-1v-4l-1,-1v-1h1v-2l1,-1v-1h1v-2h1l1,-2h1l2,-2v-3l3,-3l1,-2v-1h1l1,1h2l1,-1h2l1,-1h4l1,-1h1v1h1l1,-1h1v1l1,-1v1h-1v1h1v2h-1v1h1v1h3l2,2h1l2,2l1,-1v-2l1,-1h2l1,1h1l1,1h2l1,1h1v-1h2l1,1v-1h1l1,1v-2l1,-1v-5h-2l-1,1l-1,-1h-2v1l-1,-1h-2v-1l-1,-1v-2l1,-1h1v-1h2l1,-1h1l2,-1l2,1l1,1h2l1,-1v-2h-1l-2,-2h-1l-1,-1l1,-1l-1,-1h2l-1,-1v1h-2l-1,1v1h1l-1,1h-1v-1h-1l1,-1h-2v-1h-1v1l-1,1v1h-1v4l1,1h-2v1h-1v-1h-2l1,1h-2v1l1,1h-1h1l1,1v1l-1,-1v1h-1l1,1h-2v-2l-1,-1v-1h-1v-3h-1v-1h-1l-1,-1h-1l-1,-1v-1l-1,-1v1v-1h-2v1l2,2v1l1,1h1l1,1h1l1,1v1l-1,-1h-1v1h1v1h-1v1h-1v-1h1l-1,-1v-1h-1l-1,-1h-1l-2,-2l-1,-2h-2v1h-4l-1,1v2h-2v1l-1,2h1l-1,1v1h-1l-1,1h-2l-1,1l-2,-2v1h-2l1,-1v-1h-1v-2l1,-1v-3l-1,-1l2,-1l1,1h5v-4l-1,-1v-1h-2v-1h3v-2l1,1l2,-1v-1h1l1,-1l1,-2l1,-1h2v-5h2l-1,1h1v1l-1,1v1h1v1l1,-1h2v1h1l2,-2l1,1h1v-1h1v-3l1,-1l1,1v-1l-1,-1v-1h4l1,-1h-4l-1,1l-2,-2v-4l2,-1v-1l-1,-1l-2,2l-1,2l-1,1v3h1v2h-1v2l-1,2h-1v1h-1v-2l-1,-1l-1,-2l-1,-1l-1,2h-1l-2,-1v-5l2,-1l3,-3l2,-3l3,-3h2l1,-2h3l2,1l-1,1h2l1,1h3l3,1l1,1v1l-1,1h-1l-3,-1h-1l2,1v2l1,1h1v-1h-1l1,-1l2,1v-1l1,-2h1l1,1v-1l-1,-1v-1l-1,-1l2,1h1l-1,1l1,1h1v-1l1,-1l2,-1h1v1l1,-1h1l1,-1l1,1l1,-1h-2l1,-1h2l1,1l4,1v-1h-2v-1h-1l-1,-1v-3h2l1,1v1h1l1,1l1,2h1v3l1,1v-1h1l-1,-1l1,-1h-1l-2,-2v-1l-2,-1l1,-1l-1,-1h1l1,2l-1,-1l1,-1h2l1,1l-1,-1l-1,-2h4l-2,-1v-1h1l1,-1h3l1,-1h1v-2l2,1h-1ZM253,820l1,1v2h-1v1l1,1h1l1,1h3l-1,-1v-2h-1v-2h1v-1l-1,-1h-1l1,1l-1,-1v-1h-2v-2h-1h1v-2l1,1v-3h-2l-1,1h-1v1h-1l-1,2l2,1v1l1,1Z"/>
<path class="tl" d="M146,770h-1v-1h1l1,1ZM137,769h-2l1,-1h1l1,1ZM220,771l-1,1h-1v-1h-1l2,-1v1ZM139,768h-2l1,-1v1ZM146,769h-1v-1h1l1,1ZM144,769h-1l-1,-1h-1h1v-1h1l1,1ZM268,768l-3,1v-2ZM215,769l3,1h-2v3h-1l-2,-1h1l-1,-1l-2,-1v-1l1,-1l1,1h1v-1h1ZM220,768h1l-1,1h-4l-1,-1h3ZM234,767l-1,1h-1v-1h-1h4ZM264,768h-4l-2,-1l-1,-1h1l1,-1l4,2ZM153,767v1h-1l-2,1h-2v-1h1h-1v-1l1,-1h2v-1h1v1h1ZM167,764h3v1h-3l-1,1h-1l-1,1l-2,1h-3v1h-1v1h-2l-2,1h1l-2,1h-4l-1,-1h2v-1h2v-1h-1h1l1,-1h1l-1,-1h4l-1,-1h-3v-1l1,-1h6v-1h3v1l2,-1l1,1ZM190,764l3,1h-6v1h5l-1,1l2,-1h4v1l-2,1h-1l-2,2v2l1,1h-2l1,1l-1,1v1h-1l1,1h-3l1,1v1l-1,-1l-1,1h1l1,1v1h-2l-1,-1v1l-1,1h3l-4,2h-3l-1,1l-4,2h-1l-2,1h-1v1l-2,2v1l-1,1l-1,2h-1l-1,-1h-1l-1,-1v-2l-1,-1v-1l1,-1l-1,-2l1,-1l1,-2h1l1,-1v-1l-1,1h-1v-1l1,-1h1l-1,-1h-1l1,-1v-4l-1,-1h-5v-1l-1,-1h1l-1,-1l1,-1h2l3,-1h1l-2,-1h1l3,-1h1v-1h9l1,1l-1,-1h1l2,-1h3l2,-1Z"/>
<path class="th" d="M107,856v-1h1v-1h5v1h1h-1v1v-1v1h-2v1h-1v1h-2v-1h1h-1h1h-2ZM109,858h-1ZM110,854v-1h1h-1Z"/>
<path class="tg" d="M66,970h1l1,-1h4v-1h5v-1h5v-1h6v-1h6l1,-1h7v-1h8v-1h9l1,-1h11v-1h14v-1h20v-1h79v1h20v1h14v1h11l1,1h9v1h8v1h7l1,1h6v1h6v1h5v1h5v1h4l1,1h1M21,927h6v-1h7v-1h8v-1h10v-1h10v-1h12v-1h14v-1h18v-1h23v-1h38v-1h75v1h38v1h23v1h18v1h14v1h12v1h10v1h10v1h8v1h7v1h6M5,877h399M21,826h4v1h7v1h8v1h9v1h10v1h11v1h14v1h16v1h21v1h32v1h103v-1h32v-1h21v-1h16v-1h14v-1h11v-1h10v-1h9v-1h8v-1h7v-1h4M66,783v1h5v1h4v1h5l1,1h5v1h6l1,1h6l1,1h7v1h10v1h10v1h13l1,1h17v1h36v1h21v-1h36v-1h17l1,-1h13v-1h10v-1h10v-1h7l1,-1h6l1,-1h6v-1h5l1,-1h5v-1h4v-1h5v-1M140,755h-1v1h-3v1h-2v1h-2v1h-2v1h-2v1h-2l-1,1h-1l-1,1h-1l-1,1h-1v1h-2v1h-2v1h-2v1h-1l-1,1h-1v1h-2v1h-1l-1,1h-1v1h-2v1h-1v1h-2v1h-1v1h-2v1h-1v1h-1l-1,1h-1v1h-1v1h-2v1h-1v1h-1v1h-1v1h-2v1h-1v1h-1v1h-1v1h-1v1h-1v1h-1l-1,1h-1v1h-1v1h-1v1h-1v1h-1v1h-1v1h-1v1h-1v1h-1v1l-1,1v1h-1v1h-1v1h-1v1h-1v1h-1v1l-1,1v1h-1v1h-1v1h-1v2h-1v1h-1v2h-1v1h-1v2h-1v1h-1v2h-1v2h-1v1h-1v2h-1v2h-1v2h-1v2h-1v2l-1,1v2h-1v2l-1,1v2h-1v3h-1v4h-1v4h-1v5h-1v9h-1v13l1,1v8h1v5h1v4h1v4h1v3h1v3h1v2h1v3h1v2h1v2h1v2h1v2h1v2h1v2h1v1l1,1v1h1v2h1v1h1v2h1v1h1v1h1v2h1v1h1v1l1,1v1h1v1h1v1h1v1l2,2v1h1v1h1v1h1v1h1v1h1v1h1v1h1v1h1v1h1v1h1v1h1v1h1v1h1v1h2v1h1v1h1v1h1v1h1v1h1l1,1h1v1h1v1h1v1h2v1h1v1h1l1,1h1v1h1v1h2v1h1v1h2v1h1l1,1h1v1h2v1h1v1h2v1h2v1h1l1,1h1v1h2v1h2v1h2v1h2v1h2v1h2v1h2v1h2l1,1h2v1h2v1h2M153,755h-1v1h-2v1h-2v1h-1v1h-2v1h-2v1h-1v1h-2v1h-1v1h-2v1h-1v1h-2v1h-1v1h-1v1h-2v1h-1v1h-1l-1,1h-1v1h-1v1h-1v1h-1v1h-1l-1,1h-1v1h-1v1h-1v1h-1v1h-1v1h-1v1h-1v1h-1v1h-1v1h-1v1h-1v1h-1v1h-1v1h-1v1h-1v1h-1v1h-1v1l-2,2v1h-1v1h-1v1h-1v1l-1,1v1h-1v1h-1v2h-1v1h-1v1l-1,1v1h-1v2h-1v1h-1v2h-1v1h-1v2h-1v2h-1v2h-1v2h-1v2h-1v2h-1v2h-1v3h-1v2h-1v3h-1v3h-1v3h-1v3h-1v4l-1,1v4h-1v6l-1,1v30h1v6h1v5h1v4h1v3h1v3l1,1v2l1,1v2h1v3h1v2h1v2h1v2h1v2l1,1v1h1v2h1v2h1v2h1v2h1v1h1v2h1v1h1v2h1v1h1v2h1v1h1v1h1v2h1v1h1v1h1v1l1,1v1h1v1h1v1h1v1h1v1h1v1h1v1l3,3v1h1l3,3h1v1h1v1h1v1h1v1h1v1h1v1h1v1h1l1,1h1v1h1v1h1v1h1l1,1h1v1h1v1h1l1,1h1v1h1v1h2v1h1v1h2v1h1v1h2v1h2v1h1v1h2v1h1l1,1h1v1h2M166,755h-1v1h-1v1h-1l-1,1h-1v1h-1v1h-1v1h-1v1h-1v1h-1l-2,2h-1v1h-1v1h-1v1h-1v1h-1v1h-1v1h-1v1h-1v1h-1v1l-2,2v1h-1v1h-1v1h-1v1h-1v1l-1,1v1h-1v1h-1v1h-1v2h-1v1h-1v1l-1,1v1h-1v1h-1v2h-1v1h-1v2h-1v2h-1v1h-1v2h-1v2h-1v2h-1v1l-1,1v1l-1,1v1l-1,1v2h-1v2h-1v2h-1v3h-1v2h-1v3h-1v3h-1v3h-1v3h-1v4h-1v4h-1v5h-1v6h-1v8h-1v30h1v7l1,1v5h1v5h1v4h1v4h1v3h1v3h1v3h1v3h1v3h1v2h1v2h1v2l1,1v2h1v2h1v2h1v2h1v1h1v2h1v2h1v2h1v1h1v2h1v1h1v2h1v1l1,1v1h1v1h1v2h1v1h1v1h1v1l1,1v1h1v1h1v1h1v1l1,1v1h1v1h1v1h1v1h1v1h1v1h1v1h1v1h1v1h1v1h1v1h1v1h1v1h1v1h1v1h1l2,2h1v1h1v1h1v1h1v1h2v1h1"/>
<path class="tg" d="M179,755h-1v1h-1v2h-1v1h-1v1h-1v1h-1v2h-1v1h-1v1l-1,1v1h-1v1l-1,1v1h-1v1l-1,1v1h-1v2h-1v1l-1,1v1h-1v2h-1v2h-1v2h-1v2h-1v2h-1v2h-1v2h-1v2h-1v2l-1,1v2h-1v2l-1,1v2h-1v3h-1v3h-1v3h-1v3h-1v4h-1v4h-1v4h-1v4h-1v5l-1,1v5h-1v8h-1v11h-1v29l1,1v10l1,1v7h1v6h1v5h1v4l1,1v4h1v3l1,1v3h1v3h1v3h1v3h1v3h1v3h1v2h1v3h1v2h1v2h1v2l1,1v2h1v2h1v1l1,1v1l1,1v1h1v2h1v2h1v1l1,1v1h1v2h1v1h1v2h1v1h1v2h1v1h1v1l1,1v1h1v1h1v1h1v2h1v1h1v1h1M192,755h-1v3h-1v2h-1v3h-1v3h-1v3h-1v3h-1v3h-1v3l-1,1v3h-1v4h-1v4h-1v4l-1,1v4h-1v5h-1v6h-1v6l-1,1v7h-1v8h-1v11l-1,1v18h-1v29l1,1v18h1v11h1v8l1,1v7h1v6h1v6h1v5h1v5h1v4h1v4h1v4h1v4h1v3h1v3l1,1v3h1v2l1,1v2h1v3h1v3h1v2h1M205,755v243M217,755h1v3h1v2h1v3h1v3h1v3h1v3h1v3h1v3l1,1v3h1v4h1v4h1v4l1,1v4h1v5h1v6h1v6l1,1v7h1v8h1v11l1,1v18h1v29l-1,1v18h-1v11h-1v8l-1,1v7h-1v6h-1v6h-1v5h-1v5h-1v4h-1v4h-1v4h-1v4h-1v3h-1v3l-1,1v3h-1v2l-1,1v2h-1v3h-1v3h-1v2h-1M230,755h1v1h1v2h1v1h1v1h1v1h1v2h1v1h1v1l1,1v1h1v1l1,1v1h1v1l1,1v1h1v2h1v1l1,1v1h1v2h1v2h1v2h1v2h1v2h1v2h1v2h1v2h1v2l1,1v2h1v2l1,1v2h1v3h1v3h1v3h1v3h1v4h1v4h1v4h1v4h1v5l1,1v5h1v8h1v11h1v29l-1,1v10l-1,1v7h-1v6h-1v5h-1v4l-1,1v4h-1v3l-1,1v3h-1v3h-1v3h-1v3h-1v3h-1v3h-1v2h-1v3h-1v2h-1v2h-1v2l-1,1v2h-1v2h-1v1l-1,1v1l-1,1v1h-1v2h-1v2h-1v1l-1,1v1h-1v2h-1v1h-1v2h-1v1h-1v2h-1v1h-1v1l-1,1v1h-1v1h-1v1h-1v2h-1v1h-1v1h-1M243,755h1v1h1v1h1l1,1h1v1h1v1h1v1h1v1h1v1h1l2,2h1v1h1v1h1v1h1v1h1v1h1v1h1v1h1v1h1v1l2,2v1h1v1h1v1h1v1h1v1l1,1v1h1v1h1v1h1v2h1v1h1v1l1,1v1h1v1h1v2h1v1h1v2h1v2h1v1h1v2h1v2h1v2h1v1l1,1v1l1,1v1l1,1v2h1v2h1v2h1v3h1v2h1v3h1v3h1v3h1v3h1v4h1v4h1v5h1v6h1v8h1v30h-1v7l-1,1v5h-1v5h-1v4h-1v4h-1v3h-1v3h-1v3h-1v3h-1v3h-1v2h-1v2h-1v2l-1,1v2h-1v2h-1v2h-1v2h-1v1h-1v2h-1v2h-1v2h-1v1h-1v2h-1v1h-1v2h-1v1l-1,1v1h-1v1h-1v2h-1v1h-1v1h-1v1l-1,1v1h-1v1h-1v1h-1v1l-1,1v1h-1v1h-1v1h-1v1h-1v1h-1v1h-1v1h-1v1h-1v1h-1v1h-1v1h-1v1h-1v1h-1v1h-1v1h-1l-2,2h-1v1h-1v1h-1v1h-1v1h-2v1h-1M256,755h1v1h2v1h2v1h1v1h2v1h2v1h1v1h2v1h1v1h2v1h1v1h2v1h1v1h1v1h2v1h1v1h1l1,1h1v1h1v1h1v1h1v1h1l1,1h1v1h1v1h1v1h1v1h1v1h1v1h1v1h1v1h1v1h1v1h1v1h1v1h1v1h1v1h1v1h1v1h1v1l2,2v1h1v1h1v1h1v1l1,1v1h1v1h1v2h1v1h1v1l1,1v1h1v2h1v1h1v2h1v1h1v2h1v2h1v2h1v2h1v2h1v2h1v2h1v3h1v2h1v3h1v3h1v3h1v3h1v4l1,1v4h1v6l1,1v14l1,1h-1v15h-1v6h-1v5h-1v4h-1v3h-1v3l-1,1v2l-1,1v2h-1v3h-1v2h-1v2h-1v2h-1v2l-1,1v1h-1v2h-1v2h-1v2h-1v2h-1v1h-1v2h-1v1h-1v2h-1v1h-1v2h-1v1h-1v1h-1v2h-1v1h-1v1h-1v1l-1,1v1h-1v1h-1v1h-1v1h-1v1h-1v1h-1v1l-3,3v1h-1l-3,3h-1v1h-1v1h-1v1h-1v1h-1v1h-1v1h-1v1h-1l-1,1h-1v1h-1v1h-1v1h-1l-1,1h-1v1h-1v1h-1l-1,1h-1v1h-1v1h-2v1h-1v1h-2v1h-1v1h-2v1h-2v1h-1v1h-2v1h-1l-1,1h-1v1h-2"/>
<path class="tg" d="M269,755h1v1h3v1h2v1h2v1h2v1h2v1h2l1,1h1l1,1h1l1,1h1v1h2v1h2v1h2v1h1l1,1h1v1h2v1h1l1,1h1v1h2v1h1v1h2v1h1v1h2v1h1v1h1l1,1h1v1h1v1h2v1h1v1h1v1h1v1h2v1h1v1h1v1h1v1h1v1h1v1h1l1,1h1v1h1v1h1v1h1v1h1v1h1v1h1v1h1v1h1v1l1,1v1h1v1h1v1h1v1h1v1h1v1l1,1v1h1v1h1v1h1v2h1v1h1v2h1v1h1v2h1v1h1v2h1v2h1v1h1v2h1v2h1v2h1v2h1v2l1,1v2h1v2l1,1v2h1v3h1v4h1v4h1v5h1v9h1v13l-1,1v8h-1v5h-1v4h-1v4h-1v3h-1v3h-1v2h-1v3h-1v2h-1v2h-1v2h-1v2h-1v2h-1v2h-1v1l-1,1v1h-1v2h-1v1h-1v2h-1v1h-1v1h-1v2h-1v1h-1v1l-1,1v1h-1v1h-1v1h-1v1l-2,2v1h-1v1h-1v1h-1v1h-1v1h-1v1h-1v1h-1v1h-1v1h-1v1h-1v1h-1v1h-1v1h-1v1h-2v1h-1v1h-1v1h-1v1h-1v1h-1l-1,1h-1v1h-1v1h-1v1h-2v1h-1v1h-1l-1,1h-1v1h-1v1h-2v1h-1v1h-2v1h-1l-1,1h-1v1h-2v1h-1v1h-2v1h-2v1h-1l-1,1h-1v1h-2v1h-2v1h-2v1h-2v1h-2v1h-2v1h-2v1h-2l-1,1h-2v1h-2v1h-2"/>
<rect x="96" y="841" width="28" height="27" fill-opacity="0" stroke="#ffffff" stroke-opacity="0.5" stroke-width="5.0"/>
<rect x="98" y="843" width="28" height="27" fill-opacity="0" stroke="#113311" stroke-opacity="0.8" stroke-width="5.0"/>
<rect x="97" y="842" width="28" height="27" fill-opacity="0" stroke="#45a249" stroke-opacity="0.9" stroke-width="5.0"/>
<rect x="691" y="691" width="309" height="309" fill="#ffffff" fill-opacity="1.0"/>
<rect x="694" y="694" width="302" height="302" fill="#000000" fill-opacity="1.0"/>
<rect x="700" y="700" width="300" height="300" fill="#70add3" fill-opacity="1.0"/>
<path class="zl" d="M862,999l5,-2v-4l-3,-3l-4,-5l-18,-14l-6,-9l-3,-6l-13,-10l-11,-11l-7,-5v-2l3,-3h1l1,2l3,2h1l2,-1v-4l-3,-2l-1,-3l-2,-2l1,-1v-2l-4,-1l-4,1l-2,-1h-2l1,4l-2,2l-2,1l-3,1h-6l-8,-2l-9,-3l1,1l6,2l-1,1l-12,-4l-14,-7l-8,-1l-10,-2l-5,-4l-17,-8l-5,-1h-2v-187l2,-2l1,-4h108l-2,2h-1l-1,1l-2,1l-1,1v3l1,1l2,-3h1l1,1l-3,9l-2,8l-3,5l-1,8l-2,3l-1,3h-1l-3,-6l-3,-3l2,-7l-1,-4h-1l-4,4v3l-3,4l-1,1l-2,4l2,1h6l1,4v4l-4,9l-2,9l2,3l-2,4l-1,3v4l1,8l-2,12l-3,5l-2,2l-4,5l-4,1l-6,8l-1,2v2l2,1h1l3,2l4,2l2,-3l-1,-2l-1,-1v-1l12,8l4,1l2,-2l2,-1l3,-2l1,-1l6,-1h3l2,3l2,1l4,-1h3l13,2l5,-1h9l4,1l6,-4l8,-2v-2l-1,-1l7,1l10,4l10,-1l4,-2l3,-1l11,4l3,3h2l2,-1l-2,-1l-1,-1l9,2l16,13v1l-7,-4l-3,1h-1v4h2l1,-1l3,1l2,1l2,2l2,3h1l2,-2h2l2,2h2l-2,-3l-4,-2h1l9,4l3,6l4,2l-1,2l-1,1l-2,4h-1v-3h-1l-2,1v1l1,2h1l1,1l4,14v3l-5,7l-2,2l-3,9l-2,15l2,13l-1,12l1,3v4h-3l-1,-2v-2l1,-2l1,-3l-1,-2l-1,4l-2,1l-1,1l-1,2l1,3l2,2l1,2l-1,2v7h-1l-1,-1h-1l-1,3l1,2l-2,1v1l1,1h3l2,7l-3,2l-2,2l-2,6l-1,2l4,10l2,2l2,1l1,1h-78Z"/>
<path class="zp" d="M700,893v-187M703,700h108M940,1000h-78"/>
<path class="zl" d="M793,755h-1l1,-2v-1l2,-5h2ZM797,772l-3,5v-1l1,-4l1,-1l1,-2v-1l2,1l-1,1Z"/>
<path class="zh" d="M745,877v-3h1l3,-3h3v-5l-1,-1v-1l-1,-1v-1h-1v-1l2,-2v-1l1,-1l-1,-1v-1l1,-1h1l1,-1l3,-1l1,-1l7,-5l6,-4l4,-4l3,-1l2,-4h2l1,-1v1v-2h1l1,2h1l3,-3h1v-1h1l2,-1h1v-1h-1v-1h3l3,-1h3l1,1h1l-1,-1h1l1,-1l-1,1v1l4,3h2v-1h2v-1h1l7,2h3l3,1h5l1,-1h12v1h3l3,-2l1,-1v-1h7l1,-1l2,-1v-1h1l-1,-1h-2l-1,-1h3l2,1h3l2,1h1v1h1l1,1l4,2l2,-1h6l2,-1l3,-2l1,-1h3l2,1l3,1l4,2h2v4h2v-1h3l1,1l1,-1l-1,-1h-4l-1,-1l6,1h6l1,2l7,5l5,5l3,1v1h3v1h-2l-2,-2h-2l-1,-1h1h-1l-1,-2v1l-1,-1h-2v1h-1v-2h-1v1l1,1v1l-1,-2l-1,-1h-1v1h-1v-1h-1l1,1v1h1h-1v1h1v-1l1,-1l1,1v2l-1,1h1v1l1,1h1v1l1,-1l-1,-1l1,1v1l1,1h1v1h1v1h2l1,-1h1h-1l-2,-2l-3,-1l-1,-1h-1l1,-1h1l3,1v1l1,1h2v1h1h-1v1h1v2h2l1,-1h1l1,-1v-1h1l2,1l1,-1v1h-1h1v1l-1,1l-1,-1h-1v1h-1v1h1v-1v1l1,1h1v-1l1,-1h1v-1h-1v-2h-3v-1h-1l-1,-1h-2v-1l1,-1v1h1v1l4,1l5,2l2,2v2l1,2l2,2l4,1h-2l-1,1h-2v-1h-3l-1,-1v1h-1v1h-1l-1,-1h-1v2h-1v1h-1l-1,1v1h-1v-1h-2v1h-1l1,1h-2l-2,1h1h-1l-1,1h-2l-1,-1v2h-5v-1h-1v1l1,1h-2l-1,1l-1,-1h-1v-1h-1v3h-3v-1h-1v1l-1,1h-1l-1,1h-1l-1,-1v1v-1h-2l-1,-1h-3v-1l-1,-1v-1h-1v-1l-1,-1h-4v1l-2,1l-2,2v1l-1,1l1,1l-1,1h1l-2,2v-1h-2v3l-1,1v1l-1,1h1l1,1v1l-1,1h-4v1h-1v1h-1l-1,1v1l-1,1v1l-1,1h-1l-1,1v1h-2l-1,1h-1l-2,2h-2v3h1v1l-1,1v-1h-3l-1,-1v-1h-2l-1,-1l-3,-2v-1l1,-1h-3v1h-1v1h-1v1h-1l-1,2l-3,3v2h-1l-1,1h-2v-1h-3l-1,-1l-1,1h-6v1h-1v3l1,1v2l1,4v1l-1,1v1h1v1l1,1h-1v1l-1,1l-2,-1l-1,-1v1h-1l-2,1v6h-1l-1,2h-1l-1,1h-9v-1h1h-1v-1h-1l-1,-1l1,-1h-3v-3l-2,-2v-1h-1v-1h1l1,-1v-1h3v-1l-1,-1h-2l-1,1v1h-2l-1,-1h-1v1h-1v-1l1,-1h-1v-2l-1,1v2l-1,1h-2v-1h-2v-1l2,-1h1v-2h-2v-2l1,-2v-3h1v-1h-1l1,-1v-1l1,-1h-1l-2,-2h-1v-1h-2v1l-1,-1l-1,1l-1,-1v1h-2v-1h-1v-1h-1v-2h-6v1h1v1h-2v1h-1v1l-1,-1h-1v1h-3v1h-1v-5h-2l-3,-1h-2v-1h-2v-1l1,-1l-1,-1v1h-3v-2l-2,-2l-1,1h-1v-2h-1v-1h-1v-2h-2v-2h-1v-1v1l-1,1l-2,-1h-1l-1,-1h-1Z"/>
<rect class="zh" x="802.5" y="916.5" width="1" height="1"/>
<rect class="zh" x="803.5" y="914.5" width="1" height="1"/>
<path class="zh" d="M829,818v1h-2l-1,1l-1,-1l2,-1h1ZM838,812v-1l1,-1h2l1,-1l4,-2h6l-1,1l-1,-1l-1,1h-3v1h-2l-2,2h-2l-2,2ZM861,806l1,-1v-1h2v1h-1v1h-1v1l-2,1v-1Z"/>
<rect class="zh" x="927.5" y="771.5" width="1" height="1"/>
<path class="zw" d="M899,987l1,2v2l1,1l-3,3h-3l-2,-1h-4l-10,-4l-4,-1l-4,-2l-3,-3l-1,-2l-2,-2l-1,-3l-1,-2v-2l-1,-1v-6l-1,-3v-1l2,-4h4l3,1l2,2l6,4l2,2l4,2l4,4l4,5l4,4l2,3ZM762,832l-4,2v2l-1,3l-2,2l-4,1h-3l-1,1l-1,-1l-1,-2l-1,-1h1l6,-3l3,-1l8,-5h1v1ZM855,951v3l-3,1l-2,1l-2,-1v-3h-6l-2,-1l-1,-1l-1,-2v-1h4l3,-2h3l2,3l3,3l1,-1Z"/>
<path class="zb" d="M939,999v1M919,1000h-1l-3,-3h-2l-3,-1l-5,-1l-2,-1l-3,2l-4,2l-22,-7l-1,-1h-2l-1,1l-1,2v1h-2M761,825h-11v-9l1,-13v-10l1,-9v-8l1,-9v-9M720,900l-1,-2v-2l2,-2l4,-3l2,-2h3l4,-4l4,-2v-2l-1,-2l1,-2h2l3,-1h1l1,1M782,735h-5l-2,1l-3,6l-5,7l-2,4l-2,1l-1,1l-1,-1l-4,-2l-3,1l-1,2v3h-34l-14,-1h-5M700,795l1,1l2,3v4l2,1l4,1l1,2v1l-1,4v6h-9"/>
</svg>
