<?xml version="1.0" encoding="UTF-8" standalone="no"?>
<svg xmlns:svg="http://www.w3.org/2000/svg" xmlns="http://www.w3.org/2000/svg" xmlns:xlink="http://www.w3.org/1999/xlink" height="1000" width="1000">
<!-- made with pythonshp (GPL): github.com/sanjayrao77/pythonshp , underlying data may come from naturalearthdata.com -->
<!-- 
COPYRIGHT: THIS SVG FILE IS RELEASED INTO THE PUBLIC DOMAIN
 -->
<!-- 
vars : {
	'cmdline' : 'pythonshp.py publicdomain wiki1 indonesia locatormap'
	'title' : 'Indonesia locator'
	'version' : '1.0.5'
}
 -->
<defs>
	<radialGradient id="watergradient" cx="500" cy="500" r="500" fx="500" fy="500" gradientUnits="userSpaceOnUse">
		<stop offset="0%" stop-color="#70add3"/>
		<stop offset="11%" stop-color="#6eaad0"/>
		<stop offset="22%" stop-color="#6ca7cc"/>
		<stop offset="31%" stop-color="#6ba5c9"/>
		<stop offset="41%" stop-color="#69a2c6"/>
		<stop offset="51%" stop-color="#679fc2"/>
		<stop offset="59%" stop-color="#669dbf"/>
		<stop offset="67%" stop-color="#649abc"/>
		<stop offset="75%" stop-color="#6297b9"/>
		<stop offset="81%" stop-color="#6095b6"/>
		<stop offset="87%" stop-color="#5f92b2"/>
		<stop offset="92%" stop-color="#5d8faf"/>
		<stop offset="95%" stop-color="#5b8dac"/>
		<stop offset="98%" stop-color="#598aa8"/>
		<stop offset="100%" stop-color="#5685a2"/>
	</radialGradient>
	<radialGradient id="landgradient" cx="500" cy="500" r="500" fx="500" fy="500" gradientUnits="userSpaceOnUse">
		<stop offset="0%" stop-color="#dddddd"/>
		<stop offset="11%" stop-color="#d7d7d7"/>
		<stop offset="22%" stop-color="#d1d1d1"/>
		<stop offset="31%" stop-color="#cccccc"/>
		<stop offset="41%" stop-color="#c6c6c6"/>
		<stop offset="51%" stop-color="#c0c0c0"/>
		<stop offset="59%" stop-color="#bbbbbb"/>
		<stop offset="67%" stop-color="#b5b5b5"/>
		<stop offset="75%" stop-color="#afafaf"/>
		<stop offset="81%" stop-color="#aaaaaa"/>
		<stop offset="87%" stop-color="#a4a4a4"/>
		<stop offset="92%" stop-color="#9e9e9e"/>
		<stop offset="95%" stop-color="#999999"/>
		<stop offset="98%" stop-color="#939393"/>
		<stop offset="100%" stop-color="#888888"/>
	</radialGradient>
	<radialGradient id="bordergradient" cx="500" cy="500" r="500" fx="500" fy="500" gradientUnits="userSpaceOnUse">
		<stop offset="0%" stop-color="#444444"/>
		<stop offset="11%" stop-color="#3f3f3f"/>
		<stop offset="22%" stop-color="#3a3a3a"/>
		<stop offset="31%" stop-color="#363636"/>
		<stop offset="41%" stop-color="#323232"/>
		<stop offset="51%" stop-color="#2d2d2d"/>
		<stop offset="59%" stop-color="#292929"/>
		<stop offset="67%" stop-color="#242424"/>
		<stop offset="75%" stop-color="#1f1f1f"/>
		<stop offset="81%" stop-color="#1b1b1b"/>
		<stop offset="87%" stop-color="#161616"/>
		<stop offset="92%" stop-color="#121212"/>
		<stop offset="95%" stop-color="#0e0e0e"/>
		<stop offset="98%" stop-color="#090909"/>
		<stop offset="100%" stop-color="#000000"/>
	</radialGradient>
</defs>
<style type="text/css">
<![CDATA[
.fs {font:14px sans;stroke:#ffffff;stroke-width:2px;stroke-opacity:0.8;text-anchor:middle}
.ft {font:14px sans;fill:#000000;fill-opacity:1;stroke-opacity:0;text-anchor:middle}
.sb {stroke:url(#bordergradient);fill-opacity:0}
.sg {stroke:#000000;fill-opacity:0.0;stroke-opacity:0.2}
.sh {fill:#45a211;stroke:#000000}
.sl {fill:url(#landgradient);stroke:url(#bordergradient)}
.sp {stroke:url(#landgradient);fill-opacity:0}
.sr {stroke:url(#watergradient);fill-opacity:0}
.sw {fill:url(#watergradient);stroke:url(#watergradient);stroke-opacity:0.8}
.tb {fill:#eeeeee;stroke:black;stroke-width:2}
.tg {stroke:black;stroke-opacity:0.2;fill-opacity:0}
.th {fill:#45a211;stroke:#378100}
.tl {fill:#aaaaaa;stroke:black}
]]>
</style>
<circle cx="500.0" cy="500.0" r="500.0" fill="url(#watergradient)"/>
<path class="sl" d="M219,86v1h-1l-1,1h-1v1h-1v1h-1l-1,1h-1l-2,2h-1v1h-1l-1,1h-1v1h-1v1h-1l-1,1h-1v1h-1v1h-1h1v-1v1h-1l-1,1h-1v1h-1v1h-1l-1,1h-1v1h-1h1l1,-1h1l-1,1h-1l-1,2h-2v1h-1v1h-1v1h-1v1h-1v1h-1v1h-1l-1,1h1h-1v1v-1h1v1h-1l-1,1h1l-1,1h1h-1v1h-1v1h-1v1l-1,1h-1v1h-1l-3,3h-1v1l-1,1h-1v1h-2l-1,1h-1v1h-1v1h-1v1h-1v1h-1l-1,1h-1l-1,1h-1v1l-2,1l-1,1h-1v1l1,-1h-1v1l-1,1h-1v1v-1h1v-1l1,-1l-1,1h-1l1,-1h1v-1h1v-1h1h-1h1v-1h1l1,-1v-1h1h-1v1h-1l-1,2h-1h1v-1v1h-1v1h-1l-2,2v1l-2,1l-4,4l-2,1v1l-1,1l3,-3v-1l1,-1h1l11,-11h1l8,-8h1l7,-7h1l6,-6h1l1,-1h1l5,-5h1l4,-4h1l2,-2h1l3,-3h1l3,-3h1l2,-2h1l3,-3h1l1,-1Z"/>
<path class="sp" d="M145,148l3,-3v-1l1,-1h1l11,-11h1l8,-8h1l7,-7h1l6,-6h1l1,-1h1l5,-5h1l4,-4h1l2,-2h1l3,-3h1l3,-3h1l2,-2h1l3,-3h1l2,-2"/>
<path class="sl" d="M662,27h1l1,1l-1,-1l1,1h1l1,1h2l1,1h2l1,1h2l1,1h2l1,1h2l1,1h1l1,1h2l1,1h1l1,1h1l1,1h2l1,1h2l2,2h2l1,1h1l1,1h2l1,1h1l1,1h1l1,1h1l1,1h1l1,1h2l1,1h1l2,2h1l1,1h1l1,1h2l1,1h1l1,1h1l2,2h1l1,1h2l2,2h1l1,1h1l1,1h1l2,2h1l1,1h1l1,1h1l2,2h2l2,2h1v1h1l1,1h1l2,2h2v1h1v1h1l1,1h1l2,2h1l1,1h1v1h1h-1h1v1h1h-1h1v1h2v1h1v1v-1h-1h1v1h1v1h2v1v-1h-1v1h1v1v-1h-1v-1h-1l1,1h1v1h1v1h1h-1v-1h-1l1,1h1v1l-1,-1h1v1l-1,-1h-1v-1h-1v-1l-1,-1h-1v-1h-1v-1v1h1l1,1l-1,-1h1v1v-1h-2v-1h-1l-3,-3h-1h1h-1v-1h-1l-1,-1h-1v-1h-1h1h-1v-1h-1l-2,-1l-1,-1h-1v-1h-1l-1,-1h-1v-1h-1l-1,-1v1h1l1,1l-1,-1h-1l-2,-2v1h1l1,1h1l1,1h1v1l-1,-1l-2,-1l-1,-1v1v-1h-1l-1,-1l2,2h1h-1l-1,-1h-1v-1h-1l-2,-1l-1,-1h-1l-1,-1l-2,-1l-1,-1h-1l-2,-2h-1l1,1h1l2,2h1v1l-1,-1h-1l-1,-1h-1l-1,-1h-2l-2,-2h1v1h1v-1h-3v-1h-2v-1v1h1h-1l-1,-1h-1v-1h-2v-1h-2v-1h-1l-1,-1h-1v-1v1v-1h-1l-1,-1h-1l-1,-1h-1h2v1v-1h-1l-1,-1h-1h1l-1,-1h-1l-1,-1h-1l-1,-1l-2,-1h-1l-1,-1h-2v-1l2,2h1h-1l-1,-1l1,1h1h-3l-1,-1h-2v-1h-1l-1,-1h-2l-2,-1h-1l-1,-1h-1h1h-1v-1h-1h1h-1v-1h-1l-1,-1h1h-1h1v1h2v1h2l-1,-1h-2l-1,-1h-1l-1,-1l1,1h1l1,1h1h-1v-1v1l-1,-1h-1l-1,-1h-2l-1,-1h-1l-2,-1h-1l-4,-2h-3v-1h-2l-2,-1h1h-1v-1h-1l-1,-1h-2l-1,-1l-3,-1h-1h1h-1v-1h-1h1l1,1h-1v-1h-1h1h-2l-1,-1h-1h1v1h1h-1v-1v1v-1h-2l-1,-1h-1h1l1,1Z"/>
<path class="sp" d="M663,27l1,1h1l1,1h2l1,1h2l1,1h2l1,1h2l1,1h2l1,1h1l1,1h2l1,1h1l1,1h1l1,1h2l1,1h2l2,2h2l1,1h1l1,1h2l1,1h1l1,1h1l1,1h1l1,1h1l1,1h2l1,1h1l2,2h1l1,1h1l1,1h2l1,1h1l1,1h1l2,2h1l1,1h2l2,2h1l1,1h1l1,1h1l2,2h1l1,1h1l1,1h1l2,2h2l2,2M756,71h1l1,1h1l2,2M661,27h1"/>
<path class="sl" d="M71,243v1v-1l2,-2v-1l2,-2h-1v1v-1h1l-1,1l1,-1l-1,1l1,-1l-1,1v1h-1v1l1,-1l-1,1l1,-1v1l1,-1v-1v1l-1,2l-1,1l-1,2v1l-1,2l-2,2l-1,2v1l-1,1l-2,4l-2,3l-1,2l-1,1v1l-1,1l2,-4v-1l1,-1v-1l1,-1v-1l1,-1v-1l1,-1v-1l2,-2v-1l-1,1v1l-1,1v1h-1v1l-1,2l-1,1v2h-1v1l-1,2v1l-1,1l-2,4v2l-1,1l-1,3l-1,1l-3,6v2l-1,2l-2,6l-1,1v2l-1,1v1h-1l-1,3v1l-1,3l-1,1v3l-1,2v1l-1,2v2l-1,2v2h-1v-1v2l-1,1v2l-1,1v2l-1,3l-1,2l-1,4l-1,2v7l-3,10l-1,5v2l-1,1v8l1,1v21l-1,1v1l-1,1v1l-1,1v1v-1h1v4l1,3v2h2l1,-2l1,-1h2l2,-1l1,-2h2l2,-2l1,1v-1h2l4,-4v-1l1,-1l1,1v2l-1,1v4l-1,3v2h-1h1v-1v1h1v1l-1,-1l-1,1v1l-1,3v2l-1,2v2l-1,1l-1,2v2l-1,1l-1,3l-1,2v2l-1,2v2l-2,4l-1,3v2l-2,6l-2,9l-4,11l-4,9l-4,8v2l-2,5l-2,7v3l-1,2v4l-1,2v4l-1,1v5h-1v17l-1,1v11l1,2v3l1,1v2l1,1v8l1,2v3l1,3v2l1,2v4l1,1v2l1,1v1l1,1v3l1,1v4l1,1v4l1,1v4h1v4l1,1v3l1,1v2l1,3v2h1v1v-1v2l1,1v4l1,2v7l1,1v6h-1v9h1v5h1v1l-1,-1l1,1v3l1,2v2h-1l1,1v1l2,4v1l1,1v1l1,3l2,4v1l2,4v1l1,1v-1h-1v-1l1,1l1,2v1l1,2v1l2,5v1h1l-1,-1l1,1v2h1v2l1,1v5l1,1v2l1,2v1l1,1v1l1,1v-1v1l2,5h1v2l2,3v1l3,4l1,3v1l1,1v1l2,4l1,1l1,3l1,1l1,3l2,2l1,2l1,3h1v1l1,1l1,3l1,2l2,2l3,6l1,1l-1,-1v-1l-1,-1v-1l-2,-2v-1l-3,-3v-1l-1,-1v-1l-1,-1v-1l-2,-2v-1l-1,-1v-1l-1,-1v-1l-3,-3v-1l-1,-1v-1l-1,-1v-1l-1,-1v-1l-2,-2v-1l-1,-1v-1l-1,-1v-1l-1,-1v-1l-1,-1v-1l-1,-1v-1l-1,-1v-1l-1,-1v-1l-2,-2v-1l-1,-1v-1l-1,-1v-1l-1,-1v-1l-1,-1v-1l-1,-1v-1l-1,-1v-2l-1,-1v-1l-1,-1v-1l-1,-1v-1l-1,-1v-1l-1,-1v-2l-1,-1v-1l-1,-1v-1l-1,-1v-2l-1,-1v-1l-1,-1v-1l-1,-1v-3l-1,-1v-1l-1,-1v-2l-1,-1v-1l-1,-1v-2l-1,-1v-2l-1,-1v-1l-1,-1v-2l-1,-1v-2l-1,-1v-2l-1,-1v-1l-1,-1v-3l-1,-1v-2l-1,-1v-2l-1,-1v-3l-1,-1v-2l-1,-1v-2l-1,-1v-3l-1,-1v-3l-1,-1v-2l-1,-1v-3l-1,-1v-3l-1,-1v-3l-1,-1v-3l-1,-1v-4l-1,-1v-4l-1,-1v-4l-1,-1v-3l-1,-1v-6l-1,-1v-4l-1,-1v-6l-1,-1v-5l-1,-1v-8l-1,-1v-8l-1,-1v-10l-1,-1v-15l-1,-1v-44l1,-1v-15l1,-1v-10l1,-1v-8l1,-1v-8l1,-1v-5l1,-1v-6l1,-1v-4l1,-1v-6l1,-1v-3l1,-1v-5l1,-1v-3l1,-1v-3l1,-1v-3l1,-1v-4l1,-1v-3l1,-1v-3l1,-1v-2l1,-1v-4l1,-1v-2l1,-1v-2l1,-1v-2l1,-1v-3l1,-1v-2l1,-1v-3l1,-1v-1l1,-1v-2l1,-1v-2l1,-1v-2l1,-1v-2l1,-1v-1l1,-1v-2l1,-1v-1l1,-1v-2l1,-1v-2l1,-1v-2l1,-1v-1l1,-1v-2l1,-1v-1l1,-1v-2l1,-1v-1l1,-1v-1l1,-1v-1l1,-1v-2l1,-1v-1l1,-1v-1l1,-1v-1l1,-1v-1l1,-1v-2l1,-1v-1l1,-1v-1l1,-1v-1l1,-1v-1l1,-1v-1l1,-1v-1l1,-1v-1l2,-2v-1l1,-1v-1l1,-1v-1l1,-1v-1l1,-1v-1l2,-2v-1l1,-1v-1l1,-1v-1l1,-1v-1l1,-1v-1l1,-1v-1l3,-3Z"/>
<path class="sp" d="M83,776l-1,-1v-1l-1,-1v-1l-2,-2v-1l-3,-3v-1l-1,-1v-1l-1,-1v-1l-2,-2v-1l-1,-1v-1l-1,-1v-1l-3,-3v-1l-1,-1v-1l-1,-1v-1l-1,-1v-1l-2,-2v-1l-1,-1v-1l-1,-1v-1l-1,-1v-1l-1,-1v-1l-1,-1v-1l-1,-1v-1l-1,-1v-1l-2,-2v-1l-1,-1v-1l-1,-1v-1l-1,-1v-1l-1,-1v-1l-1,-1v-1l-1,-1v-2l-1,-1v-1l-1,-1v-1l-1,-1v-1l-1,-1v-1l-1,-1v-2l-1,-1v-1l-1,-1v-1l-1,-1v-2l-1,-1v-1l-1,-1v-1l-1,-1v-3l-1,-1v-1l-1,-1v-2l-1,-1v-1l-1,-1v-2l-1,-1v-2l-1,-1v-1l-1,-1v-2l-1,-1v-2l-1,-1v-2l-1,-1v-1l-1,-1v-3l-1,-1v-2l-1,-1v-2l-1,-1v-3l-1,-1v-2l-1,-1v-2l-1,-1v-3l-1,-1v-3l-1,-1v-2l-1,-1v-3l-1,-1v-3l-1,-1v-3l-1,-1v-3l-1,-1v-4l-1,-1v-4l-1,-1v-4l-1,-1v-3l-1,-1v-6l-1,-1v-4l-1,-1v-6l-1,-1v-5l-1,-1v-8l-1,-1v-8l-1,-1v-10l-1,-1v-15l-1,-1v-44l1,-1v-15l1,-1v-10l1,-1v-8l1,-1v-8l1,-1v-5l1,-1v-6l1,-1v-4l1,-1v-6l1,-1v-3l1,-1v-5l1,-1v-3l1,-1v-3l1,-1v-3l1,-1v-4l1,-1v-3l1,-1v-3l1,-1v-2l1,-1v-4l1,-1v-2l1,-1v-2l1,-1v-2l1,-1v-3l1,-1v-2l1,-1v-3l1,-1v-1l1,-1v-2l1,-1v-2l1,-1v-2l1,-1v-2l1,-1v-1l1,-1v-2l1,-1v-1l1,-1v-2l1,-1v-2l1,-1v-2l1,-1v-1l1,-1v-2l1,-1v-1l1,-1v-2l1,-1v-1l1,-1v-1l1,-1v-1l1,-1v-2l1,-1v-1l1,-1v-1l1,-1v-1l1,-1v-1l1,-1v-2l1,-1v-1l1,-1v-1l1,-1v-1l1,-1v-1l1,-1v-1l1,-1v-1l1,-1v-1l2,-2v-1l1,-1v-1l1,-1v-1l1,-1v-1l1,-1v-1l2,-2v-1l1,-1v-1l1,-1v-1l1,-1v-1l1,-1v-1l1,-1v-1l3,-3v-1"/>
<path class="sl" d="M121,174v-1h1v-1l1,-1h1v-1v1v-1v1l1,-2l2,-1l1,-1v-1h1l1,-1h1l1,-1h-1v1l-1,1v1v-1l-1,2l-1,1h1v-1v1l-1,1h1l-1,1h1v-1h2v1v-1v1l4,-4h1l1,-2h1v-1h1l1,-1l2,-4h1v-1l1,-1v-2h1v-1h1v2h1v3h-1v1v-1h1l1,-1v1l1,-1v1l-1,1h1l-2,2v2h-1v1h-1v1h-1v2h-1v1h-1l1,-1h-1v-1l-1,1h-1v2l-3,3v2h-1v1h-1v1h-1v3h-1v1h-1v1l-2,2v-1h1v-1l1,-1v-1h1v-1l-1,1v-2h1h-1l-1,1v1h-1v2l-1,1h1v1l1,-1l2,-1l2,-2h1v-1h1l1,-1v2h-1v1h-1v1l-1,1h-1v2l-1,1h1l-1,2l-1,1v1l-1,1v2h1v1l-1,1v2l1,1h2l5,-2h1h-1l1,1v-1h1l1,-2v-1h2v-1h2l1,-2h1l2,-2h4v-1l1,-1h1v1h1v1h-1h1v1h1v1h2l1,1v6h3l-1,1v1l-1,1v1h-1v2h-1v2h-1v1h-1v1l-2,2v1h-1v1h-1v1h-1v1h-1v1l-1,1l-1,2l-1,1v1h1l-3,3v1l-1,1v2l-1,2l-1,1v1l-1,1v1l-1,1v1h2l1,1l-1,2v1l-1,1l-2,1l-1,2l-4,4v4l-1,2v4h1l1,1v1h1l-1,2v1l-1,3l-1,1v1l2,-1v1l-1,1v1l-1,1v1h-2l-1,1h-1l-1,1v1l-1,-1v1l-1,1h-1l-1,1v2h-1v2l-1,2l-1,1h-2l-2,-1l1,-1h-1l-1,1l-1,-1l-1,1v-1h-3v-1h-3v-1l-1,1v-1h-1v-3l2,-4v-4h-2l-1,1l-2,1l-1,1h-1v1l-2,1l-1,1v-1l-1,-1h-1l-1,-1l1,-1h-1v-1l-1,-2l1,-1v-1h-1v-1h-1v-3l2,-4v-4l1,-1v-2l1,-2v-1l1,-1h-1l-2,1v-2h1v-1l-1,1v1l-1,1h-1v1h-1v-1h-1v1l-1,1v2h-1v1h-1v1l1,-1v1h-1v1l-1,2v2l-1,1v1l-1,2v2l-1,1v1h1v1h-1v6l-1,1v2l-2,2v5l-1,1v4h-1v1h2v1h-1v1h1l-1,1h1l-1,1v1h2l1,-1v-1h2v1h2l2,-1v-1h1v-1h1v-1l4,-4l1,-2l7,-7v-1v1v-1h1v-1v1l-1,1l-1,3h-1v2l-2,4v8l2,2h1l1,1v-1h1v8l1,1h1l-1,1v2l-3,3l-1,3h-1l-1,1l-1,2l-2,2l-1,3l-1,1h-1v-1l1,-1h-1l-1,2l-1,1v1l-1,1v2l-1,1v2l-1,1v2h-1l-1,1h-1l-1,1h-1l-1,2l-1,3l-1,2h-2l-2,1l-2,2v2l-1,2l-1,1h-3l-2,2h-1l-1,1h-1l-4,4l-1,2v3h-1v1h-1v1l-2,2h-1l-2,1l-2,2l-2,1l-2,2v1l-1,1v1l-1,1h-2v1l-3,3h-1v1h-1v1h-3v1l-1,2l-1,1v1h-1l-1,1v1h-1v-1h-1v-5l2,-5v-5h1v-6l1,-1v1v-4l2,-6l1,-1v-6l1,-1v-7l1,-2v-3l1,-1v-1l1,-3v-8l1,-2v-2l1,-3v-1h1v-2l1,-1v-1l1,-2v-1l1,-2v-2h1v-3l1,-1v-2l1,-1v-1l1,-2v-4l1,-1v-1l1,-1v-1l1,-1l1,-3v-2l1,-1l2,-4v-2l1,-2l1,-1v-2l2,-4v-1v1v-1l1,-1l1,-2l1,-1l2,-5l1,-1v-1v1v-1l1,-2l2,-2l1,-2v-1l1,-2l1,-1l1,-2v-1h1l1,-1v-1l1,-2l2,-2l2,-4l2,-2v-1h1v-1h1h-1h1v-1l1,-1l-1,1l1,-1l-1,1v1h-1h1h-1v1h-1l2,-2v-1l2,-3l1,-1l1,-2l1,-1h1v-1h1l1,-2v-1h1v-2h1v-1l3,-3v-1l2,-2v-1l2,-2h-1v1v-1l-4,4v1h-1l1,-1l1,-2l1,-1v-1l-1,2l-2,2v1h-1l2,-2v-1h1v-1l1,-1v-1h1l1,-1v-1l2,-2v-1l1,-1h1v-1l2,-2v-1l4,-4v-1l5,-5v-1l3,-3Z"/>
<path class="sp" d="M122,172l1,-1h1M99,201l1,-1v-1h1l1,-1v-1l2,-2v-1l1,-1h1v-1l2,-2v-1l4,-4v-1l5,-5v-1l4,-4"/>
<path class="sl" d="M250,67l1,-1h1l1,-1h1l1,-1h1l2,-2h1l1,-1h1l1,-1h1l1,-1h1l2,-2h2l1,-1h1l2,-2h1l1,-1h2l2,-2h2l1,-1h1l2,-2h2l1,-1h1l1,-1h1l1,-1h2l2,-2h2l1,-1h1l1,-1h1l1,-1h2l1,-1h1l1,-1h2l1,-1h1l1,-1h1l1,-1h2l1,-1h2l1,-1h1l1,-1h2l1,-1h2v-1h1h-1v1h-2l-1,1v-1v1h-1h1h-2v1h-1h1l1,-1l-1,1l-2,1h-2v1h-1h-1h1l-1,1h-2v1h-2v1h-2l-2,1h-1l-3,2h-2l-1,1h-1l1,-1h1h-1h1v-1h2l1,-1l-1,1h-2v1h-2v1h-2l-1,1h-1l-1,1h-1l-1,1h-2l-1,1h-1v1h-2l-1,1h-1l-1,1h1h-2l-1,1h2l1,-1h1v-1v1v-1l2,-1h1l1,-1h1l-1,1h-1v1l1,-1h1l1,-1h1l1,-1h1l1,-1h1l1,-1h1l1,-1h2l1,-1h2l1,-1v1h-1h1h-1l-1,1h1v-1h2l1,-1h1l1,-1h2v-1h2v-1l2,-1l3,-1h2l2,-2h1l-1,1l1,-1l1,1h-2l-1,1h-1l-1,1h-2l-2,1h-1v1h-1l-1,1h-1h3v-1l2,-1h2l1,-1h3v-1v1v-1h3l1,-1h3l1,-1h1l-1,1l1,-1h2l3,-1h1h-2v1h-2l-1,1v-1v1h-1h1l2,-1h4l1,-1h4l1,-1h1h-1v1h-2l-1,1h2v-1h4l1,-1l2,-1v-1h7v1h-1h1v1h1l-1,1v1h1l4,-2h1h-1v-1h2v-1h-1l1,-1h2l1,-1l2,-1h1v-1h2l1,-1h4l1,-1h2l1,-1l3,-1h2l2,-1h1h-1h4l-1,1h-1l-1,1h-1l-1,1h-3v1h-1l-1,1h-1l-2,1l-1,1h-1l-6,3l-1,1v1h-1l-1,1h-2v1h-2v1h-2l-5,2h-2v1h-3v1l-1,-1h1h-4l1,1h7v-1l4,-1h2l2,-1l1,-1h3v-1h2v-1h1v-1h2v-1h4l1,-1h1v2h-2l-2,2h-1h1v1h3l-1,-1h-1v-1h3v-1h1v-1h1v-1h-7l2,-1l1,-1l3,-1h1l1,-1h2l1,-1v-1h1l3,-1l1,-1h4v-1h2v-1h1v1h-2v1h-2l-1,1h-1l-1,1h3v1h2v-1h-1l-1,-1h1v-1h5v-1h5l1,1v1h1l1,-1h1v1h-2l-1,1h-2l-2,2h-1h1l1,-1h1v1h-2l-1,1h1v-1h3l1,-1v-1h2l1,-1h1v-1h-1l1,-1h-2l1,-1h1l1,-1h-1h2v-1h12v-1h3l-1,1h-3v1h1h-1v-1h4l1,-1v-1h-1h1l1,-1h4v-1h6l2,-1h7v-1v1l1,-1h5l-1,1l2,-1v1h-1h1l1,-1l1,1v-1h4v1h-1h1l1,-1h-1h3l1,-1v1h1l-1,-1h2v-1h3l2,-1h3v1h1h-1v1l1,-1h1l1,1h-1h10v1h2l1,1v-1v1h-1h1l-1,1h-1l-2,1h-5v1h-3l-3,1h-3l-1,1h-1l-2,1h-1h3l2,-1h7l1,-1h1h-1v-1l2,1l1,-1h1h-1v1h5l-1,1h1v1h-1v1h1l-1,-1h1v-1h1h-1h1v-1h11l1,1h-1h1l2,1h10v-1h-1v-1h4l2,1h8l1,1h-1h2v1h-1h2v1h-2l-1,-1h-1l1,1h1l2,1v-1l1,1h-1h1v1l2,1h4v1h1v-1h1v-2h2l1,1h5l1,-1h2l2,1h2l1,1v-1h1h-2l1,-1v1l1,-1l1,1h2l-1,-1h-2l1,-1h-2v-1h3l-1,-1h1l1,1h12v1h2v1v-1h-2l1,1h-1h3v-1h7l1,1h-1l1,1h4v1l1,-1l2,1h2l2,1h4l1,-1h5l2,1h4l1,1h2l1,1h1v1h2l2,1h2l2,1l1,1h1v1h1l-2,-2h-1l-1,-1h2v-1l1,1v-1h1l1,1h9l1,1h2l1,1h2l1,1h1v-1h-1l-1,-1h-1l-1,-1h-2v-1h-1h4l1,1h1l-1,-1h1l1,1h7l2,1h2l1,1h3v1h4v1h1h-1h3l1,1l-2,-1l2,1h3l5,2h2v1h2v1h3l1,1h1v1h3l1,1h-1v-1h-2v-1h-2l-1,-1h-1h2l1,1l-1,-1h1v1v-1h-1h2v1h1l2,1h1l2,1h3v1h1h-1h1v1h1h-1h2v1h-1v-1v1v-1h-2l1,1h2v1h2v1h1h-1h2v1h1l1,1l-1,-1h-1h1v1l-1,-1h-2l-1,-1h-2l-1,-1h-1l-1,-1h-1l-1,-1h-5l-1,-1h-2l-1,-1h1h-2v-1h-1l1,1h-1v-1h-1h1v1h1h-1h1l1,1h2v1h2v1h1v1h1v1h-3v-1h-3l-1,-1v1h1h-2l-1,1h1v-1h2l1,1h1v-1h1v1h1l1,1h3l1,1h1l2,2h1h-1h2v1v-1h-1l2,1h2v1h2v1h2v1l1,1l-3,-1h-2v-1h-1v1h1h-1l1,1h-1v2h-1v1h-1h1v1v-1v1h1v1h-1l1,1l-1,1h1v1l1,1l-1,-1h-2l-2,-1l-1,-1h-4v1h-1v2h-1v-1h-1v-1h-1v-1v1h-1v2h1h-1l-1,-1h-1v1l-1,-1h-1v2h1l2,2h-1h1v3l2,2h1l1,1h1l-1,-1h1l2,1h1v2h1v1h1l1,1v1h2l1,1l2,1v1h-1l-2,-1v-1h-1l1,1h-1v1l1,1v1l2,2h1l2,2h1v1h-4v1h-1v2l1,1h1v1h1v1h1l1,1h-4v1h-1l1,1v1l2,2v3h-1v2l-1,1l-2,-2h-1l-2,-3l-3,-3h-1l-12,-12l-2,-1l-1,-1l-2,-4l-2,-3l1,-1v-1l-2,-2h-1v-1h1l1,1v-1h2v-2h1v-2l-1,-1l1,-1l-1,-1h1v-3l-1,-1h1v-1h2v-1h-1v-1h-1v-1h-1v-1h-1l-2,-2v-1h1l1,1v-1h-2l-1,-1h-1l-2,1l1,1h1v1h1v1h2v1h-1l-1,-1h-1v4h-2l-1,-1h-1l-1,-1h-1v-2h-1v-1h-1l-1,1h-1l-1,-1h-2v1h-2l-1,-1v1h-1v1l1,1l-1,1l1,1h-1v4l1,1h4v1h1h-3v1h-1l-1,-1h-2v1h-6l-2,-1h3l-1,-1h-2l-1,-1h-1v1h-2l1,-1h-2l-3,-1h-1v1h-1h1l1,1h-1l-1,-1v1h1v1h-1l-2,-1h-7v1h-1l-1,-1h-13v1h-1v1l-1,1h-1l-1,1v3h-2v1h-1v1h-1l-1,1h-1l-1,2v1l-1,1h-1v1h-1v1h-1l-1,1h-1v1l-2,1h-1l-1,1l1,1h1l2,1l2,-1h2l1,1v3h1v1l1,-1h1v-1h-1l1,-1h1v1h-1h1l1,1h1h-1v1h-1v1h3l2,-2h1l-1,1v1h1v-3l-1,-1l2,1h1l2,-1l1,1h2v1l1,1l2,1h2l2,1h1v1l-1,1l-1,-1v1h1l2,2v1h1l1,1v2l-1,1v6l2,2v2h1v4h1v4l-1,1h-1v1h-1v2l-1,1l-1,2v1l-1,1l1,1l-1,1v1l-1,2h-1l-1,1l-1,2l-4,4v1l-3,3v1l-1,1v1l-2,2l-3,1l-1,1h-2l-2,1h-3l-1,-1h-2l-1,-2v-1v1l-1,1h-1v-2l-1,1h-1v1l-2,2v1h-2l-1,-1l1,1l-1,2h-2l-2,2v1h-1v2l1,1l-1,1l1,1v1l-2,1h-1l-2,2h-1l-1,1v1h-4v1l-2,1v2l-1,1v1h3l1,2h2v1h1v1l2,3l2,2l2,1l2,3l1,1v1l1,1v5h1v4l-1,1v1l-1,1h-5v1h-2l-1,-1l-1,1h-1v1h1h-1v1l-1,-1h-1v1h1l-1,1h-1v-2l-2,2h-1l-1,1h-1v-1l-1,-1h-1v-1l1,1h1v-1h-1v-1l-1,-1v-1l1,-1v-1h1v-1h-1l1,-1h1v-1h-1v-1h-1v-3l-1,-1h-2v-2h2v-1h1v1h1l1,1v-1l-1,-1v-1l-1,-1v-1l-1,-1v-1h-4l-2,-1l-2,2v-1h-1l-1,-1h-1l1,-1h1h-4l1,-1v-1l1,-1l2,-1h1h-1l-1,-1l1,-3v-1l-1,-1h-1l-2,-1h-1v1l-2,-2h-1l1,-1h-1v1h-1l-2,1l-1,-1l-1,1h-3l-1,1l-4,2l-1,1h-1v1h-2v1h-3v1l-1,-1v-1h1l3,-1v-1l1,-1h-4v-1h2v-1h-1l1,-1h1l3,-3v-2h-1l-2,-1v-1v1h-2l-2,-1l-2,2h-1l-1,3l-5,1l-1,1l-2,1v1l-2,2v1h-6l-1,-1l-3,3v1l1,2v1h2l5,1h1l1,1v1l1,1h-1v3h2l1,1l2,-1h1v-1l2,-1l1,-1l3,-1h2l1,1h1l1,1h5l1,1h2v1l-1,1h1v1h-1l-1,1v-1h-3l-1,1h-2l-2,1h-2v1h-1v2l-1,1h-2l1,-1h-2v1h1v1h-1l-2,2h-1l-1,1v1h-1v2h-1l-1,1l1,1h1l1,1l2,1h1l2,1l1,1l1,2v2l1,1l1,2l1,1v3l1,1l2,1h1v1l1,1h1l1,1v1h1v1h-2l-2,-1h-3l-2,-2h-1l-3,1h-1l1,1l1,-1h3l2,2h1l2,2l2,1l2,2v1h-3v1h-1l-2,1l-1,1v1h-5v1h1l1,-1l1,2l4,-2h1v1h1l2,2h2l1,1h-1l-2,2h-1h2l1,-1v4h-1v-1h-2v1h-1h1l1,1v1h-1h1v1h-1v2l1,1h-1l-1,1h-1v-1h-1l-1,1v1l-1,1h-1h1v1l-2,2v2h-1v1l-3,3v1l-1,1v-1h-1v-1h-2l1,1h1v2h1l-1,1h-1l-1,1v1h-2v-1h-1l1,1h3v1l-1,1v1l1,1v1h-1l-1,-1h-2v1h1v1h-2l-1,1l1,1h-1v1h-2l1,1l-1,1h-5v1h-1v1h1v1l-1,1v1h-2v1h-1v1l-1,1v-1h-1l-1,1h-1l-1,-1v2l-1,1h-1h1l-1,1h-1v2h-2l-1,1h-5v1h-1l-1,-1h-1l-1,1h-1v1h-1v-1h-2v1h-4v1l-1,-1h-1v-1l-1,-1v-2h-1v1h-1v2h1v4h-2v1h-1l-1,-1v1l-1,1v1l-1,-1h-1v1h-2v-1h-1h1v1l-1,1h-1l-1,-1h-1l-1,1h-1v1h-2l-1,1h-3l-1,1h-2v1h-1v-1l-1,1v1h-1l-1,1v1h2v1h-1l2,2l-1,1l-2,1l-2,-1h1v-1h-1l-1,-1v-2h-1v-1l1,-1v-2h2v-1h-1l-1,-1v1l-1,-2v1l-1,1h-3v-1h-3v-1h-1v-1h-1v1h1l-1,1l-1,-1v1h-2v1h-2l-1,1h-2l-1,1v1l-2,1h-4l1,1v1l-2,2v2h-1l-2,2h-2l-1,3v1l-1,1v2l-1,1v2h1v2h1l1,2l1,1l2,1v3l-1,-1l1,1l2,3l1,1l2,1v1l2,1l1,2l2,1v1h2v1h1v1h1v1l1,1v1l3,3l1,2v1l1,2v3l1,1v2l1,2l-1,1v4l1,2v2h-1v3h-1v3l1,1h-1v-1v4h-1v1l-1,1h-1l-2,2l-2,1l-1,1h-1l-1,1l-4,2h-1l-1,1h-1l-2,-2v2h-1l-1,-1l-1,1h1v1h-2l1,1h1v1l-1,1v1h-1l-3,-3l3,3v2h-1l-2,-1l-2,-2h-1l3,2v3l-6,2l-1,2v1l-4,2h-1l1,-2h-1v-3l1,-4v-2h2v-2h-2v-1h-2v-1h-1v-1l-2,-1h-2l-1,-1v1h-3v-1h1l1,-1v-1l-1,-1v-1h-1v1h-1v1h-2v-5l-1,-1v-1h-1v-2l-1,-2h-1v1l-1,-1h-1v-2l-1,1v-1l-1,-1h-1l-1,-1h-1l-2,1l-3,-1l-1,1v-1h-1l1,-1v-5h1l-1,-1h-5l-1,1h-1v3l-1,2v5l-1,1v1l-1,2l-1,1v1l-1,3l-1,1v1l-2,3v2h-1v6l1,2v1h-1l1,1h1l2,-1h1l1,1v5l1,1h1v2l2,7v2l-1,-1v-2h-1l1,-1l-1,-1h-1v2h1l1,2v1h2l1,1v1l2,1h1l1,-1l1,1h1l1,1l1,2l3,2v1h-1l-1,1v2h-2v-1h-1l-1,1h-1l-1,1h-1l-1,-1h1v-4h-1l-1,-1v-1h-4v-2h-1v2l-1,1l-1,-3l-2,-1v-3h-1v-1h-1l-1,-2v-1h-2v-2l-1,-1h-1v-2h-1v-1h-1v1l-1,1l-1,-1v-4l1,-2v-3l2,-5l1,-3v1l-1,1v-6l2,-2v-6h1l1,-1h-2v-7l1,-1l-1,-1v-4l-2,-4v-2l-1,3v-4l-1,-2v-3l1,1l-2,-2v-9l-1,-1l1,-1v-3h1h-3v-2l-1,-1v-2l-1,-1v-1h-1v4l-1,1v1l-2,1h-2v-2h-1v2l1,1l-2,1h-1l-2,1v1l-3,3h-1l1,-1v-2l-1,2h-2l-1,-1v-1l1,-1l-1,1v1h-1v-3h-1v1l-2,2l-1,-1l1,-4h1v-3h1v-2h1v-1l1,-2v-2l-1,-1v-3l-1,-2v-2l-1,-1v-3l-1,1l1,1h-1v1l-1,-1l-1,-2l-1,-1h1l1,1h1l1,-1v-1h-1v-2h-1v-1l1,-1h-2v-1h-2v2h-1v-4l-1,1h-1l1,-1v-1h-1v-1v2l-1,-1l-1,-2v-1h-1v-1l-1,-2v-9l-1,-1l-1,-2v-1l-2,2h-2l-1,-1v-6h-2v1h1l1,1l-1,1h-1v1l1,1h-1v5h-1l-1,1l-1,2h-1v-1l1,-1h-1l-1,1v-3l1,-1l-1,1v1l-1,1v1l-1,1h-1v1v-1h-1l-1,1h-1v-3l-1,1v3h-1v-1v1h-1v-4l-1,2v2h-1l-1,-1l-1,1l-1,-1h1l1,-2v-1l-2,-2v1h1l1,1l-3,3l-5,2h-1l-2,2v5h-1v1l-1,1v1l-2,1l-1,1h-1v1h-1l-4,2h-1l1,-1v-1h-1l-2,1v2l1,-1h1l-2,1l-5,5v1l-2,1l-2,3h-1l-3,2l-1,1l-1,2l-4,2l-3,2l-1,2l-1,1v2l-2,2l-3,1h-3v1l-1,2l-1,1h-1v1h-1v-1h-1l-2,1l-3,6v6l-1,1v1l1,2v3l-1,-1v-1l-1,1l1,1h1v1l-2,6l-1,2v1l-1,1l-2,4v3l-1,1l1,-1v5l-1,4h-3v1h-1v1l-2,4l-1,1v1l1,1h2v1l-1,-1h-2l-4,2l-1,1l-1,2v2l-3,3h-1v1l-2,-1l-2,-2l-2,-4v-3h-1v-6l1,1v-1l-1,-1v-3l-1,-4v-2l-1,-2v-1l-1,-2v-1l-1,-1l-1,-6v-3l-1,-1v-3l1,-1v-2l-1,-2v-5l-1,-1v-2l-1,-1v-2h1l-1,-1v-1h1h-1v-2l-1,-2v-3l1,-6v-12l1,-1v-1l1,-1v-1l-1,1v-2h1l-1,-1v-1h1l-1,-1l1,-1l-1,-1h1v-2l2,-4l1,-1v-6l1,-1l2,-1h-3l1,-1v-1h-1l1,-2h2l-1,-1l-1,1l-1,-1l-1,1h1l-2,2v1h-1h1v2l-2,3v1l-3,1l-1,1l-3,1h-2l-1,-1l-2,-5l-1,-1v-2l-1,-1v-3h1v1l2,-1h1v-1h2l1,-1l1,-2l1,-1h1v-1l-1,1h-2l-2,2l-4,-2l-1,-1v-4l2,-1l1,-1l-1,1h-1v1h-2v-1l1,-1l-1,1v-1v1h-1v-1v1h-1v-1h-1l1,-1h-1v-2l1,-1v-3h-2v-1l1,-1v-4h-2v1h1h-2l-2,1h-4l-1,1l-2,-1h-3v1h-4l-1,1h-1v-1v1h-3l1,-1l1,-2v-2h1v-2l1,-1h1l1,-1v-1l1,1v-1l1,-1h1l1,-1h2v-1l1,-1v-1l1,-1v-1l-2,1v-1l1,-1l1,-3v-1l1,-2h-1v-1l-1,-1h-1v-4l1,-2v-4l4,-4l1,-2l2,-1l1,-1v-1l1,-2l-1,-1h-2v-1l1,-1v-1l1,-1v-1l1,-1l1,-2v-2l1,-1v-1l3,-3h-1v-1l1,-1l1,-2l1,-1v-1h1v-1h1v-1h1v-1h1v-1l2,-2v-1h1v-1h1v-2h1v-2h1v-1l1,-1v-1l1,-1h-3v-6l-1,-1h-2v-1h-1v-1h-1h1v-1h-1v-1h-1l-1,1v1h-4l-2,2h-1l-1,2h-2v1h-2l2,-2l1,-2l2,-2v-1l1,-1v-1l1,-1h1v-2h1v-2h-1v1v-1l2,-1h1v-2h1v-1h-1l-1,1v1v-1l1,-1v-1l3,-3l1,-2l1,-1v2h1l-1,1h1l1,-1h1v-1h2v-1l1,-1v-3l1,-1l1,-2h-1l-1,1v-1v1h-1l-2,2v1l-2,1v1v-1l2,-2v-1l3,-3v-1h1l1,-2h-1v-1l1,-1h-1v-1h1l1,-1v-1l3,-3v-1h-1v-1h1l1,-1h1v1l1,-1v-1h1v-1h1v-1h1l2,-2h4v-1l2,-1l1,-2l2,-1l1,-1v-1h1v-1h1v-2l-1,1h-2l1,-1h-2l-1,1h-1l-1,1h-1v1h-2v1h-2v1h-1v1h-1l-1,1h-1l-1,1h-1l-1,1h-1h1h-1v1h-1l-1,1v1h-1l-2,2h-1v1h-1v1h-1v2l-1,1l-1,2l-2,1l2,-2h1h-1l-3,3v1l-2,1v2h-1v1l-1,1l-1,2l-1,1v2l-1,2l-2,2v2l-1,1h1v1l-1,1v-1h-1v1h-1l-1,1l-1,2l-2,1v1l-1,1h-1l-1,2v-1v1l-1,1h-1v1l-2,2h-1l1,-1v-2h1l1,-1v-1h1v-1h1v-2l-1,1h-1v1h-1l-2,2l-2,1l1,-1v-1h1v-1h1v-3h1v-1h1v-1h1v-2l3,-3v-2h1l1,-1v1h1l-1,1h1v-1h1v-2h1v-1h1v-1h1v-2l2,-2h-1l1,-1v-1l-1,1v-1l-1,1h-1v1v-1h1v-3h-1v-2h-1v1v-1l2,-2l1,-3h1l1,-2h-1h1l1,-1v-2h2v-1v1v-1h1v-1h1v-1l2,-1l1,-1h1v-1v1v-1h1v-1l2,-2h1v-1h1l2,-1v-1h1v-1l-1,1l1,-1l-2,2v-1h1v-1h1v-1h1v-1h1l1,-1h2v-1h1l1,-1v-1h1l3,-3h1v-1h1l1,-1v-1h1v-1h1v-1h1h-1l1,-1h-1l1,-1h1v-1h1h-2v1v-1h1h-1l1,-1h1v-1h1v-1h1v-1h1v-1h1v-1h1v-1h2l1,-2h1l1,-1h-1l-1,1h-1h1v-1h1l1,-1h1v-1h1v-1h1l1,-1h1v-1v1h-1h1v-1h1v-1h1l1,-1h1v-1h1v-1h1l1,-1h1v-1h1l2,-2h1l1,-1h1v-1h1v-1h1l1,-1h1v-1h1l2,-2h1l1,-1h1l3,-3h1l2,-2h1l1,-1h1l2,-2h1l1,-1h1l2,-2h1l1,-1h1l1,-1h1l2,-2h1Z"/>
<path class="sp" d="M250,67l1,-1h1l1,-1h1l1,-1h1l2,-2h1l1,-1h1l1,-1h1l1,-1h1l2,-2h2l1,-1h1l2,-2h1l1,-1h2l2,-2h2l1,-1h1l2,-2h2l1,-1h1l1,-1h1l1,-1h2l2,-2h2l1,-1h1l1,-1h1l1,-1h2l1,-1h1l1,-1h2l1,-1h1l1,-1h1l1,-1h2l1,-1h2l1,-1h1l1,-1h2l1,-1h1M219,86h1l2,-2h1l1,-1h1l3,-3h1l2,-2h1l1,-1h1l2,-2h1l1,-1h1l2,-2h1l1,-1h1l1,-1h1l2,-2h1l1,-1"/>
<path class="sl" d="M33,365v1v-1l1,-1v1ZM30,379v-1ZM31,377v-1ZM61,386h1l1,1l-1,1l-2,1l-1,-1v-2l1,-1ZM382,399v2l-1,1v-1l-1,-1l1,-1ZM402,414l1,-1v1ZM408,399l-1,1v-1ZM410,312h-1v-1ZM416,309l-1,1h-1l1,-1ZM415,311v1h-1ZM411,313l-1,-1h1ZM863,621v3h1v-1l1,-1v5h-2l-1,1v-8l1,-1v1ZM865,632l1,1v2h-1v1h-1v-4h-1l1,-2h1ZM869,638h-1v-1h1ZM869,634h-1l-1,-1h1l1,-1v1ZM868,644v2h-2v-1l1,-1ZM869,626l-1,1l-1,-1l2,-1h1ZM869,631v-3l1,-1v4ZM870,625v1v-1l1,-2v1ZM864,629v-1h1ZM869,616v1h-1v-2h1ZM869,613v-1h1ZM869,666v1l-1,-1ZM869,661l-1,1v-1l-1,-1l1,-1v1ZM869,656l-1,-1v-2h1v2ZM220,174v-2h1v2ZM223,173v1v-1h1ZM670,407l-1,1v-1ZM775,427h-1ZM776,426h1ZM821,432v1h-1v-2h1ZM890,442v1v-2ZM885,430h-1v-1ZM899,432h1v1ZM897,431v1h1h-1l-1,-1ZM870,396h-1ZM722,368v1l-1,-1ZM722,336h-1l1,-1ZM725,360h-1v-1h1ZM724,362v-1ZM719,376h-1v-2h1v-1h1l-1,2ZM959,621v-1ZM781,88h1ZM785,90h-1v-1v1ZM783,89h1ZM787,95h-1ZM709,50l1,1v-1l1,1h2v1h2l1,1h1h-2v-1h-3v-1h-1l1,1h-1v-1h-2l-1,-1ZM740,64h1v1h1l1,1h1h-1h1v1l-1,-1h-2l-1,-1h-1h1v-1h-1h1h-1ZM774,82v-1h-1ZM772,80h-1h1v1h1l-1,-1h-1l-1,-1h-1v-1h-2v-1l2,2h1l1,1Z"/>
<path class="sp" d="M773,81l1,1M768,78l1,1h1l1,1h1"/>
<path class="sl" d="M781,89l1,1h1v1h1h-1h1h-1l1,1h-1v-1h-1l-1,-1v-1h-1ZM780,86h1ZM776,83h-1v-1v1ZM776,83h-1v-1v1ZM781,88h1v1ZM783,90l-1,-1ZM786,92h-1ZM783,89h1v1v-1h-1l-1,-1ZM785,94l-1,-1h1ZM785,93h-1ZM758,73h-1v-1h-1ZM731,63h1v1l-2,-1h-1h1ZM757,78h1ZM788,100h-1v-1h1ZM788,101h-1v-1ZM787,102h-1ZM762,81h1ZM782,104v1l-1,-1ZM781,103h-1ZM780,105h-1l1,-1h-1h1ZM769,103h-1ZM774,106l-2,-1h-1h1l1,1ZM752,100h-1ZM787,97v1h1v1l1,1l-1,-1v-1h-1v-1h-1l-1,-1h1ZM785,94v1v-1l2,2v-1v1l1,1v1v-1h-1v-1h-1v-1v1h1h-1v-1h-1l-1,-1ZM785,103h1ZM784,103h-1v-1h-1v-1l1,1h1ZM781,104l1,1h-1h1l-1,-1h-1v-1v1ZM779,105h-1v-1h-1h2ZM772,103v1l-1,-1ZM766,103h-1v-1ZM746,97h2l1,1h-3v-1h-1ZM972,337l-1,-1v-3l-1,-1l-1,-2v-2l-1,-1v-1v1l1,2h1v2l1,1v3l1,1ZM964,318l1,1v1v-1h-1ZM966,321v-1v2h1v1l-1,-1v-1l-1,-1ZM963,316v1h1v1l-2,-2v-2l1,1ZM960,312l-1,-1v-1v1h1ZM959,313h1h-1v-1ZM966,322v-1h-1h1ZM146,557v-1h-1h1v1v-1ZM88,290l1,-1ZM90,291h-1l1,-1ZM93,289h-1v-1h1l-1,1ZM155,139v-1h1h-1ZM147,183l1,-2h1l-1,1ZM929,677v-1l-1,1v-1h1ZM939,656v-1h1v1ZM929,678v1ZM566,560l-1,2v-2ZM561,572l-1,-1v-2h1v-1h-2l1,-1v-1l2,-2h2l3,-1h8l1,-1h4v1l-2,1l-1,1h-1l-2,1l-1,1h-3l-2,2h-2l-4,2ZM552,570h1l2,-1v1l-1,1h-2ZM370,389h-1h1v-1ZM369,386h-1v-1ZM334,421v1h-1v-3h1ZM348,406v-1ZM348,406v2h-1v-1h1ZM344,433l-1,-1l1,-1v1ZM335,421v-2l1,1ZM334,411h-1l1,-1ZM339,424v1v-2ZM13,552v1l-1,-1v-2l1,1ZM12,541h1v4h-1v-3ZM15,567v-1ZM222,167v-1ZM218,174h-1ZM524,298v1l-1,1v3h-1v-2l-2,-2h-1v-1h-1v-1l-1,-2v-6l4,-6l2,-2v-2h1v-1h3v-1h2l1,1h1v2h-1v4l-1,2v2l-1,1v2l-1,2v2l-2,1ZM503,283h1h-2ZM196,408v-1ZM195,413v1v-1h-1v-1ZM197,406h1l1,2l2,2l1,2v1l1,1l1,2v2h1v3l2,3v3l1,1l-1,2v2l-1,2v1h-1l-1,2h-1l-6,3l-2,-2l-1,-2v-2l-1,-2v-12l1,-1v2v-2l1,-1v-4l2,-2v-4l1,1h1l-1,-1h-1l-1,-1v-1ZM577,206h-2v-1l1,-1ZM572,206v1h-1v-1h-1v-1h2ZM559,209h-1v-1h1v-1l1,1ZM559,186h-1v-1ZM563,209h-1ZM559,194h-1v-1h1ZM558,206l-1,-1h1ZM589,187l-1,1v-1ZM561,217h-2v-1h1l1,-1h4v1h-1l-1,1h-1ZM164,864h-1v-1v1ZM829,566h-1v-1h1ZM869,594h-1v-1h1ZM866,586h-1l-1,1v-1l1,-1h1ZM831,594v1l-2,-2h-1v-1l2,1ZM840,576v1l-1,-1v1v-3ZM825,571h-1l1,-1Z"/>
<path class="sl" d="M832,570v1h1v1h-1v-1h-1v-1ZM817,563v4l-2,-2v-2l-1,1h-1v-1h1v-1l1,-1h1v2ZM819,568v-1ZM818,567v1h-1v-2h2ZM814,567v1l-1,-1v-1l1,-1v1h-1v1ZM810,560l-1,1v-3h1l1,1h-1ZM809,563l-1,-1l1,-1v1ZM813,562h-1l-1,-1l1,-1h1v1ZM804,553h-1l1,-1l1,1ZM815,568h-1v-1h1ZM829,572l1,2h2l1,1h1v1h1v2h-2l-1,-1h-4v-5ZM830,566h-1v-1l-2,-1v-1h-1l-1,-1h-1v-1h-1v-1l-1,-1v-2l4,4h1l3,3v1ZM815,555l1,1h-2v-1v1l-4,-4l-1,-2v-1h1l3,3v1l1,1v1ZM836,564l1,3v2l1,1v3l1,2v1l-1,-1v-1l-2,-2l-1,-2v-5ZM840,582l1,1h2v3h-2l-2,-2v-1h-1l1,-1h-2v-1h2ZM379,478h-3l1,-1h2ZM58,536v1v-1l-1,-1h1ZM54,284v-1ZM35,354v-1h1v1l-1,1v-2l1,-1v-1v1l-1,1ZM55,282v-1ZM956,613v3l-1,-1v1v-3ZM957,618l-1,-1v-1h1v1ZM672,148h-1ZM594,84v1h-2l1,-1ZM639,67h-1v-1h1ZM506,19h-1l-1,-1h1ZM516,17h-1ZM479,8h1ZM460,11h-1ZM457,12h1ZM472,6h1ZM406,18v1l-1,-1ZM421,17h-1ZM427,16h-1ZM433,15h-1ZM435,5h1ZM425,6h-1ZM427,6h-5v1h-2l2,-1h4ZM409,13h-4l-1,1h-6l-2,1h-4l-1,1h-4v1v-1l-1,1h-3l-1,1h-3v1v-1h-1v1h-2l-1,1h-2v-1l-1,1v-1h3v-1h4l2,-1h2l1,-1h2l1,-1v1l1,-1h3l1,-1h5l1,-1h8l1,-1h5l1,-1h1v1h-3l-1,1ZM372,20h1h-2l-1,1h-2l-1,1h-2l-1,1h-2l-1,1h-1l-1,1h-1l-2,2h-1v-1l-1,1h-1h1h-2l1,-1l-1,1v-1h2v-1h2l1,-1l-1,1v-1l-1,1v-1h2l1,-1h3l1,-1h2l1,-1h3l1,-1h4ZM472,5h-2v1h-7v-1h7v-1h2ZM470,6h-1h3v1h-2l-1,1h-3v-1h-4l1,-1h5ZM476,7h-2v1v-1h3l1,1v-1v1h-4l-1,1v-1l-1,1h-4l1,-1h2l1,-1h3ZM546,13h1l1,-1h1l1,1h7v2l-1,-1h-3l-1,-1h-1v1h3l1,1h-11v-1h-2l-1,-1v-1h3l1,1ZM561,14h8v1v-1l1,1h-8v-1h-3v-1l1,1ZM643,26h-1v-1h-2v-1l4,2ZM622,88l2,1v2l2,1l4,4v2l1,2l3,3v1h1l3,4l6,6v1h1l2,2h1l1,1h-1v-1h-1l-1,-1h-1l-1,-1h-5v8h1v1l1,1h1l1,1h1l1,2l1,1h1l2,2v1l-1,-1h-1v-1h-3l-1,-1l-1,1v4h-1v-1l-2,-2v-4l-1,-1l-1,-2v-2l-1,-2l-2,-2h-1v-5l-2,-4l-2,-2v-2l-2,-2v-1h-2v-1h-1v-1l-1,-2v-1l-1,-1v-1l-1,-1v-2h1l1,1h1v-1h-1v-1h1h-1v-1l-2,-1l-1,-1h1ZM641,24h1l1,1h3v1h-2l-2,-1h-1l-1,-1ZM292,46h-1ZM309,40v-1ZM355,25h-1l-1,1h-1h1l1,-1ZM722,89h1l-3,-1l-1,-1l1,1h1ZM611,25h-1ZM624,31h-1v-1h-2v-1h-1h1v1h2ZM569,13h-1v-1ZM560,11h-1ZM554,23h-2v-1h2ZM482,9h-1ZM489,11h-1ZM457,12h-1ZM458,11h-1l1,-1h1v1ZM447,10h1ZM399,20v-1h2l-1,1ZM404,19h-1l1,-1h1h-1Z"/>
<path class="sl" d="M422,17h-1h2ZM365,29l-1,1v-1ZM370,26v1v-1h1ZM352,39h-1v-1h2ZM420,7h1ZM420,7h-1h2ZM428,6v-1h1ZM425,6v1h-1ZM426,6h-1h2ZM426,7h-1h2ZM433,5h-1v1h-1l1,-1ZM171,141h-1l1,-1ZM336,31l-1,1h-1h1v-1l-1,1h-2l-1,1h-1h1l1,-1h1v-1h3v-1h1ZM434,6l1,-1h1l-1,1ZM426,7h-1h1l1,-1h1h-2ZM434,6h-1h1v-1ZM434,5h1ZM423,7h-1h1l1,-1h1h-1v1ZM427,6l-1,1h-1l1,-1ZM436,5h-1ZM431,5v1h-1ZM441,5h-1v-1h1ZM438,5h-1h1v-1h1ZM462,6h-1h2ZM466,5h-1ZM554,17h-2l-1,-1h3ZM557,17h1l3,1h1v1h-1v-1h-7v-1h2ZM539,14h-1v-1h-1h2ZM543,17l-1,-1h-1h1ZM598,84h1v1h-1l1,1h-2l-1,-1l-1,1v-1l1,-1h1ZM636,29h-4v-1h-1h4v1ZM686,69v1v-1l-1,-1h-1l1,-1h2v1h1h-1v1ZM716,87l1,1h-1v-1h-2l-2,-2h-1h2v1h1l1,1ZM695,115h-1v-2l1,1ZM697,108h-1v-1h1ZM696,110l-1,1h-1v-1h-1h1v-1h1v-2l1,1v1ZM694,118v-1ZM693,107h-1v-1ZM691,129h-1h1v-2h1ZM684,136h-1v-1l2,-2h1l-1,1v1h-1ZM679,138h-1v1h-1l-1,1h-1v1l-2,2v-2l1,-1v-1h1v-1h3l1,-1h1v1ZM674,147l-1,1v-1ZM669,143h2v1h-2l-1,1v1l-1,1v1l-1,-1l1,-1v-1h1v-2ZM489,16h-3v-1h2ZM440,7h1ZM451,5h-1h2ZM393,20h-1v-1h2ZM402,21h-1h1l1,-1h1v1h-1ZM408,20h-1l2,-1v1ZM426,14h-1h2ZM355,28v1h-2v-1h2v-1h1v1ZM155,139l1,-1l-1,1v1h-1v1h-1l-1,2l-1,1l1,-1h1l-1,1h-1v1h-1l-2,2h-1l-1,2h-1v1v-1l5,-5v-1l1,-1l2,-1l1,-1ZM82,288h-1v-1h1v-1l1,-2v-2l2,-2v-1l1,-2l1,-1h1v2l-1,1l-1,2v2l-1,1v1l-2,2v1ZM526,330l1,1l3,1h1l1,1h1v-1h1v-1h1l1,1v1l-1,1v6h1v1h1v1h1v1l-1,1v1l-2,3v2h-2l-2,2h-1v3l-1,1v2l2,4v2l1,3v1h1l2,1h1v-2l1,-1h4l1,1v1l1,1v2h1l1,-1v-2h1v1h2l1,1h1l-1,1h-2l1,1v1l1,1v2h2l1,1v4l-1,-1h-1v-1l1,-1l-1,-1v1h-2l-2,-1h-1v-2l-1,-1v-1l-2,-1h-1v-1l-2,-2h-1v2l1,1v1l1,1v1h-2v-1l-1,-1l-1,-2l-1,-1l-3,-1h-1l-1,1h-1v1h-1l-1,1l-3,-3h-1l-1,1v-4h1l2,-2v-1l-1,-1h-2v-1v4h-1l-1,-1v-1h-1v-1h-1v-1l-1,-1v-3l-1,-1v-4h-1v-3h1v1h1l1,1h2v-1l-1,-2v-3l1,-1v-6l1,-4v-2l2,-2h2ZM494,416h-1l1,-1v-2h1l4,-4h1l5,-5l1,-2h1v-1l2,-2h1l1,-1v-4h1l1,-3v3l1,2v2h1l-1,1h-2v1h-1v2h-3l-1,1v1l-2,3l-1,1v1h-1l-1,1h-1v1l-2,2h-1l-1,1h-1v1h-1ZM538,389h4v1l2,-1v2l-1,1v1h-1v1h-1v1l-2,2h-3l-2,2v-5l1,-1v-5l-1,-1h-1l1,-1l1,1h2l1,1ZM544,410v1h-1v-1l-1,-2h-2v-1h-1l-1,-2v-2h3l1,-1v-3l-1,-1h1v-1l1,-1v-1l2,-1l2,1l1,1l-1,1l-1,2v1l-1,1v2l-1,1v2l2,2v1l-1,1Z"/>
<path class="sl" d="M556,391h3l1,1v4h1v1l1,1v2h-1v1l-1,-1v2h-1l-1,-1v-6l-1,-1l-1,1h-1v-2l-1,-2v-1h2ZM562,381v2h2v6l1,2v1l1,1v1v-1h-4l-3,-3v-1h1v-2l-1,1v-1h-1v-1l-1,-1h-1l-2,-2v-2h7ZM523,373h3l1,1v-1l3,3v4l-1,1v2h-1v1l-1,-1h-1v-1h-1v-2l-1,-1v-2l-1,-1v-1h-2v-2l-1,1v-1l1,-1ZM569,408v1h1v1h1v2h1l-1,1v1h-1v1h1l1,1v1l1,1v4h1v5l-2,2h-1v5h-1v-4l-1,-1v-1l-1,-1v-2l-1,1h-1v1l-1,1v1l-1,1v2h1v1h1v5l-1,2h-2v-4h-1v1l-1,1h-1l-5,-2l-1,-1l-1,-2l-1,-1v-5h1v-1h1v-1h-1l-1,-2l-2,-1h-1v-1h-2v4l-1,-1h-1v-1h-1v-1v1l-1,1h-1v-1l-1,-1h-2v1h-1l-1,2v2l-1,1v1h-2v-2l1,-1v-1l1,-2v-2l1,-1v-1h3v-1h3v-2h1v-1h2v-1h3l1,1v1h1v2l-1,1h1l1,-1h1l1,-1v-1l2,-2l1,1h1v-3h1v-1h1l1,1h1v-1h2l1,-1v-1l-1,-4h2l2,2ZM546,407v-4l1,-2l1,-1l3,-6v-2h1v5l-1,2v1h-1v1h-1l-1,1v1l-1,3ZM532,328v-1h1ZM529,324v1l-1,-1ZM532,316v-1h1ZM532,312l-1,1v-1ZM527,436l1,1h2l-1,1l-1,-1l-1,1h-2v-1l1,-1ZM492,421h-1v-2h1ZM516,398l-1,1v-1l1,-1h1v1ZM518,384h1l1,1h-3l-1,-1v-1h1ZM517,388v-1l-1,-1h1l1,1ZM540,398v1h-1v-2h1v-1h1v1ZM557,404v1h-2v1h-4l-1,-1v-1l3,-3h2l1,1v2ZM520,443l-1,1h-1l-1,1h-1v-1h1l1,-1h1ZM536,433h-2v-1h-1v-1h1l1,-1l2,1v1ZM569,405v-3l1,1v2ZM566,403h-1v-1h-1v-2l1,-1h1v3ZM519,371l-1,-1h1ZM533,372h1l1,1v1l-1,1h-1v-1l-1,-1ZM535,382l-1,3v-2h-1l1,-1v-2h1v1ZM540,383h-1l-1,-1v-1h1l1,1ZM545,378l1,1h-1l-2,-2h-1v-1h1l1,2ZM549,382l-1,-1v-1h1ZM549,383l3,3v2l-2,-2h-1v-1h-1l-1,-1h-1l-2,2v-1l1,-2v-2h2v1ZM554,372h-3v-1l1,-1v-2h1v1h1v2ZM535,368l-2,-1h1ZM534,360l-1,1l1,1v1h-1v-2l-1,-1h1ZM554,397v-1l1,1ZM562,403h1l-2,-1v-1h1v1ZM543,425l-1,1v-1ZM567,429v-1h-1l1,-1ZM556,390h-1v-1l-1,-1h2v1h1ZM559,410h-2v-1h1ZM527,326v1h-1v-1l1,-1ZM516,389v2l-1,-1ZM549,392l1,1h-1ZM537,381h-1v-1h1ZM568,406v-1h1ZM558,389v-1h-1h1ZM494,418v-1ZM549,409v1h-1l-1,-1h1ZM786,533h-1l-1,-1v-5l-1,-1l-1,-3l-1,-1h-1v-1h-2v-1l-2,-2h-1v-1l-2,-1l-1,-1h-2l1,-1v-1l4,4h1l2,2h1l1,1v1l1,1h1l5,6v1l-1,1v2ZM778,528l1,1l1,-1l1,1h1l-1,1v1h1v1l-3,3h-1v1l1,1v2h-4v1l-3,3h-2l-2,2h-1l-2,1h-4l-1,-1v-1h-3l-2,-2h-1l-1,-1h-1l-1,-1v-1l1,-1l1,1h1v-1l1,1l1,-1l1,1h6l1,-1v-3l1,-1v2l-1,1l1,1v1h1l1,-1h1v1h2v-1h1v-1l1,-1v-1l2,-1h2v-6h1ZM693,569v-12l1,-2v-5h-1v-2l1,-2v-12l1,-2v-19h2l4,2l1,1h1l4,2l3,1h2l2,1h1l2,2h1l1,1h1l1,1l1,-1v1h1l3,3v1h2l4,4v5l1,1h1l1,1h2l4,3h3l3,3v4h-5l-2,1v1l2,4l2,2v1l2,1v1h1l2,2v3l1,1h1v3l1,1h1l2,-1h1v4l1,1h3l1,1v1h-2v1h1v1h2v1h1l2,1h1l-1,1l-1,-1v1l1,1v1h-4l-2,-2h-2l-1,-1h-4l-1,-1h-3l-1,-1v1l-2,-1h-1l-1,-1v-1l-2,-2l-1,-2h-1v-2l-1,-1h-1v-1l-1,-1v-1l-2,-2v-2h-1v-1l-2,-1h-1l-1,-1h-3v-1h-2v-1h-1l-1,-1h-1v1h-2v1h-1l-1,-1h-1v-1l-1,-1v1l2,3h-1v1h-2v2h-8l-1,1v-1h-1v-1h-1h1v1l1,1h3l1,1h1l1,1v1h1v2l-2,1h-1l-1,1l-2,1h-1l-1,-1h-10Z"/>
<path class="sl" d="M749,541h-1l-1,-1v-2h1l1,1v1ZM734,532h-1v-2h1v1ZM784,518v1h-1v-1ZM780,517l-1,-1h1ZM763,504v1v-1h-1v-1h1ZM769,578l1,-1v2h-2v-1l-1,-1v-1l2,1ZM764,573v1l-2,-2l1,-1h1v1ZM770,567v-2h-1l1,-1v1ZM790,590h-1v-1ZM714,564h-1l-1,-1h2ZM743,538h-1v-1h-1l1,-1h1v1ZM743,508h3l-1,1v-1v1h-2v1h-1l-2,-1h-1v1v-2h1l1,-1ZM768,514h-2l-1,-1v-1h3v1ZM765,572l1,1h1l1,1v1h-3l-1,-1h1v-1ZM781,569h1v1h1v1h-2v-1l-1,-1ZM785,591h1v1h-1l-1,-1h-1v-1ZM714,565v1l-2,-2h-1v-1v1h1ZM749,510v1h-1v-1ZM779,516v-1ZM767,583h-1ZM791,527h-1l1,-1ZM805,550v1v-1l-1,1h-2v-1h-1v-1l-1,-1l1,-1v-1h-2v-2h-1v-1l-1,-1v-1l1,-1v-1h1l1,1l1,2l1,1v2h1l2,2v2ZM797,539v-4h1v3ZM642,425l-1,1v-2l1,-1v1ZM97,322h-1l2,-2l1,-2l-1,2ZM102,282h-1ZM546,173v1v-1h1ZM808,825h1l1,-1h1l1,-1h1h-1v1l-1,1h1v-1h1v-1h1v1h-1l-1,1h1l1,-1l-1,1h-1v1h-1v1l-1,1v1l-2,1l-2,2l-2,1l-2,2l-2,1v1h-1l-1,1h-1v1h-1v2h1h-1v1h-2v-1l-1,1v-1h-1v1l-1,1h-3v1h-1l-1,2h-1l-2,2v1l-1,1h-1l-3,3v1h-1l-1,1h-2v1l-6,3h-1l-1,-1h-1v-1h-1v-1h-4v-1l2,-1l-1,1v-1h1h-1v-1h2v-1h1h-1l1,-1h1v-1v1h1v-2h1l2,-2v1v-1h1l1,-1h1l2,-2h1l2,-1v-1h3v-1l1,1v-1l1,-1h2l1,-1h1l1,-1h1v-1h1v-1h1v1v-1h1l2,-2v1l2,-2h1v-1h1v-1l3,-3h1l1,-1h1v-1l4,-4l2,-1l1,-1h1h-1v1h-1v1h1v1l-1,1ZM813,822l-1,1h1v-1h1v-1v1ZM763,852v1h-1v-1ZM766,850h-1ZM762,860v1h-1v1h-2v-1h1l2,-2h1ZM840,791v-1h1h-1ZM837,781h1v1h1v2h1v1l-1,1v1h-1v1l-1,1v3h-1v2h-1v1l1,1v1l-1,1h1v-1l1,-1v-1h1v-2h1v-1v3l-1,1l-1,2v2h-1v1h1v2h3l2,-2h1v-1h1v2h-1v1l-2,2l-1,2l-1,1h-1l-2,2v1l-1,1v-1h-2l-2,2v1h-1v1l-6,6h-1l-1,1v1l-2,1l-2,2h-1l-2,1v1v-2h-1l1,-1l-1,1v-1l2,-1l1,-2l2,-1l2,-2v-1l1,-2h-1v-1h-1l1,-1h-1v-3h1l1,-1h2v-1h1v-1l5,-5v-1h1v-1l1,-1v-1l1,-1h-1l1,-1v1v-1h1v-1h-1v-1l1,-1v-1h1v-2h1v-1l-1,1v-1v1l-1,1v-2l1,-4l1,-1v-1h1h-1v1h-1v-2l1,-1v-3l1,-1v-1h1l-1,1v2ZM737,892v1ZM736,883h-1l1,-1v-1h1v1h-1ZM830,842l-1,1h-1h1v-1v1h-1v1h-1v1h-1l2,-2h-1l1,-1h1ZM826,846h1v-1v1ZM950,660v1v-2ZM962,680v-1ZM877,497v1ZM93,670h-1l-1,-1h1h-1v-3h1v1l1,1v1ZM150,464h-1ZM151,456h-1l1,-1ZM347,434l1,-1v-2h1v2h4v1l1,1h1v4h-1l1,1h1l1,-1h1l1,-1h1v1h2v-2l1,-1h1v-1l1,1h1l1,2l3,3h1l1,1l3,5v4l-1,4v2l1,2l-1,1l1,1v4l3,2v1l4,8l-1,1h-1v-1h-1v-1v2h-2l-2,1l-1,-1v-1l-6,-3l-1,-1l-6,-4v-1l-3,-1l-1,-1v-4l-5,-5v-1h1l-2,-2v-4l-1,-3l-1,-5v-5l-1,-1Z"/>
<path class="sl" d="M496,453h-1l-1,-1l-2,-1h-5l-1,1v-1h-2l-1,1l-1,-1h-1v1l-2,2v5l-1,1v3h-2l-1,1v4l-1,1h-2v4h-1v2l-1,1h-5l-2,2h-3l-2,-1h-1l-1,-1v-1l-5,1h-1l-1,1v1l-1,1h-1l-1,1h-7l-3,1l-1,1l-2,-2l-2,-1v-1h-1l-3,-3v-3l2,2h5l2,2h3l1,1h1h-1v-1h-1l1,-1v-1l1,-1v-5h1v1l1,-1v-2l1,-1h1v-1h4l5,-2h2l2,-2l1,-2l6,-6v-3h1l2,2v1h1l1,1v1h1l1,-1v-2h1h-1v-3l2,-2v3l1,2h2l-1,-1v-2l-1,-1v-1h3v-1h1v-1l-1,-1v-1l1,-1v-1v1h2l1,-1v-1l2,-2v-1l3,-4l2,-4l1,1v3l2,-2v-2l1,1h1v2l1,1h2v5l-1,1l2,-1h1l1,-1l1,1v1l-2,1h2l1,-1h1v1h2v1l1,1l2,1h3v2l-1,1h-2l-2,1h-1l-2,-1l-1,1v1l3,3v1h-3l-1,1h-2l-1,-1h-1v1ZM381,466h-1v-1l1,-1v1ZM349,443l-1,1v-2h1ZM345,433l1,1v1h-2v-1h1ZM493,427h-1v-1l1,-1h1v1ZM357,463l-1,1v-1ZM443,468h-1v-1v1ZM499,453h-2v-1h1ZM14,604v-1ZM14,603v-1ZM46,604v1h1v2l1,1v1l2,4l2,8v2l3,6v4h-1v-1l-1,-2v-1h-1v1l1,1v2l1,2v1l1,2v2l1,1h-1v2l1,1v1l1,3v2l1,3v2l1,2v3l2,7v2l1,2v4l2,7l1,5l1,1v2l2,4v3l1,1v1l1,2v3l1,1v1l1,2l-1,1v1h-1v3h-1l-2,-2h-1v-1l-2,-2v-1l-2,-2l-1,-2v-2l-2,-2v-2l-1,-1v-1l-1,-1v-1l-1,-1v-1l-1,-1l-1,-2v-1l-1,-2v-1l-1,-1v-1l-1,-3v-4l-1,-1v-5l-1,-1v-1l-1,-2v-2l-1,-1l-1,-2v-1l-1,-1v-1l-1,-1v-2l-1,-3l-1,-1v-2l-1,-1v-6l-1,-1v-3l1,-1v-1h1v-1v1v-2l1,-1l1,2l-1,-1v-4l1,-1v2h1v-1l-1,-1v-3l1,1v-4l-1,-2v-4h-1v-2h1v1v-2h1v-6l-1,-1v-5h1v1l1,1ZM44,612l-1,-1v-1l1,1ZM56,641v-1ZM92,250v-1l1,-1v-1h1h-1v2ZM909,466v1h-1ZM909,478h1l-1,-1ZM910,479h-1h1v-1ZM910,485v1h-1h1v-1h-1ZM917,501v-1l-1,-1h1v1ZM918,505v-1ZM892,501h-1ZM968,536v-1ZM960,537v-1ZM998,483v1v-1l-1,-1v1l1,-1l-1,-1l1,1ZM995,464v1ZM970,520v1ZM13,516v-1ZM172,145h-1l1,-1ZM173,144v-1ZM181,141v-1h1h-1ZM607,196h-1v-1ZM637,185v-1h-1v-1l1,-1h1v3ZM620,210h-1v-2h1v1ZM594,239h-1v-2l1,1h1ZM597,238h-1v-2l1,-1v2ZM589,224l-1,1v-3h1ZM581,211h-1v-2l1,1ZM582,209h-1v-2h1v1l-1,1ZM578,220h1v1h1h-1v1h-1v-1ZM591,223h-2l1,-1h1ZM638,137v1l-1,-1ZM640,139h-1v-1h-1h1ZM636,157h-1h1v-1ZM616,208l-1,1v-1ZM581,220l-1,-1l1,-1v1ZM583,217v-1h1ZM585,213v1l-1,-1ZM604,211h-1h1v-1ZM602,212h2l-1,1h-1ZM586,229v-1h1ZM683,267l-1,-1h1ZM656,145h2l3,1h2v-1l1,-1h1l-1,1v2h1v1h1v1l1,1h2v1h-2l-1,1h-4l-2,1l-1,1v2h-1v1h1v1h-1l-4,-2l-5,-2l-5,2l-2,-2h-1l-1,1v1h1v1h2l2,1l1,1h1l-1,1h-1l-1,-1h-1v2h-1l-1,1v-1h-1v-2l-1,-1v-1h-1v-1h-1v-2h1v-1h1l1,-1v-1h-1v-1h3l1,1h1v-8l-1,-2l-1,-1v-1h-1v-2h1v-1l2,2l2,1l2,2l2,1h1l2,1l1,1h1Z"/>
<path class="sl" d="M595,214l1,1h1v-1h1l1,1l-1,1v1h2v1h1v1h1v1h-1l-1,2v1l-1,1v4l-1,2h-1l-1,1l1,1l-1,1h-2v-1h1v-1h-1v-3h-1v3h1l-1,1l-2,-1h-1v-1h1v-1l-1,-1v-3l2,-2v-2h-1h1l-2,-2v-1h-2v1l1,1h1v1h-1l-1,-1l-1,1v1h-1v-2h-1v-2l1,1v1h1v-1h-1v-1l-1,-1h-1v-1h2v-1h2v-1h2v-1l1,-1h1l1,1h1v1ZM616,210h2l1,1v2h1l-2,1l-1,1v2h-1l-2,-2h-2l-2,1v1l-1,1v2l-1,1h-1v-1l-1,1l1,-1l-1,-1h-1l-1,-1h1v-1h-1v-1h-2l1,-1l2,-1v-1h1v-1l1,-1l1,1h3l1,-1l-1,-1h2v-1h2ZM648,162h1v1l1,1v2h1v1l1,1h1l1,1l1,2h1v2l1,1v4h-1v4h-2l-1,1v1l1,1v1h1v2l1,2v2h-1v5l2,2v1h-1v1l-1,1l1,1l-1,1h-1v1h-1v1l-1,-1v-3h1v-1l-1,-1h-1v1l-1,1l1,1v1l-1,-1h-2l-1,1l1,1v1l-1,1v1h-1v-3l-1,-1h-1v1h-1v1l-1,1v1l-1,-1h-5l-2,1l1,-1h1v-1h-1l-1,1v-1h-1v1v-2h-1h1l-1,-1v1h-1v3l2,1h1l-1,1h-2l-1,1l-2,4l-1,1l-2,-1l-3,-3v-2l1,-1v-2h-3l-1,-1h-2l-1,1h-1l-1,1h-3l-1,1h-2v1l-1,-1l-2,1h-1l-1,-1h-1v4h-1l-2,-2h-1l-1,1h-3v-1l-1,1l-1,-2l1,-1h2l2,-2h1l3,-3h1l1,-2l1,-1h10l1,-1h3l2,-1v1h1l-1,1h4l1,-1h1v-1h-1v-2l3,-3v-6h2l1,-1v2h-1v1h-1l1,1v1h1l1,1h1v-2h3l1,-1h1v-1l1,-1h1v-2l1,-1l2,-1l1,-1v-1h-1l1,-1v-2l1,-1v-5h-1v-1h-1l-1,-1h1v-2l-1,-1v-2h1v-3h2l1,2v1h1v-1h2v-1l-1,-1h-1l-1,1v-3h1v1ZM550,283v1h-1l-1,-1h1l1,-1ZM547,285h-1l-1,-1h1v-1l1,1ZM559,281h-2l1,-1ZM580,266h-1v1h-1l-1,1v1h-1v1h-1l1,-1v-1l1,-1v-1h2v-2l1,1ZM584,258v-1l1,1ZM588,254l-1,1l-1,-1h-1h1v-1h2v-1h1v1h-1v1h-1ZM587,255h-1v-1v1ZM656,219h-1v-1h1ZM77,237v1l-1,1h-1v1v-1l1,-1ZM107,269l-2,2h-1v1h-1v-1h1l2,-2h1v-1l1,1ZM297,431l-1,-2h-1l2,-2l1,2ZM296,426l-1,1v-1ZM292,418v1l-1,-1ZM294,422l-1,-1l1,-1v1ZM295,420h-1v-1h1ZM290,411h-1v-1h1ZM288,399h-1l1,-1l-1,-1h1v-1h1v1ZM291,392h-1v-1h1h-1ZM291,390v1l-1,-1v-3l1,-1v-1h1v-1l-1,-1l1,-1v-3h1v-4l2,-2v4h-1l-1,1l1,1v3l-1,1v1l-1,1v1h-1v1h1l-1,1v1ZM294,386v1h-1v-1ZM292,379v-1ZM151,420l-1,1v-1ZM35,609h-1v-1v1ZM88,677h-2v-1l-1,-1v-2h1v1l2,2ZM944,611v-1ZM935,619v-1ZM839,666h1l1,1l1,3h1v1l1,1v2l2,2l1,2l1,1v1l1,1v2h-1v1l-1,-1h-1v-1l-1,-1v-1h-1v-1l-2,-2l-1,-2h-1v-3l-1,-1v-1l-1,-1v-4ZM851,686v-1ZM815,658l1,-2v1ZM857,676v2h-1v-2l1,-1ZM851,670h-1l1,-1v-1h1h-1v1ZM854,674v-1h-1v-1l1,-1l-1,-1h2l-1,2v1ZM254,873v-1h1v2h2v-1h2v1h1v1h-1v-1h-1v1h-1h1v1h1v-1l1,1v1l-1,-1h-3v1h-1v-1h-1v-1l-1,-1v-1h-1l-1,-1v-1h1v1h1v1Z"/>
<path class="sl" d="M254,873h-1v-1h1ZM185,859h-1ZM924,634l-1,1v1l-2,2v1l2,-2v1l-1,1h-1v1h-1v-1l-1,1h-1v1h-1v-3h1l2,-2h1l1,-1h1ZM914,644v1h1v4l-2,2v-1l-1,1h-2l-1,-1v-2h1v-2l2,-2h1ZM922,641v-1h1v-1v1ZM922,641v-1l1,-1v1ZM912,657l-1,1h-1v1h-1v-1h1v-1h1ZM924,650v-1ZM924,652v-1ZM927,649l-1,1v-1ZM926,644h-1l1,-1ZM923,660h-1v-1h1h-1h1ZM918,657v1ZM911,642h-1h1v-1ZM919,644v-1ZM917,650v-1ZM916,647v-1ZM924,637h-1h1v-1ZM919,603h-1ZM30,359v1ZM29,363h1v-1v1l-1,1v-3h1v1ZM93,212h-1h1v-1v1h-1h1v-1l1,-1v1h-1ZM93,211v1h-1h1v-1v1h-1h1l-2,2v1h-1v1v-1l1,-1v-1l1,-1v-1ZM31,602l1,1v1l-1,-1ZM30,604l-1,-1h1ZM28,600v-1l-1,-3l1,2v1ZM501,283v-1ZM529,230h-1l-2,-1l-1,-1h-1v-1h1l2,2h2ZM532,241h-2v-1h3ZM532,243h-1v-1ZM533,241v1ZM514,275v1l-1,-1h1l-1,-1h2ZM438,310h1v1h-2ZM525,255h-1l1,-1ZM464,296v1v-1h-1v-1h1ZM458,306h-1v-1h1v-1v1ZM457,306h-1v-1h1ZM442,319v1l1,1v1h-2l-1,3h-1v1l-1,1v2h-1v1h-1l-1,1h-1h1v1h-3v1h-5l-1,-1h-1l-2,-1v-6h1v-1h1l2,-2h1l1,-1h-1v-1h3v-1h4l1,-1l1,1h1v-1l1,1v-1h2v1ZM468,299v-1h2v2h-3v-1ZM470,301h-1v-1ZM468,301h-2l1,-1h1ZM374,392h-1v-1ZM376,397h-1v-1ZM334,395v1l-1,-1ZM333,404v-1h1h-1ZM334,390v1v-2l1,-1v2ZM337,387l-1,-2h1v1h1ZM337,388v2h-1v-2ZM336,381h1v1l-1,1h-1l1,-1v-2ZM334,385h-1v-1h1ZM308,353v1v-2l1,-1v1ZM333,350h-1v-2h1v1ZM305,330h-1v-1h2ZM305,321v1v-1h-1v-1ZM306,323l1,1h1v1h-2v-1ZM337,395h-1v-1ZM333,389v-1ZM334,383h-1v1v-1h-1h1ZM336,377v1l-1,-1l1,-1ZM311,354h-1l1,-1ZM301,320v1v-2ZM475,446v1l1,1v2l1,1h-2l-1,-2v-3ZM474,446l-2,2v3h1h-1v2l-1,1h-1v-1l-1,-1h-1v-1l-2,-2h3l2,-2h1l2,-2ZM291,302l-1,1l1,-3v1ZM294,301h-1v-1l1,-1v1ZM288,303h-2l2,-2v-2h-1v-2h1v1l1,1v3ZM296,305l-1,1v-1l1,-1ZM296,308h-1v-2h1v1ZM288,296h1h-1v-1ZM85,278l-1,1v-1l1,-1v-1l1,-1v1l-1,1ZM131,179l1,-1h1h-1v2l1,-1v1h-1v1l-1,1v1h-1v1v-1h-1l1,-1v-2h1ZM139,169v1v-1h1ZM708,594v1l-1,1v1h1v1l1,1v2l1,1v11l1,1v1h2l1,-1h1l1,-1l1,1v2l2,1l3,3h-1v7l1,2l-1,1v3l1,1v1l1,1h1v4l1,2l-1,3l-1,2v1l1,2h1v1l-1,1l1,1v1l1,1h1l1,1h1l1,1h2v1l1,1v1h1l1,1h1v1l1,1h2l1,2v1h-1v2l3,3v3l1,1l-1,2v4h1v1h1v1h1v-3h1v1l2,2h1v-1h1v1l-1,3v6l3,3h1l1,1v1l1,2v1l2,2v3h1v5h1v1l-1,2l-1,6l-1,1v12l-1,1l-1,2l-2,2v1l-2,3v1l-1,1l-2,3v2l-1,1v1l-1,1l-1,2l-1,3l-3,2v1l-1,1v1h-1l-1,1h-1v1h-1l-1,1l-2,1v1l-1,1h-1v1l-1,1v1l-5,5v1l-2,2v1h-1v1h-1v1l-5,5v1l-1,2l-2,2v1l-1,2v1l-1,1v1h-1l-2,2h-9l-2,1l-1,1l-7,4h-4v1h2l-1,1v1h-1v-2h-2v-1h-1v-1h-1v-1h1v-1h-1l-1,1l-2,1v-1l-1,-1h3v-2l-1,-1l-2,2h-1h1v1h-2l-2,1l-2,2h-1l-1,1l-1,-1h-1v-1h-2l-1,-1h-1v-1l-1,1l-2,-1h-1l-1,1h-1v-1l-2,-2h-2l-2,-1v-2l-2,-2v-3l1,-1v-3l-2,-4l-1,-1l1,-1v1h1v-2h-1l-1,1h-2l-2,1h-2l4,-4v-3l-1,-2v-1l-1,-1v1h-1l-1,1v2l-2,3h-2l-1,1h-3l2,-2h2l1,-1v-2l1,-1v-2l4,-4v-3h1v-5l-1,1v1l-3,3l-1,2l-2,2h-1l-1,1h-1l-1,1h-1l-5,5l1,1v1h-1l-1,-1l-1,1l-1,-2l-1,-1h-1h1v-1v1h1v-5l-2,-2v-2l-1,-1h-2l-1,-2v-2h1v-1l-2,-1l-1,-1h-1l-1,-1h-2l-3,-1h-4l-3,-2l-2,-2h-3l-1,1h-12l-2,1l-10,3l-2,1h-11l-2,1l-1,1h-2l-4,2l-1,1h-2l-3,3v2l-2,1l-1,1h-11v-1h-4l-5,1h-7v1h-1l-3,3h-3l-2,2l-3,2h-12l-2,-1l-3,-3h-1l-3,-1h-1l-1,-1v-5h1l1,1h1l2,-2v-13l-3,-5l-1,-1l-2,-5v-6l-1,-2l-2,-2v-3l-4,-4v-4l-1,-1l-2,-4l-3,-3l-1,-2h-1h2v-1v1l1,2l1,1h1l1,-1v-1l-1,-1h-1v-1l-1,-1l-1,-2v-1h1l1,1v3h1v1v-1l1,-1v2l1,1h1v-4l-4,-7l-1,-2l-1,-1v-6l1,-1l1,-2v-5l-1,-2l2,-5l1,-1h1l-1,3l1,1v1h1l1,-1v-1l2,-2v-1l8,-4l3,-3l5,-2v-1h4l1,1h1l6,-3h1l2,-1h2l3,-2h4l2,-1h3l2,-1l4,-1l2,-2l2,-1l1,-2l1,-1v-1l1,-1v-1l4,-4h1v-1h-1v-6l1,-1v-1l1,-1h1l3,-3v-1h1v2l1,2l1,1l1,2l1,1v1v-1l1,-1v-2l1,1h1v-2h-1v-1l-2,-2v-1h1v-2h1l1,2v-1h3l1,1h4l-1,-1h-2l-1,-1l1,-1h1v-1l1,-1h-1l-1,1v-4h1l1,-1v-1h1l2,1v1v-1h-1v-2h1v-1h1l1,1h1v-1l-2,-2v-1h1v-1h3v-2h1v1h1v2l1,-1h1v-5h1v1l1,1v-1h2v1l2,-2v-1l1,-1l1,1h1l1,1l2,1l2,2l1,2l3,2l-1,1v2l-1,2h1v-1l1,1v-1l-1,-1v-1h1v-1h1l1,-1h1l4,1l1,1v-1h2l1,1v1h1l-1,-1v-1h2v-1h-1l-1,-1l1,-1h-2v-3l2,-1l1,-1v-2l2,-2h1l1,-1l-1,-2h1v-1l1,-1l1,-2h2v-2h1v1h1v-1l1,-1v-1h2v-1h1v1l1,1h6v-1l1,1h1v-1h2v-4l-1,-2h-4l-1,-1h-1v-1h3v1l1,-1l2,1l1,1h1l1,-1l2,2v1h2v1h4l2,1l1,1h5v1h1l2,1l2,-2l2,-1h1v-1h1l-1,1v1l-1,1v1l1,-1h1v2h2l1,-1l-1,-1l2,-2h1v2l1,1h1l1,1l-4,4v1l-1,2h-2l-2,1v5l-1,2l-1,1l-2,3h-1v3h1l3,3l2,1v1l2,1h1v1l1,1h2l1,1h1l2,1l1,1l1,2l1,1l4,2l1,-1l1,1l2,1v2l2,2l4,2h4l2,-1l1,-1l1,-2l1,-1l2,-3l1,-2v-2l1,-1v-2l1,-2l1,-4l1,-1v-2l-1,-3l1,-1v-3h-1v-2l1,-2l1,-1v-4l1,-1h2v-2h-1l-1,-1v-1l1,-2l1,-1l1,1v-2l1,-2l1,-3v-3h1l1,-1v-1h2l-1,1v1l2,2v6l1,1Z"/>
<path class="sl" d="M759,709h-1l1,-1v-1l1,-1v-1l1,-1v-1h1v-1h-1l1,-1v3l-2,3ZM676,633l-1,1v-1l-1,1h-1v-1l1,-1h1l2,-1v1h-1ZM656,609v1h1v-1v1h-1v2l1,1v-1v1h-4v-3l1,-1h1v-1h1ZM606,591h1v1h-5v-1h2l-1,-1v-1l1,-1h1v2ZM607,588h4l1,-1h1l2,2h-1v1h-1v1l-3,2l-3,-2l-2,-2v-3h1v1ZM462,710l-2,-4h1l1,2v1ZM636,784h3v1h-3v1h-2l-1,-1v1h-3l-1,-1v-1h1l3,-1h3ZM681,803h-1v-1h1ZM680,804h-2l1,-1ZM742,665h-1v-1l1,-1v1ZM741,663h1ZM751,691v2l-1,-2ZM749,681h-1h1v-1ZM745,680v-1ZM758,722l-1,3v-3ZM758,721l-1,1v-1l1,-1v-1ZM702,583l-1,1v-2ZM703,579h-1v-1h1ZM702,578l-1,1v-2ZM725,647v2h-1v-2ZM656,588v1v-1l2,-2v1ZM654,590l-1,1l2,-2v1ZM657,626l-1,-1h1v-1v1ZM656,625v-1ZM654,625h-1v-1h1ZM675,637v1l-1,-1h1v-1l1,1ZM652,609h-1l1,-1ZM624,588h-1v-3h1v1ZM561,615l-1,1v-2h1ZM555,622v1v-1h-1l1,-1ZM479,667v1h-1v-1l1,-1ZM672,819h2v1h2v1h2l1,1h1l1,-1l1,1v-1h2l1,-1v1h1l1,-1h1l1,-1h1v1h1l-1,2l-1,1v2l-1,1v1h-1v1v-1v1h-1v1h-1v1l-2,2v2l-1,1h-1v-1h1v-1h-1l-1,1v-1h-1v1l-1,1v1l-1,-1v1h-1v1l-1,1h-1l-1,-1h-2l-1,-1h1h-1v-2h-1v-5h1v2l1,-1l-1,-1v-1v1v-2l-1,-1v-6l2,-2v1ZM667,815v-2h1v-2h1v3h-1ZM692,812l1,2v1l-1,1h-1v-3ZM678,837h-1v-1h1ZM684,832v-1l1,1ZM679,836v-1h-1h1v-1v1ZM671,817v1v-1h1ZM693,816v1h-2v-1l1,1ZM691,818v-1ZM689,903l1,-1v1ZM396,581h-2v-1h1ZM324,596v-1h-1h1ZM324,596v-1ZM291,895l-1,1v-1h-2v-1l1,1h1ZM835,736v1h-1l1,-1h-1ZM548,597h-1ZM336,972l1,1h1h-1l-1,-1h-1l-1,-1h-2v-1h-2v-1h-3v-1h-2l-1,-1h-2l-2,-1l-1,-1l1,1h2l1,1l3,1h3l1,1l-1,-1l1,1h2l1,1v-1h-1l-1,-1h-2l-1,-1l-2,-1h-2v-1h-1l-1,-1h-1l-1,-1v-1h-1v-1l-1,-1h-1h2l1,1h3l1,1l-1,-1h-1l-1,-1h-1v-1h-3v-1l1,1h3l-2,-1h-2l-1,-1h-1v-1l-1,-1h1l1,-1h3l1,1h2l2,1h1l2,1h-1h1v1h1l1,1h1h-1v-1h3v1h2l2,1l1,-1h1l2,1h4l1,-1l2,1h12l1,1h1l1,1h2v1l1,1h1l1,1h1h-1v1h2l1,1h-1v1h1l2,1h1v-1l1,1h2l1,1v1h1v1h1v1h2l2,2h1l2,1l1,1h2v-1h-1l-2,-1v-1h1h-1v-1h-1l1,-1h-1l-1,-1h-1l-1,-1h-1v-2h-1l-1,-1h1v-1h1l1,1h2v-1h-1v-1h1v-1h1l-1,-1v-1h-1v-1l2,-1h2l1,-1h4l-1,-1h1v-1h7v-1h9l1,-1h12l1,-1v1h6l1,-1l1,1h1l2,-1h1l1,1h2l1,-1h3l1,-1v-1h10l1,1h2l5,1h4l1,1h4l2,1l1,-1h2v-2h1l2,-1h4l2,-1v1h3l1,2h4l1,1l-1,1h-4l-1,1h7l1,-1h13l-3,1h-1h5l2,-1h4v-1h6l1,-1l1,1h3v-1h5v1l2,1h6l1,-1l2,-1h1v-1h14v1h3l1,-1h2l1,1h6v1v-1l3,1h5l1,1l1,-1l1,1h5v1h1l1,-1v1h-1l-2,2h-1h4l1,-1l1,1h1v2h-1h2l2,1l1,-1h7l-2,2h1v-1l2,1h4v-1h1l1,-1h1v3h3v1l2,-1l1,1h2l-2,2v1l-2,2h1l2,-2h2v1h6l1,1h-1v2h1v1h-3l-1,1h-1l-1,1h-2v-1l-1,1h1l-1,1h-2l-2,1l1,-1h-4v1h-4v1h-2l1,-1h1h-2l-1,1h-1l-1,1h-1v1h-4l1,-1h-1l-1,1h-2l-2,1h-2l-2,1h1h-1v1h-2v1h-2l-1,1h-2v1h-1l-1,1h-2l-1,1h-1h2v1h-7l1,-1h-1v1h-3l-2,1h-3l-1,1h-4l-1,1h1h-1l-2,1h-2v1h-5v1h2l1,-1v1h-2l-1,1h-1h1h-1v1h1h-1h1h-1l-1,1h1h-1h2l2,-1h5l1,-1h4l1,-1v1h1h-3v1l1,-1h9l2,-1h4l1,-1h7v-1h6l1,-1h4v-1h5l1,-1h4l1,-1h2v-1h4l1,-1h1v1h-2l-2,1l1,-1h4v-1l-1,1h-1h-2l-1,1h-3l-1,1h-5l-1,1h-4l-1,1h-4l-1,1h-5l-1,1h-5l-1,1h-7l-1,1h-6l-1,1h-9l-1,1h-10l-1,1h-15l-1,1h-44l-1,-1h-15l-1,-1h-10l-1,-1h-9l-1,-1h-6l-1,-1h-7l-1,-1h-5l-1,-1h-4l-1,-1h-6l-1,-1h-3l-1,-1h-4l-1,-1h-5l-1,-1h-3l-1,-1h-3l-1,-1h-3l-1,-1h-3l-1,-1h-3l-1,-1h-3l-1,-1h-2l-1,-1h-3l-1,-1h-2l-1,-1h-2l-1,-1h-2l-1,-1h-3l-1,-1h-3l-1,-1h-2l-1,-1h-1l-1,-1h-2l-1,-1h-1ZM616,986h3l1,-1l-2,1h-1Z"/>
<path class="sp" d="M608,988h-1l-1,1h-3l-1,1h-5l-1,1h-4l-1,1h-4l-1,1h-5l-1,1h-5l-1,1h-7l-1,1h-6l-1,1h-9l-1,1h-10l-1,1h-15l-1,1h-44l-1,-1h-15l-1,-1h-10l-1,-1h-9l-1,-1h-6l-1,-1h-7l-1,-1h-5l-1,-1h-4l-1,-1h-6l-1,-1h-3l-1,-1h-4l-1,-1h-5l-1,-1h-3l-1,-1h-3l-1,-1h-3l-1,-1h-3l-1,-1h-3l-1,-1h-3l-1,-1h-2l-1,-1h-3l-1,-1h-2l-1,-1h-2l-1,-1h-2l-1,-1h-3l-1,-1h-3l-1,-1h-2l-1,-1h-1l-1,-1h-2l-1,-1h-1M618,986h-2"/>
<path class="sl" d="M588,992h-1l1,-1h3l1,-1h2l-1,1h-4v1ZM583,986h2l-1,1h-3v-1h3ZM578,988h-1h2v-1v1ZM440,951h-3v-1h3ZM332,971h1h-2v-1h-1h1ZM559,996h1ZM572,994h1ZM594,980h1ZM588,982h-1ZM611,978v-1h1ZM639,959h1v-1h1h-1v1ZM640,957h-1l1,-1ZM640,955l1,-1ZM426,953h1h-2ZM439,953h-1ZM435,954h-1ZM448,950h-2l-1,-1h1l1,1ZM412,952h-1ZM396,956h-1ZM397,956h-1v-1h1ZM393,955h-1ZM385,973h-1ZM384,974h-1v-1l1,1h1ZM381,969h-2l-1,-1h1l1,1ZM315,958h1ZM615,987l1,-1h-1ZM612,987h1Z"/>
<path class="sp" d="M613,987h-1"/>
<path class="sl" d="M612,987h1ZM615,987h-1ZM609,988h1ZM614,987h1ZM618,986h1l1,-1l-1,1Z"/>
<path class="sp" d="M620,985l-1,1h-1"/>
<path class="sl" d="M615,987h-1h1l1,-1ZM609,988h1ZM586,992h1ZM611,987h1ZM568,995h1ZM933,569v-1Z"/>
<path class="sw" d="M14,603v-1ZM14,604v-1ZM102,282h-1ZM139,169h1h-1v1ZM220,174h1v-2h-1v1ZM223,173h1h-1v1ZM218,174h-1ZM222,167v-1Z"/>
<path class="sh" d="M325,477l2,2v1l1,1v4h-2v-3h-2v-1l-2,-4h2v-1ZM339,505h-1l-2,-1v-1l-2,-2v-1l1,-2h2v1l1,1v2l2,2v1ZM488,564l-1,2h1l-2,1h-1l-2,-1h-1v-1h1v-2l2,-2h4v1ZM478,560l2,2v1h-1l-2,1v1h-1v1h-1v-2l-2,-2h-3v-2h4l1,-1h1l1,1ZM397,504v1l1,1v2l1,3l4,1h-1v1l-1,2h1v1h-2v-1h-2l-1,-1h-1v-1l-1,-1l1,-1h-1v-2l-1,-1h-1l-1,-1l-1,1h-1v-1h-1v-1h1l1,-1v-2h2v1h1v-1l1,-1l1,1ZM545,529v1h-1v2h-1v2h1l1,1v1h-2v1l-1,1v1l-1,-1v1l-1,-1v-2h1v-2l1,-1v-4l2,-2v1ZM540,535v1h-3v-1l1,-1v-3l1,-1h2v-1v3l-1,2ZM416,457h-2l1,-1h-1v-1h-1v-1l2,-1l1,-1v1l1,1v2ZM415,515v2h-2l-1,-1v1h-2v-5l2,-1v1h2l2,2ZM649,495l2,1h3l3,3h1l-1,1h-3l-1,-1l-1,-2l-1,-1h-1v1v-1h-1ZM650,503l3,1h3l2,1h4l-2,1h-5l-5,-2ZM611,489l1,1h1l2,1v2h-1v-1h-2l-2,-2h-1v1h1v1h2v1h-2v-1h-1v1l-1,-1h-1l-1,-1l1,-1h3ZM591,471h-2v-2l2,-2h1l1,1l-1,2v1ZM588,504h-6v-2l1,-1h2l2,2h1ZM570,511l-1,-1v-1l-1,-2l1,-1l1,1l-1,1l1,2ZM570,505h2l-3,1h-4l-1,-1h3ZM561,504h2v1h1v1h-6l-1,1h-1l-1,-2l1,-1v-1h2ZM614,559h-2v-1l1,-1v-1l1,-2h1v-1h1v-1l1,-1l1,1l-1,1v3h-1v1h-1v1ZM576,556v1h-2l-1,1h-4l-2,1v-1l2,-2h3l1,-1h1l1,1ZM557,560v1l1,-1h3v2l-5,1l-1,-1v-2h1ZM613,501h-2v-1h-1v-2l2,-1h1v3ZM317,444h9v1l1,1l2,1v1l3,3v1l-1,1l1,1l2,1h1v1l1,1h1l2,1l3,3l2,1l1,2l1,1l1,2l2,2v1h1l3,3v-1l-1,-1v-1h2l2,1v1l1,1v1l1,1h2l4,4v2l2,1v1h3l1,1h1v2l-2,1h2l2,-2h2l1,1v1l1,1v2h-1l-2,1v2h1l-1,1l1,2h1l1,1l2,1h1l1,1l1,-1v1l1,1v3l1,1v2l1,1h1v2l-1,1v2l2,-2h4l1,1h1l2,4l2,1v2l-2,1v3l1,1l-1,2v6l1,2l-1,6l-1,1h-1v-1l-2,-1l-2,1h-1l-3,-2v4l-7,-7v-1l-4,-2l-1,-1h-1l-2,-2l-3,-2l-1,-2l-2,-2v-1l-3,-2l-4,-4v-2h-1l-1,-1l-1,-2l-1,-1v-3l-4,-7l-3,-5l-2,-2l-1,-2v-1h-1l-2,-1l-2,-2v-2l-2,-7l-2,-4l-4,-2l-1,-1h-2v-1l-1,-1v-3l-2,-1v-1l-1,-1v-1l-3,-3v-1h-3l-1,-2l-1,-1l-2,-1l-4,-5l-1,-1l-1,-3v-1h1v-1h-1v-1h5v1l2,1l1,1h1ZM541,564h-1l-1,1h-4l-2,1h-1v1l-1,-1h-2v1h-3l-2,-1h-4l-2,-1l-1,1h-1v-4l1,1l2,-2h4l1,1h3l2,2h2v-1h4l2,1h2v-1l1,-1h1l1,-1l-1,-1h2v2h-1v2ZM517,571h1l1,1v1h3v1h1v1l1,1v1l-1,1h-1l-1,1v-1h-3v-1l-2,-2l-2,-1h-5v-1l-1,-1l1,-1h3l2,-1l1,1h1l1,-1ZM502,561l1,1l1,-1h1l1,1h1v-1h1l1,1v2h1v1h-3v1h-4v-1l-1,1h-1l-2,1h-3l-1,1h-5v-1h-1v-1h1v-3h2l1,-1h1l1,1l1,-1l1,1v1h1v1h2l1,-1h1v-1h-2l-2,-1v-2h3Z"/>
<path class="sh" d="M560,480l-2,2v1h-1v1l-2,2h-5l-1,1l-1,-1h-2l-1,-1h-21l-1,-1l-1,1h-1l-2,2v1l-1,1v6l2,2h1l1,1l1,2v1h4l2,-2l1,-2h1v-1h1v1h4v-1h7v-1h-1h1l1,-1h2l1,1v3h-1l-1,-1h-3v1h-1v1l-4,4h-1l-2,1l-1,1h-1v1h-1l-1,-1h-1v1h1l1,1v1h2v1h1l1,2v1l3,3h-1l1,1v3l-1,1v1h1l1,1v1h1v1l1,1h1v-1v1h1v2h-2v1h-4l-1,1h-1v2h-4v-1l-1,-1l1,-3v-1h1l-1,-1h-1l-1,-1l-4,-3v-1l1,-2h1v-4l-1,-1h-3l-1,1l-2,1v3h1v13l-1,2v2l1,2v2l-1,-1l-1,1h-3l-1,1l-3,-3v-2l1,-1v-4h1v-5l-1,-2v-2l-1,-1h-1l-2,1l-2,-2v-2l1,-1l-1,-1v-2h1l2,-1v-3l2,-2v-1l-1,-1l1,-1l-1,-1v-1l1,-1l1,-3l1,-2h1l1,1v1v-2l-1,-2v-3h1v-3l1,-2l1,-1v-1l2,-2v-1l1,1v1h2v-1l1,-1v-1l1,-1h5v1h1v1h8l1,1h1l1,1h1v-1h3l6,1l3,-2l2,-2v-1h2v-1l2,-2h1v1l1,1l-1,1l-1,2v1ZM408,542l1,1h3l1,1h4v1l1,1l1,2h1v1h13l1,1h1v-1l1,-1v-1l2,-2h2l1,2l1,1l1,-1h1l1,1h3l1,1h4v2l1,1h1v3l2,1h9l3,1v7h1l1,1h-2l-1,-1h-3l-6,-3h-2l-1,1h-7l-6,-1h-5l-7,-3l-1,-1l-6,-1h-5l-1,1h-5l-1,-1h-1v-1h-1l-2,-1h-7v-1h-1v-1h1v-1l-2,-1l-3,-1h-5l-1,-1h1v-1l1,1l2,-2h1l1,-3v-1l1,-1h3l1,1h4l1,-1h2ZM427,472v3l3,3h1v1l2,1l2,2l1,-1l3,-1h7l1,-1h1l1,-1v-1l1,-1h2l4,-1v1l1,1h1l2,1h3l2,-2h5l1,-1v-2h1v-4h2l1,-1v-4l1,-1h2v-3l1,-1v-5l2,-2v-1h1l1,1l1,-1h2v1l1,-1h5l2,1l1,1h1l-1,1h1v1h1l1,1v1h-5l-1,1h1l2,2l-1,1h1l1,1h1v1l-1,1h1v1h1v1l3,3l-2,2h-1l1,1v1l2,1v1l5,3l1,2h1l1,1h-1l-1,1h-4l-1,-1h-1l-1,-1v1l-1,1h-1v1l-2,3l-1,6l1,2v2l-2,1h-1v1l-1,1h-1v1h-1v-1h-1v-1v3l-1,1h-1v1l-2,1v1h1l1,1l-2,2h2l1,1l-1,1v1h-2v1h1v2h-1v1h-1l1,1l-2,2v2h-1l-6,3l-5,2v-4l-1,-1v-1h-2v-1h-2l-1,1h-3v-2h-2l-3,-2l-1,2l-2,1l-1,1h-1l-2,-1l-1,1l-2,1h-1v-5l-1,-1v1h-4l-1,1h-2v-1h-1v1l-1,-1v-1l-2,1h-1l-1,-2v-4l-1,-2v-1l-1,-1v-1h1v-3l-1,-1v-1h-1v-1l-1,-1h-4v-1l1,-1l-1,-1h-1v-4l1,-1l-3,-3v-7h2v-1h-1v-1l1,-1v-1l2,-2v-1ZM585,482h1v-1l2,-2v-1l2,-2h3v4l-2,1h-1l-1,1v1l1,1h2v1h1v1l1,1h1l-3,-1h-3l-1,-1h-2v4l2,4l1,3h1l1,1h-2v-1l-2,-1l-1,-2l-2,-2v-5l-1,-1v-4l-1,-2v-1l1,-2v-2l3,-3v-1h1v1l-1,1v2h1v4l-1,1l-2,1v1ZM602,514l2,1h3l2,2v1l2,2v3l-4,-2h-1l-2,-1v-1h-1l-1,-1h-2v1h-3l-1,-1h-1v-1h-1v1h-1v1h-3l-1,-1v-1h-2v1l-1,1v1v-3l2,-2v-1h8v1h1l1,-1h2ZM577,516l1,1h1v1h1v3h-1l-1,1h-2l-1,1l-1,-1h-1l-2,-1v-1l-1,-1v-3l1,1l1,-1h4Z"/>
<path class="sh" d="M560,567l-1,1h2v1h-1v2l1,1h-1v1l-4,4h-1l-1,1h-1l-2,1h-3v-1l1,-1l-1,-1v-1l1,-1v-1l3,-3v1h2l1,-1v-1h2v-1h1l1,-1ZM643,539v6h-2l-1,-1h-1v-1l-1,-1h2v-2h-1v-1h1l1,-1v-1h2v1ZM641,546v1l-1,1v1l-1,1l-2,-2l1,-2h1h-1v-3l2,2ZM674,562l-2,1h-6l1,-1l1,-3l2,-3l1,-1h1l2,-1h2l1,1v1l1,1l-1,1l-1,2l-2,1ZM695,513v19l-1,2v12l-1,2v2h1v5l-1,2v12h-1l-2,-2v-1l-5,-5l1,-1v-1v1h-2l-1,1h-3v-1l-1,-1v1l-2,2h-1v-1l1,-1v-1l1,-1v-3h-1v-1l-1,-1h2l1,-1v1h-1l-3,-3h2l-1,-1v-1l-2,-2v-1l-1,-2v-2h-1v-1l1,-1h-1v1h-1v-3h-1l-1,-1h-1l-3,-3h-3v-1h-3l-2,-1l-1,-1h-1l-1,-1h-2l-2,-1h-3l-3,-2l-1,-1v-1h1h-4l-1,-1h-2v-1h-1v-1h-1v-3l1,-1v-1h-1v3h-1v1l-1,1v2l-2,2h-3v-1l-1,-1v-1l1,-2v-1l-1,-1l-2,-1l-1,-2h-3v-2h5v1h1l3,-3h3l1,1h1l1,-1h1v-1l-1,-1h1v-1l-2,1h-11l-1,-1h-1v-1h-1v-1l-1,-2v-1l-6,-1h-2v-1h1v-1h1l1,-2v-1l1,-1h3l2,-2h1v-1h2l1,-1l1,1h2l4,2l1,1h5l1,1l-1,1l1,1v1l1,1v2l-1,1v6l2,2l1,2v-3l1,1v1l1,2h1v3l1,1h4l1,-1v-1l2,-1l1,-1v-2l2,-1h1v-2l1,-1h3l2,-1l1,-1v-2l4,-2h3l1,1l4,1l2,2h1l1,1h1l4,2h3l1,1h4v2ZM676,563h-2v-1l1,-1h1l1,1ZM360,471v3l-1,1l-2,-2v-1l1,-1v1l1,-1ZM366,481h-1v-1l-1,-1v-2h1v1h1v2ZM366,477v1l-1,-1h-1l-1,-1h-1v-1h1l3,1ZM371,483h-3l-1,-1h-1v-1l1,-1h1v1h1l1,1h1ZM372,482h-1l-2,-2h-1v-1h1l2,1v1ZM373,485h-1v-2h1v1ZM374,484v-2l1,1ZM379,479h1v2h-1v-1ZM384,479l1,1v1l-1,1h-1v-2l-1,1h-1v-1l1,-1h1ZM386,491h1v1h1h-1l-2,-1l-1,1l-1,-1v-1l1,-1v1h1ZM383,492l1,1v1l-1,1v-1l-1,1v-1l-1,-1h1ZM377,492l-1,1h-1v-2h1ZM428,499l-2,1v-2h2ZM464,551h-2v1h-5l-2,-1h-1l2,-2h9l1,1ZM646,499h-1v-1h1ZM580,494h-1v-2l1,-1l1,1h-1l1,1ZM583,492l1,1l-1,2h2v1h1v1h-1l-1,-1h-2v-2h-1v-2l1,1v-1ZM628,541l-1,1l1,-2v-1l1,-1l1,-2v2l-1,1ZM627,540v1h-1v-2h1ZM589,521v1h-1v-1l-1,1h-1v-1h2l1,-1h1h-1ZM576,454v-4h1v3ZM567,459h-2v-2h1v2ZM610,562h-1l1,-1l2,-1h1l-1,1h-1ZM602,559h-1l-1,-1v-1h1l1,1ZM584,560h3l-1,1h-2ZM607,504v1h1l-1,1l1,1h-5l-1,-1l2,-1l1,-1h1ZM366,537h-1l-1,-1h2ZM349,517l1,2l-1,-1v-1l-1,-1h-1v-2h1l2,2v1ZM347,514h-1v-1l-1,-1h1l1,1ZM344,510h-1l-1,-1v-2l1,1v1ZM333,494l-1,1v-3h1l-1,-2l2,2l-1,1ZM317,469h-2l-2,-2h-2v-3l2,2h1v1l2,1ZM535,537l-2,-2v-1h1v-1l1,1v1ZM545,499l1,1h-1l1,1l1,-1h1v2h-2v1h-1v-2l-2,1v1h-1v-3l1,-1Z"/>
<path class="sh" d="M534,493h-2v1v-1h1ZM522,544v1h-1v-5l1,-1v2ZM477,550h-1v-1h3v1h-1ZM485,523l-2,1v-5l1,-1h1v4ZM542,584h-1v-1h1l1,-1h1l2,-2v2l-1,1l-2,1ZM554,562l-2,2v-1h-1l1,-1h1l1,-1ZM551,561h-1l-2,2v1l-1,-1v1l-1,-1h-1h1l1,-1v-1h1l2,-1v1ZM546,562h-3l1,-1h2ZM643,547h-1v-1h1ZM374,480v1l-1,-1ZM378,482v1l-1,-1ZM381,482h-1v-1ZM385,489h-1l-1,-2h1l1,1ZM399,462h-1v-1h1ZM394,464v-1h1v1ZM421,464h-1l1,-1ZM421,503l-1,1v-1ZM409,515h-1v-1h1ZM404,515v1h-1v-1ZM469,551v1h-1v-1ZM454,540h-1l1,-1ZM390,547h-1l1,-1l1,1ZM324,472l-2,-2h1v1h1ZM309,439l-1,1v-1h-1h1ZM549,504h-1v-1h1ZM546,525l-1,1h-1l-1,-1v-1h3ZM551,506v1l-1,-1ZM545,505l-1,1v-1ZM513,565h-1v-2l1,-1v2l-1,1ZM509,561v-1h1v1ZM479,565v1l-1,-1ZM497,453h2v1h-1ZM497,460v1l-1,-1v-1h1ZM552,541v1v-2ZM549,535v1h-1v-1ZM524,551h-1v-1ZM496,562v-2h1ZM486,519v2l-1,-1ZM581,482v1ZM641,508v-1ZM634,527h-1l-1,-1v-1l1,1ZM612,496l-1,1h-2v-1v1v-1l1,1l1,-1ZM609,494h-1v-1h2ZM600,491l-2,-2ZM582,489v1v-2ZM582,484h-1v-1h1ZM581,496h-1v-1ZM593,520v1h-1v-1ZM592,521h-2v-1h1ZM576,455v1l-1,-1v-1ZM577,456h-1ZM564,466v-1h1ZM620,552v1l-1,-1h-1v-1h1ZM592,552h-1v-1h1ZM581,556v-1h1ZM546,579v-1l1,-1v1h-1ZM533,581h-1l1,-1h1v1ZM644,546v-1ZM643,548h-1l1,-1ZM587,515l-1,1h-1v-1h1ZM583,518l1,1l-1,-1h-1ZM543,564h-1v-1h1Z"/>
<path class="sw" d="M262,61v-1l1,-1h1l-1,1h-1l-1,1h1h-1l-1,1h-2v1h-1l-1,1h-1v1v-1l-1,1h-1v1h-2v1h-1h1v-1h1l2,-1l1,-1h1v-1h2v-1h1l1,-1h1l1,-1Z"/>
<path class="sr" d="M258,62h1l1,-1h1l1,-1"/>
<path class="sw" d="M1,479v1v-2ZM19,622l1,1h-1v-3h-1l1,1v1v-1h-1v-3l-1,-1v-3h-1v-3l-1,-1v-4h-1v-4l-1,-1v-4l-1,-1l-1,-6v-3h-1v-3l1,1v4l1,1v4h1v3l1,1v5h1v3l1,2v4h1v3l1,1v2l1,2ZM14,603v-1ZM14,604v-1ZM3,500l1,1l-1,1v13h-1v1h1v1h-1v1h1v-1v4l-1,-1v1v-1v1v-1v1v-1h-1v-22h1v1v-3l1,1v4ZM2,520v-1h-1v-1v1l1,1v1ZM1,503v-1v2ZM2,518v-1ZM2,497v-1v2ZM460,82l-1,1v2h-1v1h-1v3h-1l-1,1v1h-1v-1h-1l-2,2h1v-1h1v2h-3l-1,1h1h-1v1h-2l-1,1h-2l-1,1h-2v1h-1l-1,-1v1h-1v1l-1,1h-1v1h-1l-3,1h-6l-2,-1h5v-1h3l1,-1h1l2,-2h1l1,-1h2l2,-2h-1h1l1,-1h1l2,-1l1,-1h1l2,-2h1v-1h1v-1h1v-1h1v-1h1v-1h1v-1l1,-1v-1h4ZM447,93v-1l-1,1h-1l-2,1h2l1,-1ZM17,396v-4h1v3h-1v2ZM263,60v1h-2v1h-2v1v-1h1l1,-1v1h-1h1v-1h1l1,-1h1v-1h2v-1h1l1,-1h2v-1h1h-1l-1,1h-1v1v-1h2v-1h1h-1l-1,1h-1v1h-1h1v-1h1h-1h2v-1h2v-1v1h-1h1v-1h1l1,-1v1h-2v1v-1v1h-1l-1,1h-2v1h-1l-1,1h-1v1h-1ZM267,58h1h-2v1ZM240,75v-1v1l1,-1l2,-1v-1h1l1,-1l-1,1h-1v1v-1v1v-1h2v-1h1h-1h1v-1h1l-2,2h-1v1h-2v1h-2ZM265,156h-2l-2,2h-6v-1h-1l1,-1h2l1,-1h6ZM752,68h1v1h1v1v-1h-1l-1,-1h-1Z"/>
<path class="sr" d="M751,68h1"/>
<path class="sw" d="M765,76h1v1h1h-1l-1,-1h-1v-1h-1l1,1ZM20,625v1v-2ZM315,123h-1v1h-1l-2,-2h-1l-1,-1h3v-2l1,-1h1l1,-1h1v-1h2v-1l-1,-1h-1v-1h2v1h-1h1l1,1v1h-1l-2,1h-2v1h-1v2h1h-1l-1,1l1,1h2ZM6,476v-17h1v1l-1,2v13ZM504,217v2h-3v-1l1,1v-1h-3v-1h2l2,2v-2h-1l1,-1h1v-1h2v2l-1,1v-1ZM408,103h-1v1l-3,3h1h-1l-1,1v-1l1,-1l1,-2v-1h1v-1h1ZM362,109v-1h1l2,-1h1v2h1h-1h1h-1l-1,1h-1l-1,1h-1v-1h-1v-1ZM6,575v4l1,1v1l-1,-1v-6ZM590,139v2h-1l-1,1v-1h-2v-2l-1,-1l1,-1h3l1,1ZM387,382h-1v-1h-2l-1,-1v-1h-1l-2,-2v-2h1l2,2l1,2h1l1,1v1h1ZM381,192v2h-2v-1h-4l-1,-1v-1h2l-1,-1h1l1,-1h1l2,2ZM363,34l1,-1v1ZM99,220v-1l1,-2l1,-1v2h-1v1ZM95,228l-1,1v-1l1,-1v-1h1v-1l-1,2ZM78,236v1l-1,2h-1h1v-1l1,-1v-1h1ZM123,191v2l-1,1h-1v1h-1v1v-1l1,-1l1,-2v-1l2,-2v-1h1v1l-1,1ZM177,163h-1l-1,1h-1v-1l4,-4v2h-1v1ZM310,87l1,-1h3v-1h1v1h1h-2v1h-1v1h-1v-1h-1ZM296,136l-2,-1l-1,-1l2,-2h2v1l-1,1v1ZM496,118h-1v-1h-1v-1h2l1,-1v-1h1v1h1h-1v1h-1l-1,1ZM10,596v1v-1l-1,-2l1,1ZM0,514v6h1v1h-1v-5ZM0,505v-1ZM519,233h-1l-1,1l-1,-1h-1v-3h1l1,-1v1h1l-1,1h1v2l1,-1ZM173,122h1v-1l1,-1h1v-1h1h-1v1l1,-1h-1v1l-1,1h-1v1ZM766,77l1,1h1h-1v-1ZM698,41h-1ZM300,238v-3h5v1h-1l-1,1h-1ZM112,186v1h-1v1v-1l1,-1v-1h1v-1h1h-1v1ZM620,30h-2v-1h-1h2v1ZM363,34h1ZM374,27v1h-1h1ZM374,28h1v-1h1h-1v1ZM375,27h1ZM279,52h-1h1h-1l-1,1h-1v1h-1l1,-1h1l1,-1h1l1,-1l-1,1l1,-1h1h-1ZM277,52h1h-1v1l1,-1h-1v1h-1h1ZM272,55h1v-1h1h-1v1h-2ZM299,42l-1,1h-1h1Z"/>
<path class="sr" d="M297,43h1l1,-1"/>
<path class="sw" d="M294,45h-1h1v-1h2v-1v1h-2ZM310,159h-2l-1,1v-1l1,-1h2ZM265,58h1h-1v1ZM237,75v-1h1ZM490,247h-1l-1,1h1v2h-1v-1h-1v-1l-1,-1h-1v-2l1,-1v-2l1,1h-1v3h2v1v-1h2ZM488,240h1v1h-2v-1ZM486,240h1v1h-2v-1v1h1ZM473,239v-1h1h-1h1l1,1v1h-1v-1h-1v1ZM296,228v1h-1l-1,1h-1v-1h-2v-1h4ZM358,121h-1l-1,1h-1l-1,1h-1v-1h1l1,-1v-1h2l-1,1h1l1,-1ZM831,809h-1l-1,1l1,-1v-1h1ZM121,188v-1h1h-1v-1h1v-1h1l1,-1h1v-1h1h-1v1h-1v1l-1,1v1h-1ZM459,17h1v-1h-1l1,-1h1v-1h-1h1v1h7v-1h2v1h1h-8v1h-2v1h-1ZM580,22h-1v-1h1ZM311,188h-3l1,-1h3v1ZM6,569h1h-1v-1v1v-2ZM376,331h-1v1h-1v-2h1v1h2ZM510,220h-1v1l-1,-1v-1h1v-1h1h-1v-1v1h-1l1,-1h1v2ZM413,28v1h-1v-1h1v-1h-1h1ZM254,66l1,-1h1h-1v1ZM6,530v-1v2ZM11,441v2l-1,1v1v-2l1,-1ZM742,64v1h1h-1v-1h-1ZM280,51h-1v1h-1h1v-1ZM488,240v-1h-1h2v1ZM498,123h-1v-1h1v-1h1v1ZM257,231h-2v-1h2v2ZM278,233v1h-1l-1,1v1h-1v-1h1v-1l2,-2ZM314,96h-2v-1h2ZM289,96v-1h-1h1v-1h1v1ZM327,83h-1v1h-1v-1h1ZM264,60h1h-1v1h-1h1ZM313,36v1h-2l-1,1v-1h2ZM301,41v1v-1h2v-1h1h-1v1h-1ZM788,840h-1v1l-1,1h-1h1v-1l2,-2v1h-1v1v-1ZM561,20h-1ZM301,250h-2l-1,1v-1h1v-2h-1h2v1h1ZM300,80v1h-1v-1ZM284,83h-1v-1v1ZM297,43h-1v1h-1h1v-1h2ZM612,27h-1ZM617,29h1h-1h1ZM506,230l-1,-1h2v1ZM466,241l-1,1h-1v-1h1ZM500,229h-2l-1,1h-1l-1,-1v-1h1v1h1v-1h1l1,1ZM136,173h1v-1v2h-1v1h-1l1,-1ZM476,238v1v-1l-1,1h1h-1v-1ZM475,236v-1h1v1h-2ZM495,207v1h-1v-2ZM474,238v-1v1l1,-1h1h-1v1ZM472,240v1h-1v-1ZM471,242v-1h-1v1v-1h-1h1v-1h1v1ZM317,201v1l-1,-1h-1h1ZM95,242h-1v-1l-1,1v-1h1v-1v1h1ZM704,45l1,1ZM736,61h1ZM740,63h-1v-1ZM754,70h-1v-1ZM749,67h-1h1h-1v-1ZM747,66l-1,-1h1ZM752,68v1h1h-1v-1h-1ZM366,115v1h-3l-1,-1h-1h1v-1h1l1,1h1ZM272,235v1h-3v-2h2ZM26,396v1ZM22,647v-2h-1v-1v1v-1v1h1h-1v-1v1h1v3h1v1l-1,-1Z"/>
<path class="sr" d="M23,650v-1l-1,-1v-1"/>
<path class="sw" d="M2,485v1v-1v1v-1v1v-2ZM253,67l-1,1h1h-1l1,-1h1ZM76,240v1h-1ZM83,228v1v-1h1v-1v1ZM592,629h-1v2h-1v2l-1,1v-1h-1v-3h1v-1h1v-1v1h1v-1h1ZM359,206h-2v-1h1v-1h1v1h-1ZM356,205l-1,1h-1v-1h1ZM238,161h-3l-1,1h1v-2h1l1,1ZM243,238h-1v-1l1,-1v1ZM245,237l-1,1h-1l1,-1ZM195,142h1l2,-2v-1h1l1,-1h1v-1h2v-1l-3,3h-1l-2,2v1l-1,1h-1v1h-1l-1,1v1h-1l2,-2ZM208,136h1v-1l1,-1l-1,1v-1h-1l2,-2v1h-1h2v-1h1l-1,1l1,1v-1h1v-1h1l-3,3h-1l-1,1ZM205,136v-1h1v1ZM284,130h1v1h-1l-1,1h-3v1v-1l-1,1h-1v-1h-6l-1,-1v1h-3v-1l-1,1h-3v1l-1,1l-2,1h-1l-1,1v1h-1l-2,2v1l-1,1v-4h1v-1h-1h2v-1h1v-1h2v-1l1,-1h2v-1h1l1,-1h2l1,1v-1h4v1h8v1l1,-1h1v-1h1ZM6,574v-1v1v-4h-1v-5l-1,-2v-6h-1v-8l-1,-2v-9l-1,-2v-1v1l1,2v-1h-1v-2l1,1v11h1v9h1h-1h1v6l1,1v5l1,1v6h1v1l-1,-1ZM151,144v-1h1l1,-1v-1h1v-1h1h-1h1v-1v1h-1h1v-1h1v-1v1v-1v1h-1v1v-1h1v-1v1h-1v1h-1v1l-2,2ZM315,123h-1v1h-1l-2,-2h-1l-1,-1h3v-2l1,-1h1l1,-1h1v-1h2v-1l-1,-1h-1v-1h2v1h-1h1l1,1v1h-1l-2,1h-2v1h-1v2h1h-1l-1,1l1,1h2ZM289,47l1,-1l-1,1h-1h1l1,-1l-1,1h-1Z"/>
<path class="sr" d="M289,47l1,-1M288,47h1"/>
<path class="sw" d="M165,131h-1l1,-1l-1,1h-1v1l-1,1l-2,1l-1,1h1v-1l1,-1h1v-1h1l1,-1v-1h2l1,-1l-1,1ZM226,92h1l2,-2h1l2,-2h1l1,-1h1v-1h1h-1v1v-1h5v-1v1l2,-2v1h-1h1v-1v1h-1l-1,1h-2l-2,1h-1l-1,1h-2v1h-1l-1,1h-1v1h-2v1h-1v1h1l1,-1l-1,1h-1v1h-1v1h-1l1,-1h-1v1h-1v1h1h-2v1h-1h1v-1h1v-1h1v-1h1v-1ZM339,469h-3l-1,-1v-1l1,1h1v-1l-1,-1h-1v1h-1v-2h2v1h1v1l1,1ZM784,843l-1,1v-1h1v-1l1,-1h1h-1l-1,1ZM782,844l1,-1v-1v1v-1v1h-1ZM40,307v-1v1h-1v2h-1v2l-1,1v2h-1v1v-1l1,-1v-1l1,-1v-2h1v-2h1v-1l1,-1v-1l1,-1v-2h1v-2h1v-2h1v-1l-1,1v2h-1v2l-1,1v1l-1,1v1l-1,1v2h-1ZM426,91h1v1h-2v1l-1,1v-1l1,-1v-1h-1l-1,-1l1,1l1,-1h-1v-1l1,-1v-1h1v-2l2,-2v-2l-1,-1v-1h-3l-1,1h-1v1h1l1,1h-1v1h1h-1v1h-1h1v-2h-1l-1,1v-1h1l-1,-1h1h-1l-1,-1h2v-2h1v1h2v-1h1l1,1v-1v1h1v5h-1l-1,1v3l1,1h-1v-1h-1v2ZM419,31h1v1h-2ZM419,30l-2,1h-2l-1,-1h2v1l1,-1h3ZM416,29h-1h1l1,-1h5v1l-2,-1l-1,1v-1h-2ZM98,223l-1,1v-1l1,-1l-1,1ZM270,57l1,-1h1h-1l-1,1h-1ZM259,64v-1h1h-1l-1,1h1v-1ZM285,49v-1h1h-1ZM309,38h-1ZM313,37h-1h1v-1h1h-1ZM212,165h1v1h-2ZM472,51h1v-1h-3v-1h-1h1v-1h-1v-1h1l-1,1h2v1h1h-1v1h1l1,-1v-1v1h3v1h1v-2h-1h1v1h1v1h-1v1v-1h-2v-1h1h-2v1h-1h1v1h-1v1h1h-1l1,1h-1l-1,1l-1,-1h-4v1h-1v-1h6l1,-1h-2v-1ZM611,92v1h-1v-1ZM679,46h1h-2v-1v1ZM626,202l1,-1v1h1v1l-2,1v1v-2ZM760,73h1h-2v-1v1ZM738,62l-1,-1h1ZM748,66h1v1v-1h-2Z"/>
<path class="sr" d="M747,66h1"/>
<path class="sw" d="M737,61v-1ZM739,62h1v1ZM733,59l1,1h-1v-1h-1ZM725,55h1ZM355,110h-1ZM307,216l-1,1h-2v-1l1,1l1,-1v-1h1ZM302,216h2l-1,1v1v-1ZM217,229h-1v-2h1v1ZM311,227h-1v-1h1ZM284,228l1,-1v1ZM236,214l1,1h1v1h-1l-1,-1ZM262,109v-1l1,1h-2l-1,1v1h-2l2,-2h1ZM256,99l1,-1h2v-1l-1,1v1h-3ZM539,691h-1l-1,-1v-1l1,-1v-1h1l1,1v1l-1,1ZM585,683l-2,-1v-1l1,-1h1l2,-1l1,-1v-1h2v1l-1,1v1h1v1h-1l-2,2ZM630,759v-2l2,-2h-1l-1,-1v-1h-1v-2h-1v-2h1v1h4v8h-3ZM644,754v1h-1v-1h1v-4h-1v-1h1v-3h-1v-2l-1,-1v-1l1,1h1v1h1l1,1v1h1v6ZM514,737h-1v-1l-1,-1h1v-1h-1v3h-1v-3l-1,1h-1v-2h4v-1h2v1l-1,-1l-1,1v2l1,1ZM660,748v1l-1,1v-1h-1l-1,-1l1,-1l1,-2l2,-1h1v1l-1,3ZM647,736h-1l-1,1h-2v-1l1,-1h2l1,-1v1ZM649,734h-2l-1,-1l-1,1v-1l-1,-1l-1,1h-1v-4h1v-3h-1v-1h1l1,-1l2,1l1,1h1v1h1v2l-1,1v2l2,2Z"/>
<path class="sb" d="M188,109h1h-1l-1,1l1,-1h1v-1h1v-1h1l2,-2h1M161,132v1h-1v1h-1v1h-1l-2,2v1h-1h1v-1l-1,1h1v-1v1v-1M149,144l-1,1M36,313h1v-1l1,-1l-1,1h3v-1h2M21,375v-2l1,-2v-1l1,-2v-2l1,-3v-1l1,-1v-1l1,-2v-1l1,-2v-2l2,-2v-2h1v-1h1v-2h1v-2h1M27,389l1,1v-2h1v-1M10,417v-4l1,-2v-4l1,-1v-1v1v-1l1,-1v-3l1,-1v-4l1,-1v-2l1,-1v-3h1v-1l1,-1v-3l1,-1v-2l1,-2v-1l1,-3h1v1v-1l1,-2v-2l1,-1v3l1,-1v1h1v-1v1h1v18l-1,1l-1,2v2h-1v4l-1,2l1,1v-1h1v-1v1h1M35,427h-3l-3,-3v-1l-4,-4v-8h-1v-4l1,-1v-3l1,-1v-2l1,-1v-1M16,463v-2h1l1,-1v-2l1,-1v-1l2,-2h2l5,-12l2,-4l1,-3v-1l2,-3l2,-4v-2l2,-4l1,-3l1,-2v-2l1,-1v-3l1,-4v-3l1,-2v-2M6,451v1v-1l1,1v2l-1,1v5h1l1,1v3l1,1v2h1v1h1v-1l1,-2v-2l1,-1v-1l1,-1v3h2l-1,1v2l-1,5l-1,2v35l1,2v2M7,419v-4l1,-1v1v-1l1,-3v-3l1,-1l1,-5v-2l1,-1v-4h1v2l-1,1l-1,8v4l-1,1v5h-1v1h1l-1,2v4l-1,1v2h-1v18l-1,1v9l-1,2v3l-1,1v2M1,461v1l1,-1v1v-1v8M0,512v-22l1,-1v-19h1v-3l1,-1v-1v1l1,-2v24h-1v20M1,524v-3h-1v-10l1,-1v-1M2,539v-2l-1,-2v-15M6,571v-1l-1,-1v-6l-1,-1v-5l-1,-2v-6l-1,-1v-15l-1,-1v-24h2v2l1,1v3l1,1v2l1,1v2l1,1v2l1,1v7l1,1v2h1v2l1,1v2M11,606l1,1v3l1,1v4h1v1v-2h-1h1v1l-1,-1v-3l-1,-2v-3l-1,-1h1h-1l1,1v1l-1,-1v-4l-1,-1v-3l-1,-2v-4l-1,-1v-5l-1,-1v-5h-1v-6l1,1v3h1v3h1M17,620v-1v1l-1,-1v-3l-1,-1v-4h-1v-5l-1,-2v-3l-1,-1v-4l-1,-1v-6h-1v-4l-1,-1v-2h1v1v-1v2l1,1v4l1,1v4h1v3l1,1v1M37,689v-2h-1v-2h-1v-2l-1,-1v-2h-1v-2l-1,-1v-2M23,649v-1l-1,-1v-2l-1,-1v-2l-1,-1v-3h-1v-4M41,698v-1h-1v-2l-1,-1v-1l-1,-1v-2l-1,-1v-1l1,1v1M55,725v1l1,2l1,1h-1v-2l-2,-2v-2l-1,-1l-1,-2v-1l-1,-1v-1h-1h1l1,1M56,725h-1l-1,-2l-1,-1v-2l-1,-1v-1h-1v-1l-1,-1l-1,-3l-2,-4v-1l-1,-2l-1,-1l-1,-2v-1l-1,-1v-2h-1v-2l-2,-4l-1,-1v-2h-1v-2l-1,-2v-2l-1,-1v-2l-1,-2l-1,-1v-2l-1,-1v-3l-1,-2v-1l-1,-1v-2l-1,-1v-1l-1,-1v-2h-1v-3l-1,-1v-2l-1,-1v-2l-2,-5v-1l-1,-2v-1l-1,-1v-1l-1,-2v-1l-2,-2v-3l-1,-1v-2l-1,-1v-9l1,2v2h1v1l1,1v2l1,1v4l1,1v3h1v2l1,1v1l1,2v2h1v1l-1,-3v-2h-1v-5l-2,-5v-3l-1,-1v-2l-2,-4v-2l-1,-2l-1,-1v-2l-1,-1v-2l-1,-3v-2l-1,-1v-6h1v-1h-1h1v2h1v-1l1,1v-4h1v1v-2h1v-3h1v-4M67,751v-2l-1,-1v-1h-1v-2h-1v-2h-1v-1l-1,-1v-1h-1v-1v1l1,1v1l1,1v1h1v1l1,1M67,750v1h1v2h1v1h1v1v-1h-1v-1l-1,-1v-1h-1"/>
<path class="sb" d="M118,196l-1,2v1h-1v1l-1,1h1h-1l-1,2v1v-1v2h1h-1v1h-1v1l-1,1v1l-1,1h-1l-1,2l-1,1v1h-1l-1,1v1l-2,2v2l-1,1l1,-1v1h-1v2l-1,1v1h-1h1v3l-1,1h1v1l-1,1v1l-1,1l-1,2l-1,1l-1,2l-1,1h1v2l-2,2v3h-1v1M86,254l1,-1v-1l1,-2l4,-4h1v1M85,232v1l1,1l-1,1v5l-1,1v3l-1,1v4l-1,1v3l1,1h4l1,1l-1,1v1l-1,1h2M90,302l-1,1h-2l-1,-1h-3v-1h-2v-6l1,-1v-4M68,333h1v-1h1l1,-1h1v-1h1l1,-1h1v-1h1l1,-1h1v-1h1l1,-1h1v-1l1,-1v-1l2,-2v-2l1,-1v-1l1,-1v-1l1,-1v-1h1v-2l1,-1v-3l1,-1v-4l1,-1v-1l1,-2l2,-2v-2h1v-1h1l1,-1v-3l1,-1v-1l1,-1v-1h1v1h-1v1h1v-1h1v-1M103,279v-2h1v-1M36,356l2,-2v-2l1,-1v-3l1,-1h1v1h1v-1l1,1v-1h1l1,1h1l1,1v-1h1v3l1,-1v-1l2,-2v-2l2,-2v-1l6,-6h2l1,-1h1l1,-1h2l1,-1h1v4l-1,1v7l-1,1v1h1v1l-1,1v3M90,223l-1,2l-1,1l-2,4l-1,1h1h-1v1l-4,4h-1l-2,2v2l-1,1v1l-1,1v2h-1v1h-1v1l-1,1v1h-1l-2,2v1l-1,2l-1,1v-1h-1M81,231v1l-1,1v1l-1,2h-1v1l-1,1M83,228v1l-2,2h1v-1l-2,2v1l-1,1v1h-1v1l-2,2v1l1,-1l-1,1v1l-2,2v1l-1,1v1l-2,2v1l-1,1v1l-2,2M114,196l-5,5h-1v1l-1,1v1l-1,1h-1v2h-1l-1,1v1l-2,2l-1,2l-2,2v1h-1l-14,14v-2h1v-1h1v-2h1v-1M93,215v-1v1h-1v1l-1,2l-3,3v1h-1v1M131,179v-1h1h-1v1l-2,1v1h-1v1h-1v1h-1v1l-1,1v1l-1,1v1h-1v1h-1v1h-1v2h-1v1l-1,1v1l-1,1v-1v1h-1v1v-1l1,-1h-2v-1v1v-1l-2,2v-1v1h-1l-1,1l-1,-1v1h-1l-1,2h-2v1h-1v-1h1v-1h-1v1h-1v1h-1v-1v1l-3,3v1l-1,1h-1v1M132,178v-1l1,-1h-1v-1h1v-2h1l2,-2v-1l1,-1M141,168h-2l-1,1h-1v-1h1v-2l-1,1h-1M412,363v-3h1v-3l-1,-1h-1l-1,-1v-2h1l1,-1l-1,-1h-1l-3,-3h-1v-1h-1v-3h-1l-1,-2l-5,-5v-1l-1,-1v-1h-1l-2,-2v-1l1,-1h-1l-1,-1h-2l-2,-2l-2,-1l-1,-1h-1v-1h1l1,-1h-1v-1h5l2,-2v-1h1v-1l-1,-1h-1v-1h-2v-1h1v-2l-1,-1h-1l-1,-1h-1l-2,2h-2l-2,-1h-1l-2,-3v-1l1,-1v-2h-1v1h-1v-2l-3,-3v-1M393,366v1l1,1l1,-1l2,1l1,1h2v-1l-1,-2h2v-1h1l1,-1h1v1h1l1,1h1l1,-1h1v-1h2l1,-1v1l-1,1v1l-1,2l1,1v1l1,2v3l-1,2v1l1,2v1l-1,1v1h-3l-2,2h-1l-1,1h-2v2h-4v1h-1v3l2,1v3l-1,-1h-2v-1h-2l-1,1h-3v2h-1v1h-3l-1,1M365,307l-2,1l-1,1h-1v2h-1v2h-3v1l-1,2v1M337,401h1v-4l2,-2l2,-1l1,-3l1,-1v-1h1l1,-1l-1,-3v-1l-1,-1v-3h-1v-2l-1,-1l1,-1v-5l-1,-2l-4,-4v-1l-1,-1v-1l-1,-1v-2h1v-1h3v-6l2,-1l1,-1v-1l-2,1v-2l-1,-1v-3l-4,-4l-1,-2v-5h-2v-1h1l1,-1h1v-3l1,-2v-2l2,-2v-1h1l1,1h2l2,-1h2v-2h1v-1h1v1h1l1,-1v-2h1v1h1v-1h2l1,1l1,-1h1v1l1,1v1l-1,1v3h3l1,-1l2,1v5l-1,1v1l-1,1v4l-2,4l1,1h1l4,-4h1v-1h2v-1h2l2,2h1v1l1,-1h2v-1l2,-2v-1h3l2,1h1l1,1l1,2v1l2,2h1l1,1v3l-1,2v2l2,2v2h1l2,1v1l1,1h1v2l-1,1v1l-1,1l1,1v2l-1,1v2h-1l-1,1h-1v1h-1v-1l-1,-1h-2l-2,1l-1,-1l-2,1h-2l-1,-1h-1l-1,1h-2l-2,2h-1v1l-2,2v1h-1l-1,1v4h1v3l1,1v1h1h-1v3l2,3"/>
<path class="sb" d="M419,307v-1h-5v-1h-1l-2,-2h-2v-3h-1v-1l1,-1h1v-1l-1,-1h-3v-1h-4l-1,-1v-1h-1l-1,-1l-1,1h-1l-1,1h-1v2h-2l-2,1h-1v-1v1h-1v1h-1v1l-2,-2h-1v1h-1l-1,-1l-1,1v1h-2l-1,-1h-1v-1h-2v1l-2,2h-1v-1h-1l-1,1v-1h-1v1l-1,1v2l1,1v4l-1,1h1l-1,1l-1,-1h-1l-1,1v-1h-1l1,-1h-1l1,-1h-1v-2h-1l-2,2h-5v-1l-1,-1v-2h-1l-1,-1h-3v-2l1,-1v-1l2,-2v-1h-1v-1h-4l1,-1v-1l-1,-1l1,-1l-1,-1v-1l1,-1v-1l-2,1v-1h-2l-2,1h-1l-1,1h-2l2,-2v-2h-1v-2l1,-1h1v-2l1,-1v-1l1,1v-1h1v-1l1,-1h1l2,-2h1v-2l1,-1v-3l1,-1v-7h-2v1l-1,-1v-4l-1,-1v-1l-1,1v-1l-1,-1h-1v1l-2,2M542,170h1v-1l2,-1l1,-1h2v-1h2v-1h2l1,-1v-1h1l2,-2v-2h3v1h1v1h7v-1l-1,-1h-1v-1l1,-1h5l1,-1v-1h3v-4h2v1h1v1l1,1h1M559,185h1l-1,-1h1l2,-2h7v-1h1v-1M232,202h1l1,1h3M493,111l-2,2l-1,2l-1,1v1h-1l-1,1v2h-1v2h1v1h1l1,-1h6v1h2v-1h1l1,-1h4v1h1v1h2l1,1h1v1h1l1,1v1h1v2h-5v-1h-1l-1,1h-5v1h-1l-1,-1h-1v2h-5v1h-1v1h-1v2h-2v1h-4l-2,1l-1,-1h-1v1h-1v1h-1l-1,1h-1l-1,1h-7v-1h-1v-1h-4v1h-1v1l-1,1v1h-1v1l1,1v1h1l1,1v1h-2v1h-1l-2,1h-1l-1,1h-1v1h-1l-2,2h-2l-1,1h-2l-1,1h-15l-1,1h-3l-1,1l-3,1h-2v1h-3v1h-4v-2l-1,1h-6l-1,-1h-1l-1,-1h-4l-1,-1h-1v-1h-1v-1h-20l-3,-1h-8v-1h-1v-1l-1,-1v-4h-1v-1h-1h1v-1h-3v-1h-1l-1,-1h-1l-2,-2h-2l-2,-1h-2l-1,1l-1,-1h-5v-1h-2v-2l1,-1h1v-1h1v-1h1v-2h1v-4h-1v-1l1,-1v-1h-1v-1h-2v-1h-4v-1h-1l1,-1h-1v-1h-1v-1h-1l1,-1h-1h1v-1h1M581,156v-1h-1v-2h-1l1,-1h3v-5h-1v-2l-1,-3v-1h-1v-1l1,-1h2v-1h1v-1h1v1h4l1,1h1l1,-1v-2h1v-2h1v-2h1v-1h-1h1h-1v-2h1l-1,-1h1v-2h-1v-1h2v-1h1v-1l-2,-2h1v-1h-1l-1,-1h-1l-2,1h-1v1h-3l-1,1h-1v1h-10v-1l-1,-1h-1l1,-1v-1h-1l-1,-1v-1l-2,-1h-2l-2,-2h-3l-1,-1h-1v-1h-2l-1,1h-2l-1,-1h-1v-1h-1v-2h-1v-1l-1,-1h1l-1,-1l-2,-1v-1l-1,-1v-1h-1v-1l-2,-2v-1h-1v-1h-1v-1h-1h1h-1v-1h-2v-1h-1l-1,-1h-2v1l-1,-1h-2l-1,-1h-2l-1,-1v1h-1v-1h-1l-1,1h-7l-1,1h-4l-2,2h-1v1h3v2h1v1l-1,1l-2,1h-1v1l-1,1v1h-1v1h-1v1l-1,1v1h-1h1l1,1h-1v1h-3l-1,1l-4,2h-1l-1,-1h-2l-1,-1h-2v-1h-4v1h-3v-1h-1l-1,-1h-5l-1,1h-3v1h-1l-1,1h-1v1h-6l-1,1h-3l-2,1h-1l-1,-1h-1v1l-1,-1h-9v-1h-2v-3h-5v-1h-1v-1h-2l-1,1l-1,-1h-7l-1,1h-5v1l-1,-1h-2l-1,-1h-2v-1h-1v-3h1v-1h-2l-1,-1h-1v1v-1h-2l-1,-1h-5v-1h-3v-1h-1v1h-1v1h-2l-1,1h-1v1h-1v1h-1v1h-1h1v2h1v1l-1,1h-1v1h-1l-1,1h-2v1h-2v-1h-6v-1l-1,1h-3l-1,-1h-2v-2h-2l-1,-1h-3v-1h-1v1h-1v-1h-1v1h-4v1h-3l-1,1h-2v1h-4v1h-2v1l-1,1h-2l-1,1h-1v-1v1h-4v1h-1l-1,1h-3"/>
<path class="sb" d="M178,136v-2h1v-1h1l2,-2v-1h1v-1l1,-1v-1h-1v1v-1l2,-2v-1h1v-1l2,-1l2,-2h1v-1l1,-1h1l1,-2h1l1,-1h1v-1h1v-1h1l1,-1v1h-1v1l-1,1v1v-1h1l1,-1h1v-1h1l1,-1v-1h2l2,-2h1v-1h2l1,-1l2,-1l1,-1h1v1h-1h2l1,-1h1h-1v1h2l-1,1v2h-1v1h-1v1l3,-3v2h2v-1h2l1,-1h1v1h1l1,-1h2v1h-1v1h1v1l1,-1h1l1,-1h1h-1l1,1l1,-1h2l3,-3h1v-1h-1v-1h-1h1v-1l1,-1h2l1,-1h1v-1l1,-1h1v-1h1l1,-1h3v-1h-1v-1h2v-1h-1h1v-1h1l1,-1h5l1,-1h3l1,-1h4v-1h3l1,-1h4l1,-1h4v-1h2v-1h5v1l1,-1h2v1h-1l-1,2l-1,1h-1v1h-1h5v-1v1l-1,1h1v-1h1v1h2v1h-2l-1,1v1l1,-1h3v1v-1h1l1,-1h2l1,-1h1l1,-1h3l1,-1h2l-1,1h-1l-1,1l2,2v6l-1,2v5l-1,1h2v-1v1l1,-1h1v-1h1l1,-1v1h1l-1,1h1v1h2v1l1,-1h3v-1h4l1,1v3h1l1,1v2h1l2,1h1l1,-1h1l1,-1v1h-1h1v2h1v1h-3v1h-1v1l-1,1h-1l-1,1h-3l-3,3v1l-1,1v1l-2,2h-2l-1,1h-1v-1h-6l-1,-1h-1v1l-4,4l-2,1l-3,3v1l1,1h-1v1h-4v-1h-1l-1,1h-2l-1,1h-4l-1,1h-1v1h2v1h-1v2h-1v2l-1,1v3h-1h1h-1v1h-2v2h-2v1h-1v2l-1,1M240,241v1h1l2,-2h4v2l3,3h2v1l1,1v1h4v3h1v1h1v1h3l-1,1v1h4v1l1,1v1l1,-1v-1l2,2v-1l1,-1h1v1h1l1,1h7M284,262l5,-5v-1h2v-1h2v-1h1l1,1h1h-1v1h3l1,1h2v-1h1v1h2v2M232,206l1,-1h1l1,-1h1l1,-1h1v2l-1,2v2h1l2,2v1h-1l-2,2v9l-1,1h-1v1h-2v-1h-2v4h1l-1,1v2h-1v2h1l1,-1v1l1,1v2l1,-1h1v1l1,1h1l-1,1h1v1h2v1l1,1h-1v1l-1,1h-2l-1,2l-2,2v2h-1l-1,1v2l1,1h2v1h1l1,1v1h1v1l1,1h1v1l1,-1h1v1h1l1,1h1v1h1l1,1h2v-1l1,1h2l1,-1h1v1h2l1,1l-1,1v1h2v1h1v1h1l1,-1h1l1,1h-1v1h1l1,-1l1,1h2l1,1h1l2,-1v1l1,1l1,-1h5v-1l1,-1v-2l-1,-1l1,-3l2,-2v-2h3v-1h1v1h1v1l-1,1l-1,2l1,1l-1,1v2l1,1h4v1h2l1,-1h1l1,-1l1,1h5l2,-1v1h2v-1h2v-2l1,-1v-1h-3v-2h1v-1l1,1h1l1,-1h3l1,-1v-1l1,-1h1l1,-1h1v-1l1,-1h1l2,-1h1l1,-1h1v-1h1l1,-1l2,-1h2v1h3l1,1v-1h1v-1l2,-1h1l1,-1v1h1v1h1l-1,1h-1v1h2v-1l1,1v2l-2,1v1h-1h1v1v-1h2l1,1h1l1,-1v1h1v3h-1v1h-1l-1,1h-1v2l1,2h-1l-1,-1v-1h-1l-2,1h-2l-1,1v1h-2l-3,3h-2v1l-1,1v3h-1v2l-2,2h-1l-1,1v1l1,1l-1,1v1l-2,2v1l-1,1l-1,2l-1,1v1l-1,-1h-4v-1h-1v2l1,1l-1,1v2l-1,1v1h-1v1l-1,1v5h-2v2h-1v-1h-2v1M225,193h4v2l1,-1l1,1v2l-2,2v1h1v1h1l1,-1v6l-1,1h-1l-1,1h-1l-2,1h-2v1h-3l-1,-1h-3l-1,-1l-1,1h-1l-1,1v1h-1v1h1v1h-1v1h1v1h-2v3l-2,2l1,1v2h1v2h2v1h1l-2,2l-3,1l-1,1h-1v2l-1,2v1l-2,2h-1l-3,3v2h-1l-1,1h-1l-3,3v1l-4,4l-2,1l-1,1h-1l-1,1v1l-3,3v1h-1l-1,1h-2l-2,1h-1v-2h-2v1h-1l-1,1l-1,2l-2,1v1h-1v1l-1,1v2l1,1h1v2l-1,1v1h-1v1l1,2h1v8h-1v2h-1v1h-2v-1h1h-2l-1,1h-1v1h-1l-1,-1h-4l-1,2h-1l-1,1h-1"/>
<path class="sb" d="M276,303v-7l1,-2h-2l1,-2h-1v-1l1,-2l1,-1v-3h-2v-1h-2v-2l1,-1h1l2,-2h3v-3h-2l-1,-1v-1h-1v-2h1v-1l1,-1h1v-2h1v1l1,1h1v-1h1v2h1v1h2v-1h1l1,2h-1v4h-1l1,1h2v1h6l2,-1v1h6l1,1h1v1h-2v1h-1l-1,2v1h-1l-1,1h-1l-1,1h-2v1h-1v2h-1v3l1,2v-1h1v2h1l1,-1v-2l1,-1h1v-2h2v17l-1,1v1h-1v-1h-1l-1,1v3l1,1M229,158l1,-1h1v-1h1l1,-1h4l1,1h2l1,1l1,-1v-1l2,-2h2l1,-1h1l1,1h1v1h8l2,-1l1,1h9v2h2l1,1v2h-3v1h-2l-1,1h-1l-3,1l-1,1h-1l-1,1l-2,1h-1l-1,1h-4l-2,1v1h-1v1h-1l-1,1h-4l1,-1v-1l-2,1l-1,1l-1,-1v1h-1l-1,1l-2,1h-2v1h-1v1h-1v2h-2M221,171v1h-2l-1,1h-1h1h-1v-1h-3l-1,1v1h-1v-1v1h-1v1l-1,1h6v1h2v-1h2v1h1h-1l1,1l1,-1v1h1l1,-1h4l1,-1h1v1h-1v3h-1v2h3l1,1l-1,1v2h-1v2l-1,1h1v1h-1v1h-1M168,166l2,-1l1,-2l1,-1l1,-2l1,-1l1,-2l2,-1l1,-2l1,-1l1,-2l2,-1l1,-1l1,-2l1,-1l1,-2l2,-1h1l1,-1h1l1,-1h2l1,-1h2l1,-1h1v4h1v6l-1,1v2h1v-1h9v-1h2v5l1,-1v1l-4,4v1h-1h2v1l-1,1v1l-1,1v1l-1,1h5l1,-1l-1,1l1,1h-1v1h-1v1h2v-1h1v-1h1v-1h1l1,-1h1v-1h1l1,-1h1l1,-1h2l2,-2h2v-1h2v-1h1v1h-1l-1,1h-1v1h-1l-1,1l-2,1v1l1,-1l1,1l-1,1h2v1v-1l1,-1h2v-1v2h1v1h1v1h2v1l-2,1h-3v1h-1l-1,1h-1l-1,1v-1l-1,1v-1h-3l-1,1v-2l1,-1h1l1,-1h-1h1v-2h-1v1h-1l-1,1l-2,1l-1,-1h-1v1h-1v2h-1v1h-2v1h-1v1h-1l-1,1v1h-5l-3,3h1v1h2v1l-2,1v1l-1,1l1,1l-5,5h-1l-1,2M161,164l1,-2h1l1,-1h1l1,-1h2v3l-1,1v2h5v-1l4,-4h1l1,-1h1l1,-1h1v-1v1h1v-2h1l1,-1v2h1l-1,1h2v1h-1v2l-2,2v1h-1l1,1h4v2l-1,1v2l-1,1l-1,2v1l1,1v3l1,1v1h1v1l1,1l1,2h1l1,1v1h1l-1,1l-1,2l-1,1M147,164v1l-2,2l1,1l2,-2h1l2,-2M160,204h1h-1l1,1h1v1h1l-1,1h1v-1l1,1v-1h1l1,-1h1v-1h1v-2h2l1,-1h2v-1h1l1,-1h1l3,-3l1,-2l1,-1h1v-1h3v-1h1v-1h1l1,1h3l1,1h2v2l1,-1h1l1,-1h2v-1h1v2h1v-1l3,-3h1l1,1v-1h1v-1l1,-1h1v-1l2,-2h1l1,-1l1,1v1l-1,1v1h1v1l-3,3v1l-1,1v2h2l2,-2h2l2,-2l2,-1h3l-1,1h3v-1h3v1h-2l-1,1v1l-2,1h-8l-1,1h-2v1h-1l-1,1h-2v1l-2,1l-1,1l1,1l-1,1v2l-1,1v1l-2,2h-1v1h-1l-1,1v2h-1v1l-1,1h-1l-1,1h-2l-1,-1h-1v5l-1,1l-2,1h-1l-3,3v1h-1v1l-1,1l-1,2l-1,1v1h-1l-1,1v-1h-3l-1,1h-2v1h-1v1h1h-1v1h-3v-1l-1,1h-1l-1,1v1h-1l-1,1l-2,4v1h-1v2h-1l-1,1l-2,1h-1l-1,1h-5v1h-1l-2,-1l-5,1l-2,-1l-1,-1h-1l-1,-1M277,53h-1l-1,1h-2v1h-1l-1,1h-2l-1,1l-2,1h-1"/>
<path class="sg" d="M 249.9293 932.1832 A 249.7500 5.4619, 0, 1 1, 749.0707 932.1832"/>
<path class="sg" d="M 66.9548 749.3097 A 432.5797 9.4603, 0, 1 1, 932.0452 749.3097"/>
<path class="sg" d="M 0.0000 499.5000 A 499.5000 10.9238, 0, 1 1, 999.0000 499.5000"/>
<path class="sg" d="M 66.9548 249.6903 A 432.5797 9.4603, 0, 0 1, 932.0452 249.6903"/>
<path class="sg" d="M 249.9293 66.8168 A 249.7500 5.4619, 0, 0 1, 749.0707 66.8168"/>
<path class="sg" d="M 520.0315 0.4221 A 440.9466 499.5000, -177.64424171, 0 1, 478.9685 998.5779"/>
<path class="sg" d="M 234.8424 75.8768 A 499.0749 499.5000, -211.99497959, 0 0, 764.1576 923.1232"/>
<path class="sg" d="M 482.0322 0.3055 A 423.4764 499.5000, -182.00407656, 0 0, 516.9678 998.6945"/>
<path class="sg" d="M 493.6933 0.0338 A 234.4078 499.5000, -180.66607983, 0 0, 505.3067 998.9662"/>
<path class="sg" d="M 499.8824 0.0001 A 17.4702 499.5000, -179.95613728, 0 1, 499.1176 998.9999"/>
<path class="sg" d="M 506.3266 0.0467 A 264.6671 499.5000, -179.21692130, 0 1, 492.6734 998.9533"/>
<text x="0" y="0" class="fs" transform="translate(200,142) rotate(127)">60E</text>
<text x="0" y="0" class="ft" transform="translate(200,142) rotate(127)">60E</text>
<text x="0" y="0" class="fs" transform="translate(334,140) rotate(114)">90E</text>
<text x="0" y="0" class="ft" transform="translate(334,140) rotate(114)">90E</text>
<text x="0" y="0" class="fs" transform="translate(512,139) rotate(88)">120E</text>
<text x="0" y="0" class="ft" transform="translate(512,139) rotate(88)">120E</text>
<text x="0" y="0" class="fs" transform="translate(687,140) rotate(64)">150E</text>
<text x="0" y="0" class="ft" transform="translate(687,140) rotate(64)">150E</text>
<text x="0" y="0" class="fs" transform="translate(811,143) rotate(50)">180E</text>
<text x="0" y="0" class="ft" transform="translate(811,143) rotate(50)">180E</text>
<text x="0" y="0" class="fs" transform="translate(864,740) rotate(3)">30S</text>
<text x="0" y="0" class="ft" transform="translate(864,740) rotate(3)">30S</text>
<text x="0" y="0" class="fs" transform="translate(918,489) rotate(2)">0N</text>
<text x="0" y="0" class="ft" transform="translate(918,489) rotate(2)">0N</text>
<text x="0" y="0" class="fs" transform="translate(860,241) rotate(2)">30N</text>
<text x="0" y="0" class="ft" transform="translate(860,241) rotate(2)">30N</text>
<path class="tb" d="M127,998h-2l-1,-1h-2l-1,-1h-2l-1,-1h-2v-1h-3v-1h-2l-1,-1h-2v-1h-2l-1,-1h-2v-1h-2v-1h-2l-1,-1h-2v-1h-2v-1h-2v-1h-2v-1h-2v-1h-2v-1h-2v-1h-2v-1h-2v-1h-1l-1,-1h-1v-1h-2v-1h-2v-1h-1v-1h-2v-1h-1l-1,-1h-1v-1h-2v-1h-1v-1h-2v-1h-1v-1h-1l-1,-1h-1v-1h-1v-1h-1l-1,-1h-1v-1h-1v-1h-1v-1h-2v-1h-1v-1h-1v-1h-1v-1h-1l-2,-2h-1v-1h-1v-1h-1v-1h-1v-1h-1v-1h-1v-1h-1v-1h-1v-1h-1v-1h-1v-1h-1v-1h-1v-1h-1v-2h-1v-1h-1v-1h-1v-1h-1v-1l-1,-1v-1h-1v-1h-1v-1l-1,-1v-1h-1v-1l-1,-1v-1h-1v-1l-1,-1v-1h-1v-2h-1v-2h-1v-1l-1,-1v-1l-1,-1v-1l-1,-1v-2h-1v-2h-1v-3h-1v-2h-1v-4h-1v-3h-1v-5h-1v-6l-1,-1v-17h1v-7h1v-4l1,-1v-3h1v-3h1v-3h1v-2l1,-1v-2h1v-2h1v-2h1v-2h1v-2h1v-2h1v-2h1v-1h1v-2h1v-1h1v-2h1v-1h1v-1l1,-1v-1h1v-1h1v-1l1,-1v-1h1v-1h1v-1h1v-1h1v-1h1v-1h1v-2h1v-1h1v-1h1v-1h1v-1h1l3,-3h1v-1h1v-1h1v-1h1v-1h1v-1h1v-1h1l1,-1h1v-1h1v-1h1v-1h1l1,-1h1v-1h1v-1h2v-1h1v-1h1v-1h2v-1h1v-1h2v-1h1v-1h2v-1h1l1,-1h1v-1h2v-1h1l1,-1h1v-1h2v-1h2v-1h2v-1h1l1,-1h1l1,-1h1l1,-1h1l1,-1h1l1,-1h2v-1h2v-1h2v-1h2l1,-1h2v-1h2v-1h2l1,-1h2v-1h3v-1h2l1,-1h2v-1h3v-1h3v-1h159v1h3v1h3v1h2l1,1h2v1h3v1h2l1,1h2v1h2v1h2l1,1h2v1h2v1h2v1h2l1,1h1l1,1h1l1,1h1l1,1h1l1,1h1v1h2v1h2v1h2v1h1l1,1h1v1h2v1h1l1,1h1v1h2v1h1v1h2v1h1v1h2v1h1v1h1v1h2v1h1v1h1l1,1h1v1h1v1h1v1h1l1,1h1v1h1v1h1v1h1v1h1v1h1v1h1l3,3h1v1h1v1h1v1h1v1h1v2h1v1h1v1h1v1h1v1h1v1h1v1l1,1v1h1v1h1v1l1,1v1h1v1h1v2h1v1h1v2h1v1h1v2h1v2h1v2h1v2h1v2h1v2h1v2l1,1v2h1v3h1v3h1v3l1,1v4h1v7h1v17l-1,1v6h-1v5h-1v3h-1v4h-1v2h-1v3h-1v2h-1v2l-1,1v1l-1,1v1l-1,1v1h-1v2h-1v2h-1v1l-1,1v1h-1v1l-1,1v1h-1v1l-1,1v1h-1v1h-1v1l-1,1v1h-1v1h-1v1h-1v1h-1v2h-1v1h-1v1h-1v1h-1v1h-1v1h-1v1h-1v1h-1v1h-1v1h-1v1h-1v1h-1v1h-1l-2,2h-1v1h-1v1h-1v1h-1v1h-2v1h-1v1h-1v1h-1l-1,1h-1v1h-1v1h-1l-1,1h-1v1h-1v1h-2v1h-1v1h-2v1h-1l-1,1h-1v1h-2v1h-1v1h-2v1h-2v1h-1l-1,1h-1v1h-2v1h-2v1h-2v1h-2v1h-2v1h-2v1h-2v1h-2v1h-2l-1,1h-2v1h-2v1h-2l-1,1h-2v1h-2l-1,1h-2v1h-3v1h-2l-1,1h-2l-1,1h-2l-1,1h-2Z"/>
<path class="tl" d="M169,986h1v1h-3l-1,-1h2v-1ZM114,989h-3l-1,-1h2l1,1ZM176,983h1l1,1v1h1l-1,1h-2l-1,1h-1l-1,-1l1,-1v-2h1v-1ZM124,980h2v1h-1ZM122,980l1,1h-1l-1,-1ZM136,977h1h-2ZM156,974v1l1,1h-5v-1l1,-1v-1l-1,-1l1,-1v1h1l1,1ZM158,964v1h-2v2h1l-2,2v1h1l1,1h1l4,4v1l1,1v1h-1v2h-1l-1,1h-1v1h-2l1,1h1v1h-2l1,1h1v1h3l1,1h3l1,1h3l1,1h1l1,1v-1h1v-1h2l2,-1l1,1h1v-1h4v-1h3l1,-1h-1v-1h-4l-1,-1l1,-1h1l2,-2h4l1,-1h1l2,-2h-1v-1h1v-1h2v-1l1,-1h1v1h1v-1h8v-1h3v-1h1l1,1h2v-1h1v1l1,-1h4v1h6v-1h3v-1h2v1h3l1,-1h3v-1h2l1,-1h2l1,-1h4v1h1v1h1l1,1h1l1,-1l1,1h2v1l-2,2h-1v1h1h-1v1h-1v1h2l2,-2h1v-1h3l1,-1h1v-1h2l1,-1h5v-1h1v1h5v1h1l1,-1l1,1l1,-1h1l2,-1v1l1,1h3l1,-1h2v1h1v1h4l1,-1v1h9l1,-1l-1,1v1h-1h3l1,1h2l-1,1v1h1v1h2v1h1v2h2l1,1v1h-1l-1,1h-2l-1,1h-3l-1,1h-2l-1,1h-2l-2,2v1h-5l-1,1h-2v1h-1v3h2l-11,4h-155l-11,-4h-1h2l1,-1l1,1h14l-1,-1h-7v-1h-2v-1h-3l-1,-1h4v-1h-2l-1,-1h-7l-1,-1l-2,-1l1,1l1,-1l2,1v-1h1v-1l-1,-1h-1h2v-1h2v-1h4l1,-1h5l1,-1l1,1v-1h1l1,1h1v-1l1,1h6v-1h-2l-1,-1h-1l-1,-1h4l1,1h1l1,-1h3l-1,-1h1l1,1l1,-1l1,1h3v-1l1,1h4v-1h2l1,-1v-1h-1v-1h-1v-1h-1v-1h-1v-2l-1,-1v-1h1v-2h1v-1h1v-1h1l1,-1l1,1ZM144,951l2,1h1v1h-1v-1v1h-4l-2,-2l-2,-1l2,1h2v-2h1v1ZM151,947h1v1h-2v1l-1,-1l1,-1ZM269,946h-1v-2h1l1,1ZM345,939v1h1l1,-1v1l-3,3v-1l-1,1h-1l1,-1v-1l1,-1v-1ZM368,943v1l1,-1v1h-1l-3,3h-1l-1,1h-1l-2,2h-2v1h-1v-1h-1v-1l4,-2h1l1,-1h2l2,-2h1l2,-2ZM376,936l-1,2l1,-1l-1,1l1,1h1l-2,2h-1l-2,2l-2,1h-1l2,-1v-2l1,-1l2,-1v-1l1,-1v-3l1,-1v1l1,1ZM382,913l-1,1v-2l-1,-1v-1h1v1l1,1ZM397,906v1l-1,1h-1v-1l1,-1v1ZM398,906h-1v-1h1l1,-1v1ZM10,905v-1ZM386,904v-1ZM386,901v2h-1v-1ZM259,895v2l1,1h-1v1v-1v2h-1v3l-3,6v2h-1l-1,1l-1,-1h-1v-5h1v-2l1,-1h-1v-3h1v-1h1l2,-2h1v-1l1,-1v-1l1,-1v1ZM361,898v1h1v1h1l-1,1v2h1l-1,2v1l2,2v4h1l-1,2l1,1v3l-1,1v2l-3,3v1l-1,1l-1,2h-1l-1,2h-1l-4,4v1h-2l-1,1h-1l-1,1v-1h-1l1,-1h-1l-1,1h-1v-1h-1v-3h1l-1,-1v-1l1,-1l-1,1h-1l3,-3l-2,1h-1l-1,2v-4l-2,-2h-2l-1,1h-4l-2,2h-4l-1,1v-1l-1,1h-2v-1h-1l1,-1v-1h1v-3l1,-1v-7l1,1v-3l1,-1v-1l1,-1l-1,1l2,-2h1l1,-1h2l1,-1h2v-1h1l1,-1v-2l1,-1v2l1,-1v-1h1v-1l2,-2h2v1h2v-2h1l1,-1v-1h2v-1h-1h1l1,1h3l1,1h-1v1h-1v1l-1,1v1l2,2v1h1l1,1h1v-1l1,-1v-1l1,-1v-3l1,-1v-2h1v-1v3l1,1Z"/>
<path class="tl" d="M383,894h-1v-1v1ZM337,892l-2,-1h2ZM381,893h-1v-1h1ZM382,892v-1l-1,-1h1ZM341,892h-1l3,-3h2l-1,1h-1l-1,1ZM335,889h1v1h-3l1,-1ZM340,889v1h-3v-1h2ZM381,890v1l-2,-2h1v1ZM378,889v-1h-1v-1l1,1ZM325,887h2v-1l2,1v1h2l1,1l-1,1l-1,-1h-4l-1,-1h-1l-2,-1h-1l1,-2h1l1,1ZM353,886v1v-2ZM377,888h-1v-2l-1,-1h1v2h1ZM373,885l-1,1h-1l-1,1l-1,-1h-1l1,-1l1,1v-1h2v-2h1v1ZM345,882h-1v-1h1ZM349,881v2l-1,-1h-2v-1h2ZM374,884l-1,-1v-1l-1,-1h-1h2v2h1ZM353,878v3l2,1v-2l2,-1h1l1,1h1l1,1l4,2v1h1v1l2,1v1h-1v1l1,1v2h1v1h1h-1l1,1l-1,1v-1h-2l-1,-1v-3h-3l-1,1v1h-2l-2,-2v1h-2l1,-2h1l-1,-2v-1l-2,-1h-1l-1,-2l-1,1l-1,-1h1l-1,-1l1,-1h-1v-1h-1l-1,-1h2v-1ZM343,875l-1,1h-4v1l1,2v-1h2l-1,1h-1l1,2v1l1,2v1h-1v-2l-1,1v-1l-1,-1l1,-1h-1v4h-1v-3h-1v-1l1,-1v-4h1v-1h4l1,-1ZM347,875v1h-1v1l1,1h-1v-4h1ZM321,885h-1l-2,-2v-1l-2,-2l-1,-2v-2l-1,-1v-1l-4,-4v-1h2l3,3l1,2h1l2,2h1l-1,2h1v1l1,1h1v3ZM335,874l1,1h-1v3l-1,1v1l-1,3v-1l-1,1l-1,-1h-1v-1l-1,1l-1,-1h-1l-2,-4v-2l1,-1h2v-2h2v-1l1,-1v-1h1l1,-1v-2h1v1l2,2v1h-1l-1,2l1,1ZM344,864v3l-1,-1v2l-2,-2h1l-1,-1v1l-1,-1l-1,1v-1l1,-1h2v-1h1v-1l1,1ZM294,868h-1v-1l-1,-2l1,-2l1,1v1l1,1v1ZM137,863h-1l1,-1h1ZM341,861v1l-1,1l-1,-1l1,-1v-1v1l1,-1ZM335,863l-1,1v-1l1,-1v-1l1,-1v1l-1,1ZM338,859h2v1l-1,1v-1h-1ZM342,858l1,2h-1v1v-1h-1v-1h1h-1v-1ZM338,857l-1,1l-1,-1h1ZM336,849h1v6h1l2,1v2l-1,-1v-1v1l-1,-1h-2v-1h1h-1l-1,-1v-5ZM133,851v1h-1v-1ZM121,852h-1v-1h2v1ZM126,849h3v1h1v1h-2l-1,1v-1h-1v-2h-1ZM324,849l-1,1h-1v-2l1,-1h1v1ZM37,846v-2h1v2ZM38,844h-1v-1h1ZM119,845h2l1,1v1h1v1h2l-1,1h-3v-1h-1v-2h-2l-1,-1h-1h1h-2l-1,1h-1l2,-2h3ZM122,843h-1v-1l1,-1v1ZM334,843v1l-2,-2v-2l1,-1l1,1ZM122,839l-1,1v-1ZM123,839v1v-1h-1ZM340,825h1v1h-1v1h-1v-2ZM240,828l-2,2v-1h-1h2ZM229,828v1h-1ZM220,825v2h-1l-1,-1h-1v-1h2ZM214,821v3h-1v-3ZM344,820v1l1,1v1l-1,1h-1l-1,2l-1,-1v-1l-2,1l-1,1h-1l2,1v3l-1,-1v-1h-1l-1,-1l1,-1v-3h3v-3l1,1v-2h1l-2,-4v-1l3,3v1ZM214,820v1l-1,-1v-1l1,-1ZM340,810l1,-1l1,2h-1v2l-2,-1l1,2h-1l-1,-2l-1,-1h1l-1,-2l-1,-1l3,1ZM144,812l1,1h1h-2ZM147,809h-1l-1,-1h1ZM92,806h-1l-1,-1v-2h-1v-1h1l1,1v1l1,1ZM153,807l-1,1h1v1h2l-1,1h1v1l-1,2l-1,-1l1,-1l-2,1v-1h-3l1,-1h-1l4,-4h1Z"/>
<path class="tl" d="M90,797h1l-2,2v1v-3ZM332,800l3,3l-2,-1l1,2l2,2v1l-2,-2l-1,-2l-6,-6v-1h-1h1l3,3ZM198,806l-1,1h-2l1,-2v-1l2,-2h1v3ZM216,801l-1,2l-1,-1v-1h1ZM79,791h-1v-1h2ZM202,797l-1,2h2v1l-1,1h1l2,4h1v1l-1,1h1l-1,1h-3l-1,1h-2l2,-2h-1v-1h1l-1,-1v-1h2l-1,-1h-1v-2l-1,-1l1,-2v-1l1,1ZM75,786h-1v-1h1ZM141,790l-1,1v-1ZM139,790h-2l1,-1h1ZM78,780v1h1h-2v-1ZM139,786h1v1h1l-1,1h1l-1,1l-1,-1h-1l-2,1l1,-1h-1h1l1,-1l1,-2ZM193,787v1l1,1l-1,1h-3l-1,1l-1,-1h-2l1,-1h-1h1v-1h-2l1,-1h1l1,1l2,-1h2ZM147,784h-1l1,-1h2l-1,1ZM81,776v1l1,-1h2l-1,2h-3l-1,1h-1l-1,-1h1v-1h-1h1h-2l-1,1l8,-5v1l-1,2ZM135,780l-1,1v-1h-1l1,-1h1ZM322,771h-1ZM88,771h-1h2ZM139,780l-1,2l2,-1v1h-1v1l1,-1l2,-1l1,-1h2v2h-1v1l-1,1l-2,1h-1v-1l-1,1l-2,1v1h-3l-2,2h-1l-1,1l-2,1l-1,1l-1,2h1l-1,1v1h1l3,3l2,1h1l-2,2v2l1,1h1l2,-4h-1l4,-2v-1l1,-1v-1l-1,-1l2,-1l2,-4l1,1h1l1,-1v1l1,1h1v2l-1,1l1,1h2l1,-2h1v3l1,1l-1,1l1,1v1h1l1,1v1l1,1l-2,2h-2l-2,2h-1l-2,-1h-2l-2,1l-1,1l-2,1l-1,1l2,-1l3,-1h2l-1,1l-1,2v1l1,1l2,-1l1,-1v1h1l-4,2h-1l-2,1v-1l2,-1h-3v1h-1l-1,1h-1l-2,2l1,1v-1v1h-3l-1,1l2,-1v1h-2l-2,2v1l-1,1l-1,-1l1,-1l-1,1v4l-1,1h-1l-1,1h-1l-3,3h-1v8l-1,1h-1v-3l-1,-1l1,-1l-1,-2l-1,1l-1,-1h-4v1h-1l-1,-1l-1,1l-1,-1l-2,2h-2v1h-1v3l-1,1v1l-1,2v4l1,1v1h1v1l1,-1h3v-1l1,-1v-1l1,-1h3v1l-1,1v2l-1,1v-1v2l-1,1v1h5v1h1v1l-1,1v3l-1,1h1v2h1v1h2l1,-1h1v1h1l1,1l1,-1v-2l1,-1h2l2,-2v2h-1h1v1l-1,1v1h1v-3h1v-1h1v1h1v1h3l1,1l1,-1h1l1,1h1v1l1,1h1v1h1v1l1,1l2,1v-1h1l1,1h1l1,1v1h1v1l1,2v1l-1,1l1,1h2v1v-1l4,2v1h1l3,1h1l2,1l2,2h2v5l-1,1l-1,2l-2,2v9l-1,2v2h-1v1h-2l-1,1h-1l-3,3v5l-1,2l-2,2v2l-2,2v-1l-1,1l-1,-1h-1v-1v1l1,1v1l1,1v2l-2,1h-3l1,1v2l-1,1l-1,-1h-1l1,2h2l-2,2l1,1v1h-1l-1,1v1l2,1h1v1l-1,1v2h-1v1l2,2h-1l-1,1v1h-1l-2,-1l-3,-3l-1,-3v-1l1,-1h-2l1,-2l-1,-2h1v-2l-1,-1v2l-1,-2v-4l-1,-1l-1,-2h1v-6l-1,-2v-8l-1,-2v-6l-1,-2l-1,-1l-2,-1l-3,-2l-1,-1v-1l-1,-2l-1,-3l-2,-3l-2,-2v-1l-1,-2l2,-2v-1h-1v-3l1,-1v-1h1v-2h1l1,-1v-5l-1,-1v-2h-1v1h-1v1h-1l-1,-1h-2v-2h-1v-1v1h-1v-3l-2,-2h1h-2v-1h-2l-1,-1l-1,-2h-1l-1,-1v1h-2l-1,-1h-2l-2,-2h-1l-1,-1v-1h-1v-3h1l-1,-1v-3l-1,-1v-1l-1,-1v-3h-1v-5l-1,-1l-1,1v4h1l-1,1h1v5h1v2h-1v-1l-1,-1v-3l-1,-1v1v-1h-1v-1h1v-9h-1v-1h-1v-9l2,-2v-1l1,-2l2,-2l1,-2l1,-1v-1h1v1l2,-2h-1v-2l-1,-1v-1l1,-1l-1,-1l1,-1v-1l1,-1l-1,-1l1,-1v-1l1,-1l-1,-1h-1v-2h-1v-1h-1l-1,-1h-1l-1,1h-4l1,-1l2,-1h-1l-1,1l-2,1h-1l-1,1l-2,1h-2l-2,1h-1l-1,1h-3l-1,1h-2l1,-1h2l2,-1h2l2,-1h1l2,-1l1,-1h-3l1,-1l-1,1h-1l2,-2h-1v-1l2,-2l2,-1h3l1,-1h1l1,-1h-3v-2h4l1,1l1,-1v-3h4l1,-1h2l2,-1l1,1l1,-1h1l-1,1h1l1,1h2l1,1h2v1l1,1l1,-1h6l1,-1v2l2,-1l-1,1h2l1,1h2v1l-2,1h4v1l2,-2h2v1h1l1,1h2v-1h1l1,1l-1,1l1,-1h1l1,-1v-2l1,-1l2,-1l1,1l-2,2Z"/>
<path class="tl" d="M128,774l-1,1h4l-1,1h1l2,-2v1l-1,2v1l1,1h-2v1h-8v-1h-1v-1h4l-1,-1h-3l2,-1h-1l1,-1h1ZM135,774l-2,1v-1h1ZM152,776v1l-1,-1l-1,1v-2h2ZM146,776v1l1,-1l2,-1v2h3l1,1l-1,1l2,-1v1l1,1v2h-1l2,2v1h1v1l-2,1h-1l-1,-2l-1,1v1l1,1v2l-1,1l-2,-2v1l1,1h-2l-2,-2v-1l-1,-1v1h-3v-1l1,-1h3l1,-1l2,-1v-1l-1,-1h-1l1,-1l-1,-1h-5l-1,-1h-1l1,-1h-1l1,-1l2,-1l1,-1h2ZM138,774h2l-1,1h-1l1,1l-2,1h-2v-2l1,1v-1ZM298,772h-2v-1ZM141,776l-2,1v-1l2,-2h2l1,1l-2,1ZM122,776h-2l-1,-1h1l2,-1l2,-2h2v1h2v1h-1l-3,1h-2ZM299,769v1h-3v-1h1ZM143,773v1l-1,-1h-1l1,-1h1l1,1ZM295,769l1,1h-2l-1,1l-2,-1l-1,-1h2ZM143,771h-1v1l-1,1h-2l1,-1h-1l1,-1h2ZM136,771h1v1h-4l-2,1h-1l1,-1h-1l-1,-1l2,-1h1l2,1l1,1v-2h2ZM246,780h-3l-2,-1v-1l1,-2h-1l1,-1l-1,-1h1l4,-2h2l-1,1l-2,1l-1,1v2l-1,1l1,1ZM145,770l1,1h1l-1,1h1l1,1h4v1h-7l-1,-1l1,-1v-1h-2l1,-1ZM134,769l-2,1h-4l2,-1h3ZM271,770l1,1v-1h2l2,1h1v1l-1,1h1l2,1v-1l1,1l1,-1h2l1,1h3l-2,-1h5l1,1v1h2l2,1l-1,-1h1l1,-1l2,1v-1h1l-2,-1h8l3,1l1,-1h2l2,2h2v-1h3l3,1v-1h-2v-1h7l8,5h-1l1,1l2,1h2v1h-1v1h-1l1,1v2l-2,-1v2l-1,-1v1h-1l2,2v1h1l3,2h-1l1,1h1v1l1,2h-1l1,2l1,1l-4,-2l-4,-3l-1,-2l-1,-1v-3l-1,-2v-1l-2,-2l-1,1l2,2l-3,-1l-1,1l1,2l1,1h-1l-1,1l-1,-1h-1v1h-4v7h1l2,1h1l-1,-1h1l3,1l1,2l1,1l1,2l2,2v9h-1l-1,-1v2h-1v1l1,1v1h-1v1l1,1h1l2,2v1l1,1v1l-1,1h-1l-1,-2l-1,-1h1l-2,-1v-1v1v-1h-1v-1l-1,-1h-2v1h-1l-1,-1l1,-1l-1,-1l-1,1v2h-1v1l2,2h1v-1h2l1,1l-2,1v2l2,2l1,2l2,1v2h1v6l-2,4l-1,1h-1v1l-1,-1v1l-2,1h-1v2l-1,-1v-1h-2l-1,2v2l1,1l1,2l2,2l1,3v4l-2,1v1l-2,1v-2l-1,-1h-1v-1l-2,-2h-1v-1h-1v6h1v3l1,1h1v1h1v1l1,1v3h1v2h-1l-2,-2v-1l-1,-1v-1l-1,-1v-2l-1,-1v-1h-1v-6l-1,-1v-1l-1,-2v-2l-1,-1l-2,2h-1v-3l-1,-2v-1h-1l-2,-2v-1l-1,-1h-1v2l-1,-1v1h-2v2l-2,1l-1,2v1l-2,2h-1v8l-1,1l1,1h-1l-1,1l-1,-1l-1,-2v-1l-1,-1v-1l-1,-2v-1l-3,-6v-3l-2,1h-1l-1,-2v-1l-2,-1l-1,-1v-1l-1,-1l-2,1h-5l-1,-1h-2v-2h-1l-1,1h-2l-3,-3l-1,-2l-1,1v-1l-1,1v2l1,1h1l1,1v2l1,1l-1,-1l1,-1v2h1v1l1,-1h2v-1l1,-1v-1v2l2,2h1l2,2l-1,1v1h-1v3h-1v1h-1v1h-2v1h-1l-2,2h-1l-2,2v-1l-1,1h-2v1h-2v-2l-1,-1v-3h-1v-1l-1,-1v-1l-1,-1h-1v-1l-1,-1v-3h-2v-2l-1,-1v-1l-2,-2v-1v1l-1,1l-1,-1l-1,-2l1,2l1,1l1,2v1l2,2h-1l2,2v1l1,1h-1l1,2v1l1,1l1,2v1l1,1l2,1v1h1v1h1v1l-1,1h1l1,1h3l1,-1h3v-1h1v2l-1,1v3l-1,1l-3,6l-1,1l-2,1l-1,1l-1,2v1h-1v1h-1v2l-1,1l-1,2l1,1v4l1,1v7l-1,1h-1l-3,3h-1v1l-1,1v2h1l-1,1h1v1l-1,1h1l-1,1h-1l-2,2v3l-3,3v1l-2,1v1l-1,1h-2v1l-1,-1v1l-1,-1l-1,1h-2l-1,1l-1,-1h-1v-5l-1,-1v-2l-1,-1v-1l-1,-1v-5l-1,-1v-1l-1,-2v-1l-1,-1v-3l1,-1v-3h1v-1l1,-1v-1h-1v-5l-1,-1v-2l-3,-3l-1,-2l1,-1v-5l-1,-1v-1l-1,1h-2l-1,-1v-1l-1,-1h-2l-1,1h-2l-1,1h-6l-1,1l-4,-4h-1l-1,-1v-1l-1,-1v-1h-1v-1l-1,-1v-1h-1v-3h-1l1,-1v-1h1l-1,-1l1,-1v-4l-1,-1v-1h1v-2l1,-1v-1h1v-2h1l1,-2h1l2,-2v-3l3,-3l1,-2v-1h1l1,1h2l1,-1h2l1,-1h4l1,-1h1v1h1l1,-1h1v1l1,-1v1h-1v1h1v2h-1v1h1v1h3l2,2h1l2,2l1,-1v-2l1,-1h2l1,1h1l1,1h2l1,1h1v-1h2l1,1v-1h1l1,1v-2l1,-1v-5h-2l-1,1l-1,-1h-2v1l-1,-1h-2v-1l-1,-1v-2l1,-1h1v-1h2l1,-1h1l2,-1l2,1l1,1h2l1,-1v-2h-1l-2,-2h-1l-1,-1l1,-1l-1,-1h2l-1,-1v1h-2l-1,1v1h1l-1,1h-1v-1h-1l1,-1h-2v-1h-1v1l-1,1v1h-1v4l1,1h-2v1h-1v-1h-2l1,1h-2v1l1,1h-1h1l1,1v1l-1,-1v1h-1l1,1h-2v-2l-1,-1v-1h-1v-3h-1v-1h-1l-1,-1h-1l-1,-1v-1l-1,-1v1v-1h-2v1l2,2v1l1,1h1l1,1h1l1,1v1l-1,-1h-1v1h1v1h-1v1h-1v-1h1l-1,-1v-1h-1l-1,-1h-1l-2,-2l-1,-2h-2v1h-4l-1,1v2h-2v1l-1,2h1l-1,1v1h-1l-1,1h-2l-1,1l-2,-2v1h-2l1,-1v-1h-1v-2l1,-1v-3l-1,-1l2,-1l1,1h5v-4l-1,-1v-1h-2v-1h3v-2l1,1l2,-1v-1h1l1,-1l1,-2l1,-1h2v-5h2l-1,1h1v1l-1,1v1h1v1l1,-1h2v1h1l2,-2l1,1h1v-1h1v-3l1,-1l1,1v-1l-1,-1v-1h4l1,-1h-4l-1,1l-2,-2v-4l2,-1v-1l-1,-1l-2,2l-1,2l-1,1v3h1v2h-1v2l-1,2h-1v1h-1v-2l-1,-1l-1,-2l-1,-1l-1,2h-1l-2,-1v-5l2,-1l3,-3l2,-3l3,-3h2l1,-2h3l2,1l-1,1h2l1,1h3l3,1l1,1v1l-1,1h-1l-3,-1h-1l2,1v2l1,1h1v-1h-1l1,-1l2,1v-1l1,-2h1l1,1v-1l-1,-1v-1l-1,-1l2,1h1l-1,1l1,1h1v-1l1,-1l2,-1h1v1l1,-1h1l1,-1l1,1l1,-1h-2l1,-1h2l1,1l4,1v-1h-2v-1h-1l-1,-1v-3h2l1,1v1h1l1,1l1,2h1v3l1,1v-1h1l-1,-1l1,-1h-1l-2,-2v-1l-2,-1l1,-1l-1,-1h1l1,2l-1,-1l1,-1h2l1,1l-1,-1l-1,-2h4l-2,-1v-1h1l1,-1h3l1,-1h1v-2l2,1h-1ZM253,820l1,1v2h-1v1l1,1h1l1,1h3l-1,-1v-2h-1v-2h1v-1l-1,-1h-1l1,1l-1,-1v-1h-2v-2h-1h1v-2l1,1v-3h-2l-1,1h-1v1h-1l-1,2l2,1v1l1,1Z"/>
<path class="tl" d="M146,770h-1v-1h1l1,1ZM137,769h-2l1,-1h1l1,1ZM220,771l-1,1h-1v-1h-1l2,-1v1ZM139,768h-2l1,-1v1ZM146,769h-1v-1h1l1,1ZM144,769h-1l-1,-1h-1h1v-1h1l1,1ZM268,768l-3,1v-2ZM215,769l3,1h-2v3h-1l-2,-1h1l-1,-1l-2,-1v-1l1,-1l1,1h1v-1h1ZM220,768h1l-1,1h-4l-1,-1h3ZM234,767l-1,1h-1v-1h-1h4ZM264,768h-4l-2,-1l-1,-1h1l1,-1l4,2ZM153,767v1h-1l-2,1h-2v-1h1h-1v-1l1,-1h2v-1h1v1h1ZM167,764h3v1h-3l-1,1h-1l-1,1l-2,1h-3v1h-1v1h-2l-2,1h1l-2,1h-4l-1,-1h2v-1h2v-1h-1h1l1,-1h1l-1,-1h4l-1,-1h-3v-1l1,-1h6v-1h3v1l2,-1l1,1ZM190,764l3,1h-6v1h5l-1,1l2,-1h4v1l-2,1h-1l-2,2v2l1,1h-2l1,1l-1,1v1h-1l1,1h-3l1,1v1l-1,-1l-1,1h1l1,1v1h-2l-1,-1v1l-1,1h3l-4,2h-3l-1,1l-4,2h-1l-2,1h-1v1l-2,2v1l-1,1l-1,2h-1l-1,-1h-1l-1,-1v-2l-1,-1v-1l1,-1l-1,-2l1,-1l1,-2h1l1,-1v-1l-1,1h-1v-1l1,-1h1l-1,-1h-1l1,-1v-4l-1,-1h-5v-1l-1,-1h1l-1,-1l1,-1h2l3,-1h1l-2,-1h1l3,-1h1v-1h9l1,1l-1,-1h1l2,-1h3l2,-1Z"/>
<path class="th" d="M335,870v1ZM342,890v1v-1v2h-1v-1h1ZM335,870v1l-1,-1v1h1h-1v1h1h-1h1v2h1v1h-1v3h-1v1v-1v1h-1h1h-1h1v1h-1h1h-1v1v-1v2h-1v1h-1v-1h-1v-1l-1,1h-1v-1h-1v-1h-1h1h-1v-3h-1h1h-1h1v-1h-1v-1h1h-1v-1h1v1v-1v1h3v-1h1v1h1v-1v1v-1v1v-1h1v-2h1l-1,-1h1v-1h1ZM361,881v2l-1,1v7l-1,-1v-1h-1v-2h-1v-2h-1v-1h-1l-1,-1v1v-1h-1v-1v1v-1v1v-1h-1h1v-1v1h-1v1v-1h-1h1h-1v-1h1v-1v1v-1v1h1v-1v1v-1h-2v-1h-1v-1h1v-1h1v1h1v3h1h-1l1,-1v2h1v-2h1v-1h2v1h2v1ZM330,889h-1ZM340,889v1ZM338,888v-1ZM353,887v-1ZM353,886h1l-1,1ZM326,888h-4v-1h-1v-1v1v-1v1v-1h1v-1v1h1v-1v1h1v1h3v-1l1,1v-1v1h1v1h2v1h-5ZM342,886v-1ZM345,882v1ZM346,881v1ZM325,878v1ZM318,876h1ZM319,875v1ZM320,875v1ZM319,875v1ZM337,878v-2h1v-1h5v-1v2h-1h1h-5v1h-1h1v2h1v-1h2v-1v1h-1v1h-1v1v-1v1h1v3h1h-1v1h-1v-2h-1h1v-1h-1v4h-1v-3h-1v-2h1h-1h1v-1ZM347,873h-1ZM316,874v-1l2,2v1h1h-1h2v1h-1v1h1v2h1h-1h1h-1v1v-1h2v5h-2v-1h-1v-1h-1v-1h-1v-2h-1v-2h-1v-2h-1v-2h-1v-2h-1v-1h-1v-1h-1v-1h3v2h1v1h1v1h1ZM337,892h-1v-1h-1h2ZM332,889v1ZM336,890v-1h1v1h-1v-1ZM336,889v1ZM341,889h-1ZM333,889v1h-1v-1ZM336,889v1h-1h1h-1v-1v1h-2v-1h1v1h1v-1h-1h2v1ZM340,889v1h-3v-1h1h-1h1v1v-1h1v1h1ZM332,889v1h-1h1h-1h1h-1v-1ZM318,884v1l-1,-1ZM333,882v1v-2ZM316,881h-1ZM316,881h-1v-1ZM326,878v1ZM315,879h-1v-1v1ZM314,877h-1ZM314,877h-1ZM319,875v1ZM320,875v1ZM319,876v-1ZM320,875v1l-1,-1ZM319,875v1v-1h-1v1v-1ZM319,875h-1ZM318,875v-1ZM312,874v-1ZM311,873v-1v1v-1ZM322,872v1ZM335,871v1ZM335,871v1v-1h-1ZM335,871v-1ZM325,871h-1v-1v1h1h-1ZM310,868v1v-1v1ZM340,893h-1h1v-1ZM339,892h-1v1v-1ZM341,889v1v-1v1l-1,-1ZM342,889h-1v1v-1ZM358,890h-1v-1h1ZM342,889h1ZM346,889h-1ZM348,889h-1l1,-1ZM344,888v1h-1v-1ZM358,888v1h-1v1h-1v-1h1v-1ZM350,888v1h-1v-1h1v-1ZM350,888v-1v1v-1ZM347,887v1h-1v-1ZM330,887h1h-2ZM353,887v-1ZM338,886v-1ZM351,886v-1ZM353,886v-1ZM352,885h-1v1v-1ZM340,884l-1,1v-1ZM340,884v1ZM350,883v1ZM341,884v1h-1v-1l1,-1v1h-1ZM347,882h-1ZM345,882h-1v-1h1ZM323,881h1ZM349,882v1v-1h-3v-1v1v-1h3ZM324,881v-1v1v-1ZM342,880v-1ZM344,879v1h-1v-1ZM341,879v1ZM353,879v1ZM349,880h-1v-1h1ZM343,879v1v-1v1h-1v-1ZM356,879v1h-1v-1Z"/>
<path class="th" d="M323,880v1h-1v-1h-1v-1h1v1ZM347,879h-1ZM346,878v1ZM341,879v-1v1v-1v1v-1ZM349,878h-1v1v-1ZM350,878v1h-1v-1ZM350,878h-1ZM356,878h-1v1v-1ZM346,878h-1ZM340,877h-1ZM320,877v1v-1v1ZM346,878v-1ZM346,877h-1ZM319,877h1ZM350,877h-1h1h-1ZM321,877h-1h1h-1ZM346,877v-1ZM320,877v-1ZM321,877h-1v-1v1v-1ZM320,876v-1v1v-1ZM346,875v1ZM313,875v1v-1h-1v-1v1ZM343,874v1ZM346,877v-2h1h-1h1v-1v2h-1v1h1v1h-1ZM347,873v1ZM343,872v1ZM344,871v1v-1h-1ZM345,870v1ZM350,885h1ZM353,875v1ZM343,873v1ZM353,885v1ZM352,880h1ZM314,876v1Z"/>
<path class="tg" d="M66,970h1l1,-1h4v-1h5v-1h5v-1h6v-1h6l1,-1h7v-1h8v-1h9l1,-1h11v-1h14v-1h20v-1h79v1h20v1h14v1h11l1,1h9v1h8v1h7l1,1h6v1h6v1h5v1h5v1h4l1,1h1M21,927h6v-1h7v-1h8v-1h10v-1h10v-1h12v-1h14v-1h18v-1h23v-1h38v-1h75v1h38v1h23v1h18v1h14v1h12v1h10v1h10v1h8v1h7v1h6M5,877h399M21,826h4v1h7v1h8v1h9v1h10v1h11v1h14v1h16v1h21v1h32v1h103v-1h32v-1h21v-1h16v-1h14v-1h11v-1h10v-1h9v-1h8v-1h7v-1h4M66,783v1h5v1h4v1h5l1,1h5v1h6l1,1h6l1,1h7v1h10v1h10v1h13l1,1h17v1h36v1h21v-1h36v-1h17l1,-1h13v-1h10v-1h10v-1h7l1,-1h6l1,-1h6v-1h5l1,-1h5v-1h4v-1h5v-1M140,755h-1v1h-3v1h-2v1h-2v1h-2v1h-2v1h-2l-1,1h-1l-1,1h-1l-1,1h-1v1h-2v1h-2v1h-2v1h-1l-1,1h-1v1h-2v1h-1l-1,1h-1v1h-2v1h-1v1h-2v1h-1v1h-2v1h-1v1h-1l-1,1h-1v1h-1v1h-2v1h-1v1h-1v1h-1v1h-2v1h-1v1h-1v1h-1v1h-1v1h-1v1h-1l-1,1h-1v1h-1v1h-1v1h-1v1h-1v1h-1v1h-1v1h-1v1h-1v1l-1,1v1h-1v1h-1v1h-1v1h-1v1h-1v1l-1,1v1h-1v1h-1v1h-1v2h-1v1h-1v2h-1v1h-1v2h-1v1h-1v2h-1v2h-1v1h-1v2h-1v2h-1v2h-1v2h-1v2l-1,1v2h-1v2l-1,1v2h-1v3h-1v4h-1v4h-1v5h-1v9h-1v13l1,1v8h1v5h1v4h1v4h1v3h1v3h1v2h1v3h1v2h1v2h1v2h1v2h1v2h1v2h1v1l1,1v1h1v2h1v1h1v2h1v1h1v1h1v2h1v1h1v1l1,1v1h1v1h1v1h1v1l2,2v1h1v1h1v1h1v1h1v1h1v1h1v1h1v1h1v1h1v1h1v1h1v1h1v1h1v1h2v1h1v1h1v1h1v1h1v1h1l1,1h1v1h1v1h1v1h2v1h1v1h1l1,1h1v1h1v1h2v1h1v1h2v1h1l1,1h1v1h2v1h1v1h2v1h2v1h1l1,1h1v1h2v1h2v1h2v1h2v1h2v1h2v1h2v1h2l1,1h2v1h2v1h2M153,755h-1v1h-2v1h-2v1h-1v1h-2v1h-2v1h-1v1h-2v1h-1v1h-2v1h-1v1h-2v1h-1v1h-1v1h-2v1h-1v1h-1l-1,1h-1v1h-1v1h-1v1h-1v1h-1l-1,1h-1v1h-1v1h-1v1h-1v1h-1v1h-1v1h-1v1h-1v1h-1v1h-1v1h-1v1h-1v1h-1v1h-1v1h-1v1h-1v1h-1v1l-2,2v1h-1v1h-1v1h-1v1l-1,1v1h-1v1h-1v2h-1v1h-1v1l-1,1v1h-1v2h-1v1h-1v2h-1v1h-1v2h-1v2h-1v2h-1v2h-1v2h-1v2h-1v2h-1v3h-1v2h-1v3h-1v3h-1v3h-1v3h-1v4l-1,1v4h-1v6l-1,1v30h1v6h1v5h1v4h1v3h1v3l1,1v2l1,1v2h1v3h1v2h1v2h1v2h1v2l1,1v1h1v2h1v2h1v2h1v2h1v1h1v2h1v1h1v2h1v1h1v2h1v1h1v1h1v2h1v1h1v1h1v1l1,1v1h1v1h1v1h1v1h1v1h1v1h1v1l3,3v1h1l3,3h1v1h1v1h1v1h1v1h1v1h1v1h1v1h1l1,1h1v1h1v1h1v1h1l1,1h1v1h1v1h1l1,1h1v1h1v1h2v1h1v1h2v1h1v1h2v1h2v1h1v1h2v1h1l1,1h1v1h2M166,755h-1v1h-1v1h-1l-1,1h-1v1h-1v1h-1v1h-1v1h-1v1h-1l-2,2h-1v1h-1v1h-1v1h-1v1h-1v1h-1v1h-1v1h-1v1h-1v1l-2,2v1h-1v1h-1v1h-1v1h-1v1l-1,1v1h-1v1h-1v1h-1v2h-1v1h-1v1l-1,1v1h-1v1h-1v2h-1v1h-1v2h-1v2h-1v1h-1v2h-1v2h-1v2h-1v1l-1,1v1l-1,1v1l-1,1v2h-1v2h-1v2h-1v3h-1v2h-1v3h-1v3h-1v3h-1v3h-1v4h-1v4h-1v5h-1v6h-1v8h-1v30h1v7l1,1v5h1v5h1v4h1v4h1v3h1v3h1v3h1v3h1v3h1v2h1v2h1v2l1,1v2h1v2h1v2h1v2h1v1h1v2h1v2h1v2h1v1h1v2h1v1h1v2h1v1l1,1v1h1v1h1v2h1v1h1v1h1v1l1,1v1h1v1h1v1h1v1l1,1v1h1v1h1v1h1v1h1v1h1v1h1v1h1v1h1v1h1v1h1v1h1v1h1v1h1v1h1v1h1l2,2h1v1h1v1h1v1h1v1h2v1h1"/>
<path class="tg" d="M179,755h-1v1h-1v2h-1v1h-1v1h-1v1h-1v2h-1v1h-1v1l-1,1v1h-1v1l-1,1v1h-1v1l-1,1v1h-1v2h-1v1l-1,1v1h-1v2h-1v2h-1v2h-1v2h-1v2h-1v2h-1v2h-1v2h-1v2l-1,1v2h-1v2l-1,1v2h-1v3h-1v3h-1v3h-1v3h-1v4h-1v4h-1v4h-1v4h-1v5l-1,1v5h-1v8h-1v11h-1v29l1,1v10l1,1v7h1v6h1v5h1v4l1,1v4h1v3l1,1v3h1v3h1v3h1v3h1v3h1v3h1v2h1v3h1v2h1v2h1v2l1,1v2h1v2h1v1l1,1v1l1,1v1h1v2h1v2h1v1l1,1v1h1v2h1v1h1v2h1v1h1v2h1v1h1v1l1,1v1h1v1h1v1h1v2h1v1h1v1h1M192,755h-1v3h-1v2h-1v3h-1v3h-1v3h-1v3h-1v3h-1v3l-1,1v3h-1v4h-1v4h-1v4l-1,1v4h-1v5h-1v6h-1v6l-1,1v7h-1v8h-1v11l-1,1v18h-1v29l1,1v18h1v11h1v8l1,1v7h1v6h1v6h1v5h1v5h1v4h1v4h1v4h1v4h1v3h1v3l1,1v3h1v2l1,1v2h1v3h1v3h1v2h1M205,755v243M217,755h1v3h1v2h1v3h1v3h1v3h1v3h1v3h1v3l1,1v3h1v4h1v4h1v4l1,1v4h1v5h1v6h1v6l1,1v7h1v8h1v11l1,1v18h1v29l-1,1v18h-1v11h-1v8l-1,1v7h-1v6h-1v6h-1v5h-1v5h-1v4h-1v4h-1v4h-1v4h-1v3h-1v3l-1,1v3h-1v2l-1,1v2h-1v3h-1v3h-1v2h-1M230,755h1v1h1v2h1v1h1v1h1v1h1v2h1v1h1v1l1,1v1h1v1l1,1v1h1v1l1,1v1h1v2h1v1l1,1v1h1v2h1v2h1v2h1v2h1v2h1v2h1v2h1v2h1v2l1,1v2h1v2l1,1v2h1v3h1v3h1v3h1v3h1v4h1v4h1v4h1v4h1v5l1,1v5h1v8h1v11h1v29l-1,1v10l-1,1v7h-1v6h-1v5h-1v4l-1,1v4h-1v3l-1,1v3h-1v3h-1v3h-1v3h-1v3h-1v3h-1v2h-1v3h-1v2h-1v2h-1v2l-1,1v2h-1v2h-1v1l-1,1v1l-1,1v1h-1v2h-1v2h-1v1l-1,1v1h-1v2h-1v1h-1v2h-1v1h-1v2h-1v1h-1v1l-1,1v1h-1v1h-1v1h-1v2h-1v1h-1v1h-1M243,755h1v1h1v1h1l1,1h1v1h1v1h1v1h1v1h1v1h1l2,2h1v1h1v1h1v1h1v1h1v1h1v1h1v1h1v1h1v1l2,2v1h1v1h1v1h1v1h1v1l1,1v1h1v1h1v1h1v2h1v1h1v1l1,1v1h1v1h1v2h1v1h1v2h1v2h1v1h1v2h1v2h1v2h1v1l1,1v1l1,1v1l1,1v2h1v2h1v2h1v3h1v2h1v3h1v3h1v3h1v3h1v4h1v4h1v5h1v6h1v8h1v30h-1v7l-1,1v5h-1v5h-1v4h-1v4h-1v3h-1v3h-1v3h-1v3h-1v3h-1v2h-1v2h-1v2l-1,1v2h-1v2h-1v2h-1v2h-1v1h-1v2h-1v2h-1v2h-1v1h-1v2h-1v1h-1v2h-1v1l-1,1v1h-1v1h-1v2h-1v1h-1v1h-1v1l-1,1v1h-1v1h-1v1h-1v1l-1,1v1h-1v1h-1v1h-1v1h-1v1h-1v1h-1v1h-1v1h-1v1h-1v1h-1v1h-1v1h-1v1h-1v1h-1v1h-1l-2,2h-1v1h-1v1h-1v1h-1v1h-2v1h-1M256,755h1v1h2v1h2v1h1v1h2v1h2v1h1v1h2v1h1v1h2v1h1v1h2v1h1v1h1v1h2v1h1v1h1l1,1h1v1h1v1h1v1h1v1h1l1,1h1v1h1v1h1v1h1v1h1v1h1v1h1v1h1v1h1v1h1v1h1v1h1v1h1v1h1v1h1v1h1v1h1v1l2,2v1h1v1h1v1h1v1l1,1v1h1v1h1v2h1v1h1v1l1,1v1h1v2h1v1h1v2h1v1h1v2h1v2h1v2h1v2h1v2h1v2h1v2h1v3h1v2h1v3h1v3h1v3h1v3h1v4l1,1v4h1v6l1,1v14l1,1h-1v15h-1v6h-1v5h-1v4h-1v3h-1v3l-1,1v2l-1,1v2h-1v3h-1v2h-1v2h-1v2h-1v2l-1,1v1h-1v2h-1v2h-1v2h-1v2h-1v1h-1v2h-1v1h-1v2h-1v1h-1v2h-1v1h-1v1h-1v2h-1v1h-1v1h-1v1l-1,1v1h-1v1h-1v1h-1v1h-1v1h-1v1h-1v1l-3,3v1h-1l-3,3h-1v1h-1v1h-1v1h-1v1h-1v1h-1v1h-1v1h-1l-1,1h-1v1h-1v1h-1v1h-1l-1,1h-1v1h-1v1h-1l-1,1h-1v1h-1v1h-2v1h-1v1h-2v1h-1v1h-2v1h-2v1h-1v1h-2v1h-1l-1,1h-1v1h-2"/>
<path class="tg" d="M269,755h1v1h3v1h2v1h2v1h2v1h2v1h2l1,1h1l1,1h1l1,1h1v1h2v1h2v1h2v1h1l1,1h1v1h2v1h1l1,1h1v1h2v1h1v1h2v1h1v1h2v1h1v1h1l1,1h1v1h1v1h2v1h1v1h1v1h1v1h2v1h1v1h1v1h1v1h1v1h1v1h1l1,1h1v1h1v1h1v1h1v1h1v1h1v1h1v1h1v1h1v1l1,1v1h1v1h1v1h1v1h1v1h1v1l1,1v1h1v1h1v1h1v2h1v1h1v2h1v1h1v2h1v1h1v2h1v2h1v1h1v2h1v2h1v2h1v2h1v2l1,1v2h1v2l1,1v2h1v3h1v4h1v4h1v5h1v9h1v13l-1,1v8h-1v5h-1v4h-1v4h-1v3h-1v3h-1v2h-1v3h-1v2h-1v2h-1v2h-1v2h-1v2h-1v2h-1v1l-1,1v1h-1v2h-1v1h-1v2h-1v1h-1v1h-1v2h-1v1h-1v1l-1,1v1h-1v1h-1v1h-1v1l-2,2v1h-1v1h-1v1h-1v1h-1v1h-1v1h-1v1h-1v1h-1v1h-1v1h-1v1h-1v1h-1v1h-1v1h-2v1h-1v1h-1v1h-1v1h-1v1h-1l-1,1h-1v1h-1v1h-1v1h-2v1h-1v1h-1l-1,1h-1v1h-1v1h-2v1h-1v1h-2v1h-1l-1,1h-1v1h-2v1h-1v1h-2v1h-2v1h-1l-1,1h-1v1h-2v1h-2v1h-2v1h-2v1h-2v1h-2v1h-2v1h-2l-1,1h-2v1h-2v1h-2"/>
<rect x="299" y="857" width="72" height="46" fill-opacity="0" stroke="#ffffff" stroke-opacity="0.5" stroke-width="5.0"/>
<rect x="301" y="859" width="72" height="46" fill-opacity="0" stroke="#113311" stroke-opacity="0.8" stroke-width="5.0"/>
<rect x="300" y="858" width="72" height="46" fill-opacity="0" stroke="#45a249" stroke-opacity="0.9" stroke-width="5.0"/>
</svg>
