<?xml version="1.0" encoding="UTF-8" standalone="no"?>
<svg xmlns:svg="http://www.w3.org/2000/svg" xmlns="http://www.w3.org/2000/svg" xmlns:xlink="http://www.w3.org/1999/xlink" height="1000" width="1000">
<!-- made with pythonshp (GPL): github.com/sanjayrao77/pythonshp , underlying data may come from naturalearthdata.com -->
<!-- 
COPYRIGHT: THIS SVG FILE IS RELEASED INTO THE PUBLIC DOMAIN
 -->
<!-- 
vars : {
	'cmdline' : 'pythonshp.py publicdomain wiki1 kiribati locatormap'
	'title' : 'Kiribati locator'
	'version' : '1.0.5'
}
 -->
<defs>
	<radialGradient id="watergradient" cx="500" cy="500" r="500" fx="500" fy="500" gradientUnits="userSpaceOnUse">
		<stop offset="0%" stop-color="#70add3"/>
		<stop offset="11%" stop-color="#6eaad0"/>
		<stop offset="22%" stop-color="#6ca7cc"/>
		<stop offset="31%" stop-color="#6ba5c9"/>
		<stop offset="41%" stop-color="#69a2c6"/>
		<stop offset="51%" stop-color="#679fc2"/>
		<stop offset="59%" stop-color="#669dbf"/>
		<stop offset="67%" stop-color="#649abc"/>
		<stop offset="75%" stop-color="#6297b9"/>
		<stop offset="81%" stop-color="#6095b6"/>
		<stop offset="87%" stop-color="#5f92b2"/>
		<stop offset="92%" stop-color="#5d8faf"/>
		<stop offset="95%" stop-color="#5b8dac"/>
		<stop offset="98%" stop-color="#598aa8"/>
		<stop offset="100%" stop-color="#5685a2"/>
	</radialGradient>
	<radialGradient id="landgradient" cx="500" cy="500" r="500" fx="500" fy="500" gradientUnits="userSpaceOnUse">
		<stop offset="0%" stop-color="#dddddd"/>
		<stop offset="11%" stop-color="#d7d7d7"/>
		<stop offset="22%" stop-color="#d1d1d1"/>
		<stop offset="31%" stop-color="#cccccc"/>
		<stop offset="41%" stop-color="#c6c6c6"/>
		<stop offset="51%" stop-color="#c0c0c0"/>
		<stop offset="59%" stop-color="#bbbbbb"/>
		<stop offset="67%" stop-color="#b5b5b5"/>
		<stop offset="75%" stop-color="#afafaf"/>
		<stop offset="81%" stop-color="#aaaaaa"/>
		<stop offset="87%" stop-color="#a4a4a4"/>
		<stop offset="92%" stop-color="#9e9e9e"/>
		<stop offset="95%" stop-color="#999999"/>
		<stop offset="98%" stop-color="#939393"/>
		<stop offset="100%" stop-color="#888888"/>
	</radialGradient>
	<radialGradient id="bordergradient" cx="500" cy="500" r="500" fx="500" fy="500" gradientUnits="userSpaceOnUse">
		<stop offset="0%" stop-color="#444444"/>
		<stop offset="11%" stop-color="#3f3f3f"/>
		<stop offset="22%" stop-color="#3a3a3a"/>
		<stop offset="31%" stop-color="#363636"/>
		<stop offset="41%" stop-color="#323232"/>
		<stop offset="51%" stop-color="#2d2d2d"/>
		<stop offset="59%" stop-color="#292929"/>
		<stop offset="67%" stop-color="#242424"/>
		<stop offset="75%" stop-color="#1f1f1f"/>
		<stop offset="81%" stop-color="#1b1b1b"/>
		<stop offset="87%" stop-color="#161616"/>
		<stop offset="92%" stop-color="#121212"/>
		<stop offset="95%" stop-color="#0e0e0e"/>
		<stop offset="98%" stop-color="#090909"/>
		<stop offset="100%" stop-color="#000000"/>
	</radialGradient>
</defs>
<style type="text/css">
<![CDATA[
.c1 {stroke:#45a211;fill-opacity:0}
.fs {font:14px sans;stroke:#ffffff;stroke-width:2px;stroke-opacity:0.8;text-anchor:middle}
.ft {font:14px sans;fill:#000000;fill-opacity:1;stroke-opacity:0;text-anchor:middle}
.sb {stroke:url(#bordergradient);fill-opacity:0}
.sg {stroke:#000000;fill-opacity:0.0;stroke-opacity:0.2}
.sh {fill:#45a211;stroke:#000000}
.sl {fill:url(#landgradient);stroke:url(#bordergradient)}
.sp {stroke:url(#landgradient);fill-opacity:0}
.sr {stroke:url(#watergradient);fill-opacity:0}
.sw {fill:url(#watergradient);stroke:url(#watergradient);stroke-opacity:0.8}
.tb {fill:#eeeeee;stroke:black;stroke-width:2}
.tg {stroke:black;stroke-opacity:0.2;fill-opacity:0}
.th {fill:#45a211;stroke:#378100}
.tl {fill:#aaaaaa;stroke:black}
.w1 {stroke:#ffffff;fill-opacity:0;stroke-opacity:0.6}
]]>
</style>
<circle cx="500.0" cy="500.0" r="500.0" fill="url(#watergradient)"/>
<path class="sl" d="M684,35h1l1,1h1l1,1h1l2,1h1l1,1h1l1,1h1l1,1h2l1,1h1l1,1h1l1,1h1l1,1h1l-1,-1h-2l-1,-1h-1h1h-2v-1l1,1h2v1l2,1h2l1,1h1l1,1h1l3,2h2v1h1h-1v-1v1h1h-1v-1h-1h1v1h1h-1h1l1,1h1h-1h1h-2v-1h-1h1h-2l-1,-1h-1h1l1,1l-1,-1l1,1h2v1h1h-1h2l1,1h1l2,1l1,1h1h-1h1v1h1l1,1h1l1,1v-1h-1v1h2v1h1l1,1h1l1,1h1l2,2h1l1,1h1l2,2h1l4,2l2,2h1l1,1h1l1,1l3,2l-2,-2h-1h1l1,1h1l2,1l1,1l2,1l3,2l2,2h1l-1,-1h1v1h1l1,1h2v1h1l1,1h1l3,3h1l1,1h1v1h1l2,2h1l2,2h1l2,2h1l3,3h1l2,2h1l4,4h1l2,2h1l5,5h1l4,4h1l3,3h1v1l2,2h1l4,4h1l2,2v1h1l4,4h1v1l2,2h1l4,4v1h1l19,19v1l1,1h1l2,2v1l8,8v1l6,6v1l4,4v1l2,2h1v1l3,3v1l3,3v1l3,3v1l2,2v1h1l2,2v1l2,2v1l2,2v1l2,2v1l3,3v1l2,2v1l2,2v1l2,2v1l2,2v1l2,2v2l2,2v1l2,2v1l2,2v1l1,1v1l2,2v1l2,2v2l1,1l-1,-2l-1,-1h1v1l1,1v1l-1,-1v-1v1v-1l-1,-1v-1h-1v-1v1v-1l-1,-1v-1v1l-1,-1v-1v1l1,1h-1h1v1v-1h-1v-1l-1,-1v-1v1l1,1v1l-1,-1v1v-1l1,1v1l-2,-2v1l2,2v-1v1h1v1l-1,-1h1v2h1v1l2,2v1l1,1v1v-1v1v-1h-1v-1l-1,-1v-1h-1v-1v1l1,1v1h1v1l-1,-1v-1h-1l1,1h-1v-1h-1h1v-1h-1v-1h-1h1h-1v-1l-1,-1v1h-1v-1h-2v-2h-1l1,1v2l-1,-1v-1v1h-1l2,2v1l1,1v3h-1h1v1l-1,-1l1,1v3l1,1v1l1,1v2l1,1h-1v-1h-1l2,2v1l2,2v1l1,2l2,3v1l1,1l1,2v2l3,7l1,3l1,2l1,3l2,3v3h1v1l1,2v1l2,3l1,1v2l1,1l-1,-1v-1l-1,-1v-1l-1,-2l1,3v1h1v1l1,2l2,3v1l2,4l2,3l1,2v1l1,1v1l1,1l1,2v1v-1v1l1,1v-1h-1h1l1,1v1h1v2l1,1h1v-2h1v1v-2h1v1l1,1v-2l-1,-1v-1v1v-4l-2,-3v-3l-1,-1v-2l-1,-1v-2l-1,-2v-4l2,2v-1h-1v-1v1l1,1l1,2v1l1,1v2l1,1v3l1,1v2l1,1v2h1h-1h1v1l1,2v2l1,1v1l-1,-1v-1v2l1,1v2l1,1v2l1,1v3h1v1l1,2v3l1,1v4l1,1v1v-1l1,2v-1l1,1v-1l1,1l1,3v1v-1v2l1,2v2l1,4l1,1v2l1,2v3l2,7v1v-1v3l1,1v3l1,1v4l1,1v2l1,3v4l1,2v4l1,1v5l1,1v1l-1,-1v-1v1l1,1v-1h-1v-5l-1,-1v-4l-1,-1v-4h-1v-1l1,1v1l-1,-1v-4l-1,-1v-3l-1,-1v-1l-1,-4v-2l-1,-2v-1l-1,-1v-3l-1,-1v-1v1v-4h-1v-1v2l-1,-1v-2h-1v-1l-1,-1l-1,-2h-1v-1l-1,-1v-1l-1,-3h-1l-1,-2l-1,-3v-1l-3,-6l-1,-1v-1l-1,-1v1h1v1l-1,-1v-2h-1v1v-1v1h1h-1v2l-1,1v2l-1,-1l-1,-2l-2,-1l-1,-2l-4,-4h-1l-2,-2v-1h-1l-1,-2h-1l-1,-1l-1,-2l-2,-2v-2l-1,1l-1,-1h-1l-1,-2l-2,-1v-1l-1,-1l-1,-2l-2,-2h-1v-1l-2,-1v-2l-2,-2l-1,-2l-1,-1v-1l-1,-1v-1h1v-1l-2,-2v-3l-1,-1v-1l-1,-1v-1l-2,-2l-1,-3l-2,-4l-3,-3l-2,-4l-3,-3l-3,-4l1,1l-1,-1h-1l-1,-1v-1l-2,-2v-1v1h1l-2,-2h-1l-3,-3h1v-1h-1v1h-1v-1l-1,-2l-1,-1v-1h1l-1,-1v-1h-1l-1,-2h-1l-2,-2v-1h-1l-3,-3v-1l-1,-1v-1h-2v-1l-2,-1l-1,-2l-1,-1h-1l-1,-1v-1h-1v-1l-2,-2v-1h-1l-1,-1v-1l-4,-4l-1,-2l-2,-2v-1l-1,-2l-1,-1l1,1v-1h-1v-1h-2l-1,-1v-1h-1l-1,-1v1h-1l-2,-2h-1l-1,-1l2,2v1l1,2l1,1v1l3,3l1,2v1l4,4l2,1v1l2,2v1h1l1,1h1l1,3h1l1,1v1l1,1v1h1v1l1,1l2,1v2l1,1h1v1h1v1l1,1v1l1,1v-1l-1,-1v-1l1,2l2,2v1l1,1l1,2v1l3,3l1,2l2,2v3l2,2v1h1v1v-2l3,3v1h1v1l2,2v2h1l-1,1v1h-1v-1l-2,-2v-1l-1,-1v-1l-7,-7h-2v-1l-2,-2v-1l-1,-3l-1,-1v-1l-1,-1v-1l-2,-3h-2l-2,-3l-2,-2v1h-1l-3,-3h-1l-2,-2v-1h-1l-3,-3h1l2,1v-1h1v1l1,1v-1h-1v-1h-1v-4l-2,-1l-1,-1l-2,-3l-2,-2h-1l-3,-3h-1l-1,-2l-1,-1v-2h-2v-1l-1,-2l-4,-4l-1,-2h-1v-1h-1h1l-2,-2l-1,-2l-4,-4v-1h-1v-1l-4,-4h-1l-1,-1h-2v-1l-1,-1h-1l-2,-1h-1v-1l-1,-1h-2l-2,-1h-2l-1,-1v-1l-1,-1v-1h-1v-1h-1v-1h-1v-1h-1l-1,-1h-1v-1l-1,-1h-1l-1,-2l-2,-1l-1,-1v-2l-1,-1l-4,-2l-1,-1l-1,-2l-1,-1h1v1h1l1,1h1h-1v-1l-1,-1h-1v-1h-1v-1h1h-1v-1h-1v1l1,1v1v-1h-1l-1,-1h-1l-1,-1h1l-2,-2h-1l-1,-1l-3,-2l-1,-1l-1,-2v-1l-4,-4l-2,-1l-1,-1v-1l-1,-1h1h-1v-2l-2,-2v-1l-5,-5v-1l-1,-1h-1l-1,-1v-1l-1,-3l-1,-1v-1l-2,-2l-1,-2v-1h-1l-1,-1l-2,-4l-1,-1l-1,-2l-2,-1v-1h2l1,1l-1,-1h-3v-1h-1v-1l1,1v-1h-1v-1h-1l-1,-1h1h-1v-1v1h-1v-1l-4,-4l-2,-1l-2,-2h1l2,1h4l1,1v-1h1v1l1,1v1v1h1v1v-1v1v-1h-1l1,-1v-1h-1h1v1h1h-1l1,1h1v2l-1,-1v1h2v-1l-1,-1v-1h-1v-1h-1v-1h-1v-1v1v-1h-1l-1,-1h-1v-1h1h-1v-1h-1l-1,-1h-1v-1h-1v1v-1h-1v-1h-1h1v-1v1h-1l-1,-1v-1h-1l1,1h-2l-1,-1h-1v-1l1,1h1h-1l-2,-2v-1h-1h1v2h-1l-2,-1l-2,-2h-1v-1h-1v-1l-1,-1v1h1v1h-2v-1v1h-3v-1h-1h2h-3v-1h1h-1l-1,-1v1h-1l-1,-1h-1l-1,-1h-1l-1,-1v-1l1,-1h1h-3v1h-1v-1h-1v-1h-1v-1h-1l1,-1h2l1,1h1h-1v-1h-2l-1,-1v-1l-1,-1l1,1v2h-1v1l1,1v1l-1,-1l-2,-1l1,-1l-1,-1v1l-1,-1v-1l-1,-1h-1l-2,-1l-1,-1h-1l-1,-1h-1l-1,-1h1l1,1h3l1,1h1h-1l-1,-1h-2l-1,-1h-1v-1h1h-2v1l1,1v1h-1l-2,-2h-3v-3h1h-3l-1,-1h-1v-2l-1,-1v-2h-1l1,1v1l-4,-4v1h1v1h1l1,1v1h1v1h-2l-5,-5h-1v-1h-1l-1,1v1h1v1l-1,-1h-1v-1l-1,-1h1v-1h-3v-1h-2v-1h-2l-1,-1v-1h-3l-2,-2h-1v-1v1h2l-2,-1h-1h1l-1,-1v1h-1v-1h-2v-1h-1v-1v1h-1l-1,-1h-1l-1,-1h-2v-1l-1,-1h-2v-1v1h1l2,2h1v1l1,1h1h-1l-1,-1h-2l-2,-2h-1l-1,-1l1,1v1v-1h-3l-1,-1l1,1h2v1h2l1,1h1h-2v1l-1,-1h-1l-3,-1h-1l-1,-1h-1l-1,-1h-2l-1,-1h-3l-1,-1h-1v-1h-1v-1l1,1h1v1v-1h-1l-1,-1l-1,1h-3l-2,-1h-1v-1v1h-3l-2,-1h-3l-1,1h-1l-1,-1h1h-3l-1,-1h-1v-1h-1v1h-3v-1h-2v-1l-1,1v-1h-1v-1h1h-4v1l-1,-1v1h-1l-1,-1l1,-1l-1,1h-1v1h1v1h-1h3v2h-1v1l-1,-1h-2v1h-2v1h-2v1h-4v-1h2v-1l-1,1h-1l-2,-2h1v-2l-1,-1h1l1,-1h4l2,1h1h-1l-1,-1h-3v-1h1l1,-1h-2v1h-4v1h-2v1l-1,1v1h-1v1h1h-1l-1,1h1h-3l1,1h-1l-1,1l1,1h3v1h1h-1v1h-2l1,1h-1v1h-3v1h-2v1h-1v1h-2l1,1h-1v1h-3v1h-3v1h1h-2l-1,1h2l-1,1v-1h-1v1l-3,1v1h-1v-1h-2l-1,1h-3v1h-2v-1h1h-2v1l-1,1h-3v-1h-1v1h1l-1,1l-1,-1h-1v1h-1v-1h2v-1h1l2,-2h1l1,-1h3v1h4l-1,-1v-1l2,-2h3v-1h2v1v-2l1,-1h1v-1h1v-3h1h-2v-1l1,-1h1v-1h-1l-2,1h-1l-1,1v-1h-2v-1h1h-2v1l1,1h-2l-1,-1h-1l-1,-1l-1,1l-1,-1h-3l-2,1h-2v-2h-2v-1h1v-1h-1l-3,-3l1,-1h1h-2v1h-1v1h1v1h-7l-2,-1v-1h-2l-1,-1h1v-1h2l1,1h-1h4v-1h-7v-1h1h-2v-1v1h-1l-1,-1h-1h1l-1,-1l-1,1v-1h1h-1v-1h1v-1h1l1,-1h1l1,-1h-1v-1h1v-1h3l1,1h-1h3l2,-2h5l1,-1h-1v-1h-1l-1,-1h-1h2v-1h-1v-1h-1v1h-3l-1,1h-1l-2,-1l1,1h-1l-1,-1h-3l-1,1h-3l-2,-1h-2v-1h-1l-1,-1h1l-3,-1h-2v-1v1l2,-1h2v-1h3l2,-1h5v1h4l1,1l1,-1l1,1h1v-1h2l-2,-1l-1,1v-1l-2,-1h-1h2v1h5v1l1,-1h-5v-1h-1h1v-1h-8v-1h-1l-5,-2h-3l-1,-1h-1h2v-1h6l1,-1h2v-1l2,-2h1h-1h4l1,-1v1h1l-1,-1h6l1,-1h1v-1v1h3l-1,1h2v-1h2v1h7v1h11l1,1v-1h1v1h9l1,1l1,-1h2l2,1h4v1h7l3,1h3l2,1h4l2,1l-1,-1h-2l-1,-1h2v-1h-1h2v1h3l-1,-1h3v-1h2l1,1h-2v1h-1v2h1h1v-1h-1v-1h2l1,1v-1h-1v-1h3l-1,-1h-2v-1h1l1,1h2l1,1h2l1,1h3l1,1h1l-1,-1h-2v-1h-1h1h-1h2l1,1h2v1h2v-1h-1h5l2,1h2l2,1h4l1,1h5l1,1h3v1h1h-1h1v1h2l1,1h6l-1,-1h1l1,1h2l1,1h2l2,1h1v1v-1h-1h1l1,1h2l2,2h1l-2,-1h-1v-1h-1h1h-2v-1h-2l-1,-1h-2v-1h-2v-1h-1v-1h-1l1,1l-1,-1v1h1h-1h1h-3v-1h-1v-1h2l1,1h2v1h3v1h4v1h5v1h1l-1,-1h-2v-1v1h3v1h1l-1,-1h-3v-1h-2v-1l1,1h-1v-1h-1h1l1,1h2l1,1h-1v-1l1,1l2,1h2v1h3v1h2l2,1l1,1l-1,-1h-2v-1l1,1l-1,-1h-1l-1,-1h-2l-1,-1h-1l-2,-1l-1,-1h-2v-1h-3v-1h-1h1l1,1l-1,-1h-2l-1,-1h-1h1h-2l-1,-1h-2v-1h-2l-1,-1h-3v-1h-3v-1h-3v-1h-1h1h-2l-1,-1h-1h2v1h3v1h2l2,1h2v1h3v1v-1v1h1h-1h3v1h2l1,1v-1v1h2l1,1h-1h2l2,1h1l1,1h2l1,1l-1,-1h-1l-1,-1h-2l-1,-1h-1h1l1,1h2l1,1h1l1,1Z"/>
<path class="sp" d="M691,38h1l1,1h1l1,1h1l1,1h2l1,1h1l1,1h1l1,1h1l1,1h1M709,46h1M783,88l1,1h1l2,2h1l2,2h1l3,3h1l2,2h1l4,4h1l2,2h1l5,5h1l4,4h1l3,3h1v1l2,2h1l4,4h1l2,2v1h1l4,4h1v1l2,2h1l4,4v1h1l19,19v1l1,1h1l2,2v1l8,8v1l6,6v1l4,4v1l2,2h1v1l3,3v1l3,3v1l3,3v1l2,2v1h1l2,2v1l2,2v1l2,2v1l2,2v1l3,3v1l2,2v1l2,2v1l2,2v1l2,2v1l2,2v2l2,2v1l2,2v1l2,2v1l1,1v1l2,2v1l2,2v2l1,1M993,417v2l1,1v5l1,1v2M680,33l1,1h1l1,1h1"/>
<path class="sl" d="M385,13h1l-1,1h-1h1v-1v1h-2l-2,1h-1h1l1,-1l-1,1h-3l-3,1h-2l-1,1h-3v1h-3l-1,1h-3l-1,1h-2l-1,1l-3,1h-1h1v-1h3l1,-1h2l1,-1h3l1,-1v1h-1h1l1,-1l-1,1h-2l-1,1h-3v1h-3l-1,1l1,-1h3v-1h3v-1h3l-1,1h-1h5v-1h2l1,-1h3l-1,1l1,-1h1v1h-2v1h-3v1h-3v1h-1h1h-2l-1,1h-1l-1,1h-1h1l-1,1h1l1,-1h2l1,-1h2l1,-1h1v1h2l1,-1h3v1h-1h2v-1h5l1,-1h1l1,-1h1h-1h3l1,-1h7l-1,1h1h-1l-1,1h-1h2l1,-1h4v-1h3l1,1h-1l-1,1h-1h2l-1,1h1l1,1h3l2,-1h11l1,1l-1,1h-1v1h-1h2v1h-1v2h-2l-1,1h1l1,-1h1l2,-2h3v-1h10v1h2l1,-1h3v1h2v1h5l1,-1h-1v-1h-1h1l1,-1h16l1,1h5l2,1h1l1,1h4l1,1h-1h2v1h1v-1h-1h1l1,1h-1h3l5,1v1h-1h2v3h3l-1,1h1v-1h1h-2v-1h1l-1,-1h4l-1,1h1h-1l1,-1v1h2v-1h-2h2l1,1l1,-1v1h2l1,1h2v1h3l-1,1v-1l-1,1h-1v1h-2l-1,-1v1h1h-4v1h-1h1v1h-3l1,1h-1h2v1h-1l-1,-1v1h-1v-1v1h-3l-1,-1h-4v-1h-1v-1h-1v-1h-9v-1h-1h1v-1h1v-1l-1,1h-1v-1v1h-3v1l1,1l-1,1l-2,1h-1l-1,1h-7v-1h-1v1h-3l-1,-1l-1,1h-1h1l1,-1v1h1h-1h4v1h1l1,1h1v-1v1h1h-1l1,1v1h-1h1v1v-1v1h2v1h-1h1v1l-1,1h-1v1l-1,-1h-6v-1h1h-2l1,1h-4v1h-5v1h-3v1h-4l-1,1h-3v1h-2v1h-3l-4,2h-2v1h-1l-1,1h-1v-1h-1v-1h-10l-1,1l-3,1l-1,1v-1l2,-2h-1l-1,1h-3v1h-2v1h-1v-1h-2l-1,1l1,-1h-2l-1,1h-1l-3,3h-1v1h-2l-1,1l-2,1l-2,2v1h1h-1h1l1,-1h1l1,1l-1,1h-1l-3,3l1,1v-1h1v1l-1,1v1h-1l-1,1h-1v-2h2v-1v1h-2l-1,1h-2l-4,4v3h-1l-2,1h-5l-2,1l-1,1h-1v1l-1,1h-1v1l-1,1h1l-1,1l-1,-1l-3,1h-1l-1,1h-1v-1v1h-1h1l-2,2v1h-1l-3,3l-2,1h-1l-1,1l-2,1l-3,1v-2l3,-5v-2l1,-1l2,-4v-1l2,-3l1,-1l3,-5l2,-1l3,-3h1l3,-1l2,-2h1l1,-1v-1h2l2,-1h4l1,-1l2,-1h1l1,-1h2l2,-2l3,-1l1,-1h1l3,-1l1,-1h2l2,-1l1,-1h2l2,-1h3v-1l2,-1v-1h1l3,-3h5v-1h-7l-1,1h-1l-2,2l1,1h-5l-6,3h-1l-1,1h-2v-1l1,-1l-1,1h-1l3,-3h1l1,-1l-2,1h-1v-1h-2l-1,1l-1,-1l-1,1h-4l-1,1h-1l-1,1h-2l-2,1l-1,1h-1l-4,2l-3,1l-1,1h-1l-1,1h2l1,1h-2l-1,1l-1,-1l-1,1h-1v-1h-2l-1,1l-2,1h-1v-1l-1,1h-4l1,-1h4v-1h-1v-1h-2l-1,1h-1v-1h1h-5v1h-2v1h-2v-1h-1l-2,1h-2l-1,-1l-2,1h-1v-1l-4,1h-4l-3,1h-1l-4,2h-1l-1,1h-2l-1,1h-1l-2,2h-1l-2,1h-2v1h-2l-1,1l-2,1h-1l-3,2h-1l-1,1l-3,1l-2,1h-1l-1,1h-1l-6,3h-1l-2,1l-1,1l1,1h2l1,-1v1h-1l-3,3h1l1,-1h1l1,-1h1l-1,1h-1v1h1h-1l-2,1h-1v1h1l1,-1h2l2,-2v1h-1l-1,1h-1v1h1v-1h1l3,-3h4v5h-1l-1,1v-1l-1,1l1,1l-1,1h-1l-1,1v1l-2,2h-1l-2,1l-3,3h-1l-3,3l-1,2h-1l-1,1v1l-1,1l-2,1v1h-1v1h-1l-4,4l-2,1h-1l-2,2l-2,1l-2,2l-3,2h-1l-1,1l-1,2h-1l-5,3v1l-7,4h-1l-4,4h-1l-1,1l-4,2v1l-2,1l-1,1l-2,1l-1,1l-3,1l-1,1l-2,1h-2l-1,1v-1h-2l2,-2v-1v1h-2v1v-1l1,-1l-1,1l-2,1l-2,2h-1v1h-1v-1l-1,1l-1,2h-2l-3,3h-1l-1,1v1h-1v1h-1l-1,2l-1,1l-2,1l-2,2h-1v1h-1l-1,1h-1v1h-2l-1,1l-2,1l-1,1v1h-1v1l-1,1h1v3l-2,3v4l-2,4v1l-2,2v1h-1v1l-1,1v1l-3,3l-1,2l-1,1h-3v1l-1,1h-1v-1l-1,1h-1v1l-1,1v-1h1h-1v1l-1,1h-1v-1h1v-1l-1,1l-1,2l-1,-1h1l-1,1h-1v1v-2l1,-1h1v-3h1v-1h1l1,-2h1l-1,-1h1l1,-1v-1h1v-2l2,-2v-1h-1l2,-2h1v1l1,-1v-2h1v-1l1,-1v-1h1v-1h-1l-1,1v-2l-2,2h-1h1v-1h-1l1,-1h1h-2l3,-3l2,-1h1v-1h-1v-1l3,-2v-1h1v-1l-1,-1l-1,1l1,-1v-1h-3v1h-1l-1,1h-1l-3,2l-2,2h-1l-2,2h-1l1,-1l2,-1l2,-2h-1v-1l1,-1h1v-1h1l6,-6v-1h-2l-1,1h-1v1h-1l-2,3h-1l-2,1l-3,3h-1l-1,1l-1,2h-2l-1,1l1,-1h-1l-4,4v1l-1,1v1h2v1h-1v1l-3,3v2l1,-1h1v-1h1l4,-4l1,1l-1,1h1v1h1v-1h1l-1,1h2l-1,1h-1v1h-1v1l-1,1v-1h-1l-2,2h-1l-1,1h-1v1h-1v1l-1,1h-1v1v-1h-1v2h-1v1h-1l-3,3l-1,2h-1l-1,2v4l-1,2l-1,1v2l-1,2l-1,1v2h-1v3l-1,1v4h-1v-1h-1v-2h-1l-1,1h-1l1,1v-1h1v6l-1,1v1h-2v1l-2,1v1l-1,1h-1l-1,1l1,-1l-1,2l1,-1l2,-1v3h1l-1,1l-2,1v1h-1h1l1,-1v1l-2,3v-1h-1v2h-1l1,1l-2,2l-1,2l-1,1v-1l-2,2v1h-1l-1,2l-1,1v1l-2,2v1l-2,2v1h-1v1v-2l-1,1v3h-1v1h-1v1h-1v1v-1h1v1l-1,1v1l-1,1v1h-2v2h-1l-1,1v1l-2,2v1h-2v1h-1l1,1l-2,2v1h-1v1h-1v1l-1,1l1,-1h-1v1h-1l-1,1v1l-1,1v1l-1,1h-1v1l-1,1l-1,-1v2h-1v-1l-1,1v1v-2l-1,1v1h-1l-1,1v-1l1,-1v-3h1h-1v1l-1,1v2l-1,2v1h-1v1h-1v-1v1l-1,2h-1v1v-1v1h-1l-1,1v1h-1v1h-1v1h-1v1h-1l1,-1l-1,1v1l-1,1v2h-1v3l-1,1v-3l1,-1v-2l1,-1v-2h1v-1h-1v1v-2h-1v1v-1v1h-1v1l-1,1v1h-1v1l-1,1l-2,4v1l-1,1v1l-1,1v1l-1,3l-1,1v1l-1,2v1l-1,2v2l-1,1v4l-1,1v3l-1,1v7h-1h1v2h-1h1l-1,1v5l-1,2v3l-1,2v4l-1,2v2l-1,1v4l-1,2v1v-1v1l-1,2v4h-1h1v-1v1h-1v3l-1,1v1l-1,1v2l-1,1l-1,2v1l-1,1v1v-1l-1,1v-1v4h-1v4h-1v-1v3l-2,4v3h-1l1,-1v-4l1,-4v-2l1,-1v-2h-1v-1l1,-1v-1h-1v1v-2l1,-1v-1h-1v-1l1,-1v-5l1,-1v-7l1,-2v-4h1h-1v3l-1,1v4l-1,2v2l-1,1v3l-1,2v3l-1,2v3l-1,1v4l-1,2v5l-1,4v3l-1,8v1l-1,1h1h-1v2h1v1l-1,2v6h-1v1v-1l1,-1v-12l1,-1v-7l1,-1v-4l1,-3v-5l1,-3v1v-2l1,-3v-4l1,-1v-3l1,-1h-1h1v-4l1,-1v-4h1v-4l1,-2v-2l1,-1v-3l1,-1v-3l1,-1v-2l1,-1v-3l1,-1v-2l1,-1v-3l1,-1v-3l1,-1v-2l1,-1v-2l1,-1v-2l1,-1v-2l1,-1v-2l1,-1v-2l1,-1v-2l1,-1v-2l1,-1v-1l1,-1v-2l1,-1v-2l1,-1v-1l1,-1v-2l1,-1v-1l1,-1v-2l1,-1v-1l1,-1v-2l1,-1v-1l1,-1v-2l1,-1v-1l1,-1v-1l1,-1v-1l1,-1v-2l1,-1v-1l1,-1v-1l1,-1v-1l1,-1v-2l1,-1v-1l1,-1v-1l1,-1v-1l2,-2v-1l1,-1v-1l1,-1v-1l1,-1v-1l1,-1v-1l1,-1v-1l1,-1v-1l1,-1v-1l1,-1v-1l1,-1v-1l2,-2v-1l1,-1v-1l1,-1v-1l2,-2v-1l1,-1v-1l2,-2v-1l1,-1v-1l2,-2v-1l1,-1v-1l1,-1v-1l1,-1h1v-1l1,-1v-1l1,-1v-1l2,-2v-1l3,-3v-1l1,-1v-1l2,-2v-1l3,-3v-1l2,-2v-1l3,-3v-1l2,-2v-1h1l1,-1v-1l1,-1v-1l4,-4v-1l2,-2v-1h1l1,-1v-1l2,-2v-1h1l1,-1v-1l2,-2v-1h1l2,-2v-1l4,-4v-1l1,-1h1l1,-1v-1l7,-7v-1l15,-15v-1h1l2,-2v-1h1l5,-5h1v-1l2,-2h1l1,-1v-1l1,-1h1l8,-8h1l4,-4h1l1,-1v-1l1,-1h1l4,-4h1l2,-2h1v-1l1,-1h1l2,-2h1v-1l1,-1h1l2,-2h1l1,-1v-1h1l1,-1h1l2,-2h1v-1l1,-1h1l2,-2h1l1,-1h1v-1l1,-1h1l1,-1h1l2,-2h1l1,-1v-1h1l1,-1h1l2,-2h1l1,-1h1l3,-3h1l1,-1h1l1,-1h1l2,-2h1l2,-2h1l2,-2h1l1,-1h1l1,-1h1l2,-2h1l1,-1h1l1,-1h1l2,-2h1l1,-1h1l1,-1h1l1,-1h1l1,-1h1l2,-2h1l1,-1h1l1,-1h1l1,-1h1l1,-1h1l1,-1h2l1,-1h1l1,-1h1l1,-1h1l1,-1h1l1,-1h1l1,-1h2l1,-1h1l2,-2h2l1,-1h1l1,-1h1l1,-1h2l1,-1h1l1,-1h2l1,-1h1l1,-1h2l1,-1h1l1,-1h2l1,-1h1l1,-1h2l1,-1h2l1,-1h2l1,-1h2l1,-1h2l1,-1h2l1,-1h2l1,-1h2l1,-1h2l1,-1h3l1,-1h2l1,-1h2l1,-1h2l1,-1h3l1,-1h4l1,-1h2l1,-1h3l1,-1h3Z"/>
<path class="sp" d="M14,382v-1l1,-1v-3l1,-1v-3l1,-1v-2l1,-1v-3l1,-1v-2l1,-1v-3l1,-1v-3l1,-1v-2l1,-1v-2l1,-1v-2l1,-1v-2l1,-1v-2l1,-1v-2l1,-1v-2l1,-1v-2l1,-1v-1l1,-1v-2l1,-1v-2l1,-1v-1l1,-1v-2l1,-1v-1l1,-1v-2l1,-1v-1l1,-1v-2l1,-1v-1l1,-1v-2l1,-1v-1l1,-1v-1l1,-1v-1l1,-1v-2l1,-1v-1l1,-1v-1l1,-1v-1l1,-1v-2l1,-1v-1l1,-1v-1l1,-1v-1l2,-2v-1l1,-1v-1l1,-1v-1l1,-1v-1l1,-1v-1l1,-1v-1l1,-1v-1l1,-1v-1l1,-1v-1l1,-1v-1l2,-2v-1l1,-1v-1l1,-1v-1l2,-2v-1l1,-1v-1l2,-2v-1l1,-1v-1l2,-2v-1l1,-1v-1l1,-1v-1l1,-1h1v-1l1,-1v-1l1,-1v-1l2,-2v-1l3,-3v-1l1,-1v-1l2,-2v-1l3,-3v-1l2,-2v-1l3,-3v-1l2,-2v-1h1l1,-1v-1l1,-1v-1l4,-4v-1l2,-2v-1h1l1,-1v-1l2,-2v-1h1l1,-1v-1l2,-2v-1h1l2,-2v-1l4,-4v-1l1,-1h1l1,-1v-1l7,-7v-1l15,-15v-1h1l2,-2v-1h1l5,-5h1v-1l2,-2h1l1,-1v-1l1,-1h1l8,-8h1l4,-4h1l1,-1v-1l1,-1h1l4,-4h1l2,-2h1v-1l1,-1h1l2,-2h1v-1l1,-1h1l2,-2h1l1,-1v-1h1l1,-1h1l2,-2h1v-1l1,-1h1l2,-2h1l1,-1h1v-1l1,-1h1l1,-1h1l2,-2h1l1,-1v-1h1l1,-1h1l2,-2h1l1,-1h1l3,-3h1l1,-1h1l1,-1h1l2,-2h1l2,-2h1l2,-2h1l1,-1h1l1,-1h1l2,-2h1l1,-1h1l1,-1h1l2,-2h1l1,-1h1l1,-1h1l1,-1h1l1,-1h1l2,-2h1l1,-1h1l1,-1h1l1,-1h1l1,-1h1l1,-1h2l1,-1h1l1,-1h1l1,-1h1l1,-1h1l1,-1h1l1,-1h2l1,-1h1l2,-2h2l1,-1h1l1,-1h1l1,-1h2l1,-1h1l1,-1h2l1,-1h1l1,-1h2l1,-1h1l1,-1h2l1,-1h1l1,-1h2l1,-1h2l1,-1h2l1,-1h2l1,-1h2l1,-1h2l1,-1h2l1,-1h2l1,-1h2l1,-1h3l1,-1h2l1,-1h2l1,-1h2l1,-1h3l1,-1h4l1,-1h2l1,-1h3l1,-1h3l1,-1"/>
<path class="sl" d="M11,408v1v-2ZM12,422v-1ZM15,407v-1ZM38,320v-1h1ZM41,316l-1,1ZM40,318v1h-1ZM38,320l1,-1v1ZM326,610l1,3h1v-2h1v2h1v3h-2v1h-1v-1l-1,-1v-2l-1,-3v-2l1,1ZM333,621l2,1v1h1v1h-1l-1,1h-1v-3l-1,-1h-1v-2h1ZM341,626l1,1h-3v-2h1v1ZM340,623h-2l-1,-1l1,-1h1v1h1ZM342,633l1,1v1h-2v-1h-1l1,-1ZM336,615v1h-1l-1,-1l1,-1h2ZM339,620v-1l-1,-2v-1l1,3ZM338,614v1v-1l-1,-2v-1l1,2ZM331,618l-1,-1h1ZM333,605l-1,1l-1,-1v-1h1ZM332,602h-1v-2l1,1ZM356,655h-1v-1v1ZM352,649v1h-2v-2h1v1ZM350,645l-3,-1v-2h1l2,2ZM124,405v1v-2l1,1ZM209,420v-1ZM256,424h-1v-1h-1l1,-1l1,1ZM345,431v-1l1,-1l-1,1ZM339,418h-1ZM361,420h1l1,1l-1,-1ZM357,419l1,1l2,-1v1h-2ZM183,325l-1,1v-1ZM172,364v-1ZM182,331h-1l1,-1ZM177,355v1h-1l1,-1v-1ZM176,357v-1ZM168,371h-1v-1l2,-2v1l-1,1ZM512,605v-1h1ZM675,75h-1v-1h1l1,1ZM676,76h-1v-1h1v1h1ZM662,67h-1ZM613,57h-1ZM617,59h-1ZM602,58h-1h2ZM585,57v-1h1ZM559,78h-1ZM564,80h-1v-1ZM563,79h-1ZM531,86v-1ZM479,95h-1ZM521,35h1ZM503,44h2l1,-1h1l1,1h2v1h1l-1,1l-1,-1h-2l-2,-1h-1v1h-2v-1h-1h1v-1ZM526,56h2v1h1v1h-6l-1,-1h1v-1h2ZM588,67h2v1h2l-1,1h-2v1h-2l-1,1h1h-1v1h-1l1,-1h-1v-1h-1v1h-1l-2,-2v-1h3l1,1h1h-1v-1h-1h1h-1v-1h1v1h1v-1h1h-1h1ZM544,80v1h2h-6v1h-3v-1h1v-1h2l2,-1h1v1ZM678,79v2l-1,-1h-1v-1h1ZM687,82h1v1l-1,-1h-1v-1ZM680,77v1h-1v-1h-2v-2l1,1h1ZM687,80v1h-1v-1h-1v1l-1,-1v-1l-1,-1h1l1,1h1v1ZM671,73h2v1h1h-2v-1v1h1l1,1h-2v-1h-1l-1,-1h-2v-1h1ZM682,83v-1h1v1h1v1l-1,-1h-1l-1,-1h-1v-1h-2v-1h1l1,1h1v1ZM607,57h1h-2l1,-1ZM604,59v-1h1v-1h1l-1,1v1ZM602,57h1h-1h1v1v-1h-1v-1v1v-1ZM600,55h-1ZM589,70l-1,1v-1h2ZM588,64h-1ZM586,67h-1ZM583,73h1ZM585,73h1ZM557,78l1,1h-2v-1ZM550,80h-1ZM549,82l-1,1v-1h-1h1ZM561,79h-1v1v-1l1,-1ZM533,84h-2v-1h1ZM534,84v-1h-1h1ZM551,64h-1v-1h2ZM498,56h1h-2l-1,-1h1ZM510,69l-1,1v-1ZM513,90h-1ZM508,91h-1h2ZM499,93h-1v-1h1ZM512,72h1ZM478,95v1l-1,-1ZM479,94h1ZM473,96h-3l2,-1h1ZM451,95h-1v-1h1ZM455,98h-1l-2,-1l-1,-1h1l1,1h2ZM426,93h-2v-1h2ZM663,71h1l1,1l2,1v1h1v1h1v1h-1l-1,-1v-1h-2v-1h-1v-1h-2v-1v1h-1v-1h-1h1v-1h1ZM661,67h1l2,1l1,1h1v1l-1,-1h-1l-1,-1v1h2l1,1v1h1v1h-2v-1l-1,-1h-1v-1l-2,-1l-1,-1h-1v-1v1h1Z"/>
<path class="sl" d="M656,67h1l1,1h-1h1v-1l1,1h2v1h1v1h1h-2l-1,-1h-1l1,1h-1l-1,-1h-2l-1,-1h-1v-1h1ZM673,76h3v1h2l1,1h1v1h1l1,1l-2,-1h1v1h2v1h1l2,2h-2v-1h-2v-1v1l-1,-1h-1l-1,-1h1h-1v-1h-3l-1,-1h1v-1h-2v-1ZM669,73l1,1h1v1h1v1l1,1h-1l-2,-2h1h-1l-1,-1h-1v-1ZM589,65h2v1h-1v-1v1h-5l1,-1h2ZM522,87l-1,1h-1v1h-2l-1,1h-1h1v-1h1v-1h2v-1h1v-1h1l1,1ZM529,85h1v-1l1,1h-2v1h1h-1l-1,1h-3v1h-2v-1h3v-1h2l-1,-1h-1l1,-1h2ZM493,93l1,1h1h-3v-1ZM487,94h-2h2l1,-1h1h-1v-1h2v1h-1h1l-1,1ZM476,95h1v1h-3l1,-1h1v-1l1,1ZM469,96h-1h1v-1h-1h2v1ZM457,95h-2l1,-1h1ZM444,95l1,-1h1h-1v1ZM422,89l1,1h1h-1l-1,1v-1h-2h2ZM635,319v1h-1l-1,-1v-1l-1,-2v-1l-1,-2l2,-2l-1,-1v-1l5,2l2,2v1h1l1,1v1l-2,1h-2l-1,2ZM621,301l1,1h2l-1,1l-1,-1h-2v-1ZM626,304h3l1,1h1l-1,1h-1l-1,1l-1,-1v-1h-1l-1,-1v-1h1ZM616,299v1v-1l1,1v1h-2v-1v1l-1,-1v1h-1v-1l-1,-1v-1h2l1,1ZM603,296h-2v-1h-1v-1l1,-1h2v2ZM597,296v1h-1v-1l1,-1h1h-1ZM624,305h-1l-1,-1h2ZM929,251l-1,-1h1ZM927,262v-1ZM927,260v-1h-1h1l-1,-1l1,1ZM929,266v1v-1l-1,-1l-1,-2v-1l1,2ZM926,253l-1,-1v-1l1,1ZM934,275v1l-4,-8l-1,-1l2,3l2,4ZM826,210h-1ZM833,216h-1ZM839,219h-1v-1ZM828,211h-1l-1,-1h1ZM828,210h1v1h-1ZM837,215l1,1h-1l-1,-1ZM751,116v1l-1,-1l1,1h-1v-1ZM751,117h-1ZM754,119l1,1h1v1l-2,-2h-1v-1l1,1h-1ZM931,250v1ZM929,247v-1ZM930,247l-1,-1h1ZM929,247l1,1h-1ZM931,250l-1,-1v-1v1ZM934,252v-1ZM758,125h-1v-1ZM759,124h-1v-1ZM757,123v-1h-1h1ZM752,118h-1v-1ZM816,693v1ZM476,662h1l-1,1l-1,-1h-1l1,-1v1ZM486,641l-1,1v-2ZM478,663v1h-1ZM62,562v1ZM62,574l-1,-1v-2l1,-1h-1v-1v1h-1v-1l1,-1v-2h1v-1h2l1,-1h2l1,-1h1l1,1l-2,2v1h-1v1h-1v1h-1v1h-1l-1,2l-1,1ZM57,573l2,-2v2h-1ZM12,397v1ZM13,395h-1l1,-1v-1v1ZM5,431v1v-2ZM8,415v-1ZM7,416v1ZM3,443l1,-1v-1v1ZM5,431v-1ZM6,421v-1ZM5,434l-1,1v-1l1,-1ZM76,301l-1,1v1l-1,1v1l-1,1v-2l1,-1v-1h-1v-1h1v-4h1v-2h1v-2l1,-1l4,-6l1,-1v-1l1,-1v-1h1v-1l1,-1h1v-1v1l1,1l-1,1v1l-1,1v1l-2,2v1l-1,1v2l-1,1l-2,4l-1,1v1l-1,1ZM74,286v1ZM148,207h-1v-1h1v-1h1ZM145,207h-1h1v-1h1ZM137,210l1,-1v1ZM153,187v1h-1v-1h1v-1ZM139,210v1h-1v-1ZM144,208h-1ZM147,195v1v-2ZM138,208v-1h1h-1l1,-1v1ZM168,187l-1,1v-1ZM133,218l-1,1v-1l1,-1h1l1,-1h1v1h-1l-1,1Z"/>
<path class="sl" d="M267,557h-1v-1h1ZM326,583h-1l-1,-1h1v1ZM319,575h-2v1h-1v-1h1l1,-1ZM276,585h-1l-1,-1h-1l-1,-1h-1v-1h1l3,2ZM282,566v1h-1v-2l-1,-1h1ZM264,562h-2l1,-1h1ZM271,561h1l1,1h-2l-1,-1ZM252,555h1l1,2l-1,1l-1,-1h-1v-2h-2v1l-1,-1l2,-2v-1l1,1v2ZM256,560v-1ZM255,559h-1l-1,-1h1v-1h1v1ZM250,559h-1l-1,-1l1,-1v-1h1v2h-1ZM244,552l-1,-1v-2h1v1h1v1ZM244,554v1l-1,-1v-1ZM248,554h-1l-1,-1v-1h2v1ZM237,545h-1v-1h1l1,1ZM252,559v1l-1,-1h-1h1ZM268,563l2,2h3l1,1h1v1h1l1,1h-1v1h-2l-1,-1h-4l-2,-2v-3ZM268,557h1l-2,-1l-3,-1v-1h-1l-1,-1h-1l-3,-3v-1h1l3,3h2l1,1l3,2v1ZM250,547l-1,1v-1h-2l-2,-1l-1,-3l-2,-1v-1h1l1,1l2,1l1,1v1l2,1v1ZM275,555l2,2v2l1,1h1v2l1,2v1l1,1h-1l-1,-2l-1,-1l-2,-1v-1l-1,-3v-1l-1,-2ZM284,573h3v1l1,1v1h1h-4l-2,-2h-1v-1l-1,-1h-1v-1h2l1,1ZM3,486v1v-2ZM499,597l1,1v2h-3l-2,-2h1l1,-1ZM506,602h-4l-1,-1l1,-1h1l2,1h1ZM258,146h-1ZM260,145v-1ZM258,146h1ZM279,83l-1,1h-1l1,-1ZM344,64v-1h1ZM366,20h-1ZM376,18v-1ZM409,12h1l-1,1h1v-1h5l1,1h-3l-1,1h-2v-1h3v-1h-1l-1,1h-1l-1,1h-7v1h-2v-1h2v-1h4v-1h4ZM417,13h5l-1,1h-5v-1h-1h2l1,-1v1ZM474,22v-1h1l1,-1h3l-2,2h-2ZM294,86v1h-1l-1,1v1l-2,2v1l-2,2h-1v1h-1l-2,2v1h-1v1l-1,1v2l-3,3l-2,4v1l-1,1v1l-1,1v2l-1,1v-1h1v-1l-1,-1v-1h-3l-1,1h-1l-8,8v3l-1,1v1h1l-1,1v1l-1,1h-1v1l-1,1l1,-1v-1l1,-1l-1,-1h-2l-5,5v-2l1,-2l2,-1l2,-2v-1h1v-1l2,-2h1v-1l2,-2v-1l1,-1v-1l2,-1v-1l2,-1v-1h1l3,-4h1v-1l5,-5v-2h1v-1l1,-2h2v-1l2,-1l1,-1v-1l1,-1h1v-1h1v1h1v-1h1l1,-1h1v-1h1v-2h1ZM482,20h2l1,1h-7v-1h3ZM402,82h-1l-1,-1h1ZM420,28v-1l1,-1h2v-1v1h-2v1h-1ZM431,11h1ZM428,10h-1h2ZM379,22h-1ZM388,13h-1ZM400,16h-1h1v-1h1v1ZM401,16v1l-2,1h-3v-1h-1l-1,1v-1h4v-1h2ZM401,13l-1,1l1,-1h1ZM391,17l1,-1h1h-1ZM281,83h1h-1l-2,2h-1v-1h1l-2,1l1,-1h1v-1h1ZM444,25h-3v-1h5v1h-1ZM393,64l-1,1v-1h1l1,-1h1v-1h2l2,-1v2h-2l-2,1ZM396,81v1l-1,-1h-1v-2h-1h2v1h1ZM323,110l-1,1v-1l2,-1ZM335,103h-1v-1h2ZM331,105h-1l-1,1h-2l1,-1h1l4,-2v-1h1v1l-1,1h-1ZM317,113v1v-1h1ZM332,102h-1ZM309,119l-1,1v-1ZM300,124l-1,1v-1h2l1,-1ZM284,132h-1l2,-1h1l1,-1l2,-1h2l-3,1l-1,1h-1ZM278,134h-1l-1,1l-2,1h-2l-1,1l-2,1l-1,1l-2,1l2,-2h1l2,-2h1l1,-1h1v-1h2l3,-1h1h-1v1Z"/>
<path class="sl" d="M263,144h-1v-1h2ZM263,139l1,1h1h-1l-1,1h-1l-2,1l-1,1h-1l-1,2v-2l2,-1h1v-1h1ZM370,17v1h-1h1v-1h1ZM65,333v1l1,1v1h1v-1l1,-1v2l-1,1l-1,3v6h-1v2l-2,3v1l-2,2v1h-1v2l-1,1v1l-1,1v6l-1,1v4l1,1v-1h1l-1,-1h1v-1l1,-1l1,1v4l1,-1v-1h1v1h1l-2,2v1l1,1v2h-1h1v3l-1,2v-2l1,-1h-2v-1h-1l1,-1v-2l-1,-2v-1l-1,-1v4l-1,1v1v-4l-1,-1v-1h-1l-1,1v1l-1,1v-1h-1v-4l1,-1l1,-2v-2l-1,-1v4h-1v-7l1,-1v-5l1,-2v-1v1l1,1v1v-1h1v-4l1,-1v-2l1,-1v-2h1v-3l2,-4v-1l1,-1v-1l1,-1ZM34,420l-1,1l1,-1v-2l1,-1v-1l1,-2l1,-1v-1l3,-6l1,-1l1,-2v-1l1,-1v-3l1,-1v-2h1l-1,1v6l-2,2v2h-1l-1,1v1l-1,3l-1,1v1l-1,1v1l-1,1v2h-1v1ZM55,391v1l1,-1v2l1,-1v2l-1,1v1h-1v2h-1v1l-2,1v1h-1v1v-1l1,-1v-3l1,-1v-2l1,-3l-1,-1v-1h1l1,1ZM54,413h-1v-3h-1v-5h1l1,-1v-2l1,-1v-3h1v-1l1,-1l1,1v1l-1,1v2l-1,1v2l-1,2v2h-1l1,2v2h-1ZM62,393h1v-1l1,1v3l-1,2h1v1l-1,1l1,1v1h-1v1v-2l-1,2v1v-1h-1l1,-1v-6l-1,1v-2l1,-2v-1ZM67,383v5l-1,1l1,1h-1v4h1v1h-2l-1,-1v-4h1v-1h-1v-2h-1v-4h2l2,-1ZM52,376h1v1l1,-1v5l-1,2v2h-1v2l-1,-1v-10ZM65,410h1v5h-1v2h1v3l-1,2v1h1v2l-1,2v1l-1,2v1h-1v1v-2l-1,-1v-1l-1,1v1l-1,1v4l1,2l-1,2v1l-1,2v-4h-1v2h-1l-2,-2v-1l-1,-1v-1l1,-2v-4h1v-4h-1v-1h-1v-1v1l-1,1v2h-1v-2l-1,1v-2h-1v2l-2,4v2h-1v-3h1v-4l1,-1v-1l2,-2h1v-2h1v-1l1,-1v-1h1v1h1v2l-1,1v1h1v-1h1v-2l1,-1h1v-1l1,-2v-1h1v1l1,-1h1v-6l1,-1v1l1,1v1ZM55,410v-1l1,-3v-1l1,-1v-2l1,-1v-1l1,-2v-2l1,-1v-1v3l-1,1v3l-1,1v1l-1,1v1l-1,3ZM68,331v-1h1ZM68,327v1ZM72,319l1,-1ZM73,315v1ZM44,439v1l-1,1h-1l1,-1v-1ZM33,425l-1,1v-2l1,-1ZM45,402h-1v-1l1,-1v1ZM48,387v1v-1v2h-1v-3ZM47,391v1l-1,-1h1v-1ZM54,401h-1l1,-1v-1ZM60,406v1l-1,1h-2v-2h1v-1l1,-1v-1h1v1ZM40,447v1l-1,-1v1l-1,1v-1l2,-2ZM47,436l-1,-1v-1h1v-1l1,1v2ZM66,406v-2l1,1h-1ZM65,405l-1,-1v-1l1,-1v-1v3ZM51,374v1v-2ZM56,375h1v2h-1v1v-2ZM55,385l-1,2v-2h1v-2h1h-1v1ZM57,385v1l-1,-1v-1h1ZM60,381v1v-2l-1,-1v-1h1v2ZM61,384v1v-2ZM61,385v4l-1,-1v-2h-1v2l-1,1v-2l1,-2v-2h1v1ZM65,374l-1,1v-1l1,-2v-2h1v3ZM58,371v-2ZM60,363h-1v3h-1l1,-1v-2ZM60,399h1ZM63,404v1v-2ZM51,427v1ZM62,430v1l-1,-1v-1l1,-1v1ZM63,392h-1v-2h1v1ZM60,412v-1ZM67,329l-1,1v-1l1,-1ZM46,393v1h-1v-1ZM59,394v1ZM56,384v-1Z"/>
<path class="sl" d="M65,408v-2h1v1ZM64,391l-1,-1h1ZM34,422h-1l1,-1ZM56,411v1h-1ZM215,525v1v-1h-1v-1l-1,-1v-3l-1,-1l-1,-3l-1,-1h-1v-1h-2v-1l-2,-1l-1,-1l-3,-2v-1l-1,1l-1,-1h1v-1l2,2h1l1,1h1l2,2h1v1l2,2h1l5,5v5ZM208,522l1,-1h1v1h1v4l-1,1v1h-1v2l1,1l-2,2l-1,-1l-1,1h-1v1l-1,1v1h-1l-1,1h-1v1h-2v1h-6l-1,-1h-3l-2,-2h-1l-1,-1h-1v-3l1,1h2l1,-1l1,1h5l1,-1v-4h1v1l-1,1v1l1,1v1h1l1,-1h4v-2l1,-1l1,-2h2v-2l-1,-3v-1h2ZM140,566v-4l-1,-2v-7l-1,-1v-6l-1,-1v-1l1,-1v-2l-1,-2v-12l-1,-2v-16h1l3,2l1,1h1l1,1l2,1l3,1h1l4,2l2,2h3v1h1v1h1l1,1v1h1l5,5v5h1l2,1h1l4,3h4v2l1,1h1v3l-1,1h-4l-1,1l2,3v1l3,3l1,2h2l1,1v1l1,1v2l1,1h1v3l1,1h1l2,-1h1v1l1,1l-1,1l2,2h3l1,1h-1l-1,1l1,1v1h3v1h2l1,1l1,-1l-1,1h-2l1,1h1v1l-1,1h-2l-1,-1h-1l-2,-2h-5l-1,-1h-7v-1h-1v-1l-1,-1v-1l-1,-1l-2,-1l-1,-1v-2h-2v-1l-1,-2l-2,-2v-1l-1,-1v-1h-1l-1,-1h-2l-2,-1h-2v-1l-1,-1h-2v1l-1,-1v1h-3v-1l-1,-1v1l2,3h-1l1,1h-2v-1l-1,1l1,1l-1,1h-5v1h-1v-1l-1,-1l-1,1h1l1,1h2l2,1l1,1h1v3l-1,1l-2,1l-1,1h-1v-1h-3l-1,1h-1l-1,-1h-1v1h-1ZM182,536l-2,-2v-1l2,1v1ZM168,527h-1v-2h1v1ZM213,511v1h-1v-2ZM209,510h-1v-1ZM192,498h-1v-2l1,1ZM206,571h1v2h-1l-1,-1v-1h-1v-1l-1,-1h1v1l1,1ZM200,567l-2,-1v-1h2v1ZM205,560v1l-1,-1v-2h1v1ZM229,582v1h-1v-1h-1h1ZM155,560l-1,-1h1ZM176,532h-1v-1l1,-1v1ZM174,502l2,1v-1v1l-1,1h-4v-2h2ZM197,508h-2v-1l-1,-1l1,-1l2,1v1ZM201,566h2l1,1v1h-3v-1ZM216,562h1l1,1v1h-2v-1l-1,-1ZM224,583l1,1h1l-1,1h-1v-1h-2l1,-1h-1v-1ZM155,561l-1,-1h-1v-1v1h1ZM179,505h-1ZM208,509h-1v-1h1ZM205,576v1h-1v-1ZM220,519v1ZM238,542v1v-1l-1,1h-2l-3,-3l1,-1l-1,-1h-1l-1,-1v-1h-1v-2h-1l1,-2l-1,-1h1v1h2l1,2v1h1l1,2h1v1h1l1,1v1l1,1ZM228,531l-1,-1v-3h1v3ZM103,424v-2l1,-1v1l-1,1ZM157,175h-1ZM405,815h1l2,-2h1v1h1h-1v1h1v-2h2v1h-1v1l1,-1h1v1h-1v1h-1v1h1l-1,1h2v1l-2,2v1l-2,1v3l-1,1h-1l-2,2h1h-1v1h-1h2v1h2l1,1h-1v1h-1l-1,-1h-2v1l-2,-2v1h1v1h-2v1h-2v1h-1v2l1,1v1h-1v1h1l-1,1v2l-1,1v1h1v1h-2v1h-1l-2,2v1h-8v-1h-3l-2,-2v1h-4l-1,-1l1,-1l-1,1v-1h-2v-1h2v-1h1h-2v-1h1l-1,-1h1l1,1v-1h-1v-1h1l-1,-1h1v-1l1,1v-1l1,-1h1l-1,-1l3,-3h2l1,-1h1v-1l1,-1h2v-1l1,-1h1v-1h1h-1l1,-1h1v1v-1h-1h2v-1l1,-1v1v-1l1,-1v-5h1l2,-2v-4l3,-3h2h-2v2h2l1,1v2Z"/>
<path class="sl" d="M409,812l-1,1l1,-1v-1ZM374,844l1,1h-2v-1ZM375,841v1h-1ZM385,852h-1h1v1h1h-1l-1,1h-1v-3h1ZM414,780l1,1l-1,-1h-1v-1h1ZM397,770v1h1v-1l1,1h3l1,1v1h2v1h1l1,1v2h-1h1v1l2,2v2l1,1v1h-1h1l1,1v-1l1,1h2v2h1l1,-1h-1v-3h-1v-1h1l1,1h1v2l1,2l2,2h-1v1h2l4,2h5v-1l1,-1h1v-1h2l1,1h1v2l-1,2v3h-2v3h1l-1,1v-1h-4l-2,2v1l1,1h1l-1,2l-1,1v1l-2,2v2h-1v1l-1,1v1h-1l-2,2h-2v-1h-2v-1l-1,1v-1h-1h1l1,-1v-2l1,-1v-3l-3,-3h-3l-1,-1h-1l-1,-1h-1l-1,-1v-1l2,-1l1,-1h1l1,-1v-4l1,-1l-1,-1v-1h1l-2,-2v-2l-1,-1l1,1v-1h1l-1,-1h-2l-1,-1v-1l-2,-1h1l1,1v-2h-1l1,-1l-1,-1l-1,1h1l-2,-1l-1,-1l2,2v1h-1v-1l-5,-5v-1h1v-1l-1,1v1l-1,-1v-1h-1l-1,-1h1v-1l-1,-1h-1l-1,-2l-1,-1h2v1l1,2ZM403,885h-1ZM384,875v1h-1v-1v1h-1v-1h1v-1v1h1h-1ZM475,831h-1v1v-1h-1v2h1h-1v1h-1v-1h1v-1h-2v-1h2ZM475,835v-1l1,1ZM498,555h-1ZM520,645h-1v-1h1ZM601,663h-1ZM967,325v-1ZM924,308v1h-1v-1ZM915,331v-1ZM899,280v1l-1,-1ZM875,249l-3,-3v-1h-1h1l2,2v1ZM870,255v1l-1,-1v-2ZM879,249v2l-1,-1l-1,-2l1,-1v1ZM854,248l-2,-2h1v1ZM965,318l-1,-1h1ZM967,337v-1ZM904,287l-1,-1ZM859,228h-1ZM893,272l1,1l-1,-1l1,2ZM896,285l-1,-1ZM894,284v-1l-1,-1v-2l-1,-2l1,3v1h1v1ZM4,443v-1v5l-1,1v1v-1h1v-1v1v15l-1,2v20l-1,-2v-28l1,-6v-5ZM31,457h-1v-1h-4v1h-1v8l-1,1v2l-1,1v5h-1v6l-1,1v1v-1v1h-1v1h-1v1v-1h-1v-2h-2v4h-1v1l-1,1v-1h-1v2h-1v-3h-1v-4h1l2,2h-1v-1l1,-1v-6h1v-5h1l2,-2v-1l1,-1v-2l1,-2v-2l1,-2v-3h1v-1v5h1v-6l1,-1v4h1v-4l-1,-1h1l1,-1v-4h1v-2l1,-1v-3l1,-3l1,-1l1,-3v2h-1v1h1v-3h1v3l1,1v2h-1v3h1v-1h1v1h-1v1h1v-1v1h1v2l1,1h1v2h-1l-1,1v1h-1v-1l-1,1v2l1,2v1h-1v1h-2v-1v1ZM4,474v-1ZM3,453v-1ZM3,443v1v-1v1ZM32,431v1v-2ZM2,473v-1ZM14,474v-3l1,1l-1,1ZM32,457h-1v-1ZM172,196h-1l1,-1ZM200,184h-1v-1h1v-1h1v-1l1,-1h1l-2,2h1l-1,1ZM171,209h-1v-1l1,-1h1l-1,1ZM137,239h-1l1,-1h1ZM139,238l1,-1v-1l1,-1l-1,1v1ZM142,225v-1l2,-2v1l-1,1ZM147,211v1v-1l1,-1ZM148,210v-1l2,-2v1h-1v1ZM139,221h1v1h-1ZM144,223l1,-1v1ZM244,135v1v-2h1ZM223,155h1v-1ZM169,207v1h-1v-1ZM193,205v-1ZM141,220v1v-1l1,-2v2ZM144,218h-1h1v-1h1h-1ZM147,214v-1h1ZM160,210v1h-1ZM158,212h1ZM139,229v-1h1h-1ZM181,264h-1v-1h1ZM251,142h1l1,1h2l2,-1l1,-1l-3,3v2l-1,1h2v-1h1h-1v1h-1v1h-2l-1,1h-4l-2,1h-1l-2,1l-1,2h-1v1h-1v1h-2l-3,-3h-2l-2,2l-1,-1v-1h-1v1h-1v1h-1v1h1l1,1v1h-3l-1,1v1h-1l-1,1v-1l1,-1v-1l1,-1v-2l2,-2h1v-1h1l1,-1h1v-1l2,-2v1h3l1,-1v-1l1,-1h1l4,-4v-1l1,-1l1,-2v-1h1l2,-2h1v6h1v1Z"/>
<path class="sl" d="M152,214l1,1l1,-1v1l-2,2h1v2l-3,3v1l-1,1h-1v1l-1,1v1l-3,3h-1v2l-2,1h-1h1v-1h1v-3h1v-1l-2,2v2h-2v-1l2,-2v-2h1v-2h2v-1l2,-2v-1l1,-1v-2h-1v2h-1h1v1h-2l-1,1v-2h1v-1v1h1v-2l-1,-1h2v-1h1l1,-1h1v-1h1v-1l2,-1v1ZM168,209h1l-1,2v1l-2,2h-1l-1,1v1h-1v-1h-1l-2,1l-2,2h-1v2h-2l1,-1h-1v-1h1v-2l1,-1h-1v1h-1l1,-1h1l1,-1h1v-1l1,-1v-1h1l1,1v-1h2l1,-1v-1h2v-1ZM228,160l1,-1l-2,2l-1,2v1h-1v1h1v1l-1,2v2h-1v1l-3,3v1h-1l-3,3v1h-2l-3,3v2l-1,1l-2,3v1h-1l-3,3v1h-1v2l-1,2h1l-2,1l-2,2v1h-1l-1,1h-1l-1,1h-1h1v-1l1,-1v-1h1l1,-1v-1h-1v1h-1l-1,1v2h-1v-1h-2v1l-1,1v1l-1,1h-1v1v-2l1,-1v-1h-1v1h-1v1h-1l-1,1v1h-2l-1,-1l-1,1h-2l2,-1h-1v-1v1h-1l1,-1v-1h-1l-1,2l-1,1l1,1v1h-1l-1,1h-2v1l-4,4h-2v-3l1,-2l1,-1h1v-1h1v-1h-2v-1h-1v1h-2l-1,1h-1v1h-3v1h-3v1v-1h-1l-2,2v1l-1,1v-1l-1,-1h-1v1h-2l1,-2v-1h2l2,-2h1l2,-2h1v-1l2,-1l2,-2h1l1,-1h1v1l1,-1h3l1,-1h2l2,-1v1h-1v1h2l1,-1h1l1,-1v-1l2,-2v-1h1l4,-4l1,-2l1,-1h1l1,-1h1l-2,1v1h-1v1l-1,1v1h1l1,-1h1l2,-1l1,-1h1l2,-2h1v-1h1l1,-1v-1l3,-1l2,-2v-1h1l1,-1v-1h1l3,-3v-1h1v-1l1,-1v-1h1v-1h-1v1v-1h1l1,-1v-1h1v-2l1,-1h1l1,-1h1v-1l1,-1h1l-1,2h1v-1l1,1l2,-2v-1v1h-2v-1l1,-1h1ZM93,285l-1,1v-1l1,-1ZM91,287h-1v-1h1ZM98,283h-1l1,-1ZM115,267h-1v1l-1,1h-1v1l-1,1l1,-1v-1l1,-1v-1h1l2,-2v1h-1ZM121,259v-1l1,-1v1ZM125,255h-1v-1h1l2,-2v1h-1v1h-1ZM124,256v-1ZM189,216v1ZM0,491v1Z"/>
<path class="sp" d="M0,495v-4"/>
<path class="sl" d="M0,515v-1ZM32,569v2h-2v-1h1v-1l-1,-2l1,-1v-1l1,1v1ZM28,565h1v6h-1v-2l-1,-1v-1h-1v-2h1v-1h1ZM5,512l1,1v6h1v5l-1,-1v-4h-1v-3l-1,-1v-1h1v-3ZM50,531v2h-1v4h1v2h-1v2h-1v-3h1v-8ZM48,538v1l-1,-1v1v-6l1,-1v5ZM9,464v1v-4l1,-1v3ZM9,523v1l-1,-1v1v-5h1v2ZM104,494h3v1l2,2v1h-3v-3l-1,1v-1h-1ZM104,502h4l1,1h3l-1,1h-3l-1,-1h-2ZM81,489l1,1h1v2h-2v-1l-1,-1v2h1v1h-1v-1v1l-2,-2v-1h2ZM70,472h-1v-2l1,-2l1,-1v5ZM69,505h-4v-1l1,-1v-1h1l2,2ZM60,512l-1,-2v-2h1v3ZM60,506h1v1h-2l-2,1v-1h1ZM55,506h2v1h-1v1h-2v1h-1v-4h1ZM87,559h-1v-5h1v-2h1l-1,-1h1v6l-1,1ZM67,557v1h-1v2h-2v-1l-1,1v-3l1,1l2,-2v1ZM58,562h2l1,1l-1,1l-2,1v-2ZM82,501h-1v-1h-1v-2l1,-1h1v3ZM2,459v1l-1,1v23l1,2v8l1,1v4l-1,1v3l1,2v4l1,1v8h1v1l1,3v12l1,3v11l-1,-1v-1v1l-1,-1v-4l-1,-2v-3l-1,-2v-2l-1,-2v-8l-1,-1v-16l-1,-2v-25l1,-1v-16l1,-1v-1Z"/>
<path class="sp" d="M0,480v-1l1,-1v-16l1,-1v-2"/>
<path class="sl" d="M52,567h-1v1h-1l-1,1h-2v1h-1l-1,-1h-2l-1,1v-5h1v-1h1v1h2v1l1,1l1,-1h1v-1v1l1,1h1v-3h1v-1h-1v-1h1v4ZM43,574h1v2h1l1,1v1l1,1v2h-1v1l-2,-2v-1h-1v-1h-1l-2,-2v-1l1,-1h2v-1ZM36,565l1,1v-1h1v1v-1h1v3h1v1h-1v1h-2v-1v1l-2,2h-1v1v-1h-1v-6l1,1h1v1l1,1v-1h1l-2,-2v-2h1ZM55,482l-1,2v1l-1,1v1l-1,1l-2,1h-1l-1,-1v-1h-1l-2,1h-6l-1,1v1l-1,1v7l1,2l1,1v3h2v-2l1,-2v-1h1v1h1v-1h1v-1h2v-1h2v3l-1,-1l-1,1v1l-1,1v2l-1,1v1l-1,1h-1v2h-1v-1v2l1,1v1h1v3l2,2v7l1,1v2h1v2l1,1h-2l-1,1v3h-2v-6l-1,-1v-1l-2,-3v-8h-1v1h-1v9h1l-1,1v2l1,3v8l1,1v1h-2v1h-1l-1,-1v-13l-1,-2v-3h-1v1l-1,-1v-7l1,-1v-11l1,-3v-2l1,1v-1l-1,-2v-4h1v-1l-1,-1l1,-2v-3h1v-1h1v-1h1v-3h2v2h1l1,-1v1h2v1h2v-1h1l2,1l2,-2v-1l1,-1v-1l1,-1v-2h1v5ZM10,549v2h1l1,1v3l1,1v-1v1h1v-1v1h2v-4l1,2v-1h1v1h1v1h1v2l1,1v3h1v1h2v-1l1,1v1l1,1v5l1,1v1v-1h-1v-1h-1l-2,-2l-1,1h-3v-1h-2l-1,-3l-2,-1h-1v1h-1v-2h-1l-1,-1v-3l-1,-1h-1v-8h1v1v-1ZM11,478v7h1v3h1v-2h1v1l1,-1v1v-2h1v-4h2v2h1v1v-1h1v-1h1v-1v1v-1l1,-1v-6h1v-5l1,-1v-2l1,-1v-8h1v-1h4v1h1h-1v1l1,1v3l-1,-1v1h-1l1,2v5h1v6l-1,1h1v3l1,2h1v2l1,1v1l-1,1h-2v-1v1h-1v1l-1,3v9l1,1h-1v2h-1v2h-1v-1v5l-1,1v1h1l-1,2v1h1v3h-1h1v3l-1,1v-1v6l-2,3l-1,3v-1l-1,-3v-3h-1v-1v1v-1v1l-1,1v-3h-1v1l-1,-3v4l-1,1v-1l-1,1v1v-5h-1v-1v1h-1v1v-1h-1v1v-1v1h-1v-9l-1,-1v-1l1,-1v-1l-1,-1v-4h-1v-10l-1,-1v-5l1,-2v-7ZM67,483l1,-1v-2h1v-2l1,-1v-1h1v5h-1l-1,1v2h1l1,1v2h1v1l-2,-1h-1v-1h-1l-1,1v3l1,2v2l1,2v1l1,1h-1v-1l-1,-1l-1,-2v-2h-1l1,-1l-1,-1v-1l1,-1l-1,-1v-5l-1,-2v-1l1,-2v-3l2,-2v-1v8l-2,2v1h1ZM76,515h1l1,1l1,-1l1,2h1v2l1,1v3l-1,-1l-2,-1l-2,-2h-2v1v-1h-2v-1h-1v2h-2v-2h-1v2l-1,1v-3l1,-2v-1h3l1,-1v1h1l1,-1h1ZM64,517v1h1v4l-2,2v-1h-1l-1,-1v-1h-1v-3h1l1,-1h1ZM60,569v1h1v-1v1h1l-1,1v2l1,1h-1v3l-1,1v2h-1l-1,1h-1v-8h2v-2l1,-1ZM102,538v1h1l-1,1l1,1v2h-1v1l-2,-2v-4l1,-1v-1h1v1ZM102,544v2h-1v2l-1,1v-6l-1,-1h1v1h1v1ZM125,559l-1,1h-3l-1,1v-2l1,-3l1,-2v-1l2,-2h2v1l1,1v3l-1,1ZM136,509v16l1,2v12l1,2v2l-1,1v1l1,1v6l1,1v7l1,2v4l-3,-3v-1l-4,-4l1,-1v-1l-1,1h-1l-1,1h-2v-1l-2,2v-5h1v-1h-1v-1l-2,-2h2l-1,-1h-1l-1,-1v-1h2l-1,-1v-1l-2,-2v-1l-1,-1v-3h-1v-1h1h-2v-2l-4,-4h-1l-1,-1v1v-1h-2l-2,-2h-1l-1,-1h-4l-3,-3v-1l1,-1h-1v1h-1l-1,-1v1v-1h-1v-1v1h-1v-1l-1,-1v-5l-1,1v4l-1,1v3h-2v-1l-1,-1v-1l1,-1l-1,-2v-1l-2,-2h-1v-1h-1v-1l1,-1h1l1,1h1v-1l1,-2h2l1,1l1,-1v-3l-1,1h-7l-1,-1v-1l-1,-2v-1l-1,-1l-2,-1v1h-1v-2l1,-1v-3h1l2,-1v-1h1v-1l1,-1h3l3,3h3v3l1,1v3h-1v2l1,2v2l1,3v2l1,-1l-1,-1l1,-1v2l1,2h1v2l1,1h2v-1h1l1,-2v-2h1l1,-2v-2h1l1,-1h1l2,-2l-1,-1l4,-4h1v1h1l3,2l1,1h1l1,1h1l1,1l2,1h2v1h3v1Z"/>
<path class="sl" d="M127,560h-2v-1h1v-1ZM1,481v1v-2ZM2,490v-1ZM2,486v1v-2ZM2,492v-1ZM2,491v-2ZM2,493v-1ZM2,492v-1l1,1ZM3,488v1ZM4,487v3h-1v-3ZM4,499v1v-1l-1,1v-2h1ZM3,501h1v1h-1v1v-1ZM3,501h-1l1,-1ZM11,506v1h-1v-2h1ZM23,556v1l-1,1h-1v-3l2,-1l1,1ZM102,498h-1v-1h1ZM65,495h-1v-2h1v1ZM66,493v3h1v2l-1,-1h-1l1,-1h-1v-3l1,1ZM93,540v-2l1,-3v2l-1,2ZM93,540l-1,1v-3l1,1ZM70,522v1h-1v-1v1l-1,-1l1,-1h1ZM64,455v1l-1,-1l1,-1v-1v1ZM59,461h-1v-2l1,1ZM85,562v-1l1,-1h1l-1,1ZM80,559v1l-1,-1v-2l1,1ZM71,561h2l-1,1v-1ZM79,504v3h-2l-1,-1l1,-1h1ZM4,546v-1ZM1,527v1v-2ZM1,523v1v-3ZM1,520v-1ZM0,504v1v-2ZM46,539v1l-1,-1v-3h1v1ZM48,502h1l-1,1l1,1v-2h1v2l-1,1v-1v1l-1,1v-1h-1v-3ZM43,496h1h-1v1ZM42,547v1l-1,-1v-3ZM27,555h-1v-1h1ZM27,527l-1,2v-7h1v4ZM56,586h-1v-1l1,-1v-2l1,1v1l-1,1ZM57,564v2l-1,-1v-1h1v-1ZM56,563l-1,1v2h-2l1,-1v-1h1v-1ZM54,564v1h-1l-1,-1h1v-1h1ZM103,545h-1l1,-1ZM2,489v-1ZM3,491v-1ZM3,491v-1ZM4,497l-1,-1ZM6,470v-1ZM5,472v-1h1v1ZM10,471v-1ZM10,510l-1,1v-1ZM8,522v-1ZM7,523v-1ZM25,556v1h-1v-1ZM19,546v-1ZM8,555h-1v-1ZM50,506v-1ZM50,527l-1,1v-2ZM51,508v1ZM48,507v1ZM41,569h-1v-3h1v2ZM39,565v-1ZM30,570v1l-1,-1v-1v1ZM31,457h1v1h-1ZM31,465h-1v-2h1v1ZM54,543v1ZM52,537v1ZM43,554v-1ZM34,566v-2h1v1ZM27,524v1v-2ZM65,483v1ZM99,507v-1ZM95,526h1h-1l-1,-1v-1l1,1ZM81,496v1h-1v-1ZM80,494h-1v-1h1ZM75,491h-1v-2ZM65,490v1v-2ZM65,485v-1ZM65,497h-1v-1h1ZM72,521h-1v-1ZM71,521l-1,1ZM63,457v-1ZM64,458v-1ZM57,468v-2l1,1h-1ZM90,552h-1v-1h-1h1ZM74,552v1v-2ZM69,557v-1ZM56,581v-1h1h-1ZM51,584v-1h1ZM103,544v-1h1ZM103,547v-1ZM67,519h-1ZM53,566h-1l1,-1ZM978,358h1h-1v-1ZM979,357v1v-1h-1ZM466,596v-1h1v1ZM451,605h-1l-1,-1h2ZM670,626h-1v-1h1ZM682,633h-1ZM670,627h-1v-1h1ZM685,635h1v1h-1v-1h-2v-2h2v1ZM770,568h1v1h-2ZM769,570v1ZM772,575h-1v-1h1ZM763,561h-1l-1,-1h2ZM762,565v1v-1h1ZM748,637v-1h1h-1ZM766,561h1ZM748,642l-1,-1ZM747,640v-1h-1h1ZM778,644h-1v-1h1ZM774,642l-1,-1ZM759,663v-1ZM738,622v-1ZM731,626v1l-1,-1ZM730,626l-1,1v-1ZM719,620v-1ZM716,624l-1,-1v-1v1h1ZM312,656h2l1,1l4,2l6,6h1l1,1h1l2,1l3,3h1l2,2v1h-2l-2,-1h-1l-1,-1h-1v-1l-2,-1h-1v-1h-1l-2,-1h-1v-1l-2,-1h-1l-1,-1l-1,-2l-1,-1h-1l-1,-1v-1l-2,-1v-2h-1v-1Z"/>
<path class="sl" d="M340,675h-1v-1ZM280,649l-1,-1v-1l1,1ZM342,665h1v2h-1v-1l-1,-1ZM330,659v1v-3h1v2ZM337,663h-1l-2,-2h1v-1h-1l1,-1h1v2h1l1,1v1ZM435,620l-1,2h-1v1h-1l-1,1v1l1,-1h2v-1v2h-1l-1,1h-2l-1,-1h-1l-1,1v1h-3v-1h-1v-2l1,1l1,-1h1v-1h1l1,-1h2l1,-1h3ZM421,631h1v1l1,1h1v2l1,2h-4v1h-4l-1,-1h-2l-1,-1v-1l1,-1v-1l2,-2h2l2,-1h1ZM435,627v-1l1,-1h1l-1,1ZM435,627h-1l1,-1ZM424,644l-2,1v-1l-2,2l-1,-1h2v-1h2ZM444,636h-1v-1h1ZM446,638h-1v-1h1ZM450,635h-1ZM444,630h-1l1,-1h-1h1ZM448,646l-1,-1h1ZM412,629v-1h1ZM430,631v-1h1ZM430,637l-1,-1l1,-1v1ZM426,634h-1v-1h1ZM436,623l-1,1v-1ZM435,624v-1ZM410,589h-1ZM995,504v-1ZM996,505v1v-2ZM994,501h-1v-2l1,1ZM995,509v-1ZM994,497v9h-1v-2l1,-1v-6h-1v-1h1ZM995,500h-1v-2l1,1ZM962,309v1h1v2l1,1v1v-1h-1h1h-1v-1l-1,-2v-2l-1,-1l-1,-2l1,1v1l1,1Z"/>
<path class="sp" d="M960,305l1,1v1l1,1v1"/>
<path class="sl" d="M965,316v1Z"/>
<path class="sp" d="M965,316v1"/>
<path class="sl" d="M74,287h-1v-1h1ZM111,232h-1v-2h1l-1,1ZM106,243v1v-1h-1l1,-1ZM104,246v-1h1h-1ZM106,244v-1ZM81,279v-1h1v-1v1ZM45,316v1h-1ZM95,258l1,-1ZM56,301v1v-1h1ZM51,311v-1h1h-1ZM51,311h-1h1v-1ZM42,325v3h-1v1l-1,2v1h-1v1l-1,2v1h-1v2h-1v1l-1,1v-1l-1,-1l1,-2v-1l1,-3l1,-1v-1l1,-1v-1l1,-1v-1h1v-1v1l1,-1h1v-1ZM54,306h1ZM56,304l1,-1v2h-1ZM56,306v-1ZM55,306l1,-1v1ZM896,720v-1v1h1ZM687,86v1l1,-1v1h1l1,1h-1v1l1,-1v-1h-1h1v-1l1,1v1l2,2v1h-3v-1h-1v-1h-1l-1,-1h-1v-1h-1v-1h1ZM694,91h1l1,1v1l-1,-1v1h2l2,2h1v1h1h-1l-1,-1h-1l-1,-1l-2,-1h-1v-1h-1h-1v-1h-1h2ZM724,105l3,1h4l1,1h1l2,2h1l1,1h1v1h1l1,1h1l1,1h2l2,2h1l2,2h1v1h-1h1h-2l-1,-1h-2l-1,-1h-2l-1,-1v-2h-1h1v1h-4v-1h-1v-1v1l-1,-1h-1l-1,-1v1l-1,-1l1,-1h-2l-1,-1h-2l-1,-1h-1h1h-1l-1,-1l-1,1v-1h-1v-1h-1h2l-1,-1h-1h1l-1,1l-1,-1h-1l-1,-1h2ZM587,8h1v1h1h-1h1h-3v-1ZM591,9h1l1,1h-1h1h-3v-1ZM591,10h1v1h4v1h1h-2l-1,-1h-1h1v1h1h-1h2l1,1h-1l-1,-1h-5v-1h1h-2v-1h-1h2ZM608,13h2v1h1h-1v-1h1v1h1h-1v-1h-1h2v1h3v1h1h-1h1h-1h1v1h-4v-1h-1h1v-1h-1v1l-1,-1v1h-1v-1h-1h1v1h-1v-1h-1h1v1l-1,-1h-3v-1h-4l-1,-1h1h-1h4l1,1h3l1,1h2l-2,-1h-3v-1h-1h2v1h1ZM626,20h1h-1v-1h-1h2l1,1h3v1h1v-1h-1h1h-3l-1,-1h1v1h4v1h3l2,1h2l1,1h1h-1l-2,-1h-1l-1,-1h-3l-3,-2h-1h2l1,1h3v1h3l4,2h2l1,1h2l1,1h3l1,1h2v1h1l-1,-1l1,1h3v1h3l1,1h1h-1h1h-1h1h-1l1,1h1h-1h3v1h2v1h-1v-1h-4v-1h-3l-1,-1v1h2v1h-1h1h-2v1l-2,-1v1l-1,-1h-2l-1,-1h-1l-1,-1h-6l-1,-1h-1l-2,-1h-2v-1h5l-3,-1h-7l-3,-1h-1v-1h1h-3l-1,-1h-3l-1,-1h-1v-1h-2l-1,-1h1v-1h1v1h3v1ZM609,16h-1h5v1h3l1,1h2v2h2v1h-1h2l2,1v1l-1,-1v1h-2l-2,-1h-2l-2,-1h-3l-1,-1h-1v-1h-2v-1h-2v-1h-2l-1,-1h-3v-1h5l1,1h2ZM603,11h1ZM627,16v1h1h-1l-1,-1h-3v-1h-1h1l1,1h2ZM632,18l2,1h3v1h3v1h1h-1h4v1v-1v1h3v1h3l1,1h1h-1h1l1,1h1h-2l-1,-1h-2l-1,-1h-3v-1h-3l-2,-1h-2v-1h-1h1l1,1h1l-1,-1l1,1h-1v-1h-3l-1,-1h-1h1h-3v-1l1,1v-1ZM722,52h-1v-1h-2v-1l1,1h1Z"/>
<path class="sp" d="M719,50l1,1h1l1,1"/>
<path class="sl" d="M613,13h1l1,1h4v1h3l1,1h1h-1h1h-1h1h-2l-1,-1h-3v-1v1l-1,-1v1v-1h-3l-1,-1h-1h1l2,1h1h-2v-1v1v-1h-2ZM586,8h5v1h5v1h1l-1,-1h-6v-1h-1h1h-5ZM594,9h-1h2ZM590,8h1h-2ZM587,8l-2,-1h-1h2ZM583,7h-1ZM580,7v-1h-1h1l1,1Z"/>
<path class="sp" d="M596,9v0M593,9h2M588,8h2M584,7h2l1,1M581,7h2M578,6h2l1,1"/>
<path class="sl" d="M631,18l-1,-1h-1h1h-2l-1,-1h-3l-1,-1h-3l-1,-1h-3l-1,-1h-4v-1h-1l1,1v-1h-1h1v1h4l1,1h3l1,1h3l1,1h3l1,1h2Z"/>
<path class="sp" d="M614,13h1l1,1h3l1,1h3l1,1h3l1,1h2l1,1"/>
<path class="sl" d="M596,9h1v1h5v1l-1,-1h-4l-1,-1h-1ZM634,18h1v1h3v1h3l1,1h3v1h1h-1h2l1,1h2l1,1v-1h-3l-4,-2h-3v-1h-3l-1,-1h-1h1h-3ZM668,30h2l1,1h1l1,1h3v1h1h-2l-1,-1h-1h1h-3v-1h-2v-1h-1h1h-2l-1,-1l1,1ZM666,28h-2l-1,-1h-1h1l1,1h1ZM659,26h-1v-1h-3l-1,-1h-2l-1,-1h-2l-1,-1h-1h1l1,1h2l1,1h2l1,1h2l1,1Z"/>
<path class="sp" d="M661,27h2l1,1h2M647,22h1l1,1h2l1,1h2l1,1h2l1,1h1"/>
<path class="sl" d="M603,11h-3l-1,-1h-1h1l1,1h2ZM583,7h1h-2ZM635,20h-2l-1,-1h-3l-1,-1h2v1h3l1,1ZM614,14h1h-2l-1,-1h-1h2ZM608,12l1,1h1h-1l-1,-1h-1ZM601,13h-3v-1l1,1h1ZM590,10l-1,-1h-1h2ZM692,85h-1v-1h1ZM703,97h-1v-1v1ZM697,87v1h-1l-1,-1v1h1h-1v-1h1ZM702,91l-2,-1h-2v-1h-1h2l1,1ZM692,83v-1v2ZM708,93l2,1v1l1,1h-1v-1h-1v-1h-2v-1h-2v-2h1l1,1ZM735,112v1v-1h-1ZM741,111h-2v-1h-1h1l1,1ZM731,111l-1,-1h-1h1h-1v-1h1l1,1ZM735,108h-1l-1,-1v-1v1h1ZM709,95h-1l-1,-1h-1v-1l2,1ZM717,100h-1v-1ZM711,95v1v-1h-1v-1h-1h1ZM705,92h-2v-1l1,1ZM705,92h-1v-1ZM748,116l-2,-1h1ZM747,115l-1,-1h-1ZM736,109l-1,-1h1ZM620,15l-1,-1h-1h1ZM642,21h-1l-1,-1l1,1ZM629,17h-1ZM633,19h1h-1v-1h-1h1ZM674,31l1,1ZM676,32h-1l-1,-1l1,1ZM732,58h-1v-1v1ZM610,13l-1,-1ZM596,10l-1,-1ZM600,10h-1h2ZM621,15h1h-1h1h-2ZM630,17h-1ZM596,13h-1v-1v1ZM598,11h-1ZM620,15h-1ZM672,32h-2v-1l1,1ZM671,31v1v-1h-1ZM659,27h-2v-1v1h1ZM670,30l1,1h1h-1l-1,-1l1,1l-1,-1h-1ZM666,30h-1ZM672,32h-1ZM670,33h-1v-1h-1h2ZM673,35l1,1h-1v-1h-1ZM667,33v1h1h-1ZM676,37h1ZM667,33h-1ZM595,26h1ZM12,400v1ZM11,405v1ZM9,406v1v-2Z"/>
<path class="sp" d="M9,406v-1"/>
<path class="sl" d="M8,413v1Z"/>
<path class="sp" d="M8,414v-1"/>
<path class="sl" d="M11,398h-1v1v-1Z"/>
<path class="sp" d="M10,400v-2"/>
<path class="sl" d="M11,397v-1ZM11,398l-1,2v-2ZM12,390v1Z"/>
<path class="sp" d="M12,391v0"/>
<path class="sl" d="M9,405v-1ZM24,451l1,1v4h-1v-4ZM24,452l-1,1v6h-1v-5l1,-1v-1l1,-1v-1v1ZM973,344v-1ZM975,349v1v-2h-1h1ZM156,590v3h1v1h1l1,2v1l1,2v2l1,1v3l1,1v1l1,2v1l1,1h1v-1h1l1,-1l5,5h1l1,1v4l2,4v1l1,2v2l3,3h1v2l2,4v3l1,2v1l1,2h1v2l1,2h1l1,1h1v1h2l1,1h2l1,2l1,1h1v1h2l2,1h1v1l2,1v1h1l-1,1v-1v1l1,2h1l1,1l1,2l1,1l1,2h1v2l2,4l1,1h1v1h1l-1,-2v-1h1v1l1,1h1l1,1h1h-1v-1h1l1,1l1,3v2l1,2l1,1v1h1l1,1h1l2,2h1l1,1h1l1,3h1l1,1h1v1l5,5v2l2,2h1v3l2,5v2l1,2l3,3v2l1,1l1,2l1,1v2l-1,1v2l1,2v8l1,1v2l1,1v5l-1,2l1,2v1l-1,1v2h-1l-1,1v5h-1l1,1v2h-1h1v1l-1,2v1l1,2v1l1,1h-1v1h1h-1v7l1,2v2l1,1v2l1,1v1l1,1h-1v1l-1,1h-6l-1,1h-1l-2,2l-1,4h-3l1,1h1v1h1v1h-1v-1h-1l-1,-1h-1v-1h-2l-1,-1h-1v-2h-1v1l-1,1l-1,-1h-1h1v-3h-2l-1,1h1v1l-1,1v1l-1,1v1h-3l-1,-1h-1l-2,-1l-1,-1l-1,1l-2,-1h-1v1l-1,-1l-2,-1h-1l-2,-1l-1,-1l-2,-1l-3,-2l-1,-1v-1h-1v-2l-3,-3l-1,-2l-1,-1l-2,-1l-2,-2h2l-2,-2v1l-2,2h-2v-5l-1,-2h-1l-3,-3v1l1,2v3h-1v1h-2l-1,-2h2v-1l-1,-2l-1,-1v-2l-1,-2v-1l1,-1l-2,-2v-2l-2,-2v-1l-1,-1l1,1v8l-1,1v1h-1v5l2,2h-2l-1,-1h-1v-1h-1l-1,-1h1l1,1l-1,-2l-1,-1v-1l-1,-1h-1l-2,-2l-1,-2h-1v-1h-2l-2,-2l-1,-2h1h-1v-1l-2,-1l-1,-1h-1v-1h-2l-3,-1h-2l-3,-2l-2,-1h-2v1h-5l-1,1h-1l-1,1l-1,2l-2,2h-5v2l-1,1v2h-1v2l1,2v4h-2l-2,1v-1h-5v1h-1v4h-1l1,2v2l-1,1l-1,-1h-3l-4,-4h-1l-2,-2l-2,-4l1,1v-1l-1,-1v-2l-3,-3v-1l-1,-1l-3,-6l-2,-3l-3,-3l-1,-2l-2,-3l-1,-1l-2,-4v-1l-1,-2l-4,-4l-2,-4l-1,-1l-2,-3v-1l-5,-7l-1,-2h-1h1v-1h-1h1v1l1,2l1,1v-1l-1,-1v-1l-1,-1l-1,-2l-1,-1v-1l1,1v1l1,1v1h1h-1v-1l1,2l1,1v-1l-1,-1v-1l-1,-1l-1,-3l-2,-2l-2,-4l-1,-1v-1l-1,-2v-1l-1,-2l-1,-1v-2l-1,-1v-3h-1v-1l-2,-4v-4l1,3v1l1,1v-2l-1,-3v-2l1,-2v-7h2v1l1,-1v-2h1v-1l1,-1v-2h2l3,-3v-11l1,-2v-1h-1v-1l-1,-2v-1l-1,-1v-4h1v-5l1,3l1,1v1l1,2l1,1v1h1l-1,-1v-2h1l-1,-1v-2h-1v-1l-1,-1v-3l1,2v-1h1l1,1v-1l1,1v-1l1,1l-1,-1h-1v-3l-1,-1v-1l-1,-1v-1h1v-2l1,1v1l1,-1l-2,-2h1v-1h1v1v-1l-1,-1v-4h1v-1l-1,-1h1v2h1v1v-5l1,1v-1h1v1v-1l1,-1h-1v-1l1,-1v1h1l1,1v1h1l1,1v1l3,3v3l1,3v-2l-1,-1h1v-2h3l1,1v1v-2l1,1v1h1v-1h-1v-1h1v-1h-1v-1l-2,-2v-1l1,-2v-5h1v-3l-1,-1l1,-1v-2h1v-1h1v-3h1v-1l1,1v1h2v-1h3v-1h1v-2l-1,-1v-1l-2,-2l-1,1l-1,-2v-1l1,1v-1h1l1,1l1,2v-1h2v2h2v1h3l2,2h1l1,-1l2,2h1v-1h1l1,-1v-1l1,-1v2l-1,1v1h1l1,-1v2l1,1h1v-2h-1v-1l1,-2l1,2l1,1h1v1l-1,4v3h-2l-1,1l1,3v6l-1,2v2l1,1v1l2,1l4,4h1l1,1h-1h1v1h2v1h1l2,1l1,1l1,2l1,1h2l1,1h1l1,1h1l1,1v1l2,2l2,1l1,1h4v-1l1,-1v-4l1,-3v-13l-2,-5v-4l-1,-1v-6l-1,-2l1,-1v-1h1v-1h-1v-1h-1v-4l1,-1v1v-10h1v-1l1,-1v2l2,1v2h1v5h1v1Z"/>
<path class="sl" d="M243,702v1v-1l-1,-1v-3l1,-1v-1l-1,-1v-1h1v2h1l-1,5ZM142,630v1h-1l-1,-1h1v-1h1v-1l1,1ZM122,607l1,1v-1v3l1,1v-1v1h-3v-4l1,-1ZM88,591h1v1h-3v-1h1l-1,-1v-2h1v1l1,1ZM88,588h1v-1l1,1v-1h1v-1v1h1v4l-2,2l-1,-2l-2,-2v-2ZM67,715l-2,-2v-2l1,2v1h1ZM188,782h1l1,-1v1h1v1l-1,-1l-1,1v1h-1l-1,-1v1h-1l-2,-1v-1l2,-1h2ZM236,799h-1v-1h1ZM236,800h-1v-1ZM206,659v-1ZM205,658v-1l1,1ZM226,685h1v1h1v1h-1l-1,-2v-1ZM220,675h-1h1l-1,-1ZM216,674v1l-1,-1v-1ZM250,716v2l-1,-2ZM249,715v-1l-1,-1h1v1ZM149,579v1v-2ZM149,575h-1v-1h1ZM148,575v-1ZM185,642v1l1,1h-1v-1h-1h1ZM118,586v1v-4l1,2ZM117,588l-1,1v-1l1,-1ZM128,624h-1v-1v1ZM126,623v-1ZM125,623h-1v-1h1ZM143,635v-1h1ZM120,607v1l-1,-1v-1h1ZM97,587v-2h-1h1v-1v2ZM70,617v1v-2ZM70,624h-1v-1ZM55,672h-1v-1ZM243,815h1l1,1h2v1h2l2,1h1v-1h1v1v-2h3v-1l1,1v-1h2l1,1v1h1v2h1v2l1,1v1h1v1h1v1l-2,-2v2l1,1v1l2,2v2h-1l-1,-1h1v-1h-2l1,1h-1v-1l-1,-1v1l1,1v1h-1l1,1h-1h1v2h-1l-1,-1h-2v1l-1,-1v-1h1h-3l-5,-5h-1l-1,-2l2,1l1,1v-1h-1l-1,-1v-1v1h-1v-1l-3,-3l-2,-1v-1l-2,-2l-1,-2h1ZM235,811l-1,-1v-1l-1,-1v-1l2,2v1h1ZM254,808l2,1l1,1h-1h1v1h-1l-2,-1v-1h-1v-1ZM264,832l1,1h-1v-1h-1ZM265,828v-1ZM264,831h-1v-1v1ZM241,814l-1,-1ZM258,812h1v1h-1v-1v1h-1l-1,-1h1ZM258,813v1l-1,-1ZM360,898v-1ZM13,588v1ZM351,726h1v1h-1ZM679,965l1,-1v1ZM614,987h1v-1v1h-3l-2,1h-3l-1,1h-4v1v-1h3l1,-1h-1v1h-2l-2,1h-2l1,-1h1h-1h1h-1l-1,1h-3l-1,1h-3l-1,1h-5l-1,1h1h-6l-1,1h-1h1h-4l-1,1h-7l-1,1h-6l-1,1h-9l-1,1h-10l-1,1h-16l-1,1h-42l-1,-1h-16l-1,-1h-11l-1,-1h-8l-1,-1h-6l-1,-1h-6l-1,-1h-6l-1,-1h-5l-1,-1h-4l-1,-1h-4l-1,-1h-4l-1,-1h-4l-1,-1h-3l-1,-1h-3l-1,-1h-5l-1,-1h-2l-1,-1h-3l-1,-1h-3l-1,-1h-3l-1,-1h-2l-1,-1h-3l-1,-1h-2l-1,-1h-2l-1,-1h-2l-1,-1h-2l-1,-1h-3l-1,-1h-2l-1,-1h-1l-1,-1h-2l-1,-1h-1l-1,-1h-2l-1,-1h-2l-1,-1h-2l-1,-1h-1l-1,-1h-2l-1,-1h-1l-1,-1h-2l-1,-1h-2l-1,-1h-1l-1,-1h-2l-1,-1h-1l-1,-1h1h-2v-1v1l-1,-1h1l1,1v-1h-2v-1l-2,-1h-1l-1,-1h1l1,1h2l2,1h3l1,1h2l-4,-2l-2,-2h3l3,1l1,1h1l2,1h2v1l1,1h1v-1h3v-1h1v1h1v-1h1l-1,-1h1v-1h1v-1h2l3,1l2,1h4l-2,-1l-2,-2h3l1,-1h3l1,1h2v-1h2v1h10l1,1h7l2,1v-1h2l1,1h1v-1l1,1h1v1l1,1h1v1v-1h1v-1h2l4,2h1l1,1h12l1,1h6v-1h-1v-1l1,1h2l2,1h1l1,1h10l3,1h2l1,1h1l1,1h1l1,1l3,1h2l-1,-1h-1v-1h1l2,1h10l2,1h3v1h3l3,1h2l1,1h1h-2v1l1,1v-1l1,1h-2l1,1v1h-5l-1,-1h-1l1,1h3v1h-3v1h-2v-1h-1l1,1l2,1h1v1h-3l-1,-1h-1l1,1h-1v1h1v1h-1h2v1h3v1h1l1,1h1l-1,1h4v1h2l1,1h1l1,1l1,-1l1,1h-2v1h-1l-2,-1h-1h1l1,1h1h-2l1,1h1v1h-1h2l-1,1h4l1,1h2l2,1h4v1h-1h7v1h8v1h14l3,1h8l-4,-1h-1h1h-3v-1h-3l-3,-1h3l2,1h15v-1h4l-1,-1h1v-1h-1h6l6,-1h-2v-1h5v-1h-3l-1,-1h-4l-1,-1h4v-1h-6v-1h1v-1h9v1h9v-1h2v1v-1h1v1h2v-1h1h-1h2v-1h-1l-1,-1l-2,1l-1,-1h-1h6l1,1l1,-1h-1h1l1,-1h7l1,-1l1,1h2v-1h10l2,-1h9l1,1h1l1,-1h7l2,1h8l1,-1h4l1,1l1,-1h1l2,-1h1v1h-2v1h-2l-2,1h-1h4l1,-1h2l1,-1h1v1h-3l-1,1h-3l-1,1h9l-1,1h4v-1h1l2,-1h1h-1l1,-1h3v-1h1l1,-1h1v1h-1h3l1,-1h-1v-1h2l1,-1h1l-1,1h-1h3v1h-1h3v1h1l1,-1h3l1,-1l-1,1h-3l-1,1h1h-1h1h-1h1l-1,1h-3v1h-1h1l1,-1h3v-1l-1,1h1l1,-1h1h-1l-2,1h-1l-1,1v-1h1l-1,1l1,-1l-1,1h-2l-1,1h-3l-1,1h-2l-1,1h-3l-1,1h-3l-1,1h-3l-1,1h-3l-1,1h-2Z"/>
<path class="sp" d="M574,995h-7M567,995l-1,1M564,996h-4l-1,1h-9l-1,1h-10l-1,1h-16l-1,1h-42l-1,-1h-16l-1,-1h-11l-1,-1h-8l-1,-1h-6l-1,-1h-6l-1,-1h-6l-1,-1h-5l-1,-1h-4l-1,-1h-4l-1,-1h-4l-1,-1h-4l-1,-1h-3l-1,-1h-3l-1,-1h-5l-1,-1h-2l-1,-1h-3l-1,-1h-3l-1,-1h-3l-1,-1h-2l-1,-1h-3l-1,-1h-2l-1,-1h-2l-1,-1h-2l-1,-1h-2l-1,-1h-3l-1,-1h-2l-1,-1h-1l-1,-1h-2l-1,-1h-1l-1,-1h-2l-1,-1h-2l-1,-1h-2l-1,-1h-1l-1,-1h-2l-1,-1h-1l-1,-1h-2l-1,-1h-2l-1,-1h-1l-1,-1h-2l-1,-1h-1l-1,-1M639,980l-1,1h-3l-1,1h-2l-1,1h-3l-1,1h-3l-1,1h-3l-1,1h-3l-1,1h-2"/>
<path class="sl" d="M654,976l1,-1Z"/>
<path class="sp" d="M655,975l-1,1"/>
<path class="sl" d="M649,973l-1,1l1,-1h1l-1,1h-1h1l1,-1h1l-2,1h-1h1h-1l-1,1h-3v-1h1h-1v-1h6ZM610,976l-1,1h-3v1h-3v-1h2v-1h4ZM603,975h1h-1h1h-1v1h-1h1v1h-3v-1h-1l1,-1h2ZM520,988h-6l-1,-1h1v-1h3l1,1h2ZM461,983l1,1l2,-1l1,1h1h-4v1v-1h-1l-1,-1ZM588,992h4l1,-1h1h-2l-1,1h-2Z"/>
<path class="sp" d="M594,991h-2l-1,1h-3"/>
<path class="sl" d="M661,973h1Z"/>
<path class="sp" d="M663,973h-2"/>
<path class="sl" d="M643,979h-1l-1,1h-1l3,-1h2v-1h1h-1l-1,1Z"/>
<path class="sp" d="M643,979h-1l-1,1h-1M646,978h-1l-1,1h-1"/>
<path class="sl" d="M643,977h2l1,-1h1h-1v1h-2ZM465,985h-2v1l-1,-1h2ZM294,955l-1,-1h-1h2ZM645,976l1,-1h1h-1v1ZM634,976h-1h2v-1ZM609,977h-1h1l1,-1h2v1h-2ZM593,978l1,-1h1v1h-1ZM511,994h-2v-1h2ZM515,991h-1ZM447,977v1v-1h-1ZM448,979v1h-1v-1ZM456,974h-1l1,-1h-1h1v1h1ZM425,955v-1h-1h1ZM418,952h1h-2ZM415,951h-1l-1,-1ZM297,957h1ZM299,957h-1v-1v1ZM300,958h1ZM293,954l-1,-1h-1h2ZM644,976h1ZM612,978v-1h1v1ZM586,977h-1ZM587,978h-1v-1h2v1ZM556,980h-1v-1h1ZM549,983h-1v-1h1l1,1ZM545,983h-1ZM545,982h1h-2ZM543,983v1h-1v-1ZM543,982h-1ZM551,981h-1ZM550,982h-1ZM541,984h-1l-1,-1h2ZM527,989h-1l-1,-1h1ZM543,983h-1v-1h1ZM517,992h-1ZM426,555v-1Z"/>
<path class="sh" d="M371,454v1h-1h1v-1h1ZM373,465h-1v-1ZM373,466h-1h1v-1ZM373,472v1l-1,1l1,-1v-1h-1ZM385,488v-2h-1h1v1ZM387,491v1ZM373,469h-1h2ZM510,508v-1ZM648,517h-1l1,-1ZM640,530h-1ZM628,465l2,1h-1l-1,-1l-2,-1h1v1l1,-1l-1,-1l1,1ZM611,447h1v1h-1v-1h-1ZM504,504l1,1h-1h1h-1Z"/>
<path class="sw" d="M223,86h-1v1h-1l-2,2h-1v1h-1l-2,2h-1l-1,1h-1l-2,2h-1h1l1,-1l-1,1l-2,1h1h-1v1h-1l-2,1v1h-1l-1,1h-1v1h-2l-2,2v-1v1h-1v1h-1l-1,1h-1v1h-1l-1,1h-1v1v-1h1v-1h2v-1h1l2,-2h1l2,-2h1l2,-2h1l1,-1v-1h2v-1h1l1,-1h1l2,-2h1v-1h1v-1h2v-1h1l1,-1h1v-1h1l1,-1h1v-1h1l1,-1h1h-1v1ZM205,98l1,-1l-1,1h-1v1h-1h1v-1ZM807,110l1,1h-1v-1v1h1v1h1h-1l-4,-4h-1v-1h-1h1v1v-1h-1l-1,-1v-1h-1l1,1l-1,-1h-1v-1h-1l-1,-1h-1v-1v1h1v1v-1h-1l-2,-2h-1l-1,-1l-2,-1l-1,-1v-1h-3v-1h-1v-1h-1v-1h-1l-1,-1h1l2,1h-1l-1,-1h-1v-1h-1l-1,-1h1v1h1l1,1v-1v1h1l1,1v1h1l1,1h1l1,1h1v1h1v1h1l2,2h1l2,2h1v1h2v1h1v1h1l1,1h1v1l1,1h1ZM794,101l-1,-1v1ZM804,108h-1h1v1ZM704,52h1h-2v-1h-2v1h2v1h1h-1h1v1l2,2v1l-1,-1v1h1v1h-6l-1,-1h-3v-1l1,1h1v-1l1,1h1v-1h-1v-1h-1h1v-1h-2v-1h-2l-1,-1h-2v-1h-1h2v1h2l1,1v-1l1,1h2v1h3v-1h-1v-1h-1v-1h4ZM704,54h-1h1v1h-1h1l1,1v-1h-1ZM663,38v-1v1h1v1h2v1h1h-3v-1h-1v1h1l1,1h1h-1h1l-1,1v1l-1,-1v-1h-1v-1h-2v1h1l1,1h-3l-2,-1h1h-1v-1h-1v-1h-2v-1l1,1h2v-1h-5l-1,-1l1,1h-5v-1h4l-1,-1h3v-1h1l1,1h1l-1,1h3v1h3l-1,-1h1ZM990,402v1v-2h-1v-4h-1v-1h1v3l1,1v1ZM786,96v1h1h-1v-1v1h-1v-1h-1l-1,-1h-1v-1h-1v-1h-1l-1,-1h1h-1l-1,-1h1v1h1v1h1l-1,-1l1,1h1v1h1v1h1v1h1ZM828,165v2l-2,-2v1v-1h-1v-1h-1v-1h-1l-1,-1v-1h-1v-1h1v1h1v1h1v1h1l-1,-1h1v1h1v1h1ZM828,166l-1,-1v-1h-1l1,1ZM848,141l3,3h1v1h1v1l1,1l-1,-1h1v1l-1,-1l2,2v1h1l2,2v1h1l2,2l1,2l1,1h1l1,1v1l1,1h1l1,1v1l4,4v1v-1h-1v-1l-1,-1h-1v-1l-8,-8v-1h-1v-1h-1v-1h-1v-1h-1v-1h-1v-1l-1,-1h-1v-1h-1v-1v1h1v1h1h-1v-1h-1v-1h-1v-1h-1v-1l-1,-1h-1l-1,-1v-1l-1,-1v1h1h-1v-1l1,1v1h1h-1v-1h-1v-1l-1,-1l1,1ZM848,141l1,1ZM850,144h1v1h1v1h1v1v-1h-1v-1h-1v-1ZM839,133h1v1h1v1h1l2,2h-1v-1h-1v-1v1h1v1v-1h-1v-1l-1,-1h-1l-1,-1l1,1l-1,-1h-1v-1h-1h1v1h1v1h1v1l-1,-1v1h1h-1v-1h-1v-1h-1h1v1h-1v-1l-2,-2l-1,-2h-1v-1h-1v-1h-1v-1l-1,-1h-1v-1l1,1l-1,-1h-1v-1h-1v-1v1h1v1h1v1h1l-2,-2h-1v-1h-1h1l1,1h1v1h1v1h1v1h1v1h1l1,1h1v1h1v1h1v1h1v1ZM837,133h1ZM838,134v-1v1h1ZM837,132v1ZM827,123h1l-1,-1ZM833,128l-1,-1ZM837,131h-1v-1v1h1v1h1v1h1l-1,-1ZM836,129h-1h1v1Z"/>
<path class="sr" d="M841,135h1l2,2M838,132l1,1"/>
<path class="sw" d="M849,142l-1,-1Z"/>
<path class="sr" d="M847,140l2,2M848,141v0"/>
<path class="sw" d="M936,281v1l1,1l1,3l1,2v2l1,3v-2h-1v-2l-1,-1v-2l-1,-1v-1l-1,-1v-1l-1,-1l1,1l-1,-1ZM746,71v1h1v1h2v1l-1,-1h-1l-1,-1h-1v-1h-1v-1v1v-1h1v1ZM729,67h-1v1h1v1h-1v-1v1h1h-1l-1,-1h-1h1l-1,-1v-2h-1h2l1,1v-1h1l1,1h4v1l-1,-1h-2l-1,1ZM819,118v1h1h-1v-1h-1v-1l-1,1h1l1,1h1v1h1v1h-1v-1v1v-1h-1v-1h-1v-1h-1v-1h-1h1h-1v-1v1v-1h-1l-1,-1h1v1h1l1,1h1v1ZM819,119l1,1ZM820,116v1h1l2,2h1h-1l-1,-1l1,1l-1,-1v1v-1h-1v-1h-1h1h-1v-1h-1v-1h-1v-1v1h1h-1v-1v1h1v1h1h-1ZM819,116h1v1h1h-1v-1ZM750,73h1v1h1v1h1l1,1h1v1h1v1h1l1,1v1h1h-1h1v1v-1h-1l-2,-2h-1l2,1h1h-1v-1h-1l-1,-1h-1v-1h-2v-1h-1v-1h-1l-2,-2h1v1h1h-1h1l1,1v-1ZM579,59h-2v1h-1l-4,1v-1h-1l3,-1h4ZM574,67v1v-1h-4v-1h3ZM807,176v1v-1h-1v-1ZM857,151l1,1l-2,-2h1ZM712,51h-1v-1h1h-1h1h-1h1l2,2h2v1h1h-1l-1,-1l1,1h1h-2v-1h-2v-1ZM713,48v1h1h-2v-1h-1h1ZM849,217v1l-3,-3h1l2,1ZM684,49h1h-3v-1h-2v-1l1,1h2v1ZM109,221l-1,1h-1v1h-1h1v-1h-1v1v-1h1l1,-1h-1l-1,1h1v-1h1l-1,1h1v-2h1v-1h1v-1h1v-1v1h-1v2ZM189,109h-1l-1,1l2,-2Z"/>
<path class="sr" d="M185,112l4,-4"/>
<path class="sw" d="M211,138l-3,3h-1l-1,1v-1h1v-1l1,-1v-1h1v-1h2ZM15,390v-4l1,-1v-1v3h-1v1h1h-1v1ZM100,200l-1,1v1v-1h1v-2h1v-1h1v-1v1h-1v1ZM744,73v1h2v1h-1h1h-2v-1ZM717,52h-1v-1v1h1l1,1h-1ZM732,63v-1h-1l-1,-1h1v1h2l2,2h1h-1h1h-1l-2,-1ZM927,246h1h-1v-1ZM188,121l2,-2h1l2,-2h1h-1v1h-1v1h-2l-1,1v1ZM105,235l-1,1v1l-1,-1h1v-2l1,-1h1v-1v2h-1v2ZM572,67v1h-1v1l-1,-1h1v-1ZM543,34h-1ZM708,61h1h-1h1h-2ZM729,63v1h1h-1h1h-1l-1,-1h-1h1h-1v-1h1v1ZM419,27h-2v-1h1ZM799,100h1ZM87,251h-1v2h-1v1v-3l1,-1v-1l1,-1v1h-1h1v1h-1v1l1,-1ZM90,244v1h-1v-1ZM89,245v1h-1v-1h1v-1ZM86,244v-1h1l-1,1v1v-1l-1,1h1ZM421,798h-1v1h-1v-2h2ZM816,144h-2v-1l1,1ZM555,23h-3l-1,-1h2ZM784,122l-1,-1l1,1h1l1,1h-2ZM846,199h-1v-1l-1,-1h-1v1l-1,-1h-1v1l-1,-1h1v-2h-1v-1l1,1v1h1v1l1,1v-1h1v1h1ZM727,69h1v1l-1,-1h-1l-1,-1h-1v-1h1v1h1ZM978,363v1v-2ZM404,20h-1ZM811,110h-1v-1l1,1v-1h-1h1ZM28,340h-1l1,-1v-1v1ZM109,223v1h-1v-1h1v-1h1v-1l-1,1v-1h1l1,-1v1h-1v1ZM537,56v1h-1v-1h-1h1ZM825,158v1h-1v-1ZM832,170v1v-1l-1,-1h1ZM640,35h2v1l-1,-1ZM832,131h1h-1h1h-1v-1ZM825,121v1h1h-1v-1v1ZM692,59h-2v-1h-1h2v1ZM90,244v-1h1v1ZM183,126h1v-1h1v-1v1l-1,1ZM393,831v1l-1,-1h1v1ZM393,19h-1ZM418,24l-1,1v-1ZM418,26h1ZM102,234v-1h1h-1ZM83,246l-1,1v1v-2ZM100,233h-1v1h-1v-1h1v-1v1v-1h1ZM792,157h1v1l-2,-2h1ZM805,170v1v-1h-1l-1,-1v-1l1,1ZM87,243v1ZM88,240h1l-1,1ZM112,211l-1,1v-1h1v-1ZM87,243v-1h1v-1v1h-1ZM85,245v1h-1v-1h1v-1ZM84,246v-1ZM817,189v1ZM645,31v-1h-1h1v1h2v1v-1h-1ZM639,34h-1l-1,-1h-1h2v1ZM640,34h1v1h-1v-1h-1ZM670,42h-2v-1h1v1h2v1h1h-2ZM793,95h-1h1v1ZM808,109h1h-1v-1h-1h1ZM789,95l-1,-1h-1v-1v1h2ZM764,86h1h-1h1v1h-1v-1h-1v-1h-1h2ZM839,136v1h1h-1v-1h-1ZM782,89v1h1v1h1h-1v-1h-1ZM793,149h-1l-1,-1h1ZM775,85v1h1h-1ZM525,38l-1,1l-1,-1h1ZM535,53h1ZM541,54v1l-1,-1ZM559,61h-1v-1ZM560,58h-1ZM556,57h1ZM559,60h1h-2l-1,-1h2ZM826,124v-1h-1h1v1v-1h-2v-1h-1v-1h-1h1v1h2v1h1v1h1ZM713,78h-2v1h-1l-1,-1v1h2v1h1l1,1h1l1,1h1h-1l-1,-1h-1l-1,-1h-1l-1,-1h-1l-1,-1h-1h1h-1l-1,-1h-1l-3,-2h1l2,2h2v1h7v1ZM771,83h-1v-1ZM808,126v-1h-1l-1,-1v1h-2v1h1v1v-1h-1v-1h-1h1v1v-1h1h-1h1v-1h1h-1h1h-1v-1l1,1h1v1h1Z"/>
<path class="sw" d="M817,127h-1v-1h-1v-1h-1v-1h-1l-1,-1v1h-1v-1v1v-1v1h1l-1,-1h1l1,1h1v1h1h-1v-1l1,1h1v1h1v1h1l1,-1v1h-1ZM663,61h-1l-1,-1h-2l-1,-1h-1l-1,-1h-1h2l1,1h1l1,1h1l1,1ZM765,114h-1v-1h-1v-1h-1v-1h-1h1l1,1v1h1ZM776,120v1h1h-1v-1h-1ZM765,121h-1l-1,-1h-1l-1,-1l2,1l1,1ZM736,67v1h1h-1l-1,-1v-1v1ZM601,49h-1ZM826,126h1h-1v-1ZM825,125h1ZM722,54h-1l-1,-1h-1h1h-1h1h-1h1l1,1h2v1v-1v1v-1h-1l1,1ZM912,248v1v-1h-1v-1v1ZM940,321v1l-1,-1h-1l-1,-1h2v1ZM987,392v1h1h-1v-2ZM89,629v4h-1v-4ZM807,112l1,1h-1v-1l-1,-1h-1l-2,-1l-1,-1v-1h-2v-1l1,1l-1,-1h-1v-1l-1,-1h-1l-1,-1h-1h1l1,1v-1h-1h1l1,1v1h1l-1,-1h-1v-1v1h1l1,1h1v1h1v1h1v1h1l1,1h1l1,1ZM796,105l-2,-2h-1v-1v1l1,1h1l-1,-1l-2,-1l-2,-2h-1v-1h-1v-1h-1l1,1h1h-1l-1,-1h-1v-1v1h1v1v-1h-2v-1h-1v-1v1h1l-1,-1h1v1h1l1,1h1l2,1v1h1v1h1v1h1v1h1l1,1v-1v1h1ZM747,79v-1h-2v-1l1,1h1l1,1h1v1h1l1,1h1v1l1,1l-1,-1h-1v-1h-2v-1l1,1h1v1v-1l-1,-1h-1v-1h-1ZM846,199h-1v-1l-1,-1h-1v1l-1,-1h-1v1l-1,-1h1v-2h-1v-1l1,1v1h1v1l1,1v-1h1v1h1ZM848,186v1l1,1v2h1v1h-1v1l-1,-1h1h-1h1v-2l-1,-1h1h-1v-1ZM758,76h1l1,1h1v1h1v1h-1h1l-1,-1h-1h1h-1v-1v1h1h-1v-1h-1v-1h-1l-1,-1h1h-1h1ZM1,479v-1ZM392,834v1h-1v-2l-1,-1h1v1ZM391,835h-1l-1,-1v-1v1h1v-1v2ZM808,126v-1h-1l-1,-1v1h-2v1h1v1v-1h-1v-1h-1h1v1v-1h1h-1h1v-1h1h-1h1h-1v-1l1,1h1v1h1ZM836,142v1h1v1l1,1h1v1l-2,-2h-1v-1h1h-1h1h-1v-1h-1v-1h-1v-1h-1h1h-1v-1h-1v-1h-1v-1h-1v-1h-1l-1,-1v-1h-1v-1h-1v-1h-1l1,1h1v1l1,1h1v1h1v1h1v1h1v1h1v1h1v1h1ZM663,61h-1l-1,-1h-2l-1,-1h-1l-1,-1h-1h2l1,1h1l1,1h1l1,1ZM765,114h-1v-1h-1v-1h-1v-1h-1h1l1,1v1h1ZM205,97h-1l-2,2h-1h1l3,-3h1l3,-3h1l1,-1h1v-1h1l2,-2h1l2,-2h1v-1h1l1,-1h1v-1h1h-1v1h-2v1h-1v1h-1l-1,1h-1v1h-1v1h-1l1,-1h1v-1h1l1,-1l-1,1l1,-1h1v-1h1v-1h2v-1h1h-1h1l1,-1l-2,2h-1l-1,1h-1l-3,3h-1v1h-1l-1,1h-1v1h-1l-2,2h-1l-2,2h-1ZM697,47h-2v-1h-1h1l1,1ZM697,47h2v1h1h-1l-1,-1ZM847,152l1,1h1v1h1v1h1h-1l-3,-3h-1v-1h-1v-1l-1,-1l1,1v1h1ZM927,270v1h1h-1v-1h-1v-2h-1h1v1ZM757,85v-1h-2v-1h-1v-1h-1v-1l3,3ZM728,61l1,1l-1,-1h-2v-1h-1h1h-1l-1,-1h1v1h1l1,1v-1h-1h1v1h1h-1ZM706,45v1h1h-1v-1h-1ZM899,200l1,1v1l1,1h1v1l1,1l-2,-2v-1h-1v-1l-3,-3ZM747,98h1v1h-1v-1l-1,-1h-1l-1,-1l-2,-1l1,1l2,1l1,1Z"/>
<path class="sw" d="M849,209v-1v1h1l1,1h-1v-1ZM790,164h1h-2ZM677,41h-2l-1,-1h1v1h2v1l1,-1v1h4v1h1h-1l-1,-1h-4ZM783,153h1v1l1,1l-1,-1h-1ZM791,149h1v1ZM276,54h2v-1h1h-1h1v-1h2v-1h1h-1h1l-1,1h-1h1h-2v1l1,-1h1l1,-1l-1,1h-1h1l-1,1h-1h1v-1h2v-1h1h-1v1h-1l-1,1h-1l-1,1v-1h1h-1h2v-1h1h-1v1h-2v1h-2v1h-2v1h-1h1h-2v1h-1h1v-1l-1,1h-1l-1,1v-1h2l1,-1v1v-1h2v-1h2ZM280,90l-1,1h-1l1,-1ZM450,41h1v-1h1v1h-3l1,-1ZM180,201v-1h1v1l-1,1l-2,1l1,-1v-1ZM637,53l1,1h1h-1l-1,-1h-1ZM575,64h-1h1h-4v-1h4ZM539,53h1ZM576,57h1l1,-1h1l-2,1h-1l-1,1v-1ZM589,57h1l1,1h1h-1l-1,-1ZM551,52h-1ZM542,54h-1ZM535,51l1,1h-1l-1,-1ZM535,47v1l-1,-1ZM909,213l1,1v1l-1,-1v-1v1ZM810,109h-1ZM804,104v1ZM692,45v-1ZM692,45h1ZM692,45h-1v-1h-1l1,1ZM691,45h-1v-1l1,1h1ZM660,29l-1,-1h1ZM685,37h1h-2ZM777,87h-1v-1ZM772,89l-1,-1h1v1h1v1v-1ZM768,90l-1,-1h-1h1l1,1h1v1ZM686,44h-2l-1,-1l1,1ZM755,82h-1ZM757,83v-1ZM715,53h1v1h1l-1,-1h-2ZM723,58l-1,-1h-1h1ZM742,70v-1v1h1ZM697,41h1h-1v-1ZM697,41h1h-1v-1v1v-1h-1h1ZM85,693l-1,-1v-2h-1h1l1,1v1ZM104,683h-1l-1,-1v-1l1,-1v-2h2l-1,1v1h1v1h1h-1v2ZM168,757l-1,-1v-2l-1,-1h-1v-1h-1v-1v1v-1h-1v-1h-1v-1h-1v-1h1l1,1h2v1l1,1l1,2l1,1v1l1,1h-1ZM174,752l1,1h-1l-1,-1h1l-1,-3h-1v-1h-1v-2l-1,-1v-1h-1l-2,-2v-1h-1v-1l1,1h1v1h1l1,1h1v1l2,2v1l2,2ZM97,740h-1v-1l-1,-1v1l-1,-1v1v-1l-1,-1v-1h1v-1h1v1v-1v2l1,1v1ZM182,746v1h-1v-1h-1v-5l1,1l1,3ZM165,734v1h-2v-2l1,-1h1v1ZM166,732l-1,-1l-1,1l-2,-2h-1v1h1h-1l-1,-1v-1l-1,-2v-1l-1,-1v-1h-1v-1l1,-1l2,2h2v2h1v2l1,2l1,1h1Z"/>
<path class="sb" d="M993,417v2l1,2v5h1v4M991,405v1v-2h-1v-1v1v-1M983,370v4h1v5h1l-1,-1v-1v4l1,2v3M979,363v5l1,1v4M978,361h-1v-2l-2,-6l-1,-2v-2l-1,-2v-2M981,379v-5h-1v-1h1v2l1,1v2h1v-1v2l1,1v2M972,340h-1l1,1v3h1h-1v-1v1l1,1h-2v-1h-1l1,2v1l1,2h-1h1v2l1,1v1l1,1v2h1v3h-1v3l1,1v2l1,2v4h1M934,277l-1,-1h-1l-1,-1v-1h-1l-2,-2v-1l-3,-3v-2h-1v-2h-1v-1l-4,-4v-1h-1v-2l-3,-3v-1l-3,-3l-1,-2h-1v-1h-2l-1,-1v3l1,1v3l-8,-8v-1l-2,-3l-6,-6l-2,-1l-2,-2v-1h-6l1,1v1l1,1h-4l-1,-1h-5l-4,-2l-3,-1l-2,-2l-5,-2l-5,-2v-2h-5l-1,1h-3M844,137l-2,-2h-1v-1h-1v-1l-1,-1h-1v-1h-1v-1h-1l-2,-2h-1v-1h-1v-1h-1l1,1h-1v-1h-2v-1h-1l-1,-1v1h1h-1v-1h-1v-1h-2l-1,-1h-1v-1h-1l-2,-2h-1v-1h-1l1,1l2,1h-4v-1h-8l-1,-1h-9l-1,-1h-12l-2,-1h-15l-2,-1h-17M590,26l1,1h2l4,4l2,1l1,1h1l1,1l2,1l4,4l2,1l4,4l2,1l2,2l1,2l2,2l2,1l4,4l1,2h8v1h2v1h2l1,1h2l1,1h1l1,1h1v1v-1h2v-1h-1h1v-1h-1h2v-1l1,1h2v1h2v1h3v1h1l1,1h1l1,1h2v1h1l2,1h1v1h1l1,1h1l2,2h1l1,1h1l1,1h1v1h3l1,1h2l1,1h2l1,1M23,370l1,-1v-3h1v-5l1,-1v-4l1,-1h-1v1v-2h1v-3l1,-1v-6h1v-4h1v-5l1,-1v-3h1v-1l1,-1v-1l1,-1v-3h1v-3h1v-2l-1,1v1v-1l1,-2v-2l1,-1v-2h1l-1,1v-1h1v-3l1,-1v-1M20,374h-1v2l1,-1v1v-2h1v-2l1,-1v1l1,-1v-1v2l-1,1v3l-1,1v4l-1,1v3l-1,1v4h-1v1v-1v2h-1v1l-1,1v1l-1,1v3l-1,1v2l-1,1v2h-1v2M36,315l-1,1v2l-1,1v1l-1,1v1l-1,2v1l-1,1M8,411v-2l1,-1v-3l1,-2v-4l1,-1v-4l1,-1v-4l1,-1v-3l1,-2v-2l1,-1v-3l1,-1v-2M18,368v-2l1,-2v-1l1,-1v-3l1,-1v-2M29,331h1v-3h1v-2l1,-1l-1,1h1v-1v1h-1v2l-1,1v2l-1,1h1v-1v1h-1v2l-1,1v1l-1,2v3h-1v2l-1,1v2l-1,2v1v-1l1,-1v-2l1,-1v-1v1h1v-3h1v-1v2l-1,2v4l-1,1v2l-2,4v5h-1v4l-1,1v3l-1,1v2l-1,1v2h-1v1v-1h-1v1h-1v3l-1,1v2h-1v4l-1,1v5h-1v3l-1,3M42,314v-5l1,-1v-2l1,-1v-1h1v-1h-1h1v-1h-1v1v-2h1v-1l-1,1v1h-1v2h-1v1v-1v1l-1,1v-1v1v-1v1h-1v1v-1v1l-1,1v1h-1v2l-1,1v1l-1,2v1l-1,1v1v-1l1,-1v-1l-1,1l1,-1v-2l1,-1v-1v1v-2l1,-1v-1h1v-2l1,-1v-2l1,-1v-1l1,-1v-1M44,296v-1v1M157,172l1,-1h1l2,-2h1v-1h2l2,-2h1l2,-2h1v-1h1l1,-1v-1h1v-1h1v2h3v-1h1v-2h1v-1h3l1,-1h1v-1h1v-1h1v1v-1h1l1,-1v-1h1l1,-1h1l-1,1v1M154,186l2,-2h1v-1h4v-1h1l1,-1v-1h1M195,114l-3,3l-2,1l-1,1h-1l-2,2h-1v1l-1,1h-1v1h-1l-2,2h1l1,-1h1v1l1,-1h1v-1h2l-1,1v2h-1v2h-1v1h-1v1h-1v1h-2v-1v1h-2l-1,1h-1h1v-1l-1,1h-1v1h-2l-2,2h-1v1l-1,1h-1v1h-1l-1,1h-2v1h-1l-1,1h-1l-2,2h-1v-1h-1v1h-1l-5,5v1h-1v1h-1v1h-1v1h-1l-1,1h-1v1h-1v1h-1v1h-1v1h-1l-1,1h-1v1h-2l-1,1h-1v1h-1l-3,3h-1v1h-1l1,-1h-1v1v-1h1v-1l2,-2v-1h1"/>
<path class="sb" d="M189,156l1,-1v-1h1v-1h1v-1h2l1,-1v-1h1l1,-1v-1l3,-3l2,-3l1,-1v-1h2v-1h1l2,-2h1v1h2v1l4,-4h1v-1h1v-1h2v-1l1,-1h1v-1h1l1,-1v-1l1,-1h1l1,-1h1v-1l1,-1h2l1,-1v-1h1v-1l2,-2h-3l-1,1h-2l-1,1h-1v1l-1,-1v1l-1,1h-5v-2h1l1,-1v-1h1v-1l1,-1h-1v-1l1,-1v-1h-1v-1h-2v-1l2,-2v-1h1v-1h1v-1h1v-1l1,-1v-1h1v-1h1v-1h1l1,-1v-1h1v-1h1v-2h1v-1h1h-1h1v-1h-1v-2h-2l-1,1h-3l-1,1h-2l-2,2h-1l-1,1h-1v1l1,-1v1l-1,1h-1l-2,2h-1l-2,2l-2,1l-1,1h-1v1h-2v1h-1v1h-1l-1,1h-1v1l-1,1h-1v1h-1l-2,1l-1,1l-2,1v-3l-1,1h-1l1,-1v-1h-1v1h-2v1h-1v1h-1l-1,1h-1v1h-2l-1,1h-1l-2,1v-1l-1,1v-1h1v-1h1v-1h1v-1l1,-1h1h-1v-1h1h-1v1h-1l-1,1h-1h1v-1h1v-1h1v-1h1l1,-1h1v-1h1v-1h1v-1h1v-1"/>
<circle class="w1" cx="373" cy="473" r="10"/>
<circle class="c1" cx="373" cy="473" r="9"/>
<circle class="w1" cx="375" cy="463" r="9"/>
<circle class="c1" cx="375" cy="463" r="8"/>
<circle class="w1" cx="394" cy="497" r="9"/>
<circle class="c1" cx="394" cy="497" r="8"/>
<circle class="w1" cx="505" cy="505" r="10"/>
<circle class="c1" cx="505" cy="505" r="9"/>
<circle class="w1" cx="405" cy="503" r="10"/>
<circle class="c1" cx="405" cy="503" r="9"/>
<circle class="w1" cx="401" cy="493" r="10"/>
<circle class="c1" cx="401" cy="493" r="9"/>
<circle class="w1" cx="387" cy="491" r="9"/>
<circle class="c1" cx="387" cy="491" r="8"/>
<circle class="w1" cx="628" cy="465" r="11"/>
<circle class="c1" cx="628" cy="465" r="10"/>
<circle class="w1" cx="640" cy="530" r="10"/>
<circle class="c1" cx="640" cy="530" r="9"/>
<circle class="w1" cx="648" cy="517" r="10"/>
<circle class="c1" cx="648" cy="517" r="9"/>
<circle class="w1" cx="371" cy="455" r="10"/>
<circle class="c1" cx="371" cy="455" r="9"/>
<circle class="w1" cx="611" cy="447" r="10"/>
<circle class="c1" cx="611" cy="447" r="9"/>
<circle class="w1" cx="671" cy="581" r="9"/>
<circle class="c1" cx="671" cy="581" r="8"/>
<circle class="w1" cx="500" cy="520" r="9"/>
<circle class="c1" cx="500" cy="520" r="8"/>
<circle class="w1" cx="480" cy="521" r="9"/>
<circle class="c1" cx="480" cy="521" r="8"/>
<circle class="w1" cx="508" cy="519" r="9"/>
<circle class="c1" cx="508" cy="519" r="8"/>
<circle class="w1" cx="343" cy="489" r="9"/>
<circle class="c1" cx="343" cy="489" r="8"/>
<circle class="w1" cx="602" cy="440" r="9"/>
<circle class="c1" cx="602" cy="440" r="8"/>
<path class="sg" d="M 250.3323 932.4153 A 249.7500 9.8330, 0, 1 1, 748.6677 932.4153"/>
<path class="sg" d="M 67.0323 749.4438 A 432.5797 17.0312, 0, 1 1, 931.9677 749.4438"/>
<path class="sg" d="M 0.0000 499.5000 A 499.5000 19.6660, 0, 1 1, 999.0000 499.5000"/>
<path class="sg" d="M 67.0323 249.5562 A 432.5797 17.0312, 0, 0 1, 931.9677 249.5562"/>
<path class="sg" d="M 250.3323 66.5847 A 249.7500 9.8330, 0, 0 1, 748.6677 66.5847"/>
<path class="sg" d="M 496.8068 0.0073 A 67.7201 499.5000, -180.30892447, 0 0, 502.1932 998.9927"/>
<path class="sg" d="M 507.5253 0.0645 A 188.6012 499.5000, -179.07940545, 0 1, 491.4747 998.9355"/>
<path class="sg" d="M 524.8224 0.6423 A 394.3871 499.5000, -177.09411287, 0 1, 474.1776 998.3577"/>
<path class="sg" d="M 637.5121 19.4449 A 494.4972 499.5000, -163.96047314, 0 1, 361.4879 979.5551"/>
<path class="sg" d="M 451.5375 2.3080 A 462.1072 499.5000, -185.51009088, 0 0, 547.4625 996.6920"/>
<path class="sg" d="M 484.2537 0.2327 A 305.8960 499.5000, -181.74911983, 0 0, 514.7463 998.7673"/>
<text x="0" y="0" class="fs" transform="translate(668,257) rotate(79)">150W</text>
<text x="0" y="0" class="ft" transform="translate(668,257) rotate(79)">150W</text>
<text x="0" y="0" class="fs" transform="translate(851,262) rotate(70)">120W</text>
<text x="0" y="0" class="ft" transform="translate(851,262) rotate(70)">120W</text>
<text x="0" y="0" class="fs" transform="translate(87,266) rotate(111)">120E</text>
<text x="0" y="0" class="ft" transform="translate(87,266) rotate(111)">120E</text>
<text x="0" y="0" class="fs" transform="translate(227,259) rotate(105)">150E</text>
<text x="0" y="0" class="ft" transform="translate(227,259) rotate(105)">150E</text>
<text x="0" y="0" class="fs" transform="translate(439,256) rotate(93)">180W</text>
<text x="0" y="0" class="ft" transform="translate(439,256) rotate(93)">180W</text>
<text x="0" y="0" class="fs" transform="translate(670,922) rotate(3)">60S</text>
<text x="0" y="0" class="ft" transform="translate(670,922) rotate(3)">60S</text>
<text x="0" y="0" class="fs" transform="translate(792,733) rotate(2)">30S</text>
<text x="0" y="0" class="ft" transform="translate(792,733) rotate(2)">30S</text>
<text x="0" y="0" class="fs" transform="translate(835,481) rotate(1)">0N</text>
<text x="0" y="0" class="ft" transform="translate(835,481) rotate(1)">0N</text>
<text x="0" y="0" class="fs" transform="translate(789,234) rotate(2)">30N</text>
<text x="0" y="0" class="ft" transform="translate(789,234) rotate(2)">30N</text>
<text x="0" y="0" class="fs" transform="translate(665,58) rotate(3)">60N</text>
<text x="0" y="0" class="ft" transform="translate(665,58) rotate(3)">60N</text>
<path class="tb" d="M127,998h-2l-1,-1h-2l-1,-1h-2l-1,-1h-2v-1h-3v-1h-2l-1,-1h-2v-1h-2l-1,-1h-2v-1h-2v-1h-2l-1,-1h-2v-1h-2v-1h-2v-1h-2v-1h-2v-1h-2v-1h-2v-1h-2v-1h-2v-1h-1l-1,-1h-1v-1h-2v-1h-2v-1h-1v-1h-2v-1h-1l-1,-1h-1v-1h-2v-1h-1v-1h-2v-1h-1v-1h-1l-1,-1h-1v-1h-1v-1h-1l-1,-1h-1v-1h-1v-1h-1v-1h-2v-1h-1v-1h-1v-1h-1v-1h-1l-2,-2h-1v-1h-1v-1h-1v-1h-1v-1h-1v-1h-1v-1h-1v-1h-1v-1h-1v-1h-1v-1h-1v-1h-1v-1h-1v-2h-1v-1h-1v-1h-1v-1h-1v-1l-1,-1v-1h-1v-1h-1v-1l-1,-1v-1h-1v-1l-1,-1v-1h-1v-1l-1,-1v-1h-1v-2h-1v-2h-1v-1l-1,-1v-1l-1,-1v-1l-1,-1v-2h-1v-2h-1v-3h-1v-2h-1v-4h-1v-3h-1v-5h-1v-6l-1,-1v-17h1v-7h1v-4l1,-1v-3h1v-3h1v-3h1v-2l1,-1v-2h1v-2h1v-2h1v-2h1v-2h1v-2h1v-2h1v-1h1v-2h1v-1h1v-2h1v-1h1v-1l1,-1v-1h1v-1h1v-1l1,-1v-1h1v-1h1v-1h1v-1h1v-1h1v-1h1v-2h1v-1h1v-1h1v-1h1v-1h1l3,-3h1v-1h1v-1h1v-1h1v-1h1v-1h1v-1h1l1,-1h1v-1h1v-1h1v-1h1l1,-1h1v-1h1v-1h2v-1h1v-1h1v-1h2v-1h1v-1h2v-1h1v-1h2v-1h1l1,-1h1v-1h2v-1h1l1,-1h1v-1h2v-1h2v-1h2v-1h1l1,-1h1l1,-1h1l1,-1h1l1,-1h1l1,-1h2v-1h2v-1h2v-1h2l1,-1h2v-1h2v-1h2l1,-1h2v-1h3v-1h2l1,-1h2v-1h3v-1h3v-1h159v1h3v1h3v1h2l1,1h2v1h3v1h2l1,1h2v1h2v1h2l1,1h2v1h2v1h2v1h2l1,1h1l1,1h1l1,1h1l1,1h1l1,1h1v1h2v1h2v1h2v1h1l1,1h1v1h2v1h1l1,1h1v1h2v1h1v1h2v1h1v1h2v1h1v1h1v1h2v1h1v1h1l1,1h1v1h1v1h1v1h1l1,1h1v1h1v1h1v1h1v1h1v1h1v1h1l3,3h1v1h1v1h1v1h1v1h1v2h1v1h1v1h1v1h1v1h1v1h1v1l1,1v1h1v1h1v1l1,1v1h1v1h1v2h1v1h1v2h1v1h1v2h1v2h1v2h1v2h1v2h1v2h1v2l1,1v2h1v3h1v3h1v3l1,1v4h1v7h1v17l-1,1v6h-1v5h-1v3h-1v4h-1v2h-1v3h-1v2h-1v2l-1,1v1l-1,1v1l-1,1v1h-1v2h-1v2h-1v1l-1,1v1h-1v1l-1,1v1h-1v1l-1,1v1h-1v1h-1v1l-1,1v1h-1v1h-1v1h-1v1h-1v2h-1v1h-1v1h-1v1h-1v1h-1v1h-1v1h-1v1h-1v1h-1v1h-1v1h-1v1h-1v1h-1l-2,2h-1v1h-1v1h-1v1h-1v1h-2v1h-1v1h-1v1h-1l-1,1h-1v1h-1v1h-1l-1,1h-1v1h-1v1h-2v1h-1v1h-2v1h-1l-1,1h-1v1h-2v1h-1v1h-2v1h-2v1h-1l-1,1h-1v1h-2v1h-2v1h-2v1h-2v1h-2v1h-2v1h-2v1h-2v1h-2l-1,1h-2v1h-2v1h-2l-1,1h-2v1h-2l-1,1h-2v1h-3v1h-2l-1,1h-2l-1,1h-2l-1,1h-2Z"/>
<path class="tl" d="M169,986h1v1h-3l-1,-1h2v-1ZM114,989h-3l-1,-1h2l1,1ZM176,983h1l1,1v1h1l-1,1h-2l-1,1h-1l-1,-1l1,-1v-2h1v-1ZM124,980h2v1h-1ZM122,980l1,1h-1l-1,-1ZM136,977h1h-2ZM156,974v1l1,1h-5v-1l1,-1v-1l-1,-1l1,-1v1h1l1,1ZM158,964v1h-2v2h1l-2,2v1h1l1,1h1l4,4v1l1,1v1h-1v2h-1l-1,1h-1v1h-2l1,1h1v1h-2l1,1h1v1h3l1,1h3l1,1h3l1,1h1l1,1v-1h1v-1h2l2,-1l1,1h1v-1h4v-1h3l1,-1h-1v-1h-4l-1,-1l1,-1h1l2,-2h4l1,-1h1l2,-2h-1v-1h1v-1h2v-1l1,-1h1v1h1v-1h8v-1h3v-1h1l1,1h2v-1h1v1l1,-1h4v1h6v-1h3v-1h2v1h3l1,-1h3v-1h2l1,-1h2l1,-1h4v1h1v1h1l1,1h1l1,-1l1,1h2v1l-2,2h-1v1h1h-1v1h-1v1h2l2,-2h1v-1h3l1,-1h1v-1h2l1,-1h5v-1h1v1h5v1h1l1,-1l1,1l1,-1h1l2,-1v1l1,1h3l1,-1h2v1h1v1h4l1,-1v1h9l1,-1l-1,1v1h-1h3l1,1h2l-1,1v1h1v1h2v1h1v2h2l1,1v1h-1l-1,1h-2l-1,1h-3l-1,1h-2l-1,1h-2l-2,2v1h-5l-1,1h-2v1h-1v3h2l-11,4h-155l-11,-4h-1h2l1,-1l1,1h14l-1,-1h-7v-1h-2v-1h-3l-1,-1h4v-1h-2l-1,-1h-7l-1,-1l-2,-1l1,1l1,-1l2,1v-1h1v-1l-1,-1h-1h2v-1h2v-1h4l1,-1h5l1,-1l1,1v-1h1l1,1h1v-1l1,1h6v-1h-2l-1,-1h-1l-1,-1h4l1,1h1l1,-1h3l-1,-1h1l1,1l1,-1l1,1h3v-1l1,1h4v-1h2l1,-1v-1h-1v-1h-1v-1h-1v-1h-1v-2l-1,-1v-1h1v-2h1v-1h1v-1h1l1,-1l1,1ZM144,951l2,1h1v1h-1v-1v1h-4l-2,-2l-2,-1l2,1h2v-2h1v1ZM151,947h1v1h-2v1l-1,-1l1,-1ZM269,946h-1v-2h1l1,1ZM345,939v1h1l1,-1v1l-3,3v-1l-1,1h-1l1,-1v-1l1,-1v-1ZM368,943v1l1,-1v1h-1l-3,3h-1l-1,1h-1l-2,2h-2v1h-1v-1h-1v-1l4,-2h1l1,-1h2l2,-2h1l2,-2ZM376,936l-1,2l1,-1l-1,1l1,1h1l-2,2h-1l-2,2l-2,1h-1l2,-1v-2l1,-1l2,-1v-1l1,-1v-3l1,-1v1l1,1ZM382,913l-1,1v-2l-1,-1v-1h1v1l1,1ZM397,906v1l-1,1h-1v-1l1,-1v1ZM398,906h-1v-1h1l1,-1v1ZM10,905v-1ZM386,904v-1ZM386,901v2h-1v-1ZM259,895v2l1,1h-1v1v-1v2h-1v3l-3,6v2h-1l-1,1l-1,-1h-1v-5h1v-2l1,-1h-1v-3h1v-1h1l2,-2h1v-1l1,-1v-1l1,-1v1ZM361,898v1h1v1h1l-1,1v2h1l-1,2v1l2,2v4h1l-1,2l1,1v3l-1,1v2l-3,3v1l-1,1l-1,2h-1l-1,2h-1l-4,4v1h-2l-1,1h-1l-1,1v-1h-1l1,-1h-1l-1,1h-1v-1h-1v-3h1l-1,-1v-1l1,-1l-1,1h-1l3,-3l-2,1h-1l-1,2v-4l-2,-2h-2l-1,1h-4l-2,2h-4l-1,1v-1l-1,1h-2v-1h-1l1,-1v-1h1v-3l1,-1v-7l1,1v-3l1,-1v-1l1,-1l-1,1l2,-2h1l1,-1h2l1,-1h2v-1h1l1,-1v-2l1,-1v2l1,-1v-1h1v-1l2,-2h2v1h2v-2h1l1,-1v-1h2v-1h-1h1l1,1h3l1,1h-1v1h-1v1l-1,1v1l2,2v1h1l1,1h1v-1l1,-1v-1l1,-1v-3l1,-1v-2h1v-1v3l1,1Z"/>
<path class="tl" d="M383,894h-1v-1v1ZM337,892l-2,-1h2ZM381,893h-1v-1h1ZM382,892v-1l-1,-1h1ZM341,892h-1l3,-3h2l-1,1h-1l-1,1ZM335,889h1v1h-3l1,-1ZM340,889v1h-3v-1h2ZM381,890v1l-2,-2h1v1ZM378,889v-1h-1v-1l1,1ZM325,887h2v-1l2,1v1h2l1,1l-1,1l-1,-1h-4l-1,-1h-1l-2,-1h-1l1,-2h1l1,1ZM353,886v1v-2ZM377,888h-1v-2l-1,-1h1v2h1ZM373,885l-1,1h-1l-1,1l-1,-1h-1l1,-1l1,1v-1h2v-2h1v1ZM345,882h-1v-1h1ZM349,881v2l-1,-1h-2v-1h2ZM374,884l-1,-1v-1l-1,-1h-1h2v2h1ZM353,878v3l2,1v-2l2,-1h1l1,1h1l1,1l4,2v1h1v1l2,1v1h-1v1l1,1v2h1v1h1h-1l1,1l-1,1v-1h-2l-1,-1v-3h-3l-1,1v1h-2l-2,-2v1h-2l1,-2h1l-1,-2v-1l-2,-1h-1l-1,-2l-1,1l-1,-1h1l-1,-1l1,-1h-1v-1h-1l-1,-1h2v-1ZM343,875l-1,1h-4v1l1,2v-1h2l-1,1h-1l1,2v1l1,2v1h-1v-2l-1,1v-1l-1,-1l1,-1h-1v4h-1v-3h-1v-1l1,-1v-4h1v-1h4l1,-1ZM347,875v1h-1v1l1,1h-1v-4h1ZM321,885h-1l-2,-2v-1l-2,-2l-1,-2v-2l-1,-1v-1l-4,-4v-1h2l3,3l1,2h1l2,2h1l-1,2h1v1l1,1h1v3ZM335,874l1,1h-1v3l-1,1v1l-1,3v-1l-1,1l-1,-1h-1v-1l-1,1l-1,-1h-1l-2,-4v-2l1,-1h2v-2h2v-1l1,-1v-1h1l1,-1v-2h1v1l2,2v1h-1l-1,2l1,1ZM344,864v3l-1,-1v2l-2,-2h1l-1,-1v1l-1,-1l-1,1v-1l1,-1h2v-1h1v-1l1,1ZM294,868h-1v-1l-1,-2l1,-2l1,1v1l1,1v1ZM137,863h-1l1,-1h1ZM341,861v1l-1,1l-1,-1l1,-1v-1v1l1,-1ZM335,863l-1,1v-1l1,-1v-1l1,-1v1l-1,1ZM338,859h2v1l-1,1v-1h-1ZM342,858l1,2h-1v1v-1h-1v-1h1h-1v-1ZM338,857l-1,1l-1,-1h1ZM336,849h1v6h1l2,1v2l-1,-1v-1v1l-1,-1h-2v-1h1h-1l-1,-1v-5ZM133,851v1h-1v-1ZM121,852h-1v-1h2v1ZM126,849h3v1h1v1h-2l-1,1v-1h-1v-2h-1ZM324,849l-1,1h-1v-2l1,-1h1v1ZM37,846v-2h1v2ZM38,844h-1v-1h1ZM119,845h2l1,1v1h1v1h2l-1,1h-3v-1h-1v-2h-2l-1,-1h-1h1h-2l-1,1h-1l2,-2h3ZM122,843h-1v-1l1,-1v1ZM334,843v1l-2,-2v-2l1,-1l1,1ZM122,839l-1,1v-1ZM123,839v1v-1h-1ZM340,825h1v1h-1v1h-1v-2ZM240,828l-2,2v-1h-1h2ZM229,828v1h-1ZM220,825v2h-1l-1,-1h-1v-1h2ZM214,821v3h-1v-3ZM344,820v1l1,1v1l-1,1h-1l-1,2l-1,-1v-1l-2,1l-1,1h-1l2,1v3l-1,-1v-1h-1l-1,-1l1,-1v-3h3v-3l1,1v-2h1l-2,-4v-1l3,3v1ZM214,820v1l-1,-1v-1l1,-1ZM340,810l1,-1l1,2h-1v2l-2,-1l1,2h-1l-1,-2l-1,-1h1l-1,-2l-1,-1l3,1ZM144,812l1,1h1h-2ZM147,809h-1l-1,-1h1ZM92,806h-1l-1,-1v-2h-1v-1h1l1,1v1l1,1ZM153,807l-1,1h1v1h2l-1,1h1v1l-1,2l-1,-1l1,-1l-2,1v-1h-3l1,-1h-1l4,-4h1Z"/>
<path class="tl" d="M90,797h1l-2,2v1v-3ZM332,800l3,3l-2,-1l1,2l2,2v1l-2,-2l-1,-2l-6,-6v-1h-1h1l3,3ZM198,806l-1,1h-2l1,-2v-1l2,-2h1v3ZM216,801l-1,2l-1,-1v-1h1ZM79,791h-1v-1h2ZM202,797l-1,2h2v1l-1,1h1l2,4h1v1l-1,1h1l-1,1h-3l-1,1h-2l2,-2h-1v-1h1l-1,-1v-1h2l-1,-1h-1v-2l-1,-1l1,-2v-1l1,1ZM75,786h-1v-1h1ZM141,790l-1,1v-1ZM139,790h-2l1,-1h1ZM78,780v1h1h-2v-1ZM139,786h1v1h1l-1,1h1l-1,1l-1,-1h-1l-2,1l1,-1h-1h1l1,-1l1,-2ZM193,787v1l1,1l-1,1h-3l-1,1l-1,-1h-2l1,-1h-1h1v-1h-2l1,-1h1l1,1l2,-1h2ZM147,784h-1l1,-1h2l-1,1ZM81,776v1l1,-1h2l-1,2h-3l-1,1h-1l-1,-1h1v-1h-1h1h-2l-1,1l8,-5v1l-1,2ZM135,780l-1,1v-1h-1l1,-1h1ZM322,771h-1ZM88,771h-1h2ZM139,780l-1,2l2,-1v1h-1v1l1,-1l2,-1l1,-1h2v2h-1v1l-1,1l-2,1h-1v-1l-1,1l-2,1v1h-3l-2,2h-1l-1,1l-2,1l-1,1l-1,2h1l-1,1v1h1l3,3l2,1h1l-2,2v2l1,1h1l2,-4h-1l4,-2v-1l1,-1v-1l-1,-1l2,-1l2,-4l1,1h1l1,-1v1l1,1h1v2l-1,1l1,1h2l1,-2h1v3l1,1l-1,1l1,1v1h1l1,1v1l1,1l-2,2h-2l-2,2h-1l-2,-1h-2l-2,1l-1,1l-2,1l-1,1l2,-1l3,-1h2l-1,1l-1,2v1l1,1l2,-1l1,-1v1h1l-4,2h-1l-2,1v-1l2,-1h-3v1h-1l-1,1h-1l-2,2l1,1v-1v1h-3l-1,1l2,-1v1h-2l-2,2v1l-1,1l-1,-1l1,-1l-1,1v4l-1,1h-1l-1,1h-1l-3,3h-1v8l-1,1h-1v-3l-1,-1l1,-1l-1,-2l-1,1l-1,-1h-4v1h-1l-1,-1l-1,1l-1,-1l-2,2h-2v1h-1v3l-1,1v1l-1,2v4l1,1v1h1v1l1,-1h3v-1l1,-1v-1l1,-1h3v1l-1,1v2l-1,1v-1v2l-1,1v1h5v1h1v1l-1,1v3l-1,1h1v2h1v1h2l1,-1h1v1h1l1,1l1,-1v-2l1,-1h2l2,-2v2h-1h1v1l-1,1v1h1v-3h1v-1h1v1h1v1h3l1,1l1,-1h1l1,1h1v1l1,1h1v1h1v1l1,1l2,1v-1h1l1,1h1l1,1v1h1v1l1,2v1l-1,1l1,1h2v1v-1l4,2v1h1l3,1h1l2,1l2,2h2v5l-1,1l-1,2l-2,2v9l-1,2v2h-1v1h-2l-1,1h-1l-3,3v5l-1,2l-2,2v2l-2,2v-1l-1,1l-1,-1h-1v-1v1l1,1v1l1,1v2l-2,1h-3l1,1v2l-1,1l-1,-1h-1l1,2h2l-2,2l1,1v1h-1l-1,1v1l2,1h1v1l-1,1v2h-1v1l2,2h-1l-1,1v1h-1l-2,-1l-3,-3l-1,-3v-1l1,-1h-2l1,-2l-1,-2h1v-2l-1,-1v2l-1,-2v-4l-1,-1l-1,-2h1v-6l-1,-2v-8l-1,-2v-6l-1,-2l-1,-1l-2,-1l-3,-2l-1,-1v-1l-1,-2l-1,-3l-2,-3l-2,-2v-1l-1,-2l2,-2v-1h-1v-3l1,-1v-1h1v-2h1l1,-1v-5l-1,-1v-2h-1v1h-1v1h-1l-1,-1h-2v-2h-1v-1v1h-1v-3l-2,-2h1h-2v-1h-2l-1,-1l-1,-2h-1l-1,-1v1h-2l-1,-1h-2l-2,-2h-1l-1,-1v-1h-1v-3h1l-1,-1v-3l-1,-1v-1l-1,-1v-3h-1v-5l-1,-1l-1,1v4h1l-1,1h1v5h1v2h-1v-1l-1,-1v-3l-1,-1v1v-1h-1v-1h1v-9h-1v-1h-1v-9l2,-2v-1l1,-2l2,-2l1,-2l1,-1v-1h1v1l2,-2h-1v-2l-1,-1v-1l1,-1l-1,-1l1,-1v-1l1,-1l-1,-1l1,-1v-1l1,-1l-1,-1h-1v-2h-1v-1h-1l-1,-1h-1l-1,1h-4l1,-1l2,-1h-1l-1,1l-2,1h-1l-1,1l-2,1h-2l-2,1h-1l-1,1h-3l-1,1h-2l1,-1h2l2,-1h2l2,-1h1l2,-1l1,-1h-3l1,-1l-1,1h-1l2,-2h-1v-1l2,-2l2,-1h3l1,-1h1l1,-1h-3v-2h4l1,1l1,-1v-3h4l1,-1h2l2,-1l1,1l1,-1h1l-1,1h1l1,1h2l1,1h2v1l1,1l1,-1h6l1,-1v2l2,-1l-1,1h2l1,1h2v1l-2,1h4v1l2,-2h2v1h1l1,1h2v-1h1l1,1l-1,1l1,-1h1l1,-1v-2l1,-1l2,-1l1,1l-2,2Z"/>
<path class="tl" d="M128,774l-1,1h4l-1,1h1l2,-2v1l-1,2v1l1,1h-2v1h-8v-1h-1v-1h4l-1,-1h-3l2,-1h-1l1,-1h1ZM135,774l-2,1v-1h1ZM152,776v1l-1,-1l-1,1v-2h2ZM146,776v1l1,-1l2,-1v2h3l1,1l-1,1l2,-1v1l1,1v2h-1l2,2v1h1v1l-2,1h-1l-1,-2l-1,1v1l1,1v2l-1,1l-2,-2v1l1,1h-2l-2,-2v-1l-1,-1v1h-3v-1l1,-1h3l1,-1l2,-1v-1l-1,-1h-1l1,-1l-1,-1h-5l-1,-1h-1l1,-1h-1l1,-1l2,-1l1,-1h2ZM138,774h2l-1,1h-1l1,1l-2,1h-2v-2l1,1v-1ZM298,772h-2v-1ZM141,776l-2,1v-1l2,-2h2l1,1l-2,1ZM122,776h-2l-1,-1h1l2,-1l2,-2h2v1h2v1h-1l-3,1h-2ZM299,769v1h-3v-1h1ZM143,773v1l-1,-1h-1l1,-1h1l1,1ZM295,769l1,1h-2l-1,1l-2,-1l-1,-1h2ZM143,771h-1v1l-1,1h-2l1,-1h-1l1,-1h2ZM136,771h1v1h-4l-2,1h-1l1,-1h-1l-1,-1l2,-1h1l2,1l1,1v-2h2ZM246,780h-3l-2,-1v-1l1,-2h-1l1,-1l-1,-1h1l4,-2h2l-1,1l-2,1l-1,1v2l-1,1l1,1ZM145,770l1,1h1l-1,1h1l1,1h4v1h-7l-1,-1l1,-1v-1h-2l1,-1ZM134,769l-2,1h-4l2,-1h3ZM271,770l1,1v-1h2l2,1h1v1l-1,1h1l2,1v-1l1,1l1,-1h2l1,1h3l-2,-1h5l1,1v1h2l2,1l-1,-1h1l1,-1l2,1v-1h1l-2,-1h8l3,1l1,-1h2l2,2h2v-1h3l3,1v-1h-2v-1h7l8,5h-1l1,1l2,1h2v1h-1v1h-1l1,1v2l-2,-1v2l-1,-1v1h-1l2,2v1h1l3,2h-1l1,1h1v1l1,2h-1l1,2l1,1l-4,-2l-4,-3l-1,-2l-1,-1v-3l-1,-2v-1l-2,-2l-1,1l2,2l-3,-1l-1,1l1,2l1,1h-1l-1,1l-1,-1h-1v1h-4v7h1l2,1h1l-1,-1h1l3,1l1,2l1,1l1,2l2,2v9h-1l-1,-1v2h-1v1l1,1v1h-1v1l1,1h1l2,2v1l1,1v1l-1,1h-1l-1,-2l-1,-1h1l-2,-1v-1v1v-1h-1v-1l-1,-1h-2v1h-1l-1,-1l1,-1l-1,-1l-1,1v2h-1v1l2,2h1v-1h2l1,1l-2,1v2l2,2l1,2l2,1v2h1v6l-2,4l-1,1h-1v1l-1,-1v1l-2,1h-1v2l-1,-1v-1h-2l-1,2v2l1,1l1,2l2,2l1,3v4l-2,1v1l-2,1v-2l-1,-1h-1v-1l-2,-2h-1v-1h-1v6h1v3l1,1h1v1h1v1l1,1v3h1v2h-1l-2,-2v-1l-1,-1v-1l-1,-1v-2l-1,-1v-1h-1v-6l-1,-1v-1l-1,-2v-2l-1,-1l-2,2h-1v-3l-1,-2v-1h-1l-2,-2v-1l-1,-1h-1v2l-1,-1v1h-2v2l-2,1l-1,2v1l-2,2h-1v8l-1,1l1,1h-1l-1,1l-1,-1l-1,-2v-1l-1,-1v-1l-1,-2v-1l-3,-6v-3l-2,1h-1l-1,-2v-1l-2,-1l-1,-1v-1l-1,-1l-2,1h-5l-1,-1h-2v-2h-1l-1,1h-2l-3,-3l-1,-2l-1,1v-1l-1,1v2l1,1h1l1,1v2l1,1l-1,-1l1,-1v2h1v1l1,-1h2v-1l1,-1v-1v2l2,2h1l2,2l-1,1v1h-1v3h-1v1h-1v1h-2v1h-1l-2,2h-1l-2,2v-1l-1,1h-2v1h-2v-2l-1,-1v-3h-1v-1l-1,-1v-1l-1,-1h-1v-1l-1,-1v-3h-2v-2l-1,-1v-1l-2,-2v-1v1l-1,1l-1,-1l-1,-2l1,2l1,1l1,2v1l2,2h-1l2,2v1l1,1h-1l1,2v1l1,1l1,2v1l1,1l2,1v1h1v1h1v1l-1,1h1l1,1h3l1,-1h3v-1h1v2l-1,1v3l-1,1l-3,6l-1,1l-2,1l-1,1l-1,2v1h-1v1h-1v2l-1,1l-1,2l1,1v4l1,1v7l-1,1h-1l-3,3h-1v1l-1,1v2h1l-1,1h1v1l-1,1h1l-1,1h-1l-2,2v3l-3,3v1l-2,1v1l-1,1h-2v1l-1,-1v1l-1,-1l-1,1h-2l-1,1l-1,-1h-1v-5l-1,-1v-2l-1,-1v-1l-1,-1v-5l-1,-1v-1l-1,-2v-1l-1,-1v-3l1,-1v-3h1v-1l1,-1v-1h-1v-5l-1,-1v-2l-3,-3l-1,-2l1,-1v-5l-1,-1v-1l-1,1h-2l-1,-1v-1l-1,-1h-2l-1,1h-2l-1,1h-6l-1,1l-4,-4h-1l-1,-1v-1l-1,-1v-1h-1v-1l-1,-1v-1h-1v-3h-1l1,-1v-1h1l-1,-1l1,-1v-4l-1,-1v-1h1v-2l1,-1v-1h1v-2h1l1,-2h1l2,-2v-3l3,-3l1,-2v-1h1l1,1h2l1,-1h2l1,-1h4l1,-1h1v1h1l1,-1h1v1l1,-1v1h-1v1h1v2h-1v1h1v1h3l2,2h1l2,2l1,-1v-2l1,-1h2l1,1h1l1,1h2l1,1h1v-1h2l1,1v-1h1l1,1v-2l1,-1v-5h-2l-1,1l-1,-1h-2v1l-1,-1h-2v-1l-1,-1v-2l1,-1h1v-1h2l1,-1h1l2,-1l2,1l1,1h2l1,-1v-2h-1l-2,-2h-1l-1,-1l1,-1l-1,-1h2l-1,-1v1h-2l-1,1v1h1l-1,1h-1v-1h-1l1,-1h-2v-1h-1v1l-1,1v1h-1v4l1,1h-2v1h-1v-1h-2l1,1h-2v1l1,1h-1h1l1,1v1l-1,-1v1h-1l1,1h-2v-2l-1,-1v-1h-1v-3h-1v-1h-1l-1,-1h-1l-1,-1v-1l-1,-1v1v-1h-2v1l2,2v1l1,1h1l1,1h1l1,1v1l-1,-1h-1v1h1v1h-1v1h-1v-1h1l-1,-1v-1h-1l-1,-1h-1l-2,-2l-1,-2h-2v1h-4l-1,1v2h-2v1l-1,2h1l-1,1v1h-1l-1,1h-2l-1,1l-2,-2v1h-2l1,-1v-1h-1v-2l1,-1v-3l-1,-1l2,-1l1,1h5v-4l-1,-1v-1h-2v-1h3v-2l1,1l2,-1v-1h1l1,-1l1,-2l1,-1h2v-5h2l-1,1h1v1l-1,1v1h1v1l1,-1h2v1h1l2,-2l1,1h1v-1h1v-3l1,-1l1,1v-1l-1,-1v-1h4l1,-1h-4l-1,1l-2,-2v-4l2,-1v-1l-1,-1l-2,2l-1,2l-1,1v3h1v2h-1v2l-1,2h-1v1h-1v-2l-1,-1l-1,-2l-1,-1l-1,2h-1l-2,-1v-5l2,-1l3,-3l2,-3l3,-3h2l1,-2h3l2,1l-1,1h2l1,1h3l3,1l1,1v1l-1,1h-1l-3,-1h-1l2,1v2l1,1h1v-1h-1l1,-1l2,1v-1l1,-2h1l1,1v-1l-1,-1v-1l-1,-1l2,1h1l-1,1l1,1h1v-1l1,-1l2,-1h1v1l1,-1h1l1,-1l1,1l1,-1h-2l1,-1h2l1,1l4,1v-1h-2v-1h-1l-1,-1v-3h2l1,1v1h1l1,1l1,2h1v3l1,1v-1h1l-1,-1l1,-1h-1l-2,-2v-1l-2,-1l1,-1l-1,-1h1l1,2l-1,-1l1,-1h2l1,1l-1,-1l-1,-2h4l-2,-1v-1h1l1,-1h3l1,-1h1v-2l2,1h-1ZM253,820l1,1v2h-1v1l1,1h1l1,1h3l-1,-1v-2h-1v-2h1v-1l-1,-1h-1l1,1l-1,-1v-1h-2v-2h-1h1v-2l1,1v-3h-2l-1,1h-1v1h-1l-1,2l2,1v1l1,1Z"/>
<path class="tl" d="M146,770h-1v-1h1l1,1ZM137,769h-2l1,-1h1l1,1ZM220,771l-1,1h-1v-1h-1l2,-1v1ZM139,768h-2l1,-1v1ZM146,769h-1v-1h1l1,1ZM144,769h-1l-1,-1h-1h1v-1h1l1,1ZM268,768l-3,1v-2ZM215,769l3,1h-2v3h-1l-2,-1h1l-1,-1l-2,-1v-1l1,-1l1,1h1v-1h1ZM220,768h1l-1,1h-4l-1,-1h3ZM234,767l-1,1h-1v-1h-1h4ZM264,768h-4l-2,-1l-1,-1h1l1,-1l4,2ZM153,767v1h-1l-2,1h-2v-1h1h-1v-1l1,-1h2v-1h1v1h1ZM167,764h3v1h-3l-1,1h-1l-1,1l-2,1h-3v1h-1v1h-2l-2,1h1l-2,1h-4l-1,-1h2v-1h2v-1h-1h1l1,-1h1l-1,-1h4l-1,-1h-3v-1l1,-1h6v-1h3v1l2,-1l1,1ZM190,764l3,1h-6v1h5l-1,1l2,-1h4v1l-2,1h-1l-2,2v2l1,1h-2l1,1l-1,1v1h-1l1,1h-3l1,1v1l-1,-1l-1,1h1l1,1v1h-2l-1,-1v1l-1,1h3l-4,2h-3l-1,1l-4,2h-1l-2,1h-1v1l-2,2v1l-1,1l-1,2h-1l-1,-1h-1l-1,-1v-2l-1,-1v-1l1,-1l-1,-2l1,-1l1,-2h1l1,-1v-1l-1,1h-1v-1l1,-1h1l-1,-1h-1l1,-1v-4l-1,-1h-5v-1l-1,-1h1l-1,-1l1,-1h2l3,-1h1l-2,-1h1l3,-1h1v-1h9l1,1l-1,-1h1l2,-1h3l2,-1Z"/>
<path class="th" d="M400,879h-1ZM396,873v1ZM30,874v-1v1v-1ZM396,872v-1ZM396,873h1h-1h1Z"/>
<path class="tg" d="M66,970h1l1,-1h4v-1h5v-1h5v-1h6v-1h6l1,-1h7v-1h8v-1h9l1,-1h11v-1h14v-1h20v-1h79v1h20v1h14v1h11l1,1h9v1h8v1h7l1,1h6v1h6v1h5v1h5v1h4l1,1h1M21,927h6v-1h7v-1h8v-1h10v-1h10v-1h12v-1h14v-1h18v-1h23v-1h38v-1h75v1h38v1h23v1h18v1h14v1h12v1h10v1h10v1h8v1h7v1h6M5,877h399M21,826h4v1h7v1h8v1h9v1h10v1h11v1h14v1h16v1h21v1h32v1h103v-1h32v-1h21v-1h16v-1h14v-1h11v-1h10v-1h9v-1h8v-1h7v-1h4M66,783v1h5v1h4v1h5l1,1h5v1h6l1,1h6l1,1h7v1h10v1h10v1h13l1,1h17v1h36v1h21v-1h36v-1h17l1,-1h13v-1h10v-1h10v-1h7l1,-1h6l1,-1h6v-1h5l1,-1h5v-1h4v-1h5v-1M140,755h-1v1h-3v1h-2v1h-2v1h-2v1h-2v1h-2l-1,1h-1l-1,1h-1l-1,1h-1v1h-2v1h-2v1h-2v1h-1l-1,1h-1v1h-2v1h-1l-1,1h-1v1h-2v1h-1v1h-2v1h-1v1h-2v1h-1v1h-1l-1,1h-1v1h-1v1h-2v1h-1v1h-1v1h-1v1h-2v1h-1v1h-1v1h-1v1h-1v1h-1v1h-1l-1,1h-1v1h-1v1h-1v1h-1v1h-1v1h-1v1h-1v1h-1v1h-1v1l-1,1v1h-1v1h-1v1h-1v1h-1v1h-1v1l-1,1v1h-1v1h-1v1h-1v2h-1v1h-1v2h-1v1h-1v2h-1v1h-1v2h-1v2h-1v1h-1v2h-1v2h-1v2h-1v2h-1v2l-1,1v2h-1v2l-1,1v2h-1v3h-1v4h-1v4h-1v5h-1v9h-1v13l1,1v8h1v5h1v4h1v4h1v3h1v3h1v2h1v3h1v2h1v2h1v2h1v2h1v2h1v2h1v1l1,1v1h1v2h1v1h1v2h1v1h1v1h1v2h1v1h1v1l1,1v1h1v1h1v1h1v1l2,2v1h1v1h1v1h1v1h1v1h1v1h1v1h1v1h1v1h1v1h1v1h1v1h1v1h1v1h2v1h1v1h1v1h1v1h1v1h1l1,1h1v1h1v1h1v1h2v1h1v1h1l1,1h1v1h1v1h2v1h1v1h2v1h1l1,1h1v1h2v1h1v1h2v1h2v1h1l1,1h1v1h2v1h2v1h2v1h2v1h2v1h2v1h2v1h2l1,1h2v1h2v1h2M153,755h-1v1h-2v1h-2v1h-1v1h-2v1h-2v1h-1v1h-2v1h-1v1h-2v1h-1v1h-2v1h-1v1h-1v1h-2v1h-1v1h-1l-1,1h-1v1h-1v1h-1v1h-1v1h-1l-1,1h-1v1h-1v1h-1v1h-1v1h-1v1h-1v1h-1v1h-1v1h-1v1h-1v1h-1v1h-1v1h-1v1h-1v1h-1v1h-1v1h-1v1l-2,2v1h-1v1h-1v1h-1v1l-1,1v1h-1v1h-1v2h-1v1h-1v1l-1,1v1h-1v2h-1v1h-1v2h-1v1h-1v2h-1v2h-1v2h-1v2h-1v2h-1v2h-1v2h-1v3h-1v2h-1v3h-1v3h-1v3h-1v3h-1v4l-1,1v4h-1v6l-1,1v30h1v6h1v5h1v4h1v3h1v3l1,1v2l1,1v2h1v3h1v2h1v2h1v2h1v2l1,1v1h1v2h1v2h1v2h1v2h1v1h1v2h1v1h1v2h1v1h1v2h1v1h1v1h1v2h1v1h1v1h1v1l1,1v1h1v1h1v1h1v1h1v1h1v1h1v1l3,3v1h1l3,3h1v1h1v1h1v1h1v1h1v1h1v1h1v1h1l1,1h1v1h1v1h1v1h1l1,1h1v1h1v1h1l1,1h1v1h1v1h2v1h1v1h2v1h1v1h2v1h2v1h1v1h2v1h1l1,1h1v1h2M166,755h-1v1h-1v1h-1l-1,1h-1v1h-1v1h-1v1h-1v1h-1v1h-1l-2,2h-1v1h-1v1h-1v1h-1v1h-1v1h-1v1h-1v1h-1v1h-1v1l-2,2v1h-1v1h-1v1h-1v1h-1v1l-1,1v1h-1v1h-1v1h-1v2h-1v1h-1v1l-1,1v1h-1v1h-1v2h-1v1h-1v2h-1v2h-1v1h-1v2h-1v2h-1v2h-1v1l-1,1v1l-1,1v1l-1,1v2h-1v2h-1v2h-1v3h-1v2h-1v3h-1v3h-1v3h-1v3h-1v4h-1v4h-1v5h-1v6h-1v8h-1v30h1v7l1,1v5h1v5h1v4h1v4h1v3h1v3h1v3h1v3h1v3h1v2h1v2h1v2l1,1v2h1v2h1v2h1v2h1v1h1v2h1v2h1v2h1v1h1v2h1v1h1v2h1v1l1,1v1h1v1h1v2h1v1h1v1h1v1l1,1v1h1v1h1v1h1v1l1,1v1h1v1h1v1h1v1h1v1h1v1h1v1h1v1h1v1h1v1h1v1h1v1h1v1h1v1h1v1h1l2,2h1v1h1v1h1v1h1v1h2v1h1"/>
<path class="tg" d="M179,755h-1v1h-1v2h-1v1h-1v1h-1v1h-1v2h-1v1h-1v1l-1,1v1h-1v1l-1,1v1h-1v1l-1,1v1h-1v2h-1v1l-1,1v1h-1v2h-1v2h-1v2h-1v2h-1v2h-1v2h-1v2h-1v2h-1v2l-1,1v2h-1v2l-1,1v2h-1v3h-1v3h-1v3h-1v3h-1v4h-1v4h-1v4h-1v4h-1v5l-1,1v5h-1v8h-1v11h-1v29l1,1v10l1,1v7h1v6h1v5h1v4l1,1v4h1v3l1,1v3h1v3h1v3h1v3h1v3h1v3h1v2h1v3h1v2h1v2h1v2l1,1v2h1v2h1v1l1,1v1l1,1v1h1v2h1v2h1v1l1,1v1h1v2h1v1h1v2h1v1h1v2h1v1h1v1l1,1v1h1v1h1v1h1v2h1v1h1v1h1M192,755h-1v3h-1v2h-1v3h-1v3h-1v3h-1v3h-1v3h-1v3l-1,1v3h-1v4h-1v4h-1v4l-1,1v4h-1v5h-1v6h-1v6l-1,1v7h-1v8h-1v11l-1,1v18h-1v29l1,1v18h1v11h1v8l1,1v7h1v6h1v6h1v5h1v5h1v4h1v4h1v4h1v4h1v3h1v3l1,1v3h1v2l1,1v2h1v3h1v3h1v2h1M205,755v243M217,755h1v3h1v2h1v3h1v3h1v3h1v3h1v3h1v3l1,1v3h1v4h1v4h1v4l1,1v4h1v5h1v6h1v6l1,1v7h1v8h1v11l1,1v18h1v29l-1,1v18h-1v11h-1v8l-1,1v7h-1v6h-1v6h-1v5h-1v5h-1v4h-1v4h-1v4h-1v4h-1v3h-1v3l-1,1v3h-1v2l-1,1v2h-1v3h-1v3h-1v2h-1M230,755h1v1h1v2h1v1h1v1h1v1h1v2h1v1h1v1l1,1v1h1v1l1,1v1h1v1l1,1v1h1v2h1v1l1,1v1h1v2h1v2h1v2h1v2h1v2h1v2h1v2h1v2h1v2l1,1v2h1v2l1,1v2h1v3h1v3h1v3h1v3h1v4h1v4h1v4h1v4h1v5l1,1v5h1v8h1v11h1v29l-1,1v10l-1,1v7h-1v6h-1v5h-1v4l-1,1v4h-1v3l-1,1v3h-1v3h-1v3h-1v3h-1v3h-1v3h-1v2h-1v3h-1v2h-1v2h-1v2l-1,1v2h-1v2h-1v1l-1,1v1l-1,1v1h-1v2h-1v2h-1v1l-1,1v1h-1v2h-1v1h-1v2h-1v1h-1v2h-1v1h-1v1l-1,1v1h-1v1h-1v1h-1v2h-1v1h-1v1h-1M243,755h1v1h1v1h1l1,1h1v1h1v1h1v1h1v1h1v1h1l2,2h1v1h1v1h1v1h1v1h1v1h1v1h1v1h1v1h1v1l2,2v1h1v1h1v1h1v1h1v1l1,1v1h1v1h1v1h1v2h1v1h1v1l1,1v1h1v1h1v2h1v1h1v2h1v2h1v1h1v2h1v2h1v2h1v1l1,1v1l1,1v1l1,1v2h1v2h1v2h1v3h1v2h1v3h1v3h1v3h1v3h1v4h1v4h1v5h1v6h1v8h1v30h-1v7l-1,1v5h-1v5h-1v4h-1v4h-1v3h-1v3h-1v3h-1v3h-1v3h-1v2h-1v2h-1v2l-1,1v2h-1v2h-1v2h-1v2h-1v1h-1v2h-1v2h-1v2h-1v1h-1v2h-1v1h-1v2h-1v1l-1,1v1h-1v1h-1v2h-1v1h-1v1h-1v1l-1,1v1h-1v1h-1v1h-1v1l-1,1v1h-1v1h-1v1h-1v1h-1v1h-1v1h-1v1h-1v1h-1v1h-1v1h-1v1h-1v1h-1v1h-1v1h-1v1h-1l-2,2h-1v1h-1v1h-1v1h-1v1h-2v1h-1M256,755h1v1h2v1h2v1h1v1h2v1h2v1h1v1h2v1h1v1h2v1h1v1h2v1h1v1h1v1h2v1h1v1h1l1,1h1v1h1v1h1v1h1v1h1l1,1h1v1h1v1h1v1h1v1h1v1h1v1h1v1h1v1h1v1h1v1h1v1h1v1h1v1h1v1h1v1h1v1h1v1l2,2v1h1v1h1v1h1v1l1,1v1h1v1h1v2h1v1h1v1l1,1v1h1v2h1v1h1v2h1v1h1v2h1v2h1v2h1v2h1v2h1v2h1v2h1v3h1v2h1v3h1v3h1v3h1v3h1v4l1,1v4h1v6l1,1v14l1,1h-1v15h-1v6h-1v5h-1v4h-1v3h-1v3l-1,1v2l-1,1v2h-1v3h-1v2h-1v2h-1v2h-1v2l-1,1v1h-1v2h-1v2h-1v2h-1v2h-1v1h-1v2h-1v1h-1v2h-1v1h-1v2h-1v1h-1v1h-1v2h-1v1h-1v1h-1v1l-1,1v1h-1v1h-1v1h-1v1h-1v1h-1v1h-1v1l-3,3v1h-1l-3,3h-1v1h-1v1h-1v1h-1v1h-1v1h-1v1h-1v1h-1l-1,1h-1v1h-1v1h-1v1h-1l-1,1h-1v1h-1v1h-1l-1,1h-1v1h-1v1h-2v1h-1v1h-2v1h-1v1h-2v1h-2v1h-1v1h-2v1h-1l-1,1h-1v1h-2"/>
<path class="tg" d="M269,755h1v1h3v1h2v1h2v1h2v1h2v1h2l1,1h1l1,1h1l1,1h1v1h2v1h2v1h2v1h1l1,1h1v1h2v1h1l1,1h1v1h2v1h1v1h2v1h1v1h2v1h1v1h1l1,1h1v1h1v1h2v1h1v1h1v1h1v1h2v1h1v1h1v1h1v1h1v1h1v1h1l1,1h1v1h1v1h1v1h1v1h1v1h1v1h1v1h1v1h1v1l1,1v1h1v1h1v1h1v1h1v1h1v1l1,1v1h1v1h1v1h1v2h1v1h1v2h1v1h1v2h1v1h1v2h1v2h1v1h1v2h1v2h1v2h1v2h1v2l1,1v2h1v2l1,1v2h1v3h1v4h1v4h1v5h1v9h1v13l-1,1v8h-1v5h-1v4h-1v4h-1v3h-1v3h-1v2h-1v3h-1v2h-1v2h-1v2h-1v2h-1v2h-1v2h-1v1l-1,1v1h-1v2h-1v1h-1v2h-1v1h-1v1h-1v2h-1v1h-1v1l-1,1v1h-1v1h-1v1h-1v1l-2,2v1h-1v1h-1v1h-1v1h-1v1h-1v1h-1v1h-1v1h-1v1h-1v1h-1v1h-1v1h-1v1h-1v1h-2v1h-1v1h-1v1h-1v1h-1v1h-1l-1,1h-1v1h-1v1h-1v1h-2v1h-1v1h-1l-1,1h-1v1h-1v1h-2v1h-1v1h-2v1h-1l-1,1h-1v1h-2v1h-1v1h-2v1h-2v1h-1l-1,1h-1v1h-2v1h-2v1h-2v1h-2v1h-2v1h-2v1h-2v1h-2l-1,1h-2v1h-2v1h-2"/>
<rect x="385" y="863" width="21" height="21" fill-opacity="0" stroke="#ffffff" stroke-opacity="0.5" stroke-width="5.0"/>
<rect x="387" y="865" width="21" height="21" fill-opacity="0" stroke="#113311" stroke-opacity="0.8" stroke-width="5.0"/>
<rect x="386" y="864" width="21" height="21" fill-opacity="0" stroke="#45a249" stroke-opacity="0.9" stroke-width="5.0"/>
<rect x="0" y="858" width="48" height="47" fill-opacity="0" stroke="#ffffff" stroke-opacity="0.5" stroke-width="5.0"/>
<rect x="2" y="860" width="48" height="47" fill-opacity="0" stroke="#113311" stroke-opacity="0.8" stroke-width="5.0"/>
<rect x="1" y="859" width="48" height="47" fill-opacity="0" stroke="#45a249" stroke-opacity="0.9" stroke-width="5.0"/>
</svg>
