<?xml version="1.0" encoding="UTF-8" standalone="no"?>
<svg xmlns:svg="http://www.w3.org/2000/svg" xmlns="http://www.w3.org/2000/svg" xmlns:xlink="http://www.w3.org/1999/xlink" height="1000" width="1000">
<!-- made with pythonshp (GPL): github.com/sanjayrao77/pythonshp , underlying data may come from naturalearthdata.com -->
<!-- 
COPYRIGHT: THIS SVG FILE IS RELEASED INTO THE PUBLIC DOMAIN
 -->
<!-- 
vars : {
	'cmdline' : 'pythonshp.py publicdomain wiki1 lesotho locatormap'
	'title' : 'Lesotho locator'
	'version' : '1.0.5'
}
 -->
<defs>
	<radialGradient id="watergradient" cx="500" cy="500" r="500" fx="500" fy="500" gradientUnits="userSpaceOnUse">
		<stop offset="0%" stop-color="#70add3"/>
		<stop offset="11%" stop-color="#6eaad0"/>
		<stop offset="22%" stop-color="#6ca7cc"/>
		<stop offset="31%" stop-color="#6ba5c9"/>
		<stop offset="41%" stop-color="#69a2c6"/>
		<stop offset="51%" stop-color="#679fc2"/>
		<stop offset="59%" stop-color="#669dbf"/>
		<stop offset="67%" stop-color="#649abc"/>
		<stop offset="75%" stop-color="#6297b9"/>
		<stop offset="81%" stop-color="#6095b6"/>
		<stop offset="87%" stop-color="#5f92b2"/>
		<stop offset="92%" stop-color="#5d8faf"/>
		<stop offset="95%" stop-color="#5b8dac"/>
		<stop offset="98%" stop-color="#598aa8"/>
		<stop offset="100%" stop-color="#5685a2"/>
	</radialGradient>
	<radialGradient id="landgradient" cx="500" cy="500" r="500" fx="500" fy="500" gradientUnits="userSpaceOnUse">
		<stop offset="0%" stop-color="#dddddd"/>
		<stop offset="11%" stop-color="#d7d7d7"/>
		<stop offset="22%" stop-color="#d1d1d1"/>
		<stop offset="31%" stop-color="#cccccc"/>
		<stop offset="41%" stop-color="#c6c6c6"/>
		<stop offset="51%" stop-color="#c0c0c0"/>
		<stop offset="59%" stop-color="#bbbbbb"/>
		<stop offset="67%" stop-color="#b5b5b5"/>
		<stop offset="75%" stop-color="#afafaf"/>
		<stop offset="81%" stop-color="#aaaaaa"/>
		<stop offset="87%" stop-color="#a4a4a4"/>
		<stop offset="92%" stop-color="#9e9e9e"/>
		<stop offset="95%" stop-color="#999999"/>
		<stop offset="98%" stop-color="#939393"/>
		<stop offset="100%" stop-color="#888888"/>
	</radialGradient>
	<radialGradient id="bordergradient" cx="500" cy="500" r="500" fx="500" fy="500" gradientUnits="userSpaceOnUse">
		<stop offset="0%" stop-color="#444444"/>
		<stop offset="11%" stop-color="#3f3f3f"/>
		<stop offset="22%" stop-color="#3a3a3a"/>
		<stop offset="31%" stop-color="#363636"/>
		<stop offset="41%" stop-color="#323232"/>
		<stop offset="51%" stop-color="#2d2d2d"/>
		<stop offset="59%" stop-color="#292929"/>
		<stop offset="67%" stop-color="#242424"/>
		<stop offset="75%" stop-color="#1f1f1f"/>
		<stop offset="81%" stop-color="#1b1b1b"/>
		<stop offset="87%" stop-color="#161616"/>
		<stop offset="92%" stop-color="#121212"/>
		<stop offset="95%" stop-color="#0e0e0e"/>
		<stop offset="98%" stop-color="#090909"/>
		<stop offset="100%" stop-color="#000000"/>
	</radialGradient>
</defs>
<style type="text/css">
<![CDATA[
.fs {font:14px sans;stroke:#ffffff;stroke-width:2px;stroke-opacity:0.8;text-anchor:middle}
.ft {font:14px sans;fill:#000000;fill-opacity:1;stroke-opacity:0;text-anchor:middle}
.sb {stroke:url(#bordergradient);fill-opacity:0}
.sg {stroke:#000000;fill-opacity:0.0;stroke-opacity:0.2}
.sh {fill:#45a211;stroke:#000000}
.sl {fill:url(#landgradient);stroke:url(#bordergradient)}
.sp {stroke:url(#landgradient);fill-opacity:0}
.sw {fill:url(#watergradient);stroke:url(#watergradient);stroke-opacity:0.8}
.tb {fill:#eeeeee;stroke:black;stroke-width:2}
.tg {stroke:black;stroke-opacity:0.2;fill-opacity:0}
.th {fill:#45a211;stroke:#378100}
.tl {fill:#aaaaaa;stroke:black}
.zb {stroke:#444444;fill-opacity:0}
.zh {fill:#45a211;stroke:#115511}
.zl {fill:#dddddd;stroke:#444444}
.zp {stroke:#dddddd;stroke-dasharray:3 3;fill-opacity:0}
]]>
</style>
<circle cx="500.0" cy="500.0" r="500.0" fill="url(#watergradient)"/>
<path class="sl" d="M482,23l1,-1h-3l-2,-2h1l1,-1h8v-1h1l3,1h6v1h-2l1,1v2h1h-2v1h2v1h-1h1v1h1l1,1v1h6v1h1v-1h4v1h2v1h1v1h-1l1,1h1h-1h1v1h1l1,1h1v1h4l1,1h-1v1h-6l1,1h1h-1h1v2h13l2,2h-1v1h1l1,1h5v1h1v2h6v1h1v-1h4l1,1h1l1,1h5l1,1h4l1,1h2v2h-1v1h1h-1v1h1v1h1h-1v2h-2l-1,-1h-2l-1,1h-2v2h-4l-1,1h-5l-1,1h-3l-2,1h-1v1h-1l1,-1h1h-1v-1l-1,1h-1v1l1,1h-1l-1,-1h-4l-1,-1h-2v1l-2,-1h-7l-1,-1h-1h1h-2v-1h2l1,1h2l1,-1h-4v-2h-1h1v2h-2v-1v1h-5v1l-1,1l-2,1h-1l-1,1h-2l1,1v2l-1,1h-3v-1h-1v2l-1,1v1l-1,1v2h-3v1h-1v2h-1l-2,1l1,1h1v1h1l1,1h-1l2,2h1l4,1h1l-2,2l-4,-1h-3l-2,1l-1,1l-2,1h-2l-2,1l-1,1v-1l1,-1h2l1,-1h-6l-1,-1h-9l-1,1h-4l1,1v1h3v1h-1v-1h-3l1,1h1v1h-1l-1,-1l-2,-1v1l2,1h-2l-2,-2h-1l-1,-1h1h-2v1l-1,1v1l2,1v1h2v1h1v1h-1l-1,-1h-1v2h1h-3v1h3v1h3l1,1h1l1,1v3l-1,-1h-1l-1,-1h-3v1h-1h1v1h2v1h-1l-1,1v-1h-2l-1,-1v1l2,2v3h1h-2l-1,-1h-1l-1,1v1l-1,-1v-1l-2,-2v1h-1v1l-2,-2l1,-1l-2,-2h-1v-1h-1l2,-1v-1h1v1l1,-1h4l2,1h4v-1h-2l-2,-1h-6v1h-1l-1,-1l-1,1v-1h-1v-1l-1,-1h2v-1h-4v-1h-1l-1,-1v-1h-1v-1l-1,-1l-2,-1h-1h1v-1l-1,-1h1v-1l1,-1v-2h1v-1l-1,-1h-1l-1,-1h-1l-2,-1h1h-1l-1,-1h-2l-1,-1h-2l-1,-1h-1l-1,-1h-2l-1,-1h-1l-1,1h-1v-1h-1v-1h-1l-2,-1v-1h1l-2,-1v-1l1,-1h-1l-1,-1h-2v1l-1,1h-2l-1,-1v-2h2l-1,-1l-1,1h-3l-1,1h-3l-1,1l1,1v1h-1l-1,1v2h1l1,1h1l2,1h1l1,1v2l3,3l2,1h8v1h-1l-1,1h1l6,2h1l1,1l3,1h1l2,1v2l-1,1h-1l-2,-2h-2l-1,-1h-2l-1,1l-2,1l-1,1v1h2l1,1h1l-1,2h1l-1,1h-2l-1,1h-1v2l-2,1h-1l-1,1h-3v-1h1l2,-2v-1h2v-1h-1v-3l-1,-2l-1,-1l-1,1h-1l-2,-1v-1h1v-1h-3v-1h-3v-1l-1,-1h-3l-1,1v-1h-3l-2,-2l-2,-1l-1,-1h-2v-1l-1,-1h-1v-1h-1v-4h-3l-2,-1h-4l-4,2l-1,1h-3l-1,1h-1l-2,1l-1,1h-1v1h-9v-1h-1v1h-4v-1h-1l-1,1l-4,2h-1l-1,1v3h-1v2h-1l-1,1l-5,2l-1,1h-1l-3,1h-2l-1,1l-2,1h-1h1v1h-2l-2,2l-2,1l-4,4h-1v3h2l-2,2l-2,1h-2v1h-1v1l-2,2v1h-3l-3,1l-4,4h-2l-1,1h-4l-1,1h-3l-3,1h-1l-1,1h-2l-1,1h-1l-1,1v1h-1l-1,1h-1l-1,-1h-1v-1h1v-1h-1l1,-1h1v-1l-1,1l-1,-1h-1v-1l-1,1h-3l-2,2h-1v-1l-2,1h-2l-1,1v-1l2,-2v-1l1,-1v-1l2,-2h1v-1h-1l-1,1h-1v-1h1v-1h1l1,-1l-1,1h-1v1h-1v-1l2,-2v-1h1l3,-3l2,-1v-1l3,-3v-1h1v-2l1,-1v-1l1,-1v-1h1l1,-1h-1h1v-1h-1l1,-1v-1l1,-1h1l1,-1h1l1,-1h1l1,-1h1l1,-1h7l1,-1h10l1,-1h2l1,-1l1,1h1l1,-1h5l1,-1h1l1,-1l3,-2l2,-2v-1h1h-1l4,-4l1,1l-1,1h1v-2l-1,-1h1v-2h1h-2l-1,-1v-1h-1h1v-2h-1l1,-1h-1l-1,1v-1h1h-8v-1h2v-1h-1l1,-1h3l1,-1h2l1,-1h1l1,1h2l1,-1h3v-1l2,-1l-1,-1l1,-1h1l1,-1h1l-1,1v1l1,-1h6l1,-1h1h-2l1,-1l3,-1h3l1,-1h1v-1h1l1,-2h2l1,-1h3l3,-1l1,-1h5v-1h-1l-1,1h-1v-1h3v-1h1v-1h1l1,-1h1l2,-2h2l1,-1h1l1,-1h3l1,-1h5v-1h3l2,-1v1h2v-1h2l2,-1l1,1h1h-1l-1,-1h-1v-1h-1h2v-2h6v1h-1h5l-1,1h-1h5v-1h3l2,-1h2l1,1h2v1h3l-1,-1h2l3,-1h5v-1h2l2,-1h2l3,-1h3l1,1h1h-1l1,1l2,-1h3v-1h3l1,-1h1l1,-1h1v-1v1h-1l-1,1h-1l1,1h1l1,-1v-1h1l-1,-1v-1l1,-1v-1h1v-1h1l2,-1h2l2,-1v1h2l1,1h4l1,-1Z"/>
<path class="sl" d="M110,813l-1,-1v-1l-1,-1h-1v-1l-2,-2l-2,-3l-2,-2v-1l-2,-2v-1l-2,-2l-2,-3l-2,-2v-1l-2,-2l-1,-2l-2,-2v-1l-1,-1v-1l-3,-3v-1l-2,-2v-1l-1,-1v-1l-2,-2v-1l-2,-2v-1l-2,-2v-1l-1,-1v-1l-2,-2v-1l-1,-1v-1l-2,-2v-1l-1,-1v-1l-2,-2v-1l-1,-1v-1l-2,-2v-2l-2,-2v-1l-1,-1v-1l-1,-1v-1l-1,-1v-1l-1,-1v-1l-2,-2v-2l-2,-2v-2l-2,-2v-1l-1,-1v-2l-1,-1v-1l-1,-1v-1l-1,-1v-1l-1,-1v-1l-1,-1v-2l-2,-2v-2l-1,-1v-1l-1,-1v-2l-2,-2v-2l-1,-1v-1l-1,-1v-2l-1,-1v-2l-1,-1v-1l-1,-1v-2l-1,-1v-1l-1,-1v-1l-1,-1v-2l-1,-1v-2l-1,-1v-3l-1,-1v-1l-1,-1v-2l-1,-1v-2l-1,-1v-2l-1,-1v-2l-1,-1v-2l-1,-1v-2l-1,-1v-3l-1,-1v-2l-1,-1v-3l-1,-1v-2l-1,-1v-3l-1,-1v-3l-1,-1v-3l-1,-1v-3l-1,-1v-4l-1,-1v-3l-1,-1v-4l-1,-1v-4l-1,-1v-4l-1,-1v-4l-1,-1v-5l-1,-1v-6l-1,-1v-6l-1,-1v-6l-1,-1v-9l-1,-1v-9l-1,-1v-16l-1,-1v-44l1,-1v-15l1,-1v-10l1,-1v-9l1,-1v-7l1,-1v-5l1,-1v-1v1h-1v7l-1,2v1v-1l1,-1v1v1h-1v3l1,-1v1v-2l1,-1v-2h1v1v-1l1,1v-1v2l1,1v4h1v18h1v6l-1,1v6l-1,2v3h-1v10l-1,1v4l-1,1l1,-1v1l1,-1v-5l1,-1v-1v3l1,1v1h1v-1v1l1,-1v-2v1l1,-1v-3h1v-8h1v-2l1,1v-1h1v1h1v-1v1h1l2,2v1v-2h1v1l1,1v3h-1v1h1v-1v4l1,-2v-1v1h1v-1l1,-1v-1h2l1,1l1,-1h2l1,-1h1l1,-2h2l1,1h1l1,1v1l1,1h1v1h1l1,2l1,1v2h1l1,1h1l1,1l1,-1h1l1,-1h2v1l1,2v3l1,2v2l1,3v2h1v7l1,1v4l-1,4v7l-1,1v4l-1,2v2l-1,1v1l-1,2v4l-1,1v1l1,1v5l-1,4v5h-1v-1l-1,-1v3l1,1l-1,2v2l1,1v-1v2l1,2v1v-1l1,6l1,2v2l1,3l1,2v3l1,3v2l1,3v2l1,3v6l1,3v2l2,3v7l1,2v10l1,2v1l1,2l1,1l-1,1v8l1,1h-1l-2,2v-1l-1,-1v1l1,1l-1,1v1l-1,1v-1l1,-1h-1l-1,1v1l-1,1l1,1v6h-1v1l-1,4v1l1,3v6l1,1v2h-1l1,1h-1v1h1l1,2v1l1,2v1l1,1v1l1,1l1,2v1h1v2h1v2l2,4l1,1v1l1,1v2l1,2v2l2,7l2,5l3,6v1l1,2v3l1,2v1l1,1l-1,-1v-1h-1v-1l1,1v-1h-1l1,-1l-2,-4l-1,-1v-2l-1,-1v-1l-1,-2v-1l-1,-1v1h-1v-1h-1l2,2v1l1,1v1l1,1v1l1,1v3l1,1v1l1,1v1l1,1v1h1v2l1,1l2,3l1,2v1l1,2l1,3v1l1,1l1,2v1l1,2v1l1,1v3l-1,-1v2h-2l-1,-1v1h-1v-1l-4,-4l-1,-2l-1,-1v-1l-2,-2l-1,-2l2,3l1,1v1l1,1l2,3v1h1v2h1v1h1v1l2,2h1l1,1h1l1,1v1l2,4h1v1l1,1h1v-1v1l2,2v1l1,1l2,4l3,3l1,2l2,6l1,2v5h-1h1v1l2,2h1v1h1l1,2v1h1l1,2l4,4l1,2v1l1,1h-2l6,6l1,2h1v1h1v1v-2h-1v-1h-1h1l3,3v1l1,1l-1,-1v1l1,1h1l1,1v1l2,2v1h1l1,1l1,2h1l1,1v1h1l1,2l2,2v1h1v1h1v1l9,9l2,1h1v-1v1h1l1,2h1v1h1v1v-1v1h1v1h1l2,2v1l1,1h1v1l4,4h1l4,4h-1h1v1h1v1v-1l3,3h1v1l1,1h1l1,1h1l3,3h1l1,1l2,1v1h1h-1l2,2h1v1l3,3h1l2,1l3,3h1v1h-1l-2,-2h-1h1l-2,-2h-1v-1h-1l4,4h1l1,1h-1v-1h-1v-1h-2v-1h-1v-1v1v-1l-1,-1h-1h1h-1v-1v1h1h-1l1,1h1v1l1,1h1v1h1l-1,-1h-1v-1h-1l-1,-1h-1h1l1,1h-1h1l1,1h-1v-1h-1l-1,-1h-1v-1h1h-2v-1l1,1v-1h-1l-1,-1h-1h2v1h1v1v-1h-1v-1h-1l-2,-2h-1h1v1h1l2,2h-1v-1h-1h1h-1h1h-1l-2,-2h-1l-1,-1h-1l-2,-2h-1v-1l2,2h1h-1l-1,-1v-1h-1l2,1v1v-1h-1l-1,-1h-1l-3,-3h-1v-1h-1v-1h-1l-2,-2h-1h1l1,1h1v1h1h-1l-3,-3l-2,-1v-1h-1h1h-2v-1l-3,-3l-2,-1h1v1h1v1h1v1v-1h-1l-1,-1v-1h-1l-3,-3h-1v-1v1h1h-1l-1,-1l1,1h1v1h1v1v-1h-1v-1l-2,-1l-2,-2h-1v-1l-1,-1h-1v-1l-1,-1h-1v-1h-1v-1v1h1l1,2h1l2,2h1h-1l-2,-2h1l3,3v1v-1h-1v-1h-1l-3,-3h-1v-1l-2,-2h-1v-1h-1v-1h-1v-1l-2,-2h-1l-1,-1v-1l-2,-2h-1l-5,-5v-1h-1v-1h-1l-1,-1v-1l-1,-1h-1l1,1v-1l-2,-2h-1v-1l-1,-1l1,2h1v1v-1h-1v-1v1v-1l-3,-3h-1l-2,-3l-1,-1l-1,-2h-1l-1,-1v-1l-3,-2l-1,-2l-3,-3v-1l-5,-5v-1l-1,-1Z"/>
<path class="sp" d="M88,783l-1,-1M84,777l-2,-2v-1l-1,-1v-1l-2,-2v-1l-2,-2v-1l-2,-2v-1l-1,-1v-1l-2,-2v-1l-1,-1v-1l-2,-2v-1l-1,-1v-1l-2,-2v-1l-1,-1v-1l-2,-2v-2l-2,-2v-1l-1,-1v-1l-1,-1v-1l-1,-1v-1l-1,-1v-1l-2,-2v-2l-2,-2v-2l-2,-2v-1l-1,-1v-2l-1,-1v-1l-1,-1v-1l-1,-1v-1l-1,-1v-1l-1,-1v-2l-2,-2v-2l-1,-1v-1l-1,-1v-2l-2,-2v-2l-1,-1v-1l-1,-1v-2l-1,-1v-2l-1,-1v-1l-1,-1v-2l-1,-1v-1l-1,-1v-1l-1,-1v-2l-1,-1v-2l-1,-1v-3l-1,-1v-1l-1,-1v-2l-1,-1v-2l-1,-1v-2l-1,-1v-2l-1,-1v-2l-1,-1v-2l-1,-1v-3l-1,-1v-2l-1,-1v-3l-1,-1v-2l-1,-1v-3l-1,-1v-3l-1,-1v-3l-1,-1v-3l-1,-1v-4l-1,-1v-3l-1,-1v-4l-1,-1v-4l-1,-1v-4l-1,-1v-4l-1,-1v-5l-1,-1v-6l-1,-1v-6l-1,-1v-6l-1,-1v-9l-1,-1v-9l-1,-1v-16l-1,-1v-44l1,-1v-15l1,-1v-10l1,-1v-9l1,-1v-7l1,-1v-5l1,-1v-1M113,817l-1,-1v-1l-2,-2"/>
<path class="sl" d="M604,465l1,1v1l-1,1h1v1l-1,1h1l-1,1v1l-1,1l1,1v12h-1v1h1v11h1l-1,1v2l1,-1h1v3h-1l-1,1v3l-1,2l-4,4v1l-1,1h-2l1,2h-1l-1,1l-3,2h-1l-1,1h-1l-1,1h-2l-2,1h-2l-1,1h-1l-3,2l-4,2v1h-1v1l-2,2l-1,2h-1l-1,1v1l-1,-1v2l-1,-1l-2,2l-2,1l-2,3l-4,2v1l-1,-1h-1v-1v1h1l-1,1v6l2,2l1,3v2l1,2v7h1v-2h1v2l-1,2v1l1,2l-1,2l-1,4v1l1,1v1l-1,1l-1,2l-2,2l-4,2l-6,2l-2,1h-2l-3,2l-1,1l-1,2v1h-1l1,1v1h1v1l1,-1l-1,6v2l-1,3l-1,1l-1,5l-1,3l-1,1l-2,1v1h-2l-3,4l-2,2l-2,4l-2,3l-1,2l-2,2l-2,3l-1,1h-1l-2,2l-2,3l-5,5l-2,1l-3,3l-3,2l-6,3h-6l-1,1v2h-1l-2,-1h-1l-1,1v1h-2l-3,-1h-13l-1,1l-3,2h-3l-1,1l-1,-1h-2v1h-2l-1,1l-3,2h-2l-2,-1h-1v-2h-3v-2h-1v-1h-1l-1,1v1l-1,-1v-2h1v-1h-1l-1,-2v-1h-1l-1,-2l-1,-1l-1,-2h1v-1l1,1l2,-2l-1,-2v-2l-1,-3l-9,-13l-2,-6l-4,-6h-1v-1l-3,-2l-3,-3l-3,-4v-1l-1,-3l-1,-1v-3h-1l-1,-1v-3l-1,-2v-2l-1,-1v-3l-2,-4l-1,-3l-1,-6v-2l-1,-2v-1h1v-2l-2,-4l-4,-5l-1,-1l-5,-8l-1,-3l-1,-1l-5,-10l-2,-1l-2,-2l-1,-2l-2,-2v-13l-1,-6v-1h1v-1l1,-1v-2l2,-11v-3l5,-10l2,-1l2,-2v-1l1,-3v-8l-1,-1v-1l-2,-2v-2l-2,-2v-1l-1,-1v-3l-1,-1l-1,-2l1,-1v1l2,-3v-3l-2,-5l-2,-4l-1,-3l-3,-5l-1,-1v-1h2l4,-2l-1,-1l-2,2h-2l-1,-1h-1v-1l-1,-1v-1h1l-1,-1v-1l-1,-2l-2,-2v-2l-3,-3h-1l-2,-2v-1l-2,-2l-2,-1v-1l-2,-2l-3,-2l-2,-2l2,1v-1h-1v-1h-2l-1,-1v-1l-1,-1l1,-1h-2v-1l-1,-2l-1,-1v-1l2,3h1l1,-1h-2v-1h-1l-1,-1l-1,-2l-1,-1l-1,-2h3l1,-1l1,-2v-6h1v2h3l2,-1h-2l-2,-1h-1v-1l-1,-1l2,-1v1h1v-2l-1,-1v-1h-1v-2l1,-1v-1h1v-2l1,-1v-6l1,-1v-5l-2,-2l1,-1l-1,1v-1l-1,-1h2v-1h-1v-1h-1v1h-2l-1,-1h-1v-1h-1v-3h-2v1h-1v-2h-1l-1,-1v3h-2l-2,1h-1l-1,-1h-1l-1,1l-2,-2v1h1v1l-1,1h-1l-1,-1v-1v3h-2v-1v1h-1l-1,1v-2l-1,1v1h-1l-1,-1h-1l-2,-2v-1l-1,-1v-4h1h-2l-1,-1h2v-1h-1l-1,1v-1l-5,-5h-3l-5,1v-1h1l1,-1l-2,1l-1,1l-5,1l-7,2h-2l-2,1l-1,1h-1v1l-2,2h-4l-5,3l-1,1l-2,1l-1,1h-2l-3,2l-2,2l-2,1l-2,-1h-5l-1,-1h1h-1v-2h-1v2h-8l-1,1h-1l4,-1l-4,2h-5v1v-1h2l-4,1l-4,2l-5,3l-2,2h-1l-2,2h-1l-3,-1h-1l-8,-4l-2,-2l-3,-4h-3v-1h-1v-1l-1,-1h-2l-1,-2l-2,-1h-1l-2,-1h-1v-3h-3v-3h-1v-1l-1,-1h2v-1h1v-1l-1,1h-1v-2h1v-1h-1v-2l-2,-2v-2h-1l-1,-1v-1h-2l-1,-3v-1l-1,-1v-1l-1,1v1h-1l1,-1l-1,-1l1,-1h-1v1v-1h-1v1v-2h-1l2,-2h1v-1h-1v1h-1v-2h2v-1h1h-1l-2,1l-2,2h-1v-2l-1,1h-1v-2h1v-1h-1v1l-2,-1v-1h1v-1h1h-1v-1v1h-1v-2l1,-1v-3l1,-1v1l1,1l1,-1h1v-1h1l1,-1h2v-1l-4,2l-1,1h-1v-2l-1,-1v-1l1,-1h-1v-1l-1,-1v-2h-2v-1l2,-1l5,-7l1,-5l1,-1v-1l1,-3l2,-2l2,-6l1,-2v-7h-1v-1h1l1,-1h-1l2,-4v-1l1,-1l-1,-1v-1h-1v-3h-1l-1,2l1,-4h1l1,-4l1,-2l4,-4l1,-2h1v-2l3,-3l1,-2l-1,1v-1h1l2,-2l3,-4h1l2,-2v-1l2,-4l1,-1l1,-2l2,-2v-1l2,-2h2l1,-2l2,-2l1,-2l6,-6l5,-2l3,-2h1l3,-3l5,-3l4,-4l1,-2l2,-1v-1l1,-1v-3l2,-4l6,-6v-1l1,-1l3,-2l3,-3l7,-3l3,-2l1,-1l2,-1l4,-4l6,-7h2l1,-1v3h1l1,1h2l2,-1h2v-1h3l1,-1h1v1h6l1,-1l2,-1h1l3,-3l4,-1h2l2,-2h1l4,-2l1,-1h2l7,-2h1l2,-1h5l2,-1l7,-1l1,1h2l4,-2h1l1,-1h6v-1h1l1,1h4l3,-1h1l2,-1h1l4,-2l1,1h-1v1l1,-1h2l-1,1l1,1h1l1,-1h1l2,-1v1l-2,2l-2,1v1h-1v2h1v1h2v2l-1,2h-1l-3,3l-3,1l-1,1v2h1l1,1l2,-1v1h2v1h1v1h4l3,2h3l3,-1h7v1h2v1h5l1,1v3l2,2h7l8,2l5,3h5l2,-1h1l3,-2l1,-1v-2l-1,-1v-3l1,-1v-1l4,-2l5,-1l1,-1h8l2,1h2l1,1l-1,1l2,1h4l1,1h7l1,1v1h1l1,1l4,-1h4l2,1h4l2,1h2l1,1h4l2,1h2v1h1l1,-1h1l1,-1l3,-1h2l1,-1h2l2,-1l-3,1h4v-1h1l3,1h2v-1l2,2l-2,-1l-1,1h2l1,1h1v-1h1l1,1h10l2,-1h1v1l1,1v1l1,2v1l2,2l1,2v1l1,1h-1v1l-2,6v2l-1,1h-2l-2,-2l-2,-1l-1,-1l-2,-1v-1l-1,-2l-2,-2v-1h-1v-2l-1,-1h-1v1l-1,1l3,3v2l1,1v1h1l2,2l2,1l1,1v2l1,1v1h1l1,1v1l1,3l3,4l2,2l2,4l3,4l3,3h1l1,1h-2v3l2,4l1,1h1l2,1l2,2l3,2l1,1v3l3,3v1v-1h-1v1l1,1v5l1,3v1l1,4l1,2h1l1,1l2,1l1,1h1v1h1l2,2h1l3,4l2,6l1,4v2l1,1l1,2h1l1,2l1,1v-3l2,2v1l1,1h1l1,1h2l1,1l3,1l3,4l2,2l5,3l1,1v2h1l3,3h2v1l3,3v3h-1l-4,2l-1,1h-1h5l1,1l2,1l1,3l2,2l3,2h1l1,1h4l4,-1l2,-1l1,-1l2,1h2l2,1h1l3,-1l2,-2h2l2,1h2l3,-1h8l2,-1h4l2,-1l2,-2h1l3,2v2l-1,2l1,2v5l1,-1h1v1h-3v7l-1,2l-1,1l-1,2l-1,1v1l-2,3l-1,1l-1,3l-1,1v2l-2,2l-2,4v2l-3,6l-4,4l-5,7l-12,12l-9,4l-5,4l-3,2l-2,2l-3,1l-6,7h-1v1l-1,1h-1l-1,2l-3,3v1l-1,2l-4,4h-3v1v-1v3h-1v1l-2,1h-3v1l-1,1l1,2l-1,1v1h-1l-1,1v1l-1,2v2h-1v1l-2,3l-1,1h-1v1l-1,2v2l-1,3h-1l-1,3v1l1,1v1l1,2h1v1l1,1v1h2v3h-1v1l-1,2v2l1,1v1l-1,2v2l2,4h-1l2,3v4l1,1v1l-1,1h1l1,1h1l1,1l2,1Z"/>
<path class="sl" d="M586,86h1v-2l-3,-3l-2,-1h-1l-1,-1l-2,-1h-1l-2,-1h-1l1,-1h1l1,1h4l2,1h1l3,1h5l1,1h1l2,1h3v1h-1h6l1,1v-1h2v1h3l1,1v1h1v1h3l1,1h-1v1h1v1h2v1h1v1h-2v-1h-4v-1h-2l-1,-1v1h-1v1h1h-1h1l1,1h1l1,1h-1v1h1l1,1h1l1,1v1h-1l1,1h1l1,1h2l1,1h-1l1,1h1h-1v1h1v1h-3v-1l-3,-3h-4v-1h-2l2,2h1v1h2v1h1l2,1h4l2,-1h1v-1h2v-1h3l1,1h2l-1,1v1h1v1h-1l1,1h1v1h1l1,1h2l1,1v1l3,3h2l1,1h4v1l1,1l2,1l3,1h1l4,2h3l7,-1h2l1,1h-1h2v-1l-2,-2l2,1l1,-1h2v-1l1,-1h2l1,-1l1,1h3v-1h2l1,1h3v1h1v1h2l1,1h2l1,1h3l1,1l2,1h1l2,2h1l2,1l1,1h1l1,2h5v1l2,2v1l1,1v1h1v4l1,1h-1v1h-1h1v1l1,1l-2,-1v2l1,1v1l1,1h2v1h-1v2l1,2l3,3v2h1v2l1,1h2l1,1h2l2,2v3l-1,1l-1,2l-1,1l7,7v1l1,1l2,1h1l4,2h1v2l1,1l1,3v1h1l2,1h1v4l-2,-1h-3v1h-1v1h-2v1l1,1v1h-1v1l1,2v1h-2l-1,-1l-3,-1h-1v-1h-1v1l-3,-1h-1v-1h-2l-1,-1l-1,1l-4,-2h-3l-1,-1h-1l-1,-1l-1,1v-1l-3,-1l-1,-1v-1h-1l-1,-2v-2l-1,-1v-1h-1l-1,-1h-1l-2,-1h-2l-1,1h-2l-1,1h-2l-1,1h-2l-1,-1l-2,-1h-4l-3,-3l-5,-2v-1h-1l-1,-1l-2,-1l-1,-1h-3l-5,-5l-1,-2l-1,-1h-1v-1l-1,-1h-1v-1l-2,-2l-2,-1v-1l-1,-1v-1h-1l-3,1l-1,-1l-2,-1h-1v-1h1v1l1,-1h-3v1h1v1h-2v1h-2l-2,-1h-1l2,2v1h-2l-1,1h3v1l1,2h1l1,1v1l3,3l1,2l1,1v1l2,1h1l2,2h1l1,2l4,2h-1v1h1l1,1v2h-1v1l2,2v1l2,1l1,2l4,4h3v2h2v1h1l2,2h2l2,-1h3l6,2h1l1,-1h2v-1h1v-2l1,-1l2,-1l2,-2v-1l2,-1l1,-1v-2h1v-1l1,1v4l1,1l1,3v1l1,2l2,1l1,2l1,1l2,1l1,1l3,1l1,1h2l2,1h1l2,1l1,1v1h1l2,2l1,2l2,2h2v4l-1,1v2h-1l-2,2l-2,4v1h-2v-2h-1l-1,2v6l1,2v2h-6l-1,1l-1,3l-1,2h-6l-1,1v4h-1l-2,1l-1,-1h-5l-2,1h-5l-3,1l-1,1h-1l-1,1v2l1,1v1l-1,1h-3v1h-1l-2,1h-6l-2,2h-5l-2,1h-1l-3,3h-1l-1,1h-2l-2,-1l-1,1h-2l-1,2h-4l-1,1h-9l-2,2h-2v1l-1,1h-2l-1,-1l-2,1h-5l-1,-1h-2v-1l-2,-3v-5l-2,-1v-4l-1,-2v-1l-1,-1v-1h-2l1,-1v-9h-1v-2h-1l-1,-1v-1l-2,-2v-1l-2,-2l-3,-2v-1l-3,-3l-1,-2l-1,-1v-1l-1,-1l-1,-3h-1v-1h-1v-1h-1l-1,-2l-4,-2h-1l-2,-2l-2,-1l-1,-2l-2,-3v-2l-1,-1v-6h-1v-1l-1,-1h1h-1l-1,-1v-2l-2,-1l-1,-2l-1,-1l-2,-1l-1,-1h-1l-1,-1h-1l-3,-3v-3l-5,-5v-1h-1l-3,-4l-5,-5l-1,-2l-3,-2v-1h-3l-1,1v-1l1,-1v-3l1,-4v-1v1l-1,-1v-1l-1,-2l-2,-2v-1l-1,-2v-1l-1,-1l2,-2h-1l2,-2l1,-2v-2l1,-2v-1h3v-1h2v-1h1h-1v1h-2v1h-3l1,-1v-1l1,-1l1,-2v-2l1,-1h2v-1l-1,-1v-3h-1l-1,-1l1,-2v-1l-1,-1l1,-1h1l1,-1v-1h-1l-1,-1v1h-2v1h-3l-2,-1h-2l-4,2h-1l-1,1h-6l-1,1l-2,-1h-1v-1l-4,-2l-3,-1h-5l-1,2v1h-3l-2,1h-1l-2,-1h-1l-1,-1v-1h-3l-1,-1h-1l-1,1h-1v-1h-2l-1,1h-1v-1h4v-1h1h-7l1,-1h1l-1,-1h-1v-1h-1v-1h1v-1l-2,-1h-3l-1,-1h1v-1h-1v-1h1l1,1v1h3l1,-1h-2l-1,-1h1l1,-1h-2v-1h1l-1,-1l1,-1h-5v-2l2,-2l2,-1h4v1h3l1,-1h-1h1v1l2,-1l3,1v-1h1l1,-1h5l-2,-1h-2l-1,-1h1v-1h1l4,1h10v-1l4,-1l2,-1h1l3,-1h14v1l1,1h5l2,2h4l1,1h5l1,1h12l1,1h2l2,-1h3l2,-1Z"/>
<path class="sl" d="M644,21h-1h1l1,1ZM628,17l-1,-1h-1h1ZM623,15l1,1h3l1,1h3v1h2l2,1h-1h1h-2l-1,-1h-1l1,1h3l2,1h1v-1h-3l-1,-1h-1h1l1,1h3l1,1h2l1,1h3v1h3l1,1h2l1,1h2l1,1h2l1,1h2l1,1h2l1,1h2l1,1h1l1,1h3l1,1h1l1,1h1l1,1h3l1,1h1l1,1h1l1,1h2l1,1h1l1,1h2l1,1h1l1,1h1l1,1h2l1,1h1l1,1h1l1,1h2l1,1h1l1,1h1l1,1h1l1,1h1l1,1h2l2,2h1l1,1h2l1,1h1l1,1h1l2,2h2l2,2h1l1,1h1l1,1h1l1,1h1l1,1h1l2,2h1l1,1h1l1,1h1l2,2h1l1,1h1l2,2h2l2,2h1l3,3h1l1,1h1l2,2h1l2,2h1l1,1h1l2,2h1l2,2h1l2,2h1l3,3h1l2,2h1l3,3h1l2,2h1l3,3h1l3,3h1l5,5h1l3,3h1l4,4h1l3,3v1h1l3,3h1l4,4h1v1l4,4h1l3,3v1h1l22,22v1h1l2,2v1l9,9v1l4,4v1h1l2,2v1l3,3v1l4,4v1l3,3v1l6,6v1l2,2v1l3,3v1l2,2v1l3,3v1l2,2v1l3,3v1l1,1v1l1,1v1l2,2v1l2,2v1l2,2v1l2,2v1l2,2v1l1,1v1l1,1v1l2,2v1l1,1v1l2,2v2l2,2v1l1,1v1l2,2v2l2,2v1l1,1v1l2,2v2l1,1v1l2,2v2l2,2v1l1,1v2l1,1v1l1,1v1l1,1v1l1,1v1l1,1v1l1,1v1l1,1v2l1,1v1l1,1v1l1,1v2l1,1v1l1,1l-1,-1l1,1v1v-1v1v-1v1l-1,-1l1,1v1l1,1v2l1,2v1h1h-1v-2l-1,-1v-1l-1,-1v-1l-1,-1v-2l-1,-1v-1l-1,-1v-1l1,2l-1,-1v-2h-1v-2h-1l1,1v1v-1v1v-1v2h-1l1,2l1,1v2l1,2l-1,-1v1l1,2v1l1,1v3l1,1v1h1v2l1,2l1,1v1l1,1v2l1,1l1,2v2l1,2l1,1v1l1,2v1l1,1v1l1,1v3l1,1v1l1,2v1l1,1v1l1,2v3l1,1v1l1,1v2l1,2v1v2l1,2v2l1,1v4l1,2v3h1v5h-1v1h-1v-2v5l1,1h-1v-1l-1,-3v1l1,3l1,1v1l-1,-1l-1,-3v-1l1,3v6l-1,1v-2l-1,-3v-4l-1,-1l1,-1v-1h-1v-2h-1v-2l-1,-2l-2,-2v-4h-1l1,1h-1v-2l-1,-1v-3l-1,-1v-1v1v-2l-1,-1v-1l-1,-1v-2l-1,-1v-1h-1v-2h-1l-1,-1v-1h-1v-5h-1v-1l-1,-1h-1v1l1,1v4l1,3v6l1,2v8l1,2v2l1,2v2h1l1,1v5h1v2l1,2l1,8l1,1l-1,-1v-3l-1,-1v2l1,2v1h1v1l1,1v2h1v1l1,1l1,3v3h1l-1,1v1v-1h-1v1h-1v-5h-1v-3h-1v-1l-1,-1v-1v2l-1,-3v-3l-1,-1v-1l-1,-1v-2l-1,-1v-3h-1v-1l-1,-2v-1v1h-1v-3l-1,-2v-10h-1v-2l-1,-3h1v-2l-1,-1v-5h-1v-4h-1v-4l-1,-1v-3l-1,-1l-2,-4v-2v2v-2l-1,-1v-2l-1,-2v-2h-1v-1l-1,-3v-2l-2,-3v-3h-1v-3h-1v-1l-1,-1v-1l-1,-2v-1h-1v-1l-1,-1l1,1v3l1,1v1h-1l-1,-1v-1v1l1,1v1h-1v3h-1v-1h-1l-1,-2v-1v1l-1,-1v-1l-1,1v-1l-1,-3v-3l-1,-2v-3l-1,-1v-1l-1,-3l-2,-3l-1,-2l1,1l-2,-4v-1v2l-2,-2l-1,-2h1l1,1v1v-2h-1v-1l-1,-1v-1l-1,-1v-1h-1v-1h-1l1,2l-1,-2v-1l-1,-1v-1v1l-1,-1v-1v2l-2,-4v-1h-1v-1l-2,-2l-1,-3v-1l-2,-4l-1,-1v-1l-1,-1l-1,-2l-1,-1v1h-1l-1,-1l-1,-2v-1l-1,-1v-2h-1v-1v1h-1l2,2v1l1,1v2h1v2h1v4l-1,-1v-2h-1v1v-2l-1,-1v-1v2l1,1v2h-1v-2l-1,-2v2l1,1v1h-1v-1l-1,-1v-2v3l1,1h-1v-1v1v-1h-1v-2l-1,-1v2h1v1h-1v-1h-1h1v1l-1,-1v-1l-1,-2l-1,-1v-1l-1,-1l1,1v1l1,1v2h-3v3l1,1l1,2v3h-1v1h-1h1v1h-3v-1l-1,-1v2h1l-1,1l-1,2v3l-1,2l-2,1v2l-1,1v1h-2l-1,1v1l1,1v2l-1,1h-1l-2,-1l-1,1v3h-1v-1h-2l-1,3l1,2v2l1,2v3l1,1l1,2v1l1,2h-1v-1l-1,-1v1h1l1,1v11l-1,2l1,1v3h1v4l1,3h-3v2l-1,2v3h1l2,2l-2,-1l-1,-1l-3,1l-1,1v4l-1,1h-1l-1,1l-1,-1l-1,-2l-1,-1l-3,-4v-1l-1,-1v-2l-1,-2v-1l-1,-3v1h1v3h1l-1,-3l-1,-1v-2l-1,-1v-1l-2,-3v-2l-2,-3v-1l-1,-2l-2,-2v-1h-1l-3,-7v-2l-2,-3v-2l-1,-1v-2l-1,-1l-1,-2v-1l-1,-1v-1l-2,-2v-1l-1,-2l-1,-1l1,1l-1,-1v-2h-1l-1,-2l-1,-1v-1l-1,-2l-3,-9v-1l-2,-2v-1l-2,-4v-4l-1,1v-1l-1,-1v-1l1,1l-1,-1v-1l-1,-1v-1l-1,-1v-6l-1,-1v-2h-1v-1l-1,-1v-2h1h-1l-2,-2h1h-1v-2h1l-1,-1h-2v2h-1h1l-1,1h1l1,1v4h-2l-1,1h-4l-2,-1l-2,-3h-1l-3,-3l-1,-2l-1,-1l-2,-1l-2,-2v-2h1v1h1v1l1,-1h4v-3h1l-1,-1v1h-3v1h-1l-6,-4l-2,-2l-1,-2l1,-1h-1l-1,1l-1,-1v-1v1l-1,-1h-1v-1v1h-1l-2,-2v-1h-1l-1,-1v-1l-2,-3l-3,-1v-2l-4,-4l-1,1h2l1,1h-1v-1h-11l-3,-1v-1h-4v1l-1,-1h-2l-2,-1h-1l-1,1l-1,-1h-4v-1l-1,-2v-1h1v-1l-1,-1v-1h2v-1h1v-1h3l2,1v-4h-1l-2,-1h-1v-1l-1,-3l-1,-1v-2h-1l-4,-2h-1l-2,-1l-1,-1v-1l-7,-7l1,-1l1,-2l1,-1v-3l-2,-2h-2l-1,-1h-2l-1,-1v-2h-1v-2l-3,-3l-1,-2v-2h1v-1h-2l-1,-1v-1l-1,-1v-2l2,1l-1,-1v-1h-1h1v-1h1l-1,-1v-4h-1v-1l-1,-1v-1l-2,-2v-1h-5l-1,-2h-1l-1,-1l-2,-1h-1l-2,-2h-1l-2,-1l-1,-1h-3l-1,-1h-2l-1,-1h-2v-1h-1v-1h-3l-1,-1h-2v1h-3l-1,-1l-1,1h-2l-1,1v1h-2l-1,1l-2,-1l-1,-2l-1,-1v-2l-1,-1v-2h-1v-1h-1v-1h-1l-1,-1h-2v-1h2l-1,-1v-1h-3l-1,-1v1l1,1v-1h-1l-2,-2v-3h2l1,1h2l1,1h3v-1h-1h3l-2,-2l-2,-1h-1l-4,-4h-4l-1,1v1h1v1l1,1l-2,-2l-2,-1l-1,-1v-4h-3l-1,-1h-2l-1,-1h-2v-1l-2,-2h-1l-1,-1l-1,-2h-3l-1,-1v-1h3l1,1h2l-1,-1h-2v-1h1v-1h8l1,1h1v-1h-2l-1,-1h1v-2l-1,-1v-1h-1v-1h-1v-1h-3l-1,1l-1,-1h-2v-1h-7v1h-5v1h-1v1h-1v1l-1,-1h-1l-1,1h-3v1h-1l1,1h-1v2l-1,-1v1h-1v1h2v1h2v1h1l1,1v1v-1h1v4h1l2,2l3,2h1v1l1,1h2v1h2l1,2h1v1h1v1l2,1h1l1,1h2l1,1h1l1,1h-5v6h-1v-1l-1,1v1l1,2h-2l-1,-1h-1v-1h-1l-1,-1h1v-1h-1v-1l1,-1h-2l-1,-1h-3v1h-2v1h-1l-2,1v-1h-1v-1h1h-1l-1,-1h1l-1,-1h-2l-1,-1h-1l-1,-1h-1h2v-1l-1,-1h-1l-1,-1h-1v-1h1l-1,-1h-1l-1,-1h-1h1h-1v-1h1v-1l1,1h2v1h4v1h2v-1h-1v-1h-2v-1h-1v-1h1l-1,-1h-3v-1h-1v-1l-1,-1h-3v-1h-2v1l-1,-1h-5v-1h-3l-2,-1h-1l-1,-1h-5l-3,-1h-1l-2,-1h-4l-1,-1h-1l-1,1h-1l-2,-2l-2,-1l-4,-1v-1h-3l-3,-2v1l-1,-1h-2v-1h-2l-2,-1h1v-1h-1h1l1,1h1l3,-1h-1v-1h1l1,-1h1v-1h1v1h1l-1,-1l-2,-1h-1l-1,-1h4v-1h4v-1h-6v-2h2l1,-1h2l1,1h2v-2h1h-1v-1h-1v-1h1h-1v-1h-1h2v-2h-2l-1,-1h-4l-1,-1h-5l-1,-1h-1l-1,-1h-4v1h-1v-1h-6v-2h-1v-1h-5l-1,-1h-1v-1h1l-2,-2h-13v-2h-1h1h-1l-1,-1h6v-1h1l-1,-1h-4v-1h1h-2l-1,-1h-1v-1h-1h1h-1l-1,-1h1v-1h-1v-1h-2v-1h-4v1h-1v-1h-6v-1l-1,-1h-1v-1h-1h1v-1h-2v-1h1v-2l-1,-1h2v-1h1v-1h5v-1l2,1h2v-1h-6l-1,-1h1h-8l-1,1v-1h-1v1h-1v-1h-1v1h1h-7v1h-7v-1v1h-2v-1h1h-1h1h-5v-1l1,-1v-1h1h-1v-2h2v-1h4v-1h4l1,-1h3v-1h3v-1h1h-13v1h-3v1h1h-1l-1,1h-3v1h-5l-1,1h-4v1v-1l-1,1v-1v1h-3l1,1h-1v1h-2v2h-1h3l1,1h3v1h-2l-1,1h-1h1h-1v1h-4l-1,1h-3v1h-1v1h-1v1l-3,3h-1l-1,1h-6v1h-3v1l-1,1h-6l1,-1l-1,-1h1v-1h1v-1h-1l-1,-1v-1h-1l1,-1h-1v-1h-1h1v-1h1v-1l1,1v-1h-3l1,-1h-1v1h-1l-1,1h-4l-1,1h-1l-1,1l-3,1h-3l-2,1h-3v-1h-3v-1h2l1,-1h2v-1h1h-1l-1,1h-3l-1,1l2,-2h2l2,-1h1l1,-1h1h-1v1l1,-1h-2l-1,1h-2l-1,1h-1v-1h1l1,-1h1h-1v-1h6l1,-1h1v1v-1h2l1,-1l-1,1h-5l-2,1h-2l1,-1h1h-1h1v-1h2l1,-1h5v-1l-1,1h-1l1,-1h5l1,-1h1l-2,1h-3l1,-1h6v-1h2l1,-1h1v1l1,-1h6l1,-1h1h-2l-2,1h-1v-1h2l2,-1h4v-1l-1,1v-1h6l1,-1h-1l-1,1h-1v-1h3v-1h3v-1h4l1,-1h4l1,-1l-1,1h-1v-1h6l1,-1h2h-1h3l2,-1h8l1,-1h11v-1h4v1h1l1,-1h1v1h-1h2v-1h1h-1h3l-1,1h2v-1h2v1h12l-1,1l-2,-1l1,1h13l4,1h4l3,1h1h-1h5l1,1h1v1h-15l-4,-1h-7l-1,-1h-2l1,1h5l1,1h1v1h-1h2l1,1h4l1,1h3l2,1l1,-1h1h-3l-1,-1h-2l1,-1h2l2,1h4l2,1h1v-1h1l1,1v-1h-3v-1h4l1,-1h3v1h5v-1h-3v-1h-1v-1h3l2,1h3l1,1h-1l-1,-1h-2l-1,1h4l1,1h5v-1h-1h10l1,1h1l-1,-1h2l1,1h1h-1h1h-1h4v1h10v1h4v1h1v-1h-1h1h-1l-3,-1h-1h1l3,1h4l3,1h1l2,1h3l1,1h4l2,1h2l1,1l-1,-1h-3l-1,-1h-3l-2,-1h-2l-1,-1h-4v-1h-1h1l1,1h3l1,1h4l1,1h3l1,1h3l1,1h1Z"/>
<path class="sp" d="M642,21h2l1,1M626,16h1l1,1M632,18h2l1,1h3l1,1h2M646,22h2l1,1h2l1,1h2l1,1h2l1,1h2l1,1h2l1,1h2l1,1h1l1,1h3l1,1h1l1,1h1l1,1h3l1,1h1l1,1h1l1,1h2l1,1h1l1,1h2l1,1h1l1,1h1l1,1h2l1,1h1l1,1h1l1,1h2l1,1h1l1,1h1l1,1h1l1,1h1l1,1h2l2,2h1l1,1h2l1,1h1l1,1h1l2,2h2l2,2h1l1,1h1l1,1h1l1,1h1l1,1h1l2,2h1l1,1h1l1,1h1l2,2h1l1,1h1l2,2h2l2,2h1l3,3h1l1,1h1l2,2h1l2,2h1l1,1h1l2,2h1l2,2h1l2,2h1l3,3h1l2,2h1l3,3h1l2,2h1l3,3h1l3,3h1l5,5h1l3,3h1l4,4h1l3,3v1h1l3,3h1l4,4h1v1l4,4h1l3,3v1h1l22,22v1h1l2,2v1l9,9v1l4,4v1h1l2,2v1l3,3v1l4,4v1l3,3v1l6,6v1l2,2v1l3,3v1l2,2v1l3,3v1l2,2v1l3,3v1l1,1v1l1,1v1l2,2v1l2,2v1l2,2v1l2,2v1l2,2v1l1,1v1l1,1v1l2,2v1l1,1v1l2,2v2l2,2v1l1,1v1l2,2v2l2,2v1l1,1v1l2,2v2l1,1v1l2,2v2l2,2v1l1,1v2l1,1v1l1,1v1l1,1v1l1,1v1l1,1v1l1,1v1l1,1v2l1,1v1l1,1v1l1,1v2l1,1v1l1,1M600,10h2l1,1h3l1,1h4l1,1h3l1,1h3l1,1h1"/>
<path class="sl" d="M620,253h-1v-1h1ZM622,265l-1,1ZM622,263h-1ZM710,282h4l2,1l-1,1h-6v-1l-2,-1h1v-1h1ZM977,382v1v-1h-1ZM984,402v-1ZM983,389v-1ZM958,305v-1ZM958,303v1v-2ZM959,305v-1ZM959,306l-1,-1v-1v1h1ZM762,118h-2v-1h1v1ZM764,119v-1ZM287,873h-1ZM233,860h2l1,1v-1v1v-1h1v1h1l1,1v-1l2,2h-2l-1,-1h-2v-1l-1,1v-1h-4l1,-1ZM846,471v1v-1l-1,-1l1,1v-1ZM232,531h-1ZM165,474v-1ZM188,873h1v1h1l-1,-1v-1l1,1v1h1v1h1v1l2,2v1h1h-2v-1h-1v-1l-1,-1h-1v-1h-1l-1,-1ZM189,876l-1,-1h1h-1v-1h1v1l3,3v1h1v1h1h-1l-3,-3v1h1h-1v-1h-1v-1h-1ZM191,879h1v1ZM193,876v1ZM188,875v1v-1h-1ZM194,879h-1ZM336,62h-1ZM334,61h-1ZM342,45l-1,1h-1l1,-1h1l1,-1v1ZM341,53h-1l-1,1h-8l-1,1v-1l1,-1h1l2,-1h2v-1h2v-1l1,-1h-1v1h-2l1,-1h2l1,-1h2l1,-1h3v-1h1v-1h1v-1h1h-2v-1l2,-1h2h-4v1h-5v1v-1h1l2,-2h1v-1h1l1,-1h-1l-1,1h-1h1v-1h1h-1l-1,1h-1l-2,2h-1h1l2,-2v1v-1h1v-1h1l1,-1h1l1,-1l-2,1h-1l1,-1h1l1,-1h1h-1l1,-1h1h-1h1l1,-1h2v-1h2v-1h3v-1v1l1,-1h3l1,-1h1v1h-2l-1,1h-2l-1,1h-1h1h-1l-1,1h2l1,-1h4l1,-1h1v1h-1l-1,1h-1l-2,1l-1,1h-2l-1,1h-1h1l-1,1h-1h4v2h-1v1h2v1h1v1h-1v1h-1h1v1l-1,1h-1v1h1v-1h6v1h-1l-1,1h-1l-1,1h-1v1h-2l-1,1h-1v1h1v-1h2v1h-1l-2,1h-2l-1,1h-5l-1,1h-4v1h-4l-1,1h-4l-1,1h-1v1h-5l-1,1h-2v1h-2l1,-1h2v-1h2l2,-1v-1h1l1,-1h1l2,-1h4l1,-1h1v-1h1l1,-1ZM340,48h-1l-1,1v-1h1ZM369,28v1v-1h1ZM380,24h1ZM379,24v1h-1l-1,1h-1h1v-1h-1h2ZM382,23v1h-1ZM365,30h-1ZM366,29h1v1h-2v-1h2ZM368,29v-1ZM343,39v-1h1ZM344,41h-1h2ZM345,39h-1v-1h2ZM342,40v1h-1l-1,1v-1h1h-1h2ZM342,41v-1h2ZM352,33l-1,1h-2v1h-2v-1h3l1,-1ZM346,37h-1ZM348,36h1h-1l-1,1l1,-1l-1,1h-1v-1h1l1,-1h1ZM345,36h-1ZM342,38v-1h1v1ZM334,47h-2v-1h-1v1h-2v1l-1,-1l2,-1h1v-1h1l1,-1h3v-1h3v1h-1v1v-1h1v1h-1l-1,1h-2v1ZM345,55v1h-2l1,-1ZM693,196h-1l1,-1h1v1ZM688,195v-1ZM698,197h-2l1,-1ZM701,196l-1,-1h1ZM523,63h1h-4v-1l1,1ZM664,107l-1,-1v-1ZM485,91h-2v-1h2ZM380,124l-1,1v-1ZM377,130h-2v-1h2ZM972,368v1l-1,-1ZM971,366l-1,-1v-1v1h1ZM966,391l-1,-1v-2l1,1v1ZM968,379v-1ZM968,380l1,1h-1ZM971,405v-1ZM966,391v-1ZM964,381v-1ZM968,395v1v-2ZM597,427l1,2v1h-1v-1h-1v-1h-1v-3l1,-2v2ZM601,417h-1v4h-1v-4h1ZM599,443h-1v-1h1l1,-1v-1v2ZM755,112h-1v-1v1Z"/>
<path class="sl" d="M759,118h-1v-1ZM458,24h-2v1h-2v1h-1v-2h4v-1ZM444,28l-1,1v-1h1l1,-1h1l1,-1v-1h1v1h-2v1ZM458,23v1v-1h1ZM456,21h1ZM458,20h-1l1,-1ZM887,341l-1,-1h1ZM887,346h1h-1v-1ZM887,340h1l1,2l2,3l2,2v2l2,2v2h1v3l2,3v2l1,1v2l1,2v3l-2,2h-1l-1,1h-3l-2,-2l-1,-2v-2l-1,-2l-1,-8l-1,-3v-1l1,2v-12l1,1h1h-1v-1l-1,-1h-1ZM325,109h-1v-1ZM337,102h1v1h-1v1h-3v-1h-1v1h-1v-1l3,-1l1,-1h1ZM344,101l-1,-1h-1h3ZM325,108h-2l1,-1h1l1,-1v1h-1ZM191,190l-1,2l-1,1l-1,-1v-1h1l1,-1l2,-1h1ZM208,183l-1,1v-1l2,-2h1l-1,1v1ZM203,189l-1,1h-1v-1h1l2,-2l1,-2h1v-1v1l-1,2l-1,1ZM196,190v1l-1,1v1h-2v-1l1,-1h2ZM186,194h-1v-1h1ZM181,196l-1,1ZM184,191l-1,1l1,-1v-2h1v1ZM557,767h-1v-1h1ZM984,457v1v-1h1ZM176,341v1v-1h-2v-1h3v1ZM729,426v1h-1v-2ZM568,179l-1,-1l-2,-1h2l1,1h1ZM614,242h1h-1l1,-1v1l1,1h-1v-1l-1,1l-1,-1h-1v-1h1v-1h1v1ZM566,176h-1v-1v1ZM323,367l-1,1v-2h1ZM316,380l-1,1v-3h2v1ZM402,76h1ZM568,5h-1v-1h-1l1,1Z"/>
<path class="sp" d="M561,4h5l1,1h1"/>
<path class="sl" d="M565,4h2v1h5l1,1h4l1,1h1h-1v-1v1h1l-1,-1v1l-1,-1h-6l-1,-1h1h-7v-1h-1h1ZM528,8h-1ZM567,5h1h-2ZM610,12l1,1ZM603,11h1h-2ZM633,19h-1v-1h-1h1v1ZM619,71h-1v-1v1ZM567,6h-6v-1h2l3,1ZM591,9h1h-3v-1h-1h1l1,1ZM532,63h2l1,1h4l1,1h1l2,2h8l-2,2h-2v-1h-2l-1,1h-4l-1,1h-1l-2,1h-2l-2,-1h1v-2l-1,-1h-5l-1,-1h2l2,-1h2l1,-1ZM678,192h-2l-2,-2h1l-2,-4v-1h1v-3h1l1,-1l2,2v3h1v1l1,1v2l-1,2ZM201,162h2v1h-3ZM180,148l-1,1v-1ZM168,143h-1l1,-1ZM179,141l-1,1v-1h2ZM176,143h-1ZM172,144h1ZM174,144h-1v1v-1ZM181,144l2,-1v1h-2l-1,1v-1ZM738,230l-1,-1l1,-1l1,-2v2l-1,1ZM713,192h-1v-1h1ZM405,20h-1ZM403,22h-1ZM505,2h1ZM425,13h-1h2ZM423,14h-1ZM486,2h-1ZM493,1h1h-2ZM487,2h-1ZM488,2h-1ZM454,5h1h-3v1v-1h1ZM450,6h1ZM460,4h-1l-1,1h-1v-1h2ZM475,2h1ZM478,2h-1ZM473,3h1h-1v-1h1ZM445,9h-1l1,-1h1ZM445,8h-1h2ZM438,10v1h-2l1,-1ZM468,3h1h-1v1h-2v-1h1ZM461,4h1h-1v1h-3l2,-1h1h-1h2ZM401,10h2l1,-1h1h-1l-1,1h-1ZM479,0h-1ZM322,344h-1v-1h1ZM373,49v1h-1ZM389,41h-1ZM387,41h-1ZM383,42l-1,1v-1ZM384,42h1v-1ZM381,43h-1ZM373,48v1h-2v-1h1ZM391,40h1ZM372,79l-1,1ZM730,565h-2v-2l2,-2h1v1l1,1l-1,1v1ZM170,251l-1,1v-1l1,-1ZM404,116h-1ZM403,115h-1ZM854,383v-1ZM972,406v-1l1,1v1h1v3h1v5h1v-1h1v1v-1l1,-1h-1v-1l1,1l2,6v1l1,1v2l1,4v9l1,2v6l1,2v3l1,6v1v-1h-1v1h1h-2v-2l-1,-3v-1l-2,-4l-1,-3v-1l-1,-1v-6l-1,-2v-1l-1,-2v-3l-1,-1v-4l-1,-3v-7l-1,-1v-2l-1,-2ZM998,460v-1v1v-1v4l1,2v14l-1,-1v1v-4l-1,-1v3h-1v-1h-1v-6l-1,-1v-2h1v3l1,1v1v-10h1v-7l1,1v1v-3l-1,-1v-1l1,1v1v-1l-1,-1h1v-1h-1v-1l1,1v10Z"/>
<path class="sp" d="M997,441v9l1,1v10"/>
<path class="sl" d="M985,446h-1v-1ZM974,416h-1v-1h1ZM971,406l1,1h-1ZM978,438v-1ZM996,464v-1ZM555,477v-1h1v1ZM555,476v1h-1v-1ZM678,488v2l1,2l1,1v2l1,3v10l2,4v2l-2,4l-1,1l-1,-1v-1l-1,-2v-1h-1l-1,1v5h1v3l-1,1v2l-1,1h-1v1l-1,2v5l-3,6v2l-2,2l-1,4l-4,8l-1,3l-4,8l-2,5v1l-2,4v2l-2,3v1l-1,1l-1,2v1l-1,1v1l-1,1l-1,2l-3,3h-5l-2,1l-1,1h-1l-1,1l-2,-1h-1l-2,-2h-1l-1,-1h-1l-3,-3v-3l-2,-2v-2l1,-1v-3l1,-1l-1,-1v-3l-1,-2h-1v-7l1,-1v-2h1l1,-3l1,-1h1l1,-1v-2l2,-2l2,-4l1,-1v-3l1,-1v-1l-1,-1l-1,-2l1,-2v-1l-1,-1v-1l-1,-2v-3l1,-1l-1,-1v-1l1,-2l4,-6v-4h4l1,-1h1l1,-1v1h3v-1l1,-1h3l1,2h1v-3l1,-1l2,-1l1,-1h1v2h1v-2l2,-2v-2h1l1,1h-1v2h1v-2l1,-1h2l-1,-1v-2l2,-2v-2h-1l1,-1v-1h1l1,1l1,-1h1l1,-1h1l2,-4v-4l2,-2l1,-2l1,1v1l1,1ZM667,495h-1v-1h1ZM677,527l-1,1v-1l2,-2ZM649,157h-1v-1l-1,-1h1v-1v1l1,1ZM610,394v-1h2ZM633,75h-2v-1h1h-1l1,1ZM633,75v-1ZM645,74h-1ZM388,82v1h-2v-1h1ZM407,91h-1ZM414,103l-1,1l-2,1v1l-1,1v1h1l-1,1h1v1h-1l-1,1h-4l-1,-1h-3l-2,-1h-1v-1h-4l-1,-1v-1l1,-1h1v-1l1,1h1l1,-1h2l1,1h4l1,-1h3l1,-1l1,1v-1h1ZM380,92v2h-1l-1,1v1h1h-1v1l-1,3h-1v1h-3l-2,2h-1l-1,-1v-2l1,-1v-1v1l1,-1h-1v-1h1v-3h-1v-1h3l1,-1h1l1,-1h1v-1h1v1h2l-1,1ZM369,102l-1,1v-1ZM371,92h1ZM546,139h1l-2,2v-1h-1ZM318,50h-1ZM334,44h-1l-1,1h-1v1h-1l-2,1l1,1v-1h2v-1h1v1h1h-1h1v1h-1v1h-1v1l-1,1h-1v1h-1l-1,1h-1v1h-4l-1,1h-2v1h-3v1h-2l-1,1l-3,1h-1l1,-1l-2,1h-1h1l1,-1h1l1,-1l-3,1h-1h1l1,-1h1h-1l1,-1h2v-1h3l1,-1h1h-3v1h-1l2,-1l1,-1h1l1,-1h1h-3v-1h1l1,-1h1h-1h1v-1v1v-1h-1h3v-1h4l1,-1h2v-1l-1,1h-1l1,-1h2v-1h1l1,-1h1v1l1,-1h1l1,-1h1l-1,1ZM709,181l-1,1l-1,-1l-1,1h-3v-1l1,1l1,-1h1v-1h4ZM967,442l1,3v1l1,1v4l-1,-1v-2l-1,-1v-3l-1,-2ZM972,473v-1l-1,-1v-6h1v5l1,2v1ZM994,569v1v-5h1v2h-1ZM994,562v5h-1v1v-1l1,-1v-5ZM989,487v8l1,1l-1,1v1l-1,-1v-7l-1,-1v-4h1v1v-1v1h1ZM992,447h-1v-2l1,1ZM992,503v1h-1v1v-6h1v3ZM963,409h1v1h1l1,1v2l1,2v1l1,1l1,2v3l1,1v3h1l1,2l1,3v2l1,2v2l1,1v2l1,1v3l1,1v1v-3l1,2v3l1,1v1l1,2v3l1,1v3l1,1v1l1,1l-2,2h1l1,-1h1v5l-1,1v1l1,1l-1,1l1,2v3h1v4l1,2v8h1v2l1,4v5l-1,1v12l-1,6h-1v-2h-1v-1v2h-1v-6l-1,-3v-4l-1,-1v-2l-1,-3v-5l-1,-1v-3l-1,-1v-6l-1,-1v-6l-1,-6v-5l-1,-2v-3l-1,-2v-2l-1,-1v-2l-1,-1v-5l-1,-4v-4l-2,-3v-1l-1,-1v-3l-1,-1v-2l-1,-1v-2l-1,-3v-1l-1,-1v-1h-1v-2l-1,-1v-2l-2,-4v-1l-1,-1v-1l-1,-3v-3h1v1h1v1l1,2v1h1Z"/>
<path class="sl" d="M994,579v-1Z"/>
<path class="sp" d="M994,574v5"/>
<path class="sl" d="M993,583v3h-1v1l1,-2v-3ZM995,570v3l-1,1v1v-7h1v2h-1v2l1,-1v-2ZM997,551v-1l1,-1v-1v1l-1,1ZM999,532v-1Z"/>
<path class="sp" d="M998,544v5l-1,1v1M999,524v8"/>
<path class="sl" d="M988,527v1l1,1v2h1v7h1v2h1v1v-3h1v5l1,1v7l-1,1v1l1,1v8l-1,2v1v-6h-1v-2l-1,-2v-3l-1,-4v-1l-1,-2v-1h-1v-1l-1,-1v-3l-1,-1v-1l-1,-1l1,-1v-1l-1,-2v-2h-1v-1l1,-1v-1l1,-3v-1v1h1v2h1v-1v1ZM999,467v10l1,1v32h-1v1h1l-1,1v13l-1,1v-10l-1,1v-1v-1v1l-1,-1v1v-7l-1,1v-20l-1,-1v-11l-1,-2v-7h1h-1v-2l1,-1v-1v4l1,1v6h1v-1v2h1v-3l1,1v3l1,1v-14l-1,-2v-2l1,1v4Z"/>
<path class="sp" d="M999,469v1M999,471v6l1,1v12M1000,491v1M998,461l1,1v5"/>
<path class="sl" d="M979,446v2l-1,-1v-1ZM981,457v-1ZM981,453v1v-1l-1,-1v-1ZM982,460v1v-2l-1,-1v-2l1,1v2ZM983,459v1v-1h-1v-2l1,1ZM983,462v-1ZM983,462v-1h1ZM985,459v1h-1v-1ZM986,460v1h-1v-2ZM986,472h1v1l-1,-1v-1ZM986,472v2l-1,1v-2ZM984,471l-1,-1h1ZM994,491v-1ZM995,550h-1v-1v1v-3l1,1v1ZM979,511l-1,-1v-1h1v1ZM975,488v1v-5l1,2v1h-1ZM975,484h-1v-3h1v2ZM974,480v-1l-1,-1v-2h1v3ZM971,461l-1,1v-5l1,1v2ZM964,433v-1h-1l-1,-2v-1l-1,-1v-1h1v1l1,1v1l1,1v1ZM996,552v-1ZM999,528l-1,1l1,-2v-2v2ZM983,459v-1ZM984,461v1ZM985,462v-1ZM986,470v-1ZM988,447v1v-2ZM988,448h-1v-1h1ZM993,455v-1ZM993,493v-1ZM991,501h-1v-1h1ZM990,500h-1v-1ZM995,552v-1ZM995,537v-1ZM984,527v-1ZM967,437l-1,-1v-1l1,1ZM958,402v-1ZM994,576v-1ZM995,571v-1ZM994,568v-1ZM995,569v-1ZM999,525v1ZM952,390v-2h-1v-1h1v2ZM951,386v-1ZM948,377v-1ZM950,381h-1v-2l1,1ZM950,379v1v-1l-1,-1h1ZM946,369l-1,-1h1ZM943,357h-1v-3l1,1v1ZM942,351v-1ZM942,349v1v-1l-1,-1v-7h-1v-5h1v2h-1l1,1l1,3h-1l1,2v4ZM942,346l1,1h-1ZM940,339v-1ZM844,317v-1ZM849,341v-1ZM361,20h1h-1h1h-1v1h-1h1h-1h1h-1l-1,1h-2l-1,1h-2l-1,1h-3l-1,1h-2l-2,1h-1l-1,1h-3v1h-2l-1,1h-4l-1,1h-2l-1,1l1,-1h2v-1h3v-1l-1,1h-1h1l1,-1h1h-1l-1,1l1,-1l-2,1h-1h2v-1h3v-1h2l1,-1h1h-1v1h-3l-1,1h-1h2v-1h2l1,-1h2l1,-1h1h-1h1h-1v1h-1h1h-1h1l1,-1h2l1,-1h2l1,-1h2l1,-1h2l1,-1h4v-1ZM157,318l-1,-1h1v-1h1v1h-1ZM158,317v-1ZM160,316h-1l1,-1ZM161,313v-1h1v1ZM159,314h-1l1,-1ZM159,311l-1,1v-1ZM497,109v1v-1h1ZM448,101h1v1h-2v-1l-1,1v-1h2v-1ZM450,104h-2v-1h1ZM449,99h-1v1v-1l1,-1ZM449,101l-1,-1h1ZM445,95v1v-1h-1l-1,-1v-1h1l1,1h-1v1ZM467,97l1,1h4v1h1l-1,1h1v1h2v1h-2v-1h-1v-1h-3v-1h-1l-1,-1h-3l1,-1h1ZM470,96h-1ZM471,96h-1h1v-1ZM476,98h-1l-1,-1h1ZM477,88l-1,1l-1,-1h1ZM468,102v1h-1v-1ZM464,112h-1v-1ZM493,115l-1,1v-2l1,-1v1l-1,1ZM492,107h-1ZM491,109v-1h1ZM481,107v1l-1,-1l1,-1h1v1ZM480,107h-1v-1h1l-1,1ZM481,110l-1,1v-1ZM480,109l-1,-1h1ZM490,103h1v1h-1v-1h-1ZM485,104h1l1,-1v1h-1ZM484,108h-1h1l1,-1v1ZM488,109h-1v1h-1v-1h1ZM473,104h1ZM474,105l-1,1l1,-1h-1ZM474,109h-1ZM477,105v-1ZM478,103h-2v-1h2l-1,1ZM480,104h-1ZM476,108h-1v-1h1ZM485,101l-1,-1h1l-1,-1h2v1Z"/>
<path class="sl" d="M488,95l1,1h-1l1,1h-1l-2,-1h1h-3v-1h3ZM483,89h-1ZM481,92h-2l1,-1v1h1v-1ZM480,105v-1l1,1ZM474,107v-1ZM497,113h-1l1,-1h-1l1,-1h1l2,-1l-1,1v1h-1ZM469,115h2v1h11v1h3l1,-1v2h-8l-2,1h-1v-1h-1l-1,-1h-6v-2l1,1v-1ZM427,35h-1l-1,1l-1,-1h1v-1h2ZM429,36h-1v1h-1v-1h1ZM415,36h-1l1,-1ZM402,36v-1h1h1h-1ZM403,36h-1ZM382,83v1l-1,2l-1,1v1h-1v1h-1v1l-1,-1h-1v-1h-1h1v-1h-1h1v-1h-1h1v-1l1,-1h2l1,-1h1l1,-1ZM329,75v1v-1h-1ZM642,489h-1v-1h1l-1,-1h1l1,1h-1ZM716,570l-1,1l-2,-2h-1v-2l1,-1h2v1l1,1v1ZM638,770l-1,-1h1ZM465,17h1l-1,1h-1v-1ZM463,18h-1ZM467,18h-1ZM473,17h-1ZM473,11h-1ZM474,17h1h-1h1h-2ZM471,17h-1ZM472,18v-1ZM471,18h1ZM488,8h-1ZM475,21h2v1h-4l-1,1h-1l1,-1h-1h1l-1,-1h1v1v-1h2ZM476,21h-2l-1,-1h3l1,1ZM478,21h-1ZM599,246v1l-1,-1ZM599,249h3v1h-3l-1,-1h1h-1v-2h1v1ZM334,348h1v1l-1,2v1l-1,1l-2,-1v-1h1l1,-1v-2ZM365,24v1v-1h-1ZM363,25h1ZM365,24h-1ZM367,23l-1,1h-1l1,-1ZM368,23h-1ZM424,31v1h-1l-1,1h-2v1h-1v-1h-2v-1h1l1,-1h1v1l2,-2h3ZM409,35h-5v-1h1h-1l-1,-1l3,-3h4v-1v1h1v-1h1h-2l-1,1h-2l1,-1h2l1,-1h2l2,-1h2l2,-1l-1,1v1h-2v1h-1l1,1h1l-1,1l-1,-1v1h-1l-1,1h-2v1h-2v1h-1v1v-1h1ZM415,32v1l-1,1h-3l-1,-1h2l1,-1l1,1v-1ZM417,34h1v1h-3v-1h1ZM413,35v-1h2l-1,1ZM422,34h-1v-1h1ZM424,32v-1ZM412,35h-1v-1ZM410,35h-1v-1h1ZM415,32v-1ZM420,27h-1h2ZM435,33h-1l-1,-1h2ZM541,118h-5l-1,-1v1h-3v-1h1l1,-1h1l1,1h2l3,-1h1l1,-1h1l-3,2h-1ZM532,117v1h3v-1l1,1h5l1,1h-3l-1,1h-4v1v-1h-4l-1,-1v-1h1l1,-1ZM427,79h1ZM430,78h-1ZM428,77l-1,1l-1,-1h3ZM419,74v1v-1h-1ZM418,70l-1,1v-1h-1h1v-1v1ZM418,71v1l-1,-1ZM419,73h-1v-1h-1h2v1h1ZM419,75h-1l-1,-1h1ZM420,75h-1ZM416,72h-1v-2h1h-1h1v1ZM432,80h-1v-1ZM437,80l1,1l-1,-1h-1l-2,-1h-5l1,-1l3,1h1l1,1h1ZM241,348h-1ZM637,481v2h-1l-1,-1h1v-1ZM631,483h-1v-1ZM629,479h-1l-1,-1v-3l1,-1v3l1,1ZM962,310v1h1h-1ZM966,319v1l1,1v2l1,1v2l1,1v3h1h-1l1,1h-1v-2l-1,-1v-2l-1,-1v-1l-1,-1l-1,-3v-3h-1h1v1v-1v1l1,1l-1,-1l1,1l-1,-1ZM199,894l4,2l2,2l4,2l1,2l3,1l1,1h1v1h-1h1v2h-1v-1h-1v-1h-1v-1l1,1v-1h-2v-1h-1l-1,-1h-1v-1h-1l2,1h1v1h1l1,1v-1h-1h1l1,1v-1h-2v-1h-2l-1,-1h-1v-1h-1l-1,-1v-1h-1l1,1h-1v-1h-1l-1,-1h-1v-1h-1h1l-1,-1h-1v-1h-1h1l-1,-1h1Z"/>
<path class="sl" d="M216,903v1h1h-1v1h1h-1v-1h-2v-1h1ZM144,851h1v1l-5,-5v-1h-1v-1h-1v-1h-1l-1,-1v-1v1l1,1h1v1h1v1h1v1h1v1l2,2ZM181,884l3,3h1l1,1h1v1l-1,-1h-1v-1h-1v-1h-1l1,1h1l1,1v1h1h-1v-1h-1l-1,-1v-1h-1l-1,-1h-1v-1h-1v-1h-1v-1h-1h1ZM180,884l-3,-3h-1v-1l-1,-1v1h1l3,3ZM206,902l1,1h1h-1h1h-2l-1,-1ZM177,881h1v1l-2,-2h-1v-1h-1v-1h-1l1,1h1l1,1ZM208,903l1,1v-1h-1h1v1h1l1,1h1v1l-1,-1l1,1h-1v-1h-2l-1,-1ZM198,897l1,1h1l2,2h-1v-1h-1l-1,-1h-1ZM215,906l1,-1h-1v-1v1h2v1h2v1h1h-2l-1,-1l2,2h-1v-1h-1h1h-1ZM210,904h2v1h1h-1h1v1l-1,-1h-1ZM150,857h1v1h1v1h1v1h1v1h1v1h1v1h1l-1,-1h-1l-1,-1v-1h-1v-1h-1v-1h-1l-1,-1v-1h-1h1ZM152,858l1,1h-1v-1h-1v-1h-1v-1h-1h1l1,1v1ZM155,862v-1ZM192,893h1h-1l-1,-1ZM180,883v1l1,1h1l1,1h-1v-1h-1v-1h-1v-1h-1ZM173,878h1h-1l-1,-1h1ZM153,859v1v-1h-1v-1h-1h1v1ZM195,895h1v1l1,1h1h-1l-1,-1ZM189,891h1h-1v-1h-1v-1v1h1ZM147,854h1v1v-1ZM199,897v1v-1h-1ZM159,865v1h1h-1v-1h-1v-1l-1,-1h-1v-1l2,2v1ZM221,907v1ZM216,903h-1ZM216,907h1h-1h1l1,1h-1l-1,-1v1h1h-1ZM220,907v-1h-1h1ZM116,286v1h-1v-1l2,-2v1ZM121,298v1h-1v-2h1ZM117,287h-1l1,-1ZM126,288h1v1l-1,1v-1ZM116,301v-1h1ZM121,287h-1v1h-1v-1h1ZM127,285v-1ZM123,297h-1l1,-1v-1v1ZM973,373v-1ZM975,378l-1,-1ZM961,365l1,2l-1,-1ZM963,373v1ZM960,361v-1l1,1ZM961,358h-1v-1ZM961,360v1v-2h-1h1ZM959,352v1v-2ZM959,355v-1ZM940,318v-1ZM949,321l-1,-1v-1h1v1ZM931,295l-1,-1v-1l1,1ZM927,285l1,1h-1ZM929,288v1l1,1h-1v-1ZM962,366v-1ZM960,359l-1,-2l1,1ZM958,353l1,1h-1ZM958,348v1v-2ZM941,319v1ZM925,284l1,1l-1,-1v-1ZM997,452l1,1v1v-1ZM997,452v1l1,1v2l-1,-1v-4ZM11,475l1,-1v-1h2v1l-1,1v9l-1,1v-1v3h-1v2h-1v1v-2l-1,-1v-2h1v-1l-1,1v-7l1,-2v-1ZM62,654v1h-1v-1ZM64,689l-1,-1v-1l1,1ZM62,663h-1v-1h1ZM23,487v1v-2ZM52,561v-1ZM52,564v1ZM22,474v1h-1v-1ZM11,471v3h-1v-2ZM10,458v1v-2ZM9,476v1ZM12,474h-1v-2h1v1ZM10,474v1h-1v-1l1,-1v-1ZM10,471v-1ZM8,490v-9l1,1l-1,3v4ZM69,699v-1l-1,-1v-1v1l1,1ZM912,264l-1,-3l1,1v1ZM913,263l-1,-1v-1l1,1ZM911,264l-1,-1v-2l-1,-1v-1l-1,-1h1v2l2,2v1ZM916,268v-1ZM917,270l-1,-2v1h1ZM908,257v-1ZM671,183l-1,-1v-2h1v2ZM610,97h2v1h4l3,3v1h-1l-2,-1h-1v-1h-2v-1h-1ZM949,700v-1ZM950,700l1,-3l2,-4v-1l1,-2v-1l1,-1l1,-2v-1l1,-2l1,-1v-1l1,-1v-2l1,-1l1,-2l2,-3v-1v1l-1,2l-1,1v1l1,-1l1,-2v-1h1l2,-2v-1l2,-2v2l1,-1v1l1,-2v1l1,-1v-1l1,-1v-2l1,-1v-1l1,-2v-1l2,-4v-2l1,-1v-1v1l-1,1v2l-1,1v2l-1,1v2l-1,1v2l-1,1v2l-1,1v2l-1,1v1l-1,1v3l-1,1v1l-1,1v1l-1,1v2l-1,1v2l-1,1v1l-1,1v2l-1,1v1l-1,1v1l-1,1v2l-1,1v1l-1,1Z"/>
<path class="sp" d="M949,700v0M977,649v2l-1,1v2l-1,1v2l-1,1v2l-1,1v2l-1,1v2l-1,1v2l-1,1v1l-1,1v3l-1,1v1l-1,1v1l-1,1v2l-1,1v2l-1,1v1l-1,1v2l-1,1v1l-1,1v1l-1,1v2l-1,1v1l-1,1h-8"/>
<path class="sl" d="M948,700l1,-2Z"/>
<path class="sp" d="M948,700v0"/>
<path class="sl" d="M967,666v-1ZM980,561v-1ZM955,556v1ZM955,557v-1ZM613,93v-1ZM214,904l-1,-1l-3,-1l-1,-2l-4,-2l-2,-2l-4,-2h1l1,1h1h-1l1,1h1l2,1l1,1h1l1,1h4l1,1v1h1v2ZM212,898h-1h1l-1,-1h1v2h1h-1ZM112,805l1,1h-1ZM264,903l1,1v-1v1h1h-2ZM341,973h1ZM699,940v1l-2,1h-5l-1,1h2l1,1h1h-1v1h1h-1v1h1l1,1h-4l1,1h3l1,1h1h-1l-1,1h2v-1l1,1h-1l-1,1l-4,2h-1v1h-1v1l3,-1l2,-1h1v1h-1v1h-1h1l-1,1h-1l-1,1h-1v1l1,-1v1h-2l-1,1v1h-2l-2,2h-1l-1,1l-2,1h-1l-1,1h-1l-1,1h-1l-2,1l-1,1h-3l-1,1h-1h1h-1h1h-1l-1,1h-1l-2,1h-2v1h-2l-2,1l-1,1h-2v1h-3l-1,1h-1h-1v1h-1h1h-1l-2,1h-2l-1,1h-3l-1,1h-2l-1,1h-2l-1,1h-2l-1,1h-4l-1,1h-2l-4,1l-1,1h-2l3,-1h1h-1l-2,1h-3v1h-4l-1,1h-3l-1,1h-4l-3,1h-1l-1,1h-1h1v-1l-1,1h-1l1,-1h-1l-1,1h-1h1l1,-1l-1,1v-1h1l-2,1h-1v-1h2h-5l-1,1h-9l-1,1h-9l-2,1h-1l2,-1h1l2,-1h1h-8v-1h-1v1h-18l-2,1h-5v-1h-1l-1,1h-17l-3,1h-9l-3,-1h-1l1,1h7v1h11v1h-4l-1,-1l-1,1h-3v-1h-1v1h-1l-1,-1l-1,1h-5v1h-2l2,1h-1h-8v1h2h-1l2,1h14v1h-15v-1h-1l-1,1h-4l-1,-1h-1v1h-1h1h-1h1h-1h1h-10l-1,-1h-16l-1,-1h-10l-1,-1h-6l-3,-1h-2l-5,-1h-6l-1,-1h-5l-2,-1h-4l-1,-1h1v1h3l-2,-1h-6v-1h1l1,1h2l-1,-1h-3l-1,-1h-4l-1,-1h-2l-1,-1h1h-2l-1,-1h-3v1l-1,-1h-1v1l-1,-1h-3l-1,-1h-1l1,1h1h-3v-1h-1h1l1,1l-1,-1h-2l-1,-1l-2,-1h-1h1h-2l-1,-1h-2l-1,-1h-1l-1,-1h-2l-1,-1h-2v-1h-1h1l-2,-1h2l-1,-1h1h-1h1l-1,-1h-3l-1,-1h-1h1h-2l-1,-1h2l-1,-1h2l1,1h-1v-1h-1l-1,-1l-3,-2h-1v-1h-1v-1h-2v-1l-2,-1h-1l-6,-3h-3l-2,-1h-2l-1,-1h-3l-3,-1h-1l-2,-1h-1l-2,-1h-2v-1h-1v-1h-3v-1h-2l-1,-1h-1l-1,-1h-2l-1,-1h-2l-1,-1h-1l1,1l-1,-1h-1l-1,-1h-1l-1,-1l2,1h1h-1h1h-1l-1,-1h-2l-1,-1h-1v-1l-2,-1h-2v-1h-1v-1h-2v-1h-1v-1h-2l-1,-1h-1v-1h-1h1h-1v-1h-1l-1,-1h1h-2v-1l1,1v-1h-1l-1,-1h-1v-1h-1l-1,-1h-1l-1,-1v-1l-1,-1h-1v-1h-1v-1l-2,-2h2l1,1h1v1l-1,-1h-1h1v1h1v1l2,1l1,1h1v1h2v1h-1h1l1,1h-1l-1,-1l1,1h1v1h1l1,1h1v1l1,1h1h-1h1v1h2l1,1h1v1h2v-1h-1h1h-1v-1h1v1h1h-1h1l1,1h-1h1v1h1h-1v1h3v1l-2,-1h-1l1,1h1v1h3v1h-1h1l1,1h2v1h1l1,1h1l1,1h2l1,1v-1h-1h1l1,1h2l1,1h1v-1h-2v-1h-1h1l1,1h2l1,1h4l1,1h2l1,1h2l1,1h1v-1l1,1h1l1,1v-1l1,1h3v1h1l1,1h1l-1,-1h1l2,2h1v-1h1l1,1h1v1h5l1,1h2v1h-1h4l1,1h1h-1h1v1v-1h1v1h3v1h3v1h-1h1l1,1h2v1h4l2,2h1l1,1h1l2,2h2l1,1h1v1l1,1h-1h1v1h3l2,1l1,-1h1h-1l1,-1v1h3l1,1h1v2h1v1l1,-1h1v-1l2,1h2l1,1l-1,1h-1h1h-1h6v-1l-2,-1h4l1,1h2v1h1v-1h-1h5v-1h1h-2l-1,-1h4l2,-1h1v-1l1,1v1h1v-1h1v1h3v-1h-1h3v1h8l-3,-1h-2v-1h-2l-1,-1h-2v-1h-1h1h-1v-1l-1,-1h4l1,1h1v-1h-1l-4,-2h-1l-1,-1h-2v-1l-1,-1h2v-1h-2l1,-1v-1h1l-1,-1l4,-2l-1,-1h1h-3l-7,1h-1l-1,-1h-1v1h-1l-2,1l-1,-1l-1,1l-1,-1h-3l-3,-2l-1,-1l-2,-1l-1,-1v-1l-2,-4v-1h1v-3h2v-1h2v-1h2v-1h1h-1l-1,-1h-1v-1l-1,-1l-1,-2h3v-1h-1v-1l-1,-1v1h-2v-1h-3v-1l-1,-1l1,-1h2l-1,-1h-1h1l2,-2v-2l-2,-2h-4l-1,-1h4v-2h-1l-1,-1h2l1,1h1l1,1l3,1v-1h1l-1,-1v-1h-1l-1,-1v-1h3v-1h1l1,1v2h5v-1h7v-1h1l2,2h1v-3h1l1,-1h1l1,-1h2l4,-2h1l3,-1h2v-1h3l1,-1h1l1,1h1l3,1h2l1,-1v-1h1v-1h-1v-1h1l1,1h1l1,1l2,-1h4v-1h2l2,2h3v-1l1,-1h1l1,1v2h1v1h1v-1h4v-2l1,-1h1v1h1v1l2,1l1,-1h1v-1h2v1l1,1h3l1,1h1l1,-1h2l1,-1h1l2,-1h2l1,-1h4l3,-1h1l1,-1v-1l1,-1h-1v-3l2,-1h3v1h-1v1h-1h3v1l1,1v1h5v1h4v2h2v-1l2,-2h1l1,-2v-1h2l1,-1h1l1,-1h4l2,-1v-1h6l2,-1h4l1,-1v-1h2v1h1h-1v1l1,1l1,-1l1,1v1l1,-1v-1h1l1,-1h1v-1h-1l-1,-1h3l2,2h2v-2h1l-1,-1l2,-2h2l3,-1h7l4,1h1l1,1v1l1,1h1v1l-1,1l-1,-1h-1v1l-1,1l-2,1h2l1,-1h1l1,1h2v1h1l1,2h1l1,-1l2,1h1v1h3l1,1h4l1,1l2,1h2l2,1h1l1,1h4v1h-1l-1,1v1l-1,1h-1l-1,1h-1v1h-1v1h-3l-1,1v1h-1v1h-1l-1,-1h-2l-1,1h-1l-1,1h1v1h3l-1,1h-1l-2,2h-3l-2,2h-1l-4,2l-2,2l-2,1h-2v1l1,1l1,-1h1l1,-1h1l1,-1h4l1,-1h2l1,-1h3v-1h1l2,-1l1,-1h1l1,-1h3l1,-1h1l1,-1h1v-1h4v1h4l1,-1h1l2,-1h4l2,-1h1l1,-1l2,-1h14l2,-1h5v1h8l1,1h1l1,1h1l2,-1l1,1h1v1h1v1h3v1l1,1h2v1h2v1h-1h3l1,1l3,-1l1,-1l1,1h1v3l-1,3v1h-1v1l-1,1v1h3l2,-1h1v3Z"/>
<path class="sp" d="M598,990l-1,1M700,936v3"/>
<path class="sl" d="M407,967h5v1h4l1,1h2v1l2,2v1h1l-1,2l-1,-1h-2l-2,-1h-1h1h-1h1l-2,-1h-1l-1,-1h-2v-1h-4v-1h-3l-1,-1h-2l-2,-2v-1h6v1h2v1ZM416,976h4v1h1l-1,1l-1,-1h-1l1,1h1h-3l-1,-1v-1h-4v-1h-1h4v1ZM324,958l1,1v-1l2,1h1l2,1h1l3,1h3l1,1h1l2,1l3,1h2l1,1h1l2,1h1l1,1h1h-1l1,1h1h-1v1l-1,-1h-1v-1h-1v-1h-1v1h1h-1l-1,-1h-3l3,1h-1l1,1h2v1v-1v1h-2v-1h-2v-1h-2v-1h-1v-1h-1v1l-2,-2h-1v-1h1h-4l-2,-1v-1h-2l1,1h-3v-1h-2l-1,-1h-3v-1h-2l-1,-1h1ZM375,983h1h-1h1h-2v-1h-1l1,1h1h-1l-1,-1h-1h3v1h3v1h3v1h2v1v-1h-1l-4,-1h1h-2l-1,-1h-2ZM427,995h7l1,1h-1l-1,-1v1h1h-1v-1h-5ZM437,996h1h-1h1Z"/>
<path class="sp" d="M440,996h-3"/>
<path class="sl" d="M511,998h9v1h-5l-1,-1h-2ZM572,993h-1h1v-1v1h1l1,-1v1h-1ZM424,964h-1h3v1l-1,-1l-1,1l-1,-1h-1ZM418,964l-2,1h-1v-1h2ZM411,979h1h-6l-1,-1h-1l-1,-1l-3,-1h-1h3l2,1h1l2,1h2l1,1ZM282,931h-1v-1h1l1,1h1v1h1h-2l-1,-1v1v-1h-1l-1,-1h1ZM276,925h1v2h-1v-1h-1v-1ZM265,922h1v1l1,1h1h-1v1v-1v1l-2,-2ZM285,938v-1v1h1l1,1h1h-2l-1,-1h-1l-1,-1h1ZM284,937h1h-1h1h-1l-1,-1h-2v-1h1l1,1h1ZM310,952l1,1h1h-3l-2,-2h-1l-1,-1h-1l-1,-1h1l1,1h1l1,1h1l1,1ZM338,965h1l1,1h2l1,2h-1v-1h-1l-1,-1h-2h1l-1,-1h-1ZM331,964v-1l1,1h2l1,1h-2v-1h-1ZM358,971h3l1,1h-3v-1h-3l1,-1ZM374,981h-2l-1,-1h-1h2l1,1ZM567,993h1ZM697,925h-1v-1h2v-1l1,1h-1v1ZM496,912v1h-1l-1,-1h-1l1,-1h2ZM407,921h-1l-1,-1h1ZM413,919v1l-1,-1v-1h2v1ZM414,978h-4v-1h3ZM409,977v1h-1l-1,-1h1ZM261,917l-1,-1h1ZM278,927h1h-2v-1h1ZM286,932h-1l-1,-1h1v1ZM275,925v1h-1v-1ZM280,929l1,1h-1h1h-1ZM327,954l-1,-1h-3l-1,-1h2v1h2ZM270,928v-1l1,1h-1l1,1h-1v-1h-1ZM329,961h1v1h-2v-1h-1h1ZM375,982h1h-2ZM394,988h-1ZM427,995h1h-1v-1h-2h2ZM445,997h1h-2ZM511,995h1h-2ZM511,997h1ZM591,991v-1h1ZM589,991h-1v-1h1ZM588,992h1ZM689,923h-1v1l-1,-1h1ZM692,926h1ZM688,926h1ZM685,918h-1ZM665,918v-1h1v1ZM668,918h-1l1,-1ZM667,916h-1ZM603,930h-1ZM598,931l1,-1h1l-1,1ZM615,925h-1h1v-1h1v1ZM568,897h1ZM464,912l-1,-1h-1l1,-1h2l-1,1ZM429,918h-1v-1l1,-1v1h1ZM417,922l-1,1l-1,-1h1ZM424,916v1h-1v-1h-1l1,-1ZM416,920h1v2h-1v-1h-1l-2,-1h2ZM433,917l-1,-1h-1v-1h1v1h1ZM396,941l1,1h1l1,1h1h-1l-2,-1h-2v1v-2h-1v-1h1v1ZM396,934h-2v-1v1h1ZM400,931h-1v-1h-1h2ZM422,964h-1ZM262,916l-1,-1ZM268,925h-1ZM329,954h-1v-1ZM319,950h-1ZM335,955v1l-1,-1h-1h1ZM338,956h-1ZM269,926h-1ZM273,929v1v-1h-1ZM280,933l-1,-1h-1h1v1ZM281,935v-1ZM288,939h-1v-1v1ZM274,932h-1l-1,-1h1ZM296,945h-1v-1h-1h1ZM299,947h1h-1l-1,-1ZM305,949v1l-1,-1h-1h1ZM312,952h-1ZM334,962l1,1h-1ZM360,971h-1l-1,-1h1v1ZM375,982h1ZM422,994h1l-3,-1h-1h2v1ZM455,998h1ZM453,998h1h-2ZM486,1000h1ZM490,1000h1h-2ZM494,1000h1h-2ZM495,1000h-1ZM495,1000h1ZM497,1000h1ZM489,1000h1ZM490,1000h1ZM497,1000h1ZM503,998h1ZM495,1000h1ZM507,996h2v1l-1,-1Z"/>
<path class="sw" d="M402,76h1ZM555,476h-1v1h1ZM555,477h1v-1h-1ZM713,192v-1h-1v1ZM762,118h-1v-1h-1v1h1ZM764,119v-1ZM759,118l-1,-1v1ZM755,112h-1v-1v1ZM613,93v-1Z"/>
<path class="sh" d="M504,632h-3v1l-2,2v1h-3l-1,-1v-1h-1v-1h-1v-2h-1v-1l-1,-1v-1l1,-1h1v-1h1v-1h1v-1l1,-1v-1h2l2,-2l2,-1h1l4,4h1l1,1v2l-1,1v1h-1v2l-1,1h-1Z"/>
<path class="sw" d="M455,20h-1v-1v1ZM507,15h1v-1h7v1h4v1h1v1l-1,-1v1h-5v1h1h-2v-1h-2v-1h-2v-1h-1ZM528,352v5h-1v1l-1,1h-2v1h-1l-1,1v1l-1,2h-1v-2h-1v-1l1,-1v-1h1v-1h1l2,-2l2,-1v-1h1v-1ZM386,270h-1l-1,1h-2v-1h1v-1h1l1,-1v1h1ZM559,496l1,1h-1l-1,-1v-1h-1v-1h-1v2h-1l-2,-2v-1h1v-3h-2v-6l-1,-1v-3h-1v-2h-1l1,-1v-1h1v-2l1,-1v-3l-1,-1l1,-1h-1v-5h1v-1h-1v-1l-2,-2v-4l1,-1v1l2,1v1l2,1v5h1h-1l1,1v5l1,1v1h1v6h-1l-1,1v2l1,2v9h2v1l1,2v1ZM555,477v-1h-1v1ZM555,477h1v-1h-1ZM557,374v2h-3v1h-2l-1,1v2h1v1h-1v1l-1,1v1h-1v1l1,1h-1v-1h-1l-1,1l1,1h-1v1h-2v1h1v1h-2v1h5l-2,2h-1l-1,1h-2l-1,-1h-1v4l-1,1v-4h-1v-1l-1,1v-1h-2v-1h-1l-1,1v1h-1v2l-1,-1l-1,1v-4h-1v-3l1,-4v-1l1,-2v-1h-1v-4h1l1,-2v-1h-1h1v-1h1l1,-1v1v-1h3v-1l1,-1v2h1v-1h1v1l1,-1h1v-2h2v1h1v1h1v-1h1v1h2v2h1v1l2,2l2,-2ZM533,392h-1v-1h-1v1l1,1h1ZM536,376v-1h-1l-1,-1v1l1,1h-1v1h1ZM543,391v-1l-1,-1h-2v1h2v1ZM545,371v-1h-1v1h-1h1v1h1h-1v-1ZM437,22h-1v1h-5v1h-2l1,-1v-1v1h1v-1h2v-1h4ZM577,278v-1h-2v-3h4v1h1v1h-1v1l-1,1v1h-1ZM534,15v1h-6v-1h1v1h2v-1h-3l-1,-1h-1v-1h-3v-1v1h2v-1v1h3v1v-1h1h-1v-1h-1h2v1h2l-1,1h2l1,1ZM529,14v-1v1h-1ZM384,44v1l-2,1h-2v-1h1v-1h1h-1h1l-1,-1h2v1h1v-1v1h-1ZM384,45v-1h-1v1h-1h1ZM548,23h-4l-2,-1h-1l-1,-1h2v1h2v-1h-2v-1h2v1v-1h1v1h-1l2,1h3v1h-1h1ZM782,113h-1v1l-2,-1h-1l-2,-1l-1,-1h-1h7v1h1ZM560,499v1h-1v-2ZM779,94l-2,-1h-1l-2,-2h-1l-1,-1l1,1v-1h-1v-1h-1l-1,-1h1v-1h-1l-1,-1h-1l-1,-1h-1v-1l2,2l3,1l1,1h-1v1h1l1,1h1v1h1v1h1l1,1h1ZM574,352l-1,1h-1l-2,-4h-1v-2l-2,-2v-1l-1,-1v-2l1,-1v-5l1,1v-1h1v9l1,3l4,4ZM457,33h1v-1h3l-2,1h-1ZM457,33l-1,1h-1l1,-1ZM131,838v-1l-1,-1v-1v1l1,1ZM787,92h-1h1v-1v1l1,1h1l1,1h-1l-1,-1ZM508,446v1l-1,2l-1,1l-1,2l-1,1h-2l1,1h-2v-4l5,-5l1,1ZM974,367v-2l-1,-1v-2h-1v-2l-1,-1v-1l1,1v2l1,1v2h1v2l1,1ZM882,180l1,1l-2,-2h-1l-1,-1v-2h-1h1v1l2,2ZM628,17h-1v-1v1ZM608,129h-1v-1l-1,-1v-2l1,2h1l1,1v1ZM614,135v1h-2l-1,-1h-1v-2h1l1,2h1ZM555,138l-1,1v1h-1v-1l1,-1ZM497,22h3v1h-2v-1ZM304,298l-1,1v3h-1v-4h-1h1v-2h2l-1,1ZM619,108v1l1,1h-1v1h-1l-1,-1v-1l-1,-1v-1h-1l-1,-1h1v-1h1l1,1v2h1ZM684,95v1h-2l-1,-1h-1v-1l-1,-1l1,-1h1l2,2ZM716,56h2l1,1h1h-1l1,1l-1,-1h-3Z"/>
<path class="sw" d="M782,101l-2,-1l-1,-1h-1l-2,-2h1l1,1h1v1h1l1,1ZM515,468v1l-1,1h-2l-1,-1v-1h1l1,-2h2v1ZM501,3h1h-2ZM495,9h1ZM497,22h-1v-1h-1l-1,-1h4v1ZM509,386v2l1,1v1h-1v1l-1,1h-1l-1,1v-4l1,-1v-2ZM510,378v-3l2,-2h2l1,1l-3,3h-1ZM70,748l1,1v1l-1,-1v-1l-1,-1h1ZM528,52v-1h-3l-1,-1h-3v-1h1v1h3v-1l2,2h1ZM185,886h1v1l1,1h1v1v-1v1h1h-1l-1,-1h-1v-1v1v-1h-1v-1v1h1ZM881,203h-1v-1l-1,-1h2l1,1v1ZM536,98h1v1h-3v-3h1v1ZM497,15h-1h2ZM505,12v-1l1,1h-1v-1ZM504,12h1ZM629,17h-1ZM615,13h-1ZM616,14h-1v-1v1ZM615,13h-1ZM526,11h1h-1h1v1h-1v-1h-1l-1,-1h-1h3ZM520,11h1ZM509,12v-1h1v1ZM507,11h1v1h-1h1v-1h-4l-1,-1h1l1,1h1ZM510,6h1v1h-1l-1,-1ZM516,7h-1ZM820,129l-1,-1h-1l-1,-1l2,1ZM511,13h1ZM515,22h-1v-1h1v1l1,-1v1ZM872,193v1l-1,-1v-1h-2v-1h1v1v-1l1,1h1ZM801,103v1h1h-1v-1h-1l-1,-1h1v1h1h-1v-1ZM375,68h-4l-1,1l2,-1l1,-1l1,1ZM336,45h-1ZM440,22v1h-2v1h-2v1h-1l2,-2h1l1,-1h2ZM600,103h-1v-1l-1,1v-1h-2v-1h4v-1h3v1h-2v1h1v1h-1ZM848,157h-1v-1h-1h2ZM445,13v-1h2v1h-1ZM537,441v1l-1,-1h-4v-1l-1,-1v-1l1,-1l3,3ZM957,314l-1,-1v-1v1h1ZM495,14h-3v-1h1h-1l1,1v-1h1h-1h1v1ZM448,20v1h-1ZM494,11h-1h1h-1ZM539,18h1ZM5,444v1v-2h1ZM565,404h1v-2l1,1l-1,1v1h-1ZM585,320h1h-1v2l-1,1h-1v1h-1v-1h1v-3h1l1,-1ZM467,5h-2ZM437,62h-1l1,-1h3v-1v1h-1ZM125,830v1v-1h-1v-1v1ZM182,884l1,1l-1,-1h-1v-1h1ZM412,382h-1v-1h-1v-1h2v3ZM510,10h1ZM849,185l-1,-1h-1h2v1h1ZM865,193v1l-1,-1v-1h1ZM736,66v1v-1h-2v-1l1,1ZM713,59h-1l-1,-1h-1h2v1ZM723,57h-1ZM543,16v-1h1v1h1h-1ZM502,6h1h-2ZM520,4l1,1h-1ZM514,6h1h-3v-1h-1h3ZM889,215h-2v-1l1,1v-1l-1,-1h-1v-1h1v1h1v1h1ZM692,47h1h-2ZM679,45h-1h1h-2v-1h1v1ZM517,7h-1h1h-1ZM490,22h-1h1v-1ZM441,12h1ZM610,93l-1,-1h1v1h2l1,1h1v1h-2l-1,-1v-1ZM863,172h-1v-1h-1h1ZM643,150h-2l-1,-1h-3v-1h-1h3v1h4ZM798,100h-1v-1h-1l-1,-1h1v1h1ZM862,193l1,1l-1,-1h-1l-1,-1v-1l1,1h1ZM50,687v2h1v2h1v2l-1,-1v-1h-1v-1h1l-1,-1v-1l-1,-1v-2l-1,-1v-1l-1,-1l1,1v1l1,1v1ZM506,516h-1v1h-3v1l-1,-1l-1,1h-1v2h-1v-1v1h-1l-1,1h-1v2h-1v1h-1v1h-1v1h-1v1l-1,1v-1h1v-2l1,-1h1v-2l1,-1v-1h2v-2h1h-1l1,-1h1v1h1v-1h1v-1h1v-1v1l1,-1h4ZM546,359h-2l-1,1h1l-1,1h1v1h-1l-1,-1h-1v1l-1,-1h-2v-1h1l1,-1v1h2v-1h3v-1h1Z"/>
<path class="sw" d="M548,19h1l1,1h1h-1h1h-2l-1,-1h-1ZM393,62h-3v-1h3ZM479,15h-1ZM554,141v1h-1v-1ZM554,132v-1ZM885,187h-1h1h-1v-1h-1h1v1ZM883,186h-1v-1h1ZM764,111h-1v-1h-1v1l-1,-1v-1l1,1h2ZM844,188l-1,-1v-1v1h1ZM845,188h-1v-1h1ZM267,332v-1h1l-1,1h-1v2h-2v-1h-1l-1,-1h-2v-1l1,1v-1v1h1v-1v1h3v-1l1,-1v-2l1,-1l-1,-1v-1h-1v1v-1h-1h2l-1,-1h-1l-1,1h-2v1v-1h1l1,-1h1l1,-1v-1h-1v-1h-1v1v-1h-2v-1h-1v-2h-1v-1h-1v1h-1v-1h-2v1h-1v-1h1l1,-1l1,1h1v-1h1v1h1v-1v1h1h-1v1l2,2h2v-1v1h1h-1v1h1v2h1v-3h1v-1l1,-1h-1v-2l1,-1v1h-1v2h1v1h-1l1,1h-1v2h1v2h-1v1h1v3h-1h1v1h-1v2ZM266,332l1,-1h-2v1ZM677,80v-4l1,1v-1h1v1h-1v2l1,1v1h1h-1l1,1l-1,1v-1h-1h1l-2,-1ZM687,77h-1l-1,-1l-2,-1h-2v-1h2v1v-1l1,1h1l-2,-1h2v1h1l1,1h1l-1,-1h1v2ZM681,76h-1l-1,-1h2l1,1ZM765,93v-1h1v1h1v1h-3v-1h-2l-1,-1h-2l-1,-1h-1l-1,-1h-3v-1h-1l1,1h-1v-1v1l-1,-1v1v-1v1l1,1h-2l1,1h1l-1,1h1v1h1l1,1h-1v-1h-1l-2,-1l-1,-1h-1v-1h-1h1v-1h-1v-1h1h-1v-1h4l2,1h2v1h2v1h4l1,1h1l1,1v-1v1v-1h1h-1h1ZM522,446v-1h-1v1h-1v-1h-1v-1h1v-3h-1v-1h-1v-1l-1,-1v-3l-1,-1v-1h-2l-3,-3v-2h-1l-1,-3v-1h-1v-1h1l1,-1v-2l-1,-2l-1,-1v-6h1v-4l-1,2h-1l1,-1v-7h2v4l1,1v2l1,1v5h1v1h1v3h-1v1h1v1l1,2v1h-1l-1,1v2l2,2h1v-1l2,2h1v2l1,1v3h1l-1,1l2,2l1,2v2h1v2h1v2h1v1h-1v1h-1v-1ZM84,743v1h1v3l1,1v1l1,1v1l1,1h-1v-1l-1,-1v-1h-1v-2l-1,-1v-2h-1v-2l-1,-1l1,1ZM544,67h-2v-1h-1v-1h-3l1,-1h-1l-1,1v-1h-3v-1h-1h5v1h1v-1v1h1v1h1v1h2v1ZM505,13h1v1h-5v1h1v-1v1h1h-7v-1h7v-1h-4l-1,-1h-1h1v-1h-1v1v-1h-1v-1h-1h1v1h1h-1h4v1h1h-2v1h3v-1v1h1h-1h2v-1h3l-1,1h1h-1ZM499,11v1h1ZM498,15v-1h-2l1,1ZM499,14h-1ZM501,14h-1ZM505,13h-2v1h1v-1ZM779,94l-2,-1h-1l-2,-2h-1l-1,-1l1,1v-1h-1v-1h-1l-1,-1h1v-1h-1l-1,-1h-1l-1,-1h-1v-1l2,2l3,1l1,1h-1v1h1l1,1h1v1h1v1h1l1,1h1ZM161,865v1l3,3h-1v-1l-1,-1v1h1l-3,-3ZM495,12h1h-3v1v-1h-1v1h-2v1h-1h1h-1h1h-1v1h1h-2l-1,-1h1v-1h3v-1h-1h1h-1h1v-1h-1h1l1,1h1h-1h2l-1,-1h1v1v-1h1ZM508,8h1ZM542,58h-7l-2,2h-1l1,-1h1v-2l1,1v-1h1v1h1v-1l1,1h2v-1h1ZM601,38v-1h-1l1,-1h1h-1v-1h1l-1,-1h1v1h1l-1,-1h1v1h8v-1l1,1h1h-9v1h-2v1h1h-2l1,1h1l1,1h1l1,-1h1v1h-1v1h1h-1v-1h-1v1h2l1,1h2h-4v-1h-1l-2,-2h-1ZM39,533v4h-1v2h-1l-1,1v2h1v1h-1v1l1,2v1l-1,-1v7h-1v-4h1l-1,-1v-1h1l-1,-1v-1h1l-1,-1v-1h-1v-1h1v1v-1v1v-1h1v-1l-1,-1v-1h1v-1l1,-1h1v-6h1v1ZM36,551v-1l-1,1v1l1,-1v1Z"/>
<path class="sw" d="M972,438h-1v-1h1l-1,-1v-1l-1,-1v-1h1v2l1,1v1ZM493,14h-1ZM532,196h-1l-1,1v1h-2v1h-1l-1,1v1h-1v1l-1,1h-1l2,-2v-1l2,-2h1v-1h1h-1v-1l1,1v-1h2v-1h1l1,1h1v-1h1v-1l1,-1v-1h1v-2h-1v1h-1v-1h1h-1h2v-3h1v3h-1h1v3h-1l1,1h-3v2h-1l-1,1h-1h1v-1ZM485,14h-1h1h-2v1h-1h1h-1h1v-1h1ZM480,15h1h-1l1,-1h1h-1h1v-1h1h-1h1v1h-2ZM267,332v-1h1l-1,1h-1v2h-2v-1h-1l-1,-1h-2v-1l1,1v-1v1h1v-1v1h3v-1l1,-1v-2l1,-1l-1,-1v-1h-1v1v-1h-1h2l-1,-1h-1l-1,1h-2v1v-1h1l1,-1h1l1,-1v-1h-1v-1h-1v1v-1h-2v-1h-1v-2h-1v-1h-1v1h-1v-1h-2v1h-1v-1h1l1,-1l1,1h1v-1h1v1h1v-1v1h1h-1v1l2,2h2v-1v1h1h-1v1h1v2h1v-3h1v-1l1,-1h-1v-2l1,-1v1h-1v2h1v1h-1l1,1h-1v2h1v2h-1v1h1v3h-1h1v1h-1v2ZM266,332l1,-1h-2v1ZM464,7h-1ZM464,7v1h1h-1ZM452,11h-1h1h-1v-1h-1h1v1h1h-1h2ZM445,10h1ZM611,132h-1l-1,-1h1ZM443,81v1h1h-2l-1,-1h1ZM13,511h-1v-5l1,2v4l1,1l-1,1h1v3l1,-1v1l-1,1v-2l-1,-1v-3ZM47,621v2h-1l1,-1h-1v-1v1v-2l-1,-1v1v-3h-1h1v2h1v1v-1v2h1v-1ZM39,647v-3l-1,-1v-2l-1,-1l1,1v2l1,-1l-1,-1h1v4h1h-1v2h1ZM127,833h1ZM152,855v1h1v1l-2,-2h1h-1ZM390,61h-1ZM535,13h1l-1,1ZM546,17h-1h2v1h-1ZM513,9h-1h2ZM514,5h-1ZM523,4v1l-1,-1h1h-1ZM740,107l2,1h1v1h-1l-1,-1h-1ZM785,91v1v-1h-1ZM869,183v1h-1v-1v1v-2ZM867,183h1v1ZM815,172l-1,-1ZM879,195h-1v-1l1,1v1ZM865,189v1ZM819,162l2,2h1h-1l-1,-1ZM708,65h2v1h-1v-1h-1v1h2v1h-1l-1,-1h-1v-1ZM680,53h1v1h-1ZM434,16h-1ZM434,15h1h-1v1ZM956,704l1,-1v-2h1v-1v1l-1,1v1ZM935,741v1v-1l1,-1v-1v1l-1,1l1,-3v1v-1l1,-1h1h-1v1v-1v1l-1,2Z"/>
<path class="sb" d="M268,125v-1l1,-1v-1h1l2,-2h1v-1h1h-1l-1,-1l1,-1v-1h2v-1h1v-1h-1v-1l1,-1h-1l1,-1h2l2,-2h-1v-1h2v-1h1v-1l1,-1v-1l1,-1h1l1,-1h1l1,-1v-1h-1l1,-1h-3l-1,1h-4v1h-1l1,-1v-1l-1,1h-1l-1,1h-1M335,89l-1,1v-1M344,88h-2v1h-5v1v-1h-3v-1h-4v1h-3l-1,1v-1h-7l1,-1h-2v-1M379,56l-1,-1v1h-2M379,53h-1v1h-1v1h-1v1h-2v-1h-2v-1h1h-1l-1,1h-2v-1h1h-3l1,-1h-2v-1h-1v1h-1v-1M380,51h-1v-1h1v-1h-7M381,62l1,-1v-1h1l1,-1v-1h2l1,-1v-1h-5v1v-1h-1l-1,1v-1h-1v-1h1v-1h1h-2v-1h1l1,-1v-1h-1l1,-1h-1h1l2,-2v-1h3l1,-1h1h-1h1v-1h2v-1h-1h1v-1h1l2,-2M374,70v-1h-1l1,-1h-3v1h-1v-1h1v-1h2v-1l2,-1h1l1,-1v-1h4v-1h5v-1h4l1,1h1M391,64v-1M396,64h-5v-1l1,-1h1v-1h1v1h2l1,-1h3v1l1,-1h2l1,-1h8v-1h-1h1l-1,-1l1,-1h3l1,-1h2v-1M428,62l1,-1h2v-2h1l-1,-1h4v-1h1M435,55v-1h-11v1h-7v-1h-2l-1,-1h-1l-1,-1v-1h1h-1v-1h-1h2v-1h4l1,-1h3l1,-1h3l-1,-1h2v1h1M465,54h-10l-1,1h-1l-1,1h-1v-1h-1l-1,1h-4v1h-2l-2,1h-2l-1,-1h-3v-2l1,-1h1v-1h5v-1h1l1,-1h3M468,51h-4l-1,-1h-3l-1,1h-6l-1,1v-1h-1v-1h-2v1h-2v-1h-1v-1h-5v-1h1h-5l-1,1h-1v-1h-1l1,-1h-6v-1h-1l-1,1l2,-2h-1v-1h-1h1h-1v-1h1v-3h-1v-1h2v-2M472,33h-16M475,42v-1h1l-1,-1h-2l1,-1h1l2,-1v-2l-1,-1v-1M469,56v-1h-3v-1h-1v-1h1l2,-2v1h1v-3h1l1,-1h1l1,-1h2v-1h2v-2h-1l-1,-1v-1h3l1,-1h15l1,1h11v1l1,-1h4v1h2v-2h1l1,-1h4M491,54h5v-1h1l1,1h3v1h3v1l1,-1l1,1v1h-1h1v1h2v2h2v1l1,1h-5v-1h-1l-1,1l1,1h-1v1h-1l-1,1v1h-2M452,64h3v-1h3v-1h1v-1h1l2,-2h1v-1h1v-1h3l1,-1h2v-1h1l1,1h8v1h1l1,-1h3l2,-1h2l1,-1h2l1,1h1v1l1,1h1v1h1l1,1h1l1,1v2l-1,1v1l1,1h-1l1,1h1v1h2v-1h1v1l1,-1h4v1M466,72h1v1h-1h5l2,1h2l1,-1l3,1h5l1,-1h1l1,-1h11v1h4M372,79h1v-1h1v-1l-2,1l-1,-1h-1v-1h1v-1h1h-1l-1,-1l1,-1h2v-1h1h-1v-2h4v-1h3l2,-2h1v1h2l-1,1h2v-1l1,-1h1v-1h1v1h2v-1h1v1h1v-2h2l1,-1h3l1,-1h5l1,-1v1h-1h1v1h8M412,68h1v-1h-1v-1v1v-1h1h-1v-1v1v-1h-1h2v-1h7v-1h7v-1h3v1M411,68l1,1h1l1,-1h3l1,-1v1h4v-1h1l1,-1h1v-1h-1h2v-1h2l1,-1h1l1,1h2v1h3v1h6v-1h2M443,70v-1h1v-1h1l-2,-2h1h-1v-1h3v-1h6l1,1h2v2h2l1,1h1h-1v1h1h-1h1v1h6l-1,1h1v1h1h-1l-1,1h-1v1h1v1h1v1h2v1h-2v1h-2v3h-1M457,81h4l1,-1v1h1l1,1h1l1,1v1l-1,1M432,79h1v-1h-1l-1,-1v-1h-2l-1,-1h-1v-1h-1l-1,-1v-1l-1,-1h-1l1,-1v-1h2v1h1v-1h3l1,-1l1,1h10v1h1l1,-1h1v1l-1,1v1h-1h2v1h1h-2v1l1,1h-1l-1,1"/>
<path class="sb" d="M450,79l1,-1h1v-1l1,-1v1h2v1h1v1h2v1h-1v1h-1l-1,1l-1,-1v1h-2v1h-2M452,88h5l2,-2h5v-1h7l1,-1h4l1,1h9l1,-1h-1v-1h2M448,80l1,1h1v1h1v1h-1v2h-1h1l-1,1l2,2h1v1h1h-1v1h-1l-1,1v1h-3v1h1h-1v1h-2M437,80h1v-2h1v-1h2v-1v1h1v-1h2l1,1h2l2,1h1v1h-2v1h-4v1h-1v1h-1h1v1M486,88l1,-1h1v-2h2l-1,-1v-1h-1l1,-1h2l1,-1h2l1,1h4M500,27h-1l-1,1h-4l-1,1h-1M465,28h2l1,-1h19l1,1h2v1h2l-1,1h-1v1h-2l-1,1v1h-1h1h-3v1l-1,-1v1h-7l-1,-1h-3v-1h1v-1h-7v-1h-1M496,24h-1l-1,-1h-1l-1,1l-1,-1h-3l-1,-1h-3v1h-2M69,735v1l1,1v1l2,2v1l1,1v1l1,1v1h1v2h1v2h1v1l1,1v1l1,1M53,694l1,4l2,4v1l1,1v3l1,1v2l1,1l-1,-1v2l1,1h-1v1h-2v1v-1l-1,-1v-2h-1v-2l-1,-1v-1h-1v-3l-1,-1v-1l-1,-1v-2l-2,-2h-1v-1h-1l-1,-1v-1l-1,-1h-1v1l-1,-1v-1h-1v-1l-1,-1l-1,-2l-1,-1v-2h-1M41,699l1,1l1,2l1,3l1,2v1h1v1l1,2v1l1,1v2h1v2h1v2h1v1l1,1v2h1l1,3l1,1v2h1v1l1,1v1l1,1v2h1l1,2v1l2,2v1l1,1v2h1v1l1,2l1,1l1,2v1h1v1l1,1v1l1,2h1v2h1v1h1v2h1l1,2v1l1,1v1h1v1l1,1v1l2,2v1v-1v1h1v1l2,2v1l1,1v1h1v1l1,1v1v-1v1h1v1l1,1l1,2l2,2v1h1v1l2,2v1h1l1,2v1h1v1h1v1l1,1v1h1v1l2,2v1h1v1l2,2v1h1v1h1v1l2,2v1l1,1h1v1l2,2v1h1l1,1v1h1v1h1v1l1,1v1h1l1,1v1h1v1h1v1l4,4v1h1v1h1v1l2,2h1l1,1v1l4,4v1h1v1h1l10,10v-1v1h1v1h1v1l1,1h1h-1l1,1h1v1l1,1h1v1l1,1h1l3,3h1v1l3,3h1v1h1l2,2v1h1l2,2h1l1,1v1h1v1h1l4,4h1v1h1v1h1l3,3h1v1h1v1h2v1h1h-1v-1h-1h1l2,2h1l2,2h1v1h1l1,1v-1h-1v-1l-1,-1h2M32,659l-1,-1v-2h-1l-1,-1v-1l-1,1v3l1,1v3l1,2v2l1,1v2l2,4v2l2,3v2l1,3l1,1v1v-1l-1,-1l1,1v2l1,3v1l2,2v1l-1,-1v-2h-1v-1h-1h1v1l-1,-1l1,1v1l1,1v2l1,1v1l1,1v2l1,1l-1,-1v-2l-1,-1v-1M2,472v-1v1v-16l1,-1v-8h1v-4M4,464v-1h1v-9l1,-1v-2h-1v-2h1l-1,-1h1v-9l1,-1M89,753h-1v-1h-1l-1,-3l-1,-1v-2l-1,-1h-1v-1h-1v-1l-2,-2h-1l-2,-2h-1v-1v1v-1h-1v-1h-1l-1,-1l1,1v1l-1,-1v-1h-1l-3,-3v1l1,1h-1l-1,-1v-2l-1,-1v-2l-1,-1v-1l-1,-1v-2l-1,-1v-1l-1,-1v-2l-1,-1h1h-1v-3h-1v-4h-1v-4l-1,-1h1l-1,-1v-2h-1v-2l-1,-2l-1,-1v-1h-1v-1l-1,-2h-1v-1v1l-1,-1l-1,-2v-1l-3,-6v-2h-1v-1h-1v2l-1,-1v-1h-1v-2l-1,-1v-1l-1,-1v-2h-1v-1l-1,-1v-1v1h-1v-1v3h-1v-1v1l-1,-1v-2h-1v-3h-1v-2l-1,-1v-2h-1v-2h-1v-2l-1,-1v-2h-1v-3l-1,-2v-2h-1v-2l-1,-3v-1l-1,-1v-2l-1,-2l-2,-2v-1l-1,-1v-3l-1,-1v-1v1l-1,1v1v-1l-1,-2v-1l-1,-2v-1l-1,-1l-1,-6v-2h-1v-4h-1v-1v1l-1,-1v-1l-1,-1v1v-1v1v-3"/>
<path class="sb" d="M2,453v-1v10l-1,1v14l1,-1v-4h1v-6l1,-1v-1v1v-1v1h1v-2h1v-2l1,-1v-7l1,-1v-6h1v-3M234,185l1,-2v-1l1,-1v-2l1,-1h1l1,-1v-1h1l2,-1v-1l2,-1h1l1,-1h1l1,-1v-1h4l1,-1v-1h3l2,-1h1l1,-1h1l3,-3l2,-1l1,-1h2l2,-2h1l1,-1h1v-1h-1v-1h1v-2h2l1,-1l3,-1v-1h1l1,-1h4l2,-1h4v-2h1l1,-1h-1v-1h-1v-3l1,-2v-2l1,-1v-3h1l-1,-1h-1v-1M361,152v-11l-1,-1h-1l-1,-1h-1v-1l-1,-2l-1,-1h-1v-1l-1,-1v-2l3,-3h1l1,-1h1v-1h1v-2h1v-2l1,-1v-1h-1l1,-1v-1h1v-2h-1h1l1,-1v-1h2v-1M372,195l-1,-2v-1l-2,-2v-1h-3l-3,-1l-2,1h-1v-1l-1,-1v-4l-2,-1l-1,-2l-1,-1v-1h1v-1l2,-1l1,-1l1,-2h-1v-3l1,-1l1,-2v-5l1,-2v-4l-2,-2v-1l1,-1h1l2,-1h1l1,-1v-1l1,-1h1v-3l-1,-1h1v-1h1l1,-1h1v-1h1l1,-1l2,-1h1l1,-1h2v-4l1,-1M474,201v-23l1,-2v-26l-1,-1v-2h-1l2,-2v-1h1v-1l-1,-1v-2l2,-2M465,219v-4h8l1,-4v-10h12l3,-1h19l3,1h14v-2h1v2h33l3,1h8M570,258v-2l-1,-1v-3l1,-1v-1l1,-3l2,-4l-1,-1v-1l1,-1v-3l1,1h2l1,-1v-1h1v-1h2l1,-1h2l1,-1v-1h1l1,-1M619,275l1,-1l2,2l1,-1v-1h1l1,-1M550,295l1,-2v-1l1,-2v-4l2,-2h1v1h2v-2l1,-1v-4l2,-2l1,-2v-1l3,-3h3v-3l1,-1v-2h1v-4l1,-2h5v-1h1l3,3v-2l1,-1l1,-2v-1l2,2h1l2,2l3,-1h1l1,-1l1,1v1h2l1,-1l1,1h5l2,2l2,1h1l1,1l1,2l3,2l8,8v2l-1,1l-1,2h-1l-1,1v6h10M667,314l-2,-1h-6l-5,-2l-4,-2l-15,-6h-1l-3,-3h-1l-2,-2v-2l-1,-1h-1v-1l-1,-1h-1v-2l-1,-1v-2h1v-1l2,-2v-1l1,-1M618,343v-1l1,-1h3l3,-1h1l1,-1v-1h1l4,-2h9l2,1l6,-6l2,-3l2,-1l4,-4l3,-2l1,-2l4,-4l2,-1l2,-2l1,-2l1,-1l1,-3l1,-2l1,-1v-12l-1,-3M561,327v1l1,1v-1h1l2,1h1v2l-1,1v1l2,2v1h3l2,1h3l2,1l2,2l4,2l1,1l2,1h4l1,1h4l3,1l1,-1l1,-2h1l1,-1l3,-1l1,-1h3l2,1v1h1v1h6l-1,1l-1,2l-6,6v31l2,1l2,4l1,1v1M170,240l1,-1h1l2,-1h2l1,-1h4l1,-1h1l1,-1v-2h1v-1h1v-1l2,-2v-1l1,-1v-1l1,-1v-2l2,-2v-1h1v-2h2v-1h2v-1l3,-3v-1h1v-1h1l1,-1h1v-1h1v-1l1,-1v-1l1,-1v-1l1,-1v-1h1v-2h2l2,-2v-1h1v-1h1v-1h1v-1l1,-1h1l1,-1h7v-1h1l1,-1h1v-1h3l1,-1v-3h1v1l-1,2M168,244v-1l1,-1l1,-2h2l1,-1h3l1,-1h3l1,-1h3l1,-1h3l1,-1h4v-2l1,-1v-3l1,-1v-4h1l4,-4h1l2,-2h1v-2l1,-1v-1l1,-1v-3l1,-1v-2l1,-1v-2l1,-1v-2l1,-1h4l1,-1h4l1,-1h3l1,-1h5l1,-1l1,-2v-1l1,-2v-1l1,-1v-1h1l1,1h1l1,1h1l1,1h1l1,1h1v1h1l1,1h1l2,2h2l1,1l2,1l1,1M186,283h1l1,-1v-1l1,-1v-1h1v-2l1,-1h1v-1h1v1l2,2h1v-1l2,-2h5l2,-1h1v-1h4l1,-1h3l2,-1h4l1,-1h4l2,-1h4l1,-1l3,-6l-2,-2v-3l1,-2v-9l1,-2v-7l1,-2v-5l1,-2v-5l1,-2v-5l1,-2v-3l1,-2v-3l1,-2v-3l2,-1h5l3,-1h2l2,1l1,1l4,2l1,1l6,3l2,2l10,5l2,2l6,3l1,1v1l-1,1h1l2,1v1l1,1h4v1h4l1,1h1v4h-1v2h2l2,-1h1l3,-1"/>
<path class="sb" d="M273,267v-1h4l2,-1l1,-1l4,-2h4l2,-1h5v-1h3l3,-3h1v-2l1,-1v-1l1,-1l1,-2v-3h1v-6l1,-2v-5l1,-2v-1h2l1,-1l3,-1h3l3,-1l4,-4l2,-1l4,-4l3,-1l4,-4l5,-2l4,-3l4,-2l5,-3l4,-2l4,-3l4,-2l5,-2h4l3,1h5l4,4l3,-2l4,-1M377,265v-5l1,-2l2,-2l3,-5l11,-11l2,-7v-3l1,-4v-3l1,-2v-3h1l1,-3v-1l-2,-1v-1l-1,-1h1l-2,-3l-1,-1v-10l5,-3l3,-1l6,3l7,2l4,2l3,1l4,2l4,1l4,2l3,1l8,4l4,1l4,2l3,1l8,4v22l-1,5h-4l-2,1h-2v4h-1l-1,1v1h-1v1l-1,1h-1v3h1v1h-2v1h-1l-1,1v1l1,1v3l-2,1h-1v3h4l1,1l-1,1l1,1v2h1v4h1l1,1h1v1l-1,2v1M161,281l1,-1v-1l1,-1v-1l1,-1v-1h3l1,-1h1l1,-1h1v-1h5l1,1h1v1h3v4h2v2l1,1h1v1h1v4h1v4l-1,1v1l1,1h2v5l-1,1h1v1M158,298h1l2,-1h3l1,-2h1l1,-1h1l1,1h1l1,1h1v-1h2v1l-1,1l-2,1h-1l-1,-1h-2v-1h-1v1l-1,1h-1l-1,1h-1l-1,2h-3l-1,1h-1v1M155,308h2v-1h2l1,-1l2,-1l1,-1l2,-1h3l2,-1h2l2,-1M164,317v-1l2,-3v-1h1l2,-2h2l2,-1v-3h-1v-1h1v-1h1v-3h4v1l1,-1l1,1h3l1,-1h2l1,-1h1v2l1,1l2,-2h1v2h1v-1l2,-2h2l2,1l1,-1v-1h2v-2l1,-1l1,1h1v5h1v2h2l-3,3h3v4l1,1v1M227,308v-2l1,-1v-2l1,-1l1,-2v-4h1v-1h1l2,-1h1v-1h1v-1l1,-2v-1h-1l2,-1l1,-1l-1,-1v-1h1v-1l1,-1h2l2,1l1,-1h1v-3h3v-3l1,-1l2,-1l1,-1l2,1l1,-1l1,-2h2v-1h1l2,-2h2v-1h1l2,-2h5l1,1v2l-1,1h1l1,1v1h-1v1l1,1v1h1v1h3v1l1,1h-2v2h1l1,2l2,1h2l1,-1h2v2h-1v1l2,2v1M173,329h1l1,-1v-1h1l1,-1v-2h1v-2h1v-1h2l1,-1h2l2,-1h1l2,2v1l1,1v4l1,1v1l-2,2v1h1l1,-1v-1h1M183,344l1,-1l1,-2v-1h1l1,-1v-1l2,-2v-1l1,-1v-1h1v-1l1,-1v-1l1,-1l1,1l1,-1h1l1,1v4h1v2h-1v1h1l1,1h2v-1l1,-1v-2h1l1,1M209,360h-1v-4l1,-1v-2l1,-1v-4l-1,-1h-1v-1h-1v-1h-3v-1h-2l2,-2v-2l1,-1l-1,-3v-2h1l1,1v-3l1,-1v-2h-1v-2h4v-2h-1l-1,-1v-1h1v-1h1v-1h-1v-2h-1v-4l1,-1v-1h1l1,-1v-1h1l1,-1v1h1v1h2v-1l1,-1h2v-2h2v-1h1v4l1,-1h1v-1h1l1,-1h1l1,1h2v2l1,1h1l1,1v-1l1,1h1v-1h1l2,-1v-1h5l1,1h1v1l1,1v-1h1M242,348h1v-1h1v-3h-2v-4l-1,-2v-5l2,-1v-3l1,-2v-1h1v-1l1,-1v-1h1v-7h-1v-2h1h-1v-1h1v-1l-1,-1v-1l1,-1l-1,-1v-1l1,-1h-1v-1h1h-1v-2l1,-3h4l3,-1h5l1,-1h4l1,-1h1v-1h1M274,336v-1h-1v-1h-1l-1,-1v-1h-1v-1l-1,-1v-1h1v-3l-1,-1v-1l1,-1v-4h1v-2l-1,-1h-1v-1l1,-1v-3l1,-1v-1h-2v-2l1,-1v-4h-1v-1h-1l-1,-1v-1l1,-1v-1l-1,-1l2,1h4l2,-1M277,334l2,-1l-1,-1v-1h-1v-1h1h-1v-2h1v-11l1,-2v-5l-1,-1h-1v-5l-2,-2h-2v-1l1,-2v-2l1,-1h1v-1h1v-1h1l1,-1v-1h4l2,-2h1l1,-2v-3h1l1,-1h2l2,1l1,1v1h1l1,1"/>
<path class="sb" d="M286,332v-3h1v-1h-1v-1l1,-1v-14l1,-2h1l1,-1h1v-3l1,-1h1v-2h1v-1h1v-4h2v-4l-1,-1v-1l-1,-1v-1l1,-1v-1h1l-1,-1v-1h1v-4l1,-1l2,-1v-2l1,-1l1,-3l2,-2h1l1,-1h4l1,-1h4l3,1h1l1,1h1v1l1,2h3v-1h2l3,-2h3l2,2l3,1h6l4,-4h2l2,-1l4,-1h4l2,1h2l1,1h3v-1l2,-2h1l2,-1h1l2,-2h1l2,2l1,2l1,1M332,340l1,-1l1,-2v-1l1,-2v-1l1,-2v-1l5,-5h1v-1l1,-1v-1h1l1,-1h4v-1h2l2,2l1,2h2v-1h1v-1h1v-2h1l1,-1v-3l2,-1v-2l1,-1l1,-3v-1l1,-2h2v-1h1v-1h1v-4l1,-1h1l1,-1v-1l1,-1v-2l1,-1l1,-2v-1l2,-3l3,-3h1l2,-1l2,-2l-1,-1l1,-1v-3h-1l-1,-1h-1v-1l-1,-1v-3h4v2l2,2v2l1,1l1,2v2l-1,2v4l1,1v2l3,3h1l-1,1h-11l-2,2v2l2,2h1l1,2l2,1h1l2,2l2,4v2h1v2M396,356l-1,-1v-4l-1,-1v-1h-2v-1l-2,-2h-1l-3,-3v-1h1v-2l-2,-2h-1v-1l-1,-3v-2h-1l1,-1v-4h-1v-1h-1l2,-2h1v-1h1v-2l2,-2v-1l1,-1v-1l1,-1h1l1,-2h4v-1h2l1,-1h1v-1h1v1l1,1h2l1,-1h1l2,-2h1l1,-1h8v-1h1v-1h1l1,-1l1,-2h1l-2,-2v-1h4l2,-1h3l1,-1h2l2,-1h1v-1h1l2,-2v-1l2,-2h2v-1l1,-1h1v-3h1l1,-1h1v-1h2l1,-1h4v1h1v1l5,5l1,2v2l-2,4v1h1v1l1,1h4M493,330l-1,-1v-1l-1,-1v-2l-1,-1h-1l-2,-2h-2v-1l-1,-1v-1h-1l1,-2h-1l-1,-1v-1h-1l-1,-1l-5,-2v-1l-1,-1v-2l-2,-1l-1,-2h-3l-1,-1h-2v-1l1,-1l-1,-1v-1h1l2,-1v-1h1v-3h1v-1h1l-1,-2h1l1,-1v-2h1v-1h2l5,-1v2h1v1h1v1l4,3h1l2,-1h8l1,2l1,1h6v-1l2,-2h1l1,-1h2l1,-1v-1l1,-1l2,-1l4,2l3,2v1v-1h4l5,-5l1,-2l4,-3l-1,-1v-4l-2,-2h6v-1h-1v-1h4v5h-1l1,7l2,1h1l4,3v6h1v2l1,2v3h-1v1h-7v2l-2,2v1h1l1,1h4l2,2h1v2h1l1,1v1l2,1l1,1h1v2l1,2l1,1v1l1,1v2l1,1h1l-1,2l-2,2l-5,3l-1,2l-2,2M342,359v1h13M340,370h3v1l1,-1h7l2,-1h2v-11h16M353,411l1,-1v-1h1l1,-1h1l1,1h2v-1h-1v-1l1,-1v-1h-1l-1,-1v-1h1l-1,-1h-1v-5l1,1l2,-1v1h1l3,-1v-4l1,-1h1v1h1l1,1v1l2,2h3l2,-2v-1v1l1,1v1h2l1,-1v-3h1v-1h1v-12h-2l-1,-1v-1h-2v-4l3,-3h1v-1h1v-2l-1,-1l-1,-2l-1,-1h-2l-1,1h-2l-1,1h-1v-2h-1v-2l1,-2v-2h10l1,-1l1,1h2v1h2v-1l1,1h4l1,1h1l1,1v-4h1v-2l1,-1l1,-2v-4h1v-2h1v-1h3l2,-1h5v1h2v-1l1,1l1,-1h2v1h1M370,416h1v1h1v1h1v-1h2v-3h4v-1h2v4h3l3,-3l1,-2h1l1,-1v-1h1l1,-1h1l3,-5v-11h1l1,-1l1,-2l1,-1l1,-3v-1h1l1,-1h1l5,-5v-4l2,-5l-1,-3v-2l1,-3l1,-1v-4l2,-5l2,-2v-2l1,-2v-6l-1,-2h1l2,-2l2,-3l4,-2h2l1,1h1l2,1l3,3h3l1,1h2l2,1l1,-1h2l5,1l1,-2l2,-2v-1h4v1h1l1,-1h2l1,-1h1l2,-1h9v-1l2,-1l1,-1h1l1,1h3l5,1h1l2,-1l3,1l2,2h1v1l1,1h1v1h1l1,1h3l1,-1h3l1,1h1l2,-2h2l1,1v1l1,1h1l1,2l2,1h1v2h2l1,1"/>
<path class="sb" d="M512,384v-8l1,-3v-2h1v-1l1,-1v-4h1l2,-2v-1h2l6,-6v-1l1,-1h-1v-1h-1l-1,-1h-2v-2l1,-2v-1h-1v-1l1,-1v-2l2,-2h2l1,1h2l1,-1h1v1l1,1h1l1,-1h1l2,-1h2l2,-1l1,1h4l3,-3l1,2l2,2h1v4l1,1v2h2v2h1v3l1,2v4h-1v1h-1v2h-1l-1,1l-1,2l-3,3v1l-1,1v5l-1,4l1,1M507,395h-1v-3h1l1,-1v-3l1,-1v-1l1,-1h1l1,-1h2l1,1l4,-4h1M510,410v-3l-1,-1v-8l-2,-2v-2h2v1l1,1h4v-1h1v-3l1,1h1v-1h3v1M522,443v-1l-1,-1l-1,-2v-1l-1,-2v-1l-1,-1l-1,-2l-3,-3h-1l-1,-2l-1,-1v-3l1,-1v-2l-1,-1v-1l-1,-2v-6h3l2,-1l2,-2v-1l2,-2v-1l2,-2v-1h2v-1l-2,-2h-2v-1l1,-1h-1v-1l1,-1h1v-1h2v-6l-1,-1v-1h-1l-1,-1v-2h30l1,1l12,6l1,2l10,5l1,1l6,3l1,1v3h-1v1h1l4,4l2,1l2,2l2,1l2,2h1v1M361,420l1,-1v-1h1l1,-1v-1h1l1,-1h1l1,-1v1h1l1,1l-1,1h-1l-2,2v1h-1v6h-2M370,427h2l1,-1h14l3,-1h8l1,1h1v1h1v4l1,2l1,1v3l1,1h1l3,6h1l1,-1h1l1,1h1l1,-1h1l1,-1h8v-4h1v-3l1,-1l2,-1h6v3h3l2,-1l3,1h3v2l-1,2l2,4v4l-1,1v6l1,1l1,2l1,1l1,2v5l-1,1l1,1v1h1l1,-1h6l2,-1h4v-1h1M460,525l-2,-1l-7,-7h-1l-1,-1l-1,-3v-10l-1,-3v-15h16l1,-1l-1,-1v-2h1v-15h1v1l2,1v3h1l2,-1h1l2,-1h2v3l2,2l1,-1l2,1l1,1h8v-1l1,-1v-1h1l1,2l2,2v1l1,1h2l2,1h1l1,1h1v2l1,1h1v1h1v1l1,1v1h1l1,1l1,-1h2v-1l1,1v1h1v-11h-2v2h-4l-2,-2v-1l-2,-1v-1h-1v-2h-1v-1l1,-1v-2l1,-2v-1l1,-1v-1l-1,-1v-3l1,-2l-1,-2v-1l-1,-2v-1l1,-1h1l1,-1v-1h1v-3h1l2,-1h4l3,-1h6l1,1v1l1,1h3l1,1h1v1l1,1h2v1h2v1h2l1,1h1l1,1h1M542,494v-1h-1v1h-1v-2h-1l-1,-1h1v-1h-1v-1h1l1,-1v-3h1v-1l-1,-1v-1l1,-1h2l1,-1h1v-1h-1l-1,-2v-6l1,-2v-1l-1,-1v-1h1l1,-1l2,-1v-1h-1v-2l-1,-1h-1v-3l-1,-1v-1h-2v-1h-1v-1h1l1,1h2l1,1h3v1h1v-1l1,-1v1l2,1v1l2,1v5h1h-1l1,1v5l1,1v1h1v2M365,526h1l1,-1l1,1h3l2,-2h1l1,-1h3v1h1l1,1h1l1,1h12l3,-1h17l2,-1h3v1l2,2h1l1,1h12l1,1h3l2,-1h2v1h1l2,-1h2l3,-1h3l6,-2h2l1,-1h10l2,2M435,588v-7l-1,-3v-14h8v-1l-1,-1v-22l-1,-3v-5l2,-1h3l7,-2h3l3,-1h1v1l2,1v2h2l1,-1v-1h1l2,-2h2v1l3,-2l1,-1h2M509,564l-1,-1h-1v-1h-1l1,-1h-1l-2,-1h-1l-3,-1h-2v-1l-1,-1v-1l-1,-1v-5l-1,-1h-3v-2l-1,-1l-4,-2l-1,-1l-2,-1l-2,-2l-1,-3v-1l-1,-1v-1l-3,-3v-2h-1v-1h-1v-2l2,1h1l1,-1v1l1,1h2l1,-1h1l2,1h4l2,-3l1,-1l2,-3l3,-3l4,-2l3,-1v-3l1,-1v-1h1l2,-2h2l2,-1h5M410,622l1,-1h1v-1h1v-3h3v1h1v2l1,1v1h1l1,1h12v-1l2,-2h1l1,-1h1v-5l-1,-4v-11l-1,-4v-7l3,2l1,1l2,5l1,1v3l-1,1v4h9v-1l1,-1h1l1,-2l2,-1l1,-1v-1l1,-2v-1l1,-1v-1l2,-2h2l2,2h1l1,1h2l1,1h2l2,1h1l1,-1h3l1,-1l1,-2v-1l1,-1v-3l1,-1h1l3,-1v-1l2,-2h1l1,-5l1,-1h1v-1h1l1,-1h1v-1h1l1,-1h1v-2l2,-1l1,-1h2l1,-1h1l1,-1v-1l1,-1h7l4,2l2,-1h3l1,1h1"/>
<path class="sb" d="M530,604h-1v4h-5l-2,-1l-1,-2v-1h-1v-3l1,-2l1,-1v-1l2,-2h1l4,2M536,605h-4l-1,-1h-1v-7h-1v-2l1,-1v-11l-1,-1v-3l-1,-1v-1l-2,-2l1,-1l-1,-2v-2l-1,-2v-2l9,-9v-2l1,-1v-3l3,-3l1,-2v-2l-1,-1v-1l-1,-2l1,-1v-2h-1v-2h2v-4h1h-1v-5l1,-3v-1l-1,-2v-3h-1l-1,-1l-2,-1h-1l-3,-1l-2,-2h-2l-2,-1h-5l-1,-1h-1v-6l-1,-1v-1l2,-1h1l1,-1h2l2,-1h1l2,-1h2l4,-2l5,-2h3l4,4h4l1,-1h1l1,2v6l-2,4v2h1v3h1v1l2,1l1,2h1v3h2v-3l-1,-1v-1l1,-1v-2h3l1,-1v-1l1,-2v-6l1,-1h-1v-2l-1,-2l-2,-2l-1,-2l-3,-3v-1h-1l-1,-1h-1v-3l-1,-2v-4l-1,-2v-1l2,-2v-1l1,-1h9l1,-1h1l1,1h1v1h5l1,-1h1l1,1h1l1,1l1,-1h2l1,-1v-2h4l1,1h1l4,-2l1,1l2,-2h4l1,-1l2,-1l2,-2M614,110v1l1,1v1h1v1l1,1h1l1,2h2v1h2l2,1h1h-2v2h1v1h1l-1,1h-1l-1,1v1h-1v1l1,1v1l-1,1h1l2,1v1h2l-1,1h2l1,1v1h-1l1,1h2l1,1l2,1l1,1l2,1h2l1,2h1l2,2l-1,1v1l1,2v1h2v1l1,1v1l1,1h1v1h1v1h1v1M637,159l2,-2v-1h1v-2l1,-1h3l1,1h1M580,137h4l3,1h2l1,1l3,1h1l5,2l1,1l3,1l3,3l5,2l3,2l2,2l3,1l2,2l5,2h4l3,1h6l2,1h3l1,1v1l1,1h3l2,1h1M709,208v1h-2l-1,-1h-2l-1,-1h-4l-1,-1h-3l-2,-1h-3v-1h-1v-1h-1v-1h-1v-1h-1v-1h-1v-1h-1v-1h-1l-2,-2v-2M690,232h3l1,-1h2l2,-1h3l1,-1h4l1,-1h4l1,-1v-6l1,-1v-6h1l-4,-4v-1l-1,-1v-4l1,-1v-3h-1h4v-1h-1l-1,-1v-1h-1v-4h1v1l1,1h1v-1h1M712,189h-1v-3h-1M621,245l1,-1h1v-1h1v-1h-1v-3h1l-1,-1l1,-1h2l1,1h2v1l1,-1h7l2,1h1l1,1h5l2,1h4l2,2h3v-1l1,-1v-1l3,-3v-1l1,-1h1l4,-2h5l2,-1h16l1,1v1h1v1l1,1v1h1v2l1,1v1h1v1l1,1v1h1v1l2,2v1l1,1v1M576,129l1,2l2,2v3l1,-1h1v1l-1,1h-1l-1,1h-5l-2,1h-4l-2,1l1,1l2,1l2,2l2,1l1,1h-1l-2,2v1h-2l-2,1h-2l-1,1v1l-2,1l-1,1h-2l-2,-1h-3l-2,-1M554,134v5M555,132h-1v2h-1v-1h-2l-1,1v3h1l1,1h-2v1l-1,1h3l1,-1h1v1l-1,1h1v1h-1v2l-1,1v4l-1,1v1M597,110l-1,1h-1l-1,1h-2l-1,1v2l1,1v7l-1,1h-2l-4,2h-1l-4,2h-2l-2,1l-1,1l-2,1h-1l-4,2h-1l-4,2l-2,-1h-2l-2,-2h-1v-2h-1v-2M556,121h3v1h-1h1l1,2l-1,1h-1l1,1h-3v1h1h-1v1M610,97h-2v1h-3l2,2v1h1v2l1,1h1h-1v2h1v1h1v1h1v1h1v1h1h-1h1h-2v1h-2v-1l-1,-1h-1l-1,1l-1,-1h-3l-1,-1l-1,1l-1,-1l-1,1h-1l-1,1v-1h-1v-1l-1,1h-10l-3,1h-2l-2,1h-2l-2,-1h-2l-1,-1h-2l-2,1h-6l-1,-1h-1l-1,1v1l1,1h-1l-1,1v1h-3M610,97h-1l-2,-2h-4l-2,-2v-2l-2,-2M608,89h-1h-10v-1h-1l-1,-1h-8l-1,-1"/>
<path class="sb" d="M975,354v-2h-1v-3l-1,-1v-2l-1,-1v-2l-1,-1v-2h-1v-2l-1,-1v-2l-1,-1v-2h-1l-1,-2v-2l-1,-1v-2h-1v-2h-1v-1l-1,-1v-3h-1v-1l-1,-1v-1h-1v-1l-1,-2v-1h-1v-2l-1,-1h1l1,1l-1,-1v-3h-1v-1l-1,-1v-2h-1v-1l-1,-1v-1v1h-1v-1l-1,-1v-1l-1,-2l-1,-1v-2h-1v-1l-1,-1v-1l-1,-1v-1l-1,-1v-1l-1,-1M972,352v2h1v1l1,1v1v-2l-1,-1h1v-1v1v-1v2h1v1v-1l1,1v4h1v3l1,1v2l1,2v3l1,1v1h-1v2h-1v1l1,1v2l1,2v1l-1,-1v-1v1l-1,-1v3M944,287l1,1v1h-1l1,1v3l1,2M964,372v-2l-1,-1v-1l1,-1v-6l-1,-2v-1l-1,-1v-3h-1v-3l-1,-1v-3l-1,-1v-2l-1,-1v-1l-2,-4v-1l-1,-1v-1l-1,-1v-1l-1,-2h1v-1v1v-2l-1,-2v-4h-1v-2h-1v-2l-1,-1l-1,-2v-1l-1,-1l-1,-2l-1,-1v-2l-1,-1v-1l-1,-1v-1l-1,-1v-1v1h1v-1l-1,-2v-2l-1,-1v-2h2v1v-2h1h-1v-1h1l1,1v1v-1l1,1v2h1v3l1,1h1v1h1v2l1,1v2l1,1v3h1v3l1,1v2l1,1v-4l1,1v1l1,1v1h1v-2h-1v-1h1v1l1,1v1l2,4l1,1v2l1,1v1l1,2v1l1,2v2l1,1v1h1v2l1,1v1l1,1v3l1,1v3l1,1v2h-1v-1l-2,-2v-1h-1v8l1,1v2l1,1v2l1,1v2l1,4M958,302v-1l-1,-1v-1v1l-1,-1v-1h-1v-2h-1v-2l-1,-1v-1l-1,-1v-2l-2,-2v-1v1v-1l-1,-1v-1h-1v-1l-1,-1v1l1,1v1l-1,-1v1l1,1h-1l-1,-3v1v-1v1h-1v-2h-1v-1v2l-1,-1v1l1,1v1l1,1v1l1,1v2h1v1h-1v-1l-1,-1v-1l-1,-1v-1h-1l1,1h-1v-1h-1v-1l-1,-1v-1l-1,-1v-1l-1,-1h-1v-1l-1,-1v-2l-1,-1v-2h-1v-1h-1v-1l-1,-1v-2h-1v-2h-1v-2h-1v-1h-2l-1,-1v-2h-1v-1l-1,-2v-2h-1v-5l-1,-1v-1h-1v-2l-1,-1v-1l-1,-1v-1l-1,-1l-1,-2v-1h-1v-1v1v-1h-1l-1,-2l-1,-1v-1l-1,-1v-1h-1v-1h-1v1h1M804,149l2,2h2l1,1h1M863,156l-9,-9h-1v-1h-1v-1h-1v-1l-4,-2v-1l-2,-1l-2,-2h-1l-3,-3h-1l-1,-1v-1h-1l-3,-3v-1h-1l-2,-2h-1v-1h-1l-3,-3h-1v-1h-1l-3,-3h-2l-1,-1h-1v-1h-1l-1,-1h-1v-1h-1l-3,-3v-1h-1l-4,-4h-1v-1h-1l-1,-1h-1v-1h-1v-1h-1v-1h-1l-1,-1h-1l-1,-1h-1v-1h-1l-1,-1h-1v-1h-2v-1h-1l-1,-1h-1v-1h-1l-2,-2M791,94h1l1,1l-1,-1l1,1h1v1h1v1h1l1,1h1v1h1v1h2v1h1h-1h1h-1h1v1l-1,-1h-1v-1h-1l-1,-1h-1v-1h-1l-1,-1h-1v-1h-1v-1h-2v-1h-1v-1h-2v-1h-1l-1,-1h-1v-1h-1h1h-2l1,1h-1v-1v1l1,1h-1h1h-2v-1h-1h1v1h-1M624,68h-1l-1,-1h-2l-1,-1h2l-2,-2h-1v-1h-1l-1,-1h-1l-1,-1h-5v-1h-1v-1h-1l-1,-1h-1l-1,-1v-1h1v-1h-1v-3h1v-1h2l2,1l1,1h3v-1h-1v-1h-1v-1l1,1v-1h2v-1h4v-1h1v-1l1,1h2v1h2l1,-1h2v1h3v1h3l2,1h1l1,1h2l1,1v1h1v-1h-1v-1l1,1h1l2,1h2v1h1v-1h1l1,-1v1h4l1,1h1v-1h2l1,1h1l1,1h2v1h3v1h1v-1h2l1,1h4v-1h-1v-1l-1,-1h-3l-2,-1h-1v-1h-2v-1h2v-1h-1l-1,-1v-1h1l1,1h2l-1,-1h-3v-1h-1h1h-1l-1,-1h-1h1h-1v-1h2l1,1h1h-1h11l1,1v-1h3l1,1h5v-1h3v1h2l1,1h3l1,1h1l2,1v1h1v1h1l1,1h4v1h2l2,1h2v1h-1h1v1h4v1h1h-1v-1h5v1l-1,-1h1v1h1l1,1l6,3h1l1,1l4,2l3,2l4,2l3,2l2,2l2,1l1,1h1l-1,-1h1h-1v-1h1v1h1l1,1h1v1h2v1h2l1,1v-1h1l1,1h1l2,2h1l2,2h2l3,3h1l1,1h1l1,1h2v1h1l2,1v1h2v1l-1,-1v1h1v1h1h-2l4,4h1v1h1v1h1h-2l-1,-1h-2l-2,-2h-2v-1v1h1l1,2l1,1v1h1l1,1v1h1v1h1l1,1v1v-1h-2l-1,-1h-3v-1h-2v1h1l1,1h1v1l5,5h1l1,1v1h1l1,1h-1l1,1h-1h1v1l2,2"/>
<path class="sb" d="M844,190l1,1h1v-1h1l1,1h1v1h1v1l2,1l3,3h1v1l3,3h2l1,1v1l2,2l2,1v1h2v2h1v1h2l1,1v1l1,1h1v1v-1l1,1h1l-1,-1h1v1h1v1h1l2,2h2M887,223v-5l1,-1v1h1v1h1v1h1l2,2v-1v1h1l2,2M808,153h1v-1h2l1,1v1h1l1,2l1,1v1h1l1,1h1v1h2v3l1,1v1l1,1h1v1h1l1,1v1h1v1h1v2h1h-1v1l-2,-2h-1v1l4,4v1h1v2h1v1v-1l1,1v-1l1,2l1,1h1v1h2v1h1l2,2v1h1l1,1h1v1h1l1,1l-1,1v3l1,1v3h1l2,2h1v1h2v1l1,1h1v1l2,1l1,1v1h2l1,2h1l1,1h1v1l1,1h2v1v-1l1,1h1v1v-1h1l2,2h1v1h1v1l2,2h1v1h2v1h1v1h1l1,1h1v1h1l1,1h1v1h1v1l1,-1v1h1l1,1v-3h-1v-1l-2,-2v-2l-1,-1v-1l-1,-1h2l1,1v1l1,2v1h1v2h1v1h1v1l1,1h2v1h1v1h1v-1l1,1h1v1h2l1,1h1v-1h-1v-2l-1,-1h-1v-1h-1v-1h2v-4h1v-2h1v1h1v1h1l1,1v-1h1v1h1v2h1v1l2,2v1h1l1,1v1h1v1h1v2h1v3l2,2v1v-1h-1v-1l-1,-1h-1v3h-1l1,1l1,2v1l1,1v4h1v1l1,1v4l1,1v1h-1v-1h-1l-1,-1l1,2l1,1v1l1,1v4h1v2l1,1v2l-1,-1v1M789,138v1h2l1,1h1l1,1h1v1h1l3,3v1h1v1l1,1h2v1h1l2,2v1h1v1h1v1h-1v1l-1,-1l-1,1v-1l-1,1h-1l-1,-1h-1v-1h-2l-1,-1h-3v2h1v1h1v1h2v1h-1v1h1v1h1v2l1,1h1v1h1v1h2v1l2,2h1l1,1h1v1h-1l-1,1h-1v1l1,1h1v2l1,1v1h-1v2h-1h1v2h-1v1h-1v1l1,1v1l-1,2h-1l-1,1v5h-6v-1h-1v-1h-1v-1h-1v1h-1v2l-1,1v4h1l1,1h1l1,1h1v1l1,1v2l2,2h2v1l1,1v1l4,4v3h1h-1l-1,1l-1,-1v-1h-3v1h-2v-1h-2l-1,-1h-3l1,2h-3M905,260h-1v-1l-1,-2l-1,-1v-1l-1,-1v-2h-1v-1l-1,-1v-1h-1v-2l-1,-1v-2l-1,-1h-1v-1h-1v-1h-1v-1l-1,-2h1v1v-2h1v1l1,-1h-1v-1h-1v-1h-1v-1l-2,-2h-1v-4h-1v-1l2,2v1h1v-1l1,1v1l2,2v-1l2,2v1l1,2v1h1v1l1,1h1v1h1l2,1h1v1h2l2,2v1h1h-1v1l1,1v1h-1l1,1h-2v1l1,1v1l2,4v-1v1h1v1l1,1v-1l-1,-1v-2h1v1l1,1v1l1,1v1l1,1v1h1v2l1,1l1,2v1l1,3l1,1v1l-1,-1v-1l-1,1h1v2h1v2h1M751,106v-1h-1l1,-1h-1l1,-1h1v1l1,-1v1h2l2,1l1,1h1l1,1h2v1l-1,-1v-1l-1,-1v-1h2l1,1l2,1h1l1,1l2,1h3l1,1h3l1,1h2l1,1h2l1,1h1l1,1h1v1h1l1,1h2l3,3h-3l-1,1h-1v1h-3v-1h-2v1l1,1v1l-1,-1v1l-1,-1v1l-2,-2h-1v-1l-1,1h-1l-1,-1v1h1h-1v1h-2v1h1l1,1v1h-1M759,116h-1v1h-1v-1h-1l-1,-1h-3v1h1h-1v1h1v1h3l1,1h3l2,2v-1h2v1h2v1h2l1,1h4v1l1,-1h1v1h1v1l1,1h1v2h1l1,1h2l2,1v1h1v1l2,2h1v2h1l1,1v1M675,96l-1,-1v-1l-1,-2l-1,-1v-1l-1,-1v-1l-2,-2v-1l-2,-2v-2l-2,-2v-1h14v1h1l1,1h2l1,1h1l1,1h1l1,1h2l1,1h1l1,1h1v1h1l1,1h1l1,1h1v1l2,1h3l1,1h6l1,1h5v1h1l1,1h1l2,2h1v1h2v1h1v1l1,1v1h1l1,1h1l5,5h4l1,1h2v2h1l1,1h1v-2h1l-1,-1h1v-1h3v-1h2v-1l1,1h1h-1v1h-1v1h-1l1,1h2v1h1l1,1h1l1,1h1l-1,-1h1v-1h-1h1v1h1l1,1h1v1h2v1h1v1h3v1h-2v1h-1v-1v1h-3v-1h-4v-1h-1l-1,-1h1v-1h-1v-1l-2,-1v1h-3l-1,-1v1l2,2h-1h1h-1v1h-1h1v1l-1,-1v2h-1l-1,-1h-3v1l1,1h1l1,1h1l1,1h1v2h1l1,1v1h1v1h1l-1,1v2l1,1"/>
<path class="sb" d="M653,91l1,-1h2l1,-1h4l1,1h2l1,1l2,1l2,2h1v1h1l1,1h6l2,1h1v-1l-2,-2h1v-1h3v-1h2l1,1v-1h-1l-1,-1h3l1,1h1l1,1h1v1h3l1,1v1h2v2h1v1h1l2,1h2v1h4l1,1h1v1h1l6,6h1l2,1l1,1l2,1l1,1l4,2l1,1h1l2,1h1l1,1l4,2l1,1h2l1,1h1l1,1h1l1,1v2h1v1M616,87h2l1,1h1v1h2l2,2h2l1,-1h1l2,-2M722,131v1h1l1,1h2l1,1h1l1,1h3v-1h1h-1v-1h1h-1v-1h5v-1h1v-5h2l1,1v-2h1l2,1l1,1h3l1,1h1l1,1h3v1l1,1h2v-1h3l1,1h1v-1h-1v-1h3v1h1v-1l-1,-1v-2h2l2,1l1,1v1h1l2,2v1l1,1v1l1,1v1h1l1,1h1v-1h2v-1h2v-1l1,1h1l1,1h-1h5v1h1v1h1h-1v-1h-2v1h2l-1,1h-2l-1,-1h-3v-1h-4v1h-2v2l1,1h1v1l2,2v1h1v2h-1v2l1,1v1h1v1h-3l-1,-1l-2,-1v1l4,4l-1,1h-2v3l2,4h-1v1h-1l-1,-1h-1v-1v1l-1,-1h-1l-1,1h-2l1,1h1h-1v1h-2l-1,-1h-2v1h-1v2l1,1v2l1,1v1h-4l-2,1l-1,-1h-5v1l-1,-1l-2,-1h-7l-1,-1l-5,-2l-5,-2M502,3h-1h1h-1v1h5l-1,1h-1v1h2l1,1h-2v1h1h-1h2v1h2v1h-2h2l1,1h3v1h-1l-1,1h-2l-2,1h-2l-1,1h-3l-1,1h-2M476,3h2l1,1h5v1h1h-1h1v1h-1h1v1M508,2h-2v1h-3v-1h-10v1h-18v1h-1h1h-7l-1,1h-6v1h-2l-1,1h-4v1h-3l-1,1l-2,1h-1v1h-4l-1,1h-3l-1,1h-1v1h-1v1l-1,1h-1h2v1h1h-3v1h-1l1,1h-1l-1,1h-2l-1,1h-1v1h-1v1h-1"/>
<path class="sg" d="M 277.4670 946.9389 A 249.7500 63.8287, 0, 1 1, 721.5330 946.9389"/>
<path class="sg" d="M 71.9882 757.8290 A 432.5797 110.5546, 0, 1 1, 927.0118 757.8290"/>
<path class="sg" d="M 0.0000 499.5000 A 499.5000 127.6574, 0, 1 1, 999.0000 499.5000"/>
<path class="sg" d="M 71.9882 241.1710 A 432.5797 110.5546, 0, 0 1, 927.0118 241.1710"/>
<path class="sg" d="M 277.4670 52.0611 A 249.7500 63.8287, 0, 0 1, 721.5330 52.0611"/>
<path class="sg" d="M 3.6563 439.1736 A 482.6785 499.5000, -263.06324942, 0 0, 995.3437 559.8264"/>
<path class="sg" d="M 309.0257 37.7427 A 410.5077 499.5000, -202.41608668, 0 0, 689.9743 961.2573"/>
<path class="sg" d="M 431.6314 4.6322 A 228.3417 499.5000, -187.80911412, 0 0, 567.3686 994.3678"/>
<path class="sg" d="M 503.4692 0.0158 A 15.0083 499.5000, -179.54470018, 0 1, 495.5308 998.9842"/>
<path class="sg" d="M 577.6190 6.1465 A 254.3368 499.5000, -171.00232365, 0 1, 421.3810 992.8535"/>
<path class="sg" d="M 714.2763 48.5328 A 425.5160 499.5000, -154.53355135, 0 1, 284.7237 950.4672"/>
<text x="0" y="0" class="fs" transform="translate(89,310) rotate(101)">30W</text>
<text x="0" y="0" class="ft" transform="translate(89,310) rotate(101)">30W</text>
<text x="0" y="0" class="fs" transform="translate(271,266) rotate(95)">0E</text>
<text x="0" y="0" class="ft" transform="translate(271,266) rotate(95)">0E</text>
<text x="0" y="0" class="fs" transform="translate(514,251) rotate(88)">30E</text>
<text x="0" y="0" class="ft" transform="translate(514,251) rotate(88)">30E</text>
<text x="0" y="0" class="fs" transform="translate(754,270) rotate(82)">60E</text>
<text x="0" y="0" class="ft" transform="translate(754,270) rotate(82)">60E</text>
<text x="0" y="0" class="fs" transform="translate(925,316) rotate(78)">90E</text>
<text x="0" y="0" class="ft" transform="translate(925,316) rotate(78)">90E</text>
<text x="0" y="0" class="fs" transform="translate(296,877) rotate(-19)">60S</text>
<text x="0" y="0" class="ft" transform="translate(296,877) rotate(-19)">60S</text>
<text x="0" y="0" class="fs" transform="translate(151,671) rotate(-18)">30S</text>
<text x="0" y="0" class="ft" transform="translate(151,671) rotate(-18)">30S</text>
<text x="0" y="0" class="fs" transform="translate(99,419) rotate(-17)">0N</text>
<text x="0" y="0" class="ft" transform="translate(99,419) rotate(-17)">0N</text>
<text x="0" y="0" class="fs" transform="translate(155,189) rotate(-18)">30N</text>
<text x="0" y="0" class="ft" transform="translate(155,189) rotate(-18)">30N</text>
<path class="tb" d="M127,998h-2l-1,-1h-2l-1,-1h-2l-1,-1h-2v-1h-3v-1h-2l-1,-1h-2v-1h-2l-1,-1h-2v-1h-2v-1h-2l-1,-1h-2v-1h-2v-1h-2v-1h-2v-1h-2v-1h-2v-1h-2v-1h-2v-1h-2v-1h-1l-1,-1h-1v-1h-2v-1h-2v-1h-1v-1h-2v-1h-1l-1,-1h-1v-1h-2v-1h-1v-1h-2v-1h-1v-1h-1l-1,-1h-1v-1h-1v-1h-1l-1,-1h-1v-1h-1v-1h-1v-1h-2v-1h-1v-1h-1v-1h-1v-1h-1l-2,-2h-1v-1h-1v-1h-1v-1h-1v-1h-1v-1h-1v-1h-1v-1h-1v-1h-1v-1h-1v-1h-1v-1h-1v-1h-1v-2h-1v-1h-1v-1h-1v-1h-1v-1l-1,-1v-1h-1v-1h-1v-1l-1,-1v-1h-1v-1l-1,-1v-1h-1v-1l-1,-1v-1h-1v-2h-1v-2h-1v-1l-1,-1v-1l-1,-1v-1l-1,-1v-2h-1v-2h-1v-3h-1v-2h-1v-4h-1v-3h-1v-5h-1v-6l-1,-1v-17h1v-7h1v-4l1,-1v-3h1v-3h1v-3h1v-2l1,-1v-2h1v-2h1v-2h1v-2h1v-2h1v-2h1v-2h1v-1h1v-2h1v-1h1v-2h1v-1h1v-1l1,-1v-1h1v-1h1v-1l1,-1v-1h1v-1h1v-1h1v-1h1v-1h1v-1h1v-2h1v-1h1v-1h1v-1h1v-1h1l3,-3h1v-1h1v-1h1v-1h1v-1h1v-1h1v-1h1l1,-1h1v-1h1v-1h1v-1h1l1,-1h1v-1h1v-1h2v-1h1v-1h1v-1h2v-1h1v-1h2v-1h1v-1h2v-1h1l1,-1h1v-1h2v-1h1l1,-1h1v-1h2v-1h2v-1h2v-1h1l1,-1h1l1,-1h1l1,-1h1l1,-1h1l1,-1h2v-1h2v-1h2v-1h2l1,-1h2v-1h2v-1h2l1,-1h2v-1h3v-1h2l1,-1h2v-1h3v-1h3v-1h159v1h3v1h3v1h2l1,1h2v1h3v1h2l1,1h2v1h2v1h2l1,1h2v1h2v1h2v1h2l1,1h1l1,1h1l1,1h1l1,1h1l1,1h1v1h2v1h2v1h2v1h1l1,1h1v1h2v1h1l1,1h1v1h2v1h1v1h2v1h1v1h2v1h1v1h1v1h2v1h1v1h1l1,1h1v1h1v1h1v1h1l1,1h1v1h1v1h1v1h1v1h1v1h1v1h1l3,3h1v1h1v1h1v1h1v1h1v2h1v1h1v1h1v1h1v1h1v1h1v1l1,1v1h1v1h1v1l1,1v1h1v1h1v2h1v1h1v2h1v1h1v2h1v2h1v2h1v2h1v2h1v2h1v2l1,1v2h1v3h1v3h1v3l1,1v4h1v7h1v17l-1,1v6h-1v5h-1v3h-1v4h-1v2h-1v3h-1v2h-1v2l-1,1v1l-1,1v1l-1,1v1h-1v2h-1v2h-1v1l-1,1v1h-1v1l-1,1v1h-1v1l-1,1v1h-1v1h-1v1l-1,1v1h-1v1h-1v1h-1v1h-1v2h-1v1h-1v1h-1v1h-1v1h-1v1h-1v1h-1v1h-1v1h-1v1h-1v1h-1v1h-1v1h-1l-2,2h-1v1h-1v1h-1v1h-1v1h-2v1h-1v1h-1v1h-1l-1,1h-1v1h-1v1h-1l-1,1h-1v1h-1v1h-2v1h-1v1h-2v1h-1l-1,1h-1v1h-2v1h-1v1h-2v1h-2v1h-1l-1,1h-1v1h-2v1h-2v1h-2v1h-2v1h-2v1h-2v1h-2v1h-2v1h-2l-1,1h-2v1h-2v1h-2l-1,1h-2v1h-2l-1,1h-2v1h-3v1h-2l-1,1h-2l-1,1h-2l-1,1h-2Z"/>
<path class="tl" d="M169,986h1v1h-3l-1,-1h2v-1ZM114,989h-3l-1,-1h2l1,1ZM176,983h1l1,1v1h1l-1,1h-2l-1,1h-1l-1,-1l1,-1v-2h1v-1ZM124,980h2v1h-1ZM122,980l1,1h-1l-1,-1ZM136,977h1h-2ZM156,974v1l1,1h-5v-1l1,-1v-1l-1,-1l1,-1v1h1l1,1ZM158,964v1h-2v2h1l-2,2v1h1l1,1h1l4,4v1l1,1v1h-1v2h-1l-1,1h-1v1h-2l1,1h1v1h-2l1,1h1v1h3l1,1h3l1,1h3l1,1h1l1,1v-1h1v-1h2l2,-1l1,1h1v-1h4v-1h3l1,-1h-1v-1h-4l-1,-1l1,-1h1l2,-2h4l1,-1h1l2,-2h-1v-1h1v-1h2v-1l1,-1h1v1h1v-1h8v-1h3v-1h1l1,1h2v-1h1v1l1,-1h4v1h6v-1h3v-1h2v1h3l1,-1h3v-1h2l1,-1h2l1,-1h4v1h1v1h1l1,1h1l1,-1l1,1h2v1l-2,2h-1v1h1h-1v1h-1v1h2l2,-2h1v-1h3l1,-1h1v-1h2l1,-1h5v-1h1v1h5v1h1l1,-1l1,1l1,-1h1l2,-1v1l1,1h3l1,-1h2v1h1v1h4l1,-1v1h9l1,-1l-1,1v1h-1h3l1,1h2l-1,1v1h1v1h2v1h1v2h2l1,1v1h-1l-1,1h-2l-1,1h-3l-1,1h-2l-1,1h-2l-2,2v1h-5l-1,1h-2v1h-1v3h2l-11,4h-155l-11,-4h-1h2l1,-1l1,1h14l-1,-1h-7v-1h-2v-1h-3l-1,-1h4v-1h-2l-1,-1h-7l-1,-1l-2,-1l1,1l1,-1l2,1v-1h1v-1l-1,-1h-1h2v-1h2v-1h4l1,-1h5l1,-1l1,1v-1h1l1,1h1v-1l1,1h6v-1h-2l-1,-1h-1l-1,-1h4l1,1h1l1,-1h3l-1,-1h1l1,1l1,-1l1,1h3v-1l1,1h4v-1h2l1,-1v-1h-1v-1h-1v-1h-1v-1h-1v-2l-1,-1v-1h1v-2h1v-1h1v-1h1l1,-1l1,1ZM144,951l2,1h1v1h-1v-1v1h-4l-2,-2l-2,-1l2,1h2v-2h1v1ZM151,947h1v1h-2v1l-1,-1l1,-1ZM269,946h-1v-2h1l1,1ZM345,939v1h1l1,-1v1l-3,3v-1l-1,1h-1l1,-1v-1l1,-1v-1ZM368,943v1l1,-1v1h-1l-3,3h-1l-1,1h-1l-2,2h-2v1h-1v-1h-1v-1l4,-2h1l1,-1h2l2,-2h1l2,-2ZM376,936l-1,2l1,-1l-1,1l1,1h1l-2,2h-1l-2,2l-2,1h-1l2,-1v-2l1,-1l2,-1v-1l1,-1v-3l1,-1v1l1,1ZM382,913l-1,1v-2l-1,-1v-1h1v1l1,1ZM397,906v1l-1,1h-1v-1l1,-1v1ZM398,906h-1v-1h1l1,-1v1ZM10,905v-1ZM386,904v-1ZM386,901v2h-1v-1ZM259,895v2l1,1h-1v1v-1v2h-1v3l-3,6v2h-1l-1,1l-1,-1h-1v-5h1v-2l1,-1h-1v-3h1v-1h1l2,-2h1v-1l1,-1v-1l1,-1v1ZM361,898v1h1v1h1l-1,1v2h1l-1,2v1l2,2v4h1l-1,2l1,1v3l-1,1v2l-3,3v1l-1,1l-1,2h-1l-1,2h-1l-4,4v1h-2l-1,1h-1l-1,1v-1h-1l1,-1h-1l-1,1h-1v-1h-1v-3h1l-1,-1v-1l1,-1l-1,1h-1l3,-3l-2,1h-1l-1,2v-4l-2,-2h-2l-1,1h-4l-2,2h-4l-1,1v-1l-1,1h-2v-1h-1l1,-1v-1h1v-3l1,-1v-7l1,1v-3l1,-1v-1l1,-1l-1,1l2,-2h1l1,-1h2l1,-1h2v-1h1l1,-1v-2l1,-1v2l1,-1v-1h1v-1l2,-2h2v1h2v-2h1l1,-1v-1h2v-1h-1h1l1,1h3l1,1h-1v1h-1v1l-1,1v1l2,2v1h1l1,1h1v-1l1,-1v-1l1,-1v-3l1,-1v-2h1v-1v3l1,1Z"/>
<path class="tl" d="M383,894h-1v-1v1ZM337,892l-2,-1h2ZM381,893h-1v-1h1ZM382,892v-1l-1,-1h1ZM341,892h-1l3,-3h2l-1,1h-1l-1,1ZM335,889h1v1h-3l1,-1ZM340,889v1h-3v-1h2ZM381,890v1l-2,-2h1v1ZM378,889v-1h-1v-1l1,1ZM325,887h2v-1l2,1v1h2l1,1l-1,1l-1,-1h-4l-1,-1h-1l-2,-1h-1l1,-2h1l1,1ZM353,886v1v-2ZM377,888h-1v-2l-1,-1h1v2h1ZM373,885l-1,1h-1l-1,1l-1,-1h-1l1,-1l1,1v-1h2v-2h1v1ZM345,882h-1v-1h1ZM349,881v2l-1,-1h-2v-1h2ZM374,884l-1,-1v-1l-1,-1h-1h2v2h1ZM353,878v3l2,1v-2l2,-1h1l1,1h1l1,1l4,2v1h1v1l2,1v1h-1v1l1,1v2h1v1h1h-1l1,1l-1,1v-1h-2l-1,-1v-3h-3l-1,1v1h-2l-2,-2v1h-2l1,-2h1l-1,-2v-1l-2,-1h-1l-1,-2l-1,1l-1,-1h1l-1,-1l1,-1h-1v-1h-1l-1,-1h2v-1ZM343,875l-1,1h-4v1l1,2v-1h2l-1,1h-1l1,2v1l1,2v1h-1v-2l-1,1v-1l-1,-1l1,-1h-1v4h-1v-3h-1v-1l1,-1v-4h1v-1h4l1,-1ZM347,875v1h-1v1l1,1h-1v-4h1ZM321,885h-1l-2,-2v-1l-2,-2l-1,-2v-2l-1,-1v-1l-4,-4v-1h2l3,3l1,2h1l2,2h1l-1,2h1v1l1,1h1v3ZM335,874l1,1h-1v3l-1,1v1l-1,3v-1l-1,1l-1,-1h-1v-1l-1,1l-1,-1h-1l-2,-4v-2l1,-1h2v-2h2v-1l1,-1v-1h1l1,-1v-2h1v1l2,2v1h-1l-1,2l1,1ZM344,864v3l-1,-1v2l-2,-2h1l-1,-1v1l-1,-1l-1,1v-1l1,-1h2v-1h1v-1l1,1ZM294,868h-1v-1l-1,-2l1,-2l1,1v1l1,1v1ZM137,863h-1l1,-1h1ZM341,861v1l-1,1l-1,-1l1,-1v-1v1l1,-1ZM335,863l-1,1v-1l1,-1v-1l1,-1v1l-1,1ZM338,859h2v1l-1,1v-1h-1ZM342,858l1,2h-1v1v-1h-1v-1h1h-1v-1ZM338,857l-1,1l-1,-1h1ZM336,849h1v6h1l2,1v2l-1,-1v-1v1l-1,-1h-2v-1h1h-1l-1,-1v-5ZM133,851v1h-1v-1ZM121,852h-1v-1h2v1ZM126,849h3v1h1v1h-2l-1,1v-1h-1v-2h-1ZM324,849l-1,1h-1v-2l1,-1h1v1ZM37,846v-2h1v2ZM38,844h-1v-1h1ZM119,845h2l1,1v1h1v1h2l-1,1h-3v-1h-1v-2h-2l-1,-1h-1h1h-2l-1,1h-1l2,-2h3ZM122,843h-1v-1l1,-1v1ZM334,843v1l-2,-2v-2l1,-1l1,1ZM122,839l-1,1v-1ZM123,839v1v-1h-1ZM340,825h1v1h-1v1h-1v-2ZM240,828l-2,2v-1h-1h2ZM229,828v1h-1ZM220,825v2h-1l-1,-1h-1v-1h2ZM214,821v3h-1v-3ZM344,820v1l1,1v1l-1,1h-1l-1,2l-1,-1v-1l-2,1l-1,1h-1l2,1v3l-1,-1v-1h-1l-1,-1l1,-1v-3h3v-3l1,1v-2h1l-2,-4v-1l3,3v1ZM214,820v1l-1,-1v-1l1,-1ZM340,810l1,-1l1,2h-1v2l-2,-1l1,2h-1l-1,-2l-1,-1h1l-1,-2l-1,-1l3,1ZM144,812l1,1h1h-2ZM147,809h-1l-1,-1h1ZM92,806h-1l-1,-1v-2h-1v-1h1l1,1v1l1,1ZM153,807l-1,1h1v1h2l-1,1h1v1l-1,2l-1,-1l1,-1l-2,1v-1h-3l1,-1h-1l4,-4h1Z"/>
<path class="tl" d="M90,797h1l-2,2v1v-3ZM332,800l3,3l-2,-1l1,2l2,2v1l-2,-2l-1,-2l-6,-6v-1h-1h1l3,3ZM198,806l-1,1h-2l1,-2v-1l2,-2h1v3ZM216,801l-1,2l-1,-1v-1h1ZM79,791h-1v-1h2ZM202,797l-1,2h2v1l-1,1h1l2,4h1v1l-1,1h1l-1,1h-3l-1,1h-2l2,-2h-1v-1h1l-1,-1v-1h2l-1,-1h-1v-2l-1,-1l1,-2v-1l1,1ZM75,786h-1v-1h1ZM141,790l-1,1v-1ZM139,790h-2l1,-1h1ZM78,780v1h1h-2v-1ZM139,786h1v1h1l-1,1h1l-1,1l-1,-1h-1l-2,1l1,-1h-1h1l1,-1l1,-2ZM193,787v1l1,1l-1,1h-3l-1,1l-1,-1h-2l1,-1h-1h1v-1h-2l1,-1h1l1,1l2,-1h2ZM147,784h-1l1,-1h2l-1,1ZM81,776v1l1,-1h2l-1,2h-3l-1,1h-1l-1,-1h1v-1h-1h1h-2l-1,1l8,-5v1l-1,2ZM135,780l-1,1v-1h-1l1,-1h1ZM322,771h-1ZM88,771h-1h2ZM139,780l-1,2l2,-1v1h-1v1l1,-1l2,-1l1,-1h2v2h-1v1l-1,1l-2,1h-1v-1l-1,1l-2,1v1h-3l-2,2h-1l-1,1l-2,1l-1,1l-1,2h1l-1,1v1h1l3,3l2,1h1l-2,2v2l1,1h1l2,-4h-1l4,-2v-1l1,-1v-1l-1,-1l2,-1l2,-4l1,1h1l1,-1v1l1,1h1v2l-1,1l1,1h2l1,-2h1v3l1,1l-1,1l1,1v1h1l1,1v1l1,1l-2,2h-2l-2,2h-1l-2,-1h-2l-2,1l-1,1l-2,1l-1,1l2,-1l3,-1h2l-1,1l-1,2v1l1,1l2,-1l1,-1v1h1l-4,2h-1l-2,1v-1l2,-1h-3v1h-1l-1,1h-1l-2,2l1,1v-1v1h-3l-1,1l2,-1v1h-2l-2,2v1l-1,1l-1,-1l1,-1l-1,1v4l-1,1h-1l-1,1h-1l-3,3h-1v8l-1,1h-1v-3l-1,-1l1,-1l-1,-2l-1,1l-1,-1h-4v1h-1l-1,-1l-1,1l-1,-1l-2,2h-2v1h-1v3l-1,1v1l-1,2v4l1,1v1h1v1l1,-1h3v-1l1,-1v-1l1,-1h3v1l-1,1v2l-1,1v-1v2l-1,1v1h5v1h1v1l-1,1v3l-1,1h1v2h1v1h2l1,-1h1v1h1l1,1l1,-1v-2l1,-1h2l2,-2v2h-1h1v1l-1,1v1h1v-3h1v-1h1v1h1v1h3l1,1l1,-1h1l1,1h1v1l1,1h1v1h1v1l1,1l2,1v-1h1l1,1h1l1,1v1h1v1l1,2v1l-1,1l1,1h2v1v-1l4,2v1h1l3,1h1l2,1l2,2h2v5l-1,1l-1,2l-2,2v9l-1,2v2h-1v1h-2l-1,1h-1l-3,3v5l-1,2l-2,2v2l-2,2v-1l-1,1l-1,-1h-1v-1v1l1,1v1l1,1v2l-2,1h-3l1,1v2l-1,1l-1,-1h-1l1,2h2l-2,2l1,1v1h-1l-1,1v1l2,1h1v1l-1,1v2h-1v1l2,2h-1l-1,1v1h-1l-2,-1l-3,-3l-1,-3v-1l1,-1h-2l1,-2l-1,-2h1v-2l-1,-1v2l-1,-2v-4l-1,-1l-1,-2h1v-6l-1,-2v-8l-1,-2v-6l-1,-2l-1,-1l-2,-1l-3,-2l-1,-1v-1l-1,-2l-1,-3l-2,-3l-2,-2v-1l-1,-2l2,-2v-1h-1v-3l1,-1v-1h1v-2h1l1,-1v-5l-1,-1v-2h-1v1h-1v1h-1l-1,-1h-2v-2h-1v-1v1h-1v-3l-2,-2h1h-2v-1h-2l-1,-1l-1,-2h-1l-1,-1v1h-2l-1,-1h-2l-2,-2h-1l-1,-1v-1h-1v-3h1l-1,-1v-3l-1,-1v-1l-1,-1v-3h-1v-5l-1,-1l-1,1v4h1l-1,1h1v5h1v2h-1v-1l-1,-1v-3l-1,-1v1v-1h-1v-1h1v-9h-1v-1h-1v-9l2,-2v-1l1,-2l2,-2l1,-2l1,-1v-1h1v1l2,-2h-1v-2l-1,-1v-1l1,-1l-1,-1l1,-1v-1l1,-1l-1,-1l1,-1v-1l1,-1l-1,-1h-1v-2h-1v-1h-1l-1,-1h-1l-1,1h-4l1,-1l2,-1h-1l-1,1l-2,1h-1l-1,1l-2,1h-2l-2,1h-1l-1,1h-3l-1,1h-2l1,-1h2l2,-1h2l2,-1h1l2,-1l1,-1h-3l1,-1l-1,1h-1l2,-2h-1v-1l2,-2l2,-1h3l1,-1h1l1,-1h-3v-2h4l1,1l1,-1v-3h4l1,-1h2l2,-1l1,1l1,-1h1l-1,1h1l1,1h2l1,1h2v1l1,1l1,-1h6l1,-1v2l2,-1l-1,1h2l1,1h2v1l-2,1h4v1l2,-2h2v1h1l1,1h2v-1h1l1,1l-1,1l1,-1h1l1,-1v-2l1,-1l2,-1l1,1l-2,2Z"/>
<path class="tl" d="M128,774l-1,1h4l-1,1h1l2,-2v1l-1,2v1l1,1h-2v1h-8v-1h-1v-1h4l-1,-1h-3l2,-1h-1l1,-1h1ZM135,774l-2,1v-1h1ZM152,776v1l-1,-1l-1,1v-2h2ZM146,776v1l1,-1l2,-1v2h3l1,1l-1,1l2,-1v1l1,1v2h-1l2,2v1h1v1l-2,1h-1l-1,-2l-1,1v1l1,1v2l-1,1l-2,-2v1l1,1h-2l-2,-2v-1l-1,-1v1h-3v-1l1,-1h3l1,-1l2,-1v-1l-1,-1h-1l1,-1l-1,-1h-5l-1,-1h-1l1,-1h-1l1,-1l2,-1l1,-1h2ZM138,774h2l-1,1h-1l1,1l-2,1h-2v-2l1,1v-1ZM298,772h-2v-1ZM141,776l-2,1v-1l2,-2h2l1,1l-2,1ZM122,776h-2l-1,-1h1l2,-1l2,-2h2v1h2v1h-1l-3,1h-2ZM299,769v1h-3v-1h1ZM143,773v1l-1,-1h-1l1,-1h1l1,1ZM295,769l1,1h-2l-1,1l-2,-1l-1,-1h2ZM143,771h-1v1l-1,1h-2l1,-1h-1l1,-1h2ZM136,771h1v1h-4l-2,1h-1l1,-1h-1l-1,-1l2,-1h1l2,1l1,1v-2h2ZM246,780h-3l-2,-1v-1l1,-2h-1l1,-1l-1,-1h1l4,-2h2l-1,1l-2,1l-1,1v2l-1,1l1,1ZM145,770l1,1h1l-1,1h1l1,1h4v1h-7l-1,-1l1,-1v-1h-2l1,-1ZM134,769l-2,1h-4l2,-1h3ZM271,770l1,1v-1h2l2,1h1v1l-1,1h1l2,1v-1l1,1l1,-1h2l1,1h3l-2,-1h5l1,1v1h2l2,1l-1,-1h1l1,-1l2,1v-1h1l-2,-1h8l3,1l1,-1h2l2,2h2v-1h3l3,1v-1h-2v-1h7l8,5h-1l1,1l2,1h2v1h-1v1h-1l1,1v2l-2,-1v2l-1,-1v1h-1l2,2v1h1l3,2h-1l1,1h1v1l1,2h-1l1,2l1,1l-4,-2l-4,-3l-1,-2l-1,-1v-3l-1,-2v-1l-2,-2l-1,1l2,2l-3,-1l-1,1l1,2l1,1h-1l-1,1l-1,-1h-1v1h-4v7h1l2,1h1l-1,-1h1l3,1l1,2l1,1l1,2l2,2v9h-1l-1,-1v2h-1v1l1,1v1h-1v1l1,1h1l2,2v1l1,1v1l-1,1h-1l-1,-2l-1,-1h1l-2,-1v-1v1v-1h-1v-1l-1,-1h-2v1h-1l-1,-1l1,-1l-1,-1l-1,1v2h-1v1l2,2h1v-1h2l1,1l-2,1v2l2,2l1,2l2,1v2h1v6l-2,4l-1,1h-1v1l-1,-1v1l-2,1h-1v2l-1,-1v-1h-2l-1,2v2l1,1l1,2l2,2l1,3v4l-2,1v1l-2,1v-2l-1,-1h-1v-1l-2,-2h-1v-1h-1v6h1v3l1,1h1v1h1v1l1,1v3h1v2h-1l-2,-2v-1l-1,-1v-1l-1,-1v-2l-1,-1v-1h-1v-6l-1,-1v-1l-1,-2v-2l-1,-1l-2,2h-1v-3l-1,-2v-1h-1l-2,-2v-1l-1,-1h-1v2l-1,-1v1h-2v2l-2,1l-1,2v1l-2,2h-1v8l-1,1l1,1h-1l-1,1l-1,-1l-1,-2v-1l-1,-1v-1l-1,-2v-1l-3,-6v-3l-2,1h-1l-1,-2v-1l-2,-1l-1,-1v-1l-1,-1l-2,1h-5l-1,-1h-2v-2h-1l-1,1h-2l-3,-3l-1,-2l-1,1v-1l-1,1v2l1,1h1l1,1v2l1,1l-1,-1l1,-1v2h1v1l1,-1h2v-1l1,-1v-1v2l2,2h1l2,2l-1,1v1h-1v3h-1v1h-1v1h-2v1h-1l-2,2h-1l-2,2v-1l-1,1h-2v1h-2v-2l-1,-1v-3h-1v-1l-1,-1v-1l-1,-1h-1v-1l-1,-1v-3h-2v-2l-1,-1v-1l-2,-2v-1v1l-1,1l-1,-1l-1,-2l1,2l1,1l1,2v1l2,2h-1l2,2v1l1,1h-1l1,2v1l1,1l1,2v1l1,1l2,1v1h1v1h1v1l-1,1h1l1,1h3l1,-1h3v-1h1v2l-1,1v3l-1,1l-3,6l-1,1l-2,1l-1,1l-1,2v1h-1v1h-1v2l-1,1l-1,2l1,1v4l1,1v7l-1,1h-1l-3,3h-1v1l-1,1v2h1l-1,1h1v1l-1,1h1l-1,1h-1l-2,2v3l-3,3v1l-2,1v1l-1,1h-2v1l-1,-1v1l-1,-1l-1,1h-2l-1,1l-1,-1h-1v-5l-1,-1v-2l-1,-1v-1l-1,-1v-5l-1,-1v-1l-1,-2v-1l-1,-1v-3l1,-1v-3h1v-1l1,-1v-1h-1v-5l-1,-1v-2l-3,-3l-1,-2l1,-1v-5l-1,-1v-1l-1,1h-2l-1,-1v-1l-1,-1h-2l-1,1h-2l-1,1h-6l-1,1l-4,-4h-1l-1,-1v-1l-1,-1v-1h-1v-1l-1,-1v-1h-1v-3h-1l1,-1v-1h1l-1,-1l1,-1v-4l-1,-1v-1h1v-2l1,-1v-1h1v-2h1l1,-2h1l2,-2v-3l3,-3l1,-2v-1h1l1,1h2l1,-1h2l1,-1h4l1,-1h1v1h1l1,-1h1v1l1,-1v1h-1v1h1v2h-1v1h1v1h3l2,2h1l2,2l1,-1v-2l1,-1h2l1,1h1l1,1h2l1,1h1v-1h2l1,1v-1h1l1,1v-2l1,-1v-5h-2l-1,1l-1,-1h-2v1l-1,-1h-2v-1l-1,-1v-2l1,-1h1v-1h2l1,-1h1l2,-1l2,1l1,1h2l1,-1v-2h-1l-2,-2h-1l-1,-1l1,-1l-1,-1h2l-1,-1v1h-2l-1,1v1h1l-1,1h-1v-1h-1l1,-1h-2v-1h-1v1l-1,1v1h-1v4l1,1h-2v1h-1v-1h-2l1,1h-2v1l1,1h-1h1l1,1v1l-1,-1v1h-1l1,1h-2v-2l-1,-1v-1h-1v-3h-1v-1h-1l-1,-1h-1l-1,-1v-1l-1,-1v1v-1h-2v1l2,2v1l1,1h1l1,1h1l1,1v1l-1,-1h-1v1h1v1h-1v1h-1v-1h1l-1,-1v-1h-1l-1,-1h-1l-2,-2l-1,-2h-2v1h-4l-1,1v2h-2v1l-1,2h1l-1,1v1h-1l-1,1h-2l-1,1l-2,-2v1h-2l1,-1v-1h-1v-2l1,-1v-3l-1,-1l2,-1l1,1h5v-4l-1,-1v-1h-2v-1h3v-2l1,1l2,-1v-1h1l1,-1l1,-2l1,-1h2v-5h2l-1,1h1v1l-1,1v1h1v1l1,-1h2v1h1l2,-2l1,1h1v-1h1v-3l1,-1l1,1v-1l-1,-1v-1h4l1,-1h-4l-1,1l-2,-2v-4l2,-1v-1l-1,-1l-2,2l-1,2l-1,1v3h1v2h-1v2l-1,2h-1v1h-1v-2l-1,-1l-1,-2l-1,-1l-1,2h-1l-2,-1v-5l2,-1l3,-3l2,-3l3,-3h2l1,-2h3l2,1l-1,1h2l1,1h3l3,1l1,1v1l-1,1h-1l-3,-1h-1l2,1v2l1,1h1v-1h-1l1,-1l2,1v-1l1,-2h1l1,1v-1l-1,-1v-1l-1,-1l2,1h1l-1,1l1,1h1v-1l1,-1l2,-1h1v1l1,-1h1l1,-1l1,1l1,-1h-2l1,-1h2l1,1l4,1v-1h-2v-1h-1l-1,-1v-3h2l1,1v1h1l1,1l1,2h1v3l1,1v-1h1l-1,-1l1,-1h-1l-2,-2v-1l-2,-1l1,-1l-1,-1h1l1,2l-1,-1l1,-1h2l1,1l-1,-1l-1,-2h4l-2,-1v-1h1l1,-1h3l1,-1h1v-2l2,1h-1ZM253,820l1,1v2h-1v1l1,1h1l1,1h3l-1,-1v-2h-1v-2h1v-1l-1,-1h-1l1,1l-1,-1v-1h-2v-2h-1h1v-2l1,1v-3h-2l-1,1h-1v1h-1l-1,2l2,1v1l1,1Z"/>
<path class="tl" d="M146,770h-1v-1h1l1,1ZM137,769h-2l1,-1h1l1,1ZM220,771l-1,1h-1v-1h-1l2,-1v1ZM139,768h-2l1,-1v1ZM146,769h-1v-1h1l1,1ZM144,769h-1l-1,-1h-1h1v-1h1l1,1ZM268,768l-3,1v-2ZM215,769l3,1h-2v3h-1l-2,-1h1l-1,-1l-2,-1v-1l1,-1l1,1h1v-1h1ZM220,768h1l-1,1h-4l-1,-1h3ZM234,767l-1,1h-1v-1h-1h4ZM264,768h-4l-2,-1l-1,-1h1l1,-1l4,2ZM153,767v1h-1l-2,1h-2v-1h1h-1v-1l1,-1h2v-1h1v1h1ZM167,764h3v1h-3l-1,1h-1l-1,1l-2,1h-3v1h-1v1h-2l-2,1h1l-2,1h-4l-1,-1h2v-1h2v-1h-1h1l1,-1h1l-1,-1h4l-1,-1h-3v-1l1,-1h6v-1h3v1l2,-1l1,1ZM190,764l3,1h-6v1h5l-1,1l2,-1h4v1l-2,1h-1l-2,2v2l1,1h-2l1,1l-1,1v1h-1l1,1h-3l1,1v1l-1,-1l-1,1h1l1,1v1h-2l-1,-1v1l-1,1h3l-4,2h-3l-1,1l-4,2h-1l-2,1h-1v1l-2,2v1l-1,1l-1,2h-1l-1,-1h-1l-1,-1v-2l-1,-1v-1l1,-1l-1,-2l1,-1l1,-2h1l1,-1v-1l-1,1h-1v-1l1,-1h1l-1,-1h-1l1,-1v-4l-1,-1h-5v-1l-1,-1h1l-1,-1l1,-1h2l3,-1h1l-2,-1h1l3,-1h1v-1h9l1,1l-1,-1h1l2,-1h3l2,-1Z"/>
<path class="th" d="M235,916v2h-2v-2h1h-1h1l1,-1Z"/>
<path class="tg" d="M66,970h1l1,-1h4v-1h5v-1h5v-1h6v-1h6l1,-1h7v-1h8v-1h9l1,-1h11v-1h14v-1h20v-1h79v1h20v1h14v1h11l1,1h9v1h8v1h7l1,1h6v1h6v1h5v1h5v1h4l1,1h1M21,927h6v-1h7v-1h8v-1h10v-1h10v-1h12v-1h14v-1h18v-1h23v-1h38v-1h75v1h38v1h23v1h18v1h14v1h12v1h10v1h10v1h8v1h7v1h6M5,877h399M21,826h4v1h7v1h8v1h9v1h10v1h11v1h14v1h16v1h21v1h32v1h103v-1h32v-1h21v-1h16v-1h14v-1h11v-1h10v-1h9v-1h8v-1h7v-1h4M66,783v1h5v1h4v1h5l1,1h5v1h6l1,1h6l1,1h7v1h10v1h10v1h13l1,1h17v1h36v1h21v-1h36v-1h17l1,-1h13v-1h10v-1h10v-1h7l1,-1h6l1,-1h6v-1h5l1,-1h5v-1h4v-1h5v-1M140,755h-1v1h-3v1h-2v1h-2v1h-2v1h-2v1h-2l-1,1h-1l-1,1h-1l-1,1h-1v1h-2v1h-2v1h-2v1h-1l-1,1h-1v1h-2v1h-1l-1,1h-1v1h-2v1h-1v1h-2v1h-1v1h-2v1h-1v1h-1l-1,1h-1v1h-1v1h-2v1h-1v1h-1v1h-1v1h-2v1h-1v1h-1v1h-1v1h-1v1h-1v1h-1l-1,1h-1v1h-1v1h-1v1h-1v1h-1v1h-1v1h-1v1h-1v1h-1v1l-1,1v1h-1v1h-1v1h-1v1h-1v1h-1v1l-1,1v1h-1v1h-1v1h-1v2h-1v1h-1v2h-1v1h-1v2h-1v1h-1v2h-1v2h-1v1h-1v2h-1v2h-1v2h-1v2h-1v2l-1,1v2h-1v2l-1,1v2h-1v3h-1v4h-1v4h-1v5h-1v9h-1v13l1,1v8h1v5h1v4h1v4h1v3h1v3h1v2h1v3h1v2h1v2h1v2h1v2h1v2h1v2h1v1l1,1v1h1v2h1v1h1v2h1v1h1v1h1v2h1v1h1v1l1,1v1h1v1h1v1h1v1l2,2v1h1v1h1v1h1v1h1v1h1v1h1v1h1v1h1v1h1v1h1v1h1v1h1v1h1v1h2v1h1v1h1v1h1v1h1v1h1l1,1h1v1h1v1h1v1h2v1h1v1h1l1,1h1v1h1v1h2v1h1v1h2v1h1l1,1h1v1h2v1h1v1h2v1h2v1h1l1,1h1v1h2v1h2v1h2v1h2v1h2v1h2v1h2v1h2l1,1h2v1h2v1h2M153,755h-1v1h-2v1h-2v1h-1v1h-2v1h-2v1h-1v1h-2v1h-1v1h-2v1h-1v1h-2v1h-1v1h-1v1h-2v1h-1v1h-1l-1,1h-1v1h-1v1h-1v1h-1v1h-1l-1,1h-1v1h-1v1h-1v1h-1v1h-1v1h-1v1h-1v1h-1v1h-1v1h-1v1h-1v1h-1v1h-1v1h-1v1h-1v1h-1v1h-1v1l-2,2v1h-1v1h-1v1h-1v1l-1,1v1h-1v1h-1v2h-1v1h-1v1l-1,1v1h-1v2h-1v1h-1v2h-1v1h-1v2h-1v2h-1v2h-1v2h-1v2h-1v2h-1v2h-1v3h-1v2h-1v3h-1v3h-1v3h-1v3h-1v4l-1,1v4h-1v6l-1,1v30h1v6h1v5h1v4h1v3h1v3l1,1v2l1,1v2h1v3h1v2h1v2h1v2h1v2l1,1v1h1v2h1v2h1v2h1v2h1v1h1v2h1v1h1v2h1v1h1v2h1v1h1v1h1v2h1v1h1v1h1v1l1,1v1h1v1h1v1h1v1h1v1h1v1h1v1l3,3v1h1l3,3h1v1h1v1h1v1h1v1h1v1h1v1h1v1h1l1,1h1v1h1v1h1v1h1l1,1h1v1h1v1h1l1,1h1v1h1v1h2v1h1v1h2v1h1v1h2v1h2v1h1v1h2v1h1l1,1h1v1h2M166,755h-1v1h-1v1h-1l-1,1h-1v1h-1v1h-1v1h-1v1h-1v1h-1l-2,2h-1v1h-1v1h-1v1h-1v1h-1v1h-1v1h-1v1h-1v1h-1v1l-2,2v1h-1v1h-1v1h-1v1h-1v1l-1,1v1h-1v1h-1v1h-1v2h-1v1h-1v1l-1,1v1h-1v1h-1v2h-1v1h-1v2h-1v2h-1v1h-1v2h-1v2h-1v2h-1v1l-1,1v1l-1,1v1l-1,1v2h-1v2h-1v2h-1v3h-1v2h-1v3h-1v3h-1v3h-1v3h-1v4h-1v4h-1v5h-1v6h-1v8h-1v30h1v7l1,1v5h1v5h1v4h1v4h1v3h1v3h1v3h1v3h1v3h1v2h1v2h1v2l1,1v2h1v2h1v2h1v2h1v1h1v2h1v2h1v2h1v1h1v2h1v1h1v2h1v1l1,1v1h1v1h1v2h1v1h1v1h1v1l1,1v1h1v1h1v1h1v1l1,1v1h1v1h1v1h1v1h1v1h1v1h1v1h1v1h1v1h1v1h1v1h1v1h1v1h1v1h1v1h1l2,2h1v1h1v1h1v1h1v1h2v1h1"/>
<path class="tg" d="M179,755h-1v1h-1v2h-1v1h-1v1h-1v1h-1v2h-1v1h-1v1l-1,1v1h-1v1l-1,1v1h-1v1l-1,1v1h-1v2h-1v1l-1,1v1h-1v2h-1v2h-1v2h-1v2h-1v2h-1v2h-1v2h-1v2h-1v2l-1,1v2h-1v2l-1,1v2h-1v3h-1v3h-1v3h-1v3h-1v4h-1v4h-1v4h-1v4h-1v5l-1,1v5h-1v8h-1v11h-1v29l1,1v10l1,1v7h1v6h1v5h1v4l1,1v4h1v3l1,1v3h1v3h1v3h1v3h1v3h1v3h1v2h1v3h1v2h1v2h1v2l1,1v2h1v2h1v1l1,1v1l1,1v1h1v2h1v2h1v1l1,1v1h1v2h1v1h1v2h1v1h1v2h1v1h1v1l1,1v1h1v1h1v1h1v2h1v1h1v1h1M192,755h-1v3h-1v2h-1v3h-1v3h-1v3h-1v3h-1v3h-1v3l-1,1v3h-1v4h-1v4h-1v4l-1,1v4h-1v5h-1v6h-1v6l-1,1v7h-1v8h-1v11l-1,1v18h-1v29l1,1v18h1v11h1v8l1,1v7h1v6h1v6h1v5h1v5h1v4h1v4h1v4h1v4h1v3h1v3l1,1v3h1v2l1,1v2h1v3h1v3h1v2h1M205,755v243M217,755h1v3h1v2h1v3h1v3h1v3h1v3h1v3h1v3l1,1v3h1v4h1v4h1v4l1,1v4h1v5h1v6h1v6l1,1v7h1v8h1v11l1,1v18h1v29l-1,1v18h-1v11h-1v8l-1,1v7h-1v6h-1v6h-1v5h-1v5h-1v4h-1v4h-1v4h-1v4h-1v3h-1v3l-1,1v3h-1v2l-1,1v2h-1v3h-1v3h-1v2h-1M230,755h1v1h1v2h1v1h1v1h1v1h1v2h1v1h1v1l1,1v1h1v1l1,1v1h1v1l1,1v1h1v2h1v1l1,1v1h1v2h1v2h1v2h1v2h1v2h1v2h1v2h1v2h1v2l1,1v2h1v2l1,1v2h1v3h1v3h1v3h1v3h1v4h1v4h1v4h1v4h1v5l1,1v5h1v8h1v11h1v29l-1,1v10l-1,1v7h-1v6h-1v5h-1v4l-1,1v4h-1v3l-1,1v3h-1v3h-1v3h-1v3h-1v3h-1v3h-1v2h-1v3h-1v2h-1v2h-1v2l-1,1v2h-1v2h-1v1l-1,1v1l-1,1v1h-1v2h-1v2h-1v1l-1,1v1h-1v2h-1v1h-1v2h-1v1h-1v2h-1v1h-1v1l-1,1v1h-1v1h-1v1h-1v2h-1v1h-1v1h-1M243,755h1v1h1v1h1l1,1h1v1h1v1h1v1h1v1h1v1h1l2,2h1v1h1v1h1v1h1v1h1v1h1v1h1v1h1v1h1v1l2,2v1h1v1h1v1h1v1h1v1l1,1v1h1v1h1v1h1v2h1v1h1v1l1,1v1h1v1h1v2h1v1h1v2h1v2h1v1h1v2h1v2h1v2h1v1l1,1v1l1,1v1l1,1v2h1v2h1v2h1v3h1v2h1v3h1v3h1v3h1v3h1v4h1v4h1v5h1v6h1v8h1v30h-1v7l-1,1v5h-1v5h-1v4h-1v4h-1v3h-1v3h-1v3h-1v3h-1v3h-1v2h-1v2h-1v2l-1,1v2h-1v2h-1v2h-1v2h-1v1h-1v2h-1v2h-1v2h-1v1h-1v2h-1v1h-1v2h-1v1l-1,1v1h-1v1h-1v2h-1v1h-1v1h-1v1l-1,1v1h-1v1h-1v1h-1v1l-1,1v1h-1v1h-1v1h-1v1h-1v1h-1v1h-1v1h-1v1h-1v1h-1v1h-1v1h-1v1h-1v1h-1v1h-1v1h-1l-2,2h-1v1h-1v1h-1v1h-1v1h-2v1h-1M256,755h1v1h2v1h2v1h1v1h2v1h2v1h1v1h2v1h1v1h2v1h1v1h2v1h1v1h1v1h2v1h1v1h1l1,1h1v1h1v1h1v1h1v1h1l1,1h1v1h1v1h1v1h1v1h1v1h1v1h1v1h1v1h1v1h1v1h1v1h1v1h1v1h1v1h1v1h1v1h1v1l2,2v1h1v1h1v1h1v1l1,1v1h1v1h1v2h1v1h1v1l1,1v1h1v2h1v1h1v2h1v1h1v2h1v2h1v2h1v2h1v2h1v2h1v2h1v3h1v2h1v3h1v3h1v3h1v3h1v4l1,1v4h1v6l1,1v14l1,1h-1v15h-1v6h-1v5h-1v4h-1v3h-1v3l-1,1v2l-1,1v2h-1v3h-1v2h-1v2h-1v2h-1v2l-1,1v1h-1v2h-1v2h-1v2h-1v2h-1v1h-1v2h-1v1h-1v2h-1v1h-1v2h-1v1h-1v1h-1v2h-1v1h-1v1h-1v1l-1,1v1h-1v1h-1v1h-1v1h-1v1h-1v1h-1v1l-3,3v1h-1l-3,3h-1v1h-1v1h-1v1h-1v1h-1v1h-1v1h-1v1h-1l-1,1h-1v1h-1v1h-1v1h-1l-1,1h-1v1h-1v1h-1l-1,1h-1v1h-1v1h-2v1h-1v1h-2v1h-1v1h-2v1h-2v1h-1v1h-2v1h-1l-1,1h-1v1h-2"/>
<path class="tg" d="M269,755h1v1h3v1h2v1h2v1h2v1h2v1h2l1,1h1l1,1h1l1,1h1v1h2v1h2v1h2v1h1l1,1h1v1h2v1h1l1,1h1v1h2v1h1v1h2v1h1v1h2v1h1v1h1l1,1h1v1h1v1h2v1h1v1h1v1h1v1h2v1h1v1h1v1h1v1h1v1h1v1h1l1,1h1v1h1v1h1v1h1v1h1v1h1v1h1v1h1v1h1v1l1,1v1h1v1h1v1h1v1h1v1h1v1l1,1v1h1v1h1v1h1v2h1v1h1v2h1v1h1v2h1v1h1v2h1v2h1v1h1v2h1v2h1v2h1v2h1v2l1,1v2h1v2l1,1v2h1v3h1v4h1v4h1v5h1v9h1v13l-1,1v8h-1v5h-1v4h-1v4h-1v3h-1v3h-1v2h-1v3h-1v2h-1v2h-1v2h-1v2h-1v2h-1v2h-1v1l-1,1v1h-1v2h-1v1h-1v2h-1v1h-1v1h-1v2h-1v1h-1v1l-1,1v1h-1v1h-1v1h-1v1l-2,2v1h-1v1h-1v1h-1v1h-1v1h-1v1h-1v1h-1v1h-1v1h-1v1h-1v1h-1v1h-1v1h-1v1h-2v1h-1v1h-1v1h-1v1h-1v1h-1l-1,1h-1v1h-1v1h-1v1h-2v1h-1v1h-1l-1,1h-1v1h-1v1h-2v1h-1v1h-2v1h-1l-1,1h-1v1h-2v1h-1v1h-2v1h-2v1h-1l-1,1h-1v1h-2v1h-2v1h-2v1h-2v1h-2v1h-2v1h-2v1h-2l-1,1h-2v1h-2v1h-2"/>
<rect x="222" y="904" width="23" height="24" fill-opacity="0" stroke="#ffffff" stroke-opacity="0.5" stroke-width="5.0"/>
<rect x="224" y="906" width="23" height="24" fill-opacity="0" stroke="#113311" stroke-opacity="0.8" stroke-width="5.0"/>
<rect x="223" y="905" width="23" height="24" fill-opacity="0" stroke="#45a249" stroke-opacity="0.9" stroke-width="5.0"/>
<rect x="691" y="691" width="309" height="309" fill="#ffffff" fill-opacity="1.0"/>
<rect x="694" y="694" width="302" height="302" fill="#000000" fill-opacity="1.0"/>
<rect x="700" y="700" width="300" height="300" fill="#70add3" fill-opacity="1.0"/>
<path class="zl" d="M700,890v-190h260l2,7v3l2,5v2l1,5l-1,4v2l1,1l1,-1v-4l1,-1v1l1,2v2l-1,5v2l1,3l-2,4l-2,9v2h1l1,-1l1,1l-1,4l-1,2l-3,4l-2,2l-3,2l-18,6l-8,3l-9,6l-1,3l-1,2l-1,1v2l3,3l1,-2l1,-1v3l-1,10l-1,4l-3,6v3l-3,11l-2,5l-2,2l-4,3l-2,2h-2l-7,8l-2,3l-3,6l-2,2l-3,7l-3,5l-3,4l-5,6l-3,3l-4,3l-6,6l-4,5l-6,6l-3,2l-5,5l-2,1l-5,4l-11,7h-12l-2,2v3l-1,1l-2,-1l-4,-1l-3,1l-1,1l-1,2h-3l-13,-2h-2l-3,1h-14l-2,1l-6,6h-7l-1,1l-3,-1h-1l-1,1l-2,1h-3l-2,1l-5,5h-6l-3,-2h-2l1,-1v-1l-1,-1h-2l-1,-1h-4v-4l-1,-1h-1l-1,1h-2v4h-1l-1,-2v-5l1,-1v-2l-2,-4l-1,-1l-2,-1l-1,-3l-2,-1v-2h-1v-5l1,1l2,-1l2,-4v-4l-3,-9l-1,-2Z"/>
<path class="zp" d="M700,890v-190h260M700,916v-5"/>
<path class="zh" d="M862,838h1v1h1l1,2h2v2h1v2h1l-1,1v1h-2v3l-1,1h-1v2h-1v1h1v1l-1,1h-1l-2,2h-1l-1,1h-6v1l-1,1h-1v2l-1,1v2l-1,1v1h-3v-1h-3v-1l-1,-1h-1v-2h-1v-1h-2v-3h-1v-2h-1v-1l-1,-1l-1,-3h-1v-2h1v-1h2l1,-1h1v-1l1,-1v-2h1v-1h1l1,-1v-2h1h-1h1v-2h3v-1h2l1,-1v-1h1v-1h3v-1h1l2,-1h2v2h1l1,1h1v1l1,1Z"/>
<path class="zb" d="M720,770v-4l-1,-5v-10l-1,-5v-15l-1,-5v-4h8l6,-1h2v-11l-1,-7v-3M869,721l-1,-1l-2,-1h-2v-1h-1v-4l-4,-2l-4,-1l-6,-1h-2l-1,-1l-1,-3l-4,-4v-2M700,844l4,-1h3l3,1h2l2,-2v-2l2,-1l1,-1v-1l2,-2l3,-1h2v-2l-1,-8v-8l-1,-7v-8l-1,-8v-8l-1,-7v-8l1,1l5,3l1,2l1,1l2,5l2,4l2,3v6l-2,4v5l1,1h15l1,-1l1,-2h1l1,-1h1l2,-1l1,-4l4,-3l3,-3l2,-7v-1l1,-3l2,-2h1l1,-1h4l2,1l2,2l3,1l2,2h4l2,1l1,1h2l4,1l1,-1l2,-1h7l2,-1l1,-1l1,-3v-3l3,-6v-3l4,-2l4,-1h1l1,-2l5,-5l2,-8v-1l5,-5h2l3,-3h2l1,-1v-1l2,-1v-1l2,-2l3,-4l3,-1l2,-1h3l2,-1l2,-2l1,-2l2,-1h4l4,-1l4,1l5,2l4,1l4,-1h6l2,1l1,1M911,803l-1,-1h-1l-1,3v6h-3l-5,-1l-3,-1l-3,-2l-3,-6h-1v-6l3,-4l2,-4l4,-4h1l4,2l3,3l1,-1M923,803h-12v-6l-1,-1v-8l-1,-1h-1v-3l1,-2v-7l1,-3v-12l-1,-1v-2l-2,-6l-3,-6l-1,-1v-4l-3,-11v-3l-1,-1l3,-2l13,-13l2,-3h1l-1,-3l2,-3v-1"/>
</svg>
