<?xml version="1.0" encoding="UTF-8" standalone="no"?>
<svg xmlns:svg="http://www.w3.org/2000/svg" xmlns="http://www.w3.org/2000/svg" xmlns:xlink="http://www.w3.org/1999/xlink" height="1000" width="1000">
<!-- made with pythonshp (GPL): github.com/sanjayrao77/pythonshp , underlying data may come from naturalearthdata.com -->
<!-- 
COPYRIGHT: THIS SVG FILE IS RELEASED INTO THE PUBLIC DOMAIN
 -->
<!-- 
vars : {
	'cmdline' : 'pythonshp.py publicdomain wiki1 marshallislands locatormap'
	'title' : 'Marshall Islands locator'
	'version' : '1.0.5'
}
 -->
<defs>
	<radialGradient id="watergradient" cx="500" cy="500" r="500" fx="500" fy="500" gradientUnits="userSpaceOnUse">
		<stop offset="0%" stop-color="#70add3"/>
		<stop offset="11%" stop-color="#6eaad0"/>
		<stop offset="22%" stop-color="#6ca7cc"/>
		<stop offset="31%" stop-color="#6ba5c9"/>
		<stop offset="41%" stop-color="#69a2c6"/>
		<stop offset="51%" stop-color="#679fc2"/>
		<stop offset="59%" stop-color="#669dbf"/>
		<stop offset="67%" stop-color="#649abc"/>
		<stop offset="75%" stop-color="#6297b9"/>
		<stop offset="81%" stop-color="#6095b6"/>
		<stop offset="87%" stop-color="#5f92b2"/>
		<stop offset="92%" stop-color="#5d8faf"/>
		<stop offset="95%" stop-color="#5b8dac"/>
		<stop offset="98%" stop-color="#598aa8"/>
		<stop offset="100%" stop-color="#5685a2"/>
	</radialGradient>
	<radialGradient id="landgradient" cx="500" cy="500" r="500" fx="500" fy="500" gradientUnits="userSpaceOnUse">
		<stop offset="0%" stop-color="#dddddd"/>
		<stop offset="11%" stop-color="#d7d7d7"/>
		<stop offset="22%" stop-color="#d1d1d1"/>
		<stop offset="31%" stop-color="#cccccc"/>
		<stop offset="41%" stop-color="#c6c6c6"/>
		<stop offset="51%" stop-color="#c0c0c0"/>
		<stop offset="59%" stop-color="#bbbbbb"/>
		<stop offset="67%" stop-color="#b5b5b5"/>
		<stop offset="75%" stop-color="#afafaf"/>
		<stop offset="81%" stop-color="#aaaaaa"/>
		<stop offset="87%" stop-color="#a4a4a4"/>
		<stop offset="92%" stop-color="#9e9e9e"/>
		<stop offset="95%" stop-color="#999999"/>
		<stop offset="98%" stop-color="#939393"/>
		<stop offset="100%" stop-color="#888888"/>
	</radialGradient>
	<radialGradient id="bordergradient" cx="500" cy="500" r="500" fx="500" fy="500" gradientUnits="userSpaceOnUse">
		<stop offset="0%" stop-color="#444444"/>
		<stop offset="11%" stop-color="#3f3f3f"/>
		<stop offset="22%" stop-color="#3a3a3a"/>
		<stop offset="31%" stop-color="#363636"/>
		<stop offset="41%" stop-color="#323232"/>
		<stop offset="51%" stop-color="#2d2d2d"/>
		<stop offset="59%" stop-color="#292929"/>
		<stop offset="67%" stop-color="#242424"/>
		<stop offset="75%" stop-color="#1f1f1f"/>
		<stop offset="81%" stop-color="#1b1b1b"/>
		<stop offset="87%" stop-color="#161616"/>
		<stop offset="92%" stop-color="#121212"/>
		<stop offset="95%" stop-color="#0e0e0e"/>
		<stop offset="98%" stop-color="#090909"/>
		<stop offset="100%" stop-color="#000000"/>
	</radialGradient>
</defs>
<style type="text/css">
<![CDATA[
.c1 {stroke:#45a211;fill-opacity:0}
.fs {font:14px sans;stroke:#ffffff;stroke-width:2px;stroke-opacity:0.8;text-anchor:middle}
.ft {font:14px sans;fill:#000000;fill-opacity:1;stroke-opacity:0;text-anchor:middle}
.sb {stroke:url(#bordergradient);fill-opacity:0}
.sg {stroke:#000000;fill-opacity:0.0;stroke-opacity:0.2}
.sh {fill:#45a211;stroke:#000000}
.sl {fill:url(#landgradient);stroke:url(#bordergradient)}
.sp {stroke:url(#landgradient);fill-opacity:0}
.sr {stroke:url(#watergradient);fill-opacity:0}
.sw {fill:url(#watergradient);stroke:url(#watergradient);stroke-opacity:0.8}
.tb {fill:#eeeeee;stroke:black;stroke-width:2}
.tg {stroke:black;stroke-opacity:0.2;fill-opacity:0}
.th {fill:#45a211;stroke:#378100}
.tl {fill:#aaaaaa;stroke:black}
.w1 {stroke:#ffffff;fill-opacity:0;stroke-opacity:0.6}
.zh {fill:#45a211;stroke:#115511}
.zl {fill:#dddddd;stroke:#444444}
.zp {stroke:#dddddd;stroke-dasharray:3 3;fill-opacity:0}
]]>
</style>
<circle cx="500.0" cy="500.0" r="500.0" fill="url(#watergradient)"/>
<path class="sl" d="M700,42h1l1,1h1l1,1h2l1,1h1l1,1h2l1,1h1l2,2h1l1,1h1h-1l-1,-1l1,1h1h-1h2v1h1h-1v-1l1,1h1l1,1h1l2,2h2l1,1h-1h2v1h2v1h2v1h1l1,1h1l1,1h1v1h1l1,1h2l1,1h1v1h1l1,1l2,1h1l3,2l2,1l1,1h1v1h2v1l2,1h1h-1l-2,-1l-1,-1l2,2h2l3,3h2l3,3h1l1,1h1l3,3h1l1,1h1l3,3h1l1,1h1l3,3h1l2,2h1l4,4h1l1,1h1l5,5h1l1,1h1l6,6h1l1,1h1l8,8h1l3,3h1l9,9h1l29,29v1l13,13v2l8,8v1l3,3v1l4,4v1l3,3v1l3,3v1l3,3v1l3,3v1l2,2v1l3,3v1l2,2v1l2,2v1l2,2v1l2,2v1l1,1v1l2,2v1l2,2v1l1,1v1l2,2v1l2,2v2l3,3v2l3,3v2l2,2v1l1,1v1l1,1v1l1,1v1l1,1v1l1,1v1l1,1v1l2,2v2l2,2v2l2,2v2l1,1v1l1,1v1l1,1v1l1,1v2l2,2v1l1,1v2l1,1v1l1,1v1l1,1v2l1,1v1l1,1v2l1,1v1l1,1v1l1,1v2l1,1v2l1,1v1l1,1v2l1,1v1l1,1v2l1,1v2l1,1v2l1,1v2l1,1v2l1,1v2l1,1v2l1,1v2l1,1v1v-1h-1v-3h-1v-2h-1v-1l-1,-1v-1l-1,-2v-1l-1,-1v-1l-1,-1v-1l-1,-1v-1l-1,-2l-1,-1v-2l-1,-1v-2l-1,-1v-2l-1,-1v-2l-1,-1v-1h-1v-1l-2,-4l-1,-3v-1h-1l-1,-2v-1l-1,-2l-1,-1l-1,-2l-1,-1l-2,-3l1,1v-1h-1v-1v1v-1l-1,-1l-1,-2v-1v1v-1h-1v-1l-2,-2v1v-1h-1v-1l-1,-2l-1,-1v-2l-1,-1l-1,-2v1v-1l-3,-3v-1h-1v-1l-1,-1v-1l-1,-1h-1l-1,-1l-1,-2l-1,-1v-1h-1v-1l-2,-2v-1l-2,-2v-1l-2,-2v-1l-2,-2l-1,-2l-2,-2v-1l-1,-1v-1h-1l-1,-1v-1h-1l-1,-1l1,1v1l-2,-2h-1v-1v1l1,1v1l2,3l2,2l2,4l1,1v1l1,1h1v1l2,2h1l1,2v1l1,1v-1v1h1v1l1,2h1v1l1,1v1h1v2l4,4v1h1v1l1,1v1l1,1l-1,-1v-2l1,2v1l1,1v1l1,1l1,2v1l2,2l1,3l2,2v1l1,1l1,2v1h1v1v-1l-1,-1l2,2v1h1v2h1v1l1,2v2l-1,-3h-1v-1l-2,-2v-1l-1,-1l-1,-2h-1l-1,-1v-1l-2,-2v-1l-1,-2l-1,-1v-1l-1,-2v-1l-5,-5v-1l-1,-1l1,1h-1v1v-1l-2,-2h-1v-1l-2,-2v-1h-1v-1h1v-1v2h1v-1h-1v-1l-1,-1v-1l-1,-2l-2,-2l-2,-3l-1,-1v-1h-1l-2,-2l-1,-2h-1v-1l-1,-1v-1h-1l-1,-1v-1l-2,-2v-1h-1v-1l-3,-3v-2l-6,-6v-1l-6,-6v1l-1,-1l-1,-2l-1,1l-2,-2h-1v-1h-3l-1,-1v-1h-1v-1l-1,-1v-1h-1l-6,-6l-2,-1v-1l-1,-1v-1h-1v-1l-1,-1h-1l-2,-2l-1,-2h-1v-1l1,1h1v1v-1h-1l-1,-1v-1h-1v-1l1,-1h1h-3l1,1v1h-1l-2,-2h1h-1v-1l-1,-1h-1l-6,-6v-1h-1l-2,-2l-1,-2h-2v-1l-1,-1v-1l-2,-2l-1,-2l-1,-1v-1l-1,-1h-1l-1,-1v-1h-1l-2,-2v-1l-4,-4l-1,-2v-1h-1l-1,-1l-2,-3l-1,-2h-1v-1l-1,-1h-1l-3,-4v-1l-4,-4v-1h1v1v-1h-2l-2,-2v1h1v-1h-1l-3,-3v1h1h-1v-1l-2,-2l-2,-1l-2,-2h-1l-2,-2h5v1h1v-1v1h1v1l1,1v-1l1,2v1h1h-1v-1l-1,-1v-1l-1,-1l1,1v1h1l2,2v1l-1,-1l1,1h1l-1,-1v-1h-1v-1h-1v-1h-1v-1h-1v-1h-1h1h-1v-1h-1l-3,-3h-1l-1,-1h-1h1h-1v-1h-1v-1h-1l-1,-1v-1h-1l1,1v1h-1v-1h-1l-1,-1l1,1h1v-1h-1v1v-1h-1l-1,-1v-1h-1l1,1v1h1h-1l-2,-1h-1l-1,-1v-1h-1l-1,-1v-1h-1v-1h-1h1v1l1,1h-1v1v-1l-1,1h-1l-1,-1h1v-1l-1,1h-1v-1l-1,-1h-1h1v1h-2v-1h-2l-1,-1v-1l-1,-1l1,-1h-2v1h1v1v-1h-2v-1h-1v-1l-1,-1h-1v-2l1,1h2v1h1h-1l-2,-2h-1l-1,-1v-1h-1h1v1l1,2v1l1,1l-2,-1v-1h-1v-1v1l-1,-1l-1,-2h-1l-2,-1l-1,-1h-2l-2,-2h1v1h3l1,1l-1,-1h-2l-1,-1h-1v-1h-1h1v2h1v1l1,1l-1,-1h-1l-1,-1h-2v-1l-2,-2v-1v1l-1,-1h-2v-1h-1v-1l-2,-2v-1h-1v-1h-1v-1v1l1,1l-2,-2h-1v-1h-1l1,1h1v1h1v1h1v1h1v1h1v1h-1l-2,-2h-1v-1h-1v-1h-1v-1h-1l-1,-1h-1v-1h-1v2h1v1l-1,-1h-1v-1l-1,-1h-1v-1h-2v-1h-2v-1h-2v-1h-1l-2,-1h-1l-2,-2h-1h2h-2v-1h-1h1h-2l-1,-1h-1v-1h-1l-1,-1l1,1h-2l-1,-1h-1l-1,-1h-1l-2,-1l-2,-2v1h1l1,1h1l2,2h1l1,1h1v1h-1v-1h-3v-1h-1l-1,-1h-1v-1h-1h1v1h1h-2l-1,-1h-1l1,1h2v1h2l1,1h1h-1v1h-1l-1,-1h-3v-1h-2v-1h-2l-1,-1h-2l-2,-1h-3l1,-1h-1v-1h-1h1l1,1v-1h-1h1h-1l-1,-1h-1v1h1l-1,1h-4v-1h-1v-1v1h-6l-1,1h-1v-1h-3v-1h-1l-1,-1v1h-2v-1h-4v-1h-1l-1,-1h1h-1v1h-4v-1v1h-1h1v1h1v1h1h-1v1v-1h2v1h1v2h-3v1h1h-2l1,1h-1v1l-1,-1v1h1v1h-2v1h-1l-1,-1v-1h1v-2l-1,1h-2v-1h-1v-3h-1l-1,-1l2,-2v1h4l-1,-1h-3v-2h1h-1v1h-2l-1,1v1h-1v1h1h-1v2h1l-1,1l-1,-1v1h2v1l-1,1h1v1h-1v-1l-1,1h1v1h-1l2,2h3v2l-1,1h1l-1,1h1l-1,1h-1v1l-1,1v1h-1l-1,1h1v2h-1v1h-1v1h-2v1h1h-2v1h2l-1,1v1l-3,1v1v-1h-2v1h-1v1l-1,-1v1h-1l-1,1l-1,-1h1v-1h-2v3h-1v1h-1v-1h-1h1v1h-2v1h-1v-1l-1,-1h2v-1l1,-1v-1l1,-1h1l1,-1h2v1h3l-1,-1h-1v-2h1v-1l2,-1v-1h1v-3h1v-1h1l1,1v-1h-2v-2h-1v-1h1h-1l-1,-1v-3l-1,-1v1l-2,2h-1l-1,-1h-1v-1h1h-2v1l2,1v1h-1l-2,-1l-1,-1h-3l-1,-1h-1v1h-1l-2,2h-2v-1h1l-1,-1v-1h-1l-1,-1v-1l-1,-1l-2,-1l-2,-2v-2h-1v3h1v1h-1l-1,1h-3l-1,-1l-2,-1h-2l-1,-1h-1v-2h3v1h1v-1h1v1h1v-1h-1v-1h-1v1h-5v-1h1h-1l-1,-1v1v-1h-1l1,1h-1l-1,-1h-1v-1h-2v-1h1h-1h1v-1h-1v-2l1,-1h1v-1v1h-1v-2h1l-1,-1h3v1l1,-1v1h1v-1h1v-2h1l1,1l1,-1h1v-2h-1l-1,-1l-2,-1h-1h1l1,-1h-1l-1,-1h-1v1h-2v2h-1v-1h-7v1h-1l-1,-1h-4v-1h-1l-2,-1h1v-1h-4l-2,-1h-1l1,-1v1l1,-1h1v-1h4v-1h-1v-1h3l1,-1h1v1l2,2h2l1,-1v1h1l1,-1h1v-1l1,1h1l-1,-1h-3l-2,-1h-1v-1h-1h3v1h1l1,1h4v-1h-6v-1l-1,-1l-2,1v-1v1h-1l-2,-1h-2l-2,-2l-5,-1h-2l-1,-1h-1l-1,-1v-1h3l2,-1h1v-2h-1v-1l1,-1v-1v1h1v-1h1l1,-1h1v1h1l-1,-1h1h-2v-1h4l1,-1v-1h3l1,1h-1h1v1l1,-1h8v1h17l2,1h2v-1h4l1,1h8l2,1h3l2,1h3v-1h-1l-1,-1h1h-1v-1h1h-1h2v1h1v-1h-1v-1h1h-1h1v-1h-1v-1h2l1,1v1l-1,1h1v1h1v1h1v1h1l-1,-1h1h-1l-1,-1v-1h-1h3v1v-1h-1l-1,-1v-1h1v-1h-1v-1h-3v-1l2,1h1l2,1h2v1h2l1,1h2v-1h-2l-1,-1h-1v-1h-1h1l1,1h2l1,1h1v-1h-1v-1h1l1,1h4l2,1h8l1,1h2v1h1h-1h1l1,1h4v-1h-1v-1l1,1h3v1h1l-1,-1l1,1h2v1h1l1,1h3l1,1h1l-2,-1h-1l-2,-1h1h-2v-1h-3v-1h-2v-1h-2v-1h-1h1h-1l-1,-1h-2v-1v1h2v1h1h-2l-2,-1v-1h-1l-1,-1h1v1h2l1,1h3v1h1v-1h-1h1l1,1h1v-1h-1l-1,-1l2,1h1h-2v-1h-1h1h-3l-1,-1h-1v-1l1,1h1h-1h1l1,1v-1h-1l3,1l1,1h2v1h3v1h1h-1h1h-1h1l2,1h1h-1l-1,-1h-2l-1,-1h-1l-1,-1h-2v-1h-1l-2,-1h-2v-1h-2l-1,-1h-1l-1,-1h-1h1v1h1l-1,-1h-2l-1,-1h-1h1h-2v-1h-1h1v1v-1h-4l-1,-1h-1l-1,-1h-2v-1v1l-1,-1h-2l-1,-1h-2l-1,-1h-2v-1h-1h1l1,1h2l1,1h3v1h3v1v-1v1h2l1,1h2l1,1v-1v1v-1h-1l1,1h2l1,1h2v1h2l1,1h1h-1v-1h-2l-1,-1h-2l-2,-1h1l1,1h2l1,1h1l1,1h2l1,1h2l1,1h1l1,1h2l1,1h1l1,1h2l2,2h2Z"/>
<path class="sp" d="M701,42l1,1h1l1,1h2l1,1h1l1,1h2l1,1h1l2,2h1l1,1h1M719,50l1,1h1l1,1h1l2,2M727,54l1,1M757,71l2,2h2l3,3h2l3,3h1l1,1h1l3,3h1l1,1h1l3,3h1l1,1h1l3,3h1l2,2h1l4,4h1l1,1h1l5,5h1l1,1h1l6,6h1l1,1h1l8,8h1l3,3h1l9,9h1l29,29v1l13,13v2l8,8v1l3,3v1l4,4v1l3,3v1l3,3v1l3,3v1l3,3v1l2,2v1l3,3v1l2,2v1l2,2v1l2,2v1l2,2v1l1,1v1l2,2v1l2,2v1l1,1v1l2,2v1l2,2v2l3,3v2l3,3v2l2,2v1l1,1v1l1,1v1l1,1v1l1,1v1l1,1v1l1,1v1l2,2v2l2,2v2l2,2v2l1,1v1l1,1v1l1,1v1l1,1v2l2,2v1l1,1v2l1,1v1l1,1v1l1,1v2l1,1v1l1,1v2l1,1v1l1,1v1l1,1v2l1,1v2l1,1v1l1,1v2l1,1v1l1,1v2l1,1v2l1,1v2l1,1v2l1,1v2l1,1v2l1,1v2l1,1v2l1,1v3M674,31l1,1h2l1,1h1l1,1h2l1,1h2l1,1h1l1,1h2l1,1h1l1,1h2l2,2h2l1,1"/>
<path class="sl" d="M325,31v1h-1l-2,1h-2l-1,1h1l2,-1h1v-1v1v-1h1l2,-1h2v-1h3v-1h2l1,-1h2l2,-1h1l1,-1h2l1,-1h2l2,-1h1l5,-2h1l-1,1h-1l-2,1h-1l-2,1h-2l-1,1h-3l-2,1l-1,1h-1l-3,1h-2l-1,1l-5,2h-1l-2,1h-1l-1,1h-2l-1,1h-1l-1,1h-2l-1,1h-2l-1,1l-4,1v1v-1l-1,1h-1l-1,1l1,-1h1h-1h1l1,-1l-1,1h-2v1h-2v1h-1h1l1,-1l2,-1h2l2,-1h1l2,-1l1,-1h2l1,-1h2l2,-1l1,-1h1l-1,1h-1l-1,1h-1l-2,1l-3,1h-1v1h-1h1l1,-1h1l1,-1h2l1,-1h1l2,-1h1l1,-1v-1h1l2,-1h2v-1h1l3,-1h1l1,-1h2l5,-2h1l1,-1l3,-1h3l1,-1h2l1,-1h1h-1l-1,1h-2v1h-4l-1,1h-1l-1,1h-2l-1,1h-1h1l-2,1h-1h2l1,-1h1l1,-1h1l1,-1h3l1,-1h2l-2,1h-1l-1,1h-1l-1,1h1h-2l-1,1h-3v1h-2l-1,1h-1l-1,1v-1h2l2,-1h-1l-1,1h-1l-1,1h-2l-1,1l1,-1h2l1,-1h2l2,-1h1l1,-1h2l1,-1h2v-1h2l1,-1h1l1,-1h2l1,-1h2l1,-1h2l1,-1v1h2l-1,1h-3v1h-1l2,-1h3l1,-1h1l2,-1h2v-1v1h-1h1l1,-1h4v-1h7l1,-1v1l1,-1h4v1h-1h1h-1h4v-1v1h-1l-1,1h-1h1v-1h3l1,-1h4l1,-1h3l3,-1h3v1h-5l1,1h1h-1h1h-1l-1,1h-1h5v1h-1l-1,1h-1h1l-1,1h1h-4v1h-1l-3,1h-4l-2,1h-3l-1,1h-2l-3,1h-5l-5,1l-1,1h2l1,-1h7l1,-1v1v-1h2l1,-1h3l-1,1h2l-1,1h-2l-1,1h-1l-1,1h-2l1,1v-1h1l1,-1h3v-1h7l1,1h1h-2l-1,1h1v1h8v-1h1l1,-1h3v1h1v1l1,-1h2v1h1h-1v1h1h-2v1h-3l1,1l-1,1h-1v-1h-1v1l-1,1h1v-1v1h-1l-2,2h1v1h1h-1v1h1l1,-1l2,-1h2v-1h1l1,-1h1v1l1,1h2l1,-1h4l1,1v1h2v-1h-1h6v-1h1h-1l1,-1h1h-1v-1h6v-1h3l3,1h4l1,1h1h-4h4l-1,1h-1v-1h-1v1h-2v1h2l1,-1l2,-1h6l1,1v1h-2l1,1h1v1h3l1,1h-1l1,1h1l2,-1h13l2,1h1l1,1h1v1h-1v1h-1v1h4l-1,1v1l1,1l-1,1h-1h1l1,-1h1v-2h2v-1h7l4,1h4l2,-1h1v1h1v1h2l2,2h1l2,-1h1v-1l-2,-2h1v-1h7v1h1v-1h3l1,1h2l1,-1h1l1,1h3l2,1h4l1,1h2v1h4l1,1h2v1h1l-2,-1l3,1h1l1,1l6,1l1,1v1h1v-1l1,1v1h1v2h2v1h1v-1h1v1v-1h-1l-1,-1h1l-1,-1h-1h1l1,-1h1l1,1v1v-1h2h-2h6l1,1h1v1h3l-1,1h1v-1v1h3v1h-2v1h-2l1,1h-5v-1h-1v1h2v1h-1h1l1,1l-1,1h-1h1v1h2v1h-1l-1,-1v1h-1v-1h-1v1h-2l-1,-1h-1l-1,-1h-4l-1,-1v-1h-1v-1h-5l-1,1h-3v-2h-2v-1h1v-1h-1v1h-1v-1h-1v1h-1v1h1v1h1v1l-1,1h-1v1h-1v1h-3v1l-1,-1h-3l-1,-1h-1l1,1h-3l-2,-1l-1,1h-1h2v-1h1v1h1h-1v1l1,-1l1,1h1v-1h2v1l1,1h3v1h1v1l1,1h-1h1v1v-1l1,1l2,1v1h1v2h-1v1l-4,-1h-3v-1h-2v1h1h-2l-1,1l-3,1h-1l-2,1h-2v1h-2l-1,1h-3v1h1h-1v1h-2l-1,1h-1l-1,1l-2,1h-2v2l-1,1v-1h-2v-1l-1,-1h-1l-1,-1l-1,1h-1l-1,-1l-1,1h-4l-1,1l-3,2h-1v-1l1,-1v-1h-1l-1,1h-2l-1,1h-1v1h-1v-1h-2l-1,1v-1h-2v1h-1v1l-1,1v1l-1,1h-1h1h-1v1h-1l-1,1l-2,1v1l-1,1v1h1l1,1l1,-1h2l1,1h-1v1h-1l-1,1v3h2v3h-1v1h-1l-1,-1v-1h2v-1l-1,1h-2v1h-2v1l-2,2v3l1,1v1h-1l-1,1h-5l-2,2h-2l-1,1v5h-5l-1,1h-2v2h-1v2l-4,4h-1l-1,1l-4,2l-1,1v-2h-1v-1l1,-3v-4l-1,-1v-1h1v-13l1,-1l2,-4l2,-3l3,-2h1l2,-2v-1l-1,-1h3l2,-1h3v-1h1l2,-1h1l2,-2l2,-1l3,-3h2l1,-1l2,-1l1,-1h1v-1h2l2,-1l1,-1h3l-1,-1h1l1,-1h1l-1,-1v-1h1v-2l1,-1l2,-1l1,1h1v-1l1,1v-1h-3v-1h-2l-3,1h-1v1l-1,1v2h1h-1v1h-1v-1h-2l-1,1l-5,2l-1,1h-1l-1,1h-1v-1l1,-1h-1l-1,1v-2h1l1,-1v-1l1,-1h-1l-2,1l-1,-1h-5v1l-2,-1h-1v1h-3v1h-1v1h-1l-2,1l-2,2h-1l-2,1l-3,1l-1,1v1h-1v1h-1h2l2,1h1h-1v1h-9l-1,1h-1l-1,-1l-1,1h-4v-1h3l2,-1h-2l-1,-1h-1l-1,-1v1h-1l-1,-1h-1l-2,-1h-1l-1,1h-1v1h-1v-1l-1,1h1v1h-2l-1,-1h-1l-1,1h-1l-2,-1h-2l-1,1h-2v-1h-5l-2,-1h-1l-1,1l-2,-1l-2,1h-2l-1,1l-2,1l-1,1h-2l-2,1h-1l-3,3l-2,1h-2l-1,1h-1l-1,1h-2l-1,1l-3,2h-1l-1,1l-2,1h-1l-1,1h-1l-1,1h-2l-6,3h-1l-2,1l-1,1v1h6v1l-3,3v1h2l1,-1v-1l1,-1h2l-1,1h-1v1h1v1h-1l-1,1h-1h4l2,-1v-1v1l-1,1h-1v1h1l2,-2v-1l1,-1v-1l2,1h3l1,1v2l3,3l-1,1h-2v1h1l-1,1v1l-1,1l1,1l-1,1v1h-1l-1,1h-1l-3,3v1h-1l-1,1l-2,4v1l-2,2l-1,2l-3,3l-1,2l-1,1l-2,1l-1,1h-1l-1,1l-2,1l-2,2l-3,2l-5,5l-3,2v1l-5,2l-2,2h-1l-2,2l-2,1v1h-2l-1,1l-3,2v1l-2,1l-1,1l-2,1l-1,1l-4,1l-1,1h-3l-1,1h-2v-1h-2v-1l-1,1l1,-3l-2,1h-1h1l1,-1h-2l-3,3h-1v1h-3v1l-1,1h-2l-1,1h-1l-4,4h-1v2l-1,1v1l-1,1h-2l-2,2h-1l-1,1h-1l-2,2h-3l-1,1h-2v2l-1,1h-1v1h-1l1,1h1v2h1v7l1,2v5l-1,1v1l-1,1v1l-1,1v1h-1v1h1v1l-2,2v1l-2,1l-2,2h-4v1h-2v-1h-2v2h-1v-1h-1v2h-1v1l-1,-1h1v-1l-1,1l-2,1v-1l-2,2v-3h1v-1h1h-1v-2l2,-2v-1h1l1,-1h-1h1v-1h1v-2h1l-1,-1l1,-1v-1l1,-1v-1h-2v-1h1l1,-1h2v1h1v-2l1,-1l-1,-1l1,-1v-2l-1,-1l-1,1v-1h-1v-1l-2,2h-1v-1h-1l1,-1v-1l-1,1v-1h-1l1,-1h1l1,-1v-1l2,-1h1h-1v-1l3,-3v-1l1,-1h-2v-1h-1v-1h-1v-1h1h-1l-1,1h-2v-1h-1v1h-3l-1,1l-4,1v1l-1,1h-2v1h-2v1h-2v-1h1l2,-1l2,-2h-2v-1l1,-1h1v-1h1l2,-2h1l3,-3v-1l-1,-1l1,-1l-1,1h-1v-1h-2l-2,2h-1l-3,3l-3,1h-2l-3,3v1l-2,1h-3l-1,1v-2l-1,1h-1l-3,3v4l2,1h2l-1,1v2h-1l-1,1v2l1,1h2l1,-1l2,-1l1,-1v-1h4v1l2,2h1l1,-1v1h2v1l-2,2v1h-2v-1h-1l-2,1l-1,1h-2l-1,1v-1h-1l1,1h-1v1v-1l-1,1l-1,2h-2l1,-1h-2v1l1,1h-1l-1,1h-1v1h-2l-1,1v1h-1l-1,2h-1l-1,2h1v2h1v1l1,1v1l-1,2v5l-1,2v2l-1,1l1,1h1v1l-1,1v1l1,1v3l-2,-2h-2v-1l-1,-1l-3,1h1l1,-1l1,1v2h1v1l2,2v2l-1,2h-2l-1,1l-2,1l-1,1h-3l-1,1h1l1,1h1l2,-1h1v3h1v1h1h-1l-2,2h-1v1l1,-1h2l-1,1l-1,2l-1,-1v1l-1,-1v1h-1h1v2h-1l1,1h-1v1h-1v3h-2v-1h-1v1l-1,1v1h-1v1l-2,1v1h-1v1l-1,1v1h-1l-3,3v1l-1,1v-2h-1v4h-1l-2,2h-1v-1v1h2v1l-2,2v2h-1v-1v1l-1,-1v1h-1l1,1h-2v1l-2,2h-1v2h-4v1h-1h1v2l-1,1h-2v1l-1,1h-1v1l-1,1v-1h1h-2v1v-1h-1v1l-1,1h-1v1h-1v2h-2v1h-4v1h-1v-1h-1v1h-2v-1l-1,1v1l-1,-1h-1l-1,1v-2l-1,-1l1,-1v-2l-1,1v1h-1v5l-1,1v-1v1h-1v1h-1v-1l-1,2h-2v1l-1,-1l1,-1h-1v2h-1v-1h-1l-2,2h-3v1h-1l-1,1h-1v-1v1l-2,2v5l-1,1h-2v-1h1v-1h-1v-1l1,-1v-4h1v-1h1v-2h-1v-1v1h-1v1h-1v-2h-1v-3l-1,1v1h-1v1h-2l-3,3v1h-3v1l-1,1l-1,2v1l-3,3h-1l-1,3v1l-1,1l-1,2v1l-1,2v2l1,2v5l-1,-1v1h1v4l1,2v2l1,2h-1h1v3h1v5l1,1v12l-1,1v6l-1,1v5h-1v3h-1v4l-1,1v2h-1v2h-1l-3,3h-1v1l-2,2h-1l-1,1v-3l-1,1v2l-1,-1v-1v2h-1v1h1v1l-1,1v1l-1,-1l-1,-2h1v5l-1,-1l-1,-2v-1l1,3v2l-1,1l-3,2v1l-1,1v1l-1,1h-1l1,-1v-4l1,-4v-2h1v-2h-1v-2h-1v-2l-1,-1v-1h-1v1h-1v-1h1v-4l-1,1v1h-1v-3l1,-1v-4l-1,-1l1,-1l-1,-1v-1v1v-3l-1,1v-3h-2l-1,-1v1l-1,-1l1,-1v-2l1,-1v-3h-1v-1v1h-2v3l-2,6v2l-1,1v1l-1,1v1l-1,2v3l-1,1l-1,3v2h-1v3l-1,2v5l2,-1v2l-1,4v1h1v1v-1v12l-1,-1l1,-1v-1h-1v-1l1,-1h-1v5h1v2l1,1h1l1,1v3l1,2v2l-1,1v1h-1v-1h-1v1l-1,1v-8l-1,1v-1h-1v-1v1l-1,-3v-5h-1v-6h-1v-3l-1,1v-5l1,-2v-3l1,-1v-1l1,-2l1,-3l-1,1v-3l1,-2v-2l1,-1v-2l1,-1v-3h1l-1,-1v1v-2l1,-1v-4l1,-1v-10l1,-1v-1l-1,3v-3l1,-1v-5h1v-1l-1,1v-2l1,-2v-1l1,-1v-5l1,-1v-1l1,-2v-1h-1v-3l1,-1v-3l-1,1v2l-1,2l-1,1v1h-1v-2l1,-1l-1,1v2l-1,1v1h-1v1l-1,1v1l-1,1v-2l1,-1v-1v1l-1,1v1v-1h-1v-1h1v-1v1h-1v1v-2l1,-1v-1l-1,1v1h-1v-1l1,-3h1v-3h1v-2l1,-1l1,-2v-3l1,-3v-2l1,-1v-3l1,-2v-1v1h-1v-1h1v-4l1,-1v-2h-1v2v-3h1h-1l1,-2v1l-1,1v-1l1,-1v-1l-1,2v-2l1,-2v-4l1,-3l1,-1v-2l1,-2v-1h1v-1v1v-4l1,-1h-1v2h-1v-1l1,-3l1,-2v-1l1,-1h-1v1v-1v2l-1,1v1h-1v2l-1,1v2l-1,1v1l-1,1v1l-1,1v-2h1v-1l-1,1l1,-1v-2l1,-1v1l-1,1v1l-1,1v1h-1v1v-1l1,-1l1,-3l-1,1v1l-1,1v2h-1v-1l1,-1v-1v1l-1,1v1v-1v1l-1,1v-1l1,-1l1,-2v-1l-1,2l-1,1v1v-1v1v-2l1,-2v-2h1l-1,1v2l-4,4v1l-1,1v1l-1,2v2l-1,1v1l-2,2v-1v2h-1v1v-1l-1,1v1l-2,3v1l-1,1v1l-1,3h-1l-1,2v2l-2,2v2l-1,1v2h-1v3h-1v1h-1v3h-1v1v-1v1l-2,5v3l-1,2v2l-1,1v4h-1v1v-1v3l-2,6v3h-1v2l-1,3v4l-2,8v-1v3l-1,2v4l-1,1l1,-1l-1,1v5l-1,1v-1l1,-1v-5l1,-1v-5l1,-1v-4l1,-1v-4l1,-1v-4l1,-1v-4l1,-1v-4l1,-1v-3l1,-1v-3l1,-1v-3l1,-1v-3l1,-1v-3l1,-1v-2l1,-1v-3l1,-1v-2l1,-1v-3l1,-1v-2l1,-1v-2l1,-1v-2l1,-1v-2l1,-1v-2l1,-1v-2l1,-1v-2l1,-1v-2l1,-1v-2l1,-1v-1l1,-1v-1l1,-1v-2l1,-1v-2l1,-1v-1l1,-1v-2l1,-1v-1l1,-1v-2l1,-1v-1l1,-1v-2l1,-1v-1l1,-1v-2l2,-2v-1l1,-1v-2l1,-1v-1l1,-1v-1l1,-1v-1l1,-1v-2l1,-1v-1l2,-2v-1l1,-1v-1l1,-1v-1l1,-1v-2l1,-1v-1l1,-1v-1l2,-2v-1l1,-1v-1l1,-1v-1l1,-1v-1l1,-1v-1l2,-2v-1l1,-1v-1l1,-1v-1l3,-3v-1l1,-1v-1l1,-1v-1l1,-1v-1l3,-3v-1l1,-1v-1l1,-1v-1l3,-3v-1l1,-1v-1l3,-3v-1l1,-1v-1l3,-3v-1l1,-1v-1l4,-4v-1l1,-1v-1l3,-3v-1l4,-4v-1l1,-1v-1h1l1,-1v-1l2,-2v-1h1l1,-1v-1l4,-4v-1l6,-6v-1l4,-4v-1l1,-1h1v-1l5,-5v-1h1l1,-1v-1l24,-24h1v-1l2,-2h1v-1l1,-1h1l9,-9h1l4,-4h1l1,-1v-1l1,-1h1l3,-3h1l4,-4h1l4,-4h1l3,-3h1l4,-4h1l1,-1h1v-1l1,-1h1l2,-2h1l3,-3h1l1,-1h1l3,-3h1l1,-1h1l1,-1v-1h1l1,-1h1l1,-1h1l3,-3h1l1,-1h1l1,-1h1l3,-3h1l1,-1h1l1,-1h1l2,-2h1l2,-2h1l1,-1h1l1,-1h1l1,-1h1l2,-2h1l1,-1h1l1,-1h1l1,-1h1l1,-1h1l2,-2h1l1,-1h1l1,-1h2l1,-1h1l1,-1h1l2,-2h1l1,-1h1l1,-1h2l1,-1h1l1,-1h1l1,-1h2l1,-1h1l2,-2h2l1,-1h1l1,-1h2l1,-1h1l1,-1h2l1,-1h1l1,-1h2l1,-1h1l1,-1h2l1,-1h2l1,-1h1l1,-1Z"/>
<path class="sp" d="M5,427v-1l1,-1v-5l1,-1v-5l1,-1v-4l1,-1v-4l1,-1v-4l1,-1v-4l1,-1v-4l1,-1v-3l1,-1v-3l1,-1v-3l1,-1v-3l1,-1v-3l1,-1v-2l1,-1v-3l1,-1v-2l1,-1v-3l1,-1v-2l1,-1v-2l1,-1v-2l1,-1v-2l1,-1v-2l1,-1v-2l1,-1v-2l1,-1v-2l1,-1v-2l1,-1v-1l1,-1v-1l1,-1v-2l1,-1v-2l1,-1v-1l1,-1v-2l1,-1v-1l1,-1v-2l1,-1v-1l1,-1v-2l1,-1v-1l1,-1v-2l2,-2v-1l1,-1v-2l1,-1v-1l1,-1v-1l1,-1v-1l1,-1v-2l1,-1v-1l2,-2v-1l1,-1v-1l1,-1v-1l1,-1v-2l1,-1v-1l1,-1v-1l2,-2v-1l1,-1v-1l1,-1v-1l1,-1v-1l1,-1v-1l2,-2v-1l1,-1v-1l1,-1v-1l3,-3v-1l1,-1v-1l1,-1v-1l1,-1v-1l3,-3v-1l1,-1v-1l1,-1v-1l3,-3v-1l1,-1v-1l3,-3v-1l1,-1v-1l3,-3v-1l1,-1v-1l4,-4v-1l1,-1v-1l3,-3v-1l4,-4v-1l1,-1v-1h1l1,-1v-1l2,-2v-1h1l1,-1v-1l4,-4v-1l6,-6v-1l4,-4v-1l1,-1h1v-1l5,-5v-1h1l1,-1v-1l24,-24h1v-1l2,-2h1v-1l1,-1h1l9,-9h1l4,-4h1l1,-1v-1l1,-1h1l3,-3h1l4,-4h1l4,-4h1l3,-3h1l4,-4h1l1,-1h1v-1l1,-1h1l2,-2h1l3,-3h1l1,-1h1l3,-3h1l1,-1h1l1,-1v-1h1l1,-1h1l1,-1h1l3,-3h1l1,-1h1l1,-1h1l3,-3h1l1,-1h1l1,-1h1l2,-2h1l2,-2h1l1,-1h1l1,-1h1l1,-1h1l2,-2h1l1,-1h1l1,-1h1l1,-1h1l1,-1h1l2,-2h1l1,-1h1l1,-1h2l1,-1h1l1,-1h1l2,-2h1l1,-1h1l1,-1h2l1,-1h1l1,-1h1l1,-1h2l1,-1h1l2,-2h2l1,-1h1l1,-1h2l1,-1h1l1,-1h2l1,-1h1l1,-1h2l1,-1h1l1,-1h2l1,-1h2l1,-1h1l1,-1"/>
<path class="sl" d="M56,428v1l-1,1v-2l1,-1ZM63,444l1,-1v1ZM68,430h-1l1,-1ZM88,341v1v-2ZM92,339h-1l1,-1ZM91,341h-1h1v-1ZM89,342h-1v-1h1ZM484,668v3h1v-1h1v-1h1h-1l1,1l1,3l-1,1h-1l-1,1l-2,-2v-2l-1,-3v-2h1v1ZM490,678v1l2,1h1v2h-3l-1,-1v-3l-1,1l-1,-1l1,-1h1ZM498,684h1h-3v-1h1ZM497,680h-3v-1h1l1,-1v1ZM498,690l1,1v1h-2v-1h-1l1,-1ZM494,673h-2l1,-1h1ZM496,677v-3l1,3ZM496,672v1v-1l-1,-3h1v2ZM488,675h-1v-1ZM491,663v1h-1l-1,-1l1,-1ZM490,660l-1,-1h2v1ZM510,711v1h-1v-1ZM507,706l-1,1l-1,-1v-2h1v1ZM506,701l-1,1l-2,-1v-2h1v1h1v1ZM451,495v1l-1,-1ZM250,453l-1,1v-1h1v-1ZM355,476h-1ZM411,482h-1v-1h-1l1,-1l1,1ZM313,397h-1v-1h1ZM308,415l-1,1v-1ZM315,382v-1h1v1ZM312,407v-1h1ZM311,408v1ZM303,423h-1v-2h1l1,-1h1l-2,2ZM671,661h-1h2ZM735,96v1v-1h-1l-1,-1l2,1h1ZM737,98l-1,-1h-1h2ZM721,88v1l-1,-1ZM679,81h-1ZM683,84v-1ZM671,83v1h-1v-1ZM657,83l-1,-1h1ZM647,111h-1v-1ZM652,112h-1ZM651,111v1h-1v-1ZM626,121h-1v-1h1ZM582,133h-1ZM586,59h1ZM575,71h6v1h5l1,1h-3v1l-1,-1h-2v-1h-7v-1ZM605,86h3v1h1v1h-2v1v-1h-5v-1h-1v-1h4v-1ZM666,96l1,-1v1h1v1h1h-2v1h1v1h-2l1,1h-1h1v1h-1v-1h-1v1h-1l-2,-2h-1v-2h2l1,1h1v1l-2,-2v-1h-1h2v-1h1ZM634,113l1,1h1v1h1l-2,-1v1h-3v1l-1,1h-1v-1h-1v-1h1v-1h1v-1h2ZM740,102l1,1l-1,-1h-1ZM748,103l1,1h-1l-1,-1h-1h1ZM740,98l1,1h-3v-1h-1h1l-2,-2h1l2,2ZM746,101l1,1v1v-1h-1v1l-2,-2l-2,-1l1,-1h1l1,1ZM731,94h1l2,2h-1l-1,-1l1,1h1v1h1h-2v-1h-1l-1,-1h-1l-1,-1h1ZM745,105h1l1,1h-1l-1,-1h-1l-1,-1h-1v-1h1v1h1ZM674,81h1v1h-1v-1h-1ZM673,85v-2l-1,-1h1v1l1,1h-1h1ZM670,81v1h1v1l-1,-1v-1v1ZM668,80h-1v-1v1ZM668,99v1h-1v-1h2ZM664,92h-1ZM664,96l-1,-1h1ZM664,107v-1ZM665,103v1v-2ZM667,103h-1v-1h1ZM645,111v-1l1,1v1h-1l-1,-1v-1h1ZM640,114h-1v-1h1ZM640,116h-1ZM649,112v1h-1v-2h1ZM626,119h-1v-1h2v1ZM627,118v-1v1h1ZM632,94h-1v-1h1v-1ZM579,86h1l1,1h-2l-1,-1h-1l1,-1v1ZM598,102v1h-1v-1ZM611,126v1h-1v-1ZM607,128h-1h1v-1v1h1ZM599,130h-1l1,-1v1h1ZM601,105h2l-1,1ZM580,133v1ZM581,132h-1h2ZM576,134h-1v-1h1ZM558,136l-3,-1h-1h2l1,1ZM527,131h-2v-1h2ZM725,93l1,1h1l4,4h1v1v-1h-2v-1h-1v-1h-2l-2,-2h-1l1,1h-1v-1h-1v-1l-1,-1h1l1,1ZM720,89h3l1,1h1v1h1h-2v-1h-1v-1h-1l1,1l2,1h1v1h1v1l1,1h-2v-1l-1,-1h-1v-1h-1l-2,-1v-1h-1l-1,-1Z"/>
<path class="sl" d="M717,89h1l1,1v-1h1l2,2h-1h2v1h1h-3l1,1l-1,-1h-1l-2,-1l-1,-1h-1v-1l1,1v-1h-1ZM734,98h3v1h2l1,1h1v1h2v1l-1,-1v1h2v1h1l1,1h1v1h1v1l-1,-1h-1l-1,-1h-1h1h-1l-1,-1h-1v-1h-1l-1,-1h-2l-1,-1h1l-1,-1v1h-1v-2h-1ZM730,95l1,1v-1l3,3v1h1h-1h1h-1l-2,-2h-1v-1h-1l-1,-1ZM665,93h2v1h-1v-1v1h-1v1h-2v-2h1h-1v-1h1v1ZM618,123l-1,1v1h-1v1h-1v-2h2v-1h-1v-1h3v1ZM623,120h1v-1l1,1h-1v1h1l-1,1h-1l-1,1h-1v1h-1l-1,-1h2l1,-1v-1h1h-2v-1l1,-1h1ZM594,131h2l-1,1h-3v-1h1ZM588,132h-1l1,-1h2v-1h-1l1,-1l1,1v1h-1h1l-1,1ZM579,133h1v1h-2l-1,1v-1l1,-1v-1ZM572,134v1l-1,-1h1h-1l-1,-1h3v1ZM559,133h-1l1,-1ZM547,134h-1v-1h1l1,-1v1ZM522,127h2l1,1h-2v1l-1,-1h-2l1,-1ZM776,370l-2,-1v-2l-1,-2l-1,-1v-1l1,-1v-1l-1,-1v-1l5,2l1,1v1h1v1l1,1h1l-3,3l-2,1ZM762,352h3v1h-4v-1ZM767,354h2l1,1h1l-1,1h-1v1h-1v-1l-1,-1h-1v-1h-1l1,-1v1ZM757,350h1v1h1l-1,1h-1v-1h-2l-1,-1v-1h1v-1h1l1,1ZM746,347h-2l-1,-1v-1l1,-1h1l1,1v1ZM740,348v-2h1v1ZM765,356h-1v-1l-1,-1h1l1,1ZM892,232v1ZM898,238h-1v-1v1ZM902,240h-1v-1h-1h1ZM893,233h-1v-1ZM893,232h1l-1,1ZM899,236l1,1h-1v-1h-1v-1ZM807,136h1h-1h1ZM808,137h-1v-1ZM811,139l1,1v-1v1h1h-2v-1h-1v-1h-1h1v1ZM816,145v-1ZM816,143v1v-1v1l-1,-1ZM814,142h1ZM809,137h-1ZM630,717h1l-1,1l-1,-1h-1h1ZM642,697l-1,1v-1l1,-1ZM632,718v2l-1,-1ZM162,601v1ZM160,612v-1h-1v-2h1v-1h-1v-1l1,-2l1,-1h9v-1h2l1,1l-3,3h-1l-1,1h-2v1h-2v1h-2l-1,1ZM153,610h1l2,-1v1l-1,1h-1ZM53,416l-1,1v-1ZM52,413v-1ZM34,445v1h-1v-1l1,-2v1ZM41,431v-1ZM41,432v1h-1ZM36,458v-1ZM34,445v-1h1ZM35,435v1ZM36,449l-1,1v-2ZM159,334l-1,1v1l-1,1v2l-1,1v-4l-1,-1v-6l1,-1v-2l7,-8v-1l1,-1h1v-1l1,-1h1l1,-1h1v1l1,1v1h-1v2l-1,1l-1,2l-1,1v1l-1,1l-3,6v1l-2,2ZM150,318h-1ZM7,418v-1ZM6,422v1ZM7,416v8h-1v8l-1,3v6l-1,1v6h-1v1v-5l1,-2v-7l1,-2v-5l1,-2v-4l1,-1v-4ZM237,242h-2v-1h1l1,-1ZM233,242h-1v-1h1ZM222,244h-1l1,-1h1ZM235,220l-1,1v-2h1ZM224,245v-1ZM231,243v-1ZM230,229h-1l1,-1ZM222,241v1v-2h1v1ZM218,253v-1l1,-1h3v1l-1,1h-1ZM423,615l-1,-1v-1l1,1ZM485,642h-1v-1h1ZM478,634h-1l-1,1l-1,-1h1v-1h3ZM431,642v1h-1v-1h-1v-1h-3v-1h1l3,2ZM439,624v1h-1v-2l-1,-1h1ZM419,620h-1l-1,-1h2ZM427,619h1l1,1h-1ZM406,612l2,2v1h-1l-1,-1h-1v-2h-2v1h-1v-1l2,-2h1v1Z"/>
<path class="sl" d="M410,617v-1l1,1ZM410,616l-1,1l-1,-1v-1l1,-1v1h1h-1v1ZM403,616l-1,-1v-1h2l-1,1ZM397,609v-1l-1,-1v-1l1,1h1v1ZM397,611l-1,-1v-1ZM401,611h-1v-2h2v2ZM390,602h-1v-1ZM406,616v1h-1l-1,-1h1ZM424,621l2,1h3l3,3h1v1l-1,1h-1l-1,-1h-4l-1,-1h-1l-1,-1v-1h-1v-1l1,-1ZM425,615l-2,-1v-1l-3,-1h-1l-1,-1l-2,-1l-1,-1h-1l-1,-1v-1l-1,-1l3,1l1,1h1v1h2v1h2l3,3v1ZM404,604v1h-1v-1h-2l-2,-1l-4,-4v-1h1l4,2l1,1v2l2,1ZM432,613l2,3v1l2,2v3l2,2h-1l-1,-2l-1,-1h-1l-2,-2l-1,-3l1,-1l-1,-1v-1ZM441,631h3v1l2,1v1h-4l-1,-1l-2,-1v-2h-2v-1h1l2,1v1ZM48,506v1l-1,-1v-1h1ZM658,654l2,2l-1,1h-2l-2,-2h2ZM665,659h-4v-1h-1l1,-1h1l2,1h1ZM360,185v1h-1v-1ZM363,184h-1ZM360,186v-1h1v1ZM351,112l-2,1v-1l-1,1v-1h2ZM420,93h1ZM391,31h-1ZM403,30l1,-1v1ZM409,16h1ZM403,18h1ZM390,18h1ZM387,19h1ZM416,13h1ZM358,22h1ZM363,22l1,-1ZM367,21h-1ZM372,20l-1,1v-1ZM429,5h1ZM432,5h-1Z"/>
<path class="sp" d="M431,5h1"/>
<path class="sl" d="M429,5h-1h2h-2Z"/>
<path class="sp" d="M427,5h2"/>
<path class="sl" d="M385,13h1h-1h1h-1h2l-1,1h-5v1h-1l1,-1h3Z"/>
<path class="sp" d="M377,15h3l1,-1h3l1,-1"/>
<path class="sl" d="M426,10h-2v1h-6v-1h6l1,-1v1v-1h1v1v-1h1v1ZM419,11v1h-1h1h-2l-1,1h-4v1h-3v-1h1h-1h1l1,-1h1h-1h4l1,-1h2ZM415,14h-1h1h-1v1h-3l-2,1h-6l1,-1h4l1,-1h5l1,-1l-1,1h1v-1h1v1ZM441,26h1v1v-1h2l1,-1h1v1h2l3,1h-2v1h-4v-1h1v-1h-1v1h-1v2h-2v-1h-1v1h-3l-1,-1l-1,1h-3v-2h1l1,-1h2v-1h4ZM453,28h6l1,1h1h-2l-1,1h-2l-2,-1h-2v-1h-1h1v-1h1ZM529,43l-1,-1l1,-1h1l1,-1l1,2l-1,1h-1ZM373,117v2h-1v5h-1v1l-1,2v1h-1v1l-2,2v4l-1,6v5l-1,1v1l1,1v1l-2,-2v-1h-5l-1,1v1l-5,5l-1,2v3h1v4h1v3h-1v1h-1v1l1,-2v-2h-3v-1h-1l-2,2l-1,2l-1,1h-1v-2l1,-1v-2l3,-3v-2l2,-2v-1h1v-5l2,-1v-1l2,-2v-1l2,-4v-1l2,-2v-1l2,-2v-1l-1,-1v-2l1,-2v-1h1l2,-2l1,-2v-1l1,-1h3v-1h1v-1h1v-3h1ZM534,40h2v1h3v1h-7l-1,-1v-1h2ZM497,118v1l-2,-1l-1,-1h1l1,1ZM477,50h1h-1v-2h1v-1h1v1h-1v1h-1l1,1ZM461,24h-1h2ZM419,39h-1ZM410,17h-1h1h-1v-1h1ZM404,21h-1ZM387,19h-1h1h-1ZM393,17h-1h1h-1h2ZM391,16h1ZM353,23h1v-1h1v1h-1ZM358,22h1ZM363,22h1ZM329,30l-1,1v-1ZM337,27h1ZM303,41l1,-1h1h-2ZM426,6h-1Z"/>
<path class="sp" d="M424,6h1"/>
<path class="sl" d="M424,6h-1Z"/>
<path class="sp" d="M423,6h1"/>
<path class="sl" d="M431,5h1ZM422,6h1ZM425,6h-1h2ZM418,7h-1h2ZM427,6h-1l1,-1v1l1,-1h-1ZM422,7v-1h1ZM420,7v-1h1ZM424,6h-2l-1,1l1,-1h-1h4ZM425,6h1ZM423,6h1ZM422,6h-2v1v-1h3ZM431,5h-1h1h-1h2ZM429,5h-1l-1,1h-1l1,-1h1ZM430,6h-1l1,-1h1h-1ZM432,5h1ZM413,12l1,-1h1v1h-1ZM425,9h-1ZM436,31h-1v-1h2v1ZM438,32h1l1,1h-1v1h-3l-1,-1h-2l1,-1h3ZM432,27h-1v-1h2v-1v1h-1ZM426,31h-1v-1h1ZM354,112h1l-1,1h-1v1h-2v-1h-1l2,-2h1ZM502,48h-1l-2,-1h-2l1,-1h1l3,1ZM477,96l-1,1l2,-2v-1h2l2,-1v2h-2l-1,1ZM490,117v1l-1,-1h-1v-1h-1v-1l-1,-1h2v1l1,1h1ZM422,149h-1v-1l2,-1l-1,1ZM433,141h-1v-1l1,-1v1ZM430,143h-2l-1,1h-1v-1l1,-1h2l1,-2h1v1l-1,1ZM417,152l1,-1ZM429,139l-1,1v-1ZM410,158v1l-1,-1ZM402,164h-1l2,-1v-1h1ZM386,171l1,-1l4,-2h1l-2,1v1h-2v1ZM379,173l-1,1h-1l-2,1l-1,1l-1,-1v1h-1l-2,2h-1l-1,1v-1l2,-1l1,-1h1l1,-1h1v-1h1v-1h1v1h2l2,-2h1v1ZM365,184h-1l1,-1h1ZM364,178l1,1h1h-1l-1,1h-1l-2,1l-3,3v-2h2v-1l1,-1h1l1,-2ZM389,27h-3l1,-1h3ZM410,10h-1ZM420,8h1ZM356,22v-1h1ZM348,25h2v-1h1l-1,1h-1ZM352,24h-1h2l2,-1l-1,1h-1ZM374,18v1h-1h1v-1h1h-1h1ZM150,368h1l3,3h1v-1l1,-1l1,1v1h-1v1l-1,1v2l-1,1v2l1,1v3l-1,1l-1,4h-1v2h-3v1l-1,1v2h-1v1l-1,1v5l1,1h-1v6h1l1,1l1,-1v-1l1,-1h2l1,1v4h1l1,-1v-1h1l2,2l-1,1h-1v2l1,1v1l-1,1h1l1,1v2l-1,2v-1l-1,-1h1v-2l-1,1l-2,-2h-1l1,-1l-2,-4l-1,-1v-2h-1v6l-1,1v-3l-1,-2l-2,-2h-2v1l-1,1h-2v-1l-1,-1v-1l-1,1v-1l1,-2v-1l2,-1v-3h-1l-1,-1v4h-1v-2h-1v-14h1v-1v1l1,1v1h1v-1h1v-5l1,-2l1,-1v-4l2,-5l1,-1v-2h2ZM114,453h-1l1,-1v-2h1v-1l3,-3h1v-1l3,-3l1,-2l1,-1l1,-2h1v-1h1v-3l1,-1v-1l1,-2v8h-2v1l-1,1v1h-2l-1,1v1l-1,3l-2,2h-1l-1,1v1l-2,2h-1v1h-1ZM147,428v1l1,-1h1v2l1,-1h1l-1,1v2l-1,1h-1v2h-1l-1,1h-2l-2,2v-1l1,-1l-1,-1l1,-1v-2l1,-2v-2l1,-1h-1l-1,-1h1v-1l2,2ZM148,450h-1l-1,-2l-1,-1l-1,-2v-2l1,-1h1l1,-1v-3l1,-1v-1h1v-2h2l1,1v2h-1v1l-1,2v2l-1,1v2h-1v1l1,2v1ZM159,431v1h1l1,-1v1l1,1l-1,2v2h1v4h-1v1v-2h-1v2h-1v-3l1,-2v-1h-1v-1h-1v-4l-1,-1h1ZM165,422v2h1v2l-1,1v6l1,1v1v-1h-3v-1l-1,-1l-1,-2l1,-1v-1h-1v-2h-1v-1l-1,-1v-3h5ZM139,411h2v1h1v1l1,1v2l-1,1l1,2h-1v1l-1,1v1v-1v1h-1v-1h-1v-3l-1,-1l1,-2l-1,-1v-1h-1v-2h1ZM166,450h1v5h-1v1l1,1v1l1,2l-1,2v1l1,1v4l-1,1v1l-1,1h-1v3l-1,2v-7h-1v-2h-1v2h-1l-1,1v3l1,1v5h-1l-1,2v1l-1,-1v-3l-1,1h-1l-2,-1l-2,-2l-1,-2v-5l1,-1v-1h1v-2l-1,-1v-1l-2,-1l-1,-1v2l-1,2l-2,-2v-1v1l-1,1l-1,-1v-2h-1v1h-1v1l-1,2v1l-1,2v1l-1,-1v-3h1v-4h1v-1l1,-1h2v-1h2v-2h1v-1h1l1,-1h1l1,1v5l2,-2h1v-2l1,-1l1,1h1v-1l1,-2v-1h1v1h1v-1h2l1,-1l-1,-5h1l2,2v1Z"/>
<path class="sl" d="M150,447h-1v-1l2,-5l2,-2v-1l2,-4v-2h1l-1,1v5l-1,1v1h-1v1l-1,1v1l-2,3ZM156,366h-1v-1h1ZM154,362h-1v-1h1ZM159,353v1v-1h1ZM159,350v1v-2ZM133,475l1,1h1v1h-3v-1ZM112,457v1l-1,-1l1,-1ZM130,436v1v-2h1v1ZM134,422l1,1l-1,1v-1l-1,1v-1l-1,-1v-1h1ZM133,426h-1v-2h1v1ZM146,438v-2h1v2ZM157,445l-1,1h-3v-3h1l1,-1h2v2ZM128,482h-1v1v-1v1h-2l1,-1h1v-1ZM139,473h-1v-2l1,-1l2,1l-1,1ZM166,446v-2l1,-1v3ZM164,444v1v-2l-1,-1h1v-2h1l-1,1l1,2ZM137,409l-1,-1h1ZM146,411l1,1v1l-1,1l-1,-1v-1ZM145,421v3l-1,-1l1,-1h-1v-1h1v-2h1v1ZM149,422h-1v-1h-1l1,-1l1,1ZM153,418v1v-1h-1v-2h-1v-1h1l1,2ZM155,421v-1ZM155,423l1,1v3l-1,-1v-1h-1v-1l-1,-1v1l-2,2v-1l1,-1v-4h1l1,1v1ZM161,412h-2v-2l1,-1v-1l1,1v2ZM148,407l-1,-1v-1ZM149,399l-1,1l1,1l-1,1v-4h1ZM157,438h-1l1,-1ZM162,444l-1,-1v-1h1ZM145,465h-1v-1l1,1v-1ZM162,470v-1ZM159,430h-1v-1l1,-1v1ZM158,451h-1v-1h1ZM152,364v-1ZM131,427v1ZM154,432v1ZM166,447h-1l1,-1ZM161,429v1v-1h-1v-1ZM114,455h-1v-1h1ZM151,449v1h-1v-1ZM365,581v1l-2,-2v-4l-1,-1l-2,-3l-1,-1v-1h-3l-3,-3h-1v-1l-3,-2h-3l1,-1v-1l1,1l2,1v1h3v1l2,2h2v1l1,1l2,1l6,5v1l1,1h-1v3ZM356,577h3l1,1v2h1v1l-2,2h-2v2h1l1,1l-2,2h-4v2h-1l-2,2h-2l-1,1h-1l-1,1h-7l-1,-2h-3l-3,-2h-1l-1,-1h-1l-1,-1v-1h7l1,1h2l1,-1h2l1,-3v-1h1v1l-1,1v1l2,2l1,-1h1l1,1l1,-1h2v-1l1,-1v-1l2,-1h2v-1l1,-1l-1,-1l-1,-2v-1l1,-1h1ZM271,616v-2l-1,-2v-12l-1,-2v-2l-1,-1l1,-1v-15l-1,-2v-17h2l4,2l1,1h1l4,2l3,1l1,1h3l2,2h1l2,2h4v1l1,1h1l1,1v1h1l1,1h2l3,4v1l1,2l-1,2l1,1h1l2,1h2l5,3h3v1h1l1,1v1h1v1l1,2v1h-6l-2,1l1,1l2,4l2,2h1l1,2l1,1h1l1,1h1v3l2,2l1,2l1,1v1h1l3,-1h1v4l2,1h3l1,1l-1,1h-1l1,1v1h2l1,1h3l1,1h2h-2v1l-2,-1l2,2l-1,1h-3l-1,-1h-1l-1,-1v-1h-4l-3,-1h-5v-1h-5v-1h-1v-1l-3,-3l-2,-1l-1,-2v-1l-2,-1l-1,-2l-3,-3v-2h-1v-1l-2,-1h-3l-1,-1h-3v-1h-1v-1h-2l-1,-1v1h-1l-1,1h-1l-1,-1h-1l-1,-1l2,3v1l-1,-1l1,1h-3v1l1,1h-10v-1h-1l2,2l1,-1l1,1h2v1h1l2,2v2l-1,1h-1l-2,1l-1,1h-1l-2,-2h-1l-2,1h-2l-1,-1h-3ZM325,590h-1v-1h-1v-2l2,1v1ZM308,580h-1v-2h1v1ZM363,567l-1,1l-1,-1h1ZM358,566h-1v-1h-1h1ZM338,553h-1l-1,-1l1,-1l1,1ZM351,626h1v-1h1v2h-3v-2h-1v-1l2,1ZM345,621v1l-2,-2v-1h2v1ZM351,615v1l-1,-1l1,-1l-1,-1l1,-1v2Z"/>
<path class="sl" d="M378,638h-1v-1ZM290,611l-1,-1h1ZM318,586h-1v-1h-1v-1h2v1ZM316,556l3,1v-1v1h-1l-1,1h-2l-1,-1l-1,1h-1v-2h2ZM344,563h-2l-1,-1v-1h-1h1l1,-1l2,1v1ZM346,620l2,1h1v1h1v1h-3l-1,-1v-1ZM364,617h1v1h1l1,1h-1h1h-1v1l-1,-1h-1v-1h-1v-1ZM372,639h2v1h-2l-1,-1h-1v-1h-1v-1l1,1ZM291,612v1l-1,-1l-2,-1l-1,-1l1,1h1ZM323,559h-1ZM357,565h-1v-1h1ZM350,630v1h-1v-1ZM371,576h-1l1,-1ZM391,599h-1l-1,1h-2l-3,-3l1,-1l-5,-5v-3h1l1,1h1l1,2l1,1h1l1,2h1l2,2v1h1ZM380,588h-1v-4h1v3ZM222,470v-2h1v-1v2ZM233,206h1ZM529,860h2v-1h1l1,-1h1l1,1h-1v1l1,-1v-1h2v1h-1v1h-1h1l1,-1h1h-1v1h-1v1h-1l1,1h-1h1l1,1h-1l-2,2v1h-1l-1,1h-1l-1,2l-2,2h-2v1h-1h1v1h-2h2v1h2v1h-6l-1,-1v1h1v1h-2l-1,1h-2v1h-1h1l-1,1v2h-1v1l-1,1v1l-2,2h1v1h-3v1h-1l-2,2h-1l-2,1h-6v-1h-1v-1h-3l-1,-1v1h-5v-1l1,-1l-1,1v-1h-1v-1h2v-1h1h-2v-1h3v-1h-1l2,-2l1,1v-2h2v-1l2,-2h1l1,-1h3l1,-1v1v-1l1,-1h3v-1h1l1,-1h1v-1h1h-1h2v-1h1v1v-1l1,-1h1v1v-1l1,-2h1v-1l1,-1v-2h2l3,-3v-2l3,-3h2l-1,1v1h2v2ZM535,857l-1,1v-1ZM488,886h-1v-1h1ZM490,883v1l-1,-1ZM497,892h-1v1h1l-1,1h-2v-1h1v-2h1ZM548,828v1v-1h-1v-1h1ZM533,819v1l1,-1v1h4l1,1v1h2v1l1,1h-1l1,1h-1v1l1,1l1,2v3h-1h3l1,1v1h2v-3l-1,-1h1l1,1h1v3l1,2l1,1h-1h2l2,1l1,1h5l1,-1v-1h2v-1h2l1,1h1v1h-1v1l-1,2v1l-2,2h-1v1l-1,1h1v1h-1v-1h-4l-1,1h-1v3h1l-2,1l-1,2l-1,1v1l-1,1h-1l-2,2v1h-1l-2,2h-2v1h-1v-1h-2v-1h-1l1,-1l1,-2l1,-1v-1l1,-1v-1h-1l-2,-2h-1l-1,-1h-1l-1,-1h-2v-1h-1l1,-1l2,-1h2v-1h1l1,-2v-2l1,-1v-1h1v-2l-1,-1v-1l-1,-1h3l-1,-1h-2l-1,-1v-1l-1,-1h2v-1h-1v-1h-1h1h-1l-1,-1h-1v-1v1l1,1h1v1h-1l-1,-1l-3,-4v-1h1v-1h-1v1h-1v-1h-1v-3h-1l-1,-2l-1,-1h3l-1,1l1,1v1ZM503,921h-1ZM487,912v1h-1v-1h-1v1v-1h1v-1h1l-1,1h1h-1ZM595,874h-3l1,1l-1,1h-1v-1h1v-1h-1h1ZM594,877h-1l1,-1ZM673,700h-1l1,-1h1ZM485,546v1ZM963,320v1v-2ZM967,346v1v-1h-1ZM947,295l1,1h-1ZM928,266l-2,-2v-1h-1v-1h1v1l1,1v1ZM928,274l1,1l-1,-1v-1l-1,-1ZM929,265l1,2l-1,-1l-1,-2h1ZM919,270l-1,-2h-1h1v1ZM951,302v-2h-1l1,1ZM914,246h-1ZM943,288v1v-2ZM948,301l-1,-1ZM947,300l-1,-1v-1l-1,-1l-1,-3v1l1,2l1,1v1ZM38,459v-2v2h1v1l1,-1v8l1,-1v-1h1v1h1v-1l1,-1v-2l1,1v3l1,2v1h1v3l1,3v2l-1,2v14l1,2v3l1,5v2l-1,-1v1h-1v1h-1v-2l-2,-2v-1l-3,-6v-1l-2,-2v-8l-1,-1v-23Z"/>
<path class="sl" d="M112,490h-1l-1,-1v-1h-6l-1,-1v1h-1v2l-1,1v5l-1,1v2h-1l-1,1v2l1,1h-1v1h-1v1h-1v2h1v1h-1v2l-1,1v1l-1,-1v1h-3v1h-1l-2,-2h-1v-1h-3l-1,1v2h-1l-1,1h-1l-1,-1h-2l-2,2v-1l-1,-1v-2h-1v-1l-1,-1v-3h-1v-1l1,-1v1l1,1v1h2l1,2h1l1,1h1h-1v-3l1,-1v-4h1v-3l1,-1h2l3,-1l1,-1h1l1,-1l1,-2v-2l2,-2l1,-2v-2l1,-1v1h1v2l1,1v1h1v-2h1v-1h-1v-2l1,-1v-1h1v5h1v-4l-1,-1h2l1,-1v-1l-1,-1v-1l1,-1v-1v1h1l1,-1v-1l1,-1v-2l3,-3v-1l1,-3h1v2l-1,1h1l1,-1v-2l1,1v2l2,2v2h-1l1,1l-1,1v1h1l1,-1h1v2h-1v1l1,-1h1l1,1v1l2,2h2v2l-1,1h-1l-1,1h-1l-1,-1h-1v3l2,2l-1,1h-2l-1,1v-1h-2ZM49,494v-1ZM37,469v1v-2ZM37,459v1l-1,1v-2ZM112,464h-1v-1l1,-1l1,1h-1ZM39,490v-1ZM80,502l-1,-1v-2l1,-1v3ZM114,490h-1v-1ZM538,514l-1,1v-1ZM536,515h1ZM538,526v-1h-1h1ZM538,527v-1ZM538,533h1l-1,1ZM551,549v-1l-1,-1h1v1ZM553,552v1v-2ZM538,530h1ZM663,579h1h-1v-1ZM644,580v1ZM796,569h-1ZM812,630v1ZM789,583h-1ZM779,519h2l-1,1l-1,-1v-1l-1,-1h1l1,1ZM764,501l1,1h-1h1h-1ZM668,563v1v-1v1ZM267,233h-1l1,-1ZM301,223h-1l1,-1v-1l2,-1v-1v1l-1,1h1l-1,1ZM271,248l-1,1h-1v-1l1,-1h1v-1h1l-1,1ZM234,277h-1v-1h1l1,1ZM236,276l1,-1v-1l1,-1v2h-1ZM236,262v-1l1,-1h1l-1,1ZM237,247v1v-1l1,-1ZM239,246h-1v-1l2,-2v1l-1,1ZM230,257h1v1h-1v1h-1v-1ZM239,261h-1v-1h1ZM337,172v-1ZM338,173h-1l1,-1ZM319,193v-1h1ZM268,246v1l-1,-1v1v-1ZM300,246l-1,1v-1ZM232,257v-1l1,-1v1ZM236,254h-1h1v-1h1ZM239,250v1l-1,-1h1v-1ZM256,249h-1l1,-1ZM254,250h1h-2ZM233,266h-1h1v-1ZM301,310l-1,-1h1ZM349,180h1l1,1l2,1h2l3,-3h1l-3,3v4h2l-1,1h-2l-1,1h-5l-4,2l-2,2h-1v1l-1,1v1l-1,-1h-1l-2,-1l-3,-3h-3l-3,2v-1l-1,-1h-1l-1,1v1h-1l1,1h1l2,2v1h-2l-1,-1v1h-1l-2,2h-1v-2l1,-1v-4l1,-1v-1h2v-1h1l1,-1h1l-1,-1l1,-1h1l1,1h2l1,-1h1v-2l2,-2h1v-2l2,-2v-1l1,-2v-2h1v-1h2v1l1,1l1,2v1l3,3ZM247,252h3l-1,1v1l-1,1h1v3l-4,4v1h-1v1l-1,1v2l-2,2l-1,-1l-1,1v1l-1,1l-2,1v-1h1v-1h1v-3h1v-1h-1l-1,1v3h-1l-1,-1h-1v-1h1l1,-1v-3l5,-5h-1l1,-1l-1,-1l1,-2h-2v2h1v1h-1v1l-1,-1h-1l-1,1h-1h1v-4l1,1v1h1v-1l-1,-1v-1h-1l1,-1l1,1v-1l1,-1h2l1,-1h1v-1l2,-1h1v2ZM267,248h2l-1,2v1l-1,1l-2,1v1h-1v1l-1,1v-2h-1l-1,-1l-3,1v1l-1,2h-1l-2,2h-1l1,-1h-2l1,-1l-1,-1h1v-2h-2l4,-2l2,-2v-1h2v1h3v-1h1v-1h1l1,-1h1v1Z"/>
<path class="sl" d="M327,199l2,-1l-2,2v5l1,1v4h-1v2l-1,2l-1,1h-1v1h-1v1h-1v1l-1,1v1h-3l-1,1v2l-1,1v2l-1,3l-1,1h-1v1l-2,2v1l-1,1v3l1,1l-2,1l-1,1h-1v2h-1l-1,1h-1l-1,1h-1l1,-1v-2h1v-1h1v-1h1h-1v-1h-1v1h-1v1h-1v1h1l-1,1l-1,-1h-2v1h-1v1l-1,1v1h-1v1h-1v-1l1,-1v-1h1l-1,-1h-1v1h-1l-3,3l-1,-1h-4l-2,1l1,-1h1v-1h-2v1v-3h1h-2l-1,2l-1,1h1l1,1v1h-1v1h-3l-3,3l-1,2h-3v-2h-1v-2l1,-1v-1l1,-1h1v-2h-3v-1h-2l-1,1h-2v1h-4l-1,1h-2l-1,1h-1l-1,-1h-1v1l-2,2l-2,-1h-5l1,-2l1,-1h2l2,-2h2l2,-2h1l1,-1l2,-1l2,-2h2l1,1h1v-1l1,1h1l2,-1h4l2,-1h1l-1,1v1h3l1,-1h1l1,-1v-2l1,-1h1l1,-1l2,-1l1,-2l1,-1v-2l4,-2h1l-2,2h-2v3h2l1,-1l3,-1h2l1,-1l2,-1l2,-2v-1h1l3,-1v-1h1v-1l1,-1v-1h1l2,-2l1,-2l3,-3v-2h-1v-1h1l1,-1v-3l1,-1h1l2,-2v-1l1,-1v1l1,-1v3h1v-1l1,1h1v-1l1,-1v-1h-1v1h-2v-1l1,-1h2ZM182,320l-1,2v-1ZM179,322h-1l1,-1ZM189,319h-1v-1h1ZM210,305l-1,1h-1l-1,1v1h-1v1h-1h1v-2l1,-1h1v-2l1,1l1,-1h1v-1v1ZM218,297h-1v-2h1v1ZM221,293v1l-1,-1v-1h2l1,-1h1l-1,1h-1v1ZM220,294v-1ZM298,259v-1ZM27,501v2l1,1v5l-1,-1v-4l-1,-1v-3h1ZM32,530l-1,-1v-1l-1,-3v-2l1,-1v3l1,1v3ZM110,600v2l-1,1v-1h-2v-1h-1h2l-1,-1v-2l2,-2l1,1v1h1ZM104,595v1l1,1v2h-1l-1,1v1v-1l-2,-2v-1h-2v-2h4ZM56,534l1,1v3l1,3l2,1h-1v4h-1v-1l-1,-1h-1v-4l-1,-1v-2h-2v-2h1v-3l1,1v1v-2h1v1ZM145,569v2l-1,-1v4l1,1v1h-1v1l-1,1h-1v-4l1,-1v-5l1,-1v1ZM142,575l-1,1l-1,-1v1v-6h1l1,-1v5ZM66,489l-1,-1h1v-1h-1v-2l1,-1v1l1,1v1ZM66,547v1h-1v1v-1l-1,-1v1h-1v-5l1,-1v1h1l1,1v1ZM226,541h3l2,2v1l1,1h1v1h-2l-1,-1h-1v-1l-1,-2v1l-1,-1h-1ZM226,549h4l2,1h1l3,1h1h-1l-1,1h-3v-1h-1l-4,-2ZM193,533h2l1,2h1v1h-3v-1h-1l-1,-1v1l1,1h1v1h-1l-1,-1h-1v-1h-2l1,-1v-1l1,1v-1v1l1,-1ZM177,514h-1v-2l1,-2h1v-1h1v4l-1,1ZM175,546v1l-1,-1h-1l-2,1v-1h-1v-1l2,-2h1l2,2ZM162,552h-1v-2l1,1ZM162,546l2,1h-6l-1,-1h3ZM155,545h1v1h1v1h-6v-3h2ZM200,602h-2v-3h1v-2h1v-1h1v-1h1v1h-1l1,2v1l-2,2ZM169,597v1h-1v1l-1,1l-1,-1h-2l-1,1v-2l1,-1h3l1,-1ZM156,600v1h3v1l-4,1v-3ZM195,545h-1v-1h-1v-2l-1,-1h3v2ZM26,467v1l1,-1l1,1h1v2l1,1v7l1,1v2l2,2l1,3v1l1,2v3l1,2v3h1v1v-2h1l1,2v3l1,1l1,2v1l1,1v4h1l2,2v1l-1,1v1h-1h1v-1h1v-1h1l1,1v4l-1,1v5l2,2v1h2v7l1,1v1l1,1v1h-1v3l1,-2h2v1l1,1l1,3l1,2v2l-1,1v3h1v1l-1,2l1,4v10h-1v-1l-1,-1v1h-1l-1,-2v3l-1,-1v-1l-1,-1v-1h-1l-1,-3v-1l-1,-2h-1v-1l-1,-1v-1l-2,-3l-1,-2v-2l-1,-1l-2,-4v-3h-1v-2l-1,-1v-3l-1,-1l-1,-7v-2l-1,-2v-3l-1,-1v-1l-1,-3v-1l-1,-1v-2l-1,-2v-8l-1,-1v-2l-1,-3v-1h-1v-5l-1,-1v-3l-1,-3v-1l-1,-1v-3l-2,-5v-9h1v1h1v3Z"/>
<path class="sl" d="M145,603l-1,1h-3l-1,1h-2v-1h-1v1h-2l-1,-1h-3l-1,-1l-1,1h-1v-4h1l1,-1h2l1,1h1l1,1h1l1,1h4l1,1h1v-1h1l2,-2h-1v-1l1,1v2h-1ZM130,608v1l2,2h1v1h1v1l1,1v2h-3l-2,-2v-1h-1l-2,-2h-2v-1h-1v-2h5ZM119,598v1l1,-1h1v2l1,-1h1v2h1v1l-1,1v-1h-1v1h1h-3v-1l-1,1h-2l-2,1h-3v-1h-1v-4h1l1,-1l1,1h1l1,1l1,2h1v-1h1v-1h-1l-2,-2v-2h1l1,1v1ZM154,522l-1,1v1h-1v1l-1,1h-1v1h-6v-1l-1,-1h-8l-1,-1h-5l-1,-1h-1v1h-1v1l-1,1v7l1,2v1h1l1,1v2l1,1h2l1,-1v-1l2,-2h1v1h1l2,-2l2,1h2v-1h-1h1l1,-1l1,1h1v3h-1l-1,-1h-1l-2,2v2l-1,1h-1l-1,1h-1l-1,1v1h-1l-1,-1v1l1,1v1l2,2l1,2v2l2,1v7h1v1l1,1v1l1,1v-1l1,1v2h-3l-1,1h-1v3h-1l-1,-1h-1v-1l-1,-1l1,-2v-3h-1l-1,-1l-2,-3l-1,-1h1v-7h-2l-2,2v3l1,1v15l1,3v1h-3l-1,1l-2,-2v-8l1,-1l-1,-4v-2h-1v-3h-1l-1,1l-1,-1v-2l-1,-1v-1l1,-1h-1v-2h1l1,-1v-3l1,-1v-7l1,-3l1,-1v-1v1l1,1v-2l-1,-1v-4h1v-4l1,-1v-2h1v-2h1v1l1,1v-1l1,-1v-1l1,-1h3v1l1,1h2l1,1h3v1l1,1h1v-1h2l4,1l2,-1l2,-2v-1h1l1,-1v-1h1v-1l1,1v2l-1,2v1ZM64,572v1l1,1h1l1,1h1l1,1v1l1,2v1h2l1,1l1,-1v1h1l1,1v-1l1,1h1l1,-1v-3h1l1,2l1,1l1,-1v1h1l2,2h2v1l1,1v1l1,1v2l1,1h1l1,1h2v-1h1l2,2v5l1,1v1h1v1h-1l-1,-1l-2,-1l-3,-3h-1l-1,1h-1l-2,-1h-1l-3,-1h-2l-1,-1h-1l-4,-4l-2,-1h-2v-1h-1l-1,1h-1l-1,-1h-1v-1h-1v-1h-1l-1,-1h-2l-1,-1v-2l-1,-2h-1l-1,-1h-2v-2l1,1v1v-3h1v-4l1,-1v1h1v1h1l1,1v-2l1,1ZM72,504l-1,1v1h1v3l1,1v1h1v2l1,1v1l2,-2h2l1,1h1l1,-1h1v-2l1,-1h3v1h1l2,2h1v-1h3v-1l1,1v-1l1,-1v-2h1v-1h-1v-2h1v-1h1v-1h1l-1,-1v-2l1,-1h1v-2l1,-1v-5l1,-1v-2h1v-1l1,1h6v1l1,1h1l-1,1l1,1v1h1v2h-1v-1h-1v1l-1,-1h-1v1h1v1l1,1l-1,1l1,1h1v2h-1h1v1h1v2l1,2v1l-1,1v1h-1h1v1l1,2l3,3l1,2l1,1v1h-1v1h-2l-1,-1h-1v-1l-1,-1v3h-1l-1,3v1l-1,4v1l1,2v2l-1,1h-1v1l-2,2v-2h-1v1h1v1l-1,1v1l-1,1h-1v1h1v2l-1,1h1v1h1v2l-1,1v-1v4h-1v3h-1v3l-6,4l-1,-1v-6l-1,1v-1h-1l1,-2l-1,1h-1v1h-2v-2h-1l-2,-3v2l-2,2h-1l-1,-1l-1,2h-1v-6h-1v1l-1,-1h-1l-1,1l-1,-1h1h-1l-1,-1h-1v1v-1l-1,-2v-6l-1,-1v-6l-1,-1v-1l-1,-1h-1v-3h-1v-5h1h-1v-2l-1,-1v-7h1v-4l1,-1v-1ZM173,524h1v-1l1,-1v-2h1l2,-2h1v5h-1l-1,1h-1v1l3,3v1h1v1l-2,-1h-1l-1,-1h-2v6l2,4v1l1,1l-3,-3v-2h-1v-1h-1v-6l-1,-1v-2h1v-1l-1,-1v-1l-1,-1l1,-2v-2h1v-2l2,-2h1l-1,2v2l1,1v1l-1,1v2l-2,1v1Z"/>
<path class="sl" d="M186,557l2,1l1,1h2l1,1v1l1,1v1h1v3l-2,-1l-1,-1h-1l-2,-1v-1l-1,-1h-2v1h-2l-1,-1h-1v-1h-1v1h-1v1h-1l-1,-2h-1v-1h-1v3h-1v-2l1,-3h7v1h1v-1h2ZM167,558l1,1h1v1l1,1v2h-1l-1,1h-3v-1l-2,-1v-1l-1,-1v-2h3ZM159,607v1h1v1h-1v2h1v2l-2,2v1l-1,1h-2l-2,2l-1,-1v-2h-1v-1l1,-1v-2l1,-1v-1l1,1h1l1,-1v-1h1v-1l1,-1ZM222,584v1l1,1h-1l1,1v2h-1v1l-1,-1h-1l-1,-1v-1h-1l2,-2l-1,-1h1v-1l1,-1h1v1ZM221,590v2l-1,1v1h-1l-1,-1v-3h1h-1v-2h1l1,1v1ZM252,607l-2,2l-2,-1h-3v-1l2,-5l1,-1h1v-1h4l1,1v1l1,1l-1,1l-1,2ZM268,560v17l1,2v15l-1,1l1,1v2l1,2v12l1,2v2l-4,-4v-1l-4,-4v-1l-1,1h-4l-1,-1v-1v1l-2,2l-1,-1v-2l1,-1v-3h-1v-1l-1,-1l1,-1l1,1l1,-1l-1,1l-2,-1l-2,-2h2v-1l-1,-1v-1l-2,-2l-1,-2v-2h-1v-1l1,-1h-2v-2h-1v-1h-1l-1,-1l-3,-2h-1l-1,-1h-2l-1,-1l-2,-1h-1l-2,-2h-2l-2,-1h-2l-3,-2l-1,-1v-1h1h-2l-1,-1l-1,1v-1l-1,-1v1l-3,-3v-3h1v-1h-1v2l-1,1v2l-1,1v1l-1,1h-3v-2l-1,-1l1,-1v-2l-2,-2l-2,-1v-1h-2v-1l1,-1h3v1h1l3,-3h1l1,1h1v1h1v-1l1,-1v-1h-1h1v-1h-5l-1,1h-1l-2,-1h-3v-1l-1,-1v-1l-1,-2v-1h-1l-3,-2l-1,1h-1v-2h1v-3l1,-1h3l2,-2l2,-1h2l2,1h1l1,2h2l2,1h2l1,1h-1v1l1,1v1l1,1l-1,1v8l2,2v2l1,-1l-1,-1h1v-1v1h1v3h1v2l2,2h3v-1h1l2,-2v-2h1l1,-1v-1l1,-1v-1h4l2,-2v-2l2,-1l1,-1h3l1,1l4,2h1v1h1l1,1h1l2,2l3,1h3v1h4v2ZM254,609l-2,-1v-1h2v1ZM40,498v3h-1v-3ZM42,508v-2h1v2ZM43,504v1l-1,-1h-1v-2ZM45,511h-1v-1h-1v-2h1v1l1,1ZM45,510l-1,-1v-1h-1l1,-1l1,1ZM46,513h-1v-2l1,1ZM46,512v-1ZM48,508h1l-1,1ZM50,508l1,1v1l-1,1v-2h-1v-1ZM51,520h1v1l-1,-1h-1v-2h1v1ZM50,521v3l-1,-1v-2l1,1ZM47,521h-1v-1h1ZM72,532l-1,1l-1,-1l1,-2h1v1ZM95,586h-1v-1l-1,1h-2l-2,-1v-1l1,-1l6,1v1h-1ZM223,544l-1,1v-2h1ZM169,536h-1v-1l1,-1h1h-1l1,1ZM171,534l1,2v2h1v1h-1v-1h-1v-1h-1v-3l1,1ZM210,585l-1,1v-2l1,-1l1,-3v2l-1,2ZM209,584l-1,1v-2l-1,-1h1v1ZM177,564h-3l1,-1h1l1,-1v1ZM167,496v-4h1v3ZM160,501h-1v-2h-1v-1h1v1l1,1ZM197,605h-1l2,-2h1l-1,1h-1ZM190,601l-1,1l-1,-1v-1h1ZM176,602h2v1ZM190,547v1l1,1h-1l1,1h-1v1h-1v-1h-2l-1,-1l2,-1h1ZM44,564l-1,-1h1ZM36,543l1,1l-1,-1v-2l-1,-1h1v2ZM35,539v1v-3ZM34,535v1v-1h-1v-3l1,1v1ZM30,519h-1v-5l1,2v2ZM24,492l-1,-2v-2l1,1v2ZM138,576l-1,-1v-2h1v1ZM144,540v1l1,-1h1v2h-1v1v-1h-1v1h-1l1,-1l-1,-1l-1,1v1l-1,-1v-2l1,-1v1l1,-1Z"/>
<path class="sl" d="M136,532v1h-2l1,-1ZM130,582v1v-1l-1,-1v-3l1,1v1ZM102,585h-1v-1h2v1ZM105,559l-1,2v-2l-1,-2l1,-2v-1h1v4ZM149,623h-1v-1l3,-3v2l-1,1ZM154,602v1h-1v1l-1,-1v-1h1l1,-1ZM152,601h-1v1h-1v1h-2v-1h1v-1h1l1,-1v1ZM148,601v1h-2v-1h1v-1ZM223,591h-1v-1ZM46,508v1ZM48,511h-1v-1ZM49,511v-1ZM51,518h-1v-2l1,1ZM58,492v1l-1,-1v-1h1ZM55,494v-1h1v1ZM69,496h-1l1,-1ZM68,535v-1ZM62,545v1v-1h1ZM60,546l-1,-1h1ZM88,574h-1l1,-1ZM56,576h-1l1,-1ZM27,495v1l-1,-1v-1h1ZM24,461l-1,1v-1ZM146,544v-1ZM145,565l-1,1l-1,-1v-1h2ZM148,547l-1,-1ZM144,545l-1,1v-1ZM126,603h-1v-3h1v2ZM123,598v-1l1,1ZM105,601l-1,-1h1ZM112,490h2v1h-1ZM112,498v-1h-1l1,-1v1ZM151,581v1v-1h-1ZM148,575v1h-1v-1ZM132,590h-1v-1h1ZM115,598l-1,-1h1ZM105,556v1v-2ZM170,525v-1ZM219,553h-1v-1h1ZM213,571h1h-1l-1,-1ZM194,540l-1,1h-2v-1h2ZM192,538l-1,-1h1ZM185,534h-1l-1,-1v-1ZM171,532l-1,-1v-1l1,1ZM170,526v-1h1v1ZM170,538h-1v-1ZM180,563h-1v-1v1ZM179,563h-1v-1v1ZM167,497v1l-1,-1v-1ZM158,507v1v-2ZM204,596h-1v-1h-1h1ZM181,594h-1l1,-1ZM173,597v-1h1v1ZM151,618h-1v-1h1ZM142,620l-1,-1l1,-1v1ZM223,590l1,-1ZM222,593v-1h1ZM175,557l-1,1v-1ZM172,560v1v-1h-1ZM146,603v-1h1v1ZM21,452v-2ZM21,447v1v-2ZM21,439v-1ZM21,442v-1ZM22,441h-1v-1l1,-1v1ZM21,431v-1ZM23,419h-1l1,-1v-1ZM24,412v-1l1,-1v1ZM25,410v-4l1,-1v-1v1v-2l1,-1v-3l1,-1v-3l1,-1v-1v3l-1,1v2l-1,3v1l-1,2v2l-1,1v1ZM26,406v1ZM27,399v-1ZM627,654v-1h1v1ZM611,663l-1,-1h1ZM807,674v-1ZM816,680v-1ZM807,675v-1ZM819,681h1v1h-1v-1l-1,1l-1,-1v-1h2ZM890,609h1v1h-2ZM890,611l-1,1v-1ZM891,616v-1ZM885,603h-1l1,-1h1v1ZM885,607v1l-1,-1ZM867,678l2,-2v1h-1ZM888,603v-1ZM867,682v1ZM867,681h-1v-1ZM889,681h-1ZM886,680l-1,-1h1ZM862,665v-1ZM856,669v1h-1v-1ZM855,670l-1,-1h1ZM848,664l-1,-1ZM844,668v-1ZM464,712h1l2,1l3,2l1,1h1l1,1h1v1l2,2h1v1h2l3,3h1l2,2h1l1,1l-1,1h-1l-2,-1h-2l-1,-1v-1h-2l-1,-1h-1l-2,-2h-2l-9,-9v-1h-1v-1ZM491,730v1l-1,-1ZM429,704h-1v-1l1,-1v1ZM495,721h1v1l-1,1h-1v-1l-1,-1h1l1,-1ZM483,715h-1h1v-2h1h-1v1ZM490,719h-1v-1h-2v-1l1,-1h-1v-1h2v2l1,1ZM594,678l-1,1v1h-1l-1,1v2l2,-2h1l-1,1l1,1h-8v1h-1l-1,1h-1v-2h-1v-1h2l1,-1h1l1,-1h2l1,-1h1l1,-1l1,1Z"/>
<path class="sl" d="M580,688v1h1l1,1v3l1,1h-3l-1,1h-5l-1,-1h-1l-1,-1v-1h1v-1h1h-1v-1h1l1,-1l2,-1h3ZM594,684v1v-2l1,-1l1,1l-1,1ZM594,685h-1l1,-1v-1v1ZM581,701l-1,1l-1,-1l-1,1h-1h1v-1h2ZM602,693h-1v-1h1ZM603,695v-1ZM608,692h-1ZM602,687v-1h1v1ZM605,702h-1h1h-1ZM595,700v1h-1v-1ZM571,686v1v-1h1ZM589,688v-1ZM588,694l-1,-1h1ZM584,691h-1l1,-1ZM595,681h-1l1,-1ZM595,678h-1ZM572,648h-1ZM149,318h-1h1v-1ZM189,264h-1l-1,-1v-2l1,1v1ZM187,276h-2v-1h2ZM185,278h-1h1v-1ZM187,277v-1ZM160,311h-1l1,-1v-1h1v1h-1ZM103,341v1l1,-1v1h-1ZM175,290v1v-2ZM122,329v-1ZM115,338v1v-2h1v1ZM115,338h-1l1,-1ZM103,351v1l-1,1v1h-1l-1,2l-1,1v1l-1,1v2h-2v1l-1,1h-1v1h-1v1h-1v-1h-1v-1h-1v-5l1,-3h1v-1h1l1,-1v-1h1v-1l1,-1v1l1,-1h4v1v-1h1v-1v1ZM120,334v-1ZM123,332l1,-1h1v1h-1h1l-1,1h-1l-1,-1ZM124,334h-1v-1h1ZM122,334v-1h1ZM750,109h2l1,1v1l1,1v-1l-1,-1h-1v-1h2v1l3,3v1h-2v-1h-1v-1h-1l-2,-1l-2,-2ZM758,114h1l1,1v1h2v1l2,1h1v1h1h-1l-1,-1h-1l-1,-1l-2,-1h-1v-1h-2v-1ZM785,126l2,1h4l2,2h1l2,2h1l1,1h1v1h3v1h1l1,1h1l1,2v-1v1h2v1h-1h1h-3l-1,-1h-2v-1h-1v-1l-1,-1v1h1h-1v1l-1,-1h-1v-1h-2v-1h-2v-1h-1h1h-1v-1h-2v-1h-1v1v-1h-1v-1h-1v1h1h-1v-1h-1v1v-1h-1v-1h-1v-1l1,1l-1,-1h-1h1h-1v1v-1h-1l-1,-1v-1l1,1ZM597,13h3v1h-2v-1h-2ZM602,14h3v1h2l1,1h-1v-1h-5ZM606,16h1v1h4v1h2l1,1h-1l-1,-1h-1l1,1h1h-1h2v1h1h-4l-1,-1h-1v-1h-2l-1,-1h-1v-1h1h-1h1h-1ZM620,18h1l-1,-1h1l1,1h3l1,1h2l1,1h-1l1,1h2v1h1h-4v-1h-1l-1,-1h-1h1h-1l1,1h-1l-1,-1h-1h1v1h1h-4v-1h-3v-1h1h-3v-1l-1,1v-1h-1h4l1,1h3l-1,-1h-3l-1,-1h-2l-1,-1h-1h2v1h4v1ZM646,27h-1h1h-2v-1h-1h3l1,1h2v1h1l-1,-1h-1h1h-1l-1,-1h-2l-1,-1h1l1,1h3l1,1h2l2,1h2v1h1h-1v-1h-1l-2,-1h-2l-1,-1h-2l-4,-1l-1,-1h-1h4v1h3v1h2l3,1h1l2,1h2v1h3l1,1h3v1h1h-1v-1l1,1h3l1,1h2v1h1h-1l-1,-1l1,1h-1v-1l1,1h2v1l-1,-1h-1h1v1h2l1,1l-1,-1h-1h3v1h2v1h1h-1h1h-4v-1h-1l1,1h1v1h1l1,1v2h-1v-1h-3l-2,-2h-2v1h-1l-1,-1h-3l-1,-1h-2v-2h2v-1h-5v1h-2l-2,-1h-2v-1l-1,-1h1h-2v1h-1v-1h-3l-1,-1h-1l-1,-1h-2l-2,-2h-1l-2,-2h1v1h3l1,1h1ZM630,24h-1h2v1v-1h-1h3l2,1h3l2,2h1l1,1l2,1l1,1h1l1,1h2v1h1h-1l1,1h1v1h-1v-1h-3l-1,-1h-4v-1h-1v1l-1,-1h-1l-1,-1h-1v-1h-2v-1h-3l-2,-2h-3l-2,-1h-1v-1h5Z"/>
<path class="sl" d="M564,4h2l1,1h6l1,1h6l1,1h5l1,1h1h-1h1h-1h4l1,1h4l1,1h5v1h1h-1v-1v1h4l1,1h4l1,1h-1l-1,-1l3,1h1h-1h1h-1h1l1,1l-2,-1h-1h1l1,1v-1v1l-1,-1h-1l-2,-1h-4l-1,-1h-1h1h-3l-1,-1h-2h2l1,1h2h-2l-1,-1h-3l-3,-1l2,1h2h-1h-2l-1,-1h-4v-1h-1h1v1v-1h-6l-1,-1h-1h1h-5l-1,-1h-4l-1,-1h-1h1h-1h1v1h5l1,1h-1l-1,-1h-1l2,1h1h-2l-1,-1h-1h1v1v-1h-7v-1h-5v-1l1,1h1h-1v-1h-8v-1v1h1h-1v-1h-7v-1h-1h1v1h1h-1h8l1,1h3Z"/>
<path class="sp" d="M564,4h2l1,1h6l1,1h4M579,6h1l1,1h1M584,7h1M587,8h4l1,1h4l1,1h5M603,11h3l1,1h3M550,3h8l1,1h3"/>
<path class="sl" d="M605,12h3v1h-1l-1,-1ZM628,17h1v1h1h-1h1h-2l-1,-1h-3l-1,-1h2v1h2ZM638,21h1h-1h4v1v-1v1h2l1,1h4v1l-1,-1h1v1h3v1h2l1,1h2l1,1h1h-2l-1,-1h-3v-1h-5v-1h-2v-1v1h2l-2,-1l1,1v-1h-3l-1,-1l1,1l-1,-1h-3v-1h-1ZM617,15h2v1h4v1h4l1,1h1v1v-1h-4v-1h-1l1,1h-1l-1,-1h-1h1h-2l-1,-1h1h-4v-1h-1h1h-1ZM593,11h6l1,1h4l1,1h1h-2l-1,-1h-2l1,1h-1l-1,-1h-3l-1,-1h-1h1l1,1h-1l-1,-1h-3ZM576,7h7v1h1h-1h1l-1,-1h-1h1l1,1v-1v1v-1v1h6l1,1h4v1v-1h-1h1v1h4l1,1v-1h-1l1,1h1h-2l-1,-1h-5v-1h-1v1l-1,-1h-5v-1h-5l-1,-1h-5ZM624,16h3l1,1h-1h3l1,1h-1v-1h-1h1v1v-1h-4v-1h-4v-1h-4l-1,-1v1h1h-2v-1h-1h1h-4l-1,-1h1v1v-1h1v1h1h-1v-1h1v1h4v1h2l-1,-1h-1h1l1,1h3Z"/>
<path class="sp" d="M625,16h2M616,14h3l1,1h3l1,1"/>
<path class="sl" d="M599,11h3l1,1h1h-3l-1,-1h-2ZM635,19h2l1,1h2l1,1h3l1,1h1l1,1h3l1,1h2v1v-1v1l-1,-1h-1l-2,-1h-3v-1h-2l-1,-1h-4v-1l1,1v-1h-4v-1ZM674,32h-1h3v1h2l1,1h1h-1h2v1h1h-2v-1v1l-1,-1h-1l-1,-1h-2v-1h-1l1,1v-1h-3v-1l1,1ZM664,28l-1,-1h-2l-2,-1h-1h1h-1h2l1,1h2ZM658,25h-3l-1,-1h-2l-1,-1h-3v-1h-2l-1,-1h-3l-1,-1h-2l-2,-1h-2l-1,-1h1l1,1h1l1,1h4v1h2l1,1h3l1,1h2l1,1h2l1,1h2l1,1ZM643,21h-1v-1ZM640,20l-2,-1l1,1Z"/>
<path class="sp" d="M658,26h2l1,1h2l1,1M649,23h2l1,1h2l1,1h2l1,1M642,20l1,1M638,19l1,1h1"/>
<path class="sl" d="M608,12h1h-2ZM611,15h-2l-1,-1h-1h3v1ZM587,9h1h-2ZM647,25h-1v-1h-4v-1h-2l-1,-1h1l1,1h2l2,1h1ZM621,17h1h-1h1h-3v-1h-1h1l1,1ZM616,16h1h-2ZM619,20v1h-1v-1h-2v-1h-1h1l1,1h1ZM604,15h-3v-1v1h2ZM753,106h-1ZM768,120h-1l-1,-1l1,1ZM758,109v1l-1,-1v1v-1h-1v-1l1,1ZM763,113l-1,-1h-2l-1,-1h1l1,1h1ZM752,105v-1h-1v-1l1,1ZM768,114l2,2h1v1h1v1l-1,-1h-1v-1l-1,-1v1l-1,-1h-1v-1h-1v-1h-1v-1l1,1h1ZM796,133v1l-1,-1ZM799,131v1l-1,-1h-1v-1l1,1ZM793,132h-1l-1,-1h1ZM793,129h1l-2,-2h-1h1l1,1ZM770,116v1l-2,-2h-1l2,1ZM779,122h-1l-1,-1h1v1ZM772,117h-1v-1l-1,-1h-1h1l1,1h1ZM766,114h-1v-1h-1l1,1ZM765,113h-1v-1ZM805,136h1h-1l-1,-1h1ZM805,135h-1l-1,-1l1,1ZM794,129v-1h-1h1ZM622,16h-1v-1h-1l1,1ZM646,23l-1,-1h-1h1ZM633,19h1h-2ZM639,21h-1v-1h-1h1ZM672,31h1ZM674,31h-1ZM733,58h1ZM616,15h-1ZM603,13h-1v-1ZM607,13h-1ZM614,14h1h-1v-1h-1h1ZM625,17h1h-2v-1h-1h1v1ZM633,19h-1v-1v1ZM616,21l-1,-1h-1h2ZM612,17h-1ZM629,19h-3v-1l1,1h1ZM681,35h-1ZM679,34l1,1h-1v-1h-1ZM667,30h-1ZM674,32h1h-1h1h-2v-1v1ZM676,34v-1h-1h1ZM683,36h-1ZM684,38h-1v-1h-1h2ZM691,42h1h-1l-1,-1h-1h1v1ZM686,40h1v1ZM694,43h1v1ZM686,40h-1ZM638,42h-1ZM53,419h1ZM54,424l-1,1v-1ZM37,419v1ZM36,428v-1ZM38,415v-1l1,-1v-1v2h-1ZM40,411v-1ZM40,413l-1,1v-2h1ZM41,405v1l-1,1v-2l1,-1ZM39,409v-1ZM37,374v1v-1l1,-1v-1v2ZM46,374v-2ZM43,351v-1ZM46,341l-1,1v-1l1,-1ZM45,343v3l-1,-1h1v-1ZM38,419l1,-1ZM38,413v-1ZM39,407v1ZM41,401v1v-2ZM38,375v1v-2ZM45,340l-1,1v-1l1,-1ZM99,482l1,1v4h-1v-4ZM99,482h-1v1l-1,1v2h1v1h-1v2h-1v1v-2l-1,-1v-2h-1v-1h2v-1h1v-1h1l1,-1ZM48,320v1l1,-4v2h-1ZM49,319v-1l1,-1v1ZM47,321l1,-2v-3h1v-1v1l-2,4ZM48,324v-1ZM47,326l1,-1v-1v1ZM50,314v-1ZM290,640l-1,1v2l1,1h1v1l1,1v2l1,2v1l1,2v3l1,1l1,2v1l1,1h2v-1h1l1,-1l1,2l1,1l4,2v1l1,1v1l1,1v2l1,2v1l1,2v4h1l1,1l1,2h1v1l2,3v7l2,2h1v2l1,2h1l2,2h2l1,1h3v1l3,3h2l2,2h2l1,2h1l1,1h-2v1l3,3l2,1v2l2,2v1l2,4v1l1,1l1,-1l1,1v1v-3h1l3,3h1v-1l-1,-1h1v1l1,1l1,3v2l1,2l3,3l2,1h2l2,2l1,2l2,2h1l1,1v2l1,1h1l1,1l1,2v1l1,1h1v3l1,5v2l1,1l1,3l1,1v1l1,1l1,2v3l-1,1v8l-1,3v1l1,1v2l-1,1v4l-2,1l1,2l-1,1v1h-1v1h-1h1l-2,1h-1v2h-1v2l-1,1v2h-1v1h1l-2,2v6h-1l-1,2v10l1,1v2h-2v1h-1l-1,1l-2,-1l-5,1h-2l-5,5h-4l1,1l1,-1v2l-1,-1h-2l-2,-2h-1l-1,-1v-1h-1v-1l-2,2h-1l-1,-1h2v-1l-2,-2l-2,1l-1,1h2v1h-2l-3,3l-2,-1h-2l-1,-1l-2,-1h-3l-2,-1h-1v1h-1v-1l-4,-2h-2l-2,-1l-4,-4h-1l-1,-1v-3l-4,-4v-1l-4,-2v-1v1v-1h1v1h1l-1,-1v-1h-1v1h-2l-1,1h-1l-1,-1v-5l-1,-1l-2,-1v-1l-1,-1v1l-1,1l1,1v3h-3v1h-2v-3h2v-2l-1,-1v-4l1,-1v-1l-1,-1v-2l-1,-2v-1h-1v2l-1,1v4h-2v1h-1l-1,1l-1,3v1h-1l2,2h-2l-2,-1v-1h-2v-1v1v-1h1v1h1l-1,-2l-1,-1h-1l-1,-2l-4,-4v-1h-1l-2,-1l-3,-3h1v-1l-4,-2h-1v-1h-2l-4,-2l-2,1h-1l-4,-3l-2,-1h-14l-6,3l-1,1h-3l-4,-1h-1l-1,1v1h-1l-2,2h-2v1h-1l1,2v1l-1,2h-1v1l-1,-1h-6v-1h-10v1h-1l1,2h-3v2l-2,2h-1l-2,-1h-3l-2,-1l-1,-1l-3,-2l-2,-2h-1v1l-1,-1v-1h-1l-2,-4h1l1,1l1,-1l-1,-1v-1l-2,-4v-1l-1,-1l-5,-8l-3,-3l-3,-5l-1,-1l-2,-4v-1l-1,-2l-6,-6l-1,-2l-1,-1l-2,-5l-3,-4l-5,-5h1v1v-1l2,2v1l1,1v-2l-2,-2l-1,-2l-1,-1v-1l2,2v2h1v-1l1,2v1h1v-2l-1,-1v-1l-2,-2l-3,-5l-2,-2v-1l-1,-1l-1,-2v-6l-1,-1v-2l-1,-1v-1l-1,-1v-2l-1,-3l1,-1l1,3v1l1,1l1,-1v-5h1l2,-2v-1l1,-1v-1l2,-2h3l1,1l2,-1l2,-2h2l1,-2h6l1,-1l2,-1h1l1,-1v-1l1,-2v-5l2,-2v-2h-1v-2l-1,-1v-4l1,-1v-1h1v-2l1,-1l2,4l1,1l1,2l1,1v1v-4l1,1v-2h-1v-1l-2,-2h1v-1l-1,-1v-1h1l1,2v-1h1l1,1h3l1,1l-1,-1h-2v-2h1v-2l-1,1v-1l-1,-1v-2h1v-2h1l1,1v1h1v-1h-1l-1,-1v-1h1v-1l1,1h1v-1h-1v-1h-1v-1l1,-1h1v-3l1,1v1h1v1h1v-5l1,1v1v-1h1l1,1l1,-1v-2h1l1,1h1l7,7v5h1v-3h1v-1h1l3,1l1,1v-1h1l2,2v-2h1h-1v-1l-1,-1h1h-1l-2,-2l1,-1v-2h1v-3l1,-1h1v-1h1l-1,-2v-1l1,-1v-2h1v-2h1v1l1,1v-2h1v-1h1v-1l1,1l2,1l2,-1v1h1l1,-1l1,1v-1h2l-1,-1v-3l-1,-2h-3l-2,-2l1,-1v1h1v1h1v-1h1l1,1l1,2l1,-1h2v2h1l1,1h1l1,1h2l2,1h1v1h2l1,-1l2,2l2,1l2,-2h1v-1l1,-1v2l-1,1v1h1v-1h1v1l1,1v1h1l1,-1l-1,-1v-1l1,-1h1l2,2h1v1l-2,4v3l-1,1v-1h-1l-2,1v3l1,1v3l-1,1l-1,2l-1,1v2l1,1l4,2l2,2v1l1,1h2v1l1,1h3l1,1l2,1l4,4l4,2v-1l2,1l2,2h1v1l2,2l4,2h1l1,1l2,-1l3,-3v-2l1,-3l1,-1v-10l1,-2l-1,-1l-1,-3v-4l-1,-1v-3l1,-1v-1l-1,-3l1,-1h2v-1h-1v-1h-1v-4l1,-1v1v-2l1,-2v-6h1l1,-1v-1h1v2l2,2v2l1,1v3h1v1h1Z"/>
<path class="sl" d="M379,753h-1v-4l1,-1v-3h1v3l-1,3v1ZM267,677l-1,1h-2v-1l1,-1h2l1,1ZM243,653v1h1v-1l1,1h-1v2l1,1h-4v-3l2,-2ZM197,633h1v1h-3v-4h1v1l1,1ZM198,631h1l1,-1h2v-1l2,2v2h-1v1l-2,1l-2,-1l-1,-1l-1,-2l-1,-1v-1l1,1ZM130,740l-2,-2l-1,-2l2,2v1h1ZM291,820h2l1,1h-3v1h-5l-1,-1v-1l2,-1h3ZM346,839l-1,1v-1h-1h1ZM345,840v1v-1h-1ZM343,710h-1v-1ZM342,709h-1v-1h1ZM362,735h1v2l-2,-2ZM356,726v-1ZM351,725v-1ZM384,765v2h-1v-2ZM383,764v1v-3ZM282,629l-1,1v-2ZM282,625l-1,1v-1ZM280,625v-1h1ZM319,693l1,1v1l-2,-2ZM240,633l-1,1v-1h1v-2h1l-1,-1h1v2ZM238,635h-1h1l1,-1ZM248,670h-1v-2l1,1ZM246,668v-1ZM267,682l-1,-1h2ZM240,653h-1v-1h1ZM211,631v-2h-1l1,-1v2ZM167,655v-1ZM165,661v1l-1,-1v-1v1ZM126,700v1h-1v-2ZM348,854l1,1v-1h1v1h2l1,1h1l2,1h4v-1h4v-1l2,1v-1h1l1,1h1v2l1,1v2l1,1v1h-1v-1v5l1,1v1l-1,1l-1,-1v-1h1h-1l-1,-1v2l-2,-2h1v3l-2,-1v1h1v2h-1l-1,-1h-4v-1h1h-2v-1l-2,-1h-1v-1l-2,-2h-1v-2l2,2v-1l-1,-1h-1l-6,-6v-1h-1v-2h1ZM340,850l-1,-1v-2h1v1l1,1v1ZM364,849l2,1h1v2h-1l-3,-3ZM368,871h-1v-1h1ZM371,867l-1,-1h1ZM368,870l-1,-1h1ZM346,853v-1ZM368,852v1h1h-3v-1h1ZM367,853v1ZM451,930v1v-2ZM62,609v1ZM36,618v-1ZM495,778v1h-1v-1ZM307,961h-1h2l1,1h2l1,1v-1v1h2l-1,-1h-1h4l1,1h2l4,1l2,1h1l1,1h3l2,1l-3,-3h3v1h2l3,1l1,1h2l2,1h1l-1,1h8l1,1h1v-1h2v1h-1h4l1,-1h4l1,1v-1h4l4,2h4v-2h8l2,1h2v1h1v-1h4l2,1h6l2,1h6l2,1h8l1,1h2v2h3v-1h3l1,1h2l1,1h1l1,1h11l1,1h8v-1h1l2,1h2l1,1h5l2,1v-1h2l1,1h5v1h1l1,1h2l1,1h2l1,1l-1,-1v-1h1l2,1h13l1,1h2l3,1h3v1h-2l-1,1h1h-1l-1,1h-4l-1,1v-1l-1,1h-4l-1,-1h-1v1h1v1h1h-5l-1,1h-1l-2,1h5l-1,1h1v1h2l1,1h4l1,1h1h-11v1h1h-1h1h1l1,1h8l1,1h1h-1h1h-20l-1,-1h-16l-1,-1h-10l-1,-1h-8l-1,-1h-7l-1,-1h-7l-1,-1h-5l-1,-1h-5l-1,-1h-4l-1,-1h-4l-1,-1h-4l-1,-1h-4l-1,-1h-3l-1,-1h-4l-1,-1h-3l-1,-1h-3l-1,-1h-3l-1,-1h-3l-1,-1h-2l-1,-1h-3l-1,-1h-2l-1,-1h-2l-1,-1h-3l-1,-1h-2l-1,-1h-2l-1,-1h-2l-1,-1h-2l-1,-1h-2l-1,-1h-2l-1,-1h-2l-1,-1h-2l-1,-1h-1l-1,-1h-1l-1,-1h-3l-1,-1h-1l-1,-1h-1l-1,-1h-2l-1,-1h-1l-1,-1h-2ZM522,1000l1,-1h1h-1h14l2,-1h6l4,-1h6l1,-1h3v-1h1h-1l-1,1h-1l-1,-1h1v-1h4v-1h1v1h1l1,-1h6v1h1v-1h7l1,-1h3v-1h-1l-2,1h-1l1,-1h6l2,-1h5l1,-1h5l2,-1h6l1,-1h5v-1h6l1,-1h4l3,-1h1l1,-1l-1,1h-3l-1,1h-2l-1,1h-4l-1,1h-4l-1,1h-2l-1,1h-4l-1,1h-4l-1,1h-5l-1,1h-4l-1,1h-6l-1,1h-4l-1,1h-7l-1,1h-6l-1,1h-8l-1,1h-11l-1,1h-16Z"/>
<path class="sp" d="M518,1000h-39l-1,-1h-16l-1,-1h-10l-1,-1h-8l-1,-1h-7l-1,-1h-7l-1,-1h-5l-1,-1h-5l-1,-1h-4l-1,-1h-4l-1,-1h-4l-1,-1h-4l-1,-1h-3l-1,-1h-4l-1,-1h-3l-1,-1h-3l-1,-1h-3l-1,-1h-3l-1,-1h-2l-1,-1h-3l-1,-1h-2l-1,-1h-2l-1,-1h-3l-1,-1h-2l-1,-1h-2l-1,-1h-2l-1,-1h-2l-1,-1h-2l-1,-1h-2l-1,-1h-2l-1,-1h-2l-1,-1h-1l-1,-1h-1l-1,-1h-3l-1,-1h-1l-1,-1h-1l-1,-1h-2l-1,-1h-1l-1,-1h-2l-1,-1M628,983l-1,1h-3l-1,1h-2l-1,1h-4l-1,1h-4l-1,1h-2l-1,1h-4l-1,1h-4l-1,1h-5l-1,1h-4l-1,1h-6l-1,1h-4l-1,1h-7l-1,1h-6l-1,1h-8l-1,1h-11l-1,1h-16"/>
<path class="sl" d="M632,982h-1v1h-4v1h-1h1v-1h3l1,-1ZM630,982v1h-3v1h-1v-1h1h-1h2l1,-1ZM547,997h-5v-1h6v1ZM497,995h4v1h-6l1,-1ZM498,996h-1ZM310,961h-1v-1h-1h1ZM630,983h1l1,-1h1h-2ZM619,985h1ZM529,999h-1h1h-1h2ZM538,998h-1ZM489,992v-1h1v1ZM488,993h-1ZM503,990h-1v-1h1ZM487,976h1ZM482,974v1h-1v-1ZM479,973v1l-1,-1ZM307,961h1ZM313,962h-1ZM313,963l-1,-1ZM311,960v1v-1h-2l-1,-1l1,1h1ZM301,959l-1,-1h1ZM615,986h-1ZM615,986h1l1,-1h-1v1l1,-1l-1,1ZM589,990h-1ZM579,992h1ZM576,992h-1h2ZM577,992h1h-2ZM574,993h-1ZM575,992h-1h2ZM584,991h-1ZM581,992h-1ZM572,993h-1ZM553,996h-1v1v-1h-1h1ZM575,993h-1v-1h1ZM591,614l-1,1v-1Z"/>
<path class="sh" d="M508,491l1,-1v-1v1ZM502,478h-1ZM525,480h1l1,1h-2ZM521,480h1h-1v-1ZM485,445h-1h1v-1Z"/>
<path class="sw" d="M258,101l-1,1v1h-1l-2,2h-1l-2,2h-1l-1,1v1h-2l-1,1v1h-1v-1h1h-1l-2,1l-1,1h1v1h-2l-1,1h-1l-1,1h-1l-1,1h-2l-1,1h-1l-1,1h-1v-1l-1,1h-1v1l-1,1h-2l-1,1h-3v1h-1v-1h-1v-1h4v-1h2l1,-1h1l2,-1l1,-1h2v-1h2v-1h1v-1h2l1,-1h1l1,-1l2,-1h1l1,-1h1l1,-1h1v-1h1l1,-1h1v-1h1l1,-1h1v-1h2l1,-1v-1h1l1,-1h1v1ZM239,113l1,-1h-1l-1,1h-2v1h-1h2l1,-1ZM815,112h1v1v-1h-1h1v1h1v1h1h-1v-1h-1l-4,-4h-1l1,1v-1h-1l-1,-1v-1h-1h1h-1l1,1h1v1v-1h-1l-2,-2h-1v-1v1h1h-1v-1h-1h1v1h1h-1v-1h-1l-1,-1h-1v-1l-1,-1h-2v-1h-1v-1v1l-2,-2h-1v-1h-1v-1h-1l-1,-1l1,1v-1v1h1h-1v-1h-2v-1l-2,-2h-1l1,1h1l1,1v1h1l-1,-1l2,2h1v1h1l1,1h1v1h1v1h2v1l2,1l1,1h1v1h1v1h1v1h2v1h1v1h1v1h1l1,1ZM805,104l-1,-1ZM813,110h-1h1l1,1ZM726,59h1v1h1h-2v1h1h-1l1,-1h1v1h-1h1v1h1h-1h1l1,1h1v1h1l2,2v1h1h-1v-1v1h1v1h2v1h-1h1h-1v1h-2v-1h-2l-1,-1h2v1v-1h-1l-1,-1l1,1v-1h-2v-1h-1h1v-1h-2v-1h-2l-1,-1h-2v-1h-1h2v1h4v1h2l-1,-1v-1h-2v-1h-1l-1,-1v-1ZM730,63v1h1v1h2v1v-1h-1v-1h-1ZM692,48h1v1h1l1,1h-1h2l1,1h-2l1,1h2v1h1v2h1h-1v-1h-1l-2,-2h-1v1h1l1,1h1v1h-3v-1h-1h1h-1v-1h-1l-1,-1h-1l-1,-1h1v-1h-3v1h-1v1v-1h-1l1,1h-1v-1h-1v-2h1v-1h-1v-1h3v1l1,1h3l-2,-2h1v1ZM799,100h1v1v-1h-1h1v1l-1,-1h-1v-1h-1l-1,-1h-1v-1h-1v-1h-1l-1,-1l1,1h1v1h1h-1v-1h-1h1v1h1v1h2v1h1v1h1h-1v-1v1ZM871,179v1l1,1l-1,-1h-1v-1h-1v-1h-1v-1h-1v-1h-1v-1h1v1h1v1l1,1v-1h-1v-1h1v2h1v1ZM871,180v-1h-1h1ZM762,77h1h-1h2v1h1l1,1h1v1v-1h-2v-1h-2v-1h-1v-1h-1h1h-1h1ZM754,75v1h1v1h1v1h1v1h1l-1,-1v1v-1h-1l-2,-2h-1l-1,-1v-1h-1v-1l1,1v-1v1v-1h1l1,1v-1h1v1h-1ZM132,163h-1v1l-1,1v-1l1,-1v-1h1ZM766,78l1,1h1v1h1l1,1h1v1h1l1,1h1v1h1v1h1l1,1h-1h1h-1v-1h-1l-1,-1h1v1v-1h-1l-1,-1h-1v-1h-2v-1h-1v-1h-1l-1,-1h-1l-1,-1v-1h-1l1,1ZM653,86v1h-1v1h-1l-3,1l-1,-1l2,-1h1l1,-1h1ZM654,96v1l-1,-1h-3v-1l2,1ZM868,197v-1h-1v-1ZM167,133h-1v1h-1l2,-2v-1h1v-1h1l3,-3h1l1,-1h1v-1h1v-1l1,-1l-2,2v1h-2v1h-1l-1,1v1l-1,1h-1l-2,2ZM725,55h-1v-1h-1h1v1v-1h-1h1h-1h1v1h2v1h2v1h1h-1v-1v1h1h-1l-1,-1h-2ZM716,49h1h-1h1v1h1h-1h1h-1ZM905,235v1h1h-1l-1,-1v-1h-1h1ZM717,60v1h-2v-1h-2v-1l1,1h2ZM179,250l-2,2h-1v-1h1v-1h-1v-1h1v2h1v-2l1,-1h1v-2h1l-1,1l1,1v1l-2,2ZM211,120l-4,4h-1v1h-1v-1h1l3,-3h1v-1h1v-1h1Z"/>
<path class="sw" d="M190,123v-1h2v-1h1v1h-1v1h-1v1h-1l-1,1h-1v-1h1v-1ZM293,171l-4,4v-1l-1,-1l1,-1v-1l2,-2h1l1,1ZM61,411v-1h-1v-3h-1v-4h1v5h1v2ZM129,214v1h-1v1h-1v-1h-1v-1l1,-1v-1v1l1,-1v-1h2l-1,1v1ZM314,36h1ZM766,81h1l1,1h1v1h-1h1h-1v-1h-1h1h-1v-1ZM727,56v-1h-1h1v1h1ZM748,68l-1,-1h-1v-1h-1h1v1h1l1,1h1l1,1h1h-1ZM212,92h1h-1h1v-1h1h-1v1h-1v1h-1v-1ZM152,145v-1l2,-2h1v-1h1v-1v1h-1v1h-1v1l-1,1ZM241,144v-1h1v-1l2,-1l1,-1h1l1,-1v1h-1v1h1h-2l-1,1l-2,1ZM182,267h-2l-1,1v-1l-1,-1l2,-2v-1h1v1h1h-1v2ZM652,97v1h1l-1,1v-1h-1h1ZM605,57v1h-1v-1h-1h1ZM740,72l1,1h1h-2ZM78,254l2,-2h1l-2,2ZM749,70l1,1h1h-1h1h-1l-1,-1h-1h1h-1v-1h-1h1v1ZM475,49h-2v-1h1v1ZM313,36h1ZM331,30v-1h1ZM330,30h1l1,-1l-1,1ZM564,4h-1ZM132,172h-1h1v-1h1v-1v1ZM156,280h-1v1l-1,1v-1l-1,-1v-2h1v-1l1,-1v-1h1v1h-1v1h-1v2h1v1v-1h1ZM158,273h-1v-1h1ZM157,273l-1,1l-1,-1h1l1,-1ZM149,270h1v-1l1,1h-1v1h-1ZM82,244v1h-1l1,-1h-1l1,-1h1v1ZM177,135l-1,1h-1v1h-1l-1,1v-1h1v-1h2v-1l1,-1v1h-1v1ZM550,845h-2v-1h2ZM853,156v1v-1h-1h1h-1v-1ZM603,41h-2ZM827,136h-1v-1v1h1l1,1v1v-1h-1ZM896,216v-1h-1v-1h-1v-1v1h-1v1v-2l-1,-1v-1v1l1,1h1v1h1v1h1ZM756,79h1v1h1h-1v-1h-2l-1,-1h2ZM371,26h1l1,-1h1l1,-1h-1h3l1,-1h2v-1h1v1h-3v1h4l1,-1h1l-1,1h-6v1h-1v-1h1h-1l-1,1h-2v1h-1ZM449,38l-1,1v-1ZM111,203h-1v-1h1ZM68,358h-1v-1h1h-1v1ZM182,253h-1l-1,1v-2h2v-1h-1l1,-1v2ZM327,36v-1h3v-1h1h-1v1h-2v1ZM615,85l1,1h-2v-1ZM866,172l1,1l-2,-2ZM876,184v1v-1h-1v-1h-1h1v1ZM677,49v-1h1v1h1h-1ZM732,74h-1v-1l-1,-1h-1h1l1,1h1ZM158,272v-1h1v1ZM238,149l1,-1h1l-1,1ZM75,243v-2h1l-1,1ZM76,247v1l-1,1v1h-1l3,-3v-1v1ZM199,103h-1h1v-1h1h-1ZM201,99h1v-1h1h-1ZM217,90h-1ZM513,874l-1,1v1v-2ZM433,36h-1ZM72,267l-1,1v-1h1v-1l1,-1h-1h1v-1v2h-1h1v1ZM224,83l-1,1ZM471,46h-1v-1h1ZM474,48h1ZM174,263v-1h1v1ZM144,272v1h-1v-1ZM170,262h-2l-1,-1h1v-1v1h2ZM851,177h1v1l-1,-1v-1ZM865,190v1l-2,-2v-1v1l1,1ZM152,270h-1v1v-1ZM152,267h1v-1v1ZM179,239h-1v-1h1ZM151,269h-1h1v-1h1v1h-1v1ZM148,272v1h-1v-1l1,-1ZM147,273v-1v1h-1v-1h1h-1h1ZM879,210v1ZM673,41h-1v-1v1h2l1,1h1h-2v-1ZM675,47h-2v-1h-1h1l1,1ZM676,47h1v1h-1ZM702,54h-1v-1h-1h2v1h1ZM794,95h-1l-1,-1l1,1Z"/>
<path class="sr" d="M792,94l1,1h1"/>
<path class="sw" d="M785,92v1v-1v1h1l1,1h-1v-1h-1v-1h-1ZM789,92h-1v-1h-1h1Z"/>
<path class="sr" d="M787,91h1l1,1"/>
<path class="sw" d="M103,217v1ZM847,167v1v-1h-1h2ZM781,86v1h1v1h1l-1,-1h-1ZM592,63v1h-1ZM612,82h-1v-1h1ZM618,83h-1ZM637,90h1h-1l-1,-1ZM637,86h-2v1h-1l-1,-1h3ZM632,85h1ZM637,88h-1l1,1h1h-2l-1,-1h1ZM184,130v1h-1v-2h1v1h1ZM75,248l-1,1v1v-2l1,-1ZM760,95v1h-1v1h2l1,1h1v1h1l1,1l-1,-1h-1l-2,-2h-2v-1h-2v-1h-1l-1,-1l-3,-1l-1,-1h1v1h1l1,1h1l1,1h1l1,1v-1h1v1v-1h2ZM777,84h1v1v-1h-1l-1,-1ZM836,135v-1h-1v-1h-1l1,1v1v-1v1v-1v1l1,1v1v-1h-1v-1v1v-1v1v-2h-1h1h-1v-1h-1v-1h1v1h1v1h1ZM837,133v-1h-1v-1h-1v-1h-1v1v-1v1v-1h-1h1h-1h1l1,1h1h-1v-1v1h1v1h1v1v-1h1v1ZM717,81l-4,-2h-1l-1,-1h-1l-1,-1l1,1h1l1,1h3v1h1ZM812,130v-1h-1l-1,-1h-1v-1l2,2h1ZM822,136l1,1l-2,-2v1v-1ZM818,140l-1,-1h-1l-1,-1h1l1,1h1ZM756,74l1,1v-1h-1l-1,-1h1ZM664,72v1l-1,-1h-1h1ZM730,57l-1,-1l1,1l-1,-1h-1v-1h-1h1v1h2v1h1h-1h1ZM935,254v1v-2ZM969,329v1v-2ZM194,669v1h-1v4h-1v-1h-1v-3h1h-1v-1h1v1h1v-1ZM113,227h-1v-1h1v-1v1ZM112,225v1h-1v-1ZM70,248v-1h1v-1v1ZM71,247l-1,1ZM154,139l2,-2h1v-1l1,-1h1h-1v1v-1v1h-1v1l-1,1v-1h1l-1,1v1v-1h1v-1h1h-1h1l-1,1h-1v1h-1v1v-2h1v-1h1v-1v1h-1h1h-1l-2,2v1h-1l-1,1h-1v1l-1,1h-1v1l-1,1h-1h1l5,-5Z"/>
<path class="sr" d="M154,139l1,-1M150,143l4,-4"/>
<path class="sw" d="M818,115h1v1h1h-1v-1h-1v-1h-1l-2,-2h-1v-1h-1h1h-1v-1h-1l-1,-1h-1v-1v1h1l-1,-1h-1h1h-1h1l2,2v-1h-1l-1,-1l1,1h1v1h1v1h1v1h1l2,2h1ZM810,109h1h-1v-1h-1l-1,-1h-1h1l1,1h1h-1v-1l-2,-1l-1,-1h-1v-1h-1l-1,-1h-1v-1v1h1v1v-1h-1l-1,-1h1v1h1h-1l-1,-1h-1v-1l1,1h1l2,2h1l3,3h1v1v-1l1,1ZM167,133h-1v1h-1l2,-2v-1h1v-1h1l3,-3h1l1,-1h1v-1h1v-1l1,-1l-2,2v1h-2v1h-1l-1,1v1l-1,1h-1l-2,2ZM774,87v1v-1h-2v-1h-1h1l2,2h2v1h1v1h2v1h1v1h1h-1l-1,-1h-1v-1h-2v-1l1,1h1v1v-1h-1v-1h-1l-1,-1h-1ZM963,317v1ZM896,216v-1h-1v-1h-1v-1v1h-1v1v-2l-1,-1v-1v1l1,1h1v1h1v1h1ZM890,199v1h1v1l1,1v1l1,1v2l1,1l-1,-1v-1l-1,-1v-1l-1,-1v-1l-1,-1ZM768,79h2v1h1v1h1l2,2h1h-1v-1h-2v-1v1v-1h-1h1l1,1l-1,-1h-1v-1h-1l-1,-1h-1v-1h-1h1ZM32,494h-1v-3l-1,-1v-1h1v2l1,1v1ZM510,877l-1,-1v-1h1v-1v2ZM508,878v-1ZM836,135v-1h-1v-1h-1l1,1v1v-1v1v-1v1l1,1v1v-1h-1v-1v1v-1v1v-2h-1h1h-1v-1h-1v-1h1v1h1v1h1ZM853,147h1v1l1,1h1v1h1v1v-1h-1v-1h-1v-1h-1h1h-1v-1h-1v-1h-1v-1h-1v-1h-1v-1h-1h1h-1l-6,-6v1h1l4,4h1v1h1v1h1v1h1v1h1ZM717,81l-4,-2h-1l-1,-1h-1l-1,-1l1,1h1l1,1h3v1h1ZM812,130v-1h-1l-1,-1h-1v-1l2,2h1ZM231,109v1h-1l-2,1l-1,1l3,-3h1v-1l1,-1h1v-1h1l1,-1h1l1,-1v-1l1,-1h1l3,-3h1v-1h1v-1h1l1,-1h-3v1h-1l-1,1h1h-1v1h-1v1h-1l-1,1h-1h1l1,-1h1v-1h1h-1v-1h1v-1h1v-1h1l1,-1h1h-1v1v-1h2v1l1,-1l-6,6h-1l-1,1h-1v1h-1v1l-1,1h-1l-1,1h1v-1l-1,1h-1v1l-1,1ZM322,40h-1ZM324,39h-2l1,-1v1ZM327,36h-1h3v1l-1,-1h1h-1ZM717,54h1v1h-1v-1v1h-1l1,-1h-1l-1,-1h-1h1l1,1ZM717,54h2v1h1h-1l-1,-1ZM863,156v1h1v1h1h-1v-1h-1v-1h-1v-1h-1v-1h-1v-1v1h1v1h1ZM946,274l1,1v1v-1l-1,-1v-1h-1v-1v1h1ZM783,93h-1v-1h-1v-1h-2v-1h-1l2,1l1,1h1v1ZM746,67l1,1h-1v-1h-2v-1h-1l-1,-1h1v1h1h-1h1h-1v-1v1h1v1h1v-1h-1l1,1ZM710,47h2v1v-1h-1h1h-2v-1ZM793,114h1v1l-1,-1h-1v-1h-1l-1,-1l-2,-1l1,1l2,1h1ZM902,226h-1v-1l2,2ZM853,185l1,1h-1ZM703,51h-1v-1h-1h1v1h4l1,1h1h-1v-1h-3ZM844,174h1l1,1h-1v-1ZM847,168h-1ZM306,68h1v-1h1h-1v-1h1v-1h1v-1h-1h2v-1h1h-1v2h-1v1h-1h1l1,-1h1v-1v1h-1v1l1,-1h1v1h-2v1h1v-1l1,-1h1h-1h1h-1v2h-2l-1,1v-1h-1h1l1,-1h1h-2l-2,2h-1v1h-1h1h-2v1h-1l-1,1v-1h-3l-1,1h-1h1v-1h2l1,-1l1,1h2v-1h1v-1h-1h1ZM357,121l-1,1v-1Z"/>
<path class="sw" d="M522,68l1,-1v1h-2v-1v1ZM280,240h1l1,1h-1l-2,1v1h-1l2,-2ZM693,74h1l1,1h1h-1l-1,-1h-1l-1,-1h1ZM653,92h-1v1h1h-1l-1,-1h-1h2ZM616,82h-1ZM649,84l1,-1h1l-2,2ZM660,83h1l1,1h1h-2v-1ZM625,80h-1ZM618,82l1,1h-1v-1h-1ZM610,80h1l-1,-1h-1h1ZM607,74v1v-1h1ZM187,123v1ZM92,232l-1,1v-1v1l1,-1v-1h1ZM91,232l-1,1v1v-1ZM76,235l1,-1v-1v1ZM86,244l1,-1ZM80,242h1l-1,1ZM85,222v1h-1v1ZM712,52v-1ZM713,52h-1ZM713,52h-1h1h-1ZM712,52h-1h2v1ZM673,33h-1ZM692,39l1,1h1h-1ZM784,89v-1h-1ZM790,94h-1h1v1h1h-1ZM791,98l-1,-1v-1h-1h1v1h1v1h1l1,1l-1,-1ZM710,53h-1v-1h-1h1ZM779,90h1ZM781,91l-1,-1ZM730,58h1v1l-1,-1h-1v-1ZM739,63h-1l-1,-1h1v1ZM760,76v-1v1h1ZM172,727h-1l-1,-1v-2h1l1,1v1ZM203,721h-1l-1,-1v-1h1l2,-2h2l-1,1v1h1v1l-1,1v1h-1ZM271,796v-3l-2,-2h-1v-1h-1v-1h-1v-1l-1,-1h1l1,1h2l1,1v1h1v1l2,2v3l-1,-1ZM282,792v2l-1,-1v-3l-2,-2v-2h-1v-1h-1v-1l-2,-2v-1v1h1l1,1h1l2,2l1,2h1v1l1,1v1ZM172,769v1v-1l-1,-1v-1h-1l1,1v2l-1,-1v-2h-1v1l-1,-1v-2h1l1,1v-1h1l1,1h-1v-1l-1,1l1,2h1ZM294,788v1h-1l-2,-2v-1l1,-1v-1l1,-1l1,1v3ZM276,775l-1,1h-3v-1l1,-1h3ZM277,774l-1,-1h-4v-1h-1v1l-2,-2v-4l-1,-1h-1v-1l1,-1l2,1l1,1h2v1l1,1v2l1,2l1,1h1Z"/>
<path class="sb" d="M947,277v-1l-1,-2v-1l-1,-1v-1h-1v-1l-1,-1v-1l-1,-1v-1l-1,-1v-1h-1v-2h-1v-1l-1,-2l-1,-1v-1l-1,-1v-1h-1v-1l-1,-1v-1v1v-1v2l1,2l1,1v1l1,1v1v-1l-1,-1h-1v-1l-1,-1v-1l-2,-2v-1l-2,-2v-1l-2,-2v-1l-3,-3v-1l-1,-1h-1l-1,1l1,1v1h1v1l-1,1h-1v1h-1l-1,-1l-2,-1h-1l-1,-1l-2,-1l-1,-1l-2,-1l-2,-2l-1,1h-1v1h-1v1M827,121v1h1v3l-1,1v1h-2v1h-1l-1,1h-2v1h-2l-1,1h-2l-1,1h-3l-1,1h-3l-1,1h-2M634,42l4,2l1,1l8,4l1,2l8,4l1,1l2,1l2,2l4,2l1,1l2,1l2,2l2,1l1,1l2,1l2,2l2,1l3,3l4,2l1,2l4,2l1,1h1l-1,-1h1l1,1v-1h3v1h2v1h1l1,1h2l1,1h2v1h1l1,1h1v-2l-2,-2h1v-1h1v1h2v1h2v1h2l1,1h1l1,1h2l1,1h1v1h1l2,1h1l1,1l2,1h1l1,1h1v1h1l2,2h2v1h3l1,1h2l1,1h2v1M76,393l1,-1v-2h1v-3l-1,-1v-3h1v-1h1v-1h-1v-2h-1v-1l1,-1h-1v1v-7l-1,-2v-7h-1v-2l1,-1v-1l-1,-1v-1h-1v-3h-1v-1l1,-1v-2h1l1,1l2,-2v-1h1v-2h-1l1,-1l-1,-1l1,-1v-3h-2v1h-1l-1,-1v-4l1,-1v-2h1h-1v-1v1v-6M67,395v2l1,-1v2l1,1l1,-1v-3h1v-1h1v-1v1l1,1v1l1,-1h1v-1h1v-1v2l-1,1v7l-1,1v2l-1,1v5h-1v2l-1,-1v1h-1l-2,2h-1v2h-1v-1h-1v1h-1v4l1,1v1l-1,1v1v-1h-1v-1h-1l-1,1v-1h-1v2l-1,1h-1l-1,1M70,332l-1,1v1h-1v1l-1,1v1h-1v1h-1v1l-1,2M38,426v-3l1,-1v-1l1,-1l1,-2v-2l1,-1v-1h1v-7l1,-1l-1,-1v-1l1,-1v-3l1,-2v-15l1,-1h1v-2l1,-2v-2l2,-2v-1l-1,1v-3l1,-1v-10l1,-1v-4h1v-1l1,-3l1,-1v-1l1,-2v-1l1,-1h3v-1l1,-1v-1l1,1v-1l1,-1h1v-1v1h1l-1,1h1v-1v3l-1,1v3h2v1l-1,1v3l-1,2l-1,1v1h-1v4l-2,4v1v-1l1,-1h1v-1h1v-1l2,-2l1,1v2h2v-2h1v-1l1,-1l2,2v-1v7h1v2l-2,4v7h1v1l-1,1l1,1v2l-1,1v1l-1,1v3l-1,1v2h-1v1h-1v1v-2h-4l-1,-1h-2v1l-1,1v1h-1v1l-1,1v1h-1v1l-1,2v14M94,336v-1h-2v-3h-1v-4l2,-2v-2h-1v-1h-1v1h-1v-4h-1l-1,1h-1v2h-1v1h-2v-1v1h-1v1h-1v-1l-1,1v-1h-1v1h-1v1v-2l-1,-1v1h-1v1h-1v1v-1h-2v2h-1v3l-1,2v1l-1,1v1h-1v-3l1,-1v-1h-1v1l-1,1h-2v-3l1,-1v-1l-1,-1h-1v-1h1v-1l1,-1v-2l1,-1h1v-2h-1v-3h1v-3l2,-2h-1v-1h-2v1h-1v1v-1l1,-1v-3l2,-2v-1l1,-1v-1l3,-3v-1v1l1,-1v-1h1v-1l1,-1v-1l1,-1v-1l1,-1v-1l1,-1l1,-2v-1l1,-2l1,-1h-1v-1v1h-1h1v-1l1,-2v-2l1,-1v-1h-1l1,-1h-1v1h-1v1M233,203v-1l1,-1h1l1,-1h1l1,-1h2v-1h2v-1h3v-1l1,-1h1l2,-2v-1h2v-1h1v2h1v1h4l1,-1v-3h6v-1h1v-1h3l1,-1v-1h1v-1l1,-1h1v3h1M235,219h1v-1h1l2,-2h6l1,-1h1v-1M94,208v1h-1v1M246,136l-1,1l-2,1l-2,2h-1l-2,2h-1l-1,1v1h-1v1h-1l-2,2v2l1,-1h4v1h1l1,-1h1v-1h2v1h1v2h1h-1v1h1h-1v2h1l-1,1v2h-1l-1,1h-1l-1,-1h-5l-1,1v-1h-1l-1,1h-3l-1,1h-1v1l-1,1h-1v1h-2v1h-1l-1,1h-3l-1,-1v1h-1l-1,1h-1l-1,1h-1l-1,1h-3l-1,-1v-1h-1v-1l-1,1h-1l-4,4v3l-1,1h-1v1h-1l-1,1h-2l-1,1h-1v1h-1l-1,1h-1v1h-2l-1,1h-2v1l-1,-1h-9v1h-1l-4,2h-2v1h-2v-1l1,-1h-3v-2h-1l-1,-1v-1l1,-1v-1h-1l-1,-1h-1v-1l-1,1h-1l-1,-1h-1l-2,-2h-2l1,-1v-1h1v-2h1l1,-2l1,-1v-1h1v-1l1,-1h-1v-1l1,-1v-2l1,-1v-1h-1l-1,-1v-2h1v-1l2,-2h1v-1h1v-1h1v-1h1v-1h1v-1h1v-1l1,-1h1v-1l1,-1v-1h1v-1h1v-1l2,-2h-1v-1h1v-1l1,-1v-1h1v-1h1v-1h1v-1h1v-1"/>
<path class="sb" d="M272,189h1v-1h-1l1,-1v-1h1l1,-1h2v-1h1v-1h1v-1l1,-1h-1h1v-1l1,-2l1,-1l1,-2v-3h2l1,-1h1l1,-1h1v-1v1h2l1,1h3v-1h1l1,-1v-1h2v-1l1,-1h1v-1l1,-1h1v-1l3,-3v-1h1l1,-1v-1h1v-1h2l1,-1v-1l1,-1v-1h1v-1h-1v-1l-1,1h-3l-1,1h-3l-1,1h-1l-1,1h-8v-1h1v-1h-1l2,-2v-2l1,-1v-1h-2v-2h-1v-1h-1l-1,-1v-1h-4v-2l2,-2h-1v-1h1v-1h1v-4h1v-2l1,-1v-2h1v-2h1h-1l1,-1h-1h1v-3h-1v-1h-1l-1,1v-1h-1v-1h-1v-1h-11l-4,2l-1,1h-1l-1,1h2v1h-1v1l-2,2h-1l-2,1l-2,2l-2,1h-1v1h-1l-2,2h-1l-1,1v1l-1,1h-1v1h-4l-1,1l-3,1v-1h-2v-2h-4v-2h-2v-1l-1,1h-2v1h-2l-1,1h-1v1h-3l-1,1h-4l-2,1l-1,-1h-2v-1h-3v-1l1,-1v-1l1,-1v-1h-1v-2h-1v-1h-5l-1,1h-2v-4h1l1,-1v-1h1l1,-1v-1h1h-1v-2l-1,-1v-2h-1l-1,1h-1l-1,1h-1v1h-1l-1,1h-1v1h-1v1h-1v1h-1v1l-2,2h-1v1h-2l-1,1h-1v-1h-1h1h-1v-1v1v-1h-1v1v-1h-1h1h-1v-1h1v-1h1v-1h1v-1h-1v-1h1v-1h-1v1v-1l-1,1v-1l-1,1h-1v1h-3v1h-2v1h-2v1h-1v1v-1l-1,1h-1h1h-2l-1,1h-1l-1,1M210,93h-1v1h-1l-1,1l1,-1h1h-1l-1,1h1v-1l-1,1h-1v1h-1v1h-1l-1,1l2,-2h1h-1h1l1,-1h1l1,-1l-1,1h-1v1h-1l-4,4h-1l-4,4l-2,1l-2,2l-2,1l-3,3l-2,1l-1,2l-1,1v-1h1l1,-1h1v-1h1h-1v1l-1,1h-1v1h-1v1h1v-1h1v1h-1v1h-1v1h-1l-1,1v1l-2,2h-1v1h-1v1h2v-1v1h-1v1h-1v1h-1v1l-1,1v-1v1h-1l-2,2h-1v1h-2v1h-1l-6,6h-1v1h-1l-1,1v-1h1v-1h-1h1v-1l-3,3l-2,1l-4,4h-1v1h-1v1l-2,2v-1h1h-1l1,-1l-1,1h-1l-1,1h-1v2h-1l-2,2v1h-1v1h-1v1l-3,3h-1v1l-1,1v-1v1h-1v1h-1v1h-1v1l-2,2M68,251v1l1,-2v1l-1,1v2l-1,1v2h-1v2l-1,1h1l-1,1v1l-1,1v2h-1v1h1l-1,1v3l-1,1l1,-1l-1,1v1l1,-1v-1v3h1M63,278v-1l2,-2v-1l1,-1h1v-1h1v-1h1v1h-1v1h1v1h1h-1l1,1l-1,1M91,212h1v-1l1,-1v1v-1v1l-3,3l-1,2l-1,1v1l-1,1v1h-1v1l-1,1v1l-2,2v1h-1v1l-1,1v1h-1v2h-1v1l-1,1v-1h1h-1v1l-1,1l-1,2l-1,1v1h-1v2h-1v1v-1v2l-2,2v2h-1v2h-1v2l-2,2v1l-2,2v1l-1,1v1h-1v1l-1,1v2h-1v1v-1h1h-1v2l-1,1v1l-1,1v2l-1,1v4h-1h1v-1v3l-1,1v3h-1h1v1h-1v1l1,-1v2h1h-1v1h1v1v-1l2,-2v-2l1,-1l2,-4l1,-1v-1l1,-1h1l-1,1v1l-2,2v2l-1,1v1l-1,1v1h1v1l1,-1v1h1v1l1,-1v1l1,-1v1v-1h1v-2l1,-1v-3l1,-1v1l1,-1h1v-1h1v-1l1,-1h1v-1h1v-1l1,-1h1l1,-1v-1h1v-1h1l1,-1v3l1,-1v-1h1l1,-1v2l-1,1v1v-1h1v1l-1,1v1l-1,1h-1v1h1v1h1v1l-1,1v1l-2,2h-1v2l-1,2v1v-2h-2l-6,6v2l-1,1v1h-1v1l-1,1v1h-1v1h-1v3h-1l-1,2v1l-2,2l-1,2v1l-1,1v-2h-1v-1v1l-1,2v2l-1,1l-1,2v1h-1v1l-1,1v2l-1,1v1l-1,1v1v-1h-1v1"/>
<path class="sb" d="M101,198v1l-1,1v1h-1v1h-1v1l-1,1v1h-1v1l-2,2v1l-2,2v1h-1v1l-1,1v1h-1h1h-1v1h-1h1v-1M44,320l1,-1v-1l1,-2v-1l1,-2v-1l1,-1v-3h1v-1l1,-2v-2h1v-4h1v-1l1,-2v1v-1l1,-2v1h1v-2l1,-1h-1l1,-1v-2l1,-1v-1l1,-1v-1h1v-1v4h-1v1h1v-2h1l-1,2l-1,1l-1,2v4h1l1,1h1v2l-1,1v-1v1l-2,2v2h-1v1v-1l-2,2l-1,2v1l-2,4l1,-1v1l-1,1h1v-2h1v-1l1,-1v-1h1v-1v1l-1,1v2l-1,2v1l-1,1v2l-1,1l-1,3v1l-1,3l-1,1v1v-1l-1,1v2l-1,1v1M137,157v-1l-1,1v1h-1l-1,1v1v-1v1v-1v1l-1,1h1h-1v1l-2,2v1h-1v1l-1,1h-1v1h-1v1l-1,1h-1v1h-1l-1,1v1v-1l-3,3v1h-1h1h-1h1h-1l1,-1l-1,1M106,192v1h-1M104,194v1h-1v1"/>
<circle class="w1" cx="528" cy="480" r="9"/>
<circle class="c1" cx="528" cy="480" r="8"/>
<circle class="w1" cx="509" cy="490" r="11"/>
<circle class="c1" cx="509" cy="490" r="10"/>
<circle class="w1" cx="501" cy="478" r="10"/>
<circle class="c1" cx="501" cy="478" r="9"/>
<circle class="w1" cx="501" cy="502" r="10"/>
<circle class="c1" cx="501" cy="502" r="9"/>
<circle class="w1" cx="485" cy="445" r="10"/>
<circle class="c1" cx="485" cy="445" r="9"/>
<circle class="w1" cx="473" cy="441" r="10"/>
<circle class="c1" cx="473" cy="441" r="9"/>
<circle class="w1" cx="495" cy="493" r="9"/>
<circle class="c1" cx="495" cy="493" r="8"/>
<circle class="w1" cx="527" cy="489" r="9"/>
<circle class="c1" cx="527" cy="489" r="8"/>
<circle class="w1" cx="489" cy="469" r="9"/>
<circle class="c1" cx="489" cy="469" r="8"/>
<circle class="w1" cx="519" cy="464" r="9"/>
<circle class="c1" cx="519" cy="464" r="8"/>
<circle class="w1" cx="519" cy="452" r="9"/>
<circle class="c1" cx="519" cy="452" r="8"/>
<circle class="w1" cx="503" cy="415" r="9"/>
<circle class="c1" cx="503" cy="415" r="8"/>
<path class="sg" d="M 252.4014 933.5997 A 249.7500 20.8815, 0, 0 0, 746.5986 933.5997"/>
<path class="sg" d="M 67.4282 750.1276 A 432.5797 36.1678, 0, 0 0, 931.5718 750.1276"/>
<path class="sg" d="M 0.0000 499.5000 A 499.5000 41.7630, 0, 0 0, 999.0000 499.5000"/>
<path class="sg" d="M 67.4282 248.8724 A 432.5797 36.1678, 0, 1 0, 931.5718 248.8724"/>
<path class="sg" d="M 252.4014 65.4003 A 249.7500 20.8815, 0, 1 0, 746.5986 65.4003"/>
<path class="sg" d="M 507.8772 998.9297 A 97.9071 499.5000, -0.96096643, 0 0, 491.1228 0.0703"/>
<path class="sg" d="M 536.1475 997.6538 A 328.8035 499.5000, -4.20747272, 0 0, 462.8525 1.3462"/>
<path class="sg" d="M 619.5691 984.3543 A 471.5973 499.5000, -13.90888939, 0 0, 379.4309 14.6457"/>
<path class="sg" d="M 307.3480 960.5617 A 488.0270 499.5000, 22.62440966, 0 1, 691.6520 38.4383"/>
<path class="sg" d="M 452.2486 996.7600 A 373.6902 499.5000, 5.42814738, 0 1, 546.7514 2.2400"/>
<path class="sg" d="M 485.4054 998.8011 A 159.2235 499.5000, 1.61695839, 0 1, 513.5946 0.1989"/>
<text x="0" y="0" class="fs" transform="translate(793,301) rotate(73)">150W</text>
<text x="0" y="0" class="ft" transform="translate(793,301) rotate(73)">150W</text>
<text x="0" y="0" class="fs" transform="translate(921,285) rotate(66)">120W</text>
<text x="0" y="0" class="ft" transform="translate(921,285) rotate(66)">120W</text>
<text x="0" y="0" class="fs" transform="translate(63,281) rotate(114)">90E</text>
<text x="0" y="0" class="ft" transform="translate(63,281) rotate(114)">90E</text>
<text x="0" y="0" class="fs" transform="translate(165,298) rotate(107)">120E</text>
<text x="0" y="0" class="ft" transform="translate(165,298) rotate(107)">120E</text>
<text x="0" y="0" class="fs" transform="translate(357,309) rotate(98)">150E</text>
<text x="0" y="0" class="ft" transform="translate(357,309) rotate(98)">150E</text>
<text x="0" y="0" class="fs" transform="translate(587,310) rotate(84)">180E</text>
<text x="0" y="0" class="ft" transform="translate(587,310) rotate(84)">180E</text>
<text x="0" y="0" class="fs" transform="translate(549,949) rotate(0)">60S</text>
<text x="0" y="0" class="ft" transform="translate(549,949) rotate(0)">60S</text>
<text x="0" y="0" class="fs" transform="translate(585,780) rotate(-1)">30S</text>
<text x="0" y="0" class="ft" transform="translate(585,780) rotate(-1)">30S</text>
<text x="0" y="0" class="fs" transform="translate(598,536) rotate(-1)">0N</text>
<text x="0" y="0" class="ft" transform="translate(598,536) rotate(-1)">0N</text>
<text x="0" y="0" class="fs" transform="translate(584,282) rotate(-1)">30N</text>
<text x="0" y="0" class="ft" transform="translate(584,282) rotate(-1)">30N</text>
<text x="0" y="0" class="fs" transform="translate(548,86) rotate(0)">60N</text>
<text x="0" y="0" class="ft" transform="translate(548,86) rotate(0)">60N</text>
<path class="tb" d="M127,998h-2l-1,-1h-2l-1,-1h-2l-1,-1h-2v-1h-3v-1h-2l-1,-1h-2v-1h-2l-1,-1h-2v-1h-2v-1h-2l-1,-1h-2v-1h-2v-1h-2v-1h-2v-1h-2v-1h-2v-1h-2v-1h-2v-1h-2v-1h-1l-1,-1h-1v-1h-2v-1h-2v-1h-1v-1h-2v-1h-1l-1,-1h-1v-1h-2v-1h-1v-1h-2v-1h-1v-1h-1l-1,-1h-1v-1h-1v-1h-1l-1,-1h-1v-1h-1v-1h-1v-1h-2v-1h-1v-1h-1v-1h-1v-1h-1l-2,-2h-1v-1h-1v-1h-1v-1h-1v-1h-1v-1h-1v-1h-1v-1h-1v-1h-1v-1h-1v-1h-1v-1h-1v-1h-1v-2h-1v-1h-1v-1h-1v-1h-1v-1l-1,-1v-1h-1v-1h-1v-1l-1,-1v-1h-1v-1l-1,-1v-1h-1v-1l-1,-1v-1h-1v-2h-1v-2h-1v-1l-1,-1v-1l-1,-1v-1l-1,-1v-2h-1v-2h-1v-3h-1v-2h-1v-4h-1v-3h-1v-5h-1v-6l-1,-1v-17h1v-7h1v-4l1,-1v-3h1v-3h1v-3h1v-2l1,-1v-2h1v-2h1v-2h1v-2h1v-2h1v-2h1v-2h1v-1h1v-2h1v-1h1v-2h1v-1h1v-1l1,-1v-1h1v-1h1v-1l1,-1v-1h1v-1h1v-1h1v-1h1v-1h1v-1h1v-2h1v-1h1v-1h1v-1h1v-1h1l3,-3h1v-1h1v-1h1v-1h1v-1h1v-1h1v-1h1l1,-1h1v-1h1v-1h1v-1h1l1,-1h1v-1h1v-1h2v-1h1v-1h1v-1h2v-1h1v-1h2v-1h1v-1h2v-1h1l1,-1h1v-1h2v-1h1l1,-1h1v-1h2v-1h2v-1h2v-1h1l1,-1h1l1,-1h1l1,-1h1l1,-1h1l1,-1h2v-1h2v-1h2v-1h2l1,-1h2v-1h2v-1h2l1,-1h2v-1h3v-1h2l1,-1h2v-1h3v-1h3v-1h159v1h3v1h3v1h2l1,1h2v1h3v1h2l1,1h2v1h2v1h2l1,1h2v1h2v1h2v1h2l1,1h1l1,1h1l1,1h1l1,1h1l1,1h1v1h2v1h2v1h2v1h1l1,1h1v1h2v1h1l1,1h1v1h2v1h1v1h2v1h1v1h2v1h1v1h1v1h2v1h1v1h1l1,1h1v1h1v1h1v1h1l1,1h1v1h1v1h1v1h1v1h1v1h1v1h1l3,3h1v1h1v1h1v1h1v1h1v2h1v1h1v1h1v1h1v1h1v1h1v1l1,1v1h1v1h1v1l1,1v1h1v1h1v2h1v1h1v2h1v1h1v2h1v2h1v2h1v2h1v2h1v2h1v2l1,1v2h1v3h1v3h1v3l1,1v4h1v7h1v17l-1,1v6h-1v5h-1v3h-1v4h-1v2h-1v3h-1v2h-1v2l-1,1v1l-1,1v1l-1,1v1h-1v2h-1v2h-1v1l-1,1v1h-1v1l-1,1v1h-1v1l-1,1v1h-1v1h-1v1l-1,1v1h-1v1h-1v1h-1v1h-1v2h-1v1h-1v1h-1v1h-1v1h-1v1h-1v1h-1v1h-1v1h-1v1h-1v1h-1v1h-1v1h-1l-2,2h-1v1h-1v1h-1v1h-1v1h-2v1h-1v1h-1v1h-1l-1,1h-1v1h-1v1h-1l-1,1h-1v1h-1v1h-2v1h-1v1h-2v1h-1l-1,1h-1v1h-2v1h-1v1h-2v1h-2v1h-1l-1,1h-1v1h-2v1h-2v1h-2v1h-2v1h-2v1h-2v1h-2v1h-2v1h-2l-1,1h-2v1h-2v1h-2l-1,1h-2v1h-2l-1,1h-2v1h-3v1h-2l-1,1h-2l-1,1h-2l-1,1h-2Z"/>
<path class="tl" d="M169,986h1v1h-3l-1,-1h2v-1ZM114,989h-3l-1,-1h2l1,1ZM176,983h1l1,1v1h1l-1,1h-2l-1,1h-1l-1,-1l1,-1v-2h1v-1ZM124,980h2v1h-1ZM122,980l1,1h-1l-1,-1ZM136,977h1h-2ZM156,974v1l1,1h-5v-1l1,-1v-1l-1,-1l1,-1v1h1l1,1ZM158,964v1h-2v2h1l-2,2v1h1l1,1h1l4,4v1l1,1v1h-1v2h-1l-1,1h-1v1h-2l1,1h1v1h-2l1,1h1v1h3l1,1h3l1,1h3l1,1h1l1,1v-1h1v-1h2l2,-1l1,1h1v-1h4v-1h3l1,-1h-1v-1h-4l-1,-1l1,-1h1l2,-2h4l1,-1h1l2,-2h-1v-1h1v-1h2v-1l1,-1h1v1h1v-1h8v-1h3v-1h1l1,1h2v-1h1v1l1,-1h4v1h6v-1h3v-1h2v1h3l1,-1h3v-1h2l1,-1h2l1,-1h4v1h1v1h1l1,1h1l1,-1l1,1h2v1l-2,2h-1v1h1h-1v1h-1v1h2l2,-2h1v-1h3l1,-1h1v-1h2l1,-1h5v-1h1v1h5v1h1l1,-1l1,1l1,-1h1l2,-1v1l1,1h3l1,-1h2v1h1v1h4l1,-1v1h9l1,-1l-1,1v1h-1h3l1,1h2l-1,1v1h1v1h2v1h1v2h2l1,1v1h-1l-1,1h-2l-1,1h-3l-1,1h-2l-1,1h-2l-2,2v1h-5l-1,1h-2v1h-1v3h2l-11,4h-155l-11,-4h-1h2l1,-1l1,1h14l-1,-1h-7v-1h-2v-1h-3l-1,-1h4v-1h-2l-1,-1h-7l-1,-1l-2,-1l1,1l1,-1l2,1v-1h1v-1l-1,-1h-1h2v-1h2v-1h4l1,-1h5l1,-1l1,1v-1h1l1,1h1v-1l1,1h6v-1h-2l-1,-1h-1l-1,-1h4l1,1h1l1,-1h3l-1,-1h1l1,1l1,-1l1,1h3v-1l1,1h4v-1h2l1,-1v-1h-1v-1h-1v-1h-1v-1h-1v-2l-1,-1v-1h1v-2h1v-1h1v-1h1l1,-1l1,1ZM144,951l2,1h1v1h-1v-1v1h-4l-2,-2l-2,-1l2,1h2v-2h1v1ZM151,947h1v1h-2v1l-1,-1l1,-1ZM269,946h-1v-2h1l1,1ZM345,939v1h1l1,-1v1l-3,3v-1l-1,1h-1l1,-1v-1l1,-1v-1ZM368,943v1l1,-1v1h-1l-3,3h-1l-1,1h-1l-2,2h-2v1h-1v-1h-1v-1l4,-2h1l1,-1h2l2,-2h1l2,-2ZM376,936l-1,2l1,-1l-1,1l1,1h1l-2,2h-1l-2,2l-2,1h-1l2,-1v-2l1,-1l2,-1v-1l1,-1v-3l1,-1v1l1,1ZM382,913l-1,1v-2l-1,-1v-1h1v1l1,1ZM397,906v1l-1,1h-1v-1l1,-1v1ZM398,906h-1v-1h1l1,-1v1ZM10,905v-1ZM386,904v-1ZM386,901v2h-1v-1ZM259,895v2l1,1h-1v1v-1v2h-1v3l-3,6v2h-1l-1,1l-1,-1h-1v-5h1v-2l1,-1h-1v-3h1v-1h1l2,-2h1v-1l1,-1v-1l1,-1v1ZM361,898v1h1v1h1l-1,1v2h1l-1,2v1l2,2v4h1l-1,2l1,1v3l-1,1v2l-3,3v1l-1,1l-1,2h-1l-1,2h-1l-4,4v1h-2l-1,1h-1l-1,1v-1h-1l1,-1h-1l-1,1h-1v-1h-1v-3h1l-1,-1v-1l1,-1l-1,1h-1l3,-3l-2,1h-1l-1,2v-4l-2,-2h-2l-1,1h-4l-2,2h-4l-1,1v-1l-1,1h-2v-1h-1l1,-1v-1h1v-3l1,-1v-7l1,1v-3l1,-1v-1l1,-1l-1,1l2,-2h1l1,-1h2l1,-1h2v-1h1l1,-1v-2l1,-1v2l1,-1v-1h1v-1l2,-2h2v1h2v-2h1l1,-1v-1h2v-1h-1h1l1,1h3l1,1h-1v1h-1v1l-1,1v1l2,2v1h1l1,1h1v-1l1,-1v-1l1,-1v-3l1,-1v-2h1v-1v3l1,1Z"/>
<path class="tl" d="M383,894h-1v-1v1ZM337,892l-2,-1h2ZM381,893h-1v-1h1ZM382,892v-1l-1,-1h1ZM341,892h-1l3,-3h2l-1,1h-1l-1,1ZM335,889h1v1h-3l1,-1ZM340,889v1h-3v-1h2ZM381,890v1l-2,-2h1v1ZM378,889v-1h-1v-1l1,1ZM325,887h2v-1l2,1v1h2l1,1l-1,1l-1,-1h-4l-1,-1h-1l-2,-1h-1l1,-2h1l1,1ZM353,886v1v-2ZM377,888h-1v-2l-1,-1h1v2h1ZM373,885l-1,1h-1l-1,1l-1,-1h-1l1,-1l1,1v-1h2v-2h1v1ZM345,882h-1v-1h1ZM349,881v2l-1,-1h-2v-1h2ZM374,884l-1,-1v-1l-1,-1h-1h2v2h1ZM353,878v3l2,1v-2l2,-1h1l1,1h1l1,1l4,2v1h1v1l2,1v1h-1v1l1,1v2h1v1h1h-1l1,1l-1,1v-1h-2l-1,-1v-3h-3l-1,1v1h-2l-2,-2v1h-2l1,-2h1l-1,-2v-1l-2,-1h-1l-1,-2l-1,1l-1,-1h1l-1,-1l1,-1h-1v-1h-1l-1,-1h2v-1ZM343,875l-1,1h-4v1l1,2v-1h2l-1,1h-1l1,2v1l1,2v1h-1v-2l-1,1v-1l-1,-1l1,-1h-1v4h-1v-3h-1v-1l1,-1v-4h1v-1h4l1,-1ZM347,875v1h-1v1l1,1h-1v-4h1ZM321,885h-1l-2,-2v-1l-2,-2l-1,-2v-2l-1,-1v-1l-4,-4v-1h2l3,3l1,2h1l2,2h1l-1,2h1v1l1,1h1v3ZM335,874l1,1h-1v3l-1,1v1l-1,3v-1l-1,1l-1,-1h-1v-1l-1,1l-1,-1h-1l-2,-4v-2l1,-1h2v-2h2v-1l1,-1v-1h1l1,-1v-2h1v1l2,2v1h-1l-1,2l1,1ZM344,864v3l-1,-1v2l-2,-2h1l-1,-1v1l-1,-1l-1,1v-1l1,-1h2v-1h1v-1l1,1ZM294,868h-1v-1l-1,-2l1,-2l1,1v1l1,1v1ZM137,863h-1l1,-1h1ZM341,861v1l-1,1l-1,-1l1,-1v-1v1l1,-1ZM335,863l-1,1v-1l1,-1v-1l1,-1v1l-1,1ZM338,859h2v1l-1,1v-1h-1ZM342,858l1,2h-1v1v-1h-1v-1h1h-1v-1ZM338,857l-1,1l-1,-1h1ZM336,849h1v6h1l2,1v2l-1,-1v-1v1l-1,-1h-2v-1h1h-1l-1,-1v-5ZM133,851v1h-1v-1ZM121,852h-1v-1h2v1ZM126,849h3v1h1v1h-2l-1,1v-1h-1v-2h-1ZM324,849l-1,1h-1v-2l1,-1h1v1ZM37,846v-2h1v2ZM38,844h-1v-1h1ZM119,845h2l1,1v1h1v1h2l-1,1h-3v-1h-1v-2h-2l-1,-1h-1h1h-2l-1,1h-1l2,-2h3ZM122,843h-1v-1l1,-1v1ZM334,843v1l-2,-2v-2l1,-1l1,1ZM122,839l-1,1v-1ZM123,839v1v-1h-1ZM340,825h1v1h-1v1h-1v-2ZM240,828l-2,2v-1h-1h2ZM229,828v1h-1ZM220,825v2h-1l-1,-1h-1v-1h2ZM214,821v3h-1v-3ZM344,820v1l1,1v1l-1,1h-1l-1,2l-1,-1v-1l-2,1l-1,1h-1l2,1v3l-1,-1v-1h-1l-1,-1l1,-1v-3h3v-3l1,1v-2h1l-2,-4v-1l3,3v1ZM214,820v1l-1,-1v-1l1,-1ZM340,810l1,-1l1,2h-1v2l-2,-1l1,2h-1l-1,-2l-1,-1h1l-1,-2l-1,-1l3,1ZM144,812l1,1h1h-2ZM147,809h-1l-1,-1h1ZM92,806h-1l-1,-1v-2h-1v-1h1l1,1v1l1,1ZM153,807l-1,1h1v1h2l-1,1h1v1l-1,2l-1,-1l1,-1l-2,1v-1h-3l1,-1h-1l4,-4h1Z"/>
<path class="tl" d="M90,797h1l-2,2v1v-3ZM332,800l3,3l-2,-1l1,2l2,2v1l-2,-2l-1,-2l-6,-6v-1h-1h1l3,3ZM198,806l-1,1h-2l1,-2v-1l2,-2h1v3ZM216,801l-1,2l-1,-1v-1h1ZM79,791h-1v-1h2ZM202,797l-1,2h2v1l-1,1h1l2,4h1v1l-1,1h1l-1,1h-3l-1,1h-2l2,-2h-1v-1h1l-1,-1v-1h2l-1,-1h-1v-2l-1,-1l1,-2v-1l1,1ZM75,786h-1v-1h1ZM141,790l-1,1v-1ZM139,790h-2l1,-1h1ZM78,780v1h1h-2v-1ZM139,786h1v1h1l-1,1h1l-1,1l-1,-1h-1l-2,1l1,-1h-1h1l1,-1l1,-2ZM193,787v1l1,1l-1,1h-3l-1,1l-1,-1h-2l1,-1h-1h1v-1h-2l1,-1h1l1,1l2,-1h2ZM147,784h-1l1,-1h2l-1,1ZM81,776v1l1,-1h2l-1,2h-3l-1,1h-1l-1,-1h1v-1h-1h1h-2l-1,1l8,-5v1l-1,2ZM135,780l-1,1v-1h-1l1,-1h1ZM322,771h-1ZM88,771h-1h2ZM139,780l-1,2l2,-1v1h-1v1l1,-1l2,-1l1,-1h2v2h-1v1l-1,1l-2,1h-1v-1l-1,1l-2,1v1h-3l-2,2h-1l-1,1l-2,1l-1,1l-1,2h1l-1,1v1h1l3,3l2,1h1l-2,2v2l1,1h1l2,-4h-1l4,-2v-1l1,-1v-1l-1,-1l2,-1l2,-4l1,1h1l1,-1v1l1,1h1v2l-1,1l1,1h2l1,-2h1v3l1,1l-1,1l1,1v1h1l1,1v1l1,1l-2,2h-2l-2,2h-1l-2,-1h-2l-2,1l-1,1l-2,1l-1,1l2,-1l3,-1h2l-1,1l-1,2v1l1,1l2,-1l1,-1v1h1l-4,2h-1l-2,1v-1l2,-1h-3v1h-1l-1,1h-1l-2,2l1,1v-1v1h-3l-1,1l2,-1v1h-2l-2,2v1l-1,1l-1,-1l1,-1l-1,1v4l-1,1h-1l-1,1h-1l-3,3h-1v8l-1,1h-1v-3l-1,-1l1,-1l-1,-2l-1,1l-1,-1h-4v1h-1l-1,-1l-1,1l-1,-1l-2,2h-2v1h-1v3l-1,1v1l-1,2v4l1,1v1h1v1l1,-1h3v-1l1,-1v-1l1,-1h3v1l-1,1v2l-1,1v-1v2l-1,1v1h5v1h1v1l-1,1v3l-1,1h1v2h1v1h2l1,-1h1v1h1l1,1l1,-1v-2l1,-1h2l2,-2v2h-1h1v1l-1,1v1h1v-3h1v-1h1v1h1v1h3l1,1l1,-1h1l1,1h1v1l1,1h1v1h1v1l1,1l2,1v-1h1l1,1h1l1,1v1h1v1l1,2v1l-1,1l1,1h2v1v-1l4,2v1h1l3,1h1l2,1l2,2h2v5l-1,1l-1,2l-2,2v9l-1,2v2h-1v1h-2l-1,1h-1l-3,3v5l-1,2l-2,2v2l-2,2v-1l-1,1l-1,-1h-1v-1v1l1,1v1l1,1v2l-2,1h-3l1,1v2l-1,1l-1,-1h-1l1,2h2l-2,2l1,1v1h-1l-1,1v1l2,1h1v1l-1,1v2h-1v1l2,2h-1l-1,1v1h-1l-2,-1l-3,-3l-1,-3v-1l1,-1h-2l1,-2l-1,-2h1v-2l-1,-1v2l-1,-2v-4l-1,-1l-1,-2h1v-6l-1,-2v-8l-1,-2v-6l-1,-2l-1,-1l-2,-1l-3,-2l-1,-1v-1l-1,-2l-1,-3l-2,-3l-2,-2v-1l-1,-2l2,-2v-1h-1v-3l1,-1v-1h1v-2h1l1,-1v-5l-1,-1v-2h-1v1h-1v1h-1l-1,-1h-2v-2h-1v-1v1h-1v-3l-2,-2h1h-2v-1h-2l-1,-1l-1,-2h-1l-1,-1v1h-2l-1,-1h-2l-2,-2h-1l-1,-1v-1h-1v-3h1l-1,-1v-3l-1,-1v-1l-1,-1v-3h-1v-5l-1,-1l-1,1v4h1l-1,1h1v5h1v2h-1v-1l-1,-1v-3l-1,-1v1v-1h-1v-1h1v-9h-1v-1h-1v-9l2,-2v-1l1,-2l2,-2l1,-2l1,-1v-1h1v1l2,-2h-1v-2l-1,-1v-1l1,-1l-1,-1l1,-1v-1l1,-1l-1,-1l1,-1v-1l1,-1l-1,-1h-1v-2h-1v-1h-1l-1,-1h-1l-1,1h-4l1,-1l2,-1h-1l-1,1l-2,1h-1l-1,1l-2,1h-2l-2,1h-1l-1,1h-3l-1,1h-2l1,-1h2l2,-1h2l2,-1h1l2,-1l1,-1h-3l1,-1l-1,1h-1l2,-2h-1v-1l2,-2l2,-1h3l1,-1h1l1,-1h-3v-2h4l1,1l1,-1v-3h4l1,-1h2l2,-1l1,1l1,-1h1l-1,1h1l1,1h2l1,1h2v1l1,1l1,-1h6l1,-1v2l2,-1l-1,1h2l1,1h2v1l-2,1h4v1l2,-2h2v1h1l1,1h2v-1h1l1,1l-1,1l1,-1h1l1,-1v-2l1,-1l2,-1l1,1l-2,2Z"/>
<path class="tl" d="M128,774l-1,1h4l-1,1h1l2,-2v1l-1,2v1l1,1h-2v1h-8v-1h-1v-1h4l-1,-1h-3l2,-1h-1l1,-1h1ZM135,774l-2,1v-1h1ZM152,776v1l-1,-1l-1,1v-2h2ZM146,776v1l1,-1l2,-1v2h3l1,1l-1,1l2,-1v1l1,1v2h-1l2,2v1h1v1l-2,1h-1l-1,-2l-1,1v1l1,1v2l-1,1l-2,-2v1l1,1h-2l-2,-2v-1l-1,-1v1h-3v-1l1,-1h3l1,-1l2,-1v-1l-1,-1h-1l1,-1l-1,-1h-5l-1,-1h-1l1,-1h-1l1,-1l2,-1l1,-1h2ZM138,774h2l-1,1h-1l1,1l-2,1h-2v-2l1,1v-1ZM298,772h-2v-1ZM141,776l-2,1v-1l2,-2h2l1,1l-2,1ZM122,776h-2l-1,-1h1l2,-1l2,-2h2v1h2v1h-1l-3,1h-2ZM299,769v1h-3v-1h1ZM143,773v1l-1,-1h-1l1,-1h1l1,1ZM295,769l1,1h-2l-1,1l-2,-1l-1,-1h2ZM143,771h-1v1l-1,1h-2l1,-1h-1l1,-1h2ZM136,771h1v1h-4l-2,1h-1l1,-1h-1l-1,-1l2,-1h1l2,1l1,1v-2h2ZM246,780h-3l-2,-1v-1l1,-2h-1l1,-1l-1,-1h1l4,-2h2l-1,1l-2,1l-1,1v2l-1,1l1,1ZM145,770l1,1h1l-1,1h1l1,1h4v1h-7l-1,-1l1,-1v-1h-2l1,-1ZM134,769l-2,1h-4l2,-1h3ZM271,770l1,1v-1h2l2,1h1v1l-1,1h1l2,1v-1l1,1l1,-1h2l1,1h3l-2,-1h5l1,1v1h2l2,1l-1,-1h1l1,-1l2,1v-1h1l-2,-1h8l3,1l1,-1h2l2,2h2v-1h3l3,1v-1h-2v-1h7l8,5h-1l1,1l2,1h2v1h-1v1h-1l1,1v2l-2,-1v2l-1,-1v1h-1l2,2v1h1l3,2h-1l1,1h1v1l1,2h-1l1,2l1,1l-4,-2l-4,-3l-1,-2l-1,-1v-3l-1,-2v-1l-2,-2l-1,1l2,2l-3,-1l-1,1l1,2l1,1h-1l-1,1l-1,-1h-1v1h-4v7h1l2,1h1l-1,-1h1l3,1l1,2l1,1l1,2l2,2v9h-1l-1,-1v2h-1v1l1,1v1h-1v1l1,1h1l2,2v1l1,1v1l-1,1h-1l-1,-2l-1,-1h1l-2,-1v-1v1v-1h-1v-1l-1,-1h-2v1h-1l-1,-1l1,-1l-1,-1l-1,1v2h-1v1l2,2h1v-1h2l1,1l-2,1v2l2,2l1,2l2,1v2h1v6l-2,4l-1,1h-1v1l-1,-1v1l-2,1h-1v2l-1,-1v-1h-2l-1,2v2l1,1l1,2l2,2l1,3v4l-2,1v1l-2,1v-2l-1,-1h-1v-1l-2,-2h-1v-1h-1v6h1v3l1,1h1v1h1v1l1,1v3h1v2h-1l-2,-2v-1l-1,-1v-1l-1,-1v-2l-1,-1v-1h-1v-6l-1,-1v-1l-1,-2v-2l-1,-1l-2,2h-1v-3l-1,-2v-1h-1l-2,-2v-1l-1,-1h-1v2l-1,-1v1h-2v2l-2,1l-1,2v1l-2,2h-1v8l-1,1l1,1h-1l-1,1l-1,-1l-1,-2v-1l-1,-1v-1l-1,-2v-1l-3,-6v-3l-2,1h-1l-1,-2v-1l-2,-1l-1,-1v-1l-1,-1l-2,1h-5l-1,-1h-2v-2h-1l-1,1h-2l-3,-3l-1,-2l-1,1v-1l-1,1v2l1,1h1l1,1v2l1,1l-1,-1l1,-1v2h1v1l1,-1h2v-1l1,-1v-1v2l2,2h1l2,2l-1,1v1h-1v3h-1v1h-1v1h-2v1h-1l-2,2h-1l-2,2v-1l-1,1h-2v1h-2v-2l-1,-1v-3h-1v-1l-1,-1v-1l-1,-1h-1v-1l-1,-1v-3h-2v-2l-1,-1v-1l-2,-2v-1v1l-1,1l-1,-1l-1,-2l1,2l1,1l1,2v1l2,2h-1l2,2v1l1,1h-1l1,2v1l1,1l1,2v1l1,1l2,1v1h1v1h1v1l-1,1h1l1,1h3l1,-1h3v-1h1v2l-1,1v3l-1,1l-3,6l-1,1l-2,1l-1,1l-1,2v1h-1v1h-1v2l-1,1l-1,2l1,1v4l1,1v7l-1,1h-1l-3,3h-1v1l-1,1v2h1l-1,1h1v1l-1,1h1l-1,1h-1l-2,2v3l-3,3v1l-2,1v1l-1,1h-2v1l-1,-1v1l-1,-1l-1,1h-2l-1,1l-1,-1h-1v-5l-1,-1v-2l-1,-1v-1l-1,-1v-5l-1,-1v-1l-1,-2v-1l-1,-1v-3l1,-1v-3h1v-1l1,-1v-1h-1v-5l-1,-1v-2l-3,-3l-1,-2l1,-1v-5l-1,-1v-1l-1,1h-2l-1,-1v-1l-1,-1h-2l-1,1h-2l-1,1h-6l-1,1l-4,-4h-1l-1,-1v-1l-1,-1v-1h-1v-1l-1,-1v-1h-1v-3h-1l1,-1v-1h1l-1,-1l1,-1v-4l-1,-1v-1h1v-2l1,-1v-1h1v-2h1l1,-2h1l2,-2v-3l3,-3l1,-2v-1h1l1,1h2l1,-1h2l1,-1h4l1,-1h1v1h1l1,-1h1v1l1,-1v1h-1v1h1v2h-1v1h1v1h3l2,2h1l2,2l1,-1v-2l1,-1h2l1,1h1l1,1h2l1,1h1v-1h2l1,1v-1h1l1,1v-2l1,-1v-5h-2l-1,1l-1,-1h-2v1l-1,-1h-2v-1l-1,-1v-2l1,-1h1v-1h2l1,-1h1l2,-1l2,1l1,1h2l1,-1v-2h-1l-2,-2h-1l-1,-1l1,-1l-1,-1h2l-1,-1v1h-2l-1,1v1h1l-1,1h-1v-1h-1l1,-1h-2v-1h-1v1l-1,1v1h-1v4l1,1h-2v1h-1v-1h-2l1,1h-2v1l1,1h-1h1l1,1v1l-1,-1v1h-1l1,1h-2v-2l-1,-1v-1h-1v-3h-1v-1h-1l-1,-1h-1l-1,-1v-1l-1,-1v1v-1h-2v1l2,2v1l1,1h1l1,1h1l1,1v1l-1,-1h-1v1h1v1h-1v1h-1v-1h1l-1,-1v-1h-1l-1,-1h-1l-2,-2l-1,-2h-2v1h-4l-1,1v2h-2v1l-1,2h1l-1,1v1h-1l-1,1h-2l-1,1l-2,-2v1h-2l1,-1v-1h-1v-2l1,-1v-3l-1,-1l2,-1l1,1h5v-4l-1,-1v-1h-2v-1h3v-2l1,1l2,-1v-1h1l1,-1l1,-2l1,-1h2v-5h2l-1,1h1v1l-1,1v1h1v1l1,-1h2v1h1l2,-2l1,1h1v-1h1v-3l1,-1l1,1v-1l-1,-1v-1h4l1,-1h-4l-1,1l-2,-2v-4l2,-1v-1l-1,-1l-2,2l-1,2l-1,1v3h1v2h-1v2l-1,2h-1v1h-1v-2l-1,-1l-1,-2l-1,-1l-1,2h-1l-2,-1v-5l2,-1l3,-3l2,-3l3,-3h2l1,-2h3l2,1l-1,1h2l1,1h3l3,1l1,1v1l-1,1h-1l-3,-1h-1l2,1v2l1,1h1v-1h-1l1,-1l2,1v-1l1,-2h1l1,1v-1l-1,-1v-1l-1,-1l2,1h1l-1,1l1,1h1v-1l1,-1l2,-1h1v1l1,-1h1l1,-1l1,1l1,-1h-2l1,-1h2l1,1l4,1v-1h-2v-1h-1l-1,-1v-3h2l1,1v1h1l1,1l1,2h1v3l1,1v-1h1l-1,-1l1,-1h-1l-2,-2v-1l-2,-1l1,-1l-1,-1h1l1,2l-1,-1l1,-1h2l1,1l-1,-1l-1,-2h4l-2,-1v-1h1l1,-1h3l1,-1h1v-2l2,1h-1ZM253,820l1,1v2h-1v1l1,1h1l1,1h3l-1,-1v-2h-1v-2h1v-1l-1,-1h-1l1,1l-1,-1v-1h-2v-2h-1h1v-2l1,1v-3h-2l-1,1h-1v1h-1l-1,2l2,1v1l1,1Z"/>
<path class="tl" d="M146,770h-1v-1h1l1,1ZM137,769h-2l1,-1h1l1,1ZM220,771l-1,1h-1v-1h-1l2,-1v1ZM139,768h-2l1,-1v1ZM146,769h-1v-1h1l1,1ZM144,769h-1l-1,-1h-1h1v-1h1l1,1ZM268,768l-3,1v-2ZM215,769l3,1h-2v3h-1l-2,-1h1l-1,-1l-2,-1v-1l1,-1l1,1h1v-1h1ZM220,768h1l-1,1h-4l-1,-1h3ZM234,767l-1,1h-1v-1h-1h4ZM264,768h-4l-2,-1l-1,-1h1l1,-1l4,2ZM153,767v1h-1l-2,1h-2v-1h1h-1v-1l1,-1h2v-1h1v1h1ZM167,764h3v1h-3l-1,1h-1l-1,1l-2,1h-3v1h-1v1h-2l-2,1h1l-2,1h-4l-1,-1h2v-1h2v-1h-1h1l1,-1h1l-1,-1h4l-1,-1h-3v-1l1,-1h6v-1h3v1l2,-1l1,1ZM190,764l3,1h-6v1h5l-1,1l2,-1h4v1l-2,1h-1l-2,2v2l1,1h-2l1,1l-1,1v1h-1l1,1h-3l1,1v1l-1,-1l-1,1h1l1,1v1h-2l-1,-1v1l-1,1h3l-4,2h-3l-1,1l-4,2h-1l-2,1h-1v1l-2,2v1l-1,1l-1,2h-1l-1,-1h-1l-1,-1v-2l-1,-1v-1l1,-1l-1,-2l1,-1l1,-2h1l1,-1v-1l-1,1h-1v-1l1,-1h1l-1,-1h-1l1,-1v-4l-1,-1h-5v-1l-1,-1h1l-1,-1l1,-1h2l3,-1h1l-2,-1h1l3,-1h1v-1h9l1,1l-1,-1h1l2,-1h3l2,-1Z"/>
<path class="th" d="M395,866h-1ZM394,865h-1Z"/>
<path class="tg" d="M66,970h1l1,-1h4v-1h5v-1h5v-1h6v-1h6l1,-1h7v-1h8v-1h9l1,-1h11v-1h14v-1h20v-1h79v1h20v1h14v1h11l1,1h9v1h8v1h7l1,1h6v1h6v1h5v1h5v1h4l1,1h1M21,927h6v-1h7v-1h8v-1h10v-1h10v-1h12v-1h14v-1h18v-1h23v-1h38v-1h75v1h38v1h23v1h18v1h14v1h12v1h10v1h10v1h8v1h7v1h6M5,877h399M21,826h4v1h7v1h8v1h9v1h10v1h11v1h14v1h16v1h21v1h32v1h103v-1h32v-1h21v-1h16v-1h14v-1h11v-1h10v-1h9v-1h8v-1h7v-1h4M66,783v1h5v1h4v1h5l1,1h5v1h6l1,1h6l1,1h7v1h10v1h10v1h13l1,1h17v1h36v1h21v-1h36v-1h17l1,-1h13v-1h10v-1h10v-1h7l1,-1h6l1,-1h6v-1h5l1,-1h5v-1h4v-1h5v-1M140,755h-1v1h-3v1h-2v1h-2v1h-2v1h-2v1h-2l-1,1h-1l-1,1h-1l-1,1h-1v1h-2v1h-2v1h-2v1h-1l-1,1h-1v1h-2v1h-1l-1,1h-1v1h-2v1h-1v1h-2v1h-1v1h-2v1h-1v1h-1l-1,1h-1v1h-1v1h-2v1h-1v1h-1v1h-1v1h-2v1h-1v1h-1v1h-1v1h-1v1h-1v1h-1l-1,1h-1v1h-1v1h-1v1h-1v1h-1v1h-1v1h-1v1h-1v1h-1v1l-1,1v1h-1v1h-1v1h-1v1h-1v1h-1v1l-1,1v1h-1v1h-1v1h-1v2h-1v1h-1v2h-1v1h-1v2h-1v1h-1v2h-1v2h-1v1h-1v2h-1v2h-1v2h-1v2h-1v2l-1,1v2h-1v2l-1,1v2h-1v3h-1v4h-1v4h-1v5h-1v9h-1v13l1,1v8h1v5h1v4h1v4h1v3h1v3h1v2h1v3h1v2h1v2h1v2h1v2h1v2h1v2h1v1l1,1v1h1v2h1v1h1v2h1v1h1v1h1v2h1v1h1v1l1,1v1h1v1h1v1h1v1l2,2v1h1v1h1v1h1v1h1v1h1v1h1v1h1v1h1v1h1v1h1v1h1v1h1v1h1v1h2v1h1v1h1v1h1v1h1v1h1l1,1h1v1h1v1h1v1h2v1h1v1h1l1,1h1v1h1v1h2v1h1v1h2v1h1l1,1h1v1h2v1h1v1h2v1h2v1h1l1,1h1v1h2v1h2v1h2v1h2v1h2v1h2v1h2v1h2l1,1h2v1h2v1h2M153,755h-1v1h-2v1h-2v1h-1v1h-2v1h-2v1h-1v1h-2v1h-1v1h-2v1h-1v1h-2v1h-1v1h-1v1h-2v1h-1v1h-1l-1,1h-1v1h-1v1h-1v1h-1v1h-1l-1,1h-1v1h-1v1h-1v1h-1v1h-1v1h-1v1h-1v1h-1v1h-1v1h-1v1h-1v1h-1v1h-1v1h-1v1h-1v1h-1v1h-1v1l-2,2v1h-1v1h-1v1h-1v1l-1,1v1h-1v1h-1v2h-1v1h-1v1l-1,1v1h-1v2h-1v1h-1v2h-1v1h-1v2h-1v2h-1v2h-1v2h-1v2h-1v2h-1v2h-1v3h-1v2h-1v3h-1v3h-1v3h-1v3h-1v4l-1,1v4h-1v6l-1,1v30h1v6h1v5h1v4h1v3h1v3l1,1v2l1,1v2h1v3h1v2h1v2h1v2h1v2l1,1v1h1v2h1v2h1v2h1v2h1v1h1v2h1v1h1v2h1v1h1v2h1v1h1v1h1v2h1v1h1v1h1v1l1,1v1h1v1h1v1h1v1h1v1h1v1h1v1l3,3v1h1l3,3h1v1h1v1h1v1h1v1h1v1h1v1h1v1h1l1,1h1v1h1v1h1v1h1l1,1h1v1h1v1h1l1,1h1v1h1v1h2v1h1v1h2v1h1v1h2v1h2v1h1v1h2v1h1l1,1h1v1h2M166,755h-1v1h-1v1h-1l-1,1h-1v1h-1v1h-1v1h-1v1h-1v1h-1l-2,2h-1v1h-1v1h-1v1h-1v1h-1v1h-1v1h-1v1h-1v1h-1v1l-2,2v1h-1v1h-1v1h-1v1h-1v1l-1,1v1h-1v1h-1v1h-1v2h-1v1h-1v1l-1,1v1h-1v1h-1v2h-1v1h-1v2h-1v2h-1v1h-1v2h-1v2h-1v2h-1v1l-1,1v1l-1,1v1l-1,1v2h-1v2h-1v2h-1v3h-1v2h-1v3h-1v3h-1v3h-1v3h-1v4h-1v4h-1v5h-1v6h-1v8h-1v30h1v7l1,1v5h1v5h1v4h1v4h1v3h1v3h1v3h1v3h1v3h1v2h1v2h1v2l1,1v2h1v2h1v2h1v2h1v1h1v2h1v2h1v2h1v1h1v2h1v1h1v2h1v1l1,1v1h1v1h1v2h1v1h1v1h1v1l1,1v1h1v1h1v1h1v1l1,1v1h1v1h1v1h1v1h1v1h1v1h1v1h1v1h1v1h1v1h1v1h1v1h1v1h1v1h1v1h1l2,2h1v1h1v1h1v1h1v1h2v1h1"/>
<path class="tg" d="M179,755h-1v1h-1v2h-1v1h-1v1h-1v1h-1v2h-1v1h-1v1l-1,1v1h-1v1l-1,1v1h-1v1l-1,1v1h-1v2h-1v1l-1,1v1h-1v2h-1v2h-1v2h-1v2h-1v2h-1v2h-1v2h-1v2h-1v2l-1,1v2h-1v2l-1,1v2h-1v3h-1v3h-1v3h-1v3h-1v4h-1v4h-1v4h-1v4h-1v5l-1,1v5h-1v8h-1v11h-1v29l1,1v10l1,1v7h1v6h1v5h1v4l1,1v4h1v3l1,1v3h1v3h1v3h1v3h1v3h1v3h1v2h1v3h1v2h1v2h1v2l1,1v2h1v2h1v1l1,1v1l1,1v1h1v2h1v2h1v1l1,1v1h1v2h1v1h1v2h1v1h1v2h1v1h1v1l1,1v1h1v1h1v1h1v2h1v1h1v1h1M192,755h-1v3h-1v2h-1v3h-1v3h-1v3h-1v3h-1v3h-1v3l-1,1v3h-1v4h-1v4h-1v4l-1,1v4h-1v5h-1v6h-1v6l-1,1v7h-1v8h-1v11l-1,1v18h-1v29l1,1v18h1v11h1v8l1,1v7h1v6h1v6h1v5h1v5h1v4h1v4h1v4h1v4h1v3h1v3l1,1v3h1v2l1,1v2h1v3h1v3h1v2h1M205,755v243M217,755h1v3h1v2h1v3h1v3h1v3h1v3h1v3h1v3l1,1v3h1v4h1v4h1v4l1,1v4h1v5h1v6h1v6l1,1v7h1v8h1v11l1,1v18h1v29l-1,1v18h-1v11h-1v8l-1,1v7h-1v6h-1v6h-1v5h-1v5h-1v4h-1v4h-1v4h-1v4h-1v3h-1v3l-1,1v3h-1v2l-1,1v2h-1v3h-1v3h-1v2h-1M230,755h1v1h1v2h1v1h1v1h1v1h1v2h1v1h1v1l1,1v1h1v1l1,1v1h1v1l1,1v1h1v2h1v1l1,1v1h1v2h1v2h1v2h1v2h1v2h1v2h1v2h1v2h1v2l1,1v2h1v2l1,1v2h1v3h1v3h1v3h1v3h1v4h1v4h1v4h1v4h1v5l1,1v5h1v8h1v11h1v29l-1,1v10l-1,1v7h-1v6h-1v5h-1v4l-1,1v4h-1v3l-1,1v3h-1v3h-1v3h-1v3h-1v3h-1v3h-1v2h-1v3h-1v2h-1v2h-1v2l-1,1v2h-1v2h-1v1l-1,1v1l-1,1v1h-1v2h-1v2h-1v1l-1,1v1h-1v2h-1v1h-1v2h-1v1h-1v2h-1v1h-1v1l-1,1v1h-1v1h-1v1h-1v2h-1v1h-1v1h-1M243,755h1v1h1v1h1l1,1h1v1h1v1h1v1h1v1h1v1h1l2,2h1v1h1v1h1v1h1v1h1v1h1v1h1v1h1v1h1v1l2,2v1h1v1h1v1h1v1h1v1l1,1v1h1v1h1v1h1v2h1v1h1v1l1,1v1h1v1h1v2h1v1h1v2h1v2h1v1h1v2h1v2h1v2h1v1l1,1v1l1,1v1l1,1v2h1v2h1v2h1v3h1v2h1v3h1v3h1v3h1v3h1v4h1v4h1v5h1v6h1v8h1v30h-1v7l-1,1v5h-1v5h-1v4h-1v4h-1v3h-1v3h-1v3h-1v3h-1v3h-1v2h-1v2h-1v2l-1,1v2h-1v2h-1v2h-1v2h-1v1h-1v2h-1v2h-1v2h-1v1h-1v2h-1v1h-1v2h-1v1l-1,1v1h-1v1h-1v2h-1v1h-1v1h-1v1l-1,1v1h-1v1h-1v1h-1v1l-1,1v1h-1v1h-1v1h-1v1h-1v1h-1v1h-1v1h-1v1h-1v1h-1v1h-1v1h-1v1h-1v1h-1v1h-1v1h-1l-2,2h-1v1h-1v1h-1v1h-1v1h-2v1h-1M256,755h1v1h2v1h2v1h1v1h2v1h2v1h1v1h2v1h1v1h2v1h1v1h2v1h1v1h1v1h2v1h1v1h1l1,1h1v1h1v1h1v1h1v1h1l1,1h1v1h1v1h1v1h1v1h1v1h1v1h1v1h1v1h1v1h1v1h1v1h1v1h1v1h1v1h1v1h1v1h1v1l2,2v1h1v1h1v1h1v1l1,1v1h1v1h1v2h1v1h1v1l1,1v1h1v2h1v1h1v2h1v1h1v2h1v2h1v2h1v2h1v2h1v2h1v2h1v3h1v2h1v3h1v3h1v3h1v3h1v4l1,1v4h1v6l1,1v14l1,1h-1v15h-1v6h-1v5h-1v4h-1v3h-1v3l-1,1v2l-1,1v2h-1v3h-1v2h-1v2h-1v2h-1v2l-1,1v1h-1v2h-1v2h-1v2h-1v2h-1v1h-1v2h-1v1h-1v2h-1v1h-1v2h-1v1h-1v1h-1v2h-1v1h-1v1h-1v1l-1,1v1h-1v1h-1v1h-1v1h-1v1h-1v1h-1v1l-3,3v1h-1l-3,3h-1v1h-1v1h-1v1h-1v1h-1v1h-1v1h-1v1h-1l-1,1h-1v1h-1v1h-1v1h-1l-1,1h-1v1h-1v1h-1l-1,1h-1v1h-1v1h-2v1h-1v1h-2v1h-1v1h-2v1h-2v1h-1v1h-2v1h-1l-1,1h-1v1h-2"/>
<path class="tg" d="M269,755h1v1h3v1h2v1h2v1h2v1h2v1h2l1,1h1l1,1h1l1,1h1v1h2v1h2v1h2v1h1l1,1h1v1h2v1h1l1,1h1v1h2v1h1v1h2v1h1v1h2v1h1v1h1l1,1h1v1h1v1h2v1h1v1h1v1h1v1h2v1h1v1h1v1h1v1h1v1h1v1h1l1,1h1v1h1v1h1v1h1v1h1v1h1v1h1v1h1v1h1v1l1,1v1h1v1h1v1h1v1h1v1h1v1l1,1v1h1v1h1v1h1v2h1v1h1v2h1v1h1v2h1v1h1v2h1v2h1v1h1v2h1v2h1v2h1v2h1v2l1,1v2h1v2l1,1v2h1v3h1v4h1v4h1v5h1v9h1v13l-1,1v8h-1v5h-1v4h-1v4h-1v3h-1v3h-1v2h-1v3h-1v2h-1v2h-1v2h-1v2h-1v2h-1v2h-1v1l-1,1v1h-1v2h-1v1h-1v2h-1v1h-1v1h-1v2h-1v1h-1v1l-1,1v1h-1v1h-1v1h-1v1l-2,2v1h-1v1h-1v1h-1v1h-1v1h-1v1h-1v1h-1v1h-1v1h-1v1h-1v1h-1v1h-1v1h-1v1h-2v1h-1v1h-1v1h-1v1h-1v1h-1l-1,1h-1v1h-1v1h-1v1h-2v1h-1v1h-1l-1,1h-1v1h-1v1h-2v1h-1v1h-2v1h-1l-1,1h-1v1h-2v1h-1v1h-2v1h-2v1h-1l-1,1h-1v1h-2v1h-2v1h-2v1h-2v1h-2v1h-2v1h-2v1h-2l-1,1h-2v1h-2v1h-2"/>
<rect x="375" y="841" width="30" height="38" fill-opacity="0" stroke="#ffffff" stroke-opacity="0.5" stroke-width="5.0"/>
<rect x="377" y="843" width="30" height="38" fill-opacity="0" stroke="#113311" stroke-opacity="0.8" stroke-width="5.0"/>
<rect x="376" y="842" width="30" height="38" fill-opacity="0" stroke="#45a249" stroke-opacity="0.9" stroke-width="5.0"/>
<rect x="691" y="691" width="309" height="309" fill="#ffffff" fill-opacity="1.0"/>
<rect x="694" y="694" width="302" height="302" fill="#000000" fill-opacity="1.0"/>
<rect x="700" y="700" width="300" height="300" fill="#70add3" fill-opacity="1.0"/>
<path class="zl" d="M752,924h-1v-1ZM925,962l-1,1ZM923,963l-1,1h-1h1l1,-1h1ZM926,984v1l-1,-1v-1ZM926,987v-1ZM927,1000l-1,-1v-1v1h1Z"/>
<path class="zp" d="M927,1000v0"/>
<path class="zl" d="M926,993l2,-1h1v1h-2Z"/>
<rect class="zh" x="840.5" y="919.5" width="1" height="1"/>
<rect class="zh" x="903.5" y="910.5" width="1" height="1"/>
<rect class="zh" x="906.5" y="892.5" width="1" height="1"/>
<rect class="zh" x="851.5" y="936.5" width="1" height="1"/>
<path class="zh" d="M866,916h1v-2l1,-1v1h-1v2Z"/>
<rect class="zh" x="907.5" y="910.5" width="1" height="1"/>
<rect class="zh" x="902.5" y="894.5" width="1" height="1"/>
<path class="zh" d="M897,893l-1,1h-2l-2,-1l-1,-1l1,1l3,1h1Z"/>
<rect class="zh" x="851.5" y="889.5" width="1" height="1"/>
<rect class="zh" x="848.5" y="887.5" width="1" height="1"/>
<rect class="zh" x="819.5" y="822.5" width="1" height="1"/>
<rect class="zh" x="857.5" y="918.5" width="1" height="1"/>
<rect class="zh" x="903.5" y="894.5" width="1" height="1"/>
<rect class="zh" x="854.5" y="884.5" width="1" height="1"/>
<rect class="zh" x="827.5" y="871.5" width="1" height="1"/>
<rect class="zh" x="833.5" y="864.5" width="1" height="1"/>
<rect class="zh" x="887.5" y="861.5" width="1" height="1"/>
<rect class="zh" x="876.5" y="851.5" width="1" height="1"/>
<rect class="zh" x="887.5" y="837.5" width="1" height="1"/>
<rect class="zh" x="796.5" y="813.5" width="1" height="1"/>
<rect class="zh" x="791.5" y="812.5" width="1" height="1"/>
<rect class="zh" x="855.5" y="762.5" width="1" height="1"/>
<circle class="w1" cx="894" cy="893" r="10"/>
<circle class="c1" cx="894" cy="893" r="9"/>
<circle class="w1" cx="867" cy="914" r="9"/>
<circle class="c1" cx="867" cy="914" r="8"/>
<circle class="w1" cx="851" cy="890" r="8"/>
<circle class="c1" cx="851" cy="890" r="7"/>
<circle class="w1" cx="841" cy="920" r="7"/>
<circle class="c1" cx="841" cy="920" r="6"/>
<circle class="w1" cx="906" cy="893" r="6"/>
<circle class="c1" cx="906" cy="893" r="5"/>
<circle class="w1" cx="908" cy="911" r="7"/>
<circle class="c1" cx="908" cy="911" r="6"/>
<circle class="w1" cx="820" cy="823" r="7"/>
<circle class="c1" cx="820" cy="823" r="6"/>
<circle class="w1" cx="851" cy="937" r="6"/>
<circle class="c1" cx="851" cy="937" r="5"/>
<circle class="w1" cx="858" cy="919" r="6"/>
<circle class="c1" cx="858" cy="919" r="5"/>
<circle class="w1" cx="828" cy="872" r="6"/>
<circle class="c1" cx="828" cy="872" r="5"/>
<circle class="w1" cx="834" cy="865" r="6"/>
<circle class="c1" cx="834" cy="865" r="5"/>
<circle class="w1" cx="888" cy="862" r="6"/>
<circle class="c1" cx="888" cy="862" r="5"/>
<circle class="w1" cx="877" cy="852" r="6"/>
<circle class="c1" cx="877" cy="852" r="5"/>
<circle class="w1" cx="888" cy="838" r="6"/>
<circle class="c1" cx="888" cy="838" r="5"/>
<circle class="w1" cx="797" cy="814" r="6"/>
<circle class="c1" cx="797" cy="814" r="5"/>
<circle class="w1" cx="792" cy="813" r="6"/>
<circle class="c1" cx="792" cy="813" r="5"/>
<circle class="w1" cx="856" cy="763" r="6"/>
<circle class="c1" cx="856" cy="763" r="5"/>
</svg>
