<?xml version="1.0" encoding="UTF-8" standalone="no"?>
<svg xmlns:svg="http://www.w3.org/2000/svg" xmlns="http://www.w3.org/2000/svg" xmlns:xlink="http://www.w3.org/1999/xlink" height="1000" width="1000">
<!-- made with pythonshp (GPL): github.com/sanjayrao77/pythonshp , underlying data may come from naturalearthdata.com -->
<!-- 
COPYRIGHT: THIS SVG FILE IS RELEASED INTO THE PUBLIC DOMAIN
 -->
<!-- 
vars : {
	'cmdline' : 'pythonshp.py publicdomain wiki1 northernmarianaislands locatormap'
	'title' : 'Northern Mariana Islands locator'
	'version' : '1.0.5'
}
 -->
<defs>
	<radialGradient id="watergradient" cx="500" cy="500" r="500" fx="500" fy="500" gradientUnits="userSpaceOnUse">
		<stop offset="0%" stop-color="#70add3"/>
		<stop offset="11%" stop-color="#6eaad0"/>
		<stop offset="22%" stop-color="#6ca7cc"/>
		<stop offset="31%" stop-color="#6ba5c9"/>
		<stop offset="41%" stop-color="#69a2c6"/>
		<stop offset="51%" stop-color="#679fc2"/>
		<stop offset="59%" stop-color="#669dbf"/>
		<stop offset="67%" stop-color="#649abc"/>
		<stop offset="75%" stop-color="#6297b9"/>
		<stop offset="81%" stop-color="#6095b6"/>
		<stop offset="87%" stop-color="#5f92b2"/>
		<stop offset="92%" stop-color="#5d8faf"/>
		<stop offset="95%" stop-color="#5b8dac"/>
		<stop offset="98%" stop-color="#598aa8"/>
		<stop offset="100%" stop-color="#5685a2"/>
	</radialGradient>
	<radialGradient id="landgradient" cx="500" cy="500" r="500" fx="500" fy="500" gradientUnits="userSpaceOnUse">
		<stop offset="0%" stop-color="#dddddd"/>
		<stop offset="11%" stop-color="#d7d7d7"/>
		<stop offset="22%" stop-color="#d1d1d1"/>
		<stop offset="31%" stop-color="#cccccc"/>
		<stop offset="41%" stop-color="#c6c6c6"/>
		<stop offset="51%" stop-color="#c0c0c0"/>
		<stop offset="59%" stop-color="#bbbbbb"/>
		<stop offset="67%" stop-color="#b5b5b5"/>
		<stop offset="75%" stop-color="#afafaf"/>
		<stop offset="81%" stop-color="#aaaaaa"/>
		<stop offset="87%" stop-color="#a4a4a4"/>
		<stop offset="92%" stop-color="#9e9e9e"/>
		<stop offset="95%" stop-color="#999999"/>
		<stop offset="98%" stop-color="#939393"/>
		<stop offset="100%" stop-color="#888888"/>
	</radialGradient>
	<radialGradient id="bordergradient" cx="500" cy="500" r="500" fx="500" fy="500" gradientUnits="userSpaceOnUse">
		<stop offset="0%" stop-color="#444444"/>
		<stop offset="11%" stop-color="#3f3f3f"/>
		<stop offset="22%" stop-color="#3a3a3a"/>
		<stop offset="31%" stop-color="#363636"/>
		<stop offset="41%" stop-color="#323232"/>
		<stop offset="51%" stop-color="#2d2d2d"/>
		<stop offset="59%" stop-color="#292929"/>
		<stop offset="67%" stop-color="#242424"/>
		<stop offset="75%" stop-color="#1f1f1f"/>
		<stop offset="81%" stop-color="#1b1b1b"/>
		<stop offset="87%" stop-color="#161616"/>
		<stop offset="92%" stop-color="#121212"/>
		<stop offset="95%" stop-color="#0e0e0e"/>
		<stop offset="98%" stop-color="#090909"/>
		<stop offset="100%" stop-color="#000000"/>
	</radialGradient>
</defs>
<style type="text/css">
<![CDATA[
.c1 {stroke:#45a211;fill-opacity:0}
.c3 {stroke:#45a211;fill-opacity:0;stroke-width:3}
.fs {font:14px sans;stroke:#ffffff;stroke-width:2px;stroke-opacity:0.8;text-anchor:middle}
.ft {font:14px sans;fill:#000000;fill-opacity:1;stroke-opacity:0;text-anchor:middle}
.sb {stroke:url(#bordergradient);fill-opacity:0}
.sg {stroke:#000000;fill-opacity:0.0;stroke-opacity:0.2}
.sh {fill:#45a211;stroke:#000000}
.sl {fill:url(#landgradient);stroke:url(#bordergradient)}
.sp {stroke:url(#landgradient);fill-opacity:0}
.sr {stroke:url(#watergradient);fill-opacity:0}
.sw {fill:url(#watergradient);stroke:url(#watergradient);stroke-opacity:0.8}
.tb {fill:#eeeeee;stroke:black;stroke-width:2}
.tg {stroke:black;stroke-opacity:0.2;fill-opacity:0}
.th {fill:#45a211;stroke:#378100}
.tl {fill:#aaaaaa;stroke:black}
.w1 {stroke:#ffffff;fill-opacity:0;stroke-opacity:0.6}
.w3 {stroke:#ffffff;fill-opacity:0;stroke-opacity:0.6;stroke-width:3}
.zh {fill:#45a211;stroke:#115511}
.zl {fill:#dddddd;stroke:#444444}
]]>
</style>
<circle cx="500.0" cy="500.0" r="500.0" fill="url(#watergradient)"/>
<path class="sl" d="M912,217l-1,-1v-1v1v-1h-1v-1l-2,-2v-1h-1v-1l-1,-1v-1h-1v-1h-1l-1,-2l-2,-2v-1l-5,-5v-1l-1,-1l1,1v1v-1l-2,-2v-1h-1v-1v1v-1v1l1,1l-1,-1v-1v1l-4,-4l-1,-2l-4,-4v-1l-2,-1v-1h-1l-1,-1v-1l-2,-2v-1l-2,-1l-1,-1v-1l-1,-1h-1v-1h-1v-1l-2,-2h-1l-1,-2l-2,-2l-2,-3h-1l-1,-1v-1l-3,-2l-1,-2l-1,-1h-1v-1l-6,-6l-2,-1l-2,-2v-1v1v-1h-1h1h-1h1h-1l-1,-1h1h-1l-3,-3h-1v-1l-2,-1l-1,-2h-1l-3,-3h-1h1v-1l1,1v-1v1h1v1l1,1v-1l1,2l1,1h1h-1v-1h-1v-1h-1v-1h-1v-1l1,1v1h1v1h1l1,1v1v-1v1h1l-3,-3h-1v-1h-1v-1h-1v-1h-1h1h-1v-1h-1v-1h-1l-1,-1h-1v-1v1v-1l-1,-1h-1h1v1v-1h-1l-1,-1h-1v-1l-1,-1h-1l1,1h1v1l-1,-1v-1h-1h1v1l-1,-1l-2,-1v-1h-1h1v1h1v1h1h-1l-2,-2h-1v-1h-1l-1,-1l1,1h-1l1,1h-1v-1h-1v-1h-1l-1,-1l1,1v1v-1h-2l-3,-3v-1h-1l1,1l-1,-1h-1l-3,-3h1l1,1l-1,-1h-1v-1h-1l1,1v1h1l2,1l1,1l-2,-1h-1l-1,-1v-1h-1v-1v1h1v1l-3,-3h-1v-1v1l-2,-1l-1,-1h-1v-1h-1v-1h-1l1,1h1h-1v-1h-1v-1h-1v1h1v1h2v1l1,1l-1,-1h-1l-1,-1h-1l-1,-1v-1h-1v-1h-2l-2,-2h-1v-1h-1l-2,-2l-2,-1h1h-1v-1l1,1h-1l-2,-2h-1h1v1h1l1,1h1v1l1,1h1l2,2h-1l-2,-2h-1v-1h-1l-2,-2h-1l-1,-1v1h1v1h1l1,1h-1l-2,-2l-2,-1v-1h-2v-1h-2l-1,-1h-1l-1,-1h-1l-1,-1l-2,-1h-1v-1l1,1l-1,-1h-1v-1h-1l1,1h-1v-1h-2v-1h-1l-1,-1l1,1h1h-3l-2,-2h-1l-1,-1l-2,-1h-1h1v1h1l2,1l1,1h1l1,1h1v1h1h-2v-1v1l-1,-1h-1l-2,-2v1l-1,-1h1v1h1h-2l-1,-1v1h3v1h2v1h1v1h-1l-2,-1h-1l-1,-1h-1l-1,-1h-2l-2,-1h-2v-1h-1v-1h-1h1l1,1h1h-1l-1,-1h-1v1h1v1h-1l-2,-1h-1v-1h-1h1v1h-2l-1,1h-4v-1h-1v-1h-1l1,1h-2v-1l-1,1l-1,-1v1v-1h-2v-1h-1v1h-1h1v1h-1v-1h-1l-1,-1l1,1h-1h1v1h1l1,1h1v1v-1h1v1h1v1h1v1h1v1h-1l-1,-1v1l-1,-1l1,1v1h1h-1h1v2l1,1h-1h1v1h-2v-1h-1v-1l-1,-1v1h-1v-1h-1v-1h-1v-1h-1l-1,-1v-1h-1l-1,-1v-2l1,1l1,-1h1h-3v-1h-1v-1h-1l1,1h-1v3h1v1l1,1h1v2l-1,-1l1,1h1l1,1v1h1v1h-1v-1v1l1,1v1h1v1h3l1,1v1l1,1v1h1v1l-1,1l1,1v2l1,1h-1v-1v1l2,2h-1h1v2h-1h1v1h-1v2h1l1,1h-1v1l-1,1l1,1h-1v-1h-1v3h-1v1h-1v-1h-1v1l1,1v1h-1l-1,-1v1h1v1h-1v1h-1v-1h-1v-1h1v-2l-1,-1v-1l1,-1v-1h1v1v-1h1v1h2l-1,-1h-1v-1h-1v-3l1,-1v-1v1h1v-1h-1v-1h-1v-3h1h-1l-3,-3h-1h1v-1h-2v-1h-1v-2l-1,-1v1l-1,1v1h-1v-1h-1l-1,-1h1h-1l-1,-1v1h1h-1l3,3h1h-1l-3,-1l-2,-1v1l-1,-1h-2l1,1h-1v2h-2v-1h1l-1,-1h-1v-1h-1l-1,-1h-1v-1l-1,-1l-3,-1l-1,-1h-1l-1,-1v-2h-1v1l1,1v1h2v2h-1l-1,1l-4,-2h-2l-1,-1h-2v-2h2l1,1v-1h1v1l1,-1h-3v-1h1h-1v1h-4v-1l-1,-1v1l-1,-1l1,1h-1l-1,-1h-1v-1h-2v-1h-1h1v-1h-1l-1,-1v-2h-1h1v-1h-2v-2h-1v-1h2l1,1h1v-3h-1h3v-2h-2l-2,-2h-2l-1,-1h1l-1,-1h-1v-1h-1v3h-1l-2,-1v1h1h-3v1h-5l-1,-1h-2l-1,-1h-1h1v-1h1h-4l-3,-1h-1h1v-1h1v-2h2h-2v-1h1v-1h1v-1h1v1h1l1,1h6l-1,-1h1v-1h-3l-2,-1h-2v-1l1,1h1l1,1h5l-1,-1h-5l-1,-1h-6v-1h-2l-1,-1l-5,-1h-2l-2,-1h-1l-2,-2h2v-1h1l1,-1h-1v-1h-1l-1,-1v-1l-2,-2h1v1v-1h1l-1,-1v-1h1v1h1h-1h1v-1h-2v-1h2v-1l-2,-2h1v1h3v1h1v-1h-1h8l1,1v-1v1h2v-1h7l1,-1l1,1l1,-1v1l1,-1v-1h1l1,1h11l1,1h1v-1h1l1,1h1l-2,-1h-2v-1h-1v-1h-1l-1,-1h-1h2v1h1v-1h-1l-1,-1h-1h1l-1,-1h-1h1l-1,-1h-1h1h-1h1h-1v-1h1v1l2,1h1v1h1v1h1l1,1h1v1h1v-1h-2v-1h-2v-1h1v1l-1,-1h1l1,1v-1h-2l-2,-2h-1h1l-1,-1h-2v-1h-3v-1h1l1,1h2l1,1h2l2,1h1v-1h-3l-1,-1h1h-2l-1,-1h1v1h3l1,1h1l-1,-1h-2v-1h-1h5v-1h1l1,1h2l1,1h1l1,1h2v1v-1h-1v-1h-1l-1,-1h-1h2v1h1l-2,-1h1v1h3v1h2l1,1h1h-1l-1,-1h-2v-1v1v-1v1v-1h-2l-1,-1h-2v-1h-2l-1,-1h-2v-1h-3v-1h-1h1l1,1h2v1h1h-1l-2,-1h-1v-1h-2l-1,-1h1l1,1h1l1,1l-1,-1h1v1h1l1,1h3l1,1h1l1,1h1l1,1h2l1,1h2l1,1h1l1,1h1l1,1h1l1,1h2l1,1h2l1,1h1l1,1h1l1,1h1l1,1h1l1,1h2l1,1h1l1,1h1l2,2h1l1,1h1l1,1h1l1,1h2l1,1h1l1,1h1l2,2h1l1,1h1l1,1h1l1,1h1l2,2h1l1,1h1l1,1h1l1,1h1l1,1h1l2,2h1l1,1h1l2,2h1l1,1h1l2,2h1l2,2h1l2,2h1l1,1h1l2,2h1l2,2h1l2,2h1l2,2h1l2,2h1l3,3h1l2,2h1l2,2h1v1l2,2h1l2,2h1l3,3h1l3,3h1l6,6h1l3,3h1l7,7h1l8,8h1l2,2v1l1,1h1l20,20v1l1,1h1l3,3v1l8,8v1l2,2h1v1l4,4v1l3,3v1l1,1h1l1,1v1l3,3v1l3,3v1l2,2v1l5,5v1l3,3v1l2,2v1l2,2v1l2,2v1Z"/>
<path class="sp" d="M675,32h1l1,1h3l1,1h1l1,1h1l1,1h2l1,1h2l1,1h1l1,1h1l1,1h1l1,1h2l1,1h2l1,1h1l1,1h1l1,1h1l1,1h1l1,1h2l1,1h1l1,1h1l2,2h1l1,1h1l1,1h1l1,1h2l1,1h1l1,1h1l2,2h1l1,1h1l1,1h1l1,1h1l2,2h1l1,1h1l1,1h1l1,1h1l1,1h1l2,2h1l1,1h1l2,2h1l1,1h1l2,2h1l2,2h1l2,2h1l1,1h1l2,2h1l2,2h1l2,2h1l2,2h1l2,2h1l3,3h1l2,2h1l2,2h1v1l2,2h1l2,2h1l3,3h1l3,3h1l6,6h1l3,3h1l7,7h1l8,8h1l2,2v1l1,1h1l20,20v1l1,1h1l3,3v1l8,8v1l2,2h1v1l4,4v1l3,3v1l1,1h1l1,1v1l3,3v1l3,3v1l2,2v1l5,5v1l3,3v1l2,2v1l2,2v1l2,2v1l1,1"/>
<path class="sl" d="M117,179h-1h1l1,-1ZM115,181v1h-1ZM112,185l-3,3v1l-3,3v1h-1v1h-1v1l-2,2l-1,2l-2,2v1l1,-1v1l3,-3v-1l2,-1v-1h1v-1h1v1h-1h1v-1v2h-1v2l-1,1v2l-1,1v1h-1v2l-1,1v1l-2,2l1,1l-1,1v1l-2,2v1h-1v1h-1v1l-1,1v1h-1v1l-2,2v1h-1v1h-1v1h-1v1l-3,3v1l-1,1v1l-2,2v1l-2,2v2l-2,2v1l-2,2v1l-1,1v3h-1l-1,2v1l-2,2l-1,2l-3,3v2l-1,1v1l-1,1l-1,2v1l-1,1v3l-1,1v2l-1,1l-2,4v1l-1,1v1h1l-1,1v1l-2,2h-1v1h-1v1v-1v1h-1v1l-1,1v1l-1,1v1l-1,2l-1,1v-5h-1l1,-1v-4l1,-1v-2l2,-4l1,-1v-1l1,-1v-1h-1v1h-1v1v-1l1,-1v-1l1,-1v-2l1,-2l1,-1l1,-2v-1l1,-1v-1l1,-2h1l1,-2v-1l1,-2l1,-1v-1l1,-1v-1l2,-2v-1l1,-1v-1l1,-1v-1l1,-1v-1l2,-2v-1l2,-2v-1l1,-1v-1l2,-2v-1l2,-2v-1l2,-2v-2l2,-2v-1l3,-3v-1l2,-2v-1l2,-2v-1l3,-3v-1l3,-3v-1l2,-2v-1l3,-3v-1l3,-3v-1l3,-3v-1l4,-4v-1l1,-1ZM45,292v1l-1,1v1v-1v2l1,-1v-2l1,-1l1,-2l1,-1v-1l2,-2v-1l1,-1v-1l1,-1l-1,1h1v-1l-1,1v1l-1,2v1h-1v1l-2,4l-1,3l-1,2v1l-1,2l-1,1v5l-1,1v1l-1,1v3l-1,1v3h-1v2l-3,6l-2,2l-1,2l-1,3v-1h1h-1v1l-1,1v1l-1,1v2l-1,1v1l-1,2v2h-1v1l-1,1l-1,3v2h-1v-1v1l-1,1v3l-1,1v1v-1v1h-1v1l1,-1v-3l1,-1v-2l1,-1v-2l1,-1v-2l1,-1v-2l1,-1v-2l1,-1v-1l1,-1v-2l1,-1v-3l1,-1v-2l1,-1v-1l1,-1v-2l1,-1v-1l1,-1v-2l1,-1v-1l1,-1v-2l1,-1v-1l1,-1v-1l1,-1v-1l1,-1v-2l1,-1v-1l1,-1v-1l1,-1v-1l1,-1v-1Z"/>
<path class="sp" d="M116,179h1l1,-1M114,182l1,-1M67,250l1,-1v-1l1,-1v-1l1,-1v-1l2,-2v-1l2,-2v-1l1,-1v-1l2,-2v-1l2,-2v-1l2,-2v-2l2,-2v-1l3,-3v-1l2,-2v-1l2,-2v-1l3,-3v-1l3,-3v-1l2,-2v-1l3,-3v-1l3,-3v-1l3,-3v-1l4,-4v-1l1,-1M46,290v0M21,356l1,-1v-3l1,-1v-2l1,-1v-2l1,-1v-2l1,-1v-2l1,-1v-2l1,-1v-1l1,-1v-2l1,-1v-3l1,-1v-2l1,-1v-1l1,-1v-2l1,-1v-1l1,-1v-2l1,-1v-1l1,-1v-2l1,-1v-1l1,-1v-1l1,-1v-1l1,-1v-2l1,-1v-1l1,-1v-1l1,-1v-1l1,-1v-2"/>
<path class="sl" d="M351,23h-2l-2,1h-1h2l1,-1h1ZM342,25l-1,1h1v-1h1l-1,1h-2l-1,1l1,-1l-1,1h-2l-1,1h-1h1h-2v1h-1l-9,3l-1,1l-3,1h1h-2l-1,1h-1l-1,1h-2v1h-3l-1,1h-1l-2,1h-1v1v-1h1l1,-1h2l4,-2l1,-1h2l1,-1h1l1,-1h2l1,-1h2l1,-1h1l1,-1h2l1,-1h2l1,-1h2l1,-1h2l1,-1h2l1,-1ZM290,46h1l1,-1h2v-1h2l1,-1h1v-1h2l1,-1l-1,1l-3,1h-1v1h-1l-2,1h1v-1v1l1,-1h1l1,-1h1l1,-1h2l1,-1h2v-1h1v1h-2l-1,1h-1h1l4,-2h2v-1h2l1,-1h1l4,-2h1l1,-1h1l3,-1l-1,1h-1l-1,1h-2l-2,2h-4v1h-2l-2,1h-1v1h-1h1h-1h2l2,-1h1l1,-1h1h-1h4l1,-1h1v1h-1h1l1,-1h1v1h-2l-1,1h-1l-1,1l2,-1h2l-1,1h1l2,-1h1l-1,1h-1l-1,1h-2v1h1v-1h3l1,-1h1l3,-2h3l1,-1v1h-1v1l-2,2h-1h1l-1,1h-1v1h-1v1l-1,1h-1v1h-1l2,-1h2l2,-1h-1l1,-1h1l2,-1l1,-1h-1h1v-1h3l1,-1h1l2,-1h2v-1h1l1,-1h3l2,-1h2l2,-1l3,-1l2,-1h3l1,1h-1h1l-1,1h-2l-1,1l-2,1h-2l-1,1h-2l-1,1h-1l-2,1l-1,1l-3,1h-1l-1,1l-3,1l-2,1h-1l-2,1h-1v1h-1l-1,1h-1v1h-2l-1,1h-2v1h-2l-1,1l-6,1l-1,1h-2l-1,1v-1h1v-1h1h-3v1l-1,1h1v1h1l1,-1h4l4,-2h1l3,-1h1l1,-1h1l2,-2h2l1,-1h4l-1,1h-1l-2,2l-3,1l-2,1v1h1v1v-2h1l1,-1h2l1,-1h1l3,-3v-1h-3l1,-1h1l1,-1h1l1,-1l3,-1h1l2,-1h1l3,-2h1v-1h1l4,-1h2l1,-1h2l1,-1h2l1,-1l-1,1h-1v1h-3l-1,1h-2l-1,1h-1l-1,1h-1v1h2l-1,1v1l1,-1h-1h1l1,-1v-1l1,-1h1l1,-1h1v1h2v-1h-1h5l-1,1v1h-1l-1,1h2v1h-2v1h-3l-1,1h-2v1h-2l-1,1h1v-1h2l1,-1h1l-1,1h-1l-2,1h-1v1h-1h2v-1h2l1,-1h1l1,-1h1l1,-1h2v-1h1l2,-2h1v-2h2v-1h2v-1h2l1,-1h3l2,1h5l-1,1h-4v1h1v-1h4l1,-1l2,-1v-1h1v1h1v-2h2l-1,1h1v-1h2l1,-1l1,1l2,-1h10l1,-1h-1h1v1l1,-1l1,1v-1l1,1h1h-2v1l1,-1h1l-1,1h1l1,-1v1h1v-1h3v1h-1l-1,1l1,-1h1l1,-1v-1l1,1h3l1,-1h1l1,-1l6,-1h2v1h1h-1l-1,1h-1h1h-1h1l1,1h1h-2l-2,1h9v1h-1h1v1h-1v1l1,-1h1l-2,2h-1h1h-1v-1h-1l1,1h-1h1v1h-1l-2,1h-3l-1,1h-4l-1,1h-3l-4,1l-1,1l-1,-1v1h-4l-3,1l-1,1h-1h3l1,-1h8v-1l1,1l2,-1h1h-2l1,-1h3v1h3l1,-1v1l-1,1h-1v1h-1v1h-1l-1,1h1h-1l1,-1h2v-1h1v-1h7l2,1h2l-1,1v1h4v1h6l1,-1v-1h1v-1h1v1l1,-1h2l1,1h1v1h2v-1l2,1h1l1,1l-1,1h1v1h-1v2h-2v-1h-1l-1,-1v1h1v1l1,1h1v-1v1h-1l-1,1h1v2h1v1h4l1,-1h1v-1h1v-1h1l1,-1v1h1v1h5l1,-1h2v1h3v1h2l-1,-1h2l1,-1v1h3l-1,-1h1l-1,-1h1v-1h1h-3l1,-1h5v-1h6l1,1h6v1h2l-1,1h-1l-1,-1v1l-1,1l-1,-1v1h3l2,-2h7l2,2h-2l1,1h3l-1,1h-1h5l1,1h-1l2,1h1l2,-1h6l1,-1h6l2,1h2l1,1h1v1h1v1h-1l2,2h3v1l1,1h1v3l1,-1v-2h-1v-1l1,-1h1l1,-1h9v1h3l2,-2l1,1h1v1h2l1,1h1l1,1h4v-2h-1l-1,-1h-1l-1,-1v-1l-1,-1h2l3,1h3l1,-1l1,1h3l1,-1h2l1,1h8v1h2l2,1h5l1,1h2v1h1l-2,-1l3,1h1h-1h2l1,1l7,1v1h3v1l1,1h1v1h2v1h2l1,1v-1h-1v-1h-1l-1,-1h-1v-1h-2h4v1h1v-1h-1h1h4l2,1h2l1,1h2v1h1v1l1,1h-1l1,1h-4l1,1v-1v1h1l-1,1h2v1h-1v1h2v1h1h-1l1,1h-2v-1v1h-2l-1,-1h-3v-1h-1v1h-1v-1h-2v-1h-1l-1,-1h-2l-2,-1v1h-5v-1h-2l-1,-1h1v-1h-1v-1v2l-1,-1h-1l1,1h-1v1h1l1,1h1l1,1v2h-1v1l-2,2l-1,-1h-2l-2,-1h-1l1,1h-4l-1,1h-1h1l1,-1h1l1,1h2v-1h1l1,1v1h2l1,1v-1h1h-1h1l1,1h1v1h1l1,1h-1h1v1h2l1,1h1l1,1h-1h1v1h2v2h-7l-1,-1h-1l1,1h-1l-1,1l-2,1v1l-1,1h-2v1h-2v1l-1,1h-1h1v1h-1v-1v2h-1v1h-1v1l-2,1l-1,1v1l1,1h-2l-1,-1l-2,-1l-1,-1h-1l-1,1h-1l-1,-1l-1,1h-2l-1,1h-1l-1,2v1h-1v-1h-1v-2h-1l-1,1h-1v1h-1v1h-1l-1,-1h-1v1h-1l-1,-1v1h-1v5h-1h1v1h-1l-1,1l-1,2v2h1v1h2v1v-1l1,-1l2,1h1v1l-1,1v2h1v2h2v1l2,2h-1v1h-1l-2,-1l1,-1h1v-1h-1v1h-2l1,1h-1l-1,1v4l1,1v1l1,1h1v1h-1v1h-1l-1,1l-1,-1h-1l-1,1h-1l-2,2v3l1,1v1l1,1h-3l-2,1l-1,1h-1v-1h-1v1h1v5l-1,2l-6,6v-1l-2,-2v-1l-1,-2l-1,-3v-1l-1,-1v-1h-1v-1l-2,-5v-1l-2,-3l-1,-3l-1,-2v-8l1,-1l2,-1v-1l1,-1v-2h-1v-1h3v-1h3v-1h1v-1l2,-1l2,-2v-2l2,-1v-1l1,-1l2,-1v-1l2,-2v-1l2,-1h1l1,-1h1v-2l1,-1h-2v-1h1v-1l-1,-1v-2h3l1,-1v1v-1h-4v-1h-1l-3,1v4h1v1h1h-1v1v-1h-3v1l-4,3v1h-1l-1,1h-1l1,-1h-1l1,-1h-3l1,-1h-1v-1l1,-1v-2h-1l-1,1h-2v-1h-1l-1,1h-6l-1,1h-1v2h-1v1l-3,3l-2,1l-1,2l-1,1v2h3l1,1l-1,1l-2,-1v1h-2l-1,-1l-1,1h-2v1h-4l-2,1h-1l-1,-2h5l-1,-1h-2l-1,-1h-5v-1h-5l-1,1h1h-2v1h1l-1,1h-1l-1,-1h-3l-1,1l-2,-1h-2l-1,1h-2v-1h-12l-3,1h-1l-4,4h-2l-1,1h-1l-1,2v1h-2l-2,2h-1l-2,2h-2l-5,5h-1l-2,2h-1l-1,1h-2v1l-1,1l-3,1h-1l-1,1h-1v1h1v1h7v1l-1,1v2h-1l1,1h2v-2l1,-1h2l-1,1h-1l1,1h1v1h-1l-1,1h-1v1h2l2,-1h1l2,-2v1l-2,2h1l2,-2v-3l2,1h1l2,-1l2,2h1v1l2,2h1v1h1l1,1v1h-3l1,1h1v2l-1,1h1v1h1v1l-1,1v1h-1l-2,2l-1,2v1l-1,1v5l-1,1v1h1l-1,1v2l-1,1v1l-1,2v2l-1,1l-2,1l-9,9v2h-1l-1,2l-4,4l-5,3v1h-1l-3,3v1h-2l-3,3v1l-2,1l-2,2l-5,3h-1l-2,1h-3l-1,1l-1,-1h-2l-1,-1h-1l1,-2v-1l-2,2h-1v-1l1,-1h-1l-1,1l-2,1l-1,2l-1,1h-3v1l-1,1h-1l-1,1h-1v1h-2v1l-1,1h-1v3l-1,2v2h-3v1l-2,1h-1v1h-1l-2,2h-4v1l-3,1v2l-1,1h-1v1h1v1h2l1,2h1v1h1v1l2,5l2,5v6l-1,1v3h1v1l-1,2l-4,4h-4v1l-1,1v-1h-2v-1h-1v1h-2l1,1h-1v1l-1,-1v-1l-1,1v2h-2l1,-1v-1l-2,1l-1,1h-1l-1,1h-1l1,-1h-1v-1l-1,-1h2l1,-1h-1v-1l-1,-1l1,-1v-1l1,-1h1v-1h-1h1v-1h1l1,-1h-1v-6h-2v-1l1,-1h1l1,-1l1,1h1v1l1,-1h-1v-4h-1l1,-1h-1v-1h1v-1h-3v1l-2,-2h-1l-2,2v-1h-1l-1,-1l1,-1h-1l-1,-1h-1h1l1,-1v-1l1,-1l2,-1h1h-1l-1,-1l3,-3v-2h-1l-1,-1h-1v-1h-1v1v-1h-1v-1h-1l1,-1l-1,1h-5v1h-4l-1,1l-3,1l-2,2h-2v1l-1,-1v1h-1v1h-3v-1h1l3,-1v-1l1,-1h-3v-1h1l-1,-1h2v-1l1,-1h2v-1l1,-1l2,-1v-1h1v-1h-1v-1l-1,-1v-1v1h-2l-2,-1l-2,2h-1l-3,3l-4,1l-2,1l-2,2h-1v1l-2,2h-4l-1,1v-1l-1,-1h-1l-1,1l-1,2l-1,1v3l1,1l3,1h2l1,1v2h-1v1l-1,1v1l2,2h3l1,-1v-1l2,-1l1,-1h1l2,-1l2,1l1,1h1v1h5l1,1h2l-1,1v1h-1v1l-1,1h-1v-1h-2l-4,2h-4v1l-1,1l-1,2h-2v-1h-1l-1,1h1v1l-1,1h-1v1h-1l-1,1h-1l-4,4v2h1l4,4h1v6l1,2v4h-1v1l1,1l2,1v3h2v3h-1l-2,-1l-1,-1v1l-3,-3h-1l-3,1h-1l1,1l1,-1h3v2h1l1,1h1v2l2,1l1,1v2l-1,1h-2l-1,1l-3,1l-1,1h-3l-1,1h-1h2l1,1h2l2,-1h1l1,1l1,2h1l1,1h-1l-2,2h-1v1h1l1,-1h1v1l-1,3l-1,-1h-2v1l1,1h-1l1,1l-2,2v1l1,1h-1l-1,1h-1v-1h-1l-2,2h-1v1l-1,1v1l-1,1v1l-5,5v1l-1,1v-1h-1v-1l1,-1l-1,1h-1v1l1,1v2h-1l-2,1v1h-1l-1,-1h-1l2,2l1,-1h1v1l-1,1v1l-1,1l1,1l-1,1v-1h-3l1,1v1l-2,-1v1h-1v2h-2v2l-1,1l-1,-1h-3v1h-1v1h1v1l-2,1v1h-2v1h-1v1l-1,1v-1h-1v1h-2v-1l-1,2l-1,1h-1h1l-1,1h-1v2h-4l-1,1h-1l-1,-1v1h-2l-1,-1l-1,1h-1v1h-1v-1h-1l-1,1h-4l-1,-1v-1l-1,-1l1,-1v-1h-1v1h-1v2l1,1l-1,2v1h-1v1h-2v-1l-2,2v1l-1,-1l-1,1h-1v-1h-1v2l-1,-1h-1l-1,-1v1h-1l-2,2h-5l-2,2h-1v-1l-2,2v2h1v1h-1l1,2v1h-1l-2,1l-1,-1v-1h1h-1v-4h-1l1,-1v-1l1,-1v-1h1v-1h-1v-1v1l-1,-2v1l-1,1h-3l1,-1l-1,-1h-1l-1,-1v-1l-1,-1v3l-1,-1v1h-4l-2,2h-1v2l-2,1v-1h-3v2l-2,2v2h-1l-2,2h-1l-2,3v1l-1,1l-1,2v5l1,2l1,1l1,2v2h-1l1,1l1,3l1,1l1,2v1l2,2v1l1,1v1h1v1v-1h1v1l1,1v2l1,1v2l1,1v1h1v5l1,1v8l-1,2l1,1l-1,2l1,2v4l-1,-1v-1v1h-1v2l-1,3l1,1l-1,1v-1v3h-1l-1,1v1h-1l-2,2h-1l-1,1h-1l-1,2h-1l-2,1h-1l-1,1h-1v-1h-1v-1l-1,1v1l-1,-1v-1l-1,1h1v2h-1l-1,-1l1,1h1v1l-1,1v1h-1l-1,-1l-1,-2l2,3v2l-1,1l-1,-2l-3,-3l2,3v3l-5,2v1l-3,3h-2l1,-2v-3l1,-4v-2h1l1,-1l-1,-1h-1v-1h-1v-1l-1,-1l-1,-2h-2l-1,-1v1h-2v-1l2,-2l-1,-2h-1v1h-2v-7h-1v-3l-1,-1h-1v-1l-2,-2v-1h-1v-1h-3l-2,-1h-1v-1l1,-2v-3h1l-2,-2h-3v1h-1l-1,1l1,1v1l-1,2v1l-1,3v2l-1,1l-1,2v1l-1,1l-1,2v1l-2,5l-1,1v2l-1,2v3l1,2h-1v1h1v1l2,-1h1v7l1,1v-1v3l1,8v1v-2l-1,-1v-2h-1v2l1,2v1h1l3,3h2l2,2v2l2,3v1l-1,1v1l-1,1l-1,-1v-1l-1,1h-2v1h-1v-2l1,-1v-2h-1l-1,-1v-2l-1,1v-1h-1l-1,-2l-1,1v1l-1,-3l-1,-1v-2h-1v-1l1,-1h-1l-1,-1v-2l-1,-1v-1l-1,-1v-1h-1v-2l-1,-1v1l-1,1v-1l-1,-2v-1l1,-2v-1l4,-11l-1,2v-6h1v-2h1v-3l1,-1v-2l1,-1h-2v-1h1v-5l1,-1v-8l-1,-3v-2l-1,3v-3l1,-1l-1,-2l1,-1l-1,-2h1v-1h-1v-1l1,-2v-9l1,-1v-2h1h-2v-2l-1,-2l1,-1l-1,-1v-1l-1,-1h1v1h-1v3l-1,1v1l-1,1h-2v-1h-1l1,1v1h-2v1h-2v1l-3,3v-2l1,-1v-1v1l-2,2v-1h-1v-2l1,-1l-1,1v1h-1v-2l1,-2v-1v2h-1l-1,1v1h-1v-1l1,-3v-1h1v-2l1,-1v-1l2,-4v-14l-1,2h-1v-4l1,1h1l1,-1l-1,-1v-2h-1l1,-1v-1h-1v-1h-1v1l-1,1v-3h1h-1l1,-2l-1,1v1l-1,-1h1v-2l-1,1v-1l-1,-2v-5l1,-2v-4l1,-2v-6h-1v1h-1l-1,1h-1v-5l1,-1v-2l1,-1h-1v1h-1v1h1v1l-2,2v2l-1,1v3l-1,1h-1v2h-2l1,-1v-1l1,-1l-1,1h-1v-1h1v-1l1,-1h-1v1l-1,1v1l-2,2v-2l1,-2l-1,2v1h-1v1h-1v-1l-1,1v-1l-1,1v1v-2l1,-2v-1l-1,2l-1,1v1h-1v-1v1h-1v-2l1,-2h1l-1,-1v-1v1l1,1h-1v1l-2,2h-3l-2,2v1l-1,1v3l-2,2v1l-2,1v1h-1v1h-1l-2,1h-1v-2l-2,2v1v-1h1v1h-1l-3,3v1l-4,4v1l-3,2l-1,2l-2,1l-1,1l-2,1l-1,1v1l-1,1v2l-1,1l-2,1l-1,-1l-1,1l-1,3h-1v1h-1l1,-1h-2l-1,1l-1,3l-1,2v5l-1,1v3l-1,1v1l-1,1v1l1,1v1l-2,5v2l-1,1v1l-2,4v2l-1,1h1v2l-2,7h-2v2l-2,3v3h1v1l-1,-1l-2,1l-1,1l-1,2v3l-2,1l-1,1v-1l-1,-2v-1l-1,-4v-6l1,-2v-1v-29h1v-6l1,-1v-11l1,-2v-8l1,-3l1,-6l1,-3v-1l1,-2v-3l1,-1v-3l1,-1v-2l1,-1l-1,1v1v-1l1,-1v-3l1,-2v-1l1,-2l2,-3v-3l1,-1v-3l1,-1v-1h1v-1h1h-2l2,-4v-1h-1v1l-1,1v1h-1v3l-1,2l-2,2h-1l-1,1h-1v-9l1,-2v-4l1,-1v1h1v-1v1l1,-1h1l1,-2v-1h1v-1v1h-2l-1,1v-6l1,-2v-1h1v-1l-1,1h-1l1,-1v-1v1v-1h-1v-2h1h-1l1,-1v-2l2,-3l-1,-1v-1l1,-1v-1l1,-2v-1v1v-1h-3l-1,1v-2l1,-1l-1,1v-1h-1v1v-1h-1v-1v1h-1v-1l1,-1l1,-2v-1l1,-1v-1l1,-1v-1h1v-1v1v-1h1v-1h1l2,-2v-1l1,-1h-1v-1l1,-1v-1l2,-4l1,-1v-2l1,-1v-3l1,-1v-1l1,-2l1,-1v-1l1,-1v-2l3,-3l1,-2l2,-2v-1l1,-2h1v-3l1,-1v-1l2,-2v-1l2,-2v-2l2,-2v-1l2,-2v-1l1,-1v-1l3,-3v-1h1v-1h1v-1h1v-1l2,-2v-1h1v-1l1,-1v-1h1v-1h1v-1l2,-2v-1l1,-1l-1,-1l2,-2v-1l1,-1v-2h1v-1l1,-1v-2l1,-1v-2h1v-1h-1h1v-1h-1v1h-1v1l-2,1v1v-1l1,-2l2,-1v-1l2,-2v-1h1v-1l3,-3v-1h1v-1h1v-1l-1,1l3,-3v-1h1v-1v1h-1l4,-4v-1l3,-3v1h-1v1l-1,1v1v-1h1v-1h1v-1h1l1,-2l1,-1v-1l1,-1h1l1,-2v-1v1h-1l-1,2l1,-1v-1l6,-6v-1v1v-1h1v-1h1v-1h1v-1l6,-6v-1h1v-1h1v-1v1h-1v1l5,-5h1h-1h1h-1v1l5,-5l2,-1v-1h1v-1h1v-1h1v-1v1h-1l2,-2v-1h1h-1v1h-1h1h-1v1h-1l-1,1v-1v1h-1h1h-1v1h-1v1h-1h1h-1v1v-1l-1,1l1,-1l-5,5v-1v1l-1,1l11,-11h1l11,-11h1l7,-7h1l3,-3h1l3,-3h1l6,-6h1l4,-4h2l4,-4h1l4,-4h2l4,-4h1l2,-2h1l1,-1h1l3,-3h1l2,-2h1l1,-1h1l3,-3h1l1,-1h1l1,-1h1l2,-2h1l2,-2h1l1,-1h1l2,-2h2l2,-2h1l2,-2h2l2,-2h1l1,-1h1l1,-1h1l1,-1h1l1,-1h1l1,-1h1l2,-2h1l1,-1h2l2,-2h2l1,-1h1l2,-2h2l1,-1h1ZM115,182v-1l1,-1v-1h1l1,-1v-1l8,-8v-1l10,-10v-1l8,-8l-2,1l-1,2l1,-1l-4,4v1h-1l-1,1v1h-1l-3,3v1l-5,5v1h-1v1h-1l-1,2l-2,2v1h-1l-3,3l-1,2h-1v1h-1v1l-1,1v1v-1h1h-1v1h-1l-2,3l1,-1v-1l2,-2Z"/>
<path class="sp" d="M346,24h2l1,-1h2M314,36l1,-1h2l1,-1h1l1,-1h2l1,-1h2l1,-1h1l1,-1h2l1,-1h2l1,-1h2l1,-1h2l1,-1h2l1,-1M148,145l11,-11h1l11,-11h1l7,-7h1l3,-3h1l3,-3h1l6,-6h1l4,-4h2l4,-4h1l4,-4h2l4,-4h1l2,-2h1l1,-1h1l3,-3h1l2,-2h1l1,-1h1l3,-3h1l1,-1h1l1,-1h1l2,-2h1l2,-2h1l1,-1h1l2,-2h2l2,-2h1l2,-2h2l2,-2h1l1,-1h1l1,-1h1l1,-1h1l1,-1h1l1,-1h1l2,-2h1l1,-1h2l2,-2h2l1,-1h1l2,-2h2l1,-1h1l1,-1M115,181l1,-1v-1M118,178v-1l8,-8v-1l10,-10v-1l11,-11M112,184l2,-2"/>
<path class="sl" d="M12,389h1h-1v1Z"/>
<path class="sp" d="M12,391v-2"/>
<path class="sl" d="M175,467v3l-1,-2v-1l1,-1ZM191,483h-1ZM196,469h-1ZM209,379v1v-1h-1l1,-1ZM214,377l-1,1l1,-2ZM213,379v-1h1v1ZM210,380l-1,-1h1ZM676,694v3h1l1,-1v-1h1h-1v1l1,1v2l-1,1h-1l-1,1h-1l1,-1h-1v-3l-1,-2v-1l1,-1v1ZM680,704h1v1h1v1h1v1h-2v1h-1v-3l-1,-1v1l-1,-1l1,-1v-1l1,1ZM688,709h-3v-1h1l1,1ZM687,706h-2l-1,-1h1l1,-1v1h1ZM687,715v1h1l-1,1h-2v-1v1h-1l1,-1v-1h1ZM685,699h-2l2,-2ZM686,703v-3l1,-1v4ZM687,698h-1l1,-3v2ZM679,701h-1ZM683,689v1h-1v-1l1,-1ZM683,687h-1v-2h1v1ZM695,735h-1ZM692,730v1h-1v-1h-1l1,-1h1ZM692,726h-1l-2,-1h1v-2h1v1h1l-1,1h1ZM131,199v-1l1,-1v1h-1ZM132,199h1ZM651,526h-1ZM438,492l-1,1v-1h1v-1ZM554,511h-1ZM611,514h-2l1,-1h1ZM704,518v-1h1v-1v1ZM697,506h-1ZM719,506v1h1h-1ZM715,506h1ZM680,473h-1ZM495,460h-1v-2h1v-1h1l-1,2ZM836,675h-1h1v-1h1h-1ZM773,94l-1,-1h1ZM775,95h-1v-1h-1h1ZM760,86v1h-1v-1ZM732,84l-1,-1ZM736,86v-1h-1h1ZM729,87l-1,-1h1ZM720,88h-1v-1ZM731,118v1h-1v-1ZM736,120h-1v-1v1ZM734,119h1v1v-1v1ZM721,131v-1ZM693,148h-1ZM651,68v-1ZM652,82h1l1,-1h2l1,1h5v1h-2l1,1h-1v-1h-3l-1,-1h-2v1h-2v-1h-1v-1ZM685,95h2v1h1v1h1h-1v1h1h-2l-2,-1h-2l-1,-1h2v-1ZM734,101h1v-1h1v1h2v1h-2l1,1v-1l1,1v1h-1l1,1v1h1v1h-1v-2h-1v1v-1h-1l1,1h-1l-1,-1l-2,-1l-1,-1h1v-1l1,1h1v1h1h-1v-1l-1,-1h-1l-1,-1h2l-1,-1h1ZM723,122l2,1h1v1h-1l-1,1h-1v1h-2v-3l1,-1ZM780,99v1h1v1l-1,-1v-1h-1ZM784,100h1l1,1h-1v-1h-1l-1,-1ZM776,95l2,1h-1h1h-2v-1h-1v-1l-2,-1h1v1h1ZM782,97v1l1,1h-1v-1v1h1v1v-1h-1v-1h-1l-2,-2h1v1h1ZM769,92h2l1,1h-1l-1,-1v1h2v1h1h-1l-1,-1h-1l-1,-1h-1ZM785,102h-1h2v1h-1v-1h-1l-1,-1h-1v-1h-1h1v1h2ZM729,84h1v1ZM731,88l-1,-1v-1h-1v-1h-1h1l2,2ZM727,85h1v1h1h-1v-1h-1v-1ZM724,83h-1ZM739,104v1h-1v-1ZM731,97h-1v-1h1ZM734,101h-1l-1,-1h1ZM741,113h-1v-1ZM739,109v-1ZM740,108h-1ZM730,119v-1v1h1v1h-1v-1h-1v-1h1ZM728,122h-1ZM730,125h-1ZM733,119v1l1,1l-1,-1v-1h-1ZM721,129h-2v-1h1ZM721,128h-1v-1ZM710,101v1l-1,-1v-1ZM665,98h-2v-1h1ZM690,114h-1l1,-1ZM713,138v1h-1v-1ZM711,140v1h-1v-1ZM705,143h1ZM694,117h1v-1v1ZM692,148v1l-1,-1ZM692,147h-1v-1h1ZM688,149h-1l-1,1v-1h2v-1ZM669,150h-1v-1h1ZM675,153h-1l-2,-1h-1l-1,-1l1,1h2l1,1ZM645,149h-1v-1h1Z"/>
<path class="sl" d="M765,91l1,1h2l3,3h1l1,1h1h-1l-1,-1h-1l-1,-1v1v-1h-2v-1h-1l-1,-1l1,1h-1l-1,-1v-1h-1v-1ZM760,87h1l1,1h1l1,1l-1,-1h-2v-1v1h1l1,1h2v1h1v1l1,1h1h-1v-1l-2,-1h-1l-1,-1l-2,-1l-1,-1h-1l-1,-1l1,1ZM758,87l1,1h1h-1h2l1,1h1v1h1h-1l1,1h-1l-1,-1h-2l-1,-1v-1h-1h1h-1ZM774,95h1v1h2l2,2h1v1h2v1h1v-1v1h1l1,1h1v1l-1,-1h-2v-1v1h1l-2,-1h-1v-1h-1v-1h-1v1v-1h-1l-2,-2v1h1h-1l-1,-1ZM770,93h1v1h1v1h1l1,1h1v1v-1v1l-2,-2h-1l-1,-1h-1v-1h-1ZM732,98v-1h1v1h1h-1l1,1h-1v1h-1l-1,-1v-1h1h-1v-1h1ZM717,134v2l-1,1v1h-1l1,-1l-1,-1v-1h1h-1v-2h2ZM719,130v1v-1h1v1h1v2h-1l-1,1v1l-1,-1l1,-1v-1h1h-1v-1h-2v-1h1ZM702,145h1h-2ZM697,146h-1l1,-1h1v-1h-1l1,-1h1v2ZM690,148h1v1h-1v1l-1,-2h1h-1v-1h1ZM686,150h-1v-1h-2v-1h1l1,1h1ZM674,149v1h-1v-1ZM664,151h-1v-1h1v-1v1ZM639,145v1l1,-1l1,1h1h-1v1h-2v-1h-2l1,-1ZM905,376l-1,-1l-2,-4v-3l-1,-2v-1l1,1l2,1l2,2v1h1v2l-1,1l-1,2ZM893,359h2v1h-2v-1h-1ZM897,361v-1l1,1h1v2h-1l-1,-1h-1v-2ZM889,358h1v-1v1l1,1h-2v-1v1h-1l-1,-1v-1h1v-1l1,1ZM881,355v1h-1v-1h-1v-2h2v1ZM878,357h-1v-2h1v1ZM895,362v1v-1l-1,-1h1ZM913,219v-1ZM917,224l-1,-1h1ZM914,219h-1v-1v1ZM913,218v1ZM830,127v1v-1v1h1h-1ZM831,128v1v-1h-1ZM833,130l1,1v-1v1h1h-1v-1h-1v-1h-1ZM840,136h-1v-1v1ZM838,134v1ZM837,133h-1ZM832,129h-1v-1v1ZM26,585v1v-1v1v-2ZM44,294h1v-1v1ZM44,296v-1ZM45,294v1ZM111,188h-1l2,-2ZM333,640l-1,2v-2ZM329,651l-1,-1v-1h1v-2l-1,1l-1,-1l2,-2v-1h2l3,-1h9v-1h1v1h2l-1,2l-2,1h-2l-1,1h-2l-2,2h-2l-3,1l-1,1ZM320,649h2l2,-1v1h-1v1h-2ZM167,454v1ZM167,451h-1v-1ZM138,483v1h-1v-1l1,-2v1ZM150,469h-1v-1h1ZM149,470v1ZM144,496v-2l1,2ZM139,483v-1ZM138,473v-1ZM142,486v1h-1v-1ZM136,191v-1ZM130,199h-1v-1h1ZM310,373l-2,2v3l-1,1l-1,-1v-3l-2,-2v1v-5h-1v-1h1v-3l1,-1l4,-7l2,-1l2,-2v-1h1l2,-1l1,-1h1v1l1,1h1v1l-2,2v2l-1,2l-1,1v1l-1,1v2l-2,4v1h-1l-1,2ZM294,356v1h-1v-1ZM52,448h-1v-1h1ZM51,453v1l-1,-1v-1ZM52,447h1v2l1,2v4h1v8l1,3v8l-1,1v2l-4,4h-1l-1,-1l-1,-2v-6l1,-6v-4l1,-3v-3h1v-3l1,-1v-3l1,1v-1l-1,-1ZM382,277v1l-1,-1l1,-1h1ZM378,277v1h-1v-1h-1v-1h2ZM365,280h-1v-1l1,-1h1v1h-1ZM372,254v1h-1v-1l1,-1ZM368,280h-1ZM376,278v1l-1,-1ZM369,263v1v-2ZM365,277h-1v-2l1,1Z"/>
<path class="sl" d="M401,257h-1ZM363,289l-1,-1h1l1,-1l2,-1h1l1,1v1h-1l-1,1h-1ZM622,645h-1v-1ZM680,669h-1l-1,-1h1ZM674,661l-1,1h-1v-1h1ZM628,672v1l-1,-1h-1v-1h-2l-1,-1h1l3,1ZM637,654v1h-1v-3ZM618,651h-1v-1h1ZM626,649h1v1h1v1h-1v-1h-2ZM606,644h1v2l-1,1v-1h-1v-1h-1v-1h-1l-1,1v-1h-1h1v-1h1v-1l1,-1l1,1v2ZM610,648h-1l1,-1ZM609,647l-1,1h-1v-2h2ZM603,648h-1l-1,-1l1,-1v-1h1v1l-1,1ZM597,641h-1v-3l2,2ZM596,643v1v-2ZM601,643h-1l-1,-1v-1h2v1ZM590,635h-1v-1h1ZM605,648h-1ZM622,652l2,1h3l2,1h1v1h1v1l-1,1h-2l-1,-1h-4l-2,-2v-2ZM624,645v1l-2,-2l-3,-1h-1l-1,-1h-1l-4,-4h2l2,2h2l1,1h1l4,3h-1ZM604,636v1h-1v-1h-2l-2,-1l-4,-4l1,-1l2,2l2,1h1v1l2,2ZM631,643l2,3v2l2,2v2l1,1v1h-1l-1,-2h-1v-1l-2,-2l-1,-3l1,-1l-1,-1h1ZM638,660l1,1h3l1,2v1h-2v-1h-2l-2,-1v-1h-1v-1h-1v-1h1ZM169,545h-2l1,-1h1l1,1ZM827,669l1,1v1l-1,1h-2v-1h-1v-1h2ZM832,673l-2,1l-1,-1h-1v-1h3v1ZM503,215h1ZM506,213v1ZM504,215h1ZM459,137l-1,1h-1l1,-1ZM523,115v-1h1ZM438,47h-1ZM451,45h-1v-1h1ZM436,28h-1h2ZM432,31h1ZM414,31h1ZM411,32h-1h1l1,-1v1ZM436,23h1ZM367,34l1,-1v1ZM378,34h1ZM383,34h1ZM389,33h1h-2ZM425,12h-1ZM421,10v1h-1v-1v1h-2v-1h2ZM421,11h-6v1v-1h5ZM384,24h-13l-1,1h-6l-1,1h-4v1h-2v-1h1h-1h1l2,-1h2l1,-1h4v-1h4v-1h1v1h1v-1h1v1l1,-1h15l-1,1h-3l-1,1ZM356,27h-1l-1,1h-4v1h-3l-1,1h-2v1h-3l-1,1l-2,1h-1l-1,1h-2v1v-1h1h-1h1h-1v-1h1l1,-1h2l1,-1h2v-1h1h-1h1h-1h1v-1h2l1,-1h5v-1h4v-1h3ZM442,19h-1v1h-2v1h-7v-1h4l1,-1h-1h5ZM437,22h-2l-1,1l1,-1h2v1h-2v1h-3v1h-4v-1h-1h1h-1v-1h1v-1h4l1,-1h1v1v-1h1v1h1ZM437,25h-1l-2,1l1,-1h2v2h-3l-2,1l-1,-1v1v-1h-4l-1,1l-1,-1h3l1,-1h3v-1h3l1,-1v1l1,-1h1v1ZM489,39v1h1v-1h1v-1h2l1,1h2l4,1h-1v1l-1,1h-3v-1h-1v-1h1h-2v1l1,1h1h-1v1h-1v-1h-4l-1,1v-1h-1v1h-4v-1h-1v-1h-1h1v-1l1,-1h1h-1l1,-1h4v1ZM503,41h8v1h1v-1v1h-1l-1,1h-4l-1,-1h-2l-1,-1v-1h1ZM591,54h-1l-1,-1v-2h1l3,2h-2ZM487,142l1,1v1l-1,1v1l1,2l1,1v5h-1v4h1v2h1v2l1,4v2l2,4v2h1v1l2,2v1l-3,-3h-1l-1,-1h-2l-1,1h-1v1l-1,1l-2,4v2l-1,1v1h1v2h1l1,1v2l1,1h1l1,1v4h-1v-3h-3l-1,-1h-1l-1,1v1h-1v2l-1,1h-1v-5l1,-2v-5l1,-1v-4l-1,-1v-1l1,-2v-3h1v-9l1,-1v-1l-1,-2l-1,-1h-1v-1h1h-1v-3l1,-1v-2l1,-2h-1v-2h1l1,-1v1h2v-2h1v-1l-1,-2h1v-1Z"/>
<path class="sl" d="M592,50h2v1h3v1h-1l-1,1h-2l-2,-2h-1h1v-1ZM307,39v1v-1h1ZM340,31h-2v1h-1l1,-1h2v-1h1l-1,1l1,-1ZM612,138l-4,-2h2l1,1ZM543,57h-1ZM550,65l-1,-1h-1v-2h1v1h-1h1v1h1ZM516,38h-1ZM508,36h-1ZM480,55h-1ZM437,29h-1l-1,-1h2ZM437,34h-1ZM411,32h-2v-1h1v1l1,-1ZM415,29h-1h2ZM408,27h1ZM361,35v-1h2v1h-1ZM366,34v-1h2l-1,1ZM379,34h-1ZM329,42l-1,1v-1ZM337,39h-1h1l1,-1ZM307,54l1,-1h1v1h-1ZM414,12h1ZM413,12h1ZM422,11h1ZM416,13h-1ZM417,12h1ZM413,14h1ZM422,12v1h-2l1,-1h2ZM152,141l1,-1ZM323,36h-1h1h-2l1,-1h2v-1h2l-2,1ZM420,14h1v-1h1v1h1l1,-1h1l-1,1h-3ZM414,14v-1h3l-1,1v-1h-1v1ZM421,13v1h-4l1,-1h2ZM422,13h1ZM415,13v-1h1ZM416,13h-1ZM427,12h-3v-1h1l-1,1l1,-1h2ZM423,12h-3v1h-1v-1h3l1,-1ZM428,13v-1h1h-1ZM428,11h1v1ZM429,22h-1l1,-1h2v1h-1ZM438,18l-1,1l-1,-1h1ZM489,46h-1l-1,-1h3ZM492,46h1l2,1v1h-8l2,-2h2ZM479,40h-1h1v-1h1v1h-1h1ZM478,46l-1,-1h-1v-1l1,1h1ZM463,137v1h1l-1,1h-1v1h-1v-1h-2l2,-2ZM570,61h-2l-1,-1h-1v-1h1l3,1ZM582,115l-1,1v-1l1,-1h-1v-1h2l1,-1h1v2h-1l-1,1ZM604,136l1,1h-1v-1h-2l-2,-2h-1l1,-1l1,1h1l1,1v1ZM553,174h-1v-1l1,-2l1,1l-1,1ZM561,165h-1l-1,-1l1,-1h1v1ZM558,167v1h-2v1h-1v-1l-1,-1h2l2,-2v-1h1v2ZM550,177v1l-1,-1h1v-1l1,1ZM556,164l-1,-1h1ZM545,184v1l-1,-1ZM539,190l-1,1l2,-2h1ZM526,199h-1l3,-3l2,-1h1l-3,3h-1ZM520,201l-1,1h-1l-2,1v1h-2v1h-1l-2,2l-2,1l2,-2v-1h1l1,-1v-1h1l2,-2v1h2l2,-2h1v1ZM508,213v-1h2ZM505,207l1,1h1l-1,1h-1l-2,1l-2,2v1h-1v-1l2,-1v-1l1,-1ZM429,41h-1v1h-3v-1h1l1,-1l1,1ZM416,19h-1ZM428,17h-1h2ZM360,33h-1l1,-1h2v1h-1ZM359,38v-1h2v1h-1ZM364,37l1,-1h1v1h-1ZM388,30h-1l-1,1l1,-1h-1h1ZM329,38h-1l-1,1v-1h2v-1h1l1,-1h1l-1,1h-1v1ZM52,278v1l-1,1v1h-1v2h-1v1l-1,1v2h-1v1l1,-1v-1l1,-1v-2l2,-2v-2Z"/>
<path class="sp" d="M47,289v-1l1,-1v-1l1,-1v-2l2,-2v-2l1,-1"/>
<path class="sl" d="M305,407l1,1l3,2h1l1,1l2,-2h1v2l-1,1v1l-1,2v3h1v2h1v2l-1,1l-3,6h-2l-2,2v2l-2,2v2l1,2v2h1h-1v2l1,2v2h1l1,1h2v-1h-1v-1h1l1,-1h3v1h1v1l1,1v2h1l1,-1l-1,-1h1l1,1h2l1,1l-1,1h-2l1,1v1l1,1v2h1l1,1h1l-1,2v2h-1l-1,-1v-1l1,-1h-3l-2,-2v-1l-1,-1v-1l-2,-1v-1l-2,-2v-1h-1v3l1,1v2l-1,1v-2l-2,-2l-1,-2l-2,-1h-1l-2,1v1h-3v-1h-1l-1,-1l-1,1v-4l1,-1l2,-1v-2h-1v-1h-1l-1,-1v4h-1l-1,-1v-2h-1l-1,-1v-9l-1,-1v-2l1,-1v1h1v1l1,1h2v-6l1,-2v-3h1v-1l-1,-1v-1l2,-4l1,-1v-2h1l1,-1h1ZM267,493l-1,1l1,-1v-1l1,-1v-1l1,-1h1l2,-2h1v-1h1l2,-2l1,-2l2,-2h1v-1l2,-1v-1h1l1,-1v-4h1l1,-2v-1v6l1,1v1h-1v1h-2v1h-1v1l-2,1h-2v2l-2,2v1l-1,1h-1l-2,2v1h-1l-1,1h-1l-2,2ZM310,468v1h3v1l1,-1h1v1l-1,1v1l-1,1v1h-2v1l-2,2h-3l-1,1h-1l1,-1v-3l1,-1v-6h-1v-1h1l2,1l1,1ZM313,491h-1l-1,-2l-1,-1h-1v-1l-1,-2v-2h2l1,-1l1,-2v-1l-1,-1h1v-1h1v-2l2,-1l2,1v3l-2,2v2l-1,1v2l-1,1l2,3l-1,1v1ZM326,472h1l1,-1l1,1v5h1v3l1,1v1l-1,-1v1h-1v-1v2h-1l-1,-1v-6l-1,-1l-1,1v-1l-1,-2v-3l1,1h1ZM332,462v1h1l-1,1h2v2l-1,1v3l1,2v1l1,1v1v-1h-4l-1,-1v-1l-1,-1v-3h-1v-1l-1,-1h-1v-1h-1v-3l-1,-1l3,1h2l2,-1ZM297,451h2v1h2v1l2,2v1l-1,1l1,2v1h-1v1h-1v1l-1,1l-1,-1v-1l-1,-1v-1l-1,-1v-2l-1,-2l-1,-1v-1h-1v-1h1ZM336,490l1,1h1v1l1,1v1l-1,1v1h-1v1h1l1,1v5l1,1v5l-2,2h-1v5h-1v-4l-1,-1v-2l-1,-2l-1,1v1h-1v1l-2,2v1h1v1h1v6l-2,2h-1v-4h-1l-1,1v1h-1l-2,-2l-4,-2l-1,-1v-7h1l1,-1v-1l-1,-2h-1l-2,-1v-1h-2v1l-1,3l-1,-1v-1h-1v-1v1h-2v-1l-1,-1h-1l-1,1v1l-1,2l-2,2v1h-1l-1,-1l1,-1v-1l1,-1v-4l1,-1h1l1,-1h4l1,-1v-2h2v-1h1v-1l1,1h1l1,1v1h1v2h-1l-1,1h2v-1h2v-1l1,-1v-1h4v-3h2l1,1v-1l1,-1l1,1h1v-7h1v1l2,1l1,1ZM315,488v-1l1,-3v-1l1,-1v-2l3,-3v-3h1v-1l1,-1v1l-1,1v6h-1v1h-1l-1,1v1l-1,1l-1,3ZM312,405l-1,1v-1l1,-1ZM309,401v1l-1,-1ZM314,393h-1l1,-1ZM314,389l-1,1v-1ZM296,516v1h2l-1,1l-1,-1l-1,1v-1h-1v-1h1ZM265,498v1l-1,-1v-1l1,-1ZM289,477h-1l-1,-1h2ZM291,462l1,1v-1v1h1v1h-3v-2h-1h1v-1ZM290,466v1v-1l-1,-2h1l1,1v1ZM310,478v1h-1v-2h1v-1h1v1ZM325,485v1h-2v1h-3l-1,-1v-2h1l2,-2h2v1h1ZM289,523h-2l-1,1h-1v-1h1l1,-1h1ZM304,513h-2v-1h-1l1,-1h1l2,1ZM337,486h-1l1,-1v-1l1,1h-1l1,1ZM334,485v-1h-1v-3h1v-1v4ZM294,449l-1,-1ZM306,451l1,1v-1l1,1v1l-1,1h-1v-2Z"/>
<path class="sl" d="M307,462l-1,2v-4l1,-1v1ZM311,463l-1,-1v-1h1v1h1ZM317,458v1h-1v-1l-2,-2h1l1,2ZM320,462v1v-1l-1,-1v-1h1ZM320,463l1,1l1,2v2l-1,-1h-1v-1h-1h1l-2,-2h-1l-2,2v-1l1,-2v-3l1,1h1v1h1ZM326,452h-1l-1,1l-1,-1v-1l1,-1v-2h1v1h1v2ZM309,447v1l-2,-2ZM309,439h-1v3h-1v-1h1l-1,-1v-2h1ZM323,478l1,-1v1ZM331,484l-1,-1v-1v1ZM311,505v1h-1v-1ZM334,511h-1v-2h1ZM326,471h-1v-1l-1,-1h2v1ZM326,491v1l-1,-1v-1h1ZM307,403v1h-1v-1l1,-1ZM289,468v1h-1v-1ZM319,472l1,1h-1ZM309,460l-1,1v-1ZM336,488v-1ZM328,470l-1,-1h1ZM267,495v-1ZM318,490v1h-2v-1l1,-1ZM566,615l-1,1v-1h-1v-1l-1,-1v-4l-2,-3h-1l-1,-1h-1l-1,-1h-1l-2,-2h-1l-1,-1l-3,-2h-2v-1h1l-1,-1l2,1l2,2h2l1,1h1l1,1l2,1l3,3l6,5v1l-1,1v1ZM557,612l1,-1l1,1h2v3l-1,1v1h-1v1h-2v1l2,2l-1,1h-5v2h-1v1l-1,1h-3l-2,2h-1l-1,1h-7l-1,-2h-2l-2,1v-1l-2,-1l-1,-1h-3v-3h6l1,1h2l2,-1h3v-4h2l-1,1v3h7v-1l1,-1v-1h1l2,-2h3v-2l-1,-3h-1l1,-1h2ZM462,653v-19l-1,-1v-1l1,-2v-32h1l5,2h1l1,1l2,1l6,2h5l2,2h1l2,2h5v2h2l2,2v1h3l3,4h1v3l-1,2h2l2,1h2l5,3h4l2,2v1h1v3l-1,1h-5l-1,1l2,4v1h1l4,4h1l2,1v2l1,1v1l1,1l1,2l1,1h5v4h2l3,1h2v1h-2v1l2,2h4l1,1h2h-2v1l-2,-1v1h1l1,1l-1,1h-4l-2,-2h-2l-2,-1h-4l-1,-1h-1l-2,1v-1h-6v-1h-1v-1l-2,-2h-1l-3,-3v-1l1,-1h-3v-1l-2,-2l-1,-2l-1,-1v-1h-1v-1l-2,-1h-3l-2,-1h-3v-1l-1,-1h-3v1h-5v-1h-1v-1h-1l1,1l2,3h-1v1h-1l-1,-1h-1v1l1,1h-2l-1,1h-7l-1,-1h-1h1v1h4l2,1l3,3v1l-2,1h-1l-4,2h-1l-1,-1h-11ZM523,625h-1v-1l-1,-1v-1l2,1v1ZM506,616h-1l-1,-1l1,-1l1,1ZM563,602l-1,-1h1ZM558,600v1l-1,-1v-1ZM538,588v1h-1l-1,-1v-1h2ZM549,660l1,-1h1l-1,2l-2,-1l-2,-2v-1l1,1l2,1ZM543,656h-1l-1,-2v-1l1,1h1v1ZM549,649v1v-2l-1,-1h1l1,1ZM576,670v1h-2v-1h1ZM484,647h-1l-1,-1l2,1h1ZM516,622h-1l-1,-1v-1h2v1ZM515,592l3,1v-1v1h-1l-1,1h-6l1,-1v-1h2ZM544,598h-2l-1,-1h-1v-1h4v1ZM544,654l1,1h1l1,1v1h-4l1,-1l-1,-1v-1ZM562,651h3v2h-2v-1h-1l-1,-1ZM569,671l2,1v1h-1l-1,-1h-2l1,-1h-1v-1h1ZM485,649h-2l-1,-1v-1h-1h1l1,1ZM522,595h-1ZM557,599v-1h1v1ZM547,664v1h-1v-1ZM572,610h-1l1,-1ZM591,631v1h-2v1h-1l-1,-1h-1l-1,-1v-3h-2v-2h-1l-1,-1v-4h1v1h2l1,2l1,1l1,2h1l2,2h1v1ZM580,621v-2l-1,-1l1,-1v1h1v2ZM377,547h1ZM407,510l-1,-1h1v-1l1,-1v2h-1Z"/>
<path class="sl" d="M32,333v-2l1,-1v1l-1,1ZM414,8h1ZM418,7h-1l-1,1h-6v1h-1l1,-1h5l1,-1h1ZM430,6h-1h1h-4v1h-3l1,-1h5v-1h2v1ZM432,5h-1h1h-3v1h-7v1h-7l-1,1v-1v1h-1l2,-1h5v-1h6l1,-1h7v-1h1v1h-7l-1,1h-1h1l2,-1h4ZM429,5h-3v1l1,-1h3ZM432,5h1ZM414,9h-1h1v-1h1h-1ZM365,240v-1ZM675,876h1l1,-1h1l1,-1h1v1h-1v1l1,-1h1v-1h1v1h-1l-1,1h1l1,-1h1h-1v1h-2v1l-1,1h1v1l-2,1l-1,1h-1l-5,5h-1l-1,1h-2v1h-1v1h1v1h1v1h-2v-1l-1,1h-1l1,-1h-1v1h-1v-1h-1v1l-1,1h-2v1h-2l-2,2v1l-1,1h-1h1l-1,1h-1v1l-1,1h-1l-1,1v1h1h-1l-2,1h-1l-1,1l-2,1l-1,1l-3,1h-2l-1,-1v1h-2v-1h-2l-1,-1h-5l2,-1h-1l-1,1v-1h1h-2l1,-1h2v-1h1h-1v-1h2l1,-1h-1l1,-1h1h-1l2,-1v1v-1h1v-1h2v-1l2,-1h1l2,-2h2l1,-1h2l1,-1h2l1,-1h1h-1l2,-1l1,-1h1v-1h3v-1h1l1,-1v1h-1h1v-1l1,-1h1v-1h1v-1h1v-1l1,-1h1l2,-2h1l1,-2l2,-2l2,-1l1,-1h1l-1,1l1,1v1ZM681,873l-1,1v-1ZM627,903h-1l1,-1ZM630,900v1h-1v-1ZM632,908v1h1h-1l-1,1h-2v-1h1v-1h1l1,-1ZM699,868l-2,2h-1l-1,1v1h-1l-2,2h-1l-2,2l-2,1h-1v-1h-1v-1l-1,1v-1l1,-1l2,-1l1,-2h1l1,-2v-1h-1v-1h-2l-1,-1h-2v-2l1,-1h1l2,-1h1l2,-2v-1l1,-2h1l1,-1v-1h1v-4h1v-1h1h-3v-3l1,1v-2l1,-1h-2l-1,-1v1l1,1h-1v-1l-2,-4h1l1,-1h-1v1h-1v-1h-1v-1h1v-1l-1,-1v-1l-1,-1h2v2h1v1l1,-1v1h3v2h1v-1h1v3h-1v2l1,2h-1v2l-1,1h3v2h1v16Z"/>
<path class="sp" d="M700,851v16"/>
<path class="sl" d="M623,934h-1ZM612,927v1h-1v-1h1v-1h1v1ZM684,575h-1v-1h1ZM26,487v1ZM147,497v-1l1,-1l1,2h1v1l1,-1v2l1,1h1v2l-1,1v2h1v-1h2l1,-1v1l1,1l1,-1v-1l1,-1v-1h1l1,1l2,5h1v1l2,2l1,4v4l-1,5v1l1,2l-1,1v5h1l2,2v3l2,5v3l-1,-1v-1l-1,-1l1,1l-1,1h-1l-1,1h-1v-2h-1l-5,-5l-2,-3l-2,-2v-1l-2,-1l-1,-1v-4l-1,-2l-1,-1l-1,-2v-1l-1,-1h1v-1l-1,-1v-4l-1,-3v-10l-1,-2ZM267,531v-1h-1l-1,-1h-3l-1,-1h-2v1l-1,-1h-4v1h-1l-1,1v6h-1v3h-2l-1,1v2l1,1l-2,2h-1v1h-1l1,1v1l-1,1v1l-1,1v1h-6v1h-2l-1,-1h-2v-1h-1v-1h-5l-1,1v1l-1,1h-1v1h-3l-1,-1h-3l-2,1h-2v-1l-3,-3v-1h-1v-1l-1,-1v-2h-1l1,-1v1h1l1,1v1h3l2,2h2l1,1h1l-1,-1v-1h1v-3h1v-1l-1,-1v-1l1,-1v1h1v-2l1,-1v-1h4l5,-1l1,-1h1l1,-1l1,-2l1,-1l2,-3l2,-1v-3h2v2l1,1h1v1l1,1l1,-1v-1l1,-1h-1v-3l1,-1h1v2l1,2l1,1v-4l-1,-1l2,-1h1v-1l1,-1h-1l-1,-1v-1l1,-1h1l1,1l1,-1v-1l2,-2v-1l5,-7v-1l1,1v1l-1,1v1l3,-3h1v3h1l2,2v1l-1,1l1,1v1h-1l-1,1l3,-1l1,-1l1,1v1l-1,1h4v1l1,1h1l2,2h2v2h-1l-2,1h-5l-1,1l1,2l2,1v1l-2,1h-3l-1,-1h-1v1ZM171,533v-1ZM147,507v1v-2h1ZM145,497l1,1h-2v-1ZM265,504v1v-2h1v1ZM153,528h-1ZM221,542h-1v-4l1,1v2ZM270,531h-2v-1h1ZM730,540v1v-1h1ZM732,551l-1,-1ZM732,552v-1ZM732,558v1ZM743,573v-2h-1h1v1ZM745,576v1v-2ZM732,555h1ZM705,576h-1ZM844,582v-1ZM936,632v-1ZM920,525l1,1l-1,-1h-1v-1l1,1v-1ZM910,509v1v-1v1ZM840,579v1v-1v1ZM147,147l1,-1v-1v1h-1ZM148,146v-1ZM149,145v1l1,-1ZM416,268h-1v-1l1,-1v1ZM452,256h-1v-1h1h-1v-1l2,-2v2h-1h1v1ZM425,283h-2l2,-2h1l-1,1ZM390,314h-1l-1,-1l1,-1l1,1ZM393,313h-1v-1l1,-1v-1l1,-1v2l-1,1ZM388,298v-2l1,-1l1,1l-1,1ZM385,283v-2h1v1ZM386,281h-1l1,-1v-1l1,-1v1l-1,1ZM379,293h1v1l-1,1v-1ZM391,296h-1ZM474,201l-1,1v-2h1ZM475,203h-1v-1h1ZM462,224h-1l1,-1ZM421,281l-1,1v-1ZM458,280h-1ZM382,293v-1l1,-2v2h-1ZM385,290v-1h1ZM388,286h-1l1,-1ZM408,284h-1h1v-1ZM406,285h1l-1,1v-1h-1ZM385,302l1,-1v1ZM475,346l-1,-1h1ZM490,210h2l2,1h3l3,-3v1l-1,1l-1,2v1l1,1v1l1,1h1l1,-1h1l-2,2h-3v1h-6l-2,2l-2,1l-1,1v3h-2l-1,-1l-5,-2l-2,-1h-3l-2,2l-2,-2h-2v1h-1v1l1,1h2l2,2v1h-2l-1,-1v1h-1v1l-1,1h-2v-2l1,-1v-1l-2,-2v-1l1,-1v-1h1l1,-1h1v-1l1,-1h-1v-1l1,-1l1,1h2l1,1h1v-1h1v-4l1,-1h1v-4l1,-1l-1,-2v-3h1l1,-1v1h1l2,2l1,2l1,1l2,1l2,2h1Z"/>
<path class="sl" d="M398,287l1,1v-1h2l1,1h-1v1l-1,1h2v2h1h-1l1,1l-3,3l-1,2v1l-1,1v3l-2,2l-1,-1l-1,1l1,1l-4,2v-1h1v-4h1v-1h-1l-1,1v3h-3v-2h1v-5h1l1,-1v-1l2,-2h-1v-4h-1v-1l-1,1v2h1v1h-3l-1,1v-2h-1v-1l1,-1v2h1v-1l-1,-1v-1h-1v-1h2v-1h2v-1h2l1,-1v-1h4v2ZM421,283h2v3l-1,1l-2,1v1h-1v2l-2,-2h-2l-3,1v1l-1,1h-1v2h-3l1,-1h-2v-2h1v-1h-1v-1h-1l-1,1v-1h1l2,-2h1l1,-1v-1h1v-1h1v1h4l1,-1v-1l1,-1h3ZM473,230l1,-1v6l1,1l1,2l1,1v7l-1,1h-1v1h-1v3l-1,1h-2v1l-1,1h-1v1l1,1v6l-1,1h-1v1l-1,1v2l-1,1v2l2,2l-2,1l-1,1v2h-1v1h-1l-1,1h-1v1h-1v-2l1,-1h-1l3,-3h-3v1l-1,1l1,1l-1,1v-1h-3l-1,1v2l-1,1v1h-1v-3h1l-1,-1h-2v1h-1v1l-2,2l-1,-1h-5l-2,1h1l1,-1v-1h-2v1h-1v-2l1,-1h-2v1l-1,1v2l2,1v1h-3l-2,2l-1,2l-2,2h-3v-2h-1l-1,-1v-3l1,-1h1v-1h1v-1h-4l-1,-1h-4l-2,2h-3l-1,1h-2l-2,1h-1l-1,-1h-1l-2,2v2l-3,-2h-3v1l-1,-1h-2l1,-2v-1h4v-1l1,-1h2l4,-4l2,-1l1,-1h1l2,-1h1v1h7l1,-1h3l2,-1l1,1l-1,1h5l2,-2h-1v-1l1,-1v-1l1,-1h1l1,-2l1,-1l1,-2v-2l1,-1h1l2,-1v1l-1,1h-1v1h-1l1,1v2h2l1,-1l5,-2h1l3,-3v-1l1,-1l3,-1l1,-1v-1l1,-1v-2l1,-1h1v-1l1,-2v-1h1v-4h-1l-1,-1h1l1,-1v-4l1,-1h1v-1h1v-2h2v3h1v-1h3v-2h-3v-2h2ZM336,359v1h-1v-1h1v-1h1ZM333,361h-1l-1,-1h1v-1l1,1ZM345,357l-1,1v-1ZM368,343h-1v1h-2v1l-1,1v1h-1v-1l1,-1v-1h1l1,-1v-1l1,1v-1l1,-1h1v1ZM375,334h-1v-1h1v-1v1ZM379,330l-1,1v-1h-1h1v-1h2v-1h1v1h-1ZM378,331h-1v-1h1ZM460,293h-1ZM54,277v1l-1,1v-1v1v-1l1,-1v-1v1h1ZM129,538l1,2l2,2v1l-1,2v1h-1v-3l-2,-2v-1l-1,-2h1v-1ZM139,567l-2,-1v-1l-1,-3v-2h2v3l1,1v2h1v1ZM262,639l-1,2h1v1h-3l-1,-1h-1l-1,-1h2v-2l1,-2h1l2,1h1v1ZM253,635h1l1,2l-1,1l-2,1v1h-1v-2h-1v-1h-1l-1,-1h-1l-1,-1v-1h1l1,1h2l1,-1h1ZM183,573l1,1v3l1,3l4,1h-1v1l-1,2l1,1h-1l-1,-1h-1v-1h-2v-1l-1,-1l1,-1l-1,-1v-2l-1,-1h-3v-1h-1v-1h1l1,-1v-2h1v1h1v1v-2h2v1ZM312,609v2l-1,-1l-1,1v3h2v1l-1,1h-1v1l-1,1h-1l-1,-1v-1h1v-2l1,-1v-4l1,-1v-1h1v1ZM308,615h-1v1l-1,-1h-1v-5h1l1,-1h1v3l-1,1ZM199,528h-1v-1h1h-1l-1,-1v-1l2,-1l1,2v1ZM198,586v1h-1v1v-1h-1v-1v1h-2v-5l2,-1v1h1l2,2ZM413,580h3v1l1,-1l4,4h1l-1,1h-2v-1h-2v-1l-1,-2l-1,1l-1,-1ZM414,588h4l2,1h5l1,1h-1l-1,1h-4v-1h-1l-2,-1h-3ZM374,573h2l2,1v1l1,1h-4v-1h-1l-1,-1l1,1v1h1v1h-1l-1,-1v-1l-1,1v-1h-3l1,-1v-1l1,1l1,-1h1Z"/>
<path class="sl" d="M354,554h-1v-3l2,-1h1v3l-1,1ZM352,586l-1,1l-1,-1h-1l-2,1l-1,-1v-2l1,-1h1l1,1h1l1,1ZM335,592h-1v-1l-1,-1v-1l1,-1v2l1,1ZM334,586l3,1h-1l-2,1l-1,-1l-3,1l-1,-1l1,-1l2,1ZM326,585v1h1v-1l1,1h1l-1,1h-5l-1,1h-1l-1,-2l1,-1h2ZM380,641h-2v-3h1v-2h1l1,-1v-1h2v1h-1l1,2l-1,1v1h-1l-1,1ZM342,637h-1l-2,2h-2l-1,-1h-1l-1,1v-1l1,-2l1,1h2l1,-1h1l1,1ZM324,640h5v2h-7l1,-1v-1ZM376,584v1l-1,-1h-1v-1l-1,-1v-1h3v2ZM125,504h3v1h3v1l1,1l1,2v2l2,2v1l-1,1l3,3v1l1,1l2,1l2,3l1,1l1,2v1l1,1v1l1,2h1v2h1v1h1v1l1,1v-1l-1,-1v-1h2l1,2v1l1,1v2h2v1l2,1v1l1,1v2l1,2h1v1h2l1,1v2l-1,1h-2h3l1,-1h2l1,1v1l1,1v1l-2,2v5h1l2,2h1l1,1h1v3l1,2v3h1l1,1v2l-1,1v1h1l1,-1h3l1,1l3,6h1v1h-1v2l-1,1v1l1,1l-1,2v1l1,3v11h-1v-1h-1v-1l-1,-1l-2,1v1v-1h-1l-2,-2v1l1,2v1h-1l-2,-2v-2l-1,-1h-1l-1,-3l-3,-3h-1v-1l-1,-1l-2,-1l-5,-8l-2,-2l-1,-2h-1l-1,-3v-1l-2,-2l-1,-2v-4l-3,-5v-2l-2,-5l-1,-1v-1l-1,-1l-1,-2v-1l-2,-2h-1v-2l-1,-2v-3l-1,-4l-1,-2v-2l-3,-3h-1v-1h-1v-1l-1,-1v-3l-1,-1v-1l-1,-1v-1l-1,-3l-1,-1l-2,-1v-1l-1,-1v-1l-2,-2l-2,-4v-2l-1,-1v-5h3v1l1,2h1v1ZM310,643h-2v1h-2l-1,-1v1h-3l-1,1v-1h-2v1l-1,-1h-1v1h-1v-1h-2l-2,-1h-5v-3h1l1,-1h6l1,1h1l2,2h1l1,-1h3l2,2h1v-1h1v-1h2v-1h1l-1,-1v-1l1,1l1,2h-1l-1,1ZM289,648l1,1h1v1h2v1l2,2v1l-1,1h-1v1l-1,-1h-2l-1,-1v-1h-1l-2,-2h-2l-2,-1h-1v-2l1,-1h4l1,1v-1h1ZM274,638h4v1v-1h2l1,1v3h-1v-1h-1l-1,1h1v1l-1,-1h-2v-1l-1,1h-2l-1,1h-6v1l-1,-1h-1l-1,-1l1,-1l-1,-1v-1h2v-1h4l1,1v1l1,1h3v-1l-1,-1h-1l-1,-1v-1h-1v-1h3l1,1ZM325,562l-2,1v1l-1,1v1h-1l-1,1h-8l-1,-1h-1v-1h-17l-2,-1h-3v1l-1,1v1l-1,1v6l3,3h1v2l1,1h2l1,1l1,-1v-1l3,-3h1v1h3l1,-1h5v-1h5v4h-1l-2,-2h-1l-2,2v1l-1,1l-2,1v1h-1l-3,1l-1,1h-2l-1,1h2v1l1,1h1v1l2,2v2l2,1v2h1v1h-1v4h1l2,2v1l1,1v-1h1v3h-3l-2,1h-1v3h-1l-2,-1h-1l-1,-1v-3l1,-1v-1l-1,-1h-1v-1l-4,-3v-1l1,-2v-4l-1,-1h-2l-3,3v1l1,1v1l1,3l-1,1v5l1,2v1l-1,2v1l1,2v2h-5v1h-1l-2,-2v-4l1,-1v-8l-1,-2v-2h-1v-1h-1l-2,1v-1h-1v-5l-1,-1l1,-1h1l1,-1v-3l1,-1v-1l1,-1l-1,-1v-2l3,-6l1,1v-3l-1,-3l1,-1h1l-1,-2l1,-2h1v-2l2,-2l1,1h2v-1h1v-1l1,-1v-1h1l1,1h2v1h1v1h4l3,1h2l1,1h4l4,1h1l3,-2l1,-1h1v-1l1,-1h1l1,-1v-1h2l1,2l-2,2v1ZM194,611l2,2h1l1,1h3v1l1,1l1,2l1,1h2l2,1l1,-1l1,1h4v1h2l1,-1v-2l1,-1h1l3,3l1,-1l1,1h1v1h2v1h4v2l1,1h1v3l2,1l1,1h5l1,-1l3,2v5l1,1v1l1,1h-2v-1h-1l-4,-2l-3,-2h-2l-1,1h-2l-2,-1l-7,-1l-2,-1h-2l-1,-1l-5,-2l-1,-1l-4,-1l-1,-1h-4l-1,1l-1,-1h-2l-1,-1h-1l-1,-1l-2,-1h-1l-3,-1h-2v-3h1l-3,-1l-1,-1h-3v-1h-2v-1h1v1h1v-3l1,1v-1l1,-3l1,-1h1l1,1h2l1,1h1v-1h2Z"/>
<path class="sl" d="M208,544l-1,1h1v2l1,1v1h1v1l3,3v1h2l2,-1h3l1,1h3v-1h1l1,-1v-1l1,-1h5v1h1v1h2l1,1h2v-1h6v-1l1,-1v-1l1,-1v-1l-1,-1h1v-1h1l2,-2l-1,-1v-2l1,-1h2v-3h1v-6l1,-1h1v-1h4l1,1v-1h2l1,1h3l1,1h1v1h-1l1,1v1h1v1h1v1h-2v-1v1h-3l1,2h1l-1,1v1h1l1,1v1h1h-1h1v2h1v2l2,2v1h-1l-1,1v1l2,2v1l3,2l3,3h1v1l-1,1h-5v-1h-1l-1,-1v1l-1,1h-1l-1,4l-1,1v4l1,2v2h-1l-1,1h-1l-1,1v1l-1,1h-1v-1l-1,-1v1l1,1l-1,1h-1v2h-1l-1,1h1v3h-1h1v1h1v3h-1v2l-1,1h-1v1l1,1h-1v1l-1,1v1l-5,3l-5,2v-4l-1,-2v-1l-1,1v-1h-1v-1l1,-1l-1,1h-2l-1,1h-1l-1,-1v-2h-1v1h-1l-2,-3l-1,2l-2,2l-1,-1h-3l-1,1h-1v-4l-1,-1h-5v1l-1,-1v-1l-1,1l-1,-1h-3v-6l-1,-2v-1l-1,-1v-1h1v-3l-1,-1v-1l-3,-3h-2v-1h1v-1h-1v-1h-1v-3h1v-2l-2,-2v-7l1,-1v-2l1,-1v-1l1,-1v-1ZM348,564l1,1h1v-2l1,-1h1v-2l2,-1h3l-1,1h1l-1,3l-1,1h-2v2l1,1h2v2h1v1h1l-3,-1h-2l-1,-1h-2v6l1,2l2,2v1l1,1h-1v-1l-2,-1l-1,-2l-2,-2v-5l-1,-1v-4l-1,-2v-1l1,-2v-2l1,-1v-1l2,-2h1v1l-1,1v1l1,1v4l-1,1l-2,1ZM365,597l2,1h4l1,2l1,1v1h1l1,1v1l-1,2l-1,-1l-2,-1l-1,-1l-2,-1h-1l-1,-1h-2v1h-2l-1,-1h-2v-1h-1l-2,2h-1l-2,-2v-1h-1l-1,1v1l-1,1v-2l2,-3h8v1h1v-1h1l1,-1h1v1ZM341,598l2,1v1h1v1h1v2h-2l-1,1h-3l-1,-1l-2,-1v-1l-1,-1v-2h4ZM327,647l1,1l1,-1v2h-1v1l1,1l-1,1v1h-1l-1,2h-1v1h-2l-1,1h-2v1h-1l-1,-1h-1l1,-1v-1h-1v-2l1,-1l1,-2h1v-1l1,1h2v-1h1v-1h1l1,-1ZM408,623v5h-2l-1,-1h-1l-1,-1v-1h1l1,-1l-1,-1v-1l1,1l1,-2l1,-1v2h1ZM406,629v1l-1,1v1l-1,1l-1,-1h-1l1,-3h1h-1v-2h1l1,1ZM441,645l-2,1h-6l1,-1l2,-5l1,-1h1l1,-1h4l1,1h1v1l-1,2l-1,1l-1,2ZM462,598v32l-1,2v1l1,1v18l-2,-1l-1,-1v-1l-1,-1l-4,-2v-1l-1,-1h1l1,-2l-2,2h-4l-1,1v-1h-1v-1v1h-1l-2,1v-3h1v-2h1v-1h-2v-2h-1v-1h2h-2l-2,-2h1l2,-1h-1l-1,-1v-1l-2,-2l-1,-2v-2h-1v-1l1,-1h-1l-1,1v-3h-2v-1h-1l-4,-2v-1h-3v-1h-3l-2,-1l-1,-1h-1l-1,-1h-3l-2,-1h-2l-4,-2l-1,-1v-1h1h-2l-1,-1l-1,1l-1,-1v-1h-1v1h-1v-1l-2,-2v-2l1,-1v-1h-1v3h-2l1,1l-1,1v1h-1l1,1h-1l-1,1v1h-2l-1,-1v-1l-1,-1v-1l1,-1l-1,-1v-1l-2,-2l-4,-2h-1v-1h1l1,-1h1l2,1h2l2,-2h3l1,1h2v-1h1l1,-1h-1v-1h1v-1l-2,1h-12l-2,-2v-1h-1v-3h-1l-1,-1l-4,-1l-1,1l-1,-1v-1h1v-1l1,-1v-2h2l3,-1l1,-1h1v-1l3,-1h1l1,1h2l1,1l4,2h5v3l1,1v1l1,1l-1,1v1l-1,1v1l1,1v3l2,4l1,-1v-1h1v3h2v3l1,1h4l4,-4v-1h1l2,-1v-2l1,-1h2l2,-1h2l1,-1l-1,-1v-1h1l1,-1l4,-2h1l2,2l4,1l1,1h1l1,1h2l1,1l4,2h4v1h4v1l1,1Z"/>
<path class="sl" d="M444,646h-3v-1h1l1,-1ZM155,537v2l-1,1v-1h-1v-3l1,1l1,-1ZM159,547v-1h-1v-3h1v3ZM160,543v1l-2,-2h-1v-1l3,1ZM163,549v1v-1h-2l-2,-2h1v-2l1,1v1h1l1,1ZM164,548v1v-1h-1v-1h-1l-1,-1v-1h1l1,1v1ZM165,551h-1v-1h1ZM166,550l-1,-1v-1l1,1ZM170,546v2h-1v-1h1ZM173,547l1,1v1l-1,1v-1h-1l1,-1h-2v-1h1ZM175,559v-1v1h1v1h-1l-1,-1h-2l1,-1v-1h1v1ZM173,560v2h-1v-1h-1v-1h1ZM168,559h-2v-1h1ZM208,571l-1,1h-1l1,-2h2v1ZM240,625h-2v1l-2,-1h-1l-2,-1h-1l1,-1v-1h2l6,1l1,1h-1ZM410,584h-1l-1,-1v-1h1v1h1ZM344,576h-1v-2h1l1,1ZM347,574l1,2l-1,1l1,1h1l1,1h-2l-1,-1l-1,1v-2h-1v-2h1ZM393,624l-1,1l1,-2v-1l1,-3h1l-2,4ZM392,624h-2l1,-1l-1,-2h1v1l1,1ZM353,604h-3v-1h2l1,-1h1l-1,1ZM341,536v1h-1v-1l1,-1v-1h-1v-1l1,-1l1,1v1l-1,1ZM332,541h-2v-2h1v2ZM376,644h-1l2,-2h2l-2,1h-1ZM367,640v1h-1l-1,-1v-1h2ZM351,641h2l-1,1h-1l-1,-1ZM370,587v1h1v2h-5l-1,-1l2,-1h2ZM160,602l-1,-1v-1l1,1h1ZM147,581l1,1l-1,-1v-1l-1,-1v-2l1,2v1ZM146,577h-2v-2l2,1ZM143,573l-1,-1v-2l1,1v1ZM135,556h-1v-2l1,-1l-1,-2l1,1v3ZM123,529l-2,-2h-1v-1l-1,-1v-1h1l2,2l1,2ZM303,616h-1l-1,-1v-2h2v1ZM311,580h1l-1,1l1,1v-1h2v1l-1,1l-1,-1v1l-1,1v-3h-1v2h-1l-1,-1v-1l1,-1ZM300,573h1h-2v1v-1ZM291,622v1v-1l-1,-1v-3l1,1ZM252,625h-1v-1h2v1ZM258,599l-2,1v-2l-1,-1l1,-2v-1h1v4h1l-1,1ZM313,662h-1v-1l1,-1h1l1,-1h1v1h-1v1ZM322,641l-1,1v1h-1v-1h-1v-1h2v-1h1ZM319,641h-1l-1,1h-1v1v-1l-1,1l-1,-1l1,-1v-1h1v1l2,-1h1ZM314,641h-2v-1h2ZM408,630l-1,-1h1ZM166,547h-1v-1ZM168,549v1ZM171,550l-1,-1v-1l1,1ZM174,557v-1h-1v-1l1,1ZM185,531v1v-2ZM182,533h-1v-1h1ZM203,535v1h-1ZM203,575h-1v-1h1ZM193,584v1ZM189,585h-1v-1h1ZM245,625v1h-1v-1ZM232,613h-1v-1ZM180,614l-1,1v-1l1,-1ZM128,532v1v-1l-1,-1h1ZM119,498h-1v-1ZM314,585v-1h1ZM312,605l-1,1l-1,-1v-1h2ZM317,587h-1v-1ZM311,585l-1,1v-1ZM284,642h-1v-1l1,-1v-1v1h1v1h-1ZM281,638h-1v-1h1ZM255,640h-1v-1ZM268,531h2v1h-1ZM268,538v1l-1,-1v-1h1ZM319,621v1v-1h-1v-1ZM315,615v1ZM293,629h-1v-1ZM269,638v-1h-1v-1h2ZM258,596v1v-2ZM345,565v-1ZM405,592h-1v-1h1ZM398,610v1l-1,-1ZM375,580h-1l-3,1v-1h3ZM373,577h-1v-1h1ZM364,574h-1l-1,-1v-1l1,2ZM346,572v-1ZM346,566h-1v-1h1ZM345,578v1l-1,-1v-1Z"/>
<path class="sl" d="M357,603h-1v-1h1ZM356,603h-2v-1h1v1ZM340,538v-1h1ZM341,539v-1ZM329,548v-1h1h-1ZM385,635l-1,-1h-1h1ZM357,633v1l-1,-1h1v-1ZM347,637v-1h1h-1ZM316,657h-1l1,-1h1ZM304,659h-1v-1l1,-1l1,1ZM409,629v-1ZM408,632l-1,-1h1ZM351,597l-1,1h-1l1,-1ZM348,600v1l-1,-1ZM312,642l-1,1v-1h2ZM111,488v-2h-1v-1h1v-1h1v3ZM111,483v1l-1,-1ZM109,475l-1,-1h1ZM110,478l-1,-1h1ZM111,477h-1v-1l1,-1v1ZM108,467v-1ZM108,454h-1l1,-1v-2h1v2ZM110,447v-1ZM110,446v-4h1v-2h1v-5h1v-2l1,-2v-2h1v3l-1,1v1h-1l1,1l-1,3l-1,2v2h-1v3ZM113,442v1h-1v-1ZM112,434v1v-1h1ZM29,452h-1v-1v1l1,-1ZM803,671h-1h1v-1ZM789,681h-1v-1v1ZM927,674h1ZM931,680v-1h1ZM927,676v-1ZM933,680v1h-1v-2h1ZM977,602h1l-1,1ZM977,604v1ZM977,608v-1ZM976,596v1v-2ZM975,601v-1h1ZM957,672v-2h1l-1,1ZM977,596v-1ZM956,676v-1ZM956,674v-1ZM964,672v-1ZM964,671v-1ZM954,693h-1h1v-1ZM953,665h1ZM951,660v1ZM948,665v-2h1h-1v1ZM651,738h2l1,1l3,2h1v1h1l1,1v1l1,1h1l2,2l2,1l1,1h1v1h1l1,1v2h-1l-2,-1h-2l-1,-1v-1h-2v-1h-1l-2,-1l-1,-1l-2,-1l-1,-1l-1,-2h-1v-1h-1v-1l-1,-1v-2h-1v-1ZM674,755h-1v-1h1ZM619,732v-1ZM679,745h1v2h-2v-2ZM669,740l-1,1l1,-1v-2h1v1h-1v1h1ZM675,744h-1v-1h-1v-1h-1h1l1,-1h-1v-1h2l-1,2h1v1ZM182,885v1v-1v1h1l1,1v-1h-1h1v1h1v1h1h-1v-1v1h1v1v-1v1h1h-1v-1h-1h1h-1l-2,-2h-1v-1h-1v-1h-1v-1h-1h1v1h1v1ZM182,885h-1v-1v1ZM766,700h2v-1h1l1,-1h2l1,-1l-2,2v1h-1Z"/>
<path class="sp" d="M770,700h-4"/>
<path class="sl" d="M772,700l1,-1v1Z"/>
<path class="sp" d="M773,700h-1M772,700v0"/>
<path class="sl" d="M757,670h-1v-1h1ZM544,2h-1h1h-6v-1h-18v-1h-1h3l1,1h15l1,1h4ZM483,0h-5v1h-1h1l1,-1h3Z"/>
<path class="sp" d="M484,0h38l1,1h15l1,1h5M472,1h6l1,-1h4"/>
<path class="sl" d="M512,0h1ZM481,0h1ZM292,356v1l-1,-1ZM330,301h-1l-3,-3h2v1l2,1ZM330,313h-2v-1h2ZM329,315v1l-1,-1ZM331,314h-1v-1h1ZM305,349h-1l1,-1v-1v1h1h-1ZM232,380h1v1v-1h-2ZM320,328h-1v-1h1ZM257,367v1l-1,-1ZM250,377h-1v-1h1ZM249,377h-1v-1h1ZM234,389v3l-3,3v1h-1v2l-1,1v1h-2v1h-1v1h-2v1h-3l-1,-1h-1l-2,-2v-3l1,-3v-1h1l2,-2h1l1,-1h-1v-1h6l1,-1l1,1h1v-1l1,1v-1h1v1ZM255,372h1ZM260,370h1v1h1l-1,1h-1l-1,-1v-1ZM261,373h-1v-1h1ZM259,373h-1v-1h1ZM790,106h1h-1h2v1h1v1h1l-1,-1h-1v-1h-1v-1l1,1h1l1,1v1l2,1l1,1h-1l-1,-1h-1l-1,-1h-1v-1h-1ZM797,110h1l1,1v1v-1v1h2v1h1l1,1h1v1h1h-1l-1,-1h-1v-1l-2,-1h-1v-1h-2ZM817,120h2l1,1h1v1l1,1h2v1h1v1h2v1h1l1,1l2,1h-1h1l1,1v1h-1v-1h-2v-1l-1,-1h-1v-1l1,1v1l-2,-2v1l-1,-1h1h-2v-1l-1,-1l1,1h-1v-1v1v-1h-2v-1h-1h1h-2v-1h-1v-1v1v-1h-1v-1v1h1h-2v-1h-1v-1ZM595,12h3l1,1h-1h1h-1l-1,-1h-1ZM600,13v-1l1,1h4v1h1h-3v-1h-1ZM608,15h1l1,1h4l1,1h2l1,1h-1l-1,-1h-1h1v1h3v1h1h1v1h-1v-1h-1h1v1l-1,-1h-2l-2,-1h-1v-1h-3l-1,-1h-1v-1h-2ZM616,15h-1h2l1,1l-1,-1h-1h1h-1h3l2,1h2l1,1h1h-1h1l1,1h2l1,1h1l1,1h1h-2l-1,-1h-2l-1,-1h-1h1v1h1h-2v-1h-1h1v1h3v1l-1,-1v1h-1l-1,-1h-1l-1,-1h-1h1v1h-1v-1h-3l-1,-1h-2l-1,-1h1v1h1v-1h-1h2l1,1h2v-1h-5v-1h-3l-2,-1h-1h2l1,1h2ZM647,24h-2v-1h-1h2l1,1h1h-1v-1v1v-1h-3v-1h-1h2v1h2l2,1h1l-1,-1h-2l-2,-1h-2l-5,-1v-1h-1h1h-1h2l1,1h2l4,1l1,1h3l1,1h2l1,1h1h-1v-1l1,1h1h-1h3v1h1h-1h2l1,1h2l1,1h1h-2v-1h-1h1l1,1l-1,-1l1,1h1l1,1h3v1h1h-1l-1,-1l1,1l-1,-1h-1h1l1,1h2v1h2l1,1h2v1h1l1,1h1l1,1h-1v-1h-2l-1,-1h-1v1h-1v-1h-3l-1,-1h-1l-1,-1h-1l-1,-1h-1v-1h-2l1,1h1v1l-2,-1h-1l-1,-1h-2l-1,-1h-1v-1h-1l2,1v1l-1,-1h-1h1h-3l-2,-1h-1v-1h-3l-2,-1l-1,-1h-1l-1,-1h-1h2l1,1h1ZM636,23v-1v1h1l-2,-1h4l1,1h2l1,1h2l1,1l2,1h1l2,1h1v1h3l2,1h1v1h1l1,1h2v1h-1l-2,-1h-2l-1,-1h-4v-1h-2l-1,-1h-2v-1h-3l-1,-1h-1l-1,-1h-3l-2,-1h-1l-1,-1h-1v-1l1,1h1ZM566,4l1,1h6l1,1h6l1,1h5l1,1h4l1,1h1h-1h1l-2,-1h-5l-1,-1h-4l-2,-1h1l1,1h1h-2v-1h-1h1v1h1h-1l-1,-1l1,1h1h-2v-1h-6v-1h-1h1v1v-1h-9v-1h1v1h1v-1h-9l-2,-1h-1h1h-1h2v1h7l1,1h-1l-2,-1h-2h2l1,1h1h-1l-1,-1h-2h2l1,1h1h-4v-1v1h1h-3v-1h-6v-1h-8l-1,-1v1h-1l-1,-1h-8v-1h-1h5l1,1h1h11l2,1h1h-1h8v1h6Z"/>
<path class="sp" d="M566,4l1,1h6l1,1h5M579,6h1l1,1h5l1,1h5M563,4h3"/>
<path class="sl" d="M592,9h-1h3l1,1h-1v-1h-1ZM611,12v1h1h-1l-1,-1h-1h1ZM640,20h1h-1h1l1,1h1h-1l-1,-1h-4v-1h-2l-2,-1h1h-4v-1h-1h1h-3l-1,-1l1,1h-1v-1h-1h2l1,1h3v1h1h-1v-1h-1h1v1h1h-1h4v1h3l1,1Z"/>
<path class="sp" d="M637,19h1l1,1h1"/>
<path class="sl" d="M604,11l1,1h4l1,1h4v1h1l-1,-1v1h1h-1l-1,-1h-1l2,1h1h-2l-1,-1l1,1l-1,-1h-3l-1,-1h1h-1l1,1h-1v-1h-4ZM586,9h3v1v-1h-1h1h-1h4v1h3v1h-1l-1,-1h-6ZM565,5h5l1,1h1h-1v-1h-1h2v1h6l1,1h6v1h1h-2v-1h-1l1,1h-2v-1h-8v-1h-1l1,1h1h-1h1h-3l-1,-1h-6l-1,-1ZM610,12h-1h1h-3l-1,-1h-5v-1v1h1h-1h1h-2v-1h-1h1h-3l-1,-1h1v1h1h-1v-1v1h4l1,1v-1v1v-1h-1h1l1,1h3l1,1h2Z"/>
<path class="sp" d="M601,10h1l1,1h3l1,1h3"/>
<path class="sl" d="M587,8h1l1,1h1h-3v-1h-1ZM629,17h-1l-1,-1h-3l-1,-1h-4v-1h-1h1l1,1h3l1,1h3l1,1h2Z"/>
<path class="sp" d="M616,14h3l1,1h3l1,1h3l1,1h2"/>
<path class="sl" d="M591,8v1l-1,-1h-1h1ZM605,12h-1ZM578,8h1h-1l-1,-1h1ZM639,20h-4l-1,-1h-2v-1v1h4l1,1h1ZM612,13v1h1h-2v-1h-1h1ZM609,13h-1h2l1,1l-1,-1h-2ZM624,19v1v-1v1v-1h-3v-1h-1h1l1,1h1ZM604,14h1h-2ZM789,103v-1h-1ZM806,116l-1,-1ZM793,105v1v-1h-1v-1ZM798,108l1,1h-1l-2,-2h-1h2ZM787,101l-1,-1h1ZM801,109l2,1l1,1h-1l-1,-1h-1v-1h-1l-1,-1ZM826,126v1v-1h-1ZM825,124l-1,-1h-1h1ZM824,125h-1v-1h-1h1v1ZM821,121v1v-1l-2,-1h1v1ZM803,111l1,1l-2,-2h-1h1ZM811,116l-1,-1h-1h1ZM804,111v1v-1h-1l-1,-1v-1l1,2ZM800,109h-1v-1ZM799,108h-1v-1ZM830,127v1v-1l-2,-1l1,1ZM829,127l-1,-1h-1h2ZM821,121v1l-1,-1v-1v1ZM606,12h1h-1v-1h-1h1ZM630,17h-1ZM619,14v1l-1,-1ZM624,16h1h-1l-2,-1h1v1ZM607,12h-1ZM595,11h1h-1v-1h-1h1ZM598,11h-1ZM596,9h-1ZM610,12v1h1h-1v-1h-1ZM616,14h1ZM623,20h-1v-1h-1l1,1ZM613,16h-1l-1,-1h1ZM621,16h-1l-1,-1h-1h2ZM652,24h-1v-1ZM661,27h1h-1v-1h-1h1ZM668,29h-1ZM673,31h-1v-1v1ZM684,35l1,1l-1,-1h-1ZM687,37v-1l1,1ZM681,34h-1ZM669,43h-1ZM170,458h-1l1,-1ZM171,463h-1v-1ZM140,456v1h-1ZM139,465l-1,1v-1l1,-1ZM141,452h-1l1,-1v-2h1l-1,1v1ZM143,448v-1v1h1ZM143,450v2l-1,-1v-2h1ZM143,442v1h1h-1v1l-1,1l1,-2ZM141,446v-1ZM127,410l-1,1v-2h1l1,-1l-1,1ZM144,410v-2h1v1ZM128,386v-2h1v2ZM130,376v1v-2ZM130,379h1v2h-1v-1ZM142,457v-1ZM140,450v-1ZM141,444l-1,1v-1ZM143,438v1v-2ZM128,411l1,-1v1ZM128,375v1l-1,-1v-1l1,-1v1ZM249,523l1,1v4l-1,-1l-1,-2v-2ZM248,523h-1l-1,1v3h1l-1,1v1l-1,1l-1,-1v-1h-1l-1,-1v-2h-1h2l1,-1h1v-1h1l2,-2v1ZM124,354v1l1,-4v2ZM127,353h-1v-1l1,-1v1ZM122,355h-1v-1l2,-2v-4h1v4l-1,2ZM127,358h-1h1v-1ZM126,361v-2h1v1ZM124,347v1ZM481,676v3l1,1l1,2l1,1v4l1,1l-1,3l1,1l1,2v1l1,1h2l1,-1h2l2,2l2,1l2,2h1v5l1,1v2l1,1v2h-1v1l1,1v1h1l1,2h1v1l2,3v4l-1,2v1l2,1l1,1v3l1,1h1l1,1h2l1,1h3v1l2,2h1l1,1h2l1,1l4,2v1h1h-2v1l4,4v1l1,1v1l1,1v3l1,2l1,1h1l1,1v-3h1v1l1,1h1l1,1h1v-2l1,1v5l1,3l2,2h1l2,2h2l1,1l1,2v1h2v1h1v1l1,1v1l2,2v2h1v1h1v1l-1,2v8l2,2v2l1,2v4l-2,1l-1,2v1l-1,3v2l-2,3v4l-2,4l-2,2v1l-2,2h-1v1h-1h1l-2,1h-1l-1,2h-1v1h-1v1l-1,1v2h-1l-1,1h1l-1,1h-1v1l-1,1v3h-1v1h-1l-2,3l-1,1v1l-1,1v3l-1,1v4l-1,1h-1l-1,1h-4l-6,1h-2l-2,1l-1,1l-4,3h-4v1h1v1h-1v-1h-2l-1,-1h-1l-1,-1h-1l1,-1v-1h-2v1l-2,1l-1,-1h-1h2v-1h1v-1l-1,-1l-3,1h-1l1,1h1h-1l-1,1h-2l-2,2h-1l-1,1l-1,-1h-1l-1,-1h-1l-2,-1h-3l-2,-1h-1l-1,1h-1l-2,-1l-1,-1h-3l-3,-3l-2,-1l-1,-1v-4l-1,-2l-3,-3l-2,-1v-1v1l1,-1v1h1v-2h-2v1h-2l-2,1h-2v-1l1,-1l1,-2v-2h-1l-1,-2l-2,-2v1l-1,1v2l-1,3h-1v-1l-2,1h-2v-2h3v-5l1,-2l1,-1h1v-1l-1,-1v-1h1v-1l-1,-2l-1,-1v3h-1l-1,1v2l-1,1h-1l-1,1h-2l-1,1l-2,3l-1,1h-1v1h1v1h-2l-2,-1v-1h-2v-1h1v1h1l-1,-2v-1h-1v-2l-2,-1l-1,-1v-1l-1,-1h-1l-4,-2v-2h1l-1,-1l-2,-1l-1,-1h-4l-4,-2h-4l-3,-2l-3,-1h-17l-9,3h-2l-2,1h-2l-4,-1h-2l-2,1l-1,1h-1l-3,2h-3l-1,1v2l-3,3h-3v-1h-2l-4,1v-1h-3l-2,-1h-4l-1,1h-6l-1,2h-3l-2,2l-2,1l-1,1h-2l-3,-1h-1l-3,-1h-2l-2,-1l-3,-3l-2,-1h-1v1l-1,-1v-1h-1v-2l-1,-2l1,1h2l1,-1v-2l-1,-1l-1,-2v-2l-2,-5l-2,-2l-2,-3l-1,-1l-1,-2l-2,-2v-1l-1,-3v-1l-1,-1l-1,-2l-3,-3v-1l-2,-2l-2,-1v-1l-2,-5l-3,-4l-4,-3l-1,-1v-1l1,1v-1l2,2v1l1,1l1,-1v-1l-1,-1h-1l-1,-1v-2l-2,-1v-1h1l2,2v2l1,1v-1l2,2h1v-1l-3,-5l-2,-3l-1,-1l-1,-2l-2,-2v-2l-1,-1v-1l1,-1v-6l-1,-1l-1,-2l1,-2v-3h1l1,2v3l1,-1h1v-1l1,-2v-1l1,-1h2l2,-1l2,-2v-1h1l4,-2v-1h4l1,1h2l1,-1l2,-1h3l4,-2h5l3,-1h2l3,-1l1,-1h1l1,-2l1,-1v-2l1,-1v-1l1,-1h1l1,-2h1v-1l-1,-1l-1,-2v-4l2,-2h1l1,-1v-1l1,-1l1,2l1,1l2,4l2,2v-4h1v1v-1l1,-1l-1,-1h-1v-1h-1l-1,-1v-1h1v-2h1l1,2l1,-1h1l1,1h2l-1,-1v-1h1v-2h1v-1l-1,1v1l-1,-1v-3h1v-1h1l-1,-1h1l2,1v1h1v-1h-2v-2h1v-1l1,1h2v-1h-1v-1h-1v-1l1,-1h1v-1h1v-2l1,1v1h1v1h1v-1l1,-1v-2l-1,-1h1v1l1,1l1,-1h1l1,1l1,-1v-2h2l2,2h2v1l2,1v1l1,1l3,2v2l-1,1v2h1v-1l1,1v-1l-1,-1v-1h2v-1h2l3,1l1,1v1h1v-2h1l2,2v-2h2l-1,-1h-1l-1,-1h1v-1h-2l-1,-1l1,-1l1,-2h1v-3h1l1,-1h1l1,-1l-1,-2v-1l2,-2v-1h2l-1,-1h1v-1l2,2v-2h1v-1h1l1,-1v1l1,1h3l1,-1l1,1l1,-1h1l1,1l1,-1h2l-1,-1v-3l-1,-2h-4l-1,-1h-1v-1h2v1h1v-1h1l2,1l1,2l1,-1h2l1,2h1l1,1h2l3,1l2,1h1l1,1h1l2,-1v1h1l1,1h2l1,-1h1l2,-1l1,-1h1l-1,1v1l-1,1h2l1,1v1h2v-2h-1h1l1,-2h1v2h2l1,1v1l-3,3v1l1,1l-2,2v-1h-2l-2,1v3l1,1l-1,1v2l-3,3v1l-1,1l1,1v1l3,1l1,1l2,1l2,2h2v2h4v1h1l4,2l4,4h4l1,1h2l1,1v1l1,2h2l2,1l1,1h1l1,1h1l3,-1h1l1,-1l1,-2v-2l2,-2l1,-2v-2l1,-1v-4l1,-3v-3l-1,-3l1,-1v-1l-1,-1v-4l1,-1v-4l1,-1h2v-1h-1v-1h-1l-1,-1l1,-1v-2l1,-1l1,1v-4l1,-3v-2l2,-1l1,-1h1v1l2,2v4l1,2l1,1Z"/>
<path class="sl" d="M560,782v-4l1,-1h1v-2h-1h1v1h1v1l-2,3ZM451,713l-1,1v-1v1h-2v-1l1,-1h1l2,-1v1h-1ZM427,690v1h1v-1v1h-1v2h2v1h-5v-1h1l-1,-1v-1l1,-1h1v-1h1ZM374,671l1,1v1h-1l-1,-1h-3l1,-1h1v-1h-1l1,-1v-1l1,1v1ZM375,669h1l1,-1l1,1l1,-1h2l2,2h-1v1h-1v1l-3,2l-3,-2l-1,-1l-1,-2v-2l1,1h1ZM261,774v1l-2,-3l-1,-1v-1l2,3v1ZM445,849h3l1,1h-3l-1,1h-6l-1,-1v-1h3l2,-1h1ZM501,866h-1ZM500,867h-2l1,-1v1ZM530,742h-1v-1h1ZM529,741v-1ZM546,766h1v2h-1l-1,-2ZM541,757v-1l1,1ZM537,756h-1v-1h1ZM563,794l-1,2v-2ZM562,793v-2h1l-1,1ZM473,666h-1v-1h1ZM474,662h-1v-1ZM472,661v-1l1,1ZM507,726l1,1v1h-1v-1h-1v-1ZM425,671h-1l2,-2v-1h1l-1,1ZM423,672l-1,1v-1l2,-1v1ZM431,706l-1,1v-1h-1v-1h1v1ZM429,705l-1,-1h1ZM426,705v-1h1ZM451,717h-1h1v-1v1h1ZM423,690h-1l1,-1ZM391,669v-2h-1h1v-1v1l1,1ZM333,693h-1v-1h1ZM329,699h-1v-1h1ZM267,736l-1,1v-1ZM498,880h3v1h2l2,1h5v-1h4v-1h5v7h-1h1h-1l-1,1v1l-1,1v2l1,1h-2l-1,-1h1v-1h-1v1h-1l-1,-1l1,1h-1v1l-1,1l-1,-1l1,1h-1v1h-1v1l-1,-1h-4v-1h1h-2l-4,-4v-2l1,1h1l-1,-1h-1v-1l-2,-2l-1,-2l-1,-1v-1l1,-1v-1v1ZM490,876v-3h1l1,1l-1,1h1l-1,1ZM518,874l1,1v1h1h-1v1h-1v-1l-1,-1h-1v-1h1ZM512,894v1h-1v-1ZM517,891v-1h1h-1ZM513,893h-1ZM496,878v1ZM520,877l1,1h-4l1,-1h1ZM519,878v1l-1,-1ZM567,946l1,-1ZM186,647v1v-1h-1ZM215,910l-1,-1h-1h2ZM668,801h-1h1h-1ZM332,971l-1,-1h-1h1h-1h4l1,1h5l1,1h4v1h1v-1l1,1h4l1,1h4l1,1l1,-1h7v1h4l5,1l3,1h1l1,1h4l2,1h1v-1h-1v-1h8l1,1l3,1h3l2,1v1h-1h11v1h20v-1h2l1,1h2l3,1h6v-1h15l1,1l1,-1h5l1,1h11l1,1h14v1h1v-1l1,1h-1v1h-1h10v1h13v1h8l1,-1h2l1,1h11l1,1h3v2h2l1,-1h16l1,1h1l1,-1v1h-3l-1,1h1h-3v1h-8l1,1h-6l-1,1v-1h1h-1l-1,1h-5v1h-5l-2,1h1l-1,1h-1h1h-1h2l-2,1h-11l-2,1h-1h1h-42l-1,-1h-15l-1,-1h-11l-1,-1h-7l-1,-1h-7l-1,-1h-6l-1,-1h-6l-1,-1h-5l-1,-1h-4l-1,-1h-5l-1,-1h-4l-1,-1h-3l-1,-1h-3l-1,-1h-4l-1,-1h-3l-1,-1h-3l-1,-1h-3l-1,-1h-3l-1,-1h-3l-1,-1h-2l-1,-1h-2l-1,-1h-3l-1,-1h-2l-1,-1h-2l-1,-1h-2l-1,-1h-2l-1,-1h-2l-1,-1h-2l-1,-1h-2l-1,-1Z"/>
<path class="sp" d="M521,1000h-43l-1,-1h-15l-1,-1h-11l-1,-1h-7l-1,-1h-7l-1,-1h-6l-1,-1h-6l-1,-1h-5l-1,-1h-4l-1,-1h-5l-1,-1h-4l-1,-1h-3l-1,-1h-3l-1,-1h-4l-1,-1h-3l-1,-1h-3l-1,-1h-3l-1,-1h-3l-1,-1h-3l-1,-1h-2l-1,-1h-2l-1,-1h-3l-1,-1h-2l-1,-1h-2l-1,-1h-2l-1,-1h-2l-1,-1h-2l-1,-1h-2l-1,-1h-2l-1,-1"/>
<path class="sl" d="M541,998l2,-1h1l-1,1h-3ZM539,998h-1ZM356,973l-1,-1h-1h2ZM542,996h-1h1l1,-1ZM538,997h-1ZM558,994l1,-1ZM564,984h-1h1v-1ZM561,983h-1v-1h1ZM559,982h-1l1,-1ZM347,972h1ZM357,974h-1v-1h1ZM355,974h-1ZM361,973h-1v-1h-1h1v1ZM337,970l-1,-1h1ZM331,970l-1,-1h-1h1ZM331,970l-1,-1h1ZM328,969v-1h-1Z"/>
<path class="sw" d="M131,199v-1h1v-1l-1,1ZM132,199h1ZM130,199v-1h-1v1ZM136,191v-1Z"/>
<path class="sh" d="M503,412l-1,1v-1ZM503,433h-1ZM499,452v1l-1,-1ZM503,418v-1l1,1ZM503,444v-1h1h-1ZM502,445v1v-2Z"/>
<path class="sw" d="M336,127l-1,1h-1v1h-1v1l-4,4v1h-1v1h-1l-1,1h-1v1h-1l1,-1h-1l-2,1h2l-1,1v1h-3l-1,1h-1v1h-1l-1,1h-3l-1,1h-2v1h-1v-1h-1l-3,3h-1v1h-3l-2,1h-3l-2,-2h6l1,-1h1l1,-1h1l2,-1l1,-1h2l1,-1h1l1,-1h1h-1v-1h1l1,-1h1l2,-1h1v-1h1l2,-1h1l2,-2h1v-1h1l1,-1h1v-1h1v-1h1l3,-3h1l1,-1h2ZM317,140l1,-1h-1l-1,1h-3v1h2v-1ZM720,51h1v1h1h-1h1l1,1h1h-1v-1h-1h1v1h2v1h1l1,1h1l1,1h1l1,1h1l1,1h1v1v-1v1h1l1,1h1l1,1h1v1h1l1,1h-1v-1v1l-1,-1h-1h1h-1v-1h-1l-1,-1v1v-1h-1v-1h-1l-1,-1h-2v-1h-2v-1h-2l-1,-1h1v1h2l1,1v-1h-1h1h-2l-2,-2h-1l-1,-1h-1v-1h-2v-1ZM728,55l1,1h1v1h2v1h1h-1v-1h-2v-1h-1ZM699,43h-1h1v1h2v1h2v1v-1l1,1h1h-1v1h2l1,1h1l1,1h1l1,1h1v1l-1,-1h-1l-2,-1l-1,-1h-1h1l1,1h1v1h2v1h-1v-1h-2l-2,-2h-2l-1,-1h1h-1v-1h-2v1h1v1h1v1h1h-1v-1h-2v-1l-1,-1h-1h1h-1v-1h-1h1h-1l-1,-1h-1v-1h-1l-1,-1l1,1v-1l1,1h1v1h2v1h1v-1h-2v-1h-1h1ZM750,67h1v1h1l1,1h1h-1h1h-1l-1,-1h-1l-2,-2h-1l-1,-1h-1l-1,-1l1,1h1l1,1h1Z"/>
<path class="sr" d="M745,64l1,1h1l1,1h1"/>
<path class="sw" d="M161,187h-1v1h-1l-1,1h-3v-3h6ZM719,92v1h1v1l-2,1l-1,-1v-1l1,-1ZM727,102v1h1v1v-1h-3v-1h-1h1ZM887,184h1v1v-1h-1v-1h-1v-1v1ZM207,158h-1v1h-1v-4h2v-2h1l2,-2h1l1,-1h1l1,-1v-3l1,1l1,-1l-1,1h-1v3h-1l-1,1h-2l-1,1v1l-1,1h-1v3ZM724,54v1h-1l-1,-1h-1h2ZM311,286v1h-1l-1,1h-1v-1h-1h2v-1h-2l-1,1v-1h1v-1h2v2h1v-1l-1,-1h1v-1h2l-1,-1l1,-1v2h1v2l-1,1v-1ZM281,147l-1,1v1h-1v1l-2,1l-1,1h-1v-1h1l2,-2v-1l1,-1h1l1,-1ZM245,149v-1h1l1,-1h2l-1,1v2h-2l-1,1h-1v-2ZM423,202v1l-2,1l-1,1v1l-2,-2v-1h1l-1,-1v-1l1,-1h3l1,1ZM181,449h-1v-1h-1l-1,-1v-1l-1,-1v-1l-1,-1v-1h2l1,2v2h1v2h1ZM219,247h-1v1l-1,1v-1h-1l-2,-1v-2h1v-1l1,-1h1l1,1v2ZM320,49v1ZM127,173v1h-1l1,-1v-1l1,-1l2,-1v-1h1l-3,3v1ZM232,112l1,-1v1l1,-1h1v1h-1l-1,1h-1v1v-2l-1,1v-1ZM189,170l-1,-2v-1l2,-2h1v2h-1l-1,1ZM344,173h-1l1,-1h-1v-1h2l1,-1l2,-1v-1h1v1h-1v1h2l-1,1l-1,-1v1l-2,1l-1,1ZM321,303l-2,1h-2l-1,-1v-1l2,-2h1l1,1h-1v1h1v1h-1h1ZM726,103l1,1v1h1h-2v-1h1h-1ZM663,64h1h-2ZM744,64l1,1h1v1v-1h-1ZM147,286v-1l1,-1v-1l1,1h2v1h-1l-1,1h-1ZM546,64h-1v-1h-1h2ZM319,50h1ZM336,42h-1ZM335,42h1l-1,1ZM336,42h1ZM545,2h-1ZM184,200l-1,-1l-1,1v-1h1v-1h1l1,1ZM290,317h-1v2l-1,1v-2l-2,-1v-2l1,-1v-1h1v-1h-1h1v2h-1v2h1v1l1,-1h1ZM291,310h-2v-1h2ZM289,310v1h-1l-1,-1h1l1,-1ZM277,307h1v-1h1v2l-1,-1v1h-1ZM147,275v1l-1,1l-1,-1h1v-1h-2l1,-1v1l1,-1h1v1h1ZM235,162l-1,1h-1l-1,1h-1v-1l1,-1h1l1,-1h1l-1,1h1v-1h1v1ZM699,860l-1,1h-1v-1h1ZM646,46h-2v-1ZM754,70h2v1v-1h-1l-1,-1h-1h1ZM403,40h1v-1h1v-1h-1h2l1,-1h1l1,-1l-1,1v1h6v-1h2l-1,1h1h-8v1h-2v-1h1h-1v1h-1v1h-1ZM511,53h-1v1v-1h-1h1ZM172,233l-1,-1h-1h2ZM180,396h-2v-2h1v1h1ZM316,289v1h-2v-2h1v-1h1v-1h-1v1h-1l1,-1h1v2ZM353,51h-1h1v-1h1v-1h1v1h-1v1ZM692,93v1h1v1l-1,-1h-1h1h-1v-1ZM696,46h-1h2v1ZM746,68h1h-1l-1,-1h-1h2ZM291,309h-1v-1h2ZM343,179v-1h2v1h-1ZM123,272l-1,-1h1v-1v1ZM135,278h-1v1h-1v1h-1l1,-1v-1l2,-2v1ZM226,124h-1v1h-1l1,-1v-1h1ZM214,119l1,-1v-1v1v-1h1v1h-1v1ZM243,110v1h-1v-1h2ZM324,32h-1l-1,1h1v-1ZM654,891l-1,1v-1l1,-1ZM492,51h-1ZM144,299h-1v1v-1v1h-1v-1h1v-2h-1h2v1h-1h1v1v-1v2ZM233,101v1h-1v-1ZM225,100v1v-1h1h-1h1ZM540,60v1l-1,-1Z"/>
<path class="sw" d="M544,63h1l-1,-1h1v1h1h-1ZM309,300v-1h1v1ZM271,309l-1,1h-1v-1h1ZM304,299h-1v-1h-1l-1,1h-1v-2l1,1l1,-1l1,1ZM871,165v1h1v1v-1h-1v-1h-1v-1v1ZM882,178l-1,-1v-1h-1h1v1h1ZM281,307h-1v-1h1ZM280,304v-1h1v1ZM306,274v1h-1v-2h1ZM279,306v-1v1h1v-1v1ZM276,309h-1l1,-1ZM275,310v-1h-1v1v-1h1v-1v1ZM897,197h1ZM682,38v-1h-1h1v1h2l1,1l-1,-1h-1ZM693,45h-1l-1,-1h1v1ZM693,45h2v1l-1,-1ZM710,49v-1h-1h1v1h1ZM171,248l-1,1v-1h-1h1ZM862,155v1v-1h-1ZM659,72v1l-1,-1ZM687,90h1l-1,1v-1h-1ZM693,91h-1ZM712,97h-1ZM709,93h-2v1h-1v-1h2ZM705,92h1ZM710,95v1h1h-2v-1h-1h1ZM244,157h-3v-2h2v1h1ZM130,279v1h-1h1v-1h-1l-1,-1h1v-1l1,1h1v1ZM779,88v1h1h-1l1,1h1v1h2v1h1l1,1l-1,-1h-1l-1,-1h-1l-1,-1h-1v-1h-1l-1,-1l-3,-1h1l1,1h1v1h2v-1h-1ZM751,79l-1,-1h-1l-1,-1h-2l-1,-1h-1h2v1h3v1h2ZM824,119h-1l-1,-1h-1v-1l1,1h1v1ZM830,124v1h1v1v-1h-1v-1h-1h1h-1ZM834,129h-1v-1h-1l1,1ZM715,75h1v1v-1h-2ZM365,707l-1,1v1h-1v3l-1,-1v-1h-1v-1l1,-1v-1l1,-1v1h1ZM197,259v1v-1h-1v1v-2h1l1,-1v1ZM196,258h-1v1h-1v-1l1,-1ZM145,188h-1v-1h1ZM113,276v1v-2h1h-1ZM114,276v1h-1v-1h1v-1ZM147,153l1,-1h1l1,-1v-1h1v-1l1,-1v1l1,-1v1v-1l-5,5h-1v1h-1v1l-2,1l-1,1l3,-3ZM155,149v-1l2,-1h-1h1h-1l1,-1v-1h1l-1,1l1,-1v1v-1h1v-1v1l-2,2h1v-1h1h-1v1h-1l-1,1ZM154,148l1,-1ZM186,161v-1h1v1h-1v1h-1l-1,1h-1v-1v1h-2v-1h1h-1v-1h-1v-1h-2v-1h-1l1,-1h-1v1h-1h1h-1v1v-1h-1v1h-1l-2,2v-1h-1v1l-2,2h-1l-1,1v1l-1,1h-1v1v-1h1v-1l1,-2v-1h1v-1h1h-1h1l2,-2h1v-1h2v-1h2v-1h2v1h2v2h3v2l1,-1h1v-1v1l1,-1ZM207,158h-1v1h-1v-4h2v-2h1l2,-2h1l1,-1h1l1,-1v-3l1,1l1,-1l-1,1h-1v3h-1l-1,1h-2l-1,1v1l-1,1h-1v3ZM209,94h1l2,-2h1v-1h1l1,-1h1l2,-2v1h-1h1v-1h1h-1v1h-1h1h-1h1h-1h1l-1,1h1v-1h1v-1h1l-1,1h-1h1h-1v1h-3v1v-1l-1,1h-1v1h-1v1h-1l-1,1h-1v1h-1h1h-1v1h-2v1v-1h1h-1v1h-1v1h-1v1h-1l1,-1l-1,1v-1v1l2,-2h1v-1h1l1,-1ZM139,531v1h-1l-1,-1v-1h-1l1,-1v1h1l-1,-1v-1l-1,1v-2h1v1h1v2ZM651,893h-1h1v-2h1h-1v1ZM649,894h-1h1v-1h1h-1ZM751,79l-1,-1h-1l-1,-1h-2l-1,-1h-1h2v1h3v1h2ZM824,119h-1l-1,-1h-1v-1l1,1h1v1ZM302,135l1,1h-2l-1,2h-1h1l1,-2v-2h-1h2v-2h1v-1l1,-1h1l1,-1v-1h1l1,-1v-1l2,-2v-1h1v-1l1,-1h-1v-1h-1v1v-1h-1v1h-2v2h-1h1v1h-1v1h-1v1h-1h1v-1h1v-1h1h-1v-3h-1h2v-1h1v-1h1v1h-1h3v-1h1l-1,1h2l-2,2v1l-1,1v1l-3,3h-1v2h-1v1l-1,1l1,-1h-1l-2,2v1Z"/>
<path class="sw" d="M353,57h-6v-1h4l1,1ZM354,55h-3v-1l1,1h3ZM354,52h-1h5v1h-1v-1h-2ZM710,46l1,1h-1h1h-1l-2,-2h-1h1v1v-1l1,1ZM709,46h-1v-1v1h2l1,1l-1,-1ZM805,105v-1v1h1h-1l-1,-1h-1v-1l-2,-1l2,2h1ZM878,174v1h1h-1ZM705,45h-1v-1h-1h1v1h1h-1v-1v1h1v-1v1h1h-1h1ZM868,163v1h1v1h1h-1v-1h-1ZM863,156h-1h1v1ZM323,32v1h-1l1,-1h1ZM133,186v2h-1v-1h1ZM371,90v-1h1l-1,-1h-1v-1h1h-1v-1v1l1,-1v-1h-1v1v-1h-1h2l1,-1v1h-1h1v1h-1v1h1h-1v1h1v-1h1v-1h1l-1,1h3v1h-2v1h1v-1h1v-1h1l-1,-1h1v1l-1,1h1h-1v1h-3v-1h2v-1l-1,1h-2v2h-1v1h-1h1h-1v1h-1v1h-2l-1,-1h-3v1h-1l1,-1h1l1,-1l1,1h2v1v-1h1l1,-1v-1h-1h1ZM472,147l-1,1h-1l1,-1ZM604,82h1v-1v2h-1v-2ZM434,274h1v1l-2,2h-1h1v-1l1,-1ZM733,73v1h2v1v-1h-2l-1,-1h-1h1ZM723,98l1,1h-1v-1l-1,1h-1v-1h1ZM690,90h-1ZM715,90v-1l1,-1v2ZM722,88v-1l1,1h1h-1ZM692,90l1,1h-1ZM685,88h-1ZM679,83h-1l1,-1ZM240,148v1h-1ZM159,263l-1,1h-1v-1v1l2,-2ZM156,263h1l-2,2v-1ZM103,261v-1l1,-1v1ZM157,276v-1h1ZM140,273l1,-1v1ZM118,249l1,-1l-1,2l1,1h-1ZM193,129l-1,1h-2v1h-1v1v-1l1,-1h1v-1v1l1,-1ZM200,115l1,-1h1v-1h1h-1l-1,1v1ZM705,44h-1ZM705,44h1v1ZM706,45h1h-1v-1v1h1ZM707,45h-1v-1v1ZM663,27h-1ZM709,46h-1ZM324,762l-1,-1h-1l1,-1v-1h2v3ZM367,757l-2,-1h-1l1,-1h1v-1h2l1,-1v-1h1l1,1l-1,1l1,1v1h-1l-1,1h-1ZM430,827v-1l1,-1v-1l-1,-1h-1v-1h-1v-1h-1v-1h-1v-1h1l2,1h2v1l1,1l1,2v3h-1l-1,-1ZM444,823v2l-1,-1h-1l1,-1v-3h-1l-1,-1h1v-3h-2v-2h-1v-1l1,1h1l1,1h1v1l2,2v1l1,1v1ZM312,803h-1v-3h-1v3h-1v-3h-1v1h-1v-2h3l1,-1h1v1h-1v2l1,1ZM459,819v1h-1v-1h-1l-1,-1v-1l1,-1l2,-1v-1h1v4ZM441,807l-1,1h-3v-1h1l1,-1h3ZM443,806l-1,-1h-4v-1h-1v1h-1v-1h-1v-3h1v-2h-1v-1h-1l1,-1h1l2,1l1,1h2v1h1l-1,1v1l1,2l1,1h1v1Z"/>
<path class="sb" d="M823,118v1h1l1,1v1h1v1h1v2h1v1M667,44l4,2l3,1l6,3l3,1l4,2l3,1l2,1l2,2l4,2l3,1l6,3l3,2l6,3l2,2l2,1l3,1l2,1l2,2l4,2l2,2l3,1l2,1h1h-1h1v-1h1l1,1h2v1h2l1,1h2l1,1h1l1,1h1h-1v-1l-2,-2h-1v-1l-1,-1h1l1,1h1l1,1h1l1,1h2l1,1h1l1,1h1l1,1h1l1,1h1l1,1h1l1,1h1l1,1h1v1h2v1h1l1,1v-1l1,1h2l1,1h2v1M39,309l-1,1l1,-1v-3l1,-1v-2h1v-2h1v-2l1,-1v-2h1v-2h1v-2M28,334l1,-1v-1l1,-1v-1l1,-1v-1l1,-1v-2l1,-1v-1l1,-1v-2l1,-1v-1l1,-1v-2l1,-1v-1l1,-1v-2l1,-1v-2l1,-1v-1l2,-2v-2h1v-2h1v-2l1,-1v-1l1,-1v-1l1,-1v1h-1v1v-1h1v-1M49,287l1,-1v-1l1,-1M24,348l-1,1v2l-1,1v2l-1,1M203,432v-3h1l1,-1v-1l-1,-1v-1h-1v-2h-1v-1h1l1,-1v-1h-1l-1,-2v-1h-1v-1h-1v-4l-1,-1v-1l-2,-2v-1l-1,-2v-3h-1v-1l-1,-1v-1l-1,-1l1,-1v-1h-1l-6,-6l2,-2v-1h1l2,1l3,-3v-2h-1v-2h-1v-1h1v-2l-1,-1h-1v-1l-2,1l-1,1l-1,-1l-2,-1l-1,-3v-1l1,-1v-3l-1,1v-2l-1,-1v-2l-1,-1M187,433v1l1,1v1l1,-1l2,1v1l1,1l1,-1v-2l-1,-1h2v-1h2v-1v1h1v1h1v1h1v-1h2v-1h1l1,-1v1l-1,1v1l-1,2v1l1,2v3l-1,2v6l-1,1v1h-1v-1l-2,2h-2l-1,1h-2v2h-1l-1,-1h-1v1h-1v4l2,2l-1,1v1l-1,-1h-1v-1h-3v1v-1h-2v2h-1v1h-3v1M176,368l-2,2h-1l-1,1v1h-1v2h-2v1l-1,1l-1,2M142,463v-1l1,-1v-2l3,-3l2,-4l1,-1v-8l-1,-1v-4h1v-7l-2,-2v-3l-1,-1v-6h2v-1l1,-1v-3l2,-2h1v-2l-1,1v-3h-1v-1l1,-1v-1l-1,-2v-1l-1,-1v-1l-1,-2v-2l1,-1l-1,-1v-1h1h-1v-2h2v-4l1,-1v-1l1,-2l2,-2l1,1h1l2,-1l1,1v-1l1,-2h3v-2h1v1h1v-1h1l1,1v1l1,-1l1,1v2l-2,2v1l1,1h3l1,1l-1,1v3l-1,2v1l-2,2l1,1v1l-1,1l-2,4l1,1l2,-2h1v-1h2v-1h1l1,-1h1l1,1v1h1v1h1v-1h2v-1l1,-1h1v-1h2l1,1h1v1l1,2v2l1,1v1h1v1l1,2l-1,2l-1,1v4l1,1v2h1l1,1v2l1,1v2h-1v2l-1,1l1,1v1h-1v2l-2,2h-1v1h-1v-1h-1v-1h-7l-1,-1l-1,1h-2l-2,2l-1,2l-1,1v1h-2v7l1,1v8h1M217,374v-1h-3l-2,-2v-1h-1l-1,-1v1v-5l1,-1h1v-2h-3v-1h-2l-1,-1h-1v-3h-1l-2,1h-1v1l-1,1v1h-2l-1,1v-1h-2v2h-1l-1,-2v-1v1l-1,1l-1,-2v1h-1v1h-1v1h-1v-2h-1v-1h-1l-3,3v-1h-1l-1,-1l-1,1v1h-1v2l1,1v1l-1,2v1l-1,1h1v1h-4v-1l1,-1h-1l1,-1v-2h-2l-1,2h-2v-1l-1,1v-1h-1l1,-1h-1v-2l1,-1l-1,-1h-1l-1,-1h-1v-1l1,-1v-1l1,-1v-2h1l1,-1h-1v-1h-2l-1,-1l1,-1v-5l1,-1h1v-1h-5l-1,1h-2v-1l2,-1v-4l2,-2v-1l1,-1v-1h2v-1l1,-1h1l1,-1v-1h1l1,-1h-1v-1h1v-1l1,-1v-1l1,-1v-2h1v-3l1,-2v-2h-1v1h-1v-1l1,-3v-3h-1v-2h-1v1l-2,2"/>
<path class="sb" d="M363,236v-1h1l2,-2h2v-1h2l1,-1h1l1,-1h2v-1h1l2,-2h1v-2h1l1,-1h1l1,1v1h2v1h4l1,-1v-1l-1,-1v-1h6v-1h1l1,-1v-1h3l1,-1v-1l1,-1v-1h2v2l1,1h1M373,254v-1l2,-2h1v-1h8v-1l1,-1h1M122,234v2h2M345,165l-5,5h-1v1h-1v1l-1,1h-1v2h-1l-2,2l1,1v1h1l1,-1h5v1h2l2,-2h2v1h2v1l1,1h1v2h1v1l1,1v3h-5l-1,-1h-4l-1,1h-3l-1,1h-5v1h-1v1h-1l-1,1v1h-1l-1,1h-1l-1,1h-4l-1,-1l-1,1h-1v1h-1l-1,1h-1l-1,1h-2v1v-1h-3l-1,-1h-1v-1h-2v-1h-1l-1,1h-1v1l-3,3v2h1v3h-2v1h-2l-1,1h-1l-1,1h-1l-1,1h-1v1h-1v1h-3l-1,1h-18l-2,1h-2l-2,1h-1l-1,1h-1l-1,1l-1,-1h-2l1,-2l-1,1h-3l-3,-3h-1l-2,-1v-1h-1v-2h-1l-1,-1h-3l-1,-1h-6l-1,-1h-1l-4,-2h-4v-4l1,-1v-2l1,-1v-1l-1,-1h1v-1h1l-2,-1h-1v-3h-1v-2l-1,-1h-3l-1,-1h-1l-1,-1h-1v-1h-1l1,-1v-2l1,-1h2v-1h1v-1l2,-2v-1h1v-1l1,-1v-2l1,-1v-1l1,-1v-2h-1v-1h-1v-1h-1v-1l1,-1v-1h-1v-1h1v-2h1v-1h1v-1M406,221v-3h-1h1l1,-1h3v-2l1,-1v-3l1,-2v-6h2l1,-1h1v-1h1v-1h1v1h3l1,1h3v-2l1,-1h1l1,-1v-2h2v-2h1v-2h1v-1l1,-1v-1l1,-1v-1l1,-1h1l2,-2v-1l-1,-1h1v-2h-5l-1,1h-4v1h-2v1h-1v1h-5l-1,-1h-1l-1,1h-1v-2l-1,-1l1,-1v-2l-1,-1h1v-1h-1l-1,-1h-1l-1,-2h-1v-1h-3v-1h-1v-1h-1l-2,1l-1,-1h-1v-1h-1v-1l1,-1v-1l-1,-1v-1h1v-1l-1,-1v-5h-1l1,-1l-1,-1v-4h-1v-1h1v-1h-1l-1,-1h1h-1l-1,-1h-2l-1,-1h-1v-1h-2l-1,-1h-10l-1,1h-4l-2,2h-1l-1,1h-1l1,1h2v1h-1v2l-2,2h-2l-3,3h-1v1l-1,1h-1v1h-1v1h-1v1h-1l1,1l-2,2h-2l-2,1h-2l-2,1h-2l-1,-1h-1l-1,-1v-1h-6l-1,-1v-1h-1v-1h-3l-2,1h-1l-1,1h-1l-1,1h-1v1h-4l-2,1h-4l-2,1h-1l-1,-1h-3l-1,-1h-3v-1h-2v-1l-1,-1l1,-1v-1h-3v-2l-1,-1h-2v-1h-2l-1,-1l-1,1h-4l-1,1h-1l-1,-1v1l-2,-2h-1v-1l-1,-1h1v-2h1v-2h1v-1h-1l-1,-1h-1v-1h-1v-1h-3v-2h-1v-1h-1l-1,1h-1l-2,1l-1,1h-1l-1,1h-1v1l-1,1v1h-1v3h-1l-2,2h-3v1h-2v-1h-2v-1h-5v-1h1h-2v-2h1v-1h1v-1h-3v-1h-1v-1h-1v1v-2h-1v1h-4v1h-3v1h-4l-1,1h-1l-2,2h-6v1h-1l-1,1v-1h-1v1h-1M157,137l1,-1v-1h1v-1h1h-1h1l7,-7h1v-1h1v-1h1v-1h1v-1h1l3,-3h1v-1h1v-1h1l3,-3h1v-1h1v-1h1h-1l-1,2h-1v1h-1h1v-1h1l3,-3v1v-1h1l1,-1h1v-1h1l2,-2v1h-1v1h-1h1v-1h1l-2,2v1h-1l-1,1v1h-1v1h-1l-1,1h1v-1v1h-1v1l-1,1h1v-1h2l-1,1h1v-1v2h-1l-1,1v1h-1v1l1,-1h1l-1,1h2l2,-2h1v-1h1v-1l1,-1v-1h1v-1h1v-1h2l3,-3h1l1,-1h1v1l1,-1v-1l1,-1h1v-1v1v-1h1h-1h1v-1h1l1,-1h1v-1v2l1,-1h4v1v-1h7l1,-1h1l1,-1h1v2h1v1l-2,1l-4,4h-1l1,1h1l1,-1v1h-1l-1,1h1v1h1h-1v1h-2v1h-1v1l1,-1h1v1h1v-1h3l1,-1h2l1,-1h2l-1,1h-2v1l-1,1v1l-1,2v1l-2,2l-2,4l-3,3l-1,2l-2,2l-1,2v1l1,-1h1l1,-1h1v-1l1,1h-1h1l-2,2h1l-1,1h1v1h2l1,-1h2v3l-2,2v1h1v1l-1,1v1h-1v1h1l1,1h-1h3v-1h1l-1,1v1l-1,1l1,1h-1v1v-1h-2v1h-1v1l-1,1h-1l-1,1h-3l-5,5v1h-1v1h-1v1h-3l-1,1v-2h-2v-1l-1,-1l-1,1v1l-3,2l-1,1l-2,1l-4,4v1l-2,2v-1h-1v-1h-3v1l-1,-1h-1v1h-3v1h1v1l-4,4v1l-1,2l-1,1v1h-1v1l-1,1h-2v1h1h-2v1h-1l-1,1v1l-1,1"/>
<path class="sb" d="M110,280v1h1l1,-2h2v5l1,1v5h2v6h2l-1,1v2h2v3l1,-1v2h1l1,-1v1h1v1l1,1h3M130,310v-1h1v-1l3,-3h1v-1h2v-1h1l1,1v1h-1l1,1h2v1h1v-1h1v1l1,1l-1,1M120,238h1l1,-1h1l1,-1v1l-1,1v1l-1,2v1l-1,1v1h1v2h-1v1l-1,1h-1v2l-2,2v3l-1,1v2h-1v2h-1l-1,1v-2h-1v1l-1,1v3h-1v1h-1v2h-1v2h1v3h1v3l-1,1l1,1v3h-1l-1,1l-1,2l-3,3v1h-1v1l-1,1v2h1v2l1,1v5l1,-1v2l1,1v1l1,1v1h1l1,-1v1l1,1v-1h1v1h1v5h1v1h2l-1,1v1h2l2,2l1,-1v2h3l1,1v-1l2,-2v-3l2,-4l1,-1v-2h3l1,1h-1v1l-1,2l-1,1v1h1h-1v1h-1l1,1l-1,1l1,1h1v1h1v1h2l1,-1h1v1h3v1l1,-1l1,1h2v-1h1v-2l1,-1v-1h-1l-1,-1v-1h1v-1h1v1h1v-1h4v-2h1l2,-1v-1h1v-1h3v-1h2v-1h1v-1h1l1,-1h2v1h1v1h2v-1h2l1,-1h1v2l1,-1v1h-2v2h-1h1l1,-1v3l-1,1h-1v1h2v1h1l1,1v3h-1l-1,1h-1v1h-1v4h-1v-2h-3l-1,1h-1l-1,1h-1l-2,2h-1l-1,1v1l-1,1v2l-2,2v1l-1,1h-1v1h-1v1h-1v1h1v1l-3,3v1h-1l-1,2v1l-2,2l-1,-1h-1l-1,-1l-1,2v2l-1,2v1l-1,1h-1v1l-1,1v4h-1v1h-1v1h-1v-1h-1v1M123,222v1h1v4l-1,1l-1,2h-1v3l1,-1v2l-1,1v2h-1v2h-1v1h-2v1v-1l-1,1h-2v1l-1,-1v-1h-1v-1l-1,-1l-3,3v1l-1,1v1h1l-1,1h-1v1h-1v2l-2,2v2l-1,1h1l-1,2v1h1v2h-1v1h-1l-1,1h-1l-1,1l-2,4v1l-1,1h-1l-1,1l-1,2h-1v1l-1,1v1h-2v1l-2,2l-1,2l-4,4h-1v1l-1,1l-1,2h-1v1h-2l-2,1v-1l1,-1v-1h-1v1h-1v1l-1,2l-1,1h-1v1h-1v1l-1,1v5l-1,1v1l-1,1v3l-1,2v3l-1,1v2h-1v2l-1,1v-1v1h-1v-1h1h-2v1h-1v-2h-1v-1v1h-1l-1,2h-1M114,353l1,-1v-4l1,-2v-1l1,-1v-1h-1l1,-2v-3l2,-2v-2h-1v-1l-1,-1v-1l2,-2h1l1,-2h2v-2l-1,-1v-2l-1,-1l1,-1v-1h1l2,-2v-1v1l1,1h-1h1v1l1,-1v-1v4h2v2l-2,4l2,2h3l1,1h4l1,1v2h-1v1l-2,2v1h-1v1h-2v1h-2v1l-2,2v6h2v-2l1,-1v-1h1v-1h1v-1v1h1l-1,1v3l-1,1v6l-1,3v1l-2,4v1v-1h-1v-1v1h-1v4l-1,1M143,183l2,-2h1v-1h3v4l4,-4h1v-1h1v4h5v1h1v1h2v1h1v2h-1v1h1v3h-1v1l-1,-1l-1,1h-2l-1,1h-1l-2,1l-1,1l-2,1h-2l-1,-1v1l-1,1h-1l-2,2h-3l2,-2l-2,1v-1h-1v1h-1l-1,1h-2v1h-1v1h-1v2h-2M132,196l-1,1h-1v1v-2h-2v1v-1v1h-1v1h-1v1h1v1h1v1l-1,1h1l1,-1h1l-1,1v1h1l-1,1h4v1l-1,1v1h-1v1h-1v1l-1,1v1l1,-1h1v3h-1l-1,1v1l-1,1v1l-1,1v1h-1v1l-1,1M125,174l1,-1l1,-2l2,-1l1,-2l4,-4l1,-2l2,-1l1,-1l1,-2l2,-1l1,-2l2,-1l1,-2l1,-1h2l1,-1h1v1h-1v2h-1v1l-1,1v1h-1v1l-1,1v1h-1v1l-1,1v1h-1v1l-2,2v1h1l1,1v1h1v-1h1l-1,1v1l-1,1v1h-1v1l-1,1v1v-1h1l-3,3v1l-1,1h-1l-1,1v2l-4,4v1h1v1h1h-1v1l-1,1v1h-1v1h1v-1h1l4,-4h1l1,-1h2l2,-2v1v-1h2v-1v1h-1v1h-1l-1,1h-1v1h-2v2h1h-1v2l1,-1h1v-1h1l-1,1v1l-1,1h1h-1v3h1h-1l-2,2v-1l-1,1h-1l-1,1h-1v-1h-1v-2h1l1,-1h1v-2l1,-1l-1,1h-1v1h-2l1,-1h-1v1h-1l-1,2l-1,1v-1h-1v1l-1,1v1h-1l-1,1h-1v-1h-1v1h-1l-1,1v2h-1v1h1l-2,2v1h-1v1l-1,1v1l-1,1h-1v1l-4,4"/>
<path class="sb" d="M128,168l1,-1v-1h1v1l-2,2v1h-1l-1,1v1l-2,2h1l-1,1v1l1,-1v-1l2,-1l1,-1v-1h1v-1h2v-1h1h-1v1l1,-1v-1h1l1,-1l-2,2v1l-1,1v2h-1v1h-1v1h-1v1l-3,3h1v3h-1v1l-2,1v1l-1,1v1l-2,2v1l-1,1v1h-1v2l-1,1v1h-1v2l-1,1v2l-1,1v5h-1v1l-2,2v1l-1,1M127,167l1,-1v-1h1l1,-1M96,218v1h-1v3l-1,1l1,-1v1v-1h1l1,-1v-1h1v-1h2v-1v1v-1h1l5,-5v-1l1,-1h2v-1h1v-1v3h1l-1,1h1v1l-1,1v1h1v-1h2v-1h1l-1,1v1h1v-1l2,-2h1l-1,1h1v-1h1v-1l1,-1h1l2,-2v-1h1v2l-2,2v2l-2,1v1l-3,3v1l-1,1v1l1,-1h1l1,-1h1l1,-1h1l1,-1h1v1h-1v1h2v-1h1v1h-1v1h-1v1h-1l-1,1v-1h-5l-1,1h-1v1v-1l-2,2h-1v2l-2,2v2h-1v1l-2,2h-1v1l-1,1h-1v2h-1v2h-3v-1l-1,1v1l-1,1v2h-1v1h-1v1h-2l-1,1v1l-2,2l-2,4l-2,2v-2h-1l-1,1h-1v2h-2l1,-1h-1v1l-1,1h-1l-1,1l-2,4v1h-1v1l-2,2h-4v-1l-1,-1v-5"/>
<circle class="w3" cx="500" cy="424" r="41"/>
<circle class="w3" cx="500" cy="424" r="39"/>
<circle class="c3" cx="500" cy="424" r="40"/>
<path class="sg" d="M 258.6107 937.0758 A 249.7500 37.6331, 0, 0 0, 740.3893 937.0758"/>
<path class="sg" d="M 68.5986 752.1345 A 432.5797 65.1825, 0, 0 0, 930.4014 752.1345"/>
<path class="sg" d="M 0.0000 499.5000 A 499.5000 75.2662, 0, 0 0, 999.0000 499.5000"/>
<path class="sg" d="M 68.5986 246.8655 A 432.5797 65.1825, 0, 1 0, 930.4014 246.8655"/>
<path class="sg" d="M 258.6107 61.9242 A 249.7500 37.6331, 0, 1 0, 740.3893 61.9242"/>
<path class="sg" d="M 551.1721 996.3201 A 280.5022 499.5000, -5.93773365, 0 0, 447.8279 2.6799"/>
<path class="sg" d="M 650.6750 975.5739 A 446.1176 499.5000, -17.61699304, 0 0, 348.3250 23.4261"/>
<path class="sg" d="M 59.1879 735.3506 A 492.1962 499.5000, 61.82452975, 0 1, 939.8121 263.6494"/>
<path class="sg" d="M 392.9636 987.5064 A 406.3911 499.5000, 12.31499760, 0 1, 606.0364 11.4936"/>
<path class="sg" d="M 463.8753 997.7280 A 211.6940 499.5000, 4.08985422, 0 1, 535.1247 1.2720"/>
<path class="sg" d="M 505.5745 998.9631 A 39.7265 499.5000, -0.69679917, 0 0, 493.4255 0.0369"/>
<text x="0" y="0" class="fs" transform="translate(902,304) rotate(68)">150W</text>
<text x="0" y="0" class="ft" transform="translate(902,304) rotate(68)">150W</text>
<text x="0" y="0" class="fs" transform="translate(133,313) rotate(110)">90E</text>
<text x="0" y="0" class="ft" transform="translate(133,313) rotate(110)">90E</text>
<text x="0" y="0" class="fs" transform="translate(309,336) rotate(100)">120E</text>
<text x="0" y="0" class="ft" transform="translate(309,336) rotate(100)">120E</text>
<text x="0" y="0" class="fs" transform="translate(535,342) rotate(87)">150E</text>
<text x="0" y="0" class="ft" transform="translate(535,342) rotate(87)">150E</text>
<text x="0" y="0" class="fs" transform="translate(752,331) rotate(74)">180E</text>
<text x="0" y="0" class="ft" transform="translate(752,331) rotate(74)">180E</text>
<text x="0" y="0" class="fs" transform="translate(746,797) rotate(-7)">30S</text>
<text x="0" y="0" class="ft" transform="translate(746,797) rotate(-7)">30S</text>
<text x="0" y="0" class="fs" transform="translate(783,557) rotate(-6)">0N</text>
<text x="0" y="0" class="ft" transform="translate(783,557) rotate(-6)">0N</text>
<text x="0" y="0" class="fs" transform="translate(744,302) rotate(-5)">30N</text>
<text x="0" y="0" class="ft" transform="translate(744,302) rotate(-5)">30N</text>
<text x="0" y="0" class="fs" transform="translate(639,100) rotate(-6)">60N</text>
<text x="0" y="0" class="ft" transform="translate(639,100) rotate(-6)">60N</text>
<path class="tb" d="M127,998h-2l-1,-1h-2l-1,-1h-2l-1,-1h-2v-1h-3v-1h-2l-1,-1h-2v-1h-2l-1,-1h-2v-1h-2v-1h-2l-1,-1h-2v-1h-2v-1h-2v-1h-2v-1h-2v-1h-2v-1h-2v-1h-2v-1h-2v-1h-1l-1,-1h-1v-1h-2v-1h-2v-1h-1v-1h-2v-1h-1l-1,-1h-1v-1h-2v-1h-1v-1h-2v-1h-1v-1h-1l-1,-1h-1v-1h-1v-1h-1l-1,-1h-1v-1h-1v-1h-1v-1h-2v-1h-1v-1h-1v-1h-1v-1h-1l-2,-2h-1v-1h-1v-1h-1v-1h-1v-1h-1v-1h-1v-1h-1v-1h-1v-1h-1v-1h-1v-1h-1v-1h-1v-1h-1v-2h-1v-1h-1v-1h-1v-1h-1v-1l-1,-1v-1h-1v-1h-1v-1l-1,-1v-1h-1v-1l-1,-1v-1h-1v-1l-1,-1v-1h-1v-2h-1v-2h-1v-1l-1,-1v-1l-1,-1v-1l-1,-1v-2h-1v-2h-1v-3h-1v-2h-1v-4h-1v-3h-1v-5h-1v-6l-1,-1v-17h1v-7h1v-4l1,-1v-3h1v-3h1v-3h1v-2l1,-1v-2h1v-2h1v-2h1v-2h1v-2h1v-2h1v-2h1v-1h1v-2h1v-1h1v-2h1v-1h1v-1l1,-1v-1h1v-1h1v-1l1,-1v-1h1v-1h1v-1h1v-1h1v-1h1v-1h1v-2h1v-1h1v-1h1v-1h1v-1h1l3,-3h1v-1h1v-1h1v-1h1v-1h1v-1h1v-1h1l1,-1h1v-1h1v-1h1v-1h1l1,-1h1v-1h1v-1h2v-1h1v-1h1v-1h2v-1h1v-1h2v-1h1v-1h2v-1h1l1,-1h1v-1h2v-1h1l1,-1h1v-1h2v-1h2v-1h2v-1h1l1,-1h1l1,-1h1l1,-1h1l1,-1h1l1,-1h2v-1h2v-1h2v-1h2l1,-1h2v-1h2v-1h2l1,-1h2v-1h3v-1h2l1,-1h2v-1h3v-1h3v-1h159v1h3v1h3v1h2l1,1h2v1h3v1h2l1,1h2v1h2v1h2l1,1h2v1h2v1h2v1h2l1,1h1l1,1h1l1,1h1l1,1h1l1,1h1v1h2v1h2v1h2v1h1l1,1h1v1h2v1h1l1,1h1v1h2v1h1v1h2v1h1v1h2v1h1v1h1v1h2v1h1v1h1l1,1h1v1h1v1h1v1h1l1,1h1v1h1v1h1v1h1v1h1v1h1v1h1l3,3h1v1h1v1h1v1h1v1h1v2h1v1h1v1h1v1h1v1h1v1h1v1l1,1v1h1v1h1v1l1,1v1h1v1h1v2h1v1h1v2h1v1h1v2h1v2h1v2h1v2h1v2h1v2h1v2l1,1v2h1v3h1v3h1v3l1,1v4h1v7h1v17l-1,1v6h-1v5h-1v3h-1v4h-1v2h-1v3h-1v2h-1v2l-1,1v1l-1,1v1l-1,1v1h-1v2h-1v2h-1v1l-1,1v1h-1v1l-1,1v1h-1v1l-1,1v1h-1v1h-1v1l-1,1v1h-1v1h-1v1h-1v1h-1v2h-1v1h-1v1h-1v1h-1v1h-1v1h-1v1h-1v1h-1v1h-1v1h-1v1h-1v1h-1v1h-1l-2,2h-1v1h-1v1h-1v1h-1v1h-2v1h-1v1h-1v1h-1l-1,1h-1v1h-1v1h-1l-1,1h-1v1h-1v1h-2v1h-1v1h-2v1h-1l-1,1h-1v1h-2v1h-1v1h-2v1h-2v1h-1l-1,1h-1v1h-2v1h-2v1h-2v1h-2v1h-2v1h-2v1h-2v1h-2v1h-2l-1,1h-2v1h-2v1h-2l-1,1h-2v1h-2l-1,1h-2v1h-3v1h-2l-1,1h-2l-1,1h-2l-1,1h-2Z"/>
<path class="tl" d="M169,986h1v1h-3l-1,-1h2v-1ZM114,989h-3l-1,-1h2l1,1ZM176,983h1l1,1v1h1l-1,1h-2l-1,1h-1l-1,-1l1,-1v-2h1v-1ZM124,980h2v1h-1ZM122,980l1,1h-1l-1,-1ZM136,977h1h-2ZM156,974v1l1,1h-5v-1l1,-1v-1l-1,-1l1,-1v1h1l1,1ZM158,964v1h-2v2h1l-2,2v1h1l1,1h1l4,4v1l1,1v1h-1v2h-1l-1,1h-1v1h-2l1,1h1v1h-2l1,1h1v1h3l1,1h3l1,1h3l1,1h1l1,1v-1h1v-1h2l2,-1l1,1h1v-1h4v-1h3l1,-1h-1v-1h-4l-1,-1l1,-1h1l2,-2h4l1,-1h1l2,-2h-1v-1h1v-1h2v-1l1,-1h1v1h1v-1h8v-1h3v-1h1l1,1h2v-1h1v1l1,-1h4v1h6v-1h3v-1h2v1h3l1,-1h3v-1h2l1,-1h2l1,-1h4v1h1v1h1l1,1h1l1,-1l1,1h2v1l-2,2h-1v1h1h-1v1h-1v1h2l2,-2h1v-1h3l1,-1h1v-1h2l1,-1h5v-1h1v1h5v1h1l1,-1l1,1l1,-1h1l2,-1v1l1,1h3l1,-1h2v1h1v1h4l1,-1v1h9l1,-1l-1,1v1h-1h3l1,1h2l-1,1v1h1v1h2v1h1v2h2l1,1v1h-1l-1,1h-2l-1,1h-3l-1,1h-2l-1,1h-2l-2,2v1h-5l-1,1h-2v1h-1v3h2l-11,4h-155l-11,-4h-1h2l1,-1l1,1h14l-1,-1h-7v-1h-2v-1h-3l-1,-1h4v-1h-2l-1,-1h-7l-1,-1l-2,-1l1,1l1,-1l2,1v-1h1v-1l-1,-1h-1h2v-1h2v-1h4l1,-1h5l1,-1l1,1v-1h1l1,1h1v-1l1,1h6v-1h-2l-1,-1h-1l-1,-1h4l1,1h1l1,-1h3l-1,-1h1l1,1l1,-1l1,1h3v-1l1,1h4v-1h2l1,-1v-1h-1v-1h-1v-1h-1v-1h-1v-2l-1,-1v-1h1v-2h1v-1h1v-1h1l1,-1l1,1ZM144,951l2,1h1v1h-1v-1v1h-4l-2,-2l-2,-1l2,1h2v-2h1v1ZM151,947h1v1h-2v1l-1,-1l1,-1ZM269,946h-1v-2h1l1,1ZM345,939v1h1l1,-1v1l-3,3v-1l-1,1h-1l1,-1v-1l1,-1v-1ZM368,943v1l1,-1v1h-1l-3,3h-1l-1,1h-1l-2,2h-2v1h-1v-1h-1v-1l4,-2h1l1,-1h2l2,-2h1l2,-2ZM376,936l-1,2l1,-1l-1,1l1,1h1l-2,2h-1l-2,2l-2,1h-1l2,-1v-2l1,-1l2,-1v-1l1,-1v-3l1,-1v1l1,1ZM382,913l-1,1v-2l-1,-1v-1h1v1l1,1ZM397,906v1l-1,1h-1v-1l1,-1v1ZM398,906h-1v-1h1l1,-1v1ZM10,905v-1ZM386,904v-1ZM386,901v2h-1v-1ZM259,895v2l1,1h-1v1v-1v2h-1v3l-3,6v2h-1l-1,1l-1,-1h-1v-5h1v-2l1,-1h-1v-3h1v-1h1l2,-2h1v-1l1,-1v-1l1,-1v1ZM361,898v1h1v1h1l-1,1v2h1l-1,2v1l2,2v4h1l-1,2l1,1v3l-1,1v2l-3,3v1l-1,1l-1,2h-1l-1,2h-1l-4,4v1h-2l-1,1h-1l-1,1v-1h-1l1,-1h-1l-1,1h-1v-1h-1v-3h1l-1,-1v-1l1,-1l-1,1h-1l3,-3l-2,1h-1l-1,2v-4l-2,-2h-2l-1,1h-4l-2,2h-4l-1,1v-1l-1,1h-2v-1h-1l1,-1v-1h1v-3l1,-1v-7l1,1v-3l1,-1v-1l1,-1l-1,1l2,-2h1l1,-1h2l1,-1h2v-1h1l1,-1v-2l1,-1v2l1,-1v-1h1v-1l2,-2h2v1h2v-2h1l1,-1v-1h2v-1h-1h1l1,1h3l1,1h-1v1h-1v1l-1,1v1l2,2v1h1l1,1h1v-1l1,-1v-1l1,-1v-3l1,-1v-2h1v-1v3l1,1Z"/>
<path class="tl" d="M383,894h-1v-1v1ZM337,892l-2,-1h2ZM381,893h-1v-1h1ZM382,892v-1l-1,-1h1ZM341,892h-1l3,-3h2l-1,1h-1l-1,1ZM335,889h1v1h-3l1,-1ZM340,889v1h-3v-1h2ZM381,890v1l-2,-2h1v1ZM378,889v-1h-1v-1l1,1ZM325,887h2v-1l2,1v1h2l1,1l-1,1l-1,-1h-4l-1,-1h-1l-2,-1h-1l1,-2h1l1,1ZM353,886v1v-2ZM377,888h-1v-2l-1,-1h1v2h1ZM373,885l-1,1h-1l-1,1l-1,-1h-1l1,-1l1,1v-1h2v-2h1v1ZM345,882h-1v-1h1ZM349,881v2l-1,-1h-2v-1h2ZM374,884l-1,-1v-1l-1,-1h-1h2v2h1ZM353,878v3l2,1v-2l2,-1h1l1,1h1l1,1l4,2v1h1v1l2,1v1h-1v1l1,1v2h1v1h1h-1l1,1l-1,1v-1h-2l-1,-1v-3h-3l-1,1v1h-2l-2,-2v1h-2l1,-2h1l-1,-2v-1l-2,-1h-1l-1,-2l-1,1l-1,-1h1l-1,-1l1,-1h-1v-1h-1l-1,-1h2v-1ZM343,875l-1,1h-4v1l1,2v-1h2l-1,1h-1l1,2v1l1,2v1h-1v-2l-1,1v-1l-1,-1l1,-1h-1v4h-1v-3h-1v-1l1,-1v-4h1v-1h4l1,-1ZM347,875v1h-1v1l1,1h-1v-4h1ZM321,885h-1l-2,-2v-1l-2,-2l-1,-2v-2l-1,-1v-1l-4,-4v-1h2l3,3l1,2h1l2,2h1l-1,2h1v1l1,1h1v3ZM335,874l1,1h-1v3l-1,1v1l-1,3v-1l-1,1l-1,-1h-1v-1l-1,1l-1,-1h-1l-2,-4v-2l1,-1h2v-2h2v-1l1,-1v-1h1l1,-1v-2h1v1l2,2v1h-1l-1,2l1,1ZM344,864v3l-1,-1v2l-2,-2h1l-1,-1v1l-1,-1l-1,1v-1l1,-1h2v-1h1v-1l1,1ZM294,868h-1v-1l-1,-2l1,-2l1,1v1l1,1v1ZM137,863h-1l1,-1h1ZM341,861v1l-1,1l-1,-1l1,-1v-1v1l1,-1ZM335,863l-1,1v-1l1,-1v-1l1,-1v1l-1,1ZM338,859h2v1l-1,1v-1h-1ZM342,858l1,2h-1v1v-1h-1v-1h1h-1v-1ZM338,857l-1,1l-1,-1h1ZM336,849h1v6h1l2,1v2l-1,-1v-1v1l-1,-1h-2v-1h1h-1l-1,-1v-5ZM133,851v1h-1v-1ZM121,852h-1v-1h2v1ZM126,849h3v1h1v1h-2l-1,1v-1h-1v-2h-1ZM324,849l-1,1h-1v-2l1,-1h1v1ZM37,846v-2h1v2ZM38,844h-1v-1h1ZM119,845h2l1,1v1h1v1h2l-1,1h-3v-1h-1v-2h-2l-1,-1h-1h1h-2l-1,1h-1l2,-2h3ZM122,843h-1v-1l1,-1v1ZM334,843v1l-2,-2v-2l1,-1l1,1ZM122,839l-1,1v-1ZM123,839v1v-1h-1ZM340,825h1v1h-1v1h-1v-2ZM240,828l-2,2v-1h-1h2ZM229,828v1h-1ZM220,825v2h-1l-1,-1h-1v-1h2ZM214,821v3h-1v-3ZM344,820v1l1,1v1l-1,1h-1l-1,2l-1,-1v-1l-2,1l-1,1h-1l2,1v3l-1,-1v-1h-1l-1,-1l1,-1v-3h3v-3l1,1v-2h1l-2,-4v-1l3,3v1ZM214,820v1l-1,-1v-1l1,-1ZM340,810l1,-1l1,2h-1v2l-2,-1l1,2h-1l-1,-2l-1,-1h1l-1,-2l-1,-1l3,1ZM144,812l1,1h1h-2ZM147,809h-1l-1,-1h1ZM92,806h-1l-1,-1v-2h-1v-1h1l1,1v1l1,1ZM153,807l-1,1h1v1h2l-1,1h1v1l-1,2l-1,-1l1,-1l-2,1v-1h-3l1,-1h-1l4,-4h1Z"/>
<path class="tl" d="M90,797h1l-2,2v1v-3ZM332,800l3,3l-2,-1l1,2l2,2v1l-2,-2l-1,-2l-6,-6v-1h-1h1l3,3ZM198,806l-1,1h-2l1,-2v-1l2,-2h1v3ZM216,801l-1,2l-1,-1v-1h1ZM79,791h-1v-1h2ZM202,797l-1,2h2v1l-1,1h1l2,4h1v1l-1,1h1l-1,1h-3l-1,1h-2l2,-2h-1v-1h1l-1,-1v-1h2l-1,-1h-1v-2l-1,-1l1,-2v-1l1,1ZM75,786h-1v-1h1ZM141,790l-1,1v-1ZM139,790h-2l1,-1h1ZM78,780v1h1h-2v-1ZM139,786h1v1h1l-1,1h1l-1,1l-1,-1h-1l-2,1l1,-1h-1h1l1,-1l1,-2ZM193,787v1l1,1l-1,1h-3l-1,1l-1,-1h-2l1,-1h-1h1v-1h-2l1,-1h1l1,1l2,-1h2ZM147,784h-1l1,-1h2l-1,1ZM81,776v1l1,-1h2l-1,2h-3l-1,1h-1l-1,-1h1v-1h-1h1h-2l-1,1l8,-5v1l-1,2ZM135,780l-1,1v-1h-1l1,-1h1ZM322,771h-1ZM88,771h-1h2ZM139,780l-1,2l2,-1v1h-1v1l1,-1l2,-1l1,-1h2v2h-1v1l-1,1l-2,1h-1v-1l-1,1l-2,1v1h-3l-2,2h-1l-1,1l-2,1l-1,1l-1,2h1l-1,1v1h1l3,3l2,1h1l-2,2v2l1,1h1l2,-4h-1l4,-2v-1l1,-1v-1l-1,-1l2,-1l2,-4l1,1h1l1,-1v1l1,1h1v2l-1,1l1,1h2l1,-2h1v3l1,1l-1,1l1,1v1h1l1,1v1l1,1l-2,2h-2l-2,2h-1l-2,-1h-2l-2,1l-1,1l-2,1l-1,1l2,-1l3,-1h2l-1,1l-1,2v1l1,1l2,-1l1,-1v1h1l-4,2h-1l-2,1v-1l2,-1h-3v1h-1l-1,1h-1l-2,2l1,1v-1v1h-3l-1,1l2,-1v1h-2l-2,2v1l-1,1l-1,-1l1,-1l-1,1v4l-1,1h-1l-1,1h-1l-3,3h-1v8l-1,1h-1v-3l-1,-1l1,-1l-1,-2l-1,1l-1,-1h-4v1h-1l-1,-1l-1,1l-1,-1l-2,2h-2v1h-1v3l-1,1v1l-1,2v4l1,1v1h1v1l1,-1h3v-1l1,-1v-1l1,-1h3v1l-1,1v2l-1,1v-1v2l-1,1v1h5v1h1v1l-1,1v3l-1,1h1v2h1v1h2l1,-1h1v1h1l1,1l1,-1v-2l1,-1h2l2,-2v2h-1h1v1l-1,1v1h1v-3h1v-1h1v1h1v1h3l1,1l1,-1h1l1,1h1v1l1,1h1v1h1v1l1,1l2,1v-1h1l1,1h1l1,1v1h1v1l1,2v1l-1,1l1,1h2v1v-1l4,2v1h1l3,1h1l2,1l2,2h2v5l-1,1l-1,2l-2,2v9l-1,2v2h-1v1h-2l-1,1h-1l-3,3v5l-1,2l-2,2v2l-2,2v-1l-1,1l-1,-1h-1v-1v1l1,1v1l1,1v2l-2,1h-3l1,1v2l-1,1l-1,-1h-1l1,2h2l-2,2l1,1v1h-1l-1,1v1l2,1h1v1l-1,1v2h-1v1l2,2h-1l-1,1v1h-1l-2,-1l-3,-3l-1,-3v-1l1,-1h-2l1,-2l-1,-2h1v-2l-1,-1v2l-1,-2v-4l-1,-1l-1,-2h1v-6l-1,-2v-8l-1,-2v-6l-1,-2l-1,-1l-2,-1l-3,-2l-1,-1v-1l-1,-2l-1,-3l-2,-3l-2,-2v-1l-1,-2l2,-2v-1h-1v-3l1,-1v-1h1v-2h1l1,-1v-5l-1,-1v-2h-1v1h-1v1h-1l-1,-1h-2v-2h-1v-1v1h-1v-3l-2,-2h1h-2v-1h-2l-1,-1l-1,-2h-1l-1,-1v1h-2l-1,-1h-2l-2,-2h-1l-1,-1v-1h-1v-3h1l-1,-1v-3l-1,-1v-1l-1,-1v-3h-1v-5l-1,-1l-1,1v4h1l-1,1h1v5h1v2h-1v-1l-1,-1v-3l-1,-1v1v-1h-1v-1h1v-9h-1v-1h-1v-9l2,-2v-1l1,-2l2,-2l1,-2l1,-1v-1h1v1l2,-2h-1v-2l-1,-1v-1l1,-1l-1,-1l1,-1v-1l1,-1l-1,-1l1,-1v-1l1,-1l-1,-1h-1v-2h-1v-1h-1l-1,-1h-1l-1,1h-4l1,-1l2,-1h-1l-1,1l-2,1h-1l-1,1l-2,1h-2l-2,1h-1l-1,1h-3l-1,1h-2l1,-1h2l2,-1h2l2,-1h1l2,-1l1,-1h-3l1,-1l-1,1h-1l2,-2h-1v-1l2,-2l2,-1h3l1,-1h1l1,-1h-3v-2h4l1,1l1,-1v-3h4l1,-1h2l2,-1l1,1l1,-1h1l-1,1h1l1,1h2l1,1h2v1l1,1l1,-1h6l1,-1v2l2,-1l-1,1h2l1,1h2v1l-2,1h4v1l2,-2h2v1h1l1,1h2v-1h1l1,1l-1,1l1,-1h1l1,-1v-2l1,-1l2,-1l1,1l-2,2Z"/>
<path class="tl" d="M128,774l-1,1h4l-1,1h1l2,-2v1l-1,2v1l1,1h-2v1h-8v-1h-1v-1h4l-1,-1h-3l2,-1h-1l1,-1h1ZM135,774l-2,1v-1h1ZM152,776v1l-1,-1l-1,1v-2h2ZM146,776v1l1,-1l2,-1v2h3l1,1l-1,1l2,-1v1l1,1v2h-1l2,2v1h1v1l-2,1h-1l-1,-2l-1,1v1l1,1v2l-1,1l-2,-2v1l1,1h-2l-2,-2v-1l-1,-1v1h-3v-1l1,-1h3l1,-1l2,-1v-1l-1,-1h-1l1,-1l-1,-1h-5l-1,-1h-1l1,-1h-1l1,-1l2,-1l1,-1h2ZM138,774h2l-1,1h-1l1,1l-2,1h-2v-2l1,1v-1ZM298,772h-2v-1ZM141,776l-2,1v-1l2,-2h2l1,1l-2,1ZM122,776h-2l-1,-1h1l2,-1l2,-2h2v1h2v1h-1l-3,1h-2ZM299,769v1h-3v-1h1ZM143,773v1l-1,-1h-1l1,-1h1l1,1ZM295,769l1,1h-2l-1,1l-2,-1l-1,-1h2ZM143,771h-1v1l-1,1h-2l1,-1h-1l1,-1h2ZM136,771h1v1h-4l-2,1h-1l1,-1h-1l-1,-1l2,-1h1l2,1l1,1v-2h2ZM246,780h-3l-2,-1v-1l1,-2h-1l1,-1l-1,-1h1l4,-2h2l-1,1l-2,1l-1,1v2l-1,1l1,1ZM145,770l1,1h1l-1,1h1l1,1h4v1h-7l-1,-1l1,-1v-1h-2l1,-1ZM134,769l-2,1h-4l2,-1h3ZM271,770l1,1v-1h2l2,1h1v1l-1,1h1l2,1v-1l1,1l1,-1h2l1,1h3l-2,-1h5l1,1v1h2l2,1l-1,-1h1l1,-1l2,1v-1h1l-2,-1h8l3,1l1,-1h2l2,2h2v-1h3l3,1v-1h-2v-1h7l8,5h-1l1,1l2,1h2v1h-1v1h-1l1,1v2l-2,-1v2l-1,-1v1h-1l2,2v1h1l3,2h-1l1,1h1v1l1,2h-1l1,2l1,1l-4,-2l-4,-3l-1,-2l-1,-1v-3l-1,-2v-1l-2,-2l-1,1l2,2l-3,-1l-1,1l1,2l1,1h-1l-1,1l-1,-1h-1v1h-4v7h1l2,1h1l-1,-1h1l3,1l1,2l1,1l1,2l2,2v9h-1l-1,-1v2h-1v1l1,1v1h-1v1l1,1h1l2,2v1l1,1v1l-1,1h-1l-1,-2l-1,-1h1l-2,-1v-1v1v-1h-1v-1l-1,-1h-2v1h-1l-1,-1l1,-1l-1,-1l-1,1v2h-1v1l2,2h1v-1h2l1,1l-2,1v2l2,2l1,2l2,1v2h1v6l-2,4l-1,1h-1v1l-1,-1v1l-2,1h-1v2l-1,-1v-1h-2l-1,2v2l1,1l1,2l2,2l1,3v4l-2,1v1l-2,1v-2l-1,-1h-1v-1l-2,-2h-1v-1h-1v6h1v3l1,1h1v1h1v1l1,1v3h1v2h-1l-2,-2v-1l-1,-1v-1l-1,-1v-2l-1,-1v-1h-1v-6l-1,-1v-1l-1,-2v-2l-1,-1l-2,2h-1v-3l-1,-2v-1h-1l-2,-2v-1l-1,-1h-1v2l-1,-1v1h-2v2l-2,1l-1,2v1l-2,2h-1v8l-1,1l1,1h-1l-1,1l-1,-1l-1,-2v-1l-1,-1v-1l-1,-2v-1l-3,-6v-3l-2,1h-1l-1,-2v-1l-2,-1l-1,-1v-1l-1,-1l-2,1h-5l-1,-1h-2v-2h-1l-1,1h-2l-3,-3l-1,-2l-1,1v-1l-1,1v2l1,1h1l1,1v2l1,1l-1,-1l1,-1v2h1v1l1,-1h2v-1l1,-1v-1v2l2,2h1l2,2l-1,1v1h-1v3h-1v1h-1v1h-2v1h-1l-2,2h-1l-2,2v-1l-1,1h-2v1h-2v-2l-1,-1v-3h-1v-1l-1,-1v-1l-1,-1h-1v-1l-1,-1v-3h-2v-2l-1,-1v-1l-2,-2v-1v1l-1,1l-1,-1l-1,-2l1,2l1,1l1,2v1l2,2h-1l2,2v1l1,1h-1l1,2v1l1,1l1,2v1l1,1l2,1v1h1v1h1v1l-1,1h1l1,1h3l1,-1h3v-1h1v2l-1,1v3l-1,1l-3,6l-1,1l-2,1l-1,1l-1,2v1h-1v1h-1v2l-1,1l-1,2l1,1v4l1,1v7l-1,1h-1l-3,3h-1v1l-1,1v2h1l-1,1h1v1l-1,1h1l-1,1h-1l-2,2v3l-3,3v1l-2,1v1l-1,1h-2v1l-1,-1v1l-1,-1l-1,1h-2l-1,1l-1,-1h-1v-5l-1,-1v-2l-1,-1v-1l-1,-1v-5l-1,-1v-1l-1,-2v-1l-1,-1v-3l1,-1v-3h1v-1l1,-1v-1h-1v-5l-1,-1v-2l-3,-3l-1,-2l1,-1v-5l-1,-1v-1l-1,1h-2l-1,-1v-1l-1,-1h-2l-1,1h-2l-1,1h-6l-1,1l-4,-4h-1l-1,-1v-1l-1,-1v-1h-1v-1l-1,-1v-1h-1v-3h-1l1,-1v-1h1l-1,-1l1,-1v-4l-1,-1v-1h1v-2l1,-1v-1h1v-2h1l1,-2h1l2,-2v-3l3,-3l1,-2v-1h1l1,1h2l1,-1h2l1,-1h4l1,-1h1v1h1l1,-1h1v1l1,-1v1h-1v1h1v2h-1v1h1v1h3l2,2h1l2,2l1,-1v-2l1,-1h2l1,1h1l1,1h2l1,1h1v-1h2l1,1v-1h1l1,1v-2l1,-1v-5h-2l-1,1l-1,-1h-2v1l-1,-1h-2v-1l-1,-1v-2l1,-1h1v-1h2l1,-1h1l2,-1l2,1l1,1h2l1,-1v-2h-1l-2,-2h-1l-1,-1l1,-1l-1,-1h2l-1,-1v1h-2l-1,1v1h1l-1,1h-1v-1h-1l1,-1h-2v-1h-1v1l-1,1v1h-1v4l1,1h-2v1h-1v-1h-2l1,1h-2v1l1,1h-1h1l1,1v1l-1,-1v1h-1l1,1h-2v-2l-1,-1v-1h-1v-3h-1v-1h-1l-1,-1h-1l-1,-1v-1l-1,-1v1v-1h-2v1l2,2v1l1,1h1l1,1h1l1,1v1l-1,-1h-1v1h1v1h-1v1h-1v-1h1l-1,-1v-1h-1l-1,-1h-1l-2,-2l-1,-2h-2v1h-4l-1,1v2h-2v1l-1,2h1l-1,1v1h-1l-1,1h-2l-1,1l-2,-2v1h-2l1,-1v-1h-1v-2l1,-1v-3l-1,-1l2,-1l1,1h5v-4l-1,-1v-1h-2v-1h3v-2l1,1l2,-1v-1h1l1,-1l1,-2l1,-1h2v-5h2l-1,1h1v1l-1,1v1h1v1l1,-1h2v1h1l2,-2l1,1h1v-1h1v-3l1,-1l1,1v-1l-1,-1v-1h4l1,-1h-4l-1,1l-2,-2v-4l2,-1v-1l-1,-1l-2,2l-1,2l-1,1v3h1v2h-1v2l-1,2h-1v1h-1v-2l-1,-1l-1,-2l-1,-1l-1,2h-1l-2,-1v-5l2,-1l3,-3l2,-3l3,-3h2l1,-2h3l2,1l-1,1h2l1,1h3l3,1l1,1v1l-1,1h-1l-3,-1h-1l2,1v2l1,1h1v-1h-1l1,-1l2,1v-1l1,-2h1l1,1v-1l-1,-1v-1l-1,-1l2,1h1l-1,1l1,1h1v-1l1,-1l2,-1h1v1l1,-1h1l1,-1l1,1l1,-1h-2l1,-1h2l1,1l4,1v-1h-2v-1h-1l-1,-1v-3h2l1,1v1h1l1,1l1,2h1v3l1,1v-1h1l-1,-1l1,-1h-1l-2,-2v-1l-2,-1l1,-1l-1,-1h1l1,2l-1,-1l1,-1h2l1,1l-1,-1l-1,-2h4l-2,-1v-1h1l1,-1h3l1,-1h1v-2l2,1h-1ZM253,820l1,1v2h-1v1l1,1h1l1,1h3l-1,-1v-2h-1v-2h1v-1l-1,-1h-1l1,1l-1,-1v-1h-2v-2h-1h1v-2l1,1v-3h-2l-1,1h-1v1h-1l-1,2l2,1v1l1,1Z"/>
<path class="tl" d="M146,770h-1v-1h1l1,1ZM137,769h-2l1,-1h1l1,1ZM220,771l-1,1h-1v-1h-1l2,-1v1ZM139,768h-2l1,-1v1ZM146,769h-1v-1h1l1,1ZM144,769h-1l-1,-1h-1h1v-1h1l1,1ZM268,768l-3,1v-2ZM215,769l3,1h-2v3h-1l-2,-1h1l-1,-1l-2,-1v-1l1,-1l1,1h1v-1h1ZM220,768h1l-1,1h-4l-1,-1h3ZM234,767l-1,1h-1v-1h-1h4ZM264,768h-4l-2,-1l-1,-1h1l1,-1l4,2ZM153,767v1h-1l-2,1h-2v-1h1h-1v-1l1,-1h2v-1h1v1h1ZM167,764h3v1h-3l-1,1h-1l-1,1l-2,1h-3v1h-1v1h-2l-2,1h1l-2,1h-4l-1,-1h2v-1h2v-1h-1h1l1,-1h1l-1,-1h4l-1,-1h-3v-1l1,-1h6v-1h3v1l2,-1l1,1ZM190,764l3,1h-6v1h5l-1,1l2,-1h4v1l-2,1h-1l-2,2v2l1,1h-2l1,1l-1,1v1h-1l1,1h-3l1,1v1l-1,-1l-1,1h1l1,1v1h-2l-1,-1v1l-1,1h3l-4,2h-3l-1,1l-4,2h-1l-2,1h-1v1l-2,2v1l-1,1l-1,2h-1l-1,-1h-1l-1,-1v-2l-1,-1v-1l1,-1l-1,-2l1,-1l1,-2h1l1,-1v-1l-1,1h-1v-1l1,-1h1l-1,-1h-1l1,-1v-4l-1,-1h-5v-1l-1,-1h1l-1,-1l1,-1h2l3,-1h1l-2,-1h1l3,-1h1v-1h9l1,1l-1,-1h1l2,-1h3l2,-1Z"/>
<path class="th" d="M363,854v1v-1v1ZM363,851h-1ZM363,850h-1Z"/>
<path class="tg" d="M66,970h1l1,-1h4v-1h5v-1h5v-1h6v-1h6l1,-1h7v-1h8v-1h9l1,-1h11v-1h14v-1h20v-1h79v1h20v1h14v1h11l1,1h9v1h8v1h7l1,1h6v1h6v1h5v1h5v1h4l1,1h1M21,927h6v-1h7v-1h8v-1h10v-1h10v-1h12v-1h14v-1h18v-1h23v-1h38v-1h75v1h38v1h23v1h18v1h14v1h12v1h10v1h10v1h8v1h7v1h6M5,877h399M21,826h4v1h7v1h8v1h9v1h10v1h11v1h14v1h16v1h21v1h32v1h103v-1h32v-1h21v-1h16v-1h14v-1h11v-1h10v-1h9v-1h8v-1h7v-1h4M66,783v1h5v1h4v1h5l1,1h5v1h6l1,1h6l1,1h7v1h10v1h10v1h13l1,1h17v1h36v1h21v-1h36v-1h17l1,-1h13v-1h10v-1h10v-1h7l1,-1h6l1,-1h6v-1h5l1,-1h5v-1h4v-1h5v-1M140,755h-1v1h-3v1h-2v1h-2v1h-2v1h-2v1h-2l-1,1h-1l-1,1h-1l-1,1h-1v1h-2v1h-2v1h-2v1h-1l-1,1h-1v1h-2v1h-1l-1,1h-1v1h-2v1h-1v1h-2v1h-1v1h-2v1h-1v1h-1l-1,1h-1v1h-1v1h-2v1h-1v1h-1v1h-1v1h-2v1h-1v1h-1v1h-1v1h-1v1h-1v1h-1l-1,1h-1v1h-1v1h-1v1h-1v1h-1v1h-1v1h-1v1h-1v1h-1v1l-1,1v1h-1v1h-1v1h-1v1h-1v1h-1v1l-1,1v1h-1v1h-1v1h-1v2h-1v1h-1v2h-1v1h-1v2h-1v1h-1v2h-1v2h-1v1h-1v2h-1v2h-1v2h-1v2h-1v2l-1,1v2h-1v2l-1,1v2h-1v3h-1v4h-1v4h-1v5h-1v9h-1v13l1,1v8h1v5h1v4h1v4h1v3h1v3h1v2h1v3h1v2h1v2h1v2h1v2h1v2h1v2h1v1l1,1v1h1v2h1v1h1v2h1v1h1v1h1v2h1v1h1v1l1,1v1h1v1h1v1h1v1l2,2v1h1v1h1v1h1v1h1v1h1v1h1v1h1v1h1v1h1v1h1v1h1v1h1v1h1v1h2v1h1v1h1v1h1v1h1v1h1l1,1h1v1h1v1h1v1h2v1h1v1h1l1,1h1v1h1v1h2v1h1v1h2v1h1l1,1h1v1h2v1h1v1h2v1h2v1h1l1,1h1v1h2v1h2v1h2v1h2v1h2v1h2v1h2v1h2l1,1h2v1h2v1h2M153,755h-1v1h-2v1h-2v1h-1v1h-2v1h-2v1h-1v1h-2v1h-1v1h-2v1h-1v1h-2v1h-1v1h-1v1h-2v1h-1v1h-1l-1,1h-1v1h-1v1h-1v1h-1v1h-1l-1,1h-1v1h-1v1h-1v1h-1v1h-1v1h-1v1h-1v1h-1v1h-1v1h-1v1h-1v1h-1v1h-1v1h-1v1h-1v1h-1v1h-1v1l-2,2v1h-1v1h-1v1h-1v1l-1,1v1h-1v1h-1v2h-1v1h-1v1l-1,1v1h-1v2h-1v1h-1v2h-1v1h-1v2h-1v2h-1v2h-1v2h-1v2h-1v2h-1v2h-1v3h-1v2h-1v3h-1v3h-1v3h-1v3h-1v4l-1,1v4h-1v6l-1,1v30h1v6h1v5h1v4h1v3h1v3l1,1v2l1,1v2h1v3h1v2h1v2h1v2h1v2l1,1v1h1v2h1v2h1v2h1v2h1v1h1v2h1v1h1v2h1v1h1v2h1v1h1v1h1v2h1v1h1v1h1v1l1,1v1h1v1h1v1h1v1h1v1h1v1h1v1l3,3v1h1l3,3h1v1h1v1h1v1h1v1h1v1h1v1h1v1h1l1,1h1v1h1v1h1v1h1l1,1h1v1h1v1h1l1,1h1v1h1v1h2v1h1v1h2v1h1v1h2v1h2v1h1v1h2v1h1l1,1h1v1h2M166,755h-1v1h-1v1h-1l-1,1h-1v1h-1v1h-1v1h-1v1h-1v1h-1l-2,2h-1v1h-1v1h-1v1h-1v1h-1v1h-1v1h-1v1h-1v1h-1v1l-2,2v1h-1v1h-1v1h-1v1h-1v1l-1,1v1h-1v1h-1v1h-1v2h-1v1h-1v1l-1,1v1h-1v1h-1v2h-1v1h-1v2h-1v2h-1v1h-1v2h-1v2h-1v2h-1v1l-1,1v1l-1,1v1l-1,1v2h-1v2h-1v2h-1v3h-1v2h-1v3h-1v3h-1v3h-1v3h-1v4h-1v4h-1v5h-1v6h-1v8h-1v30h1v7l1,1v5h1v5h1v4h1v4h1v3h1v3h1v3h1v3h1v3h1v2h1v2h1v2l1,1v2h1v2h1v2h1v2h1v1h1v2h1v2h1v2h1v1h1v2h1v1h1v2h1v1l1,1v1h1v1h1v2h1v1h1v1h1v1l1,1v1h1v1h1v1h1v1l1,1v1h1v1h1v1h1v1h1v1h1v1h1v1h1v1h1v1h1v1h1v1h1v1h1v1h1v1h1v1h1l2,2h1v1h1v1h1v1h1v1h2v1h1"/>
<path class="tg" d="M179,755h-1v1h-1v2h-1v1h-1v1h-1v1h-1v2h-1v1h-1v1l-1,1v1h-1v1l-1,1v1h-1v1l-1,1v1h-1v2h-1v1l-1,1v1h-1v2h-1v2h-1v2h-1v2h-1v2h-1v2h-1v2h-1v2h-1v2l-1,1v2h-1v2l-1,1v2h-1v3h-1v3h-1v3h-1v3h-1v4h-1v4h-1v4h-1v4h-1v5l-1,1v5h-1v8h-1v11h-1v29l1,1v10l1,1v7h1v6h1v5h1v4l1,1v4h1v3l1,1v3h1v3h1v3h1v3h1v3h1v3h1v2h1v3h1v2h1v2h1v2l1,1v2h1v2h1v1l1,1v1l1,1v1h1v2h1v2h1v1l1,1v1h1v2h1v1h1v2h1v1h1v2h1v1h1v1l1,1v1h1v1h1v1h1v2h1v1h1v1h1M192,755h-1v3h-1v2h-1v3h-1v3h-1v3h-1v3h-1v3h-1v3l-1,1v3h-1v4h-1v4h-1v4l-1,1v4h-1v5h-1v6h-1v6l-1,1v7h-1v8h-1v11l-1,1v18h-1v29l1,1v18h1v11h1v8l1,1v7h1v6h1v6h1v5h1v5h1v4h1v4h1v4h1v4h1v3h1v3l1,1v3h1v2l1,1v2h1v3h1v3h1v2h1M205,755v243M217,755h1v3h1v2h1v3h1v3h1v3h1v3h1v3h1v3l1,1v3h1v4h1v4h1v4l1,1v4h1v5h1v6h1v6l1,1v7h1v8h1v11l1,1v18h1v29l-1,1v18h-1v11h-1v8l-1,1v7h-1v6h-1v6h-1v5h-1v5h-1v4h-1v4h-1v4h-1v4h-1v3h-1v3l-1,1v3h-1v2l-1,1v2h-1v3h-1v3h-1v2h-1M230,755h1v1h1v2h1v1h1v1h1v1h1v2h1v1h1v1l1,1v1h1v1l1,1v1h1v1l1,1v1h1v2h1v1l1,1v1h1v2h1v2h1v2h1v2h1v2h1v2h1v2h1v2h1v2l1,1v2h1v2l1,1v2h1v3h1v3h1v3h1v3h1v4h1v4h1v4h1v4h1v5l1,1v5h1v8h1v11h1v29l-1,1v10l-1,1v7h-1v6h-1v5h-1v4l-1,1v4h-1v3l-1,1v3h-1v3h-1v3h-1v3h-1v3h-1v3h-1v2h-1v3h-1v2h-1v2h-1v2l-1,1v2h-1v2h-1v1l-1,1v1l-1,1v1h-1v2h-1v2h-1v1l-1,1v1h-1v2h-1v1h-1v2h-1v1h-1v2h-1v1h-1v1l-1,1v1h-1v1h-1v1h-1v2h-1v1h-1v1h-1M243,755h1v1h1v1h1l1,1h1v1h1v1h1v1h1v1h1v1h1l2,2h1v1h1v1h1v1h1v1h1v1h1v1h1v1h1v1h1v1l2,2v1h1v1h1v1h1v1h1v1l1,1v1h1v1h1v1h1v2h1v1h1v1l1,1v1h1v1h1v2h1v1h1v2h1v2h1v1h1v2h1v2h1v2h1v1l1,1v1l1,1v1l1,1v2h1v2h1v2h1v3h1v2h1v3h1v3h1v3h1v3h1v4h1v4h1v5h1v6h1v8h1v30h-1v7l-1,1v5h-1v5h-1v4h-1v4h-1v3h-1v3h-1v3h-1v3h-1v3h-1v2h-1v2h-1v2l-1,1v2h-1v2h-1v2h-1v2h-1v1h-1v2h-1v2h-1v2h-1v1h-1v2h-1v1h-1v2h-1v1l-1,1v1h-1v1h-1v2h-1v1h-1v1h-1v1l-1,1v1h-1v1h-1v1h-1v1l-1,1v1h-1v1h-1v1h-1v1h-1v1h-1v1h-1v1h-1v1h-1v1h-1v1h-1v1h-1v1h-1v1h-1v1h-1v1h-1l-2,2h-1v1h-1v1h-1v1h-1v1h-2v1h-1M256,755h1v1h2v1h2v1h1v1h2v1h2v1h1v1h2v1h1v1h2v1h1v1h2v1h1v1h1v1h2v1h1v1h1l1,1h1v1h1v1h1v1h1v1h1l1,1h1v1h1v1h1v1h1v1h1v1h1v1h1v1h1v1h1v1h1v1h1v1h1v1h1v1h1v1h1v1h1v1h1v1l2,2v1h1v1h1v1h1v1l1,1v1h1v1h1v2h1v1h1v1l1,1v1h1v2h1v1h1v2h1v1h1v2h1v2h1v2h1v2h1v2h1v2h1v2h1v3h1v2h1v3h1v3h1v3h1v3h1v4l1,1v4h1v6l1,1v14l1,1h-1v15h-1v6h-1v5h-1v4h-1v3h-1v3l-1,1v2l-1,1v2h-1v3h-1v2h-1v2h-1v2h-1v2l-1,1v1h-1v2h-1v2h-1v2h-1v2h-1v1h-1v2h-1v1h-1v2h-1v1h-1v2h-1v1h-1v1h-1v2h-1v1h-1v1h-1v1l-1,1v1h-1v1h-1v1h-1v1h-1v1h-1v1h-1v1l-3,3v1h-1l-3,3h-1v1h-1v1h-1v1h-1v1h-1v1h-1v1h-1v1h-1l-1,1h-1v1h-1v1h-1v1h-1l-1,1h-1v1h-1v1h-1l-1,1h-1v1h-1v1h-2v1h-1v1h-2v1h-1v1h-2v1h-2v1h-1v1h-2v1h-1l-1,1h-1v1h-2"/>
<path class="tg" d="M269,755h1v1h3v1h2v1h2v1h2v1h2v1h2l1,1h1l1,1h1l1,1h1v1h2v1h2v1h2v1h1l1,1h1v1h2v1h1l1,1h1v1h2v1h1v1h2v1h1v1h2v1h1v1h1l1,1h1v1h1v1h2v1h1v1h1v1h1v1h2v1h1v1h1v1h1v1h1v1h1v1h1l1,1h1v1h1v1h1v1h1v1h1v1h1v1h1v1h1v1h1v1l1,1v1h1v1h1v1h1v1h1v1h1v1l1,1v1h1v1h1v1h1v2h1v1h1v2h1v1h1v2h1v1h1v2h1v2h1v1h1v2h1v2h1v2h1v2h1v2l1,1v2h1v2l1,1v2h1v3h1v4h1v4h1v5h1v9h1v13l-1,1v8h-1v5h-1v4h-1v4h-1v3h-1v3h-1v2h-1v3h-1v2h-1v2h-1v2h-1v2h-1v2h-1v2h-1v1l-1,1v1h-1v2h-1v1h-1v2h-1v1h-1v1h-1v2h-1v1h-1v1l-1,1v1h-1v1h-1v1h-1v1l-2,2v1h-1v1h-1v1h-1v1h-1v1h-1v1h-1v1h-1v1h-1v1h-1v1h-1v1h-1v1h-1v1h-1v1h-2v1h-1v1h-1v1h-1v1h-1v1h-1l-1,1h-1v1h-1v1h-1v1h-2v1h-1v1h-1l-1,1h-1v1h-1v1h-2v1h-1v1h-2v1h-1l-1,1h-1v1h-2v1h-1v1h-2v1h-2v1h-1l-1,1h-1v1h-2v1h-2v1h-2v1h-2v1h-2v1h-2v1h-2v1h-2l-1,1h-2v1h-2v1h-2"/>
<rect x="349" y="834" width="24" height="31" fill-opacity="0" stroke="#ffffff" stroke-opacity="0.5" stroke-width="5.0"/>
<rect x="351" y="836" width="24" height="31" fill-opacity="0" stroke="#113311" stroke-opacity="0.8" stroke-width="5.0"/>
<rect x="350" y="835" width="24" height="31" fill-opacity="0" stroke="#45a249" stroke-opacity="0.9" stroke-width="5.0"/>
<rect x="691" y="691" width="309" height="309" fill="#ffffff" fill-opacity="1.0"/>
<rect x="694" y="694" width="302" height="302" fill="#000000" fill-opacity="1.0"/>
<rect x="700" y="700" width="300" height="300" fill="#70add3" fill-opacity="1.0"/>
<path class="zl" d="M726,984l-2,1l1,-1v-1l1,-1l1,1ZM839,921h-1v-3l3,-3h1v1l-2,2Z"/>
<rect class="zh" x="846.5" y="905.5" width="1" height="1"/>
<rect class="zh" x="853.5" y="890.5" width="1" height="1"/>
<rect class="zh" x="855.5" y="887.5" width="1" height="1"/>
<rect class="zh" x="854.5" y="866.5" width="1" height="1"/>
<rect class="zh" x="856.5" y="835.5" width="1" height="1"/>
<rect class="zh" x="854.5" y="824.5" width="1" height="1"/>
<rect class="zh" x="856.5" y="860.5" width="1" height="1"/>
<rect class="zh" x="857.5" y="850.5" width="1" height="1"/>
<rect class="zh" x="857.5" y="845.5" width="1" height="1"/>
<rect class="zh" x="849.5" y="809.5" width="1" height="1"/>
<rect class="zh" x="847.5" y="802.5" width="1" height="1"/>
<rect class="zh" x="842.5" y="793.5" width="1" height="1"/>
<circle class="w1" cx="854" cy="890" r="7"/>
<circle class="c1" cx="854" cy="890" r="6"/>
<circle class="w1" cx="847" cy="906" r="7"/>
<circle class="c1" cx="847" cy="906" r="6"/>
<circle class="w1" cx="857" cy="836" r="7"/>
<circle class="c1" cx="857" cy="836" r="6"/>
<circle class="w1" cx="855" cy="867" r="6"/>
<circle class="c1" cx="855" cy="867" r="5"/>
<circle class="w1" cx="855" cy="825" r="6"/>
<circle class="c1" cx="855" cy="825" r="5"/>
<circle class="w1" cx="857" cy="861" r="6"/>
<circle class="c1" cx="857" cy="861" r="5"/>
<circle class="w1" cx="858" cy="851" r="6"/>
<circle class="c1" cx="858" cy="851" r="5"/>
<circle class="w1" cx="858" cy="846" r="6"/>
<circle class="c1" cx="858" cy="846" r="5"/>
<circle class="w1" cx="850" cy="810" r="6"/>
<circle class="c1" cx="850" cy="810" r="5"/>
<circle class="w1" cx="848" cy="803" r="6"/>
<circle class="c1" cx="848" cy="803" r="5"/>
<circle class="w1" cx="842" cy="794" r="5"/>
<circle class="c1" cx="842" cy="794" r="4"/>
</svg>
