<?xml version="1.0" encoding="UTF-8" standalone="no"?>
<svg xmlns:svg="http://www.w3.org/2000/svg" xmlns="http://www.w3.org/2000/svg" xmlns:xlink="http://www.w3.org/1999/xlink" height="1000" width="1000">
<!-- made with pythonshp (GPL): github.com/sanjayrao77/pythonshp , underlying data may come from naturalearthdata.com -->
<!-- 
COPYRIGHT: THIS SVG FILE IS RELEASED INTO THE PUBLIC DOMAIN
 -->
<!-- 
vars : {
	'cmdline' : 'pythonshp.py publicdomain wiki1 namibia locatormap'
	'title' : 'Namibia locator'
	'version' : '1.0.5'
}
 -->
<defs>
	<radialGradient id="watergradient" cx="500" cy="500" r="500" fx="500" fy="500" gradientUnits="userSpaceOnUse">
		<stop offset="0%" stop-color="#70add3"/>
		<stop offset="11%" stop-color="#6eaad0"/>
		<stop offset="22%" stop-color="#6ca7cc"/>
		<stop offset="31%" stop-color="#6ba5c9"/>
		<stop offset="41%" stop-color="#69a2c6"/>
		<stop offset="51%" stop-color="#679fc2"/>
		<stop offset="59%" stop-color="#669dbf"/>
		<stop offset="67%" stop-color="#649abc"/>
		<stop offset="75%" stop-color="#6297b9"/>
		<stop offset="81%" stop-color="#6095b6"/>
		<stop offset="87%" stop-color="#5f92b2"/>
		<stop offset="92%" stop-color="#5d8faf"/>
		<stop offset="95%" stop-color="#5b8dac"/>
		<stop offset="98%" stop-color="#598aa8"/>
		<stop offset="100%" stop-color="#5685a2"/>
	</radialGradient>
	<radialGradient id="landgradient" cx="500" cy="500" r="500" fx="500" fy="500" gradientUnits="userSpaceOnUse">
		<stop offset="0%" stop-color="#dddddd"/>
		<stop offset="11%" stop-color="#d7d7d7"/>
		<stop offset="22%" stop-color="#d1d1d1"/>
		<stop offset="31%" stop-color="#cccccc"/>
		<stop offset="41%" stop-color="#c6c6c6"/>
		<stop offset="51%" stop-color="#c0c0c0"/>
		<stop offset="59%" stop-color="#bbbbbb"/>
		<stop offset="67%" stop-color="#b5b5b5"/>
		<stop offset="75%" stop-color="#afafaf"/>
		<stop offset="81%" stop-color="#aaaaaa"/>
		<stop offset="87%" stop-color="#a4a4a4"/>
		<stop offset="92%" stop-color="#9e9e9e"/>
		<stop offset="95%" stop-color="#999999"/>
		<stop offset="98%" stop-color="#939393"/>
		<stop offset="100%" stop-color="#888888"/>
	</radialGradient>
	<radialGradient id="bordergradient" cx="500" cy="500" r="500" fx="500" fy="500" gradientUnits="userSpaceOnUse">
		<stop offset="0%" stop-color="#444444"/>
		<stop offset="11%" stop-color="#3f3f3f"/>
		<stop offset="22%" stop-color="#3a3a3a"/>
		<stop offset="31%" stop-color="#363636"/>
		<stop offset="41%" stop-color="#323232"/>
		<stop offset="51%" stop-color="#2d2d2d"/>
		<stop offset="59%" stop-color="#292929"/>
		<stop offset="67%" stop-color="#242424"/>
		<stop offset="75%" stop-color="#1f1f1f"/>
		<stop offset="81%" stop-color="#1b1b1b"/>
		<stop offset="87%" stop-color="#161616"/>
		<stop offset="92%" stop-color="#121212"/>
		<stop offset="95%" stop-color="#0e0e0e"/>
		<stop offset="98%" stop-color="#090909"/>
		<stop offset="100%" stop-color="#000000"/>
	</radialGradient>
</defs>
<style type="text/css">
<![CDATA[
.fs {font:14px sans;stroke:#ffffff;stroke-width:2px;stroke-opacity:0.8;text-anchor:middle}
.ft {font:14px sans;fill:#000000;fill-opacity:1;stroke-opacity:0;text-anchor:middle}
.sb {stroke:url(#bordergradient);fill-opacity:0}
.sg {stroke:#000000;fill-opacity:0.0;stroke-opacity:0.2}
.sh {fill:#45a211;stroke:#000000}
.sl {fill:url(#landgradient);stroke:url(#bordergradient)}
.sp {stroke:url(#landgradient);fill-opacity:0}
.sr {stroke:url(#watergradient);fill-opacity:0}
.sw {fill:url(#watergradient);stroke:url(#watergradient);stroke-opacity:0.8}
.tb {fill:#eeeeee;stroke:black;stroke-width:2}
.tg {stroke:black;stroke-opacity:0.2;fill-opacity:0}
.th {fill:#45a211;stroke:#378100}
.tl {fill:#aaaaaa;stroke:black}
]]>
</style>
<circle cx="500.0" cy="500.0" r="500.0" fill="url(#watergradient)"/>
<path class="sl" d="M527,32v-1h1h-4v-1h-1v-1h-1h1h-1h1l-1,-1h9v-1h1l3,1h7v1h-1v1h-1l1,1v1h1v1h1h-2v1h2l1,1v1h-1h2v1h1l1,1v1h6v1h6v1h2v1h1v1h-1v1h2v1h2v1h3v1h1l1,1h2v1h1l-1,1h-5v1h1v1h1v1h1v1h3v-1h2l1,1l1,-1h3l1,1h1l1,1l2,1h-1v1h1v1h5v1h1v1h1v1l1,1h4l1,1h4l1,-1l1,1h1l1,1h1l1,1v-1h1l1,1h3v1l1,-1v1h3l1,1h1l1,1v1h-1v1h1h-1v1h1l1,1v1h1v2l-1,-1h-4l-1,1h-2v1h1v1h-4l-1,1h-2v1l-1,-1h-1l-1,1h-1l-1,-1l-1,1l-2,1v1h-1l1,-1l-1,-1v1h-1v2l1,1l-2,-2h-4v-1h-10l-2,-1h-1h1v-1h-1h1l-1,-1v-1h-1v-1h-1h1v1l1,1h-7v2h-1l-1,1v1h-4v1h1v3l-3,1v-2h-1v3h-1v1l1,1l-1,1v2h-2l-1,1v2l-2,2h1l2,2h1l-1,1l2,2h1l4,1h1v2h-2l-3,-1h-1l-1,1l-1,-1l-2,1l-1,1l-2,1h-1l-2,1l-1,1h-1l1,-1v-1h2l1,-1h-5v-1h-4l-1,-1h-2l-1,1h-1l-1,-1h-1l-1,1h-3v1h1l-1,1h3l1,1h-2l-1,-1h-1v1h1l1,1h-1l-2,-1h-1v1h2l-1,1l-1,-1h-1v-1l-1,-1h-2v-1h-2v1h1l-1,1v1l2,1l4,4h-2l1,-1h-3l1,1h1l-1,1h-1v1h3l1,1h2l1,1h1v1h1v3h-1l-2,-2h-3v1h-1h1v1h1v1l1,-1v1h1l-2,1h-1v-1h-3l1,1l1,2l1,1v2h1h-2l-1,-1v-1h-1l-1,1v1h-1v-1l-1,-1v-1h-2v1h-1l-1,-2h-1l1,-1l-3,-3h-1v-1h1l1,-1h2v-1h2l2,1h2l1,1h3v-1h-3l-1,-1h-8v-1h-1v1h-1v-1l-1,-1h-1v-1h-1h3v-1h-4l-1,-1h-1l-1,-2l-2,-2l-2,-1l-1,-1v-4l1,-1h-1v-1l1,-1v-1h-1l-1,-1h-1l-1,-1l-2,-1h-1v-1h-2l-1,-1h-1l-1,-1v1l-2,-2h-2l-1,-1h-2l-1,-1h-1l-1,1h-1v-1l-1,-1h-2l-2,-2h2l-1,-1l-2,-1v-2l-2,-1h-2v1h-1v1h-2v-1h-1v-2h1v-1h-4l-1,1h-4v2l1,1l-1,1v-1l-1,1l1,1v2h2l1,1l2,1h2l1,1v1l1,2v1l1,1l3,1l2,1l1,1h7v1h-2v1h1l7,2l1,1h1l3,1l1,1l2,1l1,1v1h-1v1h-1l-1,-1l-1,-2h-4v-1h-2l-2,2l-1,2v1h2l1,1h1v3h-4v3l-2,1l-1,1h-4v-1h1l1,-1v-1l1,-1h1l1,-1l-1,-1l-1,-2l-1,-1v-1l-1,-1h-2l-3,-1v-1h1v-1h-1l-1,-1l-1,1h-1v-1h-2v-1l-2,-2h-6l-1,-1l-3,-1l-3,-3h-3v-1l-1,-1h-1v-1h-2v-2l-1,-1v-2h-1l-4,-2h-5l-3,3h-2l-2,1h-2l-2,1l-1,1h-1v1h-7l-1,-1h-7v-1l-1,1h-1l-4,2h-1v1l-1,1v1h1v1h-1v2l-1,1h-1l-6,3l-4,1h-2l-1,1l-2,1h-1h1v1h-2l-4,4h-1l-2,3h-1l1,2v1h1l1,1h-1l-1,1l-3,1h-1v1h-1v1l-2,2h1l-1,1h-3l-3,1l-1,1l-1,2l-2,1h-4v1h-7l-5,1l-1,1h-2l-1,1h-1l-1,1v1l-1,-1v1h-4v-3h-1l1,-1h1v-1l-1,1l-1,-1l-2,-1h1h-2l-2,1h-1l-2,1h-6l1,-2v-1l1,-1v-1l1,-1v-2h1h-3v-1h1l3,-3v1h-1l-2,2h-2v-1h1v-1l1,-1v-1h1l4,-4v-1h1l1,-2l2,-2v-3l1,-1v-1h1h-1v-1l1,-1h1h-1l1,-1v-1h-1l1,-1h-1v-1l1,-1h1l1,-1h4v-1h1l1,-1h10l2,-1h3l1,1h4l2,-1h13v-1h2l4,-6h1v-1l-1,1l1,-3h1l1,-1h1v2h1h-1v-2l-2,-1h1v-1l1,-2h-1l-2,-1h-1v-2h1h-1v-1h-1v-1h-3v-1h-6l-2,-1h2v-1h1h-2l1,-1h1l2,-1h3l1,-1h2l1,1h4l1,-1v1l2,-1h1h-1l1,-2l-1,-1v-1h3v1h7l1,-1h1h-1v-1l3,-1h4l1,-1h1v-1l1,-2h1v-1h5l4,-2v1h4l1,-1h-4l1,-1h2l1,1h1l-1,-1h-1h1l-1,-1h1l1,-1h1l1,-1h1l1,-2h2l2,-1l1,-1h4l1,-1h2v1h1v-1l1,-1h4l1,1h-1h2v-1v1h1v-2l2,1l1,-1l1,1h1l-1,-1h-2v-1h-1l1,-1h1l-1,-1h6v1h5v1h-1v1h3l1,-1h3l1,-1h4l1,1h2v1h3l1,1v-1h-2v-1v1h1l2,-1h3l3,-1h2l1,-1h4l3,-1h3l1,1h1h-1l-1,-1v1l1,1h4l1,-1h1v-1h3l1,-1h1l1,-1v-1v1l-2,2h3v-1l-1,-1h1l-1,-1v-1h-1v-3h2v-1l1,-1h4l2,1h1l1,1h4l1,-1l-1,-1Z"/>
<path class="sl" d="M209,93l-1,1h1l1,-1ZM207,95h-1v1h-1v1l-2,1l-1,1l-2,1l1,-1h1l3,-3h1Z"/>
<path class="sp" d="M207,95l1,-1h1l1,-1M200,100l1,-1h1l3,-3h1l1,-1"/>
<path class="sl" d="M10,398v5l-1,1v1l1,-1v-2l1,-1v1l-1,1h1l1,-4l1,-1v-1v1h-1v-1h1v-1l1,-1v-1h1v-1l1,-1v1h-1v2h-1v4l-1,1l1,-1v1v-1v1h1v4l-1,1v4l-1,1v1v-1h1v-1l1,-1v-1v1h1v2l1,2v6l-1,2v1v-2h1v1l1,1v4l1,-1h2v1v-3h1l2,-2h1v4l1,-2v-1l1,1h1l1,1v2h1v1l-1,1l1,-1v2l1,-1v2h1v10l1,3v6l1,1h1v6l-1,2v1l-1,1v2l-1,2v1l-1,2v1l-1,2v6l-1,1v3h-1l-1,2h1l1,-1l2,-4v-1l1,-1v-1v4l1,1v2l1,1v-1h1v-1l1,1v-1l1,-2v8l-1,1l1,-1v-2l1,-4v-1l1,-4h1v1v-4l1,-1l-1,-1l1,-1v-2l1,1v-1h1v-1v1h1l-1,-1h3v1h1v1h1v-1v1h1l1,1h1v2l1,1v-3l1,1v1h1v1v-1v1l1,1v1h-1v2l1,-1v-1v6l-1,3v1l1,-1v-2l1,-2v-3l1,1l-1,1v1l1,-1v-1h1v-1h1v-2h1l1,1h1l1,1h2l1,-1l1,1h2l1,-1l2,-1l1,-1h1l2,2h1l2,2h1l2,2v1h1l2,4l1,1l2,1l1,1h1l1,1h1l1,-1h5l2,6v2l1,2v3l1,1v7l1,1v5l-1,5v3l-1,3l-1,1v1l-1,-1l1,1v1l-1,2l-1,1v3l-2,2v2l-1,2v3h-1v-1v8l-1,3v1l-1,3v1h-1v-2h-1v1h-1h1v9l1,2v1v-1l1,5l1,3v2l1,3l1,2v6l1,2v4l1,1v3h1l-1,2v7l1,2l1,3v15h-1l1,1v6l1,2l1,1l-1,1l-1,2l-1,3l1,1v2l-2,1h-2v-1h-1v1l1,1h-1v1h-1l-1,1v-1h1v-1h-1l-2,2v2h1l-2,2v4h-2l-1,4v4l-1,3v5h-1l1,1h-1v1l-1,-1l1,1h1l1,2l-1,1h1l1,2v2l1,1v2l2,2v1l1,1v1l1,1l2,4v4l1,1v7l1,4l2,5l1,4l1,2v8l1,1h-1v-1l-1,-1h1v-5h-1v-3h-1v-2l-1,-2v-2h-1v2l-2,-2v-1v1l2,2v2l1,1l-1,-1l1,2v1l1,1v4h1v3l2,2v2l3,6v2l1,3v1l1,2v2l1,1v5h-2v2h-1l-1,-1h-1l-1,-1h-1v1h-1v-1h-1l-2,-2l-1,-2l-1,-1l-1,-2v-1h-1v-2l-1,-1l-1,-2l2,3v2l1,1l1,3l3,3v2l1,1h1l1,1l2,1l1,1h1l1,1l1,2v1l1,2h1l2,2h1l2,3l1,1l2,4l1,3v1l1,1v1l1,3v5l-1,2l-1,1h-1v1l2,2h1v1l2,2v1h1l1,2l1,1v1l2,1v1l1,1v3h-3v-1v1l2,2v1l3,3l2,1v1h1v1h1l1,1v-1l-2,-2h1l3,3v1h1v1l-1,-1h-1v-1h-1l1,1v1l1,1h1v1h1v2l2,1v1l3,3v1h1l1,1v1l2,2h1v2l1,1v1l2,3l1,1l1,2h1l3,3l3,2h1v-1l3,3h1v1l1,1h1v1h1l1,2v1l3,3v1l2,2h1l5,5h-1l-1,-1h-1h1l1,1v1v-1h1v1h1v2h1l2,2h1v1l1,1v-1v1l2,1l2,2h1l2,1l1,1h1v1h-1l3,3v1h1v1h1l4,4l2,1v1l-1,-1h-2v-1l-1,-1l1,1h1h-1l-4,-4h-1l2,2h1v1l1,1h1v1l-1,-1h-1v-1l-1,-1h-1v-1h-1h1v1v-1l-2,-2v1h1h-1l3,3h1v1l-1,-1h-1v-1h-1l-1,-1v-1v1h1h-1l1,1h-1v-1h-1l-1,-1h-1h1l-1,-1v-1l-1,-1l1,1h1v1h1h-1v-1h-1l-1,-1h-1v-1h-1l-1,-1h-1h2v1h1v1l1,1h1h-2v-1v1v-1v1v-1h-1l-2,-2h-2l-1,-1h-1v-2h-2v-1l2,2h1l-3,-3v1l2,1v1v-1h-1l-1,-1h-1v-1h-1l-1,-1v-1h-1h1h-1v-1h-1l-1,-1v-1h-1l-1,-1h-1v-1h-1h1l1,1v1h1l1,1h-1v-1l-2,-2l-2,-1l-2,-2h-1v-1h-1l-1,-1v-1l1,1v-1h-1l-1,-1l-2,-1h1l1,1v1h1h-1v-1h-2v-1l1,1v-1h-1l-5,-5v1h1h-1l-1,-1l1,1v1h1v1v-1h-1l-1,-1v-1h-1v-1l-1,-1h-1v-1h-1v-1l-1,-1v-1h-1v-1h-1v-1h-1h1v1l2,1v1h1v1h1v1h1h-1v-1h-1l-1,-2l1,1v1l2,1l1,1v1h1l-10,-10h-1v-1l-1,-2l-2,-2h-1l-2,-2v-1l-2,-1l-2,-2v-1h-1v-1h-1v-1h-1l-2,-2h1h-1v-1l-1,-1l1,1v-1l-1,-1l-2,-1h1h-1l-1,-1v-1h-1v-1v1h1h-1l1,1v1v-1h-1v-1h-1l-1,-2h-1l-1,-1l-2,-3l-1,-1l-1,-2h-1l-1,-1v-1l-2,-3l-6,-6l-1,-2h-1v-1l-3,-3v-1h-1v-2h-1l-1,-2l-2,-2v-1l-3,-3v-1l-2,-2v-1l-1,-1v-1l-1,-1l-2,-4l-3,-3v-1l-1,-1v-1l-2,-2v-1l-2,-2v-1l-2,-3l-1,-1v-1l-1,-1l-2,-3l-1,-2l-2,-2l-1,-2l-1,-1v-1l-2,-2v-2l-1,-2l-2,-2v-1l-1,-1v-1l-2,-2v-1l-1,-1v-2l-1,-1l-2,-4l-1,-1v-2l-2,-2l-1,-2v-1l-1,-2l-1,-1v-2l-1,-2l-1,-1l-1,-2v-1l-1,-1v-1l-2,-3v-1l-2,-3v-1l-1,-2v-1l-1,-1v-1h-1v-2l-1,-1v-2l-1,-1l-1,-2l-1,-3l-1,-2v-1l-1,-2v-1l-1,-1v-1l-2,-4v-1l-2,-6l-1,-1v-2l-1,-1l-1,-4l-1,-2v-1l-1,-1v-1l-1,-1v-1l-1,-1v-2l-1,-1v-1l-1,-1v-2h-1v-3h-1v-3l-1,-1v-2l-1,-1v-3l-1,-1v-3l-1,-1v-3l-1,-1v-3l-1,-1v-3l-1,-1v-4l-1,-1v-4l-1,-1v-3l-1,-1v-5l-1,-1v-4l-1,-1v-5l-1,-1v-5l-1,-1v-7l-1,-1v-6l-1,-1v-9l-1,-1v-10l-1,-1v-15l-1,-1v-44l1,-1v-15l1,-1v-10l1,-1v-9l1,-1v-6l1,-1v-7l1,-1v-5l1,-1v-5l1,-1v-4l1,-1v-4l1,-1v-4Z"/>
<path class="sp" d="M19,637v-2l-1,-1v-2l-1,-1v-3l-1,-1v-3l-1,-1v-3l-1,-1v-3l-1,-1v-3l-1,-1v-4l-1,-1v-4l-1,-1v-3l-1,-1v-5l-1,-1v-4l-1,-1v-5l-1,-1v-5l-1,-1v-7l-1,-1v-6l-1,-1v-9l-1,-1v-10l-1,-1v-15l-1,-1v-44l1,-1v-15l1,-1v-10l1,-1v-9l1,-1v-6l1,-1v-7l1,-1v-5l1,-1v-5l1,-1v-4l1,-1v-4l1,-1v-5"/>
<path class="sl" d="M684,498v1l1,1v1h-1l1,1h-1v3h-1v6l1,1l-1,1v6h-1v1h1v8l-1,2v1h1v2h1v3l-2,2v2l-1,2l-4,4v1l-1,1h-1l-1,1l1,1h-1l-1,1l-3,1l-2,2h-3v1h-2l-2,1h-1l-2,1l-3,1l-2,2l-2,1v1h-1v1l-4,4v1h-1l-1,1h-2l-1,1l-2,1l-2,3l-4,2l-1,-1h-1v1h1v1l-1,2v4l2,2v5l1,2v7h1v-2h1v2l-1,2v3l-1,1l-1,6h1l-1,2v1l-4,4l-12,4h-1l-3,2l-2,1v2h-1l-1,1l2,2l1,-1l-1,6l-1,2l-1,3l-1,2l-1,4l-2,3v1l-2,2h-2l-6,6l-1,2l-1,1l-4,6l-1,2l-3,2l-2,2l-2,1l-8,8l-2,1l-3,2l-4,2l-2,2l-3,1h-6l-1,1v1h-5l-1,1h-2l-3,-1h-14l-3,3h-9l-1,1l-3,2h-3l-2,-2v-1h-1l-1,-1h-2v-2h-2v2h-1v-3h1v-2l-2,-2v-1l-1,-1h-1v-2l-1,-1l1,-1l1,1v-1h1l1,-2v-3l-1,-3v-1l-2,-2l-5,-7l-4,-12l-2,-3l-1,-1h-1l-2,-3h-1l-4,-7l-1,-1v-2l-1,-2v-3l-2,-1v-3l-1,-2v-8l-2,-2l-1,-3v-7l-1,-2v-2h1v-4l-5,-5v-2l-1,-1l-3,-5l-1,-3l-2,-3l-1,-1l-5,-10l-3,-3v-1l-1,-1l-2,-3v-19h1v-1l1,-1v-3l2,-5v-5l2,-5l3,-4v-2l2,-1l2,-2l1,-2l1,-1l1,-3v-7l-1,-2v-1l-1,-1v-1l-1,-1l-1,-3l-1,-1v-2l-1,-2l-1,-1v-3h1h-1v1l3,-3v-3l-3,-5l-2,-5v-2l-3,-3l-1,-2v-2h-1h1l2,-1h2l2,-1l-1,-1h-1v1h-1l-2,1h-1v-1l-1,-1h-1v-2l1,-1l-1,-1v-1l-1,-1v-1h-1v-1l-1,-1v-1l-1,-2l-3,-2l-3,-3v-1l-1,-1l-2,-1l-1,-1l-2,-3l-3,-2l-2,-2l2,1h1v-1h-2l-1,-1h-1v-1l-3,-3h1l1,1v-1l-1,-1h-1l-1,-2l-1,-1v-1l2,3h1l1,-1h-2v-1l1,-1h-1v1h-1l-1,-1l-1,-2v-1h-1l-1,-3l1,1h1l1,-1h1l1,-2v-6h1v1h2l1,1h1l1,-1h-2l-2,-1l-2,-2l2,-1v1h1v-4l-1,-1h-1v-1l1,-2h1v-1l1,-2l1,-1l-1,-1l1,-2v-5l1,-2v-1h-1l-1,-2v-1h-1v-2h1l-1,-1l1,-1l-1,1l-1,-1v1h-3l-1,-1v-1h-1v-3h-2v-1v2h-1v-2h-1v-1h-1l-1,-1v1l1,2l-2,1h-4l-1,-1v1h-2l-1,-1h-1h1v1l-1,1h-1l-1,-1v-1v2h1l-1,1h-2v-1v1h-2v-1l-1,1v1l-1,-1h-2l-3,-3v-2l-1,-1h1v-1h-1v-1h1v-1h-2v-1h1v-1h-1l-1,1v-2h-1l-1,-2l-4,-2h-8v-1h1l2,-1h-1l-1,1h-1l-1,1h-5l-8,2h-1l-3,1l-1,1h-1v1l-1,1l-2,1h-4l-3,2h-2l-3,3h-3l-3,2h-1l-2,1l-1,1h-3l-1,-1h-4l-2,-2v-1l-1,2h-4l-1,-1h-3l-2,1h4l-5,1h-3l-7,2l-1,1l-4,1l-2,1l-2,2h-1l-2,1l-1,1h-1l-13,-6l-2,-2l-4,-5h-3v-1h-1v-1l-4,-2l-1,-1v-1l-2,-1h-1l-3,-1l-1,-1v-3l-1,1h-1v-1h-1v-2l-1,-1h-1v-2h1l1,-1h-2v-2h1l-1,-1v-2l-1,-1v-1h-2l1,-1v-2h-1l-1,-1h-1v-1h-2l-1,-3v-1h-1v-2h-1l-1,2v-3l-1,1v-1h-1v-2h-1l1,-1h1l1,-1h-3v-1h1v-1h2l1,-1h-1v1h-3l-2,2h-1l1,-2h-1l-1,1l-1,-1v-2h1h-1l-1,1l-2,-1v-2h3v-1h-2v1h-1v-1h1v-6h1v1h3v-1h2l1,-1h3v-1h-1l-2,1h-2l-2,1h-1v-3h-1v-1l1,-1l-1,1v-1l-1,-1v-1l-1,-1v-1h-1v-1l-1,1v-1h1l2,-1l2,-4l3,-3l1,-6v-1l5,-8v-3l1,-2v-6l-1,-1v-1h-1l1,-1l2,-3v-1l1,-1v-1l-1,-1v-2h-1l-1,-1v-2h-1l1,-2l1,-4l2,-2v-1l2,-1l1,-2l2,-2v-1l1,-2l2,-2l1,-2l-1,1l3,-3l5,-4l2,-2v-3l2,-2l1,-2l1,-1l1,-2v-1h1l1,-1l4,-2l2,-2l1,-2l2,-2v-1h1l3,-3h2l3,-2l4,-1l2,-2l5,-3l1,-1l3,-2l2,-2l1,-2l3,-3v-1l-1,-1v-1l3,-6l5,-5v-1l3,-3l2,-1l1,-1l12,-5l5,-6l5,-5v-1h2l1,-1h1v2h1l1,1l2,1h1l3,-1h5l1,-1h1v1h6l2,-1h2l2,-2h1l1,-1l5,-1h1l2,-2h1l4,-2h1l2,-1l5,-1h4l2,-1h5l1,-1h9l1,1h1l5,-2h1l1,-1h2l2,1h1l1,-1h3l1,1h1l1,-1h5l2,-1l4,-1h1v1v-1h3l-1,1l1,1v1h1l1,-1h1l2,-1v1h1h-1v1l-2,1l-1,1h-1v3h1l1,1h1v2l1,1l-2,1v1l-2,1l-1,1l-3,1v1h-1v1l2,2h3v1h2l1,1v1h2l1,1l6,1h10l2,1h1l1,1l6,1l1,1v2l1,1v1l1,1h1l2,1h5l8,2h1l7,4h3l2,-1h1l3,-3v-3h-1v-5h1l2,-2l5,-2h3l1,-1h4l1,1h2l1,1h3v2l1,1h4l1,1h6l1,1h1l1,1v1l1,1l5,-1l4,1h2l4,1l2,1h2l2,1h4l2,1l1,1h2l1,-1h2l2,-1l1,-1h2v-1h3l-2,1h1l1,-1h3l2,1h1l1,-1h1l2,2h-1l-1,-1l-1,1h2v1h2v-1h-1h1l2,1h4l1,1l1,-1h6v-1v1l1,2l2,2v1l1,2l1,1l1,2l1,1v1l-1,1v3l-1,3v3l-1,1l-1,-1l-3,-1l-1,-2l-2,-1l-2,-2v-2h-1l-2,-2v-1h-1l-1,-2l-1,-1l-1,1v1h1l1,1v1l1,1v2l1,1h1v1l4,4h1l1,1v2l3,3v1l1,3h1l3,4l2,2l1,2l2,2l3,5l2,2v1h2l1,1h-2v4l1,1l1,2l2,2l3,1l1,2l4,2v1l1,2v1l3,3v1h-1v1h1v4l1,2v2l1,2l1,4l1,2l1,1h1l2,1l2,2v1h1v-1v1l2,1l1,1l2,4l2,3l2,7l1,2l1,1l1,2l1,1l1,2v1l1,-1h-1v-2h1l1,1v1l2,2h2v1h1l5,2l2,4l2,2l5,3l1,2v1h1l2,2l1,2h1v-1l1,1v1l2,2v1l1,1v1l-1,1l-2,1l-1,1l-2,1h-1h5l1,1l2,1l2,3l1,2l3,2l1,1l5,1l3,-2l3,-1l2,1h4l5,-2h9l1,-1h1l1,1h4l2,-1h3l2,-1l1,-1v-1h1l3,2h1v1l-1,1v2l1,2v5h1v-1l1,1h-3v8l-1,1v1l-2,2v3l-2,2l-2,4v2l-1,1l-1,3l-1,1l-1,3v2l-8,13l-3,4l-5,6l-6,6l-9,4l-6,6l-3,2l-14,14v2h-1l-1,2l-1,1v1l-2,1l-1,1h-2v1l-1,-1l1,1v1l-3,3h-3v3l-1,2l-2,2v1l-1,2v2h-1v1l-1,3l-1,1h-2v3l-1,1v1l-1,2v1l-1,2v4l2,2l1,2v1h2v3h-1v1l-1,2v2l1,1v1l-1,2v4l1,2l1,3v3l1,1v2l-1,1h1l1,1h1l2,2Z"/>
<path class="sl" d="M646,107l1,-1v-2l-4,-4h-2v-1l-2,-1h-2l-4,-2v-1h1l1,1h4l1,1h2l1,1h5l1,1h3v1h2l1,1h2v1h5l1,1v-1h2v1h3v1h1v1l1,1h1l1,1h2v2h1v1h2v1h1l-1,1h-1v-1h-3l-1,-1l-2,-1h-1l-1,1h1v1h1l1,1h1v2l1,1h2l1,1v1h-1l1,1h1v1h1l1,1h2v1l1,1h-1l2,2h-3v-1l-2,-2h-1v-1h-3v-1h-2v-1h-2l2,2h1v1h2v1h1v1h1l2,1h4l1,-1h1v-1h1l1,-1h1l1,-1h1l2,2l-1,1h1l1,1v1h-1l1,1h1v1h1l2,1h1l1,2l2,2v1h1l2,1h2l1,1h2v1l1,1l5,2l1,1l4,1h12l-1,-2l-1,-1l2,1h1v-1h2l-1,-1h1v-1h1v-1h3l1,1h1v-1h2l1,1h3v1l1,1h1l2,1h1l1,1h3l1,1l2,1h1v1l1,1h2l3,3l2,1h2l2,1l1,1v1l1,1v1h1v1h1v2h1v1h-1l1,1v1l1,1v1h-1v1h1v1h-1v1l1,2v1h1l1,1h1v3l1,2l3,3v2l1,1v1l1,1l2,1h1l2,1l2,2v3l-1,1v2l-1,1l5,5l1,2l1,1h1l3,3l2,1l1,1h1l1,1v1l1,1l1,3v1l1,1h2l1,1h-1l1,1v2h-4v1h-2v5l1,2v1h-2l-1,-1l-2,-1h-1v-1h-1v1l-2,-1h-1l-1,-1h-1l-1,-1l-1,1l-1,-1l-2,-1h-3l-1,-1h-1l-1,-1h-1l-3,-1v-1l-1,-1v-1l-1,-1l-1,-3h-1v-1l-2,-2h-1l-2,-1h-1l-1,1h-2v1h-2l-2,1v1l-1,-1h-1l-2,-1l-1,-1h-2l-2,-1l-1,-1l-5,-3l-2,-2l-4,-2h-1l-1,-1h-1l-4,-4v-1l-1,-1l-2,-1v-1l-2,-2v-1l-2,-2l-2,-1v-1l-2,-2l-3,1l-1,-1l-2,-1h-1v-1h1v-1h-1v1h-1v1h1v1h-1l-1,1h-1l-2,-1h-1l1,1v1l1,1h-2v1h2v1h1l1,2v1l1,1h1v1l1,1l1,2l2,1v2l1,1h2v1h1h-1l1,1l2,1v1l6,3h-1v1l2,2v1h-1l1,1v1l1,1v1h1l2,2v2l2,2h1v1l1,1h3v2h2v1h1l1,1v1h4l1,-1l3,1h2l3,1h2l1,-1h1v-3l3,-3v-1l1,-1l2,-1v-3h1v-1h1v5l1,1l1,4l2,2l1,2l1,1l2,1l1,2h1l3,2h1l2,1l1,1h2l2,2h1v1l2,2l1,2l2,2h2v1l1,1v1l-1,1v1l-1,2v1l-2,2v2l-1,2v1h-1l-1,-1v-1h-1v8l1,2v1l1,1h-6v1l-1,1v3l-1,1h-6l-1,2v1h1v1l-1,1v1h-3l-2,-1h-2v1h-2l-1,1h-3l-3,1l-1,1h-1v6h-3v1h-1l-1,1h-6l-2,2h-5l-1,1h-1l-1,1v1l-2,2h-3l-2,-1h-1v1h-2l-1,2h-3l-1,1h-9l-2,2h-1l-1,1v1h-2l-1,-1l-2,1h-4l-2,-1h-1v-1l-2,-3v-4l-2,-2v-2l-1,-1v-2l-1,-2v-1l-2,-2v-1v1l1,-1h-1v-5l-1,-3v-2l-1,-1v-1h-1v-1l-2,-2v-2l-5,-3l-1,-1l-2,-4l-2,-2v-1l-1,-1v-1l-2,-3l-1,-1v-1h-1l-5,-5h-2l-5,-5l-2,-3v-2l-2,-2l1,-1l-1,-1l1,-1v-1l-1,-1v-2h-1l-1,-1v-1l-1,-1v-1l-4,-4l-2,-1l-1,-1h-1l-1,-1h-1l-1,-2l-1,-1l-2,-1l1,-1v-1l-1,-1v-1l-3,-3h-1v-1l-7,-7l-1,-2l-1,-1l-2,-1l-1,-2l-3,-3h-4l1,-1v-7l1,-1l-1,-1v1v-1l-1,-1l-1,-2l-1,-1l-1,-2v-1l-2,-2l-1,-2h1v-1l1,-1h-1l2,-4v-4l1,-1h2l2,-2h1h-1l-2,2h-2v-2l1,-1l1,-2v-2l1,-1v-1h1v-1l-1,-1v-1h-1l1,-1l-2,-2v-4l-1,-1l2,-2l-1,-1h-1l-1,1h-1v1h-1l-2,-1h-1l-1,-1h-2l-2,1l-2,2h-6l-1,1l-2,-1h-1l-2,-2h-1l-5,-2h-1l-2,-1h-2v4h-1l-1,-1l-1,1h-3l-2,-1h-2v-2h-3l-2,-1h-1v1h-2l1,-1h-2l-1,1l-1,-1h-1h4l1,-1h1h-4l-3,-1v1v-1h2l-1,-1h-1l-1,-1v-1h-1l1,-1v-1h-1l-1,-1h-3l-1,-1h-1h1v-2h1v1l1,1v-1v1h1l2,-1h-2l-1,-1l1,-1h1h-1l-1,-1v-1h-1v-1h1v-1h-5v-2l2,-2l2,-1l1,1l1,-1h1l1,1h3l-1,-1h2l-1,1h7v-1h-1h2l2,-1h-1l-1,-1h-1v-1h8l3,1h3l1,-1l4,-2h1l2,-1h15v1h1l1,1h5l1,2h1l1,1l1,-1h1l1,1h1l2,1h2l1,1h10l2,1h3l2,-1h2Z"/>
<path class="sl" d="M650,23h-1l-2,-1h-1l-1,-1h-3v-1h-1l1,1h2l1,1h3l1,1ZM633,18l3,1h1l5,2h3v1h2l1,1h3v1h3v1l3,1h-1h1h-2v-1h-1l1,1h2l1,1h2l2,1l-1,-1h-1l-1,-1h-2v-1h-2l-1,-1h-2l-1,-1h-1h1v1h3l2,1h1l1,1h3l1,1h1l1,1h1h-1l-2,-1h-1v-1h-1h1l1,1h2l2,2h2l1,1h2l1,1h2l1,1h2l1,1h1l1,1h2l1,1h2l1,1h1l1,1h2l1,1h1l1,1h2l1,1h1l1,1h1l1,1h1l1,1h1l1,1h2l1,1h1l1,1h1l1,1h1l1,1h2l1,1h1l2,2h1l1,1h1l1,1h2l1,1h1l1,1h1l1,1h1l2,2h1l1,1h1l1,1h1l1,1h1l1,1h1l2,2h1l1,1h1l1,1h1l1,1h1l1,1h1v1l1,1h1l1,1h1l1,1h1l2,2h1l1,1h1l2,2h1l1,1h1l2,2h1l2,2h1l3,3h1l1,1h1l3,3h1l1,1h1l3,3h1l3,3h1l2,2h1l1,1v1h1l1,1h1l4,4h1l4,4h1l3,3h1l4,4h1l1,1v1h1l2,2h1v1l2,2h1v1l1,1h1l7,7h1l15,15h1v1l2,2h1v1l7,7v1l1,1h1l1,1v1l9,9v1l4,4v1h1l1,1v1l4,4v1l4,4v1l4,4v1l3,3v1l4,4v1l1,1v1h1l1,1v1l1,1v1l3,3v1l3,3v1l2,2v1l1,1v1l1,1h1v1l1,1v1l1,1v1l3,3v1l1,1v1l1,1v1l1,1h1v1l1,1v1l1,1v1l1,1v1l2,2v1l1,1v1l2,2v1l1,1v1l2,2v1l1,1v1l1,1v1l1,1v1l1,1v1l2,2v1l1,1v1l1,1v2l1,1v1l1,1v1l2,2v1l1,1v1l1,1v2l1,1v1l1,1v1l1,1v1l1,1v2l2,2v1l1,1v2l1,1v1l1,1v2l1,1v1l1,1v2l1,1v1l1,1v2l1,1v1l1,1v2l1,1v2l2,2v2l1,1v2l1,1v2l1,1v2l1,1v2l1,1v2l1,1v2l1,1v2l1,1v2l1,1v2l1,1v3l1,1v2l1,1v3l1,1v2l1,1v3l1,1v3l1,1v3l1,1v3l1,1v3l1,1v4l1,1v4l1,1v4l1,1v4l1,1v3v1l1,1v1l-1,-1v-4v4h1v1l-1,-3v-3l-1,-1v-3l-1,-2v-2h-1v-4l-1,-1v-4l-1,-1v-3l-1,-1v-1v1v-1l-1,-2l1,1l-1,-1v-2l-1,-1v-1l-1,-1v-4h-1v-3h-1v1l1,1v4l1,3v1l1,1v5l1,2v6l1,1v5l1,2v2h1v2l1,4v2l1,1l1,9v1v-4l-1,-1v1l1,1v3l1,1v3h1v4l1,3v2h-1l1,1h-1v-6l-1,-1v-2l-1,-1l1,1v1l-1,-3v-2l-1,-2v-3l-1,-1v-3l-1,-1v-3l-1,-1v1v-3l-1,-2v-6l-1,-3v-3l-1,-1v-5l-1,-1v-5h-1v-4h-1v-4l-1,-1v-3l-1,-1v-2l-1,-3v-1l-1,-1l1,3v-1l-1,-1v-2l-1,-2v-3h-1l1,1l-1,-1v-1l-1,-3v-2l-2,-4v-2l-1,-1v-3h-1v-2l-1,-1v-2h-1v-2l-1,-1l1,1v2l1,1v3l-1,-1v-2v2l1,1v1h-1l1,1v2l-1,-1v-1v1l-1,-1v-1v1v-1l-1,-1v-1v1l-1,-1v-4l-1,-1v-3l-1,-1v-2l-1,-1v-1l-2,-6l-1,-1v-1l-1,-1l-1,-2v-1v1l1,1v1l-1,-1v-1l-1,-1v-1l1,1v-1l-1,-1v-1l-1,-1v-2h-1v-1h-1v-1l1,2h-1v-2l-1,-1v-1v1v-1l-1,-1v-1h-1h1v2v-2l-2,-2v-2l-2,-2l-1,-3v-1l-2,-4l-1,-1v-1v1v-1l-1,-1l-1,-2v-1h-1h1v1h-1l-1,-1l-1,-3l-1,-2v-1l-1,-1v1h1h-1v-1v1l1,1v1h1v1h-1h1v2l1,1v1l1,1v2l1,1v1h-1v-2h-1v-2h-1v-1v1l1,1v1l-2,-3l1,1v1l1,1v1h-1v-1l-1,-1v-1v1l1,1v1l-1,-1l1,1h-1v-1l-1,-2v1l1,1v1l-1,-1v-1v1h-1v-3l-2,-2v-1v1l1,1v1l1,1v1h-2v2l1,1v1l1,2v3h1l-1,1v2h-2v-1h-1v1l1,1v-1v7l-1,1v1l-1,1v3l-1,1v1l-1,1v2h1v3h-2l-1,-1v5l-2,-2l-1,1v3l1,2v2l1,2v3l1,1l1,2v1l1,2h-1v-2l-1,1h1l1,1l1,6v3l-1,1v4l1,1v3l2,7h-2l-1,1l1,1l-1,2v3h1v1h1v1l-1,-1h-3v6l-2,1h-2l-1,-2v-1l-2,-4l-1,-1v-2h-1v-3l-1,-2v-1v1l1,2l-1,-4l-1,-1v-1l-1,-1v-1l-2,-6l-1,-2v-1l-1,-2l-1,-1l-1,-2v-1l-2,-4l-1,-3l-1,-1v-1l-1,-3v-2l-1,-1l-1,-2v-1l-1,-2v-1h-1v-2l-2,-2v-1l-1,-2l-1,-1h1h-1v-2h-1v-2l-2,-2l-3,-9l-1,-2v-1l-1,-3l-2,-2v-3l-1,-1v-2l-1,-1v1v-1l-1,-1v-1l1,1l-1,-1v-1l-1,-1v-2h-1v-5l-1,-1v-1l-1,-1v-2h-1l-1,-2h1h-1v-1h1v-1h1h-3v-2l-1,-1v-1h1h-1v-1h-2l1,1v1h-1v1h1v1h1v4l-4,2h-1v-1l-2,-1l-3,-3l-2,-3l-2,-1l-1,-2l-3,-3v-1h1v1l2,-1v1v-1h2v-2l1,-1l-1,-1v1h-2v1h-1l-5,-3l-1,-2l-1,-1l-1,-2v-1h1h-2v1l-1,-1v-1v1l-2,-2v1h-1v-1h-1v-1h-1v-1h-1v-2l-2,-3l-3,-1v-2l-2,-2v-1l-1,-1h-1v1h1h-7l-1,-1l-1,1l-3,-2h-3v1l-1,-1h-2l-2,-1l-1,1h-1v-1h-4v-1l-1,-2v-5h2v-1h4v-2l-1,-1h1l-1,-1h-2l-1,-1v-1l-1,-3l-1,-1v-1l-1,-1h-1l-1,-1l-2,-1l-3,-3h-1l-1,-1l-1,-2l-5,-5l1,-1v-2l1,-1v-3l-2,-2l-2,-1h-1l-2,-1l-1,-1v-1l-1,-1v-2l-3,-3l-1,-2v-3h-1l-1,-1h-1v-1l-1,-2v-1h1v-1h-1v-1h1v-1l-1,-1v-1l-1,-1h1v-1h-1v-2h-1v-1h-1v-1l-1,-1v-1l-1,-1l-2,-1h-2l-2,-1l-3,-3h-2l-1,-1v-1h-1l-2,-1l-1,-1h-3l-1,-1h-1l-2,-1h-1l-1,-1v-1h-3l-1,-1h-2v1h-1l-1,-1h-3v1h-1v1h-1l1,1h-2v1h-1l-2,-1l-1,-2l-1,-1v-1l-1,-1v-1l-1,-1v-2h-1v-1h-1l-1,-1h-1l-1,-1h-1v1v-1h-1l1,-1h1v-1h-1v-1h-1l-1,-1h-1v1l1,1l-4,-4v-3l-1,-1l2,2h3v1h3l1,-1l1,1v-1l-1,-1l-3,-1v-1h-1l-1,-1v-1h-1l-1,-2h-5v2h1l1,2l-4,-4h-1v-3l-1,-1h-1v-1h-4v-1l-1,-1h-2l-1,-1v-1h-1l-1,-1h-1l-1,-2l-1,-1h-1l-1,-1h-2v-1h3l1,1h2v-1h-2l-1,-1h-1v-1h1v-1h6l1,1h1l-1,-1h-1v-3l-2,-2v-1l-1,-1h-2l-1,-1l-1,1h-2l-1,-1h-1l-2,-1h-2v1h-2l-1,1h-3l1,1h-3l1,1h-1l-1,1h-3v4h-1v-1v1h-1v1h1l1,1h2v1h1l2,2h1v2l1,1v1h1v1h1l3,3l2,1l1,1h1v1h1l2,1l4,4l2,1l1,1h1v1h3v1h1v1l-1,-1h-2l-1,1v3h1v3l-1,-1v2l1,2h-1l-2,-1h-1v-1h-1l-1,-1h1v-1l-1,-1h-1l1,-1l-2,-2h-1l-1,1h-1l-1,1h-1v1h-1l-1,1l-2,-2h1l-1,-1v-1h-2l-1,-1h-1v-1h-1l-1,-1h-1h2v-1l-1,-1h-2l-1,-1v-2h-1l-1,-1h-1v-1h-1l1,-1h1l2,1l1,1h3v1h1l1,-1h-1v-1h-2v-1h-1v-2h-2l-1,-1h-1l-1,-1v-1h-1v-1h-3v-1h-2v1l-1,-1h-5v-1h-2l-1,-1h-2v-1h-3l-1,-1h-5l-1,-1h-2l-1,-1h-4l-1,-1h-1v1h-1l-2,-2l-6,-3h-1l-2,-1h-1l-2,-1h-2v-1h-1l-1,-1l-2,-1h-1v-1h-1h2l1,1v-1h2v-1l1,-1v-1v1h1v-1h2l-2,-1h-2v-1h-1l-1,-1h5l1,-1h2l-1,-1h-5v-1h-1v-1h2l1,-1h4l1,1v-2h-1v-1l-1,-1h-1v-1h1h-1v-1h1v-1l-1,-1h-1l-1,-1h-3v-1l-1,1v-1h-3l-1,-1h-1v1l-1,-1h-1l-1,-1h-1l-1,-1l-1,1h-4l-1,-1h-4l-1,-1v-1h-1v-1h-1v-1h-5v-1h-1v-1h1l-2,-1l-1,-1h-1l-1,-1h-3l-1,1l-1,-1h-2v1h-3v-1h-1v-1h-1v-1h-1v-1h-1h6l1,-1h-1v-1h-1h1h-2l-1,-1h-1v-1h-3v-1h-2v-1h-2v-1h1v-1h-1v-1h-2v-1h-6v-1h-6v-1l-1,-1h-1v-1h-1v-1l-1,-1h-2v-1h1v-1h-1v-1l-1,-1h1v-1h1v-1h1h-1v-1h7l-1,-1h-4l-1,-1h-11l-1,1v-1h-1v1h-9l-1,1v-1h1h-1l-1,-1v1h-2v-1h1h-1h1h-4v-1l-1,1v-1h-1v-1h1v-2h-2v-1h1h-1v-1h-1h1l1,-1h1h-1h3v-1h2l1,-1h3v-1h2v-1h2v-1h-3v-1l-1,1v-1h-4v1l-1,-1h-2v1h-3v1h-1l1,1h-1v1h-2l-1,1h-4l-1,1h-2l-1,1h-2v1h-1v-1v1h-1h1v1h-1h1h-1v1h-1h1h-1l1,1v1h3v1h2v1h2v1h-3v1h-1h1l-1,1h-3l-1,1h-2v2h-1v3h-1v1h-1v1h-1v1h-8l-1,1v1h1h-3l-3,1l-2,-1h1v-1h-1l-1,-1v-1l1,1v-1h1v-1h-1l-2,-2h-1v-2h-1v-1h-1v-2h1h-2v-1h-1v-1v1h-1l-1,1h-3v1h-2l-1,1l-2,1h-4l-2,1h-2v-1h-1v1l-1,-1h1h-3l-1,-1v-1h2v-1h2v-1h1h-1l-1,1h-3v1h-1v-1h1v-1h3v-1h2v-1h2l-1,1l1,-1h2v-1l-1,1h-3l-1,1h-2l-1,1h-1v-1h1v-1l2,-1h1h-1l-1,1l-1,-1l1,-1h10v-1h-1v1h-3l1,-1l-1,1h-6v-1h1h-1l1,-1h1l1,-1h5l1,-1l-1,1h-1v-1h3v-1h6v-1h2v-1h2v1h-1h1l1,-1h1v1h4v-1h2l1,-1h-1l-1,1h-3l-1,1v-1h-1h1l1,-1h1l1,-1h3l1,-1h5l1,-1h-1v1h-2v-1h1l1,-1h5v-1l-1,1h-2v-1h3v-1h-1h4l1,-1h2v1v-1h1h-1h1v-1h-1h2l1,1v-1h1v-1h5v-1h11v-1h-1h5v1h1h-1v-1h3v-1h1v1h1v1h1v-1h8v1l1,-1h5v1h1h-2l1,1h1v-1l1,1h9l1,1h-1h8l3,1h4l3,1h1l3,1h1h-1h4v1h3v1h2l-1,1h-10l-1,-1h-6l-2,-1h-6l-1,-1h-1h-1l1,1h4v1h3l2,1h1l-1,1h2v1h1l1,1h3l2,1h4l1,1h2v-1h-2l-1,-1h-3l-1,-1h3l2,1h4l2,1h1v-1h1h-1l-2,-1h-1v-1h5v-1h1l1,1h4l1,1h1l-2,-2h-2l-1,-1h-1l-1,-1h-1l-3,-1h-1h6l1,1h3l1,1h-1l1,1h3v1h4v-1h8l1,-1h1l1,1h-1h2l1,1l-1,-1h-1l1,1h8v1v-1h3v1h2l1,1h1l-1,-1h1v1v-1h-1l-3,-1h2l2,1h2l2,1h3l2,1h2l1,1h3l2,1h1l1,1h1l-2,-1h-1l-1,-1h-3l-1,-1h-3l-1,-1h-2l-2,-1h-2l-1,-1h-2l-1,-1h-1h1l1,1h3l1,1h3l1,1h3l1,1Z"/>
<path class="sp" d="M639,20h2l1,1h2l1,1h3l1,1h1M660,26h1l1,1h2l2,2h2l1,1h2l1,1h2l1,1h2l1,1h1l1,1h2l1,1h2l1,1h1l1,1h2l1,1h1l1,1h2l1,1h1l1,1h1l1,1h1l1,1h1l1,1h2l1,1h1l1,1h1l1,1h1l1,1h2l1,1h1l2,2h1l1,1h1l1,1h2l1,1h1l1,1h1l1,1h1l2,2h1l1,1h1l1,1h1l1,1h1l1,1h1l2,2h1l1,1h1l1,1h1l1,1h1l1,1h1v1l1,1h1l1,1h1l1,1h1l2,2h1l1,1h1l2,2h1l1,1h1l2,2h1l2,2h1l3,3h1l1,1h1l3,3h1l1,1h1l3,3h1l3,3h1l2,2h1l1,1v1h1l1,1h1l4,4h1l4,4h1l3,3h1l4,4h1l1,1v1h1l2,2h1v1l2,2h1v1l1,1h1l7,7h1l15,15h1v1l2,2h1v1l7,7v1l1,1h1l1,1v1l9,9v1l4,4v1h1l1,1v1l4,4v1l4,4v1l4,4v1l3,3v1l4,4v1l1,1v1h1l1,1v1l1,1v1l3,3v1l3,3v1l2,2v1l1,1v1l1,1h1v1l1,1v1l1,1v1l3,3v1l1,1v1l1,1v1l1,1h1v1l1,1v1l1,1v1l1,1v1l2,2v1l1,1v1l2,2v1l1,1v1l2,2v1l1,1v1l1,1v1l1,1v1l1,1v1l2,2v1l1,1v1l1,1v2l1,1v1l1,1v1l2,2v1l1,1v1l1,1v2l1,1v1l1,1v1l1,1v1l1,1v2l2,2v1l1,1v2l1,1v1l1,1v2l1,1v1l1,1v2l1,1v1l1,1v2l1,1v1l1,1v2l1,1v2l2,2v2l1,1v2l1,1v2l1,1v2l1,1v2l1,1v2l1,1v2l1,1v2l1,1v2l1,1v2l1,1v3l1,1v2l1,1v3l1,1v2l1,1v3l1,1v3l1,1v3l1,1v3l1,1v3l1,1v4l1,1v4l1,1v4l1,1v4l1,1v3M992,413l1,1v1M617,14h2l1,1h3l1,1h3l1,1h3l1,1h1"/>
<path class="sl" d="M697,283v-1ZM700,296h-1v-1h1ZM700,294h-1v-1h1ZM782,314h3l2,1h-1l-1,1h-4l-2,-2v-1h2ZM990,404v1h1v2l-1,-2ZM994,423v-1ZM15,404v-1ZM14,392v2l-1,1v-1v1v-1l1,-1ZM12,397v-1ZM14,407v-1l1,-1v1h-1ZM805,139h-1v-1h-1h1ZM807,140v-1ZM29,335h-1ZM29,334v1ZM27,339v1ZM28,336v1l-1,1v2h-1v1v-1v2v-2l1,-1v-2ZM27,338l1,-1ZM316,881h-1v-1h1ZM258,864h2v1l1,-1v1v-1h1v1h1l1,1h1v1h1v1l-1,-1h-1l-1,-1h-2v-1h-4l-1,-1h-1h2ZM901,505v-1v1v-1ZM303,548h-1v-1h1ZM231,485v-1l1,1ZM30,333v-1ZM195,869v-1h1v1h1v1h1h-1v-1h-1l1,-1l2,2v2h1v1h-1l2,1h-1l1,1h-1v-1h-1v-1h-1v-1h-1v-1l-1,-1ZM194,871h1h-1v-1h1v1v-1h1v1l1,1v1l2,2v1l-2,-2v-1h-1v-1h-2v-1h-1ZM196,874h1v1ZM200,872l1,1h-1ZM194,871l-1,-1h1ZM200,875l-1,-1h1ZM29,333h1ZM28,343l-1,1v-1ZM386,68h-1ZM384,67h-1ZM386,49l-1,1h-1v-1h1l1,-1h1v1ZM388,58h-1l-1,1h-6v-1l-1,1h-3v-1h1l1,-1h3l1,-1h1v-1h1h-1h1v-1h-2l1,-1h2l2,-1h3l1,-1v1h1h-1v-2h1l1,-1v-1v1h-1l-1,-1v-1h1l1,-1h1h-3l-1,1h-5v-1h1l2,-1l1,-1h-1v-1h1l1,-1l-1,1h-1v-1h1l-1,1h-2v1l-2,1h-1h1v-1h1l1,-1v-1h1l1,-1h1v-1h1l-2,1h-2l1,-1h1h-1h1l1,-1h1v-1h-1h1v-1h3v-1h1v-1h2v-1h7l1,-1v1h-1l-1,1h-2l-1,1h-1h1l-2,1h2l1,-1h7v1h-2v1l-2,1h-1v1h-3l-1,1h-1h1l-1,1h-2h7v1h1l-1,1v2h3v1h1l1,1h-1v1h-1l2,2h-1v1h-1l1,1v-1h6l1,1h-1v1h-1v1h-1l-1,1v-1v1h-2l-1,1h-1l-1,1h-1h5v1h-2l-1,1h-3l-1,1h-10v1h-7l-2,1h-1v1h-6l-1,1h-2l-1,1h-2l1,-1h1l1,-1h2v-1h2v-1h1l1,-1h1l2,-1h4l1,-1h2v-1h1ZM385,52v1h-2v-1h1ZM408,31v1v-1h1ZM418,27h-1ZM417,27v1v-1v1h1h-2v1h-1h1v-1h-1h1v-1ZM420,26l-1,1v-1ZM405,33h1ZM406,32h-1h2l-1,1v-1l-1,1v-1l-1,1v-1h1ZM407,32v-1h-1h1ZM383,41h1ZM386,45v-1h1v1ZM386,42h-1l-1,-1h3ZM383,43v1l-1,1v-1h-1h2ZM384,44h-1l1,-1h1ZM390,35l-1,1h-1h1l-1,1h-2v1h-1v-1h1v-1h2l1,-1h2ZM386,40h-1ZM388,38v1h-1h1l-1,1l1,-1h-3l1,-1h1ZM384,38l-1,1v-1ZM382,40v-1h1ZM381,40l-1,1v-1ZM377,50h-2v-1l-1,1h-2l-1,1v-1h-1v-1h2v-1h2l1,-1h2v-1h4v1h1l-1,1h1v1v-1h-1v1h-1l-1,1h-1ZM394,61l-1,1h-1v-1h1ZM760,224h-1h1l1,-1v1ZM756,223h-1ZM764,225l1,1l-1,-1v1l-1,-1ZM767,224v-1ZM581,79l1,1h-1l-2,-1h-1v-1v1h1ZM721,129l-1,-1v-1v1ZM550,109h-2v-1h1ZM448,140h-1h1v-1ZM445,146h-1v-1h2v1ZM18,387v-1l1,-1v1Z"/>
<path class="sl" d="M16,396v1l-1,1v-2h1v-5h1v-1v3l-1,1v1ZM987,391v1ZM986,388v-1ZM988,415v1l-1,-1v-1ZM988,403h-1v-1v1ZM988,404v1ZM991,429v-1ZM988,415v-1ZM986,406v-1ZM989,419v1ZM678,460l1,2v1h-1v-1h-1v-1h-1v-4l1,-1v2ZM682,450h-1v4h-1v-4h1ZM679,476h-1l2,-2h1v-1v1l-1,2ZM798,133v-1ZM803,139h-1ZM503,32h-1v1h-1l1,1h-2v1h-1v-1h-1v-1h1l1,-1h2ZM491,37h-1v-1l1,-1h1v-1h1l-1,1v1ZM503,32h1ZM500,29h-1h1v-1ZM500,27h1ZM933,371v-1ZM933,376l1,1l-1,-1v-1ZM933,370h1l1,2l1,3l2,2v2l1,2v1h1v1l1,2v1l1,3v2l1,1v2l1,2v4l-2,2h-1l-1,1h-1l-1,-1l-1,-2v-1l-1,-2v-3l-1,-6l-1,-2v-13h1v-1h-1l-1,-1ZM387,119l-1,1h-1v-1h1ZM398,113h2l-2,2h-3v-1h-1v1v-1h-1l3,-2h2ZM406,112h-3v-1h3ZM386,118v1l-1,-1l1,-1h1ZM249,195l-1,2l-1,1h-1l-1,-1v-1h1l1,-1h1l1,-1h2ZM267,189l-1,1v-1l1,-1h1l1,-1v1l-1,1ZM262,195l-1,1h-1l1,-1h1l1,-2l1,-1v-1h2l-1,1v1l-1,1ZM254,196v2h-1l-1,1h-1v-2h1v-1ZM243,198l-1,1v-2h1ZM238,201l-1,1l-1,-1h1l1,-1ZM240,196v-1l-1,-1l1,-1h1v2h-1ZM613,794h-1v-1h1ZM998,481v-1ZM245,352h-1l-3,-1h1l2,-1l1,1ZM800,461v1v-1l-1,-1h1ZM643,205h-1v-1h-1l-1,-1h-1l1,-1v1h1l2,1ZM691,272h1h-1v-1l1,1v1v-1h-2l-1,-1v-1h1v-1v1l1,1ZM640,202v-1ZM404,389h-1l1,-1ZM398,402h-2v-2l1,-1h1v2ZM462,89v-1l1,1ZM21,371v-1ZM21,373v-1ZM23,365l-1,1l1,-1v-1ZM28,341v-1ZM28,340v-1ZM587,8l-1,-1v1h1l-1,-1v1h1h-2l-1,-1h-4v-1h-1h1l1,1h4l1,1Z"/>
<path class="sp" d="M580,6l1,1h4l1,1h1"/>
<path class="sl" d="M586,8h3l1,1h3l1,1h2l1,1h5v1h2h-3l-1,-1h-5l-1,-1h-1h1h-3v-1h-5l-1,-1h-1h1h-2v-1h-1h2v1h1ZM563,15v1h-1v-1ZM581,14h-1ZM590,9l1,1h1h-2v-1h-1ZM632,18h-1ZM624,16h-1l-1,-1l1,1ZM656,26h-1l-1,-1h-1h2v1ZM673,90l-1,-1v1ZM594,12h-5v-1h-1h1l3,1h1ZM615,14l1,1h-1l-1,-1h-2l-2,-1h-1h2v1h3ZM590,80h3v1h4l2,2l2,1h1l1,1l1,-1h1l1,1v-1h2l1,1v1h-6l-1,1h-4l-2,2h-2l-1,-1h-1v-3h-3l-1,-1h-3v-1l2,-1h3l1,-1ZM746,220h-2l-1,-1v-1l-1,-3l-1,-1v-2l1,-2v-1h1l3,3v3h1v2l1,1h-1v2ZM255,166h3l-1,1h-2ZM225,148h-1l1,-1ZM206,139h-1ZM221,140h-1v-1h1ZM217,141h-1v-1ZM213,142l1,-1v1ZM215,142h1h-2l1,-1ZM225,143h2l-1,1h-2v-1ZM803,259l-1,-1l1,-1v-1l1,1l-1,1ZM777,220v-1ZM443,24h1ZM443,26l-1,1v-1ZM534,6h1ZM477,13h-1ZM461,17h2ZM460,18h-1ZM514,5h-1ZM520,4h1v1h1h-2l-1,-1ZM515,5h-1ZM516,5h-1ZM485,8h1h-3v1v-1h1ZM482,9h-1h1v-1h1ZM490,7v1h-1l-1,-1v1h-1v-1h2ZM504,5h1h-2ZM507,5h-1ZM502,5l1,1v-1v1h-2v-1ZM479,12h-1h2ZM479,12h-1ZM473,14v1h-2l1,-1ZM497,6h1v1h-3v-1h1ZM491,8l1,-1h2l-1,1h-3l1,-1h-1h2v-1l1,1h-2ZM424,8h3l1,-1v1h-2ZM502,1h-1ZM507,0h1h-2Z"/>
<path class="sp" d="M503,0h3"/>
<path class="sl" d="M502,0h-1ZM496,0h-1ZM493,0h-1Z"/>
<path class="sp" d="M497,0h5M495,0h1M490,0h3"/>
<path class="sl" d="M488,0h1Z"/>
<path class="sp" d="M488,0v0"/>
<path class="sl" d="M403,365h-1l1,-1h1ZM423,57l-1,1h-4v-1h4ZM437,48h-1ZM435,48l-1,1v-1ZM431,49l-1,1v-1ZM432,49h1ZM429,50h-1h2ZM422,56h1h-2ZM440,48h-1ZM12,391v1v-2ZM28,339v-1ZM12,392v1Z"/>
<path class="sp" d="M12,393v-1"/>
<path class="sl" d="M431,91h-1ZM796,599h-2v-1l1,-1v-1l1,-1h1v3h-1ZM231,258l-1,1v-1l1,-1ZM472,133h-1v-1h1ZM471,132h-1v-1h1ZM909,415h-1ZM909,408h-1v-1h1ZM992,431v-1l-1,-1l1,1v2l1,1v6h1l-1,-1h1v1v-2l1,3v3l1,2v6l1,3v13l1,1v10l-1,-3v-5l-1,-2v-5h-1v-7l-1,-1v-8l-1,-4v-5l-1,-1v-5ZM998,469v-1ZM993,441v-1ZM991,430v1ZM995,462v-1ZM637,509h-1v-1h1ZM636,509h-1v-1h1ZM752,522v2l1,2l1,1v3l1,3v4l-1,4v2l1,2v6l-2,2h-1v-1l-1,-2v-1h-2v6l1,1l-1,2v1h-1v2h-1v1l-1,2l-1,1v4l-1,4l-2,4l-2,3l-1,3l-2,3l-1,3l-1,2l-2,3l-1,4l-2,4l-3,5l-1,3l-1,2v2l-2,3v1l-1,1l-1,2l-2,2v1l-2,4h-1l-2,1h-4l-4,2h-4l-2,-2l-2,-1h-1v-1l-1,-1h-1v-4l-1,-2v-3l1,-2v-6l-1,-2v-7l1,-1v-1l1,-1l1,-3h2v-1l2,-2l1,-2l2,-2l1,-2v-2l1,-2v-3l-1,-3l1,-1v-1l-1,-2v-10l4,-6l1,-1v-3h4l2,-2h1v1h2v-1h1v-1h4v2h1v-3l1,-1l2,-1l1,-1h1v2h1v-2l2,-2v-1l1,-1v3l2,-2v-1h2l-1,-1v-1l2,-3v-1l-1,-1v-1h1v-1h1l1,1h1v-1l1,-1h1l2,-1l1,-3v-3l-1,-1h1l3,-3l1,1v1ZM742,529v1l-1,-1v-1h1ZM750,561l-1,2v-2l1,-1ZM716,183h-1v-1l-1,-1v-1h1v1l1,1ZM691,427v-1h1ZM686,94v1v-1h-1v-1v1ZM687,94h-1v-1ZM697,93h-1ZM448,95h1h-2ZM470,105h-1ZM455,128l-1,-1h1ZM480,119l-3,3v3h1v1h-1l-1,1v1l-1,-1h-3l-2,-2h-3l-1,-1h-2v-1h-4l-1,-1h-1v-1h1v-1h1l1,-1v1h2l1,-1h1v1h9v-1h4l2,-1ZM442,105l1,2h-1v1h-1v1h1v1h-1l-1,3v1h-3l-1,1v1h-3v-1l-1,-1v-1h1v-2h1h-1v-2l1,-1h-1v-1h-1v-2h5l1,-1h1v-1h1l1,1h1l-1,1ZM433,115l-1,1v-1ZM433,104v1v-1h1ZM617,162h1l-1,1v1h-1v-1ZM360,52v1l-1,-1ZM376,47h-1l-1,1h-2v1h-1h-1v1h1v1l1,-1h2l1,-1v1h1h-1h2v1h-1v2l-1,1v1h-1l-2,2h-1h1l-1,1h-6v1h-2v1h-4v1h-2l-2,1h-2l1,-1h-2v1h-1l1,-1h2l1,-1l-3,1h-1l1,-1h2v-1l-2,1v-1h3v-1h2l1,-1h1h-2l-1,1h-1l2,-1h1v-1h1l1,-1h1h-3l1,-1h-1h1v-1h2v-1l-1,1v-1h1h-1h1v-1l-1,1v-1h7v-1h2v-1h1h-1v-1h1l1,-1h3v-1h1l-1,1h1h-1h1v-1h2ZM773,208l-1,1h-3v1h-1v-1h1l1,-1v-1l1,1l1,-1h1ZM991,468v4l-1,-1v-3ZM993,499v-3l-1,-2v-1l1,-2v7ZM999,510v1v-2ZM999,525v1v-1v1v-2ZM987,435h1v1h1v2l1,2v2l1,3v4h1v4l1,3v2l1,2v5h1v3l1,1v6l1,1v7l1,1v4h-1h1v-1v14l1,1v11l-1,1v1l1,-1v11l-1,1v12l-1,6v-3h-1v2v-32l-1,-1v-21h-1v-7h-1v-13l-1,-2l-1,-4v-5l-1,-1v-4l-1,-3v-2l-1,-1v-2l-1,-1v-2l-1,-4v-1l-1,-1v-5h-1v-1h1v1h1v3h1ZM995,570v-3l1,-1h-1v-2h1v-14l1,-2v-1v11h-1v8l-1,1v2Z"/>
<path class="sp" d="M996,561v5l-1,1v3"/>
<path class="sl" d="M996,470v1ZM997,481v-1ZM997,477v1v-3ZM998,484l-1,-1v-1l1,1ZM998,483v1v-2l-1,-1v-1l1,1v1ZM998,486v-1ZM998,486v-1ZM998,482v1v-1v1ZM999,483v1ZM999,495v2v-3ZM999,496v1ZM998,495v-1ZM995,536v-1ZM994,513v1v-2ZM994,509v1v-3ZM994,505v-2ZM992,487v1v-2ZM989,459h-1v-3h-1v-2l1,1v3h1ZM998,482v1v-2ZM998,485v-1ZM999,485v1l-1,-1v-1ZM999,493v-1ZM999,469v1v-2ZM999,471v-1Z"/>
<path class="sp" d="M1000,514v0"/>
<path class="sl" d="M999,523v-1ZM999,523v-1ZM996,551v-1ZM990,463v-1ZM984,428v-1ZM980,417v-1ZM980,412l-1,1v-1ZM977,404v-1ZM978,407v-1ZM978,406v-1ZM975,396v-1ZM973,383v1l-1,-1v-1ZM972,377h-1v-1h1ZM971,376v-3l-1,-1v-6l-1,-1v-3l-1,-1v-1l1,-1v5l1,1v3l1,2v5ZM971,372l1,1ZM969,365v-1ZM898,348v-1ZM903,372v1ZM387,18h2v1h-2h2v1h-2v1h-4v1h-2l-1,1h-4l-1,1h-3v1h-4v1h-3l-2,1h-2v-1h-2v1h-3l1,-1h3v-1h1l-2,1l1,-1h1h-1h1h-1v-1h4v-1l-1,1h-1h1v-1h1h-2l-1,1h-1h1v-1h2v-1h4v-1h1h-1h2v1h-2v1l1,-1h2l1,-1h3l1,-1h4l1,-1v1h1v-1h4v-1h1ZM221,326v-1h1v-1v1ZM223,325h-1h1h-1l1,-1ZM224,324v-1h1v1ZM226,321h-1h1v-1ZM223,322h-1l1,-1ZM223,319v1h-1v-1ZM18,381v1v-2h1ZM515,118v1h1v1l-1,-1h-2v-1h1v-1ZM517,121v1h-1l-1,-1v-1l1,1ZM515,117h-1v-1l1,-1v1ZM516,118h-1v-1v1ZM511,112h-2v-1l-1,-1h2l-1,1h1v1ZM533,115h1v1h3l1,1h1v1l2,2h1l-1,1v-1h-2v-1h-1v-1h-3v-1h-1l-1,-1h-1v-1h-1h1v-1h1ZM536,114h-1l-1,-1ZM536,114v-1h1v1ZM542,116h-1l-1,-1h1ZM542,106h-2v-1h2l-1,1ZM535,121h-1v-1h1ZM532,131h-1v-2l1,1ZM562,136h-1v-2l1,-1v1l-1,1h1ZM559,127v-1h-1h1ZM559,128l1,-1h2l-1,1h-1ZM549,126l-1,1v-1l1,-1ZM547,126h-1l1,-1ZM549,130h-1h1v-1h-1ZM548,128h-1v-1ZM557,122h1v1h-1v-1h-1ZM552,123h1ZM551,128v-1h1ZM556,129h-1ZM541,123h-1v-1h1ZM541,124v-1ZM542,127v1h-1h1ZM545,123v1h-1v-1ZM545,122h-1l-1,-1v-1l1,1ZM547,123h-2v-1h1v1ZM543,127v-1h1ZM552,119l-1,1v-1h-1h1v-1h-1v-1h1l1,1ZM553,113v1h2v1h-4l1,-1h-2v-1h2ZM548,107h-1ZM546,109v1h-2v-1h1v1ZM548,124h-1v-1ZM542,125h-1ZM566,133h-1v-2h1l2,-1v1l-1,1ZM538,135h1l1,-1v1h1v1h2l1,-1l2,1h6v1h3v-1h1l-1,1v1h-10l-1,-1l-6,-1h-2v-1h1v-1h1ZM476,44h-3v-1h3l-1,1ZM478,45v1h-2l1,-1h-1h1ZM464,44h-1ZM449,43l1,-1v1h1ZM450,43v1l-1,-1ZM443,95l-1,1h1l-1,2l-1,1v2l-1,1h-3v-1h1h-1v-1h-1v-1h1l-1,-1h1v-1h-1h1v-1h3v-1h1v1v-1h1v-1h1ZM383,83h-1v-1h1ZM719,523h-1v-2h1v1ZM782,605h-1l-2,-2v-2l1,-1h1l2,2v2ZM24,359v1v-3h1v1ZM27,346l1,-1v-1v2ZM27,348l-1,1v-1l1,-2v1ZM27,349v-1ZM170,125v-1h1v-1v1h-1ZM753,829h2v1l-1,-1v2h1v-1h3v1h-1v1h-1l-1,-1l-1,1h-1v1h1v1h-1v-1h-1v-1h-1l-1,1h-1v-1h1v-1h1v-1l1,-1v-1h1v-1h1l1,-1v1l-1,1h-1ZM754,829v-1h1ZM689,798v-1ZM506,25h1v1h-2v-1Z"/>
<path class="sl" d="M505,25v1l-1,-1ZM509,26h-1ZM515,25h-1ZM511,18h1h-2ZM516,25h1v1h-1ZM513,25h-1v-1ZM515,26h-1v-1h1ZM514,26h-1v-1ZM523,14h-1h2ZM519,30h3v1h-5v1h-1l1,-1h-1l-1,-1h3ZM520,29v1l-1,-1v1h-1v-1h-2h3ZM522,30h-1ZM677,275v1h-1v-1ZM678,278v1v-1l2,1h-4v-1l1,1v-1h-1v-1h1v1ZM415,370h2v1l-1,2v1l-1,1l-2,-1v-1h1v-1l1,-1ZM25,354v-1l1,-1v-1v2ZM423,6h-3l-1,1h-1h1l1,-1h2ZM284,49h1l1,-1h1l1,-1h1l1,-1h1l1,-1h2l1,-1h1l1,-1h1l1,-1h1l1,-1h2l1,-1h1l1,-1h1l1,-1h2l1,-1h1l1,-1h2l1,-1h1l1,-1h2l1,-1h1l1,-1h2l1,-1h2l1,-1h1l1,-1h2l1,-1h2l1,-1h2l1,-1h1l1,-1h2l1,-1h3l1,-1h3l1,-1h2l1,-1h2l1,-1h2l1,-1h2l1,-1h3l1,-1h4l1,-1h2l1,-1h3l1,-1h3l1,-1h3l1,-1h4l1,-1h4l1,-1h3l1,-1h5l1,-1h4l1,-1h1l-1,1h-1h1h-4l-1,1h-6v1h-5v1h-1h1v-1h5v-1h2l-1,1h-4v1h-2l1,-1h1h-2l-1,1h-1h2l1,-1l-1,1h-1h1h-2v1h-1h1v-1h1l-1,1h-2l-1,1h-2l2,-1l-1,1h-6v1h-4l-1,1h-3l-1,1h-1h2v-1h1l-1,1h-1h2v-1h4v-1h2v1h-4v1h-4v1h-4v1h-4l-2,1h-1l-2,1h-3v1h-4v1h-3l-2,1h-1l-1,1h-2l-1,1h-2l-2,1h-1l-1,1h-1l-2,1h-1h1h-2l-1,1h-2v1v-1l-1,1h-2l-1,1h-1h1l1,-1h1l2,-1h1h-2l-1,1h-2v1h-2l-1,1h-2l-1,1h-2l-1,1h-2v1h-1h1h-2v1h-2l-1,1h-1h-1l-1,1h-1l-1,1h-1l-1,1h-1l-1,1h-1h1h-2l-1,1h-1l-1,1h-1l-1,1h-1l-1,1h-2v1h-1l-8,4h-1l-1,1h1h-1l-2,1h-1v1h-1l1,-1h1h-1l-1,1h-1h1v-1h1l1,-1h1l-1,1h-1l2,-1h1v-1h1h-1l-1,1h-1l-1,1h-2v1h-1l1,-1h1h-1h2v-1h2l2,-2Z"/>
<path class="sp" d="M416,7h3l1,-1h3M284,49h1l1,-1h1l1,-1h1l1,-1h1l1,-1h2l1,-1h1l1,-1h1l1,-1h1l1,-1h2l1,-1h1l1,-1h1l1,-1h2l1,-1h1l1,-1h2l1,-1h1l1,-1h2l1,-1h1l1,-1h2l1,-1h2l1,-1h1l1,-1h2l1,-1h2l1,-1h2l1,-1h1l1,-1h2l1,-1h3l1,-1h3l1,-1h2l1,-1h2l1,-1h2l1,-1h2l1,-1h3l1,-1h4l1,-1h2l1,-1h3l1,-1h3l1,-1h3l1,-1h4l1,-1h4l1,-1h3l1,-1h5l1,-1h4l1,-1h2M281,51l2,-2"/>
<path class="sl" d="M387,13l-1,1h-3l-1,1h-1l1,-1h3ZM425,6h-1h1h-1ZM329,31l1,-1h1h-1v1ZM279,52h-1l2,-1ZM400,26h-1v-1h1ZM398,27v-1h1h-1ZM399,25h-1ZM401,24v1h-2l1,-1ZM402,24v1h-1v-1ZM471,39v1h-2l1,1h-2v2h-1l-1,-1v-1h-2v-1h-1l1,-1h3v1l2,-2h2ZM456,43h-5v-2h-1l-1,-1l1,-1v-1l1,-1h2l1,-1h1l1,1v-2l-1,1h-1v1h-3v-1h1l1,-1h5l1,-1h1l2,-1h1l-1,1h1v1h-2v2h2v1h-3v1h-2l1,1h-2l-1,1v1h-1h1ZM461,40h1v2h-4v-1h-1l1,-1h2ZM464,42l1,1h1h-3v-1ZM461,43v-1h1v-1h1l-1,1ZM470,42h-1ZM460,43h-1v-1h1ZM458,43h-1v-1h1ZM461,39h1ZM465,35h-1v-1h1ZM483,42h-1l-1,-1h2ZM609,140h-3l-1,-1h-3v-1h7l1,-1h2l-3,2ZM600,139h5l1,1h4v1h-2v-1h-1l-1,1v1h-3v1l-1,-1h-2l-2,-2v-1v1l1,-1ZM488,93h4l-1,1l-1,-1v1h-1v-1ZM492,92h-1ZM489,92h-2v-1h3v1ZM480,88h-1v-1ZM477,83v1l-1,-1h-1h1v-1ZM477,84v1l-1,-1ZM479,87v-1h-1l-1,-1h1v1h2ZM479,89l-2,-1v-1l1,1ZM480,88l1,1h-1ZM475,85l-1,-1v-1h1v1ZM494,94l1,1l-2,-1ZM500,95v1l-1,-1h-1l-2,-1h-2l-2,-1h-1h1l3,1v-1l1,1h1l1,1h1ZM317,364h-1ZM714,515l1,1l-1,1v1v-1h-1l-1,-1h1ZM709,517h-1v-1ZM707,513h-1v-1h-1v-3l1,-1v2l1,1v1ZM197,887l2,1l2,2l4,2l2,2l2,1l2,2l2,1h-1h1v1h-1l-1,-1l1,1h-1v1l-1,-1l1,1h-1v-1h-1h1h-1v-2h-1h1v1h1l-1,-1h-1l-1,-1h-1l-1,-1h1v1h1l1,1h1v-1h-1h1l1,1v-1h-1l-2,-1h-1l-1,-1h-1v-1h-1v-1l-1,-1v1h-1v-1h-1l-1,-1v-1h-1l-2,-2v-1l1,1l-1,-1h1ZM215,898h1v1l-1,-1l1,1h-1l-1,-1h-1v-1h2ZM137,839v1l-5,-5v-1h-1v-1h-1l-1,-1v-1l-1,-1h1v1h1v1l2,2v1h1l1,1v1h1v1h1v1ZM173,874l2,2l2,1l1,1h1v1l-1,-1h-1v-1l-1,-1h-1l1,1h1l1,1v1l-2,-2h-1v-1h-1h1l-2,-2h-1v-1h-1v-1ZM171,873l-1,-1l-2,-1v-1h-1v-1h-1h1l3,3h1ZM199,894h2v1h1h-1l-1,-1v1l-1,-1h-1v-1v1ZM170,871v1v-1l-1,-1h-1l-1,-1h-1v-1l-1,-1l2,2h1v1h1ZM203,895v1v-1l1,1h1v1h1v1h1h-1v-1h-1l1,1l-1,-1h-1l-1,-1v1l-1,-1v-1l1,1l-1,-1ZM190,888l1,1h2l2,2h-1l-2,-2h-1v-1ZM213,899h1l-1,-1h1v1h1l1,1h1v1h1h-2l-1,-1v1h1h-2v-1l-2,-1ZM206,896l1,1v-1v1h1v1h1h-2l-2,-2ZM143,846h1v1h1v1h1v1h1v1h1v1h1v1l-3,-3h-1v-1h-1v-1h-1v-1l-1,-1v-1h-1h1v1h1ZM145,847l1,1l-1,-1h-1v-1h-1v-1h1v1h1ZM146,850h1ZM184,883l1,1h-1v-1h-1v-1v1ZM172,873l2,2v1v-1h-1v-1h-1v-1v1l-1,-1ZM165,867v1v-1h-1v-1v1ZM139,842h-1ZM146,848h-1v-1h-1v-1v1h1v1Z"/>
<path class="sl" d="M188,886l1,1l-2,-2ZM181,881l1,1v-1v1l-1,-1h-1v-1h-1h2ZM140,842v1v-1h-1ZM192,889v-1h-1h1ZM151,854l1,1h-1h1l-3,-3h-1v-1l2,2h1ZM216,898v-1h-1h1ZM212,900h1v1v-1h1v1h1h-3ZM220,901h-1l-1,-1l1,1ZM170,288l-1,1v-2l2,-1v1ZM177,302l-1,1v-1l-1,-1l1,-1v-1v1l1,1ZM171,289h-1l1,-1ZM182,291h2v1l-1,1h-1v-1ZM172,304h-1l-1,-1h1v-1l1,1ZM176,290h-1l-1,1v-1h1ZM183,288v-1h1h-1ZM179,300v-1h1v1ZM181,115l2,-2h1l1,-1v-1h1l2,-2h1l3,-3h1v-1l1,-1h1l1,-1h1l1,-1v-1h1l1,-1h1h-1h1v-1l-2,2h-1v1h-1l-2,2h-1v1l-2,1l-2,2h-1v1h-1v1h-1l1,-1h1v-1h1l1,-1l-1,1l1,-1h-1h1l-1,1l-2,1v1v-1v1h-1h1v-1v1h-1h1v-1v1h-1v1h-1l-1,1l1,-1h1v-1h1v-1h1l1,-1l-1,1h-1h1l1,-1v1h-1l-1,1h-1v1l-1,1v-1v1h-1h1l-1,1h-1l-1,1l1,-1h1v-1h1l1,-1l-2,2h-1v1h-1l-3,3h-1h1l3,-3h1l-1,1l-2,1l-1,1h1v-1h1h-1v1h-1l-3,2v1l-2,2h-1l-1,1h1l1,-2h1v-1l-1,1l2,-2h1v-1h1v-1h1h-1l-5,5h-1l-1,1l1,-1h1v-1l2,-1l1,-1h-1v1h-1v1v-1l-1,1h1v-1l2,-1h-1l-1,1v1h-1l-1,1h-1h1l-1,1h-1h1l5,-5h1l2,-2Z"/>
<path class="sp" d="M181,115l2,-2h1l1,-1v-1h1l2,-2h1l3,-3h1M193,106v-1l1,-1M195,104l1,-1M171,123h1l5,-5h1l3,-3"/>
<path class="sl" d="M147,145v1v-1h1ZM190,108l-1,1v-1h1h-1ZM192,107h-1v1h-1l1,-1ZM177,119h1v-1h1h-1ZM988,395v-1ZM989,400v-1ZM983,389v1ZM985,398h-1v-1h1ZM982,385v-1ZM982,382l-1,-1v-1l1,1ZM982,383l1,2h-1v-1ZM980,376h1v2l-1,-1v-2ZM981,379l-1,-1h1ZM966,342l1,1l-1,-1v-1ZM971,345v-1ZM958,319l-1,-1v-1l1,1ZM954,309l1,1h-1v-2ZM956,312v2h1h-1v-1ZM983,390v-1ZM982,383v1l-1,-1v-1v1ZM980,377v1ZM979,372l1,1l-1,-1v-1ZM967,344v-1ZM953,308v1v-2h-1h1ZM36,465l2,-2h2v6l-1,1v4h-1v1v-1v2h-1v1l-1,1v1l-1,-1v1h-1v1h-1v-6l-1,-1v-3h1v-4l1,-1ZM92,650v1h-1v-1ZM88,683l-1,-1v-1v1ZM90,658v1v-1v1h-1v-2h1ZM55,480v1v-2ZM90,559v-1l1,-1h-1h1ZM90,562v1v-2ZM53,467v-1ZM36,461l-1,2v1l-1,-1v1v-2l1,-1ZM34,447v1v-2ZM33,466l-1,2v-3h1ZM37,464h-2l1,-1v-1h1v1ZM33,463v1v-3l1,-2v3ZM34,460v1v-2l1,-1v1ZM29,479v-2l1,-1v-5l1,-1v4l-1,2v2ZM93,694l-1,-2v-1v1l1,1ZM24,369h-1h1v-1ZM942,288l-1,-3v1l1,1ZM942,287v-1l-1,-1l1,1ZM941,288v-1l-1,-1v-2l-1,-1v-1h-1v-1l1,1v1h1v2h1v2ZM945,291v1v-1h-1ZM946,294v-1l-1,-1v1h1ZM938,281v-1ZM739,210v1l-1,-1v-2l1,1ZM671,119l-1,-1h2v1h2v1h3v1h1l2,2v1h-1l-2,-1h-1v-1h-1v-1h-2v-1h-1ZM669,111h-1ZM906,792l1,-1v-1l2,-2v-1l2,-2v-1h1l2,-4v1h-1h1v-1l1,-1l1,-2l2,-2v-1l1,-1l2,-3l1,-1l-2,2v1l-2,2v1l-2,2v1l-2,2v1l-2,2v1l-2,2v1l-4,4v1l-1,1ZM924,765l2,-3l1,-1l1,-2l1,-3l1,-1l2,-4h1l1,-3l1,-2l1,-1v-1l1,-1l4,-8l1,-1l2,-5l2,-3l1,-2v-1v1v-1v1l-1,2l-1,1h1v-1l1,-1v-1l2,-4v-1v2l-1,1v1h-1v1v-1l-1,2v1l1,-1l-2,2v2l-1,1v1l-2,2v1l-1,1v1l-2,2v2l-1,1v1l-2,2v1l-1,1v1l-2,2v2l-2,2v1l-1,1v1l-2,2v1l-2,2v1l-1,1v1l-2,2v1l-1,1ZM949,720l2,-3v-2l1,-2l1,-1l1,-2v-1l1,-1v-2l1,-1v1l-1,1v1l-1,1v1l-1,1v1l-1,1v1l-1,1v1l-1,1v1l-1,1v1l-1,1Z"/>
<path class="sp" d="M922,769l-2,2v1l-2,2v1l-2,2v1l-2,2v1l-2,2v1l-2,2v1l-4,4v1l-1,1M947,725l-2,2v2l-1,1v1l-2,2v1l-1,1v1l-2,2v2l-1,1v1l-2,2v1l-1,1v1l-2,2v2l-2,2v1l-1,1v1l-2,2v1l-2,2v1l-1,1v1l-2,2v1l-1,1M956,705v1l-1,1v1l-1,1v1l-1,1v1l-1,1v1l-1,1v1l-1,1v1l-1,1v1l-1,1"/>
<path class="sl" d="M948,723l1,-3l1,-2l-1,3h-1v1ZM991,585v-1ZM979,584v-1ZM746,858h-1l1,-1h1v1ZM673,114h-1v-1ZM213,898l-2,-1l-2,-2l-2,-1l-2,-2l-4,-2l-2,-2l-2,-1h2v1h1v1h1v1h1v-1l2,2h1l1,1h1l1,1h1l1,1h2v-1h1v1l1,1v1l1,1h-1v-1l-1,1h-1v1ZM213,893h1v-1v2h1h-1v-1ZM118,797l-1,-1h1ZM29,340v1v-2ZM30,336v-1h1h-1ZM278,905h2v1h1h-3ZM329,969v-1h-1h1ZM571,995h-4l-1,1h-9l-1,1h1h-1v-1h1h-15l-1,1h-2v-1h-1l-1,1h-35l1,1h-1h1h-10l-2,1h-1h-9l2,1h1h-6l-1,-1h-15l-1,-1h-10l-1,-1h-8l-1,-1h-7l-1,-1h-6l-1,-1h-6l-1,-1h-5l-1,-1h-4l-1,-1h-5v-1h-5v-1l1,1h3l2,1h1h-1l-1,-1h-4v-1h-1l2,1h2h-2l-1,-1h-2l-3,-1h-1l-1,-1h-2l-1,-1l1,1v-1h-3v-1h-1v1l-1,-1h-6v-1h-2l-1,-1h-1v1h2h-3v-1h-1h1v1v-1h-2l-1,-1h-1v-1h-2l-1,-1h1h-2l-2,-2h-3l-1,-1h-2v-1v1h3l1,1v-1h-1h1l-2,-1h3v-1h-3l-1,-1h-1h1h-2l-1,-1h-1h4l-1,-1l1,1h1v-1h-1h1l-2,-2h-1v-1h-1v-1h-1v-1h-1l-1,-1l-2,-1h-2l-4,-2h-3l-4,-2h-2l-1,-1h-2l-2,-1h-2l-1,-1h-2l-1,-1h-1v-1h1h-2v-1h-2l-1,-1h-1l-1,-1h-1l-1,-1h-3v-1h-1l-1,-1h-2l-2,-1h-1v-1h-1h1l1,1h1h-1v-1v1h1l-1,-1h-2v-1h-2l-1,-1h1h-1l-1,-1h-1v-1h-1l-2,-2h-1v-1h-1v-1h-2l-1,-1h-1v-1h1h-1l-1,-1h-1v-2h-1v-1h-1l-1,-1h-1l-1,-1l1,-1h-1v-1h-1v-2l-1,-1v-1l1,1h1l1,1h-1v-1v2h1l3,3h1l1,1h-1l1,1l-1,-1v1h1v1l2,1v1l1,1h1h-1h1v1h2l1,1h1v1h2v-1h-1h2v1h1l1,1l-1,-1h-1l1,1h1h-2v1h2l1,1h1h-1l-2,-1h-1l1,1h1v1h2l1,1h-1h1v1h2v1h1h-1h1v1h2l1,1h2v1h1l-1,-1h1v1h1v1h1v-1l1,1h1l-1,-1v-1h1h-1l2,2h2l1,1h4l1,1l2,1h3l1,1h-1h3l1,1h1l1,1l-1,-1h1l1,1h3v1h1l1,1l-1,-1h1l1,1h1v1h2v-1v1h2l1,1h2l1,1h3l1,1h-1h1h-1l1,1h3l1,1h1h-1h2l1,1h2l1,1h-1h3v1h1h-1v1h2l1,1h1v-1v1h2l2,2h1v1l4,2h1v2h-1h1h-1v1h3l1,1h4v-1h1l2,1h2l1,1h-2v1h-1h1v1h1l1,-1h4l1,1h1v1h-1l2,1h1l1,-1v1h2l-1,-1v-1h2l2,1h2v1h1v-1h-1h4l1,1h1v-1h1h-1l-1,-1h8v-1h1l1,1h-1h2v1h4l-1,-1h1h-1h1l1,1h7v1h2v-1h-2l-2,-1h-2v-1h-2l-1,-1v-1h2v-1l1,1h3v-1h-2l-2,-1h-1l-1,-1h-1v-1l-1,-1h3l-1,-1h-1h1v-1h2l-1,-1h1v-1l4,-1h1l-1,-1h-2l-8,1l-1,-1h-2l-1,1h-6v-1h-3l-2,-2h-1v-1l-1,-1h-1v-1h1v-2h-1v-2h1v-1h1v-1l2,-1h1l1,-1h2v-1h2l1,-1h1h-2v-1h-1h1l-1,-1l-1,-2h4v-2l-1,-1l-1,1h-2v-1h-2l-1,-1v-1h3l1,-1h-1l-1,-1h2l2,-2v-2h-1v-1h-4l-1,-1h4v-1h1v-1h-1h3l1,1l2,1h2l-1,-1v-1l-1,-1h-1l1,-1h5v2h9v-1l1,1h3v-1h1l2,2v-1l1,-1h1v-1h2l1,-1h1l7,-2h5l1,-1h4v-1h2l1,1h1l2,1h3v-1h1v-1h2l-1,-1h1l1,1h7l1,-1h1l1,1h1l3,1l2,-2h1v3l1,1h2l2,-1h1v-1l1,-1h2v2h3l2,-2l1,1v1l1,1h7l1,-1h4l4,-2h7l2,-2h1v-2l-1,-1l1,-1h2l1,-1l1,1h1l-1,1h-1v1h3v2h4v1h3l1,1v1h2v-1h1l1,-1l2,-1v-1l1,-1h1l1,-1h3l1,-1h4l2,-1h5l1,-1h6l1,-1h-1h1v-1h2v1h1h-1l-1,1h2l1,1v1h-1h1l2,-2l2,-1h1l-1,-1h-1l2,-1h1v1l1,1h2l1,-1v-2l1,-1h3l3,-1h7l3,1h1l1,1v1l1,1v1h-2v-1l-1,1v1h-1l-3,1h7v1h1v2h4v1h1l2,1h4l1,1l2,1h2l1,1h1l1,1h3l-2,2h-1v1h-1l-1,1h-2v1h-1v1h-3l-1,1v1h-5l-1,1h-2v1h3v1h-1l-1,1l-3,1h-2v1h-3l-1,1l-3,1l-2,1h-1l-1,1l-2,1h-1l-1,1h-1h1v1l2,-1h1l1,-1h1l1,-1h5l1,-1h3l1,-1h2l2,-1l1,-1h2l1,-1h2l1,-1h1l1,-1h2l2,-1h2v1h3l1,-1h7l1,-1h1l4,-2h8l2,-1v1h2l2,-1h5v1l1,-1l1,1h5v1h5v1h1v1h2v1h-1h1l1,1h1v1h-1l1,1h3l2,-1h2v2h-1v1l-3,3h-1v1h-1l-1,1h3l2,-1h3v1h-1l-1,1l-3,1h-1v1h-1l-1,1l-2,1h-1v-1l-1,1h-1v1h1v-1v1h1h-1v1h-1v1h1h-3v1h2v1h-1h1h-1l-1,1l-4,2h-1l-1,1h-1l2,-1h2l1,-1v1h-2l-1,1h-1l-1,1h-1l-1,1h-1h1l1,-1l-1,1h-2l-1,1h-2l-1,1h-2l-1,1h-1l-1,1h-2l-1,1h-2l-1,1h-1l-1,1h-3l-1,1h-2l-1,1h-2l-1,1h-2l-1,1h-2l-1,1h-3l-1,1h-2l-1,1h-2l-1,1h-3l-1,1h-3l-1,1h-3l-1,1h-3l-1,1h-3l-1,1h-4l-1,1h-3l-1,1h-3l-1,1h-4l-1,1h-4l-1,1h-6l-1,1h-4l-1,1h-6l-1,1h-1Z"/>
<path class="sp" d="M489,1000h-11l-1,-1h-15l-1,-1h-10l-1,-1h-8l-1,-1h-7l-1,-1h-6l-1,-1h-6l-1,-1h-5l-1,-1h-4l-1,-1M679,967h-1l-1,1h-2l-1,1h-2l-1,1h-1l-1,1h-2l-1,1h-2l-1,1h-1l-1,1h-3l-1,1h-2l-1,1h-2l-1,1h-2l-1,1h-2l-1,1h-3l-1,1h-2l-1,1h-2l-1,1h-3l-1,1h-3l-1,1h-3l-1,1h-3l-1,1h-3l-1,1h-4l-1,1h-3l-1,1h-3l-1,1h-4l-1,1h-4l-1,1h-6l-1,1h-4l-1,1h-6l-1,1h-2"/>
<path class="sl" d="M413,972h4l1,1h3l1,1h1v1h2v3h1l-2,1h-2l-1,-1h-2l-1,-1h1h-1h1h-1l-1,-1h-1l-1,-1h-3v-1h-3v-1h-2l-2,-1h-1v-2h6l1,1h1v1ZM418,980h3l1,1h1h-3v1h-4v-1h-1h1l1,1v-2h-2v-1h-1h3ZM322,957l1,1v-1h1l4,2h2l3,1h1l1,1h2l1,1h2l3,2h3v1h1l2,1h1l1,1v1h-3v-1h1h-1v-1h-1l1,1h-2v-1h-1v-1l-1,1h-1v-1h-1l1,1l2,1h-1h2l1,1h-3v-1h-1l-1,-1h-1h1h-1l-1,-1h-2v-1l-1,-1v-1v1h1v-1h-5l-1,-1v-1h-2l1,1h-2l-1,-1h-2l-1,-1h-2l-1,-1h-1l-2,-2h2ZM361,980h1l-1,-1h-1h1l1,1h-1v-1h-1h1l1,1l-1,-1h-1h2l1,1h2v1h2l1,1h-1l-3,-1l-1,-1l1,1l-1,-1h-2v-1ZM496,1000h1ZM557,997h1ZM433,971h-1v-1l1,1h1h-3ZM427,970l-3,1h-1l1,-1h2ZM410,982h-2l-1,-1h-3v-1h-2l-3,-1v-1h1l1,1h1l2,1h1l1,1h4ZM287,930h1h-1h2v1h1h-1l1,1h-1h1h-1v-1h-2v-1h-1l-1,-1h1v1ZM283,925h2l-1,1v1l-2,-2ZM271,921h1v1h1v1h-1h1h-1l-1,-1ZM287,936h1h-1h1v1h1v1h-1v-1h-1l-1,-1h-1v-1h1v1ZM287,935v1l-1,-1h-1v-1h-1h2v1ZM309,950v1h2v1h-1v-1h-2l-1,-1h-1l-2,-2h-1l-1,-1h1v1h1l1,1h2v1h1ZM334,964h2l1,1h1l1,1h-2l-1,-1h-1v-1h1h-2v-1ZM327,962h2l1,1h1h-3v-1ZM355,970l1,1h3v1h-2l-1,-1h-3v-1h1ZM364,979l-2,-1h-3v-1v1h4v1ZM553,997h1ZM704,941v-1h2v1h-1ZM524,929h-1l-1,-1l1,-1h1v1h1ZM431,932h-2l1,-1h1ZM438,931h-1l1,-1h1l1,1ZM414,981h-4v-1h2l1,1ZM409,980v1h-1l-1,-1h1ZM269,916h-1l1,-1ZM285,927h1h-2v-1h1ZM292,932h-1v-1h-1h1ZM282,925v1l-1,-1ZM286,929h1ZM329,954h-1l-1,-1h-3v-1h1l1,1h2ZM274,926h1v1l-1,-1v1l-1,-1ZM327,960h-3v-1h1ZM363,980h1h-1l-1,-1h-1h1ZM379,985h-1ZM501,998h1v1h-1l-1,-1ZM499,999h1ZM699,939v1h-2l1,-1ZM700,943h-1l1,-1ZM697,943v-1h1h-1ZM707,942l1,-1h1v-1v1h-1ZM697,936v-1h1v1ZM681,936h-1l1,-1h1ZM683,936v-1h1h-1ZM682,934h1ZM621,947h-1h1v-1ZM616,947h1ZM633,943v-1h1l1,-1v1h-1v1ZM599,916h-1h2ZM493,926v1l-1,-1h-1l1,-1h2ZM456,930h-2l1,-1h1ZM441,934h-1v-1v1ZM450,929v1v-1h-1v-1h1ZM441,932h1v2h-1v-1h-1l-2,-1h2ZM460,930h-1v-1h-1h2ZM412,949l2,1l1,1h1l-1,1v-1h-2v-1h-1l-1,1v-1h1v-1h-1v-1ZM415,943v1v-1h-1ZM421,940h-1ZM431,971h-1v-1v1ZM271,915v1v-1h-1ZM332,954h-1ZM322,950h-1ZM338,956h-1ZM341,957h-1ZM274,925h-1v-1ZM277,928h-1ZM284,932h-1l-1,-1h1ZM284,933v1ZM290,938l-1,-1ZM276,930l-1,-1h1ZM296,943h1h-2v-1h-1h1Z"/>
<path class="sl" d="M299,945h1h-2v-1v1ZM304,948l-1,-1ZM311,951h-1v-1ZM331,961h1v1h1h-1ZM357,971h-1v-1h-1h1ZM364,979v1ZM401,990h2v1h1h-1l-1,-1Z"/>
<path class="sp" d="M405,991h-2l-1,-1h-1"/>
<path class="sl" d="M489,1000h1ZM496,999h1Z"/>
<path class="sw" d="M462,89h1l-1,-1ZM636,509v-1h-1v1ZM637,509v-1h-1v1ZM777,220v-1ZM669,111h-1ZM805,139l-1,-1h-1h1v1ZM807,140v-1ZM803,139h-1ZM798,133v-1ZM673,114l-1,-1v1Z"/>
<path class="sh" d="M541,554h1l2,-1h10v1h1l1,2h-4l-2,2l-1,-1h-1l-2,2h-1l-2,2h-1l-2,-4h-2l-3,1h-2l-4,1h-4l-2,1h-2v5l-1,3v23h-8v50l-1,5h-2l-1,1v1h-2v2h-2l-1,-1h-2l-2,1l-2,-1h-3l-1,-1h-1v-1l-1,-1l1,-1l-1,-1h-1v-1l-1,-1l-2,2v2h-1l-1,1h-2l-2,-3h-1l-4,-7l-1,-1v-2l-1,-2v-3l-2,-1v-3l-1,-2v-8l-2,-2l-1,-3v-7l-1,-2v-2h1v-4l-5,-5v-2l-1,-1l-3,-5l-1,-3l-2,-3l-1,-1l-5,-10l-3,-3v-1l-1,-1l-2,-3v-6h1l1,-1h1l1,1h1v-1h4v-1h1l1,-1h2l2,2h1l2,2h38l3,3h4l3,1h7l1,1h6l3,-1h5l2,-1l4,-1Z"/>
<path class="sw" d="M498,28h-4l-1,-1l-1,1v-1h-1h6v1ZM547,24v-1h1v1v-1h2v-1h1l1,1h3v1h4v1h2v1h-1h1h-1v1h1h-7v-1h-2v-1h-2v-1h-1ZM612,383v1h-1h1v3h-1v2h-2v1h-2l-1,2v1l-1,1h-1v-2h-1l1,-1v-1l1,-1v-1h1l1,-1h1v-1l2,-1l1,-1v-1ZM468,292v1h-2l-1,1h-1v-1l1,-1v-1h3ZM640,529v1l-2,-2v-1h-1v-1v1h-1v1h-1v-1h-1v-2l1,-1v-1l-1,-1h-1v-7l-1,-1v-2h-1v-3l1,-1v-1l2,-2l-1,-2v-8h1v-1h-1v-1l-1,-1v-1l-1,-1v-3h1v-1l2,2v1l2,1v6h1v3l-1,1v1h1v2h1l1,1v3l-1,1v1h-1v1h-1h1v1l-1,1l1,2v9l2,2v2ZM636,509v-1h-1v1ZM636,509h1v-1h-1ZM640,405l1,2h-3v2h-1v-1h-2l-1,1v1l1,1v2h-1l-1,1v2h-1l1,1h-2v1h-1v1l-1,1v-1l-1,1h1v1h1h-2l-1,1h3v1l2,-1v1l-2,1l-1,1v1l-2,-1l-1,-1h-1l-1,1v2l1,1h-1l-1,1v-1h1v-3h-2v-1l-1,1l-2,-2l-1,1v1h-1l-1,1h1v1h-1v-1h-1v1v-2h-1l1,-1v-1h-1v-3l1,-4v-1l1,-2v-1h-1v-2h-1l1,-2l2,-2v-1h-1v-1h2l1,-1h3v-2l1,1v1l1,-1v1h1v-1h1l1,-2h1v1h1v1h1l1,-1v1h2v1l1,1v1h1v1h1v1h1v-1h1ZM617,423h-1l-1,-1v2h1ZM619,407l1,-1h-2v-1h-1l1,1h1v1h-1v1ZM627,422l-1,-1h-1v-1h-1v2h2ZM628,402h1l-1,-1h-1v1l1,1ZM480,29h-1v1h-5v1h-2l1,-1v-1v1v-1h3v-1h4ZM658,308l-1,-1h-2v-2l1,-1h4v3h-1v2h-1ZM20,633v-1h-1v-1v1v-3l-1,-1v-1h1v3h1v2h1v2l-1,-1v-1ZM574,24v1h-1v1h-1l-1,-1h-1h1h-1v-1h-3l-1,-1h-1v-1h-2l-1,-1l1,1h2v-1h-1h1v1h3l-1,-1h-4v-1h1l1,1h3l1,1v1h2v1h2ZM568,23v-1ZM434,52h-1l-2,1h-2v-1h2v-1h-1h1v-1h1v1h1l-1,1h1ZM433,52h-2l-1,1h2ZM591,35l-1,-1v1h-1v-1h-2l-2,-1h-1l-1,-1h1v1h2v-1h1h-2v-1h-1h3v1l-2,-1l1,1h1l1,1h2l2,1h-1l1,1l-1,-1ZM818,132v1h-2v-1l-2,-1h-1l-1,-1h4l1,1h1ZM640,532l-1,1v-2h1ZM806,109l1,1l-2,-1l-1,-1h-1v-1h-1l-1,-1v-1h-1l-2,-2v-1h-1l-1,-1h-1v-1h-1l-1,-1l1,1v-1v1h1v1l3,1v1h1h-1v1h1l2,2h1v1h1l1,1h1ZM656,384v1h-1l-1,-3l-2,-2v-1l-1,-1v-1l-1,-1v-1h-1v-7l1,-2v1h1v-1l1,2v8l2,4l1,1h1v1ZM506,44v-1h1ZM506,43v1h-1h1ZM124,825v-1h-1v-1v1h1ZM807,105h-1v-1h-1h1v1h1l1,1v1h1h-1h1l-1,-1h-1ZM591,477v1l-1,1l-1,2l-2,2h-1v1h-2v-2l1,-1l2,-3l2,-2h1ZM987,388v-2l-1,-1v-3l-1,-1v-1v1l1,1v3h1v2ZM895,194v-1l1,1Z"/>
<path class="sr" d="M895,193l1,1"/>
<path class="sw" d="M649,23h-1ZM674,153v-1h-1l-1,-2v-1l4,4h-1ZM680,160v1l-1,-1h-1l-1,-1v-2h1l1,2h1ZM625,161v3h-1v-3ZM541,32h3v1h1h-2v-1h-1ZM383,317l-1,1v3h-1v-4h-1l1,-1v-1h2l-1,1h1ZM681,130v1h1l1,1v1h-1l-1,1v-1h-1l-2,-2v-1l-2,-2h1v-1h-1h2l1,1v2h1ZM737,116v1h-2l-1,-1h-2v-3h1l3,3ZM745,69h1v1v-1l1,1h1h-1h1v1h1h-1l-1,-1h-1ZM813,118l-2,-1l-1,-1h-1l-1,-1v-1h-1h1l2,2h1v1ZM598,499l-2,2h-2v-2l2,-2h2v1ZM531,7h-1l1,1h-3v-1h-1h3ZM531,16v-1h2v1h1h-2ZM542,32h-1v-1h-1l-1,-1h-1l1,-1h2l1,1v1l-1,1ZM593,416v1l1,1v2l-2,2h-1l-1,1v-4l1,-1v-2h1ZM595,408h-1v-2l1,-1v-1h1l1,-1h1l1,1v1l-3,3ZM76,737v1h-1v-2h-1h1v-1v1h1ZM583,67h-2v-1h-3v-1h-1l-2,-1h1l1,1h4l1,1ZM180,877l1,1v1h1v1v-1v1h1h-1l-2,-2h-1v-1l1,1ZM909,224l-1,-1v-1l1,1v-1v1v-1v1h1v1ZM601,118h1v2l-1,-1h-2v-3l1,1ZM538,24h-1h2ZM543,19h1h-1h2v1h-1ZM543,20h1ZM650,23v1h1ZM634,18v1v-1h-1ZM636,19h-1ZM634,18h-1ZM563,19h1h-1l1,1h-1v-1h-2v-1h-1h2ZM558,19h1h-2ZM548,20v-1h1ZM545,18v1h1l1,1h-1v-1h-3l-1,-1h-1h3ZM544,13h1h-2v-1h1ZM550,14h1h-4v-1h-1h2l1,1ZM847,146h-1v-1h-1v-1v1h1ZM550,22h1ZM559,32v1l-1,-1h-1h3v1v-1ZM901,214l1,1h-1v-1h-1v-1h-1v-1l1,1h1ZM821,117l1,1h1h-1l-1,-1h-1v-1l-1,-1v1h1v1h1l-1,-1ZM431,78h-4l-1,1l2,-1l1,-1l1,1ZM378,48h1l-1,1h-1ZM484,29v1h-1v1h-1v1h-2v1v-2h1l1,-1h1v-1ZM663,125h-1v-1h-4v-1h1v-1h5l-1,1v1h1v1ZM875,176l-1,-1h1ZM483,18h1v1v-1h-2ZM620,473h-1l-2,-1h-2v-1l-1,-1v-1h2l3,3ZM972,335l-1,-1v-1v1h1ZM535,22h-1h1h-3v-1h1h-1h2v1ZM491,28h-1ZM532,18v1h-1v-1h-1h1ZM580,28h3v1v-1h-2ZM23,431h-1v1h1h-1v1v-1v2h-1v-1l1,-1v-2h1ZM648,436v-1h1v-1v3h-1ZM666,351h1v1h-1v2l-1,1h-1v-1h1v-3ZM499,9h-2h3ZM495,75h-1l1,-1h1ZM118,818h1h-1v-1ZM177,875h-1h1h-1l-1,-1h2ZM496,409v-1h-1v-1h-1v-1h3v3ZM547,17h1l1,1h-1v-1v1h1h-1h1h-1ZM886,208h-1v-1h-1h1ZM897,215h1h-1l1,1v1v-1h-1v-2l-1,-1l1,1ZM764,80h1v1l-1,-1h-1v-1ZM746,74h-1l-1,-1h-1v-1l1,1h1v1ZM749,69l1,1h-1ZM583,25h1v1h-1ZM536,12h1h-2ZM551,10h2v1h-1v-1ZM548,12h-3v-1h2v1ZM917,237v-1v1h-1v-1l1,1v-1h-1v-1l-1,-1v1v-1l1,1v1h1v1h1ZM724,60h-1ZM713,58h-1ZM551,13h1v1h-2v-1h1h-1h1h-1ZM535,31v1h-1v-1ZM478,17h1ZM670,114h-1v-1h1v1h2v1h2v1h-2v-1h-1Z"/>
<path class="sw" d="M184,112h1h-1v1h-1l-3,3h-1v1l3,-3h1v-1h1ZM888,191h1h-1v-1h-1h1ZM709,175h-2l-1,-1h-3v-1h1l1,1h3ZM179,117h-1v1v-1ZM816,113h1h-1v-1h-1l-1,-1l1,1h1ZM896,215v1v-1h-1v1v-1h-1v-1h1v1ZM699,312h-1l1,-1ZM66,678v1h1v2l1,1h-1h1v2l-1,-1v-1h-1v-1h1v-1h-1v-2l-1,-1v-2h-1v-1h1v2l1,1ZM587,546v1h-1v1h-1v-1h-2v1h-3v2h-2v1h-2v2h-1v1h-2v1l-1,1v1h-1v1v-2l1,-1h1v-1h1v-1h-1h1v-1l3,-3h1v-1h-1h1v-1v1h2v-1h1v-1h3v-1h1v1h1ZM629,390h-2v1h-1h1v1h1v1h-2l-2,-2v1h-2v-1h-1h1l1,-1h5l1,-1ZM589,30h3v1h-1l-1,-1h-2v-1ZM449,72h-3l-1,-1h1l1,1h1ZM520,22h-2v1h-1h1v-1h1ZM625,165h-1ZM624,155h-1v-1h1ZM903,205v-1h-1v-1v1h1ZM902,204h1l-1,-1h-1h1ZM805,131h-2v-1h-1v-1v1h2v1ZM883,211h-1v-1h-1h1v1ZM883,211v1v-1l-1,-1h1ZM345,349l-1,1v2h-2v-1h-1l-1,-1h-1l-1,-1h-1v-1l1,1h1v-1l1,1h1v1h1v-2h1l1,-1h-1h1h-1v-2h1v-1l-1,-1v-1h-1v1v-1l-1,1v-1h2l-1,-1h-1l-1,1h-1v-1h3v-2h-1v-1h-1v1v-1h-1v-1l-1,1h-1h1v-1l-2,-2v-1h-3v-1h-2v1h-1l1,-1h3v-1h1v1l1,1h1v-1v1v-1v2l2,2h1l1,-1v1h-1h1v1h1v2h1v-1h1v-3l1,-1h-1v-2h1v-1v1h-1v2h2l-1,1v2h-1v1h1v8l-1,1ZM344,349v-1h-1v1ZM726,99v-2l-1,-1h1l-1,-1l1,1v-1h1v1h-1l1,1h-1l2,2v1l1,1v1h-1l-1,-2ZM733,96v-1l-1,-1v1l-2,-1h-2v-1h1l1,1v-1h1l-2,-1l2,1l1,1h2v1l1,1h-1ZM729,95l-2,-1h1ZM798,110v-1l1,1h1v1l-1,-1v1h1h-3v-1h-1l-1,-1h-2v-1h-3v-1h-2v-1v1h1h-2l1,1v1h-1l1,1h1v1l1,1h1v1h1h-1l1,1h-1v-1h-1v-1l-2,-1h-1v-1h-1v-1h-1h1h-1v-1l-1,-1h1l-1,-1h1v-1h-1h2v1h3v1h2v1h2l1,1v-1v1h2l1,1h1h-1v-1v1v-1h1h-1h1ZM605,477l-1,-1v1h-1v-1h-1l2,-2v-1l-2,-2h-1v-4l-1,-1v-1l-1,-1h-1v-1h-1l-1,-2h-1v-2h-1v-1l-1,-2v-1l-1,-1v-1h1l1,-1v-1l-2,-4v-6h1v-3l-1,2l-1,-1h1v-8h2v4l1,2v2h1v1h1l-1,1v4h1l1,1v2l-1,1v1h1v1l1,1v2h-2v3h1l1,1v1v-1h1l2,2v1l1,1h1v2h-1v1l1,1v2l1,1l1,2v1l1,1v2h1v2h1v2h-1v-1v1h-1v-1ZM101,737h1v2h-1l1,1v3l2,2h-1v-1l-1,-1v-1h-1v-4h-1v-3l-1,-1h1v1l1,1ZM602,85l-2,-1v-1h-2v-1h-1v-1h-1v1v-1l-1,1v-1h-3v-1h-1h5v1h-1h1v-1h1v1h1v1h1l2,2h1v1h1ZM545,21v1h1h-2v1l-1,-1h-1h1h-1v1h-1h2l-1,1h-3v-1h1h-3l-1,-1h3l1,1v-1h2l-1,-1h-3v-1h-2v-1h1h-3v-1h-1v-1l1,1h1h-1l1,1h4v1h1h-2v-1l-1,1h1v1h3v-1v1h2v-1h3v1h-1h1ZM537,19h1ZM538,23h-1ZM539,23v-1h-1v1h-1h1ZM541,23v-1h-1h1h-1v1h2ZM545,22v-1h-3l1,1h1Z"/>
<path class="sw" d="M806,109l1,1l-2,-1l-1,-1h-1v-1h-1l-1,-1v-1h-1l-2,-2v-1h-1l-1,-1h-1v-1h-1l-1,-1l1,1v-1v1h1v1l3,1v1h1h-1v1h1l2,2h1v1h1l1,1h1ZM156,855v2l2,2h1v1v-1h-1l-2,-2h1h-1v-1h-1v-1ZM534,19h-1h1v1h-1h1h-4v1h-1h1h-1v1h1v-1v1h-1h1h-1v1h3v1v-1h-2v1v-1h-2v-1h1h-1v-1v1l1,-1h-1h1h-1h1v-1h1h-1v-1h1h-1h1h-1v-1h-1v1h-1v-1h2l1,1h1h-1v1v-1l-1,1h3v-1h-1h1l1,1v-1h-1h1ZM543,14l1,1h1v-1l2,1h1h-5ZM598,74v1h-2l-1,-1h-3v1h-2v2h-1v-1h1v-2h6v-1l1,1ZM646,52h-1v-1h1v-1h-1v-1h1l-1,-1h-1h5l1,1h4l-1,-1h2v1v-1v1h-8v1l-1,-1v1h1v1h-1v1h1l1,1h3l-1,1h2v1v-1h-1v1h3l1,1h-3l-2,-2h-1v-1h-2ZM75,529l1,1l-1,1v2h-1v1h-1v1h-2v3h1v1v-1h-2v1l2,4v2l-1,1v-5h-1v8h-1v-1h-1v-2l1,-1v-1h-1v-1l1,1v-2h1l-1,-1v-1l1,1v-2h-1l-1,-1v-1l1,1v-1v1h1l-1,-1h1v-3l1,-1h2v-1l1,1v-4h1v-1l-1,-1h1v1ZM69,546v-1v3h1v-1ZM993,463v1v-1h-1v-1h1l-1,-2v-1v1l1,1v1ZM533,22h-1v-1v1ZM610,222h-2v1h-1v1h-2v1h-1v2h-1v1l-1,1h-1h1v-1l1,-1v-1l3,-3l-1,-1h1v1l2,-2h1l1,1h1l1,-1v-1l1,-1v-1h1v-2h-2v-1v1v-1h1v1l1,-1v-1h-1v-1h1v1l1,1h-1v1h1h-1l1,1v1l-1,1h1v1h-3v2h-1l-1,1ZM525,22h-1v1h-1h1h-1v-1h3ZM521,22l1,1h-1v-1h-1h1v-1h1h-1h1h-1v-1h1v1v-1h1v1h2v-1v1h-3v1ZM345,349l-1,1v2h-2v-1h-1l-1,-1h-1l-1,-1h-1v-1l1,1h1v-1l1,1h1v1h1v-2h1l1,-1h-1h1h-1v-2h1v-1l-1,-1v-1h-1v1v-1l-1,1v-1h2l-1,-1h-1l-1,1h-1v-1h3v-2h-1v-1h-1v1v-1h-1v-1l-1,1h-1h1v-1l-2,-2v-1h-3v-1h-2v1h-1l1,-1h3v-1h1v1l1,1h1v-1v1v-1v2l2,2h1l1,-1v1h-1h1v1h1v2h1v-1h1v-3l1,-1h-1v-2h1v-1v1h-1v2h2l-1,1v2h-1v1h1v8l-1,1ZM344,349v-1h-1v1ZM498,12h-1ZM498,12h2v1h-1v-1ZM489,17v-1v1v-1h-2v-1h-1h2v1h1l1,1ZM481,15v-1l1,1h-2ZM677,156h-1l-1,-1h2ZM505,97h1v1l-1,-1h-1ZM37,501v-4l1,1v4h1v5h1v1h-1v-2l-1,-2v-1h-1v-1ZM77,616h-1v1l1,1l-1,-1v1h-1v-1h1v-1h-1l1,1h-1v-3h-1v1v-2l1,1v1v-1l1,1v1v-1v1ZM60,639v-1h-1h1v-3l-1,-2v-1v1l1,1v1v-2h1v1l-1,1v1l1,1v1h-1l1,1ZM121,821v-1ZM149,846h1l1,1h-1v-1l-1,-1h-1h1v1v-1ZM445,72h-1v-1h1ZM574,23l-1,-1h1ZM586,27h-1h2v1h-1ZM549,16h-1h2ZM546,10h-1ZM786,128l1,1h1v1h-1v-1ZM805,104l1,1h-1ZM896,204h1v1l-1,-1v-1h-1v-1ZM895,203l1,1v1v-1h-1ZM859,196h-1v-1h-1v-1l1,1ZM906,216h-1v-1ZM896,211v-1v1h1ZM859,185l2,2h1h-1l-1,-1ZM745,81h2v1h-1v-1v1l1,1h1h-2v-1h-1v-1h1Z"/>
<path class="sw" d="M719,69v-1l1,1ZM473,21h-1ZM473,20h1h-1v1h-1h1Z"/>
<path class="sb" d="M326,133v-3l1,-1h1v-1h1l1,-1h1v-1l-1,1l-1,-2h1v-1l1,-1h1v-1h1v-1h-1v-2h-1v-1h3l1,-1h1v-1l-1,-1h1l1,-1v-1h1v-3h1l1,-1h1l1,-1h1l1,-1h-2v-1l-1,-1v1h-4v1l-1,-1l-1,1h-2v-1h1h-1v-1v1h-3v1M394,99h-2v-1M403,99h-1l-1,-1v1h-7v-1h-4l-2,-1v1h-9v-1h-3v-1h-2v-1M432,64h-2v1h-1v-1M431,62h-2v2h-4v-1h-1v-1h-1v1h-3l1,-1l-1,-1h-1l-1,1v-1h-1v-1h-3v-1M432,59h-2v-1h1v-1h-3v-1l-1,1h-1v-1l-1,1h-2M436,72l1,-1v-1l2,-2v-1h2v-1h-3l-1,-1v1h-2v-1h-1v1h-1v-1l-1,-1v-1h1h-1l-1,-1l1,-1h1v-1h-1h1h-1v-2h-1h1l2,-2h-1v-1h3l1,-1h1h-1h1v-1h1v-1h-1v-1h2l1,-1v-1M431,80h-1v-2h-3v1h-1v-2h1l1,-1h1l2,-2h1v-1h4v-1h5l1,-1l1,1h4M447,74v-1M452,75h-3l-1,-1h-1v-1h1v-1h-1h3l1,1h-1h2l1,-1h3v1l1,-1h3l3,-1h3v1h2v-1h-1l1,-1h-1v-1h1l1,-1h2v-1h2v-1M486,74h2v-2h1v-1h-1l1,-1l1,1h2v-1h-1h1v-1M491,67v-1h-7l-1,-1h-3v1h-2v1h-4v-1h-2v-1h-2l-1,-1h-2v-1h-1v-2h-1v-1h-1h2l1,-1h4l1,-1h3l1,-1h4M521,68h-3v-1h-7v1h-1l-1,1h-1l-1,-1h-1v1h-4v1h-8l-1,-1h-1l-1,-1v-2h4l1,-1h2v-1l1,-1h3M523,65l-2,-1h-2l-1,-1h-3l-1,1h-1v-1h-3v1h-3v-1h-1v-1h-1v1h-3v-1h-1l-1,-1h-4v-1h-1h1v-1l-1,1h-1l-1,-1h-2l1,1h-3l-1,-1h-1h1v-1h1h-6v-1h-3l1,-1v-1h-1v-1h-1v-1h1v-1h-1v-2h-1l-1,-1h1l1,-1l-1,-1v-1M522,44h-16v-1M528,55l-1,-1h1v-1l-1,-1h-2l1,-1l2,-1h1l-1,-1v-1l-2,-1v-1M526,70h-1v-1h-2v-1h-2v-1l2,-2h1v-2l2,-2h1v-1h2v-1h2v-1h-1h1v-1h-1l-1,-1h-1v-2h1l1,1v-1h1l1,-1h8l2,1h5v1h8v1h1v-1h2v1h6v1h2v-1h-1v-1l1,-1h5M547,69l1,-1h6v1h3v1h3l1,1h2v1h-1v1h2v1h1v1h1l1,1h1v1l2,1h-5v-1l-1,1v-1h-1l-1,1h1v1l-2,2v1h-2M511,78h3v-1h3v-2h1v-1h1l1,-1v-1h1v-1h2v-1l1,1v-1h2l1,-1l2,1h7l1,1h2l2,-1h4v-1h4v1h1l2,2h1l3,3h1v1h1v4l1,1h-1h1v1l1,1h4l1,-1h1l1,1h1M526,87h1l1,1l-1,1h7l2,1l1,-1l3,1h6l1,-1h1l2,-1h4l2,1h3l1,1h3M431,91v-1h1v-1h1h-3v-1h-2v-1l1,-1v-1h-1l-1,-1h3v-1h1l-1,-1v-1h-1l1,-1h6l1,-1h1v-1h1v-1h1v2h1l1,1h1v-1l1,-1h1v-1h1v1h2v-1h1v1h1v-1h-1h1v-1h1v1h1v-2h4l1,-1h5l2,2h7M471,81h1v-1h-2v-2h1h-2v-1h2v-1h3l1,1h2v-1h5v-1h3l1,-1h1v1l1,1M470,81h5l1,-1l1,1h3v-1h1h-1l2,-1h1v-1h-1h1v-1h4l-1,-1h4v1h1v1h2v1h4l2,1h1v-1h3M503,84h1v-2h1h-1l-1,-1h1h-1v-1h-1v-1h1v-1h8v1h2l1,1v1h1l1,1h2v2h1h-1h1l1,1h2v1l1,-1h3v1v-1l-1,1l1,1v1h-1l-1,1l1,1v1h2v1h2l-1,1h-1v1h-2v1l1,1l-1,1"/>
<path class="sb" d="M520,97h4v-1v1h1l1,1h2l1,1v3M494,93h1h-1l-1,-1h-1v-1l-1,-1h-1l-1,-1h-1l-2,-2v-1h-1v-1h-1l-1,-1v-2h2l1,1h1v-1h6l1,1l1,-1l1,1h1v-1l1,1h4v1h3v1h-1v2h2l1,1h-2l1,1v1h-2M512,94h1v-1h1v-1h-1h2l1,1h1l1,1h1l1,1h1l-1,1v1h-2v1l-1,-1l-2,1v1h-2M516,104h6l1,-1h5v-1h6l1,-1h5v1h3l1,1h1l1,-1h4v-1h-1v-1h2M510,95v1h1l1,1h1l1,1v1h-1v3l2,2h1v1h1v1h-2v2h-1l-1,1h-1l1,1h-1v1h-1v-1h-1M500,95v-2h1v-1h1v-1h1v1v-2h1v1h2l1,1h1v1h3l1,1h-2v1l-1,1h-1v-1h-1v1h-1l-1,1v1h1v1M550,106v-1h1l1,-1h-1v-1l2,-1v-1h-1l-1,-1h1v-1h6v1l1,-1h3M547,38h-1v1h-2v1v-1h-3v1h-1M512,38h2l1,-1h12v1l1,-1h3l1,1h3l1,1h2l1,1h1v1h-1h1v1h-3v1h-1h1v1h-1l1,1h-1l-1,-1v1h-3v1h-6v-1h-1l-1,-1h-3v-1l1,-1h-1l-1,-1h-6M541,34h-4l-1,-1h-2l-1,-1h-6M80,726h1v2l1,1v1l1,1v1h1v2l1,1v1h1v2h1v2l1,1v1h1v1l1,1M68,685l4,8v7h1v2l-1,-1v2h-1v1v-1l-1,1h-2l-1,1l-1,-1v-3h-1v-2l-1,-1v-3h-1v-3l-1,-1v-2l-2,-2v-1h-2l-2,-2h-1v-1h-1l-2,-2v1l-1,-1h-1v-1h-1l-1,-1v-1h-1v-1h-1v-2l-2,-1v-2h-1v-1M40,683l1,1l1,2l1,4l1,2l1,1v4l1,1v1l1,1v2l1,1v1l1,2l1,1v1l2,2v2l1,1v1l1,1v1l1,1v2h1h-1l1,1l1,2v1l1,1v1l1,1v1l1,1v2l1,1v1l1,1l1,2v1l1,1v1l1,1l1,2l1,1v1h1v2h1v2l2,2v2h1v2h1v1l2,2v1h1v2h1v1h1v1l2,2v1h1v2h1v1v-1v1h1v1l1,1v1l3,3v1l1,1v1l1,1v1h1v1l1,1v1h1v1l2,2v1l2,2v1h1v1l1,1v1l1,1v1h1v1l2,2v1h1l1,1v1l1,1h1v1l2,2v1h1v1h1v2h1v1l3,3v1h1v1v-1v1l3,3v1h1v1l1,1v1h1v1h1l1,1l1,2h1l1,2l2,2h1v1l1,1v1h1v1h1v1l2,2h1v1h1v1h1v1h1l1,1v1h1v1h1v1h1v1h2v1l1,1v1l1,1v-1l2,2h1v1l10,10h1v1h1v1l4,4h1v1h1l1,1v1h1l1,1v1h1v1h1v1h1v1h1v1h1v1h1l3,3h1v1h1l1,1h1v1h1h-1v-1l1,1h1l2,2l2,1v1h1l1,1h1v1v-2h1v-1h2v1M43,647v-1l-4,-4h-1v1l-1,2v2l-1,1v2l1,2v3l2,4v2l2,6l2,4h-1v-1h-1v5l1,1v1l1,1v1v-1l-2,-2v-2h-1l-1,1l-1,-1v-1v3h1v3l1,1v4l-1,-1v-1l-1,-2v-1l-1,-1v-1l-1,-1v-1l-1,-1v-1l-1,-2v-1h-1v-2l-1,-1v-2h-1v-2l-1,-1v-1l-1,-2v-2l-1,-1v-1h-1v-2l-1,-1v-2l-1,-1v-2l-1,-1v-1l-1,-1M9,590l1,1v3l1,1v2l1,1v3l1,1v4l1,3v2h1v3l1,1v4l1,1v3l1,2v1l1,2v1l1,3v1h1v4h1v4l1,1v2l1,1v3l1,1v3M2,534l-1,-1v-14h-1v-1v3M2,482v-25l1,-1v-10l1,-1v-3l-1,1v1v-2l1,-2v-2M11,437v-3l-1,-2l1,-1v-5l1,-1v-2h1v-7l1,-1v-2l1,-1v-4M17,458v-4h-1v-7h-1v-8l1,-1v-4l1,-1v-2h1h-1v-1l1,-1v-1"/>
<path class="sb" d="M22,451v-1h1v-7l1,-1v-5l-1,-1l1,-1h-1v-2l1,-1v-6l1,-1M105,746h-1l-1,-1l-1,-3l-1,-1v-3h-1l-1,-1h-1v-1l-2,-2h-1l-2,-2h-1v-1h-1l-1,-1v1v-1h-1v-1h-1l-1,-1v1l1,1h-1l-1,-2l-4,-4h-1v1l1,1h-2v-3l-1,-1v-3l-1,-2v-2l-1,-1v-4h-1v-1h1l-1,-1v-6h-1v-1h1v-6l-1,-1v-1h-1v-2l-1,-1v-1l-1,-1v-1l-2,-2v-1h-1v1h-1v-3h-1v-1l-1,-1l-1,-3v-2l-1,-1v-1l-2,-2v3h-1v-1l-1,-1v-1h-1v-2l-1,-1v-1h-1v-2l-1,-1v-1h-1v-2h-2v-1v2h-1v1v-1h-1v1l-1,-1v1l-1,-1v-2l-1,-1v-2h-1v-2l-1,-1v-2l-1,-1v-1l-1,-1v-1l-1,-1v-3h-1v-3l-1,-2v-3l-1,-1v-2l-1,-2v-1l-2,-4v-1h-1v-1h-1l-1,-2v-1l-1,-2v-3h-1v1l-1,1h-1l-1,1v-2l-1,-2v-1l-1,-2v-1l-1,-1l-1,-5v-2l-1,-1v-3l-2,-2l-1,1h-1v-2h-1v-1h-1v-1l-1,-1v1v-1h-1v1h-1v-2l-1,-1v-2h-1h1h-1v-3l-1,-1v-4l-1,-1v-5l-1,-1v-1v1l-1,1v6l1,2v6l-1,1v-1l-1,-2v-4l-1,-1v-1v2l1,1v2l-1,-1v-3l-1,-2v-3M2,544v-6h-1v-4l1,1v-2l-1,-2v-21l-1,-1v-27h1v-1v1v-6l1,-1v8l1,-1v-1v1v-4h1v-6l1,-1v-18h1v-1v2l1,1v-6h1v-2l1,-1v-2h1v-3h1v-5h1v4l-1,1v1h1v6l-1,1v17l1,1v1l1,-1v-3h1v-2h1v-3h1v-1v1h1v-1h1l1,-1v-2l-1,-1l1,-1v-1h1v-1l1,-1v1l1,-1v2h1l1,-1v-1h1v-1l1,1v-1h1v-3h1v-6h1v-2l1,-2v-3l1,-1M298,194v-2l1,-1v-2l1,-1v-1h1l1,-1v-1h1l2,-1l1,-1l2,-1h1l2,-2h5v-1h1v-1h3l2,-1h2l2,-2l2,-1v-1l2,-1h2l1,-1l2,-1l1,-1h3v-1h-1v-4h3l3,-1h1v-1l1,-1h7l1,-1h3v-1l1,-1h1v-1h-2v-1l-1,-1v-2l1,-2l-1,-1l1,-1v-3h1l-1,-1l1,-1h-1l-1,-1h-1v-1M433,168l-1,-1v-4l-1,-2v-3l-1,-1v-1h-1l-1,-1h-1l-1,-1v-1l-1,-2h-1l-1,-1h-1v-1l-1,-1v-4l2,-1l1,-1h1l2,-2v-1l1,-1v-6h1v-2h-1l2,-1v-1h1v-1M448,214l-1,-1l-2,-4v-1l-3,-1h-7v-1l-1,-1l-1,-2v-2l-1,-2l-2,-1l-1,-2v-1h1l1,-1l2,-1v-3l-1,-2l1,-2l1,-1v-11l-1,-1v-2l-2,-2h1l1,-1h2l2,-2v-1h1l1,-1v-1l-1,-1v-2l1,-1l2,-1l1,-1h1l1,-1h1l1,-1l2,-1h1v-1h-1l1,-1v-3M552,225v-16l-1,-2v-14l-1,-2v-13l-1,-2v-3l-1,-1v-2l-1,-2l1,-2v-1l1,-1l-1,-1v-1h-1v-1l1,-1h1v-1M545,243v-4h4l2,1h2v-12l-1,-3h22l3,1h25l1,-1h1v2h17l2,1h16l2,1h5M650,288v-3l-1,-1v-4l1,-1v-3h1v-2l1,-2l-1,-1v-2h1v-3h3l1,-1v-1h1l1,-1h3v-1h1v-1l1,-1h1M698,305l2,1h1v-2l1,1v-1h1M633,325v-4l1,-1v-5l1,-1h2l1,1l1,-1v-5l1,-1v-2l3,-3l1,-2v-1h4v-5l1,-1v-1l1,-2v-3l1,-1h1l1,1h1l1,-1v-1h1l1,1l1,2h1v-2l1,-2v-1h1l1,1h1l2,2h3l2,-1l1,1h3l1,1h4l1,1l4,2l8,8l1,2l1,1h1l1,1v1l1,1h1l-1,1l-2,4l-1,1v6h8v1h1"/>
<path class="sb" d="M744,346h-5l-8,-3l-6,-3l-5,-2l-7,-3l-3,-3h-1l-1,-1v-1l-2,-2v-1l-1,-1h-1v-1l-2,-2v-1l-1,-1v-1l2,-2l1,-2l1,-1v-1M698,375v-1h1l2,-1h5v-1l3,-3h2l2,-1h2l2,1h5l5,-5l2,-3l15,-15l1,-2l1,-1l4,-8v-4l-1,-4v-7M644,358v1h1l3,1v4l1,1v1l1,1h1l1,1h5l3,2l1,1l4,2l2,2l2,1h4l2,1h2l2,1l1,-1l1,-2h1l1,-1l4,-2h3l1,2h1v1h6l-1,1l-1,2l-2,3l-3,3v32l1,1l1,2l3,3v1M230,246l2,-1h1l2,-1h8l1,-1h1l1,-1v-2h1v-1h1v-1h1v-1h1v-2l1,-1v-1l1,-1v-1l1,-2v-1l3,-3h1l1,-1h1l2,-2v-1l1,-1h1v-1h1l1,-1h1v-1h1v-1h1v-1l1,-1v-2h1v-1l1,-1v-1l1,-1h1l3,-3v-1h1l1,-1v-2h2l1,-1h3l1,1h1l1,-1l1,1l1,-1h1v-1h2v-1h4v-2h1v-2h1l-1,1v2M228,250l1,-1v-1l1,-2h5l2,-1h4l2,-1h6l2,-1h6v-5l1,-1v-5l1,-1v-1h1l2,-1l1,-1h1l2,-1h1v-2h1v-3l1,-1v-3l1,-1v-3l1,-1v-3l1,-1v-1h5l1,-1h8l1,-1h8v-2l1,-2v-3l1,-1v-1h1l2,2h2l2,2h1l1,1h1l2,2h2l2,2h1l2,2h2l1,1l2,1M253,292h2v-1l1,-1v-2l2,-2h1v-1h1v1l2,2h1l2,-2h5l2,-1h2v-1l1,-1v1h7l2,-1h9l2,-1h7l2,-1l1,-2v-2l1,-2l-2,-2v-11l1,-2v-18l1,-2v-13l1,-2v-9l1,-1v-4h7l3,-1h3l2,1l3,3l5,2l2,2l4,2l2,2l3,1l2,2l4,2l5,3l2,2l5,2l1,1v2l1,1l2,1v1h1l1,1h3l1,1l2,1h3l1,1v3l-1,1v1l1,1h1l2,-1h2l3,-1M349,283v-1h6l1,-2l1,-1h7l3,-1h4v-1h3l1,1l1,-1l1,-2h1l1,-1v-1l1,-1v-1l1,-1l1,-2v-6l1,-2v-8l1,-2v-2h1l2,-1h3l6,-2h1l3,-3l3,-2l1,-1l5,-3l2,-2l3,-1l4,-3l4,-2l5,-3l8,-4l4,-3l5,-2l4,-2l4,1h4l5,1l4,4h1l6,-3M459,288l-1,-4l-1,-2h1l1,-2l2,-2l3,-4l1,-3l8,-6l2,-3v-3l1,-4v-7l1,-3v-5l1,-1l1,-2v-1l-2,-2h-1v-1l1,-1l-4,-4v-7l-1,-4l8,-3l3,1l3,2l4,1l8,4l4,1l8,4l3,2l4,1l16,8l4,1l8,4v10l1,4v15h-8l-1,1l1,2v1h-1v1h-1v1h-1v2h-1l-1,1v2h1v1l-1,1h-1l-1,1v3h1v2h-1l-2,2v1l-1,1h1v1h1l1,-1h1l1,1v1l1,2v2h1v4h1v1h2v3l-1,1M224,288v-1l1,-1v-1l1,-1v-1l1,-1h4l1,-1h3v-1h5l2,1v1l1,1h3v1l1,1v2h1l1,1v1l2,2h1v1h1v4h1v4h-1v1l1,1v2l1,-1h1v1l1,1v4h-1v1h1M221,306l2,-1h5l2,-2h4l1,1h5v1l-1,1h-5l-1,-1h-3v1h-2l-1,1h-1l-2,2h-4l-1,1M218,316h2l1,-1h1l1,-1h4l2,-2l2,-1h7l2,-1M229,326v-1l1,-1l1,-2l1,-1l2,-1l1,-1h2l2,-1v-3h-1v-1h2v-4h5v1h-1h3l1,1h2l1,-1h3l1,-1h2l-1,1v2l1,1l2,-2h1l1,1v1h1v-1l2,-2h2l1,1h2v-1h1l1,-1h1v-2h2v1h1v2l1,1l-1,1v1h1v1l1,1h1v1l-2,2v1h1v-1h1l1,1l-1,1v1l1,1v1l2,1v1M300,322v-2l1,-1v-2l1,-1v-1l1,-1v-4l1,-1h1l2,-1h1v-1h1v-1h1v-3l2,-1v-1l-1,-1v-1h1v-1h1l1,-1h1l2,1h2l1,-1v-3l2,1v-1h1v-2l1,-1l2,-1v-1h1l2,1h1l1,-3h2l4,-2l1,-1h1l2,-2h6l2,1h-1v4h1v2l1,1v1l1,1h2v1h1v1h1v1h-1v-1v1l-1,1l1,1l2,1l1,2h3l1,-1h1l1,1v1l-1,1v1l2,2"/>
<path class="sb" d="M240,339h2v-1l1,-1h1v-1l1,-1v-1h1v-2h1l1,-1l1,1l2,-1v-1h5l2,2v1l1,1v3h1v3l-1,1v2h1l1,-1v-1h1M252,356v-1l3,-3v-1l1,-1h1l1,-2h1v-1l1,-2l2,-2v-2h2v1l2,-1h1v1h1v8h1l1,1h1v-1h1v-1h1v-2h2v1M281,374v-6l1,-1v-3h1v-1l-1,-2h-2v-2h-1v-1h-3l-1,-1h-1v-1l2,-2v-6h-1l1,-1h1l1,-1v-1l1,-1v-2h-2l1,-2h4v-2h-1l-1,-1v-1l1,-1v-1h-1l1,-1v-1h-2v-5h1v-1h1l2,-2v-1h2v2h4l-1,-1h1l1,-1h1v-2h1v1h1v-2h1v2l1,1h-1v1h2l1,-1v-1h3l1,1h2v1l1,1v1h1l1,1h2v1l2,-2h2l1,-1h5l1,1h1v2h2M317,364h2v-2h1v-1l-1,-1h-1v-2l-1,-1v-1l-1,-2v-4l2,-2v-2l1,-1v-2l1,-1v-1l1,-1h1v-2h1l-1,-2v-4l-1,-1l1,-1v-3l-1,-1l1,-1v-1l-1,-1v-1h1v-1h-1l1,-1h-1v-4h1v-1v1l2,-1h10l2,-1h1v1l1,-1h1v1l1,-1h1v-1h3M352,354v-1h-1v-1h-1l-2,-2l-1,-2v-2h1v-3h-1v-1l1,-2v-4l1,-1l-3,-3l1,-1v-2l1,-1v-1l-1,-1h-1v1v-4h1v-4h-1l-2,-2h-1v-1h1v-3h2l2,1h2l2,-1M356,352h1v-2l-1,-1v-2l-1,-1h1v-15l1,-2l-2,-2v-6h-1l-4,-2v-1l1,-2v-2l1,-1h1v-1h1v-1h1l2,-2l1,1l2,-1h1l2,-1v-1l1,-1v-1h1l-1,-2l1,-1h2l1,-1h1l3,3v1h1l1,1v1M365,350v-2h1l-1,-1v-3l1,-2v-1l-1,-1v-6l1,-1v-5h3v-3h1v-1l1,-1v-1h1v-1h1v-1l1,-1l-1,-1l1,-1h1l1,-2l-1,-1v-3h-1l-1,-2v-1l2,-2l-1,-1l1,-1v-4l1,-1l2,-1v-2l1,-1l1,-3l2,-1l1,-1h5l1,-1h1l1,-1l5,2h2l2,2l1,2h1v1h2v-1h2l4,-2h2l3,2l3,1h1l2,1l4,-1l3,-2l1,-1h1l2,-1h10l3,1l1,1h3v-1l2,-1v-1h1l2,-1h1l1,-1h3l1,1l1,2l1,1M414,362v-1l1,-1v-1l1,-1l1,-2v-3l3,-3l1,-2h1l1,-1h1v-1l1,-1v-1h1l1,-1h1l1,1h1l2,-2l1,1h1l1,1v1h1v2h2l2,-2v-2h1l2,-2h-1v-2h1l1,-2v-1l3,-6l1,-1h1l2,-2v-2l1,-1v-2h1l1,-1h1v-4l1,-1l3,-6l2,-2v-1h2l2,-1l1,-1h1v-1l-1,-1l1,-1v-3h-1l-1,-1h-2v-2l-1,-4h2l2,1v1l3,3v2l1,1l1,2v4l-1,1v1l1,2v2l1,1v1l1,1l2,1l1,1h-5l-2,1h-2l-2,-1h-1l-3,3v1h1l2,2v1l4,2v1h1l2,2l3,6h1v1l-1,1M480,381l-1,-1v-4l-1,-1v-1h-2v-1l-6,-6h1v-1l-1,-1v-1l-2,-2h-1v-5l-1,-1v-5h-1v-2h1v-1h1l1,-1l1,-2l1,-1v-1l1,-1v-1l2,-2l1,-2h1l1,1h1l1,-1h1l1,-1h2v-1l1,-1v1h1v1l1,1h1v-1h2l1,-1l4,-2l1,1l1,-1h6v-1h1v-1l2,-1l1,-1v-2l-2,-1h1l1,-1h7l1,-1h3l2,-1l1,-1h1l1,-1v-1l3,-3h1l1,-1v-1h1l1,-1v-2l2,-1v-1h2l1,-1h3l7,7v1l1,2v4l-1,2v1h1l-1,1h1l1,1h4M577,358l-1,-1v-2l-1,-1v-1h-1l-2,-2h-2l-1,-1v-2h-1v-3h-1l-1,-1v-1h-1l-1,-1l-3,-2l-1,-1h-1l-1,-1v-2l-4,-4h-3l-1,-1h-1v-4h3v-2l1,-1v-2h1v-3l2,-1v-3h2l5,-1v2h1v1h1v1h1l3,4h2l2,-1l7,1v-1v1l2,2h7v-2h1l1,-1h3l1,-1v-2h1l2,-1l4,2l3,2h4l4,-4v-1h1v-2l4,-3v-1l-1,-1v-3l-2,-3l5,1v-2h4v5h-1l1,7l2,1l5,4v6h2v7l-1,1h-6l-1,1v2l-1,1v1h2l1,1h3l2,2v1h1v1l1,2h1l2,1v1l1,1h1v1l1,2v2l1,1v1l1,1v1h1l1,1l-5,5l-3,2l-1,2l-2,1"/>
<path class="sb" d="M425,382v1h13M423,393l1,-1v1h14v-11h17v1M436,435l1,-1v-1l2,-1h1l1,1h2v-1h-1v-1h1v-2h-2v-1l1,-1h-1v-1h-1v-5l1,1l2,-1l1,1l3,-1v-1h1v-1h-1v-1l1,-1h2v1l1,1v1l1,1h2l1,1l1,-1l2,-1l1,-1l1,1v2h2l1,-1l-1,-1l1,-1v-1l1,-1l1,-2h-1v-1h1v-4l-1,-1l1,-1v-3h-1l-1,-1h-1v-1h-2v-5l1,-1v-1h2l1,-1v-1h1v-1l-1,-1v-1l-1,-2h-5l-1,1h-3v-5l1,-2l2,-1h9l1,1h2v1h1l1,-1l1,1h4l2,2h1v-4h1v-1l1,-1v-1l1,-1v-3l1,-1h-1l1,-1v-2h2l2,-1h3l1,-1h1l2,1h3v1l1,-1h2l1,1M453,441h1l2,2v-1h2v-2l1,-1h3l1,-1h1l1,1v1h-1v1l1,1v1h2l6,-6h1v-1l1,-1h1l2,-2l2,-3v-11h1l1,-2l2,-2l1,-3l2,-2h1l1,-1l3,-2l2,-2l-1,-2l2,-4v-8l1,-3v-5l3,-5l2,-4v-10l2,-2l2,-3l4,-2h2l2,2l4,2v1l1,1h3l2,1h2l2,1l1,-1l2,1l4,1l1,-1l1,-2l1,-1v-1h8l2,-1h1l2,-1h9v-1l2,-2l2,1h1l3,1h4l1,1h1l1,-1h3v1l2,2h1v1h1v1h1l2,2h3l1,-1h2l1,1h2l2,-2h1l1,1h1v2h1l1,1l1,2l2,1h1v2h2l1,1M596,414v-6l1,-1v-5l1,-1v-1l1,-1v-4h1l2,-2h1l5,-4l2,-2v-2h1l-2,-2h-1v-1h-2v-2l1,-1v-1l-1,-1v-1l1,-1v-3l1,-1h3l1,1h1l2,-1l1,1v1h2l1,-1h4l1,-1h1l1,1h4l1,-2l2,-2l2,3v1l1,1h1v4l1,1v2h2v2h1v4l1,1v4h-1v1h-1v2h-1v1h-1l-1,2l-2,2v1l-1,1v1l-1,1v10M591,426l-1,-1v-3h1l1,-1v-3l1,-1v-1l1,-1h1l1,-1h2l1,1h1l3,-3h1M594,441v-3l-1,-2v-8h-1v-1l-1,-1v-1h3v1h5v-3h5M605,474v-1l-1,-1v-2l-1,-1l-1,-2v-2l-1,-2h-1v-1l-1,-1l-2,-1l-1,-2l-1,-1v-3l1,-2v-1l-1,-1v-2l-1,-1v-6h3l1,-1h1l2,-2v-1l2,-2v-1l2,-2v-1h1l1,-1l-1,-1v-1h-2l-1,-1v-1h1l-1,-1l1,-1v-1h3v-7l-3,-3v-1h2v-1h2l1,1h20l1,1h5l3,3l6,3l1,1l2,1l2,2l4,2l1,1l6,3l3,3h1v3l-1,1h1v1h1v1h1l3,3l2,1l1,2l2,2l2,1M444,444l1,-1v-1h2v-1h1l2,-2h1l2,2h-1l-3,3h-1v6h-1l-1,1M453,452l1,-1l1,1v-1h8l2,1h2l1,-1h14l1,1v1h1v1h1l-1,1l1,1v3l1,1l1,2v1l1,1v1l1,1l2,3l1,1v1l1,-1h2l1,1l1,-1h2l1,-1h1l3,1h2l1,-1l1,-2v-1l1,-1v-3l1,-1h5l2,-1h1v3l3,1h8v2l-1,3l1,2v13l2,2l1,2v2l1,1v2l-1,1v4h1v-1h7l2,-1h4l1,-1M541,554l-2,-1l-8,-8l-2,-6v-13l1,-3v-10h2l2,1h12l1,-1l-1,-1v-2l1,-1v-14h1v2h2v3h1l2,-1h4l1,-1v3l1,1v1h2l2,1h1l1,1h7v-1l1,-1v-1h1v2l2,1v1l1,1v1h3l1,1l2,1h1v1h1v2l1,1h1v1l1,1v2h4l1,-1h1v2h1v-2l1,-2v-7h-3v2h-1l-1,-1h-1l-2,-2h-1l-1,-2h-1v-2h-1v-3l1,-2v-1l1,-1l1,-2v-1l-1,-1l1,-1v-5l-2,-4l1,-1h1v-1l2,-2v-1l1,-1h-1l1,-1h7l2,-1h6l1,1v1l1,1h3l1,1h1v2h2l1,1v1h3l2,2h2v1h1"/>
<path class="sb" d="M623,525h-2v-2h-1v-1h-1v-1h1l1,-1v-1l1,-1v-5h2l2,-1v-1h1h-2v-8l1,-2v-1l-1,-1v-1l1,-1h1l2,-1v-1h-1v-2l-1,-1v-1h-1v-3h-1v-1h-2v-2l2,1h1l1,1h3l1,1v-1h1v-1l2,2v1l2,1v6h1v3l-1,1v1h1v2h1l1,1v1M587,595v-1h-1l-1,-1v-2h-1l-1,-1h-2l-3,-1h-1v-1l-1,-1v-1l-2,-2l1,-1v-3l-1,-1h-2v-2l-1,-1h-1l-1,-1l-4,-2l-1,-2h-1l-2,-4v-1l-1,-2v-1l-3,-3v-2h-1v-2h4l1,1h4l2,1h2l2,-1l5,-5l1,-2l3,-3h2l3,-1l1,-1v-3l2,-2l2,-1h2l2,-1h5M512,615l3,2v1l1,1l1,2v2l1,2v3h-1v4l1,1l1,-1l1,1h5v-1h1v-1h1l4,-4h1l1,-1v-2l1,-1v-1l1,-1v-1h2l1,-1l1,1h1l3,3h2l1,1h9v-1h1v-2l1,-1v-1l1,-2v-1h1l1,-1l3,-1l1,-1l2,-1v-1l1,-4h1l1,-1v-1h1l1,-1h1l1,-1h1v-1h1v-1h1v-1l2,-1l1,-1h2l1,-1h1l2,-2h2l3,-1l4,2h7l1,1M605,635h-1v3l-1,1h-3l-2,-1l-1,-1l-1,-2v-1h-1v-3h1l1,-2l1,-1v-1l1,-1h1v-1l2,2l2,1l1,-1M611,635h-6v-13h1v-11l-1,-1v-1l-1,-1v-3l-1,-3v-3l-1,-1v-1l2,-1l8,-8v-1l1,-2v-2l4,-4l1,-2v-2l-1,-1v-1l-1,-1l1,-2v-1l-1,-1v-1l1,-1h1v-2l1,-1v-14h1h-1l-2,-2h-1l-2,-1h-2l-2,-2l-4,-2h-5l-1,-1h-1v-6l-1,-1v-1l2,-1h1l1,-1h2l2,-1h3l1,-1h1l2,-1h2l3,-1l2,-1h1l2,-1l1,1l1,2v1l1,1h4v-1h3l1,2v5l-1,1l-1,2v2h-1v1l1,1v2l1,1v1l4,4v1h-1v1h2v-6l1,-1v-1h3l1,-1v-3l1,-2v-4l1,-1h-1v-2l-2,-4l-1,-1l-1,-2l-3,-3l-2,-1v-5l-1,-2v-5l1,-1v-1l1,-1v-1h9l1,-1h1l3,3h3l1,-1h2v1h4l1,-1h1l1,-1v-1h3l2,1h1l1,-1l2,-1l1,1l1,-1h1l2,-1h2l2,-2l2,-1l1,-1M577,661h1l1,-1h1v-2l1,-1h1v-4l-1,-1h-1v-1l-2,-2h-1v-1v1h-3l-2,2h-2v1l-1,1v1h-1v1h-1v1h-2v2l1,1v2h1v2h1v1h1v1h3v-1l2,-2v-1h3M676,133l4,4v1h1l2,2h1l1,1h1v1h3l-1,1v1l1,1h1v1h-1l-1,2v1h-1v1l1,1v2l2,2h2v1h1v1l1,1v1h1l1,1l4,2l1,1h2l1,1l1,2h1l2,2v3l1,1v1h2l1,2v2h1l1,1h1v1h1h-1l2,2M705,185l1,-1v-1l1,-1v-2h1v-1h4l1,1M649,161h4l3,1h2l1,1l3,1l1,1l5,2l1,1l4,2l2,2l3,1l2,2l3,1l2,2l8,5h2l6,2h6l2,1h3l1,1v2l1,1h5M776,237l-1,1l-1,-1h-3l-1,-1h-2l-1,-1h-3l-2,-1h-3v-1h-1l-5,-5v-1h-1v-1h-1v-1h-1v-1h-1v-2M761,262h2l1,-1h2l1,-1h3l1,-1h4l1,-1h2l1,-1v-1h1v-13l-1,-1v-1l-3,-3v-1l-1,-1v-4l1,-1v-2h-1v-1h3l-1,-1h-1v-2l-1,-1h1l-1,-1v-1h1v1h2v-1M776,217h-1v-3h-1M697,275l2,-1v-1h1v-2h-1v-2l1,-1h-1l2,-2v1h2v1h11l1,1h1l1,1h4l2,1h3l3,3l1,-1h1l1,-2v-1l1,-1v-1l1,-1v-1l1,-1h1l4,-2h1l1,-1h19v1l2,2v1l1,1v1h1v2l1,1v1l2,2v1l2,2v1l1,1v1l1,1"/>
<path class="sb" d="M645,153l1,1v1l1,2l1,1v1h2v1l-1,1h-1l-1,1h-4l-2,1h-4l-2,1l1,1l2,1l1,1l2,1l1,1l2,1l-1,1h-1v1l-1,1v1h-5l-4,4h-4l-2,-1h-3M624,157v3l1,1l-1,1v1M625,155h-1v2h-1v-1h-2l-1,1v2l1,1h-1v1h1v-1l1,1l-2,2l1,1h1l1,-1h1v2h1v1l-1,1v7l-1,1M661,132v1h-1v1l-1,1h-3v2l2,2v5l1,1l-1,1v1l-2,1h-2l-1,1l-2,1h-2l-1,1l-2,1l-1,1h-2l-1,1l-2,1h-1l-1,1l-2,1h-1l-2,1h-3l-1,-1h-2l-1,-1v-1h-1v-3h-1v-1M624,143l1,1h1v-1l1,1h-1h1v1h1v2h-1v1h-1l-1,1v1h1h-1v1M671,119l-1,-1h-1v2h-2v1h1v1h1v1l1,1v1h1v1h1h-1l1,1h-1v1l1,1h2v2h1l1,1v1h-2v1l-1,-1v-1h-5l-1,-1h-4l-1,1h-1v-1h-12l-4,2h-4l-1,-1h-2l-1,-1h-4v1h-5l-1,-1h-2v2l1,1h-2v1h-1v1h-2M670,118l-1,-1h-2v-1h-3l-1,-1h-1v-1h-1v-1h1v-1h-1v-1h-1v-1h-1M668,110h-9v-1h-2l-1,-1h-1l-1,-1h-2v1v-1h-6M972,334l-1,-2v-1h-1v-2l-1,-1h1M966,318v1v-1l-1,-1l-1,-3v-1h-1v-3h-1v-1v1v-2h-1v-1l-1,-2v-1l-1,-1M984,373v2M989,396v2l1,1v3l1,1v1v-1h-1v-1v1l1,1h-1h1v1M961,308v1h1v1v-1v3h1v2l1,2M985,397v-2l-1,-1v-9l-1,-3v-1l-1,-1v-3l-1,-1v-2l-1,-1v-4l-1,-1v-2l-1,-1v-2l-1,-1v-1l-1,-1v-2l-1,-2v-3l-1,-1v-3l-1,-1v-2l-1,-2v-2l-1,-1v-1l-1,-1v-1l-1,-1v-2l-1,-1v-2l-1,-1v-2h-1v-1l-1,-2v1l1,-1l-1,-3h-1v-2l-1,-2v-1l1,1v-1v1v-1l-1,-1v-1l1,1v-1h-1v-1v1v-1l1,1v1v-1v1l1,1v1l1,1v2l1,1v1v-1v1l1,1v2l1,1v1l1,1v3l1,1v1l1,1v3l1,1v1v-2l-1,-1v-1l1,1v2h1h-1v-3h-1h1v2l1,1v2l1,1v2l1,1v2l1,2v1l2,4v3h1M983,372l1,1v1v-1h-1v-3h-1l1,1v4l1,2v2l1,2v2l1,1v4l1,3M959,303l1,1l-1,-2l1,1v1v-1h-1v-1v1v-1v1v-1v1l1,1v1l1,1v1l1,2v1l1,1v1v-1h-1v-2l-1,-1v-1v1v-1h-1v-2h-1v-1l-1,-1v-2h-1v-2h-1v-2l-1,-1v-2h-1v-1l-1,-1v-2h-1v-2l-1,-1v-1h-1v-2h-1l-1,-1v-2h-1v-1l-1,-1v-2l-1,-1v-1l-1,-1l1,1v-1h-1v-2l-1,-1v-1l-1,-1v-1l-1,-1v-1l-1,-1v-2l-2,-2l-1,-2v-1l-1,-1v1v-1l-2,-3v-1h-1v-1l-1,-1v-1h-1h1v1M846,172l1,1h1l1,1h1M861,154l-8,-8l-2,-1v-1l-3,-3h-1l-1,-1v-1l-1,-1h-1v-1h-1l-2,-2h-1v-1h-1v-1h-1v-1h-1l-1,-1h-1v-1h-1v-1h-1l-1,-1v-1h-1v-1h-1l-2,-2v-1h-1l-3,-3h-1v-1h-1v-1h-1l-1,-1h-1v-1h-1v-1v1v-1h-1l-1,-1h-1v-1h-1v-1h-1l-2,-2h-1v-1h-1v-1h-2v-1h-1v-1M808,106h-1v-1h-1l-3,-3v1h1h-1h1v1h1h-1h1v1h1v1v-1v1l-1,-1v1h1h-1M676,86h-1l-1,-1h-2v-1h1v1l1,-1l-2,-1h-1l-1,-1v-1h-1l-2,-2h-5l-1,-1h-1v-1l-1,-1h-1l-1,-1h-1v-3l-1,-1h-1v-2h1v-1h-1v-1h2l2,2h2v1h2v-1l-2,-2h-1h2v-1h1v-1h3v-1l1,-1l1,1h2v1h2v-1h2v1h3v1h3l1,1h1l1,1h2v1h2v1h1v1v-1h-1v-1h-1h3l2,2h3v-1h4v1h2v-1l1,1h3l2,2h2l1,1h1v-1h1l1,1h4v-1h-1v-1h-2v-1h-2l-2,-1h-1v-1h-2l-1,-1h2v-1l-1,-1h-1v-1h3l-2,-1h-2v-1h-1h1l-1,-1h-2v-1h-1h5l2,1v-1h1l1,1v-1h1l1,1h2l-1,-1h2l1,1h5l-1,-1h3l1,1h2v1v-1h1v1h2l1,1l2,1v1h1l2,2h3l1,1h1h-1h1l2,1h2v2h3l1,1v-2h2l1,1h-1h1v1h1l1,1l4,2h1l1,1l2,1l1,1l3,1l2,2l3,1l4,4h1l2,1l1,1l2,1v1v-1l-1,-1h1v1h1l1,1h1v1h2l1,1h1h-1h1h-1v-1l1,1h1v1h2v1h1l2,2h1v1h1l1,1h1v1h1l1,1h1v1h2v1v-1v1h1l2,2h1l1,1h-1h1l1,1v1h1h-1h1v1l1,1h1l2,2v1h1v1h1v1h1h-2v-1h-1l-1,-1h-1l-1,-1h-1v-1v1h1v1l1,1l2,1v1l3,3v1h2v1l1,1l-1,-1h-1l-1,-1h-3v1h2v1h1v1h1v1l1,1h1v1h1v1l2,1v1h1l2,2h-1l1,1h1h-1v1h1v1l2,2"/>
<path class="sb" d="M884,214v1h1l-1,-2h1l2,2v1h1l1,2l1,1l2,1v1h1l3,3v1v-1h1v1h1v1l1,1v1h1v1l1,1h1v1h1v1h1v1l1,1h1l2,2v1v-1v1h1v-1l1,1v1h1l2,2h1M919,245l-1,-1v-2h-1v-2h1l1,1v1h1v1h1v1v-1l2,2v1M849,176v-1h1v-1l1,1v-1v1l4,4v1l1,1h1v1h1l2,2v2h1l1,1v1l1,1v1h1v1h1v1h1v1l2,2v1h-1l-1,-1v-1h-1v1l1,1v1l2,1v1h1v1l1,1v1l1,1h1h-1h1l2,2v1h1v1h2v1l1,1h1v1l1,1h1v1h1l1,1v1h1h-1v3l1,1v2h1h-1l1,1v1l2,2h1h-1h1v1h1l1,1v1h1v1h1v1l1,1h1l1,1v1v-1l3,3h1v1l1,1h1v1h1l1,1h1v-1l3,3v1l3,3v1l1,-1l1,1v1h1v1h1l2,2v-1l1,1v1h2l1,1l-1,-1v-1l-1,-1v-1l-1,-1l-2,-4v-1l-1,-1h1v-1v1h1v1l1,1v2h1v1h1v2l2,2v1h1v1h2l2,2h1v-2h-1v-1l-1,-1v-1h-1v-2h-1h1v1h1v-1h-1v-4h-1h1v-1l-1,-1v-1v1h1v1h1v1h1l-1,-1v-1v1h1v1h1v2h1v1l-1,-1h1v1l1,1v2h1v1v-1v1h1v1l1,1v1h1v2h1v2h1l1,3v-1l-1,-1h-1l1,1v3l1,1v1l1,1v1l1,1v2l1,1v1h1v2l1,1v2l1,1v1l1,1v1l-1,-1v-1h-1v-1v1l2,4v1l1,2v2h1v2l1,1v2l1,1h-1v-1M831,161h2l1,1h1l1,1v1v-1l1,1h1v1h1v1l1,2h1v1h1l1,1h1v1h1v1h1l2,2v1l1,1v1h-1v1l-1,-1v1h-2l-1,-1v-1h-2l-1,-1h-2v2h1l1,1v1h1l1,1v2h1v1h1v2l1,1h1v1h1v1h1l1,1v1h1l2,2h1v1l-1,1v1l1,1v1l1,1v1l1,1l-1,1v-1v4h1v1l-1,1h-1l1,1v3l1,1v1h-1l-1,1v5h-4l-1,-1v-1h-2v3l-1,1v2l1,1v1h1l1,1h1l1,1v1l1,1v2h1l1,2h1l1,1l1,2l2,2l1,2v1h1v2h1l-1,1h-1l-1,-1h-2v1h-1l-2,-2h-3v-1h-1v1l1,2h-2M937,285v-1h-1l-1,-2v-2l-1,-1v-1l-1,-1v-1h-1v-2h-1v-2l-1,-1v-2h-1v-2h-1l-1,-1v-1h-1v-1l-1,-2l1,1v-1l-1,-1h1v-1h-1v-1h-1v-1l-2,-2v-1l-1,-1v-3h-1v-1v1l1,1h1v1h1h-1v-1v1h1v1l1,1v1h1v-1h-1h1l1,2v1l1,2l1,1v1h1v1h1v1h1l1,1h1v1h1l1,1v1h1v1l-1,-1v1h1v1l1,1v2h-1v1l1,1v2l2,4h1h-1v-1l1,1v1h1l-1,-1v-2l-1,-1v-1l1,1v1l2,4v1h1v2l1,1v1l2,3v1l1,2l1,1v1l-1,-1v2h1v2l1,1M793,126v-1l-1,-1v-1h2l4,2h1v1h2v1h1l-1,-1l-1,-2v-1l1,1v-1l3,3h2l1,1h3l1,1h1l1,1h2l1,1h1l1,1h2v1h1v1h1l1,1h1l2,2h1v1h-2v3h-2l-1,-1h-1l1,1v2h1h-3l-1,-1v-1h-2v2h-1v1h1v2M803,137l-1,1h-1l-1,-1h-1v-1h-1l-1,1h1v1l-1,-1v1h1v1l1,1h4v1v-1l1,1h1v1h2v-1h1v1h1v1h1v1h2v1v-1h2l1,1h2v1h1l1,1v1h1v1h1v1h1v1v-1h1l2,2h1v1l2,2h1v1l1,1v1h1v1h1v1M729,117l-2,-2l-1,-2l-2,-2v-1l-1,-2l-4,-4v-2l-4,-4h2l1,-1h8l1,1h1l1,1h2l2,2h1l1,1h1l1,1h2l1,1h1v1h1v1h1l1,1h1l1,1h1l2,2h1l1,1h6l1,1h4l1,1h1l2,2h1l2,2h2v1l1,1v1h1v1l1,1h1v1h2v1l2,2h1v1h1v1h4v1h2v1h1v1h1v1h1l1,1v-1h-1v-4h1h-1h1l1,-1v-1h3v1h-1v2l1,1h2v1h1v1h2v1v-2l-1,-1h1v1h1v1l1,1h2v1h1v1h2v1h2l-1,1h-1l1,1l-1,-1h-1v1h1h-2l-1,-1h-3v-1h-1l-1,-1h1v-1h-1v-1h-1l-1,-1v1h-3v-1v1l1,2h1h-1l1,1l-1,-1h-1v1h1v3l-1,-1h-1l-1,-1l-1,1l1,1v1h2v1h1l1,1h1v2l1,1h1l1,1v1h1v3l1,2"/>
<path class="sb" d="M709,112v-1h1v-1h6v1h2l2,2h1v1l2,1l1,1h1v1h5l1,1h3l-2,-2v-2h3v-1h2v1h1l-2,-2h-1h1v-1l1,1l2,1h2v1h1v1h3v1h1v1h1l1,1v1h1v1l1,1h1l1,1h5l1,1h1v1l1,1l2,1l4,4v1h1l2,1l1,1l2,1l1,1l4,2l1,1h1l1,1h1v1h1l2,1l2,2l2,1h2l1,1h1l1,1h1v1l1,1v1l1,1M674,107l1,1h2l1,1h1v1h1l2,2h2l3,-3M776,155l2,2h2l1,1h1v1h3v-1h1v-1h-1h1l-1,-1h1l1,-1h1l1,1v-1h1v-1l-1,-1v-3h-1v-1h3v-1h1l1,1l2,1h3l2,2v-1l1,1h1l2,2h1v-1h1v-1l2,2h1v-1h-1v-1h3l-1,-1v-3h1l3,3v1h2v2l4,4v1h1v1h1v-1l1,-1h1h-1l1,-1h2l1,1h-1h4v1h1v1h1h-1v-1h-1v1h1v1h-2l-2,-1h-4v1h-1v1h-1l2,2v1h1l1,1v1h1v1l1,1v4l2,2v1h-1l-1,-1h-1l-2,-1v1l2,2h1l1,1v2h-2v2l1,1v1l1,1l1,2v2h-2v-1h-2v-1h-1v1h-2v1h1v1h-2l-1,-1h-1v2h-1v1l1,1v1l1,1v2h1v1h-2l-1,1h-3v-1h-4v1v-1h-3l-6,-1l-6,-3l-1,-1l-3,-1M533,7h-1v1h-1h1l1,1h3l1,1h1h-1l-1,1h1l1,1h2v1h1h-1l1,1h-1h1h-1h1v1h2v1h2v1h1h-2v1h3l2,1h2v2h-2l-1,1h-1l-1,1h-1l-1,1h-2l-1,1h-1M507,7h3v1h6v1h1h-1h1l1,1h-1h2v1h-1v1h2M537,7h1h-6l-1,-1h-8v1h-1h1h-2v1h-2l-1,-1h-2l-1,1v-1h-10v1h1h-10l-2,1h-2l1,1h-1l-1,1h-2l-1,1h-2v1h-1v1h-2l-1,1h2v1h-6l-1,1h-1l-1,1v1h-1l1,1v1h-1v1h2l1,1h-3v1l1,1h-1v1h-2v1h-2v2h-2"/>
<path class="sg" d="M 265.7045 940.9067 A 249.7500 49.6965, 0, 1 1, 733.2955 940.9067"/>
<path class="sg" d="M 69.9030 754.3464 A 432.5797 86.0768, 0, 1 1, 929.0970 754.3464"/>
<path class="sg" d="M 0.0000 499.5000 A 499.5000 99.3930, 0, 1 1, 999.0000 499.5000"/>
<path class="sg" d="M 69.9030 244.6536 A 432.5797 86.0768, 0, 0 1, 929.0970 244.6536"/>
<path class="sg" d="M 265.7045 58.0933 A 249.7500 49.6965, 0, 0 1, 733.2955 58.0933"/>
<path class="sg" d="M 150.4226 142.2253 A 479.6649 499.5000, -224.33510045, 0 0, 848.5774 856.7747"/>
<path class="sg" d="M 389.9362 12.1644 A 366.5583 499.5000, -192.67068422, 0 0, 609.0638 986.8356"/>
<path class="sg" d="M 466.3387 1.1020 A 155.2327 499.5000, -183.80660842, 0 0, 532.6613 997.8980"/>
<path class="sg" d="M 519.7255 0.4096 A 97.6874 499.5000, -177.67937013, 0 1, 479.2745 998.5904"/>
<path class="sg" d="M 586.1370 7.5709 A 324.4323 499.5000, -170.01167283, 0 1, 412.8630 991.4291"/>
<path class="sg" d="M 754.9402 70.2558 A 464.2457 499.5000, -149.24342152, 0 1, 244.0598 928.7442"/>
<text x="0" y="0" class="fs" transform="translate(27,354) rotate(103)">60W</text>
<text x="0" y="0" class="ft" transform="translate(27,354) rotate(103)">60W</text>
<text x="0" y="0" class="fs" transform="translate(138,309) rotate(99)">30W</text>
<text x="0" y="0" class="ft" transform="translate(138,309) rotate(99)">30W</text>
<text x="0" y="0" class="fs" transform="translate(346,282) rotate(92)">0E</text>
<text x="0" y="0" class="ft" transform="translate(346,282) rotate(92)">0E</text>
<text x="0" y="0" class="fs" transform="translate(596,279) rotate(87)">30E</text>
<text x="0" y="0" class="ft" transform="translate(596,279) rotate(87)">30E</text>
<text x="0" y="0" class="fs" transform="translate(819,301) rotate(80)">60E</text>
<text x="0" y="0" class="ft" transform="translate(819,301) rotate(80)">60E</text>
<text x="0" y="0" class="fs" transform="translate(957,342) rotate(77)">90E</text>
<text x="0" y="0" class="ft" transform="translate(957,342) rotate(77)">90E</text>
<text x="0" y="0" class="fs" transform="translate(310,888) rotate(-11)">60S</text>
<text x="0" y="0" class="ft" transform="translate(310,888) rotate(-11)">60S</text>
<text x="0" y="0" class="fs" transform="translate(174,683) rotate(-10)">30S</text>
<text x="0" y="0" class="ft" transform="translate(174,683) rotate(-10)">30S</text>
<text x="0" y="0" class="fs" transform="translate(125,429) rotate(-10)">0N</text>
<text x="0" y="0" class="ft" transform="translate(125,429) rotate(-10)">0N</text>
<text x="0" y="0" class="fs" transform="translate(177,194) rotate(-10)">30N</text>
<text x="0" y="0" class="ft" transform="translate(177,194) rotate(-10)">30N</text>
<path class="tb" d="M127,998h-2l-1,-1h-2l-1,-1h-2l-1,-1h-2v-1h-3v-1h-2l-1,-1h-2v-1h-2l-1,-1h-2v-1h-2v-1h-2l-1,-1h-2v-1h-2v-1h-2v-1h-2v-1h-2v-1h-2v-1h-2v-1h-2v-1h-2v-1h-1l-1,-1h-1v-1h-2v-1h-2v-1h-1v-1h-2v-1h-1l-1,-1h-1v-1h-2v-1h-1v-1h-2v-1h-1v-1h-1l-1,-1h-1v-1h-1v-1h-1l-1,-1h-1v-1h-1v-1h-1v-1h-2v-1h-1v-1h-1v-1h-1v-1h-1l-2,-2h-1v-1h-1v-1h-1v-1h-1v-1h-1v-1h-1v-1h-1v-1h-1v-1h-1v-1h-1v-1h-1v-1h-1v-1h-1v-2h-1v-1h-1v-1h-1v-1h-1v-1l-1,-1v-1h-1v-1h-1v-1l-1,-1v-1h-1v-1l-1,-1v-1h-1v-1l-1,-1v-1h-1v-2h-1v-2h-1v-1l-1,-1v-1l-1,-1v-1l-1,-1v-2h-1v-2h-1v-3h-1v-2h-1v-4h-1v-3h-1v-5h-1v-6l-1,-1v-17h1v-7h1v-4l1,-1v-3h1v-3h1v-3h1v-2l1,-1v-2h1v-2h1v-2h1v-2h1v-2h1v-2h1v-2h1v-1h1v-2h1v-1h1v-2h1v-1h1v-1l1,-1v-1h1v-1h1v-1l1,-1v-1h1v-1h1v-1h1v-1h1v-1h1v-1h1v-2h1v-1h1v-1h1v-1h1v-1h1l3,-3h1v-1h1v-1h1v-1h1v-1h1v-1h1v-1h1l1,-1h1v-1h1v-1h1v-1h1l1,-1h1v-1h1v-1h2v-1h1v-1h1v-1h2v-1h1v-1h2v-1h1v-1h2v-1h1l1,-1h1v-1h2v-1h1l1,-1h1v-1h2v-1h2v-1h2v-1h1l1,-1h1l1,-1h1l1,-1h1l1,-1h1l1,-1h2v-1h2v-1h2v-1h2l1,-1h2v-1h2v-1h2l1,-1h2v-1h3v-1h2l1,-1h2v-1h3v-1h3v-1h159v1h3v1h3v1h2l1,1h2v1h3v1h2l1,1h2v1h2v1h2l1,1h2v1h2v1h2v1h2l1,1h1l1,1h1l1,1h1l1,1h1l1,1h1v1h2v1h2v1h2v1h1l1,1h1v1h2v1h1l1,1h1v1h2v1h1v1h2v1h1v1h2v1h1v1h1v1h2v1h1v1h1l1,1h1v1h1v1h1v1h1l1,1h1v1h1v1h1v1h1v1h1v1h1v1h1l3,3h1v1h1v1h1v1h1v1h1v2h1v1h1v1h1v1h1v1h1v1h1v1l1,1v1h1v1h1v1l1,1v1h1v1h1v2h1v1h1v2h1v1h1v2h1v2h1v2h1v2h1v2h1v2h1v2l1,1v2h1v3h1v3h1v3l1,1v4h1v7h1v17l-1,1v6h-1v5h-1v3h-1v4h-1v2h-1v3h-1v2h-1v2l-1,1v1l-1,1v1l-1,1v1h-1v2h-1v2h-1v1l-1,1v1h-1v1l-1,1v1h-1v1l-1,1v1h-1v1h-1v1l-1,1v1h-1v1h-1v1h-1v1h-1v2h-1v1h-1v1h-1v1h-1v1h-1v1h-1v1h-1v1h-1v1h-1v1h-1v1h-1v1h-1v1h-1l-2,2h-1v1h-1v1h-1v1h-1v1h-2v1h-1v1h-1v1h-1l-1,1h-1v1h-1v1h-1l-1,1h-1v1h-1v1h-2v1h-1v1h-2v1h-1l-1,1h-1v1h-2v1h-1v1h-2v1h-2v1h-1l-1,1h-1v1h-2v1h-2v1h-2v1h-2v1h-2v1h-2v1h-2v1h-2v1h-2l-1,1h-2v1h-2v1h-2l-1,1h-2v1h-2l-1,1h-2v1h-3v1h-2l-1,1h-2l-1,1h-2l-1,1h-2Z"/>
<path class="tl" d="M169,986h1v1h-3l-1,-1h2v-1ZM114,989h-3l-1,-1h2l1,1ZM176,983h1l1,1v1h1l-1,1h-2l-1,1h-1l-1,-1l1,-1v-2h1v-1ZM124,980h2v1h-1ZM122,980l1,1h-1l-1,-1ZM136,977h1h-2ZM156,974v1l1,1h-5v-1l1,-1v-1l-1,-1l1,-1v1h1l1,1ZM158,964v1h-2v2h1l-2,2v1h1l1,1h1l4,4v1l1,1v1h-1v2h-1l-1,1h-1v1h-2l1,1h1v1h-2l1,1h1v1h3l1,1h3l1,1h3l1,1h1l1,1v-1h1v-1h2l2,-1l1,1h1v-1h4v-1h3l1,-1h-1v-1h-4l-1,-1l1,-1h1l2,-2h4l1,-1h1l2,-2h-1v-1h1v-1h2v-1l1,-1h1v1h1v-1h8v-1h3v-1h1l1,1h2v-1h1v1l1,-1h4v1h6v-1h3v-1h2v1h3l1,-1h3v-1h2l1,-1h2l1,-1h4v1h1v1h1l1,1h1l1,-1l1,1h2v1l-2,2h-1v1h1h-1v1h-1v1h2l2,-2h1v-1h3l1,-1h1v-1h2l1,-1h5v-1h1v1h5v1h1l1,-1l1,1l1,-1h1l2,-1v1l1,1h3l1,-1h2v1h1v1h4l1,-1v1h9l1,-1l-1,1v1h-1h3l1,1h2l-1,1v1h1v1h2v1h1v2h2l1,1v1h-1l-1,1h-2l-1,1h-3l-1,1h-2l-1,1h-2l-2,2v1h-5l-1,1h-2v1h-1v3h2l-11,4h-155l-11,-4h-1h2l1,-1l1,1h14l-1,-1h-7v-1h-2v-1h-3l-1,-1h4v-1h-2l-1,-1h-7l-1,-1l-2,-1l1,1l1,-1l2,1v-1h1v-1l-1,-1h-1h2v-1h2v-1h4l1,-1h5l1,-1l1,1v-1h1l1,1h1v-1l1,1h6v-1h-2l-1,-1h-1l-1,-1h4l1,1h1l1,-1h3l-1,-1h1l1,1l1,-1l1,1h3v-1l1,1h4v-1h2l1,-1v-1h-1v-1h-1v-1h-1v-1h-1v-2l-1,-1v-1h1v-2h1v-1h1v-1h1l1,-1l1,1ZM144,951l2,1h1v1h-1v-1v1h-4l-2,-2l-2,-1l2,1h2v-2h1v1ZM151,947h1v1h-2v1l-1,-1l1,-1ZM269,946h-1v-2h1l1,1ZM345,939v1h1l1,-1v1l-3,3v-1l-1,1h-1l1,-1v-1l1,-1v-1ZM368,943v1l1,-1v1h-1l-3,3h-1l-1,1h-1l-2,2h-2v1h-1v-1h-1v-1l4,-2h1l1,-1h2l2,-2h1l2,-2ZM376,936l-1,2l1,-1l-1,1l1,1h1l-2,2h-1l-2,2l-2,1h-1l2,-1v-2l1,-1l2,-1v-1l1,-1v-3l1,-1v1l1,1ZM382,913l-1,1v-2l-1,-1v-1h1v1l1,1ZM397,906v1l-1,1h-1v-1l1,-1v1ZM398,906h-1v-1h1l1,-1v1ZM10,905v-1ZM386,904v-1ZM386,901v2h-1v-1ZM259,895v2l1,1h-1v1v-1v2h-1v3l-3,6v2h-1l-1,1l-1,-1h-1v-5h1v-2l1,-1h-1v-3h1v-1h1l2,-2h1v-1l1,-1v-1l1,-1v1ZM361,898v1h1v1h1l-1,1v2h1l-1,2v1l2,2v4h1l-1,2l1,1v3l-1,1v2l-3,3v1l-1,1l-1,2h-1l-1,2h-1l-4,4v1h-2l-1,1h-1l-1,1v-1h-1l1,-1h-1l-1,1h-1v-1h-1v-3h1l-1,-1v-1l1,-1l-1,1h-1l3,-3l-2,1h-1l-1,2v-4l-2,-2h-2l-1,1h-4l-2,2h-4l-1,1v-1l-1,1h-2v-1h-1l1,-1v-1h1v-3l1,-1v-7l1,1v-3l1,-1v-1l1,-1l-1,1l2,-2h1l1,-1h2l1,-1h2v-1h1l1,-1v-2l1,-1v2l1,-1v-1h1v-1l2,-2h2v1h2v-2h1l1,-1v-1h2v-1h-1h1l1,1h3l1,1h-1v1h-1v1l-1,1v1l2,2v1h1l1,1h1v-1l1,-1v-1l1,-1v-3l1,-1v-2h1v-1v3l1,1Z"/>
<path class="tl" d="M383,894h-1v-1v1ZM337,892l-2,-1h2ZM381,893h-1v-1h1ZM382,892v-1l-1,-1h1ZM341,892h-1l3,-3h2l-1,1h-1l-1,1ZM335,889h1v1h-3l1,-1ZM340,889v1h-3v-1h2ZM381,890v1l-2,-2h1v1ZM378,889v-1h-1v-1l1,1ZM325,887h2v-1l2,1v1h2l1,1l-1,1l-1,-1h-4l-1,-1h-1l-2,-1h-1l1,-2h1l1,1ZM353,886v1v-2ZM377,888h-1v-2l-1,-1h1v2h1ZM373,885l-1,1h-1l-1,1l-1,-1h-1l1,-1l1,1v-1h2v-2h1v1ZM345,882h-1v-1h1ZM349,881v2l-1,-1h-2v-1h2ZM374,884l-1,-1v-1l-1,-1h-1h2v2h1ZM353,878v3l2,1v-2l2,-1h1l1,1h1l1,1l4,2v1h1v1l2,1v1h-1v1l1,1v2h1v1h1h-1l1,1l-1,1v-1h-2l-1,-1v-3h-3l-1,1v1h-2l-2,-2v1h-2l1,-2h1l-1,-2v-1l-2,-1h-1l-1,-2l-1,1l-1,-1h1l-1,-1l1,-1h-1v-1h-1l-1,-1h2v-1ZM343,875l-1,1h-4v1l1,2v-1h2l-1,1h-1l1,2v1l1,2v1h-1v-2l-1,1v-1l-1,-1l1,-1h-1v4h-1v-3h-1v-1l1,-1v-4h1v-1h4l1,-1ZM347,875v1h-1v1l1,1h-1v-4h1ZM321,885h-1l-2,-2v-1l-2,-2l-1,-2v-2l-1,-1v-1l-4,-4v-1h2l3,3l1,2h1l2,2h1l-1,2h1v1l1,1h1v3ZM335,874l1,1h-1v3l-1,1v1l-1,3v-1l-1,1l-1,-1h-1v-1l-1,1l-1,-1h-1l-2,-4v-2l1,-1h2v-2h2v-1l1,-1v-1h1l1,-1v-2h1v1l2,2v1h-1l-1,2l1,1ZM344,864v3l-1,-1v2l-2,-2h1l-1,-1v1l-1,-1l-1,1v-1l1,-1h2v-1h1v-1l1,1ZM294,868h-1v-1l-1,-2l1,-2l1,1v1l1,1v1ZM137,863h-1l1,-1h1ZM341,861v1l-1,1l-1,-1l1,-1v-1v1l1,-1ZM335,863l-1,1v-1l1,-1v-1l1,-1v1l-1,1ZM338,859h2v1l-1,1v-1h-1ZM342,858l1,2h-1v1v-1h-1v-1h1h-1v-1ZM338,857l-1,1l-1,-1h1ZM336,849h1v6h1l2,1v2l-1,-1v-1v1l-1,-1h-2v-1h1h-1l-1,-1v-5ZM133,851v1h-1v-1ZM121,852h-1v-1h2v1ZM126,849h3v1h1v1h-2l-1,1v-1h-1v-2h-1ZM324,849l-1,1h-1v-2l1,-1h1v1ZM37,846v-2h1v2ZM38,844h-1v-1h1ZM119,845h2l1,1v1h1v1h2l-1,1h-3v-1h-1v-2h-2l-1,-1h-1h1h-2l-1,1h-1l2,-2h3ZM122,843h-1v-1l1,-1v1ZM334,843v1l-2,-2v-2l1,-1l1,1ZM122,839l-1,1v-1ZM123,839v1v-1h-1ZM340,825h1v1h-1v1h-1v-2ZM240,828l-2,2v-1h-1h2ZM229,828v1h-1ZM220,825v2h-1l-1,-1h-1v-1h2ZM214,821v3h-1v-3ZM344,820v1l1,1v1l-1,1h-1l-1,2l-1,-1v-1l-2,1l-1,1h-1l2,1v3l-1,-1v-1h-1l-1,-1l1,-1v-3h3v-3l1,1v-2h1l-2,-4v-1l3,3v1ZM214,820v1l-1,-1v-1l1,-1ZM340,810l1,-1l1,2h-1v2l-2,-1l1,2h-1l-1,-2l-1,-1h1l-1,-2l-1,-1l3,1ZM144,812l1,1h1h-2ZM147,809h-1l-1,-1h1ZM92,806h-1l-1,-1v-2h-1v-1h1l1,1v1l1,1ZM153,807l-1,1h1v1h2l-1,1h1v1l-1,2l-1,-1l1,-1l-2,1v-1h-3l1,-1h-1l4,-4h1Z"/>
<path class="tl" d="M90,797h1l-2,2v1v-3ZM332,800l3,3l-2,-1l1,2l2,2v1l-2,-2l-1,-2l-6,-6v-1h-1h1l3,3ZM198,806l-1,1h-2l1,-2v-1l2,-2h1v3ZM216,801l-1,2l-1,-1v-1h1ZM79,791h-1v-1h2ZM202,797l-1,2h2v1l-1,1h1l2,4h1v1l-1,1h1l-1,1h-3l-1,1h-2l2,-2h-1v-1h1l-1,-1v-1h2l-1,-1h-1v-2l-1,-1l1,-2v-1l1,1ZM75,786h-1v-1h1ZM141,790l-1,1v-1ZM139,790h-2l1,-1h1ZM78,780v1h1h-2v-1ZM139,786h1v1h1l-1,1h1l-1,1l-1,-1h-1l-2,1l1,-1h-1h1l1,-1l1,-2ZM193,787v1l1,1l-1,1h-3l-1,1l-1,-1h-2l1,-1h-1h1v-1h-2l1,-1h1l1,1l2,-1h2ZM147,784h-1l1,-1h2l-1,1ZM81,776v1l1,-1h2l-1,2h-3l-1,1h-1l-1,-1h1v-1h-1h1h-2l-1,1l8,-5v1l-1,2ZM135,780l-1,1v-1h-1l1,-1h1ZM322,771h-1ZM88,771h-1h2ZM139,780l-1,2l2,-1v1h-1v1l1,-1l2,-1l1,-1h2v2h-1v1l-1,1l-2,1h-1v-1l-1,1l-2,1v1h-3l-2,2h-1l-1,1l-2,1l-1,1l-1,2h1l-1,1v1h1l3,3l2,1h1l-2,2v2l1,1h1l2,-4h-1l4,-2v-1l1,-1v-1l-1,-1l2,-1l2,-4l1,1h1l1,-1v1l1,1h1v2l-1,1l1,1h2l1,-2h1v3l1,1l-1,1l1,1v1h1l1,1v1l1,1l-2,2h-2l-2,2h-1l-2,-1h-2l-2,1l-1,1l-2,1l-1,1l2,-1l3,-1h2l-1,1l-1,2v1l1,1l2,-1l1,-1v1h1l-4,2h-1l-2,1v-1l2,-1h-3v1h-1l-1,1h-1l-2,2l1,1v-1v1h-3l-1,1l2,-1v1h-2l-2,2v1l-1,1l-1,-1l1,-1l-1,1v4l-1,1h-1l-1,1h-1l-3,3h-1v8l-1,1h-1v-3l-1,-1l1,-1l-1,-2l-1,1l-1,-1h-4v1h-1l-1,-1l-1,1l-1,-1l-2,2h-2v1h-1v3l-1,1v1l-1,2v4l1,1v1h1v1l1,-1h3v-1l1,-1v-1l1,-1h3v1l-1,1v2l-1,1v-1v2l-1,1v1h5v1h1v1l-1,1v3l-1,1h1v2h1v1h2l1,-1h1v1h1l1,1l1,-1v-2l1,-1h2l2,-2v2h-1h1v1l-1,1v1h1v-3h1v-1h1v1h1v1h3l1,1l1,-1h1l1,1h1v1l1,1h1v1h1v1l1,1l2,1v-1h1l1,1h1l1,1v1h1v1l1,2v1l-1,1l1,1h2v1v-1l4,2v1h1l3,1h1l2,1l2,2h2v5l-1,1l-1,2l-2,2v9l-1,2v2h-1v1h-2l-1,1h-1l-3,3v5l-1,2l-2,2v2l-2,2v-1l-1,1l-1,-1h-1v-1v1l1,1v1l1,1v2l-2,1h-3l1,1v2l-1,1l-1,-1h-1l1,2h2l-2,2l1,1v1h-1l-1,1v1l2,1h1v1l-1,1v2h-1v1l2,2h-1l-1,1v1h-1l-2,-1l-3,-3l-1,-3v-1l1,-1h-2l1,-2l-1,-2h1v-2l-1,-1v2l-1,-2v-4l-1,-1l-1,-2h1v-6l-1,-2v-8l-1,-2v-6l-1,-2l-1,-1l-2,-1l-3,-2l-1,-1v-1l-1,-2l-1,-3l-2,-3l-2,-2v-1l-1,-2l2,-2v-1h-1v-3l1,-1v-1h1v-2h1l1,-1v-5l-1,-1v-2h-1v1h-1v1h-1l-1,-1h-2v-2h-1v-1v1h-1v-3l-2,-2h1h-2v-1h-2l-1,-1l-1,-2h-1l-1,-1v1h-2l-1,-1h-2l-2,-2h-1l-1,-1v-1h-1v-3h1l-1,-1v-3l-1,-1v-1l-1,-1v-3h-1v-5l-1,-1l-1,1v4h1l-1,1h1v5h1v2h-1v-1l-1,-1v-3l-1,-1v1v-1h-1v-1h1v-9h-1v-1h-1v-9l2,-2v-1l1,-2l2,-2l1,-2l1,-1v-1h1v1l2,-2h-1v-2l-1,-1v-1l1,-1l-1,-1l1,-1v-1l1,-1l-1,-1l1,-1v-1l1,-1l-1,-1h-1v-2h-1v-1h-1l-1,-1h-1l-1,1h-4l1,-1l2,-1h-1l-1,1l-2,1h-1l-1,1l-2,1h-2l-2,1h-1l-1,1h-3l-1,1h-2l1,-1h2l2,-1h2l2,-1h1l2,-1l1,-1h-3l1,-1l-1,1h-1l2,-2h-1v-1l2,-2l2,-1h3l1,-1h1l1,-1h-3v-2h4l1,1l1,-1v-3h4l1,-1h2l2,-1l1,1l1,-1h1l-1,1h1l1,1h2l1,1h2v1l1,1l1,-1h6l1,-1v2l2,-1l-1,1h2l1,1h2v1l-2,1h4v1l2,-2h2v1h1l1,1h2v-1h1l1,1l-1,1l1,-1h1l1,-1v-2l1,-1l2,-1l1,1l-2,2Z"/>
<path class="tl" d="M128,774l-1,1h4l-1,1h1l2,-2v1l-1,2v1l1,1h-2v1h-8v-1h-1v-1h4l-1,-1h-3l2,-1h-1l1,-1h1ZM135,774l-2,1v-1h1ZM152,776v1l-1,-1l-1,1v-2h2ZM146,776v1l1,-1l2,-1v2h3l1,1l-1,1l2,-1v1l1,1v2h-1l2,2v1h1v1l-2,1h-1l-1,-2l-1,1v1l1,1v2l-1,1l-2,-2v1l1,1h-2l-2,-2v-1l-1,-1v1h-3v-1l1,-1h3l1,-1l2,-1v-1l-1,-1h-1l1,-1l-1,-1h-5l-1,-1h-1l1,-1h-1l1,-1l2,-1l1,-1h2ZM138,774h2l-1,1h-1l1,1l-2,1h-2v-2l1,1v-1ZM298,772h-2v-1ZM141,776l-2,1v-1l2,-2h2l1,1l-2,1ZM122,776h-2l-1,-1h1l2,-1l2,-2h2v1h2v1h-1l-3,1h-2ZM299,769v1h-3v-1h1ZM143,773v1l-1,-1h-1l1,-1h1l1,1ZM295,769l1,1h-2l-1,1l-2,-1l-1,-1h2ZM143,771h-1v1l-1,1h-2l1,-1h-1l1,-1h2ZM136,771h1v1h-4l-2,1h-1l1,-1h-1l-1,-1l2,-1h1l2,1l1,1v-2h2ZM246,780h-3l-2,-1v-1l1,-2h-1l1,-1l-1,-1h1l4,-2h2l-1,1l-2,1l-1,1v2l-1,1l1,1ZM145,770l1,1h1l-1,1h1l1,1h4v1h-7l-1,-1l1,-1v-1h-2l1,-1ZM134,769l-2,1h-4l2,-1h3ZM271,770l1,1v-1h2l2,1h1v1l-1,1h1l2,1v-1l1,1l1,-1h2l1,1h3l-2,-1h5l1,1v1h2l2,1l-1,-1h1l1,-1l2,1v-1h1l-2,-1h8l3,1l1,-1h2l2,2h2v-1h3l3,1v-1h-2v-1h7l8,5h-1l1,1l2,1h2v1h-1v1h-1l1,1v2l-2,-1v2l-1,-1v1h-1l2,2v1h1l3,2h-1l1,1h1v1l1,2h-1l1,2l1,1l-4,-2l-4,-3l-1,-2l-1,-1v-3l-1,-2v-1l-2,-2l-1,1l2,2l-3,-1l-1,1l1,2l1,1h-1l-1,1l-1,-1h-1v1h-4v7h1l2,1h1l-1,-1h1l3,1l1,2l1,1l1,2l2,2v9h-1l-1,-1v2h-1v1l1,1v1h-1v1l1,1h1l2,2v1l1,1v1l-1,1h-1l-1,-2l-1,-1h1l-2,-1v-1v1v-1h-1v-1l-1,-1h-2v1h-1l-1,-1l1,-1l-1,-1l-1,1v2h-1v1l2,2h1v-1h2l1,1l-2,1v2l2,2l1,2l2,1v2h1v6l-2,4l-1,1h-1v1l-1,-1v1l-2,1h-1v2l-1,-1v-1h-2l-1,2v2l1,1l1,2l2,2l1,3v4l-2,1v1l-2,1v-2l-1,-1h-1v-1l-2,-2h-1v-1h-1v6h1v3l1,1h1v1h1v1l1,1v3h1v2h-1l-2,-2v-1l-1,-1v-1l-1,-1v-2l-1,-1v-1h-1v-6l-1,-1v-1l-1,-2v-2l-1,-1l-2,2h-1v-3l-1,-2v-1h-1l-2,-2v-1l-1,-1h-1v2l-1,-1v1h-2v2l-2,1l-1,2v1l-2,2h-1v8l-1,1l1,1h-1l-1,1l-1,-1l-1,-2v-1l-1,-1v-1l-1,-2v-1l-3,-6v-3l-2,1h-1l-1,-2v-1l-2,-1l-1,-1v-1l-1,-1l-2,1h-5l-1,-1h-2v-2h-1l-1,1h-2l-3,-3l-1,-2l-1,1v-1l-1,1v2l1,1h1l1,1v2l1,1l-1,-1l1,-1v2h1v1l1,-1h2v-1l1,-1v-1v2l2,2h1l2,2l-1,1v1h-1v3h-1v1h-1v1h-2v1h-1l-2,2h-1l-2,2v-1l-1,1h-2v1h-2v-2l-1,-1v-3h-1v-1l-1,-1v-1l-1,-1h-1v-1l-1,-1v-3h-2v-2l-1,-1v-1l-2,-2v-1v1l-1,1l-1,-1l-1,-2l1,2l1,1l1,2v1l2,2h-1l2,2v1l1,1h-1l1,2v1l1,1l1,2v1l1,1l2,1v1h1v1h1v1l-1,1h1l1,1h3l1,-1h3v-1h1v2l-1,1v3l-1,1l-3,6l-1,1l-2,1l-1,1l-1,2v1h-1v1h-1v2l-1,1l-1,2l1,1v4l1,1v7l-1,1h-1l-3,3h-1v1l-1,1v2h1l-1,1h1v1l-1,1h1l-1,1h-1l-2,2v3l-3,3v1l-2,1v1l-1,1h-2v1l-1,-1v1l-1,-1l-1,1h-2l-1,1l-1,-1h-1v-5l-1,-1v-2l-1,-1v-1l-1,-1v-5l-1,-1v-1l-1,-2v-1l-1,-1v-3l1,-1v-3h1v-1l1,-1v-1h-1v-5l-1,-1v-2l-3,-3l-1,-2l1,-1v-5l-1,-1v-1l-1,1h-2l-1,-1v-1l-1,-1h-2l-1,1h-2l-1,1h-6l-1,1l-4,-4h-1l-1,-1v-1l-1,-1v-1h-1v-1l-1,-1v-1h-1v-3h-1l1,-1v-1h1l-1,-1l1,-1v-4l-1,-1v-1h1v-2l1,-1v-1h1v-2h1l1,-2h1l2,-2v-3l3,-3l1,-2v-1h1l1,1h2l1,-1h2l1,-1h4l1,-1h1v1h1l1,-1h1v1l1,-1v1h-1v1h1v2h-1v1h1v1h3l2,2h1l2,2l1,-1v-2l1,-1h2l1,1h1l1,1h2l1,1h1v-1h2l1,1v-1h1l1,1v-2l1,-1v-5h-2l-1,1l-1,-1h-2v1l-1,-1h-2v-1l-1,-1v-2l1,-1h1v-1h2l1,-1h1l2,-1l2,1l1,1h2l1,-1v-2h-1l-2,-2h-1l-1,-1l1,-1l-1,-1h2l-1,-1v1h-2l-1,1v1h1l-1,1h-1v-1h-1l1,-1h-2v-1h-1v1l-1,1v1h-1v4l1,1h-2v1h-1v-1h-2l1,1h-2v1l1,1h-1h1l1,1v1l-1,-1v1h-1l1,1h-2v-2l-1,-1v-1h-1v-3h-1v-1h-1l-1,-1h-1l-1,-1v-1l-1,-1v1v-1h-2v1l2,2v1l1,1h1l1,1h1l1,1v1l-1,-1h-1v1h1v1h-1v1h-1v-1h1l-1,-1v-1h-1l-1,-1h-1l-2,-2l-1,-2h-2v1h-4l-1,1v2h-2v1l-1,2h1l-1,1v1h-1l-1,1h-2l-1,1l-2,-2v1h-2l1,-1v-1h-1v-2l1,-1v-3l-1,-1l2,-1l1,1h5v-4l-1,-1v-1h-2v-1h3v-2l1,1l2,-1v-1h1l1,-1l1,-2l1,-1h2v-5h2l-1,1h1v1l-1,1v1h1v1l1,-1h2v1h1l2,-2l1,1h1v-1h1v-3l1,-1l1,1v-1l-1,-1v-1h4l1,-1h-4l-1,1l-2,-2v-4l2,-1v-1l-1,-1l-2,2l-1,2l-1,1v3h1v2h-1v2l-1,2h-1v1h-1v-2l-1,-1l-1,-2l-1,-1l-1,2h-1l-2,-1v-5l2,-1l3,-3l2,-3l3,-3h2l1,-2h3l2,1l-1,1h2l1,1h3l3,1l1,1v1l-1,1h-1l-3,-1h-1l2,1v2l1,1h1v-1h-1l1,-1l2,1v-1l1,-2h1l1,1v-1l-1,-1v-1l-1,-1l2,1h1l-1,1l1,1h1v-1l1,-1l2,-1h1v1l1,-1h1l1,-1l1,1l1,-1h-2l1,-1h2l1,1l4,1v-1h-2v-1h-1l-1,-1v-3h2l1,1v1h1l1,1l1,2h1v3l1,1v-1h1l-1,-1l1,-1h-1l-2,-2v-1l-2,-1l1,-1l-1,-1h1l1,2l-1,-1l1,-1h2l1,1l-1,-1l-1,-2h4l-2,-1v-1h1l1,-1h3l1,-1h1v-2l2,1h-1ZM253,820l1,1v2h-1v1l1,1h1l1,1h3l-1,-1v-2h-1v-2h1v-1l-1,-1h-1l1,1l-1,-1v-1h-2v-2h-1h1v-2l1,1v-3h-2l-1,1h-1v1h-1l-1,2l2,1v1l1,1Z"/>
<path class="tl" d="M146,770h-1v-1h1l1,1ZM137,769h-2l1,-1h1l1,1ZM220,771l-1,1h-1v-1h-1l2,-1v1ZM139,768h-2l1,-1v1ZM146,769h-1v-1h1l1,1ZM144,769h-1l-1,-1h-1h1v-1h1l1,1ZM268,768l-3,1v-2ZM215,769l3,1h-2v3h-1l-2,-1h1l-1,-1l-2,-1v-1l1,-1l1,1h1v-1h1ZM220,768h1l-1,1h-4l-1,-1h3ZM234,767l-1,1h-1v-1h-1h4ZM264,768h-4l-2,-1l-1,-1h1l1,-1l4,2ZM153,767v1h-1l-2,1h-2v-1h1h-1v-1l1,-1h2v-1h1v1h1ZM167,764h3v1h-3l-1,1h-1l-1,1l-2,1h-3v1h-1v1h-2l-2,1h1l-2,1h-4l-1,-1h2v-1h2v-1h-1h1l1,-1h1l-1,-1h4l-1,-1h-3v-1l1,-1h6v-1h3v1l2,-1l1,1ZM190,764l3,1h-6v1h5l-1,1l2,-1h4v1l-2,1h-1l-2,2v2l1,1h-2l1,1l-1,1v1h-1l1,1h-3l1,1v1l-1,-1l-1,1h1l1,1v1h-2l-1,-1v1l-1,1h3l-4,2h-3l-1,1l-4,2h-1l-2,1h-1v1l-2,2v1l-1,1l-1,2h-1l-1,-1h-1l-1,-1v-2l-1,-1v-1l1,-1l-1,-2l1,-1l1,-2h1l1,-1v-1l-1,1h-1v-1l1,-1h1l-1,-1h-1l1,-1v-4l-1,-1h-5v-1l-1,-1h1l-1,-1l1,-1h2l3,-1h1l-2,-1h1l3,-1h1v-1h9l1,1l-1,-1h1l2,-1h3l2,-1Z"/>
<path class="th" d="M222,915h-1v-2h-1h1v-1h-1v-6h-1v-2l-1,-1v-2h-1v-1h8v1h5v-1h2v1h-2v1v-1h-3v5h-1v9h-1v1h-2v-1v1v-1Z"/>
<path class="tg" d="M66,970h1l1,-1h4v-1h5v-1h5v-1h6v-1h6l1,-1h7v-1h8v-1h9l1,-1h11v-1h14v-1h20v-1h79v1h20v1h14v1h11l1,1h9v1h8v1h7l1,1h6v1h6v1h5v1h5v1h4l1,1h1M21,927h6v-1h7v-1h8v-1h10v-1h10v-1h12v-1h14v-1h18v-1h23v-1h38v-1h75v1h38v1h23v1h18v1h14v1h12v1h10v1h10v1h8v1h7v1h6M5,877h399M21,826h4v1h7v1h8v1h9v1h10v1h11v1h14v1h16v1h21v1h32v1h103v-1h32v-1h21v-1h16v-1h14v-1h11v-1h10v-1h9v-1h8v-1h7v-1h4M66,783v1h5v1h4v1h5l1,1h5v1h6l1,1h6l1,1h7v1h10v1h10v1h13l1,1h17v1h36v1h21v-1h36v-1h17l1,-1h13v-1h10v-1h10v-1h7l1,-1h6l1,-1h6v-1h5l1,-1h5v-1h4v-1h5v-1M140,755h-1v1h-3v1h-2v1h-2v1h-2v1h-2v1h-2l-1,1h-1l-1,1h-1l-1,1h-1v1h-2v1h-2v1h-2v1h-1l-1,1h-1v1h-2v1h-1l-1,1h-1v1h-2v1h-1v1h-2v1h-1v1h-2v1h-1v1h-1l-1,1h-1v1h-1v1h-2v1h-1v1h-1v1h-1v1h-2v1h-1v1h-1v1h-1v1h-1v1h-1v1h-1l-1,1h-1v1h-1v1h-1v1h-1v1h-1v1h-1v1h-1v1h-1v1h-1v1l-1,1v1h-1v1h-1v1h-1v1h-1v1h-1v1l-1,1v1h-1v1h-1v1h-1v2h-1v1h-1v2h-1v1h-1v2h-1v1h-1v2h-1v2h-1v1h-1v2h-1v2h-1v2h-1v2h-1v2l-1,1v2h-1v2l-1,1v2h-1v3h-1v4h-1v4h-1v5h-1v9h-1v13l1,1v8h1v5h1v4h1v4h1v3h1v3h1v2h1v3h1v2h1v2h1v2h1v2h1v2h1v2h1v1l1,1v1h1v2h1v1h1v2h1v1h1v1h1v2h1v1h1v1l1,1v1h1v1h1v1h1v1l2,2v1h1v1h1v1h1v1h1v1h1v1h1v1h1v1h1v1h1v1h1v1h1v1h1v1h1v1h2v1h1v1h1v1h1v1h1v1h1l1,1h1v1h1v1h1v1h2v1h1v1h1l1,1h1v1h1v1h2v1h1v1h2v1h1l1,1h1v1h2v1h1v1h2v1h2v1h1l1,1h1v1h2v1h2v1h2v1h2v1h2v1h2v1h2v1h2l1,1h2v1h2v1h2M153,755h-1v1h-2v1h-2v1h-1v1h-2v1h-2v1h-1v1h-2v1h-1v1h-2v1h-1v1h-2v1h-1v1h-1v1h-2v1h-1v1h-1l-1,1h-1v1h-1v1h-1v1h-1v1h-1l-1,1h-1v1h-1v1h-1v1h-1v1h-1v1h-1v1h-1v1h-1v1h-1v1h-1v1h-1v1h-1v1h-1v1h-1v1h-1v1h-1v1h-1v1l-2,2v1h-1v1h-1v1h-1v1l-1,1v1h-1v1h-1v2h-1v1h-1v1l-1,1v1h-1v2h-1v1h-1v2h-1v1h-1v2h-1v2h-1v2h-1v2h-1v2h-1v2h-1v2h-1v3h-1v2h-1v3h-1v3h-1v3h-1v3h-1v4l-1,1v4h-1v6l-1,1v30h1v6h1v5h1v4h1v3h1v3l1,1v2l1,1v2h1v3h1v2h1v2h1v2h1v2l1,1v1h1v2h1v2h1v2h1v2h1v1h1v2h1v1h1v2h1v1h1v2h1v1h1v1h1v2h1v1h1v1h1v1l1,1v1h1v1h1v1h1v1h1v1h1v1h1v1l3,3v1h1l3,3h1v1h1v1h1v1h1v1h1v1h1v1h1v1h1l1,1h1v1h1v1h1v1h1l1,1h1v1h1v1h1l1,1h1v1h1v1h2v1h1v1h2v1h1v1h2v1h2v1h1v1h2v1h1l1,1h1v1h2M166,755h-1v1h-1v1h-1l-1,1h-1v1h-1v1h-1v1h-1v1h-1v1h-1l-2,2h-1v1h-1v1h-1v1h-1v1h-1v1h-1v1h-1v1h-1v1h-1v1l-2,2v1h-1v1h-1v1h-1v1h-1v1l-1,1v1h-1v1h-1v1h-1v2h-1v1h-1v1l-1,1v1h-1v1h-1v2h-1v1h-1v2h-1v2h-1v1h-1v2h-1v2h-1v2h-1v1l-1,1v1l-1,1v1l-1,1v2h-1v2h-1v2h-1v3h-1v2h-1v3h-1v3h-1v3h-1v3h-1v4h-1v4h-1v5h-1v6h-1v8h-1v30h1v7l1,1v5h1v5h1v4h1v4h1v3h1v3h1v3h1v3h1v3h1v2h1v2h1v2l1,1v2h1v2h1v2h1v2h1v1h1v2h1v2h1v2h1v1h1v2h1v1h1v2h1v1l1,1v1h1v1h1v2h1v1h1v1h1v1l1,1v1h1v1h1v1h1v1l1,1v1h1v1h1v1h1v1h1v1h1v1h1v1h1v1h1v1h1v1h1v1h1v1h1v1h1v1h1v1h1l2,2h1v1h1v1h1v1h1v1h2v1h1"/>
<path class="tg" d="M179,755h-1v1h-1v2h-1v1h-1v1h-1v1h-1v2h-1v1h-1v1l-1,1v1h-1v1l-1,1v1h-1v1l-1,1v1h-1v2h-1v1l-1,1v1h-1v2h-1v2h-1v2h-1v2h-1v2h-1v2h-1v2h-1v2h-1v2l-1,1v2h-1v2l-1,1v2h-1v3h-1v3h-1v3h-1v3h-1v4h-1v4h-1v4h-1v4h-1v5l-1,1v5h-1v8h-1v11h-1v29l1,1v10l1,1v7h1v6h1v5h1v4l1,1v4h1v3l1,1v3h1v3h1v3h1v3h1v3h1v3h1v2h1v3h1v2h1v2h1v2l1,1v2h1v2h1v1l1,1v1l1,1v1h1v2h1v2h1v1l1,1v1h1v2h1v1h1v2h1v1h1v2h1v1h1v1l1,1v1h1v1h1v1h1v2h1v1h1v1h1M192,755h-1v3h-1v2h-1v3h-1v3h-1v3h-1v3h-1v3h-1v3l-1,1v3h-1v4h-1v4h-1v4l-1,1v4h-1v5h-1v6h-1v6l-1,1v7h-1v8h-1v11l-1,1v18h-1v29l1,1v18h1v11h1v8l1,1v7h1v6h1v6h1v5h1v5h1v4h1v4h1v4h1v4h1v3h1v3l1,1v3h1v2l1,1v2h1v3h1v3h1v2h1M205,755v243M217,755h1v3h1v2h1v3h1v3h1v3h1v3h1v3h1v3l1,1v3h1v4h1v4h1v4l1,1v4h1v5h1v6h1v6l1,1v7h1v8h1v11l1,1v18h1v29l-1,1v18h-1v11h-1v8l-1,1v7h-1v6h-1v6h-1v5h-1v5h-1v4h-1v4h-1v4h-1v4h-1v3h-1v3l-1,1v3h-1v2l-1,1v2h-1v3h-1v3h-1v2h-1M230,755h1v1h1v2h1v1h1v1h1v1h1v2h1v1h1v1l1,1v1h1v1l1,1v1h1v1l1,1v1h1v2h1v1l1,1v1h1v2h1v2h1v2h1v2h1v2h1v2h1v2h1v2h1v2l1,1v2h1v2l1,1v2h1v3h1v3h1v3h1v3h1v4h1v4h1v4h1v4h1v5l1,1v5h1v8h1v11h1v29l-1,1v10l-1,1v7h-1v6h-1v5h-1v4l-1,1v4h-1v3l-1,1v3h-1v3h-1v3h-1v3h-1v3h-1v3h-1v2h-1v3h-1v2h-1v2h-1v2l-1,1v2h-1v2h-1v1l-1,1v1l-1,1v1h-1v2h-1v2h-1v1l-1,1v1h-1v2h-1v1h-1v2h-1v1h-1v2h-1v1h-1v1l-1,1v1h-1v1h-1v1h-1v2h-1v1h-1v1h-1M243,755h1v1h1v1h1l1,1h1v1h1v1h1v1h1v1h1v1h1l2,2h1v1h1v1h1v1h1v1h1v1h1v1h1v1h1v1h1v1l2,2v1h1v1h1v1h1v1h1v1l1,1v1h1v1h1v1h1v2h1v1h1v1l1,1v1h1v1h1v2h1v1h1v2h1v2h1v1h1v2h1v2h1v2h1v1l1,1v1l1,1v1l1,1v2h1v2h1v2h1v3h1v2h1v3h1v3h1v3h1v3h1v4h1v4h1v5h1v6h1v8h1v30h-1v7l-1,1v5h-1v5h-1v4h-1v4h-1v3h-1v3h-1v3h-1v3h-1v3h-1v2h-1v2h-1v2l-1,1v2h-1v2h-1v2h-1v2h-1v1h-1v2h-1v2h-1v2h-1v1h-1v2h-1v1h-1v2h-1v1l-1,1v1h-1v1h-1v2h-1v1h-1v1h-1v1l-1,1v1h-1v1h-1v1h-1v1l-1,1v1h-1v1h-1v1h-1v1h-1v1h-1v1h-1v1h-1v1h-1v1h-1v1h-1v1h-1v1h-1v1h-1v1h-1v1h-1l-2,2h-1v1h-1v1h-1v1h-1v1h-2v1h-1M256,755h1v1h2v1h2v1h1v1h2v1h2v1h1v1h2v1h1v1h2v1h1v1h2v1h1v1h1v1h2v1h1v1h1l1,1h1v1h1v1h1v1h1v1h1l1,1h1v1h1v1h1v1h1v1h1v1h1v1h1v1h1v1h1v1h1v1h1v1h1v1h1v1h1v1h1v1h1v1h1v1l2,2v1h1v1h1v1h1v1l1,1v1h1v1h1v2h1v1h1v1l1,1v1h1v2h1v1h1v2h1v1h1v2h1v2h1v2h1v2h1v2h1v2h1v2h1v3h1v2h1v3h1v3h1v3h1v3h1v4l1,1v4h1v6l1,1v14l1,1h-1v15h-1v6h-1v5h-1v4h-1v3h-1v3l-1,1v2l-1,1v2h-1v3h-1v2h-1v2h-1v2h-1v2l-1,1v1h-1v2h-1v2h-1v2h-1v2h-1v1h-1v2h-1v1h-1v2h-1v1h-1v2h-1v1h-1v1h-1v2h-1v1h-1v1h-1v1l-1,1v1h-1v1h-1v1h-1v1h-1v1h-1v1h-1v1l-3,3v1h-1l-3,3h-1v1h-1v1h-1v1h-1v1h-1v1h-1v1h-1v1h-1l-1,1h-1v1h-1v1h-1v1h-1l-1,1h-1v1h-1v1h-1l-1,1h-1v1h-1v1h-2v1h-1v1h-2v1h-1v1h-2v1h-2v1h-1v1h-2v1h-1l-1,1h-1v1h-2"/>
<path class="tg" d="M269,755h1v1h3v1h2v1h2v1h2v1h2v1h2l1,1h1l1,1h1l1,1h1v1h2v1h2v1h2v1h1l1,1h1v1h2v1h1l1,1h1v1h2v1h1v1h2v1h1v1h2v1h1v1h1l1,1h1v1h1v1h2v1h1v1h1v1h1v1h2v1h1v1h1v1h1v1h1v1h1v1h1l1,1h1v1h1v1h1v1h1v1h1v1h1v1h1v1h1v1h1v1l1,1v1h1v1h1v1h1v1h1v1h1v1l1,1v1h1v1h1v1h1v2h1v1h1v2h1v1h1v2h1v1h1v2h1v2h1v1h1v2h1v2h1v2h1v2h1v2l1,1v2h1v2l1,1v2h1v3h1v4h1v4h1v5h1v9h1v13l-1,1v8h-1v5h-1v4h-1v4h-1v3h-1v3h-1v2h-1v3h-1v2h-1v2h-1v2h-1v2h-1v2h-1v2h-1v1l-1,1v1h-1v2h-1v1h-1v2h-1v1h-1v1h-1v2h-1v1h-1v1l-1,1v1h-1v1h-1v1h-1v1l-2,2v1h-1v1h-1v1h-1v1h-1v1h-1v1h-1v1h-1v1h-1v1h-1v1h-1v1h-1v1h-1v1h-1v1h-2v1h-1v1h-1v1h-1v1h-1v1h-1l-1,1h-1v1h-1v1h-1v1h-2v1h-1v1h-1l-1,1h-1v1h-1v1h-2v1h-1v1h-2v1h-1l-1,1h-1v1h-2v1h-1v1h-2v1h-2v1h-1l-1,1h-1v1h-2v1h-2v1h-2v1h-2v1h-2v1h-2v1h-2v1h-2l-1,1h-2v1h-2v1h-2"/>
<rect x="206" y="889" width="36" height="37" fill-opacity="0" stroke="#ffffff" stroke-opacity="0.5" stroke-width="5.0"/>
<rect x="208" y="891" width="36" height="37" fill-opacity="0" stroke="#113311" stroke-opacity="0.8" stroke-width="5.0"/>
<rect x="207" y="890" width="36" height="37" fill-opacity="0" stroke="#45a249" stroke-opacity="0.9" stroke-width="5.0"/>
</svg>
