<?xml version="1.0" encoding="UTF-8" standalone="no"?>
<svg xmlns:svg="http://www.w3.org/2000/svg" xmlns="http://www.w3.org/2000/svg" xmlns:xlink="http://www.w3.org/1999/xlink" height="1000" width="1000">
<!-- made with pythonshp (GPL): github.com/sanjayrao77/pythonshp , underlying data may come from naturalearthdata.com -->
<!-- 
COPYRIGHT: THIS SVG FILE IS RELEASED INTO THE PUBLIC DOMAIN
 -->
<!-- 
vars : {
	'cmdline' : 'pythonshp.py publicdomain wiki1 newcaledonia locatormap'
	'title' : 'New Caledonia locator'
	'version' : '1.0.5'
}
 -->
<defs>
	<radialGradient id="watergradient" cx="500" cy="500" r="500" fx="500" fy="500" gradientUnits="userSpaceOnUse">
		<stop offset="0%" stop-color="#70add3"/>
		<stop offset="11%" stop-color="#6eaad0"/>
		<stop offset="22%" stop-color="#6ca7cc"/>
		<stop offset="31%" stop-color="#6ba5c9"/>
		<stop offset="41%" stop-color="#69a2c6"/>
		<stop offset="51%" stop-color="#679fc2"/>
		<stop offset="59%" stop-color="#669dbf"/>
		<stop offset="67%" stop-color="#649abc"/>
		<stop offset="75%" stop-color="#6297b9"/>
		<stop offset="81%" stop-color="#6095b6"/>
		<stop offset="87%" stop-color="#5f92b2"/>
		<stop offset="92%" stop-color="#5d8faf"/>
		<stop offset="95%" stop-color="#5b8dac"/>
		<stop offset="98%" stop-color="#598aa8"/>
		<stop offset="100%" stop-color="#5685a2"/>
	</radialGradient>
	<radialGradient id="landgradient" cx="500" cy="500" r="500" fx="500" fy="500" gradientUnits="userSpaceOnUse">
		<stop offset="0%" stop-color="#dddddd"/>
		<stop offset="11%" stop-color="#d7d7d7"/>
		<stop offset="22%" stop-color="#d1d1d1"/>
		<stop offset="31%" stop-color="#cccccc"/>
		<stop offset="41%" stop-color="#c6c6c6"/>
		<stop offset="51%" stop-color="#c0c0c0"/>
		<stop offset="59%" stop-color="#bbbbbb"/>
		<stop offset="67%" stop-color="#b5b5b5"/>
		<stop offset="75%" stop-color="#afafaf"/>
		<stop offset="81%" stop-color="#aaaaaa"/>
		<stop offset="87%" stop-color="#a4a4a4"/>
		<stop offset="92%" stop-color="#9e9e9e"/>
		<stop offset="95%" stop-color="#999999"/>
		<stop offset="98%" stop-color="#939393"/>
		<stop offset="100%" stop-color="#888888"/>
	</radialGradient>
	<radialGradient id="bordergradient" cx="500" cy="500" r="500" fx="500" fy="500" gradientUnits="userSpaceOnUse">
		<stop offset="0%" stop-color="#444444"/>
		<stop offset="11%" stop-color="#3f3f3f"/>
		<stop offset="22%" stop-color="#3a3a3a"/>
		<stop offset="31%" stop-color="#363636"/>
		<stop offset="41%" stop-color="#323232"/>
		<stop offset="51%" stop-color="#2d2d2d"/>
		<stop offset="59%" stop-color="#292929"/>
		<stop offset="67%" stop-color="#242424"/>
		<stop offset="75%" stop-color="#1f1f1f"/>
		<stop offset="81%" stop-color="#1b1b1b"/>
		<stop offset="87%" stop-color="#161616"/>
		<stop offset="92%" stop-color="#121212"/>
		<stop offset="95%" stop-color="#0e0e0e"/>
		<stop offset="98%" stop-color="#090909"/>
		<stop offset="100%" stop-color="#000000"/>
	</radialGradient>
</defs>
<style type="text/css">
<![CDATA[
.c1 {stroke:#45a211;fill-opacity:0}
.c2 {stroke:#45a211;fill-opacity:0;stroke-width:2}
.fs {font:14px sans;stroke:#ffffff;stroke-width:2px;stroke-opacity:0.8;text-anchor:middle}
.ft {font:14px sans;fill:#000000;fill-opacity:1;stroke-opacity:0;text-anchor:middle}
.sb {stroke:url(#bordergradient);fill-opacity:0}
.sg {stroke:#000000;fill-opacity:0.0;stroke-opacity:0.2}
.sh {fill:#45a211;stroke:#000000}
.sl {fill:url(#landgradient);stroke:url(#bordergradient)}
.sp {stroke:url(#landgradient);fill-opacity:0}
.sr {stroke:url(#watergradient);fill-opacity:0}
.sw {fill:url(#watergradient);stroke:url(#watergradient);stroke-opacity:0.8}
.tb {fill:#eeeeee;stroke:black;stroke-width:2}
.tg {stroke:black;stroke-opacity:0.2;fill-opacity:0}
.th {fill:#45a211;stroke:#378100}
.tl {fill:#aaaaaa;stroke:black}
.w1 {stroke:#ffffff;fill-opacity:0;stroke-opacity:0.6}
.w2 {stroke:#ffffff;fill-opacity:0;stroke-opacity:0.6;stroke-width:2}
.zh {fill:#45a211;stroke:#115511}
.zl {fill:#dddddd;stroke:#444444}
]]>
</style>
<circle cx="500.0" cy="500.0" r="500.0" fill="url(#watergradient)"/>
<path class="sl" d="M653,24h1l1,1h1h-1h1h-1v-1h-1l1,1h2l1,1h2l1,1h2l1,1h2l1,1h1l1,1h2l1,1h2l1,1h2l1,1h1l1,1h2l1,1h2l1,1h2l2,2h2l1,1h1l1,1h1l1,1h2l1,1h1l1,1h2l1,1h1l1,1h1l1,1h1l1,1h2l2,2h1l1,1h2l2,2h2l2,2h1l1,1h2l1,1h1l2,2h1l1,1h1l1,1h1l1,1h1l2,2h1l1,1h1l1,1h1l1,1h1l2,2h1l1,1h1l1,1h1l2,2h1l2,2h1l1,1h1l2,2h1l2,2h1l1,1h1l2,2h1l2,2h1l3,3h1l2,2h1l1,1h1l3,3h1l3,3h1l2,2h1l4,4h1l3,3h1l4,4h1l4,4h1l4,4h1l5,5h1l10,10h1l6,6v1h1l7,7h1v1l7,7v1h1l6,6v1l10,10v1l4,4v1l5,5v1l4,4v1l4,4v1l3,3v1l4,4v1l2,2v1l3,3v1l3,3v1l1,1v1l2,2v1l3,3v1l2,2v1l2,2v1l1,1v1l2,2v1l2,2v1l1,1v1l2,2v1l2,2v1l1,1v1l1,1v1l2,2v1l1,1v1l1,1v1l2,2v1l1,1v1l1,1v1l1,1v1l1,1v1l2,2v1l1,1v2l1,1v1l2,2v2l2,2v2l1,1v1l1,1v1l1,1v1l1,1v1l1,1l-2,-3l1,1l-1,-1v-2h-1v-1l-1,-2v-1v1v-1l-1,-1l-1,-2l-1,-1v-1l-1,-1l-1,-3l-1,-1v-2h-1l-1,-2v-1l-1,-1v-1h-1v-1l-1,-1v-1l-1,-1v-1l-1,-1v-1l-1,-1v-1l-1,-1l-1,-2l-2,-2v-1l-1,-1v-1l-1,-1v-1l-2,-2v-1l-1,-2l-2,-2v-1l-1,-1l-1,-2l-2,-2v-1l-1,-1v-1h-1v-1h-1v-1l-2,-2h1h-1l-1,-2h-1v-1l1,2l2,3l1,1l1,2l1,1v1l1,2h1v2l1,1h1v1l1,1l1,2l2,3l1,1v1h1l1,3l1,1v1h1v2l1,1l1,2l2,2v2h1v1l1,1v1l1,1v1v-2h-1l2,2v2h1v1l1,1v1l1,2l1,1v1l1,1l1,2l1,1v2l1,1v1l1,2l1,1v1v-1l-1,-1l1,2h1v2l1,1v1l1,1v1l1,1v2h1v1l-1,-1l-1,-3v-1h-1v-1l-1,-2l-1,-1v-1l-1,-1l-1,-2v-2l-3,-3v-2l-1,-2l-1,-1v-1h-1v-1l-2,-4v-1h-1l-1,-3l-1,-1v-1l-1,-1v1l-1,-1v-1l-1,-1v-1h-1v-1l-2,-2v-2h-1v-1l1,1v1h1l-1,-1v-1h-1v-2l-1,-1l-1,-2l-1,-1l-2,-3l-1,-2h-1v-1l-2,-2v-1l-1,-1v-1l-2,-2v-1h-1v-1l-1,-1v-1l-2,-2v-1h-1l-1,-2l-1,-1v-1l-1,-1l-1,-2l-2,-2l-1,-2l-2,-2v-1l-1,-1l-1,-2l-2,-2h-1v-1l-5,-5v-1h-1l-2,-2h-1v-1h-1v-1l-2,-2v-1h-1v-1h-1v-1l-2,-2v-1h-1l-1,-1v-1l-2,-1l-1,-2h-1v-2h-1v-1l-1,-1h-1l-1,-2l-4,-4h1v1l1,1h1v1v-1h-1l-1,-1v-1h-1v-1h1h-1v-1v1l-1,-1l1,1v1v-1h-1l-2,-2h1h-1v-1h-1v-1l-2,-2l-2,-1l-1,-2l-2,-2h-1v-1l-7,-7v-1v1v-1l-3,-3v-1l-1,-1h-1l-4,-4v-1l-1,-1h-1l-2,-2l-1,-2h-1h1h-1v-1v1v-1l-3,-3l-1,-2h-1v-1h-1l-1,-1l-3,-4h-1l-2,-2l-1,-2h-1h1l1,1l-1,-1h-1v-1h-1l-1,-1l1,1l-3,-3h-1v-1v1v-1h-1v-1l-2,-1l-3,-3h-1l-2,-2h-1h2v1h1l2,1l1,1h1v1h1v1l1,1h1v1v-1h-1v-1h-1v-1l2,2h-1h1l1,1h1v1l-1,-1l1,1l-1,-1v1h1v-1h-1v-1h-1l-2,-2h-1v-1h-1h1h-1v-1h-1v-1h-1l-1,-1h-1h1h-1v-1l-1,-1h-1v-1h-1l-1,-1l1,1l-1,-1h-1v-1h-1v-1v1h1h-2v-1h-1v-1l1,1h-1v-1l-2,-1v-1h-1h1v1h1v1l-2,-2h-1l-2,-2h-1v-1h-1v-1h-1h1v1h1h-1l-1,-1v1h1h-1v-1h-1l-1,-1h-1v-1h-1l-1,-1l1,1h-1l-1,-1h-1l-3,-3h1h-1l-1,-1l1,1h-1v-1h-1l-1,-1h-1v-1h-1v-1l1,1h1l1,1l-1,-1h-1v-1h-2v-1h-1v-1v1h1l1,1v1l1,1h1l-2,-1l-2,-2h-1h1l-2,-2h-2l-3,-3h-2v-1h-1h1l2,1l2,2v-1h-1l-1,-1h-1l-1,-1h-1v-1h-1l1,1h1v1l-1,-1h-1l-1,-1h-1v-1h-1l-1,-1h-1l-2,-2h-1v-1h-1v-1h-1v-1h-1l-1,-1h-1h1l1,1h-1l-2,-2h-1v-1v1h1l1,1h1v1h1l1,1h-1l-1,-1h-1v-1h-1l-2,-2h-1l-1,-1h-1v1h1l-1,-1h-1l-2,-2h-1l-1,-1h-1v-1h-2v-1h-2v-1l-3,-1l-2,-1l-1,-1l1,1h1l-2,-1h-1h1l-1,-1v1h-1v-1h-1l-1,-1h-1l-1,-1l1,1l-1,-1h-2l-2,-2h-1l-2,-1l-1,-1h-1h1l1,1h1l1,1h1v1h1l1,1h1h-1l-1,-1h-2v-1h-1l-1,-1h-1l-1,-1l1,1h1h-2v-1h-1l1,1h2v1h2v1h1h-1l-1,-1h-1l-3,-1h-1l-1,-1h-1v-1h-2v-1h-2l-2,-1h-1l-1,-1h-1v-1h-1h1l1,1h1h-1l-1,-1h-3l-2,-1h-1l-1,-1h-3l-1,-1h-3l-1,-1h-2l-1,-1h-1v-1h-1v1h1h-2v-1h-3v-1h-2v-1h-5v-1h-1l1,1h-1h2v1h2v1h1h-3v1v-1h-1h1h-1h1v1h-1v1l-1,-1h-3v-1h1h-2l-1,-1h-1v-1l-1,-1h-1v-1h3v1h1l-2,-1v-1h-3v1h-1h1h-1v1h1h-2l1,1h1h-1l1,1h-2l2,2h3v1h1h-1v1h-1l1,1h-2l-1,1h-1v1h1h-1v1h-4v1h2l-1,1v-1h-1v1h-2v1l-1,-1h-2v1h-4v-1h1h-2v1h-1v1h-1v-1h-1h1v1h-1l-1,-1v1h-1v-1h1l1,-1v-1h5l1,1v-1l1,1h1l-1,-1h-1v-1l1,-1h3v-2h1v-1h-1l-1,-1h1h-1v-1h-1v-1h1h-1v-1v1h-4v-1h-1h1h-1l-1,-1v1h-1v-1v1h1l1,1h-1l-2,-1h-1l-1,-1h-7l-1,-1h-2v-1l-1,-1h-1l-1,-1l-2,-1h-1v-1h1h-1v1h-1h2v1h-5l-1,-1l-2,-1h-2l-1,-1h-2l1,-1h2v1h3l-1,-1v1l1,-1h-6v-1h-4v-1h-2l-1,-1h1h-1h1v-2h1l1,1l-1,-1h-1v-1h1h-1h3v1v-1h1v1h2v-1h4v-1h-1l-1,-1h-3v-1l1,1v-1h-9l-2,-1h-6l-1,-1h-1h1h-1l-2,-1h2h-2l-3,-1h-1v-1l1,1v-1h8v1h5v1h3v-1v1h1v-1h-3l-2,-1h-1h1l1,1h5l1,1l-1,-1h-4l-1,-1h-3v-1h-5l-1,-1l-7,-1l-2,-1h-2v-1h5v-1h-1h4v-1h1v1h4v-1v1h3l1,1v-1h1v1h4l2,1h4v1h5l2,1h3l2,1h2l2,1h4l1,1h2l2,1h2l2,1h2l3,1h1l1,1h2l1,1h3l2,1h-1l-1,-1h-2l-1,-1v1v-1l1,1l-1,-1l1,1h-1v-1h-1h1l1,1h2l1,1Z"/>
<path class="sp" d="M654,24l1,1h2l1,1h2l1,1h2l1,1h2l1,1h1l1,1h2l1,1h2l1,1h2l1,1h1l1,1h2l1,1h2l1,1h2l2,2h2l1,1h1l1,1h1l1,1h2l1,1h1l1,1h2l1,1h1l1,1h1l1,1h1l1,1h2l2,2h1l1,1h2l2,2h2l2,2h1l1,1h2l1,1h1l2,2h1l1,1h1l1,1h1l1,1h1l2,2h1l1,1h1l1,1h1l1,1h1l2,2h1l1,1h1l1,1h1l2,2h1l2,2h1l1,1h1l2,2h1l2,2h1l1,1h1l2,2h1l2,2h1l3,3h1l2,2h1l1,1h1l3,3h1l3,3h1l2,2h1l4,4h1l3,3h1l4,4h1l4,4h1l4,4h1l5,5h1l10,10h1l6,6v1h1l7,7h1v1l7,7v1h1l6,6v1l10,10v1l4,4v1l5,5v1l4,4v1l4,4v1l3,3v1l4,4v1l2,2v1l3,3v1l3,3v1l1,1v1l2,2v1l3,3v1l2,2v1l2,2v1l1,1v1l2,2v1l2,2v1l1,1v1l2,2v1l2,2v1l1,1v1l1,1v1l2,2v1l1,1v1l1,1v1l2,2v1l1,1v1l1,1v1l1,1v1l1,1v1l2,2v1l1,1v2l1,1v1l2,2v2l2,2v2l1,1v1l1,1v1l1,1v1l1,1v1l1,1M650,23h1l1,1h1"/>
<path class="sl" d="M392,12h1l1,-1l-1,1h-1h2v-1h5v-1h5v-1h4l-1,1h-1h1h-4l-1,1h1l1,-1v1h-3v1h1v-1h1l-1,1h1v-1h4v-1h3l1,-1v1h3v-1h8v-1h5l1,-1h1h-1h4l1,-1h1h-1h8v1h1l1,-1h5l2,-1h3v1h-1h1h4l-1,1h2l2,-1h18v1h-1h3v1h1v1h-1h1l1,-1h-1h2l1,-1h18v1h4l1,1h3l1,-1h-1l-1,-1h-1h19l2,1h6l1,1h5l2,1h1h-1h3v1h1v-1h-2h2l1,1h2l7,1v1h2l1,1h2v1h2l-1,-1h-1h1h-2v-1h2l2,1h-1h6l1,1h2l2,1h4l-1,1v-1h-1v1h-5v1h-1h1h-1l1,1h1h-1h1v1h-2v-1h-4l-1,-1h-5v-1h-1l-1,-1h-9v-1h-2v-1h1h-4v1h2v1l-1,1h-9l-1,-1h-1l1,1h-3l-1,-1l-1,1h-1h1v-1h1v1h1h4v1h5v1h1v1h-1h2l1,1h2v1h1l-1,1l-6,-1h-5v1h-6l-1,1h-4l-1,1h-3v1h-3l-1,1h-4v2h-1l-1,-1h-1l-1,-1h-10l-1,1l-2,1h-2v-1h1v-1h-2l-1,1h-2l-1,1h-1l-1,-1h-1v1h-1v-1h-1l-1,1h-1l-1,1v1h-1v1h-2l-1,1h-1l-1,1v1h1v1l1,-1h3v1h-1l-1,1v2h2v2h-4l1,-1h1h-2v1h-2l-2,2v2h1v1h-1l-1,1h-6l-2,1h-1l-1,1v3h-5l-1,1h-2v1l-1,1v1l-2,2l-2,1h-2l-4,2h-1v-7h-1l1,-1v-8l1,-2l3,-3h1l2,-1l1,-1h1l1,-1v-1h3l1,-1h4l1,-1h2v-1h2v-1l2,-1h2l1,-1h2l2,-1h1l1,-1h1v-1h4l1,-1h3v-1h1v-1h1v-1l1,-1h2l-1,-1l-6,1v2h1h-5l-5,2h-1l-1,1h-2v-1h1h-2v-1h2v-1h1h-13l-1,1h-2v1h-2l-1,1h-2l-1,1h-3l-2,1l-1,1h-1v1h4l-1,1h-4l-1,1v-1h-2l-1,1h-6l-1,1h-2v-1h4l1,-1h-8l-2,-1h-1l-1,1h-2l-1,1h1h-10l-2,1h-12l-3,1h-1l-4,2h-1l-1,1h-2l-1,1h-1l-4,2l-1,1h-3v1h-1l-2,1h-1l-3,1l-1,1h-1l-2,1l-1,1h-1l-1,1h-2l-1,1h-2l-4,2h-1l-2,1h-1v1h6l-2,2h-1v1h1v-1l1,1l1,-1v-1h2v-1h1l-1,1h-1v1h1h-1l-1,1h-2v1h1l2,-1h1l2,-1h1v-1h1l-2,2h-1h1l1,-1h1l1,-1v-1h6v1l1,1h1l1,1v1h-2l1,1h-1v1h-1v1h1l-1,1h-1v1h-1l-2,1l-1,1h-1l-1,1v1h-1l-1,2l-1,1v1h-1l-1,1h1l-2,2h-1v1h-1v1l-2,2h-1v1l-2,1h-1l-1,1h-1l-2,1l-1,2l-4,1v1h-1l-1,1v1l-1,1l-4,2l-1,1l-4,2l-3,2l-2,1l-2,2h-1l-1,1h-1l-3,3h-1l-2,1l-2,2l-2,1l-4,1l-1,1l-4,2h-2l-1,-1h-1l-1,1l1,-2v-1v1h-2v1h-1l1,-1h1h-2l-2,1l-1,2h-1l-1,1h-2v1l-1,1h-2l-1,1h-1l-3,3h-1l-1,1l1,1h-1l-1,1v1l-1,1l-2,1h-1l-2,2h-2l-1,1v1h-2l-1,1h-1l-1,1h-2v2h-1v1h-1v1h1v1l1,1h1v1l-1,2l1,2v5l-1,1v1l-1,1v1h-1v1h1l-1,1l-1,2l-3,3h-1l-1,1h-3v2h-1v-1h-2l-1,1h-1v1h-1v-1v1h-1v1h1h-1v1h-1v-1l1,-1l-2,1l-1,2h-1v-1l-1,1v1h-1v-1h1l-1,-1v-1h2v-1v1h-1l1,-1v-2l1,-1h1v-1h1h-1v-1h1l1,-1h1l-1,-1h1v-3h1v-1h-1v-1l1,-1h2v1l1,-1v-2h1v-1h-1l1,-1v-1h1h-3v1v-1h-2l-1,1h-2v-1h1v-1l-1,1v-1l-1,1l1,-1v-1h1l1,-1l2,-1h1v-1h-1l3,-3v-1h-1v-1h-1l-1,1v-2h-1l-1,1h-2v1h-2l-1,1h-2l-3,2l-2,2h-1v1h-2v1h-2l-1,1v-1h1l3,-2v-1h2v-1l-2,1h-1l1,-1h1v-1l1,-1l2,-1l1,-1l2,-1v-1h1v-3l-1,1h-2l-1,1h-1v1h-1l-3,3h-1l-5,3l-1,1h-1v1l-1,1l-2,1l-1,1h-2l-1,1v-1h-1l-4,4v2h4v1l-1,1v1l-2,2h3l1,-1h1l1,-2h2v-1l2,-1h1l1,1h5v1l-1,1v1h-1l-1,1v-1h-1l-4,2l-1,1h-2v1h-1v1h-1v1l-1,1h-1v-1l-1,1v1l-1,1h-1v1h-1v1h-1l-1,1h-1v1l-2,1l-1,1v1l-1,1h2v1h2v1l-1,2v2l-1,2v2l-1,1v1l2,1l-1,1v1h1v2h-4v-1h-2l-2,1h-1h2l1,-1h1v2h1l2,2v2l-1,1h-2v1h-1l-2,2h-1v1h-3l-1,1v1v-1h1l1,1h1l2,-2h1v2h2l-2,2h1v1l-2,3v-1h-2v3l-1,1h-1v3h-2v1v-1h-1v1l-5,5v1l-4,4v1l-2,2v-2l-1,1v3h-1l-2,2h-1v1h1v-1h1v1h-1v1l-1,1v2h-1v-1v1l-1,-1v2h-2v1l-1,1v1l-1,1h-1h1l-2,2h-3v1h-1v1h1v1l-2,2h-1l-2,2v1h-1h1h-1l-1,1l-1,-1l-1,2v1h-1v1h-1v2h-2v1h-1l-1,1h-2v1h-2l-1,1h-1v1v-1h-1v2h-1v-1l-1,1h-2v-3l1,-1h-1v1l-1,1v2l-1,2v1h-1v1h-1v1v-1l-3,3h-1v1v-1l-1,1h-2v1h-1v1l-1,1h-2v1h-1l-2,2h-1v1v-1v1h-1l-1,1v2h1h-1v3l-1,1h-2v-1l1,1v-6l1,-1v-1h1v-1h-1v-1v1l-1,1h-1v1v-2h-1v1v-2h-1v2h-1l-1,1h-1v1h-1v1h-1l-1,1v1l-2,2h-2v2l-1,2l-1,1v1l-1,1l-1,2h-1l-2,3v3l-2,2v5h1v3l-1,1l1,2v1l1,1l-1,2h1v2h1v1h1v4l1,1v13l-1,1v3l-1,1v2h1l-1,2v1v-1l-1,1v2l-1,3v3h-1v1l-1,1v1l-1,1v1h-1l-1,2l-1,1h-1v2h-1l-1,2h-1v1h-1l-1,-1v2h-1v-1l-1,1h1v1h-1v1h1l-1,1v2h-1v-1l-1,-2v1l1,2v3h-1v-1l-1,-2v3h1l-1,1l-3,4v1l-2,2v1l-1,1v-2l1,-3v-4l1,-1v-1h1v-2h-1v-1v1h-1v-2l-1,-1l-1,1v-1v1l-1,1v-1h-1l1,-1v-1l1,-1v-1h-1v-1v2l-1,1v-10h-1v1v-2l-1,1v-2l-1,-1l-1,1h-1l-1,1v-1l1,-1v-3l1,-1v-1h-1l-1,1h-1v1l-1,1v2l-1,2v3l-1,2v2l-1,2v1l-1,1v3l-1,1v1l-1,3l-1,2v2l-1,2v6l1,-2h1v2l-1,3v1l1,1v-1v11l-1,-1v-1v2h1v1l1,1l1,-1h1v3l1,2v1l-1,1v2h-1v-1l-1,1v1l-1,1v-6h-2v-1v1l-1,1v-2l-1,-1l1,-2v-1h-1l1,-1h-1v-3l-1,1v-5h-1v2l-1,-1l1,-1v-5l1,-3v-1l1,-1v-2l1,-4v-4h1v-2l1,-1v-4h1v-1h-1l1,-1v-4l1,-1v-4l1,-1v-7l-1,3v-1l1,-1v-5l1,-1v-1v1v-4l1,-1v-1l1,-4v-3l1,-2v-1v1h-1v-1l1,-1v-3l-1,1v2l-1,1v1l-1,1v1h-1v-1l1,-1l-1,1v2l-2,2v1l-1,1v1l-1,2v-2h1v-1l-1,2h-1v-1l1,-1l-1,1v1v-3l1,-1v-1v2h-1v1l-1,1v1v-1l1,-3v-1h1v-2l1,-1v-2l1,-1v-2l1,-1v-1l1,-3v-4h1v-3l1,-1l-1,1v2h-1v-2l1,-1v1v-1h1v-4l1,-1l-1,1v-1l-1,1v1l1,-2v-1l1,-1h-1v1l-1,1v-1h1v-1v1v-5l1,-1l1,-3v-1l1,-1v-2l1,-1v-1v1v-2l1,-1v-1l-1,1v1h-1l1,-2v-1l1,-1v-2h1v-1l-1,1v2h-1v2h-1v2l-1,1v2l-1,1l-1,2v1h-1v1v-1l1,-1v-1v1h-1h1v-2l1,-1l-1,1v1l-1,1v1l-1,1v1v-1l1,-1v-1v1l-1,1v1l-1,1v-1l1,-1v-1v1h-1v3h-1l1,-1l-1,1v1v-2l1,-2l1,-1l-1,3l-1,1v1v-1l-1,1l1,-1l1,-2v-1v1h-1v2l-1,1v1l-2,2v1l-1,1v1l-1,1v2l-1,1v2h-1v1l-1,1v2h-1v2l-1,1v-1v1l-1,1v1v-1h1l-1,1l-2,4v2l-2,5l-1,1l-1,2v1l-1,2v2l-1,1l-1,2v2l-1,1v3l-1,1v2h-1v2l-1,2v1v-1l1,-1v-3l1,-1v-2l1,-1v-2l1,-1v-2l1,-1v-2l1,-1v-2l1,-1v-2l1,-1v-2l1,-1v-2l1,-1v-2l1,-1v-2l1,-1v-1l1,-1v-1l1,-1v-2l1,-1v-1l1,-1v-2l1,-1v-1l1,-1v-2l1,-1v-1l1,-1v-2l1,-1v-1l1,-1v-2l1,-1v-1l1,-1v-1l1,-1v-1l1,-1v-1l1,-1v-1l1,-1v-1l1,-1v-2l1,-1v-1l1,-1v-1l1,-1v-1l2,-2v-1l1,-1v-1l1,-1v-1l1,-1v-2l1,-1v-1l2,-2v-1l1,-1v-1l1,-1v-1l1,-1v-1l2,-2v-1l2,-2v-1l1,-1v-1l1,-1v-1l1,-1v-1l2,-2v-1l1,-1v-1l3,-3v-1l1,-1v-1l1,-1v-1l2,-2v-1l2,-2v-1l3,-3v-1l1,-1v-1l2,-2v-1l3,-3v-1l1,-1v-1l4,-4v-1l3,-3v-1l1,-1v-1h1l1,-1v-1l2,-2v-1h1l1,-1v-1l1,-1v-1l6,-6v-1l4,-4v-1l1,-1h1v-1l2,-2v-1h1l2,-2v-1l1,-1h1v-1l2,-2v-1h1l1,-1v-1l1,-1h1l1,-1v-1l21,-21h1v-1l2,-2h1v-1l2,-2h1v-1l1,-1h1l7,-7h1l6,-6h1l4,-4h1l1,-1v-1h1l2,-2h1v-1l1,-1h1l2,-2h1v-1l1,-1h1l3,-3h1l3,-3h1l2,-2h1l3,-3h1l2,-2h1l3,-3h1l1,-1h1l3,-3h1l1,-1h1l3,-3h1l1,-1h1l2,-2h1l2,-2h1l1,-1h1l1,-1h1l1,-1v-1h1l1,-1h1l1,-1h1l1,-1h1l2,-2h1l1,-1h1l1,-1h1l1,-1h1l1,-1h1l2,-2h1l1,-1h1l1,-1h1l1,-1h1l1,-1h1l1,-1h1l2,-2h1l1,-1h1l1,-1h2l1,-1h1l1,-1h1l1,-1h1l1,-1h1l1,-1h1l1,-1h1l1,-1h1l1,-1h2l1,-1h1l1,-1h2l1,-1h1l1,-1h1l1,-1h2l1,-1h1l1,-1h1l1,-1h2l1,-1h1l1,-1h2l1,-1h2l1,-1h1l1,-1h2l1,-1h2l1,-1h2l1,-1h2l1,-1h2l1,-1h2l1,-1h2l1,-1h2l1,-1h3l1,-1h2l1,-1h2l1,-1h3l1,-1h2l1,-1h3l1,-1h3l1,-1h3l1,-1h3l1,-1h3l1,-1h2ZM15,378v1l-1,2l1,-1v-1v1v-3ZM14,381l-1,7l-1,2v2l-1,2v4l-1,1v2l-1,3v4h-1v1l1,-1v-4l1,-1v-5l1,-1v-3l1,-1v-4l1,-1v-3l1,-1v-3l1,-1Z"/>
<path class="sp" d="M20,361v-2l1,-1v-3l1,-1v-2l1,-1v-2l1,-1v-2l1,-1v-2l1,-1v-2l1,-1v-2l1,-1v-2l1,-1v-2l1,-1v-2l1,-1v-2l1,-1v-1l1,-1v-1l1,-1v-2l1,-1v-1l1,-1v-2l1,-1v-1l1,-1v-2l1,-1v-1l1,-1v-2l1,-1v-1l1,-1v-2l1,-1v-1l1,-1v-1l1,-1v-1l1,-1v-1l1,-1v-1l1,-1v-1l1,-1v-2l1,-1v-1l1,-1v-1l1,-1v-1l2,-2v-1l1,-1v-1l1,-1v-1l1,-1v-2l1,-1v-1l2,-2v-1l1,-1v-1l1,-1v-1l1,-1v-1l2,-2v-1l2,-2v-1l1,-1v-1l1,-1v-1l1,-1v-1l2,-2v-1l1,-1v-1l3,-3v-1l1,-1v-1l1,-1v-1l2,-2v-1l2,-2v-1l3,-3v-1l1,-1v-1l2,-2v-1l3,-3v-1l1,-1v-1l4,-4v-1l3,-3v-1l1,-1v-1h1l1,-1v-1l2,-2v-1h1l1,-1v-1l1,-1v-1l6,-6v-1l4,-4v-1l1,-1h1v-1l2,-2v-1h1l2,-2v-1l1,-1h1v-1l2,-2v-1h1l1,-1v-1l1,-1h1l1,-1v-1l21,-21h1v-1l2,-2h1v-1l2,-2h1v-1l1,-1h1l7,-7h1l6,-6h1l4,-4h1l1,-1v-1h1l2,-2h1v-1l1,-1h1l2,-2h1v-1l1,-1h1l3,-3h1l3,-3h1l2,-2h1l3,-3h1l2,-2h1l3,-3h1l1,-1h1l3,-3h1l1,-1h1l3,-3h1l1,-1h1l2,-2h1l2,-2h1l1,-1h1l1,-1h1l1,-1v-1h1l1,-1h1l1,-1h1l1,-1h1l2,-2h1l1,-1h1l1,-1h1l1,-1h1l1,-1h1l2,-2h1l1,-1h1l1,-1h1l1,-1h1l1,-1h1l1,-1h1l2,-2h1l1,-1h1l1,-1h2l1,-1h1l1,-1h1l1,-1h1l1,-1h1l1,-1h1l1,-1h1l1,-1h1l1,-1h2l1,-1h1l1,-1h2l1,-1h1l1,-1h1l1,-1h2l1,-1h1l1,-1h1l1,-1h2l1,-1h1l1,-1h2l1,-1h2l1,-1h1l1,-1h2l1,-1h2l1,-1h2l1,-1h2l1,-1h2l1,-1h2l1,-1h2l1,-1h2l1,-1h3l1,-1h2l1,-1h2l1,-1h3l1,-1h2l1,-1h3l1,-1h3l1,-1h3l1,-1h3l1,-1h3l1,-1h2M15,380v-3M8,409l1,-1v-4l1,-1v-5l1,-1v-3l1,-1v-4l1,-1v-3l1,-1v-3l1,-1M7,418v0"/>
<path class="sl" d="M60,371v1h-1v-1ZM68,382l1,-1h-1ZM73,367h-1l1,-1ZM93,283v-1ZM97,279l-1,1v-1ZM96,282h-1l1,-1ZM93,284v-1h1h-1ZM494,537v3h1l1,-1v-1h1h-1l1,1v3h1v1l-1,1h-3l-1,-1v-3l-1,-3v-2h1v1ZM499,548h1v1l1,1h1l1,1l-1,1h-2l-1,-1v-3l-1,1l-1,-1l1,-1v-1l1,1ZM508,554v1l-1,-1h-1l-1,-1l1,-1v1h1v1ZM507,550h-3v-1h1l1,-1v1ZM508,561l1,1v1h-3l1,-1h-1l1,-1ZM504,542l-1,1h-1l1,-2h1ZM506,547l-1,-2l1,-2l1,3v1ZM506,541v1l-1,-1v-3h1v2ZM498,545h-1v-1h1ZM501,532v1l-1,-1h-1l1,-1h1ZM500,529l-1,-1l1,-1l1,1v1ZM520,584h-2l1,-1ZM517,578l-1,1h-1v-1l-1,-1l1,-1v1ZM515,573l-3,-1h1l-1,-1l1,-1h1v1h1l-1,1h1ZM461,363v1l-1,-1ZM258,340v1v-2h1v1ZM365,350h-1v-1h1ZM367,349h-1ZM421,352h-1v-1h-1l1,-1l1,1ZM519,359h-1h1v-1l1,-1l-1,1ZM512,346v1h-1l-1,-1h1ZM535,349h1l1,1v-1h-1ZM531,348l1,1l2,-1l-1,1h-1ZM324,261v1ZM322,280h-1ZM317,297l-1,1v-1ZM324,266v1v-1h1ZM321,289v1v-1l1,-1v1ZM320,291v-1ZM312,305h-1v-1l2,-2h1l-2,2ZM680,539h-1h2ZM738,65v-1h-1l-1,-1l2,1v1v-1ZM740,66l-1,-1h-1h2ZM724,57l-1,-1h-1h1ZM687,44h-1ZM675,41h-1ZM661,38h-1ZM651,52h1h-1v-1ZM657,53h-1ZM656,53h-1v-1ZM588,59h-1ZM580,22h5l1,1h3l-1,1h1h-1l-1,-1h-3v-1h-5v-1ZM610,32h2v1h1v1h1h-3l-1,-1h-4l-1,-1h4ZM670,46v1v-1h1v1h2v1h-1l-1,-1v1h1h-1v1h-1h1v1v-1h-2v-1h-1h1v1l-1,-1h-1l-2,-1v-1h2v1h1l1,1l-1,-1h-1v-1l1,1v-1h-1h2ZM639,51l1,1h1l1,1l-1,-1l-1,1h-5l-1,-1h1v-1h3ZM743,68v1h1l-1,-1h-1ZM751,72h1v1v-1h-2v-1h-1h1ZM742,67h1h-1l-1,-1h-1v-1h-1h1v1h2ZM749,70l1,1h-1v-1h-1h1v1l-1,-1h-1v-1l-2,-1h1v1h2ZM734,62h1v1h1l1,1h-1l-1,-1h1v1h1h-1l-1,-1h-1v-1h-1ZM748,71h1v1h1h-1l-1,-1h-1l-1,-1h-1v-1h-1l2,1l1,1ZM678,41h1h-1v1v-1h-1ZM677,42h-1v-1h1ZM674,40v1h1h-1l-1,-1ZM671,39h-1ZM673,49h-2v-1ZM668,44h-1ZM668,46h-1ZM669,52h-1ZM670,50h-1ZM671,50h-1ZM650,51l1,1h-1l-1,-1ZM645,52h-1ZM645,54h-1ZM654,53h-1v-1h1ZM632,54h-2v-1h1ZM633,54h-1v-1h1ZM637,40h-1l-1,-1h2ZM583,30h1h-2v-1ZM603,41h-1ZM617,57h-1ZM613,58h-1l1,-1ZM605,59l-1,-1h2ZM606,43h1ZM586,59v1ZM587,59v-1h-1h2ZM582,59h-1ZM559,58v-1ZM565,60h-1l-2,-1h-2h3v1h1ZM533,55h-1ZM728,60h1l1,1l2,1l1,1h1l1,1h-1l-1,-1h-1v-1h-2v-1h-1l-1,-1h-1h1h-1l-1,-1h-1h2ZM723,57h1l2,1h1l1,1h1h-2v-1h-2v-1v1h1l2,1h1v1h1l1,1h-1l-1,-1h-1v-1h-1l-1,-1l-2,-1h-1v-1h-1h1Z"/>
<path class="sl" d="M720,56h2v1v-1l1,1h1l1,1h-1h2v1h1h-1l-2,-1l1,1l-1,-1h-1l-2,-1l-1,-1h-1v-1v1h1v-1ZM737,65h2l1,1l2,1h1v1h1l1,1h1h-1h1l1,1h1v1h1l1,1h1v1v-1h-2v-1h-2v-1l1,1h-1l-3,-3h-2v-1h-1v-1h-2v-1h-1ZM733,62l1,1h1l2,2h1h-1h1h-1l-2,-1l-1,-1h-1v-1h-1ZM669,45h2v1v-1h-1v1v-1h-1v1l-2,-1h1l-1,-1h1ZM624,56h-1v1h-2v-1h1v-1h2ZM629,54h1v1h1h-1l-1,1h-2v-1h1h-1v-1h-1h2ZM600,59h1h-2ZM594,59h-2l1,-1h2v-1h1l1,1h-1l1,1h-1ZM585,59h1h-1v1h-2v-1h1v-1ZM578,59v1l-1,-1h1h-1l-1,-1h2v1h1ZM565,58h-1l1,-1l1,1ZM553,58l-1,-1h2ZM528,52l1,1h1h-4l1,-1ZM784,271l-2,-1v-1l-1,-2v-1l-1,-2v-1h1l-1,-2l5,2l1,1v1l2,2v1l-1,1h-2l-1,1ZM769,252l2,1h2v1h-1l-1,-1h-2ZM775,255h1l2,2v1h-2l-1,-1v-1h-1l-1,-1v-1h1v1ZM765,250h1v1h-2v-1v1h-1v-1l-1,-1h1v-1h1l1,1ZM754,245l-1,1v-1h-1l-1,-1v-1h2l1,1ZM748,245v1v-2h1v1ZM773,256h-1v-1h-1h1ZM895,202h-1v-1ZM904,213v-1h-1v-1l1,1ZM896,203h-1v-1ZM895,202l1,1v-1v1v-1ZM902,209l-1,-1ZM810,110h-1ZM810,111h1h-1v-1h-1h1ZM813,113l1,1v-1l1,1h-1v-1h-1v-1h-1h1ZM819,118h-1v-1v1ZM817,116l-1,-1ZM811,111l-1,-1ZM910,667v-1ZM639,596h1l-1,1v-1h-1v-1h1ZM651,575h-1l1,-1ZM641,597v1h-1v-1ZM170,502v1h-1ZM167,514v-1l-1,-1h1l1,-1l-1,-1l-1,1v-1l1,-1v-2l1,-1h1l2,-1h1l2,-1h2l1,-1h1v-1h3v1l-1,1l-1,2h-2l-1,1v1h-1l-1,1h-1v1h-1l-1,1l-2,1l-1,1ZM161,514l2,-2v2l-1,1h-1ZM57,362l-1,1ZM57,360h-1v-1h1ZM37,400v1v-3h1l-1,1ZM45,382v1ZM45,383v1l-1,1v-1h1ZM40,410v-1ZM38,399v-1ZM38,390v1v-1h1ZM39,402v1v-2ZM165,253v1l-2,2v2h-1v-4h-1v-1l1,-2v-1h-1h1v-2h1v-3l6,-7l1,-1v-1h1l1,-1v-1l2,-1h1v-1l2,2h-1v1h-1v3l-1,1l-1,2h-1v2l-1,1l-2,4l-1,1v1l-1,1ZM156,241v1h-1h1ZM8,414h-1h1v-1ZM8,412v1l-1,2v7l-1,2v6l-1,1v7h-1v6h-1v-1l1,-2v-3l1,-8v-3l1,-1l-1,2v-1l1,-2v-5l1,-2v-4h1v-1ZM243,161h-1l1,-1v-1h1ZM239,161v1h-1v-1ZM228,166h-1l2,-2v1ZM241,144l-1,1v-1ZM231,165v1h-1v-1ZM237,163v-1ZM236,152h-1l1,-1ZM229,163h-1l1,-1ZM264,142l-1,1v-1ZM225,173h-1v-1h1l1,-1l2,-1l1,1h-1v1h-1l-1,1ZM433,483h-1v-1h1ZM495,510h-1v-1h1ZM488,502h-2v-1h3ZM441,511v1h-1v-1h-1v-1h-3v-1h1l3,1ZM449,492v1h-1v-2l-1,-1h1ZM429,488h-1v-1h1ZM437,487h1v1h1v1l-1,-1h-1ZM416,481l2,2v1h-1l-1,-1h-1v-2h-2v1h-1v-1l2,-2h1v1Z"/>
<path class="sl" d="M420,486v-1h1v1ZM420,485h-2v-1l1,-1l1,1h-1ZM413,485l-1,-1l1,-1h1l-1,1ZM407,478v1v-2h-1v-2l2,2ZM407,481l-1,-1v-1l1,1ZM411,480h-1v-2h2v2ZM400,472h-1v-1h1ZM416,485v1h-1l-1,-1h1ZM434,489l2,2h3l1,1h1l2,2v1h-3l-1,-1h-5v-1h-1v-1l-1,-1v-1h1v-1ZM435,483h-2v-1l-3,-1v-1h-1l-1,-1h-1l-1,-1h-1l-3,-3h3l3,3h2l1,1l3,2v1ZM414,473v1h-1v-1h-2l-2,-1l-4,-4v-1h1l4,2l1,1v2l2,1ZM442,481l2,2v2l1,1h1v2l1,2v1l1,1h-1l-1,-2h-1v-1l-2,-1l-1,-1l-1,-3l1,-1l-1,-2ZM451,499h1l1,1l1,-1v1l2,2v1l-1,-1l-1,1l-1,-1h-2l-2,-2v-1l-1,-1h-1v-1h1l2,2ZM53,448h-2l1,-1h1ZM668,531l1,1v1l-1,1v-1l-2,1v-1l-2,-2h2ZM674,536h-3l-1,-1v-1h1l2,1h1ZM366,100h1ZM370,99h-1ZM367,100h1ZM356,52h-1ZM425,33h1ZM393,12h-1ZM405,9h1ZM444,4v-1v1l1,-1h2v1v-1h1h-2v1h-8v1h-2v-1h6l1,-1h1ZM455,3h2l2,-1v1h1l1,-1h2l-1,1h-6ZM532,6h-1h2v-1h1l1,1h-2ZM378,52l1,1h-1l-1,1v3l-1,1v1h-1l-2,2v3l-1,3v7h1l-1,1v-1h-1v-1h-6v1l-1,1l-4,3l-1,1v1h-1v1l1,1v2h2v1l-2,2v1v-2h-2l-1,-1l-1,1h-1l-3,3h-1l1,-1v-1l1,-1l1,-2l1,-1v-1l2,-2h1v-1l1,-1v-1l-1,-1l2,-1v-1l1,-1h1v-1l2,-3l1,-1v-1l1,-1h1v-3h-1h1v-1l1,-1v-1h1v-1h1l1,-1v-1l1,-1h3l1,-1h1v-1h1l-1,-1v-1h1ZM537,6h1h-3l-1,-1h3ZM503,46v1l-2,-1l-1,-1h1v1h1ZM481,6h-1ZM481,9v-1h-1h1h-1h2v-1v1h-1ZM470,2h-1ZM464,2h1ZM422,9h-1l1,-1ZM439,5h-1h2ZM441,5h1h-5l-1,1h-1l1,-1h4ZM434,5h-1h1l1,-1h1h-1v1ZM428,6h1ZM359,51h1l-1,1h-1l-1,1h-1v-1l-1,1v-1h1l1,-1h1ZM505,7h1ZM483,33h-1l1,-1v-1h4v1h-3ZM496,45v1h-1v-1h-2v-1h1l1,1ZM429,69h-1l1,-2v1ZM439,63h-1v-1h2ZM436,64l-1,1h-2v1h-1v-1h1v-1h2l2,-2h1v1h-1v1ZM424,71l-1,1l1,-1h1ZM435,62h-1ZM417,76l-1,1v-1ZM409,81h-1l1,-1h1l1,-1ZM393,87l-1,1l2,-2h1l3,-1v-1h1l-2,2h-1l-1,1ZM386,89l-1,1h-1l-2,1l-1,1h-2l-2,1v1h-1l-2,1l2,-2h1v-1h2l2,-2h1v-1h1v1h2l2,-1v-1h1v1h-1ZM372,98h-1h2ZM371,95h1l-1,1h-2l-2,2h-1l-1,1h-1l2,-2h1l1,-1h1l1,-1ZM157,283h1l2,2h1l2,-2v2l-1,1l-1,3v2l1,1v2l-3,5v1l-1,1h-1l-2,2v1l-1,1h1l-2,2v11l1,1h1l1,-1h-1v-1h1l1,-1h1v-1l1,1h1v3h2v-2h1l1,1h1v1h-2v2h1v3h2l-1,2v2h-1v-3l-1,1h-1l-1,-1v-1l-1,-1v-1l-2,-2v-1h-1v6l-1,-1v-2l-3,-3h-1v1h-1v1l-1,1h-3v-1h-1v-2l3,-3v-2h-2v-1v3l-1,1h-1v-3h-1v-4l1,-4l-1,-1h1v-2h1l1,1h1v-4l1,-1l1,-2v-3h1v-2l2,-5v-1h1v-1l1,-1h1Z"/>
<path class="sl" d="M120,370v-1l1,-2l1,-1v-1l1,-1l1,-2h1l1,-1l2,-4l2,-2v-1h1l1,-2v-1h1l1,-1v-4l2,-2v-1v2l-1,1l1,2v2l-1,1h-1v1h-1v2h-1l-1,1h-1v2l-2,3v1l-2,2h-1v1l-1,1v1l-1,1h-1v1l-1,1ZM154,337v1l1,-1h1v1l1,-1h1v1l-1,1v1l-1,1v1h-1v1l-2,2l-2,1h-1v1l-1,1v-1l1,-1l-1,-1l1,-1v-2l1,-2v-3h-1l1,-1h2v1ZM155,358h-1l-1,-2l-1,-1l-1,-2v-1l1,-1h1l1,-1v-2l1,-1l-1,-1h1v-1l1,-1v-1l1,-1h2v3l-2,2v2l-1,2v6ZM166,337l1,1v-1h2v3l-1,2h1v4h-1v-1v3l-1,-1h-1v-2l1,-2v-2l-1,-1v1h-1v-5ZM172,327v2h1v3l-1,1h1l-1,1v1l1,1v1h-1h1v1h-3v-1h-1v-3l-1,-1v-1h-1v-1h-1v-3h2l1,-1h2ZM146,324h2v1l1,-1v1l1,1v1l-1,1v3l-1,1v1h-1v1h-1v-3l-1,-1v-3l-1,-1v-1h-1h1v-1h1ZM173,353h1v1l1,1v1l-1,1v1h-1l1,1h1v6l1,1v1l-1,2v1l-1,1l-1,2h-1l1,1l-1,2v1v-3l-1,-1v-2l-1,-2l-1,1v1l-1,1v1l-1,1v2h1v1l1,2l-1,2v1l-1,2h-1v-4l-1,1v1h-3l-2,-1l-1,-1v-1l-1,-1l1,-1l-1,-2v-1l1,-1v-1h1v-2l-1,-1v-1h-3v1l-1,2h-1v-2h-1v2h-1v-2h-1l-2,2l-1,2v2l-1,1v1h-1v-3l1,-1v-3l1,-1v-1l1,-1l2,-1h2v-2l1,-1v-1h2v-2l1,1h1l1,1v3h-1h1v-1h2v-2l1,-1v-1h1l1,1v-1l1,-1v-2h3v-1h2v-6l1,-1v1l2,1v1ZM157,354l-1,1v-1l1,-1v-3l1,-2l1,-1l3,-6v-2h1v2l-1,2v3l-1,1h-1l-1,1v2l-1,3ZM162,280v1v-2h1v1ZM161,277v1h-1v-1ZM166,269h-1l1,-1ZM166,266h-1l1,-1ZM140,385l1,1v-1h1v1l-1,1v-1l-1,1l-1,-1v1v-1ZM118,375v-2h1ZM137,350h-1v-1l1,-1v1h1ZM140,336h1v-1v1h1l-1,1h-2v-2h1ZM139,340v-2h1v1ZM153,347v-2h1v-1v2ZM165,350v1h-1l-1,1h-3v-2h1l1,-1v-1l1,-1l1,1h1v1ZM135,393h-1v1v-1v1h-1v1h-1v-1l1,-1h1v-1v1ZM146,381h-1v-2l1,-1l2,1h-1v1ZM174,349v-3l1,1v1h-1h1v1ZM172,348l-1,-1v-2l1,-1v3ZM144,323h-1v-1ZM153,322l1,1v1l-1,1h-1v-1ZM152,332v2l-1,-1h1h-1v-1l1,-1v-1l1,-1v1ZM156,332h-1v-1h-1l1,-1h1v1ZM160,327v1v-1l-1,-1v-1h-1h1l1,1ZM163,329v1h-1v-2ZM162,331h1l1,2v1l-1,1v-1h-1v-2h-1l-1,-1v1l-1,1v-4h2v1ZM168,319v1l-1,-1v1h-1v-1l1,-1v-2h1v1h1l-1,1ZM155,318l-1,-1ZM156,311l-1,1v1v-2l1,-1ZM164,344v-1ZM169,348v-1h-1h1ZM152,372v1h-1v-1ZM170,372v1l-1,-1l1,-1ZM167,336h-1l-1,-1h2ZM165,355v1h-1v-1ZM159,279v1h-1v-1ZM138,341v1h-1ZM161,339v1ZM154,330v1ZM173,350v1v-2ZM168,335v1v-2ZM120,372v-1ZM159,356l-1,1h-1v-1h1v-1ZM375,452v1l-2,-2v-4l-1,-1l-2,-3l-1,-1h-1l-1,-1h-1l-1,-1l-2,-1h-1v-1l-3,-2h-3l1,-1v-1l1,1l2,1v1h2l1,1h1l1,1l2,1l1,1l2,1l6,6v3Z"/>
<path class="sl" d="M366,449h1l1,-1h1v1h1v4l-2,2h-1v1l1,1v2h-1l-1,1h-3v1h-1v1l-2,2h-2l-2,2h-1l-1,1h-7l-1,-1v-1h-1l-2,1l-2,-2h-2l-1,-1h-1v-2h3l2,-1l1,1h3l1,-1h3l1,-3v-1h1l-1,1v2l1,1h2l1,-1l1,1h1v-1h1l1,-1v-1l2,-2h1v-1h2v-2l-1,-3v-1h3ZM280,497v-2l-1,-2v-14l-1,-1v-22l-1,-2v-14h2l4,2l1,1h1l2,1h3l2,1h2l2,1h1l2,1h1v1h1l1,1h1l1,-1h1v1h1v1h1l1,1h1v1l1,1h2l4,3v5l1,1h2l7,3h3l1,1h1v1l1,1h1v4h-6l-1,1v1l2,4h1l1,1v1h1l3,3l2,1l1,2v1l2,1v1l1,2v1h2l2,-1h2v1l-1,1v1l2,2h5v1h-1l-1,1l1,1v1h3l1,1h4l-1,1h-2v1h2l-1,1h-1v1h-2l-1,-1h-1v-1h-1l-1,-1h-7l-1,-1h-1l-2,1l-1,-1h-4l-1,-1h-1v-1l-2,-2l-2,-1v-1l-1,-1v-1h-1l-1,-1h-1l-1,-2v-1l-2,-1v-1l-1,-1v-1h-1l-2,-1h-3l-1,-1h-3v-1l-1,-1h-3v1h-1l-1,1h-2v-1h-1v-1h-1l2,4h-1h1h-3v1l1,1l-2,1h-2l-2,1l-1,-1h-1l-1,1l-1,-1h-1h1v1h3l2,1h1l1,1h1v3l-1,1h-1l-2,1l-1,2l-1,-1h-1l-1,-1h-1l-1,1h-6l-1,1ZM334,464l-2,-2v-1h1l2,1v1ZM318,455l-1,1v-2h1ZM372,438v1l-1,-1ZM368,437h-2v-1h1v1ZM348,426h-1l-1,-1v-1h1l1,1ZM361,499l1,-1h1l-1,2h-2v-1l-2,-2v-1h1v1l2,1ZM355,495h-1l-1,-1v-2l1,1h1v1ZM361,488h-1v-3h1v1ZM388,509v1h-2v-1h1ZM300,490h-1l-1,-1h2ZM327,461l-1,-1v-1h1l1,1ZM326,431h3v1h-1l-1,1h-6l1,-1v-1h2ZM354,435h-3l-1,-1l1,-1h1l2,1ZM356,493l1,1h1l1,1v1h-3v-1l-1,-1v-1ZM373,489h2l1,1h1h-1v1h-2v-1l-2,-1ZM382,511h2l-1,1h-1l-1,-1h-1l-1,-1v-1l1,1ZM300,491h-1l-1,-1h-1v-1v1h2ZM332,433v1h-1ZM366,436v-1h1v1ZM360,504h-1ZM381,446h-1ZM401,468v1h-2v1h-1l-1,-1h-1v-1h-1l-1,-1l1,-1l-3,-3h-1v-1h-1v-4h2l2,2v1l1,1h1l1,1v1h1l1,1h1v1l1,1ZM389,457v-2h-1l1,-1h1v3ZM231,360l-1,1v-2h1v-1v1ZM239,135h1ZM537,756h1v-1h1l1,-1h1v-1h2v1h-1v1l-1,1l2,-2h2l-1,1h-1l1,1l1,-1v-1v2h-2v1l1,1l-1,1h1v1l-2,1v1h-1v1l-4,4v1l-1,1h-2v1h-1v2h-1h1v1h2v2h-1l-1,-1h-1v1l-1,-1h1h-1v1h-1v-1h-1v-1v1l1,1h-1l-1,1h-3v1h-2l1,1l-1,1v3h-1l1,1h-1v1h-1v1l-1,2v2h-2l-4,4v1h-9v-1l-1,-1h-2l-1,-1h-1l-1,1h-1l-2,-1h-1l2,-1h-2v-1v1h-1v-2h2v-1l1,-1l-1,1h-1v-1h2l-1,-1h1l1,1v-1l-1,-1l1,-1h1h-1v-1l2,-1v1v-1h1v-1h1v-1l2,-2l2,-1l1,-1h2l1,-1v1h1l-1,-1h1l1,-1h1l1,-1h1v-1h1l2,-2l1,1l-1,-1l1,-1v1h1h-1v-1h2v-1l1,-1h1v1v-1l1,-1v-1h1h-1l1,-1v-2h1v-2h2v-1l1,-1h1v-2l1,-2l3,-3h1v2h1l1,1v2Z"/>
<path class="sl" d="M542,753h-1h1v-1l1,-1v1ZM496,787l-1,1h-1v-1h1ZM497,784v1l-1,-1ZM504,796h-1l1,1h1l-1,1h-2l-1,1h-1v-1h1v-1h1v-2h1ZM557,718h-1l-1,-1v-1h1v1ZM541,707h1v-1h1v1h1l1,1v-1l1,1h1v2h1v-1h1v2h1v3l-1,-1v1l1,1v1l1,2v3l-1,1h3l1,1v1h1v1h1v-5h-1v-1h1v1l1,1h1v4l1,2l1,1h-1l1,1h1l2,1h1l2,1h3l1,-1v-1h2v-1h2l1,1h1v1h-1v1l-1,2v2l-2,2h-1v1l-1,1v1h1l-1,1v-1h-5v1h-1v1l-1,1v1h1l-2,4l-3,3v1h-1v1l-2,2v1h-1l-1,1l-2,1h-2v-1h-2v-1h1l-1,-1v1h-1v-1l1,-1l2,-1l1,-2v-1l1,-2h-1v-1l-2,-2h-2v-1l-1,-1h-1l-2,-1l-1,-1v-1h1l2,-1l1,-1h1l2,-2v-3l1,-1v-2h1v-2l-1,-1v-2l-1,-1h1v1v-1h2l-1,-1h-2l-1,-1v-1l-1,-2l1,1h1v-2h-1l1,-1h-1v-1v1l-2,-1v-1l-1,-1v1l2,2v1h-1v-1h-1l-3,-6h1v-1h1h-2v1h-1v-1l-1,-1l1,-1v-1l-1,-1l-1,-2l-1,-1h1l1,1l1,2ZM509,834v1l-1,-1ZM493,823h-2l1,-1v-1h1v1ZM602,776h-1l-1,1v-1v1h-1l1,1l-1,1h-1v-1h1v-1h-2l1,-1h1ZM601,780h-1h1h-1ZM679,496v-1ZM682,581h-1l1,-1h1ZM495,413v-1ZM968,329v-1ZM949,281v1v-1l-1,-1h1ZM930,247l-1,-1l-1,-2l-1,-1v-1v1l1,1v1l1,1ZM930,251h1l-1,-1ZM931,248l1,2l-1,-1l-1,-2v-1v1ZM921,240v1l-1,-2v-1v1h1ZM953,288h-1v-1v1ZM916,225h-1v-1ZM944,272l1,1ZM950,284l-1,-2ZM949,282l-1,-1v-1h-1v-1l-1,-3v1l1,2v1h1v2ZM41,410l1,-1v-1v1h2v6l1,-1v-1l1,-1v1h1v-2l1,-1v-1h1v2l1,2h1v2l1,3v4l-1,4v10l1,1v1l1,2l1,4v3h-1v-1v1h-1l-1,1l-1,-1l-1,-2h-1l-1,-1l-1,-2l-1,-1v-1h-1v-1h-1v-7l-1,-1v-19l-1,-1ZM119,405h-2l-1,-1l-1,1h-2l-1,1v-1h-1v1h-2v1h-1v2l-1,1v7l-1,1h-1v1l-1,1v1l1,1v1h-1v1l-1,1h-1v1l1,1v1h-1v3l-1,1h-1l-1,1h-1l-1,1v1h-2l-1,-1h-1v-1l-2,1l-1,1h-1v3l-2,2h-3l-1,1l-2,1v1v-1h-1l-1,-2h-1v-1l-1,-1v-3h-1l1,-1v1l1,1h2v-1v1l2,1l1,-1l1,1l-1,-1l1,-1v-3l1,-1l-1,-1v-1h1v-1v1l1,-1v-3l1,-1l5,-3l1,-1h1v-2l2,-4l2,-2l1,-3v-2l1,-1v1h1v2h1v1h1v-1l1,-1h-1l1,-1v-1l-1,-1v-1h1v-1h1v-1v5h1v-5h1v-1l1,-1v-1l-1,-1v-1l1,-1h2v-2l2,-2v-1l2,-4v-1l2,-3v2l2,-2v-1l1,1h-1v1l1,1h1v1l1,1h-1v3l-1,1l2,-1l1,-1l1,1l-1,1h-1l1,1l2,-2v1h1v1h1l1,1h2v2h-1v1h-1l-2,1h-2v1l-1,1l2,2v2h-2v1h-3ZM54,435v-1ZM41,419v1v-2ZM41,410v1h-1v1v-2ZM118,381v-2h1v1ZM43,437v1ZM85,428v-1ZM120,405h-1v-1h1ZM548,382h-1ZM547,383h-1l1,-1ZM548,393l-1,-1h1ZM548,394v-1ZM548,400h1v1l-1,1v-1l1,-1Z"/>
<path class="sl" d="M561,416v-2h-1h1v1ZM563,419l1,1h-1ZM548,397h1ZM682,442v-1ZM804,462v1ZM788,409l1,1h-2l-1,-1l1,-1v1l1,-1h-1h1ZM773,390l1,1h-1ZM678,438v1v-1h-1ZM274,148l-1,1v-1ZM308,135h-1h1v-2l2,-1v1h-1v1h1l-1,1ZM278,159l-1,1h-1v-1h1l1,-1h1ZM241,189h-1v-1h2ZM243,188v-1h1v-1l1,-1v1l-1,1ZM243,176v1v-1h-1h1v-1l1,-1h1l-1,1ZM244,165v-2l1,1ZM245,163l1,-1v-1h1l-1,1ZM237,174v1h-1ZM245,175l1,-1ZM344,93h-1v-1h1ZM344,94v-1h1ZM326,110v1v-1h1ZM275,158v1h-1v-1ZM307,153v1h-1v-1ZM239,173v-1l1,-1v1ZM243,170l-1,1v-1h1v-1ZM246,167h-1l1,-1ZM263,162h-1ZM261,163v1l1,-1l-1,1h-1v-1ZM239,180l1,-1v1ZM309,206v-1ZM356,98l1,-1h1l1,1h3l1,-1l2,-1l-2,2v3h1l1,-1h1l-2,2h-3l-1,1h-5l-1,1l-2,1l-2,2h-1v1h-1v1h-1l-1,-1h-2l-2,-1h-4l-3,1h-1v-1h-1l-1,1h-1v1l1,1h2l1,1h-1v1h-1v-1h-1l-1,1h-1v1h-1l-1,1l-1,-1l1,-1h1v-2h-1v-1h1v-1l1,-1h1l1,-1h1l1,-1v-2h1l1,1h3l2,-2v-1l2,-1v-1l2,-2l1,-2v-2l1,-1h2v-1v1h1l1,1v1l2,2h1l1,1h1ZM253,166h4l-1,1h-1v1h2l-1,1v2l-2,2h-1l-1,1v1l-1,1v1h-1v2l-2,2h-2v1l-1,1l-2,1v-1h1l1,-1v-2h1v-1h-1v1h-1v2l-1,1l-1,-1h-1l2,-2v-1h-1h1v-2h1l3,-3v-1l1,-1l-1,-1v-1h-1v2h-1h1v1h-2l-1,1h-1h1v-3l1,1v-1l-1,-1l1,-1h1l1,-1h1v-1h2l1,-1v-1h3ZM274,160h2l-1,1v1l-3,3h-1v1h-1v-1h-2l-3,1v1l-4,4h-1l1,-1h-2l1,-1h-1l1,-1v-1h-2l4,-2l2,-2v-1h2v1l1,-1h2l1,-1v-1h2l1,-1ZM334,113h1v1l-1,1v3l1,1v3l-1,1v1l-2,2h-1v1h-1v1h-1v1l-1,1h-1l-1,1l-2,1v2l-2,4v1h-1l-3,3v1h-1v2l1,1l-1,1h-1l-1,1v1l-1,1h-1l-1,1h-1v1h-1v-1l1,-1v-1h1v-1h1v-1h-1l-2,2v1l-1,1v-1h-2l-2,2v1l-1,1h-2l1,-1v-1h1l-1,-1l-2,2h-1l-1,1v1h-6l-1,1l1,-1h-1v-1l-1,1v-1l1,-1h-1l-2,2v1l1,1v1h-2l-2,1h-1l-2,3l-1,1l-2,1h-1v-1l-1,-1v-1l1,-1v-1l1,-1h1v-1h1h-3l-1,-1h-1l-1,1h-2l-2,2h-3l-1,1h-2l-1,1h-3l-1,1v1h-1v1l-2,-1h-2v1h-3l1,-2l1,-1h2l1,-1h1l1,-1h1l1,-1v-1h2l3,-3h1l1,-1h2v-1l1,1l1,-1h5l1,-1h2l2,-1h1h-1v1h3l1,-1h1l1,-1v-2l1,-1h1l1,-1l2,-1l2,-2v-2l4,-2h1l-2,1l-1,1h-1v2h2l1,-1l5,-2h1l2,-1l2,-2v-1h1l3,-1l2,-2v-1h1v-1l1,-1h1v-1l4,-4v-2h-1v1v-1h1v-1l1,-1v-2h1l1,-1h1l1,-1v-1h2v2l1,-1h2l1,-1v-1h-1l-2,1v-1l1,-1h1ZM189,235l-1,1v1h-1v-1h1ZM186,237h-1v-1ZM196,232l-1,1v-1ZM217,216l-2,2h-1v1l-1,1h1h-1l-1,1l1,-1v-1l2,-2v-1h2l1,-1v-1v1Z"/>
<path class="sl" d="M225,208h-1v-1h1ZM229,204l-1,1l-1,-1h1v-1h1l1,-1h1h-1v1h-1ZM228,205h-1v-1v1ZM306,164h-1v-1h1ZM30,456l1,2l1,1v1h-1v1h-1v-2l-1,-2h1ZM36,481l-1,1v-1l-1,-1v-6l1,1v4h1v1ZM117,516l-1,2v1h1h-4v-1h1v-1l-1,-1l1,-2v-1h2l1,1ZM110,514l1,1v2l-2,2v1v-1l-1,-1v-1h-3v-2h2l1,-2l1,1ZM61,470v1l1,1v3l1,2h2l-1,1v4h-1v-1h-1l-1,-1v-3h-1v-2h-3v-1h1v-3l1,-1v1h1v-2h1ZM152,474v1h-1v4h1v2h-1v1l-1,1v1v-1l-1,1v-4h1v-7l1,-1v1ZM149,480v1l-1,1l-1,-1v1v-6h1l1,-1v4ZM72,421l-1,1v-2h-1v-1l1,-2h1v3ZM71,479v1l-1,1v-1h-1v1h-1v1v-6l1,-1v1h2v1ZM234,428h4l3,3h1l-1,1h-3v-1l-1,-2l-1,1l-1,-1ZM235,436h11l-4,2h-2l-1,-1h-4ZM201,426l2,1h2v2h-3l-1,-1v-1h-1v1h1v1h1v1h-1v-1h-1v1l-1,-1h-2l1,-1v-1l1,1v-1h2ZM185,411h-1v-2l2,-2v-1l1,1v3l-1,1ZM183,443v1h-5v-1l1,-1v-1h1l2,1ZM169,452v-1l-1,-1v-1l1,-1v2l1,2ZM169,447h2l-2,1h-3l-1,1v-2h2ZM162,447h2l1,1h-2v1h-2l-1,1h-1l-1,-1l1,-1v-1h1ZM208,495h-2v-3h1v-2h1v-2h1v-1h1v5h-1v1l-1,1ZM177,497h-1v1l-1,1h-3v1h-1v-1l1,-2v1h1l2,-2h1ZM163,503v1l1,-1h3v1l-5,2v-2ZM203,438h-1l-1,-1v-1l-1,-1l2,-1h1v2ZM29,425h1l1,-1v1l1,-1l1,1v3l1,2v3h1v2h1l1,2l1,1v1l1,1v2l1,1v3h1v1v-3h1l1,1v3h1l1,2h1v3l1,1v1h2v2l-2,2h1v-1h1v-1l1,-1h1v1l1,1v1l-2,2v2h1v1h-1v1l2,2v1h2v-1v3l1,2v3h1v4l2,-2h1v1l2,3l1,2v1l-1,2v6l1,4v11h-1v-1l-1,-1l-1,2h-1l-1,-1v1l1,1v1h-1v-1l-1,-1v-1h-1v-1l-1,-2h-1l-1,-2l-4,-4v-2l-1,-2h-1l-1,-2v-1h-1v-2l-1,-1v-1l-1,-1v-2l-1,-1v-2l-1,-6l-1,-3l-1,-2v-1l-1,-2v-1l-2,-2v-5l-1,-4v-3l-2,-2h-1v-6h-1v-4l-1,-1h-1v-2l-2,-4v-8h2v1ZM152,509l-1,1h-1v1h-2l-2,2h-1v-1h-1v1h-1v1h-1l-2,-1h-1l-1,1h-2l-1,1v-4l2,-2h2v-1l1,1h2l1,1h2l1,-1h2l1,1l3,-3v-1h1l-1,-1h1v2l-1,1l1,1ZM136,519h1l1,1v1h2l1,1v1h1v1l-1,1v1h-3v-1h-1v-1h-1l-1,-1h-4v-2l1,-1h1l1,-1h2v-1ZM125,512h1v-1h2v1v-1h2v2l1,1h-1v1v-1h-1v1l-1,1h-1v-1h-1v1h-1v1l-1,1h-1l-1,1h-2v1h-2v-5l1,-1h3v1h1v1h1l1,-1v-2h-2v-1l-1,-1l1,-1h2v1ZM162,424l-2,2v1l-1,1v1h-1v1h-1l-3,1h-3l-1,-1l-5,1l-1,1h-4l-2,1h-4v1h-1v1l-1,1v7l1,2l1,1h1v2l1,1h2v-1l1,-1v-1l1,-2h1v-1l1,1h1l2,-2h3l1,-1v-1h1l1,-1l1,1v3h-1v-1h-2v1l-1,1v1l-1,2l-2,2l-2,1l-1,1v1l-1,1v-1h-1v1l1,1v1h1l1,1l1,2v1l2,1v2l1,1h-1v4h1l1,1v2h2v3l-1,-1v1h-2l-2,2v2l-1,1l-1,-1h-1v-6h-1l-4,-4l1,-1v-6h-2l-2,2v4l1,3v15l1,1v1l-1,-1l-1,1h-1l-1,1h-1l-2,-2v-1l1,-2v-9l-1,-2v-2h-1l-2,1v-1l-1,-1v-6h1l1,-2v-4l1,-1v-6l1,-3v-1l1,-1v1l1,1v-2l-1,-2v-3l1,-1l-1,-1v-1l1,-2l1,-1v-2l1,-1v-1l1,1h1v-1h1v-2l2,-2l1,1h1l1,1l2,-1l1,1l2,-1l1,1h2l1,-1h6l3,-3v-1h1v-1l2,-2v-1h2v1l-1,1v2l-1,1Z"/>
<path class="sl" d="M69,506v1h4l1,1v1l1,1v1h4v-1h4l1,-1v-3l1,-1h1l1,2h1v-1h1l1,1h4v2h1v2l2,2h2l2,-1l1,-1l2,1v5l1,2h1v1h-1l-1,-1v1l-2,-1h-1l-2,-1h-2v1h-1v1h-10l-3,-1l-1,-1h-6v1h-1v1h-3l-1,-1h-5v-3h-1l-1,-1h-1l-1,1h-1v-1h1v-3h1v-5h3l1,1v-2h1ZM77,434l-1,1h1v3l1,1v1h1l1,2h1v1v-1l2,-1l1,-1h3l2,-2v-3h1l1,-1l2,-1v1h1l1,1h2v-1l1,-1h1l1,-1h1l1,-1v-3h1v-1l-1,-1v-1h1l1,-1v-1h1v-1l-1,-1v-1l1,-1v-1h1l1,-1v-7l1,-1v-2h1v-1h2v-1h1v1l1,-1h2l1,-1l1,1h1v2l1,1v2h-1v-1v1h-2l-1,1h1l1,1v2h1v2h1h-1v1h1v1l1,1v1h1v1h-1v2h-1v1h1l1,2l2,2h1l1,2l1,1l-1,1h-1l-1,1h-2v-1l-1,-1h-1l1,1v1l-1,1l-2,4v9h1l-3,3v1l-1,1h-1v-1v3h-1v2l-2,2h1v3h1v3h-1v4h-1v1h1v1h-1v3l-7,7h-1v-6l-1,1l-1,-1l1,-1h-1v1h-1v1h-1l-1,1v-3h-1v1h-1l-1,-2v2l-1,2h-3l-1,1v1l-1,1v-5h-1v-1v1h-2l-1,2h-1v-1h-1v1v-1h-1v1h-1v-3l-1,-3v-3h-1v-1l1,-1v-2l-1,-1v-2h-1v-1h-2v-2h1h-1v-1h-1v-3h1v-2l-1,-1v-1l-1,-1v-4l1,-2v-3l1,-1v-2l1,-1ZM180,422h2v-2h1v-2l3,-3h1v4l-1,1l-2,1v2h1l1,1h1v2h-1l-1,-1h-3v1h-1v1l1,1l-1,1l3,6v1h1h-1l-2,-1l-1,-2l-1,-1v-6l-1,-1v-3l-1,-2v-1l1,-2v-2l1,-1v-1l3,-3v1l-1,2l-1,1h1v4l-1,1l-1,2ZM194,452l2,1h3l1,1h1v2h1v4l-2,-1l-1,-1h-1l-2,-1v-1h-3v1h-4v-1h-1v1l-1,1h-2l-1,-1v-1h-1v2l-1,1v-2l1,-3h1l2,-1h5l1,-1h1ZM175,457h1v1h1v1l1,1v1h-1v1l-1,1h-4l-2,-2v-3h1l2,-1ZM166,510v1l1,-1l1,1l-1,1h-1l1,1v3l-1,1v1l-2,2v1h-2l-1,1v1h-2v-6l1,-2v-1h1v1h1l1,-1v-2h1v-1h1ZM231,472v6h-2l-2,-2v-1h1v-1l-1,-1v-1h1l1,-1v-1h1v1h1ZM230,479v1l-1,1v1h-1v1l-1,-1v-5h1v1h1ZM261,491l-2,2h-5v-1l2,-6l2,-2h2l2,-1v1h1v1l1,1l-1,2l-1,1ZM277,440v14l1,2v22l1,1v14l1,2v2h-1l-3,-3v-1l-4,-3v-1h-1h1v-1l-1,1h-2l-1,1h-2v-2l-1,1v1l-1,1h-1v-3l1,-1v-3h-1v-1h-1v-1h2l1,-1l-1,1l-2,-1h-1l-1,-1v-1h2v-1h-1v-1l-2,-2l-1,-2v-3h-1v-1h1h-2v-2h-2v-1h-1l-3,-2l-1,-1v1h-1v-1h-4l-1,-1h-2l-1,-1h-6l-4,-2v-2h1h-5v-1h-2v-1h-1l-1,-1v-2l1,-1v-1h-1v3h-1v3l-1,1h1l-2,2h-1l-1,1v-1h-1v-3l1,-1l-1,-1v-1l-2,-1l-2,-2h-2v-1h1l1,-1h3v1l2,-2v-1l1,-1h1l1,1h2l1,-1v-1h1v-1h-1l1,-1l-2,1h-3l-2,1h-6v-1l-1,-1l-1,-2v-1h-1l-3,-1l-1,1h-1v-2h1v-1l1,-1v-2h1l2,-1l2,-2v-1h1l2,-1h3l2,1l1,1h5l1,1v2l1,1v2l-1,1v4l1,1v1l1,3l1,1v-2h1v1l1,2h1v3h5v-1h1l1,-2l1,-1v-2l2,-1v-2l1,-1l2,-1h1l2,-1l1,-1l-1,-1l2,-2l4,-2l1,1l6,1v1h2l1,1h1l1,1l3,1h7v1Z"/>
<path class="sl" d="M263,492h-2v-1h1v-1ZM44,445h1v1h-1v2h-1v-3h1v-1ZM47,453h-1v-3h1v2ZM47,449v1v-1h-2v-1h2ZM49,454h-2v-2h1v1h1ZM49,453v-1h-1v-1h1v1ZM50,455l-1,1v-1l1,-1ZM51,454h-1v-1h1ZM53,449v1h-1ZM55,448v2h-1v-1v1v-2ZM56,459v1v-1v1h1h-1v1l-1,-1h-1l1,-1v-1v1ZM54,461l1,1v2l-1,-1v1v-2ZM52,462l-1,1v-1ZM77,461l-1,1v-2h1ZM100,507l-1,1l-2,1h-2v-3l7,-1v1h-1ZM231,432h-1v-1h2ZM177,434l-1,1v-3h1v1ZM179,432l1,2l-1,1h2v2h-1v-1l-1,1l-1,-1l1,-1h-1l-1,-1l1,-1h1ZM218,475l-1,1l1,-2v-1l1,-3v2l-1,2ZM217,475v1h-1v-3ZM185,461h-2v1l-1,-1l1,-1h1v-1h1v1ZM175,396h-1l1,-1v-3h1v2l-1,1ZM167,402v1l-1,-1v-2h1v1ZM205,498l-1,1l1,-1l1,-2h1l-1,1ZM198,496l-1,1l-1,-1v-1h2ZM184,499h2v1h-2ZM198,441v1h1v2h-1v1h-1l-2,-1h-1v-1l2,-1h1ZM49,508l-1,1v-1h-1l1,-1v1ZM40,492v1v-2l-1,-1v-2l1,2v1ZM39,488v1v-2h-1h1v-1ZM38,485h-1v-2l1,1ZM33,472v-2ZM28,450h-1l-1,-1v-2h1v1l1,1ZM145,482v1l-1,-1v-3h1v2ZM151,444v2l1,-1h1v2h-2v1v-2h-1v2h-1v-3h1ZM143,439v1h-1v1h-1l1,-1v-1ZM137,492v1l-1,-2v-4l1,1v1ZM108,504l-1,-1h2ZM111,476l-1,2v-7h1v4ZM156,529h-1v-1l2,-2v-1h1v2l-1,1h-1ZM161,505v2h-1v-1h-1l1,-1v1l1,-2ZM159,505h-1v1l-1,1v1h-2v-1l1,-1v-1h1l1,-1h1ZM155,506v1h-1v-1l1,-1ZM231,479v1ZM50,451v-1ZM52,452v1ZM54,452h-1v-1h1ZM55,458v-1ZM63,429h-1v-1h1ZM60,432v-1h1ZM74,427v1h-1ZM74,466l-1,1v-2ZM68,479h-1v-1ZM65,481h-1v-1h1ZM103,506v1ZM94,497l-1,1v-2h1ZM61,514l-1,1v-2ZM30,451l-1,-1h1ZM27,422h-1ZM154,449h-1v-1h1ZM152,470v1h-1v-1h-1v-1h2ZM155,450v1ZM151,450l-1,1v-1ZM133,514h-1v-2h1v1h-1ZM130,510v-1ZM111,519v-1ZM119,405h1v1l-1,1v-1ZM119,413l-1,-1l1,-1v1ZM158,485v-1ZM155,479v1ZM139,498l-1,1v-1ZM121,513v-2h1ZM112,472v2l-1,-1ZM178,423h-1l1,-1ZM227,441v1ZM222,460v1h-1l-1,-1h1ZM202,433v1l-3,1v-1h2v-1ZM200,431h-1l1,-1l1,1ZM193,429h-1l-1,-1v-1ZM178,430v-1ZM178,424v-1ZM177,437h-1l1,-2v1ZM188,459h-1ZM187,459l-2,1l1,-1ZM174,397v1v-2ZM165,409v-1h1ZM212,488l-1,-1h-1h1ZM189,491l-1,-1h1ZM181,496v-1ZM158,523h-1l1,-1ZM149,527h-1l1,-1ZM232,478v-1ZM231,481v-1ZM182,454v1h-1h1ZM180,458h-1ZM153,508v1v-1l1,-1v1ZM24,416v-1h-1l1,-1v1ZM24,412v1v-2ZM24,405h-1v-1h1ZM24,408v-1ZM24,406v-1ZM24,398v-1Z"/>
<path class="sl" d="M25,387v-2l1,-1v1ZM27,379v1v-2ZM27,378v-2l1,-1v-3h1v-3l1,-1v-3l1,-1v-2l1,-1v1l-1,1v2l-1,1v3l-1,1v2l-1,1v4ZM29,373v1ZM30,367l-1,1l1,-2ZM637,528v-1ZM621,535v1l-1,-1ZM815,575h-1v-1h1ZM823,584v-1h1ZM815,577h-1v-2l1,1ZM826,586h1v1h-1v-1h-2v-2h2v1ZM896,529l1,1h-2v-1ZM896,531l-1,1v-1ZM897,537v-1ZM892,521h-1v-1h1ZM891,525v-1ZM874,597h-1v-1h1v-1h1l-1,1h-1v1ZM894,522v-1h1v1ZM873,601v1ZM873,599v1v-1h-1v-1ZM894,608v-1h-1h1ZM891,605v1ZM878,625v-1ZM868,580v-1ZM862,583h-1ZM861,583v-1ZM854,575v-1ZM851,578v-1ZM176,880l-1,-1l2,2v-1h-1v-1h-1h1v1h1v1v-1v1h1v1h1h-1v-1v1h1v1v-1v1v-1v1h1v1v-1h-1v-1h-1l-1,-1h-1v-1h-1v-1h-1v-1h-1h1l1,1ZM176,880h-1v-1ZM604,551l-4,4v1l1,-1l2,-1v2h-5v-1h-1l-1,1v1h-3v-1h-2l1,-1v-1l1,1l1,-1h1v-1h3l1,-1h1v-1h3ZM589,561h1v1l1,1h1v4h-3v1h-5l-2,-1h-1v-2l1,-1v-1l2,-2h3l1,-1h1ZM604,557v1v-2l1,-1v2ZM604,558h-1v-1l1,-1v1ZM590,575h-2v1h-2l1,-1h1l1,-1h1ZM611,567v-1ZM613,569h-1ZM617,567h-1l1,-1ZM612,561v-1ZM581,559v-1ZM599,561h-1v-1h1ZM598,567h-1v-1h1ZM594,564h-1v-1h1ZM605,554h-1v-1h1ZM604,551v-1h1ZM582,518h-1ZM558,597h-1ZM155,242h-1h1v-1ZM195,189l-1,-1h-1v-1h1v1h1ZM193,198v1l-1,-1h-1h1v-1ZM191,201v-1ZM193,199v-1ZM166,233v-1h1ZM108,277h1ZM181,213v-1h1ZM127,260v-1ZM121,270h-1l1,-1v-1v1ZM120,270h-1l1,-1ZM108,284v3l-1,1h-1l-1,2v1h-1v2l-1,1v1h-1v1l-1,1h-1v1h-1v1l-1,1h-2l-1,-1v-3l1,-3l3,-3v-1l1,-1v-1h1l1,-1h1l1,-1h2l1,-1ZM125,264h1ZM129,261h1v2l-1,-1l-1,1v-1h1ZM129,263v1ZM128,264h-1l1,-1h1h-1ZM753,75h2v1h1v1h1l-1,-1h-1h1v-1v1h1v1h1l2,2h-1l-1,-1h-1v-1h-1l-2,-1v-1h-1l-1,-1h1ZM761,80h1l1,1h1v1h1l1,1h1v1h1l1,1l-1,-1h-1v-1h-2l-2,-2h-1v-1h-2v-1h1ZM788,96l4,2h1v1h1l2,1v1l2,1h1v1h1l2,2h1l3,3h1l1,1h1v1l1,1l-1,-1h-1l-2,-2h-1l-1,-1v-1h-1l-1,-1h1v1h-1l-1,-1v-1h-2v-1h-1l-1,-1v1v-1h-1v-1l1,1h-1v-1h-1l-1,-1h-1v-1v1v-1h-1l-1,-1h-1v-1h-2v-1l1,1v-1h-1l-1,-1l1,1h-1v-1h-1l-1,-1h1ZM756,75h-1v-1ZM771,86h-1v-1h-1h1ZM760,77l1,1h-1v-1v1v-1h-1ZM766,81l-2,-1l-1,-1h-1h1l1,1ZM755,74l-1,-1ZM771,84l2,1l1,1h1h-2v-1h-1l-1,-1h1h-2v-1h-1v-1h-1h1v1ZM799,103v1v-1h-1ZM802,104h-1l-1,-1h-1v-1v1h1ZM796,101h-2v-1l1,1ZM796,100v1v-1l-2,-1h1v1Z"/>
<path class="sl" d="M773,85h-2l-1,-1v-1v1h1l1,1ZM781,91l-1,-1h1ZM775,86h-1l-1,-1l1,1ZM769,83h-1v-1h-1h1ZM768,82h-1v-1v1ZM808,109l-1,-1ZM807,108l-1,-1h-1ZM797,101l-1,-1ZM58,365h-1h1v-1ZM58,369v1ZM41,375v1v-1h-1ZM39,383v1v-1l1,-1ZM42,370v1v-2ZM43,366v-1h1v1ZM43,368v1v-2ZM44,361v2h-1l1,-1v-2ZM43,365h-1v-1h1ZM40,339v1v-1l1,-1v-1v1ZM49,332v-1l1,-1v1ZM45,318v-1h1ZM48,309v1ZM48,311v2h-1v-1ZM42,374v-1ZM42,369v-1ZM43,363l-1,1ZM45,357v1v-2ZM41,340v-1ZM47,309v1v-2ZM106,402v5h-1v-5ZM105,402v1h-1v1h-1v1l1,1v1l-1,1h1l-1,1v1h-1v-1h-1v-2h-1v-1h1l1,-1v-1h1l1,-1v-1l1,-1ZM50,294v1l1,-3v1ZM52,292l-1,1v-1h1v-1ZM49,296l1,-2v-2l1,-1v-1v2l-1,1l-1,2ZM50,296v1v-1h1v-1v1ZM50,298l-1,1v-1h1v-1ZM299,520v1l-1,1v1l1,1h1v1l1,1v1l1,1v4l1,1v3l1,1l1,2v1l1,1h2l1,-1v-1h2l1,1v1l2,2h2l2,2l-1,1l1,1v2l1,2v2l1,1v3l1,1v1l2,2h1v2l2,2v8l2,2h1v3l2,2h1v1h3l1,1h3v1l2,2h1l1,1h2l1,1h2v1l3,3h-1l-1,-1v1l1,2l2,2l2,1v1h1v2l1,1v1l2,4v1l1,1l1,-1l1,1v1v-4h1v1l3,3l1,-1v-1l2,4v3l1,2v1h1l1,1v1h1l2,1l1,1h2l1,1l1,2l4,4v1l3,3l1,2v1l1,1h1v3l1,6v3l2,3l1,1v2l1,1v3l1,1v1l-1,2v7l-1,1v12l-2,5v3l-1,1h-1v2h-1l-2,2v1l-1,1v2h-1v4h-1h1l-1,1v1l-1,1v6l-1,1l-1,3v14h1l-3,3h-4l-4,1h-1l-1,1l-2,1l-4,5l-2,1h-1v1h1v-1v1l1,1v1h-1v-1h-1l-1,-1h-1l-2,-2v1l-1,-1h-1v-1h1l-1,-1v-1h-1v1l-2,2l-1,-1h-1h1v-1h1v-2l-1,-1h-1l-1,2h-1h1l1,1h-2v1l-4,4l-1,-1h-2l-4,-2h-6v1h-1v-1l-2,-1l-1,-1h-3l-2,-1l-1,-1l-3,-2l-2,-2v-4l-1,-2l-3,-3l-2,-1l-1,-1h-1v-1h2v-1h-1v-1l-2,2h-1l-1,1h-2v-1l1,-1v-3l-1,-2h-1l-1,-2l-2,-2v8h-3v1h-2v-3h2v-4l-1,-1v-3l1,-2l1,-1l-1,-1v-1l-1,-1h1v-1l-1,-2l-1,-1v3l-1,1v3l-1,1v1h-1l-3,3l-1,3v3l1,1v1l-2,-1v1l-3,-3h-1v-1l1,1h1l-1,-2l-1,-1l-1,-2h-1l-2,-2l-1,-2h-1v-1h-3l-2,-4v-1l-4,-2v-1h-1l-1,1h-1l-4,-2l-2,1h-1l-6,-3h-3v1h-4l-4,1l-2,1h-1l-4,4l-4,2l-1,1h-5l-7,7h-1v6l-1,2l-1,1h-3l-3,1l-1,-1l-1,1h-2l-3,1h-1l-1,1h-2l-1,1v4h-2l-2,5l-1,1h-9l-3,-2l-1,-1h-2l-2,-2l-2,-4h1l1,1v-1l1,-1v-1l-1,-1l-2,-4v-1l-1,-2l-1,-4l-7,-7l-3,-5v-1l-2,-3v-1l-1,-1l-1,-2l-3,-3v-1l-4,-4v-1l-3,-5l-6,-6l-1,-2v-1l3,3v1l1,-1l-1,-2h-1l-1,-1l-1,-2l-1,-1v-1h1v1h1v2h1v1v-1l1,2h2v-1l-1,-1v-1l-3,-3l-3,-5l-1,-2h-1l-1,-2v-2l-1,-2v-6h-1v-3l-2,-4v-5h1v3l1,1v1h1v-6l3,-3l1,-2v-1l1,-1v-1l2,-3l1,-1h1l1,-1l1,1l2,-1v-1l6,-6h3v-1l3,-1l3,-3v-1l2,-2v-5l1,-1v-2l1,-1l1,-2v-2h-1v-2l-1,-1v-5l1,-1v-1h1v-4h1l1,3l2,2l1,2l1,1v1v-4h1v-2h-1v-1h-1l-1,-1v-1h1v-1l-1,-1v-1h1l1,2l1,-1h2v-2h1v-3l-1,2v-1l-1,-1v-2l1,-1v1v-2h2l1,1v-2l-1,1v-1l-1,-1h1v-1h2v1v-1l-1,-1v-3h1v-1h1v-1v1h1v-1v1l1,1v-4h1v-1h-1v-1h1v1h1v-1h1l1,1v-1l1,-1l-1,-1l1,-1h1l1,1h1l1,1h1l1,1v1l1,1l3,2v5h1v-1h-1v-1l1,-1v-1h1v-1h1l3,1l1,1v1v-3l2,2h1v-1h-1v-1h2v-1h-2v-1h1v-1h-2l-1,-1v-1l1,-2l1,-1v-3l1,-1h1v-1l1,-1l-1,-1v-2l1,-1v-2h1v-2h1v1h1v-2h1v-1l1,-1v-1v1l1,1h3l1,-1h2v-1l1,1v-1h2v-2l-1,-1v-2l-1,-1h-1l-1,1l-1,-1h-1l-1,-1l1,-1l1,1h1v-1h1l2,2h1l1,-1h1l1,2l1,1h4l2,1h5l2,1h1l1,-1h1l2,-2h1v1h-1v2l1,-1h1v1l1,1h1v-2l1,-2h1v1l1,1h1l1,1l-3,4l1,1v1l-1,2h-1v-1l-1,1l-2,1l1,3v5l-1,1l-1,2v1l-1,1l1,1v1l3,1l1,1l2,1v1h1l1,1h2v1l1,1h1v-1l2,2l2,1h2l1,2l2,1l1,1h3l2,1h1l1,1v1l1,1l4,2h1l1,1h2l2,-1l2,-2v-2l2,-5v-2l1,-2v-12l-1,-3v-4l-1,-1v-3l1,-1v-2l-1,-2l2,-2h1l-1,-1v-1h-1l-1,-2l1,-2l1,-1v1v-2l1,-2v-6l2,-2h1v1l2,2v1l1,1v4l1,1h1Z"/>
<path class="sl" d="M388,633v1l-1,-1v-4l1,-1v-3h1v3l-1,3ZM275,563h-1v1h-1v-2h1l1,-1h1l1,1h-1ZM252,541l1,-1v1l-1,1v1l1,1h1l-1,1h-4l1,-1v-3l1,-1ZM205,528h1v1h-4l1,-1v-3h1v1h1v1ZM206,525h1l1,-1h1l1,-1h1l1,1v2h-1v1l-2,2l-4,-2v-1l-1,-1v-2l1,1ZM135,668l-2,-2l-1,-2h1l1,2l1,1ZM298,723h1l1,-1h1v2l-1,-1l-1,1h-1v1h-6v-2l3,-1h3ZM353,738l-1,1v-1ZM352,739l1,1h-2ZM352,589h-1v-1ZM351,588h-1v-1h1ZM371,615h1v2l-2,-1v-1ZM365,606v-1ZM360,605v-1ZM393,647v3l-1,-1v-2ZM392,646v1v-1l-1,-1l1,-1ZM291,510h-1v-1ZM291,505v1h-1v-1ZM290,505h-1v-1h1ZM328,573h1v2l-2,-2h1v-1ZM248,520l1,-2v-2v2ZM247,522l-1,1v-1l1,-1h1ZM257,557l-1,1v-1h-1h1v-1v1ZM255,556v-1ZM253,557h-1v-1h1ZM276,567h-1l1,-1ZM248,541h-1h1v-1ZM220,523h-1v-2h1ZM174,558v1v-2ZM172,566h-1v-1h1ZM131,622v-1ZM356,757h3l1,1h1l2,1h3v-1l1,1v-1h2v-1h2v-1h4l1,1v1l1,1v4l1,1v2h1h-1v-1h-1h1l-1,-1v7l1,1v1h-1v1l-1,-1v-1h1l-1,-1h-1v1l-1,-1h-1h1v3l-2,-1v1h1v3h-1l-2,-1h-2v1l-1,-1l1,-1h-3l-1,-2h-1v-1l-3,-3v-2l1,1v1h1v-1l-1,-1h-1l-2,-2l-1,-2l-2,-1v-1l-1,-1v-2l-1,-1v-1h1ZM347,752v-1h-1v-3l2,2v2ZM372,748l1,1h1v1l1,1h-1l-1,1v-1l-1,-1v-1h-1v-1ZM375,775v1h-1v-2h1ZM378,770v-1h-1h1ZM375,774h-1v-1h1ZM353,755v1v-2ZM375,752h1v1h-3v-1h1ZM375,753v1h-1v-1ZM457,849v-1ZM67,547h-1h1v-1ZM201,897h-1v-1v1ZM504,658v1h-1v-1ZM162,541h-1ZM677,965h1ZM604,989h-1l-1,1h-1h1v-1l-1,1h-1h2v-1v1h-4l1,-1h-1l-1,1l1,-1h3v-1h3l1,-1h-1l-1,1h-4l-1,1h-2l-2,1h-3l2,-1h2l2,-1h1v-1l-4,1l-2,1h-2l-1,1v-1h2l2,-1h1l2,-1h1h-1l-1,1v-1l-1,1h-4l-2,1h-3l-1,1l1,-1h1l-1,1h-2v1h-4v-1h1l-1,1h-4v1h-6v1h-4v1h-7l-1,1h-1h1v-1h1h-2v1h-1h1l1,-1h-3l-1,1h-11l1,1h1v1h-9v1h1h-4v1h-1h1h-7l-7,1h2l8,-1h10l1,-1h1h-1l-1,1h-15l-1,1h-44l-1,-1h-15l-1,-1h-11l-1,-1h-7l-1,-1h-7l-1,-1h-6l-1,-1h-6l-1,-1h-5l-1,-1h-4l-1,-1h-4l-1,-1h-5l-1,-1h-3l-1,-1h-3l-1,-1h-4l-1,-1h-3l-1,-1h-3l-1,-1h-3l-1,-1h-3l-1,-1h-2l-1,-1h-3l-1,-1h-2l-1,-1h-2l-1,-1h-3l-1,-1h-2l-1,-1h-2l-1,-1h-2l-1,-1h-2l-1,-1h-2l-1,-1h-2l-1,-1h-2l-1,-1h-2l-1,-1h-1l-1,-1h-2l-1,-1h-1l-1,-1h-2l-1,-1h-1l-1,-1h-2l-1,-1h-1h1l1,1v-1l1,1h1l1,1h2l2,1h-2v-1h-1h1l-1,-1h-1h1h-1v-1h-1l-1,-1v-2h-1l2,1h2l1,1h1l1,1h3l1,1h1v1h3l1,1h1v1h1l1,1h2l-1,-1h1v1h3l2,1h1l1,1h1l1,1h1l2,1h2l4,2h1l3,1h2v1v-1h-1l-2,-1h-2l-1,-1h-1l-1,-1h-1l-1,-1h-2l-1,-1h-2l-1,-1h-1l-2,-1h-1l-2,-1h-1v-1h-2l-1,-1h-2v-1h-2v-1h-1h1v-1h-1l-1,-1h-1l-1,-1h-2v-1h-1l-1,-1h-1l-1,-1l-2,-1h-1l-8,-8h1l-1,-1v-1l-1,-1h1v-1h1v-1h-1v-1h2v-1h1v-1h2v-2l1,1h1l-1,-1h3v-2l-1,-2h-1l2,-2l1,1l1,-1h1l1,1l1,-1l4,1h9v-2h-1l-2,-2v-1l1,-1h1v-1h1l1,1h2l3,1l1,1v-1h1l1,1h2l1,1v1h-1v1h-1l1,1h1l1,-1v-1h2v-1h3v-1h1l1,1l1,-1v-1h2l-2,2h1l2,-1l1,-1h1v-1l1,-1h1l1,-1h3v-2h4l4,2h5v-2l-1,-1v-1l1,-1h4l1,-1h2l1,-1l1,1h2l1,1l1,-1v-1h3l1,1h2v-1h1l2,1h15l1,1h2l1,-1h2v1h3v1l-1,1l1,1v1h1v-1h1l1,-1h2l2,1h2v1h1v1h12v-1l2,2h8v-1l-1,-1h2l2,2h2l1,1h5l1,1l1,-1h1l1,1h3l2,1l1,1v1h2v1h1l2,2v1h2l-1,-2l1,-1h1l1,1h11l1,1h1l2,2h2l2,1h1v1l1,-1h1v2h-2v3l-1,-1h-2l1,1h1v1h-1l-1,1h-1l-1,-1v1h-3l-1,-1h-1l1,1h1l1,1h1h-4l-1,1h1h-1v1h-1v-1h-1v-1h-1l1,2v1l1,1h-5v1h-1v2h-3v1h3v1h1v1h-1l1,1h1l-1,1h1l-1,1h1l2,2v1h1l1,1h-1v1h1l1,-1h1v1h2v1h-6l-1,1l-1,-1h-1l1,1h-2v2h-1h1l-1,1h1v1h-2v1h4l-1,1h1v1l2,1h1v1h1v1h-1h3l1,1h2v1h1h-1l1,1h4l1,1h2l1,1h3l1,1h4l2,1h3l1,1h1v1h1v-1h1l-3,-1v-1h-1h3v-1h-2v-1l-2,-1l-1,-1h3l1,1h3v1h1l2,1h3l1,-1h4l2,-1h2v-1l1,-1h2v-1h-1v-1h2l5,1h5l-1,-1h1v-1h5v-1h1l-1,-1v-2h-3v-2h5v-1h-4v-2h1l1,-1h1l1,-1h1l-1,1h6v1h2v2h5v-1l1,-1v1h2l-1,1h2l1,-1h1l1,-1h1h-1l1,-1h-1l-2,-1h-1h2l1,-1h1v1h1v1h1l2,-2l2,1l1,-1h5v1h3l1,-1h5l1,1h1l2,-1h3l-1,1h3v1h1l1,1h4l1,1h1l4,2h4v1h2l3,-1h1l-1,1h-2l-1,1h-2l-2,1h-1h5l1,-1h1v1h-2l-1,1h-4l-1,1h1v1h-1v1h2v1h1h-1v1h-2v1h1h-1h2l1,-1h1v-1h4v-1h-1h2l2,-1h1v-1h2l1,-1v1h-1v1h2l1,-1v-1h1l1,-1h2l1,-1h1h-1v1h-2v2h-1l-1,1h1h-2v1l-1,1h1h-1l-1,1h1l-1,1h-1l-4,2h-1l-1,1h-2l-2,1h3l1,-1l-2,1h2l1,-1h1h-1l-1,1h-2l-2,1h-2l-1,1h-2v1h-2l-1,1h-1h2l1,-1l-1,1h-3l-1,1h-3l-1,1h-3l-1,1h-4l-1,1h-1Z"/>
<path class="sp" d="M604,989h-2M601,990v0M540,998h-1l-1,1h-15l-1,1h-44l-1,-1h-15l-1,-1h-11l-1,-1h-7l-1,-1h-7l-1,-1h-6l-1,-1h-6l-1,-1h-5l-1,-1h-4l-1,-1h-4l-1,-1h-5l-1,-1h-3l-1,-1h-3l-1,-1h-4l-1,-1h-3l-1,-1h-3l-1,-1h-3l-1,-1h-3l-1,-1h-2l-1,-1h-3l-1,-1h-2l-1,-1h-2l-1,-1h-3l-1,-1h-2l-1,-1h-2l-1,-1h-2l-1,-1h-2l-1,-1h-2l-1,-1h-2l-1,-1h-2l-1,-1h-2l-1,-1h-1l-1,-1h-2l-1,-1h-1l-1,-1h-2l-1,-1h-1l-1,-1M624,984l-1,1h-3l-1,1h-3l-1,1h-3l-1,1h-4l-1,1h-2"/>
<path class="sl" d="M552,997h-3v1h-5l5,-1h-1l6,-1h6l-1,1h-6ZM562,995h-1h1l1,-1h1h3h-3v1h-1h2v-1h1l-1,1h1v-1v1h-3ZM630,983h-3v1h-1h1v-1h3v-1h1l-1,1h-1h1l1,-1h3l1,-1h1h-1h1h-1h2v-1h1v1h-2l-1,1h-3l-1,1ZM638,981l1,-1h2l1,-1l-1,1h-2ZM646,978h1Z"/>
<path class="sp" d="M637,981h-1l-1,1h-3l-1,1h-1M642,979l-1,1h-2l-1,1M648,978h-2"/>
<path class="sl" d="M655,969l-1,1h1h-1h1h-1l-1,1h-1h1h-1l-1,1h-2l1,-1h-1h1v-1h1l2,-2h3l-1,1h-1h1h-1h2ZM633,964h-1v1h-5v-1h3v-1h2ZM632,960h-1v1h-1v1h-1h1l-1,1h-1v1h-2v-1l2,-2h-1h1l1,-1h2ZM549,970h-3v-1h-2v-1l1,-1h2l1,-1l1,1v1h1v2ZM499,959l1,1h3l-1,1l-1,-1l-1,1h-2v-2ZM528,999h1ZM534,999h1ZM576,992h1ZM645,978l-1,1l1,-1h2h-1h1h-1ZM654,976h-2l-1,1h-1h1l1,-1h1ZM628,983h-2l-1,1l3,-1h1v-1h1h-1h1l-1,1ZM642,976l2,-1h2l1,-1l-1,1h-3ZM500,962v1l-1,-1l-1,1l-1,-1h2ZM311,933h-2v-1h2ZM569,994l1,-1h1l-1,1ZM575,993h1ZM649,977h2l1,-1h1h-1l-1,1h-1Z"/>
<path class="sp" d="M653,976h-1l-1,1h-2"/>
<path class="sl" d="M648,973h1ZM645,970h-1v-1h3ZM631,965h1l1,-1h1v1h-2ZM620,964v-1h2l-1,1ZM530,979v-1h1ZM539,975l-3,-1h3ZM492,950h-1ZM490,953v1h-1ZM506,946h-1v-1h1ZM491,919v-1ZM486,916h-1v-1ZM483,914h-1v-1ZM308,937h2l-1,1ZM314,935v1v-1h-1ZM314,937h-1ZM313,930v1l-1,-1h-2v-1h1v1h1ZM302,939l-1,-1h1ZM306,947h-2v-1h1ZM305,946h-1ZM303,946h1ZM346,971h1ZM350,973l-1,-1h-1h2ZM335,967h-1v-1h-1h2ZM530,999h1ZM645,979h-1ZM626,984v-1h1h-1ZM645,974h1ZM632,967v-1h1v1ZM616,961h1ZM617,962h-1l1,-1h1v1ZM582,963h-1ZM591,961h-1v-1h1ZM581,964h-1h2v1ZM578,964h-1ZM579,963h1h-1v1l-1,-1ZM577,963h1ZM585,962v-1l1,1ZM583,963l-1,1v-1ZM573,965l-1,-1h1v1h1ZM554,972l-1,-1h1ZM576,964h-1v-1h2v1ZM539,976h1ZM601,484h-1Z"/>
<path class="sh" d="M473,584l1,1l1,-1l1,1l4,3h1v1h1v1h1v1l2,1v1h1l1,1h1v1l4,2l2,2h1l1,1v2h-2l-1,-1h-2l-1,-1h-1v-1l-2,-1l-1,-1h-1l-2,-1l-3,-3h-1v-1l-2,-1l-2,-2v-1l-2,-2v-1l-1,-1v-1ZM501,604l-1,1v-1ZM438,577v-1ZM504,594h1v2h-1l-1,-1v-1h1v-1ZM492,588v-1l1,-1v-1v3ZM499,592l-1,-1h-1v-1h-1h1l1,-1l-1,-1h-1h3l-1,2h1l1,1Z"/>
<path class="sw" d="M261,67h-1v1h-1v1h-1l-1,1h-1l-1,1h-1l-2,2h-1v1l-2,1h-1v1h-1l1,-1h1h-1l-2,1l-1,1l1,-1h1h-1v1h-1v1h-2l-1,1h-1l-1,1h-1l-2,2h-1l-1,1h-1l-1,1v-1v1h-1l-2,2h-1l-1,1h-1l-1,1l-2,1h-2v1v-1l1,-1h2l1,-1h1l1,-1h1l1,-1l2,-1l1,-1h1l1,-1h1v-1h1l1,-1l2,-1h1l1,-1h1v-1l2,-1h1l1,-1h1v-1h1l1,-1h1v-1h1l1,-1h1l1,-1h1v-1h2l1,-1v-1h1l1,-1h1ZM242,78h-1l-2,2h-1h1l1,-1h1ZM872,166l2,2h-1v-1l-1,-1v-1h-1l-1,-1v-1h-1v-1h-1v-1v1h1v1l1,1h1h-1v-1h-1h1v1h1v1ZM873,167l-1,-1v-1v1ZM657,39h-1v1h-4v-1h4ZM658,45h1h-1l-1,-1h-3v-1h1l2,1h1ZM871,169v1v-1h-1v-1h-1h1ZM907,213l1,1h-1v-2l-1,-1h-1h1ZM185,181h-1v1h-1l-1,1v-1l-1,1v-1h2v-1h-1l-1,1h-1h1v-1h2v1l1,-1h-1v-1h1l2,-2v1h1h-1v1l-1,1v-1ZM213,93v1h-1v1h-1l-2,1v1h-1v1h-1l1,-1l3,-2l1,-1h1v-1h1v-1v1ZM191,107l2,-2h1v-1v1h-1v1h-1v1h-1l-1,1ZM299,99h-1l-1,2h-1l-1,1v-1h-1l1,-1v-1h1v-1h3ZM65,353h-1v-2h-1v-3h1l1,1v3ZM132,176v1l-1,1h-2l2,-2v-1h1ZM246,93h-1v-1h1l1,-1h1l2,-2h1v-1v1h-1h1v1h-1l-2,1l-1,1h-1ZM187,193l-1,1h-1l-1,-1l1,-1v-1l1,-1h1v2l-1,1h1v-1ZM657,45v1l-1,-1ZM608,19l-1,-1h1ZM80,233v-1h1v-1l2,-2v1h-1v1h-1v1ZM478,8h-1ZM134,159l-1,1Z"/>
<path class="sr" d="M133,160l1,-1"/>
<path class="sw" d="M162,210h-1l-1,1v2h-1l1,-1h-1v-3l2,-2v-1v2h-1v1l-1,1h2v-1h1ZM164,204h-1v1v-1ZM162,204v1h-1v1v-1h1ZM154,205h1v-1h1l-1,1v1v-1l-1,1ZM84,225l-1,1v1v-1l1,-1v-1ZM178,118l-1,1h-1v1h-1h1v-1h1v-1h1l1,-1l-1,1l1,-1ZM558,737v1h-2v-1l1,-1ZM606,13h-3v-1h1ZM898,198l-2,-2v-1v1v-1h-1v-1l-1,-1h-1v-1l1,1v1h1v1l1,1v-1h-1h1v1l1,1ZM452,6h-1v-1h1ZM112,186v-1h1h-1ZM72,307h-1v-1h1h-1h1ZM187,182v1h-1v-1h1v-1h1v-1h-1v1h-1h1v-1h1v1ZM620,33v1l-1,-1h-1h1h-1h1ZM877,172h1h-1v-1h-1v-1v1h1ZM164,204v-1h-1h1ZM243,97v-1h1v-1h1v1h-2v1h-1ZM78,233l-1,1v1l-1,1v-1l3,-3h-1ZM520,773v1h-1v1v-2ZM436,6h-1ZM74,244l-1,1l1,-1v-1h1v-1l-1,1l1,-1v1h-1h1ZM475,7h-1ZM477,8h1ZM179,192h1v-1h1l-1,1ZM149,208v1h-1v-1l1,1ZM176,192h-1l-1,1h-1v-1h2ZM854,150v1h1h-1v-1h-1ZM867,164l-1,-1h-1v-1l1,1v1ZM157,204h-1v1v-1ZM157,202v-1h1v1ZM184,173h-1v-1h1ZM156,204v-1v1v-1h1h-1ZM153,206v1v-1h1ZM152,208v-1v1h-1h1v-1h1h-1ZM881,182h1v1ZM105,196v1ZM850,144h-1h1v1l-2,-2h1v1h1v1ZM596,20h-2v-1l1,1ZM616,31h-1l1,-1v1h1ZM622,32h-1ZM642,39h-1v-1ZM641,37l-1,-1h-1h2ZM637,35h1v1ZM641,38h1h-2l-1,-1h1ZM186,111v1h-1l-1,1l1,-1ZM76,236h-1v1v-1h1v-1ZM762,75v-1v1l-1,-1l1,1h1v1h1l1,1h1v1h1l-1,-1h-1l-2,-2h-2v-1h-1v-1h-2l-1,-1l-3,-2h1v1h1l1,1h1v1h2v1h2v1h1ZM720,53h-1l-1,-1h-1l-1,-1h-1l-1,-1h-1l-1,-1l2,1l1,1h1l1,1h2v1ZM814,111h-1v-1h-1l-1,-1l1,1h1v1ZM824,119v1h1h-1v-1h-1v-1v1ZM820,117h-1v-1h-1l-1,-1l1,1h1ZM667,35h-1v-1v1ZM201,568v2h-1v2h1v1h-1v-1h-1v-4l1,-1v1l1,-1ZM115,193v1h-1l1,-1v-1h1v-1v1ZM115,193h-1v1v-1h1v-1ZM898,198l-2,-2v-1v1v-1h-1v-1l-1,-1h-1v-1l1,1v1h1v1l1,1v-1h-1h1v1l1,1ZM894,192v1h1h-1v-1v1v-1l-1,-1Z"/>
<path class="sr" d="M894,192v1M893,191v0"/>
<path class="sw" d="M36,445v1h-1l-1,-1h1v-2l-1,1v-2h1v3ZM517,776v1v-2ZM516,778h-1v-2l1,-1v1h-1v1h1ZM720,53h-1l-1,-1h-1l-1,-1h-1l-1,-1h-1l-1,-1l2,1l1,1h1l1,1h2v1ZM814,111h-1v-1h-1l-1,-1l1,1h1v1ZM234,80v1h-2l-1,1l2,-1v-1h1l2,-2h1l2,-2h1l2,-2h1l2,-2h1v-1h1l1,-1h-1v1h-2v1h-1v1h-1h1h-1l-1,1h-1v1h-1h1v-1h1l1,-1h-1l-1,1h1v-1h1l1,-1h1v-1h1l1,-1v1h-1h1l1,-1h1v-1v1v-1v1v-1v1h-1l-1,1h-1v1h-1l-1,1h-1v1h-1l-1,1h-1v1h-1l-2,2h-1l-1,1ZM795,96v1h1h-1l-1,-1v-1h-1l-1,-1l-2,-1l1,1l2,1l1,1ZM904,207l-1,-1l2,2h-1ZM856,155l1,1h-1ZM847,145h1v1l1,1v-1h-1v-1ZM849,144v1h1ZM309,40h1v-1h-1h2l1,-1h-1v1v-1h1l-1,1l1,-1v1h-1h1l1,-1h1h-2v1v-1h2l-1,1h-1h1v-1h2v-1h1h-1v1h-2v1h-1l1,-1h1h-1l-1,1h-2v1h-2v1h-2v1h-3v1h-2l-1,1v-1h3l1,-1h2v-1h2v-1ZM362,56v1h-1ZM526,17h1h-2ZM287,152l1,-1h1v1h-1l-2,1v1h-1l1,-1ZM696,43h1v1h1l-1,-1h-1l-1,-1v1ZM657,42h-1h1v1v-1h-1ZM620,31h-1ZM653,38v-1h1v1ZM664,39h1l1,1h1h-1l-1,-1ZM629,32l-1,-1h1ZM622,32h1ZM615,30l-1,-1h-1h1ZM612,27h-1h1h-1v-1ZM189,109h-1ZM94,211l-1,1v1h-1h1v-1l1,-1v-1ZM92,213l1,-1l-1,1v1ZM88,221l1,-1v1ZM82,227v-1ZM178,638l-2,-2l1,-1l-1,-1h2v1l1,2h-1ZM210,623h-1l-1,-1l1,-1h1l1,-1v-2h1v-1l1,1l-1,1v1h2v1h-1v1l-1,1ZM279,697l-1,-1v-1l1,-1v-1h-1l-2,-2h-1v-2h-1l-1,-1v-1l1,1h4v2l1,1l2,4v1h-2ZM290,691v1h-1l-1,-1h1v-1l-1,-3h-1v-1h-1l1,-1l-1,-1v-2h-2v-1l-1,-1v-1h-1h2v1h1l2,2h1l1,2v1l2,2v1ZM178,688v1v-1h-1v-2h-1l1,2v1h-1v-2l-1,-1v2l-1,-1v-2h2v-2h1l1,1h-1l-1,1l1,2h1ZM302,683v1l-1,1v-1h-1l-1,-1v-3l1,-2h1v2l1,2ZM283,672h-1v1h-2v-2h1l1,-1h1ZM284,669h-4v-1h-1v1h-1l-1,-1v-1l-1,-2l1,-1l-1,-1v-1h-1v-2h3l1,1h2v2h1v3l3,3Z"/>
<path class="sb" d="M924,236v-1l-1,-1v-1h-1l-2,-4l-3,-3l-1,-2l-3,-3l-1,-2l-1,-1h-1v-1h-1l-1,-1M820,116l-2,-2h-1v-1h-1l-1,-1h-1l-2,-2h-2v-1h-1l-1,-1M636,19l4,2h2l2,1h1l4,2h2l4,2l1,1h2l6,3h2l1,1l8,4h1l6,3l1,1l6,3l1,1l4,2h2l1,1h3v1h2v1h1l1,1h2l1,1h2v1h1l1,1h1v-1h-1l-1,-1h2v1h2v1h2v1h2v1h2l1,1h1l1,1h1l1,1h1l2,1l2,2h1l4,2l1,1h1l1,1h1v1h2l1,1h1l1,1h1v1h2l1,1h1M81,331l1,-1v-3h1v-2l-1,-1v-2l2,-2h-1v-1h-1v-1h-1v-2l1,-1v-2l-1,-1v-2h-1v-2l1,-1l-1,-1v-4h-1v-1l-1,-1v-1h-1l1,-1v-1h1v-1h2l1,-2v-1h1v-3h-1v-1h1v-3h-1v1h-1v1h-2v-3l1,-1v-2h1h-1v-1v1v-5M71,337v2l1,-1h1v1h1v-3l2,-2h1v-1v1l1,1l2,-2v-1h1v-1v2l-1,1l-1,2v7l-1,1v4l-1,1v2h-1l-4,4v2h-2v1h-1v7l-1,-1v1v-1h-2v1h-1v2h-1v1l-1,1h-1v1M74,285v1l-1,1h-1v1l-1,1v1h-1v2h-1v1l-1,1l-1,2M41,380l1,-1v-3l1,-1v-1l1,-2l1,-3l1,-1v-1l1,-1v-10l1,-1v-3l1,-1v-3l-1,-1v-5l1,-2v-1l1,-1l1,-2v-3l2,-2v-12l1,-1v-4h1v-1h1v-3l1,-1v-1l1,-2l1,-1v-2h1v1v-1h1l1,-1v-1l1,-1v-1h2v-2h1l1,-1v1v-1h1v-1v3l-1,1v1l-1,1v1h1v-1h2l-1,1v2l-1,1v2l-1,1v1h-1v3l-1,1l-1,2v2l2,-2v-1l2,-2v-1h1v-1h1v2h1v-1h1v-1l1,-1v-1h1v-1h2v4l1,1v2l-1,1v2l-1,2v3l1,1v2h1v1h-1v2h-1v4h-1v3l-3,3v-1h-1l-1,1h-1l-1,1l-1,-1v1h-1v1l-3,3v1l-1,2v1h-1l-1,3v12M99,276h-2v1v-1l-1,-1v-1h-1v1v-1l1,-1v-2l1,-1v-1h1v-1h-4v-2l-1,1h-1v1h-1v2h-1v1h-1v1h-1v-1v1l-1,1v1h-1v-1l-1,1v-1l-1,1v1h-1v1v-1l-1,-1v1h-1v1l-1,1h-1v1v-1l-1,1v1h-1v4l-1,1v2h-1v1h-1l-1,1v-1h1v-3h1h-1l-2,2v1h-1v-3l1,-1h-2v-1l1,-1v-1h1v-2l1,-1v-1h-1v-1l1,-1v-2h1v-2l1,-1h-1l-1,1h-1v1l-1,1v-1l1,-1v-1l1,-1h-1h1v-1l1,-2v-1h1v-1l1,-1v-1h1v-1l1,-1v-1h1v-1h1v-1l1,-1v-1l1,-1l1,-2v-1l1,-1v-1l1,-1v-1l1,-1v-1l1,-1h-1v1v-1l1,-2v-2h1v-1h-1v1v-1h1h-1l-1,1v1M238,133l1,-1l2,-1l1,-1h1v-1h1l1,-1h2v-1h2v-1h1l1,-1h1l4,-4h2v1h5v-1h1v-2l1,-1h4v-1h1l2,-2h2l1,-1v-1h1v-1h2v2h1M242,144v-1h1l2,-2h1v-1h5l2,-2h1M250,87l-1,1l-2,1l-2,2h-1l-3,3h-1l-2,2h-1l-1,1v1h1v-1h3l1,-1v1h1l1,-1h1l1,-1h2l1,1v3h-1v1h-1l-1,1h-2v-1v1h-3l-1,1h-1l-1,1v-1l-2,2h-3v1h-1v1h-1l-1,1h-1v1h-1l-1,1h-1l-1,1h-1l-1,1h-2l-1,1h-1l-2,2h-1v1h-2v1h-3l1,-1h-2l-2,2h-1l-3,3v2h-1v1h-1v1h-2v1h-1l-1,1h-1v1h-1l-2,2h-1v1h-1l-1,1h-1l-1,1h-1v1h-3l-1,1h-2l-2,1v1h-2l-1,1h-1l-3,3h-1l-1,1h-1v1h-2l1,-1l-2,1h-3v-1l1,-1h-1v1h-3v1h-2l-1,1h-2l-1,1h-1l-1,1h1v-1l1,-1v-1h1v-1l4,-4v-1l1,-1h-1l-1,1h-1h1h-1h1v-1h1v-1l1,-1h1v-1h1l3,-3h1v-1l1,-1h1v-1h1v-1h1v-1h1v-1h1v-1h1h-1v1v-1h1"/>
<path class="sb" d="M279,115h-1l1,-1h-1h1v-2h3v-1h1v-1h1l1,-1v-1h1h-1h1v-1l1,-2h1v-2l1,-1v-1h2v-1h1l1,-1h1l1,-1h1l1,1h3l3,-3h1v-1h1l2,-2h1v-1h1v-1l1,-1h1l1,-1v-1h1l1,-1v-1h2l1,-1h1v-2h1v-1h1h-4l-1,1h-3v1h-2l-1,1h-1v1h-4l-1,1l-1,-1l-1,1h-1v-2l2,-2h-1l1,-1h-1l-1,-1v-1h-3v-1h-1l-1,1h-2v-2h1l1,-1h-1h1v-1h1v-3h1v-1l1,-1v-1h1l-1,-1h1v-2h1h-1v-1h1h-5l-1,-1v1h-4l-1,1v-1l-1,1h-2l-1,1h-2l-1,1l-4,2h-1v1h1v-1v1h-1v1l-1,1h-1l-2,2h-2l-2,2h-1v1h-1l-1,1h-1v1h-1l-1,1h-1v1h-1v1h-1l-1,1h-1l-1,1h-2l-2,2h-1v-1l-1,1v-1h-4v1h-1v-1h-3l-1,1h-1l-2,2h-1l-1,1h-1l-1,1h-1l-2,1h-2v1h-1l-2,1h-1l-1,1h-4v-1l1,-1h1h-2v-1h-1v1v-1l-1,1h-2l-1,1h-1l-1,1h-1v1h-1v-1v1v-2h1l2,-2h1v-1h-2v-1v1h-1v1h-1l-1,1h-1l-2,2h-1v1h-1l-1,1h-1v1h-1v1h-1l-3,3h-1v1h-1l-1,1v-1v1h-2v1h-1h1h-1h1v-1l1,-1h1h-2v1v-1h1h-1v1h-1v1h-1v1h-2v1h-1v1h-1M66,251v1v-1h1h-1v1l-1,1v1l-1,1l1,-1l-1,1v1l-1,1v1v-1h1v-1v1v-1h1h-1v1h1v-2h1M65,258v-1h1v-1l1,-1v-1l1,-1v-1h1v-1l1,-1v-1h1v1h-1v1v-1h1v1v-2h1v1l-1,1M58,266v-1h1v-1v1l-1,1v2l1,-1v1v-1l1,-1v1v-1l1,-1v-2l1,-1v-1l2,-2v-1l1,-1v-1l1,-1v-1h1v-1v1l-1,1l-1,2v1h-1v2h-1v1h1l-1,1h1v-1l1,-1v-1v1h1v-1h1v-1h1v-1h1v-2h1v-3h1v-1h1v-1h1v-1l1,-1v-1h1v-1l1,-1v-1h1v-1h1v-1h1v-1l2,-2v-1l1,-1h1v-1v1l1,-1v1v-1h1v-1l1,-1h1v-1v2h-1v1l-1,1l1,-1v1l-1,2h-1v1l1,-1v1l1,-1v1l-1,1v1h-1v1l-2,2v1l-1,2v1h-1v-1h1v-1l-2,1v1l-1,1v1h-1v1l-2,1v1l-1,1v1h-1v1l-1,1v2h-1v1l-1,1v1l-2,2v2h-1v1l-1,2l-1,1v1l-1,1l-1,2l-1,1v1h-1l-1,2v1l-1,1v1l-1,2l-1,1v1l-1,1v1l-1,1v2h-1v1l-1,1v-1v2h-1M46,298v-1h1v-2l1,-1v-2h1v-1l1,-1h-1l1,-1v-2l1,-1v-1l1,-1v-1l1,-1v-3l1,-1v-1v1l1,-1l1,-2l1,-1v-2l1,-1v-2h1v-1l1,-1v-1l1,-1h-1h1l-1,1h1v-1v1l-1,1v1l1,-1v-1h1h-1v1l-1,1l-1,2v2h-1h1l1,-1h1l1,-1v2h-1v2l-2,2v1l-2,2v1l-2,2v1l-2,4h1v-1v1v-1l1,-1v-1l1,-1v-1h1v1l-1,1l-1,2v2l-1,1v2l-1,2l-1,1l-1,3v1l-1,1v-1v1l-1,1v3h-1v1"/>
<circle class="w1" cx="531" cy="602" r="5"/>
<circle class="c1" cx="531" cy="602" r="4"/>
<circle class="w2" cx="500" cy="591" r="41"/>
<circle class="w2" cx="500" cy="591" r="39"/>
<circle class="c2" cx="500" cy="591" r="40"/>
<path class="sg" d="M 263.1640 939.5517 A 249.7500 45.8287, 0, 1 1, 735.8360 939.5517"/>
<path class="sg" d="M 69.4398 753.5640 A 432.5797 79.3777, 0, 1 1, 929.5602 753.5640"/>
<path class="sg" d="M 0.0000 499.5000 A 499.5000 91.6574, 0, 1 1, 999.0000 499.5000"/>
<path class="sg" d="M 69.4398 245.4360 A 432.5797 79.3777, 0, 0 1, 929.5602 245.4360"/>
<path class="sg" d="M 263.1640 59.4483 A 249.7500 45.8287, 0, 0 1, 735.8360 59.4483"/>
<path class="sg" d="M 519.8371 0.4142 A 106.4453 499.5000, -177.66656541, 0 1, 479.1629 998.5858"/>
<path class="sg" d="M 582.3831 6.9245 A 331.8552 499.5000, -170.44861762, 0 1, 416.6169 992.0755"/>
<path class="sg" d="M 750.9797 67.9236 A 468.3448 499.5000, -149.77063053, 0 1, 248.0203 931.0764"/>
<path class="sg" d="M 181.3231 114.4498 A 479.3418 499.5000, -219.56780134, 0 0, 817.6769 884.5502"/>
<path class="sg" d="M 401.4876 9.7104 A 361.8995 499.5000, -191.31606403, 0 0, 597.5124 989.2896"/>
<path class="sg" d="M 470.6842 0.8319 A 147.4866 499.5000, -183.30718688, 0 0, 528.3158 998.1681"/>
<text x="0" y="0" class="fs" transform="translate(826,307) rotate(81)">150W</text>
<text x="0" y="0" class="ft" transform="translate(826,307) rotate(81)">150W</text>
<text x="0" y="0" class="fs" transform="translate(960,346) rotate(77)">120W</text>
<text x="0" y="0" class="ft" transform="translate(960,346) rotate(77)">120W</text>
<text x="0" y="0" class="fs" transform="translate(28,353) rotate(102)">90E</text>
<text x="0" y="0" class="ft" transform="translate(28,353) rotate(102)">90E</text>
<text x="0" y="0" class="fs" transform="translate(144,313) rotate(99)">120E</text>
<text x="0" y="0" class="ft" transform="translate(144,313) rotate(99)">120E</text>
<text x="0" y="0" class="fs" transform="translate(355,288) rotate(94)">150E</text>
<text x="0" y="0" class="ft" transform="translate(355,288) rotate(94)">150E</text>
<text x="0" y="0" class="fs" transform="translate(604,286) rotate(87)">180E</text>
<text x="0" y="0" class="ft" transform="translate(604,286) rotate(87)">180E</text>
<text x="0" y="0" class="fs" transform="translate(671,888) rotate(11)">60S</text>
<text x="0" y="0" class="ft" transform="translate(671,888) rotate(11)">60S</text>
<text x="0" y="0" class="fs" transform="translate(793,682) rotate(10)">30S</text>
<text x="0" y="0" class="ft" transform="translate(793,682) rotate(10)">30S</text>
<text x="0" y="0" class="fs" transform="translate(837,428) rotate(9)">0N</text>
<text x="0" y="0" class="ft" transform="translate(837,428) rotate(9)">0N</text>
<text x="0" y="0" class="fs" transform="translate(790,192) rotate(10)">30N</text>
<text x="0" y="0" class="ft" transform="translate(790,192) rotate(10)">30N</text>
<path class="tb" d="M127,998h-2l-1,-1h-2l-1,-1h-2l-1,-1h-2v-1h-3v-1h-2l-1,-1h-2v-1h-2l-1,-1h-2v-1h-2v-1h-2l-1,-1h-2v-1h-2v-1h-2v-1h-2v-1h-2v-1h-2v-1h-2v-1h-2v-1h-2v-1h-1l-1,-1h-1v-1h-2v-1h-2v-1h-1v-1h-2v-1h-1l-1,-1h-1v-1h-2v-1h-1v-1h-2v-1h-1v-1h-1l-1,-1h-1v-1h-1v-1h-1l-1,-1h-1v-1h-1v-1h-1v-1h-2v-1h-1v-1h-1v-1h-1v-1h-1l-2,-2h-1v-1h-1v-1h-1v-1h-1v-1h-1v-1h-1v-1h-1v-1h-1v-1h-1v-1h-1v-1h-1v-1h-1v-1h-1v-2h-1v-1h-1v-1h-1v-1h-1v-1l-1,-1v-1h-1v-1h-1v-1l-1,-1v-1h-1v-1l-1,-1v-1h-1v-1l-1,-1v-1h-1v-2h-1v-2h-1v-1l-1,-1v-1l-1,-1v-1l-1,-1v-2h-1v-2h-1v-3h-1v-2h-1v-4h-1v-3h-1v-5h-1v-6l-1,-1v-17h1v-7h1v-4l1,-1v-3h1v-3h1v-3h1v-2l1,-1v-2h1v-2h1v-2h1v-2h1v-2h1v-2h1v-2h1v-1h1v-2h1v-1h1v-2h1v-1h1v-1l1,-1v-1h1v-1h1v-1l1,-1v-1h1v-1h1v-1h1v-1h1v-1h1v-1h1v-2h1v-1h1v-1h1v-1h1v-1h1l3,-3h1v-1h1v-1h1v-1h1v-1h1v-1h1v-1h1l1,-1h1v-1h1v-1h1v-1h1l1,-1h1v-1h1v-1h2v-1h1v-1h1v-1h2v-1h1v-1h2v-1h1v-1h2v-1h1l1,-1h1v-1h2v-1h1l1,-1h1v-1h2v-1h2v-1h2v-1h1l1,-1h1l1,-1h1l1,-1h1l1,-1h1l1,-1h2v-1h2v-1h2v-1h2l1,-1h2v-1h2v-1h2l1,-1h2v-1h3v-1h2l1,-1h2v-1h3v-1h3v-1h159v1h3v1h3v1h2l1,1h2v1h3v1h2l1,1h2v1h2v1h2l1,1h2v1h2v1h2v1h2l1,1h1l1,1h1l1,1h1l1,1h1l1,1h1v1h2v1h2v1h2v1h1l1,1h1v1h2v1h1l1,1h1v1h2v1h1v1h2v1h1v1h2v1h1v1h1v1h2v1h1v1h1l1,1h1v1h1v1h1v1h1l1,1h1v1h1v1h1v1h1v1h1v1h1v1h1l3,3h1v1h1v1h1v1h1v1h1v2h1v1h1v1h1v1h1v1h1v1h1v1l1,1v1h1v1h1v1l1,1v1h1v1h1v2h1v1h1v2h1v1h1v2h1v2h1v2h1v2h1v2h1v2h1v2l1,1v2h1v3h1v3h1v3l1,1v4h1v7h1v17l-1,1v6h-1v5h-1v3h-1v4h-1v2h-1v3h-1v2h-1v2l-1,1v1l-1,1v1l-1,1v1h-1v2h-1v2h-1v1l-1,1v1h-1v1l-1,1v1h-1v1l-1,1v1h-1v1h-1v1l-1,1v1h-1v1h-1v1h-1v1h-1v2h-1v1h-1v1h-1v1h-1v1h-1v1h-1v1h-1v1h-1v1h-1v1h-1v1h-1v1h-1v1h-1l-2,2h-1v1h-1v1h-1v1h-1v1h-2v1h-1v1h-1v1h-1l-1,1h-1v1h-1v1h-1l-1,1h-1v1h-1v1h-2v1h-1v1h-2v1h-1l-1,1h-1v1h-2v1h-1v1h-2v1h-2v1h-1l-1,1h-1v1h-2v1h-2v1h-2v1h-2v1h-2v1h-2v1h-2v1h-2v1h-2l-1,1h-2v1h-2v1h-2l-1,1h-2v1h-2l-1,1h-2v1h-3v1h-2l-1,1h-2l-1,1h-2l-1,1h-2Z"/>
<path class="tl" d="M169,986h1v1h-3l-1,-1h2v-1ZM114,989h-3l-1,-1h2l1,1ZM176,983h1l1,1v1h1l-1,1h-2l-1,1h-1l-1,-1l1,-1v-2h1v-1ZM124,980h2v1h-1ZM122,980l1,1h-1l-1,-1ZM136,977h1h-2ZM156,974v1l1,1h-5v-1l1,-1v-1l-1,-1l1,-1v1h1l1,1ZM158,964v1h-2v2h1l-2,2v1h1l1,1h1l4,4v1l1,1v1h-1v2h-1l-1,1h-1v1h-2l1,1h1v1h-2l1,1h1v1h3l1,1h3l1,1h3l1,1h1l1,1v-1h1v-1h2l2,-1l1,1h1v-1h4v-1h3l1,-1h-1v-1h-4l-1,-1l1,-1h1l2,-2h4l1,-1h1l2,-2h-1v-1h1v-1h2v-1l1,-1h1v1h1v-1h8v-1h3v-1h1l1,1h2v-1h1v1l1,-1h4v1h6v-1h3v-1h2v1h3l1,-1h3v-1h2l1,-1h2l1,-1h4v1h1v1h1l1,1h1l1,-1l1,1h2v1l-2,2h-1v1h1h-1v1h-1v1h2l2,-2h1v-1h3l1,-1h1v-1h2l1,-1h5v-1h1v1h5v1h1l1,-1l1,1l1,-1h1l2,-1v1l1,1h3l1,-1h2v1h1v1h4l1,-1v1h9l1,-1l-1,1v1h-1h3l1,1h2l-1,1v1h1v1h2v1h1v2h2l1,1v1h-1l-1,1h-2l-1,1h-3l-1,1h-2l-1,1h-2l-2,2v1h-5l-1,1h-2v1h-1v3h2l-11,4h-155l-11,-4h-1h2l1,-1l1,1h14l-1,-1h-7v-1h-2v-1h-3l-1,-1h4v-1h-2l-1,-1h-7l-1,-1l-2,-1l1,1l1,-1l2,1v-1h1v-1l-1,-1h-1h2v-1h2v-1h4l1,-1h5l1,-1l1,1v-1h1l1,1h1v-1l1,1h6v-1h-2l-1,-1h-1l-1,-1h4l1,1h1l1,-1h3l-1,-1h1l1,1l1,-1l1,1h3v-1l1,1h4v-1h2l1,-1v-1h-1v-1h-1v-1h-1v-1h-1v-2l-1,-1v-1h1v-2h1v-1h1v-1h1l1,-1l1,1ZM144,951l2,1h1v1h-1v-1v1h-4l-2,-2l-2,-1l2,1h2v-2h1v1ZM151,947h1v1h-2v1l-1,-1l1,-1ZM269,946h-1v-2h1l1,1ZM345,939v1h1l1,-1v1l-3,3v-1l-1,1h-1l1,-1v-1l1,-1v-1ZM368,943v1l1,-1v1h-1l-3,3h-1l-1,1h-1l-2,2h-2v1h-1v-1h-1v-1l4,-2h1l1,-1h2l2,-2h1l2,-2ZM376,936l-1,2l1,-1l-1,1l1,1h1l-2,2h-1l-2,2l-2,1h-1l2,-1v-2l1,-1l2,-1v-1l1,-1v-3l1,-1v1l1,1ZM382,913l-1,1v-2l-1,-1v-1h1v1l1,1ZM397,906v1l-1,1h-1v-1l1,-1v1ZM398,906h-1v-1h1l1,-1v1ZM10,905v-1ZM386,904v-1ZM386,901v2h-1v-1ZM259,895v2l1,1h-1v1v-1v2h-1v3l-3,6v2h-1l-1,1l-1,-1h-1v-5h1v-2l1,-1h-1v-3h1v-1h1l2,-2h1v-1l1,-1v-1l1,-1v1ZM361,898v1h1v1h1l-1,1v2h1l-1,2v1l2,2v4h1l-1,2l1,1v3l-1,1v2l-3,3v1l-1,1l-1,2h-1l-1,2h-1l-4,4v1h-2l-1,1h-1l-1,1v-1h-1l1,-1h-1l-1,1h-1v-1h-1v-3h1l-1,-1v-1l1,-1l-1,1h-1l3,-3l-2,1h-1l-1,2v-4l-2,-2h-2l-1,1h-4l-2,2h-4l-1,1v-1l-1,1h-2v-1h-1l1,-1v-1h1v-3l1,-1v-7l1,1v-3l1,-1v-1l1,-1l-1,1l2,-2h1l1,-1h2l1,-1h2v-1h1l1,-1v-2l1,-1v2l1,-1v-1h1v-1l2,-2h2v1h2v-2h1l1,-1v-1h2v-1h-1h1l1,1h3l1,1h-1v1h-1v1l-1,1v1l2,2v1h1l1,1h1v-1l1,-1v-1l1,-1v-3l1,-1v-2h1v-1v3l1,1Z"/>
<path class="tl" d="M383,894h-1v-1v1ZM337,892l-2,-1h2ZM381,893h-1v-1h1ZM382,892v-1l-1,-1h1ZM341,892h-1l3,-3h2l-1,1h-1l-1,1ZM335,889h1v1h-3l1,-1ZM340,889v1h-3v-1h2ZM381,890v1l-2,-2h1v1ZM378,889v-1h-1v-1l1,1ZM325,887h2v-1l2,1v1h2l1,1l-1,1l-1,-1h-4l-1,-1h-1l-2,-1h-1l1,-2h1l1,1ZM353,886v1v-2ZM377,888h-1v-2l-1,-1h1v2h1ZM373,885l-1,1h-1l-1,1l-1,-1h-1l1,-1l1,1v-1h2v-2h1v1ZM345,882h-1v-1h1ZM349,881v2l-1,-1h-2v-1h2ZM374,884l-1,-1v-1l-1,-1h-1h2v2h1ZM353,878v3l2,1v-2l2,-1h1l1,1h1l1,1l4,2v1h1v1l2,1v1h-1v1l1,1v2h1v1h1h-1l1,1l-1,1v-1h-2l-1,-1v-3h-3l-1,1v1h-2l-2,-2v1h-2l1,-2h1l-1,-2v-1l-2,-1h-1l-1,-2l-1,1l-1,-1h1l-1,-1l1,-1h-1v-1h-1l-1,-1h2v-1ZM343,875l-1,1h-4v1l1,2v-1h2l-1,1h-1l1,2v1l1,2v1h-1v-2l-1,1v-1l-1,-1l1,-1h-1v4h-1v-3h-1v-1l1,-1v-4h1v-1h4l1,-1ZM347,875v1h-1v1l1,1h-1v-4h1ZM321,885h-1l-2,-2v-1l-2,-2l-1,-2v-2l-1,-1v-1l-4,-4v-1h2l3,3l1,2h1l2,2h1l-1,2h1v1l1,1h1v3ZM335,874l1,1h-1v3l-1,1v1l-1,3v-1l-1,1l-1,-1h-1v-1l-1,1l-1,-1h-1l-2,-4v-2l1,-1h2v-2h2v-1l1,-1v-1h1l1,-1v-2h1v1l2,2v1h-1l-1,2l1,1ZM344,864v3l-1,-1v2l-2,-2h1l-1,-1v1l-1,-1l-1,1v-1l1,-1h2v-1h1v-1l1,1ZM294,868h-1v-1l-1,-2l1,-2l1,1v1l1,1v1ZM137,863h-1l1,-1h1ZM341,861v1l-1,1l-1,-1l1,-1v-1v1l1,-1ZM335,863l-1,1v-1l1,-1v-1l1,-1v1l-1,1ZM338,859h2v1l-1,1v-1h-1ZM342,858l1,2h-1v1v-1h-1v-1h1h-1v-1ZM338,857l-1,1l-1,-1h1ZM336,849h1v6h1l2,1v2l-1,-1v-1v1l-1,-1h-2v-1h1h-1l-1,-1v-5ZM133,851v1h-1v-1ZM121,852h-1v-1h2v1ZM126,849h3v1h1v1h-2l-1,1v-1h-1v-2h-1ZM324,849l-1,1h-1v-2l1,-1h1v1ZM37,846v-2h1v2ZM38,844h-1v-1h1ZM119,845h2l1,1v1h1v1h2l-1,1h-3v-1h-1v-2h-2l-1,-1h-1h1h-2l-1,1h-1l2,-2h3ZM122,843h-1v-1l1,-1v1ZM334,843v1l-2,-2v-2l1,-1l1,1ZM122,839l-1,1v-1ZM123,839v1v-1h-1ZM340,825h1v1h-1v1h-1v-2ZM240,828l-2,2v-1h-1h2ZM229,828v1h-1ZM220,825v2h-1l-1,-1h-1v-1h2ZM214,821v3h-1v-3ZM344,820v1l1,1v1l-1,1h-1l-1,2l-1,-1v-1l-2,1l-1,1h-1l2,1v3l-1,-1v-1h-1l-1,-1l1,-1v-3h3v-3l1,1v-2h1l-2,-4v-1l3,3v1ZM214,820v1l-1,-1v-1l1,-1ZM340,810l1,-1l1,2h-1v2l-2,-1l1,2h-1l-1,-2l-1,-1h1l-1,-2l-1,-1l3,1ZM144,812l1,1h1h-2ZM147,809h-1l-1,-1h1ZM92,806h-1l-1,-1v-2h-1v-1h1l1,1v1l1,1ZM153,807l-1,1h1v1h2l-1,1h1v1l-1,2l-1,-1l1,-1l-2,1v-1h-3l1,-1h-1l4,-4h1Z"/>
<path class="tl" d="M90,797h1l-2,2v1v-3ZM332,800l3,3l-2,-1l1,2l2,2v1l-2,-2l-1,-2l-6,-6v-1h-1h1l3,3ZM198,806l-1,1h-2l1,-2v-1l2,-2h1v3ZM216,801l-1,2l-1,-1v-1h1ZM79,791h-1v-1h2ZM202,797l-1,2h2v1l-1,1h1l2,4h1v1l-1,1h1l-1,1h-3l-1,1h-2l2,-2h-1v-1h1l-1,-1v-1h2l-1,-1h-1v-2l-1,-1l1,-2v-1l1,1ZM75,786h-1v-1h1ZM141,790l-1,1v-1ZM139,790h-2l1,-1h1ZM78,780v1h1h-2v-1ZM139,786h1v1h1l-1,1h1l-1,1l-1,-1h-1l-2,1l1,-1h-1h1l1,-1l1,-2ZM193,787v1l1,1l-1,1h-3l-1,1l-1,-1h-2l1,-1h-1h1v-1h-2l1,-1h1l1,1l2,-1h2ZM147,784h-1l1,-1h2l-1,1ZM81,776v1l1,-1h2l-1,2h-3l-1,1h-1l-1,-1h1v-1h-1h1h-2l-1,1l8,-5v1l-1,2ZM135,780l-1,1v-1h-1l1,-1h1ZM322,771h-1ZM88,771h-1h2ZM139,780l-1,2l2,-1v1h-1v1l1,-1l2,-1l1,-1h2v2h-1v1l-1,1l-2,1h-1v-1l-1,1l-2,1v1h-3l-2,2h-1l-1,1l-2,1l-1,1l-1,2h1l-1,1v1h1l3,3l2,1h1l-2,2v2l1,1h1l2,-4h-1l4,-2v-1l1,-1v-1l-1,-1l2,-1l2,-4l1,1h1l1,-1v1l1,1h1v2l-1,1l1,1h2l1,-2h1v3l1,1l-1,1l1,1v1h1l1,1v1l1,1l-2,2h-2l-2,2h-1l-2,-1h-2l-2,1l-1,1l-2,1l-1,1l2,-1l3,-1h2l-1,1l-1,2v1l1,1l2,-1l1,-1v1h1l-4,2h-1l-2,1v-1l2,-1h-3v1h-1l-1,1h-1l-2,2l1,1v-1v1h-3l-1,1l2,-1v1h-2l-2,2v1l-1,1l-1,-1l1,-1l-1,1v4l-1,1h-1l-1,1h-1l-3,3h-1v8l-1,1h-1v-3l-1,-1l1,-1l-1,-2l-1,1l-1,-1h-4v1h-1l-1,-1l-1,1l-1,-1l-2,2h-2v1h-1v3l-1,1v1l-1,2v4l1,1v1h1v1l1,-1h3v-1l1,-1v-1l1,-1h3v1l-1,1v2l-1,1v-1v2l-1,1v1h5v1h1v1l-1,1v3l-1,1h1v2h1v1h2l1,-1h1v1h1l1,1l1,-1v-2l1,-1h2l2,-2v2h-1h1v1l-1,1v1h1v-3h1v-1h1v1h1v1h3l1,1l1,-1h1l1,1h1v1l1,1h1v1h1v1l1,1l2,1v-1h1l1,1h1l1,1v1h1v1l1,2v1l-1,1l1,1h2v1v-1l4,2v1h1l3,1h1l2,1l2,2h2v5l-1,1l-1,2l-2,2v9l-1,2v2h-1v1h-2l-1,1h-1l-3,3v5l-1,2l-2,2v2l-2,2v-1l-1,1l-1,-1h-1v-1v1l1,1v1l1,1v2l-2,1h-3l1,1v2l-1,1l-1,-1h-1l1,2h2l-2,2l1,1v1h-1l-1,1v1l2,1h1v1l-1,1v2h-1v1l2,2h-1l-1,1v1h-1l-2,-1l-3,-3l-1,-3v-1l1,-1h-2l1,-2l-1,-2h1v-2l-1,-1v2l-1,-2v-4l-1,-1l-1,-2h1v-6l-1,-2v-8l-1,-2v-6l-1,-2l-1,-1l-2,-1l-3,-2l-1,-1v-1l-1,-2l-1,-3l-2,-3l-2,-2v-1l-1,-2l2,-2v-1h-1v-3l1,-1v-1h1v-2h1l1,-1v-5l-1,-1v-2h-1v1h-1v1h-1l-1,-1h-2v-2h-1v-1v1h-1v-3l-2,-2h1h-2v-1h-2l-1,-1l-1,-2h-1l-1,-1v1h-2l-1,-1h-2l-2,-2h-1l-1,-1v-1h-1v-3h1l-1,-1v-3l-1,-1v-1l-1,-1v-3h-1v-5l-1,-1l-1,1v4h1l-1,1h1v5h1v2h-1v-1l-1,-1v-3l-1,-1v1v-1h-1v-1h1v-9h-1v-1h-1v-9l2,-2v-1l1,-2l2,-2l1,-2l1,-1v-1h1v1l2,-2h-1v-2l-1,-1v-1l1,-1l-1,-1l1,-1v-1l1,-1l-1,-1l1,-1v-1l1,-1l-1,-1h-1v-2h-1v-1h-1l-1,-1h-1l-1,1h-4l1,-1l2,-1h-1l-1,1l-2,1h-1l-1,1l-2,1h-2l-2,1h-1l-1,1h-3l-1,1h-2l1,-1h2l2,-1h2l2,-1h1l2,-1l1,-1h-3l1,-1l-1,1h-1l2,-2h-1v-1l2,-2l2,-1h3l1,-1h1l1,-1h-3v-2h4l1,1l1,-1v-3h4l1,-1h2l2,-1l1,1l1,-1h1l-1,1h1l1,1h2l1,1h2v1l1,1l1,-1h6l1,-1v2l2,-1l-1,1h2l1,1h2v1l-2,1h4v1l2,-2h2v1h1l1,1h2v-1h1l1,1l-1,1l1,-1h1l1,-1v-2l1,-1l2,-1l1,1l-2,2Z"/>
<path class="tl" d="M128,774l-1,1h4l-1,1h1l2,-2v1l-1,2v1l1,1h-2v1h-8v-1h-1v-1h4l-1,-1h-3l2,-1h-1l1,-1h1ZM135,774l-2,1v-1h1ZM152,776v1l-1,-1l-1,1v-2h2ZM146,776v1l1,-1l2,-1v2h3l1,1l-1,1l2,-1v1l1,1v2h-1l2,2v1h1v1l-2,1h-1l-1,-2l-1,1v1l1,1v2l-1,1l-2,-2v1l1,1h-2l-2,-2v-1l-1,-1v1h-3v-1l1,-1h3l1,-1l2,-1v-1l-1,-1h-1l1,-1l-1,-1h-5l-1,-1h-1l1,-1h-1l1,-1l2,-1l1,-1h2ZM138,774h2l-1,1h-1l1,1l-2,1h-2v-2l1,1v-1ZM298,772h-2v-1ZM141,776l-2,1v-1l2,-2h2l1,1l-2,1ZM122,776h-2l-1,-1h1l2,-1l2,-2h2v1h2v1h-1l-3,1h-2ZM299,769v1h-3v-1h1ZM143,773v1l-1,-1h-1l1,-1h1l1,1ZM295,769l1,1h-2l-1,1l-2,-1l-1,-1h2ZM143,771h-1v1l-1,1h-2l1,-1h-1l1,-1h2ZM136,771h1v1h-4l-2,1h-1l1,-1h-1l-1,-1l2,-1h1l2,1l1,1v-2h2ZM246,780h-3l-2,-1v-1l1,-2h-1l1,-1l-1,-1h1l4,-2h2l-1,1l-2,1l-1,1v2l-1,1l1,1ZM145,770l1,1h1l-1,1h1l1,1h4v1h-7l-1,-1l1,-1v-1h-2l1,-1ZM134,769l-2,1h-4l2,-1h3ZM271,770l1,1v-1h2l2,1h1v1l-1,1h1l2,1v-1l1,1l1,-1h2l1,1h3l-2,-1h5l1,1v1h2l2,1l-1,-1h1l1,-1l2,1v-1h1l-2,-1h8l3,1l1,-1h2l2,2h2v-1h3l3,1v-1h-2v-1h7l8,5h-1l1,1l2,1h2v1h-1v1h-1l1,1v2l-2,-1v2l-1,-1v1h-1l2,2v1h1l3,2h-1l1,1h1v1l1,2h-1l1,2l1,1l-4,-2l-4,-3l-1,-2l-1,-1v-3l-1,-2v-1l-2,-2l-1,1l2,2l-3,-1l-1,1l1,2l1,1h-1l-1,1l-1,-1h-1v1h-4v7h1l2,1h1l-1,-1h1l3,1l1,2l1,1l1,2l2,2v9h-1l-1,-1v2h-1v1l1,1v1h-1v1l1,1h1l2,2v1l1,1v1l-1,1h-1l-1,-2l-1,-1h1l-2,-1v-1v1v-1h-1v-1l-1,-1h-2v1h-1l-1,-1l1,-1l-1,-1l-1,1v2h-1v1l2,2h1v-1h2l1,1l-2,1v2l2,2l1,2l2,1v2h1v6l-2,4l-1,1h-1v1l-1,-1v1l-2,1h-1v2l-1,-1v-1h-2l-1,2v2l1,1l1,2l2,2l1,3v4l-2,1v1l-2,1v-2l-1,-1h-1v-1l-2,-2h-1v-1h-1v6h1v3l1,1h1v1h1v1l1,1v3h1v2h-1l-2,-2v-1l-1,-1v-1l-1,-1v-2l-1,-1v-1h-1v-6l-1,-1v-1l-1,-2v-2l-1,-1l-2,2h-1v-3l-1,-2v-1h-1l-2,-2v-1l-1,-1h-1v2l-1,-1v1h-2v2l-2,1l-1,2v1l-2,2h-1v8l-1,1l1,1h-1l-1,1l-1,-1l-1,-2v-1l-1,-1v-1l-1,-2v-1l-3,-6v-3l-2,1h-1l-1,-2v-1l-2,-1l-1,-1v-1l-1,-1l-2,1h-5l-1,-1h-2v-2h-1l-1,1h-2l-3,-3l-1,-2l-1,1v-1l-1,1v2l1,1h1l1,1v2l1,1l-1,-1l1,-1v2h1v1l1,-1h2v-1l1,-1v-1v2l2,2h1l2,2l-1,1v1h-1v3h-1v1h-1v1h-2v1h-1l-2,2h-1l-2,2v-1l-1,1h-2v1h-2v-2l-1,-1v-3h-1v-1l-1,-1v-1l-1,-1h-1v-1l-1,-1v-3h-2v-2l-1,-1v-1l-2,-2v-1v1l-1,1l-1,-1l-1,-2l1,2l1,1l1,2v1l2,2h-1l2,2v1l1,1h-1l1,2v1l1,1l1,2v1l1,1l2,1v1h1v1h1v1l-1,1h1l1,1h3l1,-1h3v-1h1v2l-1,1v3l-1,1l-3,6l-1,1l-2,1l-1,1l-1,2v1h-1v1h-1v2l-1,1l-1,2l1,1v4l1,1v7l-1,1h-1l-3,3h-1v1l-1,1v2h1l-1,1h1v1l-1,1h1l-1,1h-1l-2,2v3l-3,3v1l-2,1v1l-1,1h-2v1l-1,-1v1l-1,-1l-1,1h-2l-1,1l-1,-1h-1v-5l-1,-1v-2l-1,-1v-1l-1,-1v-5l-1,-1v-1l-1,-2v-1l-1,-1v-3l1,-1v-3h1v-1l1,-1v-1h-1v-5l-1,-1v-2l-3,-3l-1,-2l1,-1v-5l-1,-1v-1l-1,1h-2l-1,-1v-1l-1,-1h-2l-1,1h-2l-1,1h-6l-1,1l-4,-4h-1l-1,-1v-1l-1,-1v-1h-1v-1l-1,-1v-1h-1v-3h-1l1,-1v-1h1l-1,-1l1,-1v-4l-1,-1v-1h1v-2l1,-1v-1h1v-2h1l1,-2h1l2,-2v-3l3,-3l1,-2v-1h1l1,1h2l1,-1h2l1,-1h4l1,-1h1v1h1l1,-1h1v1l1,-1v1h-1v1h1v2h-1v1h1v1h3l2,2h1l2,2l1,-1v-2l1,-1h2l1,1h1l1,1h2l1,1h1v-1h2l1,1v-1h1l1,1v-2l1,-1v-5h-2l-1,1l-1,-1h-2v1l-1,-1h-2v-1l-1,-1v-2l1,-1h1v-1h2l1,-1h1l2,-1l2,1l1,1h2l1,-1v-2h-1l-2,-2h-1l-1,-1l1,-1l-1,-1h2l-1,-1v1h-2l-1,1v1h1l-1,1h-1v-1h-1l1,-1h-2v-1h-1v1l-1,1v1h-1v4l1,1h-2v1h-1v-1h-2l1,1h-2v1l1,1h-1h1l1,1v1l-1,-1v1h-1l1,1h-2v-2l-1,-1v-1h-1v-3h-1v-1h-1l-1,-1h-1l-1,-1v-1l-1,-1v1v-1h-2v1l2,2v1l1,1h1l1,1h1l1,1v1l-1,-1h-1v1h1v1h-1v1h-1v-1h1l-1,-1v-1h-1l-1,-1h-1l-2,-2l-1,-2h-2v1h-4l-1,1v2h-2v1l-1,2h1l-1,1v1h-1l-1,1h-2l-1,1l-2,-2v1h-2l1,-1v-1h-1v-2l1,-1v-3l-1,-1l2,-1l1,1h5v-4l-1,-1v-1h-2v-1h3v-2l1,1l2,-1v-1h1l1,-1l1,-2l1,-1h2v-5h2l-1,1h1v1l-1,1v1h1v1l1,-1h2v1h1l2,-2l1,1h1v-1h1v-3l1,-1l1,1v-1l-1,-1v-1h4l1,-1h-4l-1,1l-2,-2v-4l2,-1v-1l-1,-1l-2,2l-1,2l-1,1v3h1v2h-1v2l-1,2h-1v1h-1v-2l-1,-1l-1,-2l-1,-1l-1,2h-1l-2,-1v-5l2,-1l3,-3l2,-3l3,-3h2l1,-2h3l2,1l-1,1h2l1,1h3l3,1l1,1v1l-1,1h-1l-3,-1h-1l2,1v2l1,1h1v-1h-1l1,-1l2,1v-1l1,-2h1l1,1v-1l-1,-1v-1l-1,-1l2,1h1l-1,1l1,1h1v-1l1,-1l2,-1h1v1l1,-1h1l1,-1l1,1l1,-1h-2l1,-1h2l1,1l4,1v-1h-2v-1h-1l-1,-1v-3h2l1,1v1h1l1,1l1,2h1v3l1,1v-1h1l-1,-1l1,-1h-1l-2,-2v-1l-2,-1l1,-1l-1,-1h1l1,2l-1,-1l1,-1h2l1,1l-1,-1l-1,-2h4l-2,-1v-1h1l1,-1h3l1,-1h1v-2l2,1h-1ZM253,820l1,1v2h-1v1l1,1h1l1,1h3l-1,-1v-2h-1v-2h1v-1l-1,-1h-1l1,1l-1,-1v-1h-2v-2h-1h1v-2l1,1v-3h-2l-1,1h-1v1h-1l-1,2l2,1v1l1,1Z"/>
<path class="tl" d="M146,770h-1v-1h1l1,1ZM137,769h-2l1,-1h1l1,1ZM220,771l-1,1h-1v-1h-1l2,-1v1ZM139,768h-2l1,-1v1ZM146,769h-1v-1h1l1,1ZM144,769h-1l-1,-1h-1h1v-1h1l1,1ZM268,768l-3,1v-2ZM215,769l3,1h-2v3h-1l-2,-1h1l-1,-1l-2,-1v-1l1,-1l1,1h1v-1h1ZM220,768h1l-1,1h-4l-1,-1h3ZM234,767l-1,1h-1v-1h-1h4ZM264,768h-4l-2,-1l-1,-1h1l1,-1l4,2ZM153,767v1h-1l-2,1h-2v-1h1h-1v-1l1,-1h2v-1h1v1h1ZM167,764h3v1h-3l-1,1h-1l-1,1l-2,1h-3v1h-1v1h-2l-2,1h1l-2,1h-4l-1,-1h2v-1h2v-1h-1h1l1,-1h1l-1,-1h4l-1,-1h-3v-1l1,-1h6v-1h3v1l2,-1l1,1ZM190,764l3,1h-6v1h5l-1,1l2,-1h4v1l-2,1h-1l-2,2v2l1,1h-2l1,1l-1,1v1h-1l1,1h-3l1,1v1l-1,-1l-1,1h1l1,1v1h-2l-1,-1v1l-1,1h3l-4,2h-3l-1,1l-4,2h-1l-2,1h-1v1l-2,2v1l-1,1l-1,2h-1l-1,-1h-1l-1,-1v-2l-1,-1v-1l1,-1l-1,-2l1,-1l1,-2h1l1,-1v-1l-1,1h-1v-1l1,-1h1l-1,-1h-1l1,-1v-4l-1,-1h-5v-1l-1,-1h1l-1,-1l1,-1h2l3,-1h1l-2,-1h1l3,-1h1v-1h9l1,1l-1,-1h1l2,-1h3l2,-1Z"/>
<path class="th" d="M380,909v1ZM383,911v1ZM383,910h-1v1v-1ZM382,913v1h-1l1,-1h-1h1h-1v-1h-1v-2h1v3Z"/>
<path class="tg" d="M66,970h1l1,-1h4v-1h5v-1h5v-1h6v-1h6l1,-1h7v-1h8v-1h9l1,-1h11v-1h14v-1h20v-1h79v1h20v1h14v1h11l1,1h9v1h8v1h7l1,1h6v1h6v1h5v1h5v1h4l1,1h1M21,927h6v-1h7v-1h8v-1h10v-1h10v-1h12v-1h14v-1h18v-1h23v-1h38v-1h75v1h38v1h23v1h18v1h14v1h12v1h10v1h10v1h8v1h7v1h6M5,877h399M21,826h4v1h7v1h8v1h9v1h10v1h11v1h14v1h16v1h21v1h32v1h103v-1h32v-1h21v-1h16v-1h14v-1h11v-1h10v-1h9v-1h8v-1h7v-1h4M66,783v1h5v1h4v1h5l1,1h5v1h6l1,1h6l1,1h7v1h10v1h10v1h13l1,1h17v1h36v1h21v-1h36v-1h17l1,-1h13v-1h10v-1h10v-1h7l1,-1h6l1,-1h6v-1h5l1,-1h5v-1h4v-1h5v-1M140,755h-1v1h-3v1h-2v1h-2v1h-2v1h-2v1h-2l-1,1h-1l-1,1h-1l-1,1h-1v1h-2v1h-2v1h-2v1h-1l-1,1h-1v1h-2v1h-1l-1,1h-1v1h-2v1h-1v1h-2v1h-1v1h-2v1h-1v1h-1l-1,1h-1v1h-1v1h-2v1h-1v1h-1v1h-1v1h-2v1h-1v1h-1v1h-1v1h-1v1h-1v1h-1l-1,1h-1v1h-1v1h-1v1h-1v1h-1v1h-1v1h-1v1h-1v1h-1v1l-1,1v1h-1v1h-1v1h-1v1h-1v1h-1v1l-1,1v1h-1v1h-1v1h-1v2h-1v1h-1v2h-1v1h-1v2h-1v1h-1v2h-1v2h-1v1h-1v2h-1v2h-1v2h-1v2h-1v2l-1,1v2h-1v2l-1,1v2h-1v3h-1v4h-1v4h-1v5h-1v9h-1v13l1,1v8h1v5h1v4h1v4h1v3h1v3h1v2h1v3h1v2h1v2h1v2h1v2h1v2h1v2h1v1l1,1v1h1v2h1v1h1v2h1v1h1v1h1v2h1v1h1v1l1,1v1h1v1h1v1h1v1l2,2v1h1v1h1v1h1v1h1v1h1v1h1v1h1v1h1v1h1v1h1v1h1v1h1v1h1v1h2v1h1v1h1v1h1v1h1v1h1l1,1h1v1h1v1h1v1h2v1h1v1h1l1,1h1v1h1v1h2v1h1v1h2v1h1l1,1h1v1h2v1h1v1h2v1h2v1h1l1,1h1v1h2v1h2v1h2v1h2v1h2v1h2v1h2v1h2l1,1h2v1h2v1h2M153,755h-1v1h-2v1h-2v1h-1v1h-2v1h-2v1h-1v1h-2v1h-1v1h-2v1h-1v1h-2v1h-1v1h-1v1h-2v1h-1v1h-1l-1,1h-1v1h-1v1h-1v1h-1v1h-1l-1,1h-1v1h-1v1h-1v1h-1v1h-1v1h-1v1h-1v1h-1v1h-1v1h-1v1h-1v1h-1v1h-1v1h-1v1h-1v1h-1v1h-1v1l-2,2v1h-1v1h-1v1h-1v1l-1,1v1h-1v1h-1v2h-1v1h-1v1l-1,1v1h-1v2h-1v1h-1v2h-1v1h-1v2h-1v2h-1v2h-1v2h-1v2h-1v2h-1v2h-1v3h-1v2h-1v3h-1v3h-1v3h-1v3h-1v4l-1,1v4h-1v6l-1,1v30h1v6h1v5h1v4h1v3h1v3l1,1v2l1,1v2h1v3h1v2h1v2h1v2h1v2l1,1v1h1v2h1v2h1v2h1v2h1v1h1v2h1v1h1v2h1v1h1v2h1v1h1v1h1v2h1v1h1v1h1v1l1,1v1h1v1h1v1h1v1h1v1h1v1h1v1l3,3v1h1l3,3h1v1h1v1h1v1h1v1h1v1h1v1h1v1h1l1,1h1v1h1v1h1v1h1l1,1h1v1h1v1h1l1,1h1v1h1v1h2v1h1v1h2v1h1v1h2v1h2v1h1v1h2v1h1l1,1h1v1h2M166,755h-1v1h-1v1h-1l-1,1h-1v1h-1v1h-1v1h-1v1h-1v1h-1l-2,2h-1v1h-1v1h-1v1h-1v1h-1v1h-1v1h-1v1h-1v1h-1v1l-2,2v1h-1v1h-1v1h-1v1h-1v1l-1,1v1h-1v1h-1v1h-1v2h-1v1h-1v1l-1,1v1h-1v1h-1v2h-1v1h-1v2h-1v2h-1v1h-1v2h-1v2h-1v2h-1v1l-1,1v1l-1,1v1l-1,1v2h-1v2h-1v2h-1v3h-1v2h-1v3h-1v3h-1v3h-1v3h-1v4h-1v4h-1v5h-1v6h-1v8h-1v30h1v7l1,1v5h1v5h1v4h1v4h1v3h1v3h1v3h1v3h1v3h1v2h1v2h1v2l1,1v2h1v2h1v2h1v2h1v1h1v2h1v2h1v2h1v1h1v2h1v1h1v2h1v1l1,1v1h1v1h1v2h1v1h1v1h1v1l1,1v1h1v1h1v1h1v1l1,1v1h1v1h1v1h1v1h1v1h1v1h1v1h1v1h1v1h1v1h1v1h1v1h1v1h1v1h1v1h1l2,2h1v1h1v1h1v1h1v1h2v1h1"/>
<path class="tg" d="M179,755h-1v1h-1v2h-1v1h-1v1h-1v1h-1v2h-1v1h-1v1l-1,1v1h-1v1l-1,1v1h-1v1l-1,1v1h-1v2h-1v1l-1,1v1h-1v2h-1v2h-1v2h-1v2h-1v2h-1v2h-1v2h-1v2h-1v2l-1,1v2h-1v2l-1,1v2h-1v3h-1v3h-1v3h-1v3h-1v4h-1v4h-1v4h-1v4h-1v5l-1,1v5h-1v8h-1v11h-1v29l1,1v10l1,1v7h1v6h1v5h1v4l1,1v4h1v3l1,1v3h1v3h1v3h1v3h1v3h1v3h1v2h1v3h1v2h1v2h1v2l1,1v2h1v2h1v1l1,1v1l1,1v1h1v2h1v2h1v1l1,1v1h1v2h1v1h1v2h1v1h1v2h1v1h1v1l1,1v1h1v1h1v1h1v2h1v1h1v1h1M192,755h-1v3h-1v2h-1v3h-1v3h-1v3h-1v3h-1v3h-1v3l-1,1v3h-1v4h-1v4h-1v4l-1,1v4h-1v5h-1v6h-1v6l-1,1v7h-1v8h-1v11l-1,1v18h-1v29l1,1v18h1v11h1v8l1,1v7h1v6h1v6h1v5h1v5h1v4h1v4h1v4h1v4h1v3h1v3l1,1v3h1v2l1,1v2h1v3h1v3h1v2h1M205,755v243M217,755h1v3h1v2h1v3h1v3h1v3h1v3h1v3h1v3l1,1v3h1v4h1v4h1v4l1,1v4h1v5h1v6h1v6l1,1v7h1v8h1v11l1,1v18h1v29l-1,1v18h-1v11h-1v8l-1,1v7h-1v6h-1v6h-1v5h-1v5h-1v4h-1v4h-1v4h-1v4h-1v3h-1v3l-1,1v3h-1v2l-1,1v2h-1v3h-1v3h-1v2h-1M230,755h1v1h1v2h1v1h1v1h1v1h1v2h1v1h1v1l1,1v1h1v1l1,1v1h1v1l1,1v1h1v2h1v1l1,1v1h1v2h1v2h1v2h1v2h1v2h1v2h1v2h1v2h1v2l1,1v2h1v2l1,1v2h1v3h1v3h1v3h1v3h1v4h1v4h1v4h1v4h1v5l1,1v5h1v8h1v11h1v29l-1,1v10l-1,1v7h-1v6h-1v5h-1v4l-1,1v4h-1v3l-1,1v3h-1v3h-1v3h-1v3h-1v3h-1v3h-1v2h-1v3h-1v2h-1v2h-1v2l-1,1v2h-1v2h-1v1l-1,1v1l-1,1v1h-1v2h-1v2h-1v1l-1,1v1h-1v2h-1v1h-1v2h-1v1h-1v2h-1v1h-1v1l-1,1v1h-1v1h-1v1h-1v2h-1v1h-1v1h-1M243,755h1v1h1v1h1l1,1h1v1h1v1h1v1h1v1h1v1h1l2,2h1v1h1v1h1v1h1v1h1v1h1v1h1v1h1v1h1v1l2,2v1h1v1h1v1h1v1h1v1l1,1v1h1v1h1v1h1v2h1v1h1v1l1,1v1h1v1h1v2h1v1h1v2h1v2h1v1h1v2h1v2h1v2h1v1l1,1v1l1,1v1l1,1v2h1v2h1v2h1v3h1v2h1v3h1v3h1v3h1v3h1v4h1v4h1v5h1v6h1v8h1v30h-1v7l-1,1v5h-1v5h-1v4h-1v4h-1v3h-1v3h-1v3h-1v3h-1v3h-1v2h-1v2h-1v2l-1,1v2h-1v2h-1v2h-1v2h-1v1h-1v2h-1v2h-1v2h-1v1h-1v2h-1v1h-1v2h-1v1l-1,1v1h-1v1h-1v2h-1v1h-1v1h-1v1l-1,1v1h-1v1h-1v1h-1v1l-1,1v1h-1v1h-1v1h-1v1h-1v1h-1v1h-1v1h-1v1h-1v1h-1v1h-1v1h-1v1h-1v1h-1v1h-1v1h-1l-2,2h-1v1h-1v1h-1v1h-1v1h-2v1h-1M256,755h1v1h2v1h2v1h1v1h2v1h2v1h1v1h2v1h1v1h2v1h1v1h2v1h1v1h1v1h2v1h1v1h1l1,1h1v1h1v1h1v1h1v1h1l1,1h1v1h1v1h1v1h1v1h1v1h1v1h1v1h1v1h1v1h1v1h1v1h1v1h1v1h1v1h1v1h1v1h1v1l2,2v1h1v1h1v1h1v1l1,1v1h1v1h1v2h1v1h1v1l1,1v1h1v2h1v1h1v2h1v1h1v2h1v2h1v2h1v2h1v2h1v2h1v2h1v3h1v2h1v3h1v3h1v3h1v3h1v4l1,1v4h1v6l1,1v14l1,1h-1v15h-1v6h-1v5h-1v4h-1v3h-1v3l-1,1v2l-1,1v2h-1v3h-1v2h-1v2h-1v2h-1v2l-1,1v1h-1v2h-1v2h-1v2h-1v2h-1v1h-1v2h-1v1h-1v2h-1v1h-1v2h-1v1h-1v1h-1v2h-1v1h-1v1h-1v1l-1,1v1h-1v1h-1v1h-1v1h-1v1h-1v1h-1v1l-3,3v1h-1l-3,3h-1v1h-1v1h-1v1h-1v1h-1v1h-1v1h-1v1h-1l-1,1h-1v1h-1v1h-1v1h-1l-1,1h-1v1h-1v1h-1l-1,1h-1v1h-1v1h-2v1h-1v1h-2v1h-1v1h-2v1h-2v1h-1v1h-2v1h-1l-1,1h-1v1h-2"/>
<path class="tg" d="M269,755h1v1h3v1h2v1h2v1h2v1h2v1h2l1,1h1l1,1h1l1,1h1v1h2v1h2v1h2v1h1l1,1h1v1h2v1h1l1,1h1v1h2v1h1v1h2v1h1v1h2v1h1v1h1l1,1h1v1h1v1h2v1h1v1h1v1h1v1h2v1h1v1h1v1h1v1h1v1h1v1h1l1,1h1v1h1v1h1v1h1v1h1v1h1v1h1v1h1v1h1v1l1,1v1h1v1h1v1h1v1h1v1h1v1l1,1v1h1v1h1v1h1v2h1v1h1v2h1v1h1v2h1v1h1v2h1v2h1v1h1v2h1v2h1v2h1v2h1v2l1,1v2h1v2l1,1v2h1v3h1v4h1v4h1v5h1v9h1v13l-1,1v8h-1v5h-1v4h-1v4h-1v3h-1v3h-1v2h-1v3h-1v2h-1v2h-1v2h-1v2h-1v2h-1v2h-1v1l-1,1v1h-1v2h-1v1h-1v2h-1v1h-1v1h-1v2h-1v1h-1v1l-1,1v1h-1v1h-1v1h-1v1l-2,2v1h-1v1h-1v1h-1v1h-1v1h-1v1h-1v1h-1v1h-1v1h-1v1h-1v1h-1v1h-1v1h-1v1h-2v1h-1v1h-1v1h-1v1h-1v1h-1l-1,1h-1v1h-1v1h-1v1h-2v1h-1v1h-1l-1,1h-1v1h-1v1h-2v1h-1v1h-2v1h-1l-1,1h-1v1h-2v1h-1v1h-2v1h-2v1h-1l-1,1h-1v1h-2v1h-2v1h-2v1h-2v1h-2v1h-2v1h-2v1h-2l-1,1h-2v1h-2v1h-2"/>
<rect x="369" y="898" width="27" height="26" fill-opacity="0" stroke="#ffffff" stroke-opacity="0.5" stroke-width="5.0"/>
<rect x="371" y="900" width="27" height="26" fill-opacity="0" stroke="#113311" stroke-opacity="0.8" stroke-width="5.0"/>
<rect x="370" y="899" width="27" height="26" fill-opacity="0" stroke="#45a249" stroke-opacity="0.9" stroke-width="5.0"/>
<rect x="691" y="691" width="309" height="309" fill="#ffffff" fill-opacity="1.0"/>
<rect x="694" y="694" width="302" height="302" fill="#000000" fill-opacity="1.0"/>
<rect x="700" y="700" width="300" height="300" fill="#70add3" fill-opacity="1.0"/>
<path class="zl" d="M838,740l1,6h1l1,-1v-1l1,-2h1v2l1,1l1,6l-1,2h-3l-2,1h-1v-1l-1,-1l-1,-2v-3l-2,-7v-1l1,-2l1,1ZM849,762h1v1l3,2l1,1h1v1l1,1l-1,1h-3l-1,1h-2v-3l-1,-2v-2l-1,-1l-1,1l-2,-1l1,-3v-1h1l2,1ZM866,774h1l-1,1l-2,-1h-3v-3h2v1h1l1,2ZM864,766h-5l-1,-1v-1l2,-1l1,-1h1l1,2v1ZM866,787l2,3l-1,2h-2l-2,-1h1l-1,-1h-2l1,-1l1,-2h1ZM857,750l-1,1h-3l3,-3h3ZM862,760v-1l-1,-4v-4l1,1l1,6v2ZM862,749v1l-1,-2v-5l1,3ZM846,755l-1,1l-1,-1v-1h2ZM852,730l-1,1h-2v-3h1l2,1ZM850,724l-1,-2v-1h1l1,1v1ZM890,834h-3v-1h2ZM883,822l-1,2h-1l-2,-2v-3l1,-1h1v3ZM881,812l-1,1l-1,-1l-4,-2v-4h3v2l1,1h-1l2,1ZM966,862h-1ZM857,987h1v1h-1Z"/>
<rect class="zh" x="792.5" y="831.5" width="1" height="1"/>
<rect class="zh" x="849.5" y="875.5" width="1" height="1"/>
<rect class="zh" x="839.5" y="872.5" width="1" height="1"/>
<path class="zh" d="M861,855v2h-1l1,1h-1l-1,1h-1v-1h-2v-1h1l-1,-1v-1l-1,-1h2l1,-1v2h2Z"/>
<rect class="zh" x="832.5" y="842.5" width="1" height="1"/>
<path class="zh" d="M849,848h1v1h-1v2l-1,-1h-1v-1h-2l-2,-2v-1h1l1,-1v-1l-1,-1h-1v-1h4v4h1l1,1ZM836,837v1h1h-1v1h-1v1h1l-1,2h-1h1v-3l1,-1l-1,-1ZM843,869h-1h1v1h-1v1l-1,1h-1h1v-1h-1v-1h-1v1l1,1h-1v-1v1h-1v-2h-3v-1h-1v1h-1h1h-1v-2h-1v1v-1h-1v-1v1h-1v-1h-1v-1h-1v1v-1h1h-1v-1l1,1v-1h-1v-1h-1v-1v1h-2v-1h-2v-2h-1v1v-2h-1v1v-1h-1v1l-2,-2h-1h1h-1v-1h1h-1l-1,1v-1h-2v-1h-1v-1h-1v-2h-1v1v-1l-1,1v-2h-1v1v-1h-1v-1l-1,-1v-1h-1v-1h-1l-1,-1v-1h-1v-1v1v-1h-1l-1,-1h-1v-1h-1h1v-1h-1v-1h-1v-1l-1,-1h-1v-2h-1v-1h1v-1h-2v-1v1h-1v-1h1v-2h-1v-1h1v1h1l1,2h1v1l1,-1v1h1h-1v-1l3,1h1l1,1v1h1l1,1h1v1l1,1h1v1h2v1h2v1h2v2h1l1,1v2h1l1,1h1h-1h1v1h1h-1v1h1l1,1h1l1,1v1h1h-1v-1h1v1v-1l1,1v1h1h-1h1l-1,-1h1l1,1v1h2v1h1l1,1h1v1h1l1,1v1h1v1h1v1h1v1h2l1,1h1v1h1v1h-1h1Z"/>
<rect class="zh" x="796.5" y="832.5" width="1" height="1"/>
<rect class="zh" x="787.5" y="825.5" width="1" height="1"/>
<rect class="zh" x="911.5" y="871.5" width="1" height="1"/>
</svg>
