<?xml version="1.0" encoding="UTF-8" standalone="no"?>
<svg xmlns:svg="http://www.w3.org/2000/svg" xmlns="http://www.w3.org/2000/svg" xmlns:xlink="http://www.w3.org/1999/xlink" height="1000" width="1000">
<!-- made with pythonshp (GPL): github.com/sanjayrao77/pythonshp , underlying data may come from naturalearthdata.com -->
<!-- 
COPYRIGHT: THIS SVG FILE IS RELEASED INTO THE PUBLIC DOMAIN
 -->
<!-- 
vars : {
	'cmdline' : 'pythonshp.py publicdomain wiki1 norfolkisland locatormap'
	'title' : 'Norfolk Island locator'
	'version' : '1.0.5'
}
 -->
<defs>
	<radialGradient id="watergradient" cx="500" cy="500" r="500" fx="500" fy="500" gradientUnits="userSpaceOnUse">
		<stop offset="0%" stop-color="#70add3"/>
		<stop offset="11%" stop-color="#6eaad0"/>
		<stop offset="22%" stop-color="#6ca7cc"/>
		<stop offset="31%" stop-color="#6ba5c9"/>
		<stop offset="41%" stop-color="#69a2c6"/>
		<stop offset="51%" stop-color="#679fc2"/>
		<stop offset="59%" stop-color="#669dbf"/>
		<stop offset="67%" stop-color="#649abc"/>
		<stop offset="75%" stop-color="#6297b9"/>
		<stop offset="81%" stop-color="#6095b6"/>
		<stop offset="87%" stop-color="#5f92b2"/>
		<stop offset="92%" stop-color="#5d8faf"/>
		<stop offset="95%" stop-color="#5b8dac"/>
		<stop offset="98%" stop-color="#598aa8"/>
		<stop offset="100%" stop-color="#5685a2"/>
	</radialGradient>
	<radialGradient id="landgradient" cx="500" cy="500" r="500" fx="500" fy="500" gradientUnits="userSpaceOnUse">
		<stop offset="0%" stop-color="#dddddd"/>
		<stop offset="11%" stop-color="#d7d7d7"/>
		<stop offset="22%" stop-color="#d1d1d1"/>
		<stop offset="31%" stop-color="#cccccc"/>
		<stop offset="41%" stop-color="#c6c6c6"/>
		<stop offset="51%" stop-color="#c0c0c0"/>
		<stop offset="59%" stop-color="#bbbbbb"/>
		<stop offset="67%" stop-color="#b5b5b5"/>
		<stop offset="75%" stop-color="#afafaf"/>
		<stop offset="81%" stop-color="#aaaaaa"/>
		<stop offset="87%" stop-color="#a4a4a4"/>
		<stop offset="92%" stop-color="#9e9e9e"/>
		<stop offset="95%" stop-color="#999999"/>
		<stop offset="98%" stop-color="#939393"/>
		<stop offset="100%" stop-color="#888888"/>
	</radialGradient>
	<radialGradient id="bordergradient" cx="500" cy="500" r="500" fx="500" fy="500" gradientUnits="userSpaceOnUse">
		<stop offset="0%" stop-color="#444444"/>
		<stop offset="11%" stop-color="#3f3f3f"/>
		<stop offset="22%" stop-color="#3a3a3a"/>
		<stop offset="31%" stop-color="#363636"/>
		<stop offset="41%" stop-color="#323232"/>
		<stop offset="51%" stop-color="#2d2d2d"/>
		<stop offset="59%" stop-color="#292929"/>
		<stop offset="67%" stop-color="#242424"/>
		<stop offset="75%" stop-color="#1f1f1f"/>
		<stop offset="81%" stop-color="#1b1b1b"/>
		<stop offset="87%" stop-color="#161616"/>
		<stop offset="92%" stop-color="#121212"/>
		<stop offset="95%" stop-color="#0e0e0e"/>
		<stop offset="98%" stop-color="#090909"/>
		<stop offset="100%" stop-color="#000000"/>
	</radialGradient>
</defs>
<style type="text/css">
<![CDATA[
.c4 {stroke:#45a211;fill-opacity:0;stroke-width:4}
.fs {font:14px sans;stroke:#ffffff;stroke-width:2px;stroke-opacity:0.8;text-anchor:middle}
.ft {font:14px sans;fill:#000000;fill-opacity:1;stroke-opacity:0;text-anchor:middle}
.sb {stroke:url(#bordergradient);fill-opacity:0}
.sg {stroke:#000000;fill-opacity:0.0;stroke-opacity:0.2}
.sh {fill:#45a211;stroke:#000000}
.sl {fill:url(#landgradient);stroke:url(#bordergradient)}
.sp {stroke:url(#landgradient);fill-opacity:0}
.sr {stroke:url(#watergradient);fill-opacity:0}
.sw {fill:url(#watergradient);stroke:url(#watergradient);stroke-opacity:0.8}
.tb {fill:#eeeeee;stroke:black;stroke-width:2}
.tg {stroke:black;stroke-opacity:0.2;fill-opacity:0}
.tl {fill:#aaaaaa;stroke:black}
.w4 {stroke:#ffffff;fill-opacity:0;stroke-opacity:0.6;stroke-width:4}
.zh {fill:#45a211;stroke:#115511}
]]>
</style>
<circle cx="500.0" cy="500.0" r="500.0" fill="url(#watergradient)"/>
<path class="sl" d="M947,277v-2l-1,-2l-1,-1v1l1,1v1l1,1ZM616,14h3l1,1h3l1,1h2l1,1h4l1,1h3l1,1h2l1,1h2l1,1h2l1,1h2l1,1h3l1,1h2l1,1h2l1,1h2l1,1h2l1,1h2l1,1h2l1,1h1l1,1h2l1,1h2l1,1h2l1,1h1l1,1h1l1,1h2l1,1h2l1,1h1l1,1h1l1,1h2l1,1h1l1,1h1l1,1h1l1,1h2l1,1h1l1,1h1l1,1h1l1,1h1l1,1h2l1,1h1l2,2h2l2,2h2l2,2h1l1,1h1l1,1h1l1,1h1l1,1h1l2,2h2l2,2h1l1,1h1l1,1h1l2,2h1l1,1h1l2,2h2l3,3h1l1,1h1l2,2h1l1,1h1l2,2h1l2,2h1l2,2h1l3,3h1l2,2h1l2,2h1l1,1h1l3,3h1l3,3h1l3,3h1l3,3h1l3,3h1l2,2v1h1l4,4h1l3,3h1l5,5h1l2,2v1l1,1h1l5,5h1l3,3v1h1l6,6h1v1l12,12v1h1l5,5v1l3,3h1v1l6,6v1l3,3v1h1l3,3v1l3,3v1l5,5v1l3,3v1l3,3v1l3,3v1l3,3v1l3,3v1l2,2v1l2,2v1l3,3v1l3,3v2l2,2v1l3,3v1l1,1v1l3,3v2l2,2v1l1,1v1l3,3v2l2,2v1l1,1v1l2,2v2l2,2v1l2,2v2l1,1v1l1,1v-1h-1v-1l-1,-1v-1l-1,-1v-1l-1,-1v-1h-1v-1l-1,-1v-2h-1l-2,-4l-1,-1v-1l-1,-1v-1l-2,-2v-1l-1,-1v-1h-1v-1l-1,-2l-1,-1v-1l-2,-2l-1,-2l-1,-1v-1l-1,-1v-1h-1v-1l-1,-1v-1h-1v-1l-1,-1v-1v1l-1,-1l-1,-2v-1l-1,-1v1l2,2l1,3h1v1l1,2l1,1v1l3,3v1l1,1v1l1,1l1,2h1l1,3l1,1v1h1v1l1,2l1,1v1l2,2v1h1v2l1,1l1,2l1,1v1l2,2v2l1,1l-1,-1v-2v2l1,1v1h1v2l2,2v1l1,2l1,1v1l1,2l1,1v1l1,1v1l2,4l1,1l-1,-1v-1l1,2v1l1,1v1l1,1v1l1,1v1l1,1v1l-2,-3v-2h-1v-2l-2,-2v-2l-1,-2l-2,-2v-1l-1,-2l-1,-1v-1l-1,-2l-1,-1v-1l-1,-1v-1l-2,-3v-1l-2,-3l-1,-1v-1l-1,-1l1,1l-2,-2v-1l-1,-1v-1h-1v-2h-1v-1l-2,-2v-1v1h1v1h1v1l-1,-1v-2l-2,-2l-1,-2l-1,-1l-2,-3l-1,-2v-1l-3,-3v-1l-1,-1v-1h-1l-1,-2l-1,-1v-1l-1,-1v-1l-1,-2h-1v-1h-1v-2l-1,-1h-1v-1l-1,-1l-1,-2l-2,-2l-1,-2l-1,-1v-1h-1v-1l-1,-1l-1,-2l-3,-3v-1h-1l-2,-2v-1l-1,-1h-1v-1l-3,-3h-1v-1l-3,-3v-1l-2,-2v-1h-1l-2,-2v-1h-1v-1l-4,-4v-1h-1v-1l-2,-2l-2,-1v-1l-3,-3h1v1h1v1h1h-1v-1h-1v-1l-1,-1l1,1v-1v1v-1h-1v-1v1h-1v-1v1l1,1v-1h-1v-1h-1v-1v1v-1l-1,-1l1,1h-1v-1h-1l-1,-1v-1l-2,-1l-1,-2l-10,-10v-1h-1v-1v1v-1h-1v-1l-8,-8v-1l-2,-1l-4,-4v-1h-1l-5,-5v-1h-1l-6,-6l-2,-1v-1l1,1h1v1v-1h-1l-1,-1h-1v-1h-1v-1v1h1h-1v-1h-1v-1h-1v-1h-1l-1,-1l-2,-1l-1,-2l-1,-1h-1l-2,-2h-1l-1,-1h1l2,2l2,1l2,2h1v1l1,1h1v1v-1h-1v-1h-1v-1l2,2h-1h1l1,1h1v1v-1h-1l1,1l-1,-1v1h1v-1h-1l-1,-1h-1v-1h-1v-1h-1v-1v1v-1h-1l-1,-1h-1v-1h-1v-1h-1v-1h-1v-1h-2v-1h-1h1l-1,-1v1v-1h-1l-1,-1l1,1v-1v1l-1,-1h-1v-1h-1v-1v1h1h-1v-1l-2,-1l-1,-1l1,1l-1,-1h-1l-2,-1v-1h-1v-1h-1l-1,-1h1v1h1h-2v-1l1,1h-1v-1h-1v-1h-1h1h-2v-1h-1v-1h-1h1h-2v-1h-1l-2,-2h-1v-1v1h1l-1,-1h-1h1v1v-1h-1l-1,-1h-1l-2,-2h1v1h1l1,1l-1,-1h-1l-2,-2h-1v-1v1h1l1,1h-1h1l2,2l-2,-1l-1,-1v-1h-1v-1h-1l1,1h-1l-3,-3l-4,-2l-1,-1h-1v-1v1h1l2,1h1v1h1l-2,-1h-1v-1h-1l-1,-1h-1h1v1h1v1v-1h-1l-1,-1h-1l-3,-3h-1l-1,-1h-1v-1h-1l-1,-1h-1v-1h-1l-1,-1h-1h1l1,1h1v1l-2,-2h-1v-1h-2v-1v1h1l1,1h1v1h2v1l-2,-1v-1h-2v-1h-1l-1,-1h-1l-1,-1h-1v-1v1h1v1v-1h-2v-1l-1,-1h-2v-1h-1l-1,-1h-1l-1,-1h-1l-1,-1h-1l-2,-1l-2,-2h-1h1l1,1l-2,-1h-1v-1l1,1l-1,-1h-1h1h-1l-1,-1h-2v-1h-1h1h-2v-1h-1l-2,-1h-1v-1h-2l-1,-1h-1v-1v1h2l1,1h1l1,1h1l1,1h1h-2l-1,-1h-1l-1,-1h-1l-1,-1h-1h1v1h1h-1v-1h-1l-1,-1h-1h1v1h2v1h1l1,1h1h-1l-1,-1l-3,-1h-1v-1h-2v-1h-2v-1h-2l-4,-2h-1v-1h-1h1l1,1h-1v-1l1,1l-1,-1h-3l-1,-1h-2v-1h-1l-2,-1h-1l-2,-1h-3v-1h-3v-1h-2v-1v1l-1,-1h-2l-1,-1h-2l-1,-1h-1h1h-2l-1,-1h-1v1h1h-1h2v1v-1v1h1h-2l-1,-1v1h1h-2v1l-1,-1v1v-1h-2v-1h-3v-1l-1,-1h-1v-1h-1h3v1h4v1l-1,-1h-1l-2,-1h-1h1h-1v-1v1h-1l-1,-1h-1v1v-1h-1v1h1h-1h1v1h-1l-1,-1l1,1h2v1h-1v-1v1h1h-2v1h3l1,1h1v1h-1l1,1l-1,-1v1l-1,-1v1h-3v1h1h-1v1h-1v-1v1h-1h1h-2v1h1h-4v1v-1h-5v1l-1,-1h-1h1h-2v1h-2v-1h-1l1,1h-1l-1,-1h-1h1v1h-1v-1h1l1,-1h2l1,-1v1h3v1v-1h1v1h1l-1,-1h-1v-1h3v-1h1v1h1l-1,-1v-1h1v-1h-1l-1,-1h1h-2v-1h1l-1,-1v1h-3v-1h-2v-1l1,1l-1,-1h-1v1h1l1,1h-1l-1,-1h-2v-1h-4v-1h-6v-1h-2v-1h-1v-1h-2l-1,-1h-1l-1,-1h1h-1v1h1h-6v-1h-2l-1,-1h-3l-1,-1h4v1h2l-1,-1h1h-6v-1h-3v-1h-3v-1v1h1l-1,-1h-1h1v-1h1h-1v-1h1h-1h4v1h-1h4v-1h1v1h3v-1h-2l-1,-1h-1l-1,-1h-7l-1,-1h-6l-2,-1h-3l-1,-1h-1h1h-1l-2,-1h-1h9l1,1h5l1,1v-1l1,1h1h-1l-1,-1h-2l-2,-1h-1h2v1h4l1,1h1l-1,-1h-5v-1h-4l-2,-1h-3l-1,-1l-5,-1h-3l-1,-1h-1h1h10v1l-1,-1h1h-1h2v1v-1l1,1h1h-1h4l1,1h5v1h4l1,1h4v1h4Z"/>
<path class="sp" d="M945,272v1l1,1v1l1,1v1M616,14h3l1,1h3l1,1h2l1,1h4l1,1h3l1,1h2l1,1h2l1,1h2l1,1h2l1,1h3l1,1h2l1,1h2l1,1h2l1,1h2l1,1h2l1,1h2l1,1h1l1,1h2l1,1h2l1,1h2l1,1h1l1,1h1l1,1h2l1,1h2l1,1h1l1,1h1l1,1h2l1,1h1l1,1h1l1,1h1l1,1h2l1,1h1l1,1h1l1,1h1l1,1h1l1,1h2l1,1h1l2,2h2l2,2h2l2,2h1l1,1h1l1,1h1l1,1h1l1,1h1l2,2h2l2,2h1l1,1h1l1,1h1l2,2h1l1,1h1l2,2h2l3,3h1l1,1h1l2,2h1l1,1h1l2,2h1l2,2h1l2,2h1l3,3h1l2,2h1l2,2h1l1,1h1l3,3h1l3,3h1l3,3h1l3,3h1l3,3h1l2,2v1h1l4,4h1l3,3h1l5,5h1l2,2v1l1,1h1l5,5h1l3,3v1h1l6,6h1v1l12,12v1h1l5,5v1l3,3h1v1l6,6v1l3,3v1h1l3,3v1l3,3v1l5,5v1l3,3v1l3,3v1l3,3v1l3,3v1l3,3v1l2,2v1l2,2v1l3,3v1l3,3v2l2,2v1l3,3v1l1,1v1l3,3v2l2,2v1l1,1v1l3,3v2l2,2v1l1,1v1l2,2v2l2,2v1l2,2v2l1,1v1l1,1M615,13l1,1"/>
<path class="sl" d="M401,10h-1h3l1,-1h4l1,-1h5l1,-1h6v-1h6l1,-1h1h-2l-1,1h1v-1h6l1,-1h9v-1h1l-2,1h-1l4,-1h-1l-1,1h-1h1h-1h1l2,-1h19l1,-1h12v1h2v1h-1h2v-1h27l1,-1h6l1,1h17l1,1h7l1,1h6v1h2l7,1h1v1h3v1h1v-1h-2h8l1,1h4l1,1h4v1h-1v-1l-1,1h-2l-1,-1l1,1h1h-4v-1h-1l1,1h-1h2v1h-1v-1h-1v1h1h-4l-1,-1h-5l-1,-1h-2l-2,-1h-8v-1h-1h1h-3l1,1h1h-3v1h-7v-1h-5v1l1,-1l1,1l1,-1h1v1h4l1,1h1v1h-1h3l1,1h1h-1h2v1h-6l-1,-1h-4l-1,1h-7v1h-7v1h-4l-1,1h-4v1h-3l-1,-1h-11l-3,1v1h-1v-1h1v-1h-2l-1,1h-3v1h-1v-1h-2l-1,1v-1h-2v1h-2v1h-1v1h-2l-1,1h-1l-1,1h-1h1v1h4v1h-1v1h-1v1h2l1,1h-1l-1,1h-1l-1,-1h2v-1v1h-3l-1,1h-1l-2,2v1h2v1h-2l-1,1h-2v-1h-1l-1,1h-3l-1,1h-1l-1,1v1h1h-1l1,1h-5l-1,1h-2l-1,1v1l-1,1l-4,2h-1v1h-1l-1,1h-3v1v-1l-1,-1l1,-2v-2h-1v-1l1,-3l-1,-2l1,-1v-2l4,-4h1l2,-1h1l1,-1h1v-1h-1h3l2,-1h3l2,-1h2l1,-1h1l4,-2h3l2,-1l1,-1h2l1,-1h5l1,-1h1h-1h2v-1h1v-1l1,-1h1v-1l-1,1h-4l-1,1v1h1h-5l-5,1l-1,1h-3l1,-1h-2v1v-1h1l1,-1h1h-12l-2,1h-2l-1,1h-2l-1,1h-2l-5,2h-1l-1,1h-1h4v1h-9l-1,1h-5l-2,1v-1h4l1,-1h-13v1h-2l-1,1l-1,-1h-1l-1,1h-5l-2,1h-1v-1l-5,1h-4l-2,1h-4l-6,3h-2l-1,1h-1l-4,2h-2l-1,1h-2l-2,1l-1,1l-3,1h-1l-1,1l-2,1h-2l-1,1h-2l-1,1h-2v1h-2l-2,1h-1l-2,1l-1,1h4l1,-1h1v1h-1l-2,2h2l1,-1l2,-1h1h-2v1h1h-1l-1,1h-1l-1,1h1l2,-1h1l1,-1h2v-1h1l-1,1h-1l-1,1h1l1,-1h1l1,-1v-1h6v1h2v1h1l-1,1h-2l1,1l-1,1h-1l1,1h-1v1h-1l-1,1h-1l-3,3l-2,1l-2,2h1l-1,1h-1v1l-2,1v1h-1v1l-2,2h-1l-1,1l-2,1l-1,1h-1l-2,1l-2,2l-3,1l-3,3h-1l-1,1l-3,2h-1l-2,1l-2,2l-2,1l-1,1h-1l-1,1l-2,1l-1,1h-1l-1,1l-3,2h-1l-1,1l-2,1l-1,1l-2,1l-3,1l-1,1l-2,1h-1l-2,1h-5l2,-2h-1l-1,1h-1l1,-1l-1,1l-2,1l-1,1h-1l-1,1h-1v1h-1l-2,1v1h-3v1h-1l-2,2h-1l-1,1v1l-2,2v1l-2,1h-1l-1,1l-2,1l-2,2h-2v1h-2l-1,1l-2,1l-1,1v1h-1l-1,1h2v2h1v5l1,2l-1,1v2h-1v1l-2,2v1h1l-6,6h-3v1h-1v1h-2v-1v1h-2v2h-1v-1h-1v2h-1v1l-1,-1h1v-1l-2,1l-1,1l-2,1v-2h1l1,-1l-1,1v-2l2,-2v-1h1v-1h2v-3l1,-1v-1l1,-1l-1,1h-1v-1h1l1,-1h1v-1v1h2v-1h-1h1v-4h1h-2v1h-1v-1h-1l-2,2h-1l1,-1h-2l2,-1h-1v-1l2,-2h2v-1h1h-1l2,-3l1,-1h-1l-1,-1l-1,1v-1h-1l1,-1l-1,1h-1l-2,1h-1v1h-2l-1,1h-1l-3,2l-2,2h-1l-1,1h-1v1h-1l-1,1h-1v-1h1l3,-2l1,-1h-2l1,-1h1v-1h1l2,-1v-1l1,-1l2,-1l1,-1v-1h-1l1,-1l-1,1h-2l-1,1h-1v1h-2l-2,3h-1l-3,2l-2,1l-1,1h-1l-1,1v1l-2,1l-1,1h-2l-1,1v-1l-1,1h-1l-3,3v2h4v1h-1v1h-1v1l-1,1v1h1l2,-1l1,-1l2,-1l1,-1v-1h1l2,-1h1l1,1h2l1,-1h3l-2,2h-1h1l-2,2v-1h-2l-1,1l-2,1l-2,2h-1v1h-1l-2,2h-1v1v-1h-1v1l-1,1h-1v1l-1,1h-1l-6,6h1v1h2v4h-1v4l-1,1v1l1,1v2h1v2h-1l-2,-1l-1,1l-1,-1h-1l-2,1h-1v1h1l2,-2h1v1h-1l1,1h1v1h1v3h-1l-1,1h-1l-1,1l-2,1v1h-1v1h-2l-1,1h-1h2v1l2,-1l1,-1h2v1h2l-3,3h-1v1l2,-2v1l-1,2h-2v1h-1h1v1h-1v1l-1,1v2h-1l-1,1h-1h1h-1l-2,2h-1v1l-1,1v1l-1,1v1h-1l-1,1v1h-1l-1,2l-1,1v1h-2l1,-1h-1v1h-1v1h1v1l-1,1h-1l-1,1v1h-2v1h1l1,-1v1l-1,1v2h-3v2h-1l-1,1v1l-1,1h-1v1l-2,2h-2v1h-1v2l-1,1v1h-2v1h-1v1l-1,1h-1v1h-1l-2,2v1h-1v1l-2,2v-1v1h-1v1h-3v1l-1,1h-1v-1l-2,2h-1h1h-1v1h-1v1v-1h-1v1h-1v1h-1v-4h-1v1l-1,1h1v2l-1,1v1h-1v1h-1v1h-1v-1v1l-1,1v1h-1v1h-2l1,-1h-1v2h-2v1h-1v1h-1v1h-1l-1,1h-1v1h-1l-2,2v-1v1l-2,2v4l-2,2h-1v-1h1v-1h-1l1,-1v-3l1,-1v-1h1v-1h-1v-1v1l-1,1h-1v1v-2l-1,1v-2h-1v2l-1,1v-1v1h-1v1h-1v1h-1l-2,2v1l-2,2h-1v1l-1,1l-1,2v1l-2,2l-1,2l-1,1l-1,3h-1v2l-1,1v1l-1,1v4h1v4h-1h1v3l1,1l-1,1h1v2h1v1h1v3l1,1v11l-1,2v1v2l-1,1v4l-1,1v2l-1,3v2h-1v2l-1,1v1l-2,2v1l-3,3v1l-3,3v1h-1l-1,-1v2h-1v-1v2h-1v1h1l-1,1v2h-1l-1,-2l1,2v3h-1v-1l-1,-2v2l1,1v1h-1v1l-3,3v2l-1,1v1l-2,2v-2l1,-3v-4l1,-2l1,-1v-1h-2v-1l-1,-1h-1l-1,1v-2l1,-1v-2l-1,1v1l-1,1v-4h1l-1,-1v-4h-1v-1l-1,-1v-1l-1,1l-2,1v-3l1,-1v-2h-1l-2,2v3l-1,2v1l-1,2v3l-1,1v2l-1,1v1l-1,3v1l-1,1l-1,3v2l-1,1v7h-1v1h1l1,-1v11l-1,1v2l1,1v1l1,1h1v-1h1v1l1,2v5h-1v1h-1v-1v1l-1,1v1h-1v-1l1,-1v-3l-1,1v-1h-1v-2h-1v3l-1,-2v-4h-1v-5h-1v-1l-1,1v-5l2,-4v-3l1,-2l1,-3l-1,1v-2l1,-3v-2l1,-1v-1l1,-1v-4h1h-1v-1l1,-1v-4l1,-1v-8l1,-1v-1l-1,3v-3l1,-1v-4h1v-1l-1,1v-1l1,-3v-1l1,-1v-4l1,-1v-3h1v-1v1h-1v-2l1,-1v-2l-1,1v1l-1,1v2l-1,2h-1v-1v2l-1,1v1l-2,2v2l-1,2v-2l1,-1h-1v2h-1v1v-2l1,-1l-1,1v1l-1,1l1,-1v-2l1,-1v-1v1h-1v2l-1,1v1v-1l1,-3v-2l1,-1v-1l1,-2l1,-1v-2l1,-1v-1l1,-3v-4h1h-1l1,-1v-2l1,-1l-1,1v2h-1v1v-2l1,-1v-1v1v-1l1,-1v-2l1,-1h-1l-1,1v-1h1v-1l1,-1h-1v1l-1,1l1,-1v-1v1v-3l1,-1v-1l1,-3v-1l1,-1v-2l1,-1v-1v1v-2l1,-1v-1v1h-1v1l-1,1v-1l2,-4v-1h1v-1v1h-1v2l-1,1v1l-1,1v2h-1v1l-1,1v1l-1,1v2h-1v1v-1h1v-3l1,-1v1l-1,1v1l-1,1v1l-1,1v-1l1,-1l1,-2l-1,1v2l-1,1v1h-1h1v-1l-1,1v1l-1,1l1,-1l1,-2v-1l-1,3h-1v1l1,-2v-2h1l-1,1v1l-1,2l-1,1v1l-1,2l-1,1v2l-1,1v1l-1,1v1l-1,1v2l-1,2l-1,1v1l-1,2l-1,1h1v-1l-1,1v1l-1,1l-1,5l-1,1v1l-1,1l-1,3v1l-1,3v1l-2,4v1l-1,3v-1l1,-1v-2l1,-1v-2l1,-1v-2l1,-1v-2l1,-1v-2l1,-1v-2l1,-1v-1l1,-1v-2l1,-1v-2l1,-1v-1l1,-1v-1l1,-1v-2l1,-1v-1l1,-1v-2l1,-1v-1l1,-1v-2l1,-1v-1l1,-1v-2l2,-2v-1l1,-1v-2l1,-1v-1l1,-1v-1l1,-1v-2l1,-1v-1l2,-2v-1l1,-1v-1l1,-1v-2l1,-1v-1l1,-1v-1l2,-2v-1l1,-1v-1l1,-1v-1l1,-1v-1l1,-1v-1l2,-2v-1l1,-1v-1l1,-1v-1l1,-1v-1l2,-2v-1l1,-1v-1l1,-1v-1l3,-3v-1l1,-1v-1l1,-1v-1l1,-1v-1l3,-3v-1l2,-2v-1l1,-1v-1l2,-2v-1l3,-3v-1l1,-1v-1l3,-3v-1l1,-1v-1h1l1,-1v-1l1,-1v-1l3,-3v-1l4,-4v-1l1,-1v-1h1l1,-1v-1l4,-4v-1l3,-3v-1l4,-4v-1l1,-1h1v-1l4,-4v-1l1,-1h1l1,-1v-1l6,-6v-1l1,-1h1l1,-1v-1l1,-1h1v-1l2,-2h1v-1l18,-18h1v-1l1,-1h1l1,-1v-1l1,-1h1l9,-9h1l4,-4h1v-1l1,-1h1l4,-4h1l3,-3h1l4,-4h1l1,-1v-1h1l1,-1h1l4,-4h1l3,-3h1l1,-1h1l1,-1v-1h1l1,-1h1l2,-2h1l3,-3h1l2,-2h1l2,-2h1l1,-1h1l2,-2h1l2,-2h1l2,-2h1l1,-1h1l2,-2h1l2,-2h1l1,-1h1l1,-1h1l2,-2h1l1,-1h1l1,-1h1l1,-1h1l1,-1h1l2,-2h1l1,-1h1l1,-1h1l1,-1h1l2,-2h1l1,-1h1l1,-1h2l1,-1h1l1,-1h1l2,-2h1l1,-1h2l1,-1h1l1,-1h1l1,-1h2l1,-1h1l2,-2h2l1,-1h1l1,-1h2l1,-1h1l1,-1h2l1,-1h1l1,-1h2l1,-1h1l1,-1h2l1,-1h1l1,-1h2l1,-1h1l1,-1h2l1,-1h2l1,-1h2l1,-1h2l1,-1h2l1,-1h2l1,-1h2l1,-1h2l1,-1h3l1,-1h2l1,-1h3l1,-1h2l1,-1h3l1,-1h2l1,-1h3l1,-1h3l1,-1h3l1,-1h4l1,-1h3l1,-1h4l1,-1h1Z"/>
<path class="sp" d="M24,347v-1l1,-1v-2l1,-1v-2l1,-1v-2l1,-1v-2l1,-1v-2l1,-1v-2l1,-1v-1l1,-1v-2l1,-1v-2l1,-1v-1l1,-1v-1l1,-1v-2l1,-1v-1l1,-1v-2l1,-1v-1l1,-1v-2l1,-1v-1l1,-1v-2l2,-2v-1l1,-1v-2l1,-1v-1l1,-1v-1l1,-1v-2l1,-1v-1l2,-2v-1l1,-1v-1l1,-1v-2l1,-1v-1l1,-1v-1l2,-2v-1l1,-1v-1l1,-1v-1l1,-1v-1l1,-1v-1l2,-2v-1l1,-1v-1l1,-1v-1l1,-1v-1l2,-2v-1l1,-1v-1l1,-1v-1l3,-3v-1l1,-1v-1l1,-1v-1l1,-1v-1l3,-3v-1l2,-2v-1l1,-1v-1l2,-2v-1l3,-3v-1l1,-1v-1l3,-3v-1l1,-1v-1h1l1,-1v-1l1,-1v-1l3,-3v-1l4,-4v-1l1,-1v-1h1l1,-1v-1l4,-4v-1l3,-3v-1l4,-4v-1l1,-1h1v-1l4,-4v-1l1,-1h1l1,-1v-1l6,-6v-1l1,-1h1l1,-1v-1l1,-1h1v-1l2,-2h1v-1l18,-18h1v-1l1,-1h1l1,-1v-1l1,-1h1l9,-9h1l4,-4h1v-1l1,-1h1l4,-4h1l3,-3h1l4,-4h1l1,-1v-1h1l1,-1h1l4,-4h1l3,-3h1l1,-1h1l1,-1v-1h1l1,-1h1l2,-2h1l3,-3h1l2,-2h1l2,-2h1l1,-1h1l2,-2h1l2,-2h1l2,-2h1l1,-1h1l2,-2h1l2,-2h1l1,-1h1l1,-1h1l2,-2h1l1,-1h1l1,-1h1l1,-1h1l1,-1h1l2,-2h1l1,-1h1l1,-1h1l1,-1h1l2,-2h1l1,-1h1l1,-1h2l1,-1h1l1,-1h1l2,-2h1l1,-1h2l1,-1h1l1,-1h1l1,-1h2l1,-1h1l2,-2h2l1,-1h1l1,-1h2l1,-1h1l1,-1h2l1,-1h1l1,-1h2l1,-1h1l1,-1h2l1,-1h1l1,-1h2l1,-1h1l1,-1h2l1,-1h2l1,-1h2l1,-1h2l1,-1h2l1,-1h2l1,-1h2l1,-1h2l1,-1h3l1,-1h2l1,-1h3l1,-1h2l1,-1h3l1,-1h2l1,-1h3l1,-1h3l1,-1h3l1,-1h4l1,-1h3l1,-1h4l1,-1h2"/>
<path class="sl" d="M58,358v1ZM66,367v1v-1h1ZM71,352l-1,1ZM91,271v1ZM95,267l-1,1v-1ZM94,269v1h-1l1,-1v-1ZM91,272v-1h1h-1ZM490,503v3h1v-1h1v-1h1h-1l1,1l1,3l-1,1h-2v1h-1v-1h-1v-3l-1,-3v-2h1v1ZM495,514h1l1,1h1v1h1v1h-2l-1,1v-1l-1,-1v-2h-2l1,-2h1ZM504,520h-2l-1,-1l1,-1v1h1v1ZM503,516h-2l-1,-1h1l1,-1v1h1ZM504,526l1,2v1h-1l-2,-1h1h-1v-1l1,-1ZM500,508h-2l1,-1h1ZM502,513v-1l-1,-2l1,-2v1l1,3v1ZM502,507v1l-1,-1v-3h1v2ZM494,511l-1,-1h1ZM497,498h-2v-1h2ZM496,495l-1,-1v-1h1l1,1h-1ZM516,549v1h-1v-1ZM513,544l-1,1h-1v-1l-1,-1l1,-1l1,1ZM511,539l-2,-1v-2h1v1h1h-1l1,1ZM457,331h-1ZM255,313l-1,1v-1l1,-1ZM361,319h-1v-1h1ZM417,320h-1v-1h-1h2ZM515,326h-1h1v-1ZM508,314h-1ZM531,316l1,1h1h-2ZM527,316h1h-1v-1ZM321,234l-1,1v-1ZM318,252v1ZM313,269v1h-1ZM321,239l-1,1ZM318,262h-1v-1h1ZM317,263h-1l1,-1ZM308,277v-1l1,-1v-1h1l-1,2ZM676,507l-1,-1h2ZM737,61h-1v-1h-1h1ZM739,62h-1v-1h-1h1v1ZM723,53h-1ZM681,37h-1ZM673,36v-1h-1h1l1,1ZM659,32v-1ZM649,41h1ZM655,43h-1ZM654,42v1h-1v-1ZM585,45h-1ZM588,12h1ZM578,14h4v1h4l1,1h1h-4v-1h-6l-1,-1ZM608,23v1h3v1h1h-4l-2,-1h-2l-1,-1h1l2,1v-1h1ZM668,39h3v1h1h-3v1h-1l1,-1h-3l-1,-1h-1l-1,-1h2v1h2l1,1l-1,-1h-1v-1v1v-1h-1h3ZM637,40l1,1h2v1l-1,-1l-1,1l-2,-1h-1v1h-2v-1h-1h1v-1h3ZM742,64v1h1l-1,-1h-1ZM750,68l1,1h-1v-1h-1l-1,-1h1ZM741,63l1,1v-1h-2v-1h-1l-1,-1v1h1ZM748,67h1v1l-1,-1h-1h1l-1,-1h-1l-2,-1h1l1,1h1ZM733,59h1l1,1h1h-1l-1,-1l1,1h1v1v-1h-2v-1h-2v-1h-1ZM747,67h1v1h1h-1l-1,-1h-1l-1,-1h-1v-1h-1l1,1h2v1ZM676,36h1h-1v-1ZM676,37l-1,-1v-1h-1h1v1h1ZM672,35h1ZM670,34l-1,-1ZM671,41h-1v-1ZM666,37v-1v1h1ZM667,38h-1ZM667,43h-1ZM668,42h-1v-1h1ZM669,42v-1ZM648,41h1v1h-1v-1h-1ZM643,42l-1,-1h1ZM643,43h-1v-1ZM652,42v1h-1v-1ZM630,42h-1ZM631,42h-1ZM635,31h-1ZM581,21h1l-1,-1h-1h1ZM601,30h-1ZM615,44h-1ZM610,45v-1h1v1ZM603,45h-1v-1ZM604,32h1ZM584,45h-1ZM585,44h-1ZM580,45h-1v-1h1ZM557,43h-1ZM562,45h-1l-2,-1h-1h1l1,1h1ZM531,41h-1v-1h-1h2ZM726,56h1l1,1h1l1,1h1l1,1h1l1,1h-1l-1,-1h-1v-1h-1l-1,-1h-1v-1h-2l-1,-1h1ZM722,53h1v1h2l2,2h1h-1l-1,-1h-1l-1,-1l1,1h1l1,1h1l1,1h1h-2l-2,-2h-1l-2,-1l-1,-1h-1l-1,-1h1ZM719,52h1v1h2l1,1h1h-1h1l1,1h1h-2l-1,-1l1,1l-2,-2h-2l-1,-1h-1v-1v1h1h-1Z"/>
<path class="sl" d="M736,61h2v1h1l1,1h1l1,1h1l1,1h1v1v-1h-1l1,1h2v1h1l1,1h1v1v-1h-2v-1h-1l-1,-1v1h1h-1l-2,-2h-1h1l-1,-1h-2v-1h-2v-1h-1l-1,-1ZM732,58l1,1h1v1h1l1,1h1h-2l-2,-2h-1v-1h-1ZM667,37h1l1,1h-1h1h-3l-1,-1h1ZM622,43l-1,1h-2l-1,1v-1h1h-1l1,-1h2ZM627,42h1l-1,1h1h-1v1h-4v-1h3l-1,-1h-1h2ZM597,45h1h-2ZM592,45h-2v-1h4v1h-1ZM582,45h1h-2v-1h1ZM576,45h-1v-1h-1h3ZM563,43h-1ZM551,43h-1l1,-1h1v1ZM525,38h2l1,1h1h-5v-1ZM781,247h-1l-1,-1l-2,-4v-2l1,-1l-1,-1v-1l5,3l1,1v1h1v1l1,1v1h-1l-2,1h-1ZM766,229h2v1h1h-3ZM772,232h1l1,1h1v1h-3v-1h-1v-1h-1v-1h1ZM762,227h1v1h-1l-1,-1h-1l-1,-1v-1h-1h2l1,1h1ZM750,221v1l-1,-1h-1l-1,-1l1,-1h2v1h1l-1,1h1ZM745,221v-1h1v1ZM769,233l-1,-1v-1h1v1h1ZM894,197h-1v-1ZM903,208l-1,-1v-1v1ZM895,198h-1v-1v1ZM894,197l1,1ZM901,204v1v-1h-1v-1v1ZM809,107h-1ZM809,108h1h-1v-1h-1ZM812,110l1,1h1v1v-1h-1l-1,-1v-1h-1h1ZM818,115l-1,-1v1ZM817,114h1ZM816,113h-1v-1v1ZM810,108h-1ZM908,649v1v-1h1ZM635,563h1l-1,1v-1h-1v-1h1ZM647,542h-1l1,-1ZM637,564v1ZM167,477v1h-1v-1ZM164,489v-1l-1,-1h1l1,-1l-1,-1l-1,1v-1l1,-1v-2l1,-1h1l2,-1l1,-1h2l2,-1h1l1,-1v-1l1,1h2l-1,1l-1,2h-1l-1,1h-1v1l-1,1h-1l-1,1v1h-2l-3,3ZM158,489l1,-1h1v2h-2ZM55,351v1ZM55,349h-1l1,-1ZM36,390v1h-1l1,-1v-2ZM43,372v-1ZM43,373v1ZM38,399v-1l1,-1v1ZM37,389v-1ZM37,381v-1ZM38,391v1ZM163,235l-1,1v1l-1,1v1l-1,1v-3h-1v-5l1,-1v-1l1,-1v-1l4,-6l2,-1v-1l1,-1v-1h1l3,-3h1v1h1v1h-1v2h-1v1l-1,2l-1,1v1l-1,1l-1,2l-1,1l-1,2v1l-2,2ZM154,225v1h-1ZM7,415v3l-1,2v7l-1,1v7l-1,1v6l-1,2v-2l1,-2v-6l1,-1v-6l1,-1v-6l1,-1v-5Z"/>
<path class="sp" d="M4,435v-1l1,-1v-6l1,-1v-6l1,-1v-5"/>
<path class="sl" d="M240,144h-1l1,-1h1ZM237,145h-1v-1h1ZM225,150v-1h1v-1h1v1h-1ZM238,129v1h-1ZM235,146h-1ZM233,137v-1h1ZM226,147v1v-2l1,1ZM261,126h-1ZM222,156v1v-1l1,-1l2,-1h1v1l-2,1ZM429,449h-1v-1h1ZM491,475h-1v-1h1ZM484,467h-1l-1,1h-1v-1h1l1,-1l1,1h1ZM437,477v1l-1,-1h-1v-1h-3v-1h1l3,1ZM445,458v1h-1v-2l-1,-1h1ZM425,454h-1v-1ZM433,453h1v1h1v1l-1,-1h-1l-1,-1ZM412,447l1,1l1,2h-2l-1,-1v-1h-3v-1h1v-1l1,-1h1v2ZM416,452v-1l1,1ZM415,451v1h-1v-2h1ZM409,452v-1l-1,-1l1,-1h1l-1,1v1ZM403,445v-1l-1,-1v-1h1v1h1v1ZM403,447h-1v-2l1,1ZM407,446h-1v-2h1v1l1,1ZM396,438h-1v-1ZM412,452h-2v-1h1v1ZM430,456l1,1h4l1,1h1l2,2v1h-3l-1,-1h-5v-1h-1v-1l-1,-1v-1h1ZM431,449h-2v-1l-3,-1l-1,-1h-1l-2,-1v-1h-1l-1,-1h-1v-1l-1,-1h3l3,3h1l1,1h1l3,2v1ZM410,439v1h-3l-4,-4l-2,-1v-1h1l4,2h1v2l2,1ZM438,447l2,2v2l1,1h1v4l2,2h-1l-1,-2l-1,-1h-1l-2,-2l-1,-3l1,-1l-1,-2ZM447,465h3v1l2,2h-5l-2,-2v-1l-1,-1h-1v-1h1l2,1v1ZM51,434l-1,1v-2h1ZM664,498l1,1v2h-3l-1,-2l-1,-1h3ZM671,504l-3,-1h-1l-1,-1l1,-1h1l2,1v1h1ZM367,82h-1ZM364,83h1ZM354,41l-2,1h-1h2v-1ZM423,23h1ZM531,2h-1h2ZM376,40v2h-1v2l-1,1v1h-1v1h-1l-1,1v3h-1h1l-1,3l-1,1v4h1v1h-1v-1h-1l-1,-1h-1l-2,1h-1l-1,1h-1l-5,5v2h1v2h1v2l-1,1h-1v-1h1l-1,-1h-4v1h-1v1l-2,1l-1,1v-2l4,-4v-1l2,-2h1v-3l6,-6v-1l3,-3v-1l-1,-1h1h-1l1,-2h1l2,-2h1v-1h1v-1h3l1,-1h-1h2v-2h2ZM536,2h3v1h1h-5v-1h-1h1ZM500,33h-1l-1,-1h-1h2ZM480,4v-1h-1h1ZM421,7h-2h2v-1ZM439,4h1l1,-1v1h-7l-1,1h-1h1l1,-1h4Z"/>
<path class="sp" d="M436,4h3"/>
<path class="sl" d="M357,41h1h-1v1h-2l-1,1v-1h-1h1l1,-1h1ZM504,3h-3l-1,-1h4ZM480,22h-1h1l1,-1l2,-1h2v1h-3ZM493,32v1v-1h-2v-1h-1h1l1,1ZM426,53l-1,1v-1l1,-1h1ZM437,48h-2l1,-1h1ZM433,49v1h-4l1,-1h3l2,-2v1l-1,1ZM421,56h-1h1v-1h1ZM433,47h-1ZM414,60h-1ZM406,64l-1,1h-1l1,-1h2v-1h1ZM390,71h-1l2,-1h1l1,-1l2,-1h2l-3,1l-1,1h-1ZM383,73h-2l-2,2h-3l-2,2h-1l-1,1v-1l2,-1l1,-1h1l1,-1h1l1,-1h3l2,-1h1v1ZM369,81l1,-1v1ZM368,78h1l-1,1h-1l-2,1l-1,1h-1l-1,1v-1l2,-1h1v-1h1l1,-1ZM154,264h1l2,1l1,1v-1h1l1,-1v-1l1,1v1h-1v1l-1,1v2l-1,1v1l1,1v1h1l-1,1v1l-1,1l-1,3l-1,1v1l-1,1l-2,1l-1,1v2h-1v1l-1,1v3l1,2l-1,1v4h1l1,1l1,-1v-2h1l1,-1h2v1l1,1l-1,1v1l1,-1h1v-2h1l1,1h1v1h-2v2h1v2h1v1h1l-1,2v2l-1,-1v-2h-3v-3h-1l-1,-1v-1l-1,-1h-1v6l-1,-1v-1l-3,-3h-1v1h-1v1l-1,1h-2l-1,-1l-1,1v-1l1,-2v-1l2,-2v-2h-2v3h-1v-1h-1v-12h2v1h1v-1h1v-4l1,-2v-1l1,-2v-2l2,-4v-1l1,-1v-1l1,-1h1ZM118,350l-1,1v-1l1,-2v-1l1,-1h1l1,-2l1,-1v-1h1l2,-3l2,-4l1,-1l1,-2h1v-1l1,-1v-2l1,-1v-1l1,-2v-1v7l-1,1h-1v1l-1,1v1l-2,1v1h-1v1l-1,3l-1,1v1h-1l-1,1v1l-1,1v1h-1l-1,1v1h-1v1ZM151,316l1,1v-1h1v1l1,-1h1v1l-1,1v1l-2,2v1l-2,2l-2,1h-1v1l-1,1v-1l1,-1v-3l1,-1v-2l1,-2v-1h-1v-1h2v1ZM152,336h-1v-2h-2v-1l-1,-1v-1l1,-1v-1h1l2,-2v-3l1,-1v-2l2,-1h1v3l-1,1v1l-1,2v1l-1,1v6ZM163,315l1,1v-1h2v3l-1,1v1h1v4h-1v-1v2h-2v-3l1,-2v-1l-1,-1l-1,1v-5ZM169,305v2h1v2l-1,2h1l-1,1v1l1,1v1h-1h1v1h-3v-1h-1v-3l-1,-1v-1h-1l-1,-1v-3h3l2,-1ZM143,304h2v1l1,-1v1l1,1v4h-1v2h-1v1l-1,1v-1h-1v-3h-1v-1l1,-1l-1,-1v-1h-1v-1v1v-1l1,-1ZM170,330h1v1l1,1v1l-2,2l1,1h1v10l-1,2l-1,1h-1l1,1l-1,2v-1l-1,-1v-2l-1,-2l-1,1v1l-1,1v1l-1,1v2h1l1,2l-1,2v1l-1,2l-1,1v-4h-1v2h-3l-2,-1l-1,-1v-3l-1,-1v-1l1,-2l1,-1v-1l-1,-1v-1h-1l-1,-1h-1v2l-1,2h-1v-2l-1,1v1h-1v-2h-1l-1,1v1h-1l-1,2v2l-1,1v1h-1v-3l1,-1l1,-2v-1l1,-2v-1h2v-1h2v-2h1v-1l1,-1h1v-2h1v1h1l1,1v2l-1,1l2,-2h1v-1l1,-1v-1h2l1,-1v-2l1,-1h1v1l1,-1v-1h2v-6h1l2,1v1ZM154,332v1l-1,-1l1,-1v-3l1,-1l1,-2l1,-1v-1l2,-4v-1l1,-1v3l-1,1v3l-3,3v1l-1,3ZM160,261l-1,1v-1l1,-1ZM158,258v1l-1,-1ZM163,250v-1ZM163,247v1ZM138,363v1h1l-1,1v-1l-1,1h-1v-1l1,-1ZM116,355l-1,1v-2h1ZM134,329v1v-2h1v1ZM138,316v-1v1h1v1h-2l-1,-1l1,-1Z"/>
<path class="sl" d="M137,320h-1v-2h1v1ZM150,325v1v-2h1v-1v2ZM162,328h-1l-1,1v1h-3v-2h1l1,-1v-1l1,-1h1v1h1v1ZM132,372h-1v1h-1v1h-1v-1l1,-1h1v-1h1ZM143,359h-1v-1l1,-1h2l-1,1ZM171,326v-2h1v1h-1l1,1ZM169,325v1v-1h-1v-3h1v2ZM141,303v1l-1,-1v-1ZM150,302h1v2h-1v1l-1,-1v-1ZM149,311v2h-1l1,-1h-1l1,-1v-2h1v1ZM153,311h-1v-2h1v1ZM157,305l1,1h-1v-1h-1v-1ZM160,308v1l-1,-1v-2l1,1ZM159,309l2,2v2h-1l-1,-1v-1h-1v-1h-1l-1,2l-1,1l1,-2v-1l1,-1v-1h1v1ZM165,298h-1v1l-1,-1l1,-1v-2l1,-1v1l1,1l-1,1ZM152,298l-1,-1ZM153,290v2l-1,1v-3ZM161,322v-1ZM166,325v1v-1l-1,-1h1ZM149,350v1h-1v-1ZM167,349v1l-1,-1v-1l1,-1v1ZM164,314h-1l-1,-1h2ZM162,333h-1l1,-1ZM156,261v-1ZM135,321v1ZM158,317v1ZM151,309v1ZM170,327v1v-2ZM165,313v-1ZM118,352h-1v-1h1ZM156,334v1h-1l-1,-1h1v-1ZM371,419v1h-1v-1h-1v-5l-1,-1l-2,-3h-1l-1,-1h-1l-1,-1h-1l-2,-1l-1,-1l-3,-2h-3l1,-1v-1l1,1l2,1h1l1,1h1l2,2h2l1,1l2,1v1l6,5v4ZM362,416h1l1,-1l1,1h1v4l-1,2h-2v1l1,1v2l-1,1h-4v2h-1v1l-1,1h-2l-1,1h-1v1h-1l-1,1h-3l-2,1h-3l-1,-2h-1l-1,1h-1l-2,-2h-1l-1,-1h-1l-1,-1v-1h4l1,-1h1l1,1h2l2,-1h1l1,-1l1,-2v-2l1,1h-1v3l1,1h1l1,-1h4v-1l1,-1v-1h1l1,-2h3v-3l-1,-2v-1h1v-1l1,1ZM276,466v-7l-1,-1v-11h-1v-4l1,-1l-1,-2v-24l-1,-2v-4h2l4,2h2l5,2l3,1h4l2,1h1l2,2h1l1,-1h1v1h1v1h1l1,1h1l1,1v1h2l4,3v5l1,1h4l5,2l1,1h1l1,-1l1,1h1l1,1v1h1v4h-6l-1,1v1l2,4l1,1h1v1l1,1l2,1h1v1h2v1l1,1v2l2,1l1,2v1l1,1h1l2,-1h2v1l-1,1v1l1,1h5l1,1v1h-2v1h1v1h2l1,1h5l-1,1h-2v1h1l1,1l-2,1h-3l-2,-2h-7l-1,-1h-9l-1,-1h-1v-1l-2,-2l-2,-1v-1l-1,-1v-1h-2l-1,-1l-1,-2v-1l-2,-1v-1l-1,-1v-1h-1l-2,-1h-6v-1h-1v-1h-4v1h-1v1h-1l-1,-1h-2v-1h-1h1l1,3v1h-3v1h1v1h-1l-2,1h-1l-1,1l-1,-1h-1l-1,1h-1l-1,-1h-1h1v1h4l1,1h1l1,1h1v1h1v1l-2,2h-1l-3,3h-1l-1,-1h-5l-1,1l-1,-1h-1v1h-2ZM330,432l-2,-2v-1h1l2,1v1ZM314,424h-1v-1l1,-1v1ZM368,406l-1,-1h1ZM364,404l-1,1l-1,-1h1ZM344,394h-2v-1h2ZM357,466l1,-1h1l-1,3v-1h-2v-1l-1,-1v-1h-1h1l2,1ZM351,462h-1l-1,-1v-1h2v1ZM357,455v1l-1,-1l1,-1v-1h-1v-1h1v1ZM384,476l-1,1h-1v-1h1ZM296,458v1l-2,-1h1ZM323,429l-1,-1l1,-1l1,1v1ZM322,400h2l-1,1h-1l-1,1l-2,-1v1h-1v-2h2ZM350,403h-3l-1,-1l1,-1h3v1ZM352,461h2l1,1v1h-3v-2h-1ZM369,456h2l1,1h1h-1v1h-2v-1Z"/>
<path class="sl" d="M378,477l1,1h1h-1l-1,1v-1h-2v-1h-1v-1h1ZM296,460h-1l-1,-1h-1v-1l1,1h1ZM328,402h-1h1v-1ZM362,404v-1h1ZM356,471v1l-1,-1ZM377,413v1l-1,-1ZM397,435l-1,1v-1v1h-4v-1l-1,-1h-1l1,-1l-3,-3h-1v-1h-1v-4h2l2,2v1h1l2,2v1h2l1,1v1l1,1ZM385,424v-2h-1l1,-1h1v3ZM227,334v-2h1v-1v2ZM237,121h-1ZM534,726h1v-1h1l2,-2h1v2l-1,1l1,-1v-1h1v-1v1h1v-1v1h1h-1v1h-1h1l1,-1v2h-2v3h1v1l-2,1v1h-1v1l-2,2l-2,3v1h-1l-2,1l-1,1v1h-1h1v1l1,1h1v2h-1v-1h-2v-1h-1v1h-2v-1v1l1,1h-2l-1,1h-2v1h-1v1l-1,1v3h-1l1,1h-1v1h-1v2l-1,1v2l-2,1h-1v1h-1l-1,2l-1,1h-1l-2,1h-2l-1,-1h-1v1l-1,-1v1l-1,-1v-1h-3v-1h-1l-1,-1v1h-4l-1,-1l2,-1h-1v1l-1,-1h1l-1,-1v1h-1v-1l2,-1h1h-1v-1h1h-1v-1h1l-1,-1h1v1h1v-1h1h-1l-1,-1l1,-1h1h-1v-1l2,-1v1v-1h1v-1h1v-1l1,-1l2,-1l1,-1v-1h2l2,-1h1h-1l1,-1h1l1,-1h2v-1l1,-1h1v-1h1v-1h1l1,-1l1,1v-2l1,-1l1,1v1v-2l1,-1v-1h1h-1l1,-1v-2l1,-2h2v-1l1,-1h1v-2l2,-4l2,-2h1l1,1h-2v1h1v1h1v2l1,1ZM539,722l-1,1l1,-1v-1h1v1ZM493,759h-2l1,-1h1ZM494,755v1l-1,-1ZM501,767v1h1v1h-2v1h-2v-1h1v-3h1ZM553,686v1v-1h-1v-1h1ZM538,675h1v-1v1l2,1h2l1,1v1h2v1l1,1v1h-1l1,1h-2l1,1v1h1l1,2v3l-1,1v1h2l2,1v1l1,1h1v-2l-1,-1l1,-1l-1,-1v-1h1v1l1,1h1v6l2,2l2,1l1,1h6l1,-1v-1h1l1,-1h2l1,1h1l-1,1v1l-1,1v1l-1,2v1l-1,1h-1l-1,2v2h-1l-1,-1h-2l-1,1h-1v1h-1v2l1,1l-1,2l-1,1v1l-4,4v1l-2,2v1h-1l-2,1l-1,1h-2v-1h-2v-1h-1v-1l4,-4v-4l-1,-2h-2l-3,-3h-2l-1,-1v-2h1l1,-1h3v-1h1v-2l1,-2v-1l1,-1v-2h1v-1l-1,-1v-3l-1,-1v-1l1,1v1v-1h1v-2h-1v1h-1l-1,-1v-1l-1,-2l1,1v-4h-1v1l-2,-2v-1v1l1,1v1h1l-1,1l-1,-1v-1l-3,-5v-1h1v-1h-1v1h-1v-1h-1v-3l-1,-1l-1,-2l-1,-1h3l-1,1h1v2ZM507,808h-1ZM490,796h1h-2l1,-1v-1h1l-1,1ZM599,748h-2v2h-1v-2h-1v-1l1,1v-1ZM598,752v-1ZM666,455h-1ZM679,549h-1v-1h1ZM749,577l-1,-1h1ZM968,326l-1,-1ZM948,279h1h-1v-1ZM929,244v-1l-2,-2v-1l-1,-1v1h1v1l2,2ZM930,247h-1v-1l-1,-1h1v1ZM930,246l1,2v-1l-1,-1l-1,-2h1v1ZM920,235l-1,-1v-1v1h1ZM952,287v-1l-1,-1l1,1ZM944,270v1v-1l-1,-1ZM949,281l-1,-2v1ZM948,279l-1,-1v-1l-1,-1l-1,-3v1l1,2l1,1v1ZM40,399v-3h1v2h1v-1v2l1,-1v1v-1v3l-1,1v1h1v-1l1,-1v-1v1h1v-1h1v-4h1v1l1,2v1h1v1l1,1v11l-1,2l1,1l-1,2v4l2,2v2l1,4v3h-1v-1v1h-1l-1,2v-2l-2,-1h-1v-1l-2,-1l-1,-1v-1l-1,-1v-4l-1,-2v-1l-1,-1v-19Z"/>
<path class="sl" d="M116,385h-2l-1,-1l-1,1h-2v1h-2l-1,1v-1v1h-1v1l-1,1v6h-1v3l-1,1h-1v5l-2,2v3l-1,1v3h-2v1h-2v2h-4v-1l-3,1l-1,1v1l-1,1v1l-1,1v1h-3l-3,3h-1l-1,-2h-1v-1h-1v-3h-1v-1l1,-1v1l1,1h2v-1l1,1h2v1h1v-1h-1v-1l1,-1v-6h1v-2l1,-1v-1l1,-1l5,-3l1,-1v-1h1v-1l2,-4l1,-3l1,-2l1,-1v-2h1v2h1v1h2v-6l1,-1v2l1,1v1l1,-1v-2l-1,-1v-1l1,-1h1v-1l1,-1h-1v-2l1,-1h1v-1l1,-1l1,-2v-2l2,-4h1l1,-4h1v2l-1,1h1l1,-2v-1h1v2h1l1,1v1l-1,1v2l-1,1l2,-1h1v-1h1v1l-1,1v1l2,-2h1v2h4v2l-2,2l-2,1h-2v3l2,1l-1,1h-1v1h-1l-1,1l-1,-1l-1,1ZM52,422v-1ZM39,408v-1h1ZM39,399v2h-1v-1h1ZM115,361v1v-2h1v-1v2ZM42,425h-1l1,-1ZM83,411v-1ZM118,384l-1,1h-1v-1h1ZM544,349h-1ZM543,350h-1v-1h1ZM544,360v-1h-1h1ZM544,361v-1ZM544,367h1l-1,1v-1h1h-1v-1ZM557,382v-1h-1v-1v1h1ZM559,386v-1ZM544,364h1v-1v1ZM669,421v-1ZM679,410v-1ZM801,435l-1,-1h1ZM794,447h-1ZM785,381l1,2l-1,-1h-1l-1,-1v-1v1h1l-1,-1h2ZM770,362v1h-1h1v-1h-1ZM674,406v1v-1v1v-1h-1ZM271,131h-1v-1h1ZM305,117h-1h1v-1l2,-2v1h-1v1h1l-1,1ZM275,140l-1,1h-1l2,-2h1ZM238,170h-1v-1h2ZM240,169l1,-1v-1l1,-1v1l-1,1ZM240,158l1,-1v-1h1l-1,1ZM241,147v1v-1l1,-1v1ZM243,146h-1l1,-1v-1h1v1ZM234,156h1v1h-2ZM243,157h-1l1,-1ZM342,78h-1v-1h1ZM323,94v-1h1ZM272,140h-1ZM304,134h-1h1v-1ZM236,156v-1l1,-1v1ZM240,153h-1h1v-1h1h-1ZM243,149h-1ZM258,145h1l-1,1h-1ZM237,162h-1h1v-1ZM306,182h-1ZM353,81h6l2,-1l1,-1h1h-1l-2,2v3h2v-1h1h-1v1h-2l-1,1h-1l-1,1h-4l-2,1h-1l-2,1l-2,2v1h-5l-2,-1h-4l-3,1h-3v1h-1l1,1h2l1,1h-3v1h-1l-1,1h-1l-1,1v-2h1v-3l2,-2h1l1,-1h1v-2h6l1,-1v-1l2,-2h1v-1l1,-1h1v-2h1l-1,-1l2,-2h2l2,2v1h1l1,1h1ZM251,148v1l1,-1h2v1h-1l-1,1h1v1h1h-1v1h1h-1l-3,3v1l-3,3v1l-2,2h-1v1l-2,1l-1,1v-1l1,-1v-2h1h-1l-1,1v2h-3v-1h2v-3l1,-1v-1h1l3,-3h-1l1,-1v-2h-1l-1,1v1h1l-1,1h-2l-1,1v-3l1,1v1l1,-1v-1h-2l1,-1h1v-1h1l1,-1h1l1,-1h1v-1l2,-1h1v1ZM271,141h2l-1,1v1l-3,3h-1v1h-1v-1h-2l-3,2l-1,2h-1l-2,2h-1l1,-1h-1l-1,-1h1v-1h1h-1v-1l-2,1h1l1,-1l2,-1l1,-1v-1h1v-1h4l1,-1h1v-1l1,-1h2ZM331,96h2l-1,1l-1,2v1l1,1v3h-1v2l-1,1h-1v1h-1v1h-1l-1,1v1h-1v1h-2l-2,2v2l-1,1l-1,2l-1,1h-1v1l-2,2v1l-1,1l1,1v1h-1l-1,1h-1v1l-2,2h-2v1h-1v-1l3,-3h-2v1l-1,1v1h-1l-1,-1l-1,1h-1v1l-3,3l-1,-1l2,-2h-2v1l-1,1h-1l-1,1v1h-6l-1,1v-1h1v-1l-1,1v-1h-1v1v-1l1,-1h-1l-2,2v1l1,1l-1,1h-1l-5,3l-1,2l-2,1l-1,-1v-1h-1v-1l1,-1v-1h1v-1h1v-1h1h-6l-2,2h-2l-1,1h-2v1h-2l-2,1h-3v1l-1,1h-1v1l-2,-1l-1,1h-3l-1,1l1,-2l1,-1h1l1,-1h1v-1h2l2,-2h1v-1h1l1,-1l2,-1l2,-2h5l1,-1h2l1,-1h1l2,-1h3l-1,1h3v-1h1l1,-1h1v-2h1v-1h1l1,-1l2,-1l1,-1l1,-2v-1l2,-1h1l1,-1h1l-2,1l-1,1h-1l1,1h-1v1h2l1,-1h1l4,-2l1,-1l2,-1h1v-1h1l1,-1l3,-2h1v-1h1v-1l2,-2h1v-1l2,-2h1v-1l1,-1v-1h-1v-1h1l1,-1v-2h1l1,-1h1v-1h1v-1h1v-1h1v2h1v-1l1,1l2,-2h-1l-2,1v-1l1,-1h1Z"/>
<path class="sl" d="M186,217l-1,1v-1l1,-1ZM183,219h-1l1,-1ZM193,213v1h-1ZM215,197h-1v1h-2v1h-1v2h-1l1,-1v-2h1l1,-1h-1h2v-1h1v-1v1ZM222,189h-1v-1l1,-1v1ZM226,185h-1v-1h1l2,-2v1h-1v1h-1ZM225,186h-1v-1ZM303,143h-1ZM29,446v2h1v5h-1v-4l-1,-1v-2l1,-1ZM34,470l-1,-1v-1l-1,-2v-2l1,-1v1l1,1v4ZM114,495v2l-1,1h-3v-1h1v-3l1,-1v-1h2v1ZM107,493h1l1,1v1l-2,2v2l-1,1v-3h-2v-1h-2v-2h3l1,-1ZM59,455v1l1,1v2l1,2h2l-1,1v4h-1v-1h-2v-3l-1,-1v-1h-3v-1h1v-3h1v-1l1,1v-2h1ZM149,450v1l-1,1v3h1v2h-1v3h-2v-3l1,-1v-7h1v-1v1ZM146,457v1h-2v-5l2,-2l1,3l-1,2ZM69,406v-1l-1,-1v-1l1,-1v-1v1l1,1v1ZM69,462v2h-1v1v-1h-1l-1,1v-5l1,-1h1l1,1v1ZM231,400h4l2,2h1v1l-1,1h-2l-1,-1v-2l-1,1l-1,-1h-1ZM232,408h3l2,-1l1,1h3l-1,1h-5ZM198,400h2l1,1h1v1l-1,1l-1,-1l-1,1v-1h-1l-1,-1v1l1,1h1l-1,1h-1v-1h-1v1v-1h-2v-1h1v-1h2v-1ZM182,386h-1v-3l2,-2l1,1l-1,2v1ZM180,418h-2l-1,1h-2v-2l1,-1h2l1,1h1ZM166,427v1v-2h-1v-2h1v1ZM166,422h2l-2,1h-1l-2,1h-1v-1h2ZM159,423h1v-1h1v1h1l-1,1h-1v1h-2l-1,1h-1l-1,-1l1,-2h1ZM205,468h-2v-3l1,-2l1,-1v-1h1l-1,-1h2l-1,1l1,1l-1,2v1l-1,1v1ZM174,471v1h-1v1h-1v1h-3l-1,1v-1l1,-2h2l2,-2v1ZM160,478v1l1,-1h3v1l-5,2v-2ZM200,411h-2v-1h-1v-2l2,-1v1h1v2ZM28,416l1,-1h1l1,-1v1l1,1v6h1v1l3,3v1l1,1v2l1,2v1h1v1l1,1v-3l1,1v1l1,1v1h1l1,1v3l1,1h2v2l-1,2l-1,1l1,-1h1v-2l1,-1h1v1h1v3h-1v7h3l1,2v5h1v5l1,-1v-1l1,-1h1v1l2,3l1,1v2l-1,1v7l1,3v11h-1v-1l-1,-1v1l-1,1v1v-1h-2v1l1,1v1h-1v-1h-1v-2h-1l-1,-3l-2,-1l-2,-2l-1,-2l-1,-1l-1,-2v-1l-2,-2l-1,-2v-1l-1,-1l-1,-2v-3l-2,-5v-4l-1,-2l-1,-1v-2l-1,-1h-1v-4l-1,-3v-5l-1,-1l-1,-2h-1v-4l-1,-1v-2l-1,-2v-1h-1v-1l-1,-1v-1l-1,-2v-8h1l1,1ZM149,485v1h-1v1h-3l-1,2h-3v1h-1l-1,1l-1,-1h-2l-1,1h-2v1l-1,-1v-3h1v-1l1,-1h2v-1l1,1h3l1,1h1v-1h2v-1h1l1,1h1v-1l3,-3l-1,-1h1v2l-1,1l1,1ZM134,496l1,1v1h2l2,2v2h-1v1h-3v-1h-1v-1h-1l-1,-1h-4v-2l1,-1h1l1,-1h2v-1v1ZM123,490l1,-1h1v1v-1h2v2h1v1h-2v1l-2,1v-1l-1,1v1h-1l-1,1h-1l-1,1h-1v1h-3v-4h1v-1l1,-1h2l2,2l1,-1h1v-1h-1v-1h-2v-2l1,-1h1v1ZM159,400l-2,2v1l-1,1v1h-1v1h-1l-3,2h-3l-1,-1l-5,1l-1,1h-3l-1,1l-2,1h-4v1l-2,2v7l1,2h1l1,1v2l1,1v-1h3v-3l2,-2h2l2,-2l2,-1h2v-1l1,-1h2v4l-1,-1h-2v1l-1,1v1l-1,1l-1,2l-1,1l-2,1l-1,1v1l-1,1l-1,-1v1l1,1v1h1l2,2v1l2,2v2h1l-1,1v4h1l1,1v1h1v1v-1h1v3h-2v1l-2,1h-1v3h-3v-6h-1l-3,-3v-4l1,-1l-1,-1v-2h-1l-1,1h-1l-1,2v3l1,1v15l1,2v2h-2l-2,2l-1,-1h-1v-9l1,-1l-1,-3v-2h-1v-3l-2,2l-1,-1v-1l-1,-1v-1l1,-1l-1,-1v-2h1l1,-1v-3l1,-2v-6l1,-3l1,-2v-1v1l1,1v-2l-1,-1v-4l1,-1v-4h1v-2l1,-1v-2h1v1h1v-1h1v-1l1,-1v-2h3v1h10v-1h6l2,-2l1,-2l1,-1v-1l2,-2v-1h1l1,1l-1,1v2l-1,1Z"/>
<path class="sl" d="M67,489v1l1,1l1,-1l1,1v-1h1l1,1v1l1,1v1h1v-1h3v-1h4l1,-1v-4h1v-1l1,1v1h2v-1h1v1h4l1,1v1h1v3h4l1,-1h1v-1h1l1,1h1v5l1,1v2h-1v-1h-3l-3,-1l-1,1h-1v1h-3l-3,1h-1l-2,1h-2l-3,-2h-4l-1,1h-1v1h-1v1h-3l-1,-1h-2l-2,1h-1v-3l-1,-1h-2v1h-2v1v-1h1v-3h1v-6h4v-2h1ZM75,417l-1,1v1h1v3h1v1h1l1,2h1l3,-3h3v-1l1,-1v-1l1,-1v-1l1,-1l3,-1v1h4v-2h2v-1h2v-3l1,-1v-3l2,-2v-5h1l1,-1v-3h1v-6l1,-1v-1h1v-1v1l1,-1h2v-1h2l1,-1l1,1h2l-1,1l2,2v1h-2v1h-2v1v-1v1l1,1v2h2v1h-1h1v2h1v1l1,1v2h-1v1l-1,1h1v1l3,3h1l1,2h1l-1,1v1l-2,1h-2v-1h-1v-1v2l-1,1v1l-1,3v1l-1,4v1l1,2v2l-1,1h-1v1l-1,1v1l-1,1v-1h-1v-1v2h1l-1,1v1h-1v2l-1,1h1v2l-1,1h1v1h1v1l-1,1v1h-1h1v3h-1v1v-1v3l-1,1v2l-7,7v-3l-1,-2v-1v1h-1v-1h-1l-2,2v-1l-1,-1l-1,1l-2,-2v2l-1,2l-1,1l-1,-1l-1,1l-1,2v-2l-1,-2v-1l-1,1h-1l-2,2v-1h-1v1l-1,-1l-1,1v-2l-1,-4v-2l-1,-1v-2l1,-1l-1,-1v-2l-1,-1h-2v-2l-1,-1v-3l1,-1v-1h-1v-1l-1,-1v-4l1,-2v-3l1,-2v-2l1,-1ZM177,397h1v-1l1,-1v-1h1v-2l2,-1l1,-1h1v4h-1l-2,2v1l1,1h1v1h1v1h1v1l-2,-1h-5v4l3,6l1,1h-1v-1h-2v-1l-1,-1v-1h-1v-5l-1,-1v-4l-1,-2v-1l1,-2v-2l1,-1v-1l1,-2h1v-1v1l-1,2v1h1v4l-1,1l-1,2ZM191,426h5l1,1v1l2,2v3l-2,-1l-1,-1h-3v-1h-3v1h-4v-1h-1v1h-1v1h-2l-1,-1h-1v1l-1,1v1v-3l1,-2l1,-1l2,-1h5l1,-1v-1h1v1ZM172,432h1v1h1v3l-2,2h-3l-2,-2v-1l-1,-1l1,-1h1l2,-1h1ZM163,485v1l1,-1l1,1l-1,1h-1l1,1v3l-1,1v1l-2,2v1h-1l-3,3l-1,-1v-1l1,-1h-1v-4l1,-1v-1l1,-1v1h2v-2l2,-2ZM228,444h-1l1,1l-1,1l1,1v2h-1v1h-1l-1,-1h-1v-1h-1v-1h1l1,-2h-1v-1h1v-1h1v-1h1v1ZM226,450v3l-2,2l-1,-1v-3h1h-1v-2l1,-1v1l1,1ZM257,462l-2,1h-3l-1,1h-1l1,-2v-3l2,-2v-1l1,-1h1l2,-1h1l1,1h1v1l-1,2v1l-2,2ZM273,410v4l1,2v24l1,2l-1,1v4h1v11l1,1v7l-2,-1l-1,-1v-1h-1l-4,-4v-1l1,-1l-2,2h-2l-1,1h-1l-1,-1v-1v1l-2,2h-1v-1l1,-1v-3h1v-1h-1v-1l-1,-1h-1v-1h2l-1,-1h-1l-1,-1v-1h1v-1l-3,-3v-2l-1,-1v-1h-1v-1l1,-1l-1,1h-1v-2h-1v-1h-1v-1l-4,-1v-1v1h-1l-1,-1h-3l-2,-1h-2l-1,-1h-6l-3,-1l-1,-1v-1h1l1,-1h-1v1h-4v-1h-1l-1,1v-1l-1,-1h-1v-3l1,-1v-1h-1v3l-1,1v1l-1,1v2l-1,1v1h-2l-1,-1v-1l-1,-1l1,-1v-2h-1l-1,-2l-2,-1h-2v-1l1,-1h4l1,-1l1,-2h4l1,1v-2h1v-1h-1l1,-1v-1l-1,1l-2,1h-2l-2,1h-5l-1,-1v-1l-1,-2v-1h-1l-3,-1l-1,1h-1v-2h1v-3l1,-1h1l2,-1l2,-2v-1l2,-1h5l1,1l2,1h2l1,-1h1v1h1l-1,1l1,1v1l1,1v1l-1,1v6l2,3v2l1,-2v-1h1v3h1v1l1,1v1h4l1,-1v-1l2,-2v-1l1,-1l1,-2h1v-3h2l4,-2v-2l2,-2l2,-1l1,-1h1v1l6,1l1,1h2l1,1l2,1h6v1l3,-1v1l1,1Z"/>
<path class="sl" d="M260,462h-3l2,-2ZM43,432v2l-1,1v-3ZM45,440l-1,-1v-2h1v2ZM45,436v1v-1h-1v-1h1ZM47,441h-2v-3l2,2ZM48,439v1h-1v-1h-1v-1h1ZM48,442v-1ZM49,440v1l-1,-1v-1h1ZM51,435v1ZM53,434v2h-1h1v-1l-1,1v-2ZM54,445v-1v1h1l-1,1v-1l-1,1v-2h1ZM53,447v2h-1v1v-2ZM50,448l-1,1v-1ZM75,444l-1,1v-3l1,1ZM98,487h-1v1l-1,1h-4l1,-1v-1l1,-1l5,-1v1h-1ZM228,404l-1,1v-2h1ZM174,409l-1,1v-2l1,-1v1ZM176,407l1,1l-1,2h2v1l-1,1v-1h-2v-1l-1,-1v-1h1ZM215,448l-1,1v-2l1,-1v-1l1,-3v3l-1,1ZM214,447l-1,1v-1l-1,-1l1,-1v1ZM181,435h-1l-1,1v-1l2,-2h1v1h-1ZM172,372h-1l1,-1v-1l-1,-1l1,-1v1h1l-1,2ZM164,378v1l-1,-1v-1h1ZM202,471h-1l2,-2h1l-1,1h-1ZM194,469v1l-1,-1v-1h1ZM181,473h2v1h-2ZM195,415l1,1l-1,1h1l-1,1h-4v-1l2,-1h1ZM47,495h-1v-2l1,1ZM39,479v1h-1v-4l1,1v1ZM38,476v1h-1v-3l1,1ZM36,473l-1,-1v-1h1v1ZM32,461h-1v-1l1,-1v-1l-1,-2h1v3ZM26,440v1v-1l-2,-2h1v-1v1h1v1ZM142,459h-1v-3h1v1ZM148,421v2l1,-2h1v2h-1l-1,1v1v-3h-1v2l-1,1v-4h1ZM140,417h-1v1v-1ZM134,469v1v-1l-1,-1v-4l1,1v1ZM106,483h-1v-1h2v1ZM109,455l-1,2v-2l-1,-1v-2l1,-1v-1v2h1v2ZM153,505h-1v-2h1l1,-1v-1l1,-1v2l-2,2ZM158,480v2l-1,1v-1h-1v-1h1l1,-2ZM156,480l-1,1v1h-1v1l-1,1h-1l1,-1v-2h1l1,-1ZM152,482l-1,1v-2h1ZM228,451h-1v-1ZM49,437v1h-1v-1ZM50,439v-1ZM52,437v1l-1,-1ZM53,443v-1ZM61,414v1l-1,-1v-1h1ZM58,417v1v-2h1v1ZM72,411l-1,1v-1l1,-1ZM72,449l-1,1v-1ZM65,463v-1h1ZM63,465h-1v-1h1ZM101,486v1l-1,-1ZM91,478v-1ZM59,499h-1v-1h1ZM29,441l-1,-1h1ZM25,414v-1ZM151,425h-1v-1h1ZM149,446v1h-1l-1,-1l1,-1h1ZM152,427v-1ZM148,426l-1,1ZM130,491v1h-1v-3h1v1ZM127,488v-1h1ZM109,498h-1v-1ZM116,385h1l1,-1v1l-1,1ZM116,392v1l-1,-1v-1h1ZM155,461v-1ZM152,455v1ZM136,475l-1,1v-1ZM119,491h-1h1l-1,-1h1v-1v1ZM109,451v1ZM175,398h-1ZM224,414h-1v-1h1ZM218,433h1h-1l-1,-1h1ZM199,407h-1l-3,1h1v-1h2ZM197,405h-1v-1h1ZM189,403h-1v-1ZM175,405v-1ZM175,399v-1ZM174,412h-1l1,-2v1ZM184,433v1v-1v1l-1,-1ZM183,434h-1v-1h1ZM171,373v1v-2ZM172,374v-1ZM162,385v1v-2h1ZM209,460h-2l1,-1ZM186,464v1l-1,-1l1,-1ZM178,470v-1ZM155,499h-1v-1h1v-1v1ZM146,503v1h-1v-1l1,-1h1v1ZM228,450v-1h1ZM228,453h-1v-1h1ZM179,429v1h-1ZM177,433h-1v-1ZM151,484l-1,1v-1l1,-1h1Z"/>
<path class="sl" d="M23,408l-1,1v-3h1v1ZM23,404l-1,1ZM22,398v-1ZM23,400v1v-1h-1h1v-1ZM23,399v-1ZM23,391v1ZM24,380v1v-2l1,-1v1ZM26,373v-1ZM26,372v-2l1,-1v-3h1v-3l1,-1v-3l1,-1v-2l1,-1v1h-1v3l-1,1v3l-1,1v2l-1,1v4ZM28,367v1ZM29,361l-1,1l1,-1v-1ZM633,494v-1ZM617,502h-1v-1ZM812,548h-1v-1h1ZM820,557v1v-1h1ZM812,550l-1,-1v-1l1,1ZM823,559l1,1v1h-1v-1h-1v-1l-1,-1h1v-1l1,1ZM894,507v1h1h-2ZM893,509v1ZM895,515h-1l1,-1ZM889,499h-1v-2l1,1ZM889,503h-1v-1h1ZM871,574v-1h1v-1v1h-1ZM892,500h-1v-1h1ZM871,578v1v-1h-1ZM870,576v1v-2ZM892,587h-1v-1ZM889,584v-1ZM876,603v-1ZM865,556l1,-1ZM859,559l1,1ZM859,559h-1v-1v1ZM852,550l-1,-1ZM848,553v1v-2ZM469,550l1,1l1,-1l1,1l4,3h1v1h1v1h1v1h1l1,1v1h1l1,1h1l1,1l2,1l3,3h1l1,1v2h-2l-1,-1h-1l-1,-1h-2v-1l-1,-1h-1l-1,-1h-1l-1,-1h-1l-3,-3h-1v-1l-2,-1l-2,-2v-1l-2,-2v-1l-1,-1v-1ZM497,570l-1,1v-1ZM434,543v-1ZM500,560h2l-1,2h-1l-1,-1v-1h1v-1ZM489,554h-1l1,-1v-2l1,1h-1v1ZM495,558l-1,-1h-1v-1h-1h1l1,-1l-1,-1h2v2l1,1ZM177,878h-1l-1,-1l1,1h1v1v-1h-1v-1h-1v-1l2,2h1v1l-1,-1v1h1l1,1l-1,-1h1v1h1h-1l1,1h-1h1l1,1h-1v-1h-1v-1h-1l-2,-2h-1v-1h-1v-1v1h1v1h1ZM176,878l-1,-1ZM600,517l-4,4v1l2,-1l1,-1v2h-5v-1h-1l-1,1v1h-2l-1,1v-2h-1v-2l1,1h1l2,-2h3l1,-1h1v-1h2ZM586,527l1,1v1h1v4h-1v1l-1,-1l-1,1h-5l-2,-1h-1v-2l1,-1v-1l2,-2h3l1,-1h1ZM600,524v-2h1v1ZM600,524h-1v-1l1,-1v1ZM586,541h-1l-1,1h-2l1,-1h2v-1ZM609,536v-1h-1h1ZM608,527v-1ZM610,544v-1ZM600,541v1ZM577,524v1v-1h1ZM595,527v-1ZM594,534l-1,-1v-1h1v1ZM590,530h-1l1,-1ZM601,520h-1l1,-1ZM601,517h-1ZM578,484h-1ZM153,226h-1v-1h1ZM193,173h-2l-1,-1h2ZM190,182h-1l1,-1v1h1ZM189,184v1l-1,-1ZM191,183h-1v-1h1ZM164,216l-1,1v-1h1v-1ZM106,263h1l-1,1ZM179,196l-1,1v-1ZM118,255l1,-1v1ZM118,255l-1,1ZM106,270v2l-2,2l-1,2l-1,1v1l-1,1v2h-1v1l-1,1h-1v1h-1v1l-1,1h-3v-3l1,-3v-1l1,-1h1l1,-1v-1l1,-1v-1h1l2,-2h1l1,-1h1l1,-1ZM123,250v-1h1ZM127,247v-1h1v1h-1v1l-1,-1v1v-1ZM127,248v1ZM126,249h-1v-1h1ZM752,70l1,1h1v1h1l1,1l-1,-1v-1v1h1l1,1l2,1v1l-1,-1h-1v-1v1h1h-1l-1,-1h-1v-1l-2,-1h-1v-1h-1ZM760,75l1,1h1v1v-1h-1h1v1h1l2,2h2v1h1h-1l-1,-1h-1l-1,-1l-2,-1v-1h-2l-1,-1h-1h1ZM787,92l2,1l1,1l2,1h1v1l4,2l1,1v1h1l1,1h1l4,4h1l1,1h1v1l1,1l-1,-1h-1l-2,-2h-1v-1h-1v-1h-1v-1h-1h1v1v-1h-2v-1h-1v-1h-1v-1h-2l-3,-3h-1v-1h-2v-1v1v-1h-1l-1,-1h-1v-1h-1h1l1,1l-2,-2v1v-1h-1l-1,-1h-1h2Z"/>
<path class="sl" d="M754,71v-1h-1h1ZM770,81h-2v-1l1,1ZM759,74h1h-1v-1h-1h1v1l-1,-1h1ZM765,78v-1l-2,-1h-1l-1,-1l1,1h1l2,1ZM753,70v-1v1h1ZM770,80l2,1v1h1v1v-1h-1v-1h-2v-1h-1l-1,-1h-1v-1h-1h1l1,1ZM797,99l1,1h-1ZM801,101h-1l-1,-1h-1v-1v1h1ZM795,98l-1,-1h-1v-1v1h2ZM795,97l-2,-1v-1v1h1v1ZM771,81l1,1l-1,-1h-1l-1,-1l1,1ZM780,87l-1,-1v1ZM773,83v-1h-1l-1,-1h1l1,1ZM768,79h-1l-1,-1l1,1ZM767,79v-1h-1ZM807,106l-1,-1ZM806,105l-1,-1h-1ZM796,98l-1,-1ZM56,353v-1ZM56,357v1ZM39,365v1ZM38,374v-1ZM40,361v-1h1v-1v2ZM42,357v-1ZM42,358l-1,2v-2ZM43,352v1l-1,1v-1l1,-1v-1ZM41,356v-1ZM39,333v1v-2l1,-1v-1v1l-1,1ZM48,324v-1ZM44,313v-2h1v1h-1ZM47,304v1v-2ZM47,306v1h-1v1v-2ZM40,365l1,-1ZM40,360v-1ZM41,354v1ZM43,348v1v-2ZM40,333h-1l1,-1ZM46,304v1v-2ZM103,383v1l1,1v2l-1,1v-1l-1,-1v-2ZM103,383l-2,2v6h-2v-1h-1v-2h-1l1,-1h1v-1h1v-1l2,-2v-1h1ZM49,291v1l1,-4v2ZM51,288l-1,1l1,-1v-1ZM48,292v1l1,-2v-2h1v-1v1l-1,1v2ZM49,292v1v-1h1v-1v1ZM49,294h-1h1v-1ZM51,286v-1ZM295,489v3l1,1v1l2,2v3l1,1v4l1,1v1l1,2v1l1,1h1l2,-2h2l1,1v1l3,1l1,1h1l1,1v5l1,2v1l1,2v3l5,5l2,5v5l1,2l1,1v2l2,2h1l1,1h2l1,1h3v1l2,2h1l1,1h2l2,1h1v1l2,1l1,1l-1,1v-1v3l2,1h1l1,2v1h1v2h1l1,2v2l1,2l1,1v1h1v-1l1,1v1l1,-1l-1,-2v-1h1v1l1,1l2,1h1v-1h1l1,1v5l1,3h1v1l1,1h1v1l3,1h1l2,2l1,2l2,2h2v2l2,2h1l1,2v2l2,2v3l1,7l3,5v1l1,1l1,2v7l-1,2v7l-1,5l1,2v4l-1,3l-2,2l1,2v1l-1,1v1h-1v1h-1h1l-2,1l-1,1v2h-1v2l-1,1v4h-1h1l-1,2l-1,1v6h-1l1,1h-1l-1,3v1l-1,2v2l1,2v1l-1,2v1l1,2v4h-1l-2,2h-3l-4,1h-1l-1,1l-2,1l-4,5l-2,1h-1v1h1l1,1v1h-1l-2,-2l-1,1l-1,-1v-1h-1l-1,-1h-1v-1h1l-1,-1h-1l-2,2h-1l-1,-1h2v-3h-1l-1,-1l-1,2h-1v1h2l-1,1h-1l-3,3v1l-1,1l-1,-1h-1l-1,-1h-2l-2,-1h-2l-2,-1l-2,2h-1v-1l-2,-1h-1l-3,-1h-2l-1,-2l-3,-2l-1,-1v-1h-1v-4l-1,-2l-3,-3l-2,-1l-1,-1h-1v-1l1,1v-1h1v-1h-1v-1l-2,2h-1l-1,1h-2v-1h1v-4l-1,-2h-1l-1,-2l-2,-2v8h-2l-1,1h-1v1h-1v-3h3v-2l-1,-1v-2l-1,-1v-3l1,-2l1,-1l-1,-1v-1l-1,-1h1v-1l-1,-2l-1,-1v3l-1,1v3l-1,1v1h-1v1h-1l-1,1v1h-1l-1,5v2l1,1h-2l-2,-1l-1,-1h-1v-1l1,1h1l-1,-2l-1,-1v-1l-1,-1h-1l-2,-2l-1,-2l-2,-2h-2l-1,-1l-1,-2v-1l-2,-1l-2,-2h-2l-1,1l-4,-2l-2,1h-1l-3,-2l-3,-1h-1l-2,2h-4l-3,1l-2,1h-2l-7,7h-2l-1,1h-4l-1,1l-1,2l-1,1h-1l-1,3l-1,1h-1l-1,1v7l-2,2l-1,-1h-1v1l-3,1l-1,-1h-1l-1,1h-2l-4,2h-1l-2,1v4l-1,1h-1l-2,5v1h-1l-1,1h-4l-1,1l-2,-1h-1l-3,-2h-1l-1,-1h-1v1l-1,-1v-1l-2,-2l-1,-3l1,1h1l1,-1l-1,-2v-1l-2,-4v-1l-1,-1l-2,-5v-1l-6,-6l-3,-5l-1,-1l-1,-3v-1l-1,-1l-1,-2l-4,-4l-1,-2l-2,-1v-1l-2,-4l-4,-5l-4,-4h-1h1v-1h1l1,2v1h1v-2l-4,-4v-1h1l1,1v2h1v1v-2l1,2l1,1l1,-1l-1,-1v-2l-3,-3l-2,-3l-1,-1l-1,-2l-2,-2v-1l-1,-1v-8l-1,-1v-2l-2,-2v-8l1,1v2l1,1v1h1v-6l2,-2l1,-2v-1l1,-1v-2h1l2,-4v-1h4l2,-2l1,-2l1,-1l2,-1l1,-3h3l1,-1l2,-1l1,-1l2,-3h1l1,-2v-1l1,-2v-6l1,-1l1,-2v-2l-1,-2l-1,-1v-5l2,-2v-3l1,-1l1,2l1,1l2,4h1v1v-4h1v1v-3h-1v-1h-1l-1,-1v-1h1v-1l-1,-1h1l1,1h1v-1h1l1,1l1,-1h1h-2v-2h1v-3l-1,2v-1l-1,-1v-2l1,-1v1v-1l1,-1h-1v-1h1l2,2v-2h-1l-1,-1h1v-1h2v-1h-1v-4h1l1,-1v-1v2l1,-1l1,1v-1h1l-1,-1v-2h1v-1h-1v-1h1v1l1,1v-2l1,1l2,-2l-1,-1l1,-1h1v1h2l1,1h1l1,1v1l1,1l3,2v4h1v1v-1l-1,-1v-1h1v-2h5v1l1,1v-2h1l1,1h1v-1h-1v-1h2l-1,-1h-1v-1l-2,-2v-1l1,-2l1,-1v-3l2,-2v-1l-1,-1v-2l1,-1l1,-2h1v-2h1l1,1v-2h1l-1,-1v-1h2v-1l1,1h5v-1h2v-1h2l-1,-1v-3l-1,-2h-2l-1,1l-1,-1h-1v-1l1,-1l1,1h1v-1l2,1l1,1l1,-1h1l1,2h2l1,1h5l1,1h2l1,-1h1v1h3l1,-1h1l2,-2v-1v2l-1,1v1h1v-1h1l1,1v1h1l1,-1l-1,-1v-1l1,-1h1l2,2h1v1l-2,4v4h-1v-1h-1v1l-2,1v3l1,1v3l-1,1v1l-1,2l-1,1v2l1,1l4,2l3,3h2v1h3l1,1h1l2,1h1l3,3l2,1h3l1,1h1l1,1h1v1l1,1h1l2,2h2l1,1h1l2,-1l1,-1l2,-4l1,-5l1,-1v-8l1,-5l-2,-5l1,-1v-2l-1,-1l-1,-2l1,-2v-5l1,-1v-1h1v-1h-1v-1h-1v-1l1,-3v-1v1h1v-10l2,-1l1,-1h1l-1,1l2,1v1l1,1v3l1,2l1,1Z"/>
<path class="sl" d="M384,601l-1,-1v-1l1,-1v-2l1,-1v-1l-1,-1l1,-1v2h1l-1,5ZM272,532l-1,1v1h-2v-1l2,-2h1l1,1ZM248,511l1,1v-1h1l-1,1v2l1,1v-1v1h-1l-1,1l-1,-1h-1v-3h1v-1l1,-1ZM202,501h1v1h-4v-1h1v-3h1v1l1,1ZM203,498h1l2,-2h1v-1v1h1l1,1v2h-1v1l-2,2l-3,-1l-2,-2v-3l1,1ZM133,648l-2,-2l-1,-2h1l1,2l1,1ZM295,695h3v1h-2v1l-1,1l-1,-1h-1v1h-2l-2,-1v-1l3,-1l1,-1h2ZM350,710h-1v-1h1ZM349,711h1h-2ZM348,557h-1v-2l1,1ZM347,555v1ZM367,583h1v1h1v1h-1ZM361,573v-1l1,1ZM357,572v1l-1,-1v-1ZM390,615l-1,3v-3ZM389,614h-1v-2h1l-1,1ZM287,479h-1v-1ZM287,474v1h-1v-1ZM286,474h-1l1,-1ZM325,541v2h-1v-1l-1,-1h1ZM245,491h-1l1,-1v-1h1v-2v2ZM243,493l-1,1l2,-2v-1v2ZM253,528v1l-1,-1v-1h1ZM251,527v-1ZM272,537v-1h1v1ZM245,512h-1v-1h1ZM216,495l-1,-1l1,-1l-1,-1h1v1ZM171,533v-1ZM169,541l-1,-1h1ZM129,600v1h-1l1,-1v-1ZM353,729l1,-1l1,1h1l1,1h1l2,1h3v-1h1v1v-1l1,-1h3v-1h2l1,-1h1l1,1v2h1v3l1,2v2h1v1h-1v-1h-1h1v-1h-1v7l1,1v2h-1v-1l-1,-1h1v-1h-2v1l-1,-1v3h-1v3h-5l-1,-1h1v-1h-2l-2,-2h-1l-2,-3v-1l-1,-1h1l1,1v1v-2h-1v-1h-1v-1l-2,-1l-1,-2l-2,-1v-1l-1,-1v-3l-1,-1h1ZM344,724v-1h-1v-3h1l1,2v2ZM369,719l1,1h1v2h1h-1v1h-1v-1l-2,-2v-1ZM372,747v1h-1v-1l1,-1ZM375,742v-1h1h-1ZM372,746h-1v-1h1ZM350,727v-1ZM372,723h1v1l-1,1v-1h-1ZM372,725h-1ZM454,824v-2h1v1ZM65,531h-1h1v-1ZM38,562v1v-1h-1ZM201,893h-1v-1ZM159,517h-1ZM677,960h1ZM656,975h-1l-1,1l1,-1l-1,1h-3v1h-3v1h-3l-1,1h-1h1h-2l-1,1h-2l-1,1h-4l-1,1h-2l-1,1h-1h1h-3l-1,1h-3l-1,1h-4v1l1,-1h-1l-1,1h-4l-1,1h-4l-1,1l1,-1h1h-2l-1,1h-1h1h-8v-1h1v-1h-1h1l1,-1h1l3,-1v-1h1h-2l-1,1h-4l-1,1h-1l-1,1h-4l1,-1h1l4,-2h1l1,-1l-1,1l-3,1h-3v1h-3l1,-1h1l2,-1h2l1,-1h1h-3l-2,1h-1l-2,1h-3v1l-2,1h-5l1,-1h-1l-1,1h-1h1h-3v1h-6v1h1h-3l-1,1h-2l-4,1h-3v1h-1v-1h1h-1h1h-5l-1,1l-1,-1h-8v1h2l1,1l-1,1h-2l-1,1h-3v-1h-2v1h-1h1v1h1h-1v1h-5l-1,1h-5l-7,1h13l2,-1h8v1h-5v1h-14l-1,1h-43l-1,-1h-15l-1,-1h-10l-1,-1h-9l-1,-1h-6l-1,-1h-6l-1,-1h-6l-1,-1h-5l-1,-1h-4l-1,-1h-4l-1,-1h-4l-1,-1h-4l-1,-1h-4l-1,-1h-3l-1,-1h-3l-1,-1h-3l-1,-1h-3l-1,-1h-1h1h-3v-1h-3l-1,-1h-1l-2,-1h-3l-1,-1h-3l-1,-1h-1l-1,-1h-2l-2,-1h-1l-1,-1h-2l-1,-1h-2l-1,-1h-2l-1,-1h-2v-1h-1h1v1h1h-1v-1l1,1h1h-1l-1,-1h-2l-2,-1h-1h1h-1l-1,-1h-1h1h-1v-1h-3l-1,-1h-2l-1,-1l-3,-1h-1l-1,-1h-1l-1,-1l-2,-1h4v1h-1h3l3,2v-1h-2l-1,-1h-1v-1l2,1l-1,-1h-1v-1l-1,-1h1h-1l-1,-1v-2h-1v-1l-1,-1h1l1,1h3v1h1l2,1h1l1,1h2l1,1h2l1,1h1l1,1h-1h1l1,1h2v-1l2,1h1l3,1l1,1h1l1,1h1l2,1h2l3,1l1,1h1l3,1h2v1v-1h1h-1l-1,-1h-3l-1,-1h-1l-1,-1h-1l-1,-1h-2l-1,-1h-1l-1,-1h-1l-2,-1h-1l-2,-1h-1l-1,-1h-1l-1,-1h-1l-1,-1h-2l-2,-1l-1,-1h1v-1h-1l-1,-1h-1l-2,-2h-1l-1,-1h-1l-2,-2h-2l-2,-2l-2,-1v-1l-1,-2h-1v-1l-3,-3h1l-1,-1v-1l-1,-2l1,-1v-3h1v-1h2v-1h-1v-1h2l1,-1v-1l1,1v-2h1l1,1v-3l-1,-2h-1l1,-1v-1h10l2,-1h1l1,1h1v-1l1,1h3v-2l-3,-3v-1l1,-1h1v-1h4l3,2h3l2,1l1,1l-2,2h1l1,1v-1h1v-1l1,-1h1v-1h3v-1h3v-1l1,-1h1l-2,2v1h1l2,-1l2,-2v-1l1,-1h1l1,-1v-1h1l1,1l1,-1v-2h3l2,1l3,1l1,1l1,-1h3l-1,-2v-3h1l1,-1h3l2,-1h4l1,1h1v-1h1v-1h3l2,1v-1h4l1,1h1l3,-1l1,1h12l1,-1l1,1h3v4h1l2,-1l1,-1h2l1,1l2,1h1v1l1,1h6l1,-1h6v1l1,1h1v-1h4l1,1l1,-1v-2h1l2,1l1,1h1v1h3l2,1h6l3,1h1l3,3h1l1,1l1,2l1,1h2l-1,-2v-1h1l2,1h10l2,1h2v1l1,1h1l3,1l1,1v-1h1v1h1v1l-1,1v-1h-1v1l-1,2l1,-1v1h-3l-1,-1h-1l2,2h2v1h-1l-1,1h-5l-1,-1h-1l1,1h1l1,1h-1v1h-3v1h-2v-2h-1v1l1,1v1h-1l2,2h-5l-1,1v2h-2l-2,1h3l2,2v1h-1h1l1,1l-1,1h1v1h-1l1,1h1v1h1v1l1,1h1v1h-1l1,1l1,-1h1v1h2l1,1h-7l-1,1l-1,-1h-1l1,1v1l-1,-1l-1,1v2h-1h1v1h1h-1l-1,1h-1v1h4v1h-1h1v2h1l1,1h2v1h1v1h-3v1h3v-1h2l1,1h1v1h2v1h1v1h3v1h2l2,1h1l2,1h2l3,1h2v1h3l2,2l1,-1h1h-1l-2,-2h-1h1v-1h2v-1h-3v-1l-1,-1l-2,-1v-1l1,1h2l1,1h3l1,1h-1h2v1h6v-1h5l1,-1h1l2,-2h2v-1l-1,-1h-1h7l5,1v-1l1,-1h-1v-1h6l1,-1h-1l-1,-1v-2h1h-2l-1,-1h-1v-2h5v-1h-4v-2l1,-1h1l1,-1h6v1h1v1h2v1h1v1h4v-1h2v1h1v1h1v-1h2v-1h1l1,-1v-1h-1l-2,-1h-1h2l1,-1h2v2h2v-1l2,-1l1,1h1l1,-1h5v1h-1l1,1l1,-1h2l2,-1l1,1h3v1h1l1,-1h4v1h2l1,1h1v1h2l2,1h1l1,1h1v1l4,2h3v1h1v1h1l1,-1h3v-1v1l-1,1h-2v1h-4l-1,1h2v1h1v-1h2l1,-1h1v1h-1l-1,1h-4l-1,1h-1l1,1v1h-1v1h2v1h1h-1v1l-2,1l1,1h-1h2l1,-1h1v-1h3l1,-1h-1h2l2,-1h1v-1h1l1,-1h1v1h-1v1h2l2,-2h-1h1l-1,-1h2l2,-1h1v-1l1,1h-2l-1,1v3h-1l-1,1h-1v1l-1,1h1l-2,1v1h1l1,-1h1h-1h1v1l1,-1v1h-2l-2,1h-1v1h-1l-1,1h-1l-1,1h-2l-1,1h-1l-1,1h2l1,-1h1l-2,1h1l1,-1h1v1h-2l-2,1h-2l-1,1h-2l-1,1h-1v1h-1v1h-1l-1,1h4l1,-1h3l2,-1h2l1,-1h4l1,-1h2l2,-1h2l1,-1l-1,1h-1h2l1,-1h1h-1h2l1,-1h3l1,-1h2v-1h3l1,-1l-1,1h-2l-1,1l1,-1h2l1,-1l-1,1l1,-1l-1,1h-2l-1,1Z"/>
<path class="sp" d="M514,1000h-36l-1,-1h-15l-1,-1h-10l-1,-1h-9l-1,-1h-6l-1,-1h-6l-1,-1h-6l-1,-1h-5l-1,-1h-4l-1,-1h-4l-1,-1h-4l-1,-1h-4l-1,-1h-4l-1,-1h-3l-1,-1h-3l-1,-1M380,985h-3l-1,-1h-3l-1,-1h-1M661,973l-1,1h-2l-1,1h-1"/>
<path class="sl" d="M553,995h-2v1h-5v-1h-1h1h-2l9,-2h2l1,1h6l-1,1h-6l-1,1h-2l2,-1ZM562,991h-1h1v-1h5l1,-1h1h-1v1l-4,1h1h-2ZM651,976h-1l-1,1h-3l-2,1h-1l-3,1h-1l-1,1h-3l-2,1h-3v1h-3l1,-1h1l1,-1h2l-1,1h-1h1v-1h4l1,-1h1h-1h1v-1l-1,1h-1h1v-1h3v-1h2l-1,1l1,-1v1h-1h1h-2v1l1,-1h1l-2,1h1h-1l-2,1v-1h3l1,-1h1v1l1,-1h1l1,-1h2l1,-1h3l1,-1h3v-1v1h-2l-1,1ZM655,963h-2h1l-1,1h-1h2l1,-1v1h-3v1h1h-2l-1,1v-1l-1,1v-1h1h-1l1,-1v-1h2v-1l2,-2h1l1,1l-1,1h-1h2ZM633,954h-2l-2,1h-3v-1h1l1,-1h2v-1h2v1h1ZM631,949v1h-1l-1,1l-1,-1v1h1v1h-1v1h-3v-1h1v-1h1v-1h1h-1l1,-1h1v-1h2ZM548,958h-2v-1h-1l-1,-1h-1v-1l1,-1h2l1,-1h1v1h1v4ZM498,945h5v1h-5v1l-1,-1v-2h1ZM529,997h-1l-1,1l-1,-1h4ZM535,997h1ZM576,988h2v-1h4v1h1v1h-2l-1,-1h-3ZM659,974h-1h1h-1h1l1,-1h3l1,-1l-1,1h-2l-1,1ZM646,976l-1,1h-1l1,-1h1v-1h2l-1,1h1v-1v1h-1ZM654,974h-1l-1,1h-1l1,-1h3ZM629,980h-3v1h-1l4,-1v-1h3l-2,1ZM642,970h2v-1h2l-1,1h-2ZM499,948h-1v1h-1v-1h2v-1ZM310,921h-2v-1h2ZM570,989h2l-1,1h-1ZM575,989h1ZM633,982h1l1,-1h1h-1l-1,1ZM650,976h1l1,-1h1h-1ZM648,967v-1h1v1ZM645,962h-1l1,-1h1ZM631,955h-1h1l2,-1v1h-1ZM620,952l1,-1h1l-1,1ZM530,968l-1,-1h1ZM538,963l-2,-1h-1h3ZM491,934h-1h1v-1ZM489,938h-1ZM505,929h-1v-1h1ZM490,899l-1,1v-2ZM484,896l-1,-1h1ZM481,894h-1v-1ZM308,926h1v1h-1ZM313,924v-1ZM314,926h-1ZM312,918h-1v-1h-1h1v1ZM302,929h-1v-1h1ZM306,939h-1l-1,-1h2ZM305,937v1l-1,-1ZM303,938h-1ZM346,966h1ZM350,967h-1ZM335,961h-1l-1,-1h-1h2v1ZM328,969h1ZM531,997h1ZM629,983h1ZM636,981h1ZM624,984h1ZM622,985h1v-1v1ZM664,972h1ZM661,973h1ZM656,975h1ZM646,977h-1ZM626,981l1,-1h1v1h-1ZM645,968h1ZM632,957h-1h1v-1h3l-1,1h-1ZM616,949h-1ZM616,950v-1h1v1h1h-1ZM590,948l-1,-1h1ZM580,952v-1h1v1ZM577,951h-1h2ZM578,950h1v1l-1,-1v1v-1h-1ZM575,952h-1ZM576,950h-1l1,-1l1,1ZM585,949h-1v-1h1ZM582,951h-1v-1h1ZM573,952l-1,-1h1ZM553,960v-1h-1l1,-1v1h1ZM576,951h-2v-1h2ZM538,965h1v-1v1ZM597,450h-1Z"/>
<path class="sh" d="M500,625v1Z"/>
<path class="sw" d="M260,63l-1,1h-1v1h-1l-1,1h-1v1h-2v1h-1l-1,1h-1v1h-1l-1,1h-1v1h-1l-1,1h-1h1v-1v1h-1l-2,2h-2v1h-1l-1,1h-1l-1,1l-2,1h-1v1h-2v1h-1v1h-1l-1,1h-1l-2,2h-2v1h-2v1v-1h1l1,-1h1v-1h2v-1h1l1,-1h1l1,-1l2,-1l1,-1h1v-1h2v-1h1h-1h1l2,-1v-1l2,-1h1l1,-1l2,-1l1,-1h1l1,-1h1l2,-2h1l1,-1h1l2,-2h1l1,-1h1l1,-1h1ZM241,75v-1l-2,2h-1l-1,1l1,-1h1l1,-1ZM655,32h-1v1v-1h-2h2ZM657,36v1v-1h-3l-1,-1l2,1h1ZM870,165v1v-1h-1v-1h-1h1ZM906,210h1v1v-1l-2,-2v-1v1l1,1ZM182,167v1h-1l-1,1h-1h1h-1l1,-1h-1l-1,1h1v-1h1v-1h1v1h-1h1l1,-1h-1l1,-1h1v-1l1,-1v2l-1,1h-1h1ZM212,91v1h-1v1h-1l-2,1v1h-1v1h-1h1v-1l3,-2h1v-1h1l1,-1ZM297,85l-1,1l-2,1h-1v1h-1v-1l1,-1v-1h1l1,-1h2ZM63,341v-1h-1v-1l-1,-1v-1l1,-1h1v4h1v1h-1h1ZM131,171v1h-1v1h-2l1,-1v-1h1v-1h1ZM244,85h-1l2,-2h1l1,-1l2,-1h1h-1v1h-1l-2,1l-1,1ZM185,177l-2,2h-1v-2l2,-2h1v1h-1v1h1h-1v1ZM655,36v1h-1v-1ZM607,14h-1ZM79,231l2,-2v-1h1v-1v1h-1v1h-1v1ZM477,3h-1ZM159,196h-1v2h-1l-1,-1v-1l2,-2v-1h1v-1v1l-1,1v1h-1h1h-1v1h1l1,-1h1h-1ZM161,190v1h-1v-1ZM160,191l-1,1v-1h1v-1ZM152,192h1v-1h1l-1,1v1v-1l-1,1ZM83,224v1l-1,1v-1v1v-1h1v-1h1ZM555,707h-1l-1,1v-2h2ZM605,11h-3l-1,-1h1v1h1ZM897,196v-1h-1l-1,-1v-1v1v-1h-1h1h-1v-1l-1,-1v-1v1l2,2v1v-1h-1h1v1l1,1ZM451,3h-1ZM112,185h-1v1Z"/>
<path class="sr" d="M111,186l1,-1"/>
<path class="sw" d="M70,296l-1,1v-2h1ZM185,168l-1,1h-1h1v-1h1v-1l1,-1h-1v1h-1l1,-1h1l-1,1h1h-1ZM618,25h-2l1,-1v1ZM161,190v-1h1v1ZM241,88l1,-1h1h-1v1ZM517,744l-1,1v1v-2ZM435,4h-1v1h-1h1v-1ZM74,241h-1v1l-1,1l1,-1v1v-2h1v-1v1h-1h1v-1ZM473,3h-1ZM476,3h1ZM177,178v-1h1ZM147,195v1l-1,1v-1h1ZM173,178l-1,1h-1v-1h1h-1h1ZM853,147l1,1l-2,-2ZM866,161v-1h-1l-1,-1l1,1h1ZM155,191h-1v1v-1ZM155,189v-1h1v1ZM182,160h-1v-1h1ZM154,191v-1v1v-1h1h-1ZM151,193v1h-1ZM150,195v-1v1h-1h1v-1ZM880,178h1ZM104,195h1ZM849,142h-1v-1v1ZM594,14h-1v-1v1ZM614,23h1ZM620,24h-1ZM640,31v-1h-1h1ZM639,29h-2l-1,-1h1l1,1ZM635,28h1ZM639,30h1h-2v-1h-1h2ZM719,51l-1,-1h-1l-1,-1h-1l-1,-1h-1l-2,-1l2,1h1l1,1h1l1,1h1ZM819,115h-1v-1h-1l-1,-1v-1h-1l2,2h1ZM666,31l-1,-1h-1h1ZM198,541v3h-1v2h-1v-5h1ZM114,188v1h-1h1v-1h1v-1v1ZM114,188l-1,1v1v-2ZM897,196v-1h-1l-1,-1v-1v1v-1h-1h1h-1v-1l-1,-1v-1v1l2,2v1v-1h-1h1v1l1,1ZM34,434v1h-1v-1h1l-1,-1v-1v1l-1,-1h1l1,1ZM514,747v-1ZM513,748h-1v-1l1,-1l-1,1v1ZM719,51l-1,-1h-1l-1,-1h-1l-1,-1h-1l-2,-1l2,1h1l1,1h1l1,1h1ZM233,78h-1v1v-1v1h-1l-1,1l2,-1v-1h1l1,-1h1l3,-3h1l1,-1h1l1,-1h1l2,-2h1v-1h1h-1l-1,1h-1v1h-1l-1,1l1,-1l-1,1h-1v1h-1l-1,1v-1h2v-1h1h-1l-1,1h1v-1h1l1,-1h1v-1h2v-1v1h-1l1,-1h1l1,-1l-1,1h-1v1h-1l-1,1h-1l-2,2h-1l-1,1h-1l-2,2h-1l-1,1ZM903,204h-1h1v1l1,1v-1h-1ZM855,151h1ZM846,141l1,1ZM848,142v-1v1h1ZM308,39v-1h1h-1h2v-1h1h-1v1v-1h1h-1v1v-1h1h-1v1h-1h1l1,-1h1l1,-1l-1,1h-1h1l1,-1v1h-1h1v-1h1h-1v1h-2l-1,1v-1v1v-1h1l-1,1h-2l-1,1h-1v1h-2l-1,1h-1l-1,1h-1h1v-1h2v-1h2l1,-1h1h-1h1ZM360,45l-1,1v-1ZM524,9h1v1h-1l-1,-1ZM285,133v-1h1v1l-1,1l-2,1l1,-1v-1ZM695,40h1v1h1l-2,-1h-1ZM655,34v1h1h-1l-1,-1h-1h1ZM618,24l-1,-1h1ZM651,31l1,-1l1,1h-1ZM662,33h3v1v-1h-2ZM620,24h1ZM613,22h-1ZM610,19v1l-1,-1ZM93,210v1h-1v1v-1h1v-1l1,-1ZM92,212v-1v1h-1v1ZM87,219h1v-1v1ZM81,227l1,-1ZM175,613l-1,-1v-2h1l1,1v2ZM207,597h-1l-1,-1v-1h1l2,-2v-1l1,-1h1l-1,1v1l1,1h1l-1,1v1l-1,1ZM276,669l-1,-1l1,-2v-1h-1l-2,-2h-1v-1h-1v-1h-1v-2l1,1h3l1,1v1l1,1l2,4v1h-2ZM287,662v1l-1,1l-1,-1h1v-1l-1,-3h-1l-1,-1v-1h1l-1,-2v-1h-2v-2h-1v-1h-1v-1h1l1,1v1h2l3,3v2l2,2ZM176,666h-1v-1l-1,-1v-1v3l-1,-2l-1,1l-1,-2h1v-1h2v-1l1,-1v1h-1v2l1,1v1h1Z"/>
<path class="sw" d="M299,654v1h-1v1v-1h-1l-1,-1h-1l1,-1v-2l1,-2h1v1l1,3ZM280,643h-1v1h-2v-2h1l1,-1h1v1ZM281,641l-1,-1h-2l-1,1v-1h-1v1h-1v-1l-1,-1v-1l-1,-2h1v-1l-1,-1v-1h-1v-1l1,-1l2,1l1,1h2v1h1v3l1,2l1,1h1Z"/>
<path class="sb" d="M922,231l-3,-3l-2,-4l-2,-2l-2,-4l-3,-3v-1h-1l-1,-1h-1v-1M813,110l-1,-1h-1l-1,-1v-1h-1l-1,-1h-1M648,22l4,2h2l1,1h2l4,2h2l1,1l2,1h2l4,2l1,1h2l4,2l1,1h2l4,2l1,1l6,3h2l1,1h2l1,1h1l1,1h1l1,1h2l1,1h1l1,1h1l1,1h1h-1h1l-1,-1h-1h2l1,1h1l1,1h1l1,1h1v1h2l1,1h1l1,1h1l1,1h1l1,1l2,1h1l2,2h1l1,1h2v1h2v1h1l1,1h1l1,1h1l1,1h1l1,1h1v1h2M79,317l1,-1v-2l1,-1v-2h-1v-2l1,-1v-1h1h-1v-1h-1v-1h-1h1l-1,-1l1,-1v-3l-1,-1v-1l-1,-1v-1h1v-2h-1v-2l1,-1h-2v-1l-1,-1v-2h1v-2h2l1,-2l1,-1v-2h1h-1v-1h-1l2,-2v-1h-1v-1v1h-1l-1,1v1h-2v-3h1v-2h1v-2l-1,1v1v-5M69,324v2h1v-1l1,1h1v-3h1v-1h1v-1h1v-1v1h1v1v-1h1v-1h1v-1h1v-1v1l-1,1v1l-1,1v7l-1,2v3l-1,1v2h-1l-2,2v1l-1,1h-1v2h-1v1h-1v1h-1v4h1l-1,1v1h-1v-1l-1,1h-1v1h-1v2h-1v2h-2v2M73,276l-2,2v1h-1v1l-1,1v2h-1v1h-1v1l-1,2v1M40,371v-2l1,-1v-3l1,-1l2,-4v-2l1,-1v-5l1,-1v-6l1,-2v-12l1,-1v-1h1v-1l1,-2v-2l1,-2h1v-2l-1,2v-3h1v-8l1,-1v-4h1v-1l1,-2v-1l1,-1v-1l1,-1v-2h1v-1h1v-1l1,-1h1v-1l1,-1v-1h1v-1h1v-2h1v-1h1v1v-1h1v1l-1,1v1l-1,1v2h1v-2h1v1l-1,1v3l-1,1v2h-1v2l-1,1v1l-2,4v1l1,-1v-1l2,-2v-1h1v-1l1,-1v-1h1v1h1l-1,1h1v-1l2,-2v-1h1v-2h2v2l1,1v3l-1,2v1l-1,2v2l1,1h-1l1,1v2h1v1l-1,1v1h-1v4l-1,1v1l-1,1v1h-1v2h-1v-1h-1l-2,2h-2v1h-1l-2,2v2l-1,1v1l-1,1v1h-1v6l-1,1l1,1v1l-1,1v4M97,264v-1l-1,1h-1v1v-1h-1v-1h-1l1,-1v-3h1v-1l1,-1v-1l-1,1h-3v-1l-1,1h-1v1l-1,1v1h-1v1l-1,1v-1h-1v2h-1v1v-1h-1v1h-1v-1v1l-1,1v1h-1v-1h-1v1l-3,3v-1v1l-1,1v1l-1,1v3h-1v3h-1l-1,1v-2l1,-1v-1l-1,1l-1,2h-1l-1,1v-1l1,-1h-1h1v-2h-1v1h-1v-1l2,-2v-2l2,-2v-1h-1v-2h1v-3h1l1,-1v-1l-1,1h-1v1h-1l-1,1v1h-1h1v-2h1v-2l1,-1v-1l1,-1v-1h1v-1l1,-1v-1h1v-1l2,-2v-1l1,-1v-1h1v-1l1,-1v-1l1,-1v-1l1,-1l1,-2v-1l1,-1v-1h-1h1v-2l1,-1v-1h-1v1l-1,1M236,119l1,-1l2,-1l1,-1h1l1,-1h2l2,-2h1l1,-1h1v-1h1l3,-3h1v-1h2v1h-1h5v-1h1v-2h1v-1h4v-1h2v-1h1v-1h3v-1l2,-2h2l-1,1h1M239,129l3,-3h1l1,-1h4l1,-1h1v-1h1v-1M248,80h-1l-2,2l-2,1l-2,2h-1l-3,3h-1l-1,1v1h-1h1l1,-1h2v-1h2v1l2,-2h1l1,-1h2v4h-1l-1,1h-3l-1,1h-2l-1,1h-1v1h-1v-1v1h-1v1h-3v1h-1l-1,1h-1l-1,1v1h-1l-1,1h-1l-1,1h-1v1h-2l-1,1h-1l-2,2h-1l-1,1h-1l-1,1h-1v1h-2v-1h-1v1h-1l-1,1h-1l-3,3v1h-1v2h-2v1l-1,1h-1l-1,1h-1l-2,2h-1l-1,1v1h-1l-2,2h-2l-1,1h-1l-1,1h-1v1h-1l-1,1l-2,1h-2v1h-1l-3,3l-2,1l-1,1h-1l-1,1h-1l1,-1l-1,1h-1l-1,1h-2v-1h-1v1h-2l-2,2h-1l-1,1h-1v1l-1,1h-1v1v-1l1,-1v-1h1l1,-2l1,-1h1v-1h1v-1v1v-1h1v-1v1"/>
<path class="sb" d="M276,100v-1h1h-1v-1h3v-1h1l1,-1h1v-1h1v-2h1l2,-4v-1h1v-1h3v-1h1v-1h7v-1h1v-1h1l1,-1h1v-1h1v-1h2v-1h1v-1h1v-1h1l4,-4h2v-1h1l1,-1v-1h1v-1h-2l-2,1h-1l-1,1h-2l-1,1h-2l-1,1h-2l-2,1h-3v1v-2l1,-1v-1h1v-1h-2v-1h-1h1h-3v-1l-1,1h-3v-1h1l1,-1h-1l2,-2v-2h1v-1h1v-1l1,-1v-1l1,-1h-1h1v-1l-1,1v-1h-1l-1,1h-2v-1h-1v1h-3l-1,1h-2l-1,1h-2l-2,1l-1,1l-2,1h-2v1h-1h1v1h-1v1h-1l-2,1l-1,1h-1l-2,1l-2,2h-1l-1,1h-1v1h-1l-1,1h-1h1l-2,2h-2v1l-6,3h-3v-1h-1l-1,1h-1v1h-1v-1h-2l-1,1h-1v1h-1l-1,1h-1l-1,1h-1v1h-1l-1,1h-1l-1,1h-2v1h-2l-2,1v1h-3l-1,1h-1v-1v1v-1h1v-1l-1,1v-1h-1v1h-2l-1,1h-1v1h-2v1h-2v1h-1h1v-1h1v-1h1v-1h1l1,-1h-1l-1,1v-1v1h-1v1h-1l-1,1h-1v1h-1l-2,2h-1l-2,2h-1v1h-1l-3,3h-1v1h-1l-1,1h-1h1h-1h1h-1v1v-1M63,257v1v-1l1,-1v-1v1v-1h1v-1M64,257v-1l1,-1v-1l1,-1v-1l2,-2v-1h1v-2h1l-1,1h1v-1h1l-1,1M58,267h-1v1l1,-1h-1h1v-1v1v-1h1v-1l1,-1v-2h1v-1l1,-1l2,-4v-1h1v-1l1,-1v-1h1h-1v2l-2,2v1l-1,1v1h-1v1l1,-1v1v-1h1v-2h1v-1h1v-1h1v-1h1v-2h1v-2h1h-1v-1h1v-1h1v-1h1v-1l1,-1v-1h1v-1l2,-2v-2h1l1,-1v-1h1v-1l1,-1v-1l1,-1h1v-1h1l3,-3v-1v1l-1,1v1h-1v1l1,-1v-1v2l-2,2v1l1,-1v2h-1v1l-2,2v1l-1,1v2h-1v-1l-2,2v1h-1v1l-2,2v1l-2,2v1l-1,1v2h-1l-1,1v2l-2,2v1h-1v2l-1,2l-1,1v1h-1v2l-2,2v1h-1v1v-1v1l-1,1v1l-1,1l-1,2v2h-1v1l-1,1v2h-1v2h-1v1l-1,2v-1v1l-1,1M45,296l1,-1v-1l1,-1v-2l1,-1v-1l1,-2v-1l1,-1v-1l1,-1v-1l1,-1v-3h1l1,-2v-1l1,-2h1v-2h1v-1l-1,1l1,-1v-2h1v-2h1v-1h1v-1v1v-2h1h-1v1h1v-1v1l-1,1v1l-1,2l-1,1v1v-1h1v-1h1l1,-1v1h-1v2l-2,2v2h-1v1h-1v1l-1,1v2l-1,1l-1,2v1v-1v1l1,-1v-1l1,-2v-1h1v1l-1,1l-1,2v2h-1v2l-1,3l-1,1l-1,2v1l-1,1v1v-1v1l-1,1v2l-1,1"/>
<circle class="w4" cx="500" cy="625" r="21"/>
<circle class="w4" cx="500" cy="625" r="19"/>
<circle class="c4" cx="500" cy="625" r="20"/>
<path class="sg" d="M 276.2855 946.3507 A 249.7500 62.6142, 0, 1 1, 722.7145 946.3507"/>
<path class="sg" d="M 71.7832 757.4895 A 432.5797 108.4509, 0, 1 1, 927.2168 757.4895"/>
<path class="sg" d="M 0.0000 499.5000 A 499.5000 125.2283, 0, 1 1, 999.0000 499.5000"/>
<path class="sg" d="M 71.7832 241.5105 A 432.5797 108.4509, 0, 0 1, 927.2168 241.5105"/>
<path class="sg" d="M 276.2855 52.6493 A 249.7500 62.6142, 0, 0 1, 722.7145 52.6493"/>
<path class="sg" d="M 526.1845 0.7133 A 100.9129 499.5000, -176.93766080, 0 1, 472.8155 998.2867"/>
<path class="sg" d="M 609.6567 12.2980 A 323.8433 499.5000, -167.25959982, 0 1, 389.3433 986.7020"/>
<path class="sg" d="M 805.1586 104.4392 A 460.0001 499.5000, -142.27087520, 0 1, 193.8414 894.5608"/>
<path class="sg" d="M 119.1287 175.7440 A 472.9003 499.5000, -229.59697516, 0 0, 879.8713 823.2560"/>
<path class="sg" d="M 365.7163 18.2494 A 359.0872 499.5000, -195.53549543, 0 0, 633.2837 980.7506"/>
<path class="sg" d="M 459.0547 1.6402 A 149.0570 499.5000, -184.64441946, 0 0, 539.9453 997.3598"/>
<text x="0" y="0" class="fs" transform="translate(823,285) rotate(81)">150W</text>
<text x="0" y="0" class="ft" transform="translate(823,285) rotate(81)">150W</text>
<text x="0" y="0" class="fs" transform="translate(958,337) rotate(77)">120W</text>
<text x="0" y="0" class="ft" transform="translate(958,337) rotate(77)">120W</text>
<text x="0" y="0" class="fs" transform="translate(28,349) rotate(103)">90E</text>
<text x="0" y="0" class="ft" transform="translate(28,349) rotate(103)">90E</text>
<text x="0" y="0" class="fs" transform="translate(141,293) rotate(99)">120E</text>
<text x="0" y="0" class="ft" transform="translate(141,293) rotate(99)">120E</text>
<text x="0" y="0" class="fs" transform="translate(351,259) rotate(94)">150E</text>
<text x="0" y="0" class="ft" transform="translate(351,259) rotate(94)">150E</text>
<text x="0" y="0" class="fs" transform="translate(600,256) rotate(87)">180E</text>
<text x="0" y="0" class="ft" transform="translate(600,256) rotate(87)">180E</text>
<text x="0" y="0" class="fs" transform="translate(552,854) rotate(2)">60S</text>
<text x="0" y="0" class="ft" transform="translate(552,854) rotate(2)">60S</text>
<text x="0" y="0" class="fs" transform="translate(590,631) rotate(3)">30S</text>
<text x="0" y="0" class="ft" transform="translate(590,631) rotate(3)">30S</text>
<text x="0" y="0" class="fs" transform="translate(604,373) rotate(4)">0N</text>
<text x="0" y="0" class="ft" transform="translate(604,373) rotate(4)">0N</text>
<text x="0" y="0" class="fs" transform="translate(589,149) rotate(3)">30N</text>
<text x="0" y="0" class="ft" transform="translate(589,149) rotate(3)">30N</text>
<path class="tb" d="M127,998h-2l-1,-1h-2l-1,-1h-2l-1,-1h-2v-1h-3v-1h-2l-1,-1h-2v-1h-2l-1,-1h-2v-1h-2v-1h-2l-1,-1h-2v-1h-2v-1h-2v-1h-2v-1h-2v-1h-2v-1h-2v-1h-2v-1h-2v-1h-1l-1,-1h-1v-1h-2v-1h-2v-1h-1v-1h-2v-1h-1l-1,-1h-1v-1h-2v-1h-1v-1h-2v-1h-1v-1h-1l-1,-1h-1v-1h-1v-1h-1l-1,-1h-1v-1h-1v-1h-1v-1h-2v-1h-1v-1h-1v-1h-1v-1h-1l-2,-2h-1v-1h-1v-1h-1v-1h-1v-1h-1v-1h-1v-1h-1v-1h-1v-1h-1v-1h-1v-1h-1v-1h-1v-1h-1v-2h-1v-1h-1v-1h-1v-1h-1v-1l-1,-1v-1h-1v-1h-1v-1l-1,-1v-1h-1v-1l-1,-1v-1h-1v-1l-1,-1v-1h-1v-2h-1v-2h-1v-1l-1,-1v-1l-1,-1v-1l-1,-1v-2h-1v-2h-1v-3h-1v-2h-1v-4h-1v-3h-1v-5h-1v-6l-1,-1v-17h1v-7h1v-4l1,-1v-3h1v-3h1v-3h1v-2l1,-1v-2h1v-2h1v-2h1v-2h1v-2h1v-2h1v-2h1v-1h1v-2h1v-1h1v-2h1v-1h1v-1l1,-1v-1h1v-1h1v-1l1,-1v-1h1v-1h1v-1h1v-1h1v-1h1v-1h1v-2h1v-1h1v-1h1v-1h1v-1h1l3,-3h1v-1h1v-1h1v-1h1v-1h1v-1h1v-1h1l1,-1h1v-1h1v-1h1v-1h1l1,-1h1v-1h1v-1h2v-1h1v-1h1v-1h2v-1h1v-1h2v-1h1v-1h2v-1h1l1,-1h1v-1h2v-1h1l1,-1h1v-1h2v-1h2v-1h2v-1h1l1,-1h1l1,-1h1l1,-1h1l1,-1h1l1,-1h2v-1h2v-1h2v-1h2l1,-1h2v-1h2v-1h2l1,-1h2v-1h3v-1h2l1,-1h2v-1h3v-1h3v-1h159v1h3v1h3v1h2l1,1h2v1h3v1h2l1,1h2v1h2v1h2l1,1h2v1h2v1h2v1h2l1,1h1l1,1h1l1,1h1l1,1h1l1,1h1v1h2v1h2v1h2v1h1l1,1h1v1h2v1h1l1,1h1v1h2v1h1v1h2v1h1v1h2v1h1v1h1v1h2v1h1v1h1l1,1h1v1h1v1h1v1h1l1,1h1v1h1v1h1v1h1v1h1v1h1v1h1l3,3h1v1h1v1h1v1h1v1h1v2h1v1h1v1h1v1h1v1h1v1h1v1l1,1v1h1v1h1v1l1,1v1h1v1h1v2h1v1h1v2h1v1h1v2h1v2h1v2h1v2h1v2h1v2h1v2l1,1v2h1v3h1v3h1v3l1,1v4h1v7h1v17l-1,1v6h-1v5h-1v3h-1v4h-1v2h-1v3h-1v2h-1v2l-1,1v1l-1,1v1l-1,1v1h-1v2h-1v2h-1v1l-1,1v1h-1v1l-1,1v1h-1v1l-1,1v1h-1v1h-1v1l-1,1v1h-1v1h-1v1h-1v1h-1v2h-1v1h-1v1h-1v1h-1v1h-1v1h-1v1h-1v1h-1v1h-1v1h-1v1h-1v1h-1v1h-1l-2,2h-1v1h-1v1h-1v1h-1v1h-2v1h-1v1h-1v1h-1l-1,1h-1v1h-1v1h-1l-1,1h-1v1h-1v1h-2v1h-1v1h-2v1h-1l-1,1h-1v1h-2v1h-1v1h-2v1h-2v1h-1l-1,1h-1v1h-2v1h-2v1h-2v1h-2v1h-2v1h-2v1h-2v1h-2v1h-2l-1,1h-2v1h-2v1h-2l-1,1h-2v1h-2l-1,1h-2v1h-3v1h-2l-1,1h-2l-1,1h-2l-1,1h-2Z"/>
<path class="tl" d="M169,986h1v1h-3l-1,-1h2v-1ZM114,989h-3l-1,-1h2l1,1ZM176,983h1l1,1v1h1l-1,1h-2l-1,1h-1l-1,-1l1,-1v-2h1v-1ZM124,980h2v1h-1ZM122,980l1,1h-1l-1,-1ZM136,977h1h-2ZM156,974v1l1,1h-5v-1l1,-1v-1l-1,-1l1,-1v1h1l1,1ZM158,964v1h-2v2h1l-2,2v1h1l1,1h1l4,4v1l1,1v1h-1v2h-1l-1,1h-1v1h-2l1,1h1v1h-2l1,1h1v1h3l1,1h3l1,1h3l1,1h1l1,1v-1h1v-1h2l2,-1l1,1h1v-1h4v-1h3l1,-1h-1v-1h-4l-1,-1l1,-1h1l2,-2h4l1,-1h1l2,-2h-1v-1h1v-1h2v-1l1,-1h1v1h1v-1h8v-1h3v-1h1l1,1h2v-1h1v1l1,-1h4v1h6v-1h3v-1h2v1h3l1,-1h3v-1h2l1,-1h2l1,-1h4v1h1v1h1l1,1h1l1,-1l1,1h2v1l-2,2h-1v1h1h-1v1h-1v1h2l2,-2h1v-1h3l1,-1h1v-1h2l1,-1h5v-1h1v1h5v1h1l1,-1l1,1l1,-1h1l2,-1v1l1,1h3l1,-1h2v1h1v1h4l1,-1v1h9l1,-1l-1,1v1h-1h3l1,1h2l-1,1v1h1v1h2v1h1v2h2l1,1v1h-1l-1,1h-2l-1,1h-3l-1,1h-2l-1,1h-2l-2,2v1h-5l-1,1h-2v1h-1v3h2l-11,4h-155l-11,-4h-1h2l1,-1l1,1h14l-1,-1h-7v-1h-2v-1h-3l-1,-1h4v-1h-2l-1,-1h-7l-1,-1l-2,-1l1,1l1,-1l2,1v-1h1v-1l-1,-1h-1h2v-1h2v-1h4l1,-1h5l1,-1l1,1v-1h1l1,1h1v-1l1,1h6v-1h-2l-1,-1h-1l-1,-1h4l1,1h1l1,-1h3l-1,-1h1l1,1l1,-1l1,1h3v-1l1,1h4v-1h2l1,-1v-1h-1v-1h-1v-1h-1v-1h-1v-2l-1,-1v-1h1v-2h1v-1h1v-1h1l1,-1l1,1ZM144,951l2,1h1v1h-1v-1v1h-4l-2,-2l-2,-1l2,1h2v-2h1v1ZM151,947h1v1h-2v1l-1,-1l1,-1ZM269,946h-1v-2h1l1,1ZM345,939v1h1l1,-1v1l-3,3v-1l-1,1h-1l1,-1v-1l1,-1v-1ZM368,943v1l1,-1v1h-1l-3,3h-1l-1,1h-1l-2,2h-2v1h-1v-1h-1v-1l4,-2h1l1,-1h2l2,-2h1l2,-2ZM376,936l-1,2l1,-1l-1,1l1,1h1l-2,2h-1l-2,2l-2,1h-1l2,-1v-2l1,-1l2,-1v-1l1,-1v-3l1,-1v1l1,1ZM382,913l-1,1v-2l-1,-1v-1h1v1l1,1ZM397,906v1l-1,1h-1v-1l1,-1v1ZM398,906h-1v-1h1l1,-1v1ZM10,905v-1ZM386,904v-1ZM386,901v2h-1v-1ZM259,895v2l1,1h-1v1v-1v2h-1v3l-3,6v2h-1l-1,1l-1,-1h-1v-5h1v-2l1,-1h-1v-3h1v-1h1l2,-2h1v-1l1,-1v-1l1,-1v1ZM361,898v1h1v1h1l-1,1v2h1l-1,2v1l2,2v4h1l-1,2l1,1v3l-1,1v2l-3,3v1l-1,1l-1,2h-1l-1,2h-1l-4,4v1h-2l-1,1h-1l-1,1v-1h-1l1,-1h-1l-1,1h-1v-1h-1v-3h1l-1,-1v-1l1,-1l-1,1h-1l3,-3l-2,1h-1l-1,2v-4l-2,-2h-2l-1,1h-4l-2,2h-4l-1,1v-1l-1,1h-2v-1h-1l1,-1v-1h1v-3l1,-1v-7l1,1v-3l1,-1v-1l1,-1l-1,1l2,-2h1l1,-1h2l1,-1h2v-1h1l1,-1v-2l1,-1v2l1,-1v-1h1v-1l2,-2h2v1h2v-2h1l1,-1v-1h2v-1h-1h1l1,1h3l1,1h-1v1h-1v1l-1,1v1l2,2v1h1l1,1h1v-1l1,-1v-1l1,-1v-3l1,-1v-2h1v-1v3l1,1Z"/>
<path class="tl" d="M383,894h-1v-1v1ZM337,892l-2,-1h2ZM381,893h-1v-1h1ZM382,892v-1l-1,-1h1ZM341,892h-1l3,-3h2l-1,1h-1l-1,1ZM335,889h1v1h-3l1,-1ZM340,889v1h-3v-1h2ZM381,890v1l-2,-2h1v1ZM378,889v-1h-1v-1l1,1ZM325,887h2v-1l2,1v1h2l1,1l-1,1l-1,-1h-4l-1,-1h-1l-2,-1h-1l1,-2h1l1,1ZM353,886v1v-2ZM377,888h-1v-2l-1,-1h1v2h1ZM373,885l-1,1h-1l-1,1l-1,-1h-1l1,-1l1,1v-1h2v-2h1v1ZM345,882h-1v-1h1ZM349,881v2l-1,-1h-2v-1h2ZM374,884l-1,-1v-1l-1,-1h-1h2v2h1ZM353,878v3l2,1v-2l2,-1h1l1,1h1l1,1l4,2v1h1v1l2,1v1h-1v1l1,1v2h1v1h1h-1l1,1l-1,1v-1h-2l-1,-1v-3h-3l-1,1v1h-2l-2,-2v1h-2l1,-2h1l-1,-2v-1l-2,-1h-1l-1,-2l-1,1l-1,-1h1l-1,-1l1,-1h-1v-1h-1l-1,-1h2v-1ZM343,875l-1,1h-4v1l1,2v-1h2l-1,1h-1l1,2v1l1,2v1h-1v-2l-1,1v-1l-1,-1l1,-1h-1v4h-1v-3h-1v-1l1,-1v-4h1v-1h4l1,-1ZM347,875v1h-1v1l1,1h-1v-4h1ZM321,885h-1l-2,-2v-1l-2,-2l-1,-2v-2l-1,-1v-1l-4,-4v-1h2l3,3l1,2h1l2,2h1l-1,2h1v1l1,1h1v3ZM335,874l1,1h-1v3l-1,1v1l-1,3v-1l-1,1l-1,-1h-1v-1l-1,1l-1,-1h-1l-2,-4v-2l1,-1h2v-2h2v-1l1,-1v-1h1l1,-1v-2h1v1l2,2v1h-1l-1,2l1,1ZM344,864v3l-1,-1v2l-2,-2h1l-1,-1v1l-1,-1l-1,1v-1l1,-1h2v-1h1v-1l1,1ZM294,868h-1v-1l-1,-2l1,-2l1,1v1l1,1v1ZM137,863h-1l1,-1h1ZM341,861v1l-1,1l-1,-1l1,-1v-1v1l1,-1ZM335,863l-1,1v-1l1,-1v-1l1,-1v1l-1,1ZM338,859h2v1l-1,1v-1h-1ZM342,858l1,2h-1v1v-1h-1v-1h1h-1v-1ZM338,857l-1,1l-1,-1h1ZM336,849h1v6h1l2,1v2l-1,-1v-1v1l-1,-1h-2v-1h1h-1l-1,-1v-5ZM133,851v1h-1v-1ZM121,852h-1v-1h2v1ZM126,849h3v1h1v1h-2l-1,1v-1h-1v-2h-1ZM324,849l-1,1h-1v-2l1,-1h1v1ZM37,846v-2h1v2ZM38,844h-1v-1h1ZM119,845h2l1,1v1h1v1h2l-1,1h-3v-1h-1v-2h-2l-1,-1h-1h1h-2l-1,1h-1l2,-2h3ZM122,843h-1v-1l1,-1v1ZM334,843v1l-2,-2v-2l1,-1l1,1ZM122,839l-1,1v-1ZM123,839v1v-1h-1ZM340,825h1v1h-1v1h-1v-2ZM240,828l-2,2v-1h-1h2ZM229,828v1h-1ZM220,825v2h-1l-1,-1h-1v-1h2ZM214,821v3h-1v-3ZM344,820v1l1,1v1l-1,1h-1l-1,2l-1,-1v-1l-2,1l-1,1h-1l2,1v3l-1,-1v-1h-1l-1,-1l1,-1v-3h3v-3l1,1v-2h1l-2,-4v-1l3,3v1ZM214,820v1l-1,-1v-1l1,-1ZM340,810l1,-1l1,2h-1v2l-2,-1l1,2h-1l-1,-2l-1,-1h1l-1,-2l-1,-1l3,1ZM144,812l1,1h1h-2ZM147,809h-1l-1,-1h1ZM92,806h-1l-1,-1v-2h-1v-1h1l1,1v1l1,1ZM153,807l-1,1h1v1h2l-1,1h1v1l-1,2l-1,-1l1,-1l-2,1v-1h-3l1,-1h-1l4,-4h1Z"/>
<path class="tl" d="M90,797h1l-2,2v1v-3ZM332,800l3,3l-2,-1l1,2l2,2v1l-2,-2l-1,-2l-6,-6v-1h-1h1l3,3ZM198,806l-1,1h-2l1,-2v-1l2,-2h1v3ZM216,801l-1,2l-1,-1v-1h1ZM79,791h-1v-1h2ZM202,797l-1,2h2v1l-1,1h1l2,4h1v1l-1,1h1l-1,1h-3l-1,1h-2l2,-2h-1v-1h1l-1,-1v-1h2l-1,-1h-1v-2l-1,-1l1,-2v-1l1,1ZM75,786h-1v-1h1ZM141,790l-1,1v-1ZM139,790h-2l1,-1h1ZM78,780v1h1h-2v-1ZM139,786h1v1h1l-1,1h1l-1,1l-1,-1h-1l-2,1l1,-1h-1h1l1,-1l1,-2ZM193,787v1l1,1l-1,1h-3l-1,1l-1,-1h-2l1,-1h-1h1v-1h-2l1,-1h1l1,1l2,-1h2ZM147,784h-1l1,-1h2l-1,1ZM81,776v1l1,-1h2l-1,2h-3l-1,1h-1l-1,-1h1v-1h-1h1h-2l-1,1l8,-5v1l-1,2ZM135,780l-1,1v-1h-1l1,-1h1ZM322,771h-1ZM88,771h-1h2ZM139,780l-1,2l2,-1v1h-1v1l1,-1l2,-1l1,-1h2v2h-1v1l-1,1l-2,1h-1v-1l-1,1l-2,1v1h-3l-2,2h-1l-1,1l-2,1l-1,1l-1,2h1l-1,1v1h1l3,3l2,1h1l-2,2v2l1,1h1l2,-4h-1l4,-2v-1l1,-1v-1l-1,-1l2,-1l2,-4l1,1h1l1,-1v1l1,1h1v2l-1,1l1,1h2l1,-2h1v3l1,1l-1,1l1,1v1h1l1,1v1l1,1l-2,2h-2l-2,2h-1l-2,-1h-2l-2,1l-1,1l-2,1l-1,1l2,-1l3,-1h2l-1,1l-1,2v1l1,1l2,-1l1,-1v1h1l-4,2h-1l-2,1v-1l2,-1h-3v1h-1l-1,1h-1l-2,2l1,1v-1v1h-3l-1,1l2,-1v1h-2l-2,2v1l-1,1l-1,-1l1,-1l-1,1v4l-1,1h-1l-1,1h-1l-3,3h-1v8l-1,1h-1v-3l-1,-1l1,-1l-1,-2l-1,1l-1,-1h-4v1h-1l-1,-1l-1,1l-1,-1l-2,2h-2v1h-1v3l-1,1v1l-1,2v4l1,1v1h1v1l1,-1h3v-1l1,-1v-1l1,-1h3v1l-1,1v2l-1,1v-1v2l-1,1v1h5v1h1v1l-1,1v3l-1,1h1v2h1v1h2l1,-1h1v1h1l1,1l1,-1v-2l1,-1h2l2,-2v2h-1h1v1l-1,1v1h1v-3h1v-1h1v1h1v1h3l1,1l1,-1h1l1,1h1v1l1,1h1v1h1v1l1,1l2,1v-1h1l1,1h1l1,1v1h1v1l1,2v1l-1,1l1,1h2v1v-1l4,2v1h1l3,1h1l2,1l2,2h2v5l-1,1l-1,2l-2,2v9l-1,2v2h-1v1h-2l-1,1h-1l-3,3v5l-1,2l-2,2v2l-2,2v-1l-1,1l-1,-1h-1v-1v1l1,1v1l1,1v2l-2,1h-3l1,1v2l-1,1l-1,-1h-1l1,2h2l-2,2l1,1v1h-1l-1,1v1l2,1h1v1l-1,1v2h-1v1l2,2h-1l-1,1v1h-1l-2,-1l-3,-3l-1,-3v-1l1,-1h-2l1,-2l-1,-2h1v-2l-1,-1v2l-1,-2v-4l-1,-1l-1,-2h1v-6l-1,-2v-8l-1,-2v-6l-1,-2l-1,-1l-2,-1l-3,-2l-1,-1v-1l-1,-2l-1,-3l-2,-3l-2,-2v-1l-1,-2l2,-2v-1h-1v-3l1,-1v-1h1v-2h1l1,-1v-5l-1,-1v-2h-1v1h-1v1h-1l-1,-1h-2v-2h-1v-1v1h-1v-3l-2,-2h1h-2v-1h-2l-1,-1l-1,-2h-1l-1,-1v1h-2l-1,-1h-2l-2,-2h-1l-1,-1v-1h-1v-3h1l-1,-1v-3l-1,-1v-1l-1,-1v-3h-1v-5l-1,-1l-1,1v4h1l-1,1h1v5h1v2h-1v-1l-1,-1v-3l-1,-1v1v-1h-1v-1h1v-9h-1v-1h-1v-9l2,-2v-1l1,-2l2,-2l1,-2l1,-1v-1h1v1l2,-2h-1v-2l-1,-1v-1l1,-1l-1,-1l1,-1v-1l1,-1l-1,-1l1,-1v-1l1,-1l-1,-1h-1v-2h-1v-1h-1l-1,-1h-1l-1,1h-4l1,-1l2,-1h-1l-1,1l-2,1h-1l-1,1l-2,1h-2l-2,1h-1l-1,1h-3l-1,1h-2l1,-1h2l2,-1h2l2,-1h1l2,-1l1,-1h-3l1,-1l-1,1h-1l2,-2h-1v-1l2,-2l2,-1h3l1,-1h1l1,-1h-3v-2h4l1,1l1,-1v-3h4l1,-1h2l2,-1l1,1l1,-1h1l-1,1h1l1,1h2l1,1h2v1l1,1l1,-1h6l1,-1v2l2,-1l-1,1h2l1,1h2v1l-2,1h4v1l2,-2h2v1h1l1,1h2v-1h1l1,1l-1,1l1,-1h1l1,-1v-2l1,-1l2,-1l1,1l-2,2Z"/>
<path class="tl" d="M128,774l-1,1h4l-1,1h1l2,-2v1l-1,2v1l1,1h-2v1h-8v-1h-1v-1h4l-1,-1h-3l2,-1h-1l1,-1h1ZM135,774l-2,1v-1h1ZM152,776v1l-1,-1l-1,1v-2h2ZM146,776v1l1,-1l2,-1v2h3l1,1l-1,1l2,-1v1l1,1v2h-1l2,2v1h1v1l-2,1h-1l-1,-2l-1,1v1l1,1v2l-1,1l-2,-2v1l1,1h-2l-2,-2v-1l-1,-1v1h-3v-1l1,-1h3l1,-1l2,-1v-1l-1,-1h-1l1,-1l-1,-1h-5l-1,-1h-1l1,-1h-1l1,-1l2,-1l1,-1h2ZM138,774h2l-1,1h-1l1,1l-2,1h-2v-2l1,1v-1ZM298,772h-2v-1ZM141,776l-2,1v-1l2,-2h2l1,1l-2,1ZM122,776h-2l-1,-1h1l2,-1l2,-2h2v1h2v1h-1l-3,1h-2ZM299,769v1h-3v-1h1ZM143,773v1l-1,-1h-1l1,-1h1l1,1ZM295,769l1,1h-2l-1,1l-2,-1l-1,-1h2ZM143,771h-1v1l-1,1h-2l1,-1h-1l1,-1h2ZM136,771h1v1h-4l-2,1h-1l1,-1h-1l-1,-1l2,-1h1l2,1l1,1v-2h2ZM246,780h-3l-2,-1v-1l1,-2h-1l1,-1l-1,-1h1l4,-2h2l-1,1l-2,1l-1,1v2l-1,1l1,1ZM145,770l1,1h1l-1,1h1l1,1h4v1h-7l-1,-1l1,-1v-1h-2l1,-1ZM134,769l-2,1h-4l2,-1h3ZM271,770l1,1v-1h2l2,1h1v1l-1,1h1l2,1v-1l1,1l1,-1h2l1,1h3l-2,-1h5l1,1v1h2l2,1l-1,-1h1l1,-1l2,1v-1h1l-2,-1h8l3,1l1,-1h2l2,2h2v-1h3l3,1v-1h-2v-1h7l8,5h-1l1,1l2,1h2v1h-1v1h-1l1,1v2l-2,-1v2l-1,-1v1h-1l2,2v1h1l3,2h-1l1,1h1v1l1,2h-1l1,2l1,1l-4,-2l-4,-3l-1,-2l-1,-1v-3l-1,-2v-1l-2,-2l-1,1l2,2l-3,-1l-1,1l1,2l1,1h-1l-1,1l-1,-1h-1v1h-4v7h1l2,1h1l-1,-1h1l3,1l1,2l1,1l1,2l2,2v9h-1l-1,-1v2h-1v1l1,1v1h-1v1l1,1h1l2,2v1l1,1v1l-1,1h-1l-1,-2l-1,-1h1l-2,-1v-1v1v-1h-1v-1l-1,-1h-2v1h-1l-1,-1l1,-1l-1,-1l-1,1v2h-1v1l2,2h1v-1h2l1,1l-2,1v2l2,2l1,2l2,1v2h1v6l-2,4l-1,1h-1v1l-1,-1v1l-2,1h-1v2l-1,-1v-1h-2l-1,2v2l1,1l1,2l2,2l1,3v4l-2,1v1l-2,1v-2l-1,-1h-1v-1l-2,-2h-1v-1h-1v6h1v3l1,1h1v1h1v1l1,1v3h1v2h-1l-2,-2v-1l-1,-1v-1l-1,-1v-2l-1,-1v-1h-1v-6l-1,-1v-1l-1,-2v-2l-1,-1l-2,2h-1v-3l-1,-2v-1h-1l-2,-2v-1l-1,-1h-1v2l-1,-1v1h-2v2l-2,1l-1,2v1l-2,2h-1v8l-1,1l1,1h-1l-1,1l-1,-1l-1,-2v-1l-1,-1v-1l-1,-2v-1l-3,-6v-3l-2,1h-1l-1,-2v-1l-2,-1l-1,-1v-1l-1,-1l-2,1h-5l-1,-1h-2v-2h-1l-1,1h-2l-3,-3l-1,-2l-1,1v-1l-1,1v2l1,1h1l1,1v2l1,1l-1,-1l1,-1v2h1v1l1,-1h2v-1l1,-1v-1v2l2,2h1l2,2l-1,1v1h-1v3h-1v1h-1v1h-2v1h-1l-2,2h-1l-2,2v-1l-1,1h-2v1h-2v-2l-1,-1v-3h-1v-1l-1,-1v-1l-1,-1h-1v-1l-1,-1v-3h-2v-2l-1,-1v-1l-2,-2v-1v1l-1,1l-1,-1l-1,-2l1,2l1,1l1,2v1l2,2h-1l2,2v1l1,1h-1l1,2v1l1,1l1,2v1l1,1l2,1v1h1v1h1v1l-1,1h1l1,1h3l1,-1h3v-1h1v2l-1,1v3l-1,1l-3,6l-1,1l-2,1l-1,1l-1,2v1h-1v1h-1v2l-1,1l-1,2l1,1v4l1,1v7l-1,1h-1l-3,3h-1v1l-1,1v2h1l-1,1h1v1l-1,1h1l-1,1h-1l-2,2v3l-3,3v1l-2,1v1l-1,1h-2v1l-1,-1v1l-1,-1l-1,1h-2l-1,1l-1,-1h-1v-5l-1,-1v-2l-1,-1v-1l-1,-1v-5l-1,-1v-1l-1,-2v-1l-1,-1v-3l1,-1v-3h1v-1l1,-1v-1h-1v-5l-1,-1v-2l-3,-3l-1,-2l1,-1v-5l-1,-1v-1l-1,1h-2l-1,-1v-1l-1,-1h-2l-1,1h-2l-1,1h-6l-1,1l-4,-4h-1l-1,-1v-1l-1,-1v-1h-1v-1l-1,-1v-1h-1v-3h-1l1,-1v-1h1l-1,-1l1,-1v-4l-1,-1v-1h1v-2l1,-1v-1h1v-2h1l1,-2h1l2,-2v-3l3,-3l1,-2v-1h1l1,1h2l1,-1h2l1,-1h4l1,-1h1v1h1l1,-1h1v1l1,-1v1h-1v1h1v2h-1v1h1v1h3l2,2h1l2,2l1,-1v-2l1,-1h2l1,1h1l1,1h2l1,1h1v-1h2l1,1v-1h1l1,1v-2l1,-1v-5h-2l-1,1l-1,-1h-2v1l-1,-1h-2v-1l-1,-1v-2l1,-1h1v-1h2l1,-1h1l2,-1l2,1l1,1h2l1,-1v-2h-1l-2,-2h-1l-1,-1l1,-1l-1,-1h2l-1,-1v1h-2l-1,1v1h1l-1,1h-1v-1h-1l1,-1h-2v-1h-1v1l-1,1v1h-1v4l1,1h-2v1h-1v-1h-2l1,1h-2v1l1,1h-1h1l1,1v1l-1,-1v1h-1l1,1h-2v-2l-1,-1v-1h-1v-3h-1v-1h-1l-1,-1h-1l-1,-1v-1l-1,-1v1v-1h-2v1l2,2v1l1,1h1l1,1h1l1,1v1l-1,-1h-1v1h1v1h-1v1h-1v-1h1l-1,-1v-1h-1l-1,-1h-1l-2,-2l-1,-2h-2v1h-4l-1,1v2h-2v1l-1,2h1l-1,1v1h-1l-1,1h-2l-1,1l-2,-2v1h-2l1,-1v-1h-1v-2l1,-1v-3l-1,-1l2,-1l1,1h5v-4l-1,-1v-1h-2v-1h3v-2l1,1l2,-1v-1h1l1,-1l1,-2l1,-1h2v-5h2l-1,1h1v1l-1,1v1h1v1l1,-1h2v1h1l2,-2l1,1h1v-1h1v-3l1,-1l1,1v-1l-1,-1v-1h4l1,-1h-4l-1,1l-2,-2v-4l2,-1v-1l-1,-1l-2,2l-1,2l-1,1v3h1v2h-1v2l-1,2h-1v1h-1v-2l-1,-1l-1,-2l-1,-1l-1,2h-1l-2,-1v-5l2,-1l3,-3l2,-3l3,-3h2l1,-2h3l2,1l-1,1h2l1,1h3l3,1l1,1v1l-1,1h-1l-3,-1h-1l2,1v2l1,1h1v-1h-1l1,-1l2,1v-1l1,-2h1l1,1v-1l-1,-1v-1l-1,-1l2,1h1l-1,1l1,1h1v-1l1,-1l2,-1h1v1l1,-1h1l1,-1l1,1l1,-1h-2l1,-1h2l1,1l4,1v-1h-2v-1h-1l-1,-1v-3h2l1,1v1h1l1,1l1,2h1v3l1,1v-1h1l-1,-1l1,-1h-1l-2,-2v-1l-2,-1l1,-1l-1,-1h1l1,2l-1,-1l1,-1h2l1,1l-1,-1l-1,-2h4l-2,-1v-1h1l1,-1h3l1,-1h1v-2l2,1h-1ZM253,820l1,1v2h-1v1l1,1h1l1,1h3l-1,-1v-2h-1v-2h1v-1l-1,-1h-1l1,1l-1,-1v-1h-2v-2h-1h1v-2l1,1v-3h-2l-1,1h-1v1h-1l-1,2l2,1v1l1,1Z"/>
<path class="tl" d="M146,770h-1v-1h1l1,1ZM137,769h-2l1,-1h1l1,1ZM220,771l-1,1h-1v-1h-1l2,-1v1ZM139,768h-2l1,-1v1ZM146,769h-1v-1h1l1,1ZM144,769h-1l-1,-1h-1h1v-1h1l1,1ZM268,768l-3,1v-2ZM215,769l3,1h-2v3h-1l-2,-1h1l-1,-1l-2,-1v-1l1,-1l1,1h1v-1h1ZM220,768h1l-1,1h-4l-1,-1h3ZM234,767l-1,1h-1v-1h-1h4ZM264,768h-4l-2,-1l-1,-1h1l1,-1l4,2ZM153,767v1h-1l-2,1h-2v-1h1h-1v-1l1,-1h2v-1h1v1h1ZM167,764h3v1h-3l-1,1h-1l-1,1l-2,1h-3v1h-1v1h-2l-2,1h1l-2,1h-4l-1,-1h2v-1h2v-1h-1h1l1,-1h1l-1,-1h4l-1,-1h-3v-1l1,-1h6v-1h3v1l2,-1l1,1ZM190,764l3,1h-6v1h5l-1,1l2,-1h4v1l-2,1h-1l-2,2v2l1,1h-2l1,1l-1,1v1h-1l1,1h-3l1,1v1l-1,-1l-1,1h1l1,1v1h-2l-1,-1v1l-1,1h3l-4,2h-3l-1,1l-4,2h-1l-2,1h-1v1l-2,2v1l-1,1l-1,2h-1l-1,-1h-1l-1,-1v-2l-1,-1v-1l1,-1l-1,-2l1,-1l1,-2h1l1,-1v-1l-1,1h-1v-1l1,-1h1l-1,-1h-1l1,-1v-4l-1,-1h-5v-1l-1,-1h1l-1,-1l1,-1h2l3,-1h1l-2,-1h1l3,-1h1v-1h9l1,1l-1,-1h1l2,-1h3l2,-1Z"/>
<path class="tg" d="M66,970h1l1,-1h4v-1h5v-1h5v-1h6v-1h6l1,-1h7v-1h8v-1h9l1,-1h11v-1h14v-1h20v-1h79v1h20v1h14v1h11l1,1h9v1h8v1h7l1,1h6v1h6v1h5v1h5v1h4l1,1h1M21,927h6v-1h7v-1h8v-1h10v-1h10v-1h12v-1h14v-1h18v-1h23v-1h38v-1h75v1h38v1h23v1h18v1h14v1h12v1h10v1h10v1h8v1h7v1h6M5,877h399M21,826h4v1h7v1h8v1h9v1h10v1h11v1h14v1h16v1h21v1h32v1h103v-1h32v-1h21v-1h16v-1h14v-1h11v-1h10v-1h9v-1h8v-1h7v-1h4M66,783v1h5v1h4v1h5l1,1h5v1h6l1,1h6l1,1h7v1h10v1h10v1h13l1,1h17v1h36v1h21v-1h36v-1h17l1,-1h13v-1h10v-1h10v-1h7l1,-1h6l1,-1h6v-1h5l1,-1h5v-1h4v-1h5v-1M140,755h-1v1h-3v1h-2v1h-2v1h-2v1h-2v1h-2l-1,1h-1l-1,1h-1l-1,1h-1v1h-2v1h-2v1h-2v1h-1l-1,1h-1v1h-2v1h-1l-1,1h-1v1h-2v1h-1v1h-2v1h-1v1h-2v1h-1v1h-1l-1,1h-1v1h-1v1h-2v1h-1v1h-1v1h-1v1h-2v1h-1v1h-1v1h-1v1h-1v1h-1v1h-1l-1,1h-1v1h-1v1h-1v1h-1v1h-1v1h-1v1h-1v1h-1v1h-1v1l-1,1v1h-1v1h-1v1h-1v1h-1v1h-1v1l-1,1v1h-1v1h-1v1h-1v2h-1v1h-1v2h-1v1h-1v2h-1v1h-1v2h-1v2h-1v1h-1v2h-1v2h-1v2h-1v2h-1v2l-1,1v2h-1v2l-1,1v2h-1v3h-1v4h-1v4h-1v5h-1v9h-1v13l1,1v8h1v5h1v4h1v4h1v3h1v3h1v2h1v3h1v2h1v2h1v2h1v2h1v2h1v2h1v1l1,1v1h1v2h1v1h1v2h1v1h1v1h1v2h1v1h1v1l1,1v1h1v1h1v1h1v1l2,2v1h1v1h1v1h1v1h1v1h1v1h1v1h1v1h1v1h1v1h1v1h1v1h1v1h1v1h2v1h1v1h1v1h1v1h1v1h1l1,1h1v1h1v1h1v1h2v1h1v1h1l1,1h1v1h1v1h2v1h1v1h2v1h1l1,1h1v1h2v1h1v1h2v1h2v1h1l1,1h1v1h2v1h2v1h2v1h2v1h2v1h2v1h2v1h2l1,1h2v1h2v1h2M153,755h-1v1h-2v1h-2v1h-1v1h-2v1h-2v1h-1v1h-2v1h-1v1h-2v1h-1v1h-2v1h-1v1h-1v1h-2v1h-1v1h-1l-1,1h-1v1h-1v1h-1v1h-1v1h-1l-1,1h-1v1h-1v1h-1v1h-1v1h-1v1h-1v1h-1v1h-1v1h-1v1h-1v1h-1v1h-1v1h-1v1h-1v1h-1v1h-1v1h-1v1l-2,2v1h-1v1h-1v1h-1v1l-1,1v1h-1v1h-1v2h-1v1h-1v1l-1,1v1h-1v2h-1v1h-1v2h-1v1h-1v2h-1v2h-1v2h-1v2h-1v2h-1v2h-1v2h-1v3h-1v2h-1v3h-1v3h-1v3h-1v3h-1v4l-1,1v4h-1v6l-1,1v30h1v6h1v5h1v4h1v3h1v3l1,1v2l1,1v2h1v3h1v2h1v2h1v2h1v2l1,1v1h1v2h1v2h1v2h1v2h1v1h1v2h1v1h1v2h1v1h1v2h1v1h1v1h1v2h1v1h1v1h1v1l1,1v1h1v1h1v1h1v1h1v1h1v1h1v1l3,3v1h1l3,3h1v1h1v1h1v1h1v1h1v1h1v1h1v1h1l1,1h1v1h1v1h1v1h1l1,1h1v1h1v1h1l1,1h1v1h1v1h2v1h1v1h2v1h1v1h2v1h2v1h1v1h2v1h1l1,1h1v1h2M166,755h-1v1h-1v1h-1l-1,1h-1v1h-1v1h-1v1h-1v1h-1v1h-1l-2,2h-1v1h-1v1h-1v1h-1v1h-1v1h-1v1h-1v1h-1v1h-1v1l-2,2v1h-1v1h-1v1h-1v1h-1v1l-1,1v1h-1v1h-1v1h-1v2h-1v1h-1v1l-1,1v1h-1v1h-1v2h-1v1h-1v2h-1v2h-1v1h-1v2h-1v2h-1v2h-1v1l-1,1v1l-1,1v1l-1,1v2h-1v2h-1v2h-1v3h-1v2h-1v3h-1v3h-1v3h-1v3h-1v4h-1v4h-1v5h-1v6h-1v8h-1v30h1v7l1,1v5h1v5h1v4h1v4h1v3h1v3h1v3h1v3h1v3h1v2h1v2h1v2l1,1v2h1v2h1v2h1v2h1v1h1v2h1v2h1v2h1v1h1v2h1v1h1v2h1v1l1,1v1h1v1h1v2h1v1h1v1h1v1l1,1v1h1v1h1v1h1v1l1,1v1h1v1h1v1h1v1h1v1h1v1h1v1h1v1h1v1h1v1h1v1h1v1h1v1h1v1h1v1h1l2,2h1v1h1v1h1v1h1v1h2v1h1"/>
<path class="tg" d="M179,755h-1v1h-1v2h-1v1h-1v1h-1v1h-1v2h-1v1h-1v1l-1,1v1h-1v1l-1,1v1h-1v1l-1,1v1h-1v2h-1v1l-1,1v1h-1v2h-1v2h-1v2h-1v2h-1v2h-1v2h-1v2h-1v2h-1v2l-1,1v2h-1v2l-1,1v2h-1v3h-1v3h-1v3h-1v3h-1v4h-1v4h-1v4h-1v4h-1v5l-1,1v5h-1v8h-1v11h-1v29l1,1v10l1,1v7h1v6h1v5h1v4l1,1v4h1v3l1,1v3h1v3h1v3h1v3h1v3h1v3h1v2h1v3h1v2h1v2h1v2l1,1v2h1v2h1v1l1,1v1l1,1v1h1v2h1v2h1v1l1,1v1h1v2h1v1h1v2h1v1h1v2h1v1h1v1l1,1v1h1v1h1v1h1v2h1v1h1v1h1M192,755h-1v3h-1v2h-1v3h-1v3h-1v3h-1v3h-1v3h-1v3l-1,1v3h-1v4h-1v4h-1v4l-1,1v4h-1v5h-1v6h-1v6l-1,1v7h-1v8h-1v11l-1,1v18h-1v29l1,1v18h1v11h1v8l1,1v7h1v6h1v6h1v5h1v5h1v4h1v4h1v4h1v4h1v3h1v3l1,1v3h1v2l1,1v2h1v3h1v3h1v2h1M205,755v243M217,755h1v3h1v2h1v3h1v3h1v3h1v3h1v3h1v3l1,1v3h1v4h1v4h1v4l1,1v4h1v5h1v6h1v6l1,1v7h1v8h1v11l1,1v18h1v29l-1,1v18h-1v11h-1v8l-1,1v7h-1v6h-1v6h-1v5h-1v5h-1v4h-1v4h-1v4h-1v4h-1v3h-1v3l-1,1v3h-1v2l-1,1v2h-1v3h-1v3h-1v2h-1M230,755h1v1h1v2h1v1h1v1h1v1h1v2h1v1h1v1l1,1v1h1v1l1,1v1h1v1l1,1v1h1v2h1v1l1,1v1h1v2h1v2h1v2h1v2h1v2h1v2h1v2h1v2h1v2l1,1v2h1v2l1,1v2h1v3h1v3h1v3h1v3h1v4h1v4h1v4h1v4h1v5l1,1v5h1v8h1v11h1v29l-1,1v10l-1,1v7h-1v6h-1v5h-1v4l-1,1v4h-1v3l-1,1v3h-1v3h-1v3h-1v3h-1v3h-1v3h-1v2h-1v3h-1v2h-1v2h-1v2l-1,1v2h-1v2h-1v1l-1,1v1l-1,1v1h-1v2h-1v2h-1v1l-1,1v1h-1v2h-1v1h-1v2h-1v1h-1v2h-1v1h-1v1l-1,1v1h-1v1h-1v1h-1v2h-1v1h-1v1h-1M243,755h1v1h1v1h1l1,1h1v1h1v1h1v1h1v1h1v1h1l2,2h1v1h1v1h1v1h1v1h1v1h1v1h1v1h1v1h1v1l2,2v1h1v1h1v1h1v1h1v1l1,1v1h1v1h1v1h1v2h1v1h1v1l1,1v1h1v1h1v2h1v1h1v2h1v2h1v1h1v2h1v2h1v2h1v1l1,1v1l1,1v1l1,1v2h1v2h1v2h1v3h1v2h1v3h1v3h1v3h1v3h1v4h1v4h1v5h1v6h1v8h1v30h-1v7l-1,1v5h-1v5h-1v4h-1v4h-1v3h-1v3h-1v3h-1v3h-1v3h-1v2h-1v2h-1v2l-1,1v2h-1v2h-1v2h-1v2h-1v1h-1v2h-1v2h-1v2h-1v1h-1v2h-1v1h-1v2h-1v1l-1,1v1h-1v1h-1v2h-1v1h-1v1h-1v1l-1,1v1h-1v1h-1v1h-1v1l-1,1v1h-1v1h-1v1h-1v1h-1v1h-1v1h-1v1h-1v1h-1v1h-1v1h-1v1h-1v1h-1v1h-1v1h-1v1h-1l-2,2h-1v1h-1v1h-1v1h-1v1h-2v1h-1M256,755h1v1h2v1h2v1h1v1h2v1h2v1h1v1h2v1h1v1h2v1h1v1h2v1h1v1h1v1h2v1h1v1h1l1,1h1v1h1v1h1v1h1v1h1l1,1h1v1h1v1h1v1h1v1h1v1h1v1h1v1h1v1h1v1h1v1h1v1h1v1h1v1h1v1h1v1h1v1h1v1l2,2v1h1v1h1v1h1v1l1,1v1h1v1h1v2h1v1h1v1l1,1v1h1v2h1v1h1v2h1v1h1v2h1v2h1v2h1v2h1v2h1v2h1v2h1v3h1v2h1v3h1v3h1v3h1v3h1v4l1,1v4h1v6l1,1v14l1,1h-1v15h-1v6h-1v5h-1v4h-1v3h-1v3l-1,1v2l-1,1v2h-1v3h-1v2h-1v2h-1v2h-1v2l-1,1v1h-1v2h-1v2h-1v2h-1v2h-1v1h-1v2h-1v1h-1v2h-1v1h-1v2h-1v1h-1v1h-1v2h-1v1h-1v1h-1v1l-1,1v1h-1v1h-1v1h-1v1h-1v1h-1v1h-1v1l-3,3v1h-1l-3,3h-1v1h-1v1h-1v1h-1v1h-1v1h-1v1h-1v1h-1l-1,1h-1v1h-1v1h-1v1h-1l-1,1h-1v1h-1v1h-1l-1,1h-1v1h-1v1h-2v1h-1v1h-2v1h-1v1h-2v1h-2v1h-1v1h-2v1h-1l-1,1h-1v1h-2"/>
<path class="tg" d="M269,755h1v1h3v1h2v1h2v1h2v1h2v1h2l1,1h1l1,1h1l1,1h1v1h2v1h2v1h2v1h1l1,1h1v1h2v1h1l1,1h1v1h2v1h1v1h2v1h1v1h2v1h1v1h1l1,1h1v1h1v1h2v1h1v1h1v1h1v1h2v1h1v1h1v1h1v1h1v1h1v1h1l1,1h1v1h1v1h1v1h1v1h1v1h1v1h1v1h1v1h1v1l1,1v1h1v1h1v1h1v1h1v1h1v1l1,1v1h1v1h1v1h1v2h1v1h1v2h1v1h1v2h1v1h1v2h1v2h1v1h1v2h1v2h1v2h1v2h1v2l1,1v2h1v2l1,1v2h1v3h1v4h1v4h1v5h1v9h1v13l-1,1v8h-1v5h-1v4h-1v4h-1v3h-1v3h-1v2h-1v3h-1v2h-1v2h-1v2h-1v2h-1v2h-1v2h-1v1l-1,1v1h-1v2h-1v1h-1v2h-1v1h-1v1h-1v2h-1v1h-1v1l-1,1v1h-1v1h-1v1h-1v1l-2,2v1h-1v1h-1v1h-1v1h-1v1h-1v1h-1v1h-1v1h-1v1h-1v1h-1v1h-1v1h-1v1h-1v1h-2v1h-1v1h-1v1h-1v1h-1v1h-1l-1,1h-1v1h-1v1h-1v1h-2v1h-1v1h-1l-1,1h-1v1h-1v1h-2v1h-1v1h-2v1h-1l-1,1h-1v1h-2v1h-1v1h-2v1h-2v1h-1l-1,1h-1v1h-2v1h-2v1h-2v1h-2v1h-2v1h-2v1h-2v1h-2l-1,1h-2v1h-2v1h-2"/>
<rect x="366" y="913" width="21" height="21" fill-opacity="0" stroke="#ffffff" stroke-opacity="0.5" stroke-width="5.0"/>
<rect x="368" y="915" width="21" height="21" fill-opacity="0" stroke="#113311" stroke-opacity="0.8" stroke-width="5.0"/>
<rect x="367" y="914" width="21" height="21" fill-opacity="0" stroke="#45a249" stroke-opacity="0.9" stroke-width="5.0"/>
<rect x="691" y="691" width="309" height="309" fill="#ffffff" fill-opacity="1.0"/>
<rect x="694" y="694" width="302" height="302" fill="#000000" fill-opacity="1.0"/>
<rect x="700" y="700" width="300" height="300" fill="#70add3" fill-opacity="1.0"/>
<path class="zh" d="M865,838l6,5l-1,9l-5,9l-6,4l-3,6v2l-3,-8l-5,-5l-5,-1l-4,6h-3l-1,-6l-2,-5l-1,-5l2,-5l4,-5v-4l-2,-2l-7,2l7,-8l10,2l10,6Z"/>
</svg>
