<?xml version="1.0" encoding="UTF-8" standalone="no"?>
<svg xmlns:svg="http://www.w3.org/2000/svg" xmlns="http://www.w3.org/2000/svg" xmlns:xlink="http://www.w3.org/1999/xlink" height="1000" width="1000">
<!-- made with pythonshp (GPL): github.com/sanjayrao77/pythonshp , underlying data may come from naturalearthdata.com -->
<!-- 
COPYRIGHT: THIS SVG FILE IS RELEASED INTO THE PUBLIC DOMAIN
 -->
<!-- 
vars : {
	'cmdline' : 'pythonshp.py publicdomain wiki1 nicaragua locatormap'
	'title' : 'Nicaragua locator'
	'version' : '1.0.5'
}
 -->
<defs>
	<radialGradient id="watergradient" cx="500" cy="500" r="500" fx="500" fy="500" gradientUnits="userSpaceOnUse">
		<stop offset="0%" stop-color="#70add3"/>
		<stop offset="11%" stop-color="#6eaad0"/>
		<stop offset="22%" stop-color="#6ca7cc"/>
		<stop offset="31%" stop-color="#6ba5c9"/>
		<stop offset="41%" stop-color="#69a2c6"/>
		<stop offset="51%" stop-color="#679fc2"/>
		<stop offset="59%" stop-color="#669dbf"/>
		<stop offset="67%" stop-color="#649abc"/>
		<stop offset="75%" stop-color="#6297b9"/>
		<stop offset="81%" stop-color="#6095b6"/>
		<stop offset="87%" stop-color="#5f92b2"/>
		<stop offset="92%" stop-color="#5d8faf"/>
		<stop offset="95%" stop-color="#5b8dac"/>
		<stop offset="98%" stop-color="#598aa8"/>
		<stop offset="100%" stop-color="#5685a2"/>
	</radialGradient>
	<radialGradient id="landgradient" cx="500" cy="500" r="500" fx="500" fy="500" gradientUnits="userSpaceOnUse">
		<stop offset="0%" stop-color="#dddddd"/>
		<stop offset="11%" stop-color="#d7d7d7"/>
		<stop offset="22%" stop-color="#d1d1d1"/>
		<stop offset="31%" stop-color="#cccccc"/>
		<stop offset="41%" stop-color="#c6c6c6"/>
		<stop offset="51%" stop-color="#c0c0c0"/>
		<stop offset="59%" stop-color="#bbbbbb"/>
		<stop offset="67%" stop-color="#b5b5b5"/>
		<stop offset="75%" stop-color="#afafaf"/>
		<stop offset="81%" stop-color="#aaaaaa"/>
		<stop offset="87%" stop-color="#a4a4a4"/>
		<stop offset="92%" stop-color="#9e9e9e"/>
		<stop offset="95%" stop-color="#999999"/>
		<stop offset="98%" stop-color="#939393"/>
		<stop offset="100%" stop-color="#888888"/>
	</radialGradient>
	<radialGradient id="bordergradient" cx="500" cy="500" r="500" fx="500" fy="500" gradientUnits="userSpaceOnUse">
		<stop offset="0%" stop-color="#444444"/>
		<stop offset="11%" stop-color="#3f3f3f"/>
		<stop offset="22%" stop-color="#3a3a3a"/>
		<stop offset="31%" stop-color="#363636"/>
		<stop offset="41%" stop-color="#323232"/>
		<stop offset="51%" stop-color="#2d2d2d"/>
		<stop offset="59%" stop-color="#292929"/>
		<stop offset="67%" stop-color="#242424"/>
		<stop offset="75%" stop-color="#1f1f1f"/>
		<stop offset="81%" stop-color="#1b1b1b"/>
		<stop offset="87%" stop-color="#161616"/>
		<stop offset="92%" stop-color="#121212"/>
		<stop offset="95%" stop-color="#0e0e0e"/>
		<stop offset="98%" stop-color="#090909"/>
		<stop offset="100%" stop-color="#000000"/>
	</radialGradient>
</defs>
<style type="text/css">
<![CDATA[
.fs {font:14px sans;stroke:#ffffff;stroke-width:2px;stroke-opacity:0.8;text-anchor:middle}
.ft {font:14px sans;fill:#000000;fill-opacity:1;stroke-opacity:0;text-anchor:middle}
.sb {stroke:url(#bordergradient);fill-opacity:0}
.sg {stroke:#000000;fill-opacity:0.0;stroke-opacity:0.2}
.sh {fill:#45a211;stroke:#000000}
.sl {fill:url(#landgradient);stroke:url(#bordergradient)}
.sp {stroke:url(#landgradient);fill-opacity:0}
.sr {stroke:url(#watergradient);fill-opacity:0}
.sw {fill:url(#watergradient);stroke:url(#watergradient);stroke-opacity:0.8}
.tb {fill:#eeeeee;stroke:black;stroke-width:2}
.tg {stroke:black;stroke-opacity:0.2;fill-opacity:0}
.th {fill:#45a211;stroke:#378100}
.tl {fill:#aaaaaa;stroke:black}
]]>
</style>
<circle cx="500.0" cy="500.0" r="500.0" fill="url(#watergradient)"/>
<path class="sl" d="M865,158h-1v-1h-1v-1l-6,-6l1,2l2,1v1h1v1v-1v1l2,2v1h1v1h1v1v-1h-2v-1v1v-1h-1l1,1l1,2l6,6v1h1l1,1v1h1l1,3l2,2v1l1,2h1v1h1v1l1,2l2,2v1l2,3h1l2,3l1,1h1v2l2,2v1l2,2v1h1v2l1,1v2l3,3h-1v1h-1v4l1,1v1l1,1h-1l-3,-3v-1h-1v-1l-1,-1l1,1l-1,-1l-2,-1v-1v1h-1l1,2h-1v-1l-1,1l-1,-1l-1,-2l-2,-2v-1h-1l-1,-2l-2,-2h1h-1v1l-1,-1v-2h-1v-1h-1v-1v1l2,2h-1v-1h-1v-1l-2,-2v-1l-1,-1l-2,-4h-1v-1l-2,-2v-1h-1l-1,-2v-1h-1l-1,-1l-1,-2h-1v-1h-1v-1h-1l-1,-1v-2h-1v-1h-1v-1h-1l1,1h-1v-2h-2v-1l-1,-1v-1h-1h1v-1l-1,-1v-2l1,1h1v-1h4v-1h2v-1l-7,-7v-1l-1,-1v1h1l-5,-5h1v1l1,1h1h-1l-1,-2h-1v-1h-2v-1l-3,-3h-1l-3,-3h-1l-1,-1v-1h-1v-1v1h-1v-1h-1v-1v1v-1h-2l-1,-1v1h-1v-1h-1v-1h-1v-1h-2v-1h-1v-3l2,1v1v-2l-5,-5h-1l-1,-1h1h-1h1l2,2v-1v1v-1h1h-1v-1h-1l-2,-2v-1l-5,-5h-1v-1h-1v-1l-2,-2h1l-1,-1h-1v-1l1,1h-1v-1h-1l-2,-2h-1l-1,-1v-1l-1,-1l-3,-2h-1h1l-2,-2h-1v-1h-1v-1h1h-1l-2,-2h1v1l-1,-1h1l1,1l-2,-1l-1,-1h-1v-1v1v-1l2,1l-2,-1h-1l-2,-2h-1v-1h-1l-1,-1h1v1h1h-1h1h-1h1l1,1h1v1v-1v1v-1h-1v-1h-1l-1,-1h1h-1h1l4,4h1l3,3h1l4,4h1l1,1h1l3,3h1l5,5h1l4,4h1l6,6h1l12,12h1l23,23Z"/>
<path class="sp" d="M790,92l4,4h1l3,3h1l4,4h1l1,1h1l3,3h1l5,5h1l4,4h1l6,6h1l12,12h1l24,24"/>
<path class="sl" d="M302,111h-1v1l-1,1v1h-1l-1,1h-1v1l-2,1h-1v-1l1,-1v-1h2v-1l1,-1v-1h1v-1h1v-1l-1,1h-3v1h-1v1h-1v-1h1v-1h1l2,-1h1l-1,-1v-2l1,-1h-1v-1h1l-1,-1l2,-2v-1h1v1v-2h1h-1v-1l2,-2h1h-1l-1,1h-1v-2l1,-1v-1l2,-2h1h-1l-5,5v1l-1,-1v-1h-1h1l1,-1v-1h1v-1v1h-2l1,-1h-2v1h1h-1l1,1h-1h1l-1,1v1h-3v-4l1,-1h-1v-2l-1,-1h2v-1h1v-1h1v1h-1l-1,1h1v-1h1v-1l-2,1h-3v-2h1h-2l-1,-1h-3v-1h-1v-1h1l1,-1h1h-2v1h-1v-1h-1h2v-1h-1v-1l1,-1h1h-3v1v-1h-1h1l1,-1h-2v1h-2v1l-1,1h-1h1h-1v1h-1l-1,1h-3l1,-1l-1,1h-1l-1,1l1,-1h-1v1h-1l-2,1v-1v1v-1l-1,1h-1l-1,1v-1v1h-2v-1h1l1,-1h2l1,-1l-1,1v-1l1,-1h2l1,-1l2,-1v-1h2l1,-1h3v1h1l-1,-1l1,-1h1l1,-1h1h-2v1h-1v-1l-2,1h-2l-1,1h-1l-1,1h-2v1h-3v1h-1l-1,1h-1v1h-1v-1l-1,1h-1l-2,1h-1v2h-1v1h-2l-1,1h-1l-1,1h-1v1l-1,-1v1h-3v1h-2l-1,1h-3v1l-1,1h-2l-1,1h-3v1h-3v1l-1,1v-1l-1,1h-2l-1,1h-1h1v-1h-1v1h-2v1v-1h-1v1h-1l1,-1h1v-1l-1,1h-1l-2,1v1h-1v-1h1l-1,1h-1v-1v1h-1l1,-1h2v-1h1l2,-1h1l1,-1h1v1h-1h2v-1h1l1,-1h1l1,-1h1l2,-1h2v-1v1h-1h1l2,-2h2v-1h3v-1h1l2,-2h1v-1h2v-1h2l2,-2h2h-2l-1,1h-2v-1h1v-1h1v1v-1h-1v1v-1l-1,1h-1v1l-1,1h-1l1,-2h1v-1v1h-1l1,-1v-1l-1,1h-2v1h-1v-1h1l1,-1h1v-1l1,-1h2v-1h1l2,-2l4,-2l1,-1h1h-1l-2,1h-1v1h-1l-1,1h-2v-1h1v-1l1,-1h1l2,-2h1v1h-1h1l-1,1l1,-1h1v-1h1h-1v-1h1l1,-1l-1,1l1,-1h-1v1v-1h1v-1h2v-1l-1,1l1,-1h1l1,-1h2v-1l2,-1h3v-1h1h-1h1l1,-1h1l1,-1h1v1h-1h1h-1h2l2,-1h1h-1h4v-1h1l2,-2h1l1,-1h2l1,-1h-3l-1,1h-1h1l1,-1h-1v1h-1l1,-1h-2v-1l1,-1h2v-1h1l1,-1h1v-1h1v-1h3l1,-1h3l1,-1v1l1,-1h2l-1,1v-1v1h-1l-1,1h-2l1,1h2l1,-1l-1,1h1h-1h1v-1h1h-1h1l1,-1v-1h1l-1,1h-1v1h1h-1h2v-1l-1,1v-1h1v-1h2v-1h-1l1,-1h1l1,-1h1l3,-2v-1h1v-1h3l1,-1h5l1,-1h1l2,-1h1l3,-1h2v-1v1h-1h3l2,-1l-1,1h-1h1l1,-1h6l1,-1h1v1h-2l-1,1h1l1,-1h1l-1,1h-1h3v1h-2v1h-1l1,1v-1h1v1h2v2h2v1h4v2h1l1,1v3h2v1h1v-1h1v-1h3v-1h1l1,1l1,-1h1h-1h1v1h-1h2l1,-1h6l1,-1h3v1h-4l-1,1h-4l-1,1h-3l-1,1h-2v1l1,-1h2v-1h4v-1h1v1l1,-1v1h-1h1l1,-1h3l1,-1h2l-1,1h1l2,-1h2l1,-1v-1h1v2l-1,1h-1v2h2l1,-1h1v-1v1v-1h3v-1v1h-1v1l-2,1h4l1,-1h4v1h1v1h1l2,1l1,1h1l1,1h2l1,-1v1l1,-1v1h1l1,1v2h-4l-1,1h-1h2l1,1h13v-1v1h1v1h1v1l1,-1v1l1,1l-1,1h-1v-1v1h1v2h1v1v-1l-1,-1h1v-1h2v-4h3v-1h3l1,-1h2v-1h-1l-1,1h-3v1h-1v-1l-1,1h-2l-1,-1h1l1,-1h6l1,-1h2v3h1v1h4l1,1h1l1,1v-1h1v1h2v-1h5v1h4v-1h-1v-1h1v1l1,1h3v-1h-4v-1h1h-1v-1h5v1h2l-1,1l1,-1h1l-1,2l-1,1v1h2l1,1h-4l2,2v-1h-1v-1l2,1v-1h1v-3l1,-1h2l1,-1h1l1,-1h1v-2l-1,1h-2l1,-1h2v-1h-1h2v-1v1h-1h1v-1h1h-3v-1h-1v1l-1,-1h-2l-1,-1v-1l1,-1h1v-1h-1v-1h1v-1h2l1,-1h-1h1v-1h5v1l1,1v2h1v1h1v1h1v1h-1v-1h-1v1h-1h2l-1,1h-1h1v1h4v1h-2l2,1v3h2v-1l1,-1v-1l1,-1h1l1,1h1l1,1v1h1v1h-2v2l3,3l1,-1h1v-1h1v-1l1,-1h1v-2l1,-1h1l1,-1h-1l-1,-1v-2h9l1,1h-1l1,1h3v1h-1l-1,1h3l-1,1h-3v1l1,1v-1v2h2v1h1v2h-1v1h-1l-1,1h-2l-1,1h-2l-1,-1h-1v-1h-1v-1h-1v1h-1h2l1,1h1v1l1,1h-4l-1,-1h-1v-1l-1,1h-3l1,1h1v1l-2,1l-1,1h-1v1h-4l-2,-2h-1l-1,-1h-7l1,1v-1h2l1,1h2l2,2h7v2h-1l-2,2v1h-1l-1,1h-3v-1v1h-2v-1h-1v1h-1l1,1h-1l-1,1l-1,-1v1h-2l-1,-1h-4l-2,-1h-1l-1,-1v1l1,1v-1h1l2,1h1l-1,1h1l1,-1h1l1,1h1l1,1v2h-2l-1,1l-1,-1h-2l-1,1h2v1h-3l-1,1h1v1v-1h-1l-1,1h-1v1h-1h1v1h-2l-1,1v1h-1v1h-1l-1,1v1h-1v1h-1h1l-1,1v1l-1,1v2l-1,1v1h-1h1v1h1v1h1l-1,2h1v-1l1,-1h4v1l1,2v2l1,2v1l-1,1v1h-1h1v-1h1v1h1l1,-1l4,-1h3l1,1h1l1,1h3l1,1h1l1,1h1l1,1h1l3,3h2l2,1h3l1,1h1v1h1l-1,2l1,-1h4l1,-1h1l2,1h5l2,2l-1,2v2l2,2v4h-1v1h1v1h1l2,2v1h-1v1l1,-1h1v1h1l1,1h1l1,1h1v1l1,1v1h-1l-1,1h1l1,-1h2l2,2l2,1v-1h-1l-1,-1v-2h1v-1h1v1h2v1h1v-2l-1,-1v-1h1v-1l1,-1l-2,-2v-2h-1v-2l-1,-1v-1l-1,-1h1v-1h-1h1l-1,-1h-1h1h-1v-1h-1v-1l-1,-1l4,-1v-1h2l1,-1h1l1,-1l2,-1v-1h1v-1l1,-1v-1h1v-2l-1,-1v-3h-1v-1l-1,-1v-1l-4,-2h-1l-1,-1l-2,-1h-1v-2h1l1,-1v-1h1v-1h-1h1v-1l1,1h1h-1v-3h-1h1l-2,-2h1h-1v-2h-2l1,-1v-2h1l-1,-1h-1v-1h-1v-3h6l3,1h1h-1h4l1,1v-1h1l1,-1h3v1h3v1h1v1h2v1h-1h2v-1l1,1h-1v1h1l1,1h4v1l1,-1h1v1h2v-1h1v4l1,1l-1,1h1v1h1v2h2v3h-1v-1h-1v1h-1h1l1,1l1,-1h1v-1h3l2,2v3h-2v1l1,-1h2v-2h1v1v-1h1v1h1v1v-2h2v-1h1v-1h2l1,1v-1h-1v-1h1h-1v-1h1l-1,-1h1v-1v1v-1h1h-1v-1h-1v-1h1v-3h1l1,1l-1,1h3v1h1l1,1h1v1h-1h1v1l1,-1l1,1l-1,1h-1h2l1,-1v1h1v1v-1l2,2h-1l-1,1h2l1,-1l1,1l-2,2h1l1,-1h1l1,1h2v1l1,1h-1v1h-1h3v1h1l2,1v1h1v1h-5v-1v1h2l1,1h1h-1v1h2v1h2v1h3l1,1h1v1h2v1h-1v2l1,-1h2v-1h1v1h1l-1,1v1h1l1,-1v-1h1l2,2h3v-1h1v1h2l1,1v1h-2v1h-1l-1,1h-1v1h-1l-1,1h-2v1h-1l1,1v1h1v-1l1,-1h1l2,-2l2,-1h1h-2v-1h4l2,2h1v1h-1v1h1l2,-2h1v1h2l1,1h1v1h1v2h1v1h1v1h-1l1,1h1h-1l1,1h1v1l-1,1v1l-1,1l-2,1h-2l-1,1h-2v1l-1,-1l-1,1l-1,2v1l-2,2v1h-1l-2,1h-4l-2,1l-1,-1h-18l-3,1h-3l-2,2l-1,2v2h-1l-3,1h-1h1h-1v1h-1l-1,1h-1l-1,2v1l-2,2h-1l-1,-1h-2l-4,-1h1v1h5l1,1h1v2l-3,3l-1,2l-1,1h-1l-2,2h-3l-3,3h-2v1h-1v1l-2,2h-1v1h-2l1,1l-2,1l-2,2h5l2,-1h13v-2h3v-1h1v-1l1,-1v-1h1l-1,-1v-2l1,-1v-2l1,-2l2,-2v-1h1v2h3l1,-1h2l2,2v2l1,1v1l1,1v4h3v3h2l1,1v1h1l-1,2l-1,-1l-1,1h-2v2h-1v-1h-2v2h-1v-1h-1v-1h-1v3h-1v1h-2v1v-1h-1v1v-1v1h-2l-1,1h1l-2,2v2h-1v2l1,1h1l-1,1h-1v1l-1,1h2l2,2h-1h1l1,1v1h1l1,-1h1l-2,-2v1v-1h1l1,1v2h-3v1h-1v-1h-1l-1,1h-1v1v-1h-1l1,-1h-2v-1v3l-2,1h-7l-1,1h-1l-2,1l-2,2v-3h-1l1,1v1l-1,1v1h-1v1l2,1v-1v6l-1,1h-1v2h-1v1l-2,2v-2h-1l-1,-1h-1l-1,-1v-3h2v-1v1h-2v1l-1,1h1v1l1,1v2h1l1,2h1l-1,1h1v2l-1,1v1h-1l-1,3v1l-1,1v1l-1,1v-3l1,-2v-1h-1v-1l-1,-1h1v-1h-1v1v-1v1h-1v-1h-1v-2h1l-1,-1h-1h1v-1h-1v-1h1v-1v1l-1,-1l1,-1h2l-1,-1h1h-1v-1h-1v1l-1,1v-1v1v-1v1h-1v1l-1,-1v1h1v1h-1h1v4h1v1h-1l-1,-1v-1v1l3,3h-1v-1h-2l-1,-1v1l-1,-1h-2v-1l2,-2l-1,-1v2h-1v2h2l1,1l2,1l1,1h1v2h-1l-2,-2h-1v-1h-2l2,1l2,2h1v1h2v2l-1,-1v1h-1l-2,-2v1l1,1h1l1,1h1v1h-2v-1h-1l-2,-1h-2h2v1h2v1l1,1h4v1l1,1l1,3l2,3l-1,-2l-1,-1l-1,-3h-1h1l-1,1h1v2l1,1l-1,-1h-1v1l-1,-1v1h-1l-1,1l-2,-2v1l1,1h4v2h1v-1l1,-1l1,1v1l-2,1l-1,1v1h-1l-1,-1h-1v-1v1h-2l-1,-1v1l3,1h1l-1,1v1l-1,1l-1,-1v1h1l2,-1l1,1v1h-2v1h-4v1l-1,-1v1l-1,1h-1v1l-1,1v2l-1,-1v-1v2h-4l-2,1v1l-2,2v1h-1v-1v1l1,1h-1l-1,1h-1v1l-1,1h-1v1h-2v1h-3l1,1v1h-1v-1h-2l1,1v1h-1v2h-2l1,1h-1v1h-1v1h1l-1,1h-1h1v2h-1v-1v5l1,3v1l1,3l3,6l3,4v1h-1v1l1,1l1,2h-1l-1,-2v-2l-1,-1l1,-1h-1v-1h-1l1,1v2l1,1v1l4,7v2h1v9l-1,2v1l-1,1v1l-1,1h-3l-1,1h-1v-2l1,1l1,-1h-2l-1,-2l-1,-1v-1l-1,-1h-2v-2l-1,-2l-1,-1h1v-1l-1,1l-1,-1v-2h1h-1v1h-1v-1h-1l-1,-1l-1,-3l-1,-1h1l1,-1v-1h1v-1h-2v-1h-1l1,1v1h-1v1v-1l-1,-1l1,-3l1,-2v-3l-5,-5l-4,-3l-2,-2l-2,1h-1v1h-1l-2,1h-3l-1,1l-1,-1v-1l1,1v-1l-1,-1l-2,-1h1v-1h-1v1l-1,-1l-2,-1h-1h1v-1h-3l-1,1h-2v-1h-2v1h-1l-1,1v-1l-1,1h-1l-1,-1v-1l-1,-1l-1,1v1h-9l-2,2l-3,-1v-1h-2l-1,1v1h1l1,1l1,-1h2v1h-1l1,1h1v-1h1l1,1l-1,1h-1v1h-1v1h1v1h3v1h1v1h-1v1l-1,-1v1h-1v-2h-2v-1h-1v-1h-2v3h-1l-1,-1h-2l-1,1l-2,-1h-2v-1h1l-1,-1v-1v1l-2,-1l-1,-1h-1l-1,-1l-1,1v1h-5l-2,-1l-1,-1h-4l-1,1v-2l-1,1v1h-1l-4,2h-1l2,-1h-2v-2h-1v1h-1v2h1l-2,2v1l-1,1h-1l-3,1v1h-1l-1,1h-1l1,-1h-4v-1h-1v1l2,2h-3v1h-1v1l-1,-1v1h-1v1l1,-1l-2,2h-2l1,2l-1,2v1h-1l-2,-2l1,2h1v7l2,3v2l-4,7l-1,5l-1,3v2l-1,4v3l-1,1v6l1,2l2,2v3l-1,-1l1,-1v-1h-1l-1,-1l-1,-3l1,5h1v1l2,5v1l5,7l1,2v2l3,3v1l1,1h-1h1l1,1h1h-1v-1l1,1h3l1,1l2,1l1,1l1,2h1l2,-1h2l1,-1h2l3,-1l1,1l2,-1h1v-1h4l1,-1h1l1,1l-1,1h2l1,1h1l2,-2v-1h-1v-1h-1h1l2,-1l1,-1h1l2,-2v-4l2,-1v-7l1,-2l4,-2l8,-1l1,-1h2l1,-1h3l2,1h3v-1h3l2,2v3l-1,1v1l-2,2l-2,3l-1,1v1l1,1h-1l-1,1v1h2v1h-1v1h-1v1l1,-1v1l-1,2v2l-1,1v2l-1,1l-2,-2l1,-1v-1h-1l-1,1v1l-1,1v1h2v2l-1,2v4l-1,1v1l1,2l-2,4l-4,4v1h2v1l1,-1v-1l3,2h1l1,-1h3l1,1l1,-1h1l3,1h4l2,-1h1l1,-1h1l3,1h2l1,-1h1l3,1v1h1l1,-1h1l4,4l-2,-1h-1v1h2l1,1v1h1v-1h1v1v-1l-1,-1l2,1l1,2h1v1l-1,1v-1l-1,1v1h1l1,3v1l-1,1v1h-1v2l-1,4v8h-1v-1l1,-1v-1l-1,1v1h-1l1,1v3h-1v2h1v2h-1v2l-1,1l1,1v1l1,1h1v2l1,2l1,1l2,3h1l1,2h1v1h1l2,2v1l1,1h1v2h4l-1,-1h-1l1,-1v1h1l2,2h4l2,-1l1,-1l5,-1l1,-2h1l1,-1h1v-1h2l1,1h3v1l2,-1l5,2l2,2l2,1l2,2v1l-1,1h1v1h1v1l1,2l-1,1v1l-2,2h-1v-1l-1,-1v3l-1,2v-1l-2,-2l-2,-3l-1,-2h2v-1l1,-1h1v1l2,1l-2,-2v-1h-3v1l-1,-1v-2h-2v-1h-1l-2,-2h-3l-1,1h-1v1h-1v1l-1,1h1l-3,2h-1l-1,1h-1v2h1l1,1l1,2l1,1l-1,1h-1l-1,1h-1l-2,1h-2v-2l-1,-2v-2h-1v2l-1,1v-1h-2l-2,-3v-1h-1l-1,-1h-1l-1,1v-1h-3l-1,-1l-1,1h-1v1l-2,-2v-2h-1l-1,-1h-1v1l1,1h1v1h-2l-2,-2v-1l1,-1v-2l-1,-1l-4,-2h-1l-2,-1h-1v-2l-3,-3l-2,-1v2h2l1,1l-1,2h-1v1l-2,-2l-3,-1v-1l-1,-1l-1,-2l2,-2v-2h-1l-1,-1l1,-1v-2l-1,-1l-5,-3l-2,-4l-1,-1l-2,-1l-3,-3l-2,-1v-1l1,-1l1,1h1v-1h-1v-2l-1,-1l-1,1h-1v-1v1l-1,1h-4l-2,-1h-1h1v1h1l-7,-2l-2,-1h-2l-2,-2l-5,-1h-4l-6,-3l-11,-11l-3,-2l-1,-2l-2,-1l-2,-2h-2l1,1h1l1,1h1l-4,-1l-2,-1l1,-1h-1l-1,1v-1h-1l-1,1h1l-7,3l-4,2h-2l-10,-3l-3,-2l-4,-1l-1,-2h-2v-1h-3l-3,-1l-2,-2h-2l-5,-2l-2,-2l-2,-1l-3,-3v-1h-3l-3,-1h-1l-6,-3v-1l-5,-5h-1l-2,-1l-3,-3v-1l-2,-1l-1,-2v-2l-1,-1v-1l1,-1h2l1,-1l-1,-1h-1v-1h1l1,-1v-2l1,-1v-1l-2,-1v-2l-1,-1v-6l-1,-1h-1l-3,-6l-1,-1l-1,-3l-6,-5h1l1,1v-1h-2l-1,-1v-1l-1,-2v-1v1h1v-1l-2,-1h-1l-1,-2v-1h-1l-1,1l-1,-1h1l1,-1h-2v1l-1,-1v-4l1,-1h1v-2l-2,-2h-2v-3l-3,-1l-1,-1v-4h1l-2,-1h-2l-2,-4l-1,-1v-1h-1v-2h-1v-3l-1,-1v-2l-1,-1v-5l-1,-2v-3l1,-1h-1h1v-1h-1v-1h-2v-2h-1l-1,-1v1h-2l-1,-2h-1l-1,-1v2l-1,1l-1,3l1,1l-1,2v6l2,2v1l1,2h1l1,2v2h1v3l1,1h1v5l1,1l1,2v2l1,1v1l1,1v3h1l-1,-1v-2l2,2v7l1,2v1l1,3l1,1v2l-1,1v2l2,2h1v-2l2,2v1l1,1v2l2,2v1l-1,1v1h-1l-1,1h-1l-1,1l-1,-1v-5h-1l-1,-2l-7,-7h-1v-1l-1,-1v-2l1,-2v-5l-1,-3h-1l-3,-3v-2h-2l-1,1l-1,-1v-1h-1v-1h-1v-1h-2v-3h-1l-1,-2h-1v-1h1l2,1h1l1,-1v1l1,1v-2h-1l1,-1l1,-2l1,-1v-2l-1,-1l-3,-5l-2,-2l-2,-1v-2h-1l1,-1v-3h-1v-1l1,-1v-1l-1,-2v-1l-1,-2v-3l1,-1l-1,-1v-1l-1,-1v-8l-1,-2l-2,-2h-2l1,-1l-1,-1h-1l-2,-1l-1,-1h1l-2,-2h-5v-1h-1l1,-1v-2l1,-1v-1h-1v-2l-1,-1v-3l-1,-2l-1,-1l1,-1v-1l1,-1v-2h-1l-1,-2l1,-1v-3h1v2h1v-4h1v-1h-1l-1,2v1l-2,-2v-2l1,1v-1h-1v-3l-1,-2v-1l1,-2v-1l1,-1v-4l-1,-1v-1l2,-2h1v-1l1,-1v-1l2,-2v-3h1v-4l1,-1v-1l1,-1v-1h1l1,-2l1,-1h1h-1l2,-2l2,-4l2,-2v-1l4,-5l2,-4v-1l1,1h2v-1h-3l2,-2h1l-1,-1v-1h1v-1v1v-2l1,-1v-4l1,-1v-1l1,-1l1,1h1v1l3,1l1,-1v1h1v1l-1,1l-2,1l-1,1v1v-1h1h-1h1v-1h1l1,-1h1v-1h1v1h-1l-1,1v1l-2,2v-1h-1v1h-1h3v-1h2v-2l2,-2h1v-1h-1v-1v1v-1h1v-1h-1v-1h1l1,-1v-2h-1v-2h1h-1l1,-1v-1h1h-1v1h-3v-2h1v1h1h-1v-1l1,-1v-1h1v-1v1l-1,1h-1l-1,1h-1v-1l-1,-1h1v-3h1l1,-1v-1h1h-1v1h-1l-1,1h-2l1,-1h-1v1h-2l-1,-1h2l1,-1h-2v-1l1,-1l-1,1h-3v-1h-1v-1l3,-3h1l-1,1h-1v-2h1l1,-1h-1l1,-1h1v-1h3v1l1,-1h-1v-1h1l1,-1h1v-1l-1,1h-1l-3,2h-1l-2,2l-2,1l1,-1v-1l2,-1l1,-1h1h-2v1v-1l3,-3l-2,1v-1l1,-1v-1l-1,-1l1,-1h1v-1l1,1h-1l1,1h1v1v-1h-1v-2h2v-1h-1l-1,1h-1l-2,2h-1l-1,1v-2l-1,-1l1,-1h2v-1h2v-1h-2v-1h1v-1h1v-1h2v-1l2,-1l1,-1l2,-1l-1,1v-1v1h-1l-1,1h-1h1v-1h1v-1h1v-1Z"/>
<path class="sl" d="M776,511v-2h1l2,2l1,3v4l1,2l1,3v2l1,1v2h1v1l1,1h2l1,1l1,2v3l-3,3l-1,2l-1,1l-1,2l-1,1h-1l-1,2h-1v1l-1,2l-1,1l-1,2v3h-1l-1,1v2h-2l-2,1l-1,1h5l3,-3l2,-1l3,-3v4l1,1v2l2,2h1l1,-1h4l2,-2l-1,3v2l-1,2v1l1,-1v-1l2,-4l1,-1l2,-3h1l1,1v-1h1l-1,-1v-2l1,-1v-1l2,-2h1l1,-1v1h1v-1l1,1v-1h2v1h1l1,-1v1h1l1,1h1v1h3v1h1l1,1h2v3h1v-2h1l1,1h1v1h1l1,1v1l-1,1v1h-1v1h1v-1l1,-1l1,1v1h-1v1h-1v2l-1,4h1l1,-2v-2l1,-2h1v3l1,-2v-1l1,1l1,-1l2,-1v-1h1l2,1h1l1,1l2,1h4v1h2l1,-1h2l2,-1h4l3,3l2,1l4,4l2,3l2,2l2,1v2h2l1,1h3l1,-1l3,1l1,3v5l1,2v10l-1,1v3l-1,3l-1,5l-2,2l-1,3l-2,2v1l-3,3l-1,3l-2,1v1l-2,1l-1,2v1l-1,2h-1l1,-1l-1,1v1l-1,1l-1,4l-3,3v1l-2,3l-1,1v-2l-1,-1v1l-1,1v2l-1,1v1l-1,1v1h-1h1v1l-1,1v2l-1,5v3l-1,2v5l-1,3l-1,2l-1,3l-1,2v1l-1,1v3l-3,3l-1,2l-1,3l-1,2v3l-1,2v1h-1l-1,1l-2,4l-1,1v1l-3,3h-1v1l-2,2l-2,6l-1,1l-3,2h-1l-2,2v3h-1l-3,1h-3v-2l-1,1v1l-1,1h-2l-1,1l-1,-1h2l-1,-1l-1,1h-2l-2,1v2h-2l-2,2h-1l-1,1v1h-4l-4,3l-2,1l-2,2l-4,3l-2,1l-1,1v1h-1l-1,2v-1h-2v1h-1l1,1l-1,2h-1v1l-1,2h-1l1,1l-1,1v5h-1v1l-1,2v2l-1,2l-2,2v1l-2,1l-2,2l-2,1l-2,2l-9,12l-2,1l-3,3l-3,2l-2,1l-2,2v-2h2l1,-1l2,-1l3,-3v-1h1l3,-3v-2l1,1v-1l1,-1h-1l-2,1h-1l1,-1h-1v-1h-1v1l1,1l-2,2v1l-1,1h-1v2l-2,1h-2v2h-1l-2,2v2l-2,2l-2,3l-4,4l-4,3h-1v1l-3,3l-2,1l-1,1h-1v1l-4,1h-3l-2,-1l-1,1h-2v1v-1h-2l-2,-1l-1,-1h-5v-1l-2,-2v-2l1,-1l1,-2l1,-1h1v-2l1,-1v-1l-1,1v2l-1,1h-1l-2,4v4h-2v1l1,1v1l3,1l3,3l-3,3v2l1,1h2v1l-1,2v1l-7,5l-1,1v2h-1l-4,2l-6,2l-4,1l-9,1h-2l-1,1l-2,-1h-3v2l1,1h-1l1,1h-1l-1,2h-1v1l-1,1v1l-1,1l1,1l-1,1l-3,1l-1,1h-5l-2,-1h-4v-1h-1l-2,2v4l-1,1v1h1l1,1h1l-1,1h3v-1h-1h1l1,-1h2v2l-1,1v1h-4l1,-1h-1l-1,-1l-1,1h-2v1l2,1h1v1h-3l-1,1l-2,1v1h-1v2l-1,1v1l-1,1l-2,1l-1,1h1l-1,1h-4l-1,1h-3l-3,3l-2,1v3l3,3h5v1l-1,1v1h-1l-1,1h-1h2v1h-1l-3,1l-1,1h-1l-2,1h-1l-2,2l-2,1v1l-1,2l-1,1h-2l-1,1v-1h-1v-1v1h-1h1v1h1h-2v1h-2v1h-1v1h-1v1h-1h1v2l-1,1h-1h2v2h1v1h-5l-1,1h-2l-2,1h-3v1l-1,2h-1v2h-6v-1h-1v-1h3v1h-1h1l1,-1l2,-1l1,-1h-1l-3,1h-2l-1,1h-1v1h-1l-1,-1l1,-1v-1h3l2,-1h-4l-1,1v1h-3v-1h1l1,-1h1v-1h-1v1h-4v-1h-1v-1h6l1,-1h2v1l-1,1h1v-2h1v-1l-1,-1h-2h2v1h1h-1l-1,1h-2l-1,1h-1v-1l-1,-1h-2l1,-1l1,1v-2h-2l-1,-1h-1l-1,-1v-1h2v-1h2v2h2l1,-1h1h-1l1,-1l-2,2h-1v-2h-1l-1,-1l1,-1h2l-1,-1v-1h3l-1,-1v-1h1v-1l-2,2v1l-1,-1l1,-2v-2h2v-1h-1l-1,1v-1l-1,-1l1,-1h4l1,1h1v-1h-1v-1h-1l-1,1h-2v-1h-1v-1h2l-1,-1h1l1,-1v-2h-4v-2l-1,1h-2l-1,1h1v1l-1,-1v-1l1,-1h2l1,-1h1l-1,-1v-1h5l1,-1v-1h1v-1h1v1l-1,2h-1v1l-2,1h2l1,-1v-1h1v1l-1,2h-1v1h1v-1h1v-2l1,-1v-1h-1l1,-1h1l1,-1h1l1,1h1v-1h-1l-1,-1h-1l1,-1h1l3,-1v-1l1,-1h-1l-1,-1h-2v-1l1,-1h1l1,-2h-1v-1l1,-1h1v-1h1v-3h1v-2h1v1l1,1v-3h-2v-1h1l1,-1h1l1,-1h-1v1h-2l-1,-1h-1v1l-1,1h-4v-1h1l-1,-1v-1l-1,-1v-1h1l1,-3l2,-2v-1h1l1,-1l1,-2v-1l-1,-4v-2l1,-1v-1l-1,-2l1,-1v-2h3v-1l1,-1v-1l2,-2l1,-3h1l1,-1v-2h1v-1l2,-2v-1l2,-2v-3l4,-4l-1,-1l1,-1v-2h1l1,-2v-1l1,-1l-1,-1v-11l1,-2l2,-1l1,-2v-8h1v-1l2,-2v-2l1,-2v-1l1,-1h1v-3l1,-1v-1l1,-2v-1l1,-1v-4l1,-2l1,-1v-8l1,-1v-3l1,-1v-1h-1v-4h2v-1l1,-2l1,-3v-3l1,-1v-2l1,-1l-1,-6l1,-2v-8l-1,-3l1,-2v-2h-1v-1l-3,-1l-2,-2l-2,-1v-3h-1l-2,-1h-1l-2,-2h-1l-1,-1v-1h-3l-1,-1l-3,-1l-1,-1l-2,-1h-1l-3,-2h-2l-1,-2l-4,-2h-1l-1,-2h-1l-1,-2l-1,-1l-2,-1l-2,-2v-1l-1,-1v-3h1v-3l-2,-2v-1l-3,-6l-1,-1h-1v-1h-1v-3l-3,-3v-1l-1,-1v-2l-3,-5l-1,-1l-1,-3v-1l-3,-6v-1l-1,-1l-2,-4l-3,-3l-1,-4l-1,-1l-1,-2l-3,-3l-8,-4l-1,-1v-2h2v-1l1,-1l-1,-1l-2,-3l1,-1l-2,-2v-4l4,-4v-1l2,-1l2,-2h2v-1h1l1,-1l1,-3l1,-2v-1l-1,-1v-2h-1v4h-1v-2l-1,2l-1,1h-2l-3,-3h-1v-1l1,-1h1v-2l-1,-2v-6h2l1,-1v-2h1l-1,-1v-1l3,-3l1,-2v-5l1,-1h1l1,-1h2l2,-1l3,-1l1,-1l-1,-1v-1h-1v-2h4v-1l-1,-1v-2l2,-2h3l3,-3v-2h1l1,-1v-1l1,-1v-1l1,-1l2,-3l-1,1h-1v-2l-1,1v-1h-1l1,-1h-1v-1h1v-2l1,-2h-1v-6l-2,-1l2,-1l1,-1l-1,-2l-1,-1v-1h1v-3l-1,-1h-1v-1h-1v-1l-1,-2h-1l1,-2v-3l1,1v1h1l2,-2v-1l1,-1l-1,-2v-1h-1v-1h-1l1,-1v-1h1v2h1l3,3h-1v1h2v-3l-1,-1v-1h-1l1,-1h1l4,-3l1,-2l2,-2h2v-6l1,-1h-1v1h-1l1,-1v-1l1,-1v-1l2,-1v-1l1,-1l2,-1v-1l5,1h-1v1h-1l1,1l1,-1l1,-2v-2h2l1,1h1l3,-1l7,-4l2,-2l1,-2h1v-1l2,-1h2l2,1l1,1v1l-1,2h-1v1h-1l-3,1l-1,1v1l1,2l2,2h-1l2,2v1l-1,2l-2,2v1l-1,2l1,2l1,1v1h1v2l1,1h1l2,-1v-1l1,-1v-1l1,-2l-1,-1l-1,-2v-1l-1,-1l-1,-2l-1,-1v-1l1,-1v-1h1l6,-3l3,-1l1,-1h2v-2h-1l-2,1v-1l-1,-1v-1l1,-1v-1h1l2,2v2l2,2h6l4,2v1l1,1v4h6l3,-1h2l6,-1l1,1v1l2,2h3l1,1h4l5,-4h4l-1,-1h-2l-1,1l-1,-1h1l3,-1h7l2,-1h7l-1,1h-2l-1,1h-4v1h1v1l1,1l-1,1h1v-1h1l1,2l1,1h1v-1h1l2,2v1v-2h1v-1l1,1l2,1v1h2l2,2l-1,1h-1v3l-1,1v1l-3,1h1l1,1l1,-1h1l2,-1l3,1v-1h4l1,2h1l4,2l4,4h1l1,2v3l-1,2v4l1,-1v-3l1,-1h2v1h1l2,1l1,2l1,1h1l1,1h1v3l1,-1v-1h4l2,1h2l1,1v-1h-1l1,-1h3l2,-1h2l4,1h2v4l1,-2v-1h1l3,1h1l3,1l3,3l2,1v1l2,2v2l1,-1v-2l1,1v2l1,1Z"/>
<path class="sl" d="M998,454v-1v2ZM998,453v-1ZM998,451l-1,-1h1v1l-1,-1v-3l-1,1v12l-1,1v4h-1v-1h-1v-1h-2v1l1,-1l-1,1v1v-1l-1,1h1l-2,2v3l-1,1v2l-1,1l-4,-4v-2l-3,-6v-1h-1v-1l-1,-1v-1h-1l-1,-2v-1l-2,-2h-1v-3l-1,-1v-2h-1v-2l-1,-1h1v-2h-1v1v-3l-1,-1v-3h-1v-2l-1,-1v-1h-1v-2l-1,1v-1l-1,-3l-1,-1v-1v1v-2h-1v1v-1l-1,-1v1v-1l-1,-1v-3h1l-1,-1v1l-1,-1v-1h1v-1h-1v1l-1,1v-1l-1,-1v1h-1v-2l-2,-1v-3l1,1v-1h-1v1v-1l-1,-2v-2l-1,-2l1,-1v2h1v-2h1l1,-1l-1,1h-1v1h-1v-2l-1,-1v-1h-1v-1h1v-1h-1v1v-1l-1,-1v-1l-1,-1v-1l-1,-1v1l-1,-1h1v-10l-1,-4v-2l-1,-3v-3l-1,-3v-3l-1,-2l-1,-3l-1,-1l-1,-3v-1l-2,-2h1v-1l-1,1v-5l-1,-1v-1l-1,-1l-1,-2v-1v1l-1,-1l-1,-2l-1,-1v1l1,2l-2,-5l-1,-4v-6l-1,-2v-2h-1v-4l-1,-2v-1v1v-9l-1,-1l-1,-3v-1l-1,-1v-3l-1,-1v-1l-1,-1l1,-1l-1,-1h1v-3l-1,-1v-2l-1,-3l-1,-1v-3l1,-1v-9l-1,-3l-1,-2v-2l-1,-1v-1l-1,-2l-1,-1v-1h-1v-1l-2,-2l-1,-3l-1,-2l-1,-3l-1,-2l-1,-1v-1l-1,-3l-1,-2v-4l-1,-2v-1l-3,-6l-4,-7v-2l-1,-1l1,1v1l3,3h2v-2l1,1h1v-2l-1,-1v-1l-1,-1v-3l-2,-2v-1l-1,-1v-3l-1,-1v-2l1,1l-1,-1v-2l-1,-1v1v-1l-1,-1l1,1v1v-2h-1l-1,-1v-1l-1,-1l1,1v1h1l1,1v1l2,2v1l4,4v1l1,1v1l4,4v1l1,1v1l2,2v1l3,3v1l2,2v1l1,1v1l3,3v1l1,1v1l2,2v1l1,1v1l1,1v1l3,3v1l1,1v1l1,1v1l2,2v1l1,1v1l1,1v1l1,1v1l2,2v1l1,1v1l1,1v1l1,1v1l2,2v1l1,1v2l1,1v1l1,1v1l1,1v1l1,1v1l1,1v1l1,1v1l1,1v1l1,1v1l1,1v1l1,1v2l1,1v1l1,1v1l1,1v1l1,1v2l1,1v1l1,1v2l1,1v1l1,1v1l1,1v2l1,1v1l1,1v2l1,1v1l1,1v2l1,1v2l1,1v1l1,1v2l1,1v2l1,1v2l1,1v2l1,1v2l1,1v2l1,1v3l1,1v2l1,1v2l1,1v2l1,1v3l1,1v2l1,1v4l1,1v2l1,1v3l1,1v3l1,1v3l1,1v4l1,1v4l1,1v3l1,1v5l1,1v4l1,1v5l1,1v6l1,1v5l1,1v7l1,1v9Z"/>
<path class="sp" d="M998,453v2M998,451v2M896,195l1,1v1h1l1,1v1l2,2v1l4,4v1l1,1v1l4,4v1l1,1v1l2,2v1l3,3v1l2,2v1l1,1v1l3,3v1l1,1v1l2,2v1l1,1v1l1,1v1l3,3v1l1,1v1l1,1v1l2,2v1l1,1v1l1,1v1l1,1v1l2,2v1l1,1v1l1,1v1l1,1v1l2,2v1l1,1v2l1,1v1l1,1v1l1,1v1l1,1v1l1,1v1l1,1v1l1,1v1l1,1v1l1,1v1l1,1v2l1,1v1l1,1v1l1,1v1l1,1v2l1,1v1l1,1v2l1,1v1l1,1v1l1,1v2l1,1v1l1,1v2l1,1v1l1,1v2l1,1v2l1,1v1l1,1v2l1,1v2l1,1v2l1,1v2l1,1v2l1,1v2l1,1v3l1,1v2l1,1v2l1,1v2l1,1v3l1,1v2l1,1v4l1,1v2l1,1v3l1,1v3l1,1v3l1,1v4l1,1v4l1,1v3l1,1v5l1,1v4l1,1v5l1,1v6l1,1v5l1,1v7l1,1v9l1,1"/>
<path class="sl" d="M776,83h1v1h1v1h1l2,2v-1h-1v-1h-2v-1l-2,-1h-1v-1h-1l-1,-1h-1l-1,-1l-3,-2l-1,-1v1l-2,-2l-2,-1h-1l-1,-1h-1h1l-1,-1l-2,-1l-1,-1h-2v-1l1,1h-1v-1h-1l-1,-1h-1l-1,-1h-1h1l1,1h1v1h1l2,1l1,1l-1,-1l1,1h1v1h1l1,1l2,1l2,2h1h-1h1h-2v-1v1l-1,-1h-1l-1,-1h-1l-1,-1h-1h1l-1,-1l1,1l-1,-1h-1l-2,-2h-1h1v1h1l1,1l-2,-1l-1,-1h-1h1l-1,-1h-1h1h-1l-1,-1h-1v-1h-1l-1,-1l1,1h1l-2,-1h-1v-1v1h1v1h1l1,1h1l1,1h1v1h1h-1l-1,-1h-1v-1h-2v-1h-1l-1,-1h-1v-1v1h1h-1l-2,-1l-2,-2h1h-1h1l1,1h-1v-1l-1,-1h-1l-1,-1v1h2v1l-1,-1v1h1l1,1h-1l-1,-1h-1v-1h-2v-1h-1v-1v1v-1h-1h1h-1l-2,-1h1h-2v-1h-1h1h-1h1h-1l-2,-2h-1h1v1l-1,-1h-1v-1h-1v-1l1,1h1h-2v-1h-2v-1h-2v-1h-1h1l1,1l-1,-1h-1h1h-1v-1h-1l-1,-1h-1l-1,-1l1,1h1l1,1l2,1h-1v-1v1v-1h-2l-2,-2l-2,-1h-2v-1h-2v-1h-1l-2,-1h1h-1l-1,-1l1,1h-1v-1h-2v-1h-2l-1,-1h-1l-1,-1h-1l-1,-1l1,1l-1,-1h-2v-1h-2l-1,-1h-2v-1h-1h1h-2l-1,-1h1h-2l-1,-1l1,1l-1,-1h-2v-1h-1l1,1v-1h-2l-1,-1h-1l-1,-1l1,1h-1v-1h-2l-1,-1h-1l-1,-1h-2l-1,-1h-1h1h-2v-1h-1l1,1h1h-1l-2,-1h-1v-1h-1h1l1,1h1l2,1l-2,-1h-1l-1,-1h-1l-2,-1h-2l-1,-1l1,1h2l1,1h2l1,1h2l1,1h1l1,1h2l1,1h2l1,1h1l1,1h2l1,1h2l1,1h1l1,1h1l1,1h2l1,1h1l1,1h2l1,1h1l1,1h1l1,1h2l1,1h1l1,1h1l1,1h1l1,1h1l1,1h1l1,1h2l2,2h1l1,1h2l1,1h1l2,2h1l1,1h1l1,1h2l1,1h1l2,2h1l1,1h1l1,1h1l2,2h1l1,1h1l1,1h1l2,2h1l1,1h1l2,2h1l1,1h1l1,1h1l2,2h1l1,1h1l3,3h1l2,2h1l1,1h1ZM335,28h-1l-1,1h-1l-2,1h-1l-1,1h-1l-2,1l1,-1h2l1,-1h2l1,-1h2l1,-1h-1l-1,1h-1l-1,1h1v-1l-1,1h-1v1h-1l-1,1h-2v1h-2l-2,1l-1,1h-1l-1,1h-2v1h-1h1l1,-1l-1,1h-1l-1,1h-1l-4,2l-1,1h-1l-1,1h-2v1h-1l-1,1h-2v1h-1l-1,1l1,-1h1v-1h3v-1h1l-1,1h-1h1l1,-1l-1,1h1v-1v1h-1v1h-2v1h-1l-1,1h-1h1h-1v1h-3v1h-1l1,-1h-1v1h-1l-1,1v-1h1v-1v1h-2l-1,1h-1l-1,1h-2v1h-1l-1,1h-1h1v-1l-1,1h-1h1l1,-1l-1,1v-1h1l1,-1h1v-1h1l1,-1h2v-1h1l1,-1h1h-1v-1h2v-1h2l1,-1h1l1,-1v1h-1l1,-1h-1v1h-1h1h-2l-1,1h-1v1h-2l-1,1h-2v1h-2l-1,1v-1h2l1,-1h1v-1h1h-1v1h-1l1,-1l-1,1h-1h1v-1v1h-2v1v-1v1l1,-1v1h-2l-1,1h-1l-1,1l1,-1v1h-2l-1,1h-1l-2,1l-1,1h-1h1h-1l-1,1h-1v1h-2l-1,1h-1l-1,1h-1l2,-1h1v-1h1h-1v1h-2l-1,1h-1l-1,1l1,-1l-1,1h-1l1,-1h1l1,-1h1l1,-1h1l1,-1h1l1,-1h1l1,-1h2l1,-1h1l1,-1h1l1,-1h1l1,-1h1l1,-1h1l1,-1h1l1,-1h1l1,-1h1l1,-1h1l1,-1h3l1,-1h1l1,-1h1l1,-1h1l1,-1h1l1,-1h2l1,-1h1l1,-1h2l1,-1h2l1,-1h1l1,-1h2l1,-1h1l1,-1h3l1,-1h1l1,-1Z"/>
<path class="sp" d="M778,85h1l1,1M661,27h2l1,1h2l1,1h2l1,1h1l1,1h2l1,1h2l1,1h1l1,1h2l1,1h2l1,1h1l1,1h1l1,1h2l1,1h1l1,1h2l1,1h1l1,1h1l1,1h2l1,1h1l1,1h1l1,1h1l1,1h1l1,1h1l1,1h2l2,2h1l1,1h2l1,1h1l2,2h1l1,1h1l1,1h2l1,1h1l2,2h1l1,1h1l1,1h1l2,2h1l1,1h1l1,1h1l2,2h1l1,1h1l2,2h1l1,1h1l1,1h1l2,2h1l1,1h1l3,3h1l2,2h1l1,1h1l1,1M266,58l1,-1h1l1,-1h1l1,-1h1l1,-1h1l1,-1h1l1,-1h2l1,-1h1l1,-1h1l1,-1h1l1,-1h1l1,-1h1l1,-1h1l1,-1h1l1,-1h1l1,-1h1l1,-1h3l1,-1h1l1,-1h1l1,-1h1l1,-1h1l1,-1h2l1,-1h1l1,-1h2l1,-1h2l1,-1h1l1,-1h2l1,-1h1l1,-1h3l1,-1h1l1,-1M265,59v0"/>
<path class="sl" d="M704,471l-1,1v-1ZM679,455v2h-1v1h-1v-1h-3l1,-1h2l1,-1ZM668,458h-2v-1h1ZM703,474h-1v-1l1,-1l1,1ZM665,394l-1,-1h1ZM667,393l-1,1v-1ZM666,398l1,1l1,-1l-1,1h-2v-1ZM655,393h1h3v2h-1v1l-1,1h-7l-1,1v-1h-2v-2l-1,-1h1v-1h3ZM661,396h-1v-1h2ZM642,397h-1v-1h1ZM297,106l-1,1v-1h1v-1h1v1ZM295,108v-1h1v1ZM301,97h-1v-1h1ZM284,85l1,-1h1h-1ZM278,82h-1h2ZM273,79l1,-1v1ZM225,100v-1ZM224,102v-1ZM225,101h-1ZM208,105v-1h1h-1ZM191,109v-1ZM301,49h1ZM278,56v1h1h-1v1h-1v1h-2v1h-1l1,-1h1v-1h1v-1l-1,1v-1h2l1,-1ZM256,72v1h-1v1h-1l-1,1h-1v-1h1v-1h2v-1ZM254,91h-1h1v1h-1l-1,1v-1h-1v1h-1l-1,1h-2v1h-1v-1h1h-1l-1,1l2,-2v-1h1l1,-1h1v1h-1v1v-1l2,-1h1v-1h1l-1,1h1v-1h1ZM219,100l-1,1h-3v1h-1l1,-1h1v-1h1l1,-1v1v-1h1ZM289,111v1h-1l-1,1l1,-1v-1l1,1ZM294,115l-1,1h-1l1,-1h-1h1v-1h1ZM296,109l-1,1v-1h-1h1v-1h1l2,-1l-1,1ZM297,113h-1v1h-2v-1h1h-1v1h-1v-1h1v-1h1l2,-1l1,-1h1l-1,1v1h-1ZM297,104h1v1h-1v1h-1v-1v1h-1v1l-1,-1v1l-1,-1h1l1,-1v-2h1ZM287,115h1v1h-1v-2h1l-1,-1h1v2ZM284,81v1h-1v-1ZM277,84v-1h2v-1h1l1,-1h1v1h-2l-1,1h-2ZM281,81h-1v1h-1h1h-1l2,-2v1l1,-1ZM283,79l1,-1ZM249,94h-1v1h-1l1,-1ZM259,88v-1h1ZM253,90v1v-1h1ZM235,100v-1h1ZM241,97v-1h1v1ZM242,97l1,-1v1ZM225,99v1h-2l1,-1ZM219,101h1v-1v1ZM224,101l-1,1h-1l1,-1h1l1,-1v1ZM211,103h-1h1v-1ZM211,103l1,-1v1ZM247,83h1v-1h1ZM254,69h-1v1l1,-1v-1h1ZM230,85h1ZM199,107v1v-1h1ZM197,108l1,-1v1ZM194,109l1,-1ZM226,88v1ZM191,109h-1ZM192,108h1v-1v1ZM190,109l1,-1h1h-1ZM193,105h1ZM189,109v-1l2,-1h1h-1l-1,1h-1ZM294,101v1h-1v1l-1,1v1h-1l-2,2v-1l1,-1h1h-1v-1h1h-1v-1h1v-1h1h-1l-1,1v-1l1,-1h2v-1h1ZM300,97h1l-1,1v1l-1,1v-1h1v-1l-1,1v1l-2,2h-1l-1,1h-1v-1h1l1,-1v-1h1v-1l1,-1h1v-1l1,-1ZM297,96v1h-1v1l1,-1h1v1l-1,1h-1v1l-1,1v-1l-1,-1v1h-1l-1,1v-1l1,-1v-2h1l1,-1v1l1,-1ZM293,107h1v1h-1v1h1v1h-1v2h-1v2h-1h1l-3,3v-3h1h-1v1v-2h1v-1l1,-1h-2v-1h2l1,-1h-2l1,-1h1ZM294,104v2h-1l-2,2h-1l1,-2h1v-1h1v-1ZM258,88h1l-1,1h1h-1l-1,1v-1h1h-1v1h-1l1,-1l-1,1h-1v-1h1l1,-1v1v-1ZM204,106h-2v1h-1l-1,1v-1h2v-1h1v-1h2v-1v1h-1ZM209,103l-1,1h1v-1h1h-1v1h-1l-1,1h1h-2v1h-1v-1h2v-1v1v-1h1h-1h1v-1ZM192,109v-1h2v-1h1l-1,1h-1v1Z"/>
<path class="sl" d="M191,108v1h-1h1h-1v1v-1v1l1,-1v-1h1ZM190,109v-1h2v-1v1h-1ZM193,106v-1h1ZM194,105v-1h1h-1ZM55,356h-1v-1l1,-2v-4h1v-1l1,-1v-2h1v8l-1,1h-1l-1,1ZM57,336v1h1v1h-1v-1h-1ZM58,339v1l1,1h-1v1h-1v-3l1,-1ZM56,334v1h-1v-1v1v-3h1v1ZM54,329h-1v-2h1v-1h1v1h-1v1ZM52,329v-2h1l-1,1ZM56,340v-1h1v1ZM583,215v1l1,-1h3l-3,1l-1,1h-1l-3,1h-4l-1,1l1,-1h-1v1v-2h1v-1l1,1v-1h5l1,-1h1l1,-1ZM605,191h-1v1l-1,-1l1,-1ZM573,219h-1l1,-1ZM595,212l-1,1l-1,-1h1ZM590,212v-2ZM599,213h-1v-1ZM567,254v-1ZM569,258l-1,1l1,-1v-2l-1,-1v-1l1,1v2ZM567,259h-1ZM562,263l1,-1ZM525,329h-1l-1,-1l1,1ZM524,328v-1ZM538,339l-1,2v-2h1v-1h1ZM450,304l-1,-1h1ZM410,316h-1l1,-1ZM412,314h-1h1v-1h2v-1h1l-1,1h-1ZM407,321h-1l1,-2l2,-2l-2,2ZM425,306l2,-1h1h-1ZM407,330v1l-1,-2v-4l1,4ZM262,260h-1ZM265,267h-1v-1h1ZM270,270l-1,-1l1,-1v1ZM263,261h-1v-1h1ZM264,260h2l-1,1ZM272,266h-1v-1ZM299,156h-1v1v-1ZM297,157h-1h1v-1ZM298,160h-1h1v1h-1v-2l1,-1v1h-1h1ZM590,212h-1v-1h1ZM574,225l-1,1ZM568,238l-1,1l1,-2l1,-1v-1v1l-1,1ZM562,263h-1ZM531,344h-1v-1h1ZM535,342h-1ZM533,343h-1h2ZM528,292v1ZM529,344h-1h1v-1ZM539,322v1l-2,-4v-1v1ZM527,345v-1ZM472,302v1ZM475,298h-1ZM478,298h-1ZM470,299v1h-1v-1ZM473,302h-1l1,-1l-1,-1h1v1ZM502,303h-1h1l1,-1h1ZM293,166h-1v-1h1ZM295,165v-1ZM296,163h-1h1v-1ZM298,158h-1v-1h1ZM724,938v1ZM718,924h2l-1,1h1v1h-1h1h-1v1h-1v-2h-2l1,-1h-1h1ZM973,647h-1l1,-1ZM968,587v-1ZM189,743v-1h-1h1ZM679,394h-1h2ZM639,919h2v1h-1h1l1,-1h1v1h-1h1v1h-3v1h-2l-1,1h-3l-1,1l-1,-1h1v-1h2v-1h2v-1l1,-1ZM631,920h5l-1,1h-1l-2,2h-3v1h-2l-1,-1h2l1,-1h2v-1l-1,1h-1v-1h1v-1ZM627,922v1h-1v-1ZM639,922l-1,1v-1ZM632,920v-1l1,1ZM632,924v-1ZM532,388h2v1h-3v-1ZM543,385h-1ZM544,385h-1h1v-1h1v1ZM648,279h-1h1v-1ZM668,392h1ZM667,393h-1ZM669,390h-1ZM609,366h-1ZM607,366h-1v-1ZM603,366h2l-1,1h-1ZM688,406v1h-1v-1ZM824,128h1h-1v1ZM822,127h1ZM789,102l1,1h-1l-1,-1ZM808,115v1l1,1l-1,-1h-2v-1h-1v1h1h-1l-2,-2v-1l-1,-1h-1v-1h-1v-1h-1v-1h-1v1v-1h-1v-1h-1v-1h-1h1v-1h-1h1h-1h1h-1v-1h-1v-1h-1l-2,-2h-2v-1l-4,-2v-1h-1h1h-1l1,1h-1h1h-1v1h1h-1l-2,-2l-2,-1v-1h-1v-1h-1l-1,-1h-1v-1h-1l1,1h-1v-1l-1,-1l1,1v1h1l3,3h1h-1l-2,-2h-1h1h-1l-1,-2h-1l-1,-1h-1v-1h-1l-1,-1l1,1h-2v-1l-2,-2h-1v-1h-2v-1h-1l-1,-1h-1l1,-1h-2v-1h-1v-1h-1l-1,-1h1h-1h1v-1h1v1h1v1l2,1v1h1l1,1h1l-1,-1h3v1h1l1,1h1l1,2h1l2,2v1v-1l1,1h1v1h1h-1v1h1v-1h1l1,1h1l1,1l4,2l2,2h2v1h1l1,1h1l2,2h1l1,1h-1v-1v1h-1h3l3,3h1v1l-1,-1h2l2,2h1v1l1,1h1v1h1h-1h1l1,1h-1h1v1h1v1h2l2,2v1h1v2l-1,-1v2h1v1l-1,-1v1l2,2h-1v1l1,1v1v-1v1v-1h-1v-1l-1,-1h-1v-1l-2,-2v-1l-1,-1h-1h1v-1l-1,-1h-1v-1l-1,-1v1Z"/>
<path class="sl" d="M795,107h1v1l-1,-1h-1v-1ZM754,77h-1v-1v1ZM745,70h-1l-1,-1l1,1ZM745,70v1h1h-1h1l1,1h1l1,1h-1v-1h-2v-1h-1v-1h-1ZM743,69h1ZM757,79h-1ZM757,79h-1ZM755,78h1h-2v-1v1ZM754,77h-1v-1v1ZM770,91h-1ZM779,96h-1v-1h-1h1v1ZM772,92v1v-1h-1l-1,-1h1ZM775,94l1,1h1v1l-1,-1v1v-1h-1ZM776,95h-1v-1h-1v-1l1,1ZM757,83h2v1h1v1h1v1l-1,-1h-1v-1h-1v-1h-1l-1,-1h1ZM768,89h-1ZM764,87h1v1h2v1l-1,-1h-2v-1h-1v-1h-1h1ZM761,86l1,1h1h-1l-1,-1h1ZM765,89l-1,-1h-1h1ZM788,104h-2v-1h-1h1v1h-1l-1,-1h-1v-1h-1v-1h-1v-1h-1v-2h1l2,2h1v1h2v1v-1h-1l1,1h1v1h1ZM815,119l1,1h-1v-1h-1ZM703,454v-1l1,-1h1v1ZM702,463h-2l-3,1h-2l2,-1v-1h1v-3h-1l-1,-1h2v-1h4l-1,1v2l1,1v1ZM890,192h-1v-1ZM884,183l1,1v1h1v1h1v1l-1,-1v-1h-1l1,1h-1v-1l-1,-2h-1v-1v1ZM884,182h-1v-1v1ZM888,190l1,1h-1v-1l-1,-1h1ZM910,282l1,1v2l-2,-2v-1h1v-2ZM915,275v1l-1,-1v-1l1,-1h-1h1v1ZM917,282v1l-1,-1h1v-1l-1,-1l-1,-2v-1h1v1l1,1v2ZM914,283v1l1,1v1h-1v-1l-1,-1v-1ZM909,285v-1h-1h1ZM908,287v1h-1h1ZM906,282l-2,-2v-1l1,1v1h1ZM973,452l-1,-1h1ZM14,618l1,1v1l-1,-1v-1v1ZM16,624v-1l-1,-1l1,1ZM698,437l-1,-1l1,-1l1,1ZM697,441v-1h1v1ZM700,431v1l-1,-1h-1v-1l1,-1h1ZM684,403h-1l1,-1ZM683,402h-1v-1h1ZM559,3v1h1h-1v-1h-1Z"/>
<path class="sp" d="M558,3h1"/>
<path class="sl" d="M337,29l1,-1h3l1,-1l-4,2ZM342,27v1h-2v1h-2l1,-1h2l1,-1h1ZM554,3h-1Z"/>
<path class="sp" d="M554,3v0"/>
<path class="sl" d="M332,29h1l1,-1h2h-2l-1,1ZM889,248h2v1h-1v-1ZM847,224h-1v-1ZM813,210h-1v-1ZM832,213h-2v-1h1ZM830,214h-2v-1h-1h1ZM826,215l-1,-1h1ZM829,215h-2v-1ZM840,218h1l1,-1v1h-2l-1,-1h1ZM554,484v-2h1v1ZM531,492h-1l-1,-1v-1h2l-1,1ZM526,474l-1,1v-1ZM553,484h-1l1,-1ZM742,65h-1ZM748,68l1,1h-1v-1h-1ZM705,45l-1,-1ZM721,53h-1v-1v1ZM724,55v-1h-1h1ZM656,25h1l1,1h1h-1l-1,-1ZM660,26h-1h1h-2l-1,-1l1,1h1Z"/>
<path class="sp" d="M657,25l1,1h2"/>
<path class="sl" d="M683,35h1v1h1h-1ZM686,37h1h-1l-1,-1h1ZM677,33h2v1h1h-1h1h-1l-1,-1h-2ZM663,28h1h-1h1l-1,-1ZM664,28h-1v-1ZM665,28h1v1h3v1h1h-1v-1h-3v-1h-2ZM702,43h-1ZM701,43h-1v-1ZM711,48v-1h-1h1ZM670,30h1l1,1h2l1,1h-1v-1h-3v-1ZM679,34v-1h-2v-1v1h2v1h2l1,1h1h-2v-1h-2l-1,-1h-2v-1h-1l-1,-1h-1l1,1h2l1,1h2ZM659,35l-1,-1h-1h2ZM630,18h1h-2v-1ZM591,9h-1ZM576,6h-1ZM595,10h5l1,1h3l1,1h-1v-1h-1h1v1l-1,-1h-4l-1,-1h-2ZM581,8h1h-1l-1,-1h-1h1h-1h1h-1h2l2,1h5l1,1h-1l-1,-1l1,1h-1l-1,-1h-1h1v1h-1v-1h-5ZM586,9h-1h8v1h4l1,1h4l1,1h3l2,1h3l1,1h1h-2l-1,-1h-4l-1,-1h-1l1,1l-1,-1h-4v-1h-1l1,1h1h-3l-1,-1h-5v-1v1h1h-2v-1h-4v-1h1v1h1l-1,-1h-1h1l1,1h2l-2,-1h-4ZM598,12h1h-2l-1,-1h1v1ZM582,8h-1ZM588,8h-1h1h-1ZM6,577v-1ZM8,585v-1ZM30,667v1l-1,-1v-1v1ZM51,694v-1ZM812,112l1,1h-1v-1v1ZM799,101v1ZM798,101v-1ZM800,103h1h-1v-1ZM810,110v1ZM797,99h-1ZM643,448v1l-1,-1v-1h1ZM681,400h-1ZM629,446l-1,-1h-1l1,-1v1h1ZM639,449h-1l-2,-1l-1,-1v-1h1v1l2,1ZM861,155v-1ZM486,380h-1v-1h1v-1h1v1ZM331,366h-1v-1h1ZM295,388h-1v-1v1ZM306,336v1l-1,-1v-1ZM295,302h-1l-1,-2v-2h1v2h1v1ZM280,309h-2l2,-2v1ZM301,303v2h-1l-1,-1l1,-3h1v1ZM261,301v-2h1h-1l1,1ZM488,372v1v-1h-1ZM447,394h-2l2,-1h1h-1ZM310,343v-1ZM291,280h-1ZM304,327v1h-1v-1ZM297,340v1l-2,-2h1ZM295,339h-1v-2h-1l1,-1l1,-3l-1,3v2ZM939,352v-2ZM3,543v-1ZM32,555v-1ZM50,620v1ZM24,501l1,1h-1v-2ZM20,481v1ZM2,527v1v-1v1ZM566,395l1,1h1l1,1h1l3,1l1,1v1h-4v-1h-1v1l-1,1v-1h-1v1l-1,1v-1h-4v-1l-1,-1h-1l-1,-1h-2v-2h2l1,-1h5ZM865,158v1h1h-1h1h-1ZM877,171v1l5,5l3,4l1,1v1h1h-1v-1v1v-1l1,2h1v1v-1h-1v-1h-1l-1,-2l-2,-2v-1h-1v-1l-1,-1h-1v-1h-1v-1l-2,-2h1h-1v-1l-1,-1h-1v-1v1h1v1ZM887,184l1,1v-1ZM876,171l1,1ZM785,107h-1v-1v1v-1ZM780,99v1h1v1h1v1h1v1h1l1,1h1v-1h-1h1v1h2l1,1h1v1h1v1h1l2,2h1l2,2h1v1l1,1h1v1h1h-1v1v-1v2h1v1h-1h1l1,1v2h-1v-1h-1v1v-1l-1,-1v1v-1l-1,1v-1h-1v-1h-1v-1l-2,-2h1v-1h-1v1v-1v1l-1,-1v-1h-1l-1,-1v-1h-3v-1h-1v-1h-1v-1h-1l-1,-1h-1v-1v1v-1h-1h1h-1h1v-1l1,1l-1,-1h1h-1v-1l-1,-1h-1l-1,-1h-1v-1h-1v-1h1h-1h2v1v-1h-2v-1h1v1ZM689,53v-1v1h1l1,1h2v1l1,-1v1h3v1h2v1h2v1h1v1l-1,-1l1,1h1v1h1v2l1,1l-1,1h1v1h1h-1h1l-1,1h-3l-1,-1h-3v-1h-1l1,1h-4v-1v1h1v-1h-1v-1h-1h1h-2v-1h-2l-1,-1v1h-3v-1h1v-1v1v-1h1h-2v-1l-1,-1v1l-1,-1h-1v1h-2v-1h-1h1h-2v-1h1h-2v-1h1l1,1v-1v1h1l-1,-1h-1v-1h-1h2v1h3v1h1v1h3l1,1l-1,-1h-1v-1l1,1v-1h-1l-1,-1h-1v-1l1,1h1l-1,-1h3l1,1l-1,-1h-2v-1h1l1,1v-1h-1h1v-1h-2v-1h1v1h1Z"/>
<path class="sl" d="M490,414h-1l1,-1h1ZM494,413h1ZM609,384l1,2v1l1,1v1h-1v4h-2l1,1v1h1l1,1l-1,1v1v-1h-2v-1l-5,1h-5l-1,-1l-1,1h-2v1h-2v-1l-1,-1h-2l-1,-1l1,-2h2l1,1h3l7,1h1v-1h2v-1l-4,-4h1v-3h-1l-2,-1h-3v-2h2v-1h4l4,2h2ZM602,392h-3l-1,-1v-1h1v1h2ZM602,381v1l-1,-1h-1h1ZM958,424v1v-2ZM959,424v-1ZM959,423v-1ZM959,420v-1ZM958,421v-1ZM957,417l1,1h-1ZM695,447h-1h1v-2h1v1ZM788,91v1v-1l1,1h-1v-1h-1v-1h-1h1v1ZM789,92h-1ZM788,92l-1,-1h-1h1v1ZM866,159v1h1v1l2,2h1l1,1v1l3,3h-1v-1l-4,-4v-1h-1l-1,-1v-1h-1v-1l-1,-1h-1h1v1ZM846,147l1,1l-1,-1h-1v-1v1ZM700,425v1l-1,-1h-1v-1h-1v-2h1l1,1v1ZM694,410h-1v-2l2,2ZM693,412l-1,1l-1,-1v-3l1,1h1h-1ZM695,413v-1v1h1ZM666,172v-1ZM665,171l-1,-1v-1l1,1ZM680,395h-1ZM681,397v-1ZM62,664h-1v-1v1ZM69,673v-1ZM62,666v-1ZM71,674l1,1v1v-1h-1v-1l-1,-1h1ZM102,616l1,1h-1v1v-1ZM102,618v1ZM105,623v1ZM96,609h-1v-1h1ZM97,613h-1l1,-1ZM107,682v1v-2h1ZM99,609h-1ZM109,687l-1,-1ZM108,685l-1,-1v1ZM131,691v1v-1h-1ZM125,708v-1ZM96,667v-1ZM93,670v1v-1h-1ZM92,670h-1ZM84,663v-1h-1h1ZM83,666v1v-2h-1v-1l1,1ZM544,582h-1v-2l1,-1h2l-1,1h-1ZM555,545h-1v-1h1ZM455,563l-1,-1v-2h2l1,1v1h-2ZM463,564h-1v-1h1v-1h2l-1,1ZM446,560h-2v-2h2v1ZM455,567h-1v-1v1ZM447,556h1v2l2,1v2l1,1l-1,2l-2,1h-2v-1h-1v-1h1l2,-2v-1l-2,-2v-2h-2l1,-1h2ZM453,559h-2v-2h1l1,1ZM610,398v-1l1,-1l-1,-1h-1v-1l-1,-1h2v-4h1v-1l-1,-1v-1l-1,-2h1v-2h7l1,1h2l1,1h3l1,1v1l1,1l3,-1l1,1l-1,1l-1,-1l-1,1h2l1,1h3l4,2v3h-1v1l-1,1l-2,-2h-8l-2,2h-3l-1,-1h-1l-1,1h-1v2l-1,1l-1,2h-1l-2,-2v-1ZM696,419h-1l-1,-1v-2h1l1,2ZM546,10h4l-1,1h-1h2l1,-1h7v1h1l-3,1h5v-1h2v1h4v1h3v1h1h-1v-1h-2l-1,-1h-1h2v-1h-1h6l1,1h1l1,1h2v1h1h-1v1h4l1,1h3v1h2v1h3l1,1h2l1,1h1l-1,-1h-1h3l1,1h-1h4v1v-1h1v1h1h-1v1h1h-1l1,1h6l1,1h3l1,1h2l1,1h-1l-1,-1v1h1h-1l1,1v-1h1l1,1h1h-1l-1,-1h1l1,1h3l1,1h1h-1v1h-2v-1h-1v1h6l1,1h1l1,1h-1v1l-1,-1h-4v1h1v1h-1v-1h-2l2,1h-1h2v-1h7l4,2l1,1h1h-4l-1,-1h-2l-2,-1h-1v1h1v-1l2,1h1v1h5l1,1h3l1,1h1l1,1l-1,-1h1l1,1h1l1,1h1l2,1h1h-3l-1,-1l1,1h2l-1,1l-2,-1h-2l-1,-1h-2l-1,-1h-2v1h1v1h-1v1h1v1h4v1h1v-1h6l1,-1h1v1l1,1h-1l1,1h-1h1v1h1h-1h1v1h1v2l-2,2h-1v1h-1h1h-3l-2,-1v1h2v1h1v2h1v1h1v1l1,1h1v3l-1,-1h-1l1,1h1v2l-1,-1l1,1h-2v1h1h-2v-1h-1l-1,-1v-1h-1v1l1,1h-1h2v1l-1,1h-2l2,1v1h-2v1h3l1,1h1v2h-1l1,1v-1h1l2,2h1l-1,1h1h-1l2,2h-2v1h2v1h-3l1,1h3v1l1,1h1v1h1v1h-1h2v1l2,2l1,2v1h-1h1v1h1l1,1v1h-1h1h-1v1h-1v-1h-2v-1v1h-1l-3,-1l-1,-1h1v-1v1h-4v-1h-1l-1,-1v-2h-1v1h1h-1l-1,1v1h-4v-1h-2l-1,-1h-2l-1,-1h-1v-1h-1l-1,-1v-1h1h-1l-1,1h-1v-1l-1,-1h-3v-1h-1v-1h-1l-1,-1h-2l-2,-2l-2,-1l-1,-1h-1h1l1,-1h1v-1h-1v1h-3v-2h4v1v-1h-1v-1h-3l-1,-1l1,1h1l-1,1l-1,-1v2l1,1h-1l-4,-4h-2v-1l1,-1v-1h1h-2v2h-1l-1,-1h-1l-1,-1h-1l-1,-1h1v-1l1,-1v-1h1v-1h-1v1l-1,1v1l-1,1h-1l-1,-1v-1h-1l1,-1h1v-1l-1,1h-2l-1,-1h-1l-1,-1v-1h1v-1h5l2,1h1l-1,-1h-1l-1,-1l-1,1h-4l-1,1h-1v-3h2l1,1h1l1,-1h-1v-1h-1v1h-5v-2h2l2,1h1v-1h-1v-1l-1,-1h1h-2v-1l-1,-1h1v-1h-8v-1h-5l-1,-1h-1h1v-1l1,1h7l2,1v-1h-3v-1h-1l-1,-1h1h-6v-1l2,-1h-3v1h-1v-1h-1v-1h-2l-1,-1l1,1h1l1,1v1v-1h-1l1,1l-1,1h-2v-1h-2v-3h-1v1h-1v-1h1h-1l1,-1h-1v-1h-3v-1h-2v-1h-1l-1,-1h-1l-1,-1h-1v1h-1v-1h1h-1v-1h1h-3v-1h-3l-1,-1h-1v-1h-4l-1,-1h-7l-1,-1v1h-7l1,1h1h-4l-1,-1h-2l1,-1h1h-4v-1h-1v1h-1v-1h-1h1l2,-1h5v-1h-5v1h-2v-1h-4v-1h-2v-1h3v-1h2l1,-1h3v-2h-1h1v-1h-1v1h-4v-1l1,-1h1v-1h1l1,1l-1,-1h2v-1h-2v-1h2l2,1h2h-2v-1h-2l1,-1h4v1h1l-1,-1h3l1,1h1v-1h-4v-1h2l3,1h3l-1,-1h-4v-1h1h-2v-1h1l1,1h1l-1,-1h2l2,1v-1h-3v-1h3Z"/>
<path class="sl" d="M592,49l1,1h2l1,1l-1,1h-4l1,-1h-5v-1h1h-1l-1,-1v-1h1l2,1h1ZM598,51l-1,-1h-1v-1h2v1h-1h1ZM585,46h-1v-1h1ZM574,40v1v-1h-1ZM526,27h-1ZM545,14h-3l-1,-1h-1h4ZM641,40h2v1h-2v1h-1v-1h-1l-1,-1h2v-1ZM565,11h-1ZM582,15h-2v-1h1ZM595,19h1h-1l-2,-1h-1h2ZM611,23l-5,-1h-1h3ZM616,25h4v1h-2l-1,-1ZM599,19h-1ZM654,63h-1v-1ZM653,88h1h-2v-1h1ZM591,46h-1ZM732,67v1l-1,-1ZM734,69h-1v-1v1ZM729,66v1l-1,-1ZM728,66h1l1,1l-1,-1h-2v-1h1ZM728,65l1,1h-1v-1h-1ZM779,85l1,1h1v1h1l2,2h1l1,1h-1v-1h-1l-1,-1h1h-1l-1,-1h-1v-1h-1l-1,-1h-1h1l1,1l-1,-1h-1v-1h-1l-1,-1l1,1h1ZM787,91h-1l-2,-2h-1l-1,-1l-2,-1l-1,-1h-1l-3,-3v1v-1h-1v-1h-1h1h-1l-2,-1l1,1h2v1l-2,-2h-1v-1h-1l-2,-2h-1l-1,-1l1,1h1v1h1l1,1h1l1,1h1l1,1v1v-1l1,1h1v1h1h-1h1l2,2h1v1h1l1,1h1v1h1l1,1h1v1ZM781,87l1,1h1l1,1h1v1l-2,-2h-1v-1ZM786,90l1,1l-1,-1h-1ZM787,91l-2,-2h-1h1ZM784,89h1ZM780,86l-1,-1ZM786,91h1h-1v-1ZM786,91h1h-1l-1,-1h1ZM780,86h-1v-1h-1h1v1ZM769,79l-1,-1ZM527,356h5v1h2l3,-1v1h1l1,1h4v1h1l3,3h5v1v-1l5,3l1,1h1l2,1h1v-1l2,1v1h1v1h-1v1h1v-1h1l1,1h1v1h3l1,1h2l1,1h3v1h-1l1,1h-1v1h7l1,1h1l1,2h3v1l-1,1h-3l-2,1l-1,1h-1v-1v1h-4l-1,-1h-6l-2,1h-6l-2,1l5,-5v-1l-1,-1h-1l-1,-1h-5l-2,-1l-1,-1v-1l-1,-2v-1h-1l-1,-1h-5l-4,-1l-2,-1h-1v-1l-1,-1h-6v-1l-1,-1v2h-1l-1,-1h-3l-1,-1h-1l1,-1h2v-2h-9v1h-1l-1,1v1h-2v1h-4l-1,1v1h-1l-1,1l-2,1v-2h-1v1h-2l2,-1l1,-1v1h1v-4l2,-1v-1l11,-3h1l2,-1h2ZM561,366h-1l-1,-1h2ZM558,363h-1l-1,-1h1ZM553,361h2l1,1h-2l-1,-1h-1ZM559,364h-1v-1ZM521,369v1h-2l-1,1l-2,-2h1v1l1,-1l-1,-1v-1l1,-1l2,1l1,1ZM547,360h-1l-1,-1ZM993,463v1ZM562,534h-1v-1h1ZM318,772h-1h2ZM546,822h-1v-1h2v1ZM587,928l-2,2v1l-1,2v1l-2,2v1h-15v-1h5v-1h1v1h2l-1,-1h-1v-2h1l1,-1v2h-1l1,1h4v1h2v-1h-1l-3,-1v-1l1,-1h1l2,-1h-5v-1h1v-1h1l-1,-1h2v1h1v-1h1l1,-1h1l1,1l2,-1ZM589,938l-1,1h-1v-1h-1v1h-2v-1h-1l1,-1h4ZM572,881h-3l-1,-1h1l1,-2l1,-1l-1,-1h1v-1l1,-1v-2l2,1h1v1h1l-1,1v1h-2v1l2,2h-1l-1,1h-1ZM561,912v1h-1v3h-2v-2h1v-1l-1,1h-1v1h-3v-1h2v-1h-1h1v-1l1,1v-1l1,-1h1l-1,-1h3ZM556,910h-1v-1l1,-1v-1l1,-1v1l1,1v1l-1,1ZM557,930h4l1,1h-2l-1,-1h-3l-1,-1h1ZM561,909h-2v-1h-1v-2h2v-1v2h1v1ZM563,932h2l1,1l-1,1h-1l-1,1h-1v-1h2l-1,-1v1h-1v-1v1h-1v-1h-1v-1h2Z"/>
<path class="sl" d="M556,924v1h1l-1,1v1h-1v-1h-1v-1l1,-1ZM577,938h5v1h1v1h-3v-1h-2v1h-1v-1h-2v-1h1ZM570,934h2v1h-1v1l-1,-1h-4v-1h3ZM571,887h-2v1h1v4h-2v-1h-1v-1h-1v-1l-1,-1h1v-1h3v-1l1,-1l1,1ZM575,889h-2v-1l1,-1v-1l1,1h2v1h-1ZM563,890h-1v-1h1ZM554,919v1v-2h2v1h-1ZM558,910v1l-1,1h-2v-2h2ZM559,905h-1h2ZM566,883h-1v-1h1ZM571,889l-1,-1h1ZM558,922l-1,1h-3v1h-1v-1h1l1,-1h2ZM556,917l-1,1h-1v-1h1v-1h2v1h1h-1ZM571,884h-1l1,-1ZM559,925h-1v-1ZM566,894h-2l1,-1v-1h1v-1h1v1l-1,1h1v1ZM585,941h-1ZM592,938l-1,1v-1ZM571,938h3v1h-2v-1v1h-1v-1h-1h1h-1ZM587,941h-2l1,-1h1ZM914,382v-1h-1l1,-1l1,1ZM925,397v1l-1,-1v-2l1,1ZM916,383h-1v-1ZM925,386h1v2h-1v-1ZM922,399h-1v-1l1,-1v1ZM920,384h-1v1l-1,-1h1ZM924,383v-1l-1,-1h1v1ZM926,396v-1ZM284,120h1v1h-1v1h-2h2l1,-1v-1h3l-2,2h-1l-3,3h-2v-1h1v-1h-1l1,-1v-1h1v-1l1,-1ZM283,125l-1,1v1h-2v1h1l-1,1v2l-1,1v-5l1,-1h-1v-1h3ZM288,142l1,1l2,1h1l1,1h1l-1,1v5h1l1,1v1h1l-1,1v2h1l-1,1v1h-3v-1h-1l-1,-1h-1v-2h1l2,-2h-1v1h-4v-1h1v-1h-1h1v-1l-1,1v-1h-2l1,-1h1v-1h-1l1,-1h-2v-2h-2l1,-1h-1l1,-1h1l1,1v-2h-1v1h-2v-2h4ZM459,23v1h-3v-1v1h-1l-1,-1l-1,1h-1v-1h6ZM456,24h1v1h-2v1h-6v-1h2l1,-1h3ZM445,26h-3v1h1h-2v1h-3l-1,1l-1,-1h1l1,-1h-1l-1,1h-2v1h-1v-1v1h-3l-1,1v-1h1v-1l-1,1h-2v-1h4l1,-1h3v-1h4v-1h2v1h2v-1h1ZM453,30h1v1h-1h2l1,-1l1,1h1h-1v1h-1l-1,1h-1l-1,1h-2l-1,-1l-1,1h-1v-1h1h-1l-2,1h-4l-2,1h-4v-2h8v-1l-1,1h-1l-1,-1v1h-3v-1h1v-1v1h-2l-1,1h-1l1,-1h-1v1h-1v-1h-2v-1h2v-1h3v-1h3l1,-1h2v1h2v2h1h-1h1l1,1h3v-1h-1v-1h1v-1h1l2,-1h1v2ZM427,41l1,-1h2l1,-1h1l1,1h1l1,1h-2l-1,1h1l1,-1v1h-1h1l1,-1h2v-1h2v1h1v1l-1,1v2h1v-1h2l-1,-1l1,-1v-1l1,-1v-1h5v1h1v2h-1v4h-1v1h-1l2,2h2v1h2v1h2l-1,1v1h-1v-1h-1v1l-1,-1h-2v1h-2v1h-1h3v-1h1v2h-1l-1,1h-5l-1,-1l-1,1l-2,-2h-2v-1h-1l-2,2h-6l-2,1h-11v-2h1v-1h-3l-2,-1h-1v-3h15l-2,-1l-1,-1h-10v-2h8v-1h-1h-3v-1h-2l1,-1l2,-1h1v-1h2l2,-1h3l3,-1h3v1h-1v1h-2ZM422,35h6v1l1,1h-1v1h-5l-1,1h-2l-3,1l-2,1h-3l-1,1h-1l-1,1h-2l-1,1v-1h-1l-2,1h-3l1,-1v-1h1l-1,-1h-1v-1h2v-1h2l1,-1h2v-1h2l1,-1h2l2,-2v-1h8v1h1v1ZM516,13h4v1h-1h2v-1h1v1h5v1l-1,1h-3v1h-1l3,-1h1v1h-1l-1,1h-1v1h-1v1h-1h1h-1v1h-3v1h-1l1,1h-1h1v1h-1v1h1h-1v1h-4v1h-1l-2,1h-1l-1,-1h-1v1h-1h6v1h1v-1h1v2h-2l-1,1h-2v-1h-3v-1h-1l1,1h-4v-1v1l-2,1l-1,-1h-6v-1v1h-2v-1l2,-1h3v-1h-1v-1h3l1,1h5v-1h1l-1,1h-4v-1h-1h1v-1h1v-1l-1,1h-4v-1h1l1,-1h5v1v-1h-1h1h-1v-1h-1l-1,-1h-2v-1h6v1h1l-1,-1h-1h1l2,-1h2l2,-1h1h-2l1,-1h-1v1h-1l-1,1h-8v-1h2h-2l-2,1h-2v-1h-1h5l1,-1h-1l-1,1h-4v-1h1h-1h-1h1h-2v-1h8l-2,-1h5v1v-1l1,1h2l-2,-1h-1h1l-1,-1h1l1,1l-1,-1h6v1l1,-1h-2l1,-1l1,1h2v-1h1l1,1v-1h-1h1Z"/>
<path class="sl" d="M481,26h4v1h-6v-1h1ZM481,34v2h-3v-1h-3v-1v1v-1h-1h2v-1h1l2,-1h1v1h1v1h1ZM465,38h6v1h-1v1h-3v1h-1h3l1,1h-1h2v1h-1v1h-1v1h-1l-1,1h-2v-1h-1v1l-1,1h-2v-2h-1v-1h-1v-1h-2v-1h-1l-1,-1h1l1,-1h1v1h1v1h1l1,-1h1v-1h1v-1l-1,1h-1l-1,-1h2v-1h2ZM501,72h1v-1h1v1h1l1,1h2v1h3l1,1h1l1,1v2h3v-1l1,1h1h-1l1,1h1h-1l-1,1h-4l-1,-1h-1v-1h-3v-1h-1v1h-1v1l-1,1h-2v1h-1v1h-3v-1l-1,-1v-1l-2,1h-4v-1h1v-1h3v-5l1,-2v-1h1v-1h1v1h1v1h1ZM475,30h-1l1,1h-1v1h-1h1v1h-2v1h-1h1h-6v-1h1h-1h1l1,-1h-4v-1h1l1,1h1h-1v-2h1h-1h2l1,1h1h-1h1v-1h-1h1h-2l1,-1h2l1,1v-1h2v1ZM471,22h1h-1v1h1v-1h1l1,1h-1h2v3h-3v-1l-1,-1h-4v-1l1,1h1v-1h-1h1h-1h1v-1l-1,1h-1h1v-1h-1h1v-1l1,1h1ZM491,18h1v1h2v1h1v-1h1v1h1v1h1l1,1v-1l1,1l-1,1h-2l-1,1h-1v-1h1h-1v1h-1v1h-1l-1,-1v1h-5v-1h1h-2v-1h1h-1h1v-1h1h-5l1,-1h1h-2v-1h1v-1h1h-1h3v-1h-1h3v-1h-1h3ZM482,29h2v1h-1l1,-1l1,1h1l1,-1h1l1,1h-1l4,1h-2v1h1v1h-1h2v-1h1v1h8l1,-1h7v1h3l1,1h-2v1h1v-1l1,1h-2v1h-6v-1h-1v1h-12l1,-1h-1v1v-1h-1v1h-3l-1,-1h-1v1h-1v-1h-1v-1h1h-1v-1h1v-2h-1v-1h-1l-1,1l-1,-1h-2v-1l-1,1l-1,-1h1h-1v-1h5ZM481,24h2v1h-1h1l-1,1h-4v-1h1h-1v-1h-1h1v-1h2ZM481,37h1l1,1h4v1h-1v1h-2v1h-1v1h-5v1l-1,1h-1v1l-1,-1h-1v-1l-1,-1v-1h1v-2h1v-1l1,1h1h-1v-1l1,-1h3ZM463,53h1v1h2v1l1,1v1l1,-1v1h-2l-1,1h-4v-1h-2v-1l-1,1v-1h-2v-1h3v-1h1h-1h1v-1l1,1v-1l1,-1h1ZM642,179l1,-1v2h2v-2h-1h1l-1,-1h1v-1h1v1l1,-1l1,1v1h1l-2,2l-2,1h-3l-2,-2v-3l1,-2v-2h1v-1h1v1l1,1v4l-1,1ZM609,185h-2v-3h-3v-4l-1,-1v-1l-1,-1v-2l-2,-2h-2l-1,1h-3v-2h-1v1l-2,2l-1,2v2l-1,1v2l1,1h-1v1l-1,1v1h-1v1h-3v2h-13l-2,1h-5l1,-1l2,-1h1l2,-1h1v-2l1,-1v-1l1,-1l2,-1l1,-1h1l2,-2h3l1,-1h1l2,-2h1l1,-1v-1l2,-2v-1l1,-1h1l1,-2l1,-1h1l1,-1l10,-5h8l1,1l2,1h1v1l-1,-1h-1l1,1h1v2l-1,1h-1v1h-1l-1,1h-1l-2,-1h-1l-1,1l-1,-1v1h-1h2l2,1h1l1,1h1l1,-1h2l1,1l-1,1v2l-1,1h3v2l2,2v1h3v1h2l-1,1h1l2,1h6v1h1l2,-2h1v1l1,1h1v-1l1,1h1v1h-1l2,1h1h-1l-1,1h-2l-2,2h-1l-2,1h-2v1h-2l1,1h-2l-1,-1v1h-1v-1l-1,1v1h1v1l-1,-1v1l-2,2v1l-1,1h-1v1h-2l-2,-2v1l-1,-1l-1,-2v-2l1,-1l-1,1v-1h1v-1h1l3,-3h1l2,-1v-1v1l2,2v-2l2,-1h2h-8v1l-1,-1l2,-2v-1h-1l-1,-1v1h1l-1,2h-1l-2,1l-2,2h-1l-1,-1v-1v2h-1v1l-1,-1l-1,1h-1v-1h-1Z"/>
<path class="sl" d="M654,141v1l-1,1h-1h2v5l-1,1h1v1l-1,1v2h1v1v-1l1,-1v-2h1v1h3v1l-1,1h-1h2l-1,1h4v1v-1h1v1h2v-1l1,-1v1h1v1v-1h4v1h1l-1,1v1l-1,1h3v1l-1,1h-1h2v-1l1,1v-1h1l1,-1v2h-1v2h-1v1h1v2h1l1,-1v-1l1,-1h1h-1v2l1,1v1h1v-2h1v1h1v4l1,1v1h-2l-1,1v-1l-1,-1v-1h-1v-1v2h-1v1v-1h-1v-4h-1v-1l-1,-1h-1v2h-1v1h-1v2l-1,1h-1v1h-2v-2h2v-2l1,-1h-1v-1l-1,1v-1l-1,1h1v1h-2l-1,-1l-1,1l1,-1v-1h-2v1h-2v1h-1l-3,-1h-5l-1,1h-4v-1l-1,-1l1,-2l1,-1h1v-1h1h-5l1,-1h1h-1h1v-2l1,-1h1l1,1l-1,-1v-1h-1v-2h1v1h1l-2,-2v-6h1h-1l1,-1v-3l1,-1h1l1,-1v1h1v-1ZM496,48v1l1,-1h4v-1h1v-1h-3v-1h-1h1v-1h3v1v-1h-1l1,-1h-3v-1l1,-1l1,1h1l-2,-1h-1l1,-1h4l-1,-1h7v1h1v1h1v1h1h-1v1h-1v1l1,-1v1h-1h1h-1v1h1l1,-1h1h-1l1,-1h1v1v-1h1v1h1v1h1h-1v-2h1v1h1l-1,-1l1,-1h4v1h4v1h-1v1l-1,1l2,-2h2l1,1h-2v1h-1h1l1,1h-1h1v-1h1v-1h1v1l-1,1h1v-1h1l1,1v-1h5l1,1l-1,1h-2v1h1v-1h3v-1v1h1v1h-1l-1,1h1v1h1v-2h1l1,-1h1v1h4v1h-2v1h-1h3v1h1v-1h1h-1v-1h1l1,1h2v1h-2v1h1v1v-1h2l1,1h1v1h-3v-1l-1,1l-1,-1v1h-1h4v1h-1v1h5v1l1,1v-1h1v1h1v1h-1h1v-1h2l1,1v-1h1v1h4v1l1,1h-1h2v-1l1,1h1v1l-1,1h1l1,-1h4l1,1h1v1l-1,-1h-1l2,1v1h-1l-1,-1h-1l1,1h1l1,1h-1v2h-2l-1,-1v1h1l1,2v1h-1v-1h-1v1l-2,-2v1h-1l-1,-1h-1v-1h-1l-1,-1h1l1,-1v-1h-1v1l-1,1h-2v-1h1h-3v-1h-2v-1h-2v1h1h-2l1,1h1l1,1h-3l-1,-1h-1l1,1h1v1h1v1h1v-1h1v1h2l-1,1h2v1h1v1h1l-1,-1h1l1,1h3l1,1h-1h2v1h-1h1v1h3v1h1l1,1h-1l1,1v1l-2,-1v-1h-1l1,1v1h1h-1h1v1h2v1h-1l-1,-1v1l1,1h-1l-1,-1h-2v-1h-2l-1,-1v1h-1v-1h-2l-1,-1h-1l-1,-1v1h1v1v-1h-2l-1,-1h-2l2,2h1l1,1h2v1h2l2,1h1l1,1h1v1h2l-1,1h1v1h-2l-1,-1h-3l-4,-1h-3l-2,-2h-4l-1,-1h-2l1,-1l-1,1h-1v-1h-1l-1,-1h-1h2v-1h-4l1,-1h-2v-1h-2l-1,-1h-1v-1h-2v1v-1h-2v-1h-2l1,1l-1,1l-1,-1h-2v1h-3v1l-1,-1h-4v-1h-1v-2h1l1,-1h1h-1v-1h4l1,1h2v1h1h-1l1,1v-1l-1,-1h2v-1h5v-1h-1v-1h-1l-1,-1h-1l2,-2h1v-1h1v-1h1v-1l-1,-2h-1l-2,-2h-1v-1l-1,1l-1,-1v-1h-1l1,1h-2l-1,-1h-1l1,-1h-1h1h-3l-1,1h-2v-1h2v-1l-1,-1h-2l1,-1h-1v1h-1l-1,-1h1h-2l-1,-1v-1h-3v-1h-2v1h2v1h-1v1h-1l-2,-1h-3l1,1l-2,-1l-1,1h-2l-1,-1h-10l-1,-1l1,-1l-1,1h-5l-1,-1h-1l-1,-1v-1h3l1,1h2l1,-1h-4l-2,-1h-2v-2l1,-1v-1l1,-1v-1h1l1,-1l2,-1h1l2,-1h4v1h1h-2v1h-1l-2,2l1,1v2l1,1h1l1,1h1h-1l-1,1h-2Z"/>
<path class="sl" d="M630,158h-7l-3,-1v-1h-1l-1,-1l-4,-1l1,-1h1l2,1h4l1,1l5,1l1,1h1ZM626,176v-1h2l1,1h3l1,-1h3v1h-1l-1,1h-1l1,1v1h-2v-1h-1h1l-1,-1h-1h1h-1v1h-1l-1,-1h-2v-1h-2v-1h-2v-2h1v-1l1,1l-1,1l2,1v1ZM513,83v1h-1l-1,1v1l-2,1h-1v-1h-1l-1,1v-1h-1v-1h1l1,-2h5ZM523,85v1h1v2h-1v2h-1v-1h-1l-1,-1v-2h2ZM531,59h2v4h-6v-1l-1,-1v-1h1v-1h3ZM514,39h6v1h2v1h1v1h-2l-2,-1l-1,1h-5v-2h-2v-1h2ZM524,138h-4l-2,-1h-1v-1h4l2,1ZM531,118v1v-2h1v1ZM530,118v1l-1,1v-2l-1,2h-1l1,-1h-1l-1,1h-1l2,-2v-1h1v-1v2h-1h1v-2h1v1h1ZM525,118l1,-1h1ZM491,28h-1l-1,-1h2ZM463,27h-1v-1h1v1h1ZM480,20l-1,1h-1v-1h1ZM450,41h-1v-2h-1l-1,-1h6v1h-1l-1,1h-1ZM465,31h-1l-1,1h-1v-1h-1h1h-1v-1h3v1ZM463,29h1v1h-3v-1h1ZM432,30l-1,1v-1h-1h2l1,-1h2v1h-1ZM449,25h-1v-1h2v1ZM292,118h1ZM279,133v-1h1ZM292,122h-2v-1v1v-1h2ZM289,126v-3h1v3ZM295,117l2,-1l-1,1ZM293,128l-1,2l-2,2v-1l2,-2h-1v-2h1l1,-1l1,1ZM287,151h-1v-1ZM296,150h-1v-1h1ZM286,149h-1v-2h1v1ZM294,146v1v-2l1,-1v2ZM290,130l-1,1v-2h1ZM289,137h-1l1,-1ZM291,131h1v-1l1,-1h1h-1l-1,1v1ZM291,127l-1,1v-1l1,-1ZM292,127h-1v-1h1ZM296,155v1v-2ZM655,192h-1l1,-1ZM644,182v-1h-1h1ZM634,170h1h-1v-1l2,-2v1h-1v1h-1ZM619,167h-1v1v-1ZM619,166h-1ZM616,191v-1ZM612,188v1ZM571,184h-2v1h-1l1,-1h1l1,-1ZM570,184h-1l1,-1ZM584,175h-1v-1h1ZM657,146h-1ZM665,153v1h-1v-1ZM654,139h-1l1,-1ZM667,152h1l-1,1l-1,-1ZM674,167v-1ZM580,83h2v1h-2ZM572,95v-2l1,1h1v1h-1ZM559,84h-2v-1h-1h2ZM583,89h-1l-1,-1h-1h4v1ZM581,87h1h-2v-1h1ZM571,102h-1v-1h1ZM588,94h-2v-1l1,1ZM615,116v1h-1v-1ZM607,108l1,1h-2v-1ZM552,53h-1ZM575,63h-1v-1h1ZM513,32h-1v-1h1ZM525,115v-1l1,1ZM526,111h-1v-1h1ZM527,116v-1ZM531,143h-1l1,-1h1v1ZM297,155l-1,-1v-1l1,1ZM295,147h-1l1,-1ZM538,61h-3l-1,-1h5v1ZM528,80h1v1h1v1h-2l-1,-1h-1v-1h1ZM480,32v-1v1h1ZM522,100v-1ZM523,99h-1v-1h1ZM471,41h-1v-1h1ZM472,36h-1h1v-1ZM469,38h-2v-1h3v1ZM485,54v1h-1v-1ZM484,55h-1ZM545,84h-1ZM533,59l-1,-1h-1v-1h1l1,1ZM528,94l1,-1h1l-1,1ZM520,59h-1h2ZM533,81h-1v-1h-2l1,-1l2,1ZM517,53h1l-1,1h-3l-1,-1h3ZM522,53v1h-1v-1ZM529,78h-1ZM507,68h1h-1v-1ZM519,57h-1v-1h2v-1h1v1h-1ZM525,55v1v-1h-1v-1h2v1ZM495,52h1h-2ZM505,70h2v1l-1,-1h-2v-1h-1v-1l1,1h1Z"/>
<path class="sl" d="M495,61h-1l1,-1h-1h1v-1h1v2ZM502,71h-1v-1h-1v-1h1l1,1ZM468,88h-1ZM468,29h-1h2ZM469,25h-1l1,-1ZM470,26h-1v-1h1l1,1ZM491,30h-1l-1,-1h2ZM476,33h-1l1,-1h1v1ZM477,36h-1ZM428,30v-1h1h-1ZM446,28h-2l-1,-1h3ZM458,34h-1v-1h1v-1h1l1,1h-1v1ZM453,56v1h-1v-2h1v1h1ZM454,56v-1ZM457,50h-1v-1h1ZM469,54v1h-1v-1h-1l1,-1ZM452,54h-1h1l-1,-1h1ZM448,57h-1v-1h1ZM439,57h-1h2ZM426,61l-1,1v-1l1,-1ZM424,59h1ZM424,63h1ZM423,59v-1h1ZM359,46h1ZM791,548h1v-1h8v1l-1,1v2h-1l1,1h-1v2l-2,2l1,1h-1v1h-2v1h-2v1h-1v1h-5l-1,1h-1v-2l-1,-1v-3h1v-1l-1,1v-7h1l1,-2h1ZM802,734l-1,1v-1ZM767,761v-1l1,-1v2ZM794,740l-1,1h-1l2,-2ZM826,568l-1,1v-2l1,-1v1ZM853,650l1,-1v-1v1ZM852,653l-1,1v-1ZM823,554v1ZM790,543v1l-1,2h-3v-2h1l2,-1ZM786,529l-1,1v-1l-1,-1h1v-1h1ZM784,547l-2,2h-1v-2h2ZM792,546l-2,1h-1l2,-2h2v1ZM785,545v1h-1v-2l1,-1v-2h1v3ZM787,542l-1,1v-2h1l1,-1v1ZM775,559h-1l1,-2l1,-1v-2l1,-2l1,-1h1l1,1l-1,3l-1,2l-2,1ZM765,771l-1,1l1,-2v-1l1,-1v1l-1,1ZM477,400v1v-1l1,-2v1ZM478,405l-1,1l1,-1v-1h1h-1ZM711,437h-1v-2l1,1h1ZM560,347h-1l1,1v-1l1,1v3h-2v-1l-1,-2l-1,-1h1l1,-1h1ZM562,333v-1h-1l1,-1v-4h-1l-1,-2h-4l1,-1h1v1h2l1,1h1v1h1v1l1,1l-1,1v2ZM598,371v1l-2,2h-3v-2h1l1,-1l1,1h1v-1l1,-1ZM559,343v2h-1v1h-1l-1,-1h-1l-1,-1v-1l1,1v-3l1,-1l-1,-1h2v1l1,1v1ZM552,326h5v1h-3l-2,1h-2l-2,-1h3v-1ZM562,340h-1h2ZM589,359h-2v-1h1v1ZM585,348v1l-1,-1l1,-1ZM588,363l2,-2v-2h1v1l-1,2h-1ZM567,336l2,1h1l1,2h1l-1,2v1h-1h1v-3l-1,-1h-1l-1,-1h-2v-1ZM576,353h-1l-1,-1h-1v-1h1l1,1v1ZM583,357v1l-1,-2h-2v-2l-1,-1v-2l1,1v2l2,2ZM578,347h-1h1v-1h-1l-1,-2h-1v-1l2,2ZM597,361h2l1,1h-4ZM599,369h-1v-1ZM582,937v-1l2,-2v-1l1,-2v-1l2,-2l1,1h-1l-1,1h2v2h1l1,1v1h2l1,1h1l1,1h3v1h-6v1h-1l-1,-1h-7ZM602,936h1h-1l-1,1v-1ZM654,854h-2v-1h1v1ZM691,404h-2v-1l1,-1v1h1ZM690,399h-1v-1h1ZM656,954h1h-2ZM402,990h-3l-2,-1h-3l-1,-1l1,1h1h-1h1h-1v-1v1h10l1,1h8l2,1h14l1,1h3v-1h-1h3v1h2v1h5l-1,-1h-1h4v1h-1h6l1,1h16v-1h-5v-1h-1h2l-2,-1h-6v-1h2l1,1h-1h13l2,1h16v-1h5v1h10l1,1h7v-1h2v-1h2v1h6v1h2l1,-1h11l1,-1h8l1,-1h3l1,-1h1l-1,-1h1v-1h1v-1l-1,-1h1v-1h4l1,-1h1h-1l1,-1h1l1,-1h1h-1v-1h3v-1h-2l-1,1v-1h1v-1h2v1h1v-1h1v-1h3l1,-1h2v-1h4v-1h2v-1h1l1,-1l1,1l1,-1v1l1,-1h-1h3v-1h4l1,-1h2l1,-1h4l2,-1h2l1,-1h2l2,-1h3v1h-4l-2,1h-1l-2,1h-1v1h-6v1h-1l-2,1h-3v1h-2v1h-2l-1,1h5v-1h1v1h-2l-1,1v-1h-2v1h-1h1l-1,-1l-1,1h-2v1v-1h-4v1h-1h1l-1,1l-1,-1h-1v1h-2v1h-3v1h-1v1h-1h3v-1v1h-2v1h-1h4l1,-1h1l-1,1h-1h1h-1v1h1v2h-2l1,1l1,-1v1h-1v1h-2l-1,1h-1h2h-3l-1,1h3v-1h1v1h-3v1l1,-1v1h-1h1h-2l-1,1l-1,-1h-1v1h1h-1v1h-3l-1,1v-1h-1v1h-4v1h-5l-1,1h-6l-4,1h-16v1h5l-1,1h-4l-2,-1h-7v1h1h-2v1h17l-1,1h-44l-1,-1h-15l-1,-1h-10l-1,-1h-8l-1,-1h-8l-1,-1h-5l-1,-1h-6l-1,-1h-5l-1,-1h-4l-1,-1h-5ZM531,999h7l1,-1h1h-1l-1,1h-6ZM576,994h-2v1h-1l1,-1h5l2,-1h4l1,-1h4l3,-1h2l3,-1h4l1,-1h1l3,-1h1l-1,1h-5l-1,1h-3l-1,1h-5l-1,1h-4l-1,1h-5l-1,1h-3Z"/>
<path class="sp" d="M396,989h-2l-1,-1M524,999h-1l-1,1h-44l-1,-1h-15l-1,-1h-10l-1,-1h-8l-1,-1h-8l-1,-1h-5l-1,-1h-6l-1,-1h-5l-1,-1h-4l-1,-1h-5l-1,-1M525,999v0M543,998h-4l-1,1h-7M611,988h-3l-1,1h-5l-1,1h-3l-1,1h-5l-1,1h-4l-1,1h-5l-1,1h-4"/>
<path class="sl" d="M562,996h1h-4l-1,1l-12,1h-1h2l1,-1h6v-1h7v-1h4l-2,1ZM536,998h-1v1h-7l4,-1h5ZM546,984h1v1l1,1v1h-1h1h-1v1l-1,1h-2v1h-10l-1,1v-1h-1h3l3,-1h-7v1h-4v-1h3v-1h1v1h1v-1h7v-1h3l1,1v-1h-2l1,-1h2h-4v-1h1v-1h-1l1,-1h6v1ZM465,989l1,1v-1h1v1h1v-1h3l-1,1h-1h3v1l-2,-1h-10l-3,-1h7ZM419,990h1l1,1h-2l-1,-1h-4v-1h1l1,1h1ZM405,988h3v1h5v1h1h-3v-1h-5l-1,-1h-1ZM572,995h-1h2ZM523,999h-2v-1h6l4,-1h1l-1,1h-8ZM601,969v-1h1v1h-2l-1,1v-1l-1,1v-1h1h-1h1v-1h2ZM612,965h1v1h-4l1,-1ZM608,962h1h-2l-1,1h-3l2,-1h2ZM581,971h-1h1h-1l-1,1h-3l1,-1h2v-1h2ZM584,970v1h-2l1,-1h1v-1h1l1,1h-1ZM557,979l-1,1h-3v-1h2l1,-1h1l2,-1h1l-1,1h-1v1h-2ZM533,987l-2,1h-5v-1h6ZM531,985h1v1h-4l2,-1ZM527,991v1h-1h1h-4v-1h5ZM485,992h-1v-1h-1h3v1ZM528,999v-1h-1h2v1ZM528,998h-1h2ZM621,959h-1v-1h2ZM609,967h-1v-1h2ZM601,970h-1h1l1,-1h1h-1v1ZM610,965l-1,1v-1h-1h1ZM603,968h1h-2ZM568,984v-1h1v1ZM596,964h2v1v-1l-1,1h-1h1h-3l1,-1ZM540,985h-3v-1h2v1ZM475,991h-1h1l1,-1v1ZM452,991h-2v-1ZM423,991h-1v-1h-1h2ZM411,990h-2l-1,-1l1,1h1ZM625,984h-1l-1,1h-1h1h-1h1l1,-1h3v-1v1h-1ZM639,980h1Z"/>
<path class="sp" d="M640,980h-1"/>
<path class="sl" d="M624,959l1,-1ZM603,963h-1ZM570,984h-1ZM575,982h-1l1,-1ZM568,986v-1h2v1h-1ZM568,986h-1ZM601,964h-1ZM595,966h-1h1h-1ZM592,969h-2l1,-1h1ZM586,969h1ZM579,972h-1h1l1,-1v1ZM587,966h1ZM568,975h-1h1v-1h1ZM564,976h-1h2ZM560,978h-1h2ZM558,980h-1h2ZM539,986h1ZM528,992l1,-1v1ZM478,991h-1ZM429,991h-1h1h-1ZM402,989h-1ZM405,989h-1ZM393,988h-1Z"/>
<path class="sp" d="M401,990v0"/>
<path class="sl" d="M396,989h-2ZM398,989v1l-1,-1Z"/>
<path class="sp" d="M398,990l-1,-1"/>
<path class="sl" d="M679,395h1v1Z"/>
<path class="sh" d="M517,426l-1,1v-1l-1,1v1h1l1,3v1l-1,1v1h-1v2l-1,4v8h-1v-1l1,-1v-1l-1,1v1h-1l1,1v3h-1v2h1v2h-1v2l-1,1l1,1v1l1,1v1h-1l-1,1l-1,-1h-1l-2,-2h-4v1l-3,-1l-1,-1h-3v1h-1v-2l-1,-1l-5,-3l-2,-4l-1,-1l-2,-1l-3,-3l-2,-1v-1l1,-1l1,1h4v-2h1l1,-1v-4h3l2,-2h1l2,2v-1h1v-1h1l3,-3v-1l1,-1v-1h1l1,-1h1v1h1l1,1l1,-1h2l1,-1v1l1,-1h2l2,-2Z"/>
<path class="sw" d="M514,207v2h3v1h1v-2h2v-1h2v-1l2,-1l1,-1h2l1,1h2l1,-1h1l1,-1h7v-1h-1v-1h1v3h-1v1h-1l-1,1l-4,2l-1,1l-4,1l-2,1h-2l-1,1v1h-7v-1h-3l-1,-1h-1l1,-1h1v-2ZM540,202v-1l-1,1ZM517,211v-1l-1,1ZM439,150v1h-1v-1l-1,1v1h-2v-2h1v-2h1v-1h1v-1l-2,1l2,-2v-1h-2v1l-1,1v-2l1,-1l-1,-1h-1v1v-1h1v-1h-2v2h-1v-1l-1,-1v-1h-1v-1l-1,-1v-2h1h-2v-1h-1l2,-2v-1h1v-1h3l1,1h1l-1,-1h-1v-1h1v-1l1,-1h1h-1h1v1h-1l-1,1l1,1v-1h1h-1v3h1v2l1,1h-1v1l1,1v4h1v2l1,1v1l1,1h-1v2ZM433,140v-1h-1v1ZM438,148v-1l-1,1ZM408,82h-3v-1h-4l-1,1h1h-1l1,1h-3v1h-2v1h-1l-1,1h-2v1h-3l-1,1v-1h1h-2l-1,1h-1v1h-4l-1,1v-1l-2,1h-2l-1,-1h-1l-1,-1h-1v-1h-1h1v1h2v-1h2v1h1v-1h1h-1h2v-1h1v-1h4v-2h-1h1v-1h-1v-1h2v1h1v1l1,-1h1v1h-1h1v1h7v-1h2v-1h1l1,-1h9ZM395,84h1h-1l-1,1h-4v1h1h-1v1h1l1,-1h1l1,-1h1ZM558,191v1l-2,1l-1,1h2l-1,1h1l-1,1v-1v1l1,1v1h-2l-2,2h-6v-1h-6l-2,1h-1l-1,1v-1h-3l1,-1v-1h1v-1h1l1,-1h4v-1h8v1h1l1,-1h-1l1,-1h-3l1,-1v1l1,-1v1v-1h1l-1,1l1,-1h3l2,-1ZM553,194v-1v1h-1ZM556,195v-1ZM556,193h-2v1h1v-1ZM557,193h-1ZM392,64l1,-1v1h-2v1h-2v1h1h-1l-1,1h-1l-1,-1h-4v1h1v1h-3l-2,1h-3v1l-1,-1h3l2,-1l1,-1h1v-1h-1l-1,1h-3v1h-1l-1,1h-1l-1,-1h-2v-1h3v-1h2l1,-1h1l-1,-1h2l1,1h1l1,-1h-1l-1,-1h-3v1h-1v-1h-4v1h-1v-1h1l1,-1v1h1v-1h8l2,-1h8l-1,1h-5v1h-1h2v1h5v-1h1ZM514,207h1v-2h1h-1l1,-1h1v1h-1h1l1,1v1h-3ZM754,69h-1h1v1h2v1h1l1,1h1v1h1h-1h1h-1v-1h-2v-1h-1v-1h-1h1h-1l-1,-1h-2v-1v1v-1l1,1ZM536,325l-1,1v1h-1v-1h-1v-1h-1v-1h1l1,-1h1v1ZM503,458h1v1l-1,1h-2l-1,-1h-2l-1,-1h-1v-1h-1v-2h-1v-4h3v1h1l1,1h1l1,1l1,2v1h1ZM631,691v-1h-1l1,-1h-2v-1h-1v-1l-1,1h-1v-2h2l-1,-1v-1h1v-1h1l2,2h1v1h1v1h1v1h2v1h-1v1h2v1h-1v1h-1v1h-2v-1h1v-2l1,1v-1h-1l-1,-1v2h-1ZM427,135h-1v1v-1h-4v-1h-1l-1,-1h1v-1h2v-1h-1h1v-1h-1h1l1,-1v-1h1v1h1h-1l-1,1v1h1l1,-1h1h-1v1h-1l-1,1h-1h1v2h3ZM330,212h-1v1h-1v1h-1v-2l-1,1v-4h-1v-1l1,-1h1v2h1v1l1,-1v-1v1h1h-1v2h1ZM329,213v-2l-1,1ZM503,183h-1l-1,1v1h1l-1,1h-2v3h-1v1v-1v1h-1v-1h1l-1,-1h1v-1h-1l-1,1v1v-1l-1,1v1h-2v1h1l-1,1v1l-1,1v5l1,1v2l1,1v1l-1,1v2l-2,2v1h-1v1l-2,1h-2v-1h-1l-1,-1v-2h-1v-4h1l-1,-1v-4h1v-4h1v-1h1l-1,-1l1,-1v-1l1,-1v-1h-2v1h-1v1h-2l3,-3v-1h1l1,-1v-1l2,-2v-1v2l2,-2v1v-1h1v1h-1v1l1,-1h1v-1h4l1,-1h3v1h2ZM498,183v1ZM495,187v1ZM489,185v1h1v-1ZM489,186h-1v1h-1v1l-1,1h2v-1h1v-1h-1h1Z"/>
<path class="sw" d="M505,178h-1v1l-1,-1h-2v-2h-1l-1,1h-5l-1,1h-6v-1h-1l-2,-2h-2l-1,1h-1h1v-1h-1v-2h-1v1h-1l-1,1h-1l-1,1h-3l-1,1h-5v-1h1v-1h-1l-1,1v-1h-1l-1,1h-1l-2,1l-1,-1l3,-2l1,-1l3,-2h1l1,-1h3l1,-1h2v-1h1l2,-2v-1h1l1,-1v2h-1h2v-2h1v-1h1v1l-1,1h-1h2v-1h1v-2h-1h4v1h7v1h1v2l2,2h1l1,1h4v1h-1v1h1v1h1v1h1h-1v2h2v1h-1v1h1h-1v1ZM468,176h-1ZM469,174v1ZM484,163h-1l1,1v-1h1ZM478,169l2,-1v-1h1h-1l-1,1h-2v1ZM485,172h-4l-1,1v1h1v1v-1h1v-1h1l1,-1h-1ZM486,163h-1ZM498,170h-1ZM505,178h2v1h1l1,1h8l1,1h4v1v-1h1l1,1v-1h1v1h2v1h1v1h1v1h1v1h1v-1l1,1h-1v1h1h-1l1,1h1v1h1v1h-1v-1h-1v3h-1l-2,-1l-1,-1h-1v1v-1h-2l1,-1v-1v1h-1v-1h-1v-1l-1,-1h-1v1h-1h2v1h1v4h-1v1h-1v7h-1v1h-2l-1,1h-1v-2l-1,-2v-2l-1,-1h-3v1h-1h1l-1,1h-1v1h-1v-1h-1v-2h2v-1l1,-1h1v-4h-1v-1h1v-1h-1v-1h-1l-2,-1h-1l-1,-1h-1l-1,-1h-1v-2h1v1h1v-1v1h3v-1h-1v-1h-1v-1ZM511,182h-1h2ZM510,181h-2v1h2ZM508,181v-1h1h-1l-1,-1v2h1v-1ZM506,179v1h1ZM506,179v-1ZM505,183h-1ZM514,183h2l1,1h4v-1v1h-1v1h1v-1l1,-1h-1l1,-1h-1v1h-1l1,-1h-5v1l-1,-1h-3ZM531,190v-1ZM404,337l-2,4v3l-1,2v1v-3l1,-2v-5h2v-1ZM420,105v1h-2v2h-1v1v-1h-2l1,-1h-1h1v-1h1v-1l1,-1v1l1,-1h1l1,1ZM396,100h-4v1h-2l-1,1h-1l-1,1v-1l-1,1v-2h1h-1h2l2,-1l1,-1h2l1,-1h1l1,-1h1v1h1v1l1,-1h3l1,1h4l2,1h-3l-2,-1h-2v1h-5ZM567,147l-2,2v-1h1v-1h-1v1h-1v2h-1v4h-1v1l-1,-1h1l1,-1v-1l-1,-1v1h-1l1,-2v-1l3,-3h2l-1,1h2ZM804,105l2,2h-1v-1h-1v-1h-1v-1h-1l-1,-1h-1h2v1v-1v1h1v1ZM805,105h-1v1h2v1v-1h-1ZM450,159v1h-1v-2h-2l-1,1h1v1h3l-1,1h-1l-1,1h-2l-1,-1v1h-2v-1h1v-1h2v-2h2v-1h-1l-1,1h-1v-1h1v1l1,-1h1l1,-1h-1v-1h1v2h1l-1,1h2l-1,1ZM446,160v1h1l1,-1h-1ZM484,156h-1h1v1l-1,1v1h-2v-1v1h-1v-1h1h-2v1v-1h-1h1v-1h-1v-1l1,1v-2l1,-1h3v1h1ZM481,155v1h-1h1v1v-1ZM482,158v-1l-1,1ZM424,108h1l-1,1h-1v1h-1v1h1h-1l-1,1h1l-1,1h-1l-1,1v1h-3v1h-2v-1h1v-1h1v-1v2l1,-1h1v-1h1v-1h-1l1,-1h-1v-1h1v-1h1l2,-2h1v-1l1,1h-1h1ZM560,200h-1ZM265,81h-2v1h-3l1,-1h2ZM249,89h-1v1h-1h1v-2h1ZM279,223h-1v-1l1,-1v1ZM480,195v1h-1v-2h2ZM547,66v-1l1,-1h-1h2l1,1h3l1,1h1v1h-5v1h-1v-1l-1,-1ZM435,81l1,-1h2v-1l1,1l1,-1l1,1h-2v1h-1v1h1h-1v1h-1v-1h-1v1h-1h1h-1v-1h-1v-1ZM464,77h2l-1,1h-1l-1,-1h-5v-1h4l1,1Z"/>
<path class="sw" d="M574,193l-1,1l1,1v1v-1l-1,-1v-1l1,-1h-1v-5h1v5ZM288,268v1h-1v-2l-1,-1h1l1,1ZM380,78h-2v-1h-1l1,-1h1v1h1ZM580,869v-2h2v2l-1,-1ZM575,164h-1v-2l1,1h2v1h-1ZM552,204v1l-1,1l1,-1ZM553,206v-2l-1,-1h1v2ZM556,205h-1v-1l-1,-1v-1v1l1,1v1ZM992,411v3l1,1l-1,-1v-4l-1,-1h1v1ZM404,108h1l-1,1v1h-4v-1h1l1,-1h1ZM443,82h1l1,-1v2h-2ZM426,95h1v-2h1v1l1,1v1h-1v1v-1v1l-1,-1v-1ZM461,298h-1v-1h1ZM554,119h-2l-1,-1h-1v-1h2l1,1h1ZM529,180v-1v1h2l-1,-1h4l1,1h-5ZM542,118v-2h1v1h1v1h1h-1ZM668,799h-3l-1,1v-1h-1v-1h1l1,-1h3v1ZM547,133v-1h1v-1h3v1l2,-1h1h-1v1h-1h3l-1,1h-5v1h-2v-1h1v-1h-1ZM547,132v1h-2l-2,1h-2v-1l-1,1v-1h-1v-1h4v-2h-1h3v-1v1h1v1h-1l-1,1h1ZM247,89v1h-2v1v-1h1ZM612,394v1l-2,-1h1ZM308,50l-1,1v-1ZM377,92l-1,1h-1l1,-1ZM545,135h-1v2h-1v-3h1v1ZM573,917h-4l-1,1h-1h1v1h-1v-2h-1v1v-1h1h-1v-1h1l1,1h3l2,-1ZM411,96v1h-2l1,-1v-1v1h1v-1h1h-1v1h1ZM515,16h1ZM477,138l1,-1h2v1h-2ZM844,139h1l1,1h-1l-1,-1v-1ZM783,101h1l1,1h-1v-1ZM755,70h1v1h2v1h1l1,1h1l1,1l-4,-2l-1,-1h-1v-1ZM349,189h-1v-1h-1h1l1,-1v1ZM346,39h-1v-1h1ZM338,164v-1l1,1l-1,1h-1h1h-1v-1ZM307,249v-1h-1v-2h-1v1l-1,1l-1,-1h-3v-1h3v-1l1,-1v1l-1,1l1,1h1l1,-1v1h1v1ZM383,102v1l-1,1l-1,-1v-1h1h-1v-1h3v1ZM610,128l1,1h-3l-1,1l-1,-1h-1l-1,-1h-1v1h-1v1h-1v1l1,1h1h-2v-1h-1v-1l-1,-1h-1l-1,-1l-2,-1h-1v-1h-1l1,1v1h1h-1l-1,-1v-1h-1h1v-1h-1v-1l-1,-1h1h-1h1l1,1v1l1,1h1l1,1v1v-1h1v1h1l1,1h1l1,-1l1,1v-1h-1l-1,-1v-1h-1v-1v1h1v1h1v1h4l-1,-1h-1v-2h-1h1v1h1l1,1h1v1h3ZM469,419v1h-1v1l-1,1h-2v-1h1l2,-2ZM722,52h1h-1h1v1h2v1l-1,-1h-1v-1ZM466,149h3v-1h2v1h-4ZM561,165h-1v-1h-1v1h-1v1v-2h1h-1v1h-1v-1h1v-1h2v-1h1v2h1l1,1h1h-2ZM752,68h-1v-1Z"/>
<path class="sr" d="M751,67l1,1"/>
<path class="sw" d="M560,124l1,-1h3v1h-2l-1,1h-2v-1h-1h1ZM751,507v1h1h-1v1v-1l-1,1v1h-1v-1h-1l1,-1v-3h1l1,1h1v1ZM686,36h-1v-1v1h2ZM551,203h-1v1v-1l1,-1ZM556,203h-1v-1ZM557,203h-1v-1ZM258,74h-1l-1,1v-1h2v-1ZM337,205h-1v1v-2h1ZM329,218h-1v1v-1l1,-1v-1h1v2ZM371,59h1l-1,1h-1h1ZM447,173h-1v1h-1v-1v1h-1v-1h2v-1v1ZM471,162v1h-2v-1h1ZM556,175h1l-1,1h-1v-1h1v-1ZM585,863h-1v-1h2ZM355,90h-1h1v-1h1v1ZM572,915l-1,-1h-2v-1h1l1,1h2v1ZM720,51h-1h1v1h1h-1ZM624,191v1h-1v-1ZM614,180h-1h1v-1h1ZM286,202l-1,1v-1l1,-1ZM284,217v-1l-1,-1h2l-1,1ZM275,237v1h-1ZM396,54h1v1h-2v1v-1h1ZM585,158l-2,-2v1l-1,1h1h-2v-1h-1v1v-1h2v-1h1v-1h-1h1v1h2v1h1l1,1h-1v-1h-1ZM654,156v-1l1,1h-1v1l-1,1v1l-1,1h-1l2,-2v-2ZM373,58h-1h1v-1h1h-1h1v1ZM375,58h-1v1h-1v-1h1ZM383,69h1v-1h1l1,1h-1v1h-1v1l-1,-1ZM473,132h4l-1,1h-1l-1,-1ZM456,148v1v-1h-1v-1h2v1ZM454,132h-4v-1h5v1ZM576,136h1v1h-2v-1v1h-1v-1h1ZM406,122v1l-1,-1v1h-2v1h-1v-2h3ZM450,179v1h-2v-1h1ZM587,197h1h-2v-1h1ZM536,193h-1v-1l1,-1v-1v1h1v1h1h-1v1ZM456,126h1h-1v1h-3v1h-1v-1h1v-1h2ZM299,193v1h-1v-2h1l1,1ZM660,162l-1,1v-2h1ZM449,121v1h-1v-1ZM293,53h-1ZM263,70v1v-1h1ZM254,81h1ZM260,78h-1h2ZM261,77v-1h1v1ZM257,80h-1h1v-1ZM455,165h2l-1,-1h-3v-1h-1v-1h2v1h1h-1v1h1v-1l1,1v-1v1h1v1h1h-1h1v1v-1h-2ZM331,113h-6v4h-1h1v-3h-1v-1h1v-1h-1h1l-1,-1l1,-1v-1v2h1l-1,1h2l1,1l1,-1h2l1,1ZM448,118h-1l1,-1h1l-1,1h-1ZM379,168v1v-2h-3v1h-5l-1,1h-1h1v-1h-1h2v-1l1,1h1v-1h5v-1h1v1ZM402,169h-1v-1h-1v-2h-6v-1h1v1h1l1,-1h2v1h1v2h1v-1h1v2l1,1h1l1,-1h2v1h-5ZM315,91v-1h1v-3l1,-1v1l-1,1h1v1h-1v2ZM324,154v-1h-1h1v-2h1l-1,1v1ZM328,162h-1v1h-1l1,-1h1v-1h-1h1ZM308,163v-2l-1,-1l1,1v1ZM411,101h-1l-1,1v-1l2,-1h1v1ZM296,72v1v-1h1ZM443,168h-1v-1h1ZM443,167h1l1,-1h1v1h-2ZM449,84h-1v-1h3v-1v3h1h-3ZM554,74h-5v-1h-1h1v1h1v-1h-1h1v-1h-1v-1h-1h2v1h3v1h1v1h1h-1h1v1ZM382,302l-1,1h-1v-1h-1h1h-1v-1h1v1h2v-1ZM552,173v1h1h-2v-1h-1h1h-1v-2h-1h1v-1h1h-1v1h2v1h-1v1ZM359,379h-4v-1h-1h2l1,-1l1,1v1ZM492,449v1h-1v-1h-3v-1h1l1,-1h1v1ZM734,751l-1,1v1h-1v2h1l-1,1h-1v1h-1v-1l1,-1l-1,-1h1v-1h-1h2v-2h1v-2h1v-2h1h-1v3ZM548,476h-1v1h-1v-1l-1,1h-1h1v-2h1v1h1Z"/>
<path class="sw" d="M836,130h1v1l-2,-2ZM995,447v-1v1h-1v-1v1v-1v1v-1l1,1v-4h-1v-4h-1v1v-1h1v-2h-1v-3h-1v-3h-1v-1v1v-1l1,1v-1h-1v-1h1v4h1v4h1v-1h-1v-1l1,1v1v-1v6h1v4ZM995,447v-1ZM727,807v1h-1v1h-1v1h-1v-1h-1v1l-1,1h-1v1h-1v2h-1v-2l2,-2h1v-1h1v-1h1l2,-2h1v-1v1ZM430,152l-1,1h-3v-5h-1v-1l1,1v-1h-1v-2l-1,-1l-1,1v-1l1,-1l1,1v-1l1,1v1v-1h1v2l1,1h-1v1h-1v1h2l1,1v1ZM422,144h-1v-1h1v-1h-1v1v-3l1,-1v-2h-1v1v-2h-1l-1,1h-1h1h-1v-2h5l1,1h1l-1,1v2l-1,1v2l-1,1h1v1ZM591,145v2h-1v2l-3,-3h-1v-2h-1v-1v1h1v-1v1h1v-1l1,1v-1h1v-1v2h1v-1h1l-1,1h1h-1h1ZM589,145h1v-1h-3v2h1l1,1h1v-1ZM391,114h-1v-2h1v1h1l-1,1l1,1v1h-1v1h-1v1h-1l-1,1h-1h1v-2h-1v-1h1l1,1v1v-1h1v-1h1v-1h-1ZM583,898h-6l-2,1l-1,1h-1v1v-1h1v-1h1h-1v-1h1v1h1l1,-1h2l1,-1h2ZM307,249v-1h-1v-2h-1v1l-1,1l-1,-1h-3v-1h3v-1l1,-1v1l-1,1l1,1h1l1,-1v1h1v1ZM332,235l-4,4v1h1h-2l-1,1h-2l-1,1v-1h1l1,-1h2l2,-2v-1h1l1,-1ZM439,110v1h1l-2,2h-2v1h-4v1l-1,-1h1l1,-1h2v-1v1h1l1,-1v-1h1v-1h1l1,-1v1ZM845,620v1l-2,1v1h-1v1h-1l-1,1v-1l-1,1h-1v-1v1h-1v1l-1,1l2,2h-1v-1h-2v6l-1,1v-1l1,-2v-1l-1,-1v1h-1v2l-1,1l-1,2v2h-1v-1h-1v-2l1,-1h1v-1h-1v-1l1,1h1v-1l-1,-1h2l-1,-1l1,-1v1h1v-1l-2,-2l1,-1v1l1,1v-1h1v-3h1v-1h1v-1h1v1h4v-1l1,-1h-1v-1l1,1v-1h1v-2h1l-1,1ZM831,635v-1v1h-1h1l-1,1v1h1v-1ZM529,163v-1h2v1h2l1,1v1h1h-1v-1h-4v-1ZM379,168v1v-2h-3v1h-5l-1,1h-1h1v-1h-1h2v-1l1,1h1v-1h5v-1h1v1ZM408,187h-1v1l-1,1v-1v3h1h-2v-3h-1v1h-2l1,-1h4v-1l1,-1v-1h-1v-1h1l-1,-1v-1l1,1v-1h1v-1h-1v-3l1,-1v-1h-1v-1l1,1v2l-1,1v1l1,1v2h-1l1,1v1l-1,1ZM315,91v-1h1v-3l1,-1v1l-1,1h1v1h-1v2ZM324,154v-1h-1h1v-2h1l-1,1v1ZM995,447v-1v1h-1v-1v1v-1v1v-1l1,1v-4h-1v-4h-1v1v-1h1v-2h-1v-3h-1v-3h-1v-1v1v-1l1,1v-1h-1v-1h1v4h1v4h1v-1h-1v-1l1,1v1v-1v6h1v4ZM995,447v-1ZM699,41h-2v-1v1h1ZM699,41l1,1h-1h1ZM717,50v-1h-2l-1,-1h-2v-1h-1h1l1,1h1l1,1h2ZM711,47h1ZM415,76h-4v-1h3v-1h1v1h-1h1h-1h1l1,1ZM416,76h2v1h-2v-1h-1ZM413,198l1,1v1h2v1h-1v-1h-1v-1h-1l-2,-2v-1l1,-1v-1v2h-1h1v2ZM392,325h1l-1,1l-1,-1v-1v1v-2h-1v-1h1v1l1,1ZM390,121v-2h1v1v-1h1v-1l1,-1l-1,1v1l-1,1v1ZM421,93v1h-1v-1h-1v-1h1h-1h1v-1h1v1h-1h3v-1v1h-1l-1,1h-1h2ZM463,73h-1v1h-1v-1v1l-1,-1h2Z"/>
<path class="sw" d="M580,129h1l-1,1h-2v-1h-1v-1h-1h2v1h1ZM584,131v2h-1v-1h1l-1,-1h1h-1v-1h-2v-1v1h1v-1v1h1ZM575,127l-1,1v-1v1l1,-1h1v-1h1v1h-1ZM480,248v2l1,1v2l-1,1v-6l-1,-2ZM520,269l2,2h-1v-1h-1v-1h-1v1v-1ZM332,136h1v1h-2l1,-1v-1h-1v-1l1,1ZM527,305v-1v1l1,1h-1ZM299,259l1,1h1l-1,1v-1ZM272,209h1v1h-2v-1ZM399,69v-2h1v1h-1h1v1h2l1,1h1v1v-1h-2l-1,-1h-1ZM280,197h-1l1,1l-1,1v-2ZM296,194v-1h1v1ZM605,182h1h-2v-1ZM789,584l-1,-1l1,-1v-1l1,-1v-1v1l1,1v3l1,1v5l1,1h1l-1,1l-1,-1v-1l-1,-1v-2l-1,-1v-1h-1h1v-1ZM806,700v1h-1v2h-1v-1h-1v1v-1h1v-1h-1h1v-1h-1l1,-1v-1v1h-1v-1h1v-2h1v1l-1,1h1v2ZM761,717v-1h1l2,-2v-3h1v2h1l1,-1l-2,2h-1v2h-2v1l1,1h-1ZM583,865h1ZM600,892v1h-2v-2h1v1v-1h1ZM836,130h-1v-1v1ZM289,47h-1h2v-1v1ZM312,80l-1,1l1,-1v-1ZM255,86h-1v-1h1ZM268,79v-1h1l-1,1h-1ZM273,80h1v1h-1ZM269,71h-1ZM263,72h-1h2ZM267,68l-1,1ZM275,64h-1h2ZM482,262h3l2,1l1,1h-1l-4,-2v1h-1ZM733,58h1ZM731,57l-1,-1l1,1h1v1h1h-1ZM546,146h1v1h-2v-1ZM466,148v1l-1,-1ZM536,148v1l-1,-1ZM539,171h-1v-1h1ZM547,171h2l-1,1v-1h-1v1v-1h-1v-1ZM416,73h-1h2ZM414,73h-1ZM413,73h-1h1v-1v1h-1ZM518,48h-1ZM443,52h-1ZM456,62l1,1h-2ZM445,123h2l1,-1v1h-2ZM415,126v-1h1v1l-1,1h-1ZM397,128l1,-2h1v1h-1v1h-1v1ZM573,133h1h-2v-1h1ZM625,137h1l1,1h-1v-1h-1l-1,-1h-1h1ZM404,72h-1v-1ZM509,166h-1h1v-1h1ZM395,118h1ZM398,119h-1h2ZM431,83v1h-1h1ZM425,89l1,-1h1l-1,1ZM417,104v-1h1v1ZM576,115l1,1v1l2,1l-2,-1l-1,-1ZM487,66l-1,1l1,-1h1ZM490,66h-1Z"/>
<path class="sb" d="M889,209l-1,-2h-1v-1l-1,-1v-1l-1,-1v-1l-3,-3v-1h-1v-1l-5,-5h1l-2,-2v-1l-2,-2v-1h-1v-1l-2,-2h-1v-2l-1,-1v-1h-1v-1h-1v-1h-1v-1h-1v1h-1v1v-1v1l-1,-1v-1h-1v1l1,1M868,167v-1h-1M869,166v1h-1v-1h-1l-1,-1v1h1h-1v1v-1h-2v-1h-1l-1,-1h-1v-1M825,121v1l-1,-1M820,118h1v1h1v1h1l1,1h-1v-1v1l-1,-1l-2,-1h1l1,1h-1v-1h-1v-1h-2v-1h-1l-1,-1v1v-1h-1v-1h-1M816,114v1v-1h-1v-1h-1v-1h-2v-1h-1h1v1v-1h-1l1,1l-1,-1l1,1M837,131h-1v-1l-1,-1h-1l-4,-4l-2,-1v-1h-1v-1v1h-1h1l-1,-1h-1v-1h-1v-1h-1v-1h-2v-1h-1v-1h-1v-1h-1l-1,-1h-1v-1h-1v-1h-1v-1h-1l-2,-2h-1l-1,-1v-1h-1v-1h-1l-2,-2h-1v-1h-1l-2,-2l-2,-1v-1M848,142l-2,-2h-1v-1h-1h1v1h1v1v-1h-1v-1h-1v-1h-1l-2,-2v-1h-1v-1h-1v-1h-1v-1h-1v-1h-1h1h-1v-1h-1h1M839,133v-1h-1M840,134v-1h-1l1,1v-1h-1v-1h-1l-1,-1v-1h-1h1v1h1h-1v-1h-1v-1h-1v-1M821,116h-1v-1M819,115l-1,-1h-1v-1v1v-1h-1v-1M861,154h-1v-1h-1v-1h-1h1h-1l-2,-2v-1h-1l-4,-4v-1h-1l-1,-1h-1v-2h-1v-1h-1v-1h-1v-1h-1v-1v1h1v1h1l1,1v1v-1h-1v-1l-1,-1h-1v-1h-1h1v1v-1v1v-1h-1v-1h-1v-1v1v-1h-1v-1h-1h1h-1v-1h-1v-1M523,473h-2v-1l-1,1v1l-1,1l1,2l1,1v1h-1v3l-1,1v1l1,1v1M475,419h-1l-4,4l-2,1l-2,2v1l1,1v1h-1l-1,1M469,418h-3v-2l1,-4v-11M459,436v-1l1,-1h1l1,-1v-1h1v-2h2l2,1h1v1l1,1h1v1h2v1h2l1,-1h1v1h2l1,1l-1,1v1l1,1h-1M474,396h-1l-1,1l-1,2l-1,1h-3v1h-15v5h-3l6,6v1h1v3h-11v1l-2,2l-1,2l-1,1v1l1,2v1l-1,1v2M407,332h-2v1v-1h-1l-2,-1h-2l-2,-1l-1,-1h-2v-1h-2l-1,-1v-2l-2,-2v-1l1,-1h-1v-1h1v-2h-1l-2,-2l-1,-2v-1h-1l-1,-1v-2l-1,-2v-2l-5,-5v-1h-4l-2,-1h-1l-1,1h-1l-2,2v2h-1l-2,2h-1l-3,-3h-1l-1,-1h-1v-1h-1l-1,-1v-4l-1,-2v-1l-1,-1v-1h-1l-2,-2l-1,-2l-2,-1v-1h-1v-1l-1,-1h-6l-2,-1h-4v1l-1,1v2h-5l-2,-1h-12l-3,-2l-6,-2l-5,-3l-3,-1l-5,-3l1,-1h-16M564,188h-2l-2,1l-2,2v1h-1l-4,4v1h-10l-2,1h-2l-1,1l1,1v2h1v1h-1v1h-2l-4,2h-1l-3,1h-2l-2,1h-1l-2,1l-1,1l-2,1h-4l-2,-2v-1l2,-2h1v-1h1v-1l1,-2v-2l1,-1v-4l-1,-1v-3l-1,-1v-3l-2,-2h-1l-2,-1l-1,-1h-1l1,-1l-1,-1h-3v-2h-1v-1h1h-4v-1l-3,-3h-1l-2,-1h-1l-1,-1h-1l-1,-1h-2l-1,-1l-2,-1l-1,-1h-2l-1,-1h-1l-1,-1h-2l-2,2h-6v-1h-7l-1,1h-1v-1h-2v-1h-3v-1h-1v-1h-8l-2,-1h-1v-1l-1,-1v-2h-1v1l-1,1h-30l-2,-1h-25l-3,-1h-18l-2,-1h-18l-2,-1h-12l-2,-1h-13l-2,-1h-10l-2,-1h-2"/>
<path class="sb" d="M356,45l-10,5l-2,2l-2,1l-1,1l-8,4l-2,2l-8,4l-2,2l-4,2l-3,3l-4,2l-2,2l-4,2l-3,3l-2,1l-2,2l-2,1l1,1v-1l1,1h1l1,-1l1,1h-1l-1,1v3l-1,1v1l-1,1h2v-1h3l1,-1h1v-1h4l-1,1v1h-1v5l-1,1v1l-1,1v2h-1v2h-1v1h1h-1l-1,1h1v1h-1h1v2h1v1h1l-1,1h1v1h-1M700,793v1h-1l-1,1v2l-1,1v1l-1,1v1l-1,1v1h-1v1l-1,1v1h-1v1h1l-1,1v1M730,758l-1,3l-2,4l-2,2h-1v1h-1v1h-2v1h-1v1l-1,1h-2l-1,-1v1h-2v1h-7l-3,-1h-2l-3,1v-2h1v-1h1v-1h1v-1h1v-2l1,-1v-1h1l1,-1v-1h1v-1l2,-2v-2l-1,-1h-1l-1,-1h-2v-1h-2l-3,-2h-1v-1l-1,-1l-2,-1h-2l-2,-1h-2l-2,-1v-1h-1l-5,-5l-2,-4h-1v-1M642,742l2,1l-1,2l-2,3l-1,2v1l-4,2h-2l-2,2h-1v1l-1,1v1h1v2h-1l-1,2v2l1,3l-2,2v1l1,1v1h1l-1,1v1h-2v1l-1,-1l-2,2v1l-1,1v1l-3,3h-1v1l-2,2v2l-1,1v1h-1l-1,1v6h1l-2,2h-1v1l-2,2v2h-2v5h1v7h1v1h-1v1l1,1h1v1l-1,1v3l-3,3v1h-1v1h-1v2l-1,1h-1l1,1v2l-1,1v2h-1l-1,1h-1v1h-2v1l-1,1v3h-1v1h1l-1,1v5l1,1l-1,1h-1l-1,1h-1v1l-1,1v1l-1,1v1h-1v2l-1,1h-1v1h1l-2,2v4h-1v5h-2v2h-1v3l1,1h1l-1,1v3l-1,1v1l3,1h1h-1v1l-1,1l-1,-1v1h-3l1,1h1l1,1v1h-1v1h-2v2h1h-1l-1,1v3h-1l-1,1v2h-1l-1,1h-1v1l-1,1v3h-2v2h-1l-1,1h-1l-1,1l-2,1l-1,1h1v1h-1v1l1,1v2h5v1l-1,1v1l-1,1v1h1l1,1h14l1,1h2M713,718l1,-1v-2l-6,-3h-7l-7,2h-1l-4,1h-2v2l-1,2l-4,4v4l-1,2l-2,3l-1,2v2h-1v-1l-1,-1h-6v1h-2l-2,2v1l-1,1l-1,2v-3h-1v-1l-1,-1h-8v-1l-2,-1h-1l-1,1v1l-2,1h-2v2h-2v1l-2,2h-5v-1l1,-1l-1,-2v-2l-1,-1l1,-1l-1,-1v-4l-1,-1h-1v-2l1,-1l-2,-1v-3h1l1,-1v-1l-1,-1l2,-2l-3,-3h-1v-7h-1h1v-1h-2v-2l-1,-1v-1M632,647l1,2l1,1l1,2v1l1,2l1,1l2,4l-1,1v1h-1v1h-1v5l-1,1v2l1,1v2h-1v2h-1v1h-1v2h-1v2l1,1v1l-1,1l-1,2v1l1,3h1v1l1,-1l1,1v1h-1v1h-1l1,1h-1l-3,3v1h-2v1l1,1v1h-1l-2,2v3l-1,1h-1l-1,1h-2M586,556h-1v1l-1,-1h-1v1h1l1,1v1l1,1v4l-1,-1v2l-1,2v2h-1l-1,1l-1,2l-4,4h-1l-2,2h-2l-4,2h-1l-1,1h-2l-2,2v1l-1,1v1l-1,-1l-1,2v2h-1v2l-1,1v3h-1l-1,1v2h-1v1h-1l-1,-1h-1l-1,-1v-1l-2,-2h-2l-1,-1h-2v1h-2v-1l1,-1h-1v-2h3v-1h-1v-4h-1M631,591v-1l-1,-1h-1v-1l-1,-1h-1v1h-1l-1,-1l2,-4l2,-2l1,-2v-2h-1v-1h-2v-1h-2l-2,-1v-1l-1,1h-1l-1,1h-1v-1h-1l-1,-1h-1l-2,2h-2l-1,1l-1,-1h-2l-1,1l-1,-1h-2v-2h1l-1,-1v-2h-3v-3l-2,-2h-1l-1,-1h-1l-2,-2v-2h-1v-1h-1v-1h-1l-1,-1h-1l-1,-1h-3l-2,-1h-1l-3,-3h-1l-1,-1v1h-1v1h-5l-1,-1h-2l-1,-2h-1v-1l-1,-1h-3l-1,-1h-1l-2,-2h-1l-1,-1v-1h-1"/>
<path class="sb" d="M657,543v-3l-1,-1v-2l-1,-1v-1l-1,-1v-2h-1v-1l-1,-1h-1v-1h-2v-1l3,-2l1,-2v-1l-1,-2h-1l-1,-1v-2l-1,-1v-10l1,-1v-2l1,-1v-1l1,-1l-1,-1v-1h-3l-2,1h-8l-1,1l-1,-1l-1,1l-1,-2l-5,-5h-1l-1,-1h-5l-1,1h-1l-2,-1h-1l-2,1h-1l-1,-1l-1,-2v-1h-2l-1,-1v-4h1v-3l-1,-1l-2,-1v-2l-1,-3h-1l-1,-1h-1v1h-2v-1h1v-1l2,-2v-4l1,-1v-3l1,-2v-1l2,-2l2,-1l2,-3v-1l2,-1h2l1,-1M706,506l-2,-2l-1,-2l-2,-2v-1l2,-2v-2h-1v-2h2v-1h2l2,-2h1v-1h-2l-1,-1v-1l-1,-1v-1h1v-1l1,-1h1v-1h1v-1h2v-2h1v-1l-2,-2M740,532h-2v-2h-1v-2h-1v-2h-1v-1l-1,-1v-4h-2v1l-1,-1v-1h-1l-1,-1v-2l-1,-1v-4h1v-3h-1l1,-1h1v-1h3v-1l1,-1h-1v-2l1,-1M754,528h1v-1h1l1,-3v-4l2,-2v-1l-1,-1v-1h-1v-1l-1,-1v-1h-1v-7l1,-2v-1l1,-1M719,816v-2l1,-2v-1h1l2,-2v-1h-1v-1h-1v-3h-1v-1h-1l-2,-2l-2,-1v-1l-1,1v-1h-1v-2h-2v1h-2v-3l-3,-3h-2l-1,1h-3l1,-1h1l1,-1v-1h1l5,-5h1l2,-2v-1l1,-1h1v-1h1v-1h2v-1l1,-1h1v-1h1l1,-1h1v-1h1v-1h2v-1h3v-1l1,-1h1l1,-1h1v-1l1,-1v-1l1,-2v-1l1,-1l-1,-1v-3h-1v-1h-1v1h-2v-1l1,-2h1v-2l2,-3v-3h1v-1h-1v-1h-3l-1,1h-1l-1,1v-1h-1v-8l1,-1v-1h-1v-2h-3v-1h-1v-1l-2,2h-6l-1,-1h-2v-1h1v-4l1,-1v-1l1,-1v-1h-1v-1h1l-1,-1v-3h-1v-1h1l1,-1h1l-1,-2h-1l1,-1l1,-2l1,-1v-2h1v-1l1,-1v-2l1,-2h1v-1h-1v-2l-1,-2v-1h-1l-2,-2h-1v-4l2,-2v-2l-1,1h-13v-6l-1,-2l-1,-1l2,-1h1v-4l-1,-1v-5h-1l-2,-2h-7l-2,-2v-1h-3l-1,-1h-2v-1h-1v-1l-1,-1v1h-1l-1,-1h-1l-1,-1h-1l-1,1h-2l-2,-1v-1l-1,-1h-1v-1h-2v-2h-1v-2h-1v-2h-1v-2h1v-1l-1,-2v-2l1,-1v-1l1,-1l-1,-1l1,-1l-1,-1h-1v1h-1l-1,-1l-1,1h-4l-1,1h-2l-3,3h-2v1h-1l-2,2v1h-1v-1l-2,1l-3,3h-2l-1,1v-1h-2l-2,-1h-6l-1,1h-1l-1,1l-1,-1h-2v-1l1,-2v-7l1,-1h-1v-1l1,-1h-1v1h-1v1h-1l-3,3h-8v-1l-1,-1v-2h-2l-2,-1h-3l2,-2v-1l-3,-3v-1l-1,-1h-1v-1l-1,-1v-2h-1l1,-1l-1,-1h-1v-1h-1l1,-1v-1h2v-1h-1v-2l4,-4h2v-2l-1,-1v-1l2,-2v-2l1,-1v-3h1l1,-1h1l2,-2h1l3,-3h5v-1h3v-1l1,-1h4v1h3v-1l1,-1v-3l1,-3v-3l1,-3v-3l1,-3v-3l1,-2v-3l-1,-1v-1h-1v-1h1l-1,-1v-1h-1v-1h-1l-1,-1v-7h2l1,-1h4v-2l-1,-1h-5v-6h14v-3l2,2h1l2,-2v-1h2v1l2,2v5h2l2,2l2,1h3l1,-1h1l1,-1l1,1v2h1v-1l1,-1h1v-1l2,-2h2v-1h1l1,-1h1l2,-2v-2l1,-1h1l1,-1h2v-1h1v-2h-6v-1l1,-1l-1,-1l-1,-2v-5h-1l-3,-3v-1l-1,-1v-1l1,1h4v1l1,1h6l3,3h1v-1l1,-2v-1h1v-1h4l4,-2l2,-2h2l1,-1v-1h1v-1h1v-3h-1h3l1,-1h1v1h1v4l-1,1v1h4v1h-1v1h1v2h1v1l-1,1v1h-1v3l-1,2v4l1,2l1,1v4l1,1h1l1,1v1h1l1,1h1l1,1l1,-1h2v-2h1v-1h1v1h1v-1h1v-1h3v-1l2,-2v1l1,-1l1,1h4v-1h1l1,1h2v-3h-1v-2h1v-1h1l1,1l2,-1h1l1,-1h2v1h2v1h1v1h3v1v-1h1l1,-1v-1h1v1h2l1,-1v1h3l2,-2v-2l1,-2l1,-1v-2h1v-2l1,-2l1,-1v-1h1v-1l1,-1"/>
<path class="sb" d="M931,281l-2,-4l-2,-2v-2h-1v-7h-1v-2h1v-1h-1v-1h1v-3l-1,-2v-2l-1,-1v-3l-1,-1v-1h-1v-1l-1,-1v-3l-1,-1v-1l1,-1v-1h-1v-2h-1v-1h-1v-1l-2,-2v-1l-2,-2l-1,-2v-1l-3,-3v-1h-1v-1l-3,-3M922,232v-1h-1v-1l-1,-1l-1,-2l-1,-1v-1l-3,-3v-1l-1,-1v-1h-1v-1l-1,-1v-1h-1v-1l-1,-1v-1l-1,-1h-1v-1l-1,-1v-1l-4,-4v-1l-1,-1v-1h-1v-1h-1v-1l-1,-1v-1M932,338l1,-1h1l1,-1h3v-5l-1,-1v-4l-1,-1v-2l-1,-1v-2l-1,-1v-8l-1,-1v-6l-1,-1v-2l-1,-1v-2l-1,-1v-4l-1,-1v-2l-1,-1h1v-1h3v-3h1h-1v-2h-1v-2h-1h1v1l1,2M934,343v-1l-1,-1v-2l1,-1h2l1,-1h2l1,-1h2l1,-1v-2l-1,-1v-1l-1,-1v-1l-1,-1v-2l-1,-1v-1l-1,-1v-4h1v-3l-1,-1v-1l-1,-1v-1l-1,-1v-1l-1,-1v-3l-1,-1v-1l-1,-1v-1l-1,-1v-1l-1,-1v-1l-1,-1h1v-1h2l1,-1h2v-1h1v-1l-1,-1l-2,-4v-1l-1,-2l-1,-1l1,1h1v1l1,1h1l1,1v1h1l2,2v1h1l1,1v1h1l1,1v1l3,3M962,389h1v-2l-1,-1v-5l2,2v1l1,1v-1l-1,-1v-1h3v-2h2l1,-1h1v-1h2v-1h1l-1,-3v-2l-1,-2v-1l-1,-1v-2l-2,-4v-2l-2,-4v-2l-3,-6v-2l-3,-6v-2l-4,-8v-2l-6,-12v-2l-7,-14h1l1,-1h1l3,3l1,2l1,1l1,2l2,1l1,1l1,2l1,1l1,2l1,1l1,2l2,2v2l1,1l1,2h1v3h1v1l1,1v1h1v2h1v2l1,1v1l1,1v2l1,1v-1l-1,-1M982,376v-2l-1,-2h1v-3l-1,-2v-3h-1v-3l-1,-2v-2l-1,-1v-1l-1,-2v-3l-3,-6v-3l-1,-2l-1,-1v-3l-1,-1v-3l-1,-1l-1,-2v-2l-2,-4M948,384v-4l-1,-1v-1h2v-1h1v-1h1l1,-1l2,2v1l1,1h1l1,1v1l1,1v2h1v1h1v2h1v1h1v1l1,1v2l1,1v3h1v3l1,1v1v-1l1,1v2h1v4h1v2M953,403h1l1,-1h1v-2h1l2,2h1v-1l1,1v1l-1,1h-1v-1h-1l-1,-1v2h-1v1h-1l1,1h-2v1h-1v1M954,414h1v-1h1v-1h2v-2l1,-1h3l1,-1M962,424v-5l1,-1v-1h1v-3h-1v-6h1v1h2v1h1v-1h1l1,-1v3l1,1v-2h1v2h1v-3l1,1v-1l1,-1v-1l-1,-1h1v1l1,1v2l1,1v3h1v4h1v-1v3l1,1v1l1,1v2M984,420v-2l-1,-1v-5l-1,-2v-10h-1l1,-1l-1,-1v-5l1,2v-3l-1,-1v-15h1v4l1,1v2h1v3h1v2l1,1h-1l1,1v2l1,1v1v-1v1l1,1v3l1,2M969,439h1v-8h1l1,-1v-1h1v1h1v2l1,1v1l1,1v3l1,1v2h1M976,456v-1l1,-1v-6h1l-1,-2v-2h1v-3l1,-1v2l1,1v5h1v3h1v-4M987,474v-5l-1,-1h1v-2l-1,-2v-3h-1v-3h-1v-1h-1v-2l1,-1l-1,-1v-5l-1,-1h1v-5h-1v-3h1v1v-3h-1v-4h-1v-3l-1,-1v-7h1v1h1v1v-4h1v1l1,-1v1h1v3h1v1l1,1v-4h1v2l1,1v1v-1M993,463h1v-1l-1,-1v-5l-1,-1v-9l-1,-1v-9l-1,-2v-5h-1v-5l-1,-1v-5h-1v-5h-1l1,-1v1v-1l1,-1h1v-2M996,451v-3l-1,-1v-7h-1v-7l-1,-1v-5h-1v-6h-1v-5l-1,-1v-2l-1,-1v-2h1v-1"/>
<path class="sb" d="M996,449v-5l-1,-1h1l-1,-4v-3l-1,-2v-5l-1,-2v-4l-1,-1v-5l-1,-1v-2l-1,-2v-5h-1v-3h1l-1,-2v-3l-1,-2v-2l1,2v3h1M997,447v-1l-1,-1v-7h-1v-6l-1,-1v-5l-1,-2v-8h-1v-5l-1,-2v-4h-1v-5h-1v-4l-1,-2v-3l-1,-1v-2l-1,-3v-4h-1v-1l1,1v1M672,31h2M671,30h-1h2v1h3v1h2l1,1h1l1,1h2l1,1h-1v-1l1,1h1l2,1h1v1h2l1,1h2l2,1l1,1h1l1,1h2v1h2l1,1h1l3,2h1l2,1l1,1l2,1h2l1,1h1v1h2v1h2l1,1l2,1l1,1h2v1h2v1l3,1l4,2h1v1h2v1h2v1h1l2,1l1,1h1v1h1l1,1h2v1h1v1h2v1h1l1,1l2,1h1h-1"/>
<path class="sg" d="M 254.5635 934.8233 A 249.7500 27.9958, 0, 0 0, 744.4365 934.8233"/>
<path class="sg" d="M 67.8387 750.8340 A 432.5797 48.4901, 0, 0 0, 931.1613 750.8340"/>
<path class="sg" d="M 0.0000 499.5000 A 499.5000 55.9916, 0, 0 0, 999.0000 499.5000"/>
<path class="sg" d="M 67.8387 248.1660 A 432.5797 48.4901, 0, 1 0, 931.1613 248.1660"/>
<path class="sg" d="M 254.5635 64.1767 A 249.7500 27.9958, 0, 1 0, 744.4365 64.1767"/>
<path class="sg" d="M 383.7792 985.4104 A 449.0914 499.5000, 13.39560633, 0 1, 615.2208 13.5896"/>
<path class="sg" d="M 460.7107 997.4916 A 283.2338 499.5000, 4.45386414, 0 1, 538.2893 1.5084"/>
<path class="sg" d="M 494.8041 998.9779 A 41.4839 499.5000, 0.53865391, 0 1, 504.1959 0.0221"/>
<path class="sg" d="M 525.8179 998.3062 A 211.3815 499.5000, -3.02022846, 0 0, 473.1821 0.6938"/>
<path class="sg" d="M 579.0501 992.6248 A 407.6074 499.5000, -9.16391669, 0 0, 419.9499 6.3752"/>
<path class="sg" d="M 899.4428 798.7424 A 494.6153 499.5000, -53.19568288, 0 0, 99.5572 200.2576"/>
<text x="0" y="0" class="fs" transform="translate(49,567) rotate(83)">150W</text>
<text x="0" y="0" class="ft" transform="translate(49,567) rotate(83)">150W</text>
<text x="0" y="0" class="fs" transform="translate(216,589) rotate(85)">120W</text>
<text x="0" y="0" class="ft" transform="translate(216,589) rotate(85)">120W</text>
<text x="0" y="0" class="fs" transform="translate(458,598) rotate(90)">90W</text>
<text x="0" y="0" class="ft" transform="translate(458,598) rotate(90)">90W</text>
<text x="0" y="0" class="fs" transform="translate(711,593) rotate(92)">60W</text>
<text x="0" y="0" class="ft" transform="translate(711,593) rotate(92)">60W</text>
<text x="0" y="0" class="fs" transform="translate(908,575) rotate(96)">30W</text>
<text x="0" y="0" class="ft" transform="translate(908,575) rotate(96)">30W</text>
<text x="0" y="0" class="fs" transform="translate(857,772) rotate(-11)">30S</text>
<text x="0" y="0" class="ft" transform="translate(857,772) rotate(-11)">30S</text>
<text x="0" y="0" class="fs" transform="translate(910,527) rotate(-9)">0N</text>
<text x="0" y="0" class="ft" transform="translate(910,527) rotate(-9)">0N</text>
<text x="0" y="0" class="fs" transform="translate(853,275) rotate(-8)">30N</text>
<text x="0" y="0" class="ft" transform="translate(853,275) rotate(-8)">30N</text>
<text x="0" y="0" class="fs" transform="translate(701,83) rotate(-9)">60N</text>
<text x="0" y="0" class="ft" transform="translate(701,83) rotate(-9)">60N</text>
<path class="tb" d="M127,998h-2l-1,-1h-2l-1,-1h-2l-1,-1h-2v-1h-3v-1h-2l-1,-1h-2v-1h-2l-1,-1h-2v-1h-2v-1h-2l-1,-1h-2v-1h-2v-1h-2v-1h-2v-1h-2v-1h-2v-1h-2v-1h-2v-1h-2v-1h-1l-1,-1h-1v-1h-2v-1h-2v-1h-1v-1h-2v-1h-1l-1,-1h-1v-1h-2v-1h-1v-1h-2v-1h-1v-1h-1l-1,-1h-1v-1h-1v-1h-1l-1,-1h-1v-1h-1v-1h-1v-1h-2v-1h-1v-1h-1v-1h-1v-1h-1l-2,-2h-1v-1h-1v-1h-1v-1h-1v-1h-1v-1h-1v-1h-1v-1h-1v-1h-1v-1h-1v-1h-1v-1h-1v-1h-1v-2h-1v-1h-1v-1h-1v-1h-1v-1l-1,-1v-1h-1v-1h-1v-1l-1,-1v-1h-1v-1l-1,-1v-1h-1v-1l-1,-1v-1h-1v-2h-1v-2h-1v-1l-1,-1v-1l-1,-1v-1l-1,-1v-2h-1v-2h-1v-3h-1v-2h-1v-4h-1v-3h-1v-5h-1v-6l-1,-1v-17h1v-7h1v-4l1,-1v-3h1v-3h1v-3h1v-2l1,-1v-2h1v-2h1v-2h1v-2h1v-2h1v-2h1v-2h1v-1h1v-2h1v-1h1v-2h1v-1h1v-1l1,-1v-1h1v-1h1v-1l1,-1v-1h1v-1h1v-1h1v-1h1v-1h1v-1h1v-2h1v-1h1v-1h1v-1h1v-1h1l3,-3h1v-1h1v-1h1v-1h1v-1h1v-1h1v-1h1l1,-1h1v-1h1v-1h1v-1h1l1,-1h1v-1h1v-1h2v-1h1v-1h1v-1h2v-1h1v-1h2v-1h1v-1h2v-1h1l1,-1h1v-1h2v-1h1l1,-1h1v-1h2v-1h2v-1h2v-1h1l1,-1h1l1,-1h1l1,-1h1l1,-1h1l1,-1h2v-1h2v-1h2v-1h2l1,-1h2v-1h2v-1h2l1,-1h2v-1h3v-1h2l1,-1h2v-1h3v-1h3v-1h159v1h3v1h3v1h2l1,1h2v1h3v1h2l1,1h2v1h2v1h2l1,1h2v1h2v1h2v1h2l1,1h1l1,1h1l1,1h1l1,1h1l1,1h1v1h2v1h2v1h2v1h1l1,1h1v1h2v1h1l1,1h1v1h2v1h1v1h2v1h1v1h2v1h1v1h1v1h2v1h1v1h1l1,1h1v1h1v1h1v1h1l1,1h1v1h1v1h1v1h1v1h1v1h1v1h1l3,3h1v1h1v1h1v1h1v1h1v2h1v1h1v1h1v1h1v1h1v1h1v1l1,1v1h1v1h1v1l1,1v1h1v1h1v2h1v1h1v2h1v1h1v2h1v2h1v2h1v2h1v2h1v2h1v2l1,1v2h1v3h1v3h1v3l1,1v4h1v7h1v17l-1,1v6h-1v5h-1v3h-1v4h-1v2h-1v3h-1v2h-1v2l-1,1v1l-1,1v1l-1,1v1h-1v2h-1v2h-1v1l-1,1v1h-1v1l-1,1v1h-1v1l-1,1v1h-1v1h-1v1l-1,1v1h-1v1h-1v1h-1v1h-1v2h-1v1h-1v1h-1v1h-1v1h-1v1h-1v1h-1v1h-1v1h-1v1h-1v1h-1v1h-1v1h-1l-2,2h-1v1h-1v1h-1v1h-1v1h-2v1h-1v1h-1v1h-1l-1,1h-1v1h-1v1h-1l-1,1h-1v1h-1v1h-2v1h-1v1h-2v1h-1l-1,1h-1v1h-2v1h-1v1h-2v1h-2v1h-1l-1,1h-1v1h-2v1h-2v1h-2v1h-2v1h-2v1h-2v1h-2v1h-2v1h-2l-1,1h-2v1h-2v1h-2l-1,1h-2v1h-2l-1,1h-2v1h-3v1h-2l-1,1h-2l-1,1h-2l-1,1h-2Z"/>
<path class="tl" d="M169,986h1v1h-3l-1,-1h2v-1ZM114,989h-3l-1,-1h2l1,1ZM176,983h1l1,1v1h1l-1,1h-2l-1,1h-1l-1,-1l1,-1v-2h1v-1ZM124,980h2v1h-1ZM122,980l1,1h-1l-1,-1ZM136,977h1h-2ZM156,974v1l1,1h-5v-1l1,-1v-1l-1,-1l1,-1v1h1l1,1ZM158,964v1h-2v2h1l-2,2v1h1l1,1h1l4,4v1l1,1v1h-1v2h-1l-1,1h-1v1h-2l1,1h1v1h-2l1,1h1v1h3l1,1h3l1,1h3l1,1h1l1,1v-1h1v-1h2l2,-1l1,1h1v-1h4v-1h3l1,-1h-1v-1h-4l-1,-1l1,-1h1l2,-2h4l1,-1h1l2,-2h-1v-1h1v-1h2v-1l1,-1h1v1h1v-1h8v-1h3v-1h1l1,1h2v-1h1v1l1,-1h4v1h6v-1h3v-1h2v1h3l1,-1h3v-1h2l1,-1h2l1,-1h4v1h1v1h1l1,1h1l1,-1l1,1h2v1l-2,2h-1v1h1h-1v1h-1v1h2l2,-2h1v-1h3l1,-1h1v-1h2l1,-1h5v-1h1v1h5v1h1l1,-1l1,1l1,-1h1l2,-1v1l1,1h3l1,-1h2v1h1v1h4l1,-1v1h9l1,-1l-1,1v1h-1h3l1,1h2l-1,1v1h1v1h2v1h1v2h2l1,1v1h-1l-1,1h-2l-1,1h-3l-1,1h-2l-1,1h-2l-2,2v1h-5l-1,1h-2v1h-1v3h2l-11,4h-155l-11,-4h-1h2l1,-1l1,1h14l-1,-1h-7v-1h-2v-1h-3l-1,-1h4v-1h-2l-1,-1h-7l-1,-1l-2,-1l1,1l1,-1l2,1v-1h1v-1l-1,-1h-1h2v-1h2v-1h4l1,-1h5l1,-1l1,1v-1h1l1,1h1v-1l1,1h6v-1h-2l-1,-1h-1l-1,-1h4l1,1h1l1,-1h3l-1,-1h1l1,1l1,-1l1,1h3v-1l1,1h4v-1h2l1,-1v-1h-1v-1h-1v-1h-1v-1h-1v-2l-1,-1v-1h1v-2h1v-1h1v-1h1l1,-1l1,1ZM144,951l2,1h1v1h-1v-1v1h-4l-2,-2l-2,-1l2,1h2v-2h1v1ZM151,947h1v1h-2v1l-1,-1l1,-1ZM269,946h-1v-2h1l1,1ZM345,939v1h1l1,-1v1l-3,3v-1l-1,1h-1l1,-1v-1l1,-1v-1ZM368,943v1l1,-1v1h-1l-3,3h-1l-1,1h-1l-2,2h-2v1h-1v-1h-1v-1l4,-2h1l1,-1h2l2,-2h1l2,-2ZM376,936l-1,2l1,-1l-1,1l1,1h1l-2,2h-1l-2,2l-2,1h-1l2,-1v-2l1,-1l2,-1v-1l1,-1v-3l1,-1v1l1,1ZM382,913l-1,1v-2l-1,-1v-1h1v1l1,1ZM397,906v1l-1,1h-1v-1l1,-1v1ZM398,906h-1v-1h1l1,-1v1ZM10,905v-1ZM386,904v-1ZM386,901v2h-1v-1ZM259,895v2l1,1h-1v1v-1v2h-1v3l-3,6v2h-1l-1,1l-1,-1h-1v-5h1v-2l1,-1h-1v-3h1v-1h1l2,-2h1v-1l1,-1v-1l1,-1v1ZM361,898v1h1v1h1l-1,1v2h1l-1,2v1l2,2v4h1l-1,2l1,1v3l-1,1v2l-3,3v1l-1,1l-1,2h-1l-1,2h-1l-4,4v1h-2l-1,1h-1l-1,1v-1h-1l1,-1h-1l-1,1h-1v-1h-1v-3h1l-1,-1v-1l1,-1l-1,1h-1l3,-3l-2,1h-1l-1,2v-4l-2,-2h-2l-1,1h-4l-2,2h-4l-1,1v-1l-1,1h-2v-1h-1l1,-1v-1h1v-3l1,-1v-7l1,1v-3l1,-1v-1l1,-1l-1,1l2,-2h1l1,-1h2l1,-1h2v-1h1l1,-1v-2l1,-1v2l1,-1v-1h1v-1l2,-2h2v1h2v-2h1l1,-1v-1h2v-1h-1h1l1,1h3l1,1h-1v1h-1v1l-1,1v1l2,2v1h1l1,1h1v-1l1,-1v-1l1,-1v-3l1,-1v-2h1v-1v3l1,1Z"/>
<path class="tl" d="M383,894h-1v-1v1ZM337,892l-2,-1h2ZM381,893h-1v-1h1ZM382,892v-1l-1,-1h1ZM341,892h-1l3,-3h2l-1,1h-1l-1,1ZM335,889h1v1h-3l1,-1ZM340,889v1h-3v-1h2ZM381,890v1l-2,-2h1v1ZM378,889v-1h-1v-1l1,1ZM325,887h2v-1l2,1v1h2l1,1l-1,1l-1,-1h-4l-1,-1h-1l-2,-1h-1l1,-2h1l1,1ZM353,886v1v-2ZM377,888h-1v-2l-1,-1h1v2h1ZM373,885l-1,1h-1l-1,1l-1,-1h-1l1,-1l1,1v-1h2v-2h1v1ZM345,882h-1v-1h1ZM349,881v2l-1,-1h-2v-1h2ZM374,884l-1,-1v-1l-1,-1h-1h2v2h1ZM353,878v3l2,1v-2l2,-1h1l1,1h1l1,1l4,2v1h1v1l2,1v1h-1v1l1,1v2h1v1h1h-1l1,1l-1,1v-1h-2l-1,-1v-3h-3l-1,1v1h-2l-2,-2v1h-2l1,-2h1l-1,-2v-1l-2,-1h-1l-1,-2l-1,1l-1,-1h1l-1,-1l1,-1h-1v-1h-1l-1,-1h2v-1ZM343,875l-1,1h-4v1l1,2v-1h2l-1,1h-1l1,2v1l1,2v1h-1v-2l-1,1v-1l-1,-1l1,-1h-1v4h-1v-3h-1v-1l1,-1v-4h1v-1h4l1,-1ZM347,875v1h-1v1l1,1h-1v-4h1ZM321,885h-1l-2,-2v-1l-2,-2l-1,-2v-2l-1,-1v-1l-4,-4v-1h2l3,3l1,2h1l2,2h1l-1,2h1v1l1,1h1v3ZM335,874l1,1h-1v3l-1,1v1l-1,3v-1l-1,1l-1,-1h-1v-1l-1,1l-1,-1h-1l-2,-4v-2l1,-1h2v-2h2v-1l1,-1v-1h1l1,-1v-2h1v1l2,2v1h-1l-1,2l1,1ZM344,864v3l-1,-1v2l-2,-2h1l-1,-1v1l-1,-1l-1,1v-1l1,-1h2v-1h1v-1l1,1ZM294,868h-1v-1l-1,-2l1,-2l1,1v1l1,1v1ZM137,863h-1l1,-1h1ZM341,861v1l-1,1l-1,-1l1,-1v-1v1l1,-1ZM335,863l-1,1v-1l1,-1v-1l1,-1v1l-1,1ZM338,859h2v1l-1,1v-1h-1ZM342,858l1,2h-1v1v-1h-1v-1h1h-1v-1ZM338,857l-1,1l-1,-1h1ZM336,849h1v6h1l2,1v2l-1,-1v-1v1l-1,-1h-2v-1h1h-1l-1,-1v-5ZM133,851v1h-1v-1ZM121,852h-1v-1h2v1ZM126,849h3v1h1v1h-2l-1,1v-1h-1v-2h-1ZM324,849l-1,1h-1v-2l1,-1h1v1ZM37,846v-2h1v2ZM38,844h-1v-1h1ZM119,845h2l1,1v1h1v1h2l-1,1h-3v-1h-1v-2h-2l-1,-1h-1h1h-2l-1,1h-1l2,-2h3ZM122,843h-1v-1l1,-1v1ZM334,843v1l-2,-2v-2l1,-1l1,1ZM122,839l-1,1v-1ZM123,839v1v-1h-1ZM340,825h1v1h-1v1h-1v-2ZM240,828l-2,2v-1h-1h2ZM229,828v1h-1ZM220,825v2h-1l-1,-1h-1v-1h2ZM214,821v3h-1v-3ZM344,820v1l1,1v1l-1,1h-1l-1,2l-1,-1v-1l-2,1l-1,1h-1l2,1v3l-1,-1v-1h-1l-1,-1l1,-1v-3h3v-3l1,1v-2h1l-2,-4v-1l3,3v1ZM214,820v1l-1,-1v-1l1,-1ZM340,810l1,-1l1,2h-1v2l-2,-1l1,2h-1l-1,-2l-1,-1h1l-1,-2l-1,-1l3,1ZM144,812l1,1h1h-2ZM147,809h-1l-1,-1h1ZM92,806h-1l-1,-1v-2h-1v-1h1l1,1v1l1,1ZM153,807l-1,1h1v1h2l-1,1h1v1l-1,2l-1,-1l1,-1l-2,1v-1h-3l1,-1h-1l4,-4h1Z"/>
<path class="tl" d="M90,797h1l-2,2v1v-3ZM332,800l3,3l-2,-1l1,2l2,2v1l-2,-2l-1,-2l-6,-6v-1h-1h1l3,3ZM198,806l-1,1h-2l1,-2v-1l2,-2h1v3ZM216,801l-1,2l-1,-1v-1h1ZM79,791h-1v-1h2ZM202,797l-1,2h2v1l-1,1h1l2,4h1v1l-1,1h1l-1,1h-3l-1,1h-2l2,-2h-1v-1h1l-1,-1v-1h2l-1,-1h-1v-2l-1,-1l1,-2v-1l1,1ZM75,786h-1v-1h1ZM141,790l-1,1v-1ZM139,790h-2l1,-1h1ZM78,780v1h1h-2v-1ZM139,786h1v1h1l-1,1h1l-1,1l-1,-1h-1l-2,1l1,-1h-1h1l1,-1l1,-2ZM193,787v1l1,1l-1,1h-3l-1,1l-1,-1h-2l1,-1h-1h1v-1h-2l1,-1h1l1,1l2,-1h2ZM147,784h-1l1,-1h2l-1,1ZM81,776v1l1,-1h2l-1,2h-3l-1,1h-1l-1,-1h1v-1h-1h1h-2l-1,1l8,-5v1l-1,2ZM135,780l-1,1v-1h-1l1,-1h1ZM322,771h-1ZM88,771h-1h2ZM139,780l-1,2l2,-1v1h-1v1l1,-1l2,-1l1,-1h2v2h-1v1l-1,1l-2,1h-1v-1l-1,1l-2,1v1h-3l-2,2h-1l-1,1l-2,1l-1,1l-1,2h1l-1,1v1h1l3,3l2,1h1l-2,2v2l1,1h1l2,-4h-1l4,-2v-1l1,-1v-1l-1,-1l2,-1l2,-4l1,1h1l1,-1v1l1,1h1v2l-1,1l1,1h2l1,-2h1v3l1,1l-1,1l1,1v1h1l1,1v1l1,1l-2,2h-2l-2,2h-1l-2,-1h-2l-2,1l-1,1l-2,1l-1,1l2,-1l3,-1h2l-1,1l-1,2v1l1,1l2,-1l1,-1v1h1l-4,2h-1l-2,1v-1l2,-1h-3v1h-1l-1,1h-1l-2,2l1,1v-1v1h-3l-1,1l2,-1v1h-2l-2,2v1l-1,1l-1,-1l1,-1l-1,1v4l-1,1h-1l-1,1h-1l-3,3h-1v8l-1,1h-1v-3l-1,-1l1,-1l-1,-2l-1,1l-1,-1h-4v1h-1l-1,-1l-1,1l-1,-1l-2,2h-2v1h-1v3l-1,1v1l-1,2v4l1,1v1h1v1l1,-1h3v-1l1,-1v-1l1,-1h3v1l-1,1v2l-1,1v-1v2l-1,1v1h5v1h1v1l-1,1v3l-1,1h1v2h1v1h2l1,-1h1v1h1l1,1l1,-1v-2l1,-1h2l2,-2v2h-1h1v1l-1,1v1h1v-3h1v-1h1v1h1v1h3l1,1l1,-1h1l1,1h1v1l1,1h1v1h1v1l1,1l2,1v-1h1l1,1h1l1,1v1h1v1l1,2v1l-1,1l1,1h2v1v-1l4,2v1h1l3,1h1l2,1l2,2h2v5l-1,1l-1,2l-2,2v9l-1,2v2h-1v1h-2l-1,1h-1l-3,3v5l-1,2l-2,2v2l-2,2v-1l-1,1l-1,-1h-1v-1v1l1,1v1l1,1v2l-2,1h-3l1,1v2l-1,1l-1,-1h-1l1,2h2l-2,2l1,1v1h-1l-1,1v1l2,1h1v1l-1,1v2h-1v1l2,2h-1l-1,1v1h-1l-2,-1l-3,-3l-1,-3v-1l1,-1h-2l1,-2l-1,-2h1v-2l-1,-1v2l-1,-2v-4l-1,-1l-1,-2h1v-6l-1,-2v-8l-1,-2v-6l-1,-2l-1,-1l-2,-1l-3,-2l-1,-1v-1l-1,-2l-1,-3l-2,-3l-2,-2v-1l-1,-2l2,-2v-1h-1v-3l1,-1v-1h1v-2h1l1,-1v-5l-1,-1v-2h-1v1h-1v1h-1l-1,-1h-2v-2h-1v-1v1h-1v-3l-2,-2h1h-2v-1h-2l-1,-1l-1,-2h-1l-1,-1v1h-2l-1,-1h-2l-2,-2h-1l-1,-1v-1h-1v-3h1l-1,-1v-3l-1,-1v-1l-1,-1v-3h-1v-5l-1,-1l-1,1v4h1l-1,1h1v5h1v2h-1v-1l-1,-1v-3l-1,-1v1v-1h-1v-1h1v-9h-1v-1h-1v-9l2,-2v-1l1,-2l2,-2l1,-2l1,-1v-1h1v1l2,-2h-1v-2l-1,-1v-1l1,-1l-1,-1l1,-1v-1l1,-1l-1,-1l1,-1v-1l1,-1l-1,-1h-1v-2h-1v-1h-1l-1,-1h-1l-1,1h-4l1,-1l2,-1h-1l-1,1l-2,1h-1l-1,1l-2,1h-2l-2,1h-1l-1,1h-3l-1,1h-2l1,-1h2l2,-1h2l2,-1h1l2,-1l1,-1h-3l1,-1l-1,1h-1l2,-2h-1v-1l2,-2l2,-1h3l1,-1h1l1,-1h-3v-2h4l1,1l1,-1v-3h4l1,-1h2l2,-1l1,1l1,-1h1l-1,1h1l1,1h2l1,1h2v1l1,1l1,-1h6l1,-1v2l2,-1l-1,1h2l1,1h2v1l-2,1h4v1l2,-2h2v1h1l1,1h2v-1h1l1,1l-1,1l1,-1h1l1,-1v-2l1,-1l2,-1l1,1l-2,2Z"/>
<path class="tl" d="M128,774l-1,1h4l-1,1h1l2,-2v1l-1,2v1l1,1h-2v1h-8v-1h-1v-1h4l-1,-1h-3l2,-1h-1l1,-1h1ZM135,774l-2,1v-1h1ZM152,776v1l-1,-1l-1,1v-2h2ZM146,776v1l1,-1l2,-1v2h3l1,1l-1,1l2,-1v1l1,1v2h-1l2,2v1h1v1l-2,1h-1l-1,-2l-1,1v1l1,1v2l-1,1l-2,-2v1l1,1h-2l-2,-2v-1l-1,-1v1h-3v-1l1,-1h3l1,-1l2,-1v-1l-1,-1h-1l1,-1l-1,-1h-5l-1,-1h-1l1,-1h-1l1,-1l2,-1l1,-1h2ZM138,774h2l-1,1h-1l1,1l-2,1h-2v-2l1,1v-1ZM298,772h-2v-1ZM141,776l-2,1v-1l2,-2h2l1,1l-2,1ZM122,776h-2l-1,-1h1l2,-1l2,-2h2v1h2v1h-1l-3,1h-2ZM299,769v1h-3v-1h1ZM143,773v1l-1,-1h-1l1,-1h1l1,1ZM295,769l1,1h-2l-1,1l-2,-1l-1,-1h2ZM143,771h-1v1l-1,1h-2l1,-1h-1l1,-1h2ZM136,771h1v1h-4l-2,1h-1l1,-1h-1l-1,-1l2,-1h1l2,1l1,1v-2h2ZM246,780h-3l-2,-1v-1l1,-2h-1l1,-1l-1,-1h1l4,-2h2l-1,1l-2,1l-1,1v2l-1,1l1,1ZM145,770l1,1h1l-1,1h1l1,1h4v1h-7l-1,-1l1,-1v-1h-2l1,-1ZM134,769l-2,1h-4l2,-1h3ZM271,770l1,1v-1h2l2,1h1v1l-1,1h1l2,1v-1l1,1l1,-1h2l1,1h3l-2,-1h5l1,1v1h2l2,1l-1,-1h1l1,-1l2,1v-1h1l-2,-1h8l3,1l1,-1h2l2,2h2v-1h3l3,1v-1h-2v-1h7l8,5h-1l1,1l2,1h2v1h-1v1h-1l1,1v2l-2,-1v2l-1,-1v1h-1l2,2v1h1l3,2h-1l1,1h1v1l1,2h-1l1,2l1,1l-4,-2l-4,-3l-1,-2l-1,-1v-3l-1,-2v-1l-2,-2l-1,1l2,2l-3,-1l-1,1l1,2l1,1h-1l-1,1l-1,-1h-1v1h-4v7h1l2,1h1l-1,-1h1l3,1l1,2l1,1l1,2l2,2v9h-1l-1,-1v2h-1v1l1,1v1h-1v1l1,1h1l2,2v1l1,1v1l-1,1h-1l-1,-2l-1,-1h1l-2,-1v-1v1v-1h-1v-1l-1,-1h-2v1h-1l-1,-1l1,-1l-1,-1l-1,1v2h-1v1l2,2h1v-1h2l1,1l-2,1v2l2,2l1,2l2,1v2h1v6l-2,4l-1,1h-1v1l-1,-1v1l-2,1h-1v2l-1,-1v-1h-2l-1,2v2l1,1l1,2l2,2l1,3v4l-2,1v1l-2,1v-2l-1,-1h-1v-1l-2,-2h-1v-1h-1v6h1v3l1,1h1v1h1v1l1,1v3h1v2h-1l-2,-2v-1l-1,-1v-1l-1,-1v-2l-1,-1v-1h-1v-6l-1,-1v-1l-1,-2v-2l-1,-1l-2,2h-1v-3l-1,-2v-1h-1l-2,-2v-1l-1,-1h-1v2l-1,-1v1h-2v2l-2,1l-1,2v1l-2,2h-1v8l-1,1l1,1h-1l-1,1l-1,-1l-1,-2v-1l-1,-1v-1l-1,-2v-1l-3,-6v-3l-2,1h-1l-1,-2v-1l-2,-1l-1,-1v-1l-1,-1l-2,1h-5l-1,-1h-2v-2h-1l-1,1h-2l-3,-3l-1,-2l-1,1v-1l-1,1v2l1,1h1l1,1v2l1,1l-1,-1l1,-1v2h1v1l1,-1h2v-1l1,-1v-1v2l2,2h1l2,2l-1,1v1h-1v3h-1v1h-1v1h-2v1h-1l-2,2h-1l-2,2v-1l-1,1h-2v1h-2v-2l-1,-1v-3h-1v-1l-1,-1v-1l-1,-1h-1v-1l-1,-1v-3h-2v-2l-1,-1v-1l-2,-2v-1v1l-1,1l-1,-1l-1,-2l1,2l1,1l1,2v1l2,2h-1l2,2v1l1,1h-1l1,2v1l1,1l1,2v1l1,1l2,1v1h1v1h1v1l-1,1h1l1,1h3l1,-1h3v-1h1v2l-1,1v3l-1,1l-3,6l-1,1l-2,1l-1,1l-1,2v1h-1v1h-1v2l-1,1l-1,2l1,1v4l1,1v7l-1,1h-1l-3,3h-1v1l-1,1v2h1l-1,1h1v1l-1,1h1l-1,1h-1l-2,2v3l-3,3v1l-2,1v1l-1,1h-2v1l-1,-1v1l-1,-1l-1,1h-2l-1,1l-1,-1h-1v-5l-1,-1v-2l-1,-1v-1l-1,-1v-5l-1,-1v-1l-1,-2v-1l-1,-1v-3l1,-1v-3h1v-1l1,-1v-1h-1v-5l-1,-1v-2l-3,-3l-1,-2l1,-1v-5l-1,-1v-1l-1,1h-2l-1,-1v-1l-1,-1h-2l-1,1h-2l-1,1h-6l-1,1l-4,-4h-1l-1,-1v-1l-1,-1v-1h-1v-1l-1,-1v-1h-1v-3h-1l1,-1v-1h1l-1,-1l1,-1v-4l-1,-1v-1h1v-2l1,-1v-1h1v-2h1l1,-2h1l2,-2v-3l3,-3l1,-2v-1h1l1,1h2l1,-1h2l1,-1h4l1,-1h1v1h1l1,-1h1v1l1,-1v1h-1v1h1v2h-1v1h1v1h3l2,2h1l2,2l1,-1v-2l1,-1h2l1,1h1l1,1h2l1,1h1v-1h2l1,1v-1h1l1,1v-2l1,-1v-5h-2l-1,1l-1,-1h-2v1l-1,-1h-2v-1l-1,-1v-2l1,-1h1v-1h2l1,-1h1l2,-1l2,1l1,1h2l1,-1v-2h-1l-2,-2h-1l-1,-1l1,-1l-1,-1h2l-1,-1v1h-2l-1,1v1h1l-1,1h-1v-1h-1l1,-1h-2v-1h-1v1l-1,1v1h-1v4l1,1h-2v1h-1v-1h-2l1,1h-2v1l1,1h-1h1l1,1v1l-1,-1v1h-1l1,1h-2v-2l-1,-1v-1h-1v-3h-1v-1h-1l-1,-1h-1l-1,-1v-1l-1,-1v1v-1h-2v1l2,2v1l1,1h1l1,1h1l1,1v1l-1,-1h-1v1h1v1h-1v1h-1v-1h1l-1,-1v-1h-1l-1,-1h-1l-2,-2l-1,-2h-2v1h-4l-1,1v2h-2v1l-1,2h1l-1,1v1h-1l-1,1h-2l-1,1l-2,-2v1h-2l1,-1v-1h-1v-2l1,-1v-3l-1,-1l2,-1l1,1h5v-4l-1,-1v-1h-2v-1h3v-2l1,1l2,-1v-1h1l1,-1l1,-2l1,-1h2v-5h2l-1,1h1v1l-1,1v1h1v1l1,-1h2v1h1l2,-2l1,1h1v-1h1v-3l1,-1l1,1v-1l-1,-1v-1h4l1,-1h-4l-1,1l-2,-2v-4l2,-1v-1l-1,-1l-2,2l-1,2l-1,1v3h1v2h-1v2l-1,2h-1v1h-1v-2l-1,-1l-1,-2l-1,-1l-1,2h-1l-2,-1v-5l2,-1l3,-3l2,-3l3,-3h2l1,-2h3l2,1l-1,1h2l1,1h3l3,1l1,1v1l-1,1h-1l-3,-1h-1l2,1v2l1,1h1v-1h-1l1,-1l2,1v-1l1,-2h1l1,1v-1l-1,-1v-1l-1,-1l2,1h1l-1,1l1,1h1v-1l1,-1l2,-1h1v1l1,-1h1l1,-1l1,1l1,-1h-2l1,-1h2l1,1l4,1v-1h-2v-1h-1l-1,-1v-3h2l1,1v1h1l1,1l1,2h1v3l1,1v-1h1l-1,-1l1,-1h-1l-2,-2v-1l-2,-1l1,-1l-1,-1h1l1,2l-1,-1l1,-1h2l1,1l-1,-1l-1,-2h4l-2,-1v-1h1l1,-1h3l1,-1h1v-2l2,1h-1ZM253,820l1,1v2h-1v1l1,1h1l1,1h3l-1,-1v-2h-1v-2h1v-1l-1,-1h-1l1,1l-1,-1v-1h-2v-2h-1h1v-2l1,1v-3h-2l-1,1h-1v1h-1l-1,2l2,1v1l1,1Z"/>
<path class="tl" d="M146,770h-1v-1h1l1,1ZM137,769h-2l1,-1h1l1,1ZM220,771l-1,1h-1v-1h-1l2,-1v1ZM139,768h-2l1,-1v1ZM146,769h-1v-1h1l1,1ZM144,769h-1l-1,-1h-1h1v-1h1l1,1ZM268,768l-3,1v-2ZM215,769l3,1h-2v3h-1l-2,-1h1l-1,-1l-2,-1v-1l1,-1l1,1h1v-1h1ZM220,768h1l-1,1h-4l-1,-1h3ZM234,767l-1,1h-1v-1h-1h4ZM264,768h-4l-2,-1l-1,-1h1l1,-1l4,2ZM153,767v1h-1l-2,1h-2v-1h1h-1v-1l1,-1h2v-1h1v1h1ZM167,764h3v1h-3l-1,1h-1l-1,1l-2,1h-3v1h-1v1h-2l-2,1h1l-2,1h-4l-1,-1h2v-1h2v-1h-1h1l1,-1h1l-1,-1h4l-1,-1h-3v-1l1,-1h6v-1h3v1l2,-1l1,1ZM190,764l3,1h-6v1h5l-1,1l2,-1h4v1l-2,1h-1l-2,2v2l1,1h-2l1,1l-1,1v1h-1l1,1h-3l1,1v1l-1,-1l-1,1h1l1,1v1h-2l-1,-1v1l-1,1h3l-4,2h-3l-1,1l-4,2h-1l-2,1h-1v1l-2,2v1l-1,1l-1,2h-1l-1,-1h-1l-1,-1v-2l-1,-1v-1l1,-1l-1,-2l1,-1l1,-2h1l1,-1v-1l-1,1h-1v-1l1,-1h1l-1,-1h-1l1,-1v-4l-1,-1h-5v-1l-1,-1h1l-1,-1l1,-1h2l3,-1h1l-2,-1h1l3,-1h1v-1h9l1,1l-1,-1h1l2,-1h3l2,-1Z"/>
<path class="th" d="M110,861v-1h-1v-2h-1h2v-1h1v-1h2v-1v1v-1h1v1h-1h1h-1h1v1h-1v3h-1h1h-1v1h1h-1h1h-2ZM113,861h-1Z"/>
<path class="tg" d="M66,970h1l1,-1h4v-1h5v-1h5v-1h6v-1h6l1,-1h7v-1h8v-1h9l1,-1h11v-1h14v-1h20v-1h79v1h20v1h14v1h11l1,1h9v1h8v1h7l1,1h6v1h6v1h5v1h5v1h4l1,1h1M21,927h6v-1h7v-1h8v-1h10v-1h10v-1h12v-1h14v-1h18v-1h23v-1h38v-1h75v1h38v1h23v1h18v1h14v1h12v1h10v1h10v1h8v1h7v1h6M5,877h399M21,826h4v1h7v1h8v1h9v1h10v1h11v1h14v1h16v1h21v1h32v1h103v-1h32v-1h21v-1h16v-1h14v-1h11v-1h10v-1h9v-1h8v-1h7v-1h4M66,783v1h5v1h4v1h5l1,1h5v1h6l1,1h6l1,1h7v1h10v1h10v1h13l1,1h17v1h36v1h21v-1h36v-1h17l1,-1h13v-1h10v-1h10v-1h7l1,-1h6l1,-1h6v-1h5l1,-1h5v-1h4v-1h5v-1M140,755h-1v1h-3v1h-2v1h-2v1h-2v1h-2v1h-2l-1,1h-1l-1,1h-1l-1,1h-1v1h-2v1h-2v1h-2v1h-1l-1,1h-1v1h-2v1h-1l-1,1h-1v1h-2v1h-1v1h-2v1h-1v1h-2v1h-1v1h-1l-1,1h-1v1h-1v1h-2v1h-1v1h-1v1h-1v1h-2v1h-1v1h-1v1h-1v1h-1v1h-1v1h-1l-1,1h-1v1h-1v1h-1v1h-1v1h-1v1h-1v1h-1v1h-1v1h-1v1l-1,1v1h-1v1h-1v1h-1v1h-1v1h-1v1l-1,1v1h-1v1h-1v1h-1v2h-1v1h-1v2h-1v1h-1v2h-1v1h-1v2h-1v2h-1v1h-1v2h-1v2h-1v2h-1v2h-1v2l-1,1v2h-1v2l-1,1v2h-1v3h-1v4h-1v4h-1v5h-1v9h-1v13l1,1v8h1v5h1v4h1v4h1v3h1v3h1v2h1v3h1v2h1v2h1v2h1v2h1v2h1v2h1v1l1,1v1h1v2h1v1h1v2h1v1h1v1h1v2h1v1h1v1l1,1v1h1v1h1v1h1v1l2,2v1h1v1h1v1h1v1h1v1h1v1h1v1h1v1h1v1h1v1h1v1h1v1h1v1h1v1h2v1h1v1h1v1h1v1h1v1h1l1,1h1v1h1v1h1v1h2v1h1v1h1l1,1h1v1h1v1h2v1h1v1h2v1h1l1,1h1v1h2v1h1v1h2v1h2v1h1l1,1h1v1h2v1h2v1h2v1h2v1h2v1h2v1h2v1h2l1,1h2v1h2v1h2M153,755h-1v1h-2v1h-2v1h-1v1h-2v1h-2v1h-1v1h-2v1h-1v1h-2v1h-1v1h-2v1h-1v1h-1v1h-2v1h-1v1h-1l-1,1h-1v1h-1v1h-1v1h-1v1h-1l-1,1h-1v1h-1v1h-1v1h-1v1h-1v1h-1v1h-1v1h-1v1h-1v1h-1v1h-1v1h-1v1h-1v1h-1v1h-1v1h-1v1h-1v1l-2,2v1h-1v1h-1v1h-1v1l-1,1v1h-1v1h-1v2h-1v1h-1v1l-1,1v1h-1v2h-1v1h-1v2h-1v1h-1v2h-1v2h-1v2h-1v2h-1v2h-1v2h-1v2h-1v3h-1v2h-1v3h-1v3h-1v3h-1v3h-1v4l-1,1v4h-1v6l-1,1v30h1v6h1v5h1v4h1v3h1v3l1,1v2l1,1v2h1v3h1v2h1v2h1v2h1v2l1,1v1h1v2h1v2h1v2h1v2h1v1h1v2h1v1h1v2h1v1h1v2h1v1h1v1h1v2h1v1h1v1h1v1l1,1v1h1v1h1v1h1v1h1v1h1v1h1v1l3,3v1h1l3,3h1v1h1v1h1v1h1v1h1v1h1v1h1v1h1l1,1h1v1h1v1h1v1h1l1,1h1v1h1v1h1l1,1h1v1h1v1h2v1h1v1h2v1h1v1h2v1h2v1h1v1h2v1h1l1,1h1v1h2M166,755h-1v1h-1v1h-1l-1,1h-1v1h-1v1h-1v1h-1v1h-1v1h-1l-2,2h-1v1h-1v1h-1v1h-1v1h-1v1h-1v1h-1v1h-1v1h-1v1l-2,2v1h-1v1h-1v1h-1v1h-1v1l-1,1v1h-1v1h-1v1h-1v2h-1v1h-1v1l-1,1v1h-1v1h-1v2h-1v1h-1v2h-1v2h-1v1h-1v2h-1v2h-1v2h-1v1l-1,1v1l-1,1v1l-1,1v2h-1v2h-1v2h-1v3h-1v2h-1v3h-1v3h-1v3h-1v3h-1v4h-1v4h-1v5h-1v6h-1v8h-1v30h1v7l1,1v5h1v5h1v4h1v4h1v3h1v3h1v3h1v3h1v3h1v2h1v2h1v2l1,1v2h1v2h1v2h1v2h1v1h1v2h1v2h1v2h1v1h1v2h1v1h1v2h1v1l1,1v1h1v1h1v2h1v1h1v1h1v1l1,1v1h1v1h1v1h1v1l1,1v1h1v1h1v1h1v1h1v1h1v1h1v1h1v1h1v1h1v1h1v1h1v1h1v1h1v1h1v1h1l2,2h1v1h1v1h1v1h1v1h2v1h1"/>
<path class="tg" d="M179,755h-1v1h-1v2h-1v1h-1v1h-1v1h-1v2h-1v1h-1v1l-1,1v1h-1v1l-1,1v1h-1v1l-1,1v1h-1v2h-1v1l-1,1v1h-1v2h-1v2h-1v2h-1v2h-1v2h-1v2h-1v2h-1v2h-1v2l-1,1v2h-1v2l-1,1v2h-1v3h-1v3h-1v3h-1v3h-1v4h-1v4h-1v4h-1v4h-1v5l-1,1v5h-1v8h-1v11h-1v29l1,1v10l1,1v7h1v6h1v5h1v4l1,1v4h1v3l1,1v3h1v3h1v3h1v3h1v3h1v3h1v2h1v3h1v2h1v2h1v2l1,1v2h1v2h1v1l1,1v1l1,1v1h1v2h1v2h1v1l1,1v1h1v2h1v1h1v2h1v1h1v2h1v1h1v1l1,1v1h1v1h1v1h1v2h1v1h1v1h1M192,755h-1v3h-1v2h-1v3h-1v3h-1v3h-1v3h-1v3h-1v3l-1,1v3h-1v4h-1v4h-1v4l-1,1v4h-1v5h-1v6h-1v6l-1,1v7h-1v8h-1v11l-1,1v18h-1v29l1,1v18h1v11h1v8l1,1v7h1v6h1v6h1v5h1v5h1v4h1v4h1v4h1v4h1v3h1v3l1,1v3h1v2l1,1v2h1v3h1v3h1v2h1M205,755v243M217,755h1v3h1v2h1v3h1v3h1v3h1v3h1v3h1v3l1,1v3h1v4h1v4h1v4l1,1v4h1v5h1v6h1v6l1,1v7h1v8h1v11l1,1v18h1v29l-1,1v18h-1v11h-1v8l-1,1v7h-1v6h-1v6h-1v5h-1v5h-1v4h-1v4h-1v4h-1v4h-1v3h-1v3l-1,1v3h-1v2l-1,1v2h-1v3h-1v3h-1v2h-1M230,755h1v1h1v2h1v1h1v1h1v1h1v2h1v1h1v1l1,1v1h1v1l1,1v1h1v1l1,1v1h1v2h1v1l1,1v1h1v2h1v2h1v2h1v2h1v2h1v2h1v2h1v2h1v2l1,1v2h1v2l1,1v2h1v3h1v3h1v3h1v3h1v4h1v4h1v4h1v4h1v5l1,1v5h1v8h1v11h1v29l-1,1v10l-1,1v7h-1v6h-1v5h-1v4l-1,1v4h-1v3l-1,1v3h-1v3h-1v3h-1v3h-1v3h-1v3h-1v2h-1v3h-1v2h-1v2h-1v2l-1,1v2h-1v2h-1v1l-1,1v1l-1,1v1h-1v2h-1v2h-1v1l-1,1v1h-1v2h-1v1h-1v2h-1v1h-1v2h-1v1h-1v1l-1,1v1h-1v1h-1v1h-1v2h-1v1h-1v1h-1M243,755h1v1h1v1h1l1,1h1v1h1v1h1v1h1v1h1v1h1l2,2h1v1h1v1h1v1h1v1h1v1h1v1h1v1h1v1h1v1l2,2v1h1v1h1v1h1v1h1v1l1,1v1h1v1h1v1h1v2h1v1h1v1l1,1v1h1v1h1v2h1v1h1v2h1v2h1v1h1v2h1v2h1v2h1v1l1,1v1l1,1v1l1,1v2h1v2h1v2h1v3h1v2h1v3h1v3h1v3h1v3h1v4h1v4h1v5h1v6h1v8h1v30h-1v7l-1,1v5h-1v5h-1v4h-1v4h-1v3h-1v3h-1v3h-1v3h-1v3h-1v2h-1v2h-1v2l-1,1v2h-1v2h-1v2h-1v2h-1v1h-1v2h-1v2h-1v2h-1v1h-1v2h-1v1h-1v2h-1v1l-1,1v1h-1v1h-1v2h-1v1h-1v1h-1v1l-1,1v1h-1v1h-1v1h-1v1l-1,1v1h-1v1h-1v1h-1v1h-1v1h-1v1h-1v1h-1v1h-1v1h-1v1h-1v1h-1v1h-1v1h-1v1h-1v1h-1l-2,2h-1v1h-1v1h-1v1h-1v1h-2v1h-1M256,755h1v1h2v1h2v1h1v1h2v1h2v1h1v1h2v1h1v1h2v1h1v1h2v1h1v1h1v1h2v1h1v1h1l1,1h1v1h1v1h1v1h1v1h1l1,1h1v1h1v1h1v1h1v1h1v1h1v1h1v1h1v1h1v1h1v1h1v1h1v1h1v1h1v1h1v1h1v1h1v1l2,2v1h1v1h1v1h1v1l1,1v1h1v1h1v2h1v1h1v1l1,1v1h1v2h1v1h1v2h1v1h1v2h1v2h1v2h1v2h1v2h1v2h1v2h1v3h1v2h1v3h1v3h1v3h1v3h1v4l1,1v4h1v6l1,1v14l1,1h-1v15h-1v6h-1v5h-1v4h-1v3h-1v3l-1,1v2l-1,1v2h-1v3h-1v2h-1v2h-1v2h-1v2l-1,1v1h-1v2h-1v2h-1v2h-1v2h-1v1h-1v2h-1v1h-1v2h-1v1h-1v2h-1v1h-1v1h-1v2h-1v1h-1v1h-1v1l-1,1v1h-1v1h-1v1h-1v1h-1v1h-1v1h-1v1l-3,3v1h-1l-3,3h-1v1h-1v1h-1v1h-1v1h-1v1h-1v1h-1v1h-1l-1,1h-1v1h-1v1h-1v1h-1l-1,1h-1v1h-1v1h-1l-1,1h-1v1h-1v1h-2v1h-1v1h-2v1h-1v1h-2v1h-2v1h-1v1h-2v1h-1l-1,1h-1v1h-2"/>
<path class="tg" d="M269,755h1v1h3v1h2v1h2v1h2v1h2v1h2l1,1h1l1,1h1l1,1h1v1h2v1h2v1h2v1h1l1,1h1v1h2v1h1l1,1h1v1h2v1h1v1h2v1h1v1h2v1h1v1h1l1,1h1v1h1v1h2v1h1v1h1v1h1v1h2v1h1v1h1v1h1v1h1v1h1v1h1l1,1h1v1h1v1h1v1h1v1h1v1h1v1h1v1h1v1h1v1l1,1v1h1v1h1v1h1v1h1v1h1v1l1,1v1h1v1h1v1h1v2h1v1h1v2h1v1h1v2h1v1h1v2h1v2h1v1h1v2h1v2h1v2h1v2h1v2l1,1v2h1v2l1,1v2h1v3h1v4h1v4h1v5h1v9h1v13l-1,1v8h-1v5h-1v4h-1v4h-1v3h-1v3h-1v2h-1v3h-1v2h-1v2h-1v2h-1v2h-1v2h-1v2h-1v1l-1,1v1h-1v2h-1v1h-1v2h-1v1h-1v1h-1v2h-1v1h-1v1l-1,1v1h-1v1h-1v1h-1v1l-2,2v1h-1v1h-1v1h-1v1h-1v1h-1v1h-1v1h-1v1h-1v1h-1v1h-1v1h-1v1h-1v1h-1v1h-2v1h-1v1h-1v1h-1v1h-1v1h-1l-1,1h-1v1h-1v1h-1v1h-2v1h-1v1h-1l-1,1h-1v1h-1v1h-2v1h-1v1h-2v1h-1l-1,1h-1v1h-2v1h-1v1h-2v1h-2v1h-1l-1,1h-1v1h-2v1h-2v1h-2v1h-2v1h-2v1h-2v1h-2v1h-2l-1,1h-2v1h-2v1h-2"/>
<rect x="97" y="844" width="27" height="27" fill-opacity="0" stroke="#ffffff" stroke-opacity="0.5" stroke-width="5.0"/>
<rect x="99" y="846" width="27" height="27" fill-opacity="0" stroke="#113311" stroke-opacity="0.8" stroke-width="5.0"/>
<rect x="98" y="845" width="27" height="27" fill-opacity="0" stroke="#45a249" stroke-opacity="0.9" stroke-width="5.0"/>
</svg>
