<?xml version="1.0" encoding="UTF-8" standalone="no"?>
<svg xmlns:svg="http://www.w3.org/2000/svg" xmlns="http://www.w3.org/2000/svg" xmlns:xlink="http://www.w3.org/1999/xlink" height="1000" width="1000">
<!-- made with pythonshp (GPL): github.com/sanjayrao77/pythonshp , underlying data may come from naturalearthdata.com -->
<!-- 
COPYRIGHT: THIS SVG FILE IS RELEASED INTO THE PUBLIC DOMAIN
 -->
<!-- 
vars : {
	'cmdline' : 'pythonshp.py publicdomain wiki1 niue locatormap'
	'title' : 'Niue locator'
	'version' : '1.0.5'
}
 -->
<defs>
	<radialGradient id="watergradient" cx="500" cy="500" r="500" fx="500" fy="500" gradientUnits="userSpaceOnUse">
		<stop offset="0%" stop-color="#70add3"/>
		<stop offset="11%" stop-color="#6eaad0"/>
		<stop offset="22%" stop-color="#6ca7cc"/>
		<stop offset="31%" stop-color="#6ba5c9"/>
		<stop offset="41%" stop-color="#69a2c6"/>
		<stop offset="51%" stop-color="#679fc2"/>
		<stop offset="59%" stop-color="#669dbf"/>
		<stop offset="67%" stop-color="#649abc"/>
		<stop offset="75%" stop-color="#6297b9"/>
		<stop offset="81%" stop-color="#6095b6"/>
		<stop offset="87%" stop-color="#5f92b2"/>
		<stop offset="92%" stop-color="#5d8faf"/>
		<stop offset="95%" stop-color="#5b8dac"/>
		<stop offset="98%" stop-color="#598aa8"/>
		<stop offset="100%" stop-color="#5685a2"/>
	</radialGradient>
	<radialGradient id="landgradient" cx="500" cy="500" r="500" fx="500" fy="500" gradientUnits="userSpaceOnUse">
		<stop offset="0%" stop-color="#dddddd"/>
		<stop offset="11%" stop-color="#d7d7d7"/>
		<stop offset="22%" stop-color="#d1d1d1"/>
		<stop offset="31%" stop-color="#cccccc"/>
		<stop offset="41%" stop-color="#c6c6c6"/>
		<stop offset="51%" stop-color="#c0c0c0"/>
		<stop offset="59%" stop-color="#bbbbbb"/>
		<stop offset="67%" stop-color="#b5b5b5"/>
		<stop offset="75%" stop-color="#afafaf"/>
		<stop offset="81%" stop-color="#aaaaaa"/>
		<stop offset="87%" stop-color="#a4a4a4"/>
		<stop offset="92%" stop-color="#9e9e9e"/>
		<stop offset="95%" stop-color="#999999"/>
		<stop offset="98%" stop-color="#939393"/>
		<stop offset="100%" stop-color="#888888"/>
	</radialGradient>
	<radialGradient id="bordergradient" cx="500" cy="500" r="500" fx="500" fy="500" gradientUnits="userSpaceOnUse">
		<stop offset="0%" stop-color="#444444"/>
		<stop offset="11%" stop-color="#3f3f3f"/>
		<stop offset="22%" stop-color="#3a3a3a"/>
		<stop offset="31%" stop-color="#363636"/>
		<stop offset="41%" stop-color="#323232"/>
		<stop offset="51%" stop-color="#2d2d2d"/>
		<stop offset="59%" stop-color="#292929"/>
		<stop offset="67%" stop-color="#242424"/>
		<stop offset="75%" stop-color="#1f1f1f"/>
		<stop offset="81%" stop-color="#1b1b1b"/>
		<stop offset="87%" stop-color="#161616"/>
		<stop offset="92%" stop-color="#121212"/>
		<stop offset="95%" stop-color="#0e0e0e"/>
		<stop offset="98%" stop-color="#090909"/>
		<stop offset="100%" stop-color="#000000"/>
	</radialGradient>
</defs>
<style type="text/css">
<![CDATA[
.c1 {stroke:#45a211;fill-opacity:0}
.c4 {stroke:#45a211;fill-opacity:0;stroke-width:4}
.fs {font:14px sans;stroke:#ffffff;stroke-width:2px;stroke-opacity:0.8;text-anchor:middle}
.ft {font:14px sans;fill:#000000;fill-opacity:1;stroke-opacity:0;text-anchor:middle}
.sb {stroke:url(#bordergradient);fill-opacity:0}
.sg {stroke:#000000;fill-opacity:0.0;stroke-opacity:0.2}
.sh {fill:#45a211;stroke:#000000}
.sl {fill:url(#landgradient);stroke:url(#bordergradient)}
.sp {stroke:url(#landgradient);fill-opacity:0}
.sr {stroke:url(#watergradient);fill-opacity:0}
.sw {fill:url(#watergradient);stroke:url(#watergradient);stroke-opacity:0.8}
.tb {fill:#eeeeee;stroke:black;stroke-width:2}
.tg {stroke:black;stroke-opacity:0.2;fill-opacity:0}
.th {fill:#45a211;stroke:#378100}
.tl {fill:#aaaaaa;stroke:black}
.w1 {stroke:#ffffff;fill-opacity:0;stroke-opacity:0.6}
.w4 {stroke:#ffffff;fill-opacity:0;stroke-opacity:0.6;stroke-width:4}
.zh {fill:#45a211;stroke:#115511}
.zl {fill:#dddddd;stroke:#444444}
]]>
</style>
<circle cx="500.0" cy="500.0" r="500.0" fill="url(#watergradient)"/>
<path class="sl" d="M932,249v-1ZM669,29l1,1h1l1,1h2l1,1h1l1,1h3l1,1h1l1,1h2l1,1h1l1,1h1l1,1h1l1,1h2l1,1h1l1,1h2l1,1h1l1,1h2l1,1h1l1,1h1l1,1h1l1,1h1l1,1h2l2,2h1l1,1h2l2,2h2l1,1h1l2,2h2l2,2h1l1,1h1l1,1h1l1,1h1l1,1h1l1,1h1l2,2h1l1,1h1l1,1h1l2,2h1l2,2h1l1,1h1l2,2h1l1,1h1l2,2h1l2,2h1l1,1h1l2,2h1l3,3h2l3,3h1l4,4h2l4,4h1l4,4h1l1,1h1l3,3h1l6,6h1l3,3h1l3,3h1l7,7h1l9,9h1l16,16h1l1,1v1l14,14v1l8,8v1l3,3v1l4,4v1l6,6v1l5,5v2l4,4v1l4,4v1l1,1v1l3,3v1l3,3v1l1,1v1l3,3v1l3,3v2l2,2v1l3,3v2l2,2v1l2,2v1l1,1v1l2,2v1l-1,-2v-1v1v-1l-2,-2v-1l-1,-1v1v-1l1,1v1v-1v1v-1v1v-1h-1v-1l-1,-1v-1v1l1,1h-1v-1v1l-1,-1v-1h-1h1v1l1,1v1l1,1v-1v1l1,1v1l1,1v1l1,1h1v2h1h-1v-1l-1,-1v-1h-1v-1l-1,-1v1h1v1l1,1l-1,-1v-1v1h-1l-1,-2h1h-1v-1l-1,-1v1v-1l-1,-1v-1h-1l1,1h-1v-1l-1,-1h-1v-1h-1v-1l-1,-1l1,1v1h-1v-1h-1h1h-1l1,1v1h1v2h1v3l-1,-1h-1v-1l1,2v1v-1v2h1h-1v-1v1l1,1v1v-1v1l1,1v2l-1,-1l2,2v1l1,1v2h1l1,2l2,3v1l1,2v1l4,8l1,3v2h1l1,4l1,2v1l1,1v2l1,1l2,4l1,1v1l1,1v1v-1h-1v-1l-1,-1l-1,-2l2,3v1h1v1l1,2l1,3v1h1l2,4l2,3l1,3v1l1,1v1l1,1l1,2v1v-1v1l1,1v-1h-1l1,1h1v1l1,1l1,2l1,1v1l1,-1h1v-1h1v1h1l-1,1h1v1v-3h-1l1,-1l-1,-1h1l-1,-1l-1,-3v-2l-1,-2v-1l-1,-1v-2l-1,-2v-1h1v-1v1v-1v1h1v1l1,1h-1v-1l1,1v1l1,1v2l1,1v2l1,2v1l1,1v2l1,1v2l1,1v-1v3l1,1v2l1,1v1v-1h-1v-2l-1,-1h1v3h1v2l1,2v2l1,1v2l1,1v2l1,2v3l1,1v2l1,1l-1,-1v-1l1,3v-1l2,2v1v-1l1,1v2h1h-1h1l1,4v-1h-1h1v2l1,2v2l1,1l-1,-1v1h1v1l1,3v3l1,2l1,3v3l1,3v1v-1v3h1v4l1,1v4l1,1v3l1,2v2l1,2v5l1,1v5h1v1v-1h-1v-1l1,1v6l1,1v1v-1l-1,-1v-1v1v-4l-1,-1v-1v1l1,1v1v-1h-1v-6l-1,-1v-3l-1,-1v-3l-1,-2v-1v2l1,1v2l-1,-2v-3l-1,-2v-4h-1v-3l-1,-2l-1,-4v-2l-2,-4v-1l-1,-3v-3h-1v-1l-1,-1v-1v1v-1l-1,-2l-1,-1l-2,-4v-1h-1l-1,-1v-2l-1,-1l-2,-6l-2,-3v-1l-1,-2l-1,-3l-1,-1l-1,-2v-1h-1v-1v1l1,1v1l-1,-2l-1,-1v-1l-1,-1v1l1,1h-1v1h-1v1h-1l-1,-1l-1,-2l-2,-1l-1,-3l-3,-3v-1l-1,-1l-2,-1l-1,-2l-4,-4v-1l-2,-2v-1l-2,-2v-1h-1l-1,-1h-1l-1,-2l-2,-1l-1,-2l-1,-1l-1,-2v-1l-2,-1v-1h-1l-2,-2v-1l-1,-1l-2,-4l-1,-1v-1l-1,-1v-1h1v-1l-2,-2v-4l-2,-2l-1,-2l-1,-1l-1,-3l-1,-2l-1,-1v-1l-3,-3l-2,-4l-3,-3l-4,-5v1l1,1h1l-1,-1v-1v1l-3,-3l-1,-2l-1,-1l1,1v-1l-1,-1h-1l-2,-2v-1h-1v-1h-1l-1,-1l-1,-2v-2l-1,-1v-1l-2,-1h-1v-1l-1,-1v-1h-1l-3,-3v-1l-2,-2v-1h-1v-1v1l-1,-1l-2,-1l-1,-3h-1l-2,-2v-1h-1v-1l-4,-4v-1l-2,-1v-1l-2,-2l-1,-2l-3,-3v-1l-1,-1v-1l-1,-1h-1l-1,-1v-1h-1l-1,-1v1h-1v-1l-2,-1l-1,-1l-2,-1h1v1l1,1v1l1,2l3,3v1l1,1l2,4l1,1l2,1l5,5v1h1v1h1v1l3,3v1h1v1l1,1v1l5,5v1h1v1l1,1h1l1,2l1,1v1h1v1l1,1l1,2v1l2,2v1l4,4v2l1,2l2,2v-1l3,3v1h1v1l2,2v1l1,1l-1,1v1h-1v-1l-2,-3l-1,-1v-1l-2,-1l-1,-1v-1l-9,-9v-1l-1,-2v-2h-1v-1l-1,-1l-2,-3h-1v-1l-3,-2l-1,-1v-1h-2l-1,-1v-1h-1l-1,-1h-1v-1h-1v-1l-4,-4h-1h4v1l1,1v-1h-1v-1h-1l1,-1l-1,-1v-2l-7,-7h-1l-6,-6l-1,-2l-1,-1v-1l-4,-4v-1l-2,-2h-1v-1l-1,-1h1h-1l-1,-2l-2,-2h-1l-1,-1v-2l-1,1v-2h-1v-1l-5,-5h-1l-1,-1v1l-1,-1v-1l-1,-1h-2l-2,-1l-2,-2h-1l-1,-1h-3v-1h-1l-1,-1v-1l-1,-1v-1h-1l-1,-1v-1h-1v-1h-1l-2,-2h-1v-1l-2,-1l-3,-3v-2l-1,-1h-2l-2,-2v-1l-2,-2h1v1h1v1h1l-3,-3v-1h1l1,1h1v-1h-4v-1v2h1h-2v-1h-2v-2l1,1h-1v-1h-1l-3,-3l-2,-1l-1,-2l-2,-1v-1l-1,-1v-1h-1l-2,-2l-2,-1v-1h-1v-2l-1,-1v-1l-1,-1v-1l-1,-1h-1l-1,-1v-1l-2,-2h-1l-1,-1v-1l-1,-1h-1v-1l-1,-2h1h-1v-1l-2,-2l-1,-2v-1l-1,-1h-1l-2,-4h-1l-1,-2l-1,-1v-1h-1h1l1,1v-1l1,1h1h-1l-1,-1h-2l-1,-1h1h-1v-1h-1v-1h-1l1,-1h-2l-4,-4h-1l-3,-3h-1h2l1,1h1l3,1h3v1h1v3h1l-1,-1h1v-1h-1v-1l1,1v1h1h-1h1v1h1v1v-1v1l-1,-1v1h2v-1h-1v-1h-1v-1h-1v-1h-1v-1v1v-1h-1l-1,-1h-1v-1l1,1v-1h-1l-1,-1h-1l-2,-2v1v-1h-1l-1,-1h1h-2v-2h-1v1h1h-2l-1,-1h-1v-1v1h1h-1v-1l-1,-1v1h-1l-2,-1h-1v-1l-1,-1h-1l-1,-1v-1h-1h1v1h-2v-1v1h-2l-1,-1h-1h1h-1v-1h-1l-1,-1h-3l-1,-1h-1v-1h-1v-2l1,1h1l-1,-1h-2v1l-1,-1h-1v-1h-1v-1h-1h1v-1h1v1h2l1,1l-1,-1h-1l-1,-1h-1v-1l-1,-1l1,1v1h-1v1l1,1l-1,-1h-2l1,-1h-1v-1v1l-2,-2v-1l-1,1v-1l-2,-1h-1l-1,-1h-2v-1h1l2,1h2l1,1h-1l-1,-1h-2v-1h-1l-1,-1h1h-2v1h1v1h-1h1h-1l-1,-1h-1l-1,-1h-2v-2h1h-2l-1,-1h-1l-1,-1v-2h-1v-1h-1h1v1l-1,-1h-1v-1h-1v-1v1h1l2,2v1h-2l-2,-2h1h-1l-2,-2h-1l-1,-1h-2v1h1h-2v-2h-1l-1,-1h-2v-1h-2v-1h-2v-1h-3l-2,-2h-1h1l-1,-1h-2v-1h-2v-1h-1h1h-3l-1,-1h-1l-1,-1h-1l-2,-2h-1h1v1l1,1h2v1h1l1,1h-1l-1,-1h-2v-1h-2l1,-1h-1v1h-1v-1h-3v-1v1h2v1h2l1,1h1h-4l-3,-1v-1h-2l-1,-1h-3v-1h-1l-3,-1h-2v-1h-1v-1h1v1h1l1,1v-1h-1h1h-1l-1,-1h-1v1h-4l-2,-1h-1h1l-1,-1v1h-1l-2,-1h-7l-1,-1h-3l-1,-1v-1v1h-4v-1h-3v-1h-1h1h-1l-1,-1v1h-5v-1h1h-2v1h1v1h-1h2v1h1h-1v1v-1v1h-1v-1h-3v1v-1h-1v1h-1h1h-2v1h-5v-1h2v-1l-1,1h-2v-2h1l-1,-1v-1h6l2,1v-1h-4v-1h1h-5l-1,1h-2l-1,1h1h-1v1h-1l-1,-1v1h2v1h-3v1h-2v1h3l1,1h1h-1v1h-2v1h-3v1h-2l-1,1h-3l1,1h-1v1h-3v1h-4l-1,1h1v1v-1h-1v1h-4v1v-1h-2l-1,1h-3v1h-3v-1h1h-2v1h-1v1l-1,-1v1h-1v-1h-1v1h-3v1v-2h3v-1h1l1,-1h2l2,-1v1h3v-1h1v-1h2l2,-1h3v-1h1v-1h2v-1l1,1h1h-1v-1h-1v-1l1,-1h1h-2v-1h2v-1h-3l-2,1h-1v-1h-1h2l-1,-1h-1l-1,1h-1h1v1h-1l-2,-1h-3l-1,-1h-2v1h-4l-1,-1h1h-2v-2l-2,-2h-1h1v-1h1h-2v1h-1h1v1h-7l-2,-1h-2v-1h-2h2v-1h3v1l1,-1v1h2v-1h-1h1h-6v-1h-4v-1h-1h1h-1v-1h1l1,-1h1v-1h1v1h1h-1v-1h1h-1v-1h8l1,-1h6v-1h-1v-1h-1v-1h1h-6l-1,1h-1l-1,-1l1,1h-1l-1,-1h-5v1h-1l-1,-1h-4v-1h-1h2l-1,-1h-6v-1v1l1,-1h7l-1,-1h7l-1,1h11l-2,-1h-4v-1h2v1h1l-1,-1h1h-7l-1,-1l-5,-1h-2l-1,-1h-1l1,-1h9v-1l1,-1h7l1,-1v1h5v-1h5v1h-1h10l1,1h9l1,1h9v1h9l1,1h5v1h5l2,1h4l2,1h4l2,1h-1l-1,-1h-1h1h-1v-1h1l1,1l-1,-1h1v1h5v-1h1v1h1h-1v1h-1h1h1h-1h1l-1,-1h1v1h2v-1h2l-1,1h1v-1h-2v-1v1h4l1,1h2l1,1h3l1,1h1h-1v-1h-2v-1v1h3v1h6l1,1h1l2,1h4v1h3l2,1h2l1,1v-1h-1h1v1h3l1,1h2l1,1l-1,-1v1h3v1h3v1h4l1,1h3v1h2l1,1h2v1h1h-1v-1l1,1h2l1,1l2,1h1l-2,-1h-2v-1h-1h1v1v-1h-2l-1,-1h-2v-1h-3v-1h-1h1h-3l-1,-1h-1l-1,-1l1,1h2l1,1h2l1,1h1Z"/>
<path class="sp" d="M932,248v1M670,30h1l1,1h2l1,1h1l1,1h3l1,1h1l1,1h2l1,1h1l1,1h1l1,1h1l1,1h2l1,1h1l1,1h2l1,1h1l1,1h2l1,1h1l1,1h1l1,1h1l1,1h1l1,1h2l2,2h1l1,1h2l2,2h2l1,1h1l2,2h2l2,2h1l1,1h1l1,1h1l1,1h1l1,1h1l1,1h1l2,2h1l1,1h1l1,1h1l2,2h1l2,2h1l1,1h1l2,2h1l1,1h1l2,2h1l2,2h1l1,1h1l2,2h1l3,3h2l3,3h1l4,4h2l4,4h1l4,4h1l1,1h1l3,3h1l6,6h1l3,3h1l3,3h1l7,7h1l9,9h1l16,16h1l1,1v1l14,14v1l8,8v1l3,3v1l4,4v1l6,6v1l5,5v2l4,4v1l4,4v1l1,1v1l3,3v1l3,3v1l1,1v1l3,3v1l3,3v2l2,2v1l3,3v2l2,2v1l2,2v1l1,1v1l2,2v1M994,423v3l1,1v4M668,29h1"/>
<path class="sl" d="M992,590v-4l1,-1v-3l1,-2v-5l1,-2v-5l1,-4v-5l1,-1v-10l1,-1v-13l1,-2v-10h1v-1v1h-1h1v-1l-1,1v1v-1l1,-3v-1v4l-1,1v15l-1,1v10l-1,1v9l-1,1v6l-1,1v7l-1,1v4l-1,1v6l-1,1v4l-1,1v5l-1,1v4l-1,1v3l-1,1v4l-1,1v3l-1,1v3l-1,1v3l-1,1v3l-1,1v3l-1,1v2l-1,1v3l-1,1v2l-1,1v2l-1,1v3l-1,1v2l-1,1v2l-1,1v2l-1,1v2l-1,1v2l-1,1v2l-1,1v2l-1,1v1l-1,1v2l-1,1v2l-1,1v1l-1,1v2l-1,1v2l-1,1v1l-1,1v1l-1,1v2l-1,1v1l-1,1v2l-1,1v1l-1,1l1,-1v-1l1,-1v-2l1,-1v-1l1,-1v-2l1,-1v-1l1,-1v-1l1,-1v-2l1,-1v-1l1,-1v-2l1,-1v-2l1,-1v-2l1,-1v-1l1,-1v-2l1,-1v-2l1,-1v-2l1,-1v-2l1,-1v-2l1,-1v-2l1,-1v-3l1,-1v-1l1,-1v-3l1,-1v-2l1,-1v-3l1,-1v-2l1,-1v-3l1,-1v-3l1,-1v-3l1,-1v-3l1,-1v-3l1,-1v-4l1,-1v-4l1,-1v-3l1,-1v-5l1,-1Z"/>
<path class="sp" d="M992,591v-1M1000,493v29l-1,1v15l-1,1v10l-1,1v9l-1,1v6l-1,1v7l-1,1v4l-1,1v6l-1,1v4l-1,1v5l-1,1v4l-1,1v3l-1,1v4l-1,1v3l-1,1v3l-1,1v3l-1,1v3l-1,1v3l-1,1v2l-1,1v3l-1,1v2l-1,1v2l-1,1v3l-1,1v2l-1,1v2l-1,1v2l-1,1v2l-1,1v2l-1,1v2l-1,1v2l-1,1v1l-1,1v2l-1,1v2l-1,1v1l-1,1v2l-1,1v2l-1,1v1l-1,1v1l-1,1v2l-1,1v1l-1,1v2l-1,1v1l-1,1l1,-1v-1l1,-1v-2l1,-1v-1l1,-1v-2l1,-1v-1l1,-1v-1l1,-1v-2l1,-1v-1l1,-1v-2l1,-1v-2l1,-1v-2l1,-1v-1l1,-1v-2l1,-1v-2l1,-1v-2l1,-1v-2l1,-1v-2l1,-1v-2l1,-1v-3l1,-1v-1l1,-1v-3l1,-1v-2l1,-1v-3l1,-1v-2l1,-1v-3l1,-1v-3l1,-1v-3l1,-1v-3l1,-1v-3l1,-1v-4l1,-1v-4l1,-1v-3l1,-1v-5l1,-1"/>
<path class="sl" d="M359,20h1h-1h1l2,-1h3l2,-1h2v-1v1h-1h1l1,-1h4v-1v1v-1h4v-1h3l1,-1h1h-1l-1,1l1,-1h4l1,-1h3l2,-1h1h-1v1h-1h1l3,-1h1h-3l-1,1l2,-1h-1l-1,1h1l2,-1h2l2,-1h1v1h-2l-2,1h1l2,-1h1v1h-1h1l2,-1h6l1,-1h7l-1,1h-2v1h1l-1,1h1h-2l-1,1l1,-1h2l1,-1h1l1,-1h14v-1h4l-1,1h7l1,-1h-1h1h-1v-1h15l1,-1h1l1,1h9l1,1h5v1l1,-1h-2h2v1h2l6,1v2h2l1,-1h-2h11l1,1h3v1h1h-2v1h-2l-1,-1h-1l1,1h1h-5v1h-1h1h-3v1h2l1,1h-2v-1h-1v1h-1v-1l-1,1h-2v-1h-5l-2,-2h-9v-1h2v-1h-1v1h-1v-1v1h-3v1h1l-1,1h-1l-1,1h-4l-1,1h-4v-1h-2v1l-1,-1h-2l-2,1h-1h2v-1h1v1h4v1h2v-1l1,1v1h-1h1v1v-1v1h2v1h-1h1v1h-2v1h-1l-3,-1h-6l-1,1h-3l-1,1h-4v1h-4l-2,1h-2v1h-3l-1,1h-2l-1,1h-4v1h-1l-1,1h-2v-1h-2v-1l-1,1h-5l-2,1h-1l-4,1v1h-1v-1h1l1,-1h1h-2l-2,1h-3v1h-1l-1,-1v1h-4l-1,1h-1l-1,1l-2,1h-1v1h-2l-1,1l-2,1h-1l-1,1v1h1l1,-1h2v1h-1l-1,1h-1v1h-1v1h-1h2l-1,1v1h-1l-1,1h-1v-1h1l1,-1h-2v1h-1l-1,1h-1l-2,1l-1,1h-1v2h-1h1v1h-1l-2,1h-3l-1,1h-2l-1,1h-2l-2,2v1h-1v2h-1v-1h-1l-3,1h-1l-1,1h-1l-4,4l-4,2h-1l-1,1l-2,1l-3,1v-1l1,-1l2,-4h1v-2h1l2,-3v-1l2,-2l1,-2l1,-1h1l3,-3l4,-3h1l4,-2h1l1,-1v-1h3l2,-1h2l1,-1l2,-1h2l1,-1h1l1,-1l6,-2l1,-1h1l3,-1h1l4,-2h1l2,-1h3l1,-1h1v-1h3v-1h-1h2v-1h1l1,-1h1l1,-1h1h-5l-1,1h-1v1h-1l-1,1h1h-3l-2,1l-6,2h-1l-1,1h-2v-1h1h-1h1v-1l2,-1h1l1,-1h-1l-2,1h-1h1h-6l-2,1h-3v1h-2v1h-1l-2,1h-1l-1,1h-2l-2,1l-3,1l-1,1h-2v1h-1h3l-1,1h-3l-1,1h-1v-1h-1l-1,1h-1l-1,1h-5l-1,1v-1l2,-1h2v-1h-2v1h-1l-1,-1h-2l-1,1h-2v1v-1l-1,1h-1l-1,1v-1h-1l-1,1h-4l-1,1h-7l-1,1h-1l-3,1h-1l-4,2h-1l-1,1l-2,1h-1l-1,1l-3,1l-2,1l-1,1h-2l-1,1h-1l-2,1l-1,1l-3,1h-1v1h-1l-3,1v1h-2l-1,1h-1l-1,1l-6,3h-1l-2,1h-1v1h3l1,-1v1h-1l-1,1l-2,1l-1,1h1l2,-1v-1l2,-1h1l-2,1h-1h1v1h-1l-1,1h-1l-1,1l2,-1h1l1,-1l2,-1v1h-2v1h-1h1l2,-1v-1h2v-1l1,-1l1,1l2,-1v4h-3v2h-1l-1,1v1l-1,1h-1l-1,1h-1l-2,2l-2,1l-1,1l-2,1l-3,3v1h-1l-2,2l-2,1v1h-1v1h-1l-1,1l-2,1v1h-1l-2,1l-2,2h-1l-2,2l-2,1l-3,2l-3,3h-1l-4,4h-1l-2,1l-2,2l-3,1v1l-1,1l-2,1l-1,1h-1l-2,2l-3,2l-1,1l-2,1l-2,2l-5,3h-1l-2,1l-1,1h-3l2,-2h-1l-1,1h-1h1l1,-1h-1v1l-2,1l-2,2h-1v1h-2v1l-1,1h-1l-1,1h-1v1h-1l-4,4v1l-2,1v1l-1,1l-4,2v1h-1l-2,2h-1v1h-2l-3,3v1h-1v1h-1v4l-2,4v1l-2,4h-1v2h-1l-1,1v1l-1,1v1h-1h1l-2,2l-1,2l-3,3h-2v1h-1v1h-1v-1l-1,1h-1v2h-1l1,-1h-1v2h-1l-1,1v-1h1v-1l-4,4v-1h1v-2h1l1,-1h-1l1,-1v-1h1v-1l4,-4v-2h1v-1h1v-1l1,-1h-1l2,-2h1v1v-1l1,-1v-1h1v-2h1v-2l-1,1v-1l-2,2h-1h1h-1v-1h1l1,-1h-1l-1,1v-1h1l2,-2v-1l2,-1h1h-1v-1l3,-3h1v-2h-1v1v-1l1,-1l-1,1h-1l-1,1v-1v1h-1v1h-2v1l-3,2l-3,3h-1v1h-1v1h-1l3,-3h1v-1h1v-1l-1,1v-1l1,-1h1l2,-2v-1h1l3,-3v-1l1,-1h-1v1v-1l-6,6l-3,2l-2,2h-1v1l-3,3h-1v1h-1v-1v1h-1l-1,2l-3,3v1h1v1l-2,2v1l-1,1h-1v1h1l1,-1v-1h1l1,-2l1,-1h1l1,-1h1l-1,1h2v-1v1l1,-1l-1,1v1h-1v1l-1,1h-1h1h-1l-3,3h-1l-1,1v1h-1l-1,2h-1v1v-1l-1,1v1h-1v1h-1v1h-1l-2,2v1l-3,3v3l-1,2l-1,1v1l-1,1v1l-1,2l-1,1v1h-1v1h1l-1,1v2l-1,1v1h-1v-1l-1,1v-1l-1,1h-1h1l1,-1v1h-1l1,1v2l-1,1v1l-1,1h-1v1l-5,5h-1h1v-1v1h1l1,-1v-1v2l1,1h-1l-1,2l-1,1l1,-1l-2,3v-1v1h-1v2l-1,1v1h-1v2l-1,1v-1l-1,1v1v-1l-1,1v1l-1,1l-1,2h-1v2h-1v1l-2,2l-1,2l-1,1v1h-1h1h-1l1,-1v-1v1h-1v2l-1,1v1h-1v1l-2,2h1v-1v1l-1,1v1l-1,1v1v-1v1v-1l-1,1v1l-1,1h-1v2h-1v2l-1,1h-1l-1,1v1h-1h1l-1,1l-1,2l-1,1v1h-1v2h-1l1,-1l-1,1v1v-1h-1v2l-1,1v1h-1l-1,2v1v-1v1h-1l-1,1v1h-1l-1,1v1h-1l1,-1l-1,1v1h-1v1h-1l1,-1v-3h1h-1v2h-1v2l-1,1v2h-1v1v-1l-1,1v2h-1h1h-1v1v-1v1l-1,1h-1v2h-1v1l-1,1v1h-1v2h-1l1,-1l-1,1v1l-1,1v2l-1,1v2h-1v1v-2l1,-1v-2l1,-1v-1l1,-1v-1l1,-1h-1h1h-1l1,-1l-1,1v1l-1,1v-1h1v-1v1h-1h1v-2l-1,1v2h-1v2h-1v2l-1,1v1h-1v1v-1v2l-1,2l-1,1v2l-1,2l-1,1l-1,3v2h-1v2l-1,1v3h-1v2l-1,2v3l-1,2v2l-1,1v3l-1,1h1v-1v1l-1,1v4l-1,1v3l-1,2v3l-1,1v3l-1,2v3h-1v4l-1,1h1v-1l-1,1v2l-1,3v3l-1,1v3h-1v2l-1,1v2l-1,1v2l-1,1v1v-2v1l-1,1h1l-1,1v4h-1l1,-2v1l-1,2v3l-1,1l-1,3v5l-1,1l1,-2v-3l1,-4v-4l1,-1h-1v1v-1l1,-1v-1l-1,1v-1h1v-5l1,-1v-4l1,-1v-1v1v-3l1,-1v-4l1,-1v-3l1,-1v-3l1,-1v-3l1,-1v-3l1,-1v-3l1,-1v-2l1,-1v-2l1,-1v-3l1,-1v-2l1,-1v-2l1,-1v-2l1,-1v-3l1,-1v-2l1,-1v-1l1,-1v-2l1,-1v-1l1,-1v-2l1,-1v-2l1,-1v-2l1,-1v-1l1,-1v-2l1,-1v-1l1,-1v-2l1,-1v-2l1,-1v-1l1,-1v-2l1,-1v-1l1,-1v-1l1,-1v-1l1,-1v-1l1,-1v-2l1,-1v-1l1,-1v-1l1,-1v-1l1,-1v-2l1,-1v-1l2,-2v-1l1,-1v-1l1,-1v-2l1,-1v-1l1,-1v-1l2,-2v-1l1,-1v-1l1,-1v-1l1,-1v-1l1,-1v-1l1,-1v-1l2,-2v-1l1,-1v-1l1,-1v-1l1,-1v-1l2,-2v-1l2,-2v-1l1,-1v-1l1,-1v-1l2,-2v-1l2,-2v-1l2,-2v-1l1,-1v-1l2,-2v-1l2,-2v-1l2,-2v-1l3,-3v-1l1,-1v-1l1,-1h1v-1l1,-1v-1l2,-2v-1l3,-3v-1l3,-3v-1l4,-4v-1l1,-1h1v-1l1,-1v-1l4,-4v-1l6,-6v-1l4,-4v-1l1,-1h1l1,-1v-1l4,-4v-1h1l1,-1v-1l1,-1h1l1,-1v-1l21,-21h1v-1l2,-2h1v-1l1,-1h1l1,-1v-1l1,-1h1l7,-7h1l6,-6h1l4,-4h1l1,-1v-1h1l2,-2h1v-1l1,-1h1l1,-1h1l4,-4h1l3,-3h1l3,-3h1l2,-2h1v-1l1,-1h1l1,-1h1l3,-3h1l1,-1h1l3,-3h1l2,-2h1l1,-1h1l3,-3h1l1,-1h1l2,-2h1l1,-1h1l2,-2h1l2,-2h1l1,-1h1l1,-1h1l1,-1h1l2,-2h1l1,-1h1l1,-1h1l2,-2h1l1,-1h1l1,-1h1l1,-1h1l1,-1h1l1,-1h1l1,-1h1l1,-1h1l2,-2h1l1,-1h1l1,-1h2l1,-1h1l1,-1h1l1,-1h1l1,-1h1l1,-1h1l1,-1h1l1,-1h2l1,-1h1l1,-1h1l1,-1h2l1,-1h1l1,-1h2l1,-1h1l1,-1h1l1,-1h2l1,-1h1l1,-1h2l1,-1h2l1,-1h1l1,-1h2l1,-1h2l1,-1h2l1,-1h2l1,-1h2l1,-1h2l1,-1h2l1,-1h2l1,-1h3l1,-1h2l1,-1h1ZM4,439v1l-1,2v8h-1h1v-9l1,-1Z"/>
<path class="sp" d="M12,392v-2l1,-1v-4l1,-1v-3l1,-1v-3l1,-1v-3l1,-1v-3l1,-1v-3l1,-1v-2l1,-1v-2l1,-1v-3l1,-1v-2l1,-1v-2l1,-1v-2l1,-1v-3l1,-1v-2l1,-1v-1l1,-1v-2l1,-1v-1l1,-1v-2l1,-1v-2l1,-1v-2l1,-1v-1l1,-1v-2l1,-1v-1l1,-1v-2l1,-1v-2l1,-1v-1l1,-1v-2l1,-1v-1l1,-1v-1l1,-1v-1l1,-1v-1l1,-1v-2l1,-1v-1l1,-1v-1l1,-1v-1l1,-1v-2l1,-1v-1l2,-2v-1l1,-1v-1l1,-1v-2l1,-1v-1l1,-1v-1l2,-2v-1l1,-1v-1l1,-1v-1l1,-1v-1l1,-1v-1l1,-1v-1l2,-2v-1l1,-1v-1l1,-1v-1l1,-1v-1l2,-2v-1l2,-2v-1l1,-1v-1l1,-1v-1l2,-2v-1l2,-2v-1l2,-2v-1l1,-1v-1l2,-2v-1l2,-2v-1l2,-2v-1l3,-3v-1l1,-1v-1l1,-1h1v-1l1,-1v-1l2,-2v-1l3,-3v-1l3,-3v-1l4,-4v-1l1,-1h1v-1l1,-1v-1l4,-4v-1l6,-6v-1l4,-4v-1l1,-1h1l1,-1v-1l4,-4v-1h1l1,-1v-1l1,-1h1l1,-1v-1l21,-21h1v-1l2,-2h1v-1l1,-1h1l1,-1v-1l1,-1h1l7,-7h1l6,-6h1l4,-4h1l1,-1v-1h1l2,-2h1v-1l1,-1h1l1,-1h1l4,-4h1l3,-3h1l3,-3h1l2,-2h1v-1l1,-1h1l1,-1h1l3,-3h1l1,-1h1l3,-3h1l2,-2h1l1,-1h1l3,-3h1l1,-1h1l2,-2h1l1,-1h1l2,-2h1l2,-2h1l1,-1h1l1,-1h1l1,-1h1l2,-2h1l1,-1h1l1,-1h1l2,-2h1l1,-1h1l1,-1h1l1,-1h1l1,-1h1l1,-1h1l1,-1h1l1,-1h1l2,-2h1l1,-1h1l1,-1h2l1,-1h1l1,-1h1l1,-1h1l1,-1h1l1,-1h1l1,-1h1l1,-1h2l1,-1h1l1,-1h1l1,-1h2l1,-1h1l1,-1h2l1,-1h1l1,-1h1l1,-1h2l1,-1h1l1,-1h2l1,-1h2l1,-1h1l1,-1h2l1,-1h2l1,-1h2l1,-1h2l1,-1h2l1,-1h2l1,-1h2l1,-1h2l1,-1h3l1,-1h2l1,-1h1M3,450v-9l1,-1v-1"/>
<path class="sl" d="M9,405v1ZM12,401v1ZM36,316v-1ZM38,312l-1,1l1,-1v-1ZM37,314v-1ZM36,316v-1ZM308,553l1,3h1v-3l1,1v1l1,2v2h-2l-1,1v-1h-1v-3l-2,-3v-1l1,-1v1ZM314,563l2,2h1l1,1v1h-3v-1l-1,-1v-1h-1l-1,-1l1,-1h1ZM323,569h-2v-1h1v1ZM322,565h-3v-1h1v-1h1v1ZM324,575l1,1v1l-1,1l-1,-1h-1v-2h1ZM318,557l-1,1h-1l1,-2h1ZM321,562h-1v-4l1,3ZM320,556v1l-1,-1v-3l1,2ZM313,560h-1v-1ZM314,547v1h-1v-2ZM313,544l-1,-1h1l1,1ZM338,597l-1,1l-1,-1h1ZM334,592v1h-1l-1,-1v-2l1,1ZM332,587h-1l-2,-1v-2h1l1,1v1h1ZM273,381h-1ZM111,368v1v-1h1ZM191,373v-1ZM193,372v-1ZM238,372h-1v-2l1,1ZM326,373h-1h1v-1l1,-1v1h-1ZM320,361h-1ZM342,362h1ZM338,361h2v1h-1ZM169,285l-1,1v-1ZM164,305v-1ZM158,323h-1l1,-1ZM168,291h-1l1,-1ZM162,314l1,-1v1ZM162,316h-1v-1h1ZM154,330h-1v-1l2,-2v1l-1,1ZM493,542h-1l1,-1h1h-1ZM666,52h-1v-1l1,1h1ZM668,53h-2v-1l1,1ZM653,45h-1ZM604,34h-1ZM607,36h1ZM593,34h-1ZM547,48h-1ZM552,50v-1ZM519,54v-1ZM467,62h-1v-1h1ZM513,15h1ZM494,21l1,1h1l1,-1h2v1h6l-1,1h-5v-1h-7l1,-1ZM516,31h2v1h1h-7l-1,-1h3l1,-1v1l1,-1ZM578,40v1l1,-1l1,1h1v1h-4v1h-1v1h-2l1,-1h-3l-1,-1h-1l1,-1h3v1h1h-1v-1h1h-1l-1,-1h1l1,1l1,-1v1v-1h1ZM532,49l1,1h1h-6v1h-3v-1h1l1,-1h4ZM669,56v1h-1v-1h-1h1ZM678,59h1h-1l-1,-1ZM671,54v1h-1v-1h-2v-1h1l1,1ZM678,57v1h-1v-1h-1v1l-1,-1v-1h-1l1,-1l1,1h1ZM662,50h1l1,1h1v1h-1l-1,-1h1v1h1h-2l-2,-2h-1ZM673,59h2v1l-1,-1h-1l-1,-1h-1l-1,-1h1l1,1ZM598,34h1h-2v-1ZM595,35h-1h1v-1h1v1ZM593,33v1h1h-1ZM591,32h-1ZM579,43h-2ZM578,38h-1ZM576,40h-1ZM572,45l1,-1v1ZM574,45v-1h1v1ZM545,48h1l1,1h-2ZM538,50l-1,-1h1ZM537,51h-1ZM550,49h-1l-1,1v-1h1v-1ZM521,52h-1ZM522,52h-1l1,-1v1h1ZM541,37h-1l-1,-1h2ZM488,30h1l1,1h-2l-1,-1h-1h1ZM499,41h-1ZM501,57h-1ZM495,58h1ZM486,59h-1h2ZM501,43h1h-2ZM465,62v-1ZM467,61h-1v-1h1ZM461,62h-1h1v-1ZM442,64h-1l-1,-1h-2h2l1,1ZM414,61h-1l1,-1ZM654,48l1,1h1l2,1v1h1v1h1v1v-1h-2v-1h-1h1h-1l-1,-1h-1v-1h-2v-1v1h-1v-1h-1h1v-1l1,1ZM652,45l1,1h2l1,1h1l1,1h-1l-1,-1h-1v-1h-1l1,1h1l1,1h1v2h-1v-1h-1v-1h-1l-1,-1l-2,-1v-1h-1ZM648,45h1v1v-1h1l1,1h1v1v-1h-1v1h3v1h-1l-1,-1h-1v1l-1,-1h-1l-2,-1h-1v-1h-1h2ZM664,53h3v1h2l1,1h1v1h2v1v-1h-1l1,1h1v1h2v1h1v1h-1v-1h-2v-1h-1l-1,-1h-1l-1,-1h-2v-1h-1v-1h-2v-1Z"/>
<path class="sl" d="M660,51h2v1v-1v1h1v1h-1l-1,-1h1h-1l-1,-1h-1v-1h1ZM579,39h2l-1,1v-1h-1h1v1h-1l-1,-1v1h-3v-1h2v-1h1v1ZM510,55h-2v1h-1l-1,1h-1v-1h1v-1h2v-1h3v1ZM517,53h1h-1v1h1h-2v1h-3l1,-1h2l-1,-1h-1h1l1,-1ZM480,60h1h-2ZM474,61h-3l1,-1h5l-1,-1h2v1h-2ZM464,61v1v-1l1,1h-3v1v-1h1v-1ZM457,62v1h-1v-1h-1v-1h2v1h1ZM444,62h-1v-1h2ZM432,62h-1h2v-1h1l-1,1ZM410,59h1v1l-1,-1h-1ZM617,264h-1l-2,-1v-2l-1,-2l-1,-1l2,-2l-1,-1v-1h1l1,1l4,1l1,1v1h1v1l1,1l-1,1l-4,2ZM602,246l2,1v-1v1h2l-1,1l-1,-1h-2ZM608,249h3l1,1l-1,1h-2v-1h-1l-1,-1h-1v-1h2ZM597,244h1v1h1l-1,1h-1v-1h-2l-2,-2h2v-1h1ZM584,240v1h-1v-1h-2v-1h1l1,-1h1l1,1v1ZM578,241v-1h1ZM605,250h-1v-1h2ZM926,242h-1v-1v1ZM922,248v-1ZM922,246v-1ZM924,252l-1,-2ZM921,241v-1ZM928,261h1l-1,-2l-3,-4l-1,-2v-1l2,3l2,4ZM815,180v-1ZM822,186v-1ZM829,189h-1l-1,-1h1ZM817,181l-1,-1h1ZM817,180h1ZM827,186h-1v-1h1ZM742,92v1l-1,-1l1,1h-1v-1ZM742,93h-1ZM745,95l1,1h1v1v-1h-2v-1h-1v-1l1,1h-1ZM929,244v1ZM927,241v-1ZM927,241v1ZM929,244l-2,-2h1v1ZM748,100h1h-1v-1ZM749,99h1ZM748,98h-1ZM743,94l-1,-1ZM457,601h1l-1,1l-1,-1h-1l1,-1v1ZM466,579v1h-1v-1ZM459,602v1ZM53,535v1ZM53,547v-1h-1v-2h1v-1h-1v-3l1,-1l1,-2h2l1,-1h1v-1l1,-1v1h1l-1,1v2h-1v1l-1,1v1h-1v2h-1l-1,2l-1,1ZM49,547v-1l1,-1v2h-1v1ZM11,397v1ZM11,394v1v-1v-1h1ZM69,283l-1,1v1l-1,1v2l-1,1v-2l1,-1v-5h1v-2l1,-1v-1l1,-1l4,-7l1,-1v-1l1,-1v-1h1v-1l2,-2v3h-1v2h-1l-3,6v1l-2,4l-1,1v1l-1,2ZM68,272v1h-1ZM140,186l-1,1v-1l1,-1ZM137,187h-1h1v-1h1ZM129,192v-1l1,-1h1l-1,1ZM146,169l-1,1v-1ZM131,191v1ZM136,188h-1ZM140,177l-1,1ZM131,189v-1ZM159,166v1ZM125,199h-1h1v-1h1l1,-1h1l-2,2ZM249,502v1v-1h-1l1,-1ZM307,525h-1v-1v1ZM300,518h-1l-1,1v-2h2ZM259,530l-1,1l-2,-2h-2v-1h1l3,2ZM264,511v1v-1l-1,1v-3ZM246,508h-1v-1h1ZM253,506h1l1,1v1h-1v-1h-1ZM235,502h1v3l-1,-1h-1v-2h-2v1h-1v-1l1,-1v-1l1,-1l1,1v1ZM239,506h-1l1,-1ZM238,505l-1,1l-1,-1v-1h2ZM233,506h-1l-1,-1v-1l1,-1l1,1v1h-1ZM227,500v-1h-1v-2h1v1h1l-1,1ZM227,502l-1,-1v-1l1,1ZM231,501h-1l-1,-1v-1h2v1ZM220,493h-1v-1h1l1,1ZM235,506h-1ZM250,509l2,1h3l1,1h1l2,2v1h-3l-1,-1l-2,1l-1,-1h-1l-1,-1v-1l-1,-1ZM251,502v1l-2,-2l-2,-1h-1l-1,-1h-1l-1,-1h-1v-1h-1v-1l-1,-1h2l3,3h2l3,3Z"/>
<path class="sl" d="M232,494h1l-1,1l-1,-1h-1l-2,-1l-3,-3v-2l1,1h1l2,1v1l1,1v1h1ZM257,500l2,2v2h1l1,1v2h1v1l1,2v1h-1l-1,-2l-3,-3l-1,-3v-1l-1,-1v-1ZM266,517l1,1h2l2,2v1h-2l-1,-1h-1l-2,-1v-1h-1v-1h-1v-1h1l1,1ZM1,483v1v-2ZM479,534l1,1v2h-3l-1,-1v-1h-1h3ZM487,539h-4l-1,-1l1,-1l2,1l1,1ZM250,117h-1v-1h1ZM247,118h1ZM272,67l-2,1h-1h1l1,-1ZM336,44h1ZM410,8h1h-1l-2,1h-1h1v-1h1h-1v1h-4l-1,1v-1h1h-1v1h-5v1h-1l1,-1h4l1,-1h4l1,-1h1Z"/>
<path class="sp" d="M397,11l1,-1h4l1,-1h4l1,-1h2"/>
<path class="sl" d="M413,8h1l1,-1h1h-1h1l-1,1h-1ZM468,8v-1h4v-1l-1,1h-2ZM286,66l-1,1v1h-1v1h-1l-1,1v1h-1v1h-1l-1,1v1h-1l-1,1l-2,1v1l-1,1h-1l1,1h-1v1l-4,4l-1,2l-1,1v1l-2,2h1l-1,1v1v-3h-3l-1,1h-1l-5,5l-2,1l-1,1v1h-1v2l-1,1v1h1l-1,1v1h-1v1h-1l-1,1l2,-2v-1h-3v1h-1l-3,3h-1l2,-2l1,-2l2,-1l1,-1v-1h1l1,-1v-1h1l3,-3v-1l1,-1l2,-1v-1l2,-1v-1h1l4,-4v-1h1l2,-2l2,-1v-2h1v-1l2,-2h1l2,-2l2,-1v-1h1v-1h3l1,-1h1v-1h1v-1h1v-1h1ZM475,6h2v1h1h-6v-1h2ZM391,54l-1,-1h-1h2ZM419,11v-1ZM414,14v-1h2l1,-1l-1,1h-2ZM427,5v1v-1h1ZM424,6h-1h2ZM375,16l-1,1v-1v1h-1l1,-1ZM396,11h-1h2ZM397,11h-2v1h-2l1,-1h2ZM389,13h-1Z"/>
<path class="sp" d="M388,13h1"/>
<path class="sl" d="M274,67h-1v1h-2v1v-1h-1h1l1,-1h1v-1ZM438,11h-3l1,-1h3v1ZM384,41h-1l1,-1h1v-1h3l1,-1h1h-1v1l-2,1h-1ZM385,53v1l-1,-1h-1v-1h-1h1v-1h2l-1,1ZM312,82h-1l2,-2v1h-1ZM324,75h-1h1l1,-1v1ZM320,77h-1v1h-2v-1h3v-1l2,-1h1l-1,1ZM306,85l1,-1v1ZM321,75v-1ZM298,91h-1v-1h1ZM289,95l-1,1h-1h1l2,-1l1,-1ZM273,103l1,-1h1l1,-1l2,-1h2l-3,1v1h-2v1ZM267,106h-1l-1,1l-2,1h-2v1h-1l-2,1l-1,1l-2,1l2,-2h1l1,-1h1l1,-1h1l1,-1v-1h2l3,-1h1h-1v1ZM252,116h-1v-1h2ZM253,112h1h-1l-1,1h-1l-2,2h-1l-2,2v-1h1l1,-1h1v-1h1v-1l2,-1ZM58,315v1h2v-2h1v1h-1v2l-1,1v2l-1,1v5l-1,1l-1,4h-1v2h-1l-1,1v2h-1v2l-1,1v2h-1v6l-1,2v1l1,1l1,-1v-2h1v-1h1v4l1,-1v-1l1,1v-1v2h-1v5h1v2l-1,2v-3l-1,1v-1h-1v-5l-1,-1v4l-1,1v1v-5h-2v1l-1,1v1h-1v-2l-1,1l1,-1v-3l1,-2h1v-2h-1v-1v3l-1,1v-7h1v-5l1,-2v1h1v-1h1v-4l1,-1v-1l1,-1v-3h1v-2l2,-4v-2l2,-2ZM27,403v1v-1l2,-4v-2l1,-1v-1h1l1,-3v-2l1,-2l1,-1l1,-2v-1l1,-1v-4h1v-2l1,-1v1l-1,1v5l-1,1v1l-1,1v1l-1,1v1h-1v1l-1,3v1l-1,1v1l-1,1v2l-1,1v1h-1v2ZM47,370h1v1l1,-1v2l-1,1v1h-1v2h-1v2l-1,1h-1v1v-3l1,-1v-3l1,-3v-1h-1h1v-1l1,1ZM45,390v1v-3h-1v-4h1v-1l1,-1v-3l1,-1v-2l1,-1v-1h1v3l-1,1v2l-1,1v3l-1,1v5ZM54,369v1v-1h1v3l-1,2h1v4h-1v-1v1l-1,1v1v-5l1,-1v-1h-1v-4ZM58,359v2h1l-1,1v4h-1v3h1v1h-2v-1h-1v-2l1,-1v-1v1l-1,-1v-2l-1,-1l1,-1v-1h1l1,-1ZM45,357v-1h1v2l1,1l-1,1v3l-1,1v2h-1v1v-10ZM56,385h1v3l-1,1v13l-1,1l-1,2v5l-1,-1v-1l1,-2l-1,-1v-3l-1,1v2l-1,1v3l1,2l-1,2v1l-1,2v1v-4l-1,2h-1v-1h-1l-1,-1v-7l1,-1v-4h-1v-1h-1v2l-1,2v-1h-1v1v-2h-1v1l-1,1v2l-1,2v2h-1v-2l1,-1v-3l1,-1v-2l3,-3v-2l2,-2v-1h1v4l-1,1h1v-1l2,-2v-2h1l1,-2v-2h1l1,-1h1v-6h1v-1v1l1,1v1ZM47,387v-4l1,-1v-1l1,-2v-1l1,-1v-1l1,-3v-1l1,-1l-1,1v4l-1,2v1l-1,1v1l-1,1v1l-1,3ZM61,311l-1,1l1,-1v-1ZM61,308v1h-1v-1ZM65,300v-1ZM66,296l-1,1ZM36,418v1h1l-1,1v-1v1h-1v-1ZM26,408v-1ZM37,383v-1h1ZM41,368v2h-1v-2ZM40,372l-1,1v-1l1,-1v-1v1ZM46,379l-1,1v-1l1,-1v-1v1ZM52,382l-1,1v1h-1v1h-1v-3l1,-1v-1h2l-1,2ZM32,426v2h-1v1v-1l1,-1ZM39,414v-1h-1l1,-1v-1l1,1v1ZM57,381v-1ZM56,380l-1,-1v-1l1,-1v-1v3ZM44,355v1v-2ZM49,355v2h-1v-2ZM47,364l-1,2v-1l1,-1v-2h1l-1,1ZM49,364l-1,-1l1,-1v1ZM52,359v1v-1h-1v-2l1,1Z"/>
<path class="sl" d="M53,361v1l-1,-2h1ZM52,363h1v3l-1,1v-3h-1l-1,1v1v-1l1,-2v-2h1v1ZM57,351h-1v1v-2l1,-2v-1v1l1,1l-1,1ZM50,350v1v-2ZM52,343l-1,1v1v-3h1ZM52,376v-1ZM54,380v-1ZM43,405v1h-1v-1h1v-1ZM53,405h-1v-1l1,-1ZM54,368h-1v-1h1ZM51,388v-1ZM59,311v-1ZM39,374v1h-1ZM51,371v1h-1ZM48,363v-1ZM56,382v-1ZM55,367v-1ZM27,405v1ZM48,388v1h-1v-1ZM199,475l-1,1v-1l-1,-1v-4l-1,-1l-2,-3l-1,-1h-1l-1,-1h-1l-2,-2l-3,-2h-2l1,-1v-1l2,2h1l1,1h1l1,1l2,1l2,2v1l5,3l1,2v1l-1,1v1ZM192,472l1,-1v1h2v4l-1,2h-1l-1,1l2,2l-2,2h-3v2l-1,1v1l-1,1h-2v1h-1v1h-1l-1,1h-5l-1,-1h-1l-1,1v-1l-2,-1h-1l-1,-1h-1l-1,-1v-1h2v-1h1v1l2,-1l1,1h1l1,-1h2l1,-1v-4h1v4h2l1,-1v1h1v-1h2v-2l1,-1l1,-2h1l1,-1v-2l-1,-2v-1l1,-1l1,1ZM127,525l-1,-2v-7l-1,-2v-7l-1,-1v-11l-1,-2v-14l-1,-2v-9h1l3,2h2l1,1l2,1h3v1h3l1,1h1l1,1h4v1l1,1h1v1l1,1h2l3,4v5h3l1,1l4,2h4v1l2,2v3h-1l-2,1h-2l-1,1v1l1,1l1,2l4,4h1v1l2,1v2l2,2l1,2v1l1,1h1l2,-1h1v4h5v1h-1v2l1,1h3v1h2v1h-1v1h1v1h-1v1h-2l-2,-2h-2l-1,-1l-3,1l-1,-1h-7l-2,-2v-1l-1,-1l-2,-1l-1,-1v-2h-2v-1l-1,-1v-1l-2,-2v-1l-2,-2h-3l-1,-1h-3v-1h-3v1h-1v1l-1,-1h-1l-1,-1l2,3l-1,1v-1v1h-2v1h1v1h-1l-1,1h-1l-1,1h-3v-1h-1l1,1v1l1,-1h1l2,1l1,1h1v3l-1,1l-2,1l-1,2l-1,-1h-3l-1,1h-3ZM166,489l-1,-1v-2l2,1v1ZM153,481v1h-1v-2h1ZM196,461v1l-1,-1ZM192,460v1l-1,-1v-1ZM176,450v1l-1,-1v-1h1ZM190,523v-1h1v2l-2,-1v-1l-2,-2h1v1l2,1ZM184,519l-1,-1v-2l1,1v1ZM189,511v1l-1,-1h1v-1h-1v-1h1v1ZM213,531v1h-2v-1l1,1v-1ZM141,516v1l-1,-1h-1ZM161,486h-1v-2l1,1ZM159,456l2,1v-1v1h-1v1h-1l-1,1l-1,-1l-1,1h-1v-1h1v-1h1ZM181,459l-1,1h-1v-1l-1,-1l1,-1h1l1,1ZM185,517l1,1l1,-1v1h1v2h-3v-1h1l-1,-1ZM199,512h2l1,1v1h-2v-1h-1ZM208,533h1l1,1h-3v-1l-1,1v-1l-1,-1h1ZM141,518h-1l-1,-1v-1v1h1ZM164,458v1h-1ZM191,459v-1l1,1ZM189,527v1h-1v-1ZM204,469h-1v-1h1ZM221,489v1h-1v1h-3v-1l-1,-1v-1l-4,-4v-4h2v1l1,1v1h1v1l1,1h1l2,2v1h1ZM211,480v-1l-1,-1v-1l1,-1v1l1,1l-1,1ZM996,435v-1l-1,-1v-1v1l1,1ZM993,416v1ZM91,390v-2l1,-1v1l-1,1ZM150,159v1ZM390,766h1v-1h1l2,-2h1l-1,1h1h-1l1,1l-1,1l1,-1v-2l1,1v-1l1,1v1h-1h1l1,-1v1h-1v1h-1v1h1v1h1v2l-2,2v1l-1,1v1l-1,2v1l-1,1h-1l-2,2h1v1h-1h2v1h2v2h-1l-1,-1l-1,1v-1h-1v1h-1l-1,-1l1,1l-1,1h-1v1h-2v1h-1h1v5h-1h1v1h-1v5h1v1h-2l-1,1v1l-2,2v1h-7v1v-1h-1v-1h-3l-1,-1h-2l-1,1l-2,-1h-1l1,-1h-1v-1l-1,1l-1,-1l2,-1h1h-1v-1h-1v-1h1l-1,-1l1,1h1v-1h-1v-2h1h-1l1,-2l1,1h-1v-1h1v-1h1v-2l2,-2v-1h2l1,-1h1v-1h1l2,-2h1h-1l1,-1v-1h1v-1h1v1v-1h-1h1v-1h1l1,-1v-1h1v1v-3h1v-5h1l1,-1v-5l1,-2l2,-2h2l-2,1l2,2h1v1l1,1Z"/>
<path class="sl" d="M394,763v-2l1,1ZM361,800h-1l1,-1ZM361,796l1,1h-1ZM372,807v1h-1h2v1h-1l-1,1h-2l1,-1v-3h1ZM398,727l1,1h-1v-1h-1v-1h1ZM381,717v1h1v-1l2,1h2l1,1v1h2l2,2v2h-1h1v1l1,1l1,2v1l1,1v2h2l1,1h1v1h2v-1l-1,-1v-2h-1v-1l2,2h1v1h1v2l1,2l1,1h-1h1v1h1l3,1h1l3,1h1l4,-4h2v1h1v7l-1,1h-1v4h-1v-1h-3l-1,1h-1v3l1,1v2l-1,1v1l-1,1v1l-1,1v1l-1,1v1l-1,1v1h-1l-3,3v-1l-1,-1h-2v-1l-1,1v-1l1,-1v-2l1,-2v-3h-1l-1,-2h-2l-1,-1h-1l-1,-1h-1l-2,-1h-1v-2l2,-1l1,-1h1v-1h1l-1,-2v-1l1,-2v-4l-1,-1v-1h-1v-1l-1,-1h1v1v-1h1l-1,-1h-2v-1l-1,-1l-1,-2l1,1v-2h-1h1v-1h-1l-2,-1h-1v-1v1l2,2v1l-1,-1v-1h-1l-4,-5v-1h1v-1l-1,1v1l-1,-1h-1v-1h-1l1,-1v-1l-4,-4h1l2,2v1ZM391,844h1l-1,1v-1h-1ZM372,834v1h-1v-1v1h-1v-1h1v-1l1,1h-1ZM460,782h-2l2,2h-2v-2h-1l1,-1ZM461,786h-1v-1h1ZM489,499v-1h-1h1ZM582,603h-1v-1h1ZM303,428v1ZM965,319v1v-2ZM916,284v1l-1,-1v-1v1ZM906,301h-1v-1v1ZM890,253v1l-1,-1ZM865,221v-1l-2,-1l-1,-1v-1h1v2h1l1,1ZM860,226l-1,-1v-1l1,1ZM869,222l1,2l-1,-1l-1,-2v-1l1,1ZM843,216v1l-1,-2ZM963,312v1ZM964,326h-1l1,-1ZM895,261v-1l-1,-1l1,1ZM849,201v-1h-1h1ZM884,245v1ZM887,257l-2,-2h1ZM885,255l-1,-1v-1h-1v-1l-1,-3v1l1,2v1h1v1ZM2,450h1v-1v5l-1,1v12l-1,3v1l1,1v3l-1,4v1v-18l1,-1v-10l1,-1Z"/>
<path class="sp" d="M1,466v-4l1,-1v-10l1,-1"/>
<path class="sl" d="M24,439h-2l-2,2v-1v2l-1,1v8l-1,1v1v-1v3h-1v1h1v1l-1,1v5h-1v4h-1v1l-1,1v1h-1v-2l-1,1h-1v5l-1,1h-1v1l-1,1v1v-3l-1,-1v-3h1l1,1v-1v1v-3l1,-1v-8l2,-2l1,-2v-2l1,-1v-4l2,-5v-3h1v3l1,-1v-6h1l-1,1v3h1v-5h1v-6h1v-2l1,-1v-2l1,-4l1,-1v-3l1,-1v2h-1v2l1,-1v-3h1v2h-1l1,1v5l-1,1l2,-2v2h-1v1h1v-2h1v2l1,1v-1l1,1v1l-2,2v1h-1l-1,2l1,1v2l-1,1v1h-1ZM2,471v-1ZM26,414l-1,1v-1h1v-1ZM1,473v-1ZM10,463v-1ZM25,439h-1h1v-1ZM353,394h-1ZM352,395h-1ZM353,405l-1,-1ZM353,406v-1ZM353,412v2h-1l1,-1ZM365,427v-1h-1v-1l1,1ZM368,431h-1v-1h1ZM353,409h1ZM480,456h-1ZM460,458h-1h1h-1ZM652,521v-1ZM608,403l2,1h-2l-2,-1h2l-1,-1h2ZM591,385l1,1h-1v-1v1ZM484,441l1,1h-1h1ZM163,172h-1l1,-1ZM190,157h-1h1v-1l1,-1v1l1,-1l-1,2ZM161,183l-1,1v-1l1,-1h1v-1l-1,1ZM128,215l-1,1v-1l1,-1ZM130,214h-1l2,-2v-1h1l-2,2ZM134,202h-1h1v-2h1l-1,1ZM138,190l1,-1ZM140,188v1h-1l1,-1v-1h1l1,-1h-1v1ZM131,200v1h-1ZM135,200v1v-1h1ZM234,111v1v-1h1ZM234,112h1ZM213,131v-1h1h-1ZM159,182v1ZM132,199l2,-2h-1v1ZM135,196l1,-1ZM139,192h-1h1v-1ZM151,187h-1l1,-1ZM149,188v1h-1v-1ZM130,206v1v-1l1,-1v1ZM168,230v-1ZM240,116h4l2,-2l2,-1v1l-2,1l-1,1v1h-1v2h1l1,-1v1h-1l-1,1h-2l-1,1h-1l-1,1h-3l-2,1l-1,1l-2,1v1l-1,1h-1v1h-1l-2,-2h-3l-3,2v-1h-1v1h-1l-1,1h1l1,1v1h-3l-1,1v1h-1v1h-1v-1l2,-2v-2h1v-1l1,-1h1l2,-2h1l1,-1v-1h4v-1h1v-1l1,-1h1l1,-2h1l2,-2v-1l2,-1v-1l1,-1v-1h1v-1h2v5h1ZM143,192h1v-1h1v1l-1,1h-1h2l-1,1v1h-1h1l-4,4v1l-3,3v1h-1l-1,2v1l-1,-1v1l-3,3v-1h1v-1l1,-1v-1h1v-1h-1v1l-1,1v2h-2v-1l2,-2v-1l1,-1v-1h1v-1h1v-1l2,-2v-1l1,-1v-1h-1v1l-1,1h1v-1v1l-1,1v-1l-1,1v-1h1v-3h1v-1h1l1,-1h1v-1l1,-1h1l1,-1v1ZM158,184h1v1h-1v1l-3,3v1h-1v1h-1v-1h-1l-2,1v1l-1,1h-1v1l-2,2h-1l1,-1h-1l1,-1v-1h1v-1h-1l1,-1l2,-1v-1h1v-1l2,-2v1h2v-1h1v-1h1v-1h1ZM217,133h1v1l-3,3v3l-1,1v1l-2,2l-1,2h-1v1h-1v1h-1v1h-1l-1,1v1h-1l-1,1l-2,1v1l-1,1v1l-3,3v1l-1,1h-1v1l-2,1v1l-1,1v1l-1,2l-3,3v1h-1l-1,1h-1l-1,1v-1l1,-1h1v-1h1v-2l-1,1v1h-1l-1,1v1l-1,-1l-1,1h-1v1l-1,1v1h-1v1h-1l1,-1v-1h1v-1h-1l-4,4h-3l-1,1h-1l1,-1h1h-2v-1h1v-1l-3,3v1h1l-1,1l-2,1l-6,6h-1v-3l1,-1v-1h1l1,-1v-1h1v-1l-1,1h-1v-1h-1v1h-2v1l-1,1h-2l-2,2h-1l-1,1h-1v-1v1h-1l-1,2h-1v1l-1,-1h-1v1h-2l1,-2l1,-1h1l2,-2h1v-1h1l3,-3l2,-1l2,-2h1v-1v1h1l1,-1h2l1,-1l4,-2v1h-1v1l2,-1h1l2,-2v-1l3,-3l2,-1l1,-1l1,-2l1,-1l1,-2h1l1,-1h1v1l-2,1h-1v1l-1,1v1h1l1,-1v-1l3,-1h1v-1h1l2,-1v-1l1,-1h1l3,-3h1l1,-1v-1h1l1,-1v-1h1l1,-1v-1l2,-1v-1h1v-1h1l1,-1v-2l3,-3v-1l1,-1h1l2,-2v-1h2l-1,2v-1h3v-1l1,-1h-1l-2,1l2,-2Z"/>
<path class="sl" d="M85,265l-1,1v-1l1,-1ZM83,267h-1l1,-1ZM89,261v1ZM106,244h-1v1l-2,2v1l-1,1v-1l1,-1v-1h1v-1h1h-1l1,-1h1v-1l1,-1v1h-1ZM112,235l1,-1v1ZM116,231l-1,1v-1l1,-1h1v-1h1l-1,1h-1ZM178,187h-1v-1h1ZM26,551v3h-1l-1,-1h1v-2l-1,-1l1,-2v-1l1,1v1ZM23,548v2h1l-1,1v2h-1v-2h-1v-1h-1v-1h2v-1ZM3,506v6l1,1v3h-1v-6l-1,1v-6l1,1v1v-2ZM41,507l1,2h-1v-1v4l1,1v1l-1,1v-1v3h-1v-11h1ZM40,514v1h-1v-6l1,-1v5ZM6,457v-2ZM6,514v2h-1v-1v1v-5l1,1v1ZM92,458h2l3,3h-1v1h-2v-3l-1,1l-1,-1ZM92,466h8l-1,1h-2l-1,1v-1h-2ZM70,458h2v2h-1v1l-1,-1v2l-1,-1v-1v1v-1l-1,1l-1,-1h1v-1h1v-1ZM60,443h-1v-2l1,-1v-1l1,-1v5ZM59,475v1h-2l-1,1v-4h1l1,1ZM51,485h-1v-2l1,1ZM50,479h2l-1,1h-1v1h-2v-1h1ZM46,480h2v1h-1v1h-1l-1,1l-1,-1v-2h1ZM76,526h-1v-2h1l-1,-1l1,-1v-2l1,-1v-1l1,1h-1l1,2l-1,2v2l-1,1h1ZM57,529v1h-1v2h-2v1v-3h1l1,-1v-1ZM49,536h2l1,1l-3,2v-2ZM71,469h-1v-2l-1,-1l1,-1l1,1v-1v3ZM0,481v1v-1v9h1v4l-1,1l1,-1v-1v10l1,2v8h1v10l1,1v11l1,6l-1,-1v2l-1,-1v-5h-1v-5l-1,-2v-8l-1,-2v-39Z"/>
<path class="sp" d="M0,505v-25"/>
<path class="sl" d="M44,542l-1,1v1h-1l-1,2h-1l-1,1h-3l-1,1v-2h-1l1,-1h-1h1v-2h1v-1h1v1v-1l1,1h1v1h1v-1h1v-1l1,1h1v-3h1v-1h-1v-1h1v3ZM36,553h1v1h1v1h1v5h-1v-1h-1v-1l-1,-1h-2v-1h-1v-2h1v-1h2v-1ZM30,546v-1h1v1v-1h1v2h1v1l-1,1v-1v2h-1v-1l-1,1v2h-1v1h-1v1h-1v-2l-1,-1v-2h1v-1h1v1h1v1h1v-3h-1l-1,-1v-1h1v-1v1ZM46,457l-1,1v3l-1,1v1h-1l-1,1h-1v1h-1v-1h-1l-2,1h-1l-1,1h-1l-1,1l-1,-1v1h-1v1l-1,1v8l1,2v1l1,2v1h1v-1l1,-1v-4h1v1h1v-2h1v-1h1l1,-1v-1h2v3h-1v-1l-2,2v3l-1,2v1l-2,2v1h-1v1h1v2h1v2l1,1v1l1,1v7l1,1v1l1,1v-1v3h-1v1l-1,1v3h-2v-7h-1l-2,-3v-1l1,-2v-3l-1,-1v-1v1h-1v1l-1,1v3h1v10l1,2v1l-1,2v2l1,2v2h-1v1h-1l-1,-1v-13l-1,-2v-2h-1v1v-1h-1v-7l1,-1v-15l1,-1v-1v1v-9l1,-2v-4l1,-1v1h1v-4h1v-1h1v1h1v1l1,-1h2l1,1v-1h1v-1l2,1l1,-1l1,-2v-1l1,-1v-2h1v-2h1v4l-1,1ZM7,541v1l1,1v-1v2h1v2h1v-1h2v-5l1,2v-1h1v1h1v1l1,1v3h1v1l2,-2h1v5l1,1v2h-2l-1,-2v2h-2l-1,1h-2l-1,-1v-1h-2v2h-1v-1h-2v-3h-2v-1h1v-1l-1,-1h1v-1l-1,-3v-1l1,-1v1v-1v1v-2ZM7,469v5l1,1v2l1,-1v-1h1l1,-1v-5h1l1,-1v2h1v-1l1,-1v-1h1v-4h1v-5l1,-1v-1h-1v-1h1v-3l1,-1v-8l1,-1v-1l2,-2h2v4h1l-1,1v-1v1h-1v4l1,1v4l1,1v2h-1v3l1,1l2,4v2h-1v1h-1l-1,-1v-1v3l-1,1v13l-1,1v3l-1,1v-1v4h-1v6h1v3h-1v9l-2,4l-1,3v-6l-1,1v-2l-1,1v1v-2h-1v1l-1,-2v4h-1v2l-1,1v-5h-1v2h-1v-1v1v-1v1h-1v-13l-1,-1v-3h-1v-1l1,-1h-1v-19l1,-1v-2ZM57,454h1v-2l1,-1v-2l1,-1v-1h1v4l-2,2v2h1l1,1v2h-1v-1h-2v8l1,2v1h1h-1l-1,-1v-2h-1v-6h-1v-12l1,-1v-1l1,-2v-1v9l-1,2ZM66,484h3l1,1v2h1v4l-1,-1h-1l-1,-1h-1v-1h-2v1h-2v-1h-1v2h-2v-1l-1,-1v3l-1,1v-3l1,-3l2,-1h1l1,-1v1h1v-1l1,-1ZM54,489l1,1v1l1,1v2h-1v1h-1v1h-1v-1h-1v-1l-1,-1v-2h1v-1h1ZM52,542v1h1v1h-1v2h1v3h-1v4h-1v1l-1,1v1h-1v-2l-1,-1v-3l1,-2v-1v1v-1h1v-2h1v-1l1,-1ZM91,502v6h-2v-1l-1,-1v-1h1v-1l-1,-1h1v-3h1v1ZM90,509v2l-1,1v1h-1v-6l1,1v1ZM112,520l-1,1l-2,1h-1v-4l1,-3v-1h1v-1l1,-1h2v1l1,1v2l-1,2v1ZM122,468v9l1,2v14l1,2v11l1,1v7l1,2v7l1,2l-1,-1h-1l-1,-1v-1l-4,-4v-1l1,-2l-1,1v1h-1l-1,1h-2v-1v1h-1l-1,2v-6h1l-2,-2v-1h-1h1v-1h1h-1l-2,-2h1l1,-1h-1v-1l-1,-1v-1h-1l-1,-2v-3h-1l1,-1h-1v-1l-1,-1h-1v-1l-3,-2h-2l-2,-1h-1l-1,-1h-1l-1,-1l-2,1h-1l-3,-3v-1h1h-1v1l-1,-1l-1,1v-1l-1,-1v1h-1v-1l-1,-1v-4l1,-1h-1v4h-1v4l-1,2h-2v-6l-3,-3h-1v-1l1,-1h2l1,-1l1,-2h2l1,1v-2h1v-1h-1v-1h1v-1l-2,2h-2l-1,1h-3l-1,-1v-1l-1,-2v-1h-1l-2,-1v1h-1v-2h1v-4h1l2,-2v-1h1v-1l1,-1h3l2,2h2v-1h1v3l1,1v10l2,4v-2l1,2h1v3h3v-1l2,-2v-3l2,-2v-2l2,-2l2,-1v-2l1,-2l2,-2h1v1h1l3,1l1,1h2v1l2,1h4v1l2,-1v1h1v1Z"/>
<path class="sl" d="M114,521h-2v-1h1v-1h1v1ZM1,480l-1,1v1v-2ZM0,488v-3h1v2ZM1,484v1v-1h-1v-1ZM1,489v1v-1v1l-1,-1v-1l1,-1v1ZM1,488v-1ZM1,491v-1ZM1,489v1v-2ZM1,484v1v-1v1ZM2,483v3h-1h1h-1l1,-1h-1v-1h1ZM2,495v-1v2h-1v-3l1,1ZM1,497h1v1l-1,1v1v-2ZM1,498v-1ZM7,496v1v-2ZM18,542l-1,1v1h-1v-3l2,-2v2ZM90,462l-1,1v-2h1ZM55,467h-1v-2h1v1ZM56,465l1,1l-1,1l1,1h1l-1,1l-1,-1v1v-2h-1v-2l1,1ZM82,506v-5h1v2l-1,2ZM81,506v1v-1v1v-2l-1,-1h1v1ZM60,493h-1v1v-2l1,-1v1ZM54,428v-4h1v3ZM50,435h-1v-1ZM75,530h-1l1,-1v-2l1,1v-1l-1,1v1ZM70,528l-1,1v-3h1v1ZM62,531v1l1,-1v1h-1ZM68,473v3h-2v-1l1,-1v-1ZM3,544l-1,-1v-1l1,1ZM1,527v1v-2ZM1,523v1v-1l-1,-1ZM0,520v1Z"/>
<path class="sp" d="M0,520v0"/>
<path class="sl" d="M38,516v-1h-1v-2h1v1ZM40,478v1l1,-1v2h-1v1v-2l-1,2v1v-4ZM36,473v1h-1v-1ZM34,525v1v-3ZM21,538v1v-2l1,1ZM21,510l-1,2v-7l1,1v3ZM47,562v-1l1,-1v-2l1,1l-1,1v1ZM49,538l-1,1v1v-1h-1h1v-2h1ZM47,538v2h-1v1h-1v-1l1,-1h-1l1,-1v1v-1l1,-1ZM45,539v1h-1v-1ZM91,510v-1ZM1,486v1ZM1,488v-1ZM1,487v-1ZM2,493l-1,-1ZM4,464v1v-2ZM3,467v-1ZM6,462v1ZM6,501v1ZM5,514v1ZM4,516v-1ZM15,532h-1v-1ZM5,550v-1ZM42,482h-1v-1h1ZM41,503v1h-1v-2h1ZM42,484h1h-1v-1ZM40,483v1ZM34,548h-1v-2h1v1ZM32,544v-1ZM24,553v1l-1,-1ZM24,439h1v2l-1,-1ZM24,447v-1ZM45,518v-1ZM43,512v1ZM36,532h-1v-1ZM28,547v-1ZM21,507v1v-2ZM55,455v1ZM87,472v-1ZM84,491h-1v-1v1ZM70,464v1l-2,1l1,-1h1ZM69,463l-1,-1h1ZM64,461v-1l-1,-1ZM56,462v-1ZM56,457h-1v-1h1ZM55,469v-1ZM62,491h-1ZM61,492h-1l1,-1ZM54,430v-1ZM54,430v1ZM48,442v-1h1h-1ZM79,518v1h-1v-1h-1h1ZM64,522v1ZM60,528h-1v-1h1ZM48,556v-1ZM44,560l-1,1v-2h1ZM91,508v1v-1l1,-1ZM91,511v1v-2ZM59,487h-1v1v-1ZM57,490v1ZM44,542v-1l1,-1v1h-1ZM977,352h-1ZM447,534l-1,-1h1ZM431,543h-1v-1h1ZM651,566v-1ZM663,575v-1h1ZM651,568v-1h1v1ZM667,576h1v1h-1v-1h-2v-1l1,-1l1,1ZM753,513l1,1h-2ZM752,515v1ZM755,520l-1,1ZM745,505v1l-1,-1v-1h2v1ZM745,510v-1ZM731,582v1v-2h1ZM749,506v-1v1h1ZM731,587v-1ZM731,585h-1v-1v1ZM762,591v1v-1h-1ZM758,589l-1,-1v1ZM743,610v-1ZM721,566v-1ZM713,570h1h-2ZM712,570h-1ZM702,562v1v-1h-1ZM698,566v-1h-1v-1l1,1ZM295,601h2l1,1l3,2l1,1h1l1,1h1v1l2,2h1l1,1h1l2,1l2,2h1l1,1h1l1,1v2h-4v-1h-1l-1,-1h-1v-1h-2l-1,-1h-1l-1,-1h-1l-1,-1l-2,-1v-1h-1l-3,-3h-1v-1l-2,-2v-1l-1,-1v-1ZM323,619h-1ZM263,596l-1,-2h1v1ZM325,609h1v1l-1,1l-2,-2l1,-1ZM313,603h-1h1v-1ZM320,607h-1v-1h-2v-1l1,-1h-1v-1h2v2l1,1ZM416,559l-2,1v2h-1l-1,1v1l2,-2h1v2h-2l-1,1h-1l-1,-1h-1l-1,1v1h-3v-1h-2l1,-1v-1l1,1v-1h1l1,-1h1l1,-1h1l1,-1h2v-1l1,1ZM402,570l2,2h1v3l1,1h-2l-1,1h-1l-1,1h-2l-1,-1h-3v-1l-1,-1v-1h1v-2h1l2,-2h3v-1ZM416,566v-2h1v1ZM416,566h-1v-1l1,-1v1ZM405,584h-2l-1,1h-1h1v-1h1v-1l1,1ZM425,574l-1,1v-1ZM427,577h-1v-1h1ZM431,574h-1v-1v1ZM425,568l-1,1v-2ZM429,585h-1v-1h1h-1ZM418,583v1ZM393,568v-1h1v1ZM411,570v-1ZM411,576l-1,-1h1ZM407,573h-1v-1h1Z"/>
<path class="sl" d="M416,562v-1ZM390,528h-1ZM376,608h-1ZM428,598v-1ZM999,525v-1ZM992,492l-1,-2v-1h1v2ZM993,494v-1ZM990,487l-1,-1h1ZM991,496v-1ZM990,483v3l1,2v4l-1,1v-11ZM991,487v1v-2ZM962,309v1h1v1v-1h-1v-1l-1,-2v-1l-1,-1v-1l1,1v3Z"/>
<path class="sp" d="M960,304l1,1v3l1,1"/>
<path class="sl" d="M67,272v1ZM104,216v1l-1,-1v-1h1ZM99,227h-1v-1h1ZM97,229v-1h1ZM75,263v-1l1,-1l-1,1ZM41,309v1v-1v1ZM89,242h-1v-1h1ZM52,291v1ZM46,302l1,-1v-1v1ZM46,301v1v-1h1ZM38,317v2l-1,1l-1,3v1h-1v2l-1,1v1l-1,1v2h-1v2h-1v-1l1,-2v-1l1,-3v-1l1,-1l1,-2v-1l1,-1v-1h1v-1l1,-1v1v-2ZM52,293v-1v2h-1v-1ZM51,295v-1ZM51,295h-1h1v-1ZM888,689h-1v-1h1ZM677,62h2l1,1l-1,1h2v-1h-1v-1v1l1,-1l1,1v1l2,2h-2l-1,-1h-1h1h-1l-1,-1h-1l-2,-2h-1v-1l1,1ZM685,66l1,1h1h-1v1h2v1l1,1h2l1,1l-2,-1h-1v-1h-2l-2,-1l-1,-1l-2,-1h2ZM715,80l3,1l2,1h3v1h1l1,1h1l2,2h1l2,2h2l1,1h1v1h2l2,2h1l1,1h-1v1l-1,-1h-1l-2,-1h-1l-1,-1h-1l-1,-1v-1l-1,-1v1h1h-3l-1,-1h-1v-1v1h-1v-1h-1l-1,-1v1v-1h-2l1,-1h1h-3v-1h-3v-1h-1v-1v1l-1,-1h-2v-1h-1h1v-1h-3l-1,-1h2ZM590,8h-1ZM588,8h-1Z"/>
<path class="sp" d="M588,8h2M587,8h1"/>
<path class="sl" d="M628,17h3l1,1h2l1,1h3l1,1h3l1,1h2l1,1h1l1,1h3l1,1h2l1,1h2l1,1h1h-1v-1h-1l1,1h1h-1l-1,-1h-4v-1h-3l-1,-1h-1l-2,-1h-3l-1,-1h-2l-2,-1h-1l-1,-1h-1h1l1,1h3l1,1h1l-3,-1h-1l-1,-1h-4l-1,-1h-1l-3,-1h-1h1h-2v-1h-4v-1h-3l-1,-1h-1h2l1,1h3l1,1l-1,-1h-1h1l1,1h3Z"/>
<path class="sp" d="M629,17h2l1,1h2l1,1h3l1,1h3l1,1h2l1,1h1l1,1h3l1,1h2l1,1h2l1,1h2M622,15h1l1,1h3l1,1"/>
<path class="sl" d="M605,11h1l1,1l-1,-1l1,1h3l3,1h2l1,1h-1h3v1h1h-1h1h-1h1h-2l-2,-1h-2l-3,-1h-3v-1h-3v-1h-3v-1h-5v-1l1,1h4l1,1h2ZM683,61h-1ZM693,72l-1,-1h1ZM688,64h-2v-1h1ZM693,67h-1l-1,-1h-2l-1,-1h1l1,1h1ZM683,60v-1ZM699,69l2,1v1h-1v-1h-2l-1,-1h-1v-2h-1h1v1h2ZM725,87h1ZM732,87h-1l-1,-1h-1h1l1,1ZM722,85h-2v-1h1v1ZM726,84h-1l-1,-1v-1v1h1ZM699,71l-1,-1h-1v-1l1,1h1ZM708,76h-1v-1h-1h2ZM702,71v1v-1h-1l-1,-1h1ZM696,68h-2v-1v1h1ZM696,68h-1v-1h-1h1ZM739,92l-2,-1h2ZM738,91l-1,-1h-1ZM727,84h-1Z"/>
<path class="sp" d="M592,9v0"/>
<path class="sl" d="M670,30h-1l-1,-1h-1h2v1ZM663,28h1ZM672,31h1ZM663,28l-1,-1h1ZM589,13h1ZM10,399v1ZM9,404h1v-1ZM19,437v4h-1v-3ZM19,437h-1v6l-1,1v1v-4h-1h1v-2l1,-1v-1l1,-1ZM971,337l-1,-2l1,1ZM972,341l1,1l-1,-1v-1ZM143,547v1l-1,1l2,2l1,2v1l1,2v2l1,1v3l1,1v1l1,1v2h1l1,1v-1l1,-1h1v-1l4,4h1l1,1v2l1,1v2l1,2v1l1,2v2l1,1v1l1,1l1,2h1l1,1l2,5v4l1,1l1,2h1v3l2,2h1l1,1h2v1h2v-1v1h1l3,3h2l1,1h1l2,2h1v1h-1v1l5,5v1l2,2v2l2,4h1v1h1v-1l1,1v1v-1l-1,-1v-1l1,-1l1,1v1l2,1h1v-1l1,1l3,8l1,1h1v1h1l2,2h2l1,1l1,2l2,2h2v2l2,2h1l1,1v2l2,2h1v3l2,6v2l1,1l2,3l1,1v1l2,2v2l1,1v7l1,3v6l1,1v2l1,1v12l-1,1v1l-1,1l-1,2v5l1,1v1h-1h1v1l-1,1v2l1,2v11l1,2v2l1,1v1l1,2v1l1,1v1h-1v2l-1,1h-2l-4,1l-3,3l-1,4l-2,1h-1h1v1h1l1,1v1l-2,-2h-2l-1,-1h-1l-1,-1v-1l-1,-1h-1v1l-1,1l-1,-1h1v-2h-1l-1,-1l-1,2h-1h2v1h-1v1l-1,1v2h-1v1h-2l-1,-1h-1l-2,-1h-2l-2,-1h-1v1h-1l-1,-1l-2,-1h-3l-2,-2l-3,-2v-1h-1v-1l-1,-1v-2l-5,-5l-2,-1l-1,-1h-1h1v-1v1h1l-1,-1v-1h-1v1l-1,1v1h-2v-3l-2,-4l-4,-4v2l1,2l1,4h-2v1h-1l-1,-2l1,-1h1l-1,-1v-1l-1,-1v-1l-1,-1v-6h-1v-1l-1,-1v-1l-1,-3h-1l-1,-1l1,1v4l1,2v2h-1v1l-1,1v7h1l1,2l-1,-1l-1,1l-1,-1h-1v-1h-1v-1l1,1v-1l-2,-2v-1l-1,-1h-1l-2,-2l-1,-2h-1v-1h-2l-2,-1l-1,-2h1l-1,-1v-1l-2,-1l-1,-1h-3l-2,-1h-1l-1,1l-3,-2l-2,-1h-1l-1,1l-3,1l-2,1l-1,1h-1v2l-1,2l-3,3h-3l-1,1v3l-1,3l-1,1v1l1,3l1,1v4l-1,-1h-1v1l-1,1l-1,-1h-1l-2,2h-1v1h-1v2l1,2l-1,1v6h-1l-1,1h-1l-1,-1h-1l-2,-2h-1l-4,-4l-1,-2h1v-2l-1,-2l-3,-3v-1l-1,-2l-2,-3l-1,-2l-2,-2l-2,-3l-1,-1l-1,-2l-2,-2v-1l-2,-3l-1,-1v-1l-1,-2l-2,-2v-1l-3,-3l-3,-6l-1,-1l-5,-7l-1,-1v-1v1l2,2v-2h-1v-1h-1l-1,-2v-1l-1,-1l1,1h1v2l1,1v-1h-1h1l1,1v1v-2l-1,-1v-1l-2,-2l-2,-3l-1,-1l-1,-2v-1l-1,-1l-1,-2v-1l-1,-2v-1l-1,-3v-1l-1,-1v-1l-1,-1v-1l-1,-1v-3l-1,-3v-1l1,3v1l1,1v-2l-1,-3v-9l1,-4v-1h1v1v-1l1,-1v-2l1,-1v-1l1,-3h1v-1l2,-2l1,-2v-9l-1,-1v-1l1,-1v-3l-1,-1v-2l-1,-1v-1l-1,-1v-2l1,-1v-5l1,2l1,1v1l1,2l1,1v1h1h-1v-4h-1h1v-2h-1v-1l-1,-1v-3l1,1v-1h1v1l1,-1h1h-1l-1,-1v-1h1v-1l-1,-1v1v-1l-1,-1v-4h2v1v-1h-1v-3h1v1v-2h-1v-3l1,-1v-1v1v-1h1v1v-5l1,1v-1l1,1v-4h1v1h1l4,4l1,2v1l1,2v1h1h-1v-4h3l1,1v1v-2h1v1h1v-1h-1v-1h1v-1h-1v-1l-2,-2v-1l1,-2v-5h1v-2l-1,-1v-2l1,-1v-2h1l-1,-1v-1h1v1h1l-1,-1v-1h1v-2h1v-1v1l1,1h1v-1h2v-1h1v1v-2h1v-1h-1v-3l-1,-1h-2l-1,-1v-1h1v1l1,-1l2,2v-1h2v1l1,1h3l1,1h3v-1l2,2h1l2,-2v-1l1,-1v2l-1,1h1l1,-1v2l1,1h1v-2l-1,-1l1,-2l1,2h2v1l-1,4v4h-2l-1,1l1,3v2l1,1v2h-1v4h-1v1l1,1v1l2,1l4,4h1l1,1v1l1,-1l1,1h1l1,1h1l4,4h2l1,1h2v1h1v1l1,1h1l1,1l2,1h2l2,-2v-4l1,-5v-5l-1,-3v-7l-1,-3v-3l-2,-2v-3l1,-1v-1l-1,-3v-1l1,-1v-1h-1v-5h1v-1h-1l1,-3v-3l-1,-3h1l1,-1v-1h1v1l1,1v2l1,1v2l1,2v1h1Z"/>
<path class="sl" d="M229,655h-1v-2l-1,-1l1,-1l-1,-1l1,-1v-1l-1,-1v-1h1v2h1l-1,5l1,1ZM130,590l-1,1v1h-1v-2l1,-1h1ZM110,570h1v-1v4h1v1h-3v-5h1ZM77,559h1v1h-1l-1,1v-5l1,1v1ZM78,556l1,-1h1v-1l1,1h1v2h-1v1l-1,2l-2,-1l-1,-1v-2l-1,-1h1v1ZM62,700h1l-2,-2l-1,-2l1,2l1,1ZM178,747h2l1,1h-2v2l-1,-1h-1v1h-3v-2l2,-2h1ZM224,760h-1ZM224,761h1h-2ZM192,613h-1v-1h1ZM191,611v-1ZM212,638l1,1v1h-1l-1,-2v-1ZM205,628v-1ZM201,628v-1ZM235,668l1,3h-1v-2ZM235,667h-1v-1ZM136,537l-1,1v-2ZM135,533v-1ZM134,532v1v-1h1ZM171,598l1,1v1l-2,-2ZM106,549v1l-1,-1h1v-2ZM105,551l-1,1v-1l1,-1ZM116,586l-1,1v-1ZM114,585v-1ZM113,585l-1,1v-1ZM130,595v-1h1v1ZM108,570v1h-1v-2h1ZM86,553v-1l-1,-1h1v-1v2ZM62,590v1l-1,-1v-1ZM61,598v-1ZM49,655v-1ZM232,778h4v1h2l1,1l2,-1h1v-1h1v-1l1,1v-2h3l2,2v1h1v2l1,1v1l2,2v1v-1h-1v-1v3l1,1v1l1,1v1l1,2l-1,-1h-1v-1l1,1v-1h-2v1l-1,-1v-1v2h1h-1l1,1v1l-1,-1v1l1,1v2h-1l-1,-1h-2v1l-1,-1v-1h1h-3l-1,-1v-1h-1l-3,-3l-1,-2l2,2v-1h-1l-1,-1v-1v1l-4,-4l-2,-1v-1l-2,-2l-1,-2v-1l1,1ZM224,774l-1,-1v-1l-1,-1v-1h1l1,1v2ZM242,768l2,1v1h1v2h-1v-1l-1,-1h-1v-1h-1h1ZM253,795v1l-1,-1h1h-1h1l-1,-1h1ZM254,789h-1v-1ZM253,794l-1,-1v-1v1ZM230,776v1l-1,-1ZM246,772h1v1h-2v-1ZM246,774v-1ZM350,862l-1,-2h1v1ZM11,582v1v-2ZM335,672v1ZM699,958v1v-1h1h-1v1h-2v1h-2l-1,1h-1l-1,1h-1h1h-1h1h-1l1,-1h1h-1l-1,1h-2v1v-1h2l1,-1h1h-1l-1,1h-2l-1,1h1v-1h1h-1l-1,1h-2l-1,1h-2l-1,1h-2v1h-3v1h-1l-1,1h-1h1l1,-1l-1,1l1,-1h-1v1h-2l-1,1h-1l-1,1h-3l-1,1h-2l-1,1h-1l-1,1h-3v1h-3l-1,1h-1l-1,1h-3l-1,1h-2l-1,1h-3l-1,1h-2l-1,1h-1l1,-1h-1v1h-3l-1,1h-3l-1,1h-4v1h-1v-1h1h-1l-1,1h-10l1,-1h1h-1l2,-1h-1h1h-4l-2,1h-1v1h-2v1h-5l1,-1h1l1,-1h1h-1l-4,2h-4v-1h2l1,-1h2l1,-1h1h-2v1h-3l-2,1h-1l-1,1h-3l-1,1h1l1,-1v1h-1v1h-7v1h1h-4l-1,1h-3l1,1l1,-1v1h1h-4v1h-2l-3,1h-2l-1,1v-1h1h-5l-1,1h-4l-2,1h-1h4v1h-2l-1,1h-1h3l-1,1h-3l-1,1h-6v1h-1h1l1,-1l9,-1h5l2,-1h6l2,-1h1l-1,1h-7l-1,1h-6l-1,1h-9l-1,1h-9l-1,1h-16l-1,1h-44l-1,-1h-16l-1,-1h-9l-1,-1h-9l-1,-1h-7l-1,-1h-6l-1,-1h-5l-1,-1h-5l-1,-1h-4l-1,-1h-5l-1,-1h-3l-1,-1h-4l-1,-1h-4l-1,-1h-3l-1,-1h-3l-1,-1h-1h1h-3l-1,-1h-2l-2,-1h-2l-1,-1h-3l-1,-1h-3l-1,-1h-1l-2,-1h-3l-1,-1h-2l-1,-1h-2l-1,-1h-2l-1,-1h-2l-1,-1h-2l-2,-1l-1,-1h-2l-2,-1h-1l-1,-1h-2l-1,-1h-2l-3,-1l-1,-1l-2,-1h-1l-1,-1l-2,-1h-2l-1,-1h-1v-1h-2v-1h-1l-2,-1v-1h-1l-1,-1h-1l-1,-1v-1h-1l-1,-1h1l-1,-1h1l-2,-1h1l1,1v-1h-1l-1,-1v-1l-3,-1h-1v-2h10l-2,-2h-2l-1,-2h-1v-2h2l1,1l3,1h4l2,2v1l1,1h1v-1l-1,-1h1l-1,-1h2v-1h1v-1h1v2h1l1,-1l-1,-1l1,-1l-1,-1v-1h1l-1,-1h2v-1h-1v-1h3l4,2h4v-1l-4,-2v-2h3v-1h1l1,-1h1v1h2l1,1v-2h22v-1h1l1,1h1v-1h1v1h1l1,1v1l1,1h1v-1l1,-1h1l2,1h2l1,1h1v1h7l1,-1h3l1,1h7v-1l-1,-1h1l2,1h2l1,1h6l2,1v-1h3l2,1h2l1,1h1l1,1h2l1,1l3,2h2l1,1v-1l-2,-1l-1,-1h3l1,1h2l1,-1h8l1,1h1l1,1h3l3,1h2l1,1h1l-1,1h-1l1,2l1,-1v1h-2l1,1h1v1l-1,1l-1,-1h-1v1h-3l-1,-1h-1l2,1h2v1h-3v1h1v1h-2l-1,-1v-1h-1v1l2,1l1,1l2,1h-2l-1,1l-1,-1h-1l1,1h-1v1l2,1h-2l-1,1h4v1h2v1h1l1,1v1h1v1h3l2,2h2l1,1v1h1l1,-1l1,1h3l1,1h-1l-1,-1l-3,1h-1v1l-2,-1h-1l1,1h1h-1v1h1v1h1l-1,1h2l-1,1v1l1,-1h2l1,1h1h-1l1,1h1l1,1h3l1,1h3l-1,1h5l1,1h3v1h-1h7v1h7v1h10l1,1h5l2,1h1v-1h-1l-4,-1h-1h1v-2h-4v-1h-3l-3,-1h4l1,1h5v1l1,-1h1l1,1h2l2,-1h3l1,-1h2l1,-1l-1,-1h2v-1h-1l-2,-1h13l-1,-1h-1v-1h1v-1h1l1,1v-1h2v-1h-3v-1h-1v-1h-5l-1,-1v-1h4v-1h-5l-1,-1v-1h1v-1h9v1h3l1,1h1v1l1,-1h3v-1h-1h1l1,-1v1h2v1h2v-1h1h-1h1v-1h1l-2,-2h-2v-1h2l1,1h1l1,1h1l-1,-1v-1h5l2,-1h3l1,1h1v-1h4l1,-1h4v1h2l1,-1h4l1,1h6l1,1l1,-1l1,1l2,-1l2,1h4v1h4l4,1v-1h4l1,1h4l2,-1h1v1h-2v1h-2l-2,1h-1h6l1,-1h2v1h-1l-1,1h-5v1h2l1,1h1v1h5l1,1h-1l-1,1h4v-1h1v-1h3v-1h-1h2l1,-1h1v-1l1,-1h1l1,1h-1h4v-1h-1v-1h-1h1l2,-1v-1h2v1h-2v1h2l2,1h-1v2h2l1,1v1h2l1,-1h2v1h-2l-1,1h-1v1h1h-1l-3,3h2l1,-1h2l1,-1h1v1h-1l-1,1h-2l-1,1h1h-2l-1,1h1v1h8l2,-1l1,-1h2l2,-1h2l2,-1h1l4,-2h1l4,-2h3v-1h1l-1,1h1v-1h2l1,-1h2l1,-1h2l2,-1h1l1,-1h2v-1h2l1,-1h1l-2,1h-1h1h-1h2v-1h2v-1h1l-1,1l1,-1h2l1,-1h1h-1h2v-1h2Z"/>
<path class="sp" d="M575,994l-1,1h-7l-1,1h-6l-1,1h-9l-1,1h-9l-1,1h-16l-1,1h-44l-1,-1h-16l-1,-1h-9l-1,-1h-9l-1,-1h-7l-1,-1h-6l-1,-1h-5l-1,-1h-5l-1,-1h-4l-1,-1h-5l-1,-1h-3l-1,-1h-4l-1,-1h-4l-1,-1h-3l-1,-1h-3l-1,-1h-1M700,958v0"/>
<path class="sl" d="M580,993h-3l-1,1h-7l1,-1h2v-1h13l1,-1h3l-1,1h-4l-1,1h-2ZM579,991h-2l1,-1h3l1,-1h1h-2l-1,1h2v1h-2ZM675,966h-1l-2,1l-1,1h-2l-4,2h-2l-1,1h-2l-1,1h-2l-3,1l-1,1h-3l-2,1h-1l1,-1h1v-1h1v1h1v-1h-1h3l1,-1h1l1,-1l-2,1l1,-1l-1,1h-1v-1h2l1,-1h2l-1,1l1,-1h1l-1,1h1v-1h2v1h-1h1l1,-1h1l1,-1h3v-1h1h1v-1h2l1,-1h2l1,-1h2l1,-1v1h-1ZM647,961h1h-2v1h1l1,-1h1l-1,1h-2h2l-1,1h-3v1v-1h-2v-2h1l-1,-1v-1h1l3,1h-1h3ZM606,958v1h-1l-2,1h-4v-1h1l1,-1h1h-1l1,-1h1v1h2ZM599,955v2h-1h2v1h-1v1h-3v-3h-1h1v-1h2ZM517,971h-5l-2,-1h-1v-2h5l1,1h1v1h1ZM457,964l1,1l2,-1l1,1h1h-3v1h-2l-1,-1v-1ZM558,996h1h-1l-1,1h-1l1,-1h3ZM564,996l4,-1h-2l-1,1ZM588,988l1,-1h4l1,-1h2l3,1h-9v1h-1ZM687,962h-1h2v-1h2l1,-1h3v-1v1h-2l-1,1h-2v1h-1ZM665,968h-1v1h-2l-1,-1h4v-1h1l-1,1h-1h2ZM673,965h-1l-1,1h-1v-1h2ZM645,974h-2v1h-3l3,-1h2v-1v1h1v-1h1l-1,1ZM642,967h1l1,-1h2v-1h1v1h-2v1h-2ZM461,967h-1l-1,1v-1h-1h2v-1v1ZM294,949h-1l-1,-1h1ZM584,989h3l1,-1h1h-1v1h-3ZM589,988h1ZM665,971h2l2,-1h1h-2l-1,1h-1ZM672,966h1l1,-1v1ZM644,964h1ZM632,962h-1l1,-1h1ZM605,960v-1h3l-1,1h-1ZM590,959h-1l1,-1l1,1ZM508,980h-1v-1h1l1,1ZM512,976l-3,-1h-1h3ZM442,956v1v-1h-1ZM443,959v1ZM451,951h-1v-1ZM418,927h-1v-1h1ZM411,924v1v-1h-1ZM408,923h-1l-1,-1l1,1ZM297,953h1ZM300,953h1ZM293,947h-1v-1h-1h1ZM297,954h-1ZM310,962h1h-1l-1,-1ZM308,961h1ZM366,982h1ZM369,983h1Z"/>
<path class="sp" d="M371,983h-2"/>
<path class="sl" d="M353,978h1h-2Z"/>
<path class="sp" d="M354,978h-2"/>
<path class="sl" d="M561,996h-1ZM662,972h1ZM671,969v1v-1h1ZM656,974h1ZM653,975h1ZM700,958h-1l1,-1Z"/>
<path class="sp" d="M700,957v1"/>
<path class="sl" d="M696,959l1,-1v1ZM692,961v-1h1h-1ZM685,963h1ZM667,968l-1,1ZM642,975h2v-1v1h-1ZM643,966l-1,-1h1ZM609,961h-1v-1h3l-1,1ZM582,957l-1,1v-1ZM583,958h-1v-1h2v1ZM544,962h-1ZM551,959h-1l1,-1v1h1ZM545,963h-1ZM541,963h-1ZM540,962h1v1ZM539,964h-1ZM538,962h1ZM547,961h-1v-1h1ZM545,962h-1ZM536,964h-1h2ZM524,972h-2v-1l1,1ZM539,963h-1ZM514,977l-1,-1h1ZM406,493v-1Z"/>
<path class="sh" d="M501,583h-2l1,-1Z"/>
<path class="sw" d="M803,103l1,1l-1,-1l1,1l-1,-1h-1v-1h-1l-1,-1v-1h-1h1v1l-1,-1l-2,-1v-1h-1h1v1l-3,-3h-1h1h-1v-1h-1l1,1h1h-1l-1,-1h-1v-1h-1l-2,-2l-2,-1h-1v-1h-1v-1h-2v-1h-1v-1h-1v-1h-1h1l1,1h-1v-1h-1l-2,-2v1h1l1,1h1h-1h1h-1h1l2,2h1l3,3h1l2,2l2,1l1,1h1v1h1v1h1l1,1h1v1h1l1,1h1v1h1v1h1ZM791,94h-1l-1,-1l1,1ZM800,101h1v1ZM700,43l1,1l-1,-1h-2v-1h-1l1,1h-1h2v1h1v1h1h-1v1h1h-4l-1,-1h-2l-1,-1h-2v-1h-1l2,1h1h-1h1v-1h-1h1v-1h-2l-1,-1h-2v-1h-3v-1l1,1h2l1,1h2l1,1h1l1,1h2v-1h-1h3l1,1ZM699,44h-1h1h-1h1v1h1v-1ZM658,28h1l1,1h2v1h-1v-1h-2l1,1h1h-2v-1h-2v1l-2,-1h-3v-1v1l1,-1h-1v-1h-1h1h-2l-1,-1h-5v-1v1h-1l-1,-1h8l1,1h1h-1h1h-1h1v1h3l1,1h1v-1h-1h1v1ZM989,397v1l-1,-1v-3l-1,-1v-3l-1,-1v-1v1h1v3l1,1v3ZM782,89h1h-1v-1v1v-1h-2v-1h-2v-1l-1,-1h-1v-1h-1h1h-1l-1,-1h1v1h1v1h1h-1v-1v1h2v1h1v1h1v1h2ZM820,143v2l-2,-2v1v-1h-1v-1h-1v-1h-1v-1h-1v-1h-1h1l1,1h1v1h1v1v-1h-1v-1l1,1h1h-1l2,2ZM820,144l-1,-1h-1h1v1ZM838,131h-1v-1v1v-1h-1v-1h-1l-2,-2l-2,-1v-1l5,5h1ZM836,129h-1Z"/>
<path class="sr" d="M831,125l5,5h1l1,1"/>
<path class="sw" d="M931,266v2l1,2l1,3l1,1l1,3l-1,-1v-2l-1,-1v-2h-1v-2h-1v-2h-1v-1h1h-1v-1v1ZM742,63v1h1l1,1h1v1v-1h-2v-1h-2v-1h-1v-1v1v-1v1h1ZM724,56h-1v1h1h-1h1h-1l-1,-1h-1h1l-2,-2h1l1,1h2v1h2l1,1h2v1l-1,-1h-1l-1,-1h-1h1v1v-1h-1ZM816,113h1h-1l-1,-1h-1h1l1,1h1v1h1v1l-1,-1h-1v-1h-1v-1h-1v-1h-1h1h-1l-1,-1h1v1v-1h-1l-1,-1l1,1h1v1h1v1h1ZM816,113l1,1v-1ZM747,66l1,1h1v1h2v1v-1v1h1v1h2v1h1h-1l1,1v-1h-2v-1h-1l-1,-1l2,2v-1h-1v-1h-2v-1h-1l-1,-1h-1v-1h-1v-1h-1h1h-1h1v1ZM569,34h-2v1h-6v-1h7ZM564,40h-3l-1,-1h2ZM797,148v1v-1h-1v-1h1ZM709,46l-1,-1v1v-1v1v-1v1v-1l1,1h1l1,1h1l1,1h1h-1v-1h-1l1,1h-1v-1h-1l-1,-1ZM839,189v1l-2,-2v-1v1ZM679,37h-2l-1,-1h-1h2v1h1ZM873,833v-1h1v-1h1h-1v1ZM103,208v1h-1v1h-1v1v-1v1v-1h1v-1h-1v1v-1h1v-1v1h1h-1v-1h1v-1h1v-1l1,-1v1l-2,2v1ZM203,119l-3,3h-1l-1,1v-1h1v-1h1v-1l2,-2h1ZM13,388v-2l1,-1v-2v3l-1,1ZM739,64h2v1h-1h1h-1v-1h-1h1h-1v-1ZM714,48h-1v-1v1h2v1v-1ZM728,56h1h-1v-1h-1h1v1h1l1,1h2v1v-1v1l-2,-2h-1ZM925,238v1l-1,-1ZM184,114l1,-1h1v-1l2,-1l1,-1h-1v1l-1,1h-1l-1,1ZM99,221l-1,1h-1v-1l2,-2v-1h1v1h-1v1l-1,1l1,-1ZM561,40v1h-1v-1ZM535,15h-1ZM702,48h1v1l-1,-1h-1ZM817,886h-1v1h-1h1l1,-1v-1v1l1,-1v-1h1l-1,1v1ZM725,55h-1h1h-1v-1h-1h1v1v-1h-1h1v1ZM412,13h-1ZM81,239v1v-1v1l-1,1v1v-3h1v-1l1,-1v-1h1v-1v1h-1v2h-1v1h1ZM85,233l-1,1v-1ZM84,233v1h-1v1v-1h1ZM81,234h1v-1v1l-1,1v-1v1ZM405,747h-1v1h-1l1,-1l-1,-1h2ZM809,125v1l-1,-1h-1v-1l1,1ZM548,9h-3v-1h1ZM777,103l-1,-1h1v1l1,1v-1ZM837,174l-2,-2h-1v-1v1h-1l-1,-1v1l-1,-1h1v-1l-1,-1h1v2l1,1h1v-1v1h1l1,1ZM721,56l1,1h1h-2v-1h-2v-1v1h1ZM975,354l1,1v1h-1v-1ZM399,12h-1h1v-1h1ZM103,210v1h-1l1,-1v-1h1v-1v1h-1h1v-1l1,-1v1h-1v1ZM528,31h-2v-1v1v-1l1,1ZM817,138l1,1h-1v-1h-1v-1h1ZM824,148v1v-1l-1,-1h1ZM635,23h-1h2ZM829,124l1,1h-1v-1v1v-1h-1h1h-1ZM878,827h1v-1v1ZM685,44h-1v-1h-1h1ZM820,883h1v-1h1v-1h1h-1v1l-1,1h-1v1ZM85,233v-1ZM179,119v-1h1v-1h1l-1,1h-1ZM379,784v1l-1,-1v-1ZM389,13h-1ZM412,12h-1ZM412,13h1ZM96,220v-1h1v1ZM78,237v2h-1l1,-1ZM94,221v-1v1h-1v1v-2h1l-1,1h1v-1ZM783,130v1l-1,-1v-1v1ZM796,143h-1l-1,-1v-1l1,1v1ZM82,233v1v-1h1ZM84,231v-1v1h-1ZM107,200l-1,1v-1h1v-1Z"/>
<path class="sw" d="M82,233v-1v1l1,-1v1ZM80,236v1v-2h1h-1ZM79,237v-1h1v1ZM640,22v-1h-1h1v1h1h-1h1ZM633,22h-1l-1,-1h-1h2v1ZM634,22h1v1ZM665,31h-2v-1l1,1h2v1h1h-1ZM806,104v1v-1h-1l-1,-1l1,1ZM787,90h-2v-1h-1h1v1h1ZM760,76h-1h1h-1v-1h-1h1ZM836,130v1h1h-1v-1h-1ZM779,85l1,1h1v1v-1h-1ZM784,124h-2v-1h1ZM772,80v1h1h-1ZM516,18h-1ZM526,28v1h-1v-1ZM531,30l-1,-1h1ZM549,35h-1v-1ZM551,33h-4v-1h3v1ZM546,32h1v-1v1h1h-1ZM549,34h1h-3v-1l1,1ZM823,119v-1h-1h1v1v-1h-1v-1h-1l-1,-1h-1h2v1h1v1h1v1h1v1v-1ZM705,60v-1h-1v1l-1,-1h-1v1h1l1,1h2v1h1l1,1l-1,-1h-1l-1,-1h-1v-1h-2l-1,-1h-2l-1,-1h1l1,1l-1,-1h-1l-1,-1l-3,-1h2l1,1h1v1h2v1h5l1,1h1h-1ZM768,78h-1v-1v1ZM802,111h-1v-1h-1v-1v1h-2l1,1l-1,-1h-1v-1v1h1v-1v1v-1l1,1h1h-1h1v-1h-1h1v1h1ZM812,115h-1v-1h-1v-1h-1v-1h-1l-1,-1h-2v-1l1,1h1l1,1h1v1h1h-1h1l2,2h2v1h-1v-1ZM655,42v-1h-2l-1,-1h-1l-1,-1h-2l-1,-1h1l1,1h1l1,1h2v1h2ZM757,93h-1v-1h-1l-1,-1v-1l1,1v1h1v1ZM769,100h-1h1v1h-1v-2h-1h1v1ZM756,99v-1h-1l-1,-1h-1l-1,-1h1l2,2h1ZM732,58h-1v1h1h-1v-1h1v1ZM592,28h-1v-1v1ZM823,119l1,1h-1v-1h-1ZM822,118l1,1h-1ZM906,231h-1v-1v1h1v-1ZM932,300h1h-1v-1h-2v-1h2ZM986,386v1v-1h-1v-1ZM80,599h-1v1h1v1h-1v1l1,1v1h-1v-1h-1v-5h1l-1,1h1ZM803,104h1h-1l-1,-1h-1v-1l-2,-1h-1v-1h-1v-1h-1h1v1v-1h-1v-1h-1l-1,-1h-1v-1h-1l1,1v-1h-1l-1,-1h1v1h1h-1h1l1,1l-1,-1l2,2h1v1h1v1h1l2,2h1l1,1ZM792,96l-1,-1h-1l-1,-1l1,1h1l-1,-1l-2,-1h-1v-1h-1l-3,-3v1l1,1h1h-1v-1h-1l-1,-1h-1h1l1,1l-1,-1h-1v-1h-1h1h-1h1l1,1h1l1,1l2,1v1h1l2,2h1v1h1v1ZM742,67l-1,-1h-1v-1v1h2l1,1h1v1h1v1h1l1,1h-1l-1,-1h-1l-1,-1h1l1,1h1v1v-1h-1v-1h-2v-1ZM840,866v1v-1h1h-1l-1,1l2,-2v1v-1h1h-1v1ZM837,174l-2,-2h-1v-1v1h-1l-1,-1v1l-1,-1h1v-1l-1,-1h1v2l1,1h1v-1v1h1l1,1ZM840,164l1,1v3h1h-1v1h-1v-1h1h-1h1v-1l-1,-1h1v-1h-1ZM755,70l1,1h1l1,1h1h-1l1,1l-1,-1v1h1h-1v-1h-1v-1v1v-1v1h1h-1v-1h-1l-1,-1h-1v-1v1v-1v1ZM378,787v1l-1,-1v-1ZM377,789h-1v-2h-1v-1l1,1v-1v2ZM802,111h-1v-1h-1v-1v1h-2l1,1l-1,-1h-1v-1v1h1v-1v1v-1l1,1h1h-1h1v-1h-1h1v1h1ZM831,131h1v1h1v1h1v1l-2,-2h-1v-1l1,1v-1h-1v-1h-1v-1h-1v-1h-1l-4,-4h-1v-1l-1,-1h-1v-1h-1h1v1h1l4,4h1v1h1v1h1v1h1v1h1ZM655,42v-1h-2l-1,-1h-1l-1,-1h-2l-1,-1h1l1,1h1l1,1h2v1h2Z"/>
<path class="sw" d="M757,93h-1v-1h-1l-1,-1v-1l1,1v1h1v1ZM693,40v-1v1l-1,-1h-1l-1,-1l1,1h2ZM693,39v1h3v1l-1,-1h-2ZM843,141v1h1l2,2h-1v-1h-1v-1l-1,-1h-1v-1h-1v-1h-1v-1h-1h1v1h1v1l1,1ZM921,254h1v1l-1,-1v-1l-1,-1v-1v1h1v1ZM752,73l-1,-1h-1v-1h-1l1,1v-1h-1l-1,-1l1,1h1v1h1ZM725,54v1v-1h-1l-1,-1h-1l-1,-1v1h1h-1v-1h-1h1l1,1h1h-1h1l1,1ZM897,196l1,1v1l1,1v-1v1v-1h-1v-1l-3,-3v-1v1ZM740,79h1h-1l-1,-1h-2l-1,-1l-2,-1h1l1,1l2,1h1ZM840,182h-1h1l1,1v1h1h-1v-1ZM779,135l1,1h-1v-1v1ZM672,32h-2v-1v1h1h-1h3v1h3v1h1h-1v-1h-3ZM773,125l2,2v1v-1h-1v-1h-1ZM782,124h1v1ZM876,829v1ZM272,72h-1v1h-1v-1h1ZM442,20h1v1h-2v-1ZM170,175v-1h1v1l-1,1l-2,1v1v-1l1,-1v-1ZM629,33v1h1h-1l-1,-1h-1h1ZM565,37h-1l1,1h-1v-1h-1h1ZM530,29h-1ZM566,32h1l-1,1h-1ZM580,33h2v1l-1,-1ZM526,27h-1ZM526,24h-1ZM907,209v1l1,1v1h1l-2,-2ZM688,38h1h-1v-1ZM687,37h-1h2v1v-1ZM687,37h-1ZM773,82v-1v1v-1l1,1ZM768,80l-1,-1l1,1h1v1v-1ZM763,79l-1,-1h-1h2v1h1v1v-1ZM681,36v-1h-1h1ZM750,71l-1,-1h1ZM712,47l1,1h-1v-1h-1ZM720,51h-2v-1v1h1ZM738,62v-1v1h1ZM78,669h-1v-1l-1,-1v-2h1v2l1,1ZM94,653h-1v-2l1,-1v-2h1v2h1v3h-1ZM157,723v-2l-1,-1v-1l-1,-1h-1v-1h-1v-1h-1v-1h-1v-1l-1,-1l1,1h3v1l2,2l2,4v1h-1ZM163,716l1,1v1h-1v-2l-1,-3h-1l-1,-1v-1l-1,-2v-1h-2v-1l-2,-2h1l1,1h1l4,4v1l2,2ZM90,719v-1h-1v-2h-1v1l2,2h-1l-1,-2v1l-1,-2v-1h1v-1h1h-1v2l2,2ZM171,708v2l-1,-1h-1l-1,-1v-5h1v1l1,1v2ZM154,698v1h-2v-2l1,-1h1ZM155,696l-1,-1h-3v1h-1v-1l-1,-1v-1l-1,-2v-1l-1,-1v-1h-1v-2l2,1l1,1h2v1l1,1h-1l1,1v1l1,2l1,1h1Z"/>
<path class="sb" d="M992,414h1v1l-1,-1v1h1v6l1,1v4M990,401v1v-1l-1,-1v-2l-1,-1v-1v1M982,368v-1v1v-1v4l1,1v2l-1,-2v1l1,1l-1,-1v1l1,2v3M976,355v2l1,1v1h-1h1v4l1,1M975,352h-1v-2l-1,-3l-1,-2v-3l-1,-1l-1,-3v-2M978,369v-4l-1,-1h1v2l1,1v1l1,1v1v-1v1h1v3l1,1v1M969,332v1l1,2v1l-1,-1l1,1h-1l-1,-1v-1h-1l1,2v1l1,2l-1,-1l1,1v2l1,1v1l1,1v2h1v3l-2,-2v1l1,2v3l1,2v2l1,1v1M929,262l-1,-1h-1v-1h-1l-1,-1v-1h-1v-1l-2,-2l-1,-2v-1l-1,-1h-1v-2h-1v-2h-1l-1,-1l-1,-2l-1,-1v-1l-1,-1h-1v-2l-2,-2l-1,-2l-3,-3v-1l-2,-2h-1v-1h-2v-1v1h-1l1,1v1l1,1v1h-1l-6,-6l-1,-2l-2,-2l-1,-2l-1,-1v-1h-1l-9,-9h-1v-1h-3v-1h-2l1,1v1l1,1h-1l-2,-1h-2l-2,-1h-1l-1,-1h-2l-2,-1l-2,-2l-15,-9l-1,-1h-1l-2,-1h-7M828,123v-1h-1l-3,-3h-1v-1h-1v-1h-1h1v1v-1h-1l-1,-1h-1v-1h-1l-3,-3h-1h1l1,2v-1h-1l-1,-1h-1v-1h-2l-2,-2h-2l-1,-1h-2l-1,-1h-1v-1h-2l-1,-1h-2l-2,-1h-2l-1,-1h-1l-1,-1h-2l-2,-1h-2l-1,-1h-3l-1,-1h-3l-1,-1h-3l-1,-1h-3l-1,-1h-3l-1,-1h-3l-2,-1h-3l-2,-1h-3l-1,-1h-5l-2,-1h-2M584,12l2,2h1l2,1h1l1,1h1l2,2h1l1,1l2,1h1l3,3h1l2,2l2,1h1l4,4h1l4,4l2,1l1,1h3l1,1v-1h3v1h1l1,1h2l1,1h1l1,1h2l1,1h1v1l1,-1h2l-1,-1h2v-1l1,1h2v1h1l1,1h2v1h3v1h2l1,1h1l1,1h1l1,1h1l1,1h1l1,1h1l1,1h1v1h1l1,1h2v1h3v1h3v1h3v1h1M879,827h-1l-1,1v1h-1v1h-1v1l-7,7v1h-1v1h-1v1h-1v1h-1v1l-2,1v1l-9,9v1h-1l-1,1v-1h1l-1,1h-1v1l-3,3h-1v1l-2,2h-1v1h-1v1h-1l-1,1v1h-1l-4,4h-1v1h-1v1h-1v1h-1l-4,4h-1v1h-1v1h-2v1h-1l-1,1v1h-1l-3,3h-1v1h-1v1h-1h1h-1l-1,1v1h-1l-1,1h-1v1h-1l-3,3h-1v1h-1v1h-1l-1,1v1h-1l-1,1h-1M998,544v-6h1v-1l-1,1v-1h1v-9M20,365l1,-1v-3l1,-1v-4h1v-3l1,-1v-4h1v-4h1v-3l1,-1v-3h1v-3h1v-3h1v-3l1,-1v-1l1,-1v-2h1v-2l1,-1v-1v1M17,371v2l1,-1v-3l1,-1v-1v1v-1h1v-1v1l-1,1v3l-1,1v3l-1,2v3l-1,1v3l-1,1v2l-1,1v1l-1,2v2l-1,1v5h-1v-1h1h-1v3l-1,1v3M26,340v2l-1,1v3l-1,1v2l-1,1v2l-1,2v2h-1v4l-1,1v2l-1,1v2l-1,2v2l-1,1v1v-1v1l-1,1v3l-1,1v3l-1,1M13,385v4h-1v4l-1,3M39,309v-1v1v-1v1v-3l1,-1v-1h1v-2l1,-1v-2l1,-1h-1v2l-1,1v2h-1v1v-1M151,157v-1h1l2,-2h1v-1h1l2,-2h1v-1h1l2,-2h1v-1h1v-1h1v-1h1v-1h1v1h2v-1h1v-1h1v-1l1,-1h2v-1h1l1,-1h1v-1h1v-1v1l4,-4h1l-1,1v1M146,169h1v-1l3,-3h1l1,-1h2v-1l1,-1h1M191,108l-1,1l-2,1l-3,3h-1v1h-1l-3,3h-1v1h-1l-1,1h1l1,-1v1h-1l1,-1h1v-1h2v-1v1h-1h1h-1v1l-1,1v1h-1l-3,3h-1h1h-2v1h-1l-2,2h-1v1h-1l-3,3h-1v1h-1v1h-1l-1,1h-1v1h-1v1h-1v1h-1l-3,3h-1h1h-1v1h-1l-4,4v1h-1l-9,9v1h-1l-2,2v1h-1"/>
<path class="sb" d="M182,137v-1h1v-2h2l5,-5v-1l2,-1v-1l3,-3v-1h2v-1h1l1,-1h1v-1h4l3,-3h1v-1h1v-1h1l2,-2h1v-1h1l1,-1v-1h1l2,-2h1v-1h1v-1h2v-1h1v-1h1v-1h1v-1h1h-3l-2,2h-2l-1,1h-1l-2,2h-3v1h-1v-1h1v-1h1l1,-1v-1h1v-1l1,-1h-1l1,-1v-1v1h-1v-1h-1l-1,1v-1h1v-1l1,-1h1v-1h1v-1h1v-1h1v-1h1v-1h1v-1h1l3,-3h1v-1h1v-1h1v-1h1h-1l1,-1h-1v1h-1h1h-1v-1h1h-1h1h-1l-1,1h-2l-2,2h-1l-2,1l-1,1l-2,1l-2,2h-1v1l-1,1h-2l-3,3l-2,1l-2,2h-1v1h-1v1h-2v1h-1l-2,2h-1l-1,1l-2,1l-1,2v-1l-1,1l1,-1v-1v1h-1v1h-1l1,-1h1h-2l-4,4h-1v1h-1v1h-1v1h-1"/>
<circle class="w4" cx="500" cy="582" r="21"/>
<circle class="w4" cx="500" cy="582" r="19"/>
<circle class="c4" cx="500" cy="582" r="20"/>
<path class="sg" d="M 260.5337 938.1290 A 249.7500 41.3354, 0, 1 1, 738.4663 938.1290"/>
<path class="sg" d="M 68.9557 752.7427 A 432.5797 71.5951, 0, 1 1, 930.0443 752.7427"/>
<path class="sg" d="M 0.0000 499.5000 A 499.5000 82.6708, 0, 1 1, 999.0000 499.5000"/>
<path class="sg" d="M 68.9557 246.2573 A 432.5797 71.5951, 0, 0 1, 930.0443 246.2573"/>
<path class="sg" d="M 260.5337 60.8710 A 249.7500 41.3354, 0, 0 1, 738.4663 60.8710"/>
<path class="sg" d="M 484.7309 0.2184 A 86.6697 499.5000, -181.69435441, 0 0, 514.2691 998.7816"/>
<path class="sg" d="M 529.3188 0.8908 A 167.4053 499.5000, -176.57756630, 0 1, 469.6812 998.1092"/>
<path class="sg" d="M 595.7223 9.3556 A 376.6242 499.5000, -168.89327118, 0 1, 403.2777 989.6444"/>
<path class="sg" d="M 838.8850 133.0057 A 484.9269 499.5000, -137.19936176, 0 1, 160.1150 865.9943"/>
<path class="sg" d="M 291.4908 45.3718 A 463.2939 499.5000, -204.60970695, 0 0, 707.5092 953.6282"/>
<path class="sg" d="M 430.4712 4.7927 A 317.5217 499.5000, -187.94345882, 0 0, 568.5288 994.2073"/>
<text x="0" y="0" class="fs" transform="translate(663,297) rotate(84)">150W</text>
<text x="0" y="0" class="ft" transform="translate(663,297) rotate(84)">150W</text>
<text x="0" y="0" class="fs" transform="translate(868,321) rotate(78)">120W</text>
<text x="0" y="0" class="ft" transform="translate(868,321) rotate(78)">120W</text>
<text x="0" y="0" class="fs" transform="translate(46,345) rotate(102)">120E</text>
<text x="0" y="0" class="ft" transform="translate(46,345) rotate(102)">120E</text>
<text x="0" y="0" class="fs" transform="translate(189,311) rotate(99)">150E</text>
<text x="0" y="0" class="ft" transform="translate(189,311) rotate(99)">150E</text>
<text x="0" y="0" class="fs" transform="translate(415,293) rotate(92)">180W</text>
<text x="0" y="0" class="ft" transform="translate(415,293) rotate(92)">180W</text>
<text x="0" y="0" class="fs" transform="translate(455,883) rotate(-2)">60S</text>
<text x="0" y="0" class="ft" transform="translate(455,883) rotate(-2)">60S</text>
<text x="0" y="0" class="fs" transform="translate(423,671) rotate(-1)">30S</text>
<text x="0" y="0" class="ft" transform="translate(423,671) rotate(-1)">30S</text>
<text x="0" y="0" class="fs" transform="translate(412,414) rotate(-1)">0N</text>
<text x="0" y="0" class="ft" transform="translate(412,414) rotate(-1)">0N</text>
<text x="0" y="0" class="fs" transform="translate(424,179) rotate(0)">30N</text>
<text x="0" y="0" class="ft" transform="translate(424,179) rotate(0)">30N</text>
<text x="0" y="0" class="fs" transform="translate(456,31) rotate(-2)">60N</text>
<text x="0" y="0" class="ft" transform="translate(456,31) rotate(-2)">60N</text>
<path class="tb" d="M127,998h-2l-1,-1h-2l-1,-1h-2l-1,-1h-2v-1h-3v-1h-2l-1,-1h-2v-1h-2l-1,-1h-2v-1h-2v-1h-2l-1,-1h-2v-1h-2v-1h-2v-1h-2v-1h-2v-1h-2v-1h-2v-1h-2v-1h-2v-1h-1l-1,-1h-1v-1h-2v-1h-2v-1h-1v-1h-2v-1h-1l-1,-1h-1v-1h-2v-1h-1v-1h-2v-1h-1v-1h-1l-1,-1h-1v-1h-1v-1h-1l-1,-1h-1v-1h-1v-1h-1v-1h-2v-1h-1v-1h-1v-1h-1v-1h-1l-2,-2h-1v-1h-1v-1h-1v-1h-1v-1h-1v-1h-1v-1h-1v-1h-1v-1h-1v-1h-1v-1h-1v-1h-1v-1h-1v-2h-1v-1h-1v-1h-1v-1h-1v-1l-1,-1v-1h-1v-1h-1v-1l-1,-1v-1h-1v-1l-1,-1v-1h-1v-1l-1,-1v-1h-1v-2h-1v-2h-1v-1l-1,-1v-1l-1,-1v-1l-1,-1v-2h-1v-2h-1v-3h-1v-2h-1v-4h-1v-3h-1v-5h-1v-6l-1,-1v-17h1v-7h1v-4l1,-1v-3h1v-3h1v-3h1v-2l1,-1v-2h1v-2h1v-2h1v-2h1v-2h1v-2h1v-2h1v-1h1v-2h1v-1h1v-2h1v-1h1v-1l1,-1v-1h1v-1h1v-1l1,-1v-1h1v-1h1v-1h1v-1h1v-1h1v-1h1v-2h1v-1h1v-1h1v-1h1v-1h1l3,-3h1v-1h1v-1h1v-1h1v-1h1v-1h1v-1h1l1,-1h1v-1h1v-1h1v-1h1l1,-1h1v-1h1v-1h2v-1h1v-1h1v-1h2v-1h1v-1h2v-1h1v-1h2v-1h1l1,-1h1v-1h2v-1h1l1,-1h1v-1h2v-1h2v-1h2v-1h1l1,-1h1l1,-1h1l1,-1h1l1,-1h1l1,-1h2v-1h2v-1h2v-1h2l1,-1h2v-1h2v-1h2l1,-1h2v-1h3v-1h2l1,-1h2v-1h3v-1h3v-1h159v1h3v1h3v1h2l1,1h2v1h3v1h2l1,1h2v1h2v1h2l1,1h2v1h2v1h2v1h2l1,1h1l1,1h1l1,1h1l1,1h1l1,1h1v1h2v1h2v1h2v1h1l1,1h1v1h2v1h1l1,1h1v1h2v1h1v1h2v1h1v1h2v1h1v1h1v1h2v1h1v1h1l1,1h1v1h1v1h1v1h1l1,1h1v1h1v1h1v1h1v1h1v1h1v1h1l3,3h1v1h1v1h1v1h1v1h1v2h1v1h1v1h1v1h1v1h1v1h1v1l1,1v1h1v1h1v1l1,1v1h1v1h1v2h1v1h1v2h1v1h1v2h1v2h1v2h1v2h1v2h1v2h1v2l1,1v2h1v3h1v3h1v3l1,1v4h1v7h1v17l-1,1v6h-1v5h-1v3h-1v4h-1v2h-1v3h-1v2h-1v2l-1,1v1l-1,1v1l-1,1v1h-1v2h-1v2h-1v1l-1,1v1h-1v1l-1,1v1h-1v1l-1,1v1h-1v1h-1v1l-1,1v1h-1v1h-1v1h-1v1h-1v2h-1v1h-1v1h-1v1h-1v1h-1v1h-1v1h-1v1h-1v1h-1v1h-1v1h-1v1h-1v1h-1l-2,2h-1v1h-1v1h-1v1h-1v1h-2v1h-1v1h-1v1h-1l-1,1h-1v1h-1v1h-1l-1,1h-1v1h-1v1h-2v1h-1v1h-2v1h-1l-1,1h-1v1h-2v1h-1v1h-2v1h-2v1h-1l-1,1h-1v1h-2v1h-2v1h-2v1h-2v1h-2v1h-2v1h-2v1h-2v1h-2l-1,1h-2v1h-2v1h-2l-1,1h-2v1h-2l-1,1h-2v1h-3v1h-2l-1,1h-2l-1,1h-2l-1,1h-2Z"/>
<path class="tl" d="M169,986h1v1h-3l-1,-1h2v-1ZM114,989h-3l-1,-1h2l1,1ZM176,983h1l1,1v1h1l-1,1h-2l-1,1h-1l-1,-1l1,-1v-2h1v-1ZM124,980h2v1h-1ZM122,980l1,1h-1l-1,-1ZM136,977h1h-2ZM156,974v1l1,1h-5v-1l1,-1v-1l-1,-1l1,-1v1h1l1,1ZM158,964v1h-2v2h1l-2,2v1h1l1,1h1l4,4v1l1,1v1h-1v2h-1l-1,1h-1v1h-2l1,1h1v1h-2l1,1h1v1h3l1,1h3l1,1h3l1,1h1l1,1v-1h1v-1h2l2,-1l1,1h1v-1h4v-1h3l1,-1h-1v-1h-4l-1,-1l1,-1h1l2,-2h4l1,-1h1l2,-2h-1v-1h1v-1h2v-1l1,-1h1v1h1v-1h8v-1h3v-1h1l1,1h2v-1h1v1l1,-1h4v1h6v-1h3v-1h2v1h3l1,-1h3v-1h2l1,-1h2l1,-1h4v1h1v1h1l1,1h1l1,-1l1,1h2v1l-2,2h-1v1h1h-1v1h-1v1h2l2,-2h1v-1h3l1,-1h1v-1h2l1,-1h5v-1h1v1h5v1h1l1,-1l1,1l1,-1h1l2,-1v1l1,1h3l1,-1h2v1h1v1h4l1,-1v1h9l1,-1l-1,1v1h-1h3l1,1h2l-1,1v1h1v1h2v1h1v2h2l1,1v1h-1l-1,1h-2l-1,1h-3l-1,1h-2l-1,1h-2l-2,2v1h-5l-1,1h-2v1h-1v3h2l-11,4h-155l-11,-4h-1h2l1,-1l1,1h14l-1,-1h-7v-1h-2v-1h-3l-1,-1h4v-1h-2l-1,-1h-7l-1,-1l-2,-1l1,1l1,-1l2,1v-1h1v-1l-1,-1h-1h2v-1h2v-1h4l1,-1h5l1,-1l1,1v-1h1l1,1h1v-1l1,1h6v-1h-2l-1,-1h-1l-1,-1h4l1,1h1l1,-1h3l-1,-1h1l1,1l1,-1l1,1h3v-1l1,1h4v-1h2l1,-1v-1h-1v-1h-1v-1h-1v-1h-1v-2l-1,-1v-1h1v-2h1v-1h1v-1h1l1,-1l1,1ZM144,951l2,1h1v1h-1v-1v1h-4l-2,-2l-2,-1l2,1h2v-2h1v1ZM151,947h1v1h-2v1l-1,-1l1,-1ZM269,946h-1v-2h1l1,1ZM345,939v1h1l1,-1v1l-3,3v-1l-1,1h-1l1,-1v-1l1,-1v-1ZM368,943v1l1,-1v1h-1l-3,3h-1l-1,1h-1l-2,2h-2v1h-1v-1h-1v-1l4,-2h1l1,-1h2l2,-2h1l2,-2ZM376,936l-1,2l1,-1l-1,1l1,1h1l-2,2h-1l-2,2l-2,1h-1l2,-1v-2l1,-1l2,-1v-1l1,-1v-3l1,-1v1l1,1ZM382,913l-1,1v-2l-1,-1v-1h1v1l1,1ZM397,906v1l-1,1h-1v-1l1,-1v1ZM398,906h-1v-1h1l1,-1v1ZM10,905v-1ZM386,904v-1ZM386,901v2h-1v-1ZM259,895v2l1,1h-1v1v-1v2h-1v3l-3,6v2h-1l-1,1l-1,-1h-1v-5h1v-2l1,-1h-1v-3h1v-1h1l2,-2h1v-1l1,-1v-1l1,-1v1ZM361,898v1h1v1h1l-1,1v2h1l-1,2v1l2,2v4h1l-1,2l1,1v3l-1,1v2l-3,3v1l-1,1l-1,2h-1l-1,2h-1l-4,4v1h-2l-1,1h-1l-1,1v-1h-1l1,-1h-1l-1,1h-1v-1h-1v-3h1l-1,-1v-1l1,-1l-1,1h-1l3,-3l-2,1h-1l-1,2v-4l-2,-2h-2l-1,1h-4l-2,2h-4l-1,1v-1l-1,1h-2v-1h-1l1,-1v-1h1v-3l1,-1v-7l1,1v-3l1,-1v-1l1,-1l-1,1l2,-2h1l1,-1h2l1,-1h2v-1h1l1,-1v-2l1,-1v2l1,-1v-1h1v-1l2,-2h2v1h2v-2h1l1,-1v-1h2v-1h-1h1l1,1h3l1,1h-1v1h-1v1l-1,1v1l2,2v1h1l1,1h1v-1l1,-1v-1l1,-1v-3l1,-1v-2h1v-1v3l1,1Z"/>
<path class="tl" d="M383,894h-1v-1v1ZM337,892l-2,-1h2ZM381,893h-1v-1h1ZM382,892v-1l-1,-1h1ZM341,892h-1l3,-3h2l-1,1h-1l-1,1ZM335,889h1v1h-3l1,-1ZM340,889v1h-3v-1h2ZM381,890v1l-2,-2h1v1ZM378,889v-1h-1v-1l1,1ZM325,887h2v-1l2,1v1h2l1,1l-1,1l-1,-1h-4l-1,-1h-1l-2,-1h-1l1,-2h1l1,1ZM353,886v1v-2ZM377,888h-1v-2l-1,-1h1v2h1ZM373,885l-1,1h-1l-1,1l-1,-1h-1l1,-1l1,1v-1h2v-2h1v1ZM345,882h-1v-1h1ZM349,881v2l-1,-1h-2v-1h2ZM374,884l-1,-1v-1l-1,-1h-1h2v2h1ZM353,878v3l2,1v-2l2,-1h1l1,1h1l1,1l4,2v1h1v1l2,1v1h-1v1l1,1v2h1v1h1h-1l1,1l-1,1v-1h-2l-1,-1v-3h-3l-1,1v1h-2l-2,-2v1h-2l1,-2h1l-1,-2v-1l-2,-1h-1l-1,-2l-1,1l-1,-1h1l-1,-1l1,-1h-1v-1h-1l-1,-1h2v-1ZM343,875l-1,1h-4v1l1,2v-1h2l-1,1h-1l1,2v1l1,2v1h-1v-2l-1,1v-1l-1,-1l1,-1h-1v4h-1v-3h-1v-1l1,-1v-4h1v-1h4l1,-1ZM347,875v1h-1v1l1,1h-1v-4h1ZM321,885h-1l-2,-2v-1l-2,-2l-1,-2v-2l-1,-1v-1l-4,-4v-1h2l3,3l1,2h1l2,2h1l-1,2h1v1l1,1h1v3ZM335,874l1,1h-1v3l-1,1v1l-1,3v-1l-1,1l-1,-1h-1v-1l-1,1l-1,-1h-1l-2,-4v-2l1,-1h2v-2h2v-1l1,-1v-1h1l1,-1v-2h1v1l2,2v1h-1l-1,2l1,1ZM344,864v3l-1,-1v2l-2,-2h1l-1,-1v1l-1,-1l-1,1v-1l1,-1h2v-1h1v-1l1,1ZM294,868h-1v-1l-1,-2l1,-2l1,1v1l1,1v1ZM137,863h-1l1,-1h1ZM341,861v1l-1,1l-1,-1l1,-1v-1v1l1,-1ZM335,863l-1,1v-1l1,-1v-1l1,-1v1l-1,1ZM338,859h2v1l-1,1v-1h-1ZM342,858l1,2h-1v1v-1h-1v-1h1h-1v-1ZM338,857l-1,1l-1,-1h1ZM336,849h1v6h1l2,1v2l-1,-1v-1v1l-1,-1h-2v-1h1h-1l-1,-1v-5ZM133,851v1h-1v-1ZM121,852h-1v-1h2v1ZM126,849h3v1h1v1h-2l-1,1v-1h-1v-2h-1ZM324,849l-1,1h-1v-2l1,-1h1v1ZM37,846v-2h1v2ZM38,844h-1v-1h1ZM119,845h2l1,1v1h1v1h2l-1,1h-3v-1h-1v-2h-2l-1,-1h-1h1h-2l-1,1h-1l2,-2h3ZM122,843h-1v-1l1,-1v1ZM334,843v1l-2,-2v-2l1,-1l1,1ZM122,839l-1,1v-1ZM123,839v1v-1h-1ZM340,825h1v1h-1v1h-1v-2ZM240,828l-2,2v-1h-1h2ZM229,828v1h-1ZM220,825v2h-1l-1,-1h-1v-1h2ZM214,821v3h-1v-3ZM344,820v1l1,1v1l-1,1h-1l-1,2l-1,-1v-1l-2,1l-1,1h-1l2,1v3l-1,-1v-1h-1l-1,-1l1,-1v-3h3v-3l1,1v-2h1l-2,-4v-1l3,3v1ZM214,820v1l-1,-1v-1l1,-1ZM340,810l1,-1l1,2h-1v2l-2,-1l1,2h-1l-1,-2l-1,-1h1l-1,-2l-1,-1l3,1ZM144,812l1,1h1h-2ZM147,809h-1l-1,-1h1ZM92,806h-1l-1,-1v-2h-1v-1h1l1,1v1l1,1ZM153,807l-1,1h1v1h2l-1,1h1v1l-1,2l-1,-1l1,-1l-2,1v-1h-3l1,-1h-1l4,-4h1Z"/>
<path class="tl" d="M90,797h1l-2,2v1v-3ZM332,800l3,3l-2,-1l1,2l2,2v1l-2,-2l-1,-2l-6,-6v-1h-1h1l3,3ZM198,806l-1,1h-2l1,-2v-1l2,-2h1v3ZM216,801l-1,2l-1,-1v-1h1ZM79,791h-1v-1h2ZM202,797l-1,2h2v1l-1,1h1l2,4h1v1l-1,1h1l-1,1h-3l-1,1h-2l2,-2h-1v-1h1l-1,-1v-1h2l-1,-1h-1v-2l-1,-1l1,-2v-1l1,1ZM75,786h-1v-1h1ZM141,790l-1,1v-1ZM139,790h-2l1,-1h1ZM78,780v1h1h-2v-1ZM139,786h1v1h1l-1,1h1l-1,1l-1,-1h-1l-2,1l1,-1h-1h1l1,-1l1,-2ZM193,787v1l1,1l-1,1h-3l-1,1l-1,-1h-2l1,-1h-1h1v-1h-2l1,-1h1l1,1l2,-1h2ZM147,784h-1l1,-1h2l-1,1ZM81,776v1l1,-1h2l-1,2h-3l-1,1h-1l-1,-1h1v-1h-1h1h-2l-1,1l8,-5v1l-1,2ZM135,780l-1,1v-1h-1l1,-1h1ZM322,771h-1ZM88,771h-1h2ZM139,780l-1,2l2,-1v1h-1v1l1,-1l2,-1l1,-1h2v2h-1v1l-1,1l-2,1h-1v-1l-1,1l-2,1v1h-3l-2,2h-1l-1,1l-2,1l-1,1l-1,2h1l-1,1v1h1l3,3l2,1h1l-2,2v2l1,1h1l2,-4h-1l4,-2v-1l1,-1v-1l-1,-1l2,-1l2,-4l1,1h1l1,-1v1l1,1h1v2l-1,1l1,1h2l1,-2h1v3l1,1l-1,1l1,1v1h1l1,1v1l1,1l-2,2h-2l-2,2h-1l-2,-1h-2l-2,1l-1,1l-2,1l-1,1l2,-1l3,-1h2l-1,1l-1,2v1l1,1l2,-1l1,-1v1h1l-4,2h-1l-2,1v-1l2,-1h-3v1h-1l-1,1h-1l-2,2l1,1v-1v1h-3l-1,1l2,-1v1h-2l-2,2v1l-1,1l-1,-1l1,-1l-1,1v4l-1,1h-1l-1,1h-1l-3,3h-1v8l-1,1h-1v-3l-1,-1l1,-1l-1,-2l-1,1l-1,-1h-4v1h-1l-1,-1l-1,1l-1,-1l-2,2h-2v1h-1v3l-1,1v1l-1,2v4l1,1v1h1v1l1,-1h3v-1l1,-1v-1l1,-1h3v1l-1,1v2l-1,1v-1v2l-1,1v1h5v1h1v1l-1,1v3l-1,1h1v2h1v1h2l1,-1h1v1h1l1,1l1,-1v-2l1,-1h2l2,-2v2h-1h1v1l-1,1v1h1v-3h1v-1h1v1h1v1h3l1,1l1,-1h1l1,1h1v1l1,1h1v1h1v1l1,1l2,1v-1h1l1,1h1l1,1v1h1v1l1,2v1l-1,1l1,1h2v1v-1l4,2v1h1l3,1h1l2,1l2,2h2v5l-1,1l-1,2l-2,2v9l-1,2v2h-1v1h-2l-1,1h-1l-3,3v5l-1,2l-2,2v2l-2,2v-1l-1,1l-1,-1h-1v-1v1l1,1v1l1,1v2l-2,1h-3l1,1v2l-1,1l-1,-1h-1l1,2h2l-2,2l1,1v1h-1l-1,1v1l2,1h1v1l-1,1v2h-1v1l2,2h-1l-1,1v1h-1l-2,-1l-3,-3l-1,-3v-1l1,-1h-2l1,-2l-1,-2h1v-2l-1,-1v2l-1,-2v-4l-1,-1l-1,-2h1v-6l-1,-2v-8l-1,-2v-6l-1,-2l-1,-1l-2,-1l-3,-2l-1,-1v-1l-1,-2l-1,-3l-2,-3l-2,-2v-1l-1,-2l2,-2v-1h-1v-3l1,-1v-1h1v-2h1l1,-1v-5l-1,-1v-2h-1v1h-1v1h-1l-1,-1h-2v-2h-1v-1v1h-1v-3l-2,-2h1h-2v-1h-2l-1,-1l-1,-2h-1l-1,-1v1h-2l-1,-1h-2l-2,-2h-1l-1,-1v-1h-1v-3h1l-1,-1v-3l-1,-1v-1l-1,-1v-3h-1v-5l-1,-1l-1,1v4h1l-1,1h1v5h1v2h-1v-1l-1,-1v-3l-1,-1v1v-1h-1v-1h1v-9h-1v-1h-1v-9l2,-2v-1l1,-2l2,-2l1,-2l1,-1v-1h1v1l2,-2h-1v-2l-1,-1v-1l1,-1l-1,-1l1,-1v-1l1,-1l-1,-1l1,-1v-1l1,-1l-1,-1h-1v-2h-1v-1h-1l-1,-1h-1l-1,1h-4l1,-1l2,-1h-1l-1,1l-2,1h-1l-1,1l-2,1h-2l-2,1h-1l-1,1h-3l-1,1h-2l1,-1h2l2,-1h2l2,-1h1l2,-1l1,-1h-3l1,-1l-1,1h-1l2,-2h-1v-1l2,-2l2,-1h3l1,-1h1l1,-1h-3v-2h4l1,1l1,-1v-3h4l1,-1h2l2,-1l1,1l1,-1h1l-1,1h1l1,1h2l1,1h2v1l1,1l1,-1h6l1,-1v2l2,-1l-1,1h2l1,1h2v1l-2,1h4v1l2,-2h2v1h1l1,1h2v-1h1l1,1l-1,1l1,-1h1l1,-1v-2l1,-1l2,-1l1,1l-2,2Z"/>
<path class="tl" d="M128,774l-1,1h4l-1,1h1l2,-2v1l-1,2v1l1,1h-2v1h-8v-1h-1v-1h4l-1,-1h-3l2,-1h-1l1,-1h1ZM135,774l-2,1v-1h1ZM152,776v1l-1,-1l-1,1v-2h2ZM146,776v1l1,-1l2,-1v2h3l1,1l-1,1l2,-1v1l1,1v2h-1l2,2v1h1v1l-2,1h-1l-1,-2l-1,1v1l1,1v2l-1,1l-2,-2v1l1,1h-2l-2,-2v-1l-1,-1v1h-3v-1l1,-1h3l1,-1l2,-1v-1l-1,-1h-1l1,-1l-1,-1h-5l-1,-1h-1l1,-1h-1l1,-1l2,-1l1,-1h2ZM138,774h2l-1,1h-1l1,1l-2,1h-2v-2l1,1v-1ZM298,772h-2v-1ZM141,776l-2,1v-1l2,-2h2l1,1l-2,1ZM122,776h-2l-1,-1h1l2,-1l2,-2h2v1h2v1h-1l-3,1h-2ZM299,769v1h-3v-1h1ZM143,773v1l-1,-1h-1l1,-1h1l1,1ZM295,769l1,1h-2l-1,1l-2,-1l-1,-1h2ZM143,771h-1v1l-1,1h-2l1,-1h-1l1,-1h2ZM136,771h1v1h-4l-2,1h-1l1,-1h-1l-1,-1l2,-1h1l2,1l1,1v-2h2ZM246,780h-3l-2,-1v-1l1,-2h-1l1,-1l-1,-1h1l4,-2h2l-1,1l-2,1l-1,1v2l-1,1l1,1ZM145,770l1,1h1l-1,1h1l1,1h4v1h-7l-1,-1l1,-1v-1h-2l1,-1ZM134,769l-2,1h-4l2,-1h3ZM271,770l1,1v-1h2l2,1h1v1l-1,1h1l2,1v-1l1,1l1,-1h2l1,1h3l-2,-1h5l1,1v1h2l2,1l-1,-1h1l1,-1l2,1v-1h1l-2,-1h8l3,1l1,-1h2l2,2h2v-1h3l3,1v-1h-2v-1h7l8,5h-1l1,1l2,1h2v1h-1v1h-1l1,1v2l-2,-1v2l-1,-1v1h-1l2,2v1h1l3,2h-1l1,1h1v1l1,2h-1l1,2l1,1l-4,-2l-4,-3l-1,-2l-1,-1v-3l-1,-2v-1l-2,-2l-1,1l2,2l-3,-1l-1,1l1,2l1,1h-1l-1,1l-1,-1h-1v1h-4v7h1l2,1h1l-1,-1h1l3,1l1,2l1,1l1,2l2,2v9h-1l-1,-1v2h-1v1l1,1v1h-1v1l1,1h1l2,2v1l1,1v1l-1,1h-1l-1,-2l-1,-1h1l-2,-1v-1v1v-1h-1v-1l-1,-1h-2v1h-1l-1,-1l1,-1l-1,-1l-1,1v2h-1v1l2,2h1v-1h2l1,1l-2,1v2l2,2l1,2l2,1v2h1v6l-2,4l-1,1h-1v1l-1,-1v1l-2,1h-1v2l-1,-1v-1h-2l-1,2v2l1,1l1,2l2,2l1,3v4l-2,1v1l-2,1v-2l-1,-1h-1v-1l-2,-2h-1v-1h-1v6h1v3l1,1h1v1h1v1l1,1v3h1v2h-1l-2,-2v-1l-1,-1v-1l-1,-1v-2l-1,-1v-1h-1v-6l-1,-1v-1l-1,-2v-2l-1,-1l-2,2h-1v-3l-1,-2v-1h-1l-2,-2v-1l-1,-1h-1v2l-1,-1v1h-2v2l-2,1l-1,2v1l-2,2h-1v8l-1,1l1,1h-1l-1,1l-1,-1l-1,-2v-1l-1,-1v-1l-1,-2v-1l-3,-6v-3l-2,1h-1l-1,-2v-1l-2,-1l-1,-1v-1l-1,-1l-2,1h-5l-1,-1h-2v-2h-1l-1,1h-2l-3,-3l-1,-2l-1,1v-1l-1,1v2l1,1h1l1,1v2l1,1l-1,-1l1,-1v2h1v1l1,-1h2v-1l1,-1v-1v2l2,2h1l2,2l-1,1v1h-1v3h-1v1h-1v1h-2v1h-1l-2,2h-1l-2,2v-1l-1,1h-2v1h-2v-2l-1,-1v-3h-1v-1l-1,-1v-1l-1,-1h-1v-1l-1,-1v-3h-2v-2l-1,-1v-1l-2,-2v-1v1l-1,1l-1,-1l-1,-2l1,2l1,1l1,2v1l2,2h-1l2,2v1l1,1h-1l1,2v1l1,1l1,2v1l1,1l2,1v1h1v1h1v1l-1,1h1l1,1h3l1,-1h3v-1h1v2l-1,1v3l-1,1l-3,6l-1,1l-2,1l-1,1l-1,2v1h-1v1h-1v2l-1,1l-1,2l1,1v4l1,1v7l-1,1h-1l-3,3h-1v1l-1,1v2h1l-1,1h1v1l-1,1h1l-1,1h-1l-2,2v3l-3,3v1l-2,1v1l-1,1h-2v1l-1,-1v1l-1,-1l-1,1h-2l-1,1l-1,-1h-1v-5l-1,-1v-2l-1,-1v-1l-1,-1v-5l-1,-1v-1l-1,-2v-1l-1,-1v-3l1,-1v-3h1v-1l1,-1v-1h-1v-5l-1,-1v-2l-3,-3l-1,-2l1,-1v-5l-1,-1v-1l-1,1h-2l-1,-1v-1l-1,-1h-2l-1,1h-2l-1,1h-6l-1,1l-4,-4h-1l-1,-1v-1l-1,-1v-1h-1v-1l-1,-1v-1h-1v-3h-1l1,-1v-1h1l-1,-1l1,-1v-4l-1,-1v-1h1v-2l1,-1v-1h1v-2h1l1,-2h1l2,-2v-3l3,-3l1,-2v-1h1l1,1h2l1,-1h2l1,-1h4l1,-1h1v1h1l1,-1h1v1l1,-1v1h-1v1h1v2h-1v1h1v1h3l2,2h1l2,2l1,-1v-2l1,-1h2l1,1h1l1,1h2l1,1h1v-1h2l1,1v-1h1l1,1v-2l1,-1v-5h-2l-1,1l-1,-1h-2v1l-1,-1h-2v-1l-1,-1v-2l1,-1h1v-1h2l1,-1h1l2,-1l2,1l1,1h2l1,-1v-2h-1l-2,-2h-1l-1,-1l1,-1l-1,-1h2l-1,-1v1h-2l-1,1v1h1l-1,1h-1v-1h-1l1,-1h-2v-1h-1v1l-1,1v1h-1v4l1,1h-2v1h-1v-1h-2l1,1h-2v1l1,1h-1h1l1,1v1l-1,-1v1h-1l1,1h-2v-2l-1,-1v-1h-1v-3h-1v-1h-1l-1,-1h-1l-1,-1v-1l-1,-1v1v-1h-2v1l2,2v1l1,1h1l1,1h1l1,1v1l-1,-1h-1v1h1v1h-1v1h-1v-1h1l-1,-1v-1h-1l-1,-1h-1l-2,-2l-1,-2h-2v1h-4l-1,1v2h-2v1l-1,2h1l-1,1v1h-1l-1,1h-2l-1,1l-2,-2v1h-2l1,-1v-1h-1v-2l1,-1v-3l-1,-1l2,-1l1,1h5v-4l-1,-1v-1h-2v-1h3v-2l1,1l2,-1v-1h1l1,-1l1,-2l1,-1h2v-5h2l-1,1h1v1l-1,1v1h1v1l1,-1h2v1h1l2,-2l1,1h1v-1h1v-3l1,-1l1,1v-1l-1,-1v-1h4l1,-1h-4l-1,1l-2,-2v-4l2,-1v-1l-1,-1l-2,2l-1,2l-1,1v3h1v2h-1v2l-1,2h-1v1h-1v-2l-1,-1l-1,-2l-1,-1l-1,2h-1l-2,-1v-5l2,-1l3,-3l2,-3l3,-3h2l1,-2h3l2,1l-1,1h2l1,1h3l3,1l1,1v1l-1,1h-1l-3,-1h-1l2,1v2l1,1h1v-1h-1l1,-1l2,1v-1l1,-2h1l1,1v-1l-1,-1v-1l-1,-1l2,1h1l-1,1l1,1h1v-1l1,-1l2,-1h1v1l1,-1h1l1,-1l1,1l1,-1h-2l1,-1h2l1,1l4,1v-1h-2v-1h-1l-1,-1v-3h2l1,1v1h1l1,1l1,2h1v3l1,1v-1h1l-1,-1l1,-1h-1l-2,-2v-1l-2,-1l1,-1l-1,-1h1l1,2l-1,-1l1,-1h2l1,1l-1,-1l-1,-2h4l-2,-1v-1h1l1,-1h3l1,-1h1v-2l2,1h-1ZM253,820l1,1v2h-1v1l1,1h1l1,1h3l-1,-1v-2h-1v-2h1v-1l-1,-1h-1l1,1l-1,-1v-1h-2v-2h-1h1v-2l1,1v-3h-2l-1,1h-1v1h-1l-1,2l2,1v1l1,1Z"/>
<path class="tl" d="M146,770h-1v-1h1l1,1ZM137,769h-2l1,-1h1l1,1ZM220,771l-1,1h-1v-1h-1l2,-1v1ZM139,768h-2l1,-1v1ZM146,769h-1v-1h1l1,1ZM144,769h-1l-1,-1h-1h1v-1h1l1,1ZM268,768l-3,1v-2ZM215,769l3,1h-2v3h-1l-2,-1h1l-1,-1l-2,-1v-1l1,-1l1,1h1v-1h1ZM220,768h1l-1,1h-4l-1,-1h3ZM234,767l-1,1h-1v-1h-1h4ZM264,768h-4l-2,-1l-1,-1h1l1,-1l4,2ZM153,767v1h-1l-2,1h-2v-1h1h-1v-1l1,-1h2v-1h1v1h1ZM167,764h3v1h-3l-1,1h-1l-1,1l-2,1h-3v1h-1v1h-2l-2,1h1l-2,1h-4l-1,-1h2v-1h2v-1h-1h1l1,-1h1l-1,-1h4l-1,-1h-3v-1l1,-1h6v-1h3v1l2,-1l1,1ZM190,764l3,1h-6v1h5l-1,1l2,-1h4v1l-2,1h-1l-2,2v2l1,1h-2l1,1l-1,1v1h-1l1,1h-3l1,1v1l-1,-1l-1,1h1l1,1v1h-2l-1,-1v1l-1,1h3l-4,2h-3l-1,1l-4,2h-1l-2,1h-1v1l-2,2v1l-1,1l-1,2h-1l-1,-1h-1l-1,-1v-2l-1,-1v-1l1,-1l-1,-2l1,-1l1,-2h1l1,-1v-1l-1,1h-1v-1l1,-1h1l-1,-1h-1l1,-1v-4l-1,-1h-5v-1l-1,-1h1l-1,-1l1,-1h2l3,-1h1l-2,-1h1l3,-1h1v-1h9l1,1l-1,-1h1l2,-1h3l2,-1Z"/>
<path class="th" d="M22,908v1Z"/>
<path class="tg" d="M66,970h1l1,-1h4v-1h5v-1h5v-1h6v-1h6l1,-1h7v-1h8v-1h9l1,-1h11v-1h14v-1h20v-1h79v1h20v1h14v1h11l1,1h9v1h8v1h7l1,1h6v1h6v1h5v1h5v1h4l1,1h1M21,927h6v-1h7v-1h8v-1h10v-1h10v-1h12v-1h14v-1h18v-1h23v-1h38v-1h75v1h38v1h23v1h18v1h14v1h12v1h10v1h10v1h8v1h7v1h6M5,877h399M21,826h4v1h7v1h8v1h9v1h10v1h11v1h14v1h16v1h21v1h32v1h103v-1h32v-1h21v-1h16v-1h14v-1h11v-1h10v-1h9v-1h8v-1h7v-1h4M66,783v1h5v1h4v1h5l1,1h5v1h6l1,1h6l1,1h7v1h10v1h10v1h13l1,1h17v1h36v1h21v-1h36v-1h17l1,-1h13v-1h10v-1h10v-1h7l1,-1h6l1,-1h6v-1h5l1,-1h5v-1h4v-1h5v-1M140,755h-1v1h-3v1h-2v1h-2v1h-2v1h-2v1h-2l-1,1h-1l-1,1h-1l-1,1h-1v1h-2v1h-2v1h-2v1h-1l-1,1h-1v1h-2v1h-1l-1,1h-1v1h-2v1h-1v1h-2v1h-1v1h-2v1h-1v1h-1l-1,1h-1v1h-1v1h-2v1h-1v1h-1v1h-1v1h-2v1h-1v1h-1v1h-1v1h-1v1h-1v1h-1l-1,1h-1v1h-1v1h-1v1h-1v1h-1v1h-1v1h-1v1h-1v1h-1v1l-1,1v1h-1v1h-1v1h-1v1h-1v1h-1v1l-1,1v1h-1v1h-1v1h-1v2h-1v1h-1v2h-1v1h-1v2h-1v1h-1v2h-1v2h-1v1h-1v2h-1v2h-1v2h-1v2h-1v2l-1,1v2h-1v2l-1,1v2h-1v3h-1v4h-1v4h-1v5h-1v9h-1v13l1,1v8h1v5h1v4h1v4h1v3h1v3h1v2h1v3h1v2h1v2h1v2h1v2h1v2h1v2h1v1l1,1v1h1v2h1v1h1v2h1v1h1v1h1v2h1v1h1v1l1,1v1h1v1h1v1h1v1l2,2v1h1v1h1v1h1v1h1v1h1v1h1v1h1v1h1v1h1v1h1v1h1v1h1v1h1v1h2v1h1v1h1v1h1v1h1v1h1l1,1h1v1h1v1h1v1h2v1h1v1h1l1,1h1v1h1v1h2v1h1v1h2v1h1l1,1h1v1h2v1h1v1h2v1h2v1h1l1,1h1v1h2v1h2v1h2v1h2v1h2v1h2v1h2v1h2l1,1h2v1h2v1h2M153,755h-1v1h-2v1h-2v1h-1v1h-2v1h-2v1h-1v1h-2v1h-1v1h-2v1h-1v1h-2v1h-1v1h-1v1h-2v1h-1v1h-1l-1,1h-1v1h-1v1h-1v1h-1v1h-1l-1,1h-1v1h-1v1h-1v1h-1v1h-1v1h-1v1h-1v1h-1v1h-1v1h-1v1h-1v1h-1v1h-1v1h-1v1h-1v1h-1v1h-1v1l-2,2v1h-1v1h-1v1h-1v1l-1,1v1h-1v1h-1v2h-1v1h-1v1l-1,1v1h-1v2h-1v1h-1v2h-1v1h-1v2h-1v2h-1v2h-1v2h-1v2h-1v2h-1v2h-1v3h-1v2h-1v3h-1v3h-1v3h-1v3h-1v4l-1,1v4h-1v6l-1,1v30h1v6h1v5h1v4h1v3h1v3l1,1v2l1,1v2h1v3h1v2h1v2h1v2h1v2l1,1v1h1v2h1v2h1v2h1v2h1v1h1v2h1v1h1v2h1v1h1v2h1v1h1v1h1v2h1v1h1v1h1v1l1,1v1h1v1h1v1h1v1h1v1h1v1h1v1l3,3v1h1l3,3h1v1h1v1h1v1h1v1h1v1h1v1h1v1h1l1,1h1v1h1v1h1v1h1l1,1h1v1h1v1h1l1,1h1v1h1v1h2v1h1v1h2v1h1v1h2v1h2v1h1v1h2v1h1l1,1h1v1h2M166,755h-1v1h-1v1h-1l-1,1h-1v1h-1v1h-1v1h-1v1h-1v1h-1l-2,2h-1v1h-1v1h-1v1h-1v1h-1v1h-1v1h-1v1h-1v1h-1v1l-2,2v1h-1v1h-1v1h-1v1h-1v1l-1,1v1h-1v1h-1v1h-1v2h-1v1h-1v1l-1,1v1h-1v1h-1v2h-1v1h-1v2h-1v2h-1v1h-1v2h-1v2h-1v2h-1v1l-1,1v1l-1,1v1l-1,1v2h-1v2h-1v2h-1v3h-1v2h-1v3h-1v3h-1v3h-1v3h-1v4h-1v4h-1v5h-1v6h-1v8h-1v30h1v7l1,1v5h1v5h1v4h1v4h1v3h1v3h1v3h1v3h1v3h1v2h1v2h1v2l1,1v2h1v2h1v2h1v2h1v1h1v2h1v2h1v2h1v1h1v2h1v1h1v2h1v1l1,1v1h1v1h1v2h1v1h1v1h1v1l1,1v1h1v1h1v1h1v1l1,1v1h1v1h1v1h1v1h1v1h1v1h1v1h1v1h1v1h1v1h1v1h1v1h1v1h1v1h1v1h1l2,2h1v1h1v1h1v1h1v1h2v1h1"/>
<path class="tg" d="M179,755h-1v1h-1v2h-1v1h-1v1h-1v1h-1v2h-1v1h-1v1l-1,1v1h-1v1l-1,1v1h-1v1l-1,1v1h-1v2h-1v1l-1,1v1h-1v2h-1v2h-1v2h-1v2h-1v2h-1v2h-1v2h-1v2h-1v2l-1,1v2h-1v2l-1,1v2h-1v3h-1v3h-1v3h-1v3h-1v4h-1v4h-1v4h-1v4h-1v5l-1,1v5h-1v8h-1v11h-1v29l1,1v10l1,1v7h1v6h1v5h1v4l1,1v4h1v3l1,1v3h1v3h1v3h1v3h1v3h1v3h1v2h1v3h1v2h1v2h1v2l1,1v2h1v2h1v1l1,1v1l1,1v1h1v2h1v2h1v1l1,1v1h1v2h1v1h1v2h1v1h1v2h1v1h1v1l1,1v1h1v1h1v1h1v2h1v1h1v1h1M192,755h-1v3h-1v2h-1v3h-1v3h-1v3h-1v3h-1v3h-1v3l-1,1v3h-1v4h-1v4h-1v4l-1,1v4h-1v5h-1v6h-1v6l-1,1v7h-1v8h-1v11l-1,1v18h-1v29l1,1v18h1v11h1v8l1,1v7h1v6h1v6h1v5h1v5h1v4h1v4h1v4h1v4h1v3h1v3l1,1v3h1v2l1,1v2h1v3h1v3h1v2h1M205,755v243M217,755h1v3h1v2h1v3h1v3h1v3h1v3h1v3h1v3l1,1v3h1v4h1v4h1v4l1,1v4h1v5h1v6h1v6l1,1v7h1v8h1v11l1,1v18h1v29l-1,1v18h-1v11h-1v8l-1,1v7h-1v6h-1v6h-1v5h-1v5h-1v4h-1v4h-1v4h-1v4h-1v3h-1v3l-1,1v3h-1v2l-1,1v2h-1v3h-1v3h-1v2h-1M230,755h1v1h1v2h1v1h1v1h1v1h1v2h1v1h1v1l1,1v1h1v1l1,1v1h1v1l1,1v1h1v2h1v1l1,1v1h1v2h1v2h1v2h1v2h1v2h1v2h1v2h1v2h1v2l1,1v2h1v2l1,1v2h1v3h1v3h1v3h1v3h1v4h1v4h1v4h1v4h1v5l1,1v5h1v8h1v11h1v29l-1,1v10l-1,1v7h-1v6h-1v5h-1v4l-1,1v4h-1v3l-1,1v3h-1v3h-1v3h-1v3h-1v3h-1v3h-1v2h-1v3h-1v2h-1v2h-1v2l-1,1v2h-1v2h-1v1l-1,1v1l-1,1v1h-1v2h-1v2h-1v1l-1,1v1h-1v2h-1v1h-1v2h-1v1h-1v2h-1v1h-1v1l-1,1v1h-1v1h-1v1h-1v2h-1v1h-1v1h-1M243,755h1v1h1v1h1l1,1h1v1h1v1h1v1h1v1h1v1h1l2,2h1v1h1v1h1v1h1v1h1v1h1v1h1v1h1v1h1v1l2,2v1h1v1h1v1h1v1h1v1l1,1v1h1v1h1v1h1v2h1v1h1v1l1,1v1h1v1h1v2h1v1h1v2h1v2h1v1h1v2h1v2h1v2h1v1l1,1v1l1,1v1l1,1v2h1v2h1v2h1v3h1v2h1v3h1v3h1v3h1v3h1v4h1v4h1v5h1v6h1v8h1v30h-1v7l-1,1v5h-1v5h-1v4h-1v4h-1v3h-1v3h-1v3h-1v3h-1v3h-1v2h-1v2h-1v2l-1,1v2h-1v2h-1v2h-1v2h-1v1h-1v2h-1v2h-1v2h-1v1h-1v2h-1v1h-1v2h-1v1l-1,1v1h-1v1h-1v2h-1v1h-1v1h-1v1l-1,1v1h-1v1h-1v1h-1v1l-1,1v1h-1v1h-1v1h-1v1h-1v1h-1v1h-1v1h-1v1h-1v1h-1v1h-1v1h-1v1h-1v1h-1v1h-1v1h-1l-2,2h-1v1h-1v1h-1v1h-1v1h-2v1h-1M256,755h1v1h2v1h2v1h1v1h2v1h2v1h1v1h2v1h1v1h2v1h1v1h2v1h1v1h1v1h2v1h1v1h1l1,1h1v1h1v1h1v1h1v1h1l1,1h1v1h1v1h1v1h1v1h1v1h1v1h1v1h1v1h1v1h1v1h1v1h1v1h1v1h1v1h1v1h1v1h1v1l2,2v1h1v1h1v1h1v1l1,1v1h1v1h1v2h1v1h1v1l1,1v1h1v2h1v1h1v2h1v1h1v2h1v2h1v2h1v2h1v2h1v2h1v2h1v3h1v2h1v3h1v3h1v3h1v3h1v4l1,1v4h1v6l1,1v14l1,1h-1v15h-1v6h-1v5h-1v4h-1v3h-1v3l-1,1v2l-1,1v2h-1v3h-1v2h-1v2h-1v2h-1v2l-1,1v1h-1v2h-1v2h-1v2h-1v2h-1v1h-1v2h-1v1h-1v2h-1v1h-1v2h-1v1h-1v1h-1v2h-1v1h-1v1h-1v1l-1,1v1h-1v1h-1v1h-1v1h-1v1h-1v1h-1v1l-3,3v1h-1l-3,3h-1v1h-1v1h-1v1h-1v1h-1v1h-1v1h-1v1h-1l-1,1h-1v1h-1v1h-1v1h-1l-1,1h-1v1h-1v1h-1l-1,1h-1v1h-1v1h-2v1h-1v1h-2v1h-1v1h-2v1h-2v1h-1v1h-2v1h-1l-1,1h-1v1h-2"/>
<path class="tg" d="M269,755h1v1h3v1h2v1h2v1h2v1h2v1h2l1,1h1l1,1h1l1,1h1v1h2v1h2v1h2v1h1l1,1h1v1h2v1h1l1,1h1v1h2v1h1v1h2v1h1v1h2v1h1v1h1l1,1h1v1h1v1h2v1h1v1h1v1h1v1h2v1h1v1h1v1h1v1h1v1h1v1h1l1,1h1v1h1v1h1v1h1v1h1v1h1v1h1v1h1v1h1v1l1,1v1h1v1h1v1h1v1h1v1h1v1l1,1v1h1v1h1v1h1v2h1v1h1v2h1v1h1v2h1v1h1v2h1v2h1v1h1v2h1v2h1v2h1v2h1v2l1,1v2h1v2l1,1v2h1v3h1v4h1v4h1v5h1v9h1v13l-1,1v8h-1v5h-1v4h-1v4h-1v3h-1v3h-1v2h-1v3h-1v2h-1v2h-1v2h-1v2h-1v2h-1v2h-1v1l-1,1v1h-1v2h-1v1h-1v2h-1v1h-1v1h-1v2h-1v1h-1v1l-1,1v1h-1v1h-1v1h-1v1l-2,2v1h-1v1h-1v1h-1v1h-1v1h-1v1h-1v1h-1v1h-1v1h-1v1h-1v1h-1v1h-1v1h-1v1h-2v1h-1v1h-1v1h-1v1h-1v1h-1l-1,1h-1v1h-1v1h-1v1h-2v1h-1v1h-1l-1,1h-1v1h-1v1h-2v1h-1v1h-2v1h-1l-1,1h-1v1h-2v1h-1v1h-2v1h-2v1h-1l-1,1h-1v1h-2v1h-2v1h-2v1h-2v1h-2v1h-2v1h-2v1h-2l-1,1h-2v1h-2v1h-2"/>
<rect x="11" y="897" width="21" height="22" fill-opacity="0" stroke="#ffffff" stroke-opacity="0.5" stroke-width="5.0"/>
<rect x="13" y="899" width="21" height="22" fill-opacity="0" stroke="#113311" stroke-opacity="0.8" stroke-width="5.0"/>
<rect x="12" y="898" width="21" height="22" fill-opacity="0" stroke="#45a249" stroke-opacity="0.9" stroke-width="5.0"/>
<rect x="691" y="691" width="309" height="309" fill="#ffffff" fill-opacity="1.0"/>
<rect x="694" y="694" width="302" height="302" fill="#000000" fill-opacity="1.0"/>
<rect x="700" y="700" width="300" height="300" fill="#70add3" fill-opacity="1.0"/>
<path class="zl" d="M835,768l-1,-1h2v-1l2,1h-1ZM764,888l1,-1v1l-1,2l-1,-1l-2,-1v-1h2l1,1h-1ZM782,844v1l-1,-1l1,-2l1,1ZM768,890v3l-1,-1v-1ZM808,753l2,2l1,2l-1,2l-2,-1l-2,1h-1l-2,-3l-2,-1v-1h1l3,-1ZM823,763h-5l-2,-1h-1l-2,-1v-1l1,-1h2l5,1v1h1l1,1ZM743,752v-2l1,1ZM712,771h-2v-2l1,1h1ZM703,839v1l-1,-1ZM711,834h-1v-1h1ZM708,855l-1,1v-1ZM706,882v-1Z"/>
<path class="zh" d="M850,848l1,1v2h-1l-1,1v-3Z"/>
<circle class="w1" cx="850" cy="850" r="18"/>
<circle class="w1" cx="850" cy="850" r="16"/>
<circle class="c1" cx="850" cy="850" r="17"/>
</svg>
