<?xml version="1.0" encoding="UTF-8" standalone="no"?>
<svg xmlns:svg="http://www.w3.org/2000/svg" xmlns="http://www.w3.org/2000/svg" xmlns:xlink="http://www.w3.org/1999/xlink" height="1000" width="1000">
<!-- made with pythonshp (GPL): github.com/sanjayrao77/pythonshp , underlying data may come from naturalearthdata.com -->
<!-- 
COPYRIGHT: THIS SVG FILE IS RELEASED INTO THE PUBLIC DOMAIN
 -->
<!-- 
vars : {
	'cmdline' : 'pythonshp.py publicdomain wiki1 newzealand locatormap'
	'title' : 'New Zealand locator'
	'version' : '1.0.5'
}
 -->
<defs>
	<radialGradient id="watergradient" cx="500" cy="500" r="500" fx="500" fy="500" gradientUnits="userSpaceOnUse">
		<stop offset="0%" stop-color="#70add3"/>
		<stop offset="11%" stop-color="#6eaad0"/>
		<stop offset="22%" stop-color="#6ca7cc"/>
		<stop offset="31%" stop-color="#6ba5c9"/>
		<stop offset="41%" stop-color="#69a2c6"/>
		<stop offset="51%" stop-color="#679fc2"/>
		<stop offset="59%" stop-color="#669dbf"/>
		<stop offset="67%" stop-color="#649abc"/>
		<stop offset="75%" stop-color="#6297b9"/>
		<stop offset="81%" stop-color="#6095b6"/>
		<stop offset="87%" stop-color="#5f92b2"/>
		<stop offset="92%" stop-color="#5d8faf"/>
		<stop offset="95%" stop-color="#5b8dac"/>
		<stop offset="98%" stop-color="#598aa8"/>
		<stop offset="100%" stop-color="#5685a2"/>
	</radialGradient>
	<radialGradient id="landgradient" cx="500" cy="500" r="500" fx="500" fy="500" gradientUnits="userSpaceOnUse">
		<stop offset="0%" stop-color="#dddddd"/>
		<stop offset="11%" stop-color="#d7d7d7"/>
		<stop offset="22%" stop-color="#d1d1d1"/>
		<stop offset="31%" stop-color="#cccccc"/>
		<stop offset="41%" stop-color="#c6c6c6"/>
		<stop offset="51%" stop-color="#c0c0c0"/>
		<stop offset="59%" stop-color="#bbbbbb"/>
		<stop offset="67%" stop-color="#b5b5b5"/>
		<stop offset="75%" stop-color="#afafaf"/>
		<stop offset="81%" stop-color="#aaaaaa"/>
		<stop offset="87%" stop-color="#a4a4a4"/>
		<stop offset="92%" stop-color="#9e9e9e"/>
		<stop offset="95%" stop-color="#999999"/>
		<stop offset="98%" stop-color="#939393"/>
		<stop offset="100%" stop-color="#888888"/>
	</radialGradient>
	<radialGradient id="bordergradient" cx="500" cy="500" r="500" fx="500" fy="500" gradientUnits="userSpaceOnUse">
		<stop offset="0%" stop-color="#444444"/>
		<stop offset="11%" stop-color="#3f3f3f"/>
		<stop offset="22%" stop-color="#3a3a3a"/>
		<stop offset="31%" stop-color="#363636"/>
		<stop offset="41%" stop-color="#323232"/>
		<stop offset="51%" stop-color="#2d2d2d"/>
		<stop offset="59%" stop-color="#292929"/>
		<stop offset="67%" stop-color="#242424"/>
		<stop offset="75%" stop-color="#1f1f1f"/>
		<stop offset="81%" stop-color="#1b1b1b"/>
		<stop offset="87%" stop-color="#161616"/>
		<stop offset="92%" stop-color="#121212"/>
		<stop offset="95%" stop-color="#0e0e0e"/>
		<stop offset="98%" stop-color="#090909"/>
		<stop offset="100%" stop-color="#000000"/>
	</radialGradient>
</defs>
<style type="text/css">
<![CDATA[
.c1 {stroke:#45a211;fill-opacity:0}
.fs {font:14px sans;stroke:#ffffff;stroke-width:2px;stroke-opacity:0.8;text-anchor:middle}
.ft {font:14px sans;fill:#000000;fill-opacity:1;stroke-opacity:0;text-anchor:middle}
.sb {stroke:url(#bordergradient);fill-opacity:0}
.sg {stroke:#000000;fill-opacity:0.0;stroke-opacity:0.2}
.sh {fill:#45a211;stroke:#000000}
.sl {fill:url(#landgradient);stroke:url(#bordergradient)}
.sp {stroke:url(#landgradient);fill-opacity:0}
.sr {stroke:url(#watergradient);fill-opacity:0}
.sw {fill:url(#watergradient);stroke:url(#watergradient);stroke-opacity:0.8}
.tb {fill:#eeeeee;stroke:black;stroke-width:2}
.tg {stroke:black;stroke-opacity:0.2;fill-opacity:0}
.th {fill:#45a211;stroke:#378100}
.tl {fill:#aaaaaa;stroke:black}
.w1 {stroke:#ffffff;fill-opacity:0;stroke-opacity:0.6}
]]>
</style>
<circle cx="500.0" cy="500.0" r="500.0" fill="url(#watergradient)"/>
<path class="sl" d="M971,332l-1,-2v-1l-1,-3l-1,-1v-2l-1,-1l-1,-2v-1l-1,-2v-1l-1,-3l-1,-1v-1l-1,-1v-1v1v-2l-1,-1v-2l-1,-1v-1h-1v-2l-1,-2l-1,-1l-1,-3l-2,-4l-1,-3l-1,-1l-2,-4l-1,-3l-1,-1l-2,-5v1h1h-1v-1l-1,-1v-1l-1,-1l-1,-2v-1v1l-1,-2v-1l-1,-1v-1l-2,-2v-1h-1l-1,-3v-1v1v-1h-1v-2l-1,-2h-1v-1l-1,-1v-1h-1l-1,-2v-1h-1v-2h-1v-1l-2,-2v-2l-4,-4v-1l-1,-1v-1l-2,-2v-1l-1,-1v-1h-1v-2l-2,-1v-1l-2,-2l-1,-2l-1,-1v-2l-2,-2v-1v1l-1,-1v-1l-4,-4h1h-1l-2,-2v-1l-1,-1v1l1,1h1l1,3h1v1l1,2l1,1h1l1,2v1l2,2v1l2,2l1,2l2,2v1l1,1v1h1l1,3h1v1l2,2v2h1l1,2l1,1l1,2v1h1v2h1v1l2,2v1v-1h-1v-1l1,1v2h1v1h1v2l2,2l1,2v1l2,3v1l1,1v1h1v1l1,2l1,1v1v-1l1,2l1,1v2h1v2h1v2h1v1l-2,-3v-1l-1,-1l-1,-2l-1,-1v-1l-1,-1l-2,-3v-1l-1,-1v-1l-2,-2v-1l-1,-1v-2l-1,-1v-1h-1v-1l-1,-1l-1,-3l-1,-1l-2,-3l-1,-1v-1l-1,-1v1v-1v1l-1,-1v-2h-1l-1,-1v-1l-1,-1v-1h-1v-1l-2,-2v-1l-1,-1l3,3v1v-1l-1,-1v-1l-2,-2l-1,-2v-1l-3,-3l-1,-2v-1h-1v-1l-3,-3l-1,-2l-2,-2v-1l-2,-2v-1l-2,-2v-1h-1l-1,-2l-2,-2v-1l-1,-2l-2,-2l-1,-2h-1v-1l-2,-2v-1l-2,-1l-2,-3l-4,-4v-1h-1l-1,-1v-1h-1l-2,-2v-1l-1,-1h-1v-1h-1v-1h-1v-1l-1,-1h-1v-1l-4,-4v-1h-1l-3,-3l-1,-2h-1v-1h-1v-2h-1l-5,-5v-1h-1h1v1h1v1h1h-1v-1h-1v-1l-1,-1l1,1h1h-1v-1h-1l-1,-1v1h1h-1l-2,-2h1h-1l-1,-1l1,1v-1h-1l-8,-8v-1h-1l-1,-1v-1l-2,-1l-3,-3v-1h-1l-5,-5v-1h-1l-1,-1l-1,-2h-1l-10,-10h-1v-1l-4,-3v-1l-4,-2v-1v1h1l1,1l-2,-2h-1v-1h-1v-1v1h1h-1v-1h-1l-2,-2v1v-1h-1v-1l-2,-1l-2,-2h-1l-2,-2h-1v-1l3,3l2,1l1,1h1l2,2h-1v-1l1,1l-1,-1l1,1h1v1h1v1h1h-1h1h-1v-1v1h1v1v-1l-1,-1h-1v-1h-1l-1,-1h-1v-1l1,1l-1,-1h-1v-1h-1l-1,-1h1v1l-2,-2h-1l-1,-1h-1v-1h-1v-1h-1h1h-1v-1h-2v-1v1h1l-1,-1h-1l-1,-1h1v1v-1h-1l-2,-1v-1h-1h1v1h1h-1l-2,-1v-1l-2,-1l-1,-1h-1v-1h-1h1v1l-2,-2v1h1h-1v-1h-1l-1,-1h1v1v-1h-2v-1h-1l-1,-1h1h-1l-1,-1h-1l-1,-1h-1l-2,-2v1h1l-1,-1v1v-1h-1l-1,-1h-1v-1h-1h1v1h2l1,1h-1l-2,-2h-1v-1h-1l-1,-1l1,1h1h-1l1,1h1v1l-1,-1l-2,-1v-1h-1h1h-1l-1,-1h-1v-1h-1l-2,-1l-1,-1h-1l-1,-1h-1v-1v1h1l2,1l1,1h1h-1l-1,-1h-1l-1,-1h-1v-1h-1h1v1h1h-1h1h-1l-2,-2h-2v-1h-1l-1,-1l1,1l-2,-2h-2v-1h-2v-1h-1l-1,-1h-1h1l1,1h1h-1l-1,-1h-1v-1h-2v-1v1h1l1,1h1l1,1h1h-1l-1,-1h-1l-1,-1h-1l-1,-1h-1v-1h-2v-1h-1h1v1l-1,-1h-1l-1,-1h1h-2v-1h-2v-1h-2v-1h-2v-1h-1l-2,-1l-1,-1h-2l-1,-1l1,1h1l-2,-1h-1h1h-1l-1,-1h-1l-1,-1h-2v-1h-2l-1,-1h-1l-1,-1l-2,-1h-1l-1,-1v1h2l1,1h1l1,1h1l1,1h1h-1v-1h-2l-1,-1h-1l-1,-1h-2v-1v1h1h-1v-1h-2v-1v1h2v1h2l1,1h1h-1l-1,-1h-1l-3,-1l-1,-1h-2v-1h-2l-1,-1h-1l-4,-2h-1h1h-2v-1l1,1h1h-1l-1,-1h-2l-1,-1h-2l-1,-1h-1h1h-1l-1,-1h-2l-1,-1h-3l-1,-1h-2l-1,-1h-2v-1h-3l-2,-1h-1v-1v1l-1,-1h-1h1h-2v-1h-3l-1,-1h-1h1v1v-1v1h3v1h1h-2l-1,-1h-1l1,1l-1,-1h-1h1h-5v-1h-1h-1l-1,-1h-1v-1h-1h2l1,1h2l2,1h1h-1l-1,-1h-3v-1v1v-1l1,1v-1h-5v1v-1h-1v1h1h-1v-1h-2v1h3l1,1h1h-1v1h-1l-1,-1v1h-8v1h1h-5l-1,-1v1v-1l-1,1h-2v-1h-1v1l-1,-1h-1h1h-3v1l-1,-1h-2l1,-1h5l1,1h1h-1h1v-1h5v-1h2l1,1l-1,-1h-1l-1,-1h1h-2v-1h1h-5v-1h-1h1h-1v1l-1,-1h-2l-1,-1h-4v-1h-6v-1h-2v-1h-2l-1,-1h-1v-1h-1v1h1h-5l-1,-1h-3l-1,-1h-1h4l1,1v-1h-5l-2,-1h1h-4v-1h-2v-1h6l1,1h1v-1l1,1h2l-1,-1h-3l-1,-1h-6l-2,-1h-4l-3,-1h-3l-3,-1h-1h6l1,1h4l2,1h6l1,1l-1,-1h-5v-1h-1l1,1h5l1,1h1h-1l-1,-1h-4l-1,-1h-6l-1,-1h-2l-5,-1h-1h1l1,1h7l1,1h5l1,1h5l1,1h4l1,1h4l1,1h5l1,1h3l1,1h4l1,1h3l1,1h3l1,1h3l1,1h3l1,1h3l1,1h2l1,1h3l1,1h2l1,1h2l1,1h3l1,1h2l1,1h2l1,1h2l1,1h2l1,1h2l1,1h2l1,1h2l1,1h1l1,1h2l1,1h2l1,1h1l1,1h2l1,1h1l1,1h2l1,1h1l1,1h2l1,1h1l1,1h1l1,1h2l1,1h1l1,1h1l1,1h2l1,1h1l1,1h1l1,1h1l1,1h1l1,1h2l1,1h1l1,1h1l1,1h1l1,1h1l2,2h1l1,1h1l1,1h1l1,1h1l1,1h1l1,1h1l1,1h1l1,1h1l1,1h1l1,1h1v1l1,1h1l1,1h1l1,1h1l1,1h1l1,1h1l2,2h1l2,2h1l1,1h1l2,2h1l1,1h1l3,3h1l1,1h1l2,2h1l3,3h1l1,1h1l2,2h1l3,3h1l2,2h1l4,4h1l3,3h1l2,2h1l4,4h1l4,4h1l2,2v1h1l2,2h1l1,1v1h1l2,2h1v1l2,2h1l8,8h1l11,11h1v1l2,2h1v1l15,15v1l7,7v1l2,2h1v1l2,2v1h1l1,1v1l5,5v1l4,4v1l4,4v1l2,2v1l4,4v1l3,3v1l2,2v1l1,1v1l4,4v1l1,1v1l3,3v1l2,2v1l1,1v1l3,3v1l1,1v1l2,2v1l1,1v1l3,3v1l1,1v1l1,1v1l1,1v1l1,1v1l2,2v1l2,2v1l1,1v1l1,1v1l1,1v1l1,1v1l1,1v1l1,1v1l1,1v1l1,1v1l2,2v1l1,1v1l1,1v1l1,1v1l1,1v2l1,1v1l1,1v1l1,1v1l1,1v1l1,1v2l1,1v1l1,1v1l1,1v1l1,1v2l1,1v1l1,1v2l1,1v1l1,1v2l1,1v1l1,1v2l1,1v1l1,1v2l1,1v2l1,1v1l1,1v2Z"/>
<path class="sp" d="M562,4h4l1,1h7l1,1h5l1,1h5l1,1h4l1,1h4l1,1h5l1,1h3l1,1h4l1,1h3l1,1h3l1,1h3l1,1h3l1,1h3l1,1h2l1,1h3l1,1h2l1,1h2l1,1h3l1,1h2l1,1h2l1,1h2l1,1h2l1,1h2l1,1h2l1,1h2l1,1h1l1,1h2l1,1h2l1,1h1l1,1h2l1,1h1l1,1h2l1,1h1l1,1h2l1,1h1l1,1h1l1,1h2l1,1h1l1,1h1l1,1h2l1,1h1l1,1h1l1,1h1l1,1h1l1,1h2l1,1h1l1,1h1l1,1h1l1,1h1l2,2h1l1,1h1l1,1h1l1,1h1l1,1h1l1,1h1l1,1h1l1,1h1l1,1h1l1,1h1v1l1,1h1l1,1h1l1,1h1l1,1h1l1,1h1l2,2h1l2,2h1l1,1h1l2,2h1l1,1h1l3,3h1l1,1h1l2,2h1l3,3h1l1,1h1l2,2h1l3,3h1l2,2h1l4,4h1l3,3h1l2,2h1l4,4h1l4,4h1l2,2v1h1l2,2h1l1,1v1h1l2,2h1v1l2,2h1l8,8h1l11,11h1v1l2,2h1v1l15,15v1l7,7v1l2,2h1v1l2,2v1h1l1,1v1l5,5v1l4,4v1l4,4v1l2,2v1l4,4v1l3,3v1l2,2v1l1,1v1l4,4v1l1,1v1l3,3v1l2,2v1l1,1v1l3,3v1l1,1v1l2,2v1l1,1v1l3,3v1l1,1v1l1,1v1l1,1v1l1,1v1l2,2v1l2,2v1l1,1v1l1,1v1l1,1v1l1,1v1l1,1v1l1,1v1l1,1v1l1,1v1l2,2v1l1,1v1l1,1v1l1,1v1l1,1v2l1,1v1l1,1v1l1,1v1l1,1v1l1,1v2l1,1v1l1,1v1l1,1v1l1,1v2l1,1v1l1,1v2l1,1v1l1,1v2l1,1v1l1,1v2l1,1v1l1,1v2l1,1v2l1,1v1l1,1v2"/>
<path class="sl" d="M823,882v-1ZM824,881l-1,1h-1l-1,1v1v-1l1,-1v1h-1v1l-2,1l-1,1l3,-3h1l-1,1h-1l-5,5h-1l-4,4h-2l-5,5h-1l-3,3h-1l-4,4h-1l-1,1h-1l-3,3h-1l-3,3h-1l-1,1h-1v1h-1l-2,1l-1,1h1h-1l-1,1l-3,2l-1,1h-1l1,-1h1v-1h1h-1v1h-1l-1,1h-1v1h-1l-2,1l1,-1h1l1,-1h1v-1l1,-1h1l-1,1h-1l2,-1v1v-1h1l1,-1h-1l-1,1l2,-1v-1h1l1,-1h1h-1v1h-1h1l1,-1h-1v1v-1h1v-1h2v-1v1v-1h1v-1h1l2,-2h1h-1l-1,1h1h-1v1h-1l-1,1h-1v1v-1h1l1,-1h1v-1h1l1,-1l2,-1h-1l-2,2h-1h1l3,-3h1h-1l2,-1h1l1,-1v-1h1l2,-2h1l1,-1l-1,1l1,-1h1l-4,2l-1,2h-1l1,-1h1l1,-1l-1,1v-1h1v-1h1l-1,1l3,-3h1l1,-1l-1,1l1,-1h1v-1h1h-1v1v-1h1l2,-2h1h-1v1h-1l-1,1l3,-3l2,-1l1,-1h1v-1h1l1,-1l-2,2h-1h1l2,-2h1v-1h1v-1h1l1,-1h-1v1h-1h1v-1h1l1,-1h1v-1h1l4,-4v1h-1l2,-2h1v-1h1l1,-1h-1v1h-1h1l1,-1Z"/>
<path class="sp" d="M823,881v1M822,883l-1,1h-1l-5,5h-1l-4,4h-2l-5,5h-1l-3,3h-1l-4,4h-1l-1,1h-1l-3,3h-1l-3,3h-1l-1,1M825,880l-1,1"/>
<path class="sl" d="M460,2h1h-1h1l1,-1h15l1,-1h44l1,1h1h-1h13v1h10l1,1h8v1h1h-3l-1,-1l1,1h1h-3v-1h-1v1l-1,-1v1h1h-1h1h-6v-1h-7l-1,-1h-10v-1h1h-4v1h1h-7l1,1h-1h4l1,1h-1h1h-19v1h-9v1h-7l-1,1h-4l-2,-1l-2,1h-8l-2,1h-1v-1h1h-2l-2,1h-8l-1,1h-2v1h-2l-1,1h-3l-1,1h-1h2v1v-1h3v1h-2v1h-1h2v1h-1v1h-1l-1,-1h1h-2l-1,1h-2l-1,1h-1v1h1v1h-2l-1,1h-5l-2,1h-2l-1,1l1,1h-1v1l-1,-1h-1l-2,1h-1l-2,1v-1l-1,1h1h-1l-2,2l-4,2h-2l-4,2h-1v-1l1,-1v-3l2,-4v-1l2,-2h1l3,-2l3,-1h2l2,-2h6v-1h4l1,-1h2l4,-2h3l2,-1h3l1,-1h4l1,-1h4l1,-1h-1h2l1,-1h-4v1h-4l-1,1l-7,1h-3v1v-1h1h-1l2,-1h1h-6l-1,1h-7l-1,1h-3l-1,1h-2l-2,1h-2l-2,1h-3v1h-1h1l-1,1h-5l-1,1h-6l-1,1v-1h3l2,-1h-1v1h-1l-1,-1h-1v1h-7l-1,1h-2l-1,1h-4l-2,1h-4l-1,1v-1l-5,1l-1,1h-4l-3,1h-1l-4,2h-1l-1,1h-2l-1,1h-1l-2,1h-1l-2,1h-2l-1,1h-2l-1,1h-2l-3,2h-2l-2,1l-1,1h-1l-1,1h-2l-1,1h-2l-4,2h-1l-2,1h-1v1l2,-1h3v-1v1h-1l-1,1h-1v1l1,-1h2v-1h2l1,-1l-2,1h-1h1v1h-1l-2,1l2,-1h1l2,-1h1l1,-1l-1,1h-1l-1,1h1l2,-1v-1h1l1,-1h2l2,-1h1v1h2v1h-2l-1,1h1l-1,1h-1h1v1h-2v1h-2l-2,2h-1l-1,1l-2,1l-3,3h-1v1l-2,1h-1v1l-2,1l-2,2l-2,1h-1l-1,1h-1l-4,2l-3,2l-1,1h-1l-3,3l-3,1l-1,1l-4,2l-2,2h-1l-1,1h-1l-2,1l-2,2h-1l-3,2l-1,1l-2,1l-1,1h-1l-6,3l-1,1l-4,2h-3l-1,1l1,-2h1h-1l-1,1h-1l1,-1l-1,1h-1l-1,1l-2,1v1h-2v1h-2l-1,1v1h-1l-1,1h-1l-1,1h-1v1h-1l-1,1h-1v2l-1,1h-1v1l-3,1v1l-2,1h-1l-2,2h-1l-1,1h-1l-2,2l-2,1l-2,2h-1v1h2v7l-1,1v1h-1v1l-2,2v1l1,-1l-2,2l-1,2l-2,2h-2l-1,1h-1v1h-1v1h-3l-1,1v1h-2v1h-1v1h-1l1,-1v-1l-1,2l-1,1h-1l-1,1h-1h1v-1h-1l1,-1h1v-1v1v-2h1v-1l3,-3h1v-2h1v-2h1v-1v1h-2l2,-2h1l1,-1v1v-1v1l1,-1v-1h1v-2h1v-1h-1l-1,1h-2l-2,2v-1l-1,1v-1v1l2,-2h-1v1h-2l2,-1l3,-3h2l-1,-1v1h-1v-1l3,-2h1v-1h-3l1,-1l-1,1h-1l-2,1l-1,1h-1l-1,1h-1l-1,1l-3,2l-1,1h-1v1h-1v1h-1l-2,2h-1l3,-3h1l1,-1h-1l-1,1v-1h1l2,-2l2,-1v-1h1l3,-3v-1l-1,1h-2v1h-1l-4,4h-1l-3,2l-1,1l-2,1l-1,1v1l-1,1l-2,1l-2,2h-2l-5,5h2l1,-1h1l-1,1v1h-1l-1,1v2l1,-1h1l1,-1v-1l2,-1l1,-1h1v-1l2,-1h4v-1h1h-1h2l-2,2v1h-3l-1,2l-2,1l-1,1h-2v1h-1v1l-1,1h-1v1h-1l1,-1l-1,1h-1v1l-3,3h-1l-1,1v1h-1l-1,2l-2,2h2v1l-1,2v1l-1,2v2h-1v1h1l-1,1l1,1v1l-1,1h-4l-2,1v1h-1h1l2,-2h1l-1,1h1l1,1v2l-1,1h-1l-1,1v1l-2,1l-2,2h-1l-2,1v1v-1h2v1l3,-3h1v1h1l-2,2h1l-1,1l-1,2h-1l-1,1v1l-2,2v2h-1l-1,1v-1v1h-1v1l-1,1h-1v1l-2,2v1l-5,5v2h-1v-1l-1,1h-1v1h1v1l-1,1h-1l-1,1v1h-2l1,1l1,-1v1l-1,1v2h-2v1h-1v1h-1v1h-1v2h-1v1h-1v1l-1,1h-1l-2,2h-1l1,1v-1v1l-1,2h-1v1h-1v1h-1v1l-1,1h-1v1h-1l-1,1v1h-1v1l-2,2v1h-1v1h-1l-1,1h-1v1l-1,1h-1l-1,1v1h-1v-1l-1,1v1h-1v1h-1v1h-1v-3h1v-1l-1,1v1l-1,1v1l-1,2v1h-1v1h-1v1v-1l-1,1v2h-1l-1,1h-1h1v-1l-1,1v1h-1l-1,1v1h-1v1h-1v1l-1,1h-1v1h-1v1l-2,2v-1v1l-1,1v1h-1v1h1l-1,1v2l-1,1h-1v1v-4l1,-1v-1l2,-2v-1h-1v1h-1v1h-1v1v-1h-1v-1h1h-1v2h-1l-1,1v1h-1l-1,1v1h-1v1l-1,1v1l-1,1h-1v1l-1,1v1l-1,2v1l-1,1l-2,3l-2,4l-1,1v2l-1,1v2l-1,1v1h1v2l-1,2v1l1,1v3h1v5h1v3l-1,2v6l-1,1v2l-1,2v3l-1,1v2l-1,3v1v-1v2l-1,1v1l-1,1v1l-1,1v1l-1,1v1l-1,1v1h-1v2h-1l-1,2l-1,1v1h-1v1h-1v1v-1v2h-1h1v1h-1v2h-1v3h-1v-2h-1l1,2v2l-3,4v2l-1,1v1l-1,1v-3l1,-4v-2l1,-1v-1h-1v-1h-2l-1,1l1,-1v-2l-1,1v1v-9h-1v-1l-2,2v1v-3l1,-2v-2l-2,2v2l-1,1v3l-1,1v2l-1,2v2l-1,2v1l-1,1v4l-1,1l-1,3v3h-1v5l-1,2v1l1,-2h1l-1,6v5l-1,1v3h1v1h1v-1h1v2l1,1v1l-1,1v2l-1,1v-1v1l-1,1v1v-5h-2v2v-2h-1l1,-2h-1v-1l1,-1l-1,1v-6h-1v1v-3l1,-2v-3l1,-2v-3l1,-3v-1l1,-2v-3l1,-1v-3l1,-1v-4l1,-1h-1h1v-4l1,-1v-5l1,-1v-1l-1,3v-1l1,-1v-4l1,-1v-2l1,-2v-2l1,-3v-2l1,-1v-2l1,-1v1h-1v1v-3l1,-1v-1v1l-1,1v1l-1,1v3h-1v1v-1v2l-1,1v1l-1,1v1l-1,1v1l-1,2l1,-1v-2l-1,2v1v-2h1v-1l-1,1v1v-1l1,-2v-1v2h-1v2l-1,1v1v-1l2,-3v-2l1,-1v-3l1,-1l1,-2v-2l1,-3l1,-2v-2l1,-2v-1v3h-1l1,-1v-2l1,-1v-1l1,-1v-1v1v-1v1h-1v1v-1h1v-1l-1,1l1,-1v-1v1v-2h1v-2l1,-1v-1l1,-1v-2l1,-1v-1l1,-1v-1l1,-1v-2l1,-1v-1l1,-1v-1l1,-1v-1l1,-1v-1l1,-1v-1l1,-1v-1l1,-1v-1l1,-1v-1l1,-1v-1l1,-1v-1l1,-1v-2l1,-1v-1l1,-1v-1l1,-1v-1l1,-1v-1l2,-2v-1l1,-1v-1l2,-2v-1l1,-1v-1l1,-1v-1l1,-1v-1l2,-2v-1l1,-1v-1l2,-2v-1l1,-1v-1l1,-1v-1l3,-3v-1l1,-1v-1l1,-1v-1l2,-2v-1l2,-2v-1l2,-2v-1l3,-3v-1l1,-1v-1l2,-2v-1l3,-3v-1l4,-4v-1l1,-1v-1l4,-4v-1l4,-4v-1l2,-2v-1l4,-4v-1l6,-6v-1l5,-5v-1l7,-7v-1l1,-1h1l1,-1v-1l2,-2h1v-1l5,-5v-1h1l2,-2v-1h1l14,-14h1l1,-1v-1l1,-1h1l8,-8h1l4,-4h1l7,-7h1l4,-4h1l2,-2h1v-1l1,-1h1l2,-2h1l3,-3h1l4,-4h1l1,-1h1l4,-4h1l1,-1h1l3,-3h1l2,-2h1l1,-1h1l3,-3h1l1,-1h1l2,-2h1l2,-2h1l2,-2h1l1,-1h1l1,-1h1l1,-1h1l1,-1v-1h1l1,-1h1l1,-1h1l1,-1h1l1,-1h1l1,-1h1l1,-1h1l2,-2h1l1,-1h1l1,-1h1l1,-1h1l1,-1h1l1,-1h1l1,-1h1l1,-1h1l1,-1h1l2,-2h1l1,-1h1l1,-1h2l1,-1h1l1,-1h1l1,-1h1l1,-1h1l1,-1h2l1,-1h1l1,-1h1l1,-1h2l1,-1h1l1,-1h2l1,-1h1l1,-1h2l1,-1h1l1,-1h2l1,-1h1l1,-1h2l1,-1h2l1,-1h1l1,-1h2l1,-1h2l1,-1h2l1,-1h2l1,-1h2l1,-1h2l1,-1h2l1,-1h2l1,-1h2l1,-1h3l1,-1h3l1,-1h3l1,-1h2l1,-1h3l1,-1h3l1,-1h3l1,-1h3l1,-1h4l1,-1h4l1,-1h3l1,-1h4l1,-1h6l1,-1h4l1,-1h5l1,-1h7l1,-1h6l1,-1h9l1,-1h8Z"/>
<path class="sp" d="M462,1h15l1,-1h5M490,0h22M38,308l1,-1v-1l1,-1v-2l1,-1v-1l1,-1v-1l1,-1v-2l1,-1v-1l1,-1v-1l1,-1v-1l1,-1v-1l1,-1v-1l1,-1v-1l1,-1v-1l1,-1v-1l1,-1v-1l1,-1v-1l1,-1v-2l1,-1v-1l1,-1v-1l1,-1v-1l1,-1v-1l2,-2v-1l1,-1v-1l2,-2v-1l1,-1v-1l1,-1v-1l1,-1v-1l2,-2v-1l1,-1v-1l2,-2v-1l1,-1v-1l1,-1v-1l3,-3v-1l1,-1v-1l1,-1v-1l2,-2v-1l2,-2v-1l2,-2v-1l3,-3v-1l1,-1v-1l2,-2v-1l3,-3v-1l4,-4v-1l1,-1v-1l4,-4v-1l4,-4v-1l2,-2v-1l4,-4v-1l6,-6v-1l5,-5v-1l7,-7v-1l1,-1h1l1,-1v-1l2,-2h1v-1l5,-5v-1h1l2,-2v-1h1l14,-14h1l1,-1v-1l1,-1h1l8,-8h1l4,-4h1l7,-7h1l4,-4h1l2,-2h1v-1l1,-1h1l2,-2h1l3,-3h1l4,-4h1l1,-1h1l4,-4h1l1,-1h1l3,-3h1l2,-2h1l1,-1h1l3,-3h1l1,-1h1l2,-2h1l2,-2h1l2,-2h1l1,-1h1l1,-1h1l1,-1h1l1,-1v-1h1l1,-1h1l1,-1h1l1,-1h1l1,-1h1l1,-1h1l1,-1h1l2,-2h1l1,-1h1l1,-1h1l1,-1h1l1,-1h1l1,-1h1l1,-1h1l1,-1h1l1,-1h1l2,-2h1l1,-1h1l1,-1h2l1,-1h1l1,-1h1l1,-1h1l1,-1h1l1,-1h2l1,-1h1l1,-1h1l1,-1h2l1,-1h1l1,-1h2l1,-1h1l1,-1h2l1,-1h1l1,-1h2l1,-1h1l1,-1h2l1,-1h2l1,-1h1l1,-1h2l1,-1h2l1,-1h2l1,-1h2l1,-1h2l1,-1h2l1,-1h2l1,-1h2l1,-1h2l1,-1h3l1,-1h3l1,-1h3l1,-1h2l1,-1h3l1,-1h3l1,-1h3l1,-1h3l1,-1h4l1,-1h4l1,-1h3l1,-1h4l1,-1h6l1,-1h4l1,-1h5l1,-1h7l1,-1h6l1,-1h9l1,-1h9"/>
<path class="sl" d="M38,356v1ZM44,363v-1ZM48,348v-1ZM70,270v-1ZM73,265l-1,1ZM72,267v1v-1l1,-1ZM70,270v-1ZM440,453l1,3v-1h1v-2h1v2l1,2v1l-1,1h-1l-1,1h-1v-1l-1,-1v-2l-1,-3v-2h1v1ZM446,463v1h1l1,1h1v1h1l-1,1h-1l-1,1l-1,-1v-2l-1,-1h-1v-2h1ZM455,469v1l-1,-1h-2v-1h1l1,1ZM453,465h-2l-1,-1h1l1,-1h1v1ZM455,476l1,1v1h-2v-1h-1v-1h1ZM450,458h-2l1,-1l2,-1ZM453,462h-1v-4l1,3ZM452,457v-1l-1,-2h1v1ZM444,460v1l-1,-1v-1ZM447,447v1h-2v-1h1v-1ZM446,444v1v-1l-1,-1h1l1,1ZM467,498v1h-1v-1ZM464,493v1h-1l-1,-1v-2h1v1ZM463,488h-1l-2,-1v-2h1v1h1h-1l1,1ZM406,286h-1ZM212,283l-1,1l1,-1v-1l1,1ZM314,279h1ZM367,278h-1v-1h-1l1,-1l1,1ZM463,279v1v-1l1,-1v1ZM456,268h-1ZM480,270h1ZM476,269h1h-2ZM440,240v-1ZM277,204h-1v-1ZM274,221h-1v-1ZM268,237h-1ZM276,208v1v-1h1ZM273,229h-1l1,-1ZM272,231h-1v-1h1ZM263,244h-1l2,-2v-1l1,1l-1,1ZM629,453h-1h2ZM721,52v-1h-2h2v1h1ZM723,53v-1h-1h1ZM707,45l-1,-1h-1h1v1ZM667,29h-1ZM654,25h-1ZM639,21h-1h1h-1ZM624,25h-1ZM628,26v1ZM601,25h-1ZM554,26l-1,-1h1ZM569,5h1ZM556,5h4v1h6l1,1h-1l-1,-1v1h-1v-1h-7l-1,-1h-1ZM584,12h3l1,1h-2l-1,-1h-5v-1l2,1v-1h1ZM646,26h2l1,1h1h-2l-1,-1l1,1h1h-4v-1h-1v1v-1h-2l-1,-1h-1h3l1,1h1h-1l-1,-1h1h-1h2ZM610,24h2v1h1h-2l-2,-1h-1v1h-1l-1,-1h-1h1v-1l1,1l2,-1v1ZM725,54h1h-2ZM734,58l1,1h-1v-1h-1l-1,-1l1,1ZM726,54h1h-2l-1,-1h-1v-1l2,2ZM732,57l1,1h1h-1l-1,-1h-1l-2,-2v1h1l1,1ZM717,50h2v1h1h-1l-1,-1h1v1h1h-1l-1,-1h-1l-1,-1h-1ZM730,57h2v1v-1h-2v-1h-2v-1h-1h1v1h2ZM658,26l1,1l-1,-1h-1ZM656,26h-1h1h-1h2ZM653,25h1ZM651,24h-1ZM648,27h-1h2ZM645,25l-1,-1h1ZM644,25h-1ZM643,28h-1ZM644,27h1ZM646,28v-1h-1h1ZM622,25h2v1l-1,-1h-2ZM616,25h-1ZM616,26h-1ZM626,26h-1ZM602,25h-1v-1h-1h2ZM603,25l-1,-1h1ZM611,18h-1ZM557,9h-1v-1v1ZM575,15h-2ZM585,26v-1h-1h1ZM581,26h-1l1,-1ZM572,26h-1l1,-1h1v1ZM578,17h1ZM553,26h-1v-1h1ZM554,25h-1ZM548,25h-1h2ZM530,26h-1l-2,-1h-1h4ZM499,22h-1ZM710,46l1,1h1v1h2v1h2v1h1h-1l-1,-1h-1v-1h-2v-1h-1l-1,-1h-1h1h-2v-1v1v-1l1,1ZM706,45h2l1,1h1l1,1h1h-1l-1,-1h-1l-1,-1l1,1l2,1h1l1,1l-1,-1h-1l-1,-1h-1l-2,-1h-1v-1h-1h1ZM703,43h1v1h1h-1h2v1h2l1,1l-1,-1h-1h1h-2l-1,-1l-2,-1h-2v-1v1v-1l1,1ZM720,51l1,1h2v1h1l1,1h1l1,1h1l1,1v-1h-1l1,1h1v1h2l1,1h1h-1l-1,-1h-2v-1h-1l-1,-1h-1l-1,-1h-1l-1,-1h-1h1h-1l-1,-1h-1Z"/>
<path class="sl" d="M716,49l1,1h1l1,1h1h-1l-1,-1h-1l-1,-1h-1ZM646,25h1l1,1h-1v-1v1v-1h-3v-1v1h1ZM593,25h-2v1h-2l1,-1h-1h5ZM598,25h1v-1l1,1h-1h1h-1v1h-1v-1h-2v1v-1v1h-1l-1,-1h2v-1h2ZM567,26h1h-3v-1l1,1ZM561,25h-1h3ZM551,25h1v1h-3l1,-1ZM545,25l-1,1v-1h-1h1h-1h3ZM531,24h-1h2ZM519,24h-1h2v-1v1ZM494,21h1h-2ZM740,205v1l-2,-1v-3l-2,-2v-1h1v-1l-1,-1v-1h1l1,1l3,2l4,4l-1,1h-2ZM725,188l2,1h2v1h-1l-1,-1h-2ZM731,191h1l1,1h1v1h1l-1,1l-1,-1v1l-2,-2h-1v-1h-1l1,-1ZM721,186h1v1h-1l-1,-1h-1h1h-1l-2,-2h2l1,1ZM709,181h-1l-1,-1h-1v-1l1,-1l2,1v1ZM703,180v-1h1v1ZM729,192h-1v-1l-1,-1h1v1h1ZM878,179v-1ZM884,186v-1h-1h1ZM889,191v-1l-1,-1h-1h1l1,1ZM879,180l-1,-1h1ZM879,179l1,1h-1ZM886,187l1,1v-1h-1v-1ZM795,96v1v-1v1ZM795,97h1h-1v-1h-1h1ZM799,99l1,1h-1h1h-1v-1h-1v-1h-1h1v1ZM803,103v-1ZM804,103h-1v-1v1ZM802,102v-1h-1h1ZM885,609v-1h1v1ZM589,510v-1v1h-1l-1,-1h1ZM600,488v1h-1v-1ZM591,511l-1,1v-1ZM131,451v2h-1l1,-1ZM129,464v-1h-1v-1l1,-1v-1l-1,1v-4h1v-1h1l2,-2h1l1,-1l2,-1h1v-1h1v-1h3l-1,2l-2,2h-1v1l-1,1v1h-1l-1,1v1h-1l-2,2l-1,2ZM123,465l2,-2v2h-1l-1,1ZM36,350v1ZM36,348v1ZM21,392l-1,1v-1l1,-1v-1v1ZM27,373v-1ZM27,374h-1v1v-1ZM22,400v-1ZM21,391v-1ZM22,383v1ZM22,393v1v-2ZM132,223l-2,2v2l-1,1v-7l1,-1v-2h1v-1l4,-6l1,-2h1l1,-1v-1l1,-1l2,-1l1,-1v-1v1h1v1l-1,1v1l-1,1l-1,2l-1,1v1l-2,2v2l-2,2v1l-2,2ZM125,216h-1ZM209,132h-1l2,-2ZM206,133h-1v-1h1ZM195,138v1v-1h1v-1v1ZM209,120l-1,1v-1ZM197,138v-1ZM204,134h-1ZM204,127h-1l1,-1ZM196,137v-1ZM230,114h-1v-1h1ZM191,145v-1l1,-1l2,-1h1v1l-2,1ZM379,402h-1v-1v1ZM441,425h-2l1,-1v1ZM434,418h-2v1h-1v-1l1,-1h2ZM387,430h-1v-1h-2l-1,-1h-1l1,-1l3,2h1ZM395,410v2l-1,-1v-1l-1,-1v-1h1ZM375,408h-1v-1h1ZM383,406h1l1,1h-3v-1ZM363,401v1l1,2h-1v1v-1h-1l-1,-1v-1h-2v1l-1,-1l1,-1l1,-2l1,1v1h1ZM367,406h-1l1,-1ZM366,405l-1,1l-1,-1v-1l1,-1l1,1h-1h1ZM360,406h-1l-1,-1v-1l1,-1h1v1l-1,1ZM354,400l-2,-2v-1h1l1,1h1h-1v1ZM353,402v-1ZM358,401h-1l-1,-1v-1h2v1ZM346,393v1l-1,-1l1,-1l1,1ZM362,406h-2l1,-1ZM380,409l1,1h1l3,-1l4,4h-1l-1,1l-1,-1h-6l-1,-1v-2l-1,-1h1ZM380,402h-1l-1,-1l-2,-1h-1l-1,-1h-2v-1h-1l-1,-1h-1v-1l-1,-1h3l2,2h2v1h2l3,2v1Z"/>
<path class="sl" d="M360,394v1h-1v-1h-2l-2,-1l-3,-3h-1v-1h2l1,1l2,1h1v1l2,2ZM388,400l2,2v1h-1v1h1l2,2v2l1,1v1l-1,-1l-2,-1l-1,-1l-3,-7h1ZM396,417h4v1l1,1v1h1h-5l-2,-2v-1h-2v-1l1,-1v1ZM31,429l-1,1v-1ZM616,444l1,1v2h-3l-2,-2h1l1,-1ZM623,450h-2l-1,-1h-1l-1,-1h2l2,1ZM333,65h-1ZM330,66h1ZM329,36h-2v1v-1h1ZM398,16h1v-1v1ZM350,32v1h-2v2h-1l-2,2h-1l-1,1v1h-1v1l-2,2v2l-1,1v2h1l-1,1v-1h-1v-1h-2l-1,1h-2l-1,1h-1l-4,3l-1,1v1h-1v1h1l-1,1v1h1v1l-1,1h-1h1v-1h-4v1h-2l-2,2h-1h1v-1l3,-3h1v-1l2,-2h1v-1h1v-2l2,-1l1,-1h1v-1l3,-2v-1h1l2,-2h1v-1h-1h1v-1l2,-2h1l1,-1h1v-1h1l1,-1h3v-1h1l1,-1h-1h1l1,-1ZM471,18l-2,-1h-1h2ZM461,1h1h-1v1v-1v1l1,-1Z"/>
<path class="sp" d="M461,2l1,-1"/>
<path class="sl" d="M332,35h1h-1l-1,1h-1l1,-1ZM454,11h-1l1,-1h3l1,-1h1v1h-4ZM464,17v1l-1,-1h-2l-1,-1h2v1h1ZM394,37h-1l1,-1h1h-1ZM405,32h-1h2ZM402,33l-1,1h-2l-1,1v-1h1l1,-1h1l1,-1h1v1ZM388,39v1v-1h1ZM401,32h-1ZM381,43l-1,1ZM373,47l-2,1l1,-1h1l1,-1h1ZM357,54h-2l2,-1h1l1,-1l3,-1h1l-2,1h-1l-1,1h-1ZM350,56h-1l-1,1h-2l-1,1h-2v1l-2,1h-2l-1,1l1,-1h1v-1h1l1,-1h2l1,-1h1v-1h1v1l1,-1l2,-1h1v1ZM335,64l1,-1ZM334,61l1,1l1,-1v1h-2l-1,1h-1l-1,1h-1l-1,1h-1l2,-1h1v-1h1ZM123,250l2,1h1l2,-2v1l-1,1v1l-1,2v4h1l-1,1v1l-3,6h-1l-2,2v1l-1,1v1l-1,1v2h-1h1v4l-1,1v2l1,1h2v-2l2,-2h1l1,1v2l1,-1v-1h3v1l-2,1v1l1,1v1l-1,1h1v-1l1,1v1l-1,2h-1l1,-1v-1h-1l-1,1l-1,-1v-2l-2,-1v-1l-1,-1v2l-1,1h1v2l-1,1v-2l-1,-1h-1l-1,-1l-1,1v1h-1v1h-1v1h-1v-1h-1l-1,1v-2l1,-1v-1l2,-2v-2h-1l-1,1v2h-1v-2l-1,1v-5l1,-3v-3h1v1h2v-4h1v-1l1,-2v-2l1,-1v-2l2,-4v-1l1,-1v-1h1v-1h1ZM87,336v1v-1l1,-2v-1l1,-1v-1l1,-1l1,-2h1v-1l2,-2l1,-2l1,-3l1,-1l1,-2v-1h1v-1l1,-1v-3l1,-2l1,-1v1l-1,1v5l-2,2v1l-3,3v1l-2,3v2l-2,2v1l-2,2v1h-1v1l-1,1ZM117,299h2v-1l1,1h-1l2,-1v1l-1,1v1l-2,2v1l-2,2l-2,1v2h-1v-2l1,-1v-2l1,-2v-3h-1h1v-1h1ZM118,317h-1v1v-2h-1l-2,-2l1,-1v-1l2,-2l1,-2v-2l1,-1v-2l1,-1h2v2l-1,1v1l-1,1v2l-1,1v2l-1,1l1,2v1ZM128,296h1l1,-1l1,1v1l-1,1v2h1v3h-1v1v-1h-1v2h-1v-2l1,-2v-1l-1,-1l-1,1v-5ZM134,286v1h1v2l-1,1v5l1,1h-4v-4h-1v-1h-1v-1l-1,-1v-1l2,-1h1l2,-1ZM111,289l1,-1v1h1v-1l1,1v5l-1,1v1h-1v1h-1v-1h-1l1,-1h-1v-4h-1v-1l1,-1ZM134,309h1v4l-1,1h1v2h1v1l-1,2v1h1v4h-1v2l-1,1h-1v5l-1,-1v-4l-1,-1v-1h-1v2l-1,1v1l-1,1v1h1v6l-1,2h-1v-3h-1v2h-3l-1,-1h-1v-1l-1,-1l1,-1l-1,-2v-1l2,-2v-1l-1,-1v-1h-3v4l-1,-1h-1v-1v1h-1v-1h-1v1l-1,1v1l-1,2l-1,1v2h-1v1l-1,-1v-1l1,-1v-1l1,-2v-2l1,-1v-1h1l2,-2h1v-2l1,-1v-1h1l1,-1v-1h1l1,1v3l-1,1l3,-3v-1l1,-1v-1h1l1,-1v-1l1,-1v-1h2v-1h1l1,-1v-5l1,-1v1h2v1ZM119,314v-1l1,-3l1,-2l1,-1v-2l1,-1v-1l1,-2v-1h1v-1v3l-1,1v3h-1v1l-1,1v1h-1l-1,3ZM127,247v-1h1ZM127,244l-1,1v-1ZM131,236v-1h1ZM132,233l-1,1ZM104,345l1,1v-1h1v1l-1,1v-1l-1,1h-1ZM86,341l-1,1v-2h1ZM102,314v-1h1ZM106,300l1,1h-1l-1,1v-2ZM105,304l-1,1v-2l1,-1v1ZM117,307v1h-1v-1l1,-1v-1v1ZM127,308l-3,3h-2v-1l2,-2v-1h1l1,-1h1l-1,2Z"/>
<path class="sl" d="M99,354v1h-1v1l-1,1v-1l1,-1v-1ZM110,340l-1,1v-1h-1v-1h1l1,-1h1v1ZM135,305v-1l1,1ZM133,305l-1,-1v-2h1v-1v3ZM109,288v1l-1,-1ZM117,286h1v1l-1,1h-1v-1ZM116,294l-1,2l1,-1h-1l1,-1v-1l1,-1v1ZM119,293v1l-1,-1v-1h1ZM123,288l1,1l-2,-2v-1ZM125,290v-1ZM125,291l1,1v2h-2l1,-1h-1v-1h-1v1l-1,1v-2l1,-1v-1h1v1ZM130,280l-1,1v-2l1,-2h1v2ZM119,281v1l-1,-1ZM120,275v1l-1,1v-2l1,-1ZM126,303v-1ZM131,305v1l-1,-1v-1h1ZM115,331l-1,1v-1h1v-1ZM131,328l-1,-1v-1h1ZM129,295h-1v-1h1ZM127,313h-1v-1h1ZM125,247h-1l1,-1ZM104,306l-1,1v-1ZM124,299v1h-1v-1ZM118,293h-1v-1h1ZM134,307v-1ZM130,294v-1ZM87,338v-1ZM121,315l-1,1v-1l1,-1ZM322,377h-1v-1h-1v-4l-1,-1l-2,-3l-1,-1h-2l-1,-1h-1l-2,-2h-1l-3,-1v-1h-2l1,-1h-1l2,1h1l1,1h3v1l1,1h3l2,2l6,5v4ZM314,374l1,-1h1l1,1h1l-1,1v1h1v1l-1,1v1h-1l-1,1h-1v1l1,1h1l-2,2v1h-4v2h-1v1l-2,1l-1,1h-1l-1,1h-1v1h-1l-2,1h-4l-1,-1h-2l-1,1l-3,-2h-2l-1,-1v-2h3l2,-1h1l1,1h1v-1h3l1,-1l1,-3v-1h1l-1,1v2l1,1h1l1,-1h1l1,1v-1h2v-1l1,-1v-1h1l1,-2h2l1,-1v-2l-1,-2v-2h2v1ZM232,430v-4l-1,-2v-10l-1,-2v-1l-1,-1l1,-1v-12l-1,-2v-20l6,1h1l2,1h2l3,1h5l1,1h1l1,1h5v1h2l1,1v1h3l3,3v1l1,2l-1,2h2l2,1h1l5,2h2l1,-1l1,1h1v1l1,1h1v3h-1l-3,1h-2l-1,1v1l2,2v2h1l1,1h1v1l2,1l1,1l2,1l1,1v2l2,1l1,2v1h2l2,-1h1v3l1,1h5l1,1h-1v1h-1v1l1,1h3l1,1l1,-1l1,1l2,-1l-2,1h-2v1h1l1,1l-1,1h-1v1l-2,-1h-1l-1,-1h-8l-1,-1h-1v1h-7v-1h-1l-4,-4h-1l-1,-1v-1l1,-1l-1,1l-2,-1l-1,-2l-2,-2v-1l-1,-1h-1v-1h-5l-1,-1h-3v-1h-3l-2,2h-3v-1h-1l-1,-1l1,1l2,3h-1l1,1h-3v1l1,1h-2l-2,2h-4l-1,1v-1h-1v-1v1h-1h1l1,1h1l2,-1l1,1h1l1,1h1v3h-1l-4,4h-1v-1h-2l-2,1h-4l-1,1h-1ZM283,391v1v-1h-1l-1,-1v-1h1l1,1ZM267,385h-1v-1h1v-1v1ZM319,363v1l-1,-1ZM315,362v1h-1v-1ZM296,354h-1l-1,-1v-1h1l1,1ZM309,423h1v-1h1v3l-1,-1h-2v-1l-1,-1v-1v1ZM303,420l-2,-1v-1l1,-1l1,1v1ZM309,412v1l-1,-1l1,-1h-1v-1h1v1ZM336,431v1h-2v-1h1ZM251,420h-2l1,-1ZM276,389h-1v-1l1,-1l1,1v1ZM275,360l2,1v-1h1v1h-2v1h-1l-1,1l-2,-1v1h-1v-2h2ZM301,362h-2l-1,-1l1,-1h2v1ZM304,418l2,1v-1h1v2h1l-1,1v-1l-1,1h-2v-2ZM321,412l1,1v-1l1,1h1v1h-2l-1,-1h-1h1ZM330,433h1l1,1h-4v-1v1v-1h-1v-1h1ZM251,421v1h-1l-1,-1h-1v-1v1h2ZM281,362v1h-1v-1Z"/>
<path class="sl" d="M314,362h-1v-1h1ZM308,428v1h-1v-1ZM328,370v1l-1,-1ZM347,390v1v-1l-2,2h-1v-1h-2l-1,-1v-3h-2v-1h-1l-1,-1v-4h2l2,2v1h1l1,2h1l1,1h1l1,1v1ZM336,380v1v-1l-1,-1v-1l1,-1v1l1,1v1ZM186,306v-2l1,-1v1l-1,1ZM209,113v1v-1h1ZM633,495h-1v-1h1ZM707,524h-1ZM440,331h-1ZM957,298v1v-2ZM958,307h-1v-1ZM939,263l-1,-1h1ZM918,228v-1l-3,-3v-1v1h1v1l2,2ZM917,229h-1v-2ZM920,231l1,1l-1,-1v-1l-1,-1l1,1ZM905,216l-1,-2l1,1ZM943,271v-1l-1,-1l1,1ZM934,254v1v-2ZM939,264l-2,-2h1ZM937,262v-1l-1,-1v-2l-1,-2v1l1,2v1h1v1ZM23,399v-2h2v4l1,-1v-1v1l1,-1v-2l1,-1v-1l1,2v1h1v17l-1,3h1v2l1,2v3l1,2v1h-1v-1v1h-1v1l-1,1v1v-2h-2v-1l-2,-2v-1h-1v-4l-1,-1v-20ZM85,369v1l-1,-1h-1l-1,1h-1v1h-2l-1,1h-1v1l-1,1v2l-1,2v6h-1v1h-1v5l-1,1v1h-1v6l-1,1h-1v1h-1v1h-1v1l-1,1h-3l-2,1v1h-1v2l-1,1v1l-1,1v1h-2l-1,1l-1,2l-1,1v-1h-1v-1h-1v-1h-1v-3h2l1,-1l1,1l1,-1l1,1v-1h-1v-1l1,-1v-6h1v-2l1,-1v-2l2,-1l4,-4v-1l1,-1v-3l1,-1l2,-6h1v-3h1v2h1v1h1v-3h1l-1,-1v-2l2,-2v4h1v-2l-1,-1v-1l1,-1h1v-4l1,-2h1v-2l1,-1v-2l1,-1l2,-4l1,-4h1v1l-1,1v1l1,-1v-1l1,-1v-1h1l-1,1l2,2v4h-1v1l2,-2v-1l1,1v1l-1,1l2,-2l1,1h1l1,1l1,-1v2l-4,4h-1l-1,2l1,1h1v2h-1l-2,2h-1ZM32,417h-1l1,-1ZM22,408v-2h1v1ZM22,400v1ZM85,347v-2h1v1ZM24,423v1ZM57,400v-1ZM87,369h-1v-1ZM492,300v1h-1ZM491,301h-1ZM493,311l-1,-1ZM493,312h-1h1v-1ZM493,317v1l-1,1l1,-1h-1v-1ZM506,332h-1v-1l-1,-1h1v2ZM508,336v-1h-1h1ZM493,315h-1h1l1,-1v1ZM630,357v1h-1ZM628,368v1ZM758,385v-1ZM776,452v-1ZM751,396h-1ZM741,332l1,1h-2l-1,-2v1h1v-1l-1,-1l1,1h1ZM725,313v1v-1h-1ZM624,354h1v1v-1h-1h1v1v-1ZM238,116l-1,1v-1ZM270,101v-1h1h-1l1,-1l2,-1l-1,1h1l-1,1ZM240,124l-1,1v-1h1v-1h1l1,-1l-1,1ZM204,154h-1l1,-1h1ZM206,153l1,-1v-1l1,-1v1l-1,1ZM207,144v-1l1,-1h1l-1,1ZM209,134v1v-1l1,-1v1ZM211,133h-1l2,-2v1ZM202,143h1h-1v1h-1ZM210,142h-1l1,-1ZM310,64h-1l1,-1ZM310,64h-1ZM290,79h1v-1v1ZM238,124h-1ZM268,115h-1ZM204,142v-1l1,-1v1h-1ZM207,139l1,-1v1ZM211,136h-1l1,-1ZM227,129h-1h1v-1ZM225,130v1h-1v-1ZM204,148h-1l1,-1ZM320,65h6l1,-1l2,-1l-2,2h-1v2h2v-1h1l-1,1h-1l-1,1h-2v1h-3l-2,1h-2l-1,1l-2,1l-1,1h-1v1h-1v1h-4l-1,-1h-1l-6,2h-2l-1,1v1l1,-1l1,1h1l-1,1h-3l-1,1h-1v1h-1v-1h1v-3l1,-1h2l2,-2h1v-1h1v-1l1,1h1l1,-1h1l2,-2l2,-1v-1l1,-1h1v-1l2,-2v-1h2v-1h1l1,1v1h1l1,1h1Z"/>
<path class="sl" d="M218,134h1v-1h1v1h-1l-1,1h2v2h-1l-4,4v1h-1v1l-3,3h-1v1l-3,3v-1h1v-2l1,-1v-1v1h-1v1h-1v2h-2v-1h1l1,-1v-1h-1h1v-2h1l1,-1h1l1,-2l1,-1h-1h1v-2h-1l-1,1v1h1h-1v1h-2l-1,1l1,-1h-1v-1h2v-1h-1v-1h2v-1h1v-1h2v-1l1,-1h1l1,-1h1v1ZM237,125h2l-1,1v1l-2,1l-2,2h-1v1l-1,-1h-1l-3,2l-4,4h-1l1,-1h-1v1v-2h1v-1h-1h1h-1l-1,1h-1l1,-1h1l2,-2h1v-1h1l2,-2v1h1v-1h2v-1h1v-1h1l1,-1h1ZM298,80h1h-1v1l-1,1v5l-2,2v1h-2v1h-1v1h-1v1l-1,1h-2l-2,1v1l-1,1v2l-5,5h-1v1l-1,1l1,1v1h-2v1h-1l-1,1v1h-1l-1,1h-1l-1,1h-1h1v-1l2,-2h1v-1h-1l-2,2v1h-3l-2,2v1h-1v1h-1v-1l1,-1h-2v1h-1v1l-1,1h-2l-1,1h-3l-2,1h1l1,-1h-2v1v-2h1h-1l-2,2v1h1l-1,1l-2,1h-1l-4,4l-2,1h-1v-3l1,-1h1l1,-1v-1l-1,1h-4v1h-1l-1,1h-1l-1,1h-2v1h-2l-1,1l-2,1h-2l-1,1v1h-1v1h-1l-1,-1l-1,1h-1v1h-3l2,-2h1l1,-1h1l2,-2h1l4,-4l2,-1l1,-1h1l2,-1h1l1,-1h2l1,-1h2l4,-2h1l-1,1l2,-1h1l1,-1h1v-1l1,-1v-1h1l1,-1h1l4,-4v-1l4,-2l1,-1v1l-2,1h-1v1h-1v2l1,-1h1l1,-1l3,-1l1,-1h1l2,-2h1l2,-2h1l2,-2h1l6,-6h1v-1h1v-1h1v-1h-1v-1h1l2,-2v-1l1,-1h2v-1h1v-1h2l-1,1h1l1,-1h1l1,-1h-1l-1,1v-1l1,-1h1ZM154,203l-1,1h-1l2,-2ZM151,205h-1v1v-1h1v-1ZM160,199h-1l1,-1ZM181,181h-1v1h-1l-1,1v1h-1v1h-1v1v-1l1,-1v-1h1l1,-1v-1h1l1,-1v-1v1ZM188,173h-1v-1h1ZM192,169h-1v-1h1v-1h1l1,-1v1h-1v1h-1ZM191,170h-1v-1ZM265,123h1ZM14,447l1,2v4l-1,1v-4l-1,-1l1,-1ZM18,469l-1,-1v-5l1,1v4ZM84,477v2l-2,2h-1v-1h1v-2l-1,-1l1,-2l1,-1h1v1ZM78,476h1l1,1v1l-2,2v3h-1l1,-1v-1h-1l-1,-1h-1l-1,-1v-1h2v-1l1,-1ZM37,448v1h1v5l2,-1v2l-1,1v1h1v1h-1l-1,-1l-1,1v-4l-1,-1l-1,1v-1l-1,1v-2h1v-3l1,-1v1v-2h1ZM114,427l1,2h-1v3l1,1v1l-1,1h-1v2l-1,1v-5l1,-1v-6h1ZM112,434v1h-1v1l-1,-1v-4l2,-2v4ZM46,398l-1,1v-2h1h-1v-1l1,-2v2ZM45,453v2h-1v-1v1l-1,1v-5l1,-1h1v1ZM189,369h2l1,-1v1h2v1l1,1h1h-1l-1,1h-2v-1l-1,-1h-2ZM190,376h6l2,-1h1v1h-1v1h-3v1v-1h-5ZM159,373h1v-1l2,1v1l-1,1h-2v-1h-1v1h1v1h-1v-1l-1,1v-1l-1,1h-1v-1l1,-1h1v-1h1ZM144,361h-1v-3l2,-2l1,1l-1,2v1ZM142,392v1h-2l-1,1h-1v-2l1,-1v-1h1l1,1h1ZM130,403h-1v-2l1,1ZM129,398l2,-1v1l-2,1h-1l-2,1v-1h2ZM123,399h2v1l-1,1h-1l-2,2h-1v-3h2ZM165,438h-1v-4l1,-1v-1l1,-1v-1h1v5h-1v1l-1,1ZM137,445v1l-2,2h-2l-1,1v1v-3h1l1,-1h1v-1l1,-1Z"/>
<path class="sl" d="M125,454h1l1,-1h1v1l-4,3v-3ZM160,383h-1l-1,-1v-1l1,-1h1v2ZM14,419l1,-1v-1l1,-1v1l1,1v5l1,1v1h1v1h1v4l1,1v1h1v1v-3h1v3h1l1,1v2l1,1v1l1,-1v1h1v1l-1,2l-1,1h1v-1l1,-1v-2h1l1,1v2l-1,1v6h2l1,-1v6l1,1v5l1,-2v-1h2l2,4v1l-1,2v3h1v3h-1l1,3v10h-1l-1,2h-1v3l-2,-2v-1l-1,-2l-2,-1v-1h-1l-1,-2l-1,-1l-1,-2l-1,-1v-1h-1v-3h-1l-1,-2v-3l-1,-4v-2l-1,-2v-2h-1v-3h-1v-2l-1,-1v-9l-1,-1h-1v-4l-1,-1v-3h-1v-2h-1v-10h1v1h1ZM115,462v1h-1v1h-2v1l-2,2h-1v-1v1h-1v1h-1v1h-4l-2,1l-1,1v-4l2,-2v-1h5l1,1h1v-1l1,-1h3l1,-1v-1l1,-1v-1l1,-1h-1v-1h1v3l-1,1h1v1ZM102,475h1v1h2v1l1,1h1v1l-1,1v1h-1v1v-1l-1,1l-2,-2h-1l-1,-1h-1v1h-2v-1h-1l1,-1v-1h1l1,-1h1l1,-1v-1v1ZM92,470v1v-1h1v-1h1v1v-1h1l1,1v2h-1v1h-1l-1,1v-1l-1,2h-1l-1,1v1l-1,1h-1v1h-1v1h-2v-5h1v-1h1v-1v1l1,-1h1v1l1,1v-1h1l1,-1v-1h-2l-1,-1v-1h1v-1h1v1ZM123,377l-1,2l-1,1v2l-2,2h-1l-2,2h-1l-1,1l-1,-1h-1l-4,2h-1l-1,1h-2v1l-3,1h-2v1l-1,1l-1,2v2l-1,1v4h1v2h2v2l1,1v-1h2v-1l1,-1v-1l1,-2v-1h1v1l1,-1h1v-1l1,-1l4,-2h-1l2,-2h1v1h1l-1,2v1h-1v-1h-1v1h-1v1l-1,1v2l-1,2l-4,4v1h-2v1h1l1,1h1v1l1,1v1l2,2v6h1v1h1v1h1l1,1v1l-1,1v-1v1h-1l-2,2v1h-1v3h-2l-1,-1v-4h1v-1h-1l-3,-3v-7h-1l-1,1h-1l-1,2v2l1,1v10l1,1v1l-1,2v2l1,2v1h-1v1h-1v1h-1v1h-1l-1,-1v-13l-1,-2v-2l-2,2h-1v-5l-1,-1l1,-1v-1l1,-1v-3l1,-1v-7l1,-3v-2l1,-1v1v-8l1,-2v-3h1v-1l1,-1v-1v1h1v-1h1v-2l1,-1v-1h3v1h1l1,-1h1l2,-1h3v-1h2l3,-1l2,-2l1,-2l1,-1v-1l2,-2v-2h1v1l1,1l-1,1v2ZM44,480v1h2v-1h1v-1l1,1v1h1v2h1v-1h2v-1h2v-1h1v-1l1,1v-1l1,-1v-4h1l1,1h1v-1h4v-1l1,1v2h1v2h3l3,-3l2,2v5h1v2l-1,-1h-6v1h-1v1l-1,1h-2l-2,2h-2l-1,1h-1l-3,-1l-3,1h-1v1h-1v2h-1l-1,1h-1v-1h-2l-2,2h-1v-3h-3v1h-1v1v-1l1,-2v-7h2v-1h2v-2ZM50,408v4h1v1h1v1h1v1l1,-1l1,-2l1,-1h2v-1l1,-1v-1l1,-1v-2h1v-1l2,-1h3l1,-1v-1h1v-1h1v-1h1l1,-1v-6h1v-1l1,-1v-5h1v-1h1v-6l1,-2v-2l1,-1v-1h1l1,-1h2v-1h1l1,-1h1l1,1v-1v3h1v1l-1,1v-1l-1,1h-1v1h-1h1l1,1l-1,2h2v2h1v2l1,1v1l-1,1v1h-1h1v1l1,1l2,1v1l1,1h1v2h-1l-1,1h-1l-1,1v-1h-1v-1v3h-1v1l-2,8v1l1,2v2l-2,2v2h-1v1h-1v-1v3l-1,1v1l-1,1v1h1v2l-1,1h1l1,1v1l-1,1h-1v1l1,-1v3l-1,1v4h-1v2l-3,4l-2,4h-1v-6l-1,1v-1h-1v1v-1l-2,2v1v-2h-1v1h-1l-1,-2v2l-1,2l-1,1h-1l-1,1v2h-1v-4l-1,-1v2h-1l-2,2v-1v1h-1v-1l-1,1v1l-1,-2v-6h-1v-6l-1,-1h-2v-1h1v-1h-1v-6l-1,-1v-6l1,-1v-1v1h-1l1,-2v-2l1,-1v-2Z"/>
<path class="sl" d="M140,372h1v-2l1,-1v-1l1,-1l1,-2h1v-1l1,1h-1l1,1l-1,2l-2,2v2l1,1h1v1h1v1h-2v-1l-1,1h-2v1h-1l1,1v1h-1l1,3l1,1l1,2v1h1h-1l-2,-1l-1,-2l-1,-1v-5h-1v-2l1,-1l-1,-1v-5l1,-1v-2l1,-1l1,-2h1l-1,2v5l-1,1l-1,2v1ZM152,398l2,1h1l1,-1l2,1v2h1v1h1l-1,2h-1l-2,-1h-2v-1h-2l-1,1v1h-3v-1h-1v1h-1v1l-1,1h-1l-1,-1v-1h-1v3l-1,1v-3l1,-2l1,-1l2,-1l1,-1h3l1,-1v-1h1ZM135,407h1v1h1v3h-1v1h-1l-1,1h-2l-2,-2v-3h2l2,-2ZM128,460v1l1,-1v1l-1,1v1h1v3l-2,2v1l-1,1v1l-3,3h-1v-2h-1v-4l1,-2l1,-1v1l1,-1h1v-2l1,-1v-1l1,-1ZM186,412v6h-2v-1h-1l-1,-1h1v-3h-1h1l1,-2v-1h1v1h1ZM185,419v1l-1,1v1l-1,1h-1v-3h1v-1h-1v-2h1l1,1ZM214,427l-4,2h-2v-1l2,-6l3,-3h2l2,2l-1,2l-1,1l-1,2ZM229,375v20l1,2v12l-1,1l1,1v1l1,2v10l1,2v4h-1l-2,-2v-1l-1,-1l-3,-2h-1v-1l1,-2l-1,1v1h-1l-1,1h-3v-1l-1,1v1l-1,1h-1v-3l1,-1v-3h-1v-1h-1v-1h2l1,-1l-1,1h-2l-2,-2h1l1,-1l-2,-2v-1h-1l-1,-2v-2l-1,-1l1,-1h-1v1h-1v-2h-1v-1h-1l-4,-2h-6l-1,-1h-6l-1,1h-1l-3,-2v-2h1h-1l-1,1h-2l-1,-1l-1,1v-1h-1l-1,-1v-3l1,-1h-1v3h-1v2l-1,1v2l-2,2h-1v-1l-1,-1v-1l1,-1l-1,-1v-1l-2,-1l-1,-1h-2l-1,-1h1l1,-1h1l1,-1l1,1l1,-2l2,-2h4v-1l1,-1v-1h-1h1v-1l-1,1h-2l-1,1l-2,1h-3l-1,1h-1l-1,-1v-1h-1v-3h-5v1h-1v-2h1v-2l1,-1h-1l1,-1h1l2,-2h1v-1l3,-3h4l2,1h3v-1h2v3l1,1v3l-1,1l1,1v4l2,4v-3h1v1l1,2h1v2l1,1h1l1,-1h1l1,-1v-1l1,-2l1,-1v-1l2,-2v-1l1,-1v-1h2l1,-1l2,-1v-3l2,-1l1,-2l2,-1h1l1,1h4v1h3l1,1h2l2,1h1l2,-1v1h1l2,-1l1,1ZM216,427h-2v-1h1v-1h1ZM24,430v3l-1,-1l1,-1v-2ZM26,436v1v-2ZM26,432v1h-1v-1ZM28,437h-2v-2h1v1h1ZM28,435v1v-1h-1v-1h1ZM28,438v-1ZM29,436v-1ZM31,430v2h-1v-1h1ZM32,428v1h1v1l-1,1v1v-2l-1,1v-1l1,-1ZM33,439h1l-1,1h-1v-2ZM32,441v2h-1v-1h1ZM30,444h-1v-1h1ZM50,434l-1,1v-2l1,-1v1ZM70,472h-1v1l-1,1h-1v1h-1l-1,-1l1,-1v-1h1l4,-3v1l-1,1ZM186,373v1h-1v-2h1ZM137,384l-1,1v-3h1v1ZM138,382l1,1v2h1v1h-2v-1h-1v-2h1ZM174,417v-2l1,-3v2l-1,2ZM173,417v1h-1v-3h1v1ZM144,408l-1,1h-1v1h-1v-1l1,-1h1v-1h1ZM135,349h-1v-1h1v-1l-1,-1h1v-1v1h1l-1,1ZM128,356h-1v-1ZM163,442h-1v-1l1,-2l1,1v-1v1l-1,1ZM156,441v1h-1l-1,-1v-1h2ZM144,446h1v1h-1l-1,-1ZM156,387v3h-1v1h-2l-1,-1l2,-1v-1h2ZM28,490l-1,-1h1ZM21,476l1,2l-1,-1v-2h1v1Z"/>
<path class="sl" d="M21,473v1l-1,1v-3ZM20,471h-1v-1ZM16,460v1v-2ZM12,443v-1h-1v-2h1v2ZM109,437l-1,1v-1l-1,-1l1,-1v-1v1h1ZM113,399l1,1h-1l1,1v-2h1v2h-1v1l-1,1v-2l-1,1v1h-1v-2l1,-1ZM106,396v1h-1v-1ZM101,448v1v-4ZM77,466l-1,1v-1l1,-1l1,1ZM79,438l-1,2v-7l1,2v2ZM119,481h-1v-1l2,-2v-2h1v2l-2,2ZM123,456v2h-2l1,-1v-1v1l1,-2ZM121,456l-1,1v2l-1,1h-1v-1l1,-1h-1l2,-2ZM118,458v1l-2,1v-1l1,-1ZM186,419v-1ZM29,433v1ZM30,434v-1ZM31,433v-1ZM33,438h-1v-1h1ZM38,408v-1ZM37,412h-1v-2h1v1ZM47,403v-1h1ZM47,439v1ZM42,454v-1ZM40,456v1ZM73,470v1h-1v-1ZM64,464v-1ZM38,491h-1v-1h1ZM14,442v1ZM13,418h-1l1,-1ZM116,403h-1v-1h1ZM114,423v2l-1,-1v-1l1,-1ZM113,405v-1ZM98,471v-1ZM96,468h-1v-1h1ZM80,481h-1v-1h1ZM85,369h2l-1,1h-1ZM85,376v1v-2ZM120,437v-1ZM117,432v1ZM103,454h-1ZM88,473v-2l1,-1v1ZM79,435v-1ZM137,374v-1ZM182,383v-1ZM177,402h1h-2v-1ZM159,379v1l-3,1v-1h2ZM157,377h-1h1v-1l1,1ZM151,377h-1v-1l-1,-1l2,1ZM138,380h-1l1,-1ZM138,375h-1v-1h1ZM137,387h-1v-2h1v1ZM146,406v1l-1,-1ZM145,407l-1,1v-1ZM134,350v-1ZM135,351v-1ZM126,363v-1ZM169,430h-2l1,-1ZM148,437h-1v-1h1ZM141,443h-1v-1h1ZM121,475h-1v-1l1,-1l-1,1ZM113,481h-1v-2h1v1ZM187,418v-1ZM186,421v-1h1h-1ZM141,403v1ZM139,407v-1ZM116,461v-1h1ZM11,414v-1ZM11,410v1ZM12,405v-1ZM12,407h-1h1v-1ZM12,405v1v-2ZM12,399v-1ZM14,388v1v-3h1h-1v1ZM16,381v1v-2ZM16,380v-3h1v-3l1,-2v-3l1,-1v-3l1,-1v-1v3h-1v3l-1,2v1l-1,2v3l-1,1v1ZM17,375v1ZM18,370v-1h1ZM584,441v-1ZM568,449h-1v-1h1ZM772,497v-1h1v1ZM782,507h1ZM772,499v-1h1v1ZM785,509l1,1v1h-1v-1h-1v-1l-1,-1h1v-1l1,1ZM861,462l1,1h-2v-1ZM861,464h-1ZM862,470v-1h1h-1ZM856,453h-1v-1h1ZM838,527v-1h1ZM859,454h-1ZM838,532v-1ZM838,530h-1v-1ZM862,542v1v-1h-1v-1h1ZM859,539v-1ZM845,557v-1ZM831,509l1,-1ZM825,511v1v-1h-1ZM824,511l-1,-1ZM816,502v-1h-1h1ZM813,505h-1v-1ZM421,501h2l1,1l4,2l1,1h1v1h1v1l1,1h1v1h1l2,2h1l2,1l3,3h1l2,2l-1,1h-3v-1h-2l-2,-2h-1l-1,-1h-1l-2,-2h-2l-9,-9v-2h-1v-1ZM449,520v1l-1,-1ZM386,495v-1l1,1ZM452,510h2l-2,2v-1h-1v-2h1ZM440,504v-1l1,-1v-1v3ZM447,508l-1,-1h-1v-1h-1l1,-1h1l-1,-1h-1l2,-1v2l2,2ZM183,883l-1,-1h1v1h1h-1v-1h-1v-1h-1h2v1h1v1v-1v1l1,1v-1v1h1v1v-1v1l2,2h-1v-1h-1v-1h-1l-2,-2h-1v-1h-1v-1v1h1v1Z"/>
<path class="sl" d="M183,883l-1,-1ZM551,464l-3,3v2l2,-2h1l-1,1l1,1h-6v-1h-1l-1,1v1h-2l-1,1v-1l-1,-1v-1h2l2,-2h3l2,-2h2ZM537,474v1h1l1,1v3l1,1h-1l-1,1h-2l-1,1h-2l-1,-1h-2l-2,-2v-1h1v-2l1,-1h1l2,-1h2l1,-1v1ZM551,471v-2h2l-1,1ZM551,471h-1v-1l1,-1v1ZM538,488l-1,1v-1h-1v1h-1v-1h2ZM559,480h-1ZM561,482v1l-1,-1ZM565,480h-1l1,-1ZM560,474h-1v-1h1ZM562,491v-1ZM552,488v1ZM528,472v-1ZM546,474v-1ZM545,481v-1ZM541,477h-1l1,-1ZM552,467h-1l1,-1ZM552,464h-1ZM528,432h-1v-1h1ZM560,504v-1ZM124,216v1ZM164,164h-2v-1h2ZM161,172h-1v-1h1ZM161,172v1ZM135,206l-1,1v-1l1,-1ZM83,259v-1v1h-1v1v-1ZM149,186l1,-1v1ZM100,239h-1v-1ZM93,249v-1h1h-1ZM93,249l-1,1v-1ZM81,265v2l-1,1v1l-1,2l-1,1v1l-1,1v2h-1v1l-1,1h-1v1l-1,1v1l-1,1h-2v-3l1,-3h1v-1l2,-2v-1l1,-1v-1h1l2,-2v-1h1l1,-1v1v-1h1ZM97,243h1ZM101,240v-1h1h-1h1v1h-1v1h-1v-1ZM101,241h-1ZM100,242h-1l1,-1ZM933,678h1ZM769,921l-2,2l-2,1l-1,1l-4,2l-1,1l-2,1h-1l1,-1h1l1,-1h1v-1h1v-1h1l1,-1h1v-1h1l-1,1v-1v1h-1h1h-1v1h-1l-1,1l2,-1l2,-2h1l1,-1l-1,1l1,-1l-2,2v-1l-2,2h-1l-2,2h-1h1l3,-2l1,-1h1l1,-1h1v-1h1l2,-2h1l1,-1h1h-1l-1,1h1v-1l-2,2ZM750,933h-1h1l1,-1h1v-1h1l1,-1v1h-1l-1,1h-1ZM804,897h-1l-2,2h-1v1h-1l1,-1h1v-1h2v-1h-1v1h-1v1v-1h1v-1h2v-1h1h-1h1l2,-2v1h-1ZM808,893h1l3,-3h1h-1l-3,3h-1h1ZM780,913l-1,1h-1v1h-1l-2,2v-1h1v-1h2v-1h1l2,-2h1h-2ZM808,894h-1h1v-1h1l2,-2h1v-1h1h-1h1l-1,1h-1v1h-1l-1,1ZM773,917v1h-1v1h-1l-1,1h-1h1l1,-1h-1h1l1,-1h1l1,-1ZM789,907l-1,1h-1l-1,1h-1v1v-1h1l2,-2ZM757,928l-2,2h-1v1h-2v1h-1l-1,1h-1h1v-1h2v-1h1v-1h1l-1,1v-1h2v-1h1v-1h2ZM767,922l-1,1h-1v1h-1l1,-1h1v-1h1l1,-1h1h-1v1ZM827,878h1l1,-1l-1,1ZM829,876h1l1,-1l-2,2Z"/>
<path class="sp" d="M826,879v0M829,877l-1,1h-1M831,875l-2,2"/>
<path class="sl" d="M831,875h-1ZM796,902l1,-1h1h-1v1v-1ZM807,894l-1,1v-1h1l1,-1v1ZM813,889h1ZM791,906h-1h1h-1h1v-1l-1,1h1v-1h1h-1ZM798,901v-1h1v-1h1l-2,2v-1ZM786,909l1,-1h1h-1ZM824,881l3,-3v1h-1l-1,1ZM746,935l1,-1v1ZM760,926l-2,2h-1h1v-1h1l1,-1h1v-1v1v-1h1h-1v1ZM746,935h1v-1h1h-1ZM735,59l1,1h1l1,1h1h-1h1v1v-1h-1h1l1,1h1l1,1h-1l-1,-1h-1l-1,-1h-1l-1,-1h-1v-1h-1ZM743,64h1l2,2h1l2,1l1,1h1h-1l-1,-1h-1l-1,-1l-2,-1l-1,-1h-1h1h-1l-1,-1h-1h1ZM772,81l2,1l1,1l2,1h1v1h1l1,1h1l2,2h1v1h1l1,1l2,1l3,3h1l1,1h1v1h1v1v-1v1v-1h-1l-2,-2l-2,-1l-1,-1h-1v-1h-1l-1,-1v1v-1h-1l-2,-2h-1v-1h-2v-1h-1v-1h-2v-1h-1h1h-1v-1h-2v-1h-1l-1,-1h-1v-1v1h1h-1v-1h-1h1h-1l-2,-2h-1h1v1h1ZM739,61h-1v-1v1ZM753,69h-1ZM744,64h-1v-1h-1h1ZM749,67l-2,-1v-1h-2v-1l2,2ZM738,60h-1h1v1ZM754,70l2,1h1l1,1h-1v-1h-1l-1,-1h-1v-1h-2v-1h-1h1v1h1ZM782,88h1h-1v-1ZM786,90h1h-1l-1,-1h-1v-1v1h1ZM779,86l-1,-1h-1v-1l1,1h1ZM780,86h1h-1l-1,-1h-1h1ZM756,71l-2,-2h-1l2,1ZM765,76h-1l-1,-1l1,1ZM758,72h-1v-1h-1l1,1ZM752,68h-1l-1,-1l1,1ZM752,68h-1l-1,-1l1,1ZM793,95l-1,-1ZM792,94l-1,-1h-1ZM781,87v-1h-1h1ZM37,352v-1ZM24,369v1v-2ZM23,377v-1ZM25,364v1v-1l1,-1v-1v1ZM27,360v-1ZM26,361v1ZM28,355v1l-1,1v-2ZM26,359v-1ZM27,340v1v-1l1,-1v1ZM34,329v-1ZM33,322v-1h1v-1v1h-1ZM36,313v1v-1h1ZM36,315v1h-1v1v-1h1ZM25,368v-1ZM25,363v1v-2ZM27,358h-1v1v-1ZM28,351v1ZM28,340v-1ZM36,314v1v-2ZM74,370v1l1,1v2h-1v-3ZM74,370l-2,2v2l1,1h-1v3h-1v-1h-1v-2h-1h1v-1h1v-1l1,-1v-1l2,-2ZM250,450v3l3,3v2l1,2v1l1,2v3l1,1v2l1,1l2,1l1,-1v-1h1l1,-1l2,2l2,1l1,1h1l1,1v5l1,1l1,2v1l1,2h-1l1,1v1l1,1v1l2,1h1v1l2,5v6l2,1l1,1v2l3,3h3l1,1h1l1,-1v1h1v1l2,1h1v1h2l2,1h2l2,2v1h-1v1l5,5v1l2,2v1l2,4v1l1,1l1,-1v1h1l-1,-2v-1h1l2,2h1l1,1v-2l2,2v3l2,4v1h1l1,1v1h1l2,1l1,1l1,-1l1,1v1l4,4h1l1,1v1l3,3l1,2l1,1v1h1v4l1,5v2l3,5l1,1v1l2,4v5l-1,2v14l1,1v3l-1,4l-1,2v3l-1,1v2h-1h1h-1l-2,2v2l-1,1v2l-1,1v2l1,1h-1v2l-1,1v6h1l-1,1v-1v2h-1v5l-1,1v2l1,2v6l1,2v2h-1v1l-1,1v1h-4l-4,1v1h-2l-1,2l-1,1l-2,4l-3,1h-1v1l1,1v-1h1v2h-1l-1,-1h-1l-1,-1h-2l-1,-1v-2h-2v1l-1,1h-1l-1,-1h1l1,-1v-1l-1,-1h-1l-2,1v1h-1h2v1h-1v1l-1,1l-1,2l-2,2l-1,-1h-2l-2,-1h-1l-1,-1h-1l-1,1l-2,-1h-1v1l-1,1v-1l-2,-1h-4l-2,-1l-1,-2l-3,-2h-1l-1,-1v-4l-6,-6l-2,-1l-1,-1h2v-2h-1l-1,1v1h-1l-1,2h-2v-5l-1,-3l-4,-4v5l1,4h-2l-1,1h-1v1h-1v-3h1v-1h1v-2l-1,-1v-9l-1,-1v-2l-1,-3v-1h-1v1l1,1l-1,1v6l-1,1h-1v1l-2,2v4l-1,2v1h1v2l-1,-1v1h-1l-1,-1h-1v-1h-2v-1h1l1,1l-1,-2l-1,-1v-1l-1,-1v-1h-2l-1,-1l-1,-2v-1h-4l-1,-1l-1,-2l1,-1l-1,-1l-2,-1l-1,-1h-3l-1,1l-3,-1h-1l-1,1h-1l-4,-2h-4v1h-1l-4,1l-4,2l-3,3l-2,3l-2,1l-1,2h-1l-2,1l-3,1l-1,1l-1,2v1h-1l-1,4h-1l-1,1v1l-1,1l1,3v3l-2,2h-2l-2,2h-3l-1,1l-3,1l-1,1v1h-1l-2,1v5h-1l-1,1v3l-1,2v1l-1,1l-2,1h-1l-2,1l-2,-1h-1l-2,-1l-1,-1h-2v1l-1,-1v-1h-1l-2,-4h2v-3l-1,-1v-2l-2,-2v-1l-3,-6v-1l-6,-6l-1,-2l-3,-3l-1,-3v-1l-1,-1l-1,-2l-4,-4l-1,-2l-2,-1v-1l-2,-3l-1,-2l-3,-3l-3,-2l-1,-1v-2l3,3v-2l-1,-1h-1l-1,-2l-1,-1v-1l1,1h1v2h1v1v-2l1,2l1,1v-3l-1,-1v-1l-4,-4l-1,-2l-3,-3l-1,-2v-3l-1,-1v-5l-1,-2v-1h-1v-2l-1,-2v-5l1,3l1,1v1v-1l1,-1h-1v-5l2,-2l1,-2v-3l1,-1v-1l2,-4v-2h3l1,-2l2,-2v-1l2,-2l1,-3l1,-1h2v-1l5,-5v-1l1,-1v-2l1,-2v-6l1,-1l1,-3v-1h-1l-1,-2v-2l-1,-1v-2l1,-1v-2h1v-4l1,-1l1,2l2,2l1,2v1l1,1v-3l-1,-1v-1h1v1h1l-1,-1l1,-1h-1v-1h-1l-1,-1v-4l1,2l1,-1v-1h1v1h1l1,-1h1h-2v-2h1v-3h-1v1l-1,-1v-2h1v-3l2,1v-1h-1v-3l1,1v-1l1,1v-1h-1v-4h1v-1h1l-1,-1v-1h1v1h1v1h1v-5h-1l1,-1v1h1v1v-1l1,-1l1,1v-1l1,-1l-1,-1v-1h2l2,1h1l3,3l2,1v5h1v-1l-1,-1h1v-2l1,-1h4v2h1v-3h1l1,1v1v-3h1h-1v-1h-1l1,-1h-2v-3l1,-1v-5l2,-2v-1l-1,-1v-2l1,-1v-2h2l-1,-2h2v-2h1v-1h1v-1l1,1l2,-1h2l1,-1h2v-2h1v-1l-1,-1v-2l-1,-1h-1l-1,1h-1l-1,-1h-1l1,-1h2v-1h1l2,2l1,-1h1l2,2l1,-1l1,1h1l2,-1l1,1h3l1,-1h1v1h3l3,-3v-1l1,-1v2l-1,1v1h1l1,-1v2h2v-3l1,-1v-1l1,2h2l1,1l-3,5l1,1l-1,2v1v-1h-1l-2,2v3l1,1v3l-1,1v1l-1,3l-1,1l1,1v1l3,1l1,1h1l1,1v1h3v1l1,1l1,-1h1l1,1h1l1,1h2l1,2l2,1h7v1l1,1l1,2h1l2,1h2l1,1l1,-1l2,-1l2,-2v-4l2,-3v-16l-1,-5v-2l-1,-1v-9l2,-2v1v-1l-1,-1h-1v-4l1,-1h1l-1,-1l1,-3v-6h1l1,-1v-1h1v1l2,2v2l1,2v2h1Z"/>
<path class="sl" d="M340,557l-1,-2v-3l1,-1v-2h-1l1,-1l1,1v2l-1,5ZM229,496v1h-1l-1,1v-1l1,-1v-1h1l1,-1l1,1h-1ZM207,477l1,-1v2h-1v1l1,1h1v1h-4v-4l1,-1ZM163,471h1l1,1h-2l-1,1h-1v-1h1v-2h-1l1,-1v-1l1,1v1ZM164,468h1l1,-1h1v-1h1v-1l1,1h1v2h-1v1l-2,3l-2,-1l-2,-2v-1l-1,-1h2ZM108,629v1l-1,-3l-1,-1v-1l1,2l1,1ZM260,660l1,-1h1l1,1h-1l-1,1v1l-1,1v-1h-2v1h-3l-1,-1v-1l3,-1l1,-1h2ZM314,671h-2v-1h1ZM313,672h-1ZM303,514h-1v-1ZM302,513v-1ZM323,539l1,1v2l-2,-2v-1ZM317,530h-1v-1h1ZM312,529v1v-2ZM346,571v2h-1v-2ZM345,570l-1,-1v-2h1v2ZM243,441l-1,1l-1,-1l1,-1ZM243,437h-1v-1ZM241,437v-1ZM280,500v1h1v1h-1v-1h-1v-1ZM203,456v1v-2h1v-2v2ZM202,459l-1,1v-1l1,-1v-1v1ZM212,493v1l-1,-1v-1h1ZM210,492v-1ZM208,493v-1ZM230,500v1v-2l1,1ZM204,478h-1v-1h1ZM177,463l-1,1v-2h1ZM137,507h-1v-1h1ZM135,515h-1v-1h1ZM102,581v1h-1v-2h1ZM317,690h2l1,1h2l1,1h4l1,-1l1,1v-2h2v-1l1,1v-1l1,-1h1l1,-1l1,1h1v2l1,1v2l1,1v1l1,1v2l-1,-1v6l1,2l1,1l-1,1l-2,-2h1v-1h-2l1,1l-1,1v-1l-1,-1v1h1v1h-1l1,1l-1,1l-1,-1v1h1v3h-1l-1,-1h-1l-1,1h-1l-1,-1h1v-1h-2l-2,-1v-1h-1l-2,-3l-2,-2h2v1h1v-1l-2,-1h-1v-1l-2,-1l-1,-2l-2,-2v-1l-1,-1v-2l-1,-1h1ZM309,686v-1h-1v-3h1v2l1,1v1ZM332,679l2,1l1,1v2h-1l-2,-2v-1v1l-1,-1ZM338,709h-1v1l-1,-1h1v-1h1ZM340,702v1v-1h1ZM338,707h-1v-1ZM315,689v-1ZM336,683v1h1l-1,1v-1h-1v1l-1,-1h1ZM336,685l-1,1v-1ZM425,785v-1ZM44,522h-1v-1h1ZM24,561v-1ZM24,561v-1ZM205,893v1h-1v-1ZM755,929h2l2,-1l1,-1l4,-2l1,-1l2,-1l2,-2v1l-2,1h-1l-1,1l1,-1v1h-1l-1,1l-2,1h-1l-1,1l-2,1l-1,1h-1l-2,2h-1l-2,2h-1l-1,1h-2v1v-1h2v-1h1l1,-1l2,-1l1,-1h1ZM745,936l1,-1v1Z"/>
<path class="sp" d="M745,936v0"/>
<path class="sl" d="M680,943h1ZM674,968l-1,1h-1h1v-1h1h-1h1h-2l-1,1v-1h2l1,-1l-1,1l1,-1h-1h1v-1l-1,1l1,-1h-1v1h-4l-1,1h-1v1h-1h1h-1l1,-1h1h-3v1v-1h2l1,-1h1h-3v1v-1h1h-5v1h-2v1h-1v-1l-1,1h-3l-1,1h-1h2l-1,1v-1l-1,1h-2l-1,1h-3l-1,1h-3l-1,1h-4l-1,1h-1h1h-2l-1,1h-7l-1,1h-4l-1,1h-4l1,-1h1h-2v1h-8l1,-1h1h-6v-3h-1v-1l2,-1v-1l2,-1h1h-1h1v-1h-1l-2,1h-3l-1,1h-1l-1,1h-1l-1,1l-1,-1h-2l1,-1h2l1,-1l2,-1l1,-1v-1l-6,3h-3v-1h1l4,-2h1l1,-1h1h-1l-1,1h-5l-1,1h-1l-1,1h-1l-1,1l-2,1v1h-4l-1,-1h1v-1l-1,1h-1v1h-6v1h-2v1h1v1h-4l-1,1h-1l-4,1h-2l-1,1h-1l1,-1h1v-1v1h-2l1,-1h-4l-1,1h1h-1v1h-1l-1,-1h-8l1,1h1l1,1h1v2h-1l-1,1h-2l-1,1l-1,-1h-3v1h1l1,1v1h1h-1v1h-3v1h-1h1h-1l-1,1h-3v1l-9,1v1h2l1,-1h13v-1h8l1,1v1h-1v1h-2l-1,1h-1l-2,1h-3l-3,1h-3l-1,1h-6v1h-3l-1,1h-1h1h-1l-2,1h-1h1h-5l-1,1h-30v-1h-21l-2,-1h-9l-2,-1h-8v-1h-7l-1,-1h-6l-1,-1h1h-4l-1,-1h-4l-1,-1h-4l-1,-1h-3l-1,-1h-4l-1,-1h-4l-3,-1h-1l-2,-1h-4l-1,-1h-5l-1,-1h-1h1l-1,-1h-1l-1,-1h-2l-1,-1h-3l-1,-1h-4l-1,-1h-2l-1,-1h-2l-2,-1h-2l-1,-1h-2l-1,-1h-2l-1,-1h-2l-1,-1h-2v-1h-2l-1,-1h1v1h1l-1,-1h1h-2l-1,-1h-2l-1,-1v1h1h-1l-1,-1h-1l-1,-1h-2l-1,-1h-3l-1,-1l-3,-1l-2,-1l-1,-1h-2l-2,-2h1v-1h1l1,1h2v1l3,1l-1,-1h-1l-1,-1h-1v-1h1l-1,-1h-1v-1l-1,-1v-1h-2l-1,-1v-2l-1,-1v-1l-1,-1h-1v-1l2,1h3l1,1h1l1,1h3l1,1h1l1,1h3v1h1v1h2v1h2l-2,-2h1l1,1h1l3,1h1l1,1h2l1,1h2l4,2h3l3,1l1,1h1v-1h-1l-1,-1h-3v-1h-2l-1,-1h-1l-1,-1h-1l-1,-1h-2l-1,-1h-1l-1,-1h-3l-1,-1h-2l-1,-1h-1l-1,-1h-1l-1,-1h-2l-1,-1h-1l-1,-1h1v-1l-2,-1h-1l-3,-3h-1l-1,-1h-1l-2,-2h-2l-2,-2h-1l-1,-2l-1,-1l-2,-1v-2h-1l-3,-3h-1l1,-1l-1,-1v-1l-2,-2l1,-1v-2l-1,-2v-1h1v-1l1,-1l-1,-1l1,-1h1v-2h1v-2h2v-1l-1,-1v-1l-1,-2h-1v-1h1v-1h-1l1,-1h4l1,-1h3l2,-1h6v-3h-1l-3,-3v-1l3,-3v1l1,-1l1,1l3,1h5l1,1v3h-1l1,1h1l1,-1v-1l1,-1v-1l1,-1v1l1,-1h1v-1h2v-1l1,-1h1v1l-1,1v1h1l2,-2v-1l1,-1v-2l3,-3h2v-1l-1,-1h4l2,1h2l1,1l1,-1h3v-1l-1,-2l-1,-1v-2h1l1,-1h2l1,-1h2v-1h4l1,1l1,-1v-2h1l1,1h3v-1h4l1,1v-1h11l1,-1l1,1h2l1,-1h2l1,1l1,-1l1,1v2l1,1v1h1v-1h1v-1h4l3,1v1h1v1h7l2,-1h2l1,-1h1l1,2v1h1v-1h6v-3h1l2,1l1,1h1v1h3l2,1h4v-1l1,1h2l2,1h2l1,1v1h1l1,1h1l1,1l2,3h1l1,1v-1l-1,-2v-1h1l2,1h3l1,-1l1,1h7l1,1h1v1l1,1h2l2,1l1,1h1v-1l1,1h1v1l-1,1h-1v2h1l-1,1h-3l-1,-1v1h2l2,1l-1,1v1h-7l-1,-1v1l1,1h2l1,1h-4v1h-1h1v1h-2v-1l-1,-1v2l1,1h-1l2,2v1h-3l-1,-1h-1v2l-1,1l1,1v1h-3v1h3v1h1l1,1v1h-1h1l1,2h-1h1v2h1v1h1l1,1v1l1,1h1v1l-1,1h2l1,-1l2,2h1v1h-1v-1h-3v1h-2v1h-1l-2,-2v1l1,1v1l-1,-1v1l-1,1h1v1h-1h1v2h1l-2,2h3v1h1h-1v1h1v1h1h-1l2,2h2v1h1l1,1l-1,1h-1h4l1,1h2v1h1v1l2,1h2l1,1h2v1h3v1h3v1h5l2,1v1h3l1,1h1l1,1h1v-1h1h-1l-3,-2h-1v-1h2v-1h1l-1,-1h-2v-1l-2,-1v-1l-2,-1h3l1,1h1v1h3v1h2v1h5l1,-1h-1h3l1,-1h3l1,-1v-1l1,-1h1v-2h-1v-1h7l5,1v-2h-1l1,-1h4v-1h2l-3,-3v-1h1h-1l-1,-1h-1l-1,-1v-2h5l-1,-1h-3l-1,-1v-2h1l3,-3v1h4v1h2v2h3v2h5v-2h1v1h2l-1,1l1,1h1v-1h1v-1h1l1,-1v-2h-1l-2,-1h-1v-1h4l1,1v1h2v-2h10v2l1,-1h2l2,-1l2,1h2l1,1h1l2,-1h3v1l1,1h2l1,1h1v1h2v1h3l2,2h1v1l3,1l2,1l1,1h1l1,-1l1,1v1h1v1h2l3,-1h1l-2,2h-2v1h-4l-1,1h2l1,1h1v-1h3l1,-1l1,1h-1v1h-2l-1,1h-5v1h1v1h1l-1,1v1h1h-1l2,1h1v1h1v2h-2l-1,1h1l1,1h-1h2l1,-1h1v-1h2l1,-1v-1h1l2,-1h1v-1h1l1,-1h1v2h-1l1,1h1l2,-2v-2l1,-1h1l2,-1h1l-1,1h-1l-1,1l1,1l-1,1h1v2h-1l-1,1v2l-1,1h2l-2,2v1h1l2,-1v1h1v1h-4v1l-2,1l1,1h-2l-2,2h-1v1h-1l-1,1h4l-2,1l1,-1h3l-1,1h-1l-2,1h-2v1h-1v1h-2l-1,1h1h-1l-1,1l1,1h-1h1l-1,1v1h-1v1h7l1,-1h4l1,-1h3l3,-1h1l2,-1h3l1,-1h1l-2,1h3l1,-1h1h-1h5l1,-1h2l1,-1h2l1,-1h1v1h-3v1l1,-1h3v-1v1h1l1,-1v1l1,-1v1h-1h2l1,-1h1l-1,1h-1h1v1h1v-1v1h-1v1h-1v1h-1Z"/>
<path class="sl" d="M561,986h-1l-1,1h-1v-1h-5v-1h-1l4,-2h-1l4,-2h2l1,1h1h-1v1h1l1,1h5l1,1h1l-1,1h-3l-2,1h-4l1,-1ZM568,979h-4l2,-1h3v-1h3l1,-1h1v1h-2l-2,1h-1v1h3l-1,1l-1,-1h-1v1h-1ZM660,965h-1v1h-1l-2,1h-3l-1,1h-3l-2,1h-2l-2,1h-1l-3,1h-5v-1h1v-1h1v-1h2v-1h2v1h-1l-1,1h-1v1l2,-2h1v1l2,-1l1,-1h1h-1l1,-1h-1v-1h3v-1h2v1h-1h1h-1v1h-1h1v-1h1v1h-2v1l1,-1h1l-1,1h1h-1v1h-1h2v-1h2l1,-1v1l-1,1l1,-1h2v-1h1l1,-1h2l1,-1h3l1,-1h2l-2,2h-1ZM655,944h-2h1v1h-1h2l-1,1l-1,-1l-1,1h2l-1,1h-3v-3h1v-1h1v-2l1,-1h1l1,1v1h-1h1v1h1ZM627,930l-1,1h-5v-1h1v-1h2v-1h2l1,1ZM624,924v1h-1v1h-1v1h1v1h-2v1h-1l-1,-1l1,-1v-2h1h-1l2,-2h2ZM540,934h-2v-1h-1l-2,-2v-2h2l1,-1h1v1h1v2h1v2ZM487,919l1,1l2,-1l1,1l-1,1h-3v1v-1h-1v-3ZM537,989h-1h3ZM543,989l4,-1v1h-3ZM581,975v-1h6v1h1l1,1h-4v-1h-3ZM672,969h-2l-1,1h-1h1v-1h3v-1h1h-1ZM671,969v1h-2h2v-1h1h-1h1ZM685,964h-1v1l1,-1h-1h2ZM681,964h-1l1,-1h1ZM679,965l1,-1h-1h1ZM669,964h-1h1l1,-1h2v1h-2ZM653,964h-1v-2h2v1h1h-1l-1,1l1,-1v1ZM662,961l-1,1h-2l1,-1h1ZM635,967h-2v1h-2l4,-2h3l-1,1h-1ZM644,953l2,-1h2l1,-1v1h-2v1h-2ZM489,923l-1,1v-1l-1,1h-1v-1h2v-1h1ZM303,906v1v-1l-1,1v-1h-1v-1h2ZM409,991h1h-2v-1ZM499,1000h1ZM492,1000h-2ZM575,977h1v-1h3l-1,1h-2ZM580,976h1v-1l1,1h-1ZM682,966l1,-1l-2,1ZM670,970l1,-1ZM667,970h1ZM673,969l1,-1h1h-1v1ZM672,969h-1h1l1,-1ZM643,973h2l2,-1h1v1h-4ZM688,963h-2l-1,1v-1h2l1,-1h1h-1h1h-1ZM658,964h1l1,-1h1l-1,1ZM649,948h1v1h-1ZM643,941l1,-1h1ZM626,932h-1v-1h3l-1,1ZM613,928v-1h1l1,-1v1l-1,1ZM524,946h-1h1l-1,-1h2v1ZM532,941l-3,-1l-1,-1h2l1,1h1ZM478,907h-1v-1h1ZM476,911v1ZM490,900v1l-1,-1h1l-1,-1h1ZM470,867h-1v-1h1ZM464,863v1l-1,-1ZM461,861v1l-1,-1v-1ZM302,913v-1h1v2ZM307,909h-1ZM307,912h-1v-1h1ZM304,902h-3v-1h1l1,1ZM297,917h1h-1v-1ZM304,929h1h-3l1,-1ZM303,927v1l-1,-1ZM302,928v1h-1v-1ZM349,959h1ZM353,961v-1h-1h1ZM338,954h-3v-1l1,1h1ZM339,970l1,1h-1v-1h-1ZM435,996h1h-1l-1,-1h-1h1ZM474,999h-1ZM491,1000h1ZM478,999h1v1ZM490,1000h-1h2ZM469,999h1ZM535,997h-1h2ZM526,998h1v1h-1ZM517,999h1ZM540,989h-1ZM678,967h1ZM685,964h1ZM640,975l1,-1ZM647,973h1ZM635,976l1,-1v1ZM632,976h1ZM685,964h1v-1h1h-1v1Z"/>
<path class="sl" d="M685,964v-1v1v-1h1h-1ZM679,965h1ZM689,961h1ZM677,964v-1h1h-1ZM676,963h-1h2ZM672,964h1ZM666,966v-1h1ZM654,965l-1,1h-1l1,-1ZM633,968h-1h2ZM647,950h1ZM628,934h-1v-1h3v1h-1ZM608,924h-1l1,-1ZM609,925h-1v-1h2v1ZM572,924v1ZM581,922l-1,-1v-1h1v1ZM572,926h-1h1v-1v1h1ZM568,926v-1h1v1ZM569,924h1v1h-1l-1,-1ZM566,927h-1v-1h1ZM567,924h-1v-1l2,1ZM576,923h-1v-1h1ZM573,925h-1v-1h2ZM564,926h-1v-1h1ZM546,936h-1v-1h1ZM567,926h-1v-1h-1v-1h2v1ZM532,943v-1h1v1ZM546,398v-1Z"/>
<path class="sh" d="M495,678h1l1,-1h1l2,-2h1v1h-1v1h1v-1h2l-1,1v1h-1h1l1,-1v1h-1v1h-1v1h1l-1,1h1l1,1h-1v1l-1,1v1h-1v1l-2,2l-1,3l-1,1h-1v1h-1l-1,1h-1v1h1l-1,1h1v1h1l1,1v1h-4l1,-1h-1v1h-1l-1,-1h-1h1v2h-1l-1,1h-2v1h-1v2l-1,1v3h-1h1v1h-1v2l-1,1v3l-2,1l-4,4v1h-8v-1h-1v-1h-1l-1,1l-1,-2h-2v1h-3l-1,-1l1,-1h-1v-1l-1,1h-1v-2h2v-1l1,-1h-2l1,-1h1h-1v-1l1,1h1v-1h-1v-1l1,-1v1v-1l1,-2l1,2v-1h-1v-1h1l1,-1h1v-1l2,-2l1,-2l1,-1l1,1l2,-2v1h1l-1,-1l2,-2h2v-1h1l1,-1v-1h1v-1l1,1v-1h-1h2v-1h1v1v-1l1,-1v-1h1v1v-1l1,-2h1h-1v-1l1,-1v-4h2l1,-1v-1h1v-2l1,-3v-1l2,-1l1,-1h2h-2v2h1l1,1h1v2ZM500,675h-1l1,-1h1ZM457,714v1h-2l1,-1ZM458,710v1h-1ZM466,723v1h-1h2v1h-2v1h-2v1h-1l1,-1v-1h1v-3h1ZM512,637h-1l-1,-1l1,-1l1,1ZM496,625v1v-1h1v1h2v1l1,-1l2,1v2l1,-1l1,1v1l1,1v2l-1,-1v1l1,1v1l2,2l-1,1v1l1,1h-1v2h2l2,1v1l1,1h1v-2l-1,-1v-3h1l1,2l1,1v3l1,2h1v1h-1h1l1,1l2,1h1l3,1h2l3,-3h3l1,1v1h-1v3l-1,2v1l-1,1h-1v2l-1,1l1,1l-1,1v-1h-1v-1h-2l-1,1h-1l-1,1v3h1l-2,4l-3,3v1l-1,1v1l-2,2v1l-1,1h-1l-2,1v1h-1v-1l-1,-1h-1v-1h-1v1h-1v-1l1,-2l2,-1l1,-2v-4l-1,-2h-2l-2,-2h-1l-1,-1h-2v-1h-1v-2h1l1,-1l2,-1h1l1,-1v-3l1,-2v-1l1,-1l-1,-1h1v-1l-1,-2v-2l-1,-1v-1v1l1,1v-1h1l-1,-2v1h-1l-1,-1v-2l-2,-1l1,-1l1,1v-1h-1v-1h1v-1h-1l-2,-1l-1,-1v1l2,2v1l-1,-1v-1l-4,-5v-1l1,-1h-1v1h-1v-1h-1v-4l-2,-2l-1,-2h2l-1,1l2,2v1ZM475,766v1v-1h-1ZM458,754h-2l1,-1v-1h1v1ZM562,700l-1,1v-1h-1h1l-1,1l1,1h-1v1h-1v-1l1,-1l-1,-1h-1h2ZM562,705v-1Z"/>
<path class="sw" d="M634,21h-2l-3,-1h4v1ZM634,23h-2l-1,-1h1l1,1ZM855,150l1,1v-1h-1l-1,-1h1ZM894,194v1l-1,-2l-1,-1l1,1ZM156,160v1h-1v1l-1,1h-1h1h-1l1,-1h-1v1h-1h1v-1h1v-1v1h1v-2h1v-1h1v-1h1h-1v1h1l-2,2ZM268,75l-3,3h-2l2,-2h1v-1h1ZM43,339l-1,-1v-1v1v-3h1v3ZM118,178h-1v1l-2,2v-1v1l2,-2Z"/>
<path class="sr" d="M115,181l3,-3"/>
<path class="sw" d="M224,85h-1h1v-1h1l1,-1h1l2,-2v1h-1l-3,3ZM157,169l-2,1h-1v-1l2,-2h1v1h-1v1ZM632,23h-1h1h-1ZM589,8h-1ZM792,906v-1h1h-1v1v-1l2,-1l1,-1h1h-1l-2,2h-1ZM133,189v1h-1v1h-1v1v-1v1v-1h-1l1,-1v-1l1,-1v-1h1l-1,1v1h-1v1h1v-1v1v-1ZM135,184v1h-1h1ZM134,185v1h-1v-1ZM128,188v-1h1v-1v1l-1,1v-1v1h-1ZM515,658h-1v1h-1v-2h2ZM887,183h-1v-1h-1v-1h-1v-1l1,1l-3,-3v-1v1h1v1l3,3v1ZM52,297l-1,1v-1ZM158,161l-1,1v-1h1v-1h1v-1h-1v1h-1h1v-1h1v1h-1ZM595,13h-1ZM795,903h1l1,-1h1v-1h1h-1l-2,2h-1v1ZM135,184v-1h1v1ZM220,88h1v-1h1l-1,1ZM480,698h-1v-1v1ZM150,171v-1h1v-1v1ZM123,192l-1,1v-1ZM147,172h-1l-1,1v-1h1l1,-1ZM839,133v1h1h-1v-1h-1ZM852,146v1v-1l-1,-1h-1v-1l1,1ZM130,186h-1v1v-1ZM130,184h1h-1v1ZM157,155h-1v1v-2h1ZM129,186h1v-1v1ZM127,189l-1,1v-1h1v-1ZM126,190h-1h1h-1v1v-1ZM836,130l-1,-1h1ZM574,6h-1ZM592,12h-1ZM598,13h-1ZM617,18h-1ZM617,17h-1ZM613,16h1ZM617,18h-1h1h-1v-1h-1h1ZM648,23l-1,-1ZM161,512v5h-1v-1h-1v-4h1v-1v1l1,-1ZM814,889l-1,1Z"/>
<path class="sr" d="M814,889v0"/>
<path class="sw" d="M887,183h-1v-1h-1v-1h-1v-1l1,1l-3,-3v-1v1h1v1l3,3v1ZM18,434v2h-1v-1h1v-1l-1,-1v1v-2l1,1ZM477,701v1v-2l-1,-1v-1h1v2ZM476,703h-1v-3h1v1h-1v1ZM892,190h-1v-1l2,2v1v-1h-1ZM840,135v1l-1,-1l1,1l-1,-1ZM831,127h1v1h1v1h1h-1v-1h-1v-1ZM835,129l1,1ZM334,37h-1v1h-1h1v-1ZM502,2h1h-2ZM250,116h1v1l-2,1h-1v1v-1l1,-1h1ZM633,22h-1h1h-2v-1h-1h1l1,1ZM596,12h-1ZM630,20h1ZM642,22h1l1,1h1h-2v-1ZM606,14h-1ZM598,13h1ZM591,11h-1ZM588,10h1h-1h1ZM144,588l-1,-1h-1v-2l1,-1l1,2v1ZM172,567h-1l-1,-1l1,-1v-1l2,-2v-1h1v2l1,1v1l-1,1v1h-1ZM240,634v-3l-1,-1h-1v-1h-2v-2h-1l-1,-1v-1l1,1h1l1,-1h1v1l2,2l1,2v1l1,1v1h-1ZM250,626v2h-1v-2l-1,-3h-1v-1h-1l1,-1l-1,-2v-1h-2v-1l-1,-1h-1v-1h2v1h2l3,3v2l2,2ZM148,642v1l-1,-1v-1h-1v-1v3l-1,-3v1l-1,1v-1l-1,-1h1v-1h1v-2h1v-1l1,1h-1v2l1,1v1ZM261,617v1l-1,1v-1h-1l-1,-1v-3l1,-2h1v1l1,3ZM243,607h-1v1h-2v1h-1v-2h1l2,-1v-1l1,1ZM243,605l-1,-1v1h-3v-1h-1v1h-1v-1l-1,-1l-1,-2h1v-2h-1v-1l-1,-1v-1h3l1,1h2v1l1,1v2l1,2l1,1h1Z"/>
<path class="sb" d="M916,223v-1h-1v-1l-2,-2v-1l-2,-2l-1,-2l-2,-2l-2,-3l-1,-2l-6,-6v-1h-1v-1h-1v-1h-1l-1,-1v-1h-1v-1M797,97h-1l-1,-1l-2,-1M665,28h1l2,1l1,1h2l1,1h2l2,1h1v1h2l1,1h2l1,1h2l1,1h1v1h2l1,1h2v1h2l1,1v-1h-1M702,43h2v1h1M707,45l1,1h2l1,1h1l1,1h1l1,1h1l1,1h2v1h2v1h2v1h2v1h2v1h2v1h1l1,1h2M809,893l-1,1h-1v1h-1l-3,3h-1v1h-1l-1,1l1,-1h-1v1h-1v1h-1l-1,1h-1v1h-1l-2,2h-1v1h-1v1h-1l-1,1h-1v1h-2v1h-1v1h-2v1h-1v1h-1l-2,2l-2,1l-1,1h-1l-3,3h-1l-1,1M57,313v-2h1v-2h1v-1h-1v-2l1,-1v-4l-1,1v-2l1,-1h-1v-9h1h-2v-2l1,-1v-2h1l1,-2l1,-1v-1h1v-1h-1l1,-1h-1l1,-1v-2l-1,1v1l-1,1h-1v-2h1v-2h1v-1l-1,1v-1h1v-3M49,322v1h1v1l1,-1v-3h1v-1l1,-1v-1v1h1l2,-2v-1l1,-1v-1v2l-1,1v1l-1,1v5l-1,2v1l-1,1v4l-2,2v1l-1,1v1l-2,2v2h-1l-1,1v2l-1,1v1h1v2h-1v1v-1h-1v1h-1v1h-1v3h-1v1h-1v2M56,280l-1,2h-1v1l-1,1v2h-1h1l-2,2v1l-1,2v1M24,373l1,-1v-3l1,-1v-2l1,-1l1,-3v-3h1v-5h1v-5l1,-1v-4l1,-1v-2h-1l1,-1v-5h1v-1l1,-1v-1l1,-2v-2l1,-2v-1h1v-1l-1,2v-2h1v-5l1,-1v-3l1,-1v-2l1,-1l1,-2v-1l1,-1v-3l1,-1v-1h1v-1h1v-2h1v-1l1,-1v-2h1v-2h1v-1l1,-1v1v-1v1v-1v2l-1,1v1h1v-1v2l-1,1v1l-1,2v1l-1,1v2h-1v2l-2,4h1v-2l1,-1v-1l2,-2v-1l1,-1v1l1,-1v-1h1v-1l1,-1v-2h1v-1h1v5l-1,2v1l-1,2v3h1v3l-1,1v2l-1,1v2l-1,1v2l-1,1v1h-1v1v-1l-1,1h-1v1h-1v1h-1v1l-2,2v1l-1,1v2l-1,1v2h-1v1l-1,2v7l-1,1v2M75,262v-1v1l-1,1v-1v1v-1l-1,1v-4h1v-1l1,-1v-1l-1,1v-1v1h-1v-1h-1v1l-1,1v1h-1v1l-1,1v1l-1,1v-1v1h-1v2h-1v-1v1l-1,1v-1v1l-1,1v1h-1v-1v1h-1v1l-1,1v1l-1,1v-1v1l-1,1v2h-1v3h-1v2l-2,2v-1h1v-1l-2,2v-2h1h-1l-1,1v-1h1v-1l1,-1v-2l1,-1v-1h1v-1v1h-1v-1h1v-2l1,-1v-1l1,-1v-1v1h-1h1h-1v1l-1,1v1l-1,1l1,-2v-1h1v-2l1,-1v-1h1v-1l1,-1v-1l1,-1v-1l1,-1v-1h1v-1l1,-1v-1l1,-1v-1l1,-1v-1l1,-1v-1h1v-1l1,-1v-1l1,-1v-1v1v-1l1,-2l1,-1v-1v1v-1v1h-1v2M209,112v-1h1l2,-1v-1h1l1,-1h1l2,-2h1v-1h2v-1h1l1,-1h1v-1h1l1,-1v-1h2v-1h1v1h1v-1h3v-1h1v-2h2v-1h3v-1h1l2,-2h2v-1h1v-1h1v-1h2v-1v2M210,119h1v-1l1,-1h1v-1h1l1,-1h2l1,-1h1l1,-1h1v-1M229,81l-1,1l-4,2l-2,2h-1l-3,3h-1v1h-1l-1,1l1,-1h1l1,-1h1l1,-1h1v-1h2v-1h1v2h-1l-2,2h-2v1h-2v1h-2v1h-2v1h-1v1h-2v1h-1v1h-1l-2,2h-1v1h-1l-2,2h-1l-1,1h-1l-1,1h-1v1l-1,1h-1l-1,1h-1v1l-1,1h-2v1v-1l-1,1h-1l-1,1v1h-1l-2,2h-1v1h-1v1l-1,1h-1v1h-1v1h-1l-3,3h-1l-1,1v1h-1v1h-1l-2,2h-1v1h-1l-3,3h-1v1h-1l-3,3h-1l-9,9"/>
<path class="sb" d="M247,91v-1h1v-1h-1h1v-1h2l1,-1h1v-1h1v-1h1v-1h1l1,-2h1l1,-2v-1h1l1,-1h2v-1h1v-1h4v-1h3v-1l2,-1h1v-1h1v-1h2v-1h1v-1h1l1,-1h1v-1h1v-1h1l2,-2h1l1,-1h1l1,-1v-1h1l1,-1h-2v1h-2l-1,1h-1v1h-3l-1,1h-1l-1,1h-1l-1,1h-2l-1,1h-2l1,-1h1v-1l1,-1h-1v-1h-1l-1,1h-1v-1l-1,1h-1l-1,1v-1l1,-1h1h-1l1,-1h1v-1h1v-1h1v-1h1v-1h1v-1h1v-1h1h-1h1h-2l-1,1h-3l-1,1h-1l-1,1h-1l-1,1l-2,1h-1l-4,2l-1,1h-1v1h-1h1v-1h1l-1,1h-1v1h-1l-1,1h-1l-1,1l-2,1l-1,1h-1l-2,2h-1l-1,1h-1v1h-1l-1,1h-1l-2,2h-1l-1,1l-4,2h-1v1h-2l-1,1h-1v1h-1h1h-2l-2,2h-1l-1,1h-1v1l-1,1h-1l-1,1h-1v1h-2v1h-1v1h-1l-2,2h-1l-1,1h-1v1M74,238v1l-1,1v1h-1l1,-1v-1v2h-1l-1,1v2h-1h1v-1l1,-1v1h-1v1l-1,1v1l-2,2v1l-1,2v-1l-1,2l-1,1v1l-1,1v1l-1,2l-1,1v1h-1v1l-1,1v1l-1,1v1l-1,1v1l-1,1v1l-1,1v1h-1v2l-2,2v2l-1,1l-1,2l-1,1v2M49,284v1h-1v1l-1,2l-1,1v2l-1,1v1l-1,1v2h-1v2l-1,1v1M42,299v1l-1,3l-1,1v1h-1h1h-1M39,307l-1,1v2"/>
<circle class="w1" cx="562" cy="704" r="6"/>
<circle class="c1" cx="562" cy="704" r="5"/>
<circle class="w1" cx="458" cy="753" r="7"/>
<circle class="c1" cx="458" cy="753" r="6"/>
<circle class="w1" cx="475" cy="766" r="6"/>
<circle class="c1" cx="475" cy="766" r="5"/>
<circle class="w1" cx="528" cy="745" r="6"/>
<circle class="c1" cx="528" cy="745" r="5"/>
<circle class="w1" cx="562" cy="579" r="6"/>
<circle class="c1" cx="562" cy="579" r="5"/>
<circle class="w1" cx="617" cy="402" r="6"/>
<circle class="c1" cx="617" cy="402" r="5"/>
<circle class="w1" cx="627" cy="410" r="5"/>
<circle class="c1" cx="627" cy="410" r="4"/>
<path class="sg" d="M 308.5296 961.0523 A 249.7500 87.0924, 0, 1 1, 690.4704 961.0523"/>
<path class="sg" d="M 77.0191 765.9773 A 432.5797 150.8485, 0, 1 1, 921.9809 765.9773"/>
<path class="sg" d="M 0.0000 499.5000 A 499.5000 174.1848, 0, 1 1, 999.0000 499.5000"/>
<path class="sg" d="M 77.0191 233.0227 A 432.5797 150.8485, 0, 0 1, 921.9809 233.0227"/>
<path class="sg" d="M 308.5296 37.9477 A 249.7500 87.0924, 0, 0 1, 690.4704 37.9477"/>
<path class="sg" d="M 518.1847 0.3496 A 49.9659 499.5000, -177.85624276, 0 1, 480.8153 998.6504"/>
<path class="sg" d="M 622.7143 15.4355 A 276.0073 499.5000, -165.71913974, 0 1, 376.2857 983.5645"/>
<path class="sg" d="M 808.6385 107.1562 A 428.0927 499.5000, -141.76445061, 0 1, 190.3615 891.8438"/>
<path class="sg" d="M 22.1064 352.5455 A 465.4711 499.5000, -252.89024165, 0 0, 976.8936 646.4545"/>
<path class="sg" d="M 284.1790 48.7926 A 378.1268 499.5000, -205.53567484, 0 0, 714.8210 950.2074"/>
<path class="sg" d="M 423.3119 5.8446 A 189.4638 499.5000, -188.77349541, 0 0, 575.6881 993.1554"/>
<text x="0" y="0" class="fs" transform="translate(784,242) rotate(81)">150W</text>
<text x="0" y="0" class="ft" transform="translate(784,242) rotate(81)">150W</text>
<text x="0" y="0" class="fs" transform="translate(941,310) rotate(78)">120W</text>
<text x="0" y="0" class="ft" transform="translate(941,310) rotate(78)">120W</text>
<text x="0" y="0" class="fs" transform="translate(110,279) rotate(101)">120E</text>
<text x="0" y="0" class="ft" transform="translate(110,279) rotate(101)">120E</text>
<text x="0" y="0" class="fs" transform="translate(304,224) rotate(96)">150E</text>
<text x="0" y="0" class="ft" transform="translate(304,224) rotate(96)">150E</text>
<text x="0" y="0" class="fs" transform="translate(551,211) rotate(88)">180E</text>
<text x="0" y="0" class="ft" transform="translate(551,211) rotate(88)">180E</text>
<text x="0" y="0" class="fs" transform="translate(649,831) rotate(16)">60S</text>
<text x="0" y="0" class="ft" transform="translate(649,831) rotate(16)">60S</text>
<text x="0" y="0" class="fs" transform="translate(756,608) rotate(15)">30S</text>
<text x="0" y="0" class="ft" transform="translate(756,608) rotate(15)">30S</text>
<text x="0" y="0" class="fs" transform="translate(794,355) rotate(14)">0N</text>
<text x="0" y="0" class="ft" transform="translate(794,355) rotate(14)">0N</text>
<text x="0" y="0" class="fs" transform="translate(753,141) rotate(14)">30N</text>
<text x="0" y="0" class="ft" transform="translate(753,141) rotate(14)">30N</text>
<path class="tb" d="M717,998h-2l-1,-1h-2l-1,-1h-2l-1,-1h-2v-1h-3v-1h-2l-1,-1h-2v-1h-2l-1,-1h-2v-1h-2v-1h-2l-1,-1h-2v-1h-2v-1h-2v-1h-2v-1h-2v-1h-2v-1h-2v-1h-2v-1h-2v-1h-1l-1,-1h-1v-1h-2v-1h-2v-1h-1v-1h-2v-1h-1l-1,-1h-1v-1h-2v-1h-1v-1h-2v-1h-1v-1h-1l-1,-1h-1v-1h-1v-1h-1l-1,-1h-1v-1h-1v-1h-1v-1h-2v-1h-1v-1h-1v-1h-1v-1h-1l-2,-2h-1v-1h-1v-1h-1v-1h-1v-1h-1v-1h-1v-1h-1v-1h-1v-1h-1v-1h-1v-1h-1v-1h-1v-1h-1v-2h-1v-1h-1v-1h-1v-1h-1v-1l-1,-1v-1h-1v-1h-1v-1l-1,-1v-1h-1v-1l-1,-1v-1h-1v-1l-1,-1v-1h-1v-2h-1v-2h-1v-1l-1,-1v-1l-1,-1v-1l-1,-1v-2h-1v-2h-1v-3h-1v-2h-1v-4h-1v-3h-1v-5h-1v-6l-1,-1v-17h1v-7h1v-4l1,-1v-3h1v-3h1v-3h1v-2l1,-1v-2h1v-2h1v-2h1v-2h1v-2h1v-2h1v-2h1v-1h1v-2h1v-1h1v-2h1v-1h1v-1l1,-1v-1h1v-1h1v-1l1,-1v-1h1v-1h1v-1h1v-1h1v-1h1v-1h1v-2h1v-1h1v-1h1v-1h1v-1h1l3,-3h1v-1h1v-1h1v-1h1v-1h1v-1h1v-1h1l1,-1h1v-1h1v-1h1v-1h1l1,-1h1v-1h1v-1h2v-1h1v-1h1v-1h2v-1h1v-1h2v-1h1v-1h2v-1h1l1,-1h1v-1h2v-1h1l1,-1h1v-1h2v-1h2v-1h2v-1h1l1,-1h1l1,-1h1l1,-1h1l1,-1h1l1,-1h2v-1h2v-1h2v-1h2l1,-1h2v-1h2v-1h2l1,-1h2v-1h3v-1h2l1,-1h2v-1h3v-1h3v-1h159v1h3v1h3v1h2l1,1h2v1h3v1h2l1,1h2v1h2v1h2l1,1h2v1h2v1h2v1h2l1,1h1l1,1h1l1,1h1l1,1h1l1,1h1v1h2v1h2v1h2v1h1l1,1h1v1h2v1h1l1,1h1v1h2v1h1v1h2v1h1v1h2v1h1v1h1v1h2v1h1v1h1l1,1h1v1h1v1h1v1h1l1,1h1v1h1v1h1v1h1v1h1v1h1v1h1l3,3h1v1h1v1h1v1h1v1h1v2h1v1h1v1h1v1h1v1h1v1h1v1l1,1v1h1v1h1v1l1,1v1h1v1h1v2h1v1h1v2h1v1h1v2h1v2h1v2h1v2h1v2h1v2h1v2l1,1v2h1v3h1v3h1v3l1,1v4h1v7h1v17l-1,1v6h-1v5h-1v3h-1v4h-1v2h-1v3h-1v2h-1v2l-1,1v1l-1,1v1l-1,1v1h-1v2h-1v2h-1v1l-1,1v1h-1v1l-1,1v1h-1v1l-1,1v1h-1v1h-1v1l-1,1v1h-1v1h-1v1h-1v1h-1v2h-1v1h-1v1h-1v1h-1v1h-1v1h-1v1h-1v1h-1v1h-1v1h-1v1h-1v1h-1v1h-1l-2,2h-1v1h-1v1h-1v1h-1v1h-2v1h-1v1h-1v1h-1l-1,1h-1v1h-1v1h-1l-1,1h-1v1h-1v1h-2v1h-1v1h-2v1h-1l-1,1h-1v1h-2v1h-1v1h-2v1h-2v1h-1l-1,1h-1v1h-2v1h-2v1h-2v1h-2v1h-2v1h-2v1h-2v1h-2v1h-2l-1,1h-2v1h-2v1h-2l-1,1h-2v1h-2l-1,1h-2v1h-3v1h-2l-1,1h-2l-1,1h-2l-1,1h-2Z"/>
<path class="tl" d="M759,986h1v1h-3l-1,-1h2v-1ZM704,989h-3l-1,-1h2l1,1ZM766,983h1l1,1v1h1l-1,1h-2l-1,1h-1l-1,-1l1,-1v-2h1v-1ZM714,980h2v1h-1ZM712,980l1,1h-1l-1,-1ZM726,977h1h-2ZM746,974v1l1,1h-5v-1l1,-1v-1l-1,-1l1,-1v1h1l1,1ZM748,964v1h-2v2h1l-2,2v1h1l1,1h1l4,4v1l1,1v1h-1v2h-1l-1,1h-1v1h-2l1,1h1v1h-2l1,1h1v1h3l1,1h3l1,1h3l1,1h1l1,1v-1h1v-1h2l2,-1l1,1h1v-1h4v-1h3l1,-1h-1v-1h-4l-1,-1l1,-1h1l2,-2h4l1,-1h1l2,-2h-1v-1h1v-1h2v-1l1,-1h1v1h1v-1h8v-1h3v-1h1l1,1h2v-1h1v1l1,-1h4v1h6v-1h3v-1h2v1h3l1,-1h3v-1h2l1,-1h2l1,-1h4v1h1v1h1l1,1h1l1,-1l1,1h2v1l-2,2h-1v1h1h-1v1h-1v1h2l2,-2h1v-1h3l1,-1h1v-1h2l1,-1h5v-1h1v1h5v1h1l1,-1l1,1l1,-1h1l2,-1v1l1,1h3l1,-1h2v1h1v1h4l1,-1v1h9l1,-1l-1,1v1h-1h3l1,1h2l-1,1v1h1v1h2v1h1v2h2l1,1v1h-1l-1,1h-2l-1,1h-3l-1,1h-2l-1,1h-2l-2,2v1h-5l-1,1h-2v1h-1v3h2l-11,4h-155l-11,-4h-1h2l1,-1l1,1h14l-1,-1h-7v-1h-2v-1h-3l-1,-1h4v-1h-2l-1,-1h-7l-1,-1l-2,-1l1,1l1,-1l2,1v-1h1v-1l-1,-1h-1h2v-1h2v-1h4l1,-1h5l1,-1l1,1v-1h1l1,1h1v-1l1,1h6v-1h-2l-1,-1h-1l-1,-1h4l1,1h1l1,-1h3l-1,-1h1l1,1l1,-1l1,1h3v-1l1,1h4v-1h2l1,-1v-1h-1v-1h-1v-1h-1v-1h-1v-2l-1,-1v-1h1v-2h1v-1h1v-1h1l1,-1l1,1ZM734,951l2,1h1v1h-1v-1v1h-4l-2,-2l-2,-1l2,1h2v-2h1v1ZM741,947h1v1h-2v1l-1,-1l1,-1ZM859,946h-1v-2h1l1,1ZM935,939v1h1l1,-1v1l-3,3v-1l-1,1h-1l1,-1v-1l1,-1v-1ZM958,943v1l1,-1v1h-1l-3,3h-1l-1,1h-1l-2,2h-2v1h-1v-1h-1v-1l4,-2h1l1,-1h2l2,-2h1l2,-2ZM966,936l-1,2l1,-1l-1,1l1,1h1l-2,2h-1l-2,2l-2,1h-1l2,-1v-2l1,-1l2,-1v-1l1,-1v-3l1,-1v1l1,1ZM972,913l-1,1v-2l-1,-1v-1h1v1l1,1ZM987,906v1l-1,1h-1v-1l1,-1v1ZM988,906h-1v-1h1l1,-1v1ZM600,905v-1ZM976,904v-1ZM976,901v2h-1v-1ZM849,895v2l1,1h-1v1v-1v2h-1v3l-3,6v2h-1l-1,1l-1,-1h-1v-5h1v-2l1,-1h-1v-3h1v-1h1l2,-2h1v-1l1,-1v-1l1,-1v1ZM951,898v1h1v1h1l-1,1v2h1l-1,2v1l2,2v4h1l-1,2l1,1v3l-1,1v2l-3,3v1l-1,1l-1,2h-1l-1,2h-1l-4,4v1h-2l-1,1h-1l-1,1v-1h-1l1,-1h-1l-1,1h-1v-1h-1v-3h1l-1,-1v-1l1,-1l-1,1h-1l3,-3l-2,1h-1l-1,2v-4l-2,-2h-2l-1,1h-4l-2,2h-4l-1,1v-1l-1,1h-2v-1h-1l1,-1v-1h1v-3l1,-1v-7l1,1v-3l1,-1v-1l1,-1l-1,1l2,-2h1l1,-1h2l1,-1h2v-1h1l1,-1v-2l1,-1v2l1,-1v-1h1v-1l2,-2h2v1h2v-2h1l1,-1v-1h2v-1h-1h1l1,1h3l1,1h-1v1h-1v1l-1,1v1l2,2v1h1l1,1h1v-1l1,-1v-1l1,-1v-3l1,-1v-2h1v-1v3l1,1Z"/>
<path class="tl" d="M973,894h-1v-1v1ZM927,892l-2,-1h2ZM971,893h-1v-1h1ZM972,892v-1l-1,-1h1ZM931,892h-1l3,-3h2l-1,1h-1l-1,1ZM925,889h1v1h-3l1,-1ZM930,889v1h-3v-1h2ZM971,890v1l-2,-2h1v1ZM968,889v-1h-1v-1l1,1ZM915,887h2v-1l2,1v1h2l1,1l-1,1l-1,-1h-4l-1,-1h-1l-2,-1h-1l1,-2h1l1,1ZM943,886v1v-2ZM967,888h-1v-2l-1,-1h1v2h1ZM963,885l-1,1h-1l-1,1l-1,-1h-1l1,-1l1,1v-1h2v-2h1v1ZM935,882h-1v-1h1ZM939,881v2l-1,-1h-2v-1h2ZM964,884l-1,-1v-1l-1,-1h-1h2v2h1ZM943,878v3l2,1v-2l2,-1h1l1,1h1l1,1l4,2v1h1v1l2,1v1h-1v1l1,1v2h1v1h1h-1l1,1l-1,1v-1h-2l-1,-1v-3h-3l-1,1v1h-2l-2,-2v1h-2l1,-2h1l-1,-2v-1l-2,-1h-1l-1,-2l-1,1l-1,-1h1l-1,-1l1,-1h-1v-1h-1l-1,-1h2v-1ZM933,875l-1,1h-4v1l1,2v-1h2l-1,1h-1l1,2v1l1,2v1h-1v-2l-1,1v-1l-1,-1l1,-1h-1v4h-1v-3h-1v-1l1,-1v-4h1v-1h4l1,-1ZM937,875v1h-1v1l1,1h-1v-4h1ZM911,885h-1l-2,-2v-1l-2,-2l-1,-2v-2l-1,-1v-1l-4,-4v-1h2l3,3l1,2h1l2,2h1l-1,2h1v1l1,1h1v3ZM925,874l1,1h-1v3l-1,1v1l-1,3v-1l-1,1l-1,-1h-1v-1l-1,1l-1,-1h-1l-2,-4v-2l1,-1h2v-2h2v-1l1,-1v-1h1l1,-1v-2h1v1l2,2v1h-1l-1,2l1,1ZM934,864v3l-1,-1v2l-2,-2h1l-1,-1v1l-1,-1l-1,1v-1l1,-1h2v-1h1v-1l1,1ZM884,868h-1v-1l-1,-2l1,-2l1,1v1l1,1v1ZM727,863h-1l1,-1h1ZM931,861v1l-1,1l-1,-1l1,-1v-1v1l1,-1ZM925,863l-1,1v-1l1,-1v-1l1,-1v1l-1,1ZM928,859h2v1l-1,1v-1h-1ZM932,858l1,2h-1v1v-1h-1v-1h1h-1v-1ZM928,857l-1,1l-1,-1h1ZM926,849h1v6h1l2,1v2l-1,-1v-1v1l-1,-1h-2v-1h1h-1l-1,-1v-5ZM723,851v1h-1v-1ZM711,852h-1v-1h2v1ZM716,849h3v1h1v1h-2l-1,1v-1h-1v-2h-1ZM914,849l-1,1h-1v-2l1,-1h1v1ZM627,846v-2h1v2ZM628,844h-1v-1h1ZM709,845h2l1,1v1h1v1h2l-1,1h-3v-1h-1v-2h-2l-1,-1h-1h1h-2l-1,1h-1l2,-2h3ZM712,843h-1v-1l1,-1v1ZM924,843v1l-2,-2v-2l1,-1l1,1ZM712,839l-1,1v-1ZM713,839v1v-1h-1ZM930,825h1v1h-1v1h-1v-2ZM830,828l-2,2v-1h-1h2ZM819,828v1h-1ZM810,825v2h-1l-1,-1h-1v-1h2ZM804,821v3h-1v-3ZM934,820v1l1,1v1l-1,1h-1l-1,2l-1,-1v-1l-2,1l-1,1h-1l2,1v3l-1,-1v-1h-1l-1,-1l1,-1v-3h3v-3l1,1v-2h1l-2,-4v-1l3,3v1ZM804,820v1l-1,-1v-1l1,-1ZM930,810l1,-1l1,2h-1v2l-2,-1l1,2h-1l-1,-2l-1,-1h1l-1,-2l-1,-1l3,1ZM734,812l1,1h1h-2ZM737,809h-1l-1,-1h1ZM682,806h-1l-1,-1v-2h-1v-1h1l1,1v1l1,1ZM743,807l-1,1h1v1h2l-1,1h1v1l-1,2l-1,-1l1,-1l-2,1v-1h-3l1,-1h-1l4,-4h1Z"/>
<path class="tl" d="M680,797h1l-2,2v1v-3ZM922,800l3,3l-2,-1l1,2l2,2v1l-2,-2l-1,-2l-6,-6v-1h-1h1l3,3ZM788,806l-1,1h-2l1,-2v-1l2,-2h1v3ZM806,801l-1,2l-1,-1v-1h1ZM669,791h-1v-1h2ZM792,797l-1,2h2v1l-1,1h1l2,4h1v1l-1,1h1l-1,1h-3l-1,1h-2l2,-2h-1v-1h1l-1,-1v-1h2l-1,-1h-1v-2l-1,-1l1,-2v-1l1,1ZM665,786h-1v-1h1ZM731,790l-1,1v-1ZM729,790h-2l1,-1h1ZM668,780v1h1h-2v-1ZM729,786h1v1h1l-1,1h1l-1,1l-1,-1h-1l-2,1l1,-1h-1h1l1,-1l1,-2ZM783,787v1l1,1l-1,1h-3l-1,1l-1,-1h-2l1,-1h-1h1v-1h-2l1,-1h1l1,1l2,-1h2ZM737,784h-1l1,-1h2l-1,1ZM671,776v1l1,-1h2l-1,2h-3l-1,1h-1l-1,-1h1v-1h-1h1h-2l-1,1l8,-5v1l-1,2ZM725,780l-1,1v-1h-1l1,-1h1ZM912,771h-1ZM678,771h-1h2ZM729,780l-1,2l2,-1v1h-1v1l1,-1l2,-1l1,-1h2v2h-1v1l-1,1l-2,1h-1v-1l-1,1l-2,1v1h-3l-2,2h-1l-1,1l-2,1l-1,1l-1,2h1l-1,1v1h1l3,3l2,1h1l-2,2v2l1,1h1l2,-4h-1l4,-2v-1l1,-1v-1l-1,-1l2,-1l2,-4l1,1h1l1,-1v1l1,1h1v2l-1,1l1,1h2l1,-2h1v3l1,1l-1,1l1,1v1h1l1,1v1l1,1l-2,2h-2l-2,2h-1l-2,-1h-2l-2,1l-1,1l-2,1l-1,1l2,-1l3,-1h2l-1,1l-1,2v1l1,1l2,-1l1,-1v1h1l-4,2h-1l-2,1v-1l2,-1h-3v1h-1l-1,1h-1l-2,2l1,1v-1v1h-3l-1,1l2,-1v1h-2l-2,2v1l-1,1l-1,-1l1,-1l-1,1v4l-1,1h-1l-1,1h-1l-3,3h-1v8l-1,1h-1v-3l-1,-1l1,-1l-1,-2l-1,1l-1,-1h-4v1h-1l-1,-1l-1,1l-1,-1l-2,2h-2v1h-1v3l-1,1v1l-1,2v4l1,1v1h1v1l1,-1h3v-1l1,-1v-1l1,-1h3v1l-1,1v2l-1,1v-1v2l-1,1v1h5v1h1v1l-1,1v3l-1,1h1v2h1v1h2l1,-1h1v1h1l1,1l1,-1v-2l1,-1h2l2,-2v2h-1h1v1l-1,1v1h1v-3h1v-1h1v1h1v1h3l1,1l1,-1h1l1,1h1v1l1,1h1v1h1v1l1,1l2,1v-1h1l1,1h1l1,1v1h1v1l1,2v1l-1,1l1,1h2v1v-1l4,2v1h1l3,1h1l2,1l2,2h2v5l-1,1l-1,2l-2,2v9l-1,2v2h-1v1h-2l-1,1h-1l-3,3v5l-1,2l-2,2v2l-2,2v-1l-1,1l-1,-1h-1v-1v1l1,1v1l1,1v2l-2,1h-3l1,1v2l-1,1l-1,-1h-1l1,2h2l-2,2l1,1v1h-1l-1,1v1l2,1h1v1l-1,1v2h-1v1l2,2h-1l-1,1v1h-1l-2,-1l-3,-3l-1,-3v-1l1,-1h-2l1,-2l-1,-2h1v-2l-1,-1v2l-1,-2v-4l-1,-1l-1,-2h1v-6l-1,-2v-8l-1,-2v-6l-1,-2l-1,-1l-2,-1l-3,-2l-1,-1v-1l-1,-2l-1,-3l-2,-3l-2,-2v-1l-1,-2l2,-2v-1h-1v-3l1,-1v-1h1v-2h1l1,-1v-5l-1,-1v-2h-1v1h-1v1h-1l-1,-1h-2v-2h-1v-1v1h-1v-3l-2,-2h1h-2v-1h-2l-1,-1l-1,-2h-1l-1,-1v1h-2l-1,-1h-2l-2,-2h-1l-1,-1v-1h-1v-3h1l-1,-1v-3l-1,-1v-1l-1,-1v-3h-1v-5l-1,-1l-1,1v4h1l-1,1h1v5h1v2h-1v-1l-1,-1v-3l-1,-1v1v-1h-1v-1h1v-9h-1v-1h-1v-9l2,-2v-1l1,-2l2,-2l1,-2l1,-1v-1h1v1l2,-2h-1v-2l-1,-1v-1l1,-1l-1,-1l1,-1v-1l1,-1l-1,-1l1,-1v-1l1,-1l-1,-1h-1v-2h-1v-1h-1l-1,-1h-1l-1,1h-4l1,-1l2,-1h-1l-1,1l-2,1h-1l-1,1l-2,1h-2l-2,1h-1l-1,1h-3l-1,1h-2l1,-1h2l2,-1h2l2,-1h1l2,-1l1,-1h-3l1,-1l-1,1h-1l2,-2h-1v-1l2,-2l2,-1h3l1,-1h1l1,-1h-3v-2h4l1,1l1,-1v-3h4l1,-1h2l2,-1l1,1l1,-1h1l-1,1h1l1,1h2l1,1h2v1l1,1l1,-1h6l1,-1v2l2,-1l-1,1h2l1,1h2v1l-2,1h4v1l2,-2h2v1h1l1,1h2v-1h1l1,1l-1,1l1,-1h1l1,-1v-2l1,-1l2,-1l1,1l-2,2Z"/>
<path class="tl" d="M718,774l-1,1h4l-1,1h1l2,-2v1l-1,2v1l1,1h-2v1h-8v-1h-1v-1h4l-1,-1h-3l2,-1h-1l1,-1h1ZM725,774l-2,1v-1h1ZM742,776v1l-1,-1l-1,1v-2h2ZM736,776v1l1,-1l2,-1v2h3l1,1l-1,1l2,-1v1l1,1v2h-1l2,2v1h1v1l-2,1h-1l-1,-2l-1,1v1l1,1v2l-1,1l-2,-2v1l1,1h-2l-2,-2v-1l-1,-1v1h-3v-1l1,-1h3l1,-1l2,-1v-1l-1,-1h-1l1,-1l-1,-1h-5l-1,-1h-1l1,-1h-1l1,-1l2,-1l1,-1h2ZM728,774h2l-1,1h-1l1,1l-2,1h-2v-2l1,1v-1ZM888,772h-2v-1ZM731,776l-2,1v-1l2,-2h2l1,1l-2,1ZM712,776h-2l-1,-1h1l2,-1l2,-2h2v1h2v1h-1l-3,1h-2ZM889,769v1h-3v-1h1ZM733,773v1l-1,-1h-1l1,-1h1l1,1ZM885,769l1,1h-2l-1,1l-2,-1l-1,-1h2ZM733,771h-1v1l-1,1h-2l1,-1h-1l1,-1h2ZM726,771h1v1h-4l-2,1h-1l1,-1h-1l-1,-1l2,-1h1l2,1l1,1v-2h2ZM836,780h-3l-2,-1v-1l1,-2h-1l1,-1l-1,-1h1l4,-2h2l-1,1l-2,1l-1,1v2l-1,1l1,1ZM735,770l1,1h1l-1,1h1l1,1h4v1h-7l-1,-1l1,-1v-1h-2l1,-1ZM724,769l-2,1h-4l2,-1h3ZM861,770l1,1v-1h2l2,1h1v1l-1,1h1l2,1v-1l1,1l1,-1h2l1,1h3l-2,-1h5l1,1v1h2l2,1l-1,-1h1l1,-1l2,1v-1h1l-2,-1h8l3,1l1,-1h2l2,2h2v-1h3l3,1v-1h-2v-1h7l8,5h-1l1,1l2,1h2v1h-1v1h-1l1,1v2l-2,-1v2l-1,-1v1h-1l2,2v1h1l3,2h-1l1,1h1v1l1,2h-1l1,2l1,1l-4,-2l-4,-3l-1,-2l-1,-1v-3l-1,-2v-1l-2,-2l-1,1l2,2l-3,-1l-1,1l1,2l1,1h-1l-1,1l-1,-1h-1v1h-4v7h1l2,1h1l-1,-1h1l3,1l1,2l1,1l1,2l2,2v9h-1l-1,-1v2h-1v1l1,1v1h-1v1l1,1h1l2,2v1l1,1v1l-1,1h-1l-1,-2l-1,-1h1l-2,-1v-1v1v-1h-1v-1l-1,-1h-2v1h-1l-1,-1l1,-1l-1,-1l-1,1v2h-1v1l2,2h1v-1h2l1,1l-2,1v2l2,2l1,2l2,1v2h1v6l-2,4l-1,1h-1v1l-1,-1v1l-2,1h-1v2l-1,-1v-1h-2l-1,2v2l1,1l1,2l2,2l1,3v4l-2,1v1l-2,1v-2l-1,-1h-1v-1l-2,-2h-1v-1h-1v6h1v3l1,1h1v1h1v1l1,1v3h1v2h-1l-2,-2v-1l-1,-1v-1l-1,-1v-2l-1,-1v-1h-1v-6l-1,-1v-1l-1,-2v-2l-1,-1l-2,2h-1v-3l-1,-2v-1h-1l-2,-2v-1l-1,-1h-1v2l-1,-1v1h-2v2l-2,1l-1,2v1l-2,2h-1v8l-1,1l1,1h-1l-1,1l-1,-1l-1,-2v-1l-1,-1v-1l-1,-2v-1l-3,-6v-3l-2,1h-1l-1,-2v-1l-2,-1l-1,-1v-1l-1,-1l-2,1h-5l-1,-1h-2v-2h-1l-1,1h-2l-3,-3l-1,-2l-1,1v-1l-1,1v2l1,1h1l1,1v2l1,1l-1,-1l1,-1v2h1v1l1,-1h2v-1l1,-1v-1v2l2,2h1l2,2l-1,1v1h-1v3h-1v1h-1v1h-2v1h-1l-2,2h-1l-2,2v-1l-1,1h-2v1h-2v-2l-1,-1v-3h-1v-1l-1,-1v-1l-1,-1h-1v-1l-1,-1v-3h-2v-2l-1,-1v-1l-2,-2v-1v1l-1,1l-1,-1l-1,-2l1,2l1,1l1,2v1l2,2h-1l2,2v1l1,1h-1l1,2v1l1,1l1,2v1l1,1l2,1v1h1v1h1v1l-1,1h1l1,1h3l1,-1h3v-1h1v2l-1,1v3l-1,1l-3,6l-1,1l-2,1l-1,1l-1,2v1h-1v1h-1v2l-1,1l-1,2l1,1v4l1,1v7l-1,1h-1l-3,3h-1v1l-1,1v2h1l-1,1h1v1l-1,1h1l-1,1h-1l-2,2v3l-3,3v1l-2,1v1l-1,1h-2v1l-1,-1v1l-1,-1l-1,1h-2l-1,1l-1,-1h-1v-5l-1,-1v-2l-1,-1v-1l-1,-1v-5l-1,-1v-1l-1,-2v-1l-1,-1v-3l1,-1v-3h1v-1l1,-1v-1h-1v-5l-1,-1v-2l-3,-3l-1,-2l1,-1v-5l-1,-1v-1l-1,1h-2l-1,-1v-1l-1,-1h-2l-1,1h-2l-1,1h-6l-1,1l-4,-4h-1l-1,-1v-1l-1,-1v-1h-1v-1l-1,-1v-1h-1v-3h-1l1,-1v-1h1l-1,-1l1,-1v-4l-1,-1v-1h1v-2l1,-1v-1h1v-2h1l1,-2h1l2,-2v-3l3,-3l1,-2v-1h1l1,1h2l1,-1h2l1,-1h4l1,-1h1v1h1l1,-1h1v1l1,-1v1h-1v1h1v2h-1v1h1v1h3l2,2h1l2,2l1,-1v-2l1,-1h2l1,1h1l1,1h2l1,1h1v-1h2l1,1v-1h1l1,1v-2l1,-1v-5h-2l-1,1l-1,-1h-2v1l-1,-1h-2v-1l-1,-1v-2l1,-1h1v-1h2l1,-1h1l2,-1l2,1l1,1h2l1,-1v-2h-1l-2,-2h-1l-1,-1l1,-1l-1,-1h2l-1,-1v1h-2l-1,1v1h1l-1,1h-1v-1h-1l1,-1h-2v-1h-1v1l-1,1v1h-1v4l1,1h-2v1h-1v-1h-2l1,1h-2v1l1,1h-1h1l1,1v1l-1,-1v1h-1l1,1h-2v-2l-1,-1v-1h-1v-3h-1v-1h-1l-1,-1h-1l-1,-1v-1l-1,-1v1v-1h-2v1l2,2v1l1,1h1l1,1h1l1,1v1l-1,-1h-1v1h1v1h-1v1h-1v-1h1l-1,-1v-1h-1l-1,-1h-1l-2,-2l-1,-2h-2v1h-4l-1,1v2h-2v1l-1,2h1l-1,1v1h-1l-1,1h-2l-1,1l-2,-2v1h-2l1,-1v-1h-1v-2l1,-1v-3l-1,-1l2,-1l1,1h5v-4l-1,-1v-1h-2v-1h3v-2l1,1l2,-1v-1h1l1,-1l1,-2l1,-1h2v-5h2l-1,1h1v1l-1,1v1h1v1l1,-1h2v1h1l2,-2l1,1h1v-1h1v-3l1,-1l1,1v-1l-1,-1v-1h4l1,-1h-4l-1,1l-2,-2v-4l2,-1v-1l-1,-1l-2,2l-1,2l-1,1v3h1v2h-1v2l-1,2h-1v1h-1v-2l-1,-1l-1,-2l-1,-1l-1,2h-1l-2,-1v-5l2,-1l3,-3l2,-3l3,-3h2l1,-2h3l2,1l-1,1h2l1,1h3l3,1l1,1v1l-1,1h-1l-3,-1h-1l2,1v2l1,1h1v-1h-1l1,-1l2,1v-1l1,-2h1l1,1v-1l-1,-1v-1l-1,-1l2,1h1l-1,1l1,1h1v-1l1,-1l2,-1h1v1l1,-1h1l1,-1l1,1l1,-1h-2l1,-1h2l1,1l4,1v-1h-2v-1h-1l-1,-1v-3h2l1,1v1h1l1,1l1,2h1v3l1,1v-1h1l-1,-1l1,-1h-1l-2,-2v-1l-2,-1l1,-1l-1,-1h1l1,2l-1,-1l1,-1h2l1,1l-1,-1l-1,-2h4l-2,-1v-1h1l1,-1h3l1,-1h1v-2l2,1h-1ZM843,820l1,1v2h-1v1l1,1h1l1,1h3l-1,-1v-2h-1v-2h1v-1l-1,-1h-1l1,1l-1,-1v-1h-2v-2h-1h1v-2l1,1v-3h-2l-1,1h-1v1h-1l-1,2l2,1v1l1,1Z"/>
<path class="tl" d="M736,770h-1v-1h1l1,1ZM727,769h-2l1,-1h1l1,1ZM810,771l-1,1h-1v-1h-1l2,-1v1ZM729,768h-2l1,-1v1ZM736,769h-1v-1h1l1,1ZM734,769h-1l-1,-1h-1h1v-1h1l1,1ZM858,768l-3,1v-2ZM805,769l3,1h-2v3h-1l-2,-1h1l-1,-1l-2,-1v-1l1,-1l1,1h1v-1h1ZM810,768h1l-1,1h-4l-1,-1h3ZM824,767l-1,1h-1v-1h-1h4ZM854,768h-4l-2,-1l-1,-1h1l1,-1l4,2ZM743,767v1h-1l-2,1h-2v-1h1h-1v-1l1,-1h2v-1h1v1h1ZM757,764h3v1h-3l-1,1h-1l-1,1l-2,1h-3v1h-1v1h-2l-2,1h1l-2,1h-4l-1,-1h2v-1h2v-1h-1h1l1,-1h1l-1,-1h4l-1,-1h-3v-1l1,-1h6v-1h3v1l2,-1l1,1ZM780,764l3,1h-6v1h5l-1,1l2,-1h4v1l-2,1h-1l-2,2v2l1,1h-2l1,1l-1,1v1h-1l1,1h-3l1,1v1l-1,-1l-1,1h1l1,1v1h-2l-1,-1v1l-1,1h3l-4,2h-3l-1,1l-4,2h-1l-2,1h-1v1l-2,2v1l-1,1l-1,2h-1l-1,-1h-1l-1,-1v-2l-1,-1v-1l1,-1l-1,-2l1,-1l1,-2h1l1,-1v-1l-1,1h-1v-1l1,-1h1l-1,-1h-1l1,-1v-4l-1,-1h-5v-1l-1,-1h1l-1,-1l1,-1h2l3,-1h1l-2,-1h1l3,-1h1v-1h9l1,1l-1,-1h1l2,-1h3l2,-1Z"/>
<path class="th" d="M939,956h1ZM632,948h-1h1h-1ZM613,926h-1ZM944,952h-1ZM946,951h-1h1h-1ZM959,943h1ZM955,946v1h-1h1h-1h1h-2v1h-1v1h-2v1h-2v1h-1h1h-1v-1v1v-1v1v-1h-1v-1h1h-1h1h-1h1h-1h1v-1h1h-1h1v1h-1h1v-1v1v-1h1h-1h1v-1h3v-1h2v-1h1v-1h2v-1h1v-1v1v-1h1v1h-1h1h-1h1h-1v1v-1h1h-1h1v1v-1v1v-1v1h-1h1h-1v1h-1v1h-1h1h-1ZM966,937h-1ZM966,936v1v-1v1v-1h1ZM963,942h1h-1v1h-2v1h-1v-1h1v-3h2v-1h1v-1h1h-1h1v-1v1v-1v1v-1v1v-2h1h-1h1h-1h1h-1h1h-1h1h-1v-1h1h-1h1h-1h1v-1h1v1h-1h1h-1h1h-1v1v-1v2h-1v1h1v-1v1h-1v1v-1v1h2v1h-1v1v-1h-1v1h-1v1Z"/>
<path class="tg" d="M656,970h1l1,-1h4v-1h5v-1h5v-1h6v-1h6l1,-1h7v-1h8v-1h9l1,-1h11v-1h14v-1h20v-1h79v1h20v1h14v1h11l1,1h9v1h8v1h7l1,1h6v1h6v1h5v1h5v1h4l1,1h1M611,927h6v-1h7v-1h8v-1h10v-1h10v-1h12v-1h14v-1h18v-1h23v-1h38v-1h75v1h38v1h23v1h18v1h14v1h12v1h10v1h10v1h8v1h7v1h6M595,877h399M611,826h4v1h7v1h8v1h9v1h10v1h11v1h14v1h16v1h21v1h32v1h103v-1h32v-1h21v-1h16v-1h14v-1h11v-1h10v-1h9v-1h8v-1h7v-1h4M656,783v1h5v1h4v1h5l1,1h5v1h6l1,1h6l1,1h7v1h10v1h10v1h13l1,1h17v1h36v1h21v-1h36v-1h17l1,-1h13v-1h10v-1h10v-1h7l1,-1h6l1,-1h6v-1h5l1,-1h5v-1h4v-1h5v-1M730,755h-1v1h-3v1h-2v1h-2v1h-2v1h-2v1h-2l-1,1h-1l-1,1h-1l-1,1h-1v1h-2v1h-2v1h-2v1h-1l-1,1h-1v1h-2v1h-1l-1,1h-1v1h-2v1h-1v1h-2v1h-1v1h-2v1h-1v1h-1l-1,1h-1v1h-1v1h-2v1h-1v1h-1v1h-1v1h-2v1h-1v1h-1v1h-1v1h-1v1h-1v1h-1l-1,1h-1v1h-1v1h-1v1h-1v1h-1v1h-1v1h-1v1h-1v1h-1v1l-1,1v1h-1v1h-1v1h-1v1h-1v1h-1v1l-1,1v1h-1v1h-1v1h-1v2h-1v1h-1v2h-1v1h-1v2h-1v1h-1v2h-1v2h-1v1h-1v2h-1v2h-1v2h-1v2h-1v2l-1,1v2h-1v2l-1,1v2h-1v3h-1v4h-1v4h-1v5h-1v9h-1v13l1,1v8h1v5h1v4h1v4h1v3h1v3h1v2h1v3h1v2h1v2h1v2h1v2h1v2h1v2h1v1l1,1v1h1v2h1v1h1v2h1v1h1v1h1v2h1v1h1v1l1,1v1h1v1h1v1h1v1l2,2v1h1v1h1v1h1v1h1v1h1v1h1v1h1v1h1v1h1v1h1v1h1v1h1v1h1v1h2v1h1v1h1v1h1v1h1v1h1l1,1h1v1h1v1h1v1h2v1h1v1h1l1,1h1v1h1v1h2v1h1v1h2v1h1l1,1h1v1h2v1h1v1h2v1h2v1h1l1,1h1v1h2v1h2v1h2v1h2v1h2v1h2v1h2v1h2l1,1h2v1h2v1h2M743,755h-1v1h-2v1h-2v1h-1v1h-2v1h-2v1h-1v1h-2v1h-1v1h-2v1h-1v1h-2v1h-1v1h-1v1h-2v1h-1v1h-1l-1,1h-1v1h-1v1h-1v1h-1v1h-1l-1,1h-1v1h-1v1h-1v1h-1v1h-1v1h-1v1h-1v1h-1v1h-1v1h-1v1h-1v1h-1v1h-1v1h-1v1h-1v1h-1v1h-1v1l-2,2v1h-1v1h-1v1h-1v1l-1,1v1h-1v1h-1v2h-1v1h-1v1l-1,1v1h-1v2h-1v1h-1v2h-1v1h-1v2h-1v2h-1v2h-1v2h-1v2h-1v2h-1v2h-1v3h-1v2h-1v3h-1v3h-1v3h-1v3h-1v4l-1,1v4h-1v6l-1,1v30h1v6h1v5h1v4h1v3h1v3l1,1v2l1,1v2h1v3h1v2h1v2h1v2h1v2l1,1v1h1v2h1v2h1v2h1v2h1v1h1v2h1v1h1v2h1v1h1v2h1v1h1v1h1v2h1v1h1v1h1v1l1,1v1h1v1h1v1h1v1h1v1h1v1h1v1l3,3v1h1l3,3h1v1h1v1h1v1h1v1h1v1h1v1h1v1h1l1,1h1v1h1v1h1v1h1l1,1h1v1h1v1h1l1,1h1v1h1v1h2v1h1v1h2v1h1v1h2v1h2v1h1v1h2v1h1l1,1h1v1h2M756,755h-1v1h-1v1h-1l-1,1h-1v1h-1v1h-1v1h-1v1h-1v1h-1l-2,2h-1v1h-1v1h-1v1h-1v1h-1v1h-1v1h-1v1h-1v1h-1v1l-2,2v1h-1v1h-1v1h-1v1h-1v1l-1,1v1h-1v1h-1v1h-1v2h-1v1h-1v1l-1,1v1h-1v1h-1v2h-1v1h-1v2h-1v2h-1v1h-1v2h-1v2h-1v2h-1v1l-1,1v1l-1,1v1l-1,1v2h-1v2h-1v2h-1v3h-1v2h-1v3h-1v3h-1v3h-1v3h-1v4h-1v4h-1v5h-1v6h-1v8h-1v30h1v7l1,1v5h1v5h1v4h1v4h1v3h1v3h1v3h1v3h1v3h1v2h1v2h1v2l1,1v2h1v2h1v2h1v2h1v1h1v2h1v2h1v2h1v1h1v2h1v1h1v2h1v1l1,1v1h1v1h1v2h1v1h1v1h1v1l1,1v1h1v1h1v1h1v1l1,1v1h1v1h1v1h1v1h1v1h1v1h1v1h1v1h1v1h1v1h1v1h1v1h1v1h1v1h1v1h1l2,2h1v1h1v1h1v1h1v1h2v1h1"/>
<path class="tg" d="M769,755h-1v1h-1v2h-1v1h-1v1h-1v1h-1v2h-1v1h-1v1l-1,1v1h-1v1l-1,1v1h-1v1l-1,1v1h-1v2h-1v1l-1,1v1h-1v2h-1v2h-1v2h-1v2h-1v2h-1v2h-1v2h-1v2h-1v2l-1,1v2h-1v2l-1,1v2h-1v3h-1v3h-1v3h-1v3h-1v4h-1v4h-1v4h-1v4h-1v5l-1,1v5h-1v8h-1v11h-1v29l1,1v10l1,1v7h1v6h1v5h1v4l1,1v4h1v3l1,1v3h1v3h1v3h1v3h1v3h1v3h1v2h1v3h1v2h1v2h1v2l1,1v2h1v2h1v1l1,1v1l1,1v1h1v2h1v2h1v1l1,1v1h1v2h1v1h1v2h1v1h1v2h1v1h1v1l1,1v1h1v1h1v1h1v2h1v1h1v1h1M782,755h-1v3h-1v2h-1v3h-1v3h-1v3h-1v3h-1v3h-1v3l-1,1v3h-1v4h-1v4h-1v4l-1,1v4h-1v5h-1v6h-1v6l-1,1v7h-1v8h-1v11l-1,1v18h-1v29l1,1v18h1v11h1v8l1,1v7h1v6h1v6h1v5h1v5h1v4h1v4h1v4h1v4h1v3h1v3l1,1v3h1v2l1,1v2h1v3h1v3h1v2h1M795,755v243M807,755h1v3h1v2h1v3h1v3h1v3h1v3h1v3h1v3l1,1v3h1v4h1v4h1v4l1,1v4h1v5h1v6h1v6l1,1v7h1v8h1v11l1,1v18h1v29l-1,1v18h-1v11h-1v8l-1,1v7h-1v6h-1v6h-1v5h-1v5h-1v4h-1v4h-1v4h-1v4h-1v3h-1v3l-1,1v3h-1v2l-1,1v2h-1v3h-1v3h-1v2h-1M820,755h1v1h1v2h1v1h1v1h1v1h1v2h1v1h1v1l1,1v1h1v1l1,1v1h1v1l1,1v1h1v2h1v1l1,1v1h1v2h1v2h1v2h1v2h1v2h1v2h1v2h1v2h1v2l1,1v2h1v2l1,1v2h1v3h1v3h1v3h1v3h1v4h1v4h1v4h1v4h1v5l1,1v5h1v8h1v11h1v29l-1,1v10l-1,1v7h-1v6h-1v5h-1v4l-1,1v4h-1v3l-1,1v3h-1v3h-1v3h-1v3h-1v3h-1v3h-1v2h-1v3h-1v2h-1v2h-1v2l-1,1v2h-1v2h-1v1l-1,1v1l-1,1v1h-1v2h-1v2h-1v1l-1,1v1h-1v2h-1v1h-1v2h-1v1h-1v2h-1v1h-1v1l-1,1v1h-1v1h-1v1h-1v2h-1v1h-1v1h-1M833,755h1v1h1v1h1l1,1h1v1h1v1h1v1h1v1h1v1h1l2,2h1v1h1v1h1v1h1v1h1v1h1v1h1v1h1v1h1v1l2,2v1h1v1h1v1h1v1h1v1l1,1v1h1v1h1v1h1v2h1v1h1v1l1,1v1h1v1h1v2h1v1h1v2h1v2h1v1h1v2h1v2h1v2h1v1l1,1v1l1,1v1l1,1v2h1v2h1v2h1v3h1v2h1v3h1v3h1v3h1v3h1v4h1v4h1v5h1v6h1v8h1v30h-1v7l-1,1v5h-1v5h-1v4h-1v4h-1v3h-1v3h-1v3h-1v3h-1v3h-1v2h-1v2h-1v2l-1,1v2h-1v2h-1v2h-1v2h-1v1h-1v2h-1v2h-1v2h-1v1h-1v2h-1v1h-1v2h-1v1l-1,1v1h-1v1h-1v2h-1v1h-1v1h-1v1l-1,1v1h-1v1h-1v1h-1v1l-1,1v1h-1v1h-1v1h-1v1h-1v1h-1v1h-1v1h-1v1h-1v1h-1v1h-1v1h-1v1h-1v1h-1v1h-1v1h-1l-2,2h-1v1h-1v1h-1v1h-1v1h-2v1h-1M846,755h1v1h2v1h2v1h1v1h2v1h2v1h1v1h2v1h1v1h2v1h1v1h2v1h1v1h1v1h2v1h1v1h1l1,1h1v1h1v1h1v1h1v1h1l1,1h1v1h1v1h1v1h1v1h1v1h1v1h1v1h1v1h1v1h1v1h1v1h1v1h1v1h1v1h1v1h1v1h1v1l2,2v1h1v1h1v1h1v1l1,1v1h1v1h1v2h1v1h1v1l1,1v1h1v2h1v1h1v2h1v1h1v2h1v2h1v2h1v2h1v2h1v2h1v2h1v3h1v2h1v3h1v3h1v3h1v3h1v4l1,1v4h1v6l1,1v14l1,1h-1v15h-1v6h-1v5h-1v4h-1v3h-1v3l-1,1v2l-1,1v2h-1v3h-1v2h-1v2h-1v2h-1v2l-1,1v1h-1v2h-1v2h-1v2h-1v2h-1v1h-1v2h-1v1h-1v2h-1v1h-1v2h-1v1h-1v1h-1v2h-1v1h-1v1h-1v1l-1,1v1h-1v1h-1v1h-1v1h-1v1h-1v1h-1v1l-3,3v1h-1l-3,3h-1v1h-1v1h-1v1h-1v1h-1v1h-1v1h-1v1h-1l-1,1h-1v1h-1v1h-1v1h-1l-1,1h-1v1h-1v1h-1l-1,1h-1v1h-1v1h-2v1h-1v1h-2v1h-1v1h-2v1h-2v1h-1v1h-2v1h-1l-1,1h-1v1h-2"/>
<path class="tg" d="M859,755h1v1h3v1h2v1h2v1h2v1h2v1h2l1,1h1l1,1h1l1,1h1v1h2v1h2v1h2v1h1l1,1h1v1h2v1h1l1,1h1v1h2v1h1v1h2v1h1v1h2v1h1v1h1l1,1h1v1h1v1h2v1h1v1h1v1h1v1h2v1h1v1h1v1h1v1h1v1h1v1h1l1,1h1v1h1v1h1v1h1v1h1v1h1v1h1v1h1v1h1v1l1,1v1h1v1h1v1h1v1h1v1h1v1l1,1v1h1v1h1v1h1v2h1v1h1v2h1v1h1v2h1v1h1v2h1v2h1v1h1v2h1v2h1v2h1v2h1v2l1,1v2h1v2l1,1v2h1v3h1v4h1v4h1v5h1v9h1v13l-1,1v8h-1v5h-1v4h-1v4h-1v3h-1v3h-1v2h-1v3h-1v2h-1v2h-1v2h-1v2h-1v2h-1v2h-1v1l-1,1v1h-1v2h-1v1h-1v2h-1v1h-1v1h-1v2h-1v1h-1v1l-1,1v1h-1v1h-1v1h-1v1l-2,2v1h-1v1h-1v1h-1v1h-1v1h-1v1h-1v1h-1v1h-1v1h-1v1h-1v1h-1v1h-1v1h-1v1h-2v1h-1v1h-1v1h-1v1h-1v1h-1l-1,1h-1v1h-1v1h-1v1h-2v1h-1v1h-1l-1,1h-1v1h-1v1h-2v1h-1v1h-2v1h-1l-1,1h-1v1h-2v1h-1v1h-2v1h-2v1h-1l-1,1h-1v1h-2v1h-2v1h-2v1h-2v1h-2v1h-2v1h-2v1h-2l-1,1h-2v1h-2v1h-2"/>
<rect x="595" y="881" width="21" height="21" fill-opacity="0" stroke="#ffffff" stroke-opacity="0.5" stroke-width="5.0"/>
<rect x="597" y="883" width="21" height="21" fill-opacity="0" stroke="#113311" stroke-opacity="0.8" stroke-width="5.0"/>
<rect x="596" y="882" width="21" height="21" fill-opacity="0" stroke="#45a249" stroke-opacity="0.9" stroke-width="5.0"/>
<rect x="948" y="932" width="22" height="21" fill-opacity="0" stroke="#ffffff" stroke-opacity="0.5" stroke-width="5.0"/>
<rect x="950" y="934" width="22" height="21" fill-opacity="0" stroke="#113311" stroke-opacity="0.8" stroke-width="5.0"/>
<rect x="949" y="933" width="22" height="21" fill-opacity="0" stroke="#45a249" stroke-opacity="0.9" stroke-width="5.0"/>
</svg>
