<?xml version="1.0" encoding="UTF-8" standalone="no"?>
<svg xmlns:svg="http://www.w3.org/2000/svg" xmlns="http://www.w3.org/2000/svg" xmlns:xlink="http://www.w3.org/1999/xlink" height="1000" width="1000">
<!-- made with pythonshp (GPL): github.com/sanjayrao77/pythonshp , underlying data may come from naturalearthdata.com -->
<!-- 
COPYRIGHT: THIS SVG FILE IS RELEASED INTO THE PUBLIC DOMAIN
 -->
<!-- 
vars : {
	'cmdline' : 'pythonshp.py publicdomain wiki1 panama locatormap'
	'title' : 'Panama locator'
	'version' : '1.0.5'
}
 -->
<defs>
	<radialGradient id="watergradient" cx="500" cy="500" r="500" fx="500" fy="500" gradientUnits="userSpaceOnUse">
		<stop offset="0%" stop-color="#70add3"/>
		<stop offset="11%" stop-color="#6eaad0"/>
		<stop offset="22%" stop-color="#6ca7cc"/>
		<stop offset="31%" stop-color="#6ba5c9"/>
		<stop offset="41%" stop-color="#69a2c6"/>
		<stop offset="51%" stop-color="#679fc2"/>
		<stop offset="59%" stop-color="#669dbf"/>
		<stop offset="67%" stop-color="#649abc"/>
		<stop offset="75%" stop-color="#6297b9"/>
		<stop offset="81%" stop-color="#6095b6"/>
		<stop offset="87%" stop-color="#5f92b2"/>
		<stop offset="92%" stop-color="#5d8faf"/>
		<stop offset="95%" stop-color="#5b8dac"/>
		<stop offset="98%" stop-color="#598aa8"/>
		<stop offset="100%" stop-color="#5685a2"/>
	</radialGradient>
	<radialGradient id="landgradient" cx="500" cy="500" r="500" fx="500" fy="500" gradientUnits="userSpaceOnUse">
		<stop offset="0%" stop-color="#dddddd"/>
		<stop offset="11%" stop-color="#d7d7d7"/>
		<stop offset="22%" stop-color="#d1d1d1"/>
		<stop offset="31%" stop-color="#cccccc"/>
		<stop offset="41%" stop-color="#c6c6c6"/>
		<stop offset="51%" stop-color="#c0c0c0"/>
		<stop offset="59%" stop-color="#bbbbbb"/>
		<stop offset="67%" stop-color="#b5b5b5"/>
		<stop offset="75%" stop-color="#afafaf"/>
		<stop offset="81%" stop-color="#aaaaaa"/>
		<stop offset="87%" stop-color="#a4a4a4"/>
		<stop offset="92%" stop-color="#9e9e9e"/>
		<stop offset="95%" stop-color="#999999"/>
		<stop offset="98%" stop-color="#939393"/>
		<stop offset="100%" stop-color="#888888"/>
	</radialGradient>
	<radialGradient id="bordergradient" cx="500" cy="500" r="500" fx="500" fy="500" gradientUnits="userSpaceOnUse">
		<stop offset="0%" stop-color="#444444"/>
		<stop offset="11%" stop-color="#3f3f3f"/>
		<stop offset="22%" stop-color="#3a3a3a"/>
		<stop offset="31%" stop-color="#363636"/>
		<stop offset="41%" stop-color="#323232"/>
		<stop offset="51%" stop-color="#2d2d2d"/>
		<stop offset="59%" stop-color="#292929"/>
		<stop offset="67%" stop-color="#242424"/>
		<stop offset="75%" stop-color="#1f1f1f"/>
		<stop offset="81%" stop-color="#1b1b1b"/>
		<stop offset="87%" stop-color="#161616"/>
		<stop offset="92%" stop-color="#121212"/>
		<stop offset="95%" stop-color="#0e0e0e"/>
		<stop offset="98%" stop-color="#090909"/>
		<stop offset="100%" stop-color="#000000"/>
	</radialGradient>
</defs>
<style type="text/css">
<![CDATA[
.fs {font:14px sans;stroke:#ffffff;stroke-width:2px;stroke-opacity:0.8;text-anchor:middle}
.ft {font:14px sans;fill:#000000;fill-opacity:1;stroke-opacity:0;text-anchor:middle}
.sb {stroke:url(#bordergradient);fill-opacity:0}
.sg {stroke:#000000;fill-opacity:0.0;stroke-opacity:0.2}
.sh {fill:#45a211;stroke:#000000}
.sl {fill:url(#landgradient);stroke:url(#bordergradient)}
.sp {stroke:url(#landgradient);fill-opacity:0}
.sr {stroke:url(#watergradient);fill-opacity:0}
.sw {fill:url(#watergradient);stroke:url(#watergradient);stroke-opacity:0.8}
.tb {fill:#eeeeee;stroke:black;stroke-width:2}
.tg {stroke:black;stroke-opacity:0.2;fill-opacity:0}
.th {fill:#45a211;stroke:#378100}
.tl {fill:#aaaaaa;stroke:black}
]]>
</style>
<circle cx="500.0" cy="500.0" r="500.0" fill="url(#watergradient)"/>
<path class="sl" d="M853,146l1,1l-4,-4v1h1l3,3v1v-1l4,4v1h1l5,5v1h1l3,3v1l1,1h1v1l2,2h1v1l2,2v1v-1v1v-1l-12,-12v-1l-2,-2h-1v-1h-1l-1,-1h-1v-1v1l2,1l1,2l1,1v1l3,3v1h-1l-1,-1v-1v1h-1v-1h-1h1v1l1,2l4,4v1h1v1h1v1h1v1h1v1l1,2l1,1v2l1,1v1h1v1l1,1l2,4l1,1l4,6h1v1h1v1h1v2l1,1v1h1v1l1,1v1h1v3l1,1l2,4l-1,-1v1h-1v1h-2l1,1v1l-1,1h1v1l1,1h-1h1v1l-1,-1h-1l-2,-2v-1h-1v-1l-2,-2l-2,-1v-1v1h-1v2l-1,-1h-1v1l-1,-1l-1,-2l-1,-1v-1l-1,-1h-1l-1,-2v-1l-1,-1h-1l-1,-1v-1l-1,-1v1h1v1h-1v-1h-1v-1l-1,-1v-1h-1v-1l-1,-1l-2,-4v-1h-1l-1,-3h-1v-1l-1,-1v-1h-1l-3,-3v-1h-1v-1l-1,-1v1v-1l-1,-1v-1h-1v-1h-1v-1h-1l-1,-1h-1v-1l-1,-1v-1l-1,-1h1v-1h-1v-2h1l1,1h2v-1h2v1h2v-1h1l1,1v-1h2v-1h-1l-5,-7l-1,-1h-1h1l-4,-4h1l1,2h1h-1l-2,-2v-1h-1l-1,-1h-1h1h-1v-1h-1l-1,-2h-1v-1h-1l-2,-2h-1l-2,-2h-1v-1h1h-2v-1h-2v-1h-2l-1,-1v1h-1v-1h-1v-1h-1v-1h-1h1l-1,-1h-1l-1,-1v-1h1l-1,-1h1l2,1v1v-1h1h-1v-1l1,1v-1h-1l-3,-3h-1l-2,-2v-1l1,1h1v1h2v-1h-1l-2,-2v-1l-1,-1v-1h-1l-4,-4v-1h-1v-1l-1,-1h1v1v-1v1h1l-1,-1h-1v-1v1v-1v1l-1,-1h1h-1v-1l-2,-1l-2,-2h-1l-3,-3v-1h-1l-1,-1v-1h-1v-1h-1h1l-1,-1h1h-1v-1v1h1l-1,-1h-1l-1,-1l2,1l-2,-1v-1h-1l-2,-1v-1v1l-3,-3h-1l-1,-1l1,1v-1v1h1l1,1h1h-1h1l1,1l-1,-1l1,1h1v1h1l-1,-1h-1v-1h-1l-1,-1h1v1l1,1v-1l2,2h1v1v-1h-1v-1h-1h1h-1l-1,-1l1,1h1l3,3h1l3,3h1l4,4h1l3,3h1l4,4h1l4,4h1l9,9h1l6,6h1l4,4v1l1,1h1l8,8Z"/>
<path class="sp" d="M864,158h1l3,3v1l1,1h1v1l2,2h1v1l2,2v1M791,93l2,2h1l3,3h1l3,3h1l4,4h1l3,3h1l4,4h1l4,4h1l9,9h1l6,6h1l4,4v1l1,1h1l8,8"/>
<path class="sl" d="M285,100v1h-1v1h-1v1h-1l-2,2h-1l-1,1h-1v-1l1,-1h1l1,-1v-1h1l1,-1v-1h1v-1h-1l-1,1h-2v1h-1v1h-1v-1h1v-1h2l1,-2l1,1l1,-1h-1v-2h1h-1l1,-1v-1h1h-1v-1l2,-2v-1l1,1v-2h1h-1v-1h1l1,-1h-2l1,-1v-1h1v-1l2,-2h-1v1l-1,1h-1v1h-1v1l-1,1h-1v-1h-1h1l1,-1v-1h1l1,-1h-1v1h-1v-1h-2v1l1,-1v2h-1h1l-1,1h-2v1h-1v-2h1v-2l1,-1h-1h1h-1v-3h2v-1h1v1h-1h1v-1h1v-1l-1,1h-1l-2,1v-1h-1v-1h1l1,-1h-1v1h-2v-1h-3v-2h2v-1h1h-1l-1,1h-2l1,-1h1h-1v-1h1h-1h1v-1h2v-1l-1,1h-3l1,-1h1h-2v1h-2v1h-1l-1,1h1v-1v1h-1l-1,1h-1l-1,1h-2l1,-1l-1,1h-1l-1,1l1,-1h-1v1v-1l-1,1h-2v1h-2v1h-1l1,-1h-1v1h-1v-1h1l1,-1h2l1,-1l-1,1v-1l1,-1h2l1,-1l2,-1l1,-1h1l1,-1h3v1v-2h2v-1h1h-1v1h-1v-1l-2,1h-2v1h-1l-1,1h-2l-1,1h-1l-1,1v-1v1h-1l-1,1h-1l-1,1h-1h1h-2v1h-2l-1,1h-1v2h-1l-1,1h-2l-1,1h-1l-1,1h-2l-1,1h-2v1h-2l-1,1h-1v1h-2v1h-2l-1,1h-2l-1,1h-1v1h-2v1h-2l-1,1h-1h1l1,-1h-1l-1,1h-1l-1,1l1,-1h-1v1h-1l1,-1h1h-2v1l-2,1h-1h1v-1l-1,1h-1h1h-1v1h-1l1,-1h1v-1h2v-1h1l1,-1h1l1,-1h1l-1,1h2v-1h1v-1h2v-1h2l1,-1h1l1,-1v1v-1h1l1,-1h1l1,-1h2v-1v1v-1h1l2,-1l1,-1h1v-1h1v-1h1l1,-1h1l2,-1l1,-1l-1,1h-1l-1,1h-1v-1h1l1,-1v1v-1l-1,1v-1v1h-1l-2,2h-1l3,-3h1h-3v1h-1l1,-1h1v-1h1l1,-1h1v-1h2v-1l4,-2v-1h2l1,-1h1h-1l-2,1h-1v1h-2v1h-1v-1l1,-1h1l1,-1h1v-1h2l1,-1h-1v1h-1h1l-1,1l1,-1h1v-1h1h-1l1,-1h1v-1h1h-1v1h-1h1l1,-1v-1h2v-1h2v-1h2l1,-1l2,-1h2v-1v1h-1l1,-1h1l1,-1h2v-1v1h-1h2l2,-1h2l1,-1h1l1,-1l2,-1h1v-1h2l1,-1h-2v1h-1v-1v1h-1h1v-1h-2v1v-1h1v-1h2l1,-1h1v-1h2v-1h1l1,-1h1h-1h2l1,-1h2l1,-1h2l-1,1h-2v1h3v-1h1l1,-1h1v-1h1l-1,1h-1l-1,1h-1v1h1l2,-2h-1l-1,1h1v-1h1l1,-1h1h-1h1h-1l1,-1h1l2,-1l1,-1l3,-1v-1h2v-1h2l2,-1h2l1,-1h3l1,-1h1l3,-1l2,-1l-1,1h1l1,-1h1l-1,1l1,-1h2l1,-1h1h-1v1v-1h5l1,-1h1h-1v1h-2l-1,1h2v-1h1l-1,1h-1h2v1h-2v1h-1h3v1h-1h1v1h1v1h3v2h2l-1,1v2h2v1h1v-1h-1h1l1,-1h3v-1h1v1l1,-1h1l-1,1h-1h3l1,-1h5l1,-1h4l-1,1h-4l-1,1h-5v1h-4v1h-1h2l1,-1h3v-1h3l-1,1h-1h1l2,-1h1l1,-1h2v1h1l1,-1h1l1,-1h2v-1h2v1h-1v1h-1v1h-1v1h2l1,-1h2l1,-1h-1h1v1h-1v1h-2v1h2l1,-1h1l1,-1h3l2,2l2,1h1v1h3v1h1v-1h2v1h1v2h-4v1h-2l1,1h15v1h1v1l1,-1v1l1,1h-3l1,1v2h1v-2h2v-2h1v-1h-1h1v-1h3v-1l1,1v-1h3l1,-1h1h-3v1l-1,-1v1h-6l1,-1h2v-1h8v1h-1v1h2v1h3l1,1h3v1h1l1,-1h5l1,1h2l1,-1h-1v-1h1v1l1,1h3v-1h-3l-1,-1h1l-1,-1h1l1,1v-1h3v1h2l-1,1l1,-1h1l-1,2h-1v1h-1h1v1h2v1h-3v-1l-1,1l1,1h1l-1,-1h3v-1l1,-1v-1h-1l1,-1h3l1,-1h1l1,-1h1v-1h1v-1h-1v1h-2v-1h2v-1h2v-1l-1,1h-1v-1h-3v-1h-2v-2h2v-1l1,1v-1h-2l1,-1v-1h3l1,-1h-1h1v-1h3l1,1h2v3h-1h2v2h1v-1v1h-1v1h-1l-2,1h5l1,1h1h-3l1,1v1h1h-1v2h1l2,-2v-1h2v-1l2,2h1v2h-2v2l3,3v-1h2v-1h1v-1l2,-1l1,-1v-1h1v-1v1h1l1,-1h-1h1v-1h-1v-2h2v-1h1l1,1h5v1h-1h1l1,1h-1h3l-1,1h-1h2v1h-1l-1,1v-1h-1v1h-1h1v1h1h-1l1,1h1v1h1v2h-2v1h-2v1h-2l-1,1h-1v-1h-1v-1h-2v-1h-2v1h2l2,2h-2v1l-1,-1h-2l-1,-1h-4v1h2v1l-3,2h-1v1h-4l-1,-1h-1v-1h-3v-1h-1v1h-1v-1h-4v1h1l1,-1l1,1h2l1,1h1v1h6l1,1h1l-1,1h-1l-2,2h-1v1h-1l-2,1h-1v-1h-1l1,1h-2l-1,-1h-1h1v1h-1v1h-7v-1h-1v1l-1,-1h-2l-1,-1h-1v1h1h-1h1l2,1h2h-1h2l1,1h3v1l-1,1h-1l-2,1h-3v1h1h-3v1h-1h1v1h-1v-1h-1v1h-2v1h-1h1v1h-2l-1,1v1h-1l-3,3h-1v1l-1,1v1l-2,4h-1l1,1v1v-1v1h1v2h-1h1l1,-1v-1h4v2l1,1v6h-1l-1,1h1l1,-1h1h-1h2l4,-1h3l1,1h1l1,1h4l2,2h2l1,1l1,2h3l2,1l1,1h3v1h1l1,1l-1,1l1,-1h11v1h3v3l-1,1v1l1,1v1h1l-1,1v5h1l2,2v1h-1h2v1h2v1l2,1v1h1v2h-1l-1,1l1,-1h4v1l2,1h1v1v-1l-1,-1h-1v-1l1,-1v-1h2l1,1v1h1v-2l-1,-1h1v-1l1,-1v-1h1h-1v-1l-1,-1v-2h-1v-3l-1,-1l1,-1h-1v-1h1h-2l1,-1h-1l-1,-1v-1h-1v-1l4,-1h2l1,-1h1l1,-1h1l2,-1v-1l1,-1h1v-1h1v-7h-1v-1l-1,-1l-1,-2h-2v-1h-2l-2,-1l-1,-1v-1h1v-1h1v-1h1v-2h1l1,1v-3h-1h1l-2,-2h1h-1v-1h1v-1l-1,1h-2v-1h1l1,-1v-2h1h-1l-2,-2v-2h1l1,-1h3l1,1h3l1,1h-1h2v-1l1,1h3l1,-1h4v1h2v1h1h-1v1l1,-1h1v1h1v1l1,-1l1,1h-1h1v1h1v1h6v1h2v-1h1v2h-1v1l1,1v1h-2h2v1h1v2h1l1,1h-1l1,1v1h-1l-1,-1v1h-1l1,1h1l1,-1h5v1h1v2l-1,1h-2v1l1,-1h2v-2h2v1h-1h1v-1l1,1v1v-1h1l1,-1h1l1,-1v-1h2v1l1,1v-1l-1,-1h1l-1,-1h2v-1h-1v-1h1h-1l1,-1v1h1h-1v-1h-1v-1h1v-3h1l1,1l-1,1h2v-1l1,1v1h1v1h1v1h2l1,1h-3l1,1l1,-1h1v1h2l1,1l-1,1h-1v1l1,-1v1h1l1,-1h1v1l-1,1h-1v1l1,-1h2l1,1h2v2h-1v1l1,-1l1,1v1h2l2,1v2l-3,-1h-2l2,1h1v1h2v1h1l1,1h-1h2v1h1v-1h1v1h2v1h1l1,1h-1v2l1,-1h4v1l-1,1l1,-1v-1h2v1h1l1,1h4v1h3v1h-2l-1,1h-1v1h-2v1h-1l-1,1h-3v1h-1l1,1h1h-1v1h1l2,-2h1l2,-2h1l1,-1h1h-2l1,-1h3l1,1l2,1v1l-1,1h2v-1h3l1,1h2v1h1v2l2,2h-2v1h3v1h-1v-1v1h2v1l-3,3l-2,1h-4l-1,1h-2v1l-6,6h-6l-2,1l-1,-1h-22l-1,1h-2l-1,1h-1l-1,2v2h-1l-3,1h-1v1h-2v1h-1l-2,2v1l-1,1h-3l-2,-1h-1l3,1h1v1h1v1l-1,1l-1,2h-1l-1,2l-2,1l-1,1l-2,1h-2l-1,1h-1l-2,2h-2v1h-1l-3,3h-1l-1,1h-1h1l1,1h-1l-4,2h20v-1l1,-1h3v-2h1v-1h1v-3l1,-1v-2l2,-2v-1l1,-1v-1h2v1l1,1l1,-1h4l1,1h1v4l1,1v4h1v1h2v2l1,1v-1h1v1l1,1v1h1l-2,1h-2v1h-1v-1v1h-1v1l-1,-1h-2v2l-1,-1h-1h1l-1,-1v1v-1l-1,1v2h-1v1h-3v1v-1h-1l1,1h-3v1l-1,1v1l-1,1v1l-1,1v1h1v1h1h-2v1l-1,1h2v1l2,2v1h3v-2h-1h1l1,2h-1l-2,1h-2v-1l-2,1l-1,1v-2h-1l-1,1v2h-9l-1,1h-1l-2,1l-2,2h-1h1v-3h-1h1v2l-1,1v1h-1v1h1l1,1v2l-1,1v-1v2l-1,1v1h-1v1h-1v1l-1,2h-1v-2h-2l-2,-2v-2h1l1,-1h1h-2v1h-1l-1,1l1,1v1l1,1v1l1,1v1h1v2h1v1h-1v1h-1v1l-2,4h-1v2l-1,1v-3l1,-1v-1l1,-1h-2l1,-1h-1v-1h-1v-1v1h-1v-1h-1v-1l1,-1h1h-1l-1,-1v1v-1h1v-1h-1h1v-1h-1v-1l1,-1h1v-1h-1v1h-2v1h-1v1h1h-1v1h1h-1v1l1,2v1h-1v-1l-1,-1v1l2,2h1v1h-1l-1,-1h-1l-1,-1v1v-1h-2v-2h1v-1v1h-1l-1,1v1h2l1,1l2,1l1,1h1v2h-1l-3,-3h-1l3,3h1v1h1l1,1v1l-1,-1v1h-1l-2,-2v1l1,1h1l2,2h-2l-1,-1l-2,-1h-2h2v1h2v1h1v1h1l1,-1l1,1h1v1l1,1l1,3l1,2v1v-1l-1,-1l-1,-2v-2h-1v2l1,1v1v-1h-1l-1,-1v1h-1v1v-1l-1,1h-2v-1v2h5v2v-2h2v2l-2,1l-1,1h-2l-1,-1v1h-2l-1,-1v1l3,1h1h-1v1l-1,1h-1l-1,-1v1h5l-1,1v1h-5v1h-1v-1h-1v1l1,1h-1l-1,1h-1l-1,1v1v-1l-1,2h-3l-1,1l-2,1l-2,2v1h-1v-1v2l-1,1h-1v1l-1,1h-1l-1,1h-2v1h-2v2h-1v-1l-1,-1v2h1l-1,1h-1v1l-1,1v1h-1v1h-1l1,1v-1v1h-1v2h-1v2l-1,1l1,1v3l1,1v3l1,3l5,7l-1,1v2l1,1v1l-1,-2v-1l-1,-1v-1h1h-1v-2h-1l1,1v2l1,1v1l3,8l1,1v2l1,2l-1,3v2l-2,2v3l-1,1h-5v-1l1,1v-1h-1l-1,-2l-1,-1v-1l-1,-1h-2v-2l-1,-2v-1l1,-1h-1l-1,1v-3h-1v1h-1v-1l-1,-1l-1,-3h-1v-1l2,-2v-1h-1v-1l-1,1h1v1l-1,1v-1v1l-1,-1v-1l1,-3v-2l1,-2v-1l-5,-4l-3,-4l-3,-1h-2v1h-2l-2,1h-1v1h-3v-1h1l-1,-1h-1l-1,-2h1h-1v-1h1h-1v1h-1l-5,-2h3l-1,-1h-2v1h-4l-1,1v-1h1l1,-1h-2v1h-1v1h-2l1,-1h-1v1h-2v-1h-1v-2l-1,1v1h-9l-2,2l-3,-1v-1h-2l-1,1v1h1v1h2v-1h2l-1,1v1h2v-1h1v2h-1l-1,1v-1v1h-1l2,2h2l1,1v1l-1,1v-1l-1,1v-1l-1,-1h-1v-1h-1l-1,-1h-1v2h-1v1h-1v-1l-1,-1h-1v1l-1,1h-1l-1,-1l-3,-1h1v-2l-1,1l-2,-2h-1l-1,-1h-1v1h-1h1v1h-5l-2,-1l-1,-1h-4l-1,1v-1l1,-1h-1l-1,1l1,1h-2l-4,1l-1,1l2,-1h-2v-2l-1,1h-1v1l1,1l-2,2v1l-1,1h-1l-3,1l-1,1h-1l-2,1h1l1,-1h-4v-1h-1l1,2h1l-1,1h-2l-1,1v1v-1h-1v1h-1h1l-2,2h-2l1,1l-1,2v1h-2l-1,-1l2,2v1l-1,1l1,1v4l1,2v3l-1,1l-2,3v2l-3,8v2h-1v4l-1,3v1l-1,1v1l1,2v2l1,2v1l1,1v2l-1,1v-1l1,-1v-1h-1v-1l-2,-3l1,5h1v1l2,5v1l5,7v3l2,2v1l1,1v1l1,1l-1,-1v1h1l1,1h1l-1,-1h1l3,1l1,1h2l1,2l1,1h2l3,-1h1l2,-1h6v-1h1l1,-1h5v2h4l1,-1v-2h-1l3,-2l1,-1l2,-1l1,-3v-1l1,-1v-3l1,-1v-3l1,-2l1,-1l3,-1l8,-1l1,-1h1l1,-1h4l2,1h2l2,1v-1h1h-2v-1l1,1v-1h2l2,2v2l-1,1v2l-2,1l-1,1l-2,3v3h-1l-1,2h2v1h-1v1h-1v1l1,-1v1l-1,2v2l-1,1v2h-1v1l-1,-1v-1h-1l1,-2v-1h-1v1h-1v2h-1v2l1,-1h1v2l-1,3v1l-1,1l1,1l-1,1v6l-3,3h-1l-1,2l-1,1h1v1h3l-1,-1l3,2h1v-1h2l1,-1h1l1,1h2l3,1l1,-1h5l1,-1h1v-1l1,1l3,1l3,-1h1l3,1h3l3,3h-2v1h2l1,1h2l-1,-1l3,1v2h1v1l-1,1v-1h-1v1h1l1,5l-2,2l-1,2v12h-1v-2h-1v2h1v3h-1v1h-1l2,2l-2,2v3l2,2v1l2,4l6,6h1v1h2v1h-1l1,1v1l1,-1v2h1v1h3l-1,-1v-1v1h1l2,2h4l2,-1l1,-1h1l4,-2l1,-1h1l2,-2h2l2,1h2v1l2,-1l5,2l3,2l1,1l3,2h-1v3l1,1l1,2l-1,1v1l-2,2l-1,-1v-1h-1v3l-1,2v-1l-2,-2l-2,-3v-2h1v-1l1,-1h1l1,1l-1,-1v-1h-3v1l-1,-1v-2h-1l-1,-1h-1l-2,-2h-4v1l-1,1h-1v2l-3,2h-2l-1,1v2h1l1,1l1,2h1v1l-1,1h-2v1h-1l-2,1h-1l-1,-1v-1l-1,-3v-1h-1v2h-2l-3,-3v-1l-1,-1h-3v-1l-1,1l-2,-1h-2l-1,1v1l-1,-1v-1h-1v-2l-1,-1h-2l2,2h-3l-1,-1l1,-1v-3l-1,-1l-2,-1l-2,-2h-3v-1h-1v-2l-3,-3h-2v-1v1l2,2h1v1l-1,1h-1v1l-2,-2l-2,-1h-1l-1,-2v-2l1,-2v-1l-1,-1h-1l1,-1h1v-1l-9,-9v-1l-3,-2l-2,-3l-2,-1l1,-1l1,1h1v-1l-1,-1v-1h-1h1v-1h-3v1h-1v1h-2l-2,-1h-2l1,1l-3,-1l-3,-2h-3l-2,-1l-1,-1h-1l-3,-2h-6l-4,-2l-5,-4l-2,-2l-2,-3l-1,-1h-1l-7,-7h-1l-1,-1h-1v-1h-1v1h2v1h1l1,1l-4,-2h-2l1,-1h-2v-1h-1l-1,1l2,1h-2l-3,2h-3l-4,2h-4l-3,-2l-5,-1l-3,-2l-3,-1l-1,-2h-2l-3,-1h-2l-5,-3h-1l-3,-2h-1l-1,-1l-2,-1l-3,-3v-1h-3l-2,-1h-2l-2,-2l-3,-1l-2,-2l-1,-2l-1,-1l-6,-3l-1,-2v-1l-1,-1l-1,-2l-1,-1v-3l1,-1h2v-2h-1l1,-1v-1l1,-1v-2l1,-1l-2,-1v-2l-1,-1l1,-3l-2,-4l-3,-3v-2l-2,-4l-4,-4h1v-1h-2v-1h-1l-1,-1l1,-1l-2,-2h2l-2,-1l-3,-3h-1l1,-1v-1v1h-1l-1,1l-1,-1v-3l1,-1v-1h1v-2l-1,-2h-2l-1,-1v-1h1v-1h-3v-1l-1,-1v-2l1,-2l-1,-1h-1v1l-1,-1h-1v-1l-1,-2l-1,-1v-1l-1,-1v-1l-1,-1v-3h-1v-1l1,-1l-1,-1v-2h-1l1,-2v-1l-1,-2v-2l1,-1v-2h-1l-1,-1h-1v-2l-1,-1v1h-2l-3,-3v2l-1,1l-1,3v5l-1,2v2l2,2v1l2,2v4h1v1h1v2l1,1v6l2,1v3l1,1v4h1l-1,-1v-1h1v-1l1,2v9l1,1v3l1,1v3h-1v2l2,2h1v-2l2,2v1l1,1v2l1,1v3h-1l-2,2h-2v-5l-8,-8v-1h-1v-1l-1,-1v-2l1,-2v-7l-1,-1h-1l-2,-3v-3l-1,1v1h-3v-2h-1l-2,-2h-1v-2l-1,-1v-1h-1v-1h4l1,1h1h-1v-1h1v-1h-1h1l1,-2v-4l-3,-5l-3,-3v-2h-1l1,-1v-2l-1,-1v-1l1,-1v-1l-1,-1v-3l-1,-1v-1l1,-1h-1h1v-1l-1,-1l1,-2l-1,-1v-4l1,-1v-1l-1,-1l-1,-2v-1l-1,-1h-2l1,-1v-1h-2l-2,-1v-1l-1,-1h-1l-1,-1h-3v-1h-1l1,-1v-1l1,-1v-1l-1,-1l1,-1l-1,-1v-2l-1,-1v-5l1,-1h1v-2h-2v-2l1,-1v-3h1v2h1v-4h1v-1h-1v1l-1,1v1l-1,-1v-1h-1l1,-1v-2l-1,-1v-4l1,-2l1,-1v-6l1,-1v-1h1v-1h1h-1h1l1,-1v-1l2,-2v-3h1v-2l1,-1v-1l1,-1v-2h1v-1l2,-2h1v-1h1v-1h1l1,-3l3,-3v-1h1l3,-4v-1l2,-2l1,-2v-1v1h1l1,-1v1h1v-1h-3l2,-2h-1v1l1,-1h1l-1,-1v-1h2v-1h-1v1v-1l1,-1v-1l1,-2v-2l2,-2h1v1h1l3,1v-1l1,1h1h-1v1l-1,1l-2,1l-1,1h1h-1h1v-1h2v-1h1v-1h1v1h-1l-1,1v1l-1,1h-2v1h-1h2l1,-1h1v-1h1v-1l2,-2h1v-1h-1v-1h1v-1l1,-1v-1h1h-1v-1l1,-1h-1v-1v1v-1h1l1,-1h-1v-1l1,-1l-1,1h-1v1v-1l-1,1l-1,-1v-1h1v1l1,-1h-1l1,-1v-1h1l1,-1h-1v1h-1v1h-3v-2l1,-1v-1h1l2,-2h-1v1h-1l-1,1h-1v-1l-1,1v-1h-1v1v-1h-1l1,-1h-1h1v-1h-1h1v-1v1h-3v-1l-1,-1l1,-1h1l2,-1v-1h1h-1l-1,1h-1l1,-1v-1h1l1,-1h-1h1v-1h2v-1h1v1h1v1v-3h2v-1v1h-1l-3,1h-1v1h-1l-2,1l-1,1l1,-1v-1l2,-1h1v-1h1h-1l-1,1l3,-3h-1l1,-1v-1l-1,-1l2,-2v2h1v1h1v-1h-2v-1h1v-1h1v-1l-1,1h-1l-2,2h-1l-1,1v-2l-1,-1h1l1,-1h1l1,-1h1l1,-1h-2v-1h1v-1h1v-1h2l2,-2h1l2,-1h-1v-1v1h-1l-1,1h-1v1v-1h1l1,-1v-1h1v-1h1Z"/>
<path class="sl" d="M738,497v-2h2l1,1l1,4v3l1,2l1,4v1h1v3h1h-1h1v2h1v1h2l1,1h1l1,2l-1,2l1,1h-1l-1,1l-1,2h-1l-1,1l-2,4v1h-2l-2,2v1l-1,2l-1,1l-1,2v2l-2,2v1l-1,1l-1,-1l-3,2h2l1,1l2,-1l2,-2h1l2,-1l3,-3v3l1,1v1l1,1v1h-1l1,1l2,1h1v-1h5l2,-1l-1,2v2h-1v3l-1,1l2,-2v-1l2,-4l1,-1l2,-3h1l1,1v-1h1h-1v-1l1,-1l-1,-1l2,-2v-1h1v-1l1,1l1,-1h3v1v-2h1l1,1h2l2,2h1l1,1l1,-1v1h1l1,1h1l1,1h1l1,2v1l1,-1v-1h1l1,1h1v1h1v1l1,1v1h-1v1h-1v1l1,1v-2h1l1,1l-2,2v2l-1,3v1l1,-1l1,-2l1,-1v-2l1,-1h1v1l-1,1v1l3,-3h2v-1h2l2,1h1l1,1l2,1h4l1,1h3l2,-1h6l1,1h1l2,2l2,1l5,5l1,2l2,1l1,2l2,1v1l2,1h1l1,1h3l1,-1l2,1h1v1l1,2v3l1,3v6l1,1v2l-1,1v5l-1,1v3l-2,4l-1,3l-4,4v1l-2,2l-2,4l-2,1l-2,2l-1,2h-1v1l-1,2v-1l-1,1v2l-2,4l-2,3l-3,3l-1,2v-2l-1,-1l-1,1v1l-1,1v1l-1,1v1l-1,1v1h1l-1,1v3l-1,5v2l-1,3v5l-1,3l-2,4l-1,3v1l-1,1v3l-2,2v1l-2,2l-1,3l-1,2v3l-1,1v1l-2,2l-2,4h-1v1l-1,2l-2,1l-2,2l-2,4v4h-1l-1,1l-3,1l-3,3v2h-1v1h-4l-1,1h-1v-1h-1l1,-1h-1v1l-1,1h-2l-1,1h-2l1,-1h1l-1,-1l-1,1h-2l-2,1l-1,1h1v1h-3l-2,2h-1v1l-1,1h-3l-7,4l-2,2l-6,3v1h-1v1l-2,2h-1l1,-1h-2v1l-1,1v-1h-1v1h2v1l-2,2l-1,2l-1,1l1,1l-1,1v5h-1v1l-1,1v2l-1,2v1l-2,2v1l-4,2l-1,2l-3,2l-3,3l-3,5l-3,3l-1,2l-2,1l-2,2l-2,1l-3,2l-2,2v-1h1v-2l1,1v-1h1l2,-2h2l1,-1v-2h2v-1l2,-2l1,-2l1,-1h-1l-2,1v-1h-1v-2l-1,1v1l1,1l-1,1h-1v1l-1,1v1h-1v1l-2,1l-1,1h-1v1l-1,1v1l-1,1v1h-1l1,1h-1l-1,1v1l-2,3l-4,4l-4,2l-2,2l-1,2l-1,1l-2,1l-1,1h-2l-3,2h-3v-1h-3l-2,1h-2v-1l-3,-1l-1,-1h-5v-1l-2,-1l-1,-1l1,-2v-1l1,-2v-1h2v-1h-1v1h-1l-1,1l-1,3v4h-1v2l1,1l3,1l3,3v1l-2,2v2l1,1v1h2l-1,2v2l-4,3l-5,5l-4,2l-10,2l-1,1l-7,1h-6l-2,-1h-1v1l-1,1v1h1v3l-1,1h-1l-1,2v3l-1,1l-3,1h-1l-2,1h-3l-4,-2h-2v-1h-1l-2,2v7h1l1,1v-1v1l1,1l1,-1h1v-1h-1h4v2l-1,1v1h-3v-1l-1,-1h-2l-1,1h-1v1h2l1,1h1h-1l-2,1h-1l-1,1l-2,1v1l-1,1v3h-1v1l-2,1l-1,1h1l-1,1h-5v1h-3l-5,5v2l1,1l3,2h4l1,1v2h-1v1h-2v1l1,-1l1,1h-1l-1,1l-2,1l-1,1h-2l-1,1h-1l-2,2l-2,1v1l-1,2l-1,1l-2,1l-2,-2v1h-1h1l1,1h-1l-1,1h-1l-2,2v1h-1h1v3h-1h1v1l2,2v1l-3,-1h-2l-1,1h-1v1h-5v1h-1v1l-2,2v2h-4l-1,-1h-1l-1,-1l1,-1h2v1h-1v1l2,-2h1l1,-1h1v-1h-1l-3,1h-1l-1,1h-1l-1,1h-2v-1h1v-2h2l2,-1h1l1,1l1,-1h-6v1h-1l-1,1v1l-2,-1l-1,-1h2l1,-1h-1l-2,1h-1l-1,-1v-1l-1,-1h1l1,1l1,-1h4l1,-1h1v2h-1h1v-2h1v-1l-1,-1h-2h2v1h1h-1l-1,1h-2l-1,1h-1v-1l-1,-1h-2l1,-1v1l1,-2l-1,-1l-1,1v-1h-3l-1,-1v-1h2v-2h1l2,2v1h2v-1h1l-1,-1h1h-1l-1,1v1l-1,-1v-1h1l-2,-1h-1v-1h1v-1l2,1v-1h-1v-2h2v1v-1h-1v-1h1v-2l-1,1v1l-1,1v-5h2l-1,-1l-1,1v-1h-1v-2h4l2,1h1h-1v-2l-1,-1v1l-1,1h-2l-1,-1h1h-2v-1h2v-1h-1l1,-1h1v-3h-1l-1,1h1h-2l-2,-1l1,-1h-1l-1,1h-1v1h-1l-1,-1h1l1,-1v-1h1l1,-1h1l-1,-1l1,-1h5l1,-1v-1h1v1l-1,1v1l-1,1h-1h2v-1l1,-1h1v1l-1,2l-1,1h1v-1h1v-3h1h-1v-2h2l1,-1l2,1l-1,-1h-2v-1l1,-1h1l3,-1v-2h-1l-1,-1h-1v-2h1l1,-2l-1,-1h1v-1l1,-1h1v-1h-1v-1l1,-1h1l-1,-1v-1h2v1v-2h-1l-1,-1h1v-1h2l1,-1h-1v1h-2v-1h-2l-1,1l-2,1l-1,-1h-1h1v-1h-1v-1l-1,-2l1,-1l1,-3v-1l1,-1v-1h1l1,-1l1,-2v-1l-1,-4v-3l1,-1l-2,-2v-1l1,-1v-2l2,1l1,-1v-2h1v-1h1v-1l1,-1l1,-3l1,-1v-2h1v-1l3,-3l1,-2v-3l3,-3v-4l1,-1l1,-2v-1l1,-1l-1,-2v-13l2,-1l1,-2v-4l-1,-1v-2l3,-3v-1l1,-2v-2l2,-2v-3l1,-2v-1l1,-1v-2h1v-4h-1l1,-2l1,-1v-1l1,-1l-1,-3v-1l1,-3v-4l1,-1v-1h-1v-3l1,-1h1v-1l1,-2v-3l1,-2v-1l1,-2v-3l-1,-4l1,-1v-10l-1,-4v-4h-1l-3,-3h-1l-2,-2h-1v-3h-1l-2,-1h-1v-1h-1l-2,-1v-1l-1,-1l-3,-1h-1l-3,-1l-1,-1l-3,-1l-3,-2l-2,-1l-1,-1l-5,-2l-1,-1v-1l-2,-2l-2,-1l-2,-2v-1l-3,-3v-2h1v-4l-2,-2v-1l-3,-6l-1,-1h-1v-1h-1v-3l-1,-1l-3,-2v-3l-1,-1l-3,-5v-2l-1,-2l-1,-1l-1,-3l-1,-1l-1,-2v-3l-3,-3l-1,-2l-2,-2l-2,-3v-1l-2,-4l-2,-2l-8,-4l-1,-1v-2h2v-3l-2,-3v-2l-2,-2l1,-3v-1l5,-5l2,-1l1,-1h2v-1h1v-1h1v-3l1,-2v-1l-1,-1v2h-1v-2h-1v2l-1,1h-2l-4,-4v-1h1v-7l-1,-2l1,-1h2v-1l1,-1v-1h1l-1,-2l1,-2h1l1,-1l1,-2v-2l-1,-1v-2l1,-1h2v-1h1l2,-1h2l3,-1v-3h-2l1,-2h3l1,-1l-1,-1v-3h1v-1h4v-1h1v-1h1v-1h1v-2h1l1,-1v-1l1,-1v-1l1,-1l1,-2h-1v-2l-1,1l-1,-1l1,-1h-1v-1l1,-1v-1l1,-2h-1v-6l-2,-1l2,-1l1,-1l-1,-2l-1,-1v-1l1,-2v-1l-1,-1h-1v-1h-1v-1l-1,-2h-1l1,-2v-3h1v1l1,1l2,-2v-1l1,-1l-1,-2l-1,-1v-3h1l1,2h1l1,2v1h1v1h-1h1v1l1,-1v-3l-1,-1v-1h-1l1,-1h1l4,-3l1,-2l2,-2l1,1l2,-2l-1,-1v-1l1,-2v-2l-1,1l1,-1l1,-2v-1l1,-1h1l1,-1l1,-2h1l3,1h1h-1v2h1v-1l1,-1v-3h8l5,-4h2l2,-1l1,-2v-1h1l2,-2h2l2,1l1,1v1l-1,1v1l-1,1h-1l-3,1l-1,1l1,1l1,2l1,1v2l1,1l-1,2l-1,1l-1,2l-1,3l1,1v1l2,2l-1,1l1,1h4v-1l1,-1v-2l1,-1l-1,-1l-1,-2v-1l-1,-1l-1,-2l-1,-1v-2h1v-1l1,-1l4,-1l5,-2h1v-1h3l-1,-2l-3,1v-1l-1,-1l1,-1v-1l1,-1h1l1,1v2l1,1v1l1,1h7l2,1l2,2v2h1l-1,1l1,1v1h1l2,1l3,-1h3l2,-1h7v1l2,2h2l1,1h2l1,1h1l1,-1h1l5,-3h4l-1,-1h-3l2,-1h8l2,-1l4,1l3,-1l-1,1h-2l-1,1h-5l3,3l-1,1h1v-1h1l1,3l1,1v-1h1v-1h1l1,1v1h1v1v-2h2l2,2h2l2,2v1h-1l-1,1v3l-1,1v1h-2v1h4l1,-1h4v-1h2l3,3v-1h1l1,1l3,2l4,4h1l1,2v3l-1,1v2l1,-1v-1h1l1,1h2l2,1l1,2l1,1h1l2,2v2l1,-1v-1l4,1h2l3,1v1v-3h8l4,1h2l1,1v1l-1,1v1l1,-3h1l3,1h2l3,1l1,2l2,2h1v2l1,-1l2,2v1l1,-1l1,3l1,1Z"/>
<path class="sl" d="M920,228v1l2,2v1l2,2v1l2,2v2l1,1v1l2,2v1l2,2v1l1,1v1l2,2v1l1,1v1l2,2v1l1,1v1l1,1v1l1,1v1l1,1v1l1,1v1l1,1v1l1,1v1l2,2v1l1,1v1l1,1v2l1,1v1l1,1v1l1,1v1l1,1v1l1,1v1l1,1v1l1,1v1l1,1v2l1,1v1l1,1v1l1,1v2l1,1v1l1,1v1l1,1v1l1,1v2l1,1v2l1,1v1l1,1v1l1,1v2l1,1v2l1,1v1l1,1v3l1,1v1l1,1v2l1,1v2l1,1v2l1,1v1l1,1v3l1,1v2l1,1v3l1,1v2l1,1v3l1,1v2l1,1v3l1,1v2l1,1v3l1,1v3l1,1v3l1,1v3l1,1v4l1,1v4l1,1v4l1,1v3l1,1v5l1,1v5l1,1v5l1,1v6l1,1v8l1,1v7l1,1v11l1,1v15l1,1v2v-2l-1,-2v-13h-1v1v-1v1v-1v2h-1v-5l-1,-2h1h-1v-5l-1,-2v-3h-1v1h-1v1l-1,1v1l-1,1v3h-1v4h-1v2l-1,1v3h-1v-1l-1,-1h-1v-1v1l-1,-1h-2v1l1,-1l-2,2v-1h-1v1h1l-1,1h-1v1l-1,2l-1,1v1l-1,1v1h-1l-1,-1v-1l-4,-4l-1,-3l-2,-4l-2,-2v-1l-2,-2l-1,-2l-1,-1v-1l-2,-1l-1,-1l1,-1l-1,-1h-1v-1l-1,-2v-1h-1v-2l1,-1v-1h-1v1v-1l-1,-1l1,-1l-1,-1v-2h-1v-1l-1,-1v-2l-1,-1v-1v1l-1,-1v-1h-1l-1,-1l-1,-2v-2l-1,-1v1h-1v-2h-1v-1l-1,-1v-3h1v-1h-1v1l-1,-1v-1h1v-1h-1v1l-1,1l-1,-1v-1v1l-1,-1v-2h-1l-2,-2l1,-1v-1h-1v1v-2l-1,-1v-3h2v-1h1l1,-1h1h-2l-2,2l-1,-1v-2l-1,-1v-2h-1v-1l-1,-2l-1,-1v-1h-1v-1v1l-1,-1h1v-1l1,-4v-4l-1,-4v-2l-1,-1v-8l-2,-6l-2,-4v-2l-2,-2v-2h-1v-4l-3,-6v1l-2,-4h-1l1,2h-1l-1,-4v-1l-1,-4v-6l-1,-2l1,-1h-1v-5l-1,-1v-1v1v-10l-1,-3l-1,-1v-3l-1,-1v-5l1,-1v-1l-1,-1v-3l-2,-4v-2l2,-2l1,-2v-1l-1,-2l1,-2v-1l-1,-3v-2l-1,-1v-3l-3,-3v-1l-1,-1l-2,-4l-2,-6l-1,-1l-1,-2l-1,-3v-10l-3,-5l-3,-7h-1v-1h1v-1v1l4,4h1v-1h2v-1h-1h1v1h1v1h1v-3l-1,-1v-3l-1,-2v-2l-1,-1l1,-1v-4h1v1l1,1v-1l-1,-1v-1l-1,-1l1,1v-1h-1h1l1,1v-1l-2,-2v-1l1,1h-1v-1l1,2l1,1v-1l-1,-1v1h1l1,1l1,2v1h1v1h1v1l1,1v1h1v1h1v1l1,1v1l2,2l1,2l1,1l1,2v1h1v1l2,2v1h1l-1,-1l1,1v1h1v1l1,1Z"/>
<path class="sp" d="M920,228v1l2,2v1l2,2v1l2,2v2l1,1v1l2,2v1l2,2v1l1,1v1l2,2v1l1,1v1l2,2v1l1,1v1l1,1v1l1,1v1l1,1v1l1,1v1l1,1v1l1,1v1l2,2v1l1,1v1l1,1v2l1,1v1l1,1v1l1,1v1l1,1v1l1,1v1l1,1v1l1,1v1l1,1v2l1,1v1l1,1v1l1,1v2l1,1v1l1,1v1l1,1v1l1,1v2l1,1v2l1,1v1l1,1v1l1,1v2l1,1v2l1,1v1l1,1v3l1,1v1l1,1v2l1,1v2l1,1v2l1,1v1l1,1v3l1,1v2l1,1v3l1,1v2l1,1v3l1,1v2l1,1v3l1,1v2l1,1v3l1,1v3l1,1v3l1,1v3l1,1v4l1,1v4l1,1v4l1,1v3l1,1v5l1,1v5l1,1v5l1,1v6l1,1v8l1,1v7l1,1v11l1,1v15l1,1v43M1000,499v-1"/>
<path class="sl" d="M726,54h1v1h2v1v-1v1h2v1h2v1h1l1,1h1l1,1h1l1,1l2,1h1v1h1l1,1h1l1,1h1l1,1h1l1,1h1l1,1h1v1l1,1h1l1,1h1l1,1h1l1,1h1v1h1l1,1h1l2,2h1l2,2h1l1,1h1l2,2l2,1l1,1h1v1h1l1,1h1v1h1l1,1l-1,-1h-1v-1h-1l-2,-1v-1h-1h1h-2v-1h-1v-1h-2v-1l-3,-1l-1,-1h-1v-1h-1l-2,-1l-1,-1l-2,-1l-1,-1h-1l-2,-1v-1h-2v-1h-1l-1,-1h-1l-1,-1l1,1h1l1,1l2,1l1,1l-1,-1v1h2v1h1l1,1l2,1v1h1l1,1h-1v-1h-1l1,1l-1,-1h-1l-1,-1h-1l-1,-1h-1l-1,-1h1h-2v-1h-1l-2,-2v1h1v1h1l-2,-1h-1v-1h-1h1h-1v-1h-1l-1,-1h-1v-1h-1l-1,-1l1,1h1v1l-1,-1l1,1h1l1,1h1v1h1h-1l-1,-1h-1v-1h-1l-1,-1h-2v-1h-1h1h-1l-1,-1h-1l-1,-1v-1l1,1l-1,-1h-1v-1h-1h1l1,1h-1h1v1h-1v-1h-2v-1h-1l-1,-1h-1v-1v1h1l-1,-1h-1l-1,-1h-1l-1,-1h1h-2v-1h-1h1h-1v-1v1v-1v1l-1,-1h-1v-1h-1h1l1,1l-1,-1h-1l-1,-1h-1v-1h-2v-1v1h1h-1v-1l1,1h1h-1v-1h-2v-1h-1l-1,-1v1h2l2,1v1v-1h-2l-1,-1h-1v-1h-1l-2,-1h-1v-1h-2v-1v1v-1h-2l-1,-1h-1l-1,-1h1l1,1h-1v-1v1v-1h-2v-1h-1l-1,-1h-2v-1h-2l-1,-1l1,1l-1,-1h-1l-1,-1h-2v-1h-2v-1h-2l-1,-1h-1h1h-1l-1,-1h-1h1v1v-1h-2v-1v1v-1h-2l-1,-1l1,1h2v1l-1,-1h-1l-1,-1h-2v-1v1v-1h-2l-1,-1h-1l-1,-1h-2l-1,-1h-1h1l1,1l-1,-1h-2v-1h-2h2l1,1h-1l-1,-1h-2v-1v1h2l1,1h1l-1,-1h-3v-1h-1h1h-1h1l1,1h2l1,1h1l1,1h2l1,1h2l1,1h1l1,1h2l1,1h1l1,1h1l1,1h2l1,1h2l2,2h2l1,1h1l1,1h2l1,1h1l1,1h1l1,1h1l1,1h1l1,1h2l2,2h1l1,1h2l1,1h1l2,2ZM667,29l-1,-1h-1h1ZM327,31h-1l-2,1h-1v1h-3l-1,1h1h-2v1h-1l2,-1l-2,1h-1l-1,1l-4,1l-1,1h-2v1v-1h1l-1,1h-2l-2,2h-2l-1,1h-1h1h-1l-1,1v-1h2l1,-1h2v-1h1h-1v1l1,-1h-1v1l1,-1l-1,1h1h-2l-1,1h-1l-2,1v1h-2v1v-1l-1,1h-2v1v-1h1h-1v1h-1v-1h1l-1,1h-2v1h-2v1h-2l-1,1h-1l-1,1l1,-1l-1,1h-1h1v-1h1h-1h2v-1h2v-1h1l1,-1h2l1,-1h1v-1h1h-1h2v-1h2l1,-1h1l1,-1h1h-1v1h-1l1,-1h1h-1v1h-1l1,-1h1l1,-1h2l1,-1h1l1,-1h2l2,-2h2l1,-1h2l1,-1h1l1,-1h3l1,-1h1l1,-1h2ZM297,43h-1v1h-1l1,-1Z"/>
<path class="sp" d="M743,63l1,1h1l1,1h1l1,1h1l1,1h1l1,1h1v1l1,1h1l1,1h1l1,1M759,72l1,1M761,74h1l1,1h1M765,76l1,1h1l2,2h1l1,1h1l1,1M668,29h1l1,1h2l1,1h1l1,1h2l1,1h2l1,1h1l1,1h2l1,1h1l1,1h1l1,1h2l1,1h2l2,2h2l1,1h1l1,1h2l1,1h1l1,1h1l1,1h1l1,1h1l1,1h2l2,2h1l1,1h2l1,1h1l2,2h1M665,28h1l1,1M301,41h1l1,-1h2l1,-1h1l1,-1h2l2,-2h2l1,-1h2l1,-1h1l1,-1h3l1,-1h1l1,-1h2M295,44l1,-1h1"/>
<path class="sl" d="M663,455h-1h1v-1h1ZM637,438l1,1v1h-5v-1h3ZM626,440v1l-1,-1ZM662,457l-1,1v-2h2v1ZM625,377h-1l-1,-1h2ZM626,377h-1l1,-1ZM626,381l1,1h-2ZM615,376h4v2h-1v1h-1l-1,1h-10v-3h-1h1v-1h1v-1l2,1h5ZM620,379h-1l1,-1h1v1ZM601,380v-1h-1h1ZM281,96h-1h1v-1h1v1ZM279,98v-1h1v1ZM286,87h1ZM276,74h-1ZM273,77h1v-1h1h-1ZM269,75h-1l1,-1ZM265,72h1ZM220,93l-1,1v-1ZM218,96v-1h1h-1ZM219,95h-1h1v-1h1ZM205,99h1ZM299,45l1,-1ZM278,53l-1,1h-1v1h-2l-1,1l1,-1h1v-1h1l1,-1h1l1,-1ZM253,68l-1,1h-1v1h-2l1,-1h1l1,-1h2ZM246,84h-1h1h-1v1l-1,1v-1h-1v1h-2l-1,1h-1v1h-2l2,-1h-1h1h-1l-1,1l3,-3h1l1,-1h1l-1,1h1v-1h1v-1h1l-1,1h1l1,-1ZM215,94l-1,1h-1v1v-1v1h-2v1h-1v-1h1l1,-1l2,-1ZM273,101v1h-2v1l1,-1v-1ZM277,104l-1,1v-1h1v-1ZM280,99l-1,1v-1v1v-1h-1l1,-1h1v-1h2l-1,1ZM280,102v1h-1l-1,1v-1h-2v1v-1h1v-1h2l1,-2h2v1h-1v1ZM282,94v1h-1v1v-1h-1v1h-1v1v-1l-1,1v-1h1v-1h1v-2h1ZM271,105h1h-1v1h-1v-1h1v-1l1,-1h-1l1,-1v2h-1ZM274,73v1h1h-2ZM268,76h-1h1v-1h2l1,-1h1l-2,1h-1v1ZM272,73l-1,1h-1h1v-1ZM274,71h1ZM241,87h-1l-1,1l1,-1ZM251,81v-1h1h-1ZM245,83v1v-1h1ZM228,93l1,-1ZM234,90h-1h1v-1h1ZM235,90v-1ZM219,93h1h-1v1h-1l1,-1h1ZM215,95l1,-1v1ZM211,97h1ZM219,95h-2v1l1,-1h1v-1h1h-1ZM207,98h1v-1v1ZM208,98v-1h1h-1ZM243,78h-1h1v-1h1ZM254,65l-1,1h-1h1l1,-1h1ZM198,103v-1ZM196,104l1,-1ZM194,105l1,-1ZM225,84h-1ZM279,92v1h-1l-1,1v1h-1v1h-1l-1,1h-1h1v-1h1v-1h1h-1l1,-1h-1h1l1,-1v-1l-1,1h-1h1v-1h1v-1h2v-1v1h1ZM285,88h1v1h-1v1h-1v1v-1h1v-1l1,-1h-1v1l-1,1v1h-1l-1,1h-1l-1,1h-1v-1h1l1,-1h1v-1l2,-2h1v-1h1h-1ZM283,87l-1,1h1v1h-2v1h1h-1l-1,1v-1h-1l-1,1h-1l2,-2v-1h1v-1h2ZM277,97h1v1h-1l1,1v1h-1v2h-1v-1l-1,1h1v1h-1h1l-2,2h-1v1h-1v-1h1h-1v-1h1h-1l1,-1v-1h1v-1h1h-1v-1h1v-1h1h-1l1,-1h1ZM279,94v1l-1,1h-1v1h-1l-1,1h-1h1l2,-2v-1l1,-1ZM250,81h1h-1h1l-1,1h-1h1h-2v1v-1h1h-1v1h-1v-1h1l1,-1v1ZM202,101h-1l-1,1h-1v1h-1h1v-1h1v-1h2v-1h1h-1ZM206,98v1v-1h1h-1v1h-1v1h-2v1h-1l1,-1h1v-1v1v-1h1l1,-1h1ZM194,105h-1v1v-1v1v-1ZM193,105h1v-1h1l1,-1l-1,1h-1v1ZM42,346v1v-2l1,-2v-2l1,-1v-1l1,-1v-2l1,1v4h-1l1,1h-1v1l-2,2ZM46,327v1v-1v1h-1v-1ZM46,330h1v2h-1v1h-1l1,-1v-3ZM45,325v1v-1v1h-1l1,-1v-1l1,-1v1h-1Z"/>
<path class="sl" d="M44,320v-2h1v1ZM43,320v1v-1l1,-1h-1ZM45,331v-1ZM550,200l-1,1h1l1,-1h3l-3,1l-1,1h-2l-2,1h-6l1,-1h1v-1l1,1v-1h5l1,-1h1l1,-1ZM574,177h-1v1v-1h-1h1v-1v1ZM539,204v-1h1v1ZM563,198h-2v-1h1ZM558,197h-1v-1h1ZM566,198h-1h1v-1ZM532,238l-1,-1h1ZM532,242h1v-1v1ZM531,243h-1ZM526,247v-1l2,-1v-1l-1,1ZM485,311h-1v-1v1ZM485,310h-1v-1ZM498,321l-1,1v-1h1v-1h1ZM412,286l-2,-1h2ZM372,298h-1l1,-1ZM374,296h-1l1,-1l2,-1h1h-1l-1,1ZM368,302v1v-1l3,-3v-1l-2,3ZM387,288l2,-1h1h-1ZM368,312v-2l-1,-4l1,-2v7ZM233,244h-1ZM235,251l-1,-1h1ZM240,254h-1v-1ZM234,245h-1v-1h1ZM235,244h2v1h-2ZM242,250h-1v-1ZM276,143v1v-1l-1,1v-1ZM274,144v1v-1h1ZM275,147h-1h1v1h-1v-1h1h-1v-1h1v-1h1v1h-1ZM557,197v-1ZM540,210l-1,1l1,-2ZM533,223l1,-2v-1v1ZM526,247h-1v-1ZM490,325v1ZM494,324h1ZM493,325h-1l1,-1ZM490,275v1ZM488,326v-1h1v1ZM499,304l1,1l-3,-6l1,1v1ZM487,326h-1ZM434,284l-1,1ZM437,280l-1,1v-1h-1h1ZM440,280h-1ZM431,281v1v-1h1ZM434,284v-1ZM464,285h-1h1l1,-1ZM269,152v1v-1h1ZM272,151v1v-1v1ZM273,150h-1h1v-1ZM275,145v-1ZM711,936h1ZM700,920h2v2h-1h1l-1,1h-1v-2h-1v-1h-2v-1h2ZM963,647v-1ZM951,584v-1h1v1ZM161,728h-1ZM640,377l-2,1h1v-1ZM613,910l1,1h1v1h1v-1h2l-1,1h1h-1l-1,1h-1l-2,1h-3v1h-1l-1,1v-1h-1v-1h1l2,-1h1v-1h1l1,-1ZM606,912l1,-1h4l-1,1h-1v1h-1l-2,1h-1l-1,1h-3l1,-1h2l1,-1h-1h1v-1h-1l1,-1h-1h1ZM601,913h1l-1,1h-1ZM614,914h-1ZM607,911h-1ZM607,915h-1ZM490,369v1v-1h2v1h-3v-1ZM501,366l-1,1v-1ZM502,366h1ZM612,264h-1l1,-1ZM628,376v-1h1ZM627,376h-1ZM629,373v1v-1h-1ZM568,349h-1v-1h1ZM566,348h-1v-1h1ZM563,348l1,1h-1ZM648,390h-1v-1ZM819,127l1,1ZM817,126h1ZM784,101v1v-1h-1l-1,-1h1v1ZM803,114v1l1,1h-1l-1,-1h-1v-1h-1v1h-1v-1h-1v-1h-1v-2h-1v-1h-1v-1h-1v-1h-2v-1h-1v-1h-1v-1h1h-1h1h-1v-1l1,1l-1,-1h-1v-1h-1v-1h-1l-2,-2v1v-1h-1l-1,-1h-1l-2,-2v-1l-1,1h1v1l-1,-1v1h-1h1v1v-1h-1v-1h-1l-3,-3h-1l-2,-2h-1v-1h-1h1v1h1h-1l1,1l-1,-1h-1v-1v1h1l1,1l3,2h-1l-2,-2l-2,-1v-1h-1l-2,-2h-1v-1l1,1h-2v-1h-1v-1h-1l-1,-1h-1v-1h-1v-1h-1l-1,-1h-1h1h-1h1l-2,-1l-1,-1h-1v-1h-1v-1l1,1v-1v1v-2h1v1h1v1h1l2,2v1h1l1,1v-1h3v1h1l1,1h1l1,2h1l1,1v1h2v1l1,1h-1h3l1,1h1l1,1h1l3,3l2,1h1l1,1h1l1,1h1l3,3h1h-1l2,1l1,1l2,1l1,1h1h-1v-1h1v1h2v1h1l2,2h1v1h1v1l1,1h-1h1v1h1v1h2l2,2v1h1v1h-2v1h1h-1v1l-1,-1v1l1,1v1h1h-2v1h1v1h-1l-1,-1h1l-3,-3v-1h-1v-1l-1,-1h1v-1l-3,-3Z"/>
<path class="sl" d="M790,105v1v-1v1h1h-1l-1,-1ZM750,76l-1,-1h1ZM742,69h-1l-1,-1v1h1ZM741,69l1,1h1l1,1h1v1h1h-1l-1,-1h-1v-1h-2ZM740,68l1,1h-1v-1h-1ZM752,78l-1,-1ZM753,78h-1ZM751,77h1h-2v-1ZM750,76h-1v-1v1ZM764,90v-1ZM774,95h-1l-1,-1v-1v1h2ZM767,90v1h-1l-1,-1v-1h-1h1v1h1ZM769,93h1l1,1h-1v-1v1v-1ZM770,93h-1v-1h-1h1ZM752,81l1,1h1l1,1v1v-1h-2v-1h-1h1h-1v-1h-1v-1ZM762,88l-1,-1h1ZM758,85h1v1h2l1,1l-2,-1h-2v-1h-1h1h-1v-1h1ZM755,84l1,1h1h-2v-1h1ZM759,87h-1v-1h-1h1ZM782,102h-2v-1h-1v1h1h-2l-1,-1h-1v-1h-1v-2h-1l-1,-1h1h-1h1v-1l1,1h1l1,1h1v1h2v1l-1,-1l1,1h1v1ZM811,119h-1v-1h1ZM911,215v1v-1h-1ZM916,223l-1,-1v-1v1h1ZM663,437h-1l1,-1h1v1ZM661,446l-1,1h-6l2,-1l1,-1v-3h-1v-1h3l1,-1h1v5ZM886,193v-1ZM882,184v1h1v1l1,1v1v-1h-1v-1h-1h1v1l-1,-1l-1,-2v-1v1ZM882,183h-1v-1ZM885,191h-1v-1ZM895,277v3l-2,-2l1,-1v-1h1ZM901,272l-1,-1v-1h1v-1v2ZM902,278v1v-3l-1,-2v-1l1,1l1,2v1ZM899,279v1l1,1v1h-1l-1,-1v-2ZM893,280v1v-1h-1v-1h1ZM891,282l1,2l-1,-1h-1h1ZM889,277l-2,-2v-1h1v1h1v1ZM958,449v1v-1l-1,-1h1ZM999,488v-1ZM999,501v1v-2ZM860,153h-1v-1ZM658,420h-1v-1h1ZM658,422h-1h1h-1l1,-1ZM660,415h-2v-1l1,-1v-1l1,1ZM644,387v-1ZM643,386v-1h-1v-1l1,1ZM339,27l1,-1h2l1,-1h1l-4,1ZM344,25h-1v1h-3v1h-1l1,-1h1l2,-1ZM874,243l1,1v-1l1,1v1h-1v-1h-1ZM828,217h-1ZM791,202v-1ZM812,206h-1l-1,-1h2ZM809,207l-1,-1h-2h2ZM806,207h-1ZM808,208h1h-2l-1,-1h1ZM821,211h2v1h-2v-1h-1v-1ZM741,65h-1ZM747,68l1,1h-1l-1,-1ZM722,53v1v-1h-1ZM724,55l-1,-1ZM685,36h1l1,1h-1h1h-1v-1ZM688,37l1,1l-1,-1h-1ZM679,33l1,1h2v1l-1,-1l1,1l-1,-1h-2l-1,-1ZM667,29h1h-2ZM667,29h1h-2v-1ZM668,29h1h-1h1v1h2l1,1h1h-1v-1h-3v-1h-2ZM704,44h-1ZM703,44l-1,-1h-1h1ZM712,48h1h-1h1h-2ZM673,31h1l1,1h2l1,1h-1v-1h-2l-1,-1ZM682,34h-3v-1l1,1h2v1h2v1v-1l1,1l-1,-1h-1l-2,-1h-2v-1h-2l-1,-1l1,1h2l1,1h1ZM655,33l-1,-1h1ZM633,18h-1ZM594,9h-1ZM579,6h-1ZM597,10h3l1,1h5v1h1h-1v-1h-1h1v1h1h-1l-1,-1h-4l-1,-1h-2ZM583,7h1h-2h2l2,1h5v1l-1,-1v1l-1,-1h-6v-1v1h1l-1,-1h-1ZM587,8h1l1,1h2h-1h5l1,1h4l1,1h4l1,1h2l2,1h3v1h1h-1l-2,-1h-3l-1,-1h-2l-1,-1v1h1h-2l-1,-1h-3l-1,-1h1v1h-1v-1h-1h1h-1h1v1h1h-2l-1,-1h-5l-1,-1h-1h1h-1h4v1h1l-2,-1h-3l-1,-1h-2Z"/>
<path class="sl" d="M599,11h2l1,1l-1,-1h-3ZM583,8h1h-1v-1ZM591,8h-1h1l1,1l-1,-1h-1ZM998,463v-1ZM42,687h-1v-1v1ZM811,113l1,1h-1v-1v1v-1h-1h1h-1ZM797,100v1ZM797,101v1ZM799,103l1,1h-1v-1h-1ZM808,111h1ZM601,430l-1,1v-2h1ZM641,384h-1v-1h1ZM638,382v1ZM587,428h-1v-1h-1v-1l1,1v1ZM596,431l-2,-1l-1,-1v-1v1l1,1h2ZM444,361v-2h2l-1,1ZM293,347v1v-1h-1v-1h1ZM258,370h-1v-1ZM270,318v1v-1h-1l1,-1ZM262,285l-2,-2v-2h1v1l1,1v1ZM247,292h-2l2,-2v-1v2ZM268,285l-1,2h-2v-1l1,-2h2ZM230,284h-1v-2h1v1ZM446,353l1,1h-1ZM405,374l-1,1v-1h2ZM274,325v-2ZM259,264h-1v-1h1ZM269,310h-1v1h-1l1,-2h1ZM261,323l-1,-2h1ZM259,321v-2h-1l1,-1l1,-3v1l-1,2v2ZM922,347v1v-2ZM19,545h-1ZM13,492v1h-1v-1l1,-1l-1,-1l1,1ZM10,473v1ZM524,377h2l2,2h3l1,2v1h-3v-1h-2v1h-3v1h-1v-1h-4v-1h-1v-1l-1,-1h-2v-2h3v-1l5,1ZM867,161v1ZM900,200v1ZM896,195v-1v1v-1h-1v-1l-2,-2v-1v1l-1,-1l3,3v1Z"/>
<path class="sp" d="M892,190l3,3v1l1,1"/>
<path class="sl" d="M878,174l4,4v1h1v1l4,4v1h1h-1l2,2h-1v-1h-1v-1l-1,-1v-1h-1l-1,-1v-1h-1v-1h-1v-1l-4,-4v-1v1v-1l-1,-1v-1h-1v-1v1h1v1h1ZM888,186l1,1h-1ZM877,173v1ZM777,104v1v-1h-1ZM773,97l1,1h1v2h1v1h1l1,1h1v-1h-1h2v1h2v1h1l1,1h1v1h1l2,2h1l1,1v1h1v1h1l1,1v1h1h-1l1,1l-1,-1v1h1h-1v1h1v1h-1h1v2h-1v1v-1l-1,-1v1l-1,-1v-1v1h-1l-1,-1v-1h-2v-1h1h-1v-3h-1l1,1h-1v1v-1l-2,-2v-1h-1h1h-2v-1h-3v-1l-1,-1v-1l-1,1v-1h-1v-1v1v-1h-1v-1h1v1v-1h1h-1v-1l-1,-1h-1v-1h-1v-1h-1l-1,-1h2v1h1h-1v-1h-1v-1h-1h2ZM682,50v-1l1,1h1v1v-1l1,1h1v1h1v-1v1h3l1,1h1v1h2v1h1v1l-1,-1l1,1h1v1h1h-1v1l1,1v1h-1v1h1v1h-4l-1,-1h-3l-1,-1v1h-3l-1,-1h1v-1h-1h1h-2v-1h-2v-1h-3v1h-1v-1h-1h1l1,-1h1v-1l-1,1h-1v-2h-3l-1,1h-2v-1l1,1l-1,-1h-1h1v-1h-1h1h-2v-1l1,1l-1,-1h2v1v-1l1,1v-1h-3l1,-1h-1h2l1,1h2l1,1h1h-1h1v1h2l1,1l-2,-2h1v1v-1h-1l-1,-1h-1h3v1h1v-1h-2v-1h1l1,1h1l-1,-1h-1h2v-1v1h1v-1h-1l-1,-1h2v1ZM447,394l-1,1h-1h1l1,-1h2ZM452,394h-1l1,-1ZM568,366l1,2v2l1,1h-1v1h-1v1h1v1l-1,1h-1v1l2,2v2l-1,-1h-11l-1,-1h-1l-2,1l-1,1l-1,-1h-1l-1,-1h-2v-3h3l1,1h3l6,1h1v-1h3v-1l-1,-1l-2,-1l-1,-2h1l-1,-1v-1l1,-1h-2l-1,-1h-3v-2h1l1,-1h4l4,2h2ZM560,374v1l-4,-2v-1h1l1,1h1ZM561,363v1h-1l-1,-1h-1h2ZM941,420h-1h1v-1ZM942,420l-1,-1h1ZM942,419v-1ZM942,416v-1h1ZM941,417v-2ZM940,413v1ZM654,430v-1l1,-1v2ZM791,93v1v-1v1h1h-1v-1h-1l-1,-1h-1h1l1,1ZM793,95h1v1v-1h-1l-1,-1ZM791,94h-1v-1v1ZM788,93h-1l-1,-1h1v1ZM789,93v1v-1h-1ZM867,161l1,1v1l3,2v1l2,2v1h1l1,1v1v-1h-1v-1h-1v-1h-1v-1h-1v-1h-1v-1h-1v-1l-1,-1v-1h-1v-1h-1v-1v1ZM841,147h1h-1v-1h-1h1ZM660,409h-2v-1l-2,-2h2l1,1v1ZM655,394h-2v-2h1v1l2,1ZM653,396h-2v-3h1v1h1ZM656,397h-1v-1h1ZM639,160v-1ZM638,159v1v-1l-1,-1h1ZM640,379h-1v-1h1ZM641,380h1ZM46,654v-1ZM53,662v1v-1h-1ZM47,656l-1,-1h1ZM55,664v1v-1h-1v-1h-1v-1h1v1ZM78,603h1v1h-1l-1,-1ZM78,605v-1ZM81,610l-1,-1h1ZM72,595v1v-2ZM73,600v-1ZM85,670v-1ZM75,596h-1v-1h1ZM87,674v1v-1h-1ZM86,673l-1,-1ZM106,678l-1,-1ZM103,676l-1,-1ZM102,696v-1ZM74,655v-1ZM72,658v1l-1,-1ZM64,651v1v-2ZM64,655l-1,-1v-1v1h1ZM999,468v1ZM500,563h-1v-2l1,-1h2l-1,1h-1ZM510,526v-1h1ZM411,543l-2,-1l1,-1l2,-1l1,1l-1,1v1ZM419,544h-2l1,-1h1v-1h1v1Z"/>
<path class="sl" d="M402,540h-2v-2h2v1ZM410,548v-1h1ZM403,536h1v2l2,2v1l1,1v1l-1,1l-2,1h-2l-1,-1v-1h1l2,-2v-1l-2,-2v-2h-2l1,-1h2ZM409,539h-2v-2l1,1ZM569,380v-2l-2,-2v-1h1l1,-1v-1h-1v-1h1v-1h1l-1,-1v-2l-1,-2h1v-1l1,-1h1l1,1h1l1,-1h2v1h3l1,1h3l1,1v2h5v1h-3v1h4l1,1h3l3,3v1l-1,1h-1v1h-2v-1h-2l-2,-1l-1,1h-2l-1,-1l-1,1h-1l-1,1h-3l-1,-1h-1l-1,1h-1v1l-1,1l-1,2l-1,1h-1v-1h-1v-1ZM656,402l-1,1l-1,-2v-2h1v1l1,1ZM543,7h5l-1,1h-1h3v-1l1,1h6v1h-3l1,1v-1h4l2,1v-1h-1h4l1,1h1l1,1h1h-1v-1h-1l-1,-1h-1h7l1,1h1h-1h2v1h3v1h-1h2v1l1,-1v1h4v1h2v1h2l1,1h2l1,1h1h-1v-1h2v1h1h2l1,1h1l-1,-1h1v1h3l1,1h-1l-1,-1h-1l-1,1h1h-1h2l1,1h4l1,1h3l1,1h2v1l-1,-1h-1l1,1h-1h3l1,1h1h-1l-1,-1h2l1,1h2v1h1h-1h1l-1,1h-1l-1,-1h-1l-1,-1l1,1h1l1,1h4l1,1h1v1h-4l-2,-1v1v-1h-2l2,1h1v1h-2l-1,-1v1h3v-1h5v1h3l1,1h1l1,1h-3l-4,-2h-1v1h-1h4l1,1h3l1,1h3l1,1h2l1,1h1h-1v-1l1,1h2l1,1h1l2,1h1l-1,1h-1v-1h-1l-1,-1v1l2,1h-2l-1,-1h-2l-1,-1h-2l-1,-1h-2l1,1v1h-1v2h3l1,-1h1v2h1l-1,-1h9v1h1h-1h1v1h-1h1v1h1v3h-1l-1,1h-2v1h-1h1h-3l-2,-1h-1l1,1h1h-1h1l1,1v1l1,1v1h1v1l1,1v1h1l-1,1h-2l-1,-1l1,1l2,1v1h-1v-1h-1v1h1h-2l1,1h-2v-1h-1v-2h-1v2h-1h2v1h-2l-2,1h3v1h-1h1v1h-3l1,1l1,-1l1,1h1v1h1v1h-3l2,1h2l1,1h1v2h1v1h-3l1,1h1l1,1h-3l1,1h2v1h1v1h1l1,1h-1v1h2v1l1,2l1,1v1h-2v1h3v1l1,1h-1v1h-2v-1v1h-1v-2h-1v1h-1l-2,-1h-1v-1h1v-1l-1,1h-3v-1h-2v-2h-1v1h-1v1h-5v-1h1h-3v-1h-3v-1h-2v-1h-1v-1h-1h1v-1h1h-2l-1,1v-1h-1v-1h-3v-1h-1v-2l-1,1l-1,-1h-1l-1,-1h-1l-1,-1l-2,-1l-1,-1l2,-1h1h-1v-1v1h-2l-1,1v-1h-1h1v-2h3l1,1l-1,-1h-1v-1l-1,1l-2,-2h-1h1l1,1v1h-1v2h-1l-1,-1v-1h-1l-2,-2h-1v-1h1v-1h2v-1h-1l-1,1h-1v1h-1l-1,-1l-1,1v-1h-1l-1,-1h-1v-1h1l1,-1h1v-1h1v-1h-1v1l-1,1h-1v1h-2l-1,-1v-1h1v-1h1h-4l-1,-1h-1v-1h1l1,-1h5l2,1v-1h-2v-1l-1,1h-2l-1,-1l-1,1h-1v1h-1v-1h-1v-2h2l2,1h1v-2h-1v1h-5v-2h2l2,1h1v-1h1h-1l-1,-1h-1h1l1,-1h-2v-1h-1v-1h1h-1v-1h-8l-1,-1h-4v-1h-1h6l2,1h2l-1,-1h-1v-1h-1h1h-3l-1,-1l-1,1h-1v-2h-2v-1l-1,1v-1h-2v-1h-1h1v1h2v1h-1h1v1h-4l-1,-1v-1h-1l1,-1h-2v-1h1l-1,-1h-3v-1l-1,-1v1v-1h-2v-1h-2v-1h-1v1h-1l1,-1h-1h1v-1h-3v-1h-3v-1h-1l-1,-1h-5l-1,-1h-13l1,1h-3l-1,-1h-2l1,-1h1h-4v-1v1h-2v-1h-1h4l1,-1h3v-1h-1v1h-6v-1h-4l-1,-1l1,-1h4l1,-1h4v-2h1h-5v-1h1l1,-1h4v-1h-2v-1h3l1,1h2h-2v-1h-1l1,-1h3l1,1h1h-1v-1h-1h1l2,1h2l-1,-1h-1h5l3,1v-1h-3v-1h-2h3h-4v-1h4l1,-1h2Z"/>
<path class="sl" d="M579,43h3v1l-1,1h-3v-1h-4l-1,-1h2h-2v-1h-1h5ZM585,44h-1l-1,-1h1ZM573,39h-2v-1h1v1ZM563,34h-1v-1h1ZM516,21h-1ZM540,10h-5v-1h2l1,1h1ZM633,36h2v1h-3v1v-1h-1l-1,-1h2v-1ZM562,9h-1ZM578,12h1h-2ZM591,16h-2l-1,-1h1l1,1ZM606,20l-3,-1h-2h2ZM611,22h3l1,1h-2l-1,-1ZM595,17h-1v-1h-1h1ZM641,57h-1v-1ZM636,80h-2l1,-1h1ZM578,40h-1v-1h1ZM726,65l1,1l-1,-1h-1ZM729,67h-1v-1h-1h1v1ZM723,64h1v1ZM723,64h1l1,1l-1,-1h-2v-1ZM723,63l1,1h-1v-1h-1ZM781,87h1v1h1l1,1h1v1h1l1,1h-1v-1h-1l-1,-1h-1v-1h-1l-1,-1h-1v-1l1,1h1h-1l-1,-1h-1v-1h-1h1l1,1ZM788,92v1l-1,-1h-1v-1l-2,-1h-1l-1,-1l-2,-1v-1h-2l-2,-2v-1h-1l-1,-1l-2,-1l1,1h1v1h1h-1v-1h-1l-1,-1h-1v-1l-2,-1l-1,-1h1l1,1h1v1l1,1h2v1h1l2,2h1l2,1l1,1h-1h1v1h1v1h1l1,1h1v1h1l1,1ZM782,88h1l1,1v1h1l1,1l-1,-1h-1l-1,-1ZM787,92h2v1l-1,-1h-1v-1ZM789,92v1l-1,-1h-1v-1h-1v-1v1l2,1ZM787,91h-1v-1ZM782,88h1h-1v-1ZM788,92h-1ZM788,92h-1l-1,-1l1,1ZM781,87h-1v-1v1ZM770,80h1ZM785,90h1h-1v-1h-1v-1l1,1ZM486,338h10v1h4l1,1h1l1,1l2,1v1h1l1,1h4l5,2l2,2l2,1h1v-1h-1h1l2,2h1v1h-1l-1,-1l2,2v-1l2,1h1h-1v1l1,-1v1h3l1,1h2l1,1h3l-1,1l1,1h-2l1,1h7l3,3h3v1l-1,1h-3l-2,1h-1l-1,1v-1h-1l-1,1h-2l-1,-1h-9l-1,1h-6l1,-2l3,-2l1,-1l-2,-2h-7l-1,-2h-1l-1,-1v-2l-1,-1v-1h-1l-1,-1l-3,1h-1l-4,-2h-2l-1,-1h-1v-1l-1,-1v1h-4l-2,-2v1h-5v-1h-1l-1,-1h1l2,-1v-1l-8,-1l-3,3h-1l-2,2l-1,-1l-1,1h-2v1l-1,1h-1l-2,1h-1l1,-1h-3v1l-1,-1l3,-1h2v-4l9,-4h4l1,-1h2l2,-1ZM520,348h-1v-1h-1v-1l1,1h1ZM517,345h-1l-1,-1h1ZM512,343h3l-1,1v-1h-3ZM518,346h-1v-1h1ZM480,351h-1l-1,1h-2l-1,-1v-1l1,1h1l-1,-2l1,-1h2v1h1v1ZM506,342l-1,-1h-1ZM517,515v-1ZM283,756h-1v-1ZM509,807h-1h1v-1l1,1ZM560,918v3l-1,1v2l-1,1v2l-1,1h-1v1h-3v-1h-12v-1h5v-1h2v1h-1h2v-1h-2v-2h2l-1,-1h1v1l1,1h-1v1h5v1h2v-1h-1l-3,-1h-1v-2h3l1,-1h1h-5l-1,-1v-1h2v-1h-1h3l1,-1h1l1,-1l1,1ZM564,930h-5v-1h5ZM540,869h-3l-1,-1l2,-2v-4l1,-1v-1h4v2l-1,1l1,1h-2v1h1v1h1l-1,1h-1l-1,1ZM532,901v4h-1v1h-1v-1l-1,-1h1v-1h1h-2v2h-2l-1,-1h1v-2h-1h3v-1h-1l1,-1h1l-1,-1h3ZM526,899v-1l1,-1v-1h-1v-1h2v1l1,1v1l-1,1h-1ZM530,920h3l1,1h1l1,1h-2v-1h-3l-1,-1h-1v-1h-1h2ZM532,898h-3v-2h-1v-1h2v-1h1v2l1,1ZM537,922v1h3v1h1h-1v1h-2v-1h-2v1h-1v-1h-1v-1h-2l1,-1h2l1,1v-1Z"/>
<path class="sl" d="M529,914v1h1l-1,1v1h-1v-1h-1v-2h1ZM552,929h6l-1,1h1v1h1v1h-1v-1h-3v-1h-2v1h1h-2v-1h-2l1,-1ZM545,925h1v1h-5v-1h-1l1,-1h2l1,1ZM540,875h-1l-1,1l1,1v3h-2l-1,-1v-1h-1v-1l-1,-1h1v-1h2v-1h1v-1h1v1h1ZM544,877l-2,1v-1h-1v-1h1v-1h3l1,1h-1v1ZM531,878v-1ZM527,909h-1v-1h1ZM529,899v1l-1,1h-1l-1,1l-1,-1h1v-1l2,-1ZM529,894h-1h1v-1h1v1ZM534,870h-1ZM540,877h-1v-1h1ZM530,912h-1v1h-2l-1,1v-1l1,-1h2ZM528,907h-2v-1h3v1ZM540,872h-1v-1ZM532,915h-1v-1h-1h1v1ZM535,882v1h-2v-1l1,-1v-1h1l1,-1v1l-1,1l1,1ZM561,933h-1ZM567,930h-1ZM546,929h2l1,1h-3v-1h-1ZM562,932h-1h2ZM891,375v-1h-1l1,-1h1v1ZM903,390v1h-1v-2l-1,-1h1l1,1ZM893,376h-1v-1h1ZM903,380h2v1l-1,1v-2ZM900,392h-1v-1h1ZM897,377h1l-1,1v-1h-1v1v-1ZM903,376v1l-1,-1v-1h1ZM904,389v-1l1,1ZM267,109h1v2h-3v1h1l1,-1h1v-1h2l1,-1l-1,1l-2,1l-3,3h-2v-1h1l-1,-1h1v-2h1l1,-1ZM265,114v1l-1,1h-1v2h-1v1h1h-1v1h-1v-2l1,-1v-1h1v-1h-1v-1l1,1l1,-1ZM268,130l1,1l2,1h1l1,1l-1,1v5h1l1,1v1h-1v2h1l-1,1v1h-3v-1h-1l-1,-1h-1v-1l2,-1l1,-1v-1v1h-1v1h-3v-1l1,-1h-1h1h-1l1,-1h-3l1,-1h1l1,-1h-1v-1l-1,-1v1h-1v-1h1v-1v1h-1v-1h-1l1,-1h-1l1,-1h1l1,1v-2h-1v1h-1v-2h3ZM451,17v1h-5l1,-1h3ZM448,19h1h-2v1h-5v-1h5ZM437,20h-3v1h-1v1h-4l-1,1v-1h1l1,-1h-1l-1,1h-2l-1,1h-1l1,-1h-1v1h-2v-1l-1,1h-2v-1h3l2,-1h3l2,-1h6v-1h1v1ZM443,24h1h-1v1v-1h2l-1,1h1v-1h3l-2,2h-2v1h-6v-1v1h-5l-1,1h-6l-1,-1h4l1,-1h1h-2l1,-1h1h-2v1h-1v-1v1h-5l-1,-1h4l2,-1h1h-1v-1h3v-1h3v1h2v1h-1h1v1h4v-1h1v-1h1l2,-1h1v1h-1ZM415,33h4l1,-1h2v1h1l-1,1h-1h4v-1h1h-1l1,-1h1l1,1v2h-1v1l-1,1h1l2,-1v-1h1v-1l1,-2h5v1h1v1h-1v1l-1,1v2h-1v1h-1v1h1v1h2l1,1h1v1h1v1h-6v1h-1v-1h-1v1h1h-1v1l1,-1h2v2h-10v-1h1h-3v-1h-1l-1,1h-6l-1,1h-13v-1h1v-1h1l-1,-1h-5v-2l1,-1h14l-1,-1h-1l-1,-1h-1l-1,1h-4v-1h-3v-1h2v-1h8l-1,-1l-3,1h-3v-1h2h-2v-1h1l2,-1h1v-1h2l2,-1h3l3,-1h3v1h-1l-1,1h-1ZM413,28h1h-1h5v3h-5l-2,1h-4l-1,1h-2v1h-4v1l-2,1h-4l-2,1h-2v-1h1v-1l-1,-1h-1h1v-1h2l1,-1h2v-1h3v-1h2l2,-1h2v-1h-1h1l1,-1h8v1h1ZM511,9h1l1,1v-1v1h1h-1h9v1h-2l-1,1h-2l-2,1h1l2,-1h1l-1,1h-1l-1,1h-2l1,1h-1v1h-6v1h-1l-1,-1h-1l1,1h1h-4v1h1l1,-1h1l1,1h3l-1,1h-1h1h-1v1h-4v1h-1v1h-4v-1h-1v1h-1h5v1h1v-1h1v1l-2,1h-2l-1,1h-1v-1h1h-2l-1,-1h-1h1v1h-4v-1l-1,1h-4v-1v1h-2v-1v1h-2v-1v1h-2v-1l2,-1h4l-1,-1h-1v-1h4v1h6v-1l-1,1h-4v-1h1l1,-1h1h-3v1h-1v-1h1h-2v1l-1,-1l1,-1h5v-1h1h-1l-1,-1h-2v-1h7v1h1l-1,-1h-1v-1h8v-1h1h-2l1,-1l-1,1h-2l-1,1h-9l1,-1h2h-2l-2,1h-2v-1h-1h1h-1h1h-1l1,-1h-1h1h-1v-1h7l1,-1v1h5l1,1v-1h-4l1,-1h5l2,-1h1v1h1l1,-1l1,1h1h-1v-1h1Z"/>
<path class="sl" d="M472,20h4v1h-6v-1h1ZM470,27v1h-1v1h-3v-1h-2v-1h-1h2v-1h5ZM453,30l1,1h5v1h-3l-1,1h-1v1l1,-1h1l1,1h-1h1h-1v1h1v-1h1v1h-1v1h-1h1h-1v1h-2v1h-3v-1v1l-1,1h-2v-1l-1,-1v-1h-1l-1,-1h-1l-1,-1l1,-1h2v1h3v-1v1h1v-1h-1h1v-1l1,1v-1h-3v-1h2v1v-1h2v-1ZM482,62h3v1h3l1,1h1l1,1h2l1,1v1l-1,1h4v-1v1h1l1,1h-1v1h-3l-2,-1h-2v-1h-2v-1h-2v1h-1v1h-1l-1,1h-1v1h-2l-1,1h-1v-1l-1,-2h-3l-1,1h-1v-1l1,-1h2v-1h1l-1,-1h1v-2l1,-1v-2h1l1,-1h2v1h-1ZM465,23l-2,2h-1h1v1h-1l-1,1h-1h1h-5v-1h-1h3l1,-1h-3l-1,1v-1l-3,1v-1h4v-1h-1h1v-1h1l1,1h-1h1l1,1v-1h1h-1h1l-1,-1h-1h6ZM463,16h1v1h-1h2v1l1,-1l1,1h-1v2h-3v-1h-2v-1h-1l-1,1h-1v-1h3v-1h-1h1h-2l1,-1h1ZM484,13h1v1h2v1h1h-1l1,-1h1v1h-1h2l-1,1h2l1,1h-3v1h-2v-1v1h-1v1l-1,-1v1h-2v-1v1h-5l1,-1h-2v-1h4l-1,-1h-1v1h-1v-1h-1l-1,1v-1h-1h1l-1,-1h1v-1h4l-1,-1h2l1,-1h1ZM472,22h1l1,1h-1v1l1,-1h5v1h2h-4l1,1h2l1,1h-1h6v1h1v-1h8v-1h1l1,1h3v1h1h-1l-1,1h1h-1h1v1h-7v-1h-1h1v1h-12v-1h-1v1v-1h-1v1h-3l-1,-1h1h-1v1h-1l-1,-1v-2h1v-2h-6v-1h1h-1v-1h-1h4ZM472,18h2v1h-1h1l-1,1h-4v-1h1h-1v-1h2ZM469,30h2v1h1l1,-1l1,1h1v1h-2l-1,1h-1h1h-1v1h-2l-1,1l-2,-1h-1v1l-1,1h-1v1h-3v-1h1v-3l1,-1v-1h2v-1h4ZM448,45h2l1,1v2h1h-1l-1,1h-5v-1h-3v-1h-1v-1h4l-1,-1h2v-1h2ZM613,166l1,-1h1v1h-1v1h2l1,-1h-2l1,-1v-1l1,-1v1h3v2h-1v1l-1,1h-6v-1l-1,-1v-2l1,-1v-2h1v-1l1,-1h1l1,1v4l-1,1h-1ZM579,172v-1h-1v1l-1,-1v-2h-2v-1h-1v-4l-1,-1v-4h-1l-1,-1h-4l-1,1l-1,-1v-1h-2v1l-1,1v1l-2,2v2l-1,1v3h-1v1h-1v2h-3l-1,1v1h-19l2,-1h1l2,-1l1,-1v-1l4,-4l2,-1h1v-1h1l1,-1h4v-1h1l3,-1v-1l1,-1h1v-1l6,-6h1l1,-1h1l2,-1l1,-1l5,-2h4l2,-1h1l3,1h2l2,1v1h-1l1,1v1l-1,1h-1v1h-1l-1,1h-3l-1,-1h-1v1h-1l3,1l1,1h2v-1h2l1,1v2l-2,2h3v2l1,1v1h1v1h3v1h2l-1,1h1l1,1h6v1h2l2,-2h1v1l1,1h1l1,-1v1h1v1l-1,1h2l-1,1h-2l-1,1l-2,1h-1l-1,1h-2l-1,1h-2v-1v1h1l-1,1h-1v-1h-1l-1,1v-1h-1v1l1,1h-1v1h-1v1l-2,2h-2v1h-2l-2,-2v1l-2,-2v-1l1,-1l1,-2h-1l-1,1l1,-1h2v-1h1h-1l-1,1v-1h1l4,-2v-1h2v-1h1v1l1,1v-1l2,-1h-7v-1l2,-1v-1h1h-2v-1v1l-2,2h-1l-2,1l-1,1h-1l-1,-1v1h-1v1h-4ZM630,130v1h-1l-1,1h-1h2v4l-1,1v2l-1,1h1v2l1,-1v-1h1v-1h1v1l1,-1l1,1l1,-1v1l-1,1h-1v1v-1h1v1l-1,1h1l1,-1v1h3l-1,-1h1v3h1l-1,-1h2v-1h1v-1h1v1h4l1,1v1h-1v1l-1,1l1,-1h1v1h-1h2v1h-1v1h1v-1h3v-1l1,1v1h-1l-1,1v1h-1h1v3h1l1,-1v-2h1v-1h1v1l-1,1v1h1v2h1v-2h1v1h1v6h-1v-1h-1v1h-1v-2h-1v-1h-1v1l-1,1h-1v-3l1,-1h-1v-1l-2,-2v1l-1,1v1v-1v1h-1l-1,1v2h-1v1h-3v-1l1,-1h1v-2h1l1,-1h-3v1h-4l1,-1v-1h-2v1h-1l-1,1h-1l-3,-1h-6l-1,1h-3l-1,-1v-2l2,-2h1v-1h1h-5l1,-1h1h-1h1v1h1v-4l1,1h1v-1h-1v-1h-1v-1h2l-1,-1v-3l1,-2v-1h1h-1v-1h1v-1h-1h1v-2l1,-1h1l1,-1l1,1h1v-1h-1h1Z"/>
<path class="sl" d="M482,40h5v-2h-2v-1h-1h1l1,-1h1l1,1h1l-1,-1h-1h1h-2v-2h1l-1,-1h3v-1h1l1,1v-1h6v1h2v1l1,1h-1l-1,1h-1h1v1h1l1,-1v1h1l-1,-1h3v1h1h-1v-1h1v-1h9v2h-1v1h-1h1v-1h4v1h-1l-1,1h1h-1v1l1,-1v-1h2l-1,1h1l1,-1v1h1v-1h4v1h2v1h-2l-1,1h-1h2v-1h4v1h-1v1h-1h1v1v-1h1v-1h5l1,1h1h-1v1h-2l-1,1h1v-1h2v1h1v-1h2l2,1h1v1h-1l-1,-1l-1,1h-3v1v-1h2l2,1h4v1h-3l-1,-1v1l-1,-1l-1,1h3v1h-1l1,1h4v1h1v1h1l-1,-1h1l1,1l-1,1h1v-1h2v1h1v-1h1v1h4v1h-2l1,1h2v-1h2l1,1v1h-1h4v-1l1,1h2l1,1h-3l2,1h1h-3v1h2v1h-1v1h-2l-1,-1v1h-1h2v3h-1v-1h-1v1h-1v-2l-1,1v1v-1h-1l-1,-1h-1v-1h-1v-1h2v-1h-1v1h-3v-1h-3l-2,-2v1h-1h1v1h-1l-1,-1h-1l1,1h1l1,1h-3l-1,-1h-1h1l1,1v1h2l-1,1h4l-1,1h2v1h1v1v-1h1v1h4l1,1h-1h2v1h-1l1,1h2v1h1l1,1h-1h1v2l-3,-3v1h1v1h1l-1,1h2v1h1h-2l1,1h-2l-1,-1h-2l-1,-1v1h1h-1l-1,-1h-1h1v1h-1v-1h-2v-1h-1l-1,-1h-1l1,1h-1l-1,-1h-2v1h2v1h2v1h2l1,1h1l1,1h2v1h2v1h-1h1v1h-2l-1,-1h-3l-4,-1h-3l-2,-2h-5l-1,-1h-2l-1,-1h-1v-1h1v-1h-3v-1l-1,1v-1h-1l-1,-1h-1v-1h-1l1,-1h-3v1l-1,-1h-1l-1,-1h-1v1h1v1h-2l-1,-1l-1,1h-1l-1,1h-4v-1h-2l-1,-1v-1h1v-1h2v-1h5l1,1h1v1h1l-2,-2h5v-1h2v-1h-1l-1,-1h-1v-1h2l1,-1h1v-1l1,-1h1l1,-1h-1l-4,-4h-2v-1h-1h1h-3v-1h-1h1h-1l1,-1h-1v1h-3l-1,1h-1v-2h3l-1,-1h-2v-1h1h-3v-1l-1,1l-1,-1v-1h-3v-1h-2v1h2v1h-7l1,1l-2,-1h-2v1h-1v-1h-11v-1h-1v-1h1h-1v1h-1v-1h-1v1h1h-4v-1h-1l-1,-1v-1h3v1h2l1,-1h-4l-1,-1h-2v-2h1l1,-1h-1l1,-1h1v-1h1v-1h2v-1h2l1,-1h6v1h-2l-2,2h-1v1h1v1h-1v1l1,1h1v1h1l-1,1h-2ZM603,146h-6l-1,-1l-3,-1h-1v-1h-2l-3,-1v-1h4l2,1h3l1,1l3,1h1l1,1h1ZM597,163v-1h2l1,1h3l2,-1h1l1,1h-1v1h-1l-1,1h1v1h-2v-1h-1h1l-1,-1h-1h1h-1v1h-1l-1,-1h-2v-1h-2v-1h-2v-2h1l1,-1v2l1,1v1ZM492,73h1h-1v1l-1,1h-1l-2,1h-3v-2l2,-1h4l1,-1ZM502,75h1v2l-1,1v1h-1l-1,-1h-1v-2h1v-1h1ZM514,50h2v1l1,1v1h-1v1h-6v-1h-1v-1h1v-1l1,-1h2ZM501,32h6l1,1h1l1,1h-6l-1,1h-1l-1,-1h-1v-1h-2v-1l1,-1l1,1ZM497,125h-4l-2,-1h-1v-1h5l1,1h1ZM506,106v-1h1v1ZM506,106h-1v2h-1l1,-2h-1l-1,1v1h-1l1,-1v-1l-2,2h-1l1,-1h1v-1l1,-1v-1v2l1,-1v-1h1v1h1ZM501,106h-1v-1h2ZM481,22l-2,-1h3v1ZM454,21h-1v-1h1v1h1ZM472,15l-1,1v-1h-1h1ZM438,33h-1v-1l-1,-1h2l2,-1v1h1v1h-1l-1,1ZM455,24v1h-2l-1,-1l-1,1v-1h1h-1h3Z"/>
<path class="sl" d="M453,23h1h-2ZM423,24h-1h1l1,-1h2l-1,1ZM441,19h-1h1v-1h1v1ZM275,108v-1h1ZM261,122v-1h1v-1v1ZM274,111h-1v-1h1ZM271,115v-2l1,-1v3ZM278,106l1,-1h1l-1,1ZM275,117l-2,2h-1l-1,1v-1h1l1,-1h-1v-2h1l1,-1h1v1ZM266,138l-1,1v-1ZM274,138v-1l-1,-1h1v1ZM265,137h-1v-1h1v-1h1l-1,1ZM273,134v-1l1,-1v1ZM271,119v-2h1v1ZM269,125v-1h1v1ZM272,120l2,-2h1l-2,1v1ZM272,116v-1h1ZM273,116v-1h1v-1v1ZM274,143h-1l1,-1ZM625,179h-1h1v-1ZM615,169l-1,-1h1ZM606,157h1l-1,1h-1l1,-2l1,-1h1h-1v1ZM590,154v1h-1v-1ZM590,153v1ZM586,177l-1,1v-1ZM582,175h-1v-1h1ZM540,170h-2l1,-1h1ZM539,169h-1h2ZM554,161h-1h1v-1h1v1ZM632,135h-1ZM640,142h-1ZM642,141h1l-2,1v-1ZM648,155h-1v-1h1ZM561,74h1v1l-1,-1h-1ZM551,85h-1v-1h1v-1h1v2ZM539,74h-2v-1h-1h2ZM563,79h-1l-2,-1h3ZM561,77h1v1l-1,-1h-1ZM549,91h-1v-1h1ZM567,84h-2v-1h1v1ZM591,106h1h-2l1,-1l1,1ZM585,98v1l-1,-1h-1h1ZM537,45h-1ZM558,54v1v-1h1ZM502,25l-1,1v-1h2ZM501,103v-1ZM502,99h-1ZM503,104v-1ZM501,122h-1ZM504,130h-2l2,-1ZM275,142l-1,-1h1ZM273,135l1,-1v-1v1ZM521,52h-3v-1h-1h5v1ZM509,70l1,1v1h-2l-1,-1h-1v-1h2ZM469,25h1ZM499,88h1ZM500,88v-1h1ZM458,34h-1v-1h1ZM460,29l1,-1v1ZM457,31h-3v-1h4ZM469,46h-1ZM468,47v-1h-1h1ZM524,74h-2v-1v1h3ZM517,50h-2v-1h2ZM507,83h-1h2ZM504,51h-1v-1h1ZM513,71h-1v-1h-1l1,-1l1,1ZM502,45h-2v1v-1h-1h2ZM506,45l-1,1h-1l1,-1ZM509,68h-1h2ZM489,58h1v1ZM503,48h-1h1v-1h1v-1h2v1h-1l-1,1ZM510,47h-2v-1h3ZM480,43v1l1,-1v1h-2v-1ZM487,60h1l1,1h-2v-1h-2v-1h2ZM479,52h-1v-2h2v1h-1ZM484,61h-1l-1,-1v-1h1v1h1ZM458,23h-1h2l1,-1v1h-1ZM460,19h1ZM461,20h-1h2ZM481,24h-1v-1h-1h1ZM466,26h-1ZM465,29h-1ZM419,24v-1h1ZM437,22h-2v-1h2ZM447,27h-1v-1h3v1h-1ZM438,48h-1v-1h1ZM439,47h-1h1v-1ZM442,41h1ZM454,45v1h-1v-1h-1v1v-1h1ZM437,45h-1ZM432,48h-1h1v-1h1v1ZM424,49h-1v-1h1ZM410,52v-1h1v1ZM409,50h1ZM408,54h1ZM409,50h-1v-1h1ZM351,39h-1ZM754,534l1,-1h7v1h1v1l-1,1v3h-1v1l-1,1v1h-1h1v1h-1v1h-1v1l-1,-1v1h-3v1l-1,1h-5l-1,1v-1h-1v-2l-1,-1v-2h1v-1h-1v-5l1,-1v-1l1,-1h2ZM770,723l-1,1v-1ZM734,750v-1l1,-1v1ZM761,729v1h-1l1,-2l1,1ZM791,555l-1,1v-2h1v-1v1ZM822,640v-1l1,-1v1ZM820,643v1v-2ZM788,541v1h-1h1ZM753,529v1l-1,2h-1l-1,-1l-1,1l-1,-1l1,-1h1l2,-1Z"/>
<path class="sl" d="M748,515h-1v-2h1ZM746,533l-2,2l-1,-1v-1l1,-1h2ZM755,533h-3v-1h1l1,-1h1l1,1h-1ZM748,531l-1,1l-1,-1v-1h1v-1l1,-1v2ZM750,528l-1,1v-2h1v-1l1,1ZM737,545h-1l1,-2l1,-1v-2l1,-2l1,-1h1l1,1l-1,3l-1,2l-2,1ZM732,760h-1l1,-1v-1l1,-1v1ZM435,381v-1l1,-1ZM436,385l-1,2v-2h1v-1ZM671,421v-1h-1v-1h1v1h1ZM519,329h1h-1v1l1,-1v1l1,1h-1h1v1l-1,1h-1v-1h-1v-2h-1v-1h1l1,-1ZM523,315h-1v-1h-1h1v-2l1,-1h-1l1,-1h-1v-1l-4,-2h-1h3l3,3h1v2h-1ZM557,354l-2,2h-3v-2h5v-1h1ZM519,325v2h-1v1h-2v-1h-1l-1,-1h-1l1,-1v1l1,-1h-1l1,-2v-2h1l1,1v1l1,1ZM513,308l1,1h2l1,-1v1h-2l-3,1h-2l-1,-1l1,1h1l1,-1h-1l1,-1ZM522,322l-1,1l-1,-1h1ZM549,341l-1,1l-1,-1v-1l1,1ZM545,330v1h-1v-1ZM548,345l-1,1v-1l1,-1h1v-1h1v-1h-1v-1h1v2l-1,1h-1ZM527,318l2,1l3,3l-1,1v1h-1h1v-3h-1l-1,-1h-1l-1,-1h-1ZM536,335h-1l-2,-1v-1v1h1l1,1ZM542,340l-1,-2h-1l-1,-1h1v-1l-1,-1v-1h-1v-1l1,1v1l1,1v2h1l1,1ZM538,329h-1v-1l-2,-2v-1l1,2ZM557,343v1h2v1l-1,-1h-2v-1ZM558,351h-1ZM557,928l1,-1v-2l1,-1v-2l1,-1v-3h1l1,1v1h-2v1h2v1l1,1h1v1l1,1h2l1,1h1l1,1h4v1h-1l-1,1h-1v-1l-1,1h-5l-4,-1h-3ZM577,927l1,1l1,-1h1v1l1,-1v1h-4ZM621,842h-1v-1ZM651,387v1l-1,-1h-1l1,-1h1ZM650,383l-1,-1v-1v1h1ZM639,949h1v1v-1h-2ZM400,990h1h-3v-1h-1l1,1h1l-1,-1h-3l-2,-1h-4v-1l2,1h-1l-1,-1h-1h2l2,1h1l-2,-1h-1h1l1,-1v1h7l1,1h21l2,1v-1h-1l-1,-1l1,1h3l1,1h1h-1h1l1,1v-1h1v-1h1l1,1h3v1h-1h7l1,1h4l1,-1l1,1h10l-1,-1h-4l-1,-1h-4v-1h-1h4l-2,-1h-6v-1h2v1h13l1,1h16v-1h5v1h8l1,1h9v-1h2v-1l1,1h3v1h4l1,-1v1h-1h8l3,-1h10l3,-1h2l2,-2v-2h1v-1h-1v-3h5l1,-1h-1h1v-1h1l1,-1h-1l1,-1h1v-1h-1l-1,1v-2h2v1h2v-2h3l2,-2h3l1,-1h3v-2h4l1,-1h3l1,-1h3l1,-1h1l3,-1h3l1,-1h2l2,-1h2l2,-1h1v2h-1v-1h-1l-1,1h-3l-1,1h-1l-1,1h-1h1h-1v1h-2v-1v1h-4v1h-2l-1,1h-4v1h-1h1h-1l-2,2h4l1,-1h1v1h-2v1h-1l1,-1h-2l-1,1l-1,-1h-2v2h-1v-1h-3l-1,1v1h-1l-1,-1h-1v1h-2l1,1h-3v1h-1v1h2h-2v1h1h-1h1l1,1h1v-1h1l1,1h-1l1,1h1v1h-1l1,1h-2v1h1h-1v1l1,-1h1v1h-1v1h-1h1h-1v1h-1h1v1h-1l-1,1h1h-2v1h-1l-1,-1h-1v1h1v1h-1l-1,1h-3l-1,1h-1v-1h-1v1h-2l-2,1h-5l-3,1h-5l-1,1h-13l1,1h3l-2,1h-1l-1,-1h-9l3,1h1h-8l-1,-1l1,1h1h-1h2l1,1h4l1,1h18v1h-1h1h-1h1h-1h1h-1h11v-1h15l1,-1h9l1,-1h8l1,-1h8l1,-1h-1l-4,1h1l1,-1h1h-3l-1,1v-1h-1h2l4,-1h3l1,-1h6l1,-1h5l3,-1h2l2,-1h2l4,-1h5l1,-1h4l1,-1h2l2,-1h4l1,-1h3l1,-1h1h-1l-1,1h-1h1v-1h3v-1h3l1,-1v1l1,-1h3l2,-1h2l1,-1h1l2,-1h2l1,-1h2l1,-1h3v-1h1l-1,1h-2l-2,1h2l2,-1h1v-1h3v-1v1l1,-1h1h-1l-1,1h-3v1l1,-1h1h-1l-1,1h-2l-1,1h-2l-1,1h-2l-1,1h-3l-1,1h-2l-1,1h-3l-1,1h-2l-1,1h-3l-1,1h-3l-1,1h-3l-1,1h-3l-1,1h-4l-1,1h-3l-1,1h-4l-1,1h-4l-1,1h-4l-1,1h-5l-1,1h-5l-1,1h-5l-1,1h-6l-1,1h-7l-1,1h-8l-1,1h-10l-1,1h-15l-1,1h-44l-1,-1h-15l-1,-1h-10l-1,-1h-9l-1,-1h-6l-1,-1h-6l-1,-1h-6l-1,-1h-5l-1,-1h-4l-1,-1h-4l-1,-1h-2Z"/>
<path class="sp" d="M656,975h-1l-1,1h-2l-1,1h-2l-1,1h-2l-1,1h-3l-1,1h-2l-1,1h-3l-1,1h-2l-1,1h-3l-1,1h-3l-1,1h-3l-1,1h-3l-1,1h-4l-1,1h-3l-1,1h-4l-1,1h-4l-1,1h-4l-1,1h-5l-1,1h-5l-1,1h-5l-1,1h-6l-1,1h-7l-1,1h-8l-1,1h-10l-1,1h-15l-1,1h-44l-1,-1h-15l-1,-1h-10l-1,-1h-9l-1,-1h-6l-1,-1h-6l-1,-1h-6l-1,-1h-5l-1,-1h-4l-1,-1h-4l-1,-1h-3"/>
<path class="sl" d="M555,995h1l-1,1h-4l-11,1l-5,1v-1h6l2,-1h4l1,-1h4l1,-1h6v1h-3ZM529,997v1h-9v-1v1l6,-1h4ZM531,979h1v2h1v3l-1,1h-1v1h-3l-2,1h-7v-1h-1h6l1,-1h-7v1h-4l-1,-1h3v-1h2v1h1l-1,-1h2l1,-1h1l2,1l1,-1h3l1,1v-1h-3v-1h4l-1,-1h-4v-1h1l-1,-1v-1h6ZM452,985h4v1h1l1,-1h1v1h1h-12v-1h-1h3v-1l1,1ZM409,987h2v1h-1l-2,-1h-1l-1,-1h-1h2ZM396,985h2l1,1h5v1h1h-3v-1h-5l-1,-1h-1ZM567,995h1h-2ZM567,995h-1ZM515,997h-1l1,-1h4l-1,1h-2ZM583,963h2v1h-4l1,-1h-1v1v-1h2v-1h1v1ZM594,960h1v1h-2v-1l-1,1h-2l1,-1h1ZM589,956h1h-1l-1,1v-1l-1,1h-3l2,-1h1ZM563,965h-1h2l-1,1h-4l1,-1h2v-1h1ZM566,965h-1l1,-1h1v1ZM540,974v1h-4l1,-1h1l1,-1h1v-1h2l-1,1h1l-1,1ZM518,983h1h-4l-4,1h-1v-1h5v-1v1h1v-1h1v1v-1h1ZM515,980h1l1,1h-1v1l-2,-1h-1h1ZM515,988h-1v1l-3,-1h-1h2v-1h-1h4ZM472,988h-1v-1h-1l1,-1l1,1h1h-1h1v1ZM660,974l1,-1ZM662,973l2,-1h1h-1l-1,1ZM521,997h-1h2ZM520,997h-1h2ZM602,953h2ZM591,961h-1h2ZM583,965v-1h2v1ZM592,960h-1ZM585,962h1v1h-2v-1ZM554,980v-2h1v1h-1ZM577,958v1l2,-1v1h-4l1,-1ZM525,980h-1ZM462,987h-1v-1h2ZM440,987h-2v-1ZM413,987h-1ZM403,987h-1ZM657,975l1,-1ZM658,974l-1,1l1,-1h2l1,-1l-1,1h-1Z"/>
<path class="sp" d="M661,973l-1,1h-2"/>
<path class="sl" d="M620,984l-2,1h-1h1l1,-1h2ZM634,981h-1h1l1,-1ZM642,979h-1h2ZM566,995h1ZM605,953h1ZM584,957l-1,1v-1ZM556,980h-1ZM560,977h-1ZM555,982h-1h2ZM554,983h1ZM582,958h-1ZM576,960h-1ZM573,963h-1h1v-1h1v1ZM568,964v-1h1ZM561,966l-1,1l1,-1h1ZM568,960h1ZM550,970h-1v-1h2ZM547,971h-1l1,-1ZM543,973v-1h1v1ZM542,975h-1h2ZM525,982h1h-2ZM516,988h-1h2ZM465,987h-1ZM419,988h-2l1,-1v1ZM394,986h-1ZM397,987h-2v-1h-1h1v1h1ZM393,988h-1ZM388,987h-1ZM397,989h-1ZM395,989h-1ZM393,988l1,1ZM398,989v1v-1h-1ZM391,988h-1l-1,-1l1,1ZM394,989l-1,-1ZM395,989h1Z"/>
<path class="sp" d="M396,989h-1"/>
<path class="sl" d="M396,989h-3v-1v1h2ZM639,379h1Z"/>
<path class="sw" d="M860,153l-1,-1v1Z"/>
<path class="sh" d="M524,461h-1v3l1,1l1,2l-1,1v1l-2,2l-1,-1v-1h-1v3l-1,2v-1l-2,-2l-2,-3v-2h1v-1l1,-1h1l1,1l-1,-1v-1h-3v1l-1,-1v-2h-1l-1,-1h-1l-2,-2h-4v1l-1,1h-1v2l-3,2h-2l-1,1v2h1l1,1l1,2h1v1l-1,1h-2v1h-1l-2,1h-1l-1,-1v-1l-1,-3v-1h-1v2h-2l-3,-3v-1l-1,-1h-3v-1l-1,1l-2,-1h-2l-1,1v1v-1h-1v-1l1,-1v-3l1,-1v-1h-1v-5h2v1h1v-1v1h2v1h-1l1,1v1l1,-1v2h1v1h3l-1,-1v-1v1h1l2,2h4l2,-1l1,-1h1l4,-2l1,-1h1l2,-2h2l2,1h2v1l2,-1l5,2l3,2l1,1ZM510,465v-2h1v1ZM487,473l-1,-1h-1v-2h1v2h1ZM482,455h-1v-1ZM509,465h-1l1,-1Z"/>
<path class="sw" d="M752,68l1,1l-1,-1h-1h1h-1h1l1,1Z"/>
<path class="sr" d="M751,68h1l1,1"/>
<path class="sw" d="M481,192v1l1,1l1,-1h1v1h1v-1l1,-1h2l1,-1v1v-1h1l2,-2h3l2,1h2l-1,-1h1v-1h8v-1h1h-1v-1h1v2l-1,1h-1v1h-2v1l-1,1l-3,1l-5,1l-4,2l-1,1h-4l-1,1h-1l-1,-1h-2h1v-1v1h-1v-1h-2l-1,-1l1,-1h1v-2ZM507,187h1v-1h-1ZM484,195h-1ZM411,136l1,1h-1l-1,-1v2h-2v-2h1v-2h1v-1h1v-1l-2,1h1l1,-2v-1l-1,1h-1v1h-1v-2h1v-2h-1v1h-1l1,-1h-1l-1,1h-1v-2l-1,-1v-1l-1,-1v-1h2v-1h-3v-1l2,-2v-1h4l1,1h1l-1,-1h-1v-1h1v-1l2,-1h-1h1v1h-1l-1,1h1v4l1,1v1h-1v1l1,1v5h1h-1l1,1v1l1,1l-1,1v1ZM406,127l1,-1v-1l-1,1ZM411,134l-1,-1v1h-1l1,1v-1ZM390,71h-1v1h-1v-1h-7v1h3v-1l2,1h-3l-1,1h-3v1h-1l-1,1h-1l-1,1h-2l-2,1h-4v1h-1h1h-1v1h-9l-1,-1h-2v-1h5l1,-1h2v-1h4l1,-1h-1v-2h1h-1v-1h1l1,1h2v2h5l2,-1h1l1,-1h1v-1h3l1,-1h3l1,1h1ZM377,74h1h-2l-1,1h-3v1h1l1,-1h2ZM527,177l-3,2v1v-1h1v2h-1l1,1v1h-2l-1,1h-1l-1,1h-5l-1,-1h-5l-2,1h-5l1,-1v-1h1v-1h1l1,-1h4l1,-1h7v1h1l1,-1h-1h1v-1v1h-1v-1h-1h3v-1h3l1,-1h1ZM521,179h1ZM524,178h-1v1h1ZM378,55v-1h1l-1,1h-1v1h-2l-1,1h1h-2v1h-1v-1v1v-1h-4l-1,1h1v1h-3l-1,1h-2v-1h2l1,-1h1v-1l-1,1h-3l-1,1h-1v1h-1l-1,-1h-1l1,-1h1v-1h3l1,-1v-1l1,1h2v-1h1h-2l-1,-1h-1v1h-6v-1h5l2,-1v1v-1h6l1,-1h6l-1,1h-3l-1,1h-1v1h5l1,-1h1ZM481,192v-1h1v-1h1v-1h1v1h1v1h-4ZM756,71h1l1,1h1v1h1l1,1l-1,-1l1,1h1v1v-1h-1h1v1v-1h-1l-1,-1h-1l-1,-1l1,1v-1h-2v-1v1h1h-1l-2,-2h-1h1h-1h1ZM496,307v1h-1v1h-1v-1l-1,-1h-1l1,-1h1v-1h1l1,1ZM460,438v2h-4l-1,-1h-2v-1h-1v-1h-1v-6h2v1h1l5,5v1ZM589,674v-2h-2v-1h-1v1l-1,-1h-1v-1h1v-1h1v1v-2l-1,-1h1v-1h1l2,2h1v1h1v1h1l1,1v1h1l-1,1h1v1h2v1h-2l-1,1h1v1h-2v-3h1v-1h-1v1h-2ZM401,121v1h-1v-1v1h-3v-1h-1l-1,-1h-1h2v-1h2v-1h-1h1v-1h-1h2v-1h1v-1v1h1h-1l-1,1v1h1l1,-1h1h-1v1h-2v1h-1h1v2h1ZM301,196v1h-1l-1,1h-1v-1h-1v-3h-1v-1h1v-1h1v1h1v2l1,-1v-1v1h1h-1v2ZM299,197h1v-1h-1ZM472,168h-1l-1,1v2h-2v2h-1v1l-1,1v-1h1v-1l-1,1v1v-3h1h-1l-1,1h-1v1h-1v1h-1v2l-1,1v1h-1v2l-1,1l1,2v1h1v5l-2,2v1l-1,1h-1v1l-2,1h-3v-1l-1,-1v-2h-1v-1l1,-1v-4h-1h1v-3l1,-1v-2l1,-1h1v-3h1v-2h-1l-1,1h-1v1h-1v-1h1v-2h2v-1l4,-4v-1v2l1,-1h1v-1h1v1h-1v1l1,-1h1l1,-1h4v-1h3l1,1ZM467,168v1h-1h1ZM463,172l1,1v-1ZM458,170v1h1v-1ZM458,171h-1v1h-1v1h-1v1h1v-1h1v-1h1ZM474,163h1h-1v1h-3l-1,-1h1v-1h-8l-2,2l-1,-1v1l-1,-1h-3v-1l-1,-1h-3v-1l-1,1h-1v-2h-2v1h-2v1h-4l-1,1h-2l-1,1v-1h-2v-1h1v-1h-1l-1,1h-3l-2,1h-1v-1l3,-1l2,-2l2,-1l1,-1h2l2,-1h1l1,-1h2l1,-1h1v-2h1l2,-1v1h-1v1l1,-1h1v-1h1v-2h1v1l-1,1h-1v1h1v-1h1l1,-1v-1h-1h1l1,-1v1h2l1,1h6v1h1v3h1v1h6v1l-1,1l1,1h1v2l-1,1l1,1h1l-1,1h1l-1,1l1,1ZM437,161h1ZM439,160v-1ZM454,149h2v-1h-1ZM449,154l1,-1h1h-1l-3,1v1h1v-1h1h-1ZM455,157h-3l-1,1h-1v1h1l-1,1h1l2,-2h1h-1ZM457,149h-1ZM468,155h-2v1h1Z"/>
<path class="sw" d="M475,163h1v2h4l2,1h1l1,-1l1,1h6v1h5v1h1v1h1v1v-1v1l1,1h1v1h1l-1,1h1v1h1v1v-1h1l-1,1h1h-2v-1h-1v1h1v1l-1,1h-1l-1,-1h-1v-1h-1l-1,1v-1h-1v-1h1h-2v-2h-2v1h1v1h1v2h-1v1h-1v1l-1,1v5l-1,1h-1l-1,1h-1l-1,1v-2l-1,-3v-2h-5v1h1l-1,1h-1v1l-1,-1h-1v-2h2v-1h1v-1h1v-4h-1v-1h1v-2h-1l-2,-1h-2v-1h-2l-1,-1v-2h1v1h4l-1,-1h-1v-2l-1,-1ZM480,167v1l1,-1ZM479,167v-1h-1v1h-1h1ZM478,166v-1h-2v1h1ZM476,165h-1ZM476,165v-2h-1v1h1ZM474,168h-1ZM483,168h2v1h3v1l2,-1h-1v1l2,-2h-1h1l-1,-1v1h-1h1h-1v-1h-1v1h-1v-1h-2v1h-1v-1h-1h1h-3v1ZM490,170h-1ZM500,175v-1h-1v1ZM365,318v1l-1,1l-1,3v2l-2,5v-2h1v-3h-1h1l1,-1v-5l1,-1h1v-1ZM399,93h-1v1h-1l-2,2h1h-1v1v-1h-2l1,-1h-1h1v-1h1v-1h2l1,-1h1ZM375,88l-1,1h-3l-1,1h-1v1h-3v-1h2l2,-2h1l2,-1h2v-1h2v1h6l1,1h2h-7l-2,1h-2ZM539,135h-1v1h-1v1v-1h1v-2l-2,2l-1,2v2l-1,1h-1h1v-1h1v-2h-1v1h-1l1,-2v-1l1,-1l2,-1l1,-1h1l-1,1l1,-1h1l-1,1h-1h2ZM803,106h1l1,1h-1l-1,-1h-1v-1h-1v-1h-1v-1l2,2h1ZM804,106h-1h1v1h1h-1ZM422,145h-1v1v-1l-1,-1h1h-3v1h-1h2v1l1,-1v1h1h-1v1h-2l-1,1h-1v-1h-1v1h-1v-2h2v-1h1h-1l1,-1h1l1,-1h-1l-1,1h-1v-1h3v-2h1v1l1,1h-1v1h1ZM418,146h-1h1v1l1,-1ZM456,142h-1v2l-1,1h-1v-1h-1v1h-1v-1h1v-1v1h-2v-2h1v-1l1,-1h3v1ZM453,141h-1v1ZM453,144v-1ZM402,96h1h-1l-2,2h-1l1,1h-1v1l-1,1h-2v1h-1v1h-2l-1,1v-1l-1,1v-1l1,-1v1v-1l1,-1v2l1,-1h1v-1h1v-1h-1l1,-1h-1v-1h1l1,-1h1v-1h1l1,-1h2ZM528,185h-1ZM258,74l-1,1h-2v1h-2v-1h1l2,-1h1ZM242,82v1h-1l-1,1l1,-1v-1h1l1,-1v1ZM251,208h-1v-1h1v-1h1v1ZM449,179l-1,1v1v-1h-1l1,-1v-1h1ZM530,57v-2h2v1h3l1,1h1h-1h2l-1,1h-4v1h-2v-2ZM416,70h2v-1h4l-1,1h-2v1h1h-1v1h-1v1h-1v-1h1h-2v1v-1h-1v-2ZM445,67h1h-6v-1h5ZM542,179v1v-3l-1,-1v-2l1,-1v1v-1h1v3h-1h1v1l-1,1ZM257,251v1h-1v-1l-1,-1l1,-1v1ZM364,68h-3v-1h-1h2l1,-1v1h1ZM547,856v-1l1,-1v1h1v1h-1ZM546,151l-1,-1v-1h2v1h1v1h-1ZM520,189l-1,1v1v-2ZM521,191v-1h-1v-2l1,1v1ZM523,190l-2,-2v-1h1v2h1ZM990,414v3l1,1h-1v-5h-1v-1h1v1ZM382,96h1v1h-1v1h-4v-1h2l1,-1ZM424,72v-1h2v1h-3ZM405,84h1v-1h1h-1l1,-1h1v3h-1l-1,1v-2ZM423,280h-1v1v-1h-1h1v-1h1ZM530,107h-4v-2h1l1,1h2ZM498,165h4l1,-1l1,1v1h-1l-1,-1l-1,1v-1h-2ZM517,106l1,-1v-1v1h1v1h1h-2Z"/>
<path class="sw" d="M632,785l-1,1h-3l-1,-1v-1h2v-1l2,1h1ZM521,120l1,-1h4l-1,1h1h-3v1h-2v-1h1ZM521,120h-2v1h-5v-1h-1l1,-1h3v-1h-1h3l-1,-1h2v1h-1v1h-1v1h-1h3ZM241,83h-1l-1,1h-1h1v-1h1ZM571,376v1h-1l-1,-1h1ZM304,45l-1,1v-1ZM358,82h-1v1h-1v-1h-1h2ZM518,122v1h-1v1v-2l1,-1h1v1ZM545,906v1h-5l-1,1h1v1l-1,-1v-1h-1h2l-1,-1h-1l1,-1v1h4ZM391,85h-1v1v-1h-1v1v-1h1l-1,-1h1v1v-1h1ZM509,12h1l3,-1h1h-1l-1,1h-2ZM451,124h2ZM844,140v1l1,1v-1l-1,-1h-1ZM777,99h1l1,1h-1v-1ZM758,72h1v1h2v1h1l1,1l2,1l1,1l-1,-1l-4,-2l-2,-2ZM321,174h-1v-1h-1v1v-1h2ZM341,33h-1h2ZM312,150h1v-1v2h-1v1v-1ZM276,233v-1l-1,-1v-1l-1,1h-4v-1h3v-1l1,-1l-1,1v2h1v-1h1l1,1v1ZM363,91h-1v1h-1v-2h1l1,-1v1h-1h2ZM585,116v1h1h-2v1h-3v-1h-3v1h-2v1l1,1h1v1h-2l-1,-1h1v-1h-1v-1h-1v-1h-2l-2,-1v-1h-1v-1v2l1,1h-1v-1h-1v-3h-1v-2l1,1v1l1,1h1v1l1,1h1l1,1v-1l1,1h3l-2,-2h-1v-1h1v1h1v1h1v1v-1l1,1v-1h1v-2h-1v-1h1v1l2,2h1l1,1h1v-1ZM427,400h-1v1l-1,1h-1l-1,1v-1h-1l1,-1h2l2,-2ZM724,53l1,1h1l1,1h1h-1l-1,-1h-1l-1,-1l1,1ZM439,135h3v-1h2l-1,1h-3l-1,1h-1ZM532,151l-1,1v-1l-1,-1v2h-1v-1h-1h1h-2l1,-1h1v-1l1,1v-1h2v1h1v1h2v1h-1v-1h-1ZM754,69l1,1h-1ZM534,112h1l1,-1h3v1h-2l-1,1h-3v-1ZM712,492v1h1h-2v1h-2v-2h1v-2h3v1ZM690,37h-1ZM518,188v1v-2ZM523,188v-1ZM525,188h-1v-1v1ZM255,68v1h-1v-1ZM308,189l-1,1v1v-2ZM300,202h-1v1h-1h1v-2h1ZM358,51h1h-1v1ZM417,158v1h-2v-1h1ZM442,148l-1,1h-1v-1h1ZM526,161v1h-2l2,-2ZM552,850h-2v-1h2ZM338,80h-1v-1h2v-1v1ZM544,904h-4v-1h5v1ZM722,52h-1h1v1h1h-1ZM594,177l-1,1h-1v-1h1v1ZM584,167v-1h1v-1v2ZM260,187v1h-1v1v-2h1v-1ZM257,202h-1v-2h1v1ZM383,46h1l1,-1v1h-1l-1,1h-1ZM557,145l-2,-2v1h-1v1v-1l-1,1v-1h-1v1v-1h2v-1h1v-1h-1h1v1h1l1,1h1v1v-1h-1ZM628,144v1v-1v1h-1v1l-1,1v1h-2l1,-1h1l1,-1v-1ZM360,50l1,-1h1h-1v1ZM362,50h-1v1h-1v-1h1ZM368,60h1v-1h1v1h-1v1h-1ZM447,119h2v-1l1,1h1l-1,1h-1v-1h-1ZM429,135h-1v-2h1l1,1h-1ZM428,119h-3l-1,-1h5v1ZM550,124h1h-1h1v2l-1,-1h-1v-1h-1v1v-1h1v-1h-1h1v1h1v-1ZM383,110h-3v1h-2v-1h1v-1h4ZM420,164v1h-2v-1h1ZM555,182h1v1ZM504,178l-1,-1h1v-1l1,-1v1h1v1l-1,1ZM431,113h1h-1v1h-3v1h-1v-1h1v-1h2ZM273,179h-1v-1h2v1ZM633,150l-1,1ZM425,108l-1,1h-1h1Z"/>
<path class="sw" d="M291,49h-1ZM260,65l-1,1l1,-1h1ZM249,75h1ZM255,72h-1ZM256,71h1v-1v1ZM252,74h-1l1,-1ZM426,151v-1h1v1v-1h1h-4v-2h-1h2v1h1h-1h2v1h1l1,1h-2ZM312,101h-2l-1,1h-1l-1,-1v1h-1v3l-1,1v-1h1v-4h-1h1v-2l1,-2v4h6v1h-1ZM423,106h-2v-1h3ZM352,154h-1h1v-1h-1v-1l-1,1h-1l-1,1v-1v1v-1h-2l-1,1h-1l-1,1h-1v-1h-1h3v-1h5l1,-1h1l1,-1v2ZM373,155h-1l1,-1h-1v-1h-1h1v-1h-1v-1h-2v1h-2v-1l-1,1v-1h1l1,1l1,-1h3v2h1v-1h1v1h-1v1h1h-1v1h2v1h-1v-1ZM301,81v-1h1v-3h1l-1,1v2ZM300,141v-2l1,-1l-1,1v1ZM303,148l-1,1h-1h1v-1h1h-1v-1h1ZM285,149h-1v-1h1ZM390,89h-1v1h-1v-1h2l2,-1l1,1h-2ZM287,65h1v-1v1ZM414,153h1v1h-3v-1h1ZM414,152h3l-1,1h-2ZM429,74v-1h-1v-1h3v2h1h-2ZM535,65v-1h-1l-1,1h-3v-1h1h-1h2l-1,-1v-1h-1h2l1,1h2v1h1v1ZM345,284l-1,1l-1,-1v-1l1,1h1v-1ZM522,159v1h-1v-1h-1h1h-1v-2h-1h1v-1h1l-1,1h1h-1h2v1h-1v1ZM320,360h-4v-1h-1h2l1,-1v1l1,1ZM449,429v1h-1v1l-1,-1h-1l-1,-1v-1h2l1,1ZM699,738l-1,1v1h-1v2h-1h2l-1,1h-1v1h-2v-1h1v-1l-1,-1h2v-1h-1h1v-1l1,-1v-1l1,-1v-2h1v-1v2l-1,2v1ZM504,457l-1,1h-1l1,-1h-1v1h-2l2,-2v-1h1v1h-1l1,1ZM838,132h-1l-1,-1l1,1ZM990,448v3h-1v-2l-1,-1v-1v1v-1v1h1l-1,-1l1,1v1v-7h-1v-1v1v-1h-1v-1h1v-3h-1v-1v1v-1v1v-1h-1h1l-1,-1v-3h-1v1v-1h-1v-1h1v-1v1l1,1v-1v3l1,1v2h1v1v-5h-1v-1v1h1v6h1v8ZM989,448v-1ZM695,796h-1v1l-1,1h-2l-1,1h-1v1h-1v1l-1,1v1h-1v-1h1v-3h2v-1l1,-1h1v-1h1v-1h2v-2h1v2ZM402,138v1h-3v-4l-1,-1v-1h1v1v-1l-1,-1l1,-1h-2v-1h1v1l1,-1v2h1v-2l1,1l-1,1l1,1h-1v1h-1v1h2v1h1v1ZM396,131h-1v-1h-1v-1l1,-1v-2h1l1,-1v-1l-1,-1l-1,1h1v1h-1v-3l-1,1v1h-1v-1h-1h1v-1h-1h3v-1l1,1h1l1,1h1v1l-1,1v1l-1,1h-1v1h1h-1v2l1,-1l-1,1ZM564,133v1h-1v1l-1,2v-2h-1l-1,-1h-1v-2l-1,-1h1v-1l1,1h2v-1h1h-1v1h2v1ZM563,133l-1,-1l1,1v-1l-1,-1h-1v1h-1v1l1,1h3ZM369,102h-1v-2h1v1h1l-1,1h1v1h-1v2h-2l-2,2v-1l1,-1h-2v-1h2v1h1v-1h2v-1h-1v-1ZM553,887h-6l-2,1l-1,1h-1v1v-1l1,-1v-1h3l2,-1h4ZM276,233v-1l-1,-1v-1l-1,1h-4v-1h3v-1l1,-1l-1,1v2h1v-1h1l1,1v1ZM301,219l-4,4v1h1h-3l-1,1h-1l-1,1v-1h1v-1h3v-1h1l1,-1v-1h1l1,-1ZM416,98v1h1l-1,1h-2l-2,2l-1,-1v1h-2l-1,1v-1h1l1,-1h1l1,-1v1l1,-1h1v-1h1v-1h1v-1h1v1ZM812,608v2h-2v2h-1v1h-4l-1,1h-1v2h1v1l-1,-1h-1l-1,1l1,2v2l-1,2v-1l1,-1v-1l-1,-1h-1v1l-2,2v3h-1v1h-1v-1h-1v-1l2,-2v-1h-1h1v-1v2h1v-2h1v-2h1v-2l-1,-1h-1h2v1h1l-1,-1h2v-2h1v-1h1v-1l1,1l1,-1h2l1,1v-1h1v-1l-1,-1h2v-3h1v1ZM798,623h-1h1v-1l-1,1h-1v1l1,-1v1Z"/>
<path class="sw" d="M500,149v-1h1l1,1h-1h3v1h1v1v-1h-4v-1ZM352,154h-1h1v-1h-1v-1l-1,1h-1l-1,1v-1v1v-1h-2l-1,1h-1l-1,1h-1v-1h-1h3v-1h5l1,-1h1l1,-1v2ZM378,172h-1v1h-2v1h1v1h-1v-2h-1h1v-1l1,1h1v-2h1v-2h-1h1v-1l-1,-1h1v1h1v-3l-1,-1h1v-3h1v2h-1v3h1l-1,1v3l-1,1ZM301,81v-1h1v-3h1l-1,1v2ZM300,141v-2l1,-1l-1,1v1ZM990,448v3h-1v-2l-1,-1v-1v1v-1v1h1l-1,-1l1,1v1v-7h-1v-1v1v-1h-1v-1h1v-3h-1v-1v1v-1v1v-1h-1h1l-1,-1v-3h-1v1v-1h-1v-1h1v-1v1l1,1v-1v3l1,1v2h1v1v-5h-1v-1v1h1v6h1v8ZM989,448v-1ZM703,43h-1h1h-1v-1h-1h1h-1l1,1ZM702,43h2v1v-1h-1ZM720,51h-1v-1v1v-1h-2l-1,-1h-2v-1h-1l1,1h2l1,1h1l1,1ZM713,48h1ZM398,66h-5l1,-1h3v-1v1h1h-1h1ZM398,66h2v1h-2l1,-1ZM382,182v1h1v1h1v1h-1v-1h-1v-1h-1v-1l-1,-1v-1h1v-1h1l-1,1v2ZM354,306v1h1h-1v1h-1v-3l-1,-1h1l1,1ZM367,109h1l-1,-1v-1h2v-1h1v-1v1l-1,1v1h-1v1ZM401,82v1h-2l1,-1h-1v-1h1h-1l1,-1h1v1h-1h1h-1h3v-1v1h-1l-1,1h-1h2ZM445,63h-1v1h-1v-1h-1v1v-1h2ZM555,117v1h-2v-1h-2v-1h1h-1h2v1h1ZM559,119h-1l1,1h-1v1h-1v-1h1v-1l-1,-1h-1h2v1ZM550,115v1h-1l-1,-1h1v1v-1h2v-1h1v1h-1ZM445,231v6h-1l1,-1v-1l-1,-1v-3l-1,-2h1ZM483,252h1v1l1,1h-1v-1h-1v-1h-1v1v-2ZM310,124h1h-2l1,-1v-1l-1,-2h1v3ZM488,287v-1v1l1,1v1l-1,-1ZM268,243v-1v1h1v1h-1ZM246,194v1h1h-1ZM384,59h-1l1,-1v1h3l-1,1h2v1h-1h1l-1,-1h-3ZM255,183h-1v1h-1v-1h1ZM270,179h1v1h-1ZM575,168l1,1v-1l1,1h-1l-1,-1h-1ZM752,570h-1v-1h1v-4h1v1l1,1v3l1,1v5l1,1h2l-1,1h-1l-1,-1v-1l-2,-2v-2h-1v-1h1v-1ZM772,689h1v1h-1v-1h-1v1l-1,1h-1v-1h2v-1l-1,1v-1l1,-1h-1l1,-1h-2v1v-1l1,-1h1v-1h-1h1v-1l1,1h-1v3h1h-1v1h1v-1ZM725,704v-1h2v-1h1v-1l1,-2v2l2,-2h1l-2,2h-1l-1,1v1h1h-2v1h-1h1v1h-1v-1ZM550,852h1v1h-1ZM570,880v2h-2v-2h1ZM837,132h-1v-1ZM300,71v1h-1l-1,1l1,-1ZM248,79l-1,1v-1h1h-1l1,-1ZM261,72h1l1,-1v1h-2l-1,1h-1l1,-1ZM265,73h1l-1,1ZM264,65v1v-1h1ZM259,66v1v-1h1ZM263,63v1v-1h1ZM272,59h-1ZM446,245h3l2,1v1l-3,-1l-1,-1l-1,1ZM735,59h-1ZM733,58h-1l-1,-1l1,1h1v1h1h-1ZM519,133l-1,1h-1v-1h1ZM438,134l1,1h-1v-1h-1ZM437,129v1ZM508,135h-1ZM509,157h-1v-1h1ZM517,157h1h-1v1v-1h-1v-1h1ZM399,63l-1,1v-1ZM397,63h-1h1v1ZM396,63h-1h1v1h-1v-1ZM503,40h1h-2ZM428,44v-1h1v1ZM440,53l-1,1v-1ZM421,110h2l-2,1Z"/>
<path class="sw" d="M390,113h1v-1l1,1l-1,1h-1ZM373,115l1,-1v-1h1v1l-1,1h-1v1ZM547,121h1h-1l-1,-1h1ZM600,125l1,1h1v1l-1,-1h-1v-1h-1ZM387,63v-1ZM480,152h-2l1,-1h2ZM373,106v-1h1ZM375,107h-1h1h-1h1v-1h1ZM412,73v1h-1l1,-1v-1ZM405,78h1l1,-1l-1,1ZM395,92h1v-1v1ZM552,104l1,1l2,1l-2,-1l-1,-1v-1ZM470,57h-1ZM472,57h-1v-1h1Z"/>
<path class="sb" d="M880,207l-3,-3v-3h-1v-1l-2,-2h-1v-2h-1v-2h-1l-2,-2v-1h-1l-1,-1h1v-1l-1,-1v-1h-1l-1,-1v-1h-1v-1l-1,-1v-1h-1l-1,-1v-1l-1,-1v-2h-1v-1h-1v-1h-1v-1l-1,1v-1v1l-1,-1v1h1v1h-1v-1v1l-1,-1v1v-1h-1v-1h-1v1M865,167h-1v-1M867,167h-1h1v1l-1,-1v1v-1h-1l-1,-1h-1v-1h-1v1h1h-1v1v-1h-1l-1,-1h-2v-1v1v-1h-1v-1h-1M824,123v-1v1v-1M820,119v1h1l2,2h1v1l-1,-1h-1v-1h-1l-2,-2v1h1v1v-1h-1v-1h-2l-2,-2h-1v-1v1l-1,-1h-1v-1h-1M816,115h-2v-1h-1v-1h-1l-1,-1h-1h1h-1l1,1M837,133l-6,-6h-1v-1l-1,-1h-1v-1h-2v-1h-2v-1h-1v-1h-1v-1h-1l-3,-3h-1v-1h-1v-1h-1l-2,-2h-1v-1h-1v-1h-1l-1,-1h-1v-2h-2v-1l-1,-1h-1v-1h-1l-2,-2l-2,-1v-1M847,143v-1h-1l-2,-2v1h1v1h1h-1v-1h-1v-1h-1v-1h-1v-1h-1v-1h-1v-1h-1v-1h-1v-1h-1h1l-1,-1v-1h-1v-1v1h2M841,135h-1v-1h-1M842,136l-1,-1l1,1h-1v-1h-1v-1h-1l-1,-1v-1h-1h1v1h1v1v-1h-1v-1h-1h1h-1h1l-1,-1v-1h-1h1h-1h1v1l-3,-3h-1v-1l-1,-1h-1l-1,-1v-1h-1v-1M829,124h1h-1v-1h-1v-1h-1l-1,-1h-1v-1l-1,-1h-1v-1h-1l-1,-1h-1v-1h-1v-1v1h1l-1,-1h-1v-1v1v-1h-1v-1h-1v-1h-1v-1h-1l-1,-1l1,1h1v1v-1h-1M813,110l1,1l-3,-3h-1l-2,-2h-1v-1h-1v-1h-1l-2,-2h-1v-1h-1v-1h-1l-1,-1h-1l-3,-3M861,156h-1v-1l-1,-1h-1h1h-1v-1h-1v-1h-1v-1h-1v-1h-1v-1h-1v-1h-1v-1h-1v-1h-1l-1,-1v-1h-1v-1h-1h1h-1v-1l1,1h-1v-1l-2,-2h1v1h1v1h1v1v-1h-1v-1l-2,-2h-1h1v1v-1l1,1v-1h-1l-4,-4v-1h-1h1v1h1v1h1M849,142v-1h-1l-2,-2h-1v-1l-2,-2v1v-1v1h1M850,143v-1h-1l1,1v-1M470,442l-1,1h-4v-1h-1v-1h-1l-2,-1l-1,1h-1l-2,-1h-2l-1,-1h-1l-1,1M474,406h-2l-1,1h-1l-1,1h-3v1l-1,-1v1h-4v-1h-2l-1,1v1h-1v2h-1v1l-2,2h-2v1l-2,-1v-1h-1v1l-2,2h-3v4h-2v2h-3M432,400l-1,1l-2,1l-3,3h-2v2h-1l1,1v1l-2,2M427,398h-3v-8l1,-2v-6M416,417v-2l1,-1h2v-1h1l1,-1h-1v-1h4l3,3h1l1,1v1h1l1,-1h2v1h3l-1,2v2M432,376h-1v1l-1,1l-1,2l-1,1h-1l-1,-1l-1,1v1h-15v5l-2,-1h-2l5,5h1v2h1l1,1v3h-11l-1,1l-1,2l-1,1l-1,2v1l1,1l-1,1v3h-1M368,313h-1v1h-1l-1,-1l-2,-1h-3l-1,-1h-1l-1,-1h-1l-1,-1h-1v-3l-1,-1v-1h-1l1,-1l-1,-1l1,-1v-1l-1,-1h-1l-1,-2v-1l-1,-1v-1h-1v-3l-1,-1v-2l-2,-2v-1h-1l-1,-2l-1,-1h-4l-1,-1h-1v1h-2l-3,3v1l-1,1h-1v1h-1l-2,-2l-2,-1h-1l-1,-1v-1h-1v-1l-1,-1v-5l-1,-1v-1h-1l-2,-2l-1,-2l-3,-3v-1l-1,-1h-11v1l-1,1v1h-19l-2,-2l-6,-2l-7,-4l-3,-1l-2,-2l1,-1h-13l-2,1"/>
<path class="sb" d="M533,173h-1l-2,1l-3,3h-1l-3,3h-1l-1,1v1h-11l-1,1h-2l-1,1l1,1v2h1l-1,1h-1l-6,3h-1l-3,1h-4l-1,1l-2,1h-1l-2,1l-1,1h-2l-1,-1h-1l-1,-1v-1l1,-1v-1h1l1,-1h1v-1h1v-3l2,-2v-4l-1,-1v-5l-1,-1v-2l-1,-1h-1l-2,-1h-1l-1,-1l1,-1l-1,-1h-3v-3h-2v1h-1v-1h-1v-2l-2,-1h-1l-1,-1h-1l-1,-1h-1l-1,-1h-2l-2,-2h-1l-2,-1l-1,-1h-2l-1,-1h-2l-2,1h-2v1h-4l-1,-1h-4v-1h-1l-1,1h-3l-1,-1h-1v-1h-1l-1,1v-1l-1,-1h-2v-1h-2v1h-2l-1,-1h-4v-4h-2v2h-20l-2,-1h-32l-2,-1h-24l-2,-1h-19l-2,-1h-15l-2,-1h-15l-2,-1M348,39l-16,8l-3,1l-10,5l-2,2l-10,5l-2,2l-6,3l-2,2l-6,3l-2,2l-4,2l-1,2h1v1l1,-1h2l-1,1h-1v1l-1,1v2h-1v1l-1,1h-1h2l1,-1h2l1,-1h1l1,-1h3v1h-1l-1,1v2h-1l1,1l-1,1v1l-2,2v1l-1,1v1l-2,2h1h-1v1l-1,1h1v2h1v2h-1M665,780v1h-1l-1,1v3h-1v2l-2,2v2l-2,2h1h-1v2l-1,1M694,745l-2,6v1l-1,1h-1v1l-1,1h-1v1h-2v1h-1l-1,1v1h-4l-1,1h-8l-2,-1h-6v-1l2,-2h1v-2h1v-2l1,-1v-1h1l1,-1v-1l1,-1h1v-1h1v-2l-3,-3h-2l-1,-1h-1l-4,-2h-1v-1l-1,-1l-4,-2h-3l-2,-1h-1l-3,-3h-1v-1h-1l-1,-1v-1l-1,-1l-1,-2l-2,-2h-1v-1M603,726l1,2l-1,2l-1,3l-1,2v1h-2l-4,2l-1,1h-1l-1,1h-1v3h1v1l-1,1l-1,2v1l1,1v3l-1,1v1h-1v1l2,2v2h-2l-1,1v-1h-1v1l-2,2v1l-1,1v1l-1,1h-1v1h-1v1l-2,2v2l-1,2h-1v1l-1,1v1l1,2v1l-1,1h1v1l-1,1h-2v1l-1,2v2l-1,1h-1v2l-1,1l1,1v1h1l1,1h-1v3h1v3h1l-1,1v2h2v1h-1v5l-1,1h-1v1h-1v1h-1v2l-1,2h-1v2h1l-1,1l1,1l-1,1v1h-1l-1,1v1h-2v1h-1v1h-1v6h-1v1l1,1v3l1,1l-1,1h-1l-1,1h-1v2l-1,1v1l-1,1h-1v1l1,1h-1v1h-1v1h1v1h-1v1h-1v6h-1v1h1v2l-1,1l-1,-1v1h-1l1,1v1h-1v3l1,1h1l-1,1v1h1v1h-1l1,1l-1,1v1h-1l1,1h4l-1,1v1h-5v1h2l2,2l-1,1h-2v3h-1v4h-1v1h-1v1h1l-1,1h-1l-1,1v1h-1v1h-1v1h1v2h-2v2l-1,1h-2v2h-2l-1,1v4h1v2h3l1,-1l1,1v2h-1l1,1h-1v2h1l1,1h10l1,1h7v1M675,704l1,-1v-2l-4,-2l-3,-2h-7l-7,2h-1l-4,1h-2v2l-1,2l-4,4v4l-1,3l-3,6h-1v-2h-7v1h-1v-1v1h-1l-2,2v1l-1,1v2h-1v-2l-1,-1v-2h-3l-1,-1h-3l-2,1l-2,-2h-1v-1h-1v1l-1,1v1h-2l-1,1v1h-1l-1,1h-1v1l-2,2h-4v-3l-1,-1v-5l-1,-1v-2l-1,-2l-1,-1v-1h-1l1,-1v-1l-1,-1h-1v-1h1v-1l-1,-1h2v-2l-1,-1l2,-2v-1h-1v-1h-1l-2,-2v-5l-1,-1l1,-1l-2,-1v-1l-1,-2v-1M590,630l1,2v1l1,2l1,1l1,2l1,1l2,4l-1,1v1h-1l-1,1v5l-1,1v2l1,1v3h-1v1h-1v1l-1,1v1h-1v2l1,2h1l-1,1h-1l-1,2v1l2,3v1h2l1,1h-1l-1,1v2h-1l-2,2v1h-1l-1,1v1h1v1l-2,2h-1v3l-2,2h-3"/>
<path class="sb" d="M542,537v1h-2v1l2,2v4h-1v1l-1,2v2l-7,7l-2,1l-1,1l-2,1h-2l-2,1h-1l-2,1l-1,1h-1l-1,2h-1v2h-1v-1h-1v3l-1,1v1l-1,1v2h-1v1h1l-3,3v1l-1,1h-2v-1h-1v-1l-1,-1v-1l-1,-1h-1v1l-1,-1h-1l-1,-1h-1l-1,1h-1v-1l1,-1h-1v-2h2v-5h-1M588,573l-3,-3v-1h-1v1h-1l-1,-1h-1l1,-2l2,-2l2,-4l1,-1v-1h-1l-1,-1h-1l-1,-1h-1l-2,-1l-1,-1v1h-2l-1,1l-1,-1h-1l-1,-1h-1v1h-1v1h-10l-1,-1v-1h1v-1l-1,-1v-1h-2v-1h-1l1,-1l-1,-1v-1l-1,-1h-2v-1h-1v-1h-2l-1,-1v-2l-3,-3h-1v-1h-2l-1,-1h-3l-1,-1h-1l-2,-2h-1l-2,-1h-1v2h-1l-1,-1h-1v1v-1h-4l-1,-1h-1v-2h-1l-1,-1v-1h-3l-1,-1h-1l-2,-2h-2v-1l-1,-1M614,525v-3l-1,-1v-2l-1,-1v-1l-1,-1l1,-1h-1v-1l-1,-1h-1v-1h-1v-1h-1l-1,1v-1l4,-4v-1h1h-1l-1,-2l-1,-1v-1l-1,-2l-1,-1v-10l1,-1v-2l2,-2v-2l-1,-1h-3l-2,1h-8l-1,1h-1v-1l-1,1l-1,-2l-5,-5h-1l-1,-1h-1l-2,-1h-1l-2,1h-8l-1,-1v-1l-1,-1h-1l-1,-1v-5h1v-1l-1,-1v-1l-2,-2l-1,-2v-2h-2v-1h-2l-1,1v-1l1,-1v-1l1,-1v-1l1,-1v-3l1,-3l1,-2v-1l2,-2l2,-1l2,-4l2,-1h2l1,-1h1M665,489l-2,-2l-1,-2l-2,-2v-1l1,-1h1l-1,-2v-3h2l1,-1l1,1v-1h1l2,-2v-1h-3v-1h1l-1,-1v-2l1,-1v-1h1l1,-1h1l1,-1v-1h1v-1l-1,-2M700,517v-1h-2v-2h-1v-1l-1,-1v-1l-1,-1v-1h-1v-4l-1,-1h-1v1h-1v-2h-1l-1,-1v-1l-2,-2v-1l1,-1v-2l1,-1v-1l-1,-1v-1h1l1,-1h3v-1h1v-1h-1v-2l1,-1M715,513h1v-1h1l1,-3v-4l2,-2v-2h-1v-1h-1v-1l-1,-1v-1l-1,-1v-4l-1,-1l1,-1v-1l1,-1v-1l1,-1M687,804h-1v-1h1v-3h1v-1h1l2,-2l-1,-1h-1l-1,-1v-3h-2l-1,-1v-1h-1v-1l-2,-1l-1,-1v1l-2,-2v-1h-1v-1v1h-1l-1,1h-1v-3l-2,-1l-1,-2l-1,-1h-1l-2,2h-2l-1,-1h1l3,-3h1l3,-3v-1h1v-1h1l3,-3h1v-1l1,-1v-1h2v-1l1,-1h1l1,-1h1l1,-1h1v-1h1v-1h1l1,-1h3v-1h1l1,-1h1l1,-1v-3l1,-2l1,-1l-1,-1v-3l-1,-1h-4v-1l2,-2v-1l1,-1l1,-3l1,-2h-1l1,-1v-1h-1v-1h-3l-1,1h-3v-12h-1v-1h-3v-1h-2l-1,1h-7v-1h-2v-4h1l-1,-1h1v-2l1,-1v-3h-1v-4h-1h1v-1h2v-1l-2,-2h1l2,-4v-1h1v-3l1,-2l1,-1v-1h1h-1v-2l-1,-2v-2l-1,1v-1l-2,-1h-1v-2l-1,-1l2,-4v-1h-14v-7l-3,-3h3v-5l-1,-1v-2l1,-1h-1v-2h-1l-1,-1h-1l-1,-1h-3l-1,1v-1h-3l-1,-2h-1v-1h-3l-1,-1h-1l-1,-1h-1v-2l-1,1h-1l-1,-1h-1v-1h-2l-1,1l-1,-1h-3v-1l-1,-1h-1l-3,-3v-1h-1v-1l-1,-1v-6l-1,-1v-1l2,-2v-4l-1,-1h-1v1h-6l-1,1h-2l-1,1l-3,2h-1l-1,1h-1l-3,3h-3v1l-1,1h-1v1h-4l-1,-1h-9l-2,1h-2v-1h-1v-10h1l-1,-1l1,-1v-1l-2,2h-1l-1,1v1h-1l-1,1h-8v-1l-1,-1v-1l-1,-1h-2l-1,-1h-4l2,-2v-2l-1,-1h-1v-1l-1,-1v-1h-1v-1h-1v-2h-1v-3h-1l-1,-1v-2h2v-2h-1l1,-1v-1l2,-2l2,-1h1v-3l-1,-1h1v-1l1,-1l1,-2v-3l1,-1h-1h1l1,-1h1l2,-2h1l2,-1v-1h1l1,-1h4l1,-1h2l2,-2h3l1,1h1l1,1l1,-1v-2l1,-3v-3l1,-3v-3l1,-3l1,-2v-4l1,-2v-2h-1v-1h1h-1v-1l-1,-1v-3h-1l-1,-1h-1l-1,-1v-7h3v-1h4v1h1v-3h-1v-1h-5v-6h14v-2h1v1h1v1h1v-1l2,-2h1v-1h1v1h1l1,2v1l1,1v3h1l3,2l2,2h3v-1l1,-1h3v2h1v-1l1,-1h1v-1l1,-1h1l1,-1h1l1,-1h2l2,-2v-2l1,-1h1l1,-1h2v-1h1v-2h-6v-1l1,-1l-1,-1l-1,-2v-5l-4,-4h-1l-1,-2h2v1h4v1l1,1h6l2,1v1l1,1h1l1,-1v-3h1l1,-1h3l5,-2v-1h1l1,-1h2l1,-1v-1h2v-3l-1,-1h5l1,1v4h-1v1h3v1h1v2l1,1v2l-2,2v3l-1,2v4l1,2l1,1v3h1v1l2,2v1h1l1,1h2v1h1v-1h2v-2h1v-1h1l1,1h1v-1h1v-1h3v-1l1,-1h2v-1l1,1h9v-1l-2,-2v-1h1v-1h6v-1h3v1h1v1h2v1h3v1v-1l1,-1h1v-1h1v1h3v-1v1h1v1v-1l1,1h1v-1h1v-1h1v-1h1v-2l1,-1v-3h1v-1l1,-1v-1l1,-1v-1l2,-2v-1h1"/>
<path class="sb" d="M920,279l-2,-4l-1,-1v-1l-1,-2v-4l-1,-2h1v-2h1v-1l-1,-1h1v-1h1v-1l-1,-1v-6l-1,-1h1l-1,-1v-1h-1v-1l-1,-1v-1h-1v-1h1v-2l-1,-1h1v-1h1v-2h-1v-1l-2,-2v-1l-3,-3l-1,-2l-1,-1v-1l-3,-3v-1l-2,-2v-1l-1,-1h-1M932,249l-1,-2l-2,-2l-4,-8l-3,-3v-1h-1v-2l-5,-5v-2h-1l-1,-1v-2l-2,-2v-1l-2,-2v-1l-4,-4v-1l-1,-1l-1,-2l-2,-2v-1l-2,-2v-1M957,297l-1,-2v-1h-1v-2h-1v-1l-2,-4l-1,-3l-1,-2l-2,-2v-2l-1,-1v-1l-1,-1v-1l-1,-1v-1l-1,-1l-1,-2l-1,-1l-3,-6l-2,-3v-2l-1,-1l-2,-4l-2,-2v-2h-1v-1l-1,-1v-1l-1,-1v-1h-1l-1,-2l-1,-1v-1l-1,-1v-2h-1v-1l-1,-1v-1l-1,-1v-1h-1v-1l-1,-1v-1h-1l-1,-2M915,333h1l2,-1h5v-3h-1v-6l-1,-1v-3l-1,-1v-2h-1v-4l1,-1v-2l-1,-1v-2l1,-1v-3l-1,-1v-1l-1,-2v-2l-1,-1v-7h-1v-3h2v1h1v-1v1h1v-2h1v-1h1h-1v-2h-1v-2h-1h1v1l1,2M917,338h-1v-4h2l1,-1h6l1,-1h3v-1l-1,-1v-1l-1,-1v-1l-1,-2v-2l-2,-2v-5l1,-1v-1h1l-1,-1v-1l-1,-1v-1l-1,-1v-2l-1,-1v-2l-1,-1v-1l-1,-1v-1l-1,-1v-1l-1,-1v-1l-1,-1v-1h1v-1h5l1,-1h2v-1l-1,-1l-2,-4v-1l-1,-2l-1,-1l1,1h1l6,6h1l1,1v1l2,2h1l1,1v1l3,3M948,386l1,-1v-1l-1,-1v-4h1l1,2l1,1v-2h3v-1h1v-1h-1v-1h1v1h4v-1h4l1,-1h1l-1,-2l-1,-3v-2l-1,-1v-1l-2,-4v-2l-2,-4v-2l-3,-6v-2l-3,-6v-2l-2,-4l-1,-3v-2l-6,-12v-2l-6,-12l-1,-1l-1,-2v-2l1,-1h2l2,1l1,1l1,2l2,1l1,2l1,1l1,2l3,3l1,2l2,1l1,2l1,1l1,2l1,1l1,2l3,3v2h1v2l2,2v1h1l1,1v1h1v2l1,1v1l1,1v2l1,1v-2M976,378v-1h1v-3l2,-2v-4h-1v-3l-1,-2v-2l-1,-2v-1l-1,-3l-1,-2v-2l-1,-3l-2,-4v-3l-1,-1v-6l-1,-1v-2l-1,-2v-2l-1,-2v-1l-1,-2l-1,-3v-3l-1,-2l-2,-6l-2,-3l-1,-2v-2M931,380v-1l-1,-2v-3l1,-1v1h1l1,-1h1v-1h3l2,2v1l1,1v-1v1l1,-1v1l1,1v1l1,1v1h1v1v-1v1l1,1v1h1v1l2,2v2l1,1v1l1,1v2l1,1v3h1v1h1v2l1,1v3l1,1v1M935,399h1l1,-1h2v-1l1,-1h1l2,2h2v2h-3v-1h-1v-1h-1v2h-1l-1,1l1,1h-3l-1,1M937,409h1v-1h3v-1l1,-1h1l1,-1h3M945,421v-5l2,-2h1l1,-1l-1,-1v-2h-1v-1l1,-1v-1h-1v-2h2v1h2v1h2v-1h2v2l1,1v-1l1,-1v2l1,1v-3h1l1,1h1v-4h1v2l1,1v2h1v3h1v4h1v2h1v3l1,1v1M974,419v-3l-1,-1v-7h-1v-2h1v-8l-1,-1v-4h1v2h1v-2l-1,-2v-1h1v-1h-1v-4h1v-5l1,-1v-2h1v1l1,1v3l1,1v2h1v3h1v1l1,1v3l1,2l1,1v-1v1l1,1v3l1,2M954,436h1v-8h2v-1h2v-1v1h1v1l1,1v1l1,1v3l1,1v6h1v-2M962,453v-1l1,-2v-3l1,-1v-7h1l1,-1v1l1,1v4h1v4h1v1h1v-3"/>
<path class="sb" d="M976,473l-1,-2v-11h-1v-2h-1v-1h-1v-2h-1v-2l1,-1l-1,-1v-5h-1v-1l1,1v-6h-1v-2h2l-1,-1v-2h-1v-5h-1v-3l-1,-1v-3h1v-2h1v1h1v1v-4h1v-1v1l1,1v1v-1l1,-1v1h1v1l1,1v2h1v1h1v-2h1v-1v1h1v1l1,1v1M985,464h1v-3l-1,-2v-2l-1,-2v-6l-1,-1l1,-2v-1l-1,-2v-9l-1,-2v-5h-1v-5l-1,-1v-4h-1v-4l1,-1h3v-2M991,453v-3l-1,-1v-6l-1,-1v-3l-1,-4v-4l-1,-1v-6h-1v-4l-1,-3v-1l-1,-1v-3l-1,-1v-1h1v1h1M992,451v-3h-1v-7l-1,-3v-5l-1,-2v-4l-1,-1v-4l-1,-1v-3l-1,-1v-1l-1,-3v-14h-1l1,-1v-1v3l1,1v1l1,1M993,449v-4l-1,-1v-6l-1,-1v-7l-1,-2v-9h-1h1v-1l-1,-1v-5l-1,-1v-4l-1,-2v-3h-1v-3l-1,-2v-6l-1,-3v-4l1,1v-1v2h1v3l1,1v-1h-1v-3l1,2v2h1l-1,-3v-2l-1,-1M998,460v-8l-1,-2v-9h-1v-1M1000,480v1M1000,491v1v-1M675,32h2v1h2l1,1h2l1,1h2l1,1h-1h2l2,1l1,1h2v1h2l4,2h1l1,1h1v1h2l1,1h2l2,2h1l2,1l1,1l2,1h2l1,1h1v1h1h-1h1l1,1h2v1h1l2,1l1,1h1l1,1h1l1,1l2,1h1l4,2l1,1h1l1,1h1v1h1l1,1h2l2,2h1l2,2h1l1,1h1v1h1l1,1h1l1,1h1v1v-1h-1"/>
<path class="sg" d="M 251.7870 933.2494 A 249.7500 18.3293, 0, 0 0, 747.2130 933.2494"/>
<path class="sg" d="M 67.3109 749.9253 A 432.5797 31.7473, 0, 0 0, 931.6891 749.9253"/>
<path class="sg" d="M 0.0000 499.5000 A 499.5000 36.6586, 0, 0 0, 999.0000 499.5000"/>
<path class="sg" d="M 67.3109 249.0747 A 432.5797 31.7473, 0, 1 0, 931.6891 249.0747"/>
<path class="sg" d="M 251.7870 65.7506 A 249.7500 18.3293, 0, 1 0, 747.2130 65.7506"/>
<path class="sg" d="M 401.3236 989.2567 A 467.7879 499.5000, 11.33524333, 0 1, 597.6764 9.7433"/>
<path class="sg" d="M 468.9152 998.0628 A 319.4850 499.5000, 3.51046691, 0 1, 530.0848 0.9372"/>
<path class="sg" d="M 493.1080 998.9591 A 85.5763 499.5000, 0.73321983, 0 1, 505.8920 0.0409"/>
<path class="sg" d="M 512.9163 998.8198 A 171.2625 499.5000, -1.53911852, 0 0, 486.0837 0.1802"/>
<path class="sg" d="M 543.1879 997.0858 A 382.2117 499.5000, -5.01768706, 0 0, 455.8121 1.9142"/>
<path class="sg" d="M 693.2616 959.8875 A 490.7475 499.5000, -22.82458896, 0 0, 305.7384 39.1125"/>
<text x="0" y="0" class="fs" transform="translate(78,292) rotate(111)">150W</text>
<text x="0" y="0" class="ft" transform="translate(78,292) rotate(111)">150W</text>
<text x="0" y="0" class="fs" transform="translate(212,306) rotate(106)">120W</text>
<text x="0" y="0" class="ft" transform="translate(212,306) rotate(106)">120W</text>
<text x="0" y="0" class="fs" transform="translate(422,314) rotate(94)">90W</text>
<text x="0" y="0" class="ft" transform="translate(422,314) rotate(94)">90W</text>
<text x="0" y="0" class="fs" transform="translate(654,312) rotate(81)">60W</text>
<text x="0" y="0" class="ft" transform="translate(654,312) rotate(81)">60W</text>
<text x="0" y="0" class="fs" transform="translate(844,302) rotate(72)">30W</text>
<text x="0" y="0" class="ft" transform="translate(844,302) rotate(72)">30W</text>
<text x="0" y="0" class="fs" transform="translate(833,765) rotate(-4)">30S</text>
<text x="0" y="0" class="ft" transform="translate(833,765) rotate(-4)">30S</text>
<text x="0" y="0" class="fs" transform="translate(883,519) rotate(-6)">0N</text>
<text x="0" y="0" class="ft" transform="translate(883,519) rotate(-6)">0N</text>
<text x="0" y="0" class="fs" transform="translate(830,267) rotate(-4)">30N</text>
<text x="0" y="0" class="ft" transform="translate(830,267) rotate(-4)">30N</text>
<text x="0" y="0" class="fs" transform="translate(688,78) rotate(-8)">60N</text>
<text x="0" y="0" class="ft" transform="translate(688,78) rotate(-8)">60N</text>
<path class="tb" d="M127,998h-2l-1,-1h-2l-1,-1h-2l-1,-1h-2v-1h-3v-1h-2l-1,-1h-2v-1h-2l-1,-1h-2v-1h-2v-1h-2l-1,-1h-2v-1h-2v-1h-2v-1h-2v-1h-2v-1h-2v-1h-2v-1h-2v-1h-2v-1h-1l-1,-1h-1v-1h-2v-1h-2v-1h-1v-1h-2v-1h-1l-1,-1h-1v-1h-2v-1h-1v-1h-2v-1h-1v-1h-1l-1,-1h-1v-1h-1v-1h-1l-1,-1h-1v-1h-1v-1h-1v-1h-2v-1h-1v-1h-1v-1h-1v-1h-1l-2,-2h-1v-1h-1v-1h-1v-1h-1v-1h-1v-1h-1v-1h-1v-1h-1v-1h-1v-1h-1v-1h-1v-1h-1v-1h-1v-2h-1v-1h-1v-1h-1v-1h-1v-1l-1,-1v-1h-1v-1h-1v-1l-1,-1v-1h-1v-1l-1,-1v-1h-1v-1l-1,-1v-1h-1v-2h-1v-2h-1v-1l-1,-1v-1l-1,-1v-1l-1,-1v-2h-1v-2h-1v-3h-1v-2h-1v-4h-1v-3h-1v-5h-1v-6l-1,-1v-17h1v-7h1v-4l1,-1v-3h1v-3h1v-3h1v-2l1,-1v-2h1v-2h1v-2h1v-2h1v-2h1v-2h1v-2h1v-1h1v-2h1v-1h1v-2h1v-1h1v-1l1,-1v-1h1v-1h1v-1l1,-1v-1h1v-1h1v-1h1v-1h1v-1h1v-1h1v-2h1v-1h1v-1h1v-1h1v-1h1l3,-3h1v-1h1v-1h1v-1h1v-1h1v-1h1v-1h1l1,-1h1v-1h1v-1h1v-1h1l1,-1h1v-1h1v-1h2v-1h1v-1h1v-1h2v-1h1v-1h2v-1h1v-1h2v-1h1l1,-1h1v-1h2v-1h1l1,-1h1v-1h2v-1h2v-1h2v-1h1l1,-1h1l1,-1h1l1,-1h1l1,-1h1l1,-1h2v-1h2v-1h2v-1h2l1,-1h2v-1h2v-1h2l1,-1h2v-1h3v-1h2l1,-1h2v-1h3v-1h3v-1h159v1h3v1h3v1h2l1,1h2v1h3v1h2l1,1h2v1h2v1h2l1,1h2v1h2v1h2v1h2l1,1h1l1,1h1l1,1h1l1,1h1l1,1h1v1h2v1h2v1h2v1h1l1,1h1v1h2v1h1l1,1h1v1h2v1h1v1h2v1h1v1h2v1h1v1h1v1h2v1h1v1h1l1,1h1v1h1v1h1v1h1l1,1h1v1h1v1h1v1h1v1h1v1h1v1h1l3,3h1v1h1v1h1v1h1v1h1v2h1v1h1v1h1v1h1v1h1v1h1v1l1,1v1h1v1h1v1l1,1v1h1v1h1v2h1v1h1v2h1v1h1v2h1v2h1v2h1v2h1v2h1v2h1v2l1,1v2h1v3h1v3h1v3l1,1v4h1v7h1v17l-1,1v6h-1v5h-1v3h-1v4h-1v2h-1v3h-1v2h-1v2l-1,1v1l-1,1v1l-1,1v1h-1v2h-1v2h-1v1l-1,1v1h-1v1l-1,1v1h-1v1l-1,1v1h-1v1h-1v1l-1,1v1h-1v1h-1v1h-1v1h-1v2h-1v1h-1v1h-1v1h-1v1h-1v1h-1v1h-1v1h-1v1h-1v1h-1v1h-1v1h-1v1h-1l-2,2h-1v1h-1v1h-1v1h-1v1h-2v1h-1v1h-1v1h-1l-1,1h-1v1h-1v1h-1l-1,1h-1v1h-1v1h-2v1h-1v1h-2v1h-1l-1,1h-1v1h-2v1h-1v1h-2v1h-2v1h-1l-1,1h-1v1h-2v1h-2v1h-2v1h-2v1h-2v1h-2v1h-2v1h-2v1h-2l-1,1h-2v1h-2v1h-2l-1,1h-2v1h-2l-1,1h-2v1h-3v1h-2l-1,1h-2l-1,1h-2l-1,1h-2Z"/>
<path class="tl" d="M169,986h1v1h-3l-1,-1h2v-1ZM114,989h-3l-1,-1h2l1,1ZM176,983h1l1,1v1h1l-1,1h-2l-1,1h-1l-1,-1l1,-1v-2h1v-1ZM124,980h2v1h-1ZM122,980l1,1h-1l-1,-1ZM136,977h1h-2ZM156,974v1l1,1h-5v-1l1,-1v-1l-1,-1l1,-1v1h1l1,1ZM158,964v1h-2v2h1l-2,2v1h1l1,1h1l4,4v1l1,1v1h-1v2h-1l-1,1h-1v1h-2l1,1h1v1h-2l1,1h1v1h3l1,1h3l1,1h3l1,1h1l1,1v-1h1v-1h2l2,-1l1,1h1v-1h4v-1h3l1,-1h-1v-1h-4l-1,-1l1,-1h1l2,-2h4l1,-1h1l2,-2h-1v-1h1v-1h2v-1l1,-1h1v1h1v-1h8v-1h3v-1h1l1,1h2v-1h1v1l1,-1h4v1h6v-1h3v-1h2v1h3l1,-1h3v-1h2l1,-1h2l1,-1h4v1h1v1h1l1,1h1l1,-1l1,1h2v1l-2,2h-1v1h1h-1v1h-1v1h2l2,-2h1v-1h3l1,-1h1v-1h2l1,-1h5v-1h1v1h5v1h1l1,-1l1,1l1,-1h1l2,-1v1l1,1h3l1,-1h2v1h1v1h4l1,-1v1h9l1,-1l-1,1v1h-1h3l1,1h2l-1,1v1h1v1h2v1h1v2h2l1,1v1h-1l-1,1h-2l-1,1h-3l-1,1h-2l-1,1h-2l-2,2v1h-5l-1,1h-2v1h-1v3h2l-11,4h-155l-11,-4h-1h2l1,-1l1,1h14l-1,-1h-7v-1h-2v-1h-3l-1,-1h4v-1h-2l-1,-1h-7l-1,-1l-2,-1l1,1l1,-1l2,1v-1h1v-1l-1,-1h-1h2v-1h2v-1h4l1,-1h5l1,-1l1,1v-1h1l1,1h1v-1l1,1h6v-1h-2l-1,-1h-1l-1,-1h4l1,1h1l1,-1h3l-1,-1h1l1,1l1,-1l1,1h3v-1l1,1h4v-1h2l1,-1v-1h-1v-1h-1v-1h-1v-1h-1v-2l-1,-1v-1h1v-2h1v-1h1v-1h1l1,-1l1,1ZM144,951l2,1h1v1h-1v-1v1h-4l-2,-2l-2,-1l2,1h2v-2h1v1ZM151,947h1v1h-2v1l-1,-1l1,-1ZM269,946h-1v-2h1l1,1ZM345,939v1h1l1,-1v1l-3,3v-1l-1,1h-1l1,-1v-1l1,-1v-1ZM368,943v1l1,-1v1h-1l-3,3h-1l-1,1h-1l-2,2h-2v1h-1v-1h-1v-1l4,-2h1l1,-1h2l2,-2h1l2,-2ZM376,936l-1,2l1,-1l-1,1l1,1h1l-2,2h-1l-2,2l-2,1h-1l2,-1v-2l1,-1l2,-1v-1l1,-1v-3l1,-1v1l1,1ZM382,913l-1,1v-2l-1,-1v-1h1v1l1,1ZM397,906v1l-1,1h-1v-1l1,-1v1ZM398,906h-1v-1h1l1,-1v1ZM10,905v-1ZM386,904v-1ZM386,901v2h-1v-1ZM259,895v2l1,1h-1v1v-1v2h-1v3l-3,6v2h-1l-1,1l-1,-1h-1v-5h1v-2l1,-1h-1v-3h1v-1h1l2,-2h1v-1l1,-1v-1l1,-1v1ZM361,898v1h1v1h1l-1,1v2h1l-1,2v1l2,2v4h1l-1,2l1,1v3l-1,1v2l-3,3v1l-1,1l-1,2h-1l-1,2h-1l-4,4v1h-2l-1,1h-1l-1,1v-1h-1l1,-1h-1l-1,1h-1v-1h-1v-3h1l-1,-1v-1l1,-1l-1,1h-1l3,-3l-2,1h-1l-1,2v-4l-2,-2h-2l-1,1h-4l-2,2h-4l-1,1v-1l-1,1h-2v-1h-1l1,-1v-1h1v-3l1,-1v-7l1,1v-3l1,-1v-1l1,-1l-1,1l2,-2h1l1,-1h2l1,-1h2v-1h1l1,-1v-2l1,-1v2l1,-1v-1h1v-1l2,-2h2v1h2v-2h1l1,-1v-1h2v-1h-1h1l1,1h3l1,1h-1v1h-1v1l-1,1v1l2,2v1h1l1,1h1v-1l1,-1v-1l1,-1v-3l1,-1v-2h1v-1v3l1,1Z"/>
<path class="tl" d="M383,894h-1v-1v1ZM337,892l-2,-1h2ZM381,893h-1v-1h1ZM382,892v-1l-1,-1h1ZM341,892h-1l3,-3h2l-1,1h-1l-1,1ZM335,889h1v1h-3l1,-1ZM340,889v1h-3v-1h2ZM381,890v1l-2,-2h1v1ZM378,889v-1h-1v-1l1,1ZM325,887h2v-1l2,1v1h2l1,1l-1,1l-1,-1h-4l-1,-1h-1l-2,-1h-1l1,-2h1l1,1ZM353,886v1v-2ZM377,888h-1v-2l-1,-1h1v2h1ZM373,885l-1,1h-1l-1,1l-1,-1h-1l1,-1l1,1v-1h2v-2h1v1ZM345,882h-1v-1h1ZM349,881v2l-1,-1h-2v-1h2ZM374,884l-1,-1v-1l-1,-1h-1h2v2h1ZM353,878v3l2,1v-2l2,-1h1l1,1h1l1,1l4,2v1h1v1l2,1v1h-1v1l1,1v2h1v1h1h-1l1,1l-1,1v-1h-2l-1,-1v-3h-3l-1,1v1h-2l-2,-2v1h-2l1,-2h1l-1,-2v-1l-2,-1h-1l-1,-2l-1,1l-1,-1h1l-1,-1l1,-1h-1v-1h-1l-1,-1h2v-1ZM343,875l-1,1h-4v1l1,2v-1h2l-1,1h-1l1,2v1l1,2v1h-1v-2l-1,1v-1l-1,-1l1,-1h-1v4h-1v-3h-1v-1l1,-1v-4h1v-1h4l1,-1ZM347,875v1h-1v1l1,1h-1v-4h1ZM321,885h-1l-2,-2v-1l-2,-2l-1,-2v-2l-1,-1v-1l-4,-4v-1h2l3,3l1,2h1l2,2h1l-1,2h1v1l1,1h1v3ZM335,874l1,1h-1v3l-1,1v1l-1,3v-1l-1,1l-1,-1h-1v-1l-1,1l-1,-1h-1l-2,-4v-2l1,-1h2v-2h2v-1l1,-1v-1h1l1,-1v-2h1v1l2,2v1h-1l-1,2l1,1ZM344,864v3l-1,-1v2l-2,-2h1l-1,-1v1l-1,-1l-1,1v-1l1,-1h2v-1h1v-1l1,1ZM294,868h-1v-1l-1,-2l1,-2l1,1v1l1,1v1ZM137,863h-1l1,-1h1ZM341,861v1l-1,1l-1,-1l1,-1v-1v1l1,-1ZM335,863l-1,1v-1l1,-1v-1l1,-1v1l-1,1ZM338,859h2v1l-1,1v-1h-1ZM342,858l1,2h-1v1v-1h-1v-1h1h-1v-1ZM338,857l-1,1l-1,-1h1ZM336,849h1v6h1l2,1v2l-1,-1v-1v1l-1,-1h-2v-1h1h-1l-1,-1v-5ZM133,851v1h-1v-1ZM121,852h-1v-1h2v1ZM126,849h3v1h1v1h-2l-1,1v-1h-1v-2h-1ZM324,849l-1,1h-1v-2l1,-1h1v1ZM37,846v-2h1v2ZM38,844h-1v-1h1ZM119,845h2l1,1v1h1v1h2l-1,1h-3v-1h-1v-2h-2l-1,-1h-1h1h-2l-1,1h-1l2,-2h3ZM122,843h-1v-1l1,-1v1ZM334,843v1l-2,-2v-2l1,-1l1,1ZM122,839l-1,1v-1ZM123,839v1v-1h-1ZM340,825h1v1h-1v1h-1v-2ZM240,828l-2,2v-1h-1h2ZM229,828v1h-1ZM220,825v2h-1l-1,-1h-1v-1h2ZM214,821v3h-1v-3ZM344,820v1l1,1v1l-1,1h-1l-1,2l-1,-1v-1l-2,1l-1,1h-1l2,1v3l-1,-1v-1h-1l-1,-1l1,-1v-3h3v-3l1,1v-2h1l-2,-4v-1l3,3v1ZM214,820v1l-1,-1v-1l1,-1ZM340,810l1,-1l1,2h-1v2l-2,-1l1,2h-1l-1,-2l-1,-1h1l-1,-2l-1,-1l3,1ZM144,812l1,1h1h-2ZM147,809h-1l-1,-1h1ZM92,806h-1l-1,-1v-2h-1v-1h1l1,1v1l1,1ZM153,807l-1,1h1v1h2l-1,1h1v1l-1,2l-1,-1l1,-1l-2,1v-1h-3l1,-1h-1l4,-4h1Z"/>
<path class="tl" d="M90,797h1l-2,2v1v-3ZM332,800l3,3l-2,-1l1,2l2,2v1l-2,-2l-1,-2l-6,-6v-1h-1h1l3,3ZM198,806l-1,1h-2l1,-2v-1l2,-2h1v3ZM216,801l-1,2l-1,-1v-1h1ZM79,791h-1v-1h2ZM202,797l-1,2h2v1l-1,1h1l2,4h1v1l-1,1h1l-1,1h-3l-1,1h-2l2,-2h-1v-1h1l-1,-1v-1h2l-1,-1h-1v-2l-1,-1l1,-2v-1l1,1ZM75,786h-1v-1h1ZM141,790l-1,1v-1ZM139,790h-2l1,-1h1ZM78,780v1h1h-2v-1ZM139,786h1v1h1l-1,1h1l-1,1l-1,-1h-1l-2,1l1,-1h-1h1l1,-1l1,-2ZM193,787v1l1,1l-1,1h-3l-1,1l-1,-1h-2l1,-1h-1h1v-1h-2l1,-1h1l1,1l2,-1h2ZM147,784h-1l1,-1h2l-1,1ZM81,776v1l1,-1h2l-1,2h-3l-1,1h-1l-1,-1h1v-1h-1h1h-2l-1,1l8,-5v1l-1,2ZM135,780l-1,1v-1h-1l1,-1h1ZM322,771h-1ZM88,771h-1h2ZM139,780l-1,2l2,-1v1h-1v1l1,-1l2,-1l1,-1h2v2h-1v1l-1,1l-2,1h-1v-1l-1,1l-2,1v1h-3l-2,2h-1l-1,1l-2,1l-1,1l-1,2h1l-1,1v1h1l3,3l2,1h1l-2,2v2l1,1h1l2,-4h-1l4,-2v-1l1,-1v-1l-1,-1l2,-1l2,-4l1,1h1l1,-1v1l1,1h1v2l-1,1l1,1h2l1,-2h1v3l1,1l-1,1l1,1v1h1l1,1v1l1,1l-2,2h-2l-2,2h-1l-2,-1h-2l-2,1l-1,1l-2,1l-1,1l2,-1l3,-1h2l-1,1l-1,2v1l1,1l2,-1l1,-1v1h1l-4,2h-1l-2,1v-1l2,-1h-3v1h-1l-1,1h-1l-2,2l1,1v-1v1h-3l-1,1l2,-1v1h-2l-2,2v1l-1,1l-1,-1l1,-1l-1,1v4l-1,1h-1l-1,1h-1l-3,3h-1v8l-1,1h-1v-3l-1,-1l1,-1l-1,-2l-1,1l-1,-1h-4v1h-1l-1,-1l-1,1l-1,-1l-2,2h-2v1h-1v3l-1,1v1l-1,2v4l1,1v1h1v1l1,-1h3v-1l1,-1v-1l1,-1h3v1l-1,1v2l-1,1v-1v2l-1,1v1h5v1h1v1l-1,1v3l-1,1h1v2h1v1h2l1,-1h1v1h1l1,1l1,-1v-2l1,-1h2l2,-2v2h-1h1v1l-1,1v1h1v-3h1v-1h1v1h1v1h3l1,1l1,-1h1l1,1h1v1l1,1h1v1h1v1l1,1l2,1v-1h1l1,1h1l1,1v1h1v1l1,2v1l-1,1l1,1h2v1v-1l4,2v1h1l3,1h1l2,1l2,2h2v5l-1,1l-1,2l-2,2v9l-1,2v2h-1v1h-2l-1,1h-1l-3,3v5l-1,2l-2,2v2l-2,2v-1l-1,1l-1,-1h-1v-1v1l1,1v1l1,1v2l-2,1h-3l1,1v2l-1,1l-1,-1h-1l1,2h2l-2,2l1,1v1h-1l-1,1v1l2,1h1v1l-1,1v2h-1v1l2,2h-1l-1,1v1h-1l-2,-1l-3,-3l-1,-3v-1l1,-1h-2l1,-2l-1,-2h1v-2l-1,-1v2l-1,-2v-4l-1,-1l-1,-2h1v-6l-1,-2v-8l-1,-2v-6l-1,-2l-1,-1l-2,-1l-3,-2l-1,-1v-1l-1,-2l-1,-3l-2,-3l-2,-2v-1l-1,-2l2,-2v-1h-1v-3l1,-1v-1h1v-2h1l1,-1v-5l-1,-1v-2h-1v1h-1v1h-1l-1,-1h-2v-2h-1v-1v1h-1v-3l-2,-2h1h-2v-1h-2l-1,-1l-1,-2h-1l-1,-1v1h-2l-1,-1h-2l-2,-2h-1l-1,-1v-1h-1v-3h1l-1,-1v-3l-1,-1v-1l-1,-1v-3h-1v-5l-1,-1l-1,1v4h1l-1,1h1v5h1v2h-1v-1l-1,-1v-3l-1,-1v1v-1h-1v-1h1v-9h-1v-1h-1v-9l2,-2v-1l1,-2l2,-2l1,-2l1,-1v-1h1v1l2,-2h-1v-2l-1,-1v-1l1,-1l-1,-1l1,-1v-1l1,-1l-1,-1l1,-1v-1l1,-1l-1,-1h-1v-2h-1v-1h-1l-1,-1h-1l-1,1h-4l1,-1l2,-1h-1l-1,1l-2,1h-1l-1,1l-2,1h-2l-2,1h-1l-1,1h-3l-1,1h-2l1,-1h2l2,-1h2l2,-1h1l2,-1l1,-1h-3l1,-1l-1,1h-1l2,-2h-1v-1l2,-2l2,-1h3l1,-1h1l1,-1h-3v-2h4l1,1l1,-1v-3h4l1,-1h2l2,-1l1,1l1,-1h1l-1,1h1l1,1h2l1,1h2v1l1,1l1,-1h6l1,-1v2l2,-1l-1,1h2l1,1h2v1l-2,1h4v1l2,-2h2v1h1l1,1h2v-1h1l1,1l-1,1l1,-1h1l1,-1v-2l1,-1l2,-1l1,1l-2,2Z"/>
<path class="tl" d="M128,774l-1,1h4l-1,1h1l2,-2v1l-1,2v1l1,1h-2v1h-8v-1h-1v-1h4l-1,-1h-3l2,-1h-1l1,-1h1ZM135,774l-2,1v-1h1ZM152,776v1l-1,-1l-1,1v-2h2ZM146,776v1l1,-1l2,-1v2h3l1,1l-1,1l2,-1v1l1,1v2h-1l2,2v1h1v1l-2,1h-1l-1,-2l-1,1v1l1,1v2l-1,1l-2,-2v1l1,1h-2l-2,-2v-1l-1,-1v1h-3v-1l1,-1h3l1,-1l2,-1v-1l-1,-1h-1l1,-1l-1,-1h-5l-1,-1h-1l1,-1h-1l1,-1l2,-1l1,-1h2ZM138,774h2l-1,1h-1l1,1l-2,1h-2v-2l1,1v-1ZM298,772h-2v-1ZM141,776l-2,1v-1l2,-2h2l1,1l-2,1ZM122,776h-2l-1,-1h1l2,-1l2,-2h2v1h2v1h-1l-3,1h-2ZM299,769v1h-3v-1h1ZM143,773v1l-1,-1h-1l1,-1h1l1,1ZM295,769l1,1h-2l-1,1l-2,-1l-1,-1h2ZM143,771h-1v1l-1,1h-2l1,-1h-1l1,-1h2ZM136,771h1v1h-4l-2,1h-1l1,-1h-1l-1,-1l2,-1h1l2,1l1,1v-2h2ZM246,780h-3l-2,-1v-1l1,-2h-1l1,-1l-1,-1h1l4,-2h2l-1,1l-2,1l-1,1v2l-1,1l1,1ZM145,770l1,1h1l-1,1h1l1,1h4v1h-7l-1,-1l1,-1v-1h-2l1,-1ZM134,769l-2,1h-4l2,-1h3ZM271,770l1,1v-1h2l2,1h1v1l-1,1h1l2,1v-1l1,1l1,-1h2l1,1h3l-2,-1h5l1,1v1h2l2,1l-1,-1h1l1,-1l2,1v-1h1l-2,-1h8l3,1l1,-1h2l2,2h2v-1h3l3,1v-1h-2v-1h7l8,5h-1l1,1l2,1h2v1h-1v1h-1l1,1v2l-2,-1v2l-1,-1v1h-1l2,2v1h1l3,2h-1l1,1h1v1l1,2h-1l1,2l1,1l-4,-2l-4,-3l-1,-2l-1,-1v-3l-1,-2v-1l-2,-2l-1,1l2,2l-3,-1l-1,1l1,2l1,1h-1l-1,1l-1,-1h-1v1h-4v7h1l2,1h1l-1,-1h1l3,1l1,2l1,1l1,2l2,2v9h-1l-1,-1v2h-1v1l1,1v1h-1v1l1,1h1l2,2v1l1,1v1l-1,1h-1l-1,-2l-1,-1h1l-2,-1v-1v1v-1h-1v-1l-1,-1h-2v1h-1l-1,-1l1,-1l-1,-1l-1,1v2h-1v1l2,2h1v-1h2l1,1l-2,1v2l2,2l1,2l2,1v2h1v6l-2,4l-1,1h-1v1l-1,-1v1l-2,1h-1v2l-1,-1v-1h-2l-1,2v2l1,1l1,2l2,2l1,3v4l-2,1v1l-2,1v-2l-1,-1h-1v-1l-2,-2h-1v-1h-1v6h1v3l1,1h1v1h1v1l1,1v3h1v2h-1l-2,-2v-1l-1,-1v-1l-1,-1v-2l-1,-1v-1h-1v-6l-1,-1v-1l-1,-2v-2l-1,-1l-2,2h-1v-3l-1,-2v-1h-1l-2,-2v-1l-1,-1h-1v2l-1,-1v1h-2v2l-2,1l-1,2v1l-2,2h-1v8l-1,1l1,1h-1l-1,1l-1,-1l-1,-2v-1l-1,-1v-1l-1,-2v-1l-3,-6v-3l-2,1h-1l-1,-2v-1l-2,-1l-1,-1v-1l-1,-1l-2,1h-5l-1,-1h-2v-2h-1l-1,1h-2l-3,-3l-1,-2l-1,1v-1l-1,1v2l1,1h1l1,1v2l1,1l-1,-1l1,-1v2h1v1l1,-1h2v-1l1,-1v-1v2l2,2h1l2,2l-1,1v1h-1v3h-1v1h-1v1h-2v1h-1l-2,2h-1l-2,2v-1l-1,1h-2v1h-2v-2l-1,-1v-3h-1v-1l-1,-1v-1l-1,-1h-1v-1l-1,-1v-3h-2v-2l-1,-1v-1l-2,-2v-1v1l-1,1l-1,-1l-1,-2l1,2l1,1l1,2v1l2,2h-1l2,2v1l1,1h-1l1,2v1l1,1l1,2v1l1,1l2,1v1h1v1h1v1l-1,1h1l1,1h3l1,-1h3v-1h1v2l-1,1v3l-1,1l-3,6l-1,1l-2,1l-1,1l-1,2v1h-1v1h-1v2l-1,1l-1,2l1,1v4l1,1v7l-1,1h-1l-3,3h-1v1l-1,1v2h1l-1,1h1v1l-1,1h1l-1,1h-1l-2,2v3l-3,3v1l-2,1v1l-1,1h-2v1l-1,-1v1l-1,-1l-1,1h-2l-1,1l-1,-1h-1v-5l-1,-1v-2l-1,-1v-1l-1,-1v-5l-1,-1v-1l-1,-2v-1l-1,-1v-3l1,-1v-3h1v-1l1,-1v-1h-1v-5l-1,-1v-2l-3,-3l-1,-2l1,-1v-5l-1,-1v-1l-1,1h-2l-1,-1v-1l-1,-1h-2l-1,1h-2l-1,1h-6l-1,1l-4,-4h-1l-1,-1v-1l-1,-1v-1h-1v-1l-1,-1v-1h-1v-3h-1l1,-1v-1h1l-1,-1l1,-1v-4l-1,-1v-1h1v-2l1,-1v-1h1v-2h1l1,-2h1l2,-2v-3l3,-3l1,-2v-1h1l1,1h2l1,-1h2l1,-1h4l1,-1h1v1h1l1,-1h1v1l1,-1v1h-1v1h1v2h-1v1h1v1h3l2,2h1l2,2l1,-1v-2l1,-1h2l1,1h1l1,1h2l1,1h1v-1h2l1,1v-1h1l1,1v-2l1,-1v-5h-2l-1,1l-1,-1h-2v1l-1,-1h-2v-1l-1,-1v-2l1,-1h1v-1h2l1,-1h1l2,-1l2,1l1,1h2l1,-1v-2h-1l-2,-2h-1l-1,-1l1,-1l-1,-1h2l-1,-1v1h-2l-1,1v1h1l-1,1h-1v-1h-1l1,-1h-2v-1h-1v1l-1,1v1h-1v4l1,1h-2v1h-1v-1h-2l1,1h-2v1l1,1h-1h1l1,1v1l-1,-1v1h-1l1,1h-2v-2l-1,-1v-1h-1v-3h-1v-1h-1l-1,-1h-1l-1,-1v-1l-1,-1v1v-1h-2v1l2,2v1l1,1h1l1,1h1l1,1v1l-1,-1h-1v1h1v1h-1v1h-1v-1h1l-1,-1v-1h-1l-1,-1h-1l-2,-2l-1,-2h-2v1h-4l-1,1v2h-2v1l-1,2h1l-1,1v1h-1l-1,1h-2l-1,1l-2,-2v1h-2l1,-1v-1h-1v-2l1,-1v-3l-1,-1l2,-1l1,1h5v-4l-1,-1v-1h-2v-1h3v-2l1,1l2,-1v-1h1l1,-1l1,-2l1,-1h2v-5h2l-1,1h1v1l-1,1v1h1v1l1,-1h2v1h1l2,-2l1,1h1v-1h1v-3l1,-1l1,1v-1l-1,-1v-1h4l1,-1h-4l-1,1l-2,-2v-4l2,-1v-1l-1,-1l-2,2l-1,2l-1,1v3h1v2h-1v2l-1,2h-1v1h-1v-2l-1,-1l-1,-2l-1,-1l-1,2h-1l-2,-1v-5l2,-1l3,-3l2,-3l3,-3h2l1,-2h3l2,1l-1,1h2l1,1h3l3,1l1,1v1l-1,1h-1l-3,-1h-1l2,1v2l1,1h1v-1h-1l1,-1l2,1v-1l1,-2h1l1,1v-1l-1,-1v-1l-1,-1l2,1h1l-1,1l1,1h1v-1l1,-1l2,-1h1v1l1,-1h1l1,-1l1,1l1,-1h-2l1,-1h2l1,1l4,1v-1h-2v-1h-1l-1,-1v-3h2l1,1v1h1l1,1l1,2h1v3l1,1v-1h1l-1,-1l1,-1h-1l-2,-2v-1l-2,-1l1,-1l-1,-1h1l1,2l-1,-1l1,-1h2l1,1l-1,-1l-1,-2h4l-2,-1v-1h1l1,-1h3l1,-1h1v-2l2,1h-1ZM253,820l1,1v2h-1v1l1,1h1l1,1h3l-1,-1v-2h-1v-2h1v-1l-1,-1h-1l1,1l-1,-1v-1h-2v-2h-1h1v-2l1,1v-3h-2l-1,1h-1v1h-1l-1,2l2,1v1l1,1Z"/>
<path class="tl" d="M146,770h-1v-1h1l1,1ZM137,769h-2l1,-1h1l1,1ZM220,771l-1,1h-1v-1h-1l2,-1v1ZM139,768h-2l1,-1v1ZM146,769h-1v-1h1l1,1ZM144,769h-1l-1,-1h-1h1v-1h1l1,1ZM268,768l-3,1v-2ZM215,769l3,1h-2v3h-1l-2,-1h1l-1,-1l-2,-1v-1l1,-1l1,1h1v-1h1ZM220,768h1l-1,1h-4l-1,-1h3ZM234,767l-1,1h-1v-1h-1h4ZM264,768h-4l-2,-1l-1,-1h1l1,-1l4,2ZM153,767v1h-1l-2,1h-2v-1h1h-1v-1l1,-1h2v-1h1v1h1ZM167,764h3v1h-3l-1,1h-1l-1,1l-2,1h-3v1h-1v1h-2l-2,1h1l-2,1h-4l-1,-1h2v-1h2v-1h-1h1l1,-1h1l-1,-1h4l-1,-1h-3v-1l1,-1h6v-1h3v1l2,-1l1,1ZM190,764l3,1h-6v1h5l-1,1l2,-1h4v1l-2,1h-1l-2,2v2l1,1h-2l1,1l-1,1v1h-1l1,1h-3l1,1v1l-1,-1l-1,1h1l1,1v1h-2l-1,-1v1l-1,1h3l-4,2h-3l-1,1l-4,2h-1l-2,1h-1v1l-2,2v1l-1,1l-1,2h-1l-1,-1h-1l-1,-1v-2l-1,-1v-1l1,-1l-1,-2l1,-1l1,-2h1l1,-1v-1l-1,1h-1v-1l1,-1h1l-1,-1h-1l1,-1v-4l-1,-1h-5v-1l-1,-1h1l-1,-1l1,-1h2l3,-1h1l-2,-1h1l3,-1h1v-1h9l1,1l-1,-1h1l2,-1h3l2,-1Z"/>
<path class="th" d="M114,863v1h2v-1v1v-1h2v1h1v2h-1v-1h1h-1h1h-1v-1h-2l1,1v-1v1h-1v1h-1v-1v1v-1v1h-1v-1h-1v-2ZM114,863v1v-1v1ZM117,865h1Z"/>
<path class="tg" d="M66,970h1l1,-1h4v-1h5v-1h5v-1h6v-1h6l1,-1h7v-1h8v-1h9l1,-1h11v-1h14v-1h20v-1h79v1h20v1h14v1h11l1,1h9v1h8v1h7l1,1h6v1h6v1h5v1h5v1h4l1,1h1M21,927h6v-1h7v-1h8v-1h10v-1h10v-1h12v-1h14v-1h18v-1h23v-1h38v-1h75v1h38v1h23v1h18v1h14v1h12v1h10v1h10v1h8v1h7v1h6M5,877h399M21,826h4v1h7v1h8v1h9v1h10v1h11v1h14v1h16v1h21v1h32v1h103v-1h32v-1h21v-1h16v-1h14v-1h11v-1h10v-1h9v-1h8v-1h7v-1h4M66,783v1h5v1h4v1h5l1,1h5v1h6l1,1h6l1,1h7v1h10v1h10v1h13l1,1h17v1h36v1h21v-1h36v-1h17l1,-1h13v-1h10v-1h10v-1h7l1,-1h6l1,-1h6v-1h5l1,-1h5v-1h4v-1h5v-1M140,755h-1v1h-3v1h-2v1h-2v1h-2v1h-2v1h-2l-1,1h-1l-1,1h-1l-1,1h-1v1h-2v1h-2v1h-2v1h-1l-1,1h-1v1h-2v1h-1l-1,1h-1v1h-2v1h-1v1h-2v1h-1v1h-2v1h-1v1h-1l-1,1h-1v1h-1v1h-2v1h-1v1h-1v1h-1v1h-2v1h-1v1h-1v1h-1v1h-1v1h-1v1h-1l-1,1h-1v1h-1v1h-1v1h-1v1h-1v1h-1v1h-1v1h-1v1h-1v1l-1,1v1h-1v1h-1v1h-1v1h-1v1h-1v1l-1,1v1h-1v1h-1v1h-1v2h-1v1h-1v2h-1v1h-1v2h-1v1h-1v2h-1v2h-1v1h-1v2h-1v2h-1v2h-1v2h-1v2l-1,1v2h-1v2l-1,1v2h-1v3h-1v4h-1v4h-1v5h-1v9h-1v13l1,1v8h1v5h1v4h1v4h1v3h1v3h1v2h1v3h1v2h1v2h1v2h1v2h1v2h1v2h1v1l1,1v1h1v2h1v1h1v2h1v1h1v1h1v2h1v1h1v1l1,1v1h1v1h1v1h1v1l2,2v1h1v1h1v1h1v1h1v1h1v1h1v1h1v1h1v1h1v1h1v1h1v1h1v1h1v1h2v1h1v1h1v1h1v1h1v1h1l1,1h1v1h1v1h1v1h2v1h1v1h1l1,1h1v1h1v1h2v1h1v1h2v1h1l1,1h1v1h2v1h1v1h2v1h2v1h1l1,1h1v1h2v1h2v1h2v1h2v1h2v1h2v1h2v1h2l1,1h2v1h2v1h2M153,755h-1v1h-2v1h-2v1h-1v1h-2v1h-2v1h-1v1h-2v1h-1v1h-2v1h-1v1h-2v1h-1v1h-1v1h-2v1h-1v1h-1l-1,1h-1v1h-1v1h-1v1h-1v1h-1l-1,1h-1v1h-1v1h-1v1h-1v1h-1v1h-1v1h-1v1h-1v1h-1v1h-1v1h-1v1h-1v1h-1v1h-1v1h-1v1h-1v1h-1v1l-2,2v1h-1v1h-1v1h-1v1l-1,1v1h-1v1h-1v2h-1v1h-1v1l-1,1v1h-1v2h-1v1h-1v2h-1v1h-1v2h-1v2h-1v2h-1v2h-1v2h-1v2h-1v2h-1v3h-1v2h-1v3h-1v3h-1v3h-1v3h-1v4l-1,1v4h-1v6l-1,1v30h1v6h1v5h1v4h1v3h1v3l1,1v2l1,1v2h1v3h1v2h1v2h1v2h1v2l1,1v1h1v2h1v2h1v2h1v2h1v1h1v2h1v1h1v2h1v1h1v2h1v1h1v1h1v2h1v1h1v1h1v1l1,1v1h1v1h1v1h1v1h1v1h1v1h1v1l3,3v1h1l3,3h1v1h1v1h1v1h1v1h1v1h1v1h1v1h1l1,1h1v1h1v1h1v1h1l1,1h1v1h1v1h1l1,1h1v1h1v1h2v1h1v1h2v1h1v1h2v1h2v1h1v1h2v1h1l1,1h1v1h2M166,755h-1v1h-1v1h-1l-1,1h-1v1h-1v1h-1v1h-1v1h-1v1h-1l-2,2h-1v1h-1v1h-1v1h-1v1h-1v1h-1v1h-1v1h-1v1h-1v1l-2,2v1h-1v1h-1v1h-1v1h-1v1l-1,1v1h-1v1h-1v1h-1v2h-1v1h-1v1l-1,1v1h-1v1h-1v2h-1v1h-1v2h-1v2h-1v1h-1v2h-1v2h-1v2h-1v1l-1,1v1l-1,1v1l-1,1v2h-1v2h-1v2h-1v3h-1v2h-1v3h-1v3h-1v3h-1v3h-1v4h-1v4h-1v5h-1v6h-1v8h-1v30h1v7l1,1v5h1v5h1v4h1v4h1v3h1v3h1v3h1v3h1v3h1v2h1v2h1v2l1,1v2h1v2h1v2h1v2h1v1h1v2h1v2h1v2h1v1h1v2h1v1h1v2h1v1l1,1v1h1v1h1v2h1v1h1v1h1v1l1,1v1h1v1h1v1h1v1l1,1v1h1v1h1v1h1v1h1v1h1v1h1v1h1v1h1v1h1v1h1v1h1v1h1v1h1v1h1v1h1l2,2h1v1h1v1h1v1h1v1h2v1h1"/>
<path class="tg" d="M179,755h-1v1h-1v2h-1v1h-1v1h-1v1h-1v2h-1v1h-1v1l-1,1v1h-1v1l-1,1v1h-1v1l-1,1v1h-1v2h-1v1l-1,1v1h-1v2h-1v2h-1v2h-1v2h-1v2h-1v2h-1v2h-1v2h-1v2l-1,1v2h-1v2l-1,1v2h-1v3h-1v3h-1v3h-1v3h-1v4h-1v4h-1v4h-1v4h-1v5l-1,1v5h-1v8h-1v11h-1v29l1,1v10l1,1v7h1v6h1v5h1v4l1,1v4h1v3l1,1v3h1v3h1v3h1v3h1v3h1v3h1v2h1v3h1v2h1v2h1v2l1,1v2h1v2h1v1l1,1v1l1,1v1h1v2h1v2h1v1l1,1v1h1v2h1v1h1v2h1v1h1v2h1v1h1v1l1,1v1h1v1h1v1h1v2h1v1h1v1h1M192,755h-1v3h-1v2h-1v3h-1v3h-1v3h-1v3h-1v3h-1v3l-1,1v3h-1v4h-1v4h-1v4l-1,1v4h-1v5h-1v6h-1v6l-1,1v7h-1v8h-1v11l-1,1v18h-1v29l1,1v18h1v11h1v8l1,1v7h1v6h1v6h1v5h1v5h1v4h1v4h1v4h1v4h1v3h1v3l1,1v3h1v2l1,1v2h1v3h1v3h1v2h1M205,755v243M217,755h1v3h1v2h1v3h1v3h1v3h1v3h1v3h1v3l1,1v3h1v4h1v4h1v4l1,1v4h1v5h1v6h1v6l1,1v7h1v8h1v11l1,1v18h1v29l-1,1v18h-1v11h-1v8l-1,1v7h-1v6h-1v6h-1v5h-1v5h-1v4h-1v4h-1v4h-1v4h-1v3h-1v3l-1,1v3h-1v2l-1,1v2h-1v3h-1v3h-1v2h-1M230,755h1v1h1v2h1v1h1v1h1v1h1v2h1v1h1v1l1,1v1h1v1l1,1v1h1v1l1,1v1h1v2h1v1l1,1v1h1v2h1v2h1v2h1v2h1v2h1v2h1v2h1v2h1v2l1,1v2h1v2l1,1v2h1v3h1v3h1v3h1v3h1v4h1v4h1v4h1v4h1v5l1,1v5h1v8h1v11h1v29l-1,1v10l-1,1v7h-1v6h-1v5h-1v4l-1,1v4h-1v3l-1,1v3h-1v3h-1v3h-1v3h-1v3h-1v3h-1v2h-1v3h-1v2h-1v2h-1v2l-1,1v2h-1v2h-1v1l-1,1v1l-1,1v1h-1v2h-1v2h-1v1l-1,1v1h-1v2h-1v1h-1v2h-1v1h-1v2h-1v1h-1v1l-1,1v1h-1v1h-1v1h-1v2h-1v1h-1v1h-1M243,755h1v1h1v1h1l1,1h1v1h1v1h1v1h1v1h1v1h1l2,2h1v1h1v1h1v1h1v1h1v1h1v1h1v1h1v1h1v1l2,2v1h1v1h1v1h1v1h1v1l1,1v1h1v1h1v1h1v2h1v1h1v1l1,1v1h1v1h1v2h1v1h1v2h1v2h1v1h1v2h1v2h1v2h1v1l1,1v1l1,1v1l1,1v2h1v2h1v2h1v3h1v2h1v3h1v3h1v3h1v3h1v4h1v4h1v5h1v6h1v8h1v30h-1v7l-1,1v5h-1v5h-1v4h-1v4h-1v3h-1v3h-1v3h-1v3h-1v3h-1v2h-1v2h-1v2l-1,1v2h-1v2h-1v2h-1v2h-1v1h-1v2h-1v2h-1v2h-1v1h-1v2h-1v1h-1v2h-1v1l-1,1v1h-1v1h-1v2h-1v1h-1v1h-1v1l-1,1v1h-1v1h-1v1h-1v1l-1,1v1h-1v1h-1v1h-1v1h-1v1h-1v1h-1v1h-1v1h-1v1h-1v1h-1v1h-1v1h-1v1h-1v1h-1v1h-1l-2,2h-1v1h-1v1h-1v1h-1v1h-2v1h-1M256,755h1v1h2v1h2v1h1v1h2v1h2v1h1v1h2v1h1v1h2v1h1v1h2v1h1v1h1v1h2v1h1v1h1l1,1h1v1h1v1h1v1h1v1h1l1,1h1v1h1v1h1v1h1v1h1v1h1v1h1v1h1v1h1v1h1v1h1v1h1v1h1v1h1v1h1v1h1v1h1v1l2,2v1h1v1h1v1h1v1l1,1v1h1v1h1v2h1v1h1v1l1,1v1h1v2h1v1h1v2h1v1h1v2h1v2h1v2h1v2h1v2h1v2h1v2h1v3h1v2h1v3h1v3h1v3h1v3h1v4l1,1v4h1v6l1,1v14l1,1h-1v15h-1v6h-1v5h-1v4h-1v3h-1v3l-1,1v2l-1,1v2h-1v3h-1v2h-1v2h-1v2h-1v2l-1,1v1h-1v2h-1v2h-1v2h-1v2h-1v1h-1v2h-1v1h-1v2h-1v1h-1v2h-1v1h-1v1h-1v2h-1v1h-1v1h-1v1l-1,1v1h-1v1h-1v1h-1v1h-1v1h-1v1h-1v1l-3,3v1h-1l-3,3h-1v1h-1v1h-1v1h-1v1h-1v1h-1v1h-1v1h-1l-1,1h-1v1h-1v1h-1v1h-1l-1,1h-1v1h-1v1h-1l-1,1h-1v1h-1v1h-2v1h-1v1h-2v1h-1v1h-2v1h-2v1h-1v1h-2v1h-1l-1,1h-1v1h-2"/>
<path class="tg" d="M269,755h1v1h3v1h2v1h2v1h2v1h2v1h2l1,1h1l1,1h1l1,1h1v1h2v1h2v1h2v1h1l1,1h1v1h2v1h1l1,1h1v1h2v1h1v1h2v1h1v1h2v1h1v1h1l1,1h1v1h1v1h2v1h1v1h1v1h1v1h2v1h1v1h1v1h1v1h1v1h1v1h1l1,1h1v1h1v1h1v1h1v1h1v1h1v1h1v1h1v1h1v1l1,1v1h1v1h1v1h1v1h1v1h1v1l1,1v1h1v1h1v1h1v2h1v1h1v2h1v1h1v2h1v1h1v2h1v2h1v1h1v2h1v2h1v2h1v2h1v2l1,1v2h1v2l1,1v2h1v3h1v4h1v4h1v5h1v9h1v13l-1,1v8h-1v5h-1v4h-1v4h-1v3h-1v3h-1v2h-1v3h-1v2h-1v2h-1v2h-1v2h-1v2h-1v2h-1v1l-1,1v1h-1v2h-1v1h-1v2h-1v1h-1v1h-1v2h-1v1h-1v1l-1,1v1h-1v1h-1v1h-1v1l-2,2v1h-1v1h-1v1h-1v1h-1v1h-1v1h-1v1h-1v1h-1v1h-1v1h-1v1h-1v1h-1v1h-1v1h-2v1h-1v1h-1v1h-1v1h-1v1h-1l-1,1h-1v1h-1v1h-1v1h-2v1h-1v1h-1l-1,1h-1v1h-1v1h-2v1h-1v1h-2v1h-1l-1,1h-1v1h-2v1h-1v1h-2v1h-2v1h-1l-1,1h-1v1h-2v1h-2v1h-2v1h-2v1h-2v1h-2v1h-2v1h-2l-1,1h-2v1h-2v1h-2"/>
<rect x="102" y="852" width="27" height="24" fill-opacity="0" stroke="#ffffff" stroke-opacity="0.5" stroke-width="5.0"/>
<rect x="104" y="854" width="27" height="24" fill-opacity="0" stroke="#113311" stroke-opacity="0.8" stroke-width="5.0"/>
<rect x="103" y="853" width="27" height="24" fill-opacity="0" stroke="#45a249" stroke-opacity="0.9" stroke-width="5.0"/>
</svg>
