<?xml version="1.0" encoding="UTF-8" standalone="no"?>
<svg xmlns:svg="http://www.w3.org/2000/svg" xmlns="http://www.w3.org/2000/svg" xmlns:xlink="http://www.w3.org/1999/xlink" height="1000" width="1000">
<!-- made with pythonshp (GPL): github.com/sanjayrao77/pythonshp , underlying data may come from naturalearthdata.com -->
<!-- 
COPYRIGHT: THIS SVG FILE IS RELEASED INTO THE PUBLIC DOMAIN
 -->
<!-- 
vars : {
	'cmdline' : 'pythonshp.py publicdomain wiki1 frenchpolynesia locatormap'
	'title' : 'French Polynesia locator'
	'version' : '1.0.5'
}
 -->
<defs>
	<radialGradient id="watergradient" cx="500" cy="500" r="500" fx="500" fy="500" gradientUnits="userSpaceOnUse">
		<stop offset="0%" stop-color="#70add3"/>
		<stop offset="11%" stop-color="#6eaad0"/>
		<stop offset="22%" stop-color="#6ca7cc"/>
		<stop offset="31%" stop-color="#6ba5c9"/>
		<stop offset="41%" stop-color="#69a2c6"/>
		<stop offset="51%" stop-color="#679fc2"/>
		<stop offset="59%" stop-color="#669dbf"/>
		<stop offset="67%" stop-color="#649abc"/>
		<stop offset="75%" stop-color="#6297b9"/>
		<stop offset="81%" stop-color="#6095b6"/>
		<stop offset="87%" stop-color="#5f92b2"/>
		<stop offset="92%" stop-color="#5d8faf"/>
		<stop offset="95%" stop-color="#5b8dac"/>
		<stop offset="98%" stop-color="#598aa8"/>
		<stop offset="100%" stop-color="#5685a2"/>
	</radialGradient>
	<radialGradient id="landgradient" cx="500" cy="500" r="500" fx="500" fy="500" gradientUnits="userSpaceOnUse">
		<stop offset="0%" stop-color="#dddddd"/>
		<stop offset="11%" stop-color="#d7d7d7"/>
		<stop offset="22%" stop-color="#d1d1d1"/>
		<stop offset="31%" stop-color="#cccccc"/>
		<stop offset="41%" stop-color="#c6c6c6"/>
		<stop offset="51%" stop-color="#c0c0c0"/>
		<stop offset="59%" stop-color="#bbbbbb"/>
		<stop offset="67%" stop-color="#b5b5b5"/>
		<stop offset="75%" stop-color="#afafaf"/>
		<stop offset="81%" stop-color="#aaaaaa"/>
		<stop offset="87%" stop-color="#a4a4a4"/>
		<stop offset="92%" stop-color="#9e9e9e"/>
		<stop offset="95%" stop-color="#999999"/>
		<stop offset="98%" stop-color="#939393"/>
		<stop offset="100%" stop-color="#888888"/>
	</radialGradient>
	<radialGradient id="bordergradient" cx="500" cy="500" r="500" fx="500" fy="500" gradientUnits="userSpaceOnUse">
		<stop offset="0%" stop-color="#444444"/>
		<stop offset="11%" stop-color="#3f3f3f"/>
		<stop offset="22%" stop-color="#3a3a3a"/>
		<stop offset="31%" stop-color="#363636"/>
		<stop offset="41%" stop-color="#323232"/>
		<stop offset="51%" stop-color="#2d2d2d"/>
		<stop offset="59%" stop-color="#292929"/>
		<stop offset="67%" stop-color="#242424"/>
		<stop offset="75%" stop-color="#1f1f1f"/>
		<stop offset="81%" stop-color="#1b1b1b"/>
		<stop offset="87%" stop-color="#161616"/>
		<stop offset="92%" stop-color="#121212"/>
		<stop offset="95%" stop-color="#0e0e0e"/>
		<stop offset="98%" stop-color="#090909"/>
		<stop offset="100%" stop-color="#000000"/>
	</radialGradient>
</defs>
<style type="text/css">
<![CDATA[
.c2 {stroke:#45a211;fill-opacity:0;stroke-width:2}
.fs {font:14px sans;stroke:#ffffff;stroke-width:2px;stroke-opacity:0.8;text-anchor:middle}
.ft {font:14px sans;fill:#000000;fill-opacity:1;stroke-opacity:0;text-anchor:middle}
.sb {stroke:url(#bordergradient);fill-opacity:0}
.sg {stroke:#000000;fill-opacity:0.0;stroke-opacity:0.2}
.sh {fill:#45a211;stroke:#000000}
.sl {fill:url(#landgradient);stroke:url(#bordergradient)}
.sp {stroke:url(#landgradient);fill-opacity:0}
.sr {stroke:url(#watergradient);fill-opacity:0}
.sw {fill:url(#watergradient);stroke:url(#watergradient);stroke-opacity:0.8}
.tb {fill:#eeeeee;stroke:black;stroke-width:2}
.tg {stroke:black;stroke-opacity:0.2;fill-opacity:0}
.th {fill:#45a211;stroke:#378100}
.tl {fill:#aaaaaa;stroke:black}
.w2 {stroke:#ffffff;fill-opacity:0;stroke-opacity:0.6;stroke-width:2}
.zh {fill:#45a211;stroke:#115511}
.zl {fill:#dddddd;stroke:#444444}
]]>
</style>
<circle cx="500.0" cy="500.0" r="500.0" fill="url(#watergradient)"/>
<path class="sl" d="M740,62v-1l1,1h1l2,2h1l1,1h1l1,1h1v1h2v1v-1l2,2h1l1,1h1l2,2h1l2,2h1l1,1h1l2,2h1l2,2h1l2,2h1l2,2h1l2,2h1l2,2h1l2,2h1l2,2h1l2,2h1l2,2h1l3,3h1l2,2h1l6,6h1l2,2h1l3,3h-1v-1l1,1h-1h1l3,3h1v1h1v1l2,2h1h-1l-1,-1l-2,-1h1v1h1l1,1h1v1l1,1h1v1l1,1h1l1,1v1h1v2h1v2h1v1l1,1l-1,-1v1h1l1,1v1h1l1,1h1l1,1h2v1l-1,-1v-1l1,1h-1v-1h1v1v-1h-1v-1h-1v-1h-1v-1h-1v-1h-1v-1h-1v-1l-1,-1h-1l-2,-2v-1h-1h1v1h1v1v-1l2,2h1l3,3v1l1,1h1l2,2v1h1v1h2v1h1v1h1v1h1v1h1v1h1v1h1h-1l1,1l-1,-1h-1h1l1,1h-1v-1h-1v-1v1h1v1l1,1v1h1h-1v-1v1h1v1l4,4v1h1v1h1v1h1l1,1v1h1l1,1v1h1l-1,-1l1,1v1v-1l-1,-1v1l-1,-1h-1v-1l2,2v1l-1,-1v1v-1h-1v2h1h-1v-1l-1,-1v1h1v1h1v1l1,1h1v1l3,3h-1l-1,-1h1l1,1v2h1v1l1,2l-1,-1v-1h-1v-1h-1l-1,-1v-1h-1v-1h-1h1l-1,-1v1h1v1l5,5v1h1v1h1v1h1h-1l1,1v1l2,3l1,1v1h1h-1l-1,-1l-1,-2v-1l-1,-1h-1v-1h-1v-1h-1v-1h-1v-1l-2,-2v-1v1v-1h-1h1h-1v-1v1v-1l-1,-1v-1h-1h1v1l-1,-1l1,1l-1,-1v1h1h-1l1,1h1v1l-1,-1l2,2l1,2h1v1v-1h-1v-1h-1l1,1v1v-1h-1v-1h-1v-1l-1,-1l1,1v1l1,1h1l1,2h1v1h1v1h1v1h1v1v-1l-3,-2l-1,-1l4,4h1v1l1,1l-1,-1v1h1h-1l-1,-2v1l1,1h1v1h1v1l-3,-3h-1h1v1h1l2,2v1h1v-1v1h1v1l1,1l2,3l3,2v1v-1l-2,-1l-2,-4h-1l3,3h-1v-1h-1h1v1l-1,-1l1,1h-1h1h-1l-1,-1l1,1v1h2v1h1v1v-1l1,1v1l1,1h-1v-1v1l-1,-1v-1v1h-1l-1,-1l1,1l2,1v1h1v1h-1l-1,-1l1,1h2v2h-1l-1,-1l1,1v2l1,1v1v-1l-1,-1l1,2h-1v2l1,1h-1v-1v1l1,1v2h-1h1v1h-1v1l-1,-1v1h1v2h1v1h-1h1v2h1v3l1,1v1l1,1l2,3l1,1l1,3l2,2l5,7l1,1v1l1,1v1l1,1l-1,-2l-1,-1l-1,-2v1h1v1l-1,-1v-1h-1v-1l1,1v1l1,1v1l5,8l1,1h1v2l1,1l3,6h-1h1v4h-1l-1,-1l1,1v-1h-1v-1l-1,-1l-1,-2h-1l-1,-1v-1l-3,-3v-1l-1,-1v-1l-1,-1v-1v1h-1v-1l-3,-3v-3l-1,-1v1h-1v-1l-1,-3l-1,-1l-1,-2v-1l-1,-2l-4,-3l-3,-4l-2,-2h-1v1h1v1l-1,-1v1h-2l-1,-1l1,1v-1h-1l-2,-2v-1h-1l-2,-1l-1,-1h1l-1,-1h-1v1h-2v-1h1h-1v-1v1v-1h-1l1,1v1h-1v-1v1h-2v-1l1,1v-1h-1v-1l-1,-1v1h-3v-1l-1,1h-1v1l-2,-2h-1l-1,-1v2l1,1h2v-1v1h1h-1l1,1h1h-1l1,-1v1l1,1h-1v1h1h-1l4,4h1v1h-1l-2,-2h-1v-1h-1v-1l-1,-1v1l1,1v1l-1,-1h-1v1h-1l-1,-1l-2,-1h1l-1,-1v-1h-1v1l-3,-3h-1v1h1h-3l-1,-1h-1l-1,-1h-3v-1h-1h1v-1h-1v1l1,1h-1l-2,1v-1h-1v-1h-2l2,2v1h-1l1,1l-2,2v1h-1l-1,-1h-2v-1h-1l2,2v1h-1v-1v2h-1v1v-1v2h-1l1,1v3l-2,-2l1,2h1l1,1v2l1,1l1,2l2,3h1v2l1,2l-1,2l1,2v4l1,3l1,1v1l2,6v3l1,2l1,1l1,3l1,1h1v1l1,1h-1l1,1l-1,-1v-2l-2,-1l-1,-2l2,3v1h1v1l1,2l2,3l1,1l5,7l1,2l1,1v1l2,2v1l3,3v-1h-1h1v1h2l2,1l2,2l1,2h3l1,-1h5v-1h3l1,1v1l1,1h1v-1h1l-1,-1v-2l-1,1v-1l1,-1h1l1,-2l-1,-3v-3l-1,-1v-3l-1,-2l2,-2h5l1,-1l1,1v-1l1,1h1v1h1l1,1h1v-1h-1l1,-1v1l1,1l1,2v1l1,1v1l-1,1v5l1,1h-1v2h1l1,1h-1v1h1v5l1,2v1l-2,-2v-3h-1v4h1l1,1v5l1,1v2l1,2v5h-1v3l1,1h1l1,1h1l1,-1h1v1h1l2,1h2l1,1v-1h1v-1h1l1,2h2v-1l3,3v-1h-1l2,1l2,3v1l-1,-2v1l2,2h1l-1,-1l1,1l1,2l1,1v1l-1,-1v1h1l1,4v8l2,6v2l-1,-1v-1v1l1,1v5l1,1h-1v2l1,2v2h1v1l1,3l1,1l1,3h1l1,2v1l1,1v1l1,1v2h1v2h2l-1,-1h1v1l1,2h3v-1l2,-1v-1h1v-1h1l1,1h1v1h1v1l2,1l3,6v2l1,1v3h1v1h-1v2h-1v-1v3l-1,-2l-1,-4l-1,-1h1v-1h1v1h1l-2,-2v-1h-1v-1v1l-1,-2v-1l-2,-2v-1h-2v3l-1,1v1h-1v2l1,2l1,1v2h-1v1h-2v-2l-1,-2v-1v1h-1l-1,-1l-1,-3v-1l-1,-1h-1v-1h-3l1,1v1l-1,-1v-1l-1,-1v-2l-1,-1v-1h-1l1,1v2h-1v-1l-1,-1l1,-1v-1l-1,-1v-2l-5,-5v-2l-3,-3v1l1,1h1v2l-1,1l-1,-2l-2,-2v-1l-1,-2v-2h1l-1,-1v-1l-1,-1h1v-1l-2,-2l-3,-4l-1,-3l-1,-1v-1l-2,-2l-2,-3l-1,-1v-1h1v1h1l-1,-1v-2h-1v-1h-1v-1l-1,1h1v1h-2l-1,-1h-1v-1v1h1l-2,-1l-2,-2h-2l-5,-5h-3l-2,-1l-1,-2l-6,-6l-2,-3l-1,-1v-1l-7,-7h-1l-1,-1v-1h-1v1h2l1,1v1l-3,-2h-1v-1h-1v-1h-1v1h1h-1l-2,2h-1l-2,1h-2l-2,-1l-2,-2l-4,-1l-2,-2l-3,-1l-1,-2h-1l-1,-1l-2,-1h-2l-2,-2l-2,-1l-1,-1l-3,-1l-2,-2l-2,-1v-1l-1,-1l-2,-1v-1h-1l-2,-1h-2l-1,-1l-5,-2l-1,-2l-5,-5h-1l-4,-2l-1,-2v-1l-2,-1l-2,-2v-1l-1,-1v-1h-1v-1h2l1,-1h-1v-1h-1v-2l1,-1v-1l-4,-4l-1,-2v-2l-2,-3l-1,-1h-1l-3,-3l-1,-2l-5,-5l-5,-4l1,1h1l-1,-1h-2l-1,-1v-1h-1l-1,-2l-1,-1l1,1h1l-1,-1l-4,-2l-1,-1v-1l-1,1h-1v-1h1v-1l-1,1h-1l-1,-1l-1,-3v-1h1l-1,-1v-1l-2,-1h-1l-1,-1h-1v-1l-1,-1l-2,-1l-2,-2h-1v-1l-1,-1v-1h1l-2,-1h-2v-1l-2,-1l-2,-2h-1l-2,-2v-1h-1l-3,-3v-1h-1v-1l-3,-3v-1l-5,-5v-3h-1v-1h-2l-1,-1h-1v-1h-1l-1,-1v1h-2l-2,-2h-2l-1,-1l2,2h-1l1,3v1h1l1,2v1l2,2v1l2,2l2,1l1,1l2,1v1l3,3h1v1h1l2,2v1h1v1l2,2v1l2,2l2,1v1l2,2h1v1l2,2v1h1l-2,-2h1l2,2v1h1v1l1,2l1,1v1l3,3l1,2l2,2v2l1,2l1,1h1v1h1v-2l5,5v1h1l1,1v3l-1,1h-2v-1l-2,-2v-1l-1,-1l-2,-1l-1,-2h-2l-1,-1l-3,-2l-2,-2h-1v-1l-2,-2h-1v-4l-1,-1v-1l-1,-1l-2,-3h-1l-1,-1l-3,-2l-1,-1l-1,-2v1h-1l-1,1l-2,-2h-1l-2,-2h-2v-1l-3,-3h-1l-1,-1h2l1,1h1l1,-1v1h1v1h1l-1,-1v-1h-1v-1l1,-1l-1,-2l-5,-5l-2,-1v-1h-2l-1,-1l-2,-1l-3,-3v-2h-1l-1,-1v-1l-3,-3v-1h-1l-2,-2v-1l-1,-1v-1l-2,-1v-1l-2,-1l-1,-1v-1h-1v-2l-1,-1l-1,-2l-3,-1l-2,-2h-3v-1l-1,-1h-2l-2,-1h-1v-1h-1l-2,-1h-1l-2,-1h-4v-2l-1,-1v-1h-1l-1,-1v-1h-1l-2,-2h-1l-3,-3l-2,-1v-3l-1,-1h-2l-2,-2v-1l-2,-2h1l1,1h1v1h1l-3,-3v-1h2l2,1v-1l1,1l-1,-1h-5v1h1l-1,1v-1h-1l-1,-1h-1v-1v1v-1h-1v-1h-1l-2,-2l-2,-1l-1,-2l-1,-1v-2l-3,-3l-2,-1l-1,-1v-1h1v-2l-1,-1v-2l-1,-1v-1h-1l-2,-2v-2l-1,-1v-5l-1,-2v-3h-1v-3l-1,-1v-2l-1,-1v-1v1h1l1,-1l1,1h1l-1,-1h-4v-1l-1,-1l1,1v-1h-1l-1,-1h2l-1,-1h-1v1v-1l-4,-4h-1v-1h-1v-1h3v1h8v1h1v1h-1v2h1h-1v-1h1v-1h1l-1,-1h1v2l1,1v1v-1h-1v1v-1h-1v1h2v-1h1l-1,-1v-2h-1v-1v1l-1,-1v-1h-1v-2h-2v-1h-2v-1h-1h1v-1v1l-1,-1h-1v-1h-1l1,1h-3v-1h-2v-1h1v1h1l-2,-2h1l-1,-1v2h-2l-4,-2v-1h-1l1,-1l-1,-1v1l-1,1l-1,-1h-4v-1h-2v-1h-5l-1,-1h-1v-2h1h-3v-2h-1v-1h4l1,1h1l-1,-1h-2v-1l1,-1h-1v1l-2,1h-1v2l-2,-2h1v-1h-1v1l-1,-1v-2h1h-1l-1,1v-1l-1,-1h-1l-1,-1h-2v-1h1l2,1h3v1l-1,-1h-2l-1,-1h-1l1,-1h-2l-1,1l1,1h-1l-1,1v-1h-1l-1,-1h-2v-2h2l-1,-1v1h-1l-1,-1h-1v-2h1v-1l1,-1h-1v-1v2h-1l1,-1h-1v-1h-1v-1v1l1,1v2h-3v-1h-1v-1h1h-1v-1l-1,-1h-1v-1h-1l-1,1h-1v1h-1l-1,-1h1v-1h1l-1,-1h-2v-1h-2v-1h-2v-1h-3v-1l-1,-1h-1h1v-1h1h-4v-2l-1,1h-1v-1h-2l-1,-1h-1v-1l-1,-1h-1l1,1h-1h1v1h1v1l1,1h-1l-1,-1h-2v-1h-1h1h-1v-1h-1l1,1h-2v-1h-2v1v-1v1h3l1,1h1h-2l-1,1l-1,-1h-1l-2,-1h-2l-1,-1h-2v-1h-4l-1,-1h-1h1v-1h1v1v-1h1h-4l-1,1h-2l-1,-1h-2v-1h-1h1l-1,1h-1l-2,-1h-7l-1,1v-1h-3l-1,-1h1v-1l-1,1h-3l-2,-1h-2v-1h1h-2v1h-1v-1v1h-4v-1h1h-2l-1,1h1v-1v1h-1h1v1h-1h1v1h-1v1h-4v-1v1h-2v1l-1,-1v1h-3v1h-5l1,-1h2v-1l-1,1h-2v-1h1l2,-2v-1h7l-1,-1h1l1,-1h1h-2l-1,1h-5l-1,1h-2v1h-2v1h-3l1,1h-3l1,1h-4v1h-2v1h3v1h-2v1h-2l-1,1h1h-2v1h-4v1h-3l-1,1h-2v1h-2v1h-3l-1,1h-2l-1,1h-1v1h-2l-1,1h-4v1h-1l1,-1h-1l-1,1h-2l-1,1h-3l-1,-1v1h-2l-2,1h-1v1h-1v-1h-1v1h-2l-1,1h-1l1,-1h1v-1l1,1v-1h2v-1h2l1,-1h1l1,-1h3l1,1l1,-1h1v1h1v-1h-1l1,-1h1v-1h2l3,-1h1l1,-1v1h1v-1h1v-1h2l1,-1h2v-1l1,-1h1l1,-1h-1v-1h3v-1h1v-1l-1,1h-1l-2,1h-3l-1,-1h1h-2v2h-2l-2,-2v1h-1l-1,-1h-2l-1,1h-2v1h-3l2,-2h-1l1,-1h1v-1l-1,-1v-1h1l1,-1h1h-2l-1,1h-1v1h-1l-1,1h-5l-1,-1h-2v-1h1h-2h2l1,-1h2v1h1v-1h1v1l1,-1h1h-6l1,-1l-1,1v-1h-1h1h-1v1h-1v-2h-1h1v-1h2l2,-1l1,-1h2v-1h3l-1,-1h4l-1,1l1,-1h4l1,-1h5l1,-1h1v-2h-1h3v-1h-1l-1,1h-4l-1,1h-1v-1h-1v1l-1,-1h-1l-2,1h-7v-1h1h-1h1l1,-1h-5l1,-1v1l1,-1h3l1,-1h4l1,-1h5l-1,1h7l2,-1h1h-2v-1h-1h1l1,1l1,-1h1l1,1l2,-1h-4v-1h-3l-1,1l-2,-1v-1h-4l-1,-1h-1h1h-1h2l1,-1h7l2,-1h2v-1h1l2,-1h6l2,-1v1h-1h1l1,-1h1h-2h7l1,-1h14v1h29v1h10l2,1h5l1,1h3l-1,-1h1h-1h4v-1h1v1h1h-1h5v-1h1v1v-1h7l-2,1h-6l-1,1h-1h2l1,-1h4v1v-1h5v-1v1h-1h2v-1h1h-1h3l1,1h2l1,1h3v-1h2l1,1h10l2,1h5l1,1h5l1,1h6l1,1h2h-1l-1,1h3l1,1h12v1h3l1,1h1l-1,-1v1h4v1h1l1,1h3v1h1l-2,-1h-2v-1h1l1,1l-1,-1h-2l-1,-1h-2v-1h-1h2v-1h-6l-1,-1h5v1h3v1h4v1h5l1,1h3l1,1h6l2,1h1h-1v-1h-3l-1,-1h-1h1h-1h2l1,1h3v1v-1h1l1,1h1v1h2l1,1h3v1l-1,-1h-1l3,1h1h-3v-1l1,1h1h-1l-1,-1h-1l-1,-1h-2l-1,-1h1h-1v-1h-2l-1,-1l1,1h-1l-1,-1h-2v-1h1v1h1h-1v-1h-4l-1,-1h-3v-1h-3l-1,-1h-2l-1,-1h-2v-1h-1h2v1h3l2,1h2l1,1h3l1,1h2l1,1h-1v-1h-1h1v1h3v1h4v1h1h-1h1h1l2,1h1l1,1h3v1v-1h-3v-1h-1h1l2,1h2l1,1h2v1v-1h-1l1,1h1l2,1h1l3,1h1v1v-1h-1l-1,-1h-1l-2,-1h-1l-1,-1h1h-3l-1,-1h-2l-1,-1h-1h1l1,1h3l1,1h2l1,1h2l1,1h2v1v-1h-1l1,1h2l1,1h2l1,1h2v1h3v1h2v1l-1,-1h-1l-1,-1h-3v-1h-1h1h-1h1v1h3v1h2l1,1l-1,-1v1v-1h-2l-1,-1h-1l1,1h2l2,2h-1l-1,-1h-2v-1h-2l-2,-1h-2l-1,-1h-1l1,1v-1h-1h1l1,1h2l1,1h2l1,1h2l1,1h2l1,1h1l2,1v1h1h-1l-1,-1l1,1h-1l-1,-1h-1h1v1h1l-1,-1l1,1h1h-4v-1h-3l-1,-1h-2l-1,-1v1h2l3,1h1v1h1v-1v1h2l1,1h2l1,1h1h-1v1v-1h-1v1h1h-1h1l1,1h-1v-1h-1h1v1h1h-1h1h-1l1,1h1v1h1l2,2h1v1v-1v1h1l1,1h1l2,2l2,1v1h2v1h3l1,2l-1,-1v-1l1,1h2l1,1l2,1h1l2,1v1l3,1l1,1h1v1h4l2,1h1l1,1h2l1,1h2l1,1h1l1,1h1l3,2h1l1,1l2,1h2l1,1h1l1,1h1v1h3l1,1h2l1,1h2v1l1,1h1l2,2h1l1,1l2,1l2,2h1v1h1v1h1l1,1h1l1,1h1l2,2h1v1h1l1,1l2,1l1,1h1l1,1v1h1v-1v1h1l2,2h2l1,1h-1l-2,-2h-1v-1h-1v-1h-1h1l1,1h1v1h1h-1v-1h-1v-1l-2,-1h-1v-1l-1,-1h-1v-1h-1l-1,-1h-1v-1h-1l-3,-3h-1l-1,-1h-1v-1v1v-1h-1l-1,-1h-1v-1h-2v-1h-1v-1h-1v-1l-1,-1v-1h-1l-2,-2h-1l-2,-2h-1l-2,-2h-1l-1,-1l-2,-1h-1l-2,-2l-2,-1h-2v-1l-2,-1h-1l-1,-1h-1l-2,-2h-1l-1,-1h1l1,1h-1v-1h-2v-1h-1l-2,-1l-1,-1h-1l-1,-1h-2v-1h-1v-1h-2v-1h-2l-1,-1h-1l-1,-1h-1l-1,-1h1v1l3,1h1h-1h2l1,1h-1v-1h-1h1l1,1h1v1h2v1h2v1h2v1h2v1h1l1,1h1l1,1h1l1,1h1l1,1h1l1,1h1l1,1Z"/>
<path class="sp" d="M741,62h1l2,2h1l1,1h1l1,1h1M751,67l2,2h1l1,1h1l2,2h1l2,2h1l1,1h1l2,2h1l2,2h1l2,2h1l2,2h1l2,2h1l2,2h1l2,2h1l2,2h1l2,2h1l2,2h1l3,3h1l2,2h1l6,6h1l2,2h1l3,3M731,57h1l1,1h1l1,1h1l1,1h1l1,1h1l1,1"/>
<path class="sl" d="M951,599v-9h1l1,-2v-1l-1,-3v-1l1,-1v-1l-1,-2l1,-2l-1,-1v-28l-1,-2v-2l1,-1l-1,-2v-4l-1,-1v-8l-1,-1v-3l-3,-4v-1l-1,-1v-2h2v-3l-1,-3v-8l2,-3v-1h1v-1l1,-1h1v-1l1,-1v-3l1,-1v-1l-1,-1v-2l1,-1h-1v3l-1,1v1h-1v-1l-1,-2v-1l-1,-1l1,-1v-10h1v-3l1,1l-1,-2l1,-2l1,-1v-7l1,-1h1l1,-1h1v-5h1v-5h1v-1l1,1v-2h1v-4l1,-1v-6l-1,1v-11l-1,-1v-2l1,-1l-2,-4v-1h1v-2h-1v-1l-1,-2v-1l-1,-1v-4h1v-2h1v-1h-1v-3l-1,-1v-2l1,2v1l1,1v1l1,1h-1l1,1v-3l-1,-1v-2l1,-2v-2l1,-1h1v-1l-1,-1v-10l1,-1l1,1v2h1v-2l-1,-2h1v1h2l1,-3l1,-1v-1l-1,-1h1v-1h1v1l1,2v3h-1v2l2,4h-1l1,1v8l1,2v2h1v3h1v-6l-1,-1v-2l-1,-1v-3l-1,-1v-2h1v-1h1v-2h1v-1h-1v-1l-1,-1v-2h1v2l1,1v2l2,2v1l2,2v4l1,1v1l1,1h1l2,1v1l1,2v1l1,1v1h1v-2h1l-1,-1v-1v1h1l1,1v4l1,1v-1h-1h1v4h1l-1,-1h1v2l1,2v2l1,1v6l1,1v-1v1v-1v2l1,1v1v-1v2l1,2v4l1,1v7l1,2v1v-2l-1,-1v-1l1,1v6h1v7l1,1v10l1,1v15l1,1v44l-1,1v15l-1,1v10l-1,1v9l-1,1v7l-1,1v5l-1,1v6l-1,1v5l-1,1v5l-1,1v3l-1,1v3h-38Z"/>
<path class="sp" d="M997,447v3l1,1v10l1,1v15l1,1v44l-1,1v15l-1,1v10l-1,1v9l-1,1v7l-1,1v5l-1,1v6l-1,1v5l-1,1v5l-1,1v3l-1,1v3h-38"/>
<path class="sl" d="M354,22l2,-1h2l1,-1h3l1,-1h1h-1v1h-3v1h-2l-1,1h-2v1h-2l-1,1h-1h1l1,-1h2l1,-1h2l2,-1h1l2,-1h5l1,-1h3v-1v1h-1h1l-1,1h2l2,-1h1v-1h2l1,-1h4l1,-1l1,1v-1h13v1h1h-1h3l2,1h-1h1v1h-1l-1,1h-1h1v1v-1h1l-1,1h1l1,-1h-1h1l1,-1h-1h7v-1l1,1h1l1,1h-1h1l-1,1h-4v1h-4l-1,1h-1h1h-1l-1,1h-2l1,1h-9v-1h1v-1h-3l-1,1h-3l2,-2h1h-3v1h-1v-1v1h-2l1,1h-2l-1,1h-2v1h-4l-2,1h-2l-1,-1l-1,1h-1h1h-3l-2,1h-1h3v-1h1v1h-1h2l1,-1h1l-1,1h2l-2,2h-1h1h-1v1h1h-1l-1,1h1h-1v1h-3v1v-1h-5v1h-3l-1,1h-3l-1,1h-3l-1,1h-1l-2,1h-2l-2,1h-1l-1,1h-2v1h-3l-1,1l-3,1h-2v1h-1l-1,1h-1v-1h1l-1,-1l-1,1h-4v1h-3l-3,2h-1h1v-1h1l1,-1l-2,1h-1l-1,1h-1l-1,1h-4l-1,1h-2l-2,2l-2,1h-1v1h-2l-1,1l-2,1h-2l-1,1v1h-1h1h-1h2v-1l1,1h-1l-1,1h-1l-1,1h-1v1h-1l-1,1h1l-1,1h-1l-1,1h-1l-1,1v-1h1l1,-1h1h-2v1h-1l-1,1h-1l-4,2l-1,1h-1v1h-1v1l-1,1h-1l-1,1h-2l-1,1h-1l-2,1l-1,1h-2l-1,2h-1l-2,2h-1l-2,1h-1l-1,1h-1h1h-1l-2,2h-1v1h-1l-1,1l-3,2l-2,1h-1v1h-1l-2,1l-2,2h-1l1,-1h1v-1h1l2,-3l3,-2l2,-2h1l4,-4h1l3,-3l2,-1l3,-3l3,-2l1,-1l5,-3h1l4,-2l1,-1h1l1,-1h1v-1h2l1,-1h2v-1h1l2,-1h1l1,-1h1l1,-1h1l3,-2l3,-1h1l1,-1l3,-1l1,-1h2l1,-1h1l1,-1h1l2,-1h2l1,-1h1v-1h2l1,-1h1v-1h2l1,-1l2,-1h1l1,-1h1l-3,1h-2l-1,1h-1l-1,1h-1v1h-2l-1,1l-7,2h-1l-1,1h-1l-1,1l1,-1l2,-1l-1,1h-1l1,-1h1l1,-1h2v-1h2v-1l-2,1h-1h1h-2v1h-3l-2,1h-1l-1,1h-1l-1,1h-1l-1,1l-2,1h-1l-8,4h-1l-1,1h-1h1l-1,1h-2l-1,1h-1l-1,1h-2l-1,1h-1l-1,1l2,-2h2v-1v1l1,-1h-2v1h-1h1v-1h-1l-1,1h-1v1h-1h1h-2v1h-1l1,-1l-1,1h-2l-2,1l-1,1l1,-1l-1,1h-1l-1,1l-2,1h-1l-4,2l-1,1h-1l-2,2h-1l-3,2l-1,1l-2,1h-1v1h-1h1l2,-2h1l2,-2h1l1,-1h1l2,-2h1l1,-1h1l1,-1h1l2,-2h1l1,-1h2l2,-2h1l1,-1h1l1,-1h1l2,-2h1l1,-1h2l1,-1h1l2,-2h1l1,-1h2l1,-1h1l2,-2h2l1,-1h1l1,-1h1l1,-1h1l1,-1h1l1,-1h2l1,-1h1l1,-1h2l2,-2h2l1,-1h1l1,-1h2l1,-1h2l1,-1h1l1,-1h1l1,-1h2l1,-1h2l1,-1h2l1,-1h1l1,-1h2l1,-1h2l1,-1h2l1,-1h2l1,-1h2l1,-1h2l1,-1h2l1,-1h1ZM213,91h-1ZM210,93l3,-3h1l-2,2h-1l2,-2h1l1,-1h1v-1h1h-1v1h-1l-3,3h-1v1h-1l-2,1v1l-1,1h-1v1h-1l-1,1h-1l-3,3l-2,1l-1,1l-2,1l-4,4h-1l-4,4h-1v1h-1v1h-1l-3,3h-1l-2,2v1h-1l-1,1l-2,1l-5,5h-1l-4,4l-3,2v1l-2,1l-2,2l-1,2h-1l-11,11v-1h1l14,-14h1l9,-9h1l8,-8h1l5,-5h1l6,-6h1l1,-1h1l4,-4h1l4,-4h1l2,-2h1l3,-3Z"/>
<path class="sp" d="M238,74h1l2,-2h1l2,-2h1l1,-1h1l2,-2h1l1,-1h1l1,-1h1l2,-2h1l1,-1h2l2,-2h1l1,-1h1l1,-1h1l2,-2h1l1,-1h2l1,-1h1l2,-2h1l1,-1h2l1,-1h1l2,-2h2l1,-1h1l1,-1h1l1,-1h1l1,-1h1l1,-1h2l1,-1h1l1,-1h2l2,-2h2l1,-1h1l1,-1h2l1,-1h2l1,-1h1l1,-1h1l1,-1h2l1,-1h2l1,-1h2l1,-1h1l1,-1h2l1,-1h2l1,-1h2l1,-1h2l1,-1h2l1,-1h2l1,-1h2l1,-1h2M212,91h1M137,156l6,-6v-1h1l14,-14h1l9,-9h1l8,-8h1l5,-5h1l6,-6h1l1,-1h1l4,-4h1l4,-4h1l2,-2h1l3,-3h1"/>
<path class="sl" d="M991,413v1ZM984,393l1,1v1v-1h-1v-2ZM983,393l-1,-1h1ZM991,416v-1ZM138,577l1,3v-1h1l-1,-1l1,-1v2h1v2l1,1l-1,1h-1v1h-1v-1l-1,-1v-2l-1,-3v-1ZM144,587v1h2v1h1v1h-1l-1,1l-1,-1v-2l-1,-1v1l-1,-1v-2h1v1ZM151,592h-2v-1h1v1ZM149,588h-2v-1h1v-1v1h1ZM152,598l1,2v1h-1v-1h-1v-1h1ZM146,581h-1v1l-1,-1l1,-1h1ZM148,585l-1,-2v-2ZM147,580l-1,-3l1,2ZM142,584h-1v-1h1ZM142,571v1h-1v-2ZM141,568h-1v-1h1ZM166,619v1h-1v-1ZM162,614v1h-1v-1ZM160,609v1l-2,-1v-2h1v1ZM19,401v1ZM56,403h-1h1v-1ZM57,402v-1ZM84,400h-1v-2h1v1ZM144,396l1,-1v-1v1ZM141,384h-1ZM157,384h1ZM154,384h1h-1v-1ZM56,316v-1ZM50,335h1ZM44,354v-1ZM55,321v-1ZM48,345v-1ZM47,346v1ZM967,332v-1ZM969,336v1ZM41,362v-2l1,-1v-1v2ZM288,555h-1l1,-1h1h-1ZM965,329v1h1v2h-2v-3h-1v-2l1,1ZM967,333v-1ZM557,46h-1v-1l1,1h1ZM558,47h-1v-1ZM548,40h-1ZM498,32v1ZM501,34h1v-1v1ZM486,33h-1ZM469,33h-1h1v-1ZM424,51l-1,1v-1ZM428,53h-1v-1h1ZM427,52h-1ZM392,59h1ZM340,71h-1ZM427,19h-1h2ZM400,27h2l1,-1h2v1h1l-1,1h-2v-1h-3l-1,1l-1,-1h1ZM410,35h1v1h-1l-1,1h-3l-1,-1h-1h3v-1h2ZM462,41h2v1h1h-3l1,1h-4v1h-1l-1,1h-1l1,-1h-3v-1h-1h1v-1h3v1h1v-2h1v1l1,-1h3ZM408,53v1h1v1l-1,-1l-1,1h-4v1h-3v-1h1l2,-1h2l1,-1h1ZM556,50h-1v1v-1h-1h1ZM566,52h1v1h-1v-1h-1v-1h1ZM561,48l-1,1v-1h-2v-1h1v-1l1,1h1ZM567,50v1h-4l1,-1v-1h3ZM554,44v1v-1l1,1h1v1h-1v-1h-1h1v1h-2v-1h-1l-1,-1h1ZM559,52h1v1h-1v-1h-2v-1h1v1ZM493,32h1l-1,1h-1v-1ZM487,34h-1h1l1,-1h1v-1h1v1h-1l-1,1ZM487,32v1h-1h1ZM461,44h-2l1,-1h1ZM465,39h-1l1,-1ZM461,41h-1ZM447,49h-1l1,-1ZM452,46h1ZM455,46h-1ZM422,51h1h-1v1h1h-2v-1ZM413,54v-1h1ZM411,55l-1,1v-1ZM425,52h-1v1h-1h1v-1h1l1,-1v1h-1h1ZM394,58h-1v-1h2v1ZM396,57h1ZM427,40v-1h2ZM384,37h1h-2v-1h1ZM384,47h-1ZM373,64h-1ZM367,65l-1,1v-1h2ZM358,67h-1h2ZM384,49h1ZM334,72h-1l1,-1h1h-1ZM316,73h-1ZM317,75l-1,-1h-1h1ZM298,73l-1,1v-1h-1h1ZM546,43l2,2v1h1v1h-1l-1,-1v-1h-2v-1h-1v-1h-1v1h-1v-1h1v-1h1l1,1ZM546,40h2l1,1h1v1h1h-1l-1,-1h-1l1,1h1v1h1h-1l-1,1h-1v-1l-2,-2v-1h-1v-1v1ZM541,40h1v1l1,-1h1l1,1h-1v1h1h-2l-1,1h-1v-1h-1l-1,-1h-1v-1h2ZM554,47h2v1h2l1,1h1l1,1h1h-2l1,1h2v2h1h-2v-1h-2v-1v1h-1v-1h-2l1,-1h-2v-1h-1h1v-1h-2Z"/>
<path class="sl" d="M551,45h1v2l-1,1v-2h-1l-1,-1h1ZM465,39h2v1h-4l-1,1l-1,-1h2v-1h1ZM382,61l-1,1h-1l-1,1h-2l-1,1h-1h1v-1h2v-1h2v-1h2v-1h1v1ZM390,59h1v-1h1v1h-1l-1,1h-2l-1,1h-3v1h-1v-1h2l1,-1h2v-1l1,1v-1h-1l1,-1h1ZM352,68l1,1l1,-1v1h-3ZM346,69l-2,1v-1h4l2,-2l1,1h-2v1h-1ZM337,71h1h-1v1h-3l1,-1h1l1,-1l1,1ZM330,72v1v-2h1v1h1h-1ZM321,72l-1,1v-1ZM311,74h-1l1,-1h1ZM297,71h2l-1,1h-3l1,-1ZM411,267v1h-1l-1,-1v-3l-1,-1v-2h1l1,-1l-1,-2h2l4,2l1,1v1h1v1h1l-2,2h-3l-1,2ZM399,251h4v1h-4ZM405,253h3l1,1l-1,1h-3v-1h-1l-1,-1l1,-1h1ZM395,249l1,1l-1,1l-1,-1h-2l-1,-1v-1h1l1,-1h1l1,1l-1,1ZM383,246l-1,1v-1h-2v-1l1,-1h3v1h-1ZM376,247l1,-1h1h-1v1ZM402,254h-1l-1,-1h2ZM859,158l1,1v-1v1l-1,1v-1h-1h1h-1v-1h1v-1ZM848,142h-1v-1ZM861,158v-1h-1h1ZM859,156l-1,-1ZM863,159h-1v-1v1ZM879,188h-1ZM882,193h-1l1,-1l-3,-3h1v1l2,2ZM882,196v-1l-1,-1l1,1ZM898,248h-1v-1v1ZM897,247v1v-1l-1,-1ZM908,260v1v-3ZM847,216l-1,-1ZM827,223v-1ZM827,221h1v-1h1l-1,1ZM827,227v-2ZM833,216v-1h1ZM831,235v1l-4,-8l1,3l3,3ZM679,171h-1v-1v1ZM687,174h-1l-1,-1l1,1ZM673,166l-1,-1h1l1,1ZM674,165l2,1v-1v1h-2ZM686,170v1h-1v-1h-1h1ZM623,82h1h-2l1,-1ZM623,82v1l-1,-1ZM626,84v1h1h-1v-1h-1v-1h1v1h-1ZM859,156h-1ZM863,165l1,1l-1,-1v-1ZM869,175v-1l-1,-1l1,1ZM882,195h-1ZM906,263v-1ZM883,216l1,2l-1,-1ZM906,263h-1l1,-1h-1h1ZM901,244l1,1l-1,-2l-3,-3h1v1ZM859,217v1ZM859,214h-1ZM861,214h-1ZM857,214v1h-1v-1ZM859,217v-1l-1,-1h1v1ZM876,222h-1h1v-1ZM627,89h-1v-1ZM629,88h-1v-1v1ZM628,87h-1v-1v1ZM624,83h-1v-1ZM922,304h1h-1l-1,-1h1ZM926,302l-1,1v-1ZM926,303v-1ZM916,225v-1ZM968,331h-1ZM944,296v-1ZM943,295v-1ZM942,294l1,1ZM975,348v1ZM988,396v-1ZM989,405v-1h-1l1,-1h-1h1l-1,-2v-1l1,1v3ZM264,616v1l-1,-1h-1l1,-1v1ZM269,594h-1v-1h1ZM266,617v1ZM5,569v1ZM7,582v-2l-1,-1v-9l-1,-1h1v9l1,1v2ZM7,582v-1l-1,-1h1v1ZM92,530h-1v-1h1ZM134,550l-1,-1h1ZM129,542l-2,2v-1v1v-2h1ZM101,557l-1,1v-1h-1v-1h-2v-1h1l2,1v1ZM103,537v2l-1,-1v-2l-1,-1h1ZM90,536v-1h1ZM95,534h1v1ZM83,530l1,2h-1v1v-1h-1v-2h-1v1h-1v-1l1,-1v-1h1v2ZM85,534v-1v1h1ZM85,533l-1,1v-2h1h-1ZM81,534l-1,-1h1v-1v1ZM77,528v-1l-1,-1l1,-1v1h1v1ZM77,530v1v-2Z"/>
<path class="sl" d="M80,529h-1v-2l1,1ZM73,522h-1v-1h1ZM83,534v1h-1v-1ZM93,536l2,2v-1h1l1,1h1v1h1v2h-1l-1,-1l-2,1h-1v-1h-1v-3ZM93,530l-1,-1l-2,-1l-1,-1h-1v-1h-1v-1h-1v-1l-1,-1h2v1h1v1h1l1,1l3,2v1ZM80,522h1l-1,1v-1l-1,1l-1,-2l-3,-3v-1h1l2,2l1,2ZM97,527l2,2v2l1,1v2h1v1l1,1v2l-1,-1v-1l-3,-3l-1,-3v-1l-1,-1v-1ZM104,544h3l1,2v1h-3l-1,-1v-1h-1v-1h-1v-1h1ZM275,548l1,1v2h-2l-2,-1l-1,-1h2ZM282,553h-4l-1,-1l1,-1h1l2,1h1ZM984,379l-1,-1v-1l1,1ZM984,380v1ZM985,383l-1,-1ZM983,374v1v-1l-1,-1v-1ZM973,345v-1ZM973,343v1v-2h-1h1ZM160,140v1ZM160,141l1,-1v1ZM267,59v1v-1h1ZM403,13h-1h2v-1h4v-1h1l-3,1l-1,1ZM222,85l-1,1h-1v1h-1v1l-2,1l-1,1h-1l-3,3h-1l-1,1h-1l-1,2h-1l-2,2h-1v1h-1v1l-5,3l-7,7h-1v1l-2,1h1v-1h1v-1h1v-1l-2,2h-1l-7,6l-6,6v1l-1,1h-1l-1,1v1h-2v1l3,-3h-1l-2,2l-2,1v1l-1,1v-1h1v-1l2,-1l1,-2l3,-2l1,-1h1l1,-1v-1h1l1,-1v-1h1l3,-3h1v-1l2,-1v-1l2,-1l2,-2l4,-3l2,-1v-1l1,-1h1l2,-2l2,-1v-1h1v-1h1l3,-3h1l2,-2l2,-1h1l1,-1v-1h2v-1h1v-1h1l2,-2h1ZM411,11h2l-2,1h-3l1,-1h1ZM287,67v-1ZM366,19h1ZM355,23v-1h1h-1h3l1,-1h1h-2v1h-2Z"/>
<path class="sp" d="M221,85v0"/>
<path class="sl" d="M374,18h-1h2ZM296,53l-1,1l1,-1h1l1,-1h1l1,-1h1l-1,1h-1l-1,1ZM284,67h-1v-1h1l-1,-1h2l-1,1ZM216,101v-1l2,-1h1h-1l-1,1ZM229,93h-1v-1h1ZM225,95h-1v1h-1v-1h1l1,-1h1l2,-2v1h-1l-1,1ZM211,104h1v-1ZM228,92h-1ZM203,110h-1ZM195,116h-1l2,-1l1,-1ZM182,124l1,-1l2,-1l1,-1h1l-2,1l-1,1h-1ZM177,127l-1,1l-2,1v1h-1l-1,1l-2,1v1h-1l-1,1l2,-2h1v-1l1,-1h1l3,-3v1l2,-2h1l-1,1ZM164,138l1,-1ZM167,134v1h-1l-3,3h-1l-1,2v-1l2,-2h1v-1h1ZM5,432l-1,1v1v-1Z"/>
<path class="sp" d="M4,439v-6l1,-1"/>
<path class="sl" d="M59,505v1l-1,-1v-2h-1l1,-1l-1,-1v-2l-1,-3h-1v-1h-1l-1,-1v-1h-1v-1l-2,-1v-1v1l-1,-1v-1l1,1h1v1h1v1h1v1h1l2,2v1l3,3v5ZM54,502l1,1v-1h1v2l1,1v1h-1v2h-1v2h1v2l-1,1h-1v2l-1,1v1l-1,1v1h-1v1l-2,2h-2v-1h-1l-1,1l-1,-2h-1v-1h-1v-2h2v-1h1v1h1v-1h1l1,-1v-1l1,1v-1h1v1l1,-1v-1l1,-1v-2l1,-1v-1h1v-2l-1,-3v-1ZM25,558v-1l-1,-1v-5l-1,-2v-7l-1,-2v-7l-1,-2v-8l-1,-2v-12l-1,-2v-6h1l1,2h1v1l1,1h3l1,1v1l1,1l1,-1v2h1v1l1,1h1l2,7v2h1l1,1l2,1v1l1,-1l1,1v1h1v5h-2v2l1,2v2l1,1v1h1v1l2,2v2l1,1v1h1v3h1v1l1,-1v-1l1,1v3l1,1h2v3h1v1h3v1h-1v1h1v1l-1,1h-1l-2,-2h-7v-1h-1v-1l-2,-2v-1l-1,-1v-1h-1v-1l-2,-4v-2h-1v-1h-2v-1h-2v-1h-1v1l-1,1l-1,-1v-1v1l1,3v1h-1v2h-1v1h-1v1h-1v-1v1h2l1,1v2l1,1l-1,1v2l-1,1h-1v-1l-2,2v-1v1ZM41,520l-1,-1v-1h1v1ZM34,513v1v-2ZM57,491v1h-1v-1ZM54,491v-1ZM45,481v1l-1,-1v-1h1ZM57,553v-1h1v2h-2v-2l-1,-1v-1v1h1l1,1ZM53,549l-1,-1v-1h1v1ZM55,542v-2ZM71,561h-1h1v-1ZM31,549h-1v-1ZM38,518v-2ZM36,488h1v2h-2v1h-1v-1h1v-2ZM48,490h-1l-1,-1l1,-1h1v1ZM54,548h1v1l1,1h-2v-1ZM61,542h2v2h-1v-1ZM68,562l1,1h1h-1v1v-1h-1l-1,-1v-1v1ZM31,550h-1v-1h-1h1ZM39,490l-1,1v-1ZM54,490v-1ZM57,558h-1ZM61,499v-1ZM73,518v1h-1v1h-1l-1,-1v-2l-1,-1v-1h-1v-1l-1,-1v-4l2,2v1l1,1v1h1v1h1v2h1ZM66,509v-1ZM951,398v-2l1,1ZM942,402l-1,-1v-1h1v1ZM938,384v1l-1,-1ZM951,398v-1ZM11,424v-1ZM248,783l1,-1v-1l1,-1h1v2h1l-1,-1h1l-1,-1h2v1l-1,1h1v-1h1v1h-1v2h1v1h1v10l-1,1v1h-1h1v1h1v1h1v1h1l1,1h-3v-1l-1,1h1l-1,1v-1h-1l1,1l-2,2v1h-1h1v2h1v1l1,1l-1,1h1v3l1,1v1l1,1l-1,1v1l-1,2v1l-1,1h-3v1v-1l-1,1v-1h-1v-1h-3l-1,-1v1h-4v-1l-1,-1v1l-1,-1l1,-1h1h-1l-1,-1l1,-1l-1,1l-1,-1h1l-1,-1h1l1,1l-2,-2v-1h1h-1v-2l1,1l-1,-1v-1h1l-1,-1l1,-1v-3h1l1,-1h1l-1,-1v-1h1v-1h1l-1,-1h1h-1l1,-1v-1h1h-1v-1h1v-1l1,1l-1,-1v-2l1,1v1v-4h-1v-3l-1,-1v-1h1v-4l-1,-2v-2l1,-1v-1h1l-1,1l2,2h1v1h1v1ZM250,779v1v-1h-1l1,-1ZM238,817v1h-1ZM237,814l1,1h-1ZM249,824l1,1h-1h2v1h-1v1h-1v1v-1l-1,-1h1l-1,-1v-1h-1h1ZM242,744l1,1h-1v-1h-1v-1ZM226,736v-1l1,1h3l1,1v1h1v-1l4,4h-1v1l2,2l2,1v1l1,1v2h1v1v-1h1l1,1h1v1h2l-2,-2v-2h-1l-1,-1h1v1l2,1l3,3l1,2h1v1h-1h2l2,1l1,1h4l1,-1v-2h1v-1h2v1h2l-1,1v1l2,4v1l-1,1v2l1,1v1l-1,-1h-3v1l-1,1l1,1v1l1,1v1l1,2l-1,1v8l-2,2v1h-1v-2h-1l-1,1v-2h-1v1h-1v-1l1,-1v-3l-1,-1v-2h-1v-1l-2,-1l-1,-1h-2l-1,-1h-1l-2,-1h-1v-1l-1,-1l2,-2h1v-3l-1,-1v-3l-1,-1v-1l-2,-2v-1l-1,-1v-1h1l-1,-1h-2l-2,-2v-2h-1v-1l-1,-1v1h1h-1l-1,-1h-1l-1,-1h1v1h1l1,1v1l-6,-6v-1h-1v1l-2,-2v-2h-1l-2,-2l-2,-1l1,-1h1v1l2,2v1Z"/>
<path class="sl" d="M281,859v1l-1,-1ZM261,851h1h-2v-1h1ZM312,794h-1v1v-1h-1v1h1l1,1h-1v1l-1,-1v-1h-2l1,-1ZM313,798v-1l1,1ZM300,595l-1,1v-2ZM975,378v1v-2ZM971,340v-1ZM971,374v-1ZM974,378v-1l-1,-1v-1v1l1,1ZM127,453h-1ZM897,290l-1,-1v-1h1v1ZM788,262h-1v-1ZM764,280l-1,1l-1,-1h1v-1v1ZM755,233v1l-1,-1h-1h1ZM729,203l-1,-1l-2,-1l-1,-1v-1h1l3,3ZM718,208h-2l1,-1l-1,-1h1l1,1ZM735,203v2l-1,-1h-1v-2h1ZM695,200v1l-1,-2h1ZM895,283h1ZM879,298h-1l1,-1ZM761,240l-1,-1ZM713,183h-1ZM749,225v2h-1v-2ZM748,237l-2,-1h1ZM746,236h-1v-1l-1,-1v-2l-1,-2l1,1v3h1v1ZM163,417l1,-1ZM164,427v-1ZM164,428v-1ZM164,434v1ZM174,448l-1,1v-2ZM175,452v-1ZM164,431h1ZM142,454v-1ZM270,470v1v-1v1ZM278,469h-1ZM253,473v1l-1,-1h1h-1ZM412,459h-1ZM440,523v-1ZM404,473h-1ZM391,409l1,1l-2,-1l-1,-1h1v1l1,-1l-1,-1l1,1ZM374,392h1v1h-1v-1h1ZM274,455v1v-1v1v-1h-1ZM101,199l-1,1ZM115,183h1v-1l1,-1l-1,2ZM93,211l-1,1v-1h1l1,-1v-1l-1,1ZM71,244l-1,1Z"/>
<path class="sp" d="M70,245l1,-1"/>
<path class="sl" d="M71,243v1v-1l1,-1v-1l1,-1l-1,2h-1ZM162,134h-1h1v-1ZM161,135l1,-1ZM140,155l1,-1ZM93,210v1ZM102,203h-1ZM89,215h1v-1ZM88,216v1v-1v1ZM72,259l1,-1ZM160,138v1h1v-1l2,-1l1,-1l-2,1l-1,2h-1v1l-2,2h1v-1h1h-1v1h-1v1h-1l-1,1h-1v1h-1l-3,3l-2,1v1h-1v1h-1v1h-1l1,-1v-1h-1l-1,1h-1v1h-1v1h-1v1l1,-1l-1,1v1h-1v1v-1l-3,3v-1h1l1,-1v-1l1,-1h1v-1h1v-1l1,-1h1v-1h1v-1h1v-1l1,-1h1v-1v1l6,-6l2,-1v-1l2,-2l2,-1v-1l2,-2h1v-1v1l-3,3v1h-1ZM76,235v-1l3,-3v-1l1,-1v-1l2,-2v-1l3,-3v-1l1,-1v-1v1l-2,2h1h-1v1l-1,1l-2,3v1l-2,2v1l-2,2v1l-1,2h-1v1l-2,2h1v-1l1,-1v-1Z"/>
<path class="sp" d="M76,234l3,-3v-1l1,-1v-1l2,-2v-1l3,-3v-1l1,-1M75,236l1,-1"/>
<path class="sl" d="M92,212l-1,1v1h-1v1l-2,2v1h-1v1l1,-1l-2,1v1l-1,1v1h-1v1l-1,1l1,-1v-1h1v-1l1,-1l-1,1l1,-1v-1l2,-2v-1h1v-1h1h-1h1v-1l2,-2v-1ZM90,214l1,-1v-1l2,-2v-1h1v-1l1,-2h1v-1h1v-1v1v-1h1v-1l1,-1v-1h1v1h-1h1v-1l3,-3v-1l3,-3l1,-2l4,-4v-1h1v-1v1l-3,3v1h-1v1v-1l1,-1h1l1,-1v-1h1v-1l2,-2h1v-1l3,-3v-1h1v-1l1,-1h1v-1l4,-4v-1h1v-1h1l1,-1v-1l3,-3v-1h1v-1h1v-1h1v-1h1v-1h1v-1l1,-1l-1,2h-1h1l2,-2v-1v1h-1h1l1,-1v-1h1l-1,1l1,-1l-2,2l-1,2h-1v1l-3,3v1h-1v1l-4,4v1h-1v1h-1v1l-2,2h-1v1l-2,1v1l-1,1v1h-1l-1,2l-2,2v1l-1,1h-1v1l-3,3v1l-2,2v1h-1v1l-2,2v1h-1v1h-1v1h-1h1v-1l1,-1v-1h1v-1h1v-1v1h-1l-1,1v1h-1v1v-1l-1,1v1l-1,1v1h-1v1h-1l2,-2v-1v1h-1v1h-1v1l-1,1h-1v1l-1,1v-1h1v-1v1h-1h1v-1l1,-1h-1l-1,2v1h-1v1l-2,2v1l-2,2l-1,2l-1,1v-1l1,-1v-1h1l1,-2l1,-1v-1h1v-1h-1v1l-1,1v1h-1v1h-1v1l-1,1v-1v1l-1,2h-1v1v-1v1v-1l1,-1Z"/>
<path class="sp" d="M88,217v-1l2,-2"/>
<path class="sl" d="M94,214h1ZM938,316h1l1,1v1l2,1l1,2h-1l-1,-1v1h-1v-1v1l-1,-1h-1l-1,-1v-1l-2,-2v-1h1v-1l1,1h1ZM8,492h1v3l-1,-2v1v-1ZM8,500h2v1l-1,1v-1h-1ZM2,493h1v2h-1v-1v1v-1ZM1,478v-1ZM1,510v1v-2ZM1,520h-1v-1ZM0,514v1ZM0,515v1Z"/>
<path class="sp" d="M0,517v-2"/>
<path class="sl" d="M8,561h-1v-3l1,1v1ZM5,564v1v-1l-1,-1ZM5,571v1ZM3,504l-1,-1v-3h1v2ZM1,489v-1v12l-1,-1v-13l1,-2v-1v5l-1,1ZM2,519h1v4l-1,-1v3l-1,-1v-1v-3h1v-1v1v-2ZM1,524v1ZM8,589v-3l-1,-1v-5h-1v-1l1,1v6l1,1v3Z"/>
<path class="sp" d="M8,588v-2l-1,-1v-1M8,590v-1"/>
<path class="sl" d="M9,536v3h1v3h-1v-7ZM10,543v4h-1v-4ZM18,554v1h-1v1v-10h1v1l1,1v3l-1,2ZM19,502v5l1,2v12l1,2v8l1,2v7l1,2v7l1,2v5l1,1v1v-1h-1v-1l-1,-1v-1l-1,-2l-1,-1v-1v1h-1v1v-1l-1,1v1v-7h-1v-3h-1v-2h1l-1,-1v-1l-1,-1v-4l-1,-1h1h-1v-3h-1v-1l-1,-2h-1v-1h-1v-1h-2l-1,-2v-1l-1,-1v1v-2l-1,-1v-1v6l-1,-1v-6l-1,-1v-2h1v-4l1,1v-3h-1v1h-1v1v-6l-1,1v-1v1v-9l1,-1v-2l1,1v1h1v13l1,2v1v-1v3h1v-1v4h1v-7l1,-1v-4l1,-1v-5l1,-1v-1h1v1l1,1v1h1l1,1v1h1v-1v1h2ZM19,554v-2ZM7,497v-1ZM0,502v-1ZM0,500v3h1v1h-1v-1v1v-3ZM7,541v-2ZM7,540v1v-2ZM2,528v1v-2ZM1,463v-1l1,-1v-1v2ZM8,564l-1,-2h1v1ZM6,562v1v-2ZM5,566h1v1ZM2,508v1ZM5,573l1,1v1v-1l-1,-1v-1ZM10,544v-1ZM0,490v1ZM7,506v-1ZM7,525v1l-1,-1ZM2,499v1ZM2,497v-1ZM1,496v-1ZM0,497v-1ZM0,492v-1ZM0,504v-1ZM2,526v1ZM1,465v-1ZM1,465v1ZM7,553v-1ZM5,557v-1ZM5,563v-1ZM10,543v-1ZM10,545v1v-2ZM1,522v1ZM1,525v1ZM908,322h-1h1v-1l1,1ZM910,322v-1h1ZM950,312l1,2v1l1,1v2l1,1v3l1,1v1l1,1h-1v-1h-1l-2,-2h-2v1v-1l-2,-2v-1h-1v-2h1v1l1,1h1l2,2v-1l1,1v-1h-1v-1l-1,-1l-1,-2v-3l-2,-2h-1v-2h1v1h1l1,1ZM950,318v1l-2,-2v-1h1v1h1ZM947,308v1l-1,-1ZM985,388v-2ZM981,368v1v-2l-1,-2l1,1v1ZM977,353l-1,-1v-1v1h1ZM977,355v-1l-1,-2v1h1ZM978,356v-1ZM246,550v-1h1ZM234,560h-1v-1h1ZM135,625l1,1v-1l1,1l3,2l1,1h1v1h1v1h1l2,2h1v1h1l1,1l2,1l2,2h1l1,1v1h-1v1l-2,-1l-1,-1h-1v-1h-2l-2,-2h-1l-1,-1l-2,-1l-5,-5v-1l-1,-1h-1v-1l-1,-1ZM159,642h-1v-1v1ZM112,622v-1ZM158,632h1v1h-1l-1,-2h1ZM149,627h-1v-3l1,1h-1l1,1ZM154,630h-1v-1h-1v-2h-1l1,-1h1v2h1v1ZM223,577l-1,1v1h-1v1l-1,1l1,1v-1l1,-1h1v2h-1l-1,1h-2v-1h-1l-1,1v1h-1v1h-1v-1l-1,-1v-1h1l1,-1v-1h2v-1h1v-1h1l1,-1v1l1,-1ZM213,589l1,1h1v1h1v2l1,1l-1,1h-2v1h-6v-1l-1,-1v-1h1v-2l2,-2h1l1,-1h1ZM224,583v1v-3l1,1v1ZM224,584h-1v-1l1,-1v1ZM217,602l-1,1v-1l-1,1v1h-1v-1h1v-1h1ZM232,592v-1ZM234,594v-1ZM237,591v-1ZM232,586h-1v-1h1ZM237,601v1ZM228,600v1ZM206,587l-1,1v-1ZM221,588h-1v-1h1ZM221,594l-1,-1h1ZM217,591v-1ZM224,580h-1l1,-1ZM223,577v-1ZM199,548h-1v-1h1ZM239,614h-1ZM951,493v-3h1v1h-1ZM956,458v-1ZM907,462h-1l-1,-1l1,-1v-1h1v2ZM911,464h-1v-1h1v-1h1v1h-1ZM901,458h-1v-2h1v1ZM906,466v-1ZM902,454v2l1,2v1l1,1v2l-2,1h-1v-3l1,-1h1l-1,-1v-1l-1,-1v-2h-1l1,-1h1Z"/>
<path class="sl" d="M905,458l-1,-1v-1h1v1ZM955,325l-1,-1v-1l-1,-1v-3l-1,-1v-2l-1,-1v-1l-1,-2v-1l1,1v-1l1,1v1h1l1,1v1h1v2l1,1h1v1h-1h1v1l2,2l1,2v1h1v2h-1v-1l-1,-1h-1v1h-1v-1l-1,-1v4l-1,-1v-1ZM979,362v-2l-1,-1v-1v1h1v2ZM909,273l1,1h1l1,1h2v1h1v1h1l4,4v1h1l1,1h1l2,3l3,3v-1l1,1v1h1v1l-1,-1l1,1v1v-1l1,1v1h1v1h1l1,1v1h2v2l1,1h-1h1v1h1l4,4v1h1v1h-2v1v-1h-2v-1h-2l-1,-1h-3v-5l-1,-1h-1v-1h-1l-2,-2v-1h-1v-1l-1,-1v-1l-1,-1v-1h-2v-1l-3,-2h-1v-1h-1v-1l-1,-1h-2v-2h-1l1,1h-1v-1h-2l-1,-1v-1h1v-1h-1v-1h-1l-3,-1v2h-1v1h-2l1,1h-1l-1,1v-1h-2l1,-1h1l-1,-1v-3l3,-2h3ZM927,287v1v-1l-1,-1ZM925,284h-1v-1v1ZM922,282h1l1,1h-1v-1ZM926,286l-1,-1v-1v1h1ZM911,285h-1l-1,-1h1l-1,-1v-2l1,1v1l1,1ZM919,280h1l-1,-1h-1ZM959,447l-1,1v-1ZM561,55l1,1h2v1h-1h1v-1h2v3h-4v-1l1,1h1l-2,-1h-1v-1h-1v-1h-1v-1h1ZM567,59l1,1v1l-1,-1v1h3l-1,1h1v1h2v1l-1,-1h-1l-1,-1h-1l-2,-1h-1v-1h-1l-1,-1h3ZM596,71l2,1h3l2,1h2l1,1h1v1h2l3,3h2l2,1h1l3,3v-1v1l1,1h-3l-1,-1h-2l-2,-1h-2l-1,-1h1l1,-1l-1,-1v1h-2l-1,1v-1h-1v-1h-2v-1h-3l-1,-1h1h-1v-1h-4v-1h-2v-1h-3v-1h2v-1h-1v1h-2l-1,-1h-1v-1h3ZM556,3h1h-2ZM558,3l1,1h1h-1h1h-3v-1h-1h1ZM553,3h1h-1h1l1,1l-1,-1l1,1h-1h1h-2l-1,-1h-1l1,1h-1l-1,-1v1h1h-2v-1h-1l1,1h-1l-1,-1h-1h6ZM572,6h6v1h1h-8l-1,-1h-1h1h-4v-1h-8v-1h-1h2l1,1l-1,-1h-1h1h-1h4v1h7v1h3l-2,-1h-1h1h-1h2v1ZM575,9h2v-1h-1h1l1,1h4v1h2v-1h1l1,1h4l1,1h3v1h1v-1h-4v-1h-2l-3,-1h2l2,1h4v1h2l3,1h2l1,1h2v1h4l1,1h4l1,1h4v1h1h-1h1h-2l1,1v-1h1v1h3v1h-2v-1h-6v-1h-4v-1h-2l1,1h-9l-2,-1h-4l-1,-1h-1l-2,-1h-7v-1h-3l-1,-1h7v1h4l-3,-1h-7l-1,-1h-6l-1,-1h1h-2v-1h-4v-1h1h-1h8ZM558,6h7l2,1h1h-1l-1,1h-2v1h1h-8l-1,-1h-6v-1h1h-1l1,-1h-1v-1h-1h6l2,1ZM601,10l1,1h1h-1l-1,-1h-4l-1,-1h-1h1l2,1h2ZM597,10l3,1h4l1,1h3v1h4l1,1h2l1,1l-2,-1h-1l2,1h1h-2v-1h-3l-2,-1h-4v-1h-4l-1,-1h-1h2l1,1h1l-1,-1l1,1l-1,-1h-1h1h-2l-2,-1h-1h1l1,1l-1,-1h-1h1ZM681,35h-1h2v1h3l1,1h1l1,1h2l1,1h1l2,1h1v1h3v1h2v1l-1,-1h-2v-1h-1l-1,-1h-3v-1h-1h1v1h1l1,1h-1h2v1h-1v-1h-1l-3,-1v-1h-3l-1,-1h-1l-1,-1h-1v-1h-2l-1,-1l-2,-1h-1l-1,-1h-1h2v1h2ZM586,7v1h5l1,1h1h-1h1h-3v-1h-5l-1,-1h-1h1h1l1,1l-1,-1h-1h1h-1h1ZM566,4h-1Z"/>
<path class="sp" d="M564,4h2"/>
<path class="sl" d="M609,12h-2l-1,-1h1h-5l-1,-1h-1h2l1,1h3l1,1h1ZM591,8h-1ZM587,8l-1,-1h-1l1,1h2Z"/>
<path class="sp" d="M599,10h3l1,1h3l1,1h2M588,8h3M585,7l1,1h2"/>
<path class="sl" d="M607,12h3l1,1h4v1h1h-1h1h-1h3v1h1h-2l-1,-1h-2l-2,-1h-3l-1,-1h-1h1h-2v-1h-1h1v1ZM628,19h2l2,1h2l1,1h2v1l-2,-1h-2l-1,-1h-4l-1,-1h1h-2v-1l1,1h1h-1l-1,-1h-1h3ZM852,145l-1,-1l1,1l-1,-1l2,2h1v1l1,1v1v-1l1,1l-2,-2v1v-1l-2,-2l-2,-1v-1h-1h1h-1v-1l-1,-1l1,1l-1,-1l3,3ZM828,123h1l-1,-1h-1l1,1h1v1l1,1h1h-1h1l3,3h1v1l1,1h1l3,3v1h1v1h1l3,3v1h1l1,1l-3,-3h-1h1l-1,-1h-1h1v1h1l2,2h-1v-1h-1h1v1h1h-1v-1h-1v-1h-1v-1h-1v-1h-2v-1h-1v-1l-2,-2h-1l-1,-1v-1l-3,-3h-1l-2,-2v1v-1h-1v-1h-1h1v1l2,2h1l1,1v1h1v1h1v1h1v1h1v1h1v1h1v1v-1h-1v1h1l-1,-1v1l1,1v-1h-2l-1,-1h-1l-1,-1h-1v-2h-1v-1l-1,-1h-1v-2h-1v-2l-2,-2h-1v-1l-5,-5h1v1h1l5,5Z"/>
<path class="sp" d="M847,140l5,5M841,135h1l3,3v1h1l1,1M821,117h1l6,6"/>
<path class="sl" d="M704,43h-2v-1h-1l1,1v-1h-1l1,1l-1,-1v1v-1h-2l-1,-1h-1l-1,-1h-2v-1h-2v-1v1h2l1,1h1l1,1h1h-1v-1h-1h1l2,2h2l1,1h1ZM625,16h2l1,1h3v1h3l1,1h3v1h2h-2v-1h-3l-1,-1h-1h1h-3v-1h-4v-1h-1h1l1,1h3l1,1h2l1,1h3l1,1h2l1,1h3l1,1h2l1,1h2l1,1h1h-1h3v1l-2,-1h-1l-1,-1h-3v-1h-4l-1,-1h-2l-1,-1h-2l-2,-1h-2l-1,-1l1,1h1h-1v-1h-4v-1h-3l-1,-1h-3v-1h-4v-1h-1h1l1,1h3Z"/>
<path class="sp" d="M696,40h1l2,2h2l1,1h1M626,16h1l1,1h3l1,1h2l1,1h3l1,1h2l1,1h3l1,1h2l1,1h2l1,1h2M618,14h1l1,1h3"/>
<path class="sl" d="M838,132v-1l1,1Z"/>
<path class="sp" d="M838,131l1,1"/>
<path class="sl" d="M702,44h1v1h2v1h-1v-1h-2l-1,-1ZM710,47h1v1h2v1h1l1,1h1h-1l-1,-1h-1l-1,-1h-1ZM679,33h-1l-1,-1h-1h1l1,1Z"/>
<path class="sp" d="M675,32h2l1,1h1"/>
<path class="sl" d="M772,86h-1l-1,-1l-2,-1h-1v-1l1,1l2,1h1ZM754,72h-1v-1v1ZM753,72h1l1,1l-1,-1h-1l2,1h-1h1l-2,-1h1v1v-1h-1l-1,-1h-1v-1h-1h1l1,1h1v1v-1h-1l-1,-1h-1h1l1,1h1ZM752,71h-1v-1v1ZM572,5h-5l-1,-1h1v1h4ZM593,10h-3v-1h-1h2v1h1ZM582,7h-3v-1h-1h1l1,1h1ZM576,6h1h-2ZM555,4h-1ZM554,3h-1h2ZM569,54h1ZM573,65v-1h-1h1ZM574,57h-3v-1h2ZM577,60l-2,-1h-1v-1h2v1ZM571,53h1v-1v1ZM584,61l1,1v2l-1,-1v-1h-2v-1h-1v-1h2ZM604,77v1l-1,-1ZM614,77h-2v-1h-1h1l1,1ZM601,76h-2v-1h1ZM607,74v1v-1l-1,-1h1v1h1ZM583,63l-1,-1h-1v-1v1h2ZM590,67v1v-1h-1v-1v1ZM586,63h-1v-1h1ZM580,61l-1,-1h1ZM581,60h-1v-1v1ZM620,81h-1v-1v1Z"/>
<path class="sp" d="M831,125v0"/>
<path class="sl" d="M851,144l-1,-1ZM848,141h-1v-1v1ZM832,130h-1v-1v1ZM831,130v-1h-1h1ZM828,125v-1ZM748,69l-1,-1ZM743,66h1h-1v-1ZM750,70h-1v-1ZM770,84h1ZM780,91h-1v-1ZM620,80v1l-1,-1h-1v-1l1,1ZM609,75h-1v-1h1ZM705,44l1,1h2v1l-2,-1h-1ZM595,9h-1ZM728,57l-1,-1ZM609,13l-1,-1h-1h2ZM598,10h-1ZM601,11h-1l-1,-1h1v1ZM643,22h1ZM644,22h-1ZM717,50v-1h-1h1ZM724,54h-1ZM669,30v-1h-1h1ZM708,45h-1l-2,-1l1,1h1ZM658,26l-1,-1l1,1v-1h-1Z"/>
<path class="sp" d="M657,25l1,1"/>
<path class="sl" d="M702,43h-1ZM677,33h1h-2ZM664,28l-1,-1Z"/>
<path class="sp" d="M663,27l1,1"/>
<path class="sl" d="M644,21v1h1h-1v-1h-1ZM679,34h1l1,1l-1,-1v1v-1h-2l-1,-1h-1h1l1,1ZM661,27h-2l-1,-1h-1h1l1,1h1ZM679,34h-2v-1h-1h1l1,1ZM685,42h-1ZM580,6h-1h1v1Z"/>
<path class="sp" d="M568,5v0"/>
<path class="sl" d="M573,5h-1Z"/>
<path class="sp" d="M572,5h1"/>
<path class="sl" d="M594,9h-1h1h-1ZM601,11v-1h-1h1ZM549,4h1ZM559,4h-1ZM584,8l-1,-1h-1h2ZM627,19v1l-1,-1h-1h1ZM626,19h-1ZM617,16h-2v-1v1h1ZM632,19l1,1h1h-2v-1v1h1h-1v-1h-1ZM621,18h-1v-1ZM624,19h-1ZM619,19h-2v-1v1h1ZM615,20h-1ZM609,18v1h1h-1ZM617,21h1ZM609,18h-1ZM517,10h1ZM898,308v-2ZM900,312v1l-1,-1v-1h1h-1h1ZM985,382v-1ZM920,270v1v-1l1,1v1l1,1v1l-1,-1v-1l-1,-1l-1,-2h1ZM916,258l-1,-1v-1l-1,-1v-2h-1v-1l-2,-2h1v1l2,2l1,2v2ZM943,299v1h-1l-1,-1v-1h1v1v-1ZM918,266l1,1v2l-1,-1v-1h-1l-1,-1h1h-1v-3l-1,-1h1v2h1l1,1ZM909,250l1,1v-1l1,1h-3l-1,-1h1v1h1v-1h-1v-1ZM935,286v-1h-1v-1l1,1ZM930,275l-1,-1h1ZM936,289v1v-3l1,2ZM919,261l1,1v1l1,1v1h1v2h1v1l-1,-1v-2h-1v-1l-3,-3ZM928,278l-1,-1v-1l1,1ZM933,283v1l-1,-2l-1,-1v-1h-1v-2h-1v-1v1l1,1v1l2,2v1ZM927,273v-1h-1l-1,-2v-1h-1v-1v1l2,2ZM939,289v1h1h-1v-1h-1ZM942,296v1ZM25,657v-2l-1,-1v-2l-1,-1v-2l-1,-1v-3l-1,-1v1l1,1v1l1,2v-1l-1,-1v-2l-1,-1v-2l-1,-1v-1v1v-1v1v-3l-1,-1v-1v1v-3l-1,-1v-3h-1v-4h-1v-4l-1,-1l1,1v1v-2l-1,-1v-1v1v-3l1,1v2l1,2v1l1,2v1v-3h-1v-1h1v2h1l-1,-1v-1l1,1l-1,-1v-4l-1,1v-3l-1,-2v-4l-1,-1v-5l-1,-1v-6h1v-5l-1,-1v-2h-1v-2l1,1v1v-1l1,1v1h1l1,1l1,-1v2h1v-1h1v-1v2h1v-1l-1,-1v-2l1,1v1v-1v1h1v6l1,2l-1,1v3l1,2v3l1,1v6l1,1h1v1l1,1v1l1,1v1h1l2,2l1,2l2,2v-1l2,2v1l1,1l1,2h2v-6l-1,-4v-5l-1,-1v-3l-1,-3v-2l-1,-1l-1,-4v-2l-1,-1v-2l-1,-2v-3l-1,-3l1,-1v-1l-1,-1v-2l-1,-2v-1h1l-1,-1v-5l-1,-3l1,-1v-1v1l1,1v1l1,1v3l1,1v1h1v3l1,1v2h1v1l1,2v3l1,3v1l1,1v1l1,2h1v-2l1,1v1l2,2h1v2l1,1v2l1,2v2l1,1v1l1,1v2l1,1l1,2l1,1l2,4v3l1,2v1l1,2h1v2l2,2v1h2v1h1v-1v1h1v1l1,1h1v1h1l1,1h1l1,1v1l1,1h-1v1l4,4v1l1,2h1v2l2,4h1v1l1,-1v1l1,1v-1l-2,-2l1,-1v1l1,1h1v1h1l-1,-1v-1l1,1v1l1,3l2,4l4,4h2v1l2,2v1h1l3,3v1l2,2l1,2l2,2l3,8l1,2l1,1l2,3v1l2,2l1,3l2,2v4l1,2l1,3l1,1v1l1,3l1,1v2l1,1v1l1,2l1,3v2l1,2l1,1v4h-1l1,2v2l1,1v2l1,1v1l1,2v2l1,2l1,1v1h1h-1v1h1v1l1,3v2l2,2l1,2v1l1,1v1l3,3v2h1l-1,1l1,1l-1,1h-1l-2,1v4l1,3l-1,1v1l1,1v-1l1,1v1l-2,-2v1l-2,-2v1v-1h-1v-1h-1v-1h-1l1,1v1h-1l-1,-1h1v-1h-1v-1h-1v-1h-1v2h1l1,1h-1v2l1,2v1h-1l-1,-1h-1l-1,-1h-2v1h-1l-2,-2h-1l-1,-1l-2,-1l-3,-3v-1l-2,-2v-1l-2,-2l-2,-1v-1l-2,-2h-1v-1h1l-1,-1h-1v1h1h-1v1h1l-1,1l-1,-1v-2l-2,-2l-1,-2v-1l-2,-1l-1,-1v-1v2l1,1l1,2l2,3h-1v1l-1,-2v-2l-2,-2v-1l-1,-1l-2,-3v-2l-2,-2v-1l-1,-1l-1,-2l-1,-1v1l1,1v1l1,1v1l1,2l1,1v4l2,3v1l1,1v1l1,1l-1,-1h-1v-1h-1h1l-1,-1l-1,-2h-1v-1h-1l-1,-1v-1l-2,-2v-1h-1l-3,-3h1l-3,-3h-1l-2,-1v1l-3,-3v2l-1,1v1l2,4v2l1,1l-1,1l1,2l1,1l1,3l1,1v1l2,3l1,1l1,2v1h1h-1l1,2v-1h-1h1v1l1,1v1l1,1l1,2l1,1l-1,-1v-1l-3,-3v-1l-2,-2v-1l-1,-1v-1l-2,-2v-1l-2,-2v-1l-3,-3v-1l-1,-1v-1l-2,-2v-1l-1,-1v-1l-2,-2v-1l-1,-1v-1l-1,-1v-1l-2,-2v-1l-1,-1v-1l-1,-1v-1l-1,-1v-1l-1,-1v-1l-2,-2v-1l-1,-1v-1l-1,-1v-1l-1,-1v-1l-1,-1v-1l-1,-1v-1l-1,-1v-1l-1,-1v-1l-1,-1v-1l-1,-1v-1l-1,-1v-1l-1,-1v-1l-1,-1v-1l-1,-1v-1l-1,-1v-1l-1,-1v-1l-1,-1v-1l-1,-1v-2l-1,-1v-1l-1,-1v-1l-1,-1v-2l-1,-1v-1l-1,-1v-2l-1,-1v-1l-1,-1v-2l-1,-1v-1l-1,-1v-1l-1,-1v-2l-1,-1v-1l-1,-1v-3l-1,-1v-1l-1,-1v-2l-1,-1v-2l-1,-1v-2l-1,-1v-2Z"/>
<path class="sp" d="M25,657v-2l-1,-1v-2l-1,-1v-2l-1,-1v-1M90,786l-1,-1v-1l-3,-3v-1l-2,-2v-1l-1,-1v-1l-2,-2v-1l-2,-2v-1l-3,-3v-1l-1,-1v-1l-2,-2v-1l-1,-1v-1l-2,-2v-1l-1,-1v-1l-1,-1v-1l-2,-2v-1l-1,-1v-1l-1,-1v-1l-1,-1v-1l-1,-1v-1l-2,-2v-1l-1,-1v-1l-1,-1v-1l-1,-1v-1l-1,-1v-1l-1,-1v-1l-1,-1v-1l-1,-1v-1l-1,-1v-1l-1,-1v-1l-1,-1v-1l-1,-1v-1l-1,-1v-1l-1,-1v-1l-1,-1v-1l-1,-1v-1l-1,-1v-1l-1,-1v-2l-1,-1v-1l-1,-1v-1l-1,-1v-2l-1,-1v-1l-1,-1v-2l-1,-1v-1l-1,-1v-2l-1,-1v-1l-1,-1v-1l-1,-1v-2l-1,-1v-1l-1,-1v-3l-1,-1v-1l-1,-1v-2l-1,-1v-2l-1,-1v-2l-1,-1v-2l-1,-1"/>
<path class="sl" d="M102,682h-1v-1l-1,-1v-5h-1v-1l1,1v1l1,4v2ZM36,623h-1v1v-3l1,1ZM24,603v-1v1l1,1h-1h1v3h-1v-5ZM12,593h1v1h-1v1v-3ZM12,590v-1v1v-2l1,1v4h-1v-3l-1,-1ZM104,775h1v1h-1l1,1v1v-1h-1v1h-1v-1h-1v-3h1v1ZM132,786h-1l1,-1ZM132,787h1ZM71,642h-1v-1ZM70,641v-1ZM87,666h1v1l1,1h-1ZM82,657h-1v-1ZM79,657v-1ZM109,695l1,2h-1v-1ZM108,694v-1l-1,-1h1v1ZM30,570v-1ZM30,565v1h-1v-1ZM29,565v-1ZM57,628v1h-1ZM19,583v-2ZM19,585v1v-2ZM29,619v1v-2h-1h1ZM28,618v-1ZM28,618v1ZM37,627v-1ZM23,604v-1ZM14,587l-1,-1v-1l1,1ZM16,624v1v-2ZM18,632v-1ZM144,803h2l1,1h2v-1h1v1v-1h-1v-1h2l-1,-1h1v-1h1v1l1,1h1v1l2,2v1l4,4h-1v-1h-1v-1v1l1,1v1h1v1l2,2v1l2,1h-1v1v-1l-2,-2v1h1v1l-2,-2v1h1v1l1,1h-1h1v1l1,1v1h-3v-1h1h-2l-2,-2h-1l-3,-3l-1,-2l2,2v-1h-1l-1,-1h-1v-1l-2,-1l-1,-1l-1,-2h-1l-1,-1v-1h-1l-1,-2l-1,-1l1,1ZM138,799h-1v-1h-1v-1h-1v-1h1v1l1,1ZM146,793l2,2v1h1h-1l-1,-1h-1v-1h-1v-1ZM163,818l1,1h-1ZM161,813v-1ZM163,817h-1v-1ZM142,801v1l-1,-1ZM149,796l1,1v1v-1v1h-1v-1ZM150,798v1ZM259,878l1,1l-2,-2ZM179,694h-1ZM12,608v1ZM975,346v1l-1,-1v-1v1ZM973,342v-1ZM599,978h-3v-1l-1,-1h1h-2l-1,1v1h-2l-1,1l-1,-1h-1v-1h1l1,-1h-3v1h-1l-1,1h-1v1h-2v1l1,-1h1l2,1l-1,1h-7l1,1h1h-2l-1,1h-3v1h3l-1,1h-1l-2,1v1h-6l-1,1h-1h2h-3v1h-5l-1,1h12l-1,1h6l-1,1h3l-3,1h3l6,-1l1,-1h3l1,-1h3l1,-1h6l1,-1h1v2h-2l-1,1h-5l-1,1h-5l-1,1h-4l-1,1h-5l-1,1h-7l-1,1h-7l-1,1h-7l-1,1h-11l-1,1h-15l-1,1h-44l-1,-1h-16l-1,-1h-9l-1,-1h-8l-1,-1h-7l-1,-1h-6l-1,-1h-6l-1,-1h-5l-1,-1h-4l-1,-1h-5l-1,-1h-3l-1,-1h-4l-1,-1h-4l-1,-1h-3l-1,-1h-3l-1,-1h-3l-1,-1h-3l-1,-1h-3l-1,-1h-2l-1,-1h-2l-1,-1h-4l-1,-1h-2l-1,-1h-2l-1,-1h-2l-1,-1h-2l-1,-1h-2l-1,-1h-2l-1,-1h-2l-1,-1h-2l-1,-1h-2l-1,-1h-1l-1,-1h-2l-1,-1h-2l-1,-1h-2l-1,-1h-1l-1,-1h-1l-1,-1h-2l-1,-1h-1l-1,-1v1h1l-1,-1l-2,-1h-1l-1,-1l-2,-1h-2l-1,-1h-1v-1l1,1h2l1,1v-1v1h2l1,1h1l1,1h1l1,1h1h-1v-1h-2v-1h-1l-1,-1h1h-1v-1h-2v-1l2,2h2l-2,-1l-1,-1h-1l-3,-3h-1h1l-1,-1h-1v-1h1l4,2v-1h1h-1l-2,-1l-2,-2h-1v-1h-1h1l-1,-1h1l-1,-1h2l1,1h1l-2,-2h2l1,1l-1,-1h8v-1h1l1,1h1v-1h-1h4l2,2h1l1,1h1h-1v-2h1l1,1h3v1h2l1,1l1,-1h3v-1h1l2,1h2l1,-1l1,1l1,-1h-1h1h-1l-1,-1h-1v-1l1,1h2l2,1h6l2,1l-1,-1h6l1,1h2l1,1h2l1,1l4,2h3l-3,-1l-1,-1v-1l2,1h3v-1h7l1,1h2l1,1h6v1v-1h1l1,1h1v1h-1h1l2,1l1,1h-1l1,1h1l1,1h-2l-1,1h-1l-1,-1h-1l2,1h3v1h-2v1h1v1l-1,-1h-1l-2,-1l1,1l2,1h1l2,1h1l1,1h-4l1,1h1l2,2h-1l1,1l1,-1l1,1h3l1,1h1v1h2l1,1h2v1h3l1,1h3v1h3v1h2v-1h-1h1l1,1h2l-1,1h-1h1h-1v1l-2,-1h-1h1l2,1h1h-1v1h2l1,1h1l1,1v-1l2,2h5l-1,1h4v1h6l1,1h2l-1,1h3l-1,-1h3l1,1h5v1h1l1,-1l1,1v-1h1v1h21l1,1v-1l3,1v-1l2,1h3v-1h-1h1h-8v-1h1h-1l-2,-1h-5l-2,-1h13v-1h2l1,-1h1l-2,-1l-1,-1v-1h-4v-1h11v-1h-3v-1h-1h1v-1h3v-1h-5l-1,-1h-5l-1,-1h-2l-1,-1h3v-1h-6l-1,-1h-1v-1h-1v-1h9l1,1l2,-1h1l1,1h2l1,1v-1h2l1,-1h-2v-1h1v1h6l-1,-1v-1h-1l-1,-1h-5l1,-1h1l3,1h2l-1,-1v-1h4l2,-1h3l1,1h1v-1h2l1,-1h7l1,-1h1l2,-1h1v1h23l1,1h10l1,-1h3l1,1h4l1,-1l2,-1h1l1,1h-1l-1,1h1l-1,1h-2l-1,1h6v-1h1v-1h3v1l-1,1h-3l-2,1h4l1,1h3v1l3,-1h4l1,1h1v1h5v-1h-1v-1h2l1,-1h-1l1,-1v-1h-1v-1h4v1h3v19ZM599,957h-3v-1l1,-1h2v1h1v1Z"/>
<path class="sp" d="M600,988v2h-2l-1,1h-5l-1,1h-5l-1,1h-4l-1,1h-5l-1,1h-7l-1,1h-7l-1,1h-7l-1,1h-11l-1,1h-15l-1,1h-44l-1,-1h-16l-1,-1h-9l-1,-1h-8l-1,-1h-7l-1,-1h-6l-1,-1h-6l-1,-1h-5l-1,-1h-4l-1,-1h-5l-1,-1h-3l-1,-1h-4l-1,-1h-4l-1,-1h-3l-1,-1h-3l-1,-1h-3l-1,-1h-3l-1,-1h-3l-1,-1h-2l-1,-1h-2l-1,-1h-4l-1,-1h-2l-1,-1h-2l-1,-1h-2l-1,-1h-2l-1,-1h-2l-1,-1h-2l-1,-1h-2l-1,-1h-2l-1,-1h-2l-1,-1h-1l-1,-1h-2l-1,-1h-2l-1,-1h-2l-1,-1h-1l-1,-1h-1l-1,-1h-2l-1,-1h-1M600,959v19M600,956v1"/>
<path class="sl" d="M600,987h-5v1h-4l-2,1h-9l-1,-1h1l1,-1h11v-1h6v-1h2Z"/>
<path class="sp" d="M600,985v2"/>
<path class="sl" d="M584,986h-4l-1,1h-1l1,-1h2v-1h-1h1l1,-1h1h-1v1h4v1h-1ZM557,955l-2,1h-1v1h-3l-1,-1h1v-1h1v-1h-1h6ZM545,952h1v1h1v1h-1h3v2h-3v-1h-1l-1,-1v-1h-1v1h-1v-1h1h-1v-1h2ZM478,973h-4l-3,-1h-2v-1h-1h1v-1h3l1,1h2l1,1h2ZM418,971h3v1h-1l-1,-1h-2v-1h1ZM581,992h1h-1l1,-1h1ZM587,991h-1l2,-1h1h-2ZM586,982h1l1,-1h7l3,-1h1v1h-6l-2,1h-4ZM424,973h-1h1h-1v-1ZM584,984h1l1,-1h1v1h-2ZM589,983v-1h1ZM593,956v-1h1ZM558,956l1,-1h2l-1,1h-1ZM540,957h-1v-1h-1h2ZM482,982h-1v-1h-1h2ZM480,978h-5v-1h4ZM398,964h-1v-1v1ZM401,967h1ZM399,959l-1,-1h1ZM353,938h-1v-1h-1h1ZM345,935v1v-1h-1ZM341,934h1h-2l-1,-1ZM583,991h1ZM564,957h-1v-1h2ZM529,956h-1v-1ZM531,956h-2l1,-1h1v1h1ZM494,963h-1ZM499,960h-1l-1,-1h2ZM496,964h-1v-1h1l1,1ZM492,964h-1h2ZM491,963h1ZM491,965h1ZM489,963h-1ZM496,961h-1ZM496,963h-1v-1h1ZM489,965h-1ZM486,973h-1ZM491,964h-1ZM484,979h-1v-1h-1h1ZM970,336l1,1Z"/>
<path class="sh" d="M444,568v-1ZM458,575v1h-1v-1ZM444,570v-1l1,1ZM462,577h1v1h-1v-1h-2l-1,-1l1,-1h1l1,1ZM549,507l1,1h1h-2v1l-1,-1ZM549,509l-1,1v-1ZM552,515v-1ZM540,500l-1,1v-2h1ZM540,505v-1h1ZM533,578h-1l1,-1h1v-1v1h-1v1h-1ZM545,501h-1v-1h1ZM534,583h-1v-1ZM532,581l-1,-1h1ZM570,585h-1v-1h-1h1ZM564,583l-1,-1h1ZM551,604h-1h1h-1v-1ZM519,563v-1ZM511,567v1v-1h-1ZM510,567h-1ZM497,561v-1h-1h1ZM494,565l-1,-1v-1v1Z"/>
<path class="sw" d="M825,140l2,2h1l1,1v-3h1l1,1h1l1,1v-1h-2v-1h3v1v-1h-1v-1v1h1v1h1v3l-1,1v1h-4v-1h1h-2l-1,-1h-1v-2h-1v-1ZM833,140h1h-1v-1ZM830,144h-1ZM737,85v1v-1h-1v1h1h-1l-2,-2h-1v-2h-1v1v-1l-1,-1h-1v-1h-1l1,1h-1v-1h-1v-1h-1l-1,-1v1v-1h-1v1v-1h-2v-1h-1l-1,-1h-1l-2,-2h-2v-1h1h-2l-4,-4h1l1,1h2l1,1v-1h-2v-1h-1l-1,-1v-1v1h1v1h1l1,1h1v1h2v1l1,1h2v1h1l2,2h1v1h1v1h2v1h1v1h1l1,1h1l1,1h1v1h1v1h1v1ZM723,77l-1,-1h-1h1ZM733,83h1ZM633,32h1h-4l-1,-1h-2v1h3v1l-1,-1v1h-1v1l-1,1h-2v1h-7l-1,-1h-5v-1h-1h4l1,1v-1h-1h1v-1h-1h1h-1h2v-1h-2l-1,-1h-2v-1h-1h2l1,1h4v1h2l1,1h5v-2h5l1,1ZM627,33h1h-2v1l-1,-1h-1v1h4v-1ZM833,134v1h1v1h1v1h1v1h1v2h-1l-1,-1h-1l-1,-1h-3v-1h-1v-2h3v1h1v-1h-2v-1v1v-1v1h2ZM833,135h-1ZM835,136v1v-1h-1ZM833,135v1h1ZM590,20h2v1h-1h1h-4l1,1h-2l-1,1h-2v-1h2v-1h-4v1h1h-7v-1h2v-1h-1h3l-1,-1h-9l2,-1h13l-1,1h-1h2v1h1v-1l1,1h2v-1h1ZM826,141l-1,-1h1h-1v-1l-1,-1h1v1h1v1h1v1l-1,-1ZM901,246v1h-1v-1l-1,-1v-1h1v1h1ZM924,366h1v1h-2v-1h-1l-1,-1v-1h-1v-1l-1,-1v-3l-1,-1v-1h1v1h1v1h1v1l1,1v1l2,2v1ZM965,619h-1l1,-1v-2h-1v-1v1v-2h1v-3h1v10h-1v1v-1v1h-1l1,-1v-1h1v-1l-1,-1v2ZM713,72h1v1l-1,-1h-3v-1h-2l-1,-1h-1h2l-1,-1h-1v-1h-1h1h-1v-1h1v1h1v1h1v-1v1h1h-1v1h2v1h2ZM704,127v1h-2v-1h-2v-1h-1v-1h-1v-1h-1v-1h1l1,1h1v1h1v-1h1l1,1h-1v1h1ZM704,127h-1v-1h-1l1,1ZM802,119h-1h1v1h1v2h1v1l1,1l-1,-1v1v-1l-1,-1h-1h1v1h-1h1v1l2,2v1l6,6h1v1l3,3v2h1v2h-1l-1,-1h-1v-1l-1,-1h-1v-1h-1v-1l-3,-3v-1h-1v-1h-1v-1h-1v-1l-2,-2v-1h-1v-1h-1v-2h-1v-1h-1v1l-1,-1v-1l-1,-1v-1h-1v-2h-1v-1v1h1v1h1l-1,-1h1v1v-1v1h1v-1h-1h3l1,1h1v1ZM800,119v-1ZM801,121l1,1ZM797,119v1h1ZM797,120v1h1v1h1l-1,-1v-1ZM799,115v1v-1h-2v-1h-1v-1h-4v1v-1v1l-1,-1h-1l-1,-1h-1l-1,-1h-1v-1h-1v1v-1h-1v-1h-2v-1v1h-2v1h-2l-1,-1h1v1h-1v-1l-1,-1h-4v-3l1,-1h1v-1h1l-1,-1v-1h-1h1l1,1v-1h-1v-1h1v2h1h-1v-1h1h-1v-1h-1v-1l1,1h2v1h3v1h1l1,1h1v1h1l2,2h1v1h3v1h1v1h1v1h2v1l2,2h1v1h1h-1h1v1ZM775,100v1h1v-1ZM777,104h1h-1v-1l-1,1ZM784,108l-1,-1h-1v2h1v-1v1h1h-1v-1ZM777,101h-1v-1v1ZM789,108l-1,-1h-1h1v1ZM799,115h1v1h1v1h2v1h3v1h2l1,1h1v1h2l1,1h1v1h1v1v-1v1h1l1,1h1v1h1v1h1v1h1v1v-1v1h1h-1v-1v1h1v1l-1,-1h-1v-1h-1v1v-1h-1v-1h-1v-1h-1l-1,-1h-1v-1v1h1v1h1l2,2v1h1v1l2,2l1,2h1v1h1v2l-6,-6h-1v-1h-1v1l1,1h-1v-1h-1v-1h-1h1l-1,-1v-1v1v-1l-1,-1h-1v-1l-1,-1h-1v-1h-1v-1h-1v-1h-2v-1h-1v-1h-2l-1,-1h-1h1v-1h-1h1l1,1v-1h-1v-1h-1l-1,-1ZM805,119l1,1ZM804,119v-1h-1h1v1l-1,-1v1h2ZM803,118l-1,-1h-1h1v1ZM801,116v1ZM801,116h-1v-1h-1l1,1ZM803,119h-1h1v1ZM807,120l1,1h1l1,1h1v1h1v-1h-1v-1h-1l1,1l-2,-2v1v-1h-1v1v-1h-1v-1h-1v1v-1v1v-1v1Z"/>
<path class="sw" d="M832,241v2l1,2v2l1,2v1l-1,-1v-1l-1,-1h1v-1h-1v-2l-1,-1v-2h1l-1,-1h1ZM675,49v1h1h-1h1v1h1h-3l1,-1h-2v-1h-1h1v-1l1,1ZM649,44h-3v1h1h-3l-1,-1h1v-1h2v-1h1l1,1h6l1,1h5v1l-3,-1h-7ZM798,100l1,1v1v-1l-1,-1h-1h1v1h1l3,3h1v1l-3,-3v1h1h-1h1h-1l-2,-2v-1h-1v-1h-1h1v1ZM752,93v1h1h-1v-1h-1l-1,-1h-1v1h2v1h1v1h-2l-1,-1v-1h-1l1,-1h-1h1h-2v-1v1h1v-1h-1h1l-1,-1h1v1h1l1,1h1v1ZM750,94h2v1v-1h-1ZM769,94v1h1v1h1v1h-1v-1v1l-1,-1h-1h1h-1v-1h-2v-1l1,1v-1h-1v-1h-1v-1l1,1h1h-1h1v1h1h-1h1ZM767,94v1h1ZM770,96h-1ZM681,51l1,1h1v1h-1h1l2,2v1h-1v1v-1v1h-1v-1h-1h1l-1,-1h1v1h1h-1h1v-1h-1v-1h-2v-1h-2l1,-1h-1v-1h2v1ZM840,141v1l-1,-1ZM460,35h-3v1h-6l3,-1h5ZM448,41v1h-2l-1,-1h-1h3ZM663,134v1h-1v-1h-1l1,-1h1ZM799,126h1v1l-1,-1v-1h-1h1ZM653,33h1h-1h2l1,1h-1h2v1h1h-1h1h-3v-1h-2ZM667,34h1h-3v-1h-1h2v1ZM840,138v1l2,1v1v-1l-1,-1h-1v-1l-1,-1h-1l-1,-2h-1l-1,-1v-1v1h1l-1,-1l4,4ZM703,172l1,1h-1l-1,-1l-2,-1h1ZM604,28h-5v-1h3v1h1ZM857,808v-1h1v-1h1v1h-1v1v-1ZM817,115h-1v-1h-1l-1,-1h1v1h1v1ZM840,144h1v1v-1h-1h1ZM842,145l-3,-3l1,2l1,1ZM842,145l-1,-1h1ZM666,50h1v1h1h-2v1h-1v-1h-1h1v-1ZM661,35h1l1,1h-1ZM666,42l1,1v-1h-2v-1h1v1h1l1,1h2v1h-1l-1,-1h-1ZM851,212v1l-1,-1v-1ZM764,76h-1l-1,-1h-1v-1l1,1h1v1ZM811,120h3v1h-1v-1h-1ZM758,74v-1h-1v-1h-1h1v1h1l1,1h1h-1ZM926,744h-1v1v-2h1v-1h1v1h-1ZM776,85h-1h1h-1h2v1h2v1h-1v-1h-1h1h-2ZM775,85h1v1h-1v-1h-1l-1,-1h-1h1v-1h-1h1h-1h1h-1h1l1,1v1ZM445,42l-1,1h-1l1,-1ZM954,322v1l-1,-1v-1ZM449,17h-1ZM623,38h-1v-1ZM778,87v1h1l-1,-1h-1v-1h-1h1v1ZM806,865h-3l-1,1h1h-1l1,-1v-1v1l1,-1h-1h1v-1h1l-1,1h2ZM657,42h-1h1v1l-1,-1v1v-1h-1h1h-1v-1h1l1,1h-1ZM748,79h1v1h-1ZM254,763l-1,1v-1h-1v-1h2ZM703,109h-2v-1v1v-1h1v1ZM476,9h-2v-1h1ZM670,89v-1h1v1h1v1h-1v-1ZM709,157l-2,-2h-1v1h-1v-1h-3l1,-1h1l-1,-1v-1l1,1v1l1,1h1v-1l2,2h1ZM642,45l1,1h-1v-1h-2v-1h-1h3ZM898,324v3h-1v-1h-1h1v-1h1ZM753,87h-1h2v1v-1ZM812,113l-1,-1h-1h1v1h1h-1v-1h-1h1v1v-1h-1v-1h-1h1v1h2v1h1v1ZM771,81h2v1h-1v-1v1v-1ZM839,143v-1h-1h1ZM841,144l-1,-1h1ZM841,144v-1h-1v-1l1,1ZM421,34h-1v1h-1v-1h1ZM705,121v1h-1v-1ZM708,132h-1v-1h1ZM562,17h1h-1h1ZM762,104v1v-1h-1l1,1h-1v-1Z"/>
<path class="sw" d="M767,98l1,1h-1v-1h-1ZM819,120v1h1h-1v-1h-1ZM864,801v1h-1v-1h1v-1ZM598,35h-1h1l-1,-1h1ZM808,862v-1h-1h1v-1h1v2ZM246,801v2h1v1v-1h-1v-1l-1,-1v-1v1h1v1ZM358,21h-1ZM356,22h1h-2ZM852,145l1,1l-1,-1l1,1ZM841,135v-1h-1h1ZM654,117v1h-1v-1ZM664,129v1l-1,-1h-1v-1h1v1ZM669,146h1v1h-1ZM577,15v-1h1v1h1h-1ZM814,111h-2v-1l1,1h-1h1h-1v-1v1v-1h-1h1h-1h1h-1v-1h-1h1v1h1l1,1h1v1h1h-1v-1h-1ZM561,16h-1l-1,-1h1v1ZM563,16v1h-1v-1h-1h1ZM593,23h-1v-1h1l1,1h1v1l-1,-1ZM740,75h2v1v-1h-1ZM746,86v-1h-2v-1h1v1h1ZM728,73h-1v-1h-2v-1h1v1h3v1ZM790,93l1,1h1v1v-1h-2v-1h-1h1h-1v-1v1h1h-1ZM685,61h-3v-1h-1h3v1ZM769,110h1h-1l-1,-1h1ZM847,143v1h1h-1v-1h-1ZM825,132v-1h-1v-1h-1l1,1h1ZM723,68h1v1h-2v-1ZM660,111h-1l-1,-1h2ZM714,64h-1ZM426,21l-1,1h-1v-1h1ZM421,32h1ZM426,33h-1ZM438,37h-1ZM442,35h-1ZM438,34h1ZM439,36h-1h1v1l-1,-1h-1h1ZM761,99h-1v-1l1,1v-1h-3v-1h-1v-1h-1h1h-1h2v1h2v1h1l1,1h1h-1ZM606,50h-6v1h2l1,1h1v1h1h-1v-1h-2l-1,-1h-1l-1,-1h-2l-1,-1h1v1h1v-1h-2l-3,-2h1l1,1h1v1h2l1,1h8ZM709,61v1v-1h-1ZM710,94v1v-1h-1v-1h-2v1h-1l-1,-1h-1v1h-1v1v-1h-1l-1,-1h1v1h1v-1h4v-1h1v1h1v1ZM728,97h-1v-1h-1l-1,-1h-1v-1h-4v-1v1h-1v-1h1v1h1v-1h1l1,1h1l1,1h1v1v-1h1v1h1v1h4v1h-2l-1,-1ZM555,36v-1h-1l-2,-1h-2l-1,-1h1l1,1h3v1h1ZM647,80h-1l-1,-1v-1v1h1v1ZM659,87h-1h1h-1v-1h-1h2ZM640,87v-1h-2l-1,-1h1l1,1h1ZM663,45h-1v1v-1h2ZM493,27h-1v-1ZM755,99l1,1h1h-2l-1,-1ZM755,99h1ZM668,37h-2v-1h-1h2l1,1h1l1,1h-1v-1v1ZM801,208h-2v-1h1v1h1v-1ZM816,118v1h1h-1v-1h-1l-2,-2v-1v1h1v1h1v1ZM814,276h-1l-1,-1h-2v-1h3l1,1ZM917,355v1h-1v-1h-1v-1h1v1ZM954,707v1l-1,1l1,-1l-1,1v1l-1,1v1v-1l1,-1v-1l1,-1v-1l1,-1v-2h1v-2h1l-1,1v1l-1,1ZM948,389v1h-1v-1v1h-1h1h-1v-1h1v-1v1ZM21,632v3l1,1v1v-1h-1v-3l-1,-1l1,1ZM921,768v1h-1v2h-1l1,-1l-2,2v1l-1,1v-1h1v-1l1,-1v-1h1v-1h1v-1l1,-1v-1h1l-1,1ZM732,86h1h-2l-1,-1h-1v-1h-1l-2,-2h-1v-1v1h1h-1v-1h-2l-1,-1v-1h-2v-1l1,1v-1v1h1l1,1h1h-1l-1,-1h1v1h1l1,1h1v1l1,1h1l2,1l1,1h1ZM720,79h-1l-2,-2h-1h1l1,1l-2,-2h-1v-1h-1v-1h-1v-1h-1l1,1h-1v-1h-1l-1,-1h-1h1v1h-1v-1h-1l-1,-1h1v1h1v-1l1,1h1l2,1h1l1,1v1h1v1h1v1h1v1h1ZM803,103h1l1,1h1l1,2v-1h-1l-2,-2h-1v-1h-1l-2,-2v1v-1h-1l1,1h1h-1h1h-1h1l-1,-1l1,1h1h-1l1,1h1ZM803,102h-1h1v1v-1h-1v-1h-1l1,1h1v1h1v1v-1h-1Z"/>
<path class="sw" d="M663,54h-1v-1h-1v-1l1,1h1l1,1h1v1h1l1,1h-1h1l-1,1h1h-1v-1h-3v-1h-1h1l2,1h1l-2,-2ZM830,843v1h-1v-1h-1l-2,1h-1l-1,1l1,-1h1v-1l1,-1v1l1,-1h2ZM797,261h-1ZM709,157l-2,-2h-1v1h-1v-1h-3l1,-1h1l-1,-1v-1l1,1v1l1,1h1v-1l2,2h1ZM723,146v2l-1,1v1h1h-1l-1,1h-1l-1,1v-1h1v-1h2v-2l1,-1l-1,-1ZM695,55h1v1h1h-1v1h-2v-1h1v1h1l-1,-1v-1h-1v-1h-1h1ZM246,805v-1l-1,-1h-1v-1l1,1v1h1ZM246,806h-1v-1h-1v-1h1v2ZM797,106h1v1h1l1,1h1v1h1h-1v-1h-2v-1h-1ZM710,94v1v-1h-1v-1h-2v1h-1l-1,-1h-1v1h-1v1v-1h-1l-1,-1h1v1h1v-1h4v-1h1v1h1v1ZM748,112h-1h1v1h-1h1v1h1l1,1h-1v-1h-1l-1,-1h-2v-1h2v1v-3h-2v-1v1h1l-2,-2h-1h1v-1h-1l-2,-2v-1h-1l-1,-1h1v1h1v1l2,2h1v1h1h-1l1,1h1v1h1v1h1ZM555,36v-1h-1l-2,-1h-2l-1,-1h1l1,1h3v1h1ZM647,80h-1l-1,-1v-1v1h1v1ZM631,29h-2v-1h-1h2ZM631,29h3v1l-1,-1h-1ZM759,121l1,1h1l1,1h1l1,1h-1v-1h-1l-1,-1h-1v-1h-2v-1h-1v-2h-1h1v1l1,1ZM819,229v1l-1,-1h-1h1l-2,-2h1l1,1v1ZM671,59l-1,-1h-1h1l-1,-1v-1l1,1v1h1ZM661,41v1v-1h-2l-1,-1h-1h1h-1v-1l1,1h2v1h-1h1ZM661,31h-1h1v1v-1h-1ZM784,88v1v-1h-2v-1h-1h1v1h1ZM787,90v1h1v1h1h-1v-1h-1v-1h-1l-1,-1h-1h1l1,1ZM780,86h1h-2v-1h-1h1v1h2ZM835,171l1,1v1h1l1,1v1l1,1h-1v-1l-1,-1v-1v1v-1h-1v-1l-3,-3v-1v1ZM867,194l2,2h-1h1h-1v-1h-1v-1h-1ZM636,67h1v1h-1l-1,-1h-1v-1h-1l-2,-1h1l2,1l1,1ZM888,227v-1v1l1,1h1l-1,1v-1ZM709,166l-1,-1h1v1l2,1h-1v-1ZM645,123h1h-1l-1,1v-1ZM606,23h-2v-1h1v1h4v1h4v1h1h-1v-1h-5l-1,-1ZM643,113v1h1v1h-1v-1h-1v-1ZM657,111v-1l1,1ZM840,134l1,1ZM968,677v-1ZM968,675v1Z"/>
<path class="sr" d="M968,676v1M968,675v1"/>
<path class="sw" d="M861,804h1ZM841,839h-1v1h-1l2,-2ZM213,91h-1v1h-1h1v-1ZM360,29l1,-1v1h-2l1,-1ZM100,202v-1v1l-2,2v1h-1l2,-2ZM532,29v1l-1,-1h-1h1ZM452,39h-4v-1h1v1h2ZM425,32h-1ZM458,33h1l-1,1h-1h1ZM472,33h2v1v-1h-1ZM437,31h-1ZM427,32v1h-1v-1ZM423,31h-1ZM426,28v-1h1ZM845,183h1v1l2,1v1h1h-1l-2,-2h-1ZM790,96h-1ZM752,86v1h-1v-1ZM745,82h1ZM787,96h1h-1l-1,-1v1ZM808,114h-1v-1ZM811,115l1,1h1h-1h1v1v-1h-1ZM627,27h1ZM628,27h-1ZM625,27v-1v1h1ZM625,27h-1v-1h-1h1v1ZM612,16h-1ZM639,23l1,1h-1ZM713,65h1ZM695,64h1l1,1h-1ZM684,64l-1,-1h1v1l1,1h-1ZM785,90h1v1v-1ZM616,26l-1,-1h-1h1ZM791,106h-1h1v-1ZM675,58h-1ZM654,35h1v1l-1,-1h-1ZM658,39v-1h-1h1ZM671,48h-1ZM767,77l2,1v1l2,1l-2,-1l-2,-2h-1ZM664,29l1,1ZM665,30h1h-1v-1v1v-1h-1h1ZM43,701h-1v-1l-1,-1v-1l1,1v2ZM39,686v-1l-1,-1v-3l-1,-1h1v2l1,1v2l1,1ZM85,752l-1,-1l-1,-2v-1h-1v-1h-1v-1h-1v-1h-1v-2h-1h1v1h1l1,1v1h1l1,2l1,1v1l1,1h-1ZM85,745v2h1h-1v-1l-1,-1l-1,-2v-1h-1v-2h-1v-1l-1,-1v-1l-1,1v-1l-1,-1v-1h-1v-1v1h1v1h1l2,2v1h1v1l1,2l1,1ZM85,737v1h1v1l-1,-1h-1v-2l-1,-1v-2l1,1l1,2ZM74,728v1l-1,-1v-2h1ZM74,725h-1l-1,1v-1v1v-1h-1v-1l-2,-2v-2l-1,-1v-1h-1v-1h1l2,2v1h1v2l1,2l1,1Z"/>
<path class="sb" d="M936,382v1l-1,-1v4l1,1v7l1,1M930,370v1h-1l-2,-2v-1h-2v-1v1h-1l-3,-3v1M925,337l-1,-1h-1v1h-1v1l-1,-1v1v-1v1h-2v-1l-1,-1v2h-1v1l1,1h-1v1l-1,1v1l-2,-2v2h-2v1l1,2v1h-1v2l-2,-1M901,325v1l-1,1v1h-1v1h-1v2l1,1v2M898,323h-2v-2l-1,-3v-3l-1,-2v-2l-1,-2v-2M896,339v-2h1v-1h1v-2h1v1h1v1h1v1l1,1h1v1l1,1l1,-1v1h2v3l1,1M895,303h-1v4l-1,-1h-1v1h1h-3l-2,-1h-2l-2,-1v2l1,1v2h-1l-1,-1v1h1v1l3,3h1v2l1,1h1v3h-1l-1,-1h-4v1l-1,1v4l1,1v4M832,237h-1l-1,-1h-2l-1,-1h-2v-1h-2v-1h-1l-1,-1h-1l-1,-1l-1,-2v-1l-1,-1h-1v-2h-1v-2h-1l-2,-2l-1,-2l-1,-1h-1l-1,-1v-1h-1v-1l-3,-3v-1h-1l-1,-2h-1v-1l-2,-1l-1,-1h-1v-1v1h-1l-1,-1h-2l-1,-1v1h-1v5h-1l-1,-1l-4,-2l-1,-1h-1l-1,-1h-1v-1l-2,-1v-1l-1,-1l-1,-2l-3,-3h-1l-4,-4l-2,-1h-1l-3,-3h-5l-1,-1h-4v1l1,1v1h-4l-2,-1h-7l-2,-1h-2l-7,-2l-3,-2l-10,-3l-3,-2l-4,-1v-1h-15M832,132v1l1,1v1l1,1v1h1v1h-1l-1,-1h-2v-1v1h-1l1,1h1l1,1v1h1v2l-1,1h-2v2l-1,-1h-1l-3,-3v-1l-1,-1v-1l-2,-2v-1l-8,-8l-2,-1l-1,-1v-1l-2,-2h-1l-2,-1l-1,-1h-1v-1h-1v-1h-2v-1h-1v-1h-1v-1h-2l-1,-1h-1l-2,-2h-1l-2,-2h-1l-1,-1h-1l-2,-2h-1l-2,-1l-1,-1l-2,-1h-1l-1,-1h-5l-1,-1h-2l-1,-1l-1,1l-1,-1h-1l-1,-1h-2v-1h-1l-1,-1h-2v-1h-1v1h-1v-1h-1l-2,-1h-2v-1h-1l-1,-1v-1h-1l-1,-1l2,2h-4l-2,-1h-3l-2,-1h-5l-2,-1h-5l-2,-1h-5l-2,-1h-5l-2,-1h-6l-2,-1h-6l-2,-1h-8l-2,-1h-8l-2,-1h-8l-2,-1h-9l-2,-1h-11l-2,-1h-11l-2,-1h-5M511,10v1h1v3h1v4l1,1v4h1v5l1,1v4h8l1,1h2l1,1h1l1,1h2v1h1h-1h4l1,-1v-1h6v1h1v1h2l1,1h2l1,1h1l2,2h1l1,1h1l2,2h1h-1h1l1,1h1v1h2l1,1h3l1,1h3v1M932,745h-1v1l-1,1v1l-1,1v1h-1v1l-1,1v1l-2,2v1h-1v1l-1,1v1h-1v1l-1,1M951,713l-4,8v1h-1v1l-1,1v1h-1v1v-1v1h-1v-2l1,-1v-1h-1l1,-1v-1h1v-2h1v-1l1,-1v-1l1,-1v-1h1v-1l1,-1v-1l1,-1v-1l1,-2v-2l1,-1v-3l1,-1v-2l1,-2v-6l1,-1v-3l2,-4v-4M950,676v2l-1,2l-2,3l-1,2v1h-1l-1,1h-1v1h-1v1h-1v2h-1v2l-2,2v2l-1,1l-1,3l-1,1v2h-1v3l-1,1h-1v1v-1l-1,1l-1,2l-1,1v1l-3,3v1l-3,3l-1,2v1h-1v1l-2,4h-1v2h-1h1l-1,1v1h-1v1h-1l-1,1v1l-1,1v1h-1v1h-1v1l-1,1v1l-1,2v1h-1v1l-1,1v2l-2,2v2h-1v1h-1v1h1l-1,1v1l-1,1h-1l-1,2v1l-4,4v1h-1v1l-2,2v1h-1v1l-1,1v1l-2,2h-1v1h-1v1h-1v1h-1v1h-1v1h-1v2h-1l-1,1v1l-2,2v1l-2,2v1l-1,1v1h-1v1h-1v1h-1l-2,2v1h-1l-1,1v1v-1l-2,2v1h-1v1h-1v2h-1l-3,3v1l-3,3v1h-1l-2,2v1l-1,1v-1v1h-1v1l-1,1h-1v1l-2,2v1l-1,1h-1v2h-1v1h-1v1h-1v1l-1,1h-1v3h-1l-1,1h-2v3h-1v1h-1l-4,4h-1v1h-1v1l-2,2h-1v1h-1v1h-1v1h-1l-1,1h-1v1h-1l-3,3v1l-1,1h-2l-1,1v1h-1v1h-2l-2,2v-1l-8,8v1h-1h2l-1,1v1h-1v1h-1l-2,2h-1v1l-1,1v1h-1l1,1h1l1,1v3"/>
<path class="sb" d="M969,666v-3h1v-3l1,-2l-1,-1h-3v1l-1,2l-1,1v1l-2,4v2l-2,3l-2,4v2h-1l1,-1v-1l-1,-1h-1l-1,2v1l-1,1v2h-1l1,-1v-2l1,-1v-3l-1,-1v-3l-1,1v2h-1l-2,2v1l-1,1h-1v-2l1,-1v-2l1,-1v-3l1,-1v-1l1,-1v-3l1,-1v-3h1v-4l1,-1v-1h1v-3l1,-1v-4l1,-1v-3l1,-1v-3h1l-1,-1l1,-2v-2M975,574l-1,2v13l-1,1v1l-1,1l-1,4v3l-1,2v2l-1,1v2h-1v2l-1,1v3l-1,2v1l-1,4v3h-1v2l-1,1v1h-1v1h-1v3l-1,1v1l-1,1v1l-1,1v1h-1M968,474h-1v-1v1l1,1v7l-1,2v3l-1,1l-1,2v1l-2,2v1h-1l-1,1h-2v1l-1,1v1h-1v5h-1v5h-1v2h-1v1h-1v-4l-1,-1h-1v-2h-1v1h-1v-1l1,-1h-1v-2h1v-5M981,516v-4h-1v-2l1,-3v-3l1,-1v-1h-1v-2h-1v-2h-1l-1,-1v-1h-1v1h-1v1v-1h-1v-1h-1v-5l-1,-1v-5h-1v-2h-1v-5l-1,-1v-2h-1v-2h-1v1v-1l-1,-1v-1h-1v-2l-1,-1v1h-2v-1h-1v-1h-1v-3l-2,-2v-1l-1,-1l-1,-2v-1l-1,-1M989,473v-2l-1,-1v-8l-1,-1v-3h-1l1,-3v-4l-1,-1v-6h-1v-15h-1v-1v1h-1l-1,-1h-1l-1,-2v-2l-1,-2v-2h-1v-1h-1v-1h-1l-1,-1h-1v-1l-1,-1v-2h-1v-6l-1,-1v-2l-1,-2v-2l-1,-2v-1h-1v-7l-1,-1v-7l1,-1v-4h1M995,447v-2l-1,-2v-9h-1h1v-1v1v-3l-1,-1v-8l-1,-2M999,481v-14h-1v-12l-1,-1v-1h1l-1,-1v-3M916,776v-1l1,-1l1,-2l2,-2v-1h1v-1l1,-1v-1l1,-1v-1h1v-2l1,-1v-1l1,-1v-1l1,-1v-1l1,-1v-1l1,-1v-1v1h-1v1v-1h1v-2h1v-1l2,-4v-1l-1,1l1,-1v-1h1v-1l1,-1v-1l4,-4v-1l1,-1v-1h1v-1v1v-1l1,-1v-1h1v-1h1v-2h1v-1h1v-1l1,-1v-1l1,-1l1,-2v-1l1,-2v-1l2,-2v-2l1,-1v-1l1,-1l3,-6v-2h1v-4h1v-2h1v-2l1,-1v-1l1,-1v-2h1v-3h1v-2l-1,1v-1l1,-1l-1,1v-1l1,-1h-1h1v-2l1,-1v-2l1,-1v-1l1,-1v-2h1v-2l1,-1v-2l1,-1v-1l1,-2v-1l1,-2v-1l1,-1v-2l1,-1l1,-2v-2l1,-1v-2l1,-2v-4h1v-3l1,-2v-1l1,-1v-2h-1v-3l1,-2v-1l1,-2v-4h1l1,-4v-4h1v-6l-1,-1l1,-1v-4h-1v-2l1,-1v-1l-1,1v-3l-1,-1v-1l1,-1l-1,-1v-3l1,-1h-1l1,-1v-5l1,-2v-4l1,-1v-5h-2v1l-1,2h-1l-1,1v1h-1v1l-1,1v1h-1v-1l-1,-1v-1h-3v-1v-1l1,-2v-4l1,-1v-4l1,-1h-1v1l-1,1v1l-1,1h-1v-1h-1v-5h-1v-1h-1v-1l1,-2v-6h-1v-10h1v-4h1v-1l1,-1v-1h1v-2l-1,-1h1v-2l1,-2v-4h1v-1h1v-1l1,-1v-1h3v-1h1v1h1v1v-3l1,-3v-5l1,-3v-10l1,-2v-2h-1v-7l-1,-1v-6h1v-1h1v1v-4h-1v-6l1,1h1v1h1v-1v1h1v-2h1v8h1v3l1,1v1l1,-1v1h1v-3h1v-1v1v-4l1,-1v-3h-1v-6l-1,-1v-7l-1,-1v-1l1,1v2h1v1v-1v1l1,1v-2l1,1v-4h1v-1l-1,-1v-1h1v-1v7l1,1v16l1,2v10h1v1v-3h1v1v-2l-1,-1v-1h1l-1,-1v1"/>
<circle class="w2" cx="500" cy="577" r="111"/>
<circle class="w2" cx="500" cy="577" r="109"/>
<circle class="c2" cx="500" cy="577" r="110"/>
<path class="sg" d="M 259.1074 937.3489 A 249.7500 38.6296, 0, 1 1, 739.8926 937.3489"/>
<path class="sg" d="M 68.6910 752.2921 A 432.5797 66.9084, 0, 1 1, 930.3090 752.2921"/>
<path class="sg" d="M 0.0000 499.5000 A 499.5000 77.2592, 0, 1 1, 999.0000 499.5000"/>
<path class="sg" d="M 68.6910 246.7079 A 432.5797 66.9084, 0, 0 1, 930.3090 246.7079"/>
<path class="sg" d="M 259.1074 61.6511 A 249.7500 38.6296, 0, 0 1, 739.8926 61.6511"/>
<path class="sg" d="M 445.2020 2.9600 A 284.8852 499.5000, -186.24064724, 0 0, 553.7980 996.0400"/>
<path class="sg" d="M 492.3880 0.0506 A 45.2410 499.5000, -180.81582162, 0 0, 506.6120 998.9494"/>
<path class="sg" d="M 535.0105 1.2639 A 206.5255 499.5000, -175.92328314, 0 1, 463.9895 997.7361"/>
<path class="sg" d="M 606.2537 11.5411 A 402.9537 499.5000, -167.65948775, 0 1, 392.7463 987.4589"/>
<path class="sg" d="M 928.7215 244.0216 A 491.4107 499.5000, -120.76167482, 0 1, 70.2785 754.9784"/>
<path class="sg" d="M 340.5503 25.9652 A 448.1947 499.5000, -198.55516458, 0 0, 658.4497 973.0348"/>
<text x="0" y="0" class="fs" transform="translate(455,297) rotate(91)">150W</text>
<text x="0" y="0" class="ft" transform="translate(455,297) rotate(91)">150W</text>
<text x="0" y="0" class="fs" transform="translate(701,304) rotate(84)">120W</text>
<text x="0" y="0" class="ft" transform="translate(701,304) rotate(84)">120W</text>
<text x="0" y="0" class="fs" transform="translate(893,329) rotate(78)">90W</text>
<text x="0" y="0" class="ft" transform="translate(893,329) rotate(78)">90W</text>
<text x="0" y="0" class="fs" transform="translate(61,341) rotate(101)">150E</text>
<text x="0" y="0" class="ft" transform="translate(61,341) rotate(101)">150E</text>
<text x="0" y="0" class="fs" transform="translate(221,311) rotate(96)">180W</text>
<text x="0" y="0" class="ft" transform="translate(221,311) rotate(96)">180W</text>
<text x="0" y="0" class="fs" transform="translate(353,893) rotate(-6)">60S</text>
<text x="0" y="0" class="ft" transform="translate(353,893) rotate(-6)">60S</text>
<text x="0" y="0" class="fs" transform="translate(249,688) rotate(-7)">30S</text>
<text x="0" y="0" class="ft" transform="translate(249,688) rotate(-7)">30S</text>
<text x="0" y="0" class="fs" transform="translate(211,432) rotate(-6)">0N</text>
<text x="0" y="0" class="ft" transform="translate(211,432) rotate(-6)">0N</text>
<text x="0" y="0" class="fs" transform="translate(251,195) rotate(-5)">30N</text>
<text x="0" y="0" class="ft" transform="translate(251,195) rotate(-5)">30N</text>
<path class="tb" d="M127,998h-2l-1,-1h-2l-1,-1h-2l-1,-1h-2v-1h-3v-1h-2l-1,-1h-2v-1h-2l-1,-1h-2v-1h-2v-1h-2l-1,-1h-2v-1h-2v-1h-2v-1h-2v-1h-2v-1h-2v-1h-2v-1h-2v-1h-2v-1h-1l-1,-1h-1v-1h-2v-1h-2v-1h-1v-1h-2v-1h-1l-1,-1h-1v-1h-2v-1h-1v-1h-2v-1h-1v-1h-1l-1,-1h-1v-1h-1v-1h-1l-1,-1h-1v-1h-1v-1h-1v-1h-2v-1h-1v-1h-1v-1h-1v-1h-1l-2,-2h-1v-1h-1v-1h-1v-1h-1v-1h-1v-1h-1v-1h-1v-1h-1v-1h-1v-1h-1v-1h-1v-1h-1v-1h-1v-2h-1v-1h-1v-1h-1v-1h-1v-1l-1,-1v-1h-1v-1h-1v-1l-1,-1v-1h-1v-1l-1,-1v-1h-1v-1l-1,-1v-1h-1v-2h-1v-2h-1v-1l-1,-1v-1l-1,-1v-1l-1,-1v-2h-1v-2h-1v-3h-1v-2h-1v-4h-1v-3h-1v-5h-1v-6l-1,-1v-17h1v-7h1v-4l1,-1v-3h1v-3h1v-3h1v-2l1,-1v-2h1v-2h1v-2h1v-2h1v-2h1v-2h1v-2h1v-1h1v-2h1v-1h1v-2h1v-1h1v-1l1,-1v-1h1v-1h1v-1l1,-1v-1h1v-1h1v-1h1v-1h1v-1h1v-1h1v-2h1v-1h1v-1h1v-1h1v-1h1l3,-3h1v-1h1v-1h1v-1h1v-1h1v-1h1v-1h1l1,-1h1v-1h1v-1h1v-1h1l1,-1h1v-1h1v-1h2v-1h1v-1h1v-1h2v-1h1v-1h2v-1h1v-1h2v-1h1l1,-1h1v-1h2v-1h1l1,-1h1v-1h2v-1h2v-1h2v-1h1l1,-1h1l1,-1h1l1,-1h1l1,-1h1l1,-1h2v-1h2v-1h2v-1h2l1,-1h2v-1h2v-1h2l1,-1h2v-1h3v-1h2l1,-1h2v-1h3v-1h3v-1h159v1h3v1h3v1h2l1,1h2v1h3v1h2l1,1h2v1h2v1h2l1,1h2v1h2v1h2v1h2l1,1h1l1,1h1l1,1h1l1,1h1l1,1h1v1h2v1h2v1h2v1h1l1,1h1v1h2v1h1l1,1h1v1h2v1h1v1h2v1h1v1h2v1h1v1h1v1h2v1h1v1h1l1,1h1v1h1v1h1v1h1l1,1h1v1h1v1h1v1h1v1h1v1h1v1h1l3,3h1v1h1v1h1v1h1v1h1v2h1v1h1v1h1v1h1v1h1v1h1v1l1,1v1h1v1h1v1l1,1v1h1v1h1v2h1v1h1v2h1v1h1v2h1v2h1v2h1v2h1v2h1v2h1v2l1,1v2h1v3h1v3h1v3l1,1v4h1v7h1v17l-1,1v6h-1v5h-1v3h-1v4h-1v2h-1v3h-1v2h-1v2l-1,1v1l-1,1v1l-1,1v1h-1v2h-1v2h-1v1l-1,1v1h-1v1l-1,1v1h-1v1l-1,1v1h-1v1h-1v1l-1,1v1h-1v1h-1v1h-1v1h-1v2h-1v1h-1v1h-1v1h-1v1h-1v1h-1v1h-1v1h-1v1h-1v1h-1v1h-1v1h-1v1h-1l-2,2h-1v1h-1v1h-1v1h-1v1h-2v1h-1v1h-1v1h-1l-1,1h-1v1h-1v1h-1l-1,1h-1v1h-1v1h-2v1h-1v1h-2v1h-1l-1,1h-1v1h-2v1h-1v1h-2v1h-2v1h-1l-1,1h-1v1h-2v1h-2v1h-2v1h-2v1h-2v1h-2v1h-2v1h-2v1h-2l-1,1h-2v1h-2v1h-2l-1,1h-2v1h-2l-1,1h-2v1h-3v1h-2l-1,1h-2l-1,1h-2l-1,1h-2Z"/>
<path class="tl" d="M169,986h1v1h-3l-1,-1h2v-1ZM114,989h-3l-1,-1h2l1,1ZM176,983h1l1,1v1h1l-1,1h-2l-1,1h-1l-1,-1l1,-1v-2h1v-1ZM124,980h2v1h-1ZM122,980l1,1h-1l-1,-1ZM136,977h1h-2ZM156,974v1l1,1h-5v-1l1,-1v-1l-1,-1l1,-1v1h1l1,1ZM158,964v1h-2v2h1l-2,2v1h1l1,1h1l4,4v1l1,1v1h-1v2h-1l-1,1h-1v1h-2l1,1h1v1h-2l1,1h1v1h3l1,1h3l1,1h3l1,1h1l1,1v-1h1v-1h2l2,-1l1,1h1v-1h4v-1h3l1,-1h-1v-1h-4l-1,-1l1,-1h1l2,-2h4l1,-1h1l2,-2h-1v-1h1v-1h2v-1l1,-1h1v1h1v-1h8v-1h3v-1h1l1,1h2v-1h1v1l1,-1h4v1h6v-1h3v-1h2v1h3l1,-1h3v-1h2l1,-1h2l1,-1h4v1h1v1h1l1,1h1l1,-1l1,1h2v1l-2,2h-1v1h1h-1v1h-1v1h2l2,-2h1v-1h3l1,-1h1v-1h2l1,-1h5v-1h1v1h5v1h1l1,-1l1,1l1,-1h1l2,-1v1l1,1h3l1,-1h2v1h1v1h4l1,-1v1h9l1,-1l-1,1v1h-1h3l1,1h2l-1,1v1h1v1h2v1h1v2h2l1,1v1h-1l-1,1h-2l-1,1h-3l-1,1h-2l-1,1h-2l-2,2v1h-5l-1,1h-2v1h-1v3h2l-11,4h-155l-11,-4h-1h2l1,-1l1,1h14l-1,-1h-7v-1h-2v-1h-3l-1,-1h4v-1h-2l-1,-1h-7l-1,-1l-2,-1l1,1l1,-1l2,1v-1h1v-1l-1,-1h-1h2v-1h2v-1h4l1,-1h5l1,-1l1,1v-1h1l1,1h1v-1l1,1h6v-1h-2l-1,-1h-1l-1,-1h4l1,1h1l1,-1h3l-1,-1h1l1,1l1,-1l1,1h3v-1l1,1h4v-1h2l1,-1v-1h-1v-1h-1v-1h-1v-1h-1v-2l-1,-1v-1h1v-2h1v-1h1v-1h1l1,-1l1,1ZM144,951l2,1h1v1h-1v-1v1h-4l-2,-2l-2,-1l2,1h2v-2h1v1ZM151,947h1v1h-2v1l-1,-1l1,-1ZM269,946h-1v-2h1l1,1ZM345,939v1h1l1,-1v1l-3,3v-1l-1,1h-1l1,-1v-1l1,-1v-1ZM368,943v1l1,-1v1h-1l-3,3h-1l-1,1h-1l-2,2h-2v1h-1v-1h-1v-1l4,-2h1l1,-1h2l2,-2h1l2,-2ZM376,936l-1,2l1,-1l-1,1l1,1h1l-2,2h-1l-2,2l-2,1h-1l2,-1v-2l1,-1l2,-1v-1l1,-1v-3l1,-1v1l1,1ZM382,913l-1,1v-2l-1,-1v-1h1v1l1,1ZM397,906v1l-1,1h-1v-1l1,-1v1ZM398,906h-1v-1h1l1,-1v1ZM10,905v-1ZM386,904v-1ZM386,901v2h-1v-1ZM259,895v2l1,1h-1v1v-1v2h-1v3l-3,6v2h-1l-1,1l-1,-1h-1v-5h1v-2l1,-1h-1v-3h1v-1h1l2,-2h1v-1l1,-1v-1l1,-1v1ZM361,898v1h1v1h1l-1,1v2h1l-1,2v1l2,2v4h1l-1,2l1,1v3l-1,1v2l-3,3v1l-1,1l-1,2h-1l-1,2h-1l-4,4v1h-2l-1,1h-1l-1,1v-1h-1l1,-1h-1l-1,1h-1v-1h-1v-3h1l-1,-1v-1l1,-1l-1,1h-1l3,-3l-2,1h-1l-1,2v-4l-2,-2h-2l-1,1h-4l-2,2h-4l-1,1v-1l-1,1h-2v-1h-1l1,-1v-1h1v-3l1,-1v-7l1,1v-3l1,-1v-1l1,-1l-1,1l2,-2h1l1,-1h2l1,-1h2v-1h1l1,-1v-2l1,-1v2l1,-1v-1h1v-1l2,-2h2v1h2v-2h1l1,-1v-1h2v-1h-1h1l1,1h3l1,1h-1v1h-1v1l-1,1v1l2,2v1h1l1,1h1v-1l1,-1v-1l1,-1v-3l1,-1v-2h1v-1v3l1,1Z"/>
<path class="tl" d="M383,894h-1v-1v1ZM337,892l-2,-1h2ZM381,893h-1v-1h1ZM382,892v-1l-1,-1h1ZM341,892h-1l3,-3h2l-1,1h-1l-1,1ZM335,889h1v1h-3l1,-1ZM340,889v1h-3v-1h2ZM381,890v1l-2,-2h1v1ZM378,889v-1h-1v-1l1,1ZM325,887h2v-1l2,1v1h2l1,1l-1,1l-1,-1h-4l-1,-1h-1l-2,-1h-1l1,-2h1l1,1ZM353,886v1v-2ZM377,888h-1v-2l-1,-1h1v2h1ZM373,885l-1,1h-1l-1,1l-1,-1h-1l1,-1l1,1v-1h2v-2h1v1ZM345,882h-1v-1h1ZM349,881v2l-1,-1h-2v-1h2ZM374,884l-1,-1v-1l-1,-1h-1h2v2h1ZM353,878v3l2,1v-2l2,-1h1l1,1h1l1,1l4,2v1h1v1l2,1v1h-1v1l1,1v2h1v1h1h-1l1,1l-1,1v-1h-2l-1,-1v-3h-3l-1,1v1h-2l-2,-2v1h-2l1,-2h1l-1,-2v-1l-2,-1h-1l-1,-2l-1,1l-1,-1h1l-1,-1l1,-1h-1v-1h-1l-1,-1h2v-1ZM343,875l-1,1h-4v1l1,2v-1h2l-1,1h-1l1,2v1l1,2v1h-1v-2l-1,1v-1l-1,-1l1,-1h-1v4h-1v-3h-1v-1l1,-1v-4h1v-1h4l1,-1ZM347,875v1h-1v1l1,1h-1v-4h1ZM321,885h-1l-2,-2v-1l-2,-2l-1,-2v-2l-1,-1v-1l-4,-4v-1h2l3,3l1,2h1l2,2h1l-1,2h1v1l1,1h1v3ZM335,874l1,1h-1v3l-1,1v1l-1,3v-1l-1,1l-1,-1h-1v-1l-1,1l-1,-1h-1l-2,-4v-2l1,-1h2v-2h2v-1l1,-1v-1h1l1,-1v-2h1v1l2,2v1h-1l-1,2l1,1ZM344,864v3l-1,-1v2l-2,-2h1l-1,-1v1l-1,-1l-1,1v-1l1,-1h2v-1h1v-1l1,1ZM294,868h-1v-1l-1,-2l1,-2l1,1v1l1,1v1ZM137,863h-1l1,-1h1ZM341,861v1l-1,1l-1,-1l1,-1v-1v1l1,-1ZM335,863l-1,1v-1l1,-1v-1l1,-1v1l-1,1ZM338,859h2v1l-1,1v-1h-1ZM342,858l1,2h-1v1v-1h-1v-1h1h-1v-1ZM338,857l-1,1l-1,-1h1ZM336,849h1v6h1l2,1v2l-1,-1v-1v1l-1,-1h-2v-1h1h-1l-1,-1v-5ZM133,851v1h-1v-1ZM121,852h-1v-1h2v1ZM126,849h3v1h1v1h-2l-1,1v-1h-1v-2h-1ZM324,849l-1,1h-1v-2l1,-1h1v1ZM37,846v-2h1v2ZM38,844h-1v-1h1ZM119,845h2l1,1v1h1v1h2l-1,1h-3v-1h-1v-2h-2l-1,-1h-1h1h-2l-1,1h-1l2,-2h3ZM122,843h-1v-1l1,-1v1ZM334,843v1l-2,-2v-2l1,-1l1,1ZM122,839l-1,1v-1ZM123,839v1v-1h-1ZM340,825h1v1h-1v1h-1v-2ZM240,828l-2,2v-1h-1h2ZM229,828v1h-1ZM220,825v2h-1l-1,-1h-1v-1h2ZM214,821v3h-1v-3ZM344,820v1l1,1v1l-1,1h-1l-1,2l-1,-1v-1l-2,1l-1,1h-1l2,1v3l-1,-1v-1h-1l-1,-1l1,-1v-3h3v-3l1,1v-2h1l-2,-4v-1l3,3v1ZM214,820v1l-1,-1v-1l1,-1ZM340,810l1,-1l1,2h-1v2l-2,-1l1,2h-1l-1,-2l-1,-1h1l-1,-2l-1,-1l3,1ZM144,812l1,1h1h-2ZM147,809h-1l-1,-1h1ZM92,806h-1l-1,-1v-2h-1v-1h1l1,1v1l1,1ZM153,807l-1,1h1v1h2l-1,1h1v1l-1,2l-1,-1l1,-1l-2,1v-1h-3l1,-1h-1l4,-4h1Z"/>
<path class="tl" d="M90,797h1l-2,2v1v-3ZM332,800l3,3l-2,-1l1,2l2,2v1l-2,-2l-1,-2l-6,-6v-1h-1h1l3,3ZM198,806l-1,1h-2l1,-2v-1l2,-2h1v3ZM216,801l-1,2l-1,-1v-1h1ZM79,791h-1v-1h2ZM202,797l-1,2h2v1l-1,1h1l2,4h1v1l-1,1h1l-1,1h-3l-1,1h-2l2,-2h-1v-1h1l-1,-1v-1h2l-1,-1h-1v-2l-1,-1l1,-2v-1l1,1ZM75,786h-1v-1h1ZM141,790l-1,1v-1ZM139,790h-2l1,-1h1ZM78,780v1h1h-2v-1ZM139,786h1v1h1l-1,1h1l-1,1l-1,-1h-1l-2,1l1,-1h-1h1l1,-1l1,-2ZM193,787v1l1,1l-1,1h-3l-1,1l-1,-1h-2l1,-1h-1h1v-1h-2l1,-1h1l1,1l2,-1h2ZM147,784h-1l1,-1h2l-1,1ZM81,776v1l1,-1h2l-1,2h-3l-1,1h-1l-1,-1h1v-1h-1h1h-2l-1,1l8,-5v1l-1,2ZM135,780l-1,1v-1h-1l1,-1h1ZM322,771h-1ZM88,771h-1h2ZM139,780l-1,2l2,-1v1h-1v1l1,-1l2,-1l1,-1h2v2h-1v1l-1,1l-2,1h-1v-1l-1,1l-2,1v1h-3l-2,2h-1l-1,1l-2,1l-1,1l-1,2h1l-1,1v1h1l3,3l2,1h1l-2,2v2l1,1h1l2,-4h-1l4,-2v-1l1,-1v-1l-1,-1l2,-1l2,-4l1,1h1l1,-1v1l1,1h1v2l-1,1l1,1h2l1,-2h1v3l1,1l-1,1l1,1v1h1l1,1v1l1,1l-2,2h-2l-2,2h-1l-2,-1h-2l-2,1l-1,1l-2,1l-1,1l2,-1l3,-1h2l-1,1l-1,2v1l1,1l2,-1l1,-1v1h1l-4,2h-1l-2,1v-1l2,-1h-3v1h-1l-1,1h-1l-2,2l1,1v-1v1h-3l-1,1l2,-1v1h-2l-2,2v1l-1,1l-1,-1l1,-1l-1,1v4l-1,1h-1l-1,1h-1l-3,3h-1v8l-1,1h-1v-3l-1,-1l1,-1l-1,-2l-1,1l-1,-1h-4v1h-1l-1,-1l-1,1l-1,-1l-2,2h-2v1h-1v3l-1,1v1l-1,2v4l1,1v1h1v1l1,-1h3v-1l1,-1v-1l1,-1h3v1l-1,1v2l-1,1v-1v2l-1,1v1h5v1h1v1l-1,1v3l-1,1h1v2h1v1h2l1,-1h1v1h1l1,1l1,-1v-2l1,-1h2l2,-2v2h-1h1v1l-1,1v1h1v-3h1v-1h1v1h1v1h3l1,1l1,-1h1l1,1h1v1l1,1h1v1h1v1l1,1l2,1v-1h1l1,1h1l1,1v1h1v1l1,2v1l-1,1l1,1h2v1v-1l4,2v1h1l3,1h1l2,1l2,2h2v5l-1,1l-1,2l-2,2v9l-1,2v2h-1v1h-2l-1,1h-1l-3,3v5l-1,2l-2,2v2l-2,2v-1l-1,1l-1,-1h-1v-1v1l1,1v1l1,1v2l-2,1h-3l1,1v2l-1,1l-1,-1h-1l1,2h2l-2,2l1,1v1h-1l-1,1v1l2,1h1v1l-1,1v2h-1v1l2,2h-1l-1,1v1h-1l-2,-1l-3,-3l-1,-3v-1l1,-1h-2l1,-2l-1,-2h1v-2l-1,-1v2l-1,-2v-4l-1,-1l-1,-2h1v-6l-1,-2v-8l-1,-2v-6l-1,-2l-1,-1l-2,-1l-3,-2l-1,-1v-1l-1,-2l-1,-3l-2,-3l-2,-2v-1l-1,-2l2,-2v-1h-1v-3l1,-1v-1h1v-2h1l1,-1v-5l-1,-1v-2h-1v1h-1v1h-1l-1,-1h-2v-2h-1v-1v1h-1v-3l-2,-2h1h-2v-1h-2l-1,-1l-1,-2h-1l-1,-1v1h-2l-1,-1h-2l-2,-2h-1l-1,-1v-1h-1v-3h1l-1,-1v-3l-1,-1v-1l-1,-1v-3h-1v-5l-1,-1l-1,1v4h1l-1,1h1v5h1v2h-1v-1l-1,-1v-3l-1,-1v1v-1h-1v-1h1v-9h-1v-1h-1v-9l2,-2v-1l1,-2l2,-2l1,-2l1,-1v-1h1v1l2,-2h-1v-2l-1,-1v-1l1,-1l-1,-1l1,-1v-1l1,-1l-1,-1l1,-1v-1l1,-1l-1,-1h-1v-2h-1v-1h-1l-1,-1h-1l-1,1h-4l1,-1l2,-1h-1l-1,1l-2,1h-1l-1,1l-2,1h-2l-2,1h-1l-1,1h-3l-1,1h-2l1,-1h2l2,-1h2l2,-1h1l2,-1l1,-1h-3l1,-1l-1,1h-1l2,-2h-1v-1l2,-2l2,-1h3l1,-1h1l1,-1h-3v-2h4l1,1l1,-1v-3h4l1,-1h2l2,-1l1,1l1,-1h1l-1,1h1l1,1h2l1,1h2v1l1,1l1,-1h6l1,-1v2l2,-1l-1,1h2l1,1h2v1l-2,1h4v1l2,-2h2v1h1l1,1h2v-1h1l1,1l-1,1l1,-1h1l1,-1v-2l1,-1l2,-1l1,1l-2,2Z"/>
<path class="tl" d="M128,774l-1,1h4l-1,1h1l2,-2v1l-1,2v1l1,1h-2v1h-8v-1h-1v-1h4l-1,-1h-3l2,-1h-1l1,-1h1ZM135,774l-2,1v-1h1ZM152,776v1l-1,-1l-1,1v-2h2ZM146,776v1l1,-1l2,-1v2h3l1,1l-1,1l2,-1v1l1,1v2h-1l2,2v1h1v1l-2,1h-1l-1,-2l-1,1v1l1,1v2l-1,1l-2,-2v1l1,1h-2l-2,-2v-1l-1,-1v1h-3v-1l1,-1h3l1,-1l2,-1v-1l-1,-1h-1l1,-1l-1,-1h-5l-1,-1h-1l1,-1h-1l1,-1l2,-1l1,-1h2ZM138,774h2l-1,1h-1l1,1l-2,1h-2v-2l1,1v-1ZM298,772h-2v-1ZM141,776l-2,1v-1l2,-2h2l1,1l-2,1ZM122,776h-2l-1,-1h1l2,-1l2,-2h2v1h2v1h-1l-3,1h-2ZM299,769v1h-3v-1h1ZM143,773v1l-1,-1h-1l1,-1h1l1,1ZM295,769l1,1h-2l-1,1l-2,-1l-1,-1h2ZM143,771h-1v1l-1,1h-2l1,-1h-1l1,-1h2ZM136,771h1v1h-4l-2,1h-1l1,-1h-1l-1,-1l2,-1h1l2,1l1,1v-2h2ZM246,780h-3l-2,-1v-1l1,-2h-1l1,-1l-1,-1h1l4,-2h2l-1,1l-2,1l-1,1v2l-1,1l1,1ZM145,770l1,1h1l-1,1h1l1,1h4v1h-7l-1,-1l1,-1v-1h-2l1,-1ZM134,769l-2,1h-4l2,-1h3ZM271,770l1,1v-1h2l2,1h1v1l-1,1h1l2,1v-1l1,1l1,-1h2l1,1h3l-2,-1h5l1,1v1h2l2,1l-1,-1h1l1,-1l2,1v-1h1l-2,-1h8l3,1l1,-1h2l2,2h2v-1h3l3,1v-1h-2v-1h7l8,5h-1l1,1l2,1h2v1h-1v1h-1l1,1v2l-2,-1v2l-1,-1v1h-1l2,2v1h1l3,2h-1l1,1h1v1l1,2h-1l1,2l1,1l-4,-2l-4,-3l-1,-2l-1,-1v-3l-1,-2v-1l-2,-2l-1,1l2,2l-3,-1l-1,1l1,2l1,1h-1l-1,1l-1,-1h-1v1h-4v7h1l2,1h1l-1,-1h1l3,1l1,2l1,1l1,2l2,2v9h-1l-1,-1v2h-1v1l1,1v1h-1v1l1,1h1l2,2v1l1,1v1l-1,1h-1l-1,-2l-1,-1h1l-2,-1v-1v1v-1h-1v-1l-1,-1h-2v1h-1l-1,-1l1,-1l-1,-1l-1,1v2h-1v1l2,2h1v-1h2l1,1l-2,1v2l2,2l1,2l2,1v2h1v6l-2,4l-1,1h-1v1l-1,-1v1l-2,1h-1v2l-1,-1v-1h-2l-1,2v2l1,1l1,2l2,2l1,3v4l-2,1v1l-2,1v-2l-1,-1h-1v-1l-2,-2h-1v-1h-1v6h1v3l1,1h1v1h1v1l1,1v3h1v2h-1l-2,-2v-1l-1,-1v-1l-1,-1v-2l-1,-1v-1h-1v-6l-1,-1v-1l-1,-2v-2l-1,-1l-2,2h-1v-3l-1,-2v-1h-1l-2,-2v-1l-1,-1h-1v2l-1,-1v1h-2v2l-2,1l-1,2v1l-2,2h-1v8l-1,1l1,1h-1l-1,1l-1,-1l-1,-2v-1l-1,-1v-1l-1,-2v-1l-3,-6v-3l-2,1h-1l-1,-2v-1l-2,-1l-1,-1v-1l-1,-1l-2,1h-5l-1,-1h-2v-2h-1l-1,1h-2l-3,-3l-1,-2l-1,1v-1l-1,1v2l1,1h1l1,1v2l1,1l-1,-1l1,-1v2h1v1l1,-1h2v-1l1,-1v-1v2l2,2h1l2,2l-1,1v1h-1v3h-1v1h-1v1h-2v1h-1l-2,2h-1l-2,2v-1l-1,1h-2v1h-2v-2l-1,-1v-3h-1v-1l-1,-1v-1l-1,-1h-1v-1l-1,-1v-3h-2v-2l-1,-1v-1l-2,-2v-1v1l-1,1l-1,-1l-1,-2l1,2l1,1l1,2v1l2,2h-1l2,2v1l1,1h-1l1,2v1l1,1l1,2v1l1,1l2,1v1h1v1h1v1l-1,1h1l1,1h3l1,-1h3v-1h1v2l-1,1v3l-1,1l-3,6l-1,1l-2,1l-1,1l-1,2v1h-1v1h-1v2l-1,1l-1,2l1,1v4l1,1v7l-1,1h-1l-3,3h-1v1l-1,1v2h1l-1,1h1v1l-1,1h1l-1,1h-1l-2,2v3l-3,3v1l-2,1v1l-1,1h-2v1l-1,-1v1l-1,-1l-1,1h-2l-1,1l-1,-1h-1v-5l-1,-1v-2l-1,-1v-1l-1,-1v-5l-1,-1v-1l-1,-2v-1l-1,-1v-3l1,-1v-3h1v-1l1,-1v-1h-1v-5l-1,-1v-2l-3,-3l-1,-2l1,-1v-5l-1,-1v-1l-1,1h-2l-1,-1v-1l-1,-1h-2l-1,1h-2l-1,1h-6l-1,1l-4,-4h-1l-1,-1v-1l-1,-1v-1h-1v-1l-1,-1v-1h-1v-3h-1l1,-1v-1h1l-1,-1l1,-1v-4l-1,-1v-1h1v-2l1,-1v-1h1v-2h1l1,-2h1l2,-2v-3l3,-3l1,-2v-1h1l1,1h2l1,-1h2l1,-1h4l1,-1h1v1h1l1,-1h1v1l1,-1v1h-1v1h1v2h-1v1h1v1h3l2,2h1l2,2l1,-1v-2l1,-1h2l1,1h1l1,1h2l1,1h1v-1h2l1,1v-1h1l1,1v-2l1,-1v-5h-2l-1,1l-1,-1h-2v1l-1,-1h-2v-1l-1,-1v-2l1,-1h1v-1h2l1,-1h1l2,-1l2,1l1,1h2l1,-1v-2h-1l-2,-2h-1l-1,-1l1,-1l-1,-1h2l-1,-1v1h-2l-1,1v1h1l-1,1h-1v-1h-1l1,-1h-2v-1h-1v1l-1,1v1h-1v4l1,1h-2v1h-1v-1h-2l1,1h-2v1l1,1h-1h1l1,1v1l-1,-1v1h-1l1,1h-2v-2l-1,-1v-1h-1v-3h-1v-1h-1l-1,-1h-1l-1,-1v-1l-1,-1v1v-1h-2v1l2,2v1l1,1h1l1,1h1l1,1v1l-1,-1h-1v1h1v1h-1v1h-1v-1h1l-1,-1v-1h-1l-1,-1h-1l-2,-2l-1,-2h-2v1h-4l-1,1v2h-2v1l-1,2h1l-1,1v1h-1l-1,1h-2l-1,1l-2,-2v1h-2l1,-1v-1h-1v-2l1,-1v-3l-1,-1l2,-1l1,1h5v-4l-1,-1v-1h-2v-1h3v-2l1,1l2,-1v-1h1l1,-1l1,-2l1,-1h2v-5h2l-1,1h1v1l-1,1v1h1v1l1,-1h2v1h1l2,-2l1,1h1v-1h1v-3l1,-1l1,1v-1l-1,-1v-1h4l1,-1h-4l-1,1l-2,-2v-4l2,-1v-1l-1,-1l-2,2l-1,2l-1,1v3h1v2h-1v2l-1,2h-1v1h-1v-2l-1,-1l-1,-2l-1,-1l-1,2h-1l-2,-1v-5l2,-1l3,-3l2,-3l3,-3h2l1,-2h3l2,1l-1,1h2l1,1h3l3,1l1,1v1l-1,1h-1l-3,-1h-1l2,1v2l1,1h1v-1h-1l1,-1l2,1v-1l1,-2h1l1,1v-1l-1,-1v-1l-1,-1l2,1h1l-1,1l1,1h1v-1l1,-1l2,-1h1v1l1,-1h1l1,-1l1,1l1,-1h-2l1,-1h2l1,1l4,1v-1h-2v-1h-1l-1,-1v-3h2l1,1v1h1l1,1l1,2h1v3l1,1v-1h1l-1,-1l1,-1h-1l-2,-2v-1l-2,-1l1,-1l-1,-1h1l1,2l-1,-1l1,-1h2l1,1l-1,-1l-1,-2h4l-2,-1v-1h1l1,-1h3l1,-1h1v-2l2,1h-1ZM253,820l1,1v2h-1v1l1,1h1l1,1h3l-1,-1v-2h-1v-2h1v-1l-1,-1h-1l1,1l-1,-1v-1h-2v-2h-1h1v-2l1,1v-3h-2l-1,1h-1v1h-1l-1,2l2,1v1l1,1Z"/>
<path class="tl" d="M146,770h-1v-1h1l1,1ZM137,769h-2l1,-1h1l1,1ZM220,771l-1,1h-1v-1h-1l2,-1v1ZM139,768h-2l1,-1v1ZM146,769h-1v-1h1l1,1ZM144,769h-1l-1,-1h-1h1v-1h1l1,1ZM268,768l-3,1v-2ZM215,769l3,1h-2v3h-1l-2,-1h1l-1,-1l-2,-1v-1l1,-1l1,1h1v-1h1ZM220,768h1l-1,1h-4l-1,-1h3ZM234,767l-1,1h-1v-1h-1h4ZM264,768h-4l-2,-1l-1,-1h1l1,-1l4,2ZM153,767v1h-1l-2,1h-2v-1h1h-1v-1l1,-1h2v-1h1v1h1ZM167,764h3v1h-3l-1,1h-1l-1,1l-2,1h-3v1h-1v1h-2l-2,1h1l-2,1h-4l-1,-1h2v-1h2v-1h-1h1l1,-1h1l-1,-1h4l-1,-1h-3v-1l1,-1h6v-1h3v1l2,-1l1,1ZM190,764l3,1h-6v1h5l-1,1l2,-1h4v1l-2,1h-1l-2,2v2l1,1h-2l1,1l-1,1v1h-1l1,1h-3l1,1v1l-1,-1l-1,1h1l1,1v1h-2l-1,-1v1l-1,1h3l-4,2h-3l-1,1l-4,2h-1l-2,1h-1v1l-2,2v1l-1,1l-1,2h-1l-1,-1h-1l-1,-1v-2l-1,-1v-1l1,-1l-1,-2l1,-1l1,-2h1l1,-1v-1l-1,1h-1v-1l1,-1h1l-1,-1h-1l1,-1v-4l-1,-1h-5v-1l-1,-1h1l-1,-1l1,-1h2l3,-1h1l-2,-1h1l3,-1h1v-1h9l1,1l-1,-1h1l2,-1h3l2,-1Z"/>
<path class="th" d="M55,907v-1ZM50,903h-1ZM38,904v-1ZM43,902h1ZM45,901v1ZM46,901h-1ZM43,905v-1ZM43,904h-1ZM40,903h1v1ZM52,892h-1ZM52,892h-1ZM51,890v1ZM50,890v1ZM54,919v1ZM57,905h-1ZM49,902h-1ZM47,902h-1ZM47,902v-1ZM46,899h1h-1h1ZM45,899h1Z"/>
<path class="tg" d="M66,970h1l1,-1h4v-1h5v-1h5v-1h6v-1h6l1,-1h7v-1h8v-1h9l1,-1h11v-1h14v-1h20v-1h79v1h20v1h14v1h11l1,1h9v1h8v1h7l1,1h6v1h6v1h5v1h5v1h4l1,1h1M21,927h6v-1h7v-1h8v-1h10v-1h10v-1h12v-1h14v-1h18v-1h23v-1h38v-1h75v1h38v1h23v1h18v1h14v1h12v1h10v1h10v1h8v1h7v1h6M5,877h399M21,826h4v1h7v1h8v1h9v1h10v1h11v1h14v1h16v1h21v1h32v1h103v-1h32v-1h21v-1h16v-1h14v-1h11v-1h10v-1h9v-1h8v-1h7v-1h4M66,783v1h5v1h4v1h5l1,1h5v1h6l1,1h6l1,1h7v1h10v1h10v1h13l1,1h17v1h36v1h21v-1h36v-1h17l1,-1h13v-1h10v-1h10v-1h7l1,-1h6l1,-1h6v-1h5l1,-1h5v-1h4v-1h5v-1M140,755h-1v1h-3v1h-2v1h-2v1h-2v1h-2v1h-2l-1,1h-1l-1,1h-1l-1,1h-1v1h-2v1h-2v1h-2v1h-1l-1,1h-1v1h-2v1h-1l-1,1h-1v1h-2v1h-1v1h-2v1h-1v1h-2v1h-1v1h-1l-1,1h-1v1h-1v1h-2v1h-1v1h-1v1h-1v1h-2v1h-1v1h-1v1h-1v1h-1v1h-1v1h-1l-1,1h-1v1h-1v1h-1v1h-1v1h-1v1h-1v1h-1v1h-1v1h-1v1l-1,1v1h-1v1h-1v1h-1v1h-1v1h-1v1l-1,1v1h-1v1h-1v1h-1v2h-1v1h-1v2h-1v1h-1v2h-1v1h-1v2h-1v2h-1v1h-1v2h-1v2h-1v2h-1v2h-1v2l-1,1v2h-1v2l-1,1v2h-1v3h-1v4h-1v4h-1v5h-1v9h-1v13l1,1v8h1v5h1v4h1v4h1v3h1v3h1v2h1v3h1v2h1v2h1v2h1v2h1v2h1v2h1v1l1,1v1h1v2h1v1h1v2h1v1h1v1h1v2h1v1h1v1l1,1v1h1v1h1v1h1v1l2,2v1h1v1h1v1h1v1h1v1h1v1h1v1h1v1h1v1h1v1h1v1h1v1h1v1h1v1h2v1h1v1h1v1h1v1h1v1h1l1,1h1v1h1v1h1v1h2v1h1v1h1l1,1h1v1h1v1h2v1h1v1h2v1h1l1,1h1v1h2v1h1v1h2v1h2v1h1l1,1h1v1h2v1h2v1h2v1h2v1h2v1h2v1h2v1h2l1,1h2v1h2v1h2M153,755h-1v1h-2v1h-2v1h-1v1h-2v1h-2v1h-1v1h-2v1h-1v1h-2v1h-1v1h-2v1h-1v1h-1v1h-2v1h-1v1h-1l-1,1h-1v1h-1v1h-1v1h-1v1h-1l-1,1h-1v1h-1v1h-1v1h-1v1h-1v1h-1v1h-1v1h-1v1h-1v1h-1v1h-1v1h-1v1h-1v1h-1v1h-1v1h-1v1h-1v1l-2,2v1h-1v1h-1v1h-1v1l-1,1v1h-1v1h-1v2h-1v1h-1v1l-1,1v1h-1v2h-1v1h-1v2h-1v1h-1v2h-1v2h-1v2h-1v2h-1v2h-1v2h-1v2h-1v3h-1v2h-1v3h-1v3h-1v3h-1v3h-1v4l-1,1v4h-1v6l-1,1v30h1v6h1v5h1v4h1v3h1v3l1,1v2l1,1v2h1v3h1v2h1v2h1v2h1v2l1,1v1h1v2h1v2h1v2h1v2h1v1h1v2h1v1h1v2h1v1h1v2h1v1h1v1h1v2h1v1h1v1h1v1l1,1v1h1v1h1v1h1v1h1v1h1v1h1v1l3,3v1h1l3,3h1v1h1v1h1v1h1v1h1v1h1v1h1v1h1l1,1h1v1h1v1h1v1h1l1,1h1v1h1v1h1l1,1h1v1h1v1h2v1h1v1h2v1h1v1h2v1h2v1h1v1h2v1h1l1,1h1v1h2M166,755h-1v1h-1v1h-1l-1,1h-1v1h-1v1h-1v1h-1v1h-1v1h-1l-2,2h-1v1h-1v1h-1v1h-1v1h-1v1h-1v1h-1v1h-1v1h-1v1l-2,2v1h-1v1h-1v1h-1v1h-1v1l-1,1v1h-1v1h-1v1h-1v2h-1v1h-1v1l-1,1v1h-1v1h-1v2h-1v1h-1v2h-1v2h-1v1h-1v2h-1v2h-1v2h-1v1l-1,1v1l-1,1v1l-1,1v2h-1v2h-1v2h-1v3h-1v2h-1v3h-1v3h-1v3h-1v3h-1v4h-1v4h-1v5h-1v6h-1v8h-1v30h1v7l1,1v5h1v5h1v4h1v4h1v3h1v3h1v3h1v3h1v3h1v2h1v2h1v2l1,1v2h1v2h1v2h1v2h1v1h1v2h1v2h1v2h1v1h1v2h1v1h1v2h1v1l1,1v1h1v1h1v2h1v1h1v1h1v1l1,1v1h1v1h1v1h1v1l1,1v1h1v1h1v1h1v1h1v1h1v1h1v1h1v1h1v1h1v1h1v1h1v1h1v1h1v1h1v1h1l2,2h1v1h1v1h1v1h1v1h2v1h1"/>
<path class="tg" d="M179,755h-1v1h-1v2h-1v1h-1v1h-1v1h-1v2h-1v1h-1v1l-1,1v1h-1v1l-1,1v1h-1v1l-1,1v1h-1v2h-1v1l-1,1v1h-1v2h-1v2h-1v2h-1v2h-1v2h-1v2h-1v2h-1v2h-1v2l-1,1v2h-1v2l-1,1v2h-1v3h-1v3h-1v3h-1v3h-1v4h-1v4h-1v4h-1v4h-1v5l-1,1v5h-1v8h-1v11h-1v29l1,1v10l1,1v7h1v6h1v5h1v4l1,1v4h1v3l1,1v3h1v3h1v3h1v3h1v3h1v3h1v2h1v3h1v2h1v2h1v2l1,1v2h1v2h1v1l1,1v1l1,1v1h1v2h1v2h1v1l1,1v1h1v2h1v1h1v2h1v1h1v2h1v1h1v1l1,1v1h1v1h1v1h1v2h1v1h1v1h1M192,755h-1v3h-1v2h-1v3h-1v3h-1v3h-1v3h-1v3h-1v3l-1,1v3h-1v4h-1v4h-1v4l-1,1v4h-1v5h-1v6h-1v6l-1,1v7h-1v8h-1v11l-1,1v18h-1v29l1,1v18h1v11h1v8l1,1v7h1v6h1v6h1v5h1v5h1v4h1v4h1v4h1v4h1v3h1v3l1,1v3h1v2l1,1v2h1v3h1v3h1v2h1M205,755v243M217,755h1v3h1v2h1v3h1v3h1v3h1v3h1v3h1v3l1,1v3h1v4h1v4h1v4l1,1v4h1v5h1v6h1v6l1,1v7h1v8h1v11l1,1v18h1v29l-1,1v18h-1v11h-1v8l-1,1v7h-1v6h-1v6h-1v5h-1v5h-1v4h-1v4h-1v4h-1v4h-1v3h-1v3l-1,1v3h-1v2l-1,1v2h-1v3h-1v3h-1v2h-1M230,755h1v1h1v2h1v1h1v1h1v1h1v2h1v1h1v1l1,1v1h1v1l1,1v1h1v1l1,1v1h1v2h1v1l1,1v1h1v2h1v2h1v2h1v2h1v2h1v2h1v2h1v2h1v2l1,1v2h1v2l1,1v2h1v3h1v3h1v3h1v3h1v4h1v4h1v4h1v4h1v5l1,1v5h1v8h1v11h1v29l-1,1v10l-1,1v7h-1v6h-1v5h-1v4l-1,1v4h-1v3l-1,1v3h-1v3h-1v3h-1v3h-1v3h-1v3h-1v2h-1v3h-1v2h-1v2h-1v2l-1,1v2h-1v2h-1v1l-1,1v1l-1,1v1h-1v2h-1v2h-1v1l-1,1v1h-1v2h-1v1h-1v2h-1v1h-1v2h-1v1h-1v1l-1,1v1h-1v1h-1v1h-1v2h-1v1h-1v1h-1M243,755h1v1h1v1h1l1,1h1v1h1v1h1v1h1v1h1v1h1l2,2h1v1h1v1h1v1h1v1h1v1h1v1h1v1h1v1h1v1l2,2v1h1v1h1v1h1v1h1v1l1,1v1h1v1h1v1h1v2h1v1h1v1l1,1v1h1v1h1v2h1v1h1v2h1v2h1v1h1v2h1v2h1v2h1v1l1,1v1l1,1v1l1,1v2h1v2h1v2h1v3h1v2h1v3h1v3h1v3h1v3h1v4h1v4h1v5h1v6h1v8h1v30h-1v7l-1,1v5h-1v5h-1v4h-1v4h-1v3h-1v3h-1v3h-1v3h-1v3h-1v2h-1v2h-1v2l-1,1v2h-1v2h-1v2h-1v2h-1v1h-1v2h-1v2h-1v2h-1v1h-1v2h-1v1h-1v2h-1v1l-1,1v1h-1v1h-1v2h-1v1h-1v1h-1v1l-1,1v1h-1v1h-1v1h-1v1l-1,1v1h-1v1h-1v1h-1v1h-1v1h-1v1h-1v1h-1v1h-1v1h-1v1h-1v1h-1v1h-1v1h-1v1h-1v1h-1l-2,2h-1v1h-1v1h-1v1h-1v1h-2v1h-1M256,755h1v1h2v1h2v1h1v1h2v1h2v1h1v1h2v1h1v1h2v1h1v1h2v1h1v1h1v1h2v1h1v1h1l1,1h1v1h1v1h1v1h1v1h1l1,1h1v1h1v1h1v1h1v1h1v1h1v1h1v1h1v1h1v1h1v1h1v1h1v1h1v1h1v1h1v1h1v1h1v1l2,2v1h1v1h1v1h1v1l1,1v1h1v1h1v2h1v1h1v1l1,1v1h1v2h1v1h1v2h1v1h1v2h1v2h1v2h1v2h1v2h1v2h1v2h1v3h1v2h1v3h1v3h1v3h1v3h1v4l1,1v4h1v6l1,1v14l1,1h-1v15h-1v6h-1v5h-1v4h-1v3h-1v3l-1,1v2l-1,1v2h-1v3h-1v2h-1v2h-1v2h-1v2l-1,1v1h-1v2h-1v2h-1v2h-1v2h-1v1h-1v2h-1v1h-1v2h-1v1h-1v2h-1v1h-1v1h-1v2h-1v1h-1v1h-1v1l-1,1v1h-1v1h-1v1h-1v1h-1v1h-1v1h-1v1l-3,3v1h-1l-3,3h-1v1h-1v1h-1v1h-1v1h-1v1h-1v1h-1v1h-1l-1,1h-1v1h-1v1h-1v1h-1l-1,1h-1v1h-1v1h-1l-1,1h-1v1h-1v1h-2v1h-1v1h-2v1h-1v1h-2v1h-2v1h-1v1h-2v1h-1l-1,1h-1v1h-2"/>
<path class="tg" d="M269,755h1v1h3v1h2v1h2v1h2v1h2v1h2l1,1h1l1,1h1l1,1h1v1h2v1h2v1h2v1h1l1,1h1v1h2v1h1l1,1h1v1h2v1h1v1h2v1h1v1h2v1h1v1h1l1,1h1v1h1v1h2v1h1v1h1v1h1v1h2v1h1v1h1v1h1v1h1v1h1v1h1l1,1h1v1h1v1h1v1h1v1h1v1h1v1h1v1h1v1h1v1l1,1v1h1v1h1v1h1v1h1v1h1v1l1,1v1h1v1h1v1h1v2h1v1h1v2h1v1h1v2h1v1h1v2h1v2h1v1h1v2h1v2h1v2h1v2h1v2l1,1v2h1v2l1,1v2h1v3h1v4h1v4h1v5h1v9h1v13l-1,1v8h-1v5h-1v4h-1v4h-1v3h-1v3h-1v2h-1v3h-1v2h-1v2h-1v2h-1v2h-1v2h-1v2h-1v1l-1,1v1h-1v2h-1v1h-1v2h-1v1h-1v1h-1v2h-1v1h-1v1l-1,1v1h-1v1h-1v1h-1v1l-2,2v1h-1v1h-1v1h-1v1h-1v1h-1v1h-1v1h-1v1h-1v1h-1v1h-1v1h-1v1h-1v1h-1v1h-2v1h-1v1h-1v1h-1v1h-1v1h-1l-1,1h-1v1h-1v1h-1v1h-2v1h-1v1h-1l-1,1h-1v1h-1v1h-2v1h-1v1h-2v1h-1l-1,1h-1v1h-2v1h-1v1h-2v1h-2v1h-1l-1,1h-1v1h-2v1h-2v1h-2v1h-2v1h-2v1h-2v1h-2v1h-2l-1,1h-2v1h-2v1h-2"/>
<rect x="26" y="878" width="45" height="52" fill-opacity="0" stroke="#ffffff" stroke-opacity="0.5" stroke-width="5.0"/>
<rect x="28" y="880" width="45" height="52" fill-opacity="0" stroke="#113311" stroke-opacity="0.8" stroke-width="5.0"/>
<rect x="27" y="879" width="45" height="52" fill-opacity="0" stroke="#45a249" stroke-opacity="0.9" stroke-width="5.0"/>
<rect x="591" y="591" width="409" height="409" fill="#ffffff" fill-opacity="1.0"/>
<rect x="594" y="594" width="402" height="402" fill="#000000" fill-opacity="1.0"/>
<rect x="600" y="600" width="400" height="400" fill="#70add3" fill-opacity="1.0"/>
<path class="zl" d="M680,692h-1v-1h1Z"/>
<rect class="zh" x="937.5" y="876.5" width="1" height="1"/>
<rect class="zh" x="934.5" y="866.5" width="1" height="1"/>
<rect class="zh" x="932.5" y="864.5" width="1" height="1"/>
<rect class="zh" x="930.5" y="864.5" width="1" height="1"/>
<rect class="zh" x="929.5" y="863.5" width="1" height="1"/>
<rect class="zh" x="871.5" y="832.5" width="1" height="1"/>
<rect class="zh" x="890.5" y="828.5" width="1" height="1"/>
<rect class="zh" x="897.5" y="827.5" width="1" height="1"/>
<rect class="zh" x="857.5" y="825.5" width="1" height="1"/>
<rect class="zh" x="866.5" y="824.5" width="1" height="1"/>
<rect class="zh" x="897.5" y="818.5" width="1" height="1"/>
<rect class="zh" x="827.5" y="800.5" width="1" height="1"/>
<rect class="zh" x="701.5" y="798.5" width="1" height="1"/>
<rect class="zh" x="854.5" y="792.5" width="1" height="1"/>
<rect class="zh" x="904.5" y="793.5" width="1" height="1"/>
<rect class="zh" x="827.5" y="785.5" width="1" height="1"/>
<rect class="zh" x="719.5" y="786.5" width="1" height="1"/>
<rect class="zh" x="646.5" y="786.5" width="1" height="1"/>
<rect class="zh" x="809.5" y="779.5" width="1" height="1"/>
<rect class="zh" x="674.5" y="778.5" width="1" height="1"/>
<rect class="zh" x="780.5" y="766.5" width="1" height="1"/>
<rect class="zh" x="864.5" y="766.5" width="1" height="1"/>
<rect class="zh" x="740.5" y="766.5" width="1" height="1"/>
<rect class="zh" x="770.5" y="765.5" width="1" height="1"/>
<rect class="zh" x="636.5" y="769.5" width="1" height="1"/>
<rect class="zh" x="801.5" y="763.5" width="1" height="1"/>
<rect class="zh" x="786.5" y="759.5" width="1" height="1"/>
<rect class="zh" x="775.5" y="757.5" width="1" height="1"/>
<rect class="zh" x="768.5" y="755.5" width="1" height="1"/>
<rect class="zh" x="757.5" y="755.5" width="1" height="1"/>
<rect class="zh" x="749.5" y="755.5" width="1" height="1"/>
<rect class="zh" x="753.5" y="753.5" width="1" height="1"/>
<rect class="zh" x="745.5" y="752.5" width="1" height="1"/>
<rect class="zh" x="779.5" y="741.5" width="1" height="1"/>
<rect class="zh" x="859.5" y="737.5" width="1" height="1"/>
<rect class="zh" x="752.5" y="905.5" width="1" height="1"/>
<rect class="zh" x="723.5" y="898.5" width="1" height="1"/>
<rect class="zh" x="955.5" y="896.5" width="1" height="1"/>
<rect class="zh" x="693.5" y="883.5" width="1" height="1"/>
<rect class="zh" x="866.5" y="868.5" width="1" height="1"/>
<path class="zh" d="M867,800v1h-1v1h-1v-1l1,-1l2,-1v1ZM726,800h1v2h-2l-1,-1v-1h-4l-1,-1v-3h4v1h1v2l1,1Z"/>
<rect class="zh" x="714.5" y="795.5" width="1" height="1"/>
<rect class="zh" x="695.5" y="784.5" width="1" height="1"/>
<rect class="zh" x="688.5" y="784.5" width="1" height="1"/>
<rect class="zh" x="694.5" y="783.5" width="1" height="1"/>
<rect class="zh" x="687.5" y="781.5" width="1" height="1"/>
<rect class="zh" x="682.5" y="779.5" width="1" height="1"/>
<rect class="zh" x="772.5" y="771.5" width="1" height="1"/>
<rect class="zh" x="904.5" y="674.5" width="1" height="1"/>
<rect class="zh" x="896.5" y="664.5" width="1" height="1"/>
<path class="zh" d="M901,661h1v1h-2v1h-2v-1v1h-2v-2h4v1h1Z"/>
<rect class="zh" x="879.5" y="654.5" width="1" height="1"/>
<rect class="zh" x="888.5" y="646.5" width="1" height="1"/>
<path class="zh" d="M881,645v1l-1,1v-1l-1,1h-1l-1,-1v-2h1l2,1h1v-1Z"/>
<rect class="zh" x="869.5" y="630.5" width="1" height="1"/>
<rect class="zh" x="806.5" y="969.5" width="1" height="1"/>
<rect class="zh" x="894.5" y="872.5" width="1" height="1"/>
<rect class="zh" x="949.5" y="868.5" width="1" height="1"/>
<rect class="zh" x="900.5" y="854.5" width="1" height="1"/>
<rect class="zh" x="937.5" y="815.5" width="1" height="1"/>
<rect class="zh" x="866.5" y="810.5" width="1" height="1"/>
<rect class="zh" x="927.5" y="811.5" width="1" height="1"/>
<path class="zh" d="M865,808l-3,-3h1v1h1v1Z"/>
<rect class="zh" x="835.5" y="796.5" width="1" height="1"/>
<rect class="zh" x="821.5" y="793.5" width="1" height="1"/>
<rect class="zh" x="788.5" y="793.5" width="1" height="1"/>
<rect class="zh" x="785.5" y="792.5" width="1" height="1"/>
<rect class="zh" x="821.5" y="779.5" width="1" height="1"/>
<rect class="zh" x="818.5" y="779.5" width="1" height="1"/>
<rect class="zh" x="813.5" y="777.5" width="1" height="1"/>
<rect class="zh" x="807.5" y="776.5" width="1" height="1"/>
<rect class="zh" x="805.5" y="774.5" width="1" height="1"/>
<path class="zh" d="M788,775h-1v-1l-1,-1v-2h-1v-1l1,1v2l1,1v1Z"/>
<rect class="zh" x="784.5" y="769.5" width="1" height="1"/>
<rect class="zh" x="837.5" y="769.5" width="1" height="1"/>
<rect class="zh" x="877.5" y="768.5" width="1" height="1"/>
<rect class="zh" x="792.5" y="767.5" width="1" height="1"/>
<rect class="zh" x="793.5" y="765.5" width="1" height="1"/>
<rect class="zh" x="742.5" y="750.5" width="1" height="1"/>
<rect class="zh" x="733.5" y="749.5" width="1" height="1"/>
<rect class="zh" x="791.5" y="745.5" width="1" height="1"/>
<rect class="zh" x="774.5" y="741.5" width="1" height="1"/>
<rect class="zh" x="796.5" y="741.5" width="1" height="1"/>
<rect class="zh" x="780.5" y="739.5" width="1" height="1"/>
<rect class="zh" x="929.5" y="863.5" width="1" height="1"/>
<rect class="zh" x="890.5" y="853.5" width="1" height="1"/>
<rect class="zh" x="811.5" y="781.5" width="1" height="1"/>
</svg>
