<?xml version="1.0" encoding="UTF-8" standalone="no"?>
<svg xmlns:svg="http://www.w3.org/2000/svg" xmlns="http://www.w3.org/2000/svg" xmlns:xlink="http://www.w3.org/1999/xlink" height="1000" width="1000">
<!-- made with pythonshp (GPL): github.com/sanjayrao77/pythonshp , underlying data may come from naturalearthdata.com -->
<!-- 
COPYRIGHT: THIS SVG FILE IS RELEASED INTO THE PUBLIC DOMAIN
 -->
<!-- 
vars : {
	'cmdline' : 'pythonshp.py publicdomain wiki1 papuanewguinea locatormap'
	'title' : 'Papua New Guinea locator'
	'version' : '1.0.5'
}
 -->
<defs>
	<radialGradient id="watergradient" cx="500" cy="500" r="500" fx="500" fy="500" gradientUnits="userSpaceOnUse">
		<stop offset="0%" stop-color="#70add3"/>
		<stop offset="11%" stop-color="#6eaad0"/>
		<stop offset="22%" stop-color="#6ca7cc"/>
		<stop offset="31%" stop-color="#6ba5c9"/>
		<stop offset="41%" stop-color="#69a2c6"/>
		<stop offset="51%" stop-color="#679fc2"/>
		<stop offset="59%" stop-color="#669dbf"/>
		<stop offset="67%" stop-color="#649abc"/>
		<stop offset="75%" stop-color="#6297b9"/>
		<stop offset="81%" stop-color="#6095b6"/>
		<stop offset="87%" stop-color="#5f92b2"/>
		<stop offset="92%" stop-color="#5d8faf"/>
		<stop offset="95%" stop-color="#5b8dac"/>
		<stop offset="98%" stop-color="#598aa8"/>
		<stop offset="100%" stop-color="#5685a2"/>
	</radialGradient>
	<radialGradient id="landgradient" cx="500" cy="500" r="500" fx="500" fy="500" gradientUnits="userSpaceOnUse">
		<stop offset="0%" stop-color="#dddddd"/>
		<stop offset="11%" stop-color="#d7d7d7"/>
		<stop offset="22%" stop-color="#d1d1d1"/>
		<stop offset="31%" stop-color="#cccccc"/>
		<stop offset="41%" stop-color="#c6c6c6"/>
		<stop offset="51%" stop-color="#c0c0c0"/>
		<stop offset="59%" stop-color="#bbbbbb"/>
		<stop offset="67%" stop-color="#b5b5b5"/>
		<stop offset="75%" stop-color="#afafaf"/>
		<stop offset="81%" stop-color="#aaaaaa"/>
		<stop offset="87%" stop-color="#a4a4a4"/>
		<stop offset="92%" stop-color="#9e9e9e"/>
		<stop offset="95%" stop-color="#999999"/>
		<stop offset="98%" stop-color="#939393"/>
		<stop offset="100%" stop-color="#888888"/>
	</radialGradient>
	<radialGradient id="bordergradient" cx="500" cy="500" r="500" fx="500" fy="500" gradientUnits="userSpaceOnUse">
		<stop offset="0%" stop-color="#444444"/>
		<stop offset="11%" stop-color="#3f3f3f"/>
		<stop offset="22%" stop-color="#3a3a3a"/>
		<stop offset="31%" stop-color="#363636"/>
		<stop offset="41%" stop-color="#323232"/>
		<stop offset="51%" stop-color="#2d2d2d"/>
		<stop offset="59%" stop-color="#292929"/>
		<stop offset="67%" stop-color="#242424"/>
		<stop offset="75%" stop-color="#1f1f1f"/>
		<stop offset="81%" stop-color="#1b1b1b"/>
		<stop offset="87%" stop-color="#161616"/>
		<stop offset="92%" stop-color="#121212"/>
		<stop offset="95%" stop-color="#0e0e0e"/>
		<stop offset="98%" stop-color="#090909"/>
		<stop offset="100%" stop-color="#000000"/>
	</radialGradient>
</defs>
<style type="text/css">
<![CDATA[
.fs {font:14px sans;stroke:#ffffff;stroke-width:2px;stroke-opacity:0.8;text-anchor:middle}
.ft {font:14px sans;fill:#000000;fill-opacity:1;stroke-opacity:0;text-anchor:middle}
.sb {stroke:url(#bordergradient);fill-opacity:0}
.sg {stroke:#000000;fill-opacity:0.0;stroke-opacity:0.2}
.sh {fill:#45a211;stroke:#000000}
.sl {fill:url(#landgradient);stroke:url(#bordergradient)}
.sp {stroke:url(#landgradient);fill-opacity:0}
.sw {fill:url(#watergradient);stroke:url(#watergradient);stroke-opacity:0.8}
.tb {fill:#eeeeee;stroke:black;stroke-width:2}
.tg {stroke:black;stroke-opacity:0.2;fill-opacity:0}
.th {fill:#45a211;stroke:#378100}
.tl {fill:#aaaaaa;stroke:black}
]]>
</style>
<circle cx="500.0" cy="500.0" r="500.0" fill="url(#watergradient)"/>
<path class="sl" d="M880,176v-1l1,1ZM671,30h1v1h2l1,1h2v1h1h-1v-1v1v-1h-2l-1,-1h-1h1h-1h1l1,1v-1h-3v-1l1,1h1l1,1h2l1,1h1l1,1h2l1,1h1l1,1h2l1,1h1l1,1h2l1,1h1l1,1h1l1,1h2l1,1h1l1,1h2l1,1h1l1,1h1l1,1h1l1,1h1l1,1h1l1,1h1l1,1h2l2,2h1l1,1h2l1,1h1l2,2h1l1,1h2l2,2h1l2,2h2l1,1h1l2,2h1l1,1h1l1,1h1l2,2h1l2,2h1l1,1h1l1,1h1l2,2h1l2,2h2l2,2h1l3,3h1l2,2h1l1,1h1l2,2h1l3,3h1l3,3h1l1,1h1l2,2h1l3,3h1l4,4h1l3,3h1l5,5h1l3,3h1v1v-1v1v-1h-1v-1h-1v-1h-1l-1,-1l1,1h-1v-1h-1v-1h-1v-1h-1l-2,-2v1h1l1,1v-1h-1l-1,-1h-1v-1h-1l-1,-1h1v1v-1h-1l-1,-1h-1v-1h-1v-1h-1h1v1l2,1l1,1l-2,-2h-1h1v1v-1l-1,-1l-4,-2l-2,-2h-1v-1h-1l-1,-1l1,1h1l1,1h-1v-1h-1l-1,-1h-1v-1l3,3h1v1v-1h-1l-2,-2h-1l-2,-2h-1v-1h-1l-2,-2h-1l-3,-3h-1l-1,-1l1,1h1v1h1h-1v-1h-1l-1,-1h-1v-1h-1l-1,-1l1,1h1v1h1l1,1h1l1,1v1h2v1l-1,-1h-1v-1h-1l-2,-2h-1v-1h-1l-1,-1h-1l-1,-1h1v1h1v1h1v1v-1h-1v-1h-2l-1,-1v-1h-1l-1,-1h-1l-1,-1h-1v-1h-2v-1l-2,-1h-1l-2,-1v-1h-1h1l1,1l-2,-1l-1,-1h1h-2v-1h-1l-1,-1l-2,-1l1,1h1h-2v-1l-2,-1h-1v-1l-2,-1h-2v-1h-1h1v1h1h-1h1l2,1l1,1h1l2,2h1h-1v-1h-2v-1h-1l-1,-1h-1l-1,-1l1,1h1h-2v-1h-1h1v1h2v1h1l1,1h1v1l-1,-1l-2,-1h-1l-1,-1h-1v-1h-2v-1h-2l-1,-1h-1l-1,-1h-1v-1h-2v-1v1h2l1,1l-1,-1h-1h1h-1l-1,-1l1,1h-1l-2,-1h-1v-1h-1l1,1h-1l-1,-1h-3l-1,-1h-2l-2,-2v1h1h-2v-1h-2l-1,-1h-1l-1,-1v1v-1v1h-1v-1v1l-2,-2v1h1v1h1h-1h2v1h2v1h1v1h1h-1v1l-1,-1v1h1h-1h1v2h1h-3v-2h-2l-1,-1h-1v-1h-1l-2,-2h-1v-1h2l2,1l-1,-1h-1l-2,-1h-1v-1v1h-1v1h1v1h1v1h1h-1l1,1h1v1h1v1l-1,-1v1h1v1h1v1h2l1,1h1l1,1h-1h1v1l1,1h-1v1h1h-1v1h1h-1l1,1h-1h1v1h1v1h-1v1h1h-1v1h-1h1l1,1h-1h1v1h-1v1l-1,-1h-1v2l-1,-1v1h-1v-1h-1h1h-2l1,1v1h-1v-1h-1l1,1v1l-1,-1h-1h1v1h-1v-5h3l-1,1h2v-1h-1v-1h-1v-1h1v-1h1v-1h-1v-2h-1h1l-2,-2h-1v-1h-1l-2,-2h1h-1l-1,-1v-1v2h-1l-1,-1h-2v-1h1v1l-1,-1h-1h1v1l-1,-1l1,1h1l1,1v1l-1,-1l-4,-2v1l-1,-1h-2l-1,1h1h-2l-2,-2h-1l-2,-2h-1l-2,-1l-2,-2h-1l-1,-1h1h-1l2,2h1h-1v1h-3l-1,-1l-2,-1h-2l-1,-1h-1l-1,-1v-1l1,1h2v1v-1h1l1,1v-1h-1l-1,-1v1h-2l-1,-1h-2v-1h-1v1v-1h-2l-1,-1h-1l-1,-1h1h-1l1,-1h-2v-1l-1,-1h1h-1l-1,-1v-1h-1h3v1v-1h2l-1,-1h3l-1,-1h-1l-1,-1h-1l-2,-1h-1h1v-1h-2v-1h-1v1v-1v1h-1l1,1l-1,-1h-1l1,1l-1,-1h-8l-1,-1h-1l-1,-1h-1l-1,-1h-3l-2,-1h-1v-1v1l1,-1v-1h1l1,1v-1h-1h1v-1h2l1,1h1l1,1h5l-2,-1h-1l-2,-1h-2v-1l1,1h2l1,1h1h-1v-1h-2v-1h-5l-1,-1h-2l-2,-1l-5,-1l-2,-1h-3v-1v1h1l-2,-2h3v-1h-2v-1l-1,-1h-1h2v-1l1,1h1h-1h1h-1l-1,-1h2v-1h-1h3v1h4l1,1l-1,-1h1l1,1h3l1,1h5l1,1h5l1,1h3l1,1h3l1,1h3l2,1h1l1,1h2l1,1h2l1,1v-1h-3v-1h-2l-1,-1h-1h1h-1h1l1,1h1h-1v-1h-3v-1v1v-1h-1l1,1h1Z"/>
<path class="sp" d="M880,175l1,1M672,30l1,1h1l1,1h2l1,1h1l1,1h2l1,1h1l1,1h2l1,1h1l1,1h2l1,1h1l1,1h1l1,1h2l1,1h1l1,1h2l1,1h1l1,1h1l1,1h1l1,1h1l1,1h1l1,1h1l1,1h2l2,2h1l1,1h2l1,1h1l2,2h1l1,1h2l2,2h1l2,2h2l1,1h1l2,2h1l1,1h1l1,1h1l2,2h1l2,2h1l1,1h1l1,1h1l2,2h1l2,2h2l2,2h1l3,3h1l2,2h1l1,1h1l2,2h1l3,3h1l3,3h1l1,1h1l2,2h1l3,3h1l4,4h1l3,3h1l5,5h1l3,3M668,29l1,1h2"/>
<path class="sl" d="M99,201l-2,2v1l-1,1v1h-1v1l-1,1v1h-1v1h-1v1l-1,1v1h-1v1l-1,1v1h-1v1l-1,1l2,-2v-1l3,-3v-2l3,-3v-1l3,-3v-1ZM84,223h-1v2l-2,2l-1,2l-1,1l-1,3h-1l-1,2l-1,1v1l-1,1v1h-1l-1,2v1l-1,1l-1,2l-1,1l-3,6v1l-2,2l-1,2v1l-1,1v1h-1v2l-1,2l-1,1l-1,3l-1,1v1v-1v1l-1,1v1l-1,1v1h-1v2h-1v1l-1,1l-1,2v1l-1,1v1l-1,2l-1,1v1v-2h1l-1,1v-1l1,-1v-1l1,-1v-1l1,-1v-1l1,-1v-1l1,-1v-1l1,-1v-1l1,-1v-1l1,-1v-1l1,-1v-1l1,-1v-1l2,-2v-1l1,-1v-1l1,-1v-1l1,-1v-1l3,-3v-1l1,-1v-1l1,-1v-1l1,-1v-1l2,-2v-1l1,-1v-1l2,-2v-1l1,-1v-1l1,-1v-1l2,-2v-1l3,-3v-1l2,-2v-1ZM38,308v2l-1,1l1,-1v-1Z"/>
<path class="sp" d="M87,218l2,-2v-1l3,-3v-2l3,-3v-1l3,-3v-1l1,-1M48,285l1,-1v-1l1,-1v-1l1,-1v-1l1,-1v-1l1,-1v-1l1,-1v-1l1,-1v-1l1,-1v-1l1,-1v-1l1,-1v-1l2,-2v-1l1,-1v-1l1,-1v-1l1,-1v-1l3,-3v-1l1,-1v-1l1,-1v-1l1,-1v-1l2,-2v-1l1,-1v-1l2,-2v-1l1,-1v-1l1,-1v-1l2,-2v-1l3,-3v-1l2,-2v-1l1,-1M37,311l1,-1v-2"/>
<path class="sl" d="M87,218l1,-1v-1h1v-1l1,-1v-1h1v-1l1,-1v-1h1v-1h1v-1l1,-1v-1h1v-1l1,-1v-1l3,-3v-1l1,-1h1v-1l3,-3v-1l4,-4v-1l2,-2v-1h1l1,-1v-1l5,-5v-1l5,-5v-1l2,-2h1v-1l6,-6v-1l1,-1h1l1,-1v-1l2,-2h1v-1l10,-10v-1h1l9,-9h1l1,-1v-1l1,-1h1l2,-2v-1h1l6,-6h1l5,-5h1l1,-1v-1h1l3,-3h1l4,-4h1l2,-2h1v-1l2,-2h1l2,-2h1l4,-4h1l2,-2h1l3,-3h1l2,-2h1l3,-3h1l2,-2h1l2,-2h1l1,-1h1l3,-3h1l2,-2h1l1,-1h1l2,-2h1l1,-1h1l1,-1h1l1,-1v-1h1l1,-1h1l1,-1h1l1,-1h1l2,-2h1l1,-1h1l1,-1h1l1,-1h1l1,-1h1l2,-2h1l1,-1h1l2,-2h1l1,-1h1l1,-1h1l1,-1h1l1,-1h1l1,-1h1l1,-1h1l1,-1h1l1,-1h1l1,-1h2l1,-1h1l1,-1h1l1,-1h1l1,-1h1l1,-1h1l1,-1h2l1,-1h1l1,-1h1l1,-1h2l1,-1h2l1,-1h1l1,-1h2l1,-1h1l1,-1h2l1,-1h1h-1l-1,1h-2l2,-1h2l2,-1h-1h2l2,-1h1v-1h2l1,-1h3l1,-1h1l1,-1h2l1,-1h2l1,-1h2l2,-1h1l6,-2l2,-1h1h-1h1h-1l-2,1h-1l-2,1h-1l-1,1h-3l-1,1h-2l-1,1h-1l-3,1h-1v1h-1l-6,2h-1l-2,1l-1,1h-2v1h-2l-1,1h-1l-1,1h-3l-1,1l-5,2h-1l-1,1h-2v1h-1h1v-1h1h-1h1h-1l-1,1h-1h1h-1h1l2,-1l3,-1h2v-1l2,-1h1l3,-1l2,-1h2v-1h1l2,-1h1l1,-1h1l-1,1h-1l-1,1l-3,1h-1v1h-1h1v-1h2l2,-1h1v-1h2l2,-1l1,-1l-2,1h-1h1l2,-1l1,-1l5,-1l2,-1h1l1,-1l3,-1h2v-1l5,-1h1l1,-1h2l1,-1h1h-1l-1,1h-1l-2,1h-1l-1,1h-3v1h1h-1h1h-1h1l1,-1h1v-1h3l1,-1l-1,1h1v-1h2l1,-1h1v1h-1h1h-1v1h-3l-1,1h-2l-1,1h-2l-1,1l1,-1h3v-1v1h-2l-2,1h-2v1l1,-1h2l1,-1h2l1,-1h1l1,-1h3l1,-1h1h-1h1l1,-1h1h-1h1l1,-1h2l1,-1h3v-1h5l1,-1h1l-1,1h-1h2v-1h3l2,-1h2v-1h1h-1h3l1,-1h4l1,-1h5l1,-1h5v-1h2l-1,1h1l1,-1l-1,1l1,-1h6v-1h5v-1h3l3,-1h4l-1,1h-1h1h-1l-1,1h-1h2l1,-1h6l-1,1h1h-1h1l-1,1h-1l-1,-1v1h1h-1l-3,1h-3l-2,1h-4v1h-3l-5,1h-1l-2,1h-2l-2,1h-1h1l1,-1h6l1,-1h6v-1l-1,1h-2l1,-1h6v1h-1l-1,1h-3v1h1v-1h2l1,-1h1h-1h2l2,-1h7l-1,1h11v-1h3l1,-1l1,1h8v1h-1l-1,1h-1h2l-1,1h-1l-1,-1h-1v1l1,1v-1h1v1h-1v1h3v1h1l1,-1h2v-1h1l1,-1h1v1h12v1h1v-1h-1h3v-1h1v1h3l-1,-1h1h-1l1,-1h1h-1l2,-1h15v1h1l-1,1v-1h-1v1h-2h3l2,-1h8v1h-1h1v1h5l1,1h21l2,1h1v2h4v1l1,1h1v1h-1h1l1,-1h-1v-1h1v-1h6l1,1h8l1,-1h1v1h2v1h4v1h4l1,-1h-2l-1,-1h-1v-1h-1h8l1,1l-1,-1h2l1,1h9l2,1h4l1,1h4v1h4l1,1h-1v-1v1h3v1h1v-1h-2h2l1,1h-1h3l6,2h3v1h1l1,1h1v1h3v1v-1h1v1h1v-1h-2l-1,-1h-2l-1,-1h3l1,1h1h-1h4l2,1h2l1,1h3v1h2l-1,1h1h-1l1,1h-3l-1,-1h-1l1,1h1v1h2l-1,1h-1h2v1h1h-1h1v1h-1v-1h-2l-2,-1h-4l-1,-1h-2l-2,-2h-8l-1,-1h-1l-1,-1v-1h-1v1h-1v-1h-1h1h-1l1,1h-1h1v1h2v1h1v1h-1v1h-2v1l-1,-1h-3l-2,-1h-1h1v1h-2v-1h-2l-1,1h-1h2v-1h1v1h5v1h2l1,1h1v-1v1h1l1,1h1l1,1h-1h1l1,1v-1l1,1l2,1h1h-1h1v1h2v1h-1l1,1h-1v-1h-5l-2,-1h-1h1v1h-2l-2,1h-1l-1,1h-4v1h-2l1,1h-2v1h-2v1l-2,1h-1v1h1v1h-1l-1,-1h-1v-1h-2l-1,-1h-7l-1,1h-1l-2,2h-1v-3h-1v1h-2l-1,1v1h-1l-1,-1h-5v3l-1,1h1h-1v1h-1l-1,1v2h1v1h2v-1h1l2,1v1l-1,1l1,1v1l1,1h2v1l1,1h-1v1h-1l-2,-1v-1h1h-2l1,1h-2v1l-1,1v2h1v1h1l1,1v1h-1l-1,1l-1,-1h-3l-1,1h-1l-1,1v4h1v1h-1l-1,-1l-2,1h-1l-1,1l-1,-1l-1,1h1v4l-3,3h-1l-1,1l-2,1v1l-1,-1v-1h-1v-1l-2,-4v-1l-2,-2v-1l-1,-3l-1,-1l-1,-3l-1,-1v-2l-1,-1v-2l1,-1v-3h1l2,-2h1v-2h-1h3l1,-1h3v-1h1l1,-1h1v-1h1l1,-2l2,-1l1,-1l2,-1l1,-1h1v-1h1l2,-1h3v-1h-1l1,-1l-1,-1h1v-1l-1,-1v-1h3l-1,-1h-6v1h1h-1v1h1l-1,1h2v1h-1l-1,-1v1h-2l-4,2l-1,1h-2v-1h-2v-1l1,-1v-1h-4l-1,-1l-1,1h-7l-1,1h-1v1h-1l-1,1v1h-2l-2,1l-2,2v1h-1l1,1l1,-1l2,1h1v1h-9l-1,1h-1l-1,-1l-1,1h-4l-1,-1h5v-1h-2l-1,-1h-3v1h-1v-1l-1,1v-1h1h-2l-3,-1h-1v1h-1l1,1h-2v-1l-1,1h1h-11l-1,1h-1v-1h-12l-3,1h-1l-2,1l-1,1h-1l-1,1h-2l-1,1l-2,1v1h-2l-1,1h-1l-1,1h-1l-2,1h-1l-3,2l-1,1l-4,2h-1l-1,1h-1l-2,1l-1,1l-3,1h-1l-1,1h-1v1h8v1h-1v2h-1v1h2l1,-1v-1l1,-1h2l-1,1h-1v1h1l-2,2h-1h4l2,-1l1,-1h1v1h-1l-1,1h1l1,-1v-1h1v-2l2,1h1l2,-1l1,1h1v1l2,2h2l1,1v1h-2l1,1v2h-1l1,1h1l-1,1v1l-1,1h-1l-2,2v1h-1v1l-1,2v2h1h-1l-1,1l1,1v1l-2,2v1l-1,1v1l-2,2h-1l-1,1h-1l-2,2l-1,2l-3,2h-1v1h-1v1l-5,5l-6,3v1l-1,1h-1l-2,1v1h-1l-1,1h-1l-2,3h-1l-2,2l-2,1l-1,1l-4,1l-1,1l-2,1h-5l-1,-1h-3l1,-2l-2,1h-1l1,-1h-2l-1,2l-1,1h-1v1h-4l1,1l-1,1h-2l-1,1h-1l-4,4v1l-1,1v2l-3,1h-1l-1,2h-2l-2,2h-1l-1,1h-3l-2,1v2l-1,1h-1v1h2v1l1,1h1v1h1v1l1,3l1,1l2,4v5l-1,1v2h-1v1h1l-1,2v1l-1,1l-1,2h-6v2h-1l-1,-1h-3v2h-1v-1h-1v2h-1v1l-1,-1l1,-1l-2,1l-1,1h-1v-1l-2,2v-1l-1,-1v-1h2v-1h-1v-2h1v-1l2,-2h-1h1v-1h1v-6h-2v-1h1l1,-1h1l1,-1v1h1v1v-1h1h-1v-6h-2l-1,1v-1h-1l-1,-1v1h-1l-1,1h-1v-1h-2l2,-1h-1l-1,-1l-1,1v-1h1v-1l1,-1h1l2,-1h1v-1h-2v-1l3,-2v-2h-1l-2,-1h-1v1v-1l-1,-1v-1l-1,1h-1l-2,1l-1,-1v1h-2l-1,1h-2l-4,2h-1l-1,1v1h-3v1h-1l-1,1h-2l1,-1h1l3,-2h-1l1,-1h-2v-1l1,-1h1v-1l2,-1l1,-1h1l2,-2v-1h1h-1v-1l-1,-1h-4l-2,2h-1l-3,2l-1,1l-5,2l-1,1h-1l-1,1v1l-2,1l-1,1h-4l-1,-1l-1,1h-1l-1,2l-1,1v2l1,1l3,1l1,-1h1v4l-2,2h1v1h4l1,-1v-1l2,-1l1,-1h1l3,-1l1,1h1l1,1h5v1h1l1,-1v1l-2,2h1v1h-6l-4,2h-2v1h-1v1l-2,2h-1v-1h-1l-1,1h1v1h-1l-2,2h-1l-2,2h-1l-1,2h-1v2h1l1,1v1h2l1,1v5l1,1v4l-1,1l1,1l2,1v2l1,1h1v2h-1l-2,-1h-3v-1h-1l-1,-1l-3,2h-1h2l2,-1h1v1l1,1h1v1l1,1l2,1v3h-2l-1,1h-1l-2,2h-1v1h-3l-2,1h2v1l4,-2h1l1,1l1,2h3l-2,1l-2,2h-1h1l1,-1h1v1l-1,3v-1h-3v1l1,1v1l-1,-1l1,1v1h-1l-1,1l1,2h-1l-1,1h-1v-1h-1l-1,1v1h-2v1h1h-1l-1,1v1l-1,1v1l-2,2h-1l-1,2l-1,1v1h-2v-1l1,-1l-1,1h-1v1l1,1v1l-1,1l-2,1l-1,1v-1h-1v1h3l-1,1v1l-1,1l1,1l-1,1v-1h-3v1h1v1h-2l-1,1v1h-1l-1,1v1l-1,1h-4v1h-1v1h1v1l-2,1v1h-2v1h-1v1l-1,1v-1h-1v1h-2l-2,2h-1h1v1h-2v2h-2v1h-1l-2,1l-1,-1h-1v1h-4l-1,1h-1v-1l-1,1v1h-5v-1l-1,-1v-2h1h-2v1h-1v1h1v4l-1,1h-1l-1,1l-1,-1v1l-1,1v1l-1,-1h-1v1h-2l1,-1h-1v2h-1l-1,-1h-1v1h-1l-1,1h-1l-1,1h-2l-1,1h-1l-2,2l-1,-1v1h-1l-1,1v1l1,1v1h-1l1,1v1l-1,1h-3v-1h1l-1,-1v-5h1v-1l1,-1h1h-1v-1h-1v-1h-1v1l-1,1h-2l1,-1h-3v-2h-1v2h-1v-1v1h-2v1h-2l-1,1h-1l-1,1v2l-2,1v-1h-1v1h-1v-1h-1v2l-1,2l-1,1v1l-3,3h-1l-2,3v2h-1v2h-1v4l1,1v1l2,2v3h-1h1l1,3l2,2v2h1l1,2h-1h1v1h1v1h1v1h1v2l1,1v1l1,1v1l1,1v4l1,1l-1,1v2l1,1v4l-1,-1v9l-1,1v2h-1v5h-1l1,1l-1,1h-1v2l-2,2h-1l-2,2h-2v2h-1l-2,2h-2l-1,1v-1h-1v1h-1l-1,-1l-1,1h1v1h-2l1,1h1v1l-1,1v1h-1v-1l-2,-2l2,3v2h-1l-3,-3l1,2l1,1v1l-6,5l-1,1v1l-1,1h-2l1,-1l-1,-1l1,-3v-4l1,-1v-1h1v-2h-1v-1h-1v1l-1,-1v-1l-1,-1l-2,-1h-1v1h-1l-1,-1l2,-2v-1l-1,-1h-1v2h-2v-3l1,-1v-1l-1,-1v-1l-1,-1v-3l-1,1v-1h-1v-1l-3,-3l-2,1h-3v-1l1,-2v-2l1,-1v-1h-2v-1l-1,1h-1l-1,1h-1v3l-1,2v4l-1,1v1l-1,1v2l-1,1l-1,2v2l-1,1v1l-2,3v2h-1v10l2,-1h1v7h1v-1v1l1,2v6h-1v-2h-1v2l1,2v1h1l1,1l2,1h2l1,1l1,2l2,2l-1,1v1l-1,1v1h-2v-1l-1,1h-1v2h-1v-5h-1v-2h-1l-2,-1v-1l-1,1v1l-1,-2l-1,-1v-3h-1l1,-1h-2v-3h-1v-2l-1,-1v-2h-1v-1v1h-1v1h-1v-3l1,-2v-2l1,-3v-1l1,-1v-2l2,-3h-1v1v-1h-1l1,-2v-3l1,-1v-1l1,-1v-3l1,-1v-1h1l-1,-1v1h-1v-2h1v-4l1,-1v-8l-1,-2v-2l-1,3v-1l1,-1v-13l1,-4l-1,-1l1,-1v-1l1,-2v-1v1h-2v-4l1,-1h-1v-1l-1,-1v3l-1,1v1l-2,2h-1v-1l-1,1l1,1h-1v1h-1v1h-2v1l-1,1v1l-1,1h-1v-1l1,-1v-1v1l-1,1v1l-1,-1l-1,1l1,-2v-1l-2,2v-1l1,-1v-2h1v-1l-1,1v1l-1,1v1h-2v-1l2,-3v-1l1,-2v-1l2,-2v-5l1,-3v-7l-1,1v1v-1h-1v-3l1,1h1v-1l1,-1h-1v-3l-1,-1v-1l-1,1v1h-1v-1l1,-1v-1l-1,1v-1l1,-1l-1,-1v1l-1,-2v-4l1,-3v-3l1,-2v-5h-1v1l-1,1h-1v-4l1,-1v-1h-1v2h-1v2h-1v4l-1,1v1l-2,2v1h-1v-1l1,-1v-1l-1,1v-1l1,-1v-1l-1,1v2h-1v1h-1v1v-1l1,-3l-1,1v2l-1,1v1h-1v-1l-1,1v1v-1h-1v1v-1l1,-2v-1l-1,2l-1,1v1l-1,-1v1h-1v-1h1l1,-2v-3l-1,1h1v1l-3,3v1l-3,1l-1,2l-1,1v2l-1,2v1h-1v1l-2,2v1l-1,1v-1v1h-1v1l-2,1l-1,1v-1l1,-1h-1l-2,2v1l1,-1h1l-2,1l-2,4h-1v2l-2,1l-1,3l-5,5l-1,2l-4,4v3h-1v2h-1l-2,2h-1v1l-1,2l-1,1v1h-1v-1l-2,2l-1,3l-1,2v4l-1,1v2l-1,2v2l-1,1v1l1,1l-2,6l-1,2v2l-1,2l-1,3v2h-1v1h1l-1,1v4l-1,3v1h-1v-1v1h-1v2l-1,3l-1,1v2l1,1h-1l-2,1v1l-1,1v4l-1,1l-1,2h-1v1v-1l-1,-1v-18l1,-3v-17l1,-1v-5l1,-1v-6h1v-8h1v-6l1,-2l1,-7l1,-2v-1l1,-2v-3l1,-1v-3h1v-2h1v-2l-1,2v-1l1,-1v-2h1v-3l3,-6v-1l1,-1v-3l1,-1v-2h1v-1l1,-1l-1,1h-1l1,-1v-1h1h-1l1,-2h1v-1h-1v1l-1,1v1h-1v2l-1,1l-1,3v1l-2,1v1l-2,2v-4l1,-2v-3l1,-1v-2l1,-1v1v-1h1v-1l1,-1l1,-2l1,-1v-1v1h-1l-1,1v1l-1,-1l1,-1v-3l1,-1v-1l1,-1v-1v1h-1v1v-1v1v-3l1,-1v-1l1,-3v-1l2,-4v-1v1v-1v1h-1v1l-2,2v-1l1,-1l-2,2v1h-1h1h-1l1,-1l1,-2v-1l1,-1v-1l1,-2l1,-1v-1h1v-2h1v-1l1,-1v-1l1,-1v-1v1v-1l1,-1l1,-3l1,-1l1,-2v-2h1v-1l1,-1v-1l1,-2l2,-2v-1l3,-6l1,-1l1,-2l1,-1v-1l1,-2h1v-1l1,-1v-1l1,-1l1,-2h1l1,-3l1,-1l1,-2l2,-2v-2h1l1,-1v-2l1,-1Z"/>
<path class="sp" d="M99,201l1,-1v-1l1,-1h1v-1l3,-3v-1l4,-4v-1l2,-2v-1h1l1,-1v-1l5,-5v-1l5,-5v-1l2,-2h1v-1l6,-6v-1l1,-1h1l1,-1v-1l2,-2h1v-1l10,-10v-1h1l9,-9h1l1,-1v-1l1,-1h1l2,-2v-1h1l6,-6h1l5,-5h1l1,-1v-1h1l3,-3h1l4,-4h1l2,-2h1v-1l2,-2h1l2,-2h1l4,-4h1l2,-2h1l3,-3h1l2,-2h1l3,-3h1l2,-2h1l2,-2h1l1,-1h1l3,-3h1l2,-2h1l1,-1h1l2,-2h1l1,-1h1l1,-1h1l1,-1v-1h1l1,-1h1l1,-1h1l1,-1h1l2,-2h1l1,-1h1l1,-1h1l1,-1h1l1,-1h1l2,-2h1l1,-1h1l2,-2h1l1,-1h1l1,-1h1l1,-1h1l1,-1h1l1,-1h1l1,-1h1l1,-1h1l1,-1h1l1,-1h2l1,-1h1l1,-1h1l1,-1h1l1,-1h1l1,-1h1l1,-1h2l1,-1h1l1,-1h1l1,-1h2l1,-1h2l1,-1h1l1,-1h2l1,-1h1l1,-1h2l1,-1h1M328,30h2l1,-1h3l1,-1h1l1,-1h2l1,-1h2l1,-1h2M84,223l1,-1v-2l2,-2"/>
<path class="sl" d="M156,390v3l-1,-2v-1ZM171,404h-1l1,-1ZM176,389l-1,1v-1ZM190,303v-1ZM195,299l-1,1ZM194,302v-1h1ZM191,303h-1l1,-1ZM652,602v3h1v-1h1v-1h1h-1v1h1v3l-1,1h-1l-1,1v-1h-1v-3l-1,-3v-1l1,-1v1ZM656,613h1l3,3h-2l-1,1h-1v-4h-2l1,-2h1ZM664,619h-2v-2l1,1ZM663,615h-2v-1h-1h2v-1h1v1ZM663,625l1,1v1h-2v-1l-1,1v-1l1,-1ZM661,607l-1,1l-1,-1l1,-1h2ZM663,612v-1l-1,-2l1,-2v4ZM663,606v1v-2ZM655,609v1l-1,-1ZM659,597h-1v-1h1ZM659,594h-1v-1l1,-1v1ZM672,648h-1v-1h1ZM670,642l-1,1h-1v-1l-1,-1l1,-1h1v1ZM669,637h-1l-2,-1v-1l1,-1h1v2h1ZM126,175v-1h1v-1v1h-1ZM127,174v1ZM625,426v1ZM412,390l-1,1l1,-1v-1h1v1ZM528,408h-1ZM585,413h-1v-1h2ZM680,423v-1h1v-1v1h-1ZM673,410h-1ZM695,413h1l1,1h-1v-1ZM691,412l1,1l2,-1l-1,1h-1ZM656,377h-1ZM478,313h-1v-1h1ZM473,350v1l-1,-1ZM478,318v-1l1,1ZM478,342v1h-1v-1l1,-1ZM477,344l-1,-1h1ZM469,358h-1v-1l2,-2h1l-2,2ZM817,603h-1l1,-1h1ZM771,81h-1v-1h-1v-1l1,1v1ZM773,82h-1v-1h-1h1v1ZM757,72h-1ZM727,61l-1,-1h1ZM731,63v-1ZM723,61h1ZM713,59l-1,-1ZM722,79v1v-1h-1ZM727,81h-1ZM725,80l1,1h-1ZM711,86h-1v-1h1ZM680,93h-1ZM643,43h4v1h5l1,1h-1v1l-1,-1h-3v-1h-5v-1h-1ZM676,56h1l1,1h1v1h1h-1v1v-1h-4l-1,-1h1v-1ZM727,70h2l1,1h1h-1l1,1h-1v1h1v1l-1,-1h-1v-1h-1v1h2h-2l-2,-2h-1v-1h1v1h1l1,1h1l-2,-2h-1h1h-2v-1l1,1h1h-1h1v-1h-1h1ZM714,80l1,1h1v1h-3v1h-1l-1,-1v-2h2ZM777,85l1,1h1h-1ZM782,88l1,1v-1h-2v-1ZM774,83l1,1v-1v1v-1h-1l-1,-1h-1l-1,-1h1l1,1ZM779,86l1,1h1h-1v-1v1h1l-1,-1h-1l-2,-2h-1h1l1,1ZM767,78v1h2v1h1h-1l-1,-1l1,1h1v1h1h-1v-1h-1l-1,-1h-1v-1h-1ZM782,88v1v-1v1h1l1,1l-1,-1h-1v-1h-1l-1,-1h-1v-1l2,2ZM724,60h1v1l-1,-1h-1ZM726,62h-1l-2,-2h1v1h1v1ZM722,60h1v1v-1h-2v-1ZM718,58h-1ZM732,73h-1h1h-1v-1ZM724,67l-1,-1h1ZM726,69l1,1h-1v-1h-1ZM733,78h-1ZM732,75v1h-1v-1ZM721,79l1,1h-1l-1,-1ZM718,81h-1ZM720,83h-1ZM724,80v1h1h-1v-1h-1ZM710,84h-1v-1v1h2ZM711,84h-1v-1ZM702,65h-1v-1ZM655,55h2v1l-1,-1h-3v-1l1,1ZM679,69h-1ZM702,89v1h-1v-1ZM699,91l-1,-1h1ZM693,92h-1v-1h1ZM683,71l1,1h1h-1ZM679,93v1h-1v-1ZM679,92v1v-1h-1ZM675,94h-2l1,-1h1ZM655,92h-1ZM661,95h-1l-2,-1h-1l-1,-1l2,1h1l1,1ZM631,89h-2l1,-1v1ZM762,76l1,1h1l2,2h1l1,1h1v1h2v1v-1h-1l-1,-1h-1l-1,-1h-1v-1h-2v-1h-1v-1v1h1v1v-1h-1l-1,-1h-1v-1Z"/>
<path class="sl" d="M757,73h2l2,2h1h-1l-2,-2h-1l1,1l2,1h1l1,1h1v1h1v1v-1h-1l-2,-1l-2,-2l-2,-1h-1l-1,-1h-1h1ZM755,72h1l1,1h-1h2l1,1h1v1h1l1,1l-1,-1h-1h1v1v-1h-1l-1,-1h-2v-1h-1l-1,-1h1ZM771,81h1v1h1v1h1l1,1h1l1,1h1v1h1h-1l-1,-1h1v1h1l1,1h1l1,1h1v1h1v1v-1h-2v-1h-1v-1h-1l1,1l-2,-2h-1h1h-1l-1,-1h-1v-1h-1v-1h-2v-1h-1ZM767,79h1l1,1h1v1h1l1,1h-1l-2,-2h-1v-1h-1l-1,-1h1ZM725,67h1v1h1h-1h1h-1v1h1h-1l-1,-1h-1h1l-1,-1ZM706,87l-1,1v1l-1,1v-2h1v-1h-1v-1h1ZM708,85h1v-1v2h1v1h-2v1h-1v-1h1v-1h1h-1v-1h-2l1,-1h1ZM689,92h2l1,1h-4v-1h-1h1ZM685,93h-2l-1,-1h4v-1h-1h1l1,1h-1h1h-1ZM677,93h1v1h-2v-1h1h-1v-1h1ZM672,94h-1v-1h-1h2ZM660,92h-1ZM650,92h-1l1,-1ZM624,86h3l1,1h-3l-1,-1h-1ZM892,322v1l-2,-1v-3l-1,-1l-1,-2v-4l5,5v1h1v2l-1,1ZM879,304h1l1,1h-2ZM883,307h1v-1l2,2v1h-2v-1h-1v-1h-1v-1h1ZM875,302h1v1h1h-2v-1v1h-1v-1l-1,-1h1v-1l1,1ZM867,297l-1,1h-1v-1l-1,-1l1,-1h1v2ZM863,298h-1v-1h1ZM882,308h-1v-1l-1,-1h1v1h1ZM19,557v1v-2ZM777,659h1h-1v1v-1h-1v-1v1ZM789,638v1v-1h1ZM778,660v1ZM308,545v1h-1ZM305,557l-1,-1v-2h1v-2l-1,1h-1v-1l2,-2v-1h2l3,-1h6v-1h2l1,-1h1l1,1h1l-2,1l-1,2h-2l-2,2h-2l-1,1h-1l-1,1l-3,1l-1,1ZM296,556l4,-2v1h-1v1h-2ZM149,380v1l-1,-1ZM148,377v-1ZM121,413l-1,1v-2h1ZM132,397v1v-1h-1ZM132,398v1h-1v1v-2ZM127,425h-1v-1l1,-1v1ZM122,413l-1,-1h1ZM121,404v-1ZM124,416v1v-2ZM125,176h-1h1v-1ZM288,285l-2,2v2l-1,1l-1,-1h1l-1,-2v-1h-1l-1,-1v-5l1,-1v-3l6,-7l3,-3l2,-1l1,-1h1l1,1h1v1l-1,1v2l-1,1l-1,2l-1,1v2l-1,1l-2,4v1l-1,1l-1,2ZM273,271h-1ZM42,406h-1v-1v1ZM40,411v1ZM42,405h1v1l1,2v7l1,1v2h-1v1l1,2v8l-1,1v2l-1,1l-1,2l-3,3l-1,-1v-13l1,-2v-4l1,-1v-4l1,-2v-1l1,-1v-2h1l-1,-1ZM362,193l-1,1l-1,-1l1,-1h1ZM357,193v1h-1v-2ZM344,197v-1h-1h1v-1h1v1ZM353,174l-1,1v-2h1ZM348,197h-1v-1ZM355,195v-1ZM349,182v-1ZM344,194v-1h1ZM381,175h-1v-1h1ZM343,205h-1v-1l1,-1l3,-1h1v2h-2ZM597,546l-1,1v-1h-1l1,-1v1ZM656,575h-1l-1,-1h1ZM650,567h-3v-1h3ZM603,575h-1l-1,-1h-1l-1,-1h-1v-1h1l3,2ZM612,556v2l-1,-1v-3ZM592,552h-1v-1h2ZM601,551h1l1,1h-2v-1h-1ZM580,544l2,2l-1,1l-1,-1h-1v-2h-2l-1,1v-1l2,-2v-1l1,1v2ZM584,549v-1ZM583,548h-2l1,-1v-1l1,1h1h-1ZM577,548l-1,-1v-1h1v-1v2Z"/>
<path class="sl" d="M571,541v-1l-1,-1v-1h1l1,1v1ZM571,543h-1v-2ZM575,543h-1v-2h2v1ZM564,534h-1v-1h1ZM579,548v1l-1,-1ZM597,553l2,1h3l2,1v1l1,1h1v1l-1,1h-2l-1,-1h-4l-2,-2v-3ZM598,547l-2,-2l-2,-1h-1l-2,-2h-1v-1h-1l-2,-2v-1h2l2,2v1h2v1h2l3,3v1ZM578,536h1l-1,1h-1v-1h-2l-2,-1l-1,-3l-2,-1l-1,-1h2l1,1l2,1l1,1v1h1l1,2ZM606,545l2,2v1h-1v1h1v1h1v2h1v2l1,1v1h-1l-1,-2l-2,-2l-1,-2l-1,-3l-1,-2h1ZM613,563h2l1,1h1l1,2l1,1h-3v-1h-2l-3,-3v-1h-1v-1l1,1ZM150,468l-1,1l-1,-1v-1h2ZM808,595v3h-2l-1,-2v-1h2ZM813,600h-3l-1,-1v-1h1l2,1ZM444,75h-1v1v-1h-1h1ZM510,57l-1,1v-1ZM431,15h-1ZM444,13h-1ZM431,7h1ZM428,8h-1ZM410,10h1ZM407,11h-1h2ZM433,6h-1h1v-1ZM380,16h-1ZM386,14l-1,1ZM439,4h-2v1h-7l-1,1v-1h6l1,-1h4ZM434,5h-2l-1,1l1,-1h1v1h-5l-1,1h-3v-1h5l1,-1h3ZM433,6h-1h1l-1,1h-7l-1,1h-1v-1h5l1,-1h5ZM482,9h11v1h-5v-1h-2v1h2v1h-13v-1h1v-1h5ZM496,10h9v1h-8v-1h-1v-1ZM583,20h-1v-1h1l2,1h-1ZM471,78l1,1v3l1,1v4h-1v4l1,1l1,6l2,2v3l2,2h1v2l-1,-1v-1h-1l-2,-2h-4l-1,1h-1v1l-2,4l-1,1v3h1v1h1v2l1,1h2v2l-1,1v1v-2l-1,-1h-3v-1h-1v1h-1v1h-1v2h-1v1h-1v-5l1,-1v-4h1v-1l1,-1v-1l-1,-1v-1l-1,-1l2,-2v-2h1v-7h1v-3h-1v-1h-1v-3l1,-1v-2l1,-1v-1l1,-1h2l1,-1h1h-1l1,-1l-2,-2h1ZM585,19h3l1,1h1h-6v-1h-1h1ZM597,78h1l-3,-1h-1v-1l1,1h1ZM535,19h-1ZM541,24h-2v-2l1,1h-1h1v1ZM509,9v-1ZM501,8h-1h2ZM471,18h-1ZM433,7h-1ZM432,9h-1ZM407,11h-1ZM411,10h-1h1l2,-1h-1v1ZM405,10h1ZM359,21v-1h1h-1ZM364,19h1ZM376,17h-1ZM328,31h-1Z"/>
<path class="sp" d="M326,31h1"/>
<path class="sl" d="M305,40l1,-1v1ZM426,6h1ZM436,4h-1l-1,1v-1h1ZM482,12l-1,1l-1,-1h3ZM485,13h3v1h-6l-1,-1l-1,1h-1l1,-1h4ZM473,10h-1l1,-1l1,1ZM471,13h-1v-1h-1h2ZM448,75h1l-1,1h-1v1h-1v-1h-2l2,-2ZM562,23h-3l-1,-1h-1h5ZM568,60v-2h2l1,-1l1,1v1h-2ZM590,76v1l-1,-1h-1l-1,-1h-1l-1,-1h2v1l2,1ZM536,103h-1l1,-2h1v1h-1ZM544,96h-1l1,-1ZM542,98h-1l-1,1h-2v-1h1l1,-1h1v-1h2v1h-1ZM533,106h-1h1v-1ZM540,95h-1ZM527,111v1ZM521,116l-1,1v-1h2v-1h1ZM508,123l-1,1h-1l3,-3l2,-1h2l-2,1v1h-2ZM501,125l-1,1h-1l-1,1h-3v1l-2,1v1h-2l1,-1v-1h1l1,-1h1v-1h2v-1h2l2,-1h2l-1,1h1h-1ZM489,134v1v-1h1ZM486,130h3l-1,1h-2l-2,1v1h-1l-1,1v1l-1,-1l2,-1v-1h1v-1h1ZM423,13h-2l-1,1h-1v-1h3ZM414,7l-1,1l1,-1h1Z"/>
<path class="sp" d="M414,7h1"/>
<path class="sl" d="M427,5h-1l-1,1l1,-1Z"/>
<path class="sp" d="M425,6l1,-1h1"/>
<path class="sl" d="M358,21h-1h1l1,-1h1h-1ZM356,22l1,-1h1l-1,1ZM361,20h1l2,-1v1h-2ZM385,14h-1h1h-1h2ZM283,317h1l2,2h4v-1h1v2h-1v1l-1,3v1l1,1v1h1v3l-1,1l-2,3v1l-2,2h-1l-2,2v2l-2,2v2l1,1v2h1v1h-1v2l1,2v1h1l1,1h1v-2h1v-1h4l1,1v3h2v-2h1v1h2l1,1v1h-2v1l1,1v1h1l-1,1v1h3v2l-1,2h-1l-1,-1l1,-1v-1h-1v1l-1,-1l-2,-1h-1v-3l-2,-1h-1v-1l-1,-2h-1v4l1,1v1h-2l1,-1h-1v-1l-2,-1v-2l-3,-1h-1l-1,1v1l-1,1h-2l-2,-2l-1,1v-4l1,-1l2,-1v-2h-1l-1,-1h-1v3h-1v-1l-1,-1v-1h-1v-3l-1,-1v-8h1v1h1v1h2v-5l1,-1v-1l1,-2v-4l2,-4v-1l1,-1v-1l1,-1h2ZM245,403h-1v-1l1,-2h1v-1l3,-3h1v-1h1l4,-4l1,-2l3,-3h1v-1l1,-1v-3l1,-1l1,-2v-1v6l1,1v1h-1v1h-2v1l-1,1l-2,1h-1v1h-1v1l-1,3l-2,2h-1l-1,1v1l-2,2h-1l-1,1h-1v1h-1ZM286,375h3v1l2,-1v2l-1,1v1h-2v2h-1l-4,2h-1v1h-1v1v-4l1,-1v-3l1,-3l-1,-1h-1h1v-1h1v1h2v1ZM289,396h-1l-1,-2l-1,-1h-1l-1,-2v-2h1v-1h1l2,-1v-4l1,-1v-1l1,-1h3l1,1l-1,1v1l-1,1v1l-1,2v1l-1,1v2l1,3v1l-1,1ZM302,376v1h1l1,-1h1v6h1v2l1,1h-1v1h-1v-1v2h-2v-7h-2l-1,-2v-3h1v1ZM308,366v1h1l-1,1h1l1,1v1l-1,1v4l1,1v1l1,1v1l-1,-1h-3l-1,-1v-1l-1,-1v-2l-1,-1v-1h-1l-1,-1h-1v-4h6ZM274,359h2v1h2l1,1v1h1l-1,1v1l1,2l-2,2v1h-1v1h-1v-1l-1,-1v-2h-1v-2l-1,-2l-1,-1v-1h-1v-1h1ZM312,393l1,1v1l1,1v2l-1,1v1h1v2l1,1v4h1v4l-3,3h-1l1,1l-1,3v1v-1h-1v-5l-1,-1v-2h-1l-1,1v1l-1,1v1l-1,1v2h1v1l1,2v2l-1,1l-1,2h-1l-1,-1l1,-1v-1l-1,-1v1l-1,1h-1l-6,-3l-1,-1v-6l2,-2v-1l-2,-2l-2,-1h-2v1l-1,2h-1v-1l-1,-1l-1,1h-1v-1l-1,-1h-1l-1,1v1l-1,2l-1,1v2h-1v1h-1v-3l1,-1v-3l2,-2v-1h1l1,-1h3l1,-1v-2h2l1,-1v-1h1v1h2v2l1,1l-2,2h1l1,-1l2,-1l1,-1v-2h3l1,-1v-2h3v-1h3v-2l-1,-4h1l1,1l2,1h1ZM291,393v-1l1,-3v-1l1,-1l1,-2l1,-1v-1l1,-1l1,-2v-2l1,-1v3l-1,1v4h-1v1h-1l-1,1v2l-2,3ZM289,314l-1,1l1,-1v-1l1,1ZM287,311h-1v-1ZM291,303v-1h1ZM291,299v1h-1ZM272,422l1,1h1l-1,1v-1l-1,1l-1,-1v1l-1,-1l1,-1ZM242,408v-2h1ZM265,385l-1,-1l1,-1l1,1ZM268,370l1,1v-1v1h1v1h-3v-2h-1h1v-1v1ZM267,374v1v-1l-1,-2h1l1,1v1ZM286,384l-1,1v-1l1,-1v-1h1v2ZM301,390h-1l-1,1h-4v-2h1l1,-1v-1h3l1,1v1ZM265,429v1h-2v1h-1l2,-2ZM280,419h-1l-1,-1v-1l2,-1l1,1h1l-1,1ZM313,390l-1,-1v-1l1,-1v2h1h-1ZM310,388v1l-1,-1v-1h-1l1,-1v-2h1v3ZM271,357v1l-1,-1v-1ZM283,358l1,1v-1l1,1v1l-1,1h-1l-1,-1v-1Z"/>
<path class="sl" d="M283,368v3l-1,-1l1,-1h-1v-1h1v-2h1v1ZM288,369h-1v-1h-1v-1h1l1,1ZM293,364l1,1l-1,-1h-1l-1,-1v-1l1,2ZM297,367l-1,1l-1,-2v-1l1,1ZM296,369l2,2v2l-1,-1h-1v-1h-1v-1l-1,-1l-3,3v-1l1,-1v-2h1l-1,-1v-1l1,1h2v1ZM302,357v1h-2v-4h1l1,1h1l-1,1ZM286,354v1l-2,-2ZM285,346l1,1h-1v2h-1v-3ZM299,383l1,-1ZM307,388l-1,-1v-1v1ZM287,410v1h-1v-1ZM309,414l-1,-1l1,-1ZM302,375h-1l-1,-1l1,-1l1,1ZM302,395v1l-1,-1v-1h1ZM284,313v1v-2ZM266,376v1h-1v-1ZM295,377l1,1h-1ZM285,367v-1ZM312,391h-1l1,-1ZM304,374v1v-1h-1v-1ZM245,405h-1v-1h1ZM294,394v1l-1,1l-1,-1l1,-1ZM352,447v-1ZM382,409h-1v-2h1v1ZM346,162h1ZM657,810h2v-1h1l1,-1h1v2h-1h1v-1h1v-1h2l-1,1h1v1h-1l-1,1h-1v1h1l-1,1h1l-3,3h-1v1l-2,1l-2,3l-1,1h-3v1h-2v1h1h-1l-1,1h1l1,1h1v1h-1v1h-1v-1h-1v-1h-1v1h-2v-1v2h-2l-1,1h-2v1h-1l-1,1v2l-1,1h-1h1l-1,1h-1v1l-1,1v1l-1,1h-1h1v1h-3v1h-1l-2,2l-4,2h-2l-1,-1h-1l-1,1v-1h-1v-1h-2l-1,-1v-1h-1v1h-4v-1l1,-1l-1,1v-1h-1v-1h2v-1h1l1,-1l-1,1l-1,-1h1v-1h1l1,1v-1l-1,-1h1v-1l1,1v-1l1,-1l1,1v-1l1,-1h1v-1l1,1v-1l2,-2l4,-2v1l2,-1h1v-1h1l1,-1h2v-1h2l2,-2h1h-1h2v-1h1l2,-2v1v-1l2,-1h1l-1,-1h1v-1l1,-1v-1l1,-1h2v-1h1l1,-1l1,-2l1,-1l1,-2l2,-1h1v1l1,1v2ZM663,807l-1,1v-1l1,-1ZM610,838v1h-1v-1v1v-1ZM612,835v1ZM615,846v1h1l-1,1h-3l-1,1v-1h1v-1h1v-1l1,-1h1ZM684,775h-1v-1h1ZM672,765h1l1,-1l-1,1h2v1h2v2h1v-1l1,1v3h-1v2l1,2v1h-1l1,1l-1,1v1h-1h1v1l1,-1v1h2v2h1v-4h1h-1v-1l1,-1v1l1,1v7h1l2,1v1l3,1h1l2,-2h1v-1h4v1h1h-1v1l-2,2l-1,2v1h-1l-1,1h-1v1l-1,1v2l-2,-2h-1l-1,1h-1l-2,2v1l1,1l-2,1l-1,2h-1v1l-2,2h-1l-1,1v1l-2,1l-2,2h-1l-2,1l-1,1v-2h-2v-1h1h-1v1h-1v-1h1l1,-1l1,-2l2,-1v-1l1,-1v-3l-1,-1h-2l-2,-2h-1v-3h2l2,-1h1l2,-2v-2l2,-2v-1l1,-1v-3h1h-1v-2l1,1v-1h1v-1h-2v-2l-1,-2l1,1l1,-1h-1v-1h1l-1,-1v1l-2,-2v-1v2l1,1v1h-1v-2l-2,-5h1v-1h1h-1l-1,1l-1,-1h1h-1v-2l1,-1h-1v-1l-1,-2v-1h2l-1,1l1,1v1ZM608,880h-1ZM597,870h-2l2,-2v1ZM709,828v1h-2v1h1h-1v1h-1v-1h1v-1h-1v-1l1,1v-1ZM707,832h1ZM812,553v-1ZM815,643l-1,1v-2h1ZM866,665v-1h1v1ZM659,478v-1ZM32,675h-1v-3h-1v-1v1l1,1v1ZM18,465v-1ZM19,456h-1ZM129,425v-1l1,-1v1l2,1h1v2h1v5h1v-2h1l1,-1v1h2v-1l1,-1v-1l1,-1l1,1l2,4l3,3l1,5v3l-1,3v10l2,2v1l3,7v3h-1v-2h-1v1h-2l-1,1v-1h-1l-3,-2l-4,-4l-1,-2l-1,-1l-2,-1v-1h-1l1,-1l-1,-2v-1l-1,-1v-2l-2,-2v-1h1l-1,-1v-4l-1,-4v-10l-1,-1Z"/>
<path class="sl" d="M244,439h-1l-1,-1h-5l-1,1l-1,-1h-1l-1,1l-1,-1l-2,2v2h-1v7l-1,1h-2v5l-2,2h-1v2h1l-1,1v1l-1,1v1l-1,1l-1,-1v1h-3l-2,2l-1,-1h-3v-1h-1v-1l-3,1h-2v1l-1,1v1l-1,1h-1v1l-1,-1l-1,1l-2,-1h-1l-1,1l-2,1h-2v-1l-2,-2h-1v-1l-2,-2v-2h-1v-1l1,-1v1l1,1h1v1h3l2,1h2l1,1h1h-1v-3l1,-1v-5l1,1h1v-4h1l1,-1h2l5,-2h1l2,-2l2,-4l4,-4v-3h2v2l3,3v-1l1,-1v-5h1v-1h1v4h1v1l1,-1v-2l-1,-1v-1l1,-1h1l1,-1v-1h-1v-2l1,-1h2v-1l2,-2v-1l1,-1l2,-4h1l2,-4v4l1,-1v-1l1,-1v-1l1,1v2h1l1,1h1v5h-1v1l2,-1h1v-1l1,1v1h-1v1h1l1,-1h2v1l1,1l2,1h2v1h1v1h-1l-2,2h-5l-1,2l1,1l2,1v1l-1,1h-2l-1,1h-1l-1,-1h-1v1ZM152,456h-1l1,-1ZM129,435v-1h1ZM128,425v2l-1,-1v1v-1h-1h1v-1ZM243,414h-1v-1l1,-1h1v1h-1ZM134,455v-1ZM199,456v1v-2ZM247,439h-1ZM708,447h-1ZM707,448h-1ZM708,458l-1,-1h1ZM708,465l1,1l-1,1v-1h1h-1ZM720,482v-2h-1h1v1ZM722,485v1ZM708,463v-1h1v1ZM816,517v1v-1v1ZM800,518h1ZM917,520h-1ZM924,585h-1ZM906,467v1h-1l-1,-1h1v-1h1ZM894,449h1v1l-1,-1h1ZM820,502l1,1h-1h1h-1v-1v1ZM395,183h-1v-1h1ZM431,172h-1h1v-1h-1l2,-2h1l-1,1h1l-1,1ZM404,196l-1,1h-1v-1l2,-2h1l-1,1ZM368,225h-1v-1h2ZM371,224h-1l1,-1v-1l1,-1v1l-1,1ZM367,211h-1h1v-1h-1l1,-1h1v1ZM364,198v-2l1,1ZM365,196v1v-3h1v2ZM358,207h1v1l-1,1v-1ZM369,210l-1,-1h2ZM455,125v1v-2ZM456,126v1l-1,-1h2ZM442,145v-1h1v1ZM400,195h-1l1,-1ZM436,193h-1v-1h1ZM361,207v-1l1,-1v1h-1ZM364,204h-1h1v-1h1v1ZM367,200v1l-1,-1ZM387,197v1h-1ZM385,199h1h-2ZM364,215h-1h1v-1ZM452,251h-1v-1ZM471,132h2l2,1h3l1,-1l2,-1v1h-1l-1,2v1h1v1l1,1h2v-1l1,1h-2v1h-3l-1,1h-5l-1,1h-2l-2,2v1l-1,1v1h-1l-4,-2l-3,-1h-4l-3,1l-1,-1h-3v1l1,1h1l2,1l1,1l-1,1h-1l-1,-1l-3,3h-1l-1,-1l1,-1v-2l-1,-1v-2l1,-1h1l2,-2h1l-1,-1v-1h1l2,1h3v-1h1v-2l1,-2h1v-2l1,-1v-3h-1v-1l1,-1h1v-1h1v1h1l6,6h1l1,1ZM377,201h3v1l-1,1l1,1h1v2l-3,3v1l-1,1v1l-1,1v2l-1,2h-2v1l-2,1l-1,1v-1l1,-1v-1l-1,-1l1,-1h-1l-1,1v1l1,1h-1v1l-2,-1h-1v-1h1l1,-1v-1h-1v-2l1,-1h1v-1l2,-2v-3l-1,-1v-1h-1v2l1,1v1h-2v-1l-1,1h-1l-1,1l1,-1v-1h-1v-2l2,2v-2h-1v-1h-1v-1h2l1,-1h1l1,-1h1l1,-1l2,-1h1l1,1v1ZM400,196l1,1l1,-1l-1,2l1,1h-1h1l-2,1l-1,1h-1v2h-1l-1,-1h-2l-3,1l-1,2h-1l-2,2h-1v-1h-1v-3h1h-1v-1h-1l-1,1h-1h1l1,-1h1l3,-3v-1h2l1,1l1,-1h2l1,-1l-1,-1l1,1l1,-1h3Z"/>
<path class="sl" d="M453,149h2l-1,1v4h1v1l1,1v1l1,1v3l-1,2l-1,1h-1v1l-1,1v2h-3l-1,2v6l-1,1v1h-1l-1,1v2h-1v2l1,2l1,1h-2l-2,2v1l-1,1h-1l-1,1h-1v-2l2,-2v-1h-2v1l-1,1v2l-1,-1h-3v3l-1,1h-2l1,-1v-2h-2v1h-1l-1,1v1l-1,1l-1,-1h-5l-2,1l2,-1v-1h-1l-1,1v-1h-1v1v-2h-1l-2,2l2,2h1l-1,1h-2l-2,1l-2,2l-1,2l-2,1l-1,-1h-1v-1l-1,-1v-3l1,-1h1v-2h-1l-1,1l-1,-1h-5l-1,1h-1v1h-3l-1,1h-4l-1,1l-1,-1h-1l-2,2v1h-1l-2,-1h-2l-1,1h-1v-1h-1l-1,1l1,-2v-1h3l2,-2h1l1,-1h1l3,-3l2,-1l1,-1h1l2,-1h1v1h6l1,-1h4l2,-1h1v1h-1h1l2,1l1,-1h1l1,-1v-2l2,-2h1l3,-3v-3l1,-1h1l2,-1h1l-2,2h-1l-1,1h1v1l1,1h1l1,-1l5,-2h1l2,-1l2,-2v-1h1l2,-1l2,-2v-1l2,-2v-1h1v-2h1v-1h1v-4h-1l1,-1v-4h2l1,-1v-2h2v2h3l1,-1v-1h-3l1,-1v-1h1ZM314,269l-1,2v-1ZM311,271h-1v-1ZM323,267l-1,1v-1ZM346,252l-1,1h-1v1h-1v1h-1v1l-1,1v-1l1,-1v-1h1v-1h1h-1v-1h2l1,-1h1v1ZM353,244h-1v-1h1ZM357,240l-1,1l-1,-1h1v-1h2v-1h1v1h-1ZM356,241h-1ZM438,204h-1ZM112,469l1,3h1v5h-1v-2l-1,-1h-1v-2l-1,-2h1v-1ZM121,497l-1,-1h-1v-1l-1,-2v-1l1,-2h1v1l1,1v2l1,1v2ZM240,551l-1,2h1l-2,1h-1l-2,-1h-1v-1h2v-1l-1,-1l1,-2h1l1,-1l2,1v1ZM231,547v1l2,1l-1,1l-2,1v2h-1v-1l-2,-2h-1l-2,-2v-1h1l1,1h1l2,-1h1ZM163,494l1,1v3l1,2l3,1v1l-1,2l1,1v1h-1l-1,-1h-1v-1h-2v-3l-1,-1v-2h-2v-1l-1,1h-1v-1h-1l1,-1h1v-3h2v1v-1l1,-1l1,1ZM288,514v2h-1l-1,1v3l1,-1l1,1v1h-1v1l-1,-1v2l-1,1h-1l-1,-1v-1h1v-2h1v-5l1,-2h1ZM284,520l-1,1v1l-1,-1l-1,1v-3h1v-1l-1,-1v-1h1l1,-1h1v3l-1,1ZM179,446l-1,1l-1,-1h1v-1h-1v-2l1,-1l1,2v1ZM178,505l-1,1v1h-1v-1l-1,-1v1l-1,1v-3h-1h1v-3h3l1,1v1ZM387,478h3v1h2l3,3h1l-1,1h-3l-1,-1v-1l-2,-2h-2ZM388,486l3,1h8l1,1h-1l-1,1h-4l-1,-1h-2l-3,-1ZM349,473h2l2,1v2h-3v-1h-1l-1,-1h-1l1,1v1h2v1h-2v-1h-1l-1,-1h-2v-1h3v-1h1ZM329,456h-1v-3l2,-2h1v3l-1,1ZM327,488h-3l-2,1l-1,-1v-2l1,-1h2l2,2h1ZM310,495h-1v-2l-1,-1l1,-1v2l1,1ZM310,489l2,1l-3,1l-1,-1l-3,1v-1h2ZM301,489h2v1l1,-1v1h-1l-1,1h-3l-1,1h-1l-1,-2l1,-1v-1h2ZM355,543h-2v-4l1,-1h1v-1l1,-1v-1h1l1,1h-1v4h-1v1l-1,1ZM318,541h-1l-1,1h-1v1h-5v-1l1,-1h3l1,-1h2ZM300,545v1l1,-1h3v2l-5,1v-1h-1l1,-1v-1ZM350,484v1l-2,-2v-2h3v2ZM108,437h6l1,1l1,2v2l1,1v3l2,1v1h1v1l2,1l2,3l2,2v1l1,1v1l1,2l1,1v1h1v1l1,1v-3h1l2,2v2l1,1h2l1,2l1,1v3l2,2h3v3l-1,1h-2h2l1,-1h1l1,-1h1l2,2v1l-1,1v1l-1,1h-1h1l-1,1l1,1v3h1v1h2l1,1h2v5h1v2l2,2v1h-1v1l-1,1v1h1l1,-1v-1h4v1l3,3l1,2v2l-1,1l-1,2l1,1v18h-1v-1h-1l-1,-1l-1,1h-1l-2,-1v3l-3,-3v-1h-1l-2,-3l-2,-2h-1v-1l-6,-6l-1,-3h-1l-3,-3v-1l-1,-2v-1h-1v-1l-1,-1l-1,-2v-1h-1v-2l-2,-6l-1,-1v-3l-1,-2l-2,-2l-1,-2v-2h-2v-1l-1,-1v-2l-2,-7v-2l-1,-2l-3,-2v-1h-2v-5l-2,-2v-1l-1,-3h-1v-1h-2v-1l-1,-1v-1l-1,-1l-2,-4l-1,-1v-1l-1,-3l1,-1v-2h2l2,2v1h1Z"/>
<path class="sl" d="M286,550h-2v1h-3l-2,1h-5l-1,1h-1l-1,-1h-7v-1h-1v-1l1,-1v-1v1l2,-2h5l1,1h1l1,1h1l1,1l1,-1h2l1,-1l2,2h1v-1h1v-1h1l1,-1h1v-1h-1v-1h1l1,2h-1v1h-1l1,1h-1ZM265,557h1l1,1v1h2l3,3v1l-1,1h-1l-1,1v-1h-2l-4,-4h-5v-2l1,-1h5l1,-1ZM251,548h4v1v-1h2v1l1,1v1l-1,1v-1h-1l-1,1h1h-1l-1,1h-1v-2l-2,2h-3l-2,1h-2v1h-2l-1,-1v-4h1l1,-1h4v1h1v2l1,-1l1,1l2,-2h-1l-1,-1l-2,-1v-2h2l1,1ZM300,465l-1,2l-2,2v1h-1v1h-2l-3,1h-3l-2,-2h-6l-2,1h-3v-1h-2l-3,1h-1l-1,-1h-1l-1,1h-2v2l-1,1v1l-1,1v3l1,1v1l1,2h1l1,1l1,2v1h4l2,-4l1,-1h1l1,1h1l1,-1h1l1,-1h5l-1,-1h2l1,-1l2,2v2h-2v-1h-2l-2,2v1l-4,4h-2l-1,1v1h-3v1l2,2h1l1,1l1,2v1l2,2v1l1,1l-1,1v4h1l1,1h1v2h2v3l-1,-1v1h-2l-2,1h-1v3h-3v-1h-1l-1,-1l1,-3v-2h-1l-4,-4h-1v-1h1v-2l1,-1v-3l-1,-1h-3v1l-2,1l-1,1v1l2,2v12l-1,2v2l1,2v1l1,1l-1,-1h-1v1h-2l-1,1h-1l-2,-2h-1v-2l1,-1v-4l1,-1v-5l-1,-2v-2h-1v-1l-1,1h-3v-2l-1,-1v-1l1,-1l-1,-1v-1l3,-3v-3l1,-1v-6l1,-3l2,-2l1,1v1v-2l-1,-2v-3l1,-1v-4h1v-1l1,-1v-1h1v-1l1,-1v2h2v-1l1,-1v-1l2,-2h1l1,1h1l1,1h3l1,1h5l1,1h1v-1h3l5,1l3,-2l2,-2v-1h1l1,-1v-1l1,-1h1l1,1v2h-1v2l-1,1ZM174,531v1h1l1,1h4l1,1v1h1v2h1v1l1,-1l1,1h3v-1l1,1h6l1,-1v-3h2l1,2h2l1,-1l1,1l2,1h4l1,1v2h1v3l2,1h6l1,-1l3,1v6l2,2v1h-1l-1,-1h-1l-2,-1h-2l-3,-2h-2v1h-10l-1,-1h-5l-6,-3l-4,-1h-4l-1,1h-4v-1h-1l-1,-1h-3l-3,-1h-2v-2h1v-1l-2,-1h-7v-1l1,-1v1h1v-1h1v-1l1,-1v-3l1,-1h3l1,1h2v-2l1,1h1ZM187,460l-1,1v1h1v2l2,2v1h1l2,2v1h2l2,-1l1,-1h1l2,1l1,-1l1,1v-1h1l1,-1v-1l1,-1v-1h2l3,-1v1h1v1h3l1,1l2,-2h3v-1l1,1l1,-1v-1l1,-1v-1l1,-1h-1v-2h1l2,-2v-5h2l1,-1v-7h1v-2l2,-2l1,1l1,-1h1l1,1l1,-1h5l1,1h1v3h1v1h1v1h-2v-1v1h-3v1l1,1h1l-1,2h1l1,1v1h1h-1h1v2h1v1l1,2h1v1h-1v1h-1v1h-1h1l1,1l1,2l3,2l1,1l1,2h1v2h-6v-1h-1l-1,-1l1,1v1h-1v1h-1l-1,4l-1,1v5l1,2v1l-1,1h-1l-1,1v1l-2,2l-1,-1v-1h-1v1h1v1l-2,2v1l-1,1h-1v1h1l1,1l-1,1v1h1v3h-1v1v3h-1v2l-1,1v2h-1l-5,3l-4,3v-1l-1,-3v-3l-1,1h-1v-1h-1v-1l-2,2h-2v-3l-1,1h-1l-2,-3v3l-2,1l-1,1l-1,-1h-1l-1,1l-2,1v-2l-1,-2v-1l-1,-1v1h-3l-1,1h-2l1,-1h-1v1h-1v-1h-2v1l-1,-1v-2l-1,-4v-2l-1,-1v-1l1,-1v-2l-1,-1v-2h-1l-1,-1h-2v-1h-1v-1h1l-1,-1v-1h-1v-2h1v-3l-2,-2v-7h1v-1h1h-1v-2l2,-2v-2ZM323,466h2v-2h2v-2l2,-2h2v1h1l-1,3l-1,1l-2,1v1l1,1l2,1v1l1,1h1l-3,-1h-3v-1h-1l-1,1v6l1,2l2,2v1h1h-1v-1h-2v-1l-1,-2h-1v-1h-1v-6l-1,-1v-3l-1,-2v-1l1,-2v-2l1,-2l3,-3v1l-1,2v1l1,1v3l-3,3Z"/>
<path class="sl" d="M340,498l2,1h3l2,1l1,1v2h1v1h1l-1,3l-4,-2v-1l-2,-1h-1l-1,-1h-3v1h-2l-1,-1h-1v-1l-1,1h-1l-1,1h-2l-1,-1v-1h-1l-1,1v2h-1v-2l2,-3v-1h8v1h1v-1h3ZM317,501h1v1h1v1h1v2h-1v1h-2v1h-3l-2,-2h-1l-1,-1v-3h2l2,-1h2ZM303,552v1h1l1,-1v2h-1v2l1,1h-1v1l-3,3v1h-1l-1,1h-1l-2,1h-2v-2h-1v-1l1,-1v-2l2,-2h3v-1h1v-1h1l1,-1ZM382,522v1l1,1h-1l1,1v2h-1v1h-2l-1,-1v-1h-1v-1h1v-2h-1v-1h1l1,-1v-1h2v1ZM381,529v1l-3,3l-1,-1v-3h1h-1v-2l1,-1v1l1,1h1ZM415,544l-2,1h-3l-2,1v-2l1,-3l2,-2v-1l1,-1h1l2,-1l2,1l1,1h1v1l-1,2l-1,1l-1,2ZM435,495v16l1,1v15l-1,1v4h1v19l-2,-1l-1,-1v-1l-5,-5h-1h1v-1l1,-1l-2,2h-6v-1v1h-1l-1,1h-1v-3l1,-1v-1h1v-1h-1l-1,-1v-1h-1v-1h2l-1,-1h-2l-1,-1v-1h3l-1,-1h-1v-2l-2,-2l-1,-2v-2h-1v-1h1h-2v-2h-1l-1,-1h-1v-1l-4,-2v-1v1h-1v-1h-3l-4,-2h-1l-1,-1h-1l-3,-1h-4l-4,-2v-2h1h-5v-1h-3v-1l-1,-1h-1v-3l1,-1v-1l-1,1v2h-1v2l-1,1v2l-1,1h-4v-2l-1,-1l1,-1v-2l-2,-2l-2,-1l-1,-1h-2v-1l2,-1h1l2,1h1l3,-3h2l1,1h2v1v-1l1,-1h1v-1h-1v-1h1v-1l-2,1h-4l-2,1h-1l-2,-1h-3l-2,-2l-1,-2v-2l-6,-1v1h-1l-1,-1l1,-1h1v-1l1,-1v-2h1l3,-1h1v-1h1v-1h1l2,-1h4l2,1l1,1l2,1h5l1,1h-1v1l1,1v1l1,1v1l-1,1v7l2,2l1,2v-3l1,1v1l1,2h1v2l2,2h3l4,-4l1,-2l2,-1v-2h1v-1h2l2,-1h2l1,-1v-1h-1v-1h1l1,-1l4,-2h1l1,1h1l4,2h1l1,1h2l1,1l5,2l1,1l2,-1l1,1h3l1,1v1ZM418,545h-3l2,-2ZM136,462l1,1v1h-1v2h-1v-1l-1,-1l1,-1ZM140,472v-1l-1,-1v-1l1,-1v1l1,1v1ZM141,468v1v-1h-2l-1,-1v-1l3,1ZM144,474l-1,-1h-2v-3l1,1v1h2v1ZM145,472v1l-2,-2h-1v-1h1l1,1ZM146,475h-1v-1ZM147,474l-1,-1v-1l1,1ZM150,469l1,1v1h-1v-1ZM154,469v3h-1v-2l-1,1v-2h1ZM155,481h1v1l-1,-1l-1,1l-1,-1l1,-2v1h1ZM153,483h1v1l-1,1h-1v-2ZM148,483h-1v-1h1l1,1ZM187,488l-1,1v-2l1,-1v1h1v1ZM219,539h-3v1h-3l-2,-1v-2h9v1h-1ZM384,482h-2l1,-1h1ZM320,478h-2v-1l1,-1h1v1ZM322,476l1,2l-1,1l1,1h2v1h-2v-1l-1,1h-1v-2l-1,-1v-1l1,-1v1v-1ZM367,524v-2h1l1,-3v2l-1,2ZM366,524v1l-1,-1v-2h1v1ZM328,505v1h-3l1,-1h1l1,-1h1ZM316,439v-5h1v3ZM307,444h-1v-2h-1l1,-1v2ZM351,546h-1l2,-2h1l-1,1h-1ZM342,543h-1l-1,-1v-1h2v1ZM326,544h2v1h-2ZM345,488l1,1v1h-1h1h-1v1h-2l-2,-1h-1v-1l2,-1h2ZM142,528h-1l-1,-1h2ZM129,509v1v-2h-1v-3l1,2v1ZM128,505l-1,1l-1,-1v-2l2,1Z"/>
<path class="sl" d="M125,502v-1h-1v-2l1,1v1ZM117,486v1l-1,-1h1v-2l-1,-2h1v1l1,1v1ZM107,462h-1v-1l-2,-1h-1v-3l1,1v1h1v1l1,1h1ZM279,522h-1l-1,-1v-1h1l-1,-1h2v1ZM287,485v1l1,-1h1l1,1v1h-2l-1,1v-2h-1l-1,2h-1v-2l1,-1l2,-1ZM277,478v1h-2l1,-1ZM268,530l-1,1v-5l1,1ZM229,537h-1v-1h2l1,1h-1ZM235,510l-2,1v-6l1,-1v2h1v3ZM289,569h-1v-1h2v-1l1,-1h1v1l-1,1ZM298,547h-1v2h-1v-1h-1v-1h1l1,-1h1ZM295,546l-2,2h-1v1h-2v-1l1,-1v-1h1v1l2,-1ZM290,547v1h-2v-1h1v-1h1ZM382,530v-1h1ZM147,471h-1v-1v1ZM149,473v-1ZM152,472l-1,1v-1ZM154,479l-1,-1h1ZM165,452v-1ZM162,454h-1v-1h1ZM182,453v-1ZM182,492v1l-1,-1ZM173,504h-1v-1h1ZM169,505h-1v-1h1ZM223,539h-1v-1ZM210,528h-1v-1h1ZM160,537h-1l1,-1ZM111,464v-1h-1h1ZM102,433v-1h1ZM290,489h-1v-1l1,-1v1ZM288,510l-1,1h-1v-2h2ZM292,491v1ZM287,490l-1,1v-1ZM261,551h-1v-2h1v1ZM258,547h-1v-1h1ZM232,553v-1h-1h1ZM245,439h2v1l-1,1l-1,-1ZM245,447h-1v-1h1ZM295,526v1v-1h-1ZM291,520v1ZM270,537h-1v-1h1ZM246,549v-2h1ZM236,506l-1,2v-2ZM321,467h-1v-1ZM379,491h-1l1,-1ZM372,510h1h-1l-2,-1h1ZM350,480h-1v1h-3v-1h3ZM347,478l-1,-1h2ZM338,475v-1h-1l-1,-1l2,1ZM321,474v-1ZM321,468h-1l1,-1ZM320,480v1l-1,-1v-1h1ZM332,504v1h-1v-1ZM331,505h-2v-1h1ZM316,440h-1v-1ZM317,441h-1v-1ZM305,451l-1,-1h1ZM360,536h-1v-1h-1h1ZM332,536h-1l1,-1ZM322,540v-1h1v1ZM292,564h-1l1,-1h1h-1ZM281,567h-2l2,-2v1ZM383,529v-1h1ZM382,531v1v-2h1v1ZM326,499l-1,1v-1ZM323,502v1h-1v-1ZM288,549h-1v-1h1ZM96,424l-1,1v-4h1v2ZM95,420v1v-2ZM93,412v1ZM94,415v1v-1h1ZM95,414v-1ZM93,405h-1v-1h1ZM93,393h-1v-2h1v-1l1,1l-1,1ZM95,386v-1ZM95,385v-4h1v-2h1v-5l1,-1v-1l1,-2v-2l1,-1v3l-1,1v1h-1v1h1l-1,3v1h-1v3h-1v4ZM98,380v1h-1v-1ZM97,373v1v-2l1,1ZM782,593v-1ZM768,601h-1v-1h1ZM915,630v-1h1ZM920,638v-1ZM915,631v-1ZM922,639v2l-1,-1v-1v1v-3l1,1ZM970,576h1l-1,1ZM970,578h-1ZM970,583v-1ZM968,568v1v-2l1,1ZM968,573v-1ZM949,644h1v-1v1ZM970,569v-1ZM948,649v-1ZM948,647v-1ZM959,652h-1v-1v1ZM958,650v-1ZM947,670v-1ZM949,629v-1ZM945,633h-1ZM944,633v-1ZM941,626v-1ZM939,629v-1ZM628,647l1,1h2l2,3h1l2,2h1v1l1,1v1h1v1h1l1,1l2,1l2,2v1h1l2,2l-1,1h-1l-2,-1h-1l-1,-1h-1v-1l-1,-1h-1l-1,-1h-1l-4,-4h-1v-1l-1,-2h-1l-1,-1v-1l-2,-2v-2h-1l1,-1Z"/>
<path class="sl" d="M651,667v1v-1h-1ZM594,639v-1l1,-1v1ZM656,658h1v1h-2v-2h1ZM646,651h-1h1v-2h1h-1v1ZM652,655h-1l-1,-1h-1v-1h1v-1h-1h1l1,-1v2h1v1ZM178,874h1l-1,-1l2,2v-1l-1,-1h1v1h1v1h1h-1v1h2v1h-1v-1h-1l1,1h-1v-1h-1v-1h-1v-1h-1l-1,-1h-1v-1l-1,-1h1v1h1v1h1ZM178,874v-1h-1h1ZM752,616l-2,1v1h-1l-1,1v2l2,-2h1h-1v2h-4v-1h-1l-1,1v1h-3v-1h-1v-1h1v-1v1h1v-1h1l1,-1h2l1,-1h1v-1h2ZM738,626v1l1,1h1l-1,1v1l1,2h-4v1h-3l-1,-1h-2v-3h1v-1l2,-2h2l2,-1ZM751,622v1v-2l1,-1v2ZM751,623h-1v-1l1,-1v1ZM737,639v1h-1v-1l-1,1h-1l-1,1v-1h2v-1h1ZM756,631v1ZM757,634v-1h1ZM757,625v1v-2l1,1ZM758,641v1l-1,-1h1h-1ZM749,639v1v-1v1ZM730,623v1v-1h1ZM746,626v-1ZM744,632v-1ZM741,629v-1ZM752,619h-1l1,-1ZM752,616v-1ZM735,584h-1ZM271,271h-1v-1h1ZM309,218l-2,-1h-1v-1h2v1h1ZM309,229l-1,-1h-1v-1h1l1,1h1ZM308,231l-1,-1h1ZM284,263h-1v-1h1v-1v1ZM213,300h1h-1v1v-1h-1ZM299,243h-1v-1h1ZM237,285h-1v-1v1ZM229,295v-1l1,-1v1ZM228,295v-1h1ZM214,308v3h-1v1l-2,2v1h-1v2l-2,2h-1v1l-1,1h-2v1l-1,1h-2v-1h-3l-1,-1v-3l1,-3v-1h1v-1h1l2,-2h1h-1l2,-2h3l2,-1h1l1,1v-1h1v-1h1v1ZM239,287h2v2h-1l-1,-1h-1h1ZM240,290l-1,-1h1ZM238,290h-1v-1h2ZM788,92v1h1l1,1l-2,-2v1h1l2,2h1l2,2h-1v-1h-1v-1h-1l-1,-1h-1v-1h-1l-1,-1ZM795,97l3,3h1v1h2v1h1v1v-1h-2v-1h-1l-2,-2h-1v-1h-1l-1,-1h1h-1ZM827,122h1h-1v-1h-1l-1,-1h-1h1l-1,-1v1v-1h-1v-1h-1v-1h-1v-1h-1h1v1l-2,-2h-1h1h-1v-1h-1l-1,-1h1h-1v-1h-1h1v1l-2,-2l2,1l1,1v1h1v1h2l6,6Z"/>
<path class="sp" d="M818,115h2l7,7"/>
<path class="sl" d="M787,91h-1v-1v1ZM804,104l-1,-1ZM791,94h1h-2v-1ZM797,98l-2,-1l-2,-2v1h1l2,2ZM785,90v-1h-1ZM799,100l2,1l1,1l-2,-2h-1v-1h-1l-1,-1h-1h1l1,1ZM825,120h-1ZM823,118h-1v-1h-1h1v1ZM802,102l-1,-1ZM810,108l-1,-1h-1v-1l1,1ZM803,102h-1l-1,-1l1,1ZM798,99l-1,-1ZM797,98l1,1l-1,-1h-1v-1v1ZM666,29h1ZM151,383v-1ZM152,388v-1ZM123,387v1h-1ZM121,396v1v-1l1,-1v1ZM124,383h-1l1,-1v-1v1ZM126,379v-1ZM126,381l-1,1v-2h1ZM126,373v2l-1,1l1,-2ZM124,377v-1ZM111,347v-1h1v-1h1h-1v1ZM128,343h-1l1,-2v1ZM113,325v-2h1v1ZM115,315v1v-2ZM116,317v2l-1,1v-2ZM125,387h-1l1,-1ZM123,381v1v-2ZM124,375v1h-1ZM126,369v1v-2ZM113,348h-1l1,-1ZM113,315v1v-2ZM227,434v1l1,1v2l-1,1v-1h-1v-4ZM226,434h-1v1h-1v5l-1,1v1l-3,-3v-2h-1h2v-1l1,-1h1l2,-2h1ZM111,297l-1,1l1,-3v1ZM113,296v-1ZM109,298l-1,1h-1l2,-3v-3l1,-1v4ZM113,300l-1,1l1,-1v-1ZM112,302v-1h1v1ZM111,291v1l-1,-1ZM455,576v3h1v2l1,1v1l1,1v2l1,1v5l1,1v2l1,1v1h3l1,-1l2,-1l1,1v2l3,1l2,2h1v1l-1,1l1,1v4l1,1v5l1,1v1l2,2h1v2l2,4v3l-1,2v1l2,2h1v4h1l1,1h1l1,1h1l1,1h3l1,1v1l2,1l1,1h1l1,1l2,1h2l1,2l1,1h-1l-1,1l3,3l1,2l1,1v1l1,1l1,2v2l1,2v1h1l1,1h1l-1,-2l1,-1l3,3h1v-1h1l1,2v7h1l1,1v1h1l1,1l2,1l1,1h1l1,1l1,2l3,3v1l1,1v1l2,1v3l2,2v12l1,3l1,1v1l1,1v5l-2,4l-1,1v3l-1,1v1l-1,4v2l-1,2v2l-2,3l-1,2v1l-1,1v1l-1,1h-1v1h-1h1l-2,1h-1l-1,2l-2,2v1h-1v4l-1,-1v1l-2,2v1l-1,2v2h-1v1h1h-1l-1,1l-1,2l-1,1v1l-1,1v5l-1,1v6h-2l-1,1h-1l-1,1h-8l-2,1h-1l-2,2l-4,3h-4v1h2v2h-1l-1,-1v-1h-2l-1,-1h-1l-1,-1h-1l1,-1v-1h-2v1l-2,1v-1h-1h1l1,-1v-2h-1v-1l-3,2h-1h2v1h-1l-1,1h-1l-3,3h-2l-1,-1h-1l-4,-2h-2l-2,-1h-2l-1,1h-1l-1,-2h-2l-2,-1h-2l-1,-2l-3,-2l-1,-1v-4l-1,-3l-2,-2l-2,-1l-2,-2h1v-1h1v1h1l-1,-1h1l-1,-1h-1v1h-2v1h-4v-1h1v-1l1,-2l-1,-2v-1l-2,-2v-1l-1,-1v1l-1,1v3l-1,3h-6l1,-2h3v-8l2,-2v-2l-1,-1h1v-1l-1,-2v-1l-1,-1v1l1,1l-3,3v2l-1,1v1h-2l-1,1h-1v1h-1l-2,3l-1,1v2l1,1v1l-1,-1h-2l-2,-2h-2v-1h2v1h1l-1,-2l-1,-1v-1l-3,-3l-1,-2v-1h-1l-1,-1h-2l-1,-1l-1,-2h1v-2l-3,-1l-1,-1h-4l-3,-2h-1l-2,1h-1l-4,-3l-3,-1h-3l-1,1h-11l-4,2l-3,2h-3l-2,1h-2l-2,1l-4,-1l-4,2v1h-2l-2,2l-2,1h-2v1l-1,3v1l-1,2h-2l-1,1l-1,-1h-2l-3,1l-1,-1h-8l-2,1h-4l-1,1l-1,2l-1,1h-2l-5,5h-8l-3,-1l-3,-3h-2l-2,-1h-1v-1h-1v-1l-2,-4h1l1,1h1l1,-1v-3l-1,-1l-1,-3v-2l-1,-4l-1,-1l-4,-6l-3,-3l-2,-4v-2l-1,-1v-1l-1,-3l-2,-2h-1v-1l-3,-3l-1,-2h-1l-1,-4l-4,-5l-4,-5h-1v-1l1,1v-1l4,4v-2l-2,-2l-1,-2l-2,-2h1l2,2v2h1v-1l1,2h1v1l1,-1v-1l-1,-1v-1l-4,-6l-1,-1l-3,-5v-1l-1,-1v-3l1,-3v-3l-1,-1v-1l-1,-1v-3l1,-3v-1h1v3l1,1v1h1v-2l1,-2v-1l1,-1l4,-2l2,-2v-1l1,-1l4,-3l1,-1l1,1l1,-1l1,1h1l2,-1h1l1,-2h1l2,-1h2l2,-3l2,1h2l1,-1h3l1,-1l3,-2h1l1,-1l1,-2l1,-1l1,-2v-2l1,-1v-1l3,-3v-1h-1v-2l-1,-2v-3l3,-3h1v-2l1,-1l1,2l1,1l2,4l2,2v-3l-1,-1l1,-1v1h1v-2h-1v-1h-1l-1,-1v-1h1v-3l2,2v-1h2v1h2v-2h1v-3l-1,1v-1h-1v-3h2v-1l2,1h1v-1h-1l-1,-1h1h-1l1,-1v-1h2l1,1v-1h-1v-1l-1,-1l1,-1v-1h2v-2h1v1h1v2h1v-1h1l-1,-1l1,-1v-2l-1,-1h2v2l1,-1v-1l2,2v-1l1,-1v-2h2l2,2h2v1l3,3l3,2v2l-1,1v2h1v-1v1h1v-1l-1,-1l2,-2h5l1,1v1v-1l1,-1l3,3v-2h-1v-1h2l-2,-2h1h-1l-2,-2l1,-1l1,-2v-1l1,-1v-2l1,-1h2v-1l-1,-2v-1l2,-1v-2h2v-2h1v1h1v-1l1,-1v-1h2v-1l1,1v1h3l1,-1h1l1,1v-1h2v1l1,-1v-1h2l-1,-1v-3l-2,-1h-3l-2,-2l1,-1h1v1h1l1,-1l3,3h1l1,-1h1l1,2v1h4l2,1h2l1,1h5v1l2,1h1l2,-1l2,-2h1l1,-1v2h-1l-1,1l1,1l1,-1h1v2h2l1,-1l-1,-1l2,-2l1,2l1,1h1l1,1l-3,3v2l-1,2h-2l-2,1v3l1,1l-1,1v2l-1,1l-2,3v1h-1v1l1,1v1l3,1l1,1l2,1l2,2h2v2h4v1h1l4,2l3,3l2,1h3l1,1h2l1,1v2l1,1h2l2,2h1l1,1h2l3,-1h1l1,-1l1,-2v-2l2,-3l1,-1v-5l2,-6v-3l-1,-3v-4l-1,-1v-1l1,-2v-1l1,-2l-1,-3l1,-1h2v-1l-1,-1h-1v-2l1,-2v-1h1v1v-2l1,-2v-3l1,-3h1l1,-1v-1h1v2l2,2v1l1,1v4l1,1Z"/>
<path class="sl" d="M537,691l-1,1v-3l1,-1v-1l1,-1v-2h-1l1,-1h1v3l-2,4ZM426,616h-1v1h-2v-1l2,-2h2v1h-1ZM402,592v1l1,-1v1h-1v2l1,1l1,-1v1h-5v-3l1,-1v-1h1v1ZM349,575h1v1l-2,-1l-1,1h-1v-1h1v-3h1v1l1,1ZM350,572h1l2,-1v1h1v-1h1v-1l1,1h1v1h1l-1,1v1l-1,1l-3,2l-2,-2l-2,-1v-1l-1,-2v-1h1v1h1ZM241,698v1l-2,-3l-1,-1v-1l2,3v1ZM424,769h3l1,1h-4v1h-7v-2l3,-1h4ZM480,788h-1v-1h1ZM479,789h-1v-1h1ZM505,647h-1l1,-2v1ZM504,645h1ZM522,673h1v2h-1l-1,-2ZM512,662v1v-2ZM540,705l-1,2h-1l1,-1v-1ZM539,704v-1h-1l1,-1v1ZM448,565l-1,1l-1,-1l1,-1ZM448,561h-1v-1h1ZM446,560v1v-2l1,1ZM482,629l1,1v1h-1v-1h-1v-1l1,1ZM400,571l-1,1v-1l2,-2v1ZM398,573l-2,1l2,-2h1ZM406,609h-1l-1,-1h1v-1v2ZM404,608h-1v-1h1ZM401,608v-1h1ZM426,620h-1h1v-1v1h1ZM398,592l-1,1v-2h1ZM366,571l-1,-1h1l-1,-1h1v-1v1l1,1ZM309,600v1h-1l1,-1v-1ZM305,608v-1h-1h1v-1v1ZM246,655l-1,1v-2h1ZM478,805h3v1h2l2,1h5v-1h4l1,-1h4v8l1,1h-1h1v1h-1v-2h-1v2h-1v6h-2v-1h1v-1h-2l1,1h-1v-1l-1,-1v3h-2l1,1h-1v1l-1,1h-1l-1,-1h-3v-1h1h-2l-1,-1v-1h-1v-1h-1l-1,-2v-1l-1,-1h1l1,1v-1h-1v-1h-1h1l-3,-3l-1,-2v-2h-1v-1l1,-1v-1ZM470,800v-1h-1l1,-1v-2l1,1v3ZM497,797l1,2h1v2h-1l-1,-1v-1h-1v-1ZM493,822v1h-1v-1ZM498,818v-1ZM494,821h-1v-1ZM476,803h-1h1v-1ZM499,801l1,1v1l-1,-1h-1h1ZM499,803h-1ZM552,891v1v-1l1,-1v1ZM167,570v1h-1v-1ZM118,588h-1ZM211,895h-1l-1,-1h1v1ZM646,719h1ZM299,958l-1,-1h-1l-1,-1l1,1h1l2,1h2v1h2l2,2h1h-1v-1h-1h1l3,1h-1v-1l1,1h1v-1h1l1,1h1v-1l1,1h1v-1h-1h1l2,1h1l1,1h1l1,1h1l1,1h1l1,1h2l1,1h1l1,1h1h-1h1l1,1h1l1,1h1v-1l1,1h2l2,1l1,1h1l1,1h1l1,1h2l3,1l1,1h2l2,1l1,1h2l-1,-1h-2l-1,-1h-2v-1h-1l-1,-1h-2v-1h-2l-1,-1h-1l-1,-1h-2l-1,-1h-1l-1,-1h-1l-1,-1h-1l-1,-1h-1h2v-1h-2v-1l-1,-1l-2,-1l-1,-1h-2l-1,-1v-3h1l-2,-2h2l2,-2h4v-1h6v-1h7l1,-1v1h4v-1h1v-1l-1,-1h2l1,-1l1,1h6l5,1h4v1h5l2,1v-1l1,-1l-1,-1v-1h1l1,-1h5l1,1l3,1h2l1,1h2l1,1h-1l-1,1h-1v1h3v-1h3l1,-1h5v1h1l1,-1h2l-1,1h-1h4l2,-1h1l1,-1h3l1,-1h5v-1h4l4,2h2l2,1l1,-1h1v-2l1,-1h9l1,-1h1l1,1h2v1h1l2,-2l1,1h2l2,1l1,-1h3l1,1h7l3,1h5l2,1l1,-1h2l1,1h2v1h-1v1l-1,1h2l1,-1h5l2,1v1l1,1h13v1h8v-1l1,-1v1h1l1,1h1v1h3l1,1h6l2,1h2v2h1l1,1v2h2v-2h3l1,1h9l1,1h1v1h2l1,1h3v1h-1v1l-1,-1l-2,2h-4l1,1h1h-1v1h-7l-1,-1v1h1l1,1h-4v1h-3l1,-1h-1l-1,1v2h-4v-1l-1,1h-1l-2,2h-1v2h-1v1l-1,1h-1h1l1,1l-1,1h1h-1h1v1h-1h2l1,1h1h-8v1l-1,-1h-1v1h-2v1h-2v1h-3v1h1l1,1h-1l1,1h1v1h-1h2v1h1v1h3v1h4v1h5l1,1h3l-1,-1h1h-1h3v-1h1h-1v-1h4l1,1h-1h9l1,-1h4l2,-1h4v-1h-1h10l1,-1h3l1,-1v1h1l1,-1h2l-1,-1h2v-1h-1v-1h5v-1h-1l1,-1h2l1,-1h5v1h1v1h-1h4v-1h1h-1h3l-2,1h2v-1h4v-1h2v-1h-1h2v1l1,-1h2l1,-1h5v1l2,-1h1l2,-1h3l-1,1h1l1,-1h4v1h2l1,1h1v-1h1l-1,1h1h-1l2,-1h1h-1l-2,1h-2l-1,1h-1h1l1,-1h1l-1,1h-3l-2,1h-2l-1,1h-3l-1,1h-3l-1,1h-3l-1,1h-4l-1,1h-4l-1,1h-4l-1,1h-4l-1,1h-4l-1,1h-5l-1,1h-6l-1,1h-6l-1,1h-6l-1,1h-8l-1,1h-11l-1,1h-15l-1,1h-44l-1,-1h-15l-1,-1h-11l-1,-1h-8l-1,-1h-6l-1,-1h-6l-1,-1h-5l-1,-1h-6l-1,-1h-4l-1,-1h-5l-1,-1h-3l-1,-1h-4l-1,-1h-4l-1,-1h-3l-1,-1h-3l-1,-1h-3l-1,-1h-3l-1,-1h-3l-1,-1h-3l-1,-1h-1l-1,-1h-3l-1,-1h-3l-1,-1h-1l-1,-1h-3l-1,-1h-3l-1,-1h-1l-1,-1h-2l-1,-1h-2l-1,-1h-2l-1,-1h-1l-1,-1h-3l-1,-1h-1l-1,-1h-2l-1,-1h-1l-1,-1h-2l-1,-1h-2l-1,-1h-1l-1,-1h-2l-1,-1h-1l-1,-1h-2l-1,-1h-1l-1,-1h-1Z"/>
<path class="sp" d="M625,984h-1l-1,1h-3l-1,1h-3l-1,1h-3l-1,1h-4l-1,1h-4l-1,1h-4l-1,1h-4l-1,1h-4l-1,1h-5l-1,1h-6l-1,1h-6l-1,1h-6l-1,1h-8l-1,1h-11l-1,1h-15l-1,1h-44l-1,-1h-15l-1,-1h-11l-1,-1h-8l-1,-1h-6l-1,-1h-6l-1,-1h-5l-1,-1h-6l-1,-1h-4l-1,-1h-5l-1,-1h-3l-1,-1h-4l-1,-1h-4l-1,-1h-3l-1,-1h-3l-1,-1h-3l-1,-1h-3l-1,-1h-3l-1,-1h-3l-1,-1h-1l-1,-1h-3l-1,-1h-3l-1,-1h-1l-1,-1h-3l-1,-1h-3l-1,-1h-1l-1,-1h-2l-1,-1h-2l-1,-1h-2l-1,-1h-1l-1,-1h-3l-1,-1h-1l-1,-1h-2l-1,-1h-1l-1,-1h-2l-1,-1h-2l-1,-1h-1l-1,-1h-2l-1,-1h-1l-1,-1h-2l-1,-1h-1l-1,-1h-1"/>
<path class="sl" d="M640,979l-1,1h-3v1h-1v-1h3l1,-1h2ZM643,977v1h-2l-1,1h-1h1h-2v1h-1v-1h2l1,-1h-1h3ZM570,988h-2v-1h1l1,-1h4l-1,1h-1v1h-1ZM535,981h2l2,1h-6l1,-1ZM534,983h-1ZM348,947h-2v-1h2ZM637,980h1ZM632,981v-1h1h-1ZM546,993h-1h2ZM557,991h-1ZM535,975v-1h1h-1ZM531,977h-1ZM552,971l-1,1v-1ZM554,951h-1l1,-1l1,1ZM551,948h-1ZM549,947l-1,-1ZM340,949h2v1h-1ZM350,949h-1ZM348,950h-1ZM353,946h-1v-1h-1h1ZM331,949h-2l1,-1v1ZM326,954h-2v-1l1,1ZM326,953v1l-1,-1ZM323,953h-1ZM348,973h1ZM350,974h-1v-1v1ZM339,969h-1v-1h-1h1v1ZM636,981h1l1,-1l-1,1ZM632,979l-1,1v-1ZM631,980h1v-1h1l-1,1h1h-1ZM613,981l1,-1v1ZM602,984v-1h1v1ZM600,984v-1h1ZM602,983h-1ZM600,983h1ZM608,982h-1h2ZM605,983h-1ZM596,984h-1ZM573,989l1,-1ZM599,984h-1v-1h1ZM555,992h1ZM753,550v-1Z"/>
<path class="sw" d="M126,175v-1h1v-1v1h-1ZM127,174v1ZM125,176v-1v1h-1Z"/>
<path class="sh" d="M540,513l-1,1v-1h-1v-1l-1,-1v-3l-1,-1l-2,-3v-1l-1,-1h-2l-1,-1h-1l-1,-2h-1l-1,-1l-3,-2h-3l1,-1v-1l2,1l2,2h2l2,2h1l2,1l9,9v1l-1,1v1ZM531,509l1,-1l1,1h1l1,1l-1,1v1h1v1l-2,2h-2v2l1,1v1l-1,1h-4v1h-1v1l-1,1h-1l-1,1h-1l-1,1h-1l-1,1h-1l-3,1h-4l-2,-2h-3l-3,-2h-1l-1,-1h-1l-1,-1v-1l1,-1l1,1h11l2,-1v-3l1,-1v2l-1,1l1,1v1h1l1,-1h1l1,1h1l1,-1h1l1,-1v-1l2,-2h2l1,-1v-2l-1,-2v-1l1,-1h1l1,1ZM436,551v-19h-1v-4l1,-1v-15l-1,-1v-16h2l5,2h1v1h1l5,2l3,1h4l1,1l2,1h1l2,2h4v1l1,1h1l1,1h1v1l1,1h2l4,4v5h1l1,1h2l7,3l1,1h3l2,2v1h1v3h-1l-3,1l-2,-1l-2,1v1l2,2v2l1,1h1l4,4h1l2,1v4h1l1,1l1,3l1,1h1l3,-1h1v4l2,1h3l1,1h1v1h-2v1l2,2h3l1,1h3l-1,1h-1l-2,-1v1l1,1h1v1h-5l-2,-2h-2l-2,-1h-4l-1,-1h-7l-1,-1h-1l-4,-4l-2,-1l-1,-2v-1h1h-1l-2,-1l-1,-2l-1,-1l-1,-2l-2,-2v-1h-1l-1,-1h-3l-2,-1h-3v-1l-1,-1h-3v1h-5l-1,-1v-1h-1l1,1l1,3v1h-1l-1,-1h-1v2h1l-2,1h-9v-1h-1h1v1l1,1h5v1l1,1h1l1,1v2l-2,1h-1l-4,2l-1,-1h-11ZM497,523h-1v-1h-1v-2l2,1v1ZM479,513h-1v-1l1,-1v1h1ZM537,499v1l-1,-1v-1h1ZM532,497v1l-1,-1ZM512,485v1l-1,-1h-1v-2l1,1ZM523,559l1,-1h1l-1,3v-1h-2v-1h-1v-1l-1,-1v-1l1,1l2,1ZM517,554v1l-2,-2v-1h1l1,1ZM523,548v-2h-1l1,-1v1h1ZM550,571h-1v-1ZM458,546l-1,-1h1ZM489,519l-1,-1l1,-1l1,1v1ZM488,489h4v1h-2v1h-3l-1,-1l-1,1h-1v-2h2ZM518,495h-3v-1h-1v-1h1l1,-1l2,1v1ZM518,553l1,1h1l1,1v1h-4l1,-1l-1,-1v-1ZM536,550h2l1,1v1h-2v-1h-1l-1,-1ZM544,572h1l1,1h-2l-2,-1l-1,-1v-1l1,1ZM458,547h-1l-1,-1h1ZM495,492h-1h1v-1ZM531,496v-1ZM521,564h-1ZM546,508h-1v-1h1ZM565,530v1h-1v1h-2l-1,-1h-1l-1,-1v-3l-2,-1v-1h-1l-1,-1v-5l1,1h1l2,2v1l1,1l1,2h2v1l1,1h1v1ZM554,519v-1l-1,-1v-1h1v1h1v2Z"/>
<path class="sw" d="M324,76h-1v1h-1v1h-1l-1,1h-1v1h-1v1h-1v1h-1v1h-1l-1,1h-1v1h-1v-1h1h-1l-2,1l-1,1h1v-1h1v1h-1l-1,1h-2v1h-1v1h-2l-1,1h-2l-2,1h-1l-1,1h-2l-2,2h-1l-1,1h-1l-2,1h-2l-1,1h-2l-1,-1l2,-1h4l1,-1h1l1,-1h1l2,-1l1,-1h1l1,-1h1l1,-1h2v-1h-1h1l1,-1h1l2,-1h1v-1h1l2,-1h1l1,-1h1v-1h1l2,-2h1l1,-1h1v-1h1l1,-1h1v-1h1l1,-1h2ZM305,87l1,-1l-1,1h-2l-1,1h1ZM154,155h-1v1h-1v1h-1l-1,1h-1l-1,-1h1v-1h1l1,-1h2l1,-1h1ZM713,61h-1v1h1h-1l-1,1l-1,-1v-1h2ZM719,69h1v1v-1h-3v-1h1ZM199,121v1h-2v-2h1v-1h1l3,-3h1l1,-1h1v-1h1v-2h1l1,-1l-1,1v1l-2,2h-2v1h-1l-1,1v1h-1v1h-1v1ZM292,206v1h-1v1h-3l1,-1v1v-1h-2l1,-1h1l1,1v1v-1h1v-1h-1l1,-1h1v-2h1v1h1v1l-2,2ZM270,98l-1,1h-1l-2,2h-1v1h-1v1h-1v-1h1l5,-5h1ZM235,106v-1h1l1,-1h1v2h-2l-1,1h-1ZM405,127l-4,4v-1l-1,-1l1,-1l-1,-1h1v-1h4ZM162,373v-1h-2l-1,-1v-1l-1,-1v-3l2,2v2h1v2h1ZM204,186l-1,1h-3v-1h-1v-1h2v-2h2l1,1v1ZM317,35h1v-1v1ZM227,87l1,-1v1v-1h1v-1h1v1h-2v1h-1v1v-1h-1ZM181,134h-1v-1h1v-1h1v-1h1v-1l1,1h-1v1l-1,1ZM329,110h-1v-1h1h-1v-1h1l1,-1h1l2,-1v-1h1v1h-1v1h1h-1l-2,1l-1,1h-1ZM300,221l-1,1h-2l-1,-1v-1l2,-2h2l-1,1v2ZM719,69v1h1h-2v-1ZM657,35h-1ZM134,234l1,-1v-2h3v-1h1v1h-1l-2,2ZM537,23h-1ZM316,35h1ZM334,29h-1ZM333,29h1v-1v1ZM334,29v-1h1h-1ZM174,157v-1l-1,1h-1l1,-1h1v-1l1,1h-1ZM270,236h-1v2h-1v-1l-2,-1v-1l1,-1v-1l2,-2v1h-1v2h-1h1l-1,1h2l-1,1h1v-1h1ZM271,229v1h-1v-1ZM269,229h1v1h-1l-1,1v-1h1ZM258,229v-1h1v-1l1,1v1h-1ZM135,225v1h-2l1,-1h-1v-1v1h1v-1h2ZM225,117l-1,1h-1l-1,1h-1v1v-2h2l1,-1v-1h1v1h-1l-1,1h1v-1ZM681,793l-1,1h-1v-1l1,-1ZM642,24h-2ZM398,15h1l1,-1h-1h3v-1h8v-1h1l-1,1h1h-5l-1,1h-5v1h-1ZM502,16v1h-1v-1ZM161,185h-1l-1,-1h2ZM162,323h-2v-2h1v1h1ZM296,209h-1v1h-1v-2h2v-2l-1,1h-1h1v-1h1l1,1h-1v1ZM348,28h-1l1,-1h2v-1h1h-1v1h-2ZM684,57v1v-1h-1v-1ZM271,229v-1h-1h2v1ZM328,114h-1h1l1,-1h1l-1,1h-1v1h-1ZM113,229h-1l1,-1ZM124,230h-1v1h-1v1l-1,1v-1h1v-1l2,-2ZM220,95h-1v1h-1h1v-1h1v-1ZM210,97v-1h1h-1h1v-1h1l-1,1h-1ZM238,82l-1,1h-1h1v-1ZM637,826l-1,1v-1ZM484,15h-1v1h-1v-1h1ZM131,245h-1v1h-1h1v-2h1h-1v-1h1v1ZM230,81l-1,1h-1h1ZM223,85h-1l1,-1v1v-1ZM531,21h-1ZM535,23h1h-1h1ZM289,219v-1h1v1Z"/>
<path class="sw" d="M252,231h-1v1h-1v-1h1ZM284,218h-2v1h-1l-1,-1v-1h1v1h1v-1h1v1ZM261,228h-1h1v-1ZM261,225h1l-1,1ZM287,197h-1v-1h2ZM260,228v-1h-1h1v-1h1v1h-1ZM257,230v1h-1v-1l1,-1ZM256,231h-1v-1h1ZM159,197h-1ZM651,39h1h-2ZM679,54h-1v-1h1ZM684,55h1h-2ZM704,62v1v-1h-1ZM701,59h-1l-1,1v-1h1ZM697,58h1ZM702,61h1v1v-1h-2l-1,-1l1,1ZM233,112h-1l-1,1v-2h2ZM119,232v2h-1l1,-1h-1v-1h2ZM749,67l-1,-1h-1l-1,-1h-1l-1,-1h-1l-1,-1l1,1h1l1,1h1l1,1h1v1ZM711,52v1v-1h-1ZM341,613l-1,1v2h-1v2h-1v-1h-1v-1l1,-1v-2h2ZM183,200h-1v-1h1v-1h1v1h-1ZM182,199l-1,1h-1v-1h1ZM140,162h-1l-1,1l1,-1v-1h1ZM104,236h-1h1v-1ZM105,236h-1v-1h1ZM179,130v-1h1v1h-1l-2,2h-5v-1v1h-2v1h-1v1h-1v1h-2v1l-1,1h-1v1h-1v1h-1v1h-1l-1,1v1v-1l2,-2v-1h1v-1h1v-1h1v-1h1v-1v1l1,-1v1v-1l1,-1h1v-1h1l1,-1h1v-1v1l2,-1v1h1h-1h3v-1h1l-1,1v-1h2v-1ZM199,121v1h-2v-2h1v-1h1l3,-3h1l1,-1h1v-1h1v-2h1l1,-1l-1,1v1l-2,2h-2v1h-1l-1,1v1h-1v1h-1v1ZM121,461h-1l-1,-1v-1v1h1v-2h-1v1l-1,-1v-1h2v1l1,1v1ZM634,829h-1v-2h1v-1v2ZM632,830h-1v-2h1l-1,1v1ZM749,67l-1,-1h-1l-1,-1h-1l-1,-1h-1l-1,-1l1,1h1l1,1h1l1,1h1v1ZM291,86v1l-1,-1v1l-2,1v1v-1l2,-2h-1l1,-1v1v-1h1v-1l2,-2h1l3,-3h1v-1l3,-3v-1h-1v1h-3v1h-1v2h-1v1h-1l-1,1v-1h2v-1h1v-1l-1,1h-1l2,-2h-1v-1h2v-1h1v1l2,-1h2l-3,3v1l-2,2h-1l-1,1v1h-1v1h-1v1v-1h-1v1h-1v1ZM347,30h1h-3l-1,1h-2v-1h4ZM348,29h-2l-1,1v-1h4ZM349,28h-1h1l1,-1h1h-1ZM129,167v1l-1,1l1,-1ZM361,46h1l-1,-1h-1h1h-1v-1h1h-1h1v-1h2v1h-1h1l-1,1h1l1,-1h-1l1,1v-1h2v1h-1h1v-1h1h-1l1,-1h1h-1v2h-1l-1,1l-1,-1h-1h2v-1h1h-1l-1,1h-2v1l-1,1h-1h1h-1v1h-1l-1,1h-1l-1,-1h-1v1h-3v1v-1h2v-1h5l1,-1h-1h1ZM456,82l-1,1v-1ZM594,38h1v1h-1ZM413,188h1v1l-2,1l-1,1v-1h1l1,-1ZM730,58h1l1,1h-1l-2,-2h-1h1ZM716,66h1h-3v-1h-1h3ZM682,54h-1ZM709,59v-1v2ZM716,60v-1v1h2v1v-1h-1ZM688,53v1l-1,-1ZM684,55h1h-1v-1ZM677,52h-1ZM671,48h-1ZM231,107h-1ZM146,212v1h-1v-1v1l2,-2ZM144,212h1l-1,1ZM96,229v-1ZM144,223v-1h1v-1v2ZM129,225v-1h1h-1ZM110,213h1l-1,1h1v1h-1v-1ZM189,110v1h-1l-1,1h-1v1h-1h1l1,-1v-1h1ZM198,102l1,-1h-1v1h-1ZM302,677l-2,-2l1,-1h1l1,1v2ZM344,668l-2,-1l-1,-1l1,-1h1l2,-1v-1h1v-1h1l1,1l-1,1v1h1v1h-1v1l-1,1h-1ZM408,744v-2l1,-1v-1l-1,-1h-1v-1h-1v-2h-2v-2l1,1h4v2l1,1l1,2v3h-2v1Z"/>
<path class="sw" d="M422,739v1h-1l-1,-1h1v-4h-1l-1,-1h1v-3l-1,-1h-1v-1l-1,-1h-1v-1h1l1,1v1h2l2,2v1l1,1v1l1,1v1ZM292,724v1h-1v-2h-1v-1h-1l1,1v1l-1,1v-3h-1l-1,1l-1,-2h1v-1h1l1,1h1v-2h1l1,1h-1l-1,1l1,2ZM437,733l-1,1h-1v-1h-1l-1,-1l2,-2l1,-2h1v4ZM419,720l-1,1h-3v-1l1,-1h3ZM420,718h-4l-1,-1h-1v1l-1,-1v-2l-1,-2h1v-2h-1v-1h-1l1,-1h1l2,1l1,1h2v1l1,1l-1,1v1l1,1l1,2h1Z"/>
<path class="sb" d="M664,29l2,1h2l5,2l4,2l3,1l6,3l3,1l10,5l3,1l10,5l3,1l4,2l2,2l8,4l3,2l2,1h1h-1h2l1,1h2v1h2l2,2h2v1h1l1,1h1v1v-1h-1h1l-2,-2h-1l-1,-1h1v1h1l1,1h1l1,1h1l1,1h1v1h2l1,1h1v1h1l1,1h1l1,1h1l1,1h1l2,2h1v1h2v1h1v1h1l1,1h1l1,1h1l1,1h1v1h1M183,353l1,-1v-3h1v-2l-2,-2v-2h1v-1h1l-2,-2v-1h-1v-1h-1v-1h-1l1,-2v-1h-1v-2l-2,-1v-1l-1,-1v-4h-1l-1,-1v-4h-2v-1h-1v-1l-2,-1v-1h-1l2,-2v-1h3l2,-2v-1h1v-2h-1v-1h-2l1,-1h1v-1l-2,-2h-2v1l-1,1l-1,-1h-2v-1l-1,-2v-1h1v-1l1,-1v-1h-1v-1v1h-1v-2l-1,-2v-1M168,356v2h3v1h1v1h1l1,-1v-1l-1,-1v-1h2v-1h1l1,-1v1h1v1h1l2,-2h2v-1v2h-1v1l-1,1v1l1,1v6l-1,2v4l-1,1v1h-2l-2,2h-1v1h-2l-1,2h-2l-1,1v2l-1,1h1l1,2v2h-1v-1h-1l-1,-1l-1,1h-1v1h-1v-1h-1v2h-1v1l-1,1h-2v1M158,299l-2,2h-1v1l-1,1v2h-2v1l-1,1l-1,2M125,394v-4h1v-1l1,-2l1,-1l2,-3v-1l2,-2v-3l-1,-1v-2l1,-1h-1v-5l1,-2v-4l-1,-1l-1,-2v-1l-1,-1v-6h1l1,-1h1v-3l1,-2v-1l1,-1h1v-2l-1,1v-5l-1,-2v-1l-1,-2v-6h-1v-1h1v-1h2v-3l1,-2v-1l2,-2v-2h1v1h2l1,-1h2v-2l1,-1h2v-2h3v-1v1h1v1v-1h1v-1v1l1,1v1h-1v1l-1,1v2h2l1,-1l1,1v4l-1,2l-1,1v1l-1,1v3l-2,4v1h1l1,-2h1l2,-2v-1h1l2,-2v1l1,1h1v1h1v-1h2v-1l1,-1v-1h1h-1h1v-1h1l1,1h2v3l1,1v1l2,2v1l-1,2v1l-1,2v2l1,1v1l1,1h1v2l1,1v2h-1v2l-1,1v4l-2,2h-1v1h-1v-1h-5l-1,1h-1l-1,-1h-1v1h-2l-2,2v1h-1v1l-2,2v1h-1v8l1,1v1l-1,1v1l1,3M198,297v-1h-4l-1,-1v-1h-1v-1v1h-1v-1l1,-1v-1h-1v-1l3,-3h-1v-1h-1l-1,1v-1h-3l-1,-1v-1l-1,-1l-1,1h-1v1h-1v1l-2,2l-2,1v-1h-1l-1,1v1h-1l-1,-2v1l-1,1v-2h-1v1h-1v1l-1,1l-2,-2h-1v1h-1v1l-1,1l-1,-1l-1,1v-1l-2,2v6l-1,1v2h-1v-1h-1l-1,1v-2l1,-1h-1h1v-2h-1l-3,3h-1v-1l-1,1v-2h-1v-1l1,-1v-1h-4v-1h1v-1l1,-1v-2l2,-2v-1h-3l1,-1v-5h1l1,-2h-1l-1,1v-1h-1l-1,1h-1l-1,1h-1l1,-1v-4l2,-2v-1l3,-3v-1l1,-1h1l1,-1v-1h2v-2l1,-1v-1l1,-1v-2h1v-2l1,-1v-2l1,-1l-1,-1l-1,1v-3l1,-1v-1l-1,-1v-1h-1v1h-1l-1,1M344,159l1,-1l2,-1l1,-1h2v-1h2l1,-1h2v-1h2v-1h1l2,-2h1v-1l1,-1h2v1h1l1,1h5v-3h-1h1v-1h5l1,-1h1v-1h1l1,-1v1h1v-1h1v-1h1v-1l1,-1h1l1,1v1h1v1M353,173h1v-1h1l2,-2h7v-1h1v-1h1M114,202h1v1h1v-1M330,103l-4,4h-1l-1,1v1h-1l-2,2v1h-2l-1,1v1h1v1h1v-1h6v1l1,-1h1l1,-1h4l1,1h1v1h1v2h1v2h-1v1h-4l-1,-1v1h-5l-1,1h-2l-1,1h-4v1h-1l-1,1h-1v1h-1v1h-2l-1,1h-1v1h-6v1h-1l-1,1h-1v1h-2l-1,1h-3l-2,-1l-1,-1l-1,1v-1l-1,1h-1l-3,3h-1v4h1h-1v1h-1l-1,1h-1l-2,1h-1l-1,1h-1v1h-1l-1,1h-1v1h-2l-1,1h-2l-1,1h-8l-1,1h-5v1h-3l-2,2h-2l-2,1l-1,1h-3l1,-1h-3l-1,1l-1,-1h-1v-1h-2l-2,-1v-2h-8l-2,1l-2,-1h-8l-2,1v-1h1v-3l1,-2l1,-1v-2l1,-1l-1,1l-1,-1v-1h-1v-2h-2l-1,-1v1h-4v-1h-1v-1l3,-3h1v-1h1v-1h1v-1l1,-1h1v-1l1,-1v-2h1v-1h1v-2h-1l1,-1h-2v-1h1v-1h-1v-1h1v-1h1v-1h1v-1"/>
<path class="sb" d="M387,144v-3h3v-1h1v-1h1v-1h1v-2l1,-2v-5l1,-1h2l2,-2h2l1,1h3l1,1v-1h1v-1l1,-1h1v-1h1v-1h1v-1h1v-1h1v-1h1v-2h1v-2h1l1,-1h-1h1v-1h2v-1h1v-1h1h-1v-2h1v-1h-5l-1,1h-4l-1,1h-1l-1,1h-2l-2,1h-2v-1h-1l-1,1h-1v-2h-1l1,-1v-4h-2l-2,-2h-3v-1h-6v-1h-1v-1l1,-1v-1h-1l1,-1h-1h1v-2h-1v-8h-1v-1h1h-1v-2h-5l-1,-1h-1l-1,-1h-3l-1,1h-6l-2,1h-3l-4,2l-1,1h2v2l-1,1l-2,1l-1,1h-1l-1,1l-2,1l-3,3h-1l-2,2h1l-2,2h-2l-2,1h-2l-2,1v1l-1,-1h-2l-1,-1h-1l-1,-1h-2l-1,1h-2v-1l-1,-1h-4l-1,1h-1l-1,1h-1l-1,1h-1v1h-4l-2,1h-3v1h-1l-2,1h-2v-1l-1,1h-1l-1,-1h-5v-1h-1v-1h1v-1h-3v-2h-7l-2,1h-2v1h-4v-1h-1v-1h-1l1,-1v-1h1v-1h1v-1l-1,-1h-1v1v-1h-1l-1,-1h-3v-1h-1l-1,1h-1l-1,1h-1l-1,1h-1l-2,2h-1v1l-1,1v2h-1l-1,1h-1v1h-2l-1,1h-1v1h-1v-1h-2v-1h-1v1v-1l-1,1h-3v-2h1v-1h-3v-1h1h-1v1h-1v-1h-1v1h-2l-1,1h-2v1h-2l-1,1h-2v1h-2v1h-1v1h-2l-1,1h-3v1h-1v1h-3v1h-1M208,94h1v-1h1v-1v1l1,-1h-1h2v-1h1v-1v1h1v-1h1v-1h2v-1h2v-1h1v-1h1v1h-1h1v-1h1l-2,2l-2,1l-2,2h-1v1v-1h1v1h-1h1v-1v1h1v-1v1h-2v1h-1l-1,1h2v-1h1l1,-1h1l1,-1h1l1,-1h1v-1h1l-1,1h-1v1h-1v1h-1v1l-4,4l-1,2l-2,1l-3,3v1l-2,2h1v-1h1v-1h2l-1,1h-1h1v1h-1h3v-1h3v1h-1v1h-1v1h-1h1v1l-2,2v1v-1h1v1h1v-1h2v-1h1l-1,1h-1v2l-1,1h-2v1l-2,1l-1,1h-1v1h-2l-5,5h-1v1l-2,2h-2v1h-1l-1,-1v1h-1v-1h-1l-1,1l-3,2l-1,2l-2,1l-3,3h-1v2h-1v1h-2v-1l-1,1h-1l-1,1h-2l-1,1h-1v1h1h-1v1l-5,5v1l-1,1v1h-1v1h-1l-1,1v1h-2v1h-1v1l-2,2M101,240v1v-1l2,-2h2l-1,1v3l1,1v3h1v-1h1v1l-1,1v3h2l-1,1v1h2v1l-1,1v1h1v-2h1v1l1,-1h1v2h2l1,-1h1M117,258l3,-3v-1l3,-3h1l1,-1h1v2h3v-1l1,1v2M112,205h2v-1l1,-1h1v-1v1v-1l1,1h-1v1h-1v1l-1,1v1l-1,1v1h1h-1v2l-2,2v1l-2,2v2l-1,1v1l-1,1v1l-2,2h-1h1v-1h-1v1h-1v2l-1,1v1l-1,1v1h-1v1l-1,1h1l1,-1l-1,1v2h1v2l-1,1h1v3h-1l-1,1v1l-2,1v1l-1,2h-1v1l-1,1v1l-1,1v1h1v6h1v-1v1l1,1v1h1v1h1v-1l1,1v-1h2v4h1l-1,1h1l1,-1v2l1,-1v1h1l1,1l1,-1v1h2l1,-1v1h1v-1l1,-1v-1l1,-1v-2l1,-2l1,-1v-1l1,-1v-1l1,-1h1l1,-1v2l-1,1l-1,2v1l-1,1v3h2l1,1v-1h1l1,-1h1v1h1l2,-1h3v-1v1l1,-1v-2h1v-2h-1v-2h2l1,-1h2l1,-1v-1l1,-1h1l1,-1v-1h1v-1h1v-1h2l1,-1h1v-1h1v-1l1,-1h1l1,-1h1l-1,1h2v1h1v-1h1l2,-2h1v1h1l-1,1h-1v1h1l1,-1v1l-1,1l-1,2h-1v1h2l1,1v-1h1v3h-1v1h-1l-2,2v4h-1v-2h-1l-2,1h-1l-1,1v1h-1l-3,3h-1l-2,2v3h-1v1l-2,2v1h-1v1h-1v2l-1,1v2l-3,3l-1,2l-1,1v1h-1v-1h-3v3l-1,1v1l-1,2v1h-1v1l-2,2v3h-1v1l-1,1v-1h-1v1h-1"/>
<path class="sb" d="M117,193l1,1h-1v2l-2,2v1h-1v2l1,-1v1h-1v2l-1,1v1h-1v1l-2,2h-1l-2,2h-1v-1h-2v1l-2,2v1l-1,1v1l-2,2v1h-1v2h-1v2h-1v2l-1,1h1v1l-4,4v1h-1v1l-2,2v2h-1v1h-1v1l-2,2v1h-1v1l-3,3v1l-1,1l-1,2l-2,2v1l-2,2h-1v1l-1,1v1l-2,2v1l-1,1h-1l-1,1v1v-2h-1v1l-1,1l-1,2l-1,1v1l-1,1v1l-1,1v2l-1,1v1l-1,1v2l-1,1h1l-1,1v1l-1,1v2l-1,1v2h-1v2h-1v2h-1v-1h1v-1l-2,2v1v-1h-1l-2,3l-1,1M101,299l1,-1v-3l1,-1v-3l1,-1h-1v-1l1,-1v-1l1,-2l1,-1v-2h1l-1,-1v-1h-1v-1l1,-2h1l1,-2h2v-1h1l-1,-1h1v-1h-1v-2h-1v-1l2,-2v-1h1v-1l1,-1v2h1v-1h1v1l-1,1v1h1l1,-1v-1h1v1l-1,1v1l-2,4l1,1h7l1,-1l1,1v2h-1v1h-1l-1,2v1h-1v1h-1l-1,1h-1v1l-2,2v1l-1,2v1h1v2l1,-1v-2h1l1,-1v-2h2l-1,2v1l-1,2v4l-1,1l-1,3v1l-1,2v3h-1v-1l-1,1v1h-1l1,1h-1v2M139,160v-1h1v-1h1v-1h1v-1h2v1h-1h1v1h-1h1v-1l3,-3h1v-1h1l1,-1l-1,1v2h1v-1h2l1,-1h3v1h1h-1v2h1h-1v1l-1,1h-1l-2,2h-1l-2,1l-4,4h-1v1l-1,-1v1v-1l-2,2h-1v1l-1,1h-1v1h-1h1h-1l-1,1l1,-2l-1,1h-1l-3,3h-1l-1,1v1h-1v1h-1v1h-1M127,173v1h-1v1h-1l1,-1v-1l-2,2v1v-1l-3,3h2v-1v1v-1v1h1v-1h1h-1v2h-1l1,-1v1l1,-1h1l1,-1v1l-2,2v1h-1v1l-1,1h1v-1h1v1h-1v1l-1,1v1h-1v1h-1v1l-1,1v1h-1v1h-1v1M140,153l-1,1h1v-1h1l-1,1h-1v1l-1,1v1h-1v1v-1h1l-1,1h-1l-2,2v1l-2,2v1l-2,2h-1v1l-1,1h1h-1v1l-1,1v1h-1h1v-1h1v-1l1,-1h1v-1h1v-1h1v-1h1v-1h1l3,-3h1v-1h1l-1,1h-1v1h-1v1h-1l-1,1v1h-1h1l-1,1v1l1,-2v1v-1h1v-1h1l-1,1v1h-1v2l-2,2h-1h1h-1v1h-1h1h-1v1h-1v1h-1v-1v1h-1v-1h1l1,-1v-1h1v-1h1v-1l-2,2h-1v1v-1l-1,1l-1,2h-1v1h-1v1h-1v1h-1v1l-1,1h-1l-3,3v1h-1h1v1h-1l-1,1v1l-2,2v1l-1,1h-1v1l-2,2v1l-2,1v1M124,170h1h-1v1l-6,6v1h-1v1l-1,1v1h-1l-1,2l-1,1v1h-1v1l-1,2h-1h1l-1,1v1l-4,4M94,208v1h-1v1l-1,1l1,-1v-1h1l1,-1v-1l2,-2v-1h1v-1h1l1,-1v-1l2,-2l1,-2l3,-3h1v1v-1v1h-1v1h1v-1l1,-1h1v-1v1l-1,1v-1h1l2,-2v-1h1l2,-2v-1h1l2,-2v-1h1l-1,1v1l-1,1h-1h1v1h-1l-2,2l-1,2v1h-1l-1,2v1v-1h1l1,-1v-1h1l3,-3h1v-1v1l-1,1h1v-1h1v-1v1h1h-1v1v-1v1h-1v1h-1l-1,1v1h-1v-1v1h-2l-3,3h-1v1h-1v1l-2,2v1l-1,1v1h-1v1l-1,1v1h-1v1h-1v1l-1,1h-1v2h-1v1l-2,2h-1l-1,1v1l-1,1v1l-2,2v1h-1l-1,2h-1v1l-1,1v1l-3,3v1l-1,1v1h-1v-1h1h-1l-1,1v1h-1v1l-1,1v1l-1,-1h1h-1v1l-1,1v1h-1v1l-2,2l-1,2v1h-1v2h-1v1l-2,2h-1v1l-1,1v-2l1,-1"/>
<path class="sg" d="M 250.9576 932.7747 A 249.7500 14.1402, 0, 1 1, 748.0424 932.7747"/>
<path class="sg" d="M 67.1522 749.6513 A 432.5797 24.4915, 0, 1 1, 931.8478 749.6513"/>
<path class="sg" d="M 0.0000 499.5000 A 499.5000 28.2804, 0, 1 1, 999.0000 499.5000"/>
<path class="sg" d="M 67.1522 249.3487 A 432.5797 24.4915, 0, 0 1, 931.8478 249.3487"/>
<path class="sg" d="M 250.9576 66.2253 A 249.7500 14.1402, 0, 0 1, 748.0424 66.2253"/>
<path class="sg" d="M 516.8820 0.3025 A 261.2490 499.5000, -178.00577710, 0 1, 482.1180 998.6975"/>
<path class="sg" d="M 551.5012 2.7142 A 438.6450 499.5000, -174.02431467, 0 1, 447.4988 996.2858"/>
<path class="sg" d="M 51.0908 279.4330 A 498.5064 499.5000, -243.85945664, 0 0, 947.9092 719.5670"/>
<path class="sg" d="M 453.7095 2.1033 A 424.7934 499.5000, -185.25984146, 0 0, 545.2905 996.8967"/>
<path class="sg" d="M 484.2107 0.2341 A 237.2573 499.5000, -181.75405399, 0 0, 514.7893 998.7659"/>
<path class="sg" d="M 500.2858 0.0006 A 13.8516 499.5000, -179.90986331, 0 1, 498.7142 998.9994"/>
<text x="0" y="0" class="fs" transform="translate(924,357) rotate(79)">150W</text>
<text x="0" y="0" class="ft" transform="translate(924,357) rotate(79)">150W</text>
<text x="0" y="0" class="fs" transform="translate(89,356) rotate(102)">90E</text>
<text x="0" y="0" class="ft" transform="translate(89,356) rotate(102)">90E</text>
<text x="0" y="0" class="fs" transform="translate(270,346) rotate(96)">120E</text>
<text x="0" y="0" class="ft" transform="translate(270,346) rotate(96)">120E</text>
<text x="0" y="0" class="fs" transform="translate(513,343) rotate(90)">150E</text>
<text x="0" y="0" class="ft" transform="translate(513,343) rotate(90)">150E</text>
<text x="0" y="0" class="fs" transform="translate(752,347) rotate(83)">180E</text>
<text x="0" y="0" class="ft" transform="translate(752,347) rotate(83)">180E</text>
<text x="0" y="0" class="fs" transform="translate(632,917) rotate(3)">60S</text>
<text x="0" y="0" class="ft" transform="translate(632,917) rotate(3)">60S</text>
<text x="0" y="0" class="fs" transform="translate(727,724) rotate(1)">30S</text>
<text x="0" y="0" class="ft" transform="translate(727,724) rotate(1)">30S</text>
<text x="0" y="0" class="fs" transform="translate(761,471) rotate(1)">0N</text>
<text x="0" y="0" class="ft" transform="translate(761,471) rotate(1)">0N</text>
<text x="0" y="0" class="fs" transform="translate(725,226) rotate(1)">30N</text>
<text x="0" y="0" class="ft" transform="translate(725,226) rotate(1)">30N</text>
<text x="0" y="0" class="fs" transform="translate(628,54) rotate(0)">60N</text>
<text x="0" y="0" class="ft" transform="translate(628,54) rotate(0)">60N</text>
<path class="tb" d="M127,998h-2l-1,-1h-2l-1,-1h-2l-1,-1h-2v-1h-3v-1h-2l-1,-1h-2v-1h-2l-1,-1h-2v-1h-2v-1h-2l-1,-1h-2v-1h-2v-1h-2v-1h-2v-1h-2v-1h-2v-1h-2v-1h-2v-1h-2v-1h-1l-1,-1h-1v-1h-2v-1h-2v-1h-1v-1h-2v-1h-1l-1,-1h-1v-1h-2v-1h-1v-1h-2v-1h-1v-1h-1l-1,-1h-1v-1h-1v-1h-1l-1,-1h-1v-1h-1v-1h-1v-1h-2v-1h-1v-1h-1v-1h-1v-1h-1l-2,-2h-1v-1h-1v-1h-1v-1h-1v-1h-1v-1h-1v-1h-1v-1h-1v-1h-1v-1h-1v-1h-1v-1h-1v-1h-1v-2h-1v-1h-1v-1h-1v-1h-1v-1l-1,-1v-1h-1v-1h-1v-1l-1,-1v-1h-1v-1l-1,-1v-1h-1v-1l-1,-1v-1h-1v-2h-1v-2h-1v-1l-1,-1v-1l-1,-1v-1l-1,-1v-2h-1v-2h-1v-3h-1v-2h-1v-4h-1v-3h-1v-5h-1v-6l-1,-1v-17h1v-7h1v-4l1,-1v-3h1v-3h1v-3h1v-2l1,-1v-2h1v-2h1v-2h1v-2h1v-2h1v-2h1v-2h1v-1h1v-2h1v-1h1v-2h1v-1h1v-1l1,-1v-1h1v-1h1v-1l1,-1v-1h1v-1h1v-1h1v-1h1v-1h1v-1h1v-2h1v-1h1v-1h1v-1h1v-1h1l3,-3h1v-1h1v-1h1v-1h1v-1h1v-1h1v-1h1l1,-1h1v-1h1v-1h1v-1h1l1,-1h1v-1h1v-1h2v-1h1v-1h1v-1h2v-1h1v-1h2v-1h1v-1h2v-1h1l1,-1h1v-1h2v-1h1l1,-1h1v-1h2v-1h2v-1h2v-1h1l1,-1h1l1,-1h1l1,-1h1l1,-1h1l1,-1h2v-1h2v-1h2v-1h2l1,-1h2v-1h2v-1h2l1,-1h2v-1h3v-1h2l1,-1h2v-1h3v-1h3v-1h159v1h3v1h3v1h2l1,1h2v1h3v1h2l1,1h2v1h2v1h2l1,1h2v1h2v1h2v1h2l1,1h1l1,1h1l1,1h1l1,1h1l1,1h1v1h2v1h2v1h2v1h1l1,1h1v1h2v1h1l1,1h1v1h2v1h1v1h2v1h1v1h2v1h1v1h1v1h2v1h1v1h1l1,1h1v1h1v1h1v1h1l1,1h1v1h1v1h1v1h1v1h1v1h1v1h1l3,3h1v1h1v1h1v1h1v1h1v2h1v1h1v1h1v1h1v1h1v1h1v1l1,1v1h1v1h1v1l1,1v1h1v1h1v2h1v1h1v2h1v1h1v2h1v2h1v2h1v2h1v2h1v2h1v2l1,1v2h1v3h1v3h1v3l1,1v4h1v7h1v17l-1,1v6h-1v5h-1v3h-1v4h-1v2h-1v3h-1v2h-1v2l-1,1v1l-1,1v1l-1,1v1h-1v2h-1v2h-1v1l-1,1v1h-1v1l-1,1v1h-1v1l-1,1v1h-1v1h-1v1l-1,1v1h-1v1h-1v1h-1v1h-1v2h-1v1h-1v1h-1v1h-1v1h-1v1h-1v1h-1v1h-1v1h-1v1h-1v1h-1v1h-1v1h-1l-2,2h-1v1h-1v1h-1v1h-1v1h-2v1h-1v1h-1v1h-1l-1,1h-1v1h-1v1h-1l-1,1h-1v1h-1v1h-2v1h-1v1h-2v1h-1l-1,1h-1v1h-2v1h-1v1h-2v1h-2v1h-1l-1,1h-1v1h-2v1h-2v1h-2v1h-2v1h-2v1h-2v1h-2v1h-2v1h-2l-1,1h-2v1h-2v1h-2l-1,1h-2v1h-2l-1,1h-2v1h-3v1h-2l-1,1h-2l-1,1h-2l-1,1h-2Z"/>
<path class="tl" d="M169,986h1v1h-3l-1,-1h2v-1ZM114,989h-3l-1,-1h2l1,1ZM176,983h1l1,1v1h1l-1,1h-2l-1,1h-1l-1,-1l1,-1v-2h1v-1ZM124,980h2v1h-1ZM122,980l1,1h-1l-1,-1ZM136,977h1h-2ZM156,974v1l1,1h-5v-1l1,-1v-1l-1,-1l1,-1v1h1l1,1ZM158,964v1h-2v2h1l-2,2v1h1l1,1h1l4,4v1l1,1v1h-1v2h-1l-1,1h-1v1h-2l1,1h1v1h-2l1,1h1v1h3l1,1h3l1,1h3l1,1h1l1,1v-1h1v-1h2l2,-1l1,1h1v-1h4v-1h3l1,-1h-1v-1h-4l-1,-1l1,-1h1l2,-2h4l1,-1h1l2,-2h-1v-1h1v-1h2v-1l1,-1h1v1h1v-1h8v-1h3v-1h1l1,1h2v-1h1v1l1,-1h4v1h6v-1h3v-1h2v1h3l1,-1h3v-1h2l1,-1h2l1,-1h4v1h1v1h1l1,1h1l1,-1l1,1h2v1l-2,2h-1v1h1h-1v1h-1v1h2l2,-2h1v-1h3l1,-1h1v-1h2l1,-1h5v-1h1v1h5v1h1l1,-1l1,1l1,-1h1l2,-1v1l1,1h3l1,-1h2v1h1v1h4l1,-1v1h9l1,-1l-1,1v1h-1h3l1,1h2l-1,1v1h1v1h2v1h1v2h2l1,1v1h-1l-1,1h-2l-1,1h-3l-1,1h-2l-1,1h-2l-2,2v1h-5l-1,1h-2v1h-1v3h2l-11,4h-155l-11,-4h-1h2l1,-1l1,1h14l-1,-1h-7v-1h-2v-1h-3l-1,-1h4v-1h-2l-1,-1h-7l-1,-1l-2,-1l1,1l1,-1l2,1v-1h1v-1l-1,-1h-1h2v-1h2v-1h4l1,-1h5l1,-1l1,1v-1h1l1,1h1v-1l1,1h6v-1h-2l-1,-1h-1l-1,-1h4l1,1h1l1,-1h3l-1,-1h1l1,1l1,-1l1,1h3v-1l1,1h4v-1h2l1,-1v-1h-1v-1h-1v-1h-1v-1h-1v-2l-1,-1v-1h1v-2h1v-1h1v-1h1l1,-1l1,1ZM144,951l2,1h1v1h-1v-1v1h-4l-2,-2l-2,-1l2,1h2v-2h1v1ZM151,947h1v1h-2v1l-1,-1l1,-1ZM269,946h-1v-2h1l1,1ZM345,939v1h1l1,-1v1l-3,3v-1l-1,1h-1l1,-1v-1l1,-1v-1ZM368,943v1l1,-1v1h-1l-3,3h-1l-1,1h-1l-2,2h-2v1h-1v-1h-1v-1l4,-2h1l1,-1h2l2,-2h1l2,-2ZM376,936l-1,2l1,-1l-1,1l1,1h1l-2,2h-1l-2,2l-2,1h-1l2,-1v-2l1,-1l2,-1v-1l1,-1v-3l1,-1v1l1,1ZM382,913l-1,1v-2l-1,-1v-1h1v1l1,1ZM397,906v1l-1,1h-1v-1l1,-1v1ZM398,906h-1v-1h1l1,-1v1ZM10,905v-1ZM386,904v-1ZM386,901v2h-1v-1ZM259,895v2l1,1h-1v1v-1v2h-1v3l-3,6v2h-1l-1,1l-1,-1h-1v-5h1v-2l1,-1h-1v-3h1v-1h1l2,-2h1v-1l1,-1v-1l1,-1v1ZM361,898v1h1v1h1l-1,1v2h1l-1,2v1l2,2v4h1l-1,2l1,1v3l-1,1v2l-3,3v1l-1,1l-1,2h-1l-1,2h-1l-4,4v1h-2l-1,1h-1l-1,1v-1h-1l1,-1h-1l-1,1h-1v-1h-1v-3h1l-1,-1v-1l1,-1l-1,1h-1l3,-3l-2,1h-1l-1,2v-4l-2,-2h-2l-1,1h-4l-2,2h-4l-1,1v-1l-1,1h-2v-1h-1l1,-1v-1h1v-3l1,-1v-7l1,1v-3l1,-1v-1l1,-1l-1,1l2,-2h1l1,-1h2l1,-1h2v-1h1l1,-1v-2l1,-1v2l1,-1v-1h1v-1l2,-2h2v1h2v-2h1l1,-1v-1h2v-1h-1h1l1,1h3l1,1h-1v1h-1v1l-1,1v1l2,2v1h1l1,1h1v-1l1,-1v-1l1,-1v-3l1,-1v-2h1v-1v3l1,1Z"/>
<path class="tl" d="M383,894h-1v-1v1ZM337,892l-2,-1h2ZM381,893h-1v-1h1ZM382,892v-1l-1,-1h1ZM341,892h-1l3,-3h2l-1,1h-1l-1,1ZM335,889h1v1h-3l1,-1ZM340,889v1h-3v-1h2ZM381,890v1l-2,-2h1v1ZM378,889v-1h-1v-1l1,1ZM325,887h2v-1l2,1v1h2l1,1l-1,1l-1,-1h-4l-1,-1h-1l-2,-1h-1l1,-2h1l1,1ZM353,886v1v-2ZM377,888h-1v-2l-1,-1h1v2h1ZM373,885l-1,1h-1l-1,1l-1,-1h-1l1,-1l1,1v-1h2v-2h1v1ZM345,882h-1v-1h1ZM349,881v2l-1,-1h-2v-1h2ZM374,884l-1,-1v-1l-1,-1h-1h2v2h1ZM353,878v3l2,1v-2l2,-1h1l1,1h1l1,1l4,2v1h1v1l2,1v1h-1v1l1,1v2h1v1h1h-1l1,1l-1,1v-1h-2l-1,-1v-3h-3l-1,1v1h-2l-2,-2v1h-2l1,-2h1l-1,-2v-1l-2,-1h-1l-1,-2l-1,1l-1,-1h1l-1,-1l1,-1h-1v-1h-1l-1,-1h2v-1ZM343,875l-1,1h-4v1l1,2v-1h2l-1,1h-1l1,2v1l1,2v1h-1v-2l-1,1v-1l-1,-1l1,-1h-1v4h-1v-3h-1v-1l1,-1v-4h1v-1h4l1,-1ZM347,875v1h-1v1l1,1h-1v-4h1ZM321,885h-1l-2,-2v-1l-2,-2l-1,-2v-2l-1,-1v-1l-4,-4v-1h2l3,3l1,2h1l2,2h1l-1,2h1v1l1,1h1v3ZM335,874l1,1h-1v3l-1,1v1l-1,3v-1l-1,1l-1,-1h-1v-1l-1,1l-1,-1h-1l-2,-4v-2l1,-1h2v-2h2v-1l1,-1v-1h1l1,-1v-2h1v1l2,2v1h-1l-1,2l1,1ZM344,864v3l-1,-1v2l-2,-2h1l-1,-1v1l-1,-1l-1,1v-1l1,-1h2v-1h1v-1l1,1ZM294,868h-1v-1l-1,-2l1,-2l1,1v1l1,1v1ZM137,863h-1l1,-1h1ZM341,861v1l-1,1l-1,-1l1,-1v-1v1l1,-1ZM335,863l-1,1v-1l1,-1v-1l1,-1v1l-1,1ZM338,859h2v1l-1,1v-1h-1ZM342,858l1,2h-1v1v-1h-1v-1h1h-1v-1ZM338,857l-1,1l-1,-1h1ZM336,849h1v6h1l2,1v2l-1,-1v-1v1l-1,-1h-2v-1h1h-1l-1,-1v-5ZM133,851v1h-1v-1ZM121,852h-1v-1h2v1ZM126,849h3v1h1v1h-2l-1,1v-1h-1v-2h-1ZM324,849l-1,1h-1v-2l1,-1h1v1ZM37,846v-2h1v2ZM38,844h-1v-1h1ZM119,845h2l1,1v1h1v1h2l-1,1h-3v-1h-1v-2h-2l-1,-1h-1h1h-2l-1,1h-1l2,-2h3ZM122,843h-1v-1l1,-1v1ZM334,843v1l-2,-2v-2l1,-1l1,1ZM122,839l-1,1v-1ZM123,839v1v-1h-1ZM340,825h1v1h-1v1h-1v-2ZM240,828l-2,2v-1h-1h2ZM229,828v1h-1ZM220,825v2h-1l-1,-1h-1v-1h2ZM214,821v3h-1v-3ZM344,820v1l1,1v1l-1,1h-1l-1,2l-1,-1v-1l-2,1l-1,1h-1l2,1v3l-1,-1v-1h-1l-1,-1l1,-1v-3h3v-3l1,1v-2h1l-2,-4v-1l3,3v1ZM214,820v1l-1,-1v-1l1,-1ZM340,810l1,-1l1,2h-1v2l-2,-1l1,2h-1l-1,-2l-1,-1h1l-1,-2l-1,-1l3,1ZM144,812l1,1h1h-2ZM147,809h-1l-1,-1h1ZM92,806h-1l-1,-1v-2h-1v-1h1l1,1v1l1,1ZM153,807l-1,1h1v1h2l-1,1h1v1l-1,2l-1,-1l1,-1l-2,1v-1h-3l1,-1h-1l4,-4h1Z"/>
<path class="tl" d="M90,797h1l-2,2v1v-3ZM332,800l3,3l-2,-1l1,2l2,2v1l-2,-2l-1,-2l-6,-6v-1h-1h1l3,3ZM198,806l-1,1h-2l1,-2v-1l2,-2h1v3ZM216,801l-1,2l-1,-1v-1h1ZM79,791h-1v-1h2ZM202,797l-1,2h2v1l-1,1h1l2,4h1v1l-1,1h1l-1,1h-3l-1,1h-2l2,-2h-1v-1h1l-1,-1v-1h2l-1,-1h-1v-2l-1,-1l1,-2v-1l1,1ZM75,786h-1v-1h1ZM141,790l-1,1v-1ZM139,790h-2l1,-1h1ZM78,780v1h1h-2v-1ZM139,786h1v1h1l-1,1h1l-1,1l-1,-1h-1l-2,1l1,-1h-1h1l1,-1l1,-2ZM193,787v1l1,1l-1,1h-3l-1,1l-1,-1h-2l1,-1h-1h1v-1h-2l1,-1h1l1,1l2,-1h2ZM147,784h-1l1,-1h2l-1,1ZM81,776v1l1,-1h2l-1,2h-3l-1,1h-1l-1,-1h1v-1h-1h1h-2l-1,1l8,-5v1l-1,2ZM135,780l-1,1v-1h-1l1,-1h1ZM322,771h-1ZM88,771h-1h2ZM139,780l-1,2l2,-1v1h-1v1l1,-1l2,-1l1,-1h2v2h-1v1l-1,1l-2,1h-1v-1l-1,1l-2,1v1h-3l-2,2h-1l-1,1l-2,1l-1,1l-1,2h1l-1,1v1h1l3,3l2,1h1l-2,2v2l1,1h1l2,-4h-1l4,-2v-1l1,-1v-1l-1,-1l2,-1l2,-4l1,1h1l1,-1v1l1,1h1v2l-1,1l1,1h2l1,-2h1v3l1,1l-1,1l1,1v1h1l1,1v1l1,1l-2,2h-2l-2,2h-1l-2,-1h-2l-2,1l-1,1l-2,1l-1,1l2,-1l3,-1h2l-1,1l-1,2v1l1,1l2,-1l1,-1v1h1l-4,2h-1l-2,1v-1l2,-1h-3v1h-1l-1,1h-1l-2,2l1,1v-1v1h-3l-1,1l2,-1v1h-2l-2,2v1l-1,1l-1,-1l1,-1l-1,1v4l-1,1h-1l-1,1h-1l-3,3h-1v8l-1,1h-1v-3l-1,-1l1,-1l-1,-2l-1,1l-1,-1h-4v1h-1l-1,-1l-1,1l-1,-1l-2,2h-2v1h-1v3l-1,1v1l-1,2v4l1,1v1h1v1l1,-1h3v-1l1,-1v-1l1,-1h3v1l-1,1v2l-1,1v-1v2l-1,1v1h5v1h1v1l-1,1v3l-1,1h1v2h1v1h2l1,-1h1v1h1l1,1l1,-1v-2l1,-1h2l2,-2v2h-1h1v1l-1,1v1h1v-3h1v-1h1v1h1v1h3l1,1l1,-1h1l1,1h1v1l1,1h1v1h1v1l1,1l2,1v-1h1l1,1h1l1,1v1h1v1l1,2v1l-1,1l1,1h2v1v-1l4,2v1h1l3,1h1l2,1l2,2h2v5l-1,1l-1,2l-2,2v9l-1,2v2h-1v1h-2l-1,1h-1l-3,3v5l-1,2l-2,2v2l-2,2v-1l-1,1l-1,-1h-1v-1v1l1,1v1l1,1v2l-2,1h-3l1,1v2l-1,1l-1,-1h-1l1,2h2l-2,2l1,1v1h-1l-1,1v1l2,1h1v1l-1,1v2h-1v1l2,2h-1l-1,1v1h-1l-2,-1l-3,-3l-1,-3v-1l1,-1h-2l1,-2l-1,-2h1v-2l-1,-1v2l-1,-2v-4l-1,-1l-1,-2h1v-6l-1,-2v-8l-1,-2v-6l-1,-2l-1,-1l-2,-1l-3,-2l-1,-1v-1l-1,-2l-1,-3l-2,-3l-2,-2v-1l-1,-2l2,-2v-1h-1v-3l1,-1v-1h1v-2h1l1,-1v-5l-1,-1v-2h-1v1h-1v1h-1l-1,-1h-2v-2h-1v-1v1h-1v-3l-2,-2h1h-2v-1h-2l-1,-1l-1,-2h-1l-1,-1v1h-2l-1,-1h-2l-2,-2h-1l-1,-1v-1h-1v-3h1l-1,-1v-3l-1,-1v-1l-1,-1v-3h-1v-5l-1,-1l-1,1v4h1l-1,1h1v5h1v2h-1v-1l-1,-1v-3l-1,-1v1v-1h-1v-1h1v-9h-1v-1h-1v-9l2,-2v-1l1,-2l2,-2l1,-2l1,-1v-1h1v1l2,-2h-1v-2l-1,-1v-1l1,-1l-1,-1l1,-1v-1l1,-1l-1,-1l1,-1v-1l1,-1l-1,-1h-1v-2h-1v-1h-1l-1,-1h-1l-1,1h-4l1,-1l2,-1h-1l-1,1l-2,1h-1l-1,1l-2,1h-2l-2,1h-1l-1,1h-3l-1,1h-2l1,-1h2l2,-1h2l2,-1h1l2,-1l1,-1h-3l1,-1l-1,1h-1l2,-2h-1v-1l2,-2l2,-1h3l1,-1h1l1,-1h-3v-2h4l1,1l1,-1v-3h4l1,-1h2l2,-1l1,1l1,-1h1l-1,1h1l1,1h2l1,1h2v1l1,1l1,-1h6l1,-1v2l2,-1l-1,1h2l1,1h2v1l-2,1h4v1l2,-2h2v1h1l1,1h2v-1h1l1,1l-1,1l1,-1h1l1,-1v-2l1,-1l2,-1l1,1l-2,2Z"/>
<path class="tl" d="M128,774l-1,1h4l-1,1h1l2,-2v1l-1,2v1l1,1h-2v1h-8v-1h-1v-1h4l-1,-1h-3l2,-1h-1l1,-1h1ZM135,774l-2,1v-1h1ZM152,776v1l-1,-1l-1,1v-2h2ZM146,776v1l1,-1l2,-1v2h3l1,1l-1,1l2,-1v1l1,1v2h-1l2,2v1h1v1l-2,1h-1l-1,-2l-1,1v1l1,1v2l-1,1l-2,-2v1l1,1h-2l-2,-2v-1l-1,-1v1h-3v-1l1,-1h3l1,-1l2,-1v-1l-1,-1h-1l1,-1l-1,-1h-5l-1,-1h-1l1,-1h-1l1,-1l2,-1l1,-1h2ZM138,774h2l-1,1h-1l1,1l-2,1h-2v-2l1,1v-1ZM298,772h-2v-1ZM141,776l-2,1v-1l2,-2h2l1,1l-2,1ZM122,776h-2l-1,-1h1l2,-1l2,-2h2v1h2v1h-1l-3,1h-2ZM299,769v1h-3v-1h1ZM143,773v1l-1,-1h-1l1,-1h1l1,1ZM295,769l1,1h-2l-1,1l-2,-1l-1,-1h2ZM143,771h-1v1l-1,1h-2l1,-1h-1l1,-1h2ZM136,771h1v1h-4l-2,1h-1l1,-1h-1l-1,-1l2,-1h1l2,1l1,1v-2h2ZM246,780h-3l-2,-1v-1l1,-2h-1l1,-1l-1,-1h1l4,-2h2l-1,1l-2,1l-1,1v2l-1,1l1,1ZM145,770l1,1h1l-1,1h1l1,1h4v1h-7l-1,-1l1,-1v-1h-2l1,-1ZM134,769l-2,1h-4l2,-1h3ZM271,770l1,1v-1h2l2,1h1v1l-1,1h1l2,1v-1l1,1l1,-1h2l1,1h3l-2,-1h5l1,1v1h2l2,1l-1,-1h1l1,-1l2,1v-1h1l-2,-1h8l3,1l1,-1h2l2,2h2v-1h3l3,1v-1h-2v-1h7l8,5h-1l1,1l2,1h2v1h-1v1h-1l1,1v2l-2,-1v2l-1,-1v1h-1l2,2v1h1l3,2h-1l1,1h1v1l1,2h-1l1,2l1,1l-4,-2l-4,-3l-1,-2l-1,-1v-3l-1,-2v-1l-2,-2l-1,1l2,2l-3,-1l-1,1l1,2l1,1h-1l-1,1l-1,-1h-1v1h-4v7h1l2,1h1l-1,-1h1l3,1l1,2l1,1l1,2l2,2v9h-1l-1,-1v2h-1v1l1,1v1h-1v1l1,1h1l2,2v1l1,1v1l-1,1h-1l-1,-2l-1,-1h1l-2,-1v-1v1v-1h-1v-1l-1,-1h-2v1h-1l-1,-1l1,-1l-1,-1l-1,1v2h-1v1l2,2h1v-1h2l1,1l-2,1v2l2,2l1,2l2,1v2h1v6l-2,4l-1,1h-1v1l-1,-1v1l-2,1h-1v2l-1,-1v-1h-2l-1,2v2l1,1l1,2l2,2l1,3v4l-2,1v1l-2,1v-2l-1,-1h-1v-1l-2,-2h-1v-1h-1v6h1v3l1,1h1v1h1v1l1,1v3h1v2h-1l-2,-2v-1l-1,-1v-1l-1,-1v-2l-1,-1v-1h-1v-6l-1,-1v-1l-1,-2v-2l-1,-1l-2,2h-1v-3l-1,-2v-1h-1l-2,-2v-1l-1,-1h-1v2l-1,-1v1h-2v2l-2,1l-1,2v1l-2,2h-1v8l-1,1l1,1h-1l-1,1l-1,-1l-1,-2v-1l-1,-1v-1l-1,-2v-1l-3,-6v-3l-2,1h-1l-1,-2v-1l-2,-1l-1,-1v-1l-1,-1l-2,1h-5l-1,-1h-2v-2h-1l-1,1h-2l-3,-3l-1,-2l-1,1v-1l-1,1v2l1,1h1l1,1v2l1,1l-1,-1l1,-1v2h1v1l1,-1h2v-1l1,-1v-1v2l2,2h1l2,2l-1,1v1h-1v3h-1v1h-1v1h-2v1h-1l-2,2h-1l-2,2v-1l-1,1h-2v1h-2v-2l-1,-1v-3h-1v-1l-1,-1v-1l-1,-1h-1v-1l-1,-1v-3h-2v-2l-1,-1v-1l-2,-2v-1v1l-1,1l-1,-1l-1,-2l1,2l1,1l1,2v1l2,2h-1l2,2v1l1,1h-1l1,2v1l1,1l1,2v1l1,1l2,1v1h1v1h1v1l-1,1h1l1,1h3l1,-1h3v-1h1v2l-1,1v3l-1,1l-3,6l-1,1l-2,1l-1,1l-1,2v1h-1v1h-1v2l-1,1l-1,2l1,1v4l1,1v7l-1,1h-1l-3,3h-1v1l-1,1v2h1l-1,1h1v1l-1,1h1l-1,1h-1l-2,2v3l-3,3v1l-2,1v1l-1,1h-2v1l-1,-1v1l-1,-1l-1,1h-2l-1,1l-1,-1h-1v-5l-1,-1v-2l-1,-1v-1l-1,-1v-5l-1,-1v-1l-1,-2v-1l-1,-1v-3l1,-1v-3h1v-1l1,-1v-1h-1v-5l-1,-1v-2l-3,-3l-1,-2l1,-1v-5l-1,-1v-1l-1,1h-2l-1,-1v-1l-1,-1h-2l-1,1h-2l-1,1h-6l-1,1l-4,-4h-1l-1,-1v-1l-1,-1v-1h-1v-1l-1,-1v-1h-1v-3h-1l1,-1v-1h1l-1,-1l1,-1v-4l-1,-1v-1h1v-2l1,-1v-1h1v-2h1l1,-2h1l2,-2v-3l3,-3l1,-2v-1h1l1,1h2l1,-1h2l1,-1h4l1,-1h1v1h1l1,-1h1v1l1,-1v1h-1v1h1v2h-1v1h1v1h3l2,2h1l2,2l1,-1v-2l1,-1h2l1,1h1l1,1h2l1,1h1v-1h2l1,1v-1h1l1,1v-2l1,-1v-5h-2l-1,1l-1,-1h-2v1l-1,-1h-2v-1l-1,-1v-2l1,-1h1v-1h2l1,-1h1l2,-1l2,1l1,1h2l1,-1v-2h-1l-2,-2h-1l-1,-1l1,-1l-1,-1h2l-1,-1v1h-2l-1,1v1h1l-1,1h-1v-1h-1l1,-1h-2v-1h-1v1l-1,1v1h-1v4l1,1h-2v1h-1v-1h-2l1,1h-2v1l1,1h-1h1l1,1v1l-1,-1v1h-1l1,1h-2v-2l-1,-1v-1h-1v-3h-1v-1h-1l-1,-1h-1l-1,-1v-1l-1,-1v1v-1h-2v1l2,2v1l1,1h1l1,1h1l1,1v1l-1,-1h-1v1h1v1h-1v1h-1v-1h1l-1,-1v-1h-1l-1,-1h-1l-2,-2l-1,-2h-2v1h-4l-1,1v2h-2v1l-1,2h1l-1,1v1h-1l-1,1h-2l-1,1l-2,-2v1h-2l1,-1v-1h-1v-2l1,-1v-3l-1,-1l2,-1l1,1h5v-4l-1,-1v-1h-2v-1h3v-2l1,1l2,-1v-1h1l1,-1l1,-2l1,-1h2v-5h2l-1,1h1v1l-1,1v1h1v1l1,-1h2v1h1l2,-2l1,1h1v-1h1v-3l1,-1l1,1v-1l-1,-1v-1h4l1,-1h-4l-1,1l-2,-2v-4l2,-1v-1l-1,-1l-2,2l-1,2l-1,1v3h1v2h-1v2l-1,2h-1v1h-1v-2l-1,-1l-1,-2l-1,-1l-1,2h-1l-2,-1v-5l2,-1l3,-3l2,-3l3,-3h2l1,-2h3l2,1l-1,1h2l1,1h3l3,1l1,1v1l-1,1h-1l-3,-1h-1l2,1v2l1,1h1v-1h-1l1,-1l2,1v-1l1,-2h1l1,1v-1l-1,-1v-1l-1,-1l2,1h1l-1,1l1,1h1v-1l1,-1l2,-1h1v1l1,-1h1l1,-1l1,1l1,-1h-2l1,-1h2l1,1l4,1v-1h-2v-1h-1l-1,-1v-3h2l1,1v1h1l1,1l1,2h1v3l1,1v-1h1l-1,-1l1,-1h-1l-2,-2v-1l-2,-1l1,-1l-1,-1h1l1,2l-1,-1l1,-1h2l1,1l-1,-1l-1,-2h4l-2,-1v-1h1l1,-1h3l1,-1h1v-2l2,1h-1ZM253,820l1,1v2h-1v1l1,1h1l1,1h3l-1,-1v-2h-1v-2h1v-1l-1,-1h-1l1,1l-1,-1v-1h-2v-2h-1h1v-2l1,1v-3h-2l-1,1h-1v1h-1l-1,2l2,1v1l1,1Z"/>
<path class="tl" d="M146,770h-1v-1h1l1,1ZM137,769h-2l1,-1h1l1,1ZM220,771l-1,1h-1v-1h-1l2,-1v1ZM139,768h-2l1,-1v1ZM146,769h-1v-1h1l1,1ZM144,769h-1l-1,-1h-1h1v-1h1l1,1ZM268,768l-3,1v-2ZM215,769l3,1h-2v3h-1l-2,-1h1l-1,-1l-2,-1v-1l1,-1l1,1h1v-1h1ZM220,768h1l-1,1h-4l-1,-1h3ZM234,767l-1,1h-1v-1h-1h4ZM264,768h-4l-2,-1l-1,-1h1l1,-1l4,2ZM153,767v1h-1l-2,1h-2v-1h1h-1v-1l1,-1h2v-1h1v1h1ZM167,764h3v1h-3l-1,1h-1l-1,1l-2,1h-3v1h-1v1h-2l-2,1h1l-2,1h-4l-1,-1h2v-1h2v-1h-1h1l1,-1h1l-1,-1h4l-1,-1h-3v-1l1,-1h6v-1h3v1l2,-1l1,1ZM190,764l3,1h-6v1h5l-1,1l2,-1h4v1l-2,1h-1l-2,2v2l1,1h-2l1,1l-1,1v1h-1l1,1h-3l1,1v1l-1,-1l-1,1h1l1,1v1h-2l-1,-1v1l-1,1h3l-4,2h-3l-1,1l-4,2h-1l-2,1h-1v1l-2,2v1l-1,1l-1,2h-1l-1,-1h-1l-1,-1v-2l-1,-1v-1l1,-1l-1,-2l1,-1l1,-2h1l1,-1v-1l-1,1h-1v-1l1,-1h1l-1,-1h-1l1,-1v-4l-1,-1h-5v-1l-1,-1h1l-1,-1l1,-1h2l3,-1h1l-2,-1h1l3,-1h1v-1h9l1,1l-1,-1h1l2,-1h3l2,-1Z"/>
<path class="th" d="M361,881h1v1h2v1h1v1h1v2h2v1h-1v2h1v2h1v1h1h-1v1h1v1h-1v-1h-2v-1h-1v-3h-2v-1v1v-1v1h-1v-1v2h-2v-1v1v-1v1h1v1h-2v-7l1,-1v-1ZM373,895h-1ZM374,895h-1h1h-1ZM373,895h-1ZM370,893v1ZM371,893v-1v1h-1v-1h1v1v-1ZM370,892h1h-1h1ZM370,892v-1ZM373,891h-1ZM371,891v-1ZM363,890h-1ZM363,890h-1ZM368,886v-1ZM377,887v1h-1v-2h-1h1v-1v2ZM376,885h-1ZM369,884h1ZM373,884v1l-1,1v-1v1v-1v1h-1v1h-1v-1h-2l1,-1v1h1v-1v1v-1v1v-1h1h-1h1v1v-1h1v-1v1v-1v1v-2h1v1v-1ZM374,882h-1ZM372,881h-1ZM374,883v1h-1v-2h-1v-1h-1h1v1h1v1v-1v1ZM371,881v-1ZM368,880h-1ZM375,883h-1ZM372,884v1ZM363,882h1Z"/>
<path class="tg" d="M66,970h1l1,-1h4v-1h5v-1h5v-1h6v-1h6l1,-1h7v-1h8v-1h9l1,-1h11v-1h14v-1h20v-1h79v1h20v1h14v1h11l1,1h9v1h8v1h7l1,1h6v1h6v1h5v1h5v1h4l1,1h1M21,927h6v-1h7v-1h8v-1h10v-1h10v-1h12v-1h14v-1h18v-1h23v-1h38v-1h75v1h38v1h23v1h18v1h14v1h12v1h10v1h10v1h8v1h7v1h6M5,877h399M21,826h4v1h7v1h8v1h9v1h10v1h11v1h14v1h16v1h21v1h32v1h103v-1h32v-1h21v-1h16v-1h14v-1h11v-1h10v-1h9v-1h8v-1h7v-1h4M66,783v1h5v1h4v1h5l1,1h5v1h6l1,1h6l1,1h7v1h10v1h10v1h13l1,1h17v1h36v1h21v-1h36v-1h17l1,-1h13v-1h10v-1h10v-1h7l1,-1h6l1,-1h6v-1h5l1,-1h5v-1h4v-1h5v-1M140,755h-1v1h-3v1h-2v1h-2v1h-2v1h-2v1h-2l-1,1h-1l-1,1h-1l-1,1h-1v1h-2v1h-2v1h-2v1h-1l-1,1h-1v1h-2v1h-1l-1,1h-1v1h-2v1h-1v1h-2v1h-1v1h-2v1h-1v1h-1l-1,1h-1v1h-1v1h-2v1h-1v1h-1v1h-1v1h-2v1h-1v1h-1v1h-1v1h-1v1h-1v1h-1l-1,1h-1v1h-1v1h-1v1h-1v1h-1v1h-1v1h-1v1h-1v1h-1v1l-1,1v1h-1v1h-1v1h-1v1h-1v1h-1v1l-1,1v1h-1v1h-1v1h-1v2h-1v1h-1v2h-1v1h-1v2h-1v1h-1v2h-1v2h-1v1h-1v2h-1v2h-1v2h-1v2h-1v2l-1,1v2h-1v2l-1,1v2h-1v3h-1v4h-1v4h-1v5h-1v9h-1v13l1,1v8h1v5h1v4h1v4h1v3h1v3h1v2h1v3h1v2h1v2h1v2h1v2h1v2h1v2h1v1l1,1v1h1v2h1v1h1v2h1v1h1v1h1v2h1v1h1v1l1,1v1h1v1h1v1h1v1l2,2v1h1v1h1v1h1v1h1v1h1v1h1v1h1v1h1v1h1v1h1v1h1v1h1v1h1v1h2v1h1v1h1v1h1v1h1v1h1l1,1h1v1h1v1h1v1h2v1h1v1h1l1,1h1v1h1v1h2v1h1v1h2v1h1l1,1h1v1h2v1h1v1h2v1h2v1h1l1,1h1v1h2v1h2v1h2v1h2v1h2v1h2v1h2v1h2l1,1h2v1h2v1h2M153,755h-1v1h-2v1h-2v1h-1v1h-2v1h-2v1h-1v1h-2v1h-1v1h-2v1h-1v1h-2v1h-1v1h-1v1h-2v1h-1v1h-1l-1,1h-1v1h-1v1h-1v1h-1v1h-1l-1,1h-1v1h-1v1h-1v1h-1v1h-1v1h-1v1h-1v1h-1v1h-1v1h-1v1h-1v1h-1v1h-1v1h-1v1h-1v1h-1v1h-1v1l-2,2v1h-1v1h-1v1h-1v1l-1,1v1h-1v1h-1v2h-1v1h-1v1l-1,1v1h-1v2h-1v1h-1v2h-1v1h-1v2h-1v2h-1v2h-1v2h-1v2h-1v2h-1v2h-1v3h-1v2h-1v3h-1v3h-1v3h-1v3h-1v4l-1,1v4h-1v6l-1,1v30h1v6h1v5h1v4h1v3h1v3l1,1v2l1,1v2h1v3h1v2h1v2h1v2h1v2l1,1v1h1v2h1v2h1v2h1v2h1v1h1v2h1v1h1v2h1v1h1v2h1v1h1v1h1v2h1v1h1v1h1v1l1,1v1h1v1h1v1h1v1h1v1h1v1h1v1l3,3v1h1l3,3h1v1h1v1h1v1h1v1h1v1h1v1h1v1h1l1,1h1v1h1v1h1v1h1l1,1h1v1h1v1h1l1,1h1v1h1v1h2v1h1v1h2v1h1v1h2v1h2v1h1v1h2v1h1l1,1h1v1h2M166,755h-1v1h-1v1h-1l-1,1h-1v1h-1v1h-1v1h-1v1h-1v1h-1l-2,2h-1v1h-1v1h-1v1h-1v1h-1v1h-1v1h-1v1h-1v1h-1v1l-2,2v1h-1v1h-1v1h-1v1h-1v1l-1,1v1h-1v1h-1v1h-1v2h-1v1h-1v1l-1,1v1h-1v1h-1v2h-1v1h-1v2h-1v2h-1v1h-1v2h-1v2h-1v2h-1v1l-1,1v1l-1,1v1l-1,1v2h-1v2h-1v2h-1v3h-1v2h-1v3h-1v3h-1v3h-1v3h-1v4h-1v4h-1v5h-1v6h-1v8h-1v30h1v7l1,1v5h1v5h1v4h1v4h1v3h1v3h1v3h1v3h1v3h1v2h1v2h1v2l1,1v2h1v2h1v2h1v2h1v1h1v2h1v2h1v2h1v1h1v2h1v1h1v2h1v1l1,1v1h1v1h1v2h1v1h1v1h1v1l1,1v1h1v1h1v1h1v1l1,1v1h1v1h1v1h1v1h1v1h1v1h1v1h1v1h1v1h1v1h1v1h1v1h1v1h1v1h1v1h1l2,2h1v1h1v1h1v1h1v1h2v1h1"/>
<path class="tg" d="M179,755h-1v1h-1v2h-1v1h-1v1h-1v1h-1v2h-1v1h-1v1l-1,1v1h-1v1l-1,1v1h-1v1l-1,1v1h-1v2h-1v1l-1,1v1h-1v2h-1v2h-1v2h-1v2h-1v2h-1v2h-1v2h-1v2h-1v2l-1,1v2h-1v2l-1,1v2h-1v3h-1v3h-1v3h-1v3h-1v4h-1v4h-1v4h-1v4h-1v5l-1,1v5h-1v8h-1v11h-1v29l1,1v10l1,1v7h1v6h1v5h1v4l1,1v4h1v3l1,1v3h1v3h1v3h1v3h1v3h1v3h1v2h1v3h1v2h1v2h1v2l1,1v2h1v2h1v1l1,1v1l1,1v1h1v2h1v2h1v1l1,1v1h1v2h1v1h1v2h1v1h1v2h1v1h1v1l1,1v1h1v1h1v1h1v2h1v1h1v1h1M192,755h-1v3h-1v2h-1v3h-1v3h-1v3h-1v3h-1v3h-1v3l-1,1v3h-1v4h-1v4h-1v4l-1,1v4h-1v5h-1v6h-1v6l-1,1v7h-1v8h-1v11l-1,1v18h-1v29l1,1v18h1v11h1v8l1,1v7h1v6h1v6h1v5h1v5h1v4h1v4h1v4h1v4h1v3h1v3l1,1v3h1v2l1,1v2h1v3h1v3h1v2h1M205,755v243M217,755h1v3h1v2h1v3h1v3h1v3h1v3h1v3h1v3l1,1v3h1v4h1v4h1v4l1,1v4h1v5h1v6h1v6l1,1v7h1v8h1v11l1,1v18h1v29l-1,1v18h-1v11h-1v8l-1,1v7h-1v6h-1v6h-1v5h-1v5h-1v4h-1v4h-1v4h-1v4h-1v3h-1v3l-1,1v3h-1v2l-1,1v2h-1v3h-1v3h-1v2h-1M230,755h1v1h1v2h1v1h1v1h1v1h1v2h1v1h1v1l1,1v1h1v1l1,1v1h1v1l1,1v1h1v2h1v1l1,1v1h1v2h1v2h1v2h1v2h1v2h1v2h1v2h1v2h1v2l1,1v2h1v2l1,1v2h1v3h1v3h1v3h1v3h1v4h1v4h1v4h1v4h1v5l1,1v5h1v8h1v11h1v29l-1,1v10l-1,1v7h-1v6h-1v5h-1v4l-1,1v4h-1v3l-1,1v3h-1v3h-1v3h-1v3h-1v3h-1v3h-1v2h-1v3h-1v2h-1v2h-1v2l-1,1v2h-1v2h-1v1l-1,1v1l-1,1v1h-1v2h-1v2h-1v1l-1,1v1h-1v2h-1v1h-1v2h-1v1h-1v2h-1v1h-1v1l-1,1v1h-1v1h-1v1h-1v2h-1v1h-1v1h-1M243,755h1v1h1v1h1l1,1h1v1h1v1h1v1h1v1h1v1h1l2,2h1v1h1v1h1v1h1v1h1v1h1v1h1v1h1v1h1v1l2,2v1h1v1h1v1h1v1h1v1l1,1v1h1v1h1v1h1v2h1v1h1v1l1,1v1h1v1h1v2h1v1h1v2h1v2h1v1h1v2h1v2h1v2h1v1l1,1v1l1,1v1l1,1v2h1v2h1v2h1v3h1v2h1v3h1v3h1v3h1v3h1v4h1v4h1v5h1v6h1v8h1v30h-1v7l-1,1v5h-1v5h-1v4h-1v4h-1v3h-1v3h-1v3h-1v3h-1v3h-1v2h-1v2h-1v2l-1,1v2h-1v2h-1v2h-1v2h-1v1h-1v2h-1v2h-1v2h-1v1h-1v2h-1v1h-1v2h-1v1l-1,1v1h-1v1h-1v2h-1v1h-1v1h-1v1l-1,1v1h-1v1h-1v1h-1v1l-1,1v1h-1v1h-1v1h-1v1h-1v1h-1v1h-1v1h-1v1h-1v1h-1v1h-1v1h-1v1h-1v1h-1v1h-1v1h-1l-2,2h-1v1h-1v1h-1v1h-1v1h-2v1h-1M256,755h1v1h2v1h2v1h1v1h2v1h2v1h1v1h2v1h1v1h2v1h1v1h2v1h1v1h1v1h2v1h1v1h1l1,1h1v1h1v1h1v1h1v1h1l1,1h1v1h1v1h1v1h1v1h1v1h1v1h1v1h1v1h1v1h1v1h1v1h1v1h1v1h1v1h1v1h1v1h1v1l2,2v1h1v1h1v1h1v1l1,1v1h1v1h1v2h1v1h1v1l1,1v1h1v2h1v1h1v2h1v1h1v2h1v2h1v2h1v2h1v2h1v2h1v2h1v3h1v2h1v3h1v3h1v3h1v3h1v4l1,1v4h1v6l1,1v14l1,1h-1v15h-1v6h-1v5h-1v4h-1v3h-1v3l-1,1v2l-1,1v2h-1v3h-1v2h-1v2h-1v2h-1v2l-1,1v1h-1v2h-1v2h-1v2h-1v2h-1v1h-1v2h-1v1h-1v2h-1v1h-1v2h-1v1h-1v1h-1v2h-1v1h-1v1h-1v1l-1,1v1h-1v1h-1v1h-1v1h-1v1h-1v1h-1v1l-3,3v1h-1l-3,3h-1v1h-1v1h-1v1h-1v1h-1v1h-1v1h-1v1h-1l-1,1h-1v1h-1v1h-1v1h-1l-1,1h-1v1h-1v1h-1l-1,1h-1v1h-1v1h-2v1h-1v1h-2v1h-1v1h-2v1h-2v1h-1v1h-2v1h-1l-1,1h-1v1h-2"/>
<path class="tg" d="M269,755h1v1h3v1h2v1h2v1h2v1h2v1h2l1,1h1l1,1h1l1,1h1v1h2v1h2v1h2v1h1l1,1h1v1h2v1h1l1,1h1v1h2v1h1v1h2v1h1v1h2v1h1v1h1l1,1h1v1h1v1h2v1h1v1h1v1h1v1h2v1h1v1h1v1h1v1h1v1h1v1h1l1,1h1v1h1v1h1v1h1v1h1v1h1v1h1v1h1v1h1v1l1,1v1h1v1h1v1h1v1h1v1h1v1l1,1v1h1v1h1v1h1v2h1v1h1v2h1v1h1v2h1v1h1v2h1v2h1v1h1v2h1v2h1v2h1v2h1v2l1,1v2h1v2l1,1v2h1v3h1v4h1v4h1v5h1v9h1v13l-1,1v8h-1v5h-1v4h-1v4h-1v3h-1v3h-1v2h-1v3h-1v2h-1v2h-1v2h-1v2h-1v2h-1v2h-1v1l-1,1v1h-1v2h-1v1h-1v2h-1v1h-1v1h-1v2h-1v1h-1v1l-1,1v1h-1v1h-1v1h-1v1l-2,2v1h-1v1h-1v1h-1v1h-1v1h-1v1h-1v1h-1v1h-1v1h-1v1h-1v1h-1v1h-1v1h-1v1h-2v1h-1v1h-1v1h-1v1h-1v1h-1l-1,1h-1v1h-1v1h-1v1h-2v1h-1v1h-1l-1,1h-1v1h-1v1h-2v1h-1v1h-2v1h-1l-1,1h-1v1h-2v1h-1v1h-2v1h-2v1h-1l-1,1h-1v1h-2v1h-2v1h-2v1h-2v1h-2v1h-2v1h-2v1h-2l-1,1h-2v1h-2v1h-2"/>
<rect x="349" y="868" width="38" height="37" fill-opacity="0" stroke="#ffffff" stroke-opacity="0.5" stroke-width="5.0"/>
<rect x="351" y="870" width="38" height="37" fill-opacity="0" stroke="#113311" stroke-opacity="0.8" stroke-width="5.0"/>
<rect x="350" y="869" width="38" height="37" fill-opacity="0" stroke="#45a249" stroke-opacity="0.9" stroke-width="5.0"/>
</svg>
