<?xml version="1.0" encoding="UTF-8" standalone="no"?>
<svg xmlns:svg="http://www.w3.org/2000/svg" xmlns="http://www.w3.org/2000/svg" xmlns:xlink="http://www.w3.org/1999/xlink" height="1000" width="1000">
<!-- made with pythonshp (GPL): github.com/sanjayrao77/pythonshp , underlying data may come from naturalearthdata.com -->
<!-- 
COPYRIGHT: THIS SVG FILE IS RELEASED INTO THE PUBLIC DOMAIN
 -->
<!-- 
vars : {
	'cmdline' : 'pythonshp.py publicdomain wiki1 pitcairnislands locatormap'
	'title' : 'Pitcairn Islands locator'
	'version' : '1.0.5'
}
 -->
<defs>
	<radialGradient id="watergradient" cx="500" cy="500" r="500" fx="500" fy="500" gradientUnits="userSpaceOnUse">
		<stop offset="0%" stop-color="#70add3"/>
		<stop offset="11%" stop-color="#6eaad0"/>
		<stop offset="22%" stop-color="#6ca7cc"/>
		<stop offset="31%" stop-color="#6ba5c9"/>
		<stop offset="41%" stop-color="#69a2c6"/>
		<stop offset="51%" stop-color="#679fc2"/>
		<stop offset="59%" stop-color="#669dbf"/>
		<stop offset="67%" stop-color="#649abc"/>
		<stop offset="75%" stop-color="#6297b9"/>
		<stop offset="81%" stop-color="#6095b6"/>
		<stop offset="87%" stop-color="#5f92b2"/>
		<stop offset="92%" stop-color="#5d8faf"/>
		<stop offset="95%" stop-color="#5b8dac"/>
		<stop offset="98%" stop-color="#598aa8"/>
		<stop offset="100%" stop-color="#5685a2"/>
	</radialGradient>
	<radialGradient id="landgradient" cx="500" cy="500" r="500" fx="500" fy="500" gradientUnits="userSpaceOnUse">
		<stop offset="0%" stop-color="#dddddd"/>
		<stop offset="11%" stop-color="#d7d7d7"/>
		<stop offset="22%" stop-color="#d1d1d1"/>
		<stop offset="31%" stop-color="#cccccc"/>
		<stop offset="41%" stop-color="#c6c6c6"/>
		<stop offset="51%" stop-color="#c0c0c0"/>
		<stop offset="59%" stop-color="#bbbbbb"/>
		<stop offset="67%" stop-color="#b5b5b5"/>
		<stop offset="75%" stop-color="#afafaf"/>
		<stop offset="81%" stop-color="#aaaaaa"/>
		<stop offset="87%" stop-color="#a4a4a4"/>
		<stop offset="92%" stop-color="#9e9e9e"/>
		<stop offset="95%" stop-color="#999999"/>
		<stop offset="98%" stop-color="#939393"/>
		<stop offset="100%" stop-color="#888888"/>
	</radialGradient>
	<radialGradient id="bordergradient" cx="500" cy="500" r="500" fx="500" fy="500" gradientUnits="userSpaceOnUse">
		<stop offset="0%" stop-color="#444444"/>
		<stop offset="11%" stop-color="#3f3f3f"/>
		<stop offset="22%" stop-color="#3a3a3a"/>
		<stop offset="31%" stop-color="#363636"/>
		<stop offset="41%" stop-color="#323232"/>
		<stop offset="51%" stop-color="#2d2d2d"/>
		<stop offset="59%" stop-color="#292929"/>
		<stop offset="67%" stop-color="#242424"/>
		<stop offset="75%" stop-color="#1f1f1f"/>
		<stop offset="81%" stop-color="#1b1b1b"/>
		<stop offset="87%" stop-color="#161616"/>
		<stop offset="92%" stop-color="#121212"/>
		<stop offset="95%" stop-color="#0e0e0e"/>
		<stop offset="98%" stop-color="#090909"/>
		<stop offset="100%" stop-color="#000000"/>
	</radialGradient>
</defs>
<style type="text/css">
<![CDATA[
.c1 {stroke:#45a211;fill-opacity:0}
.c3 {stroke:#45a211;fill-opacity:0;stroke-width:3}
.fs {font:14px sans;stroke:#ffffff;stroke-width:2px;stroke-opacity:0.8;text-anchor:middle}
.ft {font:14px sans;fill:#000000;fill-opacity:1;stroke-opacity:0;text-anchor:middle}
.sb {stroke:url(#bordergradient);fill-opacity:0}
.sg {stroke:#000000;fill-opacity:0.0;stroke-opacity:0.2}
.sh {fill:#45a211;stroke:#000000}
.sl {fill:url(#landgradient);stroke:url(#bordergradient)}
.sp {stroke:url(#landgradient);fill-opacity:0}
.sw {fill:url(#watergradient);stroke:url(#watergradient);stroke-opacity:0.8}
.tb {fill:#eeeeee;stroke:black;stroke-width:2}
.tg {stroke:black;stroke-opacity:0.2;fill-opacity:0}
.tl {fill:#aaaaaa;stroke:black}
.w1 {stroke:#ffffff;fill-opacity:0;stroke-opacity:0.6}
.w3 {stroke:#ffffff;fill-opacity:0;stroke-opacity:0.6;stroke-width:3}
.zh {fill:#45a211;stroke:#115511}
]]>
</style>
<circle cx="500.0" cy="500.0" r="500.0" fill="url(#watergradient)"/>
<path class="sl" d="M489,36h-1v1l1,1h-1v1h-1l-1,1h-2v-2h1v-1l-1,-1v-1l-1,1h-3v1h-2v-1h1l1,-1h2h-3v-1h-2v-1h-1v-1v1l-3,-1v-1h2l-1,-1h-3v-1l1,-1l-1,1h-3l-1,-1v-1l-1,-1v2l1,1h-4v-1l1,-1h-2v1h-1v-1h-2l-1,1h4v1h-6v-1h-2l-1,-1h-4l-1,-1h-1h2v-1h1v1h-1h1v-1h1h-4v1h-6v-1h1h-7l-3,1h-2l-1,-1h-1l1,-1l-1,1h-6v-1h-1h1h-5v1h-1v-1h1h-2v1h-1v1h-1h1h-1v1h-5v1h-3v1h-4v1h-4l-1,1h-1l1,-1h2l1,-1h1h-2v-1h2l1,-1h1v-1h3l2,-1h2v-1h1h-1l-2,1v-1l-2,1h-2v1h-3v1h-2l-1,1h-2v1h-2l-1,1h-3v1h-2l-1,1h2v1h-3l-1,1h-1v1h-2l-2,1h-2l-1,1h-2l-1,1h-3v1h-1v1h-3l-1,1h-3l-1,1h-2l-1,1h1l-1,1h-1l1,-1h-1l-1,1l-3,1h-1l-1,1v-1h1h-2v1h-2l-1,1h-3v1h-2l1,-1h1h-2v1h-1l-1,1h-3l-1,1h-2l-1,1v-1h1l1,-1h2l1,-1h2l2,-2h2l2,-1v1l1,-1l-1,1h3v-1h1v-1h1l1,-1h2l2,-1h1l1,-1h2v-1h2l1,-1h2v-1h2l2,-2h1l1,-1h1l1,-1h1l1,-1l-1,1h-1l-2,1h-3v-1h1h-1l-1,1v-1v1h-1l-1,1h-1v-1h-4l-1,1h-2l-1,1h-2l1,-1h1l1,-1l-1,1v-1h1l2,-2v-1h1l1,-1h1h-1l-2,1h-1v1h-1l-1,1h-4v1l-1,-1h1h-1l-1,-1h1h-1l2,-1h2v1v-1h4l-1,-1l-1,1l1,-1h1h-1l-1,1h-2v-1h-1h1h-1h1h-1v1h-1v-1h1h-1h1v-1h1h-1h2v-1h1l2,-1h2l1,-1v1v-1h1l1,-1h2l1,-1h1v1v-1h4v-1h3l2,-1h3v-1h1l1,-1h-1h3v-1h1h-3l-1,1h-2l-1,1h-1v-1l-1,1h1h-5l-1,1h-3l1,-1h-1h2l1,-1h-1v1h-3l1,-1h1h3v-1h3v-1h4l1,-1h4v-1h1l-1,1h-2v1l2,-1h3l2,-1h1h-1v-1h1l-1,1h3l2,-1h-2l-1,1h-1v-1h1h-3l-1,-1h-1h1l2,-1h3l2,-1h3l2,-1h2l3,-1h2v-1h1h-1v1h-1h1v-1h4l2,-1v1h-1h1v-1h1h4l1,-1h4l1,-1h2l-1,1h-1h1h-1h2l1,-1h13l1,-1h1v1l1,-1h34l1,1v-1h-1h1h-1h2l1,-1h3v1h-1h2l1,-1h8v-1h4l-1,1h-8v1h-1h2v-1h3v1v-1h8v-1h4l1,1h6v-1h1v1h1h-1h11l2,1h8l2,1h9l1,1h1h-2v1h16l1,1h5l1,1h1h-2h2l1,1h1h-1v-1h1v1h1v-1h-3v-1h-1h3l-1,-1h1h-1h3v1h5l1,1h5v1h9l1,1h1v-1h-1h1l2,1h1h-2l-2,-1h-1h5l1,1v-1v1h3v1h3v1h1h-1l2,1h1l-2,-1h1h-1l-1,-1h-1l-1,-1h1l1,1v-1h1h-2v-1h-1v1l-1,-1h-1h1h-1l-1,-1h-4l-1,-1h-4v-1h-1h1h-3l-1,-1h1h-1h4v1h4l1,1h3l1,1h3l-1,1h5l1,1h1h1l2,1h2v1h1v-1h-1h2l1,1h3l1,1h1h-1h1l2,1h1l2,1h1v-1h-2v-1h-1h1h-3v-1h-3v-1h-1h1v1h4l1,1h3l1,1h3v1h3l1,1h1l1,1h3l1,1h1l1,1h-2l-1,-1h-3v-1h-1l2,1h2v1h1h-1l-1,-1h-3l-1,-1h-1l1,1h2v1h-2l-2,-1h-3l-1,-1h-3l-1,-1h-1h1l2,1h2l2,1h2l2,1h3l1,1h1l1,1v1h-2v-1h-1l1,1l-1,-1h-1v1h-2v-1h-4l-1,-1h-3l-1,-1h-1l1,1h1h-1h4v1h4v1h3l1,1h1h-3l1,1h-1v-1v1l-1,-1v1h1h-1v1h-1h1v1h1h-1h1v1l1,1h-1h1v1h1l3,3h1h-1h1l1,1h2v1l2,1l-1,-1v-1l1,1h3v1h1l1,1h1l4,2l2,2h-1h8l1,1h1l2,1h2l1,1h2l1,1h1l1,1h2l2,1l1,1h2l3,1l1,1h2l1,1h2v1h1v1v-1h3v1h3l1,1h3l2,2h1l3,3l2,1l2,2h1v1h1l1,1l2,1h1l1,1v1h2l1,1h2l2,2l2,1v1h3l2,2h2l1,1h-1l-2,-2h-1l-1,-1v-1l1,1h1l1,1h1h-1v-1l-2,-1l-1,-1v-1h-1l-2,-2h-1v-1h-2l-3,-3h-1v-1h-1v-1h-2v-1h-2v-1h-1l-1,-1h3v-2h-1v-1l-1,-1h-1l-2,-2l-2,-1h-1l-2,-1v-1h-1l-4,-2h-1l-1,-1h-1l-2,-1h-1l-2,-2h-1v-1h-1h1l-1,-1h-1l-2,-1l-1,-1h-1l-1,-1h-2v-1h-1l-1,-1h-1l-1,-1h-2l-2,-2h1l1,1h1l3,1h1l1,1h3l1,1h2v1h2v1v-1l1,1h2v1h2v1h2l1,1h2l1,1h1l1,1v-1v1h2v1h2v1h2v1h-1l-1,-1h1l1,1h1l1,1h1v1h2l1,1h1l1,1l-1,-1v1h3v1h1l1,1h1l1,1h1v1h1l-1,-1h-1v-1v1h1l1,1v-1h-1l1,1h1l1,1l-1,-1h-1h1v-1h-1h1v1h1h-1v-1h-2v-1l1,1l-1,-1h-1v-1v1l-1,-1l1,1v-1h-2v-1h-1h1h-2v-1h-1h1l1,1h1l1,1h1h-1h1v1h2v1h2l1,1h1v1h2l1,1h1v1h1h-1h1l1,1h1l1,1h1l1,1h1l1,1h1v1h2v1h1l2,1v1h2h-2l-1,-1l1,1h2v1h1l1,1h1l2,2h1l1,1h1h-1h1v1h2v1h1l1,1l-1,-1l1,1h1v1h2v1v-1h-1l1,1h1l1,1h1l1,1h1v1h1l1,1h-1v-1v1h1h-1h1v1v-1l1,1v1h1v-1v1v-1h-1v-1h-1l1,1h1l2,1v1h1l1,1h-1h1l1,1h1l1,1h1v1h1l2,2h1v1h1h-1v-1v1h1l1,1h1v1h1l1,1h1v1h-1v-1v1v-1h-1h1v1l1,1h1v1h1v1l-1,-1h-1l-1,-1h-1l-1,-1h-1v-1h-2l-1,-1h-2l-1,-1h-1l-1,-1h-1l1,2l1,1h-1v2l1,1h-2l-1,-1l-3,-1h1l1,1l2,1h1l1,1h1v1l1,1v3h-1l-1,1v2h-1l1,1h1h-1v1l1,1h1l2,1h3l1,1h1l2,1l-1,-1v-1l1,1h1h-1v-1l1,1v-1h-1v-1h-1v-1l-2,-2v-1h-1v-1l-1,-1v-1h-1h2v1h2l1,1h1l2,2v1h1l3,3h1v1h1v1h1v1h1v1h1v1h1v1h1v-1v1h1v1h1v1h1h-2l1,1h-1h1h-1v-1h-1l1,1h-1v-1h-1v-1h-1l1,1h-1h1v1h1v1h-1v-1v1l-1,-1l1,1h-1h1h-1v1h1v2l2,2h1v2l1,1h1l2,2v1h2l-2,-2v1v-1h1l1,1v1l1,1h-2v-1h-1v1l-1,-1v-1h-1l1,1v1h-1l-1,-1h-4v2l-1,-1v-1l-1,-1h-1h1l1,1v2l1,1h1v1h1v1h1v1l1,1h-1v-1v1l1,1h-1h1v3l-2,-2h-1l-2,-2v-1h-1v-1h1h-1v1l1,1v1h1l1,2h1l2,2v1h1v1h1h-1l1,1v1l1,2v2l-1,-1v-1l-1,-1v-1h-1v-1h-1v-2h-1v1v-1v1v-1h-1l-1,-1h1l-1,-1h-1v-1h-1v-1l-1,-1v-1h1h-1h1h-1v-1v1h-1h1h-1v1v-1v1h1v1v-1v1l1,1l1,2h1v1v-1h-1l-1,-1l1,1l2,1v1l1,1l-2,-2h-1l-1,-1v1v-1h-2v-2l-1,-1l1,1v2h1l2,1l1,1h1v1h1l1,1v1l-3,-2l-1,-1l2,2h1l3,3h-1h1h-1l-2,-1h1l2,2h1v1l-1,-1h-1v-1l-2,-1h-1l1,1h2v1h1l1,1v1h2l2,2l2,3l2,2l-3,-3l-1,-2h-1h1v1h1v1l1,1l-1,-1h-1v1v-1v1v-1v1h-1l-1,-1v-1v2h2v1h1v-1l1,1v1l1,1v-1l-1,-1h1v1h1v3l-1,-1h-1l-1,-1h-1l-1,-1l1,1l2,1v1l1,1h-1l-2,-1l1,1h3v2h-2v-1v1h-1v-1h-1l1,1v3l-1,-1l1,1v1l-2,-1h-1l-1,1v1l1,1h-1v-1v1l1,1h-1l-1,1h1l-1,1l-1,-1l1,1v1h-2l-1,-1v1h1v1l-1,-1v1l-1,-1h1v1h1v1h-1v3h1v1h-1h1h-1l1,1h-1v1h1v2h1v1l2,2v1l2,3l2,2l5,7l1,1v2l1,1l-1,-1v-1l-1,-2v1v-1h-1v-1l-1,-1l1,1v1l1,1v1l1,1l5,7l1,1v1l1,1l1,2l1,3l1,2h-1v-1v2l1,1v1l-1,1h-3v-2l1,1l-4,-4v-1h-1l-1,-1l-2,-4h-1v-1h-1v-1l-1,-1v-1h-1l1,1h-1l-1,-1v-1l-3,-3v-1l1,-1l-1,-1v1l-1,-1l1,1h-1l-1,-1v-2l-1,-2v-2h-1v-1l-5,-4l-4,-4l-2,-1h-1v1l-1,-1l-1,1h-3l-1,-1h1v1v-1h-1l-2,-2v-1h-1l-3,-1l-1,-1h1h-1l-1,-1v1h-3v-1h1l-1,-1v1v-1h-1v2h-1v-1l-1,1h-2v-1h1l-1,-1v-1l-1,-1v2h-4v-1l-1,1h-1l-1,-1v1h-1l-2,-1h-1l-1,-1l-1,1v1h1l1,1h1v-1h2v1h-1l1,1h1v-1h1v2h1h-2l1,1h-1l1,1h1l1,1h1v1h1v1h-1v1v-1h-1v-1h-1v-1h-2v-1h-1l-2,-1h1v1h1v2h-1l-1,-1v-1h-1l-1,1l-2,-1h-2v-1h1l-1,-1h-2v-1l-1,-1h-1l-1,-1h-1v1l1,1h-1l-3,-1h-1l-1,-1h-2v-1h-4v-1l-1,1h1h-1l-3,1l-1,1l1,-1h-1v-2h-1v1l-1,-1v2h1l1,1h-1l-1,1h1l-1,1h-1l-2,2h-2l-1,-1l-1,1v-1h-1l2,2h-2l-1,-1l1,1v1h-2v1v-1v2h-2l2,1l-1,2h-1l-1,-1l2,2v2h1v2l1,1v1l2,2h1v4l-1,2v6l1,3v1l1,3v6l1,2l1,1l1,2l2,2h1v1l-1,1v-2l-2,-1l-1,-2l1,3h1v1h1l1,3l2,2v1l4,4l2,3l1,2l1,1v1l2,1v1h1l2,2h-1l1,1h1h-1h1l3,1l1,1h2l1,2l1,1h5l2,-1l2,1h2l1,-1h6v1h-1h1l1,1h2l1,-1v-1h-1v-1h-1l2,-1l2,-2v-3l1,-1v-1l-1,-1v-3l-1,-1h1v-2l2,-1h7l1,-1h3l4,2h1l-1,-1h2l1,2h1v1l1,1v3l-1,1h-1v5l-1,1v1h2v1h-1v1h1v8l-1,-1v-1h-1v-2l-1,-1v2l-1,1h1l1,1v5l1,1l-1,1l1,1v6l-1,1l-1,2v1l1,1h1v-1l2,2h2v-1h2l1,1h1l3,1h2l1,1l1,-1h2l-1,-1h1l3,2h3l2,1v1h1v-1l5,4v1l-2,-2v1l1,1h1v1h1l-1,-1h1l2,1v2h1v2l-1,-1v1h1l1,4v1l-1,1v5l1,3v3l1,1v1h-1v-2h-1v1l1,1v4l1,1v1h-1v4l2,2v1l2,3v1l3,3l1,2v1l2,1v1h1v1l1,1v1v-1l1,1h-1v1h1v1h2v-1h-1v-1l4,4h3l1,-1l3,-1v-1h2v-1h2l1,1h1v1h2l6,6l2,3l-1,1h1v2l1,1v3l-1,1v1v-1h-1v-1v2h-1v1l-2,-2l-1,-4v-2l1,-1v1h1l1,1l-1,-2h-1v-1l-1,1v-1h-1v-1v1h1v1h-1v-3l-1,-1h-1v-1h-1v-1l-1,-1h-3v1h-1v2l-2,2l-1,-1v3l1,1l1,2l1,1v1h-2v1h-3v-2l-1,-3l-1,-1v2h-1v-1h-1l-1,-3l-1,-1h-1v-1h-2v-1h-2l-1,-1l-1,1v1v-1l-1,-1v-1l-1,-1v-1h-1v-1h-1l1,1v1l1,1l-1,-1h-1l-1,-2v-3l-2,-2l-2,-1v-1l-2,-1l-1,-1v-1l-1,-1l-2,-3h-1v-1h-1l1,1v1l2,1v2h-1v1v-1l-1,-1l-3,-2l-1,-2v-5h-1v-1h1v-1h-1v-1l-1,-2l-4,-3l-1,-3l-8,-8v-1h1v1h1v-1l-1,-1v-1l-1,-1h-2v1h-2l-1,-1h-1v1l-2,-2l-3,-2h-2l-2,-1l-2,-2l-3,-1l-1,-1h-4l-1,-1l-2,-1l-5,-4l-4,-6h-1l-5,-5l-2,-1l-1,-2l-2,-1h-1v-1h-1v1h2l1,1l-5,-2h1l-1,-1l-1,1v-2h-1v1l1,1h-2l-4,2l-3,1h-2l-5,-3l-5,-1l-3,-2l-3,-1l-2,-2h-1v-1l-3,-1h-3l-2,-2l-2,-1h-2l-3,-2l-2,-2l-2,-1l-1,-1h-1l-2,-2h-1v-1h-2l-2,-1h-2l-5,-2l-5,-5h-1l-2,-1l-1,-1h-1l-3,-2l-5,-5v-1l-1,-1v-1h-1v-1h2l1,-1l-1,-1h-1v-1h1v-1h1v-1l-1,-1v-1l-2,-2v-1l-1,-1l-1,-3l-1,-2l-2,-1l-2,-2l-2,-1l-1,-2l-2,-1l-1,-2l-2,-2l-5,-3l2,1v-1h-2l-1,-1h-1v-1h-1l-1,-2l-1,-1l1,1h1l-1,-1l-2,-1h-1l-1,-1h-1v-1h-2v-1h1v-1l-1,1h-2l-1,-1l-1,-2l2,-2v1v-1h-1v-1l-2,-2h-3v-2h-1l-2,-1l-1,-1h-1v-1h-1v-3h-3v-1h-2l-4,-4h-1l-1,-1v-1h-1v-1h-1l-1,-1v-1h-1v-1h-1v-1l-3,-3v-1l-3,-3v-2l-1,-1h1v-1h-2l-2,-1h-1v-1h-1l-1,-1l-1,1h-1l-1,-1l-2,-1h-1l-2,-1h1v1l1,1h-1v3h1v1l1,1v1l1,1v2l2,2l2,1l1,1l2,1v1l2,1v1l1,1h2v1l1,2h2v1l1,1v2h1l1,2l2,1l1,1v1h1l2,2v1l1,1h1l-1,-1v-1l2,1v1l1,1v1l1,1v2l3,3v1l3,3v2l1,2l1,1h1v1h1v-2l3,3h1v1l1,1v1h2v3l-2,2h-2v-1l-1,-2l-1,-1v-1h-1l-2,-1l-1,-2h-1l-5,-3l-2,-2h-1v-1l-2,-1l-1,-1v-4l-1,-1v-1l-2,-3h-2l-3,-2l-1,-1v-1l-1,-1v1h-4v-1h-1v-1h-2l-1,-1h-2v-2l-2,-1h-1l-1,-1h-1v-1h2l2,1h1l1,-1v1h1v1h1l-1,-1v-1h-1l1,-1v-2l-5,-5l-2,-1v-1h-2l-1,-1l-2,-1l-2,-2v-1l-1,-1v-1h-1v-1l-3,-3v-1l-1,-1l-2,-1v-1l-1,-1h1l-2,-1v-2h-2v-2l-1,-1v-1h-1v-1l-1,-1l-3,-2l-1,-1h-2v-1l-1,1v-1l-1,-1h-3l-2,-1h-1v-1h-1l-1,-1h-7v-1h-1v-3h-1l-1,-1v-1h-1l-2,-2h-1v-1h-1l-1,-1l-2,-1v-2l1,-1l-1,-1h-2l-2,-2v-1l-1,-1v-1h1v1h1l1,1v-1l-1,-1h-1v-1h3v-1h-1l-1,1l-1,-1h-1v2l-1,-1h-2v-1h1h-1v-1h-1v-1h-1l-1,-1l-2,-1l-1,-1v-3l-4,-4v-2h1h-1l1,-1v-4h-1v-2h-1v-3h-1v-2l1,-1v-1h1h-1l1,-1v-12h2h-3v-1h1v-1h-1v-1h1h-1v-1v1l-2,-2v-1l-2,-2v-2l1,1h3l4,1l1,-1l1,1h2v1h-1l-2,2h1v-1h1v-1h1v1l1,1h-1v1h-1v-1h-1v1h3v-1h1v-1h-1l1,-1h-1h1v-1h-1v-1v1l-1,-1h1l-1,-1h-1h1v-1h-1l-1,-1h-1v-1h-1h2v-1l-1,1l-1,-1h-1h1v-1h-1v1h-3l-1,-1h1v-2h-1h1l-1,1h-1v1h-1l-1,-1h-1v-1h-1v-1h-1l1,-1v-1v1h-1v1h-2l-1,-1v1h-1v-1l-1,1h-1l-1,-1h-1h1h-1v-1h1h-1v-1v1h-5l-1,-1h-1v-1h1l1,-1h2h-3v1h-1v-1h-1v-1h1h-1l1,-1h1l1,-1h1l1,1h1l-1,-1h-1l1,-1h-1l-2,1h-1v1h-1v1h-1l-1,-1l2,-1h-1h1h-2l1,-1v-1l-1,1l-1,-1v-1h-3v-1l1,-1v1h4v1h1l-1,-1h-3v-1h1h-3v1h-1v1h-2l-1,-1h-2v-1l1,-1h1h-1l-1,-1h-1h1v-1h1v-1h1v-1h1l1,-1h-1v1h-1v1h-1l1,-1v-1Z"/>
<path class="sl" d="M856,699l1,-1l1,-2l2,-1l3,-6v-2l1,-2v-1h1l1,-1v-1l1,-1l1,-3l3,-3v-1l1,-1v-1l2,-2v-1l1,-2l1,-1v-1l1,-1v-2l1,-1l1,-2v-1h1l1,-1v-1l1,-3v-2l2,-4v-1l2,-2v-5l1,-1h1v-1l1,-2l2,-3v-2l1,-1l1,-2v-1l1,-1v-1l1,-4v-2l1,-2l1,-4v-1l1,-1v-3l1,-3v-2l1,-2v-1h-1l-1,-3v-1l-1,-2v-4l-1,-1v-1l-1,-1l-1,-2v-1l-2,-2v-1l-4,-4l-1,-3l-2,-2l-2,-3v-2l-1,-1v-2l-1,-1l-1,-2v-4l-1,-1l1,-1l-1,-1h1v-1l1,-2v-1l-1,-3v-3l-1,-2v-3l-1,-1v-5l-2,-3v-1l1,-1l-1,-2l-1,-7v-3l-1,-1v-5l-1,-1v-4l-1,-2v-1l-1,-2v-1l-1,-1l-1,-4v-3l-1,-2v-1l-6,-7l-1,-1v-1l1,-1v1h1v-4l-1,-3v-2l-1,-1v-1l1,-3v-1l6,-6h1v-1h1v-1l1,-2v-3l-1,1v-2l-2,2h-1l-1,-3h-1l-1,-1v-1h1v-2l1,-1l-1,-1v-6h1l1,-1v-2l1,1h1l-2,-2v-1l2,-2l1,-2v-5l1,-1h1l1,-1h4v-3l-1,-1v-1h1l1,1v-6h3l1,-1v-1v1v-1h1v-2h1v-2h1v-2l1,-2h-1v-2l-1,1v-3h-1h1v-9h-1v-2l1,-1l-2,-4v-1h1v-2l-1,-1l-1,-2v-1l-2,-2v-2h1v-1h1v1v-1l1,-1v-3l-1,-1v-2h-1l1,-1l1,1v1l2,2v2h1l-1,-3v-2h-1h1l1,-1l2,-4l1,-1l1,1v-7l-1,1v-1l1,-1v-2h1v-1l1,-2l3,2h-1v1h1v1v-2l1,-1v-2l1,1h1l2,1l2,-3h2v-3h1l1,-1h1l1,1l1,2v3h-3v2l1,2h1v3l1,1v3l-1,1v3l1,1v2l1,1v2h1v1h2v-6l-1,-2l-1,-1v-1l-1,-2v-1l-1,-1l1,-1l-1,-1h1l2,-1h3v-1l1,1v-2h-2v-4h1v1l1,2v1l1,1v1h2l4,4v1l1,1v2l1,1v1l1,1h4l3,1l1,1v1l1,2h1l1,1v1l1,1h1l2,-2l2,1v-1h-1l-1,-1v-1l1,1h3v1h1l2,1h1v1h-1l-1,-1h-1v1l1,1v3h1v-1l1,2v1h1v-1h-1h1v1h1v1h1l1,2v1l2,2v2h-1l1,1v2l-1,1h-1h1v2l1,-1h1l1,1v-1l2,2v1l2,2l1,2l1,3l2,4v5h2v1l1,2v1l1,1v1l1,1v3l1,-1l1,2h1l1,2v1v-2h2v1l2,2v1l1,1v2v-2l1,2l1,1v1l2,4v2l1,2v1h1v3l1,1v1l1,4v6l1,3v7l1,1v2h1v5h-1v5l-1,1v2h-1v3l-1,2v5h-1v-1l-1,1l1,1v1h1v-2h1v-1l1,-1v8l1,2v-1l1,1h1l-1,1v4l1,-4l1,-2v1v-5l1,-1v-1v1v-1v1h1v1v-1v1h1v5h1v7l1,-1v-1v13l1,-1v-1v1v-1l1,1v7l1,1v18l-1,2v10l-1,1v8l-1,1v8l-1,1v5l-1,1v5l-1,1v6h-1v5l-1,1v3l-1,1v1v-1v3l-1,4l-1,2v1l-1,2l1,-1v-1l-1,1v3l-1,1v3l-1,2v1v-1l-1,5l-1,3l-1,2v3l-1,2v1l-1,2l-1,3v2l-1,2v1l-1,1l-1,3v1l-1,1v2l-2,3v1l-1,4l-1,1v2h-1v2l-1,2l-1,1v1l-1,1v1h-1v1l-1,1l-1,2v1l-1,3v1h-1l-2,2v3h-1v-1h-1h1v-1h-1v1v-1h-1h1v-1h-1l-1,1v1h-1l-1,1v1h-1v-1l-2,2h-1l-1,2l-2,1l-1,1v1l-2,2h1l-1,-1v1h-1l1,-1l-1,1v1l-1,2v1l-1,2h-1v1l-1,1h-83Z"/>
<path class="sp" d="M998,545v4l-1,1v8l-1,1v8l-1,1v5l-1,1v5l-1,1v5M939,700h-83"/>
<path class="sl" d="M358,21v-1h1h-1v1l1,-1l-1,1h1v-1v1v-1v1h-1h1h-1h1l-1,1v-1h1h-1v1h-2l-1,1h-1h1h-1h2v-1h2l2,-1h1h-1v1v-1h4v1h-3l-1,1h-3l-1,1h-2l-1,1h-1h1h-2v1h-2v1h-3l-1,1v-1h1l-1,1h-1v-1h1h-1l1,-1h-1l-1,1h-2l1,-1h2l1,-1l-1,1h-2l-1,1h-2v1h-3l-1,1l-2,1h-1l-1,1h-3l-1,1h-1h1v-1l-1,1h-1h1h-2l-1,1h-2l-2,1h2v-1h2l1,-1v1h-1h1l1,-1h1h-1l-1,1h-1h1h-1v1h-2v1v-1v1h-1h1v-1l-1,1h-1v1h-1h1h-1l-1,1h-2l-1,1h-3l-1,1h-2v1l-3,1h-2l-1,1h-1l-1,1h-1l-1,1h-2l-1,1h-2v1h-2v1h-2v1h-2l-3,2h-2v1l-2,1h-1h1v-1h1h-1l-1,1h-2l-2,2l-3,1l-1,1h-1h1v-1h2l1,-1h1v-1v1h-1l-2,1l-1,1h-2v1h-1h1l1,-1h1l1,-1h1l1,-1h1l1,-1h1l1,-1h1l1,-1h1l1,-1h1l1,-1h1l1,-1h1l1,-1h1l1,-1h1l1,-1h1l1,-1h2l1,-1h1l1,-1h1l1,-1h2l2,-2h2l1,-1h2l1,-1h1l1,-1h1l1,-1h2l1,-1h1l1,-1h2l1,-1h2l1,-1h2l1,-1h2l1,-1h1l1,-1h2l1,-1h2l1,-1h2l1,-1h2l1,-1h2l1,-1h2l1,-1h3l1,-1h1ZM250,67h-1h2v-1l-1,1h-1v1h-2v1h-1l-1,1h-1v1h-1h1h-1l-2,2h-1l-1,1l2,-2h1h-1l-1,1h-1v1h-1l-2,2l-2,1h-1l-1,1h-1v1h-1l-3,3h-2l-3,3h-1l-1,1l-2,1l-1,1h-1v1h-1l-1,1l1,-1l-2,2h-1h1l2,-2h1l4,-4h2l3,-3h1l1,-1h1l2,-2h1l3,-3h2l3,-3h1l1,-1h1l1,-1h1l2,-2h1l1,-1h1Z"/>
<path class="sp" d="M269,57l1,-1h1l1,-1h1l1,-1h1l1,-1h1l1,-1h1l1,-1h1l1,-1h1l1,-1h1l1,-1h1l1,-1h1l1,-1h1l1,-1h1l1,-1h2l1,-1h1l1,-1h1l1,-1h2l2,-2h2l1,-1h2l1,-1h1l1,-1h1l1,-1h2l1,-1h1l1,-1h2l1,-1h2l1,-1h2l1,-1h2l1,-1h1l1,-1h2l1,-1h2l1,-1h2l1,-1h2l1,-1h2l1,-1h2l1,-1h3l1,-1h2M212,91h1l2,-2h1l4,-4h2l3,-3h1l1,-1h1l2,-2h1l3,-3h2l3,-3h1l1,-1h1l1,-1h1l2,-2h1l1,-1h1l1,-1"/>
<path class="sl" d="M941,360v2h-1v-1l-1,-1l1,1v-1ZM936,360l-1,-1h1ZM954,383v-1ZM60,582l1,3v-2h1v1l1,3v1l-1,1l-1,-1v-2l-2,-3v-2ZM65,592h1v1h1v1h1l-1,1v1h-1v-1l-1,-2v-1v1l-1,-1v-1h1ZM71,596v1l-1,-1v1h-1v-2l1,1ZM69,593h-1l-1,-1h1v-1l1,1ZM72,603l1,1v1h-1v-1ZM66,586h-1v-1l1,-1ZM68,590v-1l-1,-2v-1l1,3ZM66,584v1v-1l-1,-2h1v1ZM64,589v1l-1,-1ZM62,576v1h-1v-1l1,-1ZM61,574l-1,-1v-1h1v1ZM84,622v1ZM81,618v1l-1,-1v-1ZM79,613h-1l-1,-1v-1h1v1h1ZM34,417v1ZM11,420v1ZM23,413v-1ZM58,402l1,-1v-1v1ZM57,391h-1ZM67,388l1,1v-1v1h-1ZM66,388v1l1,-1l-1,1h-1v-1ZM18,366l1,-1h-1ZM18,368v-1ZM923,300h-1ZM923,301v-1ZM924,305h1v1ZM170,546h-1l1,-1h1h-1ZM917,298h1l-1,-1h1v1l2,2l-1,1v1v-1h-2l-1,-1h-2v-2l-1,-1v-1h2l2,1ZM921,301h-1ZM911,298v-1ZM476,34h-1h1v-1l1,1ZM476,35h-1v-1h2v1ZM470,29h-1ZM427,27l1,-1h1h-1ZM414,27h-1ZM398,27v1l1,-1ZM347,47v1l-1,-1ZM350,48h-1ZM350,47l-1,1v-1ZM316,57h1v-1v1ZM375,19h1ZM347,28h2v-1h1v1h2l1,-1l-1,1h-2l-1,1h-1h1h-1v-1h-1l-1,1h-1v-1h1ZM347,34h1h-1v1h-2l-1,1h-3v-1h4v-1h1ZM387,35h1v1h1h-3v1h-3v1h-2l-1,1h-1l1,-1h-1h1h-1v1h-1v-2h2l1,-1h1l-1,1h1v-1h1v-1h1v1h1l1,-1ZM333,50l-1,1h1h-1l-1,1h-3l-1,1h-2l1,-1l2,-1h2l1,-1h1ZM473,37v1h-2v-1h1ZM482,39h1h-2v-1h1ZM479,35v1h-3v-1h1l1,-1ZM484,37v1h-4v-1h1v-1h3ZM473,33h2v1h-1v-1h-1h1v1h-2v-1h-1h1ZM474,39l1,1v-1h1v1h-2l-1,-1h-1v-1h1ZM421,25h1v1h-2v-1ZM414,28v-1h2l1,-1h1l-1,1h-3ZM416,26h-1v1v-1ZM416,25h-1ZM384,38h-1v-1h2ZM391,33h-1h2ZM386,35h-1ZM369,43h-1ZM375,41h-1l1,-1h1ZM377,40h1ZM345,48l1,-1v1h-1v-1h1ZM334,52h-1ZM348,48h-1l-1,1v-1h2v-1h1h-1ZM319,55l-1,1v-1h2ZM320,55h1v-1v1ZM357,37l1,-1h1ZM326,38h1h-2ZM317,47h-1h2ZM298,63h-1ZM293,65l1,-1v1ZM285,67l-1,1l1,-1h1ZM316,49l1,-1v1ZM268,73v-1ZM270,71v1v-1h1ZM265,74h-2h2v-1h1h-1ZM252,77h-1l1,-1ZM251,78h-1ZM240,79h-1h1h-1h2ZM466,32h1v3h-2v-1h1h-1v-1l-1,1v-1h1h-1v-1l-1,1h-1v-1h1l1,-1h1v1ZM468,29h2l1,1h1v1h-1v-1h-1l1,1v1h-2l-1,1v-1l1,-1h-1v-2h-1ZM464,29v1h-1h2v1h1h-3v1h-1v-1h-2v-1h-1h2v-1v1h1v-1h1ZM472,35h2v1h3v1h1h-2v1l1,-1l1,1h1v2h-2v-1h-3v-1h-1h1v-1h-3l1,-1v1l1,-1h-1ZM470,33h1v2h-1v1h-1v-1l1,-1h-2l1,-1ZM391,33h1v1h-3l-1,1h-2l1,-1h2v-1h1Z"/>
<path class="sl" d="M307,60h-1l-1,1h-2v1h-2v1v-1h1l1,-1h1v-1h2v-1h2ZM315,57h1v-1h1h-1l-1,1h1h-1l-1,1h-2v1h-3v1h-1v-1h3v-1h2v-1h1h-1h1l1,-1h1ZM280,69h1h-2ZM275,70l-2,1h1l1,-1h1l1,-1h1v-1h1v1h-1l-1,1ZM268,73h-1h1h-1l-1,1h-1l1,-1h1l1,-1ZM262,75h-1l1,-1h1v-1v1h1h-2ZM255,76l1,-1ZM248,78h-1l1,-1h1ZM241,77h1l-1,1h-1ZM279,252v1l-2,-1l1,-2l-1,-2v-1l2,-2v-2l2,1h3v2h1v1h1v1h-1l-1,1l-4,2ZM271,237h3l-1,1h-3ZM276,239l1,-1l1,1h1v1h-1l-1,1h-2l1,-1l-1,-1v1l-1,-1l1,-1ZM267,236h1v1h-3l-1,-1v-1h1l1,-1l1,1ZM257,234h-3v-1l1,-1h3l-1,1ZM251,235l1,-1v1ZM273,240h-1v-1h1ZM810,134h2l-1,1h-4v-1h-1v-1h2l1,1h1v-1ZM808,120l-1,-1h1ZM806,135l-1,-1h1ZM816,134h-1v-1v1ZM812,132v1ZM818,135h-1v-1ZM820,161l-1,-1ZM823,165h-1h1l-1,-1v-1l-1,-1l1,1v1ZM822,165h-1ZM821,168v-1ZM821,216h-1l-1,-1l1,1ZM820,215v1v-1l-1,-1ZM833,227v1v-2ZM756,185h-1l-1,-1h2ZM726,191v-2l1,1h-1ZM727,189l1,-1h1l-1,1ZM725,195v-3l1,-1l-1,2ZM736,184l1,-1v1ZM728,203l-1,-2l-1,-3l-1,-2v-1l1,3l2,4ZM554,139h-1ZM561,145h-1v-1h1ZM569,147h-1l-1,-1l1,1ZM556,140h-1l-1,-1h1ZM557,139l1,1l1,-1v1h-2ZM568,144h1h-2v-1ZM529,63h-1v1v-1h-1h1ZM527,64h1h-1v-1ZM530,66h2l-1,1v-1h-1l-1,-1h1h-1h1ZM810,140v-1ZM813,149l-1,-1v-1l1,1ZM821,167h-1ZM829,230v-1ZM832,229h-1ZM831,230h-1v-1h1ZM810,186l1,1h-1ZM828,230v-1ZM828,212v1l-1,-1l-2,-4v1h1ZM773,186h-1ZM773,183h-1ZM776,183h-1ZM770,183v1l-1,-1ZM773,186l-1,-1v-1v1ZM796,191h-1h1v-1ZM529,70v-1ZM532,69h-1v-1v1ZM531,68h-1h1v-1ZM529,64h-1ZM808,120h-1ZM930,304h-1ZM842,269h1v1h-1l-1,-1ZM849,268h-1ZM849,268h1ZM877,198h-1h1h-1ZM924,298h-1ZM885,264v-1h-1h1ZM884,263v-1h-1h1ZM882,262l1,1h-1ZM936,317v1ZM952,365h-1v-1h1ZM952,373l-2,-1h-1l1,-1v-3l-1,-1h3l-1,1l1,1v3ZM157,609v1h-1v-1ZM158,587h-1l1,-1ZM158,610l1,2l-1,-1ZM28,541v-1ZM55,555v1l-1,-1ZM51,549h-1v1v-2h1ZM35,567v1v-1h-1v-1h-1v-1h1ZM35,547v1h-1v-3ZM28,547h-1v-1h1ZM30,544h1v1h-1ZM23,542v1l1,1v1v-1h-1v-1h-1v1v-4h1ZM25,546v-1ZM25,545l-1,1v-1ZM23,547l-1,-1v-1l1,-1v2ZM20,541v-2l1,1ZM21,543v1l-1,-1v-1v1ZM22,542h-1v-2h1v1ZM18,536h-1v-1h1ZM24,547h-1v-1h1ZM29,547l1,1l1,-1l1,1v1h1v2h-3v-1h-1v-2ZM29,541l-4,-4v-1l-1,-1h1v1h1v1h1l1,2v1h1Z"/>
<path class="sl" d="M22,535v1l-2,-2l-1,-2v-1l2,2v2ZM31,537l1,2v2l1,1v2l1,1v2l-1,-1v-1l-1,-1v-1l-1,-3v-1l-1,-1h1ZM36,553l1,1v-1v1l1,-1v2l1,1h-2l-1,-1v-2h-1v1v-2ZM159,540l1,1v2h-2l-1,-1h-1v-1h2ZM165,544l-2,1l-1,-1h-1v-1h3ZM947,348l-1,-1v-1h1v1ZM946,343l1,1l-1,-1v-2ZM934,314v-1h-1h1ZM933,313v-1l-1,-1l1,1ZM377,15l-1,1h-1h1Z"/>
<path class="sp" d="M374,16h2l1,-1"/>
<path class="sl" d="M239,75l1,-1v1ZM257,63h1l2,-2h1l1,-1h1h-1l-1,1h-1l-1,1ZM238,75l-1,1v-1h2v-1h1h-1ZM10,521v1v-6l-1,-1v-3h-1v-1l-1,-1v-2h-1v-1h1v1l1,1v2h1v1l1,3v5ZM9,519v2l1,1v1l-1,1v3h1v1l-1,1v6h-1v4l-1,1v-1h-1v-1h-1v-3h1v-1v1v-2h1v-2l1,1v-7l1,-1l-1,-1v-4ZM1,525v3l1,1v3l1,3v5h1v2l1,-1v3l1,1v2l-1,1v2l1,2v3l1,1v1l1,1v4h1v3h1v-1v3l1,1h1v3h1v1l1,-1l-1,1v1l1,1v2h-1v-2h-1l-1,1v-1v1h-1v-1l-1,-1v-2h-1v-3l-1,-2v-2l-1,-1v-2h-1v-1v1h-1h1v9h1v7l1,1h-1v2h1h-1v-6l-1,-1v-5l-1,-2v-6l-1,-1v-8l-1,-1v-11l-1,-1v-12Z"/>
<path class="sp" d="M3,552v-1l-1,-1v-11l-1,-1v-13"/>
<path class="sl" d="M5,539v-1ZM3,533v1v-2ZM9,508v-1ZM8,507v-1ZM4,499l1,1h-1v-2ZM13,569h1v1h-1v-2ZM12,566l-1,-1v-1l1,1ZM12,558v1v-2h-1v-1l1,1ZM21,575h-1v-1ZM6,570l-1,-1h1ZM4,537v-1ZM2,508v-1v2ZM6,508h-1v-2h1v1ZM12,564v1v-1v1l1,1v1v-1l-1,1v-2ZM14,557h1v1h-1ZM19,577h1v1h-1v-1v1v-2ZM6,571v-1h-1h1ZM3,509v1ZM8,506v-1ZM14,574v1ZM11,514v-1ZM18,532v1h-1v1l-1,-1v-3h-1v-2l-1,-1v-3h1v2l1,1v1l1,1v2ZM14,524v-3h-1v-1h1v3ZM873,361l-1,-1v-1h1v1ZM858,365h-1v-1l-1,-1v-1h1v2h1ZM852,347h-1ZM872,361l-1,-1h1ZM178,781v-3h1v1l1,1v1v-2h-1v-1h1v1h1v1h-1h1v-1v1h1l-1,1h1v1l1,1h1v3l1,1v3l1,2v4h1v1h1v1h2v1h1l-1,1l-1,-1v1h-1v-1v1h-1l-1,-1l2,2l-1,1v2l1,2l1,1v1l2,2v1l1,1v1l1,1v1h1v4l1,2l-1,1h-2v1h-1v-1h-2l-1,-1h-1v1h-2l-1,-2v1v-1h-1v1l-1,-1l1,-1h-1v-1h-1v-1l-1,-1l1,1h1l-2,-2v-1h-1v-2l1,1l-1,-1v-2h-1v-6h1h-1v-2h1v-1l-1,-1h1h-1v-2h1h-1v-1h1h-1v-1h1h-1v-2l1,1v-1h-1l-1,-2h1h-1v-1l-1,-1v-1l-1,-1v-4l-2,-4l-1,-1v-3h1v2h1l1,1h1v1l1,1ZM178,778v-1ZM182,819h-1l1,-1ZM180,815l1,1h-1ZM192,825h1h-1h1v1v-1l1,1v1h-1v1v-1h-1v-1l-1,-1v-1ZM163,742v1v-1h-1v-1h1ZM149,735v-1v1h4v1l1,1v-1h1v1l1,1v1h1v2h1l3,3v1l1,1v1h1v1v-1h1l1,1h1v1h1v-1l-2,-2v-1h-1v-1l2,1v1h1v1l4,4v1h3l1,1h3v-4l2,-1v1h1v1l1,1l2,4v2h-1l1,1v2h1v1l-1,-1h-1v1h-1v2l1,1v1h1l1,2v2l1,1v4l1,1v6h-1v-1h-2v-1h-1h1l-1,1v-1l-1,-1v-2l-1,-2v-1l-1,-1v-1h-1l-2,-2h-2l-1,-1h-2l-1,-1h-1v-3h1v-2l-1,-2l-1,-1v-1l-1,-1v-1l-1,-1v-1h1l-2,-2h-1v-1h-1l-1,-2l1,1v-1l-1,-1v1h-1v-1l-2,-2v-1h-1v-2h-1v1l-1,-1l1,1v1l-1,-1v-1l-5,-4v-2l-1,1l1,1h-1v-1h-1v-1h-1v-1l-4,-4l1,-1v2h1l1,1ZM229,858v1h-1v-1ZM211,851l1,1h-1v-1v1l-1,-1v-1h-1h1v1ZM230,787v1l-1,-1v1l1,1h1l-1,1l-1,-1v-1h-1v-1ZM232,791v-1ZM184,585l-1,1v-2ZM253,593h-1ZM921,345v-2h-1l1,1ZM932,310h-1ZM930,309v-1ZM913,340h1h-1v-1ZM919,344v1l-1,-2l-1,-1v-1v1l1,1ZM807,255h-1v-2h1v1ZM669,228l-1,1v-1l-1,-1h1v1ZM637,247l-1,-1h1ZM634,202h-1v-1h1ZM610,173h-1l-2,-2v-1h1v1h2v1ZM596,179l-1,-1v-1h1v1ZM617,174v1h-2v-3h2v1ZM572,172l-1,-1v-1h1v1ZM806,248v1ZM779,262h-1h2ZM641,208h-1v-1ZM596,155h-1ZM629,194v1v-1l-1,1v-1ZM626,205v1l-3,-2h2ZM623,204l-2,-2v-1l1,-2v4h1ZM71,419v1h-1ZM71,430h-1v-1v1Z"/>
<path class="sl" d="M71,431v-1ZM71,437v1l-1,1l1,-1v-1h-1ZM77,450v-1ZM79,453v1h-1v-1ZM157,450v-1l1,1ZM137,467v1ZM272,441v-1ZM301,502h-1ZM266,455h-1ZM253,392l2,1h-2l-1,-1h1v-1h-1h2ZM239,376v1h-1ZM154,447v1v-1h-1ZM866,281l1,1h1l1,1v1l2,1l2,2h-2l-1,-1h-2v1h-1v-1h-1l-2,-2h-1l-1,-2h-1v-2h2l2,1ZM3,552v7l1,1v6l1,2v5l1,1v1v-1l-1,-1v-5l-1,-1v-8l-1,-1v-5Z"/>
<path class="sp" d="M6,576v-2l-1,-1v-5l-1,-1v-8l-1,-1v-6"/>
<path class="sl" d="M817,286h-1h1v-1l1,1ZM820,286v-1ZM890,279v1l1,1v2h1v3h1v1h-1v1l1,1v1l1,1v1l-2,-2h-3l-2,-1l-1,-1h-2v1l-3,-3h-1v-2h2v1h2v1l4,1v1h1v-1h1l-1,-1l-1,-2l-1,-1v-3l-1,-1l-2,-1h-1v-1h-1v-1h3l2,2h1l1,1ZM888,285v1l-2,-1l-1,-2h1l1,1ZM885,276h1h-1l-1,-1h1ZM947,356v-1ZM945,337v1v-1h-1l1,-1h-1l-1,-2h1v1h1v1ZM940,323l-1,-1v-1l2,2ZM940,324h-1v-1l-1,-2h1v1ZM941,326v-1ZM824,121v-1l-1,-1l1,1ZM136,544v-1ZM127,555h-1ZM307,547v-1v1h1ZM321,554h-1v-1h1ZM308,549l-1,-1h1ZM325,554l1,1v1h-1v-1h-2v-1h-1l1,-1h1ZM404,480h1v1h-2v-1ZM404,482l-1,1v-1ZM407,487v-1ZM395,473l-1,1h-1v-2h2ZM395,478l-1,-1h1ZM393,551v1h-1v-1h1v-1h1l-1,1h-1ZM399,473h-1ZM394,556h-1ZM393,554v1l-1,-1v-1h-1h1v1ZM430,556h-1v-1h-1h1v1ZM424,554v1l-1,-1ZM413,577v-1h-1h1ZM378,537v-1ZM371,542h-1ZM370,542h-1ZM357,536h-1v-1ZM354,540v1l-1,-1v-1v1ZM65,632h2l4,4v1h1v1h1l1,1l2,1l4,4v1h-2v-1h-2v-1h-1v-1h-1l-1,-1h-1l-1,-2h-1l-4,-4v-1l-1,-1v-1h-1v-1ZM83,646h-1ZM51,631l-1,-1v-1v1ZM81,636l1,1h-1l-1,-1v-1h1ZM74,632v-1h-1v-1l1,1ZM78,634h-1l-1,-1v-2l1,1v1h1ZM120,574v2l-1,1v2l1,-1v-1h1v2h-2v1h-1v-1h-1v2h-1v1h-1v-1h-1v-1h1v-2h1v-1h1l1,-1v-1h1v-1ZM114,586v1h1l1,1v1l1,1v1l1,1h-1v1l-1,-1v1l-1,1h-4v-1l-1,-1h1v-2h-1l1,-1v-1l1,-1h1v-1ZM122,580v-1ZM122,580v1h-1v-1l1,-1ZM119,600h-1v1h-1v1h-1l1,-1v-1h1v-1ZM129,588v-1ZM131,589v1v-1h-1ZM133,586v1l-1,-1ZM128,582v-1h-1h1ZM109,586h-1v-1h1ZM120,585l-1,-1h1ZM121,591l-1,-1h1ZM118,589h-1v-1h1ZM121,576v1ZM121,573l-1,1v-1ZM121,577v-1ZM100,547h-1v-1h1ZM108,628h-1ZM869,454h-1v-2h1v-1l1,1v1h-1ZM876,420v-1ZM804,422l-2,-1l1,-1h1l1,1v1ZM810,425h-1v-1l1,-1h1v1ZM796,418v1l-1,-1v-1h1ZM803,427v-1l1,1ZM797,414l1,1v2l1,2l1,1h-1h1v1l1,1l-1,1l-2,1l-1,-1h-1v-2h1l1,-1v-2l-1,-1l-1,-2h-1v-1h1ZM802,418v1l-2,-2h2ZM894,292v-1l-1,-1v-1l-1,-1v-1h1v-1h-1v-3h-1v-2l-1,-1v-2h1l1,1h2v1h1l2,2h1l1,1v1l1,1l2,1h1v1h-1l-1,-1v1h1v1h1l1,1h1l1,1l1,2h1v3h-1v-1h-1l-1,-1h-2v-1h-2v1h-1l-2,-2l-1,1v4l-1,-1h-1v-2h-1ZM942,331v-2l-1,-1v-1v1h1v2ZM830,240l2,1h2v1h3l1,1h1v1h2l4,4h1v1h3v1l4,2l1,2h1l2,2v-1h-1h1l2,2v1v-1h-1l1,1h1l1,1v1h1l1,1h1l1,1h1l1,1h1v1h1v1h-1v1h2l1,1l2,1l1,1l2,1v1h1l1,1v1h-4l-1,-1v1h-1l-1,-1h-1l-2,-1h-4l-1,-1h-2v-2l1,-1v-2h-1v-1h-2l-1,-1h-2l-1,-2h-1v-1l-1,-2l-1,-1v-1h-1v-1h-3l-4,-2l-1,-1h-1v-1l-2,-2v1l-2,-1h-1v-1h-1v-1v1h-1l-2,-1l-2,-2h2l-1,-1h-1v-1l-5,-1v1h-1v1l-1,1h-3v1h-2v1h-1v-1h-2l1,-1h2l-1,-1v-2l1,-1l4,-1h3l1,-1h2Z"/>
<path class="sl" d="M856,254h-1l-1,-1h1ZM853,251h-1v-1h-1h1ZM849,248l1,1h1v1v-1h-2ZM854,253l-1,-1v-1v1h1ZM830,251h-3v-1h-1h2l-2,-1v-1h2l2,2ZM845,247l-1,-1h-1v-1h1ZM881,410l-1,-1h1ZM641,633l-1,1v-1h2ZM475,42h2v1l-2,1h2v-1h1v-1h2v1h-1v1h-1v1h-2l-1,-1h-2v-2h1ZM479,45l1,1l-1,1l-1,-1v1h2v1h1v1h-1v-1h-1l-2,-1h-1v-1h-1h2l1,-1ZM503,55h3l3,1h4v1h1v1h1l2,2h2l1,1h3v1l2,2v-1v1h1h-1v1h-1l-2,-1h-2l-2,-1h-3v-1h2v-1l-1,1h-4l-1,-1h1h-2v-1h-3v-1h1h-1v-1h-4v-1h-3v-1h-1h2v-1h1h-3v1l-1,-1h-1v-1h3ZM522,0l1,1h-1v-1v1h1h-3v-1h-3v1v-1v1h-1v-1h-1h6Z"/>
<path class="sp" d="M520,0h2"/>
<path class="sl" d="M540,2h1h-10v-1l2,1h1v-1h-1h3v1h2v-1h-1h1l1,1ZM534,3h8v1v-1h1v1h1v-1h1h-1h3v1h5v1h1v-1h-3l-1,-1h-1h1h-1h2l1,1h6l1,1h4l1,1h2l2,1h4l1,1h5l1,1h-2l-1,-1h-1v1h-1v-1h-1l1,1h5v1h-3l-1,-1h-6l-1,-1h-22l-1,-1h-2l-1,-1h-9v-1h10l2,1h2l-1,-1h-14l-2,-1h-1h1h-3v-1h1h-3v-1h10l1,1ZM519,1h6l1,1h1h-5v1h-17v-1h3v-1h1h9ZM571,5h3v1v-1h-7v-1h-1h1h-1h1l1,1h2Z"/>
<path class="sp" d="M567,4l1,1h3"/>
<path class="sl" d="M564,4l3,1h5v1h1h-1h5v1h1h-1h1h-4l-2,-1h-5l-1,-1h-1h1h-3v-1l1,1h1h-1v-1h-1h1l1,1h-1ZM642,24h1h-1v-1l1,1h2l1,1h3v1h3l1,1h2l2,1l1,1h3l1,1h1h-2l-2,-1h-2l-1,-1h-2v-1h-1v2h1h-2l-1,-1l-2,-1h-4l-1,-1h1h-1v-1h-2v-1h-2l-2,-1v-1h-1h2v1h2ZM553,3h6l1,1h1h-2l-1,-1h-1h1l1,1l-1,-1h-6Z"/>
<path class="sp" d="M555,3h4l1,1h1M551,3h2"/>
<path class="sl" d="M582,7h-1l-1,-1h-1l1,1h1ZM579,6h-1Z"/>
<path class="sp" d="M579,6l1,1h2M575,6h4"/>
<path class="sl" d="M577,6h3v1h5v1h1l-2,-1h-1l1,1h1h-2l-1,-1h-4v-1h-2ZM588,10h2v1h4l1,1h1h-5v-1h-5l-1,-1h-1h3ZM819,120h1v1h1v-1h-1l-1,-1h1v1h1l2,2h-2v-1h-1v-1l-2,-1l-3,-3v-1h-1h1l3,3h1v1ZM807,117v-1v1h-1v-1h-1v-1h-1v-1h-1v-1h-1v-1h-1v-1h-1l-3,-3h-1v-1l-2,-2h-1l-1,-1h-2v-1h-1v1l1,1v1h1v1l2,2v1h1v1h1v1l-1,-1v1h1h-1l-1,-1v1l1,1l-2,-1h-1l-1,-1h-3l-2,-1h-1l-1,-1h1v-1h1h-1v-2h-1v-1h1v-1h2l1,-1l-1,-1v-1l-1,-1v-3h3l1,1l2,1h1l2,2h1h-1l1,1h1l1,1h-1l1,1h-1l-2,-2v1l-1,-1v1h1l2,1l1,1h2v1h1v1l1,1h1v1h1l3,3h1v1h1v1h1l1,1h1v1h1l1,1h1v1h2v1h1l1,1v-1l2,2h1v1h1l1,1v1l-1,-1v1h-1v1v-1h-1l-1,-1v1h1l-1,-1v1l2,2v1h-1l-1,-1h-1l-2,-2v-1l-1,-1h-1v-1v1v-3h1v1h1l1,1l-1,-1h1h-1l-1,-1h-1l-1,-1v1v-1h-1v-2h-1l-1,-1v1h1v2h-1l-1,-1h1v1h-1l-1,-1ZM796,97l1,1h1v1h1l1,1v1h1l1,1h1v1h1v1h1v1h1l-1,-1h-1h1l1,1h1v1h1v1h1v1h1l1,1h1v1v-1h-1h1h-1v-1v1h1v1v-1v1h1l2,2h1v1h1v1h1v1h2v1h1v1h1v1h1v1h1l-2,-1h1l3,3h1v1l2,1v1l1,1h1h-1l-5,-5h-1v-1l-1,-1h-1l1,1h1v1v-1h-1h1v1l1,1h1h-1l-2,-2v-1h-1l-1,-1l1,1h-1v-1l-4,-2l-1,-1h-1v-1v1v-1h-2v-1l-1,-1h-1v-1h-1v-1h-1l-1,-1h1h-1l-2,-2h1v1h1h-1v-1h-1l-1,-1h-1v-1l1,1l-3,-3h-1l-1,-2h-1l-1,-1h-1v-1l-1,-1h-1ZM595,9h2v1h4l1,1h3l1,1h4v1h1h-1l-1,-1h-3v-1h-1h1h-4l-1,-1h-1h1l1,1h4l1,1h4v1h4l1,1h3l1,1h3l1,1h3l1,1h3l1,1h2l1,1h3l1,1h3l1,1h1l1,1h3l1,1h2l1,1h2l1,1h2l1,1h3l1,1h1l1,1h2l1,1h2l1,1h2l1,1h1h-1h1l1,1h2v1v-1h-1l-1,-1h-1l1,1h2v1h3v1h2l1,1h2l1,1h-1h2l1,1l-1,-1l1,1h1l1,1h2v1v-1l1,1h1l1,1h1l1,1h2l1,1h1l-3,-1h-1l-1,-1h1v1h2l1,1h1l1,1h1h-1l2,1l-1,-1h-1l-1,-1h-1l-1,-1l1,1h-1v-1h-2v-1h-2l-1,-1h-2v-1h-1l1,1h1l-2,-1h-1h1l1,1h1l1,1h2l1,1h2l1,1h1v1h2l1,1h1l1,1h1h-1l-1,-1h-2v-1l-3,-1h-1l-1,-1h-2l-1,-1h-2v-1h-2l-1,-1h-2l-1,-1h-1l-1,-1h1v1v-1h-3v-1h-2l-1,-1h-2l-1,-1h-2v-1h-3v-1h-1h1v1l-1,-1h-3l-1,-1h-2l-1,-1h-2l-1,-1h1h-2v-1l1,1h2l1,1h2l1,1h1h-1l-1,-1h-1h2l1,1l-1,-1h-1l-1,-1h-3v-1h-2v-1h-1l-3,-1h-1l-1,-1h-2l-1,-1h-3v-1h-1h1h-3v-1h-4v-1h-1h1h-3v-1h-3l-1,-1h-3v-1h-4v-1h-1h1v1h1l-2,-1h-1h1v1l-2,-1h-2l-1,-1h-2l-2,-1h-4l-1,-1h-4l-1,-1h-2l-2,-1h-1h2v1h1l-1,-1h-4l-1,-1h-4v-1h-4v-1h-1h1l1,1h2Z"/>
<path class="sp" d="M598,10h3l1,1h4l1,1h3M610,12h1M613,13h2l1,1h3l1,1h3l1,1h3l1,1h3l1,1h2l1,1h3l1,1h3l1,1h1l1,1h3l1,1h2l1,1h2l1,1h2l1,1h3l1,1h1l1,1h2l1,1h2l1,1h2l1,1h1M592,9h3"/>
<path class="sl" d="M799,102h-1l-1,-1h-1l-1,-1l-2,-1h-1v-1h-1v-1l-3,-1h2l2,2h1l1,1l2,1l1,1h1ZM809,114h1l-1,-1l1,1h1v1h3v2h1v1h1h-1v-1h-1l-2,-2v1h1l-1,-1h-1l-1,-1h-1l-3,-3v-1v1l2,2h1ZM663,31l1,1v1l-1,-1h-2l-1,-1h2ZM673,34l1,1h1l1,1h1h-3v-1h-2v-1ZM646,22h2v1h3v1h1h-2v-1h-2l-2,-1h-1l-1,-1v1h1ZM721,67h-1l-1,-1h-3v-1h2l2,2ZM710,55h-1v-1ZM709,55h1v1l-1,-1v1l-1,-1v1v-1h-1v-1h-1v-1v1h1v1h1l-2,-2v1h2ZM706,54h-1ZM556,4h-3l-1,-1h1l1,1h3ZM552,3h1h-3v-1h-1l1,1h1ZM547,2h2h-3Z"/>
<path class="sp" d="M546,2h1"/>
<path class="sl" d="M520,1h-1h2ZM484,41v-1h1v1ZM482,50v-1h1ZM487,43h-2v-1h2ZM489,45h-2l-1,-1h3l1,1ZM486,40l1,-1h1l-1,1ZM496,46v2h-1v1v-2h-2v-2h2v1ZM510,60v1l-1,-1ZM520,60h1l-2,-1h-1h2ZM506,59h-1v-1h1ZM514,57l-1,-1h2v1ZM494,48h-1v-1h-1h2ZM499,52h-1v-1h1ZM497,48h-1h1h-1v-1h1ZM492,46h-1v-1ZM493,46h-1v-1h1ZM525,63h-1v-1h1ZM834,132h-1ZM809,112h1l-2,-2h1v1v-1v1ZM799,106h1l-1,-1ZM814,123h1h-1v-1ZM811,120l-1,-1ZM784,108h-1v-1h1ZM786,104l-1,-1h1ZM810,108h1ZM794,96v-1ZM810,108h1ZM824,120v-1h-1h1ZM705,44h1v1h1h-1v-1ZM714,49h-1v-1h-1h1v1ZM694,40h-1v-1h-2l-1,-1v1h3v1ZM713,48h-1l-1,-1h-1h2v1ZM709,46h1v1h1l-1,-1ZM720,53l-1,-1ZM721,52l-1,-1h-1h1ZM757,71h-1ZM745,65h1h-1v-1ZM700,50h-1v-1ZM705,53h-1v-1v1ZM721,66h1h-1v-1ZM730,72l-1,-1h1ZM525,62h-1l-1,-1ZM516,57h-1h1h-1ZM653,24h-2l-1,-1h-1h2l1,1h2ZM671,32v1h1h-1l-1,-1h-1h1ZM576,6h-1ZM568,5h-1ZM568,5h-1h2ZM607,13h1ZM607,13h-1ZM685,37h-1ZM647,22h-2v-1h-1h1v1h1ZM685,40h1ZM640,20h-1ZM674,33h-1l-2,-1l2,1ZM629,17h1h-1h1h-2ZM632,18h1ZM668,31h-1ZM641,22h1v1v-1ZM635,19h-1v-1h-1h1v1h2ZM638,20v-1h-1h1ZM611,13h1l1,1h-1v-1h-2ZM642,23h2v1v-1h-3l-1,-1h-1h2v1ZM625,18l-1,-1h-3v-1l1,1h3ZM641,23h-2v-1h-1h1l1,1ZM566,4h-1ZM572,5h-1ZM514,0h1ZM528,1h-1ZM552,3h-1ZM584,10l-1,1v-1h-1h1ZM583,10h1ZM577,8h-1ZM593,11h1h-2ZM579,9h-1ZM580,10h-1ZM573,10h-2v-1h1v1ZM565,11l-1,-1h1ZM560,9h1v1ZM566,11h1ZM466,6h-1ZM989,480h1v1l1,1v9l-1,1v-1v1l-1,-1v2l-1,-1h-1v-13l1,-1ZM957,681v-1ZM940,699v-1h1ZM953,685v1v-1l1,-1v1ZM996,513v-1ZM987,609v-1ZM986,612v-1ZM996,498v1v-2ZM989,476v2l-1,-1v-2h1ZM988,460v1v-1l-1,-1v-1h1v1ZM987,477v1v-2ZM990,479h-1v-1h1ZM988,476v1l-1,-1v-1l1,-1v-2v3ZM988,474v-2h1v1ZM985,486v-4l1,-2v5ZM805,272h-1v-1l1,-1v1ZM806,276v1v-2ZM952,351v-1ZM850,237v1h1v2h1v1h-1l-2,-2v-1l-1,-1h1ZM847,226l-1,-1v-3l-3,-3l-2,-1h2v1l1,1h1v1l2,2v1ZM881,266v2h-1l-2,-1v-1h2v-1ZM848,234v1h1v1h-1v1l-1,-1v-1h-1l-1,-1h1l-1,-1v-2l-1,-1h1l2,2v1ZM838,218l1,1h2v1l-1,-1l-1,1h-1l-1,-1h1ZM849,232h-1h2ZM872,253v1l-1,-1h-1v-1h1v1ZM866,243v1v-2ZM872,257v-1h1v-1l-1,-1h1v2ZM851,230l1,1h1l2,2l1,2v1l-1,-1v-2l-2,-2h-1v-1h-1v-1Z"/>
<path class="sl" d="M862,246l-1,-1ZM867,251h1l-2,-1l-1,-1v-2l-1,-1v1h1l1,2h1v1ZM862,241h-1v-1h-1l-1,-2v-1h-1h1l1,2ZM877,257h1v1h1h-1v-1ZM83,777v-1l-1,-1v-1l-1,-1v-1l-2,-2v-1l-3,-3v-1l-1,-1v-1l-2,-2v-1l-1,-1v-1l-1,-1v-1l-2,-2v-1l-1,-1v-1l-1,-1v-1l-1,-1v-1l-1,-1h-1v-1l-1,-1v-1l-1,-1v-1l-1,-1v-1l-1,-1v-1l-1,-1v-1l-1,-1v-1l-2,-2v-1l-1,-1v-1l-1,-1v-1l-1,-1v-1l-1,-1v-1l-1,-1v-1l-1,-1v-2l-1,-1v-1l-1,-1v-1l-1,-1v-1l-1,-1v-1l-1,-1v-1l-1,-1v-1l-1,-1v-2l-1,-1v-1l-1,-1v-1l-1,-1v-1l-1,-1v-2l-1,-1v-1l-1,-1v-2l-1,-1v-2l-1,-1v-1l-1,-1v-2l-1,-1v-1l-1,-1v-2l-1,-1v-1l-1,-1v-2l-1,-1v-2l-1,-1v-2l-1,-1v-2l-1,-1v-2l-1,-1v-2l-1,-1v-2l-1,-1v-2l-1,-1v-1v1l1,1v2l1,1v-1l-1,-1v-1l-1,-2v-2l-1,-3v-2l-1,-2v-1l-2,-4v-4l-1,-1v-2l-1,-3v-1l-1,-1v-2l-1,-1v-3l-1,-2v-4h-1v-3l-1,-3v-1v1v-2l-1,-2v-3l-1,-3v-1v1l1,1v3l1,2v1v2l1,1v3l1,1v1l1,2v4l1,1v2l1,1v1v-1l1,1v1l1,1v3l1,1v2l1,1v1l1,2v2l1,1v2h1v1l2,4v3l1,2v1l2,2v3h1v1h1v1v-1l1,1v1l1,1h1v1l1,1v1h1v3h1v1l1,1v1h1v2h1v2l1,2l1,1v1l1,1v-1v-1l-1,-1l2,2v-1v1l2,3v2l1,2h1v1h1v1l1,1h1v1l2,2v1h1v1l1,1v1l1,1h1v1l1,2l1,1v1h1l1,3l3,5v1l1,2l3,3v2l1,1l1,2l2,2v2l2,4l2,3v1l1,1l1,3l1,2l1,1v1l1,1l1,2l1,3l2,4l1,1v2h1h-1l1,1v2l1,1v1l1,1v1l1,1v1l1,1v1h1h-1v1h1v1l1,1v1l2,2v2h1v1h1v1l1,3l2,2v1l1,1l1,2l1,1l1,2l3,3v1l1,1v1l1,1v2l-1,1l1,1v1l3,6v1l1,1l-1,-1h1v1l1,1l-1,-1h-1h1v1l-2,-2h-1v-1l-1,-1l1,1v1l-1,-1v-1l-2,-2l1,2v1v-1v1h1v1l1,1l1,2v1h1h-2l-1,-1v1v-1h-1l1,1l-1,-1h-1l-5,-5v-1l-2,-2l-1,-2l-2,-1v-1l-3,-3v-1v1l2,2v1l-2,-2v-1l-2,-2l-2,-4h-1l-1,-1h1v1l1,1l1,2l2,3h1v2l-1,-2v-1h-1v-1l-2,-2v-1l-1,-1l-2,-3l-1,-1v-1l-2,-2v-1l-1,-1l-1,-2h-1v-1l1,1v1l1,1v1l1,1l1,2l2,2v1h1v2h1l2,4l1,1v1h1l1,1v1l-1,-1h1v1l-1,-1v-1h-1h1h-1v-1v1l-1,-2l-2,-2v-1l-2,-2v-1h-1v-1v-1h-1v-1Z"/>
<path class="sp" d="M83,776l-1,-1v-1l-1,-1v-1l-2,-2v-1l-3,-3v-1l-1,-1v-1l-2,-2v-1l-1,-1v-1l-1,-1v-1l-2,-2v-1l-1,-1v-1l-1,-1v-1l-1,-1v-1l-1,-1h-1v-1l-1,-1v-1l-1,-1v-1l-1,-1v-1l-1,-1v-1l-1,-1v-1l-1,-1v-1l-2,-2v-1l-1,-1v-1l-1,-1v-1l-1,-1v-1l-1,-1v-1l-1,-1v-1l-1,-1v-2l-1,-1v-1l-1,-1v-1l-1,-1v-1l-1,-1v-1l-1,-1v-1l-1,-1v-1l-1,-1v-2l-1,-1v-1l-1,-1v-1l-1,-1v-1l-1,-1v-2l-1,-1v-1l-1,-1v-2l-1,-1v-2l-1,-1v-1l-1,-1v-2l-1,-1v-1l-1,-1v-2l-1,-1v-1l-1,-1v-2l-1,-1v-2l-1,-1v-2l-1,-1v-2l-1,-1v-2l-1,-1v-2l-1,-1v-2l-1,-1v-2l-1,-1M84,778v-1"/>
<path class="sl" d="M58,694v1v-1l-2,-2v-2l-1,-1v-1l-1,-1v-1l1,1v1h1l1,4v2ZM21,644l1,1v1v-1l-1,-1v-1ZM95,792h1v2h1v1l1,1l-3,-3ZM109,798v1h-1v-1ZM109,800h1ZM34,658v-1ZM34,657v-1ZM47,680l1,1v1ZM42,671v1ZM41,671v1v-2ZM65,707l1,2ZM64,706v-1h-1v-1l1,1ZM9,591v-1ZM8,586v1ZM8,586v1v-2ZM26,646h1v1h-1ZM23,649v-1h-1h1ZM122,815h1v1h2v-1h-1h1h-1v-3h-1h1l-1,-1h1v1l1,1h1v1h1v1l4,4v1h1h-1v-1h-1h1v1l6,6v1l-1,-1v-1h-1l1,1h-1v-1v1h1v1l3,3v1h-1v1v-1h-1v-1h-1l-1,-1v-1h-1l-4,-4v-1h-1l-2,-2l-2,-1v-1l-1,-1h-1v-1l-2,-2ZM118,812v1l-1,-1v-1h-1v-1h-1v-1l1,1v1h1v1ZM118,804l1,1v1h1v1l-2,-2v1v-1l-1,-1ZM138,829l1,1l-2,-2ZM135,823v1l-1,-1ZM137,828v-1h-1h1ZM120,814h1h-1v-1ZM121,807v1h1v1v-1v1h-1v-1ZM122,809v1ZM223,881v1v-1l-1,-1ZM937,316h-1v-2l1,1ZM936,311v1l-1,-1v-1v1ZM609,925h1ZM700,924h-1h1v-1l-1,1h-2l-2,1h-2l-1,1h-1v-1v1h-2v1h-2v1h-1l-1,1h3v1h-3l-1,1l1,-1h-2v1v-1l1,-1h-2v1h-1l-1,1h-1l2,-1v-1h1h-3l-2,2h-1l-1,-1h1l-1,1h-2v1h-3l-1,1h-1l-1,1h-1v1h-1h1l-1,1h-1l-1,1h-1v1h2v-1h1l1,1h-3v1h-1l-3,3h-1l-1,1l-2,1v1h-2l-1,1h1l-1,1h-2v1h-1l-1,1h-1l-1,1h-1v1h-5v1h1l-1,1h-2l-2,2h-1h1l-1,1h-3v-1l-1,1h-1v1h-1l-1,1h-2v1h-1v-1l-1,1h1h-1l-1,1h-1v-1h-1l-1,1h-1l1,-1h-1l-1,1h-2v1h-3l-1,1h-17l-1,-1h-1l-1,-1h-4l-2,2v1h1l1,1h-1l-2,1h-4v-1h-1l-2,-1v-1h-2l1,2v1h-1v1h-4l-1,-1v-1l1,-1v-1l-1,1h-2v1l-1,1v1l-1,1h-1h3l3,1l-1,1h-6v1h2l-1,1h-2v1h-1h1v1h3v1l-1,1v2h1h-2v-1h-1l-1,1h1h-4l-1,1h4v1h-6l-1,1h-3v1h3l2,-1h10v1h1v1h-4v1h2l2,-1h10l-1,1h4v1h1h1v2h1l1,-1h1h-1h1l2,-2h3l1,-1h1h-1l1,-1h1l1,-1h3l1,-1h6l2,-1h3v1h8l1,1h-1v1h1h-1v1h1v-1h4l2,-1v1h-1h3l1,-1h3l1,-1h1l-1,1h1l1,-1h1l-1,1h1h-1h1l2,-1h3l1,-1h1h-1l-1,1h1l1,-1h1h-1l-1,1h-2l-3,1h3l1,-1h1h-1v1h-4v1h-1l-2,1h-3l-1,1h-2l-1,1h-3l-1,1h-3l-1,1h-3l-1,1h-4l-1,1h-2l-1,1h-4l-1,1h-5l-1,1h-4l-1,1h-5l-1,1h-5l-1,1h-5l-1,1h-6l-1,1h-6l-1,1h-9l-1,1h-10l-1,1h-15l-1,1h-44l-1,-1h-15l-1,-1h-11l-1,-1h-8l-1,-1h-7l-1,-1h-6l-1,-1h-5l-1,-1h-5l-1,-1h-4l-1,-1h-5l-1,-1h-3l-1,-1h-4l-1,-1h-4l-1,-1h-3l-1,-1h-3l-1,-1h-3l-1,-1h-3l-1,-1h-3l-1,-1h-2l-1,-1h-3l-1,-1h-2l-1,-1h-3l-1,-1h-2l-1,-1h-2l-1,-1h-2l-1,-1h-2l-1,-1h-2l-1,-1h-2l-1,-1h-2l-1,-1h-2l-1,-1h-1l-1,-1h-3l-1,-1h-1l-1,-1h-1l2,1v-1l1,1h1l1,1h2l1,1h1h-1l-1,-1h-2l-1,-1h-1l-1,-1h-1l-1,-1h-2v-1l1,1h2l1,1l-3,-1l-1,-1h-1l-2,-1h-1l-1,-1h-1l-1,-1h-1v-1v1h1l-1,-1l-2,-1h-1v-1l2,1h1l-1,-1l-2,-1l-3,-1h-1l-1,-1h-1v-1l-2,-2h1l1,1l-1,-1l-2,-1h1v-1h1l1,-1l1,1v-2h1v1l1,-1h-1v-1l1,1v-1l1,1h1l2,1l1,1h1v-1h-1v-1h1l2,1h2v1h2l1,-1h-1h1v-2l2,1h1l1,1l-1,-1l1,-1l1,1v-1h-1v-1h-2l-1,-1h1l2,1h3l1,1l1,-1h2v-1l1,1h6l1,1h2l2,1l4,1h2l-3,-1l-2,-1h4v-1h8l1,1v-1l1,1h4v-1l1,1h1l1,1h1h-1l1,1l2,1h1h-3v1h5v1h1l1,1h-2v1l-2,-1h-1l1,1h4v1h-1l1,1h1l1,1h-2l-1,-1l-2,-1v1h1l3,1h1v1h2l1,1h1h-1v1l-1,-1h-1h1l2,2l3,1v1h4l1,1h2l1,1h2l1,1h2l1,1h4l2,1h3l1,1h1v-1l1,1h5v1l-1,-1h-1v2h-2l2,1h1l1,1h2l1,1h4v1l1,1h2v-1h1v1h3l2,1h7v1h3l1,1h1v-1h6v1v-1h1l1,1h16l1,-1v1v-1h14v-1h1h-9l-1,-1h-5l-1,-1h-6v-1h1l2,1h2l1,-1h2l1,1v-1h1l1,1l1,-1h2v-1h-1h1l1,-1h-1l1,-1l-2,-1h-2v-1l-1,-1h-4l1,-1h4l4,-1v-1h-4v-1h-1l1,-1h2l-1,-1h-5l-1,-1h-7l-2,-1h-1v-1h1l1,-1h-8l-1,-1h-1v-1h-1v-1h3v-1h4l1,1h6l1,1h2v-1h1v-1h-2v-1h1l1,1h1l1,-1l1,1h1v-1h-1v-2h-9l1,-1h1v-1h1l2,1h2l-1,-1v-1h2l1,-1h2l1,-1h1l2,1h1l-1,-1h2l1,-1h1l3,-1h2l1,-1h2l1,-1l1,1h12l3,-1h8l1,1h5l6,-1h1v-1h1l1,1h6l2,-2h1l2,1h-1v2h-1l-1,1h6v-2l1,-1h1v1h1v2h-2l-2,1h1l2,1h4l1,1l1,-1l1,1l3,-1h5v1h2v1h6v-1h-1v-1h-1l2,-1h-2v-3h-1v-1h4v1h5v-1h-1l-1,-1h-3l-2,-1h-1l1,-1v-1h3v1h-1h1v1l1,-1l1,1h6l1,1h1v1h5v1h1l1,-1h2l1,1l2,1h1l1,-1h1l1,-1v1l1,-1v1l1,-1h2v1h-1l-1,1h-1h3l-1,1h4l-1,1l1,1h1v1h1v1h2l1,-1h1l1,-1h1v1l2,-2h1v2l-1,1h3v1h-1l-1,1h12l1,1h3l3,-1h3l6,-3h1l2,-2l2,-1l1,-1h1l2,-1l3,-3l2,-1l1,-1h1l1,1h1v-1h2v-1h2l2,-2h2v-1h1l1,-1h1l1,-1h1v-1h-1l2,-1h1l2,-1l-1,1h-1v1h1h-1h1l1,-1h1v-1h1l1,-1h1v1h1l2,-2h2v-1h1v1h1v-1h2v-1l1,1v-1h1v1v-1l1,-1h1l1,-1h1v1h1v-1h6l1,-1h2Z"/>
<path class="sp" d="M625,984h-1l-1,1h-3l-1,1h-3l-1,1h-4l-1,1h-2l-1,1h-4l-1,1h-5l-1,1h-4l-1,1h-5l-1,1h-5l-1,1h-5l-1,1h-6l-1,1h-6l-1,1h-9l-1,1h-10l-1,1h-15l-1,1h-44l-1,-1h-15l-1,-1h-11l-1,-1h-8l-1,-1h-7l-1,-1h-6l-1,-1h-5l-1,-1h-5l-1,-1h-4l-1,-1h-5l-1,-1h-3l-1,-1h-4l-1,-1h-4l-1,-1h-3l-1,-1h-3l-1,-1h-3l-1,-1h-3l-1,-1h-3l-1,-1h-2l-1,-1h-3l-1,-1h-2l-1,-1h-3l-1,-1h-2l-1,-1h-2l-1,-1h-2l-1,-1h-2l-1,-1h-2l-1,-1h-2l-1,-1h-2l-1,-1h-2l-1,-1h-1l-1,-1h-3l-1,-1h-1l-1,-1h-1M700,922v2"/>
<path class="sl" d="M596,977l-1,1h-3l-1,1h-5v1l-7,-1h-1l-2,-1l1,-1h5l1,-1l-1,1h4l2,-1h3l1,-1h4v-1h8v1h-1l-1,1h-2l-1,1h-1v-1h-1ZM578,975h-2l-1,1h-3v-1h1v-1v1h-1v-1l1,-1h1l2,1h1v1l1,-1h3v-1h1v1h-2v1h-1ZM650,937h-1h1l-2,1v1l-2,1l-3,3h-1l-2,2l-2,1l-3,1h-1l-1,1h-1l-1,1h-7l-1,-1v-1h2l1,1h1v-1h3v-1h-1v-1h1h-1l-2,1v-1h-2v1h-2l1,-1h-1v-1h2v-1h1v1h1v-1h1v1h1v-1h1l1,1h1v-1l1,-1l1,1h4l-1,1h1l1,-1h-1v-1l1,-1h3v1l1,-1v-1h-2v-1h1v-1h1l1,-1h2v-1l1,-1h5v1h-1ZM577,936h-1v1l1,-1h1l-1,1h1l1,-1h3l-2,1h-2v1h1l2,-1h1l-2,2h-5l-1,-1h-2l-1,-1h-1l-3,-1h-1v-1h6v1h2l1,-1h2ZM518,940v1h-2v1h-5l1,-1v-1h-1v-1h3l1,1h2ZM504,937v1h1v1h1h-1v1h2v-1h1l1,1v2l-1,-1h-3v-1h-2v-1h-2v-1l1,-1v1v-1h1ZM454,965h-8v-1h-2l-1,-1v-1h2l1,1h4l1,1h2ZM400,967h2l1,-1l1,1l-1,1h1h-3v-1h-2ZM588,983h1h-1v1h-2l1,-1h2ZM592,981h1v-1h1v1h-1ZM575,970h1v-1h3l2,-1h6l-1,1h-4l-2,1h-4v1ZM695,921l-1,1h1h-4l1,-1h2l1,-1h1v1ZM696,922h-1h1v-1h2v-1h1v1h-2v1ZM666,931h-3v1v-1l-1,1v-1h1v-1h1l2,-1h2l1,-1h1l1,-1h1v1h-2l-2,2h-2ZM634,940v1h-7v-1h6ZM638,936v1h-1l-1,1h-1l-1,-1h1v-1h2ZM617,949l-1,1h-2l-1,1v-2h1v-1h1v1h1v-1h2v1ZM586,943h-1l2,-1l1,-1h1v1h-1l-1,1ZM407,969h1h-1l1,1h-1l-1,-1h1h-1ZM641,979h1ZM637,981h1l1,-1h-1v1ZM576,973v-1h1l1,-1h1v1h-1l-1,1ZM580,971h-1v-1h2ZM658,943l1,-1l2,-1h1l-1,1h-1v1h-1ZM643,938v-1h-1l1,-1h1v1ZM581,940h-1l2,-1v1ZM557,939v1h-1v-1l1,-1ZM520,941h-1v-1h2v1ZM501,943h-1l-1,-1h2ZM466,975h-1l-1,-1h-1h3ZM460,970h-1ZM378,961h-1ZM383,964h1ZM375,955h-1l-1,-1h1v1ZM324,936h-2v-1h-1h2v1ZM316,934h1h-2ZM313,933v1l-1,-1h-1ZM632,982h1ZM635,982h-1v-1h1ZM633,978h-2v1h-1l1,-1h3ZM638,978h1ZM638,979h2v-1v1h-1ZM589,982h1v1ZM657,945v-1h1ZM667,941v-1ZM652,948v-1h1ZM650,949v-1h1h-1ZM700,920h-1Z"/>
<path class="sp" d="M700,920v0"/>
<path class="sl" d="M692,923h-1h1l1,-1ZM681,925h-1h1v-1h2l-1,1ZM677,926l-1,1v-1h2ZM671,929h-1l1,-1h1ZM665,932h-1h2ZM640,940h1h-1v1h-1ZM616,950h-1h1l1,-1h1v1h-1ZM526,942h-1v-1l2,-1l1,1h-1v1ZM489,942v1l-1,-1ZM492,943h-2v-1h3v1ZM461,952h-1ZM463,949l-1,-1h-1h2ZM464,953l-1,1v-1h-1h1ZM460,954h-1ZM458,953h1ZM460,955h1h-2ZM456,953h-1ZM461,951h-1v-1h1ZM462,952v1v-1h-1ZM458,955h-2ZM462,965h-2l-1,-1h-1h1l2,1ZM459,954h-1ZM465,971h-1ZM930,305v1Z"/>
<path class="sh" d="M496,605h-1Z"/>
<path class="sw" d="M760,115v1h1v1h3v1v-1h1v-1l1,1v-2h2l1,1h2l1,1h-1v-1h-1h5v-1h-1h1v1h1v2l-1,1h-2l-1,1h-2v1h-4l-1,-1h-1h1h-1l-1,-1h-1v-1h-1l-1,-1h1l-1,-1ZM775,116v-1ZM764,119v-1ZM665,64v1h1h-1l-1,-1v1h1v1h-1v-1h-1l-2,-2v-1h1h-2v-2h-2l1,1h-1v-1h-1v-1h-1v-1h-1v1v-1h-1v1h-1v-1h-1l-1,-1h-1l-1,-1h-1l-1,-1h-1v-1h1h-3l-1,-1v-2h-1h3l2,1l-1,-1h-1v-1h-1v-1h1l1,1h-1l1,1v-1l1,1v-1v1h-1h1l2,2h1l1,1h1v1h1v1h1l1,1h1l1,1v1h2v1h1h-1h1l2,2h2l-1,1h1v1ZM652,57l-1,-1v1ZM662,63v-1v1h-1ZM573,19l1,1h-2l-1,-1h-3l3,1h-6v1h1h-2v1h-5v1h-10l-1,-1h-5v-1h-1h1l1,1h2v-1h1v1h3l-1,-1h1v-1h1v1h2l1,-1h-3v-1h-3v-1h-1h1l2,1h4l1,1h9v-1h8ZM565,21v-1h-1v1h-2v1h1v-1h1ZM781,111v2h1v1h1v1h1v1l-1,-1v1h-4v-1h-1l-1,-1h-6l-1,-1v-1h1v-1h4l1,1v-1v1h2v1h1v-1h-1v-1h-1h1v1h1v-1v1h1v-1ZM781,113h1ZM534,10h1v1h-1h1h-1h1v1h-3v-1h-3l-1,1h1h-1l-1,1h-2v-1h-3v1h-1l-2,-1h-1v-1h4l-1,-1h-4l-1,1v-1h-5v1v-1v1h-1v-1h-1h11l1,-1h9l-1,1h-1h7ZM760,116v-2h1v1h2v1h-1l-1,-1h-1ZM827,215v1h-1v-1h-1v-1h-1v-1h1v-1l1,1v1h1ZM834,328v1l1,1h-3l-2,-2h-1v-1h-1v-2h-1v-3l-1,-1v-1h1v1h1l5,5v1ZM909,583h-1v-1h1v-1h-1v-2h-1v1v-3h1v1v-3h1v-1v1h1v3h1v3l1,1l-1,1v1h1v1h-1v1h-1v1v-3h1v-1l-1,-1v2h-1ZM643,53h-4l-1,-1h-2v-1h-1h1h-1h2l-1,-1h-1v-1l1,1v-1h-1h1l1,1h1v1h-1h2v1h3v1ZM603,102v1h-1v1h-2v-1h-1l-4,-4h2v1h2v1h1l-1,-1h3v1h-1l-1,-1v1h1v1h1ZM602,103l-1,-1v1ZM738,96h-1v1h1l-1,1l2,2h-1v-1v1v-1h-1v-1h-1v3h1v2l1,1v1l2,1l2,2v1h1v1l1,1v1h1v2l-1,1h-3v-1h-1l-1,-1v-1h-1v-1h-1v-1l-1,-1v-1h-1v-1h-1v-1h-1v-2l-1,-1v-1h-1l1,-1h-1v-1l-1,-1v-1h-1v1h-1l-1,-1v-1h1l-1,-1h1l-1,-1v-1h1l-1,-1l1,1h1h-1h1l1,1v-1h3v-1l1,1h2l1,1h1ZM735,95h-1l1,1ZM730,96h-1ZM729,96v2h1v-2ZM736,92v1l-1,-1h-2v-1h-1v-1h-1v1h-1l-1,-1h-2v1h-1v-1v1l-1,-1h-2v-1h-1l-2,-1h-1l-1,-1h-1v1v-1h-1v-1h-2v-1v1h-1l-1,1l-1,-1l-1,1h-3v-1h-1h1v1h-1v-2h-6l1,-1v-1l1,-1h4v-1h1v-2h1v1h1v-1l-1,-1h1v1h1h-1v1h1v-1h1h-1v-1h-1h3v1h3l1,1h2l2,2h1v1h1l1,1h1l1,1h3v1h1v1h1l1,1h1v2h2l1,1h-1h1v1ZM705,85h1ZM706,86h1ZM707,85h-1ZM707,85h-1ZM710,78v1h1v-1ZM710,82h1v-1h-1l-1,1ZM717,85h1h-4v1h2v1v-1l1,-1h-1ZM712,79h1ZM726,85h-1ZM736,92h1v1h1l1,1h2l1,1h3v1h3l1,1h2v1h3v1h1l1,1h1v1v-1v1h1v1h2v1h1v1h1l1,1h1v1v-1h-1v1h1v1l-1,-1h-1l-1,-1h-2v-1h-1v-1h-2v-1h-1v-1h-1v1h1l1,1h1v1h1v3h1v1l2,2v1h1h-1v1h-1l-5,-5h-1v-1h-2v2l-1,-1h-1v-1h-1h1v-2l-1,-1v-1h-1l-1,-1h1h-1v-1h-1v-1h-1l-2,-1h-1l-1,-1h-1l-1,-1h-1v-1h-1v-1v1h2l2,1v-1h-1l-1,-1h-1v-1h-1ZM743,96v1l1,-1ZM742,96v-1h-1v1h2ZM740,95v-1h-1ZM738,94h1ZM738,93h-1v-1v1ZM739,96h1ZM745,97h2v1h2v1h2v1h1v-1l-1,-1v1l-2,-2v1l-1,-1h-1v1v-1h-1l-1,-1h-1v1ZM762,105h-1Z"/>
<path class="sw" d="M728,208v8l1,2l-1,-1v-3h-1v-1l1,1v-2l-1,-1h1h-1v-2l-1,-1h2l-1,-1h1ZM611,34h-1h1h-1v1h1h-3v-2h-1h4ZM582,29h-4v1h-1h1h-4v-1v1h1v-1h2l1,-1h1h-1h7l1,1h6l3,1l-3,-1h-9ZM757,81h-1l1,1h-1v-1v1l2,2h1v1h-1v-1l-2,-1h1h-1l-1,-1v-1h-1h1l-1,-1h2v1ZM681,72h-1v-1h-2v1h3v1h-1h1h-1l-1,1v-1h-3v-1h1v-1h-1h1v-1h-1v1h-1v-1h2v-1h-1h1v1h1l1,1h-1h2ZM678,72l1,1h1h-1l1,-1h-1ZM706,73h-1v1h1l1,1v1v-1l-1,1v-1h-1v-1h-1v1h-1v-1v1v-1h-1v-2h-1h3v1h1ZM703,73l1,1v-1ZM705,75v-1ZM617,35l1,1h-1v1h1v2h-1l-1,1h-1v-1h-1h1l-1,-1l1,1h1v-1h-1v-1h-2v-1h1h-1h1v-1h1h-1h2v1h1ZM787,118l-1,-1ZM389,30h-2l-1,1h-2l-4,1l1,-1h4l3,-1ZM374,36v1h-3l1,-1ZM553,111h-1v-2h1v1ZM728,101l1,1v1v-1h-1l-1,-1ZM665,28h-2v-1l1,1h2v1h3v1h1h-1h1h-1v-1h-2l-1,-1ZM598,21h1v-1l1,1l-1,-1h1v1h1v-1l1,1h-1h1v1h1h-1h1h-4v-1ZM619,22h1h-1l-2,-1h-3l-1,-1l2,1h4ZM792,115v1l1,1h1h-1l-5,-5v-1h-1h2v1l1,1v1h1v1ZM588,145v1h-1l-2,-2h1ZM541,17h-4v-1h-1h4v1ZM807,776l2,-2v2h-1l-1,1ZM774,95l-1,-1h-1v-1h1v1h1l1,1ZM785,120v1ZM786,121l-1,-1v-1l-1,-1l1,2h1ZM787,121l-2,-2v-1l1,1v1h1ZM598,34h1v1h-3l1,-1ZM607,22h2v1h-2ZM605,28h1h-1v-1h1v1h2l1,1h-1l-1,-1h-1ZM762,181h-1v-1h1ZM725,60l-1,-1h-2v-1h-1h1l1,1h2ZM754,97h1v1v-1h1l1,1h1v1l-1,-1h-2ZM717,57h-1v-1h-1h1l1,1h1l1,1h-1ZM891,712l-1,1v-1l-1,1v-3h2l1,1h-1ZM732,67h2v1h2l1,1h1h-2v-1h-3v-1ZM732,67h-4v-1h-1h2l-1,-1h1h-1h2v2h1ZM372,37h-1l-1,1h-1h1l1,-1ZM894,289v1l-1,-1v-1ZM395,16h-1ZM554,24v1h-3v-1h2ZM733,69l1,1h-1v-1h-1v-1h-1h2ZM765,837h-1l-1,1v-1h-2l-1,1h1h-1l-1,1l1,-1v-2l1,1v-1h-1h1v-1h1v1l1,1ZM593,28h-1l-1,-1h2ZM687,60h1ZM176,760v1l-1,-1v-1ZM608,86h-2v-1h1v1ZM429,7h-1l-1,1h-1v-1h2ZM579,68h-1h2v1h-2v-1ZM599,131v-1h-1v-1h-2v-1l-1,1h-4v-1h2v-1v1l1,1h1l1,-1h1v1h1v1h1ZM572,30v1l-1,-1h-2v-1h2v1ZM765,77v1h1h-2v-1h-1l-1,-1h-1h1v1h1v1h1l1,1l-1,-1h-1v-1h-1l-1,-1h-1v-1h-1l-3,-1v-1h-1l-1,-1l1,1h1v1h1h-1l-1,-1h-1v-1l-1,-1h-1l-1,-1l1,1h1l2,2l2,1l1,1h2v1h1h-1h1h-1v-1h-1l-1,-1h-1v-1v1h2l1,1v1h1v-1h-2v-1h-1h1l1,1h1l2,2h1ZM802,288v2h-3v-1h2ZM687,67v-1l1,1h1v-1h1v1h-2ZM766,92h-1h1v1l-1,-1h-1v-1v1h1h-1v-1h-1v1h1h-1v-1v1v-1h-1h1h-1v-1h1v1v-1h1v1h1v1h1l1,1h1h-1Z"/>
<path class="sw" d="M733,64h2v1h-2v-1h-1ZM976,428v2h-1v-4h1v1ZM783,118v1ZM786,119h-1h1v1ZM787,120l-1,-1h1ZM356,33h-1ZM605,97v1ZM605,107h-1l1,-1h-1h1l1,1ZM505,9h1ZM688,81v1h-1l-1,-1v1v-1h1ZM700,76v1h-1v-1h-1h1ZM769,99h1v1v-1h-1v-1ZM814,770h-1v-1h2v1ZM528,23h-1h1l-1,-1h1l1,1ZM766,834v-1h-1v-1l1,-1v1l1,1v1ZM182,801l1,1v1l-2,-2v-1ZM819,124v1h-1v-1ZM806,114v-1ZM548,95v1h-1v-2h1ZM556,106h-1l-1,-1v-1l1,1v1ZM557,122h-1ZM525,7h1ZM775,92h-1v-1h-1h1h-1l1,1l-1,-1h-1l-1,-1h1v1v-1l1,1v-1h-1l-1,-1v1h1l1,1h2v1l1,1v-1ZM808,107l1,1h1v1l-1,-1v-1ZM505,8h-1ZM507,8v1h-2v-1h1ZM533,13v-1h1v1h1h-1ZM680,56h-1h3l1,1h-2v-1ZM678,65h-1l-1,-1h2ZM663,54h-1l-1,-1h-1v-1l1,1h3v1ZM753,75h1v1h1v1h1h-1v-1h-2v-1v1v-1h-1h1h-1ZM613,43h-1v1h-2v-1h-1h3ZM695,86v1h-1l-1,-1h1ZM802,120v1l-1,-1ZM767,108v1v-1h-1v-1h1l1,1ZM660,50h1h-2v1h-1v-1h1h-1h1ZM557,89h-1v-1h2v1ZM815,113v-1ZM650,46v1ZM372,21h-1v1h-1l1,-1ZM358,31v-1h1ZM361,31h-1ZM368,34h-1h1v-1ZM373,31h-1l-1,1h-1l1,-1h1ZM371,31h1ZM370,33h-1h1h-1ZM690,77h-1v-1l1,1v-1h-3v-1h-2v-1h1h-1h1v1h2v1h3v1h1h-1ZM526,36h-6v1h2v1h1v1v-1h-1l-1,-1h-1l-1,-1h-2l-1,-1h1v1l1,-1h-2l-1,-1h1v1h2v1h5v-1h3l1,1ZM646,44h1h-1v-1l1,1ZM624,73v-1h-1l-1,-1v1h-6l-1,1v-1h-1h6l1,-1h1l1,1h1ZM646,75h-2l1,-1h-2v-1h-1v-1h-6v-1h1v1h5l2,2v-1h-1h1l2,2h4v1l-1,-1h-2ZM481,25h-1v-1h-2v-1h-1h1l1,1h1ZM556,61h-1l-1,-1v-1v1h1v1ZM567,67h-2l1,-1h-1h1ZM545,67h-1l-1,-1h-1l-1,-1l1,1h1l1,1ZM598,30h-1v1h-1v-1h3ZM426,21h-1v-1v1ZM681,77h1v1h-1l-1,-1ZM681,77v-1h1v1h1h-1ZM615,24h-2v-1h-1h3v1h2v1l-1,-1h-2ZM680,34h-1v-1h-1h1h-3v-1h-1h1v1v-1v1v-1h-2v-1h-1h1v1h2l1,1h2l1,1h1ZM697,177h-3v-1h1v1h1v-1v1ZM765,97h1h-1v-1h-1h1h-1l-1,-1h-1v-1h1h-1l1,1v-1v1h1v1h1ZM699,241v1h-1v-1h-3l-1,-1h3l1,1ZM825,318v1h-1l-1,-1h-1v-1h1l1,1ZM936,677h-1v1l-1,1v2h-1v1h-1l1,-1v-2h1v-1h1v-2h1v-2h1v-2h1h-1v2l-1,1v1ZM867,352v1h-1h1l-1,-1v1h-1v-1h1v-1h1h-1v1ZM907,740v1h-1v1h-1v-1l-1,1v1h-1v1l-1,1v1h-1v-1h1v-1l1,-1v-1h1l1,-1v-1h1l3,-3v1h-1v2ZM659,65h-3l-3,-3h-1l-1,-1l1,1v-1h-2v-1h-1v-1h-3l1,-1l1,1h1l1,1h1h-1l-1,-1h2v1l1,1h1v1h-1h1l1,1h2l2,2ZM646,59h-1v-1h-1v-1h-1l1,1h-1l-1,-1v-2h-1v-1h-1v1v-1h-1l-1,-1h-1h1v1h-2v-1h-1v-1h1v1h1v-1l1,1h3v1h1l1,1v1l1,1h1v1h1Z"/>
<path class="sw" d="M769,85h1v1l1,1l-2,-2h-1l-1,-1h-1v-1h-1l-1,-1l1,1v-1h-1l1,1v-1l1,1v-1h-1h1v1h1l1,1ZM768,84h-1h1l1,1l-2,-2h-1v1h1l1,1h1h-1ZM591,37h-2v-1l1,1h2v1h1v1h1l-1,1h-1v-1h-2l-1,-1l1,1h2l1,-1h-2ZM787,814v1h-1v-1h-1l-1,-1l-1,1h-2l-1,1h-1v1v-1l1,-1h1l1,-1h4v-1h1v1ZM599,131v-1h-1v-1h-2v-1l-1,1h-4v-1h2v-1v1l1,1h1l1,-1h1v1h1v1h1ZM618,120v1l-1,1v1h-1v1h1h-3v1h-2v-1h3l1,-1v-1h1v-1h1ZM632,38l1,1h1v1h-4v-1v1h1v-1v1h1l-1,-1h1h-1h1l-1,-1ZM993,573v2h-1v1h-1v-1v3l-1,3v2l-1,1v1l1,-1v-2l-1,1v3h-1v-1h1h-1v-1l1,-1v-1l1,-1v-3l1,-1v-1v1v-3h1v-1v1v-1h1v-1ZM989,584v-1v2ZM183,804v1v-1l-2,-2v1h1ZM183,806l-2,-2h1v1h1ZM743,85h1l1,1h2v1h1v1v-1h-2v-1h-2v-1ZM624,73v-1h-1l-1,-1v1h-6l-1,1v-1h-1h6l1,-1h1l1,1h1ZM663,88v1h-1l1,1h1v1l-1,-1h-1v-1h-2v-1h1l1,1v-1h1h-1l1,-1h-1v-1h-1h1h-1v-1h-1h1v-1h-1l-2,-2v-1h-1v-1h-1v-1v1h1v1h1v1l1,1h1v1h1v1l1,1v1h1ZM481,25h-1v-1h-2v-1h-1h1l1,1h1ZM556,61h-1l-1,-1v-1v1h1v1ZM574,17h-3v-1h1v1h1ZM574,17h4v1h-2v-1h-1ZM674,96l1,1h1v1h1l1,1l-1,-1h-1l-1,-1h-1l-2,-2h-1l1,-1h-1v-1v1h1v1l1,1ZM714,197v1l-2,-2v-1h-1h1l1,1ZM597,42v-1h-1h1l-1,-1v-1l1,1v1ZM600,27h-2v-1h-2v-1h1v1h1v1h1v-1h1ZM614,19h-1l1,1h-1v-1h-1h1ZM750,72h-1v-1h-2v-1h-1h1l1,1h1v1v-1ZM753,74h1l1,1h-1v-1h-1v-1h-1l-1,-1l1,1h1ZM745,69v1v-1h1h-2v-1l1,1h1v1v-1ZM756,143l3,3v1v-1l-1,-1h-1v-1l-3,-3v-1v1ZM795,165l2,2h-1h1l-1,-1h-1l-1,-1ZM550,50h1h-2l-2,-2h-1h1l1,1h1ZM814,196l-1,-1l2,2v1l-1,-1ZM596,139l-1,-1h1l1,1h1l-1,1v-1ZM536,100v1h1h-1ZM549,13h-1v-1l1,1h6l1,1h1h-2l-1,-1h-4ZM537,92h1v1h-1ZM554,89h1ZM803,113v1h1h-1v-1h-1ZM988,516v-1v2ZM970,645h-1v1v-2l1,-1v-2l1,-1v-1v1l-1,1v3ZM955,647h1v-1h1v-1v1v-2l1,-2v2h1h-1v1h-1v2h-1v1ZM811,772h1v1h-1ZM801,810v1h-2l2,-2v-1v1ZM318,34h1l-1,1h-1l1,-1h1ZM461,21h-1v-1h1ZM379,34h-1h1h-1ZM361,30h-1ZM388,29h1l1,-1h2h-2l-1,1h-2ZM401,28l1,-1h1v1h-1ZM362,30v1ZM360,29v1ZM366,26l-1,1ZM764,154h2l2,2h1v1l-3,-2h-2ZM743,77h-1v-1v1ZM686,66h-1ZM680,62h1ZM738,76v1l-1,-1h-1h1ZM755,92h-1ZM760,94h2v1l-1,-1v1h1h-1v-1ZM572,16v-1ZM572,16h-1ZM569,16v-1h-1h1l1,1ZM568,15h-1h1l1,1h-1ZM622,15h-1ZM568,8h-1h2ZM594,13h1v1h-1ZM649,47h1Z"/>
<path class="sw" d="M624,46h1l1,1h-1ZM609,46v-1h1v2ZM749,73h1h-1l-1,-1h1ZM780,87h1v1h1h-1v-1h-1l-1,-1h-1h1ZM558,15l-1,-1h-1h1ZM731,84h-1h2ZM599,40h1ZM603,41h-1l1,-1ZM598,22h-1ZM599,25h-1v-1h1ZM606,32h1v1h-1ZM736,62l1,1l2,1l-2,-1l-1,-1h-1v-1v1ZM625,19h-1ZM626,19h1h-2ZM80,771l-1,-1l-1,-2l-1,-1v-1l-1,-1v-1h-1v-1v1v-1v1h1v1l2,2v1l1,1v1h1h-1h1ZM76,764l1,1h-1v-1l-2,-3v-1h-1v-1l-1,-1v-1h-1v-1v1v-1l-1,-1v-1h-1h1v1l2,2v1h1v1l1,1v1ZM72,755v1v-1h-1v-1l-1,-2l-1,-1v-1v1l1,1l1,2ZM66,747v1l-1,-1v-1ZM64,745v-1v1v-1v1h1h-1v-1l-1,-1l-1,-2v-1l-1,-1v-1h-1v-1v1h1v2l2,2v1l1,1Z"/>
<path class="sb" d="M850,345h-2v4l1,1h1h-1v4h-1v1h1v2M842,333v1h-2l-1,-1h-1v-1l-1,-1h-1v-1h-1v1h-1l-2,-1l-2,-2h-1v1h-1M839,301l-1,-1h-1v1h-3v1l-1,-1v1l-1,-1v1h-1v-1h-1v-1h-2v3l-3,3v1l-2,-2h-1v1h-1v1l-1,-1h-1v3l1,1h-2v2h-2M806,289v1h-1l-2,2h-1v1h-1v2l1,1v1h-1v1M802,287l-2,-1l-1,-2v-3l-1,-2v-3l-1,-3v-1M797,302v-1h1v-1h1v-1h1l-1,-1h3l1,1v1h1l2,2h1v1h3l1,1h1v3h1l-1,1M801,268v-1h-1v2l-1,1v1h-1l-1,-1v2l-1,-1h-3l-3,-1h-5v1l1,1v2h-2l-1,-1v1h1l1,1v1l2,1l1,1h1v2h1l1,1v3l-1,-1h-5l-2,-1l-1,1v2l-1,1v2l1,2h-1v2l1,1h-1v1M729,204h-2l-1,-1h-4l-2,-2h-2l-1,-1h-1l-3,-3v-1l-2,-1v-2h-1v-2h-1l-2,-2l-1,-2l-1,-1h-1l-2,-2v-1l-2,-1l-1,-1v-1l-2,-2h-1v-1l-2,-1l-1,-1h-3l-1,-1h-5v2l-1,1h1l-2,2h-1l-1,-1l-2,-1l-1,-1h-2l-2,-2h-1v-1l-2,-1v-2l-4,-4h-2l-4,-4l-2,-1h-1l-2,-2h-2l-2,-1h-9l1,1v2l-3,-1h-12l-3,-1h-2l-18,-5l-4,-2l-7,-2h1v-1h-17M783,109h-2v2l-1,1h1l-1,1h1v1h-3l-1,-1h-5l2,2h1v1h1v1h-2l-1,1h-6v1h-4l-3,-3v-1h1v-1l-1,-2v-1l-1,-1v-1l-8,-8h-1l-2,-2h-1l-2,-1l-1,-1h-1v-1h-1v-1h-3v-1l-1,-1h-1v-1h-1v1l-2,-2h-1v-1h-2l-2,-2h-1l-1,-1h-2l-1,-1h-1l-2,-1l-1,-1h-2l-2,-1l-1,-1h-2l-1,-1h-7l-1,-1h-3l-1,-1h-3l-2,-1h-2l-1,-1h-1l-1,-1h-5l-1,-1h-1l-2,-1h-2l-1,-1v-1h-1v-1h-2l1,1h-7l-2,-1h-6l-2,-1h-7l-2,-1h-6l-3,-1h-8l-3,-1h-9l-2,-1h-11l-3,-1h-11l-3,-1h-14l-2,-1h-24l-3,-1h-20M460,6l-2,2h-1l-5,5v1h-1v1h-1l-1,1v1h-1v1l-2,2v1h-1v1l-1,1v1h-1h1l1,1l1,-1h1v1l1,-1h3v1h2v1h2l1,1h1l-1,1h1v-1h4v-1h2l-1,-1h6v1h1l1,1h2v1h2v1h1l1,1h1v1h1l1,1h-1h1l1,1h-1h1l1,1h4l1,1h3v1M907,715h-1l-1,1v1h-1v1l-1,1v1l-1,1v1l-1,1h-1v2h-1v1h-1v1l-1,1v1l-2,2M932,683l-4,8h-1v1h-1v1h-2v1l-1,1v1h-1v-1h-1l-1,1v-1h-1v-1l-2,-2v-1h-2l1,-1v-1h1v-1h1v-1l1,-1v-1l1,-1v-1h1v-1h1v-1l1,-1v-1h1v-1h1v-6l-1,1v-3l-1,-2v-5l-2,-2v-1l-1,-2h1l-1,-1v-13M901,641l1,2l-1,2l-2,3l-1,2l-2,2h-3l-3,3v4h-1l-2,4l-1,3v1l-1,1v1h-1v5h-2v1v-1h-1v1l-1,1h-1v1l-1,2h-1v1l-2,2h-1l-1,1v1l-1,1v1l-2,2v1h-1v1l-3,6v2h-2v1l-2,2v1h-1v2h-1v-1v1l-1,1v1l-1,1v1l-1,1l1,1l-1,1v1l-1,1v3l-1,1v1l-1,1v3h-1v1l-1,1l-1,2v1l-1,1h-1v1h-1v1h-1v1l-2,2l-1,2h-1v2l-1,1v1l-1,1v1h-1v1h-1l-2,2v-1l-3,3v1l-2,2v2l-2,2v1l-1,1v1l-1,1v2l-1,1h-1l-1,1h-1l-1,1v1l-3,3h-1v2h-1v1h-1v1h-1v2h-1l-2,2v1l-1,1l-2,4h-1v1l-1,2v1h-2l-1,1v1h-1v1l-2,2v3h-1l-1,1v2h-1v1l-1,1h-1v1l-1,1l2,1v1h-1v1h-1v1l-1,-1h-2v1l1,1l-1,1v1l-1,1h-2l-1,1v2l-1,1h-1v1h-1v1l-1,1v1h-2v1h-1v1l-2,2h-1l-2,2h-1v1h-1v2h-1l-4,4h-2v1h-1l-1,1h-1l-2,2v1h-1l-1,1v1h-1v2l-2,2v1l1,-1h2v1l-2,2h-1v2l-2,1v1h-1l1,1h-1v2h3l1,1h1l1,1v1h1v1h1v1"/>
<path class="sb" d="M940,634v-2l1,-1l-1,-2v-4l-2,-1h-8v1l-1,2l-3,3l-1,3v2l-2,2l-1,2l-1,3l-1,1v1v-3h-2l-1,-1h-1l-2,2v1l-1,1l-1,2v-1l1,-1v-4l-1,-1l-2,-1h-1v-3h-1l-1,1v1h-2v1h-1v1h-1l-1,1v1h-3v-2l1,-1v-5l1,-1v-3l1,-2v-3h-1v-1l1,-1v-4l1,-1h-1h1v-1h1v-2l1,-2v-4l-1,-1l1,-1v-4l1,-1v-2l-1,-1l1,-2l-1,-1l1,-1M917,538v2l1,1v7l1,2v3h-1v1l-1,1v1l-1,4v1h-1v6h-1v1l-1,1v1h-1v2h-1v1l1,2l-1,1l-1,2v6h1v1h-1v2h-1v1h-1v1l-1,1h-1v1h-1v1h1v2h-1l-2,2v2l-1,1h-1v1l-1,-1M897,436l-1,1v-1h-1v1l1,1v2h1v4h-1v-1v1l-1,2v3h-1l-1,2l-5,5h-3l-1,1h-2v1l-1,1h-1v2l-1,-1v3l-1,1v1l-1,1v4h-1l-1,1v1l-1,1v-1h-1l-1,-1v-3l-1,-1h-1l-2,-2v1h-2l1,-1v-1h-1v-2h1l1,1v-6M922,480v-1l-1,-1v-2h-1v-1v1h-1v-3l2,-4l1,-1v-2l-1,-1v-1h-1v-1l-2,-2h-2l-1,-1v-1h-1v1h-4v-1l-1,1l-1,-1v-1h-1v-4h-1v-4h-1v-2h-1v-1h-1v-1h-1v-2l-1,-1v-2l-1,-1v-1h-1v-1l-4,-4h-1l-1,-1v-1l-2,-2l-1,1v1l-1,-1h-1l-1,-1h-1v-1h-1v-2h-1v-2h-1l-2,-1v-1l-4,-4v-1M937,438v-1l-1,-1v-4l-1,-1h1l-1,-1v-3l-1,-1v-1l-1,-1v-1h-1v-1l1,-2l1,-1v-1l-1,-2v-1l-1,-1v-4l-1,-1v-8l1,-1l-1,-1l1,-1v-3l-1,-1h-4l-1,-1h-2l-1,-1v1v-1l-1,-1l-3,-6v-1h-1v-1h-1l-1,-1l-1,1h-1l-1,-1h-1l-1,-1h-1v-1l-1,-1v-1l-1,-1v-1l-1,-1v-3h1l-1,-1v-2l-2,-2v-2l-1,-2v-1h-1v-1h-2l1,-1v-9l1,-2v-2l1,-1l1,-3h2v-1h1M958,414v-2l-1,-2l-1,-3v-6h2v-3l-1,1v-2l-1,-2h1v-3h1v-1l1,-1l-1,-2M973,449v-1l-1,-1v-4l-1,-1v-5l-1,-1v-1h-1v-4h-1v-10l1,1v-1h1v-1h-1v-2M978,449h1v-12h-1v-5l-1,-1v-6h1M900,748v-1h1v-1l2,-3l2,-2h1v-4l1,-1v-5l1,-1v-6l1,-1h-1l-1,1v-1l1,-1v-4l1,-2v-1h-1l-1,1l-1,-1h1v-1h1v-1l1,-1h1l3,-3v-1h1v-1l2,-2h1v-1h1v-1v1h1v-2h1l1,-1v-1h2v-1l1,-1v1v-1h2v-1h2v-1l1,-1v-1l1,-1v-2h1v-1l1,-1v-1l1,-2v-3l-1,1v-2l2,-2v-1l1,-1l1,-3l1,-1v-2h1v-3h-1v1h-1l-1,-1l1,-1v-2l1,-1v-2l1,-1v-2l1,-1v-2l1,-1v-1h-1v-3h-1v1h-1v-1h-1v-1l-1,-1v-2h1v-2l1,-1v-2h1v-2l1,-1v-3l1,-1v-3h1v-3l2,-2v-2l2,-2h-1l1,-1l2,-4v-3l1,-2v-2h-1v-4l1,-2v-2l1,-1v-2l-2,-1h-1l-2,-2v-3l1,-1v-6h1l1,-4v-5h1v-3l-1,-1v-2h-2l-1,-1v-1l-1,-2h1l-2,-2v-1h-1v-3h-1v-1l-1,-1v-1h-1l-1,-1h-1v-4h-1v-6h-1l1,-1l-1,-1h1v-7h1v-3l1,-1v-2h-6l-2,2h-2v1l-1,1v1l-1,-1h-1v1l-1,1h-1l-1,1v-1h-1v-1l-1,-1h-2l-1,-1h-1l-1,1h-1v-2l-1,1v-2l1,-2v-3l1,-2v-4h1v-1l-4,4h-2l-1,-1h-2v-5h-1v-1h-1l-1,-1h-1l1,-1v-1l1,-1l-1,-1v-2h-1v-3h-1v-6l-1,-1v-2h1v-4h1v-1l1,-1h2v-6l2,-2v-4h1l1,-1h1v-1h1l1,-1v-1h5l1,-1h2v1l1,1h1v-2l1,-3v-3l1,-2v-6l1,-3v-5l1,-1v-1h-1v-6h-1v-1l-1,-1v-7h1v-1h2v1h1v-2l-1,-1v-1h-2v-2l-1,-2v-2h2l1,1h2l1,1h1l1,1v-1h1v1h1v-2h1v-1v1h1v2l1,1v5h1l2,4v1h2v-1h1v3h1v-2l2,-2h1v-1h2v-4l1,1v-1h1v-1l1,-1h-1v-1h-1l-1,-1v-3l-1,-2v-5l-2,-3v-2l-1,-1v-1v1h1v1l1,1h1v2h2v1h1l1,2l1,1v-3h1v-1l1,1h2v-1h1v-1v1h1v-2h1v-3l-1,-1h1v1h1l1,1v6h1v2l1,1v4l-1,1l1,1v1h-1v6l1,2v4l1,1v2l1,1v1l1,1v2h1v-1h1l-1,-1h1v-1v1h1v-1h1l1,-1h1v1h1v1v-1v1h1l1,1v-3h-1v-2l1,-1v2h2v-1v2h1v2l1,1v1h1v-1l1,1v1h1v1v-1h1v-8l1,-1v-4"/>
<circle class="w3" cx="500" cy="605" r="31"/>
<circle class="w3" cx="500" cy="605" r="29"/>
<circle class="c3" cx="500" cy="605" r="30"/>
<path class="sg" d="M 268.0846 942.1592 A 249.7500 52.9930, 0, 1 1, 730.9154 942.1592"/>
<path class="sg" d="M 70.3328 755.0695 A 432.5797 91.7865, 0, 1 1, 928.6672 755.0695"/>
<path class="sg" d="M 0.0000 499.5000 A 499.5000 105.9859, 0, 1 1, 999.0000 499.5000"/>
<path class="sg" d="M 70.3328 243.9305 A 432.5797 91.7865, 0, 0 1, 928.6672 243.9305"/>
<path class="sg" d="M 268.0846 56.8408 A 249.7500 52.9930, 0, 0 1, 730.9154 56.8408"/>
<path class="sg" d="M 367.5535 17.7424 A 385.8751 499.5000, -195.31688144, 0 0, 631.4465 981.2576"/>
<path class="sg" d="M 456.3357 1.8685 A 184.7055 499.5000, -184.95739813, 0 0, 542.6643 997.1315"/>
<path class="sg" d="M 513.9473 0.2090 A 65.9557 499.5000, -178.34256813, 0 1, 485.0527 998.7910"/>
<path class="sg" d="M 580.5218 6.6149 A 298.9442 499.5000, -170.66505092, 0 1, 418.4782 992.3851"/>
<path class="sg" d="M 729.6139 56.1628 A 451.8308 499.5000, -152.56846071, 0 1, 269.3861 942.8372"/>
<path class="sg" d="M 79.3014 229.4382 A 483.6497 499.5000, -237.27112807, 0 0, 919.6986 769.5618"/>
<text x="0" y="0" class="fs" transform="translate(317,278) rotate(95)">150W</text>
<text x="0" y="0" class="ft" transform="translate(317,278) rotate(95)">150W</text>
<text x="0" y="0" class="fs" transform="translate(565,272) rotate(88)">120W</text>
<text x="0" y="0" class="ft" transform="translate(565,272) rotate(88)">120W</text>
<text x="0" y="0" class="fs" transform="translate(795,292) rotate(81)">90W</text>
<text x="0" y="0" class="ft" transform="translate(795,292) rotate(81)">90W</text>
<text x="0" y="0" class="fs" transform="translate(946,334) rotate(77)">60W</text>
<text x="0" y="0" class="ft" transform="translate(946,334) rotate(77)">60W</text>
<text x="0" y="0" class="fs" transform="translate(118,310) rotate(99)">180W</text>
<text x="0" y="0" class="ft" transform="translate(118,310) rotate(99)">180W</text>
<text x="0" y="0" class="fs" transform="translate(299,887) rotate(-12)">60S</text>
<text x="0" y="0" class="ft" transform="translate(299,887) rotate(-12)">60S</text>
<text x="0" y="0" class="fs" transform="translate(156,683) rotate(-14)">30S</text>
<text x="0" y="0" class="ft" transform="translate(156,683) rotate(-14)">30S</text>
<text x="0" y="0" class="fs" transform="translate(105,430) rotate(-14)">0N</text>
<text x="0" y="0" class="ft" transform="translate(105,430) rotate(-14)">0N</text>
<text x="0" y="0" class="fs" transform="translate(159,196) rotate(-13)">30N</text>
<text x="0" y="0" class="ft" transform="translate(159,196) rotate(-13)">30N</text>
<path class="tb" d="M127,998h-2l-1,-1h-2l-1,-1h-2l-1,-1h-2v-1h-3v-1h-2l-1,-1h-2v-1h-2l-1,-1h-2v-1h-2v-1h-2l-1,-1h-2v-1h-2v-1h-2v-1h-2v-1h-2v-1h-2v-1h-2v-1h-2v-1h-2v-1h-1l-1,-1h-1v-1h-2v-1h-2v-1h-1v-1h-2v-1h-1l-1,-1h-1v-1h-2v-1h-1v-1h-2v-1h-1v-1h-1l-1,-1h-1v-1h-1v-1h-1l-1,-1h-1v-1h-1v-1h-1v-1h-2v-1h-1v-1h-1v-1h-1v-1h-1l-2,-2h-1v-1h-1v-1h-1v-1h-1v-1h-1v-1h-1v-1h-1v-1h-1v-1h-1v-1h-1v-1h-1v-1h-1v-1h-1v-2h-1v-1h-1v-1h-1v-1h-1v-1l-1,-1v-1h-1v-1h-1v-1l-1,-1v-1h-1v-1l-1,-1v-1h-1v-1l-1,-1v-1h-1v-2h-1v-2h-1v-1l-1,-1v-1l-1,-1v-1l-1,-1v-2h-1v-2h-1v-3h-1v-2h-1v-4h-1v-3h-1v-5h-1v-6l-1,-1v-17h1v-7h1v-4l1,-1v-3h1v-3h1v-3h1v-2l1,-1v-2h1v-2h1v-2h1v-2h1v-2h1v-2h1v-2h1v-1h1v-2h1v-1h1v-2h1v-1h1v-1l1,-1v-1h1v-1h1v-1l1,-1v-1h1v-1h1v-1h1v-1h1v-1h1v-1h1v-2h1v-1h1v-1h1v-1h1v-1h1l3,-3h1v-1h1v-1h1v-1h1v-1h1v-1h1v-1h1l1,-1h1v-1h1v-1h1v-1h1l1,-1h1v-1h1v-1h2v-1h1v-1h1v-1h2v-1h1v-1h2v-1h1v-1h2v-1h1l1,-1h1v-1h2v-1h1l1,-1h1v-1h2v-1h2v-1h2v-1h1l1,-1h1l1,-1h1l1,-1h1l1,-1h1l1,-1h2v-1h2v-1h2v-1h2l1,-1h2v-1h2v-1h2l1,-1h2v-1h3v-1h2l1,-1h2v-1h3v-1h3v-1h159v1h3v1h3v1h2l1,1h2v1h3v1h2l1,1h2v1h2v1h2l1,1h2v1h2v1h2v1h2l1,1h1l1,1h1l1,1h1l1,1h1l1,1h1v1h2v1h2v1h2v1h1l1,1h1v1h2v1h1l1,1h1v1h2v1h1v1h2v1h1v1h2v1h1v1h1v1h2v1h1v1h1l1,1h1v1h1v1h1v1h1l1,1h1v1h1v1h1v1h1v1h1v1h1v1h1l3,3h1v1h1v1h1v1h1v1h1v2h1v1h1v1h1v1h1v1h1v1h1v1l1,1v1h1v1h1v1l1,1v1h1v1h1v2h1v1h1v2h1v1h1v2h1v2h1v2h1v2h1v2h1v2h1v2l1,1v2h1v3h1v3h1v3l1,1v4h1v7h1v17l-1,1v6h-1v5h-1v3h-1v4h-1v2h-1v3h-1v2h-1v2l-1,1v1l-1,1v1l-1,1v1h-1v2h-1v2h-1v1l-1,1v1h-1v1l-1,1v1h-1v1l-1,1v1h-1v1h-1v1l-1,1v1h-1v1h-1v1h-1v1h-1v2h-1v1h-1v1h-1v1h-1v1h-1v1h-1v1h-1v1h-1v1h-1v1h-1v1h-1v1h-1v1h-1l-2,2h-1v1h-1v1h-1v1h-1v1h-2v1h-1v1h-1v1h-1l-1,1h-1v1h-1v1h-1l-1,1h-1v1h-1v1h-2v1h-1v1h-2v1h-1l-1,1h-1v1h-2v1h-1v1h-2v1h-2v1h-1l-1,1h-1v1h-2v1h-2v1h-2v1h-2v1h-2v1h-2v1h-2v1h-2v1h-2l-1,1h-2v1h-2v1h-2l-1,1h-2v1h-2l-1,1h-2v1h-3v1h-2l-1,1h-2l-1,1h-2l-1,1h-2Z"/>
<path class="tl" d="M169,986h1v1h-3l-1,-1h2v-1ZM114,989h-3l-1,-1h2l1,1ZM176,983h1l1,1v1h1l-1,1h-2l-1,1h-1l-1,-1l1,-1v-2h1v-1ZM124,980h2v1h-1ZM122,980l1,1h-1l-1,-1ZM136,977h1h-2ZM156,974v1l1,1h-5v-1l1,-1v-1l-1,-1l1,-1v1h1l1,1ZM158,964v1h-2v2h1l-2,2v1h1l1,1h1l4,4v1l1,1v1h-1v2h-1l-1,1h-1v1h-2l1,1h1v1h-2l1,1h1v1h3l1,1h3l1,1h3l1,1h1l1,1v-1h1v-1h2l2,-1l1,1h1v-1h4v-1h3l1,-1h-1v-1h-4l-1,-1l1,-1h1l2,-2h4l1,-1h1l2,-2h-1v-1h1v-1h2v-1l1,-1h1v1h1v-1h8v-1h3v-1h1l1,1h2v-1h1v1l1,-1h4v1h6v-1h3v-1h2v1h3l1,-1h3v-1h2l1,-1h2l1,-1h4v1h1v1h1l1,1h1l1,-1l1,1h2v1l-2,2h-1v1h1h-1v1h-1v1h2l2,-2h1v-1h3l1,-1h1v-1h2l1,-1h5v-1h1v1h5v1h1l1,-1l1,1l1,-1h1l2,-1v1l1,1h3l1,-1h2v1h1v1h4l1,-1v1h9l1,-1l-1,1v1h-1h3l1,1h2l-1,1v1h1v1h2v1h1v2h2l1,1v1h-1l-1,1h-2l-1,1h-3l-1,1h-2l-1,1h-2l-2,2v1h-5l-1,1h-2v1h-1v3h2l-11,4h-155l-11,-4h-1h2l1,-1l1,1h14l-1,-1h-7v-1h-2v-1h-3l-1,-1h4v-1h-2l-1,-1h-7l-1,-1l-2,-1l1,1l1,-1l2,1v-1h1v-1l-1,-1h-1h2v-1h2v-1h4l1,-1h5l1,-1l1,1v-1h1l1,1h1v-1l1,1h6v-1h-2l-1,-1h-1l-1,-1h4l1,1h1l1,-1h3l-1,-1h1l1,1l1,-1l1,1h3v-1l1,1h4v-1h2l1,-1v-1h-1v-1h-1v-1h-1v-1h-1v-2l-1,-1v-1h1v-2h1v-1h1v-1h1l1,-1l1,1ZM144,951l2,1h1v1h-1v-1v1h-4l-2,-2l-2,-1l2,1h2v-2h1v1ZM151,947h1v1h-2v1l-1,-1l1,-1ZM269,946h-1v-2h1l1,1ZM345,939v1h1l1,-1v1l-3,3v-1l-1,1h-1l1,-1v-1l1,-1v-1ZM368,943v1l1,-1v1h-1l-3,3h-1l-1,1h-1l-2,2h-2v1h-1v-1h-1v-1l4,-2h1l1,-1h2l2,-2h1l2,-2ZM376,936l-1,2l1,-1l-1,1l1,1h1l-2,2h-1l-2,2l-2,1h-1l2,-1v-2l1,-1l2,-1v-1l1,-1v-3l1,-1v1l1,1ZM382,913l-1,1v-2l-1,-1v-1h1v1l1,1ZM397,906v1l-1,1h-1v-1l1,-1v1ZM398,906h-1v-1h1l1,-1v1ZM10,905v-1ZM386,904v-1ZM386,901v2h-1v-1ZM259,895v2l1,1h-1v1v-1v2h-1v3l-3,6v2h-1l-1,1l-1,-1h-1v-5h1v-2l1,-1h-1v-3h1v-1h1l2,-2h1v-1l1,-1v-1l1,-1v1ZM361,898v1h1v1h1l-1,1v2h1l-1,2v1l2,2v4h1l-1,2l1,1v3l-1,1v2l-3,3v1l-1,1l-1,2h-1l-1,2h-1l-4,4v1h-2l-1,1h-1l-1,1v-1h-1l1,-1h-1l-1,1h-1v-1h-1v-3h1l-1,-1v-1l1,-1l-1,1h-1l3,-3l-2,1h-1l-1,2v-4l-2,-2h-2l-1,1h-4l-2,2h-4l-1,1v-1l-1,1h-2v-1h-1l1,-1v-1h1v-3l1,-1v-7l1,1v-3l1,-1v-1l1,-1l-1,1l2,-2h1l1,-1h2l1,-1h2v-1h1l1,-1v-2l1,-1v2l1,-1v-1h1v-1l2,-2h2v1h2v-2h1l1,-1v-1h2v-1h-1h1l1,1h3l1,1h-1v1h-1v1l-1,1v1l2,2v1h1l1,1h1v-1l1,-1v-1l1,-1v-3l1,-1v-2h1v-1v3l1,1Z"/>
<path class="tl" d="M383,894h-1v-1v1ZM337,892l-2,-1h2ZM381,893h-1v-1h1ZM382,892v-1l-1,-1h1ZM341,892h-1l3,-3h2l-1,1h-1l-1,1ZM335,889h1v1h-3l1,-1ZM340,889v1h-3v-1h2ZM381,890v1l-2,-2h1v1ZM378,889v-1h-1v-1l1,1ZM325,887h2v-1l2,1v1h2l1,1l-1,1l-1,-1h-4l-1,-1h-1l-2,-1h-1l1,-2h1l1,1ZM353,886v1v-2ZM377,888h-1v-2l-1,-1h1v2h1ZM373,885l-1,1h-1l-1,1l-1,-1h-1l1,-1l1,1v-1h2v-2h1v1ZM345,882h-1v-1h1ZM349,881v2l-1,-1h-2v-1h2ZM374,884l-1,-1v-1l-1,-1h-1h2v2h1ZM353,878v3l2,1v-2l2,-1h1l1,1h1l1,1l4,2v1h1v1l2,1v1h-1v1l1,1v2h1v1h1h-1l1,1l-1,1v-1h-2l-1,-1v-3h-3l-1,1v1h-2l-2,-2v1h-2l1,-2h1l-1,-2v-1l-2,-1h-1l-1,-2l-1,1l-1,-1h1l-1,-1l1,-1h-1v-1h-1l-1,-1h2v-1ZM343,875l-1,1h-4v1l1,2v-1h2l-1,1h-1l1,2v1l1,2v1h-1v-2l-1,1v-1l-1,-1l1,-1h-1v4h-1v-3h-1v-1l1,-1v-4h1v-1h4l1,-1ZM347,875v1h-1v1l1,1h-1v-4h1ZM321,885h-1l-2,-2v-1l-2,-2l-1,-2v-2l-1,-1v-1l-4,-4v-1h2l3,3l1,2h1l2,2h1l-1,2h1v1l1,1h1v3ZM335,874l1,1h-1v3l-1,1v1l-1,3v-1l-1,1l-1,-1h-1v-1l-1,1l-1,-1h-1l-2,-4v-2l1,-1h2v-2h2v-1l1,-1v-1h1l1,-1v-2h1v1l2,2v1h-1l-1,2l1,1ZM344,864v3l-1,-1v2l-2,-2h1l-1,-1v1l-1,-1l-1,1v-1l1,-1h2v-1h1v-1l1,1ZM294,868h-1v-1l-1,-2l1,-2l1,1v1l1,1v1ZM137,863h-1l1,-1h1ZM341,861v1l-1,1l-1,-1l1,-1v-1v1l1,-1ZM335,863l-1,1v-1l1,-1v-1l1,-1v1l-1,1ZM338,859h2v1l-1,1v-1h-1ZM342,858l1,2h-1v1v-1h-1v-1h1h-1v-1ZM338,857l-1,1l-1,-1h1ZM336,849h1v6h1l2,1v2l-1,-1v-1v1l-1,-1h-2v-1h1h-1l-1,-1v-5ZM133,851v1h-1v-1ZM121,852h-1v-1h2v1ZM126,849h3v1h1v1h-2l-1,1v-1h-1v-2h-1ZM324,849l-1,1h-1v-2l1,-1h1v1ZM37,846v-2h1v2ZM38,844h-1v-1h1ZM119,845h2l1,1v1h1v1h2l-1,1h-3v-1h-1v-2h-2l-1,-1h-1h1h-2l-1,1h-1l2,-2h3ZM122,843h-1v-1l1,-1v1ZM334,843v1l-2,-2v-2l1,-1l1,1ZM122,839l-1,1v-1ZM123,839v1v-1h-1ZM340,825h1v1h-1v1h-1v-2ZM240,828l-2,2v-1h-1h2ZM229,828v1h-1ZM220,825v2h-1l-1,-1h-1v-1h2ZM214,821v3h-1v-3ZM344,820v1l1,1v1l-1,1h-1l-1,2l-1,-1v-1l-2,1l-1,1h-1l2,1v3l-1,-1v-1h-1l-1,-1l1,-1v-3h3v-3l1,1v-2h1l-2,-4v-1l3,3v1ZM214,820v1l-1,-1v-1l1,-1ZM340,810l1,-1l1,2h-1v2l-2,-1l1,2h-1l-1,-2l-1,-1h1l-1,-2l-1,-1l3,1ZM144,812l1,1h1h-2ZM147,809h-1l-1,-1h1ZM92,806h-1l-1,-1v-2h-1v-1h1l1,1v1l1,1ZM153,807l-1,1h1v1h2l-1,1h1v1l-1,2l-1,-1l1,-1l-2,1v-1h-3l1,-1h-1l4,-4h1Z"/>
<path class="tl" d="M90,797h1l-2,2v1v-3ZM332,800l3,3l-2,-1l1,2l2,2v1l-2,-2l-1,-2l-6,-6v-1h-1h1l3,3ZM198,806l-1,1h-2l1,-2v-1l2,-2h1v3ZM216,801l-1,2l-1,-1v-1h1ZM79,791h-1v-1h2ZM202,797l-1,2h2v1l-1,1h1l2,4h1v1l-1,1h1l-1,1h-3l-1,1h-2l2,-2h-1v-1h1l-1,-1v-1h2l-1,-1h-1v-2l-1,-1l1,-2v-1l1,1ZM75,786h-1v-1h1ZM141,790l-1,1v-1ZM139,790h-2l1,-1h1ZM78,780v1h1h-2v-1ZM139,786h1v1h1l-1,1h1l-1,1l-1,-1h-1l-2,1l1,-1h-1h1l1,-1l1,-2ZM193,787v1l1,1l-1,1h-3l-1,1l-1,-1h-2l1,-1h-1h1v-1h-2l1,-1h1l1,1l2,-1h2ZM147,784h-1l1,-1h2l-1,1ZM81,776v1l1,-1h2l-1,2h-3l-1,1h-1l-1,-1h1v-1h-1h1h-2l-1,1l8,-5v1l-1,2ZM135,780l-1,1v-1h-1l1,-1h1ZM322,771h-1ZM88,771h-1h2ZM139,780l-1,2l2,-1v1h-1v1l1,-1l2,-1l1,-1h2v2h-1v1l-1,1l-2,1h-1v-1l-1,1l-2,1v1h-3l-2,2h-1l-1,1l-2,1l-1,1l-1,2h1l-1,1v1h1l3,3l2,1h1l-2,2v2l1,1h1l2,-4h-1l4,-2v-1l1,-1v-1l-1,-1l2,-1l2,-4l1,1h1l1,-1v1l1,1h1v2l-1,1l1,1h2l1,-2h1v3l1,1l-1,1l1,1v1h1l1,1v1l1,1l-2,2h-2l-2,2h-1l-2,-1h-2l-2,1l-1,1l-2,1l-1,1l2,-1l3,-1h2l-1,1l-1,2v1l1,1l2,-1l1,-1v1h1l-4,2h-1l-2,1v-1l2,-1h-3v1h-1l-1,1h-1l-2,2l1,1v-1v1h-3l-1,1l2,-1v1h-2l-2,2v1l-1,1l-1,-1l1,-1l-1,1v4l-1,1h-1l-1,1h-1l-3,3h-1v8l-1,1h-1v-3l-1,-1l1,-1l-1,-2l-1,1l-1,-1h-4v1h-1l-1,-1l-1,1l-1,-1l-2,2h-2v1h-1v3l-1,1v1l-1,2v4l1,1v1h1v1l1,-1h3v-1l1,-1v-1l1,-1h3v1l-1,1v2l-1,1v-1v2l-1,1v1h5v1h1v1l-1,1v3l-1,1h1v2h1v1h2l1,-1h1v1h1l1,1l1,-1v-2l1,-1h2l2,-2v2h-1h1v1l-1,1v1h1v-3h1v-1h1v1h1v1h3l1,1l1,-1h1l1,1h1v1l1,1h1v1h1v1l1,1l2,1v-1h1l1,1h1l1,1v1h1v1l1,2v1l-1,1l1,1h2v1v-1l4,2v1h1l3,1h1l2,1l2,2h2v5l-1,1l-1,2l-2,2v9l-1,2v2h-1v1h-2l-1,1h-1l-3,3v5l-1,2l-2,2v2l-2,2v-1l-1,1l-1,-1h-1v-1v1l1,1v1l1,1v2l-2,1h-3l1,1v2l-1,1l-1,-1h-1l1,2h2l-2,2l1,1v1h-1l-1,1v1l2,1h1v1l-1,1v2h-1v1l2,2h-1l-1,1v1h-1l-2,-1l-3,-3l-1,-3v-1l1,-1h-2l1,-2l-1,-2h1v-2l-1,-1v2l-1,-2v-4l-1,-1l-1,-2h1v-6l-1,-2v-8l-1,-2v-6l-1,-2l-1,-1l-2,-1l-3,-2l-1,-1v-1l-1,-2l-1,-3l-2,-3l-2,-2v-1l-1,-2l2,-2v-1h-1v-3l1,-1v-1h1v-2h1l1,-1v-5l-1,-1v-2h-1v1h-1v1h-1l-1,-1h-2v-2h-1v-1v1h-1v-3l-2,-2h1h-2v-1h-2l-1,-1l-1,-2h-1l-1,-1v1h-2l-1,-1h-2l-2,-2h-1l-1,-1v-1h-1v-3h1l-1,-1v-3l-1,-1v-1l-1,-1v-3h-1v-5l-1,-1l-1,1v4h1l-1,1h1v5h1v2h-1v-1l-1,-1v-3l-1,-1v1v-1h-1v-1h1v-9h-1v-1h-1v-9l2,-2v-1l1,-2l2,-2l1,-2l1,-1v-1h1v1l2,-2h-1v-2l-1,-1v-1l1,-1l-1,-1l1,-1v-1l1,-1l-1,-1l1,-1v-1l1,-1l-1,-1h-1v-2h-1v-1h-1l-1,-1h-1l-1,1h-4l1,-1l2,-1h-1l-1,1l-2,1h-1l-1,1l-2,1h-2l-2,1h-1l-1,1h-3l-1,1h-2l1,-1h2l2,-1h2l2,-1h1l2,-1l1,-1h-3l1,-1l-1,1h-1l2,-2h-1v-1l2,-2l2,-1h3l1,-1h1l1,-1h-3v-2h4l1,1l1,-1v-3h4l1,-1h2l2,-1l1,1l1,-1h1l-1,1h1l1,1h2l1,1h2v1l1,1l1,-1h6l1,-1v2l2,-1l-1,1h2l1,1h2v1l-2,1h4v1l2,-2h2v1h1l1,1h2v-1h1l1,1l-1,1l1,-1h1l1,-1v-2l1,-1l2,-1l1,1l-2,2Z"/>
<path class="tl" d="M128,774l-1,1h4l-1,1h1l2,-2v1l-1,2v1l1,1h-2v1h-8v-1h-1v-1h4l-1,-1h-3l2,-1h-1l1,-1h1ZM135,774l-2,1v-1h1ZM152,776v1l-1,-1l-1,1v-2h2ZM146,776v1l1,-1l2,-1v2h3l1,1l-1,1l2,-1v1l1,1v2h-1l2,2v1h1v1l-2,1h-1l-1,-2l-1,1v1l1,1v2l-1,1l-2,-2v1l1,1h-2l-2,-2v-1l-1,-1v1h-3v-1l1,-1h3l1,-1l2,-1v-1l-1,-1h-1l1,-1l-1,-1h-5l-1,-1h-1l1,-1h-1l1,-1l2,-1l1,-1h2ZM138,774h2l-1,1h-1l1,1l-2,1h-2v-2l1,1v-1ZM298,772h-2v-1ZM141,776l-2,1v-1l2,-2h2l1,1l-2,1ZM122,776h-2l-1,-1h1l2,-1l2,-2h2v1h2v1h-1l-3,1h-2ZM299,769v1h-3v-1h1ZM143,773v1l-1,-1h-1l1,-1h1l1,1ZM295,769l1,1h-2l-1,1l-2,-1l-1,-1h2ZM143,771h-1v1l-1,1h-2l1,-1h-1l1,-1h2ZM136,771h1v1h-4l-2,1h-1l1,-1h-1l-1,-1l2,-1h1l2,1l1,1v-2h2ZM246,780h-3l-2,-1v-1l1,-2h-1l1,-1l-1,-1h1l4,-2h2l-1,1l-2,1l-1,1v2l-1,1l1,1ZM145,770l1,1h1l-1,1h1l1,1h4v1h-7l-1,-1l1,-1v-1h-2l1,-1ZM134,769l-2,1h-4l2,-1h3ZM271,770l1,1v-1h2l2,1h1v1l-1,1h1l2,1v-1l1,1l1,-1h2l1,1h3l-2,-1h5l1,1v1h2l2,1l-1,-1h1l1,-1l2,1v-1h1l-2,-1h8l3,1l1,-1h2l2,2h2v-1h3l3,1v-1h-2v-1h7l8,5h-1l1,1l2,1h2v1h-1v1h-1l1,1v2l-2,-1v2l-1,-1v1h-1l2,2v1h1l3,2h-1l1,1h1v1l1,2h-1l1,2l1,1l-4,-2l-4,-3l-1,-2l-1,-1v-3l-1,-2v-1l-2,-2l-1,1l2,2l-3,-1l-1,1l1,2l1,1h-1l-1,1l-1,-1h-1v1h-4v7h1l2,1h1l-1,-1h1l3,1l1,2l1,1l1,2l2,2v9h-1l-1,-1v2h-1v1l1,1v1h-1v1l1,1h1l2,2v1l1,1v1l-1,1h-1l-1,-2l-1,-1h1l-2,-1v-1v1v-1h-1v-1l-1,-1h-2v1h-1l-1,-1l1,-1l-1,-1l-1,1v2h-1v1l2,2h1v-1h2l1,1l-2,1v2l2,2l1,2l2,1v2h1v6l-2,4l-1,1h-1v1l-1,-1v1l-2,1h-1v2l-1,-1v-1h-2l-1,2v2l1,1l1,2l2,2l1,3v4l-2,1v1l-2,1v-2l-1,-1h-1v-1l-2,-2h-1v-1h-1v6h1v3l1,1h1v1h1v1l1,1v3h1v2h-1l-2,-2v-1l-1,-1v-1l-1,-1v-2l-1,-1v-1h-1v-6l-1,-1v-1l-1,-2v-2l-1,-1l-2,2h-1v-3l-1,-2v-1h-1l-2,-2v-1l-1,-1h-1v2l-1,-1v1h-2v2l-2,1l-1,2v1l-2,2h-1v8l-1,1l1,1h-1l-1,1l-1,-1l-1,-2v-1l-1,-1v-1l-1,-2v-1l-3,-6v-3l-2,1h-1l-1,-2v-1l-2,-1l-1,-1v-1l-1,-1l-2,1h-5l-1,-1h-2v-2h-1l-1,1h-2l-3,-3l-1,-2l-1,1v-1l-1,1v2l1,1h1l1,1v2l1,1l-1,-1l1,-1v2h1v1l1,-1h2v-1l1,-1v-1v2l2,2h1l2,2l-1,1v1h-1v3h-1v1h-1v1h-2v1h-1l-2,2h-1l-2,2v-1l-1,1h-2v1h-2v-2l-1,-1v-3h-1v-1l-1,-1v-1l-1,-1h-1v-1l-1,-1v-3h-2v-2l-1,-1v-1l-2,-2v-1v1l-1,1l-1,-1l-1,-2l1,2l1,1l1,2v1l2,2h-1l2,2v1l1,1h-1l1,2v1l1,1l1,2v1l1,1l2,1v1h1v1h1v1l-1,1h1l1,1h3l1,-1h3v-1h1v2l-1,1v3l-1,1l-3,6l-1,1l-2,1l-1,1l-1,2v1h-1v1h-1v2l-1,1l-1,2l1,1v4l1,1v7l-1,1h-1l-3,3h-1v1l-1,1v2h1l-1,1h1v1l-1,1h1l-1,1h-1l-2,2v3l-3,3v1l-2,1v1l-1,1h-2v1l-1,-1v1l-1,-1l-1,1h-2l-1,1l-1,-1h-1v-5l-1,-1v-2l-1,-1v-1l-1,-1v-5l-1,-1v-1l-1,-2v-1l-1,-1v-3l1,-1v-3h1v-1l1,-1v-1h-1v-5l-1,-1v-2l-3,-3l-1,-2l1,-1v-5l-1,-1v-1l-1,1h-2l-1,-1v-1l-1,-1h-2l-1,1h-2l-1,1h-6l-1,1l-4,-4h-1l-1,-1v-1l-1,-1v-1h-1v-1l-1,-1v-1h-1v-3h-1l1,-1v-1h1l-1,-1l1,-1v-4l-1,-1v-1h1v-2l1,-1v-1h1v-2h1l1,-2h1l2,-2v-3l3,-3l1,-2v-1h1l1,1h2l1,-1h2l1,-1h4l1,-1h1v1h1l1,-1h1v1l1,-1v1h-1v1h1v2h-1v1h1v1h3l2,2h1l2,2l1,-1v-2l1,-1h2l1,1h1l1,1h2l1,1h1v-1h2l1,1v-1h1l1,1v-2l1,-1v-5h-2l-1,1l-1,-1h-2v1l-1,-1h-2v-1l-1,-1v-2l1,-1h1v-1h2l1,-1h1l2,-1l2,1l1,1h2l1,-1v-2h-1l-2,-2h-1l-1,-1l1,-1l-1,-1h2l-1,-1v1h-2l-1,1v1h1l-1,1h-1v-1h-1l1,-1h-2v-1h-1v1l-1,1v1h-1v4l1,1h-2v1h-1v-1h-2l1,1h-2v1l1,1h-1h1l1,1v1l-1,-1v1h-1l1,1h-2v-2l-1,-1v-1h-1v-3h-1v-1h-1l-1,-1h-1l-1,-1v-1l-1,-1v1v-1h-2v1l2,2v1l1,1h1l1,1h1l1,1v1l-1,-1h-1v1h1v1h-1v1h-1v-1h1l-1,-1v-1h-1l-1,-1h-1l-2,-2l-1,-2h-2v1h-4l-1,1v2h-2v1l-1,2h1l-1,1v1h-1l-1,1h-2l-1,1l-2,-2v1h-2l1,-1v-1h-1v-2l1,-1v-3l-1,-1l2,-1l1,1h5v-4l-1,-1v-1h-2v-1h3v-2l1,1l2,-1v-1h1l1,-1l1,-2l1,-1h2v-5h2l-1,1h1v1l-1,1v1h1v1l1,-1h2v1h1l2,-2l1,1h1v-1h1v-3l1,-1l1,1v-1l-1,-1v-1h4l1,-1h-4l-1,1l-2,-2v-4l2,-1v-1l-1,-1l-2,2l-1,2l-1,1v3h1v2h-1v2l-1,2h-1v1h-1v-2l-1,-1l-1,-2l-1,-1l-1,2h-1l-2,-1v-5l2,-1l3,-3l2,-3l3,-3h2l1,-2h3l2,1l-1,1h2l1,1h3l3,1l1,1v1l-1,1h-1l-3,-1h-1l2,1v2l1,1h1v-1h-1l1,-1l2,1v-1l1,-2h1l1,1v-1l-1,-1v-1l-1,-1l2,1h1l-1,1l1,1h1v-1l1,-1l2,-1h1v1l1,-1h1l1,-1l1,1l1,-1h-2l1,-1h2l1,1l4,1v-1h-2v-1h-1l-1,-1v-3h2l1,1v1h1l1,1l1,2h1v3l1,1v-1h1l-1,-1l1,-1h-1l-2,-2v-1l-2,-1l1,-1l-1,-1h1l1,2l-1,-1l1,-1h2l1,1l-1,-1l-1,-2h4l-2,-1v-1h1l1,-1h3l1,-1h1v-2l2,1h-1ZM253,820l1,1v2h-1v1l1,1h1l1,1h3l-1,-1v-2h-1v-2h1v-1l-1,-1h-1l1,1l-1,-1v-1h-2v-2h-1h1v-2l1,1v-3h-2l-1,1h-1v1h-1l-1,2l2,1v1l1,1Z"/>
<path class="tl" d="M146,770h-1v-1h1l1,1ZM137,769h-2l1,-1h1l1,1ZM220,771l-1,1h-1v-1h-1l2,-1v1ZM139,768h-2l1,-1v1ZM146,769h-1v-1h1l1,1ZM144,769h-1l-1,-1h-1h1v-1h1l1,1ZM268,768l-3,1v-2ZM215,769l3,1h-2v3h-1l-2,-1h1l-1,-1l-2,-1v-1l1,-1l1,1h1v-1h1ZM220,768h1l-1,1h-4l-1,-1h3ZM234,767l-1,1h-1v-1h-1h4ZM264,768h-4l-2,-1l-1,-1h1l1,-1l4,2ZM153,767v1h-1l-2,1h-2v-1h1h-1v-1l1,-1h2v-1h1v1h1ZM167,764h3v1h-3l-1,1h-1l-1,1l-2,1h-3v1h-1v1h-2l-2,1h1l-2,1h-4l-1,-1h2v-1h2v-1h-1h1l1,-1h1l-1,-1h4l-1,-1h-3v-1l1,-1h6v-1h3v1l2,-1l1,1ZM190,764l3,1h-6v1h5l-1,1l2,-1h4v1l-2,1h-1l-2,2v2l1,1h-2l1,1l-1,1v1h-1l1,1h-3l1,1v1l-1,-1l-1,1h1l1,1v1h-2l-1,-1v1l-1,1h3l-4,2h-3l-1,1l-4,2h-1l-2,1h-1v1l-2,2v1l-1,1l-1,2h-1l-1,-1h-1l-1,-1v-2l-1,-1v-1l1,-1l-1,-2l1,-1l1,-2h1l1,-1v-1l-1,1h-1v-1l1,-1h1l-1,-1h-1l1,-1v-4l-1,-1h-5v-1l-1,-1h1l-1,-1l1,-1h2l3,-1h1l-2,-1h1l3,-1h1v-1h9l1,1l-1,-1h1l2,-1h3l2,-1Z"/>
<path class="tg" d="M66,970h1l1,-1h4v-1h5v-1h5v-1h6v-1h6l1,-1h7v-1h8v-1h9l1,-1h11v-1h14v-1h20v-1h79v1h20v1h14v1h11l1,1h9v1h8v1h7l1,1h6v1h6v1h5v1h5v1h4l1,1h1M21,927h6v-1h7v-1h8v-1h10v-1h10v-1h12v-1h14v-1h18v-1h23v-1h38v-1h75v1h38v1h23v1h18v1h14v1h12v1h10v1h10v1h8v1h7v1h6M5,877h399M21,826h4v1h7v1h8v1h9v1h10v1h11v1h14v1h16v1h21v1h32v1h103v-1h32v-1h21v-1h16v-1h14v-1h11v-1h10v-1h9v-1h8v-1h7v-1h4M66,783v1h5v1h4v1h5l1,1h5v1h6l1,1h6l1,1h7v1h10v1h10v1h13l1,1h17v1h36v1h21v-1h36v-1h17l1,-1h13v-1h10v-1h10v-1h7l1,-1h6l1,-1h6v-1h5l1,-1h5v-1h4v-1h5v-1M140,755h-1v1h-3v1h-2v1h-2v1h-2v1h-2v1h-2l-1,1h-1l-1,1h-1l-1,1h-1v1h-2v1h-2v1h-2v1h-1l-1,1h-1v1h-2v1h-1l-1,1h-1v1h-2v1h-1v1h-2v1h-1v1h-2v1h-1v1h-1l-1,1h-1v1h-1v1h-2v1h-1v1h-1v1h-1v1h-2v1h-1v1h-1v1h-1v1h-1v1h-1v1h-1l-1,1h-1v1h-1v1h-1v1h-1v1h-1v1h-1v1h-1v1h-1v1h-1v1l-1,1v1h-1v1h-1v1h-1v1h-1v1h-1v1l-1,1v1h-1v1h-1v1h-1v2h-1v1h-1v2h-1v1h-1v2h-1v1h-1v2h-1v2h-1v1h-1v2h-1v2h-1v2h-1v2h-1v2l-1,1v2h-1v2l-1,1v2h-1v3h-1v4h-1v4h-1v5h-1v9h-1v13l1,1v8h1v5h1v4h1v4h1v3h1v3h1v2h1v3h1v2h1v2h1v2h1v2h1v2h1v2h1v1l1,1v1h1v2h1v1h1v2h1v1h1v1h1v2h1v1h1v1l1,1v1h1v1h1v1h1v1l2,2v1h1v1h1v1h1v1h1v1h1v1h1v1h1v1h1v1h1v1h1v1h1v1h1v1h1v1h2v1h1v1h1v1h1v1h1v1h1l1,1h1v1h1v1h1v1h2v1h1v1h1l1,1h1v1h1v1h2v1h1v1h2v1h1l1,1h1v1h2v1h1v1h2v1h2v1h1l1,1h1v1h2v1h2v1h2v1h2v1h2v1h2v1h2v1h2l1,1h2v1h2v1h2M153,755h-1v1h-2v1h-2v1h-1v1h-2v1h-2v1h-1v1h-2v1h-1v1h-2v1h-1v1h-2v1h-1v1h-1v1h-2v1h-1v1h-1l-1,1h-1v1h-1v1h-1v1h-1v1h-1l-1,1h-1v1h-1v1h-1v1h-1v1h-1v1h-1v1h-1v1h-1v1h-1v1h-1v1h-1v1h-1v1h-1v1h-1v1h-1v1h-1v1h-1v1l-2,2v1h-1v1h-1v1h-1v1l-1,1v1h-1v1h-1v2h-1v1h-1v1l-1,1v1h-1v2h-1v1h-1v2h-1v1h-1v2h-1v2h-1v2h-1v2h-1v2h-1v2h-1v2h-1v3h-1v2h-1v3h-1v3h-1v3h-1v3h-1v4l-1,1v4h-1v6l-1,1v30h1v6h1v5h1v4h1v3h1v3l1,1v2l1,1v2h1v3h1v2h1v2h1v2h1v2l1,1v1h1v2h1v2h1v2h1v2h1v1h1v2h1v1h1v2h1v1h1v2h1v1h1v1h1v2h1v1h1v1h1v1l1,1v1h1v1h1v1h1v1h1v1h1v1h1v1l3,3v1h1l3,3h1v1h1v1h1v1h1v1h1v1h1v1h1v1h1l1,1h1v1h1v1h1v1h1l1,1h1v1h1v1h1l1,1h1v1h1v1h2v1h1v1h2v1h1v1h2v1h2v1h1v1h2v1h1l1,1h1v1h2M166,755h-1v1h-1v1h-1l-1,1h-1v1h-1v1h-1v1h-1v1h-1v1h-1l-2,2h-1v1h-1v1h-1v1h-1v1h-1v1h-1v1h-1v1h-1v1h-1v1l-2,2v1h-1v1h-1v1h-1v1h-1v1l-1,1v1h-1v1h-1v1h-1v2h-1v1h-1v1l-1,1v1h-1v1h-1v2h-1v1h-1v2h-1v2h-1v1h-1v2h-1v2h-1v2h-1v1l-1,1v1l-1,1v1l-1,1v2h-1v2h-1v2h-1v3h-1v2h-1v3h-1v3h-1v3h-1v3h-1v4h-1v4h-1v5h-1v6h-1v8h-1v30h1v7l1,1v5h1v5h1v4h1v4h1v3h1v3h1v3h1v3h1v3h1v2h1v2h1v2l1,1v2h1v2h1v2h1v2h1v1h1v2h1v2h1v2h1v1h1v2h1v1h1v2h1v1l1,1v1h1v1h1v2h1v1h1v1h1v1l1,1v1h1v1h1v1h1v1l1,1v1h1v1h1v1h1v1h1v1h1v1h1v1h1v1h1v1h1v1h1v1h1v1h1v1h1v1h1v1h1l2,2h1v1h1v1h1v1h1v1h2v1h1"/>
<path class="tg" d="M179,755h-1v1h-1v2h-1v1h-1v1h-1v1h-1v2h-1v1h-1v1l-1,1v1h-1v1l-1,1v1h-1v1l-1,1v1h-1v2h-1v1l-1,1v1h-1v2h-1v2h-1v2h-1v2h-1v2h-1v2h-1v2h-1v2h-1v2l-1,1v2h-1v2l-1,1v2h-1v3h-1v3h-1v3h-1v3h-1v4h-1v4h-1v4h-1v4h-1v5l-1,1v5h-1v8h-1v11h-1v29l1,1v10l1,1v7h1v6h1v5h1v4l1,1v4h1v3l1,1v3h1v3h1v3h1v3h1v3h1v3h1v2h1v3h1v2h1v2h1v2l1,1v2h1v2h1v1l1,1v1l1,1v1h1v2h1v2h1v1l1,1v1h1v2h1v1h1v2h1v1h1v2h1v1h1v1l1,1v1h1v1h1v1h1v2h1v1h1v1h1M192,755h-1v3h-1v2h-1v3h-1v3h-1v3h-1v3h-1v3h-1v3l-1,1v3h-1v4h-1v4h-1v4l-1,1v4h-1v5h-1v6h-1v6l-1,1v7h-1v8h-1v11l-1,1v18h-1v29l1,1v18h1v11h1v8l1,1v7h1v6h1v6h1v5h1v5h1v4h1v4h1v4h1v4h1v3h1v3l1,1v3h1v2l1,1v2h1v3h1v3h1v2h1M205,755v243M217,755h1v3h1v2h1v3h1v3h1v3h1v3h1v3h1v3l1,1v3h1v4h1v4h1v4l1,1v4h1v5h1v6h1v6l1,1v7h1v8h1v11l1,1v18h1v29l-1,1v18h-1v11h-1v8l-1,1v7h-1v6h-1v6h-1v5h-1v5h-1v4h-1v4h-1v4h-1v4h-1v3h-1v3l-1,1v3h-1v2l-1,1v2h-1v3h-1v3h-1v2h-1M230,755h1v1h1v2h1v1h1v1h1v1h1v2h1v1h1v1l1,1v1h1v1l1,1v1h1v1l1,1v1h1v2h1v1l1,1v1h1v2h1v2h1v2h1v2h1v2h1v2h1v2h1v2h1v2l1,1v2h1v2l1,1v2h1v3h1v3h1v3h1v3h1v4h1v4h1v4h1v4h1v5l1,1v5h1v8h1v11h1v29l-1,1v10l-1,1v7h-1v6h-1v5h-1v4l-1,1v4h-1v3l-1,1v3h-1v3h-1v3h-1v3h-1v3h-1v3h-1v2h-1v3h-1v2h-1v2h-1v2l-1,1v2h-1v2h-1v1l-1,1v1l-1,1v1h-1v2h-1v2h-1v1l-1,1v1h-1v2h-1v1h-1v2h-1v1h-1v2h-1v1h-1v1l-1,1v1h-1v1h-1v1h-1v2h-1v1h-1v1h-1M243,755h1v1h1v1h1l1,1h1v1h1v1h1v1h1v1h1v1h1l2,2h1v1h1v1h1v1h1v1h1v1h1v1h1v1h1v1h1v1l2,2v1h1v1h1v1h1v1h1v1l1,1v1h1v1h1v1h1v2h1v1h1v1l1,1v1h1v1h1v2h1v1h1v2h1v2h1v1h1v2h1v2h1v2h1v1l1,1v1l1,1v1l1,1v2h1v2h1v2h1v3h1v2h1v3h1v3h1v3h1v3h1v4h1v4h1v5h1v6h1v8h1v30h-1v7l-1,1v5h-1v5h-1v4h-1v4h-1v3h-1v3h-1v3h-1v3h-1v3h-1v2h-1v2h-1v2l-1,1v2h-1v2h-1v2h-1v2h-1v1h-1v2h-1v2h-1v2h-1v1h-1v2h-1v1h-1v2h-1v1l-1,1v1h-1v1h-1v2h-1v1h-1v1h-1v1l-1,1v1h-1v1h-1v1h-1v1l-1,1v1h-1v1h-1v1h-1v1h-1v1h-1v1h-1v1h-1v1h-1v1h-1v1h-1v1h-1v1h-1v1h-1v1h-1v1h-1l-2,2h-1v1h-1v1h-1v1h-1v1h-2v1h-1M256,755h1v1h2v1h2v1h1v1h2v1h2v1h1v1h2v1h1v1h2v1h1v1h2v1h1v1h1v1h2v1h1v1h1l1,1h1v1h1v1h1v1h1v1h1l1,1h1v1h1v1h1v1h1v1h1v1h1v1h1v1h1v1h1v1h1v1h1v1h1v1h1v1h1v1h1v1h1v1h1v1l2,2v1h1v1h1v1h1v1l1,1v1h1v1h1v2h1v1h1v1l1,1v1h1v2h1v1h1v2h1v1h1v2h1v2h1v2h1v2h1v2h1v2h1v2h1v3h1v2h1v3h1v3h1v3h1v3h1v4l1,1v4h1v6l1,1v14l1,1h-1v15h-1v6h-1v5h-1v4h-1v3h-1v3l-1,1v2l-1,1v2h-1v3h-1v2h-1v2h-1v2h-1v2l-1,1v1h-1v2h-1v2h-1v2h-1v2h-1v1h-1v2h-1v1h-1v2h-1v1h-1v2h-1v1h-1v1h-1v2h-1v1h-1v1h-1v1l-1,1v1h-1v1h-1v1h-1v1h-1v1h-1v1h-1v1l-3,3v1h-1l-3,3h-1v1h-1v1h-1v1h-1v1h-1v1h-1v1h-1v1h-1l-1,1h-1v1h-1v1h-1v1h-1l-1,1h-1v1h-1v1h-1l-1,1h-1v1h-1v1h-2v1h-1v1h-2v1h-1v1h-2v1h-2v1h-1v1h-2v1h-1l-1,1h-1v1h-2"/>
<path class="tg" d="M269,755h1v1h3v1h2v1h2v1h2v1h2v1h2l1,1h1l1,1h1l1,1h1v1h2v1h2v1h2v1h1l1,1h1v1h2v1h1l1,1h1v1h2v1h1v1h2v1h1v1h2v1h1v1h1l1,1h1v1h1v1h2v1h1v1h1v1h1v1h2v1h1v1h1v1h1v1h1v1h1v1h1l1,1h1v1h1v1h1v1h1v1h1v1h1v1h1v1h1v1h1v1l1,1v1h1v1h1v1h1v1h1v1h1v1l1,1v1h1v1h1v1h1v2h1v1h1v2h1v1h1v2h1v1h1v2h1v2h1v1h1v2h1v2h1v2h1v2h1v2l1,1v2h1v2l1,1v2h1v3h1v4h1v4h1v5h1v9h1v13l-1,1v8h-1v5h-1v4h-1v4h-1v3h-1v3h-1v2h-1v3h-1v2h-1v2h-1v2h-1v2h-1v2h-1v2h-1v1l-1,1v1h-1v2h-1v1h-1v2h-1v1h-1v1h-1v2h-1v1h-1v1l-1,1v1h-1v1h-1v1h-1v1l-2,2v1h-1v1h-1v1h-1v1h-1v1h-1v1h-1v1h-1v1h-1v1h-1v1h-1v1h-1v1h-1v1h-1v1h-2v1h-1v1h-1v1h-1v1h-1v1h-1l-1,1h-1v1h-1v1h-1v1h-2v1h-1v1h-1l-1,1h-1v1h-1v1h-2v1h-1v1h-2v1h-1l-1,1h-1v1h-2v1h-1v1h-2v1h-2v1h-1l-1,1h-1v1h-2v1h-2v1h-2v1h-2v1h-2v1h-2v1h-2v1h-2l-1,1h-2v1h-2v1h-2"/>
<rect x="55" y="902" width="27" height="23" fill-opacity="0" stroke="#ffffff" stroke-opacity="0.5" stroke-width="5.0"/>
<rect x="57" y="904" width="27" height="23" fill-opacity="0" stroke="#113311" stroke-opacity="0.8" stroke-width="5.0"/>
<rect x="56" y="903" width="27" height="23" fill-opacity="0" stroke="#45a249" stroke-opacity="0.9" stroke-width="5.0"/>
<rect x="691" y="691" width="309" height="309" fill="#ffffff" fill-opacity="1.0"/>
<rect x="694" y="694" width="302" height="302" fill="#000000" fill-opacity="1.0"/>
<rect x="700" y="700" width="300" height="300" fill="#70add3" fill-opacity="1.0"/>
<rect class="zh" x="757.5" y="875.5" width="1" height="1"/>
<rect class="zh" x="967.5" y="858.5" width="1" height="1"/>
<path class="zh" d="M828,842l1,1v3h-1l-1,-2v-1Z"/>
<rect class="zh" x="730.5" y="826.5" width="1" height="1"/>
<circle class="w1" cx="828" cy="844" r="18"/>
<circle class="w1" cx="828" cy="844" r="16"/>
<circle class="c1" cx="828" cy="844" r="17"/>
<circle class="w1" cx="757" cy="876" r="17"/>
<circle class="w1" cx="757" cy="876" r="15"/>
<circle class="c1" cx="757" cy="876" r="16"/>
<circle class="w1" cx="968" cy="858" r="16"/>
<circle class="w1" cx="968" cy="858" r="14"/>
<circle class="c1" cx="968" cy="858" r="15"/>
<circle class="w1" cx="731" cy="826" r="16"/>
<circle class="w1" cx="731" cy="826" r="14"/>
<circle class="c1" cx="731" cy="826" r="15"/>
</svg>
