<?xml version="1.0" encoding="UTF-8" standalone="no"?>
<svg xmlns:svg="http://www.w3.org/2000/svg" xmlns="http://www.w3.org/2000/svg" xmlns:xlink="http://www.w3.org/1999/xlink" height="1000" width="1000">
<!-- made with pythonshp (GPL): github.com/sanjayrao77/pythonshp , underlying data may come from naturalearthdata.com -->
<!-- 
COPYRIGHT: THIS SVG FILE IS RELEASED INTO THE PUBLIC DOMAIN
 -->
<!-- 
vars : {
	'cmdline' : 'pythonshp.py publicdomain wiki1 palau locatormap'
	'title' : 'Palau locator'
	'version' : '1.0.5'
}
 -->
<defs>
	<radialGradient id="watergradient" cx="500" cy="500" r="500" fx="500" fy="500" gradientUnits="userSpaceOnUse">
		<stop offset="0%" stop-color="#70add3"/>
		<stop offset="11%" stop-color="#6eaad0"/>
		<stop offset="22%" stop-color="#6ca7cc"/>
		<stop offset="31%" stop-color="#6ba5c9"/>
		<stop offset="41%" stop-color="#69a2c6"/>
		<stop offset="51%" stop-color="#679fc2"/>
		<stop offset="59%" stop-color="#669dbf"/>
		<stop offset="67%" stop-color="#649abc"/>
		<stop offset="75%" stop-color="#6297b9"/>
		<stop offset="81%" stop-color="#6095b6"/>
		<stop offset="87%" stop-color="#5f92b2"/>
		<stop offset="92%" stop-color="#5d8faf"/>
		<stop offset="95%" stop-color="#5b8dac"/>
		<stop offset="98%" stop-color="#598aa8"/>
		<stop offset="100%" stop-color="#5685a2"/>
	</radialGradient>
	<radialGradient id="landgradient" cx="500" cy="500" r="500" fx="500" fy="500" gradientUnits="userSpaceOnUse">
		<stop offset="0%" stop-color="#dddddd"/>
		<stop offset="11%" stop-color="#d7d7d7"/>
		<stop offset="22%" stop-color="#d1d1d1"/>
		<stop offset="31%" stop-color="#cccccc"/>
		<stop offset="41%" stop-color="#c6c6c6"/>
		<stop offset="51%" stop-color="#c0c0c0"/>
		<stop offset="59%" stop-color="#bbbbbb"/>
		<stop offset="67%" stop-color="#b5b5b5"/>
		<stop offset="75%" stop-color="#afafaf"/>
		<stop offset="81%" stop-color="#aaaaaa"/>
		<stop offset="87%" stop-color="#a4a4a4"/>
		<stop offset="92%" stop-color="#9e9e9e"/>
		<stop offset="95%" stop-color="#999999"/>
		<stop offset="98%" stop-color="#939393"/>
		<stop offset="100%" stop-color="#888888"/>
	</radialGradient>
	<radialGradient id="bordergradient" cx="500" cy="500" r="500" fx="500" fy="500" gradientUnits="userSpaceOnUse">
		<stop offset="0%" stop-color="#444444"/>
		<stop offset="11%" stop-color="#3f3f3f"/>
		<stop offset="22%" stop-color="#3a3a3a"/>
		<stop offset="31%" stop-color="#363636"/>
		<stop offset="41%" stop-color="#323232"/>
		<stop offset="51%" stop-color="#2d2d2d"/>
		<stop offset="59%" stop-color="#292929"/>
		<stop offset="67%" stop-color="#242424"/>
		<stop offset="75%" stop-color="#1f1f1f"/>
		<stop offset="81%" stop-color="#1b1b1b"/>
		<stop offset="87%" stop-color="#161616"/>
		<stop offset="92%" stop-color="#121212"/>
		<stop offset="95%" stop-color="#0e0e0e"/>
		<stop offset="98%" stop-color="#090909"/>
		<stop offset="100%" stop-color="#000000"/>
	</radialGradient>
</defs>
<style type="text/css">
<![CDATA[
.c1 {stroke:#45a211;fill-opacity:0}
.c3 {stroke:#45a211;fill-opacity:0;stroke-width:3}
.fs {font:14px sans;stroke:#ffffff;stroke-width:2px;stroke-opacity:0.8;text-anchor:middle}
.ft {font:14px sans;fill:#000000;fill-opacity:1;stroke-opacity:0;text-anchor:middle}
.sb {stroke:url(#bordergradient);fill-opacity:0}
.sg {stroke:#000000;fill-opacity:0.0;stroke-opacity:0.2}
.sh {fill:#45a211;stroke:#000000}
.sl {fill:url(#landgradient);stroke:url(#bordergradient)}
.sp {stroke:url(#landgradient);fill-opacity:0}
.sr {stroke:url(#watergradient);fill-opacity:0}
.sw {fill:url(#watergradient);stroke:url(#watergradient);stroke-opacity:0.8}
.tb {fill:#eeeeee;stroke:black;stroke-width:2}
.tg {stroke:black;stroke-opacity:0.2;fill-opacity:0}
.th {fill:#45a211;stroke:#378100}
.tl {fill:#aaaaaa;stroke:black}
.w1 {stroke:#ffffff;fill-opacity:0;stroke-opacity:0.6}
.w3 {stroke:#ffffff;fill-opacity:0;stroke-opacity:0.6;stroke-width:3}
.zh {fill:#45a211;stroke:#115511}
.zl {fill:#dddddd;stroke:#444444}
.zp {stroke:#dddddd;stroke-dasharray:3 3;fill-opacity:0}
]]>
</style>
<circle cx="500.0" cy="500.0" r="500.0" fill="url(#watergradient)"/>
<path class="sl" d="M176,119l-1,1l1,-1h1ZM172,123h-1ZM169,125v1h-1l-1,1l2,-2h1Z"/>
<path class="sp" d="M173,122l3,-3h1M171,123h1M167,127l2,-2h1"/>
<path class="sl" d="M772,81v-1h-1l-2,-1l-1,-1l-2,-1v-1h-1h1h-1l-1,-1h-1l-1,-1h-1v-1l1,1h-1l-1,-1h-1v-1l-2,-1l-1,-1h-1h1v1h1l2,2h1l1,1h1l1,1l-1,-1h-1l-1,-1h-1v-1h-2v-1l1,1h1v1v-1h-1l1,1l-1,-1l1,1h1v1v-1v1h2v1h1h-1l-1,-1h-1v-1h-2v-1h-2v-1h-1l-1,-1h-1l-1,-1h-1l-1,-1l1,1h1l1,1l-1,-1h-1v-1h-1l1,1h1h-2l-1,-1h-1h1v1v-1h-1v1h-1v-1h-2l-1,-1h-1v-1l2,2h-1v-1h-1l-1,-1v1v-1h-2l-1,-1h-1h1v1v-1h-1l1,1h-1v-1l-1,-1v1h1h-1h1v1h1l1,1h1v1v-1h1v1h1v1h1l1,1h-1l1,1h1h-1v-1v1h1h-1h1v1h1h-1h1h-1l1,1h1v1h-2v-1l-1,-1h-2l-4,-4h-2v-1h-1v-1h1l-2,-1h-1v-1h-1h1v1h-1h1v1h1v1h1l2,2h1v1l-1,-1v1h2l1,1v1h1v1h1l2,2h2v1h1l2,2h1v1h1v1l1,1v1h1v2h1l1,1h1h-1v1h1v1l1,1h-1v-1v1h1l-1,1h2v1h1v1l-1,-1l1,1v2h1h-1v-1h-1v1l1,1h-1v1l-2,-2v1l2,2v1v-1h-1v1h1h-1v1v-1h-1v-1h-1h1l-2,-2v-2h1v-1v1l1,1h1l-1,-1h1h-1v-1h-1l-1,-1v-1h-1v-2h1h-1v-1h-1v-1h-1v-1h-1v-1h1h-1l-2,-2h-1l-2,-2h-1l-1,-1v-1l-2,-1l-1,-1l2,2v1h-1l-1,-1h-1v-1h1h-2l1,1h-1h2v1l2,1h-1l-4,-2h1v1l-1,-1h-2l1,1h-1h1v1h-1v-1h-1l-1,-1h-1v-1h-1l-1,-1h-1v-1h-1l-4,-2l-1,-1h-1l-1,-1v-1v1l1,1h1v1h1l1,1h-1h1h-1v1h-1l-1,-1l-2,-1h-2l-1,-1h-1l-2,-2h2v1h2v-1h-5v-1h-2l-1,-1h-2v-1v1l-1,-1h-1h1h-1v-1h-1v-1h-1l-1,-1v-1h1h-1l-1,-1l1,1l-1,-1h-1l-2,-2h2v1h1v-1v1v-1l-1,-1v-1v1h1l1,-1h-1v-1h-2l-2,-2h-3v-1l-1,-1h-2l2,2h-1l-2,-1l1,1h1h-7l-1,-1h-2l-1,-1h-1h1l-1,-1h1h-4l-2,-1h-1h1l-1,-1h1l-1,-1h1l-1,-1v-1h2l1,1h1l1,1h3l-1,-1h1h-1l-1,-1h-1l-2,-1h-2v-1v1h3v1h3l-1,-1h-1v1l-1,-1h-1l-1,-1h-5l-2,-1l-1,-1l-5,-1h-2l-1,-1h-2l-1,-1h-1l-1,-1h3l-2,-2h-1l-1,-1l-2,-1l-1,-1l1,1v-1h-1v-1h1v1h1l-1,-1h-1l-1,-1l1,1v-1l-1,-1h-1v-1h-1h1v1h3v1h1l-1,-1h2v1h1v-1h2v1h7v1h1v-1l1,1v-1l1,1h1h-1v-1h1l1,1h4l2,1h1v1h1v-1h-2l-1,-1l1,1l-1,-1h-2v-1h-1h1v1h3v1l-1,-1h-1l-1,-1h-2l-1,-1h-1l-1,-1h-1h1l1,1h2l1,1h1l1,1h2l1,1h1l1,1h1h-1v-1h-3v-1h-2v-1h-1h1v1h1l-2,-1h-2l-1,-1h1l1,1h1l1,1h2l1,1h1l1,1h2l1,1h2l1,1h1l1,1h2l1,1h1l1,1h1l1,1h1l1,1h2l1,1h1l1,1h2l1,1h1l1,1h1l1,1h1l1,1h1l1,1h1l1,1h2l2,2h1l1,1h2l1,1h1l1,1h1l2,2h2l2,2h1l1,1h1l1,1h1l1,1h1l1,1h1l2,2h1l1,1h1l2,2h1l1,1h2l2,2h1l2,2h1l1,1h1l2,2h1l2,2h1l2,2h1l1,1Z"/>
<path class="sp" d="M671,30h1l1,1h1l1,1h2l1,1h1l1,1h2l1,1h2l1,1h1l1,1h2l1,1h1l1,1h1l1,1h1l1,1h2l1,1h1l1,1h2l1,1h1l1,1h1l1,1h1l1,1h1l1,1h1l1,1h2l2,2h1l1,1h2l1,1h1l1,1h1l2,2h2l2,2h1l1,1h1l1,1h1l1,1h1l1,1h1l2,2h1l1,1h1l2,2h1l1,1h2l2,2h1l2,2h1l1,1h1l2,2h1l2,2h1l2,2h1l2,2"/>
<path class="sl" d="M14,384l-1,2v3h-1h1h-1v4l-1,2v3h-1v4l-1,3v4l-1,1h1v-2l1,-1v1v-1l1,-1v-1v1l1,-2v1l3,-3v-2l1,1v1h-1v3l-1,2v5h-1v1l1,-1v1h-1v1l-1,3v2l-1,2v3l-1,2v3l-2,5v4l-1,1v3l-1,2v5l-1,6l-2,8v4l-2,14v4l-1,3v1v-11l1,-1v-15l1,-1v-10l1,-1v-8l1,-1v-8l1,-1v-6l1,-1v-5l1,-1v-5l1,-1v-4l1,-1v-5l1,-1v-3l1,-1v-5l1,-1v-3l1,-1v-3l1,-1v-1Z"/>
<path class="sp" d="M0,500v-22l1,-1v-15l1,-1v-10l1,-1v-8l1,-1v-8l1,-1v-6l1,-1v-5l1,-1v-5l1,-1v-4l1,-1v-5l1,-1v-3l1,-1v-5l1,-1v-3l1,-1v-3l1,-1v-1"/>
<path class="sl" d="M124,171v-1l1,-1h1l1,-2l1,-1l1,-2l2,-1l1,-2h1v-1l2,-2h1v-1l1,-1l-1,1v1h-1h1h-1v1l-2,2v1h-1h1v-1v1h-1h1l-1,1v1h-1l-1,1v1h-1v2h-1v1h-1l-1,1v1h-1v1h-1v1v-1h1v-2h1h-1v1h-1v1h-1v1l-2,2v1h-1v1l-2,2v1h-1v1h-1v1l-1,1h1h-1v1h-1v1h-1v1v-1v1l-1,1v1v-1l-1,1l1,-1l1,-2h1v-1l1,-1v-1v1v-1h1v-1v1h-1l-1,2h-1v2h-1v1h-1v1l1,-1v1l1,-2l2,-2h1v-1h1l-3,3v1h-1v1h-1v1l-1,1l-1,2v-1v1l-1,2h-1v1l-2,2v3l-2,2v1l-1,1v1h1l3,-1h1h-1h1v-1l3,-3h1l1,-2l1,-1h1l1,-1h2v-1h1v2h-1v1h1v1l-1,1h1v3h-1v3l-1,2h2l-2,2v1l-1,1v1l-1,1v1h-1v1h-1v1l-1,1v1h-1v1h-1v1h-1v1l-2,2v1h-1l-1,1l-1,2l-1,1v1h1l-3,3v1h-1v2l-1,1l-1,3h-1l-1,2v1l-2,2v1h1l1,1l-1,2l-1,1v1l-2,1l-1,2l-4,4v4h-1v3l-1,1v5h1h-1v2l-1,1l-1,3l-1,1v1h1v1h-1v2h-1v1l-1,1v-1l-1,1h-1l-1,1v1h-1l-1,1v1l-1,1v1h-1v1l-1,3h-1v1h-1v-1l-1,-1l1,-1l-1,1l-1,-1h-1v-1v1h-1v-2h-1v-1h-1h1l-1,-1v-1l1,-1v-1l2,-4v-2l1,-1v-1h-1l-1,1h-1v1l-1,1l-2,1v1v-2h-1v-2h1v-4l1,-1v-4l1,-1v-1l2,-4v-1l1,-1v-1l1,-1v-2l1,-1v-1l2,-2v-2l-1,1l1,-2v-1v1v-1h1h-1v1l-1,1v1h-1v1v-1l-1,1v1l-2,2v2h-1l-1,2v2h-1v1l-1,1v1l-1,2v1l-1,1v1l-1,1v1l-1,1v2l-1,1v2l-1,1v2h-1v2h-1v2l-1,1v1l-1,1v1l-1,2v2l-1,1v2l-1,1v1l1,-1v1h-1h1l-1,2v1v-1h1v-1l1,1h2v-1l1,-1v-1h1v-1l1,-1l1,-2l1,-1v-1h1l1,-1l1,-2l2,-2v-2h1v-1v1l-1,1l-1,3l-1,1l-3,7v3l-1,2v3h1v2h1v2l-1,1v7l-1,1v1l-1,1v1l-1,1l-1,2l-2,2v1l-2,3l-1,2v1h-1v-1l1,-1h-1l-1,2v1l-1,1v1l-1,2v1l-1,2v1l-1,1v2h-2l-1,1v1l-2,4l-2,2h-1l-1,2v2l-1,2v1h-1v-1h-1l-1,1v1h-1l-2,2v2l-1,1v1l-1,2v2h-1v1h-1v1l-1,1h-1v2h-1v1h-1v2l-1,1v2h-1v1h-1v2h-1v2l-1,-1v2l-1,1v2l-1,1v-1l1,-1v-3l1,-4l1,-2v-2l1,-2v-1l1,-2v-3l1,-1v-1l1,-3v-3l2,-5v-1l1,-1v-2l1,-1v-2l1,-2v-2l1,-1v-2l1,-1v-2l1,-1v-2l1,-1v-2l1,-1v-2l1,-1v-2l1,-1v-2l1,-1v-1l1,-1v-2l1,-1v-1l1,-1v-2l1,-1v-1l1,-1v-1l1,-1v-1l1,-1v-2l1,-1v-2l1,-1v-1l1,-1v-1l1,-1v-1l1,-1v-2l2,-2v-2l1,-1v-1l1,-1v-1l1,-1v-1l1,-1v-2l2,-2v-2l2,-2v-1l1,-1v-2l2,-2v-1l1,-1v-1l1,-1v-1l2,-2v-2l1,-1v-1l2,-2v-1l1,-1v-1l1,-1v-1l2,-2v-1l1,-1v-1l1,-1v-1l2,-2v-1l1,-1v-1l2,-2v-1l2,-2v-1l1,-1v-1l3,-3v-1l2,-2v-1l1,-1v-1l2,-2v-1l3,-3v-1l2,-2v-1l3,-3v-2l4,-4v-1l4,-4v-1l3,-3v-1l3,-3v-1l4,-4v-1l6,-6v-1l4,-4v-1l1,-1Z"/>
<path class="sp" d="M136,157l2,-2M24,348v-2l1,-1v-2l1,-1v-2l1,-1v-2l1,-1v-2l1,-1v-2l1,-1v-2l1,-1v-2l1,-1v-1l1,-1v-2l1,-1v-1l1,-1v-2l1,-1v-1l1,-1v-1l1,-1v-1l1,-1v-2l1,-1v-2l1,-1v-1l1,-1v-1l1,-1v-1l1,-1v-2l2,-2v-2l1,-1v-1l1,-1v-1l1,-1v-1l1,-1v-2l2,-2v-2l2,-2v-1l1,-1v-2l2,-2v-1l1,-1v-1l1,-1v-1l2,-2v-2l1,-1v-1l2,-2v-1l1,-1v-1l1,-1v-1l2,-2v-1l1,-1v-1l1,-1v-1l2,-2v-1l1,-1v-1l2,-2v-1l2,-2v-1l1,-1v-1l3,-3v-1l2,-2v-1l1,-1v-1l2,-2v-1l3,-3v-1l2,-2v-1l3,-3v-2l4,-4v-1l4,-4v-1l3,-3v-1l3,-3v-1l4,-4v-1l6,-6v-1l4,-4v-1l1,-1"/>
<path class="sl" d="M324,32l-2,1l-3,1l-2,1h-1l-2,1h-1h1h-1l-1,1h-1l-1,1h-2v1h-2v1h-2l-1,1l-3,1h-1l-1,1l1,-1h1l1,-1h1l1,-1h2l1,-1h1l1,-1h2l1,-1h1l1,-1h1l1,-1h2l1,-1h2l1,-1h2ZM167,127l1,-1h1v-1h1v-1l1,-1h1l4,-4h1v-1l1,-1h1l3,-3h1v-1l1,-1h1l3,-3h1l4,-4h1l3,-3h1l1,-1v-1h1l1,-1h1l3,-3h1l2,-2h1l1,-1v-1h1l1,-1h1l3,-3h1l2,-2h1l1,-1h1l2,-2h1l1,-1v-1h1l1,-1h1l2,-2h1l1,-1h1l2,-2h1l1,-1h1l2,-2h1l1,-1h1l2,-2h1l1,-1h1l2,-2h1l1,-1h1l2,-2h1l1,-1h1l1,-1h2l2,-2h1l1,-1h1l2,-2h2l1,-1h1l2,-2h1l1,-1h2l1,-1h1h-1h1v-1h1l1,-1h2v-1h2l1,-1h1l1,-1h1h-1l-1,1h-1l-1,1h-1h1l1,-1h1l2,-1h1l1,-1h1l1,-1h1l1,-1h2l1,-1h1h-1l-1,1h-1l-1,1h1l1,-1h1l1,-1h1l1,-1h2v-1h2v-1h1l2,-1l3,-1h1l1,-1l3,-1h-1h1l-1,1l-2,1h-1l-1,1h-3l-1,1h-1l-1,1h-1l-1,1h-1l-1,1l1,-1v1l1,-1h1l2,-1h1v-1h3v-1h4v-1h4v-1h3l1,-1v1h-2l-1,1h-2l-1,1h1h1l1,-1h3l2,-1v1l1,-1h1h-1v1h-2l-1,1h-1h3v-1h3v-1h1l3,-1v-1h4v2h-1v1h-1h1h-1v1l-2,2h1l4,-2h1h-1l1,-1h1l2,-2h-1h1l2,-1h1l1,-1h2l2,-1v-1v1v-1h2l1,-1h2l2,-1h2l7,-3h5v1h-2l-1,1h-2v1h-2l-1,1h-2l-1,1l-2,1h-1l-2,1l-1,1h-1l-3,1l-2,1l-1,1l-2,1h-1l-1,1v1h-3l-2,2h-2v1h-2l-5,2h-2v1h-3v-1h1h-2l-1,1v1h2v1l1,-1h2l3,-1h1l1,-1h1l2,-1h1l3,-1l1,-1h1v-1h2v-1l2,-1h5l-1,1h-1l-1,1l-2,1l-2,2h3l-1,-1h-1l1,-1h1l1,-1h2l1,-1l2,-1v-1h-4l1,-1h1v-1h1l4,-2h2l1,-1h1l2,-1v-1h1v-1l5,-1h3l1,-1h1l1,-1h1v1h-2l-1,1h-2l-1,1h-2v1h-1l1,1h1v1h1l1,-1h-1h1v-1h-1v-1h1l1,-1h2v1h1l1,-1h-1h2l1,-1h2v1h1h-1v2l1,-1h1v1h-2v1h-3l-1,1h-1l-1,1h-1l-1,1l1,-1h1l2,-1h1h-1v1h-1l-1,1h-2v1l1,-1h2l1,-1h1l1,-1l2,-1l1,-1h2v-2h1h-1v-1h1l1,-1h2v-1h2v-1h12l-1,1h-3v1v-1h4l1,-1h1l1,-1h-1l1,-1h1v1h1v-1h-1h1v-1h1v1h1l1,-1h1h-1h1v-1l1,1l2,-1h7l1,-1h14v1h-1h1l1,-1h1l-1,-1h5l1,-1h2l3,-1h2l2,-1l1,1h1h-1l-1,1h-1h3l-1,1h-1h9v1h1v1h-1h1l1,-1h-1h1v1l-1,1h-1v-1h-1v1h2l-1,1h-2l-2,1h-3l-1,1h-3l-1,1h-2l-3,1h-2l-2,1h-2l-2,1h-1h2l1,-1h7l1,-1l1,1l2,-1h1h-2v-1h4v1h3l1,-1v1l-1,1v1h-2v1h1h-1l1,-1h1v-1h2v-1h8l3,1h1h-2v1h8v1h2l-1,-1h3v-1h1v-1l1,1v-1h2l2,1h6v1h2v1h-1h1l-1,1h-1h3v1h-3l-1,-1h-1h1v1h1l1,1h1h-1v1h1l1,1h1v1h4l2,-2v-1h2l1,1h11l1,1h2l-1,-1h5l-1,-1h-1l1,-1h1h-3v-1h5v-1h-1h10l2,1h1h-2l-1,1h2l5,-1v1h-3v1h2l1,-1v-1h5l2,1h2l-1,1h-1h2l1,1h1l-1,1l1,-1h3l1,1h1l2,1h3l2,-1h13l2,1h1v1h1v1h1v1h4v1h1l1,1h1l1,1v1v-2h-1l-1,-1l1,-1h13l1,-1h1v1h1l1,1h4l1,1h3v-1h-1l-1,-1h-1l-2,-1v-1h-1h7l1,1l-1,-1h8l2,1h5l1,1h1l3,1h4l1,1h1h-1h3v1h1h-1l-1,-1h-1h1l2,1h3l6,2h2v1v-1l1,1h1l1,1h1l1,1h1l1,1h2l1,1v-1h-3v-1h-1v-1h-1v-1h1v1h5l2,1h1l2,1h3v1h1h-1l1,1h1v1h-1v-1h-1l1,1h1h-3v1h1v-1v1h1h-1h1l1,1h1v1h-1h1v1h3v1h-1v-1h-1l1,1h1h-2v-1h-1h1v1h-2l-1,-1h-2l-1,-1h-4v-1h-1l-1,-1h-7l-1,-1h-2l-1,-1h1h-1v-1h-1l1,1h-1v-1h-1v1h1h-1l1,1h1l1,1h1l1,1v2l-1,1h-2l-1,-1h-3l-1,-1v1l-1,-1v1h3v1l-1,-1h-2l-1,1h-1h2v-1h1v1h4l1,1h2l1,1v-1h1l2,2h1l1,1h1v1h1h-1v-1l1,1h1l1,1h1v1h2l1,1v1h1h-7v-1h-1l1,1h-2v1l-2,2h-1l-1,1h-1l1,1h-1v1h-1v1h1h-1v1l-1,1v1h-1v1l1,1h-2v-1h-1l-2,-1h-1l-1,-1l-1,1h-4l-1,1l-1,2h-1v-1l-1,-1v-1h-1v1l-1,1h-1v1h-1l-1,-1h-1v1h-2l-1,1h1v1l1,1v1h-1l1,1l-1,1v3l1,1h1l1,1v-1h3v1h1v1l-1,1h1v1h1v1l1,1h2v1h1l1,1v1h-2l-1,-1v-1h-1v2h-1v3l4,4h1l-2,2h-1l-1,-1h-1l-3,3v1l2,2v1l1,1h1h-3l-1,1h-1l-1,1l-1,-1v1h1v2l1,1v1l-1,2v1l-2,2l-1,2h-1v-1l-1,-1h-1v-1l-2,-2l-2,-3v-1h-1l-1,-1v-1l-1,-1l-2,-4l-4,-4l-1,-2l-2,-2v-3l-1,-1v-4l1,-1v-1h1v-1l-2,-2h3v-1h2l3,-3v-3l1,-1v-1h1l1,-1v-1l1,-1v-2h2v-1h2l-1,-1l1,-1v-1h-2v-2h-1v-2h3v-1h-7v2l1,1v1h2v1h-1l-1,-1h-1l-1,1l-2,3v1h-2v-2h-1l-1,1v-1h-1v-3h-4l-1,-1v1h-6l-1,1h-1v1l1,1h-1l-1,1v1l-3,3v3h3l1,1h1h-1v1h-1l-1,-1v1h-2l-1,-1l-2,1h-1v1h-1l-1,-1h-1v1h-3l-2,-1h5l-1,-1h-2l-1,-1h-3v1v-1h-3l-3,-1h-1l-1,1h1v1h-1l-1,-1v1h1v1h-1l-2,-1h-1l-1,1h-1l-2,-1h-3v1h-1l-1,-1h-12l-2,1h-1l-3,3h-1l-2,2l-1,2l-2,1h-1v1h-1v1h-2v1h-2l-2,2v1l-3,3h-2l-1,1l-2,1l-1,1l-2,1h-1l-2,2h2l2,1h5v1l-1,2l1,1h2v-1l-1,-1h2v-1l1,1h-1v1h2v1h-1v1h-2v1h1l2,-1h2l2,-2v1l-1,1v1h1v-1l1,-1v-1l-1,-1v-1l2,1h4l2,1l1,1l4,2l1,1h1v1h-2l1,1h1v2l-1,1h1l1,1h1l-1,1v1l-1,1h-1v1l-1,2v6h1v1h-1v1h1v3h-1v2h1l-1,1v2h-1v1l-1,1h-1l-1,1v1l-1,1l-1,2l-2,2h-1v2l-1,1l-1,2l-2,2v1l-2,1l-3,3h-1v1l-4,4h-1l-2,3l-1,1l-1,2h-1l-5,3h-1l-2,1h-1l-1,1h-2l-1,-1h-4v-3l-2,1h-1l1,-1h-1l-3,3v1h-1v1l-1,-1h-2l1,1l-1,2h-3l-1,1h-1v1l-2,2v5l-3,1v1l-1,1h-1l-1,1h-1l-2,2h-3l-1,1l-2,1v3h-1v1h2v1l2,2h1l1,1l1,3l2,2l3,5l1,1v4l-1,1v3h1v2l-1,2l-1,1v1h-2l-1,1l-2,-1h-1v2h-3v-1h-1l-1,1h-1l1,1h-1l-1,-1h-1v1h1v1h-1v1h-1v-2l-2,2h-1l-1,1h-1v-1l-1,-1h-1l1,-1h1l1,-1h-1v1l-1,-1v-2l1,-1v-2h1h-1v-1h2v-2l-1,-1v-4h-2v-2h2l1,-1l2,2v-1h1h-1l-1,-1v-3l-1,-1v-1h1h-1l-1,-1l-1,1h-1v-1h-1l-1,-1l-2,2h-1v-1h-2l1,-1h-3v-1h1v-1l2,-2h2l1,-1h-3v-1l2,-3v-1l-1,-1l-2,-1h-1v1h-1v-1l-1,-1v-1l-1,1h-4v1h-4l-1,1l-4,2h-1l-2,2h-2v1h-2l-1,1h-1v-1l1,-1l3,-1v-1h1l1,-1h-4v-1h2v-2l2,-1h1v-1l2,-1v-1h1v-1h-1v-1l-2,-1v-1v1h-5v1h-1v1h-1l-3,3l-4,1l-1,1l-2,1h-1v1l-2,2v1h-5l-1,-1h-2v1l-2,2v1h-1l1,2v1l2,1h5l1,1v3l-1,1v1l1,1h4l1,-1l2,-1l1,-1v-1h1l3,-1l2,1l1,1h1v1h8v1l-2,2h1v1h-1l-1,1v-1h-4l-4,2h-2v1h-1v1l-1,1v1h-2v-1h-2v1h1v1h-1l-1,1v1h-2l-2,2v1l-3,3l1,1h1l1,1h1l1,1l2,1l1,1v4l1,1l1,2v4l1,1l2,1l1,1l-1,1h1l1,1h1v3h-1l-2,-2h-1l-1,1l-2,-2h-1l-1,-1l-3,2v-1v1h-1h3l1,-1h1v1l1,1h1l2,2l3,2v1l1,1v1h-3l-1,1h-1l-2,1l-1,1v1h-5v1h1l1,-1l1,2l4,-2h1v1h1l1,2h1l1,1h1h-1l-2,2h-1v1h1l1,-1h1v4h-1v-1h-3l1,1h1v1h-1v2h-1v1l1,2h-1l-1,1h-1v-1h-1l-2,2h-1v1l-1,1v1l-1,1h1l-1,1v1h-1l-3,3v2h-2v-1h-2v1h1v1l1,1l-1,1h-1l-2,2h-1v-1h-1l1,1v1l1,-1h2v1l-1,1v3h-1v-1l-1,1l-1,-1v1h-1h1v1h-2l-1,1l1,1l-1,1h-2v1h1l-1,1h-2l-1,1l-1,-1l-1,1h-1v1h1v1l-2,2h-1v1h-2v1l-1,1v-1l-1,1h-2l-2,2h-1h1v1h-1l-1,1v2h-1l-1,-1v1h-2l-1,1l-1,-1h-2v1h-2v-1l-1,1h-1l-1,1h-1v-1h-1v1h-1v1l-1,-1l-1,1v-1h-1v1h-1l-1,-1v-1l-1,-1v-2h-1v1h-1v2l1,1v3h-2v1h-2v-1l-1,1v2h-1l-1,-1v1h-1v1l-1,-1h-1l1,-1h-1v2h-1l-1,-1h-1v1h-2v1h-1l-2,1h-3l-1,1h-1l-1,1h-1v-1l-1,1v1h-1l-1,1v1h2v1h-1v1l1,1v1l-1,1h-3l-1,-1h1v-1l-1,-1v-4l1,-1v-1h1v-1h-1v-1h-1v-1h-1v2h-3v-2h-3v-2h-1v2h-2v1h-3l-1,1h-1l-1,1h-1v2l-2,1l-1,-1h-1v1l-1,-1l-1,1l1,1l-2,2v1l-2,2l-2,1l-1,1l-2,3v2l-1,2h-1v1l1,2v2l2,1v1h1l1,2v3l-1,-1l1,1l1,3l2,1l1,1v2l1,1l2,1l1,1v2h1l1,-1v1l1,1v1h1v1l1,1v2l1,1h1v2l1,2v2h1l-1,2l1,1v12l1,1l-1,2l1,1l-1,-1v-1l-1,1v2l-1,3l1,1l-1,1v-1v3h-1l-1,1v1l-2,2h-1l-2,1l-1,1h-1l-1,2h-1l-3,1l-1,1h-1l-1,-1h-1v1h-1l-1,-1l-1,1h1v1h-2l1,1h1v1l-2,2l-3,-3h1l2,3v2h-1l-2,-1l-2,-2v-1l2,3v3l-5,2l-1,1l-1,2h-1l-1,1h-2l1,-1h-1v-4l2,-5v-1h1v-1l-1,-1h-1v-1l-1,1v-1h-1v-1h-1l-1,-2h-2v-1h-1v1l-1,1l-1,-1v-1l1,-1v-3h-1v1h-1v1h-2v-7h-1l-1,-1v-3h-1v1l-2,-2v-1v1l-4,-4l-2,1l-2,-1l-1,1h-1v-2l1,-2v-3h1h-1l-2,-1h-3v1h-1l-1,1l1,1v1l-1,2v4l-1,1v2h-1l-1,2v1l-1,1l-1,3v1l-1,1l-2,5v1l-1,3v2l1,2v1h-1l1,1l3,-1h1v6l1,1v1v-1l1,1l1,10l-1,-2v-2h-1v2l1,2v1h2v1h1l2,2h1l1,-1l2,2l1,2l2,2v2l-2,2h-1l-1,-1l-1,1h-1l-1,1h-1v-2h1v-3h-2v-2h-2l-2,-1v-1h-1v2l-2,-3l-1,-1v-2h-1v-1l1,-1h-2v-2h-1v-1h-1v-2h-1v-1h-1v-2h-1v-1h-1v2h-1v-1l-1,-2l1,-1v-2l1,-1v-3l2,-5l1,-3l-1,2v-6l1,-1v-1l1,-1v-3h1v-2l1,-1h-2v-2h1v-2h-1l1,-1v-10l-1,-2v-2l-1,2v-7l-1,-1l1,-1v1v-1h-1v-6l1,-4l-1,-1v-1l1,-1v-2l1,-1l-1,1h-2v-5l-1,-1v-1l-1,-1v3l-1,1v1l-3,3h-1v-1v1l-1,1h-1v1h-2l-1,1v1l-2,2h-1v-1l1,-1v-1l-1,2h-2v-2l-1,1h-1v-1l1,-1v-1h-1v1l-1,1h-2l1,-1l1,-3v-1l1,-2v-1l1,-1l1,-2v-12l-1,-1v-2l1,-1l-1,1v1l-1,1v-1h-1v-2l-1,-1h1l1,1h1v-1l1,-1h-1v-2h-1v-1l1,-1h-2v-1h-2v2v-3l1,-2h-1v1l-1,1v-2l-1,1v-1l-1,-3l-1,-1v-5l1,-2v-6l-1,-2v-2l-1,1v1h-1l-1,1h-1v-1l-1,-3v-1l1,-1v-1h-1l-1,-1l2,2v1h-1v1h-1l1,1h-1v2l-1,1h1v1l-1,1v1l-2,1v1l-1,1l-1,-1h1v-1l1,-1h-1l-1,1v-2l1,-2l-1,1v2l-1,1v1h-1v1h-1v-1l1,-1v-2l-1,2v2h-2v-3l-1,2v-1v3h-1v-1v1h-1v-1l1,-2v-1l-2,2v2h-1v-1l-1,1h-1v-1l2,-2v-2h-1v-1v1l1,1h-1v1l-2,2h-1l-3,1l-3,3v4l-2,2v1l-2,1l-1,1v1v-1h-1v2h-3l-1,1h-1h1v-2l-2,1l-1,2h1l1,-1v1l-2,1l-4,4v1l-2,1l-2,2v1l-3,2l-5,5l-3,1l-1,2l-1,1v2l-1,1v1l-3,1h-3l-1,3v1h-1v1v-1l-1,1v-2l-2,1l-1,1l-1,3l-1,2v5l-1,1v8l-1,-1v-1v2l1,1l-2,6l-1,2l-1,1l-1,2l-1,3v3h-1h1v1l-1,4v4h-3l-1,1v1l-1,3l-1,1v2h1l1,1h-2l-3,1l-1,1v1l-1,2v1l-3,3h-2v-2l-1,-1l-1,-4v-3h-1v-6h1v3v-4h-1v-1h1l-1,-2v-12l-1,-1v-2l-1,-4v-5l1,-3v-12l-1,-1v-4h1v-1h-1l1,-1h-1v-7l2,-6v-6l1,-2v-4l1,-1l1,-2v-1l-1,1v-1l1,-1v-1l1,1l-1,-1v-2l1,-2v-2l2,-4l1,-1v-2l1,-1v-1h-1l1,-2v-1l1,-1h1l1,-1l-1,1h-1l-1,-1l1,-1v-1h1h-1v-1l1,-1h1h-2l-1,1v1h-1v1h-1h1v2l-1,1l-1,2v1l-3,1l-1,1l-2,1h-1v-1l-1,-2v-5l-1,-2v-4h1v-1v2l2,-1l1,-1h1l2,-2l1,-2v-1v1h-1v1v-1h-1l-1,1v1h-1l-1,-1l-1,-2v-4l2,-2h-1v1h-1v-1l-1,-1v1v-1h-1l1,-1v-1h-1h1v-2l1,-3l-1,-1v-1l1,-1v-4h-1v1h1h-2l-1,1v-1l-2,1h-1v1v-1l-1,-1h-2l-1,1v-1l-1,1l-1,-1v1h-1v-1l-1,1l-1,-1h1l1,-3v-1h1v-1l1,-1v-1l1,-1h1v-1l1,-1h1l1,-1v1l1,-1v-1h1v-2h1v-1h-1v-1l1,-1l1,-3l1,-1v-2h1h-1v-5l1,-1v-3h1v-4l4,-4l1,-2l2,-1v-1l1,-1l1,-2l-1,-1h-1v-1l2,-2v-1l1,-2h1l1,-3l1,-1v-2h1v-1l3,-3h-1v-1l1,-1l1,-2l1,-1h1v-1l2,-2v-1h1v-1h1v-1h1v-1l1,-1v-1h1v-1h1v-1l1,-1v-1l1,-1v-1l2,-2h-2l1,-2v-3h1v-3h-1l1,-1v-1h-1v-1h1v-2h-1v1h-2l-1,1h-1l-1,1l-1,2h-1l-1,1v-1l1,-2l2,-1v-1l2,-2v-1h1v-1l3,-3v-1l1,-1h-1l2,-2v1v-1h1v-2h1v-1l-1,1v1v-1l2,-2l1,-2l1,-1h1l1,-2l1,-1l-1,1v1l-1,1h2v-1h1v-1h1v-1h1v-2l4,-4v-1h-1v1v-1v1h-1l-5,5h1v-1l1,-1l1,-2h1l1,-2l1,-1h1v-1l2,-2v-1v1v-2h1v-1l3,-3v-1l2,-1l1,-2v-1h1v-1h1v-1l1,1h-1h1v-1l2,-2h1l2,-2h1v1v-1h1v-1l2,-1l7,-7h-1v-1h-1l-2,2h-2v1h-1h1h-1v1h-1l-3,3h-1l-1,1l1,-1l-1,1h-1v1h-1v1h-1v1h-1v1h-1h1h-1v1h-1v1h-1v1h-1v1l-1,1h-1l-1,2l-1,1l2,-1v-1l-1,1l-1,2h-1l-1,1l-1,2h-1l-1,1v1h-1l-1,2l-1,1v1l-3,3l-1,2l-1,1v1h-1l-1,2l-1,1v1l-1,1h-1v1h-1l-1,2l-3,3v1h-1l-1,1v1v-1l-1,1v1h-1l-2,2v1l1,-2l1,-1v-1h1v-1h1v-1l3,-3h-1v1h-1l-2,2l-1,2v-1l1,-1v-1v1v-1h1v-1h1v-1h1h-1l1,-1v-1h1v-1h1v-1l2,-2v-1h1v-1l2,-2v-1h1v-1h1v-1h1h-1v2h-1v1v-1h1v-1h1v-1l1,-1h1v-1h1v-2h1v-1l1,-1h1v-1l1,-1h-1h1v-1v1h-1h1v-1l2,-2v-1h1h-1h1v-1l12,-12v-1h1l6,-6h1v-1l5,-5h1l4,-4Z"/>
<path class="sp" d="M300,42l1,-1h1l1,-1h2l1,-1h1l1,-1h2l1,-1h1l1,-1h1l1,-1h2l1,-1h2l1,-1h2l1,-1M170,125v-1l1,-1M172,123l1,-1M177,119v-1l1,-1h1l3,-3h1v-1l1,-1h1l3,-3h1l4,-4h1l3,-3h1l1,-1v-1h1l1,-1h1l3,-3h1l2,-2h1l1,-1v-1h1l1,-1h1l3,-3h1l2,-2h1l1,-1h1l2,-2h1l1,-1v-1h1l1,-1h1l2,-2h1l1,-1h1l2,-2h1l1,-1h1l2,-2h1l1,-1h1l2,-2h1l1,-1h1l2,-2h1l1,-1h1l2,-2h1l1,-1h1l1,-1h2l2,-2h1l1,-1h1l2,-2h2l1,-1h1l2,-2h1l1,-1h2l1,-1h1M285,48h2l1,-1h1l1,-1h1M138,155l10,-10v-1h1l6,-6h1v-1l5,-5h1l5,-5"/>
<path class="sl" d="M18,368v-1ZM14,382v-1ZM15,379v1ZM21,395h1v2h-1v1h-1v-3l1,-1ZM263,431v1l-1,1v-1l-1,-1l1,-1ZM281,446v-1ZM286,431v1ZM295,343h-1v-1h1ZM301,340l-2,1l1,-2v1ZM300,342h-1l1,-1ZM296,343h-1v-1ZM769,647v3h1v-1l1,-1v5h-2v1h-1v-1l-1,-1l1,-2l-1,-3h1v-1h1ZM772,658l1,1h1v2h-2l-1,-1l1,-1l-2,-2l1,-1h1ZM778,663h-2v-1h1v-1v1ZM778,659h-3l2,-2v1ZM777,669v1h1l-1,1h-2v-1l1,-1ZM776,652h-1l1,-1h1ZM778,656h-1v-2l1,-2ZM778,651v1v-4l1,2ZM771,655l-1,-1h1ZM776,642l-1,1h-1v-1l1,-1ZM775,639v-1h1v1ZM782,690v1h-1v-1ZM781,685l-1,1l-1,-1v-1h1v1ZM781,680l-1,1l-2,-1h1v-2h1v1ZM162,188v1v-2h1ZM164,188v1v-1h1ZM749,474v1ZM545,441l-1,1v-1h1v-1ZM659,459v-1ZM713,462l-1,1v-1h-1v-1h2ZM797,468v1v-2h1v1ZM791,456h-1ZM810,457v1h1h-1ZM807,457h1h-2v-1ZM605,362h-1v-1h1ZM606,382h-1ZM604,401h-1v-1h1ZM606,367l-1,1ZM607,392v1v-2h1ZM606,394v-1ZM600,408h-1v-1l1,-1v-1h1v1l-1,1ZM903,637v-1h1ZM775,82h-1l-1,-1l2,2Z"/>
<path class="sp" d="M773,81l2,2"/>
<path class="sl" d="M776,83l1,1Z"/>
<path class="sp" d="M776,83l1,1"/>
<path class="sl" d="M763,75l-1,-1ZM745,68v-1ZM749,70l-1,-1h1ZM745,69v1l-1,-1ZM739,69l-1,-1ZM761,95h1ZM766,96h-1ZM764,95l1,1h-1ZM740,117l-1,-1ZM676,48v-1ZM683,59h2v-1h1l1,1h4l1,1h-1v1h1h-2v-1h-3v-1h-2v1h-1v-1h-1l-1,-1ZM716,72h2l1,1h1v1h-3l-1,-1h-2l1,-1h1h-1ZM756,81h1h-1h2v1h1h-1h1v1h1v1l1,1h-1v-1h-1v1h1l-2,-1h-1v-1h-1v-1h1l1,1h1h-1l-1,-1h-1v-1h-1h1h-1v-1h1ZM757,97l1,1h1l1,1l-1,-1v1h-1v1h-2v-1l-1,-1h1v-1ZM782,87l1,1h1v1l-1,-1ZM772,80v1h1l1,1l-1,-1l1,1h1v1h1h-1v-1h-1l-1,-1h-1v-1h-1ZM786,90l-1,-1h-1v-1l1,1Z"/>
<path class="sp" d="M785,89l1,1"/>
<path class="sl" d="M743,67l1,1h1h-2ZM747,71l-3,-3h-1h1l1,1h1v1h1ZM742,68h1l1,1l-1,-1ZM761,84v1l-1,-1ZM752,78v-1h-1h1ZM756,81h-1v-1h-1h1v1ZM766,91h1ZM763,88h1h-1v-1ZM764,87h-1ZM761,95v-1v1h1v1h-1l-1,-1v-1v1ZM760,98v-1ZM763,100h-1ZM764,96v1v-1h-1v-1v1ZM757,102v1v-1v1l-1,-1ZM757,102v-1h-1h1ZM738,79h-1v-1ZM700,72l1,1h1h-1l-1,-1h-1ZM727,87v1l-1,-1ZM754,110h1h-2ZM753,111v1l-1,-1ZM749,114v-1h1ZM731,90h1ZM740,117h-1ZM739,116v-1h-1h1ZM737,118h-2l1,-1v-1v1h1ZM721,117h-1ZM726,120l-2,-1h-1h1l1,1ZM699,116l-1,-1h1ZM770,79v1h2l2,2h1v1h1l1,1h1h-1l-1,-1h-1v-1h-1h1h-2v-1h-1v-1h-2h2v1v-1h-2v-1h-1l-1,-1l1,1ZM764,75l1,1h1v1h1v1v-1h-1l-1,-1h-1h1l2,1v1h2v1h1l1,1h1h-1l-1,-1h-1v-1h-2v-1l-2,-1h-1v-1h-1l-1,-1v1h1ZM763,75h1v1h1h-1h1l1,1h1v1h1h-1h1l1,1l-1,-1h-1l-2,-2h-1l-1,-1l1,1ZM784,88h-1ZM782,87h-1v-1h-1h1h-1v-1h-1h1h-2v-1h-1h1v1h2l3,3Z"/>
<path class="sp" d="M783,88h1M778,85h2l3,3"/>
<path class="sl" d="M773,81h1h-1l1,1h1l2,2h1v1h1l-1,-1l-2,-1h-1v-1h-1l-1,-1h-1ZM753,78h1v1h1h-1h1h-1h1v1h-1l-1,-1v-1h-1ZM756,107v1h-1v-2h-1h2ZM756,103l1,1v-1h-1h1v1h1v1v-1v3h-1v-3h-2v-1ZM747,115h1h-2v-1ZM744,115l-2,1v-1h1l1,-1h-1v-1h1v1h1h-1l1,1ZM738,117h1v1h-1v-1h-1v-1h1ZM735,118h-1v-1h-1h2ZM725,117h-1v-1ZM716,118v-1h1ZM693,112h1l1,1h1h-1v1l-1,-1h-2v-1ZM948,345l-1,-1l-1,-2v-2l-1,-1v-3l-1,-1v-1l1,1l2,1v1l1,1v1l1,1v2h-1v2ZM938,327h1v1h-1v-1h-1ZM940,329h1l1,1v2h-1v-2h-1v-2ZM935,325l1,1v1l-1,-1v1v-1h-1v-1l-1,-1h1v-1l1,1ZM929,322h-1l-1,-1v-1h2v1ZM927,323v-1ZM940,330v1l-1,-1v-1ZM69,576h-1v-1l1,1v-1h-1h1ZM52,299v-1ZM52,300v-1ZM54,298v-1ZM116,190v1l2,-2v-1v1ZM867,694v1l-1,-1v-1v1ZM879,673v1h-1v-1ZM868,695l-1,1ZM437,594v2h-1l1,-1ZM433,606l-1,-1v-2h1v-1h-2v-1l2,-2l2,-1l4,-1h8l1,-1h3v1l-1,1l-2,1l-1,1h-2v1h-1l-1,1h-2l-1,1h-2l-3,1l-1,1ZM424,605l1,-1l2,-1v2h-2ZM253,419v1h-1v-1ZM252,417h-1v-1h1ZM219,451v1h-1v-1l1,-2h1l-1,1ZM233,436h-1v-1h1ZM233,437h-1v1h-1l1,-1ZM228,463h-1l1,-1ZM221,451l-1,-2l1,1ZM219,441v-1l1,1ZM224,454v1v-2ZM160,189v-1ZM405,330l-1,1v1l-1,1v2h-1v-2l-3,-3v-1l-1,-2v-5l1,-1l4,-7l1,-1h1v-1l2,-2l2,-1l1,-1h1l3,3h-1v1h-1v4l-2,2v2l-1,1v2l-1,2v1l-2,2ZM386,314v1h-1v-1ZM107,431h-1v-1ZM105,436v-1ZM107,429h1l2,4l1,3v1l1,3v1l1,1v2l1,3v9l-1,1v1l-1,1l-1,2h-1l-2,1l-1,1h-1l-2,-2v-2l-1,-2v-13l1,-1v-1l1,-1v-4l1,-2l1,-1v-3l1,1h1l-1,-1h-1v-1ZM470,235h-2v-1h1l1,-1ZM465,235h-1v-1h1ZM452,238h-1v-1h1v-1l1,1ZM456,213v1h-1v-1ZM456,238h-1ZM454,222v1v-2ZM452,235h-1v-1h1ZM486,215h-1ZM452,246v1l-1,-1v-1h1l3,-1h1v2h-2ZM723,595h-1v-1v1ZM774,621h-1v-1ZM769,613h-1l-1,1v-2h2ZM727,623h-1v-1h-2v-1h-1v-1l1,1l2,1ZM736,604v1h-1v-3ZM718,601v-1h-1h1v-1v1h1ZM726,599h1v1h1l-1,1v-1h-2ZM708,593v1l1,1v1h-1l-1,-1h-1v-2l-1,1h-1v-1l1,-1v-1h2v2ZM711,598v-1ZM710,597l-1,1v-2l1,-1v1h1h-1ZM705,597h-1l-1,-1h1v-1h1v1h-1v1ZM700,591h-1v-1l-1,-1v-1h1l1,1h1h-1v1ZM699,593l-1,-1v-1h1v1ZM703,592h-1v-2h1v1h1ZM693,584h-1v-1h1ZM707,598h-1l-1,-1h1ZM723,602l1,1h3l1,1h1l1,1v2h-2l-1,-1h-5v-2l-1,-1l1,-1ZM724,595v1l-2,-2l-2,-1h-1l-2,-2h-1v-1l-2,-2v-1l2,1l2,2h1l1,1h1l3,3Z"/>
<path class="sl" d="M706,585v1h-2l-6,-6v-1l1,1l4,2l1,2l1,1ZM731,593l2,3l-1,1v1h1l1,1v3l1,1v1h-1v-2h-2v-1l-1,-1v-1l-1,-3v-3ZM737,611h1l1,1l1,-1v1l1,1v1h-4l-2,-2v-1l-1,-1v-1l2,2ZM258,509l-1,1l-1,-1l1,-1ZM14,546v1v-1h-1v-1ZM21,356v1Z"/>
<path class="sp" d="M21,357v-1"/>
<path class="sl" d="M897,630v2l-1,1h-1v-3h1ZM900,634l-1,1l-1,-1v-1h2ZM581,174h1ZM582,174h1ZM521,104v1h-2l1,-1ZM578,84l-1,-1h1ZM468,29h-1ZM480,27h-1ZM454,16v-1h1ZM452,18l1,-1v1ZM433,19v-1ZM430,20v-1h1ZM451,12h1ZM382,25h-1ZM395,24h-1ZM400,23h-1h2ZM406,22h1h-2ZM427,7h1ZM421,7h-1h1h-1v1h-1l1,-1h-1v1h-1v-1h2ZM422,7l-2,1h-1h1l1,-1ZM392,17h-1v1h-8l-2,1h-4l-1,1h-4v1h-1v-1v1h-3l-1,1h-3l-1,1h-2v-1h3v-1h3l2,-1h2l1,-1h4l1,-1h4l1,-1h10v-1h4v1h-3ZM360,23l-1,1h-3v1h-3l-1,1h-2l-1,1h-2v1h-2l-1,1h-1l-2,1l-1,1h-1l1,-1h-1v1h-1h1h-1h1h-1l1,-1h-1h1h-1h1v-1h3v-1h1v-1h3l1,-1h3v-1h3v-1h3l1,-1h2ZM454,10h-2v1h-7l1,-1h5l1,-1h2ZM451,11l-1,1h-1h1v1h-2v1h-4v-1h-2v-1h4v-1h4ZM453,13l-1,1h-1h3v-1v1h1l-1,1h-8l-1,1h-2v-1h3l1,-1h3v-1h4ZM515,22h2v-1h3l1,1h1l1,-1l4,1h-1v1l-1,1h-2v-1h-2v-1h1h-2v1h2v1h1h-8v1h-1l-2,-1h-2v-1h-1h1l-1,-1h1v-1h4ZM530,23h1l1,-1l2,1h5l1,1h-8l-1,-1h-2v-1h1ZM618,34l-1,-1h-1v-2l3,2ZM550,108l1,1v2l2,2v1h1v2l1,1v1l-1,1l1,2v1h1v1l1,1v1h1l2,5v1l2,2l1,2l1,1v1h1v1l1,1h1v1l-1,-1h-1l-2,-2h-5l-1,1v1l-1,4v4l1,1h1l1,1v1l2,2h2v2l1,1v1h-1v1v-2l-1,-1l-2,-1h-3v1h-1v3l-1,1v-1h-1v-1l-1,-2v-1l1,-2v-2h-1v-3l1,-1l-1,-2l-2,-2v-1l1,-1v-4l-1,-4v-1l-1,-1v-1l1,-1l-1,-1v-2h-1l-1,-1h-1h1v-1h-1v-1l-1,-1v-1h1v-4h-1v-2h4v-1h-1h1v-2l-2,-2h1ZM618,31h2v1h3v1h-5l-2,-2h1ZM302,41h1ZM343,28h-1v1h-1l1,-1h-1h1ZM667,105l-2,-1l-1,-1h-1h2l1,1ZM577,35h-1ZM586,42v-1h-2l-1,-1v-1h1v1l1,1h1ZM541,21h-1v-1h1ZM532,19h-1ZM514,34h-1ZM456,16h-1ZM460,19v1h-1v-1ZM430,19l-1,1h-2l1,-1h1ZM433,18h-1l1,-1h1ZM424,17h-1h2ZM375,26h1ZM380,25h1ZM396,24h-1ZM341,36h-1l1,-1ZM347,32h1ZM323,46h-1h1v-1h1v1ZM414,9l1,-1h1h-1v1ZM414,9h-1h2ZM423,7h1ZM418,9h-1ZM419,8h-1h2ZM417,9h-1h2ZM425,8h-1ZM151,145h1v-1ZM324,34l-1,1v-1v1h-2l1,-1h2v-1h2l-1,1ZM424,9v-1h1ZM417,9h2l1,-1v1h-2ZM425,8h-1l-1,1h-2v-1h3ZM425,8h1ZM416,9l1,-1h1h-1v1ZM419,9h-1ZM429,7h-1ZM424,7v1h-1v-1ZM432,7h-1ZM431,7h-1h2ZM442,12h-1l1,-1h2l1,1h-2ZM449,9h-1ZM519,27h-2v-1h2ZM522,27h2l2,1v1h-3l-1,-1h-3v-1h2ZM507,23h-1v-1h1ZM508,27l-1,-1h-1h1ZM525,104h1v1h-1v1h-1v1l-1,-1v-1l-1,1v-1h1v-1ZM603,39h-2l-1,-1h-1v-1l3,1h1ZM633,84v1h-1l1,-1l-1,-1v-1h1l1,-1l2,2h-1l-1,1Z"/>
<path class="sl" d="M660,103v1l-1,-1h-1l-1,-1h-1v-1h-1h2v1h1l1,1ZM621,136h-1v-1l1,-1v1ZM626,128h-1v-1h1ZM625,130l-1,1h-2l-1,-1h1l1,-1h1v-2l1,1v1ZM619,139h-1h1v-1ZM622,127h-1v-1h1ZM616,145v1h-1ZM612,151l-1,1h-1v-1h1l1,-1v-1h1ZM601,159h-2l1,-1h1l1,-1l1,-2h2l-2,2v1h-1ZM595,161l-1,1h-1l-1,1h-1v1l-1,-1v1l-2,1v1h-1l-1,1v-1h1v-1l1,-1h1v-1h1v-1h1v-1l1,1l1,-1l2,-1h1v1ZM586,172h-1v-1h2ZM582,167h1v1h-1l-1,1v1h-1l-1,1v1h-1v-1l1,-1h1v-2h1v-1ZM455,25h-1v1h-3v-1h3ZM425,11h-1h1h-1ZM437,9h-1ZM371,25v1l-1,-1v1v-1h2l1,-1h2v1h-3ZM375,28h-1h2l1,-1l1,1h-2ZM381,27h-1h1l2,-1l-1,1ZM403,21h-2l1,-1v1v-1h1ZM336,33v1h-1v-1h1l1,-1h1l-1,1ZM50,295v-1l1,-1l2,-4v-2l1,-1l1,-2l1,-1v1l-1,1v1l-1,1v2h-1v2l-1,1v1l-1,2ZM403,363h1l3,2h1l1,1h1v-1h1v-1h1v1h1l-1,1v1l-1,1v5h1v1h1v1l1,1h-1v2l-2,3v1l-1,2h-3l-1,1v1l-1,1h1l-2,2v3l1,2l1,1v1h-1v2l1,2v1l1,1l2,1h1v-2l2,-2h1l1,1h1l1,1v1l1,1v1h2v-1l-1,-1h2v1h2l1,1v1h-2v1l2,2v2h1l1,1h1l-1,2v2l-2,-2l1,-1v-1h-1v1h-2l-2,-1v-1h-1l1,-1l-1,-1v-1l-3,-1v-1l-2,-2h-1v2l1,1v3h-1v-1l-1,-1v-1l-2,-2l-3,-1h-2l-1,1v1h-3v-1h-1l-1,-1h-1v-3l3,-3l-1,-1h-1v-1h-1v-1l-1,1l1,2v1h-2v-1l-1,-1v-1h-1l-1,-1v-4l-1,-5v-3h1v1h1l1,1v1l1,-1h1v-1l-1,-1v-4l1,-1v-1l1,-2v-1l-1,-1v-1l2,-4v-1l1,-1v-1l1,-1h2ZM367,450h-1v-1l1,-2h1l1,-1v-1l2,-1l1,-1h1l5,-5l1,-2l3,-3h1l1,-1v-4l1,-1l1,-2h1l-1,1v1h1l-1,1l1,2v3h-2v1h-1l-1,1v1h-2l-1,1h-1v1l-1,3l-2,2h-1l-2,2v1l-1,1h-1l-1,1h-1v1h-1ZM411,423h4v1l1,-1h1v2l-1,1v1h-1l-1,1v1l-1,1l-2,1h-3v1h-1v1h-1v-1l1,-1l-1,-1l1,-1v-2l1,-2v-3l-1,-1h-1h1v-1l1,1h2l1,1ZM416,445h-1l-1,-1v-1l-1,-1h-1v-1h-1l-1,-2v-1l1,-1h2l1,-1v-5h1v-2h1l1,-1h1l2,1v2l-1,1v1l-1,1v2h-1v1l-1,1v2l2,2v1h-1v2ZM429,425h3v1h1v3l-1,1h1v1h1v4l-1,-1v1v-1h-1v2h-1l-1,-1v-2l1,-2v-1h-1v-1l-1,-1l-1,1l-1,-2v-3h1ZM435,415v2h2v2l-1,1v1l1,1v3h1l-1,1h1v1l1,1l-1,-1h-4v-1h-1v-1l-1,-1v-2l-1,-1v-1h-1v-1h-1l-2,-2v-2h7ZM397,406v1l2,-1l1,1h2v1l2,2h-1v2l1,2h-1v2h-1v1h-2v-1h-1v-1h-1v-2h-1v-4h-1l-1,-1v-1h-1l1,-1ZM441,443h1v2l1,1v2h-1v1l2,2v5l1,1v4l-1,2l-1,1h-1v5l-1,-1v-3l-1,-1v-1l-1,-1v-2h-1l-1,1v1l-1,1v1l-1,1v1l1,1h1v6l-2,1l-1,1l-1,-1v-1l1,-1v-1h-1l-1,1v1h-1l-3,-1l-5,-5v-5l2,-2v-1l-2,-2l-2,-1h-1v-1h-1v2l-1,2h-1l-1,-1v-1h-1l-1,1h-1v-2h-2l-1,1v1l-1,2l-1,1l-1,2h-1l-1,-1v-1l1,-1v-1l1,-2v-1l1,-2h1l2,-1h3l1,-1v-2h1l1,-1h1v-1h2l2,2v3l-1,1l4,-2l1,-1v-2h1l2,1v-1l1,-1v-2h2l1,1v-1l1,-1l1,1l1,-1v-6l1,1l2,1l1,1Z"/>
<path class="sl" d="M418,441v1v-5l1,-2l2,-2v-1l2,-4v-1h1v-1v7l-3,3v1h-1l-1,3ZM410,361h-1v-1h1ZM407,357h-1v-1ZM411,348h-1h1v-1ZM410,345v1v-2ZM399,471h2v1h-5v-1l2,-1ZM365,454l-1,1v-2h1ZM389,432h-1l1,-1h1v1ZM391,418h1l1,-1v2h-3v-2h1ZM391,422h-1v-1l-1,-1l1,-1l1,1v1ZM412,433h-1v-2h1v-1h1v2ZM429,439h-1l-1,1h-5v-2l1,-1h1v-1h1l1,-1l1,1h1v2ZM391,478h-2v1h-2l1,-1h1l1,-1h1ZM407,468h-2v-2h-1l1,-1h1l2,1h1h-1v1ZM441,439l-1,-1l1,-1v-1l1,1v2ZM438,438v-1h-1v-1h-1l1,-1v-1l1,-1v4ZM394,404v1l-2,-1v-1l1,1ZM407,406h1l1,1v1h-1v1l-1,-1h-1v-1ZM408,416l-1,2v-4h2v1ZM413,417h-1v-1h-1v-1h2v1ZM418,412l1,1l-1,-1h-1l-1,-1v-1ZM422,416l-1,-1v-1h1ZM422,417l1,1l1,2l1,1l-1,1v-1l-1,-1h-1v-1h-1l-1,-1h-1l-2,2v-2l1,-1v-3l1,1h1l1,1ZM428,405l-1,1h-2v-1l1,-1v-2h1v1h1v1ZM409,402l-1,-1v-1ZM409,394h-1l1,2h-1v1v-2h-1v-2h1ZM426,431v1l1,-1ZM434,437h1l-2,-1v-1h1v1ZM414,459v1h-1v-1ZM438,463v1v-1l-1,-1l1,-1v1ZM429,424h-1l-1,-2h1l1,1ZM430,444v1l-1,-1v-1h1ZM404,359v1v-2ZM389,423v1h-1ZM422,426v1l-1,-1ZM410,415v-1ZM440,440v1v-2ZM431,423l-1,-1h1ZM367,452l-1,-1h1ZM421,443v1h-2v-1h1ZM671,564l-1,1v-1l-2,-2v-1h1v-1l-1,-1v-2l-3,-3v-1h-2l-1,-1h-1l-1,-2h-1l-1,-1l-3,-1v-1h-2l1,-1l-1,-1l2,1l2,2h2l2,2h1l1,1h1l2,2v1l5,4l1,2v1l-1,1v1ZM662,560h1l1,-1l1,1h1v5l-1,1h-2v2l1,1l-2,2h-4v2l-1,1h-1l-1,1h-1l-1,1h-1l-1,1h-2l-2,1h-4v-1l-1,-1h-4l-2,-1l-1,-1h-1l-2,-2v-1h7l1,1h1l1,-1h3l1,-1v-2l1,-1h1l-1,1v2l1,1h1l1,-1l1,1h1l1,-1h1l1,-1v-1l2,-2h2l1,-1v-2l-1,-2v-1l1,-1h1ZM569,603v-23l1,-1v-32h2l4,2h2l1,1l4,2l3,1h5l2,2h1l2,2h4v1h1l1,1h1l1,1v1h1l1,1h1l4,3v3l-1,2l1,1h2l1,1h2l5,3h3l1,1h1v1l1,1h1v3l-1,1h-5l-2,1l2,4l3,3l1,2h2l2,1v2l1,1v1l1,1l1,3l1,1h1l3,-1l1,1v1h-1v1l2,2h4v1h1h-1l-1,1v1l1,1h2l1,1h2l1,1l1,-1l-1,1h-2v1h1l1,1h-1l-1,1h-3l-3,-3h-7l-1,-1h-6l-1,-1h-2v-1h-1v-1l-2,-2l-2,-1l-1,-2l1,-1h-1l-1,-1h-1l-1,-2v-1l-2,-1v-1l-1,-1v-1l-1,-1h-2v-1h-4l-1,-1h-2l-1,-1h-1l-1,-1h-1v1h-2v1h-1l-1,-1h-1l-1,-1l2,3l-1,1v-1v1h-3l1,1v1h-3l-2,1h-1l-1,-1h-2l-1,1l-1,-1v-1l-1,1h1v1h4l2,1l2,2h1v2h-1l-1,1h-1l-4,2h-1l-1,-1h-9l-1,1h-1ZM630,574h-1l-1,-1v-2l2,1v1ZM613,565h-1v-2h1v1ZM669,550l-1,1v-2ZM664,548v1l-1,-1Z"/>
<path class="sl" d="M645,537h-1l-1,-1v-1h1v1ZM653,609h2v2h-1l-2,-1v-2l-1,-1l1,1ZM648,605h-1l-1,-1v-1h1l1,1ZM654,598v1v-2h-1l1,-1v1h1ZM678,620v1h-1l-1,-1h1ZM591,597h-1l-1,-1h2l1,1ZM622,571l-1,-1v-1l1,-1l1,1v1ZM622,540l3,1h-1v1h-6v1v-2h1l1,-1ZM650,546h-3v-1h-1l2,-1h2v1ZM649,604h2l1,1v1h-3v-1h-1v-1ZM667,600h1v1h1v1h-2v-1h-1v-1ZM672,621l2,1v1h-1l-1,-1h-2l1,-1h-1v-1h1ZM591,598l1,1l-2,-1l-1,-1h-1h2ZM629,543v1h-1v-1ZM663,547v-1ZM652,614l-1,1v-1ZM677,558h-1ZM694,580v1h-1l-1,1h-1v-1h-2v-1l-1,-1l1,-1l-4,-4v-4h2l1,1v2h1v1h1l1,2h1l1,1v1h1v1ZM684,570v-3h-1l1,-1h1v3ZM49,334h-1l1,-1v-2l1,-1v1l-1,1v1ZM418,7h-1Z"/>
<path class="sp" d="M416,7h2"/>
<path class="sl" d="M407,9h-1Z"/>
<path class="sp" d="M407,9v0"/>
<path class="sl" d="M446,200v1ZM700,876h-1l1,-1h-3v-1h-1l-2,1l-1,-1l1,-1h-1h1h-2l1,-1h2l1,-1h-1l1,-1l-1,1v-1h1v-1h1v1v-1h1h-1l1,-1h1v-1h1Z"/>
<path class="sp" d="M700,867v9"/>
<path class="sl" d="M695,871h-1v1v-1h-1h1ZM697,868v1ZM697,878h-1h1v1h-1l-1,1h-1v-1h1v-1h1v-1h1ZM680,908h-1ZM674,900h-2l1,-1h1v-1h1l-1,1ZM908,595v-1ZM897,676v-1h1ZM930,690v-1ZM780,524v1h-1v-1ZM47,681h-1v-3l-1,-1l1,-1v2l1,1v1ZM71,476v-1ZM231,464v-2h1v1l2,1h2v2h2v3h-1v2h1l1,-1h1l1,-1l1,1h1l2,-2v-2l2,1l1,3l2,2h1l1,1v1l1,1l2,4v4l-1,3v9l1,1v1l2,2l3,7v3h-1v-1l-1,-1v1h-2l-1,1h-1v-1l-1,-1l-3,-2h-1l-2,-2l-3,-2l-2,-2v-1l-2,-1l-1,-1h-1v-1l1,-1l-1,-1v-1l-1,-2l-1,-1l-1,-2l-1,-1v-1h1h-1v-1l-1,-2l1,-2l-2,-8v-6l-1,-1ZM368,487h-1l-2,-1l-1,-1h-5l-1,1v-1h-2l-1,1l-1,-1h-1v1h-1v1l-1,1v6l-1,1v2h-2l-1,1v2l1,1h-1v1h-1l-1,1h-1v2h1v1l-2,2v2h-6l-2,2l-1,-1h-1l-2,-1h-1v-1h-6l-1,1v1l-1,1v1h-1l-1,1h-3l-1,-1h-3l-3,2h-1l-3,-3v-1h-1l-2,-2v-1l-1,-1v-3l1,2l1,1h5l2,2h2l1,1h1h-1v-2l1,-1v-3h1l-1,-1v-2h1v1h1v-3l1,-1l10,-2l1,-1h1l3,-3l1,-2l4,-4v-3h2v1l1,1v1h1v1l1,1h1v-1h1v-6h1l1,-1v5h2v-2l-1,-1v-2h2l2,-2l-2,-2l1,-2h1v1h1l1,-1v-1l2,-1v-2l3,-4h1l2,-4v4l2,-2v-1l1,-1l1,1v2l1,1h2v5l-1,1l2,-1h1l1,-1v1l1,1h-1l-1,1l1,1v-1h4l1,1v1h1l2,1h2v2l-1,1l-2,1h-5l-1,1l1,2l2,1h1v1h-2l-2,1h-2l-2,-1v1ZM260,497h-1l1,-1ZM231,474v-1h1ZM229,464v1h-1v1v-1h-1v-1h1ZM365,461h-1v-1l1,-1h1v2ZM238,494v1ZM317,501h-1v-3l1,1v1ZM371,487h-2v-1h1ZM32,677v-1l-1,-2v-1l-1,-1v-1l-1,-2v-2l-1,-1v-2l-1,-1v-2l-1,-1v-1l-2,-5v-2l-1,-1v-1l-2,-6v-2l-1,-1v-4h-1h1v1v-1l-1,-1v-4l-1,-1v-1l1,1l-1,-1v-3l-1,-1v-3l-1,-1v-5l-1,-3v-3l-1,-1v-2l1,1v3l1,2v1l1,1v2l1,2l2,8v2l2,4v2l1,2v1l-1,-2v-1h-1h1v3l1,1v3l1,2v1l1,1v2l1,2v1l1,2v2l1,4l1,1v2l3,10l2,4l2,7l2,4l1,4l1,1l1,2v2l1,2l1,3l1,1v1l1,2v1h1v1l1,1v2l1,1v2l1,1v1l-1,-2v-1l-1,-1v-1l-1,-1v-1l-1,-1v-1l-1,-1v-1l-1,-1v-1l-1,-1v-2l-1,-1v-2l-1,-1v-1l-1,-1v-1l-1,-1v-1l-1,-1v-2l-1,-1v-2l-1,-1v-1l-1,-1v-1l-1,-1v-2Z"/>
<path class="sp" d="M47,712v-1l-1,-1v-1l-1,-1v-1l-1,-1v-1l-1,-1v-1l-1,-1v-2l-1,-1v-2l-1,-1v-1l-1,-1v-1l-1,-1v-1l-1,-1v-2l-1,-1v-2l-1,-1v-1l-1,-1v-1l-1,-1v-2"/>
<path class="sl" d="M16,618l-1,-1v-1l1,1ZM25,648l1,2l-1,-2v-2ZM67,255l1,-1v-1l1,-1v1l-1,1v1ZM820,492h1ZM822,502v1l-1,-1ZM822,510v1v-2ZM832,525l-1,-1v-1l1,1ZM833,529h1h-1v-1ZM822,507l1,-1v1ZM975,543h-1h1v-1ZM969,492v1l-1,-1h1v-1h-1h1ZM962,475v1v-1v1l-1,-1ZM911,538v1ZM148,150l1,-1h1v-1v1h-1ZM149,149h1ZM154,147l1,-1v1ZM503,224v1h-1v-1l1,-1ZM537,213h-1l1,-1v-1h-1l2,-2v2h1l-1,1ZM514,239h-1v-1l1,-1h1l-1,1ZM483,269h-2v-1h2ZM485,268v-2l1,-1v1l-1,1ZM479,254h-1h1v-1h-1l1,-1h1v1ZM474,240h-1v-2l1,1ZM474,238v-2h1v1ZM469,250h1v1h-1ZM481,253l-1,-1h2ZM550,162l-1,-1h1ZM551,163h-1v-1h1v1h1ZM542,183v-1h1ZM510,237v1l-1,-1ZM547,235v1l-1,-1ZM472,249h-1l1,-1v-1v1h1ZM475,246l-1,1v-1h1v-1h1ZM477,243h-1l1,-1ZM497,240v-1ZM495,241h1v1h-1ZM476,258l1,-1v1ZM572,298l-1,-1h1ZM568,169h2l2,1l1,1h1v-1l2,-1l1,-1v2l-1,1v1h1v1l1,1v1h1l1,-1h1l-1,1h-2v1h-1l-1,1h-6l-2,2l-1,2v2h-3l-5,-3h-5l-2,1l-2,-1h-2v2l1,1h1l2,1l1,1h-3l-1,1v1h-3v-4l-1,-1h-1v-2l1,-1h1l2,-2l-1,-1v-1h3l1,1h2v-1l1,-1l-1,-1v-1l1,-1v-3h1v-2l-1,-2v-1h-1v-2h2v-1v1l1,1l2,1l3,3l2,1l1,1h2l1,1ZM487,244h3v-1h1v1l-1,1v1h2v2h1v1l-2,2v1l-1,1v2l-1,1v2l-1,2h-2v1l-1,2h-2l1,-1v-2l-1,-1h1v-1h-1l-1,1v2h1v1l-3,-1l-1,-1h1l1,-1l-1,-1v-3h1v-1l2,-2v-1h-1l1,-1v-1h-1l-1,-2h-1v2h1v2h-1v-1h-2l-1,1v-1l-1,-1v-1h1v1h1v-1h-1l-1,-1v-2l2,1v-1h-1h1l1,-1h2v-1h1v-1l2,-1h1l1,1v1ZM510,239h2v2h1v1l-2,2h-1v1l-1,1l-2,-1v-1h-2l-2,1l-1,1v2h-1l-1,1v1h-2v-1h-1v-1h-1l1,-1v-1h-1v-1h-1l-1,1h-1l1,-1h1l2,-2h1v-1l2,-2l1,1h4v-2h1v-1h3ZM554,188h2v5l1,1h1l1,1l1,2v1l1,1v2l-1,2h1l-1,1h-1v2h-1v3h-2l-1,1v3h1v5l-1,1v1h-1v5l1,2h1v1h-2l-1,1v3h-2v1l-1,1h-1v-3h1v-1l1,-1l-1,-1h-1v1h-1h1h-1v3l-1,-1h-2l-1,1v3h-1v1h-1v-3h1l-1,-1h-1l-3,3v1h-8l1,-1h-2v-1v1h-1v-2h-1l-1,2v1l2,1v1l-2,1h-1l-1,1l-2,4l-2,1l-2,-1v-1l-2,-2v-3h1l1,-1v-1h-4l-1,-1h-4v1h-1l-1,1h-3l-1,1h-2l-2,1h-2l-1,-1l-1,1v1l-1,1v1l-2,-2h-1l-2,1h-4v-3h4v-1h1l2,-2h1l3,-3l2,-1v-1h2l2,-1l1,1h4l2,-1h2l3,-1h3l-1,1h3l1,1v-1h1l1,-1v-3l4,-4l1,-2l-1,-2l1,-1h1l2,-1h1l-2,2h-1v2l1,1h2l1,-1l3,-1h1l1,-1l2,-1v-1h1v-1l3,-3h1v-1l1,-1v-2l2,-2v-3h1v-3l-1,-1h-1v-1h1v-3h-1v-1l1,-1h1v-1h1v-1l-1,-1h3v3l1,-1h2v-1h1l-1,-1h-3l1,-2h1Z"/>
<path class="sl" d="M432,314l-1,2h-1v-1h1ZM428,316h-1v-1h1l1,1ZM441,313h-2l1,-1h1ZM464,297l-1,1h-1l-1,1h-1v1h1h-1v1l-1,1v-3h1l1,-1v-1h2v-1h1ZM470,289h-1v-2l1,1ZM473,285v1l-1,-1h-1h1v-1h2v-1h1v1h-1ZM472,286l-1,-1h1ZM550,248v-1h1ZM66,279l-1,1h-1v1h-1h1v-1h1v-2l1,1v-1ZM210,507l2,2v1l1,1v3l-1,1l-1,-1v-2l-2,-2v-1l-2,-2h2v-1ZM222,536l-2,-2v-1l-2,-2v-1l1,-2h1l1,1v2l1,1v1l1,1v1ZM361,598l-1,1l1,1h-5l-1,-1h2v-1l-1,-2l2,-1v-1h1l2,1h1v1ZM351,594h1l2,2h-1l-2,2h-1v1h-1v-1l-2,-2h-1l-1,-1h-1v-1h-1v-1h2l1,1h2l1,-1h1ZM274,536v1h1v4l2,2l3,1l-1,1v3h-2v-1h-1l-1,-1h-1l-1,-1v-3h-1v-2h-1l-1,-1l-1,1h-1v-1h-1v-1h1l1,-1v-2h2v1h1l-1,-1h3ZM416,563v3l-1,-1l-1,1v3h1l1,1l-1,1h-2v2h-2v-3l1,-1v-2h1v-3l1,-2h1ZM411,569v1h-1v1v-1h-2v-2h1v-1l-1,-1l1,-1h1l1,-1h1v3l-1,1ZM292,490h-2l1,-1h1l-2,-1v-1l1,-2h1v1l1,1v1ZM291,548v1l-1,1h-1v-1h-1l-1,1v-1l-1,-1v-2h1v-2h3l1,1l1,2ZM521,530h5l1,2l1,1h1l1,1h-1l-1,1l-1,-1h-2v-3l-1,1l-1,-1h-1ZM522,538h7l1,1h4l1,1h-3l-1,1l-1,-1l-1,1l-1,-1h-1l-1,-1h-4ZM482,524h1l3,1v2h-3l-1,-1h-1l-1,-1v1l1,1h1v1h-1v-1h-2v-1h-2v-1h2l1,-1h1ZM461,506h-2v-2l1,-2h1l1,-1l1,1l-1,3v1ZM458,538v1h-6v-2l2,-1h1l1,1h1ZM440,545l-1,-1v-3h1v2ZM440,539l3,1h-1l-3,1h-4v-1h-1h3ZM431,539h3v1h-2l-1,1l-1,-1l-2,1h-2l-1,-1l1,-1v-1h2ZM486,593h-2v-1l1,-1v-1l1,-1v-1h1v-1h1v-1h2l-1,1v3l-1,1h-1v1ZM447,590v1h-1l-2,2l-1,-1h-3l-1,1v-1l1,-2l1,1h1l1,-1h3ZM428,594v1h1l1,-1l1,1h2v1l-7,1v-1h1v-1ZM483,536h-1l-1,-1v-2h-1v-1h3l1,1v1ZM204,474h1l2,-1l1,1h4v1l2,2v1l1,1l1,2v2l5,5l2,1l2,2l2,1l1,2v1l1,1v1l2,2v1l3,3h1l-1,-1v-1h1v-1l3,3v1l1,1v1h3l1,2l1,1v1l1,1v1l2,2l2,1h1l1,1v1l-4,2h2l1,-1h1v-1h2v-1l2,2h1v2l1,1h-1l-2,2v3l1,2l1,1l2,1h3v2l1,1v4l1,1v1h2v2h-1l-1,1v2h1l1,-2h4l1,1h1l3,6v1l-1,1v3l1,1l-1,2v6l1,2l-1,7h-1l-2,-2h-1l-1,1h-2l-2,-2v1l1,2l-1,1v-1h-1l-1,-1l-1,-2h-1v-1l-2,-3h-1l-3,-2v-1h-1l-7,-7l-1,-2l-5,-5l-1,-2v-1l-1,-1h-1v-1l-2,-2v-4l-4,-7l-2,-5l-2,-2l-1,-3l-1,-1l-2,-1l-1,-1v-1l-2,-5v-4l-1,-2l-1,-1v-1l-3,-2l-1,-1h-2v-2l-1,-2v-1l-2,-2v-1l-1,-1l-1,-3h-1v-1h-2l-2,-2v-1l-2,-2l-2,-4h-1v-1l-1,-1l-1,-3l1,-1v-2h2l1,1h1l1,2h2ZM413,598l-1,1h-5l-2,1h-1l-1,1v-1h-2v1h-3l-2,-1h-4l-2,-1v1h-2v-4l1,1v-1h1l1,-1h4l1,1h3l2,2h1l1,-1h4l2,1h1v-1h1v-1h2l1,-1h-1v-1h1l1,2h-1v1h-1Z"/>
<path class="sl" d="M390,605l2,1v1h2v1h1l1,1v1h1v1l-1,1h-5l-1,-1v-1h-1l-1,-1l-2,-1h-2l-2,-1h-1v-2h2l1,-1h2l2,1v-1h1ZM375,595v1l1,-1h2v1h1v-1h1l1,1v1l1,1v1h-2v1h-4v-2l-2,2h-1l-1,1l-1,-1l-2,1h-3v1h-2l-1,-1v-4h1l1,-1h4l1,1v1l1,1h1l2,-1h1l-1,-1h-1l-3,-3l1,-1h1l1,1h1v1ZM430,515l-3,3v1l-1,1h-2l-1,1h-7l-2,-2h-6l-2,1h-3l-1,-1h-2l-3,1h-1l-2,-1h-2l-3,3v1l-1,1v3l1,1v1l1,2l2,1l1,1v1l1,1h1l1,1h1l1,-1v-1l3,-3h1l1,1h2l1,-1h1l1,-1h4v-1h5v1l1,1l-1,1v1h-1v-1h-1l-1,-1l-1,1h-1l-1,1v1l-3,3h-1v1h-3l-1,1v1h-3v1h1l1,1v1h1l1,1l1,2v1l1,1l2,1v1l1,1v1h-1v4h1l2,2v1h2v3h-1v-1v1h-2l-3,1h-1v3h-1l-2,-1h-1l-1,-1v-1l1,-2v-2h-1l-5,-5v-1l1,-2v-4h-4l-2,1l-1,1v1l1,1v1l1,1v4l-1,2l1,3v3l-1,2v1l1,2v2h-4l-1,1h-1l-2,-2h-1v-2l1,-1v-3l1,-1v-6l-1,-2v-2h-5v-1l-1,-1v-2l1,-1l-1,-1v-1l1,-1l2,-1v-3l1,-1v-1l1,-1l-1,-1v-2l2,-5l2,-2v1l1,1v-2l-1,-1v-4h1v-4l1,-1l1,-2l1,-1v-1h1v1h2l1,-1h1v-1l1,-1v-1h1l1,1h2l1,1h3l2,1h4l1,1h11l3,-1l1,-2h1v-1h1v-1h1l2,-2h1v1l1,1l-1,1l-1,2ZM285,574l1,1h1l1,1h3l1,1v-1h1l2,2v2l1,1h3l2,1h1l1,-1l2,1h6v-1l1,-1v-2h2l3,3l1,-1h1l1,1h1l2,1h3l2,2v1l1,1v2l4,2h2l2,-1h3l2,1h1v7h1l1,1l-1,1l-1,-1h-1v-1h-3l-6,-3h-1v1h-8l-6,-1h-2l-2,-1h-2l-5,-2l-1,-1l-5,-1h-2l-1,-1h-1l-1,1h-5l-1,-1h-1l-1,-1l-3,-1h-5l-1,-1v-2l-4,-2h-6v-1h1v-1v1h1l1,-1v-1h1v-1l1,-2v-1l1,-1h2l1,1h2l1,1h1v-1h1v-1h1ZM302,504v3l1,1v1l2,2h1v1l3,3h1l3,-2h3l1,1h3l1,-1h1v-1l1,-1v-1l1,-1h6v1h1l2,1h1l1,1l2,-2h6v-2l2,-2v-1h-1v-2h1l1,-1h1v-1h1l-1,-1v-2l1,-1h2v-2l1,-1v-6l1,-1v-1h1v-1h1l1,1l1,-1h2v1l1,-1h5l1,1l2,1h1h-1v1h1v1l1,1v1h1h-1l-1,1v-1h-1v1l-2,-1h-1v1l2,1v2l1,1h1v2h1l-1,1h2v2l2,2v1h-1l-2,2h1l5,5l2,1l1,2h1l1,1l-1,1h-6l-2,-2h-1h1v2h-1l-1,1l-2,3v9l1,1h-1l-1,1h-1l-2,2v1h-1l-1,-1v-1v3h-1v1h-1v1h-1l-1,1v1h1v2l-1,1h2v3h-2v1h1v2h-1v1h-1l1,1h-1v1l-1,1v2h-1l-5,3l-5,2h-1v-6l-1,-1v1h-1v-2l-1,1h-1v-1l-1,1l-2,1l-1,-1v-1l-1,-1l-1,1l-3,-3v2l-2,2h-3l-1,-1l-1,1l-2,1h-1v-5h-4l-2,1h-2v-1h1h-2v1v-1l-1,-1l-2,1h-1v-2l-1,-4v-3l-1,-1v-2l1,-1l-1,-1v-2h-1v-1l-1,-1h-3v-1h-1v-1h1l-2,-2v-2l1,-1v-2h-1v-1l-1,-1v-2l-1,-2l1,-1v-2l1,-1h-1l1,-2l1,-1v-1l1,-1v-1ZM455,517h1v-1l2,-2v-1l1,-1l2,-1l1,-1h1v5h-1l-2,1l-1,1v1h2l2,2v1h1l1,1l-3,-1h-2l-1,-1h-3v4l3,6l2,2h-2v-1l-2,-1l-1,-2v-1h-1l-1,-1v-3l1,-2h-1l-1,-1v-2l1,-1l-1,-1l-1,-2v-1l1,-2v-2l2,-2l1,-2h1v1l-1,1v1h1v5l-1,1l-2,1v1Z"/>
<path class="sl" d="M472,549l2,1h4l2,2v2h1l1,1v3l-4,-2l-1,-1l-2,-1h-1l-1,-1h-3v1h-2l-1,-1h-2v-1h-1v1l-1,1h-2l-1,-2h-1l-1,-1v1l-1,1v1h-1v-2l3,-3h7l1,1l1,-1h1v-1h2ZM447,551l2,1l2,2l-1,2h-1l-1,1h-3l-2,-1l-1,-1h-1l-1,-1v-3h5ZM431,601v1h2v1h-1v2l1,1l-5,5h-1l-1,1h-1l-2,1h-2l-1,-1h1v-1l-1,-1v-1l1,-1v-1l1,-2h5v-2h2v-1ZM516,574v1l-1,1l1,1v1l-1,1h-2l-2,-2v-1h1v-1l-1,-1v-1l1,1l1,-2h1v-1h1v2ZM514,580v1l-3,3l-1,-1v-3h1h-1v-2h1l1,1h1ZM548,596l-2,1h-5v-1l1,-3l2,-3h1v-1l1,-1h5l1,1v2l-1,1v2l-2,1ZM570,547v32l-1,1v22l-1,-1l-2,-1v-1l-1,-1l-3,-2l-1,-1v-1l1,-1h-1l-1,1h-2l-1,1h-2v-2l-1,1h-1l-1,1h-1v-1h1v-2l1,-1v-2h-1l-1,-1v-1h-1h1v-1h1l1,1l1,-1h-3l-2,-2h1l1,-1l-1,-1v-1h-1l-1,-1v-1l-1,-2v-2h-1v-1l1,-1h-1l-1,1v-3h-2v-1h-1l-4,-2v-1h-4l-4,-2l-1,-1h-1l-1,-1h-7l-4,-2l-1,-1v-2h1h-1v1h-1l-1,-1h-2v-1h-2l-2,-2v-4h1h-2v3h-1v2l-1,1v1l-1,1h-2l-1,1v-1h-1v-2l-1,-1l1,-1v-1l-1,-1l-1,-2l-2,-1h-2l-1,-1v-1l2,-1h1l2,1h1l2,-1l2,-2h1l1,1h2v1h1v-2h2l-1,-1v-1h1v-1l-2,1h-4l-3,1h-3l-1,-1l-1,1l-3,-3l-1,-2v-1h-1l-4,-2l-1,1h-1l-1,-1l2,-2v-2l1,-1h1l3,-1h1l2,-2l2,-1h2l6,3h2l2,1l1,-1l1,1h1v3l2,2l-1,1v1l-1,1v1l1,1v3l1,3l1,2l1,-1v-2h1v4h1l1,-1v3l1,1h5l3,-3v-1l1,-1l2,-1v-2l1,-1l2,-1h2l2,-1h1v-2l4,-2l1,-1h1l1,1h1l5,2h1v1h2l1,1h1l2,1l3,1h3v1h4l1,1v1ZM551,597l-2,-1l1,-1h1v1ZM241,502v3l-1,1l-1,-1v-2h1ZM246,512h-1v-3h1v2ZM247,508v1h-1v-1h-2l-1,-1v-1ZM251,514v1l-1,-1h-3v-1h-1l1,-1v-1l1,1h1l1,1h1ZM252,513v1l-1,-1h-1v-1h-2l1,-1l2,1ZM253,516h-1v-1ZM254,515l-1,-1v-1l1,1ZM258,511h1v1h-1ZM263,511v3h-1v-1h-1l1,-1h-2l1,-1h1ZM264,523l1,-1v1l1,1h-1l-1,-1h-2v-2h1v1h1ZM262,524v1h1l-1,1v1l-1,-1v1v-1l-1,-1l1,-1v1ZM256,524h-2l1,-1h1ZM303,532l-2,1v-2h2ZM338,584h-2l-1,1h-6v-2l1,-1h9l1,1ZM518,534h-1l-1,-1h1v-1l1,1ZM451,528l-1,1h-1v-3h2v1ZM453,527l1,1v2h2v1l-1,1l-1,-1h-2v-2l-1,-1v-1h1v1ZM500,575l-1,1l1,-2v-1h1l1,-3v3l-2,1ZM499,575l-1,1v-2l-1,-1h1l1,1ZM460,556h-2l-1,1l-1,-1l1,-1h3ZM447,489h-1v-1l1,-1h-1v-3h1v1l1,1v1h-1ZM437,494h-1v-1h-1v-2l1,1v1ZM482,596h-1h1l2,-2h1l-1,1h-1ZM473,593v1h-1l-1,-1v-1h2ZM456,594h2v1h-2ZM478,539v2h-1v1h-2l-2,-1h-1v-1l2,-1h3ZM247,568h-1l-1,-1h2Z"/>
<path class="sl" d="M232,548v1l-1,-1v-1h-1v-2l2,1v1ZM230,544l-1,1l-1,-1v-2h1ZM227,541l-2,-2v-1h1v1l1,1ZM217,524v1l-1,-1v-1h1v-1l-1,-2h1v1l1,1l-1,1ZM203,499h-1v-1l-2,-1h-1v-1l-1,-1v-1h1l1,1h1v1l2,1v1ZM406,571h-1l-1,-1v-2h1h-1h2v1ZM416,534v2l1,-1h2l-1,1v1h-1v-1h-1v2h-1v-3l-1,2l-1,1v-1l-1,-1v-1l1,-1h2ZM404,527v1h-2l1,-1ZM393,578v1v-1l-1,-1l1,-1l-1,-1l1,-1v1ZM350,583v1l-1,-1v-1h2v1h1h-1ZM357,557l-1,1h-1v-5l2,-2v5ZM415,618h-1v-1l2,-1l2,-2v1h1v1h-1l-1,1ZM426,596h-1v2h-1l-1,-1v-1h1l1,-1h1ZM423,595l-2,1v1h-1v1h-3v-1l2,-1h-1v-1h1l1,1l1,-1h1ZM417,596h-2l1,-1h2ZM515,581v-1l1,1ZM254,512h-1v-1ZM257,514h-1v-1ZM260,514l-1,-1h1ZM263,521v-1l-1,-1l1,1ZM276,494v1v-1h-1l1,-1ZM272,496v-1h-1h2ZM297,497h-1v-1h1ZM297,536h-1v-1ZM285,547v-1l1,1ZM281,548h-1v-1h1ZM342,585l-1,-1h1ZM328,573h-1l1,-1ZM269,579h-1l1,-1ZM209,501v1l-1,-1v-1h1ZM197,468v1h-1v-1ZM419,539h-1v-2h1v1ZM416,560l-1,1v-1h-1v-2l2,1ZM421,541v-1ZM415,540h-1h1v-1ZM385,599h-1v-2h1v-1v1h1l-1,1ZM381,595v-1h1v1ZM353,599h-1v-1h1ZM369,487h2v1h-2l-1,-1ZM369,495h-1v-2l1,1ZM423,576v-1ZM420,570h-1v-1ZM396,585h-2v-1l1,1ZM369,596l-1,-1v-1h2ZM358,553v2l-1,-1ZM452,517h-1v-1v1ZM513,543h-1v-1h1ZM506,561h-1l-1,-1h-1l2,1ZM482,531v1h-4v-1h3ZM480,529h-1v-1h1ZM471,526h-1v-1h-1l-1,-1l2,1ZM452,524v-1ZM452,518v-1ZM451,531h-1v-2h1ZM463,555h-1v-1ZM462,555l-1,1v-1ZM446,490v1v-1l-1,-1h1ZM447,491v-1ZM435,501l-1,-1v-1l1,1ZM492,587h-1v-1h-1h1ZM463,586h-1v-1h1ZM452,590v-1h1v1ZM419,613h-1v-1l1,-1v1ZM406,615h-2l1,-1h2v1ZM516,580v-1h1ZM515,583v-1h1ZM457,550h-1ZM454,553h-1v-1ZM415,598h-1v-1h1ZM187,459v1l-1,-2v-2h1l1,2ZM187,455h-1v-1ZM183,447h1h-1v-1ZM185,450h-1v-1h1ZM186,448l-1,1v-2h1ZM182,439h-1v-1h1ZM181,427h-1l1,-1l-1,-1l1,-1h1v1ZM183,419v1v-2ZM184,418h-1v-3l1,-1v-2h1v-5h1v-2l1,-1v-3h1v3l-1,1v1h-1l1,1v3h-1v2l-1,1v1h-1v1h1l-1,1v1ZM186,414v1ZM185,407v-1ZM75,415v-1ZM13,613v-2l-1,-1l1,1v1ZM46,687l-1,-1l-1,-2v-1l1,1v1l1,1ZM878,630h-1l1,-1ZM866,639h-1v-1v1ZM964,649v-1ZM965,656v-1ZM964,651h-1l1,-1ZM966,657l-1,1v-3h1v1ZM993,585l-1,1ZM992,587v1ZM991,592l1,-1ZM993,579v-1ZM993,583v-1ZM975,655v-1Z"/>
<path class="sl" d="M993,579v-1h1ZM974,659h-1ZM974,657v1v-2ZM967,678v1ZM978,641v-1ZM976,645v1ZM976,646v-1ZM976,640v-1ZM975,644v-1ZM747,700l-2,-2v-1h-1v-2l-1,-1v-2h-1h1v-1l1,1v1l1,-1l4,4h1v1h1v2h1v1Z"/>
<path class="sp" d="M752,700h-5"/>
<path class="sl" d="M714,685v-1h1v1ZM759,695v-1l1,-1v1ZM764,699l-1,-1h-1v-1l1,-1h-1v-1h2v3ZM206,885h1v-1l1,1h-1h4v1h-1v1h2v1h-1v-1v1l-1,-1h-1v1h1h-1v-1h-1v-1h-1v-1h-1l-1,-1v-1h-1l-1,-1h1v1h1v1h1ZM206,884l-1,-1h1ZM160,864v1l-1,-1ZM852,655l-4,4v1l2,-2h1h-1v2h-5v1h-1l-1,1v-1l-1,-1v-1h2v-1h1l1,-1h2v-1h1v-1h2ZM839,665v1h1v1h1v1h-1v3h-1v1v-1l-2,2h-2v-1h-2v-1l-1,-1h1v-1h1v-1l1,-1v-1h2ZM850,661v-1l1,-1l1,1h-1ZM850,661v1v-2ZM838,678l-1,1h-1v1h-1v-1h1v-1h1ZM854,669v1l-1,-1ZM855,671v1l-1,-1ZM858,669h-1l1,-1ZM855,664v-1h1ZM847,678v-1ZM834,664h-1l1,-1ZM846,665v-1ZM844,671v-1ZM842,668v-1ZM851,658v-1h1h-1ZM852,655v-1ZM851,658v-1ZM11,605l1,1v1l-1,-1ZM12,607h-1v-1ZM384,314v1h-1v-1ZM418,259h-2l-2,-1v-1h1l1,1ZM420,271h-2v-1h2ZM419,273h-1l1,-1ZM421,272l-1,-1h1ZM398,307h-1v-2h1v1ZM321,341h1v1h-2ZM411,286h-1v-1h1ZM347,327v1v-1h-1ZM340,337l-1,-1h1ZM339,337h-1l1,-1ZM324,350v3l-3,3v1h-1v2l-1,1v1h-2v1l-1,1h-2l-1,1v1h-2l-1,-1h-2l-1,-1l-2,-1l1,-2l-1,-1l1,-3v-1h1l2,-2h1l1,-1h-1l1,-1h2l1,-1h7l1,-1l1,1ZM350,330h1v-1h1v1h1v1h-1v1l-1,-1h-2ZM352,332h-1ZM350,332h-1l1,-1ZM674,32h1ZM256,423h-1v-1h1ZM257,428v-1ZM220,425l1,1h-1v-1h-1l1,-1ZM219,433v1v-1l1,-1v1ZM221,420v-1l1,-1v-1v2ZM223,416v-1l1,1ZM224,418l-1,2v-1l-1,-1v-1h1ZM224,410v2l-1,1v-3ZM221,414l-1,-1h1ZM201,381l-1,1l1,-1v-1l1,-1v1ZM222,379v-2h1v1ZM200,358v-1l-1,-1h2v1ZM201,348v1v-2ZM202,350l1,1v1l-1,1v-2ZM223,425h-1v-1l1,-1ZM220,418v1v-2ZM221,412l-1,1v-1ZM223,406v1v-2ZM203,382v-1ZM198,347v1v-2ZM348,480v2l1,1v2h-2v-5ZM347,480l-1,1h-1v6h-1v1h-1l-1,-1v-1h-1v-1l-1,-1v-1h-1h2l1,-1h1l1,-1v-1h1l2,-1ZM192,328l-1,1l1,-4v2ZM194,327v-1ZM189,329h-2l2,-2v-4l1,-1v2l1,2h-1v2ZM195,331v1v-2ZM195,334h-1l1,-1v-1v1ZM190,322v-1ZM54,285v-1l1,-1v-1h1h-1v2ZM115,182h1v-1v1h-1v1v-1v1l-1,1v1h-1l-1,2l-1,1v-1h1v-1h1v-2h1ZM123,173v-1ZM587,627v1h-1v2h2v1l1,1v4l1,2v5l1,2v2h1l1,1l2,-2h2l1,1v1l4,2l1,1v5l1,2v7h1v1l2,2v1l1,3l1,2l-1,2v3l1,2h1v1l-1,1l1,2h1l2,2h2l1,1h3v2l1,1h1l1,1h2l1,1h1l2,2v1h1l-1,1v-1l-1,1l3,3l1,2v2l1,1v4l1,2v1h2v1h1l-1,-2l1,-1h1v1h1l2,2v-2h1v9h1v1l3,3h2l1,1v1l1,2l1,1h1v1h1v2l2,2v4h1v1l-1,3v5l-1,1l1,2l1,3v8l-2,1l-1,2v2l-1,2l-1,1v1l-2,3v3l-1,1v1l-1,2l-4,4v2l-2,2h-1v1h-1h1l-2,1h-1l-1,2l-1,1h-1v1l-1,1h-1v3h-1l-3,3v1l-1,1v2h-1v1h-1v1l-4,4v1l-1,1v2l-1,1v1l-1,1v3h-1v1l-1,1h-1l-1,1h-4l-5,1h-2l-4,2l-4,3l-3,1h-1v1l1,-1v2h-1v-1h-1v-1l-1,1l-1,-1v-1h-3l1,-1h1v-1h-2l-1,1h-2l-1,-1h2l1,-1v-1h-1v-1l-3,2h-1h2l-1,1h-1l-2,1l-2,2h-1l-1,1l-2,-1l-1,-1h-2l-1,-1h-3l-2,-1h-1l-1,1h-1l-1,-2h-2l-2,-1h-2l-1,-2l-2,-2v-1h-1v-1l1,-1v-4l-3,-3l-2,-1v-1h2v-1l-1,-1v1h-2v1h-1l-1,1h-1l-2,-1l2,-2l1,-2v-2h-1l-1,-2v-1l-1,-1v1l-1,1l-1,2l-1,3h-3l-1,1h-2l1,-2h3v-2l1,-1v-3l1,-2l2,-2v-3h1v-2l-1,-1v-1v2l-4,4l-1,2h-2l-1,1h-1l-1,1h-1l-2,3l-1,1v1h-1l1,1v1h-1l-1,-1l-1,1l-1,-2h-1v-1h-1h2v-1l-1,-1v-2h-1l-2,-2v-2l-1,-1h-1l-2,-1l-1,-1v-2h1v-1l-3,-1l-1,-1h-1v-1h-3l-3,-1h-4l-6,-3h-1l-1,-1l-1,1h-11l-3,1h-2l-2,1l-7,2l-2,1h-11l-2,2h-2l-4,2l-1,1h-2l-1,1l-1,2l-1,1l-1,2h-2l-1,1l-1,-1h-2l-5,1v-1h-11l-1,1l-1,-1l-3,1h-1l-1,2l-2,1h-2l-2,2l-3,1v1h-8l-3,-1l-2,-1h-2l-3,-3l-2,-1h-1v1l-1,-1v-1h-1v-4l1,1h1l2,-2v-3l-1,-2v-6l-1,-1l-2,-3l-2,-2l-1,-2l-1,-1l-1,-3v-1l-1,-2v-3l-1,-2l-4,-4l-1,-2l-2,-2v-1l-1,-3l-4,-5l-3,-3l-1,-2h-1h2v-1v1l1,2l1,1h1l1,-1v-1l-1,-1h-1l-2,-2l-1,-2l1,-1l2,2v2l1,1v-1l2,2h1v-4l-2,-2l-3,-5l-2,-2l-1,-2v-5l1,-3v-4l-1,-2v-2l1,-3l1,-1l1,1v4h1l1,-1v-1l1,-2l2,-2l4,-2l1,-1l2,-1v-1h1l5,-3h8l1,-1l2,-1h1l2,-1h2l3,-2h5l3,-1h2l4,-2h1l1,-1l1,-2l1,-1l1,-2v-1l1,-1v-1h1l3,-3h1v-1h-1l-1,-2v-4l1,-1v-1l1,-1h1l2,-2v-1l1,-1l2,4l1,1l1,2l1,1v1v-1l1,-1l-1,-2h1l1,1v-1l1,-1h-1v-1l-1,-1h-1v-1h-1l2,-2l-1,-1h1l1,2h1v-1h2l1,1h4l-1,-1h-2v-2l1,1v-2l1,-1h-1v1l-1,-1h-1l1,-2v-1h2v-1l2,1h1v-1h-2l1,-1h-1l1,-1h1v-1v1h3v-1h-2v-3h2v-1h1v-2h1v2h1v1h1v-1h1v-4h1v1h1l1,-1l1,1h1l1,-1v-2h2l2,2h2v1l2,1v1l1,1l3,2v2l-1,1v2l1,-1l1,1v-1h-1v-2h1l1,-1h2l3,1h1v1l1,1v-3l1,1h1l1,1v1v-3h1l-1,-1l1,-1h-1l-2,-2l1,-1l1,-2h1v-3h1l1,-1h1l1,-1v-1l-1,-1v-1l1,-1h1v-2h2v-2h1l1,1h1v-1l-1,-1h2v-1h1l1,-1v1l1,1h3l1,-1l1,1h1l1,-1h1l1,1v-1l1,-1h1h-1v-2l1,-1v-1l-2,-1h-3l-2,-2h-1l2,-1v1h1v1h1v-1h1l2,1l1,1l1,-1h1l2,2v1h2l1,1h3l2,1h1l1,1h2l1,-1l1,1l2,1h2l1,-1h1l2,-1l1,-1h1l-1,1v1l-1,1h2v1l1,1h1l1,-1v-1h-1v-1l2,-1h1v1l1,1h2v1l-3,4v2l-1,2l-1,-1h-2l-2,1v3l1,2v1l-2,2v1l-3,3v2l1,1l6,3v1l2,1h2v2h3l1,1h1l1,1l2,1l4,4h4l1,1h2v1l1,1l1,2h1l4,2l1,1h1l3,-1l1,-1l2,-1v-2l1,-1l2,-3l1,-2v-2l1,-1v-4l2,-3v-3l-1,-3l1,-1v-3l-1,-1v-1l1,-2v-1l1,-1v-3l1,-1h1v-2h-1l-1,-1v-1l1,-2l1,-1l1,1v-2l1,-2v-3l1,-3h1l1,-1v-1h2l-1,1v1l2,2v4l1,2h1Z"/>
<path class="sl" d="M655,737v1v-4h1v-1l1,-1v-2h1v-1v3l-2,4ZM555,665l-2,2h-1v-1l1,-1l2,-1h1v1ZM532,643h1v-1h1v1h-1v1l-1,1h1v1h1v1l-2,-1h-3l1,-1l-1,-1l3,-3v1ZM479,625h1v1h-1l-1,-1l-2,1h-1l2,-2v-1h-1l1,-1h1v1l1,1ZM480,622h4l1,-1h1l1,1h1v1l-2,2l-3,2l-3,-2l-1,-1v-1l-1,-1v-2h1v1ZM348,740l-2,-2v-2l1,2h1v1ZM533,811h3l1,1h-4v1h-7v-2h3l2,-1h2ZM585,828l-1,1v-1ZM584,829v1v-1l-1,1v-1ZM630,695h-1l1,-1ZM629,694v-1h1v1ZM643,720h1v2h-1l-1,-2ZM640,711h-1h1v-1ZM635,710v-1ZM656,750l-1,2v-2ZM656,749h-1v-1l1,-1v1ZM580,616l-1,1v-2ZM580,612h-1v-1h1ZM579,611v1l-1,-1ZM610,679v2l-2,-2h1v-1ZM531,622v1v-1l1,-1v-1h1v1ZM529,624l-1,1l2,-2ZM535,659h-1v-2l1,1ZM533,658v-1ZM531,658h-1v-1h1ZM554,670v-1h1v1ZM528,643h-1v-1l1,-1v1ZM497,622l-1,-2v-1h1v1ZM435,649h-1v-1h1ZM430,656v-1h-1v-1l1,1ZM360,699h-1v-1h1ZM579,844h2l1,1v-1l1,1h1v1h7v-1h4l1,-1h4v3l-1,1v3h-1v1h1h-1v1v-1h-1v1h-1v2h-1v4h-2v-1h1v-1h-2v1v-1l-1,-1v2h-1v1h-1v1h-1v1h-6v-1h1l-1,-1v1l-1,-1v-1h-1v-1l-1,-2v-2l1,1v1l1,-1l-1,-1h-1v-1l-1,-1v-2l-1,-1v-5l1,1ZM573,840v-3h1v-1l1,1v1h-1l1,1h-1v1ZM600,837l1,1v1h1h-1v1l-1,1v-1h-1v-2h-1h1ZM591,860l-1,1h-1v-1h1v-1ZM596,856v-1h1ZM591,859h-1h1v-1ZM578,842v1ZM601,841h1v1h-2l-1,-1h1ZM600,842v1ZM626,920l1,-1h1l-1,1ZM275,612v1v-1h-1h1v-1ZM212,624v1ZM213,625h-1v-1h1ZM242,907l-1,-1h-1h1ZM121,176v-1ZM306,961h2v1v-1h-2l-1,-1h-2l-1,-1h-1l-1,-1h-1h3v1h2l1,1h1l2,1h-1h2l1,1h1l1,1l-1,-1h1v1h2l2,1h3l1,1h3l2,1h4l1,1h1v-1h-1h1l1,1h1l1,1h2l1,1h1l1,1h1l1,1h1l1,1h2l1,1h-1l-1,-1l1,1h1l1,1h3l1,1h1l2,1h1l1,1h2l1,1l2,1h2l1,1h2l1,1h1l-1,-1h-2l-1,-1h1h-2v-1h-2v-1h-2l-1,-1h-1l-1,-1h-1h1h-1l-1,-1h-2v-1h-1h3l-1,-1h1h-1h1l-1,-1h-1v-1l-2,-1l1,-1h4l-1,-1h1l-1,-1h2l1,1h1v-1h9v-1h4v1h23v-1h-1l1,-1l2,1v-1h3l2,1h4l6,1l2,1h4l1,1h5l1,-1v-1l1,-1h8l1,1l2,1h4l1,1v1h-4v1h4l1,-1h12l-1,1h5l2,-1h3l2,-1h9v-1h3l1,1h1l2,1h6l2,-2h11l1,-1h1l1,1h2v1l1,-1h1l2,-1v1h8l1,1h9l2,1v-1h2v1h8v1h-1l-1,1h-1v1h1l1,-1h6l1,1l-1,1h13v1h7l2,-2l2,2h2l1,1h8v1l-1,1h1l-1,2h2l2,-2h2v1h9v1h1l1,1h2v-1l-1,1v1h-3l-2,1h1h-4l1,1h-2l-2,1l-1,-1v1h-2v-1h-1l-1,1h1h-1l-1,1h-3v-1h-1v1h-1l-1,1h-1v1h-7l-2,1h-2l-2,1h2l-1,1h-2v1h-2v1h-1l-1,1h1h-1h2v1h-11l-2,1h-2l-1,1h-3v1h-2v1h-1h1h-1h1h-2h3v1h1h-1h2l1,-1l-1,1h-15l-1,1h-44l-1,-1h-15l-1,-1h-11l-1,-1h-7l-1,-1h-8l-1,-1h-5l-1,-1h-6l-1,-1h-5l-1,-1h-4l-1,-1h-5l-1,-1h-4l-1,-1h-3l-1,-1h-4l-1,-1h-3l-1,-1h-3l-1,-1h-3l-1,-1h-3l-1,-1h-3l-1,-1h-2l-1,-1h-3l-1,-1h-2l-1,-1h-3l-1,-1h-1l-1,-1h-3l-1,-1h-2l-1,-1h-2l-1,-1h-2l-1,-1h-2l-1,-1h-2l-1,-1h-2l-1,-1h-1l-1,-1h-2l-1,-1h-2l-1,-1h-1l-1,-1h-2l-1,-1h-1l-1,-1h-2l-1,-1h-1l-1,-1h-2l-1,-1ZM548,998h-1h2v-1h1l-1,1h-2ZM571,995h1h-2ZM590,992h1l1,-1h4l1,-1h-1v1l1,-1h3l1,-1h2l-1,1h-4l-1,1h-4l-1,1h-1ZM615,987l1,-1h1h-1l-1,1h-1Z"/>
<path class="sp" d="M539,998l-1,1h-15l-1,1h-44l-1,-1h-15l-1,-1h-11l-1,-1h-7l-1,-1h-8l-1,-1h-5l-1,-1h-6l-1,-1h-5l-1,-1h-4l-1,-1h-5l-1,-1h-4l-1,-1h-3l-1,-1h-4l-1,-1h-3l-1,-1h-3l-1,-1h-3l-1,-1h-3l-1,-1h-3l-1,-1h-2l-1,-1h-3l-1,-1h-2l-1,-1h-3l-1,-1h-1l-1,-1h-3l-1,-1h-2l-1,-1h-2l-1,-1h-2l-1,-1h-2l-1,-1h-2l-1,-1h-2l-1,-1h-1l-1,-1h-2l-1,-1h-2l-1,-1h-1l-1,-1h-2l-1,-1h-1l-1,-1h-2l-1,-1h-1l-1,-1h-2l-1,-1h-1M551,997h-1l-1,1h-2M573,995h-3M603,989l-1,1h-4l-1,1h-4l-1,1h-2M618,986h-2l-1,1h-1"/>
<path class="sl" d="M582,993h-1h3l1,-1h1l-1,1h-2ZM562,992h1h-2v-1h1ZM559,993h-1ZM391,964h-1v-1h-1h2ZM554,997h1ZM567,995h-1h2ZM567,987h1ZM562,989h-1ZM585,985h-1v-1h1ZM601,969h-1h2ZM600,967h-1ZM599,966h-1ZM380,964h1v1h-1l-1,-1ZM391,965h-1ZM388,966h-1ZM398,963h-2v-1h-1h1v1h1ZM367,963h-1ZM357,966h-2l-1,-1h2ZM357,965v1l-1,-1ZM353,965h-1ZM362,978h1h-2ZM363,979h-1v-1v1ZM355,975h-1l-1,-1h-1h1l1,1ZM610,988h1Z"/>
<path class="sp" d="M611,988h-1"/>
<path class="sl" d="M611,987h1Z"/>
<path class="sp" d="M612,987h-1"/>
<path class="sl" d="M607,988h1Z"/>
<path class="sp" d="M608,988h-1"/>
<path class="sl" d="M611,987h1ZM606,989l1,-1v1ZM583,993h1ZM609,988h1Z"/>
<path class="sp" d="M609,988v0"/>
<path class="sl" d="M564,996h1ZM857,590v1Z"/>
<path class="sw" d="M123,173v-1ZM162,188l1,-1h-1v2ZM164,188h1h-1v1ZM160,189v-1ZM121,176v-1Z"/>
<path class="sh" d="M485,498h-1l1,-1ZM514,460v-2h1v1h-1Z"/>
<path class="sw" d="M389,101l-1,1v1h-1v1h-1v1l-2,2v1l-2,2h-1v1h-1v-1h1h-2l-1,1h1v1l-1,1h-2l-2,2h-1l-1,1h-3l-1,1h-2v1h-3l-2,2h-1v1h-1l-2,1h-7l-1,-1h5v-1h3l1,-1h1l2,-2h1l2,-1h2l2,-2h-1h1l2,-2h2l2,-2h2l1,-1h1v-1h1v-1h1v-1h1l3,-3h1v-1l2,-2h2v-1v1h1ZM373,113v-1l-1,1h-3v1h2l1,-1ZM245,70h-1v1ZM241,72v1h-2v1h-1l-1,1l2,-2h1l1,-1h1Z"/>
<path class="sr" d="M244,71l1,-1M237,75l2,-2h1l1,-1h1"/>
<path class="sw" d="M200,172l-1,1h-2v1h-1l-1,1h-2l-2,-2h1l1,-1h4l1,-1h2v1h-1ZM741,72v1h1v1h-2v-2ZM752,81v1h1h-1l-1,-1h-2v-1l1,1h1ZM249,140l-1,1h-1v-1l-1,-1h-1v-1h2l1,-1v-1h1v-1l1,-1h1l1,-1h2v-3h-1h1v-1v1h1l1,-1l-1,1h-1v1l1,1v1h-3v1h-2l-1,1v1l-1,1h1h-1v1h-1h1v1h1ZM396,246v1l-1,1h-3l1,-1l1,1v-1l-1,-1h-1v1h-1v-1h3v2l1,-1v-1h-1v-1v1h1v-1l1,-1v1h1l-1,-1v-1h1v1h1v2l-1,1v-1ZM334,122v1h-1v1l-2,2h-1v1h-1l-1,1v-1h1v-1l2,-2v-1h1v-1l1,-1h1ZM292,127l1,-1h2l1,-1v3h-2v1h-2v-1ZM499,164l-1,2h-1l-1,1v-1h-1v-2l-1,-1l1,-1h4v1ZM268,413h-1v-1h-1l-1,-1v-1h-1l-1,-1v-1l-1,-1v-1h1l2,2l1,2h1v2h1ZM287,217l-1,1v1h-1l-1,-1h-2l-1,-1v-1h1v-2h2l1,1h1v1ZM335,41h1ZM84,223v-1l3,-3v-1l-1,2v1h-1v1ZM79,231v1h-1h1v-2h1v-1l1,-1l-1,2h-1ZM105,195v1h-1l-1,1v1l-1,1l1,-2l3,-3v-1h1v-1l1,-1v1h-1v1l-1,1ZM140,172h-1v1h-1v-1l4,-4v1h-1v1l-1,1ZM261,99h3v-1h1v1h-1v1h-1v1h-1v-1h-2ZM230,153l-2,-2l3,-3l1,1v1h-1v1l-1,1ZM410,141v-2l2,-2h1l1,-1v1h1v1h1h-2l-1,1l-2,1v1ZM409,262l-2,1h-2l-1,-1v-2l1,-1h1l1,1v2h1ZM751,82h1v1h1h-1v-1ZM684,46h1h-2ZM209,262v-3h4v1h-1l-1,1h-1ZM582,41h-1l-1,-1h1ZM334,42h1v-1h1l-1,1ZM349,34h-1ZM349,35v-1h1h-1ZM349,34h1ZM234,179h-3l1,-1h3ZM378,277h-2v2h-1v-1l-2,-1v-2l1,-1v-2h1v2h-1v1h1h-1v1h2v1h-1h1v-1h2ZM377,270h1l-1,1l-1,-1ZM375,270h1v1h-2v-1ZM362,269v-1h1v-1h1v2h-1ZM207,252h-1v1h-2l1,-1h-2v-1h4ZM285,140l-1,1h-2l-1,1h-1v-1h2v-1l1,-1h1v1h-1h2v-1ZM766,827h-1v1h-1l1,-1v-1h2ZM108,190l1,-1h-1h1v-1h1v-1h1v-1v1h-1v1h-1v1ZM660,31v1l-1,-1h-1ZM427,26l1,-1h-2v-1h3v-1h1v-1h1v1h-1v1h7v-1h2v1h-8v1h-1v-1h-1v1h-1v1ZM544,32h-1ZM228,210h-2v-1h2ZM263,361h-2v1v-1h-1v-2h1v1h1v1ZM402,249v1h-2v-1h-1h2v-2h-1v-1h1l1,1v1ZM377,38h-1l1,-1h1v-1h1v1h-1ZM721,71l1,1h-1v-1h-1ZM377,269h-1v-1h1v1h1v1ZM411,146v-1h2l-1,1ZM175,253l-1,-1h-1h1v-1h1v1ZM191,256h-1v1l-1,1v1l-1,-1h1v-1h1l1,-2v-1h1v1ZM259,110h-1v1v-1l1,-1h1ZM241,108v-1h1v-1h1v1h-1v1ZM275,96v1h-1ZM261,61l1,-1v1h-2v1v-1ZM721,859l-2,2v-1h1l1,-2ZM524,31h-1ZM207,274h-1v1v-1v1h-2v-1h1v1v-1h1v-2h-1v1v-1h2v1h-1h1v1v-1l1,1ZM257,91v1h-1v-1v1h1ZM245,93h-1v-1h1l-1,1h1v-1ZM575,38h-1ZM580,40h1ZM396,260v-1h-1h2ZM356,270v1h-1v1h-1v-1h1v-1Z"/>
<path class="sw" d="M390,259l-1,-1l-1,1h-2l-1,-1v-1h1v1h3ZM120,176h1h-1v1h-1v2h-1v-1h1v-1h1ZM366,268h-1v-1h1ZM365,265l1,-1v1ZM389,236h-1v-1h1ZM364,267h1v-1h1v1h-1h1h-1ZM362,270h-1v1v-2h1h-1v1ZM360,271h-1v-1h1ZM230,224h-2v-1h1v1ZM71,247v-1h1v-1v2ZM685,51v1h-1ZM716,68h-1v-1v1ZM720,69h1ZM738,76l-1,-1h-1h2ZM734,72h-1ZM730,71h1ZM735,74h1l1,1l-1,-1h-2ZM294,135h-3v-1h-1v-1h1l1,1h2ZM186,257v1h-1v1v-1h-1l-1,-1h1v-1l1,1ZM10,399v-1ZM750,67l-1,-1h-2v-1h-1h1l1,1h1v1Z"/>
<path class="sr" d="M750,67v0"/>
<path class="sw" d="M729,60v-1h-1h1ZM249,68h-1l-1,1h-1h1l1,-1h1v-1h1h-1ZM467,662v2h-2v3l-1,-1v-1h-1l1,-1v-2h1v-1v1h1ZM264,231h-2l2,-2v1ZM262,230l-1,1h-1v-2h2ZM178,176v1v-1h-1l-1,1v-1h1v-1ZM163,258v1h-1v-1l1,-1ZM164,258v1h-1v-2h1ZM159,151h1l5,-5h1l1,-1l-3,3h-1l-3,3v1h-1v1h-1l-2,2v-1h1l1,-2ZM170,145h1l1,-1h-1v-1l-1,1l1,-1v-1l2,-1l-1,1v1l1,-1h-1h1v-1h1l-2,2h1l1,-1h1h-1v1h-1v1l-1,1h-1ZM168,145l1,-1ZM223,146h1l-1,1h-1v1h-3v1v-1h-3v-1h-6v-1h1h-1v1h-1v-1v1h-2v1h-1v1h-3v1l-1,1v1h-2l-1,1v1l-1,1v1h-1v-1h1v-2l1,-1v-1h1v-1h1l1,-1v-1h2l1,-1h1v-1h2v-1h6v1h2v1v-1h3v1h1v-1h1l-1,1h1v-1h1ZM249,140l-1,1h-1v-1l-1,-1h-1v-1h2l1,-1v-1h1v-1l1,-1h1l1,-1h2v-3h-1h1v-1v1h1l1,-1l-1,1h-1v1l1,1v1h-3v1h-2l-1,1v1l-1,1h1h-1v1h-1h1v1h1ZM209,96h1l2,-2h1v-1h1l1,-1h1l1,-1h1v-1h1h-1v1l1,-1v1v-1v1v-1h2l1,-1h-1v1l1,-1v1h-2l-1,1l1,-1l-1,1h-2v1h-2v1h-2v1h-1v1h-2v1h-1v1h-1h1l1,-1v1h-2v1h-1l-1,1h1v-1l-2,2h-1h1l-1,1h-1h1v-1l1,-1h1v-1h1l1,-1ZM222,499l-1,1h-1v-1l-1,-1v-1l1,1h1l-2,-2v1l-1,-1v-1h1l2,2v1ZM718,861l-1,1v-1l1,-1v-1h1l-1,1ZM716,862l-1,1v-1l1,-1h1h-1ZM750,67l-1,-1h-2v-1h-1h1l1,1h1v1Z"/>
<path class="sr" d="M750,67v0"/>
<path class="sw" d="M354,110h1v1h-2v2h-1v-1l1,-1v-1l-1,-1h2v-2l1,-1h1v-2l1,-1h1l1,-1v-2h1v-3h-4v1h-1v1h1h-1l1,1l-1,1v1h-1h1v-2h1h-1l-2,1v-1h1v-1h1l-1,-1h-1h2v-1h1v-1h1v1l1,-1h3v1v-1v1l-1,1v1h1h-1v2l-3,3v1l-1,1v1v-1l-1,1h-1v2ZM380,42h-3l-1,1h-3l1,-1h-1h5ZM380,41h-1h2ZM379,39h-1l1,-1h3l1,1l1,-1v1h-2v-1h-2ZM82,226v1v-1l1,-1ZM255,64h1v-1h1h-1v1h-1l-1,1ZM159,178l1,1v1h-1v-1ZM415,67v-1h-1v-1h-1h1h-1v-1h-1h2v-1h-1h1v-1v1h1v1h-1h1v1h-1h2v-1h1v-1v1h-1v1h1l1,-1h1v1h-1v1h1v-1h1v-1h-1l1,-1h1l-1,1v1h1h-1v1h-4l1,-1h2v-1h-1v1h-2v2h-1v1h1h-1v1h-1l-1,1h-1v-1h-4l-1,1h-1h1v-1h6l1,-1v-1h-1h1ZM536,112v2h-1v-1ZM642,57h1l-1,-1h1v1h-1l-1,-1h1ZM522,230h1l1,1h-1l-1,2h-1l1,-1v-1ZM739,61v1h1l-1,-1h-1ZM747,78h1h-3v-1h2ZM718,68h-1ZM737,70l-1,-1h1v1l1,1ZM741,69h-1h1l1,1h1h-2ZM721,66h-1ZM720,68v1h1h-1l-1,-1ZM713,66h-1ZM706,61v1l-1,-1ZM286,128h1h-2ZM218,239v1h-2v-1l1,1v-1h1v-1ZM214,239h2l-1,1ZM145,247h-1l1,-1v-1v1ZM219,251v-1h1ZM197,251v-1h1v1ZM162,233h1v1h1v1h-1ZM216,120h1v1h-1l-2,1v1h-2l2,-2h2ZM218,109l1,-1l-1,1h-1ZM420,722h-1l-1,-1v-2h2v1ZM465,714h-2v-1l1,-1h1l2,-1l1,-1v-1h1l1,1l-1,1v1h1v1h-1v1l-1,1h-1ZM522,787v-1l1,-1v-1l-1,-1h-1v-1h-1v-2h-1v-2l2,2l1,-1h1v1h1v2l1,2v3h-2ZM536,783v1h-1v-1l1,-3h-1v-1h-1l1,-1v-3h-1l-1,-1v-1l-1,-1h1l2,2h1l1,1v1l1,1v1l1,2v1ZM401,766v1h-1v-3h-1v3h-1v-3h-1v1h-1v-2h4v-1h2v1l-1,-1l-1,1v1l1,1ZM552,777v1l-1,1v-1h-1l-1,-1l2,-2l1,-2h1v4ZM536,766h-3l-1,1v-2h1l2,-1h1v1ZM538,764l-1,-1l-1,1l-1,-1h-2v-1h-1v1h-1l-1,-1v-1h1l-1,-2h1v-3h-1v-1h4l2,2h1v3h-1l1,2l1,1h1v1Z"/>
<path class="sb" d="M673,32l3,1l2,1l3,1l4,2l3,1l4,2l3,1l4,2l3,1l4,2l3,1l4,2l3,1l2,1l2,2l2,1l3,1l4,2l3,1l2,2l6,3l3,1l2,2l2,1h1h-1h1h-1v-1l1,1h1v1h2l1,1h1v1h2v1h2l1,1h-1v-1h-2l-2,-2h-1v-1h-1h1l1,1h1v1h1l1,1h1l1,1h1v1h2v1h1l1,1h1l2,2h1M12,392v1v-3M12,391v2M9,404v1M7,433v-1h-1v-11l1,-2v-5l1,-1v-5h1v-3l1,-2v-2M1,463v-1l1,-1v-5l1,-2v-5l1,-2v-2l1,-2v-4l1,-2v-2l1,-2v-2l1,-2v-2l1,-2v-5h1v-4l1,-4v-2l1,-3v-2M102,199l-2,2v1h-1v1h-1v2l-2,2v1l-1,1v1h-1v1h-1v1l-1,1v1h-1l-1,2l-1,1v1v-1v1h-1v1l-1,1v1h-1v1l-2,2v1v-1v2h-1l-1,1v1l-1,1v1l-1,2v1h-1v1l-2,4v1l-2,2l-1,2l-1,1v1l-1,1v1l-1,2l-1,1v1h-1v2M64,258l1,-1l1,-2l1,-1v-1l2,-2v1M74,238v1l-2,2v1l-1,1l-2,4l-1,1l-3,6v1l-1,2v3l-1,1v1l-1,1h1M49,312v1v-1h-1v-1h-1v-1h-1v-2l1,-1v-3l1,-1v-3h1v-2M33,341l4,-4h1v-1l1,-1h1v-1l1,-1v-1l1,-1v-1l1,-1v-1l1,-1v-1l1,-1v-2l1,-1v-1l1,-1v-1l1,-1v-2l1,-1v-3l1,-1v-2l2,-2v-2h1v-1l1,-1v-1h1v-1l1,-1h-1l1,-1v-1l1,-1v-1l1,-1v-1v1h1v-1M61,289v-1h1v-2h1v-1v1M20,359l1,-1v-3h1v-3h1v-1v1v-1v2h1l-1,1v1h1v-2l1,-1v-2l1,-1v-1l1,-2l1,-1v-1l1,-1h1v-1h2v-1h1v2l-1,1v3l-1,1v3l-1,1v4h-1v4l-1,1M101,198v1l-2,2v1h-1v1l-3,3v1l-2,2v1l-1,1l-1,2l-2,2v1h-1M115,182l1,-1l-2,2v1h-1v1h-1v1h-1v1l-1,1v1h-1l-1,1v1h-1v1l-1,1v1h-1v1h-1v1l-1,1v1h-1v1h-1v1l1,-2v-1h1h-1h1l-1,1h-1h1v-1v1h-1h1M116,182v-1l1,-1v-1l3,-3v-1h1v-1h1v-1h1v-1M125,171h-1v1v-1v1h-1l1,-1v-1h1v-1h1v-1v1h-1h1h-1h1M292,394l1,-1v-1h-1h1v-1l1,-1v-1l-2,-2v-1h-1v-1l1,-1h1v-1h-1v-1l-1,-1h-1v-1h-1v-1h-1l-1,-1v-3l-1,-2l-3,-3v-1l-1,-1v-2l-4,-4h1v-2h-1l-2,-1l-1,-1l-3,-2v-1h-1v-1h1v-2h4l2,-1v-1h1v-1l1,-1h-1v-1h-1v-1h-2v-1h1v-1h1v-1h-1l-2,-2h-1l-1,1h-1v1h-1l-1,-1h-2v-1l-1,-2l-1,-1h1v-2h1v-1h-1v-1v1h-1v-2h-1v-1l-2,-2v-1M274,397l1,1v1h3l1,1v1h2v-3l-1,-1h2v-1h2l1,-1v1h1v1h3l1,-1v-1h1v1l1,-1v-1l1,1l-2,2v5l1,1v2l-1,2v7h-1v1h-2l-2,2h-2l-1,1h-1l-1,1v1h-1l-1,-1h-1v1h-1v4l2,1v3h-1v-1h-2v-1h-3l-1,1h-1l-1,-1v3h-1v1h-3l-1,1M255,335l-2,2h-1v1l-1,1v1h-1v1l-1,1v-1l-2,2l-1,2v1M223,431l1,-1v-3l2,-2l1,-2l3,-3v-1h1v-4l-1,-1v-4l-1,-1v-3l1,-1v-5l-1,-1v-1l-1,-2l-2,-2v-1l-1,-1v-4h1l1,-1h1v-4l1,-1v-1l2,-1v-2l-1,1v-2h-1v-4l-1,-1v-1l-1,-1v-2l-1,-1v-1h-1l1,-1v-3h-1v-1l-1,-1h3v-4l1,-1v-1l1,-2l2,-2h6v-1l1,-1v-1h3l1,-1l-1,-1h4l1,1l1,-1h1v2h1l-1,1v1l-1,1v2h5v5l-1,2v1l-1,1h-1v1h1v2l-1,1l-2,4h1l1,1v-1l1,-1h1l2,-2h1v-1h1l1,-1h1l2,2h1v1l1,-1h2v-1l2,-2v-1h3l1,1h1l1,1v2l2,2v1l1,1h1v2l-1,2v5l1,1v1l2,2h1v2h1v3h-1v5l-1,1v1l-2,2h-1v1h-1v-1l-1,-1h-2l-1,1l-2,-1l-1,1h-2v-1h-3l-1,1h-2l-1,1v2l-2,2h-1v1h-2v3l1,1v4l2,2h-1v3l1,3"/>
<path class="sb" d="M304,337h-1v-1h-4v-1h-2v-1l-1,-1h-1v-5h1v-1h1l-2,-2v1h-2v-1h-3l-1,-1h-1v-1l-1,-1h-1l-1,1h-1l-1,1v1l-1,1h-1l-1,1h-1v-1h-2v2h-1l-2,-2l-1,1v1v-1l-1,-1l-1,1v1h-1l-1,1v-1l-2,-2h-1l-1,1v1h-1v1h-1v-1h-1l-1,1v-1h-1v1l-1,1v3h1v1l-1,1v4h-1l-1,-1l-2,1v-5h-1l-2,2h-4v-2h-1v-2h1l-1,-1h-4v-2l1,-1v-1h1v-2l1,-1v-1l-1,-1h-2v-7l1,-1h-5l-2,1l-1,1h-1l2,-2v-3h-1l1,-1v-1l1,-1h1v-2l1,-1h1v-1h1l1,-2h1l2,-2h1v-1l-1,-1h1l1,-1v-1l1,-2v-2l1,-1v-5h-1l-1,1v-7h-2v-1h-1v1h-1v1h-1M443,197l1,-1l2,-1l1,-1h1v-1h2l1,-1h1v-1h3v-1l1,-1h1v-1h1v-1l1,-1h1v-1v1v-1h2v2h6v1h1v-1h1v-1h-1v-1h-1v-1h1l1,-1l1,1h1l1,-1h2l1,-1v-1h3v-1h1v-3h2v1h1v1h1v1h1M457,213v-1h1l1,-1v-1l1,-1h7l2,-2M163,220v1h3M410,133l-5,5v1h-1v1l-1,1h-1v2h-2v2h1v1h2l1,-1h4v1h1l1,1v-1h1l1,-1v-1h3l2,1v1h2v1h1v1h1v1h1v2h1v1l-1,1h-4l-1,-1h-1v1h-2l-1,-1v1h-2l-1,1h-1v-1h-1l-1,1v1h-2v-1h-1l-1,1h-1v1h-1l-1,1v1l-1,1h-1l-1,1h-2l-2,1h-2l-1,-1l-2,2h-1l-1,1h-1v1h-2l-1,1v-1h-4l-2,-2h-3l-3,3v1h-1v3h1v1h1v1h-2v1h-1v1h-4l-3,3h-1v1h-1l-1,1h-2l-1,1h-12l-3,1h-5l-1,1l-5,2h-3v1h-4l1,-2l-1,1h-4l-1,-1h-1l-1,-1h-2l-3,-1l-1,-1v-1h-1v-1h-5l-2,-1h-1l-1,1h-5l-1,-1h-5l-2,-1h-4v-1l-1,-1v-7l1,-1h-3v-1h-1v-1l-1,-1h-1v-1l-1,-1h-6v-1h-4v-1h-1v-2h1v-1l1,-1h1l1,-1v-1l2,-2v-1h1v-4l1,-1v-1l-1,-1h1v-1h-1v1h-1v-2h-1v1h-1v-1l-1,-1l1,-1h-1v-1h-1l1,-1v-1l1,-1v-1M486,182h-1v-3h-1v-1h4v-1l1,-1v-6h1l-1,-3l-1,-1v-1l1,-1h2l2,-2h2v1h4l1,1l1,-1v-1l1,-1v-1h1v-1l2,-2v-1h1v-2l1,-1v-2l1,-1h-1v-1h1v-1h2v-1h1l-1,-1v-3h-5l-1,1h-3v1h-2l-2,2h-9v-2h-1v-1l1,-1h-1v-2h-1l1,-1h-3l-3,-3h-3v-1h-1l-1,-1h-6v-3l-1,-1v-2l-1,-1v-1l-1,-1v-2h-1v-2l-1,-1v-2h-1v-1h-1h1v-1h-1v-1h-1v-1h-2l-1,-1l-1,1l-1,-1h-2v-1h-2l-1,-1v1h-1l-1,-1l-2,1h-6l-2,1h-3l-2,1l-1,1h-1l-1,1l1,1l1,-1h1v1h1l-1,1v2l-1,1l-2,1h-1l-2,2v1h-1l-1,1v1h-1v1h-1v1h-1h1v2h-2l-1,1h-3l-1,1l-2,1h-4l-2,-2h-1l-1,-1h-1l-1,1h-3l-2,-2h-3v-1l-1,1h-2l-1,1h-1l-1,1h-1l-2,2h-7l-1,1h-2l-2,1h-2v-1h-1v1l-1,-1h-6l-1,-1v1l-2,-2h-1v-1l1,-1h-1l-2,-1h-1v-1h-1v-1h-5l-1,-1h-1v1h-5l-1,1h-4v-1h-3v-1h-1v-1h1v-3h1v-1l-1,-1h-3l-1,-1h-1l-1,-1h-2v-1h-3v-1l-2,2h-2v1h-1v1h-2v1h-1l-1,1v4h-1v1h-1v1h-3v1h-2v1h-1v-1l-1,-1l-1,1v-1h-6l-1,-1h-1v-3h-4v-1h-2v-1h-1v1h-3l-1,1h-3v1h-2v1h-4v1h-2v1h-1l-1,1h-1l-1,1v-1h-1v1h-2v-1v1h-1l-1,1h-3v1h-1"/>
<path class="sb" d="M157,141v-1l1,-1v-1h1l2,-1v-1l4,-4v-1v1v-1h1v-1l1,-1h1v-1h1l1,-1l1,-2l2,-1l5,-5h2v-1l1,-1h1v-1v1l-1,1h1l2,-2v-1v1l2,-2h1l1,-1h1l1,-1l2,-1l1,-1v1h-1v1v-1v1l1,-1h1v-1v1l-1,1h1h-1v1l-1,1v1h-1l-1,1v1h-1v1v-1h1v-1h1v-1h1l-1,1v1h-1v1l1,-1h1l2,-2v1l1,-1v1h1v-1h1v1l-2,2h1v1h-1h1l2,-2v1h2l1,-1h1l1,-1v-1h1v-2l1,-1v-1h1l1,-1h2l2,-2v-1h2v-1h3v-1h1h-1v-1h1v-1h1v-1h1l1,-1h1v-1l1,1h1l1,-1h4v-1h2v1v-1h1l1,-1h5l1,-1h3v-1h2l1,-1h2v1h2v1l-1,1l-2,1v1h-1l-1,1h-1v1h3v-1h1h-1v1l-1,1h1v-1h1v1h1v1h-1l-1,1h-1v1h-1h1l1,-1h1v1h1v-1h2v-1h3v-1h2l2,-1h2l-1,1h-2v5l-1,1v1l-1,2l-1,1l-1,2v1l-1,2v1l-2,2v1h2v-1h1v-1h3l-1,1h-1v1l1,-1v2h-1h5l1,-1h3v3l-1,1h1v1h1l-1,1v2h-1h1l2,1h1v-1h2v-1h1v1h-1v3h-1l-1,1h-1v1l-1,1h-1l-1,1h-4v1h-1v1h-1l-1,1v1l-1,1v1h-1v1l-1,1h-1v1h-3v1h-1v-1h-3v-1h-1v-1h-1l-1,1v1l-3,2l-1,1l-2,1l-1,1l-1,2h-1v1h-1l1,1l-2,2v-1h-1l-1,1v-2l-1,1h-2l-1,1l-1,-1l-1,1h-3v1h1v2h-1l-1,1v1h-1v1l-1,1v2h-1v1l-1,1v2l-1,-1v1h-1v1h-2v1h-1v1l-1,1v1h-1M160,262v1h1l1,-2l1,-1l1,1h1v2l1,1v1l1,1v1h1l1,1v2h3l-1,1v2h1v1l1,1h2l-1,1v2h3v3h1v-2h1v2h1v-1h1v-1v1h1v1h1v1h3l1,-1h1v1M191,286l1,-1h1v-1l3,-3h1v-1h1l1,-1h3v1h-1l1,1h3v1l1,-1h1l1,1v1M161,224l1,-1h2l2,-2v1l1,-1v1l-1,1v1l-1,1v3l1,1v2h-1l-2,2v2l-1,1v4l-1,1v1l-1,1v1h-1v1h-1v-2h-1v1h-1v4l-1,1v2h-1v1h2l-1,1v1h1v1h1v1l1,1v1h-1v1h2v1l1,1v1h-1l-1,1h-1v1l-2,1l-1,1v1l-1,1v1l-2,2v2l1,1v-1h1v2h1v2l1,1v1l1,1h1l1,1v1h1v1h1l1,1h6l1,1v2l1,1v1h1v1l1,-1h1v2h3v1h1l1,1l2,-1v1h5l1,-1v-1l1,-1v-3l1,-2v-1l1,-1v-1h1h-1v-1h3v-1h1l1,1v1l-1,1l-1,2v1l-1,1v2l1,1h2l1,1h3v-1h2v1h4l1,-1h1v1h3v-2l1,-1v-2h-2v-1l1,-1v-1l1,1h1l1,-1h3l1,-1v-1l2,-1l2,-2v-1h3l1,-1h1l2,-2h1v-1h2l1,-1v1h2v1h3v-1l1,-1h2l1,-1v2h1l-1,1h-1v1h1l1,-1v3l-1,1h-1v1h2v1h3v4h-1l-1,1h-1l-1,1v1l1,2l-1,1l-1,-1v-1h-4l-1,1h-1v1h-1v1l-3,1l-1,1h-1v1h-1v4h-1v1l-1,1v1h-1l-1,1h-1v1l-1,1v1h1v1l-3,3v1h-1v1l-1,2l-1,1v1h-1l-1,-1h-2l-1,-1v3l-1,2v1l-1,2v1h-1l-2,2v4h-1v1l-1,1l-1,-1l-1,1M160,209h1v1h2v1l-1,1h1v2l-1,2h-1v3l1,-1h1l-1,1v1h1h-1v3l-1,1v1h-2v1h-1l-2,1h-2v1h-1l-1,-1h-1v-1h-3l-1,1h-1v3h-1v1h1v1h-1l-1,1h-1v1h1l-1,1v1h-1v4h-1h1v2h-1l1,1h1v2h-1l-1,1l-2,1h-1v1l-2,4v1l-1,1h-1l-4,4v1l-2,2h-2v2l-1,1h-1l-2,4h-1l-1,1l-2,1v1l-4,4v1h-1l-1,1h-1l-2,1v-3h-1v1h-1l-1,2l-1,1l-2,1v1l-2,2v3h1v2l-2,2v4h1v-1v1l-1,2v4l-1,1v2h-1v1l-1,1h-1v-1h1h-2v1h-2l-1,-1h-2l-1,3h-3"/>
<path class="sb" d="M179,328v-5h1v-3l1,-1h-1v-4l1,-1v-1l1,-1v-2h-1v-1h-2v-2l2,-2h1l1,-2h3v-2h-1l-1,-1v-1l-1,-1v-2h1v-1l1,-1h1v-2h1v2h1v1h1v-2l1,1l-1,1l1,1v1h1l1,-1v-1h1v2l-1,1v2l-1,2v1h2v1h11l2,2v1h-1l-1,-1v2l-1,2h-1l-2,2h-1l-1,1h-1l-2,2v5h1v2l1,-1v-1l2,-2v-1l1,-1h2l-1,2v8l-1,1v3l-1,3v3h-1v-1h-1v-1v1h-1v5M173,173v-1h1v-1h1v-1h1l1,-1h2l1,1h1v1h1v1l1,-1v-1l2,-2h2l1,-1h1v2h1l1,1h1v-1h1l1,1h1l2,-1l1,1h3l1,1h2v2l1,1v2h-2v1h-1l-1,1h-2l-4,2h-1v1l-2,1h-1l-1,1h-2v-1h-1v1l-2,1l-3,3v-1l-1,1v-1v1h-2l1,-2l-1,1h-1l-1,-1v1h-1v1h-1l-1,1h-2v1h-1v1h-1v1l-1,1h-1M163,186l-1,1h-1v1h-1l1,-1h-1v-1h-1l-1,1h-1v1v-1l-3,3h3v1l1,-1h1v1h-1v1h1l1,-1h1v1h1h-1v1l1,-1v1h1l1,-1l1,1h1l1,-1h1v1h-1v2h-1v1h-1v3l1,-1h1l1,1l-1,1v1h-1v1l-1,1v1l-1,1v2h-1v1h-1M134,174l4,-4l1,-2l2,-1l1,-2l4,-4l1,-2l2,-1l1,-2l1,-1l2,-1l1,-2l2,-1v-1h2l1,-1h2l1,-1h1v1h-1v3h-1v3l-1,1v1h-1v2h-1v1l-1,1v1h3l1,-1v1h3l1,-1v1l-1,1v2l-2,2h1l1,-1l-2,2v1l-4,4h1v1l-1,1v1h-1l-1,1v2h3v1h-1v1h-1v2h1v-1h1v-1h1v-1l1,-1h2v-1h1v-1h1l1,-1h2v-1l2,-1h1l1,-1h1v-1h1v1l-1,1h-1l-1,1h-1l-1,1l-2,1l1,1v2h1l1,-1h1v-1h1v-1v1l-1,1v1h1h-1v1h1v1h1v1l-2,1h-1v1l-1,-1v1h-1l-1,1h-1l-1,1v-1h-3v-2h1l1,-1h1v-2h-1l-2,2h-1v-1l-1,1h-1l-1,2v1h-2v1h-1v1h-1v1h-1l-1,1h-1l-1,-1v1h-1l-2,2h1v1h-1v1h1l-1,2h-1v1l-1,1v2h-1v1h-1v1l-2,2h-1l-1,2h-1M132,170l1,-1h1l1,-1h1v-1h1v2l-2,2v1l-1,1v1h-1v1h1v-1h1v1h1v-1h1l1,-2l3,-3h1l2,-2v1l1,-1v-1h1v2l-1,1h1v1h-1v1h-1v2h-1v1h-1v1l-1,1h1l1,1v-1h1v2h-1v1l-2,2v2l-2,2v2l-1,1v10h1v3l-3,3v1M128,168v1h-1v1l-1,1v1h-1v1l2,-2v-1h1l1,-1M114,215v2h1v1l-1,1l1,-1v1l1,-1h1v-1h1v-1h1v-2h3v-1h1l1,-1h1v-1h1l1,-1l1,-2l3,-3h2v-1h1v-1h1v1l1,1h1v1h1v2h1v-1h1l1,-1h2v1h1v-2h1v-1h3l1,-1v-1h1v-1h1l3,-3l1,1l-2,2v1h1v1h-1l-1,1l-1,2l-1,1v1l-1,1v1l-1,1h1l1,-1h1l1,-1h1l2,-2l2,-1h2v1h-1v1l1,-1h3v1h-2v1l-1,1h-1l-1,1v-1h-5l-1,1h-1l-1,1h-1v1h-1l-1,1h-1l-1,1v2l-1,1v2h-1v2h-1v1h-1l-1,1h-1v1l-1,1h-1v2l-1,1v1h-3l-1,-1v1l-1,1v2l-1,1v1l-1,1h-2l-2,2v1h-1v1h-1v1l-2,4l-1,1h-1v1h-1v-1h-2l-2,1v1h-1l1,1h-1l-1,1h-1v-1h-1v1l-1,1h-1v1h-1l-1,2v1l-2,2v1l-1,1v1h-1l-2,1h-1l-1,1l-1,-1h-1v1h-1l-1,-1l-3,1h-1v-1l-1,-2l-1,-1"/>
<circle class="w3" cx="500" cy="475" r="41"/>
<circle class="w3" cx="500" cy="475" r="39"/>
<circle class="c3" cx="500" cy="475" r="40"/>
<path class="sg" d="M 250.6230 932.5826 A 249.7500 12.0322, 0, 0 0, 748.3770 932.5826"/>
<path class="sg" d="M 67.0881 749.5404 A 432.5797 20.8404, 0, 0 0, 931.9119 749.5404"/>
<path class="sg" d="M 0.0000 499.5000 A 499.5000 24.0645, 0, 0 0, 999.0000 499.5000"/>
<path class="sg" d="M 67.0881 249.4596 A 432.5797 20.8404, 0, 1 0, 931.9119 249.4596"/>
<path class="sg" d="M 250.6230 66.4174 A 249.7500 12.0322, 0, 1 0, 748.3770 66.4174"/>
<path class="sg" d="M 525.3354 998.3314 A 365.3070 499.5000, -2.96479959, 0 0, 473.6646 0.6686"/>
<path class="sg" d="M 602.0906 988.3511 A 486.2710 499.5000, -11.85212774, 0 0, 396.9094 10.6489"/>
<path class="sg" d="M 422.0821 992.9640 A 476.9390 499.5000, 8.91626519, 0 1, 576.9179 6.0360"/>
<path class="sg" d="M 477.1375 998.4992 A 339.8116 499.5000, 2.56597697, 0 1, 521.8625 0.5008"/>
<path class="sg" d="M 493.9759 998.9695 A 111.6320 499.5000, 0.63366029, 0 1, 505.0241 0.0305"/>
<path class="sg" d="M 506.8890 998.9453 A 146.4593 499.5000, -0.84759023, 0 0, 492.1110 0.0547"/>
<text x="0" y="0" class="fs" transform="translate(74,279) rotate(113)">60E</text>
<text x="0" y="0" class="ft" transform="translate(74,279) rotate(113)">60E</text>
<text x="0" y="0" class="fs" transform="translate(196,289) rotate(106)">90E</text>
<text x="0" y="0" class="ft" transform="translate(196,289) rotate(106)">90E</text>
<text x="0" y="0" class="fs" transform="translate(400,294) rotate(95)">120E</text>
<text x="0" y="0" class="ft" transform="translate(400,294) rotate(95)">120E</text>
<text x="0" y="0" class="fs" transform="translate(630,293) rotate(83)">150E</text>
<text x="0" y="0" class="ft" transform="translate(630,293) rotate(83)">150E</text>
<text x="0" y="0" class="fs" transform="translate(825,288) rotate(70)">180E</text>
<text x="0" y="0" class="ft" transform="translate(825,288) rotate(70)">180E</text>
<text x="0" y="0" class="fs" transform="translate(818,759) rotate(-2)">30S</text>
<text x="0" y="0" class="ft" transform="translate(818,759) rotate(-2)">30S</text>
<text x="0" y="0" class="fs" transform="translate(865,512) rotate(-4)">0N</text>
<text x="0" y="0" class="ft" transform="translate(865,512) rotate(-4)">0N</text>
<text x="0" y="0" class="fs" transform="translate(815,260) rotate(-2)">30N</text>
<text x="0" y="0" class="ft" transform="translate(815,260) rotate(-2)">30N</text>
<text x="0" y="0" class="fs" transform="translate(680,73) rotate(0)">60N</text>
<text x="0" y="0" class="ft" transform="translate(680,73) rotate(0)">60N</text>
<path class="tb" d="M127,998h-2l-1,-1h-2l-1,-1h-2l-1,-1h-2v-1h-3v-1h-2l-1,-1h-2v-1h-2l-1,-1h-2v-1h-2v-1h-2l-1,-1h-2v-1h-2v-1h-2v-1h-2v-1h-2v-1h-2v-1h-2v-1h-2v-1h-2v-1h-1l-1,-1h-1v-1h-2v-1h-2v-1h-1v-1h-2v-1h-1l-1,-1h-1v-1h-2v-1h-1v-1h-2v-1h-1v-1h-1l-1,-1h-1v-1h-1v-1h-1l-1,-1h-1v-1h-1v-1h-1v-1h-2v-1h-1v-1h-1v-1h-1v-1h-1l-2,-2h-1v-1h-1v-1h-1v-1h-1v-1h-1v-1h-1v-1h-1v-1h-1v-1h-1v-1h-1v-1h-1v-1h-1v-1h-1v-2h-1v-1h-1v-1h-1v-1h-1v-1l-1,-1v-1h-1v-1h-1v-1l-1,-1v-1h-1v-1l-1,-1v-1h-1v-1l-1,-1v-1h-1v-2h-1v-2h-1v-1l-1,-1v-1l-1,-1v-1l-1,-1v-2h-1v-2h-1v-3h-1v-2h-1v-4h-1v-3h-1v-5h-1v-6l-1,-1v-17h1v-7h1v-4l1,-1v-3h1v-3h1v-3h1v-2l1,-1v-2h1v-2h1v-2h1v-2h1v-2h1v-2h1v-2h1v-1h1v-2h1v-1h1v-2h1v-1h1v-1l1,-1v-1h1v-1h1v-1l1,-1v-1h1v-1h1v-1h1v-1h1v-1h1v-1h1v-2h1v-1h1v-1h1v-1h1v-1h1l3,-3h1v-1h1v-1h1v-1h1v-1h1v-1h1v-1h1l1,-1h1v-1h1v-1h1v-1h1l1,-1h1v-1h1v-1h2v-1h1v-1h1v-1h2v-1h1v-1h2v-1h1v-1h2v-1h1l1,-1h1v-1h2v-1h1l1,-1h1v-1h2v-1h2v-1h2v-1h1l1,-1h1l1,-1h1l1,-1h1l1,-1h1l1,-1h2v-1h2v-1h2v-1h2l1,-1h2v-1h2v-1h2l1,-1h2v-1h3v-1h2l1,-1h2v-1h3v-1h3v-1h159v1h3v1h3v1h2l1,1h2v1h3v1h2l1,1h2v1h2v1h2l1,1h2v1h2v1h2v1h2l1,1h1l1,1h1l1,1h1l1,1h1l1,1h1v1h2v1h2v1h2v1h1l1,1h1v1h2v1h1l1,1h1v1h2v1h1v1h2v1h1v1h2v1h1v1h1v1h2v1h1v1h1l1,1h1v1h1v1h1v1h1l1,1h1v1h1v1h1v1h1v1h1v1h1v1h1l3,3h1v1h1v1h1v1h1v1h1v2h1v1h1v1h1v1h1v1h1v1h1v1l1,1v1h1v1h1v1l1,1v1h1v1h1v2h1v1h1v2h1v1h1v2h1v2h1v2h1v2h1v2h1v2h1v2l1,1v2h1v3h1v3h1v3l1,1v4h1v7h1v17l-1,1v6h-1v5h-1v3h-1v4h-1v2h-1v3h-1v2h-1v2l-1,1v1l-1,1v1l-1,1v1h-1v2h-1v2h-1v1l-1,1v1h-1v1l-1,1v1h-1v1l-1,1v1h-1v1h-1v1l-1,1v1h-1v1h-1v1h-1v1h-1v2h-1v1h-1v1h-1v1h-1v1h-1v1h-1v1h-1v1h-1v1h-1v1h-1v1h-1v1h-1v1h-1l-2,2h-1v1h-1v1h-1v1h-1v1h-2v1h-1v1h-1v1h-1l-1,1h-1v1h-1v1h-1l-1,1h-1v1h-1v1h-2v1h-1v1h-2v1h-1l-1,1h-1v1h-2v1h-1v1h-2v1h-2v1h-1l-1,1h-1v1h-2v1h-2v1h-2v1h-2v1h-2v1h-2v1h-2v1h-2v1h-2l-1,1h-2v1h-2v1h-2l-1,1h-2v1h-2l-1,1h-2v1h-3v1h-2l-1,1h-2l-1,1h-2l-1,1h-2Z"/>
<path class="tl" d="M169,986h1v1h-3l-1,-1h2v-1ZM114,989h-3l-1,-1h2l1,1ZM176,983h1l1,1v1h1l-1,1h-2l-1,1h-1l-1,-1l1,-1v-2h1v-1ZM124,980h2v1h-1ZM122,980l1,1h-1l-1,-1ZM136,977h1h-2ZM156,974v1l1,1h-5v-1l1,-1v-1l-1,-1l1,-1v1h1l1,1ZM158,964v1h-2v2h1l-2,2v1h1l1,1h1l4,4v1l1,1v1h-1v2h-1l-1,1h-1v1h-2l1,1h1v1h-2l1,1h1v1h3l1,1h3l1,1h3l1,1h1l1,1v-1h1v-1h2l2,-1l1,1h1v-1h4v-1h3l1,-1h-1v-1h-4l-1,-1l1,-1h1l2,-2h4l1,-1h1l2,-2h-1v-1h1v-1h2v-1l1,-1h1v1h1v-1h8v-1h3v-1h1l1,1h2v-1h1v1l1,-1h4v1h6v-1h3v-1h2v1h3l1,-1h3v-1h2l1,-1h2l1,-1h4v1h1v1h1l1,1h1l1,-1l1,1h2v1l-2,2h-1v1h1h-1v1h-1v1h2l2,-2h1v-1h3l1,-1h1v-1h2l1,-1h5v-1h1v1h5v1h1l1,-1l1,1l1,-1h1l2,-1v1l1,1h3l1,-1h2v1h1v1h4l1,-1v1h9l1,-1l-1,1v1h-1h3l1,1h2l-1,1v1h1v1h2v1h1v2h2l1,1v1h-1l-1,1h-2l-1,1h-3l-1,1h-2l-1,1h-2l-2,2v1h-5l-1,1h-2v1h-1v3h2l-11,4h-155l-11,-4h-1h2l1,-1l1,1h14l-1,-1h-7v-1h-2v-1h-3l-1,-1h4v-1h-2l-1,-1h-7l-1,-1l-2,-1l1,1l1,-1l2,1v-1h1v-1l-1,-1h-1h2v-1h2v-1h4l1,-1h5l1,-1l1,1v-1h1l1,1h1v-1l1,1h6v-1h-2l-1,-1h-1l-1,-1h4l1,1h1l1,-1h3l-1,-1h1l1,1l1,-1l1,1h3v-1l1,1h4v-1h2l1,-1v-1h-1v-1h-1v-1h-1v-1h-1v-2l-1,-1v-1h1v-2h1v-1h1v-1h1l1,-1l1,1ZM144,951l2,1h1v1h-1v-1v1h-4l-2,-2l-2,-1l2,1h2v-2h1v1ZM151,947h1v1h-2v1l-1,-1l1,-1ZM269,946h-1v-2h1l1,1ZM345,939v1h1l1,-1v1l-3,3v-1l-1,1h-1l1,-1v-1l1,-1v-1ZM368,943v1l1,-1v1h-1l-3,3h-1l-1,1h-1l-2,2h-2v1h-1v-1h-1v-1l4,-2h1l1,-1h2l2,-2h1l2,-2ZM376,936l-1,2l1,-1l-1,1l1,1h1l-2,2h-1l-2,2l-2,1h-1l2,-1v-2l1,-1l2,-1v-1l1,-1v-3l1,-1v1l1,1ZM382,913l-1,1v-2l-1,-1v-1h1v1l1,1ZM397,906v1l-1,1h-1v-1l1,-1v1ZM398,906h-1v-1h1l1,-1v1ZM10,905v-1ZM386,904v-1ZM386,901v2h-1v-1ZM259,895v2l1,1h-1v1v-1v2h-1v3l-3,6v2h-1l-1,1l-1,-1h-1v-5h1v-2l1,-1h-1v-3h1v-1h1l2,-2h1v-1l1,-1v-1l1,-1v1ZM361,898v1h1v1h1l-1,1v2h1l-1,2v1l2,2v4h1l-1,2l1,1v3l-1,1v2l-3,3v1l-1,1l-1,2h-1l-1,2h-1l-4,4v1h-2l-1,1h-1l-1,1v-1h-1l1,-1h-1l-1,1h-1v-1h-1v-3h1l-1,-1v-1l1,-1l-1,1h-1l3,-3l-2,1h-1l-1,2v-4l-2,-2h-2l-1,1h-4l-2,2h-4l-1,1v-1l-1,1h-2v-1h-1l1,-1v-1h1v-3l1,-1v-7l1,1v-3l1,-1v-1l1,-1l-1,1l2,-2h1l1,-1h2l1,-1h2v-1h1l1,-1v-2l1,-1v2l1,-1v-1h1v-1l2,-2h2v1h2v-2h1l1,-1v-1h2v-1h-1h1l1,1h3l1,1h-1v1h-1v1l-1,1v1l2,2v1h1l1,1h1v-1l1,-1v-1l1,-1v-3l1,-1v-2h1v-1v3l1,1Z"/>
<path class="tl" d="M383,894h-1v-1v1ZM337,892l-2,-1h2ZM381,893h-1v-1h1ZM382,892v-1l-1,-1h1ZM341,892h-1l3,-3h2l-1,1h-1l-1,1ZM335,889h1v1h-3l1,-1ZM340,889v1h-3v-1h2ZM381,890v1l-2,-2h1v1ZM378,889v-1h-1v-1l1,1ZM325,887h2v-1l2,1v1h2l1,1l-1,1l-1,-1h-4l-1,-1h-1l-2,-1h-1l1,-2h1l1,1ZM353,886v1v-2ZM377,888h-1v-2l-1,-1h1v2h1ZM373,885l-1,1h-1l-1,1l-1,-1h-1l1,-1l1,1v-1h2v-2h1v1ZM345,882h-1v-1h1ZM349,881v2l-1,-1h-2v-1h2ZM374,884l-1,-1v-1l-1,-1h-1h2v2h1ZM353,878v3l2,1v-2l2,-1h1l1,1h1l1,1l4,2v1h1v1l2,1v1h-1v1l1,1v2h1v1h1h-1l1,1l-1,1v-1h-2l-1,-1v-3h-3l-1,1v1h-2l-2,-2v1h-2l1,-2h1l-1,-2v-1l-2,-1h-1l-1,-2l-1,1l-1,-1h1l-1,-1l1,-1h-1v-1h-1l-1,-1h2v-1ZM343,875l-1,1h-4v1l1,2v-1h2l-1,1h-1l1,2v1l1,2v1h-1v-2l-1,1v-1l-1,-1l1,-1h-1v4h-1v-3h-1v-1l1,-1v-4h1v-1h4l1,-1ZM347,875v1h-1v1l1,1h-1v-4h1ZM321,885h-1l-2,-2v-1l-2,-2l-1,-2v-2l-1,-1v-1l-4,-4v-1h2l3,3l1,2h1l2,2h1l-1,2h1v1l1,1h1v3ZM335,874l1,1h-1v3l-1,1v1l-1,3v-1l-1,1l-1,-1h-1v-1l-1,1l-1,-1h-1l-2,-4v-2l1,-1h2v-2h2v-1l1,-1v-1h1l1,-1v-2h1v1l2,2v1h-1l-1,2l1,1ZM344,864v3l-1,-1v2l-2,-2h1l-1,-1v1l-1,-1l-1,1v-1l1,-1h2v-1h1v-1l1,1ZM294,868h-1v-1l-1,-2l1,-2l1,1v1l1,1v1ZM137,863h-1l1,-1h1ZM341,861v1l-1,1l-1,-1l1,-1v-1v1l1,-1ZM335,863l-1,1v-1l1,-1v-1l1,-1v1l-1,1ZM338,859h2v1l-1,1v-1h-1ZM342,858l1,2h-1v1v-1h-1v-1h1h-1v-1ZM338,857l-1,1l-1,-1h1ZM336,849h1v6h1l2,1v2l-1,-1v-1v1l-1,-1h-2v-1h1h-1l-1,-1v-5ZM133,851v1h-1v-1ZM121,852h-1v-1h2v1ZM126,849h3v1h1v1h-2l-1,1v-1h-1v-2h-1ZM324,849l-1,1h-1v-2l1,-1h1v1ZM37,846v-2h1v2ZM38,844h-1v-1h1ZM119,845h2l1,1v1h1v1h2l-1,1h-3v-1h-1v-2h-2l-1,-1h-1h1h-2l-1,1h-1l2,-2h3ZM122,843h-1v-1l1,-1v1ZM334,843v1l-2,-2v-2l1,-1l1,1ZM122,839l-1,1v-1ZM123,839v1v-1h-1ZM340,825h1v1h-1v1h-1v-2ZM240,828l-2,2v-1h-1h2ZM229,828v1h-1ZM220,825v2h-1l-1,-1h-1v-1h2ZM214,821v3h-1v-3ZM344,820v1l1,1v1l-1,1h-1l-1,2l-1,-1v-1l-2,1l-1,1h-1l2,1v3l-1,-1v-1h-1l-1,-1l1,-1v-3h3v-3l1,1v-2h1l-2,-4v-1l3,3v1ZM214,820v1l-1,-1v-1l1,-1ZM340,810l1,-1l1,2h-1v2l-2,-1l1,2h-1l-1,-2l-1,-1h1l-1,-2l-1,-1l3,1ZM144,812l1,1h1h-2ZM147,809h-1l-1,-1h1ZM92,806h-1l-1,-1v-2h-1v-1h1l1,1v1l1,1ZM153,807l-1,1h1v1h2l-1,1h1v1l-1,2l-1,-1l1,-1l-2,1v-1h-3l1,-1h-1l4,-4h1Z"/>
<path class="tl" d="M90,797h1l-2,2v1v-3ZM332,800l3,3l-2,-1l1,2l2,2v1l-2,-2l-1,-2l-6,-6v-1h-1h1l3,3ZM198,806l-1,1h-2l1,-2v-1l2,-2h1v3ZM216,801l-1,2l-1,-1v-1h1ZM79,791h-1v-1h2ZM202,797l-1,2h2v1l-1,1h1l2,4h1v1l-1,1h1l-1,1h-3l-1,1h-2l2,-2h-1v-1h1l-1,-1v-1h2l-1,-1h-1v-2l-1,-1l1,-2v-1l1,1ZM75,786h-1v-1h1ZM141,790l-1,1v-1ZM139,790h-2l1,-1h1ZM78,780v1h1h-2v-1ZM139,786h1v1h1l-1,1h1l-1,1l-1,-1h-1l-2,1l1,-1h-1h1l1,-1l1,-2ZM193,787v1l1,1l-1,1h-3l-1,1l-1,-1h-2l1,-1h-1h1v-1h-2l1,-1h1l1,1l2,-1h2ZM147,784h-1l1,-1h2l-1,1ZM81,776v1l1,-1h2l-1,2h-3l-1,1h-1l-1,-1h1v-1h-1h1h-2l-1,1l8,-5v1l-1,2ZM135,780l-1,1v-1h-1l1,-1h1ZM322,771h-1ZM88,771h-1h2ZM139,780l-1,2l2,-1v1h-1v1l1,-1l2,-1l1,-1h2v2h-1v1l-1,1l-2,1h-1v-1l-1,1l-2,1v1h-3l-2,2h-1l-1,1l-2,1l-1,1l-1,2h1l-1,1v1h1l3,3l2,1h1l-2,2v2l1,1h1l2,-4h-1l4,-2v-1l1,-1v-1l-1,-1l2,-1l2,-4l1,1h1l1,-1v1l1,1h1v2l-1,1l1,1h2l1,-2h1v3l1,1l-1,1l1,1v1h1l1,1v1l1,1l-2,2h-2l-2,2h-1l-2,-1h-2l-2,1l-1,1l-2,1l-1,1l2,-1l3,-1h2l-1,1l-1,2v1l1,1l2,-1l1,-1v1h1l-4,2h-1l-2,1v-1l2,-1h-3v1h-1l-1,1h-1l-2,2l1,1v-1v1h-3l-1,1l2,-1v1h-2l-2,2v1l-1,1l-1,-1l1,-1l-1,1v4l-1,1h-1l-1,1h-1l-3,3h-1v8l-1,1h-1v-3l-1,-1l1,-1l-1,-2l-1,1l-1,-1h-4v1h-1l-1,-1l-1,1l-1,-1l-2,2h-2v1h-1v3l-1,1v1l-1,2v4l1,1v1h1v1l1,-1h3v-1l1,-1v-1l1,-1h3v1l-1,1v2l-1,1v-1v2l-1,1v1h5v1h1v1l-1,1v3l-1,1h1v2h1v1h2l1,-1h1v1h1l1,1l1,-1v-2l1,-1h2l2,-2v2h-1h1v1l-1,1v1h1v-3h1v-1h1v1h1v1h3l1,1l1,-1h1l1,1h1v1l1,1h1v1h1v1l1,1l2,1v-1h1l1,1h1l1,1v1h1v1l1,2v1l-1,1l1,1h2v1v-1l4,2v1h1l3,1h1l2,1l2,2h2v5l-1,1l-1,2l-2,2v9l-1,2v2h-1v1h-2l-1,1h-1l-3,3v5l-1,2l-2,2v2l-2,2v-1l-1,1l-1,-1h-1v-1v1l1,1v1l1,1v2l-2,1h-3l1,1v2l-1,1l-1,-1h-1l1,2h2l-2,2l1,1v1h-1l-1,1v1l2,1h1v1l-1,1v2h-1v1l2,2h-1l-1,1v1h-1l-2,-1l-3,-3l-1,-3v-1l1,-1h-2l1,-2l-1,-2h1v-2l-1,-1v2l-1,-2v-4l-1,-1l-1,-2h1v-6l-1,-2v-8l-1,-2v-6l-1,-2l-1,-1l-2,-1l-3,-2l-1,-1v-1l-1,-2l-1,-3l-2,-3l-2,-2v-1l-1,-2l2,-2v-1h-1v-3l1,-1v-1h1v-2h1l1,-1v-5l-1,-1v-2h-1v1h-1v1h-1l-1,-1h-2v-2h-1v-1v1h-1v-3l-2,-2h1h-2v-1h-2l-1,-1l-1,-2h-1l-1,-1v1h-2l-1,-1h-2l-2,-2h-1l-1,-1v-1h-1v-3h1l-1,-1v-3l-1,-1v-1l-1,-1v-3h-1v-5l-1,-1l-1,1v4h1l-1,1h1v5h1v2h-1v-1l-1,-1v-3l-1,-1v1v-1h-1v-1h1v-9h-1v-1h-1v-9l2,-2v-1l1,-2l2,-2l1,-2l1,-1v-1h1v1l2,-2h-1v-2l-1,-1v-1l1,-1l-1,-1l1,-1v-1l1,-1l-1,-1l1,-1v-1l1,-1l-1,-1h-1v-2h-1v-1h-1l-1,-1h-1l-1,1h-4l1,-1l2,-1h-1l-1,1l-2,1h-1l-1,1l-2,1h-2l-2,1h-1l-1,1h-3l-1,1h-2l1,-1h2l2,-1h2l2,-1h1l2,-1l1,-1h-3l1,-1l-1,1h-1l2,-2h-1v-1l2,-2l2,-1h3l1,-1h1l1,-1h-3v-2h4l1,1l1,-1v-3h4l1,-1h2l2,-1l1,1l1,-1h1l-1,1h1l1,1h2l1,1h2v1l1,1l1,-1h6l1,-1v2l2,-1l-1,1h2l1,1h2v1l-2,1h4v1l2,-2h2v1h1l1,1h2v-1h1l1,1l-1,1l1,-1h1l1,-1v-2l1,-1l2,-1l1,1l-2,2Z"/>
<path class="tl" d="M128,774l-1,1h4l-1,1h1l2,-2v1l-1,2v1l1,1h-2v1h-8v-1h-1v-1h4l-1,-1h-3l2,-1h-1l1,-1h1ZM135,774l-2,1v-1h1ZM152,776v1l-1,-1l-1,1v-2h2ZM146,776v1l1,-1l2,-1v2h3l1,1l-1,1l2,-1v1l1,1v2h-1l2,2v1h1v1l-2,1h-1l-1,-2l-1,1v1l1,1v2l-1,1l-2,-2v1l1,1h-2l-2,-2v-1l-1,-1v1h-3v-1l1,-1h3l1,-1l2,-1v-1l-1,-1h-1l1,-1l-1,-1h-5l-1,-1h-1l1,-1h-1l1,-1l2,-1l1,-1h2ZM138,774h2l-1,1h-1l1,1l-2,1h-2v-2l1,1v-1ZM298,772h-2v-1ZM141,776l-2,1v-1l2,-2h2l1,1l-2,1ZM122,776h-2l-1,-1h1l2,-1l2,-2h2v1h2v1h-1l-3,1h-2ZM299,769v1h-3v-1h1ZM143,773v1l-1,-1h-1l1,-1h1l1,1ZM295,769l1,1h-2l-1,1l-2,-1l-1,-1h2ZM143,771h-1v1l-1,1h-2l1,-1h-1l1,-1h2ZM136,771h1v1h-4l-2,1h-1l1,-1h-1l-1,-1l2,-1h1l2,1l1,1v-2h2ZM246,780h-3l-2,-1v-1l1,-2h-1l1,-1l-1,-1h1l4,-2h2l-1,1l-2,1l-1,1v2l-1,1l1,1ZM145,770l1,1h1l-1,1h1l1,1h4v1h-7l-1,-1l1,-1v-1h-2l1,-1ZM134,769l-2,1h-4l2,-1h3ZM271,770l1,1v-1h2l2,1h1v1l-1,1h1l2,1v-1l1,1l1,-1h2l1,1h3l-2,-1h5l1,1v1h2l2,1l-1,-1h1l1,-1l2,1v-1h1l-2,-1h8l3,1l1,-1h2l2,2h2v-1h3l3,1v-1h-2v-1h7l8,5h-1l1,1l2,1h2v1h-1v1h-1l1,1v2l-2,-1v2l-1,-1v1h-1l2,2v1h1l3,2h-1l1,1h1v1l1,2h-1l1,2l1,1l-4,-2l-4,-3l-1,-2l-1,-1v-3l-1,-2v-1l-2,-2l-1,1l2,2l-3,-1l-1,1l1,2l1,1h-1l-1,1l-1,-1h-1v1h-4v7h1l2,1h1l-1,-1h1l3,1l1,2l1,1l1,2l2,2v9h-1l-1,-1v2h-1v1l1,1v1h-1v1l1,1h1l2,2v1l1,1v1l-1,1h-1l-1,-2l-1,-1h1l-2,-1v-1v1v-1h-1v-1l-1,-1h-2v1h-1l-1,-1l1,-1l-1,-1l-1,1v2h-1v1l2,2h1v-1h2l1,1l-2,1v2l2,2l1,2l2,1v2h1v6l-2,4l-1,1h-1v1l-1,-1v1l-2,1h-1v2l-1,-1v-1h-2l-1,2v2l1,1l1,2l2,2l1,3v4l-2,1v1l-2,1v-2l-1,-1h-1v-1l-2,-2h-1v-1h-1v6h1v3l1,1h1v1h1v1l1,1v3h1v2h-1l-2,-2v-1l-1,-1v-1l-1,-1v-2l-1,-1v-1h-1v-6l-1,-1v-1l-1,-2v-2l-1,-1l-2,2h-1v-3l-1,-2v-1h-1l-2,-2v-1l-1,-1h-1v2l-1,-1v1h-2v2l-2,1l-1,2v1l-2,2h-1v8l-1,1l1,1h-1l-1,1l-1,-1l-1,-2v-1l-1,-1v-1l-1,-2v-1l-3,-6v-3l-2,1h-1l-1,-2v-1l-2,-1l-1,-1v-1l-1,-1l-2,1h-5l-1,-1h-2v-2h-1l-1,1h-2l-3,-3l-1,-2l-1,1v-1l-1,1v2l1,1h1l1,1v2l1,1l-1,-1l1,-1v2h1v1l1,-1h2v-1l1,-1v-1v2l2,2h1l2,2l-1,1v1h-1v3h-1v1h-1v1h-2v1h-1l-2,2h-1l-2,2v-1l-1,1h-2v1h-2v-2l-1,-1v-3h-1v-1l-1,-1v-1l-1,-1h-1v-1l-1,-1v-3h-2v-2l-1,-1v-1l-2,-2v-1v1l-1,1l-1,-1l-1,-2l1,2l1,1l1,2v1l2,2h-1l2,2v1l1,1h-1l1,2v1l1,1l1,2v1l1,1l2,1v1h1v1h1v1l-1,1h1l1,1h3l1,-1h3v-1h1v2l-1,1v3l-1,1l-3,6l-1,1l-2,1l-1,1l-1,2v1h-1v1h-1v2l-1,1l-1,2l1,1v4l1,1v7l-1,1h-1l-3,3h-1v1l-1,1v2h1l-1,1h1v1l-1,1h1l-1,1h-1l-2,2v3l-3,3v1l-2,1v1l-1,1h-2v1l-1,-1v1l-1,-1l-1,1h-2l-1,1l-1,-1h-1v-5l-1,-1v-2l-1,-1v-1l-1,-1v-5l-1,-1v-1l-1,-2v-1l-1,-1v-3l1,-1v-3h1v-1l1,-1v-1h-1v-5l-1,-1v-2l-3,-3l-1,-2l1,-1v-5l-1,-1v-1l-1,1h-2l-1,-1v-1l-1,-1h-2l-1,1h-2l-1,1h-6l-1,1l-4,-4h-1l-1,-1v-1l-1,-1v-1h-1v-1l-1,-1v-1h-1v-3h-1l1,-1v-1h1l-1,-1l1,-1v-4l-1,-1v-1h1v-2l1,-1v-1h1v-2h1l1,-2h1l2,-2v-3l3,-3l1,-2v-1h1l1,1h2l1,-1h2l1,-1h4l1,-1h1v1h1l1,-1h1v1l1,-1v1h-1v1h1v2h-1v1h1v1h3l2,2h1l2,2l1,-1v-2l1,-1h2l1,1h1l1,1h2l1,1h1v-1h2l1,1v-1h1l1,1v-2l1,-1v-5h-2l-1,1l-1,-1h-2v1l-1,-1h-2v-1l-1,-1v-2l1,-1h1v-1h2l1,-1h1l2,-1l2,1l1,1h2l1,-1v-2h-1l-2,-2h-1l-1,-1l1,-1l-1,-1h2l-1,-1v1h-2l-1,1v1h1l-1,1h-1v-1h-1l1,-1h-2v-1h-1v1l-1,1v1h-1v4l1,1h-2v1h-1v-1h-2l1,1h-2v1l1,1h-1h1l1,1v1l-1,-1v1h-1l1,1h-2v-2l-1,-1v-1h-1v-3h-1v-1h-1l-1,-1h-1l-1,-1v-1l-1,-1v1v-1h-2v1l2,2v1l1,1h1l1,1h1l1,1v1l-1,-1h-1v1h1v1h-1v1h-1v-1h1l-1,-1v-1h-1l-1,-1h-1l-2,-2l-1,-2h-2v1h-4l-1,1v2h-2v1l-1,2h1l-1,1v1h-1l-1,1h-2l-1,1l-2,-2v1h-2l1,-1v-1h-1v-2l1,-1v-3l-1,-1l2,-1l1,1h5v-4l-1,-1v-1h-2v-1h3v-2l1,1l2,-1v-1h1l1,-1l1,-2l1,-1h2v-5h2l-1,1h1v1l-1,1v1h1v1l1,-1h2v1h1l2,-2l1,1h1v-1h1v-3l1,-1l1,1v-1l-1,-1v-1h4l1,-1h-4l-1,1l-2,-2v-4l2,-1v-1l-1,-1l-2,2l-1,2l-1,1v3h1v2h-1v2l-1,2h-1v1h-1v-2l-1,-1l-1,-2l-1,-1l-1,2h-1l-2,-1v-5l2,-1l3,-3l2,-3l3,-3h2l1,-2h3l2,1l-1,1h2l1,1h3l3,1l1,1v1l-1,1h-1l-3,-1h-1l2,1v2l1,1h1v-1h-1l1,-1l2,1v-1l1,-2h1l1,1v-1l-1,-1v-1l-1,-1l2,1h1l-1,1l1,1h1v-1l1,-1l2,-1h1v1l1,-1h1l1,-1l1,1l1,-1h-2l1,-1h2l1,1l4,1v-1h-2v-1h-1l-1,-1v-3h2l1,1v1h1l1,1l1,2h1v3l1,1v-1h1l-1,-1l1,-1h-1l-2,-2v-1l-2,-1l1,-1l-1,-1h1l1,2l-1,-1l1,-1h2l1,1l-1,-1l-1,-2h4l-2,-1v-1h1l1,-1h3l1,-1h1v-2l2,1h-1ZM253,820l1,1v2h-1v1l1,1h1l1,1h3l-1,-1v-2h-1v-2h1v-1l-1,-1h-1l1,1l-1,-1v-1h-2v-2h-1h1v-2l1,1v-3h-2l-1,1h-1v1h-1l-1,2l2,1v1l1,1Z"/>
<path class="tl" d="M146,770h-1v-1h1l1,1ZM137,769h-2l1,-1h1l1,1ZM220,771l-1,1h-1v-1h-1l2,-1v1ZM139,768h-2l1,-1v1ZM146,769h-1v-1h1l1,1ZM144,769h-1l-1,-1h-1h1v-1h1l1,1ZM268,768l-3,1v-2ZM215,769l3,1h-2v3h-1l-2,-1h1l-1,-1l-2,-1v-1l1,-1l1,1h1v-1h1ZM220,768h1l-1,1h-4l-1,-1h3ZM234,767l-1,1h-1v-1h-1h4ZM264,768h-4l-2,-1l-1,-1h1l1,-1l4,2ZM153,767v1h-1l-2,1h-2v-1h1h-1v-1l1,-1h2v-1h1v1h1ZM167,764h3v1h-3l-1,1h-1l-1,1l-2,1h-3v1h-1v1h-2l-2,1h1l-2,1h-4l-1,-1h2v-1h2v-1h-1h1l1,-1h1l-1,-1h4l-1,-1h-3v-1l1,-1h6v-1h3v1l2,-1l1,1ZM190,764l3,1h-6v1h5l-1,1l2,-1h4v1l-2,1h-1l-2,2v2l1,1h-2l1,1l-1,1v1h-1l1,1h-3l1,1v1l-1,-1l-1,1h1l1,1v1h-2l-1,-1v1l-1,1h3l-4,2h-3l-1,1l-4,2h-1l-2,1h-1v1l-2,2v1l-1,1l-1,2h-1l-1,-1h-1l-1,-1v-2l-1,-1v-1l1,-1l-1,-2l1,-1l1,-2h1l1,-1v-1l-1,1h-1v-1l1,-1h1l-1,-1h-1l1,-1v-4l-1,-1h-5v-1l-1,-1h1l-1,-1l1,-1h2l3,-1h1l-2,-1h1l3,-1h1v-1h9l1,1l-1,-1h1l2,-1h3l2,-1Z"/>
<path class="th" d="M353,865v1v-1v1Z"/>
<path class="tg" d="M66,970h1l1,-1h4v-1h5v-1h5v-1h6v-1h6l1,-1h7v-1h8v-1h9l1,-1h11v-1h14v-1h20v-1h79v1h20v1h14v1h11l1,1h9v1h8v1h7l1,1h6v1h6v1h5v1h5v1h4l1,1h1M21,927h6v-1h7v-1h8v-1h10v-1h10v-1h12v-1h14v-1h18v-1h23v-1h38v-1h75v1h38v1h23v1h18v1h14v1h12v1h10v1h10v1h8v1h7v1h6M5,877h399M21,826h4v1h7v1h8v1h9v1h10v1h11v1h14v1h16v1h21v1h32v1h103v-1h32v-1h21v-1h16v-1h14v-1h11v-1h10v-1h9v-1h8v-1h7v-1h4M66,783v1h5v1h4v1h5l1,1h5v1h6l1,1h6l1,1h7v1h10v1h10v1h13l1,1h17v1h36v1h21v-1h36v-1h17l1,-1h13v-1h10v-1h10v-1h7l1,-1h6l1,-1h6v-1h5l1,-1h5v-1h4v-1h5v-1M140,755h-1v1h-3v1h-2v1h-2v1h-2v1h-2v1h-2l-1,1h-1l-1,1h-1l-1,1h-1v1h-2v1h-2v1h-2v1h-1l-1,1h-1v1h-2v1h-1l-1,1h-1v1h-2v1h-1v1h-2v1h-1v1h-2v1h-1v1h-1l-1,1h-1v1h-1v1h-2v1h-1v1h-1v1h-1v1h-2v1h-1v1h-1v1h-1v1h-1v1h-1v1h-1l-1,1h-1v1h-1v1h-1v1h-1v1h-1v1h-1v1h-1v1h-1v1h-1v1l-1,1v1h-1v1h-1v1h-1v1h-1v1h-1v1l-1,1v1h-1v1h-1v1h-1v2h-1v1h-1v2h-1v1h-1v2h-1v1h-1v2h-1v2h-1v1h-1v2h-1v2h-1v2h-1v2h-1v2l-1,1v2h-1v2l-1,1v2h-1v3h-1v4h-1v4h-1v5h-1v9h-1v13l1,1v8h1v5h1v4h1v4h1v3h1v3h1v2h1v3h1v2h1v2h1v2h1v2h1v2h1v2h1v1l1,1v1h1v2h1v1h1v2h1v1h1v1h1v2h1v1h1v1l1,1v1h1v1h1v1h1v1l2,2v1h1v1h1v1h1v1h1v1h1v1h1v1h1v1h1v1h1v1h1v1h1v1h1v1h1v1h2v1h1v1h1v1h1v1h1v1h1l1,1h1v1h1v1h1v1h2v1h1v1h1l1,1h1v1h1v1h2v1h1v1h2v1h1l1,1h1v1h2v1h1v1h2v1h2v1h1l1,1h1v1h2v1h2v1h2v1h2v1h2v1h2v1h2v1h2l1,1h2v1h2v1h2M153,755h-1v1h-2v1h-2v1h-1v1h-2v1h-2v1h-1v1h-2v1h-1v1h-2v1h-1v1h-2v1h-1v1h-1v1h-2v1h-1v1h-1l-1,1h-1v1h-1v1h-1v1h-1v1h-1l-1,1h-1v1h-1v1h-1v1h-1v1h-1v1h-1v1h-1v1h-1v1h-1v1h-1v1h-1v1h-1v1h-1v1h-1v1h-1v1h-1v1h-1v1l-2,2v1h-1v1h-1v1h-1v1l-1,1v1h-1v1h-1v2h-1v1h-1v1l-1,1v1h-1v2h-1v1h-1v2h-1v1h-1v2h-1v2h-1v2h-1v2h-1v2h-1v2h-1v2h-1v3h-1v2h-1v3h-1v3h-1v3h-1v3h-1v4l-1,1v4h-1v6l-1,1v30h1v6h1v5h1v4h1v3h1v3l1,1v2l1,1v2h1v3h1v2h1v2h1v2h1v2l1,1v1h1v2h1v2h1v2h1v2h1v1h1v2h1v1h1v2h1v1h1v2h1v1h1v1h1v2h1v1h1v1h1v1l1,1v1h1v1h1v1h1v1h1v1h1v1h1v1l3,3v1h1l3,3h1v1h1v1h1v1h1v1h1v1h1v1h1v1h1l1,1h1v1h1v1h1v1h1l1,1h1v1h1v1h1l1,1h1v1h1v1h2v1h1v1h2v1h1v1h2v1h2v1h1v1h2v1h1l1,1h1v1h2M166,755h-1v1h-1v1h-1l-1,1h-1v1h-1v1h-1v1h-1v1h-1v1h-1l-2,2h-1v1h-1v1h-1v1h-1v1h-1v1h-1v1h-1v1h-1v1h-1v1l-2,2v1h-1v1h-1v1h-1v1h-1v1l-1,1v1h-1v1h-1v1h-1v2h-1v1h-1v1l-1,1v1h-1v1h-1v2h-1v1h-1v2h-1v2h-1v1h-1v2h-1v2h-1v2h-1v1l-1,1v1l-1,1v1l-1,1v2h-1v2h-1v2h-1v3h-1v2h-1v3h-1v3h-1v3h-1v3h-1v4h-1v4h-1v5h-1v6h-1v8h-1v30h1v7l1,1v5h1v5h1v4h1v4h1v3h1v3h1v3h1v3h1v3h1v2h1v2h1v2l1,1v2h1v2h1v2h1v2h1v1h1v2h1v2h1v2h1v1h1v2h1v1h1v2h1v1l1,1v1h1v1h1v2h1v1h1v1h1v1l1,1v1h1v1h1v1h1v1l1,1v1h1v1h1v1h1v1h1v1h1v1h1v1h1v1h1v1h1v1h1v1h1v1h1v1h1v1h1v1h1l2,2h1v1h1v1h1v1h1v1h2v1h1"/>
<path class="tg" d="M179,755h-1v1h-1v2h-1v1h-1v1h-1v1h-1v2h-1v1h-1v1l-1,1v1h-1v1l-1,1v1h-1v1l-1,1v1h-1v2h-1v1l-1,1v1h-1v2h-1v2h-1v2h-1v2h-1v2h-1v2h-1v2h-1v2h-1v2l-1,1v2h-1v2l-1,1v2h-1v3h-1v3h-1v3h-1v3h-1v4h-1v4h-1v4h-1v4h-1v5l-1,1v5h-1v8h-1v11h-1v29l1,1v10l1,1v7h1v6h1v5h1v4l1,1v4h1v3l1,1v3h1v3h1v3h1v3h1v3h1v3h1v2h1v3h1v2h1v2h1v2l1,1v2h1v2h1v1l1,1v1l1,1v1h1v2h1v2h1v1l1,1v1h1v2h1v1h1v2h1v1h1v2h1v1h1v1l1,1v1h1v1h1v1h1v2h1v1h1v1h1M192,755h-1v3h-1v2h-1v3h-1v3h-1v3h-1v3h-1v3h-1v3l-1,1v3h-1v4h-1v4h-1v4l-1,1v4h-1v5h-1v6h-1v6l-1,1v7h-1v8h-1v11l-1,1v18h-1v29l1,1v18h1v11h1v8l1,1v7h1v6h1v6h1v5h1v5h1v4h1v4h1v4h1v4h1v3h1v3l1,1v3h1v2l1,1v2h1v3h1v3h1v2h1M205,755v243M217,755h1v3h1v2h1v3h1v3h1v3h1v3h1v3h1v3l1,1v3h1v4h1v4h1v4l1,1v4h1v5h1v6h1v6l1,1v7h1v8h1v11l1,1v18h1v29l-1,1v18h-1v11h-1v8l-1,1v7h-1v6h-1v6h-1v5h-1v5h-1v4h-1v4h-1v4h-1v4h-1v3h-1v3l-1,1v3h-1v2l-1,1v2h-1v3h-1v3h-1v2h-1M230,755h1v1h1v2h1v1h1v1h1v1h1v2h1v1h1v1l1,1v1h1v1l1,1v1h1v1l1,1v1h1v2h1v1l1,1v1h1v2h1v2h1v2h1v2h1v2h1v2h1v2h1v2h1v2l1,1v2h1v2l1,1v2h1v3h1v3h1v3h1v3h1v4h1v4h1v4h1v4h1v5l1,1v5h1v8h1v11h1v29l-1,1v10l-1,1v7h-1v6h-1v5h-1v4l-1,1v4h-1v3l-1,1v3h-1v3h-1v3h-1v3h-1v3h-1v3h-1v2h-1v3h-1v2h-1v2h-1v2l-1,1v2h-1v2h-1v1l-1,1v1l-1,1v1h-1v2h-1v2h-1v1l-1,1v1h-1v2h-1v1h-1v2h-1v1h-1v2h-1v1h-1v1l-1,1v1h-1v1h-1v1h-1v2h-1v1h-1v1h-1M243,755h1v1h1v1h1l1,1h1v1h1v1h1v1h1v1h1v1h1l2,2h1v1h1v1h1v1h1v1h1v1h1v1h1v1h1v1h1v1l2,2v1h1v1h1v1h1v1h1v1l1,1v1h1v1h1v1h1v2h1v1h1v1l1,1v1h1v1h1v2h1v1h1v2h1v2h1v1h1v2h1v2h1v2h1v1l1,1v1l1,1v1l1,1v2h1v2h1v2h1v3h1v2h1v3h1v3h1v3h1v3h1v4h1v4h1v5h1v6h1v8h1v30h-1v7l-1,1v5h-1v5h-1v4h-1v4h-1v3h-1v3h-1v3h-1v3h-1v3h-1v2h-1v2h-1v2l-1,1v2h-1v2h-1v2h-1v2h-1v1h-1v2h-1v2h-1v2h-1v1h-1v2h-1v1h-1v2h-1v1l-1,1v1h-1v1h-1v2h-1v1h-1v1h-1v1l-1,1v1h-1v1h-1v1h-1v1l-1,1v1h-1v1h-1v1h-1v1h-1v1h-1v1h-1v1h-1v1h-1v1h-1v1h-1v1h-1v1h-1v1h-1v1h-1v1h-1l-2,2h-1v1h-1v1h-1v1h-1v1h-2v1h-1M256,755h1v1h2v1h2v1h1v1h2v1h2v1h1v1h2v1h1v1h2v1h1v1h2v1h1v1h1v1h2v1h1v1h1l1,1h1v1h1v1h1v1h1v1h1l1,1h1v1h1v1h1v1h1v1h1v1h1v1h1v1h1v1h1v1h1v1h1v1h1v1h1v1h1v1h1v1h1v1h1v1l2,2v1h1v1h1v1h1v1l1,1v1h1v1h1v2h1v1h1v1l1,1v1h1v2h1v1h1v2h1v1h1v2h1v2h1v2h1v2h1v2h1v2h1v2h1v3h1v2h1v3h1v3h1v3h1v3h1v4l1,1v4h1v6l1,1v14l1,1h-1v15h-1v6h-1v5h-1v4h-1v3h-1v3l-1,1v2l-1,1v2h-1v3h-1v2h-1v2h-1v2h-1v2l-1,1v1h-1v2h-1v2h-1v2h-1v2h-1v1h-1v2h-1v1h-1v2h-1v1h-1v2h-1v1h-1v1h-1v2h-1v1h-1v1h-1v1l-1,1v1h-1v1h-1v1h-1v1h-1v1h-1v1h-1v1l-3,3v1h-1l-3,3h-1v1h-1v1h-1v1h-1v1h-1v1h-1v1h-1v1h-1l-1,1h-1v1h-1v1h-1v1h-1l-1,1h-1v1h-1v1h-1l-1,1h-1v1h-1v1h-2v1h-1v1h-2v1h-1v1h-2v1h-2v1h-1v1h-2v1h-1l-1,1h-1v1h-2"/>
<path class="tg" d="M269,755h1v1h3v1h2v1h2v1h2v1h2v1h2l1,1h1l1,1h1l1,1h1v1h2v1h2v1h2v1h1l1,1h1v1h2v1h1l1,1h1v1h2v1h1v1h2v1h1v1h2v1h1v1h1l1,1h1v1h1v1h2v1h1v1h1v1h1v1h2v1h1v1h1v1h1v1h1v1h1v1h1l1,1h1v1h1v1h1v1h1v1h1v1h1v1h1v1h1v1h1v1l1,1v1h1v1h1v1h1v1h1v1h1v1l1,1v1h1v1h1v1h1v2h1v1h1v2h1v1h1v2h1v1h1v2h1v2h1v1h1v2h1v2h1v2h1v2h1v2l1,1v2h1v2l1,1v2h1v3h1v4h1v4h1v5h1v9h1v13l-1,1v8h-1v5h-1v4h-1v4h-1v3h-1v3h-1v2h-1v3h-1v2h-1v2h-1v2h-1v2h-1v2h-1v2h-1v1l-1,1v1h-1v2h-1v1h-1v2h-1v1h-1v1h-1v2h-1v1h-1v1l-1,1v1h-1v1h-1v1h-1v1l-2,2v1h-1v1h-1v1h-1v1h-1v1h-1v1h-1v1h-1v1h-1v1h-1v1h-1v1h-1v1h-1v1h-1v1h-2v1h-1v1h-1v1h-1v1h-1v1h-1l-1,1h-1v1h-1v1h-1v1h-2v1h-1v1h-1l-1,1h-1v1h-1v1h-2v1h-1v1h-2v1h-1l-1,1h-1v1h-2v1h-1v1h-2v1h-2v1h-1l-1,1h-1v1h-2v1h-2v1h-2v1h-2v1h-2v1h-2v1h-2v1h-2l-1,1h-2v1h-2v1h-2"/>
<rect x="339" y="853" width="24" height="29" fill-opacity="0" stroke="#ffffff" stroke-opacity="0.5" stroke-width="5.0"/>
<rect x="341" y="855" width="24" height="29" fill-opacity="0" stroke="#113311" stroke-opacity="0.8" stroke-width="5.0"/>
<rect x="340" y="854" width="24" height="29" fill-opacity="0" stroke="#45a249" stroke-opacity="0.9" stroke-width="5.0"/>
<rect x="691" y="691" width="309" height="309" fill="#ffffff" fill-opacity="1.0"/>
<rect x="694" y="694" width="302" height="302" fill="#000000" fill-opacity="1.0"/>
<rect x="700" y="700" width="300" height="300" fill="#70add3" fill-opacity="1.0"/>
<path class="zl" d="M940,780l-2,2v-1l1,-1v-1h2ZM701,722l-1,3v-7h1Z"/>
<path class="zp" d="M700,725v-7"/>
<path class="zl" d="M708,748h2l2,-1h2l1,2v9l1,1h1v1l1,1v2l1,2v1h-2v2l-1,-1l-1,-2h-1v3l1,1v1l-2,-1h-2l-1,-1l1,-2v-1l-1,-2l1,-4v-2l-1,-1l-1,-2h-1l-2,1h-1v-4l-1,-4l-1,-1v-1l1,-1v1l1,1h2v1ZM719,727l2,2v2h1l2,2v2l-1,2v7l2,3v2l-1,1h1l2,1v2l-2,-2l-3,1l-2,-1h-1l-2,-2h-1l-1,-1l-1,-3l-1,-1l2,-1v-3l-1,1l-2,-2v-1l-2,-2l-2,-1h-1l-1,-1l-1,-2l-2,-6l5,1h5l5,-1ZM703,839l-3,-2v-36l2,-4l1,-1v-1h1l3,2l2,-1l1,-2v-4l2,-1h1l1,1l2,1l1,-1v-2h1l2,1l2,-1l1,-2v-2l-2,-7l1,-2h1l2,2l4,3l1,1l1,2l1,1h2v3l2,3v1l-1,2v1l-2,1v1h1l2,1l1,1v2l1,3v6l2,2v1l1,2l-1,4v3l-5,5l-1,-1v8l-1,3v-2l-1,-2v-4l-1,-2l-1,-1v-2l-1,-2l-2,-3h-1l-1,1v1l-1,1v1l-2,1l-2,4v3l1,1l2,1v1l1,4v4l-3,6l-2,1l-1,-1l-1,-2v-5h-1l-3,3h-1l-5,-2Z"/>
<path class="zp" d="M700,837v-36"/>
<path class="zl" d="M703,777l-3,1v-10h3l2,2h2v5h-2l-1,2Z"/>
<path class="zp" d="M700,778v-9"/>
<path class="zl" d="M732,775l-1,-1v-1l1,-3l1,2v2l1,1h-1ZM726,773l-3,-3v-4l1,-1h1v-1h1l-1,3l1,3v2ZM700,708v-1l1,-2v-3l2,-2l2,2v1l1,1v3l-1,1v1h-2l-1,1Z"/>
<path class="zp" d="M700,708v-1"/>
<path class="zl" d="M703,760h-1l1,-1h1v1ZM719,771v1l-2,-2l-1,-2h1l1,1ZM727,824l-1,1l-1,-2v-3l2,1ZM708,745h-2l-1,-1l-1,-2l1,-1l2,1h1v2ZM711,786l-1,1l-2,-1v-2h1l1,1ZM731,778l-1,1v-3l1,-1v2ZM712,743v1h-1v-2l-1,-1l1,1ZM990,997v-6h3l7,3v6h-10Z"/>
<path class="zp" d="M1000,994v6h-10"/>
<path class="zl" d="M893,957l4,1h1l1,1l2,-1l1,1l3,2l1,2l2,2h2l-1,1l-3,1h-1l-1,-1l-2,1l-1,-1v-2l-2,-4l-2,1l-2,-1l-2,-2ZM894,974l7,1l2,-1l7,2h8l1,1l-3,1l-2,1h-6l-1,-1h-3l-9,-3ZM813,946l3,1h1l4,2l1,1v1l-1,2h-1l-1,-1h-4v-1l-2,-1l-2,-2h-1v1h1l1,2h2l1,1v1l-3,1l-1,-1v-2l-2,1v1l-1,-2h-3l-2,-1l1,-1v-1l1,-1l1,1l2,-1h3ZM772,910l-3,1v-1l-1,-4l2,-3l2,-2h3l1,2l-1,4l-1,2ZM767,975h-1l-1,1l-2,-1h-3l-4,1l-2,-2v-1l1,-2l2,-2h3l2,2l3,1l2,2ZM730,988l-1,-1l-1,-2v-1l-1,-2v-1l1,-1h1v3l2,4ZM730,977h5l-1,1l-5,1h-9l-1,-1v-1h6ZM712,975l1,1h1v-1h1l1,1h1v1h1v1h-4l-2,1l-3,-1l-3,2h-4l-1,-3v-3h5ZM816,969h-2l-2,-2l-1,-2v-2l4,-1h2l1,1l-1,4ZM701,937l-1,1v-11l2,-2l2,-1l1,-1v-2h1l2,-1l2,-2l1,-2h3l1,1l1,2v1l-1,1h-1l-1,4l-7,7l-2,4l-2,1Z"/>
<path class="zp" d="M700,938v-11"/>
<path class="zl" d="M759,931l2,1l1,-1h1v-1l2,-4h2v-3l1,-1l3,-2l2,-1h3v2l1,1l-1,5l-3,2l-3,1l-1,1v2l2,2l4,1v1l1,1v2h1l1,1h1l1,1l-7,-2l-1,-1h-4l-2,-1h-3l-1,1v2l1,1v1l-1,2l2,5l2,4l2,5l2,1l1,1h-2l-1,-1l-3,-2l-1,-1l-2,-4v-1l-2,-1l-2,-2l1,-2v-6l-2,-2l-1,-2v-3l1,-1v-2l-1,-1l-2,-4v-2l2,-4v-3l1,-1l2,-4l3,-3l2,-1h1v1l-2,3l-1,1v1l2,2l1,2v3l-1,2l-2,3l-4,2v2ZM766,997l2,-1l6,-1h9v1l1,1h1l1,-1l2,-1l1,-1h2l1,1l3,1l4,2h7l2,2h-45Z"/>
<path class="zp" d="M808,1000h-45"/>
<path class="zl" d="M730,1000l1,-1l2,1ZM735,999h9l2,1h-12Z"/>
<path class="zp" d="M733,1000h-3M746,1000h-12"/>
<path class="zl" d="M866,999h-1l-2,1h-20l-3,-2l-2,-1h-3l-2,-2l2,-1l3,-1h6l2,2l6,-6h1l2,-1l1,1l2,1h4l1,1v1l1,-2v-1l2,-1h1v-2h-2l2,-2v-1l-7,2h-5l-4,1h-2l-4,-1h-6l-2,-1l-1,-1l-1,-2h-1v-1l-1,-4v-3h-4l-8,-3v1h-5v-1l1,-2h1l2,-2l1,-2v-3h1l2,-1l6,-2h2l1,-2h2v-1l1,-1l5,-2h4l4,1l4,2l6,4h9l1,1l2,1l-1,1v2l1,1l2,4v3l-2,2v10l4,8l2,3v-4l1,-1h2v3l1,4h2l1,1v2h-19ZM901,998l2,-4l1,-1l4,-2v-1l2,-4v-1h4l4,-1l6,-3v-1l-1,-1v-1l1,-1l8,-4l3,-1h2l1,1l2,1l10,3l2,2l2,1h2l8,4l5,2h7l1,1l8,1v1l1,2h4v9h-91Z"/>
<path class="zp" d="M863,1000h-20M884,1000h-19M990,1000h-91"/>
<path class="zl" d="M886,966h-2l-1,-2v-1l1,-1l1,1v1h1ZM751,954l-1,1h-1v-4l1,-1l2,1h-1l1,2ZM757,951l2,3l-2,2l1,2h3l1,1v1l-1,1h-1l-2,-1v-1l-3,1l-1,-1l1,-2l-2,-1l-1,-2v-2h1l2,1v-1l1,-1ZM744,875l-1,1h-1v-1l1,-2l1,-1l-2,-2v-1l1,-3l2,2v2l1,1l-2,2ZM724,886h-1l-2,-1v-2l-1,-1v-2l2,2v1l1,2ZM805,975v1l1,1v3l-1,1h-1l-1,1h-2v-1h-4l-3,-3l5,-1l2,-1h1l2,-1ZM753,932v1l-1,-1v-1h1ZM875,983v-2l1,1ZM815,960l-1,1l-7,1v-1h1l1,-1v1l1,-1h3v-1ZM810,955h-3l1,-1h1v-1h1v1h1ZM791,949h-1v-1l-2,-1l-1,-2l4,3ZM755,946h-1v-3l1,2ZM754,935h-1v-2h1v1ZM752,959v1l-2,-1h-1l1,-2h1ZM742,878v1l-1,-2v-2l1,1v1ZM744,880h-1v-1h1ZM719,899v1l-1,-2l1,-1h1l-1,1ZM764,997l-1,1h-2l2,-1Z"/>
<rect class="zh" x="872.5" y="823.5" width="1" height="1"/>
<rect class="zh" x="875.5" y="819.5" width="1" height="1"/>
<rect class="zh" x="876.5" y="818.5" width="1" height="1"/>
<path class="zh" d="M880,812v2l-1,1h1h-1v3h-1l-1,-1v-1h1v-1h-1h1v-2h2l-1,-1v-1Z"/>
<rect class="zh" x="819.5" y="893.5" width="1" height="1"/>
<rect class="zh" x="837.5" y="853.5" width="1" height="1"/>
<rect class="zh" x="871.5" y="825.5" width="1" height="1"/>
<rect class="zh" x="830.5" y="894.5" width="1" height="1"/>
<rect class="zh" x="880.5" y="805.5" width="1" height="1"/>
<circle class="w1" cx="876" cy="819" r="10"/>
<circle class="c1" cx="876" cy="819" r="9"/>
<circle class="w1" cx="830" cy="895" r="10"/>
<circle class="c1" cx="830" cy="895" r="9"/>
<circle class="w1" cx="881" cy="806" r="10"/>
<circle class="c1" cx="881" cy="806" r="9"/>
<circle class="w1" cx="819" cy="893" r="9"/>
<circle class="c1" cx="819" cy="893" r="8"/>
<circle class="w1" cx="838" cy="854" r="9"/>
<circle class="c1" cx="838" cy="854" r="8"/>
</svg>
