<?xml version="1.0" encoding="UTF-8" standalone="no"?>
<svg xmlns:svg="http://www.w3.org/2000/svg" xmlns="http://www.w3.org/2000/svg" xmlns:xlink="http://www.w3.org/1999/xlink" height="1000" width="1000">
<!-- made with pythonshp (GPL): github.com/sanjayrao77/pythonshp , underlying data may come from naturalearthdata.com -->
<!-- 
COPYRIGHT: THIS SVG FILE IS RELEASED INTO THE PUBLIC DOMAIN
 -->
<!-- 
vars : {
	'cmdline' : 'pythonshp.py publicdomain wiki1 paraguay locatormap'
	'title' : 'Paraguay locator'
	'version' : '1.0.5'
}
 -->
<defs>
	<radialGradient id="watergradient" cx="500" cy="500" r="500" fx="500" fy="500" gradientUnits="userSpaceOnUse">
		<stop offset="0%" stop-color="#70add3"/>
		<stop offset="11%" stop-color="#6eaad0"/>
		<stop offset="22%" stop-color="#6ca7cc"/>
		<stop offset="31%" stop-color="#6ba5c9"/>
		<stop offset="41%" stop-color="#69a2c6"/>
		<stop offset="51%" stop-color="#679fc2"/>
		<stop offset="59%" stop-color="#669dbf"/>
		<stop offset="67%" stop-color="#649abc"/>
		<stop offset="75%" stop-color="#6297b9"/>
		<stop offset="81%" stop-color="#6095b6"/>
		<stop offset="87%" stop-color="#5f92b2"/>
		<stop offset="92%" stop-color="#5d8faf"/>
		<stop offset="95%" stop-color="#5b8dac"/>
		<stop offset="98%" stop-color="#598aa8"/>
		<stop offset="100%" stop-color="#5685a2"/>
	</radialGradient>
	<radialGradient id="landgradient" cx="500" cy="500" r="500" fx="500" fy="500" gradientUnits="userSpaceOnUse">
		<stop offset="0%" stop-color="#dddddd"/>
		<stop offset="11%" stop-color="#d7d7d7"/>
		<stop offset="22%" stop-color="#d1d1d1"/>
		<stop offset="31%" stop-color="#cccccc"/>
		<stop offset="41%" stop-color="#c6c6c6"/>
		<stop offset="51%" stop-color="#c0c0c0"/>
		<stop offset="59%" stop-color="#bbbbbb"/>
		<stop offset="67%" stop-color="#b5b5b5"/>
		<stop offset="75%" stop-color="#afafaf"/>
		<stop offset="81%" stop-color="#aaaaaa"/>
		<stop offset="87%" stop-color="#a4a4a4"/>
		<stop offset="92%" stop-color="#9e9e9e"/>
		<stop offset="95%" stop-color="#999999"/>
		<stop offset="98%" stop-color="#939393"/>
		<stop offset="100%" stop-color="#888888"/>
	</radialGradient>
	<radialGradient id="bordergradient" cx="500" cy="500" r="500" fx="500" fy="500" gradientUnits="userSpaceOnUse">
		<stop offset="0%" stop-color="#444444"/>
		<stop offset="11%" stop-color="#3f3f3f"/>
		<stop offset="22%" stop-color="#3a3a3a"/>
		<stop offset="31%" stop-color="#363636"/>
		<stop offset="41%" stop-color="#323232"/>
		<stop offset="51%" stop-color="#2d2d2d"/>
		<stop offset="59%" stop-color="#292929"/>
		<stop offset="67%" stop-color="#242424"/>
		<stop offset="75%" stop-color="#1f1f1f"/>
		<stop offset="81%" stop-color="#1b1b1b"/>
		<stop offset="87%" stop-color="#161616"/>
		<stop offset="92%" stop-color="#121212"/>
		<stop offset="95%" stop-color="#0e0e0e"/>
		<stop offset="98%" stop-color="#090909"/>
		<stop offset="100%" stop-color="#000000"/>
	</radialGradient>
</defs>
<style type="text/css">
<![CDATA[
.fs {font:14px sans;stroke:#ffffff;stroke-width:2px;stroke-opacity:0.8;text-anchor:middle}
.ft {font:14px sans;fill:#000000;fill-opacity:1;stroke-opacity:0;text-anchor:middle}
.sb {stroke:url(#bordergradient);fill-opacity:0}
.sg {stroke:#000000;fill-opacity:0.0;stroke-opacity:0.2}
.sh {fill:#45a211;stroke:#000000}
.si {stroke:#000000;fill-opacity:0;stroke-opacity:0.3}
.sl {fill:url(#landgradient);stroke:url(#bordergradient)}
.sp {stroke:url(#landgradient);fill-opacity:0}
.sr {stroke:url(#watergradient);fill-opacity:0}
.sw {fill:url(#watergradient);stroke:url(#watergradient);stroke-opacity:0.8}
.tb {fill:#eeeeee;stroke:black;stroke-width:2}
.tg {stroke:black;stroke-opacity:0.2;fill-opacity:0}
.th {fill:#45a211;stroke:#378100}
.tl {fill:#aaaaaa;stroke:black}
]]>
</style>
<circle cx="500.0" cy="500.0" r="500.0" fill="url(#watergradient)"/>
<path class="sl" d="M896,194l1,1v1l-1,-1v-1l-1,-1h-1v-1v1h1v1l-1,-2l-2,-2v-1h-1l-1,-1v-1h-1v-2h-1v-1l-1,-1v1v-1v1l1,1h1v1l4,4v1l2,2ZM886,183v-1l-1,-1v1h1h-1v-1l-2,-2v-1h-1h1h-1v-1h-1v-1l-5,-5v-1l-1,-1l-2,-1v-1h-1v-1v1v-1l-4,-4v-1h-1v-1l-3,-3h-1v-1l-4,-4h-1v-1h-1v-1h-1v-1h-1v-1l-5,-5h-1l-5,-5h-1h1l-1,-1l-2,-1l-1,-1v-1l-1,-1h-1l-1,-1l1,1l-2,-2h-1v-1l-2,-1v-1l-1,-1v1l-1,-1l1,1h-1v-1v1h1v1h1l1,1v1h1v1l2,1l1,2h1l5,5h1l4,4l1,2l2,1l2,2l2,1l1,2h1v1h1v1h1l1,1v1l2,2l2,1l4,4v1l2,1l2,2v1l1,1v-1h-1l-2,-3l-1,-1h-1v-1h-1h1v1l2,2v1h1l2,2v1l2,1v1l1,1l-1,-1l1,1l1,2l1,1v1h1v1l-1,-1v-1h-1v-1l-2,-2l-1,-2h-1v-1l-6,-6v-1h-1l-1,-1v-1h-1v-1h-1l-7,-7h-1l-9,-9h-1v-1h-1l-1,-2h-1l-1,-1h-1v-1l-5,-5h-1v-1l-2,-1l-2,-2h-1l-1,-1l1,1v1h-1l1,1h-1l1,1v1h-1v-1h-1l-2,-2h-1v-1h-1v1v-1h-1l-1,-1h-1v-1v2l1,1v1l2,1l1,1v1h1v1h1v1h1v1l-1,1h-1l-1,1v1h1v1h-1l1,1v2h1l1,2v1l3,3h1v1h1v1l-1,1l1,1v1l1,1v1h1h-2l-1,1h1v3l-1,-1h-4v-1h-4v1l-1,-1h-1v1h1v1h-1h1h-2l-3,-3h-1v-1h-1v-1l-1,-1l-3,-2v-1v1l-1,-1h-2v1h-1l-1,-1h-2v-1h-1v1l-1,-1v-2l-4,-4v-1l-1,-1h1h-2l-1,-1v-3l-1,1h1v1h-2v-1l-1,-1v-1h-1v-3l-1,-2l-1,-1l-1,-2l-1,-1v-1l-3,-3v-1h-1v-1h-1l-1,-1v-2h-1v-1h-2v-1l-1,-1h-1v-1h-1l1,-1h1v-1h3v1h1l1,1h3l1,1v-1l1,1l2,1h1l3,1h1l1,1v-1l1,1l2,1h2l1,1h2v-1l-5,-5v-1v1l-2,-3l-1,-1h1v1l2,1v1v-1l-2,-2h-1v-1l-2,-1h-1h1l-1,-1l-2,-1v-1h-1l-3,-2l-1,-1h-1v-1h-1v-1h-1v-1h-1h1l1,1l-1,-1h-2l-1,-1v-1h-2l-1,-1h-1l-1,-1h-2v-1h-1l-1,-1h-1v-1h-1h1h-1v-1h-2v-1h3l1,1l2,1h2l1,1l-1,-1h1v1h1l-4,-4l-2,-1h-1h2v1h1l1,1h2l1,1h1l-2,-2h1v-1l-3,-2v-1h-1h4v1h1h-1v-1h-2v-1h-1h1l2,1h-1v-1h-1h1h-1l-1,-1h-1v-1l-3,-3h-1h1h-1v-1h1l1,1h1v1v-1h-1l-1,-1h1l2,1v1v-1v1h1h-1v-1h-1v-1h-1l1,1h1l2,1l1,1l-1,-1l-2,-1h-1v-1h-1l-1,-1h-1v-1h-1l-1,-1h-1v-1h-1h1l1,1h1v1h2v1h1l2,1v1h1l2,2v-1h-1v-1v1h1l2,2h1l1,1h1v1h1l1,1h1h-1l-1,-1h-1v-1v1h1l1,1h1l2,2h1l4,4h1l2,2h1l2,2h1l1,1v1h1l2,2h1l2,2h1l4,4h1l5,5h1l5,5h1l5,5h1l6,6h1l1,1v1l1,1h1l2,2v1l1,1h1l10,10h1v1l10,10v1l1,1h1l2,2v1l1,1h1l1,1v1l5,5v1l6,6v1l1,1h1v1l3,3Z"/>
<path class="sp" d="M887,184l1,1h1v1l4,4v1l3,3M781,87h1l1,1h1l2,2h1l4,4h1l2,2h1l2,2h1l1,1v1h1l2,2h1l2,2h1l4,4h1l5,5h1l5,5h1l5,5h1l6,6h1l1,1v1l1,1h1l2,2v1l1,1h1l10,10h1v1l10,10v1l1,1h1l2,2v1l1,1h1l1,1v1l5,5v1l6,6v1l1,1h1v1l3,3"/>
<path class="sl" d="M349,23v1h-3l-1,1h-2l-1,1l1,-1h3v-1h4v-1h3v-1v1h-1h1h-1h1h-1l-1,1h-2v1l1,-1h2v-1h2l1,-1h2v-1h4v-1h3l1,-1h1h-1l-1,1h-3l-1,1h-2l2,-1h3l2,-1h1v1v-1h6l1,-1h4l1,-1h3v-1h4l2,-1v1h-2l-1,1h-1v1h-3v1v-1h3l1,-1h1v-1h3v-1h4l1,-1h3v-1h-1v1h-1l1,-1h3l1,-1v1h-1h1v-1v1v-1l-1,1h-1v-1v1h-2v-1h4v-1h1h-1l-1,1v-1h3l1,-1h4l1,-1h2v1h-2v1v-1h1l-1,1h-3l-2,1h2l1,-1h1h-1v1v-1h1v1h-2v1h-1h2l1,-1h2l1,-1h2v1h-2v1h-1v-1v1h-2v1h1h-1h4v-1h2l2,-1h2v-1h3l1,-1h1h-1h1v-1h9l-1,1h-1h1h-3v1h-1h1h-1v1h1h-2v1h-3l-1,1h-4l-1,1v-1h-1v1h-9v1h1l-5,1l-1,1h-6v1l2,-1h3l-1,1h-1l-3,1l-1,1h-3l-1,1l-1,-1v1h-3l-1,1h-7v1h-1v-1h-2v1h-1h7l-1,1h-2l-1,1h-3v1h-4v1h-3v1h-2l-1,1h-2v1h-2v1h-2l-1,1h-1l-1,1l-2,1l-2,2h-1l-1,1h-1h1h-1v1h1l-2,1h1l1,-1h1l1,-1h2v1h-1v1l-2,2v1h-1l-1,1h-1h2v-1v1l1,-1h1l4,-1h8v1h2v1h1l1,1h5v1h1l-2,1l2,-1h4v-1h8v1l-2,2h-1v1h1l-1,1v1h-1v1h-1v1h-1h1v1l1,1l-1,1h-1h3l1,1h1v2h-1l-2,1h1l2,-1h3v1h1v1v-1h-1v-1h1v-1h1l1,-1h1v1h1l-1,1h1v-1h1v-1h-1l1,-1h1l1,-1h1v-5h1l-1,-1h2l-1,-1h1h-1h1v-1h-1v-1h-1l4,-1h1l2,-1h2l1,-1h1l3,-1v-1h2l1,-1h1v-1h1v-1h1v-1l1,-1v-1l-2,-2h-2l-1,-1h1v-1h2v-1h2v-1h3v-1h-1h1v-1h1v-1h-1h1h-2l1,-1h2v-1h1h-1v-2h2l1,-1h7v1h-1l2,-1h2l1,1v-1h8l-1,1h4l-1,1h2l2,1l1,-1h1v1h2v-1h1v1h-2v2h-1v1l-1,1h1v1h-1v1l-1,-1v1h-1h2l1,-1h4v1h1l-2,2h-2h3v-1h1v-1h1v1h-1h1l1,-1v1l-1,1l1,-1h2l1,-1h2l1,-1h1v1h1v-1h1h-1h1v-1h1l1,-1v1v-1h1h-1v-1h2v-1h2l-1,1h1v-1h2v1h1v1h1h-1h1l1,1h-1h2l-1,1h2l-1,1h-1h3l-1,1h-1h5v1h-1v1h-1h1l1,1h2v1h-4l1,1h1h-1h1v1h2l1,1h4l-1,1h1l-2,2l2,-1h4l-1,1h1v-1h2v1h5l1,1h2l-1,1h-4l-1,1h-3l-1,1h-3l-1,1h-1h1h-1v1h1h-1h1l1,-1h3l1,-1h2l1,-1h2v-1l3,1h1l1,1h1h-1l-1,1h1l1,-1h3l1,1h2v1h1l-1,1h1v1l-2,1h-1h2l1,1h1l-2,1l-1,1h-2l-2,1h-8l-1,1l-2,1l-1,1h-1l-1,1h-2l-1,1h-36v1h-2l-3,3h-2l-2,1h-3v1h-1l-4,2l-1,1h-1l-1,1h-1l-1,-1h-2l1,1h2v1h-1v1l-2,1h-1l-2,2h-2l-1,1h-1l-2,1h-3l-1,1l-3,1h-1l-1,1h-1l-2,2h-3v1h-2l1,1h-1l-4,2h4l3,-1h12l2,-2v1l1,-1h3v-1l1,-1h1v-1h1v-1l1,-1h1v-2h1l1,-1h1l2,-2h2v1h2l1,-1h2l1,1h1v1l-1,1v4h-1v1h2v2h2v2h-2l-1,1h-2l-1,1h-1v-1h-1v1h-1v-1v1h-1v1v-1h-1v-1v1h-1l-1,1v1h-3v1v-1l-1,1v-1l-1,1h-2v1h-1l-3,3h-1v1h-1v1h1v1h-2l-1,1h2l1,1v1h-1h1v1h2l1,-1v-1h-1h1l1,1v1h-1l-2,1h-2v-1l-2,1h-2l1,-1h-1l-1,1v1h-4v1h-7l-1,1l-2,1h-1l-1,1h-1v-1h1v-1h-1h1l-2,2v1h-1l-1,1h2v1l-1,1v1l-1,1l1,-1v-1v1h-1v1l-1,1h-1v1h-2v1l-2,2v-2h-2l-1,-1v-2h3v-1l-1,1h-2v1h-1h1l-1,1h1v3h1v1l-1,1h1v1h-1v1h-1v1l-3,2v1h-2v1l-1,1v-1l1,-2h1l1,-1v-1h-1h1l-1,-1l1,-1h-1v1v-1v1h-1l-1,-1v-1h2l-1,-1h-1h1v-1h1v-2h2v-1h-1h1v-1v1h-1l-1,1v-1v1h-1l-1,1v-1v2h-1h1h-1v3h-1v-1v1l1,1v1l-1,-1h-1l-1,-1v1l-1,-1l-1,1v-1l1,-1h1v-1l-1,1h-1v1l-1,1h2l1,1h2l1,1v1h-2l-2,-2h-1h1l1,1v1h1v1h2v1h-2v1v-1l-2,-1v1h1l1,1h1v1h-2v-1h-1v1h1v1h1l1,-1l1,1h1v3l1,2v1v-1l-1,-1v-3h-1v3h-1l-1,-1v1h-1h1h-1l-1,1h-1l-1,-1v1l1,1l1,-1h2v2h1v-1l1,-1v2l-2,1l-1,1h-2v-1h-1l-1,1l-1,-1h-1l1,1h2v1l-1,1h-1l-2,-1l2,2l2,-1h1l-2,2h-4l-1,1v-1h-1v1l-2,2h-1l-1,1v1v-1l-1,1l-3,1h-1l-2,1h-1l-1,2l-1,1v-1l-1,1l1,1h-1l-1,1h-1l-1,1h-2v1l-1,1h-4v1h1l-1,1l-1,-1v1v-1l-1,1h1l-3,3h-1h1l-1,1h-1h1v1h-1v1h-1v1l-1,1v-1v1l-1,1v10l3,5v1h-1v1v-1v1h-1v-1l1,-1h-1v-1v4l2,6l1,1v2l-2,5v1l-2,2v2h-1l-1,1l-2,1h-3v-1h1l-1,-2v-2h-3v-4h-1h1l1,-1h-1l-1,1v-2l1,-1h-1v1h-1l-1,-1l-1,-3l1,-2h1v-1h1h-2v-1v2h-2l3,-5v-2l1,-1l-1,-1l-3,-2l-2,-3l-2,-1l-2,1v1h-2l-2,1h-1l-1,1h-2v-1h1l-2,-2h1h-1l1,-1h-1v1h-1l-2,-1h-2h3v-1h-2l-1,1h-3l-2,1h1v-1h1v-1v1l-1,-1v1l-1,1h-2l-1,1h-1v-3l-1,1v1h-1l-1,1h-6l-1,1l-2,1l-2,-1h-1l-2,2h3v-1h2l-1,1v1h1v-1l1,-1v2h-1l-1,1h1h-1l-1,1h1v1h2v1h1l-1,1h-1l-1,1l1,-1h-1v-1h-2v-1l-2,-1v1h1v1h-1v1h-1v-1h-1l-1,1h-1v1l-2,-1h-1h1l-1,-1v-1v1l-1,-1h-1v-1h-2v1h-1v1h-5l-1,-1h-1l-1,1h-2v-1h1h-1l-1,1v1h-1l-4,2h-1l2,-1h-1v-1h-1v1l-1,-1v3l-1,1h-1v1l-1,1h-1l-2,2h-1l-1,1h-1l-1,1l1,-1h-3v1h1l-1,1h-2v1l-1,1v-1v1h-2v1l1,-1l-1,1v1h-2v2l-1,1v1h-2v1h1v1h-1v3l-1,1v1l1,2l-1,2v1l-2,3l-2,2l-2,4l-4,11v1l-1,1v3l-1,1l1,2v1h1v1l-1,1v1v-2h1l-1,-1v-1l-1,-1v3h1v6h1l2,5v3h1v2l1,1v1l1,1h-1h5l1,1h1v1l1,1h3l2,-1l2,-2h3l2,-1h1v-1h2v-1h4v1h-1h4l1,-1v-2h-1l3,-1v-1l1,-1l2,-1l1,-3v-1l1,-1h1v-3l1,-2v-1l1,-2l4,-2l7,-2l1,-1h1l1,-1h10l-1,-1v1h-1v-1h3v1h1v2l-1,1v1l-6,6v2l-2,2v1l1,-1h1v1h-1v1h-1v1l1,-1l-2,4l-1,1v2l-1,1v1l-1,-2v-2h-1v1l-2,2h2v2l-1,2v1l-1,1v2h-1v3l-1,2v2h-1l-2,2l-1,2h-1v1h3v-1l2,1l1,1v-1h1v-1h9l2,-1h2l1,-1h1v-1h1l2,1l3,-1h4v1h1v-1l5,3h-3v1h2l1,1l1,-1v1h1l-1,-1h2v2h1v1l-1,1v-1h-1v1h1v4l-1,1v1h-1l-1,2l-1,4l1,3l-1,2v2h-1v-1h1v-1h-1v1h-1l1,1v3h-1v1h-1v1h1v2h-1v5h1v1l1,3l1,1l1,2h1l1,2h1v1h2v1h1v2h1v1l1,1h2v-1h1l1,2h3l1,-1h2l1,-2h1l4,-2l1,-1h1l2,-2h5v1h4l5,2l1,2l3,1l-1,1v2l2,2v1h-1v1l-3,3v-2h-1v2l-1,1v1l-2,-2l-2,-3v-1h1v-2l1,-1h1v1h1l1,1v-1l-2,-1v-1h-1v1h-1l-1,-1v1l-1,-2l-1,-1h-1l-1,-1h-1l-1,-1l-2,1h-1v1h-1v1h-1v1l-3,3h-2v1h-1v1h1v1l3,3l-1,1h-1l-2,2h-3v-1l-1,-3v-1h-1v1l-1,1h-2l-1,-3l-1,-1h-4v-1l-1,1h-4v1l-1,-1h-1l1,-2h-1l-1,-1h-1v1h1v1h-2l-1,-1l1,-1v-3l-1,-1h-1l-2,-1v-1h-3l-1,-1v-2l-4,-2v1l1,1h2v1l-1,1h-1v1h-1l-1,-2h-2v-1l-1,-1v-2l1,-1v-2l-1,-1l1,-1v-1l-1,-1v-1l-4,-2l-1,-2l-1,-1v-1l-2,-1l-4,-4l1,-1l1,1h1v-1l-1,-1v-1l-1,-1l-1,1l-1,-1v2h-1l-1,1l-2,-1h-1v1l-5,-2h-4l-1,-1h-1l-2,-1h-7l-1,-1l-2,-1l-4,-4l-1,-2h-1l-1,-1v-1l-3,-2l-2,-2h-1l-1,-1h-1l1,1h-3l1,-1h-1l-1,-1v1h-1l1,1h1h-3l-2,2l-3,1l-3,2l-1,1h-3l-2,-1h-4l-2,-2h-2l-1,-2l-1,1l-1,-1h-4l-1,-1h-2l-1,-1h-2l-2,-2h-1v-1h-1l-1,-1v-1h-5l-1,-1h-3v-2l-2,-2h-1l-1,-1h-1l-2,-2v-1l-1,-2v-4h1l1,-1h1v-1h-1v-1l2,-2v-1l1,-1v-1l-1,-1v-2l1,-3v-2l-1,-1l-2,-4v-3l-3,-3h1v-1v1h-1v-1v1l-1,-1v-3h1l-2,-2v-1h-1v1h-1l1,-1h-1v1l-1,-1l1,-2l1,-1v-1l1,-1v1v-3h-2v-1l1,-1h-2v-3l1,-1v-1h-2v-2l-1,-1v-9l1,-1v-3l1,-1v-1l1,-1v-1h-2l1,-1l-1,-1v1h-1l-1,-1h-1v1l-1,1l-2,3v2l-1,1v1l-1,2v3l1,1v2l-1,1h1v5l-1,1v2l1,1l-1,1v1h1v1h-1l1,1l-1,1v1h1v-2l1,1h-1l1,1l-1,1v1l-1,2v2h1l-1,1v5l-1,1v2h1v1v-1l1,-1l1,1v3l1,1v1l-2,2v1h-1l-1,1h-1l1,-3h-1l1,-1h-1l-1,-1v-1l-2,-2v-2h-1v1v-4l1,-2l1,-1v-5h-1v-3h-1l-2,1v-1l-1,-1h-1v-1h1v-1h-1v-2h2v-1h1v1h1h-1l1,-1v-1l2,-4v-5h-1v-1h-1v-2l1,-1v-2l1,-1v-3h1v-4h1v-4l1,-1v-1l1,-1v-1l1,-1l-1,-2v-1l-1,1l1,-1v-1h-2v-1h-2l-1,1v-1l1,-1v-1l1,-1v-1l1,-1v-3l1,-1v-1l1,-1v-1h1v-1l1,-1l-1,1v-2l2,-2h1v-1l1,-1v-1h1l1,-1h1h-1l-1,1h-1v1l-1,1v-1h-1h1v-1l1,-1v-1l1,-2l2,-2v-1l3,-3v-2h1l1,-1v-1h1v-1l6,-6v-1l4,-4v-1h1l4,-4l3,-2l1,-2l3,-3l4,-3v-1h1l1,-2l2,-1v-1v1l1,-1h1h-1l1,-1v-1v1h-1h1l3,-3h-1v1v-1h1v-1l1,-1l2,-1v-1h1l2,-2h2v-1v1l1,-1v1h-1l-1,1l-2,1l-1,1h1h-1h1v-1h1l2,-2h1h-1v1h-1v1h-1v1h-1l-1,1v-1v1h-1h1l1,-1h1v-1h1v-1h1v-1h1l1,-1v-1v1v-1h1v-1h1l1,-1h1h-1l1,-1v-1v1h-1h1v-1h1v-1h1h-1h1l1,-1h-1v1h-1l1,-1v1h-1h1v-1l2,-1v-1h1h-1l-1,1v1h-1v-1h1v-1h1l1,-1h1v-1h1h-1l-2,2h-1l1,-1l-1,1h-1h1h-1v1h-1h1v-1h1l1,-1l-1,1h-1h1v-1h1v-1v1h-1v1h-1l2,-2h1l2,-2h1v-1v1h-1l-1,1h-1v1v-1h1v-1h1l2,-2h1v-1h1v1h-1h1v-1h1v-1h1l1,-1h1v-1l-1,1h-1l-3,3h-1v1l-2,1h-1h1l1,-1l2,-1v-1h1l-1,1h-1h1l1,-1l2,-1v-1l-1,1l2,-1v-1h1v-1h1l1,-1l-1,1h1h-1h1h-1l1,-1h1v-1h1l-1,1h-1l-2,2h-1v1h-1h1v-1h1l2,-2h1v-1h1h-1h1l1,-1h1v-1h1l1,-1l2,-1l1,-1l2,-1h-1h1l-1,1h-1l-1,1h-1h1l2,-2h2v-1h1h-1l-1,1h-1v1h-1l-1,1h-1v1h-1l-1,1h-1h1h-1h1l1,-1h1v-1h1l1,-1h1l2,-2h1l2,-2h1l1,-1h1l1,-1h1l3,-3h1l1,-1h1l2,-2h1l1,-1h1l1,-1h1l1,-1h1l2,-2h1l1,-1h1l1,-1h1l1,-1h1l2,-2h1l1,-1h1l1,-1h2l1,-1h1l1,-1h1l2,-2h1l1,-1h2l1,-1h1l1,-1h1l1,-1h1l1,-1h1l1,-1h1l1,-1h1l1,-1h2l1,-1h1l1,-1h2l1,-1h1l1,-1h1l1,-1h1l1,-1h2l1,-1h1l1,-1h2l1,-1h2l1,-1h1l1,-1h2l1,-1h2l1,-1h2l1,-1h1l1,-1h2l1,-1h2l1,-1h2l1,-1h2l1,-1h2Z"/>
<path class="sp" d="M230,79h1l2,-2h1l2,-2h1l1,-1h1l1,-1h1l3,-3h1l1,-1h1l2,-2h1l1,-1h1l1,-1h1l1,-1h1l2,-2h1l1,-1h1l1,-1h1l1,-1h1l2,-2h1l1,-1h1l1,-1h2l1,-1h1l1,-1h1l2,-2h1l1,-1h2l1,-1h1l1,-1h1l1,-1h1l1,-1h1l1,-1h1l1,-1h1l1,-1h2l1,-1h1l1,-1h2l1,-1h1l1,-1h1l1,-1h1l1,-1h2l1,-1h1l1,-1h2l1,-1h2l1,-1h1l1,-1h2l1,-1h2l1,-1h2l1,-1h1l1,-1h2l1,-1h2l1,-1h2l1,-1h2l1,-1h2l1,-1"/>
<path class="sl" d="M559,365l1,-2h2l1,2l1,3v3l1,2l1,4l1,1v1l1,2h-1h1v1l1,1v1h3l1,1h1v5l-1,1l-2,1l-2,2l-1,2l-2,2h-1l-1,2h-2v1l-1,2v1h-1l-1,2v2l-1,1h-1v1l-1,1h-2l-3,1h2l1,1h3l2,-2h1l2,-1l1,-1l2,-1l1,-1v4l2,2v1h-1l3,3l1,-1h1v-1h1l1,1h3l2,-1v2l-1,1v1l-1,2v1l1,-1v-1l2,-4h2l3,-3h1l1,1v-1h1l-1,-1v-2l1,-1v-1l1,-1h1v-1l1,1l1,-1h2l1,1h1v-1h-1h3v1h3v1h1v1h2l1,1h2l1,1l2,1l1,1l1,-1v1l1,2v1h1v-1l1,-1h1l2,2h1l-1,1h1v-1l1,1v3h-1v1h-1h1v1l1,-1v-1h1v2h-1v1l-1,1v1l-1,3v1l1,-1l2,-1v-2l1,-2h2v1l-1,1v1l2,-2h1l1,-1h2l1,-1h1l3,1v1h2v1l5,2l1,-1l4,2h5l3,-1l2,1h2l2,1l2,2h1l3,2l10,10l1,2l3,1l1,2h2l2,2h5l4,1l1,1l2,6v2l1,2v5l1,1v3l-1,1v5l-4,9l-4,4h-1v1l-1,2l-2,1l-1,3h-2l-1,1l-2,1l-1,2h-1v1l-1,2h-1v-1h1v-1l-1,1v2l-1,1l-2,4l-2,3l-4,4h-1v-2l-1,-1l-1,1v2l-2,2v1l-1,1v1h1v1h-1v3h1l-1,5v11l-1,3l-2,4v3l-1,1v5l-1,1h-1v1l-2,2l-1,3v6l-1,1v1l-2,2l-2,4h-1v1l-1,2l-2,1l-2,2l-2,4v5h-1l-4,1l-3,3v2l-1,1h-7l-1,-1v-1h-1v2h-4l-1,1l-1,-1h2l-1,-1h-1l-1,1h-5v1h1v1h-1l-4,2h-1l-1,1v1h-4l-6,2l-1,1l-7,5l-1,1h-1l-1,1h1v1h-1l-1,1h-3l1,1h-2l-1,-1v1l2,1h1l-2,2h-1v1h1v2l-1,1v9l-1,2l1,2l-1,2v2l-1,1v1l-2,1l-2,2l-2,1l-2,3l-3,3l-2,5l-3,4l-1,1l-1,2l-4,4l-3,1l-2,2v-3h1v1h1v-1h1l2,-2h1l1,-1v-2l1,-1l1,1v-2l2,-2v-2h1v-1l-3,1v-1l-1,-1h-1v-1v2l1,1h-1v3l-1,-1v2h-1v2l-2,1h-2v3h-1l-1,2v2h1l-1,1h-1v1l-3,6l-5,5h-1v1l-1,1l-1,2v1l-2,1l-1,1h-1l-1,1l-4,1h-2l-1,-1h-3l-2,1h-2l-1,-1l-3,-1l-2,-2h-5v-1l-2,-2l-2,-1v-3l1,-2v-1h1v-1l1,-1l-1,-1v2h-2v2l-1,3v1l1,1v3h-1l1,1v1l1,1l4,2l1,1l2,1l1,2v1l-1,1v4l2,1h2v5l-3,4l-2,2l-1,2v2l-4,2l-6,2l-4,1l-10,1h-7v-1h-2l1,1v2h1v1h1h-1v1h1v1l-1,2h-1v5l1,1v1l-1,1l-3,1l-1,1h-5l-4,-2h-3v-1h-1l-1,1v3l1,2v3l1,1v1h2v1l1,-1v2h2l1,-1v-1h-1h1l1,-1l2,2v3h-1l-2,1l-1,-1v-1h-1l-1,-1l-1,1h-1l-1,1l3,1l1,1h1h-1l-2,1h-1v1l-2,2v2l1,2l-1,1l1,1h-1v1l-2,1v1l1,1v1h-5v1h-1l-2,1l-2,2v2l-1,1v3l1,1h1l4,4h5l1,1v3h-1v1h-1h2v1l-4,4h-1l-1,1h-1v1l-1,1l-1,2v5l-1,1h-3l-1,-1v-1v1l-1,1h-1h3l1,1h-1l-1,1h-1v1l-1,1v2l-1,1h2v2l1,1h-2v1h3l1,2l2,2v1l-3,-1h-2l-1,1v1h-1l-3,1h-1l-1,1v4l1,1v1l-1,1h-3l-1,-1h-1l-2,-1v-2h3v2v-2l2,-1l1,-1v-1h-2l-2,2h-1l-2,2v1v-1h-2v-4h1v1l2,-2h2h-5v1h-1v2h-2v-1h-1l1,-1h1v-1h-1l-1,1h-2l-1,-1v-1h-1v-1h-1v-1h1v1h2v-1h4v-1h1l1,1v1h1l-1,-1v-3l-2,-1h-2l2,1h1v1h-1l-2,2h-1v-1h-1l-1,-1h-2v-1h1v-2h-1l-1,-1h-4l-1,-2l-1,-1h2v-2l2,1l1,1v1h2v-1l1,-1h-1l1,-1h-1v2l-1,1v-1h-1v-2l1,1v-1h-3v-1h-1l1,-1v-1h1l-1,-1v-2h1l1,1v-1h-1l-1,-1v-1v2h-1v-1l-1,-2v-2l-1,-1l1,-1h1l-1,-1v1h-2v-2h-1v-1h4l2,1l1,-1h-1v-1h-1v-1l-1,-1v2h-3v-1h-2v-1h3l-1,-1h-1v-1l1,-1v-2h-1l-1,-1h-1l1,1h-2v-1h-2v-2l-1,1h-2v1h1v1h-1l-1,-1v-1l1,-1h1v-1l1,-1h1l-2,-2l2,-1h4v-2h-1v-1h2v3l-1,1l1,1l-2,1h2v-3h1l1,1v3l-1,1h1v-6h-1v-2h2v-1h1l1,1l-1,-1h-2v-2l1,-1h1l1,-1v-3h-2l-1,-1h-1v-2l1,-1v-1l-1,-2v-1h1v-2h1l-1,-1v-3h1h-1l-1,-1v-1h2l1,2v-1l-1,-1v-2l-1,1l-1,-1v-1l1,-1h1v-1v1h-2l-1,-1h-1l-1,2h-3v-1l-1,-1h-1v-1l-1,-2v-6l1,-2l-1,-1l1,-1h1v-4l-2,-5l-1,-1v-4l-2,-2v-4h2l1,-1l-1,-2v-1l1,-1v-1l1,-1v-4l1,-1l-1,-1l1,-1v-1l2,-2v-9l1,-1v-1l1,-1v-1l-1,-1v-3l1,-1v-4l-1,-2v-3l-2,-5v-2l-1,-2v-3l2,-2v-6l-2,-4l1,-1v-1l1,-1v-7l1,-1v-4l1,-2v-9h-1l1,-2v-1l1,-1v-2l-1,-3v-5l-1,-2v-1h1v-3h-1l-1,-1v-3h2v-7l1,-2v-6l-1,-6v-7l-1,-1v-1l-1,-2v-4l-1,-2v-2l-1,-1l-3,-2l-1,-1h-1l-2,-2h-1v-2l-1,-1l-2,-1h-1l-1,-1h-1l-3,-3h-3l-1,-1l-3,-1l-1,-1h-3v-1l-3,-2h-2l-2,-1l-4,-3h-1l-1,-2h-1l-1,-2l-2,-1l-2,-2l-1,-2h-1l-1,-1v-3l1,-3l-1,-1l-1,-2l-2,-2v-1l-1,-2l-4,-4v-1l-1,-2v-1l-3,-2v-1l-1,-2v-1l-3,-5l-1,-1l-1,-3l-1,-1l-4,-8v-1l-1,-2l-1,-1l-1,-2h-1l-1,-1l-2,-4v-1l-1,-2l-2,-1v-1l-1,-1l-8,-4l-1,-1v-2l1,1l1,-1v-3l-2,-2v-1l-1,-2v-1h-1l1,-3v-1l3,-4v-1l1,-1l2,-1l2,-2h1v-1h1v-1l1,-3l1,-1v-1l-1,-1v-3l-1,1v4h-1v-2l-1,1v1l-1,1h-1v-1l-2,-1l-1,-1h-1v-2h1v-7l-1,-2l1,-1h1l1,-1v-1l1,-1h1h-1v-1l-1,-1l3,-3l1,-2v-6h2v-1h1l2,-1h2l2,-1l1,-1v-2h-1l-1,-1l2,-2l2,1v-6h1v-1l1,1v-1h3v-1l2,-2h1v-1h-1v-1h2v-1l1,-1v-1l1,-1v-1l2,-2h-2v-2l-1,1v-2h-1h1v-1l1,-1v-7l-2,-2l2,-1l1,-1l-1,-2l-1,-1v-1h1v-2l-1,-1l-1,-2v-1l-2,-2v-1l1,-1v-2h1v2l3,-3v-1h1v-1l-2,-2v-2l1,-1l1,2h1l1,1v1l1,1h-1v1h1l1,-1l-1,-2v-2h-1l1,-1h1l4,-3l1,-2l2,-2h2l1,-1l-1,-1v-1l1,-2v-1h-1l1,-1l1,-2v-1l2,-1l1,-1l2,-1l1,-1l3,1h1h-2v1h1v1v-1l2,-2v-2h7l5,-4l3,-1h1l1,-2v-1h2v-1l2,-1h2l2,1v1l1,1l-2,1v1h-1v1l-4,1v3l1,1h1v1h-1l1,1v3l-2,1v1l-1,1l-1,2l1,2v1l1,1v2h4l2,-2v-4l-1,-2v-1l-2,-2v-4l2,-1l4,-1l5,-2h1v-1h3v-1l-1,-1l-3,1v-4h1l1,-1l1,1v1l1,1v2l1,1h1l2,-1l2,1h2l1,1l2,1l1,1v4h1l2,1l3,-1h4l1,-1h8v1l2,2h3l1,1h4l6,-3h3l1,-1h-5v-1h9l2,-1v1l3,-1l3,1l4,-1l-1,1h-2l-2,1h-4v1h1v1h1v1l-1,1h1v-2l1,1l1,2l1,1l1,-1v1v-2h1v1h1l1,1v1h1v-1h1v-1h1l1,2h1l2,1l1,1h1l-1,1h-1v2h-1v2h-1v1l-3,1h1l1,1l1,-1h6l1,-1h2l1,1h1l2,2v-1l2,1l2,2l4,2l1,2l2,2v2l-1,2v3l-1,1l1,-1v-1l1,-1v-1h4l4,4l2,1h1v4l1,-1v-1h5l5,2v-1l1,-1h8l4,1h2l1,1v2l-1,1h1l1,-2v-1h1l3,2h2l3,1l4,4h1v2l1,-1l2,2v2h1v-2h1l1,3v1Z"/>
<path class="sl" d="M920,229l1,1v1l2,2v1l2,2v1l2,2v1l1,1v1l2,2v1l1,1v1l1,1v1l1,1v1l2,2v1l1,1v1l2,2v1l1,1v1l1,1v1l1,1v1l1,1v1l2,2v2l1,1v1l1,1v1l2,2v2l1,1v1l1,1v1l2,2v2l1,1v1l1,1v1l1,1v1l1,1v2l2,2v2l1,1v1l1,1v2l1,1v1l1,1v2l1,1v1l1,1v2l1,1v1l1,1v2l1,1v1l1,1v2l1,1v1l1,1v2l1,1v2l1,1v2l1,1v2l1,1v2l1,1v2l1,1v2l1,1v2l1,1v2l1,1v3l1,1v2l1,1v2l1,1v3l1,1v3l1,1v3l1,1v3l1,1v3l1,1v4l1,1v3l1,1v3l1,1v5l1,1v4l1,1v4l1,1v5l1,1v6l1,1v6l1,1v7l1,1v8l1,1v10l1,1v15l1,1v44l-1,1v16l-1,1v9l-1,1v9l-1,1v6l-1,1v6l-1,1v6l-1,1v4l-1,1v6l-1,1v4l-1,1v3l-1,1v4l-1,1v4l-1,1v3l-1,1v3l-1,1v3l-1,1v3l-1,1v3l-1,1v2l-1,1v3l-1,1v2l-1,1v2l-1,1v3l-1,1v2l-1,1v2l-1,1v2l-1,1v2l-1,1v2l-1,1v2l-1,1v1l-1,2v2v-1l-1,1v1l-1,3l-1,1v3l-2,3v1l-1,3l-1,1l-1,2v2l-1,1l1,-1v-1v1h-1v1l-1,2v1l-1,2v1l-2,4l-1,1l-1,2v1l-1,1v2h-1v1l-2,2v1l-1,1v1h-1v2h-1v1l1,-1v-1l-8,16l-2,2v1l-1,1l-2,3l-3,3v1l-2,3l-1,1l-1,2l-4,4l-1,2l-2,2l-2,1v1l-2,2l-2,1v1h-2v1v-2l-2,2v-1h-1v-2h-1v-1h-1l-2,1h-1v-1h-2l-2,2v-3h1v-3l1,-1v-1h-1v1l-1,1l1,-1v-1l2,-2l1,-2v-1l1,-2v-1l1,-1v-1h1v-1v1l1,-1v-1l2,-1v-1l2,-3v-1l1,-2l1,-4l2,-4l1,-3l3,-6l2,-7v-4l1,-2l1,-5l1,-1l1,-2v-2l1,-1v-2l1,-1l1,-3v-2l1,-1l1,-2v-1l1,-1l1,-2v-2l1,-3v-2l2,-3v-1l2,-4v-1l1,-1l1,-3v-2l1,-4v-3l1,-5l1,-3v-5l2,-11v-7l1,-3l1,-2v-2l1,-3l1,-1v-2l1,-4v-1l2,-2v-1l3,-7l1,-5l2,-4l2,-3v-2l3,-3v-2l1,-2l1,-3v-3l1,-2v-18h1h-1v1l2,-2v-20l-1,-2v-2h2l1,-1h-2v-1l-1,-1v-2l1,-1v-2l-1,-2v-6l-1,-2v-1l-1,-2v-3l-1,-2v-4l-1,-3l-1,-2v-1l1,2l-1,-1v-1l-1,-1v-5h-1v-5l1,4v-3h-1v-1l-1,-2v-3h1v-1v1v-1l1,-1v-5l1,1v1v-1h1h-1v-2h-1v-3h1v-3l-1,-1v-2l1,-1v-15l-1,-2v-4h-1v-1v1l-1,-1v-1l-1,-1v-3h-1v-1v1v-2h-1v-2h-1l1,2v1h-2v-1h-1v-1v1h-1v-1v1h-1v-2l-1,-1l1,1v2h-1v-1v1h-1v-1v1h-1v-1h-1v-1l-1,-2v-2l-1,-1v-4l-1,-1h1l-2,-2v-1l-2,-4l-2,-2l-3,-1v-1h1h-1v1l-2,-1h-7l-1,1v1h-1l-2,-1l-2,1v1h-1l-1,1h-2l-2,1l-1,1h-1l-3,-3h-2v-1l-1,-1v-1v1h-1l-2,-1l-1,-1h-1l-1,-1h-1v1h3v1l-3,-1h-2v-1h-1v1h-4l-3,1h-2l-2,2h-2l-10,-10l-2,-3l-4,-5v-1l-1,-1h-1l-1,-1v-1l-3,-3l-1,-2h-1l-1,-2l-1,-1l-3,-1l-1,-1l1,-1l-1,-1v-1h-1l-1,-1l-1,-2v-1l-2,-2v-1l1,1v-1h1v-1h-2v-2h1h-1l-1,-1v-2l-1,-1v-1l-1,-1h-1v-3h-1l-1,-1v-1l-1,-1l-2,-1l-2,-3v-1l-1,-1v-1h-1v1l-1,-1v-2l-1,1v-1h-1v-3l-1,1v-1l1,-1h1l-1,-1v1h-1v-1l-1,-1h3v-1h-3v1h-2v-1l-1,-1h-2v-2h-1l-2,-2v-1l1,-1v1h1v-1h-1l-1,-1v1h-1v-4l-1,-2h1v-1v1h1v1h7l-1,-1h-4l-1,1l-1,-1l-1,-2v-1l-1,-1v-1h-1v-2l-2,-2l-1,-2h-1l-1,-1v1v-1l2,-1l1,-2l1,-4v-16l-1,-2l-1,-3v-1l-1,-3l-3,-3h1h-1l1,-3v-1l-1,-1v-1l-1,-1l-1,-2v-1h-1l1,1h-1l-2,-4h-1v1l-1,-3v-7h1v-3l1,-1v-1h-1v-1l1,-1v-3h-1v1v-1l2,-2l1,-2l1,-1v-2l-1,-2v-7l1,-1h1l1,-1v-8h2l3,-1h1l1,-1l1,-2l1,-1h1v-8l-3,-3v-1l-1,-1l-1,-3v-4l-1,-2l1,-2v-2l1,-1l2,-1h1l1,-1v-1l-3,-9h1l1,-1v1l3,3l2,1l1,1h2l1,1v-1l1,1h2v-1v1l1,1h1v1h2l1,1l1,-1v-1l1,-1h2v-2h1l1,-1l2,1h1l1,1v-1h1l1,1l1,-1l3,1v1h1l2,2v-1h1v-1l2,2h1l-1,-1l1,1h1l1,1v1h2v-1h1l4,4h1l-1,-1h1v1l1,1v1l1,1v1l1,1v1l1,1h1v1l2,1v1l2,2v1l1,1v2l1,1v1l3,3h1v1l1,1v-1v1l2,2h1v1l4,4h2l1,1v1l1,1h1l1,1v1l2,2h1v1l1,2l3,3v1l8,8l2,4l1,1h1l-1,-2l-1,-1v-1l-1,-1v-1h-1l-2,-4l-1,-1v-1l-1,-1v-1l-1,-1l1,1l-1,-1l1,1v1h1l1,1v1l1,1v1h1v1l1,1v1h1Z"/>
<path class="sp" d="M920,229l1,1v1l2,2v1l2,2v1l2,2v1l1,1v1l2,2v1l1,1v1l1,1v1l1,1v1l2,2v1l1,1v1l2,2v1l1,1v1l1,1v1l1,1v1l1,1v1l2,2v2l1,1v1l1,1v1l2,2v2l1,1v1l1,1v1l2,2v2l1,1v1l1,1v1l1,1v1l1,1v2l2,2v2l1,1v1l1,1v2l1,1v1l1,1v2l1,1v1l1,1v2l1,1v1l1,1v2l1,1v1l1,1v2l1,1v1l1,1v2l1,1v2l1,1v2l1,1v2l1,1v2l1,1v2l1,1v2l1,1v2l1,1v2l1,1v3l1,1v2l1,1v2l1,1v3l1,1v3l1,1v3l1,1v3l1,1v3l1,1v4l1,1v3l1,1v3l1,1v5l1,1v4l1,1v4l1,1v5l1,1v6l1,1v6l1,1v7l1,1v8l1,1v10l1,1v15l1,1v44l-1,1v16l-1,1v9l-1,1v9l-1,1v6l-1,1v6l-1,1v6l-1,1v4l-1,1v6l-1,1v4l-1,1v3l-1,1v4l-1,1v4l-1,1v3l-1,1v3l-1,1v3l-1,1v3l-1,1v3l-1,1v2l-1,1v3l-1,1v2l-1,1v2l-1,1v3l-1,1v2l-1,1v2l-1,1v2l-1,1v2l-1,1v2l-1,1v2l-1,1"/>
<path class="sl" d="M770,79h-1v-1h-1l-1,-1h-1v-1l-3,-1l-1,-1l1,1l-1,-1h-1v-1h-1l-1,-1h-1l-3,-2l-1,-1h-1l-1,-1h-1l-2,-1v-1h-1l-2,-1v-1h-1l-1,-1h-2v-1h-1h1l1,1h1l2,2h1l1,1h1l2,2h1l1,1h1l2,2h1l1,1h1l1,1h1l3,3h1l1,1h1l2,2h1l1,1ZM740,62v-1h-1l-1,-1l-2,-1h-1h2v1h1l1,1h1h-1h1h-1l-1,-1v1h2v1v-1v1h1l1,1l-1,-1h-2v-1h-1l-1,-1h-1l-1,-1h-1l-1,-1h-1l-1,-1l1,1h1h-1v-1h-2v-1h-1h1v1l-2,-2h-2v-1h-1l-1,-1l1,1l-1,-1h-1h1l1,1h1v1v-1h-2v-1h-1h1h-1l-1,-1h-2v-1h-1l-1,-1h-1h1l1,1h1l1,1l-1,-1h-1l-1,-1l1,1h1h-1l-1,-1h1h-2l-1,-1h-1l-1,-1h-2v-1h-1h1l1,1h1h-1l-1,-1h-1l-1,-1h-1h1h-1h1h-1l-1,-1l1,1h2v1v-1h-1l1,1h1l1,1h2l1,1h1l1,1h1l2,2h1l1,1h1l1,1h1l1,1h1l1,1h1l1,1h1l1,1h1l1,1h1l1,1h1l1,1h1l1,1ZM709,46h-1v-1h-1h1l1,1h1Z"/>
<path class="sp" d="M741,62h1l1,1h1l2,2h1l1,1h1l2,2h1l1,1h1l2,2h1l1,1h1l1,1h1l3,3h1l1,1h1l2,2h1l1,1M710,46l1,1h1l1,1h2l1,1h1l1,1h1l2,2h1l1,1h1l1,1h1l1,1h1l1,1h1l1,1h1l1,1h1l1,1h1l1,1h1l1,1h1l1,1M707,45h1l1,1h1"/>
<path class="sl" d="M480,322h-1h1v-1ZM454,306v2h-5l1,-1h2l1,-1ZM442,308v1l-1,-1h-1h1ZM478,324h-1l1,-1h1v1ZM447,250h-1ZM449,250h-1ZM448,254v1h1h-2v-1ZM437,250v-1l2,1h2v1h-1l-2,2h-7v1h-1l-1,-1h-1v-2h-1l1,-1v-1h8ZM442,252h-1h2ZM226,82h-1Z"/>
<path class="sp" d="M225,82h1"/>
<path class="sl" d="M408,105h1l1,-1h2l-3,1h-1l-1,1h-1l-3,1h-5l1,-1h2v-1h7v-1h1ZM439,86v1h-1v-1h2ZM397,108v-1h1h-1ZM422,102h-1v-1ZM417,101v1h-1ZM425,102h-1ZM380,135v-1ZM380,138h-1h1l1,-1v-1v1ZM378,139h-1ZM373,142h-1h1l2,-1v-1l-1,1ZM321,199h-1v-1v1ZM321,198h-1v-1h1ZM331,207l-2,1l3,-3ZM261,185h-1v-1h1ZM225,201h-1l1,-1ZM227,199h-1l1,-1l2,-1l-1,1ZM221,205v1v-1l3,-3v-1l-2,2ZM240,190h-1l2,-1h1h-1ZM219,213v-4l1,-2l1,-1l-2,6ZM135,186h-1ZM134,191v-1ZM136,192v-1h1h-1ZM135,187v-1ZM136,185l1,1v-1v1h-1ZM139,188l-1,1v-1ZM202,103v1v-1v1ZM201,104v1ZM200,106h-1h1h-1v1v-1h1v-1h1h-1ZM416,102v-1ZM396,112l-1,1ZM385,123l2,-2v1ZM372,142h-1ZM323,211v-1ZM327,209h1ZM329,209v-1ZM325,210h1ZM333,168l-1,2v-2ZM321,211h1ZM335,192v-3l-1,-1h1v1ZM280,181v1ZM283,178h-1ZM287,177h-1ZM279,179h-1ZM281,181h-1l1,-1v-1v1ZM306,179h-1h2v-1h1ZM194,111h-1ZM196,109v1h-1ZM197,109v-1ZM201,105v-1ZM437,87h-1ZM607,841h2v1h-1h1v1h1v-1v2h1v1v-1v2h-2v-2h-1l-3,-3h-1l-1,-1h3v1ZM883,576h-1v-1h1ZM844,496v-1h1v1ZM73,670h-1ZM462,251h-1l1,-1ZM498,818l1,1h1v1h1v-1h2v2h1h-1l-1,1h-1l-2,1v1l-3,-1l1,1l-1,1v-1l-1,1h-1v-2l1,-1h1v-1h1h-1v-1l2,-1l-1,-1ZM490,820h1l1,-1l1,1l1,-1h2l-1,1v1h-1l-2,2h-2v1h-1v1h-1l-1,-1l2,-2h1v-1v1h-1l-1,-1h2l-1,-1v-1h-1h1ZM486,822h1v1h-1l-1,-1ZM500,823v1l-1,-1ZM491,819h-1v-1h1ZM493,825v-1ZM316,250h1v-1h1v1h-2v-1ZM327,246h-1ZM328,246l1,-1v1ZM454,153h-1ZM451,249h-1ZM449,250h-1l1,-1h1ZM452,247h-1ZM394,227l-1,-1v1l-1,-1h2ZM392,226h-1v-1h1ZM389,226v1h1h-1ZM469,262h-1l1,-1ZM772,93l-1,-1h1ZM737,68h-1l-1,-1h1ZM757,81h-2l-1,-1h-2v-1h-2v-1v1l-1,-1h-1l-1,-1h1v-1l-1,-1h-1v-1h-2l-1,-1v-1h1v1h2l-1,-1l1,1h1h-1l-1,-1h-1v-1h-1v-1h-1l-1,-1h-1l-1,-1h-1l-2,-2h-3v-1h-1v1v-1h-1l-2,-2h-1v-1h-1l-2,-2h-1h1h-1h1h-1l1,1l-1,-1h-1v-1v1h1l2,2h1h-1l-1,-1h-1l-2,-2h-1v-1h-1v-1v1h-1v-1h-1v-1h-2v-1h-1l-1,-1h-1v-1h-1h1l-2,-1h-1h1v-1h-1h2v1h3v1h1v1h1v1h3v1h3l1,1h1v1h1l1,1v1h1h-1h1l1,1h1h-1v1v-1h-1l2,1h1l2,1h1l1,1h1l1,1l2,1l1,1l2,1l1,1l2,1h1l1,1h1l1,1h1v1h1l1,1h1h-2v-1h-1l1,1l3,1l2,2h1l1,1h1h-1h2v1h1l1,1h1l1,1h1v1h1v1h1v1l-1,-1l2,2h1v1h1l1,1h-3l-1,-1h-2v-1v1h-1v-1v1h-1v-1h-2v1h-1l-1,-1h-2l1,1h-1v-1h-1v-1h-1h1h-1v-2h-1h1l-1,-1h1l1,1h1v-2Z"/>
<path class="sl" d="M742,72h1v1v-1h-1l-1,-1ZM712,50h-1ZM707,47h-1v-1h1h-1ZM707,47h1l1,1h1v1h1h-1v-1h-2v-1h-1h1h-2v-1ZM706,46h1ZM713,51h-1ZM714,52l-1,-1h1ZM712,51h1h-2v-1h-1h2ZM712,50h-2v-1l1,1ZM717,57h-1ZM727,62l-1,-1h-1h1ZM720,58h-2v-1h-1h2v1ZM722,60h1v1l-1,-1h-1ZM723,60h-1v-1v1ZM707,51h1l1,1h-1l-1,-1h-1v-1v1h1l-1,-1h1ZM715,56v-1ZM713,54h1v1h2v1v-1h-3v-1h-2v-1h1ZM708,52l1,1ZM712,54h-2v-1ZM712,55h-1ZM732,67h-2v-1h-1l-1,-1h-1h1v1h-1v-1h-2l-1,-1v-1h-1h1h-1v-1h1h-1h3v1h1l1,1h1l1,1h1v1h1h-1h1l1,1h-1h1ZM767,87l-1,-1h-1h1ZM889,198v1v-1l-1,-1ZM480,306v-1h1l1,-1v1ZM478,314l-5,1l-2,-1l-1,1l2,-1l1,-1h1v-3h-1v-1h4v-1h2l-1,1v4ZM838,154v1v-1h-1ZM838,150h1l1,1v1h-1v-1h-1l-1,-1v1v-1h-1v-1h1v-1v1h1ZM841,151l-2,-2h1l1,1ZM837,153h-1v-1h-1h2ZM795,201v2h-1l-2,-2h2l1,-1h1ZM808,200v1l-1,-1v-1h1v-1l1,1v1ZM808,205h-1v-4h1v1l1,1v1ZM801,204v1l1,1h-2l-1,-1v-2ZM791,203v-1h-1v-1l1,1ZM788,203l-1,1h-1v-1h1ZM786,199v-1l-2,-1l1,-1l1,1v1ZM839,865h1v-1v1ZM856,367v-1l-3,-1h3v1ZM956,445v-1ZM954,456l-1,1v-3h1v1ZM841,137h-1v-1ZM477,290l-1,-1v-1h1v1ZM476,291h1ZM475,293h1ZM479,285h-1v-2h1v-1v1ZM466,259h-1v-1h1ZM465,258h-1l-1,-1h2ZM777,170l1,1h2v1h-1l-1,-1h-1ZM720,138h-1v-1h1ZM677,119v1l-1,-1ZM703,127l-1,-1h-1h2ZM699,127l-2,-1l-1,-1l2,1ZM694,126h-1l1,-1v1h1ZM698,127h-3v-1h1ZM714,132h2l1,1h-3l-1,-1ZM327,335v1v-2h1v1ZM305,345h-1l-1,-1v-1h2l-1,1ZM301,329l-1,-1h1ZM326,336h-1l1,-1ZM716,49h-1ZM722,52l1,1h-1v-1h-1ZM625,16h-1ZM955,421h-1v-1h1ZM777,88v1h1h-1v-1h-1ZM768,81v-1ZM767,80l1,1ZM768,80h-1ZM768,81h1ZM774,86l1,1h-1ZM417,299v1h-1v-2h1ZM463,256h-1ZM403,297h-1v-1ZM413,300h-1l-1,-1l-2,-1h1v1h2ZM830,131v1l-1,-1ZM276,246v1v-2h1v-1h1l-1,1ZM154,257v-1ZM125,284h-1v-1ZM142,237v-1ZM143,211v-3h1v1h-1h1l-1,1ZM131,220v1v-1l1,-1v-1v2ZM147,210l-1,2h-1v-1l2,-2h1ZM122,218v-1ZM279,239v1ZM240,263h-1l2,-1h1h-1ZM144,242h-1l1,-1ZM146,195v-1ZM143,230l-1,1v-1h1v-1ZM135,242v1l-1,-1ZM134,242v-2h-1l3,-3l-2,3v1ZM815,264v1v-2ZM888,189h-1v-1v1ZM886,188v-1ZM347,254h3l1,1l3,1l1,1l-1,1h-3l-1,-1h1h-1l-1,1h-2v1h-1l-1,-1l-2,1l-1,-1v-1h-1v-1h-3l2,-2h6ZM842,140v1h1h-1v-1h-1Z"/>
<path class="sl" d="M878,180h-1v-1ZM878,175v1l2,2v1h1v1h1v1l1,1v1h1v1h1h-1l-3,-3v-1h-1l-4,-4h-1v-1h-1l-1,-1v-1l-1,-1l1,1v-1l2,2h1v1h1l-1,-1l1,1ZM851,151l2,2v1h1v1h1v1l4,4v1h-1v-1l1,1v1h-1v-1l-1,-1h-1v-1l-1,-1v-1h-1v-1v1v-1h-1v-1h-1v-1l-1,-1h-1v-1h-1v-1h-1v-1l-1,-1l1,1v-1h1l1,1v1ZM857,161v-1ZM846,148l1,1ZM721,65h-1v-1h-1h1ZM723,62v1h1h-1h1v1l1,1h2v1h1v-1h-1h1l1,1h1v1h2l1,1h1v1h1v1h1l1,1h1l1,1v1h1v1h1l1,1h-2v-1v1l-1,-1h-1h1v1h-2v1h-2v-1h-1l-1,-1h-2l-1,-1v-1h-2v-1h1v1h1h-1v-1h1v-1v1h-1v-1h-1v-1h-1h1v-1h-3v-1h-2l-1,-1h1h-1v-1h-1l-1,-1h-1l-1,-1h2l1,1h2v-1h-3v-1h1h-1h1h-1v-1h-1h2l1,1h1h-1v-1h-1h1h-1h1ZM637,22h2v1h3v1h4v1h1h-1h2v1h1h-1h1h-1h1v1h1h-10l-1,-1h-3v-1h-3l-3,-1h-1h1v-1h-4v-1h-5v-1h-1h4v1h2l-1,-1h-3v-1h-6v-1l1,1h1h-1v-1h-1l2,1v-1h-1h2l1,1v-1v1v-1h-3v-1h-1h2v1h3l1,1h1l1,1h3v1v-1h-1h1h-1v-1h-1h1l1,1h1v-1h1v1h3l1,1l-1,-1h-1h2v1v-1h1v1h1v-1h-1h1l1,1ZM275,276l-1,1h-1l1,-1h1l1,-1ZM279,275h-1h1v-1ZM391,242h1v2l-1,1l1,1l-1,1v2l-1,1h-1v1l1,1h1v1l-1,1l-1,-1h-5v1h-6v-1l-1,1h-2l-1,1h-1l-1,-1h-1l-2,-1v-1l1,-1h5l1,1h7l1,-1h2v-1l-3,-3v-1l1,-1v-1h-1l-2,-1h-2l-1,-1h1v-1h7l2,1h2ZM383,249l-1,1l-2,-1h-1v-1h2l1,1ZM385,240h-2v-1h1ZM830,332v-1h1v1ZM832,332v1h-1v-1ZM833,332h-1v-1h1ZM833,329h1ZM831,329v1v-2ZM830,326v1l-1,-1ZM472,299v-1l1,-1v2ZM885,181v1h1v1h1h-1v-1h-1h1h-1v-1l-1,-1ZM888,185l1,1l-1,-1v-1h-1ZM884,180v-1v1l-1,-1v-1h-1h1l1,1ZM885,181l-1,-1ZM878,173l1,1l-3,-3h1v1ZM777,84h1h-1h1h-1l-1,-1h-1v-1h-1h1v1h1ZM781,86v1v-1h-1v-1h-1l1,1ZM773,81h-1ZM765,77l-1,-1h-1h1ZM766,77v1v-1h-1ZM840,139l1,1v1l3,2v1h1l1,2l1,1h-1l-1,-1v-1h-1v-1h-1v-1h-1v-1h-1v-1h-1l-1,-1h1v-1v1v-1l-1,-1ZM793,110v1l-1,-1ZM480,279v1l-1,-1h-1v-1h-1v-2l1,1h1v1h1ZM476,266h-2v-2h1l2,2ZM474,268h-1l-1,-1v-2h2v2ZM477,268h-1ZM514,74h-1ZM513,73v1h-1v-1h1l-1,-1h1ZM462,252h-1ZM464,253h-1ZM22,645v1v-1h-1ZM23,650v-1ZM22,647v-1ZM24,650v1v-1h-1v-1ZM14,566v1ZM14,568v1ZM16,572v1l-1,-1ZM11,561v1v-2ZM12,566v-1ZM28,637v-1ZM12,561v-1ZM30,641v1ZM29,640v-1ZM37,635v1v-1h-1ZM35,635v-1ZM40,658v-1h-1ZM22,626v-1ZM23,632h-1ZM20,628v-1ZM21,633v-1h-1v-1l1,1ZM960,429h1v1l-1,2v1l-1,-1v-1l1,-1Z"/>
<path class="sl" d="M316,431l-1,1l-1,-1l1,-1v-1h1l1,-1v1l-1,1ZM325,394v-1ZM236,420h-2v-1l1,-1h2v1ZM243,421h-2l2,-2h1v1h-1ZM228,419h-2v-2h2v1ZM235,425v-1v1h1ZM229,414v1l1,1l1,2v1l1,1v2l-2,1h-3v-1h1l2,-2v-1l-2,-2v-2h-1v-1h1ZM234,417h-2v-1h2ZM390,254l1,-1v-1h-1l-1,-1v-1h1l1,-1v-2l1,-1l-1,-1l1,-1v-2h-1h1v-1h1v-1h1l2,1l1,-1h3v1h2l1,1h3v-1l1,1v2h5l-1,1h-3v1h6l4,2v1h1l-2,2h-1v1h-1v-1h-11v1h-1l-2,1l-1,-1h-3l-1,1v1l-2,2v1h-2v-1h-1v-1ZM476,273l-1,1v-4l1,1v1ZM578,6h-1h3v1h1h-1v-1l1,1h1h-2v-1h-1h1v1v-1v1h4l2,1h1h-2l-2,-1h-2l-2,-1v1h-1v-1h-1h1l1,1h-1l-1,-1h-1h1v1h7l1,1h4l1,1h-1h1h-1l-1,-1h-5l-1,-1h-1h1l1,1h5l1,1h4v1h4l1,1h1h-4l-1,-1h-3l-1,-1h-4l-1,-1h-1l1,1h1h-3l-1,-1v1h1h-1h3l1,1h5l3,1h4l2,1h1h-4v1h-2l-2,-1h-10l-1,-1h-1h1v1h1h-2v2h-3v1h-2v-1v1h-4v-1h1h-1l-1,-1h-1l1,1h-1h1v1h-4l-1,-1h-1l2,1h-4l1,1h3v1h1h-1v1h1h-1l1,1h-1l-1,1v-1h-2l2,1h-3l2,1v1h1v1v-1h-1v1h1v2l-1,1h-1l-1,-1h-1l1,1h2l1,1h-5v-1h-1v1h-1l-3,-1h1v-1h1h-5l-1,-1h1v-1h-1l-1,1h-7l1,-1h-5l-1,-1h-1v-1h-1h2l-1,-1l-1,1h-1v-1h-3v-1h-1h1v-1h1h-1l-1,1v-1h-2l-1,-1h-2v-1h-1h5v-1h-3l-1,1h-1v-1h2v-1h2v1h1v-1h-3l-1,-1l1,1h1h-3v1h-2v-1h-1v-1h-1h1l1,-1h1h-2v1h-2l-1,-1h-2v-1h5v-1h1h-1l-2,1h-4v-1h1h-3l1,-1h1h-1v-1h1h-1h1v-1h6v-1h1h-1l-1,-1h-11v-1h5l1,1h4v-1h-1h1h-4l-1,-1l-1,1h-1v-1h-1h1h-2v1h1h-5v-1h1h-1h1l1,-1h-1h1h-4v-1h-6l-1,-1h-12l-1,1h-7l1,-1h1h-3v1v-1h1h-1v1h-1l1,-1h44l1,1h15l1,1h10l1,1h9l1,1h7l1,1h5l1,1h3Z"/>
<path class="sp" d="M475,1h2l1,-1h44l1,1h15l1,1h10l1,1h9l1,1h7l1,1h5l1,1h4"/>
<path class="sl" d="M517,5l1,1h-7v-1h1h-1h5ZM523,6h-1ZM514,4h-1ZM509,2h-1v1h-1v-1h-1h2ZM475,1h-1ZM589,9v1h1h-3l-2,-1h-1h4ZM576,15h-1ZM551,24v1v-1h-2h3ZM519,4h-1h2ZM686,39h-1l-1,-1h1v1ZM688,40h-1l-1,-1h1v1ZM682,37l1,1h-1ZM683,38h1h-1h1h-1l-2,-1h1ZM684,38h-1v-1ZM766,77h1v1h1l1,1h1l1,1h-1v-1h-1l-2,-2h-1l-1,-1h-1v-1v1l-1,-1h1v1h1h-1v-1h-1h1v1h1ZM767,78l-1,-1h-1l-1,-1h-1l-2,-2h-1l-1,-1l-2,-1l-1,-1l-2,-1l-1,-1v1h1v-1h-1l1,1l-2,-2h-1l1,1h1h-1l-2,-2v1h1l-1,-1h-1h1h-1h1l1,1h1l1,1h1l2,2h1v1h2v1h1l-1,-1v1h1l1,1h1v1h1l1,1h1v1h1ZM764,76h1l1,1h1v1h1h-1v-1h-2l-1,-1v-1ZM770,79l2,2l-2,-1l-1,-1ZM770,79h-1l-1,-1h-1h1l1,1ZM771,80l-1,-1v1ZM767,77v1ZM769,79h-1v-1h-1h1ZM768,78h-1l-1,-1l1,1ZM763,75h-1v-1h-1h1v1ZM318,222h3l1,-1v1h2l2,-1v1h4l1,1l1,-1v1h1l1,2h1l1,1l2,-1h1v1l5,1l2,2h2v-1l1,1h1v1h1h-2l1,1h1v-1l2,2h3l1,1h4l1,1v1h-1v1h7l2,2h3v1l-1,1h-3l-2,1h-1v1h-1v-1l-1,1h-12l-1,1h-4l-2,1l1,-2l3,-2h1v-2l-1,-1h-6l-2,-1l-1,-1v-3h-1v-1h-1l-3,1l-5,-1l-2,-1h-1v-1l-1,-1v1h-5v-1v1h-5l-1,-1l1,-1h1l1,-1h-1v-1l-7,1l-1,1h-1l-1,1h-1v1l-1,1h-4v1h-1v1h-1l-1,1l-2,1v-1h-2v1l-1,-1h1l2,-1h1l1,-1v-2l2,-2h1l6,-3l5,-1l2,-1h2ZM347,228h-1v-1h2v1ZM345,226h-1v-1h-1h2ZM341,224h2v1h-3v-1ZM346,227h-1v-1h1ZM310,234h-1l-1,1h-2v-1h-1h2l-1,-1l1,-1v-1h2v1h1v1ZM335,224h-1v-1h-1h1ZM853,147h1v1h1h-1v-1ZM854,147h-1v-1h-1v-1v1l1,1ZM852,146v-1h-1v-1v1h1ZM845,139h-1v-1ZM839,133h-1l-1,-1h1v1ZM840,135v-1h-1h1ZM843,137v1v-1h-1v-1h-1l-1,-1h1l1,1v1ZM846,140l-2,-2ZM846,140l-1,-1ZM840,135l-2,-2v-1h-1h1v1h1l1,1ZM856,150h1l-1,-1ZM859,152l1,1l-2,-2l-2,-1v-1l-2,-2v1l2,1v1h1v1h1v1ZM910,399h-1v-1ZM332,383h-1v-1h1ZM155,666l-1,1v-1ZM355,692h-1l1,-1ZM446,829l1,2v3l1,2v3l1,2v2h-5v-1h-1v1h-2v-1l-1,1h-1l-1,-1h-5l-1,-1h2l1,-1l1,1l1,-1h1v1h2l-3,-3v-1h1l-1,-1h1v-1l1,2v1h-1l1,1h1v1h5v1h1v-1h1h-1l-5,-2l-1,-1v-1l1,-1h1l2,-1l-1,-1h-2l-1,1h-1l-1,-1v-2h1v-1h-2l1,-1l1,1h1l1,-1v-1h1l2,1l1,-1h1ZM457,844v1h-5v-1h-1l1,-1h4ZM404,765h-3l-1,-1v-11l2,1h1v1h1v3l-1,1l2,2v2h-1v1ZM410,806v4h1v2l-1,1v-1h-1v-1l-1,-1h1v-2l-1,1v2l-1,1l-1,-1h-1v-1h1v-1h-1v-1h2l-1,-1v-1l1,-1l-1,-1h3ZM403,804l-1,-1v-4h1l1,1l1,2v1l-1,1Z"/>
<path class="sl" d="M417,832h4l2,2h1h-2l-1,-1h-3l-1,-1h-1v-1h-1h2ZM408,803h-2v-1l-1,-1h-1v-1l-1,-1h1l1,-1l2,2v1h1v1ZM426,835v1v-1h1l1,1h1l1,1h-1v1l-1,1h-1v-2h-1v1h-2v-1h-1v-1h-2l1,-1h3v-1v1ZM412,823l1,2h2v1l-1,1v1l-2,-2v-1h-1l1,-1ZM444,843l4,1l1,-1h1v2h1v1h1l1,1v1h-1v-1h-2l-1,-1v1v-1h-1v-1h-2v1h1v1h-1l-1,-1v-1h-2v-2ZM434,838l1,1h1v1h-1l-1,-1v1l-1,-1l-1,1v-1h-1l-1,-1h1v-1h1l1,1ZM406,773h-2v1h1v1l1,1v1h1v2l-1,1l-1,-1v-1h-1l-1,-2h-1v-1h-1l1,-1l-1,-1h3l-1,-1v-1h2l1,1ZM411,775l-1,1h-1l-1,-1v-1l1,-1v-1h1l1,1h1v1ZM399,777l-1,-1h1ZM408,817v1l-1,-1v-1h1ZM406,805l-1,1v1h-1v-1h-1v-1h1l1,-1ZM404,798h-1v-1h1ZM399,767h-1ZM407,776v-1h-1v-1h1v1ZM413,821v1h-2v1h-1v-2h2l1,-1ZM409,814l-1,1h-1v-2h2l1,1ZM404,768l1,1h-3v-1h1ZM417,825h-2v-1h-1h2ZM405,782h-1v1l-1,-1l-1,1v-1l1,-1v-2l1,-1v2l1,1ZM456,849h-1ZM460,845h-1h1v-1ZM438,843v1h2v-1l1,1v1h-3v-1h-3v-1h2ZM457,848h-1v-1ZM762,276h-1v-1l1,-1h1l1,1h-1ZM777,293v1l-1,-1h-1v-1l-1,-1h1l-1,-1h1v1l1,1ZM765,277h-1v-1ZM779,284h1l1,1l-1,1l-1,-1ZM771,293h-1v-1h1ZM770,280h1h-2l-1,-1h1ZM779,281h-1v-1ZM779,292h-1v-1h1ZM220,86l-1,1h-1l-1,1h-1l-2,2h-1l-1,1h1l2,-2h1l3,-3Z"/>
<path class="sp" d="M212,91h1l2,-2h1l3,-3"/>
<path class="sl" d="M212,91h1v-1v1h-1l-1,1h-1v1h-1v1h-1h1h-1v1h-1l1,-1h1l1,-1v-1h1Z"/>
<path class="sp" d="M211,92l1,-1"/>
<path class="sl" d="M204,98h2l-2,2h-1v1h-1l1,1h-1v1h-1l-1,2v-1h1l-1,1h-1v1h-2v-1h1l1,-1h1v-1h1h-1l-1,1h-1v1v-1h1v-1v1h-1h1v-1l-1,1l2,-2h1h-1l1,-1l-1,1v-1h1h-1h1h-1h1v-1h1l1,-1l-1,1l1,-1h1h-1l-1,1v-1h1l1,-1h1ZM363,19h2l1,-1h2l1,-1h4l1,-1h2l1,-1h3l1,-1h1h-1l-1,1l1,-1h3l1,-1h4l1,-1h1h-1l-2,1h-3v1h-1h1l-1,1h-4l-1,1h-3l-1,1l1,-1h1v1h-4l-1,1h-4l-1,1h-3l-2,1h-2l-1,1h-3l-1,1h-1l-2,1h-1l1,-1h1h-1h2l1,-1h2l1,-1h3l1,-1Z"/>
<path class="sp" d="M365,19l1,-1h2l1,-1h4l1,-1h2l1,-1h3l1,-1h1M385,13h4l1,-1h2M352,22h2l1,-1h2l1,-1h3l1,-1"/>
<path class="sl" d="M464,1h-2l-1,1h-1h1l1,-1h1ZM456,2h5l1,-1v1h-11l-1,1h-1h1l1,-1h4ZM441,3v1l1,-1Z"/>
<path class="sp" d="M458,2h3l1,-1h2M442,3h8l1,-1h5M441,4l1,-1"/>
<path class="sl" d="M427,5h-1v1h-1h1Z"/>
<path class="sp" d="M423,6h3l1,-1"/>
<path class="sl" d="M408,8h2l-1,1h-4v1h-4v1h-3v-1h5v-1h1l-1,1v-1h5ZM407,17h5l1,1h1v1h3l-1,1h-6l1,-1h-3l-1,1h-1l-2,1h-2l-1,1h-4l1,-1h-2l-1,1h-1v-1h3l1,-1h1v-1h2l2,-2h2l1,-1h2ZM439,4h-1ZM436,4h1h-1h6v-1h9l1,-1h2l-1,1h-1h1h-9v1h-9v1h-1l1,-1h-1v1h-1l1,-1h1Z"/>
<path class="sp" d="M436,4h3M432,5h1l1,-1h1"/>
<path class="sl" d="M422,6h1l-1,1h-5l-2,1h-3l-1,1h-1l1,-1h3l1,-1h4l2,-1ZM391,14v-1v1h1h-1h1h-2v1h-6l-1,1v-1v1h-1v-1h4l1,-1h3v-1h1ZM484,78l1,-1v1h-1h1h-1v1h2v-1h2v-1l-2,1l2,-2h3v1h1h-1h1v1h-2l-1,1h-7v-2l3,-3h1v-1h2l1,1h-1v2h-1v1h-2ZM447,82h-2v-2h-2v-1h1v-4l1,-1v-1h-1l-1,-1h-2l-1,1h-2v-1h-2l-2,2h-1l-1,1h-1v2h-1l-1,1v1h-1v1h-1l-1,1v1h-3l-1,1v-1l-2,2h-12l-3,1h-3l2,-1l1,-1h2l2,-1v-1h1l1,-1h1l1,-1h2l2,-2h2l1,-1h4l1,-1h1l3,-1h1l2,-2l2,-1l1,-1h1l1,-1l2,-1h2l1,-1h1l1,-1h2l2,-1h3l3,-1h2l2,-1h6l1,1l2,1h-1l1,1l-1,1h-2l-1,1h-1l-2,1h-1l-1,-1h-4l-2,1h5l1,1h2l2,-1l-1,1h2l-2,2l-2,1h3v2h1v2h4l-1,1h4v1h7l2,-1v1h3l1,1h1v1h-4v1h-4l-1,1h-2l-1,1h-4v1h-2v-1h-1v1v-1l-1,1h-1h1v1h-2v1h-1l-1,1l-2,1h-1l-1,1h-2v-1l-1,-1v1h-1v-3l2,-1h-1l1,-1h1l5,-2h1l2,-1h1v1h1v-1h5l-2,-1l-1,1l-1,-1l-2,1l-2,-1v1h-2l1,-1l2,-1h1v-1l-1,1v-1h-1l1,1h-2l-1,1h-2l-1,1l-3,1l-1,-1h1h-1v1h-5ZM516,54h-3v1h2v1h-1l-1,1h-1l-1,1v1h-1v1h-1v1h1l1,-1h1v-1h1v1h2l-1,1h-1h1l-1,1h5v1h3v-1h2v1v-1h4v1h1v1h-2v1h-1h2v1h-1l-1,1h1l1,-1h4v1h-2l-1,1h1h-1v1h-1v1h2l2,-2h1v1h-1v2h1l1,-1h1v1l-1,2v1h-1v1h-1v-1h-1l-1,1v-3l-1,1h-1l-1,1l-1,-1h1v-1l1,-1l-1,-1v-1h-1l-1,1v1h-1v-1v1h-2l-1,1v1h-5l1,-1h2l2,-2h1h-3v1h-2v-1h-1v-1h-2v1h-12v-1l-1,1h-5v-2h2l2,-2h1h-4v-1h1l1,1h1v-2h1l1,-1v1h1v-1h1h-2v-1h3l-1,-1l2,-2v-1h1v-1h1h-1h1v-1h1l2,-2h2l1,-1h1v1h1v-1h1ZM423,8h3v-1h3l1,-1h3v-1h6l1,-1h5v1h-1h6l-1,-1h-1h6l-1,1h1v-1h2v1h-1h1h-1h3v-1h1l-1,1h-1h2l1,-1h5v1h-1h1h-3v1h-1h1v-1h1v1h-1l2,-1h4v1h-1h4v-1h2l1,1h-1h2v1h-6v1h6l-1,1l1,-1h1h-1h2v1l1,-1h1h-1v1h6v1h-1h4l2,1h-2v1h-1l-1,-1v1h1h-4v1h-1v1l-1,-1h-4l-1,-1h3v-1h1h-2v1h-3l1,-1h-1v1h-1v-1h-5v1h1h-3v1h3v1h6l-1,1h-1h1h-1h1l1,1h-1h2v1h-1l-1,-1v1l1,1h-2l1,1h-2v-1h-5v-1l-1,1v-1h-5v1h4v1h3v1h1v1h-3l-2,-1h-8v-1h-6l1,-1v1h-2v-1h-1h2v-1h-5v-1h-1h1h-4v-1h-1v1h-4v1h-8v-1h2l2,-1h5l1,1v-1h1h-1h2v-1h6v-1h-1l1,-1h4v-1h3l1,-1h-1v-1h-1h1h-2l1,-1h-1v1h-1l-1,-1h1h-1h1h-4l-1,1h-1v-1h2v-1h1h-1l-1,1h-1v-1h1h-5l-1,1h-10l-2,1h-10l1,-1h1h-1h2l1,-1h-1h4v-1h4l2,-1h3l-2,1h-3v1h1h-3l-1,1h-1ZM481,64h-3l-1,-1h-3l-3,-1h-1l-1,-1h-3l1,-1h3l3,1h3l3,1h1l1,1ZM468,75h3l1,1h1l1,-1h5l-1,1h-1l-2,1h1l-1,1h-1l-1,-1h-1h1h-1v-1h1h-2v1h1h-3l-1,-1h-2v-1h-2v-1h1l1,-1h1l-1,1l1,1h1h-1Z"/>
<path class="sl" d="M409,22h-1l-2,1h-1l-2,1h-2v-1h1l2,-1h4ZM417,22v1h-1l-1,1h-3l1,-1h2v-1h1ZM445,9h2v1h-2v1h-6v-1h3v-1h2ZM449,4h1l2,-1h3v1h-7ZM385,53v1l-1,-1h-4v-1h5l1,1ZM403,40h1v-1v1ZM403,40h-1v1h-2h2v-1h-1l-1,1h-1v1h-1l2,-1h-2l-1,1l2,-1l1,-1h1v-1v1h-1v1v-1h1l1,-1h1ZM398,41h-1l1,-1h2ZM396,11h-2l-1,1l1,-1h3Z"/>
<path class="sp" d="M393,12l1,-1h3"/>
<path class="sl" d="M223,84l1,-1ZM206,96l1,-1ZM221,85l-1,1h-1h1ZM216,89l2,-2v1h-2ZM225,82h1l1,-1h1h-1l-1,1ZM217,88l-2,2h-1l-1,1l1,-1h1h-1h1v-1h1l1,-1h1v-1v1ZM199,103l-1,1ZM204,100v1v-1h1ZM199,103v-1h1ZM205,99l1,-1h1v-1v1h-1ZM213,91l1,-1h1h-1ZM208,95l1,-1h1h-1v1ZM213,91h1v-1h1l1,-1l-2,2ZM216,89l1,-1ZM217,88h1v-1v1ZM201,104l1,-1ZM492,87h-1ZM485,80h-1v-1h1ZM479,72h1h-1v-1h1l1,-1h1l-1,1h-1ZM465,69h-1v1h-1h1v-1ZM465,69h-1ZM451,86h1ZM449,84l-1,1v-1ZM409,82h-3v1l1,-1h1l1,-1ZM408,82h-1l1,-1h1ZM426,75h-1h1l1,-1ZM516,57v-1ZM522,62h-2v-1h1v1l1,-1ZM517,52h-1ZM525,61l-1,1l-1,-1h1ZM525,71h-1h1v-1ZM474,19h1ZM458,25h-1h1l1,-1h1v1h-1ZM453,20h-2v-1h-1h3ZM473,22h-1l-1,-1h3v1ZM473,21h1h-2ZM452,29h-1ZM474,25h-1v-1h1ZM488,37h-1ZM485,32v1h-2v-1h1ZM471,6h-1h2ZM486,10h-1h1v-1h1ZM457,2h-1h2ZM400,39v-1ZM403,36h-1ZM401,39v-1l1,1ZM391,51h-1ZM390,56h-1l1,-1h1ZM202,103v-1h1ZM205,99l1,-1h1h-1v1ZM451,10h-4l1,-1h3ZM426,19v1h-3v-1h1ZM406,30h1ZM407,29v1v-1h1ZM409,9v-1h1ZM416,7h-1h2ZM411,8h-1h2ZM408,11h-1v1h-1l1,-1ZM406,12h-1ZM438,20h-1ZM448,9h-1ZM416,26h-1h2ZM435,10h-1h2ZM430,19h-1ZM438,8h-1ZM442,8h-1ZM428,18h-1ZM416,15h1ZM436,9h2v-1h1v1h-2ZM443,8h1ZM419,9h1h-2ZM412,16h1h-2v-1h2v1ZM411,13h-1h1v-1h1v1ZM409,17h-1v-1h1ZM420,7h-1h1v-1ZM380,16h-1ZM381,16h1ZM389,13h-1ZM395,13h-1ZM381,15l-1,1l1,-1h1ZM375,17h-1h2ZM367,19h1ZM354,23h-1h1v-1h1h-1ZM351,24l1,-1ZM577,402h2v-1h2l3,1h3v3l-1,1v2h-1v1l-1,1h-1l1,1l-1,1v1h-2v-1h-1v1h-2v1h-1l-1,1h-2l-1,-1l-1,1h-3l-1,-1v-2l-1,-1v-2h1h-1v-7h1l1,-1l2,-1ZM614,602h-1v-1v1ZM577,628l-1,-1l1,-1l1,1h-1ZM604,608h-1l1,-2v1h1ZM620,427v-2h1h-1l1,1ZM664,518v-1h1v-1v1ZM663,521h-1v-1h1ZM617,413h-1v-1h1ZM576,397v1l-1,2h-2l-1,-1h-1l-1,-1h2l2,-1ZM571,383h-2v-2h1ZM568,401l-3,1l-1,-1h1v-1h3ZM578,401h-2l-1,-1l1,-1h3v1ZM570,398v2l-2,-1v-1l1,-1h1v-1l1,1ZM572,396h-1v-2h2v1ZM558,411l-1,1l1,-3l1,-1v-2l2,-2h2v1l-1,3l-1,2l-2,1ZM577,640h-1v-2l1,-1h1l-2,2ZM266,265h-1h1v-2h1ZM266,269l-1,1v-1h1v-1ZM491,290h-1v-2l2,2ZM350,211v1h-1h2v2l-1,1h-1v-1h-1v-1l-1,-1h2v-1ZM355,200v-1h-1l2,-2v-2h-1l-1,-2h-1h2v1h1v1h1v2h-1v2ZM383,231l-2,2h-1l-3,1v-1h1v-1h-1h2l1,-1v1h1l1,-1Z"/>
<path class="sl" d="M350,208v2l-1,1h-2v-1h-2v-1h1v-1l1,-1v-2h1l1,1v2ZM347,195h2l1,-1h1v1h-2l-2,1h-3l-1,-1h1l1,1l1,-1v-1ZM353,206h-1h1v-1l1,1ZM376,221h-2v-1h1ZM374,211v1h-1ZM374,224v1v-1h1l2,-2l-1,-1h1v1l-2,2ZM359,202l1,1h1l1,1h1v1l-1,1v2h-1v-1h1v-2l-1,-1v-1h-3v-1ZM364,216h-1l-1,-1l1,1ZM370,220l-2,-2h-1h1v-1l-1,-1v-2l1,1v2l2,2ZM368,211h-1v-1h-1v-2h-1v-1h1v2ZM384,222l1,1h1h-3v-1ZM384,229h-1ZM449,843v-2l-1,-2v-3l-1,-2v-3l-1,-2h1l2,2h-1v2h2l1,1v1h1l2,2h1l1,1h1l2,2h2l1,1h4v1h-1v1h-5v1l-1,-1h-7l-1,-1l-1,1ZM469,841h4v1h-3l-1,1v-1h-1h1ZM477,731h-1l-1,-1h2ZM473,260h-1l-1,-1h2ZM473,256h-1v-1h1ZM554,877l1,1h1v1l-1,-1h-2v-1l1,1ZM404,925h-1ZM389,988h3l1,1v-1l1,1l-1,-1h-3ZM397,989h1ZM399,990h-1ZM407,991h1v1h1l-1,-1h-2ZM629,983h-1l-1,1h-4l-1,1h-3l-1,1h-1h1l1,-1h1h-1v1l1,-1h1h-1l-1,1h-3l-1,1h-4l-1,1h-3l-1,1h-3l-1,1h-4l-1,1h-5l-1,1h-4l-1,1h-6l-1,1h-4l-1,1h-7l-1,1h-7l-1,1h-8l-1,1h-10l-1,1h-15l-1,1h-44l-1,-1h-15l-1,-1h-11l-1,-1h-8l-1,-1h-6l-1,-1h-6l-1,-1h-6l-1,-1h-5l-1,-1h-1h1l1,1h4l2,1l-1,-1h-1h2l1,1h9l1,1v-1h-1h1h-1l3,1h6l1,1h13v-1h3l2,1l-1,-1h-1v-1h1v-1l1,-1h-1h1h-1l-1,-1h1v-1l2,-1h-4l-1,1h-7l-1,1h-3l1,-1h1h-1h1v-1h-1h1h-1h1l-2,-1h-3l-1,-1h-3l-1,-1h-11l-2,-1l-1,-2h-7v-1h-8v1h-4l-1,-1h-1l-1,-1v1h-1h1h-6l-1,-1h-2v-1h-1h3l-1,-1h3l-1,-1h-4v-1h-1h2v-1h-4v-1h-3v1h-2l-1,-1h2l-1,-1h-3v-1h-1l-2,-2h1v-1h-1l-1,-1v-1h1h-1l-2,-1l-1,-1h3v-1h1v-1h2v-2h2l1,-1h1l2,-1l1,-1v-1h-1h3v-1h2l-1,-1l-2,-1h3l1,1h2v1l1,1h1l1,-1h1v-1h-2l-1,-1h-1v-1h2l1,1h1l1,1h1v1l1,1l2,-1h6l1,-1v-1h3v-1h3l1,1h2l1,-1h1v-1h-5l-1,-1h-1v-1l-1,1h-1l-1,-1h-2v-1h-4v-1h5l1,-1h-1h1h-1l-2,-1h-1l-1,1h-5l-2,-2h2v1h2v-1h3l4,-1l1,1h5v-1h4l1,-1h6l-1,-1v-1h1v-1h1l2,1v1h3l1,1l1,-1h4l1,1h9v-1h-1l-1,-1h2l-1,-1v-1l1,1h2l2,1h1l1,1v-1h4l-1,1h4v-1h1l1,1l1,-1l2,-1h4l1,-1h4l1,-1h2v-1l1,-1v-1l1,-1l-2,-2h-1v-1l-1,-1v-1l-1,-1v-1l-1,-1l-2,-1v-2h-1v-1h4v-1h1l-2,-2h1l-1,-1l1,-1v-1h-1v-3h1h-3l-1,-1v-1h1v-1h1v1h1v1l1,-1v1v-1l-1,-1h1l-1,-1l1,-1l1,1l1,-1v-1h-1h1v-1h1v-1h2v-1h1l-1,-1h3v-1h-1v-2h2l1,1v-1l1,-1h1v-1h1v1v-1h2l3,-3l2,-1h3l1,-1h1v-1h3l1,-1l2,-1h1v1h1v2h-1v-1h-2l-1,1h-1l-2,2v1h-1h1h-1v1h1h-2l-1,-1v2l-1,-1h-2v1h-1l-2,2h-2l1,1h-2v1l1,1h-1l-1,1v1h1v1h1l1,-1h3v1l-1,-1v1h-2v1h-1l-1,-1h-2v2h1v1l-2,-2h-1v-1h-1l-1,1h1h-1v1l1,1v1h-1l-1,-1h-1v1h-1v1h1h-1l1,1h-3l1,1v3h1l1,-1v1l-1,1h-1h2l-1,1h2l1,1h1v-1l1,-1h1l-1,1l1,1h1l-1,1h1l2,2h1v2l1,1h1v1l-1,-1v1h-1h1l1,1h1l-1,1h2v1l1,1h-1v1h-1v1h-1h1l1,-1h1v1l-2,1h-1l1,1h2v-1h1v2h-1v1h2v2l1,-1v2h-1v-1l-1,1h-1l-1,-1h-1l1,1v1l1,-1v1h1v1h-2v1h1l-1,1h2v1h-3v-1v1l1,1h-2v-1h-1v1h-1v1h1l-1,1h-1h2l-1,1l-2,1h-2l-1,1h-2l-3,1l-2,2h-13v1h2l1,1h1l1,1h5v1l-1,1h-11l-1,-1v1h-1l4,1h4l1,1l-2,1h-3l-3,-1h-2l-1,-1h-1l1,1h1h-1l1,1h2l1,1h2l1,1h1l1,-1h6v1h1v1h-1l-1,1h-1h5l1,1h1v1h4v-1h2l1,1h3l4,1h4v1h-3l-1,1l1,1h2l1,-1h2l-1,1h-1v1h1v1h1v-1v2h2l2,-2h1l1,-1h1l1,-1h10l-1,1h3l1,-1h2l1,-1h1v-1h3l2,-1v1h3l1,-1h7l1,-1h3l8,1l1,-1h-2l-6,-2l1,-1h-4l-1,-1h-2v-2h1l4,-2h1l1,-1h1l1,-1h5l3,-1h1l3,-1h4l2,-1h17l1,-1h2l1,-1h1l2,-1h2l1,1l1,-1h2l1,-1h1h-3v-1h1v-1h2l1,-1h5l1,-1h7l1,-1l2,-1h2v-1h-1v-1h1l1,-1l1,1v1l1,-1h2l1,-1h1v1l-2,2h3l1,-1h1v-1h1l1,-1h1v1h3l-1,1h-2l-1,1l3,1h2l1,1h2l-2,2h2l1,-1h15v1h1l2,-1v1h1l2,-1v1l-1,1h-1v2h1l2,-1h2l1,-1h1l-1,1h-1v1h2v1l1,-1h1v1h-2v2l1,-1h2v1h-2l-1,1h-2v1h3l1,-1h2l-1,1h-1l-1,1h2l-1,1h-1v1h-1v1h7v1h3l1,-1h2l1,-1h1l2,-1l1,-1h2v1h-3v1h-1v1l-3,1h-2v1l-2,2h-2l-1,1h1l1,-1h3l1,-1h2l2,-1h6v1l1,-1h1h-1v1h-2l-1,1h-1l-1,1h-1h2l1,-1h2v-1h1l2,-1v1h-1l-2,1h-1h1l1,-1h2l1,-1h1l-2,1l-1,1h-1l-1,1l-2,1h-2l-1,1l1,-1l-1,1h-2l-1,1h-1l-1,1h-2l-2,1l-1,1h-2l-1,1h-2l-1,1h-2l-1,1h-2l-1,1h-2l-1,1h-2l-1,1h-3l-1,1h-1l-1,1h-2l-1,1h-3l-1,1h-3l-1,1h-3l-1,1Z"/>
<path class="sp" d="M394,989l-1,-1h-4M398,989h-1M399,990h-1M403,990v0M410,992h-1l-1,-1h-2M621,985h-1l-1,1h-3l-1,1h-4l-1,1h-3l-1,1h-3l-1,1h-4l-1,1h-5l-1,1h-4l-1,1h-6l-1,1h-4l-1,1h-7l-1,1h-7l-1,1h-8l-1,1h-10l-1,1h-15l-1,1h-44l-1,-1h-15l-1,-1h-11l-1,-1h-8l-1,-1h-6l-1,-1h-6l-1,-1h-6l-1,-1h-5l-1,-1h-2M665,972h-1l-1,1h-2l-1,1h-2l-1,1h-2l-1,1h-2l-1,1h-3l-1,1h-1l-1,1h-2l-1,1h-3l-1,1h-3l-1,1h-3l-1,1h-1"/>
<path class="sl" d="M522,961h3v1l-1,1v2h-2v1l-10,1h-6v-1l1,-1h3l2,-2h1v-1h-1h1v-1h1v-1h1l2,-2h3l1,-1l1,1h2l1,1h1v1h-1l-2,1ZM498,966v1h-1v1l-2,-1h-2v-1v1h-3l-1,-1h-1v-1h1v1h7v-1h-1h1v-1h2v1h1h-1ZM464,922v1h2l1,1l1,2h1l1,2h1v2h1v1l1,1v4l-1,1l-2,1h-7l-1,-1v-1h1l1,1h3l1,-1h1h-5l2,-1h1l-2,-1h-3l-1,1h-1l-1,1h-3v-1h-1l-1,-1h3l-1,-1h2v-1h1l1,1h1l1,-1h-2l-1,-1h6l1,-1h1l1,1v-1h-4v-1h-1h1l1,-1h3l-1,-1h-6v-1h-1v-2l-1,-1h-1v-2h2l2,-1l1,1h1ZM401,941v1h1v-1h1v1h1v-1h-1v-1h2v2h1l1,-1h1v1h1h-1v1h-3v1h-4l-1,-1h-5v1l-1,-1h-1l3,-1h3v-1h1ZM376,957h2l2,2l-1,1h-1v-1h-2v-1h-3l1,-1h1ZM367,958h3l1,1h1v-1l1,1h3v1h1h-6l-1,-1h-1l1,1h-1l-1,-1h-1l-1,-1ZM413,985l1,1h-7v-1h-1h6ZM422,993h-1h3v1h1h-2v-1h-2ZM541,966l1,-1v1l-1,1l-1,-1h-1h1l1,-1ZM538,964h-3v-1h2l1,1h1ZM482,964h-3v-2l1,-1h1l3,-2h1v1l-2,2h-1v1ZM502,896h1v-1h1v1h1h-1l1,1h-1v1l-1,-1h-1v1v-1h-1h1h-1v-1h-1v-1h2v-1l1,1h-1ZM511,891h2v1h-4l-1,1v-2h1ZM502,884h1v1h-2v1l-1,-1v1h-2l2,-2h1ZM482,898v1l1,-1l1,1h-2v1h-3v-1h-1h1l1,-1h-1h1l1,-1h1ZM485,898h-1l1,-1l-1,-1h2v2ZM468,914h-1v1h-2v-1h-1h1v-2h1v-1l1,-1h1v2h1l-1,1h-1h1ZM456,929l1,1l-1,1h-2l-3,1h-1v-1h-1h1l3,-1v-1v1h1v-1h1v1v-1ZM451,926h2v1h-1h1l-1,1l-1,-1h-2v-1h1ZM460,940v1h1v1l-4,-1h-1v-1h1l-1,-1h4ZM422,944h-1l-2,-2h-1l1,-1l1,1h1v1h1ZM426,994h1h-2ZM667,958h1v-1h1v1h-1ZM632,941h-1h1v-1v1l1,-1v1ZM637,942h-1h2v-1h1v1h-1ZM488,965l-1,-1h-2v-1h3v1h1v1ZM486,963h-2v-1h2ZM514,880h-1v-1l3,1ZM510,893h-1l1,-1l1,1ZM505,899h-1v-1l1,-1h1v1h-1ZM509,891h-1l-1,-1h2ZM504,894v1h1h-2ZM489,924l-1,-1v-1h-1v-1h1v1h2v1h-1ZM491,888h3l-1,1l-1,-1h-2l1,-1ZM459,925h-2l-1,-1h2ZM411,943h-1l1,-1l1,1ZM396,948h-2ZM380,957v1v-1h-2v-1h1ZM376,962h-1ZM442,989h-1ZM428,987h1l-1,1h-1ZM412,992h-1ZM418,993h1ZM395,989h-1l-1,-1l1,1ZM622,985h-1ZM622,985h1h-2ZM688,962h1v-1v1ZM665,951h-1h1v-1h1ZM646,946h-1v-1h2ZM633,945h-1l1,-1ZM646,944h-1l1,-1h1ZM636,944h1h-2v1h-1v-1h1v-1h2ZM649,946h-1h1v-1h1v1ZM585,948l-2,2h-1l1,-1h-1l-1,-1h4l1,-1h1h-1v1ZM600,945v-1h1v1ZM610,944v1ZM539,965h1ZM518,881v-1h1ZM498,886v1l-1,-1ZM492,925h-1ZM493,920h-1v-1h1ZM493,929v-1h1ZM494,930h-1v-1ZM496,887h-1Z"/>
<path class="sl" d="M492,890h-1h1h-1ZM492,895h-1v-1h1h-1v1ZM487,896h-1h1v-1ZM482,900h-1ZM484,891h-1v-1h1ZM474,905l-1,1l-1,-1h1v-1h1ZM471,907v1ZM470,911h-1v-1h1ZM471,915h-2l1,-1h1ZM461,927l1,1v-1v1h-1ZM462,941h-1v-1h1ZM415,944h-1v-1ZM384,956v1h-1v-1l-1,-1h1v1ZM373,964h-2v-1v1h1v-1ZM385,976h-1ZM377,973h-1ZM387,976h1h-2ZM388,977h-1ZM385,977h1ZM390,978h1ZM386,977v1h-1v-1ZM381,975h-1ZM384,976h1ZM391,978v1h-1v-1ZM414,984h-1ZM389,978h-2l-1,-1h2v1ZM432,987h-1ZM461,252h1Z"/>
<path class="sw" d="M841,137l-1,-1v1Z"/>
<path class="sh" d="M502,573l1,1v2h1v2h1l-1,1h1l-1,1h1v4h-1v6h3v1h4l1,1h2v-1h1v-1h2v1h1v1h3l1,1v1l1,1v1h-1v1l1,1v5l1,1v2h1v1h1l1,-1h2l1,-1h1l2,2v4l-1,3v2l-1,1l-1,2v5l-1,2v2l-1,1h-1v1l-2,2h-2v1h-1v2h-3l-1,-1v1h-1v1h-5l-1,-1l-1,1l-2,-1l-3,-1h-6l-1,-1h1v-1h1v-1h1v-1h1v-5h1l1,-1v-1h1v-2h1v-1l1,-1v-1h-1l-1,-2l-1,-1h-2v-1l-1,1l-1,-1h-1l-1,-1l-4,-2l-1,-1h-1l-1,-1l-3,-2l-1,-1l-1,1l-2,-1l-3,-1l-2,-1l-1,-1l-2,-1v-1h-1l-1,-1h-1l-1,-2l-1,-1l-1,-2l-3,-3h-1v-1l1,-2v-2l2,-6v-4l1,-2l2,-2v-2l1,-2h2l3,-1h2l7,-2h8l3,2l4,2v1l1,1Z"/>
<path class="sw" d="M1000,486v1v-2Z"/>
<path class="sr" d="M1000,482v3"/>
<path class="sw" d="M346,102v1h-1v1h2l1,-1v1l1,-1h1l1,-1h2l1,-1l2,-1h1v-1h6l1,-1h4l1,-1h3l-1,-1h1h-1h1v2h-1l-1,1h-1l-1,1h-1l-1,1h-3v1h-1l-4,1l-4,2h-1l-1,1h-4v1h-1l-1,-1l-1,1h-1h1l1,-1h-3v-1h-1h1l1,-1h1v-1ZM372,97v-1ZM347,105v-1ZM966,361v1l-1,-1v-2h1v1ZM986,619v-1ZM987,612l1,-1ZM988,610v-2l1,-1v-1l-1,1v2Z"/>
<path class="sr" d="M986,617v2M988,611l-1,1M989,606l-1,1v3"/>
<path class="sw" d="M1000,522l-1,1v1v-1v1v-2h1v-1v1l-1,1ZM1000,521v-1Z"/>
<path class="sr" d="M1000,512v10l-1,1M1000,521v-1"/>
<path class="sw" d="M305,70v1v-1l-1,1v1h-2v-1h1v-1h1v-1h1l1,-1h1l-2,1v-1h1l1,-1h1h-1h1v-1h-1l-2,2v-1h1v-1h1v-1l-1,1h-1h1v-1h1h-2v1h-1v-3h1l1,-1h1h-3l1,-1h1l1,-1h1l1,-1h2v-1h1l1,-1l2,-1l-1,1h-1v1h-1h2v-1v1h-1l-1,1v1h-1v2h-1v2h-1v1l-1,1h1h-1v2h-1v1l-1,1ZM306,65v-1h1h-1l-1,1ZM306,69v-1v1h-1ZM323,35h1h-1l-1,1v-1v1h-3l-1,1h-1h1l1,-1h1h-1v1h-3v1h-2l-1,1h-1h1h-1l-1,1h-2l-1,1l-2,1h-2l-1,1h-2v1h-2l-1,1h-2v1h-2l1,-1h2l1,-1h1l1,-1h1l1,-1h2v-1h2v-1h1h-1h4l1,-1h1l1,-1h2l1,-1h2l1,-1h2l1,-1h2ZM312,39h1h-2v1h-3v1h-1h1h-1h1l1,-1h2ZM394,88h-1l-3,1v1h1h-1h1v1h-1v1l-1,1h-2v1h-5l-1,1h-1v-1h-4l-2,1h-3l-1,1h-2v-1h1v-1h1v-1h2l1,-1h4l1,-1h7l1,-1h1h-1h1h-1h1l1,-1h2l2,-1h1ZM388,90h-1ZM391,89h-2v1h1v-1ZM392,89h-1ZM329,30h-1l-1,1h1ZM324,32h1l1,-1h2l1,-1h1h-2v1v-1h1h-1v1h-2l-1,1h-2v1h-3v1h-2l-1,1h-2l-1,1l-2,1h-1h1l1,-1l2,-1h1l-1,1h-2l-1,1h-1h1l1,-1h1l1,-1h2l1,-1h1l1,-1h2l1,-1Z"/>
<path class="sr" d="M327,31h1l1,-1M310,37h2l1,-1h1l1,-1h2l1,-1h1l1,-1h2l1,-1h1"/>
<path class="sw" d="M346,102h1v-1h1v-1h1v1h1v1h-3ZM332,195h-1v1h-1l-1,-1h-1l1,-1h1v-1h2v1ZM282,315v2h-3l-1,-1h-2v-1h-1v-2h-1v-3h1v-1h1l1,1h1l4,4ZM409,541h-1v-2h-2v-1h-1v1v-1h-1l-1,-1h1v-1h1v1v-2l-1,-1h1v-1h2v1l1,1h1v1h1l1,1h1v1h1l1,1h-1v2h3l-1,1h-1l-1,1v1h-1l-1,-1h1v-2h1l-1,-1h-1v1h-1ZM304,62h-1v1v-1h-1v1h-2v-1h-1h2v-1h1v-1h2v-1h1v-1h1v1h-1l-1,1h1v-1h1l-1,1h-1l-1,1h-1h1v1h-1h1ZM197,133l-2,2h-1v-1v1v-3h1v-1h1v-1h1v1h-1v1l1,-1h1l-1,1v1h-1ZM195,134h1v-1ZM345,86h-1l-1,1v1h-2l-1,1v1h-1v1h-1l1,-1v1h-1l1,-1v-1l-1,1h-2v1h-1l-1,1v1h-1v1h-1v1h-1v1l-1,1v3l-1,1v1l-3,3h-1v1h-1v1h-1l-2,1h-2v-2h-1l1,-1v-1l1,-1v-2h1v-1l3,-3v-1h1v-1h1v-1l1,-1h1v-1h1h-2l-1,1h-1l-1,1v-1h1v-1h1l1,-1h1v-1h1l1,-1h1l1,-1v-1h1l1,-1v1h-1h2v-1h1v1h-1h1l1,-1h2v-1v1h1v-1h2v-1h2v1h2ZM341,86l-1,1h1ZM337,89v1ZM333,89h-1ZM332,89h-1v1h-1v1h-1v1l2,-2h1ZM349,82h1h-4l1,-1h-2l-1,1h-4l-1,1h-2l-1,1v-1h-1v1h-1v-1h-1v-1h-2l-2,1v-2l-1,1h-2l-1,1h-2l-1,1h-1l-1,1h-4l1,-1h-2l-1,1h-1l-2,1h-1v-1h1l12,-6h2l1,-1h2v-1h2v-1l1,-1h2l-1,1h-1h2v-1h1v-1h1v-1h1v1h-1l-1,1h2v-1h1v-1h9v1h-1v1l1,1h4v1h-1l1,1h1l-1,1h-1v1h1v1h-1h1ZM318,84h-1v1v-1ZM319,84v-1l-1,1ZM320,83h-1ZM337,73v1h1v-1h1h-1ZM330,78l2,-1h1h-1l-3,1h-1h1ZM334,80h1l-1,-1h-1v1h-2l-1,1h-1h1v1l1,-1l2,-1ZM347,77h-1ZM350,82h1v1h7l2,-1v1h3v-1h1v1h-1h5v1h1v1h2v1h-1v1h1h-1h1v1l1,-1v1h-3v1l-1,1l-1,-1h-3v-1l-1,1l1,-1h-1h1h-1v-2l-1,1h-1h1v3h-1l-1,1h-1v1h-1v1l-1,2l-2,2h-1l-1,1h-2l1,-1v-4h-2l-1,1h-1l-2,2h-1v-2h2l1,-1v-1h2v-2h1v-2h1h-1v-1h1h-4v-1h-3l2,-2h3v-1h-1h1ZM354,84h-1ZM353,84h-1ZM352,83h-2l1,1v-1ZM350,83v-1h1h-1ZM347,85v1l1,-1ZM355,84l1,1h5l1,-1v1h-1h1l1,-1h-1h1v-1v1h-1v-1h-1l-1,1h-1l1,-1h-1v1h-5ZM362,85h-1v1v-1ZM369,88h-1ZM216,219l-2,2l-2,5l-1,1l-1,3l1,-1v-2l1,-1h-1v-1h1l1,-1v-2l1,-1v-2h1l1,-1ZM316,45v1h-2l-2,2h-1h1v-1l-1,1h-1h1l1,-1h-1h1v-1h2v-1h3ZM301,47h-1l-1,1h-1l-1,1h-2l-1,1h-1h1h-1l1,-1v1v-1h1l2,-1h1l2,-1h1v-1h2v-1h2l-1,1l1,-1h4l1,-1h1l-2,1h-3v1h-2l-1,1h-1ZM422,57h-1l-1,1h-1l-1,1l1,-1h1v-1l-2,2h-2v1h-1v1l-1,1h-1l1,-1h1v-1l1,-1l-1,1h-1l2,-2h2l2,-2h2l-1,1h2ZM774,85h1v1l-1,-1h-1v-1h-1v-1v1v-1h-2v-1l1,1h1l1,1h1ZM774,85v-1h-1v1h2Z"/>
<path class="sw" d="M310,75h-1h1v-1h-1v1h-1v1l1,-1v1h1h-2l-1,1h-3l-1,1v-1h1v-1h2v-1h1l1,-1h1h-1l-1,1h-1v-1h2l1,-1h1v-1v2ZM307,76h-1h1v1v-1h1ZM341,68v1h-1h1h-1v1h-1v1h-2v-1v1h-1l1,-1l-1,1h-1h1v-1h-1h1v-1h1v-1h1l1,-1h1v1h1v-1h-1h1v1h-1ZM339,68h-1v1h-1h2ZM338,70h1ZM318,46h1h-2v1h-2v1h-1l-1,1h-1l-1,1h-1l-1,1h-1l-1,1h-2v1h-1l1,-1h1v-1h1v1l1,-1h1l1,-1h1l-1,-1h1l1,-1h1l1,-1h1l1,-1h1l1,-1v1h-1h1v-1v1h-1ZM392,94h-1ZM159,154l-1,1v-1h1v-1h1ZM321,96v1h-1v1v-2ZM455,11h8l-1,1h-7v1v-1h1ZM345,30h1v-1h3l1,-1l-1,1h-2v1h-2v1h-1l1,-1h-1v1h-1h1h-1v-1h1ZM371,24h1h-2ZM408,89h-1v1v-2h1v-2l1,-1v-1v1h1v-1h1h-1v2h-1v1l-1,1ZM149,185v1h-1v-1ZM307,39v1h-1l1,-1h1h-1h1ZM406,749l-1,-1l1,-1h1l1,1v1l-1,-1ZM994,569v1l-1,1v4h-1l1,-1v-2l1,-2v-2ZM422,68h-1v-1h3v1h-1ZM383,98h-1l-1,1l1,-1ZM383,99v-2l1,-1v1l-1,1ZM386,98h-1v-1v1ZM939,367v2h-1v-4l1,1ZM302,50h-1v1h-3v1h-1h1v-1h1l1,-1h1ZM350,29h1l1,-1v1h-2v1h-1v-1ZM328,39v-1h1l1,-1v1h-1v1h-2ZM271,179l-1,1v-1h1v-1ZM425,39v1h-1v-1h-2l1,-1l1,1ZM371,81h3v-1h1l1,1h-3ZM990,591v1v-1l1,-1v-1v2ZM999,510v1v-2ZM1000,502v-1v1v-1ZM414,40v-1h1v-1v1h1l-1,1ZM472,663l-2,1h-1l-1,1l-2,-2v-1h2v-1l2,1h1ZM410,48h1l1,-1h4v1h-1h1h-1h1h-4v1h-2l1,-1ZM410,48h-1v1h-6l1,-1h3l1,-1h-1h3v-1v1h1h-2v1h-1ZM393,251h-1ZM293,47h-1v1h-1h1v-1ZM407,50h-1l-1,1v-1h1l1,-1h1h-1ZM425,813h-1v1h-4v1h1v1l-2,-2h-1h2v-1h-2v-1h1v1h5ZM316,42h-2v1h-1l1,-1h2v-1h1h-1ZM344,57h2l1,-1v1h-2ZM813,116h-1h1h-1v-1ZM727,64h1v1h1h-1ZM219,113h-1l1,-1h1h-1ZM223,98h1v-1v1l-1,1h-1h1h-1h1ZM167,166v-1l-1,1h-2v1h-1l2,-2h1v-1l1,-1l-1,1v1h1v-1v1h1ZM291,51h-2v1v-1h1h-1h1l1,-1h1h-1h1ZM476,44v1h-1v-1h-1v1h-3v-1h-3v1h-3v1l1,1h-3v-1h1l1,-1h-1v-1h-3l-1,-1v1h-1v-2h1h-1v-1h1v1l2,2h2v1h2v-1h1l-1,-1h-1l1,-1v1l1,1h2l1,-1v-1h1l-1,1h2v1h3ZM256,283l-1,1v1h-1v1h-2v-1h1l1,-1l2,-1h1ZM329,66h2v-1h1l-1,1h-1ZM995,570v1v-5h1v-1v1l-1,2ZM408,69h-2v-1v1h-1v1h-1h1v-1h1v-1h-1v1h-1v-1h3l1,-1h1v1h-1h1v1h1h-1ZM427,42h4l1,-1v1h-3v1h-3ZM531,358l-1,1h1v1h-2v1h-1v-1h-1l1,-1h-1l1,-1v-1h1v-1l1,1h2v1ZM832,127v-1h-1h1ZM382,97h-1h1v-1ZM386,97v-1ZM388,96h-1ZM204,127h-1v1v-1h1v-1ZM194,138h-1v1v-1l1,-1Z"/>
<path class="sw" d="M301,85h-1v1v-1h-1v1v-1h2v-1ZM327,74h-1v1h-1v-1v1h1v-1ZM399,76v1h-2v-1h1ZM409,741h-2l1,-1h1ZM281,51h-1v1v-1v1v-1h2v-1h1h-1v1ZM423,810h-1l-1,-1h-1l-1,1v-1h-1v-1h1l2,1h2l1,1ZM986,484v-1v2ZM459,86v1h-1v-1ZM454,79h-1v-1h2v-1v1h-1ZM172,137l-1,1l1,-1v-1h1v1ZM165,148h-1h1v-1l1,-1v1h-1ZM434,63h-2v1v-1h-1v1v-1h-1v1h-1l1,-1h2l1,-1h1h-1h2v1h1v1l-1,-1ZM508,63v-1l1,1h-1l-1,1h-1l-1,1h-1v-1h2l1,-1ZM317,35h1v-1h1h-1v1h-2ZM344,54h2v-1v1h1h-2ZM321,67h-1v-1h1ZM327,57h-2v-1h2ZM437,49h1h-1v1h-2l1,-1ZM295,58h-2v1h-1v-1h2l1,-1v1v-1ZM301,89l-1,1v-1h1v-1ZM420,91h-1v-1h1ZM372,90l-1,1v-1l1,-1h1v-1v1h1v1h-1ZM333,52h1h-1l-1,1h-2v1h-1v-1h2v-1h1ZM184,128h-1h1v-1h1h-1ZM511,67h-1ZM329,50v1h-1ZM312,78h1v-1h-1v1h-1v-1h-1h1v-1h1v1h2v1h-1ZM249,69h-1v1h-2v1h-2v1h-1v1h-1l1,-1h1l1,-1h-1h1l1,-1h1l1,-1h-1v1h-1h2v-1h2ZM330,49h-1l1,-1h1h-1ZM250,93v-1h1v-1l-1,1h-1l-1,1h-3v1h-1l-1,1v-1h2v-1h3v-1h2v-1h1v1h-1ZM267,89h-1h1v-1h-1h1v-1h-2v1h-2l1,-1v1l1,-1h2v1h-1h1l1,-1v1h-1h1l-1,1h2l1,-1h1l-1,1h-2ZM219,95l2,-2h1h-1l-1,1v1ZM218,99h-1v1h-1h1v-1h1h-1ZM205,105v-1l1,-1l-1,1ZM313,44h-1l-1,1h-1h1l1,-1h2ZM301,81l1,1h-2ZM301,81h1l1,-1v1h-1ZM353,29h-1h3l1,-1v1h-1l-1,1v-1l-1,1ZM455,15h-3v-1h3v1h1h-1h1h-2ZM206,194h-2v-1h1v1h1v-1v1v-1ZM395,75v1v-1l1,1h-2v-1h-1v-1h1l1,-1h1h-1l-1,1h2ZM172,263h1h-4l1,-1h2ZM273,308v1h-1v-1h-2v-1h2ZM534,613h-1v1h-1v1l1,1h-1v1h1l-1,1h-1v1h-1v-2h1v-1h-2l1,-1l1,1v-1l-1,-1h-1h2l1,-1h-1l1,-1v-2h1v-1l-1,-1h1v-1v5h1ZM321,329h-1v1v-1h-1v1h-1l1,-1v-1h1v-1v2ZM979,636h-1v1v-1v1v-1l-1,1v1v-1v1h-1v3h-1v2h-1l1,-1v-1l1,-1v-2h1v-2l1,-1v1v-2h1h-1h1v1ZM813,113l-1,-1h-1v-1v1h1v1ZM924,391l1,-1v1h-1v2h-1v-2h-1v-1h-1v-1h-1v-1v1l1,-1v1v-1v1h1v1v-1v1h1v1v-2h1h-1v-5l-1,-1v1v-1h-1h1v-1h-1v-1h1h-1v-2l-1,-1v1v-1h-1v-1v1v-1h-1h1v-1h-1v-2l-2,-2v1v-1h-1v-1h-1v1l-1,-1h2l1,1v-2l-1,-1v-1l1,1v2h1v2h1l-1,-1h1v3h1v2h1v1h1v1l1,1v1v-2h1l-1,-1v-1h1l-1,-1v-1v1h1v4h-1h1v1v-1v2l1,1h-1l1,1v6ZM924,390v-1h-1v1l1,1ZM994,572v-2l1,-1v-7h1v-10l1,-3v-9l1,-1v-11l1,-1v-1v3l-1,1v13h-1v11l-1,1v8l-1,1v7l-1,1v1ZM543,679h-1v2h-2v-1h-1v1l-2,2v1l-1,1v1h-1v-4h1v-1h2v-2h2v-1l1,-1h1v-1v1h1v1Z"/>
<path class="sw" d="M297,73h-1v1h-2l1,-1v-1l1,-1v-1v1l1,-1h-1h1v-1h-1v-1h2v1l1,-1l-1,1v1h-1v1h-1h1v1ZM295,69v-1l1,-1l-1,1v1h-1l2,-2v-1h1l1,-1h1v-1h-1v1v-1h-1v1h-1v-1h1h-1h1v-1v1l1,-1h3v1l-1,1h-1v1h-1l-1,1v1h-1h1h-1v1ZM447,55l-1,1h-1l-1,1l-1,-1h-1v-2h1v-1v1h3v-1v1h1ZM445,55h1v-1h-2l-1,1h-1h1v1h3v-1ZM288,56l1,-1h1h-1v1h-1v1h-1l-1,1h-1l-1,1h-1h1v-1h1h-1h2v-1h2ZM424,787l-1,1l-1,-1h-3l-1,1l-2,1l-1,1v1v-2h1l-1,-1v-1l1,1h1l1,-1h1l1,-1h2l1,1ZM167,166v-1l-1,1h-2v1h-1l2,-2h1v-1l1,-1l-1,1v1h1v-1v1h1ZM189,150l-4,4v1v-1v1h-2v1h-1l-1,1v-1h1l1,-1v1v-1h1l2,-2v-1h2v-1h1ZM328,45v1h-2v1h-2l-1,1h-2l-1,1h-1h1l1,-1h1l1,-1v1v-1h2v-1h2v-1h2ZM649,483v2h-2v2h-2l-1,1h-1v-1l-1,1h-1v-1h-1l-2,2v1h1l1,1v1v-1h-1l-1,-1h-1l-1,1l2,4l-1,1v1l-1,1l1,-2v-3h-2v1l-2,2v3h-1v1h-1v-1l-1,-1l-1,1v-1l3,-3h-1v-1h1v1h1v-1l-1,-1h2v-2l1,1v-1l-2,-2v-1h1v1h1v1v-2l1,1l1,-1v-2h1l1,-1h1v1l2,-1l1,1h3v-3h2v-2h1l-1,1ZM632,497v-1h1h-1v1h-1h1l-1,1l1,1v-1ZM378,69h2v1h1v-1h1v1h1h-1v1v-1h-4ZM250,93v-1h1v-1l-1,1h-1l-1,1h-3v1h-1l-1,1v-1h2v-1h3v-1h2v-1h1v1h-1ZM264,100v1h-1l-1,1h-1v1v-1h-1h1v-1h1v1v-1h1v-1h2v-1h-1h1v-1h1h-1v-1h2v-2l1,-1h1v-2h1l-1,1v1h-1v1h-1v2h-1v1l-1,1v1ZM219,95l2,-2h1h-1l-1,1v1ZM924,391l1,-1v1h-1v2h-1v-2h-1v-1h-1v-1h-1v-1v1l1,-1v1v-1v1h1v1v-1v1h1v1v-2h1h-1v-5l-1,-1v1v-1h-1h1v-1h-1v-1h1h-1v-2l-1,-1v1v-1h-1v-1v1v-1h-1h1v-1h-1v-2l-2,-2v1v-1h-1v-1h-1v1l-1,-1h2l1,1v-2l-1,-1v-1l1,1v2h1v2h1l-1,-1h1v3h1v2h1v1h1v1l1,1v1v-2h1l-1,-1v-1h1l-1,-1v-1v1h1v4h-1h1v1v-1v2l1,1h-1l1,1v6ZM924,390v-1h-1v1l1,1ZM862,155v1h1l-2,-2v1ZM334,31h-2v1v-1h-1v1h-1l1,-1h3v-1h1l-1,1v-1v1h-1ZM334,31h1v-1h1l-1,1h-2ZM263,108h1v1h1h-2v-3h1v-1v1h-1v1ZM209,211v1h-1v-3l1,1ZM284,60v-1h2v-1h1l1,-1l-2,2h-1ZM325,39h-1v-1h1h-1h2v-1v1h-1h1h-1h2v-1h1h-1v1h-2v1v-1h1ZM373,22h-1v1h-1l1,-1h-1v1v-1h3ZM445,45h-2l-1,1v-1h1h-1v-1h-1h2v1h1ZM448,46h-1v1h-1l1,-1h-1v-1h-1h2v1ZM441,44h-1h2v-1h1v1h-1ZM302,137v3h-1v1h-1l1,-1v-5h1ZM332,150v1h1h-1l-1,1h-1v-1h2l-1,-1h-1h1h-1l1,-1v1ZM235,82h-1v1l1,-1v-1h1v-1v1h-1ZM328,179v-1l1,1l-1,1ZM158,176h1v1ZM161,146h-1h1h-1v1v-1ZM328,31h1l1,-1h-1v1h-1h2v-1v1h-1h1v-1h1l-1,1h-1h1h-1Z"/>
<path class="sw" d="M171,135l-1,1h-1h1ZM182,129v-1h1v1ZM444,80h1h-2v-1ZM576,438h-1v-1h-1l1,-1v-1l1,-1v-1h1v3l1,1v1l1,1v5l1,1h2v1h-2l-1,-1v-1l-1,-1l-1,-2v-1l-1,-1ZM610,564h1v1h-1v-1h-1v1l-1,1h-1v-1h1v-1v1l-1,-1h1v-1h-1l1,-1l-1,-1v1h-1v-1h1l1,-1h-1l1,-1h1l-1,1v1l1,1v1v-1v2ZM557,576h1l-1,-1h3l-1,-1h1v-1l1,-2v2l1,-1h2v-1v1l-1,1h-1l-1,1v1l-1,1h-1v1h1h-2ZM407,744h2l-1,1h-1ZM438,779v1h1h-2l-1,-1v-1h1v1v-1ZM811,112v-1h-1ZM300,148v-1h2l1,1h1v1h-1l-1,-1h-3ZM402,57h1l-1,1h-1v-1ZM329,65v1h-1v-1ZM392,59h-1ZM384,74h-1ZM391,74h1h-1v1ZM337,29h1ZM337,29l-1,1h-1h1ZM335,30h-1h1h-1ZM334,30h1h-2ZM444,6h-1ZM375,16h1ZM377,18h-1l-1,1v-1h1ZM325,52h1l1,-1h1l-1,1h-1ZM299,59v-1h1ZM285,63l2,-2v1h-2v1h-1ZM436,47v1h-1v-1ZM487,50h2l-1,1v-1h-2l-1,-1h1ZM328,32v-1h1ZM359,73h-1h1l1,-1v1ZM289,57h1ZM290,58v-1h1ZM340,32h-1h1v-1ZM331,36v-1h1ZM315,45h1ZM449,37l1,1l-1,-1h-1l1,-1ZM399,16h-1h2ZM402,16h-1Z"/>
<path class="sb" d="M810,153l-2,-1v-1l-1,-1v-2h1h-1l-2,-2v-1h-1v-3h-1l-2,-2h-1v-1l-1,-1l1,1l1,-1l-2,-2v-1h-1v-2h-1v-1h-1l-1,-1h1l-1,-1h1v-1l-1,-1h-1v-1h-1v-1h-2l-1,-1v1h-1v-1h-3v-1h-1v-1h-1v1M820,132h-1v-1h-1M825,134h-2l-1,-1h-1l-1,-1h-1v-1h-1v-1h-2l-1,-1v1l-1,-1h-2v-1h-1l-1,-1h-1l-1,-1h-1v-1v1v-1h-1v-1h-2v-1h-1M794,100l-1,-1v1v-1h-1M790,96h-1v1h1l1,1h1v1l-1,-1h-1l-1,-1h-1v-1h-1l-1,-1h1v1l-1,-1h-1v-1h-1l-1,-1h-1l-1,-1h-1v-1h-1l-1,-1h-1l-1,-1h-1v-1M785,93h-1v-1h-1v-1h-1l-1,-1h-1v-1h-2v-1v1v-1h-1l1,1l-1,-1M808,111v-1h-1l-7,-7h-1l-1,-1v1v-1h-1l-1,-1h-1v-1h-1l-2,-2h-1v-1h-1v-1h-1l-1,-1h-1v-1h-1v-1h-1v-1h-2v-1l-1,-1h-1v-1h-1l-1,-1h1h-1v-1h-1v-1h-2v-1h-1h1h-1v-1h-1l-1,-1h-1M816,119v-1h-1l-2,-2h-1h1v1h-1v-1l-1,-1h-1v-2h-1v-1h-1v-1h-1h3v1v-1h-1h1l2,2h1M816,116l-1,-1M819,118l-1,-1h-1v-1h-1v-1h-1l-2,-2h1v1h1v1h1l-1,-1l1,1h1v1v-1l1,1l-1,-1h1v1h1v1h1l-1,-1h-1v-1l-1,-1h-1v-1h-1v-1h-1l1,1v-1h-1v-1M830,124h-1v-1h-1v-1h-1l-2,-2v1h1h-1h1l-2,-2M820,116l-3,-3h-1l-1,-1h-1h1l1,1h-1v-1h-1v-1h-1l-2,-2h-1l-1,-1v-1h-2v-1l-1,-1h-1v-1h-1l-1,-1h-1v-1h-1h1v1v-1h-1h1h-1v-1l1,1l-1,-1h-1v-1v1h2v1M827,122v-1h-1l-1,-1h-1v-1h-1v-1l-2,-1v-1h-1v-1h-1M808,107v-1l1,1h1v1v-1h-1l-1,-1h-1v-1h-1v-1h-1l-1,-1h-1v-1h-1v-1v1l-3,-3h-1v-1h-1l-1,-1h-1v-1h-1v-1h-1l-2,-2h-1l-2,-2h-1v-1h-1l-2,-2h-1l-1,-1M830,131h-1v-1h-1v-1h-2v-1h-1v-1h-1v-1h-1v-1h-1v-1h-1l-1,-1v-1l-1,-1h-1v-1h-1v-1h-1h1h-1h2v1v-1l-1,-1l1,1h1v1h1v1h1l1,1l-2,-2v-1h-1v-1v1h1v1h1l1,1v-1h-1l-1,-1h1h-1v-1h-1h1v1h1l-1,-1h1v1h1l2,2h1v1h1l1,1M833,129v-1h-1v-1h-1v-1h-1v-1h-1l-2,-2h1v1h1v1h1l-1,-1l1,1v-1v1h1v1h1v1M833,129h1v1v-1v1h1l-1,-1h1v1h1v1v-1v1h1h-1v-1h-1v-1h-1v-1h-1v-1h-1h1l-1,-1v1h1l2,2h1v1h1v1h1v1h1v1h1h-1M846,139l-2,-2v1h1h-1v-1l-1,-1h-1v-1h-1v-1h-1v-1h-1M855,149v-1l-2,-1v-1h-1v-1l-3,-3h-1l-1,-1v-1h-1v-1l-1,-1h-1v-1h-1l-3,-3h1h-1l1,1h1v1h1v1h1l8,8v-1v1l2,2M865,158l1,1h-1M861,154l1,1v1h1v1h1l1,1v1h1v1h1v1l1,1h1l1,1v1l3,3v1h1v1h1v1h1v1h1v1v-1v1M859,152h-1v-1h-1v-1l-2,-2h1v1l1,1h1v1l4,4v1h1l1,1M299,327h-1v1h-1v-1h-1v1l-1,2v2h2v1h-1v1h-1l1,1v2h-2v1h1v2M291,317v1h-1v1h-3v-1h-1v-1h-4l-1,1l-2,-1h-1l-1,-1h-1v1h-1"/>
<path class="sb" d="M298,284h-2l-1,1h-1l-1,1h-1v1h-3l-1,1h-2l-1,-1h-1v1h-1v1h-1v2h-1v1l-2,2h-1v1h-1l-1,-1h-2v1l-1,1h-2l-1,1v3h-1v1h-1v1l-1,1h-2M261,282v1h-1l-5,5h-1l-1,1v3l-1,1h-1v1M256,282h-2v-2l1,-3v-2l1,-2v-4l1,-2M245,300v-1l1,-1h1v-1h1v-1h1v-1h1v-1h4v1h1v1h2v1h2l1,-1v1h3l-1,1v2h-1M264,261h-1l-1,1v1l-2,2v1h-3v1h-2l-2,1h-6l-3,1v1l-1,2v1h-3v1h1l2,2h1v1l1,1v1h1v1l-1,1v1h-5l-2,1h-2v1l-2,2l-1,2l-1,1v1l1,1h-1v3l-1,1M219,214l-1,1h-5l-1,-1h-2v-1h-2v-6h1v-2h-1l-1,-1v-2l-1,-1v-1h1v-1l-1,-1v-3h-1v-1l-1,-1v-1h-1v1h-4l-2,2l-2,1v1l-1,1h-1v1l-1,1l-1,-1h-1l-1,-1h-1v-1h-1v-3l1,-1v-3h-1l-1,-1l-1,-2v-1h-1v-2l-1,1h-3l-1,1h-3l-1,1v1l-1,1l-2,1h-1l-2,1h-2l-1,1h-4l-1,1l-2,-1h-3l-1,-1h-2l-1,-1h-2l-1,-1l1,-1l-2,1h-1l-1,1h-1l-2,1h-1l-1,1h-1M401,85h-2l-1,1h-2l-2,2h-2l-1,1h-1l-3,3h-1l-2,1h-9l-1,1h-2v1l-1,1h1v1l-1,1h-1l-2,1h-2l-2,1h-1l-3,1h-2l-2,1h-1l-4,2l-1,1h-5v-2h1v-1h1l1,-1h1l1,-1l1,-2h1l2,-2v-1l1,-1v-3l1,-1v-4h-2l-1,-1h-1l1,-1v-1h-1v1h-1l-1,-1l1,-1h-3v-2h-2l-1,-1h-3v-1h-2l-1,-1h-3v-1h-3l-2,1h-1l-1,1h-9l-1,1h-3v-1h-2v1v-1h-1v-1h-2v1h-6v-1h1v-1h1l-1,-1h-1v1l-1,1h-1l-2,1h-4l-2,1h-6l-1,1h-4l-2,1h-4l-1,1h-4l-2,1h-3l-2,1h-2l-1,1h-4l-1,1h-4l-1,1h-3l-2,1h-1l-2,1h-3l-2,1h-1l-2,1h-2l-2,1h-1l-2,1h-2l-2,1h-1l-1,1h-2l-1,1h-3l-1,1h-1l-1,1h-1l-2,1h-2l-1,1h-1l-1,1h-1l-1,1h-1M235,76h-1v1M506,658v2l-2,2l1,1v1l-1,1v3l-1,1v3h-1v5M430,597l1,2v2l-1,3v3h-1v1l-1,1l-3,1h-1l-2,1v1h-1v1l-1,1v1h1v2h1v1h-1l-1,2l1,2v1l1,2v2l-1,1v1l1,1l1,2h1v1h-1v1h-3v1l-1,2v1l-1,2v1l-2,2v1h-1v1l-1,2v4l-1,1v3l1,2v3h1h-1v2h-2v5l-1,1v1l-1,1v2h1l1,2h1v3l1,1v2l1,2h1v1h-1v1l1,1h2v2l-1,1v1l1,2v2l-1,1v1h-1v4l-1,2h-1l1,1v1l1,1v4l-2,2v1h-1l-1,1v4h1l-1,1v1l1,1v3l1,1v2l1,1v1h1v2h-1l-1,1h-1v6h-1v5l1,1h-1v5l1,2v3h1v2l1,1h-2v7h1l1,1h1v1h-1l1,1v1h1v2h1l-1,1v3h5v1h-1v2l-1,-1l-1,1h-3l1,1h3v1h1v1l1,1h-1v1h-1v3h1v1h-1v2l1,1v2l-1,1v1l1,1h-1v1l-1,1v2l-1,1l2,2v1l-1,1v3l-1,1h-1v2h-1v1h-1v1l1,1v1l1,1v1l2,2v1l1,1h1v-1h3v1l1,1v1h-1l1,1v3h2v1h1v1h15l1,1h3v1M466,592v-1h-1v-1l-1,-1l-3,1h-6l-1,3v1l-1,1v2l-1,-1v-1l-1,-1v-1l-1,-1v-1h-9l-2,-2h-1v-1h-1v3h-1l-1,1h-2v2l-2,1v1l-2,2h-5v-6l-2,-2v-2l-1,-1v-2l-1,-2l-2,-2v-2l-1,-1h-1v-2h1l-1,-1v-1h1v-2l-1,-1l2,-2v-1h-1v-1h-1l-2,-2v-1l-1,-1v-3l-1,-1v-2l-1,-1h-1v-2l-2,-2"/>
<path class="sb" d="M405,495l1,2l1,1l1,2l1,1l2,4l1,1l1,2v2h-1v1h-1v7l-1,1l1,1v1l1,1v1l-1,1v1l-1,1v1h-1v1l-1,1v1l2,2v1l-1,1l-1,2l1,1l1,3l1,1h2v1l-1,1v2h-1v1l-2,2v1h-1l-1,1l1,1v2l-1,1h-1v3l-3,3h-1M355,404h-3l3,3v4h-1v1l-1,2v2l-3,3l-1,3l-2,1h-1l-1,1l-1,2h-2l-4,2l-1,1h-1l-2,1h-1l-1,2v1h-1v1h1h-2v3l-1,1v1h-1v5h-1l-1,1v2h-1v1h-3v-1l-1,-1v-2h-3l-1,-1h-2l-1,1h-1v-1l1,-1h-1v-2h2v-4l-1,-1M400,437v-1h-1v-1h-1v-1l-1,-1v1h-1l-2,-1l1,-1l1,-3l2,-2l1,-2v-2h-2v-1h-1l-1,-1h-1l-2,-1h-2v1h-3v-1h-3v1h-2v1h-8l-1,-1v-4h-2l-1,-1v-2l-2,-2v1l-1,-1h-1v-1h-2v-1h-1v-2l-1,-1v-1h-1l-1,-1h-1v-1h-2l-1,-1l-1,1l-1,-1l-2,-1h-2l-1,-1v-1h-3v1h-3v1h-1v-1h-4l-1,-1v-2h-1l-1,-1h-3l-1,-1h-1l-1,-2h-2v-1h-1v-1M427,389v-1l-1,-1v-2l-1,-1v-2l-1,-1v-2h-1l-1,-1v-1h-1v-1h-3l5,-5v-1l-1,-2h-1l-1,-1v-2l-1,-1v-10h1v-1l1,-1v-2h1v-2l-1,-1h-3l-2,1h-8l-1,1l-1,-1l-1,1l-1,-2l-3,-3l-1,-2h-3l-1,-1h-2l-2,1h-9l-1,-2v-1h-2v-4l1,-1v-3l-2,-2l-1,-2v-2h-2v-1l-1,1h-2l1,-1v-1l2,-2v-1l1,-2v-1l2,-5v-1l2,-2l2,-1l2,-3l1,-1h2l1,-1h2v-1M480,355l-4,-4l-1,-2l-1,-1h1l1,-1v-1h1v-2h-1v-1l1,-1h2v-1l1,1l1,-1l2,-1h1v-2h-3v-1l-1,-1v-1h1v-1l1,-1h2v-1l1,-1h1l2,-2l-2,-2M517,382l-1,-1h-1v-1h-1v-1l-1,-1v-1l-1,-1v-1l-1,-1v-2h-1v-2h-3v-1l-2,-2v-1l-2,-2v-1h1v-1l1,-1v-4h1v-1h4v-1h1v-1h-1v-2h1M533,379h1l3,-3v-4l1,-2l1,-1v-1h-1v-1l-1,-1h-1v-2l-1,-1v-4l-1,-1l1,-1v-1l2,-2v-1M537,688h-1v-6h1l1,-1v-1h1v-1h-1l-1,-1h-1v-1l-1,-1v-2h-1l-1,-1h-1l-3,-3v-1l-3,-1h-2v-1l-2,-2v-1h-1v1h-1v1h-2v-3l-1,-1l-2,-1l-2,-3h-3v1h-3l-1,-1h1l2,-2v-1h1l4,-4v-1l1,-1h1v-2l1,-1h1v-1h1v-1h1v-1l1,1v-2l1,-1h1l2,-2h1v-1h1v-1h1v-1l1,1v-1h3v-1l1,-1h1l1,-1h1v-1l1,-1v-7l-1,-1v-2h-1v-1h-5M502,573h1v-1h2l-2,-1v-2l2,-4v-1h1v-1h-1l2,-4v-2h1l-1,-1v-2l-1,-2l-1,-1v-1v1l-1,-1l-2,-1l-1,-1h-1v-5l1,-1v-2h-15l-1,-1v-6l-1,-2l-2,-1l2,-1h1l-1,-5v-1l-1,-1v-4h-1l-1,-1l-2,-1h-7l-1,-1h-1l-1,-2h-2l-2,-1l-1,-1h-1l-1,-1h-1v-1l-1,-1v1h-2l-2,-2h-1l-2,1l-1,-1h-3v-1l-2,-2h-1v-1h-2v-1l-1,-1v-1l-2,-2v-6l-1,-1v-1l1,-1v-5l-1,-1l-1,1h-6l-1,1h-2l-1,1l-3,2l-1,1h-1l-3,3h-2l-1,1h-1l-1,2h-1l-1,1h-2l-1,-1h-9l-1,1h-3l-1,-1v1h-1v-11h1l-1,-1v-1l1,-1l-2,2h-1l-1,1v1h-1l-1,1h-1l-2,1h-5v-1l-1,-1v-2h-1l-2,-1h-5l2,-2v-2h-1v-1l-1,-1h-1v-2h-1v-1h-1v-2h-1v-1h-1v-1h1v-1h-1l-1,-1h-1v-2h1l1,-1v-4l2,-1l2,-2h1v-2l-1,-1v-1l1,-1v-1l1,-2v-1l1,-2v-2h2l3,-3l2,-1l1,-1h3l1,-1h2l2,-1l1,-1h3l1,-1v1l1,1h1v-1l1,1v-1h1v-5l1,-3v-3l1,-3v-3l1,-2v-4l1,-2v-3h-1v-1l-1,-1v-2l-1,-1h-1v-1l-2,-1v-6h1l1,-1h2l1,-1h1v1h2v-3h-1v-1h-5v-5h2v-1h1l1,1h2l2,-1h6v-2h1v1l1,1h2l1,-2v-1h3l1,2l1,1v5l2,-1l2,2l2,1v1h3v-1h1l1,-1h2v2h1v-1h1l1,-1v-1h1l1,-1h1l1,-1h1l1,-1h2l2,-2v-2l1,-1h1l1,-1h2l1,-1v-2h-6v-1l1,-1l-1,-1l-1,-2v-4l-4,-4v-1l-1,-1h1v1h5v1l1,1h2l1,-1v1h1l1,-1l3,3h2l1,-3v-1h2l1,-1l2,1l5,-2l1,-1h1v-1h3l2,-2h1v-3h-1l1,-1l1,1h1v-1l1,1v-1h1l2,2l-1,1v2l-1,1h2v1h2v2l1,1v2l-2,2v3l-1,1v6l1,1h1v5h2v1h1v1l1,1h2l1,1h3v-1h1l-1,-1h1l1,-1h1l1,1l1,-1v-1h4v-1l1,-1h2l1,-1v1h7l2,1h1v-2l-2,-2h1v-2h1l2,1h3v-1h4v1h2v1h1v1h3v1h1v-1h1l1,-1h1l2,1l1,-1h1v1h4v-1h1v-1l1,-1v-1l1,-1v-1h1v-2h1v-1l1,-1l1,-2l2,-2v-1h1"/>
<path class="sb" d="M838,215l-1,-2v-2l-1,-1v-1l-1,-1v-1l3,-3h1v-1h2v1h1v-2l1,1h3v-3l1,-1h1l1,-1h1v-1h-1v-1l-1,-1v-1h-1v-1h3v-1h-1v-1h2v1h3v1h2l-1,-1v-2h-1v-1h-1v-1h-1l-1,-2h-1l-1,-1v-2l-2,-2v-1l-2,-2v-1h-1v-1h-1v-1l-2,-2h-1v-1M900,221l-2,-4v-1l-2,-2l-2,-4l-7,-7v-1l-4,-4v-1h-1v-1l-3,-3v-1l-1,-1v-2l-1,-1v-1l-1,-1v-1l-1,-1h-1v-1l-2,-2l-2,-4l-2,-2h1l-1,-1M932,273l-1,-1l-2,-4l-1,-1l-1,-2l-2,-1h-1v-1l-1,-1v-1l-2,-2v-2h-1l-1,-3l-3,-3v-1l-1,-1v-1h1l-1,-1v-2h-1v-1l-2,-2v-2l-1,-1l-3,-6l-2,-3v-1l-1,-1v-1l-3,-3l-1,-2l-1,-1l1,-1v-1l-1,-1v-1l-1,-1l-1,-2l-1,-1v-1l-1,-1h1h-1v-3h1h-1v-1h-1v-1l-1,-1v-1l-1,-1M961,306l-2,-4l-1,-1v-2l-2,-4l-1,-1v-2l-2,-4l-1,-1l-2,-4v-2l-1,-1l-2,-4l-1,-1l-1,-2v-2l-1,-1l-3,-6l-1,-1l-2,-4l-1,-1l-1,-2v-2l-1,-1M967,324v-1l-1,-1v-1h1v1l-2,-4l-1,-4l-2,-4l-1,-4v1l1,1v1M808,250h3l2,1h2l1,1h4l1,1v-1h1v-1l-1,-1v-1h1v-1l1,-1v-1h-1v-4l-1,-1v-4l1,-1h2v-4h1l2,-2v-1h-1v-6h-1v-1h2v-4l-1,-1h5l1,1h1l1,1h1l1,-1h3v-1h-1v-2l-1,-1l2,2v1M809,255v-4h2l1,1h4l2,1h4l1,1h3l1,1h4l1,1l-1,-1v-2l-1,-1v-2l-1,-1v-2l-1,-1v-3l2,-2l1,1v-1h1v-2l-1,-1v-2l-1,-1v-2l-1,-1v-2l-1,-1v-1l-1,-1v-2l-1,-1v-1h3l1,1h4l1,1h3l1,1h4l-1,-2v-1l-1,-2l-1,-1v-2l-1,-1l2,1l3,3l2,1l3,3l2,1l2,2l1,2l2,1l4,4l2,1l3,3M849,307l1,1v-1h1v-5l1,-1l1,1l1,2l2,2v-1l1,-1h1l1,1h5l-1,-1h1v1h1l1,1h3l2,1h3l1,1h2l1,1h3l1,1h2v-6l-2,-2l-1,-2v-2l-2,-4v-2l-2,-4v-2l-3,-6v-2l-2,-4v-2l-3,-6v-2l-1,-2l-1,-1l-2,-4v-2l-4,-8v-2l-1,-1l-4,-8l2,1h3l6,3l18,18l3,2l6,6l2,3l4,4l1,2l2,2v1l3,3v1l1,1h1l1,1l1,2h1v1h1l1,1h1v1l1,2v3h1v1h4M913,323h3l1,-1h2l1,1h2l2,1l-1,-1h1l1,1h1l-1,-1l1,-1v-6l-1,-2v-2l-2,-4v-2l-1,-3l-1,-2v-2l-1,-2v-2h5v-2l1,-1v-4l1,-1v-1l1,-2l1,-1v-2l1,-1l1,-2v-2l1,-1v-2l2,2l1,2l2,1v1l2,2l2,3v-2M962,354l-1,-4l-1,-2v-17l-1,-4l-2,-4l-2,-7l-3,-9v-3h-1l-1,-3l-3,-6v-1h-1v-1l-3,-6l-2,-5v-1h1v-1l1,2l2,3l2,2l1,3l2,2l2,3l1,3l2,2l1,3l2,2l1,3l2,3l1,2l1,3l2,3l1,2l2,7l2,3l4,15l2,3l1,4v1l-1,-1v1l1,2v3h1v5h1v5h1v5l1,1v1l1,1v3l1,1v2l1,2v3l1,1v3M821,294v-3h1v-2h9l1,1h2l1,2l2,2v1l1,-1v1h2v1l1,1v2h1v1h1l1,1v1h1v1l5,5v3h1v2l1,1v3l1,1v1h2v2l2,2v4M824,311l2,1h2l2,1h1v-1l1,-1h1l1,1l2,1l2,2h3v1h1v1h-4l-2,-2h-1v-1h-1l-1,-1v2l-1,-1h-2v2h-2l-1,-1h-3"/>
<path class="sb" d="M825,321h4l2,1l1,-1h1l1,-1l2,1h3l2,1h2M837,335l1,-1v-3h1v-1v1l1,-1h4v-3h-1v-2h1v-1l-1,-1v-1l2,1h2v1h1v1v-1h1v1h1v1h1l1,1h1l1,-1l1,1h2v2l1,1v1h1v-1h1v-1l1,1v1l1,1h1v-1l1,-1l1,1h1l1,1h1v-1h1v-2h1v1h1v1l1,1v1l1,2v2h1v1h1v1h1v1h-1v2h1l1,1v3l1,1l1,2h1v1M892,351v-12h3v-4l-1,-1h2l-1,-1v-4h1v1l2,1v1l1,-1v-3l1,1l1,-1h-1v-2l1,-1v-1h1l1,2l1,-1v-2l1,1v-1h1l2,-2v-1l1,1h1l2,1l1,1v3l1,1v1l1,1v2l2,2v1h1v1l2,2h-1v2h1v1l1,1l1,2h1v1h1v-1l1,1v1l1,1h-1v1l1,1l1,2v1M850,352h2v-1h1v-2h1v-3h1l1,1h1v-1h2l1,1h2v1l1,1v1l1,2l1,1v2l1,1v1l1,1v1l-1,1v2h1l1,-1M863,372v-1l1,-1v-1h1v-1h1l1,-2v-3h1v-2h2v1l1,-1l2,2v2h1v6h1l1,1v1h1l1,-1v-2h1v1M887,399v-2l-1,-2v-2h1v-6l-1,-1v1l-1,-1v-1l-1,-1v-1l-1,-1h-1v-1h-1v-1h-1v-1l1,-1v-3l-1,-3v-1h-1h2v-3h1v-1l-1,-1h-1v-2h2l1,1v-2l-2,-2v-1l1,-1h-1v-3h-1l-1,-1v-5h1l1,-1v-1h1v1h1v1l1,1h1v-1h1v-2h1v1h1l-1,-1h1v1l1,1v2h1v-1h2l1,1h1v1h1v1l1,1v2h1v1h1l1,1h1v-1h3l1,1h1v1l1,1v1h1v1h1M910,399h1v-4h-1v-2l-1,-1v-1l-1,-3v-6h1v-7h1v-1l-1,-3v-3l-1,-1v-4l-1,-2v-2l-1,-1v-3l-1,-1v-3h3l2,1h1l2,1h2v1h1v-1h2M929,397v-1h-1v-1l-1,-1v-2h-1v-2h-1v-1l1,-1h-1v-6l-1,-3v-1h1v-1l-2,-2v-7h-1v-1v1h-1v-1h1v-1h-1v-5l-1,-1v-1l-1,-1v-1h-1v-4l3,3h1M931,397v-3l-1,-1v-6l-1,-3v-5l-1,-2v-5l-1,-1v-1l-1,-1v-4h-1v-1l-1,-2l-1,-1h-1v-6h1v1v-2h1v-1l1,1h1l1,-1v-5h1v-1l1,1l1,2l1,1v1l1,1v1M935,397v-9l-1,-1v-4l-1,-2v-6h1v-6h1v-3h-1v-1h1v-3l-1,-1v-2l-1,-1v-2h-1v-2h1v-1h-1v-5l-1,-1h1v-8h2l1,1l1,-1l5,5v1l1,3h1v1l2,-2l1,1l2,3l3,3h1l1,-2h2l2,1l2,2v1l1,1v-2l1,-1v-1h1v1l2,4l1,1M959,420v-10l1,-1v-2h1v-2l1,-1v1h1v-1l1,1v1l1,1v2l1,1l1,-1v-15h1v-4l-1,-1v-1l1,-1v-3l-1,-1l1,-1v-1l-1,-2v-4h1v-1h1v-1h-1v-5l-1,-1v-1h-1v-3l-1,-4v1l1,1v1l1,1v1l1,2v3h1v3l1,1v4l1,3v1l1,2v1l1,1v2l1,1h-1v-1h-1l-1,-1h-1v-1v4l1,1v2l2,4l1,1v2l1,2v2l1,2v3M982,454v-1l-1,-1v-6h-1v-4l-1,-1v-2l-1,-1v-5l-1,-1v-5l-1,-1v-6h-1v-2l1,-1v-9h1v1h1v-2l1,1v1h1v-1h1l1,1v-1h1v-4l-1,-1v-1h1v1h1v-1v1v-1h1h-1l1,-1v-6l-1,-1v-2h1v-1v1l1,1v1l1,3v2l1,2v3l1,3v4l1,1v1M997,449v-1l-1,-1v-6l-1,-1v-6h-1v-4l-1,-2v-4l-1,-1v-4l-1,-1v-2l-1,-1v-9l-1,-1v-3l1,1v3l1,4v1v-1l1,2v3l1,1v-2h-1v-1M964,443v1h1l2,2h2"/>
<path class="sb" d="M964,453v1h2v1h1l1,1h1v-10h2v1h1l2,2v1M967,498l1,-1v-1l1,-1v2h1v-7h-1v-2h1v-2h1v1h1v-4h1v3l1,1v1l1,1v-1h1v-1v4h1v-5l1,-1v-11l-1,-1v-1l-1,-1v-4l1,-1v-1h1v-4l-1,-1v-2l-1,-1h-1v1v-1h-1h1v-1h-1v-6h1l1,1h1l1,1v1v-1v1h1v1l2,2v2l1,1v-15h2l1,1v2h1v-1v2M973,507v3h1v-2l1,-1v1v-1h1v5h1v-1l1,-2l1,-1v-1h1v-1l1,-1v-5l1,-1v-9l1,-1v-3l1,-1v-1l2,-4v-29l1,-2l-1,-1v-12l1,-1l1,1v2l1,1v4h1v2h1v1l1,1v-2l1,-1v2l1,-1l1,1v-1l1,1v2l1,1v6l1,1v6l1,2v5M1000,508v-25M1000,480v-2h-1v-8M999,519v-10h1v-1v1v-2M998,534v-5l1,-2v-8M995,568v-5l1,-1v-9l1,-2v-9h1v-8l1,-2v-13h1v-10M969,509h1v-2h1v-1h1v-1v2h1v1h-1l-1,1v4l-1,3h-1M972,518v1v-1h1v1h1l2,2h1l1,1h1v1h1v22h1v1l1,-1h1v1l1,1v-3l1,-1v-3l1,-1h1v4l1,1v1h1v1l-1,2v6l-1,3v4l-1,3v7l-1,1v4h-1v3l1,-1v1h1v1h1v-1M972,635v-8l1,-1v-5l1,-3l1,-2v-2l2,-6v-2l2,-6v-2l1,-3v-1h1v1h1v1l1,1v-2l1,-1v-2l1,-2v-4l1,-1v-3l1,-2v-1v4l-1,1v1l1,-1h1v1h-1v8h1v-2v5l-1,1v1h1l-1,1v6l-1,1v4l1,-2v-2l1,-2v-3l1,-1h-1v1v-4l1,-1v-5l1,-2v-2l1,-1v-3l1,-2v-5l1,-3v-2l1,-1v-2h1v3l-1,1v7l-1,1v2M985,621v-2h1v-4h1v-4l1,-1v-3l1,-1v-4h1v-5l1,-1v-4l1,-1v-4l1,-1v-1M949,612h2v1h2v-1h1v2l1,1v3h1l1,1h1l2,2h1l2,2h1v1h1v2l-1,1v1l2,2v1h1v2h1v1h2v1h3v1h1v1h-1v2M945,687v-1l1,-1l1,-3l3,-6l1,-3l1,-2v-2l1,-3l1,-1h1v1h1v-2l2,-3l3,-10l2,-3l3,-10l1,-2v1h4v1l-1,2v2l1,-1v-2h1v1l1,-1M963,681v-2l1,-1v-4l1,-2v-2h1v-3h1v-4l1,-1v-4l1,-1v-2l1,-2v-2l1,-1v-3l1,-2v-3l1,-1v-1v2l1,-1v2l1,-1l1,-2v-1l1,-2v-1h1v-1h1v-2l1,-1v-2l1,-1v1M924,711h1v-1v1v-1h1v-1l1,-1v3h-1v2h-1v1h1v2h1v2h1v-2h1l1,-1h1v-1l2,-3l2,-4l2,-3l1,-4l2,-3l2,-4l1,-3l2,-3l-1,2v2l-2,4v3h-1v1l-1,1v1l-2,2v1h1v2h1v-2h1l2,-2v-1h1l1,-1v-2h1v-1l1,-1v6l1,1v-1l2,-2v-1l1,-2l1,-1h1v-1l1,-1v-1l2,-3v-1h1v-1h1v-1h1v-2h1l1,-2l1,-1v-1h1v2l-1,1h1v1l-1,1M946,722v1l-2,2v-1h1v-2l1,-1v-2l2,-2l1,-2v-1l1,-1v1l-1,1h1M946,723v-1l1,-3h1v-1l1,-1v-2h1v-2l1,-1l3,-6v-1l1,-2l1,-1l1,-2v-2l1,-1v-1l1,-1v-2l1,-2l1,-1l1,-2v-2h1v-1l1,-1v-1l1,-1v-1l1,-2v-1l1,-1v-1l1,-1v-2l1,-1v-1l1,-1v-2l1,-1v-1l1,-1v-3h1v-3h1v-2l1,-1v-2l1,-2l1,-3v-1l1,-2v-2h1v-3l1,-1v-4l1,-1v-5l1,-1v-3l1,-1v-1l1,-1v-1h1v-1v1l-1,2v3l-1,1v2l-1,1v3l-1,2v2l-1,1v2l-1,1v2l-1,1v3h-1v2"/>
<path class="sb" d="M932,741h1v-1l1,-1v-1h1v-1l1,-1v-1h1v-3l1,-1v-1h-1v1l-2,2v1h-1v1h-1v1l-1,1v1l-1,1v1l-1,1v2h-1v1h1v-1l1,-2h1"/>
<path class="si" d="M533,607v4l-1,3v2l-1,1l-1,2v1"/>
<path class="sg" d="M 266.4248 941.2875 A 249.7500 50.7246, 0, 1 1, 732.5752 941.2875"/>
<path class="sg" d="M 70.0335 754.5663 A 432.5797 87.8576, 0, 1 1, 928.9665 754.5663"/>
<path class="sg" d="M 0.0000 499.5000 A 499.5000 101.4493, 0, 1 1, 999.0000 499.5000"/>
<path class="sg" d="M 70.0335 244.4337 A 432.5797 87.8576, 0, 0 1, 928.9665 244.4337"/>
<path class="sg" d="M 266.4248 57.7125 A 249.7500 50.7246, 0, 0 1, 732.5752 57.7125"/>
<path class="sg" d="M 324.1628 31.7852 A 430.0324 499.5000, -200.55004256, 0 0, 674.8372 967.2148"/>
<path class="sg" d="M 437.6835 3.8399 A 255.9281 499.5000, -187.10896186, 0 0, 561.3165 995.1601"/>
<path class="sg" d="M 496.7510 0.0076 A 13.2481 499.5000, -180.31532357, 0 0, 502.2490 998.9924"/>
<path class="sg" d="M 554.1331 2.9968 A 232.9817 499.5000, -173.72067287, 0 1, 444.8669 996.0032"/>
<path class="sg" d="M 656.3551 25.2672 A 416.7843 499.5000, -161.69808853, 0 1, 342.6449 973.7328"/>
<path class="sg" d="M 994.6129 433.4435 A 488.9098 499.5000, -97.59935603, 0 1, 4.3871 565.5565"/>
<text x="0" y="0" class="fs" transform="translate(101,249) rotate(110)">120W</text>
<text x="0" y="0" class="ft" transform="translate(101,249) rotate(110)">120W</text>
<text x="0" y="0" class="fs" transform="translate(263,214) rotate(103)">90W</text>
<text x="0" y="0" class="ft" transform="translate(263,214) rotate(103)">90W</text>
<text x="0" y="0" class="fs" transform="translate(487,201) rotate(90)">60W</text>
<text x="0" y="0" class="ft" transform="translate(487,201) rotate(90)">60W</text>
<text x="0" y="0" class="fs" transform="translate(715,212) rotate(77)">30W</text>
<text x="0" y="0" class="ft" transform="translate(715,212) rotate(77)">30W</text>
<text x="0" y="0" class="fs" transform="translate(885,245) rotate(69)">0W</text>
<text x="0" y="0" class="ft" transform="translate(885,245) rotate(69)">0W</text>
<text x="0" y="0" class="fs" transform="translate(620,876) rotate(6)">60S</text>
<text x="0" y="0" class="ft" transform="translate(620,876) rotate(6)">60S</text>
<text x="0" y="0" class="fs" transform="translate(707,663) rotate(7)">30S</text>
<text x="0" y="0" class="ft" transform="translate(707,663) rotate(7)">30S</text>
<text x="0" y="0" class="fs" transform="translate(737,406) rotate(7)">0N</text>
<text x="0" y="0" class="ft" transform="translate(737,406) rotate(7)">0N</text>
<text x="0" y="0" class="fs" transform="translate(705,174) rotate(7)">30N</text>
<text x="0" y="0" class="ft" transform="translate(705,174) rotate(7)">30N</text>
<path class="tb" d="M127,998h-2l-1,-1h-2l-1,-1h-2l-1,-1h-2v-1h-3v-1h-2l-1,-1h-2v-1h-2l-1,-1h-2v-1h-2v-1h-2l-1,-1h-2v-1h-2v-1h-2v-1h-2v-1h-2v-1h-2v-1h-2v-1h-2v-1h-2v-1h-1l-1,-1h-1v-1h-2v-1h-2v-1h-1v-1h-2v-1h-1l-1,-1h-1v-1h-2v-1h-1v-1h-2v-1h-1v-1h-1l-1,-1h-1v-1h-1v-1h-1l-1,-1h-1v-1h-1v-1h-1v-1h-2v-1h-1v-1h-1v-1h-1v-1h-1l-2,-2h-1v-1h-1v-1h-1v-1h-1v-1h-1v-1h-1v-1h-1v-1h-1v-1h-1v-1h-1v-1h-1v-1h-1v-1h-1v-2h-1v-1h-1v-1h-1v-1h-1v-1l-1,-1v-1h-1v-1h-1v-1l-1,-1v-1h-1v-1l-1,-1v-1h-1v-1l-1,-1v-1h-1v-2h-1v-2h-1v-1l-1,-1v-1l-1,-1v-1l-1,-1v-2h-1v-2h-1v-3h-1v-2h-1v-4h-1v-3h-1v-5h-1v-6l-1,-1v-17h1v-7h1v-4l1,-1v-3h1v-3h1v-3h1v-2l1,-1v-2h1v-2h1v-2h1v-2h1v-2h1v-2h1v-2h1v-1h1v-2h1v-1h1v-2h1v-1h1v-1l1,-1v-1h1v-1h1v-1l1,-1v-1h1v-1h1v-1h1v-1h1v-1h1v-1h1v-2h1v-1h1v-1h1v-1h1v-1h1l3,-3h1v-1h1v-1h1v-1h1v-1h1v-1h1v-1h1l1,-1h1v-1h1v-1h1v-1h1l1,-1h1v-1h1v-1h2v-1h1v-1h1v-1h2v-1h1v-1h2v-1h1v-1h2v-1h1l1,-1h1v-1h2v-1h1l1,-1h1v-1h2v-1h2v-1h2v-1h1l1,-1h1l1,-1h1l1,-1h1l1,-1h1l1,-1h2v-1h2v-1h2v-1h2l1,-1h2v-1h2v-1h2l1,-1h2v-1h3v-1h2l1,-1h2v-1h3v-1h3v-1h159v1h3v1h3v1h2l1,1h2v1h3v1h2l1,1h2v1h2v1h2l1,1h2v1h2v1h2v1h2l1,1h1l1,1h1l1,1h1l1,1h1l1,1h1v1h2v1h2v1h2v1h1l1,1h1v1h2v1h1l1,1h1v1h2v1h1v1h2v1h1v1h2v1h1v1h1v1h2v1h1v1h1l1,1h1v1h1v1h1v1h1l1,1h1v1h1v1h1v1h1v1h1v1h1v1h1l3,3h1v1h1v1h1v1h1v1h1v2h1v1h1v1h1v1h1v1h1v1h1v1l1,1v1h1v1h1v1l1,1v1h1v1h1v2h1v1h1v2h1v1h1v2h1v2h1v2h1v2h1v2h1v2h1v2l1,1v2h1v3h1v3h1v3l1,1v4h1v7h1v17l-1,1v6h-1v5h-1v3h-1v4h-1v2h-1v3h-1v2h-1v2l-1,1v1l-1,1v1l-1,1v1h-1v2h-1v2h-1v1l-1,1v1h-1v1l-1,1v1h-1v1l-1,1v1h-1v1h-1v1l-1,1v1h-1v1h-1v1h-1v1h-1v2h-1v1h-1v1h-1v1h-1v1h-1v1h-1v1h-1v1h-1v1h-1v1h-1v1h-1v1h-1v1h-1l-2,2h-1v1h-1v1h-1v1h-1v1h-2v1h-1v1h-1v1h-1l-1,1h-1v1h-1v1h-1l-1,1h-1v1h-1v1h-2v1h-1v1h-2v1h-1l-1,1h-1v1h-2v1h-1v1h-2v1h-2v1h-1l-1,1h-1v1h-2v1h-2v1h-2v1h-2v1h-2v1h-2v1h-2v1h-2v1h-2l-1,1h-2v1h-2v1h-2l-1,1h-2v1h-2l-1,1h-2v1h-3v1h-2l-1,1h-2l-1,1h-2l-1,1h-2Z"/>
<path class="tl" d="M169,986h1v1h-3l-1,-1h2v-1ZM114,989h-3l-1,-1h2l1,1ZM176,983h1l1,1v1h1l-1,1h-2l-1,1h-1l-1,-1l1,-1v-2h1v-1ZM124,980h2v1h-1ZM122,980l1,1h-1l-1,-1ZM136,977h1h-2ZM156,974v1l1,1h-5v-1l1,-1v-1l-1,-1l1,-1v1h1l1,1ZM158,964v1h-2v2h1l-2,2v1h1l1,1h1l4,4v1l1,1v1h-1v2h-1l-1,1h-1v1h-2l1,1h1v1h-2l1,1h1v1h3l1,1h3l1,1h3l1,1h1l1,1v-1h1v-1h2l2,-1l1,1h1v-1h4v-1h3l1,-1h-1v-1h-4l-1,-1l1,-1h1l2,-2h4l1,-1h1l2,-2h-1v-1h1v-1h2v-1l1,-1h1v1h1v-1h8v-1h3v-1h1l1,1h2v-1h1v1l1,-1h4v1h6v-1h3v-1h2v1h3l1,-1h3v-1h2l1,-1h2l1,-1h4v1h1v1h1l1,1h1l1,-1l1,1h2v1l-2,2h-1v1h1h-1v1h-1v1h2l2,-2h1v-1h3l1,-1h1v-1h2l1,-1h5v-1h1v1h5v1h1l1,-1l1,1l1,-1h1l2,-1v1l1,1h3l1,-1h2v1h1v1h4l1,-1v1h9l1,-1l-1,1v1h-1h3l1,1h2l-1,1v1h1v1h2v1h1v2h2l1,1v1h-1l-1,1h-2l-1,1h-3l-1,1h-2l-1,1h-2l-2,2v1h-5l-1,1h-2v1h-1v3h2l-11,4h-155l-11,-4h-1h2l1,-1l1,1h14l-1,-1h-7v-1h-2v-1h-3l-1,-1h4v-1h-2l-1,-1h-7l-1,-1l-2,-1l1,1l1,-1l2,1v-1h1v-1l-1,-1h-1h2v-1h2v-1h4l1,-1h5l1,-1l1,1v-1h1l1,1h1v-1l1,1h6v-1h-2l-1,-1h-1l-1,-1h4l1,1h1l1,-1h3l-1,-1h1l1,1l1,-1l1,1h3v-1l1,1h4v-1h2l1,-1v-1h-1v-1h-1v-1h-1v-1h-1v-2l-1,-1v-1h1v-2h1v-1h1v-1h1l1,-1l1,1ZM144,951l2,1h1v1h-1v-1v1h-4l-2,-2l-2,-1l2,1h2v-2h1v1ZM151,947h1v1h-2v1l-1,-1l1,-1ZM269,946h-1v-2h1l1,1ZM345,939v1h1l1,-1v1l-3,3v-1l-1,1h-1l1,-1v-1l1,-1v-1ZM368,943v1l1,-1v1h-1l-3,3h-1l-1,1h-1l-2,2h-2v1h-1v-1h-1v-1l4,-2h1l1,-1h2l2,-2h1l2,-2ZM376,936l-1,2l1,-1l-1,1l1,1h1l-2,2h-1l-2,2l-2,1h-1l2,-1v-2l1,-1l2,-1v-1l1,-1v-3l1,-1v1l1,1ZM382,913l-1,1v-2l-1,-1v-1h1v1l1,1ZM397,906v1l-1,1h-1v-1l1,-1v1ZM398,906h-1v-1h1l1,-1v1ZM10,905v-1ZM386,904v-1ZM386,901v2h-1v-1ZM259,895v2l1,1h-1v1v-1v2h-1v3l-3,6v2h-1l-1,1l-1,-1h-1v-5h1v-2l1,-1h-1v-3h1v-1h1l2,-2h1v-1l1,-1v-1l1,-1v1ZM361,898v1h1v1h1l-1,1v2h1l-1,2v1l2,2v4h1l-1,2l1,1v3l-1,1v2l-3,3v1l-1,1l-1,2h-1l-1,2h-1l-4,4v1h-2l-1,1h-1l-1,1v-1h-1l1,-1h-1l-1,1h-1v-1h-1v-3h1l-1,-1v-1l1,-1l-1,1h-1l3,-3l-2,1h-1l-1,2v-4l-2,-2h-2l-1,1h-4l-2,2h-4l-1,1v-1l-1,1h-2v-1h-1l1,-1v-1h1v-3l1,-1v-7l1,1v-3l1,-1v-1l1,-1l-1,1l2,-2h1l1,-1h2l1,-1h2v-1h1l1,-1v-2l1,-1v2l1,-1v-1h1v-1l2,-2h2v1h2v-2h1l1,-1v-1h2v-1h-1h1l1,1h3l1,1h-1v1h-1v1l-1,1v1l2,2v1h1l1,1h1v-1l1,-1v-1l1,-1v-3l1,-1v-2h1v-1v3l1,1Z"/>
<path class="tl" d="M383,894h-1v-1v1ZM337,892l-2,-1h2ZM381,893h-1v-1h1ZM382,892v-1l-1,-1h1ZM341,892h-1l3,-3h2l-1,1h-1l-1,1ZM335,889h1v1h-3l1,-1ZM340,889v1h-3v-1h2ZM381,890v1l-2,-2h1v1ZM378,889v-1h-1v-1l1,1ZM325,887h2v-1l2,1v1h2l1,1l-1,1l-1,-1h-4l-1,-1h-1l-2,-1h-1l1,-2h1l1,1ZM353,886v1v-2ZM377,888h-1v-2l-1,-1h1v2h1ZM373,885l-1,1h-1l-1,1l-1,-1h-1l1,-1l1,1v-1h2v-2h1v1ZM345,882h-1v-1h1ZM349,881v2l-1,-1h-2v-1h2ZM374,884l-1,-1v-1l-1,-1h-1h2v2h1ZM353,878v3l2,1v-2l2,-1h1l1,1h1l1,1l4,2v1h1v1l2,1v1h-1v1l1,1v2h1v1h1h-1l1,1l-1,1v-1h-2l-1,-1v-3h-3l-1,1v1h-2l-2,-2v1h-2l1,-2h1l-1,-2v-1l-2,-1h-1l-1,-2l-1,1l-1,-1h1l-1,-1l1,-1h-1v-1h-1l-1,-1h2v-1ZM343,875l-1,1h-4v1l1,2v-1h2l-1,1h-1l1,2v1l1,2v1h-1v-2l-1,1v-1l-1,-1l1,-1h-1v4h-1v-3h-1v-1l1,-1v-4h1v-1h4l1,-1ZM347,875v1h-1v1l1,1h-1v-4h1ZM321,885h-1l-2,-2v-1l-2,-2l-1,-2v-2l-1,-1v-1l-4,-4v-1h2l3,3l1,2h1l2,2h1l-1,2h1v1l1,1h1v3ZM335,874l1,1h-1v3l-1,1v1l-1,3v-1l-1,1l-1,-1h-1v-1l-1,1l-1,-1h-1l-2,-4v-2l1,-1h2v-2h2v-1l1,-1v-1h1l1,-1v-2h1v1l2,2v1h-1l-1,2l1,1ZM344,864v3l-1,-1v2l-2,-2h1l-1,-1v1l-1,-1l-1,1v-1l1,-1h2v-1h1v-1l1,1ZM294,868h-1v-1l-1,-2l1,-2l1,1v1l1,1v1ZM137,863h-1l1,-1h1ZM341,861v1l-1,1l-1,-1l1,-1v-1v1l1,-1ZM335,863l-1,1v-1l1,-1v-1l1,-1v1l-1,1ZM338,859h2v1l-1,1v-1h-1ZM342,858l1,2h-1v1v-1h-1v-1h1h-1v-1ZM338,857l-1,1l-1,-1h1ZM336,849h1v6h1l2,1v2l-1,-1v-1v1l-1,-1h-2v-1h1h-1l-1,-1v-5ZM133,851v1h-1v-1ZM121,852h-1v-1h2v1ZM126,849h3v1h1v1h-2l-1,1v-1h-1v-2h-1ZM324,849l-1,1h-1v-2l1,-1h1v1ZM37,846v-2h1v2ZM38,844h-1v-1h1ZM119,845h2l1,1v1h1v1h2l-1,1h-3v-1h-1v-2h-2l-1,-1h-1h1h-2l-1,1h-1l2,-2h3ZM122,843h-1v-1l1,-1v1ZM334,843v1l-2,-2v-2l1,-1l1,1ZM122,839l-1,1v-1ZM123,839v1v-1h-1ZM340,825h1v1h-1v1h-1v-2ZM240,828l-2,2v-1h-1h2ZM229,828v1h-1ZM220,825v2h-1l-1,-1h-1v-1h2ZM214,821v3h-1v-3ZM344,820v1l1,1v1l-1,1h-1l-1,2l-1,-1v-1l-2,1l-1,1h-1l2,1v3l-1,-1v-1h-1l-1,-1l1,-1v-3h3v-3l1,1v-2h1l-2,-4v-1l3,3v1ZM214,820v1l-1,-1v-1l1,-1ZM340,810l1,-1l1,2h-1v2l-2,-1l1,2h-1l-1,-2l-1,-1h1l-1,-2l-1,-1l3,1ZM144,812l1,1h1h-2ZM147,809h-1l-1,-1h1ZM92,806h-1l-1,-1v-2h-1v-1h1l1,1v1l1,1ZM153,807l-1,1h1v1h2l-1,1h1v1l-1,2l-1,-1l1,-1l-2,1v-1h-3l1,-1h-1l4,-4h1Z"/>
<path class="tl" d="M90,797h1l-2,2v1v-3ZM332,800l3,3l-2,-1l1,2l2,2v1l-2,-2l-1,-2l-6,-6v-1h-1h1l3,3ZM198,806l-1,1h-2l1,-2v-1l2,-2h1v3ZM216,801l-1,2l-1,-1v-1h1ZM79,791h-1v-1h2ZM202,797l-1,2h2v1l-1,1h1l2,4h1v1l-1,1h1l-1,1h-3l-1,1h-2l2,-2h-1v-1h1l-1,-1v-1h2l-1,-1h-1v-2l-1,-1l1,-2v-1l1,1ZM75,786h-1v-1h1ZM141,790l-1,1v-1ZM139,790h-2l1,-1h1ZM78,780v1h1h-2v-1ZM139,786h1v1h1l-1,1h1l-1,1l-1,-1h-1l-2,1l1,-1h-1h1l1,-1l1,-2ZM193,787v1l1,1l-1,1h-3l-1,1l-1,-1h-2l1,-1h-1h1v-1h-2l1,-1h1l1,1l2,-1h2ZM147,784h-1l1,-1h2l-1,1ZM81,776v1l1,-1h2l-1,2h-3l-1,1h-1l-1,-1h1v-1h-1h1h-2l-1,1l8,-5v1l-1,2ZM135,780l-1,1v-1h-1l1,-1h1ZM322,771h-1ZM88,771h-1h2ZM139,780l-1,2l2,-1v1h-1v1l1,-1l2,-1l1,-1h2v2h-1v1l-1,1l-2,1h-1v-1l-1,1l-2,1v1h-3l-2,2h-1l-1,1l-2,1l-1,1l-1,2h1l-1,1v1h1l3,3l2,1h1l-2,2v2l1,1h1l2,-4h-1l4,-2v-1l1,-1v-1l-1,-1l2,-1l2,-4l1,1h1l1,-1v1l1,1h1v2l-1,1l1,1h2l1,-2h1v3l1,1l-1,1l1,1v1h1l1,1v1l1,1l-2,2h-2l-2,2h-1l-2,-1h-2l-2,1l-1,1l-2,1l-1,1l2,-1l3,-1h2l-1,1l-1,2v1l1,1l2,-1l1,-1v1h1l-4,2h-1l-2,1v-1l2,-1h-3v1h-1l-1,1h-1l-2,2l1,1v-1v1h-3l-1,1l2,-1v1h-2l-2,2v1l-1,1l-1,-1l1,-1l-1,1v4l-1,1h-1l-1,1h-1l-3,3h-1v8l-1,1h-1v-3l-1,-1l1,-1l-1,-2l-1,1l-1,-1h-4v1h-1l-1,-1l-1,1l-1,-1l-2,2h-2v1h-1v3l-1,1v1l-1,2v4l1,1v1h1v1l1,-1h3v-1l1,-1v-1l1,-1h3v1l-1,1v2l-1,1v-1v2l-1,1v1h5v1h1v1l-1,1v3l-1,1h1v2h1v1h2l1,-1h1v1h1l1,1l1,-1v-2l1,-1h2l2,-2v2h-1h1v1l-1,1v1h1v-3h1v-1h1v1h1v1h3l1,1l1,-1h1l1,1h1v1l1,1h1v1h1v1l1,1l2,1v-1h1l1,1h1l1,1v1h1v1l1,2v1l-1,1l1,1h2v1v-1l4,2v1h1l3,1h1l2,1l2,2h2v5l-1,1l-1,2l-2,2v9l-1,2v2h-1v1h-2l-1,1h-1l-3,3v5l-1,2l-2,2v2l-2,2v-1l-1,1l-1,-1h-1v-1v1l1,1v1l1,1v2l-2,1h-3l1,1v2l-1,1l-1,-1h-1l1,2h2l-2,2l1,1v1h-1l-1,1v1l2,1h1v1l-1,1v2h-1v1l2,2h-1l-1,1v1h-1l-2,-1l-3,-3l-1,-3v-1l1,-1h-2l1,-2l-1,-2h1v-2l-1,-1v2l-1,-2v-4l-1,-1l-1,-2h1v-6l-1,-2v-8l-1,-2v-6l-1,-2l-1,-1l-2,-1l-3,-2l-1,-1v-1l-1,-2l-1,-3l-2,-3l-2,-2v-1l-1,-2l2,-2v-1h-1v-3l1,-1v-1h1v-2h1l1,-1v-5l-1,-1v-2h-1v1h-1v1h-1l-1,-1h-2v-2h-1v-1v1h-1v-3l-2,-2h1h-2v-1h-2l-1,-1l-1,-2h-1l-1,-1v1h-2l-1,-1h-2l-2,-2h-1l-1,-1v-1h-1v-3h1l-1,-1v-3l-1,-1v-1l-1,-1v-3h-1v-5l-1,-1l-1,1v4h1l-1,1h1v5h1v2h-1v-1l-1,-1v-3l-1,-1v1v-1h-1v-1h1v-9h-1v-1h-1v-9l2,-2v-1l1,-2l2,-2l1,-2l1,-1v-1h1v1l2,-2h-1v-2l-1,-1v-1l1,-1l-1,-1l1,-1v-1l1,-1l-1,-1l1,-1v-1l1,-1l-1,-1h-1v-2h-1v-1h-1l-1,-1h-1l-1,1h-4l1,-1l2,-1h-1l-1,1l-2,1h-1l-1,1l-2,1h-2l-2,1h-1l-1,1h-3l-1,1h-2l1,-1h2l2,-1h2l2,-1h1l2,-1l1,-1h-3l1,-1l-1,1h-1l2,-2h-1v-1l2,-2l2,-1h3l1,-1h1l1,-1h-3v-2h4l1,1l1,-1v-3h4l1,-1h2l2,-1l1,1l1,-1h1l-1,1h1l1,1h2l1,1h2v1l1,1l1,-1h6l1,-1v2l2,-1l-1,1h2l1,1h2v1l-2,1h4v1l2,-2h2v1h1l1,1h2v-1h1l1,1l-1,1l1,-1h1l1,-1v-2l1,-1l2,-1l1,1l-2,2Z"/>
<path class="tl" d="M128,774l-1,1h4l-1,1h1l2,-2v1l-1,2v1l1,1h-2v1h-8v-1h-1v-1h4l-1,-1h-3l2,-1h-1l1,-1h1ZM135,774l-2,1v-1h1ZM152,776v1l-1,-1l-1,1v-2h2ZM146,776v1l1,-1l2,-1v2h3l1,1l-1,1l2,-1v1l1,1v2h-1l2,2v1h1v1l-2,1h-1l-1,-2l-1,1v1l1,1v2l-1,1l-2,-2v1l1,1h-2l-2,-2v-1l-1,-1v1h-3v-1l1,-1h3l1,-1l2,-1v-1l-1,-1h-1l1,-1l-1,-1h-5l-1,-1h-1l1,-1h-1l1,-1l2,-1l1,-1h2ZM138,774h2l-1,1h-1l1,1l-2,1h-2v-2l1,1v-1ZM298,772h-2v-1ZM141,776l-2,1v-1l2,-2h2l1,1l-2,1ZM122,776h-2l-1,-1h1l2,-1l2,-2h2v1h2v1h-1l-3,1h-2ZM299,769v1h-3v-1h1ZM143,773v1l-1,-1h-1l1,-1h1l1,1ZM295,769l1,1h-2l-1,1l-2,-1l-1,-1h2ZM143,771h-1v1l-1,1h-2l1,-1h-1l1,-1h2ZM136,771h1v1h-4l-2,1h-1l1,-1h-1l-1,-1l2,-1h1l2,1l1,1v-2h2ZM246,780h-3l-2,-1v-1l1,-2h-1l1,-1l-1,-1h1l4,-2h2l-1,1l-2,1l-1,1v2l-1,1l1,1ZM145,770l1,1h1l-1,1h1l1,1h4v1h-7l-1,-1l1,-1v-1h-2l1,-1ZM134,769l-2,1h-4l2,-1h3ZM271,770l1,1v-1h2l2,1h1v1l-1,1h1l2,1v-1l1,1l1,-1h2l1,1h3l-2,-1h5l1,1v1h2l2,1l-1,-1h1l1,-1l2,1v-1h1l-2,-1h8l3,1l1,-1h2l2,2h2v-1h3l3,1v-1h-2v-1h7l8,5h-1l1,1l2,1h2v1h-1v1h-1l1,1v2l-2,-1v2l-1,-1v1h-1l2,2v1h1l3,2h-1l1,1h1v1l1,2h-1l1,2l1,1l-4,-2l-4,-3l-1,-2l-1,-1v-3l-1,-2v-1l-2,-2l-1,1l2,2l-3,-1l-1,1l1,2l1,1h-1l-1,1l-1,-1h-1v1h-4v7h1l2,1h1l-1,-1h1l3,1l1,2l1,1l1,2l2,2v9h-1l-1,-1v2h-1v1l1,1v1h-1v1l1,1h1l2,2v1l1,1v1l-1,1h-1l-1,-2l-1,-1h1l-2,-1v-1v1v-1h-1v-1l-1,-1h-2v1h-1l-1,-1l1,-1l-1,-1l-1,1v2h-1v1l2,2h1v-1h2l1,1l-2,1v2l2,2l1,2l2,1v2h1v6l-2,4l-1,1h-1v1l-1,-1v1l-2,1h-1v2l-1,-1v-1h-2l-1,2v2l1,1l1,2l2,2l1,3v4l-2,1v1l-2,1v-2l-1,-1h-1v-1l-2,-2h-1v-1h-1v6h1v3l1,1h1v1h1v1l1,1v3h1v2h-1l-2,-2v-1l-1,-1v-1l-1,-1v-2l-1,-1v-1h-1v-6l-1,-1v-1l-1,-2v-2l-1,-1l-2,2h-1v-3l-1,-2v-1h-1l-2,-2v-1l-1,-1h-1v2l-1,-1v1h-2v2l-2,1l-1,2v1l-2,2h-1v8l-1,1l1,1h-1l-1,1l-1,-1l-1,-2v-1l-1,-1v-1l-1,-2v-1l-3,-6v-3l-2,1h-1l-1,-2v-1l-2,-1l-1,-1v-1l-1,-1l-2,1h-5l-1,-1h-2v-2h-1l-1,1h-2l-3,-3l-1,-2l-1,1v-1l-1,1v2l1,1h1l1,1v2l1,1l-1,-1l1,-1v2h1v1l1,-1h2v-1l1,-1v-1v2l2,2h1l2,2l-1,1v1h-1v3h-1v1h-1v1h-2v1h-1l-2,2h-1l-2,2v-1l-1,1h-2v1h-2v-2l-1,-1v-3h-1v-1l-1,-1v-1l-1,-1h-1v-1l-1,-1v-3h-2v-2l-1,-1v-1l-2,-2v-1v1l-1,1l-1,-1l-1,-2l1,2l1,1l1,2v1l2,2h-1l2,2v1l1,1h-1l1,2v1l1,1l1,2v1l1,1l2,1v1h1v1h1v1l-1,1h1l1,1h3l1,-1h3v-1h1v2l-1,1v3l-1,1l-3,6l-1,1l-2,1l-1,1l-1,2v1h-1v1h-1v2l-1,1l-1,2l1,1v4l1,1v7l-1,1h-1l-3,3h-1v1l-1,1v2h1l-1,1h1v1l-1,1h1l-1,1h-1l-2,2v3l-3,3v1l-2,1v1l-1,1h-2v1l-1,-1v1l-1,-1l-1,1h-2l-1,1l-1,-1h-1v-5l-1,-1v-2l-1,-1v-1l-1,-1v-5l-1,-1v-1l-1,-2v-1l-1,-1v-3l1,-1v-3h1v-1l1,-1v-1h-1v-5l-1,-1v-2l-3,-3l-1,-2l1,-1v-5l-1,-1v-1l-1,1h-2l-1,-1v-1l-1,-1h-2l-1,1h-2l-1,1h-6l-1,1l-4,-4h-1l-1,-1v-1l-1,-1v-1h-1v-1l-1,-1v-1h-1v-3h-1l1,-1v-1h1l-1,-1l1,-1v-4l-1,-1v-1h1v-2l1,-1v-1h1v-2h1l1,-2h1l2,-2v-3l3,-3l1,-2v-1h1l1,1h2l1,-1h2l1,-1h4l1,-1h1v1h1l1,-1h1v1l1,-1v1h-1v1h1v2h-1v1h1v1h3l2,2h1l2,2l1,-1v-2l1,-1h2l1,1h1l1,1h2l1,1h1v-1h2l1,1v-1h1l1,1v-2l1,-1v-5h-2l-1,1l-1,-1h-2v1l-1,-1h-2v-1l-1,-1v-2l1,-1h1v-1h2l1,-1h1l2,-1l2,1l1,1h2l1,-1v-2h-1l-2,-2h-1l-1,-1l1,-1l-1,-1h2l-1,-1v1h-2l-1,1v1h1l-1,1h-1v-1h-1l1,-1h-2v-1h-1v1l-1,1v1h-1v4l1,1h-2v1h-1v-1h-2l1,1h-2v1l1,1h-1h1l1,1v1l-1,-1v1h-1l1,1h-2v-2l-1,-1v-1h-1v-3h-1v-1h-1l-1,-1h-1l-1,-1v-1l-1,-1v1v-1h-2v1l2,2v1l1,1h1l1,1h1l1,1v1l-1,-1h-1v1h1v1h-1v1h-1v-1h1l-1,-1v-1h-1l-1,-1h-1l-2,-2l-1,-2h-2v1h-4l-1,1v2h-2v1l-1,2h1l-1,1v1h-1l-1,1h-2l-1,1l-2,-2v1h-2l1,-1v-1h-1v-2l1,-1v-3l-1,-1l2,-1l1,1h5v-4l-1,-1v-1h-2v-1h3v-2l1,1l2,-1v-1h1l1,-1l1,-2l1,-1h2v-5h2l-1,1h1v1l-1,1v1h1v1l1,-1h2v1h1l2,-2l1,1h1v-1h1v-3l1,-1l1,1v-1l-1,-1v-1h4l1,-1h-4l-1,1l-2,-2v-4l2,-1v-1l-1,-1l-2,2l-1,2l-1,1v3h1v2h-1v2l-1,2h-1v1h-1v-2l-1,-1l-1,-2l-1,-1l-1,2h-1l-2,-1v-5l2,-1l3,-3l2,-3l3,-3h2l1,-2h3l2,1l-1,1h2l1,1h3l3,1l1,1v1l-1,1h-1l-3,-1h-1l2,1v2l1,1h1v-1h-1l1,-1l2,1v-1l1,-2h1l1,1v-1l-1,-1v-1l-1,-1l2,1h1l-1,1l1,1h1v-1l1,-1l2,-1h1v1l1,-1h1l1,-1l1,1l1,-1h-2l1,-1h2l1,1l4,1v-1h-2v-1h-1l-1,-1v-3h2l1,1v1h1l1,1l1,2h1v3l1,1v-1h1l-1,-1l1,-1h-1l-2,-2v-1l-2,-1l1,-1l-1,-1h1l1,2l-1,-1l1,-1h2l1,1l-1,-1l-1,-2h4l-2,-1v-1h1l1,-1h3l1,-1h1v-2l2,1h-1ZM253,820l1,1v2h-1v1l1,1h1l1,1h3l-1,-1v-2h-1v-2h1v-1l-1,-1h-1l1,1l-1,-1v-1h-2v-2h-1h1v-2l1,1v-3h-2l-1,1h-1v1h-1l-1,2l2,1v1l1,1Z"/>
<path class="tl" d="M146,770h-1v-1h1l1,1ZM137,769h-2l1,-1h1l1,1ZM220,771l-1,1h-1v-1h-1l2,-1v1ZM139,768h-2l1,-1v1ZM146,769h-1v-1h1l1,1ZM144,769h-1l-1,-1h-1h1v-1h1l1,1ZM268,768l-3,1v-2ZM215,769l3,1h-2v3h-1l-2,-1h1l-1,-1l-2,-1v-1l1,-1l1,1h1v-1h1ZM220,768h1l-1,1h-4l-1,-1h3ZM234,767l-1,1h-1v-1h-1h4ZM264,768h-4l-2,-1l-1,-1h1l1,-1l4,2ZM153,767v1h-1l-2,1h-2v-1h1h-1v-1l1,-1h2v-1h1v1h1ZM167,764h3v1h-3l-1,1h-1l-1,1l-2,1h-3v1h-1v1h-2l-2,1h1l-2,1h-4l-1,-1h2v-1h2v-1h-1h1l1,-1h1l-1,-1h4l-1,-1h-3v-1l1,-1h6v-1h3v1l2,-1l1,1ZM190,764l3,1h-6v1h5l-1,1l2,-1h4v1l-2,1h-1l-2,2v2l1,1h-2l1,1l-1,1v1h-1l1,1h-3l1,1v1l-1,-1l-1,1h1l1,1v1h-2l-1,-1v1l-1,1h3l-4,2h-3l-1,1l-4,2h-1l-2,1h-1v1l-2,2v1l-1,1l-1,2h-1l-1,-1h-1l-1,-1v-2l-1,-1v-1l1,-1l-1,-2l1,-1l1,-2h1l1,-1v-1l-1,1h-1v-1l1,-1h1l-1,-1h-1l1,-1v-4l-1,-1h-5v-1l-1,-1h1l-1,-1l1,-1h2l3,-1h1l-2,-1h1l3,-1h1v-1h9l1,1l-1,-1h1l2,-1h3l2,-1Z"/>
<path class="th" d="M137,907v-2h1v-1h1v-1h2v1h1v3h3v3h1v-1v1h1v3h-1v1h-1v1v-1v1v-1h-1v1v-1h-1v-3h-2v-1h-2v-1h-1v-1h-1Z"/>
<path class="tg" d="M66,970h1l1,-1h4v-1h5v-1h5v-1h6v-1h6l1,-1h7v-1h8v-1h9l1,-1h11v-1h14v-1h20v-1h79v1h20v1h14v1h11l1,1h9v1h8v1h7l1,1h6v1h6v1h5v1h5v1h4l1,1h1M21,927h6v-1h7v-1h8v-1h10v-1h10v-1h12v-1h14v-1h18v-1h23v-1h38v-1h75v1h38v1h23v1h18v1h14v1h12v1h10v1h10v1h8v1h7v1h6M5,877h399M21,826h4v1h7v1h8v1h9v1h10v1h11v1h14v1h16v1h21v1h32v1h103v-1h32v-1h21v-1h16v-1h14v-1h11v-1h10v-1h9v-1h8v-1h7v-1h4M66,783v1h5v1h4v1h5l1,1h5v1h6l1,1h6l1,1h7v1h10v1h10v1h13l1,1h17v1h36v1h21v-1h36v-1h17l1,-1h13v-1h10v-1h10v-1h7l1,-1h6l1,-1h6v-1h5l1,-1h5v-1h4v-1h5v-1M140,755h-1v1h-3v1h-2v1h-2v1h-2v1h-2v1h-2l-1,1h-1l-1,1h-1l-1,1h-1v1h-2v1h-2v1h-2v1h-1l-1,1h-1v1h-2v1h-1l-1,1h-1v1h-2v1h-1v1h-2v1h-1v1h-2v1h-1v1h-1l-1,1h-1v1h-1v1h-2v1h-1v1h-1v1h-1v1h-2v1h-1v1h-1v1h-1v1h-1v1h-1v1h-1l-1,1h-1v1h-1v1h-1v1h-1v1h-1v1h-1v1h-1v1h-1v1h-1v1l-1,1v1h-1v1h-1v1h-1v1h-1v1h-1v1l-1,1v1h-1v1h-1v1h-1v2h-1v1h-1v2h-1v1h-1v2h-1v1h-1v2h-1v2h-1v1h-1v2h-1v2h-1v2h-1v2h-1v2l-1,1v2h-1v2l-1,1v2h-1v3h-1v4h-1v4h-1v5h-1v9h-1v13l1,1v8h1v5h1v4h1v4h1v3h1v3h1v2h1v3h1v2h1v2h1v2h1v2h1v2h1v2h1v1l1,1v1h1v2h1v1h1v2h1v1h1v1h1v2h1v1h1v1l1,1v1h1v1h1v1h1v1l2,2v1h1v1h1v1h1v1h1v1h1v1h1v1h1v1h1v1h1v1h1v1h1v1h1v1h1v1h2v1h1v1h1v1h1v1h1v1h1l1,1h1v1h1v1h1v1h2v1h1v1h1l1,1h1v1h1v1h2v1h1v1h2v1h1l1,1h1v1h2v1h1v1h2v1h2v1h1l1,1h1v1h2v1h2v1h2v1h2v1h2v1h2v1h2v1h2l1,1h2v1h2v1h2M153,755h-1v1h-2v1h-2v1h-1v1h-2v1h-2v1h-1v1h-2v1h-1v1h-2v1h-1v1h-2v1h-1v1h-1v1h-2v1h-1v1h-1l-1,1h-1v1h-1v1h-1v1h-1v1h-1l-1,1h-1v1h-1v1h-1v1h-1v1h-1v1h-1v1h-1v1h-1v1h-1v1h-1v1h-1v1h-1v1h-1v1h-1v1h-1v1h-1v1h-1v1l-2,2v1h-1v1h-1v1h-1v1l-1,1v1h-1v1h-1v2h-1v1h-1v1l-1,1v1h-1v2h-1v1h-1v2h-1v1h-1v2h-1v2h-1v2h-1v2h-1v2h-1v2h-1v2h-1v3h-1v2h-1v3h-1v3h-1v3h-1v3h-1v4l-1,1v4h-1v6l-1,1v30h1v6h1v5h1v4h1v3h1v3l1,1v2l1,1v2h1v3h1v2h1v2h1v2h1v2l1,1v1h1v2h1v2h1v2h1v2h1v1h1v2h1v1h1v2h1v1h1v2h1v1h1v1h1v2h1v1h1v1h1v1l1,1v1h1v1h1v1h1v1h1v1h1v1h1v1l3,3v1h1l3,3h1v1h1v1h1v1h1v1h1v1h1v1h1v1h1l1,1h1v1h1v1h1v1h1l1,1h1v1h1v1h1l1,1h1v1h1v1h2v1h1v1h2v1h1v1h2v1h2v1h1v1h2v1h1l1,1h1v1h2M166,755h-1v1h-1v1h-1l-1,1h-1v1h-1v1h-1v1h-1v1h-1v1h-1l-2,2h-1v1h-1v1h-1v1h-1v1h-1v1h-1v1h-1v1h-1v1h-1v1l-2,2v1h-1v1h-1v1h-1v1h-1v1l-1,1v1h-1v1h-1v1h-1v2h-1v1h-1v1l-1,1v1h-1v1h-1v2h-1v1h-1v2h-1v2h-1v1h-1v2h-1v2h-1v2h-1v1l-1,1v1l-1,1v1l-1,1v2h-1v2h-1v2h-1v3h-1v2h-1v3h-1v3h-1v3h-1v3h-1v4h-1v4h-1v5h-1v6h-1v8h-1v30h1v7l1,1v5h1v5h1v4h1v4h1v3h1v3h1v3h1v3h1v3h1v2h1v2h1v2l1,1v2h1v2h1v2h1v2h1v1h1v2h1v2h1v2h1v1h1v2h1v1h1v2h1v1l1,1v1h1v1h1v2h1v1h1v1h1v1l1,1v1h1v1h1v1h1v1l1,1v1h1v1h1v1h1v1h1v1h1v1h1v1h1v1h1v1h1v1h1v1h1v1h1v1h1v1h1v1h1l2,2h1v1h1v1h1v1h1v1h2v1h1"/>
<path class="tg" d="M179,755h-1v1h-1v2h-1v1h-1v1h-1v1h-1v2h-1v1h-1v1l-1,1v1h-1v1l-1,1v1h-1v1l-1,1v1h-1v2h-1v1l-1,1v1h-1v2h-1v2h-1v2h-1v2h-1v2h-1v2h-1v2h-1v2h-1v2l-1,1v2h-1v2l-1,1v2h-1v3h-1v3h-1v3h-1v3h-1v4h-1v4h-1v4h-1v4h-1v5l-1,1v5h-1v8h-1v11h-1v29l1,1v10l1,1v7h1v6h1v5h1v4l1,1v4h1v3l1,1v3h1v3h1v3h1v3h1v3h1v3h1v2h1v3h1v2h1v2h1v2l1,1v2h1v2h1v1l1,1v1l1,1v1h1v2h1v2h1v1l1,1v1h1v2h1v1h1v2h1v1h1v2h1v1h1v1l1,1v1h1v1h1v1h1v2h1v1h1v1h1M192,755h-1v3h-1v2h-1v3h-1v3h-1v3h-1v3h-1v3h-1v3l-1,1v3h-1v4h-1v4h-1v4l-1,1v4h-1v5h-1v6h-1v6l-1,1v7h-1v8h-1v11l-1,1v18h-1v29l1,1v18h1v11h1v8l1,1v7h1v6h1v6h1v5h1v5h1v4h1v4h1v4h1v4h1v3h1v3l1,1v3h1v2l1,1v2h1v3h1v3h1v2h1M205,755v243M217,755h1v3h1v2h1v3h1v3h1v3h1v3h1v3h1v3l1,1v3h1v4h1v4h1v4l1,1v4h1v5h1v6h1v6l1,1v7h1v8h1v11l1,1v18h1v29l-1,1v18h-1v11h-1v8l-1,1v7h-1v6h-1v6h-1v5h-1v5h-1v4h-1v4h-1v4h-1v4h-1v3h-1v3l-1,1v3h-1v2l-1,1v2h-1v3h-1v3h-1v2h-1M230,755h1v1h1v2h1v1h1v1h1v1h1v2h1v1h1v1l1,1v1h1v1l1,1v1h1v1l1,1v1h1v2h1v1l1,1v1h1v2h1v2h1v2h1v2h1v2h1v2h1v2h1v2h1v2l1,1v2h1v2l1,1v2h1v3h1v3h1v3h1v3h1v4h1v4h1v4h1v4h1v5l1,1v5h1v8h1v11h1v29l-1,1v10l-1,1v7h-1v6h-1v5h-1v4l-1,1v4h-1v3l-1,1v3h-1v3h-1v3h-1v3h-1v3h-1v3h-1v2h-1v3h-1v2h-1v2h-1v2l-1,1v2h-1v2h-1v1l-1,1v1l-1,1v1h-1v2h-1v2h-1v1l-1,1v1h-1v2h-1v1h-1v2h-1v1h-1v2h-1v1h-1v1l-1,1v1h-1v1h-1v1h-1v2h-1v1h-1v1h-1M243,755h1v1h1v1h1l1,1h1v1h1v1h1v1h1v1h1v1h1l2,2h1v1h1v1h1v1h1v1h1v1h1v1h1v1h1v1h1v1l2,2v1h1v1h1v1h1v1h1v1l1,1v1h1v1h1v1h1v2h1v1h1v1l1,1v1h1v1h1v2h1v1h1v2h1v2h1v1h1v2h1v2h1v2h1v1l1,1v1l1,1v1l1,1v2h1v2h1v2h1v3h1v2h1v3h1v3h1v3h1v3h1v4h1v4h1v5h1v6h1v8h1v30h-1v7l-1,1v5h-1v5h-1v4h-1v4h-1v3h-1v3h-1v3h-1v3h-1v3h-1v2h-1v2h-1v2l-1,1v2h-1v2h-1v2h-1v2h-1v1h-1v2h-1v2h-1v2h-1v1h-1v2h-1v1h-1v2h-1v1l-1,1v1h-1v1h-1v2h-1v1h-1v1h-1v1l-1,1v1h-1v1h-1v1h-1v1l-1,1v1h-1v1h-1v1h-1v1h-1v1h-1v1h-1v1h-1v1h-1v1h-1v1h-1v1h-1v1h-1v1h-1v1h-1v1h-1l-2,2h-1v1h-1v1h-1v1h-1v1h-2v1h-1M256,755h1v1h2v1h2v1h1v1h2v1h2v1h1v1h2v1h1v1h2v1h1v1h2v1h1v1h1v1h2v1h1v1h1l1,1h1v1h1v1h1v1h1v1h1l1,1h1v1h1v1h1v1h1v1h1v1h1v1h1v1h1v1h1v1h1v1h1v1h1v1h1v1h1v1h1v1h1v1h1v1l2,2v1h1v1h1v1h1v1l1,1v1h1v1h1v2h1v1h1v1l1,1v1h1v2h1v1h1v2h1v1h1v2h1v2h1v2h1v2h1v2h1v2h1v2h1v3h1v2h1v3h1v3h1v3h1v3h1v4l1,1v4h1v6l1,1v14l1,1h-1v15h-1v6h-1v5h-1v4h-1v3h-1v3l-1,1v2l-1,1v2h-1v3h-1v2h-1v2h-1v2h-1v2l-1,1v1h-1v2h-1v2h-1v2h-1v2h-1v1h-1v2h-1v1h-1v2h-1v1h-1v2h-1v1h-1v1h-1v2h-1v1h-1v1h-1v1l-1,1v1h-1v1h-1v1h-1v1h-1v1h-1v1h-1v1l-3,3v1h-1l-3,3h-1v1h-1v1h-1v1h-1v1h-1v1h-1v1h-1v1h-1l-1,1h-1v1h-1v1h-1v1h-1l-1,1h-1v1h-1v1h-1l-1,1h-1v1h-1v1h-2v1h-1v1h-2v1h-1v1h-2v1h-2v1h-1v1h-2v1h-1l-1,1h-1v1h-2"/>
<path class="tg" d="M269,755h1v1h3v1h2v1h2v1h2v1h2v1h2l1,1h1l1,1h1l1,1h1v1h2v1h2v1h2v1h1l1,1h1v1h2v1h1l1,1h1v1h2v1h1v1h2v1h1v1h2v1h1v1h1l1,1h1v1h1v1h2v1h1v1h1v1h1v1h2v1h1v1h1v1h1v1h1v1h1v1h1l1,1h1v1h1v1h1v1h1v1h1v1h1v1h1v1h1v1h1v1l1,1v1h1v1h1v1h1v1h1v1h1v1l1,1v1h1v1h1v1h1v2h1v1h1v2h1v1h1v2h1v1h1v2h1v2h1v1h1v2h1v2h1v2h1v2h1v2l1,1v2h1v2l1,1v2h1v3h1v4h1v4h1v5h1v9h1v13l-1,1v8h-1v5h-1v4h-1v4h-1v3h-1v3h-1v2h-1v3h-1v2h-1v2h-1v2h-1v2h-1v2h-1v2h-1v1l-1,1v1h-1v2h-1v1h-1v2h-1v1h-1v1h-1v2h-1v1h-1v1l-1,1v1h-1v1h-1v1h-1v1l-2,2v1h-1v1h-1v1h-1v1h-1v1h-1v1h-1v1h-1v1h-1v1h-1v1h-1v1h-1v1h-1v1h-1v1h-2v1h-1v1h-1v1h-1v1h-1v1h-1l-1,1h-1v1h-1v1h-1v1h-2v1h-1v1h-1l-1,1h-1v1h-1v1h-2v1h-1v1h-2v1h-1l-1,1h-1v1h-2v1h-1v1h-2v1h-2v1h-1l-1,1h-1v1h-2v1h-2v1h-2v1h-2v1h-2v1h-2v1h-2v1h-2l-1,1h-2v1h-2v1h-2"/>
<rect x="126" y="892" width="31" height="33" fill-opacity="0" stroke="#ffffff" stroke-opacity="0.5" stroke-width="5.0"/>
<rect x="128" y="894" width="31" height="33" fill-opacity="0" stroke="#113311" stroke-opacity="0.8" stroke-width="5.0"/>
<rect x="127" y="893" width="31" height="33" fill-opacity="0" stroke="#45a249" stroke-opacity="0.9" stroke-width="5.0"/>
</svg>
