<?xml version="1.0" encoding="UTF-8" standalone="no"?>
<svg xmlns:svg="http://www.w3.org/2000/svg" xmlns="http://www.w3.org/2000/svg" xmlns:xlink="http://www.w3.org/1999/xlink" height="1000" width="1000">
<!-- made with pythonshp (GPL): github.com/sanjayrao77/pythonshp , underlying data may come from naturalearthdata.com -->
<!-- 
COPYRIGHT: THIS SVG FILE IS RELEASED INTO THE PUBLIC DOMAIN
 -->
<!-- 
vars : {
	'cmdline' : 'pythonshp.py publicdomain wiki1 solomonislands locatormap'
	'title' : 'Solomon Islands locator'
	'version' : '1.0.5'
}
 -->
<defs>
	<radialGradient id="watergradient" cx="500" cy="500" r="500" fx="500" fy="500" gradientUnits="userSpaceOnUse">
		<stop offset="0%" stop-color="#70add3"/>
		<stop offset="11%" stop-color="#6eaad0"/>
		<stop offset="22%" stop-color="#6ca7cc"/>
		<stop offset="31%" stop-color="#6ba5c9"/>
		<stop offset="41%" stop-color="#69a2c6"/>
		<stop offset="51%" stop-color="#679fc2"/>
		<stop offset="59%" stop-color="#669dbf"/>
		<stop offset="67%" stop-color="#649abc"/>
		<stop offset="75%" stop-color="#6297b9"/>
		<stop offset="81%" stop-color="#6095b6"/>
		<stop offset="87%" stop-color="#5f92b2"/>
		<stop offset="92%" stop-color="#5d8faf"/>
		<stop offset="95%" stop-color="#5b8dac"/>
		<stop offset="98%" stop-color="#598aa8"/>
		<stop offset="100%" stop-color="#5685a2"/>
	</radialGradient>
	<radialGradient id="landgradient" cx="500" cy="500" r="500" fx="500" fy="500" gradientUnits="userSpaceOnUse">
		<stop offset="0%" stop-color="#dddddd"/>
		<stop offset="11%" stop-color="#d7d7d7"/>
		<stop offset="22%" stop-color="#d1d1d1"/>
		<stop offset="31%" stop-color="#cccccc"/>
		<stop offset="41%" stop-color="#c6c6c6"/>
		<stop offset="51%" stop-color="#c0c0c0"/>
		<stop offset="59%" stop-color="#bbbbbb"/>
		<stop offset="67%" stop-color="#b5b5b5"/>
		<stop offset="75%" stop-color="#afafaf"/>
		<stop offset="81%" stop-color="#aaaaaa"/>
		<stop offset="87%" stop-color="#a4a4a4"/>
		<stop offset="92%" stop-color="#9e9e9e"/>
		<stop offset="95%" stop-color="#999999"/>
		<stop offset="98%" stop-color="#939393"/>
		<stop offset="100%" stop-color="#888888"/>
	</radialGradient>
	<radialGradient id="bordergradient" cx="500" cy="500" r="500" fx="500" fy="500" gradientUnits="userSpaceOnUse">
		<stop offset="0%" stop-color="#444444"/>
		<stop offset="11%" stop-color="#3f3f3f"/>
		<stop offset="22%" stop-color="#3a3a3a"/>
		<stop offset="31%" stop-color="#363636"/>
		<stop offset="41%" stop-color="#323232"/>
		<stop offset="51%" stop-color="#2d2d2d"/>
		<stop offset="59%" stop-color="#292929"/>
		<stop offset="67%" stop-color="#242424"/>
		<stop offset="75%" stop-color="#1f1f1f"/>
		<stop offset="81%" stop-color="#1b1b1b"/>
		<stop offset="87%" stop-color="#161616"/>
		<stop offset="92%" stop-color="#121212"/>
		<stop offset="95%" stop-color="#0e0e0e"/>
		<stop offset="98%" stop-color="#090909"/>
		<stop offset="100%" stop-color="#000000"/>
	</radialGradient>
</defs>
<style type="text/css">
<![CDATA[
.c3 {stroke:#45a211;fill-opacity:0;stroke-width:3}
.fs {font:14px sans;stroke:#ffffff;stroke-width:2px;stroke-opacity:0.8;text-anchor:middle}
.ft {font:14px sans;fill:#000000;fill-opacity:1;stroke-opacity:0;text-anchor:middle}
.sb {stroke:url(#bordergradient);fill-opacity:0}
.sg {stroke:#000000;fill-opacity:0.0;stroke-opacity:0.2}
.sh {fill:#45a211;stroke:#000000}
.sl {fill:url(#landgradient);stroke:url(#bordergradient)}
.sp {stroke:url(#landgradient);fill-opacity:0}
.sr {stroke:url(#watergradient);fill-opacity:0}
.sw {fill:url(#watergradient);stroke:url(#watergradient);stroke-opacity:0.8}
.tb {fill:#eeeeee;stroke:black;stroke-width:2}
.tg {stroke:black;stroke-opacity:0.2;fill-opacity:0}
.th {fill:#45a211;stroke:#378100}
.tl {fill:#aaaaaa;stroke:black}
.w3 {stroke:#ffffff;fill-opacity:0;stroke-opacity:0.6;stroke-width:3}
.zh {fill:#45a211;stroke:#115511}
.zl {fill:#dddddd;stroke:#444444}
.zp {stroke:#dddddd;stroke-dasharray:3 3;fill-opacity:0}
]]>
</style>
<circle cx="500.0" cy="500.0" r="500.0" fill="url(#watergradient)"/>
<path class="sl" d="M944,271v-1l-1,-1v-1l-1,-1v-2h-1v-1l-1,-1l-1,-2v-1l-2,-2v-1l-1,-1v-1l-1,-1v-1h-1v-2l-2,-2v-1h-1v-1l-1,-2l-2,-2v-1l-1,-1v-1h-1h1h-1v-2h-1v-1l-3,-3v-1l-1,-1v1h1l1,1v1l2,3l1,1l1,2v1l1,1l2,4l2,2v1l1,1v1l2,2v1l1,1v1l2,2v1l1,1v1l1,1v1h1v2l2,2v2h1v1l1,1l1,2v1v-1l-1,-1v-1l1,2v1h1v2h1v1l1,2v1l1,2l1,1l2,4v1l1,1v1l1,2v1h1v1v-1h-1v-1l1,2l1,1v2l1,1v1l1,1v1l1,1v1l-1,-3l-1,-1v-1l-1,-1v-2h-1v-2l-1,-2l-1,-1v-1h-1v-2l-1,-1v-1l-1,-2l-1,-1v-1l-1,-1l-2,-4v-1l-2,-2v-1l-1,-1v-1v1v-1l-2,-2v-1l-1,-1v-1l-1,-1v-1h-1v-1l1,1v1v-1l-1,-1v-1l-1,-2l-1,-1l-1,-2v-1l-2,-3l-3,-3l-2,-4l-2,-2v-1l-1,-1v-1l-1,-1l-1,-2l-1,-1l-1,-2l-2,-2v-1l-1,-2l-2,-2l-1,-2h-1v-2h-1v-1l-4,-4v-1l-4,-4v-1h-1l-1,-1v-1h-2v-1h-1v-2h-1v-1l-4,-4v-1h-1l-1,-1v-1h-1l-1,-2l-3,-3v-1l-4,-4v-1l-2,-2h-1v-1l2,2v1h1l-3,-3v-1h-1h1l-1,-1v1v-1v1l1,1h-1v-1h-1v-1v1v-1l-1,-1l1,1l-7,-7l-1,-2l-1,-1h-1l-1,-2l-6,-6h1h-1v-1h-1l-1,-2l-1,-1v-1l-1,-1h-1v-1h-1v-1l-1,-1l-2,-1v-1l-1,-1h-1l-1,-1v-1l-1,-1l-1,-2h-1v-1h-1v-1l-2,-2l-2,-1v-1l-10,-10h1h-1v-1h-1l-2,-2v1h1l-3,-3h-1v-1v1h1h-1v-1l-2,-2l-2,-1l-2,-2h-1l-2,-2h1l1,1l2,1h1h-1h1v1h1l1,1h-1l2,1v1h1h-1v-1h-1v-1l-1,-1l3,3v1h2v1v-1h-1v-1l-1,-1h-1v-1h-1v-1h-1l-1,-1h-1v-1h-1v-1h-1h1h-1l-1,-1v-1h-1l-2,-2v1h1l-1,-1h-1v-1h-1h1h-1l-1,-1v-1h-1v1h1h-1v-1h-1l-1,-1h1v1h1h-1v-1h-1l-1,-1h-1v-1v1h1v1h1h-1l-3,-3h-1v-1h-1l-1,-1l1,1h-1v-1h-1l1,1v-1h-2v-1h-1l-1,-1h-1v-1v1h-1v-1h-1l-1,-1h-1v-1h-1v-1h-1h1v-1h-1l1,1h-1l-1,-1h-1v-1h-1v-1h-1v-1l1,1h1l1,1h-1l-1,-1v-1h-2v-1h-1v-1h-1h1v1l2,1h-1h1v1l1,1l-2,-1v-1l-1,-1h-1h1v1v-1l-1,-1l-2,-1h-1l-2,-2h-1l-1,-1h-1v-1h-1h1l2,1l1,1h1h-1l-1,-1h-1v-1h-2v-1h-1l2,2h1h-1l1,1l-1,-1h-1l-2,-2h-1v-1h-1l-2,-2h-1l-1,-1h-1v-1h-1v-1h-1v-1h-1l-1,-1h1v1h1v1v-1h-1l-1,-1h-1v-1h-1l-1,-1h1v1h1l1,1h1v1l2,2h-1l-2,-2h-1v-1l-1,-1h-1l-1,-1h-1l-2,-2v1h1v1h1v1v-1h-2v-1l-2,-1h1l-1,-1h-2v-1h-2v-1h-1l-1,-1h-1v-1h-3l-3,-3h-1v-1v1l-1,-1l1,1h-1v-1h-1l-1,-1h-1l-1,-1l1,1l-1,-1h-2l-2,-2h-1l-2,-1l-1,-1h-1v-1v1h1l1,1h1l2,2h1l1,1h1h-2v-1h-2v-1h-2v-1h-1h1v1l-1,-1h-2v-1v1h2v1h2l1,1h1v1h-1h1h-1v-1h-1l-3,-1h-1l-1,-1h-1v-1h-2l-1,-1h-1l-2,-1h-2v-1l-1,-1h-1h1l1,1h1h-1v-1h-2v1h-1v-1h-3v-1h-3l-1,-1h-5v-1h-3v-1h-1v-1v1h-2v-1h-3v-1h-2v-1h-1v1h-1h1h-1l-1,-1l1,1h-1l-1,-1h-1h1v1h1l1,1h-1h2v1h2v1h-1h1h-3l-1,-1l1,1v1l-1,-1v1h1h-1v1h1h-4v-1h1l-1,-1v1l-1,-1h-1l-1,-1v-1l-1,-1h-1l-1,-1h4l-2,-1h-1v-1h1h-1v1h-2v-1v1h-1v1h1v2h-1h2v1h-1l1,1h1h-2v1l1,1h2v1h2v2l1,1h-2v1h-1l1,1h-1h1h-1l-1,1h1v2h-1v1h-1v-1l-1,1h1h-1v1h1v1l-1,-1v1l-2,1h1h-1l-1,-1v1h-1v1h-4v-1h1h-2v2h-2v-1h-1v1h1v1l-1,-1h-1l1,1h-1v-1h-1h1v-1h1v-2h1l2,-1v1h1l1,1h1l-1,-1h2v1v-1h-2v-2l1,-1h1v-1h1l1,1v-1h-1v-2h1v-1h-1v-1h-1v-1h1h-2v-1h-1v-1h1h-1v-1l-1,-1l1,1h-1l-1,1h-2l-2,-2h1v1h1l-1,-1h-1v1h-1h1v1h2v1h-1v-1l-2,-1h-3l-1,-1h-3l-1,1h-1l-1,-1h-1l1,-1h-3v-2h-1l-2,-1l-1,-1h-1l-1,-1v-1h1h-1v2h1v1h-5v-1h-2l-1,-1h-2l-1,-1h-1v-1h3v1h1v-1v1h2v-1h-7v-1h1h-3v-1v1h1h-1l-1,-1h-1v-1h-1l-1,-1h-1h1l-1,-1l1,-1h1h-1h1v-1h-1v1v-1h-1v-1h1h-1h6v-1h3v-1h-1l-2,-1l-1,-1h-1h1l-1,-1h-4v1h-1l-1,-1v1h1h-1l-1,-1h-4v1l-1,-1h-4l-1,-1h-1l-2,-1h2l-2,-1h-5v-1h-1h3v-1h2v-1h5v1l2,1h5v-1l1,1h1l-1,-1h-3l-2,-1h-1l-1,-1h1l1,1h1l1,1h3l-1,-1l-1,1h-1v-1h-2l1,-1h-6l-1,-1h-2l-1,-1l-6,-1l-2,-1h-2v-1h-2h6v-1l-1,-1v-1h2v-1h1l1,1h1h-1v-1v1l1,-1h-1h3v-1h-1h1h-1h3l1,1h4v1l1,-1v1l1,-1l1,1h3v1h8l1,1h4l1,1h6l1,1h2l2,1h3l2,1h3l1,1h1l2,1h3l2,1l-1,-1h-3l-1,-1h1h-1h1h-1v-1h-1h1v1h3v1v-1h-1l-1,-1h1h-1h1h-1h1l1,1h1v1h2v1h1h-1v-1h-1h1h-1h1h-1v-1h-1h1h-2v-1h-2l-1,-1l1,1h3l1,1h1l1,1h1l2,1h1h-1v-1h-3v-1v1h3l1,1h2v1v-1h-1l1,1h3l1,1h1l1,1h2l1,1h2l1,1h1l1,1h1l1,1h2l1,1h1l1,1h2l1,1h1l1,1h2l1,1h1l1,1h2l2,2h2l1,1h1l1,1h1l1,1h1l1,1h2l2,2h2l2,2h2l2,2h2l2,2h1l1,1h1l1,1h1l1,1h1l1,1h1l1,1h1l1,1h1l2,2h1l1,1h1l1,1h1l2,2h1l1,1h1l1,1h1l2,2h1l2,2h1l1,1h1l2,2h1l2,2h1l2,2h1l1,1h1l3,3h1l1,1h1l3,3h1l1,1h1l4,4h1l1,1h1l4,4h1l2,2h1l4,4h1l5,5h1l1,1h1l7,7h1l8,8h1l2,2h1l15,15h1l2,2v1l18,18v1l7,7v1l3,3v1l7,7v1l3,3v1l4,4v1l5,5v2l5,5v1l1,1v1l3,3v1l2,2v1l3,3v1l2,2v1l2,2v1l2,2v1l1,1v1l3,3v1l1,1v1l2,2v1l1,1v1l2,2v1l1,1v1l2,2v1l1,1v1l1,1v1l1,1v1l2,2v1l1,1v1l1,1v1l1,1v1l1,1v1l1,1v1l1,1Z"/>
<path class="sp" d="M956,295l1,1v2l1,1v1l1,1v1l1,1v2M670,30h2l1,1h1l1,1h2l1,1h2l1,1h1l1,1h1l1,1h2l1,1h1l1,1h2l1,1h1l1,1h2l1,1h1l1,1h2l2,2h2l1,1h1l1,1h1l1,1h1l1,1h2l2,2h2l2,2h2l2,2h2l2,2h1l1,1h1l1,1h1l1,1h1l1,1h1l1,1h1l1,1h1l2,2h1l1,1h1l1,1h1l2,2h1l1,1h1l1,1h1l2,2h1l2,2h1l1,1h1l2,2h1l2,2h1l2,2h1l1,1h1l3,3h1l1,1h1l3,3h1l1,1h1l4,4h1l1,1h1l4,4h1l2,2h1l4,4h1l5,5h1l1,1h1l7,7h1l8,8h1l2,2h1l15,15h1l2,2v1l18,18v1l7,7v1l3,3v1l7,7v1l3,3v1l4,4v1l5,5v2l5,5v1l1,1v1l3,3v1l2,2v1l3,3v1l2,2v1l2,2v1l2,2v1l1,1v1l3,3v1l1,1v1l2,2v1l1,1v1l2,2v1l1,1v1l2,2v1l1,1v1l1,1v1l1,1v1l2,2v1l1,1v1l1,1v1l1,1v1l1,1v1l1,1v1l1,1v1"/>
<path class="sl" d="M383,14h2v-1h4v-1h1h-1l-1,1h1l1,-1l-1,1l1,-1h4v-1h5v-1h4l5,-1h1l1,-1v1h-3l-1,1h-1h1l1,-1h3v1v-1l-1,1h-1h1h-1l-1,1h-1h1v-1h-1v1h-1l-3,1h-3l-2,1h-4v1h-3l-5,1h-1l-2,1h-1l-3,1h-1h2l1,-1h4l2,-1h4l1,-1l-1,1h-1v-1h5l-1,1h-3v1h-1h1l1,-1h2v-1h8v1h2l1,-1h6v-1h3l1,-1h1v1h1h-1h5l-1,1h-1v1h-4v1h1h-1v1h-1h1v1l1,-1v1h2l1,-1h1l1,-1h2l1,-1h1h-1v1h6l1,-1h1v1h4v-1h3v1l1,-1h2l-1,-1h1h-1h1l1,-1h4v-1h2v1h5v1l2,-1h5l-1,1h-2v-1v1h-3v1l2,-1h2l2,-1h7v1h-1v1h1h-1h5l1,1h-1h7l2,-1h8l2,1h3v1h1h-1v1h3v2h1v1h-1h1v-1h1v-1h2l1,-1h5l1,1h8l1,-1h1l1,1h1v1h4v1h3l1,-1l-1,-1h-2l1,-1h16l2,1h5l1,1h3l2,1h5l1,1h-1h3l1,1l-2,-1l3,1h3l6,2h2v1h1v1h1v1h4v1l1,-1h-2v-1h-2v-1h2l1,1h1h-1h6l1,1h2l2,1h2l1,1h1h-2v1h-2l-1,-1v1h1h-2v1h-1h2v1h-1v1h3v1l-1,-1h-1v1h-1l-1,-1h1h-1v1l-1,-1h-3l-1,-1h-3l-1,-1h-2v-1h-3l-1,-1h-1l-1,1h-3v-1h-2v-1h-1l1,-1h-3l-1,1v-1v1h1v1h2v1h-1v1h-3l-1,1h-2l-2,-1h-2l-1,-1h-2l1,1h1h-2v1h2l1,-1h1v1h1l1,1h3v1h2v1h-1h1l1,1v-1l1,1l2,1v1h1v1h-5l-1,-1h-3l-1,1h-1l-3,1h-3v1h-4l-1,1h-1v1l-1,-1v1h-1l-1,1h-2l-2,1h-2v2h-3v-1l-1,-1h-10l-1,1l-2,1h-2l1,-1v-1h-1l-1,1h-3v1h-8v3h-2l1,1h-2l-3,3v1h2v1l1,-1h3v1h-1v1h-1v3h2v1l1,1h-1l-1,1h-1l-1,-1l1,-1h1h-2v1h-2l-1,2h-1v3h1l1,1l-1,1h-6l-1,1h-2l-2,2v1l1,1h-1v1h1v1h-1l-1,-1l-3,1h-1l-1,1l-1,-1l-1,1h1v1h-1l1,1h-1v1l-2,2l-2,1h-1v1l-4,2h-1v-1l-1,-1v-6h-1v-6l-1,-3v-3l1,-2l1,-1l1,-3h1l2,-1l1,-1h1l1,-1v-1h-1v-1h1l1,1l1,-1h4v-1h2l2,-1h1v-1h1v-1l4,-2h1l1,-1l2,-1h1l1,-1h1v-1h1l2,-1h5l-1,-1l1,-1h1h-1v-1h1v-2h1l1,-1h1l-1,-1h-2l-3,1h-1h1l-1,1v1h-1l1,1h1h-5l-5,2v1h-3l-1,1l1,-1v-1h-1v-1h-1h1l1,-1v-1l-2,1h-1v-1h-5l-1,1l-1,-1h-1l-1,1h-2l-2,2h-2l-1,1h-1l-1,1l-4,2h-1v1h-1v1h4v1h-4l-1,1l-1,-1h-2l-1,1h-5l-2,1h-2v-1l2,-1h1l-1,-1h-5l-3,-1h-1l-1,1h-2v1h1h-11l-1,1h-2v-1h-11l-3,1h-1l-2,1l-1,1h-1l-2,1h-2l-3,3h-3l-1,1h-1l-1,1h-2l-1,1l-2,1l-3,1v1h-1l-2,1h-1l-1,1h-1l-1,1h-2l-6,3h-1l-2,1h-1v1h1l2,1l1,-1h3v1h-1l-1,2h-1v1h2l1,-1v-1h1v1h1l-1,1l-2,1h3l2,-1l1,-1h1v1h-1l-1,1h-1h2l2,-2v-1h1v-1l1,1h1l2,-1h1v1h1v1l1,1l2,1l1,1h-1l-1,1h-1h1v2h-1v2h1h-1l-4,4h-2v2l-2,1v1l-1,2v1h-1v1l-2,2v1h-1v1l-3,3l-2,1l-1,1h-1l-1,1l-2,1l-1,2l-3,2h-1l-4,4l-3,2v1l-4,2l-3,1l-2,2h-1l-2,2h-1l-4,4h-1l-2,1l-2,2l-2,1l-4,1l-1,1l-2,1h-2l-1,1h-1v-1h-3l1,-2v-1l-1,1h-1l-1,1v-1l1,-1l-1,1h-1l-1,1l-2,1v1h-1l-1,1h-1l-1,-1v1l-1,2h-3l-2,2h-1v1h-1l-1,1v2l-2,2v1l-2,1h-1l-1,1l-2,1h-1l-2,2h-2l-1,1h-1l-2,1l-1,1v1l-1,1h-1v1h2v2h1l1,1v5l1,1v6l-1,1v1l-1,1v1h-1v1h1l-1,2l-1,1l-1,2l-1,1h-5v1l-1,1h-2v-1l-1,1h-1v1l-1,1v-1h-1v1l-1,1h-1v-1h1v-1l-2,1l-1,1h-1l-1,1h-1h1v-1h-1v-1h1v-1h1h-1v-2l1,-1h1v-1l1,-1h1h-1v-1h2v-4l1,-1v-1h-2l1,-1v-1h2v-1h1v1h2l-1,-1v-1l1,-1l-1,-1h1v-2h-2v1h-1v-1l-1,-1l-2,2h-1v-1h-1l1,-1h1h-3l1,-1v-1l1,-1h1l2,-1h1v-1h-1l2,-3h1v-2h-1l-1,-1h-1v1h-1l1,-1h-1v-1h-1l-1,1h-3v1h-3v1h-1l-4,2h-1v1h-1l-1,1h-2v1h-2v1h-1v-1h1v-1l3,-1l1,-1h1v-1l-2,1h-1v-1h1l1,-1v-1h1l2,-1v-1h1l3,-3v-1l-1,-1h1h-4l-2,2h-1l-3,3h-1l-5,2l-5,5h-2l-1,1h-1v-1h-2v1l-4,4l1,1v1h4v2l-2,2v2h3l3,-3h2v-1l3,-1l1,1h1l1,1h2l1,-1v1h2v1l-1,1h-1v1l-1,1h-1v-1h-1l-4,2l-1,1h-2v1h-1l-1,1v1h-1l-1,1v-1h-1l-1,1h1l-1,1h-1v1h-1v1h-1l-2,2h-1l-1,2h-1l-1,2h1v1l1,1h1l1,1v4h-1v6h-1v1l1,1h1v3h1v2h-5v-1l-1,-1l-3,1l-1,1h1l1,-1h2v1h1v1h1v1l2,1v3h-2l-2,2l-2,1l-2,2l-1,-1h-1l-1,1h1v1h2l2,-1h1l1,2h1l1,1h-1l-2,2h-1l-1,1l2,-1h1v-1v1l-1,3h-1v-1h-1l-1,1l1,1v1h-1h1l-1,1h-1v3h-1l-1,1v-1h-1v1l-1,1h-1v1h-1v1l-2,2v1l-1,1h-1v1l-1,1l-2,1v2h-1v1h-1v-2h1h-1v1h-1v-1v2l1,1h-1h1l-1,1h-1l-2,2h-1v1h1v-1h1v2l-1,1v2h-1v-1l-1,1h-1v2l-1,-1l-1,1v1l-1,1h-1l-1,1h1l-2,2h-1l-1,-1l-1,1v1h-1h1v1l-2,2h-1v1l-1,1h-1v1l-1,1v-1h-1v1h-1l-2,2h-1h1v1h-2v2h-2v1h-1l-1,1h-1v-1l-2,2v-1h-2v1h-1v1h-1v-1h-1v1h-3v1l-1,-1v-4l-1,1v1h-1l1,1h-1l1,1l-1,2v1h-1v1h-1v1h-1v-1l-1,2h-1l-1,1h-1v-1v1l-1,1h-1v-1h-1v1h-1v1h-1v1h-3l-1,1h-1l-1,1v1h-1v-1v1l-1,1h-1v2h1v1h-1l1,1v1h-1v1h-1l-1,1h-1v-1h1v-1h-1v-1l1,-1v-1h-1l1,-1v-1l1,-1v-1h1v-1h-1v-1l-2,2h-1v-2h-1l-1,-1h1v-1h-1v3h-1v-1v1h-1l-1,1h-1l-2,2h-1v2l-2,1v-1v1h-2v2l-1,2l-5,5l-1,2v1l-1,1v1l-1,1v1l-1,1l1,1v4h1v4h-1l1,1v2l1,1v3h1v2l1,1v1h1v1l1,1v4h1v14l-1,2v7h-1v3h-1v3l-1,1v3h-1v2h-1l-4,4h-1v2h-1l-2,1v1h-1v1l-1,-1v-1l-1,2h-1v-1l-1,1h1v1h-1v1h1v1l-1,1v1l-1,-1l-1,-2v1l1,2v2h-1l-1,-3h-1l1,3v2l-4,4l-1,2l-2,2v-5l1,-4l1,-2l1,-1v-1h-1v-1h-1v-1h-1v-2h-2l-1,1l-1,-1l2,-2v-2h-1l-1,1v1h-1v-3l1,-1v-1l-1,-1l1,-1h-1v-4l-1,1v-1l-1,-1v-1h-1v-1h-3l-1,1v-2l1,-2v-2h1v-1l-1,-1l-1,1h-2v4l-1,2v1l-1,3v1l-1,1v1l-1,2v1l-1,1v3l-1,1v1l-1,3l-1,2v2l-1,2v6l2,-1v6l1,1l-1,8l1,1v1h-1v-4l-1,1v1l1,2v1l1,-1v2l1,1h1v-1h1l1,1v3l1,1v2l-1,1v2h-1v-1h-1l-1,1v1h-1v-2l1,-1v-2h-1v-2l-1,1v-1h-1v-1h-1v2l-1,-3v-4h-1v-3h-1v-3h-1v-2h-1v-4l1,-2v-2l1,-2v-1l1,-2l1,-3l-1,1v-3l1,-2v-2l1,-1v-3l1,-1v-2h1l-1,-1v1v-3l1,-1l-1,-1h1v-4l1,-1v-9l-1,3v-1l1,-1v-7l1,1v-1h-1v-1l1,-3v-2l1,-3v-3h1v-3h1h-2v-1l1,-1v-4h-1v3l-1,1v1l-1,2h-1v-1l-1,1v2h-1v1h-1v1l-1,1v1l-1,1h-1l1,-1v-1l-1,1v1h-1l1,-1v-1l-1,1v-2l1,-1v-1v1h-1v1l-1,1v1v-1l1,-4v-1l1,-1v-1l1,-2l1,-1v-2l1,-1v-4l1,-3v-3l1,-2v-1v1h-1v2h-1v-2l1,-1v-1v1h1v-4l1,-1h-1v-1h-1v2v-2l1,-1h-1l1,-1l-1,2v-2h1v-2l-1,1v2v-6l1,-1v-3l1,-1v-2l1,-2l1,-1h-1v-1h1v-3l-1,1v1h-1v-1l1,-2v-2l1,-1v-1v1h-1v2l-1,1v1l-1,1v3h-1v2h-1v1l-1,1v1v-2l1,-1h-1v1v-2l1,-1v1h-1v2l-2,2v1v-1l1,-1v-2v2l-2,2v-1l1,-1l-1,1v1l-1,1v-1v1l-1,1v-1h1l1,-3l-1,2l-1,1v1v-1l-1,1v-1h1l1,-2v-1h-1v1l-1,1v1l-2,2l-1,2l-1,1v1l-1,1v2l-1,1v1l-1,1l-1,2v1h-1v1l-1,1h-1v1l-1,1l1,-1v1l-1,1l-2,3v1l-1,1l-1,2l-1,3v1l-2,2l-2,4v1l-2,2v2l-1,1v2l-1,1v1l-1,1h-1v1l-1,3v1l-1,1v-1v1v-1v1l-2,4v2l-1,2v3l-1,1v2l-1,2v4h-1l-1,6l-1,2v2l-1,2v3l-1,1v3l-2,7v1v-1v2l-1,1v3l-1,1v3l-1,2v2l-1,2v2l-1,2v-5l1,-2v-5l1,-2v1l-1,1v1l1,-3v-4l1,-3v-2l1,-3v-3l1,-1l1,-5v-5l1,-3v-1h1v-4l1,-1v-3h1v-4l1,-2v-2h1v-3l1,-1v-2l1,-1v-2l1,-1v-3l1,-1v-2l1,-1v-2l1,-1v-2l1,-1v-2l1,-1v-2l1,-1v-2l1,-1v-2l1,-1v-1l1,-1v-2l1,-1v-2l1,-1v-1l1,-1v-2l1,-1v-2l1,-1v-1l1,-1v-2l1,-1v-1l1,-1v-1l1,-1v-1l1,-1v-2l1,-1v-1l1,-1v-2l1,-1v-1l1,-1v-1l1,-1v-1l1,-1v-1l1,-1v-1l1,-1v-1l1,-1v-2l1,-1v-1l1,-1v-1l2,-2v-1l1,-1v-2l1,-1v-1l2,-2v-1l1,-1v-1l1,-1v-1l1,-1v-1l1,-1v-1l2,-2v-1l1,-1v-1l1,-1v-1l2,-2v-1l1,-1v-1l1,-1v-1l2,-2v-1l2,-2v-1l1,-1v-1l1,-1v-1l3,-3v-1l1,-1v-1l2,-2v-1l2,-2v-1l3,-3v-1l2,-2v-1l2,-2v-1l1,-1v-1h1l1,-1v-1l1,-1v-1l3,-3v-1l4,-4v-1l3,-3v-1l3,-3v-1l4,-4v-1l1,-1h1v-1l2,-2v-1h1l1,-1v-1l6,-6v-1l1,-1h1v-1l2,-2v-1h1l1,-1v-1l1,-1h1l1,-1v-1l9,-9v-1h1l15,-15h1v-1l1,-1h1l1,-1v-1l1,-1h1l6,-6h1l1,-1v-1h1l2,-2h1v-1l1,-1h1l6,-6h1l4,-4h1l3,-3h1l3,-3h1l4,-4h1l1,-1h1v-1l1,-1h1l1,-1h1l3,-3h1l3,-3h1l2,-2h1l2,-2h1l2,-2h1l2,-2h1l1,-1h1l2,-2h1l2,-2h1l1,-1h1l1,-1h1l3,-3h1l1,-1h1l2,-2h1l1,-1h1l1,-1h1l1,-1h1l2,-2h1l1,-1h1l1,-1h1l1,-1h1l2,-2h1l1,-1h1l1,-1h2l1,-1h1l1,-1h1l2,-2h1l1,-1h2l1,-1h1l1,-1h1l1,-1h1l1,-1h1l1,-1h1l1,-1h1l1,-1h2l1,-1h1l1,-1h2l1,-1h1l1,-1h1l1,-1h1l1,-1h2l1,-1h1l1,-1h2l1,-1h2l1,-1h1l1,-1h2l1,-1h2l1,-1h1l1,-1h2l1,-1h2l1,-1h2l1,-1h2l1,-1h2l1,-1h2l1,-1h2l1,-1h3l1,-1h2l1,-1h2l1,-1h3l1,-1h3l1,-1h2l1,-1h3l1,-1h3l1,-1h1Z"/>
<path class="sp" d="M19,362l1,-1v-2l1,-1v-2l1,-1v-3l1,-1v-2l1,-1v-2l1,-1v-2l1,-1v-2l1,-1v-2l1,-1v-2l1,-1v-2l1,-1v-1l1,-1v-2l1,-1v-2l1,-1v-1l1,-1v-2l1,-1v-2l1,-1v-1l1,-1v-2l1,-1v-1l1,-1v-1l1,-1v-1l1,-1v-2l1,-1v-1l1,-1v-2l1,-1v-1l1,-1v-1l1,-1v-1l1,-1v-1l1,-1v-1l1,-1v-1l1,-1v-2l1,-1v-1l1,-1v-1l2,-2v-1l1,-1v-2l1,-1v-1l2,-2v-1l1,-1v-1l1,-1v-1l1,-1v-1l1,-1v-1l2,-2v-1l1,-1v-1l1,-1v-1l2,-2v-1l1,-1v-1l1,-1v-1l2,-2v-1l2,-2v-1l1,-1v-1l1,-1v-1l3,-3v-1l1,-1v-1l2,-2v-1l2,-2v-1l3,-3v-1l2,-2v-1l2,-2v-1l1,-1v-1h1l1,-1v-1l1,-1v-1l3,-3v-1l4,-4v-1l3,-3v-1l3,-3v-1l4,-4v-1l1,-1h1v-1l2,-2v-1h1l1,-1v-1l6,-6v-1l1,-1h1v-1l2,-2v-1h1l1,-1v-1l1,-1h1l1,-1v-1l9,-9v-1h1l15,-15h1v-1l1,-1h1l1,-1v-1l1,-1h1l6,-6h1l1,-1v-1h1l2,-2h1v-1l1,-1h1l6,-6h1l4,-4h1l3,-3h1l3,-3h1l4,-4h1l1,-1h1v-1l1,-1h1l1,-1h1l3,-3h1l3,-3h1l2,-2h1l2,-2h1l2,-2h1l2,-2h1l1,-1h1l2,-2h1l2,-2h1l1,-1h1l1,-1h1l3,-3h1l1,-1h1l2,-2h1l1,-1h1l1,-1h1l1,-1h1l2,-2h1l1,-1h1l1,-1h1l1,-1h1l2,-2h1l1,-1h1l1,-1h2l1,-1h1l1,-1h1l2,-2h1l1,-1h2l1,-1h1l1,-1h1l1,-1h1l1,-1h1l1,-1h1l1,-1h1l1,-1h2l1,-1h1l1,-1h2l1,-1h1l1,-1h1l1,-1h1l1,-1h2l1,-1h1l1,-1h2l1,-1h2l1,-1h1l1,-1h2l1,-1h2l1,-1h1l1,-1h2l1,-1h2l1,-1h2l1,-1h2l1,-1h2l1,-1h2l1,-1h2l1,-1h3l1,-1h2l1,-1h2l1,-1h3l1,-1h3l1,-1h2l1,-1h3l1,-1h3l1,-1h2"/>
<path class="sl" d="M82,389v1v-1h-1h1v-1ZM92,402l1,-1v1ZM97,387v-1ZM116,301h-1l1,-1ZM120,297l-1,1v1ZM119,300h-1h1v-1h1h-1ZM116,301v1v-1h1ZM539,588v3h1v-1l1,-1v1h1v4h-2l-1,1v-1h-1v-3l-1,-3v-2l1,1ZM544,599h1l1,1v1h1v1h-2v1h-1v-3l-1,-1h-1v-2h1ZM552,605h1h-3v-2h1v1h1ZM551,601h-2l-1,-1h1l1,-1l1,1ZM552,611l1,1v1h-2l-1,-1v1v-1l1,-1ZM548,593v1l-1,-1h-1l2,-1h1ZM551,598h-1v-5l1,1v3ZM551,592l-1,1v-4l1,2ZM542,596l-1,-1h2ZM546,583h-2v-1h2ZM545,580l-1,-1l1,-1l1,1ZM563,634h-1v-1h1ZM560,628v1h-1l-1,-1v-1l1,-1v1ZM559,623v1l-1,-1l-2,-1v-1l1,-1h1v2h1ZM299,381v-1h1v1ZM411,395h1ZM467,400h-2v-1h2ZM565,409h-1h1v-1ZM558,396h-1ZM581,399h1ZM577,398h1h-2l1,-1ZM366,302v1l-1,-1ZM364,322h-1ZM359,340h-1ZM366,308h-1l1,-1ZM364,332h-1v-1h1ZM363,333l-1,1v-1l1,-1ZM354,347v1v-2l1,-1v-1l1,1l-1,1ZM721,588h-1l1,-1h1h-1ZM750,75h-1v-1h-1h2ZM752,76h-1v-1h-1h1v1ZM736,67h-1v-1h-1h1ZM697,55h-1v-1h1ZM701,57v-1ZM691,55h-1ZM677,53v-1ZM673,72h-1v-1h1ZM679,73h-1ZM677,73v-1ZM655,78v-1ZM615,85h-1v-1ZM599,37h4l1,1h4l1,1h-2v1l-1,-1h-2v-1h-6v-1h-1h1ZM630,49v1h2l1,1h1h-2v1h-1l-1,-1h-2l-1,-1h1l1,-1v1v-1ZM688,63h2l1,1h1h-2l1,1h-1v1h-1h1v1h-1v-1h-1v-1h-1l1,1h-1l-1,-1l-2,-1v-1h2v1h1l1,1v-1h-1l-1,-1h-1v-1l1,1h1v-1h-1h2ZM662,72l1,1h1v1h-4v1h-2v-1h-1h1v-2l1,1v-1h2ZM755,79h1v1ZM762,82l2,1h-1v-1h-1l-1,-1ZM754,77l1,1l-1,-1h-1l-1,-1h1ZM760,80l1,1h1h-2v-1v1h1h-1l-3,-3h1l1,1ZM746,72v1v-1v1h2v1h1h-1l-1,-1l1,1h1v1h1h-2v-1h-1l-1,-1h-1v-1h-1h1ZM761,82v1h1h-1l-1,-1h-1v-1h-2v-1l1,1h1v1h1ZM693,54h1h-1v1v-1h-1ZM693,56h-1v-1l-1,-1h1l1,1ZM689,54h2v1h-1v-1h-1v-1v1v-1ZM686,52h-1ZM691,66h-1v-1h1l1,1ZM686,60h-1ZM687,63l-1,-1h-1h1ZM689,71h-1v-1h1ZM690,68h1ZM672,72v-1v1h1h-2v-1h1ZM667,73h-1ZM668,75h-1ZM676,73h-1v-1h1ZM655,76h-1v-1h1v1h1ZM656,76v-1h1v1ZM657,58h-1l-1,-1h1ZM605,48h1l1,1h-2l-1,-1h-1h1ZM626,61v1h-1v-1ZM642,81h-1ZM638,82v-1l1,1ZM631,83h-1h2ZM629,64h1ZM614,85h-1v-1ZM614,84h-1v-1h1v1h1ZM609,85h-1h1v-1ZM593,86h-1l-2,-1h1v1h1ZM561,81h-2l1,-1h1ZM740,70l1,1h1v1l2,1h1l2,2h1v1v-1h-1l-1,-1h-1v-1h-2v-1h-2v-1h-1h1l-1,1v-1h-1v-1h-1h1h-1v-1l1,1ZM735,67h1l2,1h1v1h2v1l-1,-1h-1v-1h-2v-1v1h1l2,1l2,2h1v1l-2,-2h-1l-1,-1h-1l-2,-1v-1h-1l-1,-1Z"/>
<path class="sl" d="M733,66l1,1h2v1h1h-1h1v1h2v1l-1,-1h-1l1,1h-1v-1h-1l-2,-1h-1v-1h-1v-1h-1h1l1,1l-1,-1ZM750,75v1h2v1h2l2,2h1l1,1l-1,-1v1h2v1h1l1,1h1v1h1h-1v-1h-2v-1h-1l1,1l-1,-1l-2,-1l-1,-1h-1l-1,-1h-1h1h-1v-1h-2v-1h-1ZM745,73h2v1h1h-1l1,1h1l1,1h-1l-2,-2h-1l-2,-2h1ZM687,61v-1v1h2v1v-1h-1v1l-1,-1v1h1h-3v-1h1l-1,-1h1ZM649,79h-1l-1,1v1h-1v-2h1h-1v-1h3ZM653,77v-1h1v2h1h-1v1h-3l1,-1v-1v1h1v-1h-2v-1h1ZM626,84h1h-2ZM621,84h-1l1,-1h1h-1l1,-1h1v1l-1,1ZM612,84v1h1h-2v1v-2ZM606,85h-1v-1h-1h2ZM593,84h-1v-1h1ZM581,83v1l-1,-1h1l1,-1v1ZM556,78h3v1h-3l-1,-1h-1h1ZM818,309h-1l-1,-1l-2,-4v-5l1,1l3,1l2,2v1l1,1h1l-2,2h-1l-1,1ZM803,291h4v1h-2l-2,-1v-1ZM809,293h1l1,1h1v1l-1,1h-2v-2h-1l-1,-1v-1h1v1ZM799,288h1v1l1,1h-2v-1h-2v-1h-1v-1h1v-1h1ZM788,284h-1l-1,-1v-1h2l1,1v1ZM784,284l-1,1v-1l1,-1ZM807,294h-1l-1,-1h1ZM905,214h-1v-1v1ZM910,220h-1ZM913,224v-1h-1v-1l1,1ZM906,215h-1v-1ZM905,214h1v1ZM910,220h1h-1v-1ZM820,120l-1,-1ZM823,122v1v-1l1,1h-1v-1h-1v-1h-1v-1v1h1v1ZM828,126h-1ZM826,125l-1,-1h1ZM820,120h1h-1v-1ZM4,564v-1v1v-1ZM927,693v-1ZM680,645v-1v1h-1l-1,-1h1ZM692,624h-1v-1h1ZM681,646v1ZM205,538v1ZM203,550l-1,-1v-2h1v-1h-2v-1l1,-1v-1l1,-1h1l3,-1h2l3,-1h1l1,-1h3v1l-3,3h-2v1l-1,1h-2l-2,2l-4,2ZM195,549l1,-1l2,-1v2h-1v1h-1v-1ZM78,379v1l-1,-1ZM78,376h-1v-1v1ZM56,413v1l-1,1v-2l1,-1v-1v1ZM64,397v-1l1,1ZM64,398v1ZM59,425v-2l1,1ZM57,413h-1v-1h1ZM57,404v-1ZM58,416v1v-2ZM196,280v1l-1,1v1l-1,1v1h-1v-4h-1v-6l1,-1v-2h1l4,-7l1,-1h1l1,-1v-1l1,-1l2,-1l1,-1h1v1h1v2h-1v3l-2,1l-1,2v2l-1,1l-2,4l-1,1v1l-1,1ZM185,266v1ZM12,411v-1ZM11,416v1ZM12,410v-1v13l-1,1v12l-1,1v2l-1,1v2l-1,1v-7l1,-6v-5l1,-1l-1,2l1,-2v-5l1,-1v-3l1,-1v-2ZM274,187l-1,1v-1l1,-1ZM270,188h-2l1,-1h1ZM258,191h-1l1,-1h1v1ZM270,169h-1v-1h1ZM261,191h-1ZM268,189h-1ZM265,177v-1ZM258,189v-1h1ZM294,169v-1ZM255,199h-1l2,-2h3v1l-2,1ZM75,467h-1v-1h1ZM709,580l1,1v2h-3v-2h-1v-1h2ZM716,585h-4l-1,-1v-1h2l2,1ZM398,129h1ZM401,128v-1ZM399,129h1ZM379,70l-1,1h-1v-1h1ZM448,52l1,-1v1ZM403,14h-1ZM415,12h1ZM415,7v1l1,-1h1h-1ZM410,9h1ZM395,11h1ZM392,12h-1h2ZM420,6h1ZM422,6h-2l-1,1h-5l-1,1h-1h1l1,-1h5l1,-1h1Z"/>
<path class="sp" d="M413,8l1,-1h5l1,-1h2"/>
<path class="sl" d="M420,7h-1h1h-5v1h-6l-1,1h-1h1l1,-1h4l1,-1h6v-1l-1,1h1v-1h1h-1ZM454,8h2v-1h5l3,1h-7l1,1h-12v-1h3l1,-1h4ZM467,8h6l-1,1h-4v-1h-2ZM547,16h-1l1,-1h1l2,1h-2ZM403,72l1,1v1h-1v5l-1,1v1h-1v1l-1,1v4l-1,5l1,2v4l1,1v1v-1h-1v-1h-1v-1h-6v1l-6,6v2l2,2v2h1v2l-1,1v1h-1l1,-1v-2h-5v1h-1v1l-2,2h-1v-3l3,-3v-3h1v-1h1v-1h1v-4l1,-1v-1l1,-1v-1h1l2,-4v-2h1v-1l1,-1v-2l-1,-1v-1l1,-2l3,-3v-2h1l1,-1l1,1h1v-1h1v-1h1v-1l-1,-1h1ZM551,15h3l1,1h1h-7v-1h-1h2ZM530,70h-2l-1,-1h-1h2l1,1ZM496,16h-1ZM498,20h-1v-1h1h-1h1ZM481,6l-1,1v-1ZM474,6h1ZM435,16h-2v-1h2ZM416,7v1h-1l2,-1ZM412,9h-1ZM392,12h-1ZM398,11h-1h1l1,-1ZM450,10l-1,1l-1,-1h3ZM453,11h1v1h-5l-1,-1h-1l-1,1h-1l1,-1h6ZM444,8v1h-1l1,-1h1ZM439,11v-1l1,1ZM383,70h1h-1l-1,1h-1v1h-1v-1h-1l1,-1h1v-1ZM521,19h-2l-1,-1h-1h5v1ZM507,53l-1,1v-1l1,-1l2,-1h2v1h-1l-2,1ZM523,69v1l-1,-1h-2v-1h-1v-1h-1h2v1h2v1ZM458,96h-1v-1l2,-1l-1,1ZM468,89l-1,-1h2ZM465,90l-1,1h-1l-1,1h-1v-1h1l1,-1h2v-1l1,-1h1v1h-1v1ZM454,98l-1,1v-1h2ZM464,88h-1v-1h1ZM447,104h-1ZM440,108l-2,1h1l2,-2h1ZM424,116h-1l2,-1v-1l4,-2h1l-2,2h-1l-1,1ZM418,118h-3l-1,1h-1l-1,1h-1l-2,1l-1,1h-1l-1,1v-1h1l2,-2h1l1,-1h1v-1h1l1,-1v1h2l2,-1v-1h1v2ZM404,127h-1v-1h2ZM402,123h1l-1,1h-1l-1,1h-1l-1,1h-1v1h-1v-1l2,-1h1v-1h1l1,-1ZM399,13h-1ZM189,312h1l2,2h1l2,-2h1v2l-1,1l-1,3v3l1,1h-1v1h1v1l-1,1l-3,6h-1l-1,1h-1l-1,1v3l-2,2v1l1,2v2l-1,1v1l1,2v1l1,1h2v-2h1l1,-1h2v1l1,1v3l2,-2h-1v-1h1v1h3v1l-2,1v1l1,1v2l1,1h1v2l-1,2h-1v-3h-2l-1,-1h-1l1,-1l-1,-1v-1l-2,-1v-1l-1,-2h-1v4l1,1l-1,1h-1v-2l-4,-4v1h-1l-1,1v1h-2l-2,-2l-1,1v-3h1v-1l2,-2v-2h-1l-1,-1v4h-1l-1,-1v-2h-1v-12h1l1,1v1h2v-5l1,-1v-2l1,-1v-4l2,-5h1v-2l1,-1h2ZM151,398v1v-2l1,-1v-1l1,-1v-1l2,-2h1l3,-3l2,-4l3,-3v-1h1l1,-1v-4l1,-2l1,-1v3l-1,1l1,2v1l-3,3v1h-1l-1,1h-1v1h-1v1l-1,3l-2,2h-1v1l-1,1v1l-1,1h-1v1h-1v1h-1ZM187,369h3v1l1,-1h1v1h-1v2l-1,1h-1v1l-2,2l-3,1v1h-1v1h-1v-1l1,-1v-2l1,-1v-3l1,-2v-1h-1v-1l1,-1v1h1l1,1ZM189,390h-1l-1,-2v-1h-1l-1,-2v-2l1,-1h1l1,-1v-3l1,-1v-1h1v-2h3l1,1l-1,1v1l-1,1v1l-2,4v4l1,1h-1v1ZM201,370h1l1,-1v1l1,1v2l-1,2h1v2l1,1v1h-1v1l-1,-1v-1v3l-1,-1h-1v-2l1,-3v-1l-1,-1l-1,1v-4l-1,-1v-1l1,1h1Z"/>
<path class="sl" d="M207,360v2h1v3l-1,1l1,1l-1,1l1,1v2l1,1l-1,-1l-1,1l-1,-1h-1v-1h-1v-1l-1,-1l1,-1v-1h-1v-1l-1,-1h-1v-1l-1,-2v-1h4l2,-1ZM178,354h4v2h1v1h-1v5h-1v1l-1,1h-1v-1l-1,-1v-4l-1,-1v-1l-1,-1v-1h1ZM209,386v1h1v1l1,2l-1,1v1h-1v1h2v7h1v1l-1,2v2l-2,2h-1l1,1l-1,3v1v-3l-1,-1v-3l-1,-1h-1v2h-1l-1,1v3l1,1v5l-1,2l-1,1l-1,-1v-3l-1,1h-1l-2,-1h-1l-2,-1l-1,-2v-5l2,-2v-2l-1,-1v-1h-2v-1h-2v2l-1,2v-1h-1v-1h-1v1h-1v-1l-1,-1l-2,2l-1,2v1l-1,2l-1,1v-1l-1,-1l1,-1v-1l1,-3v-1l2,-2l2,-1h2v-1h1v-2h1l2,-2h1l1,1v3l-1,1h2v-1h2v-2l1,-1v-1h1l1,1v-1l1,-1v-2h1l1,1h1v-2l1,1l1,-1v-5l1,-1l2,2ZM191,387v-2l1,-2v-1l1,-1v-2l1,-1v-1l2,-4l1,-1v-1v6l-1,1v1h-1v1l-2,2l-1,3ZM194,309v1v-2h1ZM193,305v1h-1v-1ZM197,297v-1h1ZM198,294l-1,1v-1l1,-1ZM174,416v1h1v1l-1,-1l-1,1h-1v-1l1,-1ZM149,403v1v-3ZM169,379v1v-2h1v1ZM173,365h1v1h-1l-1,1v-1l-1,-1v-1h1v1ZM172,369h-1v-2h1v1ZM187,378l-1,1v-1l1,-1v-1h1v1ZM200,383h-1v1h-1v1h-3v-1h-1v-1h1v-1h1v-1l1,-1h2v1h1l-1,1ZM167,424v1v-1l-2,2v-1l2,-2ZM180,413h-1v-1l-1,-1h1l1,-1l2,1l-1,1ZM210,383l-1,-1v-1l1,-1v2ZM207,382v-1l-1,-1v-2h1v-1h1v1l-1,1v2ZM176,352h-1v-1ZM186,353h1v1l-1,1v1l-1,-1v-1ZM186,363l-1,2v-1l-1,-1l1,-1v-1l1,-1v1ZM189,363l-1,-1v-1h1v1ZM194,358v1v-1h-1v-1h-1v-1h1ZM197,361v1h-1v-3l1,1ZM196,362l1,1l1,2v2l-2,-2v-1h-1v-1h-1l-1,2l-1,1v-1l1,-1v-4h1l1,1v1ZM202,351v1v-1h-1v1l-1,-1l1,-1v-2l1,-1v1l1,1v1ZM188,348v1l-1,-1v-1ZM189,341l-1,1v2l-1,-1h1v-1l-1,-1l1,-1ZM198,376l1,-1v1ZM204,381v1v-2ZM186,404v1h-1v-1ZM206,407h-1v-2h1ZM201,369h-1v-2h1v1ZM200,389h-1v-1h1ZM191,308h-1v-1h1ZM170,371v1l-1,-1ZM195,371l1,1h-1ZM209,384v-1ZM203,368l-1,-1h1ZM151,400v-1ZM193,388v1h-1v-1ZM420,501h-1v-1h-1v-5l-1,-1l-2,-3h-1v-1h-2l-1,-1h-1l-2,-2h-1v-1l-3,-2h-3l1,-1v-1l1,1l2,1v1h2l1,1h1l1,1l2,1l1,1l2,1v1l6,4l1,1v2h-1v2ZM411,497h1l1,-1l1,1h1v4l-1,2h-2v1l1,1v2l-1,1h-4v1l-1,1h-1v1l-2,1h-1l-1,1h-1l-1,1h-1l-2,1h-5v-1l-1,-1h-3l-3,-1l-1,-1h-1l-2,-2v-1h8l1,1l1,-1h3l1,-1v-3l1,-1v4l1,1h1l1,-1h1v1h1l1,-1h1l1,-1v-1l2,-2h2l1,-1v-2l-1,-3v-1h2ZM322,541l-1,-2v-17l-1,-1v-31l-1,-2v-4h2l6,3h1l4,2l3,1h2l2,1h1l2,1h1l2,2h4v1l1,1h1l3,3h2l3,4h1v3l-1,2h2l2,1h2l5,3h3l1,1h1v1l1,1h1v4h-6l-1,1v1l2,4l2,2h1l1,2h1l1,1l2,1l1,2v2l1,1h1l1,2v1h2l2,-1h1v1h1v1l-1,1v1l1,1h2l2,1h2v1h-2v1h1v1h1l1,1h2l2,1h2l-1,1h-2v1h2v1h-2l-1,1l-1,-1h-1l-2,-2h-4l-4,-1h-2v-1l-1,1h-1l-1,-1h-4l-1,-1h-1l-1,-2h-1l-4,-4v-1l1,-1l-1,1v-1h-2v-1l-2,-2l-1,-2l-1,-1v-1h-1v-1h-1l-1,-1h-3l-2,-1h-2l-1,-1v-1h-4v1h-1l-1,1v-1h-2l-2,-2v1l2,3h-1l1,1h-3v1h1l-2,1h-1l-2,1h-1l-1,-1h-2v1h-1v-1h-1v-1v1h-1h1l1,1h3l2,1h1v1l1,1h1v2l-1,1h-1l-4,2h-2l-1,-1l-2,1h-4l-1,-1h-1v1h-1Z"/>
<path class="sl" d="M378,511l-2,-2v-1h1l2,1v1ZM361,502h-1v-1l1,-1h1v1ZM418,487h-1v-1ZM413,485v1h-1v-1l-1,-1h1v1ZM393,473v1l-1,-1v1l-1,-1v-1h1ZM405,547h1v-1h1v2h-3v-2h-1v-1l2,1ZM399,542v1h-1l-1,-2v-1h2v1ZM405,536v-2h-1l1,-1v1ZM433,558v1h-2v-1h1ZM342,535l-1,-1h1ZM371,508l-1,-1v-1l1,-1v1l1,1ZM370,477l3,1h-1l-1,1h-5v1h-1v-1h1v-1h1l1,-1ZM398,483h-2v-1h-1v-1h1l1,-1l2,2v1ZM400,541l2,1h1v1h1v1h-4v-2ZM418,538h3v2h-1l-2,-2h-1ZM426,559l2,1l-1,1l-1,-1h-1v-1l-1,1l1,-1h-1v-1ZM343,536v1l-2,-1l-1,-1h1ZM377,480h-1ZM411,484v-1h1v1ZM404,552h-1ZM446,517v1h-1v1h-2l-1,-1h-1l-1,-1v-3h-2v-1l-2,-2v-1l-1,-1l1,-1v-1h2l1,1l1,2l1,1l1,2h1l2,2h1v1ZM435,507l-1,-1v-3h1v1l1,1l-1,1ZM243,438v1ZM270,400v-2h1v1ZM267,158h-1v-1h1ZM571,798h3v-1l2,-1h1v1h-1v1h1v-2l1,1v-1h1v1l-1,1h-1h2l1,-1v1h-1v1h-1l-1,1h1l-1,1h1v1l-2,2h-1v1l-6,6h-1l-1,1h-1l1,1h-1h1v1l1,1h1v1h-4v-1h-1v1h-1v-1h-1v1h1l-1,1h-2v1h-2l-1,1h-1h1l-1,1v2l-1,1h-1h1v1l-2,2v1l-1,1v1h-1l-1,1h-1v1h-1l-1,1l-2,1v1h-8v-1h-1v-1h-2l-1,-1h-1l-1,1h-1l-2,-1h-1l2,-1h-1v-1l-1,1h-1v-1l2,-1h1h-1v-1h1h-1v-1h1v-1l1,1h1h-1v-1h1h-1v-1h1v-1l1,-1l1,1v-1l1,-1h1v-1l1,-1l2,-1l1,-1h3l1,-1h1v-1h1l1,-1h2v-1h1l1,-1h1v-1h1v-1h1l1,1l-1,-1h2v-1l1,-1v1h1v-1l1,-1v-1h1h-1l1,-1v-1l1,-1v-1h1l1,-1h1l1,-1v-1l1,-1v-2l1,-1l2,-1l1,-1h1l-1,1l1,1h1v2ZM577,796h-1v-1h1v-1v1ZM528,828h-1l1,-1ZM530,825h-1ZM536,836h-1h1v1h-1l-1,1h-2v-1h1v-1h1l-1,-1h2ZM593,763l-1,-1v-1h1v1ZM579,752v1v-1h1l2,1h1l2,1v1h1v1h1v3h-1l1,1v1l1,2v2l-1,1v1h2l1,1h1v1h1v-5h1v1l2,2v4l1,1h-1v1h2l2,1v1h6v-1l1,-1h2v-1h2v1h2l-1,1v1h-1l-1,2v2l-2,2h-1v1l-1,1h1v1l-1,1v-1h-1v-1h-2l-1,1h-1l-2,2v1l1,1l-1,1l-1,2h-1v1l-2,2h-1v1l-5,5h-2l-1,1h-1v-2l-1,1v-2h-1v1h-1v-1h1l2,-2l1,-2l1,-1v-3l-1,-1h-1l-1,-1h-1l-2,-2h-1l-1,-1v-2h2l2,-1h1l1,-1v-1l1,-2v-1l1,-1v-2h1v-1l-1,-1v-1h1v-1h-1v-2l1,1l1,-1l-1,-1l-1,1l-1,-1v-1l-1,-2l1,1l1,-1l-1,-1v-1h-1h1h-1l-1,-1v-1h-1l2,2v1h-1v-1h-1l-3,-5l1,-1h1v-1h-1v1h-1v-1h-1v-3l-3,-3l2,-1h1l-1,1v1h1v2ZM537,870v1h-1v-1ZM522,860h-1l1,-1h1h-1ZM633,817l-1,1v-1h-1h1l-1,1h1v1h-2l1,-1l-1,-1h-1h2ZM632,821v-1ZM712,538v-1ZM721,545v-1ZM722,629h-1v-1h1ZM787,650h1Z"/>
<path class="sl" d="M542,463v1h-1v-1ZM973,338v-1h-1h1ZM953,288v1v-1l-1,-1ZM935,255v-1l-2,-2v-1v1h1v1l1,1ZM938,261h-1v-1l-1,-1l1,1ZM936,256l1,1h-1v-1l-1,-2v1ZM930,252v1l-1,-2v-1v1h1ZM922,234v-1ZM949,279v1v1l-1,-2ZM954,292v-2ZM954,290l-1,-1v-1l-1,-1l-1,-3v1l1,2v1h1v2ZM1,471v-1ZM1,463v-1h1h-1ZM61,425v-2h1v1h1v1l1,-1v2h1v2l-1,1v2h1v-1l1,-1h1v1h1v-2l1,-1v-2l1,1l2,4v1h1v2l1,4v7l-1,2v1l1,1l-1,1v5h1l1,2v3l1,4l1,2v1h-1v-1h-1v-1v2h-1l-1,1v-1l-3,-3l-1,-2l-2,-1l-1,-2v-1h-1l-1,-2v-3l-1,-2v-1l-1,-2v-7l-1,-3v-5l1,-2v-1l-1,-2v-1ZM150,435l-1,-1h-1l-1,-1h-2l-1,1v-1h-1v1h-4v1h-1v3l-1,1v6l-1,1h-1l-1,1v2l1,1l-3,3v2h1h-1v1l-1,2v2l-1,-1l-1,1h-2v1h-1v1h-1v-1l-1,1v-1h-2v-2l-3,1h-1v1h-1v3h-1l-1,1h-5l-2,2l-1,-1l-1,-2h-1v-1l-2,-2v-4l1,2h1v1h2l2,1h1l1,1h1h-1v-3h1v-6h1v-2l1,-1v-1h1l2,-1l4,-1l2,-2v-1l2,-4l2,-2l1,-2v-2h1v-1h1v2h1v2h2v-6l1,-1h1v4h1v-5h1l1,-1v-2h-1v-1l2,-2v1h1v-1l2,-2v-3l3,-3v-1l2,-3v2l-1,1h1v-1l1,-1v-1h2l-1,1l1,1v1h1l1,1v1l-1,1v2l-1,1l2,-1h1l1,-1v2h-1v1h1l1,-1h1l1,1v1h1l1,1h2v2l-2,2h-4l-1,2l2,2v1l-1,1h-2v1h-1l-1,-1h-1v1ZM77,454l-1,1v-1l1,-1ZM61,435h-1l1,-2v1ZM60,425v2h-1v-2ZM149,409v-1l1,-1v2ZM64,454v-1ZM113,453v-1ZM152,434h-1ZM594,432l-1,1ZM593,433h-1ZM594,444v-1h-1h1ZM594,445v-1ZM594,451h1l-1,1l1,-1ZM607,467h-1h1l-1,-2h1v1ZM609,470v1ZM594,448h1ZM716,502h-1ZM725,491v-1ZM853,571v-1ZM833,518h-1ZM824,453l2,1h-1l-1,-1v-1l-1,-1h1l1,1ZM810,434l1,1h-1h1v-1ZM720,487v1h1h-1ZM306,177h-1v-1h1ZM340,165v-1h1h-1v-1h1l1,-1v2ZM311,189l-1,1h-1v-1h1l1,-1v-1h1l-1,1ZM274,219h-1v-1l1,-1v1h1ZM277,217l-1,1v-1l2,-2v-1v2ZM275,205v-1l1,-1h1l-1,1ZM275,192v-1h1ZM277,190l-1,1v-1l2,-2v1ZM268,201h1v1h-1v1v-1ZM278,203h-1ZM373,119v-1h1ZM374,120v-1h1v1ZM357,138v-1h1ZM308,188h-1ZM271,201h-1l1,-1h-1h1l1,-1v1h-1ZM274,198h-1h1v-1h1ZM277,194v1v-1h1ZM296,191h-1ZM293,192h1v1h-1ZM272,209h-1l1,-1ZM347,242v-1ZM387,125h2l2,1h2l2,-1l1,-1h1h-1l-2,2v2l1,1v1h1v-1h1l-1,1h-2v1h-3l-1,1h-4l-2,1l-1,1l-2,1v1h-1v1l-1,1l-1,-1l-5,-2l-1,-1l-6,2v-1h-3v1h-1l1,1h1l2,2l-1,1h-1l-1,-1v1h-1l-1,1h-1l-1,1v-2l1,-1v-2h-1l1,-1v-1l1,-1h1l1,-1h1v-1h1v-2h1l1,1h3l1,-1v-1l4,-4v-1l1,-1v-4l1,-1h1l1,-1v1h1l1,2l2,2v1l1,1h2Z"/>
<path class="sl" d="M286,195h2v-1h1v1l-2,2h2v3l-5,5v1l-1,1v1l-2,2h-2v1l-1,1l-2,1h1v-2h1v-3l-2,2v1h1l-1,1l-2,-1l1,-1v-3l5,-5h-1l1,-1v-1h-1v-2h-1v2h-1h1v2h-1v-1h-1l-1,1h-1h1v-2h1v-1l-1,-1v-1h2v-1h2v-1h2v-1h1v-1h3v1ZM307,189l1,1h1l-1,1l1,1h-1h1l-2,1l-1,1h-1v1l-1,1l-1,-1h-2l-3,1v1l-1,1h-1v1l-1,1h-2l1,-1h-2v-1h1v-2h-2l1,-1h1l1,-1h1l1,-1v-1h1v-1h1v1h3l1,-1v-1h1l1,-1h2ZM366,142h1l-1,1v4h1v3l1,1h-1v3l-1,1v1h-2v1h-1v1l-1,1v1h-2l-3,3v3l-1,3l-4,4v5h-1v1h-2v2h-1v1h-1l-1,1h-1v1h-1v-1l1,-2h1v-1h1v-2h-1v1h-1v1h-1v2h-1v-1h-2l-1,1v1l-3,3v-2l1,-1l-1,-1l-2,2h-1l-1,1v1h-6v-1h-2v1h-1l1,-1v-2l-3,3v1h2v1h-1l-2,1h-1l-3,3l-1,2h-3l-1,-1v-4l1,-1h1v-1h1l-1,-1h-1l-1,1v-1h-5l-2,2h-3l-1,1h-2l-2,1h-1l-1,-1l-1,1l-1,2l-1,1l-2,-1h-5v-2h1v-1h3l1,-1h1l1,-1h1v-1h1l1,-1h1l1,-1l2,-1l2,-2h2l1,1v-1h5l1,-1h4l2,-1v2h2l1,-1h1l1,-1h1l-1,-1l1,-1v-1h1l1,-1h1l1,-2l2,-1v-1l1,-2l1,-1h1l2,-1l-2,2h-1v3h2l1,-1l5,-2h1l2,-2h1v-1h1v-1l1,-1l3,-1h1v-1l1,-1v-1l1,-1h1v-1h1l1,-2v-1h1v-1h1v-3h-1h1v-1h1v-3l1,-1h1l1,-1h1v-2h2v2h1v-1l1,1h1v-1l1,-1h-3l1,-1v-1h1ZM221,264l-1,1h-1v-1h1l1,-1ZM218,266h-2v-1h2ZM228,261v1h-1ZM251,246h-1v1h-1l-1,1v1h-1v1h-1l1,-1v-2h1l1,-1h-1h2l1,-1v-1l1,1h-1ZM258,238h-1v-1l1,-1v1ZM262,234l-1,1v-1h-1l1,-1h2v-1h1l-1,1h-1ZM261,235h-1v-1h1ZM341,196h-1ZM48,470l1,2l1,1v4h-1v-2l-1,-1v-1l-1,-1v-2h1v-1ZM55,497h-1v-1h-1v-1l-1,-2v-1l1,-2v-1l1,1v3l1,1h-1l1,1v1ZM147,546v3h-3l-1,-1h1v-4l1,-1h2v1h1ZM140,543l1,1v2l-2,1v2h-1v-2l-2,-2h-1l-1,-1v-1h3l1,-1h1ZM85,492v1h1v3l1,2l2,1v1h-1v3h1h-2l-1,-1h-1v-4h-1v-2h-1v-1l-1,1h-1v-2h1v-3h1v1h1l-1,-1l1,-1h1v1ZM186,508l1,2l-1,-1l-1,1v3h1l1,1l-1,1h-1v2l-1,1v-1v1h-1v-3l1,-1v-6l1,-1v-1h1v1ZM183,514v1h-2v-5l1,-1h1v-1l1,1v2l-1,2ZM97,444h-1v-1h1l-1,-1v-1l1,-2v1l1,1v1ZM96,502v2h-1v-1h-1v1h-1v-6h2l2,2ZM275,469h2l1,1v-1h1l1,2l1,1h1v1l-1,1h-1v-1h-2v-3l-1,1l-1,-1h-1ZM275,477h6l2,1h4l-2,1h-5l-1,-1h-3ZM240,465h1l2,1h1l-1,1h1l-1,1h-2l-2,-2h-1h1v1h1v1l-1,1v-2l-1,1l-1,-1h-1v-1h1l1,-1v1v-1h1ZM223,448h-2v-2l1,-2l1,-1h1v3ZM220,480v1h-5v-2l1,-1h1l2,1h1ZM206,488h-1v-2h-1v-1l1,-1v2l1,1ZM205,482h2v1h-3l-3,1v-1h2ZM198,482h1v1l1,-1v1l-1,1h-2l-1,1h-2l-1,-1l1,-2h2Z"/>
<path class="sl" d="M246,534h-1l-1,-1h1v-3l2,-2v-1h2l-1,1l1,1l-1,2l-2,2ZM213,533v1h-1v1h-1v1h-2l-1,-1l-1,1h-1v-1h1v-1h2l1,-1h1l1,-1ZM198,538v1l1,-1h2l1,1v1l-5,1v-2ZM241,476h-1l-1,-1v-2h3v2ZM46,438h1l1,-1h2l1,2v3h1v4l2,2v1l3,3v1l1,2v1l1,2l1,1v2l1,1v1h1v-3l1,1v1h1v3h1l1,1v1l1,1v3l2,2h1l1,1v1l-2,2h1l1,-1v-1l1,-1h1v1l1,1v3h-1v2l-1,1h1v3l2,2h2v3l1,2v3h1v5l1,-1v-1h2l1,1l2,3v2l1,1l-1,2v10l1,1v10h-1v-1h-1l-1,-1v1l-1,1v-1l-2,-1v1l1,1v1h-1v-1h-1l-1,-2l-1,-1l-1,-2v-1l-2,-1v-1l-2,-2l-2,-3l-1,-1l-1,-3l-3,-3v-1l-1,-2v-1l-1,-1l-1,-2v-4l-2,-5v-2l-2,-4v-2h-1v-3l-3,-3v-6l-1,-3v-2l-2,-4h-1v-1h-1v-4l-1,-1v-3l-1,-2v-1h-1l-1,-1v-2l-1,-2l-1,-3l-1,-1v-7h2v1l1,1v1ZM186,543l-1,1h-3v1l-2,1h-1l-1,-1l-1,1h-1l-1,1l-2,-1h-5v1v-1h-1v-3h1l2,-2h2l1,1h2l1,1h1l1,1v-1h2v-1h1l2,2l1,-1v-1h1v-1h1l1,-1l-1,-1h1l1,2h-1l-1,1l1,1ZM169,551l1,1h1v1h1l1,1v1h1v1h1v1l-1,1h-1v1h-1l-1,-1h-1l-1,-1v-1h-1l-1,-1h-2l-2,-1v-1h-1l1,-1h1v-1h4v-1ZM157,543l1,-1h1v1h1v-1h1v1l1,1v1h1v1h-3l1,1h-3v-1l-1,1h-1l-1,1h-1l-1,1h-2v1h-2v-1h-1v-4h1l1,-1h3v1h1v1h3v-1l-1,-1h-1l-1,-1v-2h2l1,1ZM197,459l-2,2v2h-1v1h-2l-3,1h-3l-1,-1h-7l-2,1l-1,-1h-1v1h-7l-1,1v1l-1,1v2l-1,1v1l1,1v2l1,2l1,1h1v2l1,1h3v-2h1l1,-2v-1h1l1,1h1l2,-2h4v-1l1,-1h2l1,1v3h-1l-1,-1h-2v1h-1v1l-1,2l-2,2l-2,1l-1,1v1h-3v1h1v1h1v1h1l1,1l1,2v1l2,2v1l1,1l-1,1v4h1l1,1v1h1v1h1v-1v3h-1v1h-1l-2,1h-1v3h-2l-1,-1h-1v-4l1,-1v-1h-2v-1l-3,-3v-1l1,-2v-4l-1,-1h-2l-3,3v1l1,1l1,6v10l-1,1h1v2l1,1v1h-4v1h-2l-1,-1v-7l1,-1v-5l-1,-2v-3h-2l-1,1l-2,-2v-6h1l1,-1v-3l1,-1v-7l2,-5h1v1v-9l1,-2v-1h1v-2l1,-1v-1l1,1h1v-1h1v-1l1,-1v-1h1v-1l1,1h2v1h3l1,1l2,-1l1,1h1l1,1h1v-1h7l2,-1l1,-2h1v-2h2v-1l1,-1v-1l2,2l-1,1l-1,2v1ZM94,529l1,1h1l1,1h1v-1h1v1l1,1l1,2v1h4v-1l1,1h4l1,-1v-3h1v-1h1l1,2h3v1h2v1h1l1,-1l1,1v1l2,2v2l1,1h4l1,-1h1l2,1l1,1v6l1,1v1l-2,-2v1l-2,-1l-1,-1l-3,-1h-1l-1,1h-11l-2,-1l-3,-2h-1l-3,-1h-3l-2,2l-1,-1h-2l-1,-1l-2,-1h-4v-3l-1,-1h-5v-2l1,1v-1h1v-5l1,-1h3l1,1l1,-1v-1h1ZM103,457v4l2,2v1h1l1,2l1,1l2,-2h5l1,-1h1v-3h1v-1h1l3,-1v2h2v1l1,-1v1h1v-1h1v-1h2l1,-1l1,1v-2l1,-2v-1h1h-1v-2l3,-3l-1,-1v-2l1,-1h1l1,-1v-6l1,-1v-3h1v-1h4v-1h1v1l1,-1h2l1,1h1l1,1h-1l1,1v1l1,1v1h-1l-1,-1v1h-2l-1,1h1l1,1v2h1v1h1v1h-1h1v2h1v1l1,2v2h-1v2l1,2h1l3,3l1,2h1l-2,2h-3l-1,-1v-1h-1v1h1l-1,1v1h-1l-1,5l-1,3v2l1,2v2h-1l-2,2v1l-1,1l-1,-1v-1v3l-1,1v1h-1l-1,1v1h1v2l-1,1h2v3h-1v4h-1v3l-1,1v2l-4,3l-4,2v-4l-1,-1v-1v1h-1v-2l-1,1v-1l-2,2h-1v-3l-1,1h-1l-2,-2v2l-2,2h-1l-1,-1l-1,1v1l-1,1v-5l-1,-1l-1,1h-2l-1,1h-1v-1l-1,1v-1h-1l-1,1v-3l-1,-4v-2l-1,-1v-6l-2,-2h-2v-2h1l-1,-1v-1h-1v-1l1,-1v-3l-1,-1v-1l-1,-1v-4l1,-2l1,-1h-1v-2l1,-1v-1l1,-1v-1Z"/>
<path class="sl" d="M217,459h1l1,-1v-1l1,-1v-2h1l2,-2h1v4l-2,2h-1v1l1,1l2,1v2h1l1,1l-3,-1l-1,-1h-3l-1,1l1,1v1l-1,1l3,6l1,1v1l-2,-2h-1l-1,-2v-1h-1v-6h-1v-5l-1,-2v-1l1,-2v-2l1,-1v-1l2,-2h1v1l-1,1v6l-2,2v1ZM232,490l2,1h3l2,2v1l2,2l-1,2h-1l-2,-1l-1,-1l-2,-1l-1,-1h-2v1h-4v-1h-2v1l-1,1h-1l-1,-2h-1v-1l-1,1v1l-1,1v1v-3l1,-3h1l3,-1h3v1h2l1,-1h1ZM211,493l2,1v1h1v3h-1l-1,1h-1v1h-1l-1,-1h-1l-1,-1v-1h-1v-3h2l1,-1ZM201,545v1h2v1h-1v2l1,1h-1v1l-1,1l-1,2l-1,1v1h-2l-2,2h-1l-1,-1l1,-1v-1h-1v-4l2,-2h1v1h1v-1h1v-2h1l1,-1ZM271,513v6h-2l-3,-3h2v-2h-1v-1h1l1,-1v-1h1v1ZM270,520h-1v2l-2,2l-1,-1v-3h1h-1v-2l1,-1v1l1,1h1ZM302,534l-2,2l-3,-1h-1l-1,1v-1l2,-6l1,-1h1v-1h4l1,1h1v1l-1,2v1ZM319,484v4l1,2v31l1,1v17l1,2h-1l-8,-8l1,-1v-1l-2,2h-5v-1v1h-1l-1,1h-1v-2l1,-1v-2h1v-1h-1l-1,-1v-1h-1v-1h2l-1,-1h-1l-1,-1v-1h2l-1,-1h-1v-2h-1l-1,-1l-1,-2v-3h-1v-1h1h-2v-2h-1v-1h-1l-1,-1l-3,-2h-3l-1,-1h-2l-2,-1h-1l-1,-1h-1l-2,-1h-4l-4,-2v-2h1h-5v-1h-2v-1h-1l-1,-1v-3l1,-1v-1l-1,1v2l-1,1v1l-1,1v2l-1,1h-1l-1,1l-1,-1l-1,-2v-1l1,-1l-1,-1v-1l-3,-3h-3v-1l1,-1h5l2,-2v-1h2l1,1h2v1v-2h1v-2l1,-1l-2,1h-4l-2,1h-5l-1,-1v-1h-1v-1l-1,-2v-1h-1l-3,-1h-3l1,-1v-1h1v-3l2,-1h2l1,-1v-1h1l1,-1l2,-1h1l2,1h2l1,1l2,1h4l1,1v3l1,1v2l-1,1v5l1,1l2,4v-2l1,-1v2l1,2h1v3h1l1,1h2l4,-4v-1l3,-3v-2h1l1,-1h2l2,-1l1,-1l-1,-1l2,-2l4,-2h1v1h1l5,2l1,1h2l1,1l5,2h3v1h4v1h1ZM305,535h-3v-1h1v-1h1ZM65,462l1,1h-1v2h-1v-3h1v-1ZM68,471v-1l-1,-1v-1l1,-1v3ZM69,467v1l-1,-1h-1v-2l1,1ZM71,472v1l-1,-1h-2v-1l1,-1v-1v1h1v1h1ZM71,471l-1,-1h-1l1,-1l1,1ZM72,474h-1v-1h1ZM73,473l-1,-1v-1h1v1ZM75,468h1v2h-1v-1ZM78,467v4l-1,-1v-1h-1l1,-1h1ZM79,479v1h1l-1,1l-1,-1h-1l1,-1v-1v1ZM77,481l1,1v1h-1v1v-1l-1,-1l1,-1v1ZM74,481l-1,1v-1ZM104,485l-1,1h-1v-2l1,-1l1,1ZM129,534v1h-1l-1,1h-2l-2,-1v-1l1,-1l6,-1l1,1l-1,1ZM271,473l-1,-1h2ZM214,471h-1v-3l1,1v1ZM216,469l1,1l-1,1l1,1h1v2l-1,-1h-2v-2h-1v-2h1v1ZM257,516h-1l1,-2l1,-1v-3l1,1l-1,2l-1,1ZM256,515v1h-1v-3h1ZM222,498h-2v1h-1v-1l1,-1h1l1,-1v1ZM211,431v1v-5h1v3ZM203,437h-1v-2l1,1ZM243,537l-1,1l1,-1l1,-2v1h1h-1ZM235,535h-1l-1,-1v-1h2v1ZM221,537h2l-1,1l-1,-1h-1ZM237,480v2h-1v1h-1l-2,-1h-1l2,-2h2Z"/>
<path class="sl" d="M70,527h-1v-2l1,1ZM60,508v1v-2h-1v-2l1,2ZM59,505h-1v-2l1,1ZM58,501h-1l-1,-1v-1h1v2ZM52,486v1l-1,-1v-1l1,-1l-1,-2h1v3ZM45,463h-1v-1l-2,-2v-1l1,-1v1h1v1l1,1v1ZM179,516l-1,-1v-2h1v1ZM186,478v2l1,-1h1v1l-1,1v-1h-1v2h-1l1,-1l-1,-2v1l-1,1v1h-1v-3l1,-1h1ZM177,472v1h-2l1,-1ZM170,524v2l-1,-1v-5l1,1ZM138,532v1l-1,-1l1,-1l1,1ZM142,505l-1,2v-2l-1,-1v-2l1,-1v-1h1v4ZM190,563h-1v-1l1,-1h1v-2h1v2l-1,1ZM196,540v2h-1l-1,-1v-1h1l1,-1ZM194,540h-1l-1,1v1h-1v1l-1,-1h-1l1,-1h1v-1h-1h2l1,-1h1ZM190,541h-2v-1h2ZM271,521l-1,-1h1ZM73,470h-1v-1h1ZM74,471v1ZM76,471v-1ZM78,477v1v-2ZM87,450h-1v-1h1ZM84,452v-1ZM100,450l-1,1v-1l1,-1ZM100,489l-1,1v-1ZM92,501v1v-1h1ZM90,503h-1v-1h1ZM133,534v1h-1v-1ZM122,524h-1l1,-1ZM84,535v1l-1,-1h1v-1ZM48,464v1l-1,-1v-1h1ZM43,433v1h-1v-1ZM188,483v-1h1ZM187,504l-1,1l-1,-1v-1h2ZM190,485v-1ZM185,484v1v-2ZM165,546h-1v-3h1v2ZM162,542v-1ZM141,548h-1l1,-1ZM150,434h2v1l-1,1l-1,-1ZM150,442h-1v-1h1ZM193,520l-1,-1h1ZM190,514v1l-1,-1ZM172,531h-1v-1ZM153,544h-1v-2h1ZM143,501l-1,2v-2ZM215,459l-1,1v-1ZM267,482v-1ZM261,501h1h-1l-1,-1h1ZM241,472h-1l-3,1v-1h3ZM238,470l-1,-1h2ZM230,467l-1,-1v-1ZM215,466v-1ZM215,461v-1ZM214,473h-1l1,-1ZM225,497h-1v-1h1ZM224,497h-1v-1ZM211,433l-1,-1v-1v1h1ZM212,434h-1v-1h1ZM201,444v-1ZM251,527v1l-1,-1h-1l1,-1ZM226,528h-1v-1h1ZM218,533h-1v-1h1ZM192,558l-1,-1l1,-1l1,1h-1ZM182,561h-1v-1h1v-1h1v1ZM272,520v-1ZM271,522h-1h1v-1ZM219,492h-1ZM217,495h-1v-1ZM188,542l-1,1v-1h2ZM39,426l-1,-2v-1l1,-1v2ZM39,421l-1,1v-1ZM38,414v-1ZM38,417v-1h1v1ZM39,415v1v-2ZM38,407v-1ZM39,395v-3h1v1ZM41,388v-1ZM41,386v-3h1v-3h1v-4l1,-1v-2l1,-1v-2l1,-1v1l-1,1v2l-1,1v4h-1v3l-1,1v3ZM43,382v1ZM44,375l-1,1l1,-2ZM5,428v-1ZM680,578l-1,-1h1ZM664,586h-1v-1h1ZM847,616v-1ZM854,624v-1h1ZM847,618h-1v-2h1v1ZM857,625l1,1v1h-1v-1h-2v-2h2ZM922,563v1h-1v-1ZM921,565v1ZM922,570v-1ZM918,555l-1,1v-2ZM917,560v-1ZM899,631v1v-1h1v-1v1ZM920,556v-1ZM899,636h-1v-1ZM898,634v-1ZM917,640h-1v-1h1ZM915,638h-1v-1ZM902,658v-1ZM895,616v-1ZM890,620h-1v-1ZM889,620l-1,-1h1ZM883,612v1v-2ZM880,616v-1ZM517,634h2l4,4h2v1h1v2h1l2,2h1l1,1h1l4,4h1l1,1h1v2l-1,1h-1l-1,-1h-2v-1h-1l-1,-1v-1h-2v-1h-1l-1,-1l-2,-1h-1l-2,-2h-1v-1l-4,-4v-1l-2,-1v-2h-1v-1h1Z"/>
<path class="sl" d="M543,654h-1v-1h1ZM482,626v-1ZM547,644h1v2h-1v-1h-1v-1l1,-1ZM536,638h-1l1,-1v-2l1,1h-1v1ZM543,642h-1v-1h-2v-2h1l-1,-1h2v2l1,1ZM173,878l-1,-1l1,1h1v1v-1h-1v-1v1h1v1h1h-1h1v1h1v1h1h-1h1h-1v-1l1,1v1v-1h-1v-1h-1l-4,-4h-1h1l1,1ZM173,878l-1,-1ZM647,601l-4,4v1l1,-1l2,-1v2h-7v1h-1l-1,1h-1v-1l-1,-1v-1h2l1,-1h1l1,-1h2l1,-1h1l1,-1v1l1,-1ZM632,611l2,2h1v4h-1l-1,1v-1l-1,1h-2l-1,1l-1,-1h-1l-2,-1h-1v-2h1v-2l1,-1h1l2,-1h2ZM647,608h-1l1,-1v-1h1v1ZM646,608v-1l1,-1v1ZM633,625h-2l-1,1h-1v-1h2v-1h1ZM654,617h-1v-1h1ZM659,617v-1ZM654,611v-1h1v1ZM656,627v-1ZM624,609v-1h1v1ZM642,611h-1v-1h1ZM640,617v1v-2l1,1ZM637,614h-1v-1h1ZM647,604v-1h1ZM647,601h1ZM626,569h-1ZM653,639v1ZM184,266v1h-1v-1ZM224,213h-2v-1l-1,-1h2v1ZM222,224l-1,-1h2ZM221,226h-1v-1h1ZM223,224v1h-1v-1ZM196,258l-1,1v-1h1v-1ZM133,297h1v1h-1ZM211,238h-1h1v-1ZM154,282v-1ZM147,292v-1l1,-1v1h-1ZM146,291v1v-1h1ZM133,305l1,1l-1,1v2h-1l-1,2l-1,1v1l-1,1v1l-1,1h-1v1h-1v1l-1,1h-1l-1,1h-3v-1l-1,-1v-1l1,-1v-4h1l1,-1l1,-2h1l1,-1h-1h1v-1h1l1,-1h2l1,-1h1v1v-1l1,1v-1l1,-1ZM152,287v-1h1ZM156,284v-1h1v2h-2ZM156,286v-1l1,1ZM155,286h-1h1l1,-1ZM766,86h1v1h1l1,1h1h-1v-1h-1v-1l4,4h1v1h-1l-2,-2h-1v-1h-2v-1h-1l-1,-1ZM774,91l1,1h1v1l-1,-1v1h2l2,2h1v1h1h-1l-2,-2l-2,-1l-1,-1h-1l-1,-1h-1h1ZM799,106l2,1h1l1,1h1v1h1l1,1h1l4,4h1l1,1h1l4,4v-1v1h1l1,1h-2v-1l-2,-1h-1v-1h-1v-1h-1v-1h-1h1v1l-1,-1h-1l-2,-2h-1h1h-1l-3,-3h-2v-1h-1h1h-1l-1,-1v1v-1h-1v-1h-1h1h-1v-1h-1h1v1l-1,-1h-1v-1h-1h1ZM656,25h-1l-2,-1h-1l-1,-1h-2l-1,-1h-3v-1h-3l-1,-1h-3v-1h-1h1l1,1h2l1,1h3l1,1h2l1,1h2l1,1h2l1,1Z"/>
<path class="sp" d="M636,19h2l1,1h2l1,1h3l1,1h2l1,1h2l1,1h2l1,1"/>
<path class="sl" d="M767,85l-1,-1h1ZM783,98v-1h-1ZM772,88h-1h1h-1v-1ZM778,92l-2,-1h-1v-1h-1v-1l2,2ZM766,84l-1,-1h1ZM782,94l2,1l1,1l-2,-2v1l-1,-1h-1l-1,-1v-1h-1h1l1,1ZM809,114h1h-1v-1ZM811,113l1,1l-1,-1h-1v-1h-1h1v1ZM807,112h-1l-1,-1v-1v1h1v1ZM806,110l-2,-1v-1l1,1h1ZM784,96l-2,-2h-1h1l1,1ZM792,101h1h-1l-1,-1ZM786,96h-1l-1,-1l1,1ZM780,93l-1,-1h-1h1ZM780,92h-2v-1v1h1ZM817,118h1h-1l-1,-1h1v1h1ZM817,117h-1l-1,-1l1,1ZM807,110h-1v-1v1ZM649,26v-1ZM79,382v-1ZM80,386l-1,1v-1ZM59,388v1v-1h-1h1v-1ZM57,396v1v-1l1,-1v1ZM60,383v-2l1,-1v1l-1,1ZM62,379h-1l1,-1ZM61,381v1v-2ZM62,374h1l-1,1v-2ZM61,377v1h-1v-2h1ZM55,348v1v-1l1,-1v-1v1ZM66,344v-2h1ZM59,326v-1l1,-1v2ZM62,316v1ZM62,319v1v-1v2h-1v-2ZM60,387v-1ZM60,381v1l-1,-1l1,-1ZM61,376h-1h1v-1ZM63,369v2l-1,-1ZM56,349v-1ZM61,316l-1,1l1,-1v-1ZM136,429v5h-1v-4ZM135,430h-1l-1,1v6h-2v-2h-1v-2h-1h1v-1h1l1,-1h1v-1l2,-2v1ZM62,300l1,-3v2ZM64,298v-1ZM61,300l-1,1l1,-2l1,-1v-3h1v-1v2l-1,1v1ZM63,302v-1ZM62,304l1,-1v1ZM63,294v-1ZM341,565v1l-1,1v1l1,1h1v1l1,1v1l1,1v4l1,1v4h1v2l1,2h1l1,1l2,-2h1l1,-1l1,2v1l3,1l2,2h1v5l1,2v1l1,2v4l3,3h1v1l2,3v8l2,2h1v4h1l1,1h1l1,1h2l1,1h2l1,1v1l2,1h1v1h2v1l2,1h2l2,2v1h-1v1l5,5v1l2,2v1l1,3v2h1v1h1l1,1h1l-1,-2v-1h1l1,1l2,1l1,1v-2l2,2v5l1,2l1,1v1h1l3,3h2l1,1h1l1,3l1,1h1l2,2v1l3,3l1,2v1l2,2l-1,2l1,6v2l1,1l1,3l1,1v1l1,2v2l1,1v2l-1,1l-1,2v7l-1,3v7l-1,3l-2,2v3l-1,1h-1v2h-1l-3,3v1l-1,1v1h-1l1,1v2h-1v1l-1,1v1l-1,1v5h-1l-1,3l-1,1v6l-1,2v1l1,1v4h-1l-1,1h-1l-1,1h-8l-1,1l-2,1l-4,4l-3,1h-1v1h2v2h-1v-1h-1v-1h-2v-1l-1,-1h-3v-1h1v-1l-1,-1h-1v2h-3l-1,-1h2v-1l1,-1h-1v-1h-1l-2,1l-1,1h2l-1,1h-1l-4,4h-2l-1,-1h-1l-1,-1l-2,-1h-3l-2,-1h-1l-1,1h-1l-2,-1l-1,-1h-3l-3,-3l-3,-2l-1,-1v-4l-2,-2l-1,-2l-1,-1l-4,-2v-1h2v-1h-1v-1l-1,1h-1v1h-1l-1,1h-2v-2l1,-1v-2l-1,-2l-4,-4v7h-2l-1,1h-2v-2h2v-4l-1,-1v-1l1,-2v-2l1,-1v-1l-1,-1v-1l-1,-3v-1h-1v1l1,1l-2,2v4h-1l-2,2h-1v1h-1l-1,3l-1,1v2h1v1h-2l-1,-1h-1l-1,-1h-1v-1h1l1,1l-1,-2l-1,-1v-1l-4,-4v-1l-1,-1h-1l-1,-1h-2l-1,-1l-1,-2h1v-2l-3,-1l-1,-1h-4l-3,-2h-1l-2,1h-1l-6,-3l-1,-1h-1v1h-6l-3,1h-3l-1,1l-2,1l-3,2h-2l-2,1l-1,1h-7l-1,2h-1l-4,4h-2v5l-1,2h-1l-1,1l-1,-1h-1l-4,1h-2l-2,-1l-3,1l-2,1h-3l-1,1v2l-1,1h-2l-2,4v1h-2v1l-3,-1h-3l-2,-1h-1l-3,-2l-1,-1h-2l-2,-2l-2,-4h1l1,1h1v-4l-1,-1l-2,-3l1,-1l-1,-1l-2,-4v-1l-3,-3l-2,-3l-1,-1l-1,-2l-2,-2l-2,-4v-2h-1l-1,-3l-2,-2h-1v-1l-1,-1l-1,-2l-2,-2v-1l-2,-3l-4,-5l-4,-5h-1h1v-1l3,3v1l1,-1l-1,-2h-1l-1,-1l-1,-2l-1,-1v-1h1v1l2,2v1h1l-1,-1h1l1,2l1,1v-2l-1,-2v-1l-2,-2l-2,-3l-1,-1l-3,-5l-1,-1v-8l-1,-1v-2l-2,-2v-7h1l1,3v1l1,1v-2l1,-3v-1h1l1,-1l1,-2l2,-2v-2l3,-3h2l1,-1l1,1h1l1,-1h1l1,-2h1l1,-1h2l1,-3h4l3,-1l1,-1l2,-1l2,-2l1,-2v-4l1,-1v-2l1,-1l1,-2h1v-1h-1l-2,-4v-3l1,-1v-1h1v-1l1,-1v-2l1,-1l1,3l2,2l1,2l1,1v1h1h-1v-4l1,1h1l-1,-1l1,-1h-1v-1h-1l-1,-1v-1h-1l1,-1v-2l2,2v-1l1,-1v1h2v-2h1v-3l-1,2v-1l-1,-1v-2h1v-1l1,-1l2,1v-1h-1v-1h-1l1,-1v-1l1,1h2v-1h-1v-1l-1,-1l1,-1v-1h1v-2h1v1h1v1l1,1v-4h1v-1h-1v-1h1v1l1,1v-2l1,1h1l1,-1v-2h1l1,1h2l3,3l1,2l3,2v1l-1,2l1,2v-1l1,1v-1l-1,-1v-1l1,-1v-1h2l3,1l1,1v1h1v-1l-1,-1l1,-1v1h1l1,1v1v-3h1l-1,-1v-1l-2,-2v-1l1,-2h1v-4l1,-1h1v-1h1l-1,-2v-1l1,-1v-2h2v-2l1,1h1l-1,-1v-1h1v-1h2v-1l1,1h6v-1l1,1h1v-1h2l-1,-1v-3l-2,-2h-3l-1,-1h-1l1,-1h1v1h1v-1h1l2,1l1,1l1,-1h1v1l2,2h2v1h3l2,1h5l1,1h1l2,1v-1l2,-1l1,-1h1v-1h1l-1,1h1h-1v1l-1,1l1,1v-1h2v2h2v-2h-1h1l1,-2l2,2h1l1,1l-3,4v1l1,1l-1,2h-1v-1h-1v1l-2,1v2l1,2v1l-1,2v1h-1l-1,3v1h-1l1,1v1l3,2l1,1l2,1l2,2h2v1l1,1h1l1,-1v1h1l1,1l2,1h1l3,3l4,2h2l2,1l1,1v1l1,1l4,2h1l1,1h2l2,-1h1l1,-1l1,-2v-2l2,-3v-4l1,-1l-1,-1l1,-3v-4l1,-1l-2,-5v-1l1,-2l-1,-1l-1,-2l1,-2v-5l1,-1h1v-2h-1v-1h-1v-1l1,-2v-1h1v-3l1,-4v-2l3,-3l1,1h-1v1l2,1v2l1,1v4l1,1h1Z"/>
<path class="sl" d="M429,680h-1v-5l1,-1h1v-1l-1,-1h1v1l1,1l-2,4v1ZM315,606l-1,1h-1v-2h2l1,-1l1,1h-1ZM291,583h1v-1l1,1l-1,1v2h1v1h-4v-4h1v-1h1ZM243,567h1v1h-1l-1,-1l-2,1v-1l1,-1v-1h-1l1,-1h1v2ZM244,564h1l1,-1h2v-1l2,2v1h-1v2l-3,2l-4,-4v-3l1,1ZM161,695l-2,-2l-1,-2l1,-1l1,3l1,1ZM331,761h2v-1l1,1h1v1h-3v1h-6l-1,-1v-1l3,-1h3ZM387,778v1h-1v-1ZM387,779v1h-2l1,-1ZM394,635h-1v-1v1ZM393,634h-1v-1h1ZM412,662h1v1h1l-1,1l-2,-2l1,-1ZM407,652h-1v-1h1ZM402,651h-1v-1h1ZM433,693v3l-1,-1v-1ZM433,693h-1v-3h1l-1,2ZM333,555h-1v-1ZM333,550v1l-1,-1ZM332,550h-1v-1h1ZM370,618v1l1,1h-1l-1,-1v-1v1ZM288,562l1,-2v-1h1l-1,1ZM287,564l-2,1l2,-2h1ZM296,600h-1v-2l1,1ZM294,598v-1ZM292,598v1v-1h-1ZM316,610l-1,1v-1l1,-1ZM288,583h-1v-1h1ZM258,563l-1,-2v-1h1v1ZM209,594h-1v-1h1ZM206,601l-1,-1h1ZM160,650v1h-1v-2ZM389,796h3l1,1h1l2,1h4v-1h4l1,-1h2v-1h1l1,1l1,2v3l1,1v3h1v1l-1,-1v-1h-1h1h-1v3l-1,1l1,1v1l1,2h-2l-1,-1h1v-1h-2l1,1h-1v-1l-1,-1v4l-1,-1v3h-2l-1,-1h-2l-1,1v-2h1h-3l-1,-2h-1l-2,-3v-1l-1,-1h1l1,1v1v-1l-1,-1v-1h-1v1v-2l-2,-1l-1,-1l-1,-2l-1,-1v-1l-1,-1v-2h1ZM380,791v-1h-1v-2h1v-1l1,1v3ZM406,788l1,1h1v1l1,1h-1l-1,1v-1l-2,-2v-1ZM407,813v1h-1v-1ZM411,809h-1v-1h1ZM407,812h-1h1v-1ZM386,794v-1ZM409,792l1,1h-3v-1h1ZM408,793v1ZM483,883v-1h1ZM90,568v1ZM200,898h-1v-1ZM544,706v1ZM196,576h-1ZM589,992h-3l-1,1h-4l-1,1h-6l-1,1h-5l-1,1h-8l-1,1h-8l-1,1h-10l-1,1h-15l-1,1h-44l-1,-1h-16l-1,-1h-10l-1,-1h-8l-1,-1h-6l-1,-1h-7l-1,-1h-5l-1,-1h-5l-1,-1h-4l-1,-1h-5l-1,-1h-4l-1,-1h-3l-1,-1h-4l-1,-1h-3l-1,-1h-3l-1,-1h-3l-1,-1h-3l-1,-1h-3l-1,-1h-2l-1,-1h-3l-1,-1h-2l-1,-1h-3l-1,-1h-2l-1,-1h-2l-1,-1h-2l-1,-1h-2l-1,-1h-2l-1,-1h-2l-1,-1h-1l-1,-1h-3l-1,-1h-2l-1,-1h-1l-1,-1h-2l-1,-1h-2l-1,-1h-1l-1,-1h-2l-1,-1h-1l-1,-1h-1h1v-1h-1h1l1,1h1l1,1h2l1,1h2v1h2l1,1h2v1h2l1,1h1h-1h1l1,1h2l1,1v-1h-1h1l1,1h1l3,1h1l1,1h1l1,1h2l4,2h2l1,1l3,1h1l-1,-1h-3l-1,-1h-1v-1h-2l-1,-1h-2l-1,-1h-2l-1,-1h-1l-2,-1h-1l-1,-1h-2l-1,-1h-1l-1,-1h-2v-1h-1h1h-1l-1,-1h-1l-1,-1h-1v-1h-1l-1,-1h-1l-1,-1h-2l-1,-1h-1l-1,-1v-1l-3,-3h-1h1v-2h-1h1v-1h2l-1,-1l1,-1v1h1v-1h2v1v-1h3v-1h5v-1l-1,-2h1v-1h4l1,1h7l2,1h3l2,1h1v-2l-2,-2v-1h2l1,-1l1,1h3l4,2h2l2,1l1,1h-2v1l1,1l1,-1h1l1,-1h4v-1h1v1h2l1,-1h1l-1,1h3l1,-1h1l1,-1h1l1,-1h1l1,-1l1,1h1v-1l1,-1h2l1,1l2,1h2l1,1l1,-1l2,1h2v-1l-1,-1v-2h5l1,-1h6l1,1h2l1,-1h3l2,1v-1h2l1,1h7l1,1h9l1,1l1,-1h2l1,1h1v-1l1,1v3h1l2,-1h4l2,1h1v1l1,1h10l1,-1h2v2h8v-2h2l2,2h1l1,1h5l2,1v-1h2v1h5v1h1v1h1l1,1h1l1,2h1l1,1v-3h1l2,1h6l2,1v-1l2,1h3v1h1v1h2l2,1h1v-1h1v1l1,1h-2l-2,2h1h-3l2,1h-1v1h-7l-1,-1v1h2l1,1h-5v1h1h-2v-1h-2l1,1v1h-1h1v1h1h-6v1h-1v1h-2l-2,1h3v1h1v3h1v1h1v1l1,1h-1h1v1l1,-1h1v1h3l-1,1h-1v-1h-3l-1,1h-3l-1,-1v1h1h-2l-1,1h1l-1,1h-1h2v1h-3v1h2l1,1v1h3v1h-2v1h2l1,-1h1l1,1h2l-1,1h4v1h3l2,1h5l2,1h4l1,1h3l1,-1h-4v-1v1h1l1,-1h1h-2v-1h-1v-1h-1h4v1h6v1l2,-1h5l2,-1h3l1,-1h2v-1h-1h12v-1h1l1,-1h5v-1h-1v-1h1h-3v-2h4l-1,-1h-1v-1h2l1,-1h7v1h-1h2l1,1h-1h5v-1h3l-1,1h1l1,-1h3v-1h1l-1,-1h-1h1v-1h2v1h2l1,-1h11l2,-1h4v1l1,-1h7v1h6v1h7v1l1,-1h3l1,-1v1h-3l-1,1h-2l-2,1h-1h4v-1h2l-2,1h-2l-1,1h-2v1h-2h2v1h-3v1l1,-1h3v-1h3l1,-1h1l2,-1h2l1,-1h1l-1,1h1l1,-1h2v-1h1l2,-1h1h-1v1h-1l-1,1h-3v1h-2l-1,1h-3l-1,1h-3l-1,1h-2l-1,1h-3l-1,1h-3l-1,1h-3l-1,1h-3l-1,1h-4l-1,1h-3l-1,1h-5l-1,1h-4l-1,1h-1Z"/>
<path class="sp" d="M588,992h-2l-1,1h-4l-1,1h-6l-1,1h-5l-1,1h-8l-1,1h-8l-1,1h-10l-1,1h-15l-1,1h-44l-1,-1h-16l-1,-1h-10l-1,-1h-8l-1,-1h-6l-1,-1h-7l-1,-1h-5l-1,-1h-5l-1,-1h-4l-1,-1h-5l-1,-1h-4l-1,-1h-3l-1,-1h-4l-1,-1h-3l-1,-1h-3l-1,-1h-3l-1,-1h-3l-1,-1h-3l-1,-1h-2l-1,-1h-3l-1,-1h-2l-1,-1h-3l-1,-1h-2l-1,-1h-2l-1,-1h-2l-1,-1h-2l-1,-1h-2l-1,-1h-2l-1,-1h-1l-1,-1h-3l-1,-1h-2l-1,-1h-1l-1,-1h-2l-1,-1h-2l-1,-1h-1l-1,-1h-2l-1,-1h-1l-1,-1M639,980l-1,1h-3l-1,1h-3l-1,1h-2l-1,1h-3l-1,1h-3l-1,1h-3l-1,1h-3l-1,1h-4l-1,1h-3l-1,1h-5l-1,1h-4l-1,1h-2"/>
<path class="sl" d="M653,976h-2h1h-1v1h-1h1v-1h1l-1,1h-1h1h-2l-1,1h-1h1v-1h2l1,-1h2v-1h1l-1,1l1,-1v1ZM636,976h-1v1h-3v-1h2v-1h2ZM636,973v1h-1l-1,1h-1h1l-1,1h-2l-1,1v-1h1v-1h2v-1l-1,1v-1h3v-1ZM555,985h-2l-1,-1h-1v-1h2l1,-1h3v2h-1v1ZM509,977h3l1,1h1h-5l-1,1v-2ZM510,979l-1,1l-1,-1v1h-1v-1h2ZM320,946h-2l-1,-1h2ZM645,978h1ZM645,978h-1l1,-1h1ZM634,977h1l1,-1h1l-1,1h-1ZM625,977l1,-1h1h-1ZM535,991h-1v-1h2v1ZM544,988h-2v-1h1l1,1h1ZM504,970h1ZM502,972l-1,1v-1ZM519,967l-1,-1h1ZM509,945h-1v-1h1ZM504,942h-1v-1h1ZM502,940l-1,1l-1,-1h1h-1h1ZM315,948h1v1h1h-2ZM322,948h-1ZM322,949v1l-1,-1ZM322,944h-2l-1,-1h1l1,1ZM308,949h-1v-1h1ZM310,955h-1l-1,-1h1ZM309,954h-1ZM307,954h-1v-1ZM345,974l1,1ZM348,976v-1h-1h1ZM334,970h-1l-1,-1h-1h1v1h1ZM642,979h1ZM635,978h-1h1v-1h1ZM622,975l-1,1v-1ZM622,976v-1h1v1h1h-1ZM589,979v-1ZM598,977v-1h1ZM588,980h-1h1v-1h1v1ZM585,980v-1h-1h1ZM586,979h1ZM584,979h1ZM593,978h-1l1,-1ZM590,979h-1ZM581,980h-1ZM560,986l-1,-1h1h-1h1ZM584,980h-1l-1,-1h2ZM544,989h1ZM645,535v-1Z"/>
<path class="sh" d="M479,533h-2v-1h1v1ZM541,561h-1l-1,-1h1ZM534,553h-3l1,-1h2ZM486,562h-1v-1l-1,-1h-2l-1,-1h1l3,2h1ZM495,543v1l-1,-1v1l-1,-1h1v-1l-1,-1v-1v1ZM474,538h-1l1,-1v1h1ZM483,537h1v1l1,1h-1v-1h-2ZM462,531l1,1v2l-1,-1h-1l-1,-1v-1h-2v1l-1,-1l3,-3l1,1v2ZM466,536h-1l1,-1ZM465,535h-2v-1h1v-1h1v1ZM459,535h-1l-1,-1v-1l1,-1h1v2h-1ZM453,528h-1v-1l-1,-1l1,-1l1,1h1v1ZM452,530l-1,-1h1v-1ZM457,530h-1l-1,-1v-1h1v-1l1,1v1ZM445,521h-1v-1h2ZM461,535v1l-2,-1h1ZM479,540l2,1h3l2,1h1v1l1,1v1h-2l-2,-1h-5v-1l-1,-1v-2ZM480,533h-1l-1,-1l-2,-1l-1,-1h-2l-3,-3h-1v-1l-1,-1h2l2,2h1l1,1h1l1,1l4,2v1ZM460,523l-1,1l-1,-1h-2l-2,-1l-1,-3l-2,-1v-1h1l1,1l3,1v1l3,3ZM488,531l2,3v1l-1,1h1l2,2v2l1,2v1v-1l-1,-1l-2,-1l-1,-1l-2,-5v-1l-1,-1v-1l1,1v-1ZM496,549l1,1h3l1,2v1h1h-4l-1,-1l-2,-1v-1h-1v-1h-1l-1,-1h2Z"/>
<path class="sw" d="M276,75l-1,1h-1v1h-1l-1,1h-1v1h-1v1h-2v1h-1v1h-1l-1,1h-1v1h-1l1,-1h-1l-2,1v1h1v-1v1h-1v1h-1l-2,1h-1l-1,1h-1v1h-3l-2,2h-3v1h-1v1h-1l-1,1h-1l-1,1h-2l-1,1h-3v-1h3l1,-1h2v-1h2l2,-2h1l2,-1h1v-1h2v-1h1h-1h1v-1h2l1,-1h1v-1h1l1,-1l2,-1h1l1,-1h1l2,-2h1l1,-1h1v-1h2v-1h1l2,-2h1l1,-1h1ZM257,86h-1l-1,1h-1l-1,1l1,-1h2ZM740,61h-2v-1h-1h1h-1h1l1,1Z"/>
<path class="sr" d="M737,60h1l1,1h1"/>
<path class="sw" d="M703,43h-1h1h-1v-1h-1l1,1h2v1h2v1h1h-1v-1h-2l-1,-1h-1l-1,-1h1v1h1l1,1h1h-1l-1,-1h-1l-1,-1h-1l-1,-1h-2v-1h-3v-1v1h1h-1h1h-1l-1,-1h-1h1h-1h1h-1v-1h-1h1l1,1h1l1,1h2l1,1h1l1,1h1l1,1Z"/>
<path class="sr" d="M697,40l1,1h1l1,1h1l1,1h1"/>
<path class="sw" d="M876,171h1v1h1v1v-1h-1v-1h-1h1v1l-1,-1v-1h-1v-1h-1v-1h-1v-1h-1v-1l2,2v1h1h-1v-1v1v-1v1h1v1h1ZM877,172v-1l-1,-1v1h1ZM133,161v-1h1v-1h1h-1v1h-1v1h-1v1h-1v1v-1l1,-1Z"/>
<path class="sr" d="M131,162l1,-1"/>
<path class="sw" d="M674,55h-1h1v1h-4v-1h2l1,-1h1ZM677,62h1v1v-1h-3v-1h1ZM880,180l-1,-1v-1ZM173,124l-1,1h-1v1l1,-1v-1l1,-1h1v-1h1v-1h1l1,-1v-1h1l1,-1h1v-1h1v-1h1v-1h1v-1h1l-1,1h-1v1l-1,1h-1v1h-1v1h-1l-3,3h-1v1h-1ZM914,222l1,1l-2,-2v-1v1ZM722,52h1h-2v-1h-1h1v1ZM212,202l-2,2h-1l-1,1v-1h1h-1h1v-1h-2v1v-1h1l1,-1v1l1,1v-1h1l-1,-1l1,-1h1v-2h1v1l1,1h-1v1l-1,1ZM226,98l-2,2h-1l-2,2v1h-1v-1h1l3,-3h1v-1h1l1,-1ZM200,108l2,-2h1l1,-1l-4,4h-1v-1ZM327,122l-3,3h-2v-2h1v-2h4ZM88,371h-1v-1l-1,-1v-1h-1v-3h1l1,1v3h1v1h-1h1ZM148,186v1h-3v-1l3,-3v2ZM156,138h1v-1h1v-1h1v-1h1v-1v1h-1v1h-1l-1,1ZM266,107v-1h1v-1h1l2,-1l1,-1h1h-1v1h1h-2v1l-1,1h-2v1ZM216,216l-2,1l-1,1v-1h-1l1,-2v-1h1l1,-1v1h1l-1,1v1ZM676,62v1h1h-1l-1,-1ZM623,30h1h-2ZM91,236v-1l1,-1v-1h2l-2,2ZM495,19h-1ZM141,159h-1v1h-1h1v-1l1,-1ZM189,232h-1l-1,1v2h-1v-1l-1,-1v-2h1v-1l1,-1v-1h1v1h-1v1h-1v1h1h-1v1h2v-1h1ZM190,226h-1v-1h1ZM189,226v1h-2l1,-1ZM180,225h1v-1v1l-1,1ZM94,227v1h-1v1h-1l1,-1h-1l2,-2ZM188,119l-1,1h-1l-2,2v-1h1v-1h1l2,-2v1h-1h1l1,-1ZM594,781l-1,1h-2l1,-1v-1h1ZM617,20h-2ZM833,127h-1v-1l2,2ZM903,205v-1h-1v-1l-1,-1l1,1h-1v-1v1h1h-1v-1l-2,-2h1v1l1,1v1h1l-1,-1l2,2ZM378,16h1l1,-1h1h-1h2l1,-1h3v-1h1l-1,1h-1h3l1,-1h1h-1l-1,1h-4l-1,1h-1h1v-1v1h-3v1h-1ZM466,14h-1v-1h1ZM122,187h-1v-1h1ZM92,322h-1v-2h1v2h1ZM215,205h-1l-1,1v-2h1v-1h1v-1l-1,1h-1h1v-1h1v2ZM332,29h-1h3v-1h1h-1v1h-1ZM639,50h1v1h-1v-1h-1ZM882,177h-1v-1l-1,-1l1,1v1Z"/>
<path class="sr" d="M880,175l1,1v1"/>
<path class="sw" d="M686,36h-1h1v1h1h-1ZM740,62h-1v-1h-1l-1,-1l1,1h1v1ZM190,225v-1h1v1ZM264,112v-1h1v-1h1v1h-1ZM81,233l1,-1v1ZM86,233v1h-1v1l-1,1v-1l3,-3ZM202,99h-1v1h-1h1v-1h1v-1h1h-1ZM220,86h-1v1v-1ZM553,815v1l-1,1v-3h1ZM449,13h-1ZM86,247h-1v1l-1,1v-1h1v-1l1,-1h-1h1v-1v3ZM490,17v1h-1v-1ZM493,19h1h-1h1ZM207,215v-1h1v1ZM174,228v1h-1v-1ZM203,214h-2v1h-1v-1h2v-1v1ZM863,160l1,1h-1v-1l-1,-1v1ZM876,174h-1v-1l-1,-1l1,1v1ZM183,225h-1v-1h1ZM183,222v-1h1v1h-2ZM210,193h-1v1v-2ZM182,224h-1h1v-1h1v1ZM179,227h-1v1v-2h1ZM178,228h-1v-1h1ZM681,34h-1Z"/>
<path class="sr" d="M680,34h1"/>
<path class="sw" d="M683,35h-2v-1h-1h1v1h1ZM683,35h1v1h1h-1v-1ZM708,45h-2v-1h-1h1v1h2l1,1h1h-1ZM116,199h-1ZM857,153h1h-1v-1h-1h1v1h1ZM613,33h-1ZM635,47h-1h2ZM641,49h-1v-1ZM661,56l-1,-1h1ZM660,53h-2v-1l1,1ZM655,52v-1h1v1h1h-1ZM660,54v1h1h-1v-1h-1ZM196,113l-1,1h-1h1h-1l1,-1ZM83,236v1h-1h1v-1h-1l1,-1h1h-1ZM770,81h-1h1v1h2v1h1l1,1h1v1l-3,-3h-2v-1h-1l-1,-1h-1h1h-1v-1h-2l-3,-2h1l1,1h1v1h2v1h2v1v-1h1v1h1ZM731,62h-1v-1h-1l-1,-1h-1l-1,-1h-1l-2,-1l1,1h2l1,1h1l1,1h1ZM821,117h-1l-1,-1l1,1ZM830,125h1v1l-1,-1v-1h-1ZM828,125l-2,-2h-1v-1h-1h1l2,2ZM681,47h1h-1l-1,-1h1ZM237,605v3h-1v2h-1v-1h-1l1,-1v-3h1v1v-1ZM130,201h-1l1,-1v-1h1v1h-1ZM130,200h-1v1h-1v-1h1ZM75,240v1v-1l1,-1v1ZM76,240l-1,1v-1l1,-1ZM157,136h1v-1v1v-1h1v-1h1v-1v1v-1v1h-1v1h-1v1h-1v1v-1v1v-1h1Z"/>
<path class="sr" d="M157,136h1"/>
<path class="sw" d="M173,124l-1,1h-1v1l1,-1v-1l1,-1h1v-1h1v-1h1l1,-1v-1h1l1,-1h1v-1h1v-1h1v-1h1v-1h1l-1,1h-1v1l-1,1h-1v1h-1v1h-1l-3,3h-1v1h-1ZM903,205v-1h-1v-1l-1,-1l1,1h-1v-1v1h1h-1v-1l-2,-2h1v1l1,1v1h1l-1,-1l2,2ZM899,199v-1h-1h1Z"/>
<path class="sr" d="M898,198h1"/>
<path class="sw" d="M55,460v1h-1l-1,-1v-1v1h1v-2h-1v1v-2h1v3ZM550,818v-3h1h-1v2ZM549,819h-1v-2h1h-1v2ZM731,62h-1v-1h-1l-1,-1h-1l-1,-1h-1l-2,-1l1,1h2l1,1h1l1,1h1ZM821,117h-1l-1,-1l1,1ZM247,86v1h-1h1v-1h-1v1l-2,1l-1,1l3,-3v-1l1,1v-1h1v-1h1v-1l1,-1h1l2,-2l2,-1l2,-2h1v-1h1l1,-1h-2l-1,1h-1v1h-1h1l-1,1h-1v1h-1l-1,1v-1h2v-1h1v-1v1h-1l1,-1h1v-1h-1h2v-1h1v-1h1l-1,1h1l1,-1h1l-2,2v1h-1l-2,2h-1v1h-2v1l-1,1h-1v1h-1v1v-1h-1v1h-1v1h-1ZM327,31h1h-1v1h-3l-1,1h1v-1h3ZM329,31h-1h1v-1h1ZM332,29h-1v1v-1h3v-1v1l1,-1l-1,1h-1ZM801,102h1l-1,-1h-1v-1h-2l-1,-1h1l2,1v1ZM910,214h-1h1v1h1v1l-1,-1ZM866,166l1,1h-1v-1v1ZM857,155l1,1v1h1v1v-1h-1v-1h-1ZM857,153v-1v1h1ZM321,46l1,-1h1h-1v-1h1h-1h1v-1h1h-1h1l1,-1v1h-1h1h-1l-1,1h1h-1h1l1,-1h1h-1v1h1v-1h1l-1,1h-1h2v-1h1l1,-1v1h-1l-1,1h-1v1h-2v-1h2v-1v1h-3v1h-1v1h-1v1v-1l-1,1h-1v1h-5l-1,1h-1h1v-1h2l1,-1h1v1h1h-1h1v-1h2v-1ZM387,77l-1,1v-1ZM546,33v-1h1v1h-2v-1v1ZM321,181h1v1h-1l-2,1v1v-1h1v-1ZM708,52v1h2v1v-1h-2l-1,-1h-1h1ZM675,59h1h-3v-1h-1h1h-1h2ZM639,48l-1,-1ZM670,53l1,-1h1h-1v1ZM681,53h-1h1l1,1h1h-2ZM647,47h-1ZM641,48h1v1h-1ZM634,46h-1l-1,-1h1ZM630,42h-1ZM197,109h-1ZM104,214v1h-1v1v-1l1,-1v-1h1ZM102,215h1v-1v1h-1v1ZM77,234v-1h1v-1l-1,1ZM100,225v-1ZM90,228l1,-1ZM88,218l-1,1v1v-1ZM210,671h-1l-1,-1v-2l1,-1v1l1,1v1ZM245,660h-2v-2l1,-1h1l1,-1v-1h2l-1,1v1h1l1,1h-1v1l-1,1h-1ZM313,735v-4h-1l-1,-1h-1l-1,-1v-1h-1v-1l-1,-1h1l1,1h3v1h1v1h1l1,2v4l-1,-1ZM325,730v1h-2l1,-1l-1,-3v-1h-1v-3l-1,-1h-1v-1l-2,-2v-1v1h1l1,1h1l1,1h1l1,1v1l1,1v1l1,1v1ZM207,719v1l-1,-1v-1h-1v-1v2l-1,-2h-1v1l-1,-1v-1l1,-1l1,1l1,-1v-1h1v1l-1,1l1,1v1h1ZM338,724v1h-1l-2,-2v-1l1,-1l1,-2h1v4ZM319,712h-2l-1,1l-1,-1l1,-1h1l1,-1h1ZM321,710l-2,-1h-3l-1,-1v1h-1l-1,-1v-1l-1,-2v-1h1l-1,-1v-1l-1,-1v-1h1l3,1l1,1h2v4l1,2l1,1h1Z"/>
<path class="sb" d="M927,239h-1v-1l-1,-2l-1,-1l-1,-2l-2,-2l-1,-2l-1,-1h-1v-1h-1v-1h-1M827,121h-1l-1,-1h-1l-1,-1h-1l-1,-1h-2l-1,-1h-1M646,25l4,2h2l2,1l1,1l6,3h2l26,13l1,1l10,5l2,2l4,2l1,1h3l1,1h-1v-1h2v1h1l1,1h1l1,1h1l1,1h2l1,1h1l1,1h1v1h1l-1,-1h1h-1l-2,-2h2l1,1h1l1,1h1l1,1h1l1,1h1l1,1h1l1,1h1l1,1h1l1,1h1l1,1h1l1,1h1l2,2h1l1,1h1v1h2l1,1h1l1,1h1l1,1h1l1,1h1l1,1M106,350v-2l1,-1v-3l-1,-1v-2l1,-1v-1l-1,-1v-2h-1v-6l-1,-1v-1l-1,-1v-4h-1v-3h1v-1h-1l-3,-3v-2l1,-1v-1h2l2,-2v-1l1,-1v-1h-1v-1h1h-1v-1l1,-1v-1l-1,-1h-1l-2,2v-1h-2v-3l1,-1v-1l1,-1v-2l-1,1v1v-4l-1,-1v-1M94,355v2l1,-1l1,1v1h1l1,-1v-1l-1,-1l1,-1h1v-1h1v-1h1v2h1v-1h1l1,-1h1v-1l1,-1v1l-1,1v1h-1v8l-1,2l-1,1v6l-1,1h-1l-2,2h-1v1h-1l-1,2h-2v1h-1v3l1,2v2h-1v-1v1h-1v-1h-2v1h-1l-1,1h1l-1,1v1h-2v1h-1M93,298v1l-1,1h-1v1l-1,1v1h-1v2h-2v2l-1,1v1M60,394v-2l1,-1v-2l1,-2l1,-1l1,-3l1,-1v-1l1,-1v-12l1,-2v-5l-1,-1v-8h1v-1l2,-2v-3l1,-1l1,-2v-10l-1,-1v-1h1v-6h1v-1h1v-3l1,-1v-1l1,-2l1,-1v-1h2l1,-1h1v-1l1,-1v-1h2v-2h2v-1h1v1l1,-1v2l-1,1v1l-1,1v2h1l1,-1h1v1l-1,1v3l-1,2v1l-1,1v2l-1,1v1l-2,4h1l1,-1v-1l1,-1h1v-1l2,-2h1v1h1v1h1v-1h1v-1l2,-2v-1h1l1,1h1v5l1,1v2l-1,1v2l-1,2v1l1,1v2l1,1v5h-1v4h-1v3l-2,2h-1v1v-2h-1l-1,1h-4l-1,1h-1l-2,2v1l-1,1l-1,2v1h-1l-1,2v6l1,1v1l-1,1v4M123,295l-1,-1h-2l-1,-1v-1h-1v-1l1,-1v-1h-1l1,-1v-1h1v-1h1l-1,-1h-2v-1l-1,1l-1,-1v-2h-1l-3,3v1h-1v1h-3v2h-1v-2l-1,1v1v-1h-1v1h-1v1h-1v-1l-1,-1v1h-1v1l-1,1h-2l-1,1v1l-1,1v4l-1,1v2h-2v-3l1,-1h-1l-2,2v1l-1,-1l-1,1v-3l1,-1v-1h-3l1,-1v-1l1,-1v-1l1,-1v-1l1,-1v-1h-2l1,-1v-2l1,-1v-2l1,-1v-1v1h-3l-1,1v1h-1v-1l2,-2v-3l1,-1h1v-2l1,-1v-1h1l2,-2v-1v1v-1h1v-1l2,-2v-1h1v-2l1,-1v-1l1,-1v-1l1,-1v-1l1,-2v-1h-1v1v-1l1,-3l1,-1v-1h-1v-1h-1v1l-1,1M265,155l1,-1l2,-1l1,-1h1v-1h2v-1h2l1,-1h2l1,-1v-1h2l1,-1v-1h1v-1h1l1,-1h1v1h1l1,1h4v-1h1v-1h-1v-1l1,-1h5l3,-3h2l1,-1v-1l1,-1h2v2h1M270,168h1v-1h1l2,-2h3v-1h4l1,-1v-1h1M95,207v1v-1M270,101h-1l-2,2l-2,1l-2,2h-1v1l-1,1h-1l-2,2h-1v2h1l1,-1h3v1h1l1,-1h1l1,-1h3v1h1v5h-1v1h-4v-1v1h-4l-1,1h-2l-1,1h-3v1h-1l-1,1h-1l-1,1v1h-2v1h-2v1h-3v1h-3l-1,1h-1l-2,2h-1l-1,1h-2l-1,-1h-1h1h-4v1h-1l-1,1v1h-1l-1,1v3h-1v1h-1l-1,1h-1l-1,1h-1l-1,1h-1v1h-1l-1,1h-1v1h-1l-1,1h-1l-1,1h-3l-1,1h-4l-2,1h-2l-1,1h-1l-1,1l-4,2h-1l-1,1h-1v1v-1h-2l1,-1l-2,1h-1l-1,-1h-1l-1,-1v-2h-5l-1,1h-7l-1,1v-1h1v-2l1,-1l1,-2l2,-2h-1h1v-1h1h-1v-4h-1l-1,1v-1h-1v1v-1h-1h1v-1h1v-1l2,-2h1v-1h1v-1h1v-1h1v-1h1v-1h1v-1h1v-1l3,-3v-1h1h-1l1,-1h-1v1v-1l2,-2v-1h1v-1h1v-1h1"/>
<path class="sb" d="M307,139v-3h1l1,-1h2v-1h1l1,-1v-1h1l-1,-1h1v-1l2,-4v-2l1,-1h3v-1h1v-1h4l1,1h2l1,-1v-1l1,-1h2v-1h1v-1h1v-1h1v-1h1v-1h1l1,-1v-1h1v-1l1,-1h1v-1h1v-1h2l1,-1v-2h1v-1l-1,-1h-1l-2,1h-1l-1,1h-3l-1,1h-1l-1,1h-2l-2,1h-1l-1,-1v1h-2v-2l1,-1v-2l1,-1h-2l-1,-1v-1h-1v-1h-2v-1h-2l-1,1h-1l-1,-1v-1l1,-1v-2h1v-4h1v-3l1,-1v-3h1h-1v-1h-1v-1h-1l-1,1v-1h-2l-1,-1h-3l-1,1h-4l-2,1h-2l-1,1l-2,1h-2l-1,1v1l1,-1l1,1h-1l-1,1v1h-1l-1,1l-2,1l-1,1h-1l-2,1v1h-1l-1,1h-1v1h-1l-1,1h-1v1l-2,2h-2l-6,3h-2v-1h-1v-1h-2l-1,1h-2v-2h-2l-1,1h-2l-1,1h-1l-1,1h-1v1h-2v1h-4v1h-3l-2,1h-7v-1h-1h1h-1l2,-2h-2v-1h-2v-1h-2v1h-2l-1,1h-2v1v-1h-1v1h-1v-1h-1v-1h1h-1h1v-1h1v-1h1v-1h1v-1h-1v-1h-2v-2l-1,1h-1l-2,2h-1l-1,1h-1v1h-1v1h-1l-2,2v1h-1l-2,2h-1v1h-2v1h-1l-1,1v-1h1h-4v-1l2,-2h-2v1v-1h-1h1h-2v1h-2v1h-2v1h-1v1h-2v1h-1l-1,1h-1v1h-1v1h-2v1h-1h1h-2v1h-1v1h-2M199,101h-1l-1,2l-2,1l-1,1l-3,2l-2,1l-1,2h-1h1v-1h1l1,-1l-2,2h1v-1h1v-1h1l-1,1v1h-1l-1,1h-1v1l-2,2h-1h1v1v-1h1l1,-1v1h-1l-1,1v1h-2v1h-1v1l-1,1h-1l-1,1h-1v1h-1l-5,5h-1v1l-1,1h-1v1h-1l-1,1h-1h1h-1v-1l-1,1l-2,3l-4,2l-1,1l-1,2h-1v1h-1v1l-1,1h-1v1v-1v1v-1l-1,1h-1v1h-1v1h-1v1h-1v1h-1v1l-1,1h-1v1h-1v1h-1l-1,1v1l-1,1h-1v1l-6,6v1h-1M73,244v1h-1h1l1,-2l1,-1v1h-1v2l-1,1v2l-1,1v1l1,-1v1l-1,1v2l-1,1h1v-1v1l-1,1v1l1,-1v1l-1,1v1v-1h1v-1v1l1,-1v2h1l1,-1M75,261v-1l2,-2v-1l2,-2v-1h1v-1h1v1h1v1v-1h2l-1,1v1M92,211l2,-2v-1h1v-1v1v-1v1l-3,3v1l-1,1v1h-1v2h-1v1h-1v1l-1,1v1l-2,2v1l-1,1v1h-1v1l-1,1v1h-1v1v-1v1h-1v2l-2,2v1h-1v1l-1,1v1v-1v1l-1,1v2l-1,1v1l-1,1v1l-1,1v1h-1l-1,2v1l-2,2v1h-1v2h-1v3h-1v3h-1v1h1l-1,1h1h-1v2h1v-1h1v-1v2l-1,1v2h1v1h1v1l1,-1l-1,1h1l1,-1v1v-1l2,-2v-2l1,-1l2,-4l1,-1v-2h1l1,-1v2h-1l-1,2v2h-1v2h-1v1h1v1h1v-1h1v-1v1h1l1,-1h2v-1h1v-2h1v-1l1,-1h-1v-2h2v-1h1l1,-1v-1h1v-1l1,-1h1v-1l2,-2h1v-1h1v-1h1v-1l3,-3v1h1v1l3,-3h1v1l-1,1h1l-1,1v1l-1,2h-1v1h2v2l-2,2v1h-1v1h-1v3h-1v1v-2l-2,1h-1v1l-1,1h-1l-1,2l-2,2v1l-1,1v1h-1v2l-1,1v1h-1l-1,1v1l-1,1v2l-2,2v1l-1,1l-1,2l-2,2v1h-1v-1v1h-1v-1v1l-1,1v2l-2,4v1v-1h-1v2l-1,1v1l-1,2v1h-1v2h-1v-1v1h-1M100,200l-1,1v1h-1l-1,2v1h-1v1v-1v1h-1v1l-1,1v1l-2,2v1h-1v1h-1v1l-1,1v1"/>
<path class="sb" d="M78,231v1l-1,1M57,302v-2l1,-2v-1l1,-1v-2l1,-1v-3h1v-2l1,-1v-1l1,-1v-4l2,-2l1,-2h1v-5h1v-1l1,-1v-1h1v-2h1v1h-1v1h1v-1v2l1,-1v2l-1,1l-1,2l-1,1v1h5v-1l1,1v1l-1,1v-1v1l-1,1l-1,2v1h-1v1h-1v1h-1v1l-2,2v1l-1,2v3l1,-1v-2h1v-1l1,-1v-1h1l-1,1v2l-1,2v2h-1v3l-1,3h-1l-1,3v3h-1v-1l-1,1v2l-1,1v1M135,158h1l-4,4v1h-1l-1,1v1l-2,1v1h-1v1h-1l-1,1v1h-1v1l-1,1h-1v1h-1v1l-1,1"/>
<circle class="w3" cx="500" cy="541" r="71"/>
<circle class="w3" cx="500" cy="541" r="69"/>
<circle class="c3" cx="500" cy="541" r="70"/>
<path class="sg" d="M 252.3200 933.5533 A 249.7500 20.5624, 0, 1 1, 746.6800 933.5533"/>
<path class="sg" d="M 67.4127 750.1008 A 432.5797 35.6152, 0, 1 1, 931.5873 750.1008"/>
<path class="sg" d="M 0.0000 499.5000 A 499.5000 41.1248, 0, 1 1, 999.0000 499.5000"/>
<path class="sg" d="M 67.4127 248.8992 A 432.5797 35.6152, 0, 0 1, 931.5873 248.8992"/>
<path class="sg" d="M 252.3200 65.4467 A 249.7500 20.5624, 0, 0 1, 746.6800 65.4467"/>
<path class="sg" d="M 512.7253 0.1751 A 152.4500 499.5000, -178.48279830, 0 1, 486.2747 998.8249"/>
<path class="sg" d="M 544.7206 2.0512 A 368.9686 499.5000, -174.80580021, 0 1, 454.2794 996.9488"/>
<path class="sg" d="M 677.6927 32.8656 A 486.6224 499.5000, -159.09974963, 0 1, 321.3073 966.1344"/>
<path class="sg" d="M 375.6563 15.5961 A 473.8861 499.5000, -194.35536848, 0 0, 623.3437 983.4039"/>
<path class="sg" d="M 462.3566 1.3829 A 334.1724 499.5000, -184.26451767, 0 0, 536.6434 997.6171"/>
<path class="sg" d="M 490.6347 0.0787 A 104.9174 499.5000, -181.01695498, 0 0, 508.3653 998.9213"/>
<text x="0" y="0" class="fs" transform="translate(857,344) rotate(80)">150W</text>
<text x="0" y="0" class="ft" transform="translate(857,344) rotate(80)">150W</text>
<text x="0" y="0" class="fs" transform="translate(40,358) rotate(101)">90E</text>
<text x="0" y="0" class="ft" transform="translate(40,358) rotate(101)">90E</text>
<text x="0" y="0" class="fs" transform="translate(176,341) rotate(99)">120E</text>
<text x="0" y="0" class="ft" transform="translate(176,341) rotate(99)">120E</text>
<text x="0" y="0" class="fs" transform="translate(398,332) rotate(92)">150E</text>
<text x="0" y="0" class="ft" transform="translate(398,332) rotate(92)">150E</text>
<text x="0" y="0" class="fs" transform="translate(647,333) rotate(85)">180E</text>
<text x="0" y="0" class="ft" transform="translate(647,333) rotate(85)">180E</text>
<text x="0" y="0" class="fs" transform="translate(577,909) rotate(0)">60S</text>
<text x="0" y="0" class="ft" transform="translate(577,909) rotate(0)">60S</text>
<text x="0" y="0" class="fs" transform="translate(633,711) rotate(1)">30S</text>
<text x="0" y="0" class="ft" transform="translate(633,711) rotate(1)">30S</text>
<text x="0" y="0" class="fs" transform="translate(652,456) rotate(1)">0N</text>
<text x="0" y="0" class="ft" transform="translate(652,456) rotate(1)">0N</text>
<text x="0" y="0" class="fs" transform="translate(631,213) rotate(1)">30N</text>
<text x="0" y="0" class="ft" transform="translate(631,213) rotate(1)">30N</text>
<text x="0" y="0" class="fs" transform="translate(575,47) rotate(2)">60N</text>
<text x="0" y="0" class="ft" transform="translate(575,47) rotate(2)">60N</text>
<path class="tb" d="M127,998h-2l-1,-1h-2l-1,-1h-2l-1,-1h-2v-1h-3v-1h-2l-1,-1h-2v-1h-2l-1,-1h-2v-1h-2v-1h-2l-1,-1h-2v-1h-2v-1h-2v-1h-2v-1h-2v-1h-2v-1h-2v-1h-2v-1h-2v-1h-1l-1,-1h-1v-1h-2v-1h-2v-1h-1v-1h-2v-1h-1l-1,-1h-1v-1h-2v-1h-1v-1h-2v-1h-1v-1h-1l-1,-1h-1v-1h-1v-1h-1l-1,-1h-1v-1h-1v-1h-1v-1h-2v-1h-1v-1h-1v-1h-1v-1h-1l-2,-2h-1v-1h-1v-1h-1v-1h-1v-1h-1v-1h-1v-1h-1v-1h-1v-1h-1v-1h-1v-1h-1v-1h-1v-1h-1v-2h-1v-1h-1v-1h-1v-1h-1v-1l-1,-1v-1h-1v-1h-1v-1l-1,-1v-1h-1v-1l-1,-1v-1h-1v-1l-1,-1v-1h-1v-2h-1v-2h-1v-1l-1,-1v-1l-1,-1v-1l-1,-1v-2h-1v-2h-1v-3h-1v-2h-1v-4h-1v-3h-1v-5h-1v-6l-1,-1v-17h1v-7h1v-4l1,-1v-3h1v-3h1v-3h1v-2l1,-1v-2h1v-2h1v-2h1v-2h1v-2h1v-2h1v-2h1v-1h1v-2h1v-1h1v-2h1v-1h1v-1l1,-1v-1h1v-1h1v-1l1,-1v-1h1v-1h1v-1h1v-1h1v-1h1v-1h1v-2h1v-1h1v-1h1v-1h1v-1h1l3,-3h1v-1h1v-1h1v-1h1v-1h1v-1h1v-1h1l1,-1h1v-1h1v-1h1v-1h1l1,-1h1v-1h1v-1h2v-1h1v-1h1v-1h2v-1h1v-1h2v-1h1v-1h2v-1h1l1,-1h1v-1h2v-1h1l1,-1h1v-1h2v-1h2v-1h2v-1h1l1,-1h1l1,-1h1l1,-1h1l1,-1h1l1,-1h2v-1h2v-1h2v-1h2l1,-1h2v-1h2v-1h2l1,-1h2v-1h3v-1h2l1,-1h2v-1h3v-1h3v-1h159v1h3v1h3v1h2l1,1h2v1h3v1h2l1,1h2v1h2v1h2l1,1h2v1h2v1h2v1h2l1,1h1l1,1h1l1,1h1l1,1h1l1,1h1v1h2v1h2v1h2v1h1l1,1h1v1h2v1h1l1,1h1v1h2v1h1v1h2v1h1v1h2v1h1v1h1v1h2v1h1v1h1l1,1h1v1h1v1h1v1h1l1,1h1v1h1v1h1v1h1v1h1v1h1v1h1l3,3h1v1h1v1h1v1h1v1h1v2h1v1h1v1h1v1h1v1h1v1h1v1l1,1v1h1v1h1v1l1,1v1h1v1h1v2h1v1h1v2h1v1h1v2h1v2h1v2h1v2h1v2h1v2h1v2l1,1v2h1v3h1v3h1v3l1,1v4h1v7h1v17l-1,1v6h-1v5h-1v3h-1v4h-1v2h-1v3h-1v2h-1v2l-1,1v1l-1,1v1l-1,1v1h-1v2h-1v2h-1v1l-1,1v1h-1v1l-1,1v1h-1v1l-1,1v1h-1v1h-1v1l-1,1v1h-1v1h-1v1h-1v1h-1v2h-1v1h-1v1h-1v1h-1v1h-1v1h-1v1h-1v1h-1v1h-1v1h-1v1h-1v1h-1v1h-1l-2,2h-1v1h-1v1h-1v1h-1v1h-2v1h-1v1h-1v1h-1l-1,1h-1v1h-1v1h-1l-1,1h-1v1h-1v1h-2v1h-1v1h-2v1h-1l-1,1h-1v1h-2v1h-1v1h-2v1h-2v1h-1l-1,1h-1v1h-2v1h-2v1h-2v1h-2v1h-2v1h-2v1h-2v1h-2v1h-2l-1,1h-2v1h-2v1h-2l-1,1h-2v1h-2l-1,1h-2v1h-3v1h-2l-1,1h-2l-1,1h-2l-1,1h-2Z"/>
<path class="tl" d="M169,986h1v1h-3l-1,-1h2v-1ZM114,989h-3l-1,-1h2l1,1ZM176,983h1l1,1v1h1l-1,1h-2l-1,1h-1l-1,-1l1,-1v-2h1v-1ZM124,980h2v1h-1ZM122,980l1,1h-1l-1,-1ZM136,977h1h-2ZM156,974v1l1,1h-5v-1l1,-1v-1l-1,-1l1,-1v1h1l1,1ZM158,964v1h-2v2h1l-2,2v1h1l1,1h1l4,4v1l1,1v1h-1v2h-1l-1,1h-1v1h-2l1,1h1v1h-2l1,1h1v1h3l1,1h3l1,1h3l1,1h1l1,1v-1h1v-1h2l2,-1l1,1h1v-1h4v-1h3l1,-1h-1v-1h-4l-1,-1l1,-1h1l2,-2h4l1,-1h1l2,-2h-1v-1h1v-1h2v-1l1,-1h1v1h1v-1h8v-1h3v-1h1l1,1h2v-1h1v1l1,-1h4v1h6v-1h3v-1h2v1h3l1,-1h3v-1h2l1,-1h2l1,-1h4v1h1v1h1l1,1h1l1,-1l1,1h2v1l-2,2h-1v1h1h-1v1h-1v1h2l2,-2h1v-1h3l1,-1h1v-1h2l1,-1h5v-1h1v1h5v1h1l1,-1l1,1l1,-1h1l2,-1v1l1,1h3l1,-1h2v1h1v1h4l1,-1v1h9l1,-1l-1,1v1h-1h3l1,1h2l-1,1v1h1v1h2v1h1v2h2l1,1v1h-1l-1,1h-2l-1,1h-3l-1,1h-2l-1,1h-2l-2,2v1h-5l-1,1h-2v1h-1v3h2l-11,4h-155l-11,-4h-1h2l1,-1l1,1h14l-1,-1h-7v-1h-2v-1h-3l-1,-1h4v-1h-2l-1,-1h-7l-1,-1l-2,-1l1,1l1,-1l2,1v-1h1v-1l-1,-1h-1h2v-1h2v-1h4l1,-1h5l1,-1l1,1v-1h1l1,1h1v-1l1,1h6v-1h-2l-1,-1h-1l-1,-1h4l1,1h1l1,-1h3l-1,-1h1l1,1l1,-1l1,1h3v-1l1,1h4v-1h2l1,-1v-1h-1v-1h-1v-1h-1v-1h-1v-2l-1,-1v-1h1v-2h1v-1h1v-1h1l1,-1l1,1ZM144,951l2,1h1v1h-1v-1v1h-4l-2,-2l-2,-1l2,1h2v-2h1v1ZM151,947h1v1h-2v1l-1,-1l1,-1ZM269,946h-1v-2h1l1,1ZM345,939v1h1l1,-1v1l-3,3v-1l-1,1h-1l1,-1v-1l1,-1v-1ZM368,943v1l1,-1v1h-1l-3,3h-1l-1,1h-1l-2,2h-2v1h-1v-1h-1v-1l4,-2h1l1,-1h2l2,-2h1l2,-2ZM376,936l-1,2l1,-1l-1,1l1,1h1l-2,2h-1l-2,2l-2,1h-1l2,-1v-2l1,-1l2,-1v-1l1,-1v-3l1,-1v1l1,1ZM382,913l-1,1v-2l-1,-1v-1h1v1l1,1ZM397,906v1l-1,1h-1v-1l1,-1v1ZM398,906h-1v-1h1l1,-1v1ZM10,905v-1ZM386,904v-1ZM386,901v2h-1v-1ZM259,895v2l1,1h-1v1v-1v2h-1v3l-3,6v2h-1l-1,1l-1,-1h-1v-5h1v-2l1,-1h-1v-3h1v-1h1l2,-2h1v-1l1,-1v-1l1,-1v1ZM361,898v1h1v1h1l-1,1v2h1l-1,2v1l2,2v4h1l-1,2l1,1v3l-1,1v2l-3,3v1l-1,1l-1,2h-1l-1,2h-1l-4,4v1h-2l-1,1h-1l-1,1v-1h-1l1,-1h-1l-1,1h-1v-1h-1v-3h1l-1,-1v-1l1,-1l-1,1h-1l3,-3l-2,1h-1l-1,2v-4l-2,-2h-2l-1,1h-4l-2,2h-4l-1,1v-1l-1,1h-2v-1h-1l1,-1v-1h1v-3l1,-1v-7l1,1v-3l1,-1v-1l1,-1l-1,1l2,-2h1l1,-1h2l1,-1h2v-1h1l1,-1v-2l1,-1v2l1,-1v-1h1v-1l2,-2h2v1h2v-2h1l1,-1v-1h2v-1h-1h1l1,1h3l1,1h-1v1h-1v1l-1,1v1l2,2v1h1l1,1h1v-1l1,-1v-1l1,-1v-3l1,-1v-2h1v-1v3l1,1Z"/>
<path class="tl" d="M383,894h-1v-1v1ZM337,892l-2,-1h2ZM381,893h-1v-1h1ZM382,892v-1l-1,-1h1ZM341,892h-1l3,-3h2l-1,1h-1l-1,1ZM335,889h1v1h-3l1,-1ZM340,889v1h-3v-1h2ZM381,890v1l-2,-2h1v1ZM378,889v-1h-1v-1l1,1ZM325,887h2v-1l2,1v1h2l1,1l-1,1l-1,-1h-4l-1,-1h-1l-2,-1h-1l1,-2h1l1,1ZM353,886v1v-2ZM377,888h-1v-2l-1,-1h1v2h1ZM373,885l-1,1h-1l-1,1l-1,-1h-1l1,-1l1,1v-1h2v-2h1v1ZM345,882h-1v-1h1ZM349,881v2l-1,-1h-2v-1h2ZM374,884l-1,-1v-1l-1,-1h-1h2v2h1ZM353,878v3l2,1v-2l2,-1h1l1,1h1l1,1l4,2v1h1v1l2,1v1h-1v1l1,1v2h1v1h1h-1l1,1l-1,1v-1h-2l-1,-1v-3h-3l-1,1v1h-2l-2,-2v1h-2l1,-2h1l-1,-2v-1l-2,-1h-1l-1,-2l-1,1l-1,-1h1l-1,-1l1,-1h-1v-1h-1l-1,-1h2v-1ZM343,875l-1,1h-4v1l1,2v-1h2l-1,1h-1l1,2v1l1,2v1h-1v-2l-1,1v-1l-1,-1l1,-1h-1v4h-1v-3h-1v-1l1,-1v-4h1v-1h4l1,-1ZM347,875v1h-1v1l1,1h-1v-4h1ZM321,885h-1l-2,-2v-1l-2,-2l-1,-2v-2l-1,-1v-1l-4,-4v-1h2l3,3l1,2h1l2,2h1l-1,2h1v1l1,1h1v3ZM335,874l1,1h-1v3l-1,1v1l-1,3v-1l-1,1l-1,-1h-1v-1l-1,1l-1,-1h-1l-2,-4v-2l1,-1h2v-2h2v-1l1,-1v-1h1l1,-1v-2h1v1l2,2v1h-1l-1,2l1,1ZM344,864v3l-1,-1v2l-2,-2h1l-1,-1v1l-1,-1l-1,1v-1l1,-1h2v-1h1v-1l1,1ZM294,868h-1v-1l-1,-2l1,-2l1,1v1l1,1v1ZM137,863h-1l1,-1h1ZM341,861v1l-1,1l-1,-1l1,-1v-1v1l1,-1ZM335,863l-1,1v-1l1,-1v-1l1,-1v1l-1,1ZM338,859h2v1l-1,1v-1h-1ZM342,858l1,2h-1v1v-1h-1v-1h1h-1v-1ZM338,857l-1,1l-1,-1h1ZM336,849h1v6h1l2,1v2l-1,-1v-1v1l-1,-1h-2v-1h1h-1l-1,-1v-5ZM133,851v1h-1v-1ZM121,852h-1v-1h2v1ZM126,849h3v1h1v1h-2l-1,1v-1h-1v-2h-1ZM324,849l-1,1h-1v-2l1,-1h1v1ZM37,846v-2h1v2ZM38,844h-1v-1h1ZM119,845h2l1,1v1h1v1h2l-1,1h-3v-1h-1v-2h-2l-1,-1h-1h1h-2l-1,1h-1l2,-2h3ZM122,843h-1v-1l1,-1v1ZM334,843v1l-2,-2v-2l1,-1l1,1ZM122,839l-1,1v-1ZM123,839v1v-1h-1ZM340,825h1v1h-1v1h-1v-2ZM240,828l-2,2v-1h-1h2ZM229,828v1h-1ZM220,825v2h-1l-1,-1h-1v-1h2ZM214,821v3h-1v-3ZM344,820v1l1,1v1l-1,1h-1l-1,2l-1,-1v-1l-2,1l-1,1h-1l2,1v3l-1,-1v-1h-1l-1,-1l1,-1v-3h3v-3l1,1v-2h1l-2,-4v-1l3,3v1ZM214,820v1l-1,-1v-1l1,-1ZM340,810l1,-1l1,2h-1v2l-2,-1l1,2h-1l-1,-2l-1,-1h1l-1,-2l-1,-1l3,1ZM144,812l1,1h1h-2ZM147,809h-1l-1,-1h1ZM92,806h-1l-1,-1v-2h-1v-1h1l1,1v1l1,1ZM153,807l-1,1h1v1h2l-1,1h1v1l-1,2l-1,-1l1,-1l-2,1v-1h-3l1,-1h-1l4,-4h1Z"/>
<path class="tl" d="M90,797h1l-2,2v1v-3ZM332,800l3,3l-2,-1l1,2l2,2v1l-2,-2l-1,-2l-6,-6v-1h-1h1l3,3ZM198,806l-1,1h-2l1,-2v-1l2,-2h1v3ZM216,801l-1,2l-1,-1v-1h1ZM79,791h-1v-1h2ZM202,797l-1,2h2v1l-1,1h1l2,4h1v1l-1,1h1l-1,1h-3l-1,1h-2l2,-2h-1v-1h1l-1,-1v-1h2l-1,-1h-1v-2l-1,-1l1,-2v-1l1,1ZM75,786h-1v-1h1ZM141,790l-1,1v-1ZM139,790h-2l1,-1h1ZM78,780v1h1h-2v-1ZM139,786h1v1h1l-1,1h1l-1,1l-1,-1h-1l-2,1l1,-1h-1h1l1,-1l1,-2ZM193,787v1l1,1l-1,1h-3l-1,1l-1,-1h-2l1,-1h-1h1v-1h-2l1,-1h1l1,1l2,-1h2ZM147,784h-1l1,-1h2l-1,1ZM81,776v1l1,-1h2l-1,2h-3l-1,1h-1l-1,-1h1v-1h-1h1h-2l-1,1l8,-5v1l-1,2ZM135,780l-1,1v-1h-1l1,-1h1ZM322,771h-1ZM88,771h-1h2ZM139,780l-1,2l2,-1v1h-1v1l1,-1l2,-1l1,-1h2v2h-1v1l-1,1l-2,1h-1v-1l-1,1l-2,1v1h-3l-2,2h-1l-1,1l-2,1l-1,1l-1,2h1l-1,1v1h1l3,3l2,1h1l-2,2v2l1,1h1l2,-4h-1l4,-2v-1l1,-1v-1l-1,-1l2,-1l2,-4l1,1h1l1,-1v1l1,1h1v2l-1,1l1,1h2l1,-2h1v3l1,1l-1,1l1,1v1h1l1,1v1l1,1l-2,2h-2l-2,2h-1l-2,-1h-2l-2,1l-1,1l-2,1l-1,1l2,-1l3,-1h2l-1,1l-1,2v1l1,1l2,-1l1,-1v1h1l-4,2h-1l-2,1v-1l2,-1h-3v1h-1l-1,1h-1l-2,2l1,1v-1v1h-3l-1,1l2,-1v1h-2l-2,2v1l-1,1l-1,-1l1,-1l-1,1v4l-1,1h-1l-1,1h-1l-3,3h-1v8l-1,1h-1v-3l-1,-1l1,-1l-1,-2l-1,1l-1,-1h-4v1h-1l-1,-1l-1,1l-1,-1l-2,2h-2v1h-1v3l-1,1v1l-1,2v4l1,1v1h1v1l1,-1h3v-1l1,-1v-1l1,-1h3v1l-1,1v2l-1,1v-1v2l-1,1v1h5v1h1v1l-1,1v3l-1,1h1v2h1v1h2l1,-1h1v1h1l1,1l1,-1v-2l1,-1h2l2,-2v2h-1h1v1l-1,1v1h1v-3h1v-1h1v1h1v1h3l1,1l1,-1h1l1,1h1v1l1,1h1v1h1v1l1,1l2,1v-1h1l1,1h1l1,1v1h1v1l1,2v1l-1,1l1,1h2v1v-1l4,2v1h1l3,1h1l2,1l2,2h2v5l-1,1l-1,2l-2,2v9l-1,2v2h-1v1h-2l-1,1h-1l-3,3v5l-1,2l-2,2v2l-2,2v-1l-1,1l-1,-1h-1v-1v1l1,1v1l1,1v2l-2,1h-3l1,1v2l-1,1l-1,-1h-1l1,2h2l-2,2l1,1v1h-1l-1,1v1l2,1h1v1l-1,1v2h-1v1l2,2h-1l-1,1v1h-1l-2,-1l-3,-3l-1,-3v-1l1,-1h-2l1,-2l-1,-2h1v-2l-1,-1v2l-1,-2v-4l-1,-1l-1,-2h1v-6l-1,-2v-8l-1,-2v-6l-1,-2l-1,-1l-2,-1l-3,-2l-1,-1v-1l-1,-2l-1,-3l-2,-3l-2,-2v-1l-1,-2l2,-2v-1h-1v-3l1,-1v-1h1v-2h1l1,-1v-5l-1,-1v-2h-1v1h-1v1h-1l-1,-1h-2v-2h-1v-1v1h-1v-3l-2,-2h1h-2v-1h-2l-1,-1l-1,-2h-1l-1,-1v1h-2l-1,-1h-2l-2,-2h-1l-1,-1v-1h-1v-3h1l-1,-1v-3l-1,-1v-1l-1,-1v-3h-1v-5l-1,-1l-1,1v4h1l-1,1h1v5h1v2h-1v-1l-1,-1v-3l-1,-1v1v-1h-1v-1h1v-9h-1v-1h-1v-9l2,-2v-1l1,-2l2,-2l1,-2l1,-1v-1h1v1l2,-2h-1v-2l-1,-1v-1l1,-1l-1,-1l1,-1v-1l1,-1l-1,-1l1,-1v-1l1,-1l-1,-1h-1v-2h-1v-1h-1l-1,-1h-1l-1,1h-4l1,-1l2,-1h-1l-1,1l-2,1h-1l-1,1l-2,1h-2l-2,1h-1l-1,1h-3l-1,1h-2l1,-1h2l2,-1h2l2,-1h1l2,-1l1,-1h-3l1,-1l-1,1h-1l2,-2h-1v-1l2,-2l2,-1h3l1,-1h1l1,-1h-3v-2h4l1,1l1,-1v-3h4l1,-1h2l2,-1l1,1l1,-1h1l-1,1h1l1,1h2l1,1h2v1l1,1l1,-1h6l1,-1v2l2,-1l-1,1h2l1,1h2v1l-2,1h4v1l2,-2h2v1h1l1,1h2v-1h1l1,1l-1,1l1,-1h1l1,-1v-2l1,-1l2,-1l1,1l-2,2Z"/>
<path class="tl" d="M128,774l-1,1h4l-1,1h1l2,-2v1l-1,2v1l1,1h-2v1h-8v-1h-1v-1h4l-1,-1h-3l2,-1h-1l1,-1h1ZM135,774l-2,1v-1h1ZM152,776v1l-1,-1l-1,1v-2h2ZM146,776v1l1,-1l2,-1v2h3l1,1l-1,1l2,-1v1l1,1v2h-1l2,2v1h1v1l-2,1h-1l-1,-2l-1,1v1l1,1v2l-1,1l-2,-2v1l1,1h-2l-2,-2v-1l-1,-1v1h-3v-1l1,-1h3l1,-1l2,-1v-1l-1,-1h-1l1,-1l-1,-1h-5l-1,-1h-1l1,-1h-1l1,-1l2,-1l1,-1h2ZM138,774h2l-1,1h-1l1,1l-2,1h-2v-2l1,1v-1ZM298,772h-2v-1ZM141,776l-2,1v-1l2,-2h2l1,1l-2,1ZM122,776h-2l-1,-1h1l2,-1l2,-2h2v1h2v1h-1l-3,1h-2ZM299,769v1h-3v-1h1ZM143,773v1l-1,-1h-1l1,-1h1l1,1ZM295,769l1,1h-2l-1,1l-2,-1l-1,-1h2ZM143,771h-1v1l-1,1h-2l1,-1h-1l1,-1h2ZM136,771h1v1h-4l-2,1h-1l1,-1h-1l-1,-1l2,-1h1l2,1l1,1v-2h2ZM246,780h-3l-2,-1v-1l1,-2h-1l1,-1l-1,-1h1l4,-2h2l-1,1l-2,1l-1,1v2l-1,1l1,1ZM145,770l1,1h1l-1,1h1l1,1h4v1h-7l-1,-1l1,-1v-1h-2l1,-1ZM134,769l-2,1h-4l2,-1h3ZM271,770l1,1v-1h2l2,1h1v1l-1,1h1l2,1v-1l1,1l1,-1h2l1,1h3l-2,-1h5l1,1v1h2l2,1l-1,-1h1l1,-1l2,1v-1h1l-2,-1h8l3,1l1,-1h2l2,2h2v-1h3l3,1v-1h-2v-1h7l8,5h-1l1,1l2,1h2v1h-1v1h-1l1,1v2l-2,-1v2l-1,-1v1h-1l2,2v1h1l3,2h-1l1,1h1v1l1,2h-1l1,2l1,1l-4,-2l-4,-3l-1,-2l-1,-1v-3l-1,-2v-1l-2,-2l-1,1l2,2l-3,-1l-1,1l1,2l1,1h-1l-1,1l-1,-1h-1v1h-4v7h1l2,1h1l-1,-1h1l3,1l1,2l1,1l1,2l2,2v9h-1l-1,-1v2h-1v1l1,1v1h-1v1l1,1h1l2,2v1l1,1v1l-1,1h-1l-1,-2l-1,-1h1l-2,-1v-1v1v-1h-1v-1l-1,-1h-2v1h-1l-1,-1l1,-1l-1,-1l-1,1v2h-1v1l2,2h1v-1h2l1,1l-2,1v2l2,2l1,2l2,1v2h1v6l-2,4l-1,1h-1v1l-1,-1v1l-2,1h-1v2l-1,-1v-1h-2l-1,2v2l1,1l1,2l2,2l1,3v4l-2,1v1l-2,1v-2l-1,-1h-1v-1l-2,-2h-1v-1h-1v6h1v3l1,1h1v1h1v1l1,1v3h1v2h-1l-2,-2v-1l-1,-1v-1l-1,-1v-2l-1,-1v-1h-1v-6l-1,-1v-1l-1,-2v-2l-1,-1l-2,2h-1v-3l-1,-2v-1h-1l-2,-2v-1l-1,-1h-1v2l-1,-1v1h-2v2l-2,1l-1,2v1l-2,2h-1v8l-1,1l1,1h-1l-1,1l-1,-1l-1,-2v-1l-1,-1v-1l-1,-2v-1l-3,-6v-3l-2,1h-1l-1,-2v-1l-2,-1l-1,-1v-1l-1,-1l-2,1h-5l-1,-1h-2v-2h-1l-1,1h-2l-3,-3l-1,-2l-1,1v-1l-1,1v2l1,1h1l1,1v2l1,1l-1,-1l1,-1v2h1v1l1,-1h2v-1l1,-1v-1v2l2,2h1l2,2l-1,1v1h-1v3h-1v1h-1v1h-2v1h-1l-2,2h-1l-2,2v-1l-1,1h-2v1h-2v-2l-1,-1v-3h-1v-1l-1,-1v-1l-1,-1h-1v-1l-1,-1v-3h-2v-2l-1,-1v-1l-2,-2v-1v1l-1,1l-1,-1l-1,-2l1,2l1,1l1,2v1l2,2h-1l2,2v1l1,1h-1l1,2v1l1,1l1,2v1l1,1l2,1v1h1v1h1v1l-1,1h1l1,1h3l1,-1h3v-1h1v2l-1,1v3l-1,1l-3,6l-1,1l-2,1l-1,1l-1,2v1h-1v1h-1v2l-1,1l-1,2l1,1v4l1,1v7l-1,1h-1l-3,3h-1v1l-1,1v2h1l-1,1h1v1l-1,1h1l-1,1h-1l-2,2v3l-3,3v1l-2,1v1l-1,1h-2v1l-1,-1v1l-1,-1l-1,1h-2l-1,1l-1,-1h-1v-5l-1,-1v-2l-1,-1v-1l-1,-1v-5l-1,-1v-1l-1,-2v-1l-1,-1v-3l1,-1v-3h1v-1l1,-1v-1h-1v-5l-1,-1v-2l-3,-3l-1,-2l1,-1v-5l-1,-1v-1l-1,1h-2l-1,-1v-1l-1,-1h-2l-1,1h-2l-1,1h-6l-1,1l-4,-4h-1l-1,-1v-1l-1,-1v-1h-1v-1l-1,-1v-1h-1v-3h-1l1,-1v-1h1l-1,-1l1,-1v-4l-1,-1v-1h1v-2l1,-1v-1h1v-2h1l1,-2h1l2,-2v-3l3,-3l1,-2v-1h1l1,1h2l1,-1h2l1,-1h4l1,-1h1v1h1l1,-1h1v1l1,-1v1h-1v1h1v2h-1v1h1v1h3l2,2h1l2,2l1,-1v-2l1,-1h2l1,1h1l1,1h2l1,1h1v-1h2l1,1v-1h1l1,1v-2l1,-1v-5h-2l-1,1l-1,-1h-2v1l-1,-1h-2v-1l-1,-1v-2l1,-1h1v-1h2l1,-1h1l2,-1l2,1l1,1h2l1,-1v-2h-1l-2,-2h-1l-1,-1l1,-1l-1,-1h2l-1,-1v1h-2l-1,1v1h1l-1,1h-1v-1h-1l1,-1h-2v-1h-1v1l-1,1v1h-1v4l1,1h-2v1h-1v-1h-2l1,1h-2v1l1,1h-1h1l1,1v1l-1,-1v1h-1l1,1h-2v-2l-1,-1v-1h-1v-3h-1v-1h-1l-1,-1h-1l-1,-1v-1l-1,-1v1v-1h-2v1l2,2v1l1,1h1l1,1h1l1,1v1l-1,-1h-1v1h1v1h-1v1h-1v-1h1l-1,-1v-1h-1l-1,-1h-1l-2,-2l-1,-2h-2v1h-4l-1,1v2h-2v1l-1,2h1l-1,1v1h-1l-1,1h-2l-1,1l-2,-2v1h-2l1,-1v-1h-1v-2l1,-1v-3l-1,-1l2,-1l1,1h5v-4l-1,-1v-1h-2v-1h3v-2l1,1l2,-1v-1h1l1,-1l1,-2l1,-1h2v-5h2l-1,1h1v1l-1,1v1h1v1l1,-1h2v1h1l2,-2l1,1h1v-1h1v-3l1,-1l1,1v-1l-1,-1v-1h4l1,-1h-4l-1,1l-2,-2v-4l2,-1v-1l-1,-1l-2,2l-1,2l-1,1v3h1v2h-1v2l-1,2h-1v1h-1v-2l-1,-1l-1,-2l-1,-1l-1,2h-1l-2,-1v-5l2,-1l3,-3l2,-3l3,-3h2l1,-2h3l2,1l-1,1h2l1,1h3l3,1l1,1v1l-1,1h-1l-3,-1h-1l2,1v2l1,1h1v-1h-1l1,-1l2,1v-1l1,-2h1l1,1v-1l-1,-1v-1l-1,-1l2,1h1l-1,1l1,1h1v-1l1,-1l2,-1h1v1l1,-1h1l1,-1l1,1l1,-1h-2l1,-1h2l1,1l4,1v-1h-2v-1h-1l-1,-1v-3h2l1,1v1h1l1,1l1,2h1v3l1,1v-1h1l-1,-1l1,-1h-1l-2,-2v-1l-2,-1l1,-1l-1,-1h1l1,2l-1,-1l1,-1h2l1,1l-1,-1l-1,-2h4l-2,-1v-1h1l1,-1h3l1,-1h1v-2l2,1h-1ZM253,820l1,1v2h-1v1l1,1h1l1,1h3l-1,-1v-2h-1v-2h1v-1l-1,-1h-1l1,1l-1,-1v-1h-2v-2h-1h1v-2l1,1v-3h-2l-1,1h-1v1h-1l-1,2l2,1v1l1,1Z"/>
<path class="tl" d="M146,770h-1v-1h1l1,1ZM137,769h-2l1,-1h1l1,1ZM220,771l-1,1h-1v-1h-1l2,-1v1ZM139,768h-2l1,-1v1ZM146,769h-1v-1h1l1,1ZM144,769h-1l-1,-1h-1h1v-1h1l1,1ZM268,768l-3,1v-2ZM215,769l3,1h-2v3h-1l-2,-1h1l-1,-1l-2,-1v-1l1,-1l1,1h1v-1h1ZM220,768h1l-1,1h-4l-1,-1h3ZM234,767l-1,1h-1v-1h-1h4ZM264,768h-4l-2,-1l-1,-1h1l1,-1l4,2ZM153,767v1h-1l-2,1h-2v-1h1h-1v-1l1,-1h2v-1h1v1h1ZM167,764h3v1h-3l-1,1h-1l-1,1l-2,1h-3v1h-1v1h-2l-2,1h1l-2,1h-4l-1,-1h2v-1h2v-1h-1h1l1,-1h1l-1,-1h4l-1,-1h-3v-1l1,-1h6v-1h3v1l2,-1l1,1ZM190,764l3,1h-6v1h5l-1,1l2,-1h4v1l-2,1h-1l-2,2v2l1,1h-2l1,1l-1,1v1h-1l1,1h-3l1,1v1l-1,-1l-1,1h1l1,1v1h-2l-1,-1v1l-1,1h3l-4,2h-3l-1,1l-4,2h-1l-2,1h-1v1l-2,2v1l-1,1l-1,2h-1l-1,-1h-1l-1,-1v-2l-1,-1v-1l1,-1l-1,-2l1,-1l1,-2h1l1,-1v-1l-1,1h-1v-1l1,-1h1l-1,-1h-1l1,-1v-4l-1,-1h-5v-1l-1,-1h1l-1,-1l1,-1h2l3,-1h1l-2,-1h1l3,-1h1v-1h9l1,1l-1,-1h1l2,-1h3l2,-1Z"/>
<path class="th" d="M380,896v-1ZM382,893v1ZM383,894h-1v-1v1ZM382,892v1ZM381,893h-1v-1h1ZM380,892v-1ZM381,892v-1ZM380,891v1ZM381,891v1v-1v1ZM379,890v1h-1h1v-1v1ZM378,891v-1ZM380,891v-1ZM382,892l-1,-1h1l-1,-1h1v1ZM378,891v-1ZM377,890v-1ZM378,890v-1ZM376,888v1ZM376,888h1ZM387,894v1v-1v1h-1v-1ZM381,891l-1,-1v-1h-1h1v1h1ZM379,889h-1ZM378,889v-1h-1v-1h1v1Z"/>
<path class="tg" d="M66,970h1l1,-1h4v-1h5v-1h5v-1h6v-1h6l1,-1h7v-1h8v-1h9l1,-1h11v-1h14v-1h20v-1h79v1h20v1h14v1h11l1,1h9v1h8v1h7l1,1h6v1h6v1h5v1h5v1h4l1,1h1M21,927h6v-1h7v-1h8v-1h10v-1h10v-1h12v-1h14v-1h18v-1h23v-1h38v-1h75v1h38v1h23v1h18v1h14v1h12v1h10v1h10v1h8v1h7v1h6M5,877h399M21,826h4v1h7v1h8v1h9v1h10v1h11v1h14v1h16v1h21v1h32v1h103v-1h32v-1h21v-1h16v-1h14v-1h11v-1h10v-1h9v-1h8v-1h7v-1h4M66,783v1h5v1h4v1h5l1,1h5v1h6l1,1h6l1,1h7v1h10v1h10v1h13l1,1h17v1h36v1h21v-1h36v-1h17l1,-1h13v-1h10v-1h10v-1h7l1,-1h6l1,-1h6v-1h5l1,-1h5v-1h4v-1h5v-1M140,755h-1v1h-3v1h-2v1h-2v1h-2v1h-2v1h-2l-1,1h-1l-1,1h-1l-1,1h-1v1h-2v1h-2v1h-2v1h-1l-1,1h-1v1h-2v1h-1l-1,1h-1v1h-2v1h-1v1h-2v1h-1v1h-2v1h-1v1h-1l-1,1h-1v1h-1v1h-2v1h-1v1h-1v1h-1v1h-2v1h-1v1h-1v1h-1v1h-1v1h-1v1h-1l-1,1h-1v1h-1v1h-1v1h-1v1h-1v1h-1v1h-1v1h-1v1h-1v1l-1,1v1h-1v1h-1v1h-1v1h-1v1h-1v1l-1,1v1h-1v1h-1v1h-1v2h-1v1h-1v2h-1v1h-1v2h-1v1h-1v2h-1v2h-1v1h-1v2h-1v2h-1v2h-1v2h-1v2l-1,1v2h-1v2l-1,1v2h-1v3h-1v4h-1v4h-1v5h-1v9h-1v13l1,1v8h1v5h1v4h1v4h1v3h1v3h1v2h1v3h1v2h1v2h1v2h1v2h1v2h1v2h1v1l1,1v1h1v2h1v1h1v2h1v1h1v1h1v2h1v1h1v1l1,1v1h1v1h1v1h1v1l2,2v1h1v1h1v1h1v1h1v1h1v1h1v1h1v1h1v1h1v1h1v1h1v1h1v1h1v1h2v1h1v1h1v1h1v1h1v1h1l1,1h1v1h1v1h1v1h2v1h1v1h1l1,1h1v1h1v1h2v1h1v1h2v1h1l1,1h1v1h2v1h1v1h2v1h2v1h1l1,1h1v1h2v1h2v1h2v1h2v1h2v1h2v1h2v1h2l1,1h2v1h2v1h2M153,755h-1v1h-2v1h-2v1h-1v1h-2v1h-2v1h-1v1h-2v1h-1v1h-2v1h-1v1h-2v1h-1v1h-1v1h-2v1h-1v1h-1l-1,1h-1v1h-1v1h-1v1h-1v1h-1l-1,1h-1v1h-1v1h-1v1h-1v1h-1v1h-1v1h-1v1h-1v1h-1v1h-1v1h-1v1h-1v1h-1v1h-1v1h-1v1h-1v1h-1v1l-2,2v1h-1v1h-1v1h-1v1l-1,1v1h-1v1h-1v2h-1v1h-1v1l-1,1v1h-1v2h-1v1h-1v2h-1v1h-1v2h-1v2h-1v2h-1v2h-1v2h-1v2h-1v2h-1v3h-1v2h-1v3h-1v3h-1v3h-1v3h-1v4l-1,1v4h-1v6l-1,1v30h1v6h1v5h1v4h1v3h1v3l1,1v2l1,1v2h1v3h1v2h1v2h1v2h1v2l1,1v1h1v2h1v2h1v2h1v2h1v1h1v2h1v1h1v2h1v1h1v2h1v1h1v1h1v2h1v1h1v1h1v1l1,1v1h1v1h1v1h1v1h1v1h1v1h1v1l3,3v1h1l3,3h1v1h1v1h1v1h1v1h1v1h1v1h1v1h1l1,1h1v1h1v1h1v1h1l1,1h1v1h1v1h1l1,1h1v1h1v1h2v1h1v1h2v1h1v1h2v1h2v1h1v1h2v1h1l1,1h1v1h2M166,755h-1v1h-1v1h-1l-1,1h-1v1h-1v1h-1v1h-1v1h-1v1h-1l-2,2h-1v1h-1v1h-1v1h-1v1h-1v1h-1v1h-1v1h-1v1h-1v1l-2,2v1h-1v1h-1v1h-1v1h-1v1l-1,1v1h-1v1h-1v1h-1v2h-1v1h-1v1l-1,1v1h-1v1h-1v2h-1v1h-1v2h-1v2h-1v1h-1v2h-1v2h-1v2h-1v1l-1,1v1l-1,1v1l-1,1v2h-1v2h-1v2h-1v3h-1v2h-1v3h-1v3h-1v3h-1v3h-1v4h-1v4h-1v5h-1v6h-1v8h-1v30h1v7l1,1v5h1v5h1v4h1v4h1v3h1v3h1v3h1v3h1v3h1v2h1v2h1v2l1,1v2h1v2h1v2h1v2h1v1h1v2h1v2h1v2h1v1h1v2h1v1h1v2h1v1l1,1v1h1v1h1v2h1v1h1v1h1v1l1,1v1h1v1h1v1h1v1l1,1v1h1v1h1v1h1v1h1v1h1v1h1v1h1v1h1v1h1v1h1v1h1v1h1v1h1v1h1v1h1l2,2h1v1h1v1h1v1h1v1h2v1h1"/>
<path class="tg" d="M179,755h-1v1h-1v2h-1v1h-1v1h-1v1h-1v2h-1v1h-1v1l-1,1v1h-1v1l-1,1v1h-1v1l-1,1v1h-1v2h-1v1l-1,1v1h-1v2h-1v2h-1v2h-1v2h-1v2h-1v2h-1v2h-1v2h-1v2l-1,1v2h-1v2l-1,1v2h-1v3h-1v3h-1v3h-1v3h-1v4h-1v4h-1v4h-1v4h-1v5l-1,1v5h-1v8h-1v11h-1v29l1,1v10l1,1v7h1v6h1v5h1v4l1,1v4h1v3l1,1v3h1v3h1v3h1v3h1v3h1v3h1v2h1v3h1v2h1v2h1v2l1,1v2h1v2h1v1l1,1v1l1,1v1h1v2h1v2h1v1l1,1v1h1v2h1v1h1v2h1v1h1v2h1v1h1v1l1,1v1h1v1h1v1h1v2h1v1h1v1h1M192,755h-1v3h-1v2h-1v3h-1v3h-1v3h-1v3h-1v3h-1v3l-1,1v3h-1v4h-1v4h-1v4l-1,1v4h-1v5h-1v6h-1v6l-1,1v7h-1v8h-1v11l-1,1v18h-1v29l1,1v18h1v11h1v8l1,1v7h1v6h1v6h1v5h1v5h1v4h1v4h1v4h1v4h1v3h1v3l1,1v3h1v2l1,1v2h1v3h1v3h1v2h1M205,755v243M217,755h1v3h1v2h1v3h1v3h1v3h1v3h1v3h1v3l1,1v3h1v4h1v4h1v4l1,1v4h1v5h1v6h1v6l1,1v7h1v8h1v11l1,1v18h1v29l-1,1v18h-1v11h-1v8l-1,1v7h-1v6h-1v6h-1v5h-1v5h-1v4h-1v4h-1v4h-1v4h-1v3h-1v3l-1,1v3h-1v2l-1,1v2h-1v3h-1v3h-1v2h-1M230,755h1v1h1v2h1v1h1v1h1v1h1v2h1v1h1v1l1,1v1h1v1l1,1v1h1v1l1,1v1h1v2h1v1l1,1v1h1v2h1v2h1v2h1v2h1v2h1v2h1v2h1v2h1v2l1,1v2h1v2l1,1v2h1v3h1v3h1v3h1v3h1v4h1v4h1v4h1v4h1v5l1,1v5h1v8h1v11h1v29l-1,1v10l-1,1v7h-1v6h-1v5h-1v4l-1,1v4h-1v3l-1,1v3h-1v3h-1v3h-1v3h-1v3h-1v3h-1v2h-1v3h-1v2h-1v2h-1v2l-1,1v2h-1v2h-1v1l-1,1v1l-1,1v1h-1v2h-1v2h-1v1l-1,1v1h-1v2h-1v1h-1v2h-1v1h-1v2h-1v1h-1v1l-1,1v1h-1v1h-1v1h-1v2h-1v1h-1v1h-1M243,755h1v1h1v1h1l1,1h1v1h1v1h1v1h1v1h1v1h1l2,2h1v1h1v1h1v1h1v1h1v1h1v1h1v1h1v1h1v1l2,2v1h1v1h1v1h1v1h1v1l1,1v1h1v1h1v1h1v2h1v1h1v1l1,1v1h1v1h1v2h1v1h1v2h1v2h1v1h1v2h1v2h1v2h1v1l1,1v1l1,1v1l1,1v2h1v2h1v2h1v3h1v2h1v3h1v3h1v3h1v3h1v4h1v4h1v5h1v6h1v8h1v30h-1v7l-1,1v5h-1v5h-1v4h-1v4h-1v3h-1v3h-1v3h-1v3h-1v3h-1v2h-1v2h-1v2l-1,1v2h-1v2h-1v2h-1v2h-1v1h-1v2h-1v2h-1v2h-1v1h-1v2h-1v1h-1v2h-1v1l-1,1v1h-1v1h-1v2h-1v1h-1v1h-1v1l-1,1v1h-1v1h-1v1h-1v1l-1,1v1h-1v1h-1v1h-1v1h-1v1h-1v1h-1v1h-1v1h-1v1h-1v1h-1v1h-1v1h-1v1h-1v1h-1v1h-1l-2,2h-1v1h-1v1h-1v1h-1v1h-2v1h-1M256,755h1v1h2v1h2v1h1v1h2v1h2v1h1v1h2v1h1v1h2v1h1v1h2v1h1v1h1v1h2v1h1v1h1l1,1h1v1h1v1h1v1h1v1h1l1,1h1v1h1v1h1v1h1v1h1v1h1v1h1v1h1v1h1v1h1v1h1v1h1v1h1v1h1v1h1v1h1v1h1v1l2,2v1h1v1h1v1h1v1l1,1v1h1v1h1v2h1v1h1v1l1,1v1h1v2h1v1h1v2h1v1h1v2h1v2h1v2h1v2h1v2h1v2h1v2h1v3h1v2h1v3h1v3h1v3h1v3h1v4l1,1v4h1v6l1,1v14l1,1h-1v15h-1v6h-1v5h-1v4h-1v3h-1v3l-1,1v2l-1,1v2h-1v3h-1v2h-1v2h-1v2h-1v2l-1,1v1h-1v2h-1v2h-1v2h-1v2h-1v1h-1v2h-1v1h-1v2h-1v1h-1v2h-1v1h-1v1h-1v2h-1v1h-1v1h-1v1l-1,1v1h-1v1h-1v1h-1v1h-1v1h-1v1h-1v1l-3,3v1h-1l-3,3h-1v1h-1v1h-1v1h-1v1h-1v1h-1v1h-1v1h-1l-1,1h-1v1h-1v1h-1v1h-1l-1,1h-1v1h-1v1h-1l-1,1h-1v1h-1v1h-2v1h-1v1h-2v1h-1v1h-2v1h-2v1h-1v1h-2v1h-1l-1,1h-1v1h-2"/>
<path class="tg" d="M269,755h1v1h3v1h2v1h2v1h2v1h2v1h2l1,1h1l1,1h1l1,1h1v1h2v1h2v1h2v1h1l1,1h1v1h2v1h1l1,1h1v1h2v1h1v1h2v1h1v1h2v1h1v1h1l1,1h1v1h1v1h2v1h1v1h1v1h1v1h2v1h1v1h1v1h1v1h1v1h1v1h1l1,1h1v1h1v1h1v1h1v1h1v1h1v1h1v1h1v1h1v1l1,1v1h1v1h1v1h1v1h1v1h1v1l1,1v1h1v1h1v1h1v2h1v1h1v2h1v1h1v2h1v1h1v2h1v2h1v1h1v2h1v2h1v2h1v2h1v2l1,1v2h1v2l1,1v2h1v3h1v4h1v4h1v5h1v9h1v13l-1,1v8h-1v5h-1v4h-1v4h-1v3h-1v3h-1v2h-1v3h-1v2h-1v2h-1v2h-1v2h-1v2h-1v2h-1v1l-1,1v1h-1v2h-1v1h-1v2h-1v1h-1v1h-1v2h-1v1h-1v1l-1,1v1h-1v1h-1v1h-1v1l-2,2v1h-1v1h-1v1h-1v1h-1v1h-1v1h-1v1h-1v1h-1v1h-1v1h-1v1h-1v1h-1v1h-1v1h-2v1h-1v1h-1v1h-1v1h-1v1h-1l-1,1h-1v1h-1v1h-1v1h-2v1h-1v1h-1l-1,1h-1v1h-1v1h-2v1h-1v1h-2v1h-1l-1,1h-1v1h-2v1h-1v1h-2v1h-2v1h-1l-1,1h-1v1h-2v1h-2v1h-2v1h-2v1h-2v1h-2v1h-2v1h-2l-1,1h-2v1h-2v1h-2"/>
<rect x="365" y="876" width="34" height="31" fill-opacity="0" stroke="#ffffff" stroke-opacity="0.5" stroke-width="5.0"/>
<rect x="367" y="878" width="34" height="31" fill-opacity="0" stroke="#113311" stroke-opacity="0.8" stroke-width="5.0"/>
<rect x="366" y="877" width="34" height="31" fill-opacity="0" stroke="#45a249" stroke-opacity="0.9" stroke-width="5.0"/>
<rect x="691" y="691" width="309" height="309" fill="#ffffff" fill-opacity="1.0"/>
<rect x="694" y="694" width="302" height="302" fill="#000000" fill-opacity="1.0"/>
<rect x="700" y="700" width="300" height="300" fill="#70add3" fill-opacity="1.0"/>
<path class="zl" d="M927,944l1,6h2l1,-2v-2h2l-1,1l1,2v1h1v4l1,1v1l-2,1h-3l-2,1h-1v-1l-1,-1l-1,-2v-3l-2,-6l1,-2v-2h1l1,2ZM938,966l1,1v1l3,1l2,2v1l1,1l-2,1h-2l-1,1l-2,-1v-2l-1,-3v-2h-2l-2,-1l1,-2v-1h3ZM955,979v1l-2,-1h-3v-1l-1,-1l1,-1v-1h1v1l2,2ZM952,971h-1l-3,-1h-1l-1,-1l1,-1h2l1,-2l1,1l1,2v1h1ZM954,992l2,2l-1,2h-4l1,-1h-1v-1l-1,1h-1l1,-2l1,-1h2ZM946,955l-1,1h-2v-1l2,-2h3ZM951,965l-1,-6l1,-3l1,8ZM951,953v1l-1,-1v-6l1,4ZM935,960h-1l-1,-1v-1l2,1ZM942,935l-1,1l-2,-1h-1l1,-1v-1h3ZM940,928v1h-1l-1,-3h1l1,-1l1,1v2ZM715,885v1h-3l-1,-1h2l-1,-1ZM700,889v-3l6,2l1,1l-1,1h-3v-1Z"/>
<path class="zp" d="M700,888v-2"/>
<path class="zl" d="M702,759h-1l1,-1ZM743,803l-1,1v1l-1,-1l-1,1h-1v1h-2l-2,-1h-2l-1,-1l-2,-4v-2l-1,-2l-2,-1h-1l-1,-2l-1,-1l-2,-1v-1l-1,-2v-6h2l1,1h2l1,2l2,2v1l3,3l2,3h2l1,1l2,1l1,2l1,1l1,2ZM720,781l-1,1v-3l-1,-1v-2l1,-1v-1l1,1v1l1,2v3ZM979,702h-1Z"/>
<path class="zh" d="M822,890l1,1h-1v1h-1v-1h-2v-2h-1v-1h-1v1h-1l-1,-1h-2v-1h-1v-1h1v-1v1h2l1,1h1v1h2l1,1Z"/>
<rect class="zh" x="809.5" y="882.5" width="1" height="1"/>
<rect class="zh" x="842.5" y="863.5" width="1" height="1"/>
<path class="zh" d="M854,874h-5l-1,-1h-3v-1l-1,1v-1v1v-1h-2v-1h-1v-1v1l-1,-1v-1v1h-1v-2h-1h1v-1h-1h1v-1h-2v-1h-1v1h-1v-3h2l2,1l2,2h1v1h2l1,1v-1h2v1h1l1,-1v1h1v2h1v1l1,1v2h1Z"/>
<rect class="zh" x="935.5" y="857.5" width="1" height="1"/>
<rect class="zh" x="934.5" y="856.5" width="1" height="1"/>
<rect class="zh" x="846.5" y="855.5" width="1" height="1"/>
<path class="zh" d="M837,849l-1,1v-1h1l1,1v1h1v3l1,1v1h-1v-1h-1v-1v1h-1v-5ZM827,857l-1,1h-2v1l-1,-1h-3v-1h-2l-2,-1l-1,1h-3v-1h-2l-1,-1h-1v-1h-1v-2h-1v-5h3l2,2v1h9l1,1v1h3v2h1v1h1v1h1Z"/>
<rect class="zh" x="809.5" y="844.5" width="1" height="1"/>
<path class="zh" d="M817,845h1v-2l1,1h1v1h-1v1v-1h-1l-1,1v-1h-1Z"/>
<rect class="zh" x="798.5" y="843.5" width="1" height="1"/>
<path class="zh" d="M814,843h1v-1h1v1h1v-1v1h1v1h-1v1v-1h-1h1h-3ZM798,843h1l-2,2v-1h-1v-1h1v-1h1Z"/>
<rect class="zh" x="814.5" y="841.5" width="1" height="1"/>
<rect class="zh" x="770.5" y="837.5" width="1" height="1"/>
<rect class="zh" x="781.5" y="838.5" width="1" height="1"/>
<path class="zh" d="M779,834h1v2h-1h1v1l-2,2l-2,-2v-2h1v-1h1v1h1ZM767,835v3h1h-2v-2h-1v-1h-1h1v-1h1v-1h2v2Z"/>
<rect class="zh" x="805.5" y="832.5" width="1" height="1"/>
<rect class="zh" x="859.5" y="831.5" width="1" height="1"/>
<path class="zh" d="M836,853l-2,-2v-1l-2,-2h-1v-1h-2v-1l-3,-3v-3l-1,-1v-1l-1,-1v-2h1v-1l-1,-1v-1h-1v-1h2v-1h1v1h1v1l2,2v1h1v2h-1v3h1v-1l1,1v1v-1l2,2h-1h1v2h1l-1,1h2v1h-1v1h1h-1v1h1v1l1,1v1l1,2Z"/>
<rect class="zh" x="762.5" y="829.5" width="1" height="1"/>
<rect class="zh" x="763.5" y="828.5" width="1" height="1"/>
<rect class="zh" x="757.5" y="826.5" width="1" height="1"/>
<path class="zh" d="M775,835v1v-1h-1v-1h-2l-1,-1v-1h1h-1v-2h-4v1h-2v-2h1v-1v1v-2h1v-1l1,-1h3v2l1,1h-1l1,1h2v1l1,1v1h1v1l1,1h-1v1ZM754,827v2l-1,-1v-3h1v1ZM763,828h-1l-2,-2v-2h1v-1h2l1,1v4ZM757,821h1h-1v1l-1,1v2l-2,-2v-1l-1,-1h-1v-2l1,-1h1v1h1v1h2Z"/>
<rect class="zh" x="735.5" y="814.5" width="1" height="1"/>
<path class="zh" d="M740,809h1v1h-2v1v-1h-1v-1l1,-1h1Z"/>
<rect class="zh" x="744.5" y="806.5" width="1" height="1"/>
<rect class="zh" x="930.5" y="888.5" width="1" height="1"/>
<rect class="zh" x="924.5" y="881.5" width="1" height="1"/>
<path class="zh" d="M918,872v1h-3v1v-1v1h-1l-1,1v-1l-1,1l-1,-1v-1h1v-1v1h1v-1l1,-1l2,1v-1h1v1ZM786,818h1v1h-1l-1,-1v1h-1v-1h-1h2ZM810,834h1v1l-1,-1h-1l-3,-3h-2v-1h-2v-1l-1,1v-1h-1v-1h-1l-2,-1h-1v-1h-2v-1h-1v-1h-1l-2,-2h-1v-1h-1v-2l-1,-1h-1v-1l2,1h1v-1v1v-1v1h2v1h1v1h1v1h2v1h1v1h1v1l1,-1h1v1h1v1h3v1h1v1h1l2,1l3,3l-1,1h-1h1l1,1Z"/>
<rect class="zh" x="783.5" y="816.5" width="1" height="1"/>
<rect class="zh" x="769.5" y="815.5" width="1" height="1"/>
<rect class="zh" x="781.5" y="815.5" width="1" height="1"/>
<rect class="zh" x="772.5" y="815.5" width="1" height="1"/>
<path class="zh" d="M770,814h-1v1h-3v-1h-4v-1h-1v-1h-2l-1,-2v-1h-1l-1,-1v-1l-1,-1h-1l-3,-3v-1l1,-1h1v1h2l1,1v1h2l1,1h1v1h2v1h1v3l1,1h1v1h1v1h1v1v-1h3Z"/>
<rect class="zh" x="962.5" y="900.5" width="1" height="1"/>
<rect class="zh" x="911.5" y="866.5" width="1" height="1"/>
<rect class="zh" x="823.5" y="823.5" width="1" height="1"/>
<rect class="zh" x="931.5" y="888.5" width="1" height="1"/>
<rect class="zh" x="920.5" y="864.5" width="1" height="1"/>
<rect class="zh" x="752.5" y="822.5" width="1" height="1"/>
</svg>
