<?xml version="1.0" encoding="UTF-8" standalone="no"?>
<svg xmlns:svg="http://www.w3.org/2000/svg" xmlns="http://www.w3.org/2000/svg" xmlns:xlink="http://www.w3.org/1999/xlink" height="1000" width="1000">
<!-- made with pythonshp (GPL): github.com/sanjayrao77/pythonshp , underlying data may come from naturalearthdata.com -->
<!-- 
COPYRIGHT: THIS SVG FILE IS RELEASED INTO THE PUBLIC DOMAIN
 -->
<!-- 
vars : {
	'cmdline' : 'pythonshp.py publicdomain wiki1 elsalvador locatormap'
	'title' : 'El Salvador locator'
	'version' : '1.0.5'
}
 -->
<defs>
	<radialGradient id="watergradient" cx="500" cy="500" r="500" fx="500" fy="500" gradientUnits="userSpaceOnUse">
		<stop offset="0%" stop-color="#70add3"/>
		<stop offset="11%" stop-color="#6eaad0"/>
		<stop offset="22%" stop-color="#6ca7cc"/>
		<stop offset="31%" stop-color="#6ba5c9"/>
		<stop offset="41%" stop-color="#69a2c6"/>
		<stop offset="51%" stop-color="#679fc2"/>
		<stop offset="59%" stop-color="#669dbf"/>
		<stop offset="67%" stop-color="#649abc"/>
		<stop offset="75%" stop-color="#6297b9"/>
		<stop offset="81%" stop-color="#6095b6"/>
		<stop offset="87%" stop-color="#5f92b2"/>
		<stop offset="92%" stop-color="#5d8faf"/>
		<stop offset="95%" stop-color="#5b8dac"/>
		<stop offset="98%" stop-color="#598aa8"/>
		<stop offset="100%" stop-color="#5685a2"/>
	</radialGradient>
	<radialGradient id="landgradient" cx="500" cy="500" r="500" fx="500" fy="500" gradientUnits="userSpaceOnUse">
		<stop offset="0%" stop-color="#dddddd"/>
		<stop offset="11%" stop-color="#d7d7d7"/>
		<stop offset="22%" stop-color="#d1d1d1"/>
		<stop offset="31%" stop-color="#cccccc"/>
		<stop offset="41%" stop-color="#c6c6c6"/>
		<stop offset="51%" stop-color="#c0c0c0"/>
		<stop offset="59%" stop-color="#bbbbbb"/>
		<stop offset="67%" stop-color="#b5b5b5"/>
		<stop offset="75%" stop-color="#afafaf"/>
		<stop offset="81%" stop-color="#aaaaaa"/>
		<stop offset="87%" stop-color="#a4a4a4"/>
		<stop offset="92%" stop-color="#9e9e9e"/>
		<stop offset="95%" stop-color="#999999"/>
		<stop offset="98%" stop-color="#939393"/>
		<stop offset="100%" stop-color="#888888"/>
	</radialGradient>
	<radialGradient id="bordergradient" cx="500" cy="500" r="500" fx="500" fy="500" gradientUnits="userSpaceOnUse">
		<stop offset="0%" stop-color="#444444"/>
		<stop offset="11%" stop-color="#3f3f3f"/>
		<stop offset="22%" stop-color="#3a3a3a"/>
		<stop offset="31%" stop-color="#363636"/>
		<stop offset="41%" stop-color="#323232"/>
		<stop offset="51%" stop-color="#2d2d2d"/>
		<stop offset="59%" stop-color="#292929"/>
		<stop offset="67%" stop-color="#242424"/>
		<stop offset="75%" stop-color="#1f1f1f"/>
		<stop offset="81%" stop-color="#1b1b1b"/>
		<stop offset="87%" stop-color="#161616"/>
		<stop offset="92%" stop-color="#121212"/>
		<stop offset="95%" stop-color="#0e0e0e"/>
		<stop offset="98%" stop-color="#090909"/>
		<stop offset="100%" stop-color="#000000"/>
	</radialGradient>
</defs>
<style type="text/css">
<![CDATA[
.c2 {stroke:#45a211;fill-opacity:0;stroke-width:2}
.fs {font:14px sans;stroke:#ffffff;stroke-width:2px;stroke-opacity:0.8;text-anchor:middle}
.ft {font:14px sans;fill:#000000;fill-opacity:1;stroke-opacity:0;text-anchor:middle}
.sb {stroke:url(#bordergradient);fill-opacity:0}
.sg {stroke:#000000;fill-opacity:0.0;stroke-opacity:0.2}
.sh {fill:#45a211;stroke:#000000}
.sl {fill:url(#landgradient);stroke:url(#bordergradient)}
.sp {stroke:url(#landgradient);fill-opacity:0}
.sr {stroke:url(#watergradient);fill-opacity:0}
.sw {fill:url(#watergradient);stroke:url(#watergradient);stroke-opacity:0.8}
.tb {fill:#eeeeee;stroke:black;stroke-width:2}
.tg {stroke:black;stroke-opacity:0.2;fill-opacity:0}
.th {fill:#45a211;stroke:#378100}
.tl {fill:#aaaaaa;stroke:black}
.w2 {stroke:#ffffff;fill-opacity:0;stroke-opacity:0.6;stroke-width:2}
.zb {stroke:#444444;fill-opacity:0}
.zh {fill:#45a211;stroke:#115511}
.zl {fill:#dddddd;stroke:#444444}
.zp {stroke:#dddddd;stroke-dasharray:3 3;fill-opacity:0}
.zw {fill:#64a8d2;fill-opacity:0.9;stroke-opacity:0.9}
]]>
</style>
<circle cx="500.0" cy="500.0" r="500.0" fill="url(#watergradient)"/>
<path class="sl" d="M858,151l4,4v1h1v1h1h-1v-1h-1h1h-1h1h-1v-1v1l1,1l1,2h1l1,2l2,2h1v1h1v1h1v1l4,4v1l1,1v1l2,2v1h1v1h1h-1h1l2,4l4,4v1l3,3v1h1l1,1l1,2v1h1v1l1,1v1h1v1h1v1l1,2l1,1l2,4v-1h-1l1,1v1v-1l-1,1h1h-1v2l1,1v1l1,1v1l1,1l-1,-1h-1v-1l-1,-1h-1v-1l-1,-1v-1h-1l1,1l-1,-1l-2,-1v-1v2l-1,1v-1v1l-2,-2l-1,-2v-1l-1,-1h-1l-1,-2v-1h-1v-1h-1v1v-1l-1,-1v-1l-1,-1v1l1,1h-1v-1l-2,-2v-1h-1v-1l-1,-1l-2,-4h-1v-1l-2,-2v-1h-1l-1,-1v-1l-2,-2l-1,-2h-1v-1v1l-3,-3v-1h-1v-1l-2,-2v1v-1h-1v-1h-1v-1l-2,-2h1l-1,-1v-1h-1v-2l1,1h1v-1h3l-1,-1h1h-1h2v-1l-4,-4l-3,-4h-1v-1v1l-4,-4l-1,-2v1h1l2,2l-2,-2h-1v-1l-1,-1h-1h1h-1v-1l-2,-2h-1l-3,-3h-1l-2,-2v-1v1h-1v-1h-1v-1v1l-1,-1h-2l-1,-1h-1v-1h-1v-1h-1l-1,-1v-2h-1v-1h1l1,1v1v-2l-1,-1l-3,-2l-2,-1v-1h-1v-1l1,1h1v1l1,-1v1v-1h-1v-1h-1l-2,-2v-1h-1v-1l-1,-1h-1l-7,-7h1h-1h1h-1v-1h-1h1h-2v-1l1,1v-1h-1l-1,-1h-1v-1h-1l-5,-5h-1l-3,-3h-1v-1h-1h1l-1,-1h-1v-1h-1h1v1h1h-1v-1h-1h1l1,1l-1,-1h-1l-1,-1h1h-1l-1,-1h-1l-2,-2h-1v-1h-1l-1,-1h1v1v-1v1h1h-1h1l1,1h1l4,4h1l3,3h1l2,2h1l5,5h1l1,1h1l6,6h1l5,5h1l4,4h1l10,10h1l18,18Z"/>
<path class="sp" d="M787,91h1l1,1h1l4,4h1l3,3h1l2,2h1l5,5h1l1,1h1l6,6h1l5,5h1l4,4h1l10,10h1l19,19"/>
<path class="sl" d="M316,114l-1,1h-1v1l-1,1v1l-2,1l-1,1h-3l1,-1v-1h1l1,-1v-1h1l1,-1v-2h1h-1l-2,1h-1l-1,1h-1v1l-1,-1l1,-1h1l2,-2h1v-1h-1l1,-1h-1h1v-3l-1,-1l2,-2v-1l1,1v-2l1,1v-1h-1v-2h1l1,-1h-1l-1,1v-1h-1l1,-1v-1l2,-2v-1h1h-1l-3,3v1h-1v2h-1v-1h-2l1,-1h1v-2h1v-1v1h-1v1h-1v-2h-1v1h-1h1v3h-3v-1l-1,-1h1h-1v-1h1v-2h-1h1h-1v-2h-1v-1h2v-1h1v-1h1v1h-1v1h-1h1v-1h1v-1h-1l-1,1h-3l-1,-1h1v-1h-3l-1,-1h-3v-2h1v-1h1h-1l-1,1h-1v-1h-1h2v-1h-1v-1l1,-1h1h-4l2,-1h-3v1h1h-2l-1,1v1h-1h1h-1v1h-1l-1,1h-3v-1l-1,1h-1l-1,1h1v-1l-1,1h-1l-1,1v-1l-1,1v-1v1h-2v1h-1v-1v1h-2v-1h1l1,-1h2l1,-1l-1,1v-1l1,-1h1v-1h2l2,-1v-1h1l2,-1h3l1,1v-2h1l1,-1h1h-1l-1,1h-1v-1l-2,1h-3v1h-2v1h-2l-1,1h-2v1h-1l-1,1h-1l-1,1h-1l1,-1h-1l-1,1h-1l-1,1h-1l-1,1v2h-2l-1,1h-2v1h-1l-1,1h-3l-1,1h-2l-1,1h-2l-2,2h-2l-1,1h-3l-1,1h1h-3v1l-1,1h-1l1,-1l-1,1h-3v1h-1h1v-1h-1v1h-3v1v-1l-1,1h-1l1,-1h1v-1l-1,1h-1v1h-2l-1,1h-1h1v-1l-1,1h-1h1l-1,-1v1h-1v1v-1h1v-1h2l1,-1h1l1,-1h1l1,-1h2v1h1v-1h1l1,-1h1l1,-1h2l1,-1h2v-1v1h1v-1h1v-1h3v-1h2l3,-3h2v-1h1l1,-1h1l1,-1l2,-1h1h-1l-1,1h-3v-1h1l1,-1v1v-1h-1v1v-1v1h-2l-2,2l1,-2h1v-1h-1h1v-1h-1l-1,1h-1v-1h1l1,-1h-1h1l1,-1h1l3,-3l2,-1v-1h2l1,-1h1h-1l-2,1h-1v1h-2v1h-3v-1h1l2,-2v-1h1l2,-1l1,-1v1h-1v1h-1h1l1,-1v1h-1h2v-1h1h-2v-1h1l1,-1h-1h1h-1l1,-1h1l1,-1h-1h1v-1h1h-1h3v-1h1l4,-2v1v-1h1l1,-1h2v-1h1h-1h2v1h-1h2v-1h3v-1h1l-1,1h2l1,-1h1l1,-1h1l2,-2h2l1,-1h1v-1l-1,1v-1l-1,1h-3l-1,1l1,-1h-1h1v-1h-2v-1h1v-1h1l1,-1h1h-1h2v-1l2,-2h3l1,-1h1v1l1,-1h2l1,-1h1v1h-2v1h-1l-1,1h2v1l2,-1h1v-1h-1h1l2,-1v-1h1l-1,1h-1v1h-1h1v1h1v-1h1h-1h1h-2l1,-1h1l1,-1h1h-1v-1v1v-1h-1h1v-1l2,-1h1l3,-3h1v-1h2l2,-1h5l1,-1h1l1,-1h2l3,-1h4l2,-1l-1,1h-1h2v-1h6l2,-1h1v1h-3v1h1l1,-1h1l-1,1h2v1h-1v1h-1h1h-1l1,1h3v1h1h-1h1h-1l1,1h2v1h4v2h1v1h2v2l1,1h1l1,1v1h1v-2h1l1,-1h4l1,-1v1h-1l-1,1h1l1,-1h4v-1h1v1l1,-1h4l1,-1l1,1l1,-1v1h-1l-3,1h-5v1h-3l-1,1h-2l-1,1h2v-1h3v-1h4l-1,1h1v-1h2l1,-1h5v-1l-1,1h-1h3v-1h3v-1h1v-1v3h-1v2l1,1l1,-1h1v-1h2v-1h1h-1h1v2h-2v1h2l1,-1h2v-1h3v1h2v1l1,1h3v1h1l2,1h5l1,1h1v2h-4l-1,1h-1l1,1h3l2,1h5v-1h6v1h2l-1,1h2l1,1v1h-2v1h1v2h1v-1l-1,-1l1,-1l1,1h1l-1,-1h1l-1,-1v-1h1h-1v-1h1v-1h4v-1h3v-1h1h-3v1h-7l1,-1h1v-1h7l1,-1v1h1v2h2v1h-1h4l1,1h1l1,1h6v-1l1,1h6l-1,-1h1l2,2h1v-1h1l-1,-1h-3v-2l1,1h1l1,-1h-1h3v1h2l-1,1h1v-1h1l-1,2l-1,1l1,1h1v1v-1h1v1l-1,1l-1,-1h-1l1,2v-1h2v-1l1,-1l-1,-1v-1l1,-1h2l1,-1h1l1,-1h1v-2h-1v1h-2v-1h2v-1h-1h2l1,-1l-1,1h1v-1h-3v-1h-1v1l-1,-1h-2l-1,-1v-1h-1h1v-1h2v-1h-2v-1h1v-1h2l1,-1h-1h1v-1h2v-1h1v1h2v1h1v1h1v2h-1h1l2,2h1v1h-1l-1,-1h-1v1h1l-2,1h2v1h2v-1h1v1h-1h3l-1,1h-1l1,1h1v3h1l1,-1v-2h1l1,-1h1v1h2l1,1v1l1,1h-2v2l1,1l2,1v1h1v-1h2v-2l2,-1v-3h2v-1h1h-1v-1h-1v-1h-1v-1h10v1h-1h1l1,1h2v1h-1h1l1,1l-1,1h-3l2,2v-1v1l1,1h1l1,1v2h-1v1h-1v1h-2l-1,1h-2v-1h-2v-1h-1l-1,-1l-1,1h2l3,3h-4l-1,-1h-1l-1,-1v1h-3v1h2v1l-2,1l-2,2h-3l-1,-1h-1v-1h-3v-1h-2l1,1h-1v-1h-4v1v-1h2l2,1h1v1h2v1h8v1l-3,3v1h-1l-1,1h-5v-1l-1,1h-1l1,1l-1,1h-4l-1,-1h-4l-2,-1h-1l-1,-1v2h1v-1l1,1h3v1h-1h4l1,1h2v2h-2l-1,1h-3v1h1h-3v1h-1h1v1h-1v-1h-1l1,1h-1v1h-2v1h1h-1l-1,1h-1v1h-1v2l-1,1h-1v1h-1v2l-1,1v4l-1,1h1v1h1v1h1l-1,2l1,-2h5v1l1,2v2l1,2v2h-1v1h-1h1l1,-1h1v1v-1l7,-1h1l1,1h1l2,1h4l2,2h2l3,3h1l2,1h2l2,1h2l2,2v1v-1h12v1h2l2,2l-1,2v1l2,2v6h1v1l1,1h1l1,1v1h-1h2v1h2l4,4l-1,1h4l2,2h1l1,1h-1v-1l-1,-1h-1v-2l1,-1h2v1h1v1v-1h1v-1l-2,-1h1v-2l1,-1h1l-1,-1v-1h-1v-1h-1v-2h-1v-1l-1,-1v-1l-1,-1l1,-1h-1l1,-1h-1v-1h-2v-1l-2,-2l4,-1l2,-1h1v-1h2v-1l2,-1v-1h1v-1l1,-1v-5l-1,-1v-1h-1l-1,-2l-2,-2l-2,-1h-1l-1,-1h-1l-1,-1h-1v-2h1v-1l1,-1v-2h1l1,1h-1v-3h-1l-1,-1v-1h1h-1l-1,-1h1v-1l-1,1l-1,-1h-1l1,-1h1v-1l-1,-1h1l-1,-1h-1v-1h-1v-2h-1h1v-1h5l4,1h5l1,-1h4l1,1h2v1h1l1,1h1v1h-1h1v-1l2,1h-1v1h1l1,1h6v1h2v-1h1v4h1v1h-1l-2,1h-1h5v1h1l-1,1h1v1h1v1h1v2h-1v-1h-1v1h-1h3v-1h4l2,2v1l1,1h-1v1h-2v1l1,-1h2v-3l1,1v1v-1h1l1,1v1v-2h1l1,-1h1v-2h1v1h1l1,1v-1h-1v-2h1h-1h2l-1,-1h-1v-1h1h-1v-1h1l1,1l-1,-1h-2v-1h1v-3h2v1h-1v1l1,-1h1l1,1v1v-1h1v1h1v1h1h-1v1h3v1h-1h2l1,1h1l1,1v1h-1v1h-1h1v-1h1v1v-1h2v2h-1v1l1,-1h1l2,1h2v2h-1v1l1,-1l1,1h1l-1,1h2l2,1v1h1l-1,1h-2l-2,-1h1h-1l2,1h2v1h2l-1,1h2v1h1l1,1h1v-1v1h1l1,1v-1l2,2v2l1,-1h3v2l1,-1v-1h1l2,2h4l1,1h2v1h-1l-1,1h-1v2h-2v1h-3v2h-1l-1,-1l1,1h1v2l1,-1v-1h2v-1h1v-1l1,-1h1l1,-1h1h-2v-1h3l1,1l2,1l1,1h-1v1h-1h1l1,1v-2h4l1,1h1v1h1l1,1v1l1,1v1h1l-2,1h3v1h-1h2v1l-1,1v1l-1,1l-1,2h-4l-1,1h-2v1l-1,2l-1,1v1l-1,1v1h-4l-1,1h-22l-2,1l-1,-1l-1,1h-2l-2,2v4h-1l-3,1h-1h1l-1,1h-1v1l-2,1l-1,1v1l-1,1v1h-1l-1,-1h-2l-4,-1v1h3l2,1h2v3l-2,2l-1,2l-1,1h-1v1l-2,1h-2v1h-1v1l-2,1h-1l-2,2v1l-1,1h-2v1l-1,1l-2,-1l1,1h1l1,1h-1l-2,1l-1,1h16l3,-1v-1h1l1,-1h1v1v-1h1v-1h-1l2,-2v-6l1,-1v-2l1,-1v-1h1v-1v1h1v1h2l1,-1h3l2,2v2l1,1v2h1v3h1v1h2v2h1v1h2v2h1v2h-3v1l-1,-1v2h-1v-1h-2v1v-1v1h-1l1,1h-1l-1,-1v-1h-1v4h-2v1l-1,-1v1v-1h-1v1h-1v1v-1h-1v2l-1,1v1l-1,1v3l1,1v-1v1h-1v1l-1,1h2v1l2,1h-1l2,2h2l1,-1l-1,-1h-1v-1l1,1h1v2l-2,1h-1l-1,1v-2l-2,2h-1v-2l-1,1v-1h-1l1,1h-1v2h-3l-1,1h-5l-1,1l-2,1h-1v1h-1v1v-3h-1v-1v1l1,1v1l-1,1v1h-1v1h2v5l-1,1v2h-1v1h-1v2h-1v-1h-1v-1h-2l-2,-2v-1l1,-1h1v-1h1h-1l-1,1h-1v3l2,2v1l2,2v1l1,1v1v-1h-1v2l-1,1l-1,3v1h-1v2l-1,1v-4l1,-1v-1h-1v-2h-1h1l-1,-1h-2v-1h-1l1,-1h1l-1,-1h-1v-1h1h-1v-1h1v-1l-1,1v-2l1,-1h1h-1h1v-1h-1v1h-1v1l-1,-1v2l-1,-1v1h1v1h-1l1,1h-1h1v3h1v1h-1v-1h-1v-1v1l3,3h-1v-1h-2l-1,-1v1l-1,-1v-1h-1v1h-1v-1l1,-1v-1l-1,1v2h2l1,1l2,1l1,1h1v2h-1l-2,-2h-1v-1l-1,-1l-1,1h2v1l1,1h1l2,2h1v1h-1v1h-1l-2,-2v1h1l1,1h1v1h1v1h-1l-1,-1v-1l-1,1l-2,-1h-1h1l1,1h1l1,1h1v1h1l1,-1v1h2v2l2,3l2,2v1h-1l-1,-2l-1,-1l-1,-3v2l1,1v1v-1h-2v1v-1h-1l1,1h-2l-1,1v-1h-1v-1v2h5v2h1v-2h1v2l-2,2v1l-1,-1h-2v-1v1h-2l-1,-1v1l3,1h1l-1,1v1h-2l-1,-1l1,1v1h1l2,-1l1,1v1h-2v1h-4v1l-1,-1v1l-1,1v1h-1l-1,1v1v-1v1l-1,1h-4l-1,2h-1l-1,2v1h-1v-1v2l-1,1h-1v1l-1,1h-1v1h-1l-1,1h-3v1h1v1h-1v-1h-1v1l-1,-1l1,1v1l-1,1v1h-1v1h-1v3l-1,1h1l-1,1h-1l1,1h-1v3h1l1,3v1l2,6l5,7v4l1,1l-1,-2l-1,-1v-1v1l-1,-1v-1h1l-1,-1v-1v3l1,1v1l4,8l1,1v1l1,1v8h-1v1l-1,1v2l-1,1l-2,1h-3v-1h1v-1h-1l-1,-2l-1,-1v-1h-2l-2,-2v-3h-1l1,-1v-1v1h-1v1l-1,-1v-3h-1v1h-1v-1l-1,-1l-1,-2l-1,-1l1,-2h1v-2l-1,1v-1h-1v1h1l-1,1h-1v-4l1,-2v-4l-5,-4l-4,-4l-2,-1h-3v1l-1,1l-2,1l-1,-1v1h-4v-1h1v1v-1l-1,-1l-2,-1h1l-1,-1h1v-1l-1,1h-1l-2,-1h-3l2,-1l1,1v-1h-4v1h-4l1,-1h1l-1,-1v1l-1,-1v1l-1,1h-2v1h-2v-1l-1,-1v-2l-1,1v2h-9l-2,2l-3,-1l-1,-1h-1l-1,1v1h1v1l2,-1h1l1,-1v1h-1v1h1v1h1v-1l1,-1v1h1v1l-1,1h-2v2h1v1h3v1h1v1h-1v1v-1h-1v1h-1l1,-1h-1v-1h-1v-1h-2v-1h-2v3h-1l-1,-1v-1h-1l-2,2l-2,-1h-2v-1h1l-1,-1v-1v1l-2,-1l-1,-1h-1l-1,-1h-1v2h-5l-2,-1l-1,-1h-2l-2,1h-2v-1h1v-1l-1,1v1h-1l-4,2l-1,1v-1l1,-1h-2l1,-1h-2v2l1,1l-1,1h-1l-2,2l-3,2h-1l-1,1l-2,1l1,-1l-1,-1h-1l-1,1v-1h-1l1,2l-1,1h-1v-1v1l-1,1h-2v1h1l-1,1h-1v1l-1,-1v1h-1l1,1v2l-1,1h-1l-1,-1v1l2,1v1h-1v3l1,2v1l1,2h1v1l-1,2v1l-3,5l-2,10v1l-1,3v5l-1,1v1l1,2v1l1,3l1,1h1v2h-1v1v-3l-1,-1l-1,-2v3l1,1v1l1,3l2,2v2l3,4l2,2l1,3v2l2,1v1h1v2h1h-1l1,1h5l2,2h1l1,1l1,2h3l3,-1l1,-1h7l2,-2h6v1l1,1h2l2,-2v-2l-1,1v-1l3,-1v-1h1l2,-2v-3l2,-2v-6l1,-1v-2l4,-2l8,-1l1,-1h2l1,-1h3l2,1h3v-1h3l2,2v4l-3,3l-2,3v3h-1v1l-1,1h2v1l-1,1h-1v1h1v-1l1,1l-2,4v1l-1,2v1h-1v-1h-1v-3h-1v1l-1,1v2h1l1,1v1l-1,2v1l-1,1l1,1l-1,1v6l-1,2l-4,4v1h1l1,1h1v-2l3,2v1l1,-1h1v-1h3l1,1l1,-1h1l3,1h4l2,-1h1l1,-1h1l3,1h2l1,-1h1l3,1l1,1v-1h1h1l4,4l-2,-1h-1v1h2l1,1h2l-1,-1l3,1v2h1v1l-1,1v-1h-1v1h1l1,4v2h-1l-1,1v2l-1,4l1,3v5h-1v-2h-1v2h1v3h-1v1h-1v1h1l1,1l-1,1v1h-1v3l1,1v1h1v1h1l1,3l3,3v1l3,3h1l2,2v1l1,1l1,-1v1h-1v1h1l1,1h2v-1l-1,-1h1v1h1l1,2h4l4,-2l1,-1l5,-2h1l1,-1v-1h6v1h4l6,3l1,2l3,1v1h-1v1h1v2l1,1v2l-1,1v1l-1,1h-1v-1h-1v2h-1v2h-1l-4,-6v-1h1v-2l1,-1h1v1h1l1,1h1l-1,-1h-2v-2h-1v1h-1v-1h-1v1l-1,-2l-1,-1h-1v-1h-1l-1,-1h-4l-1,1h-1v1l-1,1h1l-4,3h-2v3h1v1l3,3h-1v1h-2v1h-1l-2,1h-1l-1,-1v-1l-1,-3v-1h-1v1l-1,1h-1l-3,-3v-1h-1l-1,-1h-2l-1,-1l-1,1h-1l-1,-1h-1l-1,1v1h-1v-1l-1,-1v-1l-2,-2h-1v1l1,1v1l-1,-1h-1l-1,-1v-1l1,-1v-1l-3,-3l-2,-1l-1,-1h-3l-1,-1v-1h1l-1,-1l-3,-2l-1,-1h-1v1l1,1h2v1h1l-2,2h-1l-1,-1l-3,-1v-1l-1,-1l-1,-2v-1l2,-2v-1h-1l-1,-1l1,-1v-1l-2,-2l-4,-3l-2,-2l-1,-2v-1l-3,-1v-1l-3,-2l-2,-2l1,-1l2,2v-2l-1,-1v-1h-2l-1,-1v2h-5l-1,-1h-1v1h1l-6,-2l-2,-1h-3l-2,-2l-3,-1h-6l-6,-3l-3,-3l-3,-2l-2,-3l-1,-1h-1l-8,-8h-2l-1,-1v1h2l1,1v1l-4,-2h-1v-1h-1v-1h-1l-1,1h1l1,1h-3l-3,2h-3l-3,2h-5l-3,-2h-5l-3,-3l-3,-1l-2,-2h-2l-3,-1h-3l-2,-2l-2,-1h-2l-3,-2h-1l-1,-1l-2,-1l-5,-5l-2,1l-2,-1h-1l-3,-2l-3,-1l-1,-1l-1,-2l-2,-1l-3,-3h-2l-3,-3v-1l-2,-1l-1,-2v-1l-1,-2v-1l1,-1h1l1,-1v-1h-1l-1,-1h1l2,-2v-3l-1,-1v-1l-1,-1l-1,-2l1,-2l-1,-3l-2,-2l-1,-2l-1,-1l-1,-2l-1,-1l-2,-3l-5,-5l2,1v-1h-2l-2,-2v-1l-1,-1v-1h1l-2,-1v-1l-2,-1v-1h-2l1,-1v-1v1h-3l-1,-1l1,-2v-1l1,-1h1l-1,-1v-1l-1,-2h-2l-1,-1v-2l-2,-1h-1v-1l-1,-1v-2l1,-1v-1h-3l-2,-2l-1,-2l-1,-1v-1h-1v-2h-1l-1,-2v-2h-1v-1h1l-1,-1v-1l-1,-2v-3l-1,-2v-4h1v-1l-1,-1h-2l-1,-1l1,-1h-1l-1,-1l-1,1h-1l-2,-2h-1v-1h-1v2l-1,3v6l-1,2l1,2v1l2,1v1l2,2l1,2v2h1v1h1v3h1v1l1,1l-1,1l1,1h-1v1l3,3v2l1,1v1l1,1v2l1,1v-1h-1v-2h1l1,1v4l1,1l-1,2l1,1v2h1v1l1,3v1l1,1v1h-1v3l2,2h1v-2l2,2v1l1,1v1h1v1l1,1v3h-1l-3,3h-1v-1l-1,-3v-2l-9,-9h-1v-1l-2,-1v-2l2,-4l-1,-1v-2l-1,-3h-1l-3,-3v-3l-1,1h-1l-2,1v-2l-1,-1h-1l-1,-1h-1l-1,-1v-2l-2,-2h-1v-1h2l1,1l1,-1h1v1h1v1h1l-1,-1v-1h1h-1v-1l1,-2l1,-1v-2l-1,-1l-3,-5l-1,-1h-1v-1l-2,-1l-1,-1v-2l1,-2l-1,-1v-3l-1,-2v-2l-1,-1v-4l-1,-1v-6l-1,1v-2h1v-2l-1,-1l-1,-2l-2,-2h-2l1,-1l-1,-1v-1h-3l-1,-1v-1h-1l-1,-1h-1l-1,-1h-3l-1,-1h1v-2l1,-1v-1l-1,-1v-2l-1,-1h-1v-4l-1,-1v-2l2,-2l-3,-3l1,-1v-3l1,-1v3h1v-4h3l-1,-1l-1,1v-1h-2v2h-1v-1h-1v-1l-1,1v-1h1v-1v1v-3h-1v-2l-1,-1v-2l1,-2v-1l1,-1v-1l-1,-2v-3l2,-2v1v-1l1,-1l1,-2l1,-1v-2l1,-1h-1l1,-1v-3l1,-2v-2h1v-1l2,-2h1v-1l1,-1l3,-5l1,-1v-1l1,-1l2,-4h1v-1l2,-4h3l-1,-1h-2l1,-1v-1v1h1v-3h1v-1h-1v1v-1l1,-1v-1l1,-2v-1l-1,-1l1,-1v-1l1,-1l1,1h1v1l3,1h1v-1l1,1h1v1l-1,1h-1h1l-2,1l-2,2h1l1,-1h-1l1,-1h1l1,-1h1v-1v1h-1v2h-1v1h-1v1v-1h-1v1h-1h2l1,-1h1l1,-1v-2h1v-1h1v-1h-1v-1h1v-2h1v-3h-1v-2h1h-1v-1h1v-1h1h-1v1h-3v-2l1,1h-1h1v-1l1,-1v-1h1l-1,-1v1h-1v1h-1v1h-2v-5h1l1,-1v-1h1h-1v1h-1l-1,1h-2v-1h1h-1v1h-1v-1l-1,1v-1h-1h1l1,-1h-2l1,-1h-1l1,-1l-1,1h-2l-1,-1v-1h-1l2,-2l2,-1h2h-3l-1,1v-2h1v-1h1h-1l2,-2h3v2h1v-1h-1l1,-1h-1v-1h1l2,-2h-1v1h-1l-3,2h-1l-3,3v-3h2v-1h1v-1h1h-1l-1,1h-1h1l2,-2v-1h1h-1l-1,1v-1l1,-1v-1l-1,-1v-1l1,-1h1l-1,1l1,1h2v1v-1h-2v-2h2v-1h-2v1h-2v1h-1v1h-1l-1,1v-3h-1v-1h1l2,-2h1h-1v-2h1v-1h1l1,-1h1l2,-2h1l1,-1v-1l-1,1v1h-1l-1,1v-1h1v-1h1v-2h1Z"/>
<path class="sl" d="M600,928h-1l-3,1h-1l-3,3v1l-1,1h-1l-1,1l-2,-1h-2v-2h3v1h-1h1v-1l2,-1h2v-1h-1l-3,1h-1l-1,1h-2v1h-1l-1,-1h1v-1l1,-1h2l2,-1l1,1l1,-1h1h-7v1h-1v1h-1v1l-1,-1h-2l2,-1h1v-1h1h-1v1l-1,-1l-1,1h-2v-2h-1v-1h1v1h2l1,-1v1l1,-1v1l1,-1h2l1,-1v2h-1h1v-2h1v-1h-1l-1,-1h-1h1l1,1h1v1h-2l-2,1h-2v-1h-2v-1h1l1,-1l-1,-1h-4v-2h2v-1l1,-1l1,1v1h1l1,1v-1h2v-1h-1h1h-1l-1,1h-1v-1h-1v-1h-1l1,-1h3v-1h-2v-1h1l1,-1l1,1v-1h-1v-1h1v-1h1h-1v1h-1v1h-1v-2l1,-1v-1l1,-1h1h-2l-1,-1l1,-1h4l1,1h1v-1h-1v-2l-2,2h-2v-1h-1v-1h2v-1h-1l1,-1h1v-1h1v-1h-1l-1,-1v1h-2l-1,-1l1,-1l-1,1h-3v1h1v1h-1l-1,-1v-1h1l1,-1h1l2,-1l1,-1h-1v-1h4v-1h2v-1h1v-1h1v1l-1,2h-1v1l-2,1h1l1,-1h1v-1l1,-1v2l-2,2h1l1,-1v-1l1,-1v-1h-1v-1h2l1,-1h2l-1,-1h-1v-1h1l4,-2l1,-1h-1l-1,-1h-1v-2h1l1,-2v-1l1,-1ZM599,874h-1v-1h1h-1l-1,-1v-3h1l1,-3l1,-1v9ZM600,661v-1l-1,-2l-3,-3v-2l-4,-7v-1l-2,-4v-2l-2,-2v-1l-1,-2v-1l-2,-4l-3,-3l-2,-3v-1l-1,-2l-1,-1l-1,-2l-1,-1l-8,-4h-1v-2l1,-1v1h1v-3l-2,-3v-1h1l-2,-2v-4l4,-4v-1l2,-1l2,-2h1l2,-2h1v-1l1,-3l1,-1v-1l-1,-1v-3l-1,1v3l-1,1v-2l-2,2v1l-1,-1h-1l-2,-2h-1l-1,-1v-1h1l1,-1v-2l-1,-1v-6l2,-1h1v-3l1,1h1l-2,-2l2,-2v-1l2,-2v-6h1l1,-1h2l1,-1h2l3,-1v-3l-1,-1v-1l2,-1l2,1v-2l-1,-1v-2l1,-1h2v-1h3v-1l2,-2v-1l2,-2v-1h1v-1l1,-1l1,-3h-1v-1l-1,1l-1,-1v-2h-1l1,-1h1v-8l-2,-2l2,-2v-2l-1,-2l-1,-1h1v-3h-1l-1,-2v-1l-2,-2v-2h1v-2h1v1h1l1,-1v-1l1,-1v-2l-1,-1v-2h-1v-1h1v-1v1l4,4v2h1v-5h-1v-1h1l4,-4l1,-2l2,-2l1,1l1,-1v-6h1v-1l-1,1h-1h1l1,-1v-3l2,-1v-1h1l2,-2h5l-1,1h-1v1h1l1,-1v-3h1l1,-1l1,1h5l4,-4l3,-1l2,-2v-2h2v-1l1,-1h2l2,1l1,1v1l-1,2l-1,1l-4,1v2l1,2l2,1l-1,1v1l1,1v2l-1,2l-1,1h-1l-1,3l1,2h1v1l1,1v1l2,2l2,-1l2,-2v-4l-1,-2l-2,-2l-1,-2v-4l10,-4v-1h1v-1l2,1l1,-1l-1,-1h-1l-2,1v-1l-1,-2v-1h1v-1h2l1,1v2l1,1v1l1,1h1l2,-1l1,1h2l4,2v1l1,1v3l1,1h2l3,-1h3l1,-1h7l3,3h1l2,1h5l7,-4h1h-4v-1h6l2,-1h2l2,-1l3,1l3,-1v1h-2l-1,1h-5l1,1h1v1l1,1l-1,1h1v-1h1l1,2v2h1v-1h1v-1h1l1,1v1h1v1v-2h1v-1l3,3h2l1,1v1l-1,1v2h-1v2l-1,1l-2,1h1l1,1l1,-1h1l1,-1h7l1,2h2l1,1l2,1l4,4h1l1,1v8l-1,1h1v-3l1,-1h2l1,1l2,1l3,3h1v1l1,2l-1,3h1v-4h6l3,1v1v-2l2,-1h11v4l1,-2v-1h1l3,2h4l1,2l2,2h1v2l1,-1l1,1v1l1,1l-1,1h1v-2h1v3h1v2v-2l1,-1l2,2l1,4v3l1,2l1,3v2l1,1v2h1v1l1,1h2v1h1l1,2v3h-1v1h-1l-2,4l-1,1l-1,2l-1,1h-1l-1,2h-1v1l-1,2v1l-2,2v3l-1,1v1l-1,1h-1l-3,1l-1,1h5l3,-2v-1l2,-1l3,-3v4l1,1v3h1l1,1h1l1,-1h4l2,-2l-2,4v3l-1,1h1v-1l1,-1l1,-4l1,-1h1l2,-3h1v1v-1l1,-1h-1v-1l1,-1h-1l1,-1v-1l2,-2h1v-1h2l1,1v-2h1l1,1h2v1h1v1h3v1h1l2,1h2v3h1v-2h1l2,2v1l1,-1v4h-1v1l1,1v-2h1v1l-1,1v3l-1,3v1l1,-1l1,-2v-2l1,-1v-1h1v1l-1,1v1l3,-3h2v-1h3l1,1h1l2,1h3l1,1h2v-1h2l3,-1h3l1,1v1h1l1,1l2,1v1l1,1h2v2h1l2,4l1,1l2,1v2h2l1,1l1,-1h5v1l1,3v5l1,1v9l-1,1h-301Z"/>
<path class="sp" d="M600,882v46M600,865v9M901,600h-301v61"/>
<path class="sl" d="M997,445v6l1,2v9l-1,-1v-2l-1,-1l1,2h-2v1l1,-1l-1,1v1v-1v2l-1,1v4h-1v3l-1,-1l-2,-3v-1l-1,-3l-2,-4v-1h-1v-2l-1,-1l-1,-2v-1l-2,-2v-3l-1,1v-1l-1,-2v-1l-1,-1v-1h1v-2h-1v1v-3l-1,-1v-3h-1v-2l-1,-1v-2h-1v-1h-1l-1,-3v-1l-1,-1v-1v1v-1h-1v-1v1v-1l-1,-1v-3l-1,-1v-1l1,-1v-1v1h-1v1l-1,1v-2l-1,1v-1l-1,-1v-1v1l-1,-1v-2l-1,-1v-3l-1,-1v-2l1,1v-1h1v-1l1,-1h-1l-1,1v1l-1,-1v-2l-1,-1v-1l-1,-1v-1l-1,-1v-1l-1,-1v-1v1l-1,-1l1,-2v-7l-1,-1l-1,-4v-2l-1,-3v-3l-1,-3v-3l-1,-2l-1,-3l-1,-1l-1,-3v-1l-1,-1v-2l-1,1v-5l-1,-1v-1l-1,-1l-1,-2v-1v1l-1,-1l-1,-2v2l-1,-5h-1l-1,-4v-4l-1,-2v-3l-1,-1v-3l-1,-1v-2l-1,-1v-8l-1,-1l-1,-3l-1,-1v-1l-1,-2v-1l-1,-2v-7l-3,-6v-5l1,-2h-1v-3l-1,-2v-2l-2,-4v-2l-1,-1v-1l-1,-2l-1,-1v-1h-1v-1l-1,-1v-1l-2,-3l-1,-2l-1,-3l-1,-2l-1,-1v-1l-2,-3l-1,-2v-4l-1,-2v-1l-8,-14v-1l-1,-1h1v1l4,4v-2h1v1v-1h1l-1,-1v-1h-1v-1l-1,-1v-1l-1,-1v-1v1v-1l-1,-1v-1l-1,-1v-1l-1,-1v-1l-2,-2v-1l-1,-1v-1l1,1l-1,-1v-1l-1,-1h-1h1l1,1v1l2,2v1l3,3v1l3,3v1l2,2v1l3,3v1l1,1v1l3,3v1l2,2v1l1,1v1l3,3v1l1,1v1l1,1v1l3,3v1l1,1v1l1,1v1l1,1v1l3,3v1l1,1v1l1,1v1l1,1v1l1,1v1l2,2v1l1,1v1l1,1v1l1,1v1l1,1v1l1,1v1l1,1v1l2,2v1l1,1v1l1,1v1l1,1v2l1,1v1l1,1v1l1,1v1l1,1v1l1,1v2l2,2v1l1,1v2l1,1v1l1,1v2l1,1v1l1,1v1l1,1v2l1,1v1l1,1v2l1,1v2l1,1v1l1,1v2l1,1v2l1,1v1l1,1v2l1,1v2l1,1v2l1,1v2l1,1v2l1,1v2l1,1v2l1,1v3l1,1v2l1,1v2l1,1v3l1,1v2l1,1v3l1,1v3l1,1v3l1,1v4l1,1v3l1,1v3l1,1v4l1,1v3l1,1v4l1,1v6l1,1v4l1,1v5l1,1v6l1,1v8l1,1v2Z"/>
<path class="sp" d="M897,197h1l1,1v1l2,2v1l3,3v1l3,3v1l2,2v1l3,3v1l1,1v1l3,3v1l2,2v1l1,1v1l3,3v1l1,1v1l1,1v1l3,3v1l1,1v1l1,1v1l1,1v1l3,3v1l1,1v1l1,1v1l1,1v1l1,1v1l2,2v1l1,1v1l1,1v1l1,1v1l1,1v1l1,1v1l1,1v1l2,2v1l1,1v1l1,1v1l1,1v2l1,1v1l1,1v1l1,1v1l1,1v1l1,1v2l2,2v1l1,1v2l1,1v1l1,1v2l1,1v1l1,1v1l1,1v2l1,1v1l1,1v2l1,1v2l1,1v1l1,1v2l1,1v2l1,1v1l1,1v2l1,1v2l1,1v2l1,1v2l1,1v2l1,1v2l1,1v2l1,1v3l1,1v2l1,1v2l1,1v3l1,1v2l1,1v3l1,1v3l1,1v3l1,1v4l1,1v3l1,1v3l1,1v4l1,1v3l1,1v4l1,1v6l1,1v4l1,1v5l1,1v6l1,1v8l1,1v3"/>
<path class="sl" d="M764,76v-1h-1l-2,-2h-1l-2,-1l-2,-2h-1l-1,-1h-1l-1,-1h-1l-1,-1h-1l-1,-1h1l2,2h1l2,1v1h1h-1v-1v1h1l1,1h1v1h1l3,2h1v1h1v1v-1v1v-1h-2v-1h-1l-1,-1h-1l-1,-1h1h-2v-1h-2v-1h-1l-1,-1l1,1h1v1h2v1l-1,-1l-2,-1l-1,-1h-1h1h-1l-1,-1h1v1l-2,-2h-1l-1,-1h-1h1l1,1l-2,-1v-1h-1l1,1h1l1,1h1v1h1l1,1h1v1v-1h-1l-1,-1h-1l-1,-1h-1l-2,-2h-1h1v1v-1h-1l-1,-1h-2v-1l-1,-1l1,1l-1,-1h-1v-1h-1l1,1h1h-1h1v1h1h-1l-1,-1h-1l-1,-1h-1l-1,-1h1h-1v-1h-1l1,1h-1h1h-1l-1,-1h-1v-1h-1v-1h-1l1,1l-1,-1h-1v-1h-1l-1,-1l1,1l-1,-1h-2v-1l1,1l-1,-1h-1l-1,-1h-1l-1,-1h-1h1h-1v-1v1h1h-1v-1h-1l-1,-1h-1l-1,-1h-1h1l1,1h1l2,1v1v-1h-2v-1h-1l-1,-1h-1l-2,-1h-1l-1,-1h-1v-1h-1h1h-2l-2,-1h1h-1l-1,-1h-1h2v1v-1h-2l-1,-1h-1l-1,-1h-2v-1h-2v-1h-1h1v1l-1,-1h-1l-1,-1h-2v-1h-2l-1,-1h-1l-1,-1v1h1h-1v-1h-2v-1v1v-1h-1h1h-2l-1,-1h-1h1h-2v-1h-1l2,1h1h-2v-1h-3v-1h-1h1h-2l-1,-1h-1l-1,-1h-2l-1,-1h-2l-1,-1h-1h1l1,1l-1,-1h-2l-1,-1h-1h1l1,1h2l1,1h2l1,1h1l1,1h2l1,1h2l1,1h2l1,1h1l1,1h2l1,1h1l1,1h1l1,1h2l1,1h1l1,1h2l1,1h1l1,1h1l1,1h1l1,1h2l1,1h1l1,1h1l1,1h1l1,1h2l2,2h1l1,1h1l1,1h2l1,1h1l2,2h2l2,2h1l1,1h1l1,1h1l1,1h1l1,1h1l2,2h1l1,1h1l1,1h1l1,1h1l1,1h1l2,2h1l1,1h1l2,2h1l2,2h1l1,1ZM335,28h-1h1h-1l-1,1h-2l-1,1h1l1,-1l-1,1h-1l-1,1h-2l-1,1h-2l-1,1h1l1,-1h2l2,-1h1v-1h1l2,-1l-1,1h-1v1h-2v1h-1v1h-2l-2,2h-1l-2,1h-1v1h-1l-1,1h-1h1h-1l-1,1h-1h1l1,-1l-1,1h-1v1h-1l-4,2v1h-2v1h-2l-1,1h-1l-1,1h-1l-1,1h-1h1h-1l-1,1h1v-1h2v-1h2l1,-1h1l-1,1h-1h1l1,-1l-1,1h1v-1v1l-1,1h-1l-2,2h-1v1h-3v1h-2l1,-1l-2,2v-1h-1h1v-1v1h-2l-2,2h-3v1h-1v1h-1v-1v1h-1v-1h2v-1h1h-1l1,-1h1v-1h2l1,-1h1v-1h1h-1v-1h2v-1h1l1,-1v1v-1h2l1,-1h-1v1h-1l1,-1h1h-1l-1,1h-1l-1,1h-2v1h-2l-1,1h-2l-1,1h-1v-1h2v-1h1h-1v1h-1l1,-1h-1v1v-1h1l-1,1h-1l-1,1l1,-1l-2,2h-1l-1,1l1,-1l-1,1h-1l-1,1h-1l-2,1l-1,1h-1h1h-1l-1,1h-1v1h-2v1h-2l-1,1h-1l2,-1v-1h1h-1v1h-3v1h-2l-1,1h-1h1h-2v1v-1h1h-1v1h-2v1h-1l-1,1h-1l-1,1h-1l-1,1v-1h2v-1h1l1,-1h1l1,-1h1l1,-1h1l1,-1h1l1,-1h1l1,-1h1l2,-2h1l1,-1h2l2,-2h1l1,-1h2l1,-1h1l2,-2h2l1,-1h1l1,-1h1l1,-1h1l1,-1h2l1,-1h1l1,-1h1l1,-1h2l1,-1h1l1,-1h2l1,-1h1l1,-1h1l1,-1h2l1,-1h1l1,-1h2l1,-1h1l1,-1h1l1,-1h3l1,-1h1l1,-1h2l1,-1Z"/>
<path class="sp" d="M662,27h1l1,1h2l1,1h2l1,1h1l1,1h2l1,1h2l1,1h2l1,1h1l1,1h2l1,1h1l1,1h1l1,1h2l1,1h1l1,1h2l1,1h1l1,1h1l1,1h1l1,1h2l1,1h1l1,1h1l1,1h1l1,1h2l2,2h1l1,1h1l1,1h2l1,1h1l2,2h2l2,2h1l1,1h1l1,1h1l1,1h1l1,1h1l2,2h1l1,1h1l1,1h1l1,1h1l1,1h1l2,2h1l1,1h1l2,2h1l2,2h1l2,2M260,61h1l1,-1h1l1,-1h1l1,-1h1l1,-1h1l2,-2h1l1,-1h2l2,-2h1l1,-1h2l1,-1h1l2,-2h2l1,-1h1l1,-1h1l1,-1h1l1,-1h2l1,-1h1l1,-1h1l1,-1h2l1,-1h1l1,-1h2l1,-1h1l1,-1h1l1,-1h2l1,-1h1l1,-1h2l1,-1h1l1,-1h1l1,-1h3l1,-1h1l1,-1h2l1,-1h1"/>
<path class="sl" d="M732,473l-1,1l1,-1h1ZM708,458v1l-1,1h-1l-1,-1h-1v-1h1l1,1l1,-1v-1ZM697,460h-1ZM731,476v-2h1v2ZM693,396h-1ZM695,396h-1ZM695,401h1h-2ZM21,631h-1h1h-1ZM684,395v1v-1h2l2,2l-2,2h-1l-1,1h-8v-3h-1v-1h1v-1h7ZM689,398h-1h2ZM671,399h-1ZM309,110h-1l2,-2v2ZM307,111v-1h2v1h-1ZM313,100h-1ZM294,85h1ZM292,88h1l1,-1l-1,1ZM286,85h-1ZM279,82h1l1,-1l-1,1ZM230,103v-1h1ZM230,105h-1ZM231,104h-1v1v-1ZM211,108l1,-1ZM191,112v-1h1ZM303,51h1ZM280,59h1h-1v1h-1v1l-1,1h-1v-1h1v-1h1h-1v-1h1l1,-1ZM259,75v1h-1l-1,1h-2v1h-1h1v-2h1l1,-1h1ZM261,94h-1h1v1h-1v1h-1v-1l-1,1h-1v1h-3v1h-1l-1,1h-1l1,-1h1v-1h1h-1l-1,1v-1l2,-2h1l1,-1h1v1h-1v1v-1h1l2,-2v1h1l1,-1ZM223,103l-1,1v1v-1h-2l-1,1h-1l1,-1h1v-1h1l1,-1v1v-1h2ZM302,115l-1,1h-1v-1h1ZM307,118v1h-1v-1v1v-1h1v-1ZM309,112l-1,1h-1h1l-1,-1h1v-1h1l1,-1v2ZM310,116v1h-1l-1,1v-1h-2v1v-1l3,-3h2v2ZM309,107h1v1l-1,1h-1l1,-1h-1v2h-2v-1l1,-1v-1l1,-1v1ZM300,119h1v1h-1v-4h1v2ZM292,84h1h-1v1h-1v-1ZM285,87v-1h2v-1h1l1,-1h1v1h-2l-1,1h-2ZM289,84h-1v1h-1l2,-2v1v-1ZM291,82v-1ZM256,97h-1v1h-1h1v-1ZM266,91v-1h1ZM260,94v-1h1h-1ZM242,103l1,-1ZM248,100l1,-1v1ZM249,100h1v-1v1ZM230,103v-1v1h-1v-1h1ZM224,104h1v-1v1ZM221,106h-1ZM230,104h-1l-1,1v-1h2l1,-1h-1ZM214,106v-1h1v1ZM215,106l1,-1v1ZM252,86l1,-1h1ZM255,71l-1,1h1h-1l1,-1h1ZM232,88h1ZM202,110h-1ZM199,111h1v-1v1ZM196,112v-1h1h-1ZM229,91h-1h1h-1ZM191,112v-1h1ZM193,111h-1h1v-1ZM190,112v-1h1l1,-1v1h-1ZM192,108v-1ZM188,111l1,-1h1v-1l-1,1ZM197,102h1v-1v1ZM306,105h-1v1l-1,1v1l-1,1h-1v1h-1v1v-2h1v-2l2,-2h-1l-1,1h-1h1v-1h1v-1h1l1,-1l1,1ZM311,100l1,1v2h-1v1v-2h1v-1l-1,1v1l-2,2h-1l-1,1h-1v-1l2,-1v-1h1l1,-2v-1h1v-1ZM308,100l-1,1l1,-1h1v1l-1,1h-1l1,1h-1v1h-1v-1h-1l-1,1h-1v-1l1,-1v-1l1,-1h1v-1v1h1l1,-1ZM305,111h1v5h-1v-1l-1,1h1v1h-1h1l-1,1v1h-1v1h-1v-2h-1l1,-1v-1h1v-1h-1v-1h1h-1v-1h1v1l2,-2h-1l-1,1v-1h1v-1ZM306,108h1h-1v1h-1v1h-1v1h-1v1h-1v-1v1v-1l1,-1h1v-2h1l1,-1ZM265,91v1l1,-1v1h-1v1v-1h-1v1h-1l1,-1l-1,1h-1l-1,-1h2l1,-1v1v-1ZM207,109h-2v1h-1l-2,1l1,-1h1l1,-1h1v-1h2v-1v1h-1ZM212,106v1l1,-1v1h-2v1h-1l-1,1h-1v-1h2v-1v1v-1h1v-1h2ZM194,112v-1v1v-1ZM193,111h2v-1h1h-1v1h-1Z"/>
<path class="sl" d="M192,111h-1v1h-1l1,-1h1v-1ZM190,111v1v-1h1v-1h1h-1v1ZM192,108l-1,1ZM192,107h1v-1h1h-1v1ZM202,98v1l-1,1v-1l-1,1l1,-1h1ZM66,361h-1v-1l1,-3v-3h1v-1l1,-1v-2l1,1l1,2v4l-2,2h-1l-1,1ZM67,341h1v1l-1,1v-1h-1h1ZM68,344h1v3h-1v-4ZM66,339v1h-1v-1v1v-3l1,-1v2ZM63,333l-1,1v-2l1,-1h1v1h-1ZM60,333v1v-1h1v-1v1ZM67,345h-1v-1h1ZM607,218h-1h2v-1h1v1l-1,1h-2l-1,1h-2l-1,1v-1l-2,1h-3v-1h1l1,-1h2v-1l1,1v-1h4l1,-1h1ZM627,193h-1v1h-1v-1l1,-1v1ZM597,222h-1v-1h1ZM618,215h-1v-1h1ZM614,214h-1v-1ZM622,215h-1v-1ZM593,257l-1,-1h1ZM594,261l-1,1v-1h1v-3l1,1v2ZM593,262h-1ZM588,266l1,-1ZM554,332h-1ZM553,331v1v-1l-1,-1ZM567,343l-1,1v-1h1v-1l1,-1ZM478,308l-1,-1h-1h2ZM438,320h-1h1v-1h1v-1v1h-1ZM440,318h-1h1l2,-1v-1h1l-1,1h-1ZM435,325l-1,1l1,-1v-2l2,-2l-1,2ZM453,310l2,-1v1ZM435,335v-2l-1,-4v-3v3l1,4ZM284,265h-1l1,-1ZM293,275v-1l-1,-1h1v1ZM285,266l-1,-1h2ZM287,265h2ZM295,271h-1v-1h1ZM316,160h-1v1v-1ZM314,161v-1ZM315,164v1v-3h1v1h-1ZM613,214v-1ZM598,228v-1ZM593,241h-1l1,-1v-1l1,-1v1l-1,1ZM588,266h-1ZM560,347l-1,-1ZM564,346v-1ZM562,347h-1l1,-1h1ZM556,296v2l-1,-1v-1ZM558,348v-1ZM567,325l1,1l-2,-4l-1,-1l1,1ZM556,348h1ZM500,306v1ZM503,302h-1ZM506,302h-1ZM498,303v1l-1,-1l1,-1ZM501,305l-1,1l1,-2l-1,-1l1,1ZM530,307h-1h1l1,-1h1ZM310,170v-1ZM313,169v-1ZM313,167l1,-1v1ZM315,162h-1l1,-1ZM624,194v1ZM977,585v-1ZM707,396l-1,1v-1h2ZM562,392h1h-2l1,-1ZM573,388v1v-1l-1,1v-1ZM574,388v1v-1h1ZM673,281h-1h1v-1ZM697,395h-1v-1h1ZM695,395h1ZM697,392v1v-1h-1ZM638,369h-2ZM636,369l-1,-1h1ZM632,369h1ZM716,408v1h-1v-1ZM826,126v1v-1v1ZM824,125h1ZM791,101l1,1v-1h-1l-1,-1h1ZM810,113v1l1,1l-1,-1h-1l1,1h-1v-1h-1l1,1l-1,-1h-1l-1,-1v-1h-1v-1l-1,-1h-1v-1h-1v-1h-1l-1,-1v1h1h-1v-1h-1v-1h-1v-1l-1,-1l1,1v-1h-1l-2,-2h-1v-1h-1l-1,-1h-1l-2,-2l-2,-1v-1h-1l1,1v1v-1v1h-1h1v1v-1h-1l-3,-3h-1v-1h-1l-1,-1h-1v-1h-1l-1,-1l1,1v1h1h-1v-1h-1l-1,-1h1v1h1v1h1l3,2v1v-1l-2,-1l-1,-1l-2,-1l-1,-1h-1v-1h-1l-2,-2v1l2,1h-1v-1h-1l-3,-3h-2v-1h-1v-1h-2v-1l-1,-1h-1v-1h-1h1h-2v-1h-1h1v-1l-1,-1h1v1h1v1h1l2,2h1v1h1l1,1v-1h-1h1v-1v1h2v1h1v1h1l2,1l3,3h1l1,1h-1l1,1h1h-1h3l2,2l2,1l1,1l2,1h1l1,1h1l2,2h1l1,1h1l1,1h-1l2,1h1l1,1v1h1l1,1l-1,-1h1l1,1h1l1,1v1h1l2,2h1v1l1,1h1v1h2v1h1v1h1v1h1v2h-1v-1l1,1v1h1v1h-1v-1v1l3,3h-1v-1h-1h1v1l1,1v1h-1v-1l-1,-1v-1h-1v-1l-1,-1h-1l-2,-2v-1l-1,-1v-1h-1v-1h-1Z"/>
<path class="sl" d="M797,105h1v1h1h-1ZM755,75v1ZM746,69h-1l-1,-1h1v1ZM746,69h1h-1l1,1h1v1h2l1,1h-1l-1,-1h-1v-1v1v-1h-1h1h-1l-1,-1h-1ZM744,68h1ZM758,78v-1h-1ZM759,78h-1v-1v1ZM757,77h1h-2v-1ZM756,76h-1v-1h-1h1v1ZM773,90h-1ZM782,95l-1,-1h-1h1ZM775,91l-1,-1h-1h1ZM778,93l1,1h1v1v-1h-2v-1v1ZM779,94v-1h-2v-1h1ZM760,81l2,2h1v1h1v1v-1h-2v-1h-1v-1v1v-1h-1v-1h-1ZM766,85l1,1h2v1h1v1l-1,-1h-1v-1h-2v-1h-1ZM765,85l1,1h-1ZM769,88h-1v-1h-1ZM770,89h-1v-1v1ZM791,102v1l-1,-1h-1l-1,-1v1h1l1,1h-1l-1,-1h-1v-1h-1v-1h-1v-1h-1v-1h-1h1h-1v-1h1l1,1h1v1h2v1h1h-1l1,1h1v1h1v1ZM817,117v1h-1v-1ZM731,456l2,-2v1ZM730,465h-1l-3,1h-3l2,-1v-1h1l1,-2l-2,-2h1l1,-1h3v5ZM35,683v1v-1l-1,-1h1ZM28,664v-1ZM35,684l1,1h-1ZM890,189v1ZM884,181l2,2v1h1h-1v-1h-1h1h-1v-1l-2,-2v-1v1h1ZM883,179v1v-1l-1,-1ZM889,188l-1,-1v-1v1ZM920,280v2l1,1h-1v-1l-1,-1v-3l1,1ZM923,273v1v-1l-1,-1h1l-1,-1h1ZM925,280v1v-2l-1,-1v-2l-1,-1h1v1l1,1v2ZM923,281v1l1,1v1h-1v-1l-1,-1v-1ZM919,283v1v-1h-1v-1h1ZM918,286l1,1h-1v-2ZM916,280h-1l-1,-2h1v1ZM982,450l-1,-1v-1h1v1ZM17,622v1l1,1v1h-1v-2ZM19,628v-1h-1v-1h1v1ZM727,439h-1v-2h1v1ZM726,440h1ZM728,433v1l-1,-1v-2h1ZM712,405v1ZM711,404h-1v-1h1ZM555,3h1h-2Z"/>
<path class="sp" d="M555,3v0"/>
<path class="sl" d="M553,3h-1h2Z"/>
<path class="sp" d="M552,3h2"/>
<path class="sl" d="M336,30h2l1,-1h3l-5,1ZM342,29l-1,1h-2v1h-2v-1h2l2,-1ZM394,11h1ZM550,3h1h-1v-1ZM539,2v-1h-1Z"/>
<path class="sp" d="M538,1l1,1"/>
<path class="sl" d="M329,30h3v-1h1l-1,1h-2ZM899,246v1v-1l2,2h-2v-1ZM859,223h-1v-1ZM827,210h-1v-1ZM844,212h-1v-1h1ZM842,213h-1l-1,-1l1,1ZM840,214h-1v-1v1ZM842,214v1h-2v-1ZM853,217l1,-1v2l-1,-1h-1v-1ZM586,487h-1v-1h1v-1v1ZM563,496l-1,-1h-1v-1l1,-1v2h1ZM585,487l-1,1v-1ZM741,64v-1h-1h1ZM747,67h1h-1l-1,-1ZM703,43h-1ZM720,52l-1,-1h1ZM723,53h-1ZM681,34h1v1h1h-1h1h-1v-1ZM684,36h1l-1,-1h-1h1ZM674,32h3v1v-1v1v-1h-2l-1,-1ZM660,26l1,1ZM661,27l-1,-1h-1h1Z"/>
<path class="sp" d="M659,26h1l1,1"/>
<path class="sl" d="M662,27h1l1,1h2l1,1h-1v-1h-2l-1,-1h-2ZM700,42h-1ZM699,42l-1,-1h1ZM709,46h-1ZM667,29h1h-1h1h-1h2v1h2l1,1v-1h-3v-1h-1ZM677,32h-2l-1,-1l1,1h2v1h2l2,1h-1l-1,-1h-1l-1,-1h-3v-1h-2l-1,-1l1,1h2l1,1h1ZM662,35h-1v-1h-1l-1,-1h1v1h1ZM628,17h-1ZM589,8h-1ZM573,6h1l-2,-1ZM593,9h1l1,1l-1,-1h1v1h5l1,1h1h-1h1h-2l-1,-1h-5ZM580,7h-1h1h-3v-1l1,1h6v1h1h-1h1h-5v-1h-1ZM584,8h1l1,1h2h-1h6v1h5v1h5v1h4l1,1h2h-4l-1,-1h-3v-1h-1h1v1h1h-2l-1,-1h-3v-1h-1h1h-1v1h1h-1v-1h-1l1,1l-1,-1l1,1h1h-4v-1h-1h1v1l-1,-1h-5v-1v1h1l-1,-1h-1h2l1,1h-1h1l-1,-1h-1h2l1,1h1l-2,-1h-5v-1h-1ZM597,11h2v1h1h-2l-1,-1h-1ZM580,8h1ZM585,7h-1h1v1h1h-1ZM9,581v-1ZM11,589v-1ZM33,671v1v-2ZM60,698h-1ZM812,110v1h1h-1h1h-1v-1v1ZM798,99l1,1h-1ZM797,99v-1ZM800,101l-1,-1ZM809,108l1,1h-1ZM673,451l-1,1v-2h-1v-1l2,1ZM709,402h-1ZM659,448v1l-1,-1v-1ZM668,451v1l-2,-1l-1,-1v-1h1v1ZM516,384l-1,-1l1,-1h2l-1,1ZM359,370v1l-1,-1ZM323,393h-2l1,-1v1ZM333,341v1h-1v-2h1ZM320,307v-1l-2,-2v-2l2,2h-1l2,1l-1,1ZM305,314h-1v-1l1,-1v1ZM327,308l-1,1h-1v-3h2v1ZM286,306h-1v-2h1v1ZM518,376v1v-1h-1ZM477,398h-1l2,-1ZM337,348v-2ZM315,285h-1v-1h1ZM330,332v1v-1l-1,2ZM324,345l-1,1l-2,-2h2ZM321,344v-2h-1l1,-1v-3h1l-1,3v2ZM949,350v-2ZM6,547v-1ZM44,560v-1ZM35,506l1,1h-1l-1,-2h1v1v-1ZM30,486v1v-1v1ZM5,531v1h-1v-1ZM596,399h3l1,1l3,1l1,2h1h-1l-1,1h-1l-1,-1h-2v1h-1v-1l-1,1v1l-1,-1h-4l-2,-2v-1h-3v-1l1,-1h2v-1h1l3,1h1ZM789,106v-1h-1h1ZM783,98h1v1h1v1h1v1h1v1h1l1,1h1l-1,-1h-1v-1l1,1h1l1,1v-1v1h1v1h1l1,1h1v1h1v1h1l1,1h1v1h1v1h1l2,2h1v1h-1h1h-1h1v2h1v1l-1,-1v1h1l1,1v2l-1,-1v-1v1h-1v-1l-1,-1l1,1h-1l-1,-1v-1h-2v-1v1h1v-1h-2v-2l-1,-1v1h1h-1v1v-1l-1,-1h-1v-1h-1v-1h-2v-1h-2v-1h-1v-1h-1v-1h-1l-1,-1h-1h1v-1l1,1v-1h-1h1h-1v-1h-1v-1h-2v-1l-2,-2v-1v1h1l1,1l-1,-1h-1v-1h-1h2ZM693,53v-1l1,1h2v1h3v1v-1h1v1v-1v1h2v1h2v1h1l2,2h1v2h1v1h1v1h-1v1h2v1h-1h1h-5v-1h-1l1,1h-1l-1,-1h-1v1h-2l-1,-1h1v-1h-1v-1h-1v1v-1h-1v-1h-1l1,1h-2v-1h-2v1h-1l-1,-1h1v-1h1l-1,-1v1h-1v-2h-3v1h-1l-1,-1h-1h1h-1v-1h-1h1h-1v-1h-1h1l1,1v-1l1,1l-1,-1h-2v-1h-1h3l1,1h2l1,1h1v1v-1v1h1l1,1h1h-1v-1h-1v-1h-1h1h-1v-1h-1l-1,-1l1,1h2l-1,-1h-1v-1h1l1,1h1l1,1v-1h-1l-2,-1h1v-1v1h1l-1,-1l-2,-1h2Z"/>
<path class="sl" d="M521,418h-1l1,-1h1ZM525,417v-1h1v1ZM639,387v3l1,1v1h-1v1l1,1v1l-1,1h-1v1l1,1h1v3l-2,-2l-5,1h-9v1h-2l-1,-1l-2,-1h-1v-1l2,-2h1l1,1h3l7,1v-1h3v-1l-1,-1l-2,-1l-1,-2v-2l1,-1h-2l-1,-1h-3v-2h1l1,-1h4l1,1h2l2,1h1ZM631,395h-2l-2,-1v-1h1l1,1h1ZM631,384h1v1l-1,-1h-1ZM969,422h-1v-1h1ZM969,422v-1ZM969,421h1h-1v-1h1ZM969,418v-1ZM969,419h-1v-2ZM968,415v1h-1v-1ZM723,449v-2h1v2ZM786,90h-1l-1,-1h1v1v-1v1ZM786,90h1ZM848,145v1v-1h-1v-1v1ZM728,427v1l-1,-1h-1v-1h-1v-2h1l1,1v1ZM722,412l-1,1v-3l2,2ZM721,414l-1,1l-1,-1v-2h2l-1,1ZM723,415v-1v1h1ZM684,173v-1l-1,-1h1v1ZM14,617v-1ZM708,397h-1ZM75,669v-1ZM83,677v1ZM76,671h-1v-1ZM86,679v1h1v1l-1,-1v-1h-1l-1,-1l1,-1v1ZM122,622h1v1h-2v-1ZM122,624l-1,-1h1ZM125,629l-1,-1h1ZM115,614h-1v-1h1ZM116,618v1l-1,-1ZM125,687l1,1h-1v-2h1ZM118,615v-1ZM127,692v-1ZM126,690l-1,-1ZM151,696v1v-1h-1ZM147,694h-1ZM144,713v-1ZM113,672v-1ZM110,675v1v-1h-1ZM109,675h-1ZM101,668h-1v-1ZM99,671h1h-1v-1l-1,-1l1,1ZM576,585h-1v-2h1l1,-1l1,1l-1,1h-1ZM587,548h-1l1,-1ZM488,567h-1l-1,-1v-1l2,-1l1,1v1h-1ZM496,568h-2v-1h1v-1h2v1h-1ZM478,564h-2v-2h2v1ZM487,572h-1v-1h1ZM479,560h1v2l2,2v1l1,1v2l-2,1h-3l-1,-1v-1h1l2,-2h1l-1,-1v-1h-2v-3h-1v-1h2ZM485,563h-2v-1l1,-1l1,1h1ZM640,401v-3h-1l-1,-1v-1h1l1,-1v-1l-1,-1v-1h1v-1l-1,-1v-5h7l1,1h3l1,1h1v-1h1v1l1,1v1l1,1l3,-1l1,1h-3v1h3l1,1h2l1,1l3,1v3h-1v1h-2v-1h-9l-2,2h-3v-1h-2l-1,1h-1v1l-1,2v2h-1l-1,-1h-1v-2ZM724,421h-1l-1,-1v-2h1l1,2ZM548,10h4v1h-1h2v-1h2l1,1h5v1h-2v1h1l1,-1h3l1,1v-1h-1h4l1,1h2l1,1h1h-1v-1h-2l-2,-1h1v-1h-1h6v1h3v1h2l1,1h1h-2l1,1h4l1,1h3l1,1h1l1,1h2l1,1h2l1,1h1h-1v-1h3v1h1h-1h3v1h1v-1h-1h1l1,1h1h-1v1h1h-1v1h7l1,1h3l1,1h2l1,1h-1v-1h-1l1,1h-1l1,1h1l-1,-1h1l1,1h1l-1,-1h-1h2l2,1h1l1,1h1h-1h1v1h-2l-1,-1h-1h1v1h6l1,1h1v2l-1,-1h-3v2l-1,-1h-2l1,1h3v-1h-1h7l4,2l1,1h1h-3l-1,-1h-3l-2,-1h-1h1l-1,1h1h-1h1v-1h1l2,1v1h6v1h3l1,1h1l1,1v-1h1l1,1l2,1h1l1,1h1h-2l-2,-1h1l2,1v1h-1l-1,-1h-2l-1,-1h-2l-1,-1h-2v1h1v1h-1v1h2v1h4v1h1h-1v-1h6l1,-1h1v1l1,1h-1h1v1h1v1l2,2v1l-1,1v1h-2l1,1h-1h1h-4l1,1h1v2h1v1h1v1l2,2h1h-1h1v2h-2v-1v1h1l1,1v1l-1,-1v1h1h-1v2l-1,-1h-1v-1h-1v-2h-3l1,1h1l1,1h-1l1,1h1v1h-3v1h2v1h1l-1,1h-1l1,1v-1l1,1h1l1,1h1v1h-1h1h-3l2,1h2l1,1h1v1l1,1h-1h1v1h1v1h-3v-1l1,1h2v2h-1h2v1h1v1h1v1h1l1,1h-1v1h2l1,1l1,2l2,2l-1,1l-1,-1h-1v1h3v1h1l1,1v1h-1v-1h-1l1,1h-2l-1,-1v-1h-1v1h1l-1,1v-1h-3v-1h-1h1v-2l-1,1v1l-1,-1h-2l-2,-2v-1h-1v1l-2,2l-1,-1v1h-1h1h-2v-1h-2v-1h-3v-1h-2v-1h-1l-1,-1v-1h1h-2v1l-1,-1v-1h-4v-1h-1v-2h-1v1l-1,-1h-1l-1,-1h-1l-1,-1l-2,-1h-1v-1h-1l1,-1h2v-1l-1,1v-1l-1,1h-2v-1h-1v-1h1l1,-1l1,1h1h-1v-1h-3v-1h-1l-1,-1l2,2h1l-1,1l-1,-1v1h1v2h-1v-1h-1v-1h-1l-2,-2h-1l-1,-1v-2h1h-1v1l-1,1l-1,-1h-1l-2,-2h-1l1,-1v-1h1h-1v-1h1v-1l-1,1v2h-1v1h-1l-2,-2v-1h2v-1h-3v1l-1,-1h-2v-1h-1l1,-1v-1h5v-1h-1v1h-4v1h-1v-1h-1v-1l-1,-1h5v-1h-1v1h-5v-2h1l2,1h1v-1h1v-1h-1v1l-2,-2h1h-1l-1,-1v-1h-1h1v-1h-1l-1,-1v1h-4l-2,-1h-5l-1,-1h-1l1,-1h4v1h3v-1h-1l-1,-1h-1h1h-4l-1,-1h-1h1l1,-1h-2l-1,1l-2,-2h-2l-1,-1h1v1h2v2h1l-1,1h-1v-1h-3v-1h-1v-1h-1l-1,-1h1h-1h1v-1h-1v-1h-3v-1h-1l-1,-1v1v-1h-2v-1h-2v-1h-2v1v-1l-1,-1h1h-2l-1,-1h-3l-1,-1h-1v-1h-3l-1,-1h-8v-1h-1v1h-6v1h-3l-1,-1h-2l1,-1h1h-4v-1l-1,1h-1v-1h-1h1l1,-1h6v-1h-5v1h-2v-1h-5v-1h-2v-1h3v-1h2v-1h4v-1h-1v-1h-1h1v-1h-1v1h-3v-1h-1v-1h1v-1h3v-1h-1l-1,-1h5v1h1l-2,-1h-3l1,-1h5l2,1l-1,-1h1l-1,-1h-1h6l3,1h1h-1l-1,-1h-2l-1,-1h-3v-1h3v-1h-1h2v-1h1Z"/>
<path class="sl" d="M601,50l1,1h3v1l-1,1h-3v-1h-4l-1,-1h1l-1,-1h-1v-1h4v1ZM607,51v1l-1,-1h-1v-1h2l-1,1ZM594,46v1l-1,-1h-1h1ZM582,41h-1h1v-1ZM533,28h-1ZM548,14h-5l-1,-1h2l1,1h2ZM646,40h2v1h1h-2l-1,1h-1v-1h-1l-1,-1h2v-1ZM567,12h-1l-1,-1h-1h2ZM584,15h-2v-1l1,1ZM598,19h-1l-1,-1h-1h2ZM614,23l-5,-1h-1h3ZM619,25h3l1,1h-2l-1,-1ZM601,19h-1ZM663,64l-1,-1h-1h2ZM665,88l1,1h-2v-1ZM599,47h-1v-1ZM734,66v1v-1h-1ZM737,68h-1l-1,-1h1v1ZM731,65h1v1ZM731,65h1h-1h1l1,1l-1,-1h-2v-1ZM731,64v1v-1h-1ZM780,86l-1,-1h-1v-1h-1l1,1h1Z"/>
<path class="sp" d="M777,84l1,1h1l1,1"/>
<path class="sl" d="M785,89h-1l-2,-2h-1l-1,-1l-2,-1v-1h-2l-3,-3v1v-1v1h1l-2,-2h-1h1h-1l-2,-1h1l2,2v-1h-2l-1,-1v-1h-1l-2,-1l-1,-1h-1l-1,-1h1v1h1l1,1h1v1h2l1,1l2,1v1v-1v1h1l1,1l2,1l1,1h1v1h1l1,1h1v1h1l1,1h1v1ZM778,85h2v1h1v1h1l1,1v-1h-1l-1,-1h-1v-1h-1ZM784,89h1h-1v-1h-1l-1,-1h-1h1ZM784,89v-1h-1h1ZM784,89l-1,-1h1ZM777,84l-1,-1h1ZM766,77h1ZM557,360h9l1,1h4l1,1h1l3,3h1v1h5l6,3l1,1h2v1l1,-1h-1h1l1,1h1l1,1h-2l1,1l1,-1l2,1v1h2v1h3l2,1h3v2h-1v1h7l2,1v1l1,1h3l1,1h-1v1h-3l-2,1h-1v1h-1v-1l-1,1h-4l-3,-1h-1l-2,1h-6l-2,1h-2l1,-2l3,-2h1v-2h-1v-1h-7v-1l-2,-1l-1,-1h-1v-2l-1,-1v-1l-1,-1h-1l-3,1l-1,-1l-4,-1h-2l-1,-1h-1v-1l-1,-1v1h-5v-1l-1,-1v1h-5l-2,-2h1l1,-1h1v-1h-9l-2,1v1h-1l-1,1v1h-5v2h-2l-2,1v-1h-2l1,-1h2l-1,-2l1,-1l1,-2h1l6,-3h5l1,-1h1l2,-1ZM590,369h-1l-1,-1h3v1ZM587,366v1v-1h-1l-1,-1h1ZM582,364h3v1h-3ZM589,368h-1l-1,-1l1,-1v1h1ZM551,373l-2,1h-2v-1h-1h2l-1,-2l1,-1h2v1h1ZM577,363v1l-2,-1v-1h-1h1l1,1ZM594,537h-1v-1ZM345,777h-1v-1h1ZM573,824h-1ZM600,938h-1l-2,1h-1l-1,-1h-3l-1,1l-1,-1h-5v-1h7v-1h-1v-1l1,-1h1v1h-1v1h1v1h2v-1h1l1,1h2l-1,-1l-3,-1v-1h1l2,-1h2v-1h-5v-1h2v-1h-1l1,-1l1,1h1v-1h1Z"/>
<path class="sp" d="M600,929v9"/>
<path class="sl" d="M595,883h-4v-1l3,-3v-2l1,-1v-1h1v-1h-1h1l1,1h2v2h-1v1h-1l-1,1h1v1l1,1h-1l-1,1h-1ZM581,914v1l-1,1h1l-1,1v1h-1l-1,-1h1l-1,-1h1v-1h-1v2h-3v-1h1v-1l1,-1h1h-1l1,-1h1v-1h1v-1h1v1h1ZM576,912v-1l1,-1v-2h1v1l1,1v1h-1l-1,1ZM576,931h2v1h2l1,1h-2v-1h-3l-2,-2h1v1ZM582,911h-3v-3h2v-1h1l-1,1h1v2ZM582,933v1h3v1h-2v1h-2l1,-1h-2v1l-1,-1v-1h-2l1,-1h3ZM576,925l-1,1h1v1l-1,1h-1v-2h1v-1ZM599,939v1h1v1h-3v-1h1h-3v1h1h-2v-1h-1v-1h7Z"/>
<path class="sp" d="M600,940v0M600,940v1M600,939v0"/>
<path class="sl" d="M588,935l1,1h1l-1,1h-1v-1h-2v1h-1v-1h-1l1,-1h2ZM593,889h-1v4l-1,1h-1v-1l-1,-1v-1h-1v-1h1v-1h2v-1h1v-1h1v1h1ZM597,891h-2v-1l1,-1v-1h2l1,1l-1,1ZM585,892h-1v-1h1ZM575,921h-1v-1h1ZM578,912l-2,2h-1l1,-1h-1l1,-1h3ZM580,907h-1h1v-1h1v1ZM589,885h-1v-1h1ZM593,891v-1h1v1ZM577,924h-2l-1,1h-1h1v-1h2l1,-1ZM576,919l-1,1v-1h-1h1v-1h3v1h-1ZM594,886h-1l1,-1ZM579,927h-1v-1h-1h2ZM588,896h-2v-1h1v-1l1,-1h1v1l-1,1h1ZM588,939h3v1h-3v-1h-1ZM929,381h-1v-1l1,-1v1ZM939,396h-1v-2h1v1ZM930,382h-1v-1h1ZM939,385l1,1l-1,1v-1ZM937,398h-1v-1ZM934,382v1h-1v1l-1,-1v-1h1ZM938,381v1l-1,-1v-1ZM940,394v-1h-1h1ZM297,123v1l1,-1l1,1h-1v1l-2,1h-1h2l2,-2h1l-2,2v1l-4,2h-1v-1h1v-3l2,-2ZM296,129v1l-1,1h-1v1h1h-1v2h1h-1v1h-1v-5h1l-1,-1h2ZM304,146l1,1l2,1h2l1,1v6h1l1,1v1h1l-1,1v2h1v1l-1,1v-1v1h-3v-1h-1l-2,-2h-1v-1h2l1,-1v-1v1h-4l-1,-1h1v-1h-1l1,-1h-3l1,-1h1v-2h-2v-1h-1v-1h-1v-1l1,-1h2v-1h-1v1h-2v-2h1l1,-1l1,1ZM465,24v1h-5l1,-1h3ZM462,26h1h-2v1h1h-1l-1,1h-4v-2h5ZM451,27v1h-2v1h-2l-1,1h-3l1,-1h1h-3v1h-2v1v-1h-1l-1,1h1h-2v-1l-1,1h-1l-1,-1l-1,1v-1h1h-1h1l1,-1h4l1,-1h3l1,-1h6ZM460,32h1l-1,1h1v-1h1v1h1h-1l1,-1h2v1l-2,2h-2l-1,1h-1v-1h-5l-1,1h-5l-2,1h-1l-1,-1h-1v-1h8l1,-1h-5l1,-1h-2v1h-1l-2,1v-1h-1l-1,1v-1h-2v-1h6v-1h-2l-1,1l-1,-1h3l-1,-1h3v-1h4v1h2l1,1h-1h1v1h1l3,1v-1h1l-2,-1h2v-1h-1l1,-1h3v1ZM435,43h1v-1h3v-1h2v1h2v1h-1l-1,1h1l1,-1v1h-1h1l1,-1h2v-1h2v1h1v2l-1,1v1h1l2,-1v-3l1,-1v-1h4l1,1h1v2l-1,2l1,1v1h-1v1h-1l1,1v1h2v1v-1h1v1h2v1l1,-1v1h1v2h-1v-1h-1v1h-1v-1h-2v1h-2v1l-1,1h1v-1h3v1l-1,1h-9v-1h-3v-2h-1v1h-2l-1,1h-4v1h-14l-1,-1h1v-1l1,-1h-6l-1,-1v-1h-1v-1h1v-1h11l2,1l1,-1h1l-2,-1h-8v-1h-4v-1l2,-1h5v-1h-4l1,-1h-2v-1h1l1,-1h1l1,-1h1l2,-1h3l3,-1h4l-2,2h-1ZM430,37l1,-1v1h1l1,-1h1l1,1h1v1l1,1h-1v1h-5l-1,1h-1l-4,1l-2,1h-3l-2,2h-1l-1,1h-2v-1l-2,1h-2v1h-1v-2l1,-1h-1l-1,-1h-1h1v-1h2v-1h2l1,-1h2v-1h1l1,-1h2l2,-2v-1h8v1h2ZM520,14h3l-1,1h2v-1h3v1h4v1h-1v1h-2l-2,1h1l2,-1h1v1h-1v1h-1v1h-1l-1,1h-1h2v1h-3v1h-1l1,1h-1h1v1h-2l1,1h1l-1,1h-3v2h-5l-1,-1v1h1h-1h5v1h3v1h-2v1h-4v-1h-7l1,1h-4l-1,-1v1h-2v-1v1h-2v-1v1l-1,-1h-1v-1h2v-1h1v-2h3v1h1l2,1h2v-1h1v-1l-1,1h-3l-1,-1h1l1,-1h-1v-1v1h-1v1h-1v-1h-1v1h-1l-1,-1h1h-1h1v-1h2l1,-1h1l1,1h3v-1h1h-4l-1,-1h-1v-1h-2l-1,-1h6v1h3l1,1v-1h1h-3l-1,-1h-1l2,-1h2l2,-1h1h-2l1,-1h-1v1h-1l-1,1h-8v-1h2h-2l-1,1h-3v-1h5v-1l-1,1h-4l-1,-1h-1h1h-2v-1h7l-1,-1h4v1h1l-1,-1h2l1,1h1l-2,-1h-1v-1h1h-1h5l-1,-1h4v1h1h-1v-1h3Z"/>
<path class="sl" d="M488,27v1h-1ZM490,36v1h-6v-1h-1v-1h2v-1h3l1,1h1ZM473,39l2,1h5v1h-1l-1,1h-2v1h3v1h1v1h-1h1v1h-1v1h-2v1h-1l-1,-1h-1h1h-1v2h-2l-1,-1v-1l-1,-1h-1v-1h-3v-1h-1v-2h2v1h5l-1,-1h1v-1h-1l-1,1l-1,-1l1,-1l1,1v-1h2ZM515,74l1,-1l1,1h1v1h2l1,1h2l2,1h1l1,1v2h3v-1l1,1h1v1h1h-1v1h-1v1l-1,-1h-3l-1,-1h-1v-1h-3v-1h-1v1h-1v1l-1,1h-1l-2,2h-3l-1,-2h-5v-1h1l1,-1h1v-2h-1l1,-1v-4l1,-1v-1h1v1h2v1h-1h1ZM482,31v2h-1v1h1v1h-1v-1l-1,1v1v-1v1h-6v-1h1h-1v-1h2h-6l1,-1h2v-1h1h-1v-1h2v1l1,1h1v-1h1h-1l-1,-1h5ZM477,23l1,1h-1h2l1,1l1,-1v1h1h-1v1h1v1h-3v-1h-7v-1h4l-1,-1h-1h1h-2v-1h3ZM496,19h1v1h3v1h1h-1h3v2l1,-1v1h2v1h-3v1h-1v-1h-1v1h1v1h-1v-1h-1v1h1h-2l-1,-1v1h1v1v-1h-2v1h-1v-1h-3l1,-1h-2l-1,-1h3v-1h1h-5l1,-1h-3v-1h2v-1h1v-1h2v-1h2ZM489,30h2v1h4v1h1h-1h1v1h3v1h-1h1l1,1v-1h3v1v-1h2v1h2l-1,-1h4l1,-1l1,1l2,-1h1l1,1h4v1h1l-1,1h-1h1h-1h1v1h-2l-1,1h-3v-1h-1l-1,-1v1h1h-1l-1,1h-2v-1v1h-1v-1v1h-7v-1h-2v1h-2v-1h-4v-2h-1h1v-2h-1v-1h-6v-1h-1h1h-2v-1h1h-1h4ZM487,25h2v2h-4l1,-1h-2v-1h2ZM490,39h5l1,1l-2,2h-1h1l-1,1h-1v1h-4v1h-1l-1,1h-3v-6h2v-1h4ZM474,55h1v1h1l1,1h1v1h1v1l1,-1v1h-2l-1,1h-4l-1,-1h-1l-1,-1v1h-1v-1h-2v-1h4v-1h1v-1h1v-1h1ZM662,180h1v2l1,-1v1l2,-2h-2l1,-1h-1l1,-1h3v1l1,1h-1v1l-1,1h-3l-1,1h-1l-1,-1l-1,-2v-2l1,-3v-1l1,-1h1l1,1v5h-1ZM631,187h-2v-1h-1v-2h-2v-1h-1v-3h-1v-2l-1,-1v-2l-2,-2h-3l-1,1h-2v-1h-1v-1v1h-1v1l-1,1v2l-1,1v6l-2,2h1v1h-1v1v-1h-1l-1,1h-1v1l-3,1h-16l2,-1l1,-1l2,-1h1v-2l1,-1v-1l1,-1h1l2,-2h1v-1h1l2,-1h2v-1h1l2,-1l2,-2v-1l1,-1l1,-2v-1h1l1,-2l1,-1h1l1,-1h1l1,-1l8,-4h7l4,2h1h-2l1,1h1v2h-1l-1,1v1h-1l-1,1h-1l-2,-1h-1v1l-1,-1l-1,1l-1,-1l-1,1h3l2,1h1l1,1h1v-1h3l1,1l-1,1l1,1l-2,2h3v2h1l1,1v1h1v1h3v1h2l-1,1h1l1,1l1,-1l1,1h4v1h2l2,-2l1,1h2l1,1h1v1h1v1h-1l-1,1h-1l-1,1h-1l-1,1l-2,1h-2v1h-2l1,1h-2l-1,-1v1l-1,-1l-1,1l1,1l-1,1v1h-1v2l-1,1h-1v1h-2l-2,-2l-1,1v-1l-1,-1v-4l-1,1l2,-2h1h-1l4,-3l2,-1v-1v1l1,1h1h-1l2,-2h-5v1l-1,-1l1,-2h1v-1h-1l-1,-1v2l-1,1l-2,1l-2,2h-1l-1,-1v-1v2h-1v1l-1,-1l-1,1h-1v-1ZM671,143v1h-1v1h2v2h-1v1h1v1l-1,1v4h1v1v-1l1,-1v-1h1v1v-1h3v1l-2,1v1l1,-1l1,1l-1,1l1,-1l1,1l1,-1h1v1v-1l1,1v1l1,-1h1v-1h1v1v-1h3l1,1h1v2l-1,1h1v1h1v1l-1,1l1,-1h2v-1h1v-1l1,1v1h-1v3h-1h1v2h2v-2l1,-1v2l1,1v1h1v-2h1v1h1v4h1v2l-1,1v-1h-1v1h-1v-2h-1v-2l-1,1v2h-1v-1h-1v-4l-1,-1h-1v-1h-1v3h-1l-1,2v2h-3v-1l2,-2v-1l1,-1h-3v1h-3l1,-1l-1,-1h-1v1h-1v1h-10v-1v1h-1l-2,1h-1v-1h-1l-1,-1v-1l2,-2v-1h1v-1h-2l-1,1h-1v-1l1,-1v1h1v-3h2v-1h-1l-1,-1v-1h2l-1,-1h-1v-6h1h-1v-1l1,-1h-1v-1h1v-1h-1l2,-2h3l-1,-1h1Z"/>
<path class="sl" d="M507,50h5v-2h-2v-1h-2v-1h3v-1h-2v-1h-1v-1h2l2,1v-1h-3v-1h1l1,-1h2l1,-1h4v1h1v1h2v1h1v1h-1v1h-1h1v1h1h-1l1,1h-1h1v-1h1v-1l1,1l-1,-1h3v1h1l1,1v-1h-1v-1h1h-1v-1h2v-1h2v1h5v1h1l-2,2h1v-1h3v1h-1h1l-1,1h1v1v-2h2l-1,1h1v-1l1,1h1v-1h4l1,1h1v1h-2v1h-1h1v-1h4v2h-2v1h1v-1h1v1v-1l1,-1h6v1h1h-1v1h-2l-1,1h1v-1h3l-1,1h2v-1h1l2,1h1v1h-4l-1,1h1l1,-1l1,1h5v1h-6v1l1,-1h2l1,1v1h-1l-1,-1v1h-1l-1,-1h-1l2,1h3v1h1v-1l1,1h2v1h2v-1l1,1v1l1,-1v1h2l1,1l-1,-1l1,-1v1h3l1,1h1h-1l1,1h-1h4v2h1l1,-1h3l2,1h1v1h-1l-1,-1l-1,1h3v1h-2l1,1h1h-2l1,1v1h-2l-1,-1v1h1v1l2,2h-3l-1,-1v-1v2h-1v-1h-2v-1h-1v-1h-1v-1h1v-1h-1v1h-3l1,-1h-3l-2,-1l-1,-1v1h-1h1v1h-1l-1,-1v1h2l1,1v1h-1l-1,-1h-1l-2,-1v1h2v1h2v1h2v1h1l1,1h1v1h3v1h1v-1h1v1h2l-1,1h2v1h-1h2v1h3v1h1h-1l2,2h-1l-1,-1h-1l-1,-1l1,1v1h1v1h1l1,1h-1l1,1h-2l-1,-1h-2l-1,-1v1h1h-1l-1,-1h-1h1v1h-1v-1h-2v-1h-2l-1,-1h-1h1l1,1h-1l-2,-1h-2l1,1h1l1,1h1l1,1h2l1,1h2v1h2v1h1l1,1h1v1h-4l-1,-1h-6l-1,-1h-2l-1,-1h-3l-1,-1h-3l1,-1l-1,1l-1,-1h-1l-1,-1h-1h1l1,-1h-1l-1,-1h-3l-1,-1h-1l-1,-1h-1v-1h-1v-1l-1,1h-1v-1h-3l1,1h-4v1h-8v-1h-1v-2l2,-1h-1v-1h4l1,1h2l1,1v1l1,-1h-1h1h-1v-1h-1l-1,-1h1l1,1l1,-1h2l1,-1h1v-1h-2l-1,-1v-1h1l1,-1v-1h1v-2h1l1,-1h-1l-2,-1v-1h-1l-2,-2h-2v-1h-3l-1,-1h-1l1,-1h-1v1h-2l-1,1h-1v-1h-1v-1h3l-1,-1h-2l-1,-1h1h-2v-1h-3v-1h-3v-1h-1l-1,-1v1l1,1h1v1h-7l-1,-1l-1,1h3v1l-2,-1h-1l-1,1h-1l-1,-1h-10v-1h-1v-1v1h-1l-1,-1v1h-3l-1,-1h-1l-1,-1v-1h-1h5v-1h-5l-1,-1v-2h1h-1v-1h1v-1h1v-2h1v-1h2l1,-1h7l-1,1h-1l-2,2v1l1,1v2h1l1,1h1l1,1h-2l-1,1ZM649,160h-5l-5,-2h-1v-1h-1l-3,-1h-1l1,-1h3l2,1h3l1,1l4,1l2,1l1,1ZM646,178v-1h3l1,1h1l1,-1h4l-2,2v1h1h-1l-1,1l-1,-1h-1h1l-1,-1v-1v1h-1v1l-2,-1h-1l-1,-1h1h-2l-1,-1h-2v-1l1,-1v-1h1v2h1v1h1h-1h1ZM527,85h1v1h-1v1h-1v1l-2,1h-3v-1h-1v-1h1l1,-2h4ZM538,88h1v2l-1,1v1l-1,-1h-2v-2l1,-1h1ZM542,60l2,1h1v3l-1,1h-4l-2,-2v-1l2,-2h1ZM523,40h3l2,1h2l1,1h1v1h1h-8l-1,1l-2,-2h-2v-2h2ZM543,141h-2l-1,-1h-3l-1,-1l1,-1h3l2,1l1,1ZM549,121h-1v-1h1v-1v1ZM548,120v1l-1,1v-1l-1,1h-1v1l1,-2h-1l-1,1h-1l2,-2v-1v2l1,-1v-2l1,1h1ZM543,120v1v-1h1v-1h1l-1,1ZM498,29h-2v-1h2ZM470,29h-1v-2h1v1Z"/>
<path class="sl" d="M485,21v1h-2v-1h1ZM459,42h-1l-2,-2h6v1h-1l-1,1ZM472,32v1h-4l1,-1h-1h3ZM470,31h1h-2v-1h1ZM439,32h-1l2,-1h1v1ZM455,26v1h-1v-1h2ZM306,122h-1h1v-1h1ZM293,137v-1h1v-1v1ZM306,125h-1v1h-1v-1v1v-1l1,-1h1ZM304,130h-1v-3h1v2ZM308,120h2l1,-1l-1,1h-1l-1,1ZM308,132l-1,2h-1l-2,2v-1l2,-2h-1v-2h1v-1h2v1ZM303,155h-1l1,-1ZM313,154h-1v-1h-1h2ZM302,153h-1v-2h1v1ZM310,150v1v-2h1v-1v2ZM304,134v-2h1v2ZM304,141h-1v-1h1v-1h1v1h-1ZM306,135v-1h1v-1h1l-1,1v1ZM305,131v-1ZM306,130v1v-2h1v1ZM313,159v1v-2ZM675,193v1h-1l-1,-1h1ZM664,183h-1ZM654,172h1h-1l-1,-1l2,-2h1l-2,2ZM638,168l1,1h-1ZM638,193h-1l1,-1ZM634,191h-1v-1h1ZM593,187h-2l2,-2v1ZM592,186h-1v-1h1ZM605,177h-1l1,-1h1h-1ZM674,148v-1ZM683,154l-1,1l-1,-1h1ZM671,140h-1ZM684,153h1v1h-1ZM692,168v-1ZM594,85h2v1h-1ZM588,97h-1v-2h1v1h1ZM573,86h-1l-1,-1h-1l-1,-1h2v1h2l1,1ZM598,91l-1,-1h-2v-1h3v1ZM595,88h1v1h-1ZM587,103v1h-1v-1ZM603,96h-2v-1h-1h2ZM631,118h-1v-1ZM622,110h1v1l-1,-1h-1ZM563,55l-1,-1h1ZM586,64v-1h1ZM521,33h-1v-1h1ZM543,113v1l-1,-1ZM545,118v-1h-1h1ZM547,137v1h-1v-1ZM551,146h-1v-1h1ZM314,159l-1,-1v-1l1,1ZM311,151v-1h1h-1ZM550,62h-4v-1h4ZM543,82l1,1v1h-1l-1,-1h-2v-1h2ZM488,34h-1v-1h1ZM538,102v-1ZM539,101h-1h1v-1ZM480,43h-1v-1h2ZM480,37v1h-1l1,-1h1ZM477,40h-2v-1h4l-1,1ZM496,56v1h-1v-1ZM495,57h-1ZM559,86h-2v-1v1ZM545,60h-2v-1h1ZM544,96h-1h1v-1h1v1ZM532,61h-1l1,-1ZM547,82v1l-1,-1h-2l1,-1ZM528,55h1h-2v1h-1v-1v1v-1h-1h2ZM533,55l-1,1h-1v-1h1ZM543,80h-1ZM520,70h1h-1v-1ZM530,58v-1h1v-1h2v1h-1v1h-1ZM537,57h-2v-1h2ZM506,54h1h-2ZM519,72h1v1l-1,-1h-1h1h-2v-1h-1v-1l1,1h1v1ZM508,63h-1v-1h-1h1v-1h1v1ZM515,73v-1h-2v-1h1l1,1ZM483,91l-1,-1h1ZM475,31h-1h2v-1h1l-1,1ZM475,26h1ZM476,28v-1h-1h2ZM498,31h-1v-1h1ZM484,34l-1,1h-1v-1h3ZM485,38l-1,-1h1ZM434,31h1ZM452,29h-1h2ZM466,35h-1l1,-1h1v1ZM465,58l-1,1h-1v-1h1ZM466,58h-1v-1h1ZM467,52h-1v-1h1ZM480,56v1h-1v-1v1l-1,-1h1v-1ZM463,56h-1h1h-1v-1h1ZM459,59h-1l1,-1h1v1ZM450,60l-1,-1h2v1ZM437,64v-1l1,-1v1h-1h1ZM435,61h1ZM436,65h1l-1,1ZM435,61h-1v-1ZM366,48h1ZM817,548h8v2h-1v4h-1v2h-1v2l-1,1h-1l-1,-1v2h-2v1l-1,1h-4l-1,1h-1v-2l-1,-1v-3h1v-1l-1,1v-7h1l1,-2h1Z"/>
<path class="sl" d="M849,568v1v-3h1v1ZM847,555h-1h1v-1ZM816,544v1l-1,2h-3v-2h1l2,-1ZM812,530l-1,1v-1l-1,-1l1,-1ZM810,548l-2,2h-1v-2h2ZM818,547l-2,1l-1,-1l1,-1h2ZM811,546v1h-1v-2l1,-1v-2h1v3ZM813,543l-1,1v-2h1v-1h1v1ZM801,560v1l1,-3v-3l1,-2h1l1,-1l1,1l-1,3l-1,2l-1,1ZM508,404v1v-3h1v1ZM509,409l-1,1v-1l1,-1ZM739,439h-1v-2l1,1h1ZM589,350l-1,1h1v-1l1,1v3h-2v-2l-2,-2h2ZM591,336l-1,-1l1,-1v-3h-1v-1l-2,-2h-1h2v1h1v1h1l1,1v2h-1ZM628,374l-1,1v1l-2,1h-2v-1l-1,-1h2v-1l1,1h1l1,-1v-1ZM588,346v2l-1,1h-1v1v-1h-1v-1h-2v-1h1v-5l1,1h1v1l1,1ZM581,330h3l1,-1v1h-2l-2,1h-3l-1,-1l1,1h1l1,-1v-1ZM591,343l-1,1l-1,-1h1ZM618,362h-2v-1h1v1ZM614,351v1h-1v-2h1ZM617,366l3,-3h-1v-1h1v1l-1,2h-1ZM596,339l2,2l2,1v3h-1h1v-3h-1l-1,-1h-1l-1,-1h-1v-1ZM605,356h-1l-1,-1h-1v-1l1,1h1v1ZM612,361l-1,-2h-2v-2l-1,-1v-1l1,1v1l3,3ZM607,350h-1v-1l-1,-2h-1l-1,-1h1l1,2ZM626,364h2l1,1h-3l-1,-1ZM628,372h-1v-1Z"/>
<path class="sp" d="M600,938v0"/>
<path class="sl" d="M718,406h-1v-1h2v1ZM718,401h-1v-1ZM495,984v1v-1h-1ZM600,972h-3l-1,1h-2v1h-1l-1,1h-1l1,1l1,-1h2v1h-6v1h-2v-1h-1l-1,1h-2l1,1h-5v1h-1h1h-3v1h-1l-1,1h1h-1h2l-2,1h-1h1h-1h5l2,-1v1h-2l-1,1v1h1h-1v1h-2v1h1h-2v1l1,-1h1v1h-2v1h-1h1h-4l-1,1h1l-1,1h1l-1,1v-1l-1,1h-2l-1,1h-2l-1,1h-7v1h1h-4l-2,1h-6l-4,1h-15l-2,1h5v1h-19l1,1h13l-1,1h-44l-1,-1h-15l-1,-1h-10l-1,-1h-9l-1,-1h-6l-1,-1h-7l-1,-1h-5l-1,-1h-5l-1,-1h-5v-1h-4l-1,-1h-5l-1,-1l3,1h1h-2l-1,-1l1,1v-1h-1h1v1h11l1,1h9l2,1h16l3,1l-1,-1h3v1h2v1h4v-1h-1h4v1h-1h7l1,1h15v-1h1h-4l-1,-1h-1h3l-1,-1h-7l-1,-1h3v1h15v1h2l1,-1l1,1h3l2,-1h2l2,1h2l1,-1h-1h5v1h18v-1h1l1,1v-1h4v1h11l3,-1h10l1,-1h3l2,-1h1l2,-1v-1h1l1,-1v-2h1v-1h5l1,-1h-1h2v-1h2l-1,-1h1l1,-1h1h-2v-1h4l1,-1h3v-1h1l1,-1h4v-1h2l1,-1h1h-1h1v-1h4l2,-1h2l1,-1h3ZM532,999h-1ZM578,994h2l3,-1h2l1,-1h5l2,-1h1l4,-1h1h-2l-1,1h-3l-1,1h-5l-1,1h-5l-1,1h-1Z"/>
<path class="sp" d="M530,999h-7l-1,1h-44l-1,-1h-15l-1,-1h-10l-1,-1h-9l-1,-1h-6l-1,-1h-7l-1,-1h-5l-1,-1h-5l-1,-1h-4M399,990h-1l-1,-1M600,971v1M532,999h-1M579,994h-1M600,990h-3l-1,1h-3l-1,1h-5l-1,1h-5l-1,1h-1"/>
<path class="sl" d="M567,995h1h-1l-1,1h-5l-10,1l-6,1h4v-1h9v-1l-1,1l1,-1h5l2,-1h7v-1v1h-4ZM541,998h-3l-1,1h-4l4,-1h5ZM557,984h1v3h-1h1l-1,1h-1l-1,1h-1v1h-3l-3,1h-7l1,-1h6l-1,-1v1h-1l-1,-1l-2,1h-6v-1h7v-1h7l-1,-1h5v-1h-4v-1h1h-1v-1h3l3,-1h1v1ZM475,990v1h1v-1h1v1h1v-1h2v1h-1h1h-10l-4,-1h8ZM427,991h1h-1h1v1h-2l-1,-1h-4v-1h1l1,1h3ZM413,989h1l1,1h5v1h1h-3v-1h-5l-1,-1h-1h1ZM529,999h-2v-1h6l4,-1h1l-1,1h-7ZM594,971l-1,1l1,-1v1h-4l1,-1h2ZM597,971h-1l1,-1h1v1ZM568,980h-1l-1,1h-1v-1h1l1,-1h2v-1h1v1h-1v1h-1h1ZM543,988h1h-4l-4,1h-1v-1h6v-1h1v1v-1h1ZM542,986h1h-1v1h-3v-1h2ZM537,992h-1l-1,1l-3,-1h2l1,-1ZM494,993h-1v-1h1h-1h2ZM533,999v-1h1ZM534,998h-1h2ZM578,984h1v-1h1v1h-1ZM550,985v1h-1l-1,-1h1ZM484,992h-1h1l1,-1l1,1ZM461,992h-2v-1ZM430,992l-1,-1h-1h3ZM418,991h-3v-1v1h2ZM580,985h-1v-1h1ZM586,982h-1ZM578,986h1ZM577,987h-1l1,-1ZM599,970l1,-1ZM592,972l-1,1v-1h2ZM580,976h-1v-1h1ZM577,977h-1v-1h1ZM572,978v1l-1,-1h2ZM570,981h-2l1,-1h1ZM550,987h1ZM537,992h1ZM487,992h1ZM436,992h-1h2ZM408,990h-1ZM411,990h-1ZM401,990h-1ZM397,989h-1ZM405,991h-1ZM399,990l-1,-1h-1h1ZM402,990h1h-2ZM707,397h1v1h-1Z"/>
<path class="sh" d="M496,435h3v1l2,2h2v1h2l1,-1l1,1h2l1,1v3h-1v2h-5l-1,-1h-1v1h1l-6,-2l-2,-1h-3l-2,-2v-1l1,-1h2v-1h1v-1h1h-1v-1h1l1,-1Z"/>
<path class="sw" d="M537,210h1l-1,1v1h4v1h1v-2h1l1,-1h2v-1l1,-1h1l1,-1h3l1,1h1v-1h1v-1h8v-2h-1h1v1l1,1l-1,1v1h-2v1h-1l-1,1l-2,1h-1l-1,1l-5,2h-2l-1,1v1h-5v1v-1h-2v-1h-1v1l-1,-1h-1v-1h-1v-1h1v-2ZM563,205v-1ZM541,214v-1l-1,1ZM459,153v1h-1v-1v1l-1,1h1h-2l-1,-1l1,-1v-2h1v-1h1v-1l-2,1l2,-2h-1v-1l-2,2v-4h-1v1l-1,-1h1h-1l-1,1h-1v-2l-2,-1v-1l-1,-1v-2h1h-2v-1h-1l1,-1v-1h1v-1l1,-1h3l1,1h1l-1,-1h-1v-1l2,-2h1v1h-2v1h-1h1v1v-1h1v3h1v3h1l-1,1l1,1l1,2v3h1v2h1v1l1,1l-1,1v1ZM452,143v-1ZM458,151l-1,-1v1ZM421,84h1v1h-2l-1,-1h-5l-1,1h1v1h-3v1h-1v1h-2l-1,1h-1l-1,1h-5v1h-1v1h-4l-1,1v-1h-1l-1,1h-2l-1,-1h-2v-1h-2v-1h-1h1l1,1h1l1,-1h2v1h1h-1h1v-1h1v-1h1l1,-1h4v-1h-1h1h-1v-1h-1h1v-1h-1v-1h2v1h3v1h1v1h6l1,-1h1l1,-1h1v-1h2l2,-1h2v1h2ZM409,87h1h-1l-1,1h-4v2h1l2,-2h2ZM581,194v1l-2,1l-1,1h2v1h-1v2h1h-1v1h-2v1h-2v1v-1h-2l-1,1h-1v-1h-7l-2,1h-4v-1l1,-1v-1h1l1,-1h2l1,-1h6v-1h1v1h3l1,-1h-2v-1l-1,1v-1v1h-1l1,-1h3l-1,1l1,-1h2l1,-1h1l1,-1ZM576,196h-1v1h1ZM579,196h-2v1h1v-1ZM403,66h1h-1v1h-1v1h-2v1h1h-5v-1h-1v1h-2l1,1h-1l-1,1h-2l-2,1h-1l1,-1l2,-1h2v-1h-3l-1,1h-1v1h-2l-1,1l-1,-1h-2v-1h3v-1h1l1,-1h2l-1,-1h4v-1h-5v1v-1h-5l-1,1v-1h1v-1h8l1,-1h5l2,-1h4v1h-2v1h-3l-1,1h8v-1h1v1ZM538,210h-1h1l1,-1v-1l1,-1v2h2v1h-3ZM757,71h-1v-1ZM755,70h-1v-1h-1h1h-1l-1,-1l1,1h1Z"/>
<path class="sr" d="M756,70l1,1M752,68l1,1h1l1,1"/>
<path class="sw" d="M564,329v1h-2v-1h-1v-2h1v-1h1v1h1v1ZM535,462v2h-2l-1,-1h-2l-1,-1h-1v-1h-1v-1l-1,-1v-4h2l1,1h1v1h1l1,1l1,2l1,1h1ZM661,693h-1v-2h-2v-1h-1v1l-1,-1v-1l1,-1v1h1l-1,-1v-2h1v-1h1v1h1v1h1l1,1v1h1l1,1v1h1l-1,1h1v1h1v1h-2v2h-1v-1h-1l1,-1v-1h1l-1,-1v1h-1ZM446,138h-1v1v-1h-4l-1,-1h-1v-1h-1h3v-2h1h-1v-1h1v-1h1v1h-1h1v1h-1h2l1,-1v1h-1l-1,1h-1v1h1v2l1,-1h2l-1,1ZM352,216l-2,2h-1v-1h-1v-3h-1v-3h2v2h1v1l1,-1h1v1h-1v1ZM351,217v-1h-1v1ZM525,186h-1v1h-1v1h1v1h-2v2l-1,1v1v-1l-1,1v-3h1h-1v1h-1v1h-2v1l-1,1h1v1h-1v2l-1,1v1l1,1l-1,1l1,2v1h1v5l-1,1v1l-1,1v1l-1,1l-2,1h-3v-1l-1,-1v-1l-1,-1v-6h-1h1h-1v-2l1,-1v-1l1,-1h-1v-1h1v-1l1,-1v-3l1,-1h-1v-1l-2,2h-1v1v-1h-1h1v-2h2v-2h1v-1l1,-1v-1h1v-1l1,-1v2l1,-1h1v-1v1l-1,1h1v-1h2v-1h3l1,-1h3l1,1h1ZM521,186h-1v1h1ZM518,190h-1l1,1ZM512,189h1ZM511,189v1h-1v1l-1,1l1,1l1,-1v-2h1v-1ZM527,181l-1,1v-1h-3v-1l1,-1h-2v1h-6l-1,1h-1v1l-1,-1h-4v-1h-1v-1h-2l-1,-1h-1l-1,1v-1h-1v-2l-1,1h-1v1h-2l-1,1h-3l-1,1l-2,1h-1v-1h-1l-1,1v-2h1v-1h-1l-1,1h-3l-2,1h-1v-1l3,-1l1,-2l3,-2h1l1,-1h2l2,-1h1l1,-1h1l1,-1v-2h2v1h1v-1h1v-2h1v1l-1,1h1v-1h2v-1h-1v-1h3l1,1h6v1h1v1l1,1v1h1v1h1l1,1h3l1,-1l1,1h-1v2l1,1h1v3h2v1h-1v1h1l-1,1ZM490,179h-1ZM490,178v1ZM491,178v-1ZM505,166v1v-1h1ZM500,172l2,-1v-1l-1,1l-2,1h-1h1ZM507,175h-4l-1,1v1h1v1v-1h1l1,-1v-1ZM519,173h-1ZM527,181h2v1h1l2,1h10l1,1h1v1l1,-1h2v1h3v1l1,1h1v1h1v1v-1h1v2h1h-1h1v1h1v1h1h-1h1v1h-1v-1h-2v1h1v2l-1,-1h-3v-1h-1l-1,1v-2l-1,1l1,-1v-1h-1v1v-1h-1v-2h-3v1h1v1h1v1h1v3h-1v1h-1v7h-1v1h-1v1h-2l-1,-2v-2l-1,-2l-1,-1h-3v1l-2,2h-1l-1,-1v-1l1,-1h1v-1l1,-1h1v-3l-1,-1v-1h1h-1v-2h-1l-2,-1h-2v-1h-3v-1h-1v-1l1,-1v1h4v-1h-1v-1h-1v-2ZM534,185h-1ZM533,184h-3v1h3ZM531,184v-1h-1v-1h-1v1l1,1v-1ZM529,182h-1v1h1ZM529,182h-1v-1h1h-1v1ZM527,186h-1h2ZM536,186h3l1,1h2l1,-1v1h-1h1v1v-1h1v-2h-1v1v-1h-4v1h-1v-1v1v-1h-3ZM544,188h-1ZM554,192h-1ZM433,341v1l-1,1l-1,3v2l-1,2v1v-2l-1,-1h1l1,-1v-3h-1l1,-1v-1h-1h1v-1h1v-1h1ZM437,108h-1v1h-1l-1,1v1l-1,1v-1h1h-2v-1h1v-1h-1h1v-1h1v-1l1,1v-1h2ZM411,103h-3l-1,1h-2v1h-2v1h-1l1,-1h-1v1h-1v-1h1h-1v-1h1v1v-1h1l2,-1h1v-1h3v-1h1l1,-1h1l1,1h1h-1v1h1l1,-1h2l2,1h3l3,1h-3l-2,-1h-3v1h-5Z"/>
<path class="sw" d="M586,150v1h-1v1h-1v-1h1v-1l-2,2v4h-1v1h-1h1v-1h1v-1l-1,-2v1l-1,1v-1l1,-1v-2h-1h1l2,-2h1v-1h1l-1,1l1,-1h1l-1,1h-1v1h1l1,-1ZM803,103l2,2v-1h-1l-1,-1h-1v-1h-1v-1h-1h1v1v-1v1h1ZM804,103h-1l1,1h1h-1ZM471,162v1h-1v-1l-1,-1l-1,1h-1h1v1h2v1h1h-2l-1,1h-5l1,-1v-1h2l-1,-1h1l1,-1h1h-2l-1,1v-2h1v1v-1h2v-1h1v1h1h-1v1h1v1ZM467,163v1h1v-1ZM505,159h-1v3h-2v-1v1h-1v-1h1h-2v1l-1,-1h1v-1h-1v-1v1h1v-2l1,-1h3v1h1ZM502,158h-1v1l1,1v-1ZM503,161v-1l-1,1ZM441,111h1h-1v1h-1l-2,2h1l-1,1h1l-1,1h-1l-1,1v1h-3v1h-2l1,-1h-1h1l1,-1v-1v2l1,-1h1v-1h1v-1h-1v-2h1v-1h1v-1h1l2,-2v1h1l-1,1ZM583,203h-2v-1l1,1ZM272,84h-3v1h-3v-1h5ZM255,92l-1,1h-1h1v-2h1ZM300,227l-1,1v-1l1,-1ZM504,198v1h-1v1v-1l-1,-1h1v-1h1ZM560,67v-1l-1,-1h2v1h2l1,1h2v1h1v1h-4v-1v1l-1,1h-1h1v-1h-1v-1h-1ZM449,83h2v-1h4l-1,1h-1l-1,1h1v1h-1v1h-2l1,-1h-1v1v-1h-2v-2ZM478,79h2v1h-6l-1,-1h-1v-1l2,1h3ZM596,196l1,2v1v-1h-1v-4h-1v-4h1v-1v6ZM312,273l-1,1v-1l-1,-1v-2l2,2ZM393,81h-2l-1,-1h-1v-1h3v1h1ZM603,871v-1l1,-1h1l1,1h-1l-1,1ZM596,167l-1,-1h-1v-1h3v1h1h-1v1ZM576,207l-1,1v1v-2ZM577,209v-1l-1,-1v-2l1,2v1ZM579,208l-2,-2v-1l1,1v1ZM420,111h1v1l-1,1h-4v1v-2h2l1,-1ZM458,85l1,-1l1,1h-3ZM442,98v-1h1h-1l1,-1h1v3h-1v1v-2h-2ZM489,302h-1v-1ZM572,121h-4v-2h1l1,1h2ZM551,182h1v1l1,-1h3l1,1h-5ZM560,120v-1h1v1h1v1ZM693,800l-1,1h-3l-1,-1l1,-1h1l1,-1l1,1h1ZM566,135v-1h1l1,-1h1l1,1l2,-1v1h-2v1h3l1,-1v1h-6v1h-2v-1h1ZM566,134v1h-2v1h-5v-1h-1l1,-1h2l1,-1h-1v-1l1,1h1v-1h1v2h-2v1h1l2,-1ZM253,92v1h-2v1v-1h1ZM642,397l-1,1l-1,-1v-1l1,1ZM312,53h-1v-1h1ZM391,95l-1,1h-1h1v-1ZM564,137l-1,1v1l-1,-1v-1l1,-1h1v1h-1ZM593,918h-1l-1,1h-4v1h1h-1v-1h-1h2v-1h-1v-1v1h4ZM427,99h-1v1h-1v-2h1v1v-1h1h-1v1ZM520,17h3l1,-1l-1,1h-2ZM497,140h3l-1,1h-2ZM843,136v1h1l1,1l-2,-2h-1ZM786,99l1,1h1h-1ZM370,193h-1v-1l-1,1v-1h2ZM350,41h-1v-1h2v1ZM357,168v-1h1v1l-1,1h-1v-1ZM330,254v-2h-1v-1l-1,1h-1l-1,-1h-1l-1,1l-1,-1h3v-1l1,-1v-1v4h1v-1l1,-1v1h1v2ZM398,105v2h-1v-1h-1h1v-1h-1l1,-1h1v1l1,-1v1ZM627,129v1h1h-2v1h-3v-1h-2v1h-2v1h-1l1,1h1v1h1h-3v-1h1h-1v-2h-1l-1,-1h-1l-2,-1h-1v-1h-1l1,1v1l-2,-2v-2h-1v-1h1v1l3,3h1l1,1l2,1h2l-1,-1h1l-2,-2h-1v-1h1l-1,1h2v1h1v1h1l1,-1l1,1v-1h-1l-1,-1v-1h1v1h1l1,1h1l1,1h1v-1Z"/>
<path class="sw" d="M500,423v1h-1v2h-3v-1h2v-1h1l1,-1h1ZM719,51v-1v1h2v1h1h-1v-1h-1ZM487,152h2l1,-1h2l-1,1h-4v1l-1,-1ZM582,167v1l-2,-2v2h-1v-1v1h-1v-1h-1h1v-1h2v-1h2v1h1v1h2v1h-1l-1,-1ZM578,126l1,-1h3l-1,1h-1v1h-4v-1h1ZM779,508l-1,1h1v1h-1v1h-2v-3h1v-2l1,1h1ZM683,35l-1,-1l1,1l-1,-1Z"/>
<path class="sr" d="M683,35v0"/>
<path class="sw" d="M574,206v1l-1,-1h1v-1ZM579,206l-1,-1ZM580,206v-1h-1ZM262,76l-1,1h-1h1h-1l1,-1ZM359,209h-1v1v-2h1ZM352,222h-1v1v-2h1ZM381,62h1h-1v1h-1v-1ZM468,176v1h-2v-1h2v1ZM492,165v1h-2v-1h1v1ZM578,178v1h-2v-1h1v-1h1ZM609,865h-2l1,-1h1ZM368,93h-1h1l1,-1v1ZM592,916h-3v-1h4v1ZM717,50v-1h-1h1v1h1ZM645,193v1h-1v-1ZM635,182h-1h1v-1ZM306,206l-1,1v-1l1,-1ZM305,221v1v-1l-1,-1v-1h1v1ZM406,57v-1h1v1h-1v1h-1v-1ZM605,160h-1v-1h-1v1v-1v1h-2v-1l-1,1v-1h2v-1h1v-1h-1h1v1h1l1,1h1v1h1h-1v-1h-1ZM672,157h1h-1v3h-1v1h-1l2,-2v-1h-1h1ZM383,61h-1v-1h1v-1h1l-1,1h1h-1ZM384,61h-1l-1,1v-1h1ZM395,72v-1h2v1h-1v1h-1ZM493,135v-1v1h1v-1l1,1h1l-1,1h-1v-1ZM477,151v1h-1v-1h-1v-1h2ZM473,135h-4v-1h5v1ZM595,138h1h-1v1h1v1l-1,-1v1v-1h-1v-1v1h-1v-1h1h-1h1ZM424,126h-2l-1,1h-2v-1h1v-1h4ZM472,183v1h-1v-2h1ZM609,199h1v1l-1,-1v-1ZM559,196h-1v-1l1,-1v-1l1,1v1h-1ZM475,129h1h-1l-1,1h-2v1h-2l1,-1h1v-1h2ZM319,198h-1v-1h2v1ZM678,163v1ZM467,124v1h-1v-1ZM296,55l-1,1v-1ZM267,73h-1h1l1,-1v1ZM259,84h1v-1v1ZM266,81h-1ZM266,79h1v1ZM262,83h-1h1v-1h1ZM477,168h-1h1v-1h-1v1h-1v-1h-1v-1h-1h1v-1h1v2l1,-1v1h2l2,2h-1v-1h-1ZM346,116h-6v5h-1v-1l1,-1v-1h-1v-2h-1v-1l1,1v-1h1v1h7ZM465,121h-1h1v-1h1ZM400,172h-1h1l-1,-1v-1l-1,1h-2v1h-1l-1,-1l-1,1h-2l-1,1v-1h-1h2l1,-1h-1h6l1,-1h1v-1h1v1h-1l1,1ZM423,173h-1v-1h-1l-1,-1l1,-1h-1l-1,-1h-1l-1,1h-1l-1,-1v1h-1v-1h2v1h1l1,-1h3v2h1v-1h1v1h-1v1h1v1h4v1h-3ZM327,94v-1l1,-1l-1,-1v-1l1,-1v4h-1ZM342,158l-1,-1v-1h1v-1h1l-1,1v1ZM347,166h-1l-1,1v-1h1v-1h-1h2ZM327,166h-1v-1l-1,-1l1,1v1ZM427,104h-2v1v-1l2,-1h1ZM304,75v1v-1h1v-1v1ZM465,171h1v1h-3v-1h1ZM464,170h3l-1,1h-2ZM464,87h-1v-1h-1v1v-1h1v-1h2v1l1,1v1l-1,-1h-2ZM567,76v-1h-2v1h-3v-1h-1h2v-1h-1v-1h-1h3v1h2v1h2v1ZM409,307h-2v-1h1v1l1,-1ZM573,176h1v1h-1v-1l-1,-1v1v-1h-1v-2h1v-1v1h-1v1l1,-1v1h1v1ZM388,383v1h-2v-1h-2l1,-1h2ZM524,453v1h-2v-1h-2v-1h1v-1h1l1,1v1ZM759,752l-1,1v1h-1v2h-1h1v1h-1v1h-2l1,-1v-1h1h-1l-1,-1h2v-1h-1h2v-1h-1h1v-1h1h-1l1,-1v-1h1v1l-1,1ZM579,480h-1v1v-1h-1v1h-1v-1v1v-1l2,-2v2ZM997,443v1h-1v-1v1v-1v1h1v-1h-1v-7l-1,-1v1v-6h-1v-5h-1v-1v1h1v5h1v1v-1v1v-3h-1v-1v1h1v6l1,1v7ZM997,443h-1v-1v1Z"/>
<path class="sw" d="M749,808v1h-1v1h-1v1v-1h-1l-2,2h-1v1l-1,1v1h-1v-1l1,-1v-1h1v-1h1l1,-1v-1h1l1,-1h1v-1h1v-1h1v2ZM450,156h-2v1h-1v-1h-1l1,-1l-1,-1v-2l-1,-1h1v-1h-1v-2h-1v-1l-1,1v-1h2v1l1,1v-2h1v4h-1v1h1l1,1h1v1l1,1ZM442,148h-1v-2l-1,1v-4h1v-1h1l-1,-1v-1h-1v1v-2h-1v1h-2v-2h4l1,1h1v1h1h-1v3l-1,1v3ZM610,147v2h-1v1h-1v-1h-1l-1,-1h-1v-2h-1h1v-1v1h1v-1l1,1v-1h1v-1v2h1v-1h1l-1,1h1h-1h1ZM609,147h-1h1v-1h-3v2h1v1h2v-1h1h-1ZM407,117v-1h-1h2v2h1l-1,1v1h-1v1h-1l-1,1v1h-1v-1h1v-1l-1,-1h-1l1,-1l1,1v1h1v-1h1v-1h1h-1v-1ZM605,900h-7l-2,1l-1,1h-1l1,-1h1v-1h3l1,-1h2l1,-1v1h2ZM330,254v-2h-1v-1l-1,1h-1l-1,-1h-1l-1,1l-1,-1h3v-1l1,-1v-1v4h1v-1l1,-1v1h1v2ZM356,239l-1,1v1l-1,1h-1v1h-1l-1,1h1v1h-3l-1,1h-1l-1,-1h3v-1l1,1l1,-1v-1h1v-1h1l2,-2v-1ZM456,113v1h1l-1,1h-1l-2,2h-4v1v-1l1,-1h2v-1v1h1l1,-1v-1h1v-1h1v-1h1v1ZM867,620v1l-2,1v1l-1,1h-1l-1,1h-2l-1,1v1h-1l1,1h-2v1l1,2v2l-1,1v1h-1l1,-1v-4l-1,1v1l-2,2v3h-1v1l-1,-1h-1l1,-1v-1l1,-1v-1h1v-2l1,1v-2h1v-2l-1,-1v-1v1h1v1l2,-2v-2h1v-1h5l1,-1v-2h1v-3l1,1v1ZM854,635h-1h1v-1l-1,1v2l1,-1ZM550,166v-1h2v1h3v1h1v1h-1v-1h-3l-1,-1ZM400,172h-1h1l-1,-1v-1l-1,1h-2v1h-1l-1,-1l-1,1h-2l-1,1v-1h-1h2l1,-1h-1h6l1,-1h1v-1h1v1h-1l1,1ZM430,191h-1v1h-1v2h1v1l-1,-1h-1h1l-1,-1v-1h-1h1v-1l1,1h1v-1l1,-1v-2h-1h1v-1h-1v-1h1v-2l-1,-1l1,-1v-3h-1h1v1h1v1l-1,1v2l1,1v1h-1v1h1v3h-1ZM327,94v-1l1,-1l-1,-1v-1l1,-1v4h-1ZM342,158l-1,-1v-1h1v-1h1l-1,1v1ZM997,443v1h-1v-1v1v-1v1h1v-1h-1v-7l-1,-1v1v-6h-1v-5h-1v-1v1h1v5h1v1v-1v1v-3h-1v-1v1h1v6l1,1v7ZM997,443h-1v-1v1ZM713,48v-1h-2l-1,-1h-1h2v1h1Z"/>
<path class="sr" d="M712,47l1,1"/>
<path class="sw" d="M709,46l-1,-1v1ZM429,79h-3v-1h-1h2v-1h1h-1h1v1h-1h2ZM429,78h2v2h-2v-1h1h-1ZM435,202h1l2,2h1h-2v-1h-1l-2,-2v-2h1v-1v1h-1v1l1,1ZM420,329h1v1l-1,1v-2h-1v-1l-1,-1h1l1,1ZM408,125v-1h-1v-1h1v-1h1v-1h1l-1,1v1l-1,1ZM437,96l-1,1h-1v-1l-1,-1h1v-1v1h-1h1v-1h1v1h-1h3v-1v1h-2v1h1v-1ZM477,75h-1v1h-2v-1h2ZM598,131h1l-1,1v-1v1h-1l-1,-1h-1v-1h-1h2v1h1ZM602,133v2h-1v-1h1v-1h-1h1l-1,-1h-2v-1v1h1v-1v1h1ZM593,129l-1,1v-1v1l1,-1h1v-1l1,1h-1ZM506,252v2l1,1v2h-1v-4l-1,-1l-1,-2v-1h1ZM547,272l1,1v1h1v1l-1,-1l-1,1h-1l1,-1h1l-1,-1h-1v-1ZM349,140h1h-1v1h-1v-1h1l-1,-1v-2l1,1v1ZM555,309v-1l1,1v1ZM323,264v-1v1h1v1h-1ZM292,213v1h1h-2v-1v1h1ZM411,71v-1h1h-1v1h2l1,1v-1l1,1h-1h3v1h-1v1v-1h-1v-1h-3ZM299,201v2l-1,-1h1ZM316,198v-1h1v1ZM626,184h2v1h-1l-1,-1h-1l1,-1ZM815,585h-1v-2l1,-1v-2h1v3h1v3l1,1v1h-1v1l1,2v1h2l-2,1v-1l-1,-1v-1l-1,-2v-1l-1,-1ZM828,701h1h-2v1l-1,1h-1l1,-1h1v-1l-1,1v-1h1v-1h-1h1v-1h-1v1v-2h1v-1l1,-1v1l-1,1v1h1v1v-1v1l-1,1h1v-1ZM785,718v-1h1v-1h2v-2l1,-1v1h1l1,-1h1l-1,1h-1l-2,2h1v1h-2l-1,1h1v1l-1,-1ZM606,867h1ZM621,893v1h1h-2v-1ZM287,49v-1v1h-1h1l1,-1h-1ZM322,83l-1,1l1,-1v-1ZM261,89h-1v-1h1ZM267,74v-1h1v1ZM274,82l1,-1h2h-2l-1,1h-1ZM280,83h1v1h-1ZM273,74v-1h1v1ZM267,74v1h-1h1v-1h1ZM270,71h1ZM279,66l-1,1ZM509,266h3l2,1v1l-3,-2h-1ZM731,57v-1h-1ZM729,56l-1,-1h-1h1l1,1h1l1,1l-1,-1ZM566,149h1h-2ZM486,151v1v-1h-1ZM484,146h-1ZM556,151h-1ZM560,173l-1,1v-1ZM568,173h1v1h1h-1v1h-1v-1ZM430,75v1ZM429,76h-1ZM427,76h-1v-1h1ZM425,76v-1h1v1ZM528,49h1v1h-2v-1ZM453,54h1ZM468,65h1h-1v-1ZM463,126h3v-1v1h-2ZM433,129l1,-1v2h-2ZM415,131l1,-1v-1l1,1h-1v1h-1v1ZM592,135v1v-1h-1v-1ZM643,138l1,1h1v1l-1,-1h-1v-1h-2ZM416,75v-1l1,1ZM531,169h-2l1,-1h1ZM412,121h1v1ZM415,123v-1h1h-1ZM446,86v1h-1v-2h1ZM440,92v-1h1ZM433,107v-1h1v1ZM593,117l1,1v1l2,1l-2,-1v-1h-1v-2ZM500,68l-1,1ZM502,68h1h-2Z"/>
<path class="sb" d="M894,207l-1,-2h-1v-1l-2,-2v-1l-3,-3v-1h-1v-2h-1v-1h-1v-1l-2,-2h-1v-2h-1v-1l-2,-2v-1h-1v-1l-4,-4v-1l-1,-1v-1h-1v-1h-1l-1,-1v-1h-1v2h-1v-1h-1v-1v2M869,164v1v-1h-1M869,163v1v-1v1h-1v-1v1v-1h-1v1h1h-1l-1,-1h-1l-1,-1h-1v-1M824,119h-1h1v1v-1h-1M819,116h1v1h1v1h2v1h1h-2v-1h-1v-1l-1,-1v1h1v1v-1h-1l-1,-1h-1v-1h-1l-1,-1v1v-1h-1v-1h-1M815,112h-1v-1h-1v-1h-1l-1,-1v1v-1v1v-1v1h1M835,129v-1h-1l-1,-1h-1v-1h-1v-1l-2,-2h-1v-1l-2,-1l-1,-1v1h1h-1v-1v1v-1h-1v-1h-1v-1h-1v-1h-1l-1,-1h-1v-1l-1,-1h-1v-1h-1l-2,-2h-1l-3,-3h-1v-1h-1v-1h-1h1h-1v-1h-1l-1,-1h-1v-1h-1v-1h-1l-2,-2h-1l-2,-2M846,139h-1v-1l-1,-1h-1v-1v1h1v1h1v1v-1h-1v-1h-1v-1h-1v-1h-1v-1h-1v-1h-1l-1,-1v-1h-1l-1,-1v-1h-1v-1h-1l-1,-1h1M859,152l-6,-6v-1h-1l-4,-4h-1v-1l-2,-2v1v-1h-1v-1l-2,-2M554,476v1h-1l-1,-1v1h-1v4h2v1l-1,1v3l-1,1v1h1v1M545,465l-1,1h-4v-1l-1,-1h-4l-1,1l-4,-2h-3v1M548,429h-2l-1,1h-1l-1,1h-2l-1,1h-2l-1,1l-1,-1h-1v-1h-1l-1,1v1h-1v1h-1v2h-1l-2,2h-1v1h-1l-1,-1h-2v1l-1,1h-4v3l1,1h-1l-1,1v1l-1,1h-3M506,423l-1,1l-2,1l-3,3h-1l-2,2v1h1v2l-1,1h-1v1M500,422h-3v-6l1,-2v-9M505,400h-2v1l-2,2v1h-3v1h-15v5h-4l1,1h1l5,5v1h1v3h-11v1l-2,2l-2,4l1,2v1l-1,1v1h1l-1,1M436,336h-2v1h-1l-2,-2h-4l-1,-1h-2v-1h-1l-1,-1h-1l-1,-1v-3l-1,-1h-1l1,-1v-1h-1v-1l1,-1h-1v-1l-4,-4v-1l-1,-1v-2l-1,-2l-1,-1v-1l-2,-2v-1h-1l-2,-2v-1h-5l-1,-1h-1v1h-2l-1,1l-1,2v2h-2v1h-3l-1,-2h-1l-1,-1h-1l-1,-1h-1v-1h-1v-2l-1,-1v-4l-3,-3l-2,-1l-1,-2l-4,-4v-1h-13v3h-18l-5,-2l-3,-1l-3,-2l-6,-2l-3,-2l-5,-2v-1l1,-1h-9l-2,1h-5M587,190h-2l-5,5h-1v1l-2,1v1l-1,1v1h-12l-1,1h-1l-1,1h1v2h1v1h1l-2,2h-2l-1,1l-2,1h-1l-3,1h-2l-2,1h-1l-2,1l-1,1l-2,1l-1,1h-2l-3,-3v-2h2l1,-1v-1h1v-3l1,-2v-1l1,-1l-1,-2v-1l-1,-1v-3l-1,-1v-1l-1,-1v-2l-1,-1h-1l-4,-2h-1l1,-1v-1h-4v-3h-4v-1l-3,-3h-2l-1,-1h-1l-1,-1h-1l-1,-1h-2l-1,-1l-2,-1h-2l-2,-2h-2l-1,-1l-1,1h-2l-1,1h-10v-1h-1l-1,1h-3l-2,-2h-3v-1h-2l-1,-1h-2v1h-2l-1,-1h-3l-1,-1v-1h-1v-3h-1l-1,1v2h-6l-2,-1h-39l-2,-1h-26l-2,-1h-18l-2,-1h-16l-2,-1h-13l-2,-1h-12l-2,-1h-3M363,47l-2,1l-2,2l-6,3l-1,1l-6,3l-2,2l-4,2l-1,1l-2,1l-2,2l-6,3l-1,2l-6,3l-3,3l-2,1l-2,2l-2,1l-1,2l-4,2l-3,3v1l1,-1v1h3l-1,1v5h-1v1h-1v1l1,-1h3l2,-2h2v-1h3v2l-1,1h1h-1l1,1h-1v2h1v1h-1v2l-1,1v3h-1v2h-1h1l-1,1v2h1v1h1v1h1l-1,1h1v1"/>
<path class="sb" d="M724,794v1h-1l-1,1v3h-1v2h-1v1l-1,1v1l-1,1v1h-1v1l-1,1v1l-1,1M754,759l-2,6l-2,2v1h-1l-2,2h-1l-2,2v1h-4l-1,1h-1v1v-1h-9l-2,-1l-3,1v-1l2,-2h1v-1l1,-1v-1l1,-1v-1h1v-1l1,-1h1v-1l1,-1v-1h1l1,-1v-1l-1,-2h-1l-1,-1h-3l-1,-1l-3,-1l-2,-2l-2,-1l-1,-1h-3l-2,-1h-1v-1l-2,-2h-1l-1,-1h-1v-1l-2,-4l-1,-1h-1v-1M670,744l2,1l-1,2l-2,3l-1,2v1l-4,2h-2l-2,2h-1v1h-1v3h1v1h-1l-1,1v6l-1,1v1h-1v1l2,2v1l-1,1h-1l-1,1v-1h-1v1h-1v2h-1v1l-2,2v1l-1,1h-1l-2,2v1l-1,1v1l-1,2h-1l-1,1v6h-1h1v1l-1,1h-1v1h-1l-1,1v3h-2v1l-1,1v3l1,1h1l-1,1v5h1v1h-1v2h2v1h-1v1l-1,1v3h-1v1h-1v1l-1,1h-1v2l-2,2v3l-1,1v2h-1l-1,1h-1v1h-2v1l-1,1v2l-1,1v2l-1,1l1,1v5h-2v1h-2v1l-1,1v1l-1,1v1h-1v2l-1,1h-1v1h1h-1v1l-2,2h1l-1,1v3l-1,1v1l1,1h-1v1h-2v2h-1v1l-1,2h2v1l-1,1l1,1l-1,1h1v1h-1v1h-1v1h3l1,1h-1v1h-5v1h2v1h1v1l-1,1h-1l-1,1v2h-1l-1,1h1v2l-1,1h-1v1h-1v1h-1v1l-1,1h-1v1h-1v1h-1l1,1v1l-1,1h-1v1h-1v1h-2v1h-1v1h-2v1h-1v1l-1,1v1l1,1v2h1l1,-1h2v2h-1v2l-1,1h1l1,1h11l1,1h5M740,720v-3l-2,-1l-3,-3h-4l-6,2l-4,1h-1l-3,1h-2l-2,4l-2,2l-2,4v2l-1,2l-1,3l-1,2l-1,1v1l-1,-1v-1h-6l-1,1v-1h-1v1h-1l-1,2l-2,2v2l-1,-1v-2l-1,-2h-8l-2,-2h-1l-1,1v1l-2,1h-1l-1,1v1l-2,1v1l-1,1h-2l-1,1h-2v-1h-1l1,-1v-1l-1,-1v-1h1l-1,-2v-2l-1,-1l1,-1v-1l-1,-2l-1,-1h-1v-1l1,-1v-1h-1l-1,-1l1,-1v-2h1v-2l1,-2v-1h1h-1v-1h-1v-1h-1l-1,-1v-7l-1,-1h-1v-2l-1,-1v-1M662,650l1,2l2,2v2l1,1l2,4l1,1l-1,1v1l-2,2v5l-1,1v3h1v1l-1,1v1h-1v1h-1v1l-1,1v1l-1,1h1l1,2l-1,1l-1,2v1l1,3v1h2l1,1h-1l-1,1v2h-2v1l-3,3h-1l1,1v2l-1,1h-2v1l1,1l-3,3h-3M618,559l-1,1h-2l2,2v1h1v4h-1v-1v1l-1,1v2l-1,2l-1,1l-1,2l-4,4l-2,1l-1,1l-2,1h-2l-2,1l-1,1h-2l-1,1h-1l-1,2h-1v2h-1v-1h-1v4h-1v2l-1,1v1l-1,1h1v1h-1v1h-1l-1,1v1l-1,1h-2l-1,-1v-1l-1,-1v-1h-3l-2,-2l-2,2h-1v-1l1,-1h-1v-2h2v-1h1l-1,-1v-3h-1M662,593h-1v-1h-1v-2h-4l1,-2l1,-3l3,-3v-2h-1v-1h-1l-1,-1h-2v-1l-2,-1h-1v1h-4l-1,-1h-1l-2,2h-2l-1,1l-1,-1h-2l-1,1l-1,-1h-1l-1,-1l1,-1v-1l-1,-1v-1h-2v-3h-1v-1h-1v-1l-1,1v-1h-1l-1,-1h-1l-1,-1v-1l-1,-1v-1l-2,-2h-1v-1h-2v-1h-4l-1,-1h-1l-2,-2h-1l-2,-1h-1v1l-1,1l-1,-1h-1v1l-1,-1h-3l-1,-1l-1,-2h-1l-1,-1h-1l-2,-1h-1l-1,-1l-2,-1v-1h-1l-1,-1h-1M687,545v-4l-1,-1v-1l-1,-1v-3h-1v-1h-1l-3,-3l-1,1v-1h1l2,-3l1,-1h1v-1h-1l-1,-2l-1,-1v-1l-1,-1v-3l-1,-1v-8h1v-1l1,-2v-1l1,-1v-2h-1l-1,-1h-2v1h-2l-2,1h-6l-1,1v-1h-1l-2,-1l-1,-2l-1,-1l-2,-3h-4l-1,-1l-1,1h-8l-1,1l-1,-1l-1,-2l-1,-1h-2v-5h1v-3h-1l-2,-2v-2l-1,-3h-1l-1,-1l-1,1h-2l1,-1v-1l2,-2v-5l1,-3l1,-2v-1l1,-1v-1h1l2,-1l1,-4h1l2,-1h1l1,-1h1"/>
<path class="sb" d="M735,508l-2,-2l-1,-2l-2,-2v-1l1,-1v-1h1l-1,-1v-3h2v-1h2v-1l2,-1v-2h-1v1h-1v-2l-1,-1v-1h1v-2h2v-1l1,-1h1v-2h1v-1l-1,-2M768,534l-1,-1h-1l-1,-1v-2h-1v-2l-1,-1v-1h-1v-4h-3v-1l-2,-2v-1l-1,-1v-3l1,-1v-4l1,-1h3v-2h1h-1v-3h1M781,529h1l1,-1l1,-2v-4l1,-2l1,-1v-1h-1v-1l-1,-1l-1,-2v-1h-1v-7l1,-2v-1h1M742,816h-1v-1l1,-2l4,-4l-1,-1h-1v-3h-1v-1h-1l-1,-1v-1h-1l-2,-2v1l-1,-1v-1l-1,-1h-1l-1,1h-1v-3l-1,-1l-2,-1v-1h-2l-2,2l-1,-1h-1h1l2,-2v-1h1l2,-2l2,-1l8,-8h1v-1l1,-1h2v-1l1,-1h1l2,-2h1v-1h3v-1l1,-1h1l1,-1h1l1,-1v-2l1,-2v-1h1v-2l-1,-1l1,-1v-1h-2v-1l-1,1h-2v-1l2,-2v-1l1,-1l1,-3l1,-2v-1l1,-1h-1v-1h-2l-1,1h-2l-1,1h-1v-5h1h-1l1,-1v-7h-3l-1,-1h-1l-1,1h-7v-1l-1,1h-1v-2h1v-3l1,-1v-1l1,-1v-4h-1v-1h1l-1,-1v-2h2v-1l-1,-1v-2l1,-1l1,-2l1,-1h1v-1h-1l3,-6h1h-1v-2l-1,-2v-1h-1l-1,-2h-2v-3l1,-2l1,-1v-2h-8l-3,1h-2v-7l-2,-2v-1h2l1,-4h-1v-6l-1,-1h-1l-2,-2v1h-6v-1l-2,-2h-3l-1,-1h-1l-1,-1v-1l-1,-1v1h-2v-1h-1l-1,-1h-1l-1,1h-2l-2,-1v-1l-1,-1h-1v-1h-2v-2h-1v-1l-1,-1v-9l1,-1v-5h-1l-1,1h-5l-1,1h-2l-1,1l-3,2l-1,1h-1l-2,2h-1v1h-3l-2,2v1h-2l-1,1h-1v-1h-11l-1,1h-2v-1l-1,1v-10l1,-1v-2h-1v1h-1l-1,1v1h-1l-2,1v1h-7v-1l-1,-1v-2h-1l-2,-1h-5l1,-1l2,-1v-1l-2,-2v-1h-1v-2h-2v-2l-1,-1v-1h-1l1,-1l-1,-1h-1v-1h-1h1v-2h2v-1l-1,-1l1,-1v-1l3,-3h2v-2l-1,-1v-1h1v-1l1,-1l1,-2v-4h1l1,-1h1l4,-4h1l1,-1h4l1,-1h2l2,-2h4v1h3v-3l1,-3v-2l2,-6v-3l1,-3v-3l1,-2v-4h-1v-1h-1v-3h-1l-3,-3v-3l1,-2v-1h2v-1h2v-1l1,1h2v-2l-1,-1v-1h-1v1l-1,-1h-1l-1,1v-1l-1,1v-6h2v-1h1l1,1h4l2,-1h4l-1,-1l1,-1l1,1v1h2l1,-2v-1h3l1,2v1l1,1v4l1,-1l3,2l2,2h2l2,-2h2v2h1v-1h1v-1l3,-3h2l1,-1v-1h2l2,-2v-2h1v-1h2l1,-1h1v-3h-5v-3l-1,-2l-1,-1v-4l-5,-5h2v1h4v1h7l2,2v1h1l1,-1v-3h1v-1h4l4,-2l2,-2h2l1,-1v-1l1,-1h1v-3h-1h3l1,-1h1v1h1v3l-1,1v1h1l1,1h1v2l1,1v1h1l-1,1v1l-1,1h-1l1,1v1l-1,1v3l-1,2l1,1v2h1v4h1v1h1v1h1v1h1v1h1l1,1h1v1h1v-1h2v-2h1v-1h3v-1h3v-1l1,-1v-1h3l1,1l1,-1h6v-2h-1v-1h-1l1,-1v-1h5v-1h2l1,-1v1l1,1v-1l2,2h1l1,1h1l2,-2h4v1h2l2,-2v-1l1,-1v-1l1,-2v-2l2,-2v-1l1,-2v-1l1,-1v-1h1M936,279l-1,-2v-2l-1,-2l-1,-1v-1h-1v-3l-1,-1v-3l-1,-1v-1h1v-1h-1v-5l-1,-1v-1l-1,-1v-3h-1v-2h-1v-2h-1v-1h-1v-3l-1,-1v-3l-1,-1v-2h-1v-1h-1v-1h-1v-2h-1l-1,-1l-1,-2l-1,-1v-1l-2,-2l-1,-2v-1h-1v-1h-1v-1l-2,-2"/>
<path class="sb" d="M942,336h1v-1h2v-1h2l1,-1l-1,-1v-3h-1v-4l-1,-1v-1l-1,-1v-2l-1,-2v-2l-1,-1v-7h-1v-5l-1,-1v-1l-1,-2v-1l-1,-1v-4h-1v-4h-1v-1l-1,-1h1v-1h2v-5h-1v-1l-1,-1l1,1l1,2M944,341v-1l-1,-2v-1l1,-1h2v-1h3v-1h1l1,-1h1l-1,-1v-1l-1,-1v-2l-1,-1v-1l-1,-1v-2l-1,-1v-1l-1,-1v-3l1,-1v-1l-1,-1v-1l-1,-1v-1l-1,-1v-2l-1,-2v-1l-1,-1v-1l-1,-1v-1l-1,-1v-1l-1,-1v-1l-1,-1v-2h2v-1h1l1,-1h1l-1,-1v-2l-1,-1l-2,-4v-1l-1,-1h1v1l1,1h1v1l1,1h1v1l4,4v1l1,1h1v1l2,2M970,387h1v-2l-1,-2v-3l2,2v-3h1v1v-1h1v-2h-1v-1l1,2l1,-1h1v-1h1v-1h1v-1h1l-1,-2l-1,-3v-2l-1,-1v-1l-1,-2v-2l-2,-4v-2l-2,-4v-2l-3,-6v-2l-3,-6v-2l-4,-8v-2l-6,-12v-2l-5,-10l-1,-1v-1h1v-1h1l2,2l1,2l2,2v2l1,1l1,2l2,2l1,2l1,1v2l2,2l1,2v1l1,2l1,1v2h1v2l2,2v2l1,2v1l1,1v2M983,373v-3l-1,-1v-2M958,382v-6h1v-1h1v-1h1v-1l2,2v1h1v1h1l1,1v2l1,1v1v-1l1,1v2h1v1h1v2l1,1v2l1,1v2h1v3l1,1v1l1,1v1l1,1v4h1v1M963,401h2v-1h1v-2h1v1h1v1h1v-1h1v2l-1,1l-1,-1h-1v-1v1l-1,1v2h-1l-1,1v1M965,412h1v-2h1l1,-1v-2h2l1,-1h1M972,422v-1l-1,-3v-1h1v-2h1v-4h-1v-5h1v1h2v1v-1h1v-1h1v3h1v-1v1h1v1v-3h1v1v-5h1v3l1,2v2h1v2h1v4l1,1v3h1v2M988,417v-5l-1,-1v-5l-1,-1v-8l-1,-1v-5l-1,-1h1v1v-3l-1,-1h1v-1h-1v-5l-1,-2v-5l1,1v3l1,1v3l1,1v2h1h-1l1,1v2l1,2v1v-1v3l1,2v1M978,437v-1h1v1v-9h1v-1h1v1h1v2l1,1v3l1,1v5h1v-2M984,453v-1l1,-2v-11l1,-1v2h1v7h1v1v-4h1v1M993,471v-4l-1,-1v-8h-1v-3h-1v-6l-1,-3v-7h-1v-3h1v1v-2h-1v-5h-1v-2l-1,-2v-6h1v1v-5l1,1v1v-1h1v2l1,1v2h1v-2h1v2M997,460v-3l-1,-1v-6l-1,-1v-9l-1,-2v-8l-1,-2v-3l-1,-1v-4l-1,-1v-5h-1v-7h1v1v-2h-1h1h-1v-1l1,1M997,447v-5h-1v-7l-1,-1v-7h-1v-6l-1,-1v-1v1v-4l-1,-1v-5h-1v-4M997,446v-5h-1v-5l-1,-3v-5l-1,-2v-5l-1,-1v-4l-1,-2v-3l-1,-3v-4l-1,-1v-5l-1,-1v-3l-1,-1M674,31h1h-1h1v1h2v1h3l1,1l2,1h2v1h2l1,1h1l4,2h2v1h2l1,1h1v1h2l2,1h1v1l2,1h2l1,1h1l1,1h1l1,1h1l1,1h1l2,1l1,1h2l1,1h1v1h1l1,1h1l2,1h1v1h1l2,1l1,1h1l1,1h1l1,1h1l1,1h1l1,1h1v1h1l1,1h1l1,1h1l1,1h1l2,2h1l1,1h1h-1"/>
<circle class="w2" cx="501" cy="440" r="33"/>
<circle class="w2" cx="501" cy="440" r="31"/>
<circle class="c2" cx="501" cy="440" r="32"/>
<path class="sg" d="M 255.2993 935.2365 A 249.7500 30.0085, 0, 0 0, 743.7007 935.2365"/>
<path class="sg" d="M 67.9777 751.0726 A 432.5797 51.9763, 0, 0 0, 931.0223 751.0726"/>
<path class="sg" d="M 0.0000 499.5000 A 499.5000 60.0170, 0, 0 0, 999.0000 499.5000"/>
<path class="sg" d="M 67.9777 247.9274 A 432.5797 51.9763, 0, 1 0, 931.0223 247.9274"/>
<path class="sg" d="M 255.2993 63.7635 A 249.7500 30.0085, 0, 1 0, 743.7007 63.7635"/>
<path class="sg" d="M 393.2834 987.5761 A 434.1098 499.5000, 12.27745333, 0 1, 605.7166 11.4239"/>
<path class="sg" d="M 463.3958 997.6935 A 256.1096 499.5000, 4.14499347, 0 1, 535.6042 1.3065"/>
<path class="sg" d="M 498.3518 998.9987 A 9.4852 499.5000, 0.13170657, 0 1, 500.6482 0.0013"/>
<path class="sg" d="M 532.5640 997.9045 A 239.6809 499.5000, -3.79541905, 0 0, 466.4360 1.0955"/>
<path class="sg" d="M 597.0893 989.3740 A 424.6246 499.5000, -11.26657610, 0 0, 401.9107 9.6260"/>
<path class="sg" d="M 992.7862 578.0428 A 495.7905 499.5000, -80.95310501, 0 0, 6.2138 420.9572"/>
<text x="0" y="0" class="fs" transform="translate(110,300) rotate(111)">150W</text>
<text x="0" y="0" class="ft" transform="translate(110,300) rotate(111)">150W</text>
<text x="0" y="0" class="fs" transform="translate(270,320) rotate(103)">120W</text>
<text x="0" y="0" class="ft" transform="translate(270,320) rotate(103)">120W</text>
<text x="0" y="0" class="fs" transform="translate(491,328) rotate(90)">90W</text>
<text x="0" y="0" class="ft" transform="translate(491,328) rotate(90)">90W</text>
<text x="0" y="0" class="fs" transform="translate(715,321) rotate(78)">60W</text>
<text x="0" y="0" class="ft" transform="translate(715,321) rotate(78)">60W</text>
<text x="0" y="0" class="fs" transform="translate(881,302) rotate(69)">30W</text>
<text x="0" y="0" class="ft" transform="translate(881,302) rotate(69)">30W</text>
<text x="0" y="0" class="fs" transform="translate(119,769) rotate(11)">30S</text>
<text x="0" y="0" class="ft" transform="translate(119,769) rotate(11)">30S</text>
<text x="0" y="0" class="fs" transform="translate(62,524) rotate(12)">0N</text>
<text x="0" y="0" class="ft" transform="translate(62,524) rotate(12)">0N</text>
<text x="0" y="0" class="fs" transform="translate(123,273) rotate(11)">30N</text>
<text x="0" y="0" class="ft" transform="translate(123,273) rotate(11)">30N</text>
<text x="0" y="0" class="fs" transform="translate(284,82) rotate(10)">60N</text>
<text x="0" y="0" class="ft" transform="translate(284,82) rotate(10)">60N</text>
<path class="tb" d="M127,998h-2l-1,-1h-2l-1,-1h-2l-1,-1h-2v-1h-3v-1h-2l-1,-1h-2v-1h-2l-1,-1h-2v-1h-2v-1h-2l-1,-1h-2v-1h-2v-1h-2v-1h-2v-1h-2v-1h-2v-1h-2v-1h-2v-1h-2v-1h-1l-1,-1h-1v-1h-2v-1h-2v-1h-1v-1h-2v-1h-1l-1,-1h-1v-1h-2v-1h-1v-1h-2v-1h-1v-1h-1l-1,-1h-1v-1h-1v-1h-1l-1,-1h-1v-1h-1v-1h-1v-1h-2v-1h-1v-1h-1v-1h-1v-1h-1l-2,-2h-1v-1h-1v-1h-1v-1h-1v-1h-1v-1h-1v-1h-1v-1h-1v-1h-1v-1h-1v-1h-1v-1h-1v-1h-1v-2h-1v-1h-1v-1h-1v-1h-1v-1l-1,-1v-1h-1v-1h-1v-1l-1,-1v-1h-1v-1l-1,-1v-1h-1v-1l-1,-1v-1h-1v-2h-1v-2h-1v-1l-1,-1v-1l-1,-1v-1l-1,-1v-2h-1v-2h-1v-3h-1v-2h-1v-4h-1v-3h-1v-5h-1v-6l-1,-1v-17h1v-7h1v-4l1,-1v-3h1v-3h1v-3h1v-2l1,-1v-2h1v-2h1v-2h1v-2h1v-2h1v-2h1v-2h1v-1h1v-2h1v-1h1v-2h1v-1h1v-1l1,-1v-1h1v-1h1v-1l1,-1v-1h1v-1h1v-1h1v-1h1v-1h1v-1h1v-2h1v-1h1v-1h1v-1h1v-1h1l3,-3h1v-1h1v-1h1v-1h1v-1h1v-1h1v-1h1l1,-1h1v-1h1v-1h1v-1h1l1,-1h1v-1h1v-1h2v-1h1v-1h1v-1h2v-1h1v-1h2v-1h1v-1h2v-1h1l1,-1h1v-1h2v-1h1l1,-1h1v-1h2v-1h2v-1h2v-1h1l1,-1h1l1,-1h1l1,-1h1l1,-1h1l1,-1h2v-1h2v-1h2v-1h2l1,-1h2v-1h2v-1h2l1,-1h2v-1h3v-1h2l1,-1h2v-1h3v-1h3v-1h159v1h3v1h3v1h2l1,1h2v1h3v1h2l1,1h2v1h2v1h2l1,1h2v1h2v1h2v1h2l1,1h1l1,1h1l1,1h1l1,1h1l1,1h1v1h2v1h2v1h2v1h1l1,1h1v1h2v1h1l1,1h1v1h2v1h1v1h2v1h1v1h2v1h1v1h1v1h2v1h1v1h1l1,1h1v1h1v1h1v1h1l1,1h1v1h1v1h1v1h1v1h1v1h1v1h1l3,3h1v1h1v1h1v1h1v1h1v2h1v1h1v1h1v1h1v1h1v1h1v1l1,1v1h1v1h1v1l1,1v1h1v1h1v2h1v1h1v2h1v1h1v2h1v2h1v2h1v2h1v2h1v2h1v2l1,1v2h1v3h1v3h1v3l1,1v4h1v7h1v17l-1,1v6h-1v5h-1v3h-1v4h-1v2h-1v3h-1v2h-1v2l-1,1v1l-1,1v1l-1,1v1h-1v2h-1v2h-1v1l-1,1v1h-1v1l-1,1v1h-1v1l-1,1v1h-1v1h-1v1l-1,1v1h-1v1h-1v1h-1v1h-1v2h-1v1h-1v1h-1v1h-1v1h-1v1h-1v1h-1v1h-1v1h-1v1h-1v1h-1v1h-1v1h-1l-2,2h-1v1h-1v1h-1v1h-1v1h-2v1h-1v1h-1v1h-1l-1,1h-1v1h-1v1h-1l-1,1h-1v1h-1v1h-2v1h-1v1h-2v1h-1l-1,1h-1v1h-2v1h-1v1h-2v1h-2v1h-1l-1,1h-1v1h-2v1h-2v1h-2v1h-2v1h-2v1h-2v1h-2v1h-2v1h-2l-1,1h-2v1h-2v1h-2l-1,1h-2v1h-2l-1,1h-2v1h-3v1h-2l-1,1h-2l-1,1h-2l-1,1h-2Z"/>
<path class="tl" d="M169,986h1v1h-3l-1,-1h2v-1ZM114,989h-3l-1,-1h2l1,1ZM176,983h1l1,1v1h1l-1,1h-2l-1,1h-1l-1,-1l1,-1v-2h1v-1ZM124,980h2v1h-1ZM122,980l1,1h-1l-1,-1ZM136,977h1h-2ZM156,974v1l1,1h-5v-1l1,-1v-1l-1,-1l1,-1v1h1l1,1ZM158,964v1h-2v2h1l-2,2v1h1l1,1h1l4,4v1l1,1v1h-1v2h-1l-1,1h-1v1h-2l1,1h1v1h-2l1,1h1v1h3l1,1h3l1,1h3l1,1h1l1,1v-1h1v-1h2l2,-1l1,1h1v-1h4v-1h3l1,-1h-1v-1h-4l-1,-1l1,-1h1l2,-2h4l1,-1h1l2,-2h-1v-1h1v-1h2v-1l1,-1h1v1h1v-1h8v-1h3v-1h1l1,1h2v-1h1v1l1,-1h4v1h6v-1h3v-1h2v1h3l1,-1h3v-1h2l1,-1h2l1,-1h4v1h1v1h1l1,1h1l1,-1l1,1h2v1l-2,2h-1v1h1h-1v1h-1v1h2l2,-2h1v-1h3l1,-1h1v-1h2l1,-1h5v-1h1v1h5v1h1l1,-1l1,1l1,-1h1l2,-1v1l1,1h3l1,-1h2v1h1v1h4l1,-1v1h9l1,-1l-1,1v1h-1h3l1,1h2l-1,1v1h1v1h2v1h1v2h2l1,1v1h-1l-1,1h-2l-1,1h-3l-1,1h-2l-1,1h-2l-2,2v1h-5l-1,1h-2v1h-1v3h2l-11,4h-155l-11,-4h-1h2l1,-1l1,1h14l-1,-1h-7v-1h-2v-1h-3l-1,-1h4v-1h-2l-1,-1h-7l-1,-1l-2,-1l1,1l1,-1l2,1v-1h1v-1l-1,-1h-1h2v-1h2v-1h4l1,-1h5l1,-1l1,1v-1h1l1,1h1v-1l1,1h6v-1h-2l-1,-1h-1l-1,-1h4l1,1h1l1,-1h3l-1,-1h1l1,1l1,-1l1,1h3v-1l1,1h4v-1h2l1,-1v-1h-1v-1h-1v-1h-1v-1h-1v-2l-1,-1v-1h1v-2h1v-1h1v-1h1l1,-1l1,1ZM144,951l2,1h1v1h-1v-1v1h-4l-2,-2l-2,-1l2,1h2v-2h1v1ZM151,947h1v1h-2v1l-1,-1l1,-1ZM269,946h-1v-2h1l1,1ZM345,939v1h1l1,-1v1l-3,3v-1l-1,1h-1l1,-1v-1l1,-1v-1ZM368,943v1l1,-1v1h-1l-3,3h-1l-1,1h-1l-2,2h-2v1h-1v-1h-1v-1l4,-2h1l1,-1h2l2,-2h1l2,-2ZM376,936l-1,2l1,-1l-1,1l1,1h1l-2,2h-1l-2,2l-2,1h-1l2,-1v-2l1,-1l2,-1v-1l1,-1v-3l1,-1v1l1,1ZM382,913l-1,1v-2l-1,-1v-1h1v1l1,1ZM397,906v1l-1,1h-1v-1l1,-1v1ZM398,906h-1v-1h1l1,-1v1ZM10,905v-1ZM386,904v-1ZM386,901v2h-1v-1ZM259,895v2l1,1h-1v1v-1v2h-1v3l-3,6v2h-1l-1,1l-1,-1h-1v-5h1v-2l1,-1h-1v-3h1v-1h1l2,-2h1v-1l1,-1v-1l1,-1v1ZM361,898v1h1v1h1l-1,1v2h1l-1,2v1l2,2v4h1l-1,2l1,1v3l-1,1v2l-3,3v1l-1,1l-1,2h-1l-1,2h-1l-4,4v1h-2l-1,1h-1l-1,1v-1h-1l1,-1h-1l-1,1h-1v-1h-1v-3h1l-1,-1v-1l1,-1l-1,1h-1l3,-3l-2,1h-1l-1,2v-4l-2,-2h-2l-1,1h-4l-2,2h-4l-1,1v-1l-1,1h-2v-1h-1l1,-1v-1h1v-3l1,-1v-7l1,1v-3l1,-1v-1l1,-1l-1,1l2,-2h1l1,-1h2l1,-1h2v-1h1l1,-1v-2l1,-1v2l1,-1v-1h1v-1l2,-2h2v1h2v-2h1l1,-1v-1h2v-1h-1h1l1,1h3l1,1h-1v1h-1v1l-1,1v1l2,2v1h1l1,1h1v-1l1,-1v-1l1,-1v-3l1,-1v-2h1v-1v3l1,1Z"/>
<path class="tl" d="M383,894h-1v-1v1ZM337,892l-2,-1h2ZM381,893h-1v-1h1ZM382,892v-1l-1,-1h1ZM341,892h-1l3,-3h2l-1,1h-1l-1,1ZM335,889h1v1h-3l1,-1ZM340,889v1h-3v-1h2ZM381,890v1l-2,-2h1v1ZM378,889v-1h-1v-1l1,1ZM325,887h2v-1l2,1v1h2l1,1l-1,1l-1,-1h-4l-1,-1h-1l-2,-1h-1l1,-2h1l1,1ZM353,886v1v-2ZM377,888h-1v-2l-1,-1h1v2h1ZM373,885l-1,1h-1l-1,1l-1,-1h-1l1,-1l1,1v-1h2v-2h1v1ZM345,882h-1v-1h1ZM349,881v2l-1,-1h-2v-1h2ZM374,884l-1,-1v-1l-1,-1h-1h2v2h1ZM353,878v3l2,1v-2l2,-1h1l1,1h1l1,1l4,2v1h1v1l2,1v1h-1v1l1,1v2h1v1h1h-1l1,1l-1,1v-1h-2l-1,-1v-3h-3l-1,1v1h-2l-2,-2v1h-2l1,-2h1l-1,-2v-1l-2,-1h-1l-1,-2l-1,1l-1,-1h1l-1,-1l1,-1h-1v-1h-1l-1,-1h2v-1ZM343,875l-1,1h-4v1l1,2v-1h2l-1,1h-1l1,2v1l1,2v1h-1v-2l-1,1v-1l-1,-1l1,-1h-1v4h-1v-3h-1v-1l1,-1v-4h1v-1h4l1,-1ZM347,875v1h-1v1l1,1h-1v-4h1ZM321,885h-1l-2,-2v-1l-2,-2l-1,-2v-2l-1,-1v-1l-4,-4v-1h2l3,3l1,2h1l2,2h1l-1,2h1v1l1,1h1v3ZM335,874l1,1h-1v3l-1,1v1l-1,3v-1l-1,1l-1,-1h-1v-1l-1,1l-1,-1h-1l-2,-4v-2l1,-1h2v-2h2v-1l1,-1v-1h1l1,-1v-2h1v1l2,2v1h-1l-1,2l1,1ZM344,864v3l-1,-1v2l-2,-2h1l-1,-1v1l-1,-1l-1,1v-1l1,-1h2v-1h1v-1l1,1ZM294,868h-1v-1l-1,-2l1,-2l1,1v1l1,1v1ZM137,863h-1l1,-1h1ZM341,861v1l-1,1l-1,-1l1,-1v-1v1l1,-1ZM335,863l-1,1v-1l1,-1v-1l1,-1v1l-1,1ZM338,859h2v1l-1,1v-1h-1ZM342,858l1,2h-1v1v-1h-1v-1h1h-1v-1ZM338,857l-1,1l-1,-1h1ZM336,849h1v6h1l2,1v2l-1,-1v-1v1l-1,-1h-2v-1h1h-1l-1,-1v-5ZM133,851v1h-1v-1ZM121,852h-1v-1h2v1ZM126,849h3v1h1v1h-2l-1,1v-1h-1v-2h-1ZM324,849l-1,1h-1v-2l1,-1h1v1ZM37,846v-2h1v2ZM38,844h-1v-1h1ZM119,845h2l1,1v1h1v1h2l-1,1h-3v-1h-1v-2h-2l-1,-1h-1h1h-2l-1,1h-1l2,-2h3ZM122,843h-1v-1l1,-1v1ZM334,843v1l-2,-2v-2l1,-1l1,1ZM122,839l-1,1v-1ZM123,839v1v-1h-1ZM340,825h1v1h-1v1h-1v-2ZM240,828l-2,2v-1h-1h2ZM229,828v1h-1ZM220,825v2h-1l-1,-1h-1v-1h2ZM214,821v3h-1v-3ZM344,820v1l1,1v1l-1,1h-1l-1,2l-1,-1v-1l-2,1l-1,1h-1l2,1v3l-1,-1v-1h-1l-1,-1l1,-1v-3h3v-3l1,1v-2h1l-2,-4v-1l3,3v1ZM214,820v1l-1,-1v-1l1,-1ZM340,810l1,-1l1,2h-1v2l-2,-1l1,2h-1l-1,-2l-1,-1h1l-1,-2l-1,-1l3,1ZM144,812l1,1h1h-2ZM147,809h-1l-1,-1h1ZM92,806h-1l-1,-1v-2h-1v-1h1l1,1v1l1,1ZM153,807l-1,1h1v1h2l-1,1h1v1l-1,2l-1,-1l1,-1l-2,1v-1h-3l1,-1h-1l4,-4h1Z"/>
<path class="tl" d="M90,797h1l-2,2v1v-3ZM332,800l3,3l-2,-1l1,2l2,2v1l-2,-2l-1,-2l-6,-6v-1h-1h1l3,3ZM198,806l-1,1h-2l1,-2v-1l2,-2h1v3ZM216,801l-1,2l-1,-1v-1h1ZM79,791h-1v-1h2ZM202,797l-1,2h2v1l-1,1h1l2,4h1v1l-1,1h1l-1,1h-3l-1,1h-2l2,-2h-1v-1h1l-1,-1v-1h2l-1,-1h-1v-2l-1,-1l1,-2v-1l1,1ZM75,786h-1v-1h1ZM141,790l-1,1v-1ZM139,790h-2l1,-1h1ZM78,780v1h1h-2v-1ZM139,786h1v1h1l-1,1h1l-1,1l-1,-1h-1l-2,1l1,-1h-1h1l1,-1l1,-2ZM193,787v1l1,1l-1,1h-3l-1,1l-1,-1h-2l1,-1h-1h1v-1h-2l1,-1h1l1,1l2,-1h2ZM147,784h-1l1,-1h2l-1,1ZM81,776v1l1,-1h2l-1,2h-3l-1,1h-1l-1,-1h1v-1h-1h1h-2l-1,1l8,-5v1l-1,2ZM135,780l-1,1v-1h-1l1,-1h1ZM322,771h-1ZM88,771h-1h2ZM139,780l-1,2l2,-1v1h-1v1l1,-1l2,-1l1,-1h2v2h-1v1l-1,1l-2,1h-1v-1l-1,1l-2,1v1h-3l-2,2h-1l-1,1l-2,1l-1,1l-1,2h1l-1,1v1h1l3,3l2,1h1l-2,2v2l1,1h1l2,-4h-1l4,-2v-1l1,-1v-1l-1,-1l2,-1l2,-4l1,1h1l1,-1v1l1,1h1v2l-1,1l1,1h2l1,-2h1v3l1,1l-1,1l1,1v1h1l1,1v1l1,1l-2,2h-2l-2,2h-1l-2,-1h-2l-2,1l-1,1l-2,1l-1,1l2,-1l3,-1h2l-1,1l-1,2v1l1,1l2,-1l1,-1v1h1l-4,2h-1l-2,1v-1l2,-1h-3v1h-1l-1,1h-1l-2,2l1,1v-1v1h-3l-1,1l2,-1v1h-2l-2,2v1l-1,1l-1,-1l1,-1l-1,1v4l-1,1h-1l-1,1h-1l-3,3h-1v8l-1,1h-1v-3l-1,-1l1,-1l-1,-2l-1,1l-1,-1h-4v1h-1l-1,-1l-1,1l-1,-1l-2,2h-2v1h-1v3l-1,1v1l-1,2v4l1,1v1h1v1l1,-1h3v-1l1,-1v-1l1,-1h3v1l-1,1v2l-1,1v-1v2l-1,1v1h5v1h1v1l-1,1v3l-1,1h1v2h1v1h2l1,-1h1v1h1l1,1l1,-1v-2l1,-1h2l2,-2v2h-1h1v1l-1,1v1h1v-3h1v-1h1v1h1v1h3l1,1l1,-1h1l1,1h1v1l1,1h1v1h1v1l1,1l2,1v-1h1l1,1h1l1,1v1h1v1l1,2v1l-1,1l1,1h2v1v-1l4,2v1h1l3,1h1l2,1l2,2h2v5l-1,1l-1,2l-2,2v9l-1,2v2h-1v1h-2l-1,1h-1l-3,3v5l-1,2l-2,2v2l-2,2v-1l-1,1l-1,-1h-1v-1v1l1,1v1l1,1v2l-2,1h-3l1,1v2l-1,1l-1,-1h-1l1,2h2l-2,2l1,1v1h-1l-1,1v1l2,1h1v1l-1,1v2h-1v1l2,2h-1l-1,1v1h-1l-2,-1l-3,-3l-1,-3v-1l1,-1h-2l1,-2l-1,-2h1v-2l-1,-1v2l-1,-2v-4l-1,-1l-1,-2h1v-6l-1,-2v-8l-1,-2v-6l-1,-2l-1,-1l-2,-1l-3,-2l-1,-1v-1l-1,-2l-1,-3l-2,-3l-2,-2v-1l-1,-2l2,-2v-1h-1v-3l1,-1v-1h1v-2h1l1,-1v-5l-1,-1v-2h-1v1h-1v1h-1l-1,-1h-2v-2h-1v-1v1h-1v-3l-2,-2h1h-2v-1h-2l-1,-1l-1,-2h-1l-1,-1v1h-2l-1,-1h-2l-2,-2h-1l-1,-1v-1h-1v-3h1l-1,-1v-3l-1,-1v-1l-1,-1v-3h-1v-5l-1,-1l-1,1v4h1l-1,1h1v5h1v2h-1v-1l-1,-1v-3l-1,-1v1v-1h-1v-1h1v-9h-1v-1h-1v-9l2,-2v-1l1,-2l2,-2l1,-2l1,-1v-1h1v1l2,-2h-1v-2l-1,-1v-1l1,-1l-1,-1l1,-1v-1l1,-1l-1,-1l1,-1v-1l1,-1l-1,-1h-1v-2h-1v-1h-1l-1,-1h-1l-1,1h-4l1,-1l2,-1h-1l-1,1l-2,1h-1l-1,1l-2,1h-2l-2,1h-1l-1,1h-3l-1,1h-2l1,-1h2l2,-1h2l2,-1h1l2,-1l1,-1h-3l1,-1l-1,1h-1l2,-2h-1v-1l2,-2l2,-1h3l1,-1h1l1,-1h-3v-2h4l1,1l1,-1v-3h4l1,-1h2l2,-1l1,1l1,-1h1l-1,1h1l1,1h2l1,1h2v1l1,1l1,-1h6l1,-1v2l2,-1l-1,1h2l1,1h2v1l-2,1h4v1l2,-2h2v1h1l1,1h2v-1h1l1,1l-1,1l1,-1h1l1,-1v-2l1,-1l2,-1l1,1l-2,2Z"/>
<path class="tl" d="M128,774l-1,1h4l-1,1h1l2,-2v1l-1,2v1l1,1h-2v1h-8v-1h-1v-1h4l-1,-1h-3l2,-1h-1l1,-1h1ZM135,774l-2,1v-1h1ZM152,776v1l-1,-1l-1,1v-2h2ZM146,776v1l1,-1l2,-1v2h3l1,1l-1,1l2,-1v1l1,1v2h-1l2,2v1h1v1l-2,1h-1l-1,-2l-1,1v1l1,1v2l-1,1l-2,-2v1l1,1h-2l-2,-2v-1l-1,-1v1h-3v-1l1,-1h3l1,-1l2,-1v-1l-1,-1h-1l1,-1l-1,-1h-5l-1,-1h-1l1,-1h-1l1,-1l2,-1l1,-1h2ZM138,774h2l-1,1h-1l1,1l-2,1h-2v-2l1,1v-1ZM298,772h-2v-1ZM141,776l-2,1v-1l2,-2h2l1,1l-2,1ZM122,776h-2l-1,-1h1l2,-1l2,-2h2v1h2v1h-1l-3,1h-2ZM299,769v1h-3v-1h1ZM143,773v1l-1,-1h-1l1,-1h1l1,1ZM295,769l1,1h-2l-1,1l-2,-1l-1,-1h2ZM143,771h-1v1l-1,1h-2l1,-1h-1l1,-1h2ZM136,771h1v1h-4l-2,1h-1l1,-1h-1l-1,-1l2,-1h1l2,1l1,1v-2h2ZM246,780h-3l-2,-1v-1l1,-2h-1l1,-1l-1,-1h1l4,-2h2l-1,1l-2,1l-1,1v2l-1,1l1,1ZM145,770l1,1h1l-1,1h1l1,1h4v1h-7l-1,-1l1,-1v-1h-2l1,-1ZM134,769l-2,1h-4l2,-1h3ZM271,770l1,1v-1h2l2,1h1v1l-1,1h1l2,1v-1l1,1l1,-1h2l1,1h3l-2,-1h5l1,1v1h2l2,1l-1,-1h1l1,-1l2,1v-1h1l-2,-1h8l3,1l1,-1h2l2,2h2v-1h3l3,1v-1h-2v-1h7l8,5h-1l1,1l2,1h2v1h-1v1h-1l1,1v2l-2,-1v2l-1,-1v1h-1l2,2v1h1l3,2h-1l1,1h1v1l1,2h-1l1,2l1,1l-4,-2l-4,-3l-1,-2l-1,-1v-3l-1,-2v-1l-2,-2l-1,1l2,2l-3,-1l-1,1l1,2l1,1h-1l-1,1l-1,-1h-1v1h-4v7h1l2,1h1l-1,-1h1l3,1l1,2l1,1l1,2l2,2v9h-1l-1,-1v2h-1v1l1,1v1h-1v1l1,1h1l2,2v1l1,1v1l-1,1h-1l-1,-2l-1,-1h1l-2,-1v-1v1v-1h-1v-1l-1,-1h-2v1h-1l-1,-1l1,-1l-1,-1l-1,1v2h-1v1l2,2h1v-1h2l1,1l-2,1v2l2,2l1,2l2,1v2h1v6l-2,4l-1,1h-1v1l-1,-1v1l-2,1h-1v2l-1,-1v-1h-2l-1,2v2l1,1l1,2l2,2l1,3v4l-2,1v1l-2,1v-2l-1,-1h-1v-1l-2,-2h-1v-1h-1v6h1v3l1,1h1v1h1v1l1,1v3h1v2h-1l-2,-2v-1l-1,-1v-1l-1,-1v-2l-1,-1v-1h-1v-6l-1,-1v-1l-1,-2v-2l-1,-1l-2,2h-1v-3l-1,-2v-1h-1l-2,-2v-1l-1,-1h-1v2l-1,-1v1h-2v2l-2,1l-1,2v1l-2,2h-1v8l-1,1l1,1h-1l-1,1l-1,-1l-1,-2v-1l-1,-1v-1l-1,-2v-1l-3,-6v-3l-2,1h-1l-1,-2v-1l-2,-1l-1,-1v-1l-1,-1l-2,1h-5l-1,-1h-2v-2h-1l-1,1h-2l-3,-3l-1,-2l-1,1v-1l-1,1v2l1,1h1l1,1v2l1,1l-1,-1l1,-1v2h1v1l1,-1h2v-1l1,-1v-1v2l2,2h1l2,2l-1,1v1h-1v3h-1v1h-1v1h-2v1h-1l-2,2h-1l-2,2v-1l-1,1h-2v1h-2v-2l-1,-1v-3h-1v-1l-1,-1v-1l-1,-1h-1v-1l-1,-1v-3h-2v-2l-1,-1v-1l-2,-2v-1v1l-1,1l-1,-1l-1,-2l1,2l1,1l1,2v1l2,2h-1l2,2v1l1,1h-1l1,2v1l1,1l1,2v1l1,1l2,1v1h1v1h1v1l-1,1h1l1,1h3l1,-1h3v-1h1v2l-1,1v3l-1,1l-3,6l-1,1l-2,1l-1,1l-1,2v1h-1v1h-1v2l-1,1l-1,2l1,1v4l1,1v7l-1,1h-1l-3,3h-1v1l-1,1v2h1l-1,1h1v1l-1,1h1l-1,1h-1l-2,2v3l-3,3v1l-2,1v1l-1,1h-2v1l-1,-1v1l-1,-1l-1,1h-2l-1,1l-1,-1h-1v-5l-1,-1v-2l-1,-1v-1l-1,-1v-5l-1,-1v-1l-1,-2v-1l-1,-1v-3l1,-1v-3h1v-1l1,-1v-1h-1v-5l-1,-1v-2l-3,-3l-1,-2l1,-1v-5l-1,-1v-1l-1,1h-2l-1,-1v-1l-1,-1h-2l-1,1h-2l-1,1h-6l-1,1l-4,-4h-1l-1,-1v-1l-1,-1v-1h-1v-1l-1,-1v-1h-1v-3h-1l1,-1v-1h1l-1,-1l1,-1v-4l-1,-1v-1h1v-2l1,-1v-1h1v-2h1l1,-2h1l2,-2v-3l3,-3l1,-2v-1h1l1,1h2l1,-1h2l1,-1h4l1,-1h1v1h1l1,-1h1v1l1,-1v1h-1v1h1v2h-1v1h1v1h3l2,2h1l2,2l1,-1v-2l1,-1h2l1,1h1l1,1h2l1,1h1v-1h2l1,1v-1h1l1,1v-2l1,-1v-5h-2l-1,1l-1,-1h-2v1l-1,-1h-2v-1l-1,-1v-2l1,-1h1v-1h2l1,-1h1l2,-1l2,1l1,1h2l1,-1v-2h-1l-2,-2h-1l-1,-1l1,-1l-1,-1h2l-1,-1v1h-2l-1,1v1h1l-1,1h-1v-1h-1l1,-1h-2v-1h-1v1l-1,1v1h-1v4l1,1h-2v1h-1v-1h-2l1,1h-2v1l1,1h-1h1l1,1v1l-1,-1v1h-1l1,1h-2v-2l-1,-1v-1h-1v-3h-1v-1h-1l-1,-1h-1l-1,-1v-1l-1,-1v1v-1h-2v1l2,2v1l1,1h1l1,1h1l1,1v1l-1,-1h-1v1h1v1h-1v1h-1v-1h1l-1,-1v-1h-1l-1,-1h-1l-2,-2l-1,-2h-2v1h-4l-1,1v2h-2v1l-1,2h1l-1,1v1h-1l-1,1h-2l-1,1l-2,-2v1h-2l1,-1v-1h-1v-2l1,-1v-3l-1,-1l2,-1l1,1h5v-4l-1,-1v-1h-2v-1h3v-2l1,1l2,-1v-1h1l1,-1l1,-2l1,-1h2v-5h2l-1,1h1v1l-1,1v1h1v1l1,-1h2v1h1l2,-2l1,1h1v-1h1v-3l1,-1l1,1v-1l-1,-1v-1h4l1,-1h-4l-1,1l-2,-2v-4l2,-1v-1l-1,-1l-2,2l-1,2l-1,1v3h1v2h-1v2l-1,2h-1v1h-1v-2l-1,-1l-1,-2l-1,-1l-1,2h-1l-2,-1v-5l2,-1l3,-3l2,-3l3,-3h2l1,-2h3l2,1l-1,1h2l1,1h3l3,1l1,1v1l-1,1h-1l-3,-1h-1l2,1v2l1,1h1v-1h-1l1,-1l2,1v-1l1,-2h1l1,1v-1l-1,-1v-1l-1,-1l2,1h1l-1,1l1,1h1v-1l1,-1l2,-1h1v1l1,-1h1l1,-1l1,1l1,-1h-2l1,-1h2l1,1l4,1v-1h-2v-1h-1l-1,-1v-3h2l1,1v1h1l1,1l1,2h1v3l1,1v-1h1l-1,-1l1,-1h-1l-2,-2v-1l-2,-1l1,-1l-1,-1h1l1,2l-1,-1l1,-1h2l1,1l-1,-1l-1,-2h4l-2,-1v-1h1l1,-1h3l1,-1h1v-2l2,1h-1ZM253,820l1,1v2h-1v1l1,1h1l1,1h3l-1,-1v-2h-1v-2h1v-1l-1,-1h-1l1,1l-1,-1v-1h-2v-2h-1h1v-2l1,1v-3h-2l-1,1h-1v1h-1l-1,2l2,1v1l1,1Z"/>
<path class="tl" d="M146,770h-1v-1h1l1,1ZM137,769h-2l1,-1h1l1,1ZM220,771l-1,1h-1v-1h-1l2,-1v1ZM139,768h-2l1,-1v1ZM146,769h-1v-1h1l1,1ZM144,769h-1l-1,-1h-1h1v-1h1l1,1ZM268,768l-3,1v-2ZM215,769l3,1h-2v3h-1l-2,-1h1l-1,-1l-2,-1v-1l1,-1l1,1h1v-1h1ZM220,768h1l-1,1h-4l-1,-1h3ZM234,767l-1,1h-1v-1h-1h4ZM264,768h-4l-2,-1l-1,-1h1l1,-1l4,2ZM153,767v1h-1l-2,1h-2v-1h1h-1v-1l1,-1h2v-1h1v1h1ZM167,764h3v1h-3l-1,1h-1l-1,1l-2,1h-3v1h-1v1h-2l-2,1h1l-2,1h-4l-1,-1h2v-1h2v-1h-1h1l1,-1h1l-1,-1h4l-1,-1h-3v-1l1,-1h6v-1h3v1l2,-1l1,1ZM190,764l3,1h-6v1h5l-1,1l2,-1h4v1l-2,1h-1l-2,2v2l1,1h-2l1,1l-1,1v1h-1l1,1h-3l1,1v1l-1,-1l-1,1h1l1,1v1h-2l-1,-1v1l-1,1h3l-4,2h-3l-1,1l-4,2h-1l-2,1h-1v1l-2,2v1l-1,1l-1,2h-1l-1,-1h-1l-1,-1v-2l-1,-1v-1l1,-1l-1,-2l1,-1l1,-2h1l1,-1v-1l-1,1h-1v-1l1,-1h1l-1,-1h-1l1,-1v-4l-1,-1h-5v-1l-1,-1h1l-1,-1l1,-1h2l3,-1h1l-2,-1h1l3,-1h1v-1h9l1,1l-1,-1h1l2,-1h3l2,-1Z"/>
<path class="th" d="M106,857v-1h1v1h1v1h-1h1h-1h1h-1v-1Z"/>
<path class="tg" d="M66,970h1l1,-1h4v-1h5v-1h5v-1h6v-1h6l1,-1h7v-1h8v-1h9l1,-1h11v-1h14v-1h20v-1h79v1h20v1h14v1h11l1,1h9v1h8v1h7l1,1h6v1h6v1h5v1h5v1h4l1,1h1M21,927h6v-1h7v-1h8v-1h10v-1h10v-1h12v-1h14v-1h18v-1h23v-1h38v-1h75v1h38v1h23v1h18v1h14v1h12v1h10v1h10v1h8v1h7v1h6M5,877h399M21,826h4v1h7v1h8v1h9v1h10v1h11v1h14v1h16v1h21v1h32v1h103v-1h32v-1h21v-1h16v-1h14v-1h11v-1h10v-1h9v-1h8v-1h7v-1h4M66,783v1h5v1h4v1h5l1,1h5v1h6l1,1h6l1,1h7v1h10v1h10v1h13l1,1h17v1h36v1h21v-1h36v-1h17l1,-1h13v-1h10v-1h10v-1h7l1,-1h6l1,-1h6v-1h5l1,-1h5v-1h4v-1h5v-1M140,755h-1v1h-3v1h-2v1h-2v1h-2v1h-2v1h-2l-1,1h-1l-1,1h-1l-1,1h-1v1h-2v1h-2v1h-2v1h-1l-1,1h-1v1h-2v1h-1l-1,1h-1v1h-2v1h-1v1h-2v1h-1v1h-2v1h-1v1h-1l-1,1h-1v1h-1v1h-2v1h-1v1h-1v1h-1v1h-2v1h-1v1h-1v1h-1v1h-1v1h-1v1h-1l-1,1h-1v1h-1v1h-1v1h-1v1h-1v1h-1v1h-1v1h-1v1h-1v1l-1,1v1h-1v1h-1v1h-1v1h-1v1h-1v1l-1,1v1h-1v1h-1v1h-1v2h-1v1h-1v2h-1v1h-1v2h-1v1h-1v2h-1v2h-1v1h-1v2h-1v2h-1v2h-1v2h-1v2l-1,1v2h-1v2l-1,1v2h-1v3h-1v4h-1v4h-1v5h-1v9h-1v13l1,1v8h1v5h1v4h1v4h1v3h1v3h1v2h1v3h1v2h1v2h1v2h1v2h1v2h1v2h1v1l1,1v1h1v2h1v1h1v2h1v1h1v1h1v2h1v1h1v1l1,1v1h1v1h1v1h1v1l2,2v1h1v1h1v1h1v1h1v1h1v1h1v1h1v1h1v1h1v1h1v1h1v1h1v1h1v1h2v1h1v1h1v1h1v1h1v1h1l1,1h1v1h1v1h1v1h2v1h1v1h1l1,1h1v1h1v1h2v1h1v1h2v1h1l1,1h1v1h2v1h1v1h2v1h2v1h1l1,1h1v1h2v1h2v1h2v1h2v1h2v1h2v1h2v1h2l1,1h2v1h2v1h2M153,755h-1v1h-2v1h-2v1h-1v1h-2v1h-2v1h-1v1h-2v1h-1v1h-2v1h-1v1h-2v1h-1v1h-1v1h-2v1h-1v1h-1l-1,1h-1v1h-1v1h-1v1h-1v1h-1l-1,1h-1v1h-1v1h-1v1h-1v1h-1v1h-1v1h-1v1h-1v1h-1v1h-1v1h-1v1h-1v1h-1v1h-1v1h-1v1h-1v1h-1v1l-2,2v1h-1v1h-1v1h-1v1l-1,1v1h-1v1h-1v2h-1v1h-1v1l-1,1v1h-1v2h-1v1h-1v2h-1v1h-1v2h-1v2h-1v2h-1v2h-1v2h-1v2h-1v2h-1v3h-1v2h-1v3h-1v3h-1v3h-1v3h-1v4l-1,1v4h-1v6l-1,1v30h1v6h1v5h1v4h1v3h1v3l1,1v2l1,1v2h1v3h1v2h1v2h1v2h1v2l1,1v1h1v2h1v2h1v2h1v2h1v1h1v2h1v1h1v2h1v1h1v2h1v1h1v1h1v2h1v1h1v1h1v1l1,1v1h1v1h1v1h1v1h1v1h1v1h1v1l3,3v1h1l3,3h1v1h1v1h1v1h1v1h1v1h1v1h1v1h1l1,1h1v1h1v1h1v1h1l1,1h1v1h1v1h1l1,1h1v1h1v1h2v1h1v1h2v1h1v1h2v1h2v1h1v1h2v1h1l1,1h1v1h2M166,755h-1v1h-1v1h-1l-1,1h-1v1h-1v1h-1v1h-1v1h-1v1h-1l-2,2h-1v1h-1v1h-1v1h-1v1h-1v1h-1v1h-1v1h-1v1h-1v1l-2,2v1h-1v1h-1v1h-1v1h-1v1l-1,1v1h-1v1h-1v1h-1v2h-1v1h-1v1l-1,1v1h-1v1h-1v2h-1v1h-1v2h-1v2h-1v1h-1v2h-1v2h-1v2h-1v1l-1,1v1l-1,1v1l-1,1v2h-1v2h-1v2h-1v3h-1v2h-1v3h-1v3h-1v3h-1v3h-1v4h-1v4h-1v5h-1v6h-1v8h-1v30h1v7l1,1v5h1v5h1v4h1v4h1v3h1v3h1v3h1v3h1v3h1v2h1v2h1v2l1,1v2h1v2h1v2h1v2h1v1h1v2h1v2h1v2h1v1h1v2h1v1h1v2h1v1l1,1v1h1v1h1v2h1v1h1v1h1v1l1,1v1h1v1h1v1h1v1l1,1v1h1v1h1v1h1v1h1v1h1v1h1v1h1v1h1v1h1v1h1v1h1v1h1v1h1v1h1v1h1l2,2h1v1h1v1h1v1h1v1h2v1h1"/>
<path class="tg" d="M179,755h-1v1h-1v2h-1v1h-1v1h-1v1h-1v2h-1v1h-1v1l-1,1v1h-1v1l-1,1v1h-1v1l-1,1v1h-1v2h-1v1l-1,1v1h-1v2h-1v2h-1v2h-1v2h-1v2h-1v2h-1v2h-1v2h-1v2l-1,1v2h-1v2l-1,1v2h-1v3h-1v3h-1v3h-1v3h-1v4h-1v4h-1v4h-1v4h-1v5l-1,1v5h-1v8h-1v11h-1v29l1,1v10l1,1v7h1v6h1v5h1v4l1,1v4h1v3l1,1v3h1v3h1v3h1v3h1v3h1v3h1v2h1v3h1v2h1v2h1v2l1,1v2h1v2h1v1l1,1v1l1,1v1h1v2h1v2h1v1l1,1v1h1v2h1v1h1v2h1v1h1v2h1v1h1v1l1,1v1h1v1h1v1h1v2h1v1h1v1h1M192,755h-1v3h-1v2h-1v3h-1v3h-1v3h-1v3h-1v3h-1v3l-1,1v3h-1v4h-1v4h-1v4l-1,1v4h-1v5h-1v6h-1v6l-1,1v7h-1v8h-1v11l-1,1v18h-1v29l1,1v18h1v11h1v8l1,1v7h1v6h1v6h1v5h1v5h1v4h1v4h1v4h1v4h1v3h1v3l1,1v3h1v2l1,1v2h1v3h1v3h1v2h1M205,755v243M217,755h1v3h1v2h1v3h1v3h1v3h1v3h1v3h1v3l1,1v3h1v4h1v4h1v4l1,1v4h1v5h1v6h1v6l1,1v7h1v8h1v11l1,1v18h1v29l-1,1v18h-1v11h-1v8l-1,1v7h-1v6h-1v6h-1v5h-1v5h-1v4h-1v4h-1v4h-1v4h-1v3h-1v3l-1,1v3h-1v2l-1,1v2h-1v3h-1v3h-1v2h-1M230,755h1v1h1v2h1v1h1v1h1v1h1v2h1v1h1v1l1,1v1h1v1l1,1v1h1v1l1,1v1h1v2h1v1l1,1v1h1v2h1v2h1v2h1v2h1v2h1v2h1v2h1v2h1v2l1,1v2h1v2l1,1v2h1v3h1v3h1v3h1v3h1v4h1v4h1v4h1v4h1v5l1,1v5h1v8h1v11h1v29l-1,1v10l-1,1v7h-1v6h-1v5h-1v4l-1,1v4h-1v3l-1,1v3h-1v3h-1v3h-1v3h-1v3h-1v3h-1v2h-1v3h-1v2h-1v2h-1v2l-1,1v2h-1v2h-1v1l-1,1v1l-1,1v1h-1v2h-1v2h-1v1l-1,1v1h-1v2h-1v1h-1v2h-1v1h-1v2h-1v1h-1v1l-1,1v1h-1v1h-1v1h-1v2h-1v1h-1v1h-1M243,755h1v1h1v1h1l1,1h1v1h1v1h1v1h1v1h1v1h1l2,2h1v1h1v1h1v1h1v1h1v1h1v1h1v1h1v1h1v1l2,2v1h1v1h1v1h1v1h1v1l1,1v1h1v1h1v1h1v2h1v1h1v1l1,1v1h1v1h1v2h1v1h1v2h1v2h1v1h1v2h1v2h1v2h1v1l1,1v1l1,1v1l1,1v2h1v2h1v2h1v3h1v2h1v3h1v3h1v3h1v3h1v4h1v4h1v5h1v6h1v8h1v30h-1v7l-1,1v5h-1v5h-1v4h-1v4h-1v3h-1v3h-1v3h-1v3h-1v3h-1v2h-1v2h-1v2l-1,1v2h-1v2h-1v2h-1v2h-1v1h-1v2h-1v2h-1v2h-1v1h-1v2h-1v1h-1v2h-1v1l-1,1v1h-1v1h-1v2h-1v1h-1v1h-1v1l-1,1v1h-1v1h-1v1h-1v1l-1,1v1h-1v1h-1v1h-1v1h-1v1h-1v1h-1v1h-1v1h-1v1h-1v1h-1v1h-1v1h-1v1h-1v1h-1v1h-1l-2,2h-1v1h-1v1h-1v1h-1v1h-2v1h-1M256,755h1v1h2v1h2v1h1v1h2v1h2v1h1v1h2v1h1v1h2v1h1v1h2v1h1v1h1v1h2v1h1v1h1l1,1h1v1h1v1h1v1h1v1h1l1,1h1v1h1v1h1v1h1v1h1v1h1v1h1v1h1v1h1v1h1v1h1v1h1v1h1v1h1v1h1v1h1v1h1v1l2,2v1h1v1h1v1h1v1l1,1v1h1v1h1v2h1v1h1v1l1,1v1h1v2h1v1h1v2h1v1h1v2h1v2h1v2h1v2h1v2h1v2h1v2h1v3h1v2h1v3h1v3h1v3h1v3h1v4l1,1v4h1v6l1,1v14l1,1h-1v15h-1v6h-1v5h-1v4h-1v3h-1v3l-1,1v2l-1,1v2h-1v3h-1v2h-1v2h-1v2h-1v2l-1,1v1h-1v2h-1v2h-1v2h-1v2h-1v1h-1v2h-1v1h-1v2h-1v1h-1v2h-1v1h-1v1h-1v2h-1v1h-1v1h-1v1l-1,1v1h-1v1h-1v1h-1v1h-1v1h-1v1h-1v1l-3,3v1h-1l-3,3h-1v1h-1v1h-1v1h-1v1h-1v1h-1v1h-1v1h-1l-1,1h-1v1h-1v1h-1v1h-1l-1,1h-1v1h-1v1h-1l-1,1h-1v1h-1v1h-2v1h-1v1h-2v1h-1v1h-2v1h-2v1h-1v1h-2v1h-1l-1,1h-1v1h-2"/>
<path class="tg" d="M269,755h1v1h3v1h2v1h2v1h2v1h2v1h2l1,1h1l1,1h1l1,1h1v1h2v1h2v1h2v1h1l1,1h1v1h2v1h1l1,1h1v1h2v1h1v1h2v1h1v1h2v1h1v1h1l1,1h1v1h1v1h2v1h1v1h1v1h1v1h2v1h1v1h1v1h1v1h1v1h1v1h1l1,1h1v1h1v1h1v1h1v1h1v1h1v1h1v1h1v1h1v1l1,1v1h1v1h1v1h1v1h1v1h1v1l1,1v1h1v1h1v1h1v2h1v1h1v2h1v1h1v2h1v1h1v2h1v2h1v1h1v2h1v2h1v2h1v2h1v2l1,1v2h1v2l1,1v2h1v3h1v4h1v4h1v5h1v9h1v13l-1,1v8h-1v5h-1v4h-1v4h-1v3h-1v3h-1v2h-1v3h-1v2h-1v2h-1v2h-1v2h-1v2h-1v2h-1v1l-1,1v1h-1v2h-1v1h-1v2h-1v1h-1v1h-1v2h-1v1h-1v1l-1,1v1h-1v1h-1v1h-1v1l-2,2v1h-1v1h-1v1h-1v1h-1v1h-1v1h-1v1h-1v1h-1v1h-1v1h-1v1h-1v1h-1v1h-1v1h-2v1h-1v1h-1v1h-1v1h-1v1h-1l-1,1h-1v1h-1v1h-1v1h-2v1h-1v1h-1l-1,1h-1v1h-1v1h-2v1h-1v1h-2v1h-1l-1,1h-1v1h-2v1h-1v1h-2v1h-2v1h-1l-1,1h-1v1h-2v1h-2v1h-2v1h-2v1h-2v1h-2v1h-2v1h-2l-1,1h-2v1h-2v1h-2"/>
<rect x="95" y="845" width="24" height="23" fill-opacity="0" stroke="#ffffff" stroke-opacity="0.5" stroke-width="5.0"/>
<rect x="97" y="847" width="24" height="23" fill-opacity="0" stroke="#113311" stroke-opacity="0.8" stroke-width="5.0"/>
<rect x="96" y="846" width="24" height="23" fill-opacity="0" stroke="#45a249" stroke-opacity="0.9" stroke-width="5.0"/>
<rect x="591" y="591" width="409" height="409" fill="#ffffff" fill-opacity="1.0"/>
<rect x="594" y="594" width="402" height="402" fill="#000000" fill-opacity="1.0"/>
<rect x="600" y="600" width="400" height="400" fill="#70add3" fill-opacity="1.0"/>
<path class="zl" d="M603,714l-3,-1v-1h1l2,1ZM740,606v-6h108v1l-1,2l-1,1h-2l-2,1l-1,1v4h1l3,-2h1v1l-3,8l-2,9l-2,5l-1,7l-2,3l-1,3h-1l-3,-6l-2,-1l-1,-2l2,-7l-1,-4l-2,1l-1,2l-3,2v2l-2,5l-1,1l-2,4l2,1l2,-1h4l1,5v3l-4,10v3l-2,5l2,3l-2,5v3l-1,4l1,8l-1,11l-3,5l-2,2l-4,5l-4,2l-6,8l-1,2v2l2,1h2l6,4l2,-3l-1,-2l-1,-1v-1l13,8l3,1l3,-3h1l3,-3l2,-1l5,-1h3l3,3l2,1l3,-1h3l13,2l5,-1h14l5,-3l4,-1l5,-2l-2,-2l7,1l10,3l10,-1l4,-2h3l11,3l3,3h2l2,-1l-2,-1l-1,-1l9,2l17,14l-7,-4l-4,1h-1v3l1,1h1l1,-1l3,1l2,1l3,2l1,3h2l1,-2h3l2,2l1,-1l-2,-2l-4,-2l1,-1l9,5l3,5l2,1l2,2v1l-1,1l-3,4v-2l-2,-1l-1,2l-1,1l1,2h1l2,1l4,14l-3,7l-2,3l-2,2l-3,9l-2,15l2,13l-1,12l2,6l-2,1h-1l-1,-2v-2l1,-2v-5l-1,4l-4,2l-1,1l4,8l-1,2v7h-1v-1h-2v4l-1,2l-1,1l1,1h3l2,4v2l-3,3l-1,2l-2,3l-1,3v2l1,5l3,5l2,2l2,1l1,1l1,2v3l5,9l4,5l7,10l2,1v58h-1v-6l-1,-3l-8,-4l-3,1l2,3l4,3l1,2l-1,2h-2l-3,-1h-3l-2,-2l-5,-4l3,-4l1,-3v-5l-1,-3l-3,-4l-6,-4l-7,-3l-4,-3l-9,-2l-6,-4v-5l-2,-4l-11,-7l-6,-3l-1,-2h-1l1,5l3,3l8,4l1,3l-4,4l-2,1v2l-2,1l-7,-8l-10,-3l-2,-2l-4,-6l-2,-5v-4l5,-6l1,-2v-4l-2,-2l-6,-3v-1l5,-2v-4l-3,-4l-4,-4l-18,-14l-10,-15l-3,-3l-9,-6l-12,-12l-7,-5v-2l3,-3h1l2,2l2,3h2l1,-1v-5l-2,-2l-2,-3l-1,-2v-2l-4,-2l-3,1h-2l-2,-1h-1l1,4l-4,4h-8l-8,-1l-6,-3h-4l1,1h3l3,2l-1,1l-12,-4l-14,-7l-8,-1l-10,-2l-5,-4l-17,-8l-5,-1h-18l-8,-2l-9,-4l-6,-4l-14,-13l-9,-9l-9,-11l-8,-6l-4,-5l-13,-11l-6,-4l-6,-6l-5,-4l-6,-2l-2,-1l-2,-2h-1l-1,2l4,2h2l7,4l1,2l-15,-6l-7,-1v-1l3,-3l-1,-1h-1l-4,2h-1v-3l-2,-2h-1v-74l5,1l8,12l3,1h2l7,-1l14,-5l7,-3h11l3,1l8,-2l6,-3v-2l8,-1l1,-1h8l3,-1h5l3,3v1l-3,1l1,2l4,2l7,1l2,-1l3,-3l6,-3v-3l-1,-2h-2v-1l1,-2l-1,-1l-3,2h-1l1,-1v-1l10,-5l6,-4Z"/>
<path class="zp" d="M600,713v-1M740,600h108M1000,930v58M600,706v-74"/>
<path class="zl" d="M708,629l-4,1v-1l7,-3h2v1l-4,1ZM883,710l-5,2h-2l3,-2l4,-2h6ZM901,707l-2,2l-1,-1l3,-3h2l-1,1ZM832,656l-2,1l2,-4l1,-5h2v1ZM835,674l-3,4v-1l1,-4l2,-1l1,-1v-2l1,1v2Z"/>
<path class="zh" d="M760,802l-1,-2v-2h1l2,-2v-1h1l3,-3h1l1,-1h2v1h1v-2l2,-2v-1l1,-1h1l4,-1v-1h-1v-2h-1v-3h1v1l2,-2h1l1,1v-1h2l1,1h2l2,1h1l2,1v-1l1,-1v1h1v1l1,1h1v2h1v1h1v2h1v-1h1l1,1v1l1,1v1l1,-1l1,1l1,-1l1,1l-1,1l1,1h1v1h5l1,1h1v4h2l1,-1h1v1v-1h2l2,-2h1l-1,-1v-1h1l1,1h1l1,-1h1l1,1v1l2,2v1l2,-1h4v-1h1v1l1,1h1l1,1h1l-1,1v3h-1v3l-1,2v2h2v2l-3,2l-1,-1l-1,1v1l2,2h1v2h-1l-3,1v2h-14v-1l-1,-1v1h-2v1l1,-1v1h-2v-1l1,-1h-1l-1,-1v1h-2l-1,-2h-5l-1,1h6v1h-2l3,1h2v1h-1l-1,-1l-9,-2h-1l-12,-6l-3,-2h-9l-2,-1h-1l-2,-1l-1,1h-4v-1l-1,-1v-1l-1,-1l-3,-1l-2,-1Z"/>
<rect class="zh" x="840.5" y="820.5" width="1" height="1"/>
<rect class="zh" x="838.5" y="819.5" width="1" height="1"/>
<path class="zw" d="M940,887l1,2v2l1,1l-3,3h-6l-3,-1l-5,-1l-5,-2l-10,-5l-1,-1l-1,-2l-2,-3l-1,-3l-1,-2v-1l-1,-1v-4l-1,-2v-5l1,-1v-2l2,-1h1l4,2l6,4l2,1l3,2l3,3l5,4l4,4l5,7ZM801,733l-3,3l-1,2l-1,3l-2,2l-3,1h-4v1l-3,-3v-1l4,-2l3,-1l7,-4l3,-2l1,-1v1ZM895,851l1,2l-1,2l-2,1h-5l1,-1v-2h-6l-2,-1l-1,-1l-1,-2v-1h4l2,-2h4l2,3l3,2Z"/>
<path class="zb" d="M980,899v2l-2,2l-4,2h-3l-6,-1h-3l-1,-1v-1l-5,-5h-5l-5,-2h-2l-3,1l-4,3l-9,-4l-13,-4l-1,-1l-2,1l-1,1l-1,2l-1,1h-1M993,756h-8l-4,1l-4,4l-1,-1l-2,1l-4,3h-7l-1,1v1h-3l-2,-1l-1,1v2l-2,-1l-4,2l-3,1l-3,-1l-3,-2l-2,-3h-3l-4,2l-2,2v2l1,1l-1,1h-2l-2,2l-1,3v2l1,1l-1,1l-3,1l-3,2l-3,4l-3,3l-4,2l-2,2l1,2h-1v1h-1l-7,-4l-2,-3h-2l-5,5l-3,5h-13l-2,2l1,2l1,8v5h-5l-2,2v4l-1,2l-2,1l-1,1l-10,1M823,733l-2,1l-3,3l-6,4l-5,5l-5,3l-4,4l-6,3l-1,1l-1,5l-1,1l2,7v2l-4,3l-2,2l-1,2M800,727h-11v-9l1,-13v-20l1,-7v-18M820,637h-5l-2,1l-2,5l-6,8l-2,4l-1,1l-2,1l-1,-1l-4,-2l-3,1l-1,2v3h-60v6l-1,7v6h-13v1l2,1l4,3l3,5l5,4l5,3l4,2l1,3l1,2v2l2,2l4,1l1,1v2l-1,3v7h-18l-8,-1h-17l-8,13l-4,7l-4,8v1l4,6l-1,2h-1l-1,2v2l-1,3l1,2v2l-2,4v1"/>
</svg>
