<?xml version="1.0" encoding="UTF-8" standalone="no"?>
<svg xmlns:svg="http://www.w3.org/2000/svg" xmlns="http://www.w3.org/2000/svg" xmlns:xlink="http://www.w3.org/1999/xlink" height="1000" width="1000">
<!-- made with pythonshp (GPL): github.com/sanjayrao77/pythonshp , underlying data may come from naturalearthdata.com -->
<!-- 
COPYRIGHT: THIS SVG FILE IS RELEASED INTO THE PUBLIC DOMAIN
 -->
<!-- 
vars : {
	'cmdline' : 'pythonshp.py publicdomain wiki1 eswatini locatormap'
	'title' : 'eSwatini locator'
	'version' : '1.0.5'
}
 -->
<defs>
	<radialGradient id="watergradient" cx="500" cy="500" r="500" fx="500" fy="500" gradientUnits="userSpaceOnUse">
		<stop offset="0%" stop-color="#70add3"/>
		<stop offset="11%" stop-color="#6eaad0"/>
		<stop offset="22%" stop-color="#6ca7cc"/>
		<stop offset="31%" stop-color="#6ba5c9"/>
		<stop offset="41%" stop-color="#69a2c6"/>
		<stop offset="51%" stop-color="#679fc2"/>
		<stop offset="59%" stop-color="#669dbf"/>
		<stop offset="67%" stop-color="#649abc"/>
		<stop offset="75%" stop-color="#6297b9"/>
		<stop offset="81%" stop-color="#6095b6"/>
		<stop offset="87%" stop-color="#5f92b2"/>
		<stop offset="92%" stop-color="#5d8faf"/>
		<stop offset="95%" stop-color="#5b8dac"/>
		<stop offset="98%" stop-color="#598aa8"/>
		<stop offset="100%" stop-color="#5685a2"/>
	</radialGradient>
	<radialGradient id="landgradient" cx="500" cy="500" r="500" fx="500" fy="500" gradientUnits="userSpaceOnUse">
		<stop offset="0%" stop-color="#dddddd"/>
		<stop offset="11%" stop-color="#d7d7d7"/>
		<stop offset="22%" stop-color="#d1d1d1"/>
		<stop offset="31%" stop-color="#cccccc"/>
		<stop offset="41%" stop-color="#c6c6c6"/>
		<stop offset="51%" stop-color="#c0c0c0"/>
		<stop offset="59%" stop-color="#bbbbbb"/>
		<stop offset="67%" stop-color="#b5b5b5"/>
		<stop offset="75%" stop-color="#afafaf"/>
		<stop offset="81%" stop-color="#aaaaaa"/>
		<stop offset="87%" stop-color="#a4a4a4"/>
		<stop offset="92%" stop-color="#9e9e9e"/>
		<stop offset="95%" stop-color="#999999"/>
		<stop offset="98%" stop-color="#939393"/>
		<stop offset="100%" stop-color="#888888"/>
	</radialGradient>
	<radialGradient id="bordergradient" cx="500" cy="500" r="500" fx="500" fy="500" gradientUnits="userSpaceOnUse">
		<stop offset="0%" stop-color="#444444"/>
		<stop offset="11%" stop-color="#3f3f3f"/>
		<stop offset="22%" stop-color="#3a3a3a"/>
		<stop offset="31%" stop-color="#363636"/>
		<stop offset="41%" stop-color="#323232"/>
		<stop offset="51%" stop-color="#2d2d2d"/>
		<stop offset="59%" stop-color="#292929"/>
		<stop offset="67%" stop-color="#242424"/>
		<stop offset="75%" stop-color="#1f1f1f"/>
		<stop offset="81%" stop-color="#1b1b1b"/>
		<stop offset="87%" stop-color="#161616"/>
		<stop offset="92%" stop-color="#121212"/>
		<stop offset="95%" stop-color="#0e0e0e"/>
		<stop offset="98%" stop-color="#090909"/>
		<stop offset="100%" stop-color="#000000"/>
	</radialGradient>
</defs>
<style type="text/css">
<![CDATA[
.c3 {stroke:#45a211;fill-opacity:0;stroke-width:3}
.fs {font:14px sans;stroke:#ffffff;stroke-width:2px;stroke-opacity:0.8;text-anchor:middle}
.ft {font:14px sans;fill:#000000;fill-opacity:1;stroke-opacity:0;text-anchor:middle}
.sb {stroke:url(#bordergradient);fill-opacity:0}
.sg {stroke:#000000;fill-opacity:0.0;stroke-opacity:0.2}
.sh {fill:#45a211;stroke:#000000}
.sl {fill:url(#landgradient);stroke:url(#bordergradient)}
.sp {stroke:url(#landgradient);fill-opacity:0}
.sr {stroke:url(#watergradient);fill-opacity:0}
.sw {fill:url(#watergradient);stroke:url(#watergradient);stroke-opacity:0.8}
.tb {fill:#eeeeee;stroke:black;stroke-width:2}
.tg {stroke:black;stroke-opacity:0.2;fill-opacity:0}
.th {fill:#45a211;stroke:#378100}
.tl {fill:#aaaaaa;stroke:black}
.w3 {stroke:#ffffff;fill-opacity:0;stroke-opacity:0.6;stroke-width:3}
.zb {stroke:#444444;fill-opacity:0}
.zh {fill:#45a211;stroke:#115511}
.zl {fill:#dddddd;stroke:#444444}
.zp {stroke:#dddddd;stroke-dasharray:3 3;fill-opacity:0}
]]>
</style>
<circle cx="500.0" cy="500.0" r="500.0" fill="url(#watergradient)"/>
<path class="sl" d="M467,27h1v-1h-3l-1,-1h1h-1v-1h2l1,-1h7v-1h1l3,1h6l-1,1h-1v3h1h-1l-1,1h1l1,1h-1v1h1v1h1v1h3v1l1,-1l1,1h7v1h1v1h1l-1,1l1,1h1h-1h1v1h2l1,1v1h3l1,1h1h-2v1h-6v1h1v1h1v1h1v1h2v-1h10v1l2,1h-1v2h5v1h1l1,1v1h5v1h3l1,-1h2l1,1h1l1,1h4l1,1h4l1,1h3v2h-2v1h1h-1v1h1l1,1v1l-1,1h1h-6l-1,1h-2v2h-4l-1,1h-5l-1,1h-3l-2,1l-1,1h-1l1,-1v-1l-1,1h-1v2l1,1h-1l-1,-1v-1h-1l-1,1v-1h-2l-2,-1h-1v1h-2v-1l-2,1h-4l-1,-1h-1v-1h-1h2v-1h-1v-1l-1,-1v1h1v1h-3l-1,1l-1,-1l-2,1v1h-1l-2,2h-4v4l-1,1h-3v-1h-1v2l-1,1h-1v4h-3l-2,2v2h-1l-2,1h1l1,1h1l1,1v2h1l1,1l4,1v1h-10l-2,2l-2,1h-1l-2,1l-1,1h-1v-1h1l1,-1h2v-1h-1l-2,1l-1,-1v1l-2,-2h-9l-2,1h-3v1h1v1h2v1h1h-1l-1,-1h-2v1h1v1h-1l-1,-1h-2l1,1h1v1l-2,-1v-1h-1l-2,-1l1,-1h-1l-2,2v1l2,2v1h1l1,1v1h-1v-1h-2v1h1l-1,1h-1v1h3l1,1h1l1,1h2v4h-1v-1l-1,-1h-5v1h1v1h2v1h-2v1l-1,-1h-1l-1,-1v1l1,1v1l1,1v1h-1l1,1v1l-2,-2h-2l-1,1v1v-2l-1,-1h-2v1h-1l-1,-2l1,-1l-2,-2h-1v-1h-1l2,-1v-1h3v-1h1l2,1h2l1,1h3v-1h-2v-1h-8v1h-1v-1h-1l-1,1v-1h-1v-1l-1,-1l1,-1l1,1v-1h-2l-1,-1h-2v-2h-1v-1l-1,-1l-2,-1h-1v-1h1l-1,-1l2,-2v-2l1,-1v-1h-1l-2,-2l-2,-1h-1v-1h-2l-1,-1h-2l-1,-1h-1l-1,-1h-2l-1,-1l-1,1h-2v-1l-1,-1h-1l-1,-1h-1l1,-1h1h-1l-1,-1v-2l-1,-1h-2v1h-1l-1,1h-2v-3h2l-1,-1h-3v1h-1l-1,1h-3l-1,1l1,1v1h-1l-1,1v2l1,1h1l2,1h2v2l1,2v1h1l1,2h2l2,1h6l-1,1h-1v1l7,2h1l1,1h2l1,1l2,1v2h-1v1l-1,-1h-1l-1,-2h-3l-1,-1h-1v1h-1l-2,1l-1,2v1h2l1,1v3h-3l-1,1v1l-1,1l-2,1l-2,2h-2v-2h1l1,-1v-1h1v-1h1l1,-1h-1v-2l-1,-1v-2l-1,-1h-4l1,-1v-1h-4l1,-1h-2l-1,-1v-1h-6l-1,-1l-2,-1v-1h-2v-1l-1,-1h-2l-1,-1v-1h-2v-1h1v-1l-1,-1l1,-1l-1,-1h-2l-2,-1h-4l-2,1l-2,2h-2l-2,1h-2l-2,2h-1l-1,1h-2l-1,1h-4v-1h-9l-3,2l-3,3v1h1v1h-2v1h1l-1,1h-1l-1,1l-6,3l-3,1h-3l-1,1l-2,1v1h-2l-4,4h-1l-3,3v1l-1,2h1l1,1h-1l-1,1l-3,1l-1,1v1h-1l-1,1v1h-1v1h-1l-3,1l-2,1l-4,4h-3l-1,1h-3l-1,1h-6v1h-1l-1,1h-1l-2,1l-2,2h-1v1h-2v-1h-1v-3h1v-1h1h-1l-1,1v-1l-1,-1h-2l-1,1l-3,1h-4v1h-2l4,-4v-1l1,-2l1,-1h1h-1v-1v1h-2v-1h1l1,-1h-1v1h-1v-1h1v-1l1,-1v-1h1l3,-3l2,-1v-1l2,-2v-1h1l1,-1v-1l1,-1v-1l1,-1v-1h1h-1l2,-2v-1h1v-1h-1l1,-1v-1h1v-1h1l1,-1h2l1,-1h1v-1h2l1,-1h1l1,1l1,-1h4l2,-1h7l1,-1h9l2,-1h2l1,-1l2,-3l3,-2v-1h1h-1l4,-4l1,1l-1,1h1h-1l1,-2l-1,-1h1v-1l1,-1v-1h-3v-2h1v-1h2l-1,-1l-2,1v-1h1h-5l-1,-1l-1,1h-1v-1h-1h2v-1h-1h2l-1,-1v1h-1v-1h1l1,-1h3l1,-1h8v-1h3v-1l1,-1v-2h2l1,-1v2l1,-1v1l2,-1h3l1,-1h1h-1v-1l3,-1h1l2,-1h1l1,-1h1l1,-2h1l1,-1h1l6,-2h5l1,-1h-1h1v-1h1h-1l1,-1h1v-1h2v-1h1l2,-2h2l2,-1h1v-1h2l1,-1h5l1,-1h6l1,-1h2l1,-1h1l1,1l-1,-1h-2l1,-1h-1h1l1,-1l-1,-1h6v1h-1h5l-1,1h2l2,-1h3l1,-1h3l1,1h2v1h3v-1h-1h2l7,-2h2l1,-1h3l1,-1h6v1h5l1,-1h1l1,-1h3l1,-1h1l1,-1v1h-1l-2,1h3v-2h1l-1,-1l1,-1v-2h2v-1h1v-1h2l1,-1h3l2,1v1h4l1,-1h1v-1Z"/>
<path class="sl" d="M178,883v-1h-1v-1h-1l-4,-4h-1l-7,-7h-1v-1l-1,-1h-1l-3,-3v-1h-1l-7,-7h-1v-1l-3,-3h-1v-1l-3,-3h-1v-1l-3,-3v-1h-1l-3,-3v-1h-1l-1,-1v-1l-7,-7v-1l-2,-2h-1v-1l-3,-3v-1h-1l-1,-1v-1l-3,-3v-1l-2,-2h-1v-1l-3,-3v-1l-4,-4v-1l-3,-3v-1l-2,-2v-1l-1,-1h-1v-1l-1,-1v-1l-2,-2v-1l-3,-3v-1l-2,-2v-1l-3,-3v-1l-2,-2v-1l-2,-2v-1l-2,-2v-1l-1,-1v-1l-2,-2v-1l-2,-2v-1l-1,-1v-1l-2,-2v-1l-1,-1v-1l-2,-2v-1l-2,-2v-1l-1,-1v-1l-1,-1v-1l-1,-1v-1l-1,-1v-1l-2,-2v-1l-1,-1v-1l-1,-1v-1l-1,-1v-1l-2,-2v-2l-1,-1v-1l-2,-2v-2l-2,-2v-1l-1,-1v-2l-1,-1v-1l-1,-1v-1l-1,-1v-1l-1,-1v-1l-1,-1v-1l-1,-1v-2l-2,-2v-2l-1,-1v-2l-2,-2v-2l-1,-1v-2l-1,-1v-1l-1,-1v-1l-1,-1v-2l-1,-1v-1l-1,-1v-2l-1,-1v-2l-1,-1v-1l-1,-1v-2l-1,-1v-2l-1,-1v-2l-1,-1v-2l-1,-1v-2l-1,-1v-2l-1,-1v-2l-1,-1v-3l-1,-1v-1l-1,-1v-3l-1,-1v-2l-1,-1v-3l-1,-1v-3l-1,-1v-2l-1,-1v-3l-1,-1v-3l-1,-1v-3l-1,-1v-3l-1,-1v-4l-1,-1v-3l-1,-1v-5l-1,-1v-4l-1,-1v-4l-1,-1v-5l-1,-1v-5l-1,-1v-7l-1,-1v-6l-1,-1v-9l-1,-1v-10l-1,-1v-15l-1,-1v-44l1,-1v-15l1,-1v-10l1,-1v-2l-1,2l1,-1v-6l1,-1v1v-1v1v-1l1,1v25h1v6l-1,2v7h-1v13l-1,1v4l1,-1v-7h1v8l1,-1v-2l1,-2v1l1,-4v1v-9h1v-1v1v-2h1v1v-1h1v2l1,-1v1l1,1v2h1v-1h1v1v-1v3l1,1v1l-1,1v6l1,-2v-2l1,-1v-2l1,-1v-1h1l2,2v-1l1,-1v1h1v-1h1l1,-2h2l1,1h1l1,1v1l2,2v1l1,2l1,1v1l2,1v1h2v1l1,-1h1v-1h2v1l1,2l1,3v2l1,2v5h1v6l1,1v10l-1,2v5h-1v8l-1,1v1l-1,2v21h-1v-2l-1,-1v4l1,1v1l-1,1l1,1v3l1,1v1v-1l1,6l1,2v3l1,3l1,2l1,3v5l1,2v1l2,4v6l1,4v1l1,4l1,1v5l1,2v8l1,2v2l1,1l1,3v1l-1,2v1l1,3v2l1,1h-1l-1,1v1l-1,-1v-1h-1v1h1v2l-1,1v-1h-1v1l-1,1l1,1v7h-1v4l1,2v5l1,2v3l1,1l-1,-1v1v-1v3h1l1,2v1l1,2v1h1v2h1v1l1,1v2h1v1l1,1v2l2,4l1,1v1l1,1v2l1,2v2l3,6l2,5l3,6v2l2,4v2l1,1v1v-1l-1,-1v-1v1v-1l-1,-2v-1l-1,-1v-2h-1l1,-1h-1v-2l-1,-1l-1,-2v-1l-1,-1v1h-1v-1v1l1,1v1h1v1l1,1h-1l1,1v1h1v1l1,2v2l1,1v1l1,1v1l2,2v2l2,3l2,2v1l1,2l1,3v1l1,1l1,2l1,1v1l1,2l1,3h-1v1h-1l-1,-1v1h-1v-1l-3,-3l-1,-2l-1,-1v-1h-1v-2h-1v-1l-1,-2h-1h1l1,3l1,1v1l1,1l2,3l1,1v1h1v1l2,2v1h1l4,4l1,2l2,2v1l1,1h1l2,2v1l1,1l2,4l3,3l1,2l1,3l2,3v2h1l1,3v1h-1l6,6v1h1l1,2l1,1v1l2,1v1h1l1,2v1h1v1h-1v-1h-1l3,3v1l3,3l2,1v1h1l1,1l-1,-1v-1v1v-1h-1v-1l1,1v1l1,1h1v1h1v1l-1,-1h-1h1v1h1v1h1v1h1v1h1v1l11,11v1h1l1,1v1h1l2,3l1,1l2,1v1l1,1h1v1h1l3,2h-1h1l2,2h1v1h1v1h1v1h1l2,2v1h1l6,6l4,3l1,1l-1,-1v1h1l2,2h1v1l1,1h1l3,3l2,1l1,1h1v1l2,1l1,1h1v1h1l1,1v1h1l3,3h1l2,2h1v1h1l2,2h1h-1l-1,-1h-1l-1,-1h1v1h1h-1l-1,-1l-2,-1v-1l-1,-1h-1l2,2h1l1,1h1v1h1v1v-1h-1l-2,-2h-1v-1h-1h1v1v-1l-2,-1h-1v-1v1h1v1h1l1,1h1v1h1v1v-1h-1l-2,-2h-1h1l1,1h1h-1l-1,-1h-1v-1h-1h1h-1h1h-1l-1,-1h1h-1l-1,-1h-1h1l1,1h1v1v-1h-1l-1,-1h-1v-1h-1v-1h-1h1v1h1l2,2h-1v-1h-1v-1l-2,-1h-1l-3,-3h-1v-1v1l2,1l-1,-1h-1v-1h-1v-1v1l2,1l1,1l-1,-1h-1v-1h-1v-1h-1l-1,-1h-1v-1h-1v-1h-1v-1h-1l-1,-1h-1v-1h-1v-1v1h1l2,2l-2,-1l-3,-3v-1h-1l-3,-3Z"/>
<path class="sp" d="M176,881l-4,-4h-1l-7,-7h-1v-1l-1,-1h-1l-3,-3v-1h-1l-7,-7h-1v-1l-3,-3h-1v-1l-3,-3h-1v-1l-3,-3v-1h-1l-3,-3v-1h-1l-1,-1v-1l-7,-7v-1l-2,-2h-1v-1l-3,-3v-1h-1l-1,-1v-1l-3,-3v-1l-2,-2h-1v-1l-3,-3v-1l-4,-4v-1l-3,-3v-1l-2,-2v-1l-1,-1h-1v-1l-1,-1v-1l-2,-2v-1l-3,-3v-1l-2,-2v-1l-3,-3v-1l-2,-2v-1l-2,-2v-1l-2,-2v-1l-1,-1v-1l-2,-2v-1l-2,-2v-1l-1,-1v-1l-2,-2v-1l-1,-1v-1l-2,-2v-1l-2,-2v-1l-1,-1v-1l-1,-1v-1l-1,-1v-1l-1,-1v-1l-2,-2v-1l-1,-1v-1l-1,-1v-1l-1,-1v-1l-2,-2v-2l-1,-1v-1l-2,-2v-2l-2,-2v-1l-1,-1v-2l-1,-1v-1l-1,-1v-1l-1,-1v-1l-1,-1v-1l-1,-1v-1l-1,-1v-2l-2,-2v-2l-1,-1v-2l-2,-2v-2l-1,-1v-2l-1,-1v-1l-1,-1v-1l-1,-1v-2l-1,-1v-1l-1,-1v-2l-1,-1v-2l-1,-1v-1l-1,-1v-2l-1,-1v-2l-1,-1v-2l-1,-1v-2l-1,-1v-2l-1,-1v-2l-1,-1v-2l-1,-1v-3l-1,-1v-1l-1,-1v-3l-1,-1v-2l-1,-1v-3l-1,-1v-3l-1,-1v-2l-1,-1v-3l-1,-1v-3l-1,-1v-3l-1,-1v-3l-1,-1v-4l-1,-1v-3l-1,-1v-5l-1,-1v-4l-1,-1v-4l-1,-1v-5l-1,-1v-5l-1,-1v-7l-1,-1v-6l-1,-1v-9l-1,-1v-10l-1,-1v-15l-1,-1v-44l1,-1v-15l1,-1v-10l1,-1v-2M185,889l-3,-3v-1h-1l-3,-3"/>
<path class="sl" d="M577,477v1l1,1l-1,1h1l-1,1v1h1l-2,2v1l1,1l-1,1l1,2v9h-1v1h1v11h1l-1,1v2l1,-1h1v3h-1v2h-1v2l-1,2l-4,4v1l-1,1h-1v2h-1l-1,1l-3,2h-1v1l-2,1h-2l-2,1h-2l-1,1l-2,1l-3,1l-2,2l-2,1l-1,1v1l-3,3v1l-2,2v-1l-1,1l-2,1h-1l-1,2l-3,3l-3,2h-1l-1,-1h-1l1,1v7l2,2l1,3v2l1,2v7h1v-3h1v8l-1,1l-1,6h2l-1,2v1l-4,4l-12,4l-1,1l-3,2l-1,1l-1,2h-1v2l1,1h1v-1h1l-1,6v2l-2,5l-1,5l-1,2l-3,3v1h-1l-4,4l-3,6l-3,5l-2,2l-2,3l-1,1h-1l-2,2l-2,3l-5,5l-2,1l-3,3l-3,2l-2,1l-3,2h-6l-1,1v2h-1l-2,-1h-2v1l-1,1h-1l-3,-1h-5l-1,1h-3l-2,-1h-1l-1,1h-1l-3,2h-2l-1,1h-4l-2,1h-1l-2,2h-3l-2,-1h-1h1l-1,-1h-1v-1h-2v-1l-1,-1h-2v2l-1,-1v-2h1v-1l-2,-2v-1l-3,-3v-1l-1,-1v-1h1v1l1,-1h1v-5l-1,-3l-3,-3l-7,-10l-2,-6l-4,-6h-1l-4,-4l-2,-1l-3,-5l-1,-1l-1,-2v-2l-1,-1l1,-1h-1v-1l-1,-1l-2,-5v-4l-1,-2v-2l-2,-2l-1,-3v-1l-1,-3v-3l-1,-2v-2h1v-1l-2,-5l-4,-4l-1,-2l-5,-7l-2,-5l-6,-9l-3,-3h-1v-2l-2,-2l-1,-2v-11l-1,-6l1,-1v-1l1,-1v-2l2,-11v-5l3,-4l2,-4l2,-1l2,-4v-5l1,-4l-1,-1v-2l-1,-1v-1h-1l-2,-4l-1,-1v-3l-2,-2v-2l3,-3v-1l-1,-1l1,-1l-3,-5l-3,-7l-3,-5l-1,-1v-1h1l1,-1h2l2,-1v-1h-2v1l-1,1h-2l-2,-2v-4l-2,-2v-1h-1v-1l-1,-1v-1l-12,-12l-3,-2l-2,-2v-1v1h2l-1,-1h-2v-2l-2,-1v-1h1l-1,-1h-1v-1l-1,-1v-1l2,2l1,-1v-1l-1,1l-1,-1l1,-1h-1v1l-1,-1l-1,-2h-1v-1l-1,-3l1,1h1v-1h1l2,-5v-1l-1,-2h1v1h2l1,1h1v-1h1v-1l-2,1l-2,-1l-1,-1v-1l1,-1l1,1v-4l-1,-1h-1l1,-1v-2l1,-1l1,-2l1,-1l-1,-1l1,-2v-5l1,-2v-1l-2,-2l1,-1h-1l-1,-1v-1h1v-2l-1,1v-1h-1l1,1h-1v1h-1v-1h-2l-1,-2v-2h-1l-1,-1v1h-1v-1h-1v-1h-1v2h-2l-2,1h-2v-1v1h-3v-1h-1l1,1l-1,2h-1v-1h-1v-1v1l1,1h-2v-1h-1v2h-2v-1h-1v1h-2l-3,-3v-2l-1,-1h1l-1,-1v-1h1v-1h1l-2,1l-1,-1v-1h1v-1v1h-2v-1l-3,-3l-4,-2l-5,1v-1l2,-1l-2,1l-1,1l-5,1l-7,2h-1l-3,1l-2,2v1l-2,1h-1l-3,1l-3,2h-1l-1,1l-2,1l-1,1l-5,2l-2,2l-2,1h-2v-1h-6l1,-1h-1v-1l-1,1v1h-4l-1,-1h-2l-2,1l3,-1h1v1l-4,1h-5v1l1,-1l1,1l-4,1l-2,1h-1l-4,3l-2,1l-1,1l-2,1l-1,1h-1l-3,-1h-1l-8,-4l-1,-2l-4,-4h-2l-1,-1v-1l-1,-1h-2l-1,-2l-2,-1l-1,-1h-3v-3h-2v-3h-1l-1,-1v-2l1,1l1,-1v-1h-1v1l-1,-1l2,-2h-1l-1,-1l1,-1l-1,-1v-1l-1,-1l-1,1l1,-1v-3l-1,1l-1,-1v-1h-2l-1,-2v-3h-1l-1,1v-2l-1,1v-1l-1,-1v-1h1h-1v-1l1,-1h2l-1,-1l-1,1l-1,-1l1,-1h1l1,-1h-1l-1,1h-1l-2,2v-2l-1,1h-1v-2h1v-1h-1l-1,1l-1,-1v-1l1,-1h1l-1,-1v1h-1v-1l1,-1v-4l1,-1v1h2l1,-1h1l1,-1h2v-1h-1l-1,1l-2,1l-1,1h-1v-3l-1,-1v-1h1h-1v-3h-1v-2h-1l-1,1v-1h1l2,-2l2,-3l2,-4l1,-1v-3l1,-2v-1l2,-2l2,-6l2,-5v-3l1,-3l-1,-1v-1h1v-1h-1l2,-2l1,-2v-5h-1v1v-3h-1l1,-2v-1l1,-3l2,-2v-1l3,-3l1,-2l1,-1v-1l1,-1l1,-2l2,-2v-1l-1,1v1v-1l8,-8l2,-4l1,-1l2,-4h1l1,-2v-1h1l4,-4h1l1,-1l3,-5l4,-4h2l6,-4h1l3,-3l3,-2l9,-9l1,-2l-1,-1v-1l1,-1v-1l2,-2l1,-2l4,-4l1,-2l4,-3l2,-2l7,-4l3,-1l7,-7l6,-7h2l1,-1h1h-1v3h1l1,1h2l2,-1h1l1,-1v1l2,-1h2l1,-1h-1l1,1h5l2,-1l1,-1h1l2,-2h2l3,-2h2l2,-2h1l4,-2l1,-1h2l7,-2h1l2,-1h1l3,-1h2l7,-1h1l1,1h1l2,-1l3,-1h1l1,-1h5v-1h3l1,1h2l3,-1h1l2,-1l1,-1l4,-1h1l-1,1h1v-1h1l1,1l-1,1h1l-1,1h2v-1h2l1,-1h1v1l-1,1l-2,1l-1,1h-1v1l-1,1l1,1h1l1,1v2l-1,2l-1,1l-2,1l-1,1l-3,1v1h-1v2l1,1h2v1h2v-1h1v1l1,1h-1h2l1,1h1l3,1h3l3,-1h3l1,1h3l2,1h5v1l1,1l-1,1l1,1v1h1v1h1l2,1h9l3,1l1,1h1l4,2l1,1h3l2,-1l1,-1l3,-2l1,-1v-2l-1,-1v-2l1,-1v-1l1,-1l4,-2l3,-1h2l1,-1h1l1,-1l1,1l2,-1l2,1h2l2,1h1v2l6,1l1,1h3l1,-1l1,1h1l1,1v1h12l4,1l2,1h2l1,1h6l1,1h4l1,-1l3,-1l1,-1h2v-1h1l1,1l1,-1h2v-1h1l3,1h3l1,1l-2,-1l-1,1l1,1h3v-1h1l2,2l1,-1h3v1l1,-1h4l2,-1h1v1l1,1v1l1,2v1l1,1l1,2v1l1,1v1l-1,1l-2,6v2l-2,2l-1,-1l-4,-2l-3,-3v-2l-3,-3v-1l-2,-2l-1,1v1l2,2v2l2,2v1h1l1,2l2,1h1v3l1,1v1h1l1,1v1l1,2v1l3,4l2,4l2,2l3,4l1,2h1l1,1l2,1h-2l-1,1l1,2v2l1,2l1,1h1l2,1l2,2l3,2l1,1v3l3,3v1v-1h-1v2l1,1v4l1,3v1l1,4l1,2v1h2l1,1l2,1v1h1l1,1l2,1l4,7l2,7l1,2l1,1l1,2l1,1v2h1v-2h1l1,1v1l2,2h2l1,1l5,2l2,3l2,2l5,3l1,2v1h1l4,4l1,-1l1,1v1l2,2v3h-1l-4,2l-1,1h-1v1h1l1,-1h3l1,1l2,1l2,3l1,2l3,2l1,1h6l6,-2l1,-1l2,1h4l5,-2l2,-1v1h5l3,-1h2l2,1h1l3,-1h2l7,-2v-1l1,-1h1l3,1l1,1v1l-1,1v3l1,4l-1,1v1l1,-1h2v1h-4v8l-2,2l-2,4v1l-4,4v2l-1,2l-1,1l-2,4l-1,3l-7,12l-2,3l-4,4l-5,6l-7,6l-10,5l-5,3l-2,3l-3,2l-9,9h-1v1l-5,5v1h-1l-2,4l-3,3h-3v2l-2,2h-2l-2,2v2l-1,2l-1,1v1l-1,1v2l-1,1v1h-1v1l-1,3l-1,1h-2v3l-1,1v1l-1,3v1l-1,2v4l1,1h1v1l4,4v1h-1l-1,1v4l1,1v1l-1,2v4l1,2l1,3v2l1,1v4h1l1,1h1v1h1l1,1h1Z"/>
<path class="sl" d="M565,93l2,-2l-1,-1l-1,-2l-1,-1l-2,-1h-1l-1,-1h-3l-2,-1l-1,-1v-1h1l1,1h4l1,1h3l3,1h6v1h1l2,1h3v1h-1h9l1,1h3v2h2v1h3v1h-1v1h1l1,1h1l1,1l-1,1h-1l-1,-1h-3v-1h-1h-1l-1,-1h-1l-1,1l2,2h2v1h-1v1h1l1,1h1l2,1v1h-2l1,1h1l1,1h2l1,1h-1l1,1h1v1h-1v-1v1h1v1h-3v-1l-3,-3h-1l-1,1v-1h-2v-1h-2v1l1,1h1l1,1h1v1h2l2,1h4l2,-1h1l1,-1h1l1,-1h4l1,1l-1,1l1,1h1h-1v1h-1l1,1h1v1h1l1,1h2l1,1v1l2,2h1l1,1h2l2,1h2l1,2h2l2,2h2l7,2l7,-1h3l1,1l1,-1h-1l-1,-2h2l1,-1h2v-1l1,-1h1l1,-1h1l1,1h3v-1h3l1,1h3v1h1v1h3l1,1l2,1h4l2,1h1v1l1,1h1l1,1h1l2,2l2,1h2l3,1v1l2,2h-1l2,2v3l1,1v2h-1h1h-1v1h-1h1l1,1h-2v1l1,2v1h1v1h2l-1,1v2l2,2l1,3h1v3h1v2h4l2,1l1,1v1l1,1v1l-2,2l-1,2l-1,1l1,1l2,1l1,2l3,3v1l1,1l2,1h1l4,2h1v2l1,1l1,2v2h3v1h1v3l-1,1l-2,-1h-2v1h-1v1v-1l-1,1h-1v7l-1,1l-1,-1h-1l-3,-1l-2,-2v1l-3,-1h-3l-1,-1h-3l-2,-1h-3l-1,-1h-1l-1,-1l-1,1l-1,-1l-2,-1l-1,-1h-1v-1l-2,-4v-1l-2,-2h-1l-3,-1h-1l-1,1h-3v1h-2l-2,1l-1,1l-1,-1h-1l-2,-1h-3l-2,-2h-1l-1,-1l-5,-2l-1,-1v-1h-1l-4,-2h-2l-3,-3h-1l-2,-4l-1,-1h-1v-1l-1,-1h-1v-1l-2,-2l-1,-2h-1v-1l-1,-1h-1l-2,1l-4,-2h-1v-1h1v1l1,-1h-3v1h1v1l-1,1h-3l-2,-1h-1v1h1v1l1,1h-1l-1,1h-1h2l1,1v1l2,2v1h1v1l1,1l1,2l2,1v2h1l1,1h1v1l2,2h1l4,2l1,2v-1h-1v1h1v1h1v2h-1l1,1v1l1,1v1h1l2,2v1l2,2v1h1l1,1h2l1,1v1h1l1,1v-1v1h1l1,1v1h3l2,-1h1l3,1h2l4,1l2,-1h2v-2h1v-2l3,-1l1,-1v-1h1v-1l3,-2v-1l1,-1v-1v1h1v-1v1h1v2l-1,1l1,1l1,4l1,2l6,6h1l3,1l1,1h2l2,1h2l3,3v1h1l1,2l3,3h3v3l-2,2v2l-3,3l-2,4v1h-1l-1,-1v-1h-1l-1,2v2l-1,1v2l1,1v1l1,1v1h-1v1l-2,-1l-2,1h-2l-1,2v3l-2,1h-6l-2,2v1h1v1l-2,2h-3l-2,-1h-2l-1,1h-1l-1,1h-4l-4,1l-2,2h-1v2l1,2l-1,1h-1l-1,1h-2l-4,2h-4l-2,1h-3l-3,1h-1l-2,1l-1,1v1l-2,1v1h-4l-2,-1l-1,1h-2l-1,2h-2l-2,1h-8l-3,1h-1l-1,2h-2v1l-2,1h-1l-1,-1l-2,1h-2l-1,1l-1,-1l-2,-1l-1,1v-2l-3,-3l1,-3l-1,-2l-1,-1v-1l-1,-1v-2l-1,-2v-2l-1,-1h-1v-1h1l-1,-3l1,-2l-1,-3v-2l-2,-2v-1h-1v-1l-1,-1v-1l-2,-2l-3,-2l-1,-1l-1,-2l-3,-3v-2l-1,-1l-2,-3v-1h-1v-1l-2,-2l-4,-2h-1l-2,-1l-1,-1l-1,-2l-1,-1l-2,-3v-2l-1,-1v-4l1,-1l-1,-1v-1h-1v-1l-2,-2v-1l-1,-2l-1,-1l-2,-1l-2,-2h-1l-1,-1h-2l-1,-1v-1l-2,-2h1v-2h-1v-1l-2,-3h-1l-1,-1v-1l-5,-5v-1l-2,-1l-1,-2l-1,-1l-1,-2l-2,-2h-5v-1h1l1,-2v-1l1,-4v-2l-1,1v-1l-1,-1v-1l-1,-2l-1,-1v-1l-1,-2v-1l-1,-1l2,-2h-1l2,-2l1,-2l1,-3v-1l1,-1v-1h1l1,1l1,-1v-1v1v-1h2v-1v1h-2v1v-1v1l-1,1l-1,-1h-1v-1h1v-1l1,-2l1,-1v-1l1,-2h2l-1,-1v-4l-1,-1v-2l1,-1h-1v-2l1,-1h1v-1l-1,-1l-1,1h-2v1h-3l-2,-1h-2l-4,2v1h-4l-2,1h-4l-1,-1h-1l-2,-2h-2l-3,-1l-2,-1h-3v2l-1,1v1h-1l-1,-1l-1,1h-5l-1,-1v-1h-1v-1h-6v1h-1v-1h-1l-2,1v-1h-1h4l1,-1h1v-1h-1l-3,1h-3v-1h2v-1h-2v-1l-1,-1h1v-2h-3l-1,-1h-2v-1h1l-1,-1h2v1h2v-1h-1v-1h1l1,-1h-1v-1l-1,-1h1v-1h-5v-1l1,-1h1l1,-1l2,-1h2v-1h2v1h3v-1h-1h2v1l2,-1h3l2,-1h5v-1h-4l-1,-1l1,-1h8l3,1h3v-1h1l6,-3h4l2,-1h12v1l1,1h5l2,2h4l1,1h4l1,1h7l3,-1l3,1h5l1,-1h2Z"/>
<path class="sl" d="M612,13h-1h2ZM599,10h3v1h2l2,1h2l2,1h4l1,1h2v1h4l1,1h2v1h1l2,1h-1h1h-3l-1,-1h-1l1,1h3l2,1h3l-1,-1h-1l-1,-1h-3l-1,-1h2v1h3l2,1h1l3,1h1l1,1h3v1v-1h-2l-2,-1h-2v-1h-2l-2,-1h-1l-3,-1h-3l-2,-1h-2l-1,-1h-2l-2,-1l-6,-1h-1l-1,-1h-1h1l1,1h4l1,1h3l1,1h3l1,1h3l1,1h3l1,1h3l1,1h2l1,1h3l1,1h2l1,1h3l1,1h2l1,1h2l1,1h2l1,1h3l1,1h1l1,1h2l1,1h2l1,1h2l1,1h1l1,1h3l1,1h1l1,1h2l1,1h1l1,1h2l1,1h1l1,1h2l1,1h1l1,1h2l1,1h1l1,1h1l1,1h1l1,1h1l1,1h2l1,1h1l1,1h1l1,1h2l2,2h1l1,1h1l1,1h2l2,2h2l2,2h2l2,2h2l2,2h1l1,1h1l1,1h1l2,2h2l2,2h1l2,2h2l2,2h1l2,2h1l1,1h1l1,1h1l2,2h1l2,2h1l2,2h1l2,2h1l2,2h1l2,2h1l2,2h1l2,2h1l2,2h1l3,3h1l2,2h1l3,3h1l2,2h1l3,3h1l1,1v1h1l2,2h1l4,4h1l2,2v1h1l2,2h1l7,7h1l8,8h1l2,2v1h1l13,13h1v1l8,8v1h1l4,4v1l2,2h1v1l4,4v1h1l1,1v1l4,4v1l5,5v1l4,4v1l5,5v1l2,2v1l3,3v1l3,3v1l2,2v1l4,4v1l2,2v1l2,2v1l2,2v1l2,2v1l2,2v1l2,2v2l2,2v1l2,2v1l2,2v1l2,2v1l1,1v1l2,2v1l1,1v2l2,2v1l2,2v1l1,1v1l1,1v1l1,1v1l1,1v1l2,2v2l2,2v2l2,2v2l2,2v2l2,2v2l1,1v1l1,1v1l1,1v1l1,1v2l1,1v1l1,1v1l1,1l-1,-1l1,1l-1,-1v1v-1l1,1h-1v-2l-1,-1v-1h-1v-1v1h1v1l1,2v2h1h-1v-1l1,2v-1v1l-1,-1v-1v1l1,1l-1,-1v-1v1h-1l1,1v1v-1h-1v-1v1l1,1v2h1v1l1,2v1l-1,-1v-1l-1,-1v-2h-1v-2l-1,-1v-2h-1v-1v1v-1h-1v-2h-1v-2h-1l1,1v1v-1h-1h1v1h-1v-1v3h1v1l-2,-2v1l1,1l1,2v3l1,3v2l1,1v1l1,2v2h1l1,2v1l1,2l1,1v2l2,3v1l1,2l1,1v2l1,1v1l1,1v2l1,-1v2l1,1v1l1,1v1l1,2v2l1,2v1l1,2v1l1,1v1l1,1v2l1,2v1l-1,-1l1,2v1l1,2v2l1,1v4l1,2v4h1h-1l1,1v1h-1v3l-1,1v1v-1l-1,-1v1v-1l-1,-1v1h1v1h-1l1,1v2l-1,-3v1l1,3v2v-2l-2,-2v-1l1,3l1,1v2l-1,1v2l-1,1v-1l-1,-1v-3l-1,-4v-1l1,-1h-1v-2l-1,-1v-1l-1,-1v-1l-1,-1v-1h-1v1v-3l-1,-2v-1v2h-1v-2l-1,-1v-3l-1,-1v-1v1v-2l-1,-1v-2h-1h1l-1,1v-2l-1,-1v-1l-1,-1v-1l-1,-1h-1l-1,-1v-1l-1,-2v-3h-1l-1,-1v-1h-1v2l1,1v3l1,3v16l1,2v3l1,2v2l1,-1l1,1v1l1,4v2h1v2l2,7v2v-3h-1v-1v1l1,2v2h1v2l1,1h1l1,1v1l1,3l1,2v3l-1,1v-2h-1v2l-1,-1v-5h-1v-2h-1l-1,-2v1l-1,-3l-1,-1v-3h-1v-2h-1v-3l-1,-1v-2l-1,-1l-1,-2v-1v1h-1v-2l-1,-1v-12h-1v-2l-1,-3v-1l1,-1l-1,-2v-5l-1,1v-4l-1,-1v-3l-1,-1v-3l-1,-1l-2,-4v-3v1l-1,-1v-1l-1,-2v-1l-1,-1v-1l1,1l-1,-1v-1l-1,-3v-1l-1,-1l-1,-4l-1,-1v-4h-1l-1,-2l-1,-1v-2l-2,-2v-1v1l1,2v3h-1v-1h-1v-1v1h1v2h-1v3l-1,1v-3h-1v1h-1v-1h-1v-3l-1,-1v-1v3h-1v-1l-1,-3h1h-1v-5l-1,-2v-1l-1,-1l-1,-4l-1,-2l-1,-1v-1l-1,-1l-1,-3v-1v3h1h-1l-1,-1v-2l-1,-1l1,1h1l-1,-1v-1l-2,-2v-1l-2,-2v2l-1,-2v-1l-1,-2v1v-1h-1v-2h-1l1,1v1l-1,-1l-1,-2l-1,-1v-1l-2,-2l-1,-3v-1l-2,-4l-2,-2v-1l-1,-2h-1v-1v1h-1l-3,-3v-2l-1,-2l-1,-1v1h1v1l-1,-1h-1l1,1h1v1h1v1h-1l1,1v1l1,1v1l1,1v4h-1v-2h-1v-1h-1v-1v1h1v1l-1,1v-1l-1,-3v2l1,1v1h-1l-1,-1v-1l-1,-1l1,1h-1l1,1v1l-1,-1v1v-1l-1,-2l-1,-1l1,2v2l-1,-1v-1v1h-1v-3l-2,-2v-1v1l1,1v3h-3v3l1,1v2h1v1h-1v2h1h-1v2l-1,-1v1h-1l-2,1v-2h-1v2h1l-1,1l-1,2v1l-1,2v1l-3,3v1l-4,4v2h1v1l-1,1l-2,1l-2,-1v3h-1v1h-1v-1h-2l-1,1v4l2,4v4l1,2v1h1v1l-1,-1v1l2,2v7l-1,1v8h1v4l1,4h-2v-1h-1v2l-1,3l-1,1v1h1v1h2v1h-1l-1,-1l-3,1h-1v4l-2,2h-1v1l-2,-1l-1,-2l-1,-1l-3,-4l-1,-2v-1l-1,-2v-2l-1,-2l1,1v2h1l-1,-3l-2,-2v-2l-2,-3l-1,-3l-1,-2v-1l-1,-2l-1,-1l-1,-2h-1v-1l-4,-8l-1,-4v-1l-1,-2l-1,-1v-2l-1,-1v-1l-2,-2l-1,-2l-1,-1l-1,-2v-1h1l-1,-1h-1l1,-1h-1v-1l-3,-3l-3,-9l-1,-2v-1l-2,-4v-1l-1,-1v-2h-1v-1l1,-1v-1l-1,-1v1h-1v-2h1l-1,-1h-1v-1l-1,-2v-6l-1,-1v-1l-1,-1v-1h-1v-2h-1l2,-2h1h-4v-2h1h-1l-1,-2h1h-1l-1,-1h-1l1,1v1h-1v2h1l1,1v1l-1,2l-2,1h-1l-2,1h-2l-2,-1l-2,-3h-1l-3,-3l-1,-2l-2,-1l-3,-3v-2h1v1l1,1l1,-1h4v-2l1,-1v-1h-1v1h-3v1h-1l-3,-2l-3,-1l-1,-2l-1,-1l-1,-2l1,-1h-2v1h-1v-1l-1,-1v1v-1h-1l-1,-1v1h-1v-1h-1v-1h-1l-1,-1v-2l-2,-2v-1l-3,-1l-1,-1v-1l-2,-2v-1h-2l1,1h1h-5l-2,-1l-2,1l-2,-1v1h-1l-3,-1v-1h-4v1l-1,-1h-7l-1,-1v1h-3l-1,-1v-7h1l1,-1v1v-1h1v-1h2l2,1l1,-1v-3h-1v-1h-3v-2l-1,-2l-1,-1v-2h-1l-4,-2h-1l-2,-1l-1,-1v-1l-3,-3l-1,-2l-2,-1l-1,-1l1,-1l1,-2l2,-2v-1l-1,-1v-1l-1,-1l-2,-1h-4v-2h-1v-3h-1l-1,-3l-2,-2v-2l1,-1h-2v-1h-1v-1l-1,-2v-1h2l-1,-1h-1h1v-1h1h-1h1v-2l-1,-1v-3l-2,-2h1l-2,-2v-1l-3,-1h-2l-2,-1l-2,-2h-1l-1,-1h-1l-1,-1v-1h-1l-2,-1h-4l-2,-1l-1,-1h-3v-1h-1v-1h-3l-1,-1h-3v1h-3l-1,-1h-1l-1,1h-1l-1,1v1h-2l-1,1h-2v-1l-1,-1l-1,-2v-2h-1v-3h-1v-1h-1v-1h-1l-1,-1h-2v-1h2l-1,-1v-1h-3v1v-1h-1l-1,-1v-1l-1,-1v-3h1v1h1l1,1h1v-1h1v1h1l1,1l1,-1h1v1h1l-1,-1h2v-1l-1,-1l-2,-1h-1l-1,-1v-1h-1v-1l-2,-1h-5v1l1,1v2l-3,-3v-1h-1v-3l-1,-1h-2v-1h-3v-1h-1l-1,-1h-1v-1h-1v-1h-1l-3,-3h-2l-1,-1h-1v-1h3l2,1h2l-1,-1h-1l-1,-1v-1h1v-1h6l2,1h1l-1,-1h-1v-1l1,-1v-1l-1,-1v-1l-2,-2h-3l-1,1l-1,-1h-3l-1,-1h-4v1h-2l-1,1h-4v1h1h-3v1h-1l-1,1h-4v2h-1v2h-1v-1v1h-1v1l1,1h2v1h1l1,1v1l1,1v-2h1v1h-1v2h1v2h2v1l1,1l2,1l1,1h1v1h1l1,1l2,1l3,3l2,1l2,2h3l2,2l-2,-1h-3v1h-1v3l1,1h-1v1h-1v1l-1,1h1v2h-2l-1,-1h-1v-1h-1l-1,-1h1v-1h1h-1l-1,-1l1,-1l-1,-1h-4l-1,1h-1l-1,1h-1l-2,1v-1h-1v-1v1h1v-1h-1l-1,-1h1l-1,-1h-2l-1,-1h-1l-1,-1h2v-1l-2,-1h-1l-1,-1h-1v-1h1v-1h-2l-2,-2l1,-1h1l1,1h2v1h3l1,1h1l1,-1l-1,-1h-1l-1,-1h-1v-1h1v-1h-3v-1h-2v-2h-3l-1,-1h-8v-1h-3l-2,-1h-1v-1h-6l-3,-1h-3l-1,-1h-4l-1,-1h-1v1h-1l-10,-5h-1l-2,-1h-3v-1h-1l-1,-1h-3v-1h1l-1,-1h2l1,1h3v-2h1v-1h1l1,-1h2h-2l-1,-1h-1l-1,-1h4v-1h2l2,-1v-1h-1l-1,1h-1v-1h-1v1h-2v-2h2l1,-1h5l1,-1v-1l-1,-1h-1v-1h1h-1v-1h2v-2h-3l-1,-1h-4l-1,-1h-4l-1,-1h-1l-1,-1h-2l-1,1h-3v-1h-5v-1l-1,-1h-1v-1h-5v-2h-1h2l-2,-1v-1h-10v1h-2v-1h-1v-1h-1v-1h1h-2v-1h6v-1h1l-1,-1h-3v-1l-1,-1h-2v-1h-1h1h-1l-1,-1l1,-1h-1v-1h-1v-1h-7l-1,-1l-1,1v-1h-3v-1h-1v-1h-1v-1h1l-1,-1h-1l1,-1h1h-1v-3h1l1,-1h1v-1h4v-1h3l2,1v-1h-4l-1,-1h-12v1h-7v1h-7v-1v1h-2v-1h1h-1h1h-5v-1l1,-1h1v-2h-1h1v-1l2,-1h2l1,-1h2l2,-1h2l1,-1h2l1,-1h4l-1,-1h-1l-1,-1h1h-2l-1,1l-1,-1v1h-8v1h-2v1h1l-1,1h-3v1h-5v1l-1,-1v1h-4v1h-1h1h-3v1h1h-3v1h-1v1h-2v1h-1v1h3v1h3v1h-2v1h-3v1l1,-1h1l-1,1h-2l-1,1h-3l-1,1h-2v1l-4,4h-1v1h-1l-1,1h-5l-1,1h-2l-1,1v1h-3l-2,1h-2v-1h1v-1h-1v-1h1v-1h1l-1,-1v-1h-1v-3h-1h1v-1h1v-1h1h-2v-1h-1v1h-1l-1,1h-3l-1,1h-3l-2,1l-1,1h-3l-2,1h-3l1,-1h-4v-1h4l1,-1l-1,1h-1v-1h1l1,-1h1h-1l-1,1h-2v-1h3l1,-1h1h-2h2v-1h2l1,-1v1h-1l1,-1h-1l-1,1h-1l-1,1h-2l-1,1h-1h1v-1h3v-1l-1,1h-1v-1h1l2,-1h-1v1l-1,-1h1v-1h7v-1l1,1v-1h3v-1l-1,1h-3l-1,1h-5l1,-1h1h-1l1,-1h2l1,-1h3l2,-1h-1l-1,1v-1h6l1,-1h-2l-1,1h-1h1v-1h3l1,-1h1v1h2l-1,-1h2v-1v1l-1,-1h9v-1h3v-1h1h-1l-1,1l-3,1h-2v-1v1h-1l1,-1h2l1,-1h3l1,-1h2l1,-1h5l1,-1h-1v1h-2l1,-1h2v-1h5l1,-1l-1,1h-2v-1h3v-1h4l1,-1h4v-1h-1h7l1,-1l-1,1h-2v-1h5l1,-1h4l2,-1v1h-1h1l1,-1h1v1h-1h1v-1h9l1,-1h4v1h1v-1h12l1,1h-1h20l2,1h4l2,1h7v1h4v1l-1,1h-13v-1h-12l-1,-1h-2l1,1h4l1,1h2l-1,1h1v1h1v1h6l1,1h5v-1h-4l-1,-1h-1h1v-1h1l1,1h6l2,1h1l1,-1h1h-2l-1,-1h2l1,-1h10l-1,1h2v-1h1h-1v-1h-3v-2h3l2,1h3l1,1h-1l-1,-1h-2v1h-1h2l1,1h6v-1h15v1h15l1,1h2l-2,-1h-1h6l2,1h3l1,1h4l1,1h4l1,1h2l2,1h1l-1,-1h-3l-1,-1h-3l-2,-1h-2l-1,-1h-3l-1,-1h-1h1h-2l-1,-1h-1h1l1,1h5l1,1Z"/>
<path class="sp" d="M611,13h2M606,11l1,1M620,15h3l1,1h3l1,1h3l1,1h2l1,1h3l1,1h2l1,1h3l1,1h2l1,1h2l1,1h2l1,1h3l1,1h1l1,1h2l1,1h2l1,1h2l1,1h1l1,1h3l1,1h1l1,1h2l1,1h1l1,1h2l1,1h1l1,1h2l1,1h1l1,1h2l1,1h1l1,1h1l1,1h1l1,1h1l1,1h2l1,1h1l1,1h1l1,1h2l2,2h1l1,1h1l1,1h2l2,2h2l2,2h2l2,2h2l2,2h1l1,1h1l1,1h1l2,2h2l2,2h1l2,2h2l2,2h1l2,2h1l1,1h1l1,1h1l2,2h1l2,2h1l2,2h1l2,2h1l2,2h1l2,2h1l2,2h1l2,2h1l2,2h1l3,3h1l2,2h1l3,3h1l2,2h1l3,3h1l1,1v1h1l2,2h1l4,4h1l2,2v1h1l2,2h1l7,7h1l8,8h1l2,2v1h1l13,13h1v1l8,8v1h1l4,4v1l2,2h1v1l4,4v1h1l1,1v1l4,4v1l5,5v1l4,4v1l5,5v1l2,2v1l3,3v1l3,3v1l2,2v1l4,4v1l2,2v1l2,2v1l2,2v1l2,2v1l2,2v1l2,2v2l2,2v1l2,2v1l2,2v1l2,2v1l1,1v1l2,2v1l1,1v2l2,2v1l2,2v1l1,1v1l1,1v1l1,1v1l1,1v1l2,2v2l2,2v2l2,2v2l2,2v2l2,2v2l1,1v1l1,1v1l1,1v1l1,1v2l1,1v1l1,1v1l1,1M594,9h3l1,1h1"/>
<path class="sl" d="M593,263v-1ZM595,275v1v-1h1ZM595,273v1ZM685,290h4l2,1l-1,1h-6l-2,-2h1v-1h1ZM969,379l1,1v1l-1,-1v-2ZM978,398v-1ZM977,384v1l-1,-1ZM952,300v-1ZM953,298v1l-1,-1ZM953,301l-1,-1h1ZM745,120h-1v-1h-1h2ZM748,120v1v-1h-1ZM279,883h-1v-1ZM227,869v1v-1h1l1,1h2v1h2v1h1v1l-1,-1h-2v-1h-3l-1,-1v1l-1,-1h-1h1v-1l1,1ZM826,477h-1v-1v1v-1h1h-1v-1l1,1ZM210,546h-1l1,-1ZM187,880h1h-1h1l1,1l-1,-1h1v1h1l1,1v1h1v1h1h-1l1,1h1h-1h1v1h-1v-1h-1v-1l-1,-1h-1v-1h-1l-1,-1ZM189,883l-1,-1v-1v1v-1l4,4v1h1v1h1h-1l-2,-2v-1h-1h1v1h-1v-1l-1,-1h-1ZM191,885l1,1h-1ZM192,883l1,1h-1ZM188,882h-1ZM194,886h-1ZM320,69h-1ZM319,68h-1ZM329,51l-2,1v-1h1l1,-1h1ZM326,60h-2l-2,1h-3l1,-1h-2l-1,1h-1v-1h-1h2l1,-1h2l1,-1h2v-1h1h-1h1v-1l1,-1l-1,1h-1l1,-1h1l1,-1h3v-1h3v-1h1v-1h1l1,-1h-2v-1h1l1,-1h1l1,-1l-1,1h-3l-1,1v-1v1h-3v-1v1l1,-1l2,-1h1v-1l1,-1h1v-1l-1,1h-1h1l1,-1h-1l-1,1h-1v1h-1l-2,1v1h-1l1,-1h1v-1h1l2,-2h1l1,-1h-1v1h-1v-1h2v-1h1l2,-2h1v-1h2v-1h3v-1h1l1,-1v1l1,-1h4l1,-1h1h-1v1h-1l-1,1h-3l-2,2h-1h2l1,-1h5v1h-2l-2,1l-1,1h-1v1h-3l-1,1h1v-1h2l-1,1h-3v1h-2h3l1,-1h2v1h1h-1v1l-1,1v1h2v1h1l-1,1v1h-2l1,1v1h-2v1h1l1,-1h5v1h-1v1h-1l-1,1h-1l-1,1h-2l-2,2h-1h4l-1,1h-2l-1,1h-2l-1,1h-4l-2,1h-4l-1,1h-3v1l-1,-1h-1l-2,1h-1l-2,2h-5v1h-2v1h-2v-1h1l2,-1h2v-1l2,-1h1v-1h1l1,-1h5l1,-1h1l1,-1h1l1,-1ZM326,54h1h-1l-1,1h-1v-1h1ZM357,33h1ZM368,29v-1h1h-1ZM367,29l-1,1h-1l-1,1l1,-1h-1h1l1,-1ZM370,28h-1ZM353,35h-1ZM353,35h1ZM354,34h1h-1h1ZM356,33v1ZM330,44h1ZM331,47h-1h1v-1h1ZM332,44l-1,1h-1h1l1,-1h-1h1v-1l1,1ZM329,46v1h-2l1,-1ZM329,46h1v-1h1ZM340,38l-1,1h-2v1h-2v-1h2l1,-1h1ZM333,43v-1h1h-1ZM336,41h-1h1v1h-2v-1v1l-1,-1h3v-1ZM333,41h-1ZM330,43v-1h1ZM329,43h-1ZM321,53h-2v-1h-1v1h-3v-1h2v-1h2v-1h3l1,-1h3v-1v2h-1h1v1h-2v1h-2ZM330,62h-1v1h-2l1,-1h1ZM670,203h-1l1,-1h1ZM665,202h-1ZM674,204h-1l1,-1ZM678,203l-1,-1h1ZM503,69l1,1l-1,-1h-2ZM644,112l-1,-1v-1v1ZM463,99h-1h1v-1l1,1ZM358,134l-1,1v-1ZM354,140v1h-1v-1l1,-1l1,1ZM963,365l1,1h-1ZM962,362v1v-2ZM956,389h-1v-2h1v1ZM959,377v-1ZM959,378v1ZM961,402v-1ZM956,389v-1ZM954,379v-1ZM958,392l1,1h-1ZM570,439v3h-1v-1l-1,-1h-1v-3h1v-1l1,1v2Z"/>
<path class="sl" d="M573,429v3l-1,1h-1v-4h1ZM571,455h-1l3,-3v1l-1,1v1ZM739,114h-1v-1v1ZM743,120h-1ZM443,28l-1,1h-1v1h-2v1h-1v-2h3v-1h1ZM429,34h-1v-1h1l1,-1h1l2,-2v1h-2v1ZM443,28h1ZM443,24h1ZM869,344v-1ZM869,348l1,1ZM869,342h1v1h1l1,1l2,3l1,2v1l1,1l1,2v1l1,1v1l1,1v1l2,3v2l1,1v2l1,2v1l-1,1v3l-2,1h-2l-1,1h-1l-2,-1l-1,-2l-1,-1v-2l-1,-2l-1,-7v-2l-1,-2v-2l1,2v1v-9l1,-1l-1,-1v-2l1,1v1l1,-1v1v-1l-1,-1h-1l-1,-1ZM306,118h-1ZM318,111h1v1h-1v1h-1l-1,1l-1,-1h-2v-1l3,-1l1,-1h1ZM325,110h-2l-1,-1h3ZM305,117h-1h1v-1h2l-1,1ZM174,201l-1,2h-1v1h-1v-2h1v-1h1l2,-1l1,-1v1ZM190,194h-1v-1h1l1,-1h1v-1v1l-1,1ZM185,200l-1,1h-1v-1h1l2,-2l1,-2l1,-1v1l-1,2v1ZM178,201v2l-1,1h-2l1,-1v-1h1ZM169,204v1l-1,-1h1v-1ZM165,207l-1,1h-1l1,-1ZM167,202v-2h1v1ZM538,778h-1v-1h1ZM977,454l-1,1v-2h1ZM156,355h-3l1,-1h2ZM703,435v1v-1h-1l1,-1ZM543,188h-1v-1h-2v-1v1h2ZM588,252v-1l1,1v1l-1,-1h-1l-1,-1l1,-1h-1h1v2ZM540,186v-1ZM296,382v-1h1ZM290,395v1l-1,-1v-2l1,-1h1v2ZM383,84h-1ZM563,4h-1h1h-6l-1,-1h-2h1h-1h1h-1h1h-1h5l1,1h2Z"/>
<path class="sp" d="M554,3h5l1,1h3"/>
<path class="sl" d="M558,4h4v1h3l2,1h4l1,1h1h-1l-1,-1h-1h1h-7l-2,-1h-1h1h-1h-4v-1h-3l-1,-1h1l1,1l-1,-1h2v1h1ZM516,10v1v-1h-1ZM539,9l-1,-1ZM558,5h1h-2ZM603,12h-1v-1v1ZM596,10h-1ZM624,18h-1l-1,-1h1v1ZM600,76l-1,-1ZM557,7h1h-5l-1,-1h-1h6ZM592,8h-1l1,1Z"/>
<path class="sp" d="M590,8h1l1,1"/>
<path class="sl" d="M583,8v1h1h-2v-1h-5v-1h1l1,1h3ZM513,70v-1h1l2,1h2v1l1,-1h1v1l1,1h1l1,1h1l1,1l1,-1h5v1l-1,1h-4l-1,-1v1h-2v1h-4l-1,1l-2,1h-2v-1h-1v-3h-2l-2,-1h-3l4,-2h3ZM654,199h-2l-1,-1h-1l1,-1l-2,-4h1v-3l1,-1h1l1,1h2v5l1,1v1l-1,2ZM185,172h2l-1,1h-2ZM167,157h-1h1v-1ZM157,150v1ZM167,149l-1,1v-1h2ZM164,151h-1v-1ZM162,152h-1v1v-1ZM168,152h1v1h-1ZM992,411v1l1,3v1v-2l-1,-1v-4l-1,-1l1,1v1Z"/>
<path class="sp" d="M991,408l1,1v2"/>
<path class="sl" d="M994,425v-2ZM998,454v-1v1v-1Z"/>
<path class="sp" d="M998,452v1"/>
<path class="sl" d="M994,422l-1,-1v1ZM715,236h-1v-1l2,-2v2ZM690,198h-1ZM390,26v1h-1v-1ZM495,4h1ZM431,12h-1ZM413,17h2ZM411,18h-1ZM477,3h-1ZM483,3h1ZM477,3l-1,1v-1l-1,1v-1h1ZM478,3h1ZM444,7h1l-1,1h-1ZM440,8h1ZM450,6v1h-2v-1h1ZM466,4h1h-2ZM468,4h-1h2ZM464,4h1h-1v1h-2l1,-1ZM434,11h-1h2ZM434,11h-1h2ZM427,14h-1ZM458,5h1l-1,1h-2v-1h1ZM451,7v-1h2l-1,1h-2v-1h1h-1h1ZM394,12h-1h1l2,-1h1h-2ZM471,1h1ZM296,358h-1v-1ZM357,56l-1,1h-3l1,-1h2ZM374,47h-1ZM372,47l-1,1h-1v-1h1ZM367,48l-1,1ZM369,48h-1h2ZM366,49l-1,1v-1ZM357,55h-1ZM376,47h-1l1,-1ZM707,574h-2l-1,-1h1v-2h1v-1h2v3h-1ZM151,263v1v-2h1ZM382,126h-1v-1h1ZM381,125h-1ZM834,380v-1ZM963,404v-1l1,2h1v2h1v5l1,1v-2h1v2l1,-1v-2h1l1,3v3h1v2l1,2l1,3v10l1,2v6l1,2v1l1,2v5l1,3h-1v-1h-2v-2l-1,-3l-1,-1v-1l-1,-3l-1,-2l-1,-1v-2l-1,-1v-4l-1,-2v-2l-1,-1v-1l-1,-1h1v-1l-1,-1v-4l-2,-8v-4l-1,-2v-1ZM998,457l-1,-1v-3h-1v-1v1v-1v8l1,1v1h-1v3l1,1l-1,1v6h-1v1v-3h-1v-2h-1v3h-1v-2l-1,1v-2l-1,-2v-2l-1,-1v-3l1,1v1l1,1v2l1,1v1v-12l1,1h1v-10l1,1v1v1h1v1v-1l-1,-2v-12h1v7l1,1v1v-1v7h1v1h-1v1l1,1v2h-1ZM977,443v-1ZM964,414v-1ZM962,403v1h-1v-1h1v1ZM995,431v-1ZM992,459v1v-2ZM998,457v-1ZM528,490h-1l1,-1ZM527,489v1l-1,-1ZM652,498v2l1,2l1,1v1l1,2v3l1,4v8l1,1v3l-2,4h-1l-1,-1v-2l-1,-1h-1l-1,1v1l1,1v7l-1,1v1h-1l-1,1v2l-1,1l1,3l-1,2l-1,3l-2,4l-1,3l-2,4l-1,3l-2,4l-1,4l-2,4l-1,4l-3,5l-1,3v2l-1,2l-2,3v2l-1,2l-1,1v1l-1,1v1l-1,2l-2,2l-2,1h-4l-4,2h-1v1h-3v-1l-3,-2h-3v-1l-3,-3v-3l-2,-2v-2l1,-1v-7l-2,-2v-8l1,-1v-1l1,-1v-2l1,-1h1l1,-1v-1l1,-1l1,-2l2,-2l1,-2v-2l1,-2v-4l-1,-2v-3l-1,-1v-1l-1,-2v-3l1,-1l-1,-1v-1l1,-1l3,-6l1,-1v-3h1l3,-1h1l1,-1h4v-1h3l1,-1l1,2h1v-3l1,-1l2,-1l1,-1h1v2h1v-2l2,-2v-2h2v1h-1v2l1,-1v-1l2,-2l1,1l-1,-1v-2l2,-2v-1l-1,-1v-1h1v-1h1l1,1l2,-2h1l2,-2l1,-3v-3l-1,-1h2l1,-1l1,-2h1v1l1,2ZM641,506h-1v-1h1v-1v1ZM652,537l-1,2v-1l1,-2h1ZM626,164h-1l-1,-1v-1h1l1,1ZM583,405l1,-1v1ZM614,80h-1v-1v1ZM627,78h-1ZM368,91h-1ZM386,100h-1l1,-1ZM367,122h-1ZM393,112l-3,3h-1v1l-1,1l1,1h-1h1v1l-1,1h-1v1h-4v-1l-1,-1h-3l-1,-1h-2v-1h-4l-1,-1l2,-2h4l1,-1v1h7l1,-1h4v-1h2ZM360,101v2h-1l-1,1v2l-2,3v1h-4v1l-1,1h-2v-1h-1l1,-1v-1l1,-1v-1h1h-1v-1h1v-3h-1v-1h3l1,-1h1l1,-1h1l1,-1v1v-1l1,1h1h-1v1Z"/>
<path class="sl" d="M348,111v1ZM352,101h-1h1v-1ZM522,148h1l-2,2v-1h-1ZM305,56h-1h2ZM321,50h-2v1h-2v1h-2v1h3v-1h1v1h1h-1l1,1h-1v1h-1l-1,1v1h-1l-1,1h-1l-1,1h-1v1h-2l-1,1h-3v1h-2l-1,1h-2v1h-2l-2,1h-1l-1,1l1,-1h1v-1l-2,1h-1h1l1,-1h1l-2,1h-1v-1h2v-1h1h-1h2v-1h1h-1h1l1,-1h2l1,-1h1h-2l-1,1h-1l2,-1h1v-1h1l1,-1h1h-3v-1h2v-1h1h-1h1v-1h1l1,-1h4v-1h3v-1h-1h1v-1h2v-1h3v-1v1h-1h1l1,-1h1ZM687,187l-1,1h-4l2,-1l-1,-1l2,1l1,-1h1ZM957,441l1,3v4l-1,-1v-2l-1,-1v-1l-1,-2h1v-1ZM962,472v-1l-1,-1v-6h1v5l1,1v1ZM993,563l-1,2v1v-5l1,-1v2ZM992,557v4h-1v1v-7l1,1ZM982,484v7l1,2v4l-1,-1v-2l-1,-1v-7h-1v-4h1v1v-1h1v1ZM997,550v1v-1l1,-1v-1v2l-1,1Z"/>
<path class="sp" d="M998,547v3l-1,1"/>
<path class="sl" d="M998,546v-1Z"/>
<path class="sp" d="M998,542v4"/>
<path class="sl" d="M986,443l-1,-1h1l-1,-1v-3l1,1v3ZM986,499v2h-1v-6h1v3ZM951,407l1,1h1l1,1h1v1l1,1l1,2v2l1,2v2l1,1v2h1v2l2,2l1,3l1,2v2h1v3l1,2v2h1v1l1,2v-2l1,2v3h1v1l1,1v2h1v4l1,1v2h1v4h-1h2v-1l1,1v4l-1,1v1h1l-1,1h1v1h-1l1,2v2l1,1v1h1v9h1v3h-1v2l1,-1h1v2l1,4v8l-1,2v8l-1,6l-1,-1v-2l-1,1v1v-1l-1,-2v1l-1,-2v-5l-1,-3l-1,-1v-2l-1,-4l-1,-2v-3l-1,-3v-2l-1,-3v-2l-1,-1v-6l-1,-6v-2l-1,-2v-3l-1,-1v-2l-1,-2v-2l-1,-1v-1l-1,-1v-6l-1,-4v-3l-1,-1l-1,-3l-2,-2v-5l-1,-1v-1l-1,-1v-1l-1,-3v-1h-1l-1,-1v-2l-1,-1l-3,-6v-2l-1,-1v-5h-1v-1h1l2,2l1,2ZM994,576v-1v1v-8h1v3l-1,1v1v-1v1h1h-1v1h1v-2v2h-1v1ZM993,576v6l-1,1v1v-7h1v-2ZM994,564v1v-1v5h-1l1,-1v-1l-1,1h-1v-3l1,-1v-1v4h1v-5ZM1000,516v-1v6l-1,2v15l-1,1v1v-1l1,-2v-4l-1,2v10h-1v-1v1v-3l1,-1v-7l1,-3v-23l1,-2v-1v10Z"/>
<path class="sp" d="M999,525v6M999,533v5l-1,1v1M1000,488v8M1000,508v7"/>
<path class="sl" d="M982,523v1l1,1v2h1v6h1v1h1v2h1v1l1,-1v-3l1,1v4l1,1v10l1,1l1,2v1l-1,1v6h-1l1,-1h-1v-5h-1l-1,-1v-1l-1,-1v-2h-1v-1l-1,-4v-1l-1,-2v-1h-2v-2h-1v-3h-1l-1,-1v-5l-1,-1v-1h-1v-1l1,-1v-1l1,-3v-1h1v2h1v1l1,-1ZM989,459v5l1,1v2l1,2v2l1,-1v2h1v-3h1v2h1v2h1v1v-7l1,-1l-1,-1v-3h1v-1l-1,-1v-7h1v3l1,1v13l1,1v29l-1,1v-1v11l-1,1h1l-1,1v7l-2,2v-8l-1,-1h1v-2h-1v-1l-1,1v-1l-1,1v-6h-1v-1h-1v-19h-1v-5l-1,-1v-1l1,-1v-3l-1,-1v-11l1,-1v-1ZM991,592l1,-1v-5h1l-1,1v4Z"/>
<path class="sp" d="M993,586l-1,1v4l-1,1"/>
<path class="sl" d="M970,444l1,1h-1v1l-1,-1v-1l1,-1ZM973,454h-1v-3l1,1v1ZM973,450v1l-1,-1v-1h-1v-1ZM974,457v1v-1l-1,-1v-1h1v1ZM975,457h-1v-2l-1,-1v-1h1v2ZM975,460v-1ZM975,459v-1h1v1ZM977,456v1ZM978,456v1h1v2h-1v1v-3ZM979,469v-1v2h1h-1v-1h-1v-3l1,1v1ZM978,469v1v-1v1ZM976,468v-1ZM989,487v-2l1,1ZM992,545h-1v-1l-1,-1l1,-1v-1v1l1,1v1ZM970,509v-1l1,1ZM966,486v1v-2l-1,-1v-2h1v3ZM965,482v-3l1,2ZM964,478v-1ZM960,460v-3l1,1l-1,1ZM953,432l-1,-1l-1,-2v-1h-1v-2h1v2h1l1,2v1ZM998,547v-1ZM997,552v1v-4ZM994,547h-1v-1h1ZM997,523v1v-2ZM991,595v-1ZM994,576v1v-2ZM994,574h1Z"/>
<path class="sp" d="M994,575v1M995,574h-1"/>
<path class="sl" d="M994,574v1v-1h1v-1v1ZM975,456v-1ZM976,458l1,1ZM978,459h-1v-1ZM979,466v1v-1l-1,-1ZM982,443v1ZM981,445v-1ZM987,450v1ZM988,489v-1ZM985,497h-1v-1h1ZM983,497v-1ZM992,546v1ZM992,532h-1l1,-1ZM977,524v1v-2ZM956,436v-1l-1,-1h1v1ZM947,401h-1v-1h1ZM994,570v-1ZM994,565l1,-1v1ZM992,563v-1ZM998,457v2ZM998,465v-1ZM996,559v-1ZM994,563v-1ZM997,519v1ZM992,591v-1ZM991,590h1v-1v1ZM994,575v1ZM940,389v1l-1,-2v-2h1v2ZM939,385h-1h1v-1ZM936,376v1l-1,-1v-1ZM937,380v-1ZM937,379v-1ZM933,368v-1ZM930,356l-1,-1v-1l1,-1v2ZM930,350h-1v-1h1ZM930,349h-1v-2l-1,-1v-3h1l-1,-1v-5l-1,-2v-2h1v5l1,3v6l1,1ZM930,345v1ZM927,338v-1ZM824,321v-1ZM829,345h-1ZM353,23h1l1,-1h1h-1l-1,1h-1h1h-2v1l1,-1v1h-1h1v-1v1v-1v1h-2v1h-3v1h-3v1h-3l-1,1h-2l-1,1h-2l-1,1h-2l-1,1h-2l-1,1h-3l-1,1v-1h1h-1h1h-1h1h-1v1h-3v1h-1l1,-1h2v-1h3v-1h1h-1l-1,1h1h-1h1v-1h1h-1h1h-2v1h-1h1v-1h3v-1h2l1,-1l-1,1h-1h1l1,-1h1h-2l-1,1h-1h2v-1h3v-1h1h-1h1h-1h3v-1l-1,1h1v-1h1h-1h1h-1l-1,1h-1l-1,1l1,-1v1h-1l1,-1h2l1,-1h2v-1h1l-1,1h1v-1h2l1,-1h1h-1v1h-1h1l1,-1h2l1,-1h3l1,-1ZM138,331h-1v-1h1v-1v1ZM139,330v-1ZM140,329v-1h1v1ZM142,326h-1l1,-1ZM140,327h-1v-1h1ZM140,324l-1,1v-1ZM475,118h-1ZM426,110h1v1h-2v-1v1h-1v-1h2v-1ZM428,113h-2v-1h1ZM427,108h-1l1,-1ZM427,110v-1h-1h1ZM424,104h-1l-1,-1h-1v-1h2v2ZM446,106l1,1h3v1h1v2h2v1h-2v-1h-1v-1h-2l-1,-1h-1v-1h-2v-1h-1h1l1,-1ZM448,105h-1v-1ZM449,105v-1h1h-1ZM454,106h-1v-1v1ZM456,97h-2v-1h2ZM446,111h-1ZM441,121h-1v-1h1ZM470,124l-1,1v-1l1,-1v-1v1ZM469,116h-1h1l-1,-1h1ZM469,117h-1h1l1,-1h1l-1,1ZM459,116h-1l1,-1ZM457,116h-1v-1h1ZM458,119v1h-1h1ZM458,118h-1v-1ZM468,111h1l1,1h-3ZM463,113h-1l1,-1h1v1ZM461,117h-1h2v-1v1ZM465,118l-1,1v-1h1h-1ZM451,113v-1ZM451,114h1ZM452,117v1h-1ZM455,113v1ZM456,112h-2v-1h1v1ZM457,113h-1v-1ZM453,117v-1ZM463,109v1l-1,-1l1,-1h-1v-1h2v2ZM466,103l1,1v1h-1h1h-3l1,-1h-3l1,-1h1ZM462,98h-1l-1,-1h2ZM460,100h-1v1v-1h-1v1h-1v-1h2ZM458,114v-1h1v1ZM452,115v1l-1,-1ZM475,122h-1v-2l1,-1h2v1l-1,1h-1ZM446,125h1l1,-1l1,1h-1h1v1h1v-1h6l2,1v-1h2l-1,1v1h1v-1h2l1,-1h1l-1,1v1h-5l-3,1h-3v-1h-2l-3,-1h-3v-1l1,-1v1v-1h1ZM411,41h-2v-1h2Z"/>
<path class="sl" d="M413,42h-1ZM400,42h-1v-1h1ZM387,42v-1h1h-1h1h-1ZM388,42h-1ZM363,91l-1,1v3h-1l-1,1v1h-1l-1,1v1l-1,-1h-1l1,-1h-1v-1l1,-1h-1v-1h1h-1h1l1,-1l2,-1h2v-1l1,-1ZM312,83v1ZM616,501h-1v-3h1v2ZM692,580h-2l-1,-1v-1l-1,-1v-1h1l1,-1l1,1h1v1l1,1l-1,1ZM700,808v4h-1l-1,-1v1h-1v-1h1v-2h1v-2l1,-1Z"/>
<path class="sp" d="M700,808v4M700,806v2"/>
<path class="sl" d="M620,779l-1,-1h1ZM451,21h1v1h-2v-1ZM453,22h-1ZM460,15h1ZM460,21h1l-1,1ZM457,21h-1l1,-1ZM458,22v-1h1ZM457,22h1ZM476,11h-1ZM460,25v1h1v-1h1l1,1h-3v1h-3l-1,1v-1h1h-1v-1h1h-1h3ZM462,25h-2v-1h2ZM463,26l-1,-1h1ZM572,256v1l-1,-1ZM573,259v1l1,-1l1,1h-4v-1h1h-1v-1h1h-1h2ZM307,363h1l1,-1v1l-1,2l-1,1v1h-2v-2h1v-1ZM354,28v1ZM352,29h1ZM354,28h-1ZM356,27v1h-2l1,-1ZM357,27h-1ZM409,37h-2v1l-2,1v1h-2v-1h-2l1,-1h-1l1,-1h2v-1h1v1h1v-1h3ZM393,41h-4v-1h1v-1h-2l1,-1h1v-1l1,-1h2l1,-1h2l1,-1h-1l-1,1h-3l1,-1h5v-1h1l2,-1h2l2,-1l-3,3h-1v1h2l-1,1h-2l-1,1h-2v1h-2v1h-1v1h-1h1ZM400,38v1h-1l-1,1h-3l1,-1h-1l1,-1h3ZM401,40h2l-1,1h-1l-2,-1h1ZM398,41v-1h1l1,-1v1h-2ZM407,39h-1l-1,1v-1h1ZM409,37h-1ZM397,40h-1ZM395,40v1l-1,-1v1v-1ZM406,33h-1v-1h1ZM419,38h-1v-1l2,1ZM518,127v-1h-1v1h-3v-1h-4l1,-1h4l4,-1h1l1,-1h1l-1,1l-3,1v1ZM509,126h5v1h3v-1h1v1h1h-3l-1,1h-1l-1,1h-5l-2,-2v-1l1,1v-1h1ZM407,87h1ZM410,86h-1ZM408,86h-2v-1h2ZM400,82v1l-1,-1ZM399,78h-2l1,-1v1ZM398,79h1ZM400,81h-2v-1h1ZM399,83l-1,-1ZM400,83h1ZM396,80v-2h1l-1,1ZM412,88h-1ZM417,89h-1l-1,-1h-1l-2,-1h2l1,1h2ZM218,362l-1,1v-1ZM610,493l1,1v1h-1l-2,-2h2v-1ZM604,494l1,1h-2v-1ZM602,491l-2,-2v-3h1v2l1,1v1ZM958,304v1ZM957,297h-1v-1ZM960,305h-1v-1ZM962,314v1l1,1v1l1,2v2l1,1v3h-1v-1l-1,-1l-1,-2v-1l-1,-1v-1l-1,-3v-3h1v1v-1v1v-1v1ZM958,300v1h1v1v-1h-1ZM959,303v-1ZM959,302v-1ZM201,899l2,2l4,2l2,2l6,3l2,2v1h1h-1h1v1h-1v-1h-1v-1v1v-1h-1h1l-1,-1h-1l-1,-1h-1l-2,-2l2,1v1h2v1h1h-1v-1l1,1v-1h-2l-1,-1h-1l-3,-3h-1v-1v1h1v1v-1h-1l-1,-1h-1v-1h-1v-1h-1h1v1v-1h-1l-1,-1ZM217,909h1v1h1h-1h1v1l-1,-1h-1v-1h-1v-1ZM187,890l2,1l1,1l-2,-2Z"/>
<path class="sp" d="M191,893l-3,-3h-1"/>
<path class="sl" d="M210,907h1v1l-1,-1l1,1l-1,-1h-1ZM212,908h1v1h1v1h1l1,1l-1,-1h-1h1v1h1h-1v-1h-1l-1,-1h-1v-1v1v-1h-1ZM202,902h1l2,2h1v1v-1h-1l-2,-2ZM218,911l-1,-1h1l1,1h1v1h2v1v-1h-2l1,1h1h-1l-1,-1v1v-1h-1ZM214,909h1v1h1h-1h1v1v-1h-1l-1,-1h-1ZM195,896l1,1Z"/>
<path class="sp" d="M196,897l-1,-1M197,898v0"/>
<path class="sl" d="M199,899l1,1h1v1h1v1h1h-1v-1h-1l-1,-1ZM192,894h1v1h1h-1Z"/>
<path class="sp" d="M194,895h-1l-1,-1"/>
<path class="sl" d="M203,902h-1ZM218,909h-1ZM219,912h1h-1h1v1h1h-2ZM222,912h-1v-1v1ZM101,298h-1v-1l1,-1h1v1ZM105,310l-1,1l-1,-1h1v-1h1ZM102,298l-1,1v-1ZM110,300h1l-1,1v1l-1,-1ZM100,313v-1h1ZM105,299h-1v1v-1ZM111,296v1v-1h-1l1,-1ZM106,309v-1l1,-1v1ZM965,369v-1ZM967,374v1ZM951,363l1,2l-1,-1ZM952,371v1v-1h1ZM950,359v-1ZM951,356h-1v-1ZM951,357v1v-1h-1ZM949,350v1v-2ZM949,353l-1,-1h1ZM928,316v1v-3l1,1v1ZM939,319l-1,-2l1,1ZM919,293v1l-1,-1v-1h1ZM915,284l1,1l-1,-1v-1ZM917,287l1,1v1l-1,-1ZM952,364v-1ZM949,357h1h-1v-1ZM948,351v1ZM948,346v1v-1l-1,-1h1ZM930,318v-1ZM913,283l1,1l-1,-1v-1ZM995,446v2l1,2v1v-1h-1v-3ZM995,446v2l-1,-1v-1v1h1v-2ZM6,484v-1h1v-1h1v7l-1,1v5h-1v3l-1,1v-15ZM55,665v1h-1v-1ZM59,699l-1,-1v-1l1,1ZM55,673v1v-1l-1,-1h1ZM16,497l-1,1v-2l1,-1v1ZM42,572v1v-2ZM42,576v-1ZM14,484v1ZM6,480v3h-1v-2ZM5,467v1v-3ZM5,485l-1,3v-2ZM6,483v1v-2ZM5,483v-2ZM5,480v-2h1v1ZM4,499h-1l1,-2v1ZM64,709v-1l-1,-1v-1l1,1ZM900,263l-2,-3l2,2ZM901,262h-1v-1h1ZM898,263h-1v-4l-1,-1v-1h-1h1v1l2,2v2ZM904,266v1l-1,-1ZM905,269h-1v-1h1ZM895,256h1h-1v-1ZM648,190l-1,1v-1l-1,-1h1l-1,-1h1l1,1ZM589,104v-1h2v1h2v1l1,-1h1l3,3v1h-1l-2,-1h-2v-1h-1l-1,-1h-1ZM589,96h-1ZM944,700l1,-1v1ZM945,698l1,-1v-1h1l-1,1v1l-1,1v1ZM946,699l1,-3l2,-3v-2l1,-2v-1l1,-1v-2l1,-1l1,-2v-1l2,-2v-1l1,-1v-2h1v-2l1,-2l2,-3v-1v1l-1,2v1l-1,2l1,-1v-1l1,-2l1,-1h1l1,-1v-1h1v-1l2,-2h1l-1,1v1h1v-1l1,-1h1v-1v1h2v-1l1,-1v-2l1,-1v-1l1,-1v-1l1,-2v-1h1v-2l1,-2v-2l1,-1v-2h1v-2v2l-1,1v2l-1,2v2l-1,1l1,-1v-2l1,-1v1h-1l1,-1v-3h1v-3l1,-1l-1,2v-1v1l1,-1v-2l1,-1v-3l1,-1v1l-1,1v1v-2h1v-1l-1,1v3l-1,1v2l-1,1v3l-1,1v2l-1,1v2l-1,1v2l-1,1v3l-1,1v1l-1,1v2l-1,1v2l-1,1v2l-1,1v1l-1,1v2l-1,1v1l-1,1v3l-1,1v1l-1,1v2l-1,1v1l-1,1v2l-1,1v1l-1,1v1l-1,1v2l-1,1v1l-1,1h-12Z"/>
<path class="sp" d="M944,700v0M944,700v0M945,700v0M945,700v0M982,633v1l-1,1v3l-1,1v2l-1,1v3l-1,1v2l-1,1v2l-1,1v2l-1,1v3l-1,1v1l-1,1v2l-1,1v2l-1,1v2l-1,1v1l-1,1v2l-1,1v1l-1,1v3l-1,1v1l-1,1v2l-1,1v1l-1,1v2l-1,1v1l-1,1v1l-1,1v2l-1,1v1l-1,1h-12"/>
<path class="sl" d="M945,699h-1l1,-3l1,-1v-1l-1,3v1ZM981,635h1v-1v1ZM965,662v-1ZM973,558v1v-2ZM592,99v-1ZM217,910l-2,-2l-6,-3l-2,-2l-4,-2l-2,-2h1l2,2v-1v1h1v1h1h-1l2,1h1l1,1h1l1,1h3v1h1v1h1v2ZM213,904l-1,-1l2,2h-1ZM113,813v-1ZM260,911h2v1l-1,-1v1v-1v1h-1ZM347,976h-1ZM699,940l-1,1v1l-2,1h-5l-1,1h4v3h1h-3l1,1h4v1h1h-1v1h1l1,-1h1v1h-1l-3,1l-3,3l2,-1h4l-1,1v1h-1l-1,1h-1h1l-1,1h-1l-3,3h-2l-1,1h-1l-2,2h-1l-1,1h-1v1h-2l-1,1h-1l-1,1h-3l-1,1l1,-1v1h-1l-1,1l-3,1h-2l-1,1h-1l-1,1h-1l-1,1h-2l-2,1h-1l-1,1h-1l-1,1h-1h1h-1h1l1,-1h1h-1l-4,2h-3l-1,1h-2v1h-3l-1,1h-3l-1,1h-2v1h-3l-1,1h-1l-4,1h-2l-1,1l3,-1h1v-1v1h-2l-2,1h-3l-1,1h-3l-1,1h-3l-1,1h-4l-1,1h-3l-1,1h-1h1l1,-1h-1v1h-1l2,-1h1h-1l-2,1h-1h1h-1l1,-1h2h-2l-1,1h-2l2,-1h-1l-3,1h1v-1h1h-1l-1,1h-5v1h-8l-1,1h-8v1h1h-3v-1h1h2h-8v-1h-1v1h-13l-1,1h-2v-1h1h-2v1h-14v1h-16l-3,1h-1v-1l-1,1h-5l-3,-1v1h1h-1h8v1h1h-6v1h-4l1,1h4l-5,1h-1h2v1h1l1,-1h5l1,1h-2h1h-35l-1,-1h-15l-1,-1h-11l-1,-1h-8l-1,-1h-6l-1,-1h-7l-1,-1h-1h2v1h1h-1v-1h-6v-1h-1l2,1h1l-2,-1h-4l-1,-1h-4l-1,-1h-2l-2,-1l1,1v-1h-4v-1h-1v1h1h-1l-1,-1h-1h1v1h1h-1l-1,-1v1h1h-2l-1,-1h-2l-1,-1h-1l1,1h1h-2v-1h-1l1,1h1l-1,-1h-4l-2,-1h-1v-1h-3l-1,-1h-3v-1h-1l-1,-1h-4v-1h-1h1h-1h1l-2,-1h-1h2l-1,-1h1h-2l-1,-1h-3v-1h-2h2l-1,-1h-1h2l1,1v-1h-2l-1,-1l-3,-1v-1h-2l-2,-2h-1l-2,-1l-1,-1h-2l-4,-2h-3l-2,-1h-1l-2,-1h-2l-1,-1h-2l-2,-1h-3l-1,-1h-2v-1h-1l-1,-1h-1l-1,-1h-3l-1,-1h-1l-1,-1h-2l-1,-1h-2l-1,-1v1v-1h-2l-1,-1h-2v-1h1l1,1h1h-1h1h-2v-1h-1l-2,-1h-1v-1h-2v-1h-2v-1h-1l-1,-1h-1l-1,-1h-1v-1h-2l-1,-1h-1v-1h-1l-1,-1h-1l-1,-1h1h-1v-1h-1l-1,-1h-1l-1,-1l-2,-1v-1h-1v-1h-1l-1,-1v-1l-1,-1h2v1l-1,-1v1h1v1h1l2,2h1v1h2l1,1h-1v-1v1h1v1v-1h-1l1,1h1v1h1l1,1h1v1h1l1,1h1l1,1h1l1,1h1l1,1h1v-1h-1l-1,-1h1l1,1h-1h2l1,1h-1v-1h-1l1,1h1v1l-1,-1v1h2v1h2h-3l-1,-1l1,1h1l1,1h2v1h1h-1h1h-1h1l1,1h1v1h2v1h2l1,1h2v1h1l-1,-1h1l1,1h2v1h2l-1,-1h-2v-1l1,1h2l1,1h3l1,1h3l2,1h1l1,1h3v1h4l1,1h1l2,1l-1,-1h1l1,1h1v1h1v-1l1,1h2l1,1h4l1,1h1l1,1h-1h4l1,1h1h-1h1v1h1v-1l1,1h1h-1h3v1h-1h3l1,1h-1h1l1,1h2l1,1v-1h1l1,1l4,2l1,1l3,1l2,1h2v1h1v1l1,1h6v-1l1,1h2l2,1h1h-1v1h1v1h2l1,-1h1l1,1h3v1h-1v1h3l1,-1h1h-1l-1,-1h5v1h2l-1,-1h2l1,1h3l-1,-1h1h-2l-1,-1h-1h4l2,-1h2l1,1v-1h1v1h3v-1h-1h3v1h8l-3,-1h-2l-2,-1h-1l-2,-1h-1v-1h-1v-1h1v-1v1h3v-1h-2l-2,-1h-1l-1,-1h-2v-1h-1l-1,-1h2l-1,-1h-1l1,-1v-1h-1h1v-1h-1h1l3,-2l-1,-1l-1,1v-1h-1v1l-6,1l-2,-1h-2v1h-7l-1,-1l-3,-1l-2,-1l-1,-1h-1l-1,-1v-1h1h-1l-1,-2h-1v-5l1,-1h2v-1h1l-1,-1h3v-1h-2v-1h-1v-1h-1l-1,-2h-1h4l-1,-1v-1h-1v-1l-1,1h-2v-1h-2l-1,-1v-2h2l-1,-1h-1h2v-2h1v-1l-2,-2h-4l-1,-1v-1h1l1,1h2l-1,-1v-1l-1,-1h-1h3l1,1h1l3,1h1v-1h-1v-1h-1l-1,-1h-1l1,-1h2l1,-1l1,1h1l-1,1h1v1h1l3,-1h7l1,-1h-1h1l1,1h1l1,1v-2l2,-2h1l1,-1l2,-1l4,-1h1l2,-1h2v-1h3l1,-1h1l1,1h2l2,1h3v-2h1v-1h-1v-1h1l1,1h1l1,1l2,-1h4v-1h2v1h2l3,1v-2h2v2l1,1h5l1,-1v-2h1l1,1h1l-1,1h4v-1l1,-1l1,1h1v1l1,1h6l1,-1h1l2,-1h2l1,-1h2l2,-1h4l1,-1h1v-1l1,-1l-1,-1v-1h-1l1,-1v-1h5l-1,1h-1v1h3l1,2l1,1h2l1,-1h1v1h3l2,2h1v-1h1v-1h1l2,-2v-1l1,-1h1v-1h3l1,-1h3l2,-1l1,-1h5l1,-1h5v-1l1,-1h1l1,1h1h-1v2h1l1,-1l1,1v1l1,-1v-1l2,-1l1,-1h-2v-1h3v1h3v1l1,-1v-2l2,-2h1l3,-1h11l1,1h1l1,1v1l2,1v1h-2l-1,-1v2h-1l-2,1l1,1l1,-1h5l1,1h1v2h5l1,1h2l2,1h1l1,-1l1,1h2l3,1l2,1h1l1,1h6v1l-1,1h-1v1l-1,1h-1l-1,1h-1v1h-1v1h-3v1h-1h1l-2,2h-2v-1h-1v1h-2l-1,1l1,1h3l-1,1h-1l-2,2h-3l-2,2h-1l-4,2l-2,2l-2,1h-2v1h4v-1l1,-1h5v-1h3l1,-1h2l1,-1h2l3,-3h1l1,-1h4l2,-2l2,-1l1,1l1,-1v1h2v1h1l2,-2h6l1,-1h2l1,-1h1l2,-1l1,-1h14l1,-1h6l1,1l1,-1l1,1h1l1,-1h2l1,1h2v1h7v1h1v1h3v1h4l-1,1h3l-1,1l1,1h4l2,-1h1v-1l1,1h2v3l-1,2v2h-1h1l-1,1v1h4l1,-1l2,-1h1v3Z"/>
<path class="sp" d="M627,984h-1M623,985h-3l-1,1h-3l-1,1h-3l-1,1h-4l-1,1h-3l-1,1h-3M495,1000h-17l-1,-1h-15l-1,-1h-11l-1,-1h-8l-1,-1h-6l-1,-1h-4M425,994h-3M700,936v3"/>
<path class="sl" d="M406,972h3l1,1h3l2,1h3l2,3l1,1v1h-3v-1h-3l-1,-1h1h-1l-2,-1h-2v-1h-5v-1h-3l-1,-1h-2l-2,-2h-1h1v-1h4l1,1h2v1h1ZM416,980h2l1,1h2v1h-4v-1h-3v-1h-3v-1h1l1,1h2ZM326,963h1h-1h1l2,1h2l2,1h2l1,1h3l1,1h2l3,1h1l2,1h1l1,1h2l1,1h1v1h1v1h-1l-1,-1h-1v-1h-1l-1,-1v1h1h-2v-1h-1v1l-1,-1v1h3v1h-1h2l1,1h-2v-1h-2l-1,-1h-1h1h-2v-1h-2v-1h-1l-1,-1h-1h1l-1,-1h-1h1h-1v1h-1l-2,-2h-1h1h-4l-1,-1h-3l-1,-1h-2l-2,-2h1ZM380,985h1l1,1l-1,-1h-1h1h-3l-1,-1l1,1h1h-1l-1,-1h1v1h3l1,1h3l1,1h3v1v-1h-1l-4,-1h-1h1h-3ZM516,999h1ZM577,993h-3l-1,1h-1h1l-1,-1h6ZM421,970h1l-1,-1h-1h3v1h1h-4v-1ZM416,969v1h-3v-1h2ZM412,983h-5l-1,-1h-2v-1l-4,-1h2l1,1h2l1,1h4l1,1ZM281,937v-1v1h2v1h1h-1h1h-1h1h-2v-1v1h-1v-1h-1v-1h-1h1v1ZM275,932v-1l1,1v1h1h-2l-1,-1v-1h1ZM265,929h1v1h1h-1l1,1l-1,-1h-1ZM285,943l1,1v-1l2,2h-1l-1,-1h-1v-1h-1ZM285,942v1l-1,-1h-1l-1,-1h-1h2l1,1ZM311,957h1l1,1h1h-2l-1,-1h-1l-1,-1h-1l-2,-1l-1,-1h-1h1l1,1h2v1h2v1ZM340,969h1l2,1l1,1l2,1h-1l-1,-1h-1l-1,-1h-1h1h-1ZM334,968h2l1,1h-1l-1,-1ZM360,975h3l1,1h-3v-1h-2v-1ZM378,984h-1l-1,-1h-1h2ZM571,993h1ZM693,927h-1v-1h2v-1h1v1l-1,1ZM487,920h-3v-1h2ZM399,929h-1l-1,-1h1ZM405,927h-1v-1h1l1,1ZM415,982h-4v-1h1l1,1h1ZM410,982h-2v-1l1,1ZM260,923v1v-1h-1v-1v1ZM277,933l1,1l-1,-1h-1ZM285,938h-1v-1v1ZM274,932h1h-2v-1ZM279,936v-1l1,1ZM327,959h-1l-1,-1h-3l1,-1v1h3ZM270,934v-1l1,1h-1h1v1h-1v-1h-1ZM331,966h1h-2v-1ZM380,985h1h-2l-1,-1h1v1ZM399,990h1ZM514,997v-1h1v1h1h-1ZM515,998h1ZM596,990h1ZM594,991h1ZM684,925h1l-1,1h-1ZM688,929v-1h1h-1ZM684,929v-1h1ZM698,928h-1l2,-2v1h-1ZM679,921h1ZM659,922v-1l1,-1v1ZM662,921h-1ZM660,920l1,-1h-1ZM597,935h-1ZM592,936h-1h1v-1h1v1ZM608,930v-1h1v1ZM558,904h-1h2ZM455,919v1l-1,-1h-1v-1h3ZM421,926h-1v-1h1ZM409,930h-1ZM415,925h-1v-2l1,1ZM408,928h1v1h1l-1,1l-1,-1h-1l-1,-1h-1h2ZM424,925l-1,-1h-1h1v-1l1,1ZM391,948l1,1h2v1h1h-1l-2,-1h-2v-1h-1v-1h1v1ZM390,942h-1v-1h-1h2ZM394,938h-2v-1l1,1ZM420,970h-1l-1,-1h1ZM261,923h-1v-1h-1h1ZM268,931v1v-1h-1ZM329,959h-1ZM319,955h-1ZM335,961h-1v-1h-1h1ZM338,962h-1v-1ZM269,932h-1ZM273,935v1v-1h-1ZM280,939l-1,-1h-1h1v1ZM282,941h-1v-1Z"/>
<path class="sl" d="M288,945h1h-1v-1h-1h1ZM274,938v-1h-1ZM297,950h-1l-1,-1h1v1ZM300,952h1h-1l-1,-1ZM306,955l-1,-1h1ZM313,957h-1ZM336,967h-1h2ZM362,975h-1l-1,-1l1,1ZM496,1000h-1ZM500,1000h1ZM500,1000h1Z"/>
<path class="sp" d="M502,1000h-2"/>
<path class="sl" d="M501,1000h1ZM503,1000h1Z"/>
<path class="sp" d="M505,1000h-2"/>
<path class="sl" d="M504,1000h1h-2ZM508,999h1ZM501,1000h1ZM511,998h1Z"/>
<path class="sw" d="M383,84h-1ZM527,489h-1l1,1ZM528,490v-1l-1,1ZM690,198h-1ZM589,96h-1ZM745,120v-1h-1v1ZM748,120h-1h1v1ZM743,120h-1ZM739,114h-1v-1v1ZM592,99v-1Z"/>
<path class="sh" d="M504,610h1v7h-1v4h-5l-2,-1l-1,-2v-1h-1v-3l1,-2l1,-1v-1l2,-2h1l1,1l2,1Z"/>
<path class="sw" d="M441,25h-4l-1,-1l-1,1h-2l1,-1h7ZM493,18h3v-1h1h-1h4v1h5v1h1v1h-1v1h-7l-1,-1h-1v-1h-2ZM500,365v1h-1v1l1,2l-1,1v1h-1v1h-2l-2,2v1l-2,2v-2h-1v-1l1,-1v-1h1v-1h1l2,-2l2,-1v-1l1,-1ZM360,283l-1,1h-2v1h-1v-2h1v-1h3ZM532,509v1l-2,-2v-1h-1v1h-1h1l-1,1h-1v-1h-1v-2l1,-1v-1l-3,-3l1,-1v-1l-1,-2v-2h-1v-3h-1v-2l1,-1v-1l1,-1v-1h1l-1,-2v-7h-1h1v-3h-1l-1,-1v-1l-1,-1v-2h1v-2l1,1l2,1v1l1,1v1l1,2v3l1,1v1h-1v3h1v1h1v1l1,1v3l-1,1v1h-1v5l1,1l-1,1v1l1,1l-1,1l1,1v3h2v1l1,2ZM527,490v-1h-1ZM527,490h1v-1ZM528,386l1,2h-3v1h-2l-1,1v2l1,1h-1v1l-1,2h-1l1,1h-1v1h1h-3v2l-1,1h-2v1h1v1h-1l2,1h1l1,-1l1,1h-1l-2,2h-1v1h-2l-1,-1h-1v1l-1,1l1,1v1l-1,1h-1l1,-1h-1l1,-1v-2h-1v-1h-1v1h-1v-1h-1v-1h-2v2h-1v2l-1,-1h-1v1v-2h-1l1,-1v-1h-1v-3l1,-5l1,-2v-1h-1v-1l-1,-1l1,-2l2,-2v-1h-1v-1h2l1,-1h2l1,-1v-1l1,1h2v1v-1h1v-1h1v-1h1v-1v1l1,-1v1h-1h1l1,1h-1l1,1l1,-1h1v1h2v2h1v1l1,1h1l1,-1h1ZM505,405v-1v1h-1l-1,-1v2h1v-1ZM507,389l1,-1h-2v-1h-1l1,1h1v1h-1v1ZM515,404v-2h-3v1h1l1,1ZM517,384v-1h-2v1h1v1v-1ZM797,98l-1,-1h-1v-1v1h1Z"/>
<path class="sr" d="M795,97h1l1,1"/>
<path class="sw" d="M423,26v1h-3v1h-4v1h-2l1,-1h1v-1h3v-1h5ZM550,289h-1v-1h-1v1v-1h-1v-2h1v-1h4v4h-1v1h-1ZM521,18v1h-7v-1h1v1h3l-1,-1h-2l-1,-1h-1l-1,-1h-2v-1h1v1h2l-1,-1h1v1h3v-1h-1h2v1h1h-1v1h2v1h1ZM516,17v-1l-1,1ZM369,51h-1l-2,1h-1v-1h1v-1h1v-1h1v1h1h-1v1ZM368,51h-2l-1,1h2ZM533,27h-2v-1h-1l-2,-1h-2v-1v1h3v-1h-1l-1,1v-1h3l2,1h1l1,1v1l-1,-1ZM769,113h-2l1,1h-4l-2,-1l-1,-1h-1v-1h4l1,1h3v1ZM533,512l-1,1v-1ZM768,93l-2,-1h-1l-1,-1h-1l-1,-1h-1v-1v1h1v-1h-1v-1h-1l-1,-1h1v-1l-1,-1h-2v-1h-2v-1l1,1h1h-1h1v1l3,1l1,1h-1v1h1l1,1h1v1h1v1h1l1,1h1ZM546,364l-1,1h-1l-2,-4h-1v-2l-2,-2v-1l-1,-1v-2l1,-1v-5l1,1v-1h1v5l1,1v6l4,4ZM441,39l1,-1h1h-1ZM441,39h-1ZM792,94l1,1v1h1l2,2h1h-1v-1h-1l-2,-2h-1l-2,-2ZM779,90l-1,-1h1v1h1l1,1h1v1h-1v-1h-1ZM480,460v1l-1,1l-1,2l-3,3h-2v-3l5,-5h2ZM967,363v-1l-1,-1v-1l-1,-1v-1l-1,-1v-1l1,1l1,2v1l1,1v1ZM874,176h1v1h-1v-1h-1l-1,-1v-1h-1v-1v1v-1l-1,-1h1l3,3ZM620,16h-1v-1v1ZM585,136l-2,-2v-1l2,1l2,2l-1,1v-1ZM591,143l-1,1h-1v-1h-2v-2l1,-1v1l2,2ZM531,147v1l-1,1h-1v-2h1ZM482,26h3v1h-3ZM279,312h-1v4h-1v-4h-1l1,-1v-1h2l-1,1ZM597,114h1v1l1,1l-1,1h-1v1l-2,-2v-1l-2,-2v-1h-1v-1h2l1,1v2h1ZM666,99v1h-3v-1h-2v-3h2l1,1v1h1ZM705,56h3v1h1h-2l-1,-1ZM770,101l-2,-1l-2,-2h-1v-1h-1h2l3,3ZM488,481l-1,1v1l-1,1h-2v-2h-1h1l1,-2h1v-1h1l1,1ZM491,4h1h-1v1h-3v-1h2ZM482,12h1v-1h1v1h1h-2ZM482,26h-1v-1l-1,-1h3v1ZM480,399l1,1v1l1,2h-1v1l-1,1h-1v1h-2l1,-1v-2l1,-2v-2ZM482,391v-1h-1l1,-1v-1l2,-2h1l1,1v1l-3,3ZM71,755l1,1v1v-1h-1v-2h-1ZM510,57v1l-1,-1h-2l-2,-1h-1l-1,-1h-1h2l1,1h2v-1v1h2v1ZM189,891l2,2h1v1v-1h-1h1v1h1h-1l-1,-1h-1v-1h-1v-1v1h1l-1,-1h-1ZM869,202l-2,-2v-1l1,1h2v2ZM514,105v1h1v1h-2l-1,-1v-1h1v-1ZM483,19h1ZM492,15h1l-1,-1h1v1h1h-1ZM491,15h1ZM621,16h-1ZM607,12h-1ZM609,12h-1h1v1ZM607,12h-1h2ZM514,13h1v1h-1l-1,-1v1h1v1v-1h-1l-1,-1h-1h2ZM508,13h1v1v-1h1v1h-3v-1ZM497,15v-1h1l-1,1h-1ZM494,14h1l1,1h-1v-1h-4v-1h1v1h1ZM499,9h1h-3v-1h2ZM504,10h1h-3v-1h-1h2ZM808,127h-2v-1h-1v-1l1,1h1ZM498,17v-1ZM500,26h-1v-1h2v1ZM860,192v1l-1,-1h-1v-1h-1v-1l1,1v-1l1,1ZM793,101h-1h1v1l-1,-1h-1v-1l-1,-1h1v1h1v1v-1h-1h1ZM357,75v1h-3l-2,1v-1h2l1,-1h1Z"/>
<path class="sw" d="M322,50h1v1h-1ZM426,27v1h-2v1h-2l-1,1v-1h1l1,-1h1l1,-1h2ZM578,110v-1h-4v-1h1l1,-1h4v1l-1,1h1v1h-1ZM837,156l-1,-1h-1v-1v1h2ZM433,16h1v1h-1h1l-1,-1h-1ZM509,454v1l-1,-1h-4v-1l-1,-1v-1h2l2,2ZM949,311l-1,-1v-1h1v1ZM482,17h-1v1l-1,-1h-1h2ZM434,25h-3v1h-1v-1h-1h4ZM481,14v1l-1,-1h1h-1h2ZM525,21h1ZM3,452v2l-1,1v-1l1,-1v-2ZM537,417l1,-1v-1h1l-1,1v2h-1ZM557,331h1v1h-1v1l-1,1v1h-1l-1,1v-1h1v-1h1v-1l-1,-1h1v-1ZM456,8h-3v-1h1l2,1h1ZM418,69h1l1,-1h1l-1,1ZM186,889h1v1l-1,-1h-1v-1ZM384,397v-1h-1v-1h-1v-1h3v3ZM497,13v-1h1v1h1h-1ZM835,185h-2v-1h1l2,2h-1ZM852,192v2h-1v-2ZM725,66h-1v-1h-1h2ZM701,60l-1,-1h-2v-1h1v1h2ZM713,56h-1ZM530,18h1v1h-1ZM491,8h1h-1v1h-1v-1h1h-1ZM509,6h1ZM503,8h-3l1,-1h2ZM877,214v-1h-1v1l-1,-1h1v-1h-1v-1h-1v1v-1h1v1h1v1h1ZM681,47h-1ZM666,45v1h-1v-1ZM505,9h1h-2ZM929,243v1h1h-1ZM476,26h-1ZM429,16h1v-1h1h-1v1h1h-1ZM589,99h3v1h1v1h1h-3v-1h-1v-1ZM852,170h-1l-1,-1h1v1ZM620,157h-3l-1,-1h-3v-1h1l1,1h4v1ZM790,97h-2v-1h-1l-1,-1h1v1h2v1ZM849,193v1v-1h-1l-2,-2h1v1h2ZM593,291v1ZM47,695v2h1v2h1v2l1,1h-1v-2h-1v-2h-1l1,-1h-1v-2h-1v-2l-1,-1v-1v1h1v2ZM479,529v1h-1v1h-1v-1h-1l-1,1v1v-1h-3v2h-1l-1,1h-1v1h-1v2h-1v1h-1l-1,1v1h-1v1h-1h1v-2l1,-1h1v-2l2,-2v-1h1v-1h1l-1,-1h3v-1h1l1,-1h2v-1h1l1,1ZM518,371h-1l-1,1h-1v1h1h-1l1,1v-1v2l-1,-1h-1l-1,-1h-1l1,1h-1v-1l-1,1l-1,-1h-1l1,-1h5v-1h2ZM534,22h1l1,1h1h-1h1h-2l-1,-1h-1ZM375,69h-3v-1h1v1h1ZM466,18h-1l-1,1h-1h1l1,-1ZM530,150v1l-1,-1ZM531,140v1h-1v-1ZM876,184h-1v-1v1ZM874,183h1h-2v-1h1ZM749,112h-3v-1h-1h2l1,1ZM829,188h-1v-1v1ZM830,188v1h-1v-1ZM243,346v-1v1l-1,1v2h-1v-1v1v-1h-1l-1,-1h-1l-1,-1h-1h2v-1v1h2v1l1,-1l-1,-1h2v-1h-1h1v-2h-1h1v-1h1h-1v-1l-1,-1v1h-1v-1h1v-1h-1v1h-3v1v-1h1l1,-1h2v-1h-1v-1l-1,-1v1v-1h-2v-1h-1v-1l-1,-1v-1h-1v1h-1v-1h-2v1h-1l2,-2l1,1h1v-1h1v1h1v1v-1h1h-1v1l1,1v1h2v1h2v2h1v-2h1v-6h1l-1,1v2h1l-1,1v1h1h-1v1l-1,1h1v1h1v1h-1v1h1v1h-1v5ZM242,346v-1h-1v1ZM660,83v-3h2v-1v1h-1v1l-1,1h1v2l1,1v1h-1v-1l-1,-1ZM670,80l-1,-1h-1l-1,-1h-2l-1,-1h2l1,1v-1v1h1v-1h-1h1v1h1l2,1v-1h1l-1,1h1v1h-1ZM664,79h-1l-1,-1h2l1,1ZM753,92v1h1v1h-3v-1h-3l-1,-1h-2l-1,-1h-2l-1,-1h-2v-1h-1v1h1h-2v1h1l-1,1l-1,-1v1l1,1h1l-1,1h1v1h1v1h1h-1v-1h-2l-2,-2h-1v-1h-1h1v-1h-1v-1h1h-1v-1h2l-1,-1h2l1,1h3l1,1h2v1h2l1,1v-1h1l1,1h2l1,1v-1v1v-1h1Z"/>
<path class="sw" d="M494,459h-2l-1,-1v-1h1v-3h-1v-1h-1v-1l-1,-1v-3l-2,-2h-1l-3,-3v-2h-1l-1,-2v-1l-1,-1v-1h1l1,-1v-1l-1,-3l-1,-1v-7l1,-3v1l-1,1v1l-1,-1l1,-1h-1v-1l1,-1v-5h2v6l2,2v5l2,2v1l-1,1v1l1,1v1l1,1v1l-1,1h-1v2l2,2h2l2,2v1l1,1v3l1,1v2l2,2v2h1v2h1v2h1v2l-1,-1v1h-1ZM81,752v1h1v3l1,1v1l2,2v1v-1h-1v-1h-1v-2h-1v-2h-1v-2l-1,-1v-2h-1v-1v1l1,1h1ZM524,74h-1l-1,-1v-1h-2v-1h-2v-1h-1v1h-1v-1h-2v-1h1l1,1v-1h1v1v-1l2,1h-1h2v1h1l2,2h1ZM492,16v1l1,-1v1h-4l-1,1h1h-1h1h-1l-1,1h-2v-1h1h-3v-1v1v-1h1v1v-1h1h-1h1l1,1l1,-1h1v-1h-4v-1v1h-1v-1h1v-1h-1h1h-1v-1h-1h1l1,1h-1h2v1v-1h2v1h2v1h1h-1l-1,-1h-1v1h-1l1,-1h-2l1,1h5v-1h1l1,1v-1h1v1h-1h1h-1ZM486,15h1v-1h-1ZM484,18h-1ZM485,18h1h-2ZM488,18h-1h1v-1h-1v1ZM492,17v-1h-3v1h2ZM768,93l-2,-1h-1l-1,-1h-1l-1,-1h-1v-1v1h1v-1h-1v-1h-1l-1,-1h1v-1l-1,-1h-2v-1h-2v-1l1,1h1h-1h1v1l3,1l1,1h-1v1h1l1,1h1v1h1v1h1l1,1h1ZM164,870l2,2l2,1l1,1v1h1h-1l-4,-4h-1v-1h-1ZM482,15h1h-2v1h1h-1v-1v1h-1v-1h-1v1h-2v1h-1v1h-1h2v1l1,-1v1h-2v-1v1h-1v-1h-1h1v-1h-1h2v-1h1v-1h1l-1,-1v1h-1v-1h2l1,1h-1h1h-2v1h2v-1h2l1,-1h1h-1ZM496,10h5v1h1h-1l-1,-1h-2l-1,1v-1ZM523,64h-7v1h-1l-1,1h-1v1h-1l2,-2h1v-1h1v-1h1v1h1v-1h3v-1h1v1ZM585,41v-1h1v-2h1l-1,-1h1v1v-1h1v1h2l1,-1v1h6l-1,-1h2v1h-10v1h-1v1h-2v1h2v1h4l1,-1v1h-2v1h1h-1v1h1v1l-2,-1h1h-1v-1l-1,-1h-2v-1ZM30,544v4h-1v2h-1v4h1v1v-1h-2v1l1,2l1,1v2l-1,-2v-1v8l-1,-1v-10h-1v-1h1v1v-5h1v-1h1v-5ZM28,562h-1v-1v2h1v1v-1ZM962,436h-1v-3h-1v-2h1v2l1,1v1ZM480,17v1h-1v-1h-1v1h-1v-1h2ZM506,207l-1,-1v1h-1v1h-1v1h-1l-1,1h-1v1l-1,1v1h-1v1h-1l1,-1v-1h1v-1l3,-3h1h-1v-1h2v-1h5v-1l1,-1v-1l1,-1v-1h-1v-1h-1h2v-3l1,1v5h-1v1h1v1l-1,-1h-1v1h-1v1l-1,1h-1v1h-1v-1h1ZM472,18h-2v1h-1h1h-1v-1h3v-1ZM467,18h1v1h-1v-1h-1h2v-1h1h-1v-1h1l-1,1h1v-1h1v1h2v-1h1v1h-5v1h1h-1ZM243,346v-1v1l-1,1v2h-1v-1v1v-1h-1l-1,-1h-1l-1,-1h-1h2v-1v1h2v1l1,-1l-1,-1h2v-1h-1h1v-2h-1h1v-1h1h-1v-1l-1,-1v1h-1v-1h1v-1h-1v1h-3v1v-1h1l1,-1h2v-1h-1v-1l-1,-1v1v-1h-2v-1h-1v-1l-1,-1v-1h-1v1h-1v-1h-2v1h-1l2,-2l1,1h1v-1h1v1h1v1v-1h1h-1v1l1,1v1h2v1h2v2h1v-2h1v-6h1l-1,1v2h1l-1,1v1h1h-1v1l-1,1h1v1h1v1h-1v1h1v1h-1v5ZM242,346v-1h-1v1ZM452,10h-1h1h-1h2Z"/>
<path class="sw" d="M452,10h2v1h-2ZM440,15h-1h1l-1,-1h-4v-1h1v1h4ZM433,13h1l-1,1ZM588,139v1h-1v-1h-1v-1h1v1ZM422,90h1v1h-1l-1,-1ZM7,520v-3l1,1v6l1,1v2l-1,-1v-6ZM40,631v3l-1,-1h1v-1l-1,-1v1v-2h-1v1v-2h1v2ZM35,656v-2l-1,-1v-2l-1,-1l1,1v1v-1v1l1,1v3l1,1l-1,-1v1ZM155,861l1,1h-1v-1h-1v-1l1,1h-1ZM372,69h-1l1,-1ZM522,16h1ZM532,20h-1h2v1v-1ZM500,11h2v1ZM503,7h-1l-1,-1h2ZM512,6h1h-1h1ZM724,110h1l1,1h1h-2ZM776,89h1ZM857,182v1v-1h-1h1l-1,-1ZM855,181l1,1v1l-1,-1ZM799,174l-1,-1h-1v-1h1v1ZM867,194v-1l1,1ZM852,189v-1l1,1ZM803,163l2,1l1,1h1h-1l-2,-1ZM694,66h2v1h-1v-1l-1,1h1l1,1h-2l-1,-1v-1ZM666,55v-1h1v1ZM421,20v-1ZM422,19h1h-1l-1,1v-1ZM958,698v-1l1,-1v-1v1l-1,1ZM935,737v-1l1,-1v-1l-1,1v1l1,-2l-1,1l1,-1v-1h1v-1v1v-1h1l-1,1v1l-1,1v1h-1Z"/>
<path class="sb" d="M250,135l1,-2v-1h1v-1l1,-1h1l1,-1h1v-1l-1,1v-2l1,-1v-1h1l1,-1h1v-1h-1v-2l2,-1h1v-1h1v-2h2v-1l1,-1v-1l1,-1v-1h1l1,-1h1l1,-1h1v-1h-1v-1h1h-4v1h-4v1h-1v-1h1v-1l-2,1l-1,1M317,98h-1M325,97h-2l-1,1h-5v-1h1h-2v1v-1h-4v1h-7v-1h-1v1l-1,-1h-1h1h-1v-1h-1M362,63h-3M363,60h-2v1h-1v2h-2l-1,-1h-1v-1h1h-2l-1,1h-1v-2h-1v1h-1v-1h-1v-1h-1v1h-1v-2M364,58h-1v-1h1v-1h-3l1,-1h-1v1h-1v-1l-1,1h-2M364,70h-1l2,-2v-1h1l2,-2l2,-1h-3v-1h-1v1h-1v-1h-1v1h-1v-1h-1v-1h2v-1h-1v-1l2,-1v-1h-1h1h-1l1,-1h-1v-1h2l1,-1v-2h4l1,-1h-1h1l1,-1h1h-1v-1h2v-1h1v-1h1v-1M356,78v-1h-1l1,-1h-3v1h-1v-1h1v-1h1l1,-1h1v-1h1l1,-1h2v-1h-1h3l1,-1h4l1,-1h1h-1h6M373,71v-1M378,72v-1h-1l-1,1h-2v-1h-1v-1h1v-1h3v1h1v-1h6v-1h5v-1h3v1h1l1,-1h-1v-1h1h-1v-1h1l1,-1h2l1,-1h2v-1M409,69h3v-2h1l1,-1h-1v-1h4v-1M417,62v-1h-11v1h-3v1h-2v-1h-1l-1,-1h-2v-1h-2v-1h-1l1,-1v-1h-1v-1h1v1v-1h4v-1h3l1,-1h3v-1h4M446,61h-3v-1h-1l-1,1h-4l-1,1h-1l-2,1l-1,-1h-1v1h-4l-1,1h-1l-2,1h-3l-1,-1h-2v-1l-1,-1h1l2,-2h4v-1h2v-1h2v-1h2M449,58h-3v-1h-9v1h-3v-1h-3v1h-1v-1h-1l-1,-1h-2v-1h-1v1h-1v-1h-1h1v-1l-1,1h-1l-1,-1h-1v1h-1l-1,1v-1h-1l-1,-1h1v-1l-1,1h-1v-1h-5l1,-1v-1h-1l1,-1h-1l1,-1h1v-1h-1v-1h1l-1,-1h-1l1,-1h1v-2h1M456,38l-3,1h-13M458,48h-1l1,-1v-1h-2v-1h2l2,-1v-2l-1,-1v-1M450,63v-1h-2l-1,-1h-1v-1h1l1,-1h1v-1h1v-1h1l-1,-1h1l1,-1h1l1,-1h1l1,-1h1l2,-1v-1h1l-2,-2v-1h2l1,-1h16l1,1h4v-1l1,1h4v-1h1v1h6l1,1v-1h1h-1v-1h1v-1h3v-1h2l1,1M472,61l1,-1h7v1h4l1,1h2v1h-1v1h2v1h1h-1h1v1h1l1,1v1h1v1h-2v-1h-1v1v-1h-2v1h-1v-1h-1v2h-1v1h-1l-1,1v1h-2M433,71h3v-1h3v-1h1l3,-3h1v-1h1v-1h2l1,-1v1v-1h2l1,-1h6l1,1l1,-1h1v1h3l2,-1h5v-1h4l1,1v1h1v1h1v1h1l1,1h1v1h1v1l-1,1v3h-1h1v1h1l1,1h2v-1v1l1,-1h4v1M446,79l1,1l-1,1h19v-1h2l2,-1h4l2,1h4l1,1h2M353,88l2,-2h-3v-1h-1h1v-1h1v-1h-1v-1l1,-1h2v-1h1h-1v-1h-1h1v-1h3l1,-1h3l2,-2h1v1h1l1,1h-1h1v-1h1l2,-2h1v1h1l1,-1h1v1v-1l1,-1h2v-1h4v-1h3v-1l1,1v-1h2v1h1v1h7M393,76h1v-1h-1l1,-1h-1l1,-1h-1l1,-1h7v-1h4l1,-1h3v-1h2v2M392,76h1l1,1v-1h4v-1h1v1h4v-1l1,-1h1l1,-1h-1v-1h3v-1h5v1h2v1h9v-1M424,77v-1h2v-1h-2l1,-1h-1v-2h4v-1h5v1h1l1,1v1h1v1h3v1h-1h1v1h-1h3l1,1h1l1,-1h2v1h-2l1,1h1h-1v1h-1l-1,1v1h1v1h1v1h1v1h-1l-1,1h-1v1h-1h1v1h-1v1h-1"/>
<path class="sb" d="M436,89h4l1,-1v1h1l1,1h1l1,1v1l-1,1M412,87h1v-1h-1l-1,-1v-1h-2l-2,-2h-1v-2h-1v-1h-1v-1l1,-1h2l1,1v-1h1v-1h4v1l1,-1l1,1l1,-1l1,1l1,-1h4v1h4v1h-1l-1,1v1h1l1,1h-2v1l1,1h-2v1M429,87l1,-1h1l1,-1h-1h1v-1h1v1h2v1h1v1h2l-2,2h-1v1h-4v1h-1M431,96h6l1,-1h1v-1h1l1,1l1,-1h1v-1h8l1,-1h3v1h10v-2h2M427,88h1v1h1l1,1v1l-1,1v3l1,1h1v2h-1l-1,1v1h-1l-1,1h-1v1l-1,1h-1M417,89v-1h1v-2h1v-1h3v-1h-1h3l1,1h2l1,1h1v1h-2l1,1h-2l-1,1v-1h-1v1h-1l-1,1v2M464,96h1v-1h1v-2h2v-2h-1v-1h3v-1h4v1h1v-1h1v1l1,-1h1M484,32h-1l-1,1h-4l-1,1h-1M450,33h1l2,-1h19l1,1h2v1h1l-1,1h-1v1h-2l-2,2h1v1h-1v-1h-1l-1,1h-3l-1,1h-5v-1h-2v-1h-1l1,-1h-1v-1h-7M481,28h-5l-1,-1h-8M68,743v1l1,1v1h1v1l1,1v1l1,1v1l1,1v1h1v1l1,1v1l1,1v1h1v1l1,2M50,703l2,3l1,3l1,2v2h1v3h1v2l1,1h-1v1h1v2l-1,-1l1,1h-1v1h-1v-2h-1v-2l-1,-1v-1l-1,-1v-1l-1,-1v-2h-1v-2h-1v-2l-1,-1l-1,-2h-1v-1l-2,-2v-1h-1l-1,-1v-2h-1v-1l-1,-1l-1,-2v-2h-1M152,859l4,4h1v1l1,1h1v1l1,1h1v1h1l1,1v1h1v1h1l4,4h1l2,2v1h1l4,4h1v1h1l4,4h1v1h1l2,2h1v1h1l2,2h1v1h1v1h1h-1v-1h-1h1l2,2h1v1l2,1h1v1h1v1v-1h-1v-1h-1h1l-1,-1h1M31,667l-1,-1v-2l-2,-2v2l1,1v2l1,2v2l2,4v1l2,4v2l2,3l1,2l1,3v1v-1v2h1v1l1,2M1,479v-11M2,455v-2M2,451v-1M2,472v-10l1,-1v-13l1,-1v-1M86,762v-1h-1v-1l-2,-2v-1l-1,-1v-1l-1,-1v-1h-1l-2,-2v-1h-1v-1h-1l-1,-1v-1h-2v-1h-1v-1h-1h1v1l-1,-1v-1h-1l-2,-2v-1v2l-1,-1v-1l-1,-1v-1l-1,-1v-2l-1,-1v-1l-1,-1v-1l-1,-1v-2l-1,-1v-1l-1,-1h1h-1v-2l-1,-1v-2h-1v-3h-1v-4l-1,-1v-2h-1v-1l-1,-2v-1h-1v-2h-1l-1,-2v-1h-1v1v-1l-1,-2l-1,-1v-2l-2,-3v-1l-1,-1v-2h-1v-1v3l-1,-1v-2h-1v-2h-1v-2h-1v-2h-1v-2l-1,-1h-1v-1v3l-1,-1v-2h-1v-2l-1,-1v-2l-1,-1v-2h-1v-2h-1v-3h-1v-2h-1v-1l-1,-2v-3l-1,-1v-2l-1,-3l-1,-1v-1l-1,-2v-2l-1,-1v-1h-1v-3l-1,-1v-2l-1,-1v-1v2l-1,-1v-2l-1,-2v-2l-1,-1l-1,-5v-2h-1v-4h-1v-1v1l1,1M0,486v-5l1,-1v-8h1v1v-3h1v1v-8l1,-1v-8h1v-2M215,196v-1l1,-2v-1l1,-1v-2h1l2,-2h1l2,-2l2,-1l1,-1h1l1,-1h1v-1h4v-2h3l2,-1h2l4,-4l2,-1l1,-1h2l2,-2h1l1,-1h1v-1h-1v-1h1v-2h1v-1h2l3,-1v-1h1v-1h3l1,-1h6v-1h1v-1l1,-1v-1h-1v-4l1,-1v-3l1,-1v-3h1l-1,-1h-1v-1M339,163v-11h-1l-3,-3v-1l-1,-1v-1h-1l-1,-1v-1l-1,-1v-1l1,-1v-1l2,-1l1,-1h1l1,-1h1v-1l1,-1v-1l1,-1v-4l1,-1l1,-2h-1h1l1,-1v-1h2v-1"/>
<path class="sb" d="M347,207v-2l-1,-1l-1,-2v-1h-3l-3,-1l-2,1h-1v-1h-1v-5l-1,-2l-2,-1v-3l2,-1l2,-2v-4l1,-2l1,-1v-5l1,-3v-4l-2,-2v-1l1,-1h2l1,-1h1l1,-2h1v-1h1v-5h1v-1h2v-1h1l1,-1h1l2,-2h2l1,-1v-3h1v-2M448,212v-13l1,-1v-16l1,-1v-13l1,-2v-3l-1,-1v-3l-1,-2v-1l2,-1v-1l1,-1l-1,-1v-2l1,-1v-1h1M439,230v-3h6l2,-1v-7l1,-3v-4h27l4,-1h19l1,-1h1v1h23l2,1h19M543,269v-2l-1,-1v-3l1,-1v-1l1,-3l2,-4v-1l-1,-2h1v-3h4v-2h2l1,-1h3v-1h1v-1h1l1,-1v-1M593,285l2,1l1,-1v-1h2l1,-1M523,307v-3l1,-1v-1l1,-1l-1,-3l2,-2h2v1h1v-1h1v-5l1,-1v-2l3,-3l1,-2l1,-1h1l2,-1h1v-4l1,-1v-1l1,-1v-3l1,-2h5v-1h1l2,2h1v-1l1,-1l1,-2v-1h1v1h2v1l1,1h1v1l5,-2h1v1h5l1,1h3l2,2h3v1l5,5l2,1l2,2l1,2h1l3,3l-1,1l-1,2l-3,3v6h4l2,-1h2v1h2M641,323h-9l-5,-2l-6,-3l-6,-2l-7,-3h-1l-3,-3h-1l-3,-3v-1l-3,-3v-1l-1,-1v-3h1v-1h1l1,-2v-1l1,-1M590,354l2,-2h2l5,-1v-1l1,-1h1l2,-1l1,-1h3l1,-1l3,1h5l2,-1l2,-3l10,-10l3,-2l1,-2l3,-2l5,-5l2,-4l2,-2l2,-4v-12l-1,-2M533,339v1l1,1v-1h1l2,1h1v2l-1,1v1l2,2v1h5l6,2l2,1l1,1l2,1l1,1l2,1l1,1h4l2,1h5l4,-4l3,-1h2l2,-1l2,2h1v1h6l-1,1l-1,2l-2,3l-3,3v31l1,2l3,3v1l1,1l-1,1M152,251h1l1,-1h3l1,-1h4l1,-1h1l1,-1v-1h1v-1l1,-1v-1h1v-1h1v-1l1,-1v-2l1,-1v-1l1,-1l1,-2v-1l3,-3h1l3,-3v-1l1,-1h1v-1h1v-1h1v-1h1l1,-1l1,-2v-1l2,-2v-1l1,-1v-1h1v-1h2v-1l4,-4v-1h1v-1h1l1,-1h2l1,1h1v-1h3l2,-2h2l1,-1h1v-2l2,-2l-1,2v1M150,256v-1l1,-1l1,-2h2l1,-1h2l2,-1h2l1,-1h3l1,-1h4l2,-1h2v-3l1,-1v-3l1,-1v-3l1,-1h1l4,-4h1l2,-2v-2l1,-1v-2l1,-1v-2l1,-1v-2l1,-1v-1l1,-1v-1l1,-1v-1h1l1,-1h4l1,-1h3l1,-1h5l1,-1h2l1,-1v-1l1,-2v-1l1,-2v-1l1,-1l2,2h1l1,1h1l2,2h1l2,2h1l1,1h1l1,1l2,1l2,2M166,295l1,1v-1l2,-2v-2h1v-1l2,-2l2,2v1h1l1,-1v-1h1v-1h5l2,-1l1,-1v-1v1h4l1,-1h4l1,-1h4l2,-1h4l1,-1h4l2,-5v-3h-1v-4l1,-2v-7l1,-2v-6l1,-2v-5l1,-2v-4l1,-1v-4l1,-2v-3l1,-2v-4l1,-1v-4l1,-1v-4l1,-2h4l2,-1h5l1,1l2,1l1,1l6,3l3,3l6,3l3,3l6,3l2,2l2,1h1v1l-1,1l1,1l2,1v1h1v1h3l1,1h4l1,1v4h-1v1l1,1h1l2,-1h2l2,-1M249,280h1v-1h5l1,-2l2,-1h2l2,-1h4l2,-1h2v-1h4v-1l2,-1h1v-1l1,-1v-1l1,-1l1,-2v-2l1,-1v-2l1,-2v-4l1,-2v-5l1,-2v-1h2l1,-1l6,-2h3v-1l3,-2l3,-3l2,-1l4,-4l5,-3l4,-3l5,-2l4,-3l4,-2l4,-3l5,-2l4,-3l4,-2h4l4,1h4l4,4l3,-2l3,-1"/>
<path class="sb" d="M351,279v-4l-1,-2h1l1,-2l2,-2l5,-7l9,-9l2,-8v-3l2,-6v-2l1,-4l2,-3l-2,-2h-1v-1l1,-1l-3,-3v-7l-1,-4l3,-2l6,-2l2,1l4,1l3,2l4,1l3,2l4,1l3,2l4,1l4,2l3,1l4,2l4,1l4,2l3,2l4,1l4,2l4,1v4l-1,3v20l-1,1v1h-7l-1,1v3l-1,1h-1v1l-1,1v1h-2v3h1v1l-1,1h-1v1h-1l-1,1v1l1,1v2l-1,1h-1l-1,1v1l-1,1h1v1h2l1,-1l1,1v3l1,1v1h1l-1,3h1v1h1v1h1v3M143,293v-2l1,-1v-1l2,-2h3l1,-1h1l1,-1h2l2,-1h1l1,1v2h3v3h1v1h1v2l1,1h1v1h1v4l1,1l-1,1v3h-1l1,1v2h1v-1h1v3h1l-1,1v3M139,311h1l2,-1h3v-2h1l1,-1h1l1,1h2v1h1v-1h2v1l-2,2h-1l-2,-1h-1v-1h-1v1h-1v1h-1l-1,1h-1l-2,2h-2l-1,1h-1v1M136,321h2v-1h1v-1h2l2,-1l2,-2h3l2,-1h2l2,-1M144,330l1,-1l1,-3l2,-2h1v-1h2l2,-1v-3h-1v-1h1v-1h1v-3h4v1l1,-1v1h4l1,-1h1l2,-1h1v1h-1v2h2v-1h1v-1h1v2h1l1,-2h1l1,-1v1h3l2,-2h1v-2h2v2l1,2v1l-1,1h1v1h1l1,1l-1,1l-1,2l1,-1l1,1v4l1,1h1l-1,1M204,322v-1h1v-4l2,-2v-5h1v-1h2l1,-1h1v-1l2,-2v-2l2,-2v-1l-1,-1l2,-2h1v-1h1l2,1h1l1,-1v-3h3v-2l3,-3h3l1,-2h1l1,-1h1l1,-1l2,-1l1,-1h1v-1l2,-1l1,-1l1,1l1,-1l2,1h1v4l1,1v3l1,1h2v1h1v1h1h-2v3h1l2,2h1l1,1l1,-1h1v-1h1v1l1,1v1h-2v1l2,2v1M152,343h2v-1l3,-3v-2h1v-2h1l1,-1v1l2,-1v-1h4l2,2v1l1,1v1l-1,1h1v3h1l-1,2l-1,1h1l1,-1h1M162,358l1,-2l1,-1v-1h1v-1l3,-3v-1l1,-2l1,-1v-1l1,-1v-1h1v1l2,-1v-1v1h1l1,1v6l-1,1h2v1h2v-1l1,-1v-2h1l1,1M186,374v-6h1v-1l1,-1v-4h-1l-1,-1h-1v-2h-3v-1h-2l2,-2v-2l1,-1l-1,-3v-2h2v-2l1,-1v-2h-1v-2h4v-2l-1,-1h-1v-1l2,-2h-1v-2h-1v-5h1v-1h1l1,-1v-1l1,-1h1v1h2v1h1v-2h2v-2h1v-1v1h1v-1h1l1,-1v1l-1,1h1v1h-1v1h2l1,-1v-1h3v1l1,-1h1v2h1v2h1l1,1v-1l1,1h1v-1l1,-1h2v-1h4l1,-1v1h1v1l1,1v1h1v-1M218,362h2v-4h-1v-1h-1v-3l-1,-2v-3l1,-2l1,-1v-1h1v-4l1,-1v-1l1,-1h1v-1l1,-1l-1,-2v-4h-1l1,-1v-15h5l2,-1h3l2,-1h5l2,-2h2M249,350v-1h-1v-1h-1l-1,-1v-1l-1,-1v-2l1,-1v-2h-1v-1l1,-2v-4h1v-2l-1,-1h-1v-1l1,-1v-5h-1v-3l1,-1v-3h-1v-1h-1l-1,-1v-1l1,-1v-2h1l2,1h2l2,-1M253,348h1v-1l-1,-2v-2l-1,-1h1v-3l1,-3v-11l-1,-2v-5l-1,-1l-2,-1l-1,-1v-2l1,-1v-1l1,-1v-1v1h1v-1l1,-1h1v-1l1,-1h4l2,-2v-1l2,-2l-1,-2h1l1,-1h1l1,-1l4,4h1v1M261,346v-2h1v-1l-1,-1v-1h1v-13l1,-2v-2h2l1,-1v-3l1,-1h1v-2h1l1,-1v-3l1,-1h1v-5l-2,-2v-1l1,-1v-1h1v-7h1l3,-3v-1l1,-3v-1h1l2,-2h4l2,-1h1v-1h1l2,1h4v1h1l1,1l1,2v1h2v-1h2l4,-3h1l1,1l5,2h7l2,-3h1l1,-1h3l4,-1h6l2,1h4v-1l1,-1h1l1,-1l2,-1h1l1,-1h2l3,3v1"/>
<path class="sb" d="M306,354l2,-2v-2l1,-2v-1l1,-1v-2h1l1,-2l3,-3h1v-1l1,-1v-1l2,-1h1l1,1l1,-1h1v-1h1l2,2h1v2l1,1v-1h2v-1l1,-1v-1l3,-3h-1v-1l1,-1l1,-2v-1l1,-1l1,-3l1,-1l1,-2h1l2,-2v-2l1,-1v-2l1,-1h2v-4l2,-1v-2l2,-4l3,-3h1l2,-2h1l1,-1v-3l1,-1l-1,-1v-1h-3v-2l-1,-4h4v2l1,1h1l1,1v3l1,2v4l-1,1v1l1,2v3l4,4h-5l-2,1h-6v1l-1,1v1h1l1,1v1l2,2l2,1v1h1l2,2l1,2l1,1v2l1,1v2M368,370v-3l-1,-1l1,-1l-1,-1h-1v-1h-1l-6,-6v-1h1v-1l-1,-1v-1l-1,-1h-1v-1h-1v-5h-1v-1h1v-4h-1v-1h-1l2,-2h1v-1l1,-2l2,-2v-1l1,-1v-1l3,-3h4v-1h2l1,-1v-1h2v1h1l1,1v-1h2l1,-1l2,-1h1l1,-1h5l2,-1h1v-1l1,-1l2,-1v-1h1v-1l-1,-1v-1h-1h1l1,-1h5l2,-1h4l2,-2h1l2,-2v-1h1l2,-2h1v-1l2,-2h1v-3l2,-1l1,-1h1l2,-1h4v1l3,3v1l2,1v1l1,2v5l-2,1l1,1v2h5M465,343l-1,-1v-1l-1,-1v-2l-1,-1h-1l-2,-2h-2v-1l-1,-1v-1h-1l1,-2h-1l-1,-1v-1h-1l-1,-1l-3,-1l-3,-3v-2l-2,-1l-1,-2h-3l-1,-1h-1l-1,-1l1,-1v-1h-1l1,-1h1l1,-1h1v-1l1,-1v-2l1,-1v-2l1,-2h1v-2h2l5,-1v1l2,2h1l3,4h2l1,-1h8l1,2h7l1,-1v-1h1l1,-1h1l2,-1h1v-2h1l2,-1l1,-1l4,3l2,2h1v-1h3l5,-4v-1l1,-2l4,-3v-5l-3,-2h6v-2h4v1l-1,1v3l1,6h-1v1h3v1l4,3v1h1v1h-1l1,1l-1,1v2h2v7l-1,1h-6l-1,1v1l-1,1v1l-1,1h1l1,1h4l2,2h1v2h1l1,1v1l2,1l1,1h1v1l1,1v2l1,1v1l1,1v1l1,1v1h1l-1,2l-4,4l-3,2l-3,3M316,374v1h5l3,-1h4M314,385l1,-1v1h5l2,-1h6v-11h5l2,-1h9v1M327,426v-1l1,-1v-1l2,-1l1,2h2v-1l-1,-1h1v-2h-1l-1,-1v-1h1v-1h-1v-1h-1v-4h4l3,-1l1,-1l-1,-1v-1l1,-1h1l2,2v1l1,1h4l2,-2l1,1v2h2v-1h1v-4h1v-1l1,-1l-1,-1l1,-1v-8l-1,-1h-2v-1h-2v-5h1v-1l1,-1h1v-1h1v-1l1,-1l-1,-1v-1l-1,-2h-4l-2,1h-2v-1l-1,-1v-2l1,-1v-2h2l2,-1h8l1,1v-1l1,1h7l2,2h1v-2l-1,-1h1v-2l2,-2v-2l1,-1v-3l1,-1v-1l1,-1h2l2,-1h5l1,1v-1v1h1l1,-1v1h1v-1h2l1,1M343,431h1l1,1h2l1,-1v-2h2l1,-1h1l1,-1l1,1v4h3l1,-2l6,-6h1l2,-2l2,-5v-10l2,-1v-1l1,-1l1,-3l1,-1v-1h1l1,-1l2,-1l4,-4l-1,-2l2,-5v-7l1,-3v-5l3,-5l2,-4v-10l2,-2l2,-3l2,-2h5l1,1l2,1l3,3h3l2,1h6l5,1v-1l1,-2l1,-1h1l1,-1h5l2,-1h1l1,-1h2l1,-1h1l3,1l2,-1h2v-1l2,-1l1,-1l1,1h4l5,1h1l2,-1l3,1l2,2h1v1l1,1h1v1h1l1,1h3l1,-1h6l1,-1v-1l2,1v1l1,1h1l1,1l1,2l2,1h1v2h2v1h1M484,397v-8l1,-3v-2l1,-1v-1l1,-1v-3h1l1,-1v-1l1,-1h2l4,-4l1,-2l1,-1v-2h-2v-1h-2v-2l1,-2v-1h-1v-1l1,-1v-3l2,-2h1l1,1h3l1,-1v1h1v1h1l1,1l2,-2h3l1,-1h1l2,1h3v-1l2,-1l2,-2l1,3h1l1,1h1v5h1v2h2v2l1,1v3l1,1v4h-1v1h-1v2h-1l-2,2v1l-1,1v1h-1l-1,1v2l-1,1v5l-1,3v2"/>
<path class="sb" d="M479,409l-1,-1v-1l-1,-1h1l2,-2v-4l2,-2h1v-1h3v1h1l1,-1h1v-1l1,-1v-1h2M482,423v-3l-1,-1v-4l-1,-1l1,-1v-2h-1l-1,-1v-2h2l1,1h4v-1l1,-1v-2l1,1h1v-1h2l1,1M494,456v-1l-1,-1l-1,-2v-1l-1,-2v-1l-2,-2v-1h-1l-3,-3l-1,-2h-1v-3l1,-2v-1l-1,-1v-2l-1,-1v-7h3l2,-1l2,-2v-1l2,-2v-1l1,-1h1v-1l1,-1v-2l-1,-1h-2v-2l1,-2h1l1,-1v1v-1h1v-2l-1,-1v-1l1,-1l-1,-1v-2h-1l-2,-2h1v-1h31v1l12,6l1,1l10,5l1,1l6,3l1,1v4h1v1l2,2l2,1l2,2l2,1l3,3h1v1M334,435l1,-1v-1h1l1,-1v-1h1l1,-1h1l1,-1l2,2h-1l-4,4v1l1,2l-1,2v1h-2M343,441h14l3,-1h12v1h1v1l1,1l-1,1l1,1v1l1,1v2l1,1v1l1,1v1h1v1l2,3l1,1h4l1,-1h3l1,-1l2,1h2l2,-1v-2l1,-1v-3l2,-2h2l2,-1h4l-1,2v1h11v7l1,2v7l-1,3l4,4l1,2v5h-1v3h2l1,-1h5l2,-1h5v-1M433,539l-2,-1l-2,-2l-2,-1l-1,-2l-2,-2h-1l-2,-6v-8l-1,-2v-16h17v-1l-1,-1v-2l1,-1v-1l-1,-2v-5h1v-2l-1,-1v-3h1v1h1l2,2v1h-1l1,1h1l1,-1h2l2,-1h2l-1,1l1,2l1,1h1l2,1h1l1,1h7l1,-1v-2h2v1l2,2v1l2,2h3l2,1h1v1l1,1v1l1,1h1v1l2,2v1h3l1,-1h2v2h1v-12h-1v1h-2v2h-1l-1,-1h-1l-2,-2h-1l-2,-2v-1h-1v-6l1,-1v-1l1,-1v-9l-2,-4v-1h2v-1l2,-2v-3h5l2,-1h3l2,-1h4l1,1v1l1,1h3l1,1h1v2h3v1h2l1,1h1l1,1h1l1,1h2M515,507l-1,-1l-1,1v-1l-2,-2h1h-1v-1h-1h1l1,-1v-1l1,-1v-5l4,-2l1,-1h-2l-1,-2l1,-2v-2l-1,-1v-1h1v-2h1l-1,-1v-2h1v-1l2,-1v-1l-1,-1v-2h-1l-1,-1v-2h-1v-2h-2v-2l1,1h2l1,1h3l1,1h1v-2l1,1l2,1v1l1,1v1l1,2v3l1,1v1h-1v3h1v1h1v1l1,1v1M339,541h1l1,-1h1l1,1v-1h3l1,-1h1v-1h4l2,2h1l1,1h6l3,-1h12l3,-1h13l3,3h13l1,1h7l3,-1h2l3,-1h2l4,-1l2,-1h2l2,-1h9l1,1l2,1M410,602v-2l-1,-3v-9l-1,-3v-7h8v-2l-1,-4v-10l-1,-4v-12h2l2,-1l4,-1h4l2,-1h3l1,-1l2,2l1,2h1l4,-4h2l1,1l3,-3h3M483,578v-1h-2v-1h-1v-2h-2l-2,-1h-3l-2,-2v-1l-2,-1v-6h-3v-2l-2,-2h-1l-4,-2l-3,-3l-1,-3v-1l-2,-1v-2l-2,-1v-1l-1,-1v-1h-1v-1l-1,-1h1v-1l1,1h1l1,-1l1,1h1l1,1l1,-1h2l2,1h1l2,-1l4,-4l2,-4l6,-3l3,-1v-5h1l1,-1l4,-2h7M386,636l1,-1h1v-1v1v-1h1v-3h2l2,2v2h1v1h1l1,1h12v-1l1,-1v-1h1l2,-1h1l-1,-1v-8l-1,-3v-8l-1,-4v-7l3,2v1h1l2,5l1,1v3l-1,1v3l1,1h8v-2h2l1,-2l2,-2h1v-1l1,-2v-2l1,-1v-1h1v-1h3l1,1h1l2,2h2l1,1h8l2,-2v-1l1,-1v-2l1,-1v-2h1l1,-1h2l3,-3l1,-5l3,-3h2v-1h1v-1h1v-1h1l1,-1l1,-2l1,-1h3l2,-2v-1h3l3,-1l1,1h3l2,1h2l2,-1l1,1h2"/>
<path class="sb" d="M511,617h-1l-1,1h-2l-1,-1h-1M504,610v-15l-1,-2v-1l-1,-1v-1l-1,-1v-2l-1,-2v-2l-1,-2v-2h1l1,-2l5,-5l1,-2h1l-1,-1l1,-2v-2l4,-4l1,-2v-1l-1,-1v-1l-1,-1v-3l1,-1h-1v-1h-1v-1h1l1,-1v-2l1,-2v-1l-1,-1l1,-3v-4l-1,-2v-2l1,-1h-2l-1,-1l-2,-1h-4l-2,-2l-4,-2h-7v-6h-1v-3l2,-1h1l4,-2h2l2,-1h1l2,-1h1l1,-1h1l2,-1h3l1,-1h2l1,2l2,2h4v-1h3l1,2v6l-1,1v1l-1,1v1l-1,1h1l1,1v2l1,1v1l2,1l1,2h1l1,1l-1,1v1h2v-4l-1,-1l1,-2v-1h1l2,-1h1v-1l1,-3v-8l-1,-2l-2,-3l-5,-5v-1h-2l-1,-1v-7l-1,-1v-3l1,-1v-1l1,-2l2,-1l1,1h6v-1h4v1l1,1h4v-1h3l1,1h3l2,-1v-1l2,-2h1l2,1l1,1l1,-1l2,-1h3l1,-1h1l1,-1h2l2,-1l1,-1l2,-1l1,-1M480,645l1,-1h1v-2h1v-1l1,-1v-4h-1l-1,-1h-1l-2,-2v-1h-1l-1,1h-2l-2,2h-1l-1,1v1l-2,2v1h-1v1h-1v2l2,2v2h1l2,2h1l1,1l1,-1v-1l1,-2l1,-1h3M592,117v1l2,2v1h1l1,1l1,2h2l1,1h3l1,1h-2v1l2,2h-1l-2,2v1h-1v2h1v1h-1v1h1l1,2h2v1h1l1,1v2h2l2,1l1,1l2,1l1,1h2l1,2h1l2,2v1l-1,1l1,2v1h2v1l1,1v2h1l1,1h1v1l1,1M614,167l1,-1v-1l1,-1v-1l1,-1v-1h4l2,1M557,145h1l3,1h5l1,1l4,2h2l8,4l2,2l4,2l6,4l4,2l3,2h3l3,1h3l3,1h6l2,1l1,1h1v1l1,1h5M686,215l-1,1h-1l-1,-1h-3l-1,-1h-3l-2,-1h-5l-1,-1h-2l-7,-7v-1h-1v-1h-1v-1M666,240h1l1,-1h4l1,-1h3l1,-1h2l2,-1h3l2,-1h2v-5l1,-1v-5l1,-1v-2l-1,-1v-1l-3,-3v-2h-1v-1l1,-1v-3l1,-1l-1,-1l1,-1h2v-1h-1v-1l-1,-1v-3h2v1h-1h1v1l2,-2M689,195v1v-1h-1v-2h-1M594,255l2,-1v-1h1v-4l1,-1h-1l1,-1h3v1h13l1,1h3l3,1h5l3,3l1,-1h1l1,-1v-1l1,-1v-1l4,-4h1l4,-2l1,-1h10l3,-1h10v1l2,2v2h1v1l1,1v1l2,2v2h1v1l2,2v1l2,2M553,137l1,2l1,1v1l1,2h-1l1,1h2l-2,2h-5l-2,1h-2l-2,1h-4l5,5l2,1l1,1h-1l-1,1h-1v2h-5l-4,4l-2,1h-1l-2,-1h-5M530,143v5M532,141h-2v2l-1,-1h-2l-1,1v3h2v1h-2v1l-1,1h3l1,-1h1v1l-1,1h1l-1,1v1l-1,1v4l-1,1v2M575,117l-2,2h-2l-1,1h-1v3l1,1v1l-1,1v2l1,1v1h-1l-1,2h-2l-4,2h-1l-4,2h-2l-4,2l-1,1h-2l-2,1l-1,1l-2,1h-2l-1,1h-4v-1h-2l-1,-1h-1v-4M532,129h3l1,1h-1h1v1l1,1l-1,1h-1v1h1h-3v2h-1M589,104l-1,-1h-1l-1,2h-1v1h1l-1,1h1v1l1,1v1h1v2h-1v1h1l2,1v2h2v1h-2l-1,1h-1v-2h-7v-1h-1l-1,1v-1h-1l-1,1h-1l-1,1v-1l-1,-1l-1,1h-9l-4,2h-9l-1,-1h-6l-2,1h-3l-1,-1h-2v3h-1v1l-1,1h-3M589,103h-1l-1,-1h-1l-1,-1h-4v-1l-1,-1v-1h1l-1,-1v-1h-2v-1M588,95h-7l-1,1l-1,-1h-3v-1l-2,-1h-2v1l-1,-1h-6"/>
<path class="sb" d="M969,350v-4h-1v-3h-1v-2h-1v-3l-1,-2l-1,-1v-1l-1,-1v-1l-1,-1v-2l-1,-1v-1l-1,-2l-1,-1v-1l-1,-1v-2h-1v-2h-1v-2h-1v-2l-2,-2v-1l-1,-1l-1,-2l-1,-1v-2l-1,-1h1l1,1v-1l-1,-1v-2h-1v-2h-1v-2l-1,-1v-1l-1,-1h-1v1v-1l-1,-1h-1l-1,-3v-1h-1v-3h-1v-1v1v-1l-1,-1v-1h-1l-1,-2v-1h-1M965,348v2h1v1v-1l1,1v1l1,1v-1l-1,-2v-1v1l1,-1v2h1v1v-2h1v5h1v2l1,1v4l1,1v3l1,1v2h-1v1h-1l1,2h-1v-1v4l1,2l1,1v1l-1,-1v-1h-1v-1v1l-1,-1v3l-1,-1v1M936,284v4h1v1h-1v-1v2l1,1v1M954,370v-3h-1v-1h1v-10l-1,-1v-1l-1,-1v-2l-1,-1v-2l-1,-1v-4l-1,-1v-2l-1,-1l-1,-2l-1,-1v-1l-1,-1v-1l-1,-1v-2l-1,-1v-1h1v-2l-1,-1v-4h-1v-3h-1v-1l-1,-1v-1l-1,-2v-1l-2,-2l-1,-2v-2l-1,-1v-1h-1v-2l-1,-1h1l-1,-3v-1l-1,-1v-3h1v1h2v-1l-1,-1h1v-1h1l2,2v1h1v3l2,2h1v1l1,1v1l1,1v4l1,1v2l1,1v4h1v1v-2h1v-2l1,1v1h1v2h1v-3h1v1h1v1l2,4v1l1,1v1l1,1v1l1,2v1l1,2v2l1,1v1h1v1l1,1v2h1v2l1,1v3l1,1v4h-1v-1h-1v-1h-1l-1,-1h-1v4h-1v1l1,2v1l1,1v3l1,1v1h1v3l1,3v1M952,297v-2h-1l-1,-1v-1l-1,-1v-1h-1v-2h-1v-2h-1v-2l-1,-1v-1l-1,-1h-1v-1l-1,-1v-1l-1,-1v3l-1,-1v2l-1,-3v1l-1,-1v1l-1,-1v-1h-1v-1v2l-1,-1v2l1,1v1l1,1v1l1,1v2h1v1h-1v-1h-1v-2h-1v-2h-1v1h-1v-1h-1v-2h-1v-2h-1v-1l-1,-1h-1v-1h-1v-3l-1,-1v-2h-1v-1h-1l-1,-1v-2h-1v-1l-1,-1v-1l-1,-1v-1h-1v-1h-2v1v-2l-1,-1v-1h-1v-1l-1,-1v-3l-1,-1h1v-1l-1,-1h1l-1,-1h1v-1h-1v-2h-1v-1l-1,-1v-2l-1,-1v-1l-1,-1l-1,-2v-1h-1v-1v1h-1v-1l-1,-2l-1,-1v-1h-1v-1h-1v-1l-1,-1v2M789,151h1l1,1h1l1,1h2M860,153l-2,-2v1l1,1l-1,-1h-1l-1,-2h-1l-2,-2v-1h-1l-2,-2h-1l-2,-2v-1h-1l-1,-1h-1v-1l-2,-1h-1l-1,-1h-1l-1,-1l-2,-1l-1,-1h-1l-2,-2h-1v-1h-1l-4,-4l-2,-1v-1h-1v-1h-1v-1h-1l-1,-1h-1l-1,-1h-1l-3,-3h-1v-1h-1l-2,-1l-1,-1h-1l-1,-1h-2v-1h-2v-1h-1v-1h-1v-1h-1v-1h-1v-1h-1v-1h-1v-1h-1v-1h-1l-2,-2h-1l-1,-1v-1h-1l-2,-2h-1v-1h-2v-1h-1l-1,-1h-1l-1,-1h-1l-1,-1h-1v-1h-2v-1h-1v-1h-1l-1,-1v-1h-1M806,104h-1h1h-1l-1,-1h-1v-1h-1l-2,-2h-1v-1h-1v-1h-1l-1,-1h-1v-1h-1l-1,-1h-1v-1h-1l-1,-1h-1v-1h-1l-1,-1h-1v-1h-1l-1,-1v1h1l3,3h1v1h2v1h1v1h1l2,2h-1h1h-1l-1,-1h-1v-1h-2v-1h-1h1h-2v-1h-1l-1,-1h-1l-2,-2h-1l-1,-1h-1v-1h-2v-1h-1h1v1v-1h-2v-1v1l-1,-1v1h1h-2v1l1,1h-2l-1,-1v1h1h-2M605,73v-1h-3l-1,-1v-1l1,1h1v-1h-1l-3,-3h-1l-1,-1h-4v-1l-1,1l-1,-1h-1v-2h-3v-3h1v-1h-2v-2l1,-1h1l-1,-1h3l2,1l1,1h3v-1h-1v-1h-1v-1h3v-1h2l1,-1h2v-1h3v1h7v1h5l1,1h2l1,1h1v1h1l1,1h1l-1,-1v-1l1,1h1l1,1h3v1h1v-1h2v-1h1v1l1,-1h1v1h6l1,1h1l1,1h2l2,1h2v-1h1l1,1h5l-1,-1v-1h-1l-1,-1h-2l-2,-1h-1l-1,-1h-1l1,-1h1l-2,-2h1v-1l1,1h3v-1h-3l-1,-1h-1h1v-1h-3v-1h13l1,1h2l-1,-1h4l1,1h6v-1h-1h4l1,1h4l1,1h1l2,2h1l2,2h4l1,1h1v1v-1h1l1,1h3v1h-1l1,1h4v1h1l-1,-1h2v-1v1l1,-1h2v1h1h-1h1v1h1l1,1h2l2,1l1,1h1l2,2h2l2,2l2,1l3,2l1,1l3,1l1,1l4,2l1,1h1l-1,-1v-1v1h2v1h2v1h1v1h3l1,1v-1h2l2,2h2v1h1v1h1l1,1h1l1,1h1l1,1h1v1h1l1,1v-1v1h2v1h1v-1h1v1h1v1l2,1h1l1,1h-1v1h1l1,1h-2l1,1v1l2,2h1l2,2h-2l-1,-1h-2l-1,-1h-1l-1,-1h-1v1l3,3v1l1,1v1h1l1,1h1v1h-1v-1l-1,1v-1h-1v-1h-6v1h2l1,1v1h1l1,1v1h1l1,1l1,2h1l1,1v1h1l1,1h-1l1,1h-1v1h1l1,1v1h1"/>
<path class="sb" d="M829,191v1h1v-1l1,-1l1,1h1l1,1v1h1l3,3l2,1l1,1h1l3,3h1l6,6h2v2h1v1h2l1,1v1l1,1h1v-1l1,1v1h1v-1h1v1h1v1l1,1h3l1,1M874,222v-5h1v-1l1,1h1v1h1v1h1l1,1h2v1h1v1l1,1M792,154h1l1,-1h2v2h1l1,2l3,3h1l1,1h1l1,1l-1,1l1,1v1l2,2h1v1h1v1h1v1l1,1v1h1v2h-1l-2,-2h-1v1h1v1h1l1,2h1v2h1v2h1v1h1v-1l4,4h1l2,2h1v1h1v1h1l1,1h1l2,2h-1v1l-1,1l1,1v5h1l2,2h1l1,1h1l5,5h1l1,1h1l2,2h1l1,1v1h2l1,1h1l1,1h2l2,1l1,1v1l2,2h1l2,2v-1h1v1h1v1h1l1,1h1v1h1l1,1l1,-1v1h1v1h3l1,1v-1l-1,-1v-1l-2,-2l-1,-2v-3h-1v-1h2v1h1v1l1,1v1l1,1v2h1v1l1,1h1v1h2v1h1l1,1v-1h1l1,1h1v1h3v1h2l-1,-1v-1h-1v-2h-1v-1h-1l-1,-1v-1h1v1v-1h1v1h1v-5h2l-1,-1h1v-1h1v1h1l2,2v-1h-1l1,-1h1v1l1,1v1l1,1v-1v1h1v1l1,1v2h1l1,1h1l1,1v1h1v4h1l1,3v-1l-1,-1h-2v1l-1,1v2l1,1v1h1v6h1v1h1v5l1,1v1h-1l-1,-1h-1v-1l1,2v1l1,1v2l1,1v1h-1h1v3l1,2l1,1h-1v1l-1,-1M773,140h1v1h2l2,2h2l2,2l1,2v1h1l1,1h2v1h1l3,3v1h1v2h-4v1h-1l-1,-1h-1l-1,-1h-1l-1,-1h-2l-1,-1v1h-1v2h1l1,1h-1h1v1h2v1h-1v1h1l1,1v2l1,1h1l1,1v1h2v1l1,1h1l1,1h1l1,1v1h-1l-1,1h-1v1l2,2v2h1v1h-1v1l-1,1v1l1,1l-1,1h-1v5l-1,1h-1l-1,1v2l-1,1v2h-6l-1,-1v-1h-3v3l-1,1v3l1,1h1l1,1h1l1,1v3h1v1l2,2h2v2h1l1,1l1,2v1l1,1h1l-1,1l1,1v1h-2l-1,-1h-2l-1,1h-1l-1,-1h-1l-2,-1h-3l1,2h-4M891,260v-1l-1,-2l-1,-1v-1l-1,-1v-2l-1,-1h-1v-2h-1v-1l-1,-1v-3l-1,-1h-1v-1l-1,-1h-1v-1h-1v-2h1l-1,-2l1,1h1v-1h-1v-1l-1,-1h-1l-1,-1v-1l-1,-1v-1h-1v-1l1,-1l-1,-1v-1l1,1v1h1v1h1v1v-1h1v1l1,1v1h1v-1h1l1,2v1l1,2l1,1v1h1v1h1l1,1h2l1,1h1l1,1h1l2,2h1v1l-1,-1v2l1,1v1h-1h1v1h-2v3h1l2,4v-1v1l1,1h1l-1,-1v-3h-1h2v2l1,1v1l1,1v1h1v2h1v1l1,1l1,3v1l1,2l1,1v1h-1v-1h-1v1l1,1v1h1v2M735,107v-2h3l1,1h1l2,1h2l1,1h1l1,1l-1,-1v-1l-1,-1h1v-1h1l1,1l2,1h1l2,1l1,1h2v-1l1,1h4v1h3v1h4v1h2v1h2l2,2h2v1h1l2,1v1h-3v1h-2v2h-2l-1,-1h-2v3l-1,-1v1l-1,-1v1h-1v-1l-1,-1h-4v1h-2v2h1v1h-1M743,118h-1v1h-1l-1,-1h-2v-1h-2v1h-1v1l1,1h1v1l1,-1l1,1h4l1,1h1v1h1v-1h2v1h2v1h2v1h1v-1h1l2,1h3l2,2v1h1v1l1,1h1v1h1v-1l2,1l1,1h1v1l1,1h1v1l1,1v1h1v1h1v1M656,100l-1,-1v-1l-1,-1v-1l-1,-2v-1l-2,-2v-1l-1,-1v-1l-1,-2v-1l-2,-2v-1h6v-1h7l1,1h1l1,1h2l1,1h1l1,1h2l1,1h1l1,1h1l1,1h2v1h1l1,1l2,1v1h1l2,1h2l1,1h8l1,1h5v1h1l1,1h1v1h1l1,1h2v1h1v2l1,1v1h2l1,1h1v1l1,1h1v1l1,1h2l1,1h4v1h1v1h1v1h1l1,1h1v-1h-1v-1l1,-1v-1h1l1,-1h2v-1h2v-1h1l1,1h-1v1h-1v1h-1l1,1h2v1h1l1,1h2l1,1l-1,-1h1v-1h-1h2v1l1,1h2v1h1l1,1h1l1,1h2l-2,1h1h-2v1v-1h-1v1h-3v-1h-4l-1,-1h-1v-1h1v-1h-1l-2,-2v1h-1l-1,1l-1,-1h-1v1l1,1v1l-1,-1h-2l1,1h1h-1l1,1h-1v2l-1,-1h-2l-1,-1l-1,1v1l2,1l1,1h2v1h1v1l1,1v1h1l1,1v2l-1,1v1l1,1"/>
<path class="sb" d="M634,96l1,-1h1v-1h7l2,1l1,1h2v1h1l1,1v1h2v1h4l1,1h5v-1l-2,-2h1v-1h4v-1h2v1h1l-1,-1h-1v-1h-1h3l2,1h2v1h1l1,1h3v2h2v1l1,1h-1h1v1h1l1,1h4l1,1l1,-1l1,1h1l4,4h1l1,1l1,2h1l1,1l2,1h1l2,1l1,1l2,1v1h2l1,1h1l2,1l1,1h1l6,3h1l1,1h2v1h2v2l1,1v1M596,93h3l2,2h1v1h3l1,1l1,-1v-1h2v-1h1M702,136h1l1,1h3l1,1h1v1h4v-2h1h-1v-1h5v-1h1l1,-1v-2l-1,-1v-1h1l1,-1l1,1h1v-2l1,1h2l1,1h3l2,1h1v1l1,-1v1h2l2,2h1v-1h3v-1v1h1l1,1h1v-1h-1v-1h4v-1h-1v-1h1v-2h2l2,2v1h1v1h1l1,1v1l1,1v1l2,2v1h2l1,-1h2v-1l2,-1h1v1h1v1h3v-1v1h2l1,1h1h-3l1,1h1h-2v1l-1,-1h-3l-1,-1h-5v1h-1v1l-1,-1v2h-1l1,1h1v1l1,1h1v1h1v2h1h-1v2h-1v2h1l1,1v1h-4l-2,-1v1l4,4l-1,1h-3l1,1v4l1,2v1h-2l-1,-1h-2l-1,-1v1l-2,1h-1h1l1,1h-4v-1h-2v2h-1v3l1,1v2h1v1h-4l-1,1h-4l-1,-1h-2l-1,1h-1l-3,-1l-7,-1l-6,-2l-5,-2M492,5h-1h1h-1v1h4l-1,1h-2l1,1h1l1,1h-1v1h-1h1h-1v1h2v1h1l-1,1h-1h3l1,1h2v1h-1l-1,1h-2l-1,1h-2l-1,1h-2l-1,1h-3l-2,1M466,5h2v1h6v1h-1h1v1h-1v1h1M498,4h-5v1h-1v-1h1h-3l-1,-1l-1,1h-6v1h-17v1h-7v1h-6l-1,1h-1v1h-3l-1,1h-4l-1,1h-1l-1,1h-1l-1,1h-1l-2,1h1l-1,1h-5l-2,1h-1l-2,2v1h-1v1h-1h1v1h1h-2v1h-2v1l-1,1h-1l-1,1h-2l-1,1v1h-1l-1,1v-1"/>
<circle class="w3" cx="500" cy="615" r="30"/>
<circle class="w3" cx="500" cy="615" r="28"/>
<circle class="c3" cx="500" cy="615" r="29"/>
<path class="sg" d="M 271.5118 943.9341 A 249.7500 57.2982, 0, 1 1, 727.4882 943.9341"/>
<path class="sg" d="M 70.9446 756.0940 A 432.5797 99.2435, 0, 1 1, 928.0554 756.0940"/>
<path class="sg" d="M 0.0000 499.5000 A 499.5000 114.5965, 0, 1 1, 999.0000 499.5000"/>
<path class="sg" d="M 70.9446 242.9060 A 432.5797 99.2435, 0, 0 1, 928.0554 242.9060"/>
<path class="sg" d="M 271.5118 55.0659 A 249.7500 57.2982, 0, 0 1, 727.4882 55.0659"/>
<path class="sg" d="M 305.4249 39.2445 A 427.0585 499.5000, -202.86360866, 0 0, 693.5751 959.7555"/>
<path class="sg" d="M 430.0922 4.8458 A 253.6659 499.5000, -187.98735805, 0 0, 568.9078 994.1542"/>
<path class="sg" d="M 496.5990 0.0084 A 12.3038 499.5000, -180.33276455, 0 0, 502.4010 998.9916"/>
<path class="sg" d="M 561.3698 3.8465 A 232.3552 499.5000, -172.88486874, 0 1, 437.6302 995.1535"/>
<path class="sg" d="M 674.9334 31.8213 A 414.7547 499.5000, -159.43816216, 0 1, 324.0666 967.1787"/>
<path class="sg" d="M 995.9866 444.7159 A 486.0211 499.5000, -96.29674596, 0 1, 3.0134 554.2841"/>
<text x="0" y="0" class="fs" transform="translate(76,321) rotate(102)">30W</text>
<text x="0" y="0" class="ft" transform="translate(76,321) rotate(102)">30W</text>
<text x="0" y="0" class="fs" transform="translate(248,279) rotate(97)">0E</text>
<text x="0" y="0" class="ft" transform="translate(248,279) rotate(97)">0E</text>
<text x="0" y="0" class="fs" transform="translate(487,263) rotate(90)">30E</text>
<text x="0" y="0" class="ft" transform="translate(487,263) rotate(90)">30E</text>
<text x="0" y="0" class="fs" transform="translate(730,276) rotate(82)">60E</text>
<text x="0" y="0" class="ft" transform="translate(730,276) rotate(82)">60E</text>
<text x="0" y="0" class="fs" transform="translate(911,316) rotate(78)">90E</text>
<text x="0" y="0" class="ft" transform="translate(911,316) rotate(78)">90E</text>
<text x="0" y="0" class="fs" transform="translate(580,863) rotate(5)">60S</text>
<text x="0" y="0" class="ft" transform="translate(580,863) rotate(5)">60S</text>
<text x="0" y="0" class="fs" transform="translate(638,644) rotate(4)">30S</text>
<text x="0" y="0" class="ft" transform="translate(638,644) rotate(4)">30S</text>
<text x="0" y="0" class="fs" transform="translate(658,387) rotate(4)">0N</text>
<text x="0" y="0" class="ft" transform="translate(658,387) rotate(4)">0N</text>
<text x="0" y="0" class="fs" transform="translate(636,159) rotate(4)">30N</text>
<text x="0" y="0" class="ft" transform="translate(636,159) rotate(4)">30N</text>
<path class="tb" d="M127,998h-2l-1,-1h-2l-1,-1h-2l-1,-1h-2v-1h-3v-1h-2l-1,-1h-2v-1h-2l-1,-1h-2v-1h-2v-1h-2l-1,-1h-2v-1h-2v-1h-2v-1h-2v-1h-2v-1h-2v-1h-2v-1h-2v-1h-2v-1h-1l-1,-1h-1v-1h-2v-1h-2v-1h-1v-1h-2v-1h-1l-1,-1h-1v-1h-2v-1h-1v-1h-2v-1h-1v-1h-1l-1,-1h-1v-1h-1v-1h-1l-1,-1h-1v-1h-1v-1h-1v-1h-2v-1h-1v-1h-1v-1h-1v-1h-1l-2,-2h-1v-1h-1v-1h-1v-1h-1v-1h-1v-1h-1v-1h-1v-1h-1v-1h-1v-1h-1v-1h-1v-1h-1v-1h-1v-2h-1v-1h-1v-1h-1v-1h-1v-1l-1,-1v-1h-1v-1h-1v-1l-1,-1v-1h-1v-1l-1,-1v-1h-1v-1l-1,-1v-1h-1v-2h-1v-2h-1v-1l-1,-1v-1l-1,-1v-1l-1,-1v-2h-1v-2h-1v-3h-1v-2h-1v-4h-1v-3h-1v-5h-1v-6l-1,-1v-17h1v-7h1v-4l1,-1v-3h1v-3h1v-3h1v-2l1,-1v-2h1v-2h1v-2h1v-2h1v-2h1v-2h1v-2h1v-1h1v-2h1v-1h1v-2h1v-1h1v-1l1,-1v-1h1v-1h1v-1l1,-1v-1h1v-1h1v-1h1v-1h1v-1h1v-1h1v-2h1v-1h1v-1h1v-1h1v-1h1l3,-3h1v-1h1v-1h1v-1h1v-1h1v-1h1v-1h1l1,-1h1v-1h1v-1h1v-1h1l1,-1h1v-1h1v-1h2v-1h1v-1h1v-1h2v-1h1v-1h2v-1h1v-1h2v-1h1l1,-1h1v-1h2v-1h1l1,-1h1v-1h2v-1h2v-1h2v-1h1l1,-1h1l1,-1h1l1,-1h1l1,-1h1l1,-1h2v-1h2v-1h2v-1h2l1,-1h2v-1h2v-1h2l1,-1h2v-1h3v-1h2l1,-1h2v-1h3v-1h3v-1h159v1h3v1h3v1h2l1,1h2v1h3v1h2l1,1h2v1h2v1h2l1,1h2v1h2v1h2v1h2l1,1h1l1,1h1l1,1h1l1,1h1l1,1h1v1h2v1h2v1h2v1h1l1,1h1v1h2v1h1l1,1h1v1h2v1h1v1h2v1h1v1h2v1h1v1h1v1h2v1h1v1h1l1,1h1v1h1v1h1v1h1l1,1h1v1h1v1h1v1h1v1h1v1h1v1h1l3,3h1v1h1v1h1v1h1v1h1v2h1v1h1v1h1v1h1v1h1v1h1v1l1,1v1h1v1h1v1l1,1v1h1v1h1v2h1v1h1v2h1v1h1v2h1v2h1v2h1v2h1v2h1v2h1v2l1,1v2h1v3h1v3h1v3l1,1v4h1v7h1v17l-1,1v6h-1v5h-1v3h-1v4h-1v2h-1v3h-1v2h-1v2l-1,1v1l-1,1v1l-1,1v1h-1v2h-1v2h-1v1l-1,1v1h-1v1l-1,1v1h-1v1l-1,1v1h-1v1h-1v1l-1,1v1h-1v1h-1v1h-1v1h-1v2h-1v1h-1v1h-1v1h-1v1h-1v1h-1v1h-1v1h-1v1h-1v1h-1v1h-1v1h-1v1h-1l-2,2h-1v1h-1v1h-1v1h-1v1h-2v1h-1v1h-1v1h-1l-1,1h-1v1h-1v1h-1l-1,1h-1v1h-1v1h-2v1h-1v1h-2v1h-1l-1,1h-1v1h-2v1h-1v1h-2v1h-2v1h-1l-1,1h-1v1h-2v1h-2v1h-2v1h-2v1h-2v1h-2v1h-2v1h-2v1h-2l-1,1h-2v1h-2v1h-2l-1,1h-2v1h-2l-1,1h-2v1h-3v1h-2l-1,1h-2l-1,1h-2l-1,1h-2Z"/>
<path class="tl" d="M169,986h1v1h-3l-1,-1h2v-1ZM114,989h-3l-1,-1h2l1,1ZM176,983h1l1,1v1h1l-1,1h-2l-1,1h-1l-1,-1l1,-1v-2h1v-1ZM124,980h2v1h-1ZM122,980l1,1h-1l-1,-1ZM136,977h1h-2ZM156,974v1l1,1h-5v-1l1,-1v-1l-1,-1l1,-1v1h1l1,1ZM158,964v1h-2v2h1l-2,2v1h1l1,1h1l4,4v1l1,1v1h-1v2h-1l-1,1h-1v1h-2l1,1h1v1h-2l1,1h1v1h3l1,1h3l1,1h3l1,1h1l1,1v-1h1v-1h2l2,-1l1,1h1v-1h4v-1h3l1,-1h-1v-1h-4l-1,-1l1,-1h1l2,-2h4l1,-1h1l2,-2h-1v-1h1v-1h2v-1l1,-1h1v1h1v-1h8v-1h3v-1h1l1,1h2v-1h1v1l1,-1h4v1h6v-1h3v-1h2v1h3l1,-1h3v-1h2l1,-1h2l1,-1h4v1h1v1h1l1,1h1l1,-1l1,1h2v1l-2,2h-1v1h1h-1v1h-1v1h2l2,-2h1v-1h3l1,-1h1v-1h2l1,-1h5v-1h1v1h5v1h1l1,-1l1,1l1,-1h1l2,-1v1l1,1h3l1,-1h2v1h1v1h4l1,-1v1h9l1,-1l-1,1v1h-1h3l1,1h2l-1,1v1h1v1h2v1h1v2h2l1,1v1h-1l-1,1h-2l-1,1h-3l-1,1h-2l-1,1h-2l-2,2v1h-5l-1,1h-2v1h-1v3h2l-11,4h-155l-11,-4h-1h2l1,-1l1,1h14l-1,-1h-7v-1h-2v-1h-3l-1,-1h4v-1h-2l-1,-1h-7l-1,-1l-2,-1l1,1l1,-1l2,1v-1h1v-1l-1,-1h-1h2v-1h2v-1h4l1,-1h5l1,-1l1,1v-1h1l1,1h1v-1l1,1h6v-1h-2l-1,-1h-1l-1,-1h4l1,1h1l1,-1h3l-1,-1h1l1,1l1,-1l1,1h3v-1l1,1h4v-1h2l1,-1v-1h-1v-1h-1v-1h-1v-1h-1v-2l-1,-1v-1h1v-2h1v-1h1v-1h1l1,-1l1,1ZM144,951l2,1h1v1h-1v-1v1h-4l-2,-2l-2,-1l2,1h2v-2h1v1ZM151,947h1v1h-2v1l-1,-1l1,-1ZM269,946h-1v-2h1l1,1ZM345,939v1h1l1,-1v1l-3,3v-1l-1,1h-1l1,-1v-1l1,-1v-1ZM368,943v1l1,-1v1h-1l-3,3h-1l-1,1h-1l-2,2h-2v1h-1v-1h-1v-1l4,-2h1l1,-1h2l2,-2h1l2,-2ZM376,936l-1,2l1,-1l-1,1l1,1h1l-2,2h-1l-2,2l-2,1h-1l2,-1v-2l1,-1l2,-1v-1l1,-1v-3l1,-1v1l1,1ZM382,913l-1,1v-2l-1,-1v-1h1v1l1,1ZM397,906v1l-1,1h-1v-1l1,-1v1ZM398,906h-1v-1h1l1,-1v1ZM10,905v-1ZM386,904v-1ZM386,901v2h-1v-1ZM259,895v2l1,1h-1v1v-1v2h-1v3l-3,6v2h-1l-1,1l-1,-1h-1v-5h1v-2l1,-1h-1v-3h1v-1h1l2,-2h1v-1l1,-1v-1l1,-1v1ZM361,898v1h1v1h1l-1,1v2h1l-1,2v1l2,2v4h1l-1,2l1,1v3l-1,1v2l-3,3v1l-1,1l-1,2h-1l-1,2h-1l-4,4v1h-2l-1,1h-1l-1,1v-1h-1l1,-1h-1l-1,1h-1v-1h-1v-3h1l-1,-1v-1l1,-1l-1,1h-1l3,-3l-2,1h-1l-1,2v-4l-2,-2h-2l-1,1h-4l-2,2h-4l-1,1v-1l-1,1h-2v-1h-1l1,-1v-1h1v-3l1,-1v-7l1,1v-3l1,-1v-1l1,-1l-1,1l2,-2h1l1,-1h2l1,-1h2v-1h1l1,-1v-2l1,-1v2l1,-1v-1h1v-1l2,-2h2v1h2v-2h1l1,-1v-1h2v-1h-1h1l1,1h3l1,1h-1v1h-1v1l-1,1v1l2,2v1h1l1,1h1v-1l1,-1v-1l1,-1v-3l1,-1v-2h1v-1v3l1,1Z"/>
<path class="tl" d="M383,894h-1v-1v1ZM337,892l-2,-1h2ZM381,893h-1v-1h1ZM382,892v-1l-1,-1h1ZM341,892h-1l3,-3h2l-1,1h-1l-1,1ZM335,889h1v1h-3l1,-1ZM340,889v1h-3v-1h2ZM381,890v1l-2,-2h1v1ZM378,889v-1h-1v-1l1,1ZM325,887h2v-1l2,1v1h2l1,1l-1,1l-1,-1h-4l-1,-1h-1l-2,-1h-1l1,-2h1l1,1ZM353,886v1v-2ZM377,888h-1v-2l-1,-1h1v2h1ZM373,885l-1,1h-1l-1,1l-1,-1h-1l1,-1l1,1v-1h2v-2h1v1ZM345,882h-1v-1h1ZM349,881v2l-1,-1h-2v-1h2ZM374,884l-1,-1v-1l-1,-1h-1h2v2h1ZM353,878v3l2,1v-2l2,-1h1l1,1h1l1,1l4,2v1h1v1l2,1v1h-1v1l1,1v2h1v1h1h-1l1,1l-1,1v-1h-2l-1,-1v-3h-3l-1,1v1h-2l-2,-2v1h-2l1,-2h1l-1,-2v-1l-2,-1h-1l-1,-2l-1,1l-1,-1h1l-1,-1l1,-1h-1v-1h-1l-1,-1h2v-1ZM343,875l-1,1h-4v1l1,2v-1h2l-1,1h-1l1,2v1l1,2v1h-1v-2l-1,1v-1l-1,-1l1,-1h-1v4h-1v-3h-1v-1l1,-1v-4h1v-1h4l1,-1ZM347,875v1h-1v1l1,1h-1v-4h1ZM321,885h-1l-2,-2v-1l-2,-2l-1,-2v-2l-1,-1v-1l-4,-4v-1h2l3,3l1,2h1l2,2h1l-1,2h1v1l1,1h1v3ZM335,874l1,1h-1v3l-1,1v1l-1,3v-1l-1,1l-1,-1h-1v-1l-1,1l-1,-1h-1l-2,-4v-2l1,-1h2v-2h2v-1l1,-1v-1h1l1,-1v-2h1v1l2,2v1h-1l-1,2l1,1ZM344,864v3l-1,-1v2l-2,-2h1l-1,-1v1l-1,-1l-1,1v-1l1,-1h2v-1h1v-1l1,1ZM294,868h-1v-1l-1,-2l1,-2l1,1v1l1,1v1ZM137,863h-1l1,-1h1ZM341,861v1l-1,1l-1,-1l1,-1v-1v1l1,-1ZM335,863l-1,1v-1l1,-1v-1l1,-1v1l-1,1ZM338,859h2v1l-1,1v-1h-1ZM342,858l1,2h-1v1v-1h-1v-1h1h-1v-1ZM338,857l-1,1l-1,-1h1ZM336,849h1v6h1l2,1v2l-1,-1v-1v1l-1,-1h-2v-1h1h-1l-1,-1v-5ZM133,851v1h-1v-1ZM121,852h-1v-1h2v1ZM126,849h3v1h1v1h-2l-1,1v-1h-1v-2h-1ZM324,849l-1,1h-1v-2l1,-1h1v1ZM37,846v-2h1v2ZM38,844h-1v-1h1ZM119,845h2l1,1v1h1v1h2l-1,1h-3v-1h-1v-2h-2l-1,-1h-1h1h-2l-1,1h-1l2,-2h3ZM122,843h-1v-1l1,-1v1ZM334,843v1l-2,-2v-2l1,-1l1,1ZM122,839l-1,1v-1ZM123,839v1v-1h-1ZM340,825h1v1h-1v1h-1v-2ZM240,828l-2,2v-1h-1h2ZM229,828v1h-1ZM220,825v2h-1l-1,-1h-1v-1h2ZM214,821v3h-1v-3ZM344,820v1l1,1v1l-1,1h-1l-1,2l-1,-1v-1l-2,1l-1,1h-1l2,1v3l-1,-1v-1h-1l-1,-1l1,-1v-3h3v-3l1,1v-2h1l-2,-4v-1l3,3v1ZM214,820v1l-1,-1v-1l1,-1ZM340,810l1,-1l1,2h-1v2l-2,-1l1,2h-1l-1,-2l-1,-1h1l-1,-2l-1,-1l3,1ZM144,812l1,1h1h-2ZM147,809h-1l-1,-1h1ZM92,806h-1l-1,-1v-2h-1v-1h1l1,1v1l1,1ZM153,807l-1,1h1v1h2l-1,1h1v1l-1,2l-1,-1l1,-1l-2,1v-1h-3l1,-1h-1l4,-4h1Z"/>
<path class="tl" d="M90,797h1l-2,2v1v-3ZM332,800l3,3l-2,-1l1,2l2,2v1l-2,-2l-1,-2l-6,-6v-1h-1h1l3,3ZM198,806l-1,1h-2l1,-2v-1l2,-2h1v3ZM216,801l-1,2l-1,-1v-1h1ZM79,791h-1v-1h2ZM202,797l-1,2h2v1l-1,1h1l2,4h1v1l-1,1h1l-1,1h-3l-1,1h-2l2,-2h-1v-1h1l-1,-1v-1h2l-1,-1h-1v-2l-1,-1l1,-2v-1l1,1ZM75,786h-1v-1h1ZM141,790l-1,1v-1ZM139,790h-2l1,-1h1ZM78,780v1h1h-2v-1ZM139,786h1v1h1l-1,1h1l-1,1l-1,-1h-1l-2,1l1,-1h-1h1l1,-1l1,-2ZM193,787v1l1,1l-1,1h-3l-1,1l-1,-1h-2l1,-1h-1h1v-1h-2l1,-1h1l1,1l2,-1h2ZM147,784h-1l1,-1h2l-1,1ZM81,776v1l1,-1h2l-1,2h-3l-1,1h-1l-1,-1h1v-1h-1h1h-2l-1,1l8,-5v1l-1,2ZM135,780l-1,1v-1h-1l1,-1h1ZM322,771h-1ZM88,771h-1h2ZM139,780l-1,2l2,-1v1h-1v1l1,-1l2,-1l1,-1h2v2h-1v1l-1,1l-2,1h-1v-1l-1,1l-2,1v1h-3l-2,2h-1l-1,1l-2,1l-1,1l-1,2h1l-1,1v1h1l3,3l2,1h1l-2,2v2l1,1h1l2,-4h-1l4,-2v-1l1,-1v-1l-1,-1l2,-1l2,-4l1,1h1l1,-1v1l1,1h1v2l-1,1l1,1h2l1,-2h1v3l1,1l-1,1l1,1v1h1l1,1v1l1,1l-2,2h-2l-2,2h-1l-2,-1h-2l-2,1l-1,1l-2,1l-1,1l2,-1l3,-1h2l-1,1l-1,2v1l1,1l2,-1l1,-1v1h1l-4,2h-1l-2,1v-1l2,-1h-3v1h-1l-1,1h-1l-2,2l1,1v-1v1h-3l-1,1l2,-1v1h-2l-2,2v1l-1,1l-1,-1l1,-1l-1,1v4l-1,1h-1l-1,1h-1l-3,3h-1v8l-1,1h-1v-3l-1,-1l1,-1l-1,-2l-1,1l-1,-1h-4v1h-1l-1,-1l-1,1l-1,-1l-2,2h-2v1h-1v3l-1,1v1l-1,2v4l1,1v1h1v1l1,-1h3v-1l1,-1v-1l1,-1h3v1l-1,1v2l-1,1v-1v2l-1,1v1h5v1h1v1l-1,1v3l-1,1h1v2h1v1h2l1,-1h1v1h1l1,1l1,-1v-2l1,-1h2l2,-2v2h-1h1v1l-1,1v1h1v-3h1v-1h1v1h1v1h3l1,1l1,-1h1l1,1h1v1l1,1h1v1h1v1l1,1l2,1v-1h1l1,1h1l1,1v1h1v1l1,2v1l-1,1l1,1h2v1v-1l4,2v1h1l3,1h1l2,1l2,2h2v5l-1,1l-1,2l-2,2v9l-1,2v2h-1v1h-2l-1,1h-1l-3,3v5l-1,2l-2,2v2l-2,2v-1l-1,1l-1,-1h-1v-1v1l1,1v1l1,1v2l-2,1h-3l1,1v2l-1,1l-1,-1h-1l1,2h2l-2,2l1,1v1h-1l-1,1v1l2,1h1v1l-1,1v2h-1v1l2,2h-1l-1,1v1h-1l-2,-1l-3,-3l-1,-3v-1l1,-1h-2l1,-2l-1,-2h1v-2l-1,-1v2l-1,-2v-4l-1,-1l-1,-2h1v-6l-1,-2v-8l-1,-2v-6l-1,-2l-1,-1l-2,-1l-3,-2l-1,-1v-1l-1,-2l-1,-3l-2,-3l-2,-2v-1l-1,-2l2,-2v-1h-1v-3l1,-1v-1h1v-2h1l1,-1v-5l-1,-1v-2h-1v1h-1v1h-1l-1,-1h-2v-2h-1v-1v1h-1v-3l-2,-2h1h-2v-1h-2l-1,-1l-1,-2h-1l-1,-1v1h-2l-1,-1h-2l-2,-2h-1l-1,-1v-1h-1v-3h1l-1,-1v-3l-1,-1v-1l-1,-1v-3h-1v-5l-1,-1l-1,1v4h1l-1,1h1v5h1v2h-1v-1l-1,-1v-3l-1,-1v1v-1h-1v-1h1v-9h-1v-1h-1v-9l2,-2v-1l1,-2l2,-2l1,-2l1,-1v-1h1v1l2,-2h-1v-2l-1,-1v-1l1,-1l-1,-1l1,-1v-1l1,-1l-1,-1l1,-1v-1l1,-1l-1,-1h-1v-2h-1v-1h-1l-1,-1h-1l-1,1h-4l1,-1l2,-1h-1l-1,1l-2,1h-1l-1,1l-2,1h-2l-2,1h-1l-1,1h-3l-1,1h-2l1,-1h2l2,-1h2l2,-1h1l2,-1l1,-1h-3l1,-1l-1,1h-1l2,-2h-1v-1l2,-2l2,-1h3l1,-1h1l1,-1h-3v-2h4l1,1l1,-1v-3h4l1,-1h2l2,-1l1,1l1,-1h1l-1,1h1l1,1h2l1,1h2v1l1,1l1,-1h6l1,-1v2l2,-1l-1,1h2l1,1h2v1l-2,1h4v1l2,-2h2v1h1l1,1h2v-1h1l1,1l-1,1l1,-1h1l1,-1v-2l1,-1l2,-1l1,1l-2,2Z"/>
<path class="tl" d="M128,774l-1,1h4l-1,1h1l2,-2v1l-1,2v1l1,1h-2v1h-8v-1h-1v-1h4l-1,-1h-3l2,-1h-1l1,-1h1ZM135,774l-2,1v-1h1ZM152,776v1l-1,-1l-1,1v-2h2ZM146,776v1l1,-1l2,-1v2h3l1,1l-1,1l2,-1v1l1,1v2h-1l2,2v1h1v1l-2,1h-1l-1,-2l-1,1v1l1,1v2l-1,1l-2,-2v1l1,1h-2l-2,-2v-1l-1,-1v1h-3v-1l1,-1h3l1,-1l2,-1v-1l-1,-1h-1l1,-1l-1,-1h-5l-1,-1h-1l1,-1h-1l1,-1l2,-1l1,-1h2ZM138,774h2l-1,1h-1l1,1l-2,1h-2v-2l1,1v-1ZM298,772h-2v-1ZM141,776l-2,1v-1l2,-2h2l1,1l-2,1ZM122,776h-2l-1,-1h1l2,-1l2,-2h2v1h2v1h-1l-3,1h-2ZM299,769v1h-3v-1h1ZM143,773v1l-1,-1h-1l1,-1h1l1,1ZM295,769l1,1h-2l-1,1l-2,-1l-1,-1h2ZM143,771h-1v1l-1,1h-2l1,-1h-1l1,-1h2ZM136,771h1v1h-4l-2,1h-1l1,-1h-1l-1,-1l2,-1h1l2,1l1,1v-2h2ZM246,780h-3l-2,-1v-1l1,-2h-1l1,-1l-1,-1h1l4,-2h2l-1,1l-2,1l-1,1v2l-1,1l1,1ZM145,770l1,1h1l-1,1h1l1,1h4v1h-7l-1,-1l1,-1v-1h-2l1,-1ZM134,769l-2,1h-4l2,-1h3ZM271,770l1,1v-1h2l2,1h1v1l-1,1h1l2,1v-1l1,1l1,-1h2l1,1h3l-2,-1h5l1,1v1h2l2,1l-1,-1h1l1,-1l2,1v-1h1l-2,-1h8l3,1l1,-1h2l2,2h2v-1h3l3,1v-1h-2v-1h7l8,5h-1l1,1l2,1h2v1h-1v1h-1l1,1v2l-2,-1v2l-1,-1v1h-1l2,2v1h1l3,2h-1l1,1h1v1l1,2h-1l1,2l1,1l-4,-2l-4,-3l-1,-2l-1,-1v-3l-1,-2v-1l-2,-2l-1,1l2,2l-3,-1l-1,1l1,2l1,1h-1l-1,1l-1,-1h-1v1h-4v7h1l2,1h1l-1,-1h1l3,1l1,2l1,1l1,2l2,2v9h-1l-1,-1v2h-1v1l1,1v1h-1v1l1,1h1l2,2v1l1,1v1l-1,1h-1l-1,-2l-1,-1h1l-2,-1v-1v1v-1h-1v-1l-1,-1h-2v1h-1l-1,-1l1,-1l-1,-1l-1,1v2h-1v1l2,2h1v-1h2l1,1l-2,1v2l2,2l1,2l2,1v2h1v6l-2,4l-1,1h-1v1l-1,-1v1l-2,1h-1v2l-1,-1v-1h-2l-1,2v2l1,1l1,2l2,2l1,3v4l-2,1v1l-2,1v-2l-1,-1h-1v-1l-2,-2h-1v-1h-1v6h1v3l1,1h1v1h1v1l1,1v3h1v2h-1l-2,-2v-1l-1,-1v-1l-1,-1v-2l-1,-1v-1h-1v-6l-1,-1v-1l-1,-2v-2l-1,-1l-2,2h-1v-3l-1,-2v-1h-1l-2,-2v-1l-1,-1h-1v2l-1,-1v1h-2v2l-2,1l-1,2v1l-2,2h-1v8l-1,1l1,1h-1l-1,1l-1,-1l-1,-2v-1l-1,-1v-1l-1,-2v-1l-3,-6v-3l-2,1h-1l-1,-2v-1l-2,-1l-1,-1v-1l-1,-1l-2,1h-5l-1,-1h-2v-2h-1l-1,1h-2l-3,-3l-1,-2l-1,1v-1l-1,1v2l1,1h1l1,1v2l1,1l-1,-1l1,-1v2h1v1l1,-1h2v-1l1,-1v-1v2l2,2h1l2,2l-1,1v1h-1v3h-1v1h-1v1h-2v1h-1l-2,2h-1l-2,2v-1l-1,1h-2v1h-2v-2l-1,-1v-3h-1v-1l-1,-1v-1l-1,-1h-1v-1l-1,-1v-3h-2v-2l-1,-1v-1l-2,-2v-1v1l-1,1l-1,-1l-1,-2l1,2l1,1l1,2v1l2,2h-1l2,2v1l1,1h-1l1,2v1l1,1l1,2v1l1,1l2,1v1h1v1h1v1l-1,1h1l1,1h3l1,-1h3v-1h1v2l-1,1v3l-1,1l-3,6l-1,1l-2,1l-1,1l-1,2v1h-1v1h-1v2l-1,1l-1,2l1,1v4l1,1v7l-1,1h-1l-3,3h-1v1l-1,1v2h1l-1,1h1v1l-1,1h1l-1,1h-1l-2,2v3l-3,3v1l-2,1v1l-1,1h-2v1l-1,-1v1l-1,-1l-1,1h-2l-1,1l-1,-1h-1v-5l-1,-1v-2l-1,-1v-1l-1,-1v-5l-1,-1v-1l-1,-2v-1l-1,-1v-3l1,-1v-3h1v-1l1,-1v-1h-1v-5l-1,-1v-2l-3,-3l-1,-2l1,-1v-5l-1,-1v-1l-1,1h-2l-1,-1v-1l-1,-1h-2l-1,1h-2l-1,1h-6l-1,1l-4,-4h-1l-1,-1v-1l-1,-1v-1h-1v-1l-1,-1v-1h-1v-3h-1l1,-1v-1h1l-1,-1l1,-1v-4l-1,-1v-1h1v-2l1,-1v-1h1v-2h1l1,-2h1l2,-2v-3l3,-3l1,-2v-1h1l1,1h2l1,-1h2l1,-1h4l1,-1h1v1h1l1,-1h1v1l1,-1v1h-1v1h1v2h-1v1h1v1h3l2,2h1l2,2l1,-1v-2l1,-1h2l1,1h1l1,1h2l1,1h1v-1h2l1,1v-1h1l1,1v-2l1,-1v-5h-2l-1,1l-1,-1h-2v1l-1,-1h-2v-1l-1,-1v-2l1,-1h1v-1h2l1,-1h1l2,-1l2,1l1,1h2l1,-1v-2h-1l-2,-2h-1l-1,-1l1,-1l-1,-1h2l-1,-1v1h-2l-1,1v1h1l-1,1h-1v-1h-1l1,-1h-2v-1h-1v1l-1,1v1h-1v4l1,1h-2v1h-1v-1h-2l1,1h-2v1l1,1h-1h1l1,1v1l-1,-1v1h-1l1,1h-2v-2l-1,-1v-1h-1v-3h-1v-1h-1l-1,-1h-1l-1,-1v-1l-1,-1v1v-1h-2v1l2,2v1l1,1h1l1,1h1l1,1v1l-1,-1h-1v1h1v1h-1v1h-1v-1h1l-1,-1v-1h-1l-1,-1h-1l-2,-2l-1,-2h-2v1h-4l-1,1v2h-2v1l-1,2h1l-1,1v1h-1l-1,1h-2l-1,1l-2,-2v1h-2l1,-1v-1h-1v-2l1,-1v-3l-1,-1l2,-1l1,1h5v-4l-1,-1v-1h-2v-1h3v-2l1,1l2,-1v-1h1l1,-1l1,-2l1,-1h2v-5h2l-1,1h1v1l-1,1v1h1v1l1,-1h2v1h1l2,-2l1,1h1v-1h1v-3l1,-1l1,1v-1l-1,-1v-1h4l1,-1h-4l-1,1l-2,-2v-4l2,-1v-1l-1,-1l-2,2l-1,2l-1,1v3h1v2h-1v2l-1,2h-1v1h-1v-2l-1,-1l-1,-2l-1,-1l-1,2h-1l-2,-1v-5l2,-1l3,-3l2,-3l3,-3h2l1,-2h3l2,1l-1,1h2l1,1h3l3,1l1,1v1l-1,1h-1l-3,-1h-1l2,1v2l1,1h1v-1h-1l1,-1l2,1v-1l1,-2h1l1,1v-1l-1,-1v-1l-1,-1l2,1h1l-1,1l1,1h1v-1l1,-1l2,-1h1v1l1,-1h1l1,-1l1,1l1,-1h-2l1,-1h2l1,1l4,1v-1h-2v-1h-1l-1,-1v-3h2l1,1v1h1l1,1l1,2h1v3l1,1v-1h1l-1,-1l1,-1h-1l-2,-2v-1l-2,-1l1,-1l-1,-1h1l1,2l-1,-1l1,-1h2l1,1l-1,-1l-1,-2h4l-2,-1v-1h1l1,-1h3l1,-1h1v-2l2,1h-1ZM253,820l1,1v2h-1v1l1,1h1l1,1h3l-1,-1v-2h-1v-2h1v-1l-1,-1h-1l1,1l-1,-1v-1h-2v-2h-1h1v-2l1,1v-3h-2l-1,1h-1v1h-1l-1,2l2,1v1l1,1Z"/>
<path class="tl" d="M146,770h-1v-1h1l1,1ZM137,769h-2l1,-1h1l1,1ZM220,771l-1,1h-1v-1h-1l2,-1v1ZM139,768h-2l1,-1v1ZM146,769h-1v-1h1l1,1ZM144,769h-1l-1,-1h-1h1v-1h1l1,1ZM268,768l-3,1v-2ZM215,769l3,1h-2v3h-1l-2,-1h1l-1,-1l-2,-1v-1l1,-1l1,1h1v-1h1ZM220,768h1l-1,1h-4l-1,-1h3ZM234,767l-1,1h-1v-1h-1h4ZM264,768h-4l-2,-1l-1,-1h1l1,-1l4,2ZM153,767v1h-1l-2,1h-2v-1h1h-1v-1l1,-1h2v-1h1v1h1ZM167,764h3v1h-3l-1,1h-1l-1,1l-2,1h-3v1h-1v1h-2l-2,1h1l-2,1h-4l-1,-1h2v-1h2v-1h-1h1l1,-1h1l-1,-1h4l-1,-1h-3v-1l1,-1h6v-1h3v1l2,-1l1,1ZM190,764l3,1h-6v1h5l-1,1l2,-1h4v1l-2,1h-1l-2,2v2l1,1h-2l1,1l-1,1v1h-1l1,1h-3l1,1v1l-1,-1l-1,1h1l1,1v1h-2l-1,-1v1l-1,1h3l-4,2h-3l-1,1l-4,2h-1l-2,1h-1v1l-2,2v1l-1,1l-1,2h-1l-1,-1h-1l-1,-1v-2l-1,-1v-1l1,-1l-1,-2l1,-1l1,-2h1l1,-1v-1l-1,1h-1v-1l1,-1h1l-1,-1h-1l1,-1v-4l-1,-1h-5v-1l-1,-1h1l-1,-1l1,-1h2l3,-1h1l-2,-1h1l3,-1h1v-1h9l1,1l-1,-1h1l2,-1h3l2,-1Z"/>
<path class="th" d="M238,912h1h-1h1h-1v2h-1v-2Z"/>
<path class="tg" d="M66,970h1l1,-1h4v-1h5v-1h5v-1h6v-1h6l1,-1h7v-1h8v-1h9l1,-1h11v-1h14v-1h20v-1h79v1h20v1h14v1h11l1,1h9v1h8v1h7l1,1h6v1h6v1h5v1h5v1h4l1,1h1M21,927h6v-1h7v-1h8v-1h10v-1h10v-1h12v-1h14v-1h18v-1h23v-1h38v-1h75v1h38v1h23v1h18v1h14v1h12v1h10v1h10v1h8v1h7v1h6M5,877h399M21,826h4v1h7v1h8v1h9v1h10v1h11v1h14v1h16v1h21v1h32v1h103v-1h32v-1h21v-1h16v-1h14v-1h11v-1h10v-1h9v-1h8v-1h7v-1h4M66,783v1h5v1h4v1h5l1,1h5v1h6l1,1h6l1,1h7v1h10v1h10v1h13l1,1h17v1h36v1h21v-1h36v-1h17l1,-1h13v-1h10v-1h10v-1h7l1,-1h6l1,-1h6v-1h5l1,-1h5v-1h4v-1h5v-1M140,755h-1v1h-3v1h-2v1h-2v1h-2v1h-2v1h-2l-1,1h-1l-1,1h-1l-1,1h-1v1h-2v1h-2v1h-2v1h-1l-1,1h-1v1h-2v1h-1l-1,1h-1v1h-2v1h-1v1h-2v1h-1v1h-2v1h-1v1h-1l-1,1h-1v1h-1v1h-2v1h-1v1h-1v1h-1v1h-2v1h-1v1h-1v1h-1v1h-1v1h-1v1h-1l-1,1h-1v1h-1v1h-1v1h-1v1h-1v1h-1v1h-1v1h-1v1h-1v1l-1,1v1h-1v1h-1v1h-1v1h-1v1h-1v1l-1,1v1h-1v1h-1v1h-1v2h-1v1h-1v2h-1v1h-1v2h-1v1h-1v2h-1v2h-1v1h-1v2h-1v2h-1v2h-1v2h-1v2l-1,1v2h-1v2l-1,1v2h-1v3h-1v4h-1v4h-1v5h-1v9h-1v13l1,1v8h1v5h1v4h1v4h1v3h1v3h1v2h1v3h1v2h1v2h1v2h1v2h1v2h1v2h1v1l1,1v1h1v2h1v1h1v2h1v1h1v1h1v2h1v1h1v1l1,1v1h1v1h1v1h1v1l2,2v1h1v1h1v1h1v1h1v1h1v1h1v1h1v1h1v1h1v1h1v1h1v1h1v1h1v1h2v1h1v1h1v1h1v1h1v1h1l1,1h1v1h1v1h1v1h2v1h1v1h1l1,1h1v1h1v1h2v1h1v1h2v1h1l1,1h1v1h2v1h1v1h2v1h2v1h1l1,1h1v1h2v1h2v1h2v1h2v1h2v1h2v1h2v1h2l1,1h2v1h2v1h2M153,755h-1v1h-2v1h-2v1h-1v1h-2v1h-2v1h-1v1h-2v1h-1v1h-2v1h-1v1h-2v1h-1v1h-1v1h-2v1h-1v1h-1l-1,1h-1v1h-1v1h-1v1h-1v1h-1l-1,1h-1v1h-1v1h-1v1h-1v1h-1v1h-1v1h-1v1h-1v1h-1v1h-1v1h-1v1h-1v1h-1v1h-1v1h-1v1h-1v1h-1v1l-2,2v1h-1v1h-1v1h-1v1l-1,1v1h-1v1h-1v2h-1v1h-1v1l-1,1v1h-1v2h-1v1h-1v2h-1v1h-1v2h-1v2h-1v2h-1v2h-1v2h-1v2h-1v2h-1v3h-1v2h-1v3h-1v3h-1v3h-1v3h-1v4l-1,1v4h-1v6l-1,1v30h1v6h1v5h1v4h1v3h1v3l1,1v2l1,1v2h1v3h1v2h1v2h1v2h1v2l1,1v1h1v2h1v2h1v2h1v2h1v1h1v2h1v1h1v2h1v1h1v2h1v1h1v1h1v2h1v1h1v1h1v1l1,1v1h1v1h1v1h1v1h1v1h1v1h1v1l3,3v1h1l3,3h1v1h1v1h1v1h1v1h1v1h1v1h1v1h1l1,1h1v1h1v1h1v1h1l1,1h1v1h1v1h1l1,1h1v1h1v1h2v1h1v1h2v1h1v1h2v1h2v1h1v1h2v1h1l1,1h1v1h2M166,755h-1v1h-1v1h-1l-1,1h-1v1h-1v1h-1v1h-1v1h-1v1h-1l-2,2h-1v1h-1v1h-1v1h-1v1h-1v1h-1v1h-1v1h-1v1h-1v1l-2,2v1h-1v1h-1v1h-1v1h-1v1l-1,1v1h-1v1h-1v1h-1v2h-1v1h-1v1l-1,1v1h-1v1h-1v2h-1v1h-1v2h-1v2h-1v1h-1v2h-1v2h-1v2h-1v1l-1,1v1l-1,1v1l-1,1v2h-1v2h-1v2h-1v3h-1v2h-1v3h-1v3h-1v3h-1v3h-1v4h-1v4h-1v5h-1v6h-1v8h-1v30h1v7l1,1v5h1v5h1v4h1v4h1v3h1v3h1v3h1v3h1v3h1v2h1v2h1v2l1,1v2h1v2h1v2h1v2h1v1h1v2h1v2h1v2h1v1h1v2h1v1h1v2h1v1l1,1v1h1v1h1v2h1v1h1v1h1v1l1,1v1h1v1h1v1h1v1l1,1v1h1v1h1v1h1v1h1v1h1v1h1v1h1v1h1v1h1v1h1v1h1v1h1v1h1v1h1v1h1l2,2h1v1h1v1h1v1h1v1h2v1h1"/>
<path class="tg" d="M179,755h-1v1h-1v2h-1v1h-1v1h-1v1h-1v2h-1v1h-1v1l-1,1v1h-1v1l-1,1v1h-1v1l-1,1v1h-1v2h-1v1l-1,1v1h-1v2h-1v2h-1v2h-1v2h-1v2h-1v2h-1v2h-1v2h-1v2l-1,1v2h-1v2l-1,1v2h-1v3h-1v3h-1v3h-1v3h-1v4h-1v4h-1v4h-1v4h-1v5l-1,1v5h-1v8h-1v11h-1v29l1,1v10l1,1v7h1v6h1v5h1v4l1,1v4h1v3l1,1v3h1v3h1v3h1v3h1v3h1v3h1v2h1v3h1v2h1v2h1v2l1,1v2h1v2h1v1l1,1v1l1,1v1h1v2h1v2h1v1l1,1v1h1v2h1v1h1v2h1v1h1v2h1v1h1v1l1,1v1h1v1h1v1h1v2h1v1h1v1h1M192,755h-1v3h-1v2h-1v3h-1v3h-1v3h-1v3h-1v3h-1v3l-1,1v3h-1v4h-1v4h-1v4l-1,1v4h-1v5h-1v6h-1v6l-1,1v7h-1v8h-1v11l-1,1v18h-1v29l1,1v18h1v11h1v8l1,1v7h1v6h1v6h1v5h1v5h1v4h1v4h1v4h1v4h1v3h1v3l1,1v3h1v2l1,1v2h1v3h1v3h1v2h1M205,755v243M217,755h1v3h1v2h1v3h1v3h1v3h1v3h1v3h1v3l1,1v3h1v4h1v4h1v4l1,1v4h1v5h1v6h1v6l1,1v7h1v8h1v11l1,1v18h1v29l-1,1v18h-1v11h-1v8l-1,1v7h-1v6h-1v6h-1v5h-1v5h-1v4h-1v4h-1v4h-1v4h-1v3h-1v3l-1,1v3h-1v2l-1,1v2h-1v3h-1v3h-1v2h-1M230,755h1v1h1v2h1v1h1v1h1v1h1v2h1v1h1v1l1,1v1h1v1l1,1v1h1v1l1,1v1h1v2h1v1l1,1v1h1v2h1v2h1v2h1v2h1v2h1v2h1v2h1v2h1v2l1,1v2h1v2l1,1v2h1v3h1v3h1v3h1v3h1v4h1v4h1v4h1v4h1v5l1,1v5h1v8h1v11h1v29l-1,1v10l-1,1v7h-1v6h-1v5h-1v4l-1,1v4h-1v3l-1,1v3h-1v3h-1v3h-1v3h-1v3h-1v3h-1v2h-1v3h-1v2h-1v2h-1v2l-1,1v2h-1v2h-1v1l-1,1v1l-1,1v1h-1v2h-1v2h-1v1l-1,1v1h-1v2h-1v1h-1v2h-1v1h-1v2h-1v1h-1v1l-1,1v1h-1v1h-1v1h-1v2h-1v1h-1v1h-1M243,755h1v1h1v1h1l1,1h1v1h1v1h1v1h1v1h1v1h1l2,2h1v1h1v1h1v1h1v1h1v1h1v1h1v1h1v1h1v1l2,2v1h1v1h1v1h1v1h1v1l1,1v1h1v1h1v1h1v2h1v1h1v1l1,1v1h1v1h1v2h1v1h1v2h1v2h1v1h1v2h1v2h1v2h1v1l1,1v1l1,1v1l1,1v2h1v2h1v2h1v3h1v2h1v3h1v3h1v3h1v3h1v4h1v4h1v5h1v6h1v8h1v30h-1v7l-1,1v5h-1v5h-1v4h-1v4h-1v3h-1v3h-1v3h-1v3h-1v3h-1v2h-1v2h-1v2l-1,1v2h-1v2h-1v2h-1v2h-1v1h-1v2h-1v2h-1v2h-1v1h-1v2h-1v1h-1v2h-1v1l-1,1v1h-1v1h-1v2h-1v1h-1v1h-1v1l-1,1v1h-1v1h-1v1h-1v1l-1,1v1h-1v1h-1v1h-1v1h-1v1h-1v1h-1v1h-1v1h-1v1h-1v1h-1v1h-1v1h-1v1h-1v1h-1v1h-1l-2,2h-1v1h-1v1h-1v1h-1v1h-2v1h-1M256,755h1v1h2v1h2v1h1v1h2v1h2v1h1v1h2v1h1v1h2v1h1v1h2v1h1v1h1v1h2v1h1v1h1l1,1h1v1h1v1h1v1h1v1h1l1,1h1v1h1v1h1v1h1v1h1v1h1v1h1v1h1v1h1v1h1v1h1v1h1v1h1v1h1v1h1v1h1v1h1v1l2,2v1h1v1h1v1h1v1l1,1v1h1v1h1v2h1v1h1v1l1,1v1h1v2h1v1h1v2h1v1h1v2h1v2h1v2h1v2h1v2h1v2h1v2h1v3h1v2h1v3h1v3h1v3h1v3h1v4l1,1v4h1v6l1,1v14l1,1h-1v15h-1v6h-1v5h-1v4h-1v3h-1v3l-1,1v2l-1,1v2h-1v3h-1v2h-1v2h-1v2h-1v2l-1,1v1h-1v2h-1v2h-1v2h-1v2h-1v1h-1v2h-1v1h-1v2h-1v1h-1v2h-1v1h-1v1h-1v2h-1v1h-1v1h-1v1l-1,1v1h-1v1h-1v1h-1v1h-1v1h-1v1h-1v1l-3,3v1h-1l-3,3h-1v1h-1v1h-1v1h-1v1h-1v1h-1v1h-1v1h-1l-1,1h-1v1h-1v1h-1v1h-1l-1,1h-1v1h-1v1h-1l-1,1h-1v1h-1v1h-2v1h-1v1h-2v1h-1v1h-2v1h-2v1h-1v1h-2v1h-1l-1,1h-1v1h-2"/>
<path class="tg" d="M269,755h1v1h3v1h2v1h2v1h2v1h2v1h2l1,1h1l1,1h1l1,1h1v1h2v1h2v1h2v1h1l1,1h1v1h2v1h1l1,1h1v1h2v1h1v1h2v1h1v1h2v1h1v1h1l1,1h1v1h1v1h2v1h1v1h1v1h1v1h2v1h1v1h1v1h1v1h1v1h1v1h1l1,1h1v1h1v1h1v1h1v1h1v1h1v1h1v1h1v1h1v1l1,1v1h1v1h1v1h1v1h1v1h1v1l1,1v1h1v1h1v1h1v2h1v1h1v2h1v1h1v2h1v1h1v2h1v2h1v1h1v2h1v2h1v2h1v2h1v2l1,1v2h1v2l1,1v2h1v3h1v4h1v4h1v5h1v9h1v13l-1,1v8h-1v5h-1v4h-1v4h-1v3h-1v3h-1v2h-1v3h-1v2h-1v2h-1v2h-1v2h-1v2h-1v2h-1v1l-1,1v1h-1v2h-1v1h-1v2h-1v1h-1v1h-1v2h-1v1h-1v1l-1,1v1h-1v1h-1v1h-1v1l-2,2v1h-1v1h-1v1h-1v1h-1v1h-1v1h-1v1h-1v1h-1v1h-1v1h-1v1h-1v1h-1v1h-1v1h-2v1h-1v1h-1v1h-1v1h-1v1h-1l-1,1h-1v1h-1v1h-1v1h-2v1h-1v1h-1l-1,1h-1v1h-1v1h-2v1h-1v1h-2v1h-1l-1,1h-1v1h-2v1h-1v1h-2v1h-2v1h-1l-1,1h-1v1h-2v1h-2v1h-2v1h-2v1h-2v1h-2v1h-2v1h-2l-1,1h-2v1h-2v1h-2"/>
<rect x="226" y="901" width="23" height="23" fill-opacity="0" stroke="#ffffff" stroke-opacity="0.5" stroke-width="5.0"/>
<rect x="228" y="903" width="23" height="23" fill-opacity="0" stroke="#113311" stroke-opacity="0.8" stroke-width="5.0"/>
<rect x="227" y="902" width="23" height="23" fill-opacity="0" stroke="#45a249" stroke-opacity="0.9" stroke-width="5.0"/>
<rect x="691" y="691" width="309" height="309" fill="#ffffff" fill-opacity="1.0"/>
<rect x="694" y="694" width="302" height="302" fill="#000000" fill-opacity="1.0"/>
<rect x="700" y="700" width="300" height="300" fill="#70add3" fill-opacity="1.0"/>
<path class="zl" d="M700,700h275v8l2,2l1,-2l-1,-3l1,-5h3v1l1,2v4l-2,10v4l2,7l-7,26v3l1,1l2,1l1,-3h1l1,2l-2,8l-2,4l-6,9l-3,3l-6,4l-12,6l-25,8l-9,4l-6,2l-12,8l-6,5l-2,7l-2,2l-2,4l2,3l1,2l3,3l2,1l1,-5l1,-1h1l-1,6l-1,21l-2,8l-6,18l-4,21l-7,14l-8,8l-3,1l-2,1l-3,1l-13,16l-6,7l-4,11l-4,6l-7,12l-5,10l-3,4h-118Z"/>
<path class="zp" d="M700,1000v-300h275M978,700h3M818,1000h-118"/>
<path class="zh" d="M866,830v1h1l2,1v2l1,2v2l-1,3l-1,1l1,3v1l2,3v12h-1l-1,-1h-2v1l-1,3v3l-1,3v5l1,1v2h-6l-4,-1h-6l-3,-1l-2,-1h-1l-3,-1l-6,-6v-1l-1,-1l1,-2v-1l-2,-2l-1,-2h-1v1h-1v-1l-1,-2v-9l1,-2l5,-7l4,-8v-2h1l2,-3l4,-3l2,-1l1,1l4,2l9,6h2Z"/>
<path class="zb" d="M700,776l3,-3l4,-17v-2l4,-4l1,-2h2l1,-2l3,-2l2,-2h3l3,-2v-2l2,-2h4v-2l1,-2l3,-1l1,-1v-2l3,-4l6,-6l5,-4l10,-2l5,-2l3,-3l2,-4l4,-3h3M803,700l6,3l9,1l15,-2l9,2l3,2M895,862h-17l-5,-1h-2M866,830l-1,-2v-4l2,-5v-41l-1,-3v-2l-3,-10l-2,-5l-2,-3l-1,-2l-1,-3l-2,-4l-2,-2v-7l-2,-9l-4,-14l-2,-5v-3l4,-3l3,-3M768,976l7,-4l2,-1l2,-2v-4l1,-4l2,-1l1,-2l2,-1l2,-9v-4l-1,-1l-2,-3h-1l-2,-2l-7,-5l-3,-4h-2l-4,-4l-1,-2h-2l-3,1l-7,3l-5,3l-4,3l-6,3l-5,7l-1,3l-1,2l-1,1l-1,2l-2,3l-2,2l-3,2l-3,1l-1,1v2l2,6l6,9l2,2l-1,3l3,3l4,2l1,2l2,3l3,2h4l4,1h1l2,-4v-3l1,-1l4,-7l3,-3h3l2,-1l2,1l3,-1"/>
</svg>
