<?xml version="1.0" encoding="UTF-8" standalone="no"?>
<svg xmlns:svg="http://www.w3.org/2000/svg" xmlns="http://www.w3.org/2000/svg" xmlns:xlink="http://www.w3.org/1999/xlink" height="1000" width="1000">
<!-- made with pythonshp (GPL): github.com/sanjayrao77/pythonshp , underlying data may come from naturalearthdata.com -->
<!-- 
COPYRIGHT: THIS SVG FILE IS RELEASED INTO THE PUBLIC DOMAIN
 -->
<!-- 
vars : {
	'cmdline' : 'pythonshp.py publicdomain wiki1 timorleste locatormap'
	'title' : 'Timor-Leste locator'
	'version' : '1.0.5'
}
 -->
<defs>
	<radialGradient id="watergradient" cx="500" cy="500" r="500" fx="500" fy="500" gradientUnits="userSpaceOnUse">
		<stop offset="0%" stop-color="#70add3"/>
		<stop offset="11%" stop-color="#6eaad0"/>
		<stop offset="22%" stop-color="#6ca7cc"/>
		<stop offset="31%" stop-color="#6ba5c9"/>
		<stop offset="41%" stop-color="#69a2c6"/>
		<stop offset="51%" stop-color="#679fc2"/>
		<stop offset="59%" stop-color="#669dbf"/>
		<stop offset="67%" stop-color="#649abc"/>
		<stop offset="75%" stop-color="#6297b9"/>
		<stop offset="81%" stop-color="#6095b6"/>
		<stop offset="87%" stop-color="#5f92b2"/>
		<stop offset="92%" stop-color="#5d8faf"/>
		<stop offset="95%" stop-color="#5b8dac"/>
		<stop offset="98%" stop-color="#598aa8"/>
		<stop offset="100%" stop-color="#5685a2"/>
	</radialGradient>
	<radialGradient id="landgradient" cx="500" cy="500" r="500" fx="500" fy="500" gradientUnits="userSpaceOnUse">
		<stop offset="0%" stop-color="#dddddd"/>
		<stop offset="11%" stop-color="#d7d7d7"/>
		<stop offset="22%" stop-color="#d1d1d1"/>
		<stop offset="31%" stop-color="#cccccc"/>
		<stop offset="41%" stop-color="#c6c6c6"/>
		<stop offset="51%" stop-color="#c0c0c0"/>
		<stop offset="59%" stop-color="#bbbbbb"/>
		<stop offset="67%" stop-color="#b5b5b5"/>
		<stop offset="75%" stop-color="#afafaf"/>
		<stop offset="81%" stop-color="#aaaaaa"/>
		<stop offset="87%" stop-color="#a4a4a4"/>
		<stop offset="92%" stop-color="#9e9e9e"/>
		<stop offset="95%" stop-color="#999999"/>
		<stop offset="98%" stop-color="#939393"/>
		<stop offset="100%" stop-color="#888888"/>
	</radialGradient>
	<radialGradient id="bordergradient" cx="500" cy="500" r="500" fx="500" fy="500" gradientUnits="userSpaceOnUse">
		<stop offset="0%" stop-color="#444444"/>
		<stop offset="11%" stop-color="#3f3f3f"/>
		<stop offset="22%" stop-color="#3a3a3a"/>
		<stop offset="31%" stop-color="#363636"/>
		<stop offset="41%" stop-color="#323232"/>
		<stop offset="51%" stop-color="#2d2d2d"/>
		<stop offset="59%" stop-color="#292929"/>
		<stop offset="67%" stop-color="#242424"/>
		<stop offset="75%" stop-color="#1f1f1f"/>
		<stop offset="81%" stop-color="#1b1b1b"/>
		<stop offset="87%" stop-color="#161616"/>
		<stop offset="92%" stop-color="#121212"/>
		<stop offset="95%" stop-color="#0e0e0e"/>
		<stop offset="98%" stop-color="#090909"/>
		<stop offset="100%" stop-color="#000000"/>
	</radialGradient>
</defs>
<style type="text/css">
<![CDATA[
.c3 {stroke:#45a211;fill-opacity:0;stroke-width:3}
.fs {font:14px sans;stroke:#ffffff;stroke-width:2px;stroke-opacity:0.8;text-anchor:middle}
.ft {font:14px sans;fill:#000000;fill-opacity:1;stroke-opacity:0;text-anchor:middle}
.sb {stroke:url(#bordergradient);fill-opacity:0}
.sg {stroke:#000000;fill-opacity:0.0;stroke-opacity:0.2}
.sh {fill:#45a211;stroke:#000000}
.sl {fill:url(#landgradient);stroke:url(#bordergradient)}
.sp {stroke:url(#landgradient);fill-opacity:0}
.sr {stroke:url(#watergradient);fill-opacity:0}
.sw {fill:url(#watergradient);stroke:url(#watergradient);stroke-opacity:0.8}
.tb {fill:#eeeeee;stroke:black;stroke-width:2}
.tg {stroke:black;stroke-opacity:0.2;fill-opacity:0}
.th {fill:#45a211;stroke:#378100}
.tl {fill:#aaaaaa;stroke:black}
.w3 {stroke:#ffffff;fill-opacity:0;stroke-opacity:0.6;stroke-width:3}
.zh {fill:#45a211;stroke:#115511}
.zl {fill:#dddddd;stroke:#444444}
.zp {stroke:#dddddd;stroke-dasharray:3 3;fill-opacity:0}
]]>
</style>
<circle cx="500.0" cy="500.0" r="500.0" fill="url(#watergradient)"/>
<path class="sl" d="M753,69l-1,-1l1,1h1ZM744,63v1h1l1,1h1l1,1h1v1v-1v1h1l1,1h1l1,1h1l1,1h1v1h1l1,1h1v1h1l1,1h1v1h1v1v-1v1h2v1h1v1h1v1h1h-1h1l1,1h1v1h1h-1h1v1h1v1l-1,-1v1h1h-1h1h-1h1h-1l-1,-1v1h1l1,1v1v-1h-1h1v1l-1,-1l1,1l-1,-1h-1h1h-1v-1h-1v-1l-1,-1h-1v-1l1,1h1l1,1l-1,-1h1v1v-1h-2v-1h-1v-1h-1v-1h-1l-1,-1h1v1v-1h-1l-2,-2h-1h1h-1v-1h-1l-2,-2h-2v-1h-1l-1,-1h-1v-1h-1l-2,-1h1l1,1h-1v-1h-1l-1,-1v1h1l1,1l2,1l-2,-1l-1,-1h-2v-1h-1l1,1h1h-2l-2,-2h-1l-1,-1h-1l-1,-1h-1l-2,-2h-1l-2,-2h-1l1,1h1l1,1h1h-1h1v1h-1l-1,-1h-1l-1,-1l-2,-1h-1l-2,-2h-1h1v1h1l-1,-1h1h-3v-1h-2v-1h-1h1v1l-1,-1h-1l-1,-1h-1h1h-1l-1,-1l1,1v-1h-2v-1h-1l-1,-1h-1v-1v1v-1h-1l-1,-1h-1l-1,-1h1v1h1v-1h-2v-1l1,1v-1h-1l-1,-1h-1l-2,-1h-1l-1,-1h-1l-1,-1h-1h1v1h1h-1l-1,-1v1h1l-1,-1h-4v-1h-2l-1,-1h-1l-1,-1v1h1l-1,-1h-1l-2,-1h-2v-1h-1h1h-1v-1h-1h1l1,1l-1,-1h-1v-1l1,1l-1,-1v1h3v1h3v1h1l-2,-1h1h-2v-1h-1l-2,-1h-1h1l1,1h2v1h1l-1,-1h-2l-1,-1h-2v-1h-3l-1,-1h-2l-1,-1l-5,-2h-2l-1,-1h-1h1h-2l-1,-1h-1h1l-1,-1h-1l-1,-1h-1l-2,-1h-1h1h-1l-1,-1l1,1h1h-1l-1,-1h-1h1l1,1h2l1,1h1l1,1h2l1,1h2l1,1h2l1,1h1l1,1h2l1,1h2l1,1h2l1,1h1l1,1h2l1,1h1l1,1h1l1,1h2l1,1h1l1,1h2l2,2h2l1,1h1l1,1h1l1,1h1l1,1h1l1,1h2l1,1h1l2,2h2l2,2h2l2,2h2l2,2h1l1,1h1l1,1h1l1,1h1l1,1h1l1,1Z"/>
<path class="sp" d="M752,68l1,1h1M658,26h2l1,1h2l1,1h1l1,1h2l1,1h2l1,1h2l1,1h1l1,1h2l1,1h2l1,1h2l1,1h1l1,1h2l1,1h1l1,1h1l1,1h2l1,1h1l1,1h2l2,2h2l1,1h1l1,1h1l1,1h1l1,1h1l1,1h2l1,1h1l2,2h2l2,2h2l2,2h2l2,2h1l1,1h1l1,1h1l1,1h1l1,1h1l1,1"/>
<path class="sl" d="M30,330l-1,2l-1,4l-1,2v1l-1,1v2l-1,1l-1,6l-2,5l-1,5l-1,2v1l-1,2v1v-1v5l-1,1v4l-1,2v7l-1,1v1l1,-1v1h-1v6h-1v2l-1,1v10h1l1,-2v-2h2l1,-2v-2h2l1,-2h1l1,-1v-1l2,-1l1,-2v-2h1v1h1h-1v3l-1,1v2l-1,5v1v-1h1v1h-1l-1,1v3l-1,2v2l-1,2v1l-1,3v3l-3,7v4l-2,4v3l-1,3l-4,20l-2,6l-1,8l-1,1l-2,9l-1,3v4l-1,9v1l-1,1v14l-1,-1v20h1v16l1,2v5l1,1v6l1,2v6l1,2v2l1,2v5h1v3l1,1v3h1v6l1,1v3l1,1v4l1,1v4h1v4h1v3l1,2v2l1,1v1v-1v2l1,1v4l1,2v2l1,1v4l1,1v4l1,1v5l1,1v4h1v3l1,2v1l1,1h-1l1,1v1l3,7v1l-1,-1h1v3l1,2l1,1v1l1,2l1,3v1l1,2l1,1l1,2v2l1,1v1v-1l-1,-1v-1v1l1,1l1,2v1l1,2v1l2,5h1v1l-1,-1h1v2l1,1l1,2v1l1,1v2l1,2l1,1l-1,-1v-1l-1,-1v-1l-1,-1v-2l-1,-1v-1l-1,-1v-1l-1,-1v-1l-1,-1v-1l-1,-1v-2l-1,-1v-1l-1,-1v-2l-1,-1v-1l-1,-1v-1l-1,-1v-2l-1,-1v-2l-1,-1v-1l-1,-1v-2l-1,-1v-2l-1,-1v-2l-1,-1v-1l-1,-1v-2l-1,-1v-1l-1,-1v-2l-1,-1v-3l-1,-1v-2l-1,-1v-2l-1,-1v-3l-1,-1v-2l-1,-1v-2l-1,-1v-3l-1,-1v-2l-1,-1v-3l-1,-1v-3l-1,-1v-3l-1,-1v-3l-1,-1v-3l-1,-1v-4l-1,-1v-4l-1,-1v-3l-1,-1v-5l-1,-1v-4l-1,-1v-5l-1,-1v-6l-1,-1v-6l-1,-1v-6l-1,-1v-8l-1,-1v-11l-1,-1v-15l-1,-1v-44l1,-1v-15l1,-1v-10l1,-1v-8l1,-1v-7l1,-1v-7l1,-1v-5l1,-1v-5l1,-1v-4l1,-1v-4l1,-1v-5l1,-1v-3l1,-1v-4l1,-1v-3l1,-1v-3l1,-1v-3l1,-1v-3l1,-1v-3l1,-1v-3l1,-1v-2l1,-1v-2l1,-1v-3l1,-1v-2l1,-1v-2l1,-1v-2l1,-1v-2l1,-1v-2l1,-1v-2l1,-1v-2l1,-1v-2Z"/>
<path class="sp" d="M48,713l-1,-1v-1l-1,-1v-1l-1,-1v-2l-1,-1v-1l-1,-1v-1l-1,-1v-1l-1,-1v-1l-1,-1v-2l-1,-1v-1l-1,-1v-2l-1,-1v-1l-1,-1v-1l-1,-1v-2l-1,-1v-2l-1,-1v-1l-1,-1v-2l-1,-1v-2l-1,-1v-2l-1,-1v-1l-1,-1v-2l-1,-1v-1l-1,-1v-2l-1,-1v-3l-1,-1v-2l-1,-1v-2l-1,-1v-3l-1,-1v-2l-1,-1v-2l-1,-1v-3l-1,-1v-2l-1,-1v-3l-1,-1v-3l-1,-1v-3l-1,-1v-3l-1,-1v-3l-1,-1v-4l-1,-1v-4l-1,-1v-3l-1,-1v-5l-1,-1v-4l-1,-1v-5l-1,-1v-6l-1,-1v-6l-1,-1v-6l-1,-1v-8l-1,-1v-11l-1,-1v-15l-1,-1v-44l1,-1v-15l1,-1v-10l1,-1v-8l1,-1v-7l1,-1v-7l1,-1v-5l1,-1v-5l1,-1v-4l1,-1v-4l1,-1v-5l1,-1v-3l1,-1v-4l1,-1v-3l1,-1v-3l1,-1v-3l1,-1v-3l1,-1v-3l1,-1v-3l1,-1v-2l1,-1v-2l1,-1v-3l1,-1v-2l1,-1v-2l1,-1v-2l1,-1v-2l1,-1v-2l1,-1v-2l1,-1v-2l1,-1v-2l1,-1"/>
<path class="sl" d="M124,171h-1h1h-1h1l1,-1v-1h1l1,-2h1l1,-2l4,-4l1,-2h1v-1h1v-1l2,-2v1v-1v1v-1v1h-1v1l-1,1v1v-1h1v-1v1l1,-1h-1v1l-2,2v1l-2,2v1h-1v1h-1v1h-1v1v-1v1v-1l1,-1h-1l-1,1v1l-1,1v1h-1l-1,1v1l-2,2v1h-1v1h-1v1h-1v2h-1v1h-1v1l-1,1l1,-1v-1l1,-1v-1v1v-1v1v-1h1v-1l-1,1l-1,2h-1v2h-1v1l6,-6h1v-1v1l-3,3v1h-1v1h-1v1l-1,2l1,-1l-2,2v1l-2,2v2l-1,1v3h1l4,-2l1,-1v1v-1h1l1,-2v-1h1l1,-1h1l1,-2h1l3,-3h2v-1h2v1l1,1v1v-1l1,1v-1l1,1l-1,1v3l-1,2l2,-1h1v1l-3,3v1l-1,1v1h-1v1l-1,1v1h-1v1h-1v1l-3,3v1h-1v1h-1l-1,1l-1,2l-1,1v1h1v1h-1l-2,2v1l-1,1l-2,4v1l-1,1v1l-1,1l-1,2h2v2l-2,2l-1,2l-2,2l-2,1l-1,3l-1,1v3l-1,2v3h1v2h1l-1,1l-2,4v1l-1,1h2v1h-1v2h-1v2h-2l-1,1h-1v1h-1v1h-2v1l-1,1v2h-1v2l-2,2v1h-2l-1,-1v-1l-1,1h-4v-1h-2l-1,-1v-2h1v-2l1,-2v-1l1,-1v-2h-1l-2,2h-1v1h-1v1h-1l-1,2h-1v-1h-2v-1h1v-1l-1,-1v-1l1,-1v-2h-1v-2l1,-1v-2l1,-2v-1h1v-2l1,-1v-1h1v-3l1,-1v-1l-1,2v-3h1v-1v1h-1v1l-1,1v1h-1v1h-1v-1v1l-1,1v1l-1,1v1h-1v1l-1,2v1l-1,1v1l-1,1v1l-1,1v2l-1,1v2l-1,1v4l-1,1v-1v2l-1,1l-1,2v1l-1,1v2l-1,1v1l-1,2v3h-1h1v1l-1,1h1v1v-1l-1,2v1h1v-1l1,-1h3l3,-3v-1h1v-1l1,-1v-1l3,-3v-1l1,-1h1l2,-3v-1l2,-2v-1h1l-1,1l-1,3l-1,1v1l-3,6v6l1,1h1v1l1,-1v8l1,1h-1v2l-2,2l-2,4l-3,3l-1,3l-2,2v1h-1h1v-1h-1l-1,2v1l-1,1v1l-1,2v1h-1v3l-1,1v1l-1,1h-1l-2,2v1l-2,4l-2,2h-1l-1,1l-1,2v2h-1v2l-2,2v-1h-1l-2,2v1h-1l-3,3v1l-1,1v1l-1,1v2l-1,1v1l-1,1v1h-1l-1,1v1l-2,1v1l-1,1h-1v1l-1,1l-1,2v1l-1,1v1l-1,1h-1v1l-1,1l-1,2l-1,1v1h-1l-1,1v1h-1v2l-1,1v2h-1v1h-1v1v-2l1,-3v-4l1,-1v-3l1,-1v-4l1,-1v-3h1v-3l2,-6v-2h1v-4l1,-1v-2l1,-1v-3l1,-2v-1l1,-2v-3h1l1,-5v-1l1,-1v-3h1v-3l2,-4v-1l1,-1v-2l1,-1v-1l1,-1v-1l1,-1v-2h1v-3h1v-2l1,-2l1,-1v-2l1,-1v-1l1,-1v-1l1,-1v-1l1,-1v-1l1,-1v-2l1,-1v-1l1,-1v-1l1,-1v-1l1,-1v-1l1,-1v-1l1,-1v-1l2,-2v-1l1,-1v-1l1,-1v-1l1,-1v-1l1,-1v-1l1,-1v-1l2,-2v-1l1,-1v-1l1,-1v-1l2,-2v-1l1,-1v-1l1,-1v-1l2,-2v-1l1,-1v-1l2,-2v-1l1,-1v-1l2,-2v-1l1,-1v-1l2,-2v-1l2,-2v-1l1,-1v-1h1l1,-1v-1l2,-2v-1l2,-2v-1l2,-2v-1l2,-2v-1l2,-2v-1h1l1,-1v-1l2,-2v-1l2,-2v-1l2,-2v-1l1,-1h1l1,-1v-1l2,-2v-1l6,-6v-1l2,-2v-1l6,-6v-1l1,-1Z"/>
<path class="sp" d="M44,294l1,-1v-1l1,-1v-1l1,-1v-1l1,-1v-2l1,-1v-1l1,-1v-1l1,-1v-1l1,-1v-1l1,-1v-1l1,-1v-1l2,-2v-1l1,-1v-1l1,-1v-1l1,-1v-1l1,-1v-1l1,-1v-1l2,-2v-1l1,-1v-1l1,-1v-1l2,-2v-1l1,-1v-1l1,-1v-1l2,-2v-1l1,-1v-1l2,-2v-1l1,-1v-1l2,-2v-1l1,-1v-1l2,-2v-1l2,-2v-1l1,-1v-1h1l1,-1v-1l2,-2v-1l2,-2v-1l2,-2v-1l2,-2v-1l2,-2v-1h1l1,-1v-1l2,-2v-1l2,-2v-1l2,-2v-1l1,-1h1l1,-1v-1l2,-2v-1l6,-6v-1l2,-2v-1l6,-6v-1l1,-1h1"/>
<path class="sl" d="M316,35l-1,1ZM307,39l1,-1h1l2,-1h1l1,-1h2l1,-1h1l2,-1h1l1,-1h2l1,-1h1h-1l-1,1l1,-1h1l2,-1h2l1,-1l-1,1h-2l-1,1h-2v1v-1h1l-1,1l1,-1h2l1,-1h3l3,-1h-1h1l1,-1h1h-1v1h-2l-2,1h1l1,-1h2l1,-1h2l1,-1h2v-1h2l1,-1h2v1h-1h1v1h-1v1l2,-1h2l1,-1h-1h1l2,-1h-1l1,-1h2l1,-1h1l2,-1h2v-1h2l1,-1h3l2,-1h1l1,-1l3,-1h3l2,-1h1h-1h3l-1,1h-1l-2,1h-2l-1,1h-3v1h-1l-1,1h-3v1h-2l-4,2h-1l-1,1h-1l-2,2h-2v1h-3v1h-2l-6,2h-1v1h-2l-1,1h-1l1,-1l-1,1v-1h-1l-1,1h-1h1v1l2,-1l1,1l1,-1h1l1,-1h3l1,-1h2l2,-1h1l3,-1v-1h2v-1h2l1,-1h1l2,-1h3l-1,1h-1l-4,2h1l1,-1h2l1,-1h1l1,-1h1l-1,-1h-1l-2,1h-2l2,-1l1,-1h1l5,-2h2l2,-2h1l3,-1h2l1,-1h2l1,-1h3v-1v1h-2v1h-3l-1,1h-2l-1,1h5l-1,-1v1v-1h-1h1l1,-1h4v-1h5v1h1l-2,1h-2v1h-2v1h-1h1l1,-1h1h-1l-1,1h-1l-1,1h1v-1h3l1,-1h1v-1h2l1,-1h2v-1h-1h1h-1v-1h2l1,-1h1l1,-1h7l2,-1h2l-1,1h-1h1h-1h2v-1h4v-1h2v-1h-1h5v-1h6l2,-1h8l1,-1l-1,1v-1l-1,1h-1l1,-1h13l-1,-1h6v-1h5l1,-1h4v1h-1h1l-1,1h3v-1h7l1,1h-1h3l-1,1h-1l-1,-1v1h1l-2,1h-4l-1,1h-4l-1,1h-6l-1,1h-2l-2,1h-1h2l1,-1h9l2,-1h1h1l1,-1v1h3v1h1h-2v1h1h-1l1,-1h1v-1h12v1h13l-1,-1h12v1h3v1h-1h2v1h-3v-1h-1v1h1l2,1v-1h1v1h-1h1l2,1h3v1h1l1,-1h1v-1l1,-1v1h13v1h2v-1h2l1,1h1v-1h1h-1l-1,-1h1h-3l1,-1h12l2,1h1h-2h6v1h-1v-1h-2l1,1h2v-1h5l2,1h2h-2v1h5v1h1v-1l1,1h3l2,1h15l2,1h3v1h2v1h2l2,1h2l1,1h1l1,1h1h-1v1h1v-1h-1h1l-1,-1h-2v-1h6l3,1h4v-1l1,1h2l1,1h3l1,1h3l-1,-1h-1l-2,-1h-2v-1h-1h4l1,1h7l1,1h4l2,1h2l1,1h3l1,1h3l1,1h1h-1h2l1,1h1l-2,-1h-1h1l2,1h2l1,1l6,1v1h3v1h2l1,1h1l1,1h2v1h1l-1,-1l1,1h1h-1v-1h-2l-1,-1h-2v-1h-1h2l1,1h1h-1h1h-1h3l1,1h1l1,1h1l2,1h3v1h1h-1h1l1,1h-1l-1,-1h-1h1l1,1h1h-2l-1,-1h-1h1l1,1h1l1,1h-1h2l1,1h-1h2v1h2l1,1h-1v-1h-1l1,1h-1v-1h-1h1h-3l-1,-1h-2l-1,-1h-2l-1,-1h-1l-2,-1h-1l-1,-1v1h-2v-1h-2l-1,-1h-1l-1,-1h-2v-1v1h1h-1h1v1h2v1h2v1h1v1h1h-1v1l-1,-1h-2l-2,-1h-1h1v1h1h-1v-1h-4l-1,1l1,-1l1,1v-1h1l1,1h3l1,1l2,1h1v-1v1h2v1h2l1,1h1l1,1h-1v-1l1,1h1l2,1h1h-1h1v1h2v1h1v1h1h-1l-3,-1h-2v-1h-1v1h-1v1h-1v1h-2v1h-1h1v2h-1v1h-1h1v1h1v1h-1l-1,-1h-1v-1h-2l-1,-1h-6l-1,1l1,1h-2v-1l-1,-1h-1l-1,1h-1l1,1h-1l-1,-1h-1v1v-1h-2v1l2,2h-1l1,1v1h-1l1,1v1l1,1h1v1h2l-1,-1h1l2,1h1v2l2,2h2v1h1l2,2h-3v-2h-1v1h1h-1v3l2,2h1l1,1h1v2h-5v1h-1v1l1,1v1h1v1h2v1h-4v1h-1v-1h-1v1h1v1l2,2v2l-2,2v1l-1,1h-1v-1h-1l-1,-1v-1l-5,-5h-1v-1h-1l-1,-1l-3,-4h-1l-3,-3l-1,-2l-2,-1v-1l-2,-2v-1l-1,-3l1,-1v-2h-1v-1h-1h2v-1h3v-1l1,-1v-1h1l-1,-1l1,-1v-1h1v-1l1,-1l-1,-1h1l1,-1h2l-1,-1v-1h-1l-3,-3v-1h2l1,1l-1,-1h-2l-1,-1h-1l-2,1h1v1h1v1h1l1,1h-2v-1v1h-1l-2,2v1h-1l-2,-2v1h-1v-1h-1v-2h-1v-1h-1l-1,1h-1l-1,-1h-6v1h-1l1,1h-1v2h-1l-2,2l1,1h-1h1v1h2l1,1h2v1h-2l-1,-1v1h-2l-1,-1h-1v1h-7l-2,-1h2l-2,-1h-1l-1,-1v1h-1l-1,-1h-5v1h-1v-1l-1,1h1h-8l-1,-1h-1v1h-3v-1h-10l-3,1h-1v1l-1,1h-1l-2,1l-1,1v1l-2,1l-1,1h-2l-3,3v1h-1l-1,1h-1v1h-1l-1,1h-2l-1,1l-2,1h-1l-1,1v1h1l2,1h5v3h1v1v-1h2v-1h-1l1,-1h2l-1,1h-1h1l1,1h1h-1v1h-2l1,1h2l1,-1h1l1,-1h1l-1,1v1h1v-4l2,1h4l2,1l1,1l2,1h2l1,1h1v1l-1,1l-1,-1l1,1h1l1,1v1h-1l1,1h1l1,1h-1v2h-1v1l-1,1v3l1,3h1l-1,1h1v7l-3,3h-1v1l-1,2l-3,3v2l-1,1l-1,2l-2,1l-1,2l-2,1l-3,3v1h-2l-1,3h-1l-1,1v1l-2,1l-1,1l-3,1l-1,1h-3l-1,1h-2v-1h-5v-2h-2v1h-1l1,-1v-1l-1,1h-1l-1,1v1h-1v1h-4l1,1v1h-2l-1,1h-1l-1,1v1h-1v1h-1v1l1,1v3l-3,1l-2,2h-2v1h-1l-1,1h-3v1h-2l-1,1l1,1v1h-1v1l1,1h1l2,1l1,1h1v1l2,3l3,3l2,3l1,1v1l1,1l-1,1v4h1v3l-3,3h-4v1h-3v-1h-1v1h-2v1h1l-1,1v-1h-2l1,1l-1,1h-1v-2l-2,2h-1l-1,1h-1v-1l-1,-1h-1l1,-1v1h1v-1h1h-2v-2h-1l1,-1v-1h1v-1h1h-1v-1h1v-1h1h-1v-2h-1v-4h-1v1l-1,-1h-1l1,-1h1v-1h1l1,1h2l-1,-1v-1h-1l1,-1h-1v-1l-1,-1v-1h1h-5l-1,-1h-1l-2,2v-1h-2v-1h1v-1h-4l2,-1v-1l1,-1h2v-1h1h-2v-1l1,-2v-2h-2l-1,-1h-2v1v-2h-2v-1v1h-5l-1,1h-3v1h-1l-3,1l-1,1h-1l-1,1h-1v1l-1,-1v1l-1,1h-3v-1h1l3,-1v-1l1,-1h-3v-1h-1h1l1,-1v-1l2,-1h1v-1l2,-1v-2l-2,-1v-1l-1,1h-4l-1,1h-1v1l-3,2l-4,1l-2,1l-1,1h-1v2l-2,1l-1,1h-4l-1,-1h-2v1l-2,2v2l1,1l2,1h5l1,1v1l1,1h-1v1l-1,1l1,1h1l1,1h1l2,-1h1v-1l2,-1l1,-1l3,-1l2,1h1l1,1h6l1,1h2v1h-1v2h-6l-4,2h-2l1,1h-2v2h-1l-1,1v-1h-1h1h-2v1h1l-2,1v1h-1l-2,2h-1v1l-2,2v1h1v1l1,1h3l2,1v1l1,2l1,1v2l1,2l1,1v3h1l2,1l1,1v1l1,1h1l1,1v1h-2l-2,-1h-3l-1,-1h-2l-3,1h-1h3l1,-1h1l1,1v1h2l2,2l2,1l1,1v1l1,1h-2l-1,1h-1l-1,1l-2,1h-1v1h-3l-2,1h1l1,-1l1,2l4,-2h1v1h1l2,2h3l-2,1l-1,2h-2h2l1,-1h1v1l-1,3l-1,-1h-2v1l1,1h1h-2l1,1v1h-1v1l1,1v1h-4l-1,1v1h-2l1,1l-1,1h-1v2l-1,1v1h-1l-2,2v2h-1v1h-1v-1h-1v-1h1h-1v1h-1v-1v1l1,1v1h1v1h-2l-2,2h-1v-1h-1l1,1v1l1,-1h2v1l-1,1v3h-1v-1h-2v1l1,1h-3v2h-1l-1,1h-1h1v1l-1,1h-5v1h-1l1,1h1v1l-2,1h-1l-1,1v1h-1v1h-1v1v-1h-1l-1,1l-1,-1h-1v2h-1l-2,2v1l-1,1h-1v-1l-1,1h-1l-2,1h-2v1h-1l-1,-1h-2v1h-3v-1l-1,1v1h-6v-1l-1,-1v-2h-1v1h-1v2h1v3l-1,1h-1l-1,1l-1,-1l-1,1v1h-2v1h-2v-1h-1v2l-1,-1h-2l-1,1h-1v1h-3v1h-3l-1,1h-2v1h-1v-1h-1v2h-2v2h2v1h-1l2,2h-1v1h-1l-2,1l-1,-1h-1l1,-1v1v-1h-1v-3h-1l1,-2v-2h2v-1h-1v-1l-1,1l-1,-1v1h-3v1l-1,-1h1l-1,-1h-2l-1,-1v-1h-1v2h-2v1h-4l-2,2h-1v1l-2,2h-1v-1l-1,1h-1v-1h-1v2l-1,2v1l-4,4h-1l-2,3v2l-1,2h-1v1l1,1v2h1l1,2l3,3h-1v2l-1,-1h1l1,1l1,2l3,3v1l2,1l1,1v1h1l1,1v1h2l1,1v1l2,2v2h1l1,1l1,2v3l1,1v2l1,1v11h1v3h-1v-1h-1v3l-1,3h1v1h-1v-1v4h-1v1l-1,1h-1l-2,2l-2,1h-1l-2,2h-1l-3,2h-1v1h-2l-1,-1v-1l-1,2h-1l-1,-1l-1,1h2v1h-3l1,1h2v1h-1v1l-1,1l-1,-1l-3,-2l4,4v1h-2l-3,-3h-1l2,3l1,1l-1,1l-5,3l-4,4h-2l1,-1l-1,-1v-3l1,-5l1,-1h1v-1l-1,-1h-1v-1h-1v1l-3,-3l-3,-1h-1l-1,1h-1v-2h1v-3h-1l-1,1v1h-2v-5l-1,-1v-1h-1v-2l-1,-2h-1v1l-4,-4h-1l-1,-1l-2,1h-4l-1,-1l1,-1v-4h1v-1h-3v-1v1h-4l-1,1v2l1,1l-1,2l-1,1v5l-1,1l-3,6v1l-2,5l-2,2h1v1l-1,2v3l1,1v1l-1,1h1l3,-1h1v2l1,5l1,1v-1l1,1l1,9l-1,-1v-1h-1l1,-1l-1,-1v3l1,1v1h2l1,1v1l2,1h1l1,-1h1l2,2l1,2l2,2v1l-1,1v1h-1v1h-2v-1h-1l-2,1v1h-1l-1,-1v-1h1v-3h-1l-1,-1v-1h-3l-1,-1v-1l-1,1v2l-2,-3l-1,-1v-2h-1v-2h-2v-2l-1,-1h-1v-2l-1,-1h-1v-1l-1,-1h-1v1h-1l-1,-2v-3l1,-1l1,-3v-2l1,-1l2,-5h-1v1h-1v-1l1,-1l-1,-3h1v-1l1,-1v-2l1,-1v-3h1v-1h-2l1,-1v-12l-1,-1l-1,-2v-3l-1,3v-3l1,-1l-1,-1v-4h-1v-5l1,-4l-1,-1v-2l1,-2v-1v1h-2v-1l-1,-1v-3l-1,-1v-1h-1v3l-1,1v1l-2,2h-2v-2h-1l1,1l-1,1l1,1l-2,1h-1l-2,2v1l-1,1l-2,1v-3l-1,2h-2v-1h-1l-1,1v-2h1v-2l-1,1h-1v1l-1,1h-1v-1l1,-3l1,-1l1,-2v-2l1,-1v-1l1,-2v-5l-1,-2v-2l-1,-1v-2l1,-2l-1,1v2h-1v1l-1,-1l-1,-2v-1l1,1h1l1,-1v-1h-1v-2h-1l1,-1h-1l-2,-2v2h-1v-3l-1,1h-1v-1h1v-2h-1v2l-1,-2l-1,-1v-2h-1v-10l1,-1h-1v-1l-1,-2v-1l-2,2h-2l-1,-1v-4l1,-1v-1h-1v1h-1l1,1v1l-1,1v1h-1v5l-3,3v1h-1v-2l1,-1l-1,1h-1v-1l1,-1v-1l-1,1v2h-1v1h-1v1h-1h1v-3l-1,1v2l-1,1h-1v-1h-1l1,-1v-1l-1,1v2l-1,1v-1h-1v1l-1,-1h1v-3l-1,2v2h-1l-1,-1v1h-1l-1,-1h1l1,-2v-2h-1v-1v1l1,1l-4,4l-3,1h-1l-1,1l-1,2v2l-1,1l1,1h-1l-1,1v2h-1l-2,2h-1v1h-1l-4,2h-1h1v-1h-1l-2,2h2l-2,1l-4,4v1h-1l-1,2l-3,3l-3,2l-1,1l-1,2l-2,1l-1,1l-3,2l-2,2v1h-1v1h1l-1,1v1l-1,1l-3,1h-3v1l-1,3h-1v1h-1l-1,-1l-2,1l-1,1l-2,5v5l-1,1v7l-1,-1v1l1,1v1l-2,5v2l-1,2h-1l-2,5v3h-1h1v5l-1,3v1h-1l-1,-1l-1,1v1l-1,1l-2,3v3h2v1h-2l-4,1l-1,1v1l-1,2v3l-2,1l-2,2l-3,-3l-1,-4l-1,-2v-3h1l-1,-4v-4l-1,-3v-4l-1,-1v-3l-1,-1v-1l-1,-4v-18l-1,-1v-8l-1,-2v-3l1,-6l1,-2v-7l1,-2v-1l1,-2v-2v2h-1v-1l1,-1v-1h1h-1v-4l3,-6v-1l1,-1v-5h1h-1l1,-1l2,-1h-3l1,-1v-1h1h-1l1,-1v-1h1h-3v2h-1v1l-1,1h1v2l-5,5h-1l-2,2h-2l-1,-1l-1,-2v-3l-1,-1v-1l-1,-1v-3h1v-1v1h1l1,-1h2l1,-1h1l2,-4v-1v1l-1,1v-1l-1,1h-1l-1,1h-2l-1,-2l-1,-1v-1l1,-1v-1l1,-1h-1v1h-1v-1h-1v-1v1h-1v-1v1v-4l1,-3l-2,-1l1,-2v-1l1,-1l-1,-1h-1v1h1h-1l-1,1h-2l-2,1h-1l-1,1l-1,-1h-2l-1,1h-1l-1,1l-1,-1v1h-1l-1,1v-1v1h-2v-1l2,-2v-2h1v-2l1,-1v-1h2v-1h1v-1h1l1,-1h2v-2h1v-2h1v-1h-2l1,-1v-1l2,-4l1,-1h-1v-2h-1v-3l1,-2v-3l1,-1l1,-3l2,-1l2,-2l1,-2l2,-2v-2h-2l1,-2l1,-1v-1l1,-1v-1l2,-4l1,-1v-1l2,-2h1v-1h-1v-1l1,-1l1,-2l1,-1h1v-1h1v-1l3,-3v-1h1v-1h1v-1l1,-1v-1h1v-1l1,-1v-1l3,-3v-1h-1l-2,1l1,-2v-3l1,-1l-1,-1v1l-1,-1v1v-1l-1,-1v-1h1h-3v1h-2l-3,3h-1l-1,2h-1l-1,1h-1h1l2,-4l3,-3v-1l1,-1h1v-1l1,-1v-1h1h-1l1,-1h-1v1v-1l2,-2v1v-1h1v-1l1,-1h-1l-1,1l1,-1l1,-2l5,-5v1h-1v1v-1h1v1h-1h2v-1h1v-1v1v-1h1v-1h1v-2h1v-1l1,-1v-1l1,-1h1h-2l-1,1v1l-2,1l-2,2v1v-1l5,-5v-1l1,-1h1l1,-2h-1h1h-1v-1h1v-1l2,-2v-1h1l1,-1l1,-2v-1h1v-1h2v-1h1v-1h1v-1h1v-1h1v-1h2l1,-1v1l1,-1v-1l2,-1l7,-7h-1l-1,1v-1h-1l-1,1h-1v1l-1,1h-1v1h-2v1h-1v1h-1l-3,3h-1l-2,2h-1v1l-2,2h-1v1h-1h1h-1l-2,2v1h-1v1h-1v1l-4,4v1h-1l-1,1v1h-1v1h-1v1l-2,2v1h-1v1l-1,1l-1,2l-3,3v2l-1,1h-1v1h-1v1l-4,4v1h-1l-1,2h-1h1v-1l-1,1v1l-4,4l1,-2v-1h1v-1h1v-1l3,-3v-1v1h-1l-4,4v-1h1v-1h1v-2h1v-1h1v-1h1v-1l2,-2v-1l1,-1h1v-1l1,-1v-1l1,-1h1l-1,1v1v-1v1v-1h1v-1h1v-1h1v-1l2,-2v-1l2,-2v-1h1l-1,1v-1v1h-1v1v-1l1,-1v-1h1v-1v1v-1v1v-1l1,-1l-1,1l11,-11v-1h1l7,-7h1l1,-1v-1l4,-4h1l6,-6h1l4,-4h1l1,-1v-1l3,-3h1l4,-4h1l4,-4h1l3,-3h1l4,-4h1l1,-1h1l2,-2h1l4,-4h1l2,-2h1l3,-3h1l3,-3h2l3,-3h1l2,-2h1l2,-2h2l3,-3h1l2,-2h1l1,-1h1l2,-2h1l1,-1h1l1,-1h1l2,-2h1l1,-1h1l1,-1h1l2,-2h1l1,-1h1l1,-1h1l1,-1h1l2,-2h2l1,-1h1l2,-2h1l1,-1h1l1,-1h2l1,-1h1l2,-2h2l1,-1h1l1,-1h1l1,-1h1l1,-1h1l1,-1h1l1,-1h2l1,-1h1l1,-1h1l1,-1h2l1,-1Z"/>
<path class="sp" d="M315,36l1,-1M138,155l11,-11v-1h1l7,-7h1l1,-1v-1l4,-4h1l6,-6h1l4,-4h1l1,-1v-1l3,-3h1l4,-4h1l4,-4h1l3,-3h1l4,-4h1l1,-1h1l2,-2h1l4,-4h1l2,-2h1l3,-3h1l3,-3h2l3,-3h1l2,-2h1l2,-2h2l3,-3h1l2,-2h1l1,-1h1l2,-2h1l1,-1h1l1,-1h1l2,-2h1l1,-1h1l1,-1h1l2,-2h1l1,-1h1l1,-1h1l1,-1h1l2,-2h2l1,-1h1l2,-2h1l1,-1h1l1,-1h2l1,-1h1l2,-2h2l1,-1h1l1,-1h1l1,-1h1l1,-1h1l1,-1h1l1,-1h2l1,-1h1l1,-1h1l1,-1h2l1,-1h1"/>
<path class="sl" d="M21,364v-1h1h-1ZM18,377v1ZM19,375h-1h1v-1ZM36,379h1l1,1l-2,2h-1v-3ZM319,375v3h-1v-2l-1,-1h1ZM339,389h-1l1,-1ZM344,374l-1,1v-1ZM349,289v-1ZM355,286l-1,1v-2h1ZM355,288h-1l1,-1ZM351,289h-1v-1ZM818,600l-1,2h2v-2l1,1h-1v1h1l-1,3h1h-1v1h-2l-1,-1v-6l1,-1v1ZM820,611l1,1v1h1v1h-2v1h-1v-4l-1,-1l1,-1h1ZM825,617h-2v-1l1,-1v1ZM825,613h-2v-1h1l1,-1v1ZM824,623v3h-1l-1,-1h1h-1v-1l1,-1ZM824,605v1h-1l-1,-1l2,-1h1ZM825,610v-4h1l-1,3ZM826,604v1v-2ZM819,607v1l-1,-1ZM824,595h-1v-1h1ZM824,592h-1v-1l1,-1v1ZM827,646v1l-1,-1ZM826,641h-1v-2h1v1ZM827,636h-1l-1,-1v-2h1v2ZM188,163h-1h1v-1h1ZM190,163v-1h1ZM802,423v1l-1,-1ZM606,381v-1h1v1ZM768,409h-1v-1h-1l1,-1l1,1ZM845,422v-1h1v-1v1h-1ZM839,409h-1v-1ZM856,412h1v1h1h-1ZM853,411l1,1h1h-2ZM662,305v1ZM663,343h-1ZM663,311v-1h1v1ZM666,335h-1v-1h1ZM665,336v1v-1h-1ZM659,350h-1v-1l2,-2v1l-1,1ZM934,607v-1h1h-1ZM773,84h1ZM777,86h-1ZM776,85v1v-1v1v-1h-1ZM775,90h-1v-1ZM763,96h-1v-1ZM698,46h3l1,1h3v1h-1h1v1v-1h-2v-1h-2l-1,-1v1h-1v-1h-2v-1ZM729,60h2l1,1h1l1,1h-1h1h-2l-1,-1h-1v-1h-1v-1v1v-1ZM763,75h1h-1h1v1h2v1v-1v1h1v1h2v1h1h-1v-1h-1h1v1l-1,-1l-2,-1h-1v-1h-1v-1v1h1l1,1l-1,-1h-1v-1v1v-1h-1l-1,-1v1h1h-1v-1ZM771,84l2,2h1h-1v1h-1v-1h-1v-1h-1v-1v1v-1ZM768,78l1,1v-1ZM759,72h-1ZM763,75l-1,-1v1ZM776,83v1v-1h-1ZM772,81l-1,-1ZM772,81l-1,-1h1ZM773,84h1v1l-1,-1h-1v-1v1ZM774,86v-1h-1h1ZM776,88v-1h-1h1ZM775,85h1v1v-1h-1l-1,-1ZM773,88h-1v-1ZM773,88l-1,-1h1ZM750,69l-1,-1ZM717,57l1,1h1h-1l-2,-1h-1h1ZM744,72h-1ZM773,93h-1v-1v1ZM772,94v-1ZM770,95h-1v-1h1ZM748,75h1ZM762,96h1h-1v-1ZM762,95h-1v-1h1ZM760,96h-1v-1h1h-1h1ZM746,93h-1ZM752,96h-1l-2,-1h-1h2v1h1ZM727,90v-1h-1h1ZM760,73h-1h2v1v-1v1h1h-1h1h-1l-2,-2v1ZM773,91l1,1v1v-1h-1v-1h-1v-1h1ZM773,89l-1,-1h1v1h1v1h1v1h-1v-1h-1v-1v1h1v-1h-2v-1h-1h1ZM768,95h1h-2ZM765,95h-1h1v-1h-1v-1h1v1h1v1ZM761,95h1v1h-1h1l-1,-1h-1ZM759,96h-1v-1h-2v-1h1v1h1v1ZM750,94h-1v-1h1ZM742,93v-1v1h1ZM721,86h1v1h1h-3v-1ZM964,331l-1,-1v-1l-1,-2l-1,-1v-3l-1,-1v-1l1,2l1,1v1h1v2h1v1l-1,1v1ZM954,312h1l1,1h-1v-1h-1v-1ZM957,314v1l1,1v1l-1,-1v-1l-1,-1v-1v1ZM953,309v1h-1h1h-1v-1l-1,-1v-1l1,1v1Z"/>
<path class="sl" d="M948,305h-1v-2h1v1ZM946,305h1h-1v-1ZM956,315v1v-2ZM103,541v1v-1l-1,-1l1,1v-1ZM66,285h-1v-1h1v-1v1ZM64,285v-1ZM67,285h-1l1,-1ZM69,282v1ZM128,179l1,-1v-1h1h-1ZM900,662l1,-1v1h-1v-1ZM912,641v1h-1v-1ZM901,663v1ZM308,364v1ZM307,362h-1v-1h1ZM273,398l-1,1v-3l1,-1v2ZM287,382v-1h-1h1ZM287,383v1h-1v-1ZM282,409v-2ZM275,397h-1v-1h1ZM273,388v-1ZM278,400v1ZM4,551v1v-4l-1,-1l1,1v1ZM3,540v3l1,1v1l-1,-1v-2ZM6,567v-1ZM191,157h-1v-1h1ZM186,164h-1v-1v1ZM462,273v2l-1,1v2h-1v-2l-2,-2h-1v-1v1v-1l-1,-1v-2h-1v-2h1v-3l4,-6l1,-2h1v-1l1,-1v-1h1l2,-1h1v-1h1v1h1l1,1v2h-1l1,1v1l-1,2l-1,1v1l-1,1v2l-1,2v2h-1v1l-1,2ZM442,258l1,1h-1ZM147,390v-1ZM146,395v1v-1h-1ZM147,389h2l1,1l2,4v1h1v1l1,2v1l1,1v2l1,3v3h1v4l-1,1v2l-1,1v1l-2,1l-1,1l-2,1l-1,1h-3l-1,-1v-2l-1,-2v-13l1,-1l-1,2h1v-3l1,-3v-2l2,-2v-3h2l-1,-1h-2ZM522,184h-2l1,-1h1ZM517,184v1l-2,-2h2ZM504,187h-1v-1h2ZM506,164v1h-1v-1ZM508,187h-1ZM505,173v-1ZM504,184l-1,1v-1l-1,-1h1ZM505,195h-1v-1l1,-1l2,-1h1l1,1v1h-1l-1,1ZM159,863h-1ZM777,542h-1v-1v1ZM823,572l-1,1v-1ZM819,564h-1l-1,1v-1l1,-1ZM780,571h-1v-1h-2v-1h-1v-1h1l2,2ZM789,553v1l-1,-1v-3ZM773,547h-1v-1ZM780,547h1v1h-1v-1h-1ZM763,539v1l1,2h-1l-1,-1h-1v-2h-1l-1,1v-1l2,-2h1v2ZM766,544h-1l1,-1ZM765,543l-1,1l-1,-1l1,-1h1ZM760,543h-1v-2h1v1l-1,1ZM755,536v-1l-1,-1v-1h1l1,1v1ZM754,538v-2l1,2ZM759,538h-1l-1,-1v-1h2v1ZM749,529l-1,-1h2ZM762,544h-1l-1,-1h2ZM777,549l1,1h3l1,1v1l1,1v1h1l-1,1h-2l-1,-1h-2l-1,-1h-1v-1l-1,-1v-1l1,-1ZM778,543l-2,-2l-2,-1v-1h-1l-4,-4v-1l-1,-1l2,1l3,3h1l4,4h-1l1,1ZM761,531l1,1h-2v-1h-1l-2,-1l-1,-3l-2,-1v-1h1l1,1l2,1l1,1v2l1,1ZM784,541l2,3h-1v1l2,2v3l1,1v1h-1v-2h-1v-1l-2,-2l-1,-3l1,-1l-1,-2ZM789,559l1,1h2v1l1,1v1h1h-4v-1l-2,-1v-2h-1l-1,-1h2ZM315,453h-2v-1h2ZM31,528v1v-2ZM24,353v-1v1v-2h1v-1v1l-1,1ZM929,599h1v1l-1,1h-1v-1l-1,-1h1ZM932,604h-1l-1,-1v-1h1v1h1ZM625,131h1ZM628,130h-1ZM626,131h1ZM557,70h-1ZM608,55v-1h1ZM486,12h-1ZM497,10h1ZM466,5l1,-1v1ZM465,6h1ZM445,7h1ZM443,8h-1ZM461,3h1ZM393,15h-1ZM407,13h-1ZM412,12h1ZM418,11h1h-2ZM399,11h-2l-1,1h-4l-1,1h-5v1h-4v1h-4l-1,1h-3l-2,1h-2l-1,1h-2l-1,1h-1l1,-1l-1,1h-1h1l1,-1h3v-1h2l3,-1h2l1,-1h3l1,-1h4v-1h4l1,-1h4l1,-1h5l1,-1h1l-2,1Z"/>
<path class="sl" d="M365,19h-2l-1,1h-3v1h-3l-1,1h-2l-1,1h-2l-1,1h-2v1h-1v-1h3v-1l-1,1h-1h2l1,-1h1l1,-1h3v-1h3v-1h4v-1h2ZM462,2h1l-1,1h-4l1,-1h2ZM460,3h-1h1v1h-6l1,-1h4ZM464,4h-1h1v1h-7v-1h6v-1h1ZM530,8h2v-1h2l1,1h6l1,1h-5v-1h-1l1,1h1h-12l-1,-1h1l-1,-1h5ZM546,9h8l1,1h-5v-1h-6v-1h1ZM631,22l-1,-1h-1v-1l3,1v1v-1ZM586,73l1,1v2h1l2,2v1h1v1l1,1v3l2,2v1h1v1h1l3,4v1l3,2l1,1v1l2,2v1h2v1l1,1h-1v-1l-1,-1h-1v-1h-2l-1,-1h-4v2l-1,4v2h1v1h1v1h1l3,3v1l1,-1l1,1v1l1,1v2l-1,-1v-2h-4v-1h-2v4h-2v-1l-1,-2v-4l-1,-1v-3l-1,-2l-2,-2v-4l-1,-4l-1,-1v-1l-1,-1l1,-1l-2,-2h-1v-1h-1v-1h-1l-1,-2v-4l-1,-1h1v-1h1v1h1v-1h1v-1h-1v-1l-1,-1h-1h1v-1ZM630,20h2v1h3v1h-1l-1,-1h-2l-1,-1h-1ZM347,24h-1l-1,1h-1h1l1,-1h2ZM695,77l1,1l-3,-1l-1,-1h1l1,1ZM594,19h-1ZM605,24v-1h-3v-1h1v1h2ZM555,8h-1ZM546,7h-1ZM534,15h-1ZM468,5h-2ZM474,6v1h-1v-1ZM442,8h-1ZM445,7h-1l2,-1v1ZM435,7h-1ZM386,16h-1h2ZM391,15h-1h2ZM408,13h-1ZM351,26h-1ZM357,23h1ZM335,34h1l1,-1v1h-1ZM158,139h-1l1,-1ZM328,31h-2l-1,1h-1h1v-1h3l1,-1h1h-1ZM433,5h-1Z"/>
<path class="sp" d="M429,5h4"/>
<path class="sl" d="M451,4h-1h1v-1h3l-1,1h-1ZM457,3h-1h1v-1ZM536,11h-1l-1,-1h2ZM539,11h4v1h1h-8v-1h2ZM522,8h-1v-1h1v1h1h-1h1ZM525,11v-1h-1h1ZM561,70h1l-2,2l-1,-1h-1v-1l1,-1ZM620,23h-3l-1,-1h-1h4v1ZM660,59v-1l-1,-1h1v-1h1v1h1v1h-1ZM689,76h-2v-1h-1v-1h-1l-2,-1h2v1h1l1,1h1ZM659,100h-1v-1ZM662,94l-1,-1v-1l1,1ZM661,95v1h-3v-1h1l1,-1l-1,-1h2v1ZM657,103h-1l1,-1ZM658,93h-1v-1h1ZM655,108h-1ZM652,112l-1,1h-1h1v-1l1,-1ZM642,119h-1l3,-3h2l-2,1v1h-1ZM637,121h-2l-2,2l-1,-1v1l-1,1v1h-1l-1,1v-1l1,-1v-1h1l2,-2v-1l1,1h1l2,-1v-1l1,1v1ZM630,129v1l-1,-1h2ZM625,125h2v1h-2l-1,1v1l-1,1v1l-1,-1v-1h1v-1h1v-1ZM471,10h-2ZM432,5h-1ZM443,4h-1h1l1,-1v1ZM381,17h-1l1,-1h1ZM387,17h-1h2ZM393,16h-1l3,-1l-1,1ZM413,11h-1h1v-1h1ZM344,26l-1,1h-1h1h-1l1,-1h2v-1h1l-1,1ZM62,283h-1h1v-2l2,-4v-1l1,-1l2,-3l1,-1l-1,1v2l-1,2l-1,1v2h-1v2l-1,1v1ZM462,305h1l3,1l1,1h3v-1h1v-1l1,1v2h-1v6h1v1h1v1l1,1l-1,1v1l-2,3v1l-1,1h-1l-2,1v1h-1v3l-1,1v1h-1v1l2,4v2l1,2v1l1,1l2,1h1v-2l2,-2l1,1h2l1,1h1v3h1l1,-1v-1h1l2,1h1l1,1h-1l-1,1h-1v1l1,1h1v3l1,-1v1h2v2l-1,2h-1v-3h-2l-2,-1h-1v-1l-1,-2l-3,-1v-2l-2,-1h-1v2l2,2v1l-1,1l-1,-1v-1l-3,-3l-3,-1h-1l-1,1h-1v1h-3l-2,-2h-1l-1,1v-3l3,-3v-2h-2l-1,-1v4h-1l-1,-1v-1l-1,-1h-1v-3l-1,-1v-5h-1v-4h1v1h1l1,1h2v-1l-1,-1v-3l1,-2v-6l1,-4l1,-1v-2h3ZM428,389l-1,1v-1l1,-1v-1l2,-2h1l1,-1l1,-2h1l3,-3l2,-1l1,-2l3,-3h1v-1h1v-1l1,-1l-1,-1l1,-1v-1l1,-2v-1l1,1v2l-1,1l1,2l1,1v1h-1l-1,1h-1l-1,1v1h-1l-2,1h-1v2l-2,3l-2,2h-1l-1,1v1h-1l-2,2h-2v1l-1,1ZM473,362h3l1,1h1v3h-1v1h-2v2h-1l-1,1h-3l-2,2v-4l1,-1v-3l1,-2l-1,-1h-1v-1h1l2,1h1ZM478,384h-1v-1l-1,-2h-2v-1h-1l-1,-2v-1l1,-1h2l1,-1v-4l1,-1v-2l2,-1l2,1l1,1v1l-1,1v1l-1,1v2h-1v1l-1,1v2l2,2v1l-1,1ZM491,364v1l1,-1h2v1l1,1v2l-1,1h1v1h1v3h1h-1l-1,1v-1l-1,-1v3l-1,-1h-1v-2l1,-2v-1h-1v-1l-1,-1l-1,1h-1v-4l-1,-1h1l1,1ZM496,354l1,1v1h1v1h1v1l-1,1v2h1v1h-1l1,1v2h1v1l1,1l-1,-1h-4v-1h-1v-1l-1,-1v-2h-1v-1l-2,-2h-1v-1h-1v-2l-1,-1h5ZM458,347l2,-1l1,1h2v1l1,1h1v1h-1v2l1,2l-1,1v1h-1v1h-2v-1l-1,-1v-1l-2,-2v-3h-1l-1,-1v-1h-1v-1h2ZM503,381l1,1v1h1v1l1,1l-1,1v1h-1v1h2v2l1,1v4h1v5l-1,1l-2,1v4l-1,1v-4l-1,-1v-1l-1,-1l-1,-2l-1,1v1l-2,2v1l-1,1h1v1h1v1l1,2v2l-1,1l-1,2h-1l-1,-1v-2l1,-1h-1l-2,2l-5,-2l-2,-1l-1,-2v-2l-1,-2v-1l1,-1h1v-3l-2,-2h-1l-1,-1h-2v1l-1,3l-1,-1h-1v-2l-2,2l-1,-1v-1h-2l-1,1l-2,4v1l-1,1h-1v-1h-1l1,-2l1,-1v-4l2,-2h2l1,-1h3v-2l1,-1h2v-1h3l1,1v1l1,2h-1l-1,1h1l1,-1h2l1,-1v-2h1v-1l2,1h1v-3h1v-1h1l1,1h1v-1h3v-2l-1,-4h1l1,1l2,1Z"/>
<path class="sl" d="M480,380v-1l1,-2l-1,-1l1,-2l2,-2v-1l2,-4v-1l1,-1v7l-4,4l-1,3ZM469,302v1h-1l1,-1v-1l1,1ZM466,299h-1v-1ZM470,291h-1l1,-1ZM469,287v1h-1ZM461,409v1h2l-1,1l-1,-1l-1,1v-1l-1,1l-1,-1h1l1,-1ZM426,394v1l-1,-1v-1l1,-1ZM451,372h-1l-1,-1l1,-1l1,1ZM453,358l1,-1v1h1l-1,1h-2l-1,-1v-1h1ZM452,361l-1,1v-1l-1,-2h1l1,1ZM474,372h-1v-1l1,-1v-1h1v1l-1,1ZM491,377v1h-1l-1,1h-4v-1h-1v-1l1,-1h1v-1l1,-1h2v1h2l-1,2ZM453,416v1h-2l-1,1h-1v-1l2,-1h1ZM469,406h-1l-1,-1v-1l2,-1l2,1v1h-1v1ZM503,378v-3l1,1v2ZM500,376v1v-1h-1v-1h-1l1,-1v-2h1v3ZM454,344v1l-1,-1v-1ZM468,346h1l1,1l-1,1v1l-1,-1h-1v-1ZM470,356l-1,2l-1,-1h1l-1,-1l1,-1v-1l1,-1v1ZM474,356h-1l-1,-1h2l1,1ZM480,352v1v-1l-2,-2h-1v-1h1l1,2ZM484,355v1v-1l-2,-2h1v1ZM483,356l2,1l1,2v1l-2,-1h-1v-1h-1v-1h-1l-2,2v-3l1,-1h-1v-1h1l1,1h1ZM489,345v1h-2l-1,-1l1,-1v-2l1,-1v2h1v1ZM470,342l-1,-1v-1ZM469,334h1h-1v3h-1v-3ZM488,370v1l1,-1ZM497,376l-2,-2h1v1ZM476,398h-1v-1l1,1v-1ZM501,401v1l-1,-1v-1h1ZM491,363h-2v-2h1l1,1ZM493,383h-2v-1h1ZM464,301h-1v-1h1ZM450,363h1l-1,1h-1v-1ZM484,365v1h-1v-1ZM471,354v1ZM503,379h-1v-1h1ZM493,362v1v-1h-1v-1ZM428,391v-1ZM483,382v1h-1l-1,-1h1ZM728,507v1v-1h-1v-1l-1,-1v-1h1v-1l-1,-1v-1l-2,-3v-1l-1,-1h-2l-4,-4l-3,-2l-1,-1h-1v-1l2,1l1,1h1l2,2h1l1,1l2,1l2,2v1l6,6v1l-1,1v2ZM720,503h1l1,-1l2,2v4l-1,1h-2v2l1,1l-2,2h-3v1h-1l-1,1v1l-2,1h-2l-1,1h-1l-1,1h-6v-1l-1,-1h-3l-3,-2l-1,-1h-2v-2l1,-1l1,1v-1l1,1h9l1,-1v-2l1,-1h1l-1,1v3h7v-1l1,-1v-1l2,-1v-1h2v-6h2ZM630,542v-3l1,-2v-14l-1,-1v-1l1,-2v-14l1,-2v-17h2l4,2l1,1h1l5,2l3,1h1l1,1h3l1,2h1l1,1h1v1h4v1h1l1,1h1l1,1v1l1,1h2l3,4v5l1,1h3l1,1l5,3h3l3,3v1l1,2h-1v1h-5l-2,1v1l2,4l5,5h1l1,1v1l1,1v2l1,1l1,2v1l1,1h1l2,-1h1v1l1,1l-1,1v2h2l2,1h2v1h-2v1l2,2h1l1,1h4l-1,1h-2v1h1l1,1h-1l-1,1h-1l-1,-1h-2v-1l-1,-1h-2l-1,-1h-4l-1,-1h-6l-1,-1h-2v-1l-1,-1v-1l-4,-4v-2h-2v-1l-1,-2l-2,-2v-1l-1,-1v-1l-1,-1h-2v-1h-2l-2,-1h-3v-2h-3l-1,1v-1l-1,1h-2l-1,-1h-1v-1l-1,-1l1,1l1,4h-1h1h-3v2h-2l-2,1h-2l-1,-1h-1l-1,1l-1,-1v-1h-1v1h1v1h4l1,1h1l2,2v2l-2,2h-2l-2,2l-1,-1h-1l-1,-1h-9ZM689,515h-1l-1,-2v-1h1l2,2ZM673,505h-1v-1h2ZM727,493l-1,1v-2ZM722,491v1l-1,-1v-1Z"/>
<path class="sl" d="M704,478v1h-1l-1,-1v-1h2ZM711,553h1v-1h1l-1,2l-2,-1v-2l-1,-1l2,2ZM706,548h-1l-1,-1v-1l1,-1l1,1v1ZM712,541v1v-3h1l-1,1h1ZM735,565v1l-1,-1l-1,1v-1h1ZM652,537h-2v-1h2ZM682,512l-1,-1v-1l1,-1l1,1v1ZM682,481l3,1h-1l-1,1h-5l1,-1h-1l1,-1h2ZM709,488h-2l-1,-1h-1l2,-1h1l1,1ZM707,547h2l1,1v1h-4l1,-1ZM724,544h2v1h1v1h-3v-1l-1,-1ZM729,566h1l1,1h-3v-1h-1v-1ZM652,539h-1l-2,-2h1l1,1ZM689,484v1h-1v-1ZM721,490v-1h1v1ZM709,557v1ZM734,502v-1ZM750,525v1h-1v1l-1,-1h-2v-1l-1,-1v-2l-2,-2v-1l-1,-1v-1l-1,-1l1,-1v-1l1,1h1v1l1,1v1h1v1l1,1v1h1l1,1h1v2ZM741,514v-3h-1l1,-1h1v3ZM548,435v1ZM577,398h-1v-1l1,-1v-1v2ZM68,314v-1l1,-2l1,-1v1l-1,1v1ZM77,275h-1ZM495,153h-1ZM777,809h2l1,-1h1v-1h1v1h-1v1h-1v1v-1h1v-1h2l-1,1h-1v1l1,-1h1l-1,1h-1l-1,1v1h-1h1v1h-1v1l-1,1h-1l-3,3h-1l-3,3h-1l-1,1h-1v1h-1l-1,1h1l-1,1h1v2h-2v-1h-1h1h-2v-1v1h-1v1h-2l-1,1h-1l-5,5v1h-1l-4,4v1h-2l-1,1h-1v1l-2,1h-1l-1,1h-6v-2h-1v-1h-5l1,-1v-1h1h-2l1,-1h2v-1h1h-1v-1h1v-1h1v1h1v-2l1,-1v1v-1h1l1,-1v1v-1h1l1,-1h1v-1l2,-1l1,-1h2v-1h2l1,-1h1v1v-1l2,-1h2v-1h1l1,-1h1v-1h1l1,-1h1v1v-1h1l2,-2v1v-1l2,-1h1v-1l2,-2v-1l1,-1h2v-1h1l4,-4l1,-2h2l1,-1h1h-1v1h-1v1h1v1l-1,1ZM782,807h-1l1,-1h1ZM730,836l-1,1l-1,-1h1ZM733,833l-1,1ZM731,844v1h-1h1l-1,1h-2l-1,1h-1l1,-1h1v-1h1v-1l1,-1h1ZM808,775v-1ZM803,764v1v-1h1v1h1l1,1v1h-1h2l-1,1v3h-1v4l-1,1v1h-1v1h-1v1h1l1,1v2h1v-1l1,-2v-2h1v-1v4l-1,2v3l-1,-1v1h1l1,2l1,1h2v-1h1l1,-1h1v-1h2v2l-3,3l-1,2l-1,1h-1v1h-1l-1,2l-1,1v-1h-3v1h-1v1h-1v2l-2,1l-1,2l-1,1h-1l-5,5h-1l-2,2h-1l-1,1h-1v-1h-1v-1h1h-1l1,-2l4,-2v-1l1,-2h1v-2l-1,-1h-1v-2l-1,-1v-2h1l1,-1h3v-1h1l1,-2l3,-3v-2h1v-1l1,-1v-2l1,-1v-1v1h1v-1h-1v-4l1,1v-2h1v-1h-1v1h-1v-6l1,-1h1v-1h-1v1h-1v-2h1v-6h1v3ZM710,879h-1v-1ZM706,868h-2l2,-2h1v1h-1ZM807,830h-1v1v-1h-1h1l-1,1v1h-1v-1h1v-1h-1h2ZM804,834v-1ZM927,647l-1,1v-1l1,-1ZM830,476v-1ZM66,661h-1l-1,-1v-3l1,1v1l1,1ZM286,410v-2l1,-1v1l1,1h3v1l1,1h1v3h-1v1l1,1h1v-1l2,-1h1v1h2v-1h1v-1l1,-1v-1h2l2,3l5,5l2,5v2l-1,4v10h1l2,2v1l4,8v1h-2v-1l-1,-1v2l-1,-1l-2,2h-1v-2h-1l-5,-3l-1,-1l-5,-3l-1,-1l-2,-1l-2,-2v-3l-1,-2l-1,-1l-1,-2h-1v-2l-1,-1v-4l-1,-3l-1,-5v-5l-1,-1Z"/>
<path class="sl" d="M430,426h-1l-2,-1l-1,-1h-5l-1,1h-1v-1h-2l-1,1l-1,-1v1h-1l-1,1v2h-1v7l-1,1h-2v1l-1,1v1l1,1v1h-1l-2,2h-1l1,1v2h-1v2h-1v2h-1l-1,-1l-1,1h-4v1h-1v1l-1,-1h-2l-2,-1h-1v-1h-5l-1,1h-1v3h-2l-1,1h-7l-3,1h-2v-1l-2,-1l-1,-1v-1h-2v-1l-1,-1v-1l-1,-1l1,-2v2h1l1,1h4l3,1l1,1h1l1,1h1l-1,-1v-2h1v-2l1,-1v-1h-1v-2h2v-2l2,-2h1l3,-1l5,-1l2,-1h1l1,-2l1,-1l1,-2l3,-2l1,-2l1,-1v-2h2v1l1,1h1v2h2l1,-1v-5h1v-1h1v3l2,2v-4l-1,-1l2,-1l1,-1h1v-1h-1l-1,-1v-1l2,-1h2l1,-1l1,-2v-1l4,-4v-1l2,-3h1v1l-1,1v1h1v-1l2,-2h1v1l1,1v1h1l1,1h1v2h-1l1,1v1l-1,1h2l1,-1h1l1,1h-1l-1,1v1l1,-1h4v1h1l1,1l2,1h2v2l-1,1h-2l-2,1h-1l-1,-1h-1v1l-1,1l3,3h1v1h-4l-1,1h-1l-2,-1l-1,1ZM317,441v-1ZM287,419l-1,1v-2h1ZM284,409v2h-2v-1h1ZM426,400v1v-2l1,-1l1,1l-1,1ZM294,439v-1ZM377,442h-1v-3h1v2ZM432,426h-2l1,-1ZM11,604v1Z"/>
<path class="sp" d="M11,605v-1"/>
<path class="sl" d="M26,598v1l1,1v2l1,1v2l3,11l1,1l1,2v2l1,2v2l1,2v1l-1,-1l-1,-2v-1v3l1,1v2l1,1v3l1,1v5l1,3l1,1l1,4v2l1,2v3l2,7l1,2v2l1,4l2,4l2,8v1l3,6l1,4v1l1,1v2l1,1v1l1,1v2l1,2v1l-1,1v2l1,1h-1l-1,-1h-1v-1l-2,-2v-1l-1,-1v-1l-1,-1v-1l-1,-1v-1l-1,-2l-1,-1v-2l-1,-1v-1h-1v-2l-1,-1l-1,-3l-1,-1v-2l-1,-1v-2l-1,-2v-1l-1,-1v-3l-1,-1v-3l-1,-2v-1l-1,-1v-2l-1,-1v-2l-1,-1v-1l-1,-1v-1l-1,-1v-1l-2,-5v-2l-1,-1l-1,-7l-1,-1v-6h1h-1v-2h1v-1v2h1l-1,-1v-4l1,1v-1h-1v-8l-1,-1v-4l-1,-1v-2l1,1v-7l-1,-1v-5ZM25,607v-1ZM36,636l1,1l-1,-1v-2ZM76,246v-1h1v-1v1ZM867,447h-1ZM866,447v1ZM868,458h-1v-1ZM868,459h-1h1v-1ZM868,465v2h-1l1,-1ZM876,482v-1ZM878,485v1ZM868,462h1ZM847,480h-1ZM945,521h-1ZM931,521v1ZM990,528v1ZM988,541h-1ZM987,475v1l-1,-1l1,-1v1v-1ZM982,456v1v-1v1ZM944,506v1h-1h1l-1,-1v1v-1ZM3,515h-1l1,-1ZM157,142v-1l1,-1v1h-1ZM158,141v-1ZM164,137l1,-1v1ZM554,175h-1v-1ZM587,165h-1v-3h1v1h1v1ZM566,188h-1v-1h1v-1h1l-1,1ZM537,216h-1l-1,-1l1,-1l1,1h1ZM540,215h-1v-1l1,-1v-1h1l-1,1v1ZM533,202h-1v-2h1v1ZM526,189l-1,-1l1,-1v1ZM527,187h-1v-2h1v1ZM522,198h2v1h-2ZM535,200h-1ZM593,119v1ZM595,121l-1,-1h1ZM589,138h-1v-1h1ZM562,186v1h-1v-1ZM598,185v1l-1,-1ZM525,197h-1h1v-1h1ZM528,195h-1l1,-1ZM530,191h-1v-1ZM550,189h-1v-1ZM548,190h1l-1,1v-1h-1ZM530,206v-1h1ZM627,244l-1,-1h1ZM612,127h2l2,1h2l2,-2h1l-1,1v2l2,2v1h2v-1h1v1h-1v1l-1,-1l-1,1h-2l-1,1h-1l-1,-1l-1,1h-1l-2,2v1h-1v2h-1l-1,-1h-3l-3,-2h-4l-2,1h-1l-2,-2h-1v1l-1,1h1v1h2l2,1l1,1h-3v1h-1v1h-2v-3l-1,-1h-1v-1l-1,-1v-1h1l1,-1h1v-2l-1,-1h2l1,1h3l1,-1l-1,-1v-1l1,-1v-5l-2,-2v-2h2l1,1l2,1l2,2h1l2,1l1,1l2,1h1v1ZM540,192h4v1l-1,1v1h2v1h1v2l-2,1v2l-1,1v4l-1,2h-1v-1h-1v2l-1,1h-1v-2l-1,-1v-1h1v-1h-1v1h-1v2l1,1h-2l-2,-2h1l1,-1l-1,-1h-1l1,-1h-1v-1h1v-1h1v-1l1,-1v-1h-1l1,-1l-2,-2v-1h-1v2h1v2l-1,-1h-2v1h-1v-1l-1,-1v-1h1v1h2l-1,-1h-1l-1,-1v-1h1v-1h2v-1h2l2,-2h2l1,1v1ZM562,188h2l1,1v2l-1,1h-1v1l-1,1v1h-1l-1,-2h-2l-3,1v1l-1,1v1l-1,1h-2v-1h-1v-1h-1h1v-2h-1v-1l-1,1h-1l1,-1h1l2,-2v-1l1,-1h1v1h4v-2h2v-1h1l1,1ZM601,143h1v1l1,2v1l1,1h1l1,1l1,2v1h1v6h-1v3h-2l-1,1v3l1,1v5h-1v6l1,1h1v1h-1l-1,1v2l-1,1h-1l-1,1h-1v-3l1,-1v-1h-2v1l-1,1h1v2l-2,-2l-1,1h-1v3l-1,1h-1v-2l1,-1h-3v1h-1v1l-1,1h-8l2,-1h-2v-1h-1v1v-1l-1,-1h1h-2v2h-1l1,1l2,1v1h-2l-1,1h-1l-2,4h-3l-2,-2v-1h-1v-2l2,-2l-1,-1h-8l-1,1h-3l-1,1h-2v1l-1,-1l-2,1h-2v-1h-1l-1,1v3h-1l-2,-2h-3v1h-1l-1,-1h-1v-2h3v-1h1l1,-1h1l2,-2h1l4,-4h3l1,1l1,-1l1,1h1l1,-1h6l2,-1h1v1l2,1h1l1,-1h1v-4l1,-1h1l2,-2v-2l-1,-1l1,-2h3l-2,2v1h1v1h1v1h1v-1l1,-1h3l1,-1h1l2,-2v-1h1v-1l2,-1l1,-1v-1l1,-1v-2h1v-3l1,-1v-2h-1v-1h-1l-1,-1h1v-3l-1,-1h1v-1h1l1,-1l-1,-1l1,-1v1h1l1,2h1v-1l2,1v-3l-1,1h-2v-2h2Z"/>
<path class="sl" d="M489,258v1l-1,1v-1h-1h1ZM486,260h-2l1,-1h1ZM498,256v1h-1v-1ZM520,242h-1v1h-1v1h-1v2h-2l1,-1v-1h1v-1h1v-1h-1h2l1,-1v-1l1,1v1ZM526,234h-1v-1h1ZM529,231h-1l-1,-1l1,-1h2l1,-1v1h-1l-1,1ZM528,231h-1ZM603,197h-1v-1ZM82,262v1l-1,1h-1v1h-1l2,-2v-1l1,1v-1h1ZM264,453l2,3l1,1v4h-2v-2l-1,-1h-1v-1l-1,-1l-1,-2h1l1,-1ZM277,481h-1l-1,-1h-1v-1l-1,-2v-3h2v1l1,1v1l1,1v1l1,1v1ZM422,537l-1,2h1v1h-3l-2,-1h-1v-1l1,1l1,-1v-1l-1,-1l2,-2h4v1ZM412,533l2,2v1h-1l-2,1v2h-1v-1l-2,-2h-1l-1,-1h-1l-1,-1v-1h1l2,1h1v-1h3ZM332,478v1h1v1l2,5l4,1h-1v1h-1v3h-2v-1h-2l-1,-1h-1v-3l-1,-1v-1l-1,-1h-4v-1l1,-1h1v-2l1,-1l1,1v1l1,-1l-1,-1h3ZM478,501l1,2l-1,1v-1h-1v4h1l1,1h-1v1h-2v2h-2l-1,-1v-1h1v-2h1v-5l1,-2h1ZM474,508h-1v1h-1v-1l-1,1v-3h1l-1,-1v-2h2l1,-1h1v3l-2,1ZM351,431l-1,1l-1,-1h2v-1h-2v-2l1,-1h1l1,2v1ZM350,489v2h-2l-1,-1v1h-2v-4l2,-2v1h2l2,2ZM584,468h3v1l1,-1h1l1,2l1,1h1l1,1h-1l-1,1l-1,-1h-2v-1l-1,-2v1l-1,-1h-1ZM585,476h4l2,1h5l1,1h-1l-1,1h-3l-1,-1h-1l-2,-1h-3ZM545,462h2l2,1v2h-3v-1h-1l-1,-2h-1v1h1v1h1l1,1l-2,1v-2l-1,1l-1,-1h-2v-1l1,-1v1l1,-1h2ZM524,444h-1l-1,-2l1,-2l1,-1h2v3l-1,1ZM522,476h-1v1l-1,-1h-2l-2,1v-1h-1v-1l2,-2h1l1,1l2,1ZM503,483l-1,-2v-2h1v3ZM503,477h3l-1,1h-7v-1h2ZM494,476l1,1v-1h1v1h1v1h-4l-2,1h-2l-1,-1l1,-2h2ZM549,531v1l-1,-1h-1v-2h1v-2h1v-1h1v-1h1v-1h1v3l-1,1v1h-1v1h-1ZM510,528v1h-1l-1,1h-1v1h-3v-1h-1l-1,1h-1v-1l2,-2l1,1h2l1,-1h2ZM491,533h4v1l-6,1v-2h1ZM546,473h-1l-1,-1v-2l2,-1v1h1v2ZM257,421h9v1l2,2v1l1,1l1,2h1l-1,2h1l2,2h1v1l1,1l7,4l1,1v1l2,2l1,2l1,1v1h1v1h1l1,1h1l-1,-1v-2h2l1,2l1,1v1l1,1h2l4,4v2l2,2h3l1,1h1v1l-2,2l-2,1l2,-1h1l1,-1l2,-1h1l2,2v1l1,1l-1,1h-1l-1,1v3l1,2l1,1l2,1h3v1l1,1v3l1,1v2h1l1,1v2l-1,1v2l2,-2h1l2,-1l1,1h1v1l3,3l1,2v1l-1,2v20l-1,1l-1,-1v-1l-2,-1v1l-2,1h-1l-3,-2v1l1,2l-1,1l-4,-4v-1l-3,-3l-3,-2l-1,-1h-1l-2,-1l-3,-3l-1,-2l-2,-2v-1l-3,-2l-1,-1h-1l-1,-3l-2,-2h-1l-1,-2v-1l-1,-1v-2l-3,-5v-2l-1,-3l-2,-2v-1h-1l-1,-1l-1,-2v-1h-1l-2,-1l-2,-2v-2l-2,-7l-1,-2v-1l-1,-1l-3,-2h-1l-1,-1h-1l-1,-2v-3l-2,-1v-1h-1v-1l-2,-3l-1,-1h-2l-2,-2v-1l-2,-1l-4,-5v-1l-1,-3v-3h4v1l2,1l1,1ZM475,537h-2l-1,1h-3l-2,1h-2l-1,-1l-1,1h-2l-1,1l-4,-2l-2,1l-2,-1l-1,1h-1v-1l-1,-1l1,-1v-1h2l1,-1h6l1,1h1l1,1h2v1v-1h4v-1l1,1l2,1h1v-1l1,-1h1l1,-1h1v-1h-1v-1h1l1,1v1l-2,2h1Z"/>
<path class="sl" d="M451,543l3,3h2l1,1v1h1v2l-1,1h-4l-3,-3l-2,-1h-2l-3,-1v-1h-1l1,-1h1l1,-1h3l1,1l1,-1ZM436,534v1h1l1,-1h2v1v-1h2v1l1,1v1h1l-1,1h-2v1h-4v-2l-1,2h-1l-2,1h-3l-1,1h-5v-5h2l1,-1h3l1,1v1h1v1h2l1,-1h1l-1,-1h-1l-2,-1v-2h1v-1l2,1ZM493,453l-2,2v1l-1,1h-1v1h-3l-3,1h-4l-2,-2h-7l-1,1h-3l-1,-1h-2l-5,1l-1,-1h-2l-1,1h-1l-1,1v1l-1,1v6l2,2v1h1l1,1l1,2v1h4l1,-1v-1l3,-3h1l1,1h2l1,-1h1v-1h5v-1h5v3l-1,1v-1l-1,-1h-2l-2,2v1l-2,1l-1,2h-1l-1,1h-2l-1,1v1h-4v1h2v1l1,1h1l1,1l1,2v1l1,1l2,1v2l1,1h-1v1l-1,1v1l1,1h1l1,1v1l1,1h2v3h-1l-1,-1v1h-2l-2,1h-1v2l-1,1h-2l-2,-2v-4h1v-1h-1l-1,-1h-1l-4,-4l2,-2v-4l-1,-1h-3l-2,2h-1v2l1,1v13l-1,2v2l1,2v1h1h-5v1h-3l-2,-2v-1l1,-1v-1l1,-2v-7l-1,-2v-3h-2l-2,1l-1,-1v-2l-1,-1v-1l1,-1l-1,-1v-1h1l2,-2v-3l1,-1h1v-6l1,-3l2,-2h1v1v-3l-1,-3v-1h1v-2l1,-2l1,-1v-2h1l1,-1v-1l2,2l3,-3v-1l1,-1h1l1,1h2v1h4l2,1h5l1,1h1l1,-1l2,1h6l3,-1l1,-2h1v-1l1,-1h1l2,-2h2v2h-1v1l-1,1v1ZM344,516l2,2h6l1,1v1h1v2h1l1,1h5l1,-1v1h8l1,-1v-2h1v-1h2l2,2h4v1h3v1h4l1,1v2h1v1l2,2l2,1h5l1,-1h1l3,1l1,1v1l-1,2v2l2,2v1l-1,-1h-1l-1,-1l-1,1l-4,-2l-3,-1h-3l-1,1h-2l-2,-1h-11l-2,-1h-2l-6,-3l-6,-1h-5v1h-5l-1,-1h-1l-1,-1h-2l-2,-1h-5l-1,-1l1,-1v-1l-2,-1h-7v-1l-1,1v-2h1v1h1v-1h1v-1l1,-1l1,-3v-1h1v-1l1,1h4l1,1h1l1,-1v-1h1ZM362,445l-1,2l1,1v1l1,1v1h2v1l1,1l2,1v1h2l3,-1h7l1,-1h2v-3h1l1,-1h5v1h1l2,1h2l1,1v-1h1v-1h4l1,-1l1,1h1v-2h1v-2h1v-2l-1,-1h1l2,-2h1v-1l-1,-1v-1l1,-1v-1h2l1,-1v-7h1v-2l1,-1h1v-1l1,1l1,-1h2v1h1l1,-1h5l1,1l2,1h1h-1v1h1v1l1,1v1h-5l-1,1h1l2,1v2l1,1h1v2h1h-1v1h1l1,1v1l2,1v2h-1l-1,1h-1l6,6h2l3,3l-2,2h-4l-1,-1h-1l-1,-1v-1v3h-2v1l-2,3v9h1l-2,2h-1l-3,3h-1v-1l-1,-1v1l1,1v1h-2v2h-1l-2,2h2v2l-1,1h2v3h-2v4h-1v2h-1v1l-1,1v1l-6,3l-5,3v-1h-1v-6l-1,1h-1v-2l-1,1l-1,-1l-1,1l-2,1l-1,-1v-2h-1l-1,1h-1l-2,-3l-1,2l-2,1l-1,1h-4l-2,2v-2l-1,-3v-1h-1v1h-1l-1,-1l-1,1h-2l-1,1l-1,-1l1,-1h-1l-1,1l-1,-1h-2v1h-1v-3l-1,-4v-2l-1,-1v-5l-3,-3h-3v-2h1l-2,-2v-4h1l-3,-3v-7h1l1,-1h-1v-2l2,-2v-1l1,-1ZM518,454h2v-1l1,-1h1v-3l2,-1h2v1l1,1l-1,2l-1,1l-2,1v1l1,1l2,1v1l1,1h1v1l-3,-1l-1,-1h-3l-1,-1v1h-1v1l1,1l-1,1l1,3l1,2l2,2v1h1h-1l-1,-1h-1l-1,-1l-1,-2l-2,-2l1,-1v-3h-1v-1l-1,-1v-1l1,-1v-1h-1l-1,-2v-1l1,-2v-2h1v-1l1,-1l1,-2h1l1,-1v1l-2,2v1h1v1l1,1v1l-4,4v1Z"/>
<path class="sl" d="M536,487l2,1h3l2,1v2h1v1l1,1v2l-4,-2h-1l-2,-1l-1,-1h-3v1h-1l-1,-1h-3v-1h-2l-1,1v1h-2v-1l-1,-1h-1v-1h-1v2l-1,1h-1l1,-1l-1,-1l2,-3h1l3,-1l2,1l1,-1h1l1,1h1l1,-1h2ZM510,488l2,1v1h1v1h1v2h-1l-1,1h-1l-1,1h-1l-1,-1h-2l-1,-1h-1v-1l-1,-1v-2h3l2,-1ZM494,540h-1h1v1l1,-1l1,1l-1,1h-1v1h1v1l-1,1v1l-3,3h-1l-1,1h-2l-2,1l-1,1h-1v-1h-1l1,-1v-1h-1v-2l1,-1v-1l2,-1v-1h1v1h2l1,-1v-1l2,-1h1l1,-1ZM578,512v1h1l-1,1v1h1l-1,1v1l-1,1l-1,-1h-1l-1,-1v-1h-1v-1h2v-1l-1,-1h1l1,-2v-1h1l1,1v1ZM577,518l-2,2v2h-2l-1,-1l1,-3h1h-1v-2h1l2,2ZM610,535l-2,1h-3v-1l-2,1v-2l1,-2l2,-3l2,-2h5v1l1,1v1l-1,1l-1,2l-1,1ZM632,486v17l-1,2v14l-1,2v1l1,1v14l-1,2v3l-7,-7v-1h-1l1,-1h-2l-1,1h-3l-1,-1v-1v1l-2,2l-1,-1v-1l1,-1v-1l1,-1v-2h-1l-1,-1v-1h-1l1,-1h1l1,1l1,-1h-3l-2,-2h1l1,-1l-1,-1v-1h-1l-1,-1v-1l-1,-2v-3h-1v-1h1h-2v-2h-1v-1h-1l-1,-1l-4,-2v-1v1l-1,-1h-2l-4,-2h-2l-1,-1h-1l-2,-1h-5l-3,-2l-1,-1v-1l2,-1h-2l-1,1l-1,-1h-2v-1h-2l-2,-2v-4h1l-1,-1v1h-1v3h-1v1l-1,1v2l-1,1h-2l-1,1v-1l-1,-1v-2l1,-1l-1,-1v-1l-2,-2l-2,-1l-1,-1h-2v-1h1l1,-1h1l2,1h1l2,-1l2,-2h1l1,1h2v1h1v-2h2l-1,-1v-1h1v-1l-2,1h-4l-3,1l-2,-1h-4l-2,-2v-2l-1,-2l-6,-1h-2l3,-3v-2h1l3,-1h1l2,-2l3,-1h4l1,1l4,2h4l1,1v3h1l1,1v1l-1,1v1l-1,1l1,1v4l1,3l1,2l1,-1v-2h1v4h1l1,-1v3l1,1h2l1,1l1,-1h1v-1l3,-3v-1h1l2,-1v-2l1,-1h2l2,-1h2l1,-1l-1,-1v-1h1l1,-1l4,-2h1l2,2l4,1l1,1h1l1,1h1l1,1l5,2h3l1,1h3l1,1v1ZM613,536h-2l-1,-1h1v-1h1l1,1ZM297,447v1h1l-2,2h-1v-3h1l1,-1ZM303,456h-1v-1h-1v-2h1l1,1v1ZM303,452v1l-1,-1h-2l-1,-1h1ZM308,458h-3l-1,-1h-1v-2h1l1,1h1l1,1ZM309,457h-1l-1,-1h-2v-1l1,-1l2,2ZM310,460h-2l1,-1v-1l1,1ZM311,459l-1,-1v-1h1v1ZM316,454h1l-1,1v1l-1,-1v-1ZM320,454l1,1v1l-1,1h-1v-2h-2l1,-1h1ZM322,466v-1l1,1h1l-1,1l-2,-1h-2v-1l1,-1h1v1ZM319,467l1,1v1h-1l-1,1v-1l-1,-1h1ZM313,467l-1,1h-1v-1l1,-1ZM363,473l-2,1h-1v-2h3ZM398,524h-1l-1,1h-7v-1l1,-1l2,-1h7l1,1l-1,1ZM581,472h-1l-1,-1h1v-1l1,1ZM514,466h-1v-2h1v1ZM517,464l1,2l-1,1v1h2v1h-2v-1l-1,1l-1,-1l1,-1h-1l-1,-1v-1l1,-1l1,1v-1ZM563,513l-1,1l1,-2v-1h1v-3h1v3l-2,1ZM562,513l-1,1v-2l-1,-1h1l1,1ZM523,494h-3v-1h1l2,-1v1ZM510,427h-1v-1l1,-1v-1h-1v-2h1v1l1,1l-1,1Z"/>
<path class="sl" d="M500,432h-1v-2h-1v-1l1,1v1h1ZM545,534l-1,1l1,-1l1,-2l1,1h-1ZM536,531l-1,1l-1,-1v-1h2ZM519,532l1,1h1l-1,1l-2,-2ZM541,476v3h-1v1h-1v-1h-2l-1,-1h-1l3,-1h1l1,-1ZM303,512l-1,1l-1,-2h2ZM287,493v1l-1,-1v-1l-1,-1v-1h1l1,1v1ZM285,489v1h-1v-2h-1l1,-1ZM282,486l-1,-1h-1v-2h1v1l1,1ZM271,470v1l-1,-1l1,-1v-1l-1,-2h1l1,1v2ZM256,446h-1v-1l-2,-1h-2v-3l1,1h1l3,3ZM468,509l-2,-2h1v-1h1v1h1ZM479,472l-1,1l1,1l1,-1v-1l1,1v2h-1v-1h-1v2h-1v-3l-1,2h-2v-2l1,-1h2ZM467,465v1h-2l1,-1ZM455,517v-4l1,1ZM411,523h-1v-1h3v1h-1ZM419,496l-2,1v-2l-1,-1l1,-2v-1l1,-1v2h1v3ZM477,557h-1v-2h2v-1l1,-1h1v1h1l-2,2h-2ZM488,534v1l-1,1h-1v-1h-1v-1h1l1,1l1,-2ZM485,534h-1l-1,1h-1v1h-3l2,-2h-1h2l2,-1h1ZM480,534v1h-3v-1h1l1,-1ZM578,519h-1l1,-1ZM311,455v1h-1v-1ZM314,457v1l-1,-1ZM317,457l-1,-1h1ZM321,464l-2,-2h1l1,1ZM334,436v1ZM330,439h-1l1,-1h-1v-1l1,1h1ZM356,438h-1l1,-1ZM356,477l-1,1v-1ZM344,489h-1l1,-1ZM339,490h-1v-1h1ZM403,525l-1,-1h1ZM389,513l-1,1l-1,-1h1v-1ZM327,522h-1v-1h1ZM263,448l-1,-1h-1h2ZM249,417h-1v-1h1ZM482,476h-1v-1h1ZM479,497l-1,2l-2,-2l1,-1h2ZM484,479l-1,-1h1ZM478,477l-1,1v-1ZM447,538h-1v-3l1,1v1h-1ZM443,534v-1h1ZM414,539h-1v-1h1ZM430,426h3v1h-2ZM430,433v1v-1h-1v-1h2ZM486,514l-1,-1h1ZM482,508h-1h1v-1ZM458,524h-2v-1h2ZM430,535v-2h1ZM420,492l-1,2v-1ZM515,455h-1v-1h1ZM576,481h-1v-1h1ZM569,499h-1l-2,-1l2,1ZM546,468l-1,1l-4,1l1,-1h3v-1ZM543,466h-1h1v-1v1h1ZM534,463h-1l-1,-1v-1ZM516,462h-1v-2l1,1ZM515,456v-1ZM514,468v1l-1,-1v-1h1ZM527,493h-1l-1,-1h1ZM525,493h-1v-1h1ZM509,428l-1,-1h1ZM510,429v-1ZM498,439l-1,-1l1,-1v1ZM555,525h-1v-1h-1h1ZM526,524h-1v-1h1ZM515,528v-1h1v1ZM481,551l-1,1v-2h1ZM468,554h-2l1,-1h1ZM579,518v-1h1ZM578,521h-1l1,-1ZM520,487v1h-1ZM517,490v1h-1v-1ZM477,536l-1,1v-1l1,-1h1ZM239,408l-1,1l-1,-2v-2h2v2ZM238,404l-1,1v-2ZM234,396v1l-1,-1ZM236,399l-1,1v-2ZM237,398h-1v-2l1,1ZM232,389h-1v-1h1ZM231,377h-1v-2l1,-1l1,1v1ZM233,370h-1h1v-1ZM234,369h-1v-4l1,-1v-1h1v-1h-1l1,-2v-3l1,-1v-3l1,-1h1v1l-1,1h1l-1,1v1l-1,1l1,1l-1,2v1h-1v3h-1v4ZM236,364v1ZM235,358v-1ZM19,606v-1ZM63,669h-2v-1l-1,-1v-2h1v1l1,1ZM913,595v-1h1v1Z"/>
<path class="sl" d="M903,603l-1,-1h1ZM975,647h-1h1v-1ZM975,640v-1ZM975,648v1h-1v1v-1l1,-2ZM979,643v1ZM981,636v-1ZM980,639v1v-2ZM792,644l1,1h1v1l3,3h1v3l2,2h1v1l3,3v1l2,2v1l-1,1h-1l-1,-1h-1v-1h-1v-2h-1l-5,-5v-1l-1,-2l-1,-1v-1l-1,-1v-3h-1v-1l1,-1ZM808,665v1l-1,-1ZM766,635v-1ZM813,656h1v1h-2v-2h1ZM806,649v-1l1,-1v1ZM810,653l-1,-1v-1l1,-1h-1v-1h2v1l-1,1h1v2ZM227,863v-1h1v1h1h-1l1,1h1v-1h1l-1,-1h1l1,1v1h1h-2v1h1l1,1l-1,-1h1v1h-3l-1,-1l1,1v1h-1v-1h-1v-1h-1v-1h-1v-1l-2,-2v-1l1,1h1v1ZM227,863v-1h-1h1ZM169,854h-1v-1ZM890,617l-1,1v1l-2,2v1l2,-2v2h-3l-1,-1l-1,1v1h-2v-1h-1l1,-1v-1v1h1l1,-1v-1h3v-1h1l1,-1v1ZM879,627v1l1,1v4h-3v1h-2v-1h-2v-3h1v-2h1l2,-2v1l1,-1h1ZM889,624v-1l1,-1l-1,1ZM889,624h-1v-1h1ZM877,640l-1,1v-1l-1,1h-1h1v-1h1ZM892,635h-1ZM895,633h-1ZM893,627v-1ZM891,643h-1h1h-1ZM874,624v-1h1v1ZM885,627v-1ZM883,633v-1ZM881,630v-1ZM890,620h-1ZM882,585h-1v-1h1ZM886,656v-1ZM21,359v1ZM20,362v1v-1v1v-1v1v-2ZM17,599v1ZM16,601h1ZM15,598v-1l-1,-3v-1v1l1,1v2ZM441,259h-1v-1h1ZM472,207h-1l-2,-1h-1l-1,-1h2v1h2ZM474,218h-1l-1,-1v-1l1,1h2ZM473,220v-1ZM475,218v1ZM454,251l-1,1v-2h1ZM377,286h1v1h-2v-1ZM466,231l-1,1v-1ZM403,272h-1v-1h1ZM396,282v-2h1v1ZM395,281l-1,1v-1ZM380,295h1v2l-1,1h-1l-1,2l-1,1v1l-1,1v2h-2l-2,2l-2,1l-1,1h-2v-1h-4l-1,-1v-2l-1,-1l1,-3v-1h1l3,-3h1h-1l1,-1h2l1,-1h4v-1h2v1v-1l2,1v-1h1ZM402,277l1,-1v1ZM407,274h2v2h-1l-1,-1l-1,1v-1h1ZM408,277l-1,-1h1ZM406,277h-1v-1h1ZM311,368v-1ZM313,372v1l-1,-1ZM274,372v1l-1,-1ZM273,380l-1,1v-1l1,-1h1ZM274,367v1v-2l1,-1v1ZM277,364h-1v-2l1,1ZM277,365v2h-1v-2ZM277,358v1l-1,1v-2ZM274,362l-1,-1h1ZM251,331l-1,1v-1l1,-1h1v-1v2ZM274,328h-1v-2h1v1ZM249,309h-1v-1h2ZM250,300v1l-1,-1v-1ZM251,302v1h1v1h-1l-1,-1ZM276,372v-1ZM273,366v-1ZM274,360l-1,1v-1ZM276,354v1v-2ZM253,332v1v-2l1,1ZM246,300v-1ZM409,420l1,1v4l-2,-2v-3ZM408,420h-1v1h-1v5l-1,1h-2v-2h-1l-1,-1v-1h-1h1l1,-1h1l1,-1h1l1,-1v-1h2ZM238,283h-1l1,-3v2ZM241,281h-1v-2h1v1ZM235,283l-1,1h-1l2,-3v-4l1,1v3ZM242,285l-1,1v-1h1v-1ZM242,287l-1,1v-2h1ZM236,277h-1v-1ZM65,273v1v-1l1,-1v-1h1h-1v2ZM120,177l1,-1v1h-1v1v-1v1v-1v1l-1,1v1l-2,2v-1h1v-2h1Z"/>
<path class="sl" d="M647,567v1l-1,1v1l1,1h1v1l1,1l-1,1l1,1v4l1,1l-1,3v1l1,1v3l1,1h2l1,-1h1l1,-1l1,1v2l4,2v1l1,1v8l1,1l-1,2v1l1,1v1l1,1v1h1v2l1,3l1,2l-1,3l-1,1v1l1,2l1,1v3l2,2h1l2,1l1,1h2v1l2,2h1v1h1l2,2h2l1,2l1,1h-2v1l1,1v1l1,1l1,2v1h1v2l1,1l-1,1v2l1,2v2h1v-1l1,1v-1l1,-1l3,3v-1h1v-1v1l1,1l-1,3v5h1v1l1,1v1l2,1l1,1h1l1,1v2l1,1v1h1l1,1v3l2,2l-1,2l1,1v1l1,1l-2,2v6l-1,1v2l1,3v7l-1,2l-1,1l-2,4l-1,3l-1,1v1l-2,3l-1,1v3l-1,1l-1,2l-1,3l-2,1l-1,2v1h-1l-2,2h-1l1,1h-2l-4,4v1h-1v1h-1v2h-1v1h-1h1l-1,1l-2,1v1l-1,1v2l-1,1v1v-1l-1,1v1h-1l-2,3h-1l-1,1v2l-2,2v2l-1,1v1l-1,2v2h-1v1h-2l-1,1v1h-11l-4,2l-4,3l-3,1h-1v1h1v2h-1v-1l-1,-1h-1v-1l-1,-1h-1l-1,-1l1,-1v-1h-2v1l-2,1v-1h-1h1l2,-2v-1h-1l-3,1h-1h1l1,1h-2l-2,2l-3,1v1h-3v-1h-1l-2,-1l-1,-1h-3l-1,-1h-1l-1,1h-1l-3,-3h-2l-2,-1l-2,-4l-1,-1v-2l1,-2v-2l-1,-2l-2,-2l-1,-2l1,-1v1h1v-2h-1l-1,1h-2l-2,1h-2l1,-1v-1h1l1,-3v-2l-1,-2l-1,-1v-1v1h-1l-1,1v2l-2,3h-3l-1,1h-2l2,-3v1l1,-1h1l1,-1v-3l1,-1l2,-4l1,-1v-2l1,-1v-3l-1,-1v2l-2,2h-1l-2,4h-1l-1,1h-1l-1,1h-1l-1,1l-2,3l-1,1h-1v3l-1,-1h-1l-2,-2h-1v-1h1v1h1v-2l-1,-1v-2l-1,-1l-1,-2v-1l-2,-2h-2l-1,-2v-1h1v-2l-2,-1l-2,-2h-3l-4,-2l-3,1h-1l-3,-3l-3,-1h-3l-1,1l-5,-1l-4,1h-5l-3,2l-9,3h-10l-3,1l-1,1h-1l-4,2l-1,1h-2l-1,1l-1,3l-3,3h-2l-1,1l-1,-1h-2l-4,1l-1,-1h-11l-1,1h-5l-1,1l-1,2l-1,1h-3l-2,2l-3,2h-11l-4,-2l-2,-2h-1l-3,-1h-1v-1h-1v-5h1v1h1l2,-1v-13l-1,-1l-2,-3l-1,-3l-1,-1l-2,-5v-1l-1,-3v-2l-1,-2l-2,-2v-2l-1,-1l-1,-2l-2,-2l-1,-4l-1,-1l-2,-4l-5,-5v-1h1v1v-1h1l1,2v1l2,1v-3h-1l-1,-1l-2,-4h1l1,1h1v3h1v-1l1,2l1,1l1,-1v-4l-2,-2l-3,-5l-1,-2l-2,-2v-2l1,-3v-1l1,-2v-5l-1,-2l1,-2l1,-4l1,-1v3l1,2v1l2,-2l1,-3l1,-1h1l2,-1l2,-2l2,-1l2,-2h1l4,-3l1,-1h4l1,1h1l2,-1h1l2,-2h1l2,-1h2l3,-2h4l2,-1h3l2,-1l4,-1l5,-5v-2l1,-1v-1l1,-1l2,-1l3,-3h-1v-1l-1,-2v-3l1,-2l1,-1h1v-1l1,-1h1v-2l1,-1l1,3l2,2l1,3l1,1h1h-1l1,-2v-2l1,1h1v-2h-1v-1h-1v-1l-1,-1v-1l1,1v-3h1l1,2l1,-1h2l1,1h3v-1h-3v-1l1,-1h1v-2l-1,1v-1l-1,-1v-1l1,-1h1v-1h1v-1l2,1v1h1v-1h-1l-1,-1v-1h2v-1h1l1,1h1v-1l-2,-1v-2h1v-1h2v-2h1v2l1,-1v1h1v1v-1h1v-3h1v-1h-1v-1h1l1,1v1v-1h1v-1l2,2l1,-1v-3h2l1,1l2,1l1,1h1l2,2l1,2l2,1v2l-1,2v2h1v-1h1l-1,-1v-1l1,-1h1v-1h2l4,1v2h1v-2h2l1,1v1v-2h2v-1h-1l-1,-1l1,-1h-2l-1,-1l1,-2l3,-3v-2l1,-1h2v-1l1,-1l-1,-1v-2h1l1,-2h2v-2h1l1,1v-2h2v-1h1l1,-1v1l1,1h3l1,-1v1h1l1,-1h2v1l1,-1v-1h1v-3l1,-1l-2,-1h-3l-2,-2h-1l2,-1l1,1h1v-1l1,1l2,1l1,1l1,-1h1l1,1v1l1,1h2l1,1h3l2,1l1,1h2l2,-1l2,2h3l2,-1l1,-1h1l1,-1l-1,1h1v1h-1l-1,1v1h1v-1h2v2h2v-2l1,-2h1l1,2l1,1h1l1,1l-4,3v2l-1,2h-2l-2,1v5l-1,2l-1,1l-2,3h-1v3h1l3,3l2,1l3,3l1,-1v2h2l1,1h1l1,1l2,1h1l2,2l1,2h1l2,1h1l2,1h1l1,1v1l1,2h2l1,2h2v1h5l1,-1l2,-1l1,-2v-2l2,-3l1,-1l1,-2v-3l2,-6l1,-1v-2l-1,-3l1,-1v-3l-1,-1v-1l1,-2v-1l1,-2v-2l1,-1v-1h2l-1,-1v-1h-1v-1l1,-3v-1l1,1v-1l2,-6v-3h2v-1l1,-1h1v2l1,1v2l1,1v5h1Z"/>
<path class="sl" d="M707,686v-3h1v-2l1,-1h1v-2h-1h1v1l1,1h-1l-2,4l-1,1ZM615,606l-1,1h-1v1h-1v-2l1,-1h2l1,1ZM593,582v1h1v-1l1,1h-1v1l-1,1l1,1h1l-1,1l-1,-1h-3v-2l3,-3ZM541,563l1,1v1h-1l-1,-1l-2,1l-1,-1l1,-1v1l1,-1v-1h-1l2,-2v2ZM542,561h1l2,-1h2l1,-1v1h1l1,1l-1,1v1l-1,1l-3,2l-3,-2l-1,-1v-2l-1,-1v-1h1v1h1ZM403,685v1l-3,-5h1l1,2v1ZM584,761h3v1h-3v1h-2l-1,-1l-1,1h-2l-1,-1h-1l1,-1l3,-1h4ZM633,781h-1ZM632,782h-1ZM686,640h-1l1,-1ZM685,639v-1h1ZM697,667h1v2h-1l-1,-2ZM694,657v-1h1v1ZM690,656v-1ZM707,700l-1,2v-2l1,-1ZM707,699v-3h1l-1,2ZM640,556v1h-1v-1l1,-1ZM641,552h-1ZM640,552l-1,-1h1ZM667,622v2l-1,-1v-1ZM593,561l-1,1v-1h1v-1h1v-2h1l-1,2ZM591,563l-2,1l1,-1l2,-1ZM595,599v1l-1,-1v-1h1ZM593,598v-1h1v1ZM591,598v-1ZM614,611h-1l1,-1h1v1ZM589,582v1l-1,-1l1,-1ZM559,560l-1,-1v-1h1v-1v2ZM496,588l-1,1v-1l1,-1ZM491,595v1h-1v-2h1ZM417,642h-1v-1h1ZM626,798h1v1h2l1,1l2,1h4v-1h4l1,-1h4v3l-1,1v2l-1,1v3h-1v-1h1h-1v-1h1h-1v1h-1v1l-1,1v1h-1v3l-1,1h-1v-1h1v-1h-2v1v-1l-1,-1v2h-1v1l-1,1v-1h-1l1,1h-1v1l-1,1h-1l-1,-1h-3v-1h1h-1l-1,-1v-2h-1v-5l1,1v1v-2h-1v-3l-1,-1v-6l1,-1v1ZM620,793v-3h2v1l-1,1v1ZM646,791l1,2v1l-1,1h-1v-2l-1,-1h1ZM634,817h-1v-1h1ZM640,812v-1h1v1ZM635,816v-1h-1h1v-1v1ZM624,796v1v-1h1ZM647,795v1h-1ZM646,797h-1ZM658,888v1v-1l1,-1v1ZM332,555v1l-1,-1ZM264,572h1ZM264,885h-1l-1,-1h-1h3ZM794,717v1ZM126,170v1ZM340,974h-1v-1h-2l-1,-1l1,1h2l1,1l-1,-1h-2v-1h-2l-2,-1h-1v-1h-2l-1,-1h-1l-1,-1h-2l-1,-1h-1l-1,-1h-2l-1,-1h-1h2l1,1h1l3,1h1v1v-1h1v1v-1h1l2,1h1h-2v-1h-1l-2,-1h-1l-4,-2h-1l-1,-1h-1v-1h-1l-2,-1v-1h-1l-1,-1v-1h-2l-1,-1h2v1h4l1,1l-1,-1h-1l-1,-1h-1l-1,-1h-2l-1,-1h2l1,1h1h-1l-2,-2h-2l-1,-1h-1v-1l-1,-1l1,-1h4l1,1h3v1h1h-1l1,1h2l2,2v-1h-1h1v-1l1,1h2l3,1v-1h18v-1l1,1h1l1,1h2v1h1v1h2v1h1l2,2h2v1h-1v1h1l1,1h2v-1h1v1h1l1,1l2,1h1v1l1,1h1l2,1l1,1h2l1,1l2,1l1,1h2l-2,-2h-2v-2h-1v-1h-1v-1h-1l-1,-1h-1l-4,-4h-1v-2l1,1h3v-1h-1v-2h1v-1h-1v-1h-1l-1,-1v-1l2,-1l1,-1h2v-1h2l-1,-1h1v-1h4l1,-1h1l2,-1h6l1,-1h2l1,-1l1,1h6v-1h10l1,-1l1,1h4l1,-1h2v-2h3l1,-1l2,1h7l5,1l3,1h3l1,1h5l2,-1v-2l2,-1h4l1,-1l1,1h3l2,2h3l2,1l-1,1l-2,1h-2v1h3l1,-1h3l1,-1h3l1,1l1,-1h1l1,1h1l1,-1h3l-3,1h-1h5l2,-1h4v-1h5l1,-1h2v1h1l1,-1h1l1,-1h1l2,1l1,1l2,1h6l3,-3h10l1,-1h1l2,1h1v1l2,-1h5l1,1l1,-1l2,1h3l3,1h5l1,1h3l1,1h1l1,-1h2v1h2l-2,2h-1l-1,1h3l1,-1h3l2,2h-1v1h2l2,1h8l-1,1h5v1h1l1,-1h1v-1h2v2h1v1h4v1l1,-1h1v1h1l1,1h1v1h-1v1h1l-1,1l-1,2h1l2,-2h2v1h5l1,1h3v1h-1v1h1v1h1v1h-1l-1,1v-1l-2,1l-1,1h-3v1h-1l-1,1h-5v-1l-1,1h1v1h-5l-1,1h-1v-1h1l1,-1h-1l-2,2h-1l-2,2h-1l-1,-1l-1,1v-1l-1,1h-2l-2,1h-4v1h1v1h-1l-1,1h-1h1l-1,1h-3v2h-2v1h-1h1h-1l-1,1h-1h2v1h1h-8v-1l-2,2v-1h-1l-4,2h-1l-1,1h-2v1h-2l-1,1h-1v1h-1v1h-1h1l-1,1h1h-1v1h-1h1h-1v1h1h-1h1v1h-1h2v1h-1h1v1h-1h3l1,-1h1h-1h3v-1h3l1,-1h1l1,-1h1v1h-1h1v1h-1h1h-1h1h9l1,-1h5v-1h4v-1h1l2,1h3v-1h5v-1l1,1l1,-1h2l1,-1h3v-1h1l2,-1h4v-1h1l1,-1h3l1,-1h4l-1,1h-1l-1,1h-1h4v-1h1l-1,1h-1h3l1,-1h2l2,-1h-1h2l1,-1h1l-2,1h-1h3l1,-1h4l-2,1l2,-1h4l1,-1v1h-3l-1,1h-2l-1,1h-3l-1,1h-3l-1,1h-3l-1,1h-4l-1,1h-4l-1,1h-4l-1,1h-4l-1,1h-5l-1,1h-4l-1,1h-6l-1,1h-6l-1,1h-7l-1,1h-8l-1,1h-10l-1,1h-15l-1,1h-44l-1,-1h-15l-1,-1h-11l-1,-1h-8l-1,-1h-6l-1,-1h-6l-1,-1h-6l-1,-1h-5l-1,-1h-4l-1,-1h-5l-1,-1h-3l-1,-1h-4l-1,-1h-3l-1,-1h-4l-1,-1h-3l-1,-1h-3l-1,-1h-3l-1,-1h-3l-1,-1h-2l-1,-1h-3l-1,-1h-2l-1,-1h-2l-1,-1h-2l-1,-1h-3l-1,-1h-2l-1,-1h-2l-1,-1h-1Z"/>
<path class="sp" d="M626,984h-2l-1,1h-3l-1,1h-3l-1,1h-3l-1,1h-4l-1,1h-4l-1,1h-4l-1,1h-4l-1,1h-5l-1,1h-4l-1,1h-6l-1,1h-6l-1,1h-7l-1,1h-8l-1,1h-10l-1,1h-15l-1,1h-44l-1,-1h-15l-1,-1h-11l-1,-1h-8l-1,-1h-6l-1,-1h-6l-1,-1h-6l-1,-1h-5l-1,-1h-4l-1,-1h-5l-1,-1h-3l-1,-1h-4l-1,-1h-3l-1,-1h-4l-1,-1h-3l-1,-1h-3l-1,-1h-3l-1,-1h-3l-1,-1h-2l-1,-1h-3l-1,-1h-2l-1,-1h-2l-1,-1h-2l-1,-1h-3l-1,-1h-2l-1,-1h-2l-1,-1h-2"/>
<path class="sl" d="M586,989h-1v-1h2v-1h5v-1h1v1h-2l-1,1h-2l-1,1ZM573,980h1l1,1h-5v-1h2ZM569,982h-1ZM414,940h-3v-1h3ZM334,972h1h-1v-1h-1h1ZM557,994v-1h1ZM570,992v-1h1ZM581,973h1ZM576,975h-1ZM598,970v1v-1h1ZM621,949h-1h1v-1h1v1ZM620,946v1v-1h1ZM620,945h-1v-1h1ZM401,942h2v1h-2ZM410,943h-1ZM421,939h-1v-1h-2v-1h1l1,1h1ZM388,942h-1v-1h1ZM375,947h-3v-1h2ZM376,946h-1ZM372,946h-1ZM372,967v1v-1h-1ZM372,969v-1h-1h1ZM366,963h-1v-1h-1h2ZM308,955h-1v-1h1ZM631,982h1ZM629,983h2v-1h1h-1v1h-1ZM615,985l1,-1ZM623,983h1l1,-1l-1,1ZM613,985h-1h2ZM612,985h1ZM614,984v1h1h-1ZM609,986h1ZM619,984h1v-1ZM615,985h1v-1ZM609,986v-1h1h-1ZM585,990h1v-1h1l-1,1ZM611,985h1ZM567,993v-1h1h-1Z"/>
<path class="sw" d="M11,604v1Z"/>
<path class="sr" d="M11,604v1"/>
<path class="sw" d="M77,275h-1ZM188,163l1,-1h-1v1h-1ZM190,163l1,-1h-1ZM186,164h-1v-1v1ZM191,157v-1h-1v1ZM126,170v1Z"/>
<path class="sh" d="M500,533l-1,1v-1ZM495,544v-1h-1v-1h1l1,-1l-1,-1l-1,1v-1h-1h1v-1l1,-2h1l1,-1h7l3,-1h3l1,-1h1l1,1h1l-2,1l-1,2h-2l-1,1h-1l-1,1h-3l-1,1h-1l-3,1l-2,2ZM486,543l1,-1h2v1l-1,1h-2Z"/>
<path class="sw" d="M10,599v3l1,1v1v-2l-1,-1v-1ZM12,607v1v-1l-1,-1ZM15,620l-1,-1v-3l-1,-1v-3l-1,-1v-1v1l1,1v3l1,1v3h1v4l1,1l-1,-1v-1v1v-2ZM11,604v1Z"/>
<path class="sr" d="M11,606v-4l-1,-1v-2M12,608v-1l-1,-1M14,618v-2l-1,-1v-3l-1,-1v-3M15,622v-2M11,604v1"/>
<path class="sw" d="M423,68l-1,1v1h-1v1h-1v1h-1v2l-2,2h-1v1h-1v-1h1h-2l-1,1h-1h3v1h-2l-2,1h-1v1l-2,1h-2l-1,1h-3v1h-4v1l-2,2h-1l-2,1h-3l-1,1h-2l-1,-1h-1l1,-1h5l1,-1h2v-1h1l2,-1l1,-1h2l1,-1h1v-1h1v-1h2l1,-1h2v-1h1l2,-1l2,-2h1v-1h1l3,-3h1v-1h1v-1l2,-1h2ZM408,79v-1l-1,1h-3v1h1l1,-1h1ZM11,397v-3l1,-1l-1,1v3l-1,1h1ZM229,143v1h-2v1h-1l-1,1h-6v-1h2l1,-1h3v-1h5ZM748,66h1v1h1h-1ZM760,74h2v1v-1h-2v-1h-1ZM16,626v1v-2ZM280,111h-1l-1,1h-1v-1h-1v-1h-2v-1h3v-2h1v-1h1l1,-1h2l1,-1v-1h-1v-1h2l1,-1l-1,1h-1l1,2h-1l-2,1l-1,1h-1l-1,1v1h1h-1l-1,1l1,1h1ZM2,460v1l-1,3v1v-4Z"/>
<path class="sr" d="M1,470v-9l1,-1"/>
<path class="sw" d="M449,195l-1,1v1h-4l1,-1l1,1v-1h-3v-1h2l1,1v1l1,-1h1l-1,-1h-1l1,-1h2l-1,-1v-1h1v1h1v2l-1,1ZM369,89h-1v1l-2,2h-1v1h-2l1,-1l1,-2l1,-1h1v-1h2ZM324,96v-1h2l2,-1h1l-1,1h1v1h-1l-1,1h-3ZM544,120v1l-2,2h-1l-1,-1v-1l-1,-1v-1h4ZM324,358v-1h-2l-1,-1v-1h-1l-2,-2v-2h1l3,3v1h1l1,1l-1,1h1ZM331,173v2h-3l-2,-1h-1v-1h1v-2h3l1,1v1ZM348,29h-1ZM88,219l1,-1v-2l1,-1h1l-2,2v1h-1ZM83,226v1v-1h1v-1l1,-1v-1v1l-1,1v1ZM111,190h-1v1l-1,1v-1l2,-2v-1h1v-1l1,-1v1h-1l-1,1v1l-1,1ZM155,157l-1,1h-1v1h-1l1,-1v-1l3,-3h1l-1,1v1h-1ZM283,78h1v-1h1v1v-1h2l-1,1h-1v1v-1h-2l-1,1v-1ZM260,123h-1l-1,-1v-1h1v-1h2v2h-1ZM451,101v-1h-1l1,-1h1l2,-2h1v1h1v1l-1,-1v1l-2,1h-1v1ZM462,210l-1,1h-3v-1l-1,-1l2,-2h2v1h-1v1h1v1ZM761,74l1,1h1h-2v-1h-1ZM692,39h1ZM251,220v-3h2v1l1,-1h2l-2,2h-1ZM601,23l-1,-1h-1h2ZM347,30h1v-1h1h-1v1ZM360,24h-1ZM360,24h1ZM361,24h-1h1l1,-1h-1ZM269,145h-3l2,-2v1h1ZM432,224h-2v2h-1v-1l-2,-1v-1h-1l2,-2v-1h1l-1,1v2h1v1h1v-1h2ZM431,217v1h-2v-1h1ZM429,218v1h-2v-1h1v-1ZM415,217l1,-1v-1l1,1v1h-1ZM248,211l-1,1h-1v1v-1h-1h1h-2v-1h2v-1h2ZM319,107h-1l-1,1h-1l-1,1h-1v-1h1l1,-1h1v-1h1l-1,1h2v-1ZM800,793v1h-2l2,-2l1,1ZM111,187v-1h1h-1h1v-1l1,-1h1v-1h1v-1v1h-1v1h-1v1h-1v1ZM442,11h1h-1v-1h3v-1h-1h1v1h-1h8v-1h2v1h-8v1h-1v-1h-1v1h-1ZM562,15h-1ZM266,172h-2v-1h3v1ZM316,308h-1v1h-1v-2h1ZM454,198h-1v1h-1v-2h1v-1h1h-1v-1v1h-1v-1h2v2ZM393,22h-1h1l1,-1h1h-1v1ZM1,532v-1v2ZM4,441v2l-1,1v1v-2l1,-1ZM733,60l1,1h1h-2ZM430,217v-1h1v1ZM453,106l-1,-1h1l1,-1v2ZM212,216v-1h-1l1,-1v1h1v1ZM231,216v1h-1v1l-1,1h-1v-1h1l2,-2v-1h1v1ZM284,86h-1v1h-1v-1h1v-1h1ZM262,87v-1v1v-1h1v1ZM299,74h-1ZM756,824v1h-1v1h-1v1v-2l1,-1h1h-1v1h1ZM543,13h-1v1l-1,-1h1ZM251,231h-1l-1,1h-1l1,-1v-1h-1l1,-1l1,1v1ZM276,73h-1v1h-1l1,-1ZM262,76h-1v1h-1l1,-1ZM593,20l1,1h-1v-1h-1ZM599,22h1ZM449,208v-1h-1h2ZM408,219v1h-1v-1ZM443,207h-4l-1,-1h4ZM125,171v1h-1v1l-1,1v-1h1v-1h1ZM419,216h-1v1v-1ZM417,213h2l-1,1ZM440,186h-1v-1h1ZM417,216v-1h-1h2v-1v2ZM415,218h-1v1l-1,-1h1v-1v1ZM413,219h-1v-1h1ZM271,184h-1ZM79,239h-1l1,-1v-1v1h1ZM696,42h-1ZM728,57v1v-1h-1ZM732,59h-1ZM748,67h-1v-1v1ZM743,64h-1v-1v1Z"/>
<path class="sw" d="M740,63v-1v1h1h-1v-1ZM745,65h1v1h1h-1l-1,-1h-1ZM327,102h-4v-1h4ZM226,218l-1,1v1h-1l1,-1h-2v-1h2ZM14,395v-1ZM528,602l-1,1h1h-1v1h-1v3h-1v-1h-1v-2l1,-1v-1h1v-1v1h1ZM309,187h-2v1v-2h1v1ZM306,186v1h-1v1l-1,-1v-1h1ZM205,150l-1,1h-2v-1h2ZM199,222v1l-1,-1h1v-1h1h-1ZM201,222h-1v1v-2h1ZM174,137l2,-2h1v-1l1,-1h1v-1h1v-1h1l-1,1l-2,1l-5,5l-1,2h-1v-1l2,-1ZM186,130v-1h1v-1h-1l2,-2v1h-1h1l1,-1h1l-1,1h-1h2v-1h1l-1,1h-1v1l-1,1h-1ZM183,130l1,-1h1l-1,1ZM251,119v-1l1,1h-1v1h-1l-1,1h-2l-1,1v-1l-1,1v-1h-8v-1h-1v1h-1v1v-1v1h-2l-2,2h-1v1h-2v1h-1v1h-1l-1,1v1l-1,1h-1v1v-1h1v-1h-1v-1h1l-1,-1h1l1,-1h-1h2v-1h1v-1h2v-1l1,-1h1l1,-1h1l1,-1h8l1,1v-1h4v1v-1h1v-1h2ZM280,111h-1l-1,1h-1v-1h-1v-1h-2v-1h3v-2h1v-1h1l1,-1h2l1,-1v-1h-1v-1h2l1,-1l-1,1h-1l1,2h-1l-2,1l-1,1h-1l-1,1v1h1h-1l-1,1l1,1h1ZM214,91h1l1,-1v-1h1l1,-1h1l1,-1h1v-1h1l1,-1h1v-1v1v-1h1h-1h3v-1h1l1,-1h1h-1l-1,1l1,-1h1h-1l-2,2v-1v1h-1l-2,1h-1l-1,1h-1v1h-1l-1,1h-1v1h-1l-1,1h-1v1h-1h1l1,-1v1h-2v1h-1v1h-1l1,-1l-1,1h-1v1h1h-2v1h-1h1v-1h1v-1h1l1,-1ZM277,445h-3v-1h-1l1,-1v1h1v-1h-1v-1h-1v1v-1l-1,-1h2l1,1v1h1v1h1ZM752,827v1h-1l1,-1v-1l1,-1l-1,1ZM750,828v-1l1,-1v1v-1v1ZM388,77l1,1h-2v1l-1,1v-1l1,-1v-1h-1h1v-2h1v-1h1v-2h1l2,-2v-4h-2v1l-1,-1v1h-2v2h1l-1,1h1h-1v1h-1h1v-2h1h-2l-1,1v-1h1v-1h-1v-1h-1h3v-1h4v-1v1h2l-1,1v1h1h-1v2l-2,2v1l-1,1v1v-1l-2,2h1ZM398,24h1v1h-2ZM398,24h-1h2ZM396,22l-1,1h-1l1,-1h2ZM86,222l-1,1l2,-2h-1ZM182,156h1v1h-1ZM442,40h1v-1h-3v-1h-1h1h-2l1,-1h2l1,1h-1h1v1h1v-1h1h-1h1v1l1,-1h1v1h1v-1h-1l1,-1h1v1h-1l1,1h-1v1h-1v-1h-1h1v-1h-1v1h-1v1h-1v1h1h-1v1h-7l-1,1h-1h1v-1h6l1,-1h-1v-1l1,1ZM573,77v1h-1v-1ZM661,39h1h-1h1h-1v-1ZM573,180h2v1l-2,1v1v-2ZM755,70v1h1h-1v-1h-1ZM730,58h-1ZM744,64l-1,-1h1v1h1l1,1l-1,-1ZM731,58v-1h-1h1ZM731,58v1h1h-1ZM725,56l-1,-1ZM717,51v1ZM318,97h-1ZM259,198v1l-1,1h-1v-1h2v-2ZM255,199h2l-2,2v-1ZM177,215v-1ZM262,209h-1l1,-1ZM237,211h1v-1v1ZM195,200h1v1h1v1h-1v-1ZM236,101h1h-1l-2,1v1h-1l-1,1v-1l1,-1h2ZM234,93l1,-1h1v-1h1l-1,1h-1v1h-2ZM477,665l-2,-2l1,-1h2v3ZM524,657l-2,-1l-1,-1h1v-1h2l3,-3h2v1l-2,1l1,1h1v1h-1l-2,2h-1ZM575,735v-2l1,-1v-1l-1,-1v-1h-1v-2h-1v-1l-1,-1h1l1,1h3v2l1,1v5h-2Z"/>
<path class="sw" d="M590,730l-1,1v1v-1h-1v-1h1v-4h-1v-1h1v-3h-1l-1,-1v-2l-1,-1h1l1,1v1h1l1,1h1v1l1,2v4ZM455,712v1h-1v-1h1l-1,-1v-1h-1v3h-1l1,-3h-1l-1,1h-1v-2h1l1,-1l1,1l1,-1h1v-1h1l1,1h-1l-1,1h-1l1,2l1,1ZM606,725h-1v1h-1v-1h-1v-1h-1l1,-1l1,-2l2,-1h1v1l-1,3ZM591,712h-5l1,-1h1l2,-1h1ZM593,710l-1,-1h-4v-1h-1v1h-1v-1l-1,-1l1,-1l-1,-2h1v-3h-1v-1h2l2,1l1,1h2v3h-1v1l1,2l1,1Z"/>
<path class="sb" d="M22,353v-1l1,-1v-2l1,-1v-2h1v-2M15,388v-1v1l1,-1v-2M16,376v-1l-1,2l1,-2v-1l1,-2v-1v1l-1,2l1,-1v-1v1v-1v4l-1,2v7h-1v4l-1,2v2l-1,2v2l-1,2v1h1M16,423h-2v-1l-1,-1v-1l-1,-1v-2h-1v-5l1,-2v-6l1,-2v-2l1,-2v-2M4,461v-1l1,-1v-2l1,-2v-2h1v-2h1l1,-2v-3l2,-5v-2l2,-5v-2l3,-7v-2l1,-2v-2l2,-5v-3l1,-2v-3l1,-1v-4l1,-2v-3l1,-2M2,461v2l-1,1v3h1v-3l1,-1v-1h1v3l-1,3v9l-1,7v23l1,2v2M0,516v4l1,1v10l1,1v5l1,1M10,599v2M16,627l1,1v3l1,1v2M20,639v2l1,1v3h1v2l-1,-3v-2l-1,-1v-3l-1,-1v-2l-1,-3v-1l-1,-2v-1l-1,-2v-1l-1,-3v-2l-1,-2v-1M10,601v-1v1v-1h1l-1,-1v-12M106,194v1l-1,1v1h-1v1l-1,1l-1,2l-1,1v1l-1,1v1h-1v1l-1,1v1h-1l-1,2h-1v2h-1l-1,1v1l-1,1v1h-1l-1,2v1v-1v1l-1,1v1h-1v1l-1,1h1l-1,1v2l-1,1v1l-1,1v1l-1,2l-3,3v3l-2,2v2h-1v2M71,251l1,-1v-1l2,-2l1,-2v-1h1v-1h1v1M77,233v1l-1,1v1l-1,1v1l-1,1v1l-1,1v2l-1,1l-1,2v1l-1,2v1l-1,2h2v-1h1v1l-1,1v1l-1,1h1v-1h1M65,296h-5l-1,-1h1v-5l1,-1v-2l1,-1v-1M46,328l1,-1v-1h1v-1h1l2,-2v-1h1v-1h1l2,-2h1v-1h1v-2l1,-1v-1l1,-1v-1l1,-1v-2l1,-1v-1l2,-2v-2l1,-1v-2l1,-1v-3l1,-1v-2l1,-1l1,-2v-1l1,-1v-1h1v-2h2v-3h1v-2l1,-1v-1h1v-1v1l-1,1h1v-1h1v-1M78,272v-1l1,-1v-1M24,355l1,-1v-3h1v-3l1,-1v-2h1v1h-1h1v-1h2v1h1v-1v2h1v-1l1,-2v-1l1,-1v-1l1,-2v-1l2,-2v-1l2,-2v-1h1l2,-2h1l2,-2h1v3h-1v4l-1,1v6l-1,1v3M83,224l-1,2l-1,1l-1,2l-1,1l-1,2v-1v1l-1,1v1h-1v1M104,196l-2,2l-1,2h-1v1h-1v1l-2,2v1l-2,2v1l-4,4v1l-2,2v1l-2,2l-1,2l-2,2v1l-2,2M120,177l-3,3v1h-1v1h-1v1l-2,2v1h-1h1h-1v1l-2,2v1h-1v1h-1v2h-1v1h-1h1h-1v1h-1v1v-1l1,-1h1v-1l-1,1v-1v1l-1,1h-1v1l1,-1v-1v1h-1v1h-1v1v-1v1h-1l-1,2l-1,1M120,177l1,-1v-1h1h-1l2,-2v-1h1v-1h1v-1l2,-2M129,166v1h-1v1h-1v-1h1v-1h1h-1v1v-1v1h-1h1M349,338v-2l2,-2v-1l-1,-1h-1l-1,-1v-1h-1v-1h1l1,-1v-1l-2,-2h-1v-1l-1,-1v1h-1v-1h-1v-3h-1v-2h-1l-2,-2v-1l-1,-1h-1v-2l-1,-1v-1h-2v-1l-1,-1l1,-1v-1h-1l-2,-1h-1l-1,-1l-3,-2h-1v-1h1v-2l1,-1h1l2,1h1l1,-1v-1h1v-1h1v-1l-1,-1h-1v-1h-1l-1,-1h1v-1h1l-2,-2h-1l-1,-1l-2,2h-3l-2,-1l-2,-2v-1h1v-2l1,-1h-1v-1l-1,1h-1v-2h-1v-1l-1,-1v-1h-1M330,342h1v1l1,1l1,-1l2,1v1h2l1,-1v-1l-1,-1v-1h1l1,-1h2v-1v1h1l1,1h3l1,-1v-1h1l1,-1v2l-1,1l-1,2l1,1v1l1,2v3l-1,2v6h-3l-2,2h-1l-1,1h-2v2h-1v1l-1,-1h-2v1h-1v3l2,2v2h-1l-1,-1v1l-1,-1v-1h-1l-1,1h-1l-1,1l-1,-1h-1v2h-1v1l-1,1h-2l-1,1"/>
<path class="sb" d="M307,284l-2,2h-1l-1,1v1h-1v2h-1l-1,1h-1v1l-1,2M277,378v-2l1,-1v-1l2,-2l1,-2l2,-2v-2h1l1,-1v-3l-1,-1v-3l-1,-1v-2l-1,-1v-1h1v-5l-1,-1v-1l-3,-3v-1l-1,-1v-1h-1v-4h1l1,-1h1v-2l1,-1v-3l2,-1h1v-2h-1l-1,1v-2l-1,-1v-2l-1,-2l-1,-1l-1,-2l-1,-1v-5h-1l-1,-1h1l1,-1h1v-3l1,-1v-2l2,-2v-1h1v-1l1,1h2l2,-1h2v-2l1,-1h3v-2h5v1l1,-1h1v1h1v1l-1,1v1l-1,1v1h1v1h1l1,-1h3v5l-1,1l-1,2v1h-1l1,1v2h-1l-2,4h1v1h1l3,-3h1l1,-1v-1h2l1,-1h1l1,1h1v1h1h-1l1,1v-1h1l1,-1h1l1,-1v-1h1v-1h4l1,1v-1l1,1l1,2l1,1v1l1,1h1l1,1v1l-1,2v5l2,2v1h1l1,1h1h-1v1l1,1h1v2l-1,1v1l-1,1l1,1v1l-1,2v1l-1,1h-1l-2,2v-2h-3l-2,1l-1,-1l-1,1h-3l-1,-1l-1,1h-2l-2,1l-1,1v1l-3,3v1h-2v3l1,1v3l2,2v1l-1,1v1l2,3M359,283h-1l-1,-1h-1l-1,1v-1h-2l-1,-1v-1h-3v-3l-1,-1h1v-1h1v-1l1,-1h-1l-1,-1l-1,1h-1l-1,-1h-2v1l-2,-2h-1v-1l-1,-1v1h-1l-1,1h-2v2h-1v1h-1l-2,1v-1h-2v1l-1,1l-2,-2h-1v2l-1,-2l-3,3h-1v-1l-1,-1h-2l-3,3v-1h-1l-1,1v-1h-1v1h-1v4h1l-1,2v3h-4v-4h-1l-1,1l-2,1h-4v-2h-1l1,-1v-1h-3l-1,-1l-1,1v-1h-1l1,-1v-1l1,-1v-1l2,-2v-1h-3l-1,-1v-4l-1,-1h1v-1l1,-1h-4l-2,1h-1l-1,1h-1v-1l1,-1v-2l-1,-1l1,-1v-1h1v-1l1,-1v-1h1l1,-1h1v-1l1,-1h1l1,-1v-1h2v-1h-1v-1h1v-1l1,-1v-2l1,-1v-4l1,-1v-1h-1v-1h-1v1h-1v-5h-1v-1h-1v-1h-1l-2,2M491,150v-1h1l2,-1l1,-1h1l1,-1h2v-1h3l1,-1v-1h1l1,-1h1v-2h1l1,-1h1v1h1v1h6v1l1,-1v-1h-1v-1h-1v-1h6v-1h2v-2h2v1v-1h1v-2h1v-1h2v1l1,1h1v1M507,164v-1l1,-1h1v-1h8v-1l1,-1M194,189h1l1,1h2M450,95h-1l-1,2l-2,1v1h-1v1l-1,1h-1v2h-1l-1,1v1h1v1h1l1,-1h6l1,1l1,-1h1l1,-1h5v1h1l1,1h1v1h1l2,2v1h1h-1l1,1h-2v1l-1,-1h-8l-1,1h-4v1h-5v1h-1v1h-1v2h-2l-1,1h-2l-2,1h-2l-1,-1l-2,2h-1v1h-2l-1,1h-6l-1,-1h-5l-2,2v1h-1v2h1v1h1v2h-2l-1,1h-2l-1,1h-1v1h-1l-1,1h-1v1h-1l-1,1h-2l-1,1h-4l-2,1h-3l-1,-1l-1,1h-6l-1,1h-3l-1,1l-3,1h-2l-2,1h-1v1h-4l1,-1h-7l-1,-1h-4l-2,-1h-1l-1,-1v-1h-30v-2l-1,-1v-4h-1l1,-1v-1h-3l-2,-2h-1v-1h-4l-1,-1l-1,1h-2l-1,-1l-1,1h-1v-1h-3v-2l2,-2h1l1,-1v-1l1,-1v-1h1v-6h-1l1,-1h-1v1h-1v-1h-3v-1h-1v-1l-1,-1l1,-1h-1v-1h1v-1M532,136v-1h-1h1l-1,-1h-1l1,-1h3l1,-1h-1h1v-6l-1,-3l-1,-1v-1h3v-1h1v-1h3l1,1h5v-3h1v-1h1v-1h1l-1,-1h1v-2l1,-1v-3l1,-1h1l1,-1v-1h-1v-2l-1,-1h-2l-2,1h-1l-1,1l-1,-1h-1v1h-2v1h-1v1l-1,-1h-1l-2,1h-1l-1,-1h-1l-1,1h-1v-1l-2,-2h1v-1h-1v-1h-1v-2h-3l-2,-1v-1h-4v-1h-1l-1,-1l-1,1h-3l-1,-1h-1v-1h-1v-1l1,-1h-2v-2l-2,-2v-1h-1v-2h-1v-1l-1,-1v-1h-1h1h-1v-1h-1v-1h-1v-1h-1v-1l-1,1v-1h-5l-1,-1h-2l-1,-1h-4l-1,1h-9l-4,2l-1,1h-1v1h4l-1,1l1,1l-1,1h-1l-2,2h-1l-1,1v1h-1v1h-1v1h-1v1h-1v1h1v1h-2v1h-4l-1,1l-2,1h-3l-2,-1h-1l-1,-1h-8v-1h-4v-1v1h-3v1h-2l-1,1h-1v1h-2l-1,1l-1,-1l-1,1h-5v1l-1,-1v1l-3,1h-1v-1h-1l-1,1l-1,-1h-9v-1h-1v-1h-1h1v-1h-4v-1h-1v-1h-12l-1,1h-4v1l-1,-1h-3v-1h-2v-1h1h-1v-1h1v-2l-1,-1h-4l-1,-1h-4l-1,-1h-2v-1l-2,2h-1l-1,1h-1v1h-2l-2,2v2h1v1h-1v1h-1v1h-2v1h-2l-1,1h-1v-1h-12v-3h-5v-1h-1v1h-1v-1h-1v1h-4v1h-2l-1,1h-2v1h-4v1h-2v1h-1v1h-3v1h-5v1h-1v1h-3l-1,1"/>
<path class="sb" d="M164,133h1v-1l1,-1h1l1,-1v-1l1,-1h1v-1l1,-1h1v-1h-1v1v-1h1v-1h1l1,-1v-1l1,-1l2,-1l1,-1h1v-1h1v-1h1v-1l2,-1l1,-1h1v-1h1v-1h1v-1h1l-2,2h1v-1h1v-1h1l3,-3h1l1,-1h1v-1h1l1,-1h1v-1h1l1,-1h1v-1v1h-1v1v-1h1l1,-1h1l-1,1h1h-1h1l-1,1v1h-1v1l-1,1h-1h1l2,-2h1h-1v1h1l2,-2h2v-1v1h1l1,-1h1v1h-1v1h1h-1h1l1,-1h1v-1h1l-1,1h2l1,-1h1l3,-3v-1h-1h1v-1h1v-1h1l1,-1h1l3,-3h1l1,-1h3v-1l-1,-1h2v-1h1h-1l1,-1h1v-1h3l1,-1h2v-1h3v-1h3l1,-1h2v-1h3l1,-1h3l1,-1h2v-1h1l1,-1h6l-3,3h-1v1h-1v1h1l1,-1h1v1h-1h2v-1l1,1h1l1,-1v1h-2v1h-1l-2,2h1v-1h3l1,-1h1l1,-1h2l1,-1h2v-1h3v-1h1l-1,1h-1v6l-1,1v1l-1,2v1l-1,1v2l-1,1v1v-1h3v-1h1v-1h2v1h-1v1l1,-1v1h-1v1h1l1,-1l1,1v-1h3v-1h4l1,1h-1v2h1v1h1l-1,1v1h3v1l1,-1h1l1,-1h1l-1,1v2h1v1l-1,-1l-1,1h-1l-1,1v1h-1l-1,1h-3l-1,1h-1v1l-1,1h-1l-1,1v1l-1,1v1h-1v1h-2l-1,1h-2v1v-1h-4l-1,-1h-1l-1,1l-3,2l-1,2l-2,1l-3,3v2h-1v1h-1v-1l-1,1h-1v-1h-1l-1,1h-3l-1,1h-3v1h-1v1h1v1l-2,2v1l-1,1v2l-1,1v1h-1l-1,1h-1v1l-1,1h-1v1h-1v1l-1,1M196,226v1h1v-1l2,-2h3v2l3,3h2v3h2l1,-1v3h1v1h1v1h3l-1,1v1h3l1,1v1h1v-1l1,1h1l1,-1h1v1h1l1,1h3l1,-1h2M234,244l1,-1v-1h1l3,-3v-1h1l1,-1h1l1,-1h2v2h5v-1h1v1h2l-1,1v1M193,192h2l2,-2h2v-1v1l-1,1v2l-1,1v1l1,1h1v2l-1,1h-1v2l-1,1v5l-1,1v1l-2,2h-1v-2l-1,1h-1v4l-1,1v2h-1v2l1,-1h1v2h1v1h2v1h1h-1v1l1,1h1v1h1v1h-1l-4,4l-1,2l-2,2v1l-1,1l1,1v1h1v-1l2,2h1v2l1,1h2l2,2l1,-1v2h2l1,1v-1h4l1,-1v1h2v3h1v1h1l1,1l1,-1h1v1h4l1,1h1l2,-1v1l1,1l1,-1h4v-1l1,-1v-3l1,-3l1,-1v-1h1v-2h2l1,-1l1,1v2l-2,2l1,1l-1,1v2h1v1l2,-1v1h4l1,-1h7l1,-1v1h2l1,-1h1v-2h1v-2h-2v-2h2l1,-1h3v-1h2v-2h1l2,-1v-1h1v-1h1v-1h3l1,-1h1v-1h1l1,-1h1l2,-2l1,1h1l1,1h2v-1h1l1,-1l2,-1h1v1h1v1h-1l-1,1v1l2,-1h1v2l-2,1v1h-1v1h1v-1h2v1h2v-1l1,1h1v1h-1l1,1h-1v1h-1l-1,1h-1v1l-1,1l1,2v1h-1v-1l-1,-1l-3,1h-2v1l-1,1h-1l-3,2l-1,1h-1l-1,1v3l-2,2v1l-1,1h-1l-1,1v1l-1,1h1v1l-1,1v1l-2,2v1l-2,2l-1,2h-3v-1l-1,1h-1v2l-1,1v2l-1,1v1h-1l-1,1v2h-1v4h-1v1h-2v-1v1h-1v1M189,181l1,-1v1h2v1h1v2l-1,2l-1,1h1v1h1v-1h1l-1,1l1,1v1l-1,1v2h-1v1h-1l-1,1h-1l-2,1h-1l-1,1h-3l-1,-1h-3v1h-1l-1,1v1h-1h1v1h-1v1h1v1h-1v1h-1l-1,1h1v1h-1v1h-1v4h1v1l-1,1h2l1,1h-1v1h-1l-2,2h-1l-1,1l-2,4v1l-1,1h-1l-4,4v2h-1l-2,2h-1l-1,1v1l-4,4v1l-4,2v1l-1,1v1h-1l-1,2l-2,2h-2l-1,1l-2,1v-3h-1v1h-1v1l-6,6v1l-1,1v1h1v1h1v1l-2,2v3h2v1l-1,1v6h-1v2h-1l-1,1h-1v-1l-1,1h-1v1h-6l-1,2h-1v1h-2"/>
<path class="sb" d="M224,284v-7l1,-2h-1v-4l1,-2h1v-2h-1l-1,-1h-1v-1h-1l1,-1l1,-2l1,1v-1l1,-2h3l1,-1h-1v-1h-1l-1,-1v-1h-1v-3h1l2,-2v-1h1v2h2v-1h1v2h1v1h1l1,-1v-1l1,2l-1,1v2l-1,1v1h2l1,1h3l2,-1h7l2,2h-2v1l-1,1v1l-1,1h-1v1l-1,1v-1l-1,1h-2v1h-1v1l-1,1v1l-1,1l1,1l-1,2h1v-1l1,1v1h1v-1h1v-2l1,-1v-1l1,-1h2v4l-1,1v3h1l-1,1v5l-1,2v3h-1v-1h-1l-1,1v4M198,148l1,-1h1v-1h1v-1h6v1h1l1,-1h1l1,-2l1,-1h1l1,-1h1l2,2h2l1,-1h14l-1,1h1v1h2v2h-2l-1,1l-2,1h-1l-1,1l-2,1h-2v1h-1v1l-2,1h-2l-1,1h-3l-1,1h-1v1l-1,1h-1l-1,1h-1l-1,1h-1l1,-2l-2,1h-2v1h-2l-2,2h-2v1h-1v1l-1,1v1h-1M188,161l-2,2h-1l1,-1h-2l-2,1l-1,1v-1v1h-1v1h-1v1h4v-1h1v2l1,-1h1v-1h1v1h1l-1,1l1,-1h1v1l1,-1h4v-1h1v1l-1,1v1l-1,1v2l1,-1h2v1l-1,1v2h-1v2l-1,1v1l-1,1M148,161l1,-2l5,-5l1,-2l2,-1l1,-2l5,-5l1,-2l2,-1l1,-2l1,-1h1l1,-1h1l1,-1h1l1,-1h1l1,-1h1v6l-1,1v1l-1,1v2l1,-1h2l1,-1h4l1,-1h1l-1,1v3h-1v1l1,-1h1l-1,1h-1v1l-4,4h1v1l-1,1v1l-1,1v1h2l1,-1h1v1l-2,2h1v1l1,-1v-1h1v-1h1l1,-1h1v-1h1v-1h1l1,-1h1v-1h2l1,-1h1v-1h2v-1h1l1,-1h1v1h-2v1h-1l-1,1h-1v1l-2,1v1l1,-1v2h1l1,-1h1l1,-1v-1v2l-1,1h1v1v-1h1v1h2l-1,1l-2,1l-1,1v-1h-1v1h-1l-1,1h-1v1h-5v-1l2,-2h1v-2l-2,2h-1l-1,1h-1v-1v1h-1v1h-1v1h-1v1h-3v1h1h-1v1h-1v1h-1v1h-1v1h-1l-1,-1l-1,1h-1v1l-2,1h1v1h1v1l-2,1v2h-1v2l-1,1h-1v1l-2,2h-1l-1,2l-1,1M143,160l1,-2h1l2,-2h1l1,-1v3h-1v1l-1,1v1h-1h4v-1h1l1,-2l3,-3h1l1,-1h1v-1h1v-1v1h1v-2h1l1,-1v2l-1,1h1v1l-1,1v1h-1v1h-1v1h-1l1,1h3v1l-2,2v1l-1,1l-1,2v6h1v4h2v1h1v1l-3,3v1M134,162v1h-1v1l-1,1v1v-1h1l3,-3v-1h1M133,196h1v1h1v1h1l1,-1h1v-1h1v-1h1v-1h1l1,-1h1l2,-2h1l2,-2v-1l2,-1l1,-2l1,-1h1v-1h2l2,-2l1,1h5l-1,1v1h1v-1h1l1,-1h1v-1h2v1h1v-1l2,-2h3v-1l1,-1v-1h1l1,-1l2,-1v-1h2v1l-2,2h1v1l-3,3v1l-1,1v2l1,-1l2,-1h1l2,-2h1l2,-1l1,-1h1v1h-1l1,1l1,-1h1v-1h2l1,1h-2l-1,1v1l-2,1h-5l-1,1h-3v1h-1l-1,1h-1v1h-1l-2,2h-1v3l-1,1v1h-1v2h-1v1h-1v1h-1l-2,2v1l-1,1v1h-1l-1,1h-4v3l-1,1v1l-2,2h-2l-1,2h-1v1l-2,2v1l-1,2l-2,2h-1v1h-1v-1h-2v1l-2,1h-1v2h-4v1l-1,1h-1v1h-1v1l-2,2v1l-1,1v1h-1v2h-1l-1,1h-1l-1,1h-1l-1,1h-3l-1,1h-2l-4,1l-1,-1h-1l-1,-1"/>
<circle class="w3" cx="500" cy="538" r="41"/>
<circle class="w3" cx="500" cy="538" r="39"/>
<circle class="c3" cx="500" cy="538" r="40"/>
<path class="sg" d="M 251.9873 933.3637 A 249.7500 19.2000, 0, 1 1, 747.0127 933.3637"/>
<path class="sg" d="M 67.3491 749.9913 A 432.5797 33.2553, 0, 1 1, 931.6509 749.9913"/>
<path class="sg" d="M 0.0000 499.5000 A 499.5000 38.3999, 0, 1 1, 999.0000 499.5000"/>
<path class="sg" d="M 67.3491 249.0087 A 432.5797 33.2553, 0, 0 1, 931.6509 249.0087"/>
<path class="sg" d="M 251.9873 65.6363 A 249.7500 19.2000, 0, 0 1, 747.0127 65.6363"/>
<path class="sg" d="M 552.6909 2.8402 A 404.5791 499.5000, -173.88708545, 0 1, 446.3091 996.1598"/>
<path class="sg" d="M 805.2533 104.5124 A 495.5838 499.5000, -142.25714170, 0 1, 193.7467 894.4876"/>
<path class="sg" d="M 415.7675 7.0682 A 453.7972 499.5000, -189.65019849, 0 0, 583.2325 991.9318"/>
<path class="sg" d="M 471.9776 0.7588 A 290.4160 499.5000, -183.15859474, 0 0, 527.0224 998.2412"/>
<path class="sg" d="M 495.6865 0.0146 A 49.2181 499.5000, -180.43743845, 0 0, 503.3135 998.9854"/>
<path class="sg" d="M 516.8506 0.3014 A 205.1677 499.5000, -178.00937302, 0 1, 482.1494 998.6986"/>
<text x="0" y="0" class="fs" transform="translate(72,655) rotate(69)">60E</text>
<text x="0" y="0" class="ft" transform="translate(72,655) rotate(69)">60E</text>
<text x="0" y="0" class="fs" transform="translate(226,641) rotate(76)">90E</text>
<text x="0" y="0" class="ft" transform="translate(226,641) rotate(76)">90E</text>
<text x="0" y="0" class="fs" transform="translate(453,634) rotate(87)">120E</text>
<text x="0" y="0" class="ft" transform="translate(453,634) rotate(87)">120E</text>
<text x="0" y="0" class="fs" transform="translate(693,637) rotate(99)">150E</text>
<text x="0" y="0" class="ft" transform="translate(693,637) rotate(99)">150E</text>
<text x="0" y="0" class="fs" transform="translate(881,649) rotate(108)">180E</text>
<text x="0" y="0" class="ft" transform="translate(881,649) rotate(108)">180E</text>
<text x="0" y="0" class="fs" transform="translate(352,913) rotate(-3)">60S</text>
<text x="0" y="0" class="ft" transform="translate(352,913) rotate(-3)">60S</text>
<text x="0" y="0" class="fs" transform="translate(246,718) rotate(-3)">30S</text>
<text x="0" y="0" class="ft" transform="translate(246,718) rotate(-3)">30S</text>
<text x="0" y="0" class="fs" transform="translate(208,464) rotate(-3)">0N</text>
<text x="0" y="0" class="ft" transform="translate(208,464) rotate(-3)">0N</text>
<text x="0" y="0" class="fs" transform="translate(249,220) rotate(-3)">30N</text>
<text x="0" y="0" class="ft" transform="translate(249,220) rotate(-3)">30N</text>
<text x="0" y="0" class="fs" transform="translate(356,51) rotate(-3)">60N</text>
<text x="0" y="0" class="ft" transform="translate(356,51) rotate(-3)">60N</text>
<path class="tb" d="M127,248h-2l-1,-1h-2l-1,-1h-2l-1,-1h-2v-1h-3v-1h-2l-1,-1h-2v-1h-2l-1,-1h-2v-1h-2v-1h-2l-1,-1h-2v-1h-2v-1h-2v-1h-2v-1h-2v-1h-2v-1h-2v-1h-2v-1h-2v-1h-1l-1,-1h-1v-1h-2v-1h-2v-1h-1v-1h-2v-1h-1l-1,-1h-1v-1h-2v-1h-1v-1h-2v-1h-1v-1h-1l-1,-1h-1v-1h-1v-1h-1l-1,-1h-1v-1h-1v-1h-1v-1h-2v-1h-1v-1h-1v-1h-1v-1h-1l-2,-2h-1v-1h-1v-1h-1v-1h-1v-1h-1v-1h-1v-1h-1v-1h-1v-1h-1v-1h-1v-1h-1v-1h-1v-1h-1v-2h-1v-1h-1v-1h-1v-1h-1v-1l-1,-1v-1h-1v-1h-1v-1l-1,-1v-1h-1v-1l-1,-1v-1h-1v-1l-1,-1v-1h-1v-2h-1v-2h-1v-1l-1,-1v-1l-1,-1v-1l-1,-1v-2h-1v-2h-1v-3h-1v-2h-1v-4h-1v-3h-1v-5h-1v-6l-1,-1v-17h1v-7h1v-4l1,-1v-3h1v-3h1v-3h1v-2l1,-1v-2h1v-2h1v-2h1v-2h1v-2h1v-2h1v-2h1v-1h1v-2h1v-1h1v-2h1v-1h1v-1l1,-1v-1h1v-1h1v-1l1,-1v-1h1v-1h1v-1h1v-1h1v-1h1v-1h1v-2h1v-1h1v-1h1v-1h1v-1h1l3,-3h1v-1h1v-1h1v-1h1v-1h1v-1h1v-1h1l1,-1h1v-1h1v-1h1v-1h1l1,-1h1v-1h1v-1h2v-1h1v-1h1v-1h2v-1h1v-1h2v-1h1v-1h2v-1h1l1,-1h1v-1h2v-1h1l1,-1h1v-1h2v-1h2v-1h2v-1h1l1,-1h1l1,-1h1l1,-1h1l1,-1h1l1,-1h2v-1h2v-1h2v-1h2l1,-1h2v-1h2v-1h2l1,-1h2v-1h3v-1h2l1,-1h2v-1h3v-1h3v-1h159v1h3v1h3v1h2l1,1h2v1h3v1h2l1,1h2v1h2v1h2l1,1h2v1h2v1h2v1h2l1,1h1l1,1h1l1,1h1l1,1h1l1,1h1v1h2v1h2v1h2v1h1l1,1h1v1h2v1h1l1,1h1v1h2v1h1v1h2v1h1v1h2v1h1v1h1v1h2v1h1v1h1l1,1h1v1h1v1h1v1h1l1,1h1v1h1v1h1v1h1v1h1v1h1v1h1l3,3h1v1h1v1h1v1h1v1h1v2h1v1h1v1h1v1h1v1h1v1h1v1l1,1v1h1v1h1v1l1,1v1h1v1h1v2h1v1h1v2h1v1h1v2h1v2h1v2h1v2h1v2h1v2h1v2l1,1v2h1v3h1v3h1v3l1,1v4h1v7h1v17l-1,1v6h-1v5h-1v3h-1v4h-1v2h-1v3h-1v2h-1v2l-1,1v1l-1,1v1l-1,1v1h-1v2h-1v2h-1v1l-1,1v1h-1v1l-1,1v1h-1v1l-1,1v1h-1v1h-1v1l-1,1v1h-1v1h-1v1h-1v1h-1v2h-1v1h-1v1h-1v1h-1v1h-1v1h-1v1h-1v1h-1v1h-1v1h-1v1h-1v1h-1v1h-1l-2,2h-1v1h-1v1h-1v1h-1v1h-2v1h-1v1h-1v1h-1l-1,1h-1v1h-1v1h-1l-1,1h-1v1h-1v1h-2v1h-1v1h-2v1h-1l-1,1h-1v1h-2v1h-1v1h-2v1h-2v1h-1l-1,1h-1v1h-2v1h-2v1h-2v1h-2v1h-2v1h-2v1h-2v1h-2v1h-2l-1,1h-2v1h-2v1h-2l-1,1h-2v1h-2l-1,1h-2v1h-3v1h-2l-1,1h-2l-1,1h-2l-1,1h-2Z"/>
<path class="tl" d="M169,236h1v1h-3l-1,-1h2v-1ZM114,239h-3l-1,-1h2l1,1ZM176,233h1l1,1v1h1l-1,1h-2l-1,1h-1l-1,-1l1,-1v-2h1v-1ZM124,230h2v1h-1ZM122,230l1,1h-1l-1,-1ZM136,227h1h-2ZM156,224v1l1,1h-5v-1l1,-1v-1l-1,-1l1,-1v1h1l1,1ZM158,214v1h-2v2h1l-2,2v1h1l1,1h1l4,4v1l1,1v1h-1v2h-1l-1,1h-1v1h-2l1,1h1v1h-2l1,1h1v1h3l1,1h3l1,1h3l1,1h1l1,1v-1h1v-1h2l2,-1l1,1h1v-1h4v-1h3l1,-1h-1v-1h-4l-1,-1l1,-1h1l2,-2h4l1,-1h1l2,-2h-1v-1h1v-1h2v-1l1,-1h1v1h1v-1h8v-1h3v-1h1l1,1h2v-1h1v1l1,-1h4v1h6v-1h3v-1h2v1h3l1,-1h3v-1h2l1,-1h2l1,-1h4v1h1v1h1l1,1h1l1,-1l1,1h2v1l-2,2h-1v1h1h-1v1h-1v1h2l2,-2h1v-1h3l1,-1h1v-1h2l1,-1h5v-1h1v1h5v1h1l1,-1l1,1l1,-1h1l2,-1v1l1,1h3l1,-1h2v1h1v1h4l1,-1v1h9l1,-1l-1,1v1h-1h3l1,1h2l-1,1v1h1v1h2v1h1v2h2l1,1v1h-1l-1,1h-2l-1,1h-3l-1,1h-2l-1,1h-2l-2,2v1h-5l-1,1h-2v1h-1v3h2l-11,4h-155l-11,-4h-1h2l1,-1l1,1h14l-1,-1h-7v-1h-2v-1h-3l-1,-1h4v-1h-2l-1,-1h-7l-1,-1l-2,-1l1,1l1,-1l2,1v-1h1v-1l-1,-1h-1h2v-1h2v-1h4l1,-1h5l1,-1l1,1v-1h1l1,1h1v-1l1,1h6v-1h-2l-1,-1h-1l-1,-1h4l1,1h1l1,-1h3l-1,-1h1l1,1l1,-1l1,1h3v-1l1,1h4v-1h2l1,-1v-1h-1v-1h-1v-1h-1v-1h-1v-2l-1,-1v-1h1v-2h1v-1h1v-1h1l1,-1l1,1ZM144,201l2,1h1v1h-1v-1v1h-4l-2,-2l-2,-1l2,1h2v-2h1v1ZM151,197h1v1h-2v1l-1,-1l1,-1ZM269,196h-1v-2h1l1,1ZM345,189v1h1l1,-1v1l-3,3v-1l-1,1h-1l1,-1v-1l1,-1v-1ZM368,193v1l1,-1v1h-1l-3,3h-1l-1,1h-1l-2,2h-2v1h-1v-1h-1v-1l4,-2h1l1,-1h2l2,-2h1l2,-2ZM376,186l-1,2l1,-1l-1,1l1,1h1l-2,2h-1l-2,2l-2,1h-1l2,-1v-2l1,-1l2,-1v-1l1,-1v-3l1,-1v1l1,1ZM382,163l-1,1v-2l-1,-1v-1h1v1l1,1ZM397,156v1l-1,1h-1v-1l1,-1v1ZM398,156h-1v-1h1l1,-1v1ZM10,155v-1ZM386,154v-1ZM386,151v2h-1v-1ZM259,145v2l1,1h-1v1v-1v2h-1v3l-3,6v2h-1l-1,1l-1,-1h-1v-5h1v-2l1,-1h-1v-3h1v-1h1l2,-2h1v-1l1,-1v-1l1,-1v1ZM361,148v1h1v1h1l-1,1v2h1l-1,2v1l2,2v4h1l-1,2l1,1v3l-1,1v2l-3,3v1l-1,1l-1,2h-1l-1,2h-1l-4,4v1h-2l-1,1h-1l-1,1v-1h-1l1,-1h-1l-1,1h-1v-1h-1v-3h1l-1,-1v-1l1,-1l-1,1h-1l3,-3l-2,1h-1l-1,2v-4l-2,-2h-2l-1,1h-4l-2,2h-4l-1,1v-1l-1,1h-2v-1h-1l1,-1v-1h1v-3l1,-1v-7l1,1v-3l1,-1v-1l1,-1l-1,1l2,-2h1l1,-1h2l1,-1h2v-1h1l1,-1v-2l1,-1v2l1,-1v-1h1v-1l2,-2h2v1h2v-2h1l1,-1v-1h2v-1h-1h1l1,1h3l1,1h-1v1h-1v1l-1,1v1l2,2v1h1l1,1h1v-1l1,-1v-1l1,-1v-3l1,-1v-2h1v-1v3l1,1Z"/>
<path class="tl" d="M383,144h-1v-1v1ZM337,142l-2,-1h2ZM381,143h-1v-1h1ZM382,142v-1l-1,-1h1ZM341,142h-1l3,-3h2l-1,1h-1l-1,1ZM335,139h1v1h-3l1,-1ZM340,139v1h-3v-1h2ZM381,140v1l-2,-2h1v1ZM378,139v-1h-1v-1l1,1ZM325,137h2v-1l2,1v1h2l1,1l-1,1l-1,-1h-4l-1,-1h-1l-2,-1h-1l1,-2h1l1,1ZM353,136v1v-2ZM377,138h-1v-2l-1,-1h1v2h1ZM373,135l-1,1h-1l-1,1l-1,-1h-1l1,-1l1,1v-1h2v-2h1v1ZM345,132h-1v-1h1ZM349,131v2l-1,-1h-2v-1h2ZM374,134l-1,-1v-1l-1,-1h-1h2v2h1ZM353,128v3l2,1v-2l2,-1h1l1,1h1l1,1l4,2v1h1v1l2,1v1h-1v1l1,1v2h1v1h1h-1l1,1l-1,1v-1h-2l-1,-1v-3h-3l-1,1v1h-2l-2,-2v1h-2l1,-2h1l-1,-2v-1l-2,-1h-1l-1,-2l-1,1l-1,-1h1l-1,-1l1,-1h-1v-1h-1l-1,-1h2v-1ZM343,125l-1,1h-4v1l1,2v-1h2l-1,1h-1l1,2v1l1,2v1h-1v-2l-1,1v-1l-1,-1l1,-1h-1v4h-1v-3h-1v-1l1,-1v-4h1v-1h4l1,-1ZM347,125v1h-1v1l1,1h-1v-4h1ZM321,135h-1l-2,-2v-1l-2,-2l-1,-2v-2l-1,-1v-1l-4,-4v-1h2l3,3l1,2h1l2,2h1l-1,2h1v1l1,1h1v3ZM335,124l1,1h-1v3l-1,1v1l-1,3v-1l-1,1l-1,-1h-1v-1l-1,1l-1,-1h-1l-2,-4v-2l1,-1h2v-2h2v-1l1,-1v-1h1l1,-1v-2h1v1l2,2v1h-1l-1,2l1,1ZM344,114v3l-1,-1v2l-2,-2h1l-1,-1v1l-1,-1l-1,1v-1l1,-1h2v-1h1v-1l1,1ZM294,118h-1v-1l-1,-2l1,-2l1,1v1l1,1v1ZM137,113h-1l1,-1h1ZM341,111v1l-1,1l-1,-1l1,-1v-1v1l1,-1ZM335,113l-1,1v-1l1,-1v-1l1,-1v1l-1,1ZM338,109h2v1l-1,1v-1h-1ZM342,108l1,2h-1v1v-1h-1v-1h1h-1v-1ZM338,107l-1,1l-1,-1h1ZM336,99h1v6h1l2,1v2l-1,-1v-1v1l-1,-1h-2v-1h1h-1l-1,-1v-5ZM133,101v1h-1v-1ZM121,102h-1v-1h2v1ZM126,99h3v1h1v1h-2l-1,1v-1h-1v-2h-1ZM324,99l-1,1h-1v-2l1,-1h1v1ZM37,96v-2h1v2ZM38,94h-1v-1h1ZM119,95h2l1,1v1h1v1h2l-1,1h-3v-1h-1v-2h-2l-1,-1h-1h1h-2l-1,1h-1l2,-2h3ZM122,93h-1v-1l1,-1v1ZM334,93v1l-2,-2v-2l1,-1l1,1ZM122,89l-1,1v-1ZM123,89v1v-1h-1ZM340,75h1v1h-1v1h-1v-2ZM240,78l-2,2v-1h-1h2ZM229,78v1h-1ZM220,75v2h-1l-1,-1h-1v-1h2ZM214,71v3h-1v-3ZM344,70v1l1,1v1l-1,1h-1l-1,2l-1,-1v-1l-2,1l-1,1h-1l2,1v3l-1,-1v-1h-1l-1,-1l1,-1v-3h3v-3l1,1v-2h1l-2,-4v-1l3,3v1ZM214,70v1l-1,-1v-1l1,-1ZM340,60l1,-1l1,2h-1v2l-2,-1l1,2h-1l-1,-2l-1,-1h1l-1,-2l-1,-1l3,1ZM144,62l1,1h1h-2ZM147,59h-1l-1,-1h1ZM92,56h-1l-1,-1v-2h-1v-1h1l1,1v1l1,1ZM153,57l-1,1h1v1h2l-1,1h1v1l-1,2l-1,-1l1,-1l-2,1v-1h-3l1,-1h-1l4,-4h1Z"/>
<path class="tl" d="M90,47h1l-2,2v1v-3ZM332,50l3,3l-2,-1l1,2l2,2v1l-2,-2l-1,-2l-6,-6v-1h-1h1l3,3ZM198,56l-1,1h-2l1,-2v-1l2,-2h1v3ZM216,51l-1,2l-1,-1v-1h1ZM79,41h-1v-1h2ZM202,47l-1,2h2v1l-1,1h1l2,4h1v1l-1,1h1l-1,1h-3l-1,1h-2l2,-2h-1v-1h1l-1,-1v-1h2l-1,-1h-1v-2l-1,-1l1,-2v-1l1,1ZM75,36h-1v-1h1ZM141,40l-1,1v-1ZM139,40h-2l1,-1h1ZM78,30v1h1h-2v-1ZM139,36h1v1h1l-1,1h1l-1,1l-1,-1h-1l-2,1l1,-1h-1h1l1,-1l1,-2ZM193,37v1l1,1l-1,1h-3l-1,1l-1,-1h-2l1,-1h-1h1v-1h-2l1,-1h1l1,1l2,-1h2ZM147,34h-1l1,-1h2l-1,1ZM81,26v1l1,-1h2l-1,2h-3l-1,1h-1l-1,-1h1v-1h-1h1h-2l-1,1l8,-5v1l-1,2ZM135,30l-1,1v-1h-1l1,-1h1ZM322,21h-1ZM88,21h-1h2ZM139,30l-1,2l2,-1v1h-1v1l1,-1l2,-1l1,-1h2v2h-1v1l-1,1l-2,1h-1v-1l-1,1l-2,1v1h-3l-2,2h-1l-1,1l-2,1l-1,1l-1,2h1l-1,1v1h1l3,3l2,1h1l-2,2v2l1,1h1l2,-4h-1l4,-2v-1l1,-1v-1l-1,-1l2,-1l2,-4l1,1h1l1,-1v1l1,1h1v2l-1,1l1,1h2l1,-2h1v3l1,1l-1,1l1,1v1h1l1,1v1l1,1l-2,2h-2l-2,2h-1l-2,-1h-2l-2,1l-1,1l-2,1l-1,1l2,-1l3,-1h2l-1,1l-1,2v1l1,1l2,-1l1,-1v1h1l-4,2h-1l-2,1v-1l2,-1h-3v1h-1l-1,1h-1l-2,2l1,1v-1v1h-3l-1,1l2,-1v1h-2l-2,2v1l-1,1l-1,-1l1,-1l-1,1v4l-1,1h-1l-1,1h-1l-3,3h-1v8l-1,1h-1v-3l-1,-1l1,-1l-1,-2l-1,1l-1,-1h-4v1h-1l-1,-1l-1,1l-1,-1l-2,2h-2v1h-1v3l-1,1v1l-1,2v4l1,1v1h1v1l1,-1h3v-1l1,-1v-1l1,-1h3v1l-1,1v2l-1,1v-1v2l-1,1v1h5v1h1v1l-1,1v3l-1,1h1v2h1v1h2l1,-1h1v1h1l1,1l1,-1v-2l1,-1h2l2,-2v2h-1h1v1l-1,1v1h1v-3h1v-1h1v1h1v1h3l1,1l1,-1h1l1,1h1v1l1,1h1v1h1v1l1,1l2,1v-1h1l1,1h1l1,1v1h1v1l1,2v1l-1,1l1,1h2v1v-1l4,2v1h1l3,1h1l2,1l2,2h2v5l-1,1l-1,2l-2,2v9l-1,2v2h-1v1h-2l-1,1h-1l-3,3v5l-1,2l-2,2v2l-2,2v-1l-1,1l-1,-1h-1v-1v1l1,1v1l1,1v2l-2,1h-3l1,1v2l-1,1l-1,-1h-1l1,2h2l-2,2l1,1v1h-1l-1,1v1l2,1h1v1l-1,1v2h-1v1l2,2h-1l-1,1v1h-1l-2,-1l-3,-3l-1,-3v-1l1,-1h-2l1,-2l-1,-2h1v-2l-1,-1v2l-1,-2v-4l-1,-1l-1,-2h1v-6l-1,-2v-8l-1,-2v-6l-1,-2l-1,-1l-5,-3l-1,-1v-1l-1,-2l-1,-3l-2,-3l-2,-2v-1l-1,-2l2,-2v-1h-1v-3l1,-1v-1h1v-2h1l1,-1v-5l-1,-1v-2h-1v1h-1v1h-1l-1,-1h-2v-2h-1v-1v1h-1v-3l-2,-2h1h-2v-1h-2l-1,-1l-1,-2h-1l-1,-1v1h-2l-1,-1h-2l-2,-2h-1l-1,-1v-1h-1v-3h1l-1,-1v-3l-1,-1v-1l-1,-1v-3h-1v-5l-1,-1l-1,1v4h1l-1,1h1v5h1v2h-1v-1l-1,-1v-3l-1,-1v1v-1h-1v-1h1v-9h-1v-1h-1v-9l2,-2v-1l1,-2l2,-2l1,-2l1,-1v-1h1v1l2,-2h-1v-2l-1,-1v-1l1,-1l-1,-1l1,-1v-1l1,-1l-1,-1l1,-1v-1l1,-1l-1,-1h-1v-2h-1v-1h-1l-1,-1h-1l-1,1h-4l1,-1l2,-1h-1l-1,1l-2,1h-1l-1,1l-2,1h-2l-2,1h-1l-1,1h-3l-1,1h-2l1,-1h2l2,-1h2l2,-1h1l2,-1l1,-1h-3l1,-1l-1,1h-1l2,-2h-1v-1l2,-2l2,-1h3l1,-1h1l1,-1h-3v-2h4l1,1l1,-1v-3h4l1,-1h2l2,-1l1,1l1,-1h1l-1,1h1l1,1h2l1,1h2v1l1,1l1,-1h6l1,-1v2l2,-1l-1,1h2l1,1h2v1l-2,1h4v1l2,-2h2v1h1l1,1h2v-1h1l1,1l-1,1l1,-1h1l1,-1v-2l1,-1l2,-1l1,1l-2,2Z"/>
<path class="tl" d="M128,24l-1,1h4l-1,1h1l2,-2v1l-1,2v1l1,1h-2v1h-8v-1h-1v-1h4l-1,-1h-3l2,-1h-1l1,-1h1ZM135,24l-2,1v-1h1ZM152,26v1l-1,-1l-1,1v-2h2ZM146,26v1l1,-1l2,-1v2h3l1,1l-1,1l2,-1v1l1,1v2h-1l2,2v1h1v1l-2,1h-1l-1,-2l-1,1v1l1,1v2l-1,1l-2,-2v1l1,1h-2l-2,-2v-1l-1,-1v1h-3v-1l1,-1h3l1,-1l2,-1v-1l-1,-1h-1l1,-1l-1,-1h-5l-1,-1h-1l1,-1h-1l1,-1l2,-1l1,-1h2ZM138,24h2l-1,1h-1l1,1l-2,1h-2v-2l1,1v-1ZM298,22h-2v-1ZM141,26l-2,1v-1l2,-2h2l1,1l-2,1ZM122,26h-2l-1,-1h1l2,-1l2,-2h2v1h2v1h-1l-3,1h-2ZM299,19v1h-3v-1h1ZM143,23v1l-1,-1h-1l1,-1h1l1,1ZM295,19l1,1h-2l-1,1l-2,-1l-1,-1h2ZM143,21h-1v1l-1,1h-2l1,-1h-1l1,-1h2ZM136,21h1v1h-4l-2,1h-1l1,-1h-1l-1,-1l2,-1h1l2,1l1,1v-2h2ZM246,30h-3l-2,-1v-1l1,-2h-1l1,-1l-1,-1h1l4,-2h2l-1,1l-2,1l-1,1v2l-1,1l1,1ZM145,20l1,1h1l-1,1h1l1,1h4v1h-7l-1,-1l1,-1v-1h-2l1,-1ZM134,19l-2,1h-4l2,-1h3ZM271,20l1,1v-1h2l2,1h1v1l-1,1h1l2,1v-1l1,1l1,-1h2l1,1h3l-2,-1h5l1,1v1h2l2,1l-1,-1h1l1,-1l2,1v-1h1l-2,-1h8l3,1l1,-1h2l2,2h2v-1h3l3,1v-1h-2v-1h7l8,5h-1l1,1l2,1h2v1h-1v1h-1l1,1v2l-2,-1v2l-1,-1v1h-1l2,2v1h1l3,2h-1l1,1h1v1l1,2h-1l1,2l1,1l-4,-2l-4,-3l-1,-2l-1,-1v-3l-1,-2v-1l-2,-2l-1,1l2,2l-3,-1l-1,1l1,2l1,1h-1l-1,1l-1,-1h-1v1h-4v7h1l2,1h1l-1,-1h1l3,1l1,2l1,1l1,2l2,2v9h-1l-1,-1v2h-1v1l1,1v1h-1v1l1,1h1l2,2v1l1,1v1l-1,1h-1l-1,-2l-1,-1h1l-2,-1v-1v1v-1h-1v-1l-1,-1h-2v1h-1l-1,-1l1,-1l-1,-1l-1,1v2h-1v1l2,2h1v-1h2l1,1l-2,1v2l2,2l1,2l2,1v2h1v6l-2,4l-1,1h-1v1l-1,-1v1l-2,1h-1v2l-1,-1v-1h-2l-1,2v2l1,1l1,2l2,2l1,3v4l-2,1v1l-2,1v-2l-1,-1h-1v-1l-2,-2h-1v-1h-1v6h1v3l1,1h1v1h1v1l1,1v3h1v2h-1l-2,-2v-1l-1,-1v-1l-1,-1v-2l-1,-1v-1h-1v-6l-1,-1v-1l-1,-2v-2l-1,-1l-2,2h-1v-3l-1,-2v-1h-1l-2,-2v-1l-1,-1h-1v2l-1,-1v1h-2v2l-2,1l-1,2v1l-2,2h-1v8l-1,1l1,1h-1l-1,1l-1,-1l-1,-2v-1l-1,-1v-1l-1,-2v-1l-3,-6v-3l-2,1h-1l-1,-2v-1l-2,-1l-1,-1v-1l-1,-1l-2,1h-5l-1,-1h-2v-2h-1l-1,1h-2l-3,-3l-1,-2l-1,1v-1l-1,1v2l1,1h1l1,1v2l1,1l-1,-1l1,-1v2h1v1l1,-1h2v-1l1,-1v-1v2l2,2h1l2,2l-1,1v1h-1v3h-1v1h-1v1h-2v1h-1l-2,2h-1l-2,2v-1l-1,1h-2v1h-2v-2l-1,-1v-3h-1v-1l-1,-1v-1l-1,-1h-1v-1l-1,-1v-3h-2v-2l-1,-1v-1l-2,-2v-1v1l-1,1l-1,-1l-1,-2l1,2l1,1l1,2v1l2,2h-1l2,2v1l1,1h-1l1,2v1l1,1l1,2v1l1,1l2,1v1h1v1h1v1l-1,1h1l1,1h3l1,-1h3v-1h1v2l-1,1v3l-1,1l-3,6l-1,1l-2,1l-1,1l-1,2v1h-1v1h-1v2l-1,1l-1,2l1,1v4l1,1v7l-1,1h-1l-3,3h-1v1l-1,1v2h1l-1,1h1v1l-1,1h1l-1,1h-1l-2,2v3l-3,3v1l-2,1v1l-1,1h-2v1l-1,-1v1l-1,-1l-1,1h-2l-1,1l-1,-1h-1v-5l-1,-1v-2l-1,-1v-1l-1,-1v-5l-1,-1v-1l-1,-2v-1l-1,-1v-3l1,-1v-3h1v-1l1,-1v-1h-1v-5l-1,-1v-2l-3,-3l-1,-2l1,-1v-5l-1,-1v-1l-1,1h-2l-1,-1v-1l-1,-1h-2l-1,1h-2l-1,1h-6l-1,1l-4,-4h-1l-1,-1v-1l-1,-1v-1h-1v-1l-1,-1v-1h-1v-3h-1l1,-1v-1h1l-1,-1l1,-1v-4l-1,-1v-1h1v-2l1,-1v-1h1v-2h1l1,-2h1l2,-2v-3l3,-3l1,-2v-1h1l1,1h2l1,-1h2l1,-1h4l1,-1h1v1h1l1,-1h1v1l1,-1v1h-1v1h1v2h-1v1h1v1h3l2,2h1l2,2l1,-1v-2l1,-1h2l1,1h1l1,1h2l1,1h1v-1h2l1,1v-1h1l1,1v-2l1,-1v-5h-2l-1,1l-1,-1h-2v1l-1,-1h-2v-1l-1,-1v-2l1,-1h1v-1h2l1,-1h1l2,-1l2,1l1,1h2l1,-1v-2h-1l-2,-2h-1l-1,-1l1,-1l-1,-1h2l-1,-1v1h-2l-1,1v1h1l-1,1h-1v-1h-1l1,-1h-2v-1h-1v1l-1,1v1h-1v4l1,1h-2v1h-1v-1h-2l1,1h-2v1l1,1h-1h1l1,1v1l-1,-1v1h-1l1,1h-2v-2l-1,-1v-1h-1v-3h-1v-1h-1l-1,-1h-1l-1,-1v-1l-1,-1v1v-1h-2v1l2,2v1l1,1h1l1,1h1l1,1v1l-1,-1h-1v1h1v1h-1v1h-1v-1h1l-1,-1v-1h-1l-1,-1h-1l-2,-2l-1,-2h-2v1h-4l-1,1v2h-2v1l-1,2h1l-1,1v1h-1l-1,1h-2l-1,1l-2,-2v1h-2l1,-1v-1h-1v-2l1,-1v-3l-1,-1l2,-1l1,1h5v-4l-1,-1v-1h-2v-1h3v-2l1,1l2,-1v-1h1l1,-1l1,-2l1,-1h2v-5h2l-1,1h1v1l-1,1v1h1v1l1,-1h2v1h1l2,-2l1,1h1v-1h1v-3l1,-1l1,1v-1l-1,-1v-1h4l1,-1h-4l-1,1l-2,-2v-4l2,-1v-1l-1,-1l-2,2l-1,2l-1,1v3h1v2h-1v2l-1,2h-1v1h-1v-2l-1,-1l-1,-2l-1,-1l-1,2h-1l-2,-1v-5l2,-1l3,-3l2,-3l3,-3h2l1,-2h3l2,1l-1,1h2l1,1h3l3,1l1,1v1l-1,1h-1l-3,-1h-1l2,1v2l1,1h1v-1h-1l1,-1l2,1v-1l1,-2h1l1,1v-1l-1,-1v-1l-1,-1l2,1h1l-1,1l1,1h1v-1l1,-1l2,-1h1v1l1,-1h1l1,-1l1,1l1,-1h-2l1,-1h2l1,1l4,1v-1h-2v-1h-1l-1,-1v-3h2l1,1v1h1l1,1l1,2h1v3l1,1v-1h1l-1,-1l1,-1h-1l-2,-2v-1l-2,-1l1,-1l-1,-1h1l1,2l-1,-1l1,-1h2l1,1l-1,-1l-1,-2h4l-2,-1v-1h1l1,-1h3l1,-1h1v-2l2,1h-1ZM253,70l1,1v2h-1v1l1,1h1l1,1h3l-1,-1v-2h-1v-2h1v-1l-1,-1h-1l1,1l-1,-1v-1h-2v-2h-1h1v-2l1,1v-3h-2l-1,1h-1v1h-1l-1,2l2,1v1l1,1Z"/>
<path class="tl" d="M146,20h-1v-1h1l1,1ZM137,19h-2l1,-1h1l1,1ZM220,21l-1,1h-1v-1h-1l2,-1v1ZM139,18h-2l1,-1v1ZM146,19h-1v-1h1l1,1ZM144,19h-1l-1,-1h-1h1v-1h1l1,1ZM268,18l-3,1v-2ZM215,19l3,1h-2v3h-1l-2,-1h1l-1,-1l-2,-1v-1l1,-1l1,1h1v-1h1ZM220,18h1l-1,1h-4l-1,-1h3ZM234,17l-1,1h-1v-1h-1h4ZM264,18h-4l-2,-1l-1,-1h1l1,-1l4,2ZM153,17v1h-1l-2,1h-2v-1h1h-1v-1l1,-1h2v-1h1v1h1ZM167,14h3v1h-3l-1,1h-1l-1,1l-2,1h-3v1h-1v1h-2l-2,1h1l-2,1h-4l-1,-1h2v-1h2v-1h-1h1l1,-1h1l-1,-1h4l-1,-1h-3v-1l1,-1h6v-1h3v1l2,-1l1,1ZM190,14l3,1h-6v1h5l-1,1l2,-1h4v1l-2,1h-1l-2,2v2l1,1h-2l1,1l-1,1v1h-1l1,1h-3l1,1v1l-1,-1l-1,1h1l1,1v1h-2l-1,-1v1l-1,1h3l-4,2h-3l-1,1l-4,2h-1l-2,1h-1v1l-2,2v1l-1,1l-1,2h-1l-1,-1h-1l-1,-1v-2l-1,-1v-1l1,-1l-1,-2l1,-1l1,-2h1l1,-1v-1l-1,1h-1v-1l1,-1h1l-1,-1h-1l1,-1v-4l-1,-1h-5v-1l-1,-1h1l-1,-1l1,-1h2l3,-1h1l-2,-1h1l3,-1h1v-1h9l1,1l-1,-1h1l2,-1h3l2,-1Z"/>
<path class="th" d="M342,140v1h-1v-1ZM342,140h1v-1v1v-1v1v-1h2v1h-2v1v-1v1h-1v-1v1Z"/>
<path class="tg" d="M66,220h1l1,-1h4v-1h5v-1h5v-1h6v-1h6l1,-1h7v-1h8v-1h9l1,-1h11v-1h14v-1h20v-1h79v1h20v1h14v1h11l1,1h9v1h8v1h7l1,1h6v1h6v1h5v1h5v1h4l1,1h1M21,177h6v-1h7v-1h8v-1h10v-1h10v-1h12v-1h14v-1h18v-1h23v-1h38v-1h75v1h38v1h23v1h18v1h14v1h12v1h10v1h10v1h8v1h7v1h6M5,127h399M21,76h4v1h7v1h8v1h9v1h10v1h11v1h14v1h16v1h21v1h32v1h103v-1h32v-1h21v-1h16v-1h14v-1h11v-1h10v-1h9v-1h8v-1h7v-1h4M66,33v1h5v1h4v1h5l1,1h5v1h6l1,1h6l1,1h7v1h10v1h10v1h13l1,1h17v1h36v1h21v-1h36v-1h17l1,-1h13v-1h10v-1h10v-1h7l1,-1h6l1,-1h6v-1h5l1,-1h5v-1h4v-1h5v-1M140,5h-1v1h-3v1h-2v1h-2v1h-2v1h-2v1h-2l-1,1h-1l-1,1h-1l-1,1h-1v1h-2v1h-2v1h-2v1h-1l-1,1h-1v1h-2v1h-1l-1,1h-1v1h-2v1h-1v1h-2v1h-1v1h-2v1h-1v1h-1l-1,1h-1v1h-1v1h-2v1h-1v1h-1v1h-1v1h-2v1h-1v1h-1v1h-1v1h-1v1h-1v1h-1l-1,1h-1v1h-1v1h-1v1h-1v1h-1v1h-1v1h-1v1h-1v1h-1v1l-1,1v1h-1v1h-1v1h-1v1h-1v1h-1v1l-1,1v1h-1v1h-1v1h-1v2h-1v1h-1v2h-1v1h-1v2h-1v1h-1v2h-1v2h-1v1h-1v2h-1v2h-1v2h-1v2h-1v2l-1,1v2h-1v2l-1,1v2h-1v3h-1v4h-1v4h-1v5h-1v9h-1v13l1,1v8h1v5h1v4h1v4h1v3h1v3h1v2h1v3h1v2h1v2h1v2h1v2h1v2h1v2h1v1l1,1v1h1v2h1v1h1v2h1v1h1v1h1v2h1v1h1v1l1,1v1h1v1h1v1h1v1l2,2v1h1v1h1v1h1v1h1v1h1v1h1v1h1v1h1v1h1v1h1v1h1v1h1v1h1v1h2v1h1v1h1v1h1v1h1v1h1l1,1h1v1h1v1h1v1h2v1h1v1h1l1,1h1v1h1v1h2v1h1v1h2v1h1l1,1h1v1h2v1h1v1h2v1h2v1h1l1,1h1v1h2v1h2v1h2v1h2v1h2v1h2v1h2v1h2l1,1h2v1h2v1h2M153,5h-1v1h-2v1h-2v1h-1v1h-2v1h-2v1h-1v1h-2v1h-1v1h-2v1h-1v1h-2v1h-1v1h-1v1h-2v1h-1v1h-1l-1,1h-1v1h-1v1h-1v1h-1v1h-1l-1,1h-1v1h-1v1h-1v1h-1v1h-1v1h-1v1h-1v1h-1v1h-1v1h-1v1h-1v1h-1v1h-1v1h-1v1h-1v1h-1v1h-1v1l-2,2v1h-1v1h-1v1h-1v1l-1,1v1h-1v1h-1v2h-1v1h-1v1l-1,1v1h-1v2h-1v1h-1v2h-1v1h-1v2h-1v2h-1v2h-1v2h-1v2h-1v2h-1v2h-1v3h-1v2h-1v3h-1v3h-1v3h-1v3h-1v4l-1,1v4h-1v6l-1,1v30h1v6h1v5h1v4h1v3h1v3l1,1v2l1,1v2h1v3h1v2h1v2h1v2h1v2l1,1v1h1v2h1v2h1v2h1v2h1v1h1v2h1v1h1v2h1v1h1v2h1v1h1v1h1v2h1v1h1v1h1v1l1,1v1h1v1h1v1h1v1h1v1h1v1h1v1l3,3v1h1l3,3h1v1h1v1h1v1h1v1h1v1h1v1h1v1h1l1,1h1v1h1v1h1v1h1l1,1h1v1h1v1h1l1,1h1v1h1v1h2v1h1v1h2v1h1v1h2v1h2v1h1v1h2v1h1l1,1h1v1h2M166,5h-1v1h-1v1h-1l-1,1h-1v1h-1v1h-1v1h-1v1h-1v1h-1l-2,2h-1v1h-1v1h-1v1h-1v1h-1v1h-1v1h-1v1h-1v1h-1v1l-2,2v1h-1v1h-1v1h-1v1h-1v1l-1,1v1h-1v1h-1v1h-1v2h-1v1h-1v1l-1,1v1h-1v1h-1v2h-1v1h-1v2h-1v2h-1v1h-1v2h-1v2h-1v2h-1v1l-1,1v1l-1,1v1l-1,1v2h-1v2h-1v2h-1v3h-1v2h-1v3h-1v3h-1v3h-1v3h-1v4h-1v4h-1v5h-1v6h-1v8h-1v30h1v7l1,1v5h1v5h1v4h1v4h1v3h1v3h1v3h1v3h1v3h1v2h1v2h1v2l1,1v2h1v2h1v2h1v2h1v1h1v2h1v2h1v2h1v1h1v2h1v1h1v2h1v1l1,1v1h1v1h1v2h1v1h1v1h1v1l1,1v1h1v1h1v1h1v1l1,1v1h1v1h1v1h1v1h1v1h1v1h1v1h1v1h1v1h1v1h1v1h1v1h1v1h1v1h1v1h1l2,2h1v1h1v1h1v1h1v1h2v1h1"/>
<path class="tg" d="M179,5h-1v1h-1v2h-1v1h-1v1h-1v1h-1v2h-1v1h-1v1l-1,1v1h-1v1l-1,1v1h-1v1l-1,1v1h-1v2h-1v1l-1,1v1h-1v2h-1v2h-1v2h-1v2h-1v2h-1v2h-1v2h-1v2h-1v2l-1,1v2h-1v2l-1,1v2h-1v3h-1v3h-1v3h-1v3h-1v4h-1v4h-1v4h-1v4h-1v5l-1,1v5h-1v8h-1v11h-1v29l1,1v10l1,1v7h1v6h1v5h1v4l1,1v4h1v3l1,1v3h1v3h1v3h1v3h1v3h1v3h1v2h1v3h1v2h1v2h1v2l1,1v2h1v2h1v1l1,1v1l1,1v1h1v2h1v2h1v1l1,1v1h1v2h1v1h1v2h1v1h1v2h1v1h1v1l1,1v1h1v1h1v1h1v2h1v1h1v1h1M192,5h-1v3h-1v2h-1v3h-1v3h-1v3h-1v3h-1v3h-1v3l-1,1v3h-1v4h-1v4h-1v4l-1,1v4h-1v5h-1v6h-1v6l-1,1v7h-1v8h-1v11l-1,1v18h-1v29l1,1v18h1v11h1v8l1,1v7h1v6h1v6h1v5h1v5h1v4h1v4h1v4h1v4h1v3h1v3l1,1v3h1v2l1,1v2h1v3h1v3h1v2h1M205,5v243M217,5h1v3h1v2h1v3h1v3h1v3h1v3h1v3h1v3l1,1v3h1v4h1v4h1v4l1,1v4h1v5h1v6h1v6l1,1v7h1v8h1v11l1,1v18h1v29l-1,1v18h-1v11h-1v8l-1,1v7h-1v6h-1v6h-1v5h-1v5h-1v4h-1v4h-1v4h-1v4h-1v3h-1v3l-1,1v3h-1v2l-1,1v2h-1v3h-1v3h-1v2h-1M230,5h1v1h1v2h1v1h1v1h1v1h1v2h1v1h1v1l1,1v1h1v1l1,1v1h1v1l1,1v1h1v2h1v1l1,1v1h1v2h1v2h1v2h1v2h1v2h1v2h1v2h1v2h1v2l1,1v2h1v2l1,1v2h1v3h1v3h1v3h1v3h1v4h1v4h1v4h1v4h1v5l1,1v5h1v8h1v11h1v29l-1,1v10l-1,1v7h-1v6h-1v5h-1v4l-1,1v4h-1v3l-1,1v3h-1v3h-1v3h-1v3h-1v3h-1v3h-1v2h-1v3h-1v2h-1v2h-1v2l-1,1v2h-1v2h-1v1l-1,1v1l-1,1v1h-1v2h-1v2h-1v1l-1,1v1h-1v2h-1v1h-1v2h-1v1h-1v2h-1v1h-1v1l-1,1v1h-1v1h-1v1h-1v2h-1v1h-1v1h-1M243,5h1v1h1v1h1l1,1h1v1h1v1h1v1h1v1h1v1h1l2,2h1v1h1v1h1v1h1v1h1v1h1v1h1v1h1v1h1v1l2,2v1h1v1h1v1h1v1h1v1l1,1v1h1v1h1v1h1v2h1v1h1v1l1,1v1h1v1h1v2h1v1h1v2h1v2h1v1h1v2h1v2h1v2h1v1l1,1v1l1,1v1l1,1v2h1v2h1v2h1v3h1v2h1v3h1v3h1v3h1v3h1v4h1v4h1v5h1v6h1v8h1v30h-1v7l-1,1v5h-1v5h-1v4h-1v4h-1v3h-1v3h-1v3h-1v3h-1v3h-1v2h-1v2h-1v2l-1,1v2h-1v2h-1v2h-1v2h-1v1h-1v2h-1v2h-1v2h-1v1h-1v2h-1v1h-1v2h-1v1l-1,1v1h-1v1h-1v2h-1v1h-1v1h-1v1l-1,1v1h-1v1h-1v1h-1v1l-1,1v1h-1v1h-1v1h-1v1h-1v1h-1v1h-1v1h-1v1h-1v1h-1v1h-1v1h-1v1h-1v1h-1v1h-1v1h-1l-2,2h-1v1h-1v1h-1v1h-1v1h-2v1h-1M256,5h1v1h2v1h2v1h1v1h2v1h2v1h1v1h2v1h1v1h2v1h1v1h2v1h1v1h1v1h2v1h1v1h1l1,1h1v1h1v1h1v1h1v1h1l1,1h1v1h1v1h1v1h1v1h1v1h1v1h1v1h1v1h1v1h1v1h1v1h1v1h1v1h1v1h1v1h1v1h1v1l2,2v1h1v1h1v1h1v1l1,1v1h1v1h1v2h1v1h1v1l1,1v1h1v2h1v1h1v2h1v1h1v2h1v2h1v2h1v2h1v2h1v2h1v2h1v3h1v2h1v3h1v3h1v3h1v3h1v4l1,1v4h1v6l1,1v14l1,1h-1v15h-1v6h-1v5h-1v4h-1v3h-1v3l-1,1v2l-1,1v2h-1v3h-1v2h-1v2h-1v2h-1v2l-1,1v1h-1v2h-1v2h-1v2h-1v2h-1v1h-1v2h-1v1h-1v2h-1v1h-1v2h-1v1h-1v1h-1v2h-1v1h-1v1h-1v1l-1,1v1h-1v1h-1v1h-1v1h-1v1h-1v1h-1v1l-3,3v1h-1l-3,3h-1v1h-1v1h-1v1h-1v1h-1v1h-1v1h-1v1h-1l-1,1h-1v1h-1v1h-1v1h-1l-1,1h-1v1h-1v1h-1l-1,1h-1v1h-1v1h-2v1h-1v1h-2v1h-1v1h-2v1h-2v1h-1v1h-2v1h-1l-1,1h-1v1h-2"/>
<path class="tg" d="M269,5h1v1h3v1h2v1h2v1h2v1h2v1h2l1,1h1l1,1h1l1,1h1v1h2v1h2v1h2v1h1l1,1h1v1h2v1h1l1,1h1v1h2v1h1v1h2v1h1v1h2v1h1v1h1l1,1h1v1h1v1h2v1h1v1h1v1h1v1h2v1h1v1h1v1h1v1h1v1h1v1h1l1,1h1v1h1v1h1v1h1v1h1v1h1v1h1v1h1v1h1v1l1,1v1h1v1h1v1h1v1h1v1h1v1l1,1v1h1v1h1v1h1v2h1v1h1v2h1v1h1v2h1v1h1v2h1v2h1v1h1v2h1v2h1v2h1v2h1v2l1,1v2h1v2l1,1v2h1v3h1v4h1v4h1v5h1v9h1v13l-1,1v8h-1v5h-1v4h-1v4h-1v3h-1v3h-1v2h-1v3h-1v2h-1v2h-1v2h-1v2h-1v2h-1v2h-1v1l-1,1v1h-1v2h-1v1h-1v2h-1v1h-1v1h-1v2h-1v1h-1v1l-1,1v1h-1v1h-1v1h-1v1l-2,2v1h-1v1h-1v1h-1v1h-1v1h-1v1h-1v1h-1v1h-1v1h-1v1h-1v1h-1v1h-1v1h-1v1h-2v1h-1v1h-1v1h-1v1h-1v1h-1l-1,1h-1v1h-1v1h-1v1h-2v1h-1v1h-1l-1,1h-1v1h-1v1h-2v1h-1v1h-2v1h-1l-1,1h-1v1h-2v1h-1v1h-2v1h-2v1h-1l-1,1h-1v1h-2v1h-2v1h-2v1h-2v1h-2v1h-2v1h-2v1h-2l-1,1h-2v1h-2v1h-2"/>
<rect x="330" y="128" width="25" height="23" fill-opacity="0" stroke="#ffffff" stroke-opacity="0.5" stroke-width="5.0"/>
<rect x="332" y="130" width="25" height="23" fill-opacity="0" stroke="#113311" stroke-opacity="0.8" stroke-width="5.0"/>
<rect x="331" y="129" width="25" height="23" fill-opacity="0" stroke="#45a249" stroke-opacity="0.9" stroke-width="5.0"/>
<rect x="691" y="0" width="309" height="309" fill="#ffffff" fill-opacity="1.0"/>
<rect x="694" y="3" width="302" height="302" fill="#000000" fill-opacity="1.0"/>
<rect x="700" y="0" width="300" height="300" fill="#70add3" fill-opacity="1.0"/>
<path class="zl" d="M752,4l2,-4h8l1,1l1,8v2l-2,-3l-1,-1v1h-2l-1,3v3l-1,2l-1,6v2l2,-1h1l3,2l2,2v2l-5,3l-2,-1h-1l-1,1l-1,2v1l-3,6l-3,-2l-2,1h-1l-2,-4v-2l2,-2v-1l1,-2l2,-3l1,-1v-2l1,-4v-2l1,-2l1,-4Z"/>
<path class="zp" d="M754,0h8"/>
<path class="zl" d="M745,27l-1,2l-2,2h-3l-3,-2l-1,2h-2l-1,-3l2,-6l2,-2v-3l-2,-5l1,-3l6,-2l4,-3h2l1,2l1,9l-5,7ZM889,110l1,2h-1l-4,1l-4,2l-2,2l-1,3l-11,-2l-2,-1h-2l-3,1l-5,3h-1l1,-4l1,-2l5,-5l3,1h5l5,-1l3,-2l5,-1l4,3ZM812,126l1,3l3,-2h8l5,1l2,1v4l-1,1l-22,3l-3,-1v-1l2,-3l-1,-2l1,-2l3,-2ZM700,154v-14l2,2h2l2,1l6,-3h3l5,-1l2,-1l2,1h2l6,5h3l3,-1l1,-1l2,-4l1,-1l11,-5l2,-2l-6,-2l3,-3h3l2,2l1,6l-2,1l-5,5l2,2l-1,2h-2l-5,1l-5,3l-2,1h-4l-4,-1l-3,1l-9,4l-7,2l-1,-2l-1,-1h-6Z"/>
<path class="zp" d="M700,154v-14"/>
<path class="zl" d="M705,3v-3h24l-3,1l-2,3v2l1,4l-1,2h-4l-10,-2l-5,-3Z"/>
<path class="zp" d="M705,0h24"/>
<path class="zl" d="M824,154v3l2,2l4,-2h1l1,1v3l-2,2h-4l-1,1v1l1,2l1,1l1,2l1,4l-2,2l-1,4l-5,3l-4,5l-4,3l-6,6h-3l-5,1l-7,4l-8,2l-4,-2l-1,-1v-2l1,-2l2,-1l1,-2l-4,-2l-1,-2l2,-4l1,-5l1,-3l6,-6l4,-3l2,-1v2l2,1h7l4,-4l1,-2v-2l4,-1l11,-7ZM994,121l-2,3h-2l-5,-5l1,-3v-1h2l5,1l1,2ZM924,125l6,2l4,-1l1,2l-4,3l-7,-3l-1,-2ZM724,33l-2,1l-4,-4l-2,-4v-1l1,-2h1v-2l1,-1h2l1,2l2,1l1,2ZM757,223h-4l-1,-3l1,-2l8,-2l6,-6l3,-2h1v3l2,2v1l-4,2l-3,4l-7,2ZM802,133l-2,2l-1,4l-4,2l-2,-4h-3l1,-3l2,-1h2l1,1l5,-5h1l1,1ZM790,131l-5,1l-3,4h-3l-1,2v3h-1l-2,-1l-2,2h-1l-3,-2l-2,1l-1,-1l3,-3l5,-4h-2l-1,-1v-1h5l2,1l7,-4l4,2ZM769,134l-1,2h-9v-2l2,-3h1l3,-1l4,1ZM794,51l-1,2l-1,-2l-1,-1v-2h2ZM779,26v4h-2l-1,-1v-3h1ZM954,93l-2,1l-2,-2h-1l3,-3l2,2v1ZM910,108l-2,1l1,-2v-2h3v3ZM773,202l-4,1v-2l3,-4l2,-1l1,2l-3,1ZM720,213h-2l-3,-1l-1,-1l3,-1l2,-3h5l-1,3ZM757,141l-1,2l-2,-1v-2l1,-1l3,-2h3l2,1l-4,1ZM999,254l1,-2v3Z"/>
<path class="zp" d="M1000,252v3"/>
<path class="zl" d="M779,276h-1Z"/>
<path class="zh" d="M808,163l-1,2v2l-3,3v3h-1v1h-2v-3l-2,-2v1h-1l-1,1h-1l-3,-3h1l3,-1h1l1,-1v-1h1l2,-1l5,-1ZM824,155l1,-1h1l2,-3v-1h2v-5h1v-1l1,-1h5l1,-1l2,-1h4l2,-1l1,1h1l1,-1h3l4,-2h2l5,2h1l2,-1h4v-1l2,-1h1l1,-1h2v1h3l1,1h2l2,-1l1,-1h4l1,-1l4,-2l1,-1l1,1l2,1h3l1,-1h1v1h1l2,1l1,1l-3,3l-2,1l-5,5h-1l-4,2l-1,1h-6l-1,1h-2l-2,2l-1,2l-1,1l-2,1l-10,1v1l-3,1l-4,3h-3l-1,1h-3l-2,1h-3v1h-1l-2,1l-4,1l-1,1l-2,1l-2,2v1h-3l-1,1h-1l-1,1v-2h-1v-3h-1l-2,-2v-2l1,-1h2l1,1h1v-1h2v-6h-1l-1,-1h-1v2h-2l-1,1h-2v-3ZM846,128h1l2,-2v2l-1,3l-1,1v1l-1,-1h-1l-1,-1l2,-2Z"/>
</svg>
