<?xml version="1.0" encoding="UTF-8" standalone="no"?>
<svg xmlns:svg="http://www.w3.org/2000/svg" xmlns="http://www.w3.org/2000/svg" xmlns:xlink="http://www.w3.org/1999/xlink" height="1000" width="1000">
<!-- made with pythonshp (GPL): github.com/sanjayrao77/pythonshp , underlying data may come from naturalearthdata.com -->
<!-- 
COPYRIGHT: THIS SVG FILE IS RELEASED INTO THE PUBLIC DOMAIN
 -->
<!-- 
vars : {
	'cmdline' : 'pythonshp.py publicdomain wiki1 tonga locatormap'
	'title' : 'Tonga locator'
	'version' : '1.0.5'
}
 -->
<defs>
	<radialGradient id="watergradient" cx="500" cy="500" r="500" fx="500" fy="500" gradientUnits="userSpaceOnUse">
		<stop offset="0%" stop-color="#70add3"/>
		<stop offset="11%" stop-color="#6eaad0"/>
		<stop offset="22%" stop-color="#6ca7cc"/>
		<stop offset="31%" stop-color="#6ba5c9"/>
		<stop offset="41%" stop-color="#69a2c6"/>
		<stop offset="51%" stop-color="#679fc2"/>
		<stop offset="59%" stop-color="#669dbf"/>
		<stop offset="67%" stop-color="#649abc"/>
		<stop offset="75%" stop-color="#6297b9"/>
		<stop offset="81%" stop-color="#6095b6"/>
		<stop offset="87%" stop-color="#5f92b2"/>
		<stop offset="92%" stop-color="#5d8faf"/>
		<stop offset="95%" stop-color="#5b8dac"/>
		<stop offset="98%" stop-color="#598aa8"/>
		<stop offset="100%" stop-color="#5685a2"/>
	</radialGradient>
	<radialGradient id="landgradient" cx="500" cy="500" r="500" fx="500" fy="500" gradientUnits="userSpaceOnUse">
		<stop offset="0%" stop-color="#dddddd"/>
		<stop offset="11%" stop-color="#d7d7d7"/>
		<stop offset="22%" stop-color="#d1d1d1"/>
		<stop offset="31%" stop-color="#cccccc"/>
		<stop offset="41%" stop-color="#c6c6c6"/>
		<stop offset="51%" stop-color="#c0c0c0"/>
		<stop offset="59%" stop-color="#bbbbbb"/>
		<stop offset="67%" stop-color="#b5b5b5"/>
		<stop offset="75%" stop-color="#afafaf"/>
		<stop offset="81%" stop-color="#aaaaaa"/>
		<stop offset="87%" stop-color="#a4a4a4"/>
		<stop offset="92%" stop-color="#9e9e9e"/>
		<stop offset="95%" stop-color="#999999"/>
		<stop offset="98%" stop-color="#939393"/>
		<stop offset="100%" stop-color="#888888"/>
	</radialGradient>
	<radialGradient id="bordergradient" cx="500" cy="500" r="500" fx="500" fy="500" gradientUnits="userSpaceOnUse">
		<stop offset="0%" stop-color="#444444"/>
		<stop offset="11%" stop-color="#3f3f3f"/>
		<stop offset="22%" stop-color="#3a3a3a"/>
		<stop offset="31%" stop-color="#363636"/>
		<stop offset="41%" stop-color="#323232"/>
		<stop offset="51%" stop-color="#2d2d2d"/>
		<stop offset="59%" stop-color="#292929"/>
		<stop offset="67%" stop-color="#242424"/>
		<stop offset="75%" stop-color="#1f1f1f"/>
		<stop offset="81%" stop-color="#1b1b1b"/>
		<stop offset="87%" stop-color="#161616"/>
		<stop offset="92%" stop-color="#121212"/>
		<stop offset="95%" stop-color="#0e0e0e"/>
		<stop offset="98%" stop-color="#090909"/>
		<stop offset="100%" stop-color="#000000"/>
	</radialGradient>
</defs>
<style type="text/css">
<![CDATA[
.c1 {stroke:#45a211;fill-opacity:0}
.c3 {stroke:#45a211;fill-opacity:0;stroke-width:3}
.fs {font:14px sans;stroke:#ffffff;stroke-width:2px;stroke-opacity:0.8;text-anchor:middle}
.ft {font:14px sans;fill:#000000;fill-opacity:1;stroke-opacity:0;text-anchor:middle}
.sb {stroke:url(#bordergradient);fill-opacity:0}
.sg {stroke:#000000;fill-opacity:0.0;stroke-opacity:0.2}
.sh {fill:#45a211;stroke:#000000}
.sl {fill:url(#landgradient);stroke:url(#bordergradient)}
.sp {stroke:url(#landgradient);fill-opacity:0}
.sr {stroke:url(#watergradient);fill-opacity:0}
.sw {fill:url(#watergradient);stroke:url(#watergradient);stroke-opacity:0.8}
.tb {fill:#eeeeee;stroke:black;stroke-width:2}
.tg {stroke:black;stroke-opacity:0.2;fill-opacity:0}
.th {fill:#45a211;stroke:#378100}
.tl {fill:#aaaaaa;stroke:black}
.w1 {stroke:#ffffff;fill-opacity:0;stroke-opacity:0.6}
.w3 {stroke:#ffffff;fill-opacity:0;stroke-opacity:0.6;stroke-width:3}
.zh {fill:#45a211;stroke:#115511}
.zl {fill:#dddddd;stroke:#444444}
]]>
</style>
<circle cx="500.0" cy="500.0" r="500.0" fill="url(#watergradient)"/>
<path class="sl" d="M675,32h1h-1h2l1,1h1l1,1h2l1,1h2l1,1h1l1,1h2l1,1h1l1,1h1l1,1h1l1,1h2l1,1h1l1,1h2l1,1h1l1,1h1l1,1h1l1,1h1l1,1h1l1,1h2l2,2h1l1,1h2l1,1h1l2,2h2l1,1h1l2,2h1l1,1h1l1,1h1l2,2h2l1,1h1l2,2h1l1,1h1l1,1h1l2,2h1l2,2h2l3,3h1l2,2h1l1,1h1l1,1h1l3,3h1l1,1h1l2,2h1l2,2h1l3,3h1l1,1h1l3,3h1l3,3h1l4,4h2l4,4h1l5,5h1l5,5h1l6,6h1l7,7h1l8,8h1l13,13h1v1l11,11v1l9,9v1l6,6v1l6,6v1l5,5v1l3,3v1l1,1v1l4,4v1l4,4v1l3,3v2l3,3v1l3,3v1l2,2v1l1,1v1l3,3v1l2,2v2l3,3v1l2,2v1l1,1v1l1,1v1l2,2v1l1,1v1l1,1v1l1,1v-1h-1h1h-1v-2h-1h1h-1v-1l-1,-1v-1v2h1l-2,-2v-1h-1v-1v1v-1l-1,-1l1,1v1l-1,-1v-1v1v-1l1,2v1l1,1v1h1v2l-1,-1v1v-1l1,1v3h1v1l1,2l1,1v1l-1,-1l1,1v1h1v2l1,1v1l2,2l1,3l1,1v1l1,1l1,3v1l2,5l2,3v2h1l2,6v1h1v2l3,6l1,1v1l1,1v1v-1h-1v-1l-1,-1l-1,-3l2,4v1h1v1l1,2l1,3l1,1l2,4l2,6l1,2v1l1,1l1,2v1v-1v1l1,1l-1,-1l2,2v1l1,2l1,1v1v-1h1v-1v1h1v1v-1l-1,-1v-2l-1,-1l-1,-3v-2l-1,-2v-1l-1,-1v-2h-1v-3h-1l1,1v1l1,1v2l1,1v1l1,1v2l1,1v1l1,1v2l1,1v2l1,1v2l1,1v2l1,1v2l1,1v2l1,1v2l1,1v1l1,2v2l1,1v2l1,2v1l1,2l-1,-1l1,1v3l1,1v2l1,1v3l1,1v3l1,1v3l1,1v3l1,1v3l1,1v1l-1,-2v-3l-1,-1v-1v1v-3l-1,-2l-1,-1v-2l-1,-2v-1l-1,-1v-1l-1,-2l-2,-6l-1,-2v-2l-1,-2l-1,-3l-1,-1v-2l-1,-1v-1v1l1,1v1l-1,-2l-1,-1v-1v2l-1,1l-1,-1l-1,-2l-1,-1l-1,-3l-1,-1l-1,-2h-1v-1l-2,-2l-1,-2v-1l-4,-4v-1l-1,-1v-1l-1,-2h-1v-1h-1l-1,-1v-1l-3,-3v-1l-1,-1l-1,-2l-2,-2v-1l-2,-2l-1,-2v-1l-3,-3v-1l-1,-2v-3l-1,-1v-2l-1,-1v-2l-1,-1v-1l-2,-2l-2,-6l-1,-1h-1l-1,-3l-1,-1l-1,-2l-1,-1l-2,-3l-1,-1l-3,-4l1,1v-1h-1v-1h-1v-1h-1v-1l-1,-2h-1h1l-3,-3v-1h-1v-1v1h-1v-1l-2,-2l-1,-2v-3h-1v-1l-1,-1h-1l-1,-1v-1l-1,-1l-2,-1v-1l-1,-1v-1l-2,-2v-1h-1v-1v1l-2,-2l-2,-3l-1,-1h-1v-1l-3,-3v-1l-3,-3l-1,-2l-1,-1v-1l-2,-2l-1,-2l-2,-2v-1h-1v-2h-1l-1,-1h-1v-1h-1v-1h-2l-2,-2h-1v-1h-1h1l1,1v1l1,3h1v1l1,2l2,2l1,2l2,2v1l2,2l2,1v1l4,4l2,3h1v1l1,1v1l3,3l1,2l2,2v1h1v1l3,3v1h1v1l2,2v2l3,3v1l1,2l2,2v1l1,1l1,2l1,1v1l1,1v-1l-1,-1l2,1v2h1v1l1,1v1h1l1,1v1l1,1v1h-1v1l-1,-1l-1,-2l-1,-1v-1l-7,-7l-1,-2l-1,-1v-1l-2,-1v-1l-1,-1v-2l-1,-1v-1h-1v-1l-1,-1l-1,-3h-1l-4,-4v-1l-1,-1v1h-1v-1h-1v-1h-1l-1,-1v-1h-2v-2h-1l-2,-2v-1h-1v-1l1,1h2v1h1v1v-1l-1,-1v-1l-1,-1v-2l-7,-7v-1h-1l-1,-1l-2,-1v-1l-1,-2h-1v-1l-1,-1v-1h-1l-1,-1v-1l-3,-3v-1l-2,-1l-1,-1v-1l-1,-1v-1l-2,-1l-1,-2l-2,-2v-1h-1v-1l-2,-2l-1,-2l-2,-2h-1l-1,-1h-1v-1v1l-3,-3h-1l-1,-1h-1v-1l-1,-1h-2l-1,-1h-2l-1,-1v-1h-1v-1l-1,-1v-1h-1l-1,-1v-1h-1v-1l-1,-1h-1l-1,-1h-1v-1l-2,-2l-2,-1v-1h-1v-2l-1,-1h-1l-5,-5v-1v1h1v1h1l1,1v-1h-1l-1,-1v-1h-1v-1h1h-1l-1,-1h-1l2,2h-1v-1h-1l-1,-1v1v-1h-1v-1l1,1l-1,-1h-1l-8,-8v-1l-2,-2l-4,-2v-1l-1,-1v-2h-1v-1l-1,-1v-1h-1l-1,-1v-1h-1v-1l-1,-1h-1l-1,-2l-3,-3v-1l-2,-1v-1l1,1v-1h-1v-1l-2,-2l-1,-2l-5,-5v-1l-4,-4h1l1,1v-1v1h1h-1v-1h-2l-3,-3v-1h-1l-1,-1h-1l-1,-1l-1,-2h-1l-2,-1l-2,-2v-1v1h1l1,1h1l3,1h2l2,2v1l1,1l-1,-1v-2l1,1v1h1v1h1v1l-1,-1l1,1l-1,-1v1h1v-1l-2,-2v-1h-1l-1,-1l1,1l-1,-1h-1h1h-1v-1h-1v-1v1v-1h-1v-1h-2v-1h-1v-1h-1l1,1h-1v-1h-1v-1h-1v-1h-1v-1v1h-2v-1h-1l-1,-1h1v1h1h-1v-1h-1l-1,-1v-1h-1l2,2h-2l-2,-2l-2,-1l-1,-1v-1h-1v-1h-1l2,2h-2v-1h-1h1v1l-1,-1h-3v-1h1h-2v-1h-1v-1v1h-1l-1,-1h-1l-2,-1l-2,-2h1h-2v-1h-1l-2,-2h3v1h1h-1v-1h-2v-1l-1,-1v2l1,1v1l-1,-1l-2,-1l1,-1h-1v-1v1h-1v-1l-1,-1h-2l-1,-2h-1l-1,-1h-2l-1,-1h2l1,1h2v1h1l-1,-1h-3l-1,-1v-1h-1v2h1h-1l-1,-1h-2l-1,-1h-1v-1l-1,-1h1h-2l-1,-1h-1v-1h-1h1l-1,-1v-1h-1v-1h-1h1v1h1h-1l-1,-1h-1v-1h-1v-1h-1h1v1h1l2,2v1h-1l-1,-1h-1v-1h-1h1h-1v-1h-1l-1,-1h-1l-1,-1h-1v1h-1l-1,-1v-1h-1v-1h-2v-1h-2l-1,-1h-1l-1,-1l-3,-1h-1l-1,-1h1l-2,-1h-1h1l-1,-1v1l-1,-1h-1l-1,-1h-1v-1v1h-1v-1h-2l-1,-1h-1l-2,-2h-2v-1h-1h1v1h1l1,1h1l1,1h1l1,1h-4v-1h-1l-2,-2v1h1h-2v-1h-1v1h2l1,1h2v1l-1,-1v1h-1l-1,-1h-1l-2,-1h-2v-1h-2l-1,-1h-1l-1,-1h-3l-2,-1h-1h1v-1h-1h1l1,1l-1,-1h1h-1l-1,-1h-1v1h-3l-3,-1l-1,-1v1l-2,-1h-8v-1h-2l-1,-1h-1v-1h-1v1h-2l-1,-1h-2v-1h-1v1v-1h-2v-1h1h-1l-1,1v-1h-1v1v-1h-1v1h-1v-1h-1l-1,1v-1v1h1v1v-1h2v2h-3l-1,-1v1h-1h1v1l-1,-1v1h-2v1h-4v-1h-1h2v-1h-3v-1h1v-1h-1v-1h1l1,-1h1v1h2l-2,-1l1,-1h1h-2v1h-2v-1h-1l-1,1h-2v1h1h-2v1h1h-1v1h-1v1h-1v-1v1h-1h1h-2v1h2v1h3v1h-2v1h-1h1h-1l-1,1h-3v1h-2l-1,1h1v1h-4v1h-4v1h1v1h-1v-1v1h-4v1v-1h-2v1h-4v1h-2v-1h1h-2l-1,1h-1v1h-1v-1h-2l1,1h-4v-1h3l2,-2h2l2,-1v1h3v-1l1,-1h2l2,-1h2v-1l1,-1h2v-1l-1,-1h2l-1,-1h-1v-1h1v-1l-2,1h-3l-1,-1h1l-1,-1h-1v1h-1l1,1h-1l-2,-1h-4v-1h-2v1h-4l-1,-1h1h-2v-2h-1l-2,-2h-1l1,-1h1h-2v1h-1h1v1h-7l-2,-2h-4l2,-1h3v1v-1h1l1,1h1v-1h-7v-1h1h-3l-1,-1h-2v-1h1h-1h1v-1h1l1,-1h1v-1h1h-1l1,-1h2l1,1h3v-1h6v-1l-1,-1h-2v-1h1h-1v-1l-1,1h-4v1l-1,-1h-1h1h-12l-1,-1h-1l-1,-1h1h-3l-3,-1h4v-1h6l1,-1h3v1h1l2,1h5v-1h2v1v-1h-4l-1,-1h-1h2v1h1v-1h-3v-1l-1,1h-1l-2,-1h-2l-1,-1l-5,-1h-4v-1v1h1v-1h7l1,-1v-1h6l1,-1v1h1l-1,-1h10v1h2v-1h1l1,1h7v1h9l1,1h6l2,1h8l1,1h4l1,1h4l3,1h2l1,1h5l1,1h2l2,1l-1,-1h-2v-1h-1h4v1h1v-1l1,1l-1,-1h1v1v-1h2l1,1v-1v1h1h-2v1h1h1h-1v-1h-1h2v1v-1l1,1h1h-1v-1h-1h2l1,1v-1h-2l-1,-1h1l1,1h1l2,1h3l2,1h1l1,1l-1,-1h-2v-1l1,1h3v1h5l1,1l3,1h1l2,1h3l1,1h3v1h1l-1,-1h-1h1v1v-1v1h2l2,1h2v1h2l1,1h3v1h3v1h2l1,1h2Z"/>
<path class="sp" d="M675,32h2l1,1h1M681,34h1l1,1h2l1,1h1l1,1h2l1,1h1l1,1h1l1,1h1l1,1h2l1,1h1l1,1h2l1,1h1l1,1h1l1,1h1l1,1h1l1,1h1l1,1h2l2,2h1l1,1h2l1,1h1l2,2h2l1,1h1l2,2h1l1,1h1l1,1h1l2,2h2l1,1h1l2,2h1l1,1h1l1,1h1l2,2h1l2,2h2l3,3h1l2,2h1l1,1h1l1,1h1l3,3h1l1,1h1l2,2h1l2,2h1l3,3h1l1,1h1l3,3h1l3,3h1l4,4h2l4,4h1l5,5h1l5,5h1l6,6h1l7,7h1l8,8h1l13,13h1v1l11,11v1l9,9v1l6,6v1l6,6v1l5,5v1l3,3v1l1,1v1l4,4v1l4,4v1l3,3v2l3,3v1l3,3v1l2,2v1l1,1v1l3,3v1l2,2v2l3,3v1l2,2v1l1,1v1l1,1v1l2,2v1l1,1v1l1,1v1l1,1M964,315l1,1v1l1,1v2l1,1v1l1,1v2l1,1v1l1,1v2l1,1v2l1,1v2l1,1v2M974,340v2l1,1v1M980,361l1,1v3l1,1v2l1,1v3l1,1v3l1,1v3l1,1v3l1,1v3l1,1v1M673,31h1"/>
<path class="sl" d="M380,15h-3l-1,1h-1h1h-3l-1,1l1,-1l-1,1h-1h1h-3v1v-1v1h-1h1l1,-1h3l2,-1h3l1,-1h5v-1h5l1,-1h-1h2l2,-1h3l1,-1h7l1,-1h1l-1,1h1v-1v1h-4l-1,1h-1h1l1,-1h4l1,-1h4l-2,1h-1h1h-1h9l2,-1h10v1h-2h2v1h-1v1h-2l-1,1l1,-1h3v-1h1l2,-1h14l2,-1h2v1h-1h3v1l2,-1h3v-1h-1h1v-1h23l1,1h6l1,1h1h-1h4v1v-1l1,1l7,1h1h-1v1h1l-1,1h3l1,-1h-2h10l1,1h3v1v-1h1v1h1h-2v1h-2l-1,-1v1h1h-4v1h-1h1h-1l-1,1h-1h3v1h-1v-1h-1v1h-1v-1h-1v1h-2l-1,-1h-5v-1h-1v-1h-10v-1h-1h2v-1l-1,1h-1v-1h-1v1h-2v1h1l-1,1h-2l-1,1h-8l-2,-1v1l-1,-1l-1,1h-4l-3,1h1l2,-1h4l-1,1l2,-1h3v1h3v1h1v1h-1h2v1h1v1h1h-1l-1,1h-8v-1h1h-2v1h1h-4l-3,1h-2l-1,1h-3l-2,1v-1l-2,1h-2v1h-3v1h-3l-1,1h-3l-1,1h-1l-1,1h-2l1,-1h-2v-1l-2,1h-7l-1,1l-3,1h-1v-1h1l1,-1h-1l-1,1h-3l-1,1h-1l-1,1l-1,-1h-1l-1,1v-1h-1l-1,1h-2v1h-1v1h-2v1h-1l-1,1h-1l-2,1l-1,1h-1v1h4v1h-2l-1,1v1h-1v1h1v1l-1,1h-2v-1h1h-2v1h-2l-2,1l-2,2v2l-1,1h-1l-1,1h-1l-1,-1l-1,1h-2l-2,1h-1v1h-1l-1,1v1h-1v2h-1v-1h-1l-3,1h-1l-1,1h-1l-2,2v1l-6,3h-1v1h-1l-4,2h-1h1v-1h-1l1,-1l2,-4v-2h1l2,-3v-1l2,-4l1,-1h1l1,-2l2,-1l3,-3h1l3,-1l1,-1h1l1,-1v-1h3l2,-1h2l1,-1h2l2,-1h1v-1h2l2,-2l3,-1h3l2,-1l1,-1h2l1,-1h1l1,-1h2l2,-1h3v-1h2v-1h1v-1h1l1,-1h1v-1h3l-1,-1l-5,1v1h-2v1h-1v1h-4l-6,2l-1,1h-3l-1,1l2,-2h-1l-1,1v-1h2l2,-2h1h-7l-1,1h-5l-1,1h-1l-1,1h-1l-2,1h-2l-1,1h-1l-2,1l-3,1l-1,1h-2v1h-1h3v1h-4l-1,1l-1,-1h-1l-1,1h-1l-1,1h-1v-1h-1v1h-4l2,-1h2l-1,-1h-2v1h-1v-1h-4l-1,1h-2v1h-3l-2,1h-2l-1,-1v1h-2l-1,1v-1l-4,1h-5l-4,2h-1l-3,1l-1,1h-1l-2,1h-1l-1,1l-2,1h-1l-2,1l-1,1h-1l-1,1h-2l-1,1l-2,1l-3,1h-1v1h-1l-3,1v1h-1l-2,1h-1l-1,1h-2v1h-2l-2,1l-1,1l-2,1h-1v1h1l1,-1h2v1h-1l-2,2h-1v1l1,-1l4,-2h1l-2,1v1h-1l-1,1h-1h2l2,-1l1,-1h1h-1l-2,2h1l3,-3h1v-1h4v2h1h-1l1,1l-1,1h-2v2h-1l-1,1v1h-1l-2,2l-2,1l-2,2h-1l-2,2l-2,1l-1,2h-1l-1,1v1h-1l-1,2h-1l-4,4h-1l-2,2h-1l-2,2l-4,2l-3,2l-1,1h-1l-4,4l-3,2h-1l-2,2l-2,1l-2,2h-1l-1,1l-2,1l-1,1h-1v1h-1l-1,1l-3,2h-1v1l-2,1l-2,2l-2,1l-3,1l-1,1l-4,2h-1l-1,-1v1v-1l1,-1v-1l-2,2h-1l1,-1h1h-2l-3,3h-1v1h-2v1l-2,1v1h-2v1h-1l-2,2h-1v1l-1,1h-1v1l-3,3l-2,1l-3,3h-1l-2,2h-1l-1,1h-1l-2,1v1l-2,2h-1v1h1v3l-1,2v2l-1,1v2l-2,4h-1v1l-2,2v2l-6,6h-2l-1,1v1h-1v-1l-1,1h-1v1h-1v1v-1l-1,1v1h-1v1v-2h1l-2,1l-2,2h-1h1v-2h1v-1h1h-1v-1h1v-1l3,-3v-1h1l1,-1v-2h1v-2h1v-1h-1h1v-1l1,-1h1v1l1,-1v-1l1,-1v-1l1,-1v-1h1l-1,-1l-1,1v-1h-1v1h-1l-1,1v-1l1,-1h-1h1v-1l3,-3h1h-1l1,-1l2,-3h1v-2h-1v1h-1h1v-1h-1l-1,1v-1l-1,1h-1v1h-1l-1,1l-3,2l-1,1h-1v1h-1v1h-1l-1,1h-1v1h-1l1,-1h1l2,-2v-1h1v-1l-1,1v-1l1,-1h1v-1h1l4,-4h1v-2h1v-1h-1v1v-1l-1,1h-1v1h-1l-6,6h-2l-2,2v1l-1,1l-2,1v1h-2v1v-1h-1v1l-3,3h-1v2h-1v1h1l1,-1v2h-1v1h-1v1l-1,1v1h1l5,-5l2,-1v2h1v-1h2v1l-1,1h-1v1h-1v1h-1h1v-1h-1v1l-1,1l-2,1h-1v1h-1v1h-1l-2,2v1h-1l1,-1h-1v1h-1v1l-9,9h1v1l1,1l-1,1l-1,2v1h-1v1l-1,2v1l-1,1v1l-1,1h1v1l-1,1v1h1l-1,1v1h-3l1,-1h-1l-2,1v1l2,-2v7h-1l-2,2l-2,1v1h-1v1h-1l-1,1h-1h1l1,-1l-1,2l1,-1l2,-1v1l1,1l-2,2h1l-1,1l-1,2h-1l-1,1v2h-1v1h-1v3h-2v1v-1l-2,2v1l-2,2v1l-2,2v1h-1v1l-1,2l-2,2v-1h-1v3h-1v1l-3,3h1v-1h1h-1v1l-1,1v2l-1,1v-1l-1,1v1h-1v1h-1v2h-1v1h-1h1h-1v1l-1,1h-1v1h-1v2l-2,2v1l-1,1h-1v2h-1h1v-1l-1,1h-1l-1,2l-1,1h1h-1v1l-1,1v1h-1v1h-1l-1,1h-1v1v-1l-1,1v1h-1v1v-1l-1,1v1v-1l-1,1h-1l1,-1h-1l1,-1v-1l-1,1v2l-1,2v1h-1v1l-1,1v-1v1l-1,1v1v-1l-1,1v1h-1v-1h1v-1v1h-1v1h-1v1h-1v2h-1v1h-1v1h-1v1l-1,1v-1v1l-1,1v1l-1,1h1h-1v3l-2,2v-1h1v-4l1,-1v-1l1,-1v-1h1h-1v-1v1v-2v2l-1,1v-2l-1,1v1v-1v1h-1v1h-1v1l-1,1v2h-1v1h-1v1l-1,1v1l-1,2v1l-1,1l-1,2v1l-2,3v2l-1,2v1h-1v3l-1,1v4l-1,1v5l-1,1l1,1v1h-1v2l1,-1v2h-1h1l-1,1v6l-1,1v4l-1,1v4l-1,2v3h-1v4l-1,1v2l-1,3v3h-1v2l-1,1v2l-1,1v1l-1,1l-2,4v1h-1v1v-1l-1,1h1v1h-1v4h-1v2v-2h-1v5l-1,3l-1,1v3l-1,1l1,-5v-3l1,-2v-6l-1,1v1v-2h1v-2l-1,1v-1l1,-1v-6l1,-1v-1l-1,1v-1l1,-1h-1h1v-2l-1,1v1v-2l1,-2v-2l-1,1v2l-1,3v1l-1,2v4l-1,2v2l-1,3v2l-1,3v2l-1,1v5h-1v8l-1,1h1l-1,1v7l-1,1v1l1,-2v-1l-1,1l1,-1v-1l-1,1v5h1v5l-1,2v3h-1v1v-2l1,-1v-4h-1l1,-1h-1v2v-3l1,-2v-10l1,-2v-4l1,-2v-3l1,-4v-1l1,-2v-5h1v-4l1,-1l-1,1v-1h1v-4l1,-1v-3l1,-1v-3l1,-2v-3h1v-1l-1,3v-2l1,-1v-2l1,-1v-3l1,-3v-1l1,-1l1,-5v-1l1,-1v-3l1,-1v-2l1,-1v-2l1,-1v-2l1,-1v-2l1,-1v-3l1,-1v-1l1,-1v-2l1,-1v-1l1,-1v-2l1,-1v-2l1,-1v-2l1,-1v-2l1,-1v-1l1,-1v-2l1,-1v-1l1,-1v-1l1,-1v-2l1,-1v-1l1,-1v-2l1,-1v-1l1,-1v-1l1,-1v-1l1,-1v-2l1,-1v-1l1,-1v-1l1,-1v-2l2,-2v-1l1,-1v-1l1,-1v-2l1,-1v-1l1,-1v-1l2,-2v-1l1,-1v-1l1,-1v-1l1,-1v-2l2,-2v-1l1,-1v-1l1,-1v-1l1,-1v-1l2,-2v-1l1,-1v-1l1,-1v-1l2,-2v-1l2,-2v-1l1,-1v-1l2,-2v-1l1,-1v-1l1,-1v-1l3,-3v-1l2,-2v-1l1,-1v-1l2,-2v-1l2,-2v-1l3,-3v-1l1,-1v-1l3,-3v-1l3,-3v-1l2,-2v-1l3,-3v-1l3,-3v-1l1,-1h1v-1l2,-2v-1l5,-5v-1l4,-4v-1l1,-1h1v-1l6,-6v-1l4,-4v-1h1l1,-1v-1l1,-1h1l1,-1v-1l22,-22h1v-1l1,-1h1l1,-1v-1l1,-1h1l6,-6h1v-1l1,-1h1l6,-6h1l1,-1v-1h1l2,-2h1v-1l1,-1h1l3,-3h1l4,-4h1l1,-1v-1h1l1,-1h1l3,-3h1l3,-3h1l2,-2h1l3,-3h1l3,-3h1l1,-1h1l3,-3h1l2,-2h1l2,-2h1l1,-1h1l2,-2h1l1,-1h1l1,-1v-1h1l1,-1h1l1,-1h1l2,-2h1l1,-1h1l1,-1h1l1,-1h1l2,-2h1l1,-1h1l1,-1h1l2,-2h1l1,-1h1l1,-1h1l1,-1h1l2,-2h1l1,-1h1l1,-1h2l1,-1h1l1,-1h1l2,-2h1l1,-1h2l1,-1h1l1,-1h1l1,-1h1l1,-1h1l1,-1h1l1,-1h2l1,-1h1l1,-1h2l1,-1h1l1,-1h1l1,-1h1l1,-1h2l1,-1h1l1,-1h2l1,-1h2l1,-1h2l2,-2h2l1,-1h2l1,-1h2l1,-1h2l1,-1h2l1,-1h2l1,-1h2l1,-1h2l1,-1h3l1,-1h2l1,-1h1l1,-1h3l1,-1h2l1,-1h3l1,-1h3l1,-1h3l1,-1h2Z"/>
<path class="sp" d="M20,361v-2l1,-1v-3l1,-1v-2l1,-1v-2l1,-1v-2l1,-1v-2l1,-1v-3l1,-1v-1l1,-1v-2l1,-1v-1l1,-1v-2l1,-1v-2l1,-1v-2l1,-1v-2l1,-1v-1l1,-1v-2l1,-1v-1l1,-1v-1l1,-1v-2l1,-1v-1l1,-1v-2l1,-1v-1l1,-1v-1l1,-1v-1l1,-1v-2l1,-1v-1l1,-1v-1l1,-1v-2l2,-2v-1l1,-1v-1l1,-1v-2l1,-1v-1l1,-1v-1l2,-2v-1l1,-1v-1l1,-1v-1l1,-1v-2l2,-2v-1l1,-1v-1l1,-1v-1l1,-1v-1l2,-2v-1l1,-1v-1l1,-1v-1l2,-2v-1l2,-2v-1l1,-1v-1l2,-2v-1l1,-1v-1l1,-1v-1l3,-3v-1l2,-2v-1l1,-1v-1l2,-2v-1l2,-2v-1l3,-3v-1l1,-1v-1l3,-3v-1l3,-3v-1l2,-2v-1l3,-3v-1l3,-3v-1l1,-1h1v-1l2,-2v-1l5,-5v-1l4,-4v-1l1,-1h1v-1l6,-6v-1l4,-4v-1h1l1,-1v-1l1,-1h1l1,-1v-1l22,-22h1v-1l1,-1h1l1,-1v-1l1,-1h1l6,-6h1v-1l1,-1h1l6,-6h1l1,-1v-1h1l2,-2h1v-1l1,-1h1l3,-3h1l4,-4h1l1,-1v-1h1l1,-1h1l3,-3h1l3,-3h1l2,-2h1l3,-3h1l3,-3h1l1,-1h1l3,-3h1l2,-2h1l2,-2h1l1,-1h1l2,-2h1l1,-1h1l1,-1v-1h1l1,-1h1l1,-1h1l2,-2h1l1,-1h1l1,-1h1l1,-1h1l2,-2h1l1,-1h1l1,-1h1l2,-2h1l1,-1h1l1,-1h1l1,-1h1l2,-2h1l1,-1h1l1,-1h2l1,-1h1l1,-1h1l2,-2h1l1,-1h2l1,-1h1l1,-1h1l1,-1h1l1,-1h1l1,-1h1l1,-1h2l1,-1h1l1,-1h2l1,-1h1l1,-1h1l1,-1h1l1,-1h2l1,-1h1l1,-1h2l1,-1h2l1,-1h2l2,-2h2l1,-1h2l1,-1h2l1,-1h2l1,-1h2l1,-1h2l1,-1h2l1,-1h2l1,-1h3l1,-1h2l1,-1h1l1,-1h3l1,-1h2l1,-1h3l1,-1h3l1,-1h3l1,-1h3"/>
<path class="sl" d="M14,398v1ZM16,409v-1ZM19,394v-1h1ZM43,309v-1ZM45,305v1v-2ZM44,307v-1h1ZM43,309v-1ZM349,551l1,2h1v-2h1v2l1,2v1l-1,1h-1l-1,1v-1h-1v-3l-2,-3v-1l1,-1v1ZM355,561h1v1l1,1h1l1,1l-1,1h-2v-1l-1,-1v-1h-1l-1,-1v-1h1v-1l1,1ZM364,567h-2v-1h1v1ZM363,563h-3v-1h1v-1h1v1ZM365,573l1,2v1h-3l1,-1h-1v-1l1,-1v1ZM359,555l-1,1h-1l1,-2h2ZM362,560h-1v-4l1,3ZM361,554v1v-1l-1,-2v-1l1,2ZM354,558h-1v-1h1ZM356,545l-1,1h-1v-1l1,-1ZM355,542h-1v-1h1ZM378,596h-1v-1h1ZM375,590l-1,1h-1v-1h-1v-1l1,-1v2ZM373,585l-1,1v-1h-2v-2l1,-1v1l1,1ZM314,378v1l-1,-1ZM141,363l-1,1v-1l1,-1ZM228,369h-1h1v-1h-1h1ZM230,368h-1ZM278,368l-1,1l-1,-1v-1h1ZM369,371h-1h1v-1l1,-1v1h-1ZM362,359h-1ZM385,360h1l1,1l-1,-1ZM381,359l1,1h1h-2ZM201,281h-1ZM197,300h-1ZM191,318h-1ZM195,310v-1h1h-1ZM194,311v-1ZM186,326h-1v-1l2,-2h1l-2,1ZM537,543h-1v-1h1ZM686,55h-1l-1,-1h1ZM687,56h-2v-1h1ZM672,48h-1l-1,-1h1v1ZM624,36h-1ZM628,38h-1ZM613,36h-1h2ZM597,34v-1ZM572,49h-1ZM578,51h-1v-1ZM577,50h-1ZM546,54h-1ZM495,61l-1,1v-1ZM531,16h1ZM514,22h9l1,1h1h-6l-1,-1h-5v-1ZM538,31h2v1h1v1h-4l-2,-1h-1l-1,-1h1l2,1v-1h1ZM600,42h2l1,1h1h-2l1,1h-4v1h1h-2v-1h-1v1l-1,-1h-1l-1,-1v-1h2v1h2v1v-1h-1v-1h1h-1h2v-1ZM558,50l1,1h1h-6v1h-3v-1h1l1,-1h4ZM688,59h1l-1,1v-1h-1v-1ZM698,62h1h-2v-1h-1h1ZM690,57l1,1h-1v-1h-2l-1,-1h1h-1v-1l2,2ZM697,60l1,1h-2v-1v1h-1v-1h-1v-1l-1,-1h1l1,1h1ZM681,53h1h-1h2v1h1v1v-1h-1h1v1h-2v-1h-1l-1,-1h-1v-1l1,1ZM693,61v1v-1h1v1h1h-2l-1,-1h-1l-1,-1h-1v-1l2,1l1,1ZM618,35h1v1h1h-2l-1,-1ZM615,37v-1h1v-1v1h1h-1v1ZM614,35v1h-1v-1ZM611,34h-1v-1h1ZM602,44h-1v1l-1,-1h1ZM600,40v-1l1,1ZM599,42h-1l-1,-1h1ZM594,48v1l-1,-1ZM596,46h1ZM598,46h1ZM571,49h1v1h-2v-1ZM564,51l-1,-1h1ZM563,52h-1ZM575,50h-1v1v-1h-1h1v-1h1ZM547,53h-1v-1h1v1h1ZM548,53v-1h1v1ZM564,38h-1v-1h1ZM510,30l1,1h-1l-1,-1ZM523,41h-1ZM528,57v1h-1v-1ZM523,58v1l-1,-1h2ZM514,60h-1v-1h2ZM525,43h1ZM493,62v-1ZM495,61h-1v-1h1ZM489,62h-1v-1h1ZM466,61h-1ZM470,64h-1l-2,-1l-1,-1l1,1h3ZM441,60h-1ZM674,51h1v1h1l1,1h1l2,2h-1l-1,-1h-1v-1h-2v-1h-1l-1,-1h-1l1,1h-1v-1h-1v-1h2ZM671,48h2l1,1h1v1h1h-1v-1h-1l1,1h1l1,1h1h-1v1h-1v-1h-1l-1,-1h-1v-1h-2v-1h-1v-1h-1h1v1Z"/>
<path class="sl" d="M667,47l1,1h3v1h1h-1h1l1,1h-1l-2,-1v1h1h-2l-1,-1l-2,-1h-1v-1h1ZM684,55v1h2v1h2l1,1h1l1,1h1h-1h1l1,1h1v1h2v1h1v1h-1v-1h-2v-1h-1l-1,-1h-2v-1h-1v-1h-3v-1l1,1v-1h-2v-1h-1ZM680,53l1,1h1h-1l1,1h1v1h-1l-1,-1v-1h-1l-1,-1h-1h1ZM601,40h1l1,1h-5v-1h2ZM537,56h-2v1h-2l-1,1h-1l1,-1h1v-1h2v-1h2ZM543,54h1v-1h1v1h-1h1l-1,1h-3l-1,1h-2l1,-1h2v-1h1v1h1v-1h-2v-1h2ZM508,60h2l-1,1l-2,-1v1l-1,-1h1ZM502,61h-2l1,-1h3v-1h-1h3v1h-2ZM492,61h1v1h-3l1,-1ZM485,62h-1l-1,-1h3v1ZM472,61h-1ZM460,62h-1l1,-1h1ZM437,58h1l-1,1h-1v-1h-1h1ZM658,266h-1l-2,-1v-2l-1,-2l-1,-1h1v-1l1,-1l-1,-1v-1h1l1,1l4,2l1,1v1h1l1,1v1l-2,1h-1l-2,1ZM643,248l2,1h2v1h-1l-1,-1h-2ZM649,251h2l1,1h1v1h-2l-1,1v-1h-1v-1h-1l-1,-1v-1h1ZM638,246v1l1,-1v1l1,1h-2l-1,-1h-1l-2,-2h3ZM625,242v1l-1,-1h-2v-1h1l1,-1h1l1,1v1ZM619,243v-1l1,-1v1h-1ZM646,252h-1l-1,-1h2ZM932,249v-1h-1h1ZM932,254v-1ZM932,253v-1h-1v-1v1h1ZM934,258v1v-1l-1,-1v-2v2ZM930,247v-1ZM939,267l-1,-1l-3,-6l-1,-1l2,3l2,4ZM838,185v-1ZM845,191l-1,-1h1ZM851,195v-1h-1v-1v1ZM840,186h-1v-1h1ZM840,185h2v1h-1ZM849,191h1h-2v-1ZM761,96v1v-1v1v-1h-1ZM761,97h1h-2v-1ZM765,99v1h1v1v-1h-1v-1h-1l-1,-1h1v1ZM768,104h1h-1v-1ZM769,103h-1ZM768,102h-1ZM762,98v-1h-1h1ZM74,528v1ZM74,541l-1,-1v-3h-1v-1l1,-1v-2h1v-1l2,-1h1l2,-1l1,-1v-1h2v2l-1,2h-1v1h-1v1l-1,1h-1v1l-2,2l-1,2ZM69,541v-1l1,-1v2ZM15,389v1ZM15,387v-1ZM6,427v1h-1l1,-1v-1ZM9,410v-1ZM9,411v1ZM5,437v-1ZM6,427v-1ZM7,418v-1ZM6,429v1ZM85,277v1l-1,1v2l-1,1v-5l1,-2v-2l1,-1v-1l1,-1l4,-7l1,-1v-1l2,-2v-1l2,-1v-1h1v3h-1v2h-1l-3,6v1l-2,4l-1,1v1l-2,2ZM83,265v1h-1ZM159,181h-1l1,-1h1ZM156,182h-1h1h-1l1,-1ZM147,186l1,-1h1h-1v1ZM163,164v1h-1ZM154,183h1ZM157,172v1v-2ZM149,184h-1h1v-1ZM179,162v-1ZM143,194v-1l1,-1l2,-1v2h-1l-1,1ZM289,499h-1v-1ZM349,523h-1l-1,-1h1v1ZM342,516h-3v-1h3ZM298,527v1h-1v-1h-1v-1h-3v-1h1l3,2ZM304,508v1h-1v-3ZM286,505h-2l1,-1h1ZM293,503h1v1h1v1h-1v-1h-1ZM274,498l1,1v2h-2v-2h-3v-1h1v-2h2v2ZM278,503h-1l1,-1ZM277,502l-1,1v-1h-1v-1h1v-1l1,1ZM271,503v-1l-1,-1l1,-1v2ZM266,496h-1v-1l-1,-1v-1l1,1h1v1ZM265,498v1v-2ZM269,497v1h-1v-3h1v1l1,1ZM259,490h-1v-1h1Z"/>
<path class="sl" d="M273,503h-1v-1h1ZM290,506l2,1h3l1,1h1l1,1v1h1v1h-3l-1,-1l-3,1l-1,-1h-1v-1l-1,-1v-2ZM291,499v1l-2,-2l-3,-1h-1l-1,-1h-1l-4,-4h2l2,2h2l1,1h1l3,3v1ZM271,490l1,1h-4l-1,-1l-2,-3l-1,-1h-1v-1h1l4,2l1,2l1,1ZM297,497l2,2v2l1,1h1v2h1v1l1,2v1l-2,-2h-1v-1l-2,-2l-1,-3v-1l-1,-1v-1ZM306,515h4l1,2v1h1h-4l-1,-1l-2,-1l-1,-1v-1h-1v-1h1l2,1ZM6,476v-1ZM523,535l1,1v2h-3l-1,-2l-1,-1h3ZM531,540h-4l-1,-1v-1h1l2,1h2ZM271,114h1v1h-1ZM272,115v-1ZM288,64l-1,1h-1v-1ZM355,42h-1h2ZM414,8h-1h1v-1h1v1h-1h1v-1h1h-1l-1,1h-4l-1,1h-1l1,-1h4l1,-1ZM422,6h3l-1,1h-3l1,-1h1ZM483,7h-1h2l1,-1h1v1h-2ZM305,64h-1v1h-1v1h-1v1l-1,1v1h-1l-3,3l-2,1v1l-1,1v1h-1v1l-2,3l-1,1l-1,2v1h-1v1l-1,1v1h1h-1v1v-2h-4l-1,1h-1l-5,5h-1l-2,2v3l-1,1h1v1l-2,2v1h-1l1,-1v-1h1h-2v-1h-1l-2,2h-1l-1,2h-1l-1,1v-1h1l1,-2l4,-4v-1l1,-1h1l3,-3v-1l1,-1l1,-2h1l7,-7v-1h1l1,-1h1l1,-1v-2l1,-1l1,-2h1v-1h1l2,-1l1,-1v-1h1v-1h3l1,-1h1v-1h1v-2h2v-1ZM490,6h2l1,1h-7v-1h3ZM416,53l-2,-1h-1h2ZM433,10h-1v-1h1ZM428,13h1l-1,-1h2v-1h1v1h-2v1ZM436,4v1v-1h1ZM433,5h1ZM384,14l-1,1h-1h1ZM404,10h-1h1v-1h2l-1,1ZM406,9v1h-5l-1,1h-1h1v-1h5ZM407,9h-1Z"/>
<path class="sp" d="M406,9h1"/>
<path class="sl" d="M396,11h1ZM291,63v1v-1v1h-1v1h-3l1,-1h1l1,-1ZM453,10h1ZM405,39h-1h1l1,-1h1l2,-1h2v1h-2l-2,1ZM410,52h-2v-1h-1l-1,-1h3v2ZM336,80h-1l1,-1l2,-1l-1,1ZM349,73h-1v-1h1ZM345,75h-2l-1,1h-1l1,-1h-1h1l1,-1h2l2,-2v1l-1,1ZM331,82v1v-1h1ZM345,72h1ZM323,88h-1ZM314,93h-1l2,-1h1v-1h1ZM298,100l1,-1h1l1,-1l2,-1h2l-3,1v1h-2v1ZM292,103h-2l-2,1l-1,1h-2v1l-2,1l-1,1h-1l-1,1v-1h1l1,-1h1v-1l2,-1h1v-1h2v-1h2l2,-1h1v1ZM277,112h1ZM277,109h1l-2,1h-1l-2,2h-2v1h-1l1,-1h1l2,-2h1l1,-1ZM75,308l1,1v1h1v-1h1v-1h1v1l-2,2v3h-1v6l-1,1l-1,3v1l-4,4v3l-2,2v7l-1,2v1h1v1h1v-3h1l1,-1h1v4l1,-1v-2l1,1h1v1l-1,1h-1v1l1,1v2h-1h1l1,1l-1,2v2l-1,-1v-1l1,-1h-3v-1l1,-1v-2h-1v-1l-1,-2v2h-1v1h1l-1,1v1v-1l-1,-1v-1l-1,-1h-1v1l-1,1v1h-1l-1,-1l-1,1l1,-2v-2h1l1,-2v-2l-1,-1v3l-1,1v-8l1,-3v-3l1,-1v2h1v-1l1,-1v-4l1,-2l1,-1v-3l1,-1l1,-4l1,-1v-1l1,-1v-1h1ZM43,397h-1l1,-1v-2l1,-2l1,-1l1,-2v-1l2,-3v-1l1,-3h1v-1l1,-2l1,-1v-2h1v-3l1,-2v-1v7l-2,2v1l-1,1v1h-1v1l-1,1v1l-1,3v1h-1v1l-1,1v1l-1,1v2h-1v1l-1,1ZM66,363v1l1,-1v1l1,-1v3l-2,2v2h-1v1l-2,1v1h-1v1v-3l1,-1v-2l1,-2v-4h1ZM65,384h-1v-2h-1v-5h1l1,-1v-4h1v-2l2,-2h1v2l-1,1v1l-1,1v2l-1,2v5l-1,1ZM74,363h1v-1l1,1v1l-1,2v6l-1,-1v2h-1v-3l1,-2v-2l-1,1v-5h1ZM79,352v5l-1,1v5h1v1h-3v-6l-1,-1v-4h2l1,-1ZM62,350h1l1,1v-1v2h1l-1,1v4h-1v2h-1v1v-1h-1v-9ZM77,378l1,1v4l-1,1h1v12l-2,2v2l-1,2v1v-6l-1,-2v2h-1v1l-1,1v3l1,1v4l-1,1l-1,2v-3h-1v1l-1,1l-3,-3v-6l1,-1v-4l-1,-1h-1v1l-1,3v-1h-1v-1v1h-1v-2h-1v2h-1v2l-1,2v2h-1v-3h1v-4l1,-2l1,-1h1v-1h1v-2h1v-2h1v-1h2v4l-1,1l1,-1v-1h1v-1l1,-1v-1l1,-1v1l1,-1v-1l1,-2h1l2,-2v-5l1,-1v1l1,1ZM66,380v1v-2l1,-2v-1l1,-2v-1l3,-6v-2l1,-1v1l-1,1v4l-1,2l-1,1v1l-1,1v1l-1,3ZM78,305v1v-1l1,-1ZM78,302v1ZM82,293h1v-1ZM83,290v1ZM54,412h1l-1,1h-1ZM41,402v-2ZM54,376v-1h1v1ZM58,362v-1v2h-1v-2ZM57,366h-1v-2h1v1ZM65,373h-1v-1l1,-1v-1v2ZM72,376h-1v2h-2v-2l1,-1v-1h1v-1l1,1v1ZM50,420v1h-1v-1v2h-1v-1l2,-2ZM58,407v1h-1v-2l1,-1h1v1ZM78,374v-1l1,-1v2ZM77,374v-1h-1v-1l1,-1v-1v3ZM61,349v-1ZM67,348v3l-1,-1v-1ZM65,358v1v-3l1,-1v1ZM68,357l-1,1v-2h1ZM71,352v1v-1l-1,-1v-1ZM72,355v1v-2ZM72,356v1l1,2l-1,1v-1h-1v-2h-1v2l-1,1v-2l1,-1v-3l1,1v1Z"/>
<path class="sl" d="M77,344v1h-1v1l-1,-1h1v-3l1,-1v2ZM69,344l-1,-1ZM70,336v2l-1,1v-3ZM72,370v-1ZM75,374v-1ZM62,398v1ZM74,398v1v-2ZM74,362v-1ZM72,381v1l-1,-1l1,-1ZM76,304v1v-1h1ZM56,367v1l-1,1v-1h1ZM70,365v1ZM67,356h-1ZM78,376h-1l1,-1ZM75,361v-1ZM43,398l-1,1v-1ZM67,382v1l-1,-1h1v-1ZM236,471v1l-2,-2v-4l-1,-1l-2,-3l-1,-1h-2v-1h-1l-1,-2h-2l-2,-2h-3l1,-1v-1l2,2h2l1,1h1v1h1l2,1l2,2v1l6,5v3ZM228,468h1l1,-1v1h2v4l-1,2h-2v1l1,1v2l-1,1h-3v2h-1v1l-2,2h-2v1h-1v1h-2l-1,1h-4l-1,-1h-3l-2,-1l-1,-1h-2l-1,-1v-1l1,-1h9l1,-1h1v-4h1v1h-1v1l1,1v1h2l1,-1v1h1l1,-1h1v-1l1,-1v-1l1,-2h2l1,-1v-2l-1,-2v-1l1,-1ZM157,520v-7l-1,-2v-9l-1,-2v-10l-1,-2v-18l-1,-2v-5h2l3,2h2l1,1l5,2h4l1,1h1v1h1l1,1h1l1,-1l1,1v1h2v1l1,1h1v1l1,-1l3,4h1v3l-1,2h1l1,1h3l5,2h2l2,2v1h1v1l1,1v1h-1v1h-4l-2,1v1h1l1,2v2h1l1,1v1h1l1,2h2l2,2v3h1l1,1l1,2v1h2l2,-1h1v4l2,1h4v1h-1l-1,1l2,2h2l1,1h2v1l-2,-1v1h1l1,1v1h-1l-1,1l-1,-1h-2v-1h-1v-1h-14l-1,-1h-1v-1l-2,-2l-2,-1v-1l-1,-1v-1h-2v-1l-1,-2l-2,-2v-1l-3,-3h-5l-1,-1h-1v-1h-3v1h-1v1h-2v-1h-1v-1h-1h1l1,4l-1,1l-1,-1l-1,1h1v1l-1,1h-1l-1,1h-5v-1h-1h1v1l1,1l1,-1h1l2,1l1,1h1v3l-4,4h-1v-1h-3l-2,1h-4ZM201,485v-1h-1l-1,-1v-1h1l1,1h1l-1,1ZM187,477h-1v-1l1,-1v1ZM233,457v1ZM229,456v1l-1,-1ZM212,446h-1v-1h1ZM226,519v-1h1v2l-2,-1v-1h-1v-1h-1v-1h1v1l1,1ZM220,515l-2,-1v-1l1,-1l1,1v1ZM225,507v1l-1,-1h1v-1h-1v-1h1v1ZM250,528h-1v-1ZM173,512l-1,-1h1ZM195,482l-1,-1l1,-1l1,1ZM193,452h3l-2,2h-4v1v-3h2ZM217,455h-2l-1,-1l1,-1h2v1ZM221,513l1,1l1,-1v1h1v2h-3v-2ZM236,508h2v1h1v1h-2v-1h-2ZM245,529l1,1l-1,1v-1h-2v-1h-1v-1h1ZM173,513h1h-1l-1,-1h-1v-1v1h1ZM199,454l-1,1v-1ZM228,455v-1v1h1ZM225,523v1h-1v-1ZM259,486v1h-1v1h-1l-1,-1h-1l-1,-1v-3h-2v-1h-1v-1h-1v-5l1,1h1l1,2h1v1h1v2h2l2,2v1ZM249,476l-1,-1v-2h1v-1v3ZM118,385v-2h1v-1v1l-1,1ZM166,154v1ZM423,765h1v-1h1l1,-1h1v-1h1v2l-1,1l1,-1v-1h1h-1h1v-1h1v2h-1h1l1,-1v1l-1,1h-1v1h1v1l1,1v1l-2,2v1l-2,2l-1,2v1l-1,1h-1l-2,2h1v1h-1h1l1,1h2v2h-2v-1l-1,1h-1l1,-1h-1v1h-1l-1,-1h-1l1,1l-1,1h-1v1h-2v1h-1h1v5h-1h1l-1,1v3l-1,1v1h1l-1,1h-2v2l-2,2l-2,1h-6v-1h-1l-1,-1l-1,1l-1,-1h-1l-1,-1v1h-4v-1h-1v-1h-1v-1h2l1,-1h-2l1,-1h-1v-1h1l1,-1h-1v-1h1h-1v-1l1,-1l1,1v-1h-1h1v-1h1v-1h1v1v-1h-1l1,-1l1,-2l1,-1h2l1,-1h1v-1l1,-1h2v-1h1h-1h1v-1l1,-1v-1h1l1,-1l1,1l-1,-1h1v-1h1v-1h1v1v-3h1v-5h1l2,-2v-4l1,-2l2,-2h1v2h1l1,1v1l1,1Z"/>
<path class="sl" d="M428,762h-1v-1h1v-1v1ZM391,798v1h-1v-1ZM391,795h1ZM401,806v1h1v1h-2l-1,1h-1v-1h1v-3h1ZM434,726v1v-1h-1v-1ZM417,716v1l1,-1h1l1,1h2l1,1v1h2l2,2v2h-1l2,2l1,2v1l1,1h-1v2h2l2,1l1,1v1h1v-2l-1,-1v-2h-1v-1h1v1l2,1l1,1v1l1,1v2l1,1v1h2l2,1l1,1h5l1,-1v-1h1l1,-1h3v1h1l-1,1v5l-2,2v4h-1v-1h-1l-1,-1l-1,1h-2v1l-1,1v1l1,1h1l-2,4l-1,1v1l-1,1v1h-1v1l-1,1v1l-1,1v1h-1l-2,1v1h-1v-1l-1,-1l-1,1v-1l-1,-1h1h-1v1h-1v-1l1,-1l1,-2l1,-1v-4h-1l-2,-2h-2l-2,-2h-1l-2,-1l-1,-1v-1l2,-1l1,-1h1l1,-1v-4l1,-1v-4l-1,-1v-1h-1v-1l-1,-1h1v1l1,-1h1l-1,-1h-3v-2l-2,-2l2,1v-1l-1,-1v-1h-1l-1,-1h-1v-1v2l2,1l-1,1v-1l-5,-6v-1h1v-1h-1v2h-1v-1l-2,-2h1v-1l-4,-4l1,-1h1v2l1,1v1ZM417,843h1l-1,1ZM399,833h-2l1,-1v-1h-1h1v2ZM493,782h-2v1h1v1h-2v-1h1v-1h-1l1,-1ZM493,786v-1ZM543,584h-1l1,-1ZM623,605h-1v-1h1ZM346,426h-1ZM933,290v1l-1,-1v-1v1ZM926,308l-1,-1h1ZM909,259v1l-1,-1ZM886,227l-4,-4v-1v1h1v1h1l1,1v1ZM882,232l-1,-1v-1l-1,-1l1,1v1ZM889,228l1,2h-1v-1l-1,-1v-1h1ZM866,222l-1,-1v-1v1h1ZM971,333h-1v-1v1ZM914,267v-1l-1,-1ZM870,206h-1v-1ZM904,251v1v-1v1l-1,-1ZM907,263l-2,-2h1ZM905,261v-1h-1v-1l-1,-1l-1,-3l1,1l1,2v2h1ZM5,437v-2h1l-1,1h1v4l-1,1v1h1v-3l1,-2v17l-1,2v10l1,2v6l-1,-1v2l-1,-2v-1l-1,-2v-21l1,-6v-5ZM40,433h-1v-1h-3v1h-1v1l-1,-1v2l-1,1v8l-1,1v1v-1v1l-1,1v5h-1v6h-1v2h-1v1h-1v2h-1l-1,-1v-1l-2,1v2l-1,1v3h-2l-1,1v1h-1v-2h-1v-4h-1v-1l1,-1v2h1v-1l1,1h1v1v-6l1,-1h-1v-2h1v-3l2,-2l2,-3v-1h1v-4l1,-1l2,-5v-3h1v4l1,-1v-6h1v-1v4h1v-4h-1l2,-2v-5h1v-2l1,-1v-1l1,-1l1,-4v-1l1,-3v2l1,-1v-2h1v3l1,1v1l-1,1v3l2,-2v2h-1v1l1,-1h1v1h1v1h1v3h-1l-1,1h-1v1l-1,1l1,1v3h-1v1h-2v1ZM7,463v-1ZM4,447v-1ZM5,437v1ZM41,408h-1l1,-1v-1v1ZM4,465v-1ZM21,456v-1ZM41,432h-1ZM397,393h-1ZM395,393v1v-1h1ZM397,404l-1,-1h1ZM397,405v-1ZM397,411v1h-1h1ZM410,426h-1v-1l-1,-1h1v1ZM412,429v1v-1h-1ZM397,408h1ZM533,457v-1ZM671,458h1ZM694,524h-1v-1h1ZM664,471h-1ZM652,406l2,1h-1l-2,-1l-1,-1h1v1l1,-1l-1,-1l1,1ZM635,387l1,1h-1h1h-1ZM529,442h1v1v-1h-1h1ZM184,167v1h-1v-1ZM213,153v-1h1h-1l2,-2h1l-2,2ZM184,178l-1,1h-1l2,-2h1ZM149,210h-1l1,-1h1ZM151,209v-1l2,-2v1l-1,1ZM154,197v-1l1,-1h1l-1,1Z"/>
<path class="sl" d="M158,185l1,-1ZM160,183l-1,1v-1l2,-2v1ZM150,195h1v-1v1h-1v1ZM156,195h1ZM256,108v-1h1ZM257,109h-1v-1h1ZM236,127h-1l1,-1h1ZM182,178h-1l1,-1ZM207,172v-1ZM152,194v-1h1l1,-1h-1v1ZM156,191h-1l1,-1ZM159,187h-1l1,-1ZM172,182v-1ZM170,183h1l-1,1ZM150,201h1v-1v1ZM197,225h-1v-1h1ZM264,112h1l1,1h1l1,-1l4,-2v1h-1l-3,3h1l-1,1v1h1v-1h1h-1v1h-1l-1,1h-1l-1,1h-4l-1,1l-2,1l-1,1l-2,1l-1,1v1h-2l-2,-1l-1,-1l-3,1l-2,1h-1v-1h-1l-2,2l1,1v-1l1,1v1h-2l-1,1h-1v1h-1v1h-1v-2h1l1,-1v-2l1,-1v-1h1l1,-1h2v-1l1,-1v-1h4l1,-1h1v-1l1,-1l2,-1v-1l2,-1v-1h1l1,-2l1,-1v-1l1,-1h1v-1h1v1l1,1v2l1,1v1ZM164,187h1v-1h1v1l-1,1h-1h2l-1,1v2l-6,6v2h-1l-1,2h-2v2l-1,1l-2,1v-1h1l1,-1v-2h1v-1h-1v1l-1,1v1l-1,1v-1h-1v-1h1l1,-1v-2h1v-1l4,-4v-2l1,-1v-1h-1v1l-1,1v1v-1h1v1h-1v1h-1v-1l-1,1v-2h1v1v-3h1l2,-2h1v-1h1l2,-2h1v1ZM181,179h1l-1,1v2l-1,1h-2v1l-2,2v-1h-1l-2,1l-5,5h-1l1,-1h-1l1,-1v-1h1v-1h-1h1h-2l1,-1h1l1,-1h1l1,-1v-1l1,-1h1v1v-1h2v-1h1v-1h1l1,-1h1ZM241,129h1l-2,2v1l-1,1v4l-1,1v1l-1,1l-1,2h-1v1h-1l-4,4h-1l-2,2h-1v3l-3,3v1h-1v1h-1v1l-2,1v1l-1,1v3l-2,1l-4,4h-1l-1,1v-1l1,-1v-1h1l1,-1v-1h-1v1h-1l-1,1v2h-1v-1h-1l-1,1v1h-1v1l-2,2h-1v-1l1,-1h1v-1h-1l-4,4l-1,-1l-1,1h-2l-1,1v-1h1v-1h-1v1h-1l1,-1v-1h1h-2l-1,2v2l-1,1h-1l-4,4l-2,1l-1,1h-1v-3l1,-1v-1h1l2,-2h-2l-1,-1v1h-2l-2,2h-1l-1,1h-1l-1,1h-1l-1,1h-1l-1,-1v1h-1l-1,2l-1,1l-1,-1h-1v1h-3l1,-2h1l1,-1h2v-1l1,-1h1v-1h1l1,-1h1v-1l2,-1l3,-3h4l1,-1h2l1,-1h2l1,-1h1h-1v1h2v-1h1l1,-1h1v-2h1l1,-1v-1h1l4,-4l1,-2l1,-1h1l1,-1h1l-2,1v1h-1v1h-1v1l1,1v-1l4,-2l1,-1h2l1,-2h1l1,-1h1v-1l1,-1l2,-1l5,-5h1v-1l3,-3h1v-1l1,-1v-1h-1h1v-1h1l1,-1v-2h1v-1h2v-1h1v-1l1,-1h1l-1,2h1v-1h2l1,-1v-1l-1,1h-1v-1l1,-1h1ZM104,259l-1,1h-1v-1h1l1,-1ZM101,261h-1h1v-1h1ZM109,256h-1l1,-1ZM127,238l-1,1h-1v1h-1v1l-1,1v1h-1l1,-1v-1h1v-1l1,-1v-1h1v1v-1l1,-1ZM133,230v-1h1v-1v1ZM137,226h-1v-1h1l1,-1h1v-1v1h-1v1h-1ZM136,227v-1ZM1,484v1v-2ZM2,509h-1v-3h1h-1l1,1v1ZM41,544v2l-1,1h-1l-1,-1h1v-5h2v1ZM36,541l1,1v1h1l-1,1v4h-1v-2l-1,-1v-1h-1v-2h1v-1ZM10,499v6h1v4h-1v-4l-1,-1v-1h-1v-2h1v-1h-1v-1h1v-1v1v-2l1,1ZM61,500v2l-1,1v3h1v2l-1,1h1l-1,1v1l-1,-1v-2l1,-1v-8Z"/>
<path class="sl" d="M59,507v1h-1v1v-7h1v-1v5ZM15,449l-1,1v-1l1,-1h-1v-1l1,-2v3ZM14,507v1h-1v1v-5h1v1ZM120,452h1l1,1v-1l3,3v1h-3v-3l-1,1l-1,-1ZM120,460h8l-2,2h-2l-2,-1h-2ZM95,452h1l2,2h-1v1v-1h-1v1l-1,-1v2l-1,-1v-1v1l-1,-1l-1,1v-2h2v-1ZM83,437l-1,-2l1,-2l1,-1l1,1l-1,2v1ZM82,469v1h-2l-1,1v-1h-1l1,-2v-1h1l1,1ZM72,479v-2l-1,-1v-1h1v3ZM72,473h1l-1,1h-1l-1,1h-1v-1h2ZM67,473l1,1v-1v1h1v1h-1v1l-1,-1l-2,2v-3l1,-1ZM101,520l-1,1v-4l1,-1v-2h1v-2h1v1l-1,1l1,1v2h-1v2l-1,1h1ZM79,523v1h-1v2l-1,-1v1l-1,-1v1l-1,1v-3h2v-1h1v-1ZM70,530l1,-1h1v2l-2,1h-1v-2ZM96,463h-1v-1l-1,-1v-1l1,-1h1v3ZM2,452v1v-1l1,-1v2l-1,1v11l1,1v10h1v7h1v3l-1,1h1v-3h1v4l-1,1v1h1l-1,1h1v5h1v-1v8h1v3l1,-1v1l1,3v11l1,4v9h-1v2l-1,-1l1,1v2l-1,-1v-3l-2,-4v-1l-1,-1v-2l-1,-1v-3l-1,-2v-5l-1,-1v-5l-1,-6v-10h-1v-30l1,-2v-9Z"/>
<path class="sp" d="M2,460v-9"/>
<path class="sl" d="M63,536h-1v1l-1,1h-1l-1,1v1v-1h-1v1h-1v1h-1l-1,-1h-1v1h-2v1v-2l-1,-1h1v-2l1,-1h1v-1v1h2l1,1h1v-1h2l1,1v-1h1v-2l1,-1v-1h-1l1,-1v4ZM53,546l1,1v1h2v2h1v2l-1,1h-1l-1,-1v-1h-1l-1,-1h-2v-3h1l1,-1h1v-1ZM46,539v-1h1v1l1,-1l1,1v3h-1v1h-1v1v-2l-1,1v1l-2,2h-1v1h-1l-1,-1v-3l1,-1v-1h2v1l1,1l1,-1v-1h-1l-1,-1v-2h1v1ZM67,450l-1,2v2l-1,1v1h-1l-2,2h-2v-1h-2l-2,1h-1l-1,1h-1l-2,1h-2l-1,1v3l-1,1v6l1,1v1h1v2l1,1h1l1,-1v-2l1,-2v-1l1,1h1v-1l2,-2h1v-1l1,-1h1l1,1l-1,2v1l-1,-1h-1v2l-1,1v2l-1,1v1l-2,1v2l-1,1v-1l-1,1h1v2h1l1,1v2l1,1v1l1,1v6l1,1v1l1,1v-1v1h1v2h-1v1h-1l-1,1v1h-1v1l1,1h-3v-6l-3,-3v-2l1,-2v-4h-2v1l-1,1v4l1,4v12l1,2v2h-2v1h-1v1v-1l-1,-1v-13l-1,-2v-2h-1l-1,1v-2l-1,-1v-1l1,-1l-1,-1v-2h1v-4l1,-1v-10l1,-2v-1v1l1,1v-1l-1,-1v-5l1,-1l-1,-1v-1l1,-2v-2h1v-3l1,1l1,-1v-3h1v-1l1,1h1v1l1,-1l1,1l2,-1v1h1l1,-1h4l2,-4l1,-1v-2l1,-1v-1h1v3l-1,2ZM14,534l1,1h2v2l1,1v1h1v-1h3v-5h1v2l1,-1h1v1v-1l1,1h1v2h1v3h1l1,1v-1h1v-1h1l1,1v4h1v3h1v1h-1v-1h-2l-2,-2v1l-1,1h-2l-1,1h-3l-1,-2h-3l-1,1v1h-1l-1,-1h-2v-3h-1v-1h-1v1v-9h1v1l1,-1ZM17,462l-1,1v1h1v4h1v2h1v-1l1,-1h2v-3l1,-1v-2l2,-1v1l1,1h1v-2h1v-1h1v-2h1v-6h1v-5l1,-1v-1v1v-1l1,-1v-8l1,-1v-2l1,1v-1h1v-1h3v1h1h-1l1,1v3h-1v-1v1l-1,1l1,1v1l-1,1h1v2h1l-1,1h1v3l1,1l-1,1v4h1l1,2v1l1,1v3h-3v-1v2l-1,1l-1,3v8l1,1v1h-1v1l-1,1v2l-1,1v-1v3h-1v7h1v2l-1,1v6l-1,1v2l-2,4l-1,3h-1v-5l-1,-1v-1v1v-1h-1v2h-1v-1h-1l-1,-2v3l-2,2v2h-1v-5h-1l-1,1v1v-1l-1,1v-1v1h-1v-9h-1v-8h-1v-2l-1,-1v-4l1,-1h-1v-12l1,-1v-3ZM80,448h1v-3h1v-2l2,-2h1l-1,1h1l-1,3v1l-1,1h-1v1l2,2v1h1v1h-1l-1,-1h-2v1l-1,1h1v1l-1,1l1,2v2l1,2l1,1h-1l-1,-1l-1,-2v-1l-1,-1l1,-1l-1,-1v-1l1,-1h-1v-5l-1,-2v-1l1,-2v-3l1,-1l1,-2v-1v9l-2,2ZM90,478h3l2,2v1l1,1v3l-1,-1h-2v-1h-1l-1,-1h-2v1h-3v-1l-1,1v1h-1l-1,-1v-1h-1v3h-1v-2l1,-3l2,-1h2v-1h1v1l1,-1v-1h1ZM76,483l2,2v3l-1,1h-1v1l-1,-1h-1v-1h-1v-2l-1,-1l1,-1h1l1,-1ZM72,536v1h1v-1v4l1,1h-1v2l-1,2v2h-1v1l-1,1h-1v1v-1h-1v-1l1,-1h-1v-5l1,-1h1v-2l1,-1v-1ZM118,497v5h-2v-1h-1v-1h1v-2h-1v-1h1v-2l1,-1v2h1ZM117,503v2l-1,2v1l-1,-1v-5h1v1ZM142,515l-2,1h-2l-1,1v-4l1,-3v-1l1,-1h1l1,-1h2v1h1v1l-1,2v2l-1,1ZM153,463v5l1,2v18l1,2v10l1,2v9l1,2v6h-1l-1,-1v-1l-4,-4h-1v-1h1v-1l-1,1h-2v1h-2v-1l-2,2l-1,-1h1v-5l-1,-1v-1h-1v-1h1l-2,-2l1,-1v-1l-2,-2v-1l-1,-2l-1,-1l1,-1h-1v-1l1,-1l-1,1h-1v-2h-1v-1h-1v-1l-3,-1v-1v1h-1v-1h-3l-1,-1h-2v-1h-5l-3,-1v-3h1h-1l-1,1h-1v-1l-1,1v-1h-2v-1l-1,-1v-1h-1v2l-1,1l1,1h-1v2h-1l-1,1v-1h-1v-6l-1,-1l-2,-1v-1l-1,1v-1l-1,-1h1l1,-1h2v1l1,-2l1,-1v-1h2l1,1h1v-2h1v-1h-1v-1h1v-1l-2,1l-1,1h-1l-2,1h-4v-1h-1v-4h-1l-3,-1v1h-1v-2h1v-4h1l2,-1v-1l3,-3h3l1,1h1l1,1h3v2h1v11l2,4v-3h1v4h1v-1v3h1v1h2l1,-1v-1l2,-2v-2h1l1,-2v-2l2,-2h1l2,-2v-2l1,-1l2,-1l1,-1h1l1,1l3,1h1v1h2l1,1h1l2,1h5l1,1Z"/>
<path class="sl" d="M144,515v1h-2v-2h1ZM4,472v4l-1,-1v-1l1,-1ZM4,481v-1ZM5,477l-1,1v-2ZM5,482h-1v-2l1,-1v2ZM5,481v-1ZM5,483v1v-2ZM6,482l-1,-1v-1l1,1ZM6,477h1l-1,1ZM7,476v1ZM7,487v1v-1l1,1v1l-1,-1v-2ZM7,489v1ZM6,490v1ZM17,489l-1,1v-2h1ZM31,535h-1v1h-1v1l-1,-1v-2l3,-2v2ZM117,457l-1,-1l1,-1v1ZM77,460v1v-3h1l-1,1h1ZM79,458v3h1v2h-1v-1v1h-1v-4h1ZM108,500v-2l1,-3v2l-1,2ZM107,500v1v-2l-1,-1h1v1ZM83,486v1h-1v1v-1h-1h1v-1l1,-1ZM76,422v-1l1,-1h-1v-1l1,-1v3ZM71,428v1l-1,-1v-2l1,1ZM99,524v-1l1,-2v1h1h-1v1ZM94,522h-1v-2h1v1ZM84,525h2l-1,1h-1ZM93,467v2l-1,1h-2v-1l2,-2ZM6,536v1v-2ZM3,520v1v-2ZM3,516v1l-1,-1v-2ZM2,513v-1ZM1,500v-2ZM1,477v1v-2ZM57,509v1l-1,-1v-3l1,1v1ZM60,471v1l1,-1v3h-1v1h-1l1,-1v-2l-1,1v2h-1v-2l1,-1ZM54,466v1l-1,1v-1ZM52,519v1l-1,-2v-3l1,1ZM35,531v1l-1,-1l1,-1ZM35,503v2v-2l-1,-1v-2l1,-1v-1v4ZM67,555h-1v-1l1,-1v-1l1,-1v2l-1,1ZM69,532v1h-1v1v-1h-1v-1h1v-2h1v1ZM67,531v1l-1,1v2h-1v-1v1v-3h1v-1ZM65,533l-1,1v-2h1ZM118,504v-1ZM6,479h-1v-1h1ZM6,480v1ZM7,480l-1,-1h1ZM7,486v-1ZM11,457h-1v-1h1ZM10,460h-1v-2h1v1ZM15,455v1v-2ZM15,494v1v-2ZM13,507h-1ZM12,509h-1v-1h1ZM26,525v-1ZM11,542v1v-2ZM1,479v-1ZM61,475v-1l1,1ZM61,496v2h-1v-2l1,-1ZM63,477h-1v-1ZM60,477l-1,1v-1l1,-1ZM50,541v-2h1l-1,1ZM48,537v-1l1,1ZM38,546v1l-1,-1ZM40,432h1v1l-1,1v-1ZM40,440h-1v-1h1ZM66,511v1l-1,-1ZM63,506v1ZM53,526v-1ZM43,540v-2l1,1ZM36,500v1l-1,-1l1,-1ZM114,466v-1ZM111,485v1l-1,-1h-1v-1l1,1ZM95,458v1l-2,1v-1h2ZM94,457l-1,-1h1ZM89,455h-1v-1l-1,-1l1,1ZM78,456v-1ZM78,450v-1ZM78,463h-1v-2h1v1ZM84,485v1ZM76,423v1v-2ZM77,424h-1v-1ZM70,435l-1,1v-1l1,-1ZM104,513v-1h-1h1ZM87,516v1v-2ZM82,522v-1ZM68,550h-1v-2h1v1h-1ZM62,554h-1v-1h1ZM119,503v-1ZM118,506v-1ZM81,480v1ZM80,484v1l-1,-1ZM64,535v1l-1,-1l1,-1ZM491,534l-1,-1h1ZM475,542h-1ZM692,569h-1l1,-1ZM703,578v-1h1ZM692,571h-1l1,-1ZM707,579l1,1v1h-1v-1h-1l-1,-1v-1l1,-1l1,1ZM790,517l1,1l-1,1h-1v-1ZM790,519l-1,1v-1ZM792,525v-1ZM783,510h-1v-1h2ZM783,514h-1l1,-1ZM768,586v1v-2h1ZM787,510h-1ZM768,591h-1ZM767,589v1v-2h-1h1ZM797,596h-1v-1v1ZM793,594l-1,-1h1ZM778,614v-1ZM759,570h-1l1,-1ZM751,574h1h-2Z"/>
<path class="sl" d="M750,574l-1,-1h1ZM741,566v1l-1,-1v-1ZM737,570l-1,-1v-1l1,1ZM334,598l1,1h2l3,3h2l2,2v1l2,1l1,1h1l1,1l3,1l1,2h1l1,1h1l2,2l-1,1h-3v-1l-1,1v-1h-1l-1,-1v-1h-2l-1,-1h-1l-1,-1h-1l-1,-1h-1l-3,-3l-2,-1l-1,-1v-1h-1l-1,-1l-1,-2v-1h-1v-1ZM362,617v1v-1h-1ZM301,593l-1,-1l1,-1v1ZM365,607h1v1l-1,1h-1v-1l-1,-1l1,-1v1ZM352,601v-1l1,-1h-1h1v2ZM360,605h-1l-1,-1h-1l-1,-1h1l1,-1h-2v-1h2v2h1l1,1ZM459,559l-2,1v1l-2,2v1l2,-2h1v2h-5v-1h-1l-1,1v1h-1l-1,1h-1v-1l-1,-1h-1l1,-1h2v-1l1,-1h3v-1h1l1,-1h2l2,-1ZM445,569v1l1,1h1v1l1,1v3h-3l-1,1h-3l-1,-1h-2l-2,-2l1,-1h1v-2l1,-1l2,-1h3ZM459,565v-1l1,-1v1ZM459,565l-1,1v-1l1,-1ZM447,583l-1,1v-1h-1v1h-1l-1,1v-1h1l1,-1h1ZM474,574h-1v-1ZM468,568h-1v-1h1ZM461,582v1h-1h1ZM436,567v1ZM454,569v-1ZM454,575h-1v-1h1ZM449,572v-1l1,1ZM459,561v1v-1h1ZM459,558v1ZM459,562v-1ZM434,527h-1ZM998,499v-1ZM998,502v-2h1v1ZM997,495v-1ZM998,504v-1ZM997,491v2v-3ZM998,495h-1v-2h1v1ZM82,266h-1ZM120,211h-1v-2h1l-1,1h1ZM115,221v-1h1ZM114,223v-1ZM115,221v1v-1h1ZM90,257v-1h1v-1v2ZM50,302h1h-1v1ZM105,236h-1v-1h1ZM63,285v-1ZM58,295h-1h1v-1ZM57,295v-1ZM48,310v3h-1v1l-1,2l-1,1v2l-1,1v1h-1v1l-1,1v1h-1v2h-1v-4l1,-3h1v-2h1v-1l1,-1v-2h1v-1h1v-1h1v-1v1v-1l1,1v-2ZM63,286h1v1l-1,1v-1v1v-1ZM63,288v1ZM62,289v-1h1ZM906,695h-1l1,-1ZM698,65h2v1h1l-1,1h1v-1h-1v-1l1,1v-1l1,1v1h1l1,1v1h-1l-1,-1h-1h1h-1l-1,-1h-1l-1,-1h-1v-1l-1,-1l1,1ZM705,69l1,1h1v1l-1,-1v1h2l2,2h2v1h-1v-1h-1l-4,-2l-1,-1l-2,-1h1ZM735,84l3,1h2l1,1h2l2,2h1l2,2h1v1h2v1h2l1,1h1v1h1l1,1l4,2h-1v1v-1h-2l-2,-1l-1,-1h-2l-1,-1v-1l-1,-1v1h1h-3l-2,-2h-1v-1v1l-1,-1h-1l-1,-1h1h-2v-1h-1v-1h-3v-1h-1h1h-3v-1h-1l-1,-1h2v1v-1h-1l-1,-1v1h1h-2l-2,-2h2ZM665,28h-1l-1,-1h-2l-2,-1h-1l-1,-1h-3v-1h-3l-1,-1h-1l-2,-1h-2l-1,-1h1l1,1h2l1,1h2l1,1h2l1,1h2l1,1h2l1,1h2l1,1ZM645,21h-3l-1,-1h-1l-3,-1h-1h1h-1h1h-2v-1h-4v-1h-4v-1h-1h1l1,1h2l1,1h3l1,1h3l1,1h2l1,1h3l1,1Z"/>
<path class="sp" d="M650,23h1l1,1h2l1,1h2l1,1h2l1,1h2l1,1h1M625,16h2l1,1h2l1,1h3l1,1h3l1,1h2l1,1h3l1,1"/>
<path class="sl" d="M623,15l1,1h3l1,1h1h-3l-1,-1h-3l-2,-1h-2l-1,-1h-3v-1h-3l-1,-1h-3l-2,-1h-1h3l1,1h3l1,1h3l1,1h3l1,1h2Z"/>
<path class="sp" d="M607,11l1,1h3l1,1h3l1,1h3l1,1h3"/>
<path class="sl" d="M714,75l-1,-1ZM707,67h-1v-1h1ZM713,71l-1,-1h-1l-1,-1h-1l-1,-1l2,1h1l2,1ZM702,63v-1l1,1ZM719,72l1,2h1v1l-2,-2h-1l-1,-1h-1v-1h-1h2ZM746,91h-1v-1ZM752,91h-1l-1,-1h-1h2ZM742,89l-1,-1h-1h2ZM745,88h1l-2,-2h-1h1v1h1ZM719,74h-1v-1h-1v-1v1h1ZM728,79h-1v-1ZM722,75l-2,-2h1l1,1ZM716,72h-1v-1h-1h1ZM715,71h1h-2v-1h1ZM758,96v-1h-1h1l1,1ZM758,95l-1,-1h-1h1ZM746,88v-1h-1h1ZM603,15h-1v-1ZM15,392v-1ZM14,396v1ZM10,402v1ZM8,410v1v-2h1ZM11,397v-1ZM12,393v-1ZM11,395v1v-2h1ZM13,388v1l-1,1l1,-2v-1ZM12,392v-1ZM10,401v-1ZM11,396v-1ZM12,390v1ZM14,383v1ZM32,430h1v4h-1v-3ZM32,430v1h-1v6l-1,1v-4h-1v-1h1l1,-1v-2h1v-1ZM174,542v3l3,3v2l1,2v1l1,2v3l1,1l1,2v1l1,1h1v-1l1,-1h1l2,2l2,1l1,1h1l1,1v5l1,1l1,2l1,1v4l3,3h1v2l2,4l1,3v3l1,2h1v1l1,1v2h1l1,1h3l1,1h2l1,1v1l2,1l1,1h2l1,1h1l2,2h1v1h-1v1l3,3l2,1v2l2,2l1,2v2l1,2h1v1h2v1h1l-1,-2v-1h1l2,2h1v-1h1l1,1v3l2,5h1v1l1,1h1v1l2,1h2l1,1l2,3h1l4,4v1l1,1l2,1v2l2,2v3l3,7l3,5v1l2,2v3l1,1v11l1,1l-1,4l1,1v1l1,2v6l-1,2v1l1,1v1l-1,1v1h-1v1h-1v1l-1,2v3l-1,1l1,1v2h-1h1v1l-1,2v1l1,2v4h-1v7l1,2v3l1,1v2l1,1v1l1,1h-1v1l-1,1h-1l-2,1h-4v1h-2l-1,1v2l-2,4h-3v1h1v1v-1h1v1l1,1h-1l-1,-1h-1v-1l-1,1l-1,-1v-1h-3v-2l-1,-1h-1v3l-1,-1h-1h1v-3h-1l-1,-1l-1,2h-1h1l1,1l-2,2l-1,2v1h-2l-2,-1h-1l-2,-1h-2l-2,-1h-1v1h-1l-2,-1l-1,-1h-4l-5,-5h-1v-2l-1,-1v-1l-4,-4v-1l-4,-2v-1h1v-1h-1v-1v1h-1v1h-1v1h-2v-2l-2,-4v-1l-4,-4v3l2,5h-1l-1,1h-1v1h-1v-3h2l-1,-1v-2l-1,-1v-1l-1,-1v-6l-1,-1v-2l-2,-2v-1l-1,-1l1,1v9h-1v1l-1,1v4l-1,1l1,1h-1l2,2h-2l-1,-1h-1v-1h-2v-1h1v1h1l-1,-2l-1,-1l-1,-2h-1l-4,-4v-1h-3l-1,-1l-1,-2v-2h-2l-2,-2h-1l-1,1l-3,-2h-1l-1,1l-6,-3h-1v1h-1l-3,1l-2,1h-2l-1,1l-2,4l-2,2h-1l-1,1h-3v1l-1,2l-1,1v2l-2,2v1l2,4v3h-3l-2,2v-1h-3l-2,1v1h-1l-1,1v4l-1,1v5l-1,1h-3l-1,-1h-1l-2,-2h-1l-1,-1v1l-2,-2l-1,-2l-2,-2h1v1l1,-1v-1l-1,-1v-1l-1,-2l-2,-2v-1l-1,-1l-3,-6l-2,-2l-2,-3l-1,-1l-1,-2l-2,-2l-2,-4l-1,-1v-1l-2,-2l-1,-2l-1,-1v-1l-4,-4v-1l-2,-3l-1,-1l-2,-4l-4,-4v-1v1v-1h1l1,2v1h1v-1l-1,-1v-1h-1v-1l-1,-1l-1,-2h-1h1l2,2v1v-1l1,2v1h1v-1l-1,-1v-1l-1,-1l-1,-3l-2,-2l-2,-4l-2,-2v-1l-1,-1v-2l-1,-2v-2l-1,-1v-3h-1v-1l-2,-4v-4l1,2v1l1,2v-3l-1,-2v-2l1,-2v-5l1,-1v-3l1,-1h2l1,-1v-3h1l1,-1v-3h2v-1l2,-1l1,-1l1,-2v-11l1,-1v-4h-1v-2l-1,-1v-6l1,-1v-1l-1,-1v-2h1l1,3v1l1,1l1,2l1,1v1v-4h-1l1,-1v1h1l-1,-1v-1l-2,-2v-4l1,2v-1h2v-2h1l-1,-1v-2v2l-1,-1v-5h2v1v-2l-1,1v-3h2v-1h-1v-1h-1v-2h1v-1h1l-1,-1v-1h1v1h1v1v-5l1,1v-1h1v1l1,-1v-2l-1,-1h2v1h1l6,6v4h1v1v-1l-1,-1v-2h1v-1h3l1,1v-1h1l1,1v1v-3h1l-3,-3v-8l1,-1h1v-2l-1,-1v-2l1,-1v-2h1l-1,-1v-1h1v1h1v-3l1,-1v-1v1l1,1h2l1,-1h1v-1l1,1v-1h1v-1h1h-1v-4l-2,-1h-1v1l-1,-1v-1h-1v-1h1v1h1v-1l2,1l1,1v-1h1l1,2h2l1,1l2,-1l2,2h1l1,-1h1v1h2l1,-1h1v-1l1,-1v-1h1l-1,1h1v1h-1v2l1,-1h1v2h1l1,-1l-1,-1v-1l1,-1l2,2h1v1l-2,4l1,1v3h-1v-1h-1v1l-1,1v3l1,1v4l-1,1v2l-1,1v2h1v1l2,1l1,1l2,1v1l2,1h1v-1v2h3v1h1l1,1h2l1,2l1,1l2,1h3l1,1h1v1l1,1v1h2l1,1l2,1h2l3,-3v-3l1,-5v-13l-1,-1l-1,-5v-3h-1v-10h1v-1v1v-2h-1v-1h-1v-1l1,-3h1v-1h-1l1,-3v-6h1v-2h1v1l2,2v2l1,1v3l1,1Z"/>
<path class="sl" d="M262,651v1v-1l-1,-1v-3l1,-1v-2h-1v-1h1v1l1,1l-1,4ZM159,585l-1,1v1h-1v-2l1,-1h1l1,1ZM138,564v1l1,-1v3l1,1v-1v1h-1l-1,1l-1,-1h-1h1v-1l-1,-2h1v-2h1ZM101,553h1v1h-1l-1,1v-5l1,1v1ZM102,550h1v-1h1l1,-1l1,1v1h1h-1v2l-2,3l-1,-2l-2,-2v-1l-1,-1h1v1ZM73,693v1l-2,-4v-1l1,3h1ZM202,743h1v-1l1,1h1l-1,1h-2l1,1h-3l-1,1l-1,-1h-1v-1l2,-1l1,-1h1ZM251,756l-1,1v-1ZM250,757l1,1h-1ZM225,608v1h-1v-2ZM224,607v-1ZM245,634h1v2l-2,-2ZM239,625h-1v-1h1ZM234,624v-1ZM269,665v2h-1v-2ZM268,664l-1,-1v-1h1v1ZM167,532v1l-1,-1v-1ZM167,528h-1v-1h1ZM166,527v1l-1,-1ZM203,593l1,1v1h-1v-1h-1h1ZM134,544h-1h1v-2ZM133,546l-1,1v-1l1,-1ZM143,581h-1v-1h1v-1v1ZM142,580v-1ZM140,580v-1ZM159,590v-1h1v1ZM135,565v-1ZM112,547v1l-1,-2v-1l1,1ZM82,584v1v-2ZM81,592v-1ZM62,648v1v-2ZM257,774h2v1h3v1h5v-1v1h1v-1h-1h1l1,-1h2v-1h1v-1h1l1,1h1v2h1v2l1,1l1,2v1h1v1h-1v-1v4l1,1v1l2,2v1h-1l-1,-1v-1h-1v-1l-1,1h1v1l-2,-2v1h1v3l-1,-1l1,1v2h-5v-1h1h-1l-1,-1v1l-2,-2h-1l-5,-5h2v1h1l-2,-2h-1v-1l-2,-1l-5,-5v-2l-1,-1h1ZM249,770l-1,-1v-1h-1v-2h1v1l2,2v1ZM269,765l2,1l1,1v1h-1l-2,-1v-1h-1v-1ZM278,791l1,1h-1ZM280,786h-1v-1h1ZM278,790h-1v-1h1ZM255,773l-1,-1h1ZM273,769h1v1h-3v-1h1ZM273,770v1h-1v-1ZM373,860v-1ZM17,575v-1ZM12,601v1v-1h-1ZM372,670l1,1h-1ZM72,568h-1ZM680,957h1ZM334,971v1h1h-1l-1,-1ZM686,964h-1v1h-2l2,-1h1h-1l-1,1h-1h1h-2v1h-1h1h-2l-1,1h-2l-1,1h-2v1h-3v1h-1h1h-2l-1,1h-2l-1,1h-1l-1,1h-2l-2,1h-2l-1,1h-1h1h-2v1h-3l-1,1h1h-2l-2,1h-2l-1,1h-3v1h-3l-1,1h-3l-1,1h-1l1,-1v1h-4v1h-3l-1,1h-1l1,-1l-1,1h-1h1h-3l-1,1v-1h1h-1l-1,1v-1l-1,1h-7l1,-1h1l1,-1h1v-1l-1,1h-3l-2,1h-2v1h-2l-1,1h-3l1,-1l2,-1h1l1,-1h-1l-3,1l-2,1h-1l-1,1h-1v-1l2,-1h1l2,-1h1h-1l-1,1h-1l1,-1l-1,1h-3l-1,1h-2l-1,1h-1h1h-1v1h-3l-2,1h-1v-1l-1,1h-3l-1,1h-3l-1,1h1h-2v1h-2l-4,1h-2v1h-1v-1h1h-5l-1,1h-6v1h-1h3v1h-3v1h-1h1l-1,1h-5l-1,1h-3l8,-1h4l3,-1h6l1,-1h1h-1h1l-1,1h-8l-1,1h-8l-1,1h-10l-1,1h-15l-1,1h-44l-1,-1h-16l-1,-1h-9l-1,-1h-9l-1,-1h-7l-1,-1h-5l-1,-1h-5l-1,-1h-6l-1,-1h-4l-1,-1h-5l-1,-1h-3l-1,-1h-4l-1,-1h-4l-1,-1h-3l-1,-1h-3l-1,-1h-3l-1,-1h-3l-1,-1h-3l-1,-1h-2l-1,-1h-3l-1,-1h-2l-1,-1h-3l-1,-1h-2l-1,-1h-2l-1,-1h-2l-1,-1h-2l-1,-1h-2l-1,-1h-2l-1,-1l1,1h2l1,1h2v1h3l1,1h1l2,1h1h-1v-1h-1l1,1h2l3,1h1v1h3l1,1h2l2,1h2l2,1h1l3,1h2h-3l-1,-1h-2l-1,-1h-3l-1,-1h-2l-1,-1h-3v-1h-3l-1,-1h-2l-1,-1h-2l-2,-1h-2l-1,-1h-1l-1,-1h-2l-1,-1h-2l-1,-1h-2l-1,-1h-1l-1,-1h-1l-2,-1h-1l-2,-1h-1l-1,-1l-3,-1l-1,-1l-2,-1h-1v-1h-2l-1,-1h-1l-1,-1h-1h1h-1l-2,-2l-2,-1v-1h-1l-1,-1v-1h-1h1h-1v-1h1h-1v-1h1h-1v-1h1l-1,-1l1,1v-1l-1,-1v-1l-2,-1h-1v-1h-1l1,-1h8l1,1v-1l1,1h2v-1l-2,-2h-1l-2,-1v-3h2l1,1l3,1h3l2,1l1,1v1l1,1h1v-3h3l1,-1v-1l1,1h-1l1,1h1v-2h1l-1,-1l1,-1v-1h2l1,-1h-1v-1h2l3,1l2,1h3v-1h1l-2,-1l-1,-2v-1h1l2,-1h2v-1h2l1,1h2v-2l1,1h4l1,-1l1,1h17v-1h1l1,1h2l1,1v1h1v1h1l1,-1h4l2,1h1v1h11l1,-1l2,1v1h1v-1h4l1,1l1,-1l-1,-1v-1l1,1h2l1,1h2l1,1h5l2,1v-1h3l2,1h2l1,1h1v1h2l1,1h1l2,2h2l1,1v-1l-2,-1v-1h3l1,1h2v-1h3l2,1l1,-1h1l2,1h2v1h2l1,1l3,1h2v-1l1,1h1v1h-1v2h1v1h-1l-1,-1h-2v1h3l1,1h-1v1h-7l1,1h2l-1,1h-2l1,1h-2l-1,-1v-1h-1v1l1,1h1v1l1,1h1l1,1h-4l-1,-1l-1,1h1h-1v1l1,1v1h-2h2l1,1h2v2h1l2,2h1l1,1h1v1h1l1,1h2v1h-1h2v-1h1v1h1l1,1h1h-4v1h-3l-1,-1v1h1l1,1h-2l1,1v1h1h-1h2v1l-1,1h4v1h1v1h2l1,1h2l1,1h1l-1,1h-1h8v1h2v1h6l1,1h5v1h10l1,1h5l2,1h1v-1h-1h1h-1l-3,-1h-2h2l-1,-1h1h-1v-1h-1l-1,1v-1h-1l-2,-1l-3,-1h3l2,1h4v1h1l1,-1v1h6v-1h3l2,-1h2v-1l-1,-1h2l-1,-1h-2l1,-1h11l1,-1h-1v-1h5v-1h-1l-1,-1h-1v-1h-1h1h-4v-1h-1l-1,-1h4v-1h1h-5v-1h-1v-1h1v-1h1v-1h1v1h2l1,-1h1l1,1h2v1h4l1,1h3l1,-1v-1h1v1h2v1h2v-1h1h-1l1,-1h1v-1h-1v-1h-3l1,-1h2l2,2h1v-2h5l2,-1h3v1h2v-1h11l1,-1h3l1,1h4l1,1h8l2,1h1l4,1h7l1,1h3l3,-1h1v1h-3v1h-2l-2,1h-1h6v-1h2l1,-1v1l-1,1h-2l-1,1h-3l-1,1h3v1h1l2,1l1,-1v1h1l1,1h-2v1h4v-1h1h-1h1v-1h3v-1h-1h1l2,-1h1v-1h1l1,-1h1v1h-1h1l1,1v-1h1v1v-1h1v-1h-1v-1h1l1,-1h1l1,-1l1,1h-2v1h1v1h1v1h-1h1h-1v1h1v1h2l-1,1h2l1,-1h1v1v-1h1v1h-3l-2,2h1l-1,1h-2v1h-1l-1,1h2l1,-1h2l-2,1l1,-1h2l1,-1v1h-1l-2,1h-2v1h-1l-1,1h-1h1h-1v1h1v1h1l1,-1h3l2,-1h2v-1h3l2,-1h2l1,-1h2l4,-2h2l1,-1h2l1,-1h1h-1h2l1,-1h2l1,-1h2l1,-1h2v-1h2l1,-1h1l1,-1h1l-1,1h-1h1h-1h1l1,-1h1l1,-1h1h-1v1v-1h2l1,-1h1h-1h1h-1h2v-1v1v-1h2l1,-1h1h-1l-1,1h-1l-1,1h-1l-1,1h-2l-1,1Z"/>
<path class="sp" d="M336,972h-2l-1,-1M685,964v0M568,995l-1,1h-8l-1,1h-8l-1,1h-10l-1,1h-15l-1,1h-44l-1,-1h-16l-1,-1h-9l-1,-1h-9l-1,-1h-7l-1,-1h-5l-1,-1h-5l-1,-1h-6l-1,-1h-4l-1,-1h-5l-1,-1h-3l-1,-1h-4l-1,-1h-4l-1,-1h-3l-1,-1h-3l-1,-1h-3l-1,-1h-3l-1,-1h-3l-1,-1h-2l-1,-1h-3l-1,-1h-2l-1,-1h-3l-1,-1h-2l-1,-1h-2l-1,-1h-2l-1,-1h-2l-1,-1h-2l-1,-1h-2l-1,-1M696,960h-1l-1,1h-1l-1,1h-1l-1,1h-2l-1,1h-1"/>
<path class="sl" d="M574,994h-2l-1,1h-7l2,-1h3l1,-1h2v1h1l1,-1h5v1h-4ZM576,992h-1h1v-1h4v-1v1h-1l-2,1h1l1,-1h1h-1h2l-1,1h-3ZM672,969h-2l-2,1h-1l-2,1h-1l-3,1l-2,1h-1l-1,1h-2l-2,1l-3,1h-2l-1,1h-2v-1h2v-1h1v1h-1h1l1,-1h2l1,-1h1h-1h1h-1v-1h3v-1h1l-1,1h1v-1h1h-1v1h-1h2l1,-1l-1,1h1l-2,1l1,-1h2l1,-1h3v-1h1l2,-1h1l1,-1h2l1,-1h2l1,-1h1l-1,1h-2ZM651,963h-1l-1,1h1l1,-1h1l-1,1h-1h2v-1l1,1h-4v1h1l-1,1h-1v-1l-1,1v-1h-1h1h-1v-1l1,-1v-1h-1h4l-1,1h1l1,-1h1v1ZM614,960l-1,1h-3v1h-3v-1h1v-1h1l1,-1h2v1h1ZM608,957v1h-2v1h2l-1,1h-1v1l-1,-1h-1h1h-1v-1h1h-1l1,-1h-1l1,-1h2ZM524,971h-4l-1,-1h-2v-1h1l1,-1h3v1h1l2,2ZM466,964h5v1h-4v1v-1h-1v-1h-1v-1ZM552,997h-1h3ZM558,997l3,-1h1h-4ZM587,989h1v-1h6l-2,1h-4ZM683,965h-1h1l1,-1h2v-1h3v-1v1h-2l-1,1h-2v1ZM663,971h-3l1,-1h2l-1,1l1,-1v1v-1ZM671,968h-3v1h-1l1,-1h2ZM643,976l-1,1h-3l3,-1h2l1,-1h1l-1,1h-1ZM644,970v-1h2l1,-1h1v1h-3ZM469,967h-2v-1l1,1h1v-1ZM295,946h-1l-1,-1h1ZM582,990h4v-1h1l-1,1h-3ZM587,989h1ZM659,974h1l1,-1l2,-1h1h-1v1h-2l-1,1ZM669,969l1,-1h1ZM647,967v-1h1v1ZM637,964h-1l1,-1h1ZM613,962h-1v-1h2ZM598,961v-1h1v1ZM514,980h-2v-1h2ZM518,976h-4l1,-1h1l1,1ZM453,956h-1v-1h1ZM463,951h-1v-1h1ZM434,926l-1,-1h1ZM427,923l1,1l-1,-1h-1ZM424,922h-1v-1ZM297,950h1ZM299,948h-1ZM301,950h-1ZM294,944h1h-1l-1,-1h-1h2ZM295,951h-1ZM307,959h-1l-1,-1l1,1ZM305,958h-1ZM304,958h1ZM359,980h1ZM364,981h-2v-1v1h1ZM347,976h-1l-1,-1h1v1ZM554,997h1ZM657,975v-1h1ZM665,972h1ZM651,977v-1h1h-1ZM648,978v-1h1h-1ZM693,961h1l1,-1h1h-1v1h-1ZM691,962l1,-1v1ZM687,963h1ZM680,966h1v-1h1l-1,1ZM664,971h-1ZM640,977h1ZM645,968l1,-1ZM616,963h-1v-1h2v1ZM591,959h-1ZM592,960v-1h-1h2ZM561,960h-1h1v-1v1h1ZM554,964h-1h2ZM550,964h-1ZM550,963h1h-2ZM548,965h-1ZM548,963h-1ZM556,962v-1h1ZM555,963h-1ZM546,965h-2v-1h1ZM531,972h-1ZM549,964h-2v-1h1v1h1h-1ZM520,978v-1l1,1Z"/>
<path class="sh" d="M499,601h1l-1,1l-1,-1v-1v1ZM509,580h-1l1,-1ZM501,602v1Z"/>
<path class="sw" d="M214,90l1,-1h1v-1h1l1,-1h1v-1h1l1,-1h1v-1h1l2,-2h1v-1h2v-1v1h-1l-1,1h-1v1h-1l-1,1h-1v1h-1l-1,1h-1l-2,2h-1v1h-1l-1,1h-1v1h-1h1v-1h1h-1l-1,2h-1h1v-1v1h-2v1l-2,1l-2,2h-1v1h-1l1,-1h1l3,-3h1l2,-2h1Z"/>
<path class="sr" d="M204,97l1,-1h1l3,-3h1l2,-2h1l1,-1"/>
<path class="sw" d="M812,109l-1,-1h-1l-1,-1l2,2ZM805,104l-1,-1ZM800,100h1v1v-1h-1l1,1v-1h-1l-1,-1h-1v-1h-1l-1,-1l-2,-1v-1h-1l-1,-1h-1v-1h-1l-2,-2h-1l-1,-1h1v1h1l2,2h1l3,3h1l3,3h1ZM798,98l-1,-1h-1l1,1Z"/>
<path class="sr" d="M808,106l3,3h1M803,102l1,1M787,91h1l2,2h1l3,3h1l3,3h1l1,1"/>
<path class="sw" d="M709,46h1v1l-1,-1h-1l-1,-1h-1h1v1h2v1h1l1,1h1v1h-1v-1h-1h1v1h1h-3l-2,-1h-1l-1,-1h-2v-1h-1h1l1,1h1h-1h2l1,1v-1h-2v-1h-1h1h-1v-1h-2l-1,-1h-1v-1h-3v-1h-1h1v1h3v1h2l1,1h2v1h2l-1,-1h-1h2l1,1ZM709,47l1,1h1h-1v-1ZM668,30h1v1h2v1h1h-1l-1,-1h-1l2,1h1h-1h1v1h-1v-1h-1l-1,-1h-1v1h1h-3l-2,-2h-1l-1,-1h-1h2v1h1l-1,-1h-2l-1,-1h-1l1,1h-1v-1h-4l-1,-1h3v1h2v-1v1h4v1h-1v-1v1h2l1,1h2ZM790,93h1v1v-1h-1l-1,-1h-1v-1h-1v-1h-1h1h-2v-1h-1v-1h-1l-1,-1l1,1h1v1h1h-1h1v1v-1v1h2v1h1v1h2ZM836,148l1,1v1l-2,-2v1h1h-1v-1h-1v-1h-1v-1h-1v-1h-1v-1h-1h1l1,1h1v1h1v1v-1h-1v-1v1h1l1,1ZM837,149l-1,-1h-1h1v1ZM941,273h1v2l3,6l1,3l-1,-2v-1l-1,-1v-1l-1,-1v-2h-1v-2h-1v-2ZM750,67h1v1h1v1h1h-1v-1v1v-1h-1l-1,-1h-1v-1h-1h1v1ZM734,59v1h1v1v-1v1l-1,-1l1,1l-1,-1h-1v-1h-1h1v1v-1h-1l-2,-2h1v1h1l1,1h2l1,1h1l1,1h1h-1l-1,-1h-3ZM754,70h2v1h1l1,1h1l1,1h1v1h1v1h2v1l-1,-1h-1v-1h-1l-1,-1l1,1h1v1l-2,-2h-1v-1h-2v-1h-1v-1h-2v-1h-1h1h-1h1v1h1ZM591,35h-2v1h-6v-1h7ZM587,41v1v-1h-4v-1h2ZM819,153h-1v-1h-1h1v-1v1ZM860,194v1l-3,-3h1v1ZM691,40h-1l-1,-1h-2l-1,-1h1v1h2l1,1ZM117,202l-1,1v1h-1v1h-1l1,-1l-1,1v-1h1v-1l-1,1l1,-1h1h-1v1h1v-2h1v-1h1v-1l1,-1l-1,1v1l-1,1v1ZM221,115l-3,3h-1v-1l2,-2h1v-1h2v1ZM19,380h-1v-1l1,-1v-1v2ZM749,67l1,1h1v1v-1v1l-1,-1h-1h1ZM739,61h1h-1l-2,-1l-1,-1h-1l-1,-1l1,1h1l1,1h1Z"/>
<path class="sr" d="M734,58l1,1h1l1,1h1l1,1"/>
<path class="sw" d="M194,109v1v-1h1v-1h1l2,-2h1v-1h1h-1v1h-1v1v-1v1h-1l-2,2ZM114,215l-1,1h-1v-1l1,-1v-1h1l1,-1l-1,1h1h-1v2h-1ZM585,41l-1,1h-1h1v-1ZM553,16h-1ZM714,51h1v1l-1,-1h-1ZM734,58v1h1h-1l-1,-1h-1h1h-1v-1v1h1ZM427,12h-1ZM94,233v1v-1v1h-1v2h-1h1v-4h1v-1l1,-1v-1v2h-1v2h-1h2ZM97,227v1ZM97,227v1h-1v1v-2ZM92,228h1v-1h1h-1v1l-1,1ZM440,746h-1v1h-1v-2h2ZM824,130h-1v-1h-1v1v-1l1,1ZM563,10h-2l-1,-1h-1h3ZM793,107h-1v-1l2,2h-1ZM856,179h-1v-1l-1,-1h-1v1v-1h-2v-3h-1h1v1l2,2v-1v1h1l1,1ZM733,60h1v1h1h-1l-1,-1h-1v-1h-1h1v1ZM980,361v1h1v1l-1,-1ZM410,10h-1ZM30,333v-1l1,-1v1h-1h1ZM117,204v1h-1h1v-1l1,-1v-1v1h-1h1v-1h1l-1,1ZM550,31h-1v1h-1v-1h1ZM833,143h1v1l-1,-1v-1h-1h1ZM841,154h1h-1v-1h-1v-1v1h1ZM647,25h1ZM699,47h-1v-1h-1h1ZM98,227v-1ZM189,114h1v-1h1v-1v1h-1v1ZM411,783v2h-1v-2ZM398,11l-1,1ZM425,11h-1ZM426,12h1ZM110,215v-1h1v-1v1h-1ZM89,231v1h-1v1v-1h1ZM108,215h-1l-1,1v-1l1,-1v1v-1h1ZM803,135h1v1l-1,-1v-1ZM817,148h-1l-1,-1v-1h-1h1v1l1,1ZM94,227v1h-1ZM95,225v-1h1h-1ZM119,194v1v-1l1,-1v1ZM94,227v-1v1v-1h1h-1ZM92,230h-1v1v-2h1v1v-1ZM91,231h-1h1v-1h-1h1ZM650,24h-1v-1v1h3v1v-1h-1ZM645,24h-2v-1l1,1ZM646,24h1v1h-1ZM676,34h-1v-1h-1h2v1h2v1l-1,-1ZM770,80h-1h1h-1v-1h-2v-1v1h2v1ZM803,129l-1,-1h1ZM535,18l-1,1v-1h-1h1ZM547,29h1ZM553,30h-1ZM571,36l-1,-1ZM573,34h-4v-1v1l1,-1h1l1,1ZM568,33h1ZM571,35h1h-2l-1,-1h1v1h2ZM722,63h-3l-1,-1v1h2v1h2l1,1h1v1h1h-1l-2,-2h-2l-1,-1h-1v-1h-2l-1,-1l1,1h1l-1,-1h-1l-1,-1l-3,-1h1l1,1h1v1h2v1h3l1,1v-1h1l1,1h1ZM815,116h-1v-1h-1v-1h-1h1v1h-1h1h-1h1h-1v-1v1l-1,-1v1h1h-1v-1h-1h1v1v-1h1h-1v-1h1v1h1v1h1v1ZM822,120v-1h-1v-1h-1l-2,-2h-1h1h-1v-1v1l-1,-1h1v1h1l1,1h1v1h1h-1v-1v1h1v1h1v1h2v1v-1v1v-1h-1ZM672,44l-1,-1h-1l-1,-1h-2l-1,-1h-1h1l1,1h2l1,1h1v1ZM774,97l-1,-1h-1l-1,-1v-1l1,1v1h1ZM785,104v1h1h-1v-1h-1v-1ZM775,103v-1h-1l-1,-1h-1l-1,-1l2,1l1,1ZM741,62v1v-1h-1v-1v1ZM611,30h-1v-1ZM919,238h-1v-1h-1v-1h1v1ZM947,306v1v-1h-1l-1,-1h1ZM102,593v5h-1v-5ZM811,109h1h-1v-1h-1l-3,-3h-1l-1,-1h-1v-1l1,1l-2,-2h-1v-1h-1l-1,-1l1,1l-1,-1l2,2h1h-1l-1,-1h1v1h1v1h1l1,1h1v1h1v1h1l1,1h1v1h1ZM800,101v-1h-1v-1l-1,-1h-1l2,1v1v-1h-1l-2,-1v-1h-1v-1h-1l-2,-2h-1h1l1,1h-1v-1l-1,-1h-1h1v1l-1,-1h-1v-1h-1h1l2,2h1v1l2,1h1v1h1l1,1h1v1h1v1v-1l1,1Z"/>
<path class="sw" d="M753,71v-1h-2v-1l1,1l2,1h1v1h1l1,1h1v1h1v1v-1h-1l-1,-1h-1l-1,-1l1,1h1h-1v-1h-1l-1,-1ZM856,179h-1v-1l-1,-1h-1v1v-1h-2v-3h-1h1v1l2,2v-1v1h1l1,1ZM857,169v1l1,1v2h1v1h-1v1v-1h-1h1v-1l1,1l-1,-1v-1l-1,-1h1h-1v-1ZM2,473v1v-2ZM409,786v1l-1,-1v-2l1,1ZM408,787l-1,1v-2l-1,-1h1v1v-1v2ZM815,116h-1v-1h-1v-1h-1h1v1h-1h1h-1h1h-1v-1v1l-1,-1v1h1h-1v-1h-1h1v1v-1h1h-1v-1h1v1h1v1h1v1ZM841,136h1v1l1,1l-1,-1h-1v-1l1,1v-1h-1l-1,-1v-1h-1v-1h-1l-4,-4h-1v-1h-1v-1h-1v-1h-1h1v1h1v1h1l1,1v1h1v1h1v1h1l3,3h1ZM672,44l-1,-1h-1l-1,-1h-2l-1,-1h-1h1l1,1h2l1,1h1v1ZM774,97l-1,-1h-1l-1,-1v-1l1,1v1h1ZM702,43l-1,-1v1h1l-1,-1h-2v-1h-1h1v1v-1v1h2ZM701,42l1,1h2v1h1h-1v-1h-2ZM852,146l1,1v1h1l1,1l-2,-2h-1v-1h-1v-1h-1v-1h-1v-1l1,1v1h1ZM933,260v1h1v1v-1h-1v-1l-1,-1v-1h-1v-1v1h1v1ZM763,77l-1,-1h-1v-1h-1h1h-1l-1,-1l1,1h1v1h1ZM733,58h1h-1l-1,-1h-1v-1h-2v-1v1h2v1v-1v1v-1h-1l1,1h1ZM756,83h1h-1l-2,-2h-1l-2,-1h1l2,1l1,1ZM860,188h-1v-1l2,2ZM801,140h1v1v-1ZM682,35h-1l-1,-1h1v1h2l1,1h2l1,1h1h-2v-1h-2l-1,-1ZM794,130h1v1h1v1h1h-1v-1h-1v-1ZM802,129l-1,-1ZM290,69h-1v1h-1v-1h1ZM461,20h1h-2ZM193,170h1l-1,1l-2,1v1v-1h1l1,-1ZM647,36h1v1v-1h-1l-1,-1h-1h1ZM587,39h1h-3l-1,-1h-1h4ZM551,30l-1,-1h2ZM587,34h1l1,-1h1l-1,1h-1ZM601,35v-1h1l1,1h-1ZM562,29h1ZM554,30h-1ZM547,28h-1ZM697,40h-1ZM697,40v1ZM696,40h-1h2ZM696,40h-1l-1,-1v1h1ZM777,84h-1v-1v1h1l1,1ZM773,83l-1,-1h1v1h1v1h1h-1v-1ZM691,38h-2v-1v1ZM760,75v-1l1,1ZM763,76h-1v-1v1ZM727,55v-1h-1ZM747,65h-1h1v1ZM95,663l-1,-1v-3l1,2v1ZM116,648h-1l-1,-1v-1l2,-2v-2h1v2l1,1v2l-1,1ZM181,718v-1h-1v-3h-1l-1,-1h-1v-2h-1l-2,-2h1l1,1h1v-1l1,1h1v1l1,1l1,2l1,1v2h-1ZM188,712l1,1h-1l-1,-1h1v-1l-1,-2l-2,-2v-2l-1,-1v-1h-2v-1l-2,-2h1l2,2h1l2,2v1h1v1l1,2l1,1ZM105,713v-1h-1v-1l-1,-1v1l1,1v2l-1,-3v1h-1v-3l1,1v-2h1v1l-1,-1v2l2,2ZM197,704v1h-1l-1,-1h-1v-3l1,-2h1v1l1,3ZM180,693l-1,1h-2v-1l1,-1h1v-1l1,1ZM180,691l-1,-1v1h-2v-1h-1v1h-1l-1,-1v-2l-1,-1v-3h-1v-1h-1v-1h3l1,1h1l1,1v1l1,1v1l1,2l1,1h1v1Z"/>
<path class="sb" d="M981,362v3l1,1v3l1,1v1M980,360v-1l-1,-2l-1,-3l-1,-2v-3l-1,-1l-1,-3v-1M984,376v-1l-1,-1v-1l1,1v3h1l-1,-1l1,1v3l1,1v1M973,339l1,1v2l1,1l-1,-1l1,1v1v-1h-1v-1l-1,-1l1,2v1l1,2v-1v1l1,2v2h1v3h1v2h-1v-1v1l1,2v2l1,1v3l1,1v2M940,269h-1h1h-1v-1l-2,-2v-1h-1v-1h-1v-1l-1,-1v-1l-3,-3v-2h-1v-2h-1v-1l-2,-2l-1,-2v-1h-1v-1l-2,-2l-1,-2l-1,-1v-1l-2,-2v-1l-2,-2v-1h-1l-2,-2v1l1,2v2h1v1l-1,-1l-1,-2h-1l-2,-2v-1h-1v-1l-3,-3l-1,-3l-3,-3l-1,-2l-4,-4h-1l-1,-1v-1h-1v-1h-2l-1,-1h-1v1h1v1l1,1h-1l-1,-1h-1l-2,-1h-2l-1,-1h-1l-2,-2l-7,-4l-2,-2l-5,-3l-2,-2v-1h-5l-1,-1h-3M822,117h-1l-2,-2h-1l-2,-2h-1l-1,-1h-1l-1,-1h-1l-1,-1h-1l-1,-1h-1l-1,-1h-1l-1,-1h-2l-1,-1h-2l-1,-1h-1l-1,-1h-2l-2,-1h-2l-1,-1h-2l-2,-1h-2l-1,-1h-1l-2,-1h-2l-2,-1h-2l-2,-1h-2l-2,-1h-4l-2,-1h-1M597,14h2l2,2h2l1,1h1l2,1l1,1h1l2,1l1,1h1l2,1l2,2h1l2,1l2,2h2l3,3l2,1l1,1h1l2,1l3,3l2,1l1,1h3l1,1v-1h2l2,2h2v1h2l1,1h2l1,1h1l1,1h2v-1l1,1l-1,-1v-1h-1h4l1,1l2,1h1l1,1h1l1,1h2l1,1h1l1,1h1l2,1l1,1h1l1,1h2v1h2v1h1l1,1h1v1h2l1,1h2l1,1h2l1,1h1l1,1M28,357v-1l1,-1v-2l1,-1v-4l1,-1v-7l1,-1v-5l1,-1v-3l1,-1v-5l1,-1v-2l1,1v-2l1,-1v-1l1,-1v-1v1v-3h1v-2h-1v-1l1,-1v-1l1,-1v-1v1v-3l1,-1v-1M23,364v1h1v1v-3h1v-2l1,-1v1l1,-1v-1h1v-1v1l-1,1v1l-1,1v6l-1,2l-1,1v4l-1,1v2l-1,1v1l-1,1v1l-1,2l-1,1v5l-1,1v1v-1v1v-1l-1,1v1v-1v1h-1v3h-1v2M38,310l-1,1v2l-1,1v1l-1,1v2h-1v2l-1,1v1M9,407v-2l1,-1v-3l1,-2v-3l1,-1v-2l1,-3v-4h1v-4l1,-1v-3l1,-1v-4h1v-4l1,-1v-3h1v-2l1,-2v-2l1,-2v-1l1,-1v-3l1,-1v-2l1,-1M30,329l1,-1v-3h1v-2l1,-1v-1v1v-1v2l-1,1v2l-1,1v1v-1l1,-1l-1,1v2l-1,1v3l-1,1v1h-1v3l-1,1v2l-1,2v-1l1,-1v-2h1v-2h1v-1v2h-1v1v-1h1v-2l1,-1v-2h1v2l-1,1v4l-1,2v1l-1,2v3h-1v6h-1v2l-1,1v2l-1,2v2h-1v1v-1v1h-1v1h-1v1l-1,1v2l-1,1v2l-1,1v1l-1,2v4l-1,1v5l-1,3M47,302v-1v1h-1v-2l1,-1v-2l1,-1v-1l1,-1v-1h-1v1v-1v1v-2l-1,1v1l-1,1v1l-2,2v1v-1v1h-1h1v-1v1h-1v2h-1h1v-1h-1v2h-1v1v-1v1v-1v2h-1v2l-1,1v1l-1,1v2l-1,1v1v-1l1,-1v-1l-1,2v-1l1,-1v-2l1,-1v-2h1v-1l1,-1v-2M166,152l1,-1h1l2,-2h1v-1h1l2,-2h1v-1h1l1,-1h1v-1h1l3,-3h1v-1h1v1h-1h4v-1h1v-2h1v-1h3v-1h1l1,-1h1v-1h2v-1h1v-1h1l1,-1v-1h1v1h-1v1M164,164v-1h1v-1l1,-1h1v-1h2l1,-1h2l1,-1v-1h1"/>
<path class="sb" d="M200,104h-1l-2,2l-2,1l-1,1v1h-1v1h-1l-1,1h-1l-1,1v1h-1l-2,2h1v-1h2l1,-1h1l1,-1h1v1h-1v1l-1,1v1h-1v1h-1l-1,1h-2l-1,1h-1l-1,1h-1l-1,1v1h-2v1h-1l-2,2h-1v1h-1v1l-1,1h-2v1h-2v1h-1v1h-1l-1,1v1h-1l-1,1h-1v-1v1h-1l-4,4h-1v1h-1v1l-1,1v1h-1l-1,1h-1v1h-1v1l-1,1h-1v1h-1l-1,1v1h-1v1h-1l-1,1h-1v1h-1v1h-1l-2,2h-1v1h-1v1l-2,1l-1,1v1h-1v1h-1v1l1,-1l-1,1h-1h1M200,132v-1h1v-1h1l1,-1h1l4,-4v-1l2,-2h1l1,-2l1,-1v-1h1v-1h2l2,-2h5v-1h1l1,-1v-1h1l2,-2h1v-1h1v-1h2v-1l2,-2h1v-1l1,-1h1v-1h1l1,-1h1l1,-1h1v-2h1l1,-1h-1l-2,1h-2v1h-2l-1,1h-1l-1,1h-1l-1,1h-3l-1,1v-1h1v-1l2,-2v-1h1v-1h1h-2l1,-1v-1h-1v1v-1v1v-1h-1h1h-3v-1h1l1,-1h1v-2h1l1,-1v-1h1v-1h1v-1h1l1,-1v-1h1v-1h1v-1h1v-1h1v-1h1h-1v-1l-1,1v-1h-2l-1,1h-2l-2,2h-2l-1,1l-2,1l-1,1h-1l-1,1h1h-1v1h-1l-1,1l-2,1l-3,3l-2,1h-1l-2,2h-1v1h-1v1h-2v1l-1,1h-1l-1,1l-2,1l-1,1l-2,1h-1l1,-1h-1l-1,1h-1h1v-1h-1v1l-1,1h-1l-1,1h-1l-2,2h-1v1h-1l-1,1h-1v1h-1l-1,1h-1v1h-1v-1h1l2,-2"/>
<circle class="w3" cx="500" cy="582" r="41"/>
<circle class="w3" cx="500" cy="582" r="39"/>
<circle class="c3" cx="500" cy="582" r="40"/>
<path class="sg" d="M 260.4114 938.0623 A 249.7500 41.1113, 0, 1 1, 738.5886 938.0623"/>
<path class="sg" d="M 68.9330 752.7040 A 432.5797 71.2069, 0, 1 1, 930.0670 752.7040"/>
<path class="sg" d="M 0.0000 499.5000 A 499.5000 82.2227, 0, 1 1, 999.0000 499.5000"/>
<path class="sg" d="M 68.9330 246.2960 A 432.5797 71.2069, 0, 0 1, 930.0670 246.2960"/>
<path class="sg" d="M 260.4114 60.9377 A 249.7500 41.1113, 0, 0 1, 738.5886 60.9377"/>
<path class="sg" d="M 492.4037 0.0504 A 42.3683 499.5000, -180.81401447, 0 0, 506.5963 998.9496"/>
<path class="sg" d="M 537.8443 1.4739 A 208.7385 499.5000, -175.59733505, 0 1, 461.1557 997.5261"/>
<path class="sg" d="M 614.0790 13.3191 A 403.9140 499.5000, -166.73899445, 0 1, 384.9210 985.6809"/>
<path class="sg" d="M 941.8733 267.5386 A 490.8611 499.5000, -117.67056799, 0 1, 57.1267 731.4614"/>
<path class="sg" d="M 333.6777 28.3278 A 446.2823 499.5000, -199.38879062, 0 0, 665.3223 970.6722"/>
<path class="sg" d="M 442.4457 3.2692 A 282.1226 499.5000, -186.55880362, 0 0, 556.5543 995.7308"/>
<text x="0" y="0" class="fs" transform="translate(704,300) rotate(84)">150W</text>
<text x="0" y="0" class="ft" transform="translate(704,300) rotate(84)">150W</text>
<text x="0" y="0" class="fs" transform="translate(895,327) rotate(78)">120W</text>
<text x="0" y="0" class="ft" transform="translate(895,327) rotate(78)">120W</text>
<text x="0" y="0" class="fs" transform="translate(62,338) rotate(100)">120E</text>
<text x="0" y="0" class="ft" transform="translate(62,338) rotate(100)">120E</text>
<text x="0" y="0" class="fs" transform="translate(223,307) rotate(96)">150E</text>
<text x="0" y="0" class="ft" transform="translate(223,307) rotate(96)">150E</text>
<text x="0" y="0" class="fs" transform="translate(458,293) rotate(91)">180W</text>
<text x="0" y="0" class="ft" transform="translate(458,293) rotate(91)">180W</text>
<text x="0" y="0" class="fs" transform="translate(478,882) rotate(0)">60S</text>
<text x="0" y="0" class="ft" transform="translate(478,882) rotate(0)">60S</text>
<text x="0" y="0" class="fs" transform="translate(462,671) rotate(0)">30S</text>
<text x="0" y="0" class="ft" transform="translate(462,671) rotate(0)">30S</text>
<text x="0" y="0" class="fs" transform="translate(457,413) rotate(0)">0N</text>
<text x="0" y="0" class="ft" transform="translate(457,413) rotate(0)">0N</text>
<text x="0" y="0" class="fs" transform="translate(462,179) rotate(0)">30N</text>
<text x="0" y="0" class="ft" transform="translate(462,179) rotate(0)">30N</text>
<text x="0" y="0" class="fs" transform="translate(478,30) rotate(0)">60N</text>
<text x="0" y="0" class="ft" transform="translate(478,30) rotate(0)">60N</text>
<path class="tb" d="M127,998h-2l-1,-1h-2l-1,-1h-2l-1,-1h-2v-1h-3v-1h-2l-1,-1h-2v-1h-2l-1,-1h-2v-1h-2v-1h-2l-1,-1h-2v-1h-2v-1h-2v-1h-2v-1h-2v-1h-2v-1h-2v-1h-2v-1h-2v-1h-1l-1,-1h-1v-1h-2v-1h-2v-1h-1v-1h-2v-1h-1l-1,-1h-1v-1h-2v-1h-1v-1h-2v-1h-1v-1h-1l-1,-1h-1v-1h-1v-1h-1l-1,-1h-1v-1h-1v-1h-1v-1h-2v-1h-1v-1h-1v-1h-1v-1h-1l-2,-2h-1v-1h-1v-1h-1v-1h-1v-1h-1v-1h-1v-1h-1v-1h-1v-1h-1v-1h-1v-1h-1v-1h-1v-1h-1v-2h-1v-1h-1v-1h-1v-1h-1v-1l-1,-1v-1h-1v-1h-1v-1l-1,-1v-1h-1v-1l-1,-1v-1h-1v-1l-1,-1v-1h-1v-2h-1v-2h-1v-1l-1,-1v-1l-1,-1v-1l-1,-1v-2h-1v-2h-1v-3h-1v-2h-1v-4h-1v-3h-1v-5h-1v-6l-1,-1v-17h1v-7h1v-4l1,-1v-3h1v-3h1v-3h1v-2l1,-1v-2h1v-2h1v-2h1v-2h1v-2h1v-2h1v-2h1v-1h1v-2h1v-1h1v-2h1v-1h1v-1l1,-1v-1h1v-1h1v-1l1,-1v-1h1v-1h1v-1h1v-1h1v-1h1v-1h1v-2h1v-1h1v-1h1v-1h1v-1h1l3,-3h1v-1h1v-1h1v-1h1v-1h1v-1h1v-1h1l1,-1h1v-1h1v-1h1v-1h1l1,-1h1v-1h1v-1h2v-1h1v-1h1v-1h2v-1h1v-1h2v-1h1v-1h2v-1h1l1,-1h1v-1h2v-1h1l1,-1h1v-1h2v-1h2v-1h2v-1h1l1,-1h1l1,-1h1l1,-1h1l1,-1h1l1,-1h2v-1h2v-1h2v-1h2l1,-1h2v-1h2v-1h2l1,-1h2v-1h3v-1h2l1,-1h2v-1h3v-1h3v-1h159v1h3v1h3v1h2l1,1h2v1h3v1h2l1,1h2v1h2v1h2l1,1h2v1h2v1h2v1h2l1,1h1l1,1h1l1,1h1l1,1h1l1,1h1v1h2v1h2v1h2v1h1l1,1h1v1h2v1h1l1,1h1v1h2v1h1v1h2v1h1v1h2v1h1v1h1v1h2v1h1v1h1l1,1h1v1h1v1h1v1h1l1,1h1v1h1v1h1v1h1v1h1v1h1v1h1l3,3h1v1h1v1h1v1h1v1h1v2h1v1h1v1h1v1h1v1h1v1h1v1l1,1v1h1v1h1v1l1,1v1h1v1h1v2h1v1h1v2h1v1h1v2h1v2h1v2h1v2h1v2h1v2h1v2l1,1v2h1v3h1v3h1v3l1,1v4h1v7h1v17l-1,1v6h-1v5h-1v3h-1v4h-1v2h-1v3h-1v2h-1v2l-1,1v1l-1,1v1l-1,1v1h-1v2h-1v2h-1v1l-1,1v1h-1v1l-1,1v1h-1v1l-1,1v1h-1v1h-1v1l-1,1v1h-1v1h-1v1h-1v1h-1v2h-1v1h-1v1h-1v1h-1v1h-1v1h-1v1h-1v1h-1v1h-1v1h-1v1h-1v1h-1v1h-1l-2,2h-1v1h-1v1h-1v1h-1v1h-2v1h-1v1h-1v1h-1l-1,1h-1v1h-1v1h-1l-1,1h-1v1h-1v1h-2v1h-1v1h-2v1h-1l-1,1h-1v1h-2v1h-1v1h-2v1h-2v1h-1l-1,1h-1v1h-2v1h-2v1h-2v1h-2v1h-2v1h-2v1h-2v1h-2v1h-2l-1,1h-2v1h-2v1h-2l-1,1h-2v1h-2l-1,1h-2v1h-3v1h-2l-1,1h-2l-1,1h-2l-1,1h-2Z"/>
<path class="tl" d="M169,986h1v1h-3l-1,-1h2v-1ZM114,989h-3l-1,-1h2l1,1ZM176,983h1l1,1v1h1l-1,1h-2l-1,1h-1l-1,-1l1,-1v-2h1v-1ZM124,980h2v1h-1ZM122,980l1,1h-1l-1,-1ZM136,977h1h-2ZM156,974v1l1,1h-5v-1l1,-1v-1l-1,-1l1,-1v1h1l1,1ZM158,964v1h-2v2h1l-2,2v1h1l1,1h1l4,4v1l1,1v1h-1v2h-1l-1,1h-1v1h-2l1,1h1v1h-2l1,1h1v1h3l1,1h3l1,1h3l1,1h1l1,1v-1h1v-1h2l2,-1l1,1h1v-1h4v-1h3l1,-1h-1v-1h-4l-1,-1l1,-1h1l2,-2h4l1,-1h1l2,-2h-1v-1h1v-1h2v-1l1,-1h1v1h1v-1h8v-1h3v-1h1l1,1h2v-1h1v1l1,-1h4v1h6v-1h3v-1h2v1h3l1,-1h3v-1h2l1,-1h2l1,-1h4v1h1v1h1l1,1h1l1,-1l1,1h2v1l-2,2h-1v1h1h-1v1h-1v1h2l2,-2h1v-1h3l1,-1h1v-1h2l1,-1h5v-1h1v1h5v1h1l1,-1l1,1l1,-1h1l2,-1v1l1,1h3l1,-1h2v1h1v1h4l1,-1v1h9l1,-1l-1,1v1h-1h3l1,1h2l-1,1v1h1v1h2v1h1v2h2l1,1v1h-1l-1,1h-2l-1,1h-3l-1,1h-2l-1,1h-2l-2,2v1h-5l-1,1h-2v1h-1v3h2l-11,4h-155l-11,-4h-1h2l1,-1l1,1h14l-1,-1h-7v-1h-2v-1h-3l-1,-1h4v-1h-2l-1,-1h-7l-1,-1l-2,-1l1,1l1,-1l2,1v-1h1v-1l-1,-1h-1h2v-1h2v-1h4l1,-1h5l1,-1l1,1v-1h1l1,1h1v-1l1,1h6v-1h-2l-1,-1h-1l-1,-1h4l1,1h1l1,-1h3l-1,-1h1l1,1l1,-1l1,1h3v-1l1,1h4v-1h2l1,-1v-1h-1v-1h-1v-1h-1v-1h-1v-2l-1,-1v-1h1v-2h1v-1h1v-1h1l1,-1l1,1ZM144,951l2,1h1v1h-1v-1v1h-4l-2,-2l-2,-1l2,1h2v-2h1v1ZM151,947h1v1h-2v1l-1,-1l1,-1ZM269,946h-1v-2h1l1,1ZM345,939v1h1l1,-1v1l-3,3v-1l-1,1h-1l1,-1v-1l1,-1v-1ZM368,943v1l1,-1v1h-1l-3,3h-1l-1,1h-1l-2,2h-2v1h-1v-1h-1v-1l4,-2h1l1,-1h2l2,-2h1l2,-2ZM376,936l-1,2l1,-1l-1,1l1,1h1l-2,2h-1l-2,2l-2,1h-1l2,-1v-2l1,-1l2,-1v-1l1,-1v-3l1,-1v1l1,1ZM382,913l-1,1v-2l-1,-1v-1h1v1l1,1ZM397,906v1l-1,1h-1v-1l1,-1v1ZM398,906h-1v-1h1l1,-1v1ZM10,905v-1ZM386,904v-1ZM386,901v2h-1v-1ZM259,895v2l1,1h-1v1v-1v2h-1v3l-3,6v2h-1l-1,1l-1,-1h-1v-5h1v-2l1,-1h-1v-3h1v-1h1l2,-2h1v-1l1,-1v-1l1,-1v1ZM361,898v1h1v1h1l-1,1v2h1l-1,2v1l2,2v4h1l-1,2l1,1v3l-1,1v2l-3,3v1l-1,1l-1,2h-1l-1,2h-1l-4,4v1h-2l-1,1h-1l-1,1v-1h-1l1,-1h-1l-1,1h-1v-1h-1v-3h1l-1,-1v-1l1,-1l-1,1h-1l3,-3l-2,1h-1l-1,2v-4l-2,-2h-2l-1,1h-4l-2,2h-4l-1,1v-1l-1,1h-2v-1h-1l1,-1v-1h1v-3l1,-1v-7l1,1v-3l1,-1v-1l1,-1l-1,1l2,-2h1l1,-1h2l1,-1h2v-1h1l1,-1v-2l1,-1v2l1,-1v-1h1v-1l2,-2h2v1h2v-2h1l1,-1v-1h2v-1h-1h1l1,1h3l1,1h-1v1h-1v1l-1,1v1l2,2v1h1l1,1h1v-1l1,-1v-1l1,-1v-3l1,-1v-2h1v-1v3l1,1Z"/>
<path class="tl" d="M383,894h-1v-1v1ZM337,892l-2,-1h2ZM381,893h-1v-1h1ZM382,892v-1l-1,-1h1ZM341,892h-1l3,-3h2l-1,1h-1l-1,1ZM335,889h1v1h-3l1,-1ZM340,889v1h-3v-1h2ZM381,890v1l-2,-2h1v1ZM378,889v-1h-1v-1l1,1ZM325,887h2v-1l2,1v1h2l1,1l-1,1l-1,-1h-4l-1,-1h-1l-2,-1h-1l1,-2h1l1,1ZM353,886v1v-2ZM377,888h-1v-2l-1,-1h1v2h1ZM373,885l-1,1h-1l-1,1l-1,-1h-1l1,-1l1,1v-1h2v-2h1v1ZM345,882h-1v-1h1ZM349,881v2l-1,-1h-2v-1h2ZM374,884l-1,-1v-1l-1,-1h-1h2v2h1ZM353,878v3l2,1v-2l2,-1h1l1,1h1l1,1l4,2v1h1v1l2,1v1h-1v1l1,1v2h1v1h1h-1l1,1l-1,1v-1h-2l-1,-1v-3h-3l-1,1v1h-2l-2,-2v1h-2l1,-2h1l-1,-2v-1l-2,-1h-1l-1,-2l-1,1l-1,-1h1l-1,-1l1,-1h-1v-1h-1l-1,-1h2v-1ZM343,875l-1,1h-4v1l1,2v-1h2l-1,1h-1l1,2v1l1,2v1h-1v-2l-1,1v-1l-1,-1l1,-1h-1v4h-1v-3h-1v-1l1,-1v-4h1v-1h4l1,-1ZM347,875v1h-1v1l1,1h-1v-4h1ZM321,885h-1l-2,-2v-1l-2,-2l-1,-2v-2l-1,-1v-1l-4,-4v-1h2l3,3l1,2h1l2,2h1l-1,2h1v1l1,1h1v3ZM335,874l1,1h-1v3l-1,1v1l-1,3v-1l-1,1l-1,-1h-1v-1l-1,1l-1,-1h-1l-2,-4v-2l1,-1h2v-2h2v-1l1,-1v-1h1l1,-1v-2h1v1l2,2v1h-1l-1,2l1,1ZM344,864v3l-1,-1v2l-2,-2h1l-1,-1v1l-1,-1l-1,1v-1l1,-1h2v-1h1v-1l1,1ZM294,868h-1v-1l-1,-2l1,-2l1,1v1l1,1v1ZM137,863h-1l1,-1h1ZM341,861v1l-1,1l-1,-1l1,-1v-1v1l1,-1ZM335,863l-1,1v-1l1,-1v-1l1,-1v1l-1,1ZM338,859h2v1l-1,1v-1h-1ZM342,858l1,2h-1v1v-1h-1v-1h1h-1v-1ZM338,857l-1,1l-1,-1h1ZM336,849h1v6h1l2,1v2l-1,-1v-1v1l-1,-1h-2v-1h1h-1l-1,-1v-5ZM133,851v1h-1v-1ZM121,852h-1v-1h2v1ZM126,849h3v1h1v1h-2l-1,1v-1h-1v-2h-1ZM324,849l-1,1h-1v-2l1,-1h1v1ZM37,846v-2h1v2ZM38,844h-1v-1h1ZM119,845h2l1,1v1h1v1h2l-1,1h-3v-1h-1v-2h-2l-1,-1h-1h1h-2l-1,1h-1l2,-2h3ZM122,843h-1v-1l1,-1v1ZM334,843v1l-2,-2v-2l1,-1l1,1ZM122,839l-1,1v-1ZM123,839v1v-1h-1ZM340,825h1v1h-1v1h-1v-2ZM240,828l-2,2v-1h-1h2ZM229,828v1h-1ZM220,825v2h-1l-1,-1h-1v-1h2ZM214,821v3h-1v-3ZM344,820v1l1,1v1l-1,1h-1l-1,2l-1,-1v-1l-2,1l-1,1h-1l2,1v3l-1,-1v-1h-1l-1,-1l1,-1v-3h3v-3l1,1v-2h1l-2,-4v-1l3,3v1ZM214,820v1l-1,-1v-1l1,-1ZM340,810l1,-1l1,2h-1v2l-2,-1l1,2h-1l-1,-2l-1,-1h1l-1,-2l-1,-1l3,1ZM144,812l1,1h1h-2ZM147,809h-1l-1,-1h1ZM92,806h-1l-1,-1v-2h-1v-1h1l1,1v1l1,1ZM153,807l-1,1h1v1h2l-1,1h1v1l-1,2l-1,-1l1,-1l-2,1v-1h-3l1,-1h-1l4,-4h1Z"/>
<path class="tl" d="M90,797h1l-2,2v1v-3ZM332,800l3,3l-2,-1l1,2l2,2v1l-2,-2l-1,-2l-6,-6v-1h-1h1l3,3ZM198,806l-1,1h-2l1,-2v-1l2,-2h1v3ZM216,801l-1,2l-1,-1v-1h1ZM79,791h-1v-1h2ZM202,797l-1,2h2v1l-1,1h1l2,4h1v1l-1,1h1l-1,1h-3l-1,1h-2l2,-2h-1v-1h1l-1,-1v-1h2l-1,-1h-1v-2l-1,-1l1,-2v-1l1,1ZM75,786h-1v-1h1ZM141,790l-1,1v-1ZM139,790h-2l1,-1h1ZM78,780v1h1h-2v-1ZM139,786h1v1h1l-1,1h1l-1,1l-1,-1h-1l-2,1l1,-1h-1h1l1,-1l1,-2ZM193,787v1l1,1l-1,1h-3l-1,1l-1,-1h-2l1,-1h-1h1v-1h-2l1,-1h1l1,1l2,-1h2ZM147,784h-1l1,-1h2l-1,1ZM81,776v1l1,-1h2l-1,2h-3l-1,1h-1l-1,-1h1v-1h-1h1h-2l-1,1l8,-5v1l-1,2ZM135,780l-1,1v-1h-1l1,-1h1ZM322,771h-1ZM88,771h-1h2ZM139,780l-1,2l2,-1v1h-1v1l1,-1l2,-1l1,-1h2v2h-1v1l-1,1l-2,1h-1v-1l-1,1l-2,1v1h-3l-2,2h-1l-1,1l-2,1l-1,1l-1,2h1l-1,1v1h1l3,3l2,1h1l-2,2v2l1,1h1l2,-4h-1l4,-2v-1l1,-1v-1l-1,-1l2,-1l2,-4l1,1h1l1,-1v1l1,1h1v2l-1,1l1,1h2l1,-2h1v3l1,1l-1,1l1,1v1h1l1,1v1l1,1l-2,2h-2l-2,2h-1l-2,-1h-2l-2,1l-1,1l-2,1l-1,1l2,-1l3,-1h2l-1,1l-1,2v1l1,1l2,-1l1,-1v1h1l-4,2h-1l-2,1v-1l2,-1h-3v1h-1l-1,1h-1l-2,2l1,1v-1v1h-3l-1,1l2,-1v1h-2l-2,2v1l-1,1l-1,-1l1,-1l-1,1v4l-1,1h-1l-1,1h-1l-3,3h-1v8l-1,1h-1v-3l-1,-1l1,-1l-1,-2l-1,1l-1,-1h-4v1h-1l-1,-1l-1,1l-1,-1l-2,2h-2v1h-1v3l-1,1v1l-1,2v4l1,1v1h1v1l1,-1h3v-1l1,-1v-1l1,-1h3v1l-1,1v2l-1,1v-1v2l-1,1v1h5v1h1v1l-1,1v3l-1,1h1v2h1v1h2l1,-1h1v1h1l1,1l1,-1v-2l1,-1h2l2,-2v2h-1h1v1l-1,1v1h1v-3h1v-1h1v1h1v1h3l1,1l1,-1h1l1,1h1v1l1,1h1v1h1v1l1,1l2,1v-1h1l1,1h1l1,1v1h1v1l1,2v1l-1,1l1,1h2v1v-1l4,2v1h1l3,1h1l2,1l2,2h2v5l-1,1l-1,2l-2,2v9l-1,2v2h-1v1h-2l-1,1h-1l-3,3v5l-1,2l-2,2v2l-2,2v-1l-1,1l-1,-1h-1v-1v1l1,1v1l1,1v2l-2,1h-3l1,1v2l-1,1l-1,-1h-1l1,2h2l-2,2l1,1v1h-1l-1,1v1l2,1h1v1l-1,1v2h-1v1l2,2h-1l-1,1v1h-1l-2,-1l-3,-3l-1,-3v-1l1,-1h-2l1,-2l-1,-2h1v-2l-1,-1v2l-1,-2v-4l-1,-1l-1,-2h1v-6l-1,-2v-8l-1,-2v-6l-1,-2l-1,-1l-2,-1l-3,-2l-1,-1v-1l-1,-2l-1,-3l-2,-3l-2,-2v-1l-1,-2l2,-2v-1h-1v-3l1,-1v-1h1v-2h1l1,-1v-5l-1,-1v-2h-1v1h-1v1h-1l-1,-1h-2v-2h-1v-1v1h-1v-3l-2,-2h1h-2v-1h-2l-1,-1l-1,-2h-1l-1,-1v1h-2l-1,-1h-2l-2,-2h-1l-1,-1v-1h-1v-3h1l-1,-1v-3l-1,-1v-1l-1,-1v-3h-1v-5l-1,-1l-1,1v4h1l-1,1h1v5h1v2h-1v-1l-1,-1v-3l-1,-1v1v-1h-1v-1h1v-9h-1v-1h-1v-9l2,-2v-1l1,-2l2,-2l1,-2l1,-1v-1h1v1l2,-2h-1v-2l-1,-1v-1l1,-1l-1,-1l1,-1v-1l1,-1l-1,-1l1,-1v-1l1,-1l-1,-1h-1v-2h-1v-1h-1l-1,-1h-1l-1,1h-4l1,-1l2,-1h-1l-1,1l-2,1h-1l-1,1l-2,1h-2l-2,1h-1l-1,1h-3l-1,1h-2l1,-1h2l2,-1h2l2,-1h1l2,-1l1,-1h-3l1,-1l-1,1h-1l2,-2h-1v-1l2,-2l2,-1h3l1,-1h1l1,-1h-3v-2h4l1,1l1,-1v-3h4l1,-1h2l2,-1l1,1l1,-1h1l-1,1h1l1,1h2l1,1h2v1l1,1l1,-1h6l1,-1v2l2,-1l-1,1h2l1,1h2v1l-2,1h4v1l2,-2h2v1h1l1,1h2v-1h1l1,1l-1,1l1,-1h1l1,-1v-2l1,-1l2,-1l1,1l-2,2Z"/>
<path class="tl" d="M128,774l-1,1h4l-1,1h1l2,-2v1l-1,2v1l1,1h-2v1h-8v-1h-1v-1h4l-1,-1h-3l2,-1h-1l1,-1h1ZM135,774l-2,1v-1h1ZM152,776v1l-1,-1l-1,1v-2h2ZM146,776v1l1,-1l2,-1v2h3l1,1l-1,1l2,-1v1l1,1v2h-1l2,2v1h1v1l-2,1h-1l-1,-2l-1,1v1l1,1v2l-1,1l-2,-2v1l1,1h-2l-2,-2v-1l-1,-1v1h-3v-1l1,-1h3l1,-1l2,-1v-1l-1,-1h-1l1,-1l-1,-1h-5l-1,-1h-1l1,-1h-1l1,-1l2,-1l1,-1h2ZM138,774h2l-1,1h-1l1,1l-2,1h-2v-2l1,1v-1ZM298,772h-2v-1ZM141,776l-2,1v-1l2,-2h2l1,1l-2,1ZM122,776h-2l-1,-1h1l2,-1l2,-2h2v1h2v1h-1l-3,1h-2ZM299,769v1h-3v-1h1ZM143,773v1l-1,-1h-1l1,-1h1l1,1ZM295,769l1,1h-2l-1,1l-2,-1l-1,-1h2ZM143,771h-1v1l-1,1h-2l1,-1h-1l1,-1h2ZM136,771h1v1h-4l-2,1h-1l1,-1h-1l-1,-1l2,-1h1l2,1l1,1v-2h2ZM246,780h-3l-2,-1v-1l1,-2h-1l1,-1l-1,-1h1l4,-2h2l-1,1l-2,1l-1,1v2l-1,1l1,1ZM145,770l1,1h1l-1,1h1l1,1h4v1h-7l-1,-1l1,-1v-1h-2l1,-1ZM134,769l-2,1h-4l2,-1h3ZM271,770l1,1v-1h2l2,1h1v1l-1,1h1l2,1v-1l1,1l1,-1h2l1,1h3l-2,-1h5l1,1v1h2l2,1l-1,-1h1l1,-1l2,1v-1h1l-2,-1h8l3,1l1,-1h2l2,2h2v-1h3l3,1v-1h-2v-1h7l8,5h-1l1,1l2,1h2v1h-1v1h-1l1,1v2l-2,-1v2l-1,-1v1h-1l2,2v1h1l3,2h-1l1,1h1v1l1,2h-1l1,2l1,1l-4,-2l-4,-3l-1,-2l-1,-1v-3l-1,-2v-1l-2,-2l-1,1l2,2l-3,-1l-1,1l1,2l1,1h-1l-1,1l-1,-1h-1v1h-4v7h1l2,1h1l-1,-1h1l3,1l1,2l1,1l1,2l2,2v9h-1l-1,-1v2h-1v1l1,1v1h-1v1l1,1h1l2,2v1l1,1v1l-1,1h-1l-1,-2l-1,-1h1l-2,-1v-1v1v-1h-1v-1l-1,-1h-2v1h-1l-1,-1l1,-1l-1,-1l-1,1v2h-1v1l2,2h1v-1h2l1,1l-2,1v2l2,2l1,2l2,1v2h1v6l-2,4l-1,1h-1v1l-1,-1v1l-2,1h-1v2l-1,-1v-1h-2l-1,2v2l1,1l1,2l2,2l1,3v4l-2,1v1l-2,1v-2l-1,-1h-1v-1l-2,-2h-1v-1h-1v6h1v3l1,1h1v1h1v1l1,1v3h1v2h-1l-2,-2v-1l-1,-1v-1l-1,-1v-2l-1,-1v-1h-1v-6l-1,-1v-1l-1,-2v-2l-1,-1l-2,2h-1v-3l-1,-2v-1h-1l-2,-2v-1l-1,-1h-1v2l-1,-1v1h-2v2l-2,1l-1,2v1l-2,2h-1v8l-1,1l1,1h-1l-1,1l-1,-1l-1,-2v-1l-1,-1v-1l-1,-2v-1l-3,-6v-3l-2,1h-1l-1,-2v-1l-2,-1l-1,-1v-1l-1,-1l-2,1h-5l-1,-1h-2v-2h-1l-1,1h-2l-3,-3l-1,-2l-1,1v-1l-1,1v2l1,1h1l1,1v2l1,1l-1,-1l1,-1v2h1v1l1,-1h2v-1l1,-1v-1v2l2,2h1l2,2l-1,1v1h-1v3h-1v1h-1v1h-2v1h-1l-2,2h-1l-2,2v-1l-1,1h-2v1h-2v-2l-1,-1v-3h-1v-1l-1,-1v-1l-1,-1h-1v-1l-1,-1v-3h-2v-2l-1,-1v-1l-2,-2v-1v1l-1,1l-1,-1l-1,-2l1,2l1,1l1,2v1l2,2h-1l2,2v1l1,1h-1l1,2v1l1,1l1,2v1l1,1l2,1v1h1v1h1v1l-1,1h1l1,1h3l1,-1h3v-1h1v2l-1,1v3l-1,1l-3,6l-1,1l-2,1l-1,1l-1,2v1h-1v1h-1v2l-1,1l-1,2l1,1v4l1,1v7l-1,1h-1l-3,3h-1v1l-1,1v2h1l-1,1h1v1l-1,1h1l-1,1h-1l-2,2v3l-3,3v1l-2,1v1l-1,1h-2v1l-1,-1v1l-1,-1l-1,1h-2l-1,1l-1,-1h-1v-5l-1,-1v-2l-1,-1v-1l-1,-1v-5l-1,-1v-1l-1,-2v-1l-1,-1v-3l1,-1v-3h1v-1l1,-1v-1h-1v-5l-1,-1v-2l-3,-3l-1,-2l1,-1v-5l-1,-1v-1l-1,1h-2l-1,-1v-1l-1,-1h-2l-1,1h-2l-1,1h-6l-1,1l-4,-4h-1l-1,-1v-1l-1,-1v-1h-1v-1l-1,-1v-1h-1v-3h-1l1,-1v-1h1l-1,-1l1,-1v-4l-1,-1v-1h1v-2l1,-1v-1h1v-2h1l1,-2h1l2,-2v-3l3,-3l1,-2v-1h1l1,1h2l1,-1h2l1,-1h4l1,-1h1v1h1l1,-1h1v1l1,-1v1h-1v1h1v2h-1v1h1v1h3l2,2h1l2,2l1,-1v-2l1,-1h2l1,1h1l1,1h2l1,1h1v-1h2l1,1v-1h1l1,1v-2l1,-1v-5h-2l-1,1l-1,-1h-2v1l-1,-1h-2v-1l-1,-1v-2l1,-1h1v-1h2l1,-1h1l2,-1l2,1l1,1h2l1,-1v-2h-1l-2,-2h-1l-1,-1l1,-1l-1,-1h2l-1,-1v1h-2l-1,1v1h1l-1,1h-1v-1h-1l1,-1h-2v-1h-1v1l-1,1v1h-1v4l1,1h-2v1h-1v-1h-2l1,1h-2v1l1,1h-1h1l1,1v1l-1,-1v1h-1l1,1h-2v-2l-1,-1v-1h-1v-3h-1v-1h-1l-1,-1h-1l-1,-1v-1l-1,-1v1v-1h-2v1l2,2v1l1,1h1l1,1h1l1,1v1l-1,-1h-1v1h1v1h-1v1h-1v-1h1l-1,-1v-1h-1l-1,-1h-1l-2,-2l-1,-2h-2v1h-4l-1,1v2h-2v1l-1,2h1l-1,1v1h-1l-1,1h-2l-1,1l-2,-2v1h-2l1,-1v-1h-1v-2l1,-1v-3l-1,-1l2,-1l1,1h5v-4l-1,-1v-1h-2v-1h3v-2l1,1l2,-1v-1h1l1,-1l1,-2l1,-1h2v-5h2l-1,1h1v1l-1,1v1h1v1l1,-1h2v1h1l2,-2l1,1h1v-1h1v-3l1,-1l1,1v-1l-1,-1v-1h4l1,-1h-4l-1,1l-2,-2v-4l2,-1v-1l-1,-1l-2,2l-1,2l-1,1v3h1v2h-1v2l-1,2h-1v1h-1v-2l-1,-1l-1,-2l-1,-1l-1,2h-1l-2,-1v-5l2,-1l3,-3l2,-3l3,-3h2l1,-2h3l2,1l-1,1h2l1,1h3l3,1l1,1v1l-1,1h-1l-3,-1h-1l2,1v2l1,1h1v-1h-1l1,-1l2,1v-1l1,-2h1l1,1v-1l-1,-1v-1l-1,-1l2,1h1l-1,1l1,1h1v-1l1,-1l2,-1h1v1l1,-1h1l1,-1l1,1l1,-1h-2l1,-1h2l1,1l4,1v-1h-2v-1h-1l-1,-1v-3h2l1,1v1h1l1,1l1,2h1v3l1,1v-1h1l-1,-1l1,-1h-1l-2,-2v-1l-2,-1l1,-1l-1,-1h1l1,2l-1,-1l1,-1h2l1,1l-1,-1l-1,-2h4l-2,-1v-1h1l1,-1h3l1,-1h1v-2l2,1h-1ZM253,820l1,1v2h-1v1l1,1h1l1,1h3l-1,-1v-2h-1v-2h1v-1l-1,-1h-1l1,1l-1,-1v-1h-2v-2h-1h1v-2l1,1v-3h-2l-1,1h-1v1h-1l-1,2l2,1v1l1,1Z"/>
<path class="tl" d="M146,770h-1v-1h1l1,1ZM137,769h-2l1,-1h1l1,1ZM220,771l-1,1h-1v-1h-1l2,-1v1ZM139,768h-2l1,-1v1ZM146,769h-1v-1h1l1,1ZM144,769h-1l-1,-1h-1h1v-1h1l1,1ZM268,768l-3,1v-2ZM215,769l3,1h-2v3h-1l-2,-1h1l-1,-1l-2,-1v-1l1,-1l1,1h1v-1h1ZM220,768h1l-1,1h-4l-1,-1h3ZM234,767l-1,1h-1v-1h-1h4ZM264,768h-4l-2,-1l-1,-1h1l1,-1l4,2ZM153,767v1h-1l-2,1h-2v-1h1h-1v-1l1,-1h2v-1h1v1h1ZM167,764h3v1h-3l-1,1h-1l-1,1l-2,1h-3v1h-1v1h-2l-2,1h1l-2,1h-4l-1,-1h2v-1h2v-1h-1h1l1,-1h1l-1,-1h4l-1,-1h-3v-1l1,-1h6v-1h3v1l2,-1l1,1ZM190,764l3,1h-6v1h5l-1,1l2,-1h4v1l-2,1h-1l-2,2v2l1,1h-2l1,1l-1,1v1h-1l1,1h-3l1,1v1l-1,-1l-1,1h1l1,1v1h-2l-1,-1v1l-1,1h3l-4,2h-3l-1,1l-4,2h-1l-2,1h-1v1l-2,2v1l-1,1l-1,2h-1l-1,-1h-1l-1,-1v-2l-1,-1v-1l1,-1l-1,-2l1,-1l1,-2h1l1,-1v-1l-1,1h-1v-1l1,-1h1l-1,-1h-1l1,-1v-4l-1,-1h-5v-1l-1,-1h1l-1,-1l1,-1h2l3,-1h1l-2,-1h1l3,-1h1v-1h9l1,1l-1,-1h1l2,-1h3l2,-1Z"/>
<path class="th" d="M19,913h-1ZM18,912v1Z"/>
<path class="tg" d="M66,970h1l1,-1h4v-1h5v-1h5v-1h6v-1h6l1,-1h7v-1h8v-1h9l1,-1h11v-1h14v-1h20v-1h79v1h20v1h14v1h11l1,1h9v1h8v1h7l1,1h6v1h6v1h5v1h5v1h4l1,1h1M21,927h6v-1h7v-1h8v-1h10v-1h10v-1h12v-1h14v-1h18v-1h23v-1h38v-1h75v1h38v1h23v1h18v1h14v1h12v1h10v1h10v1h8v1h7v1h6M5,877h399M21,826h4v1h7v1h8v1h9v1h10v1h11v1h14v1h16v1h21v1h32v1h103v-1h32v-1h21v-1h16v-1h14v-1h11v-1h10v-1h9v-1h8v-1h7v-1h4M66,783v1h5v1h4v1h5l1,1h5v1h6l1,1h6l1,1h7v1h10v1h10v1h13l1,1h17v1h36v1h21v-1h36v-1h17l1,-1h13v-1h10v-1h10v-1h7l1,-1h6l1,-1h6v-1h5l1,-1h5v-1h4v-1h5v-1M140,755h-1v1h-3v1h-2v1h-2v1h-2v1h-2v1h-2l-1,1h-1l-1,1h-1l-1,1h-1v1h-2v1h-2v1h-2v1h-1l-1,1h-1v1h-2v1h-1l-1,1h-1v1h-2v1h-1v1h-2v1h-1v1h-2v1h-1v1h-1l-1,1h-1v1h-1v1h-2v1h-1v1h-1v1h-1v1h-2v1h-1v1h-1v1h-1v1h-1v1h-1v1h-1l-1,1h-1v1h-1v1h-1v1h-1v1h-1v1h-1v1h-1v1h-1v1h-1v1l-1,1v1h-1v1h-1v1h-1v1h-1v1h-1v1l-1,1v1h-1v1h-1v1h-1v2h-1v1h-1v2h-1v1h-1v2h-1v1h-1v2h-1v2h-1v1h-1v2h-1v2h-1v2h-1v2h-1v2l-1,1v2h-1v2l-1,1v2h-1v3h-1v4h-1v4h-1v5h-1v9h-1v13l1,1v8h1v5h1v4h1v4h1v3h1v3h1v2h1v3h1v2h1v2h1v2h1v2h1v2h1v2h1v1l1,1v1h1v2h1v1h1v2h1v1h1v1h1v2h1v1h1v1l1,1v1h1v1h1v1h1v1l2,2v1h1v1h1v1h1v1h1v1h1v1h1v1h1v1h1v1h1v1h1v1h1v1h1v1h1v1h2v1h1v1h1v1h1v1h1v1h1l1,1h1v1h1v1h1v1h2v1h1v1h1l1,1h1v1h1v1h2v1h1v1h2v1h1l1,1h1v1h2v1h1v1h2v1h2v1h1l1,1h1v1h2v1h2v1h2v1h2v1h2v1h2v1h2v1h2l1,1h2v1h2v1h2M153,755h-1v1h-2v1h-2v1h-1v1h-2v1h-2v1h-1v1h-2v1h-1v1h-2v1h-1v1h-2v1h-1v1h-1v1h-2v1h-1v1h-1l-1,1h-1v1h-1v1h-1v1h-1v1h-1l-1,1h-1v1h-1v1h-1v1h-1v1h-1v1h-1v1h-1v1h-1v1h-1v1h-1v1h-1v1h-1v1h-1v1h-1v1h-1v1h-1v1h-1v1l-2,2v1h-1v1h-1v1h-1v1l-1,1v1h-1v1h-1v2h-1v1h-1v1l-1,1v1h-1v2h-1v1h-1v2h-1v1h-1v2h-1v2h-1v2h-1v2h-1v2h-1v2h-1v2h-1v3h-1v2h-1v3h-1v3h-1v3h-1v3h-1v4l-1,1v4h-1v6l-1,1v30h1v6h1v5h1v4h1v3h1v3l1,1v2l1,1v2h1v3h1v2h1v2h1v2h1v2l1,1v1h1v2h1v2h1v2h1v2h1v1h1v2h1v1h1v2h1v1h1v2h1v1h1v1h1v2h1v1h1v1h1v1l1,1v1h1v1h1v1h1v1h1v1h1v1h1v1l3,3v1h1l3,3h1v1h1v1h1v1h1v1h1v1h1v1h1v1h1l1,1h1v1h1v1h1v1h1l1,1h1v1h1v1h1l1,1h1v1h1v1h2v1h1v1h2v1h1v1h2v1h2v1h1v1h2v1h1l1,1h1v1h2M166,755h-1v1h-1v1h-1l-1,1h-1v1h-1v1h-1v1h-1v1h-1v1h-1l-2,2h-1v1h-1v1h-1v1h-1v1h-1v1h-1v1h-1v1h-1v1h-1v1l-2,2v1h-1v1h-1v1h-1v1h-1v1l-1,1v1h-1v1h-1v1h-1v2h-1v1h-1v1l-1,1v1h-1v1h-1v2h-1v1h-1v2h-1v2h-1v1h-1v2h-1v2h-1v2h-1v1l-1,1v1l-1,1v1l-1,1v2h-1v2h-1v2h-1v3h-1v2h-1v3h-1v3h-1v3h-1v3h-1v4h-1v4h-1v5h-1v6h-1v8h-1v30h1v7l1,1v5h1v5h1v4h1v4h1v3h1v3h1v3h1v3h1v3h1v2h1v2h1v2l1,1v2h1v2h1v2h1v2h1v1h1v2h1v2h1v2h1v1h1v2h1v1h1v2h1v1l1,1v1h1v1h1v2h1v1h1v1h1v1l1,1v1h1v1h1v1h1v1l1,1v1h1v1h1v1h1v1h1v1h1v1h1v1h1v1h1v1h1v1h1v1h1v1h1v1h1v1h1v1h1l2,2h1v1h1v1h1v1h1v1h2v1h1"/>
<path class="tg" d="M179,755h-1v1h-1v2h-1v1h-1v1h-1v1h-1v2h-1v1h-1v1l-1,1v1h-1v1l-1,1v1h-1v1l-1,1v1h-1v2h-1v1l-1,1v1h-1v2h-1v2h-1v2h-1v2h-1v2h-1v2h-1v2h-1v2h-1v2l-1,1v2h-1v2l-1,1v2h-1v3h-1v3h-1v3h-1v3h-1v4h-1v4h-1v4h-1v4h-1v5l-1,1v5h-1v8h-1v11h-1v29l1,1v10l1,1v7h1v6h1v5h1v4l1,1v4h1v3l1,1v3h1v3h1v3h1v3h1v3h1v3h1v2h1v3h1v2h1v2h1v2l1,1v2h1v2h1v1l1,1v1l1,1v1h1v2h1v2h1v1l1,1v1h1v2h1v1h1v2h1v1h1v2h1v1h1v1l1,1v1h1v1h1v1h1v2h1v1h1v1h1M192,755h-1v3h-1v2h-1v3h-1v3h-1v3h-1v3h-1v3h-1v3l-1,1v3h-1v4h-1v4h-1v4l-1,1v4h-1v5h-1v6h-1v6l-1,1v7h-1v8h-1v11l-1,1v18h-1v29l1,1v18h1v11h1v8l1,1v7h1v6h1v6h1v5h1v5h1v4h1v4h1v4h1v4h1v3h1v3l1,1v3h1v2l1,1v2h1v3h1v3h1v2h1M205,755v243M217,755h1v3h1v2h1v3h1v3h1v3h1v3h1v3h1v3l1,1v3h1v4h1v4h1v4l1,1v4h1v5h1v6h1v6l1,1v7h1v8h1v11l1,1v18h1v29l-1,1v18h-1v11h-1v8l-1,1v7h-1v6h-1v6h-1v5h-1v5h-1v4h-1v4h-1v4h-1v4h-1v3h-1v3l-1,1v3h-1v2l-1,1v2h-1v3h-1v3h-1v2h-1M230,755h1v1h1v2h1v1h1v1h1v1h1v2h1v1h1v1l1,1v1h1v1l1,1v1h1v1l1,1v1h1v2h1v1l1,1v1h1v2h1v2h1v2h1v2h1v2h1v2h1v2h1v2h1v2l1,1v2h1v2l1,1v2h1v3h1v3h1v3h1v3h1v4h1v4h1v4h1v4h1v5l1,1v5h1v8h1v11h1v29l-1,1v10l-1,1v7h-1v6h-1v5h-1v4l-1,1v4h-1v3l-1,1v3h-1v3h-1v3h-1v3h-1v3h-1v3h-1v2h-1v3h-1v2h-1v2h-1v2l-1,1v2h-1v2h-1v1l-1,1v1l-1,1v1h-1v2h-1v2h-1v1l-1,1v1h-1v2h-1v1h-1v2h-1v1h-1v2h-1v1h-1v1l-1,1v1h-1v1h-1v1h-1v2h-1v1h-1v1h-1M243,755h1v1h1v1h1l1,1h1v1h1v1h1v1h1v1h1v1h1l2,2h1v1h1v1h1v1h1v1h1v1h1v1h1v1h1v1h1v1l2,2v1h1v1h1v1h1v1h1v1l1,1v1h1v1h1v1h1v2h1v1h1v1l1,1v1h1v1h1v2h1v1h1v2h1v2h1v1h1v2h1v2h1v2h1v1l1,1v1l1,1v1l1,1v2h1v2h1v2h1v3h1v2h1v3h1v3h1v3h1v3h1v4h1v4h1v5h1v6h1v8h1v30h-1v7l-1,1v5h-1v5h-1v4h-1v4h-1v3h-1v3h-1v3h-1v3h-1v3h-1v2h-1v2h-1v2l-1,1v2h-1v2h-1v2h-1v2h-1v1h-1v2h-1v2h-1v2h-1v1h-1v2h-1v1h-1v2h-1v1l-1,1v1h-1v1h-1v2h-1v1h-1v1h-1v1l-1,1v1h-1v1h-1v1h-1v1l-1,1v1h-1v1h-1v1h-1v1h-1v1h-1v1h-1v1h-1v1h-1v1h-1v1h-1v1h-1v1h-1v1h-1v1h-1v1h-1l-2,2h-1v1h-1v1h-1v1h-1v1h-2v1h-1M256,755h1v1h2v1h2v1h1v1h2v1h2v1h1v1h2v1h1v1h2v1h1v1h2v1h1v1h1v1h2v1h1v1h1l1,1h1v1h1v1h1v1h1v1h1l1,1h1v1h1v1h1v1h1v1h1v1h1v1h1v1h1v1h1v1h1v1h1v1h1v1h1v1h1v1h1v1h1v1h1v1l2,2v1h1v1h1v1h1v1l1,1v1h1v1h1v2h1v1h1v1l1,1v1h1v2h1v1h1v2h1v1h1v2h1v2h1v2h1v2h1v2h1v2h1v2h1v3h1v2h1v3h1v3h1v3h1v3h1v4l1,1v4h1v6l1,1v14l1,1h-1v15h-1v6h-1v5h-1v4h-1v3h-1v3l-1,1v2l-1,1v2h-1v3h-1v2h-1v2h-1v2h-1v2l-1,1v1h-1v2h-1v2h-1v2h-1v2h-1v1h-1v2h-1v1h-1v2h-1v1h-1v2h-1v1h-1v1h-1v2h-1v1h-1v1h-1v1l-1,1v1h-1v1h-1v1h-1v1h-1v1h-1v1h-1v1l-3,3v1h-1l-3,3h-1v1h-1v1h-1v1h-1v1h-1v1h-1v1h-1v1h-1l-1,1h-1v1h-1v1h-1v1h-1l-1,1h-1v1h-1v1h-1l-1,1h-1v1h-1v1h-2v1h-1v1h-2v1h-1v1h-2v1h-2v1h-1v1h-2v1h-1l-1,1h-1v1h-2"/>
<path class="tg" d="M269,755h1v1h3v1h2v1h2v1h2v1h2v1h2l1,1h1l1,1h1l1,1h1v1h2v1h2v1h2v1h1l1,1h1v1h2v1h1l1,1h1v1h2v1h1v1h2v1h1v1h2v1h1v1h1l1,1h1v1h1v1h2v1h1v1h1v1h1v1h2v1h1v1h1v1h1v1h1v1h1v1h1l1,1h1v1h1v1h1v1h1v1h1v1h1v1h1v1h1v1h1v1l1,1v1h1v1h1v1h1v1h1v1h1v1l1,1v1h1v1h1v1h1v2h1v1h1v2h1v1h1v2h1v1h1v2h1v2h1v1h1v2h1v2h1v2h1v2h1v2l1,1v2h1v2l1,1v2h1v3h1v4h1v4h1v5h1v9h1v13l-1,1v8h-1v5h-1v4h-1v4h-1v3h-1v3h-1v2h-1v3h-1v2h-1v2h-1v2h-1v2h-1v2h-1v2h-1v1l-1,1v1h-1v2h-1v1h-1v2h-1v1h-1v1h-1v2h-1v1h-1v1l-1,1v1h-1v1h-1v1h-1v1l-2,2v1h-1v1h-1v1h-1v1h-1v1h-1v1h-1v1h-1v1h-1v1h-1v1h-1v1h-1v1h-1v1h-1v1h-2v1h-1v1h-1v1h-1v1h-1v1h-1l-1,1h-1v1h-1v1h-1v1h-2v1h-1v1h-1l-1,1h-1v1h-1v1h-2v1h-1v1h-2v1h-1l-1,1h-1v1h-2v1h-1v1h-2v1h-2v1h-1l-1,1h-1v1h-2v1h-2v1h-2v1h-2v1h-2v1h-2v1h-2v1h-2l-1,1h-2v1h-2v1h-2"/>
<rect x="3" y="892" width="26" height="32" fill-opacity="0" stroke="#ffffff" stroke-opacity="0.5" stroke-width="5.0"/>
<rect x="5" y="894" width="26" height="32" fill-opacity="0" stroke="#113311" stroke-opacity="0.8" stroke-width="5.0"/>
<rect x="4" y="893" width="26" height="32" fill-opacity="0" stroke="#45a249" stroke-opacity="0.9" stroke-width="5.0"/>
<rect x="691" y="691" width="309" height="309" fill="#ffffff" fill-opacity="1.0"/>
<rect x="694" y="694" width="302" height="302" fill="#000000" fill-opacity="1.0"/>
<rect x="700" y="700" width="300" height="300" fill="#70add3" fill-opacity="1.0"/>
<path class="zl" d="M720,818h-2l-1,-1v-1h3ZM728,826l-1,1l-2,-1v-1h3ZM744,816l-2,1l-1,-2l1,-1h1l1,1ZM720,793v1h-1l1,-2v-1l-2,-1v-1h1l2,1l1,1l-1,1ZM736,859h-2v-2h1h-1v1h2ZM731,911h-1l1,-1Z"/>
<path class="zh" d="M887,837h1v2l-1,-1v2h-1v2l-1,-1v-2l-1,1h-1v-1h1v-1l1,-1h1ZM855,932v5h-1v-1l-1,-1v-1l1,-1v-1h1v-1ZM850,926h1l-3,3v2h-1l-1,-1v-1h-1l-1,-1v1l-1,-1h-1l-2,-2l1,-1v-1h1l-1,1l1,1l2,-1v1h1v1h-1h1v1v-1h2v1l1,-1v-1h1Z"/>
<rect class="zh" x="873.5" y="879.5" width="1" height="1"/>
<rect class="zh" x="849.5" y="878.5" width="1" height="1"/>
<rect class="zh" x="875.5" y="876.5" width="1" height="1"/>
<rect class="zh" x="875.5" y="873.5" width="1" height="1"/>
<rect class="zh" x="830.5" y="732.5" width="1" height="1"/>
<rect class="zh" x="812.5" y="967.5" width="1" height="1"/>
<rect class="zh" x="863.5" y="844.5" width="1" height="1"/>
<circle class="w1" cx="845" cy="927" r="12"/>
<circle class="w1" cx="845" cy="927" r="10"/>
<circle class="c1" cx="845" cy="927" r="11"/>
<circle class="w1" cx="874" cy="880" r="8"/>
<circle class="c1" cx="874" cy="880" r="7"/>
<circle class="w1" cx="886" cy="839" r="9"/>
<circle class="c1" cx="886" cy="839" r="8"/>
<circle class="w1" cx="854" cy="934" r="9"/>
<circle class="c1" cx="854" cy="934" r="8"/>
<circle class="w1" cx="850" cy="878" r="8"/>
<circle class="c1" cx="850" cy="878" r="7"/>
<circle class="w1" cx="831" cy="733" r="8"/>
<circle class="c1" cx="831" cy="733" r="7"/>
<circle class="w1" cx="864" cy="845" r="7"/>
<circle class="c1" cx="864" cy="845" r="6"/>
<circle class="w1" cx="813" cy="968" r="6"/>
<circle class="c1" cx="813" cy="968" r="5"/>
</svg>
