<?xml version="1.0" encoding="UTF-8" standalone="no"?>
<svg xmlns:svg="http://www.w3.org/2000/svg" xmlns="http://www.w3.org/2000/svg" xmlns:xlink="http://www.w3.org/1999/xlink" height="1000" width="1000">
<!-- made with pythonshp (GPL): github.com/sanjayrao77/pythonshp , underlying data may come from naturalearthdata.com -->
<!-- 
COPYRIGHT: THIS SVG FILE IS RELEASED INTO THE PUBLIC DOMAIN
 -->
<!-- 
vars : {
	'cmdline' : 'pythonshp.py publicdomain wiki1 tuvalu locatormap'
	'title' : 'Tuvalu locator'
	'version' : '1.0.5'
}
 -->
<defs>
	<radialGradient id="watergradient" cx="500" cy="500" r="500" fx="500" fy="500" gradientUnits="userSpaceOnUse">
		<stop offset="0%" stop-color="#70add3"/>
		<stop offset="11%" stop-color="#6eaad0"/>
		<stop offset="22%" stop-color="#6ca7cc"/>
		<stop offset="31%" stop-color="#6ba5c9"/>
		<stop offset="41%" stop-color="#69a2c6"/>
		<stop offset="51%" stop-color="#679fc2"/>
		<stop offset="59%" stop-color="#669dbf"/>
		<stop offset="67%" stop-color="#649abc"/>
		<stop offset="75%" stop-color="#6297b9"/>
		<stop offset="81%" stop-color="#6095b6"/>
		<stop offset="87%" stop-color="#5f92b2"/>
		<stop offset="92%" stop-color="#5d8faf"/>
		<stop offset="95%" stop-color="#5b8dac"/>
		<stop offset="98%" stop-color="#598aa8"/>
		<stop offset="100%" stop-color="#5685a2"/>
	</radialGradient>
	<radialGradient id="landgradient" cx="500" cy="500" r="500" fx="500" fy="500" gradientUnits="userSpaceOnUse">
		<stop offset="0%" stop-color="#dddddd"/>
		<stop offset="11%" stop-color="#d7d7d7"/>
		<stop offset="22%" stop-color="#d1d1d1"/>
		<stop offset="31%" stop-color="#cccccc"/>
		<stop offset="41%" stop-color="#c6c6c6"/>
		<stop offset="51%" stop-color="#c0c0c0"/>
		<stop offset="59%" stop-color="#bbbbbb"/>
		<stop offset="67%" stop-color="#b5b5b5"/>
		<stop offset="75%" stop-color="#afafaf"/>
		<stop offset="81%" stop-color="#aaaaaa"/>
		<stop offset="87%" stop-color="#a4a4a4"/>
		<stop offset="92%" stop-color="#9e9e9e"/>
		<stop offset="95%" stop-color="#999999"/>
		<stop offset="98%" stop-color="#939393"/>
		<stop offset="100%" stop-color="#888888"/>
	</radialGradient>
	<radialGradient id="bordergradient" cx="500" cy="500" r="500" fx="500" fy="500" gradientUnits="userSpaceOnUse">
		<stop offset="0%" stop-color="#444444"/>
		<stop offset="11%" stop-color="#3f3f3f"/>
		<stop offset="22%" stop-color="#3a3a3a"/>
		<stop offset="31%" stop-color="#363636"/>
		<stop offset="41%" stop-color="#323232"/>
		<stop offset="51%" stop-color="#2d2d2d"/>
		<stop offset="59%" stop-color="#292929"/>
		<stop offset="67%" stop-color="#242424"/>
		<stop offset="75%" stop-color="#1f1f1f"/>
		<stop offset="81%" stop-color="#1b1b1b"/>
		<stop offset="87%" stop-color="#161616"/>
		<stop offset="92%" stop-color="#121212"/>
		<stop offset="95%" stop-color="#0e0e0e"/>
		<stop offset="98%" stop-color="#090909"/>
		<stop offset="100%" stop-color="#000000"/>
	</radialGradient>
</defs>
<style type="text/css">
<![CDATA[
.c3 {stroke:#45a211;fill-opacity:0;stroke-width:3}
.fs {font:14px sans;stroke:#ffffff;stroke-width:2px;stroke-opacity:0.8;text-anchor:middle}
.ft {font:14px sans;fill:#000000;fill-opacity:1;stroke-opacity:0;text-anchor:middle}
.sb {stroke:url(#bordergradient);fill-opacity:0}
.sg {stroke:#000000;fill-opacity:0.0;stroke-opacity:0.2}
.sh {fill:#45a211;stroke:#000000}
.sl {fill:url(#landgradient);stroke:url(#bordergradient)}
.sp {stroke:url(#landgradient);fill-opacity:0}
.sr {stroke:url(#watergradient);fill-opacity:0}
.sw {fill:url(#watergradient);stroke:url(#watergradient);stroke-opacity:0.8}
.tb {fill:#eeeeee;stroke:black;stroke-width:2}
.tg {stroke:black;stroke-opacity:0.2;fill-opacity:0}
.th {fill:#45a211;stroke:#378100}
.tl {fill:#aaaaaa;stroke:black}
.w3 {stroke:#ffffff;fill-opacity:0;stroke-opacity:0.6;stroke-width:3}
.zh {fill:#45a211;stroke:#115511}
]]>
</style>
<circle cx="500.0" cy="500.0" r="500.0" fill="url(#watergradient)"/>
<path class="sl" d="M935,253v1v-1l-1,-1l1,1h-1v-2v2h1v1l1,1v1l1,1v1h1v1h-1h1h-1v-1l1,2l1,1l-1,-1l1,1v1l1,1v1l2,4l-1,-1l2,2v1l1,1v2h1v2h1l1,3l1,1v2l1,1l2,4l2,5l2,3v2l3,6v1l1,1v2l1,2l1,1l1,3v1h1v2h1v1v-1h-1v-2l-1,-1l-1,-2l2,3v2l1,2l1,3l1,1v1l2,3l2,6v1l1,2v1l1,1v2h1l-1,-1l1,1v1l1,1v1l1,2l-1,-1v-1v1l1,1v2l1,1v2l1,1v2l1,1v3l1,1v2l1,1v2l1,1v3l1,1v2v-2l-1,-2v-2l-1,-1v-1v1v-2l-1,-1v1v-1v1h1h-1l1,2v1l-1,-2h-1l-1,-3v-1l-1,-2l-1,-1v-1l-1,-2h-1v-1l-1,-1v-1l-2,-2v-2l-1,-1v-1h-1l-1,-1v-1l-2,-2v-1l-1,-2l-1,-1v-1l-2,-2l-1,-2l-1,-1v-1l-1,-1l-1,-3l-1,-2l-1,-1v-1h1l-1,-1v-1h-1v-4l-1,-1v-1l-1,-1l-1,-2v-1l-2,-3l-1,-2l-1,-1v-1l-1,-2l-1,-1l-3,-6l-1,-1l-3,-4l1,1l-2,-2v-1h-1l-1,-2v-1v1v-1l-3,-3v-1v1l-1,-1v-1v1l-1,-1l-1,-3l-1,-1v-1v1h1l-1,-1v-1l-2,-2h-1v-1l-1,-1v-1h-1l-1,-1v-1h-1v-1l-1,-1v-1l-4,-4l-1,-2l-1,-1h-1v-1l-3,-3v-1l-1,-1v-1h-1v-1l-2,-1v-2h-1l-1,-2l-2,-2l-1,-2v-1l-2,-2h1h-1v-1h-1l-2,-2v-1h-1v1l-2,-2h-1v-1l-1,-1v1h1v1l1,1l1,3h1v1l1,2l2,2l1,2l2,2v1l4,4l1,2h1v1l3,3v1h1v1l1,1v1l4,4l1,2v1h1v1h1v2l1,1v-2l1,2v1l2,2l1,2v1l1,1l1,2l1,1l2,4l1,1v1l1,1l1,2v1h1v1v-2h-1h1l1,1v1l1,1v1h1v2h1l1,1v5l-1,-1l-1,-3v-1l-2,-2l-1,-2h-1l-2,-4h-1l-1,-1v-1h-1l-1,-2v-1h-1l-1,-3v-2h-1v-1l-1,-1l-2,-3l-3,-3v-1h-1v-1h-1v1v-1h-1v-1h-1l-1,-1v-1h-1v-1l-4,-4h2l1,1l-1,-1v-1l-1,-2v-1l-1,-2l-6,-6h-1l-3,-3v-1l-1,-1v-1l-1,-1v-1h-1l-1,-1v-1l-3,-3v-1l-3,-3v-1h-1v-1l-1,-1l-1,-2h-1v-1l-3,-3v-1h-1v-1l-4,-4h-1l-1,-1h-1v-1l-1,-1h-1l-2,-1v-1h-1l-2,-2h-3v-1h-1v-1l-1,-1v-1l-1,-1h-1v-1h-1v-1l-2,-2h-1l-5,-5v-1h-1v-2h-1l-1,-1h-1l-2,-2v-1l-3,-3h1v1h1v1h1l-3,-3l1,-1l1,1h1l-1,-1h-3l1,1v1v-1h-1l-1,-1v1v-1h-1v-1l1,1l-1,-1h-1v-1l-1,-1h-1l-6,-6v-1l-4,-4l-2,-1v-1h-1v-1l-1,-1h1h-1v-1l-1,-2l-1,-1h-1v-1l-5,-5l-1,-2h-1l-1,-1v-1h-1l-1,-2v-1l-1,-1l-2,-3l-1,-1v-1h-1l-1,-1v-1l-4,-4v-1l-2,-1l-1,-2h-1h1v-1h-2v-1l-1,-1l1,1l-1,-1h-1v-2h-2l-4,-4h-1l-1,-1v-1l-1,-1h-1l-1,-1h1l1,1h1l1,1h4v1h1v1h1h-1l1,1v1h1v1v-1h-1v-2l-1,-1h1v2h1l2,2h-1h1h-1v1h2l-2,-2v-1h-1v-1h-1v-1h-1v-1h-1l1,1v-1h-1v-1h-2v-1l-1,-1h-1v-1l-1,-1h-2v-1h-1h1l-1,-1v1v-1h-1l-1,-1l1,1h-1l-1,-1h-1l-1,-1l1,1h1v-1l-1,1v-1h-1l-1,-1v-1h-1l1,1v1l-1,-1h-1l-1,-1l-2,-1v-1h-1v-1h-1l-1,-1h1v2l-1,-1h-1l1,1l-1,-1h-2v-1h1h-2v-1h-1l-1,-1v1h-2l-1,-1h-1v-1h-1v-1h-1v-1h1h-1v1l-1,-1h-1v-1h-1v-1h-1v-2l1,1h1l1,1h1h-1l-2,-2h-1v-1h-1v-1h-1h1v3l2,2l-2,-1l-1,-1v-1h-1v-1v1l-2,-2v-1l-1,1v-1l-2,-1h-1l-1,-1h-1l-2,-2h1v1h1l1,1h2l1,1v-1h-1l-1,-1h-2l-2,-2v2h1v1h-1l-1,-1h-1v-1h-2v-1h-1v-2l-1,1l-1,-1h-1v-1h-1v-2h-1v-1h-1v-1h-1v-1h-1h1v1h1v1l-2,-2h-1v-1h-1l1,1h1v1h1l1,1v2l-1,-1h-1v-1h-1v-1h-1v-1h-1l-1,-1h-1l-1,-1v-1l-1,1h-1h1v1l1,1l-1,-1h-1v-1l-1,-1h-1v-1h-2v-1h-2v-1h-2v-1h-2l-2,-1l-2,-2h-1h2h-2v-1h-1h1h-2l-1,-1h-1l-1,-1h-2v-1h-1l-2,-1h-1v-1l-2,-1h-1l-1,-1l1,1h1l2,2h1v1l2,1h-1l-1,-1h-2v-1l-2,-1h-1v-1h-1l1,1h1h-2l-1,-1h-1v1h1h-1h3v1h2l1,1h-1v1v-1h-2l-3,-1l-1,-1h-1l-1,-1h-3v-1h-1l-2,-1h-3v-1l-1,-1h1l1,1h1h-1v-1v1l-1,-1h-2v1h-2l-3,-1v-1h-10v-1h-3l-1,-1h-1v-1v1h-3v-1h-3v-1h-2v-1h1h-1l-1,1h-2v-1v1h-1v-1h-1v1h-1h1l1,1h-1h3v1h-1h1v1h-3v1l-1,-1v1h-1h1l-1,1h-1v1h-4v-1h1v-1h-3v-3h-1v-1h1v-1h4l2,1v-1h-4v-1l1,-1h-1l-1,1h-3v1h-1v1h-1v2h-1l-1,-1l1,1h1v1h-1h1v1h-1l-1,-1v1l-1,1l1,1h2l1,1h1v1h-1v1h-1h1v1h-3v1h-1v1h-2l1,1h-1v-1v1h-1h1v1h-1v1h-2v1h-3v1h-1h1l1,1h-2v1h-3v1v-1h-2l-1,1h-1v1l-1,-1l-1,1h-2v-1h1h-2v2h-3v-1h-1v1h1v1h-1l-1,-1v1h-1v-1h1v-1h1l2,-2h1l2,-1h2l-1,1h3l-1,-1v-1h1v-1h1l2,-1h2v-2h1v-1h1v-2h-1v-1h1h-1l-1,-1l1,-1h1h-1v-1l-2,1h-3l-1,-1h1l-1,-1l-1,1h-1h1v1l1,1h-1l-2,-1h-1l-1,-1h-3v-1l-1,1h-2v1h-3l1,-1h-1v-1h-1l-1,-1v-1l-2,-1l-2,-2v-1h1h-1v1h-1l1,1h-1v1h-5v-1h-2l-1,-1h-2v-1h-2l1,-1h3v1h1v-1h1v1h2v-1h-8v-1h1h-2v-1v1h-1l-1,-1h-1l1,-1h-2v-1h1v-1l1,-1h1l1,-1h-1v1v-1h-1v-1h1v-1h2l1,1h3l1,-1h4l1,-1l-2,-2h-2v-1h1l-1,-1h-2l-1,1h-2v1l-1,-1h-1h1v1l-1,-1h-11l-1,-1h-1l-1,-1h2v-1h-7v-1h-1h4v-1h3v-1h6v1h7l1,1v-1h1l-1,-1l-1,1v-1h-2l-1,-1h-1h2l1,1h3l1,1h2v-1h-6v-1h-3v-1v1l-1,-1l-1,1l-1,-1h-2l-1,-1h-1l-5,-2h-5l1,-1v1v-2h7l1,-1l-1,-1l1,-1h4l1,-1v1h1l1,-1h-1h1h-1h4l1,-1h4v1h-1h2v-1l1,1h8l-1,1h7v1l1,-1h1l2,1h3l2,1l1,-1l1,1h9l1,1h3l1,1h6l2,1h2l1,1h5l1,1h1l-1,-1h-1h1h-2v-1h1h-1h1h-1v-1h1v1h2v1l1,-1h-1h2v-1h2v1h-1v1h1h-1h1v1h1v-1h-1h1h-1h1h-1v-1l1,1h1v-1h-1h2l-1,-1h-1l-1,-1h-1h1l2,1h1l2,1h2l1,1h3v1h1v-1h-2l-1,-1v1h1l-1,-1h-1h2l1,1h1l1,1h1v-1h-1h3l1,1h3v1h3l1,1h4l1,1h1l-1,-1v1v-1v1h3l1,1h2v1h2v1h3v1h5l1,1h2l1,1l-1,-1h-1h1l1,1h2v1h2v1h3l1,1h-1l-1,-1h-1l-1,-1l1,1v-1v1v-1h-2l-1,-1h-2l-1,-1h-2v-1h-1l-1,-1h-2v-1v1h2v1v-1h-2l-2,-1h-1h2l2,1h1l1,1h2v1h2l1,1h2l1,1h2l1,1h1l1,1h1l1,1h2l1,1h1l1,1h1l1,1h2l1,1h1l1,1h1l1,1h1l1,1h1l1,1h1l1,1h2l2,2h2l1,1h1l1,1h1l2,2h2l1,1h1l2,2h1l1,1h1l1,1h1l1,1h1l2,2h1l1,1h1l1,1h1l2,2h1l1,1h2l2,2h1l2,2h1l1,1h1l2,2h1l2,2h1l2,2h1l1,1h1l2,2h1l2,2h1l3,3h1l2,2h1l1,1h1l3,3h1l3,3h1l3,3h1l4,4h2l4,4h1l5,5h1l5,5h1l5,5h1l7,7h1l3,3v1l3,3h1l10,10h1l1,1v1l9,9v1l5,5h1l2,2v1l6,6v1l6,6v1l5,5v1l4,4v1l2,2v1l2,2v1l4,4v1l3,3v1l3,3v1l3,3v2l3,3v1l3,3v1l3,3v2l2,2v1l2,2v1l3,3v2l2,2v1l2,2v1l1,1v1l1,1v1l2,2v1Z"/>
<path class="sp" d="M974,341v1l1,1v2l1,1v2l1,1v2l1,1v3l1,1v2l1,1v2l1,1v3l1,1v2M687,36l1,1h2l1,1h1l1,1h1l1,1h2l1,1h1l1,1h1l1,1h2l1,1h1l1,1h1l1,1h1l1,1h1l1,1h1l1,1h2l2,2h2l1,1h1l1,1h1l2,2h2l1,1h1l2,2h1l1,1h1l1,1h1l1,1h1l2,2h1l1,1h1l1,1h1l2,2h1l1,1h2l2,2h1l2,2h1l1,1h1l2,2h1l2,2h1l2,2h1l1,1h1l2,2h1l2,2h1l3,3h1l2,2h1l1,1h1l3,3h1l3,3h1l3,3h1l4,4h2l4,4h1l5,5h1l5,5h1l5,5h1l7,7h1l3,3v1l3,3h1l10,10h1l1,1v1l9,9v1l5,5h1l2,2v1l6,6v1l6,6v1l5,5v1l4,4v1l2,2v1l2,2v1l4,4v1l3,3v1l3,3v1l3,3v2l3,3v1l3,3v1l3,3v2l2,2v1l2,2v1l3,3v2l2,2v1l2,2v1l1,1v1l1,1v1l2,2v1"/>
<path class="sl" d="M397,11h-1ZM393,12l1,-1l-1,1v-1h1l-1,1h-1h1l1,-1v1h-2l-2,1h1h-4l-1,1h-3l-2,1h-3l-1,1h-3v1h-2l-5,1l-2,1l-6,1v1v-1h3l1,-1h4v-1h4v-1l-1,1l1,-1h1l-1,1h-2l-1,1h-2l-1,1h1v-1h2l1,-1h3v-1h4l-1,1h4l1,-1h3v-1h7l-1,1h-1h1h-1l-1,1h-1h1h-2l-1,1v-1h-1v1h-1h1h-1l-1,1h-1l-1,1h1l-1,1h1l1,-1h2l1,-1h2l1,-1h2v1h2v-1h5v1l1,-1h1h-1h2l1,-1v1h2l1,-1h1h-1h1l1,-1h1h-1h1l1,-1h4v-1h1v1h3v1l2,-1h4l-1,1h-1v-1h-1v1h-3v1l2,-1h2l2,-1h6v1h-1v1h1h-2h4v1h-1h7l2,-1h9l1,1h1v1h-1v1h-1h3l-1,1v1l-1,1h-1h1l1,-1h1v-1h1l2,-1h18v1h3v1h3l2,-1l-1,-1h-1h1v-1h18l2,1h6v1h3l1,1h3l1,1v-1h-1v1h4v1v-1h1v1l7,1l1,1h-1h2v1h1v1h-1h2v1h2v-1h-1v-1h-1h9l1,1h2l2,1h1v1h1h-1v1h-2v1h-1v-1l-1,1h-1v-1h-2l1,1h-1h1l1,1h-3v1h2v1h1h-6l-1,-1h-5v-1h-1l-1,-1h-1l-1,-1h-8v-1h-1h1v-1h-4v2h2l-1,1h-1l-1,1h-2l-1,1h-6l-1,-1h-1h1v1h-1v-1h-4l-2,1h-1h2l1,-1h1l1,1h-1h5v1h3l2,2h-1v1h2v1h1v1h1v1h-1v1h-1l-4,-1h-3v-1h-1v1h1h-2l-1,1h-4v1h-4v1h-4l-1,1h-3l1,1h-3v1h-3l-1,1l-2,1h-2v1h-1v1h-1l-2,-2h-1l-1,-1l-1,1h-1l-1,-1l-1,1h-4l-1,1l-3,1h-1v-1l1,-1h-2l-1,1h-2l-2,2v-1h-6v1h-1l-1,1v1h-2v1h-1l-1,1h-1l-2,1v1l-1,1v1h2v-1h1l2,1v1h-2l-1,1v1l-1,1h2v3h-4l1,-1h1l1,-1h-1v1l-1,-1v1h-1l-1,1h-2l-2,2v1l-1,1v1h1v1l-1,1h-6l-1,1l-2,1h-2v1l-1,1v1l-1,1h1l-1,1h-4l-1,1h-2l-1,1v1h-1v1l-3,3l-2,1h-2v1l-2,1l-3,1v-2l1,-3v-2h1l-1,-1v-1l1,-1l1,-3v-1l1,-3v-2l1,-1v-1l6,-6h1l4,-2l2,-2h-1h1v-1l1,1l1,-1l2,-1l1,1l1,-1h2l1,-1h2l1,-1h1l1,-1l2,-1l3,-1l1,-1h1l4,-2h1l2,-2h3l2,-1h2l2,-2h1l-1,-1h2v-1l2,-2h3l-1,-1h-2l-3,1h-1l-2,2l1,1h-5l-6,3h-3v1h-1v-1h1l1,-1h-2l-1,1v-1h1v-1h1l1,-1h1v-1l-2,1h-1l-1,-1h-2l-1,1h-6l-1,1h-1l-1,1h-1l-2,1l-1,1h-1l-1,1h-3l-2,1l-1,1h-1v1h-1l-1,1h4v1h-4l-2,1v-1h-2v1h-6l-2,1h-1v-1h2l2,-1h1h-2v-1h-5l-2,-1h-1v1h-1v1h-1l-1,-1v1h-1h1l-1,1h-1v-1h-2l-1,1h-1l-1,-1h-2l-2,1h-1v-1h-1l-4,1h-4l-3,1h-2l-1,1l-2,1h-1l-2,1h-2l-1,1h-1l-2,2h-3l-2,2h-3l-1,1l-2,1l-3,1v1h-1l-3,2h-1l-1,1h-2l-2,1l-1,1h-1l-4,2h-1l-2,1h-1v1h5v1h-1l-3,3h1v-1l1,1l1,-1v-1h1l1,-1h1l-1,1h-1v1h1h-1l-1,1h-1l-1,1h2l1,-1h2l1,-1h1h-1l-1,1h-1v1h1v-1h1l3,-3h4l1,1v2h1v1h1l-2,2l-1,-1l-1,1h1v1l-1,1h-1v2l-1,1h-1l-3,3l-2,1l-2,2l-2,1l-1,2v1l-1,1h-1v1l-3,3h-1l1,1l-2,1l-2,2h-1l-1,1h-1l-2,2l-2,1l-2,2l-3,1l-1,1l-2,1l-1,1v1l-2,1l-3,2l-2,2l-3,1l-2,2h-1l-2,2l-2,1l-1,1h-1l-1,1l-3,2l-2,2l-2,1l-1,1h-2l-3,2l-1,1l-2,1h-2l-1,1l-1,-1h1h-2v-1l-1,1l1,-3h1h-1l-1,1h-1l1,-1l-1,1l-4,2v1h-1v1l-1,-1v1l-1,-1v1l-2,2h-2v1h-2v1h-1l-3,3v1l-1,1l-1,2l-3,1l-2,2h-1v1h-1l-1,1h-1l-1,1h-2v1l-2,1h-1v1l-1,1h-1v2h1v6l-1,2v5l-1,1v1l-1,1v1l-2,2v1h1h-1l-2,4l-2,2h-2l-1,1v-1l-1,1h-1v1h-2v-1l-1,1h-1v2h-1v-1l-1,1v1h-1v-1h1v-1l-3,3v-1l-2,2v-3h2v-1h-1h1v-2h1v-1l2,-2v-1h1l1,-1v-2h1v-2l1,-1v-1v1h-1v-1l1,-1h1v-1h1v1h1v-2l1,-1v-2h1v-1h-2v1v-1l-1,-1v1h-1l-1,1v-1h-1l1,-1h1h-2v-1h1v-1l1,-1h1l1,-1h1l1,-1h-2l1,-1l3,-2v-2l-1,-1h-1v1v-2l1,-1h-1v1h-1l-2,1v-1v1h-2v1h-2l-3,2l-2,2h-1v1h-2v1h-2v1h-1l2,-2l2,-1v-1h1l1,-1h-1v-1h1v-1l1,-1h1l2,-2l2,-1l1,-1v-2h-3l-1,1h-1v1l-3,2h-1l-2,2l-2,1l-1,1h-1l-1,1v1l-2,1v1h-2l-1,1v-1h-2l-3,3v2l-1,1l1,1h2v1l-1,1v1l-2,2v1h2l1,-1v-1l2,-1h1v-1h1l2,-1v1h1v1h2v-1h1v1h1v1l-1,1h-1v1h-1l-1,1v-1h-1l-1,1l-2,1l-1,1h-1v1h-1l-3,3v-1h-1v2h-1l-3,3h-1l-1,1v1l-3,3v2h1l1,1v1h-1l-1,2v3l-1,2v1l-1,1v1l-1,1l1,1v5h-1l-1,-1h-1v-1h-1l-2,1h-1h2v-1l1,1v1l1,1v5h-1l-1,1h-1v1l-2,1l-1,1h-2l-2,2h1v-1h1v1h1l2,-1l1,2h1v1h-1l-2,2h-1v1l1,-1h1v-1v1l-1,3h-1v-1h-1v3h-1v1h-1v2l-2,2v-1h-1v1l-1,1v1h-1v1l-2,1v1l-1,1v1h-1v1l-3,3v1h-1v1h-1l1,-1h-1h1v-1l-2,2h1v2h-1l-2,2h-1v1h1v1l-1,1v1l-1,1v1v-1h-1l-1,1v1h-1v1l-1,1v1h-2l1,1l-1,1h-2l-1,1h-1v1h1l-2,2v1h-1v1h-1v1h-1h1h-1v1h-1v1h-1v-1l-1,2l-1,1v1h-1v2h-2v1h-3v1h-1l-1,1h-1v-1l-1,1v1h-2v1l-1,-1l1,-1h-1l1,-1v-1h-1v2l-1,1v3h-1v1h-1v1v-1h-1v2h-2v1l-1,-1h1h-1v2l-1,-1v1h-1l-2,2h-1v1h-1l-1,1v1h-1v-1v1l-2,2v1h1v1h-1v3h-1l-1,1v-3l1,-1v-3h1v-2h1v-3l-1,2l-1,1v-2h-1v-1l1,-1h-1v2l-1,1v-1v1h-1v1h-1v1h-1v1h-1v2l-1,1v-1h-1v1v-1v1l-1,1l-1,2v1l-1,1v1l-1,2h-1l-2,3v3l-1,1v1h-1v9l-1,1v7l1,2h-1l1,1v14l-1,1v6l-1,1v2l-1,2v4l-1,1v2l-1,3v3h-1v2l-1,1v1l-3,3v1l-1,1l-1,2h-1v1h-1v-1v2l-1,-1v-1v3l-1,-1v1h1v1l-1,1v1l-1,-3v1l1,3v1l-1,1v-1l-1,-2v2l1,1v1h-1l-2,3v2l-1,1v2h-1v-5l1,-4l1,-1v-4l-1,1v-3l-1,-1v1h-1l1,-1v-2h-1v-2l1,-2v-8l-1,1v-3l-1,1v-1l-1,1v-1l1,-1v-2l1,-1v-3h-1v1l-1,1v3l-1,2v1l-1,3v2l-1,1v3l-1,1l-1,3v2l-1,3v2h-1v4l-1,1v5l1,-1l-1,6v1h1v-1v1l-1,1v5l-1,1v1l1,2v3h1v-1v4l1,2v1l-1,1v1h-1v2h-1v1v-2l1,-1v-3h-1v-3h-1v2v-15l-1,1v-3l1,-2v-2l1,-2v-3l1,-2v-5l1,-2v-2l1,-1v-4l1,-1v-4l1,-1v-3l1,-1v-4l1,-2v-5l1,-2v-4h1v-1v1v-4l1,-1l1,-6v-1l1,-1v-2l1,-1v1h-1v-2l1,-1v-3l1,-1h-1v3l-1,1v2l-1,1v1v-1l-1,1v2l-1,1v1l-1,2v-1l1,-1h-1v2h-1l1,-1v-1v1l-1,1l1,-1v-2l1,-2l-1,1v2l-1,1v-1l1,-3l1,-1v-2l1,-1v-2l1,-1v-2l1,-1v-1l2,-6v-2l1,-1v-2l1,-1l-1,1v2h-1h1v-3l1,-1l-1,1h1v-3h1v-3l1,-1h-1l1,-1v-1v1l-1,1l1,-1v-1v1v-1l1,-2v-2l1,-1l1,-3l1,-1v-2l1,-2v-1l1,-1l-1,1l1,-1v-1l1,-1v-1l-1,1v1v-1l1,-3h1v-2l1,-1v-1v1l-1,1v2h-1v2l-1,1v1l-1,1v2h-1v1l-1,2l1,-1v-1v1v-2h1v-1v1l-1,1v1l-1,1v1v-1l1,-1v-1l1,-1v-2l1,-1v-2l2,-2v-2l1,-1v-2l2,-2v-2l1,-1v-1l1,-1v-1l1,-1v-1l1,-1v-1l1,-1v-1l1,-1v-2l1,-1v-1l2,-2v-2l2,-2v-1l1,-1v-2l2,-2v-1l1,-1v-1l1,-1v-1l1,-1v-1l2,-2v-1l1,-1v-1l1,-1v-1l1,-1v-1l1,-1v-1l2,-2v-1l1,-1v-1l2,-2v-1l2,-2v-1l1,-1v-1l2,-2v-1l2,-2v-1l1,-1v-1l2,-2v-1l2,-2v-1l1,-1v-1h1l1,-1v-1l2,-2v-1l2,-2v-1l3,-3v-1l1,-1v-1l2,-2v-1h1l1,-1v-1l2,-2v-1l3,-3v-1l4,-4v-1l3,-3v-1h1l1,-1v-1l4,-4v-1l1,-1h1v-1l3,-3v-1h1l1,-1v-1l7,-7v-1l2,-2h1v-1l25,-25h1l3,-3v-1h1l7,-7h1l1,-1v-1h1l3,-3h1l6,-6h1l4,-4h1l3,-3h1l4,-4h1l3,-3h1l2,-2h1l1,-1v-1h1l1,-1h1l2,-2h1l3,-3h1l2,-2h1l2,-2h1l1,-1h1l2,-2h1l2,-2h1l1,-1h1v-1l1,-1h1l2,-2h1l1,-1h2l2,-2h1l1,-1h1l2,-2h1l2,-2h1l1,-1h1l2,-2h2l2,-2h1l1,-1h1l2,-2h2l1,-1h1l2,-2h2l2,-2h1l1,-1h2l1,-1h1l2,-2h2l2,-2h2l1,-1h1l1,-1h1l1,-1h1l1,-1h2l1,-1h1l1,-1h1l1,-1h2l1,-1h1l1,-1h2l1,-1h1l1,-1h1l1,-1h2l1,-1h2l1,-1h1l1,-1h2l1,-1h2l1,-1h1l1,-1h2l1,-1h2l1,-1h2l1,-1h2l1,-1h2l1,-1h2l1,-1h2l1,-1h3l1,-1h2l1,-1h2l1,-1h3l1,-1h2l1,-1h3l1,-1h2l1,-1h4l1,-1h3l1,-1h3l1,-1h3Z"/>
<path class="sp" d="M394,11h3M37,312v-1l1,-1v-2l1,-1v-2l2,-2v-2l1,-1v-2l2,-2v-2l1,-1v-1l1,-1v-1l1,-1v-1l1,-1v-1l1,-1v-1l1,-1v-2l1,-1v-1l2,-2v-2l2,-2v-1l1,-1v-2l2,-2v-1l1,-1v-1l1,-1v-1l1,-1v-1l2,-2v-1l1,-1v-1l1,-1v-1l1,-1v-1l1,-1v-1l2,-2v-1l1,-1v-1l2,-2v-1l2,-2v-1l1,-1v-1l2,-2v-1l2,-2v-1l1,-1v-1l2,-2v-1l2,-2v-1l1,-1v-1h1l1,-1v-1l2,-2v-1l2,-2v-1l3,-3v-1l1,-1v-1l2,-2v-1h1l1,-1v-1l2,-2v-1l3,-3v-1l4,-4v-1l3,-3v-1h1l1,-1v-1l4,-4v-1l1,-1h1v-1l3,-3v-1h1l1,-1v-1l7,-7v-1l2,-2h1v-1l25,-25h1l3,-3v-1h1l7,-7h1l1,-1v-1h1l3,-3h1l6,-6h1l4,-4h1l3,-3h1l4,-4h1l3,-3h1l2,-2h1l1,-1v-1h1l1,-1h1l2,-2h1l3,-3h1l2,-2h1l2,-2h1l1,-1h1l2,-2h1l2,-2h1l1,-1h1v-1l1,-1h1l2,-2h1l1,-1h2l2,-2h1l1,-1h1l2,-2h1l2,-2h1l1,-1h1l2,-2h2l2,-2h1l1,-1h1l2,-2h2l1,-1h1l2,-2h2l2,-2h1l1,-1h2l1,-1h1l2,-2h2l2,-2h2l1,-1h1l1,-1h1l1,-1h1l1,-1h2l1,-1h1l1,-1h1l1,-1h2l1,-1h1l1,-1h2l1,-1h1l1,-1h1l1,-1h2l1,-1h2l1,-1h1l1,-1h2l1,-1h2l1,-1h1l1,-1h2l1,-1h2l1,-1h2l1,-1h2l1,-1h2l1,-1h2l1,-1h2l1,-1h3l1,-1h2l1,-1h2l1,-1h3l1,-1h2l1,-1h3l1,-1h2l1,-1h4l1,-1h3l1,-1h3l1,-1h4"/>
<path class="sl" d="M27,401v1ZM32,414h-1ZM35,399v1v-1h1ZM58,313v-1ZM61,309l-1,1ZM60,312h-1l1,-1ZM58,313v-1ZM406,596v3h1v-1l1,-1v2h1v2l1,1l-1,1h-3l-1,-1v-2l-1,-3v-2l1,1ZM412,607v1l2,1h1v2h-3v-1l-1,-1v-2l-1,1l-1,-1l1,-1v-1l1,1ZM420,613h-2v-2l1,1ZM419,609h-3v-1h1l1,-1v1ZM421,619l1,2l-1,1h-1l-1,-1h1h-2l2,-2v1ZM415,602h-2l2,-1l1,-1ZM418,606l-1,-2l1,-2l1,3v1ZM418,601h-1v-3l1,1ZM410,604h-1v-1h1ZM412,592h-1v-1h1ZM411,589l-1,-2h2v1h-1ZM434,642h-2l1,-1ZM430,636v1h-1l-1,-1v-2h1v2ZM429,631l-1,1l-2,-1v-3l2,2h-1l1,1ZM371,422h-1ZM184,393h-1l1,-1ZM280,407h-1ZM282,406h-1ZM333,410h-1l-1,-1h2ZM427,417l1,-1v-1v1ZM421,404h-1ZM444,406l1,1v-1l1,1h-2ZM440,406h1h-1v-1ZM244,333h-1ZM238,351l-1,1v-1ZM246,319l1,-1ZM242,343v-1h1v1ZM242,344l-1,1v-1ZM233,359h-1v-1l1,-1h1v-1h1l-2,2ZM595,592h-1h2ZM709,72h-1v-1h-1h1ZM710,73h-1v-1h1ZM695,64h-1ZM648,53v1ZM653,56v-1ZM639,54h-1h2ZM623,52h1ZM605,72v1l-1,-1ZM609,73v1v-1v1ZM580,79l1,-1v1ZM532,88h-1v-1h1ZM555,31l1,-1v1ZM541,39h3v-1l1,1h3v1h1v1h-1v-1h-3l-2,-1h-1v1h-2v-1h-1v-1h1ZM567,51h3v1h1l-1,1h-4l-1,-1h-2l-1,-1h4ZM629,62l1,1v-1h1v1h1h-1h2v1h-1v1h-3v2h-1l1,-1h-2v-1h-1h1v1h-1l-2,-2h-1l1,-1h2l1,1h1h-1l-1,-1h1h-1l-1,-1h1l1,1l1,-1ZM591,73l2,2h-5v1h-2l-1,-1h1v-1h2l1,-1h1ZM712,76h1v2l-2,-2ZM721,79l1,1h1h-1l-1,-1h-1v-1ZM713,74l1,1h-1v-1h-2v-1l-1,-1l1,1h2ZM720,77l1,1h-2v-1v1h-1v-1l-2,-2h2l1,1ZM704,70h2l1,1h1h-2l-1,-1v1h2v1h1h-2v-1h-2v-1h-2v-1h1ZM717,79l1,1v-1v1h1h-2v-1h-1l-1,-1h-2v-1h1l1,1h1v1ZM644,53h1h-2ZM641,55v-2h1v2ZM639,53h1v1l-1,-1v-1v1v-1ZM636,51h-1ZM631,65v1h-1v-1h2ZM629,60h-1v-1h1ZM628,62h-1ZM625,71h-1v-1h1ZM627,68h-1h1v-1ZM629,68h-1v-1h1ZM603,72h1v1h1h-2ZM597,74h-1ZM597,76h-1ZM608,73h-1v1h-1v-1h1ZM582,77l-1,1v-1v1l-1,-1h1ZM583,77h-1l1,-1ZM594,58h-1l1,-1ZM540,50h2v1l-1,-1h-3v-1h1v1ZM556,63h-2ZM564,83h-1ZM559,84h1ZM551,86h-1v-1h1ZM558,66h1ZM531,88h-1v-1ZM532,87h-1v-1h1ZM526,88h-1l1,-1ZM503,87h-1ZM508,90h-1l-2,-1h-1l-1,-1h2l1,1h1ZM477,85h-1v-1h1ZM697,68h1l1,1h1l1,1h1v1h1v1l1,1l-1,-1h-1v-1h-2v-1h-2v-1l-1,-1h-1l1,1h-1l-1,-1v-1h1ZM694,64l1,1h2l1,1h-1l-1,-1l1,1h1l1,1h1v1h1h-1l1,1h-2v-1h-1v-1h-1l-2,-2h-1l-1,-1h-1h1Z"/>
<path class="sl" d="M690,64h1v1h1v-1l1,1h1l1,1h-1h1l1,1h1h-2l-1,-1v1h1h-2l-1,-1l-2,-1h-1v-1h-1h1h-1h1ZM707,73h3v1h2l1,1h1v1l2,1l-1,-1v1h2v1h2v1h1v1h1v1v-1h-2v-1h-2v-1v1l-1,-1h-1l-1,-1h-1v-1h-2l-1,-1h1l-1,-1h-2v-1ZM703,70l1,1h1v1h1l1,1v1v-1v1l-2,-2h-1v-1h-2v-1ZM629,60h2v1v-1l1,1h-3v1h-1l-1,-1v-1h1v1v-1ZM572,81h-1v1h-2l-1,1h-1h1v-1h1v-1h1v-1h3ZM578,78h2l-1,1h1h-1v1h-3v1h-2v-1h2v-1h1h-1v-1h1ZM545,86h3l-1,1v-1l-1,1l-2,-1v1h-1v-1h1ZM539,87h-3l1,-1h4v-1h-1h2v1h-1ZM529,87h1v1h-2l-1,1l1,-1v-1ZM522,88v1l-1,-1h1h-1v-1h-1h3v1ZM509,87h-1l1,-1ZM497,87h-1h1v-1h1v1ZM473,82h2l1,1h-4v-1h-1h1ZM710,310l-2,-1l-1,-2v-2l-1,-1v-1l1,-1v-1l-1,-1l1,-1l1,1l4,2l1,1v1h1v1h1v1l-1,1l-4,2ZM695,292h4v1h-2l-2,-1v-1ZM701,294h3v1h1v1h-2v1h-1v-1l-1,-1h-1v-1h-1l1,-1ZM691,290l1,1h-2v-1v1v-1h-1v1l-2,-2v-1h2l1,1ZM678,285v1h-1l-1,-1h-1v-1l1,-1h2l1,1ZM672,286v-1h1v1ZM699,295h-2v-1h1ZM940,264v-1l-1,-1l1,1ZM939,262v-1ZM942,268l1,1l-1,-1v-1l-1,-2h-1l1,2ZM936,255v-1h-1ZM947,277v1l-4,-8v-1l1,3l2,4ZM865,208h-1ZM871,214l-1,-1h1ZM876,217l-1,-1ZM866,209l-1,-1h1ZM866,208h1v1ZM874,213l1,1h-1v-1h-1ZM784,114h-1l1,1l-1,-1ZM784,115h-1v-1ZM787,117l1,1h1v1v-1h-1l-1,-1h-1v-1v1ZM792,122v1l-1,-1ZM792,121v1l-1,-1ZM790,120h1ZM785,116v-1h-1h1ZM555,650h1v-1v1h-2v-1h1ZM566,629h-1l1,-1ZM557,651v1ZM108,551v1h-1ZM106,563v-5l-1,1v-1l1,-1v-2h1l2,-1h2l2,-1h1l1,-1h2l-1,2l-1,1v1h-1l-1,1v1h-2v1h-1v1l-2,1l-1,1ZM101,562l2,-2v2h-1v1v-1l-1,1ZM26,391v1ZM26,388v1v-1v1v-2ZM13,426v-1ZM18,409v-1ZM18,410v1l-1,1v-1ZM13,437v-1l1,-1v1ZM13,425v-1ZM14,416v-1ZM14,428l-1,1v-1h1v-1ZM113,292l-1,1v1h-1v2l-1,1v-9l1,-1v-1l1,-1v-2l6,-7v-1l2,-2v-1h2l1,-1h1v2h-1v2h-1v1l-1,2l-1,1v1l-1,2l-1,1l-2,4v1l-2,2ZM108,278l-1,1v-1ZM189,198h-1v-1h1v-1h1ZM186,198l-1,1v-2h1ZM176,202h-1v-1h1v-1h1v1h-1ZM191,178l-1,1v-1ZM178,202v-1ZM185,187v-1ZM177,199v-1ZM209,179v-1h1ZM172,210h-1v-1h1l1,-1l2,-1h1l-1,1v1h-2ZM344,543l-1,-1h1ZM406,569h-2l1,-1v1ZM399,561l-1,1h-2l1,-1h1ZM353,571v1l-1,-1h-1v-1h-2v-1h-1h1l3,1ZM360,552v1h-1v-3ZM341,548h-1v-1h1ZM349,547l1,1h1l-1,1v-1v1l-1,-1h-1v-1ZM329,541v1l1,1v1h-1v-1h-2v-2h-2v1h-1v-1l2,-2h1v1l1,1Z"/>
<path class="sl" d="M333,546h-1l1,-1ZM332,545h-2v-1l1,-1h1v1h-1h1ZM326,545h-1l-1,-1l1,-1h1v1h-1v1ZM320,538v1l-1,-1v-1h-1v-1l1,-1v1h1l1,1ZM319,541v-1ZM324,540h-1l-1,-1v-1h2v1ZM313,531l-1,1l-1,-1h1v-1ZM328,545v1l-2,-1h1ZM345,550l2,1h3l2,1h1v1h1v2h-2l-2,-1h-4v-1h-1l-1,-1v-2ZM346,543h-1l-1,-1l-2,-1l-1,-1h-2l-3,-3h-1v-1l-1,-1h2l2,2h1l1,1h1l1,1l4,2l-1,1h1ZM326,533v1h-1v-1h-2l-2,-1l-1,-2l-3,-3h2l1,1l2,1l1,1v1l2,2ZM353,541l2,3v2h1l1,1v1l1,1v1l1,1v1h-1l-1,-2h-1v-1l-2,-2l-1,-3v-1l-1,-1v-1ZM362,559h2l1,1v-1l1,1l1,2l1,1h-1l-1,-1v1l-1,-1h-2l-4,-4h-1l1,-1l2,2ZM19,479v1v-2ZM582,585l1,2l-1,1l-1,-1h-1l-1,-1h-1v-1h2ZM589,590h-3l-2,-2h3l1,1h1ZM310,135v1ZM313,77h-1ZM381,57h1ZM377,18h-1l1,-1ZM388,15h1Z"/>
<path class="sp" d="M404,9v0"/>
<path class="sl" d="M396,11h1ZM425,10h2l1,-1h1v1h2l-2,1h-2v-1h1h-2v1h-4l-1,1h-1v-1l-1,1h-3v-1h2l2,-1h4l1,-1ZM435,10h6l-1,1h-7v-1h1ZM502,18v-1h3v-1l1,2h-3ZM332,79v1h-1v1h-1v2l-1,1v1l-1,2h-1v1h-2l-1,2v1l-1,1v2l-2,4l-1,1v3l-1,1v3h-1v-2h-4l-1,1h-1l-7,7v6h1l-1,1v1l-1,1v1h-1l1,-1v-2h-2v-1l-1,1h-1l-1,1v1l-2,1l-1,1v-1l1,-2l3,-3v-1l1,-1v-1h1v-1l1,-1h1v-1l1,-1v-2l2,-2h1l1,-2l4,-4v-2l1,-1h1v-1l2,-2v-3l3,-3l2,-1l1,-2l2,-2h1v1l1,-1h1v-1h1v-1h1v-2h1ZM509,16h1l1,1h1h-1l-1,1h-4v-1l-1,-1h3ZM450,75l-2,-1h-1v-1h1v1h1ZM451,18h-1ZM449,23h-1v-1h2v-1h1v1h-2ZM449,9v-1ZM444,8h-1h2ZM398,19h-1ZM403,9v1h-1h1h-1h1l1,-1ZM395,11l-1,1h-1h1ZM417,13h-1h2ZM419,13l1,1h-2v1h-2l-1,-1h-2l-1,1h-1l1,-1h4l1,-1h1ZM416,11h-1h2v-1h1h-1v1ZM408,14h-1h1v-1ZM316,76v1h1h-2v1h-2v1v-1h-1l1,-1h1l1,-1ZM473,21h-4v-1h5v1ZM435,58h-1l1,-1h1l1,-1l2,-1h2l-2,2h-2ZM443,74h-1v-1h-1v-1h-1v-1h2v2h1ZM372,102h-1l2,-2v1h-1ZM383,95h-1v-1h2ZM380,97h-2l-1,1h-1v-1h1l1,-1h2l1,-1v-1h1v1h-1v1ZM366,105h1v-1ZM380,94h-1l1,-1ZM358,111v-1ZM350,116h-1l2,-1l1,-1ZM334,123h-1l6,-3h1l-2,1l-1,1h-1ZM327,125l-1,1h-1l-2,1h-2v1h-1l-2,1v1h-1l-2,1l1,-1l2,-1l2,-2h2l1,-1v-1h1v1h1l1,-1l2,-1h1v1h-1ZM312,135v-1h2ZM312,130l1,1h1h-1l-1,1h-1l-2,1l-1,1h-1l-1,1h-1h1v-1l2,-1h1v-1h1ZM379,16h-1ZM103,324h1l1,1v1h2v-2h1v2l-1,1v1l-1,2v6l-1,2l-2,3v1l-4,4v2l-1,1v1h-1v3l1,2l-1,1v5l1,1h1v-2l1,-1h3v3l-1,1h1l1,-1v-1h1v1h1v1h-1v5h1v1h1l-2,4v-3h-1l-1,-1h-1v-1l1,-1l-1,-1l-1,-2v-1l-1,-1v5l-1,1v-3l-1,-1v-1l-1,-1h-1l-1,1v1l-1,1h-1v-1h-1v-1l-1,1v-2l1,-1v-1l2,-2v-2h-1v-1l-1,1v2h-1v-2l-1,-1l1,-1v-4l1,-3l-1,-1v-1l1,-1v-1l1,1v1h1v-1h1v-5l1,-1v-1l1,-2v-3l2,-4l1,-1v-2l1,-1h1ZM69,411l-1,1v-1l1,-1v-2l1,-1v-1l3,-3l1,-3l2,-1l1,-2v-1l1,-2l2,-2v-3l1,-1l1,-3v3h-1l1,2v2l-1,1h-1v1h-1v2l-1,1h-1v2l-2,3v1h-1v1h-1v2l-2,2v1h-1v1h-1ZM96,381l1,1v-1h1v2l1,-1v3h-1v1h-1v2h-1l-1,1l-2,1v1h-1v-2l1,-1v-2l1,-2v-5h1l1,1ZM96,403h-1v-3h-1v-1l-1,-1v-1l1,-1v-1h1l1,-1v-3l1,-1v-2l2,-2l1,1v3l-1,1v1l-1,2l-1,1v7h-1ZM106,383h1l1,-1v10h-1v-1v3l-1,-1v-5h1v-1h-1v-1h-1v-5l1,1ZM111,372l1,1l-1,1h1v3l-1,2v2l1,1l-1,1h1v1h-3v-2l-1,-1l1,-1v-1h-1v-2h-1v-2l-1,-1l1,-2l1,1l1,-1Z"/>
<path class="sl" d="M91,366h1v1h1v1l1,1v1l-1,1v3l-1,1v1l-1,1v-1l-1,-1v-7h-1v-2h1ZM111,399l1,1v4l-1,1v1h1v7l1,1l-1,2v1l-1,2l-1,1v3l-1,2v-6l-1,-1v-2l-1,1v1l-1,1v2l-1,1l1,1v6l-1,2h-1v-3l-1,1h-1l-2,-2h-1l-1,-2v-5l1,-1v-1h1v-2l-1,-1v-1h-1v-1h-1l-1,1v3l-1,-1v-2l-1,1v1h-1v-2h-1v1h-1v1l-1,2v1l-1,2v1l-1,-1v-2h1v-1l1,-3v-1l1,-1v-1l1,-1h2l1,-1v-2l1,-1h1v-1h1l1,1v3l-1,1l1,-1h1l1,-1v-1l1,-1v-1l1,1l1,-1v-3h2l1,-1h1v-6h1l2,2ZM98,399v1v-5l1,-2l1,-1l2,-4v-2h1v-1v4l-1,2v1h-1v1h-1v2l-1,3ZM107,321v1v-2h1v1ZM107,317l-1,1v-1ZM111,309v-1h1ZM112,306l-1,1v-1l1,-1ZM84,429v1h1l-1,1v-1l-1,1h-1v-1l1,-1ZM67,416v-2ZM83,392h-1l1,-1ZM86,378l1,-1v2h-2v-2ZM85,382h-1v-1h1l-1,-1l1,-1v2ZM95,391v-1l1,-1v2ZM104,396l-2,2h-1v-1l-1,-1l3,-3h1v1h1l-1,1ZM79,437v1l-1,-1v1h-1v1v-1l1,-1v-1h1ZM88,426v-1l-1,-1h1l1,-1l1,1h-1v1ZM112,395v-2l1,1h-1v1h1ZM110,394v1v-2h-1l1,-1v-2h1l-1,1v2ZM89,364v1ZM97,365v3h-1v-3ZM95,375v1v-3h1v1ZM98,375v1l-1,-1v-1h1ZM102,370v1l-1,-1v-2ZM104,374l-1,-1v-1h1ZM103,375l1,1v3l-1,-1v-1h-1v-1l-2,2v-1l1,-2v-2h1l1,1ZM109,363l-1,1h-1v-1l1,-1v-2h1v2ZM99,361l-1,-1ZM100,353l-1,1v2h-1h1v-3ZM104,389v-1ZM108,394v-1ZM93,417v1ZM108,420l-1,-1v-1h1ZM107,381h-1v-1h1ZM105,401l-1,1v-2ZM105,320h-1h1v-1ZM84,383v1l-1,1v-1ZM102,384v1ZM97,374h-1l1,-1ZM111,397v-1ZM108,380v1v-2ZM69,413h-1v-1h1ZM99,401v1h-1v-1ZM289,512h-1v-1h-1v-5l-1,-1l-2,-3h-1v-1h-2l-1,-1h-1l-1,-2h-1l-3,-3h-3l1,-1v-1l1,1l2,1v1h2l1,1h1l2,2h1v1l2,1v1l6,5v3l-1,1ZM281,508l1,-1l1,1h1v2l1,1v1h-1v2h-2l-1,1h1v1l1,1l-2,2h-3v1l-1,1v1h-1l-1,1h-1l-1,1h-1l-1,1h-1v1h-7v-2h-2l-1,1l-3,-2v-1h-3v-3h6v1h2l1,-1h2l1,-1v-3h1v3l1,1h1l1,-1l1,1h1v-1h2v-2l2,-2h2l1,-1v-2l-1,-3v-1h2v1ZM203,553l-1,-2v-10l-1,-2v-6h-1v-2l1,-1v-2l-1,-1v-18l-1,-2v-11h1l1,1l3,1l1,1h1l4,2l3,1h2l1,1h1l2,1l2,2h4v1h1v1h1l1,1v1h1l1,1h1l3,3v5l1,1h3l1,1l5,2l1,1h3l1,1v1h1v4h-5l-1,1v1l2,4v1h1l4,4h1l2,2v3h1l1,1l1,2v1l1,1l1,-1h3l1,1l-1,1v1l1,1h1v1h5l-1,1h-1v1l2,2h2l1,1h3l-1,1h-2l1,1h1v1h-1l-1,1l-2,-1h-1v-1h-1l-1,-1h-6l-1,-1h-4l-1,-1v1h-1l-1,-1h-2v-1h-1v-1l-2,-2l-2,-1l-1,-2v-1l-2,-1l-1,-2l-2,-2v-1l-2,-2v-1h-2l-1,-1h-4l-1,-1h-1v-1h-2l-1,-1v2l-1,-1v1h-3v-1h-1v-1h-1l1,1l2,3h-1v1h-1v-1h-1v2l-1,1h-2l-2,1v-1h-2v1h-1v-1l-1,-1l-1,1h2v1h3l1,1h1l1,1h1v3l-1,1h-1l-1,1l-2,1h-1l-1,-1h-2l-2,1h-2v-1h-1l-1,1Z"/>
<path class="sl" d="M251,522h-1l-1,-1v-2h1l2,2v1ZM236,513l-1,1v-2h1ZM286,498l-1,-1h1ZM282,496v1h-1v-2ZM263,485l-1,-1v-1h1ZM277,558l1,-1h1l-1,2h-2v-1l-1,-1v-1l-1,-1l1,1l2,1ZM271,554h-1l-1,-2l1,-1l1,1v1ZM276,547h1h-1v-2h-1l1,-1v1ZM303,569h-2v-1l1,1ZM220,547l-1,-1h1ZM245,519h-1v-2l1,1ZM243,489h3v1h-1l-1,1h-5v-1h1v-1h1ZM269,494h-3v-1h-1l1,-1h3v1ZM272,552l1,1h1l1,1v1h-3v-2ZM288,548h2v1h1v1l-1,1l-2,-2h-1ZM297,570h1l1,1h-3v-1h-1v-1h-1h1ZM221,548h-1l-1,-1h-1v-1v1h1ZM249,491v1h-1ZM281,495h-1v-1h1ZM276,563h-1ZM294,506v-1ZM314,528l-1,1v-1l-1,1h-3v-1l-1,-1h-1l1,-1l-4,-4v-1l-1,-1v-3h1v1h1l2,2v1h1l1,1v1h1v1h2v1l1,1v1ZM303,517h-1v-3h1v1ZM159,412v-2l1,-1v2ZM192,167h-1ZM468,805h1v-1h1l2,-2h1v2h-1h1v-1h1v-1v1l1,-1v1h1h-1v1h-1h1l1,-1v1l-1,1h-1v1h1l-1,1h1l1,1h-1l-1,1v1h-1v1l-1,2h-1l-1,2l-1,1v1h-2v1h-1l1,1h-1h1v1l1,1h1v1h-4l1,-1h-1v1h-1l-1,-1h-1l1,1v1h-2v1h-2v1h-1v4h-1l1,1l-2,2v4h-2l-1,1l-2,1v1l-1,1h-8v-1h-3l-2,-2l-1,1h-4v-1l1,-1l-1,1v-1h-2v-1h2v-1l1,-1l-1,1h-1v-1h1v-1h1l1,1v-1l-1,-1v-1l1,1v-1h-1h1l1,-1v1v-2h1l1,-1l1,1v-1h-1l3,-3v-1h2l1,-1h1v1h1l-1,-1l1,-1h1l1,-1h2v-1h-1h1l1,-1h1v-1l1,1l-1,-1h1v-1h1l1,1v-2l1,-1v1v-1l1,-1h1v-4l1,-1h1l1,-1v-1h1v-4l3,-3h1v2h1l1,1v1l1,1ZM473,802h-1v-1h1ZM432,834v1h-2l1,-1ZM433,831v1h-1v-1ZM441,842l1,1l-1,1h-2v-3h1ZM483,769h-1l-1,-1v-1h1v1ZM466,759h1v-1v1h2v1h1v-1l1,1h1v2h1v-1h1v1l1,1v1l1,1h-2l2,2l1,2v1l1,1h-1v2h2l2,1v1l1,1l1,-1v-1l-1,-1v-3l2,2v1h1v2l1,2l1,1h-1l1,1h1l2,1h1l3,1h2l2,-2h1v-1h3l1,1h1h-1v2l-1,2v2l-1,1h-1l-1,1v2h1l-1,1v-1h-4l-1,1h-1v3h1l-2,4l-1,1v1h-1l-1,1v1l-1,1v1h-1v1l-1,1h-1l-2,1v1h-1v-1h-1v-1l-1,1l-1,-1v-1h1h-1v1h-1v-1l1,-1l1,-2l1,-1v-1l1,-1l-1,-1v-1l-1,-1h-1l-1,-1h-2l-2,-2h-1l-1,-1h-1v-1h1v-1h1l2,-1h1l1,-1v-4l1,-1v-2h1l-2,-2v-2l-1,-1h1v1v-1h2l-2,-1h-2v-2l-2,-2h1l1,1v-1l-1,-1h1v-1h-1v1l-2,-1l-1,-1v-1v1l2,2l-1,1v-2h-1l-4,-5h1l1,-1h-1l-1,1l-2,-2l1,-1v-1h-1l-2,-2l-1,-2h2v2l1,1ZM453,876h1h-2ZM435,866l1,1h-1v-1h-1v-1h1ZM537,821h-1l-1,1v-1l-1,1h1h-1l1,1v1h-1v-2h-2l1,-1h1ZM536,825h1ZM582,542h-1ZM600,633h-1v-1h1ZM950,309v-1h-1h1ZM948,330l-1,-1h1ZM930,280v1v-1h-1v-1ZM908,247h-1l-1,-2l-2,-2h1v1h1v1l1,2Z"/>
<path class="sl" d="M906,254l-1,-1ZM910,248l1,2l-1,-1l-1,-2v-1v1h1ZM892,246l-1,-2l1,1ZM934,287v-1l-1,-1l1,1ZM892,227v-1ZM925,271v2l-1,-2ZM929,284l-2,-1v-1l1,1ZM927,282v1v-1l-1,-1v-1l-1,-1l-1,-2h1l1,3v1ZM14,437v-2h1v3h1v3l-1,1v1h1v-2h1v1v-2l1,-1v2l1,2v3l1,3v2l-1,2v16l1,2v6h-1v1l-1,2v-2l-1,-2v-1l-1,-1v-2l-1,-1v-1l-1,-1v-9l-1,-1v-1h1v-1l-1,-1v-1l1,-3v-14ZM66,448v-1h-1l-1,-1h-1l-1,1v-1l-1,1h-2v1h-1v6l-1,1v4h-1l-1,1v2l1,1h-1v2h-1v4h-1v4l-1,-1v1h-2v1l-1,1v-1v1l-1,-1h-1v-2l-2,1l-1,1v3h-1v1h-3l-2,2v-1h-1v-2h-1v-2l-1,-1v-4l1,1v1l1,1h1l1,1h1v1h1l-1,-1v-2l1,-1v-5h1v-4h1l1,-1l2,-1l2,-2v-1l1,-2v-2l2,-2v-2l1,-1v-2h1v3l1,1l1,-1v-6h1v-1v5h1v-5h1v-1l1,-1l-1,-1v-1l1,-2v1h1v-2l1,-2v-1l1,-1l1,-3l1,-1l1,-3v2l1,-1v-1h1v3h1v5l-1,1l1,-1h1v-1l1,1v1h-1v1h1v-1h1v1h1v1l1,1h1v3h-1l-2,1h-1l-1,2l2,2v1h-1v1h-1l-1,1l-1,-1l-1,1ZM20,467v-1ZM14,447h-1v-1h1ZM14,437v1l-1,1v-1h1ZM67,422h-1v-1l1,-1v1ZM14,466v1ZM41,466v-3h1l-1,2ZM68,447h-1ZM456,440h-1ZM455,441h-1ZM456,451h1h-1v-1ZM457,452h-1h1v-1ZM457,458v1l-1,1l1,-1h-1v-1ZM469,474v-1l-1,-1l1,1ZM472,478l-1,-1h1ZM457,456h-1l1,-1h1h-1ZM585,507h-1ZM593,507v-1ZM727,506h-1ZM747,571h-1ZM719,520v-1ZM708,454l2,1h-2l-2,-2h1v1h1v-1l-1,-1h1l1,1ZM692,436h1v1h-1ZM589,492h1v1l-1,-1h1ZM216,186v1v-1h1ZM248,174h-1h1v-2h1l1,-1v1h-1h1l-1,1ZM218,199l-1,1h-1v-1h1l1,-1v-1h1l-1,1ZM182,229l-1,1v-2h2v1ZM184,228l1,-1v-1l1,-1v1l-1,1ZM186,215l-1,1l1,-1h-1h1v-1h1v-1h1h-1v1ZM189,202h-1h1v-1h1ZM190,201v-1l2,-2v1h-1l-1,1ZM181,212h1v1h-1ZM188,214v-1h1ZM289,127h-1l1,-1ZM289,128h-1l1,-1ZM269,147v-1h1h-1ZM215,198h1ZM244,195h-1l1,-1ZM183,211l1,-1v-1v2ZM187,208l-1,1v-1h1v-1ZM190,205h-1l1,-1ZM205,201h-1ZM203,202v1l1,-1v1h-2v-1ZM182,220v-1h1ZM238,253v-1h1ZM298,133h2l1,1h2l4,-2l-1,1l-2,1v4l1,-1h1l-1,1h-2l-1,1h-1l-1,1h-4l-1,1h-2l-1,1l-2,1v1l-1,1v1h-2v-1h-2l-1,-2h-4l-3,2v-2h-1l-1,1h-1v2h1l1,1v1h-3v1h-1l-1,1h-1v-1l1,-1v-1l1,-1h-1v-1h1v-1l1,-1h1v-1h1l1,-1h1v-1l1,-1h5v-1l5,-5v-1l2,-2v-1l1,-1v-1l1,-1h1l1,-1v1l1,2v2l1,1v1h1ZM196,205h3v1h-1l-1,1h2l-1,1v2l-5,5v1h-1v1l-1,1v1l-1,2h-2v1l-2,1l-1,1v-1h1v-1l1,-1v-1l1,-1h-1l-1,1v1h-1l1,1h-1v1l-1,-1h-1l1,-1h1v-3l1,-1v-1h1l1,-1l1,-2l1,-1v-3h-1v3h-1v-1l-2,2v-3h1v-1v2h1v-2h-1v-1h1v-1l1,1v-1l1,-1h1l2,-2h1l1,-1h1v1Z"/>
<path class="sl" d="M215,199v1h1l-1,1v1l-3,3h-1v1l-1,1v-2h-2l-2,1l-2,2v1h-1v1l-1,1l-1,-1v1l1,-1l-1,-1v1v-2l1,-1h-1l1,-1h-1l-1,1v-1h1l2,-2h1l1,-1v-1h1l1,-1v1h2l1,-1h1v-1l1,-1h2ZM275,150v1l2,-1l-2,2l-1,2v2l1,1l-1,2v2h-1v2l-2,2h-1v1h-1v1h-1v1l-2,2h-2l-1,1v1h-1v2l-2,4l-4,4v1l-1,1v3l-2,1l-2,2v1h-1l-1,1h-1l-1,1h-1h1v-1l1,-1v-1h1v-1h1v-1h-2v1l-1,1v1l-1,1v-1h-2l-1,1v1l-2,2h-1v1v-1l1,-1v-1h1l-1,-1h-1v1h-1v1h-1l-2,2h-6l2,-1h-2v1v-2l1,-1h-1l-2,2v1l1,1v1h-1l-2,1h-1l-3,3l-1,2h-3v-3l1,-1v-1l2,-2v-1h-1v1l-1,-1h-4l-1,1v1h-3v1h-2v1l-1,-1l-1,1h-2v-1l-1,1l-1,2h-1v1l-1,-1h-2l-1,1h-1v-1l-1,1l1,-2v-1h2l1,-1h1v-1h2l1,-1v-1h1l1,-1h1l3,-3h1l1,-1h6l1,-1h3l2,-1v1h3l1,-1h1v-2l2,-2h1v-1l2,-1l1,-1l1,-2l1,-1l1,-2h3v-1v1l-1,1h-1v1h-1v2h-1h2l1,-1l3,-1h1l1,-1h1l2,-2h1l1,-1v-1h1l2,-1l1,-1h1v-1l1,-1v-1h1l2,-2l1,-2l1,-1h1v-1h1v-1l1,-1v-1h-1l2,-2v-1l1,-1v-1h1l1,-1h1v-1l1,-1h1v2h1v-1l1,1l2,-2v-1h-1v1h-2l2,-2ZM133,275v2h-1v-1h1l1,-1ZM131,277h-1v-1h1ZM139,273v-1ZM159,257l-1,1h-1v1h-1v1h-1v2h-1v-1h1v-1l2,-2v-1h1l2,-2v1ZM166,249h-1l1,-1v-1v1ZM170,245l-1,1v-1h-1h1v-1h2v-1h1h-1v1h-1ZM169,246h-1v-1h1ZM7,482v2l1,1v1l-1,1v2v-5l-1,-2h1v-1ZM10,509l-1,-1v-3l1,1v2ZM66,559v3h-2l-1,-1h1v-2l-1,-1l1,-1v-1h2v1ZM61,556l1,1v2l-1,1v2h-1v-2l-1,-1v-1h-2v-2h2v-1h1ZM25,504v5l1,2l1,1v4h-1v-1h-1v-4h-1v-3l-1,1v-1h-1v-1h1v-4l1,1v1v-2h1ZM93,521v2l-1,-1v4l1,1v1h-1v2l-1,1v-1v1l-1,-1v-2l1,-1v-7l1,-1v1ZM90,527v1h-1v-6h1l1,2l-1,2ZM32,456v1l-1,-1h1v-1h-1v-1l1,-2v3ZM31,515v1h-1v1v-2h-1v-1h1l-1,-1h1v-2h1v1l1,1ZM161,481l2,1h2l1,1v1l1,1h1l-1,1h-2l-1,-1v-2h-2v-1h-1ZM162,490h8l1,1h-1v1h-3l-1,-1h-1ZM133,478h1l2,1v2l-1,-1l-1,1v-1h-1l-1,-2v1l2,2l-1,1l-1,-1v-1v1l-1,-1h-1v-2l1,1v-1h1ZM120,461h-1l-1,-2l1,-2l1,-1h1v3l-1,1ZM118,493v1h-4v-2l1,-1h1l1,1ZM107,501h-1v-2l-1,-1l1,-1v2l1,1ZM106,495h2v1h-3l-2,1v-1h2ZM101,495h1v2h-2l-1,1h-1l-1,-1l1,-2h1ZM140,547h-2v-3h1v-2l1,-1v-2h1v6h-1v1ZM114,546v1h-1l-1,1v1h-1l-1,-1l-1,1v-3l1,1h1v-1h1l1,-1v1ZM102,551l1,1v-1h2v2l-3,1v-2ZM134,489h-1v-2l-1,-1l2,-1v1h1v2ZM8,450v-1h1v10h1v3l1,3v3l1,1v5h1v1v-2l1,1v4h1v5l1,1v1h1v4l-1,1l1,-1v-1l1,-1v1l1,1v2l-1,1v6l2,2v2l1,1v5h1v2l-1,1v2h1v-2h2v1l1,3v11l1,4v10l-1,-1v-1v2h-1l-1,-1v2l1,1h-1v-2l-1,-1v-1l-2,-5h-1v-2l-1,-1l-1,-2v-2l-1,-2v-1l-1,-1v-2l-1,-2v-3l-1,-2v-3l-1,-7v-3h-1v-4l-1,-2v-3h-1v-14l-1,-2v-5l-1,-1v-7h-1v-15h1v3Z"/>
<path class="sl" d="M94,556l-1,1h-2v1l-1,1h-2v-1l-1,1h-1v1l-1,-1h-4v1l-1,-1v-3l2,-2h2v1h2v1h1l1,1v-1h1l1,-1l1,2h1v-2h1v-1l1,-1l-1,-1h1l1,2h-1v1ZM82,564l1,1v1h1l1,1v1l1,1v2h-1v1h-1v-1h-1l-1,-1v-1h-1l-1,-1h-1l-1,-1h-1v-2h1v-1h3v-1v1ZM73,556v-1h1v1h1v-1h1v3h1v1h-2l1,1h-2v-1l-1,1h-1v1h-1l-1,1h-1v1h-1l-1,-1v-4l1,-1h2v1h1v1h2v-1h-1v-1l-1,-1h-1v-1l1,-1h1v1ZM100,472l-1,1v1l-1,1v1l-1,1h-1l-2,1h-2l-1,-1h-5l-1,1h-2v-1v1h-5l-1,1v1l-1,1v7l1,2l1,1l1,2v1h2l1,-1v-1l1,-2v-1h1v1h1l1,-1v-1h4v-2h2v1l1,1l-1,1v1l-1,-1h-1l-1,1v2l-2,2v1h-1l-1,1v1l-1,1h-1l-1,1h1v1l1,1h1v1l1,2v2l1,1v1l1,1v2l-1,1v1h1v1l1,1v1h1v1h1v2h-1v1h-1l-1,1h-1v3h-1l-1,-1h-1v-4l1,-1v-1h-1l-1,-1l-2,-3v-3l1,-2l-1,-1v-2h-2v1l-1,1v5l1,3v12l1,2v2h-3v1h-1l-1,-1v-15l-1,-1v-2h-1l-1,1v-1l-1,-1v-6h1v-4l1,-1v-7l1,-3v-2h1v1v-9l1,-2v-3h1v-2l1,1h1v-2l1,-1v-1h1v-1l1,1h1v2l2,-1l1,1h3v1h1v-1h5l2,-1l1,-2v-1l1,-1h1v-2l1,-1l1,1v1l-1,1v2l-1,1ZM31,541v1l1,1h2v1l1,1v2l1,1v-1l1,1h1v-1l1,1h2v-1h1v-4h1v2h2v1h1l1,1l1,-1v1l1,1v1h1v3l1,1h3v-1h1l1,1v1l1,1v5l1,1v1v-1h-1v-1h-2l-1,-1l-2,-1l-1,1h-7l-3,-3h-1l-2,-1h-2v1h-2l-2,-2h-2l-1,-1v-2l-2,-2v1h-1v-1l1,-1v-6h3v-1ZM35,470v4l1,1v2h1v2h1v1l2,-2h3v-1h1v-3l1,-1l2,-1v2h1l1,1v-1v1l1,-1v-1h2v-1l1,1v-4h1v-4h1v-2h1l-1,-1v-2l1,-1h1v-4l1,-1v-6h1v-1h2l1,-1v1l1,-1h1l1,1h1v3l1,1v1h-1v-1v1h-2v1l1,1v3h1v3h1v3h1v1h-1v2h-1h1v3h1l1,2l1,1l1,2v1l-1,1h-2l-1,-1v-1v2l-1,1l-1,4v10h-1v1l-1,1v1l-1,1v-1v2l-1,1v2h-1v2h1l-1,1v1h1v3h-1v7l-1,1v2l-3,3l-2,3v-4l-1,-2v-1v1v-1h-1l1,-1h-1v1v-1l-1,1v1h-1v-3l-1,1l-1,-2l-1,2v1l-1,1l-1,-1l-1,1v2l-1,-1v-5l-1,1h-1l-1,1v-1h-1v1v-1h-1v1v-3l-1,-4v-2l-1,-1v-1l1,-1v-2l-1,-1v-2l-1,-1h-1v-9l-1,-1v-8h1v-1h-1v-1l1,-1v-3l1,-1ZM115,472h1v-1h1v-2h1v-2l1,-2h2v4l-3,3l2,2h1v2h1v1l-2,-1l-1,-1h-3v3l1,3v2l1,2l1,1h-1l-1,-1l-1,-2v-1h-1v-6l-1,-1v-2h1v-1l-1,-1v-6h1v-2l1,-1l1,-2v2h-1v1h1v5l-2,2v1ZM127,503l2,1h2l2,2v1h1v4l-1,-1l-4,-2l-1,-1h-2v1h-2l-1,-1h-1l-2,2v-1l-2,-2v2l-1,1v-2l1,-3l3,-1h2v1h1l2,-2v1ZM111,506l1,1v1h1v3l-1,1h-1v1h-1v-1h-1l-2,-2v-3h1l1,-1ZM105,558v1l1,-1v7l-1,2l-1,1v1h-1l-2,2l-1,-1v-2l-1,-1l1,-1v-3l1,-1v1l1,-1v1v-1h1v-2h1v-1Z"/>
<path class="sl" d="M159,526v6l-2,-1l-1,-1v-1h-1h1v-1l1,-1l-1,-1l1,-1v-1l1,-1v2h1ZM158,532v2l-1,2h-1l-1,-1v-2h1v-1l-1,-1v-1h1l1,1v1ZM185,547l-1,1h-4v-4l1,-3h1v-1l1,-1h4v1l1,1l-1,2v2l-1,1ZM199,496v11l1,2v18l1,1v2l-1,1v2h1v6l1,2v10l1,2h-1l-2,-2v-1l-5,-5v-1l1,-1l-1,1v1h-3l-1,1v-1h-1v-1v1h-1l-1,1l-1,-1h1v-4h1v-1h-2v-2h-1v-1h1l-2,-2l2,-1h-1v-1l-3,-3v-2l-1,-1v-1h1h-1l-1,-1h1v-1l-1,1v-1h-1l1,-1l-1,-1h-1v-1h-1l-3,-2v-1l-1,1v-1h-2l-1,-1l-2,-1h-1l-1,-1h-2l-2,-1l-1,1h-1l-3,-2v-2l1,-1h-1l-1,1h-1v-1l-1,1v-1h-1v-1v1h-1v-1l-2,-2v-2l1,-1v-1h-1v3h-1v5l-1,1h-3v-5l-1,-1l-1,-2l-1,-1h-2v-1l-1,-1h1l1,-1h1l1,1h1l1,-1l1,-2h2l1,1h1v-1l1,-1v-2l-1,1h-3l-2,1l-2,-1h-1l-1,1v-1l-1,-1v-1h-1v-3h-1l-3,-1h-2l1,-1v-1l1,-2v-1l1,-1l2,-1h1v-1h1v-1l2,-1h2l2,1l2,2h4v3l1,1v3l-1,1l1,1v4l2,5v-3h1v4h1v-1v2l2,2h3v-2l2,-1v-1l1,-1v-1l1,-1v-1h1v-2h2l1,-1l2,-1v-2l2,-1l2,-2h2v1l4,1l2,2h1l1,1l4,2l2,-1l1,1h3v1l1,1ZM188,548l-2,-1v-1h1l1,1ZM15,474v2l-1,1v-3ZM16,483h-1v-3h1v2ZM16,479v1v-1h-1v-1ZM17,485h-1v-2h1v1ZM17,484v-1h-1v-1l1,-1v2ZM18,487h-1v-2h1v1ZM18,485v1v-2ZM19,481h1v1h-1ZM21,480v3l-1,-1h1h-1v-2ZM21,492h1v1l-1,-1v1h-1v-1h1v-1ZM20,494h1v2h-1v-1ZM19,494h-1v-1h1ZM36,498l-1,1v-2h1ZM53,547v1h-1v1h-1l-2,-1v-1l1,-1l4,-1v2ZM159,486h-1v-2h1v1ZM113,483l-1,1v-3l1,1ZM114,482l1,1v2h1v2l-1,-1h-1v-1l-1,-1v-2l1,1ZM148,528l-1,1l1,-2v-1l1,-3v2l-1,2ZM147,528v1l-1,-1v-2l1,1ZM119,511h-1v1l-1,-1l2,-2v1ZM111,444v1v-5h1v3ZM105,450h-1v-1ZM137,550l1,-2h1l-1,1h-1ZM131,547v1h-1v-1l-1,-1h2ZM120,549l1,1v1l-1,-1ZM131,493v2h-1v1h-1l-1,-1h-1v-1l1,-1h2ZM18,540l-1,-1v-1l1,1ZM12,521l1,1l-1,-1v-1ZM12,517v1l-1,-1v-2l1,1ZM11,514v-1l-1,-1v-1h1v2ZM8,499v-2ZM6,475v-1l-1,-1v-2l1,1v2ZM87,529v-1l-1,-1v-1h1v1ZM91,491l1,1h-1l1,1v-1h1v2h-1v1h-1v-2l-1,1v1v-4ZM85,485v1h-1v-1ZM81,537v1v-1l-1,-1v-3l1,1ZM59,546v-2l1,1h-1ZM61,518l-1,2v-2l-1,-1v-1l1,-1v-1v1l1,2ZM97,576v-1l1,-1l1,-2v3l-1,1ZM101,553v2h-1v-1h-1l2,-2ZM99,553l-1,1v1h-1v1v-1h-1v-1h1v-1h1v-1h1ZM96,554h-1v-1h1ZM159,533v-1ZM18,482v1v-2ZM19,484v-1ZM20,484v-1ZM21,490v-1ZM26,462v1ZM24,465v-1h1v1ZM33,463v-1ZM33,502v1ZM29,514v1ZM28,516h-1v-1h1Z"/>
<path class="sl" d="M56,547v1h-1v-1ZM48,537v-1ZM26,548h-1v-1h1ZM7,477v-1ZM7,445v1ZM94,496h-1v-1h1ZM93,517l-1,1l-1,-1v-1h2ZM95,498l-1,-1h1ZM91,497v1ZM78,559v-2h1l-1,1ZM76,555v-1ZM62,561h-1l1,-1ZM67,447h1v1l-1,1l-1,-1ZM66,455v-1ZM98,533l-1,-1h1ZM95,527v1ZM83,544h-1v-1ZM70,557l-1,-1v-1h1ZM61,515v1v-2ZM113,472v1ZM155,495v-1ZM151,514h-1l-1,-1v-1l1,1ZM134,484v1h-1l-2,1v-1h2v-1ZM132,482h-1h1v-1ZM126,480h-1v-1l-1,-1l2,1ZM114,479v-1ZM114,474h-1v-1h1ZM113,486h-1l1,-1ZM122,509v1h-1v-1ZM121,510h-1v-1h1ZM111,446l-1,-1v-1l1,1ZM111,447v-1ZM103,457v-1ZM143,540h-1v-1h1ZM124,541h-1v-1h1ZM117,545v1ZM99,570v1v-2ZM92,574h-1v-1l1,-1v1ZM160,532v-1ZM159,535v-1h1h-1ZM117,504v1h-1h1ZM115,508v-1ZM95,555v1h-1v-1h2ZM6,437v-3h1l-1,2ZM7,433l-1,1v-1h1v-1ZM7,426v-1ZM7,429v-1ZM7,427v-1ZM8,418v-1ZM10,406v-3h1l-1,1v1ZM11,399h1v-1v1ZM12,398v-4h1v-3l1,-2v-3l1,-1v-3l1,-1v-1v2h-1v3l-1,1v4h-1v4h-1v3ZM13,393v1ZM14,386v1v-2ZM549,583v-1l1,1ZM533,592h-1v-1h1ZM743,616v-1ZM754,624h-1v-1h1ZM743,618v-1l1,1ZM757,625l1,1v1h-1v-1h-2v-2h2ZM836,560l1,1h-1l-1,1v-1ZM835,562v1ZM837,568v-1h1h-1ZM830,553h-1v-1h1ZM829,558v-1h1ZM813,629v1v-1h1v-1h1l-1,1ZM833,554v-1h1ZM813,634v-1ZM813,632h-1v-1v1ZM839,637l-1,-1h1ZM836,635l-1,-1ZM821,655h1ZM805,614l1,-1ZM799,618h-1ZM798,618h-1ZM789,611v-1h-1h1ZM785,615v-1ZM388,643h2l1,1l3,2l2,1h1v1h1v1l2,1v1h1l1,1h1l1,1l2,1l3,3h1l2,2l-1,1h-1l-2,-1h-1l-1,-1h-1v-1h-1l-1,-1h-1l-1,-1h-1l-1,-1h-1l-1,-1l-2,-1l-7,-7v-1l-1,-1v-1ZM416,662h-1v-1ZM354,635v1l-1,-2h1ZM419,652h1v2h-1l-1,-1v-1l1,-1ZM407,646v-2h1h-1v1h1ZM414,650l-1,-1h-2v-1h1v-1h-1v-1h2v2h1v1ZM517,607l-2,1v1l-1,1h-1v2l2,-2h1v2h-2l-1,1h-2v-1h-1l-2,2l-1,-1v1h-2v-1h-1v-1h1v-1l1,1v-1h1v-1h2l1,-1h1l1,-1h3ZM502,618h1v1h1l1,1v4h-3l-1,1h-3l-1,-1h-3v-2l1,-1v-1l2,-2h2l2,-1h1ZM517,614v-2h1v1ZM517,614h-1v-1h1ZM504,631l-1,1l-1,-1v1h-1l-1,1v-1h1l1,-1h1ZM525,623h-1v-1h1ZM527,625h-1v-1ZM531,623l-1,-1h1ZM525,617v-1h1ZM528,633v-1ZM518,631h-1ZM493,616v-1h1ZM512,618h-1v-1h1ZM511,624l-1,-1l1,-1v1ZM507,621h-1v-1h1ZM517,610l-1,1v-1ZM492,576h-1ZM473,654h-1ZM107,278l-1,1v-1ZM146,224h-1v-1h-1v-1h1v1h1Z"/>
<path class="sl" d="M142,235h-1v-1h1ZM141,237h-1v-1h1ZM142,235v1ZM116,270v-1h1v-1v1h-1ZM69,309v1l-1,-1v1v-1ZM131,249h-1h1v-1ZM84,294v-1ZM78,303v1v-2h1ZM78,303h-1ZM67,317v3l-3,3v2l-1,1v1l-1,1v1h-1l-1,1v1h-1v1h-1v1v-1h-1v-1l-1,-1l1,-1v-2l1,-3h1v-1h1v-2h1v-1l1,-1h1v-1h2v-1v1l1,-1v1v-1l1,-1ZM85,296v-1h1v1l-1,1h-1v-1ZM85,298v-1ZM84,298h-1h1v-1ZM722,83h2v1h1v1h1h-1v-1h-1h1v-1l4,4v1h-1l-1,-1h-1h1l-1,-1h-2v-1h-1l-1,-1h-1v-1ZM730,88h1l1,1h-1l1,1h2v1l1,1h1l1,1h-1v-1h-1l-1,-1l-3,-1l-1,-1l-2,-1h1ZM759,102l2,1h2l2,1h1l2,2h1l2,2h1l1,1h1l1,1h1l1,1h1v1h1l1,1l2,1l1,1h1l-1,1v-1v1l-1,-1h-2l-2,-1h-1v-1h-1v-1h-1v-1h-1h1v1h-1l-1,-1h-1v-1h-2v-1h-2l-1,-1h1h-1l-2,-2h-2l-1,-1h-2l-1,-1h-1v-1h1v-1h-1v1h-1l-1,-1h-1v-1h1ZM596,9h-1h1h-1Z"/>
<path class="sp" d="M593,9h3"/>
<path class="sl" d="M600,10h2v1h1l-1,-1h-3Z"/>
<path class="sp" d="M598,10h1"/>
<path class="sl" d="M600,10h1v1h4l1,1h1h-2l-1,-1h-1h1l1,1h1h-1h1h-1h1h-3l-1,-1h-1h1h-2v-1h-1ZM625,16h1h-2l-1,-1l1,1h1h-3v-1h-1h1h-3l-1,-1h-1h1h-1h1l1,1h-1v-1v1h1h-1l-2,-1h-2v-1h-4l-1,-1h1h-1h1l1,1h4v1h3l2,1l-1,-1h-3l-1,-1h-4v-1h-1h1v1h4v1h4l1,1h3l1,1Z"/>
<path class="sp" d="M618,14h1l1,1h3l1,1h1"/>
<path class="sl" d="M670,30h1h-1h2v1h1h-1h3l1,1h1v1v-1h-2l-1,-1h-2l-1,-1h-1l2,1h1h-1h1v1h-1h1h-2v-1h-3v-1h-2l-1,-1h-3l-1,-1h-3l-1,-1h-1l-1,-1h-1h3l1,1h1l-1,-1h-1l-2,-1h-5l-3,-1h-1v-1h-1h1h-1h1h-3v-1h-3l-1,-1h-2v-1h-3v-1h-2v-1h1v1h3v1h1l-1,-1l1,1h3l1,1h1h-1v-1h-1h1v1h3l1,1h2l2,1h2v1h1h-1v-1h-2l-1,-1h-3v-1h-2l-5,-1v-1l1,1h1h-1h2l1,1h3v1h2l4,1l1,1h2l1,1h2l1,1h2l1,1h2l1,1l-1,-1l1,1h2l1,1h2Z"/>
<path class="sp" d="M672,31h2M675,31l1,1M664,28h2l1,1h2l1,1"/>
<path class="sl" d="M621,16h1h-1h3l1,1h3l1,1h2l1,1h1l1,1h1l1,1h1l2,1h-1h1v1v-1h-3l-1,-1h-2l-2,-1h-4v-1h-2v-1h-3v-1h-2l-1,-1h-2l-3,-1h4l2,1ZM641,20l1,1h1h-1l-1,-1h-2l-1,-1h-1l1,1h2Z"/>
<path class="sp" d="M637,19l1,1h2"/>
<path class="sl" d="M612,13h-3v-1h-1h1v1h2ZM598,10h1h-1l-2,-1l1,1ZM726,82l-1,-1h1ZM739,94h-1v-1ZM731,85h-1v-1ZM737,89l-1,-1h-1l-1,-1h-2v-1l1,1h2l2,1ZM725,81v-1h1v1ZM742,90l2,2h1v1l-1,-1h-1l-1,-1h1h-1l-1,-1h-1v-1h-1v-1v1h2ZM770,109v1l-1,-1ZM775,109h-1l-1,-1h-1h1ZM767,108h-1l-1,-1h-1v-1l1,1h1v1ZM768,106h1h-1l-2,-2h1v1h1ZM743,92h-1l-1,-1v-1v1h1ZM752,98l-1,-1h-1l1,-1v1h1ZM746,93h-1v-1h-1v-1h-1h1l1,1v1ZM739,90v-1h-1h1ZM739,89h-1v-1ZM781,114l-1,-1h1ZM781,113l-1,-1h-1h1ZM769,106v-1h-1h1ZM608,13l-1,-1h-1h2ZM607,12l-1,-1h-1h1v1ZM679,33h1h-2Z"/>
<path class="sp" d="M678,33h1"/>
<path class="sl" d="M680,33h-1ZM685,36h-1v-1h-1h1v1ZM679,34h1ZM688,37h1v1ZM679,34h-1v-1v1ZM619,24h-1ZM26,394v-1h1ZM26,399v-1ZM17,399v1ZM15,408v1v-2h1ZM18,395v-1ZM19,391v-1ZM19,393l-1,1v-1l1,-1ZM20,385v2l-1,1l1,-2ZM19,389v-1ZM22,359v1v-1l1,-1v-1v2ZM27,355v-1ZM29,337v-1ZM32,327v1ZM31,330v1v-1v1ZM17,399l1,-1ZM18,393v1v-2ZM19,387v1ZM21,381v1v-2ZM22,360l1,-1v1ZM32,327l-1,1h1v-2ZM57,442v5h-1v-5ZM56,442v1h-1v6l-1,1l-1,-1v-3h-1h1v-1h1v-1h1v-2l1,-1ZM38,310l-1,1l2,-4l-1,1v1ZM39,308h-1l1,-1v-1v1ZM37,311l1,-2v-1l1,-1v-1l1,-1l-1,1v2h-1l-1,2ZM37,312v1ZM36,315v-1l1,-1l-1,1ZM40,304v-1ZM221,577v1l-1,1v1h1l1,1v1l1,1v2l1,2v1l1,2v2l1,1v1l1,2v1l1,1h2v-1h1l1,-1l5,5h1l1,1v4l2,4v1l1,2v2l3,3h1v2l2,5v4l1,1l1,2h1v3l2,2h2l1,1h1l1,1h2l1,1v1l2,1h1v1h2l2,1l1,1l2,1v1l1,1h-1v1l5,5l1,2l1,1v1l2,4v1l1,1l1,-1v1l1,1v-1l-1,-1v-2h1l1,1v1l2,1h1v-1h1l1,2v2l2,5l3,3l2,1h1l2,1v1l4,4h1l1,1v1l1,2h1l1,1l1,2l1,1v1h1v3l2,6v1l3,5v1l1,1l1,2v2l1,1v2l-1,1v4l1,3l-1,1v5l1,2v6l-1,3v3h-1v1h-1v1h1l-2,1l-1,2v1l-1,1v6l-1,1v4l1,1h-1v2l-1,3v5l1,2v4l1,1v2l-2,2h-7l-1,1h-1l-2,2l-2,4h-4l1,1h1l1,1v1h-1l-1,-1v-1h-1l-1,1v-1l-1,-1h-2l-1,-1v-1h1h-1v-1h-1v1l-1,1h-1l-1,-1h1v-3h-2l-2,2h2v1h-1l-1,1l-1,2h-1l-1,1l-1,-1h-1l-1,-1h-1l-2,-1h-2l-2,-1h-1l-1,1h-1l-1,-1l-2,-1h-2l-2,-1l-5,-5h-1v-2l-1,-1v-1l-1,-2l-2,-2h-1l-3,-3h-1v-1h1v1h1l-1,-1v-1h-1l-1,1h-1v1h-2v-4l-1,-2l-5,-5v1l1,1l-1,1l1,2v3h-2v1h-2v-3h2v-2l-1,-1v-1l-1,-1v-4l1,-1l-1,-1v-1l-1,-1l1,-1l-2,-2v-1l-1,-1v1l1,1v2h-1v5h-1v1h-1v1h-1v4l-1,1v1h1l1,2h-1l-1,-1v1l-2,-1v-1h-1l-1,-1h2l-2,-1v-2h-1l-1,-1v-1l-1,-1l-2,-1v-1l-1,-1h-1l-1,-1h-1l-2,-1l-1,-2h1v-1l-1,-1l-2,-1l-1,-1h-3l-3,-2h-1l-1,1h-1l-6,-3l-1,-1l-1,1h-4l-3,1h-1l-1,1l-2,1l-1,2l-2,1l-1,1h-6l-1,2l-1,1l-1,2l-1,1h-1v8h-3l-2,1l-1,-1h-5l-1,1h-2v1h-1l1,2l-2,2v4h-2v1l-2,-1h-2l-2,-1h-1l-3,-3h-1l-1,-1h-1v-1l-1,-2l-2,-2h1l1,1v-2l-1,-2v-1l-2,-3l-1,-2l-2,-3l-1,-2l-2,-3l-3,-3l-1,-2l-2,-3l-1,-1l-1,-3l-1,-1v-1l-2,-2l-1,-2l-1,-1v-1l-1,-1l-2,-1l-1,-2v-1l-2,-3l-1,-2l-3,-3l-3,-4l-1,-1v-1v1h1l-1,-1l3,3v1v-3h-1l-1,-1l-1,-2l-1,-1v-1l1,1v1l1,1v1h1v-1l1,2l1,1v-1l-1,-1v-2l-3,-3l-2,-3l-1,-1l-1,-2v-1l-1,-1l-1,-2v-1l-1,-2v-4l-1,-1v-2l-1,-1v-1l-1,-1v-3l-1,-3v-1l1,1v2l1,1v1h1v-2l-1,-2v-1l1,-1v-1l1,-1v-1l1,-2v-1l1,-3l1,-1h3l1,-1v-1l1,-1h1l1,-1l1,-2h2v-1l2,-1h1l2,-2v-2l1,-1v-7l1,-1v-2l1,-1h-1v-1l-1,-2l-1,-1v-5h1v-2l1,-1v-2l2,4l1,1l1,2v1l1,1v-3l-1,-1h1v1l1,-1l-1,-1v-1h-1v-1h-1v-4l1,1v-1h1l1,1h3l-1,-1l-1,1v-1l-1,-1h1v-2l-2,-2v-2h1v-1h2v1v-1h-1v-3h1l1,1v-1l-1,-1v-3h1v-3l1,1v1l1,1l1,-1l-1,-1v-3h1v1v-1h1v1h1l1,-2h-1v-1l1,-1l3,3h1l1,1v1l4,4l-1,1l1,1v2h1v-1l-1,-1v-1h1v-1h4v1l1,1v1v-3l1,1h1v1v-2l1,-1h-1l-1,-1l1,-1h-2v-4l1,-1v-4h1l1,-1v-1l-1,-1v-2h1v-2h1v-2h1v1v-2h1v-2h1v-1v1l1,1h2l1,-1v1h1v-1h2v1v-2h2l-1,-1v-3l-2,-1h-2l-2,-2l1,-1l1,1l1,-1v1l2,1l1,1v-1h2v2h2v1h3l2,1l1,1h2l1,-1v1h1l1,1h1l1,-1h1l1,-1v-1l1,-1v2h-1v2h1v-1h1v2h2v-2h-1h1v-2h1l1,2h1l1,1l-2,4v1l1,1l-1,2h-1v-1v1h-1l-1,1v3l1,1v3l-1,1v1l-1,2v3l1,1l2,1l1,1l2,1v1l2,1h1v1l1,1h3l2,2h1l3,3l2,1l1,1h3l1,1h1v2l1,1h1l2,2h2v1h2l2,-1l2,-2v-3l1,-3v-4l1,-1l-1,-2v-6l1,-1l-2,-5v-4l-1,-1v-8l1,-1v-1l1,1v-1h-1v-1l-1,-1v-4h1v-3l1,-4v-2l1,-1v-2h1v2l2,2v1h1v5h1v1h1Z"/>
<path class="sl" d="M310,690l-1,-2v-3l1,-1v-1l-1,-1h1v1l1,1l-1,5ZM202,618h-1v1h-2v-1l2,-2h1l1,1h-1ZM180,595h1l-1,1v2h2v1h-4v-4l1,-1ZM139,579v1h1l-1,1l-1,-1l-1,1l-1,-1v-1l1,1v-4h1v3ZM139,577h1l2,-2h1l2,2h-1v2l-2,2l-2,-1l-1,-1l-1,-2v-1h1ZM93,707h1l-2,-2l-1,-2v-1l1,3h1v1ZM237,771h2l1,1h-2v1l-1,1v-1h-2l-1,1l-1,-1h-1v-2h2l1,-1h2ZM289,788h-1ZM289,789h-1ZM273,646h-1v-1ZM272,645h-1l1,-1ZM293,672v1h1v1h-1l-1,-2ZM286,662v1v-1h1ZM282,662v-1h-1l1,-1v1ZM316,703v2l-1,-1v-1ZM315,702l-1,-1v-1h1v1ZM213,566l-1,1v-2ZM213,562v1l-1,-1ZM212,562l-1,-1h1ZM250,629v1l1,1v1l-2,-2h1ZM176,574l-1,1v-1l1,-1v-2v2ZM174,576l-1,1l2,-2v1ZM185,612h-1v-1h1ZM183,610v1v-2ZM181,611v-1ZM202,622v-1l1,1ZM177,595h-1v-1ZM151,575l-1,-1v-2l1,1v1ZM114,606v1v-2ZM113,614v-1h-1v-1l1,1ZM85,663v1v-2ZM294,805h3v1h2l2,1h4v-1h3v-1h2v-1h1l1,1h1v2h1v3h1v1l1,1v2h1h-1v-1h-1h1l-1,-1v5h1v1l1,1v2l-1,-1h-1v-1h1h-1l-1,-1v1h1l-1,1l-1,-1v-1v2l1,1h-1v3h-1l-1,-1h-4v-1h1h-2l-1,-2h-2v-1l-4,-4l2,1l1,1v-1h-1l-1,-1v-1v1h-1v-2l-2,-1l-4,-4v-1l-1,-1v-2l1,1ZM286,801l-1,-1v-1h-1v-2h1l1,1v2ZM308,797l2,2v1h1h-1v1h-1v-1l-2,-2v-1ZM315,822v1h-1l-1,-1h1v-1ZM317,817v1l-1,-1ZM315,821h-1v-1ZM292,803v1l-1,-1ZM311,801h1v1h-2v-1ZM311,802v1ZM405,889v-1ZM32,581v1l-1,-1l1,-1ZM423,714h1ZM611,987h1h-1l-1,1h-1l-3,1h-4l-1,1h-1h1l2,-1h1h-1h1h-1l-3,1h-3l-1,1h-1h1l2,-1h1l2,-1h1h-1l-1,1h-1h1h-4l-1,1h-4l-1,1h-1h1l1,-1v1h-4l-2,1h-1h1h-5l-1,1h-4l-1,1h-7l-1,1h-7v1h-9v1h-2h1h-9l-1,1h-17l-1,1h-43l-1,-1h-15l-1,-1h-10l-1,-1h-8l-1,-1h-7l-1,-1h-7l-1,-1h-5l-1,-1h-5l-1,-1h-4l-1,-1h-5l-1,-1h-3l-1,-1h-4l-1,-1h-4l-1,-1h-3l-1,-1h-3l-1,-1h-3l-1,-1h-3l-1,-1h-2l-1,-1h-4l-1,-1h-2l-1,-1h-3l-1,-1h-1l-1,-1h-3l-1,-1h-2l-1,-1h-2l-1,-1h-2l-1,-1h-2l-1,-1h-2l-1,-1h-2l-1,-1h-1l-1,-1h-3l-1,-1h-1l-1,-1h-2l-1,-1h-2l-2,-1l-1,-1h-1l-2,-1h-1l-2,-1l-1,-1h-1l-2,-1l-1,-1h-1v-1h-2v-1l-1,-1h-1h2l-1,-1h1v-1l1,1v-1h1l1,1v-1h-1v-1l-2,-1h-1v-1h5l3,1h3l1,1h3v-1h-1l-1,-1l-2,-1v-1h1v-1h1l1,1h2l4,2h3l1,1h1l-1,1l1,1h1v-1h1v-1h5v-1h1v1h-1l1,1l2,-1l1,-1h-1l1,-1h1v-1h2v-1h3l2,1l3,1h4l-2,-2v-1l1,-1h9l1,1l1,-1v-1l1,1h7l1,1h13l1,1h2l1,-1h1l1,1h2v1h1v2h1l1,-1h4l3,1h1v1h3l2,1l2,-1h6l2,2v-1h4l1,1l1,-1v-1h-1h2l2,1h1l1,1h6l2,1l1,-1h1l1,1h4l1,1h1v1h2l1,1h1l2,2h2l1,1v-1l-2,-1v-1h1l2,1h12l1,1h2v1h2l3,1h3v1h1h-2v2h1h-3l2,1v1h-7l-1,-1v1h1l1,1h1h-3l-1,1h1h-2v-1h-1v1l1,1h-1l2,1h1h-5v1h-1l1,1h-2l-1,1h3l1,1h1v1h1v1h1v1h2v1h1l1,1h2l-1,1h2v-1h1v1h2l1,1v-1v1h-9l1,1h1h-2v1h1h-1h1h-1l1,1h1l-2,1h4v1h1v1h5v1h1h-2v1l2,-1v1v-1h2l2,1h3v1h-1h7l1,1h9l2,1h8l2,1v-1h1h-5v-1h1h-2v-1h-2l-2,-1h4v1h14l1,-1h4v-1h2v-1h-2l1,-1h11v-1h-1h5v-1h-1v-1h-1l-1,-1h-2l-1,-1h5v-1h-5v-1h2v-1h8v1h3l1,1h1l1,-1h2l1,-1h1v1h4v-1h2v-1h-4l-1,-1h5l1,1h1v-1l2,-1h12l2,-1h8v-1h3v1h13l1,1h14l2,-1h1l-1,1h-2l-1,1h-3l-1,1h3l1,-1h3l1,-1h1h-1v1h-1l-2,1h-4l-1,1h3l-1,1l2,-1h2l-1,1l1,-1v1h-1l-1,1h1v-1v1h1l1,-1h2v-1h3v-1v1v-1h1l2,-1h1l1,-1h1v1h2v-1h2v-1h-1h1l2,-1h1h-1v1h1h-1h1l-1,1h-1h1l-1,1h1v-1h1v1h-1h1l1,-1h1h-1h1l-1,1h-2l-1,1h1h-2l-1,1h-3l-1,1h1v-1h3l2,-1h1h-2v1h-3l-1,1h-3l-1,1h-3l-1,1h-2l-1,1h-3l-1,1h-3l-1,1h-3l-1,1h-3Z"/>
<path class="sp" d="M604,989h-2l-1,1h-3M567,995l-1,1h-2M563,996v0M559,997h-2M550,998h-10l-1,1h-17l-1,1h-43l-1,-1h-15l-1,-1h-10l-1,-1h-8l-1,-1h-7l-1,-1h-7l-1,-1h-5l-1,-1h-5l-1,-1h-4l-1,-1h-5l-1,-1h-3l-1,-1h-4l-1,-1h-4l-1,-1h-3l-1,-1h-3l-1,-1h-3l-1,-1h-3l-1,-1h-2l-1,-1h-4l-1,-1h-2l-1,-1h-3l-1,-1h-1l-1,-1h-3l-1,-1h-2l-1,-1h-2l-1,-1h-2l-1,-1h-2l-1,-1h-2l-1,-1h-2l-1,-1h-1l-1,-1h-3l-1,-1h-1l-1,-1h-2l-1,-1h-1M642,980h-3l-1,1h-3l-1,1h-3l-1,1h-2l-1,1h-3l-1,1h-3l-1,1h-3l-1,1h-4"/>
<path class="sl" d="M654,973h-1v1l1,-1h1l-1,1h-1h1v-1h1l-1,1h-1h1h-1l-1,1h-3l1,-1h1v-1h4ZM623,975h-2l-2,1h-2v-1h2v-1h3ZM619,972v1h-1v1h-1h1l-1,1h-3l1,-1h1v-1h-1v1h-1h1v-1h2v-1h1ZM534,986h-2l-1,-1h-3v-1h2v-1h3v1h1v1h1v1ZM479,980h4l-1,1l-1,-1h-1v1h-1l-1,-1v-1h1ZM584,993h2l1,-1h1h-1l-1,1h-3Z"/>
<path class="sp" d="M588,992h-1l-1,1h-3"/>
<path class="sl" d="M645,978h-1h1l1,-1h2l1,-1h1h-1v1h-3ZM481,982h-1h1v-1ZM299,952l-1,-1h-1v-1v1h2ZM649,976l1,-1ZM641,975v1v-1h2ZM621,976l1,-1h1l-1,1ZM608,976v-1h2l-1,1ZM520,992l-1,-1h2ZM527,989h-4v-1h1l1,1h1ZM468,973h-1ZM468,975v1h-1v-1ZM480,969h-1ZM456,949v-1h-1h2ZM450,946h-1ZM447,945h-1v-1h-1ZM299,954h2v1h-1ZM303,954l-1,-1ZM304,955h-1ZM300,950h-3v-1h1v1h1ZM296,954h-1ZM304,960h1h-1v-1h-1h1ZM303,959h-1ZM302,959v-1h-1ZM647,977v-1h1ZM624,976h-1h1l3,-1l-1,1h-1ZM602,975h-1ZM603,975h-1h2ZM574,977h-1v-1h1ZM565,980h-1h2ZM562,980h-1ZM562,979h1l-1,1ZM559,981h1ZM560,979h1ZM569,978h-1ZM567,979h-1ZM557,981l-1,-1h1ZM541,986h-1ZM560,980h-1ZM528,990v-1Z"/>
<rect class="sh" x="509.5" y="541.5" width="1" height="1"/>
<rect class="sh" x="502.5" y="536.5" width="1" height="1"/>
<rect class="sh" x="492.5" y="529.5" width="1" height="1"/>
<rect class="sh" x="484.5" y="521.5" width="1" height="1"/>
<rect class="sh" x="493.5" y="519.5" width="1" height="1"/>
<rect class="sh" x="483.5" y="516.5" width="1" height="1"/>
<rect class="sh" x="515.5" y="548.5" width="1" height="1"/>
<rect class="sh" x="515.5" y="548.5" width="1" height="1"/>
<rect class="sh" x="505.5" y="531.5" width="1" height="1"/>
<path class="sw" d="M237,82h-1v1h-1v1h-1l-1,1h-1l-2,2h-1l-1,1v1h-2l-2,2h-1h1v-1h1h-1l-2,2h1h-1l-1,1h-1l-1,1h-1v1h-1l-1,1h-1l-1,1h-1l-1,1h-1v1v-1l-1,1h-1v1h-1l-1,1h-1v1h-1l-1,1h-2v1h-1v-1h1l1,-1h2v-1h1l1,-1h1l2,-1l2,-2h1l2,-2h1l2,-2h1l1,-1h1l2,-2h1l1,-1h1v-1h1l1,-1h1l1,-1h1v-1h1l1,-1h1v-1h1l1,-1h1l1,-1h1h-1v1ZM219,94v-1h-1l-1,1h-1v1l1,-1h1ZM816,113h1v1h1h-1v-1h-1v-1h-1v-1h-1l-1,-1h-1v-1l3,3ZM811,109h1h-1l-1,-1ZM809,107l1,1l-2,-2h-1v-1h-1h1h-1v-1h-1h1v1h1h-1v-1h-1l-1,-1h-1v-1h-1l-2,-2h-1v-1h-1l-2,-2h-1v-1h-1v-1h-1l1,1l-3,-3l-2,-1h1v1h1l3,3h1v1h1l2,2h1v1h1l1,1h1l1,2h1l1,1h1v1h1v1h1ZM804,103l-1,-1h-1h1v1ZM813,110l-1,-1l1,1h1Z"/>
<path class="sr" d="M812,109l4,4M810,108l1,1M808,106l1,1M813,110l-1,-1"/>
<path class="sw" d="M718,52h1l1,1l-1,-1h-2v-1h-1l1,1h2v1v-1h-1l1,1h1v1h1l2,2h1h-1v1h2v1h-3l-1,-1h-2l-1,-1h-1l-1,-1v1h3v-1v1v-1h-2v-1h1h-2v-1h-1l-1,-1h-2l-1,-1h-1l-1,-1h1v1h2l1,1h2v1h2l1,1h1v-1h-1l-1,-1h-1v-1h1ZM720,54h1v1h-1h2v1h1v-1h-2v-1ZM680,37h1v1h2v1h1h-2l2,1h1h-1h1v1l1,1h-1v-1h-1h1h-1v-1h-1l-1,-1h-1v1h1l1,1h-1l-1,-1h-2v-1h-1l-1,-1h-1l-1,-1l1,1h1v-1h-4v-1v1h1h-4l-1,-1h2v-1v1l1,-1h3v1h1v1h3l-1,-1h1v1ZM797,98h1v1v-1h-2v-1h-1v-1h-1l-1,-1h-1v-1h-1v-1h-2v-1v1v-1v1h2v1h1h-1h1v1h1l1,1h1v1h1v1v-1v1ZM855,164v1h-1v-1v1v-1h-1v-1h-1l-3,-3h1v1h1v1h1v1v-1l-1,-1h1v1h1h-1l2,2ZM855,165l-1,-1v1ZM950,284l4,8l1,3l-1,-2v-1l-1,-1v-1h-1h1l-1,-1v-1l-1,-1v-1l-1,-1v-1l-1,-1h1ZM758,72v1h1l1,1h1l1,1l-1,-1h-1v-1h-2v-1h-1l-1,-1l1,1l-1,-1h1v1ZM745,67v1h2v1l-1,-1v1h1h-1v-1h-1l-3,-3h-1h2l1,1h2l1,1h1h-2v-1h-1h1v1ZM762,74v1h1l1,1h1v1h1l1,1h1v1h2v1h1v1h1h-1h1h-1v-1h-1l-1,-1h-1l2,1l-1,-1h-1v-1h-2v-1h-1v-1h-1l-1,-1h-1l-1,-1h1v1ZM618,54v1h-1v1h-5v-1h2v-1h3ZM617,62v1l-1,-1h-2l-1,-1h-1h3l1,1ZM843,174h-1v-1ZM722,52h-1v-1h-1h1v1v-1h-1h1h-1h1l1,1h1v1h2v1h1h-1v-1v1h1h-1v-1h-2v-1ZM883,215v1l-2,-2v-1v1ZM704,48v1l-1,-1h-2l-1,-1h2v1h1ZM140,213h-1v1h-1l-1,1v-1h1v-1h-1v1h-1h1v-1h1v1h1v-2h1v-1v1h1v-1v1l-1,1v1ZM196,106h-1v1h-1l-2,2h-1l-2,2v-1h1l3,-3h1l2,-2h1h-1ZM184,113v-1v1h-1v1h-1l-1,1l2,-2Z"/>
<path class="sr" d="M180,116l3,-3"/>
<path class="sw" d="M249,131l-2,2h-1l-1,1v-2l1,-1v-1h1v-1h3v1ZM32,383l-1,-1l1,-1h-1v-4h1v5ZM110,195h-1v1l-1,1v-2h1v-1l1,-1h1l-1,1ZM759,74h1v1h1v1v-1v1v-1v1v-1h-1ZM727,54h-2v-1h-1l1,1h1Z"/>
<path class="sr" d="M724,53l1,1h1"/>
<path class="sw" d="M743,64v-1h-1l-1,-1l1,1h1l2,2h1l-2,-1ZM211,115h1v-1l1,-1h1l2,-2h1l-1,1v1v-1l-2,2l-2,1ZM139,227l-1,1h-1v-2l2,-2v1h1h-1v2h-1ZM615,62l-1,1h-1h1v-1ZM576,30v1h-1v-1h-1h1ZM728,60v1h1h-2v-1ZM70,245v-1l1,-1v-1h1h-1v2h-1ZM743,64l1,1l-1,-1l1,1h-1v-1h-1v-1h-1h1v1v-1h-1h1v1ZM447,22h-1ZM117,243v1h-1v-1v1l-1,1v1v-4l1,-1v-1h1v-1v1l-1,1v1h-1v1h1ZM119,237v-1ZM118,237h1h-1v1h-1ZM113,236h1v-1v1l-1,1v-1v1ZM167,127l1,-1h1v-1v1h-1l-1,1l1,-1h1h-1l-2,2h-1v1l1,-1Z"/>
<path class="sr" d="M168,126v0M165,129l2,-2"/>
<path class="sw" d="M487,787h-1v1h-1v-2h2ZM840,144h-1v-1h-1h1v1ZM581,20h-3v-1l2,1ZM810,121h-1v-1l1,1h1v1h1v1l-1,-1h-1ZM877,198l-2,-2h-1h1l-1,1v-1h-2l1,-1l-1,-1v-1v1l2,2v-1v1h1v1h1ZM745,69h1l1,1l-1,-1h-1v-1h-1l-1,-1l1,1h1ZM372,17h1v-1h3l1,-1l-1,1h-3v1h-4l-1,1h1l1,-1h1ZM366,18l-1,1l1,-1h1Z"/>
<path class="sr" d="M369,18l1,-1h1M365,19l1,-1h1"/>
<path class="sw" d="M426,17h-1v-1h1ZM42,333l-1,1v-2h1ZM141,215v1h-1v-1h1v-1h1v-1h-1v1h-1h1l1,-1v1ZM578,51v1v-1h-1ZM851,158v1v-1h-1v-1v1ZM859,170h1h-1v-1h-1v-1l1,1h1ZM662,34h-1v-1l1,1h1ZM715,58h-1v-1h-1h1ZM120,236h-1h1v-1ZM207,120h1v-1h1l-1,1ZM454,821h-1v-1v1ZM412,16h-1ZM63,257v1h-1h1v-2h1h-1h1v-1v1h-1ZM444,20v1l-1,-1ZM446,22h1ZM133,226v-1h1v1ZM109,239h-1v1v-1ZM131,225h-1l-1,1v-1h1v-1h1ZM827,155l1,1l-2,-2h1ZM840,168l1,1l-2,-2h-1v-1h1v1ZM115,236h-1v-1h1ZM115,233h1v-1v1ZM141,204h-1l1,-1ZM114,235h1v-1v1ZM112,238h-1v1v-1l1,-1ZM111,239h-1l1,-1h-1h1ZM854,187v1l-1,-1ZM662,30h-1l-1,-1h1v1h2v1h1h-1v-1ZM659,33v-1h-1h1l1,1ZM660,33h1ZM689,42v-1h-1h1v1h1ZM779,86v1v-1v1h1h-1l-1,-1h-1h1h-1h1ZM94,208v1ZM825,147h-1v-1h1ZM560,34h-1ZM575,48h1ZM581,49h-1ZM601,56h-1l-1,-1h1v1ZM601,53h-1ZM596,52h1ZM600,55h1h-2l-1,-1h2ZM174,121h-1h1l1,-1ZM740,77h-1v1h1l1,1h1l1,1h1v1l-2,-2h-1l-1,-1h-1l-1,-1h-2v-1h-1h1h-1l-1,-1l-3,-2h-1h1l1,1h1l1,1h1l1,1h2v1h1v-1h1l1,1ZM827,126h-1v-1h-1v-1v1l1,1l-1,-1v1v-1v1l1,1h-1v-1h-1v-1v1h1l-1,-1h1h-1h1v-1h-1h1v1h1v1ZM832,128l-2,-2h-1v-1h-1v-1v1l-1,-1v1v-1h1h-1h1v1h1v1h1h-1v-1v1h1l2,2h1h-1h1v1v-1ZM693,59l-1,-1h-1l-2,-1h-1v-1h-2l-1,-1h1l1,1h1l1,1h2v1h1ZM793,112h-1v-1h-1l-1,-1l1,1h1v1ZM804,119v1h1h-1v-1h-1v-1v1ZM796,120l-1,-1h-1l-1,-1h1l1,1ZM750,68l1,1h-1v-1h-1v-1v1ZM635,46h-1v-1h-1h1v1ZM930,250h-1v-1l1,1v-1v1v-1h-1h1ZM961,322v1v-1h-1v-1ZM138,618l-1,1v4h-1v-5h1ZM96,210h-1v1v-1v1v-1h1v-1h1h-1ZM96,210h-1v1v-1h1v-1ZM817,114h1h-1l-3,-3h-1v-1h-1v-1h-1h1v1v-1h-1l-2,-2h-1v-1v1v-1h-1v-1v1h1h-1h1l1,1l-1,-1v1h1l1,1h1v1h1v1h1l3,3h1ZM808,106h-1l-1,-1h1h-2l-1,-2h-1v-1h-1l-1,-1h-1v-1h-1v-1v1l1,1v-1h-1l-1,-1l1,1v-1h-2v-1h-1h1h-1h2v1h1v1l2,1l2,2h1v1h1l1,1h1h-1l1,1ZM764,79v-1h-2v-1l1,1h1l1,1h1v1h1l1,1h1v1h1v1h1h-1v-1h-2v-1h-1l-1,-1l1,1h1l1,1v-1h-2v-1h-1l-1,-1ZM877,198l-2,-2h-1h1l-1,1v-1h-2l1,-1l-1,-1v-1v1l2,2v-1v1h1v1h1ZM874,185l1,1v1h1v2l1,1v1h-1v-1h1l-1,-1v-1h-1h1l-1,-1v-1ZM767,77l2,2h1l1,1h1h-1l1,1v-1v1h1h-1v-1h-1l-1,-1l1,1l-1,-1l1,1l-1,-1h-1v-1h-1h1h-1l-1,-1h-1h1h-1ZM10,473h-1v-1h1l-1,-1v-1v1v-2l1,1v2ZM451,824v-1l-1,-1l1,-1v2Z"/>
<path class="sw" d="M450,825h-1v-2h1l-1,1ZM827,126h-1v-1h-1v-1v1l1,1l-1,-1v1v-1v1l1,1h-1v-1h-1v-1v1h1l-1,-1h1h-1h1v-1h-1h1v1h1v1ZM850,144l3,3h-1v-1h-1v-1h-1v-1v1h1h-1v-1l-1,-1h-1v-1h-1v-1l-1,-1h-1h1h-1v-1l-1,-1h-1v-1h-1v-1h-1v-1h-1v-1h-1v-1v1h1v1h1l1,1v1h1l6,6ZM693,59l-1,-1h-1l-2,-1h-1v-1h-2l-1,-1h1l1,1h1l1,1h2v1h1ZM793,112h-1v-1h-1l-1,-1l1,1h1v1ZM214,93v1v-1l-1,1l-2,1v1v-1l3,-2v-1h2l3,-3h1l2,-2h1l2,-2l2,-1l1,-1h1v-1h1v-1h1h-1l-1,1h-1l-3,3h-1v1h-1h1v-1h1l1,-1l-1,1h-1h1v-1h1l1,-1v-1h2v-1h2v-1h1h-1v1v-1v1h-1l-4,4h-1l-1,1h-1l-2,2h-1v1l-1,1h-1h1h-1l-1,1h-1v1h-1v1ZM710,47v1h1l-1,-1h-2v-1h-1h1v1v-1v1h1ZM710,47h1v1h2v1v-1h-2ZM860,154l2,2h1v1v-1h-1v-1h-1v-1h-1l-1,-1v-1h-1v-1h-1v-1v1h1v1l1,1ZM943,272v1h1l-1,-1v-1h-1v-2h-1h1v1l1,1ZM774,85l-1,-1h-1v-1v1v-1h-1l-1,-1l1,1h1l1,1ZM741,62v1h1h-1l-1,-1h-1v-1h-1l-1,-1v1h2v1h1h-1h1ZM775,97v1v-1h-1l-1,-1h-1l-1,-1l-2,-1h1l2,2h1ZM881,208v-1l1,1h1v1l-1,-1ZM827,161l1,1h-1l-1,-1l1,1ZM693,41h-2v-1v1h3v1h3v1h1h-1v-1h-3v-1ZM819,150v1h1l1,1h-1v-1h-1ZM824,147l1,1h-1ZM288,51h1l2,-2h1l1,-1h-1h1l-1,1h-1v1v-1h2v-1h1h-1v1h-1h1l1,-1v1h-2v1l1,-1h1v-1h1l-1,1h-1v1h-1v-1h1h-1l-1,1h-1v1h-2v1h-1h1h-2v1v-1v1h-3l-1,1h-1l-1,1l1,-1h1l1,-1h3v-1h1v-1ZM317,83l-1,1h-1l1,-1ZM487,35h1l-1,1h-1v-1ZM227,191h1v1l-2,1v1h-1l1,-1v-1h1ZM668,50l1,1h-1l-1,-1h-1h1ZM616,59h1h-4l-1,-1h3ZM579,48h1ZM615,52h1h-1v1h-1h1ZM627,53h3v1h-1v-1h-1ZM590,48h-1v-1h1ZM582,49h-1ZM575,46v1l-1,-1h-1h1ZM573,42v1l-1,-1ZM77,234v-1ZM706,45h-1ZM705,45h-1h2ZM705,45h-1ZM669,30v-1h-1h1ZM785,90l-1,-1l1,1h1v1ZM784,91l-1,-1h1v1h1ZM701,44h-1l-1,-1l1,1ZM771,82v1ZM773,84v-1ZM726,54h1v1h1l-2,-1h-1ZM735,59h-1v-1h-1h1ZM755,71l-1,-1h1v1h1ZM124,683l-1,-1h-1v-2h1l1,1v1ZM150,672h-2v-2h1v-1l1,-1v-1h1v2l1,1v1l-1,1v1ZM217,746h-1v-4h-1l-1,-1h-1v-1h-1v-1h-1v-1l-1,-1h1l1,1h3v2h1l1,2l1,1v2h-1ZM226,741v1h-1l-1,-1h1l-1,-3l-1,-1h-1v-1h1l-1,-1v-1l-1,-1h-1v-1l-2,-2v-1v1h1l1,1l2,1l2,2v1h1v1l1,1v1ZM130,731l-1,-1v-1l-1,-1v1l1,1v1l-1,-2h-1v1v-1l-1,-1v-1h2v-1h1v1l-1,-1v2l2,2ZM236,734v1l-1,1v-1h-1l-1,-1v-3l1,-1h1v1ZM218,723h-1l-1,1h-1v-2h1l1,-1h1ZM219,721l-1,-1h-3l-1,-1v1h-1l-1,-1v-1l-1,-2v-2l-1,-1h-1v-1l1,-1l2,1l1,1h2v1l1,1v2l1,2l1,1h1Z"/>
<path class="sb" d="M948,279v1v-1h-1v-1l-1,-1v-1h-1v-1h-1v-2l-2,-2v-2h-1v-2h-1v-1l-1,-1v-1l-1,-1l-1,-2l-1,-1v-1l-2,-2l-1,-2l-1,-1v-1l-1,-1v-1h-1v-1l-2,-2v-1h-1v-1v2l1,1v2h1v1h-1l-1,-1v-1h-1v-1l-2,-2l-1,-2l-1,-1v-1l-2,-2v-1l-5,-5l-1,-2l-2,-2v-1h-3l-1,-1l1,1v1l1,1v1h-1v-1h-4l-1,-1l-6,-3l-2,-2l-2,-1l-3,-3l-2,-1h-1v-1h-6M827,122v-1h-2v-1h-3v-1h-3v-1h-3l-1,-1h-4l-1,-1h-5l-1,-1h-5l-1,-1h-6l-2,-1h-7l-1,-1M614,24h2l1,1l2,1l1,1l2,1h1l2,1l1,1l4,2l1,1l2,1l1,1l2,1h1l2,1l1,1l2,1l1,1l2,1l1,1l2,1l1,1l2,1l1,2l2,1l1,1l2,1l1,1l2,1l3,3h1v-1l1,1h1l1,-1h1v1h1v1h3l1,1h1l1,1h2v1h2l1,1h1v1v-1h2l-1,-1h-1h1v-1h-1h1l1,-1v1h2v1h1l1,1h2l1,1h1v1h3l2,2h2l2,2h2l2,2h1l1,1h1v1h2v1h2v1h2l1,1h2l1,1h1l1,1h2v1M44,363v-2h1v-2l1,-1v-2h-1v-2h1v-2h1v-1h-1v-14h1v-2h-1v-1l1,-1v-4l-1,-2v-1h1v-3h1v1h1v-2h1v-1l1,-1v-3h-1h1v-1l1,-1v-1l-1,-1v1h-1v1h-1v-3l1,-1v-2h1v-1h-1h1v-5h1M37,367v2l1,-1v2h1v-4h1v-1h1v-1v2h1v-1h1v-1h1v-1v1l-1,1v1l-1,2v5l-1,2v3h-1v4l-1,1h-1v1l-1,1v1h-1v1l-1,1v1v-1h-1v3l-1,1v1l1,1v1h-1v1v-1h-1v1h-1v1v-1h-1v3h-1v1l-1,1M47,310l-1,1v1h-1v2h-1v2h-1v1l-1,1v2M16,406l1,-1v-4h1v-2l1,-1v-3l1,-1v-2h1v-6l1,-1v-5l1,-3v-1l1,-1v-8l1,-2v-2l1,-1v-2l1,-1v-2l1,-1v-1h1v-2l-1,1l1,-2v-1l1,-2v-5l1,-1v-3l1,-1v-2l1,-1v-1l1,-2v-2l1,-1v-1l1,-2l2,-2l1,-2v-1v1h1v-2l1,-1v1v-1h1l-1,1l1,-1v2l-1,1v1l-1,1v1h1v2l-1,1v2l-1,1v2h-1v2l-1,1v1l-2,4v1h1v-1l1,-1v-1l1,-1v-1h1v-1v1h1v1h-1h1v-1h1v-1l1,-1v-2h1v1h1l-1,2v6l-1,1v2l-1,2v9l-1,1v3l-1,1v2l-1,1v1l-1,1v1v-1l-1,-1v1h-2v1v-1h-1v1h-1v1l-1,1v1l-1,2v2h-1l-1,2v8l-1,1v4M63,307v-1h-2v-5h1v-2h1v-2h-1l1,-1h-1l-1,-1h1v-2l-3,3v2h-1l-1,1v-1v1h-1v1v-1l-1,1v-1v1h-1v1v-1l-1,-1v1l-1,1v1h-1v1v-1v1h-1v3h-1v2l-1,1v2h-1v1l-1,1v-1l1,-1v-1l1,-1v-1h-1v1l-1,1v1h-1v-1l1,-1v-5l1,-1v-1h1v-2h1v-4h1v-3h1v-1l1,-1v-1v1h-2v2h-1l1,-1v-1l1,-1v-2l1,-1v-1h1v-2l1,-1v-1h1v-1l1,-2l2,-2v-2h1v-2l2,-2v-1l1,-1v-1l1,-1v-1l1,-1v-2l1,-2l1,-1v-2h1h-1h1v-1l-2,2M192,164l2,-2h1l1,-1h1v-1h2l1,-1h1v-1h2v-1h1v-1h1l3,-3h1v-1h1v2h4v-1h1v-2l1,-1h4v-1h1l2,-2v1h1v-1h1v-1h1v-1l1,-1h2l-1,1v1M191,178h1v-1h1l1,-1v-1h1l1,-1h4l1,-1h1v-1M217,109h-1l-2,2l-2,1l-2,2h-1v1h-1l-3,3h-1l-1,1v1l-1,1h1l1,-1h1l1,-1v1h1l1,-1h1v-1h3l-1,1v1h1h-1v2l-1,1v1h-1v1h-1v1h-2v-1h-2l-1,1h-1v1h-1v-1v1h-1l-1,1h-3v1h-1v1l-1,1h-1l-2,2h-1l-1,1h-3v1h-1l-2,2h-1v1h-1l-1,1h-1l-1,-1v-1h-1l-4,4h-1v1l-1,1v1l-1,1v1h-1l-1,1h-1l-1,1h-1v1h-1l-3,3h-1l-1,1h-1v1h-1l-1,1h-4l-1,1h-1l-2,2l-2,1l-1,1h-1v1h-1l-1,1v-1l1,-1h-1v1h-1v-3l1,-1h-2l-1,1l-1,-1l-1,1v-1h1v-1h1v-1l4,-4v-1h1v-1h1v-1h1v-1h1v-1h1v-1"/>
<path class="sb" d="M228,148v-2h1v-1h1l1,-1h2v-1h1v-1h1v-1h1v-1h-1h1v-1l2,-2l2,-3v-1l1,-1h1l1,-1h1l1,-1h1v-1l1,1h2l1,1v-1h1v-1h1l2,-2h1v-1h1v-1h1l2,-2h1v-1l1,-1h1l1,-1v-1h1v-1h1v-1h1v-1h2l2,-2v-1h1v-2h-1l-2,1h-1l-1,1h-2l-1,1h-2l-1,1h-1l-2,1h-3v-2h1l1,-1v-2h1v-1h1h-2v-3h-2v-1h-2v1l-1,-1v-1l2,-2v-1h1v-1h1v-2h1v-1h1v-1l1,-1h-1h1v-1h1v-1h1v-2h1v-1h1v-1h-1h1v-1h-3v-2h-2l-1,1h-3l-1,1h-3l-1,1l-4,2h-1v1h1l-3,3l-2,1h-1l-1,1l-2,1l-1,1h-1v1h-1v1h-1l-1,1h-1l-1,1v1h-1l-2,2h-1l-6,3h-1v-2h-2v1h-1v-2h-2l-2,2h-1l-2,2h-1l-1,1h-2l-1,1h-2l-1,1h-4v-1h1v-1l1,-1h-1h1v-1l1,-1h-1v1v-1h-2v1h-2v1h-2l1,-1v-1h1l2,-2h1v-1h1v-2h1h-1l1,-1v-1v1h-1v1h-1l-1,1h-1v1h-1v1h-1l-1,1h-1v1h-1v1h-1v1h-1v1h-1l-2,2h-1v1h-1l-1,1v-1h1h-1h1h-1h1h-1h1h-1v1v-1v1v-1h1v-1h1v-1h1v-1v1v-1v1v-1h1h-1M60,262v1l-1,1h1h-1v1l-1,1M54,275v-2h1v-1h1v-2l1,-1v-1l1,-1v-1l1,-1v-1h1v-1l2,-2v-2h1v-1h1v-2h1v-1l1,-1v-1l1,-1v1h-1l1,1v-1v1h-1h1v-1l1,-1v-1h1l-1,1v1h-1v1h1h-1v2l-2,2v1v-1v1l1,-1v1h-1v1l-1,1v1h-1v2h-1v2l-1,2h-1h1v-2l-1,1v1h-1v1l-1,1l-1,2v1h-1v1l-1,1v1l-1,1v1l-1,1v1l-1,1v1h-1v2h-1v2l-1,2l-1,1v1l-1,1l-1,2v1l-1,1v-1l-1,2v2l-1,2l-1,1v1l-1,1v2h-1v1l-1,1v2l-1,1v1v-1v1M48,286v1v-1h1h-1v2l-1,1l-1,2v1h-1v2h-1v2l-1,1v1l-1,1v1l-1,2v1v-1v1v-2h1v-2h1v-2v2l-1,1v1l-1,1v2l-1,1v1l-1,1l-1,3v1l-1,3l-1,1v1v-1v1l-1,1v2h-1v2"/>
<circle class="w3" cx="500" cy="532" r="31"/>
<circle class="w3" cx="500" cy="532" r="29"/>
<circle class="c3" cx="500" cy="532" r="30"/>
<path class="sg" d="M 251.3860 933.0201 A 249.7500 16.4412, 0, 1 1, 747.6140 933.0201"/>
<path class="sg" d="M 67.2342 749.7929 A 432.5797 28.4770, 0, 1 1, 931.7658 749.7929"/>
<path class="sg" d="M 0.0000 499.5000 A 499.5000 32.8824, 0, 1 1, 999.0000 499.5000"/>
<path class="sg" d="M 67.2342 249.2071 A 432.5797 28.4770, 0, 0 1, 931.7658 249.2071"/>
<path class="sg" d="M 251.3860 65.9799 A 249.7500 16.4412, 0, 0 1, 747.6140 65.9799"/>
<path class="sg" d="M 500.6391 0.0013 A 17.2554 499.5000, -179.86934040, 0 1, 498.3609 998.9987"/>
<path class="sg" d="M 520.0171 0.4215 A 264.0024 499.5000, -177.64590088, 0 1, 478.9829 998.5785"/>
<path class="sg" d="M 560.8334 3.7799 A 440.0103 499.5000, -172.94687152, 0 1, 438.1666 995.2201"/>
<path class="sg" d="M 57.4653 266.8939 A 498.1177 499.5000, -242.24589612, 0 0, 941.5347 732.1061"/>
<path class="sg" d="M 447.1347 2.7525 A 422.7549 499.5000, -186.01768647, 0 0, 551.8653 996.2475"/>
<path class="sg" d="M 482.0151 0.3061 A 234.1153 499.5000, -182.00604002, 0 0, 516.9849 998.6939"/>
<text x="0" y="0" class="fs" transform="translate(755,344) rotate(83)">150W</text>
<text x="0" y="0" class="ft" transform="translate(755,344) rotate(83)">150W</text>
<text x="0" y="0" class="fs" transform="translate(925,356) rotate(77)">120W</text>
<text x="0" y="0" class="ft" transform="translate(925,356) rotate(77)">120W</text>
<text x="0" y="0" class="fs" transform="translate(90,354) rotate(100)">120E</text>
<text x="0" y="0" class="ft" transform="translate(90,354) rotate(100)">120E</text>
<text x="0" y="0" class="fs" transform="translate(273,342) rotate(96)">150E</text>
<text x="0" y="0" class="ft" transform="translate(273,342) rotate(96)">150E</text>
<text x="0" y="0" class="fs" transform="translate(516,339) rotate(88)">180E</text>
<text x="0" y="0" class="ft" transform="translate(516,339) rotate(88)">180E</text>
<text x="0" y="0" class="fs" transform="translate(508,912) rotate(0)">60S</text>
<text x="0" y="0" class="ft" transform="translate(508,912) rotate(0)">60S</text>
<text x="0" y="0" class="fs" transform="translate(515,716) rotate(1)">30S</text>
<text x="0" y="0" class="ft" transform="translate(515,716) rotate(1)">30S</text>
<text x="0" y="0" class="fs" transform="translate(517,462) rotate(1)">0N</text>
<text x="0" y="0" class="ft" transform="translate(517,462) rotate(1)">0N</text>
<text x="0" y="0" class="fs" transform="translate(514,218) rotate(0)">30N</text>
<text x="0" y="0" class="ft" transform="translate(514,218) rotate(0)">30N</text>
<text x="0" y="0" class="fs" transform="translate(508,50) rotate(0)">60N</text>
<text x="0" y="0" class="ft" transform="translate(508,50) rotate(0)">60N</text>
<path class="tb" d="M127,998h-2l-1,-1h-2l-1,-1h-2l-1,-1h-2v-1h-3v-1h-2l-1,-1h-2v-1h-2l-1,-1h-2v-1h-2v-1h-2l-1,-1h-2v-1h-2v-1h-2v-1h-2v-1h-2v-1h-2v-1h-2v-1h-2v-1h-2v-1h-1l-1,-1h-1v-1h-2v-1h-2v-1h-1v-1h-2v-1h-1l-1,-1h-1v-1h-2v-1h-1v-1h-2v-1h-1v-1h-1l-1,-1h-1v-1h-1v-1h-1l-1,-1h-1v-1h-1v-1h-1v-1h-2v-1h-1v-1h-1v-1h-1v-1h-1l-2,-2h-1v-1h-1v-1h-1v-1h-1v-1h-1v-1h-1v-1h-1v-1h-1v-1h-1v-1h-1v-1h-1v-1h-1v-1h-1v-2h-1v-1h-1v-1h-1v-1h-1v-1l-1,-1v-1h-1v-1h-1v-1l-1,-1v-1h-1v-1l-1,-1v-1h-1v-1l-1,-1v-1h-1v-2h-1v-2h-1v-1l-1,-1v-1l-1,-1v-1l-1,-1v-2h-1v-2h-1v-3h-1v-2h-1v-4h-1v-3h-1v-5h-1v-6l-1,-1v-17h1v-7h1v-4l1,-1v-3h1v-3h1v-3h1v-2l1,-1v-2h1v-2h1v-2h1v-2h1v-2h1v-2h1v-2h1v-1h1v-2h1v-1h1v-2h1v-1h1v-1l1,-1v-1h1v-1h1v-1l1,-1v-1h1v-1h1v-1h1v-1h1v-1h1v-1h1v-2h1v-1h1v-1h1v-1h1v-1h1l3,-3h1v-1h1v-1h1v-1h1v-1h1v-1h1v-1h1l1,-1h1v-1h1v-1h1v-1h1l1,-1h1v-1h1v-1h2v-1h1v-1h1v-1h2v-1h1v-1h2v-1h1v-1h2v-1h1l1,-1h1v-1h2v-1h1l1,-1h1v-1h2v-1h2v-1h2v-1h1l1,-1h1l1,-1h1l1,-1h1l1,-1h1l1,-1h2v-1h2v-1h2v-1h2l1,-1h2v-1h2v-1h2l1,-1h2v-1h3v-1h2l1,-1h2v-1h3v-1h3v-1h159v1h3v1h3v1h2l1,1h2v1h3v1h2l1,1h2v1h2v1h2l1,1h2v1h2v1h2v1h2l1,1h1l1,1h1l1,1h1l1,1h1l1,1h1v1h2v1h2v1h2v1h1l1,1h1v1h2v1h1l1,1h1v1h2v1h1v1h2v1h1v1h2v1h1v1h1v1h2v1h1v1h1l1,1h1v1h1v1h1v1h1l1,1h1v1h1v1h1v1h1v1h1v1h1v1h1l3,3h1v1h1v1h1v1h1v1h1v2h1v1h1v1h1v1h1v1h1v1h1v1l1,1v1h1v1h1v1l1,1v1h1v1h1v2h1v1h1v2h1v1h1v2h1v2h1v2h1v2h1v2h1v2h1v2l1,1v2h1v3h1v3h1v3l1,1v4h1v7h1v17l-1,1v6h-1v5h-1v3h-1v4h-1v2h-1v3h-1v2h-1v2l-1,1v1l-1,1v1l-1,1v1h-1v2h-1v2h-1v1l-1,1v1h-1v1l-1,1v1h-1v1l-1,1v1h-1v1h-1v1l-1,1v1h-1v1h-1v1h-1v1h-1v2h-1v1h-1v1h-1v1h-1v1h-1v1h-1v1h-1v1h-1v1h-1v1h-1v1h-1v1h-1v1h-1l-2,2h-1v1h-1v1h-1v1h-1v1h-2v1h-1v1h-1v1h-1l-1,1h-1v1h-1v1h-1l-1,1h-1v1h-1v1h-2v1h-1v1h-2v1h-1l-1,1h-1v1h-2v1h-1v1h-2v1h-2v1h-1l-1,1h-1v1h-2v1h-2v1h-2v1h-2v1h-2v1h-2v1h-2v1h-2v1h-2l-1,1h-2v1h-2v1h-2l-1,1h-2v1h-2l-1,1h-2v1h-3v1h-2l-1,1h-2l-1,1h-2l-1,1h-2Z"/>
<path class="tl" d="M169,986h1v1h-3l-1,-1h2v-1ZM114,989h-3l-1,-1h2l1,1ZM176,983h1l1,1v1h1l-1,1h-2l-1,1h-1l-1,-1l1,-1v-2h1v-1ZM124,980h2v1h-1ZM122,980l1,1h-1l-1,-1ZM136,977h1h-2ZM156,974v1l1,1h-5v-1l1,-1v-1l-1,-1l1,-1v1h1l1,1ZM158,964v1h-2v2h1l-2,2v1h1l1,1h1l4,4v1l1,1v1h-1v2h-1l-1,1h-1v1h-2l1,1h1v1h-2l1,1h1v1h3l1,1h3l1,1h3l1,1h1l1,1v-1h1v-1h2l2,-1l1,1h1v-1h4v-1h3l1,-1h-1v-1h-4l-1,-1l1,-1h1l2,-2h4l1,-1h1l2,-2h-1v-1h1v-1h2v-1l1,-1h1v1h1v-1h8v-1h3v-1h1l1,1h2v-1h1v1l1,-1h4v1h6v-1h3v-1h2v1h3l1,-1h3v-1h2l1,-1h2l1,-1h4v1h1v1h1l1,1h1l1,-1l1,1h2v1l-2,2h-1v1h1h-1v1h-1v1h2l2,-2h1v-1h3l1,-1h1v-1h2l1,-1h5v-1h1v1h5v1h1l1,-1l1,1l1,-1h1l2,-1v1l1,1h3l1,-1h2v1h1v1h4l1,-1v1h9l1,-1l-1,1v1h-1h3l1,1h2l-1,1v1h1v1h2v1h1v2h2l1,1v1h-1l-1,1h-2l-1,1h-3l-1,1h-2l-1,1h-2l-2,2v1h-5l-1,1h-2v1h-1v3h2l-11,4h-155l-11,-4h-1h2l1,-1l1,1h14l-1,-1h-7v-1h-2v-1h-3l-1,-1h4v-1h-2l-1,-1h-7l-1,-1l-2,-1l1,1l1,-1l2,1v-1h1v-1l-1,-1h-1h2v-1h2v-1h4l1,-1h5l1,-1l1,1v-1h1l1,1h1v-1l1,1h6v-1h-2l-1,-1h-1l-1,-1h4l1,1h1l1,-1h3l-1,-1h1l1,1l1,-1l1,1h3v-1l1,1h4v-1h2l1,-1v-1h-1v-1h-1v-1h-1v-1h-1v-2l-1,-1v-1h1v-2h1v-1h1v-1h1l1,-1l1,1ZM144,951l2,1h1v1h-1v-1v1h-4l-2,-2l-2,-1l2,1h2v-2h1v1ZM151,947h1v1h-2v1l-1,-1l1,-1ZM269,946h-1v-2h1l1,1ZM345,939v1h1l1,-1v1l-3,3v-1l-1,1h-1l1,-1v-1l1,-1v-1ZM368,943v1l1,-1v1h-1l-3,3h-1l-1,1h-1l-2,2h-2v1h-1v-1h-1v-1l4,-2h1l1,-1h2l2,-2h1l2,-2ZM376,936l-1,2l1,-1l-1,1l1,1h1l-2,2h-1l-2,2l-2,1h-1l2,-1v-2l1,-1l2,-1v-1l1,-1v-3l1,-1v1l1,1ZM382,913l-1,1v-2l-1,-1v-1h1v1l1,1ZM397,906v1l-1,1h-1v-1l1,-1v1ZM398,906h-1v-1h1l1,-1v1ZM10,905v-1ZM386,904v-1ZM386,901v2h-1v-1ZM259,895v2l1,1h-1v1v-1v2h-1v3l-3,6v2h-1l-1,1l-1,-1h-1v-5h1v-2l1,-1h-1v-3h1v-1h1l2,-2h1v-1l1,-1v-1l1,-1v1ZM361,898v1h1v1h1l-1,1v2h1l-1,2v1l2,2v4h1l-1,2l1,1v3l-1,1v2l-3,3v1l-1,1l-1,2h-1l-1,2h-1l-4,4v1h-2l-1,1h-1l-1,1v-1h-1l1,-1h-1l-1,1h-1v-1h-1v-3h1l-1,-1v-1l1,-1l-1,1h-1l3,-3l-2,1h-1l-1,2v-4l-2,-2h-2l-1,1h-4l-2,2h-4l-1,1v-1l-1,1h-2v-1h-1l1,-1v-1h1v-3l1,-1v-7l1,1v-3l1,-1v-1l1,-1l-1,1l2,-2h1l1,-1h2l1,-1h2v-1h1l1,-1v-2l1,-1v2l1,-1v-1h1v-1l2,-2h2v1h2v-2h1l1,-1v-1h2v-1h-1h1l1,1h3l1,1h-1v1h-1v1l-1,1v1l2,2v1h1l1,1h1v-1l1,-1v-1l1,-1v-3l1,-1v-2h1v-1v3l1,1Z"/>
<path class="tl" d="M383,894h-1v-1v1ZM337,892l-2,-1h2ZM381,893h-1v-1h1ZM382,892v-1l-1,-1h1ZM341,892h-1l3,-3h2l-1,1h-1l-1,1ZM335,889h1v1h-3l1,-1ZM340,889v1h-3v-1h2ZM381,890v1l-2,-2h1v1ZM378,889v-1h-1v-1l1,1ZM325,887h2v-1l2,1v1h2l1,1l-1,1l-1,-1h-4l-1,-1h-1l-2,-1h-1l1,-2h1l1,1ZM353,886v1v-2ZM377,888h-1v-2l-1,-1h1v2h1ZM373,885l-1,1h-1l-1,1l-1,-1h-1l1,-1l1,1v-1h2v-2h1v1ZM345,882h-1v-1h1ZM349,881v2l-1,-1h-2v-1h2ZM374,884l-1,-1v-1l-1,-1h-1h2v2h1ZM353,878v3l2,1v-2l2,-1h1l1,1h1l1,1l4,2v1h1v1l2,1v1h-1v1l1,1v2h1v1h1h-1l1,1l-1,1v-1h-2l-1,-1v-3h-3l-1,1v1h-2l-2,-2v1h-2l1,-2h1l-1,-2v-1l-2,-1h-1l-1,-2l-1,1l-1,-1h1l-1,-1l1,-1h-1v-1h-1l-1,-1h2v-1ZM343,875l-1,1h-4v1l1,2v-1h2l-1,1h-1l1,2v1l1,2v1h-1v-2l-1,1v-1l-1,-1l1,-1h-1v4h-1v-3h-1v-1l1,-1v-4h1v-1h4l1,-1ZM347,875v1h-1v1l1,1h-1v-4h1ZM321,885h-1l-2,-2v-1l-2,-2l-1,-2v-2l-1,-1v-1l-4,-4v-1h2l3,3l1,2h1l2,2h1l-1,2h1v1l1,1h1v3ZM335,874l1,1h-1v3l-1,1v1l-1,3v-1l-1,1l-1,-1h-1v-1l-1,1l-1,-1h-1l-2,-4v-2l1,-1h2v-2h2v-1l1,-1v-1h1l1,-1v-2h1v1l2,2v1h-1l-1,2l1,1ZM344,864v3l-1,-1v2l-2,-2h1l-1,-1v1l-1,-1l-1,1v-1l1,-1h2v-1h1v-1l1,1ZM294,868h-1v-1l-1,-2l1,-2l1,1v1l1,1v1ZM137,863h-1l1,-1h1ZM341,861v1l-1,1l-1,-1l1,-1v-1v1l1,-1ZM335,863l-1,1v-1l1,-1v-1l1,-1v1l-1,1ZM338,859h2v1l-1,1v-1h-1ZM342,858l1,2h-1v1v-1h-1v-1h1h-1v-1ZM338,857l-1,1l-1,-1h1ZM336,849h1v6h1l2,1v2l-1,-1v-1v1l-1,-1h-2v-1h1h-1l-1,-1v-5ZM133,851v1h-1v-1ZM121,852h-1v-1h2v1ZM126,849h3v1h1v1h-2l-1,1v-1h-1v-2h-1ZM324,849l-1,1h-1v-2l1,-1h1v1ZM37,846v-2h1v2ZM38,844h-1v-1h1ZM119,845h2l1,1v1h1v1h2l-1,1h-3v-1h-1v-2h-2l-1,-1h-1h1h-2l-1,1h-1l2,-2h3ZM122,843h-1v-1l1,-1v1ZM334,843v1l-2,-2v-2l1,-1l1,1ZM122,839l-1,1v-1ZM123,839v1v-1h-1ZM340,825h1v1h-1v1h-1v-2ZM240,828l-2,2v-1h-1h2ZM229,828v1h-1ZM220,825v2h-1l-1,-1h-1v-1h2ZM214,821v3h-1v-3ZM344,820v1l1,1v1l-1,1h-1l-1,2l-1,-1v-1l-2,1l-1,1h-1l2,1v3l-1,-1v-1h-1l-1,-1l1,-1v-3h3v-3l1,1v-2h1l-2,-4v-1l3,3v1ZM214,820v1l-1,-1v-1l1,-1ZM340,810l1,-1l1,2h-1v2l-2,-1l1,2h-1l-1,-2l-1,-1h1l-1,-2l-1,-1l3,1ZM144,812l1,1h1h-2ZM147,809h-1l-1,-1h1ZM92,806h-1l-1,-1v-2h-1v-1h1l1,1v1l1,1ZM153,807l-1,1h1v1h2l-1,1h1v1l-1,2l-1,-1l1,-1l-2,1v-1h-3l1,-1h-1l4,-4h1Z"/>
<path class="tl" d="M90,797h1l-2,2v1v-3ZM332,800l3,3l-2,-1l1,2l2,2v1l-2,-2l-1,-2l-6,-6v-1h-1h1l3,3ZM198,806l-1,1h-2l1,-2v-1l2,-2h1v3ZM216,801l-1,2l-1,-1v-1h1ZM79,791h-1v-1h2ZM202,797l-1,2h2v1l-1,1h1l2,4h1v1l-1,1h1l-1,1h-3l-1,1h-2l2,-2h-1v-1h1l-1,-1v-1h2l-1,-1h-1v-2l-1,-1l1,-2v-1l1,1ZM75,786h-1v-1h1ZM141,790l-1,1v-1ZM139,790h-2l1,-1h1ZM78,780v1h1h-2v-1ZM139,786h1v1h1l-1,1h1l-1,1l-1,-1h-1l-2,1l1,-1h-1h1l1,-1l1,-2ZM193,787v1l1,1l-1,1h-3l-1,1l-1,-1h-2l1,-1h-1h1v-1h-2l1,-1h1l1,1l2,-1h2ZM147,784h-1l1,-1h2l-1,1ZM81,776v1l1,-1h2l-1,2h-3l-1,1h-1l-1,-1h1v-1h-1h1h-2l-1,1l8,-5v1l-1,2ZM135,780l-1,1v-1h-1l1,-1h1ZM322,771h-1ZM88,771h-1h2ZM139,780l-1,2l2,-1v1h-1v1l1,-1l2,-1l1,-1h2v2h-1v1l-1,1l-2,1h-1v-1l-1,1l-2,1v1h-3l-2,2h-1l-1,1l-2,1l-1,1l-1,2h1l-1,1v1h1l3,3l2,1h1l-2,2v2l1,1h1l2,-4h-1l4,-2v-1l1,-1v-1l-1,-1l2,-1l2,-4l1,1h1l1,-1v1l1,1h1v2l-1,1l1,1h2l1,-2h1v3l1,1l-1,1l1,1v1h1l1,1v1l1,1l-2,2h-2l-2,2h-1l-2,-1h-2l-2,1l-1,1l-2,1l-1,1l2,-1l3,-1h2l-1,1l-1,2v1l1,1l2,-1l1,-1v1h1l-4,2h-1l-2,1v-1l2,-1h-3v1h-1l-1,1h-1l-2,2l1,1v-1v1h-3l-1,1l2,-1v1h-2l-2,2v1l-1,1l-1,-1l1,-1l-1,1v4l-1,1h-1l-1,1h-1l-3,3h-1v8l-1,1h-1v-3l-1,-1l1,-1l-1,-2l-1,1l-1,-1h-4v1h-1l-1,-1l-1,1l-1,-1l-2,2h-2v1h-1v3l-1,1v1l-1,2v4l1,1v1h1v1l1,-1h3v-1l1,-1v-1l1,-1h3v1l-1,1v2l-1,1v-1v2l-1,1v1h5v1h1v1l-1,1v3l-1,1h1v2h1v1h2l1,-1h1v1h1l1,1l1,-1v-2l1,-1h2l2,-2v2h-1h1v1l-1,1v1h1v-3h1v-1h1v1h1v1h3l1,1l1,-1h1l1,1h1v1l1,1h1v1h1v1l1,1l2,1v-1h1l1,1h1l1,1v1h1v1l1,2v1l-1,1l1,1h2v1v-1l4,2v1h1l3,1h1l2,1l2,2h2v5l-1,1l-1,2l-2,2v9l-1,2v2h-1v1h-2l-1,1h-1l-3,3v5l-1,2l-2,2v2l-2,2v-1l-1,1l-1,-1h-1v-1v1l1,1v1l1,1v2l-2,1h-3l1,1v2l-1,1l-1,-1h-1l1,2h2l-2,2l1,1v1h-1l-1,1v1l2,1h1v1l-1,1v2h-1v1l2,2h-1l-1,1v1h-1l-2,-1l-3,-3l-1,-3v-1l1,-1h-2l1,-2l-1,-2h1v-2l-1,-1v2l-1,-2v-4l-1,-1l-1,-2h1v-6l-1,-2v-8l-1,-2v-6l-1,-2l-1,-1l-2,-1l-3,-2l-1,-1v-1l-1,-2l-1,-3l-2,-3l-2,-2v-1l-1,-2l2,-2v-1h-1v-3l1,-1v-1h1v-2h1l1,-1v-5l-1,-1v-2h-1v1h-1v1h-1l-1,-1h-2v-2h-1v-1v1h-1v-3l-2,-2h1h-2v-1h-2l-1,-1l-1,-2h-1l-1,-1v1h-2l-1,-1h-2l-2,-2h-1l-1,-1v-1h-1v-3h1l-1,-1v-3l-1,-1v-1l-1,-1v-3h-1v-5l-1,-1l-1,1v4h1l-1,1h1v5h1v2h-1v-1l-1,-1v-3l-1,-1v1v-1h-1v-1h1v-9h-1v-1h-1v-9l2,-2v-1l1,-2l2,-2l1,-2l1,-1v-1h1v1l2,-2h-1v-2l-1,-1v-1l1,-1l-1,-1l1,-1v-1l1,-1l-1,-1l1,-1v-1l1,-1l-1,-1h-1v-2h-1v-1h-1l-1,-1h-1l-1,1h-4l1,-1l2,-1h-1l-1,1l-2,1h-1l-1,1l-2,1h-2l-2,1h-1l-1,1h-3l-1,1h-2l1,-1h2l2,-1h2l2,-1h1l2,-1l1,-1h-3l1,-1l-1,1h-1l2,-2h-1v-1l2,-2l2,-1h3l1,-1h1l1,-1h-3v-2h4l1,1l1,-1v-3h4l1,-1h2l2,-1l1,1l1,-1h1l-1,1h1l1,1h2l1,1h2v1l1,1l1,-1h6l1,-1v2l2,-1l-1,1h2l1,1h2v1l-2,1h4v1l2,-2h2v1h1l1,1h2v-1h1l1,1l-1,1l1,-1h1l1,-1v-2l1,-1l2,-1l1,1l-2,2Z"/>
<path class="tl" d="M128,774l-1,1h4l-1,1h1l2,-2v1l-1,2v1l1,1h-2v1h-8v-1h-1v-1h4l-1,-1h-3l2,-1h-1l1,-1h1ZM135,774l-2,1v-1h1ZM152,776v1l-1,-1l-1,1v-2h2ZM146,776v1l1,-1l2,-1v2h3l1,1l-1,1l2,-1v1l1,1v2h-1l2,2v1h1v1l-2,1h-1l-1,-2l-1,1v1l1,1v2l-1,1l-2,-2v1l1,1h-2l-2,-2v-1l-1,-1v1h-3v-1l1,-1h3l1,-1l2,-1v-1l-1,-1h-1l1,-1l-1,-1h-5l-1,-1h-1l1,-1h-1l1,-1l2,-1l1,-1h2ZM138,774h2l-1,1h-1l1,1l-2,1h-2v-2l1,1v-1ZM298,772h-2v-1ZM141,776l-2,1v-1l2,-2h2l1,1l-2,1ZM122,776h-2l-1,-1h1l2,-1l2,-2h2v1h2v1h-1l-3,1h-2ZM299,769v1h-3v-1h1ZM143,773v1l-1,-1h-1l1,-1h1l1,1ZM295,769l1,1h-2l-1,1l-2,-1l-1,-1h2ZM143,771h-1v1l-1,1h-2l1,-1h-1l1,-1h2ZM136,771h1v1h-4l-2,1h-1l1,-1h-1l-1,-1l2,-1h1l2,1l1,1v-2h2ZM246,780h-3l-2,-1v-1l1,-2h-1l1,-1l-1,-1h1l4,-2h2l-1,1l-2,1l-1,1v2l-1,1l1,1ZM145,770l1,1h1l-1,1h1l1,1h4v1h-7l-1,-1l1,-1v-1h-2l1,-1ZM134,769l-2,1h-4l2,-1h3ZM271,770l1,1v-1h2l2,1h1v1l-1,1h1l2,1v-1l1,1l1,-1h2l1,1h3l-2,-1h5l1,1v1h2l2,1l-1,-1h1l1,-1l2,1v-1h1l-2,-1h8l3,1l1,-1h2l2,2h2v-1h3l3,1v-1h-2v-1h7l8,5h-1l1,1l2,1h2v1h-1v1h-1l1,1v2l-2,-1v2l-1,-1v1h-1l2,2v1h1l3,2h-1l1,1h1v1l1,2h-1l1,2l1,1l-4,-2l-4,-3l-1,-2l-1,-1v-3l-1,-2v-1l-2,-2l-1,1l2,2l-3,-1l-1,1l1,2l1,1h-1l-1,1l-1,-1h-1v1h-4v7h1l2,1h1l-1,-1h1l3,1l1,2l1,1l1,2l2,2v9h-1l-1,-1v2h-1v1l1,1v1h-1v1l1,1h1l2,2v1l1,1v1l-1,1h-1l-1,-2l-1,-1h1l-2,-1v-1v1v-1h-1v-1l-1,-1h-2v1h-1l-1,-1l1,-1l-1,-1l-1,1v2h-1v1l2,2h1v-1h2l1,1l-2,1v2l2,2l1,2l2,1v2h1v6l-2,4l-1,1h-1v1l-1,-1v1l-2,1h-1v2l-1,-1v-1h-2l-1,2v2l1,1l1,2l2,2l1,3v4l-2,1v1l-2,1v-2l-1,-1h-1v-1l-2,-2h-1v-1h-1v6h1v3l1,1h1v1h1v1l1,1v3h1v2h-1l-2,-2v-1l-1,-1v-1l-1,-1v-2l-1,-1v-1h-1v-6l-1,-1v-1l-1,-2v-2l-1,-1l-2,2h-1v-3l-1,-2v-1h-1l-2,-2v-1l-1,-1h-1v2l-1,-1v1h-2v2l-2,1l-1,2v1l-2,2h-1v8l-1,1l1,1h-1l-1,1l-1,-1l-1,-2v-1l-1,-1v-1l-1,-2v-1l-3,-6v-3l-2,1h-1l-1,-2v-1l-2,-1l-1,-1v-1l-1,-1l-2,1h-5l-1,-1h-2v-2h-1l-1,1h-2l-3,-3l-1,-2l-1,1v-1l-1,1v2l1,1h1l1,1v2l1,1l-1,-1l1,-1v2h1v1l1,-1h2v-1l1,-1v-1v2l2,2h1l2,2l-1,1v1h-1v3h-1v1h-1v1h-2v1h-1l-2,2h-1l-2,2v-1l-1,1h-2v1h-2v-2l-1,-1v-3h-1v-1l-1,-1v-1l-1,-1h-1v-1l-1,-1v-3h-2v-2l-1,-1v-1l-2,-2v-1v1l-1,1l-1,-1l-1,-2l1,2l1,1l1,2v1l2,2h-1l2,2v1l1,1h-1l1,2v1l1,1l1,2v1l1,1l2,1v1h1v1h1v1l-1,1h1l1,1h3l1,-1h3v-1h1v2l-1,1v3l-1,1l-3,6l-1,1l-2,1l-1,1l-1,2v1h-1v1h-1v2l-1,1l-1,2l1,1v4l1,1v7l-1,1h-1l-3,3h-1v1l-1,1v2h1l-1,1h1v1l-1,1h1l-1,1h-1l-2,2v3l-3,3v1l-2,1v1l-1,1h-2v1l-1,-1v1l-1,-1l-1,1h-2l-1,1l-1,-1h-1v-5l-1,-1v-2l-1,-1v-1l-1,-1v-5l-1,-1v-1l-1,-2v-1l-1,-1v-3l1,-1v-3h1v-1l1,-1v-1h-1v-5l-1,-1v-2l-3,-3l-1,-2l1,-1v-5l-1,-1v-1l-1,1h-2l-1,-1v-1l-1,-1h-2l-1,1h-2l-1,1h-6l-1,1l-4,-4h-1l-1,-1v-1l-1,-1v-1h-1v-1l-1,-1v-1h-1v-3h-1l1,-1v-1h1l-1,-1l1,-1v-4l-1,-1v-1h1v-2l1,-1v-1h1v-2h1l1,-2h1l2,-2v-3l3,-3l1,-2v-1h1l1,1h2l1,-1h2l1,-1h4l1,-1h1v1h1l1,-1h1v1l1,-1v1h-1v1h1v2h-1v1h1v1h3l2,2h1l2,2l1,-1v-2l1,-1h2l1,1h1l1,1h2l1,1h1v-1h2l1,1v-1h1l1,1v-2l1,-1v-5h-2l-1,1l-1,-1h-2v1l-1,-1h-2v-1l-1,-1v-2l1,-1h1v-1h2l1,-1h1l2,-1l2,1l1,1h2l1,-1v-2h-1l-2,-2h-1l-1,-1l1,-1l-1,-1h2l-1,-1v1h-2l-1,1v1h1l-1,1h-1v-1h-1l1,-1h-2v-1h-1v1l-1,1v1h-1v4l1,1h-2v1h-1v-1h-2l1,1h-2v1l1,1h-1h1l1,1v1l-1,-1v1h-1l1,1h-2v-2l-1,-1v-1h-1v-3h-1v-1h-1l-1,-1h-1l-1,-1v-1l-1,-1v1v-1h-2v1l2,2v1l1,1h1l1,1h1l1,1v1l-1,-1h-1v1h1v1h-1v1h-1v-1h1l-1,-1v-1h-1l-1,-1h-1l-2,-2l-1,-2h-2v1h-4l-1,1v2h-2v1l-1,2h1l-1,1v1h-1l-1,1h-2l-1,1l-2,-2v1h-2l1,-1v-1h-1v-2l1,-1v-3l-1,-1l2,-1l1,1h5v-4l-1,-1v-1h-2v-1h3v-2l1,1l2,-1v-1h1l1,-1l1,-2l1,-1h2v-5h2l-1,1h1v1l-1,1v1h1v1l1,-1h2v1h1l2,-2l1,1h1v-1h1v-3l1,-1l1,1v-1l-1,-1v-1h4l1,-1h-4l-1,1l-2,-2v-4l2,-1v-1l-1,-1l-2,2l-1,2l-1,1v3h1v2h-1v2l-1,2h-1v1h-1v-2l-1,-1l-1,-2l-1,-1l-1,2h-1l-2,-1v-5l2,-1l3,-3l2,-3l3,-3h2l1,-2h3l2,1l-1,1h2l1,1h3l3,1l1,1v1l-1,1h-1l-3,-1h-1l2,1v2l1,1h1v-1h-1l1,-1l2,1v-1l1,-2h1l1,1v-1l-1,-1v-1l-1,-1l2,1h1l-1,1l1,1h1v-1l1,-1l2,-1h1v1l1,-1h1l1,-1l1,1l1,-1h-2l1,-1h2l1,1l4,1v-1h-2v-1h-1l-1,-1v-3h2l1,1v1h1l1,1l1,2h1v3l1,1v-1h1l-1,-1l1,-1h-1l-2,-2v-1l-2,-1l1,-1l-1,-1h1l1,2l-1,-1l1,-1h2l1,1l-1,-1l-1,-2h4l-2,-1v-1h1l1,-1h3l1,-1h1v-2l2,1h-1ZM253,820l1,1v2h-1v1l1,1h1l1,1h3l-1,-1v-2h-1v-2h1v-1l-1,-1h-1l1,1l-1,-1v-1h-2v-2h-1h1v-2l1,1v-3h-2l-1,1h-1v1h-1l-1,2l2,1v1l1,1Z"/>
<path class="tl" d="M146,770h-1v-1h1l1,1ZM137,769h-2l1,-1h1l1,1ZM220,771l-1,1h-1v-1h-1l2,-1v1ZM139,768h-2l1,-1v1ZM146,769h-1v-1h1l1,1ZM144,769h-1l-1,-1h-1h1v-1h1l1,1ZM268,768l-3,1v-2ZM215,769l3,1h-2v3h-1l-2,-1h1l-1,-1l-2,-1v-1l1,-1l1,1h1v-1h1ZM220,768h1l-1,1h-4l-1,-1h3ZM234,767l-1,1h-1v-1h-1h4ZM264,768h-4l-2,-1l-1,-1h1l1,-1l4,2ZM153,767v1h-1l-2,1h-2v-1h1h-1v-1l1,-1h2v-1h1v1h1ZM167,764h3v1h-3l-1,1h-1l-1,1l-2,1h-3v1h-1v1h-2l-2,1h1l-2,1h-4l-1,-1h2v-1h2v-1h-1h1l1,-1h1l-1,-1h4l-1,-1h-3v-1l1,-1h6v-1h3v1l2,-1l1,1ZM190,764l3,1h-6v1h5l-1,1l2,-1h4v1l-2,1h-1l-2,2v2l1,1h-2l1,1l-1,1v1h-1l1,1h-3l1,1v1l-1,-1l-1,1h1l1,1v1h-2l-1,-1v1l-1,1h3l-4,2h-3l-1,1l-4,2h-1l-2,1h-1v1l-2,2v1l-1,1l-1,2h-1l-1,-1h-1l-1,-1v-2l-1,-1v-1l1,-1l-1,-2l1,-1l1,-2h1l1,-1v-1l-1,1h-1v-1l1,-1h1l-1,-1h-1l1,-1v-4l-1,-1h-5v-1l-1,-1h1l-1,-1l1,-1h2l3,-1h1l-2,-1h1l3,-1h1v-1h9l1,1l-1,-1h1l2,-1h3l2,-1Z"/>
<path class="th" d="M401,891v-1Z"/>
<path class="tg" d="M66,970h1l1,-1h4v-1h5v-1h5v-1h6v-1h6l1,-1h7v-1h8v-1h9l1,-1h11v-1h14v-1h20v-1h79v1h20v1h14v1h11l1,1h9v1h8v1h7l1,1h6v1h6v1h5v1h5v1h4l1,1h1M21,927h6v-1h7v-1h8v-1h10v-1h10v-1h12v-1h14v-1h18v-1h23v-1h38v-1h75v1h38v1h23v1h18v1h14v1h12v1h10v1h10v1h8v1h7v1h6M5,877h399M21,826h4v1h7v1h8v1h9v1h10v1h11v1h14v1h16v1h21v1h32v1h103v-1h32v-1h21v-1h16v-1h14v-1h11v-1h10v-1h9v-1h8v-1h7v-1h4M66,783v1h5v1h4v1h5l1,1h5v1h6l1,1h6l1,1h7v1h10v1h10v1h13l1,1h17v1h36v1h21v-1h36v-1h17l1,-1h13v-1h10v-1h10v-1h7l1,-1h6l1,-1h6v-1h5l1,-1h5v-1h4v-1h5v-1M140,755h-1v1h-3v1h-2v1h-2v1h-2v1h-2v1h-2l-1,1h-1l-1,1h-1l-1,1h-1v1h-2v1h-2v1h-2v1h-1l-1,1h-1v1h-2v1h-1l-1,1h-1v1h-2v1h-1v1h-2v1h-1v1h-2v1h-1v1h-1l-1,1h-1v1h-1v1h-2v1h-1v1h-1v1h-1v1h-2v1h-1v1h-1v1h-1v1h-1v1h-1v1h-1l-1,1h-1v1h-1v1h-1v1h-1v1h-1v1h-1v1h-1v1h-1v1h-1v1l-1,1v1h-1v1h-1v1h-1v1h-1v1h-1v1l-1,1v1h-1v1h-1v1h-1v2h-1v1h-1v2h-1v1h-1v2h-1v1h-1v2h-1v2h-1v1h-1v2h-1v2h-1v2h-1v2h-1v2l-1,1v2h-1v2l-1,1v2h-1v3h-1v4h-1v4h-1v5h-1v9h-1v13l1,1v8h1v5h1v4h1v4h1v3h1v3h1v2h1v3h1v2h1v2h1v2h1v2h1v2h1v2h1v1l1,1v1h1v2h1v1h1v2h1v1h1v1h1v2h1v1h1v1l1,1v1h1v1h1v1h1v1l2,2v1h1v1h1v1h1v1h1v1h1v1h1v1h1v1h1v1h1v1h1v1h1v1h1v1h1v1h2v1h1v1h1v1h1v1h1v1h1l1,1h1v1h1v1h1v1h2v1h1v1h1l1,1h1v1h1v1h2v1h1v1h2v1h1l1,1h1v1h2v1h1v1h2v1h2v1h1l1,1h1v1h2v1h2v1h2v1h2v1h2v1h2v1h2v1h2l1,1h2v1h2v1h2M153,755h-1v1h-2v1h-2v1h-1v1h-2v1h-2v1h-1v1h-2v1h-1v1h-2v1h-1v1h-2v1h-1v1h-1v1h-2v1h-1v1h-1l-1,1h-1v1h-1v1h-1v1h-1v1h-1l-1,1h-1v1h-1v1h-1v1h-1v1h-1v1h-1v1h-1v1h-1v1h-1v1h-1v1h-1v1h-1v1h-1v1h-1v1h-1v1h-1v1h-1v1l-2,2v1h-1v1h-1v1h-1v1l-1,1v1h-1v1h-1v2h-1v1h-1v1l-1,1v1h-1v2h-1v1h-1v2h-1v1h-1v2h-1v2h-1v2h-1v2h-1v2h-1v2h-1v2h-1v3h-1v2h-1v3h-1v3h-1v3h-1v3h-1v4l-1,1v4h-1v6l-1,1v30h1v6h1v5h1v4h1v3h1v3l1,1v2l1,1v2h1v3h1v2h1v2h1v2h1v2l1,1v1h1v2h1v2h1v2h1v2h1v1h1v2h1v1h1v2h1v1h1v2h1v1h1v1h1v2h1v1h1v1h1v1l1,1v1h1v1h1v1h1v1h1v1h1v1h1v1l3,3v1h1l3,3h1v1h1v1h1v1h1v1h1v1h1v1h1v1h1l1,1h1v1h1v1h1v1h1l1,1h1v1h1v1h1l1,1h1v1h1v1h2v1h1v1h2v1h1v1h2v1h2v1h1v1h2v1h1l1,1h1v1h2M166,755h-1v1h-1v1h-1l-1,1h-1v1h-1v1h-1v1h-1v1h-1v1h-1l-2,2h-1v1h-1v1h-1v1h-1v1h-1v1h-1v1h-1v1h-1v1h-1v1l-2,2v1h-1v1h-1v1h-1v1h-1v1l-1,1v1h-1v1h-1v1h-1v2h-1v1h-1v1l-1,1v1h-1v1h-1v2h-1v1h-1v2h-1v2h-1v1h-1v2h-1v2h-1v2h-1v1l-1,1v1l-1,1v1l-1,1v2h-1v2h-1v2h-1v3h-1v2h-1v3h-1v3h-1v3h-1v3h-1v4h-1v4h-1v5h-1v6h-1v8h-1v30h1v7l1,1v5h1v5h1v4h1v4h1v3h1v3h1v3h1v3h1v3h1v2h1v2h1v2l1,1v2h1v2h1v2h1v2h1v1h1v2h1v2h1v2h1v1h1v2h1v1h1v2h1v1l1,1v1h1v1h1v2h1v1h1v1h1v1l1,1v1h1v1h1v1h1v1l1,1v1h1v1h1v1h1v1h1v1h1v1h1v1h1v1h1v1h1v1h1v1h1v1h1v1h1v1h1v1h1l2,2h1v1h1v1h1v1h1v1h2v1h1"/>
<path class="tg" d="M179,755h-1v1h-1v2h-1v1h-1v1h-1v1h-1v2h-1v1h-1v1l-1,1v1h-1v1l-1,1v1h-1v1l-1,1v1h-1v2h-1v1l-1,1v1h-1v2h-1v2h-1v2h-1v2h-1v2h-1v2h-1v2h-1v2h-1v2l-1,1v2h-1v2l-1,1v2h-1v3h-1v3h-1v3h-1v3h-1v4h-1v4h-1v4h-1v4h-1v5l-1,1v5h-1v8h-1v11h-1v29l1,1v10l1,1v7h1v6h1v5h1v4l1,1v4h1v3l1,1v3h1v3h1v3h1v3h1v3h1v3h1v2h1v3h1v2h1v2h1v2l1,1v2h1v2h1v1l1,1v1l1,1v1h1v2h1v2h1v1l1,1v1h1v2h1v1h1v2h1v1h1v2h1v1h1v1l1,1v1h1v1h1v1h1v2h1v1h1v1h1M192,755h-1v3h-1v2h-1v3h-1v3h-1v3h-1v3h-1v3h-1v3l-1,1v3h-1v4h-1v4h-1v4l-1,1v4h-1v5h-1v6h-1v6l-1,1v7h-1v8h-1v11l-1,1v18h-1v29l1,1v18h1v11h1v8l1,1v7h1v6h1v6h1v5h1v5h1v4h1v4h1v4h1v4h1v3h1v3l1,1v3h1v2l1,1v2h1v3h1v3h1v2h1M205,755v243M217,755h1v3h1v2h1v3h1v3h1v3h1v3h1v3h1v3l1,1v3h1v4h1v4h1v4l1,1v4h1v5h1v6h1v6l1,1v7h1v8h1v11l1,1v18h1v29l-1,1v18h-1v11h-1v8l-1,1v7h-1v6h-1v6h-1v5h-1v5h-1v4h-1v4h-1v4h-1v4h-1v3h-1v3l-1,1v3h-1v2l-1,1v2h-1v3h-1v3h-1v2h-1M230,755h1v1h1v2h1v1h1v1h1v1h1v2h1v1h1v1l1,1v1h1v1l1,1v1h1v1l1,1v1h1v2h1v1l1,1v1h1v2h1v2h1v2h1v2h1v2h1v2h1v2h1v2h1v2l1,1v2h1v2l1,1v2h1v3h1v3h1v3h1v3h1v4h1v4h1v4h1v4h1v5l1,1v5h1v8h1v11h1v29l-1,1v10l-1,1v7h-1v6h-1v5h-1v4l-1,1v4h-1v3l-1,1v3h-1v3h-1v3h-1v3h-1v3h-1v3h-1v2h-1v3h-1v2h-1v2h-1v2l-1,1v2h-1v2h-1v1l-1,1v1l-1,1v1h-1v2h-1v2h-1v1l-1,1v1h-1v2h-1v1h-1v2h-1v1h-1v2h-1v1h-1v1l-1,1v1h-1v1h-1v1h-1v2h-1v1h-1v1h-1M243,755h1v1h1v1h1l1,1h1v1h1v1h1v1h1v1h1v1h1l2,2h1v1h1v1h1v1h1v1h1v1h1v1h1v1h1v1h1v1l2,2v1h1v1h1v1h1v1h1v1l1,1v1h1v1h1v1h1v2h1v1h1v1l1,1v1h1v1h1v2h1v1h1v2h1v2h1v1h1v2h1v2h1v2h1v1l1,1v1l1,1v1l1,1v2h1v2h1v2h1v3h1v2h1v3h1v3h1v3h1v3h1v4h1v4h1v5h1v6h1v8h1v30h-1v7l-1,1v5h-1v5h-1v4h-1v4h-1v3h-1v3h-1v3h-1v3h-1v3h-1v2h-1v2h-1v2l-1,1v2h-1v2h-1v2h-1v2h-1v1h-1v2h-1v2h-1v2h-1v1h-1v2h-1v1h-1v2h-1v1l-1,1v1h-1v1h-1v2h-1v1h-1v1h-1v1l-1,1v1h-1v1h-1v1h-1v1l-1,1v1h-1v1h-1v1h-1v1h-1v1h-1v1h-1v1h-1v1h-1v1h-1v1h-1v1h-1v1h-1v1h-1v1h-1v1h-1l-2,2h-1v1h-1v1h-1v1h-1v1h-2v1h-1M256,755h1v1h2v1h2v1h1v1h2v1h2v1h1v1h2v1h1v1h2v1h1v1h2v1h1v1h1v1h2v1h1v1h1l1,1h1v1h1v1h1v1h1v1h1l1,1h1v1h1v1h1v1h1v1h1v1h1v1h1v1h1v1h1v1h1v1h1v1h1v1h1v1h1v1h1v1h1v1h1v1l2,2v1h1v1h1v1h1v1l1,1v1h1v1h1v2h1v1h1v1l1,1v1h1v2h1v1h1v2h1v1h1v2h1v2h1v2h1v2h1v2h1v2h1v2h1v3h1v2h1v3h1v3h1v3h1v3h1v4l1,1v4h1v6l1,1v14l1,1h-1v15h-1v6h-1v5h-1v4h-1v3h-1v3l-1,1v2l-1,1v2h-1v3h-1v2h-1v2h-1v2h-1v2l-1,1v1h-1v2h-1v2h-1v2h-1v2h-1v1h-1v2h-1v1h-1v2h-1v1h-1v2h-1v1h-1v1h-1v2h-1v1h-1v1h-1v1l-1,1v1h-1v1h-1v1h-1v1h-1v1h-1v1h-1v1l-3,3v1h-1l-3,3h-1v1h-1v1h-1v1h-1v1h-1v1h-1v1h-1v1h-1l-1,1h-1v1h-1v1h-1v1h-1l-1,1h-1v1h-1v1h-1l-1,1h-1v1h-1v1h-2v1h-1v1h-2v1h-1v1h-2v1h-2v1h-1v1h-2v1h-1l-1,1h-1v1h-2"/>
<path class="tg" d="M269,755h1v1h3v1h2v1h2v1h2v1h2v1h2l1,1h1l1,1h1l1,1h1v1h2v1h2v1h2v1h1l1,1h1v1h2v1h1l1,1h1v1h2v1h1v1h2v1h1v1h2v1h1v1h1l1,1h1v1h1v1h2v1h1v1h1v1h1v1h2v1h1v1h1v1h1v1h1v1h1v1h1l1,1h1v1h1v1h1v1h1v1h1v1h1v1h1v1h1v1h1v1l1,1v1h1v1h1v1h1v1h1v1h1v1l1,1v1h1v1h1v1h1v2h1v1h1v2h1v1h1v2h1v1h1v2h1v2h1v1h1v2h1v2h1v2h1v2h1v2l1,1v2h1v2l1,1v2h1v3h1v4h1v4h1v5h1v9h1v13l-1,1v8h-1v5h-1v4h-1v4h-1v3h-1v3h-1v2h-1v3h-1v2h-1v2h-1v2h-1v2h-1v2h-1v2h-1v1l-1,1v1h-1v2h-1v1h-1v2h-1v1h-1v1h-1v2h-1v1h-1v1l-1,1v1h-1v1h-1v1h-1v1l-2,2v1h-1v1h-1v1h-1v1h-1v1h-1v1h-1v1h-1v1h-1v1h-1v1h-1v1h-1v1h-1v1h-1v1h-2v1h-1v1h-1v1h-1v1h-1v1h-1l-1,1h-1v1h-1v1h-1v1h-2v1h-1v1h-1l-1,1h-1v1h-1v1h-2v1h-1v1h-2v1h-1l-1,1h-1v1h-2v1h-1v1h-2v1h-2v1h-1l-1,1h-1v1h-2v1h-2v1h-2v1h-2v1h-2v1h-2v1h-2v1h-2l-1,1h-2v1h-2v1h-2"/>
<rect x="388" y="875" width="24" height="28" fill-opacity="0" stroke="#ffffff" stroke-opacity="0.5" stroke-width="5.0"/>
<rect x="390" y="877" width="24" height="28" fill-opacity="0" stroke="#113311" stroke-opacity="0.8" stroke-width="5.0"/>
<rect x="389" y="876" width="24" height="28" fill-opacity="0" stroke="#45a249" stroke-opacity="0.9" stroke-width="5.0"/>
<rect x="691" y="691" width="309" height="309" fill="#ffffff" fill-opacity="1.0"/>
<rect x="694" y="694" width="302" height="302" fill="#000000" fill-opacity="1.0"/>
<rect x="700" y="700" width="300" height="300" fill="#70add3" fill-opacity="1.0"/>
<rect class="zh" x="901.5" y="891.5" width="1" height="1"/>
<rect class="zh" x="865.5" y="871.5" width="1" height="1"/>
<rect class="zh" x="812.5" y="834.5" width="1" height="1"/>
<rect class="zh" x="776.5" y="795.5" width="1" height="1"/>
<rect class="zh" x="820.5" y="787.5" width="1" height="1"/>
<rect class="zh" x="768.5" y="769.5" width="1" height="1"/>
<rect class="zh" x="930.5" y="930.5" width="1" height="1"/>
<rect class="zh" x="929.5" y="928.5" width="1" height="1"/>
<rect class="zh" x="878.5" y="846.5" width="1" height="1"/>
</svg>
