<?xml version="1.0" encoding="UTF-8" standalone="no"?>
<svg xmlns:svg="http://www.w3.org/2000/svg" xmlns="http://www.w3.org/2000/svg" xmlns:xlink="http://www.w3.org/1999/xlink" height="1000" width="1000">
<!-- made with pythonshp (GPL): github.com/sanjayrao77/pythonshp , underlying data may come from naturalearthdata.com -->
<!-- 
COPYRIGHT: THIS SVG FILE IS RELEASED INTO THE PUBLIC DOMAIN
 -->
<!-- 
vars : {
	'cmdline' : 'pythonshp.py publicdomain wiki1 uruguay locatormap'
	'title' : 'Uruguay locator'
	'version' : '1.0.5'
}
 -->
<defs>
	<radialGradient id="watergradient" cx="500" cy="500" r="500" fx="500" fy="500" gradientUnits="userSpaceOnUse">
		<stop offset="0%" stop-color="#70add3"/>
		<stop offset="11%" stop-color="#6eaad0"/>
		<stop offset="22%" stop-color="#6ca7cc"/>
		<stop offset="31%" stop-color="#6ba5c9"/>
		<stop offset="41%" stop-color="#69a2c6"/>
		<stop offset="51%" stop-color="#679fc2"/>
		<stop offset="59%" stop-color="#669dbf"/>
		<stop offset="67%" stop-color="#649abc"/>
		<stop offset="75%" stop-color="#6297b9"/>
		<stop offset="81%" stop-color="#6095b6"/>
		<stop offset="87%" stop-color="#5f92b2"/>
		<stop offset="92%" stop-color="#5d8faf"/>
		<stop offset="95%" stop-color="#5b8dac"/>
		<stop offset="98%" stop-color="#598aa8"/>
		<stop offset="100%" stop-color="#5685a2"/>
	</radialGradient>
	<radialGradient id="landgradient" cx="500" cy="500" r="500" fx="500" fy="500" gradientUnits="userSpaceOnUse">
		<stop offset="0%" stop-color="#dddddd"/>
		<stop offset="11%" stop-color="#d7d7d7"/>
		<stop offset="22%" stop-color="#d1d1d1"/>
		<stop offset="31%" stop-color="#cccccc"/>
		<stop offset="41%" stop-color="#c6c6c6"/>
		<stop offset="51%" stop-color="#c0c0c0"/>
		<stop offset="59%" stop-color="#bbbbbb"/>
		<stop offset="67%" stop-color="#b5b5b5"/>
		<stop offset="75%" stop-color="#afafaf"/>
		<stop offset="81%" stop-color="#aaaaaa"/>
		<stop offset="87%" stop-color="#a4a4a4"/>
		<stop offset="92%" stop-color="#9e9e9e"/>
		<stop offset="95%" stop-color="#999999"/>
		<stop offset="98%" stop-color="#939393"/>
		<stop offset="100%" stop-color="#888888"/>
	</radialGradient>
	<radialGradient id="bordergradient" cx="500" cy="500" r="500" fx="500" fy="500" gradientUnits="userSpaceOnUse">
		<stop offset="0%" stop-color="#444444"/>
		<stop offset="11%" stop-color="#3f3f3f"/>
		<stop offset="22%" stop-color="#3a3a3a"/>
		<stop offset="31%" stop-color="#363636"/>
		<stop offset="41%" stop-color="#323232"/>
		<stop offset="51%" stop-color="#2d2d2d"/>
		<stop offset="59%" stop-color="#292929"/>
		<stop offset="67%" stop-color="#242424"/>
		<stop offset="75%" stop-color="#1f1f1f"/>
		<stop offset="81%" stop-color="#1b1b1b"/>
		<stop offset="87%" stop-color="#161616"/>
		<stop offset="92%" stop-color="#121212"/>
		<stop offset="95%" stop-color="#0e0e0e"/>
		<stop offset="98%" stop-color="#090909"/>
		<stop offset="100%" stop-color="#000000"/>
	</radialGradient>
</defs>
<style type="text/css">
<![CDATA[
.fs {font:14px sans;stroke:#ffffff;stroke-width:2px;stroke-opacity:0.8;text-anchor:middle}
.ft {font:14px sans;fill:#000000;fill-opacity:1;stroke-opacity:0;text-anchor:middle}
.sb {stroke:url(#bordergradient);fill-opacity:0}
.sg {stroke:#000000;fill-opacity:0.0;stroke-opacity:0.2}
.sh {fill:#45a211;stroke:#000000}
.si {stroke:#000000;fill-opacity:0;stroke-opacity:0.3}
.sl {fill:url(#landgradient);stroke:url(#bordergradient)}
.sp {stroke:url(#landgradient);fill-opacity:0}
.sr {stroke:url(#watergradient);fill-opacity:0}
.sw {fill:url(#watergradient);stroke:url(#watergradient);stroke-opacity:0.8}
.tb {fill:#eeeeee;stroke:black;stroke-width:2}
.tg {stroke:black;stroke-opacity:0.2;fill-opacity:0}
.th {fill:#45a211;stroke:#378100}
.tl {fill:#aaaaaa;stroke:black}
]]>
</style>
<circle cx="500.0" cy="500.0" r="500.0" fill="url(#watergradient)"/>
<path class="sl" d="M875,170l-1,-2l-5,-5v-1h-1v-1v1v-1l-2,-2h-1l-1,-1v-1l2,2v1l1,1h1l1,1v1l2,2h1v1l2,2v1h1l1,1ZM765,76l1,1h1l1,1h1l2,2h1l3,3h1l2,2h1l2,2h1l1,1h1l2,2h1l2,2h1l4,4h1l3,3h1l3,3h1l2,2h1l1,1v1h1l2,2h1l4,4h1l1,1v1h1l3,3h1l2,2v1h1l3,3h1l2,2v1h1l4,4h1v1l1,1h1l12,12h1v1l4,4v-1h-1l-10,-10h-1v-1h-1v-1h-1l-4,-4h1v1v-1h-1l-6,-6h-1v-1h-1h1v1l1,1h1h-1l-2,-2v-1l-4,-2v-1v1v-1h-1l3,3h1v1v-1v1l2,2l2,1v1l2,1h1l3,3l1,2l2,1l4,4l3,2l1,2l2,1v1l1,1h1v1h1v1l5,5h1l1,2l2,2h1l1,2l2,2h1v1l-4,-4v-1h-1v-1h-1h1v1l5,5v1l2,1l1,1h-1l3,3v1h1h-1l-1,-1v-1h-1v-1l-3,-3v-1l-2,-1l-2,-2l-1,-2l-1,-1h-1v-1l-2,-1v-1l-1,-1h-1v-1h-1v-1v1v-1h-1v-1h-1v-1l-2,-1l-1,-1v-1h-1l-2,-2h-1l-5,-5l-1,-2h-1l-1,-1h-1v-1l-2,-1v-1h-1v-1h-1l-1,-1v-1l-2,-2l-3,-2l-2,-2l-3,-2l-1,-1h-1l1,1v1l-1,-1v2h1h-1l-1,-1h-1l-2,-2h-1v-1h-1l-1,-1h-1l-1,-1v2h1l1,2l1,1h1v1h1v1l1,1l-1,1h-2l-1,1h1l1,1h-1l1,1v2l1,1v1l3,3h1l1,1v1h-1v1h1v2h1v1h1v1h-1v-1h-2v1l1,1v1h-1l-1,-1h-3v-1h-3l-2,-1v1l-1,-1h-1v2h-1l-1,-1h-1l-1,-2h-1v-1h-1v-1h-1v-1l-1,-1l-3,-2h-4l-1,-1h-2l-1,-1h-1v1v-1l-1,-2v-1h-1l-1,-1v-1l-2,-2h1h-1v-1h-2l-1,-1h1v-1l-1,-1h1h-1v1l1,1h-1l-2,-2v-1l-1,-1v-2l-1,-1v-1l-1,-2l-2,-2v-1h-1l-2,-2v-1h-1v-1l-1,-1v-1h-1v-1h-2v-1l-1,-1h-1v-1h-1v-1h2l1,-1h1v1h1l1,1h2l1,1h3l2,2h2l2,1l1,1h3v1l2,1h2l1,1h2l-2,-2l-2,-3l-1,-1v1h1l-4,-4h1l1,1l-1,-1l-2,-1l-1,-1l1,1l-3,-3h-1v-1l-3,-1l-2,-2h-1v-1h-1v-1h-1h1l1,1l-1,-1h-2v-1h-1l-1,-1h-1v-1h-2v-1h-1l-2,-1h-1l-1,-1h-1l-1,-1h1h-1l-1,-1h1v1v-1h-2v-1h-1h3v1l1,-1v1h1l2,1l1,1v-1l1,1h1l1,1h1l-1,-1h-1l-3,-3h-1l-1,-1h-1h2l1,1h1v1h2l2,2v-1l1,1v-1h-2v-1h1v-1l-3,-1v-1h2v1h2v1h1l-1,-1h-1l-1,-1h-1v-1v1h1l2,1h-1v-1h-1h1h-1l-1,-1h-1v-1h-1v-1l-2,-1l-1,-1l1,1l-1,-1h1v1h2v1h1h-1v-1h-1h1l1,1h1v1h1h-1v-1v1h1l-1,-1h-1h1l1,1l2,1l-3,-1v-1h-1v-1l-2,-1h-1l-1,-1h-1l-1,-1h-1h2v1h1l2,2Z"/>
<path class="sp" d="M864,157l2,2v1l1,1h1l1,1v1l2,2h1v1l2,2v1h1l1,1M765,76l1,1h1l1,1h1l2,2h1l3,3h1l2,2h1l2,2h1l1,1h1l2,2h1l2,2h1l4,4h1l3,3h1l3,3h1l2,2h1l1,1v1h1l2,2h1l4,4h1l1,1v1h1l3,3h1l2,2v1h1l3,3h1l2,2v1h1l4,4h1v1l1,1h1l12,12h1v1l5,5M762,74l2,2"/>
<path class="sl" d="M401,10h-1ZM369,18v-1h3l1,-1v1v-1h1h-1h3l1,-1h1h-1h1h-1v1h-3l-1,1v-1v1h-1h1l1,-1h3l1,-1h3v-1h3l1,-1h4v-1h1h-1v1h-1h1l1,-1h-1h4l1,-1h4l1,-1l-1,1h-1l1,-1h1l-1,1v-1h1h-1v1h-1h1h-1h2v-1h1v1h-1h3v-1h4l2,-1h3v-1h4v-1h6l1,-1l-1,1h1l1,-1v1h-5v1h-1h1h-1h1h-1l-1,1h-4v1h-5v1v-1h-3v1l1,-1h1v1h-6v1h-2l-5,1l-1,1h-7v1h-1h4l1,-1h2l-1,1l-6,1l-2,1h-3l-1,1v-1l-1,1h-1l-1,1h-6v1h-1h1h-1h3v-1v1h-2v1h-4l-1,1h-2l-1,1h-1h1h-2l-1,1h-2v1h-2l-1,1h-2l-1,1h-2l-1,1h-1l-1,1h-1l-1,1h-1l-2,1l-1,1h-1v1l-2,1h1l1,-1h1l1,-1h2v1h-1v1h-1l-2,2h-2v1l1,-1h2l5,-1v-1h8v1h7l1,1l-1,1l1,-1h3l1,-1h8l-2,2h-1v2h-1v1h-1v1h-1v1h1v1h-1l-1,1h1v-1h1v1h3v2h-2l-1,1l1,-1h5v1h1h-1v-2h2v-1h2v1h1v-1h1l-1,-1h1l1,-1h1l1,-1v-2l1,-1v-1h1v-1h-1h1h-1v-2l4,-1h2l1,-1h3v-1h1l2,-1h2l1,-1h2v-1h1v-1h1v-1h1v-2h-1l-1,-1h-2v-1h2l1,-1h2v-1h3v-1h-1h1v-1h1h-1h1h-2l2,-1h1v-1h1v-1h1l1,-1h12l1,-1h6l-1,1h1v-1h1v1h1h-1h7v1h1v-1h2v1h-3v1h1h-2l-3,1h1l2,-1l1,1h-1v1h1h-1v1h-1h3l1,-1l1,1h1l-1,1h-2l-1,1h-1h3v-1h2v-1h1v1h-1h1v-1h1v1h-1h2l1,-1h3l1,-1h2v1h-1h1v-1h2v-1h1h-1h1v-1h1l1,1v-1h-1h1v-1h2v-1h1v1h1h-1h1v1v-1h1v1h1h-1h1l-1,1h1v-1h1v1h-1h2l1,1h-3v1l1,-1h1h-1h3l-1,1h-1h5v1h-3v1h3l2,1h-4v1h1h-1h1v1h5v1h2l-1,1h-1v1l1,-1h4l-1,1l2,-1h2v1h6l1,1h1h-4v1h-4l-1,1h-5v1h-1h1h-1l-1,1h1h-1h1l1,-1h4l1,-1h2l2,-1h1h-1h5l1,1h-2v1h1l2,-1h3v1h3v1h-1l1,1h-1h1v1h-1h1h-1l1,1h1h-1l-1,1h-2l-1,1h-7v1h-5l-2,1l-1,1h-1l-1,1h-2l-1,1h-29l-2,1h-5l-1,1h-1l-2,2h-1l-1,1h-4l-1,1h-2l-4,2l-1,1h-1l-1,1h-1l-1,-1h-2l1,1h2v1h-2l-2,2h-1l-2,1l-1,1h-1l-1,1h-4l-1,1h-2l-2,1l-1,1h-2l-1,1h-1l-1,1h-2v1h-3v1h1h-1l-1,1l-3,1h4l3,-1h7l3,-1h2l1,-1h4v-1h1l1,-1h1v-1h1v-1l1,-1h1v-1h1l2,-2l2,-1h1v-1h1v1h3l1,-1h1l1,1h1v1l-1,1v3h-1v1h2v2h2v1h-1h1l-1,1h-3v1h-1v-1v1h-5v1h-2l1,-1h-1v1h-1v1h-1l-1,1h-3v1h-4l1,1h-1l-2,1l-2,2v1h1h-1v1h-1l-1,1h1l1,1v1h3v-1h-1h2v1h-1l-2,1h-4l-1,1h-1l1,-1h-2v1l-1,1h-5l-1,1h-5l-2,1l-1,1h-1l-1,1v-1l1,-1v-1v2h-1l-1,1h-1v1h1v1l-1,1v1l-1,1v-1h1h-1v1l-1,1h-1v1h-2v1l-2,1h-1h1v-1h-3v-2l1,-1h2v-1v1h-2v1h-2v1l1,1v2h1v1h-1h1v1h-1h1h-1v1h-1v1h-1l-2,3h-1l-2,2h-1l4,-4h-1v-2h-1v1v-1h-1v-1h2l-1,-1h-1v1v-1h1v-1h-1h1l1,-1l-1,1l1,-1v-1h1l1,-1h-1v1h-2v1h-1v1h-1v3h-1v-1v1l1,1v1h-1v-1h-2v-1v1h-1v-1l-1,1v-1l1,-1h1v-1v1h-1l-2,2h2v1h3l1,1l-1,1h-1l-1,-1h-1v-1h-1h1v1h1v1h2v1h-1v1h-1l-1,-1l1,1h1v1h-2v-1v1l-2,-1h-1h1v1h2l1,1h3v3l1,2l-1,-1v-3h-1v1l1,1v1h-1v-1h-1l-1,1h-2v1h-1v-1l-1,1h5l-1,1h1v-1h1v1l-1,1l-2,1h-5l2,1v1h-1l-1,1l-1,-1v1h1l2,-1l1,1h-1v1h-5l-1,1h-1v1h-1l-1,1h-1l-1,1v1v-1l-1,1v1h-4l-2,1l-1,1l-2,1v1v-1l-1,1v1l-1,1h-1l-1,1h-1v1h-1l-1,1h-2v1h-1l-1,1h-1l-1,-1v1h1v1h-1l-2,2h-1v1h-1v2h-2v1h1h-1l-1,1v1l-1,1l1,1l-1,2v3l1,2v2l2,3v1h-1v1v-1l1,-1h-1v1v-2h-1v2l1,1l1,7h1v2l-1,1l-2,5v1l-2,2v1h-2l-1,1h-2l-1,1v-2h1v1h1v-1h-1l-1,-1v-2h-2l-1,-1v-3l1,-1h-1v1h-1v-2l1,-1h-1v1h-1l-1,-1v-2h-1v-1h1l1,-1h1v-1h-1l-1,-1v1h1l-1,1h-1l2,-5l1,-2v-1l-3,-2l-2,-3h-4v1h-2l-2,1l-1,1h-2v-1h-1l-1,-1h1v-1h-1v1h-1l-1,-1h-1h1l-1,-1v1h-2l-2,1h-1h1v-1h-1l-1,1h-1l-1,1h1v-1l-1,1h-1l-2,1l1,-1v-2h-1v1l-1,1h-1l-2,1h-3l-1,1l-2,1h-5l-1,1l1,1l2,-1h1l1,-1v1h-1v1h1v-1h1v1h-1v1h-1v1h-1h1v1h2v1h1h-1v1h-2v-1h-2v-1h-1v1h-1v1l-1,1v-1h-2l-1,1h-3v-1h1h-1v-1h1h-2l-1,-1v1l-1,-1h-1v2h-2l-2,1l-1,-1h-3l-2,1h-1l1,-1l-1,1v1h-1l-4,2l-1,1v-1l2,-1h-1l-1,1l1,-1v-1h-1v1h-1v2l-4,4l-2,1h-1l-1,1h-1l-1,1h1l1,-1h-3v1h-1v-1v2h1h-1v1h-2v1h-1l-1,1h-1h1v1l-1,1h-2l1,1l-2,2v1h-2v-1v1h1v2h-1v3l-1,1l1,2l-1,2l-1,1l-2,3l-1,1l-3,8l-1,1l-2,6l-1,1v2l-1,2v1l1,2v1h1l-1,1v1h-1l1,-1v-1l-1,-1v4l1,2v2l2,2v4l1,1v2h1v1l1,1h-1h6l1,1l1,2v-1h2l2,-1l2,-2h3l2,-1l1,-1l4,-2h2v1h-1h3l1,-1h1v-2h-1l2,-2h1l1,-1l2,-1l1,-3v-1l2,-2v-3l1,-1v-1l1,-2l1,-1l10,-3l2,-2h3v-1h5l1,-1h2v1h1v2l-1,1v1l-6,6v2l-2,2h2l-1,1h-1v1h1l-2,4l-1,1v1l-1,1v1l-1,-1v-2h-1v1l-1,1v1h1v1l-1,2v1l-1,1v2h-1v3l-2,4l-2,2l-1,2h-1v1h3v-1h-1l3,1h1v-1h1l2,-1h1v1l1,-1h4l2,-1h1l2,-1h1v-1h2l2,1l2,-1l1,-1h1l2,1h3l3,2h-3v1h1v-1l2,2v-1h1l-1,-1h1l2,1v1l1,1h-1v1h-1v1h1v3l-1,1v1l-1,1l-2,5v7h-1v-1h-1v2h1h-1v2h-1v2h1v1l-1,1v1h-1v2l2,2v1l1,2v1l2,2h1l1,2l1,1h1l1,1v2h1v-1v2h3v-1h1l1,2h3l1,-1l2,-1l1,-1h1l5,-3h1l1,-1v-1h9l4,1l2,1l3,3l-1,1l1,1v1l1,1v2h-1v2l-2,1l-1,-1h-1l1,1l-1,1l-1,2l-2,-2l-1,-3l-1,-1h1v-1h1v-2h1v1h2l1,1l-2,-2h-1v-1l-1,1v-1h-1v1h-1v-2h-1l-1,-1h-1v-1h-4l-2,2h-1v2l-3,2h-1l-1,1h-1v2h1l2,2v1l1,1h-1l-2,1l-1,1l-2,1h-1l-1,-1v-3l-1,-1h-1v2h-1l-1,-1l-1,-2l-1,-1h-8v2h-1v-1h-1v-3h-2v1h1l-1,1h-2l-1,-1l1,-1v-3l-2,-1l-1,-1h-1l-2,-1h-1v-2l-3,-2h-1v1l2,1v1l-1,1v1h-1v-1l-1,-1h-2l-1,-1v-1l-1,-1l2,-2v-2h-1v-1l1,-1l-7,-7v-1l-2,-1v-1l-2,-1l-1,-1v-1h2v-1l-1,-1v-1h-2v1l-1,1h-1l-1,1l-2,-1h-1l1,1h-3l-2,-1h-4l-1,-1h-1l-2,-1l-5,1l-1,-1h-2l-1,-1l-3,-2l-3,-3v-1h-1l-5,-5h-2v-1h-1v1h2l1,1l-3,-1h-2l1,-1l-1,1v-1h-1l-1,1h2v1h-3l-2,2l-2,1l-3,3h-4l-2,-1l-4,1l-2,-1h-2l-1,-2h-5l-2,-1h-4l-1,-1h-1l-2,-2v-1h-9v-1l-1,-1v-1l-1,-1h-2l-1,-1h-1v-2h-1v-6h1l1,-1v-1h-1h1v-1l2,-2v-2l1,-1h-1v-1l-1,-1l1,-3v-3l-1,-1v-2l-1,-1v-2l-3,-2h2v-1h-2v-3h1h-1l-1,-1h-1l1,-1h-1l-1,1v-1h1l1,-1h-1v1h-2l1,-2l2,-2v-1v1v-3l-1,1v-3l-1,1v-1h-1v-1l2,-2v-1h-1l-1,1v-3h-1v-3l1,-1h-1v-1l1,-1v-3l1,-1v-3l2,-2v1v-1h-2l1,-1l-1,-1v1h-1v1v-1h-1v-1l-1,1v1l-1,1l-1,2v1l-1,1v1l-1,1l-1,2v3l1,1l-1,1v1h1l-1,1h1l-1,1v1h1l-1,1v1l-1,1l1,1v2l-1,1h1v2l-1,1h1v-2l1,1l-1,1v3l-1,1v7l-1,1l-1,2h1v1l1,-1v-1l1,1v3h1v1h-1v2h-1v1l-1,1h-1v1h-1v-1l1,-2v-2h-1v-1h-1v-1l-2,-2v-2l1,-3l1,-1v-4l-1,-2v-1l1,-1l-3,3v-2h-2v-1h1v-1h-1v-1l1,-1h1l1,-1v1v-1h1v-1l-1,1v-1h1l1,-2l1,-1v-5h-1v-1h-1l1,-1v-1l1,-2v-1l1,-1v-2l1,-1v-2h1v-3l1,-1v-1h1v-1l-1,1l1,-1v-1l1,-1v-3h-1v1v-1l1,-1h-1v1h-1v-1h-2v1h-1l1,-1v-1l2,-2v-2l2,-2v-2h1v-1l2,-2h-1v-1h1l1,-1v-1l1,-1v1l1,-1v-1h1v-1l1,-1h1h-1l-3,3v-1v1v-1l1,-1v1v-1l1,-1v-1l1,-2l2,-2h1l1,-1v-1l1,-1v-1l1,-1h1v-1h1h-1h1v-1l4,-4h1v-1l6,-6v-1l2,-2h1l4,-4l2,-1v-1h1l1,-1v-1l4,-3v-1h1l3,-3h1v-1v1v-1h1v-1v1h-1h1v-1h1h-1h1l1,-1v-1l1,-1v1v-1v1v-1h1l3,-3h1l2,-2l2,-1v-1v1v-1h1h-1v1l-2,1h1l-2,1l-1,1h-1h1l2,-2h1v-1h1h-1v1h-1v1h-1l-1,1h-1v1h-1h1l1,-1h1v-1l1,-1h1v-1h1l1,-1h1v-1l-1,1h1v-1h1v-1h1l1,-1v-1h1h-1h1v-1h2v-1v1h-1l1,-1h1v-1l-1,1l2,-1v-1h1h-1v1h-1v1h-1l-1,1l2,-2h1v-1h1l2,-2h1l3,-3h1l2,-2h1l3,-3h1l2,-2h1l2,-2h1l2,-2h1l1,-1h1l2,-2h1l2,-2h1l2,-2h1l1,-1h1l3,-3h2l3,-3h2l2,-2h1l1,-1h1l1,-1h1l2,-2h1l1,-1h1l1,-1h1l1,-1h1l2,-2h2l2,-2h1l1,-1h1l1,-1h2l1,-1h1l2,-2h2l2,-2h2l1,-1h1l1,-1h1l1,-1h1l1,-1h2l2,-2h2l1,-1h1l1,-1h2l1,-1h1l1,-1h1l1,-1h2l1,-1h1l1,-1h2l1,-1h1l1,-1h2l1,-1h2l1,-1h1l1,-1h2l1,-1h2l1,-1h2l1,-1h2l1,-1h2l1,-1h2l1,-1h2l1,-1h2l1,-1h3l1,-1h2l1,-1h2l1,-1h3l1,-1h2Z"/>
<path class="sp" d="M400,10h1M374,16h1M377,15v0M391,12h2l1,-1h4l1,-1M204,97l1,-1h1l3,-3h1l2,-2h1l3,-3h1l2,-2h1l2,-2h1l2,-2h1l1,-1h1l2,-2h1l2,-2h1l2,-2h1l1,-1h1l3,-3h2l3,-3h2l2,-2h1l1,-1h1l1,-1h1l2,-2h1l1,-1h1l1,-1h1l1,-1h1l2,-2h2l2,-2h1l1,-1h1l1,-1h2l1,-1h1l2,-2h2l2,-2h2l1,-1h1l1,-1h1l1,-1h1l1,-1h2l2,-2h2l1,-1h1l1,-1h2l1,-1h1l1,-1h1l1,-1h2l1,-1h1l1,-1h2l1,-1h1l1,-1h2l1,-1h2l1,-1h1l1,-1h2l1,-1h2l1,-1h2l1,-1h2l1,-1h2l1,-1h2l1,-1h2l1,-1h2l1,-1h3l1,-1h2l1,-1h2l1,-1h3l1,-1h2"/>
<path class="sl" d="M536,327l1,-2h2l1,1l1,4v3l1,2l1,3v2l1,1v2h1v1h1v1l2,1h2l1,1v4l-3,3h-1l-1,1l-2,4h-2l-1,2h-2v1l-1,2l-1,1l-1,2h-1v2l-2,2v1h-2l-3,1h2l1,1h2l3,-2h1l2,-1l2,-2h1l1,-1v1l-1,1h1v3l1,1v1l3,3l1,-1h1v-1h2l2,1l1,-1l2,-1l-1,2v3l-1,2v1h-1h1l1,-1v-1l2,-4h1l3,-3h2l1,1v-1h1l-2,-2l2,-2v-1l1,-1h1v-1l1,1l1,-1h2l1,1h1v-1h-1h3v1h3v1h1l1,1h1l1,1h2l1,1l2,1h2l1,1v1l1,2v-1l1,-1h1l2,2h1l-1,1h1v-1l1,1v3h-1l-1,1h1v1l1,-2h1l1,1v1h-1l-1,1v1l-1,1v4l2,-2l1,-2v-2h2v1l-1,1l2,-1h1l1,-1h3v-1h2l2,1l1,1h1l1,1l5,2l1,-1l1,1h1l1,1h5l4,-1l2,1h2l2,2h1l2,2l3,2l1,1l2,1l7,7l1,2l3,1l1,2h2v1h1l2,1h5l3,1h1v1l2,3v3l1,2v2l1,4v10l-1,1v3l-2,4l-2,2l-2,3l-1,1h-1v1l-5,5l-2,1l-4,4h-1v1l-1,1v1v-2l-1,1v3l-2,3l-3,3v1l-2,2l-2,1v-1l-1,-2h-1v1l-1,1l1,1l-1,1v1l-1,1h-1v6l-1,6v8l1,2l-2,6l-1,2v2l-1,2v4l-2,2h-1l-2,6v5l-1,2v1l-1,1h-1l-2,4l-1,1v1l-3,3h-1v1l-1,1l-2,4v4l-1,1l-4,1l-3,3v2l-1,1h-7v-1h-1v-2l-1,1v2h-4v-1h-5l-2,1h-1v1h1v1h-3l-2,2h-1l-1,1v1h-1l-1,-1h-2l-7,4l-6,4l-2,2h-2l1,1v1h-1l-1,2l-1,-1h1h-1l-1,-1v1l-1,1h-1l-1,-1l1,1h1l1,1l-1,2h-1v3h-1v1l1,1l-1,1v2l1,1v4l-1,2v5l-2,2v1l-7,7l-3,4l-2,5l-2,4l-5,5l-2,1l-3,2v1l-1,1l-1,-1h1v-2l1,1v-1h1l2,-2h1l1,-2v-1l1,-1h1v-1l2,-2v-2h1v-2l-3,1v-1h-1l-1,-1v-1v2l1,1l-1,1v2h-1v1l-1,1v1l-2,2h-1l-1,1v1l-1,1v4l-1,1v1h-1l-1,4l-1,2l-2,2l-4,3v1l-1,2l-1,1l-1,2l-2,2h-2l-4,2h-2l-1,-1h-4l-1,1h-1l-1,-1h-1l-3,-1l-2,-2h-5l-4,-4v-6l1,-1h1v-3l-1,-2v5h-1l-1,1v4l1,2v3h-1l1,1v1l1,1l4,2l1,1l2,1l1,2v1l-1,2v2l3,3h2v4l-1,1l-2,4l-3,3v2l-1,1l-3,2l-6,2l-6,1l-7,1l-1,1h-5l-2,-1l-1,-1h-1v1l1,1v2h1l1,1h-1l1,1l-1,2v1h-1v5l1,1v1l-1,1l-2,1l-1,1h-5l-3,-1h-2l-1,-1h-1l-1,-1l-1,1v1h-1l1,1v1l1,3v3l1,1v1h3v1h-1l1,1h2l1,-1v-1h-1l2,-1h1v1l1,1v3h-1l-2,1l-1,-1v-1h-1l-1,-1h-1l-2,2l3,1l1,1h1h-1v1h-2v1l-3,3v1l1,2v4l-2,1v1l1,1l-1,1h-4l-1,1v1h-2l-2,3v1l-1,2v3h1l1,1l4,3l1,1h5v4l-1,1h-1h2l1,1h-1v1l-4,4h-2v1l-2,2v7l-1,1h-1v1l-1,-1h-1v-1l-1,-1v1l-1,1h2v1h1l-1,1h-1l-1,1v4l-1,1l1,-1v1l2,2v1h-2l-1,1h4l1,2l2,2v1l-3,-1h-2l-1,1v1h-1l-3,1v1h-1v8h-3l-1,-1h-2l-1,-1v-2h2l1,1l-1,1h1v-2l2,-2v-1h-1l-3,1l-2,2v2h-1l-1,-1h-1v-1h1l-1,-2v-1h2l2,-1h3v-1h-5v1l-1,-1h-1v4h-2l-1,-1h-1l2,-1v-1h1l-1,-1v1h-1l-1,1h-2v-1l-3,-3h2l1,1h1v-1h2l1,-1h1v-1v1h1v2h1v-1l-1,-1v-2l-2,-1h1v1l-3,3l-2,-2h-2l-1,-1v-1l1,1v-2l-1,-1h-3l-1,-1h-1l-1,-1v-1h-1l2,-1v-1h-1l1,-1l2,1l1,2l2,1v-2h1v-1h-1v2h-1l-1,-1v-1h1h-1l-1,-1h-1l-1,-1v-1l1,-1h1h-1l-1,-1v-2h1v-4h-1v3h-1l-1,-2v-5h1h-3v-1l-1,-1v-1h4l2,1h1v-1h-1v-1h-1l-1,-2v2h-1l-1,1l-1,-1v-1h-2v-1h2v-1h-1v-1l1,-1l-1,-1v-1l-1,-1h-1v1h-1l-1,-1h-1v-2l-1,1h-1l-1,1h1v2l-1,-1h-1v-2l3,-3v-1l-1,-1l2,-1h2l1,-1v-3h1v6l-1,1h1l1,-1v-3h1v6l1,-1v-2l-1,-1l1,-1l-2,-2v-1h1l1,-1h2l-2,-1h-1v-2h1l2,-2v-3h-1l-1,-1h-2v-2l1,-1v-2l-1,-1v-3h1v-1l-1,-1v-2h1l-1,-1v-2h1v1l1,1v-2l-1,-2l-1,1l-1,-1v-1h1l1,-1v-1v1h-2l-1,-1h-1l-1,2h-3v-1l-2,-2l-1,-2v-9l1,-1h1v-5l-3,-5v-1l-1,-1v-3l-2,-2v-1l1,-1l-1,-1v-1h2l1,-1v-3h-1l1,-1v-1l1,-1v-4l1,-1l-1,-2l1,-1v-2l1,-1v-1l1,-3v-3l-1,-1l1,-1v-2l1,-1v-2l-1,-1v-2l1,-1v-5l-1,-1v-4l-2,-5v-1l-1,-2v-4l2,-2v-4l-3,-6l2,-2v-8l1,-1v-7l1,-2v-5l-1,-1v-3l1,-1v-2l-1,-5v-10h-1v-4h1v-2l1,-2l-1,-3l1,-2v-6l-1,-5l-1,-2l1,-2l-1,-5v-1l-1,-1v-2l-1,-3v-4l-1,-1h-1l-3,-3h-1l-3,-2v-2h-1l-1,-1l-2,-1l-1,-1h-1l-2,-1l-2,-2h-2l-4,-2h-1l-3,-1h-1l-3,-2l-1,-1l-7,-3v-1l-1,-1h-1l-1,-2l-4,-2v-1l-3,-3v-2h-1l1,-1v-4l-2,-2v-1l-2,-2l-1,-2v-1l-2,-1v-1h-1v-1l-1,-3l-1,-1l-3,-2v-2l-1,-1l-3,-5l-1,-1l-1,-3v-1l-4,-8v-1l-1,-1l-1,-2l-2,-1l-1,-1v-1l-2,-3v-1l-5,-5l-7,-4h-1v-2h2v-2l-1,-1l-2,-3h1v-1l-2,-2v-4l1,-1l2,-3l2,-2l1,-2l2,-1l1,-1h1v-1l1,-1v-3l1,-1v-1l-1,-1v2h-1v-2l-1,2l-1,1h-2l-1,-2h-2v-1h-1l1,-1h1v-3l-1,-1l1,-2l-1,-1v-3l2,-1l1,-1v-1h1l-1,-2l1,-2l2,-2v-1l1,-2l-1,-2v-1l1,-1h1v-1h2l1,-1l5,-2v-3h-1v-1l2,-1h1l1,-1l-1,-1v-3h1v-1h4v-1l1,-1h1v-1l1,-1v-1l1,-1v-1l2,-2v-1l2,-3h-1v1l-1,-1v-1v1l-1,-1v-1h-1l2,-2v-8l-1,-1l2,-2l-1,-2l-1,-1v-1h1v-3h-1l-1,-1v-1l-2,-2l1,-2l1,-1l-1,-1h1l1,1l2,-1v-2h1v-2l-1,-1v-1l-1,-1l1,-1l3,3v1h1l-1,1h2v-3l-1,-1v-1h1l4,-4l1,-2l1,-1h2l1,-1h1v-1l-1,-1l1,-1v-2l1,-1h-1v1h-1l2,-2v-1l2,-2v-1h1l2,-2h4l-1,1l1,1h1v-2l1,-1v-1l1,-1h1l1,1l1,-1h3l5,-4l3,-1h1l1,-2v-1h2v-1l2,-1h2l2,1v2l-1,1v1h-2l-3,1v1h-1v1l1,2h1l1,1h-1v1l1,1v1l-1,2l-2,2l-2,3l1,1v1l1,1h1v2h4v-1h1l1,-1v-4l-1,-1v-1l-1,-1l-1,-2v-4h2l6,-3l3,-1l1,-1l2,1v-1h1l-1,-1h-3l-1,-2h1v-1l1,-1h2v3l1,1v1h7l4,2v2h1l-1,1v1l1,1h5l5,-1l8,-1v1l2,2h3l1,1h4l6,-3h3l1,-1h-4l-1,-1h7l3,-1h10l-1,1h-5l-2,1h1l-1,1h2v2h-1h2l-1,-1h1l1,2l1,1h1v-1h1l1,1h1v1h1v-1h1v-1l2,2h1l2,1l1,1h1l-1,1h-1v2h-1v1l-1,1v1h-3v1h1l1,1l1,-1h2l1,-1h1l2,1l1,-1h2l1,1h1l1,1h1l4,2l5,4l2,2v2l-1,2l-1,1v3l1,-1v-2l1,-1h4l4,4h1l2,2v2l1,-1h7l3,1v1v-2h13l2,1h1v3l-1,1l1,-1l1,-2v-1h1l3,2h2l3,1l1,2l3,2h1v2l1,-1l2,2v2l1,-1v-1h1v3h1v1Z"/>
<path class="sl" d="M915,222l2,2v1l3,3v1l2,2v1l2,2v1l1,1v1l1,1v1l2,2v1l2,2v1l1,1v1l2,2v2l2,2v1l1,1v1l2,2v1l1,1v1l1,1v1l1,1v1l1,1v1l2,2v2l2,2v1l1,1v2l1,1v1l1,1v1l2,2v2l1,1v1l1,1v1l1,1v1l1,1v1l1,1v2l2,2v2l1,1v1l1,1v1l1,1v2l1,1v1l1,1v2l1,1v1l1,1v2l1,1v2l1,1v1l1,1v2l1,1v1l1,1v2l1,1v2l1,1v2l1,1v2l1,1v2l1,1v2l1,1v2l1,1v2l1,1v3l1,1v2l1,1v2l1,1v3l1,1v2l1,1v3l1,1v3l1,1v3l1,1v3l1,1v3l1,1v4l1,1v4l1,1v4l1,1v4l1,1v4l1,1v5l1,1v5l1,1v7l1,1v7l1,1v7l1,1v11l1,1v15l1,1v44l-1,1v15l-1,1v11l-1,1v7l-1,1v7l-1,1v7l-1,1v5l-1,1v5l-1,1v4l-1,1v4l-1,1v4l-1,1v5l-1,1v3l-1,1v3l-1,1v3l-1,1v3l-1,1v3l-1,1v3l-1,1v2l-1,1v3l-1,1v2l-1,1v2l-1,1v3l-1,1v2l-1,1l1,-1h-1v2l-1,1v2l-1,1v1l-1,1v1v-1v1l-1,1l-1,2l-1,1l1,-1l-1,1v2l-1,2l-1,1v2l-1,1l-1,4l-1,1v2l-1,1l-1,3v1l-1,1v1v-1l1,-1v-1v2h-1v1l-1,2v1l-1,1v2l-2,4h-1v1v-1v1l-2,4l-2,2h-1l-1,1v1l-2,2v1l-1,1l1,-1l-1,1l-3,7l-1,2l-1,1l-3,4l-1,2v1l-1,1h-1l-2,2l-1,2l-2,2l-2,3l-1,1l-1,2l-2,2h-1l-6,6h-1l-4,4h-2v-1h-1l-1,1v-1h-1l-1,1v-4h-1l-1,-1v-1h-1l-2,1l-1,-1v-1h-1v1v-1h-1l-2,2v-7h1v-1h-1l-1,1l1,-1v-1l2,-2l1,-2v-1l1,-2v-1l1,-1v-1h1v-1v1h1l1,-1l1,-2v-1l2,-3v-1l2,-6l1,-5l2,-3l4,-12v-5l1,-2l1,-6l1,-3l1,-2v-1h1v-3l1,-3l1,-2l1,-1v-1l1,-1v-2l1,-2v-2l1,-3l1,-2l1,-3l1,-1v-2l1,-1v-2h1v-1l1,-2v-3l1,-4v-3l1,-5v-4l1,-3l1,-13v-8l2,-4v-2l1,-3l1,-1v-2l1,-4v-1l2,-2v-1l3,-6l1,-5l1,-2l1,-3l2,-2v-2l4,-4l1,-3v-2l1,-4v-19l1,-1v1l1,-2v-16l-1,-3v-5h3v-1h-1v1h-1v-1l-1,-1v-12l-1,-1v-4l-1,-2v-1l-1,-2v-1l-1,-1v-4l-2,-3v-3l1,1l-1,-1v-1h-1v-4h-1v-1l1,1v-1l-1,-1v-3l-1,-1v-1l1,4h1v-1h-1v-2l-1,-1v-3l-1,-3l1,1h1v-2l1,-2v-2l-1,-1l1,-1v2l1,1v1v-1h1l-2,-2v-2h1v-2l-1,-2v-4l1,-1v-13l-1,-3v-1l-1,-1l1,-1v1v-2h-1v-1v1h-1v-1l-1,-1v-4h-1v-1v1h-1v-2l-1,-1v2l-1,-1h-1l-1,-1v-1v1h-1v-2h-1l1,1v1h-1v-1l-1,-1v-1v2l1,1h-1v-1v1h-1l-1,-1v-1v1h-1v-1l-1,-1l-1,-2v-3l-1,-1h1l-1,-1v-1h1v-1l-1,1l-1,-1v-1h1v-1h-1v-1h-1l-1,-3l-1,-2l-2,-2l-3,-2l1,-1h-1l-1,1l-4,-2h-6v2h-1l-2,-1l-2,1h-2l-1,1h-4v1h-1l-1,1l-1,-1v-1h-1l-3,-3h-1v-2l-1,-1v2l-3,-2l-1,-1h-2l-1,-1v1h3v1l-3,-1h-2v-1h-1v1l-2,-1h-3l-3,1h-2v1h-1l-1,1h-1l-4,-4l-6,-5l-1,-2l-2,-3l-5,-6l-2,-2h-1v-2l-1,-1l-2,-1l-2,-2v-1l-2,-2l-3,-2l-1,-1v-3l-1,1l-1,-1v-1h-1v-2l-2,-2v-1l-1,-1h1v1l1,-1v-1v1l-2,-2v-1h1l-2,-2h1l-1,-1v-1h-1v-1l-1,-1h-1l1,-1l-1,-1v-1h-1l-1,-1v-1h-1v-1l-2,-1l-1,-3h-1l1,-1h-1l-1,-1v-1h-1v1h-1v-3l-1,1v-1h-1v-2h-1v-1l1,-1h1h-2l-1,-1v-1h2l-1,-1h-1l-1,1h-1v-1h-1v-1h-2v-2h-1l-3,-3h1l1,-1v1v-1l-1,-1v1h-1v-4h-1v-2l1,-1v1l1,1h2v1v-1h2l-2,-1l-1,1h-1v-1l-1,-1v-1l-2,-2h1v-1h-1l-1,-1l-1,-2v-1l-2,-2h-1l-1,-1h3l2,-6v-10l1,-2l-1,-3v-2l-1,-3l-1,-1l-2,-4l-1,-1v-1h1h-1v-5l-2,-4h-1v1l-2,-2l-1,-2v-1l-1,1v-3h-1v-5l1,-1h1v-5l1,-2v-2h-1v1v-1l1,-1h1l1,-3h1v-2l-1,-2v-4l1,-1l-1,-1v-1h1l1,-1h1l1,-1v-6l1,-1l2,1h2l2,-1l1,-1v-1l2,-1h1v-3l1,-1v-2l-1,-1v-1l-1,-1h-1v-1l-1,-1v-1l-2,-4l1,-2v-1l-1,-1v-1l1,-1v-2h1l2,-1h2v-5l-2,-4v-1h3l-1,1h1l4,4h1l2,1h1l1,1h2v1l1,-1v1h1v1h2l1,1h3v-1l1,-1h1v1h1v-2h2l3,1h1l1,1v-1l2,1h1l3,2h1v1l2,1h3l1,1h1l2,2h1l1,1h2l1,1v-1v1h1l1,1l1,2l1,1v-1h-1h1l1,1v1l1,1v1l5,5v1h1l1,1v1l1,1v3h1v1l7,7v1h1l5,5h1l1,1v1h1l1,1v1l2,1l4,4v1l1,1l1,2l2,2l1,2l1,1h1l2,2l1,2l2,2l2,4l2,2v-1l-1,-1v-1l-1,-1v-1l-1,-1l-1,-2l-1,-1l-1,-2l-1,-1v-1h-1v-1l1,1v-1v2h1l1,1v1l1,1l1,2h1Z"/>
<path class="sp" d="M916,223l1,1v1l3,3v1l2,2v1l2,2v1l1,1v1l1,1v1l2,2v1l2,2v1l1,1v1l2,2v2l2,2v1l1,1v1l2,2v1l1,1v1l1,1v1l1,1v1l1,1v1l2,2v2l2,2v1l1,1v2l1,1v1l1,1v1l2,2v2l1,1v1l1,1v1l1,1v1l1,1v1l1,1v2l2,2v2l1,1v1l1,1v1l1,1v2l1,1v1l1,1v2l1,1v1l1,1v2l1,1v2l1,1v1l1,1v2l1,1v1l1,1v2l1,1v2l1,1v2l1,1v2l1,1v2l1,1v2l1,1v2l1,1v2l1,1v3l1,1v2l1,1v2l1,1v3l1,1v2l1,1v3l1,1v3l1,1v3l1,1v3l1,1v3l1,1v4l1,1v4l1,1v4l1,1v4l1,1v4l1,1v5l1,1v5l1,1v7l1,1v7l1,1v7l1,1v11l1,1v15l1,1v44l-1,1v15l-1,1v11l-1,1v7l-1,1v7l-1,1v7l-1,1v5l-1,1v5l-1,1v4l-1,1v4l-1,1v4l-1,1v5l-1,1v3l-1,1v3l-1,1v3l-1,1v3l-1,1v3l-1,1v3l-1,1v2l-1,1v3l-1,1v2l-1,1v2l-1,1v3l-1,1v1"/>
<path class="sl" d="M729,56v-1h-1h1l1,1Z"/>
<path class="sp" d="M728,55h1l1,1"/>
<path class="sl" d="M457,286h-1l1,-1ZM431,271v1l-1,1h-4l1,-1h3ZM419,274h-1v-1h1ZM455,288h-1l1,-1h1v1ZM425,218h-1v-1h1ZM427,218h-1v-1ZM426,222h1h-2ZM415,217v1v-1h2l1,1h1v1h-1l-2,2h-10v-2h-1l1,-1v-1h8ZM420,220h-1v-1h2ZM400,221h1ZM391,84h2v-1h1v1l1,-1l-3,1l-1,1h-2l-3,1h-2l-1,1h-1l1,-1h-1v1h-1v-1h1l1,-1h4v-1h4l1,-1h1l-1,1ZM423,67h-1v-1h1ZM380,87l1,-1v1ZM405,81h-1ZM400,81h-1h1v-1ZM408,81h-1ZM362,115l-1,1l2,-2v-1v1ZM360,116h-1ZM354,119h1l2,-1h-1ZM302,174h-1v-1v1ZM302,173v1l-1,-1v-1h1ZM312,181l-2,1l3,-3ZM244,165h-1l1,-1l1,1ZM209,182l1,-1ZM211,180h1l1,-1v-1h1l-1,1h-1ZM205,187l1,-2l2,-2l-2,2ZM224,172h-1l2,-2h1l-1,1ZM203,194v-1l1,-3v-2l1,-1l-2,6ZM126,182h-1h1v-1ZM127,186v-1ZM126,182v-1h1ZM127,180h1l-1,1ZM129,182v1ZM196,103v1h-1h1ZM194,105l1,-1ZM193,106h-1v1l1,-1h-1h1l1,-1h1h-1ZM379,91l-1,1ZM368,101l1,-1ZM354,119h-1ZM304,185h-1v-1ZM309,183v-1h1ZM306,184h-1h2ZM314,145v1ZM302,186v-1h1h-1ZM316,167v-3ZM301,186h-1ZM263,160l-1,1v-1ZM266,157h-1ZM269,156h-1ZM262,158l-1,1v-1v1v-1ZM263,160l1,-1v-1v1ZM288,156v1h-1v-1h3ZM187,111v-1ZM189,109h1ZM190,108h1ZM195,105h-1h1v-1ZM420,67v1ZM629,845v1l-1,-1ZM594,811h2v1l1,1v-1v1h1v2h1h-1v1h1h-1l-1,1l-1,-1v-2h-1v-1h-1l-2,-2h-1v-1h2v1ZM869,546h-1v-1h1ZM828,463h-1v-1h1ZM66,660h-1v-1ZM440,218h-1ZM483,787h3v1h-1v1h1v-1h2l1,1h-1h1v1h-2v1h-1l-2,1h1v1l-3,-1v2l-1,-1v1h-1l-1,-1l2,-2v-1h1v-1l1,-1ZM475,788l1,1l1,-1h4v1h-1v1h-1v1l-1,1h-2v1h-1v1h-1l-1,-1h-1l1,-1h1l1,-1h1v-1h-1v1l-1,-1h2l-1,-1h-1v-1ZM472,791h1l-1,1l-1,-1ZM486,792v1h-1v-1ZM476,788l-1,-1h2v1ZM479,794v-1h-1h1ZM296,222h1ZM307,218h-1ZM308,218v-1h1ZM434,127h-1h1l1,-1ZM429,217v-1h1ZM427,217h-1h2ZM430,215h-1ZM373,197h-1v-1h1ZM371,197v-1h-1h1ZM368,197h1ZM447,228v1h-1v-1ZM763,82l1,1h-1v-1h-1ZM729,60h-1v-1h-1h1ZM748,72v-1v1h-1l-1,-1h-1l-1,-1h-1v-1h-2l-1,-1h-1l-1,-1h1v-1h-1l-1,-1h-1v-1l-1,1v-1h2l1,1l-1,-1l1,1h1h-1v-1h-1l-1,-1h-1v-1h-1h1h-1l-1,-1h-1l-1,-1h-1l-1,-1h-1v-1h1h-3v-1h-3v-1h-2v-1h-1v-1h-1l-1,-1h-1v-1h-1l1,1l-1,-1l1,1h-1h1h-1v-1h-1h1v1h1l1,1h-1v-1h-1l-2,-1v-1h-1v-1h-3v-1h-1h1h-1v-1h-2v-1h-2v-1h-1h1l-1,-1h-1h1h-1l-1,-1h1v1h3v1h2v1h1v1h2l1,1h1l2,1h1l1,1h1v1h1l1,1h1h-1h1l1,1h-1l2,1h1l2,1h1l1,1h1v1h1l1,1l4,2l1,1h2v1h1l1,1h1l1,1h1v1h2l1,1h-1l-1,-1h-1h1l2,2h2l1,1v1h2l1,1h1l2,1l2,2h1v1h1h-1h1v1l-1,-1l1,1h1h-1l1,1h2v1h1v1h1h-2l-1,-1h-1l-1,-1h-2v-1h-1h1v1l-1,-1h-1h1v1l-1,-1h-1l-1,-1h-1v1h-1l-1,-1h-1l-1,-1v1h-1v-1h-1h1l-1,-1h1h-1v-1h2l1,1v-1l-1,-1Z"/>
<path class="sl" d="M734,63h1v1h-1v-1h-1l-1,-1h1v1ZM705,45l-1,-1ZM701,42h-1ZM700,42h1v1h2l1,1h-1v-1h-2v-1v1l-1,-1h-1ZM700,42h-1h1h-1ZM706,45h-1ZM707,46l-1,-1v1ZM705,45h1h-2v-1h-1h1v1ZM705,45h-1v-1h-1h1v1ZM719,54h-1v-1h-1h1v1ZM712,51l-1,-1h-1l-1,-1h1l1,1h1ZM713,52h2v1v-1h-1ZM715,52h-1l-1,-1h1v1ZM700,44h1v1h-1v-1h-2v-1l1,1l-1,-1h1ZM707,48h-1ZM705,46v1h2v1h1h-1l-1,-1h-1l-1,-1h-1h1ZM700,45h1ZM703,47v-1h-1ZM704,47h-1ZM723,58h-1v-1h-2v-1h-1v1v-1h-2v-1h-2v-1v1v-1h-1h1l-1,-1h1v1v-1l1,1h2l1,1h1l1,1h1v1h1h-1h1v1h1ZM759,77h-1l1,1l-1,-1h-1h1ZM878,182v-1ZM882,188v-1v1v-1h-1v-1l1,1ZM457,270l1,-1h1ZM455,278l-1,1h-7l3,-1l1,-1v-3h-1l1,-1h5l-1,1v3ZM829,141h-1v-1v1ZM829,137l1,1h1v2l-2,-2h-1v-1h-1v-1h1v1ZM833,139l-2,-1v-1h-1h1l1,1ZM827,139v1v-1h-1v-1ZM779,177l1,1l-1,1l-2,-1v-1l-1,-1h4ZM793,177l-1,-1h2v-1v2ZM793,181l-1,1l-1,-1h1v-3h1v1l1,1v1ZM786,179v3h-1v-1h-1v-2h1ZM775,178l-1,-1h2v1ZM772,178l-1,1h-1v-1h1ZM770,174v-1l-2,-1h2v1ZM841,857v-1ZM840,337l-1,-1l-2,-1h2l1,1ZM946,424v-1ZM943,434v1v-1l-1,-1v-1h1l1,1ZM835,130l-1,-1v1ZM454,255h-1v-1h1v-1h1v2ZM454,256h-1ZM453,259v-1ZM457,250l-1,1l-1,-1v-1l1,-1h1ZM444,226h-1v-1h1ZM443,225h-1l-1,-1h1ZM762,148h1l2,1h-1ZM704,115h-1ZM661,97h-1v-1ZM688,104h-2l-1,-1h1l1,1ZM684,104h-3v-1h-1l2,1ZM678,104v-1h-1h2ZM682,104v1h-1v-1h-2v-1l1,1ZM698,110h3v1h-1l-2,-1h-1v-1ZM306,303v1l-1,-1v-1h1ZM284,314h-1l-1,-1v-1h2l-1,1h1ZM304,304v-1ZM944,400v-1h1ZM770,81l1,1h-1v-1h-2v-1l1,1ZM763,75h-1ZM762,75l-1,-1ZM762,75h-1ZM767,79l1,1ZM395,265l-1,1v-1h-1v-1ZM441,223h-1ZM381,264h-1v-1ZM390,266h-2l-1,-1v-1h1v1ZM257,221v-1l1,-1h1v1ZM140,241h-1l1,-1ZM111,270v-1ZM130,224v1h-1v-1ZM132,201l-1,-1v-1h1v-1v1h1l-1,1ZM120,211v-1h1v-1v1ZM136,200l-1,1h-1l1,-2l1,-1v1ZM112,211v-1h1h-1ZM222,239h-1l2,-1ZM131,229v-1ZM136,186h-1ZM130,218l-1,1l2,-2ZM123,230v1l-1,-1ZM122,230v-1h-1l1,-2l2,-2h-1l-1,3v1ZM799,236v1h-1v-2h1ZM882,181h-1v-1ZM989,602v-1ZM989,601v-1ZM326,224l1,1h3l3,1l1,1l-1,1h-4l-1,1h-1v-1l-1,1v1l-1,-1h-3l-1,-1h-1v-1h-2v-1l1,-1h2l1,-1l3,1ZM835,132h1v1v-1ZM856,150h-1ZM871,170h-1ZM872,168h1v1l1,1v1h1v1h1v1l1,1v1h1v1h1h-1l-1,-1l-1,-2h-1v-1h-1v-1l-2,-1l-1,-1v-1h-1l-4,-4v-1l1,1h1v1l1,1h1v1h2Z"/>
<path class="sl" d="M844,142l2,2v1h1l1,1v1h1l3,4v1v-1h-1v-1h-1l2,2h-1v-1h-1l-1,-1v-1h-1l-1,-1v-1l-1,-1v1h1l-1,-1v-1h-1v-1h-1l-2,-2v-1h-1l-1,-1v-1v1h1v-1v1h1l1,1ZM850,150v1l-1,-1ZM839,139v-1ZM711,55v-1h-1h1ZM714,53l1,1h-1h1v1v-1v1h2v1h2v1v-1h1v1h2v1h2v1h1l1,1h1v1h1l1,1h1v1h1v1h1l1,1h-1l-1,-1h-1h1h-3v1l-1,-1v1l-1,-1h-2v-1h-1l-2,-1h-1v-1h-2v-1h1v1h1l-1,-1h1h-2v-1h1h-1v-1h-2v-1h-2v-1h-1h1h-1l-1,-1h1h-2v-1h-2v-1h1l1,1h2l1,1v-1h-1l-2,-1h1h-1v-1h1l1,1h1h-1v-1v1v-1l1,1h1ZM630,18h3l1,1h3v1h3v1h2v1v-1v1v-1h-7l-2,-1h-3l-1,-1h-3v-1h-5v-1h-1h1h-2v-1h-3l-2,-1h-1h3v1h1l-1,-1h-1h1h-2l-1,-1h-5v-1l2,1h-1v-1h-1l1,1l-1,-1h1h1v1h1l-1,-1h-1h1h-1h1l1,1h4v1h1h-1h3v1h1h-1h1h-1v-1h1v1h1h-1v-1h-1h2v1h1h-1h3l1,1h1l-2,-1h2l1,1h2h-1h2ZM255,249l-1,1v-1h1l1,-1h1ZM260,248h-1l1,-1ZM370,211v1l1,1l-1,1l1,1l-2,2h1v1l-1,1h-1v2h1v2h-1v-1l-6,1h-8l-1,1v1h-1l-2,-2h-2v-1l1,-1h13v-1h3v-1h-1l-2,-2v-2l1,-1l-1,-1h-5v-1h1v-1h11l1,1ZM361,219h-2l-1,-1h3ZM364,210h-3l1,-1h1ZM813,302h-1v-1h1l1,1ZM815,302h-1v-1v1ZM816,301v1h-1v-1ZM816,299h1ZM814,299h-1l1,-1ZM813,296v1h-1v-1ZM449,264v-1l1,-1v2ZM881,176l1,1v1h1h-1v-1h-1h1h-1v-1h-1v-1ZM884,180l1,1l-1,-1v-1h-1ZM880,175l-1,-1v-1l1,1Z"/>
<path class="sp" d="M879,173l1,1"/>
<path class="sl" d="M881,177v-1h-1h1ZM874,169h1h-1v-1l-1,-1l1,1ZM759,73v-1h-1h1v1v-1ZM833,131l1,1h1l2,2v1l2,2h-1v-1h-1v-1h-1v-1h-1v-1h-1v-1h-1l-1,-1h1l-1,-1v-1v1ZM784,99h-1v-1h-1h1ZM457,245h-2l1,-1h-1l-1,-1v-1h2v1h1v1ZM454,232h-2v-2h1v1l2,1ZM451,234h-1v-3h1v1h1h-1l1,1ZM454,234v1v-1h1ZM498,54h-1ZM497,54h-1h1l-1,-1h1ZM440,219h-1ZM442,220h-1ZM24,654h1ZM25,654v1v-1v1v-1h-1v-1ZM11,565v1ZM12,571v-1ZM8,561v-1ZM9,565v-1ZM26,636v-2h-1h1v1ZM9,560v-1ZM27,640v-1ZM27,638v1v-1h-1ZM31,631v-1ZM37,654v1l-1,-1ZM20,625v1ZM19,629v1ZM20,634v-1ZM828,877h1v-1v1ZM950,408l1,1v4h-1v-1h-1v-2h1v-1ZM294,397v1h-1v-2l1,-1h2l-1,1h-1ZM304,361h-1v-1h1ZM216,391h-1v-2h2v2ZM223,391l-1,1v-1l1,-1v-1h1v1h-1ZM209,390h-2v-1l1,-1l1,1ZM216,396h-1v-1h1ZM210,386v2l2,1v2h1v1l-2,2l-2,1l-1,-1v-1l1,-1l2,-1v-1h-1v-1h-1v-3h-1v1h-1v-1h1v-1h1ZM215,388h-2v-1h2ZM369,223v-2h-1v-2h1l1,-1v-1h-1l2,-2l-1,-1l1,-1l-1,-1v-1h1v-1h5l1,-1l1,1h3l1,1h3v2h5l-1,1h-1h1l1,1h4l2,2h1v1l-1,1h-1v1h-2v-1h-9l-2,2h-7v1l-2,2l-1,2h-1v-1h-1v-1h-1ZM454,239h-1v-1l-1,-1v-1l1,1h1v1ZM594,9h-2l-1,-1l1,1h1ZM590,8h1h-5l-1,-1h-1h2l1,1h2ZM576,6h4l1,1h-1v-1h-1l2,1h1h-1h4l2,1h3l2,1h1h-2v-1v1h1h-1l-1,-1l1,1l-1,-1v1l-1,-1h-7l-1,-1h-7l-1,-1l1,1h1h-2v1h-4l-1,-1v1h1h-6v-1h1h-2v1h-1l-2,-1h-3l2,1h-1v1h1h-1l1,1h-1v1h-2v-1h-2l1,1h1h-1v1h1l1,1h-1v2h-1l1,1h-6l1,-1h-1v1h-1l-1,-1h-1l1,-1h-1l-1,1h-1v-1h-3v-1h1h-11v-1h-4v-1h-1h1h-2v-1h-3v-1h2h-5l-1,-1h-1l-1,-1h1h-1h2v-1h2l1,1h1h-1v-1h-5v1h-2v-1h-2v-1h1h-4l1,-1h1h-2h1h-2l-1,-1h-1h2v-1h3l1,1h2v-1h1h-1h1h-1h1v-1h1h-8l-1,-1h1h-1h15l1,1h15l1,1h11l1,1h8l1,1h6l1,1h6l1,1h1Z"/>
<path class="sp" d="M591,8l1,1h2M584,7h2l1,1h3M578,6h2M499,0h23l1,1h15l1,1h11l1,1h8l1,1h6l1,1h6l1,1h2"/>
<path class="sl" d="M509,1h2l-2,1h-3l-1,-1h1h2ZM514,1v1v-1h-1h2ZM506,1h-1l1,-1v1h1ZM502,0h-1ZM583,7h1h-4l-1,-1h-1h2v1h2ZM567,8h-1ZM540,14h-2l2,-1ZM512,1h-1ZM679,34h-1v-1h-1h1v1ZM681,35l-1,-1h-1h1ZM675,32l1,1ZM676,33h1h-1h1h-1l-2,-1h2ZM677,33h-1v-1v1ZM760,73l1,1h1h-1v-1h-2v-1h-1l-2,-2h-1l-1,-1l-2,-1h-1l-2,-2h-1h1l2,2h1l1,1h1l1,1h1l2,2h1Z"/>
<path class="sp" d="M760,73l1,1h1M748,66h1l2,2h1l1,1h1l1,1h1l2,2h1l1,1"/>
<path class="sl" d="M298,196h2l1,-1h1l1,1l1,-1h4v1h1l1,-1h1v1h1v-1v1h1l1,1v1h6l4,1l2,2h2v-1l1,1h1v1h1h-2l1,1l1,-1l1,1h1h-1v1l1,-1h1v1h7v1h1h-1v1h-1v1h8v1h1l1,1h2v1h-1l-1,1h-4v1h-2l-1,1h-3l-1,-1l-3,1h-4l-1,1h-3l-2,1h-2l2,-2l3,-2l1,-1l-1,-1h-7l-2,-2v-2l-1,-1v-1h-1l-3,1l-6,-1h-2v-1l-1,-1v1h-4v-1h-1v1h-5l-1,-1h1l2,-1v-1l-8,1l-2,2h-1l-1,1v1h-4l-1,1v1h-1l-1,1l-2,1v-1h-1l-1,1h-1v-1l3,-1h2l-1,-2h1v-1l2,-1v-1l7,-3l4,-1l2,-1h2ZM327,200h-2v-1h2ZM325,198h-2v-1h1ZM321,197h1h-2ZM326,199h-1v-1h1ZM290,207v1h-2l-1,1v-1h-1h2l-1,-2l1,-1h2v1ZM315,197l-1,-1ZM849,142l1,1ZM849,142l-2,-2v1h1ZM847,140h-1v-1v1ZM840,133v1l-1,-1ZM834,128h-1v-1h-1v-1l1,1ZM835,129h-1v-1v1ZM838,132l-3,-3v1h1l1,1ZM840,134h1h-1l-1,-1ZM841,134v1v-1h-1ZM835,129l-2,-2h-1v-1h-1h1v1h1v1l1,1ZM852,145l-1,-1ZM854,147l1,1l-2,-2ZM896,373l-1,-1ZM310,349h-1l1,-1ZM142,645v-1ZM337,659h-1v-1h1ZM433,799v4l1,2v2l1,1v2l1,2v2h-5l-1,-1v1h-7l-1,-1h-3l1,-1h4v-1h1v1h2l-1,-1h-1l-1,-1v-1l-1,-1h1v-2l1,2l1,1h-1v1h2v1h5v1h1v-1h-1l-4,-2h-1v-3h2l1,-1v-1h-3l-1,1l-1,-1h-1v-2h1v-1h-1v-1h3v-2h1l2,1l2,-1v1ZM444,815v1h-5v-1h-1l1,-1h4ZM388,733h-3l-1,-1v-5l-1,-1v-2l1,-1l-1,-1v-1h4v2h1v1h-1v1l1,1h-1l-1,1l1,1h1v1h1v1l-1,1h-1l1,1ZM395,776v1l1,1v2l1,1l-1,1v1h-1v-2h-1v-3l-1,1v1l1,1v1h-2l-1,-1h-1l1,-1h1l-2,-2h1l1,-1h-1v-1h1v-3h2v1ZM389,774h-1v-4h-1v-1h1l2,2v2ZM404,803h3v1h2l1,1h1h-3l-1,-1h-2l-1,-1h-1l-1,-1h1ZM393,772l-1,1l-2,-2v-1h-1v-2h1v-1l1,1v1h1v1l1,1ZM412,806l1,1h2l1,1v2h-2v-1h-2l1,1h-1l-1,-1v-1h-2v-1h-1v-1h3ZM399,794v1l1,1h1v3h-1l-1,-1v-1l-1,-1v-2ZM431,815h6v1h1v1l1,1h1v1h-1v-1h-3l-2,-2h-1v1l1,1h-1l-1,-1h-1l-1,-1v-2ZM421,809l1,1h1v1h-5v-1h-1v-1l1,-1l1,1h1ZM390,741h-1v2h1v1l1,1v3h-2v-1l-4,-4l1,-1h-1l1,-1h2l-1,-1v-1h2l1,1ZM395,743l-1,1h-1v-1h-1v-1l1,-1v-1h1l1,1h1v1ZM383,745h-1l1,-1ZM394,788h-1v-2h2v1h-1ZM391,774v2l-1,1h-1l1,-1h-1l-1,-1h1l1,-1ZM389,767h-1v-1h2ZM383,735h-1ZM391,744v-1h-1v-1h1v1ZM399,792l-1,1h-1v1h-1v-2h2v-1h1ZM395,785h-2v-1h-1v-1h3v1ZM388,736l1,1h-3v-1h1ZM403,796h-1l-1,-1h2ZM389,751h-2v-4h1v2l1,1ZM443,821h-1v-1h-1h2ZM447,816h-1l1,-1ZM424,815h3l1,1v1h-1v-1h-2l-1,-1h-1Z"/>
<path class="sl" d="M444,820h-1l-1,-1h1v-1v1h1ZM744,245h-1l-1,-1l2,-1l1,1h-1ZM758,261v1h-1l-1,-1v-2l1,1ZM746,246h-2v-1h1ZM760,253h2v2h-1l-1,-1l1,-1ZM752,261v1l-1,-1v-1h1ZM752,248v1l-1,-1l-1,1l-1,-1h1ZM760,250v-1h-1v-1h1v1ZM760,261l-1,-1l1,-1v1ZM200,100l-1,1h-1v1h-1v1h-1v1h-1l-1,1l1,-1l-1,1h-1v1h-1v1h-1h1v-1l1,-1h1v-1h1h-1v1h-1v1h-1h1v-1h1l3,-3h1l1,-1Z"/>
<path class="sp" d="M193,105h1l3,-3h1l2,-2"/>
<path class="sl" d="M398,13h1l1,-1h1v1l1,-1v1h2l1,-1v1h2l-1,1h-9v1h-3l-1,1h-3l-1,1h-1l1,-1h-3l-1,1h-1h1l1,-1h3v-1h2l1,-1h1l2,-1h2l1,-1h1ZM385,14h-1l1,-1l-1,1h-3l-1,1h-1h1l1,-1h3l1,-1Z"/>
<path class="sp" d="M378,15h2l1,-1h3l1,-1"/>
<path class="sl" d="M468,58h1h-1v1h2l2,-1h-1v-1h1l1,-1v1h2v1h-1l-1,1h-5v1h-2v-1h-1v-1h1v-1h1l2,-2h1v-1h2l1,1h-1v2h-2l-1,1ZM431,63h-2v-2h-2v-1h1v-3l1,-1v-1h-1l-1,-1h-1l-1,1h-3v-1h-1v1h-1l-2,1l-2,2h-1v1h-1l-1,1v1h-1v1h-1l-1,1h-1v1h-4l-1,1h-2l-3,1h-7l-3,1h-3l2,-1h2l2,-1l1,-1h1l1,-1v-1h1l1,-1h2l2,-1h1l1,-1h2l1,-1h3l1,-1l3,-1h1l1,-1h2l1,-1l2,-1l1,-1h1l2,-1h1l4,-2h2l2,-1h2l4,-1h2l2,-1h6l1,1h2v1l-1,-1l-1,1h1v1h-2l-1,1h-2l-1,1h-3l-1,-1v1h-2h2l1,1h3l1,-1v1h1l-2,2h-1v1l1,-1h1v2h1v2h3l1,1h7v1h1l1,-1h6v1l-1,1h1h-2v1h-4l-2,1h-1l-2,1h-3v1h-2v-1h-1v1h-1v-1l-1,1v1h-2l-1,1h-1v1h-2l-1,1h-3v-1h-1v1l-1,-1v-1l1,-1l2,-1h-1l-1,1v-1h3v-1h1h-1l5,-2h3v-1h1v1h-1h1l1,1l-1,-1h1l2,-1h-6l2,-1h1v-1h-1l-2,1l-1,1h-2l-2,1h-3l1,-1h-1v1h-1l-1,1h-3ZM502,37h-1v1h-1v1h-1l-2,2h-1v1h-1v1h-1v1l1,-1h2v-1h5l-1,1h-2l-1,1v-1h1v1h3v1l1,-1v1h-1h1l-1,1h1v-1h3v-1h1v1h1v-1h3v1h2l-1,1h-1l-2,1h3l-1,1h-1h5v-1h1v1h-2v1h-2l-1,1h1h-1v1h2l2,-1l1,-1h1l-2,2v1h1l1,-1h1v1l-1,1v1l-1,1h-3v-2h-1l-1,1h-1v-1l1,-1v-1h-1v-1h-1l-1,1v1h-1l1,-1l-1,1h-2l-2,2h-4v-1h3v-1h1l2,-1h1h-4v1h-2v-1h-1l1,-1h-2l-1,1h-18v-1h1l1,-1l2,-1h1h-4l1,-1h3v-1h3v-1h-1v-1h2v-1l1,-1h1l1,-1v-1h2v-1l1,-1h2l2,-1h3ZM413,8l1,-1h5l1,-1h1h-1l-1,1h-1h2l1,-1h5l1,-1h6l1,-1h1h-1h6l1,-1h9l1,-1v1h-1l1,-1h1l-1,1h-1h1l1,-1v1v-1h2l-1,1h-1h2v-1h1v1h-1h1v-1v1h-1h1l1,-1h2v1v-1h4l-1,1h-1h3v-1h3v1h-1h1h-1v1l1,-1h2v1v-1h5l-1,1h-1h9l-1,1h-1l-1,-1h-1l1,1h-1h1h-5v1h1h-7v-1h1h-9l1,1h1h-1l-1,1h7l-1,1h-1h3v1h-2v-1v1l1,1h-7v-1l-1,1h-1v-1h-6v1h6v1h2v1h-10l-1,-1h-9v-1h-1h1h-3v-1h-1h1h-2v1h-1v-1h-2v1h1h-6l-1,1h-5l1,-1h3v-1h8l1,-1h4l-1,-1h5v-1h5v-1h-1h1h-1v-1h-1v1h-2v-1h1h-1v1h-1v-1h-1v1h-1v-1h1h-1v1h-1l1,-1h-1l-1,1v-1h1l-1,1h-8v1h-7l-1,1h-5l-1,1v-1h1h-1v1h-2Z"/>
<path class="sp" d="M415,7h4l1,-1h2M424,6h2l1,-1h6l1,-1h1M437,4h3M442,3h5M409,8h4"/>
<path class="sl" d="M466,46h-7l-3,-1h-1l-1,-1h-2l1,-1l2,1h6l3,1h2ZM452,56v1v-1h3l1,1l1,-1h5v1h-3v1h-2v-1h-1h1h-1l-1,1l-2,-1h-3v-1h-1v-1h1l1,-1v1h-1l1,1h1h-1ZM400,15h-1v1h-2l-1,1h-4l-1,1v-1h1l2,-1h4l1,-1ZM407,15v1h-2l-1,1h-2l1,-1h2v-1h1ZM437,5h1l-1,1h-3l-1,1h-3v-1h5l1,-1ZM372,41h-4v-1h4l1,1ZM391,30v-1h1h-1ZM391,29l-2,2h-1v-1h1l-1,1h-2l2,-1l-2,1h-1l2,-1h1v-1h1l-1,1h1v-1h1ZM386,30h1v-1h1v1ZM198,101h1ZM201,99l-1,1h-1h1Z"/>
<path class="sp" d="M200,100l1,-1"/>
<path class="sl" d="M195,104l1,-1v1ZM475,66l-1,1h-1v-1h1ZM468,60h1ZM464,53h1h-2l1,-1h2v-1h1l-1,1h-2ZM449,51l-1,1v-1ZM435,66h-1ZM432,65h-1l1,-1ZM393,64h-1l-1,1v-1h1l2,-1ZM392,64h-1h1l1,-1ZM410,57h1ZM501,40h1ZM507,44h-1ZM502,36h1ZM509,43h1v1h-2v-1ZM509,52v-1h1ZM464,10h1v1h-2v-1ZM446,15h1ZM442,12h-2v-1h-1h3ZM462,12h-1h2ZM462,12h1h-2v-1h1ZM440,18v1h-1l1,-1h1ZM463,14h-1ZM475,24h-1ZM472,20v1l-1,-1ZM463,2h-1h2ZM477,4h-1h2ZM388,28h1ZM391,26v1h-1ZM389,29v-1h1ZM378,39h-1ZM377,43h-2l2,-1h1h-1ZM196,103h1ZM200,100h1v-1v1ZM442,5h-1h2ZM416,13h1h-2ZM395,21h1ZM396,21h1ZM401,10h-1ZM428,13h-1ZM440,5h-1ZM405,18h1ZM427,7h-1l1,-1h1ZM420,12h-1h2ZM431,5h-1l-1,1h-1h1v-1h1ZM434,5h-1ZM418,12h-1h2ZM408,11v-1v1h-1v-1ZM428,6h2l1,-1h1h-1v1h-2ZM436,5h-1h2ZM412,8h1h-2ZM404,11h1v1h-2v-1ZM403,10h-1h2ZM400,12h-1h2ZM357,24h1ZM554,363h1l1,-1h2l3,1h3v3l-1,1v2h-1v1l-1,1h-1v1h1l-2,2h-1l-1,-1v1h-2v-1l-1,1v1h-2v1h-1l-1,-1h-3l-1,1l-1,-1v-1l-1,-1v-3h1h-1l-1,-1v-1l1,-2v-2l2,-2h2ZM593,562v1h-2l1,-1ZM556,589l-1,-1l2,-1v1ZM583,568v1h-1v-1l1,-1l1,1ZM598,387l-1,1v-2h1ZM643,478h-1l1,-1v-1l1,1v1ZM641,481v1h-1v-1ZM594,374h-1l1,-1ZM553,358v1l-1,2h-2l-1,-1h-2v-1h2l2,-1ZM548,344l-1,1h-1v-2h1ZM545,362l-3,1h-1v-1l1,-1h3ZM555,362h-2l-1,-1h1l1,-1h2v1ZM547,359l-1,2l-1,-1v-1l2,-2v-1v2ZM549,357l-1,1v-2h1v-1h1v1ZM534,372h-1l3,-3v-2l2,-2h1l1,1l-1,3l-1,2l-2,1ZM556,601v-3h1v1l-1,1ZM247,239l-1,1l1,-1v-1h1ZM247,243l-1,1v-1h1v-1ZM468,255h-1v-1l1,-1v1l1,1ZM330,184v1h-1h2v2l-1,1h-1v-1l-1,-1v-1l1,-1ZM336,173h-1l-1,-1h1l1,-1v-3l-1,-1h-1h1l1,1h1l1,1l-2,2ZM362,202h-1l-2,2h-3l2,-2h3l1,-1ZM330,181v2h-1v1h-2v-1h-2v-1h1v1v-1l1,-2v-1l1,-1l1,1v2ZM328,169h1l1,-1h2v1h-3l-2,1h-2l-1,-1l1,1h1v-1h1v-1ZM333,179h-1h2ZM355,192h-2l1,-1v1ZM354,183l-1,1v-1ZM354,196h-1v-1h1l1,-1h1v-2h1v1l-2,2ZM339,175l1,1h1l1,1h1l-1,2v1h-1v-1h1v-2l-1,-1h-3v-1ZM344,188h-1l-1,-1h-1h1l1,1ZM350,191l-1,1v-2h-2l1,-1l-1,-1v-1l1,1v2h1ZM348,183h-1v-1h-1v-1h-1v-1h1v1ZM363,193h1l1,1h-3v-1ZM363,200h-1v-1ZM436,814v-2l-1,-2v-2l-1,-1v-2l-1,-2v-4l2,2v1v-1h-1v2h2l1,2h1l3,3l2,1h1l1,1h1l1,1h2l1,1l2,-1l1,1v1h-1l-1,1h-1v-1l-1,1h-10l-1,-1l-1,1Z"/>
<path class="sl" d="M456,812h1v1h-2v-1ZM459,695v1l-1,-1h-1h1ZM451,226h-2l1,-1ZM450,222l-1,-1h1ZM543,850h1v1h1h-2v-1l-1,1v-1ZM397,906h-1v-1ZM399,990h1h-2l-1,-1h-3l-2,-1h-2l-1,-1h-2v-1h-1h2l1,1h4l1,1h1h-1v-1l1,1h4v1h5l1,1h3l1,1h6v1h7l2,1l-1,-1h10l-1,-1h1h-1h2l2,1h4v1h1v-1h1l1,1h4v-1h1v1h1v-1h-1h1l3,1h1v-1h-1h3v-1h1l1,-1h2l1,1l1,-1h-4v-1h3v-1h-1v-1h-1h1v-1l-1,-1h1h-1h1l-1,-1h-1v-1h1v-2h1v-1h-1l-1,1h-1v-1v1l-1,1h-6v1h1h-2l-2,2h-1v-1h-1l1,-1h1h-1v-1h-1h1v-1h1h-1l-1,-1h-3l-1,-1h-3l-1,-1h-10v1l-1,-1h-1l-3,-3h-7v-1h-2v-1h-1l-1,1h-4v2h-3l-1,-1h-1l-1,-1h-1v1l1,1h-3l-2,-1h-4v-1h1h-2v-1l1,-1l1,1v-1l1,-1h1h-1l-1,-1h-3v-1h3l-1,-1h-4v-1h-4v2h-1v-1h-2v-1h3v-1h-5v-1l-1,-1l-2,-1h2v-1h-2v-1l-2,-1v-1l1,-1h-1l-2,-1l-1,-1h2v-2h2l1,-1v-2h1v-1h1l1,-1l2,-1l1,-1v-1l-1,-1h1l4,-2h-1l-2,-2h-1h4v1h2v1h1l2,2v-1l1,-1v-1h-2v-1h-1l-1,-1h3l2,1l1,1v1l1,1h1l1,-1h2l1,-1h3l1,-1v-1h2v-1h3l2,1h1v-1h1l1,-1h1h-3l-1,-1h-2v-1h-4l-2,-1h-3l-1,-1h-1v-1h4l2,-1h1h-1l-1,-1h-3l-1,1h-4l-2,-1h-1v-1h2v1h2l1,-1h2l3,-1h7v-1h3l2,-1h4l1,-1l-1,-1h1v-1h1l-1,-1h3v2l1,1l1,-1h1l2,1l2,-2v1h2l1,1h8l1,-1l-2,-2l3,1l-2,-2h2l4,2h1l1,-1h2v2h1v-1h2l1,-1h1l1,1v-1h1l2,-1h1l1,-1h4l1,-1h2l2,-1l1,-1v-2l1,-2h-1l-3,-3v-2l-1,-1l-1,-2h-1l-1,-2l-1,-1v-1h-1v-1h4v-2l-1,-1v-3h1l-1,-1h-1v-2l1,-1h-3v-3h1v1h1v1v-1h1v1v-3h-1v-1h3v-1l-1,-1v-1h2l-1,-1h3l-1,-1h1v-1h2v-1h-1v-2h3v-1l1,-1h1v-1l1,1l1,-1h1l3,-3h-1h1l2,-1h1l2,-1l2,-2h2l4,-2l2,2v1h-1v-1h-2l-1,1l-2,1l-1,1v1h-1v1h1h-1l1,1h-2l-1,-1v2l-1,-1h-2v1h-1l-1,2h-3l1,1l-1,1l-1,-1v2h1v1h-1v2h1l1,1v-1h2v-1h2v1h-1v2l-1,-1h-2v1l-1,-1h-2v2h1v1h-1l-2,-2v-1h-1l-1,1h1h-1v1l-1,1h1l1,1h-4v1h1l-1,1h1l-1,1h-1v4h3l-2,1h2l-1,1v1h4l-1,-1h1l2,-1h1v1h-2v1h1v2h1v1h1l1,1h1v2l1,1h1v1h-1v1h2v1h-1v1h2l1,1v1l-2,2h1l1,-1l1,1v1h-3v1h4v1l-1,1l1,1h1v1h1v1h-1l-1,1l-1,-1h-1v2l1,-1l2,2l-1,1l-1,-1v1h1v1h-1h2v1h-3v1h1v1h-1l-1,-1h-1v1h-1v1h1l-1,1h-1h3l-1,1h-1l-1,1h-1v1h-2l-2,1l-4,1v1l-1,1h-12l-1,1v1h2l1,1h1l1,1h6v1l-2,2h-1l-3,-1h-8v1h-1h5l3,1h1v1h1h-1l-1,1h-6l-1,-1h-2l-1,-1h-1h1l1,1h1h-1v1h1l1,1h4v1h1l1,1h1v-1h-1h2l4,-1l1,1h1v2h-4l1,1h3v-1h1l1,1h1v1h1v1h4v-1h3l1,1h3l3,1h5v1h-2v1h-2v1h6l-1,1h-1h1v1h1v2h2l3,-3h1l1,-1h1v-1h10v1h-1v1h1l1,-1h1l2,-2h1l1,-1h2l2,-1h2l1,1v-1h3v-1h19l-1,-1h-1l-6,-2l1,-1v-1h-5l-1,-1h-1v-2h1l2,-2h2v-1l2,-1h2l2,-1h2l3,-1h2l2,-1h4l2,-1h13l2,1h3l-1,-1h1l1,-1h1l1,-1h1l3,-1h2l1,1v-1h2l2,-1h-2l-1,-1h2v-1h-1h1v-1h1l2,-1h2l1,1h1v-1h1v-1h1v1h3l2,-1h3l2,-2h1h-1v-2l1,-1h1v1h1l-1,1h2l1,-1h2v-1h1v2l-2,2h3l2,-2h1v-1h5v1h-1l-1,1h-2v1l3,1h1l1,1h2l-1,1h3l-1,1h-1v1h1v-1h6l2,-1l1,1h6l1,1h4v1h2l2,-1l-1,1v1h-1v3h1l1,-1h3l1,-1h1l-1,1v1h1v1h2l-1,1v2l1,-1h2v1h-2l-1,1h-1l-1,1h1l1,1l1,-1h3v1h-2l-1,1h4l-1,1h-1l-1,1h-1v2h7l2,2h2l1,-1h2l1,-1h1l2,-1l1,-1h2v1h-1l-1,1h-2v1l-3,1l-1,1v1h-1l-1,1h1l-1,1l-2,1h-1h3l1,-1h2l2,-1h8l-1,1h2v1h1l1,-1h1l-1,1h-1l-1,1h-2v1h1h-2l-1,1h1l1,-1h3v-1h1l1,-1h1l-1,1h-1l-1,1h-1v1l2,-1h1l1,-1h3v1l-2,1l-1,1h-1v1h-2l-1,1h-1l-1,1h-1l1,-1l-1,1h-3l-1,1h1h-1v1h-1l-1,1h-1l-3,1l-2,2h-1l-2,1h-1v1h-1l-6,3h-2l-2,1l-1,1h-3l-1,1h-1l-1,1h-4v1h-1l1,-1h-1v1h-5l-1,1h-2l-1,1h-8l-1,1h-5l-1,1h2l1,-1h1v1h5l1,-1h1h-1h3l-1,1h-3v1l1,-1v1h-1h1l2,-1l-2,1h-2l-1,1h-3l-1,1h-3l-1,1h-3l-1,1h-3l-1,1h-4l-1,1h-3l-1,1h-5l-1,1h-4l-1,1h-4l-1,1h-5l-1,1h-5l-1,1h-6l-1,1h-7l-1,1h-9l-1,1h-9l-1,1h-16l-1,1h-44l-1,-1h-15l-1,-1h-11l-1,-1h-8l-1,-1h-6l-1,-1h-6l-1,-1h-6l-1,-1h-5l-1,-1h-4l-1,-1h-5l-1,-1h-2Z"/>
<path class="sp" d="M630,983h-2l-1,1h-3l-1,1h-3l-1,1h-3l-1,1h-3l-1,1h-4l-1,1h-3l-1,1h-5l-1,1h-4l-1,1h-4l-1,1h-5l-1,1h-5l-1,1h-6l-1,1h-7l-1,1h-9l-1,1h-9l-1,1h-16l-1,1h-44l-1,-1h-15l-1,-1h-11l-1,-1h-8l-1,-1h-6l-1,-1h-6l-1,-1h-6l-1,-1h-5l-1,-1h-4l-1,-1h-5l-1,-1h-3"/>
<path class="sl" d="M518,944h2v4l-1,1h-1v1l-10,1l-6,1v-2l1,-1h2l1,-1h1l1,-1h1v-1h-1v-1h1v-2h1v-1l1,-1h1l3,-1h4l2,2v1h-1ZM494,950v2h-4v-1h-3l-2,-1h-1h8v-1h-1l1,-1h-1h1l1,-1l1,1v1h1h-1ZM456,900v1h1l2,1v1l5,5v1h1v2l1,2v2l-1,1v1l-2,1h-7l-1,-1l1,-1h1v1h2l2,-1h1l-1,-1l-1,1h-3v-1h3v-1h-4l-1,-1l-1,2h-1l-1,-1v1h1l-1,1h-3v-1h-1v-1h-1h1v-1l1,1h1v-1h-1v-1h1v1h1v-1h4l-1,-1h-1l1,-1l2,1v-1h2l1,-1v1h2l-1,-1h-3l-1,-1l2,-2h1l1,1l-1,-1h-1l-1,-1h-1v1h-1l-2,-1h-1v-3h-1l-1,-1v-1l1,-1l3,-1l1,1h1ZM395,924l1,1h1l-1,-1h1l1,1h1h-1v-2h1l1,1h-1v1h1l1,-1h2v1h-1l1,1h-3v1h-12l3,-2h1l1,1v-1h1l-1,-1h1ZM373,944h1l1,1h1v1h1v1h-3l-1,-1h-2l-1,-1h2ZM364,946h2l1,1h1l1,1v-1h1h-1h4v1h1h-9l-1,-1ZM414,978l1,1h-1l-1,1h-4v-1h-2v-1h6ZM425,991l-1,-1h-1h3v1h1h-1ZM537,950h1v-1v1h1v1h-2v-1h-1v-1h1ZM534,948l-3,-1h1l1,-1l1,1h1v1ZM477,948h-2v-1l-1,-1h1v-1h1v-1h1l3,-2h1v1h-1v1l-2,2v2ZM492,870h1l1,1h1h-1v1h-4l1,-1h-1v-1l1,-1h1ZM501,865h1l1,1h-4l-1,1h-1v-1l1,-1h1ZM491,858h1l-1,1l-1,-1v1h-1v1l-1,-1h-1l1,-1h2ZM472,873v1h1h-1v1h-4l1,-1h1v-1h-1h1v-1h2ZM475,873h-1l1,-1l-1,-1l1,-1v1h1v2ZM459,891h-1v2h-1v-1h-1v-3h1v-2l1,-1h1v3h1v1h-1ZM449,909h1h-1l-1,1v1h-1l-3,1h-1l-1,-1l1,-1h2v-1h1l1,1v-1h1v-1ZM443,904l1,1h1v2h-2l-1,-1h-1v-1h2ZM454,921l-1,1h2v1l-4,-1h-1v-1h1v-1h3ZM416,926v1l-1,-1v-1h-2l-1,-1h3v1h1ZM429,991h1ZM666,946v-1h2l-1,1ZM627,923h-1h1v-1h1ZM632,924l1,-1h2v1h-2ZM484,949l-1,-1l-2,-1h3v1h1v1ZM482,947h-2v-1h2ZM503,853h-2l1,-1l3,1h-1ZM500,867l-1,1l-1,-1ZM495,873h-1l1,-1h1v1ZM499,865h-2v-1h2ZM494,869h1h-2ZM481,902l-2,-2v-1h1l2,2h-1ZM481,862h3l-2,1v-1h-2v-1ZM452,904h-1l-2,-1h-1v-1h2v1ZM406,926h-1l1,-1h1ZM391,933h-1l-1,-1ZM377,945h-1v-1h-1v-1h1v1h1ZM374,951h-2v-1h1v1ZM442,981h1v1h-2v-1ZM429,980v1h-1v-1ZM416,991h1v1l-1,-1h-1ZM422,992h1ZM399,988h-1ZM626,982h-1ZM626,981h1ZM631,981h1ZM691,955v-1h1v1ZM663,936h-1h1v-1h2v1h-1ZM642,929l-1,-1h2v1ZM628,927v-1h1v1ZM642,926h-1l1,-1h1v1ZM632,926l-1,1h-1v-1h1l-1,-1h2ZM645,929l1,-1h1v1h-1ZM580,929l-2,2v1h-1l1,-1v-1h-2h2l1,-1h1v-1h1v1ZM595,926h-1h1v-1h1ZM605,926h-1v-1h1ZM536,949h-1h2ZM507,854v-1ZM488,860h-1ZM484,903h-1Z"/>
<path class="sl" d="M485,897h-2l1,-1v1ZM486,907h-1v-1h1ZM486,909l-1,-1h2v1ZM485,861h-1v-1h1l1,1ZM481,864h-1ZM481,869v1l-1,-1h1v-1h1ZM476,871v-1h1v1ZM472,876h-1l1,-1h1h-1ZM473,865v-1h1ZM464,882h-1v-2h2l-1,1ZM462,884h-1v-1h1ZM461,888h-1v-1h1ZM462,892l-1,1v-1l1,-1v1h1ZM454,906h1v1h-1l-1,-1ZM456,922h-1v-1h1ZM410,926h-1ZM381,943l-1,1v-1h-1v-1h1v1ZM370,954h-1ZM371,953h1l-1,1h-1l-1,-1h1ZM385,968h-1ZM377,965h-1ZM387,968h1h-2ZM388,969v1l-1,-1ZM385,969h1ZM391,970h-1ZM386,970h-1ZM381,967h-1ZM384,968h1h-1v-1ZM391,971h-1ZM414,976v1h-2l1,-1ZM389,970h-1ZM433,980h-3l1,-1h1ZM439,219h1Z"/>
<path class="sw" d="M835,130h-1v-1ZM989,601v-1ZM989,602v-1Z"/>
<path class="sh" d="M517,650v1l-1,2l-1,1l-1,2l-2,2h-2l-4,2h-2l-1,-1h-4l-1,1h-1l-1,-1h-1l-3,-1l-2,-2h-5l-4,-4v-6l1,-1h1v-3l-1,-2l1,-2l-1,-1v-2l1,-1v-1l1,-1h-1v-1l1,-1v-3h1v-2l-1,-1l1,-1v-1l1,-1v-1l1,1h2l1,-1h3l5,5v3h1l1,-1h1v-1h1v1l2,2v1h3l2,1v1h1v1l2,1v1h2v1h1v1l1,1v1l2,2h1v2h-1l-1,1v1h-1v5Z"/>
<path class="sw" d="M999,473v1ZM330,85v1h3l1,-1h1l1,-1h2l2,-2h6l1,-1h1h-1h1v-1h4l1,-1h3v-1h1h-1v2h-2v1h-2l-1,1h-1l-3,1v1h-1l-4,1l-4,2h-1l-1,1h-3l-1,1h-3l1,-1h-3l1,-1h1v-1ZM356,79v-1ZM331,87h1ZM959,346v1h-1v-3l1,1ZM984,621v1v-1l1,-1v-4l1,-1v-4h1v-4h1v-5l1,-1v-3l1,-1v-4h1v-5h1v-5l1,-1v-1v1l-1,2v5h-1v5h-1v5l-1,1v3l-1,1v3l-1,1v3l-1,1v4l-1,1v2ZM989,601v-1ZM989,602v-1ZM1000,504v15h-1v-1v1v-18l1,-2v-1v5ZM999,514v-1v2ZM1000,499v-1ZM1000,516v-1ZM1000,496v-1v2Z"/>
<path class="sr" d="M1000,503v1"/>
<path class="sw" d="M294,61v1l-1,-1v1h-1l-1,1v-1l2,-2h2v-1h1h-1l-1,1v-1l2,-1h1h-2v1h-1l1,-1h1v-1h-1v1h-1h1v-1h1h-2v1h-1v-1h1h-1h1v-1h-1h1v-1h1h-1l1,-1h1v-1h2v-1h4l-1,-1h1l2,-2h1h-1v1l1,-1v1h-2l-1,1h1v-1h1h-1v1h-1v1h-1v1l-1,1h-1v1l-1,1v1h-1v2h-1v1h-1v1ZM295,57v-1h1h-1ZM295,60h-1ZM306,39h1l1,-1h2l1,-1h1l2,-1l1,-1h1l-1,1v-1h1h-1v1h-2l-1,1h-2h2l1,-1h1h-1l-1,1h-2v1h-2v1h-3l-1,1h-1l-1,1h-1l-1,1h-1h1l1,-1h2l1,-1h1ZM296,43v1h-2v1l1,-1ZM302,41h-1h1h-1h2l1,-1h1v-1h1l-1,1h-2Z"/>
<path class="sr" d="M310,38l1,-1h1M298,42h2l1,-1h2l1,-1h1l1,-1M294,45l2,-2M302,41h-1"/>
<path class="sw" d="M378,70h-1l-2,1l-1,1h1l-1,1v1h-2v1h-2l-1,1h-9l-2,1h-2l-1,1h-3l2,-2h2l1,-1h1l1,-1h4l1,-1h6v-1h1h-1l-1,1v-1h1h-3v1v-1h4l1,-1h2l2,-1h1ZM372,72h-1ZM375,71h-2v1h1v-1ZM376,71h-1ZM330,85h1v-1h1v-1h3v1h-2l-1,1h-1ZM313,170h-1v1h-2v-1h-1l1,-1h1v-1h2v1ZM262,286v2h-5v-1h-2v-3h-1v-2l1,-1h2v1h1l1,1h1l1,1v1ZM387,503h-1v-1l-1,-1h-1v-1h-1v1h-1v-2h1v-1l-1,-1v-1h1v-1h1l2,2h1v1h1v1h2v2h1v1l1,1h2v1h-2v1h-1v1h1h-2v-3h1l-1,-1h-1v2h-1ZM294,55h-1l-1,1v-1v1h-3v-1h3v-1h1v-1v1v-1h2v-1h1h-1v1h-1h1l1,-1h1h-1v1h-2v1h-1l-1,1h2v-1ZM186,126v1h-1v1h-1v1v-3h1v-1h1v-1h1h-1v1h1v-1v1l1,-1v1h-1v1ZM185,127h1v-1v1ZM331,71h-2v1h-1h1l-1,1h-2v1h-1v1h-1v1v-1h1h-1l-1,1v-1h1v-1h1h-1l-1,1h-2v1h-1v1h-1v1h-1v1h-1l-1,1v1l-1,1v2l-1,1v1l-2,2h-1l-3,3h-2l-1,1h-1v-3l1,-1v-1h1v-2l1,-1h1v-1l3,-3h1v-1h1v-1h1v-1h-2v1h-1v1h-1v-1h1l1,-1h1l2,-2h1l2,-2h1v-1h1h-1v1h1v-1h1v1h-1h1l1,-1h1l1,-1h2l1,-1h4ZM327,71l-1,1h1ZM322,74v1l1,-1ZM318,74h1ZM317,75h-1v1h-2v1h1v-1h2v-1h1ZM335,67h1h-1l-1,1v-1l-1,1h-1v-1h1h-4l-1,1h-3l-1,1h-3l-1,1v-1h-1v-1h-1l-1,1h-1v-1h-1l-1,1h-2v1h-3l-1,1h-1l-1,1h-3l-1,1l2,-2h-1l-1,1h-2l-2,1h-1l3,-2l2,-1l3,-1l1,-1h2l2,-1l1,-1h3v-1h2v-1h1v-1h1l2,-1l-1,1h-1h2v-1h1l1,-1h1h-1v1h-1l-1,1h1v-1h2v-1h1v-1h8v2h4v1h-1h1v1h1h-1v1h-1v1l1,-1v1h-1h1l-1,1h-1ZM304,71h1h-1v1h-1h1ZM324,61h2v-1h-1v1ZM317,65l2,-1h1h-2l-2,1h-1h1l-1,1h1v-1ZM321,66h-2l-1,1l-2,1h1h-1v1v-1h2v-1h1ZM326,61v-1ZM333,63h-1ZM336,67h1h-1v1h1v-1v1h1l1,-1v1l2,-1h12v1h1v1h1v1h1v1h-2v1l-1,1h-1l-1,-1h-2v1v-1h-1h1v-1h-1h1h-1v-1h-2v1h1v2h-1v1h-2v1h-1v1l-1,2h-1v1h-1v1h-2v1h-2v-1l1,-2v-1h-3l-1,1h-1v1h-2v-1h1l1,-1h1v-1h2v-1l1,-1v-1h1v-2h-6v-1h1v-1h4v-1h-1h1v-1h-1ZM339,69h-1h2ZM338,69v-1v1h-1ZM337,68h-1v1h1ZM336,68v-1h1h-1ZM333,70h-1l1,1ZM341,69h6l1,-1h-1v-1v1h-4v1h-1v-1h-1l-1,1v-1v1ZM347,69h-1v1ZM353,71h1ZM200,200h-1l-5,10l1,-1v-3h1v-1h1v-2l1,-1v-2h1v-1h1ZM308,41l-1,1h-1l-1,1h-1l-1,1l1,-1h-1l-1,1l1,-1h1l1,-1h2v-1h2ZM294,45l-1,1h-2v1h-2v1h-2l-1,1l1,-1h-1v1h-1h1v-1h1h-1h2l2,-1l1,-1h2l1,-1h1v-1h3l1,-1h2l1,-1h1h-1l-2,1h-1l-1,1h-1l-2,1ZM408,42h-1l-1,1h-1v1h-1l1,-1h1v-1l-1,1l-2,1h-1v1h-1v1h-2v1h-1h1l1,-1h1v-1l1,-1l-1,1h-1l1,-1h1v-1h2l1,-1h1l1,-1h1l-1,1h1l1,-1v1h-1h1Z"/>
<path class="sw" d="M767,78l1,1l-1,-1h-1l-1,-1h-1v-1h-1h1v1h2v1ZM768,79l-1,-1v1ZM298,64v1h-1h1v-1h-1h1h-2l-1,1h1v1h-2l-1,1h-1v-1h2v-1h1v-1h1h-1v1h-1v-1h2l1,-1h1v-1h1h-1v1ZM295,65l-1,1h1l1,-1ZM328,56v1h-1v1h-2v1h-1v-1v1h-1l1,-1h-1v1h-1h1v-1h1v-1h1l1,-1h2v-1v1h-1ZM326,57v-1v1h-1ZM326,58h-1ZM309,42l1,-1v1h-2l-1,1h-2v1h-1v1h-3v1h-1l-1,1h-2v1h-1l1,-1h1l1,-1l-1,1h1v-1h2v-1h1h-1h1v-1h2v-1h2l2,-1l1,-1v1v-1h1h-1v1h-1ZM376,75l-1,1h-1v-1h1ZM150,150v1v-1l1,-1h1h-1ZM984,624l-1,1l1,-1v-1ZM307,81l-2,2v-1h1v-1ZM446,6h2v-1h2v1l1,-1h2v1h-1h1h-6l-1,1h-1h1v-1h1ZM338,28l1,-1h2l1,-1h1h-1l-1,1h-2v1h-2l-1,1v-1h1h-1v1v-1v1h-1h1v-1h1ZM363,20h1v1h-1ZM392,70h-1v1v-1l1,-1v-1l1,-1v-1v1l1,-1h1h-1v1l-1,1v1h-1ZM139,178h-1v1h-1l1,-1v-1ZM389,716v-2h1l1,1h-1v1ZM992,560v3l-1,1v1v-3l1,-2v-1ZM407,52h-1v-1h2v1ZM367,79h-1l-1,1h1v-1ZM367,80v-2h1v1h-1ZM369,79l-1,-1l1,-1v1ZM928,346v2h-1v-4h1v1ZM294,47h-1l-1,1h-2v1h-1h1v-1h1l1,-1h1ZM343,27v-1h1h-1l-1,1h-1h1ZM320,35h1l1,-1v1h-1l-1,1h-1h1h-1ZM254,159h-1h1v-1h1ZM413,28h-4v-1h4ZM356,65h2l1,-1h2v1h-3ZM989,582v1v-3h1v1ZM998,501v6h-1v-2l1,-1v-1ZM998,494v-4l1,1v1l-1,1v1v-1ZM401,28h1l1,-1v1h1h-2ZM452,626l-2,1h-3v-1h-1v-1h2v-1h3l1,1ZM397,36v-1h3l2,-1v1l2,-1l-1,1h-1h1h-4v1h-1v-1ZM397,35v1h-4l-2,1h-1v-1h-1h4l1,-1h1h-1h2v-1h1v1h-2l-1,1h1ZM371,220h-1ZM393,37l-1,1v-1h1l1,-1v1v-1h1v1h-1ZM411,783h-1l-1,1h-3v1h1l-1,1v-1l-1,-1h-1h1v-1h-1l-1,-1h1l1,1h3l2,-1ZM308,39v1h-1h1h-1h1v-1h1ZM332,47h1l1,-1h1l-1,1h-1ZM806,108l-1,-1v1v-1h-1h1ZM719,55l1,1h1h-2ZM209,106h-1h1l1,-1ZM215,94h1h-1l-1,1ZM157,159v-2l-2,2v-1l-1,1h-1h1v-1h2v-1l1,-1l-1,1v1h-1h1v-1h1v1ZM284,50h-2v1v-1h1h-1h2v-1h1h-1h1ZM462,30h1h-4v1h-2v-1h-3v1h-2v1h-1v-1h-1v-1h-2l-1,-1h-1l1,1h-2v-1h1v-1h1h-1h1v1h1h-1l1,1h5v-1h-1h1h-1h1v1h4v-1l-1,1v-1l1,-1v1h1l1,1h2ZM237,257l-1,1v1h-1v1h-2v-1h1l2,-2ZM317,55h2l1,-1h1l-1,1h-3v1ZM995,563v-1ZM393,53h-3v1v-1h1v-1v1h-1v-1h4v1h1h-1ZM414,30h2v-1h2v1h-5l-1,1l1,-1ZM508,320l-1,1h1v1h-2v1h-2v-2l1,-1v-1h3l1,1ZM366,78h-1v1v-1ZM370,78v-1ZM372,78l-1,-1ZM194,120h-1v1v-1h1v-1ZM183,130v1h-1h1v-1h1v-1v1ZM289,73l-1,1h-1l1,-1h1h-1Z"/>
<path class="sw" d="M314,62v1h-2v-1h1v1ZM384,60h-1v-1h1ZM392,708h-2v-1h2ZM408,780l-1,-1h-3v-1h3l1,1h1v1ZM980,469v-1ZM443,66h-1v1h-1v-1h1ZM438,60h-1v-1h1ZM164,134v1h-1l1,-1h1ZM156,144v1v-1h1v-1v1ZM142,161v1h-1h1ZM420,47h-1h1h-1v-1v1h-4v1v-1h3v-1h2v1h1ZM493,45h-1v1h-2v1h-2l1,-1h2l1,-1ZM332,45l1,-1h1v1h-1ZM309,57h-1v-1h2ZM316,48h-1l-1,1v-1h3v-1v1ZM423,35h1h-1v1h-2v-1h1ZM286,53h-1v1h-2l-1,1v-1h2v-1h1ZM288,77h-1l1,-1h1h-1ZM403,71h1l-1,1v-1h-1ZM356,73v-1h1l1,-1v1l-1,1ZM322,44h1h-1v1h-3v1h-1l1,-1h1l1,-1ZM176,124v1h-1h1v-1h1ZM496,48l-1,1v-1ZM319,43l-1,1h-1h1v-1ZM300,67h-1h1l1,-1h-2v1v-1l-1,1v-1h1h-1h1h-1h1v-1h1v1h-1h3v1h-1ZM320,42h-2v1v-1h2l1,-1ZM240,85v1v-1h1v-1l-1,1h-1v1h-3v1h-1l-1,1h-1v1v-1h1l1,-1h1v-1h2v-1h2v-1h1v1ZM256,81h-1l1,-1h-1l1,-1h-2v1h-1l1,-1h2v1h-1h1v-1h1l-1,1h3l1,-1h-1v1h-2ZM212,93l1,-1h1v-1l-1,1v1ZM210,96v1h-2v1v-1h1l1,-1h-1ZM198,103l1,-1ZM305,41l-1,1h-2v1v-1h2l2,-1ZM289,71h-1l1,-1ZM289,70h2v-1v1h-1ZM345,26h-1h3v-1h1h-1v1h-1ZM445,8h-3v1h-1v-1h5ZM192,178h-2v-1v1h1v-1v1v-1h1l-1,1ZM380,59h1h-2v-1l1,-1h1h-1l-1,1h1v-1v1h1h-1ZM157,245h-3l1,-1h1ZM253,280v1h-1v-1h-2v-1h2l1,1v-1ZM513,573l-1,1v1h-1v1l1,1h-1v1h1h-1v1h-1v1h-1v-2h1v-1h-2v-1h2v-1h-1h1v-2h1v-2l1,-1h-1v-2h1v5ZM300,297v1h-2v-1v2l-1,-1v1v-1l2,-2v1ZM977,625v1h-1l1,-1h-1v1v-1v1h-1v1h-1v2h-1v1h-1v1v-1l1,-1v-1h1v-1l1,-1v-1v1v-2h1v-1h1v1ZM1000,484v1v-2ZM807,107v-1h-1l-1,-1h-1h1l1,1h1ZM912,367v-1v1h-1v1l1,1h-1v-1l-2,-2v-1h-1l-1,-1v-1v1h1v1h1v-1v1h1v1v-2l1,1v-3h-1h1v-1l-1,-1v-1v1l-1,-1v-1v1h1v-1h-3v-1v1v-1h2v-2h-1v-1v1h-1v-2h-1v-2h-1v-1l-1,-1v-1h-1v-1h-1v-1h-1v1h-1v-1h2v1h1v-2l-1,-1h1v2l1,1v2h1v-1v2l1,1v1h1v1h1v1l1,1v2h1v-5h-1v-2h1v1h-1v1h1v3h1h-1v2h1v-1v5l1,1h-1h1v4ZM911,366v-1ZM994,563v-1l-1,1v-2h1v-8h1v-16h1v-11l1,-1v1v-1v7h-1v9h-1v3h1v2l-1,1v9l-1,2v8h-1l1,-1h-1v1v-1ZM523,641v1l-1,1h-1l-1,-1l-1,1v2h-2v4h-1v-5h1l1,-1v-1h1v-1h1v-1h1v-1h1v-1l1,-1v3ZM286,64h-1v1h-1v-2h1v-1v1v-1h1v-1h-1h1v-1h1v1v-1h1h-1v1l1,-1v1h-1v1h-1l-1,1h1ZM285,61h-1l1,-1h1h-1l-1,1l3,-3h1l1,-1h-1l-1,1l1,-1h-1l-1,1v-1h2l1,-1h2l-2,2h-1l-1,1h-1v1h-1v1l1,-1ZM433,40h-1l-1,1h-1l-1,1v-1h-1v-2h1v-1v1h2v-1h1v1h1ZM431,40v-1v1h1v-1h-3l-1,1h1l1,1v-1h2Z"/>
<path class="sw" d="M280,53h1v-1h1h-1h1h-1l-1,1h1h-1l-1,1h-1v1h-2v1h-1h1v-1h1h-1h1l1,-1h2v-1v1h-1ZM409,755v1h-3l-1,-1l-1,1h-1l-3,3v1v-4l1,1l1,-1l2,-1v-1h2l1,1h1ZM157,159v-2l-2,2v-1l-1,1h-1h1v-1h2v-1l1,-1l-1,1v1h-1h1v-1h1v1ZM178,141v1h-1l-2,2v1h-1v1l-1,1h-1l-1,1h-1v1v-1h1v-1h1l1,-1h1v-1l1,-1h1v-1h1l1,-1ZM318,40h1h-2v1h-2l-1,1h-2l-1,1h-1v1v-1h2v-1h2l1,-1h2v-1h2v-1h1h-1v1ZM627,444v1l-2,1l-1,1h-1l-1,1h-3l-1,-1v1h-1l-1,1v1h1v1h1v1l-1,-1h-1l-1,-1h-1v1l2,4l-1,1v1h-1v-1l1,-1v-1l-1,-1h-1v1l-2,2v2l-1,1v1h-1v-1h-1v-1l-1,1v-1l2,-2h1l-1,-1v-1v1h2v-1h-1v-1h1v1l1,-1l-1,-1h2v-1l-2,-2h-1l1,-1v1v-1v1h1v1h1v-1h1v-1h1v-1h-1h2v-1h1v-1l1,1h6v-2h1l1,-1h-1l1,-1v-1v2ZM610,457v-1l-1,1h1l-1,1v1h1v-1ZM364,55l1,-1h1v1h1v-1v1h1v1v-1h-3ZM240,85v1v-1h1v-1l-1,1h-1v1h-3v1h-1l-1,1h-1v1v-1h1l1,-1h1v-1h2v-1h2v-1h1v1ZM252,90l-1,1h-1v1h-1v1h-1h1v-1h-1h1v-1h2v-1h1l1,-1v-1v1h-1h1v-1h1l-1,-1h2v-2h1l1,-1v-1h1h-1h1l-2,2v1h-1v1h-1v1l-1,1v1ZM212,93l1,-1h1v-1l-1,1v1ZM912,367v-1v1h-1v1l1,1h-1v-1l-2,-2v-1h-1l-1,-1v-1v1h1v1h1v-1v1h1v1v-2l1,1v-3h-1h1v-1l-1,-1v-1v1l-1,-1v-1v1h1v-1h-3v-1v1v-1h2v-2h-1v-1v1h-1v-2h-1v-2h-1v-1l-1,-1v-1h-1v-1h-1v-1h-1v1h-1v-1h2v1h1v-2l-1,-1h1v2l1,1v2h1v-1v2l1,1v1h1v1h1v1l1,1v2h1v-5h-1v-2h1v1h-1v1h1v3h1h-1v2h1v-1v5l1,1h-1h1v4ZM911,366v-1ZM326,31h2v-1v1h-2l-1,1Z"/>
<path class="sr" d="M327,31h1M325,32l1,-1"/>
<path class="sw" d="M327,31h1v-1h1h-1v1v-1v1ZM251,96v1h1h-1l-1,-1v-1h1v-1h1l-2,2ZM193,193h1l-1,1h-1h1v-1h-1l1,-1h-1v-1h1v1ZM275,57l1,-1h1v-1h2v-1v1h-1l-1,1h-1ZM317,36h-1l-1,1h1v-1h1h-1h1l1,-1v1h-1h1l1,-1h1h-1l-1,1h-1h1ZM366,19h-1v1h-1l1,-1ZM431,31h1l-1,1h-2l-1,-1v1h-1l1,-1h1h-1h2ZM434,32v1h-1v-1h1h-2v-1v1l1,-1v1ZM427,31h-1h2l1,-1h1h-1h1h-1v1h-1ZM286,118v1l-1,1v2h-1l1,-1v-1l-1,1l1,-1v-3h1ZM314,128v1h1v1h-2l1,-1l-1,-1v1v-1ZM228,81l-1,1l2,-2h1h-1ZM310,155v-1v2ZM148,168h1v1h-1ZM153,144l-1,1ZM163,133v1l-1,1v-1h1ZM174,126v-1h1ZM428,61h1h-2ZM553,398h-1l-1,-1h1v-2h1v-2l1,1v3h1v2l1,1v5l1,1h2l-2,1l-1,-1v-1l-1,-1l-1,-2v-2h-1v-1ZM589,524v1h-2l1,1v1l-1,-1h-2v-1h2v-1l-1,1v-2h1h-1v-1h-1v-1h1v-2h1v1l-1,1h1v2h1h-1v1h1ZM536,537v-1l-1,-1h3v-1v1l1,-1v-3l1,1v1l1,-1h2l-1,1h-2v1h-1v1h1v1h-3l1,1v1l-1,-1ZM390,711h1ZM422,746v1h1l-1,1h-1l-1,-1v-2l1,1ZM805,105h-1ZM283,128h4v1l-2,-1h-1l-1,1ZM389,43l-1,1h-1l1,-1ZM317,55h-1ZM318,52v1ZM378,45v1h-1v-1ZM369,59h-1v-1h1ZM376,58h1l-1,1ZM437,4h-1ZM370,17l-1,1v-1ZM315,45h1l1,-1h1h-1ZM289,53h1l1,-1l-1,1ZM276,58l1,-1h1h-1v1h-1l-1,1ZM422,34h1h-2l1,-1ZM473,34h1v1h-1v-1h-1ZM345,59h-1h1l1,-1v1ZM281,54v-1h1ZM282,54h-1h1v-1h1h-1ZM333,30h-1l1,-1ZM323,34v-1h1h-1ZM306,42l1,-1ZM436,25l1,1l-1,-1v-1h1h-1ZM391,13h-1h2ZM394,12l-1,1h-1h1Z"/>
<path class="sb" d="M798,136l-2,-2v-1h-1v-2h1h-1l-2,-2v-1h-1v-2l-1,-1l-2,-1v-1h-1l-1,-1h2v-1h-1l-1,-1v-2h-1l-1,-1v-1l-1,-1v-1h1l-1,-1h-1v-1h-1v-1h-2v-1h-1v1h-1v-1h-3v-1l-1,-1h-2M811,120h-1l-1,-1M816,123l-1,-1v1v-1h-1l-1,-1h-1l-1,-1h-1v-1h-1l-1,-1h-1l-1,-1v1v-1h-2v-1h-2v-1h-1l-1,-1h-1l-1,-1h-1v-1h-1l-1,-1h-1v-1M787,93v-1h-2M783,89h-1h1v1h1v1h1v1v-1h-1l-1,-1h-1v-1h-1l-1,-1h-1v-1v1h1h-1l-1,-1h-1v-1h-1v-1h-1l-1,-1h-1l-1,-1h-1v-1h-2v-1h-1l-1,-1M779,86h-1l-1,-1h-1v-1h-1l-1,-1h-1l-1,-1h-1v-1h-1l1,1v-1h-1M801,103l-2,-2h-1v-1h-1l-1,-1v-1h-1v-1h-1l-1,-1h-1v-1h-2l-1,-1v-1h-2v-1h-1v-1h-1l-1,-1h-1v-1h-1v-1h-2v-1h-1v-1h-1l-1,-1h-1v-1h-1v-1h-2v-1h-1h1l-1,-1h-1v-1h-1l-1,-1l1,1l-2,-2h-1l-1,-1M809,111v-1h-1v-1h-1l-2,-2v1h1h-1v-1h-1l-1,-1v-1h-1v-1h-1v-1l1,1v-1h-1l1,1h2v1v-1v1v-1h-1h1v1h1l1,1h1M810,109h-1v-1h-1M813,111h-1v-1v1v-1h-1v-1h-2v-1h-1v-1h-1v-1v1h1v1h2v1v-1h-1h1v1h1v1h1l-1,-1h1v1h1v1h1l1,1l-1,-1h-1v-1h-1v-1h-1v-1h-1h1h-1l-1,-1l1,1l-1,-1M811,108v1h1h-1v-1h-1v-1h-2v-1h-1v-1h-1v-1h-1l-1,-1h-1v-1h-1l-2,-2h-1v-1h-1v-1h-1l-1,-1l1,1l-1,-1l1,1v-1v1l-1,-1h1h-1h1M822,122l-2,-2h-1l-4,-4h-1v-1h-1v-2h-1l-1,-1h-1v-1h-1h2v1v-1h-1v-1l2,2h1v1h1v1h1l-3,-3h1v1l1,1h1v1h1h-1v-1h-1v-1v1h1h-1v-1h-1v-1l1,1h1h-1h1v1h1l2,2h1v1h1l1,1h1v1M828,123l-1,-1h-1v-1h-1v-1h-1v-1h-1v-1h-1h1v1h1v1h1h-1v-1l1,1M828,123l1,1h1h-1h1v1h1v1h1h-1v-1h-1v-1v1v-1h-1l-1,-1v-1v1l-1,-1M851,144l-4,-4h-1l-1,-1l-1,-2h-1v-1l-1,-1h-1v-1l-1,-1h-1v-1l-2,-1v-1h-1l-2,-2h1v1h1v1v-1v1l1,1M873,168v-1M854,147l-2,-2M278,297h-1v1v-1h-1l-1,1v3l1,1l-1,1v3l-1,1h-1l1,1v1M271,288h-1v1h-4v-1h-4l-1,1l-2,-1h-4v1M278,256h-3v1h-2l-1,1h-1v1h-3v1h-2v-1h-1l-1,1h-1l1,1h-2v2h-1v1l-2,2h-1v1h-2v-1h-1v1l-2,2h-3v4h-1l-1,1v1h-1l-2,1M242,256h-1v1l-2,1l-3,3l-2,1v4l-1,1h-1M237,256h-2v-2l1,-3v-2l1,-2v-1l1,-2v-2M226,274v-1l2,-2h1v-1h1v-1h1v-1l1,-1v1h2l1,1h1v1h2v1v-1h1l1,-1h1v1h2v1l-1,1h1v1h-1M245,236h-2v2l-2,1v1l-1,1l-1,-1l-1,1v1h-1l-3,1h-3l-3,1h-2l-1,2v2l-2,1h-1l1,1v1h1l1,1h1v2h1v2l-1,1h-3l-2,1h-3l-1,1l-2,4l-1,1v3h-1v3h-1M203,195l-1,1h-7l-1,-1h-1v-3h-1v-1h1v-2l1,-1h-1v-1h-1v-2l-1,-1l1,-1l-1,-2l1,-1l-1,-1v-1l-1,-1h-5v1h-1l-3,3v1l-1,1h-1v1h-1v1l-1,-1h-2v-1h-1l-1,-1v-1l1,-1v-4h-1v-1l-1,-1v-1h-1v-1h-1l-1,1h-2l-1,1h-2l-2,2v1h-1l-1,1l-2,1h-1l-2,1h-1l-4,2h-9l-1,-1h-1l1,-1h-1l-1,1h-1l-2,2h-2l-2,2h-1"/>
<path class="sb" d="M385,67h-1l-2,1h-1l-3,2h-2l-1,1l-2,1l-1,1h-1l-1,1h-3l-2,1h-6l-1,1h-1l-1,1v2h-1l-1,1h-2l-4,2h-1l-3,1l-2,1h-1l-2,1h-2l-1,1l-2,1h-2l-1,1l-1,-1h-1l1,-1v-1h1l1,-1h1l4,-4l2,-1v-2l1,-1v-1l1,-1v-3h1l-1,-1h-3l-1,-1h2v-1h-2l-1,1v-2h1h-3v1v-2h-2v-1h-4l-1,-1h-4l-1,-1h-2l-2,1l-1,1h-3l-1,1h-1v-1l-1,1h-3l-2,1h-2l-1,-1l-1,1h-1h1v-1h-3l-1,1h-5v-1h1v-1h-1v1l-1,1h-3l-2,1h-2l-2,1h-1l-2,1h-2l-2,1h-2l-1,1h-2l-2,1h-3l-2,1h-2l-1,1h-2l-2,1h-1l-4,2h-1l-2,1h-1l-2,1h-1l-2,1h-1l-2,1h-1l-2,1h-1l-2,1h-1l-2,1l-1,1h-1l-2,1h-1l-1,1h-2l-2,2h-2l-1,1h-1l-1,1l-2,1h-1l-1,1h-1l-2,2h-2l-1,1h-1l-2,2h-1l-1,1h-1l-2,2M509,581v6l-1,2l-1,1v1h-1l-1,1v1h-2v1h-1l-1,1v1l-1,1l-1,-1h-3v1l-1,1l-1,-1h-7l-3,-1h-6v-2h1v-1l1,-1v-1h1v-4h1v-1l1,-1v-1h1v-2h1v-1h1v-2h-1l-1,-2l-1,-1h-3l-1,-1h-1l-1,-1l-6,-3l-1,-1l-3,-2h-3l-2,-1h-2l-2,-1v-1l-1,-1l-2,-1h-1v-1h-1l-2,-2l-1,-2l-5,-5M409,560l1,1v2l-1,4v2l-2,2l-3,1l-2,2h-1v1h-1v3l1,1v1h-1v5h1l1,3v1l-1,1v2l2,2v3h-2v1l-1,-1l-1,1v2h-1v4l-1,1v1l-3,3v6h-1v4l1,1v3h1v2h-1l-1,1v1l-1,1v4h-1v4l1,1v1h1l1,1v1h-1l1,1v1l1,1v2l2,2l-1,1v1h1v1h2v1l-1,1l1,2v4h-1v2l-1,1v4l-1,1v1h1v2l1,2v3h-1l-1,1v1h-1v1h-1v6l1,1v3l1,1v1l1,2v2h1v2h-1l-1,1h-1v1l1,2v1l-1,1v1h-1v1l1,1v2h-1v1h1v6l1,3v2l1,1l1,2v1h-1v1l-1,-1v2l1,1h-1v1l1,1v3h2l1,1h-1v1l2,2l-1,1h1v5h4v2h-3l-1,1h-1l1,1h3v1h1v1l1,1h-1v1h-1v3h1v1l-1,1l1,1v1l1,1v1l-1,1v2h1v1h-1v1l-1,1v2h-1v1l2,2v2h-1v2h1v1h-1v1h-1v1l-1,1l1,1h-2v2l1,1v3l1,1h1v1l1,1v1h1l1,-1h3v2l1,1h-1l1,1v2l3,3h15l1,1h3v1M480,534l1,-1l-1,-2l-2,-1l-2,-2l-3,-1h-8l-7,2h-2l-3,1h-2l-1,2v2l-2,2l-1,2v5l-1,3v2l-1,3v2h-1v-1l-1,-1h-8l-1,1l-2,4v2l-1,1v-1l-1,-2v-1l-1,-2h-9l-1,-1l-2,-1l-1,-1v1l-1,1v1l-1,1h-2v2l-2,1v1l-1,1v1h-6v-3l-1,-1v-3h-1v-2l-1,-1v-3l-1,-2l-1,-1h-1v-1l-1,-1l1,-1l-2,-1v-3l1,-1v-1l-1,-1v-1l1,-1v-2h-1v-1h-1l-1,-1h-1v-2l-1,-2v-3l-1,-1l1,-1h-1l-3,-3v-1M383,458l1,1l1,2l1,1l1,2l1,1l3,6l-1,1v1l-1,1v6l-1,1l1,1v2h1v1l-1,1v1l-1,1v1h-1v1l-1,1v1l2,2v2h-1l-1,2l1,1l1,4h3v1h1h-1v1h-1v2l-2,2v1l-2,2v1l1,1v1h-1l-1,1h-1v1l1,1v2l-2,2h-3M333,369h-3v1h1l1,1v1h1v4h-1v1l-1,2v2l-3,3l-1,3l-2,1l-1,1h-1l-1,2l-4,2h-2l-2,2h-2v1l-2,2v2h-1v-1h-1v4l-1,1v2l-1,1v3l-1,1h-1v2h-1v1l-1,-1l-1,1v-1h-1v-1l-1,-1v-1h-2l-1,-1h-2l-1,1h-1v-1l1,-1h-2v-1l1,-1h1l1,-1v-1h-1h1v-1h-1v-2"/>
<path class="sb" d="M378,400l-1,-1h-1v-1l-1,-1h-4l4,-7l1,-2l1,-1h-1l-1,-1h-1v-1h-2l-2,-2h-1v1h-2l-1,1h-1v-1h-2l-1,-1v1l-1,1h-1l-1,1h-8v-4h-1v-1h-2v-2l-2,-2h-1l-1,-1h-1l-1,-1h-1v-2l-3,-3h-1v-1h-2l-1,-1l-1,1l-1,-1h-3l-2,-2l-2,-1l-1,1v1h-7l-2,-2v-1h-1l-1,-1h-2l-2,-1h-1l-1,-1h-1l-2,-2M404,352v-1l-1,-1v-1l-1,-2v-2h-1v-2l-1,-1h-1v-1h-1v-1h-1l-1,-1l-1,1v-1h1l2,-3l2,-1v-1l-1,-2h-1l-1,-1v-2l-1,-1v-9l2,-2v-2l1,-1v-2h-1l-1,-1h-1l-1,1h-1l-3,1h-6l-1,1v-1h-1l-2,-1l-1,-1l-1,-2l-2,-2h-3l-1,-1h-1l-1,1h-1l-1,1h-1l-2,-1l-1,1h-4v-1l-1,-1v-1h-2v-5h1v-2l-3,-3v-1l-1,-2h-1v-1h-2l-1,1v-2l1,-1h1l1,-1v-3l1,-2v-2l2,-2v-1l2,-2l2,-1l2,-3l1,-1h2l1,-1h1l1,-1M457,318l-6,-6l3,-3l-1,-1v-2h1v-1h4v-1l2,-1l1,-1h-3v-2l-1,-1l2,-2v-1h2l2,-2h1v-1h1v-1l-2,-1M494,344l-1,-1h-1l-1,-1v-1h-1v-2h-1v-1l-1,-1v-1h-1l1,-1h-1v-3h-3v-1l-1,-1h-1v-1l-2,-2v-1l1,-1v-2l1,-1v-1h-1v-1h1v-1h4l1,-1v-1h1h-1v-2l1,-1M510,341l2,-2l1,-2h1v-3l1,-2v-1l1,-1h-1v-1h-1v-1h-1l-1,-2v-5h-1v-2h1h-1l2,-2v-1h1M486,620h1l1,-1v-1l5,-5v-1l1,-1h1v-1l2,-2v-1h1v-1h1v-1h2v-1h-1v-1h1l1,-1h1v-1h2v-1h1l1,-1v-1h2v-1h2l2,-2v1v-1h1l2,-2v-8l-1,-1v-2h-1v-1h-1v-1l-1,1h-3v-1l1,-2l1,-1h-1l2,-5v-4l-1,-1v-1h-3l-1,1h-4v-2l-1,-1v-4l-1,-1v-4l-1,-1v-1h-1l-1,-1h-2l-1,-1h-1l-1,1h-7l-1,-1h-3v-1l1,-1h-1v-1h1v-1l-1,-1l1,-1v-6h-1v-3h-1v-1l-1,-1h1l1,-1h1v-1l-2,-1v-2l1,-1l1,-2v-2h1v-1h-1l1,-1l1,-3v-2h1h-1v-1l-1,-1l-1,-3v-1h-1l-2,-1l-1,-1h-1v-3l-1,-2v-1l1,-1v-1h1l-1,-1l-1,1h-8l-3,-1h-3v-4l-2,-4l-1,-1v-1h2v-4l-1,-2l-1,-1v-1h1v-2l-2,-2h-1l-2,-1l-1,-1l-3,1h-3l-3,-3h-2l-1,-1l-2,-1h-1l-2,-2h-2l-1,-1h-1l-1,-1h-1l-1,1h-1l-2,-1h-1l-2,-2h-1l-1,-1h-1v-1l-1,-1v-1h-1v1v-2l-1,-1v-1h-1v-2l1,-1l-1,-1v-1l-1,-2v-1h1v-1l1,-1l-1,-1v-3h-1l-1,1l-1,-1l-2,1h-3l-1,1h-1l-5,3v1h-2v1l-2,1v1h-3l-1,1l-1,2h-1v1h-2l-1,1v-1h-2l-2,-1l-2,1h-5l-1,1h-2l-1,-1h-1v-12h-1l-4,4h-1l-2,1h-5v-1l-1,-1v-2h-3l-2,-1h-1l-2,1l1,-2l1,-1v-1l-1,-1v-1h-1l-1,-1v-1h-1v-1h-1v-1l-1,-1v-1h-1v-2l-1,-1h-1v-2h1v-1h1v-2h-1l1,-1v-1l3,-3h1l1,-1v-1l-1,-1v-2l1,-2l1,-1v-4l1,-1h1l3,-3h1l2,-2h1l1,-1h2l1,-1h3l2,-2h4v1h3v-3l1,-3v-3l1,-2v-3l1,-4v-4l1,-1v-6h-1v-1l-1,-1h1v-1h-1v-1h-1v-1h-1l-1,-1v-7h3v-1v1l1,-1h2v1h1v-3l-1,-1h-5v-5h2l1,-1h12l-1,-1v-1h1l1,1h2l2,-2v-1h2v1l2,2v5l2,-1l2,2l2,1v1h3v-1h1l1,-1h2v2h1v-1h1l1,-1v-1h1l1,-1h1v-1h2v-1h1v-1h3l1,-1v-3h2l1,-1h1l1,-1h1v-2h-6v-3l-1,-2v-4l-5,-5v-1l1,1h4l1,1v1h5l1,-1l2,2h1l1,1h1l1,-3v-1h2v-1l3,1l5,-2v-1h1l1,-1h3v-1l1,-1h1l1,-1v-2h-1l1,-1v1h1l1,-1h2l1,1v4h-1v1h3v1h1v2l1,1v2h-1v1l-1,1v1l-1,1v2h-1v3l1,1v2h1v4h1v1h1l1,1h1v1l1,1h2l1,1h1l1,-1h1v-1h1v-1h4v-1h4v-1l1,-1h1l1,-1h1v1h7l2,1v-1h1v-1l-2,-2v-1h1v-1h1l1,1h3l1,-1h2l1,-1v1l1,1h1l1,1h1l1,1h3l1,-1h1v-1l1,1h4v1h3v-1h1l2,-2v-1l1,-2v-1h1v-1l1,-1v-1h1l1,-2v-1h1v-1h1v-1h1"/>
<path class="sb" d="M824,193v-2l-1,-1l-1,-2v-1l-1,-1h1v-1h1v-1h1v-1h2v-1l2,1h1v-1l1,1h3l1,-1v-2h2l1,-1h1v-1h-1v-1h-1v-1l-1,-1v-1l1,1h2v-1h3v1h2l1,1h1l-1,-1v-2h-1v-1h-1l-1,-1l-1,-2h-1l-1,-1v-2l-1,-1h-1v-1l-1,-2l-1,-1v-1h-1v-1h-1l-3,-3M892,208l-1,-2l-1,-1v-2l-3,-3l-2,-4l-2,-1v-1l-7,-7v-1l-1,-1h-1v-1l-1,-2l-2,-2h-1v-3l-2,-2v-2h-1v-1l-2,-2v-1h-1v-1l-3,-3v-2h-1M924,260l-1,-2l-1,-1l-3,-6l-2,-1h-1v-1h-1v-1l-1,-1l-2,-4l-2,-3l-2,-4h-1v-3l-1,-1v-1l-1,-1v-1l-1,-1v-1l-2,-4l-4,-6v-2l-4,-4l-1,-2l-1,-1h1v-2l-1,-1v-1h-1l-1,-2l-1,-1v-5l-2,-2v-1l-1,-1M958,299l-1,-1l-2,-4v-1l-3,-6v-1l-2,-4l-1,-1l-1,-2v-2l-1,-1l-2,-4l-1,-1l-1,-2v-2l-1,-1l-1,-2l-1,-1l-2,-4l-1,-1l-1,-2v-2l-1,-1l-1,-2l-2,-2M964,316l-1,-1v-2l-1,-1l1,1v1l1,1l-2,-4l-1,-4l-2,-4l-1,-4v1l1,1v2l1,1v1M791,223h3l2,1h3l1,1h2l1,1h2l1,-1v-1h-1v-1h1v-1h1v-2l-1,-1v-8h2l1,-1v-3h2v-1h1v-1l-1,-1v-6h1v-2h1v-1l-1,-1h4l1,1h1v1h4v-1l1,1h2v-2h-1v-1l1,1v1M792,227v-3h2l2,1h2l2,1h3l1,1h3l1,1h3l2,1h2l1,1v-2l-1,-1v-1l-1,-1v-2l-1,-1v-1l-1,-1v-2l1,-1h1v-1l1,1l1,-1h1v-2h-1v-2l-1,-1v-2l-1,-1v-2l-1,-1v-2l-1,-1v-1l-1,-1v-1h3l1,1h2l1,1h2l1,1h3l1,1h2l1,1h1v-1l-1,-1v-1l-1,-2v-1l-1,-2l-1,-1l2,1l2,2l2,1l6,6l2,1l3,3l2,1l6,6l2,1M833,279l1,1l1,-1v-4l1,-1l4,4v1h1v-2h2l1,1h1l1,1h3v-1h-1l1,-1v2h2l1,1h3l1,1h2l1,1h1l2,1h2l1,1h2l1,1h3l-1,-2v-3l-1,-2l-1,-1l-1,-2v-2l-2,-4v-1l-2,-4v-2l-2,-4v-2l-3,-6v-1l-2,-4v-2l-2,-4l-1,-1v-2l-4,-8v-1l-4,-8v-1l-2,-4l2,1h1l4,2h2l8,8l3,2l8,8l2,3l2,2l3,2l6,6l2,3l5,5v1l2,2l1,2h1v1l1,1l2,1v1l2,2h1v1h1l1,1v1l1,1v3l2,2h3M901,301l-1,-1h1v1h2l1,1v-1l1,-1l1,1h2l2,1h1l1,1v-1l2,2v-1l1,-1v-6l-1,-2v-1l-1,-2v-3l-1,-2v-2l-2,-4v-2l-1,-2l1,1h5v-2l1,-1v-2l1,-1v-1l5,-5v-2l2,-2v-1l4,4l2,1v1l2,2l2,3l1,-1M955,338l-1,-3l-1,-2v-16l-5,-17l-1,-2l-1,-3v-1l-1,-2v-1l-2,-2v-2h-1l-2,-5v-1h-1l-4,-11v-1h1l1,2l2,2l6,9l1,3l2,3l2,2l2,3l1,3l2,3l1,3l4,6l1,2l1,3l2,3l2,7l2,4l5,17v2h1l-1,-1v-1h-1v1l1,2v3h1v4h1v5l1,1v5l1,1v1l1,1v2l1,1v2l1,2v3h1v4M804,265v-3h1v-2h1l1,1h7l2,1h1l3,3v1h1v1v-1h1v1h1l1,1v1l1,1v1h1v1h1v1h1v2h1v1h1l1,1v1h1l2,2v3l1,1v1l1,1v2l1,2v1h2v1l1,1v1h1v4l1,1M807,282h2l2,1h3v-1h3l2,2h1v1h1v1h3l1,1v1h-2l-2,-1l-1,-1h-2v-1h-1v-1h-1v1h-4l1,1h-3l-1,-1h-2"/>
<path class="sb" d="M808,291h3l2,1h2l1,-1h3l1,1h3l2,1h2M820,305l1,-1l1,-3h1l1,-1h1v1h3v-2l-2,-2v-1h1v-3l2,1h1l1,1v1h2v1h2v1h4v1h2v2h1l1,1h1v-1h1v1l1,1v1h1l1,-1h1l2,2h1v-1h2v-1l-1,-1h1l1,1h1v2l2,2v3h1v1h1v1h1v1h-1v2h2v4l2,2v1h1v1M878,325v-4l-1,-1h1v-6h2l1,-1v-4h1v-1l-1,-1v-2h2l2,2h1v-3h1v-2l1,-1h1l2,1v-2h2l1,-1h1v-1h2v1h1l1,1l2,1v3l1,1v1h1v3l2,2v1h1v1h1v1l1,1h-1v-1v3h1l2,4h1v1h1v-1l2,2v1h-1l1,1v1l1,2l1,1M833,322h1v1h1v-2h2v-3h1v-1h1l1,1h1v-1l1,1h3l1,1v1h1v1l1,2l1,1v3h1v1l1,1v2l-1,1v1h1l1,-1h1M846,343l1,-1v-1l2,-2h1l1,-2v-2h1v-1l1,-1v-1h1v1h2l1,1v1l1,1v3h1v3l1,1v1h2v-1h1v-2l1,1v1M872,371v-2l-1,-2v-2l1,-1v-6h-2v-1h-1v-2l-1,-1h-1v-1h-1v-1h-1v-1h-1l2,-2v-2l-1,-3v-1h-1v-1l1,1h1v-3l1,-1h-1v-1h-1v-2h2v1h1v1v-3h-1l-1,-1v-2h1v-1h-1v-2h-1v-1h-1v-5h1v-1h1v-1h1v1h1v1l1,1h1v1v-2h1l1,1v-1l-1,-1v-1h1v1h1v-1h1v4h1v1h1v-1h2l1,1h1v1h1v2l1,1v1h1v1h1v1h1v1l2,-2h1l1,1h1l3,3v1l1,1M896,373h2v-2l-1,-2h-1v-3l-1,-1v-3h-1v-4l1,-2v-6h1v-1h1l-1,-3v-2l-1,-1v-1l-1,-1l1,-1l-1,-1v-4l-1,-1v-4h-1v-4h1l2,1h1l4,2h1l1,1h2v-1v1v-1l1,1M917,373l-1,-1v-1h-1v-1l-1,-1v-1l-1,-1v-6h-1v-1l1,-1l-1,-4v-2l-1,-1v-1l-1,-1h1v-2l-1,-1v-3h-1v-7h-1v-1h-1v-1l-1,-1v-3l-1,-1l1,1l2,1l1,1h1M919,373v-3h-1v-6l-1,-3v-5l-1,-2v-5l-1,-1v-1l-1,-1v-4h-1v-1l-3,-3v-6l1,1v-2h1v-1l1,1h1l1,1v-1l1,-1v-2l-1,-2h2l2,3v1h1v1l1,1v1M924,374v-3h-1v-7l-1,-1v-7l-1,-2v-2h1v1l1,-1v-1l-1,-1l1,-1v-2h1v-2l-1,-1v-1h1v-1l-1,-1v-3l-1,-1l-1,-2v-2h1v-1h-1v-3l-1,-2v-1h1v-6l1,-1h2v1h1v-1l5,5v1h1v1l1,2l1,1v1h1v-1v1l2,-1l3,3l1,2l3,3l1,-2v-1h1l2,1l4,4v1l1,1v-2h1v-1h2l1,2v3l1,1M949,400v-1l1,-1v-7l1,-2v-1h1v-2l1,-1v1h1v-1h1v1l1,1v2l1,2v1h1v-3l1,-1v-1l-1,-1l1,-1v-8h1v-18h1v-6h-1v-2h-1v-2l-1,-1l-1,-4l1,1v1h1v2l1,1v2l1,2v1h1v3l1,1v4l1,3v1l1,2v1l1,1v2l1,1l-1,-1h-1v-1h-1l-1,-1v1h-1l1,1v2l1,1v1l2,4v1l1,1v1l1,2v3l1,2v3M975,438v-5l-1,-1v-2l-1,-2v-2l-1,-1v-1l-1,-2v-4l-1,-2v-2l-1,-3v-7h-1v-3h1v-8h1v1h1v-1h1v-1v2l1,1h1v-1h1l1,1h1v-4l-1,-1v-1h1l1,1h1v1l1,-1v-9l1,-1v2l1,1v1l1,3v2l1,2v3h1v6l1,1v2h1M994,441v-7l-1,-1v-4h-1v-5l-1,-1v-2l-1,-2v-4h-1v-4l-1,-2v-2h-1v-8h-1v-6h1v4l1,1l1,4v1l1,2v2h1v1v-4v4l1,2v1v-1v1"/>
<path class="sb" d="M955,423v1h1l1,1v1h1l1,1h1M954,433h1v1h1l1,1h1l2,2h1v-2l-1,-2v-7l2,2h1l3,3h1v1M959,478v-2h1v-1v1l1,1v1h1v-1h-1v-1h1v-2h-1v-8l1,1h1l1,1v-4h1v3l1,2v1h2v-1v3h1v-2h1v-11l1,-1v-1h-1v-2l-1,-1v-7h1v-6l-1,-1v-1h-1l-1,1v-2l-1,-1v-3l1,-2l2,2h1v1h1v1h1v1l2,2v2h1v1v-7l1,-1v-3h-1h1v-3l1,1h1l1,1v1l2,2M965,488v2l1,1l1,-1v-1h1l1,-1v6h1v-1l2,-2v-2h1l1,-1v-2l1,-3v-8l1,-1v-2l1,-2v-2h1l1,-2v-3l1,-2v-22l1,-1v-6l-1,-3v-3l1,-1v-3h1v1h1v3l1,1v3h1v1l1,1v2h1v1l1,2v-4h1v2h1v-1h1v2h1v-1l1,1v1l1,2v1v1h1v6h1v3l1,1v-1v5l1,2v6M998,500v-12l1,-1v-19h-1v-5h1v2M1000,496v12M997,510v-3h1v-5l1,-1v-1M997,525v-16l1,1v-1v1l1,1M994,560v-4l1,-1v-15l1,-1v-10l1,-2v-3h1v-11l1,-2v-8h1v9M961,489l3,-3l1,1v2h-1l-1,1v1l-1,3v2h-1M964,499h1l4,4h1l4,4v21h1v1h2l1,1v1h1v-4l1,-1v-2h2v4l1,1v1h1v6l-1,2v7l-1,2v8l-1,2v4l-1,1v2h1v2h1l1,1v-1M968,620v-8h1v-6l1,-3v-2l1,-2l1,-3v-2l2,-6l1,-2v-3l1,-3v-1l1,1v1l2,2v1v-1l1,-1v-2l1,-1v-4l1,-1v-4h1v-1v3h2l-1,1v7h1v1l1,-1v-1v5l-1,1v2h1v4h-1v7l-1,1h1v1v-1l1,-2v-3l1,-1v-2l-1,-1l1,-1v-7l1,-1v-4l1,-1v-3l1,-1v-3l1,-2v-5h1v-4h1v1l1,1v8h-1h1v1l-1,1v5M985,614v-3h1v-3l1,-1v-4h1v-3l1,-2v-2l1,-1v-4l1,-1v-3h1v-6l1,-1v-1v1v2l-1,2v5h-1v5h-1v4M941,591h2v1l1,1v-1h3v4l1,1v1h1v1h2l5,5v1h1l2,2v5h1v1l2,2v2l1,1h1v1h1l1,1h2v1h2v2h1l-1,1v2M940,670l2,-4l1,-3l3,-6l1,-3l2,-4v-2h1v1l1,1l1,-2l2,-6l2,-3l2,-7l3,-10l1,-2l2,2h2l1,1v2l-1,2v1v-1h1v-1h1v-1h1v1v-1h1v1M961,670l1,-1v-7l1,-2v-2h1v-3h1v-4l1,-1v-6l1,-2v-2l1,-2v-3l1,-1v-5h1v-2h1v4h1l1,-1v-1l1,-2l2,-2v-1h1v-1l1,-1v-2h1v-1h1v1M918,692h1l1,-1v-1l1,-1h1v1l-1,1v2h-1v3l1,1v1l1,1v1h1v-1h1l1,-1h1l1,-1l1,-3l2,-4l4,-6l1,-4l2,-3l2,-4l1,-3v4h-1v3l-2,4v1l-1,1v1h-1v1l-1,2v1l1,1v1h1v-1h1v-1l2,-2h1l1,-2l1,-1v-1l1,-1h1v8l1,-1v1l1,-1v-1l3,-3v-1l1,-1v1l1,-1v-1h1l2,-4l1,-1v-1h1v-1l1,1v-1l2,-2v-1h1l1,-1l1,1l-1,2l1,1v2M946,712l-2,2v1v-3l1,-2l1,-1v-1l1,-2l1,-1v-1l2,-2l-1,2v1M946,714v-2l1,-2v-1l1,-1v-1h1v-3h1v-1l1,-2l1,-1l1,-2v-1l1,-2l1,-1v-1l1,-1v-2l1,-1v-2l1,-1v-1l1,-1l1,-3v-1l1,-2v-1l2,-2v-1l1,-1v-1l1,-1v-1h1v-1l1,-1v-2l2,-2v-1l1,-2v-1l1,-2v-2l1,-1v-1l1,-1v-2h1v-3h1v-2l1,-3l1,-2v-2l1,-1v-2h1v-6l1,-2v-8l1,-1v-3l1,-1v-1h3l-1,2v7l-1,1v2l-1,1v2l-1,1v3h-1v4l-1,1v3l-1,1v2l1,-3v-2l1,-1v-2h1v-3l1,-2v-1l1,-2v-1l1,-2v-2l1,-2v-3l1,-3v-3l1,-1v-3l1,-2v-3l1,-1v-3l1,-1v-1v3l-1,1v4"/>
<path class="sb" d="M931,729h1v-1l1,-1v-1h1v-1l1,-1v-2l1,-1v-2h1v-1h-2l-1,1v1h-1v1h-1v1h-1v1l-1,1v1l-1,1v2h-1v3l2,-2h1"/>
<path class="si" d="M519,641v2h-1l-1,1v1h-1v4"/>
<path class="sg" d="M 283.9976 950.1206 A 249.7500 69.9608, 0, 1 1, 715.0024 950.1206"/>
<path class="sg" d="M 73.1036 759.6660 A 432.5797 121.1757, 0, 1 1, 925.8964 759.6660"/>
<path class="sg" d="M 0.0000 499.5000 A 499.5000 139.9216, 0, 1 1, 999.0000 499.5000"/>
<path class="sg" d="M 73.1036 239.3340 A 432.5797 121.1757, 0, 0 1, 925.8964 239.3340"/>
<path class="sg" d="M 283.9976 48.8794 A 249.7500 69.9608, 0, 0 1, 715.0024 48.8794"/>
<path class="sg" d="M 248.8574 67.4369 A 431.7953 499.5000, -210.11829627, 0 0, 750.1426 931.5631"/>
<path class="sg" d="M 406.0027 8.8285 A 269.6925 499.5000, -190.78836205, 0 0, 592.9973 990.1715"/>
<path class="sg" d="M 489.1659 0.1069 A 35.3257 499.5000, -181.18547453, 0 0, 509.8341 998.8931"/>
<path class="sg" d="M 566.4560 4.5079 A 208.5065 499.5000, -172.29654206, 0 1, 432.5440 994.4921"/>
<path class="sg" d="M 689.7000 37.6297 A 396.4696 499.5000, -157.61794835, 0 1, 309.3000 961.3703"/>
<path class="sg" d="M 982.4876 372.1296 A 478.1990 499.5000, -104.77333340, 0 1, 16.5124 626.8704"/>
<text x="0" y="0" class="fs" transform="translate(92,242) rotate(112)">120W</text>
<text x="0" y="0" class="ft" transform="translate(92,242) rotate(112)">120W</text>
<text x="0" y="0" class="fs" transform="translate(245,192) rotate(104)">90W</text>
<text x="0" y="0" class="ft" transform="translate(245,192) rotate(104)">90W</text>
<text x="0" y="0" class="fs" transform="translate(466,170) rotate(91)">60W</text>
<text x="0" y="0" class="ft" transform="translate(466,170) rotate(91)">60W</text>
<text x="0" y="0" class="fs" transform="translate(696,183) rotate(76)">30W</text>
<text x="0" y="0" class="ft" transform="translate(696,183) rotate(76)">30W</text>
<text x="0" y="0" class="fs" transform="translate(874,226) rotate(68)">0W</text>
<text x="0" y="0" class="ft" transform="translate(874,226) rotate(68)">0W</text>
<text x="0" y="0" class="fs" transform="translate(610,849) rotate(8)">60S</text>
<text x="0" y="0" class="ft" transform="translate(610,849) rotate(8)">60S</text>
<text x="0" y="0" class="fs" transform="translate(689,626) rotate(8)">30S</text>
<text x="0" y="0" class="ft" transform="translate(689,626) rotate(8)">30S</text>
<text x="0" y="0" class="fs" transform="translate(717,369) rotate(8)">0N</text>
<text x="0" y="0" class="ft" transform="translate(717,369) rotate(8)">0N</text>
<text x="0" y="0" class="fs" transform="translate(687,148) rotate(8)">30N</text>
<text x="0" y="0" class="ft" transform="translate(687,148) rotate(8)">30N</text>
<path class="tb" d="M717,998h-2l-1,-1h-2l-1,-1h-2l-1,-1h-2v-1h-3v-1h-2l-1,-1h-2v-1h-2l-1,-1h-2v-1h-2v-1h-2l-1,-1h-2v-1h-2v-1h-2v-1h-2v-1h-2v-1h-2v-1h-2v-1h-2v-1h-2v-1h-1l-1,-1h-1v-1h-2v-1h-2v-1h-1v-1h-2v-1h-1l-1,-1h-1v-1h-2v-1h-1v-1h-2v-1h-1v-1h-1l-1,-1h-1v-1h-1v-1h-1l-1,-1h-1v-1h-1v-1h-1v-1h-2v-1h-1v-1h-1v-1h-1v-1h-1l-2,-2h-1v-1h-1v-1h-1v-1h-1v-1h-1v-1h-1v-1h-1v-1h-1v-1h-1v-1h-1v-1h-1v-1h-1v-1h-1v-2h-1v-1h-1v-1h-1v-1h-1v-1l-1,-1v-1h-1v-1h-1v-1l-1,-1v-1h-1v-1l-1,-1v-1h-1v-1l-1,-1v-1h-1v-2h-1v-2h-1v-1l-1,-1v-1l-1,-1v-1l-1,-1v-2h-1v-2h-1v-3h-1v-2h-1v-4h-1v-3h-1v-5h-1v-6l-1,-1v-17h1v-7h1v-4l1,-1v-3h1v-3h1v-3h1v-2l1,-1v-2h1v-2h1v-2h1v-2h1v-2h1v-2h1v-2h1v-1h1v-2h1v-1h1v-2h1v-1h1v-1l1,-1v-1h1v-1h1v-1l1,-1v-1h1v-1h1v-1h1v-1h1v-1h1v-1h1v-2h1v-1h1v-1h1v-1h1v-1h1l3,-3h1v-1h1v-1h1v-1h1v-1h1v-1h1v-1h1l1,-1h1v-1h1v-1h1v-1h1l1,-1h1v-1h1v-1h2v-1h1v-1h1v-1h2v-1h1v-1h2v-1h1v-1h2v-1h1l1,-1h1v-1h2v-1h1l1,-1h1v-1h2v-1h2v-1h2v-1h1l1,-1h1l1,-1h1l1,-1h1l1,-1h1l1,-1h2v-1h2v-1h2v-1h2l1,-1h2v-1h2v-1h2l1,-1h2v-1h3v-1h2l1,-1h2v-1h3v-1h3v-1h159v1h3v1h3v1h2l1,1h2v1h3v1h2l1,1h2v1h2v1h2l1,1h2v1h2v1h2v1h2l1,1h1l1,1h1l1,1h1l1,1h1l1,1h1v1h2v1h2v1h2v1h1l1,1h1v1h2v1h1l1,1h1v1h2v1h1v1h2v1h1v1h2v1h1v1h1v1h2v1h1v1h1l1,1h1v1h1v1h1v1h1l1,1h1v1h1v1h1v1h1v1h1v1h1v1h1l3,3h1v1h1v1h1v1h1v1h1v2h1v1h1v1h1v1h1v1h1v1h1v1l1,1v1h1v1h1v1l1,1v1h1v1h1v2h1v1h1v2h1v1h1v2h1v2h1v2h1v2h1v2h1v2h1v2l1,1v2h1v3h1v3h1v3l1,1v4h1v7h1v17l-1,1v6h-1v5h-1v3h-1v4h-1v2h-1v3h-1v2h-1v2l-1,1v1l-1,1v1l-1,1v1h-1v2h-1v2h-1v1l-1,1v1h-1v1l-1,1v1h-1v1l-1,1v1h-1v1h-1v1l-1,1v1h-1v1h-1v1h-1v1h-1v2h-1v1h-1v1h-1v1h-1v1h-1v1h-1v1h-1v1h-1v1h-1v1h-1v1h-1v1h-1v1h-1l-2,2h-1v1h-1v1h-1v1h-1v1h-2v1h-1v1h-1v1h-1l-1,1h-1v1h-1v1h-1l-1,1h-1v1h-1v1h-2v1h-1v1h-2v1h-1l-1,1h-1v1h-2v1h-1v1h-2v1h-2v1h-1l-1,1h-1v1h-2v1h-2v1h-2v1h-2v1h-2v1h-2v1h-2v1h-2v1h-2l-1,1h-2v1h-2v1h-2l-1,1h-2v1h-2l-1,1h-2v1h-3v1h-2l-1,1h-2l-1,1h-2l-1,1h-2Z"/>
<path class="tl" d="M759,986h1v1h-3l-1,-1h2v-1ZM704,989h-3l-1,-1h2l1,1ZM766,983h1l1,1v1h1l-1,1h-2l-1,1h-1l-1,-1l1,-1v-2h1v-1ZM714,980h2v1h-1ZM712,980l1,1h-1l-1,-1ZM726,977h1h-2ZM746,974v1l1,1h-5v-1l1,-1v-1l-1,-1l1,-1v1h1l1,1ZM748,964v1h-2v2h1l-2,2v1h1l1,1h1l4,4v1l1,1v1h-1v2h-1l-1,1h-1v1h-2l1,1h1v1h-2l1,1h1v1h3l1,1h3l1,1h3l1,1h1l1,1v-1h1v-1h2l2,-1l1,1h1v-1h4v-1h3l1,-1h-1v-1h-4l-1,-1l1,-1h1l2,-2h4l1,-1h1l2,-2h-1v-1h1v-1h2v-1l1,-1h1v1h1v-1h8v-1h3v-1h1l1,1h2v-1h1v1l1,-1h4v1h6v-1h3v-1h2v1h3l1,-1h3v-1h2l1,-1h2l1,-1h4v1h1v1h1l1,1h1l1,-1l1,1h2v1l-2,2h-1v1h1h-1v1h-1v1h2l2,-2h1v-1h3l1,-1h1v-1h2l1,-1h5v-1h1v1h5v1h1l1,-1l1,1l1,-1h1l2,-1v1l1,1h3l1,-1h2v1h1v1h4l1,-1v1h9l1,-1l-1,1v1h-1h3l1,1h2l-1,1v1h1v1h2v1h1v2h2l1,1v1h-1l-1,1h-2l-1,1h-3l-1,1h-2l-1,1h-2l-2,2v1h-5l-1,1h-2v1h-1v3h2l-11,4h-155l-11,-4h-1h2l1,-1l1,1h14l-1,-1h-7v-1h-2v-1h-3l-1,-1h4v-1h-2l-1,-1h-7l-1,-1l-2,-1l1,1l1,-1l2,1v-1h1v-1l-1,-1h-1h2v-1h2v-1h4l1,-1h5l1,-1l1,1v-1h1l1,1h1v-1l1,1h6v-1h-2l-1,-1h-1l-1,-1h4l1,1h1l1,-1h3l-1,-1h1l1,1l1,-1l1,1h3v-1l1,1h4v-1h2l1,-1v-1h-1v-1h-1v-1h-1v-1h-1v-2l-1,-1v-1h1v-2h1v-1h1v-1h1l1,-1l1,1ZM734,951l2,1h1v1h-1v-1v1h-4l-2,-2l-2,-1l2,1h2v-2h1v1ZM741,947h1v1h-2v1l-1,-1l1,-1ZM859,946h-1v-2h1l1,1ZM935,939v1h1l1,-1v1l-3,3v-1l-1,1h-1l1,-1v-1l1,-1v-1ZM958,943v1l1,-1v1h-1l-3,3h-1l-1,1h-1l-2,2h-2v1h-1v-1h-1v-1l4,-2h1l1,-1h2l2,-2h1l2,-2ZM966,936l-1,2l1,-1l-1,1l1,1h1l-2,2h-1l-2,2l-2,1h-1l2,-1v-2l1,-1l2,-1v-1l1,-1v-3l1,-1v1l1,1ZM972,913l-1,1v-2l-1,-1v-1h1v1l1,1ZM987,906v1l-1,1h-1v-1l1,-1v1ZM988,906h-1v-1h1l1,-1v1ZM600,905v-1ZM976,904v-1ZM976,901v2h-1v-1ZM849,895v2l1,1h-1v1v-1v2h-1v3l-3,6v2h-1l-1,1l-1,-1h-1v-5h1v-2l1,-1h-1v-3h1v-1h1l2,-2h1v-1l1,-1v-1l1,-1v1ZM951,898v1h1v1h1l-1,1v2h1l-1,2v1l2,2v4h1l-1,2l1,1v3l-1,1v2l-3,3v1l-1,1l-1,2h-1l-1,2h-1l-4,4v1h-2l-1,1h-1l-1,1v-1h-1l1,-1h-1l-1,1h-1v-1h-1v-3h1l-1,-1v-1l1,-1l-1,1h-1l3,-3l-2,1h-1l-1,2v-4l-2,-2h-2l-1,1h-4l-2,2h-4l-1,1v-1l-1,1h-2v-1h-1l1,-1v-1h1v-3l1,-1v-7l1,1v-3l1,-1v-1l1,-1l-1,1l2,-2h1l1,-1h2l1,-1h2v-1h1l1,-1v-2l1,-1v2l1,-1v-1h1v-1l2,-2h2v1h2v-2h1l1,-1v-1h2v-1h-1h1l1,1h3l1,1h-1v1h-1v1l-1,1v1l2,2v1h1l1,1h1v-1l1,-1v-1l1,-1v-3l1,-1v-2h1v-1v3l1,1Z"/>
<path class="tl" d="M973,894h-1v-1v1ZM927,892l-2,-1h2ZM971,893h-1v-1h1ZM972,892v-1l-1,-1h1ZM931,892h-1l3,-3h2l-1,1h-1l-1,1ZM925,889h1v1h-3l1,-1ZM930,889v1h-3v-1h2ZM971,890v1l-2,-2h1v1ZM968,889v-1h-1v-1l1,1ZM915,887h2v-1l2,1v1h2l1,1l-1,1l-1,-1h-4l-1,-1h-1l-2,-1h-1l1,-2h1l1,1ZM943,886v1v-2ZM967,888h-1v-2l-1,-1h1v2h1ZM963,885l-1,1h-1l-1,1l-1,-1h-1l1,-1l1,1v-1h2v-2h1v1ZM935,882h-1v-1h1ZM939,881v2l-1,-1h-2v-1h2ZM964,884l-1,-1v-1l-1,-1h-1h2v2h1ZM943,878v3l2,1v-2l2,-1h1l1,1h1l1,1l4,2v1h1v1l2,1v1h-1v1l1,1v2h1v1h1h-1l1,1l-1,1v-1h-2l-1,-1v-3h-3l-1,1v1h-2l-2,-2v1h-2l1,-2h1l-1,-2v-1l-2,-1h-1l-1,-2l-1,1l-1,-1h1l-1,-1l1,-1h-1v-1h-1l-1,-1h2v-1ZM933,875l-1,1h-4v1l1,2v-1h2l-1,1h-1l1,2v1l1,2v1h-1v-2l-1,1v-1l-1,-1l1,-1h-1v4h-1v-3h-1v-1l1,-1v-4h1v-1h4l1,-1ZM937,875v1h-1v1l1,1h-1v-4h1ZM911,885h-1l-2,-2v-1l-2,-2l-1,-2v-2l-1,-1v-1l-4,-4v-1h2l3,3l1,2h1l2,2h1l-1,2h1v1l1,1h1v3ZM925,874l1,1h-1v3l-1,1v1l-1,3v-1l-1,1l-1,-1h-1v-1l-1,1l-1,-1h-1l-2,-4v-2l1,-1h2v-2h2v-1l1,-1v-1h1l1,-1v-2h1v1l2,2v1h-1l-1,2l1,1ZM934,864v3l-1,-1v2l-2,-2h1l-1,-1v1l-1,-1l-1,1v-1l1,-1h2v-1h1v-1l1,1ZM884,868h-1v-1l-1,-2l1,-2l1,1v1l1,1v1ZM727,863h-1l1,-1h1ZM931,861v1l-1,1l-1,-1l1,-1v-1v1l1,-1ZM925,863l-1,1v-1l1,-1v-1l1,-1v1l-1,1ZM928,859h2v1l-1,1v-1h-1ZM932,858l1,2h-1v1v-1h-1v-1h1h-1v-1ZM928,857l-1,1l-1,-1h1ZM926,849h1v6h1l2,1v2l-1,-1v-1v1l-1,-1h-2v-1h1h-1l-1,-1v-5ZM723,851v1h-1v-1ZM711,852h-1v-1h2v1ZM716,849h3v1h1v1h-2l-1,1v-1h-1v-2h-1ZM914,849l-1,1h-1v-2l1,-1h1v1ZM627,846v-2h1v2ZM628,844h-1v-1h1ZM709,845h2l1,1v1h1v1h2l-1,1h-3v-1h-1v-2h-2l-1,-1h-1h1h-2l-1,1h-1l2,-2h3ZM712,843h-1v-1l1,-1v1ZM924,843v1l-2,-2v-2l1,-1l1,1ZM712,839l-1,1v-1ZM713,839v1v-1h-1ZM930,825h1v1h-1v1h-1v-2ZM830,828l-2,2v-1h-1h2ZM819,828v1h-1ZM810,825v2h-1l-1,-1h-1v-1h2ZM804,821v3h-1v-3ZM934,820v1l1,1v1l-1,1h-1l-1,2l-1,-1v-1l-2,1l-1,1h-1l2,1v3l-1,-1v-1h-1l-1,-1l1,-1v-3h3v-3l1,1v-2h1l-2,-4v-1l3,3v1ZM804,820v1l-1,-1v-1l1,-1ZM930,810l1,-1l1,2h-1v2l-2,-1l1,2h-1l-1,-2l-1,-1h1l-1,-2l-1,-1l3,1ZM734,812l1,1h1h-2ZM737,809h-1l-1,-1h1ZM682,806h-1l-1,-1v-2h-1v-1h1l1,1v1l1,1ZM743,807l-1,1h1v1h2l-1,1h1v1l-1,2l-1,-1l1,-1l-2,1v-1h-3l1,-1h-1l4,-4h1Z"/>
<path class="tl" d="M680,797h1l-2,2v1v-3ZM922,800l3,3l-2,-1l1,2l2,2v1l-2,-2l-1,-2l-6,-6v-1h-1h1l3,3ZM788,806l-1,1h-2l1,-2v-1l2,-2h1v3ZM806,801l-1,2l-1,-1v-1h1ZM669,791h-1v-1h2ZM792,797l-1,2h2v1l-1,1h1l2,4h1v1l-1,1h1l-1,1h-3l-1,1h-2l2,-2h-1v-1h1l-1,-1v-1h2l-1,-1h-1v-2l-1,-1l1,-2v-1l1,1ZM665,786h-1v-1h1ZM731,790l-1,1v-1ZM729,790h-2l1,-1h1ZM668,780v1h1h-2v-1ZM729,786h1v1h1l-1,1h1l-1,1l-1,-1h-1l-2,1l1,-1h-1h1l1,-1l1,-2ZM783,787v1l1,1l-1,1h-3l-1,1l-1,-1h-2l1,-1h-1h1v-1h-2l1,-1h1l1,1l2,-1h2ZM737,784h-1l1,-1h2l-1,1ZM671,776v1l1,-1h2l-1,2h-3l-1,1h-1l-1,-1h1v-1h-1h1h-2l-1,1l8,-5v1l-1,2ZM725,780l-1,1v-1h-1l1,-1h1ZM912,771h-1ZM678,771h-1h2ZM729,780l-1,2l2,-1v1h-1v1l1,-1l2,-1l1,-1h2v2h-1v1l-1,1l-2,1h-1v-1l-1,1l-2,1v1h-3l-2,2h-1l-1,1l-2,1l-1,1l-1,2h1l-1,1v1h1l3,3l2,1h1l-2,2v2l1,1h1l2,-4h-1l4,-2v-1l1,-1v-1l-1,-1l2,-1l2,-4l1,1h1l1,-1v1l1,1h1v2l-1,1l1,1h2l1,-2h1v3l1,1l-1,1l1,1v1h1l1,1v1l1,1l-2,2h-2l-2,2h-1l-2,-1h-2l-2,1l-1,1l-2,1l-1,1l2,-1l3,-1h2l-1,1l-1,2v1l1,1l2,-1l1,-1v1h1l-4,2h-1l-2,1v-1l2,-1h-3v1h-1l-1,1h-1l-2,2l1,1v-1v1h-3l-1,1l2,-1v1h-2l-2,2v1l-1,1l-1,-1l1,-1l-1,1v4l-1,1h-1l-1,1h-1l-3,3h-1v8l-1,1h-1v-3l-1,-1l1,-1l-1,-2l-1,1l-1,-1h-4v1h-1l-1,-1l-1,1l-1,-1l-2,2h-2v1h-1v3l-1,1v1l-1,2v4l1,1v1h1v1l1,-1h3v-1l1,-1v-1l1,-1h3v1l-1,1v2l-1,1v-1v2l-1,1v1h5v1h1v1l-1,1v3l-1,1h1v2h1v1h2l1,-1h1v1h1l1,1l1,-1v-2l1,-1h2l2,-2v2h-1h1v1l-1,1v1h1v-3h1v-1h1v1h1v1h3l1,1l1,-1h1l1,1h1v1l1,1h1v1h1v1l1,1l2,1v-1h1l1,1h1l1,1v1h1v1l1,2v1l-1,1l1,1h2v1v-1l4,2v1h1l3,1h1l2,1l2,2h2v5l-1,1l-1,2l-2,2v9l-1,2v2h-1v1h-2l-1,1h-1l-3,3v5l-1,2l-2,2v2l-2,2v-1l-1,1l-1,-1h-1v-1v1l1,1v1l1,1v2l-2,1h-3l1,1v2l-1,1l-1,-1h-1l1,2h2l-2,2l1,1v1h-1l-1,1v1l2,1h1v1l-1,1v2h-1v1l2,2h-1l-1,1v1h-1l-2,-1l-3,-3l-1,-3v-1l1,-1h-2l1,-2l-1,-2h1v-2l-1,-1v2l-1,-2v-4l-1,-1l-1,-2h1v-6l-1,-2v-8l-1,-2v-6l-1,-2l-1,-1l-2,-1l-3,-2l-1,-1v-1l-1,-2l-1,-3l-2,-3l-2,-2v-1l-1,-2l2,-2v-1h-1v-3l1,-1v-1h1v-2h1l1,-1v-5l-1,-1v-2h-1v1h-1v1h-1l-1,-1h-2v-2h-1v-1v1h-1v-3l-2,-2h1h-2v-1h-2l-1,-1l-1,-2h-1l-1,-1v1h-2l-1,-1h-2l-2,-2h-1l-1,-1v-1h-1v-3h1l-1,-1v-3l-1,-1v-1l-1,-1v-3h-1v-5l-1,-1l-1,1v4h1l-1,1h1v5h1v2h-1v-1l-1,-1v-3l-1,-1v1v-1h-1v-1h1v-9h-1v-1h-1v-9l2,-2v-1l1,-2l2,-2l1,-2l1,-1v-1h1v1l2,-2h-1v-2l-1,-1v-1l1,-1l-1,-1l1,-1v-1l1,-1l-1,-1l1,-1v-1l1,-1l-1,-1h-1v-2h-1v-1h-1l-1,-1h-1l-1,1h-4l1,-1l2,-1h-1l-1,1l-2,1h-1l-1,1l-2,1h-2l-2,1h-1l-1,1h-3l-1,1h-2l1,-1h2l2,-1h2l2,-1h1l2,-1l1,-1h-3l1,-1l-1,1h-1l2,-2h-1v-1l2,-2l2,-1h3l1,-1h1l1,-1h-3v-2h4l1,1l1,-1v-3h4l1,-1h2l2,-1l1,1l1,-1h1l-1,1h1l1,1h2l1,1h2v1l1,1l1,-1h6l1,-1v2l2,-1l-1,1h2l1,1h2v1l-2,1h4v1l2,-2h2v1h1l1,1h2v-1h1l1,1l-1,1l1,-1h1l1,-1v-2l1,-1l2,-1l1,1l-2,2Z"/>
<path class="tl" d="M718,774l-1,1h4l-1,1h1l2,-2v1l-1,2v1l1,1h-2v1h-8v-1h-1v-1h4l-1,-1h-3l2,-1h-1l1,-1h1ZM725,774l-2,1v-1h1ZM742,776v1l-1,-1l-1,1v-2h2ZM736,776v1l1,-1l2,-1v2h3l1,1l-1,1l2,-1v1l1,1v2h-1l2,2v1h1v1l-2,1h-1l-1,-2l-1,1v1l1,1v2l-1,1l-2,-2v1l1,1h-2l-2,-2v-1l-1,-1v1h-3v-1l1,-1h3l1,-1l2,-1v-1l-1,-1h-1l1,-1l-1,-1h-5l-1,-1h-1l1,-1h-1l1,-1l2,-1l1,-1h2ZM728,774h2l-1,1h-1l1,1l-2,1h-2v-2l1,1v-1ZM888,772h-2v-1ZM731,776l-2,1v-1l2,-2h2l1,1l-2,1ZM712,776h-2l-1,-1h1l2,-1l2,-2h2v1h2v1h-1l-3,1h-2ZM889,769v1h-3v-1h1ZM733,773v1l-1,-1h-1l1,-1h1l1,1ZM885,769l1,1h-2l-1,1l-2,-1l-1,-1h2ZM733,771h-1v1l-1,1h-2l1,-1h-1l1,-1h2ZM726,771h1v1h-4l-2,1h-1l1,-1h-1l-1,-1l2,-1h1l2,1l1,1v-2h2ZM836,780h-3l-2,-1v-1l1,-2h-1l1,-1l-1,-1h1l4,-2h2l-1,1l-2,1l-1,1v2l-1,1l1,1ZM735,770l1,1h1l-1,1h1l1,1h4v1h-7l-1,-1l1,-1v-1h-2l1,-1ZM724,769l-2,1h-4l2,-1h3ZM861,770l1,1v-1h2l2,1h1v1l-1,1h1l2,1v-1l1,1l1,-1h2l1,1h3l-2,-1h5l1,1v1h2l2,1l-1,-1h1l1,-1l2,1v-1h1l-2,-1h8l3,1l1,-1h2l2,2h2v-1h3l3,1v-1h-2v-1h7l8,5h-1l1,1l2,1h2v1h-1v1h-1l1,1v2l-2,-1v2l-1,-1v1h-1l2,2v1h1l3,2h-1l1,1h1v1l1,2h-1l1,2l1,1l-4,-2l-4,-3l-1,-2l-1,-1v-3l-1,-2v-1l-2,-2l-1,1l2,2l-3,-1l-1,1l1,2l1,1h-1l-1,1l-1,-1h-1v1h-4v7h1l2,1h1l-1,-1h1l3,1l1,2l1,1l1,2l2,2v9h-1l-1,-1v2h-1v1l1,1v1h-1v1l1,1h1l2,2v1l1,1v1l-1,1h-1l-1,-2l-1,-1h1l-2,-1v-1v1v-1h-1v-1l-1,-1h-2v1h-1l-1,-1l1,-1l-1,-1l-1,1v2h-1v1l2,2h1v-1h2l1,1l-2,1v2l2,2l1,2l2,1v2h1v6l-2,4l-1,1h-1v1l-1,-1v1l-2,1h-1v2l-1,-1v-1h-2l-1,2v2l1,1l1,2l2,2l1,3v4l-2,1v1l-2,1v-2l-1,-1h-1v-1l-2,-2h-1v-1h-1v6h1v3l1,1h1v1h1v1l1,1v3h1v2h-1l-2,-2v-1l-1,-1v-1l-1,-1v-2l-1,-1v-1h-1v-6l-1,-1v-1l-1,-2v-2l-1,-1l-2,2h-1v-3l-1,-2v-1h-1l-2,-2v-1l-1,-1h-1v2l-1,-1v1h-2v2l-2,1l-1,2v1l-2,2h-1v8l-1,1l1,1h-1l-1,1l-1,-1l-1,-2v-1l-1,-1v-1l-1,-2v-1l-3,-6v-3l-2,1h-1l-1,-2v-1l-2,-1l-1,-1v-1l-1,-1l-2,1h-5l-1,-1h-2v-2h-1l-1,1h-2l-3,-3l-1,-2l-1,1v-1l-1,1v2l1,1h1l1,1v2l1,1l-1,-1l1,-1v2h1v1l1,-1h2v-1l1,-1v-1v2l2,2h1l2,2l-1,1v1h-1v3h-1v1h-1v1h-2v1h-1l-2,2h-1l-2,2v-1l-1,1h-2v1h-2v-2l-1,-1v-3h-1v-1l-1,-1v-1l-1,-1h-1v-1l-1,-1v-3h-2v-2l-1,-1v-1l-2,-2v-1v1l-1,1l-1,-1l-1,-2l1,2l1,1l1,2v1l2,2h-1l2,2v1l1,1h-1l1,2v1l1,1l1,2v1l1,1l2,1v1h1v1h1v1l-1,1h1l1,1h3l1,-1h3v-1h1v2l-1,1v3l-1,1l-3,6l-1,1l-2,1l-1,1l-1,2v1h-1v1h-1v2l-1,1l-1,2l1,1v4l1,1v7l-1,1h-1l-3,3h-1v1l-1,1v2h1l-1,1h1v1l-1,1h1l-1,1h-1l-2,2v3l-3,3v1l-2,1v1l-1,1h-2v1l-1,-1v1l-1,-1l-1,1h-2l-1,1l-1,-1h-1v-5l-1,-1v-2l-1,-1v-1l-1,-1v-5l-1,-1v-1l-1,-2v-1l-1,-1v-3l1,-1v-3h1v-1l1,-1v-1h-1v-5l-1,-1v-2l-3,-3l-1,-2l1,-1v-5l-1,-1v-1l-1,1h-2l-1,-1v-1l-1,-1h-2l-1,1h-2l-1,1h-6l-1,1l-4,-4h-1l-1,-1v-1l-1,-1v-1h-1v-1l-1,-1v-1h-1v-3h-1l1,-1v-1h1l-1,-1l1,-1v-4l-1,-1v-1h1v-2l1,-1v-1h1v-2h1l1,-2h1l2,-2v-3l3,-3l1,-2v-1h1l1,1h2l1,-1h2l1,-1h4l1,-1h1v1h1l1,-1h1v1l1,-1v1h-1v1h1v2h-1v1h1v1h3l2,2h1l2,2l1,-1v-2l1,-1h2l1,1h1l1,1h2l1,1h1v-1h2l1,1v-1h1l1,1v-2l1,-1v-5h-2l-1,1l-1,-1h-2v1l-1,-1h-2v-1l-1,-1v-2l1,-1h1v-1h2l1,-1h1l2,-1l2,1l1,1h2l1,-1v-2h-1l-2,-2h-1l-1,-1l1,-1l-1,-1h2l-1,-1v1h-2l-1,1v1h1l-1,1h-1v-1h-1l1,-1h-2v-1h-1v1l-1,1v1h-1v4l1,1h-2v1h-1v-1h-2l1,1h-2v1l1,1h-1h1l1,1v1l-1,-1v1h-1l1,1h-2v-2l-1,-1v-1h-1v-3h-1v-1h-1l-1,-1h-1l-1,-1v-1l-1,-1v1v-1h-2v1l2,2v1l1,1h1l1,1h1l1,1v1l-1,-1h-1v1h1v1h-1v1h-1v-1h1l-1,-1v-1h-1l-1,-1h-1l-2,-2l-1,-2h-2v1h-4l-1,1v2h-2v1l-1,2h1l-1,1v1h-1l-1,1h-2l-1,1l-2,-2v1h-2l1,-1v-1h-1v-2l1,-1v-3l-1,-1l2,-1l1,1h5v-4l-1,-1v-1h-2v-1h3v-2l1,1l2,-1v-1h1l1,-1l1,-2l1,-1h2v-5h2l-1,1h1v1l-1,1v1h1v1l1,-1h2v1h1l2,-2l1,1h1v-1h1v-3l1,-1l1,1v-1l-1,-1v-1h4l1,-1h-4l-1,1l-2,-2v-4l2,-1v-1l-1,-1l-2,2l-1,2l-1,1v3h1v2h-1v2l-1,2h-1v1h-1v-2l-1,-1l-1,-2l-1,-1l-1,2h-1l-2,-1v-5l2,-1l3,-3l2,-3l3,-3h2l1,-2h3l2,1l-1,1h2l1,1h3l3,1l1,1v1l-1,1h-1l-3,-1h-1l2,1v2l1,1h1v-1h-1l1,-1l2,1v-1l1,-2h1l1,1v-1l-1,-1v-1l-1,-1l2,1h1l-1,1l1,1h1v-1l1,-1l2,-1h1v1l1,-1h1l1,-1l1,1l1,-1h-2l1,-1h2l1,1l4,1v-1h-2v-1h-1l-1,-1v-3h2l1,1v1h1l1,1l1,2h1v3l1,1v-1h1l-1,-1l1,-1h-1l-2,-2v-1l-2,-1l1,-1l-1,-1h1l1,2l-1,-1l1,-1h2l1,1l-1,-1l-1,-2h4l-2,-1v-1h1l1,-1h3l1,-1h1v-2l2,1h-1ZM843,820l1,1v2h-1v1l1,1h1l1,1h3l-1,-1v-2h-1v-2h1v-1l-1,-1h-1l1,1l-1,-1v-1h-2v-2h-1h1v-2l1,1v-3h-2l-1,1h-1v1h-1l-1,2l2,1v1l1,1Z"/>
<path class="tl" d="M736,770h-1v-1h1l1,1ZM727,769h-2l1,-1h1l1,1ZM810,771l-1,1h-1v-1h-1l2,-1v1ZM729,768h-2l1,-1v1ZM736,769h-1v-1h1l1,1ZM734,769h-1l-1,-1h-1h1v-1h1l1,1ZM858,768l-3,1v-2ZM805,769l3,1h-2v3h-1l-2,-1h1l-1,-1l-2,-1v-1l1,-1l1,1h1v-1h1ZM810,768h1l-1,1h-4l-1,-1h3ZM824,767l-1,1h-1v-1h-1h4ZM854,768h-4l-2,-1l-1,-1h1l1,-1l4,2ZM743,767v1h-1l-2,1h-2v-1h1h-1v-1l1,-1h2v-1h1v1h1ZM757,764h3v1h-3l-1,1h-1l-1,1l-2,1h-3v1h-1v1h-2l-2,1h1l-2,1h-4l-1,-1h2v-1h2v-1h-1h1l1,-1h1l-1,-1h4l-1,-1h-3v-1l1,-1h6v-1h3v1l2,-1l1,1ZM780,764l3,1h-6v1h5l-1,1l2,-1h4v1l-2,1h-1l-2,2v2l1,1h-2l1,1l-1,1v1h-1l1,1h-3l1,1v1l-1,-1l-1,1h1l1,1v1h-2l-1,-1v1l-1,1h3l-4,2h-3l-1,1l-4,2h-1l-2,1h-1v1l-2,2v1l-1,1l-1,2h-1l-1,-1h-1l-1,-1v-2l-1,-1v-1l1,-1l-1,-2l1,-1l1,-2h1l1,-1v-1l-1,1h-1v-1l1,-1h1l-1,-1h-1l1,-1v-4l-1,-1h-5v-1l-1,-1h1l-1,-1l1,-1h2l3,-1h1l-2,-1h1l3,-1h1v-1h9l1,1l-1,-1h1l2,-1h3l2,-1Z"/>
<path class="th" d="M734,918h2v1h1v1h1v1l1,-1v1h1v1h-1l1,1v1h-1h1h-1v1h-1v-1v1v-1v1v-1l-1,1v-1v1v-1h-2v-1h-1h1l-1,-1h1h-1v-1h1h-1v-2Z"/>
<path class="tg" d="M656,970h1l1,-1h4v-1h5v-1h5v-1h6v-1h6l1,-1h7v-1h8v-1h9l1,-1h11v-1h14v-1h20v-1h79v1h20v1h14v1h11l1,1h9v1h8v1h7l1,1h6v1h6v1h5v1h5v1h4l1,1h1M611,927h6v-1h7v-1h8v-1h10v-1h10v-1h12v-1h14v-1h18v-1h23v-1h38v-1h75v1h38v1h23v1h18v1h14v1h12v1h10v1h10v1h8v1h7v1h6M595,877h399M611,826h4v1h7v1h8v1h9v1h10v1h11v1h14v1h16v1h21v1h32v1h103v-1h32v-1h21v-1h16v-1h14v-1h11v-1h10v-1h9v-1h8v-1h7v-1h4M656,783v1h5v1h4v1h5l1,1h5v1h6l1,1h6l1,1h7v1h10v1h10v1h13l1,1h17v1h36v1h21v-1h36v-1h17l1,-1h13v-1h10v-1h10v-1h7l1,-1h6l1,-1h6v-1h5l1,-1h5v-1h4v-1h5v-1M730,755h-1v1h-3v1h-2v1h-2v1h-2v1h-2v1h-2l-1,1h-1l-1,1h-1l-1,1h-1v1h-2v1h-2v1h-2v1h-1l-1,1h-1v1h-2v1h-1l-1,1h-1v1h-2v1h-1v1h-2v1h-1v1h-2v1h-1v1h-1l-1,1h-1v1h-1v1h-2v1h-1v1h-1v1h-1v1h-2v1h-1v1h-1v1h-1v1h-1v1h-1v1h-1l-1,1h-1v1h-1v1h-1v1h-1v1h-1v1h-1v1h-1v1h-1v1h-1v1l-1,1v1h-1v1h-1v1h-1v1h-1v1h-1v1l-1,1v1h-1v1h-1v1h-1v2h-1v1h-1v2h-1v1h-1v2h-1v1h-1v2h-1v2h-1v1h-1v2h-1v2h-1v2h-1v2h-1v2l-1,1v2h-1v2l-1,1v2h-1v3h-1v4h-1v4h-1v5h-1v9h-1v13l1,1v8h1v5h1v4h1v4h1v3h1v3h1v2h1v3h1v2h1v2h1v2h1v2h1v2h1v2h1v1l1,1v1h1v2h1v1h1v2h1v1h1v1h1v2h1v1h1v1l1,1v1h1v1h1v1h1v1l2,2v1h1v1h1v1h1v1h1v1h1v1h1v1h1v1h1v1h1v1h1v1h1v1h1v1h1v1h2v1h1v1h1v1h1v1h1v1h1l1,1h1v1h1v1h1v1h2v1h1v1h1l1,1h1v1h1v1h2v1h1v1h2v1h1l1,1h1v1h2v1h1v1h2v1h2v1h1l1,1h1v1h2v1h2v1h2v1h2v1h2v1h2v1h2v1h2l1,1h2v1h2v1h2M743,755h-1v1h-2v1h-2v1h-1v1h-2v1h-2v1h-1v1h-2v1h-1v1h-2v1h-1v1h-2v1h-1v1h-1v1h-2v1h-1v1h-1l-1,1h-1v1h-1v1h-1v1h-1v1h-1l-1,1h-1v1h-1v1h-1v1h-1v1h-1v1h-1v1h-1v1h-1v1h-1v1h-1v1h-1v1h-1v1h-1v1h-1v1h-1v1h-1v1h-1v1l-2,2v1h-1v1h-1v1h-1v1l-1,1v1h-1v1h-1v2h-1v1h-1v1l-1,1v1h-1v2h-1v1h-1v2h-1v1h-1v2h-1v2h-1v2h-1v2h-1v2h-1v2h-1v2h-1v3h-1v2h-1v3h-1v3h-1v3h-1v3h-1v4l-1,1v4h-1v6l-1,1v30h1v6h1v5h1v4h1v3h1v3l1,1v2l1,1v2h1v3h1v2h1v2h1v2h1v2l1,1v1h1v2h1v2h1v2h1v2h1v1h1v2h1v1h1v2h1v1h1v2h1v1h1v1h1v2h1v1h1v1h1v1l1,1v1h1v1h1v1h1v1h1v1h1v1h1v1l3,3v1h1l3,3h1v1h1v1h1v1h1v1h1v1h1v1h1v1h1l1,1h1v1h1v1h1v1h1l1,1h1v1h1v1h1l1,1h1v1h1v1h2v1h1v1h2v1h1v1h2v1h2v1h1v1h2v1h1l1,1h1v1h2M756,755h-1v1h-1v1h-1l-1,1h-1v1h-1v1h-1v1h-1v1h-1v1h-1l-2,2h-1v1h-1v1h-1v1h-1v1h-1v1h-1v1h-1v1h-1v1h-1v1l-2,2v1h-1v1h-1v1h-1v1h-1v1l-1,1v1h-1v1h-1v1h-1v2h-1v1h-1v1l-1,1v1h-1v1h-1v2h-1v1h-1v2h-1v2h-1v1h-1v2h-1v2h-1v2h-1v1l-1,1v1l-1,1v1l-1,1v2h-1v2h-1v2h-1v3h-1v2h-1v3h-1v3h-1v3h-1v3h-1v4h-1v4h-1v5h-1v6h-1v8h-1v30h1v7l1,1v5h1v5h1v4h1v4h1v3h1v3h1v3h1v3h1v3h1v2h1v2h1v2l1,1v2h1v2h1v2h1v2h1v1h1v2h1v2h1v2h1v1h1v2h1v1h1v2h1v1l1,1v1h1v1h1v2h1v1h1v1h1v1l1,1v1h1v1h1v1h1v1l1,1v1h1v1h1v1h1v1h1v1h1v1h1v1h1v1h1v1h1v1h1v1h1v1h1v1h1v1h1v1h1l2,2h1v1h1v1h1v1h1v1h2v1h1"/>
<path class="tg" d="M769,755h-1v1h-1v2h-1v1h-1v1h-1v1h-1v2h-1v1h-1v1l-1,1v1h-1v1l-1,1v1h-1v1l-1,1v1h-1v2h-1v1l-1,1v1h-1v2h-1v2h-1v2h-1v2h-1v2h-1v2h-1v2h-1v2h-1v2l-1,1v2h-1v2l-1,1v2h-1v3h-1v3h-1v3h-1v3h-1v4h-1v4h-1v4h-1v4h-1v5l-1,1v5h-1v8h-1v11h-1v29l1,1v10l1,1v7h1v6h1v5h1v4l1,1v4h1v3l1,1v3h1v3h1v3h1v3h1v3h1v3h1v2h1v3h1v2h1v2h1v2l1,1v2h1v2h1v1l1,1v1l1,1v1h1v2h1v2h1v1l1,1v1h1v2h1v1h1v2h1v1h1v2h1v1h1v1l1,1v1h1v1h1v1h1v2h1v1h1v1h1M782,755h-1v3h-1v2h-1v3h-1v3h-1v3h-1v3h-1v3h-1v3l-1,1v3h-1v4h-1v4h-1v4l-1,1v4h-1v5h-1v6h-1v6l-1,1v7h-1v8h-1v11l-1,1v18h-1v29l1,1v18h1v11h1v8l1,1v7h1v6h1v6h1v5h1v5h1v4h1v4h1v4h1v4h1v3h1v3l1,1v3h1v2l1,1v2h1v3h1v3h1v2h1M795,755v243M807,755h1v3h1v2h1v3h1v3h1v3h1v3h1v3h1v3l1,1v3h1v4h1v4h1v4l1,1v4h1v5h1v6h1v6l1,1v7h1v8h1v11l1,1v18h1v29l-1,1v18h-1v11h-1v8l-1,1v7h-1v6h-1v6h-1v5h-1v5h-1v4h-1v4h-1v4h-1v4h-1v3h-1v3l-1,1v3h-1v2l-1,1v2h-1v3h-1v3h-1v2h-1M820,755h1v1h1v2h1v1h1v1h1v1h1v2h1v1h1v1l1,1v1h1v1l1,1v1h1v1l1,1v1h1v2h1v1l1,1v1h1v2h1v2h1v2h1v2h1v2h1v2h1v2h1v2h1v2l1,1v2h1v2l1,1v2h1v3h1v3h1v3h1v3h1v4h1v4h1v4h1v4h1v5l1,1v5h1v8h1v11h1v29l-1,1v10l-1,1v7h-1v6h-1v5h-1v4l-1,1v4h-1v3l-1,1v3h-1v3h-1v3h-1v3h-1v3h-1v3h-1v2h-1v3h-1v2h-1v2h-1v2l-1,1v2h-1v2h-1v1l-1,1v1l-1,1v1h-1v2h-1v2h-1v1l-1,1v1h-1v2h-1v1h-1v2h-1v1h-1v2h-1v1h-1v1l-1,1v1h-1v1h-1v1h-1v2h-1v1h-1v1h-1M833,755h1v1h1v1h1l1,1h1v1h1v1h1v1h1v1h1v1h1l2,2h1v1h1v1h1v1h1v1h1v1h1v1h1v1h1v1h1v1l2,2v1h1v1h1v1h1v1h1v1l1,1v1h1v1h1v1h1v2h1v1h1v1l1,1v1h1v1h1v2h1v1h1v2h1v2h1v1h1v2h1v2h1v2h1v1l1,1v1l1,1v1l1,1v2h1v2h1v2h1v3h1v2h1v3h1v3h1v3h1v3h1v4h1v4h1v5h1v6h1v8h1v30h-1v7l-1,1v5h-1v5h-1v4h-1v4h-1v3h-1v3h-1v3h-1v3h-1v3h-1v2h-1v2h-1v2l-1,1v2h-1v2h-1v2h-1v2h-1v1h-1v2h-1v2h-1v2h-1v1h-1v2h-1v1h-1v2h-1v1l-1,1v1h-1v1h-1v2h-1v1h-1v1h-1v1l-1,1v1h-1v1h-1v1h-1v1l-1,1v1h-1v1h-1v1h-1v1h-1v1h-1v1h-1v1h-1v1h-1v1h-1v1h-1v1h-1v1h-1v1h-1v1h-1v1h-1l-2,2h-1v1h-1v1h-1v1h-1v1h-2v1h-1M846,755h1v1h2v1h2v1h1v1h2v1h2v1h1v1h2v1h1v1h2v1h1v1h2v1h1v1h1v1h2v1h1v1h1l1,1h1v1h1v1h1v1h1v1h1l1,1h1v1h1v1h1v1h1v1h1v1h1v1h1v1h1v1h1v1h1v1h1v1h1v1h1v1h1v1h1v1h1v1h1v1l2,2v1h1v1h1v1h1v1l1,1v1h1v1h1v2h1v1h1v1l1,1v1h1v2h1v1h1v2h1v1h1v2h1v2h1v2h1v2h1v2h1v2h1v2h1v3h1v2h1v3h1v3h1v3h1v3h1v4l1,1v4h1v6l1,1v14l1,1h-1v15h-1v6h-1v5h-1v4h-1v3h-1v3l-1,1v2l-1,1v2h-1v3h-1v2h-1v2h-1v2h-1v2l-1,1v1h-1v2h-1v2h-1v2h-1v2h-1v1h-1v2h-1v1h-1v2h-1v1h-1v2h-1v1h-1v1h-1v2h-1v1h-1v1h-1v1l-1,1v1h-1v1h-1v1h-1v1h-1v1h-1v1h-1v1l-3,3v1h-1l-3,3h-1v1h-1v1h-1v1h-1v1h-1v1h-1v1h-1v1h-1l-1,1h-1v1h-1v1h-1v1h-1l-1,1h-1v1h-1v1h-1l-1,1h-1v1h-1v1h-2v1h-1v1h-2v1h-1v1h-2v1h-2v1h-1v1h-2v1h-1l-1,1h-1v1h-2"/>
<path class="tg" d="M859,755h1v1h3v1h2v1h2v1h2v1h2v1h2l1,1h1l1,1h1l1,1h1v1h2v1h2v1h2v1h1l1,1h1v1h2v1h1l1,1h1v1h2v1h1v1h2v1h1v1h2v1h1v1h1l1,1h1v1h1v1h2v1h1v1h1v1h1v1h2v1h1v1h1v1h1v1h1v1h1v1h1l1,1h1v1h1v1h1v1h1v1h1v1h1v1h1v1h1v1h1v1l1,1v1h1v1h1v1h1v1h1v1h1v1l1,1v1h1v1h1v1h1v2h1v1h1v2h1v1h1v2h1v1h1v2h1v2h1v1h1v2h1v2h1v2h1v2h1v2l1,1v2h1v2l1,1v2h1v3h1v4h1v4h1v5h1v9h1v13l-1,1v8h-1v5h-1v4h-1v4h-1v3h-1v3h-1v2h-1v3h-1v2h-1v2h-1v2h-1v2h-1v2h-1v2h-1v1l-1,1v1h-1v2h-1v1h-1v2h-1v1h-1v1h-1v2h-1v1h-1v1l-1,1v1h-1v1h-1v1h-1v1l-2,2v1h-1v1h-1v1h-1v1h-1v1h-1v1h-1v1h-1v1h-1v1h-1v1h-1v1h-1v1h-1v1h-1v1h-2v1h-1v1h-1v1h-1v1h-1v1h-1l-1,1h-1v1h-1v1h-1v1h-2v1h-1v1h-1l-1,1h-1v1h-1v1h-2v1h-1v1h-2v1h-1l-1,1h-1v1h-2v1h-1v1h-2v1h-2v1h-1l-1,1h-1v1h-2v1h-2v1h-2v1h-2v1h-2v1h-2v1h-2v1h-2l-1,1h-2v1h-2v1h-2"/>
<rect x="723" y="907" width="27" height="28" fill-opacity="0" stroke="#ffffff" stroke-opacity="0.5" stroke-width="5.0"/>
<rect x="725" y="909" width="27" height="28" fill-opacity="0" stroke="#113311" stroke-opacity="0.8" stroke-width="5.0"/>
<rect x="724" y="908" width="27" height="28" fill-opacity="0" stroke="#45a249" stroke-opacity="0.9" stroke-width="5.0"/>
</svg>
