<?xml version="1.0" encoding="UTF-8" standalone="no"?>
<svg xmlns:svg="http://www.w3.org/2000/svg" xmlns="http://www.w3.org/2000/svg" xmlns:xlink="http://www.w3.org/1999/xlink" height="1000" width="1000">
<!-- made with pythonshp (GPL): github.com/sanjayrao77/pythonshp , underlying data may come from naturalearthdata.com -->
<!-- 
COPYRIGHT: THIS SVG FILE IS RELEASED INTO THE PUBLIC DOMAIN
 -->
<!-- 
vars : {
	'cmdline' : 'pythonshp.py publicdomain wiki1 vanuatu locatormap'
	'title' : 'Vanuatu locator'
	'version' : '1.0.5'
}
 -->
<defs>
	<radialGradient id="watergradient" cx="500" cy="500" r="500" fx="500" fy="500" gradientUnits="userSpaceOnUse">
		<stop offset="0%" stop-color="#70add3"/>
		<stop offset="11%" stop-color="#6eaad0"/>
		<stop offset="22%" stop-color="#6ca7cc"/>
		<stop offset="31%" stop-color="#6ba5c9"/>
		<stop offset="41%" stop-color="#69a2c6"/>
		<stop offset="51%" stop-color="#679fc2"/>
		<stop offset="59%" stop-color="#669dbf"/>
		<stop offset="67%" stop-color="#649abc"/>
		<stop offset="75%" stop-color="#6297b9"/>
		<stop offset="81%" stop-color="#6095b6"/>
		<stop offset="87%" stop-color="#5f92b2"/>
		<stop offset="92%" stop-color="#5d8faf"/>
		<stop offset="95%" stop-color="#5b8dac"/>
		<stop offset="98%" stop-color="#598aa8"/>
		<stop offset="100%" stop-color="#5685a2"/>
	</radialGradient>
	<radialGradient id="landgradient" cx="500" cy="500" r="500" fx="500" fy="500" gradientUnits="userSpaceOnUse">
		<stop offset="0%" stop-color="#dddddd"/>
		<stop offset="11%" stop-color="#d7d7d7"/>
		<stop offset="22%" stop-color="#d1d1d1"/>
		<stop offset="31%" stop-color="#cccccc"/>
		<stop offset="41%" stop-color="#c6c6c6"/>
		<stop offset="51%" stop-color="#c0c0c0"/>
		<stop offset="59%" stop-color="#bbbbbb"/>
		<stop offset="67%" stop-color="#b5b5b5"/>
		<stop offset="75%" stop-color="#afafaf"/>
		<stop offset="81%" stop-color="#aaaaaa"/>
		<stop offset="87%" stop-color="#a4a4a4"/>
		<stop offset="92%" stop-color="#9e9e9e"/>
		<stop offset="95%" stop-color="#999999"/>
		<stop offset="98%" stop-color="#939393"/>
		<stop offset="100%" stop-color="#888888"/>
	</radialGradient>
	<radialGradient id="bordergradient" cx="500" cy="500" r="500" fx="500" fy="500" gradientUnits="userSpaceOnUse">
		<stop offset="0%" stop-color="#444444"/>
		<stop offset="11%" stop-color="#3f3f3f"/>
		<stop offset="22%" stop-color="#3a3a3a"/>
		<stop offset="31%" stop-color="#363636"/>
		<stop offset="41%" stop-color="#323232"/>
		<stop offset="51%" stop-color="#2d2d2d"/>
		<stop offset="59%" stop-color="#292929"/>
		<stop offset="67%" stop-color="#242424"/>
		<stop offset="75%" stop-color="#1f1f1f"/>
		<stop offset="81%" stop-color="#1b1b1b"/>
		<stop offset="87%" stop-color="#161616"/>
		<stop offset="92%" stop-color="#121212"/>
		<stop offset="95%" stop-color="#0e0e0e"/>
		<stop offset="98%" stop-color="#090909"/>
		<stop offset="100%" stop-color="#000000"/>
	</radialGradient>
</defs>
<style type="text/css">
<![CDATA[
.c3 {stroke:#45a211;fill-opacity:0;stroke-width:3}
.fs {font:14px sans;stroke:#ffffff;stroke-width:2px;stroke-opacity:0.8;text-anchor:middle}
.ft {font:14px sans;fill:#000000;fill-opacity:1;stroke-opacity:0;text-anchor:middle}
.sb {stroke:url(#bordergradient);fill-opacity:0}
.sg {stroke:#000000;fill-opacity:0.0;stroke-opacity:0.2}
.sh {fill:#45a211;stroke:#000000}
.sl {fill:url(#landgradient);stroke:url(#bordergradient)}
.sp {stroke:url(#landgradient);fill-opacity:0}
.sr {stroke:url(#watergradient);fill-opacity:0}
.sw {fill:url(#watergradient);stroke:url(#watergradient);stroke-opacity:0.8}
.tb {fill:#eeeeee;stroke:black;stroke-width:2}
.tg {stroke:black;stroke-opacity:0.2;fill-opacity:0}
.th {fill:#45a211;stroke:#378100}
.tl {fill:#aaaaaa;stroke:black}
.w3 {stroke:#ffffff;fill-opacity:0;stroke-opacity:0.6;stroke-width:3}
.zh {fill:#45a211;stroke:#115511}
.zl {fill:#dddddd;stroke:#444444}
.zp {stroke:#dddddd;stroke-dasharray:3 3;fill-opacity:0}
]]>
</style>
<circle cx="500.0" cy="500.0" r="500.0" fill="url(#watergradient)"/>
<path class="sl" d="M971,333v-2l-1,-1v-1l-1,-2v-1l-1,-2v-1h-1v-3h-1v-2l-1,-1v-1l-1,-1v-2l-1,-1v-2l-2,-2l-1,-3v-2l-1,-2l-1,-1l-3,-6v-1l-2,-5v1v-1h-1v-2l-2,-2v-1v1v-1l-1,-1v-1l-1,-1v-1l-1,-1v-1v1v-1h-1l-1,-3v-1l-1,-1l1,1v-1h-1v-1l-1,-2h-1v-2l-2,-2v-1l-1,-1v-1l-2,-2v-1l-1,-1l-2,-4l-1,-1v-1h-1v-1h-1v-1l-1,-1v-1l-1,-1v-1h-1v-2l-2,-2v-1h-1v-1l-1,-2l-3,-3v-2h-1v-1v1v-1h-1v-1l-2,-2v-1h-1h1h-1l-1,-2h-1v-1h-1h1l1,2l2,3v1l2,2v1l1,1l1,2l1,1v1l3,3l1,2l2,2v1l1,1v1l2,2v1h1v1l1,1v2h1v1l1,1l1,2l1,1v1l1,1v1h1v1l1,2l1,1l-1,-1v-1l-1,-1l1,2l1,1v1l2,2v2l1,1l1,2l1,1l2,4v1l1,1v1l1,2l1,1v1v-2v2h1v1l1,1v1l1,1v1l1,1v2h1v2l-1,-1l-1,-3l-1,-1v-1l-1,-1v-2h-1l-2,-4v-1l-1,-1v-1h-1l-1,-2v-1l-2,-4v-1l-2,-2l-1,-2l-1,-1v-1l-1,-2l-1,-1v-1l-1,-1v1l-1,-1v-1h-1v-2h-1v-1l-3,-3v-1l-1,-1l1,1h1h-1h1v1l1,1l-1,-1v-1h-1v-1l-1,-2v-1l-1,-1l-1,-2l-2,-3l-2,-2v-1l-4,-4v-1l-1,-2h-1v-1l-1,-1v-1l-2,-2v-1h-1v-1l-2,-2v-1l-1,-1v-1l-2,-1l-1,-2v-1l-1,-1h-1v-1l-1,-1v-1h-1v-1l-2,-2l-1,-2l-2,-2h-1v-1l-1,-1h-1l-1,-1v-1h-1l-1,-1v-1h-1l-1,-1h-1v-1l-1,-1v-1l-1,-1h-1v-1l-3,-3v-1h-1l-1,-1v-1h-1l-1,-2l-2,-1v-1l-1,-1v-1h-1v-1h-1l-2,-2l-1,-2l-1,-1h-1v-1l1,1v-1h-1l-1,-1v-1l1,1h1h-1v-1h-1l-1,-1v1l1,1l-2,-2v1v-1l-1,-1l1,1l-9,-9v-1h-1l-1,-1v-1l-2,-2l-2,-1v-1h-1v-1l-3,-3l-1,-2l-3,-3l-2,-1l-1,-2l-4,-4l-1,-2l-1,-1h-1v-1l-9,-9v-1h-1l-1,-2l-2,-2h-1h2v1v-1h-2v-1h-1v-1h-1l1,1v-1l-1,-1h-1l-4,-4l-2,-1l-2,-2h-1l-1,-1v-1l-1,-1v1h1l1,1h1l2,1h1v1h1v1h1v1l1,1h1h-1v-1h-1v-1h-1h1v1h1l2,2h-1h1v1h1l-2,-2v-1h-1l-2,-2h-1v-1h-1h1h-1v-1h-1v-1v1v-1h-1l-2,-2h-1v-1h-1h1v1v-1h-1l-1,-1v-1v1l-2,-2h-1h1v1l-2,-2h-1h1v1h1l-1,-1h-1l-1,-1v-1h-1v-1v1h1v1h1h-1l-2,-1l-2,-2h-1v-1h-1v-1h-1l-1,-1l2,2h-1l-1,-1h1v1v-1h-2v-1v1v-1h-2v-1h-1l-1,-1l1,1h-1v-1h-1l-1,-1h-1l-2,-2h1h-1v-1h-1l1,1h-1v-1h-1v-1h-1l-1,-1h-1v-1l1,1h2v1h1h-1l-2,-2h-1v-1h-1v-1h-1h1v1l1,1v1l1,1h1l-1,-1l-2,-1l-1,-1v1v-1l-2,-2h-1l-2,-1l-1,-1h-1l-2,-2h-1h2l2,2h1l-1,-1h-2l-2,-2h-1h1v1l1,1h1h-1l-1,-1h-2l-4,-4h-1l-1,-1h-1v-1h-1l-1,-1v-1h-1v-1h-1h1v1l1,1l-1,-1h-1v-1h-1v-1h-1l-1,-1l1,1h1v1h1v1h1l1,1h-1l-1,-1h-1v-1h-1l-2,-2h-1l-1,-1h-1v1h1h-1v-1h-1l-1,-1h-1v-1h-1l-1,-1h-1l-1,-1h-1l-1,-1h-1l-2,-1l-1,-1l-2,-1h-1v-1l1,1h1l-2,-1h-1h1h-1l-1,-1h-1l-1,-1h-1l-1,-1l1,1h-1v-1h-2l-1,-1h-1v-1h-1l-2,-1l-1,-1h-1h1l2,2h1l1,1h1l1,1h1h-2v-1h-2v-1h-2v-1h-1h1v1l-1,-1h-2l-1,-1l1,1h2v1h2l1,1h1h-1v1v-1h-2l-2,-1h-1v-1h-2v-1h-2l-1,-1h-2l-2,-1l-1,-1h-1l-1,-1h-1h2l1,1h-1v-1h-1l-1,-1v1h-2l-2,-1h-1l-1,-1h-3l-1,-1h-4l-1,-1h-2l-1,-1h-3v-1h-3v-1h-2v-1h-2v1v-1h-2l-1,-1v1h-1h1l1,1h1h-1h2v1h1h-1h1l1,1h-1h1h-3l-1,-1v1h1v1v-1h-1l1,1l-1,-1v1h-1v1h-2l-1,-1h-1h1v-1h-2l-1,-1v-1l-1,-1h-1v-1h4l2,1l-2,-1h-2l-1,-1h1h-4v1h-1h1v2h-1l-1,-1l1,1h2v1h-1h1h-2v2h3l1,1h1v1h-1v1h1h-1v1h-2v1h-2v1h1v1h-3l1,1h-3v1h2l-1,1v-1h-1v1h-2v1l-1,-1h-1v1h-4l-1,-1h-1v2h-3v-1v1h1l-1,1l-1,-1h-1h1v1h-1v-1h-1h1v-1v1h1v-1h1v-1l1,-1h3l1,1h2l-1,-1v-1l1,-1h2v-1v1h1v-2h1v-1h1v1v-1h-1l-2,-2h1h-1v-1h-1h1v-1l-1,-1v1h-5v-1h1h-1l-1,-1v1h-1h1v1h1l1,1h-1l-1,-1l-2,-1h-4v-1h-2l-1,1h-2v-1h-1v-1h-2v-1h-1v-1l-2,-1l-1,-1h-2v-1h1h-1v1l1,1h-6v-1h-2l-1,-1h-2l-1,-1h-1h1v-1h1l1,1h3v1l1,-1h-1l-1,-1v1h-2l-2,-1h-2v-1h-1v1v-1h-2l-1,-1h1h-1l-1,-1h-1h1v-2h1v-1h-1h1v-1h1l1,1h4v-1h4l-1,-1h-1l-1,-1h-2v-1v1h1v-1h-2v-1v1h-3v1l-1,-1h-7l-2,-1h-4v-1h-2l-1,-1h1v1h1v-1h1h-5l-3,-1h3v-1h4l1,-1h1l1,1h1h-1h1l1,1h5v-1h-3l-1,-1h1l1,1h4v1h2l-1,-1h-5v-1h-4l-2,-1h-1l-2,-1l-6,-1h-2l-1,-1h-1l-1,-1h6v-1h-1l1,-1h1h-1h5v1v-1h-1h1h-1h4v-1h1l2,1h1h-1h3v1h7v1h5l1,1h5v1h6v1h6l1,1h2l2,1h2l1,1h3l2,1h2l1,1h3l1,1h2l1,1h1l-2,-1h-2v-1h-1h1h-2v-1l1,1h2v1h1v-1h-1h1h-1h1h-1h1h-1h2v1h1h-1h2v1h1h-1v-1h-1h1l1,1h1h-1l-1,-1h-1h1h-1l-1,-1h-1l2,1h2l1,1h2l2,1h1l1,1h1h-1l-1,-1h-1h1l1,1h2l1,1h2l1,1h2l1,1h2l1,1h1l1,1h2l1,1h1l1,1h2l1,1h1l1,1h2l1,1h1l1,1h2l1,1h1l1,1h2l1,1h1l1,1h2l2,2h1l1,1h2l1,1h1l1,1h1l1,1h2l2,2h1l1,1h2l2,2h2l2,2h2l2,2h2l2,2h1l1,1h1l1,1h1l2,2h1l1,1h1l1,1h1l1,1h1l1,1h1l2,2h1l2,2h1l1,1h1l2,2h1l2,2h1l1,1h1l1,1h1l2,2h1l2,2h1l2,2h1l2,2h1l2,2h1l2,2h1l3,3h1l2,2h1l4,4h1l3,3h1l2,2h1l4,4h1l5,5h1l4,4h1l2,2v1h1l2,2h1l9,9h1v1l2,2h1l23,23v1h1l4,4v1l2,2h1v1l4,4v1l2,2h1v1l4,4v1l2,2v1h1l2,2v1l4,4v1l2,2v1l2,2h1v1l2,2v1l2,2v1l3,3v1l3,3v1l2,2v1l2,2v1l3,3v1l2,2v1l2,2v1l2,2v1l1,1v1l2,2v1l2,2v1l2,2v1l2,2v2l2,2v1l2,2v2l2,2v1l2,2v2l2,2v1l1,1v1l1,1v1l1,1v1l1,1v1l1,1v1l2,2v1l1,1v2l1,1v1l2,2v2l1,1v1l1,1v1l1,1v1l1,1v1l1,1v1l1,1v2l2,2v2l1,1v1l1,1v2l1,1v1l1,1v2l1,1v1l1,1v1l1,1v2l1,1v1l1,1v2l1,1v1l1,1v3l1,1v1l1,1v2l1,1Z"/>
<path class="sp" d="M659,26h1l1,1h2l1,1h2l1,1h2l1,1h2l1,1h1l1,1h2l1,1h1l1,1h2l1,1h1l1,1h2l1,1h1l1,1h2l1,1h1l1,1h2l1,1h1l1,1h2l2,2h1l1,1h2l1,1h1l1,1h1l1,1h2l2,2h1l1,1h2l2,2h2l2,2h2l2,2h2l2,2h1l1,1h1l1,1h1l2,2h1l1,1h1l1,1h1l1,1h1l1,1h1l2,2h1l2,2h1l1,1h1l2,2h1l2,2h1l1,1h1l1,1h1l2,2h1l2,2h1l2,2h1l2,2h1l2,2h1l2,2h1l3,3h1l2,2h1l4,4h1l3,3h1l2,2h1l4,4h1l5,5h1l4,4h1l2,2v1h1l2,2h1l9,9h1v1l2,2h1l23,23v1h1l4,4v1l2,2h1v1l4,4v1l2,2h1v1l4,4v1l2,2v1h1l2,2v1l4,4v1l2,2v1l2,2h1v1l2,2v1l2,2v1l3,3v1l3,3v1l2,2v1l2,2v1l3,3v1l2,2v1l2,2v1l2,2v1l1,1v1l2,2v1l2,2v1l2,2v1l2,2v2l2,2v1l2,2v2l2,2v1l2,2v2l2,2v1l1,1v1l1,1v1l1,1v1l1,1v1l1,1v1l2,2v1l1,1v2l1,1v1l2,2v2l1,1v1l1,1v1l1,1v1l1,1v1l1,1v1l1,1v2l2,2v2l1,1v1l1,1v2l1,1v1l1,1v2l1,1v1l1,1v1l1,1v2l1,1v1l1,1v2l1,1v1l1,1v3l1,1v1l1,1v2l1,1"/>
<path class="sl" d="M401,10h-1ZM398,11v-1v1h-4l-2,1h-3l-1,1h-3l-1,1h-2l-2,1l1,-1h3l1,-1h4l1,-1h3l1,-1h3ZM374,16h2l1,-1h2l2,-1h1h-1h3l1,-1l-1,1h-1h2v-1h1h-1v1h-3l-1,1h-1h1l1,-1h3v-1h5l2,-1h1h-2v1h-1h2l1,-1h5l1,-1h3l1,-1h1v1v-1h1v1l1,-1h2l-1,1h-1h1h-2v1h-4v1l1,-1l-1,1h-1l-1,1h3v-1h4v-1h2l1,-1h1l-1,1h4l1,-1h4v1h1v-1h1h-1h6v-1h1h-1h3v-1h-1v1h-1v-1h6v-1h8l-1,1l6,-1h-2v1h-2h1v-1l-1,1h-1h2l2,-1h7l-2,1h-1h6l1,1h4l2,-1h15v1h-1v1h3v2h-1h2v-1h1l1,-1h19v1h4v1h3l2,-1h-1v-1h-1v-1h6l1,1h14l2,1h4l2,1h5l1,1h-1h4l1,1h2l7,1l-1,1h2l1,1h1l1,1h1v-1h-2v-1h3l1,1h1h-1h6l1,1h2l2,1h3v1h-3v1h-3v-1h-2l1,1h1h-1h1l1,1h-2v1h1h-1h1l-1,1v-1h-4l-1,-1h-5v-1h-1l-1,-1h-4v-1l-1,1h-4v-1h-2v-1h-1h1v-1v1h-2v-1v1h-1h1h-2l1,1h2l-1,1h-1l-1,1h-3l-1,1l-1,-1h-4v-1h-1l1,1h-3l-1,-1l-1,1h-2h8l1,1h3l1,1h1v1h1h-1h1v1v-1l1,1h2v1h-1h2v1h-1v1l-6,-1h-2v-1h-1v1h1h-3v1h-4l-2,1h-5v1h-3v1h-2l-1,1h-2l-2,1h-2v1h-3l-1,-1h-1l-1,-1l-2,1l-1,-1l-1,1h-5l-3,2h-1v-1l1,-1h-2l-1,1h-3v1h-1v-1h-2v1h-1v-1h-1l-1,1h-1l-1,1v1h-2l1,1h-2l-1,1l-2,1l-1,1v1h3v-1h1l2,1l-1,1h-1l-1,1v2h2v2h-3v-1h1h-2l1,1h-3l-2,2v2h1v2h-7l-1,1h-1l-1,1h-1v1l-1,1v2h-4l-1,1h-2l-1,1v1l-3,3l-2,1h-1l-1,1l-4,2h-1v-6l1,-1h-1v-9l2,-4l3,-3v-1l3,-1h1l1,-1h1v-1h-1h1v-1l1,1l1,-1h4l1,-1h2l1,-1h1l1,-1h1l4,-2l1,-1h2l1,-1h2l2,-2h2l2,-1h4l-1,-1h2v-2h1v-1l1,-1h2l-1,-1l-5,1v1h-1v1h1h-1v1h-1v-1h-2l-1,1l-5,2h-3l-1,1v-1l1,-1h-1l-1,1h-1h1v-1l2,-1l1,-1h-12l-1,1h-3v1h-2l-2,2h-2l-3,1l-2,1l-1,1h-1v1h-1h4v1h-4l-1,1v-1h-3v1h-6l-1,1h-2v-1h3l2,-1h-2l-1,-1h-2v1h-2l1,-1h-6l-1,1h-1v1h-2l-1,-1l-1,1h-6l-2,1h-1v-1h-7l-1,1h-6l-1,1h-2l-2,1l-1,1h-1l-2,1h-1l-1,1l-4,2h-2l-1,1h-1l-1,1h-2l-1,1l-3,1l-1,1h-1l-2,1l-1,1h-1l-1,1h-3l-6,3h-1l-2,1l-1,1h6v1h-1l-2,2h2l2,-2h1l-1,1h1l-1,1h-1l-1,1h2l2,-1l1,-1h1v1h-1l-1,1h1l3,-3v-1l2,1h1l2,-1l1,1v1l1,1h1v1h1l-1,1h-2v1h1v1h-1l-1,1h1v1h-1v1h-1l-1,1h-1l-1,1l-2,1v1h-1l-2,2l-1,2v1h-1v1l-3,3v1l-2,1l-1,1v1h-1l-2,1h-1l-1,1h-1l-3,3l-3,2h-1v1l-2,2h-1l-1,1l-3,2l-1,1l-4,2l-3,2l-1,1l-2,1l-1,1h-1v1h-2l-3,3h-1l-2,1l-2,2l-2,1l-4,1l-1,1l-2,1h-2l-1,1l-1,-1v1l-1,-1h-2l2,-2h-1l-1,1h-1l1,-1l-1,1h-1l-2,1l-1,1v1h-2l-1,1l-1,-1v1l-1,1v1h-3l-2,2h-1v1h-1l-1,1v1l-1,1v1l-1,1l-3,1l-2,2h-1l-1,1h-1v1l-1,1h-3v1h-1l-2,1l-1,1v1h-1v1h-1v1h1l1,1v1h1v11l-1,1l-1,2h-1v2h1l-2,2l-1,2l-2,2h-1l-1,1h-3v1h-4l-1,1v1h-1v-1l-1,1l1,1h-1v1h-1v-1l1,-1l-2,1l-1,1h-1l-1,1h-1h1v-1h-1v-1h2v-1h-1l1,-1v-1l3,-3h-1h1v-1h1l1,-1h-1h1v-3h1v-2h-1v-1l1,-1h3v1v-1h1h-1v-1l1,-1v-3h1h-2l-1,1v-1l-1,-1v1h-1l-1,1h-1l-1,-1l1,-1h1h-3l1,-1h1l3,-3h1h-1v-1l3,-2v-1l1,-1h-1l-1,-1h-1v1v-1h-1l1,-1l-1,1h-4v1h-2v1h-2l-3,2l-2,2h-1l-1,1h-1v1h-2l-1,1v-1h1v-1l2,-1h1v-1h1v-1l-1,1h-1v-1l1,-1h1v-1h1l2,-2h1l3,-3v-1h-1l1,-1l-1,1h-3l-1,1h-1v1h-1l-3,3l-5,2l-2,2h-1v1l-2,1l-1,1h-1l-1,1h-1v-1l-1,1h-1l-3,3v3h3v-1l1,1l-1,1v1h-1l-1,1v2h3l3,-3h1v-1h1l2,-1h1v1h1l1,1l1,-1h3v1l-1,1h-1v1l-1,1h-1v-1l-2,2h-2l-2,1l-1,1v-1l-1,1h1l-1,1h-1l-1,2h-1l-1,1v-1h1v-1l-1,1h-1v1h1h-1l-5,5h-1l-3,3v1h1v1h1l1,1v3l-1,1v4l-1,1v1l-1,1h1l1,1v2l1,1v1h-1v1h-1l-1,-1h-2v-1h-1l-2,1h-1h1l1,-1h1v2h1l2,2v3h-2v1h-1l-1,1l-2,1l-2,2h-1l-2,1h1l1,-1v1h1l2,-1h1l1,2h1l-1,1l-2,1v1h-1h1l1,-1h1v1l-2,2v1v-1h-2v1l1,1h-1v1l-1,1h-1v3h-3v1l-1,1h-1v1l-2,2v1l-1,1v1h-1l-3,3v1l-1,1h-1v-1v1h-1v-1v4h-1l-2,2h-1v1h1v-1h1v1h-1v1l-1,1v2l-1,-1l-1,1v1h-2v2l-1,1h-1v1l-2,2h-2l-1,1h-1v1h1v1l-1,1h-1v1h-1v1h-1v1l-1,1v-1l-1,1h-1l-1,2h-1l-1,1h1h-1v1h-1v1l-1,1h-1v1h-3v1h-1v1l-1,-1h-1v1h-1v1h-1v-1l-1,1v1h-3v-1l-1,-1l1,-1v-1l-1,1v1h-1v5h-1v1h-1l-1,1v-1l-1,2h-1l-1,1h-1l1,-1h-1v2h-2l-1,1h-1v1l-1,1h-2v1h-1l-2,2v-1v1h-1v1l-1,1v4l-2,2h-1v-1h1v-1h-1v-1h1v-4h1v-1l1,-1v-1h-1v-1v1l-1,1h-1v1v-2h-1v-2l-1,1v2h-1v-1v1h-1v1h-2v1l-1,1h-1v2h-1l-2,2v-1v1l-1,1l-1,2v1l-2,2l-1,2l-1,1l-1,3h-1v2l-1,1v1l-1,1v4l1,1v4h-1h1v3l1,1l-1,2h1v2h1v1h1v6l1,1v9l-1,1v6l-1,1v4l-1,1v2h-1v4h-1v3h-1v2l-3,3l-1,2h-1v2h-1l-3,3v-1h-1v-1v3l-1,-1h-1h1v2h-1h1v1l-1,1v1h-1l-1,-2l1,3v2h-1v-1l-1,-2v3l1,1h-1v1l-3,3v1l-1,2v1h-1l-1,1v-2l1,-3v-4l1,-1v-1h1v-2h-1v-1v1h-1v-2l-1,-1h-1l-1,1v-2h1v-3l-1,1v1h-1v-3l1,-1l-1,-1l1,-1l-1,-1v1v-3h-1v-3h-1v-1l-1,1h-1l-1,1v-2l1,-2v-3h1h-1v-1l-1,1h-1v1l-1,1v2l-1,2v1l-1,3v3l-1,1v1l-1,1v2l-1,2v1l-1,2l-1,3v3l-1,2v5l-1,1h1l1,-1v12l-1,1v2l1,1v1l1,1v1h1v-1h1v1l2,4l-1,1v2l-1,1v1v-1h-1l-1,1v1h-1v-1l1,-1v-3h-1v-1l-1,-1v-1l-1,1v-1l-1,-1v-5h-1v-4l-1,-1v-1v2h-1v-3l1,-2v-2l1,-3v-1l1,-1v-2l1,-3l-1,1v-1l1,-2v-3l1,-1v-2l1,-1v-3l1,-1v-1l-1,1v-1l1,-1v-4l1,-1v-4l1,-1v-7l-1,3l1,-2v-4l1,-2v-1v1v-5l1,-1l1,-4v-3l1,-1v-1l-1,1v-2l1,-1v-3l-1,1v2l-1,1v1l-1,1v1l-1,-1h1v-1l-1,1v2h-1v1l-1,1v1l-1,1v1l-1,1v-1l1,-1v-1v1l-1,1v1h-1l1,-1v-1l-1,1v1v-2l1,-1v-1v1l-2,2v-1l1,-3h1v-3l1,-1v-1l2,-4v-2l1,-3v-2l1,-1v-2l1,-2v-1v1h-1v2l-1,-1l1,-1v-1v1l1,-1v-3l1,-1v-1h-1v1v-2l1,-2v1l-1,1v-1l1,-1v-1l-1,1v1v-1l1,-2v-3l1,-3l1,-1v-1l1,-2v-1l1,-1l-1,1l1,-1v-3l1,-1l-1,1v1h-1v1v-1l1,-2v-2l1,-1v-1v1h-1v3h-1v2l-1,1v2h-1v2l-2,2v1v-1l1,-2v1l-1,1v-1l1,-1l1,-2l-1,1v2h-1v2h-1v1v-1l1,-3v1l-1,1v2l-1,1v-1l1,-1v-1l-1,2v2h-1l1,-1l-1,1v1v-1l1,-3l-1,2v1l-1,1l1,-1l1,-2v-1l-1,1v2l-1,1l-1,2h-1v2l-1,1v1l-1,1v2l-1,1v1l-1,1v2h-1v2h-1v1l-1,2v-1l1,-1l-1,1l-1,2h1v-1l-1,1l-1,4l-1,1v1l-2,5v1l-1,2v1l-1,2l-1,1v2l-2,4v2l-1,1v2l-1,2v1l-1,2v1l-1,1h1h-1l1,-1v-2l1,-1v-3l1,-1v-2l1,-1v-2l1,-1v-2l1,-1v-3l1,-1v-1l1,-1v-2l1,-1v-2l1,-1v-2l1,-1v-2l1,-1v-1l1,-1v-2l1,-1v-1l1,-1v-2l1,-1v-1l1,-1v-2l1,-1v-2l1,-1v-1l1,-1v-1l1,-1v-1l1,-1v-2l1,-1v-1l1,-1v-2l2,-2v-2l1,-1v-1l1,-1v-1l1,-1v-2l2,-2v-1l1,-1v-1l1,-1v-2l1,-1v-1l2,-2v-1l1,-1v-1l1,-1v-2l2,-2v-1l1,-1v-1l1,-1v-1l1,-1v-1l2,-2v-1l1,-1v-1l1,-1v-1l2,-2v-1l1,-1v-1l1,-1v-1l2,-2v-1l1,-1v-1l3,-3v-1l1,-1v-1l1,-1v-1l2,-2v-1l3,-3v-1l1,-1v-1l3,-3v-1l1,-1v-1l3,-3v-1l3,-3v-1l1,-1v-1l3,-3v-1l3,-3v-1l1,-1h1v-1l1,-1v-1l3,-3v-1l1,-1h1v-1l4,-4v-1l3,-3v-1h1l1,-1v-1l6,-6v-1l1,-1h1v-1l6,-6v-1l1,-1h1v-1l2,-2h1v-1l9,-9v-1h1l9,-9h1v-1l1,-1h1l1,-1v-1l3,-3h1l1,-1v-1h1l4,-4h1l6,-6h1v-1l1,-1h1l3,-3h1l1,-1v-1h1l2,-2h1l5,-5h1l1,-1h1v-1l1,-1h1l3,-3h1l1,-1h1v-1l1,-1h1l1,-1h1l3,-3h1l1,-1h1v-1l1,-1h1l1,-1h1l3,-3h1l1,-1h1l3,-3h1l2,-2h1l1,-1h1l2,-2h1l2,-2h1l1,-1h1l2,-2h1l1,-1h1l1,-1h1l2,-2h1l1,-1h1l1,-1h1l2,-2h1l1,-1h1l1,-1h1l2,-2h2l1,-1h1l1,-1h1l2,-2h1l1,-1h1l1,-1h2l1,-1h1l2,-2h1l1,-1h2l1,-1h1l1,-1h1l1,-1h1l1,-1h1l1,-1h2l1,-1h1l1,-1h2l1,-1h1l1,-1h1l1,-1h1l1,-1h2l1,-1h2l1,-1h1l1,-1h2l1,-1h1l1,-1h2l1,-1h1l1,-1h2l1,-1h2l1,-1h2l1,-1h2l1,-1h1l1,-1h3l1,-1h2l1,-1h2l1,-1h3l1,-1h2l1,-1h3l1,-1h2l1,-1h2l1,-1h3l1,-1ZM14,382v-1ZM14,382l-1,7l-1,2v1v-2l1,-1v-4l1,-1v-1ZM9,406l-1,3v1v-1l1,-1v-5Z"/>
<path class="sp" d="M399,10h2M380,15l1,-1h3l1,-1h4l1,-1h3l1,-1h4M19,362l1,-1v-2l1,-1v-3l1,-1v-2l1,-1v-2l1,-1v-2l1,-1v-3l1,-1v-1l1,-1v-2l1,-1v-2l1,-1v-2l1,-1v-2l1,-1v-1l1,-1v-2l1,-1v-1l1,-1v-2l1,-1v-1l1,-1v-2l1,-1v-2l1,-1v-1l1,-1v-1l1,-1v-1l1,-1v-2l1,-1v-1l1,-1v-2l2,-2v-2l1,-1v-1l1,-1v-1l1,-1v-2l2,-2v-1l1,-1v-1l1,-1v-2l1,-1v-1l2,-2v-1l1,-1v-1l1,-1v-2l2,-2v-1l1,-1v-1l1,-1v-1l1,-1v-1l2,-2v-1l1,-1v-1l1,-1v-1l2,-2v-1l1,-1v-1l1,-1v-1l2,-2v-1l1,-1v-1l3,-3v-1l1,-1v-1l1,-1v-1l2,-2v-1l3,-3v-1l1,-1v-1l3,-3v-1l1,-1v-1l3,-3v-1l3,-3v-1l1,-1v-1l3,-3v-1l3,-3v-1l1,-1h1v-1l1,-1v-1l3,-3v-1l1,-1h1v-1l4,-4v-1l3,-3v-1h1l1,-1v-1l6,-6v-1l1,-1h1v-1l6,-6v-1l1,-1h1v-1l2,-2h1v-1l9,-9v-1h1l9,-9h1v-1l1,-1h1l1,-1v-1l3,-3h1l1,-1v-1h1l4,-4h1l6,-6h1v-1l1,-1h1l3,-3h1l1,-1v-1h1l2,-2h1l5,-5h1l1,-1h1v-1l1,-1h1l3,-3h1l1,-1h1v-1l1,-1h1l1,-1h1l3,-3h1l1,-1h1v-1l1,-1h1l1,-1h1l3,-3h1l1,-1h1l3,-3h1l2,-2h1l1,-1h1l2,-2h1l2,-2h1l1,-1h1l2,-2h1l1,-1h1l1,-1h1l2,-2h1l1,-1h1l1,-1h1l2,-2h1l1,-1h1l1,-1h1l2,-2h2l1,-1h1l1,-1h1l2,-2h1l1,-1h1l1,-1h2l1,-1h1l2,-2h1l1,-1h2l1,-1h1l1,-1h1l1,-1h1l1,-1h1l1,-1h2l1,-1h1l1,-1h2l1,-1h1l1,-1h1l1,-1h1l1,-1h2l1,-1h2l1,-1h1l1,-1h2l1,-1h1l1,-1h2l1,-1h1l1,-1h2l1,-1h2l1,-1h2l1,-1h2l1,-1h1l1,-1h3l1,-1h2l1,-1h2l1,-1h3l1,-1h2l1,-1h3l1,-1h2l1,-1h2l1,-1h3l1,-1M14,381v0M12,392v-2l1,-1v-4l1,-1v-2M8,410v-1l1,-1v-5"/>
<path class="sl" d="M57,380v1v-2ZM65,391l1,-1ZM70,376l-1,1v-1ZM90,292v-1ZM94,288l-1,1v-1ZM93,290h-1h1v-1ZM90,292v-1h1v1ZM455,382v1l-1,-1ZM253,357h-1l1,-1ZM359,368h-1ZM361,367h-1ZM415,370l-1,1l-1,-1v-1h2ZM512,378v-1h1v-1v1ZM505,365h-1ZM529,368h1ZM525,367h1h-2l1,-1ZM489,333h-1ZM319,278h-1v-1h1ZM316,297v-1ZM311,314v1h-1v-1ZM319,283h-1l1,-1ZM316,306h-1l1,-1ZM315,308h-1v-1h1ZM306,322v-1l1,-1v-1h1l-1,2ZM674,557h-1l1,-1h1v1ZM736,67h1h-1v-1h-1h1l1,1ZM738,68l-1,-1h1ZM722,59h-1v-1v1ZM680,46v-1ZM685,48h-1v-1h1h-1ZM673,45h-1ZM648,58h1ZM654,60l-1,-1h1ZM653,59h-1ZM628,63l-1,-1h1ZM584,68h-1ZM587,21h1ZM577,27h7v1h2v1h-1v-1h-3l-1,-1h-5v-1ZM607,38h2l1,1h1h-2v1l-1,-1h-4l-1,-1h-1h4ZM667,51h2v1h2v1h-1l-1,-1l-1,1h1l-1,1v1h-1l1,-1h-2v-1h-1h1v1h-1l-2,-2h-1l1,-1h1v1h1l1,1h1h-1v-1h-1l-1,-1h2ZM636,58l1,1h1l1,1l-2,-1v1h-6v-1h1v-1h3ZM741,71h1v1l-1,-1h-1v-1ZM749,74l1,1v-1h-2v-1h-1h1ZM741,69l1,1h-1v-1h-1l-1,-1h-1v-1l1,1h1ZM747,72l1,1h1h-2v-1v1l-1,-1h-1v-1l-1,-1l1,1h1v1ZM732,64v1v-1v1h2v1h1l-1,-1h-1l1,1h1v1h1h-1v-1h-1l-1,-1h-1l-1,-1h-1h1ZM746,74h1l1,1l-1,-1h-1l-1,-1h-1v-1h-1h1l1,1ZM676,45h1h-2v-1ZM675,46h-1v-1h1ZM672,44v1h1h-1v-1h-1ZM669,43l-1,-1h1ZM670,54h-1ZM666,49h-1v-1v1ZM666,51h-2v-1l1,1ZM666,58h-1v-1h1ZM667,56h-1v-1h1ZM668,56v-1ZM647,58h1v1l-1,-1v1v-1h-1ZM642,59h-1ZM642,61h-1v-1ZM651,59v1h-1v-2h1ZM628,61h-1h2ZM629,61v-1l1,1ZM634,45h-1ZM580,36h1h-2v-1ZM600,48h-1ZM614,65h-1ZM609,66h1ZM601,67h-1h1v-1l1,1ZM603,50h1ZM583,68h-1ZM584,67h-1ZM578,68h-1h1v-1ZM555,67v-1h1ZM561,69h-1l-2,-1h-2h3v1h1ZM529,64h-1h2ZM726,62l1,1h1l2,1v1h1v1h1l1,1l-1,-1h-1v-1h-2v-1h-2v-1h-1v-1h-1l1,1h-1l-1,-1v-1h-1h1l1,1ZM721,59h2l2,2h1l1,1l-1,-1h-1v-1h-1l2,1l1,1h1v1h1h-1h1v1l-2,-2h-1l-1,-1h-1l-2,-1v-1h-1l-1,-1ZM718,58l1,1h3v1h1h-1h1v1h2v1l-1,-1l-2,-1l1,1h-1l-1,-1l-2,-1h-1l-1,-1ZM736,67h1v1h1l2,1l1,1h1l1,1h1v1v-1h-1h1l1,1h1v1h1l1,1h1v1h-1v-1h-1l-1,-1h-1h1l-2,-1h-1l-2,-2h-2v-1h-1v-1v1h-1v-1h-1ZM731,65h2v1h1l1,1h1v1l-2,-2h-2v-1h-2v-1h1ZM666,49h1h-1l1,1h1h-1h1h-1v1h-1l-1,-1h-1l1,-1v1h1l-1,-1ZM621,64h-2v1h-2v-1h2l-1,-1h3ZM625,62h1v-1l1,1h-1h1v1h-2l-1,1h-2v-1h2v-1h1v1v-1h-2v-1h2Z"/>
<path class="sl" d="M596,67h2l1,1h-2l-1,-1l-1,1v-1h-1h1ZM591,67h-1h2v-1h-1h2v1h-1ZM581,68h1h-1l-1,1v-1l-1,1l1,-1v-1h1ZM575,68v1h-1v-1h-1h1h-1v-1h1l1,1h1ZM562,67h-2l1,-1ZM549,67h-1l1,-1h1ZM524,61l1,1l1,-1v1h1h-4v-1ZM779,284l-2,-1v-3l-1,-1l-1,-2l1,-1l-1,-2l5,2l1,1v1h1v1l1,1h1l-2,2h-1l-2,1ZM765,265l1,1h2v1h-1l-1,-1h-2v-1ZM770,268h1l1,1h1v2h-2v-1l-1,-1h-1v-1h-1l1,-1v1ZM760,263h1v1h1l-1,1h-1v-1h-2l-1,-1v-1h1v-1h1l1,1ZM749,258l-1,1h-1v-1h-1v-1l1,-1h1l1,1ZM743,259v-1l1,-1v1h-1ZM768,269h-1l-1,-1h2ZM899,211l-1,-1ZM903,214h-1l-1,-1h1ZM894,205l-1,-1ZM894,204v1h1h-1ZM900,211h1h-1v-1h-1h1ZM808,111v1v-1v1h1ZM809,112h-1v-1ZM812,114l1,1h-1h1l1,1h-1v-1h-1v-1h-1l-1,-1h1v1ZM817,119l-1,-1ZM815,117l1,1ZM810,113h-1v-1ZM908,675h-1v-1h1ZM633,614h1l-1,1v-1h-1v-1h1ZM645,593h-1l1,-1ZM635,615v1ZM165,517v2h-1l1,-1ZM163,530l-1,-1v-2h1v-2l-1,1h-1v-1l1,-1v-1l2,-2l3,-1h2l2,-1h1l1,-1h3l-1,2l-2,2h-1l-1,1v1h-2v1l-1,1h-1l-2,1l-1,2ZM156,529l1,-1l2,-1v1l-1,1v1h-1ZM54,371v-1ZM54,368h-1l1,-1ZM35,407v1v-2ZM43,390h-1v-1h1ZM42,391v1ZM38,417v1v-2ZM36,407v-1ZM36,398v-1ZM37,409v1ZM161,264v1l-1,1v1l-1,1v2h-1v-4l-1,-1v-1l1,-2v-2l1,-1v-2h1l4,-6l1,-2h1v-1l2,-2l2,-1l1,-1h1v1h1l-2,2v2l-1,2l-2,2v1l-3,6l-1,1l-1,2ZM153,252v1h-1ZM7,415v-1ZM6,420v1ZM8,413l-1,1v6l-1,2v7h-1v7l-1,1v6l-1,1v-1l1,-2v-2l1,-6v-6l1,-1v-5l1,-2v-5h1ZM239,172h-1v-1h1v-1h1ZM235,172v1v-1l-1,1v-1l1,-1ZM224,176h-1h1v-1h1v1ZM237,154v1h-1v-1ZM227,176h-1ZM233,174v-1ZM232,162v1ZM225,174h-1l1,-1h-1h1ZM260,153h-1ZM221,184h-1v-1h1l1,-1l2,-1h1v1h-1v1h-1l-1,1ZM427,502h-2l1,-1v1ZM489,529h-1v-1ZM482,521h-1l-1,1l-1,-1h1l1,-1ZM435,531h-2v-1h-2v-1h-1v-1h1l3,2ZM443,512v1l-1,-1v1v-3l-1,-1l1,1ZM423,508h-1l-1,-1h2ZM431,507h1l1,1h-1l-1,-1h-1ZM410,500l1,1v3l-1,-1h-1v-2h-3v-1h1v-2h2v2ZM414,505v-1v1h1ZM413,504l-1,1l-1,-1l1,-1h1ZM407,505l-1,-2l1,-1v2ZM401,498l-1,-1v-1l-1,-1h2v1h1v1h-1ZM400,500v-1ZM405,499v1h-1l-1,-1v-1l1,-1h1v1ZM394,491h-2l1,-1h1ZM409,505h-1v-1h1ZM427,509l2,1h4l2,2v1h1l1,1h-1l-1,1l-1,-1h-6v-1l-2,-2v-2ZM428,503l-2,-2l-2,-1h-1l-1,-1l-2,-1l-1,-1h-1l-1,-1v-1l-1,-1l4,2l1,1h1l1,1h1l4,3v1Z"/>
<path class="sl" d="M408,493h-4l-1,-2l-2,-2l-2,-1v-2l2,2l3,1l1,2l1,1h1ZM436,500l2,3v2l2,2v2l1,2v1l-1,-2l-2,-1l-1,-1l-2,-5v-1l-1,-1h1ZM444,518l1,1h3l1,2v1h1h-4l-1,-1l-2,-1v-1l-1,-1h-1v-1h1ZM50,457l-1,1v-2h1ZM662,549l1,1v2l-1,-1l-1,1h-1l-1,-2l-1,-1h3ZM669,554h-4l-1,-1v-1h2l1,1h1ZM353,59h-2v1v-1l-1,1v-1h2ZM422,40h1ZM392,13h-1h1v-1ZM442,5h2v-1h6v1h-3v-1l-1,1h-4l-1,1h-6l1,-1h5l1,-1ZM454,4h6l-1,1h-7v-1h1ZM530,9h-1h2v-1h1l1,1h-2ZM375,60v1h-1v4l-1,1v1h-1v1h-1l-1,1v2h-1v1h1h-1v1l-1,3v7l1,1l-1,1v-2h-1v-1h-5l-2,2l-4,3l-1,1v1l-1,1v1h1v3h2v1l-1,1v1h-1v1v-2h-2v-1h-2l-4,4h-1l1,-1v-1l1,-2l2,-1v-2l1,-1v-1h1l1,-1l1,-2v-2l1,-1l1,-2h1l1,-1l1,-3h1v-2h1v-1h1l1,-1v-2h-1v-1l1,-2h1v-1h1l2,-2v-2h4v-1h1l1,-1h-1h1v-2h1ZM535,8h2v1h2h-6v-1h-1h2ZM499,55l-2,-1h-1h2ZM479,9h-1ZM479,13v-1h-1v-1h2v1h-1ZM462,3h-1h2ZM420,11h-1ZM437,7h-1l1,-1h1ZM439,7h1h-3l-1,1l-1,-1h-1l-1,1h-1h1l1,-1h4ZM433,6h-1h1l1,-1v1ZM427,8h-1v-1h1ZM356,58v1h1h-2v1h-3l2,-2h1ZM503,11h-4l1,-1l3,1h1ZM479,40h-1h1l1,-1l2,-1h2v1h-2l-1,1ZM492,54h-1l-1,-1h-1v-1h-1h2v1h1ZM424,79h-1l2,-2v2ZM435,72v1l-1,-1h2ZM432,74l-1,1h-3v-1h3v-1l1,-1h2l-1,1ZM420,82h-1l1,-1h1h-1ZM431,72h-1v-1h1ZM412,87v-1ZM405,91l-2,1l1,-1h1l1,-1h1ZM389,98l-1,1h-1l2,-2h1l1,-1l3,-1h1l-2,1l-1,1h-2ZM382,100l-1,1h-1l-2,1h-2v1h-1l-2,1l-1,1l-2,1l3,-3h1l1,-1h1l1,-1h1v-1l1,1h1l2,-2h2l-1,1ZM368,109h1ZM366,105l1,1h1h-2v1h-1l-1,1h-1l-2,1v1h-1v-1h1l1,-1h1v-1h1ZM390,12h-1v1h-1h1v-1ZM153,295l2,2h3v-1l1,-1v2l-1,1v1l-1,2v3h1v3l-1,1l-3,6h-1l-3,3v2l-1,1v1h-1v1l1,2v3l-1,1l1,2v2h2v-2h1v-1h4v4h1v-3h1v1h2l1,1h-1l-1,1h-1l1,1v1l1,1l-1,1h1l1,1v2l-1,2v-1h-1v-1l1,-1h-2l-1,-1h-1v-3l-2,-1v-1l-1,-1h-1v2l1,1v2l-1,1v-2l-2,-2v-1l-2,-1v1h-1l-1,1v1h-3v-1h-1v-3l3,-3v-1h-1l-1,-1v2l-1,1h-1v-2h-1v-5l1,-3v-1h-1v-1l1,-2h1v2h1l1,-1v-3l1,-1v-1l1,-2v-2l1,-1v-2l2,-5v-1l2,-2h1ZM116,382v1v-2l1,-1v-1l1,-1v-1l2,-2h1l1,-1l1,-3l1,-1l2,-3l2,-2v-1h1v-2l1,-1v-2l1,-3h1v2l-1,1l1,2v2l-1,1h-1l-1,1v1l-2,2h-1v2l-2,3v1h-1v1h-1l-1,1v1l-1,1v1h-1l-1,1v1h-1v1ZM149,351h3v1l1,-1v2l-1,1v1h-1l-1,1v1h-1l-1,1l-2,1v1h-1v-3h1v-3l1,-3v-1h-1v-1h1l1,1h1ZM150,372l-1,-1v-2h-2v-4l1,-1h1l1,-1v-4h1v-3h1l1,-1l2,1v1l-1,1v2l-1,1l-1,2v1l-1,1v2l1,2v1l-1,1Z"/>
<path class="sl" d="M162,351v1l1,-1h1v5l1,1v3h-1l-1,-1v2h-1v-7l-1,1h-1v-5h1v1ZM167,341l1,1v1h1l-1,1v7l1,1v1l-1,-1h-2l-2,-2v-1h1v-2l-1,1v-2h-1v-1h-1v-1l-1,-1l1,-2l1,1l2,-1ZM141,337h3v1v-1h1v2h1v1h-1v4h-1v2h-1v1h-1v-1l-1,-1v-5l-1,-1v-1h-1v-1h1ZM169,367h1v5h-1v1h1v7h1v4l-3,3v4l-1,1v-4l-1,-1v-3h-1v1l-1,1v1l-1,1v1l-1,1h1v1h1v4l-1,1l-1,2l-1,1v-4l-1,2h-1l-2,-1l-3,-3v-6h1v-1l1,-1l-1,-1v-1h-1l-2,-2v1h-1v3h-1l-1,-1v-1v1h-1v1h-1v-2h-1l-1,1v1l-1,2l-1,1v2l-1,1v-1l-1,-1v-1h1v-1l1,-3v-1l3,-3h2v-1h1v-2l1,-1h1v-1l1,-1l1,1h1v4h-1h1l1,-1h1v-1l1,-1v-1l1,-1l1,1l1,-1v-2l1,-1h2v-1h2v-5l1,-1h1l1,1v1ZM152,368v-1l2,-5v-1l1,-2h1v-2l1,-2v-1h1v-1v5l-1,2l-3,3v1l-1,3ZM158,292v1h-1l1,-1h1ZM157,289v1h-1v-1ZM161,281v-1h1ZM162,278h-1l1,-1ZM136,399h1v1h-3v-1h1ZM114,387v1v-2h1ZM133,363h-1v-1l1,-1v1h1h-1ZM136,348v1l1,-1v2h-2v-3ZM135,352v1v-1l-1,-2h1v1h1h-1ZM149,360l-1,1v-2l1,-1h1v1ZM160,364v1h-1v1h-3l-1,-1l2,-2v-1h1l1,-1v1h1v1ZM130,406v1h-1l-1,1l1,-1v-1ZM142,395h-1v-1l-1,-1h1l1,-1l1,1v1ZM169,363v-1l1,-1v2ZM167,362l-1,-1v-2h1v-1h1l-1,2v1ZM139,335v1ZM149,336v-1l1,1v1l-1,1h-1v-3ZM148,345l-1,2v-2l1,-2h1l-1,1ZM151,345h-1v-1h2ZM156,340v1v-1h-1v-1h-1v-1h1v2ZM158,343v1v-1l-1,-1v-1h1v1ZM158,344l1,1v3l-1,-1h-1v-1l-1,-1l-1,2l-1,1v-2l1,-2v-2h1v1h1ZM163,333l-1,1l-1,-1l1,-1v-2h1v-1l1,1v2ZM151,331l-1,-1ZM152,323v1h-1v2h-1h1v-1h-1v-2h1ZM159,358v-1h1ZM165,362l-1,-1ZM148,386l-1,1v-1l1,-1ZM165,387v-1ZM162,350h-1v-1h1ZM161,369v1h-1v-1ZM155,292h-1v-1h1ZM134,354v1h-1ZM157,352v2h-1v-1h1ZM149,343v1ZM169,365h-1v-1l1,-1v1ZM164,349h-1v-1ZM116,384v-1ZM154,370l-1,1v-1l1,-1ZM369,471l-1,1v-1h-1v-4l-1,-1v-1l-2,-3l-1,-1h-1l-1,-1h-1l-1,-1l-2,-1h-1v-1l-3,-2h-3l1,-1v-1l1,1l2,1v1h2l1,1h1l1,1l2,1l2,2h1l6,6v3ZM360,468h1l1,-1v1h2v4l-1,1v1h-2v1l1,1v2h-1l-1,1h-3v1l-3,3h-2l-1,1h-1v1h-1l-1,1h-7l-1,-1v-1h-1l-2,1l-2,-2h-1l-1,-1h-2v-2l1,-1l1,1l1,-1v1l2,-1h1l1,1h2l1,-1h2l1,-1v-2l1,-1h1l-1,1v2l1,1h2l1,-1l1,1h1v-1h1l1,-1v-1l2,-2h1v-1h2v-2l-1,-3v-1h3ZM274,515v-7l-1,-2v-10l-1,-1v-3l1,-1v-1l-1,-2v-25l-1,-1v-4h2l4,2h1l1,1l2,1h3l3,1h1l2,1h1l2,1h1v1l2,1h4v1h1l2,2h1v1h2l4,4v5h1l1,1h3l5,3h4v1h1v1l1,1h1v3l-1,1h-5l-1,1v1l1,2l6,6h1l2,1v1l1,1v2l2,1l1,2v1l1,1h1l2,-1h2v1l-1,1v1l2,2h5v1h-1l-1,1l1,1v1h4v1h4l-1,1h-2v1h2l-2,2h-1l-1,-1h-2v-1h-1l-1,-1h-7l-1,-1h-8l-2,-2v-1l-1,-1h-1l-3,-3v-1h-1l-3,-3v-1l-2,-2v-1h-1v-2h-1l-2,-1h-4l-1,-1h-2v-1h-3v-1l-1,1h-1v1h-3l-1,-1v-1h-1l1,1l1,3v1h-3l1,1l-1,1h-2l-1,1h-2l-1,-1l-1,1h-1v-1h-1l1,1h3l1,1h1l3,3v1h-1l-1,1h-1l-1,2l-2,1h-1l-1,-1h-8l-1,1h-1Z"/>
<path class="sl" d="M328,483v-1h-1l-1,-1v-1h1l2,1v1ZM312,474h-1v-2h1v1ZM366,457v1l-1,-1ZM361,456h-1v-1ZM342,445h-1l-1,-1v-1h1l1,1ZM355,518l1,-1h1l-1,2h-2v-1h-1v-1l-1,-1v-1l1,1l2,1ZM349,514h-1l-1,-1v-2l1,1h1v1ZM355,507h-1v-3h1v1ZM382,529h-2v-1l1,1l-1,-1h2ZM294,508l-2,-1h2ZM321,480l-1,-1v-1l1,-1l1,1v1ZM320,449l2,1h1h-1l-1,1h-4v1l-1,-1v1l-1,-1h1v-1h1l1,-1ZM348,454h-3l-1,-1l1,-1h2l1,1ZM350,512l1,1h1l1,1v1h-3v-1l-1,-1v-1ZM367,508h2v1h1v1h-2l-1,-1h-1ZM376,530h1l1,1h-3l-2,-2h1ZM294,509v1l-2,-2h-1h2ZM326,452h-1ZM360,455v-1h1v1ZM354,523h-1ZM375,465v1l-1,-1ZM395,487l-1,1h-1v1h-2l-1,-1h-1v-1l-1,-1v-2h-1l-2,-2v-1h-1v-4h1l1,1h1l1,2l1,1h1v2h2l1,1v1h1v1ZM383,477v-3h-1l1,-1l1,1v2ZM225,377v-2h1v1ZM236,144l-1,1v-1ZM532,772h2v-1h1l1,-1h1v2h1l-1,-1h1v-1h2v1h-1v1h-1h1l1,-1v1h-1v1h-1v1h1l-1,1h1v1l-1,2h-1v1h-1l-1,2h-1l-1,2l-2,2h-1l-2,2h1h-1v1h-1h2v1h2v2h-2v-1l-2,1l1,-1h-2v1l-1,-1h-1l1,1h-1v1h-3l-2,2v3l-1,1h-1l1,1l-2,2v1l-1,1v1h1v1h-3v1h-1v1l-2,1l-1,1l-2,1h-3l-1,-1v1h-2v-1l-1,-1h-2l-1,-1h-6v-1l1,-1l-1,1v-1h-2l1,-1h3l-2,-1h1l1,-1h-2v-1h3l-1,-1v-1h1v-1l1,-1v1h1l-1,-1h1l1,-1h1v-1l3,-3h1l1,-1l1,1l1,-1h1v-1l1,-1h2l1,-1h1l-1,-1h1l1,-1h2v-1h-1h2v-1h1v1v-1l2,-2v1v-1l1,-1h1v-3l1,-1v-1h1l1,-1h1v-1l1,-1v-1l2,-4l1,-1h1l1,-1h1v1h-1v1l1,1h1v2ZM538,769l-1,1v-2h1ZM491,803v1h-1v-1ZM492,800l1,1h-1ZM500,811v1h-1h1v1h-1l-1,1h-2l1,-1v-1h1l-1,-1v-1h1ZM551,735l-1,-1v-1h1v1ZM536,724v1l1,-1v-1v1h1l1,1h2l1,1v1h2v1l1,1v2h-1v1l1,1l1,2v4h-1h1l1,1v-1l1,1h1v1l1,1h1v-4l-1,-1l1,-1v1l1,1h1v4l1,2l1,1h-1l1,1h1l2,1h1l2,1h2l1,-1h1v-1h1l1,-1h2l1,1h1v1h-1v1l-1,2v2l-2,2h-1v1l-1,1l1,1l-1,1v-1l-1,-1h-2l-1,1h-1l-1,1v2l1,1l-3,3v1h-1v1l-3,3v1l-1,1h-1v1l-1,1h-1l-2,1v1h-1v-1l-1,-1h-1v-1h-1v1h-1v-1l2,-1l1,-2l1,-1v-1l1,-2v-1h-1l-2,-2h-1v-1h-1l-1,-1h-1l-2,-1v-1h-1v-1h1v-1h2l1,-1h1l1,-1l1,-2v-1l1,-1v-3h1v-2l-1,-1v-2l-1,-1h1v1v-1h2l-1,-1h-2l-1,-1v-1l-1,-2l1,1h1v-1h-1v-2h-1h1h-1l-2,-2v1l2,2l-1,1v-2h-1l-3,-5v-1h1v-1h1h-1v1h-1v1l-1,-1v-1h-1v-1l1,-1l-3,-3l-1,-2h3l-1,1l2,2ZM505,848v1h-1v-1ZM489,837v1h-1v-1v1h-1v-1h1v-1h1ZM597,792h-2v1h1v1h-2v-1h1v-1h-1l1,-1ZM596,796v-1h1Z"/>
<path class="sl" d="M674,514v-1h-1h1ZM677,598l-1,1v-2h1ZM963,312l1,1h-1v-2ZM967,330v-1ZM948,281v1v-2h-1ZM929,247h-1l-1,-2l-1,-1v-1v1h1v1l1,2ZM929,252v1v-1l-1,-1v-1ZM930,249l1,1l-1,-1l-1,-2l1,1ZM920,243l-1,-2h-1h1v1ZM952,288l-1,-1ZM915,226h-1ZM943,272l1,1h-1l1,1ZM949,284v1l-1,-2ZM948,283l-1,-1v-1h-1v-2l-1,-2l1,3v1h1v1ZM39,418v-2l1,-1v1l1,1v1h1v3l-1,1v1h1v-1l1,-1h1v1v-1l1,-1v-2l1,-1l1,3l1,1v2l1,1v11l-1,2v1l1,1l-1,1v5h1l1,1v3l1,4v4l-1,-1v-1v1h-1l-1,2v-2l-2,-2h-1v-1l-2,-2v-1l-2,-2v-4l-1,-2v-2l-1,-1v-20ZM114,418l-1,-1h-3l-1,1h-2l-1,1l-1,-1v1l-1,1v2l-1,2v6h-1v1l-1,-1v3h-1v1h1v1h-1v1l-1,1v4h-1v2l-1,1v1v-1l-1,1h-2v1l-1,1h-2l-1,-1h-1h1l-1,-1l-2,1h-1v1h-1v3h-1v1h-1l-1,1l-1,-1l-1,1h-1l-1,2h-1v-1l-1,-2h-1v-1h-1v-3h-1v-1l1,-1v1l1,1h2l1,1h2v1l1,-1h-1v-2h1v-6h1v-2l1,-1v-1l1,-1l5,-2l1,-1v-1l1,-1l1,-2v-2l2,-2l1,-3l1,-1v-2l1,1v2h1v1h1v-1l1,-1v-5h1v-1v5h1v-5h1l1,-1v-5h2v-1l1,-2l1,-1v-1l4,-8v3l1,-2l1,-1v1l1,1v1h1v5l-1,1l2,-1l1,-1v2h-1l1,1l1,-1v-1h1v1h1v1h1l1,1h2v1l-1,1v1l-2,1h-3v1l-1,1l2,2v2h-2v1h-3v1ZM51,445v-1ZM39,427v1l-1,-1v-1h1ZM38,418v1h-1ZM114,393v1v-2l1,-1v2ZM41,446v-1ZM82,440v-1ZM116,418h-1v-1h1ZM540,402v-1h1v1ZM542,412h-1v-1h1ZM542,413v-1ZM542,419h1l-1,1v1h-1l1,-1ZM555,435h-1h1l-1,-1v-1l1,1ZM557,439v-1ZM542,416h1ZM512,435h-1ZM677,459h-1ZM648,471v1ZM815,544v-1ZM783,424l1,1h-2l-1,-1h1l1,-1h-1h1ZM768,405v1h-1v-1ZM672,456v1v-1v1v-1h-1ZM270,160h-1v-1ZM303,147l1,-1h-1v-1h1l1,-1h1h-1v1l-1,1ZM273,171l-1,1v-1l1,-1h1ZM237,201h-1v-1h1ZM239,200h-1h1v-1l1,-1v-1h1l-1,1v1ZM239,188h-1h1v-2h1v1ZM240,176h-1l1,-1h1ZM241,174v1v-2h1l1,-1h-1v1ZM232,185h1v1h-1ZM241,186v1l-1,-1h2ZM340,103h-1l1,-1ZM340,104v-1l1,1ZM322,121h-1h1v-1ZM270,170v1v-1h-1h2ZM235,185v-1l1,-1v1h-1ZM238,182v-1h1ZM242,178h-1v-1h1ZM259,174h-1h1v-1ZM257,175v1h-1v-1ZM235,192l1,-1ZM304,220v-1ZM352,108h1l2,1h2l4,-2l-3,3v1h1v1h2v-1h1l-1,1h-1l-1,1h-2l-1,1h-5l-1,1l-2,1l-1,1l-2,1l-1,1v1h-3l-1,-1l-2,-1l-1,-1l-6,2l-1,-1h-1l-1,1h-1v1l1,1h2v1l-1,1h-1v-1l-1,1h-1v1h-1l-1,1h-1v-1l2,-2v-1h-1v-2h1v-1h1l1,-1h2v-1l1,-1v-1h6v-2h1v-1l2,-1l1,-2h1v-1l1,-1v-3h1v-1h3v1l1,2l1,1h1v1h1l1,1Z"/>
<path class="sl" d="M249,178h2l1,-1v1l-2,2h2v3l-2,1l-2,2v1l-1,1v1h-1v1l-1,1l-1,2h-2v1l-1,1l-2,1v-1h1v-1l1,-1v-2h-1v1l-1,1v2l-2,-1l1,-1v-2l1,-1v-1l1,-1h1v-1l2,-2v-4l-1,1v1h-1v1h1v1h-1v-1h-1v1h-1l-1,1v-1h1v-1h-1h1v-1v1h1v-2h-1v-1h2v-1h1l1,-1h1l3,-3h2v1ZM270,172h1v2l-1,1l-2,1v1h-1l-1,1v1v-1l-1,-1h-2l-2,1l-2,2v1h-1v1l-1,1h-2l1,-1h-1v-2h1v-2l-1,1h-1l1,-1h1l1,-1h1l1,-1v-1l1,-1h1l1,1l1,-1h2v-2h2l1,-1h1ZM330,125l1,-1v1l-1,1l-1,2v1l1,1v5l-2,2v1h-2v1h-1v2h-1v1h-2l-3,3v3l-1,2l-4,4v1h-1v4h-1v1h-2v2h-1v1h-1l-1,1h-1v1h-1v-1l1,-1v-1h1v-1h1v-1h-1l-1,1h-1v2h-1v-1h-1l-1,1h-1v2h-1v1h-1v1h-1l1,-2l1,-1h-3v1h-1v1l-1,1h-5l-1,1h-2l2,-1h-2v-2h-1v1l-2,2l1,1h1l-1,1l-2,1h-1l-3,3l-2,1l-1,1h-1l-1,-1v-4h1l1,-1h1v-1h-3v-1h-2l-1,1h-1l-1,1h-1v1h-3l-1,1h-2l-2,1h-1v-1l-1,1h-1l-1,2v1h-1l-1,-1h-2l-1,1h-1v-1h-1v-1h1v-1h3v-1h1l1,-1h1v-1h1l2,-2h1l1,-1l2,-1v-1h2l1,-1h1v1l1,-1h5v-1h1l3,-1h2v1h3l1,-1h1v-2l2,-2h1l2,-2l2,-1v-2l1,-1l1,-2h3v-1v1l-1,1h-1v1h-1v2h2l1,-1l3,-1l1,-1h2l4,-4h1l2,-2h2v-1l1,-1v-1h1v-1l1,-1h1l1,-2l1,-1h1v-2h1v-1h-2v-1h1l1,-1h1v-2l1,-1h1v-1h1v-1h1v-1h2l-1,2h1l1,-1h2v-1h-2v-1l1,-1h1ZM184,247v1l-1,1v-1h1l1,-1ZM182,249h-1v-1ZM192,245h-1v-1h1ZM213,228l-1,1h-1v1h-1v1l-2,2v-1l1,-1v-1h1l1,-1v-1h1v1v-1l1,-1h1v1ZM220,220v-1ZM224,216l-1,1v-1l1,-1h1l1,-1v1h-1v1ZM301,177v-1ZM28,463l1,3v4l-1,-1v-3l-1,-2ZM33,489v1l-1,-1v-3l-1,-1l1,-2v-1v1l1,2v3h1v1ZM113,530l-1,1l1,1l-1,1l-1,-1v1l-1,-1h-1v-1v1l1,-1v-1l-1,-1l1,-2h1v-1l1,1h1v1ZM106,527h1v1l1,1h-1v1l-1,1v2h-1v-2h-1v-1h-2v-1h-1v-2h1l1,1l1,-1v-1h1v1ZM58,481v1h1v3l1,2l1,1v4h-1v-1h-2v-4l-1,-1v-1h-3v-1h1v-3l1,-1v1h1v1v-3l1,1ZM147,488l1,2v1l-1,-1v1l-1,1v2h2v1l-1,1h-1v2h-1l-1,-1l1,-1v-7l1,-2h1ZM144,495v1h-2v-2l1,-1l-1,-1l1,-1v-1l1,-1l1,1v2l-1,2ZM68,432h-1l1,-1h-1v-2l1,-1v-1v1l1,1v2ZM68,490v1h-1v1v-1h-1v1h-1v-5l1,-1h1v1l1,1ZM229,445h4l3,3v1h-4v-3l-1,1l-1,-1h-1ZM230,453h10v1h-1l-1,1h-3l-1,-1h-1ZM196,442l2,1h2v2h-3l-2,-2v1l1,1h1v1h-1l-1,-1v1l-1,-1h-2l1,-1v-1l1,1v-1h2ZM180,427h-1v-2l1,-2l1,-1h1v3l-1,1ZM178,459h-1l-1,1h-2l-1,-1l2,-2v-1l1,1h1l1,1ZM165,468l-1,-1v-1l-1,-2l1,-1v2l1,2ZM164,462h2l-2,1h-1l-2,1v-1h-1l1,-1h1Z"/>
<path class="sl" d="M158,462h2v1h-1l-1,1h-1l-1,1h-2v-3h2ZM203,511v1h-2v-3h1v-2l1,-1v-1h1v-1h1v4l-2,2ZM172,512v1l-2,2h-3l-1,1v-2l1,-1h2l2,-2ZM158,518l1,1v-1h3v2l-4,1h-1v-1h1l-1,-1h1ZM198,454h-1l-1,-1v-1l-1,-1l2,-1h1v3ZM27,432h1v-1h1v1l1,-1v1l1,2v2l1,1v3l1,1v1l1,1l1,2l1,1v3l1,1v3h1v1l1,1v-3h1v2l1,1v2h1l1,1v4l1,1v1h2v2l-2,2h1l1,-1v-1l1,-1h1v1h1v3l-1,1v6h1l1,1h1l1,2v5l1,1v5l1,-2l1,-1h1v1l2,3l1,2v1l-1,2v6l1,4v11h-1v-1l-1,-1l-1,2l-2,-1v1l1,1v1h-1v-1l-1,-1v-1h-1v-1l-1,-2v-1l-2,-1v-1h-1v-1l-1,-1l-1,-2l-1,-1l-1,-3l-1,-2l-1,-1l-1,-2v-2h-1v-1l-1,-2v-3l-2,-5v-4l-1,-2v-1l-1,-1v-3h-1v-1h-1v-4l-1,-3v-6l-1,-1l-1,-2h-1v-5h-1v-3l-1,-2v-1h-1v-2l-2,-5v-7l1,-1l1,1v1ZM148,524h-1v1h-3v1l-2,1h-2l-1,1h-3l-1,-1l-2,1h-1l-1,1v-1l-1,-1v-1l2,-2v-1h5l1,1h1v1h1l1,-1h1v-1h1l2,1h1v-2h1l1,-1v-1h-1l1,-1l1,1v1l-1,1v1ZM132,533h1l1,1v1h2v1l2,2v1l-1,1h-1v1l-1,-1h-1l-2,-2l-2,-1h-3v-1l-1,-1h1v-1h1l1,-1h2l1,-1ZM121,525l1,1v-1h2v1v-1h1l1,1v1l1,1h-2l-1,1h1h-1l-1,1l-1,-1v1h-1l-1,1h-1l-1,1h-1v1h-3v-5h1v-1h3v1h1v1h1l1,-1v-1h-1l-2,-2v-1h3ZM157,439l-2,2v2l-1,1h-1v1h-1l-2,1h-3l-1,-1h-5l-2,1h-3l-3,1h-3l-2,2v2l-1,1v3l1,1v1l1,2l1,1l1,2v1h2l1,-1v-1l2,-2v-1l1,-1v1h2l2,-2h4l-1,-1l1,-1h3v3l-1,1v-1h-1l-1,-1v1h-1v1l-1,1l-2,4l-1,1l-2,1v1l-1,1h-1v-1l-1,1h1v1l1,1h1v1l1,2l1,1v1l1,1v1l1,1v2l-1,1v1h1v1l1,1h1v2h1v-1v1l1,1v1h-1l-1,1h-1l-2,1v3h-3v-1h-1v-4h1v-1l-1,-1h-1v-1l-3,-2v-2l1,-2v-3l-1,-1h-2v1l-2,2v1l1,1v1l1,3v1l-1,1v2l1,3v2l-1,2v2l1,2v1l-1,1h-2v1h-2v-1l-1,-1v-3l1,-2v-7l-1,-2v-3h-1v1h-2l-1,-1v-6l1,-1v-1l1,-1v-3l1,-1v-1l-1,-1v-2l1,-2v-3l1,-2h1v1v-9l1,-2v-1l1,-1v-1l1,-1v-1v1h2v-1l1,-1v-2h1v-1h1v1h2v1h7l1,1h1v-1h6l2,-2l1,-2h1v-1l2,-2v-1h2v2l-1,2v1ZM66,517v1h4l1,1v1l1,2h3l1,-1l1,1h1v-1h1l1,1v-1l1,-1v-3h1l1,1h3v1h4v1l1,1v1h1v2l1,1h4v-1h1l2,1l1,1v6h1v1h-1v-1h-2l-4,-2h-1v1h-1v1h-11l-3,-2h-1l-2,-1h-1l-1,1v-1l-1,1h-1v1h-3v-1h-1l-1,-1h-1l-2,1l-1,-1v-2l-1,-1h-4v-1l1,1v-3h1v-6l1,1h3v-2h2ZM74,445l-1,1v1h1v3h1v1h1l1,2v1h1l1,-2h1l1,-1l1,1l1,-1h1v-1h1v-3h1v-1h1l2,-1l1,1h-1h1l1,1h2l1,-1v-1h2l1,-1v1v-1l1,-1v-2h1v-4l1,-1v-1h1v-1h-1v-1h1v-3l1,1v-1h1v-6l1,-2v-2l1,-1v-1l1,1l1,-1h2l1,-1h3l1,1v2l1,1v2l-1,-1v1h-2v1l1,1v2h1v2h1h-1v1h1v1l1,1v3l-1,1v1l1,1v1h1l2,2v1l2,1v2l-1,1h-4v-1l-1,-1l1,1v1l-2,2l-1,3v10l-2,2v1l-1,1h-1v-1v3h-1v2l-1,1v1l1,1l-1,1v1h1v3h-1v4h-1v1h1v1h-1v3l-7,7l-1,-4v-3l-1,1v-1h-1l-2,2h-1v-2h-1l-2,-2v2l-1,2l-1,1l-1,-1l-2,2v1l-1,-1v-5h-1v1h-2l-1,1h-1l1,-1h-1v1l-1,-1l-1,1v-2l-1,-4v-2l-1,-1v-7h-1v-1h-2v-2l-1,-1v-4l1,-1h-1v-1l-1,-1v-7l1,-1v-3l1,-1v-2Z"/>
<path class="sl" d="M175,438h1l1,-1v-1l1,-1v-2l2,-2h2v4l-2,2h-1v1l1,1h1l1,1v1h1v1l-2,-1h-4v1h-1l1,1l-1,1l2,5l1,2l1,1h-1v-1h-1l-1,-1l-1,-2l-1,-1v-5l-1,-1v-2l1,-1l-1,-1l-1,-2v-1l1,-2v-2l2,-2l1,-2h1l-1,2v7l-2,1v1ZM189,468l2,1h3l2,2v1h1v4l-2,-1l-1,-1h-1l-2,-1v-1h-3v1h-4v-1h-1v1l-1,1h-1l-2,-2h-1v3h-1v-2l1,-3l1,-1h5v-1h1v1h1l1,-1h1ZM170,472l1,1h1v1l1,1v2h-1l-1,1h-1v1h-2l-3,-3v-3h2l1,-1ZM161,525v1h1l1,-1v2h-1v2l1,1h-1v2l-2,2v1l-1,1h-1l-2,2h-1v-2l-1,-1v-3l1,-2l1,-1l1,1h1v-1l1,-1v-1h1v-1ZM226,489v6h-2l-2,-2v-1h1v-2h-1v-1h1v-1h1v-1h1v1ZM225,496h-1v2l-2,2v-1h-1v-3h1l-1,-2h1l1,1h1ZM255,509l-2,1h-3l-1,1v-2l2,-5v-1l1,-1h1l2,-1h2v1l1,1v1l-1,1v2l-1,1ZM271,458v4l1,1v25l1,2v1l-1,1v3l1,1v10l1,2v7l-8,-8v-1l1,-1l-1,1v1h-4l-1,1v-1l-1,-1v1h-1l-1,2v-1h-1l1,-1v-2l1,-1v-1l-3,-3l1,-1h1h-1l-2,-2l2,-1h-1v-1l-3,-3v-2l-1,-1v-1h1h-2l1,-1v-1v1h-2v-2l-1,-1h-1v-1l-4,-2h-3l-4,-2h-1l-1,-1h-7l-3,-2v-2h1h-5v-1h-2v-1h-1l-1,-1v-3h1v-1h-1v3h-1v2l-1,1v1l-1,2h-3v-5l-1,-1l-1,-2l-2,-1h-2v-2h5l1,-1l1,-2h4l1,1v-2h1v-2h1v-1l-4,2h-1l-2,1h-3l-1,-1v1h-1l-2,-2v-1l-1,-2v-1h-1l-3,-1h-1v1h-1v-2h1v-3l1,-1h1l2,-1l4,-4h2l2,1h1l2,1l1,1h5v1l-1,1l2,2v2l-1,1v5l1,1l1,3l1,1v-3l1,1v3h1v1l1,1v1h4l3,-3v-1l1,-1v-1l2,-1v-2l1,-1h1l4,-2v-2l2,-2l2,-1l1,-1h1l1,1l4,1l1,1h1l1,1h1l1,1l4,2h1l2,-1v1h4l1,1ZM258,510h-2l-1,-1h1v-1h1l1,1ZM42,453v3h-1v-2ZM44,462v-1h-1v-2l1,-1v3ZM44,458v1v-1h-1v-1h1ZM46,463v1v-1h-2v-2l1,-1v2h1ZM47,462h-1v-1h-1v-1h1v1ZM47,465v-1ZM48,463v1l-1,-1v-1h1ZM50,458v1v-1v1ZM52,457v2h-1v-1h1ZM53,469v1h1h-1v-1l-1,1v-2ZM52,471v2h-1v1v-2ZM49,472h-1v-1h1ZM74,472l-1,1v-2h1ZM97,519l-1,1h-1v1h-4v-1l2,-2l4,-1l1,1ZM226,449h-1v-1h1ZM172,450h-1v-2h1v1ZM174,448l1,1v2h1v2l-1,-1h-1v-1l-1,-1v-2l1,1ZM213,492l-1,1l1,-2v-1l1,-3v2l-1,2ZM212,492l-1,1v-2l-1,-1h1l1,1ZM180,476v1h-1v-1v1h-2l1,-1h1l1,-1ZM170,411h-1l1,-1v-3h1v2l-1,1ZM162,417v-1h-1v-1h1v1ZM200,515h-1l2,-2h1l-1,1h-1ZM193,512l-1,1l-1,-1v-1h1ZM179,515h2v1h-2ZM193,457v1h1v2h-1v1h-1l-2,-1h-1v-1l2,-1h1ZM46,518l-1,-1v-1l1,1ZM38,500v1v-1h-1v-3l1,2ZM37,497h-1v-2l1,1ZM36,494l-1,-1v-1l1,1ZM31,480h-1l1,-1v-2l-1,-2h1v3Z"/>
<path class="sl" d="M26,457h-1l-1,-2v1v-2h1v2h1ZM141,497l-1,-1h-1v-1h1v-1h1v1ZM147,459l-1,1l1,1v-1l1,-1v1h1l-1,1v1l-1,-1v2h-1v-3l-1,2v1l-1,-1v-2l1,-1h1ZM138,454h1h-2v1v-1ZM133,506l-1,1v-4ZM105,517h-1v-2h1v1ZM107,489l-1,2v-7h1v4ZM151,544l-1,-1v-1h2v-1l1,-1v-1v1l1,1h-1v1l-1,1ZM157,520l-1,1v1l-1,-1v-1h1v-1h1ZM155,520h-1l-1,1v2h-3l2,-2h-1v-1h2l1,-1v1ZM151,521v1h-2v-1h1v-1h1ZM226,496l-1,1v-1ZM48,460v1h-1v-1l1,-1ZM49,462v-1ZM51,461h-1v-1ZM52,467v-1ZM60,439h-1v-1ZM57,442v-1h1h-1ZM71,438l-1,1v-2h1ZM70,477v-1ZM64,490v-1ZM62,491h-1l1,-1ZM100,519h-1ZM90,509v1l-1,-1ZM58,524l-1,1v-1l1,-1ZM28,458v1v-1l-1,-1h1ZM25,429h-1v-1h1ZM149,463h-1v-1l1,-1v1ZM148,484l-1,1v1l-1,-1v-2h1ZM151,465l-1,1v-1ZM146,465v-1ZM128,528v-2h1v1h-1ZM126,524h-1v-1h1ZM107,532v-1ZM115,418h1v1h-1ZM115,426h-1v-2l1,1ZM154,500h-1v-1ZM151,494v1h-1v-1ZM135,513h-1v-1h1ZM117,527v-2h1ZM108,485v2l-1,-1ZM173,438v1ZM222,458h-1l1,-1ZM217,477v1l-1,-1h-1v-1l1,1ZM197,449v1l-3,1v-1h2v-1ZM195,447h-1l1,-1ZM188,445h-1l-1,-1v-1ZM174,445h-1v-1ZM173,440v-1h1ZM173,452h-1v-1ZM183,475h-1v-1v1ZM182,475l-2,1l1,-1ZM170,412v1l-1,-1v-1ZM161,424l-1,-1h1ZM207,504h-2v-1h1ZM184,506v1l-1,-1h1v-1ZM176,511v1v-2h1v1ZM153,538v-2l1,1h-1ZM145,542h-2l1,-1v-1h1v1ZM227,495h-1h1v-1ZM226,498h-1l1,-1ZM178,470l-1,1v-1ZM175,474h-1l1,-1ZM149,523v1h-1v-1h1v-1h1ZM22,422v-2ZM22,417v1ZM22,411v-1ZM22,413v-1ZM23,412h-1v-1l1,-1v1ZM22,403v1ZM24,392h-1l1,-1v-1ZM25,385v-1h1h-1ZM26,383v1v-5h1v-4l1,-1v-2l1,-1v-3l1,-1v-1v3h-1v3l-1,3v1l-1,1v3h-1v2ZM27,379v1ZM28,372v1v-2ZM631,546v-1ZM615,554h-1v-1ZM810,589v-1ZM819,598h-1v-1h1ZM810,591v-1ZM822,599v2l-1,-1h-1v-2h2ZM892,540l1,1h-1ZM892,542l-1,1ZM893,548v-1h1h-1ZM888,532h-1v-1h1ZM887,537v-1ZM870,608v-1h1h-1ZM890,533v-1l1,1ZM869,613v-1ZM869,611l-1,-1h1ZM891,618v1v-1h-1ZM888,616v-1ZM875,636h-1v-1h1ZM864,592v-1ZM858,595v1v-1h-1ZM850,587v1v-2ZM847,591v-1ZM467,603l1,1h1l1,1l4,2l1,1h1v1h1v1h1l1,1v1h1l1,1h1l1,1l2,1l3,3h1l1,1v2h-2l-1,-1h-2l-1,-1h-1v-1l-1,-1h-1l-1,-1h-1l-2,-1l-1,-1l-2,-1l-6,-6l-1,-2v-1h-1v-1ZM495,623l-1,1v-1ZM432,596v-1ZM498,613h1v2h-2v-2ZM486,607l1,-1v-1v2Z"/>
<path class="sl" d="M493,611h-1l-2,-2h1l1,-1h-2l1,-1h2v2l1,1ZM177,881l-1,-1h-1l1,1h1v1l-1,-1v-1h-1h1v1h1v1h1h-1h1v1h1l1,1h-1h1h-1h1l1,1l-1,-1h-1v-1h-1v-1h-1l-1,-1ZM176,881v-1h-1h1ZM598,570l-1,1h-1v1l-2,2v1l1,-1l2,-1v2h-5v-1h-1l-1,1v1h-3v-1h-2l1,-1v-1h1v1l1,-1h1v-1h3v-1h2v-1h3ZM583,580h1v1l1,1h1v4h-2l-1,1h-4l-1,-1h-3v-2l1,-1v-1l2,-2h3l1,-1h1ZM598,576v1v-2l1,-1v2ZM598,577h-1v-1l1,-1v1ZM584,593v1h-2v1h-2v-1h2v-1h1ZM605,586v-1ZM607,588l-1,-1h1ZM611,585v1ZM606,579v1v-2ZM608,596v-1ZM598,594v-1ZM575,578v-1ZM593,580l-1,-1h1ZM592,586h-1v-1h1ZM588,583h-1v-1h1ZM599,573h-1v-1h1ZM598,570v-1h1ZM598,573v-1ZM576,537h-1ZM606,609v-1ZM151,253v-1ZM192,199h-2l-1,-1v-1h1v1h1v1ZM189,209h-1v-1ZM189,210v-1ZM162,244v-1l1,-1v2ZM105,286h1l-1,1h-1ZM178,223l-1,1v-1ZM124,270v-1ZM117,280v-1l1,-1v1ZM117,279l-1,1v-1ZM105,294v1l-1,1v1l-1,1l-1,2l-1,1l-1,2v1l-1,1h-1v1l-4,4v-1h-2l-1,-1l1,-2v-1l1,-3l3,-3v-1h1v-2h2v-1h2l1,-1v1v-1h1v1v-1l1,-1v1ZM125,271h2v1h-1v1l-1,-1v1v-1ZM126,274h-1v-1h1ZM125,274h-1v-1h1ZM751,77l1,1h2v1h1h-1l1,1v-1h-1v-1h-1h2v1l1,1h1l1,1v1h-1v-1h-1h1l-1,-1h-2v-1h-1l-1,-1h-1l-1,-1ZM760,82v1h1v1v-1v1h2v1h1l1,1h1v1h1h-1l-1,-1h-1l-1,-1l-2,-1l-1,-1l-2,-1h1ZM786,98l2,1h2l1,1h1v1h1l1,1h1l2,2h1v1h1l2,2h1l1,1h1l3,3l2,1h-1l1,1l-1,-1h-1l-2,-2h-1l-1,-1h-1v-1h-1v-1v1h1h-1l-1,-1h-1v-1h-2v-1h-1l-1,-1l1,1h-1v-1h-1h1l-1,-1h-1l-1,-1h-1h1h-1v-1h-1v-1h-1h1v1l-1,-1h-1v-1h-2v-1h1v1v-1h-2l-1,-1h-1v-1h1ZM754,77h-1v-1ZM769,89v-1h-1ZM759,80h-1v-1v1v-1h-1h1ZM765,84h-1l-2,-2h-1v-1h-1l1,1h2l1,1ZM753,76l-1,-1h1ZM769,86l2,1l1,1h1v1l-3,-3v1l-2,-2h-1v-1h-1h1l1,1ZM797,105v1v-1h-1ZM800,106l-1,-1h-1v-1v1h1ZM794,103h-2v-1h1v1ZM794,102h1h-1l-1,-1h-1v-1l1,1h1ZM771,87v1l-2,-2h-1l2,1ZM780,93h-1l-1,-1h1v1ZM773,88h-1v-1h-1l-1,-1h1v1l1,1ZM767,85h-1v-1h-1h1ZM766,84h1h-1l-1,-1ZM806,110v1v-1l-1,-1ZM806,110l-1,-1h-1v-1l1,1ZM795,103v-1h-1h1ZM639,21h-1ZM55,373v-1ZM55,378v-1ZM39,382v1l-1,-1h1v-1ZM37,390v1v-2h1v1ZM40,377h-1h1v-1ZM41,373v-1l1,1ZM41,375v1h-1v-1l1,-1ZM42,368v2h-1l1,-2v-1ZM40,372v-1h1h-1ZM38,345v-1l1,-1v-1v2ZM47,338v1v-2h1v-1v1ZM44,323h-1l1,-1ZM46,314v1v-2Z"/>
<path class="sl" d="M46,316v2h-1l1,-1ZM40,381v-1ZM40,376h-1l1,-2v1ZM41,370l-1,1v-1ZM43,364l-1,1v-1h1v-1ZM39,345v-1ZM46,314l-1,1l1,-1v-1ZM102,414v5h-1v-5ZM101,414v1h-1v5l-1,1v1h-1v-1h-1v-2l-1,-1h1l3,-3v-1l1,-1ZM49,298l-1,1l2,-3l-1,1ZM50,296l1,-1v-1v1h-1ZM48,299l-1,1l1,-2l1,-1v-3h1v-1v2l-1,1v1ZM49,300v1v-2ZM48,303v-1l1,-1l-1,1ZM50,293v-1h1ZM293,538v4h1v1l1,1v1l1,1l1,2v6l1,1l1,2v2h1l1,1l2,-2h1l1,-1l1,1v2l3,1l1,1h1l1,1v5l1,2v1l1,2v3l2,2l1,2h1l1,1l2,5v5l1,2l1,1v2l3,3h3l1,1v1h2l1,-1v1l3,3h2l1,1l2,1h1l2,1v1l1,1h-1v1l5,5v2l2,1v2l1,2v2h1v1h1l1,1h1l-1,-2v-1h1v1l1,1h2l1,1v-2l2,2v5l1,3h1v1h1l1,1l3,2h1l1,1h1l1,3l1,1h1l1,1h1v2h1l1,2h1l1,1v2l1,2h1v4l1,5v2l3,5v1l2,2v4l1,1l-2,4v7l-1,3v2l1,1v4l-2,5v4l-1,1h-1v1h-1h1l-2,1h-1v2l-1,1v2l-1,1v3h-1h1l-1,2v1h-1v4l1,1h-1v2h-1l-1,3v11l1,2v2h-1l-2,2h-3l-6,1l-2,2l-2,1l-2,3l-3,1h-1v1h2v2h-1v-1l-1,-1h-1v1l-2,-2h-1l-1,-1h-1l1,-1v-1h-2v1l-1,1l-1,-1h-1h1v-1h1v-1l-2,-2l-2,2h-1l1,1v-1l1,1h-1v1h-1l-1,1l-1,2h-1l-1,1l-1,-1h-2l-1,-1l-2,-1h-8l-1,-1l-2,-1h-2l-4,-2l-4,-4v-4l-6,-6l-2,-1l-1,-1l1,1v-1h1v1v-2h-2v1h-1l-1,1h-2v-5l-1,-2l-4,-4v8h-2l-1,1h-1v-3h2v-2l-1,-1v-6l1,-1v-1l-1,-2v-1l-1,-3l-1,-1v3l-1,1v4l-1,1h-1l-1,1v1h-1v1l-1,3l-1,1v1l2,2h-3l-1,-1h-1v-1h-2v-1h1l1,1l-1,-2l-1,-1v-1l-2,-2l-2,-1v-2l-1,-1h-1l-1,-1h-1l-2,-1l-1,-2h1v-1h-1l-2,-1l-2,-2h-3l-3,-1h-1l-1,1h-1l-4,-3l-2,-1h-2l-1,1h-1l-4,1h-3l-2,1h-1l-4,4l-4,2h-1l-2,1h-4l-6,6h-1v8h-2v1h-1l-1,-1l-1,1l-3,1v-1h-4l-3,1l-1,1h-1l-2,1v3l-1,1h-2v2l-1,3h-1l-1,1h-5l-2,-1h-2l-3,-3h-3v-1l-1,-1l-2,-4h1v1h1v-4l-1,-1l-1,-3v-1l-1,-1l-3,-6l-2,-2l-2,-3l-1,-1l-3,-5l-1,-1l-1,-2v-2l-1,-1l-1,-2l-6,-6l-1,-2h-1l-1,-4l-4,-5l-3,-3l-1,-2h-1h1v-1v1l2,2v1h1v-2l-2,-2l-1,-2l-1,-1v-1l2,2v2h1v-1l1,2l1,1v-2l-1,-2v-1l-2,-2l-2,-3l-1,-1l-1,-2l-2,-2v-2l-1,-1v-6l-1,-1v-2l-1,-1v-1l-1,-1v-7l2,4v1l1,-1v-6l2,-1l1,-2v-1l1,-1v-2l2,-3l1,-1h4l1,-1l1,-2h1l1,-1l2,-1l1,-2h3v-1l3,-1l3,-3l1,-2l1,-1v-6l1,-1v-1h1l1,-3v-1h-1l-1,-2v-2l-1,-1v-1l1,-1v-2h1v-1l1,-1v-3l2,2v2l1,1l1,2l2,2v-3l-1,-1v-1h1v1h1v-2h-1l-1,-1v-1l-1,-1v-3h1l1,2v-1h2v1l1,-1h1h-1v-2h1l-1,-1v-1h1l-1,-1v2l-1,-1v-3l1,-1v-1l2,1v-1h-1v-2h1v-1h1v1h1v-1l-2,-2v-2h1l1,-1v-2h1v2h1v1v-1h1v-4l-1,-1h1l1,1v1v-1l1,-1v1l1,1v-1l1,-1v-2h1l1,1h1l1,1h1l5,5v5l1,-1v1v-1l-1,-1l1,-1v-1h1v-1h1l3,1l1,1v1v-2h2v1h1v1v-3h1v-1h-1l-1,-1h1v-1l-1,1l-2,-2l1,-1v-2h1v-4l1,-1h1v-1l1,-1l-1,-1v-2h1v-2h1v-3h1v1h1v-2h1v-1h1v-1l2,2l2,-1h3v-1h1v1v-1l1,-1h1h-1v-4l-1,-1h-3l-1,-1h-1l1,-1h1v1h1v-1h1l2,2h1v-1h2v2h2l1,1h3l2,1h5v1h3l1,-1h1l2,-2v-1h1l-1,1v1h1l-1,1h-1v1h1l1,-1l1,1v2h2v-3h-1l1,-2h1l1,2h2l1,1l-3,4v1l1,1l-1,2h-2l-2,1v3l1,2v3h-1v1l-1,3h-1v2l1,1l3,1l1,1l2,1v2h2l1,1v-1v1l1,1h3v1h1l2,1h1l3,3l4,2l1,-1l1,1h2v1l1,1v1l1,1h1l4,2l1,1h1l2,-1l1,-1l2,-1v-4l2,-3v-9l1,-5v-2l-1,-3v-3l-1,-1v-9l1,-1v-1h1v-1l-1,-1h-1v-1l1,-3v-1v1h1v-10l2,-1l1,-1h1l-1,1l2,1v1l1,1v4l1,1v1h1Z"/>
<path class="sl" d="M382,652l-1,-2l1,-1v-2l1,-1v-1l-1,-1l1,-1v2h1l-1,5l-1,1ZM270,580l-2,2h-1v-1l1,-1v-1h2l1,1ZM246,558h2l-1,1v2h1v1h-4v-1h1l-1,-1v-1l1,-1v-1h1ZM200,544h1v1h-2l-1,1v-5h1v1l1,1ZM201,541h3v-1h1v-1l2,2v2h-1v1l-2,2l-5,-5v-1l1,1ZM132,680l-2,-2l-1,-2l2,2v1h1ZM293,738h3l1,1h-2l-1,1v1h-1l-1,-1l-1,1h-2l-1,-1h-1v-1h1l2,-1l1,-1h2ZM349,755h-2v-1h1ZM348,756h-1v-1ZM346,607v1l-1,-1v-1ZM345,606v-1ZM365,634h1v1h1v1h-1l-1,-2v-1ZM359,624v-1l1,1ZM355,623h-1v-1h1ZM388,666l-1,2v-2ZM387,665l-1,-1v-2l1,1v1ZM285,528h-1v-1ZM285,523v1h-1v-1ZM284,523h-1l1,-1ZM323,591v2l-1,-1h-1v-1h1ZM243,537v1v-2l1,-1v-1v1ZM241,539l-1,1l2,-2v1ZM251,575v-1h-1l1,-1v1ZM249,574v-1h1ZM248,574h-1v-1h1ZM270,585v-1h1v1ZM243,559h-1v-1l1,-1v1ZM214,539v-1l-1,-1h1v-1v2h1ZM170,573v1l-1,-1v-1h1ZM167,581v-1ZM128,635h-1v-1h1ZM351,773h4v1h1l2,1h4v-1v1h1v-1h1l1,-1h2v-1h4v1l1,1v3h1v3l1,1v1v-1h-1v-1v1l-1,1v1l1,1l-1,1l1,1v1l1,2h-2v-2h-1v1h-1v-1l-1,-1v1h1v1h-1l1,1l-1,1l-1,-1v1h1v2h-6v-1h1l-1,-1v1l-1,-1h-1l-5,-5l-1,-2l2,1v1l1,-1h-1l-1,-1h-1v-1l-3,-3l-1,-2l-2,-2v-3h1ZM343,768h-1v-2h-1l1,-1v-1l1,1v1l1,1v1ZM367,764l2,1v1h1l-1,1h1l-1,1l-2,-2v-1h-1ZM371,791h-1v1l-1,-1h1v-1ZM374,786h-1v-1h1ZM371,790h-1v-1ZM349,771h-1h1v-1ZM370,768h1v1h-1ZM370,770h-1ZM453,863v-1ZM64,557v1h-1v-1ZM37,582v-1ZM201,899v1v-1h-1ZM677,966h1ZM598,990h1h-1h3v-1h3l1,-1l-1,1h-5v1h-4l-1,1h-2l2,-1h1l3,-1h1h-1l-3,1h-3v1h-2v-1h3l2,-1h1h-1h1h-2l-2,1h-1l-2,1h-3l-2,1h-6v1h-6l-1,1h-3l-1,1h-3l-4,1h-8l-1,1h-1l1,-1h-1v1h-5v1h-9v1h1h-14l-1,1h-43l-1,-1h-17l-1,-1h-10l-1,-1h-7l-1,-1h-8l-1,-1h-6l-1,-1h-4l-1,-1h-5l-1,-1h-5l-1,-1h-4l-1,-1h-4l-1,-1h-4l-1,-1h-4l-1,-1h-3l-1,-1h-3l-1,-1h-3l-1,-1h-3l-1,-1h-3l-1,-1h-3l-1,-1h-2l-1,-1h-2l-1,-1h-2l-1,-1h-3l-1,-1h-2l-1,-1h-2l-1,-1h-2l-1,-1h-2l-1,-1h-2l-1,-1h-2l-1,-1h-2l-1,-1h-1l-1,-1h-2l-1,-1h-2l-1,-1h-1l-1,-1h-2l-1,-1l1,1h1h-1l-1,-1h-1l-2,-2h1h-1v-1h-1h1l1,1h1l1,1h3l1,1h1v1h3v1h2v1h3l1,1h-1h1l2,1h3l1,1l3,1h2v1h3l1,1l2,1h3l1,1h2l2,1h1l1,1h1h-1h1l-1,-1h-3l-1,-1h-2l-1,-1h-1l-1,-1h-2l-1,-1h-1l-1,-1h-1l-2,-1h-1l-2,-1h-2l-1,-1h-1l-1,-1h-1l-1,-1h-3v-1h-1h1l-1,-1h-1l-1,-1h-1l-1,-1h-1l-1,-1h-1l-1,-1h-1l-2,-1l-1,-1h-1l-2,-1v-1l-3,-3h-1v-1h-1v-1h1h-1v-1h-1v-2h1v-1h-1l1,-1h-1h2v-1l1,1h1v-1h-1v-1h1l1,1v-2l1,1l1,-1h-1h3v-2l-2,-2h1v-1h6l4,1h8v-2l-2,-1l-1,-1h1l2,-2h1l1,1h1l3,1h2l1,1h2l1,1l-1,1v1h1v1l1,-1h1v-1h1v-1h6v-1h1l1,-1v1l-1,1h1l2,-1l1,-1v-1h1l1,-1h1l1,-1l1,1h1l1,-1h-1v-1h4l4,2h5v-2l-1,-1v-1h1l1,-1h5l1,-1h2v1h2l1,1v-1h1v-1h3l2,1h1v-1h3v1h15l1,1h2l1,-1h1l1,1h2v3h3v-1h4l3,1v2h13v-1h1v1l1,1h8v-1h-1v-1h1l2,1l1,1h1l2,1h5l1,1l1,-1h1l1,1h4l1,1h1v1l2,1l3,3h2l-1,-1v-1l2,-1l2,2h2l1,-1h2l2,1h5v1h1v1h3l2,1l1,1l1,-1l1,1v1h-2v2h-3l1,1h1l-2,2l-1,-1h-5l1,1h2l-1,1h-4l1,1h-2v-1l-1,-1l-1,1l1,1v2h1v1h-3l-1,-1h-1v1h-1v2h-3v1h3v1h1v1h1v3h1l1,1v1h1l1,1l-1,1h2l1,-1v1h3v1h-7v1l-2,-1h-1h1v1h1h-2l-1,1h1l-1,1h1h-1h1v1l-2,1h3l1,1h-1h1v1l2,1h1v1h2l-2,1h5v1h2v1h-1h4v1h4l1,1h4v1h6v1h4l2,1h1v-1h1h-1l-2,-1h-1h1v-1h1h-2v-1l-1,-1h-1l-1,-1h1v1v-1h1l1,1h2l2,1h2l1,1h3l1,-1h1h-1h4l2,-1h2l1,-1h1l1,-1l-1,-1h12v-1l1,-1h5v-1h-1v-2h-2l-1,-1v-1h5l-1,-1h-3v-1l1,-1h1l1,-1h6l1,1v1h2v1h5v-1l1,-1v1h2l-1,1h2v-1h2l2,-2h-4v-1h4l1,1h1l2,-2l2,1h1l1,-1h4v1h2l1,-1h7v1l1,-1h5v1h3l1,1h5l1,1h1l2,1h5v1h3l2,-1h1l-1,1h-2v1h-3l-1,1h-1h4l1,-1h2l-1,1h-3l-1,1h-3v1h1h-1v1h2v1h1h-1l-2,1h1h-1l1,1v-1h2l1,-1h2l1,-1h1h-1h2l2,-1h1v-1h2l1,-1v1h-1v1h1v-1h2v-1h1h-1h1h-1l1,-1h1l2,-1h1v1h-2v2h-2l-2,2h1l-2,1h1l1,-1h1h-1h2l-1,1h-3l-1,1h-1l-1,1h-2l-1,1h-2l-1,1h-1h2l1,-1h1l-2,1l1,-1h1l-3,1h-1l-1,1h-3v1h-3l-1,1h-3l-1,1h-3l-1,1h-4l-1,1h-3l-1,1h-3l-1,1h-3Z"/>
<path class="sp" d="M532,999h-9l-1,1h-43l-1,-1h-17l-1,-1h-10l-1,-1h-7l-1,-1h-8l-1,-1h-6l-1,-1h-4l-1,-1h-5l-1,-1h-5l-1,-1h-4l-1,-1h-4l-1,-1h-4l-1,-1h-4l-1,-1h-3l-1,-1h-3l-1,-1h-3l-1,-1h-3l-1,-1h-3l-1,-1h-3l-1,-1h-2l-1,-1h-2l-1,-1h-2l-1,-1h-3l-1,-1h-2l-1,-1h-2l-1,-1h-2l-1,-1h-2l-1,-1h-2l-1,-1h-2l-1,-1h-2l-1,-1h-1l-1,-1h-2l-1,-1h-2l-1,-1h-1l-1,-1h-2l-1,-1M624,984l-1,1h-3l-1,1h-3l-1,1h-4l-1,1h-3l-1,1h-3l-1,1h-4"/>
<path class="sl" d="M549,997h1h1l-1,1h-5Z"/>
<path class="sp" d="M557,997h-6l-1,1h-5"/>
<path class="sl" d="M562,996h-1h3v-1h1h-1v1h1v-1h1l-1,1h-2ZM638,980h1l-1,1Z"/>
<path class="sp" d="M640,980h-1l-1,1"/>
<path class="sl" d="M655,972h-2h1h-1v1h-1h1l1,-1h1l-2,1h-1h1h-1v1h-2v-1l1,-1h1l1,-1h1v-1h1l1,1h-1h1ZM632,968v1h-3l-1,1h-2v-1h2l1,-1h1h-1h1l1,-1v1ZM631,965v1h-2v1h-1h1l-1,1h-1l-1,1l-1,-1h1v-1h1v-1h1h-1h1v-1h2ZM548,976h-3l-2,-1v-1h1v-1h4v1h1v2ZM498,967h4v1h-5l-1,-1h1v-1h1ZM576,993h1l-1,1ZM629,983h-1l-1,1h-2l4,-1h2v-1v1h-1h1h-1h1v-1h1l-1,1h-1ZM642,977h3l1,-1h1h-1v1h-3ZM499,969v1h-3v-1h2ZM310,939v1l-1,-1v1v-1h-1v-1h1v1ZM570,995l1,-1h1l-1,1ZM575,994h1ZM648,975h1v-1v1ZM645,973h-1v-1h2ZM630,970l1,-1h2l-1,1h-1ZM620,969h-1l1,-1h1ZM530,984h-1v-1h1ZM538,980h-3v-1h1l1,1ZM490,959v-1h1h-1ZM489,961l-1,1v-1ZM504,954h-1l1,-1ZM489,930h-1v-2l1,1ZM483,926v1v-1h-1ZM481,925h-2v-1l1,1ZM307,943h2l-1,1ZM313,942l-1,-1ZM313,943h-1ZM312,937h-2l-1,-1h1l1,1ZM302,944h-1ZM306,951v1l-1,-1h-1h1ZM305,950v1l-1,-1ZM303,951l-1,-1h1ZM346,974h1ZM350,975h-1l-1,-1l1,1ZM335,969h-2l-1,-1l1,1h1ZM627,984v-1h1ZM645,976h1ZM632,971h-1h1v-1h2l-1,1ZM615,967l1,-1v1ZM616,968v-1h-1h2ZM580,969h1ZM590,967h-1v-1h1ZM580,970l-1,1v-1h2v1ZM577,970h-1ZM578,969h1v1h-2v-1ZM576,969h-1ZM584,968h1ZM582,969l-1,1v-1ZM572,971l-1,-1h1ZM553,977h-1v-1ZM575,970h-1h2ZM538,982v-1h1v1Z"/>
<path class="sh" d="M488,557v2h2v-1v1h1v2l1,1l-1,1h-2l-1,1v-1h-1v-3l-1,-3v-2l1,1ZM493,568h1l1,1h1v1h1v1h-2l-1,1v-1l-1,-1v-2h-1l-1,-1v-1h2ZM502,573v1h-2l-1,-1v-1h1v1h1ZM501,570h-1l-2,-1v-1h1l1,-1v2h1ZM502,580l1,1v1h-2v-1h-1v1v-1l1,-1ZM497,562h-2l2,-1h1ZM500,566l-1,-2l1,-2ZM500,561h-1v-3l1,2ZM492,564v1l-1,-1v-1ZM495,552h-2v-1h2ZM494,549l-1,-1v-1h1v1ZM514,603h-1v-1ZM511,597l-1,1h-1v-1h-1l1,-1v1ZM509,592l-3,-1h1l-1,-1h1v-1h1v1l1,1h-1h1Z"/>
<path class="sw" d="M259,71h-1v1h-2v1h-1l-2,2h-1l-1,1h-1v1h-1v1h-2v1h-1v1h-1l1,-1h1h-1l-2,1h-1v1l1,-1h1h-1v1h-2l-2,2h-1l-1,1h-1v1h-2l-1,1h-1v1h-2l-1,1h-1v1h-1l-1,1h-1l-2,2h-2v1h-2v-1h2l1,-1h2v-1h1l1,-1h1l2,-1l2,-2h1l1,-1h1v-1h2l3,-3h2l2,-2h1l1,-1h1v-1h1l2,-2h2v-1h1l1,-1h1l1,-1h1v-1h1l1,-1h1h-1ZM240,82h1h-1l-2,1h-1v1h-1l2,-1l1,-1ZM733,58l-1,-1h-1h1Z"/>
<path class="sr" d="M732,57l1,1"/>
<path class="sw" d="M700,42h1h-2v-1h-1h1ZM695,40h2v1h2h-2v-1h-2l-1,-1h-2v-1h-1h1h-2v-1h-2l-1,-1h-1h1v1v-1v1h1h-1v-1h-1h1l1,1h2l1,1h1l1,1h1Z"/>
<path class="sr" d="M697,41h2M686,36h1l1,1h2l1,1h1l1,1h1l1,1"/>
<path class="sw" d="M871,166h1v1h1h-1v-1h-1h1h-1v-1h-1v-1h-1v-1h-1v-1h-1v-1v1h1v1h1v1h1l-1,-1h-1v-1v1h1v1v-1v1h1v1h1ZM872,166h-1v-1v1ZM654,44h-1l1,1h-4l-1,-1h4ZM656,50v1v-1h-3v-1h1l1,1ZM869,171l-1,-1v-1v1ZM906,214v1l-2,-2v-1l1,1ZM181,190l-1,1v1h-2v-1l1,1v-1h-1l-1,1v-1h1v-1h1v1h1v-1h1h-1l1,-1h1v-2h1v2l-1,1h-1v1ZM212,96l-1,1h-1l-3,3h-1v1h-1h1v-1h1l3,-3h1v-1h1v-1h1ZM190,108h1v-1h1l1,-1l-2,2h-1l-1,1ZM295,108v1l-2,1l-1,1h-1v-1l1,-1l-1,-1h1l1,-1h3v1ZM62,362v-1h-1v-5l1,1v3h1h-1v1h1v1ZM130,181v1l-1,1h-1v-2h1v-1h1v-1l1,1ZM243,99h-1h1v-1l1,-1h1l1,-1l2,-1h1h-1v1h1h-2l-2,1l-1,1v1ZM184,203l-2,1h-1v-2l2,-2v1l1,-1v1h-1v2ZM654,50v1h-1v-1ZM606,22h-1ZM79,236v-1l1,-1v-1h1v-1h1l-1,1v1h-1v1ZM476,12h-1ZM132,161v1v-1l1,-1v1ZM158,220h-1v2h-1v-1l-1,-1v-1h1v-1l1,-1v-1h1v1h-1v1h-1h1v1h-1h1v1v-1h1ZM160,213v1h-1v-1ZM159,214l-1,1v-1ZM151,214h1v-1v1h-1v1ZM83,227v1h-1v1v-1v1v-1ZM177,119v1h-1l-1,1l2,-2h1v-1v1h-1v1v-1h1v-1v1ZM553,754v1h-2v-2h2ZM854,147v-1h-1v-1h-1l1,1ZM604,15h-2v-1h-1h1ZM827,122h-1v-1l2,2h1v1l-1,-1h-1ZM897,198h-1v-1l-1,-1h-1h1v1v-1h-1v-1v1v-1h-1h1l-2,-2h1v1l1,1v1h1h-1v-1l1,1v1h1ZM450,8h-1ZM111,188v-1h1h-1ZM69,314v1h-1v-2h1ZM184,192h-1l-1,1v-1h1v-1h1v-1h-1v1h-1v-1h2v-1l1,1h-1v1ZM617,38v1h-2l1,-1h-1h1ZM866,160h1v1v-1h-1v-1ZM876,171l1,1h-1v-1l-1,-1ZM678,33h1v1h1h-1v-1ZM733,58h-1v-1h-1l-1,-1v1h2v1ZM160,213v-1h1v1ZM240,103v-1h2l-1,1ZM77,235h-1v2h-1v1v-1h1v-1l1,-1l1,-2l-1,1ZM515,789v2l-1,1v-1l1,-1l-1,-1l1,-1v2ZM434,9h-1l1,-1ZM73,247h-1v1v-1h1v-1l1,-1h-1v1v-1h1v1h-1ZM473,10l-1,1h-1v-1h1ZM475,12v-1h1v1ZM176,202v-1h1v1ZM146,217l-1,1v-1ZM172,202h-1l-1,1v-1h1v-1h1ZM852,152h1v1l-1,-1v-1ZM866,166h-1l-1,-1v-1v1h1v1ZM154,213h-1v1v-1ZM154,211v-1h1v1ZM181,182h-1v-1h1ZM153,213h-1v-1h1v1v-1h1h-1ZM150,216h-1l1,-1ZM149,217v-1v1h-1l1,-1h-1h1ZM676,32h-1l-1,-1h-1h1l1,1ZM676,32h1v1h1h-1v-1ZM104,199h-1h1v-1ZM848,145v1v-1h-1v-1v1h1v1ZM593,24h-1ZM613,36h1h-1h1ZM619,37h-1ZM639,44h-1v-1ZM638,42v-1h-1h1ZM634,40h1v1v-1ZM638,43h1h-2v-1h-1l1,1ZM185,113l-1,1h-1h1v-1ZM75,237v1h-1v1v-1h1ZM761,75h-1h1h-1l1,1h1v1h2v1h1l1,1l-1,-1h-1l-1,-1h-1v-1h-1l-1,-1h-1v-1h-2v-1h-1l-3,-2h-1h1l1,1h1v1h2v1h2v1h3v1Z"/>
<path class="sw" d="M718,55v-1h-2v-1h-2l-1,-1h-1l-1,-1h-1h1l1,1h1l1,1h2v1h2ZM813,112l-1,-1h1ZM823,119v1h1h-1v-1h-1v-1v1ZM819,118h-1v-1h-1l-1,-1l1,1h1v1ZM665,38h-1ZM197,584h-1v5h-1v-1h-1v-4h1v-1v1h1v-1h1ZM114,197h-1v1v-1h1v-1ZM113,197l-1,1v-1ZM897,198h-1v-1l-1,-1h-1h1v1v-1h-1v-1v1v-1h-1h1l-2,-2h1v1l1,1v1h1h-1v-1l1,1v1h1ZM890,188h1v1l1,1v1h1v1h1v1l-1,-1v-1l-1,-1v-1h-1v-1h-1v-1ZM33,453v1h-1v-1h1v-2h-1v1v-2l1,1v1ZM513,792v1h-1v-3l1,-1v1h-1l1,1ZM511,794l-1,-1v-2l1,1v-1v2ZM718,55v-1h-2v-1h-2l-1,-1h-1l-1,-1h-1h1l1,1h1l1,1h2v1h2ZM813,112l-1,-1h1ZM232,83v1h-1h1h-1l-2,1l-1,1l1,-1l2,-1l2,-2h1v-1h1l1,-1h1l1,-1v-1h1l2,-2h1l1,-1h1v-1h1l1,-1h1h-1l1,-1h-1v1h-2v1h-1v1h-1l-1,1h-1v1h-1l-1,1l1,-1h1v-1h1l1,-1l-1,1h-1h1v-1h1v-1h1h-1h2v-1h1l1,-1l-1,1l1,-1v1h-1l1,-1h1v1h-1l-2,2h-1l-2,2h-1l-1,1h-1v1h-1l-2,2h-1v1h-1ZM794,97h1h-1l-1,-1h-1v-1l-1,-1l-2,-1l1,1l2,1l1,1ZM902,207v-1v1h1v1l1,1l-1,-1ZM854,157l1,1h-1v-1v1ZM845,147h1v1h1l1,1l-1,-1h-1v-1ZM848,145h-1h1v1ZM307,43v-1h1l1,-1h-1h2v-1l-1,1l1,-1h1h-1v1h-1h1l1,-1h1h-1v1l1,-1h1l-1,1h-1h1v-1h2v-1v1h-1v1h-2l-1,1v-1v1h-1l1,-1h2v-1l-1,1h-2v1h-2v1h-1h1h-1l-1,1h-1l-1,1h-3l-1,1h-1h1l1,-1h1l1,-1h1v1v-1v1l1,-1h1l1,-1h-1h1ZM359,64v1h-1v-1ZM523,22h2l-1,1h-1l-1,-1ZM283,164v-1h1v1l-2,1l-1,1v-1h1ZM695,45v1h1l-1,-1h-1ZM654,47l1,1h-1l-1,-1h-1h1ZM617,36h-1h2ZM651,42h1h-1v1l-1,-1ZM662,43l1,1h1h-1ZM619,37h1ZM612,35l-1,-1h1ZM609,31h-1ZM188,110h-1ZM93,214l-2,2v-1h1v-1h1v-1ZM91,215h1l-1,1ZM87,224v-1h1ZM81,229v-1ZM174,652l-1,-1h-1v-2h2v2ZM206,639h-2v-2l3,-3v-1h1v3h1v1l-1,1v1h-1ZM274,713v-4l-2,-1v-1h-2v-2h-1v-1l-1,-1h1l1,1h3v2h1v1l1,2h1v3h-2ZM285,707v1h-1v-1l-1,-3v-1h-1v-3l-1,-1v-1l-1,1l-1,-1v-2h-1l-1,-1h1l2,2h2v1l2,2v1l2,2v1ZM175,702h-1v-1h-1v-2h-1v1l1,1v1l-1,-2h-1v1l-1,-2l1,-1h1v-1h2v1l-1,-1v2l1,1v1ZM297,700v1h-2v-1h-1v-1l1,-2v-2h1l1,1v3ZM278,688v1h-3v-1l1,-1h2v-1l1,1ZM280,686h-2l-1,-1l-1,1l-1,-1h-1v1l-2,-2v-1l-1,-2h1v-1l-1,-1v-1h-1v-1l1,-1l2,1l1,1h2v1h1v3l1,2l1,1Z"/>
<path class="sb" d="M923,234v-1h-1h1v1l1,1v1v-1h-1v-1h-1v-1l-3,-3l-1,-2l-2,-1l-2,-4l-2,-1l-1,-2l-1,-1h-1l-1,-1h-1M823,119v-1h-1l-2,-2h-1v-1h-1l-1,-1h-1l-1,-1h-1l-1,-1h-2v-1h-2l-1,-1h-2M635,20l2,1l1,1h2l4,2h2l2,1l1,1l2,1h2l4,2l1,1l2,1h2l4,2l1,1l8,4l1,1l6,3h1l4,2l3,3l2,1h2l1,1v-1h2v1h1l1,1h1l1,1h2l1,1h1l1,1h1l1,1h2v1v-1h1h-1l-2,-2h2v1h2v1h2v1h2l1,1h1v1h2l1,1h1l1,1l2,1h1l1,1h1v1h2l1,1h1l1,1h1v1h1l1,1h1l1,1h1l1,1h1l1,1h2l1,1h1v1h1M78,340v-1h1v-2l1,-1v-2l-1,-1v-2l1,-1v-2h-1v-1l-1,-1v-1l1,-1v-3l-1,-1v-3h-1l1,-1v-2h-1v-3h1l-1,-1h-1v-1l-1,-2v-1h1v-2h1v-1l1,1l1,-2l1,-1v-1h1v-1h-1v-2h-1h1v-1h1v-1l-1,-1l-1,1h-1v1h-1l-1,-1v-3h1v-2h1v-2l-1,1v-5M68,346v1h2v1h1v-3h1v-1l1,-1h1v-1v2h1l2,-2v-1h1v-1v2l-1,1v1l-1,1v7l-1,2v4l-1,1v1h-1l-1,1v1h-1v1l-1,1h-1v2h-2v1h-1v7l-1,-1v1v-1h-1l-1,1v1v-1h-1v2h-1v2h-2v1M72,292l-3,3v1l-1,1v2h-1l-1,2l-1,1v1M39,388v-2l1,-1v-3l1,-1l2,-4v-2h1v-2l1,-2v-9h1v-15l2,-2v-2l1,-2v-1l2,-2v-2l-1,1l1,-2v-10h1v-5h1v-1l1,-2v-1l1,-1v-1l1,-2l1,-1v-1h1l1,-1h1v-1l1,-2l1,-1v1v-1h1v-2h1l1,-1v1l1,-1v2l-1,1v1l-1,1v2h1v-1h1v2h-1v2l-1,2v1l-1,1v2l-1,1v1l-2,4h1v1v-1l1,-1v-1l1,-1h1v-2h1v-1h1v1h1v1v-1h1v-1h1v-2h1v-1l1,-1l1,1h1v7l-1,2v1l-1,2v2l1,1l-1,1h1v3h1v1l-1,1v1h-1v4l-1,2v1h-1v1l-1,1v1h-1v-1h1l-1,-1l-1,1h-1l-1,1h-2l-2,2v1l-2,2v2h-1v1h-1v6l-1,1l1,1v2l-1,1v4M96,285v-1l-1,1h-1v-1h-1v-1h-1l1,-1v-3l2,-2v-1h-4v-1h1l-1,-1l-1,1h-1v2l-1,1h-1v1l-1,1v-1h-1v1l-1,1v-1h-1v1v-1h-1v1l-1,1v1h-1v-2h-1v1l-1,1v1h-1l-1,1l1,-1h-1v1l-1,1v2h-1v4l-1,1v1h-1v1v-1l-1,1v-2l1,-1v-1l-2,2h-1v1h-1v-1h1v-4l-1,1v-2l1,-1v-1l1,-1v-1l1,-1v-1h-1v-1l1,-1v-2h1v-2l1,-1h-2l-1,1v1h-1v1v-1l1,-1v-2h1v-2l1,-1v-1l2,-2v-1l1,-1v-1l1,-1h1v-1l1,-1v-1h1v-2h1v-1l1,-1v-1l1,-1v-1l1,-2v-1h1v-1l1,-1v-1h-1v1v-1l1,-2v-2h1h-1v-1h1h-1v1l-1,1M235,142v-1h1l2,-1v-1h2v-1h1l1,-1h2v-1h2l1,-1v-1h1l1,-1h1v-1h1l2,-2h1v1h6v-3h2l1,-1h2l1,-1h1v-1h2l2,-2h1v-1h1v-1h2v1h-1v1h1M238,154v-1h1l2,-2h1v-1h5l2,-2h1M247,93l-1,1l-2,1l-3,3h-1v1h-1l-1,1h-1v1l-1,1h-1l-1,1v1h1l1,-1h3v1v-1h1l1,-1h1v-1h3v5h-1v1h-1v1h-3v-1l-1,1h-2l-1,1h-3v1h-1v1h-3l-2,2h-1v1h-1v1h-2l-2,2h-3l-1,1h-1v1h-1l-1,1h-1v1h-2v1h-3v-1h-2l-3,3h-1v1h-1v1l-1,1v2h-1l-2,2h-2v1h-1l-1,1h-1v1h-1l-2,2h-1v1h-1l-1,1h-1l-1,1h-4v1h-1l-2,1h-2v1h-1l-1,1l-4,2l-2,2h-2l1,-1h-1l-1,1h-1v-1h-2l1,-1v-1l-1,1h-3l-1,1h-3l-1,1h-1l-1,1l1,-1v-1h1v-1l3,-3v-1l1,-1v-1h1v-2h1h-1l-1,1h-1h1h-1h1h-1l4,-4h1v-1h1v-1l1,-1h1l1,-1v-1h1l1,-1v-1h1v-1h1v-1h1v-1h1v-1h1h-1v1v-1h1h-1h1v-1h1l2,-2"/>
<path class="sb" d="M275,125v-3h1l1,-1h2v-1h1l1,-1v-1h1v-2l2,-1v-1l1,-2v-2h2l1,-1h1l1,-1h1v-1h1v1h5v-1h1l1,-1v-1h2v-1l1,-1h1l2,-2h1v-1l3,-3h1v-1l1,-1h2v-1h1l1,-1v-2h1v-1h-2l-2,1h-1l-1,1h-3l-1,1h-1l-1,1h-1l-1,1h-5v-2h1v-2l1,-1h-1l-1,-1v-1h-3v-1h-2l-1,1l-1,-1v-1l1,-1h1l-1,-1h1v-1l1,-1v-2h1v-1l1,-1v-1l1,-1v-2h1v-1h-1h1h-1v-1h-2v1v-1h-2l-1,-1v1h-5l-1,1h-1l-2,1h-1l-4,2h-1l-1,1h-1v1l1,-1h1v1h-1l-1,1v1h-1l-1,1l-2,1h-1l-2,1l-1,1h-1v1h-1v1h-1l-1,1h-1v1h-1l-1,1h1h-1v1h-2l-1,1l-6,3l-1,-1l-1,1v-1h-1h1l-1,-1l-1,1h-3v-1h-2v1h-2v1h-2l-1,1h-1v1h-1l-1,1h-2l-1,1h-1l-1,1h-1l-2,1h-2v1h-2v-1l-1,1h-1v-2h1v-1h1h-2v-1l-1,1v-1h-1l-1,1h-1l-1,1h-1l-1,1h-2v-1h1v-1h1v-1h1v-1h1v-1h1h-2v-1h-1v1h-1l-1,1h-1v1h-2v1h-1v1h-1l-1,1h-1v1h-1v1h-1h1h-1v1h-1l-2,2h-1v1h-1l-1,1h-1h1h-2v1h-1h1h-1v-1v1v-1h1v-1h1v-1h1h-1v1h-1h1v-1v1h-1h1v-1l-1,1h-1v1h-1v1h-2v1h-1v1h-1l-2,2h-1v1h-1v1h-1l-1,1h-1h1h-1v1h-1v1h-1v1M67,250l-1,1v1l-1,1l1,-1l-1,1v1l-1,1v1l-1,1v1v-1v1l-1,1v1v-1h1v-1v1l1,-1h-1v1h1v-1h1M63,261l1,-1v-1h1v-1l2,-2v-1l2,-2v-1v2h1v-1v2M59,265l-1,1v1v-1l1,-1v1h-1v2h-1v1l1,-1l-1,1v1v-1v1l1,-1v1v-1v1v-1h1l1,-2v-1l1,-1v-2l2,-2v-1l1,-1v-1h1v-1l1,-1v-1v2l-1,1l-1,2v1h-1v2h-1v2l3,-3h1v-1h1v-1h1v-2h1v-3h1l1,-1v-1h1v-1h1v-1l2,-2v-1l1,-1v-1h1l1,-1v-1h1v-1l3,-3v1h1v-1l2,-2v-1l1,1h-1v2h-1v1l1,-1v1h-1v1l-2,2v1l1,-1v1l1,-1v1l-1,1v1l-3,3v1l-1,2v1v-2l-4,4l-1,2l-2,2v1l-1,1v1l-1,1v1h-1v2l-3,3v2l-2,2v1l-1,1v1l-1,1l-1,2v1l-1,1v-1h-1v1v-1l-1,2v2l-1,2l-1,1v1h-1v2l-1,1v1l-1,2v1h-1v1h-1v1M45,301l1,-1v-2l1,-1v-2l1,-1v-2l1,-1v-1l1,-1v-1l1,-1v-1l1,-1v-3l1,-2h1l1,-2v-1h1v-2l1,-1v-2l1,-1v-1h1v-2h1v-1v1l-1,1h1v-1l-1,1v1h1v-1v1l-1,1l-2,4v1h1v-1h1l1,-1h1v1h-1v2h-1l-1,2v1l-1,1v1h-1v1h-1v1l-1,2v1h-1v2l-1,2v-1h1h-1v1h1v-2h1v-2h1v-2h1l-1,2v1l-1,1v1l-1,1v2l-1,1v1l-2,6l-1,1v1l-1,1v1h-1v3"/>
<circle class="w3" cx="500" cy="572" r="41"/>
<circle class="w3" cx="500" cy="572" r="39"/>
<circle class="c3" cx="500" cy="572" r="40"/>
<path class="sg" d="M 257.9139 936.6915 A 249.7500 36.1802, 0, 1 1, 741.0861 936.6915"/>
<path class="sg" d="M 68.4685 751.9126 A 432.5797 62.6659, 0, 1 1, 930.5315 751.9126"/>
<path class="sg" d="M 0.0000 499.5000 A 499.5000 72.3604, 0, 1 1, 999.0000 499.5000"/>
<path class="sg" d="M 68.4685 247.0874 A 432.5797 62.6659, 0, 0 1, 930.5315 247.0874"/>
<path class="sg" d="M 257.9139 62.3085 A 249.7500 36.1802, 0, 0 1, 741.0861 62.3085"/>
<path class="sg" d="M 514.5972 0.2282 A 100.9861 499.5000, -178.26799838, 0 1, 484.4028 998.7718"/>
<path class="sg" d="M 563.6401 4.1352 A 329.3584 499.5000, -172.62235933, 0 1, 435.3599 994.8648"/>
<path class="sg" d="M 700.8056 42.3607 A 469.4794 499.5000, -156.23325858, 0 1, 298.1944 956.6393"/>
<path class="sg" d="M 214.7047 89.1442 A 483.8037 499.5000, -214.76144122, 0 0, 784.2953 909.8558"/>
<path class="sg" d="M 419.5845 6.4343 A 368.4932 499.5000, -189.20636862, 0 0, 579.4155 992.5657"/>
<path class="sg" d="M 475.7225 0.5663 A 154.4453 499.5000, -182.72846100, 0 0, 523.2775 998.4337"/>
<text x="0" y="0" class="fs" transform="translate(821,319) rotate(81)">150W</text>
<text x="0" y="0" class="ft" transform="translate(821,319) rotate(81)">150W</text>
<text x="0" y="0" class="fs" transform="translate(958,350) rotate(77)">120W</text>
<text x="0" y="0" class="ft" transform="translate(958,350) rotate(77)">120W</text>
<text x="0" y="0" class="fs" transform="translate(27,357) rotate(102)">90E</text>
<text x="0" y="0" class="ft" transform="translate(27,357) rotate(102)">90E</text>
<text x="0" y="0" class="fs" transform="translate(140,325) rotate(99)">120E</text>
<text x="0" y="0" class="ft" transform="translate(140,325) rotate(99)">120E</text>
<text x="0" y="0" class="fs" transform="translate(349,305) rotate(94)">150E</text>
<text x="0" y="0" class="ft" transform="translate(349,305) rotate(94)">150E</text>
<text x="0" y="0" class="fs" transform="translate(598,303) rotate(87)">180E</text>
<text x="0" y="0" class="ft" transform="translate(598,303) rotate(87)">180E</text>
<text x="0" y="0" class="fs" transform="translate(551,889) rotate(2)">60S</text>
<text x="0" y="0" class="ft" transform="translate(551,889) rotate(2)">60S</text>
<text x="0" y="0" class="fs" transform="translate(588,681) rotate(3)">30S</text>
<text x="0" y="0" class="ft" transform="translate(588,681) rotate(3)">30S</text>
<text x="0" y="0" class="fs" transform="translate(602,424) rotate(2)">0N</text>
<text x="0" y="0" class="ft" transform="translate(602,424) rotate(2)">0N</text>
<text x="0" y="0" class="fs" transform="translate(587,188) rotate(1)">30N</text>
<text x="0" y="0" class="ft" transform="translate(587,188) rotate(1)">30N</text>
<text x="0" y="0" class="fs" transform="translate(550,34) rotate(2)">60N</text>
<text x="0" y="0" class="ft" transform="translate(550,34) rotate(2)">60N</text>
<path class="tb" d="M127,998h-2l-1,-1h-2l-1,-1h-2l-1,-1h-2v-1h-3v-1h-2l-1,-1h-2v-1h-2l-1,-1h-2v-1h-2v-1h-2l-1,-1h-2v-1h-2v-1h-2v-1h-2v-1h-2v-1h-2v-1h-2v-1h-2v-1h-2v-1h-1l-1,-1h-1v-1h-2v-1h-2v-1h-1v-1h-2v-1h-1l-1,-1h-1v-1h-2v-1h-1v-1h-2v-1h-1v-1h-1l-1,-1h-1v-1h-1v-1h-1l-1,-1h-1v-1h-1v-1h-1v-1h-2v-1h-1v-1h-1v-1h-1v-1h-1l-2,-2h-1v-1h-1v-1h-1v-1h-1v-1h-1v-1h-1v-1h-1v-1h-1v-1h-1v-1h-1v-1h-1v-1h-1v-1h-1v-2h-1v-1h-1v-1h-1v-1h-1v-1l-1,-1v-1h-1v-1h-1v-1l-1,-1v-1h-1v-1l-1,-1v-1h-1v-1l-1,-1v-1h-1v-2h-1v-2h-1v-1l-1,-1v-1l-1,-1v-1l-1,-1v-2h-1v-2h-1v-3h-1v-2h-1v-4h-1v-3h-1v-5h-1v-6l-1,-1v-17h1v-7h1v-4l1,-1v-3h1v-3h1v-3h1v-2l1,-1v-2h1v-2h1v-2h1v-2h1v-2h1v-2h1v-2h1v-1h1v-2h1v-1h1v-2h1v-1h1v-1l1,-1v-1h1v-1h1v-1l1,-1v-1h1v-1h1v-1h1v-1h1v-1h1v-1h1v-2h1v-1h1v-1h1v-1h1v-1h1l3,-3h1v-1h1v-1h1v-1h1v-1h1v-1h1v-1h1l1,-1h1v-1h1v-1h1v-1h1l1,-1h1v-1h1v-1h2v-1h1v-1h1v-1h2v-1h1v-1h2v-1h1v-1h2v-1h1l1,-1h1v-1h2v-1h1l1,-1h1v-1h2v-1h2v-1h2v-1h1l1,-1h1l1,-1h1l1,-1h1l1,-1h1l1,-1h2v-1h2v-1h2v-1h2l1,-1h2v-1h2v-1h2l1,-1h2v-1h3v-1h2l1,-1h2v-1h3v-1h3v-1h159v1h3v1h3v1h2l1,1h2v1h3v1h2l1,1h2v1h2v1h2l1,1h2v1h2v1h2v1h2l1,1h1l1,1h1l1,1h1l1,1h1l1,1h1v1h2v1h2v1h2v1h1l1,1h1v1h2v1h1l1,1h1v1h2v1h1v1h2v1h1v1h2v1h1v1h1v1h2v1h1v1h1l1,1h1v1h1v1h1v1h1l1,1h1v1h1v1h1v1h1v1h1v1h1v1h1l3,3h1v1h1v1h1v1h1v1h1v2h1v1h1v1h1v1h1v1h1v1h1v1l1,1v1h1v1h1v1l1,1v1h1v1h1v2h1v1h1v2h1v1h1v2h1v2h1v2h1v2h1v2h1v2h1v2l1,1v2h1v3h1v3h1v3l1,1v4h1v7h1v17l-1,1v6h-1v5h-1v3h-1v4h-1v2h-1v3h-1v2h-1v2l-1,1v1l-1,1v1l-1,1v1h-1v2h-1v2h-1v1l-1,1v1h-1v1l-1,1v1h-1v1l-1,1v1h-1v1h-1v1l-1,1v1h-1v1h-1v1h-1v1h-1v2h-1v1h-1v1h-1v1h-1v1h-1v1h-1v1h-1v1h-1v1h-1v1h-1v1h-1v1h-1v1h-1l-2,2h-1v1h-1v1h-1v1h-1v1h-2v1h-1v1h-1v1h-1l-1,1h-1v1h-1v1h-1l-1,1h-1v1h-1v1h-2v1h-1v1h-2v1h-1l-1,1h-1v1h-2v1h-1v1h-2v1h-2v1h-1l-1,1h-1v1h-2v1h-2v1h-2v1h-2v1h-2v1h-2v1h-2v1h-2v1h-2l-1,1h-2v1h-2v1h-2l-1,1h-2v1h-2l-1,1h-2v1h-3v1h-2l-1,1h-2l-1,1h-2l-1,1h-2Z"/>
<path class="tl" d="M169,986h1v1h-3l-1,-1h2v-1ZM114,989h-3l-1,-1h2l1,1ZM176,983h1l1,1v1h1l-1,1h-2l-1,1h-1l-1,-1l1,-1v-2h1v-1ZM124,980h2v1h-1ZM122,980l1,1h-1l-1,-1ZM136,977h1h-2ZM156,974v1l1,1h-5v-1l1,-1v-1l-1,-1l1,-1v1h1l1,1ZM158,964v1h-2v2h1l-2,2v1h1l1,1h1l4,4v1l1,1v1h-1v2h-1l-1,1h-1v1h-2l1,1h1v1h-2l1,1h1v1h3l1,1h3l1,1h3l1,1h1l1,1v-1h1v-1h2l2,-1l1,1h1v-1h4v-1h3l1,-1h-1v-1h-4l-1,-1l1,-1h1l2,-2h4l1,-1h1l2,-2h-1v-1h1v-1h2v-1l1,-1h1v1h1v-1h8v-1h3v-1h1l1,1h2v-1h1v1l1,-1h4v1h6v-1h3v-1h2v1h3l1,-1h3v-1h2l1,-1h2l1,-1h4v1h1v1h1l1,1h1l1,-1l1,1h2v1l-2,2h-1v1h1h-1v1h-1v1h2l2,-2h1v-1h3l1,-1h1v-1h2l1,-1h5v-1h1v1h5v1h1l1,-1l1,1l1,-1h1l2,-1v1l1,1h3l1,-1h2v1h1v1h4l1,-1v1h9l1,-1l-1,1v1h-1h3l1,1h2l-1,1v1h1v1h2v1h1v2h2l1,1v1h-1l-1,1h-2l-1,1h-3l-1,1h-2l-1,1h-2l-2,2v1h-5l-1,1h-2v1h-1v3h2l-11,4h-155l-11,-4h-1h2l1,-1l1,1h14l-1,-1h-7v-1h-2v-1h-3l-1,-1h4v-1h-2l-1,-1h-7l-1,-1l-2,-1l1,1l1,-1l2,1v-1h1v-1l-1,-1h-1h2v-1h2v-1h4l1,-1h5l1,-1l1,1v-1h1l1,1h1v-1l1,1h6v-1h-2l-1,-1h-1l-1,-1h4l1,1h1l1,-1h3l-1,-1h1l1,1l1,-1l1,1h3v-1l1,1h4v-1h2l1,-1v-1h-1v-1h-1v-1h-1v-1h-1v-2l-1,-1v-1h1v-2h1v-1h1v-1h1l1,-1l1,1ZM144,951l2,1h1v1h-1v-1v1h-4l-2,-2l-2,-1l2,1h2v-2h1v1ZM151,947h1v1h-2v1l-1,-1l1,-1ZM269,946h-1v-2h1l1,1ZM345,939v1h1l1,-1v1l-3,3v-1l-1,1h-1l1,-1v-1l1,-1v-1ZM368,943v1l1,-1v1h-1l-3,3h-1l-1,1h-1l-2,2h-2v1h-1v-1h-1v-1l4,-2h1l1,-1h2l2,-2h1l2,-2ZM376,936l-1,2l1,-1l-1,1l1,1h1l-2,2h-1l-2,2l-2,1h-1l2,-1v-2l1,-1l2,-1v-1l1,-1v-3l1,-1v1l1,1ZM382,913l-1,1v-2l-1,-1v-1h1v1l1,1ZM397,906v1l-1,1h-1v-1l1,-1v1ZM398,906h-1v-1h1l1,-1v1ZM10,905v-1ZM386,904v-1ZM386,901v2h-1v-1ZM259,895v2l1,1h-1v1v-1v2h-1v3l-3,6v2h-1l-1,1l-1,-1h-1v-5h1v-2l1,-1h-1v-3h1v-1h1l2,-2h1v-1l1,-1v-1l1,-1v1ZM361,898v1h1v1h1l-1,1v2h1l-1,2v1l2,2v4h1l-1,2l1,1v3l-1,1v2l-3,3v1l-1,1l-1,2h-1l-1,2h-1l-4,4v1h-2l-1,1h-1l-1,1v-1h-1l1,-1h-1l-1,1h-1v-1h-1v-3h1l-1,-1v-1l1,-1l-1,1h-1l3,-3l-2,1h-1l-1,2v-4l-2,-2h-2l-1,1h-4l-2,2h-4l-1,1v-1l-1,1h-2v-1h-1l1,-1v-1h1v-3l1,-1v-7l1,1v-3l1,-1v-1l1,-1l-1,1l2,-2h1l1,-1h2l1,-1h2v-1h1l1,-1v-2l1,-1v2l1,-1v-1h1v-1l2,-2h2v1h2v-2h1l1,-1v-1h2v-1h-1h1l1,1h3l1,1h-1v1h-1v1l-1,1v1l2,2v1h1l1,1h1v-1l1,-1v-1l1,-1v-3l1,-1v-2h1v-1v3l1,1Z"/>
<path class="tl" d="M383,894h-1v-1v1ZM337,892l-2,-1h2ZM381,893h-1v-1h1ZM382,892v-1l-1,-1h1ZM341,892h-1l3,-3h2l-1,1h-1l-1,1ZM335,889h1v1h-3l1,-1ZM340,889v1h-3v-1h2ZM381,890v1l-2,-2h1v1ZM378,889v-1h-1v-1l1,1ZM325,887h2v-1l2,1v1h2l1,1l-1,1l-1,-1h-4l-1,-1h-1l-2,-1h-1l1,-2h1l1,1ZM353,886v1v-2ZM377,888h-1v-2l-1,-1h1v2h1ZM373,885l-1,1h-1l-1,1l-1,-1h-1l1,-1l1,1v-1h2v-2h1v1ZM345,882h-1v-1h1ZM349,881v2l-1,-1h-2v-1h2ZM374,884l-1,-1v-1l-1,-1h-1h2v2h1ZM353,878v3l2,1v-2l2,-1h1l1,1h1l1,1l4,2v1h1v1l2,1v1h-1v1l1,1v2h1v1h1h-1l1,1l-1,1v-1h-2l-1,-1v-3h-3l-1,1v1h-2l-2,-2v1h-2l1,-2h1l-1,-2v-1l-2,-1h-1l-1,-2l-1,1l-1,-1h1l-1,-1l1,-1h-1v-1h-1l-1,-1h2v-1ZM343,875l-1,1h-4v1l1,2v-1h2l-1,1h-1l1,2v1l1,2v1h-1v-2l-1,1v-1l-1,-1l1,-1h-1v4h-1v-3h-1v-1l1,-1v-4h1v-1h4l1,-1ZM347,875v1h-1v1l1,1h-1v-4h1ZM321,885h-1l-2,-2v-1l-2,-2l-1,-2v-2l-1,-1v-1l-4,-4v-1h2l3,3l1,2h1l2,2h1l-1,2h1v1l1,1h1v3ZM335,874l1,1h-1v3l-1,1v1l-1,3v-1l-1,1l-1,-1h-1v-1l-1,1l-1,-1h-1l-2,-4v-2l1,-1h2v-2h2v-1l1,-1v-1h1l1,-1v-2h1v1l2,2v1h-1l-1,2l1,1ZM344,864v3l-1,-1v2l-2,-2h1l-1,-1v1l-1,-1l-1,1v-1l1,-1h2v-1h1v-1l1,1ZM294,868h-1v-1l-1,-2l1,-2l1,1v1l1,1v1ZM137,863h-1l1,-1h1ZM341,861v1l-1,1l-1,-1l1,-1v-1v1l1,-1ZM335,863l-1,1v-1l1,-1v-1l1,-1v1l-1,1ZM338,859h2v1l-1,1v-1h-1ZM342,858l1,2h-1v1v-1h-1v-1h1h-1v-1ZM338,857l-1,1l-1,-1h1ZM336,849h1v6h1l2,1v2l-1,-1v-1v1l-1,-1h-2v-1h1h-1l-1,-1v-5ZM133,851v1h-1v-1ZM121,852h-1v-1h2v1ZM126,849h3v1h1v1h-2l-1,1v-1h-1v-2h-1ZM324,849l-1,1h-1v-2l1,-1h1v1ZM37,846v-2h1v2ZM38,844h-1v-1h1ZM119,845h2l1,1v1h1v1h2l-1,1h-3v-1h-1v-2h-2l-1,-1h-1h1h-2l-1,1h-1l2,-2h3ZM122,843h-1v-1l1,-1v1ZM334,843v1l-2,-2v-2l1,-1l1,1ZM122,839l-1,1v-1ZM123,839v1v-1h-1ZM340,825h1v1h-1v1h-1v-2ZM240,828l-2,2v-1h-1h2ZM229,828v1h-1ZM220,825v2h-1l-1,-1h-1v-1h2ZM214,821v3h-1v-3ZM344,820v1l1,1v1l-1,1h-1l-1,2l-1,-1v-1l-2,1l-1,1h-1l2,1v3l-1,-1v-1h-1l-1,-1l1,-1v-3h3v-3l1,1v-2h1l-2,-4v-1l3,3v1ZM214,820v1l-1,-1v-1l1,-1ZM340,810l1,-1l1,2h-1v2l-2,-1l1,2h-1l-1,-2l-1,-1h1l-1,-2l-1,-1l3,1ZM144,812l1,1h1h-2ZM147,809h-1l-1,-1h1ZM92,806h-1l-1,-1v-2h-1v-1h1l1,1v1l1,1ZM153,807l-1,1h1v1h2l-1,1h1v1l-1,2l-1,-1l1,-1l-2,1v-1h-3l1,-1h-1l4,-4h1Z"/>
<path class="tl" d="M90,797h1l-2,2v1v-3ZM332,800l3,3l-2,-1l1,2l2,2v1l-2,-2l-1,-2l-6,-6v-1h-1h1l3,3ZM198,806l-1,1h-2l1,-2v-1l2,-2h1v3ZM216,801l-1,2l-1,-1v-1h1ZM79,791h-1v-1h2ZM202,797l-1,2h2v1l-1,1h1l2,4h1v1l-1,1h1l-1,1h-3l-1,1h-2l2,-2h-1v-1h1l-1,-1v-1h2l-1,-1h-1v-2l-1,-1l1,-2v-1l1,1ZM75,786h-1v-1h1ZM141,790l-1,1v-1ZM139,790h-2l1,-1h1ZM78,780v1h1h-2v-1ZM139,786h1v1h1l-1,1h1l-1,1l-1,-1h-1l-2,1l1,-1h-1h1l1,-1l1,-2ZM193,787v1l1,1l-1,1h-3l-1,1l-1,-1h-2l1,-1h-1h1v-1h-2l1,-1h1l1,1l2,-1h2ZM147,784h-1l1,-1h2l-1,1ZM81,776v1l1,-1h2l-1,2h-3l-1,1h-1l-1,-1h1v-1h-1h1h-2l-1,1l8,-5v1l-1,2ZM135,780l-1,1v-1h-1l1,-1h1ZM322,771h-1ZM88,771h-1h2ZM139,780l-1,2l2,-1v1h-1v1l1,-1l2,-1l1,-1h2v2h-1v1l-1,1l-2,1h-1v-1l-1,1l-2,1v1h-3l-2,2h-1l-1,1l-2,1l-1,1l-1,2h1l-1,1v1h1l3,3l2,1h1l-2,2v2l1,1h1l2,-4h-1l4,-2v-1l1,-1v-1l-1,-1l2,-1l2,-4l1,1h1l1,-1v1l1,1h1v2l-1,1l1,1h2l1,-2h1v3l1,1l-1,1l1,1v1h1l1,1v1l1,1l-2,2h-2l-2,2h-1l-2,-1h-2l-2,1l-1,1l-2,1l-1,1l2,-1l3,-1h2l-1,1l-1,2v1l1,1l2,-1l1,-1v1h1l-4,2h-1l-2,1v-1l2,-1h-3v1h-1l-1,1h-1l-2,2l1,1v-1v1h-3l-1,1l2,-1v1h-2l-2,2v1l-1,1l-1,-1l1,-1l-1,1v4l-1,1h-1l-1,1h-1l-3,3h-1v8l-1,1h-1v-3l-1,-1l1,-1l-1,-2l-1,1l-1,-1h-4v1h-1l-1,-1l-1,1l-1,-1l-2,2h-2v1h-1v3l-1,1v1l-1,2v4l1,1v1h1v1l1,-1h3v-1l1,-1v-1l1,-1h3v1l-1,1v2l-1,1v-1v2l-1,1v1h5v1h1v1l-1,1v3l-1,1h1v2h1v1h2l1,-1h1v1h1l1,1l1,-1v-2l1,-1h2l2,-2v2h-1h1v1l-1,1v1h1v-3h1v-1h1v1h1v1h3l1,1l1,-1h1l1,1h1v1l1,1h1v1h1v1l1,1l2,1v-1h1l1,1h1l1,1v1h1v1l1,2v1l-1,1l1,1h2v1v-1l4,2v1h1l3,1h1l2,1l2,2h2v5l-1,1l-1,2l-2,2v9l-1,2v2h-1v1h-2l-1,1h-1l-3,3v5l-1,2l-2,2v2l-2,2v-1l-1,1l-1,-1h-1v-1v1l1,1v1l1,1v2l-2,1h-3l1,1v2l-1,1l-1,-1h-1l1,2h2l-2,2l1,1v1h-1l-1,1v1l2,1h1v1l-1,1v2h-1v1l2,2h-1l-1,1v1h-1l-2,-1l-3,-3l-1,-3v-1l1,-1h-2l1,-2l-1,-2h1v-2l-1,-1v2l-1,-2v-4l-1,-1l-1,-2h1v-6l-1,-2v-8l-1,-2v-6l-1,-2l-1,-1l-2,-1l-3,-2l-1,-1v-1l-1,-2l-1,-3l-2,-3l-2,-2v-1l-1,-2l2,-2v-1h-1v-3l1,-1v-1h1v-2h1l1,-1v-5l-1,-1v-2h-1v1h-1v1h-1l-1,-1h-2v-2h-1v-1v1h-1v-3l-2,-2h1h-2v-1h-2l-1,-1l-1,-2h-1l-1,-1v1h-2l-1,-1h-2l-2,-2h-1l-1,-1v-1h-1v-3h1l-1,-1v-3l-1,-1v-1l-1,-1v-3h-1v-5l-1,-1l-1,1v4h1l-1,1h1v5h1v2h-1v-1l-1,-1v-3l-1,-1v1v-1h-1v-1h1v-9h-1v-1h-1v-9l2,-2v-1l1,-2l2,-2l1,-2l1,-1v-1h1v1l2,-2h-1v-2l-1,-1v-1l1,-1l-1,-1l1,-1v-1l1,-1l-1,-1l1,-1v-1l1,-1l-1,-1h-1v-2h-1v-1h-1l-1,-1h-1l-1,1h-4l1,-1l2,-1h-1l-1,1l-2,1h-1l-1,1l-2,1h-2l-2,1h-1l-1,1h-3l-1,1h-2l1,-1h2l2,-1h2l2,-1h1l2,-1l1,-1h-3l1,-1l-1,1h-1l2,-2h-1v-1l2,-2l2,-1h3l1,-1h1l1,-1h-3v-2h4l1,1l1,-1v-3h4l1,-1h2l2,-1l1,1l1,-1h1l-1,1h1l1,1h2l1,1h2v1l1,1l1,-1h6l1,-1v2l2,-1l-1,1h2l1,1h2v1l-2,1h4v1l2,-2h2v1h1l1,1h2v-1h1l1,1l-1,1l1,-1h1l1,-1v-2l1,-1l2,-1l1,1l-2,2Z"/>
<path class="tl" d="M128,774l-1,1h4l-1,1h1l2,-2v1l-1,2v1l1,1h-2v1h-8v-1h-1v-1h4l-1,-1h-3l2,-1h-1l1,-1h1ZM135,774l-2,1v-1h1ZM152,776v1l-1,-1l-1,1v-2h2ZM146,776v1l1,-1l2,-1v2h3l1,1l-1,1l2,-1v1l1,1v2h-1l2,2v1h1v1l-2,1h-1l-1,-2l-1,1v1l1,1v2l-1,1l-2,-2v1l1,1h-2l-2,-2v-1l-1,-1v1h-3v-1l1,-1h3l1,-1l2,-1v-1l-1,-1h-1l1,-1l-1,-1h-5l-1,-1h-1l1,-1h-1l1,-1l2,-1l1,-1h2ZM138,774h2l-1,1h-1l1,1l-2,1h-2v-2l1,1v-1ZM298,772h-2v-1ZM141,776l-2,1v-1l2,-2h2l1,1l-2,1ZM122,776h-2l-1,-1h1l2,-1l2,-2h2v1h2v1h-1l-3,1h-2ZM299,769v1h-3v-1h1ZM143,773v1l-1,-1h-1l1,-1h1l1,1ZM295,769l1,1h-2l-1,1l-2,-1l-1,-1h2ZM143,771h-1v1l-1,1h-2l1,-1h-1l1,-1h2ZM136,771h1v1h-4l-2,1h-1l1,-1h-1l-1,-1l2,-1h1l2,1l1,1v-2h2ZM246,780h-3l-2,-1v-1l1,-2h-1l1,-1l-1,-1h1l4,-2h2l-1,1l-2,1l-1,1v2l-1,1l1,1ZM145,770l1,1h1l-1,1h1l1,1h4v1h-7l-1,-1l1,-1v-1h-2l1,-1ZM134,769l-2,1h-4l2,-1h3ZM271,770l1,1v-1h2l2,1h1v1l-1,1h1l2,1v-1l1,1l1,-1h2l1,1h3l-2,-1h5l1,1v1h2l2,1l-1,-1h1l1,-1l2,1v-1h1l-2,-1h8l3,1l1,-1h2l2,2h2v-1h3l3,1v-1h-2v-1h7l8,5h-1l1,1l2,1h2v1h-1v1h-1l1,1v2l-2,-1v2l-1,-1v1h-1l2,2v1h1l3,2h-1l1,1h1v1l1,2h-1l1,2l1,1l-4,-2l-4,-3l-1,-2l-1,-1v-3l-1,-2v-1l-2,-2l-1,1l2,2l-3,-1l-1,1l1,2l1,1h-1l-1,1l-1,-1h-1v1h-4v7h1l2,1h1l-1,-1h1l3,1l1,2l1,1l1,2l2,2v9h-1l-1,-1v2h-1v1l1,1v1h-1v1l1,1h1l2,2v1l1,1v1l-1,1h-1l-1,-2l-1,-1h1l-2,-1v-1v1v-1h-1v-1l-1,-1h-2v1h-1l-1,-1l1,-1l-1,-1l-1,1v2h-1v1l2,2h1v-1h2l1,1l-2,1v2l2,2l1,2l2,1v2h1v6l-2,4l-1,1h-1v1l-1,-1v1l-2,1h-1v2l-1,-1v-1h-2l-1,2v2l1,1l1,2l2,2l1,3v4l-2,1v1l-2,1v-2l-1,-1h-1v-1l-2,-2h-1v-1h-1v6h1v3l1,1h1v1h1v1l1,1v3h1v2h-1l-2,-2v-1l-1,-1v-1l-1,-1v-2l-1,-1v-1h-1v-6l-1,-1v-1l-1,-2v-2l-1,-1l-2,2h-1v-3l-1,-2v-1h-1l-2,-2v-1l-1,-1h-1v2l-1,-1v1h-2v2l-2,1l-1,2v1l-2,2h-1v8l-1,1l1,1h-1l-1,1l-1,-1l-1,-2v-1l-1,-1v-1l-1,-2v-1l-3,-6v-3l-2,1h-1l-1,-2v-1l-2,-1l-1,-1v-1l-1,-1l-2,1h-5l-1,-1h-2v-2h-1l-1,1h-2l-3,-3l-1,-2l-1,1v-1l-1,1v2l1,1h1l1,1v2l1,1l-1,-1l1,-1v2h1v1l1,-1h2v-1l1,-1v-1v2l2,2h1l2,2l-1,1v1h-1v3h-1v1h-1v1h-2v1h-1l-2,2h-1l-2,2v-1l-1,1h-2v1h-2v-2l-1,-1v-3h-1v-1l-1,-1v-1l-1,-1h-1v-1l-1,-1v-3h-2v-2l-1,-1v-1l-2,-2v-1v1l-1,1l-1,-1l-1,-2l1,2l1,1l1,2v1l2,2h-1l2,2v1l1,1h-1l1,2v1l1,1l1,2v1l1,1l2,1v1h1v1h1v1l-1,1h1l1,1h3l1,-1h3v-1h1v2l-1,1v3l-1,1l-3,6l-1,1l-2,1l-1,1l-1,2v1h-1v1h-1v2l-1,1l-1,2l1,1v4l1,1v7l-1,1h-1l-3,3h-1v1l-1,1v2h1l-1,1h1v1l-1,1h1l-1,1h-1l-2,2v3l-3,3v1l-2,1v1l-1,1h-2v1l-1,-1v1l-1,-1l-1,1h-2l-1,1l-1,-1h-1v-5l-1,-1v-2l-1,-1v-1l-1,-1v-5l-1,-1v-1l-1,-2v-1l-1,-1v-3l1,-1v-3h1v-1l1,-1v-1h-1v-5l-1,-1v-2l-3,-3l-1,-2l1,-1v-5l-1,-1v-1l-1,1h-2l-1,-1v-1l-1,-1h-2l-1,1h-2l-1,1h-6l-1,1l-4,-4h-1l-1,-1v-1l-1,-1v-1h-1v-1l-1,-1v-1h-1v-3h-1l1,-1v-1h1l-1,-1l1,-1v-4l-1,-1v-1h1v-2l1,-1v-1h1v-2h1l1,-2h1l2,-2v-3l3,-3l1,-2v-1h1l1,1h2l1,-1h2l1,-1h4l1,-1h1v1h1l1,-1h1v1l1,-1v1h-1v1h1v2h-1v1h1v1h3l2,2h1l2,2l1,-1v-2l1,-1h2l1,1h1l1,1h2l1,1h1v-1h2l1,1v-1h1l1,1v-2l1,-1v-5h-2l-1,1l-1,-1h-2v1l-1,-1h-2v-1l-1,-1v-2l1,-1h1v-1h2l1,-1h1l2,-1l2,1l1,1h2l1,-1v-2h-1l-2,-2h-1l-1,-1l1,-1l-1,-1h2l-1,-1v1h-2l-1,1v1h1l-1,1h-1v-1h-1l1,-1h-2v-1h-1v1l-1,1v1h-1v4l1,1h-2v1h-1v-1h-2l1,1h-2v1l1,1h-1h1l1,1v1l-1,-1v1h-1l1,1h-2v-2l-1,-1v-1h-1v-3h-1v-1h-1l-1,-1h-1l-1,-1v-1l-1,-1v1v-1h-2v1l2,2v1l1,1h1l1,1h1l1,1v1l-1,-1h-1v1h1v1h-1v1h-1v-1h1l-1,-1v-1h-1l-1,-1h-1l-2,-2l-1,-2h-2v1h-4l-1,1v2h-2v1l-1,2h1l-1,1v1h-1l-1,1h-2l-1,1l-2,-2v1h-2l1,-1v-1h-1v-2l1,-1v-3l-1,-1l2,-1l1,1h5v-4l-1,-1v-1h-2v-1h3v-2l1,1l2,-1v-1h1l1,-1l1,-2l1,-1h2v-5h2l-1,1h1v1l-1,1v1h1v1l1,-1h2v1h1l2,-2l1,1h1v-1h1v-3l1,-1l1,1v-1l-1,-1v-1h4l1,-1h-4l-1,1l-2,-2v-4l2,-1v-1l-1,-1l-2,2l-1,2l-1,1v3h1v2h-1v2l-1,2h-1v1h-1v-2l-1,-1l-1,-2l-1,-1l-1,2h-1l-2,-1v-5l2,-1l3,-3l2,-3l3,-3h2l1,-2h3l2,1l-1,1h2l1,1h3l3,1l1,1v1l-1,1h-1l-3,-1h-1l2,1v2l1,1h1v-1h-1l1,-1l2,1v-1l1,-2h1l1,1v-1l-1,-1v-1l-1,-1l2,1h1l-1,1l1,1h1v-1l1,-1l2,-1h1v1l1,-1h1l1,-1l1,1l1,-1h-2l1,-1h2l1,1l4,1v-1h-2v-1h-1l-1,-1v-3h2l1,1v1h1l1,1l1,2h1v3l1,1v-1h1l-1,-1l1,-1h-1l-2,-2v-1l-2,-1l1,-1l-1,-1h1l1,2l-1,-1l1,-1h2l1,1l-1,-1l-1,-2h4l-2,-1v-1h1l1,-1h3l1,-1h1v-2l2,1h-1ZM253,820l1,1v2h-1v1l1,1h1l1,1h3l-1,-1v-2h-1v-2h1v-1l-1,-1h-1l1,1l-1,-1v-1h-2v-2h-1h1v-2l1,1v-3h-2l-1,1h-1v1h-1l-1,2l2,1v1l1,1Z"/>
<path class="tl" d="M146,770h-1v-1h1l1,1ZM137,769h-2l1,-1h1l1,1ZM220,771l-1,1h-1v-1h-1l2,-1v1ZM139,768h-2l1,-1v1ZM146,769h-1v-1h1l1,1ZM144,769h-1l-1,-1h-1h1v-1h1l1,1ZM268,768l-3,1v-2ZM215,769l3,1h-2v3h-1l-2,-1h1l-1,-1l-2,-1v-1l1,-1l1,1h1v-1h1ZM220,768h1l-1,1h-4l-1,-1h3ZM234,767l-1,1h-1v-1h-1h4ZM264,768h-4l-2,-1l-1,-1h1l1,-1l4,2ZM153,767v1h-1l-2,1h-2v-1h1h-1v-1l1,-1h2v-1h1v1h1ZM167,764h3v1h-3l-1,1h-1l-1,1l-2,1h-3v1h-1v1h-2l-2,1h1l-2,1h-4l-1,-1h2v-1h2v-1h-1h1l1,-1h1l-1,-1h4l-1,-1h-3v-1l1,-1h6v-1h3v1l2,-1l1,1ZM190,764l3,1h-6v1h5l-1,1l2,-1h4v1l-2,1h-1l-2,2v2l1,1h-2l1,1l-1,1v1h-1l1,1h-3l1,1v1l-1,-1l-1,1h1l1,1v1h-2l-1,-1v1l-1,1h3l-4,2h-3l-1,1l-4,2h-1l-2,1h-1v1l-2,2v1l-1,1l-1,2h-1l-1,-1h-1l-1,-1v-2l-1,-1v-1l1,-1l-1,-2l1,-1l1,-2h1l1,-1v-1l-1,1h-1v-1l1,-1h1l-1,-1h-1l1,-1v-4l-1,-1h-5v-1l-1,-1h1l-1,-1l1,-1h2l3,-1h1l-2,-1h1l3,-1h1v-1h9l1,1l-1,-1h1l2,-1h3l2,-1Z"/>
<path class="th" d="M386,905v-1h1v1ZM387,904h-1h1v-1ZM386,904v-1ZM386,902v1ZM387,902v1ZM387,902h-1ZM387,902v-1ZM386,902v1h-1v-1h1h-1h1v-1v1v-1ZM387,900v-1ZM386,898v1Z"/>
<path class="tg" d="M66,970h1l1,-1h4v-1h5v-1h5v-1h6v-1h6l1,-1h7v-1h8v-1h9l1,-1h11v-1h14v-1h20v-1h79v1h20v1h14v1h11l1,1h9v1h8v1h7l1,1h6v1h6v1h5v1h5v1h4l1,1h1M21,927h6v-1h7v-1h8v-1h10v-1h10v-1h12v-1h14v-1h18v-1h23v-1h38v-1h75v1h38v1h23v1h18v1h14v1h12v1h10v1h10v1h8v1h7v1h6M5,877h399M21,826h4v1h7v1h8v1h9v1h10v1h11v1h14v1h16v1h21v1h32v1h103v-1h32v-1h21v-1h16v-1h14v-1h11v-1h10v-1h9v-1h8v-1h7v-1h4M66,783v1h5v1h4v1h5l1,1h5v1h6l1,1h6l1,1h7v1h10v1h10v1h13l1,1h17v1h36v1h21v-1h36v-1h17l1,-1h13v-1h10v-1h10v-1h7l1,-1h6l1,-1h6v-1h5l1,-1h5v-1h4v-1h5v-1M140,755h-1v1h-3v1h-2v1h-2v1h-2v1h-2v1h-2l-1,1h-1l-1,1h-1l-1,1h-1v1h-2v1h-2v1h-2v1h-1l-1,1h-1v1h-2v1h-1l-1,1h-1v1h-2v1h-1v1h-2v1h-1v1h-2v1h-1v1h-1l-1,1h-1v1h-1v1h-2v1h-1v1h-1v1h-1v1h-2v1h-1v1h-1v1h-1v1h-1v1h-1v1h-1l-1,1h-1v1h-1v1h-1v1h-1v1h-1v1h-1v1h-1v1h-1v1h-1v1l-1,1v1h-1v1h-1v1h-1v1h-1v1h-1v1l-1,1v1h-1v1h-1v1h-1v2h-1v1h-1v2h-1v1h-1v2h-1v1h-1v2h-1v2h-1v1h-1v2h-1v2h-1v2h-1v2h-1v2l-1,1v2h-1v2l-1,1v2h-1v3h-1v4h-1v4h-1v5h-1v9h-1v13l1,1v8h1v5h1v4h1v4h1v3h1v3h1v2h1v3h1v2h1v2h1v2h1v2h1v2h1v2h1v1l1,1v1h1v2h1v1h1v2h1v1h1v1h1v2h1v1h1v1l1,1v1h1v1h1v1h1v1l2,2v1h1v1h1v1h1v1h1v1h1v1h1v1h1v1h1v1h1v1h1v1h1v1h1v1h1v1h2v1h1v1h1v1h1v1h1v1h1l1,1h1v1h1v1h1v1h2v1h1v1h1l1,1h1v1h1v1h2v1h1v1h2v1h1l1,1h1v1h2v1h1v1h2v1h2v1h1l1,1h1v1h2v1h2v1h2v1h2v1h2v1h2v1h2v1h2l1,1h2v1h2v1h2M153,755h-1v1h-2v1h-2v1h-1v1h-2v1h-2v1h-1v1h-2v1h-1v1h-2v1h-1v1h-2v1h-1v1h-1v1h-2v1h-1v1h-1l-1,1h-1v1h-1v1h-1v1h-1v1h-1l-1,1h-1v1h-1v1h-1v1h-1v1h-1v1h-1v1h-1v1h-1v1h-1v1h-1v1h-1v1h-1v1h-1v1h-1v1h-1v1h-1v1h-1v1l-2,2v1h-1v1h-1v1h-1v1l-1,1v1h-1v1h-1v2h-1v1h-1v1l-1,1v1h-1v2h-1v1h-1v2h-1v1h-1v2h-1v2h-1v2h-1v2h-1v2h-1v2h-1v2h-1v3h-1v2h-1v3h-1v3h-1v3h-1v3h-1v4l-1,1v4h-1v6l-1,1v30h1v6h1v5h1v4h1v3h1v3l1,1v2l1,1v2h1v3h1v2h1v2h1v2h1v2l1,1v1h1v2h1v2h1v2h1v2h1v1h1v2h1v1h1v2h1v1h1v2h1v1h1v1h1v2h1v1h1v1h1v1l1,1v1h1v1h1v1h1v1h1v1h1v1h1v1l3,3v1h1l3,3h1v1h1v1h1v1h1v1h1v1h1v1h1v1h1l1,1h1v1h1v1h1v1h1l1,1h1v1h1v1h1l1,1h1v1h1v1h2v1h1v1h2v1h1v1h2v1h2v1h1v1h2v1h1l1,1h1v1h2M166,755h-1v1h-1v1h-1l-1,1h-1v1h-1v1h-1v1h-1v1h-1v1h-1l-2,2h-1v1h-1v1h-1v1h-1v1h-1v1h-1v1h-1v1h-1v1h-1v1l-2,2v1h-1v1h-1v1h-1v1h-1v1l-1,1v1h-1v1h-1v1h-1v2h-1v1h-1v1l-1,1v1h-1v1h-1v2h-1v1h-1v2h-1v2h-1v1h-1v2h-1v2h-1v2h-1v1l-1,1v1l-1,1v1l-1,1v2h-1v2h-1v2h-1v3h-1v2h-1v3h-1v3h-1v3h-1v3h-1v4h-1v4h-1v5h-1v6h-1v8h-1v30h1v7l1,1v5h1v5h1v4h1v4h1v3h1v3h1v3h1v3h1v3h1v2h1v2h1v2l1,1v2h1v2h1v2h1v2h1v1h1v2h1v2h1v2h1v1h1v2h1v1h1v2h1v1l1,1v1h1v1h1v2h1v1h1v1h1v1l1,1v1h1v1h1v1h1v1l1,1v1h1v1h1v1h1v1h1v1h1v1h1v1h1v1h1v1h1v1h1v1h1v1h1v1h1v1h1v1h1l2,2h1v1h1v1h1v1h1v1h2v1h1"/>
<path class="tg" d="M179,755h-1v1h-1v2h-1v1h-1v1h-1v1h-1v2h-1v1h-1v1l-1,1v1h-1v1l-1,1v1h-1v1l-1,1v1h-1v2h-1v1l-1,1v1h-1v2h-1v2h-1v2h-1v2h-1v2h-1v2h-1v2h-1v2h-1v2l-1,1v2h-1v2l-1,1v2h-1v3h-1v3h-1v3h-1v3h-1v4h-1v4h-1v4h-1v4h-1v5l-1,1v5h-1v8h-1v11h-1v29l1,1v10l1,1v7h1v6h1v5h1v4l1,1v4h1v3l1,1v3h1v3h1v3h1v3h1v3h1v3h1v2h1v3h1v2h1v2h1v2l1,1v2h1v2h1v1l1,1v1l1,1v1h1v2h1v2h1v1l1,1v1h1v2h1v1h1v2h1v1h1v2h1v1h1v1l1,1v1h1v1h1v1h1v2h1v1h1v1h1M192,755h-1v3h-1v2h-1v3h-1v3h-1v3h-1v3h-1v3h-1v3l-1,1v3h-1v4h-1v4h-1v4l-1,1v4h-1v5h-1v6h-1v6l-1,1v7h-1v8h-1v11l-1,1v18h-1v29l1,1v18h1v11h1v8l1,1v7h1v6h1v6h1v5h1v5h1v4h1v4h1v4h1v4h1v3h1v3l1,1v3h1v2l1,1v2h1v3h1v3h1v2h1M205,755v243M217,755h1v3h1v2h1v3h1v3h1v3h1v3h1v3h1v3l1,1v3h1v4h1v4h1v4l1,1v4h1v5h1v6h1v6l1,1v7h1v8h1v11l1,1v18h1v29l-1,1v18h-1v11h-1v8l-1,1v7h-1v6h-1v6h-1v5h-1v5h-1v4h-1v4h-1v4h-1v4h-1v3h-1v3l-1,1v3h-1v2l-1,1v2h-1v3h-1v3h-1v2h-1M230,755h1v1h1v2h1v1h1v1h1v1h1v2h1v1h1v1l1,1v1h1v1l1,1v1h1v1l1,1v1h1v2h1v1l1,1v1h1v2h1v2h1v2h1v2h1v2h1v2h1v2h1v2h1v2l1,1v2h1v2l1,1v2h1v3h1v3h1v3h1v3h1v4h1v4h1v4h1v4h1v5l1,1v5h1v8h1v11h1v29l-1,1v10l-1,1v7h-1v6h-1v5h-1v4l-1,1v4h-1v3l-1,1v3h-1v3h-1v3h-1v3h-1v3h-1v3h-1v2h-1v3h-1v2h-1v2h-1v2l-1,1v2h-1v2h-1v1l-1,1v1l-1,1v1h-1v2h-1v2h-1v1l-1,1v1h-1v2h-1v1h-1v2h-1v1h-1v2h-1v1h-1v1l-1,1v1h-1v1h-1v1h-1v2h-1v1h-1v1h-1M243,755h1v1h1v1h1l1,1h1v1h1v1h1v1h1v1h1v1h1l2,2h1v1h1v1h1v1h1v1h1v1h1v1h1v1h1v1h1v1l2,2v1h1v1h1v1h1v1h1v1l1,1v1h1v1h1v1h1v2h1v1h1v1l1,1v1h1v1h1v2h1v1h1v2h1v2h1v1h1v2h1v2h1v2h1v1l1,1v1l1,1v1l1,1v2h1v2h1v2h1v3h1v2h1v3h1v3h1v3h1v3h1v4h1v4h1v5h1v6h1v8h1v30h-1v7l-1,1v5h-1v5h-1v4h-1v4h-1v3h-1v3h-1v3h-1v3h-1v3h-1v2h-1v2h-1v2l-1,1v2h-1v2h-1v2h-1v2h-1v1h-1v2h-1v2h-1v2h-1v1h-1v2h-1v1h-1v2h-1v1l-1,1v1h-1v1h-1v2h-1v1h-1v1h-1v1l-1,1v1h-1v1h-1v1h-1v1l-1,1v1h-1v1h-1v1h-1v1h-1v1h-1v1h-1v1h-1v1h-1v1h-1v1h-1v1h-1v1h-1v1h-1v1h-1v1h-1l-2,2h-1v1h-1v1h-1v1h-1v1h-2v1h-1M256,755h1v1h2v1h2v1h1v1h2v1h2v1h1v1h2v1h1v1h2v1h1v1h2v1h1v1h1v1h2v1h1v1h1l1,1h1v1h1v1h1v1h1v1h1l1,1h1v1h1v1h1v1h1v1h1v1h1v1h1v1h1v1h1v1h1v1h1v1h1v1h1v1h1v1h1v1h1v1h1v1l2,2v1h1v1h1v1h1v1l1,1v1h1v1h1v2h1v1h1v1l1,1v1h1v2h1v1h1v2h1v1h1v2h1v2h1v2h1v2h1v2h1v2h1v2h1v3h1v2h1v3h1v3h1v3h1v3h1v4l1,1v4h1v6l1,1v14l1,1h-1v15h-1v6h-1v5h-1v4h-1v3h-1v3l-1,1v2l-1,1v2h-1v3h-1v2h-1v2h-1v2h-1v2l-1,1v1h-1v2h-1v2h-1v2h-1v2h-1v1h-1v2h-1v1h-1v2h-1v1h-1v2h-1v1h-1v1h-1v2h-1v1h-1v1h-1v1l-1,1v1h-1v1h-1v1h-1v1h-1v1h-1v1h-1v1l-3,3v1h-1l-3,3h-1v1h-1v1h-1v1h-1v1h-1v1h-1v1h-1v1h-1l-1,1h-1v1h-1v1h-1v1h-1l-1,1h-1v1h-1v1h-1l-1,1h-1v1h-1v1h-2v1h-1v1h-2v1h-1v1h-2v1h-2v1h-1v1h-2v1h-1l-1,1h-1v1h-2"/>
<path class="tg" d="M269,755h1v1h3v1h2v1h2v1h2v1h2v1h2l1,1h1l1,1h1l1,1h1v1h2v1h2v1h2v1h1l1,1h1v1h2v1h1l1,1h1v1h2v1h1v1h2v1h1v1h2v1h1v1h1l1,1h1v1h1v1h2v1h1v1h1v1h1v1h2v1h1v1h1v1h1v1h1v1h1v1h1l1,1h1v1h1v1h1v1h1v1h1v1h1v1h1v1h1v1h1v1l1,1v1h1v1h1v1h1v1h1v1h1v1l1,1v1h1v1h1v1h1v2h1v1h1v2h1v1h1v2h1v1h1v2h1v2h1v1h1v2h1v2h1v2h1v2h1v2l1,1v2h1v2l1,1v2h1v3h1v4h1v4h1v5h1v9h1v13l-1,1v8h-1v5h-1v4h-1v4h-1v3h-1v3h-1v2h-1v3h-1v2h-1v2h-1v2h-1v2h-1v2h-1v2h-1v1l-1,1v1h-1v2h-1v1h-1v2h-1v1h-1v1h-1v2h-1v1h-1v1l-1,1v1h-1v1h-1v1h-1v1l-2,2v1h-1v1h-1v1h-1v1h-1v1h-1v1h-1v1h-1v1h-1v1h-1v1h-1v1h-1v1h-1v1h-1v1h-2v1h-1v1h-1v1h-1v1h-1v1h-1l-1,1h-1v1h-1v1h-1v1h-2v1h-1v1h-1l-1,1h-1v1h-1v1h-2v1h-1v1h-2v1h-1l-1,1h-1v1h-2v1h-1v1h-2v1h-2v1h-1l-1,1h-1v1h-2v1h-2v1h-2v1h-2v1h-2v1h-2v1h-2v1h-2l-1,1h-2v1h-2v1h-2"/>
<rect x="374" y="887" width="23" height="33" fill-opacity="0" stroke="#ffffff" stroke-opacity="0.5" stroke-width="5.0"/>
<rect x="376" y="889" width="23" height="33" fill-opacity="0" stroke="#113311" stroke-opacity="0.8" stroke-width="5.0"/>
<rect x="375" y="888" width="23" height="33" fill-opacity="0" stroke="#45a249" stroke-opacity="0.9" stroke-width="5.0"/>
<rect x="691" y="691" width="309" height="309" fill="#ffffff" fill-opacity="1.0"/>
<rect x="694" y="694" width="302" height="302" fill="#000000" fill-opacity="1.0"/>
<rect x="700" y="700" width="300" height="300" fill="#70add3" fill-opacity="1.0"/>
<path class="zl" d="M703,711v1l-2,-1v-1l1,-1l1,1ZM828,763h-2l-1,-1l1,-1l1,1ZM814,747l-1,1h-1l-2,1h-1v-2l1,-1h5ZM720,768h-3l-1,-2h-1l-2,-1h-1l-2,-1v-2l1,1l7,3l1,1ZM736,729v3l-2,-1h-1v-5l-1,-1h1ZM712,719l1,1h1l2,2l-1,1l-1,-1h-1l-1,-1h-1v-1ZM705,725l4,2h6l3,2h2l1,2h1l1,1v2l-2,1h-3l-3,-1h-6l-2,-1h-1l-2,-2l-1,-2v-1l-1,-2l2,-2ZM703,709l-3,-1v-4l6,4l-1,2h1l1,2l-3,-1Z"/>
<path class="zp" d="M700,708v-4"/>
<path class="zl" d="M722,707l4,5v1l-1,1v2h2l2,2l1,2v2l1,2l2,3v2h-1l-5,-5l-3,-2l-2,-4l-2,-5l1,-2l-2,-3h1l1,-1ZM739,743l2,1l1,-1l2,1h2l3,4v1l1,1h-4l-2,-1h-2l-6,-3v-2h-1v-2h-3l-1,-1l1,-1h3l3,2ZM784,913l2,1h2l3,1l6,6l2,1h2l3,3v1l5,5h1l3,3h2l7,5l3,3l3,1l2,2l1,3l-1,1h-2l-1,1l-3,-2h-2l-1,-1l-4,-2v-1l-1,-1l-3,-1l-2,-1l-1,-2h-2l-3,-2l-2,-1l-1,-1l-4,-3l-1,-1l-2,-1l-3,-4l-3,-3l-2,-1l-1,-2l-2,-3v-2l-1,-1h-1v-3ZM839,954v1l-1,-1h-1l1,-1h1ZM714,899v-3l1,2ZM847,933h2v3l-2,1h-1v-1h-1v-1l-1,-2l1,-1h1ZM823,921h-1l1,-2v-3h2l-1,1v3ZM837,929h-1l-1,-2h-3l-1,-1v-2h1l1,-2h-2v-1l3,-1l1,1v3l1,1l1,2ZM1000,876v1Z"/>
<path class="zp" d="M1000,874v3"/>
<path class="zl" d="M1000,862h-1l1,-1v-1Z"/>
<path class="zp" d="M1000,860v2"/>
<path class="zl" d="M1000,781h-1h1v-1Z"/>
<path class="zp" d="M1000,780v1"/>
<path class="zl" d="M954,939v1h-1v-1Z"/>
<rect class="zh" x="876.5" y="911.5" width="1" height="1"/>
<path class="zh" d="M870,900h1v1l-1,1h-1l-1,-1h-1v-4h1l1,-1v3h1ZM869,890h-1v1h-1l-1,-1h-1l-1,-1h-1v-4l1,-1h1l1,1v1h1v1h-1l2,2h1ZM856,868v2h-4v-1h-1v1v-1h1h-1v-1h-1v1h-1v-2h1l1,-1v-1h1v1v-1h2v1h1v2Z"/>
<rect class="zh" x="850.5" y="865.5" width="1" height="1"/>
<rect class="zh" x="852.5" y="863.5" width="1" height="1"/>
<rect class="zh" x="852.5" y="857.5" width="1" height="1"/>
<rect class="zh" x="855.5" y="854.5" width="1" height="1"/>
<path class="zh" d="M850,853h-1v-5l1,1v1l1,1v-1h1v1l1,1h2l-1,1h-1v-1h-2v1Z"/>
<rect class="zh" x="851.5" y="847.5" width="1" height="1"/>
<rect class="zh" x="850.5" y="846.5" width="1" height="1"/>
<path class="zh" d="M850,845h-2v-1h-2v-1h-1v-1h3v-1h1v-1h1v2l1,1h1v1l-1,1ZM843,846h1l-1,1v1h-1l-1,-1h-1l-1,1h1h-1l-1,1l-1,-1v-1v1v-3h-1v-4h-3v-1h-1v-1l1,-1v-2l2,1v1l1,1v1h1v1h1v-1v2h1v-1v1h1v1h1v1h2v3Z"/>
<rect class="zh" x="832.5" y="832.5" width="1" height="1"/>
<rect class="zh" x="832.5" y="830.5" width="1" height="1"/>
<path class="zh" d="M850,830v3l1,1v4h-1v-1l-1,-1v-3h-1l1,-1v-3ZM845,828l-1,1v1h-2v-1h-1l2,-2h1v-1h3l-1,1v1Z"/>
<rect class="zh" x="831.5" y="820.5" width="1" height="1"/>
<path class="zh" d="M848,821v-1h1v4h1v3l-1,1v-4l-1,-1ZM832,830l-1,1h-3v1h-1v1h-1v-2h-1v-1h-1v-1l-1,-1v-1l1,-1v-1l-1,-1v-3h-1v-6h1v1h1v1h1v2h1v5h2l1,-1v-3h2v1l-1,1h1v2l1,-1v3h1v1h-1h1v2l1,1h-1ZM838,806l1,1h1v1h-1v1h-3v-2h1v-1ZM837,802v-1h-1v-2h2l1,1v2h-1v1h-1Z"/>
<rect class="zh" x="840.5" y="797.5" width="1" height="1"/>
<rect class="zh" x="835.5" y="795.5" width="1" height="1"/>
<rect class="zh" x="822.5" y="790.5" width="1" height="1"/>
<rect class="zh" x="821.5" y="788.5" width="1" height="1"/>
<rect class="zh" x="823.5" y="793.5" width="1" height="1"/>
</svg>
