<?xml version="1.0" encoding="UTF-8" standalone="no"?>
<svg xmlns:svg="http://www.w3.org/2000/svg" xmlns="http://www.w3.org/2000/svg" xmlns:xlink="http://www.w3.org/1999/xlink" height="1000" width="1000">
<!-- made with pythonshp (GPL): github.com/sanjayrao77/pythonshp , underlying data may come from naturalearthdata.com -->
<!-- 
COPYRIGHT: THIS SVG FILE IS RELEASED INTO THE PUBLIC DOMAIN
 -->
<!-- 
vars : {
	'cmdline' : 'pythonshp.py publicdomain wiki1 wallisandfutuna locatormap'
	'title' : 'Wallis and Futuna locator'
	'version' : '1.0.5'
}
 -->
<defs>
	<radialGradient id="watergradient" cx="500" cy="500" r="500" fx="500" fy="500" gradientUnits="userSpaceOnUse">
		<stop offset="0%" stop-color="#70add3"/>
		<stop offset="11%" stop-color="#6eaad0"/>
		<stop offset="22%" stop-color="#6ca7cc"/>
		<stop offset="31%" stop-color="#6ba5c9"/>
		<stop offset="41%" stop-color="#69a2c6"/>
		<stop offset="51%" stop-color="#679fc2"/>
		<stop offset="59%" stop-color="#669dbf"/>
		<stop offset="67%" stop-color="#649abc"/>
		<stop offset="75%" stop-color="#6297b9"/>
		<stop offset="81%" stop-color="#6095b6"/>
		<stop offset="87%" stop-color="#5f92b2"/>
		<stop offset="92%" stop-color="#5d8faf"/>
		<stop offset="95%" stop-color="#5b8dac"/>
		<stop offset="98%" stop-color="#598aa8"/>
		<stop offset="100%" stop-color="#5685a2"/>
	</radialGradient>
	<radialGradient id="landgradient" cx="500" cy="500" r="500" fx="500" fy="500" gradientUnits="userSpaceOnUse">
		<stop offset="0%" stop-color="#dddddd"/>
		<stop offset="11%" stop-color="#d7d7d7"/>
		<stop offset="22%" stop-color="#d1d1d1"/>
		<stop offset="31%" stop-color="#cccccc"/>
		<stop offset="41%" stop-color="#c6c6c6"/>
		<stop offset="51%" stop-color="#c0c0c0"/>
		<stop offset="59%" stop-color="#bbbbbb"/>
		<stop offset="67%" stop-color="#b5b5b5"/>
		<stop offset="75%" stop-color="#afafaf"/>
		<stop offset="81%" stop-color="#aaaaaa"/>
		<stop offset="87%" stop-color="#a4a4a4"/>
		<stop offset="92%" stop-color="#9e9e9e"/>
		<stop offset="95%" stop-color="#999999"/>
		<stop offset="98%" stop-color="#939393"/>
		<stop offset="100%" stop-color="#888888"/>
	</radialGradient>
	<radialGradient id="bordergradient" cx="500" cy="500" r="500" fx="500" fy="500" gradientUnits="userSpaceOnUse">
		<stop offset="0%" stop-color="#444444"/>
		<stop offset="11%" stop-color="#3f3f3f"/>
		<stop offset="22%" stop-color="#3a3a3a"/>
		<stop offset="31%" stop-color="#363636"/>
		<stop offset="41%" stop-color="#323232"/>
		<stop offset="51%" stop-color="#2d2d2d"/>
		<stop offset="59%" stop-color="#292929"/>
		<stop offset="67%" stop-color="#242424"/>
		<stop offset="75%" stop-color="#1f1f1f"/>
		<stop offset="81%" stop-color="#1b1b1b"/>
		<stop offset="87%" stop-color="#161616"/>
		<stop offset="92%" stop-color="#121212"/>
		<stop offset="95%" stop-color="#0e0e0e"/>
		<stop offset="98%" stop-color="#090909"/>
		<stop offset="100%" stop-color="#000000"/>
	</radialGradient>
</defs>
<style type="text/css">
<![CDATA[
.c3 {stroke:#45a211;fill-opacity:0;stroke-width:3}
.fs {font:14px sans;stroke:#ffffff;stroke-width:2px;stroke-opacity:0.8;text-anchor:middle}
.ft {font:14px sans;fill:#000000;fill-opacity:1;stroke-opacity:0;text-anchor:middle}
.sb {stroke:url(#bordergradient);fill-opacity:0}
.sg {stroke:#000000;fill-opacity:0.0;stroke-opacity:0.2}
.sh {fill:#45a211;stroke:#000000}
.sl {fill:url(#landgradient);stroke:url(#bordergradient)}
.sp {stroke:url(#landgradient);fill-opacity:0}
.sr {stroke:url(#watergradient);fill-opacity:0}
.sw {fill:url(#watergradient);stroke:url(#watergradient);stroke-opacity:0.8}
.tb {fill:#eeeeee;stroke:black;stroke-width:2}
.tg {stroke:black;stroke-opacity:0.2;fill-opacity:0}
.tl {fill:#aaaaaa;stroke:black}
.w3 {stroke:#ffffff;fill-opacity:0;stroke-opacity:0.6;stroke-width:3}
.zh {fill:#45a211;stroke:#115511}
.zl {fill:#dddddd;stroke:#444444}
.zp {stroke:#dddddd;stroke-dasharray:3 3;fill-opacity:0}
]]>
</style>
<circle cx="500.0" cy="500.0" r="500.0" fill="url(#watergradient)"/>
<path class="sl" d="M935,253l-1,-1v-1v1v-1h-1v-2h-1l1,1l-1,-1v-1h-1v-1l-1,-1l1,1v1l1,1v1v-1h-1v-1l-1,-1l1,1v1l1,1v1h1v2l1,1v1v-1h-1v-1l1,2v1v-1v2h1v2l1,1l1,2v1l-1,-1v-1l1,2l1,1v1l1,1v1h1v2l1,1l1,2v1h1v2l1,1l1,3l1,1l3,8l1,2l1,3l2,3v3h1v1l1,2v1l2,3v1l1,1v1v-1l-1,-1v-1l-1,-2l1,3v1h1v1l1,2l1,3l1,1v1l2,3l2,6v1l1,1v1l1,1l1,2v2h1l-1,-1l2,2v2l1,2v-1h1v-1v2h1v1v-2h-1v-3h-1v-2l-1,-3v-1h-1v-1l-1,-2v-1l-1,-2v-1l-1,-2v-1l-1,-1l1,1v1l1,1v2l1,1v2l1,1v2l1,1v2l1,1v1l1,1v2l1,1v2l1,1v2l1,1v2l1,1v2l1,1v3l1,1v2l1,1v2l1,1v2l1,1v2l1,1v3l1,1v3l1,1v3l1,1v3l1,1v1v-1l-1,-1v-3h-1v-1l-1,-2v-1l-2,-6l-1,-2v-2l-1,-1l-1,-3v-1l-1,-2v-1l-1,-1v1h1v1l-1,-2v-1h-1v-1v1h1v2h-1v2l-1,-1v-2l-1,-1l-2,-3l-1,-1v-2h-1l-2,-2l-1,-2v-1l-2,-2v-1l-2,-2v-1l-1,-1v-1l-1,-1v-1h-1l-2,-2l-1,-2l-1,-1l-2,-4l-2,-2v-1l-2,-1v-2l-2,-2l-1,-2v-1l-1,-1v-1l-1,-1v-1l1,1v-2h-1v-2l-1,-1v-2l-2,-2v-2l-1,-1l-1,-3l-2,-3l-1,-1l-3,-6l-1,-1l-2,-3l-1,-1l-3,-4l1,1v-1h-1l-1,-1v-1h-1l-1,-2l-1,-1h1v1v-1l-4,-4v-1l-1,-1v1l-1,-1l-1,-2v-1l-1,-1h1l-3,-3v-1h-1l-1,-1v-1l-3,-3v-1h-1v-1l-1,-1v-1l-1,-1h-1l-2,-2l-1,-2h-1l-1,-1v-1l-3,-3v-1l-4,-4l-2,-4l-2,-2l-1,-2l-1,-1v-1h-1v-2h-1l-1,-1h-1v-1h-1v-1h-2l-1,-2h-1l-1,-1v1l1,1v1l2,2v1l3,3v1l1,2l1,1v1l1,1h1l2,2l1,2h1l1,2l1,1v1h1v1h1l1,2l2,2v1h1v2h1l1,2l2,2l1,2l1,1l1,2l1,1v-1l1,1v1h1v2h1l1,1v2l1,1l1,2h1v1l2,4l1,1v1l1,1l1,2l1,1v1v-2l2,2v1h1v2l1,1h1v1l1,1v4l-1,-1l-1,-3l-1,-1v-1h-1l-1,-2l-6,-6v-1h-1v-1l-2,-2v-1l-1,-2l-1,-1v-2l-1,-1v-1l-6,-6v-1h-1v-1v1h-1l-4,-4h-1v-1l-4,-4v-1l1,1h2v1h1h-1v-1h-1v-3l-1,-1l-1,-2l-1,-1l-2,-3l-2,-1v-1h-2v-1l-2,-2h-1l-1,-2v-1l-4,-4v-1l-2,-1v-2h-1l-2,-2v-1l-1,-1v-1l-2,-1l-1,-2l-2,-2v-1h-1v-1l-2,-2l-1,-2l-2,-2h-1l-1,-1h-1v-1v1l-1,-1l-1,-2h-1l-2,-1l-1,-1h-1l-1,-1h-1l-1,-1h-2v-1h-1v-1l-2,-2v-1h-1l-1,-1v-1h-1l-8,-8v-1l-2,-2h-1l-4,-4v-1h-1v-1l3,3v-1h-1v-1h-1v-1h-1v-1h1h-1l-1,-1l1,1v1h-1v-1h-1l-1,-1v1v-1l-1,-1l1,1l-11,-11v-1l-4,-2l-1,-1v-2h-1v-2l-2,-2v-1l-1,-1h-1l-1,-1v-1l-2,-1l-1,-1l-1,-2h-1l-1,-1v-1l-1,-2v-1v1l-1,-1v-1l-2,-2l-1,-2l-2,-2l-3,-4l-4,-4h2l1,1v-1h-2v-1l-1,1v-1h-1l-1,-1l1,1v-1l-1,-1h-1l-1,-1h1h-1v-1h-1l1,1l-3,-3l-2,-1l-2,-2l-2,-1v-1h-1h2l1,1h1l3,1h2v1h1v2l1,1h1h-1v-2h-1v-1l2,2h-1h1l1,1v1v-1v1l-1,-1v1h1l1,1v-2h-1l-1,-1v-1h-1v-1h-1v-1h-1h1v1l-1,-1v-1h-2v-1l-1,-1h-1v-1h-1l-1,-1h-1l-1,-1h1h-1v-1v1l-2,-2v1l-2,-1h-1v-1l1,1v-1v1l-2,-2h-1h1l-1,-1h-1h1v1h1v1h-1v-1l-2,-1h-1l-1,-1h-1v-1h-1v-1h-1v-1v1h1v1l-1,-1h-4v-1h1h-2v-1h-1l-1,-1v1h-1l-1,-1h-1l-1,-1h-1v-1h-1v-1h1l-1,-1l-1,1h1h-1l-1,-1h-1v-1h-1v-2l1,1h2v1h1l-1,-1h-1l-1,-1h-1v-1l-1,-1v1h1v1h-1v1l2,2l-2,-1l-1,-1v-1h-1v-1v1l-2,-2v-1l-1,1v-1l-2,-1h-1l-1,-1h-1l-2,-2h1v1h1l2,1h1l1,1v-1h-3v-1h-1l-1,-1v-1h-1v2h1v1h-1l-1,-1h-1l-1,-1h-1l-1,-1v-1h1l-1,-1l-1,1l-1,-1h-1v-1h-1v-1l-1,-1v-1l-1,-1h-1h1v1l1,1l-2,-2h-1v-1h-1v-1v1h1v1h1l1,1v2l-1,-1h-1v-1h-1v-1h-1l-2,-2l-2,-1h-1v1l1,1h-1v-1h-1v-1l-1,-1h1h-2v-1h-2l-1,-1h-1v-1h-3v-1l-3,-1h-1l-1,-1h1l-1,-1h-2h2l-2,-1v1l-1,-1h-1l-2,-2v1l-1,-1h-2l-1,-1h-1v-1h-1l-1,-1h-1l-1,-1v1h1l1,1h1l1,1h1l1,1v1v-1h-3l-1,-1l-2,-1h1h-1l-1,-1l1,1h-1l-1,-1h-1l1,1h2v1h2v1h-2l-1,-1l-3,-1h-1l-1,-1h-1l-1,-1h-3l-1,-1h-2l-1,-1h-1v-1h-1h2v1v-1h-1l-1,-1h-1v1h-3l-2,-1h-1h1h-1v-1v1h-1l-2,-1h-7l-1,-1h-3v-1h-1v-1v1h-3v-1h-3l-1,-1h-1h1l-1,-1v1h-5v-1h-1v1h1v1h2v2h-3l-1,-1v1h-1h1h-1v1h-2v1h-4v-1h2v-1h-3l-1,-1h1v-1h-1v-1h-1l2,-1h4l2,1h1l-1,-1h-4v-1h1v-1h-1v1h-4v1h-2v2h-1l1,1h-1v1h-2l-1,1v1h4v2h-1l-1,1h1h-2l1,1h-4v1h-1v1l-1,-1l-1,1h1v1h-2v1h-4v1h1h-2v1h1h-2v1h-3v1l-1,-1h-1l-1,1h-3v1h-2v-1h1h-3l1,1h-1l-1,1h-1l-1,-1h-1l1,1h-2l-1,1v-1h-1h1v-1h2l2,-2h2l2,-1h1v1h2v-2h1l1,-1h3v-1h1v1h1v-1h-1v-1h1l1,-1h2l-1,-1v-2h1h-2v-1h2l-1,-1v-1v1h-2l-2,1h-1l-1,-1v-1h1h-3v1l1,1h-1l-2,-1l-1,-1h-1v1l-1,-1h-4l-1,1h-2l-1,-1l1,-1h-2v-1l-2,-2h-1l-1,-1l1,-1h-1v1h-1h1v1h-1l-2,1h-2l-2,-1l-1,-1h-3v-1h-2l1,-1h4l-1,1h1l1,-1v1h2v-1h-8l1,-1h-3v-1h-3v-1h1h-1h2v-1h-1l1,-1h2v-1h1h-1v-1h1h-1h1l1,-1l1,1h4l1,-1h5v-1h-1l-2,-2h-1h2v-1h-4l-1,1h-11l-3,-1h-1l-1,-1h-1h2v-1h-7l-1,-1h4l1,-1h5l1,-1h3v1l1,1h7v-1h1v1l1,-1v1v-1h-3l-2,-1h-1h2v1h4v-1h-1l-1,1h-1v-1h-1v-1h-7l-1,-1l-6,-1l-2,-1h-2v-1h7l1,-1h1l-1,-1h2v-1h1h-1h5v-1h1l1,1v-1l1,1h1v-1l1,1v-1h5v1h2v-1l1,1h7v1h9l1,1h7l1,1h8l2,1h3l1,1h7l2,1h1l1,1h5v1h2l-1,-1h1h-1h1h-1v-1h1v1h4v-1v1h1l-1,-1h3v1h-2l1,1h-1h1v1h1h-1v-1l2,1h-1v-1h-1h1h-1v-1l1,1h1v-1h2v1v-1h-1v-1h-1h1l1,1h2l1,1h2l2,1h1h-1v-1h-1h2l1,1h2v1h1v-1h-1h2l1,1h2l2,1h1l3,1h2l1,1h3l1,1l-1,-1h1v1h3l1,1h2v1h1h-1h2v1h3l1,1h4v1h3v1h1h-1h2l2,1h1h-1h1l1,1h1l1,1h1l1,1h1l-2,-1h-1l-1,-1h-1h1h-2v-1h-2l-1,-1h-2l-1,-1h-1l-1,-1h-1h1h-1h1h-1h1h-2l-1,-1h-1h2v1h2l1,1h2l1,1h1l1,1h2l1,1h1l1,1h2l1,1h1l1,1h2l1,1h1l1,1h2l1,1h1l1,1h1l1,1h1l1,1h2l1,1h1l1,1h1l1,1h1l1,1h1l1,1h2l2,2h1l1,1h2l2,2h2l1,1h1l2,2h1l1,1h1l1,1h1l1,1h1l1,1h1l1,1h1l2,2h2l2,2h1l2,2h2l3,3h1l1,1h1l1,1h1l3,3h1l1,1h1l1,1h1l3,3h1l1,1h1l2,2h1l3,3h1l1,1h1l3,3h1l3,3h1l1,1h1l3,3h1l5,5h1l1,1h1l4,4h1l6,6h1l5,5h1l2,2h1l8,8h1l14,14h1l2,2v1l16,16v1l9,9v1l6,6v1l1,1v1l6,6v1l5,5v1l2,2v1l3,3v1l4,4v1l2,2v1l2,2v1l3,3v1l1,1v1l3,3v1l3,3v2l2,2v1l3,3v2l3,3v1l1,1v1l1,1v1l2,2v1l1,1v1l1,1v1l2,2v1Z"/>
<path class="sp" d="M965,317l1,1v1l1,1v2l1,1v2l1,1v2l1,1v2l1,1v1l1,1v2l1,1v2l1,1v2l1,1v2l1,1v2l1,1v3l1,1v2l1,1v2l1,1v2l1,1v2l1,1v3l1,1v3l1,1v3l1,1v3l1,1v3M677,32l1,1h1l1,1h2l1,1h1l1,1h2l1,1h1l1,1h2l1,1h1l1,1h2l1,1h1l1,1h1l1,1h1l1,1h2l1,1h1l1,1h1l1,1h1l1,1h1l1,1h2l2,2h1l1,1h2l2,2h2l1,1h1l2,2h1l1,1h1l1,1h1l1,1h1l1,1h1l1,1h1l2,2h2l2,2h1l2,2h2l3,3h1l1,1h1l1,1h1l3,3h1l1,1h1l1,1h1l3,3h1l1,1h1l2,2h1l3,3h1l1,1h1l3,3h1l3,3h1l1,1h1l3,3h1l5,5h1l1,1h1l4,4h1l6,6h1l5,5h1l2,2h1l8,8h1l14,14h1l2,2v1l16,16v1l9,9v1l6,6v1l1,1v1l6,6v1l5,5v1l2,2v1l3,3v1l4,4v1l2,2v1l2,2v1l3,3v1l1,1v1l3,3v1l3,3v2l2,2v1l3,3v2l3,3v1l1,1v1l1,1v1l2,2v1l1,1v1l1,1v1l2,2v1"/>
<path class="sl" d="M371,17h1h-1h2l1,-1h3l1,-1h4l1,-1v1h-3v1h-2l-1,1h-1v-1v1h-1l-2,1l1,-1h1h-1l-1,1h-1h1h-1l-1,1h-1h1h-1h2l2,-1h2l1,-1h2l1,-1h1h-1v1h-1h3l1,-1h3v1v-1h3v-1l1,1v-1v1l1,-1h2l1,-1h1h-1h3v-1h4l1,-1v1h1l3,-1h4l-2,1h-1l3,-1h1h-1l-1,1h-2h1h-3v1h1l1,-1h3l1,-1h5v1h-1l-1,1h-1l2,-1h2v1h-1h6l2,-1h11v1h-1l-1,1h-1h3v1h-1v1h-1l-1,1l1,-1h2v-1h1l2,-1h15l2,-1h1v1h1l1,1h4l1,-1v-1h-1h1l1,-1h5l1,1h1l1,-1l1,1h4l2,-1h1l1,1h7v1h5l2,1h1h-1h2v1h1v-1h-1h1l1,1h-1h3l5,1v1h2v2h3v1v-1h1h-2l1,-1h-2v-1h3l2,1h-1h1h-1h6l1,1h3v1h2l-1,1h-2v1h-1v-1l-2,1v-1h-2v1h-1h2v1h-2v1h2l-1,1v-1h-1v1h-2v-1l-1,1l-1,-1h-2l-1,-1h-4v-1h-1l-2,-1h-8v-1h1v-1l-1,1h-1v-1h-1v1h-1v1h1v1h-1l-1,1h-4l-1,1h-5v-1h-1v1l-1,-1h-4l-2,1h-1h2l1,-1h2v1h-1h5l1,1h2v1h1v1h-1h2v1h1v1h1l-1,1h-1v1h-1l-3,-1h-3v-1h-1l-1,1h1h-3v1h-4l-1,1h-4l-1,1h-3l-1,1h-2l-1,1h-2v1h-3l-3,1h-1l-2,2h-2v-2h-8l-1,1h-3l-3,2h-1v-1h1l1,-1h-2l-2,1h-2v1h-2v-1h-1l-1,1h-1h1h-4v1l-1,1h-1l-2,2h-1l-1,1l-2,1h-1l-1,1v1h2v-1h1l1,1h1h-1v1h-1l-2,1v1l-1,1h2v1l-1,1h-1l-1,1l-1,-1h1l1,-1h1h-3v1h-1l-1,1h-1l-2,2h-1v1h-1v1h1v1l-1,1h-6l-1,1l-2,1h-2v1l-1,1h-1v3h-1v-1h-1l-3,1h-1l-1,1l-1,-1v1l-2,2v1l-1,1l-6,3h-1l-4,2l-1,1l1,-1v-2l2,-4v-2l1,-1l1,-3l1,-1l1,-2v-2l2,-2l2,-1l1,-2l3,-2l1,-1l2,-1h2l1,-1h1v-2h3l1,-1h4l1,-1l2,-1h2l1,-1h1l2,-1l3,-1l1,-1h1l4,-2h1l1,-1h1l1,-1h3l1,-1h3v-1h2l1,-1h-1l1,-1h1v-1h1l1,-1h2v-1l1,1h1v-1h-7v1h-1l-2,2h1h-1v1h-1v-1h-2l-1,1l-6,2h-1l-1,1h-2l1,-1h-1v-1h1l1,-1h1v-1h1h-1l-2,1h-1v-1h-2l-1,1h-6l-1,1h-1l-1,1h-2l-1,1l-2,1h-1l-1,1h-3l-2,1l-1,1h-1l-2,2h1l1,-1l1,1h1h-1l-1,1h-8l-1,1h-3l-2,1h-1v-1h3l1,-1h1h-2v-1h-2l-1,1h-1v-1h1h-4l-2,1h-2v1l1,-1v1h-9l-1,1h-2v-1l-4,1h-5l-2,1h-2l-1,1l-3,1v1h-2l-2,1h-1l-1,1l-2,1h-1l-2,1l-1,1h-2v1h-2l-1,1h-2l-3,2h-1v1h-1l-3,1l-1,1l-2,1h-1l-1,1h-2v1h-2l-2,1l-1,1h-2v1h-1l1,1l2,-1h1v1h-1l-3,3h2l1,-1v-1h1l1,-1h1l-1,1h-1v1h1h-1l-1,1h-2v1h2l1,-1h1l2,-1v-1h1l-2,2h-1h1l1,-1h1l1,-1v-1h3l1,-1l1,1v2h1l-1,1h1v1h-1l-1,1l-1,-1v1h1l-2,2h-1v1l-1,1v1h-1l-1,1h-1l-2,1l-2,2l-2,1l-1,2l-3,3h-1v1l-2,2h-1v1h-1v1l-2,2h-1l-1,1l-4,2l-1,1l-4,2l-3,2v1h-1l-4,4l-3,2l-1,1l-4,2l-3,2l-1,1l-2,1l-1,1h-1l-2,2l-4,2v1l-2,1l-1,1l-2,1l-1,1l-5,2l-1,1h-2l-1,1v-1h-3l2,-2l-2,1h-1h1l1,-1h-1l-1,1l-2,1l-1,1v1h-1l-1,1v-1v1l-1,-1v1l-2,2h-2v1h-1l-2,2h-1v1l-1,1h-1v1l-1,1l-1,2h-1l-2,1v1l-2,1h-1v1h-1l-1,1h-1v1h-2v1h-1l-2,1v1l-2,2h-1v1h1v3l-1,3v3l-1,2v1l-2,2v1l-1,1v1h-1v1l-1,1h1v1l-2,1l-1,2l-2,2h-1v1h-3v1l-1,1v-1h-2v1h-1v1h-1l1,-1h-1v1l-1,1v1h-1v-1h1v-1l-3,3v-1l-1,1v1h-1v-1h1v-2h1l1,-1h-1l1,-1v-1l3,-3v-1h1l1,-1v-2h1v-2h1v-1h-1v-1h1l1,-1h1v1v-1h1v-2h1v-1l1,-1v-1h1v-1h-1l-1,1h-1l1,-1h-1l-2,2v-1h-1l1,-1h1h-2l1,-1v-1h1l1,-1l2,-1l1,-1h-1l3,-3v-1l1,-1h-1v-1l-1,1v-1l1,-1h-1l-1,1h-2v1h-2v1h-1l-1,1l-2,1l-2,2h-1v1h-2v1h-1v1h-1v-1h1l3,-3h1h-1v-1l2,-2l2,-1v-1h1l3,-3v-2h1h-1l-1,1v-1h-1v1l-1,1h-1v1l-3,2h-1l-2,2l-2,1l-5,5h-1l-1,1h-1l1,-1l-1,1h-1l-3,3v1l-1,1v1h2v2h-1v1l-2,2v1h2l1,-1v-1l2,-1l3,-3v2h3v-1v1h1l-1,1v1h-1v1h-1v1h-1l1,-1h-1l-2,1l-2,2h-2v1l-2,2v1h-1v-1v1h-1v1h-1v1h-1v1h-1v1h-1l-1,1v1h-1l-1,2h-1l-1,2v1l1,1v1l-1,2v1l-1,1v1l-1,1v2l-1,1v1h-1v1l1,1l-1,1v1h1v1l-1,1v1l-1,-1h-1v-1h-1l-2,1h1v-1h1v3l1,1v1l-1,1v1h-1v1h-1l-1,1l-2,1v1l-1,1h-1l-1,1h-1h2l-1,1l2,-1l1,-1h1v2h1l-3,3h1v-1v1l-2,3v-1h-1v2l-1,1v1h-1v2l-2,2v-1h-1v1l-1,1v1h-1v1l-2,2v1l-2,2v1h-1l-1,2l-1,1v1h-1v-1v1l-1,-1v3l-4,4h1v-1h1v1h-1v1l-1,1v2h-1v-1v1v-1l-1,1v2h-2v2h-1v1h-1v1l-1,1h-2v1l-1,1h1v1l-5,5v1v-1l-3,3v1h-1v2h-1v1v-1l-2,2h-1v1h-1v-1l-1,1v1h-1v-1v1h-1v1h-1v1h-1v-2l1,-1v-1h-1v2h-1v4h-1v1v-1v1h-1v1h-1l1,-1l-1,1v1l-1,1h-1v1v-1v1h-1v1v-1h-1v1l-1,1v1h-1v1h-1l-3,3v1l-1,1v3l-1,1v1h-1v-2l1,-1v-3h1v-2h1v-1h-1v1h-1l1,-1h-1v-2h1h-1v2h-1v1h-1v1l-1,1h-1v2l-1,1v1h-1l1,-1h-1v1l-1,1v1l-1,2v1l-1,1l-1,2l-1,1l-1,3v1l-1,1l-1,2v3h-1v6l-1,1v5l-1,2h1v3l-1,1h1v-1v5l-1,1v1h1l-1,2v4l-1,1v4l-1,2v3l-1,1v5l-1,1v-1v3h-1v4h-1v3l-1,1v1l-1,2l-1,1v1l-1,1v1l-1,1v1l-1,1v1v-1h-1l1,-1h-1v1l-1,1h1v1h-1v4h-1v-2v5l-1,-1v-2v4l-2,4v2l-1,1v1l-1,1l1,-2v-4l1,-3v-2l1,-1v-2h-1v-2h-1v-1l1,-1v-2l-1,1v-2l1,-1v-9h-1v-1l1,-2v-3l1,-1h-1v1l-1,1v3l-1,2v1l-1,2v3l-1,1v3l-1,1v4l-1,1v3l-1,2v2l-1,2v10h-1v1h1l-1,1v9l-1,1v-1l1,-1v-2l-1,1v4l1,1v9h-1v-1v1v-6h-1v-4l1,-2l-1,1v-2h1v-1h-1l1,-2v-2l-1,1v-1l1,-1v-5l1,-3v-2l1,-3v-3l1,-1v-4l1,-2v-3h1v-5l1,-1v-4l1,-1v-2l1,-2v-4l1,-1v-1l-1,2l1,-2v-2l1,-1v-3l1,-1v-4l1,-1l1,-5v-1l1,-1v-3h1v-3l1,-1v-1v1l-1,2v1l-1,1v1v1l-1,1v2l-1,1v3l-1,1l1,-1v-2l-1,2v1l1,-2v-1v1v-2l1,-1v-3l1,-1v-2l1,-1v-2l1,-1v-2l1,-1v-2l1,-1v-2l1,-1v-2l1,-1v-2l1,-1v-1l1,-1v-2l1,-1v-2l1,-1v-2l1,-1v-2l1,-1v-1l1,-1v-2l1,-1v-1l1,-1v-1l1,-1v-2l1,-1v-2l1,-1v-1l1,-1v-1l1,-1v-1l1,-1v-2l1,-1v-1l1,-1v-1l1,-1v-1l1,-1v-1l1,-1v-1l1,-1v-2l2,-2v-1l1,-1v-1l1,-1v-2l1,-1v-1l2,-2v-1l1,-1v-1l1,-1v-2l2,-2v-1l1,-1v-1l1,-1v-1l2,-2v-1l1,-1v-1l1,-1v-1l2,-2v-1l1,-1v-1l1,-1v-1l2,-2v-1l1,-1v-1l3,-3v-1l1,-1v-1l1,-1v-1l2,-2v-1l1,-1v-1h1l1,-1v-1l1,-1v-1l3,-3v-1l1,-1v-1l3,-3v-1l2,-2v-1l3,-3v-1l3,-3v-1l2,-2v-1l4,-4v-1l4,-4v-1l3,-3v-1l1,-1h1v-1l3,-3v-1l4,-4v-1h1l1,-1v-1l6,-6v-1h1l1,-1v-1l6,-6h1v-1l9,-9v-1h1l9,-9h1v-1l3,-3h1l1,-1v-1h1l6,-6h1l1,-1v-1h1l4,-4h1l5,-5h1l5,-5h1l2,-2h1v-1l1,-1h1l3,-3h1l1,-1h1v-1l1,-1h1l3,-3h1l1,-1h1l1,-1v-1h1l1,-1h1l3,-3h1l1,-1h1l3,-3h1l2,-2h1l1,-1h1l3,-3h1l1,-1h1l2,-2h1l1,-1h1l1,-1h1l3,-3h1l2,-2h1l1,-1h1l1,-1h1l2,-2h1l1,-1h1l1,-1h2l2,-2h1l1,-1h1l1,-1h1l1,-1h1l2,-2h1l1,-1h2l1,-1h1l2,-2h1l1,-1h2l1,-1h1l1,-1h1l1,-1h1l1,-1h1l1,-1h1l1,-1h2l1,-1h1l1,-1h1l1,-1h1l1,-1h2l1,-1h1l1,-1h2l1,-1h1l1,-1h1l1,-1h2l1,-1h2l1,-1h2l2,-2h2l1,-1h2l1,-1h2l1,-1h2l1,-1h2l1,-1h2l1,-1h1l1,-1h3l1,-1h2l1,-1h2l1,-1h3l1,-1h2l1,-1h3l1,-1h2l1,-1h1Z"/>
<path class="sp" d="M20,361v-2l1,-1v-3l1,-1v-2l1,-1v-2l1,-1v-2l1,-1v-2l1,-1v-2l1,-1v-2l1,-1v-2l1,-1v-1l1,-1v-2l1,-1v-2l1,-1v-2l1,-1v-2l1,-1v-1l1,-1v-2l1,-1v-1l1,-1v-1l1,-1v-2l1,-1v-2l1,-1v-1l1,-1v-1l1,-1v-1l1,-1v-2l1,-1v-1l1,-1v-1l1,-1v-1l1,-1v-1l1,-1v-1l1,-1v-2l2,-2v-1l1,-1v-1l1,-1v-2l1,-1v-1l2,-2v-1l1,-1v-1l1,-1v-2l2,-2v-1l1,-1v-1l1,-1v-1l2,-2v-1l1,-1v-1l1,-1v-1l2,-2v-1l1,-1v-1l1,-1v-1l2,-2v-1l1,-1v-1l3,-3v-1l1,-1v-1l1,-1v-1l2,-2v-1l1,-1v-1h1l1,-1v-1l1,-1v-1l3,-3v-1l1,-1v-1l3,-3v-1l2,-2v-1l3,-3v-1l3,-3v-1l2,-2v-1l4,-4v-1l4,-4v-1l3,-3v-1l1,-1h1v-1l3,-3v-1l4,-4v-1h1l1,-1v-1l6,-6v-1h1l1,-1v-1l6,-6h1v-1l9,-9v-1h1l9,-9h1v-1l3,-3h1l1,-1v-1h1l6,-6h1l1,-1v-1h1l4,-4h1l5,-5h1l5,-5h1l2,-2h1v-1l1,-1h1l3,-3h1l1,-1h1v-1l1,-1h1l3,-3h1l1,-1h1l1,-1v-1h1l1,-1h1l3,-3h1l1,-1h1l3,-3h1l2,-2h1l1,-1h1l3,-3h1l1,-1h1l2,-2h1l1,-1h1l1,-1h1l3,-3h1l2,-2h1l1,-1h1l1,-1h1l2,-2h1l1,-1h1l1,-1h2l2,-2h1l1,-1h1l1,-1h1l1,-1h1l2,-2h1l1,-1h2l1,-1h1l2,-2h1l1,-1h2l1,-1h1l1,-1h1l1,-1h1l1,-1h1l1,-1h1l1,-1h2l1,-1h1l1,-1h1l1,-1h1l1,-1h2l1,-1h1l1,-1h2l1,-1h1l1,-1h1l1,-1h2l1,-1h2l1,-1h2l2,-2h2l1,-1h2l1,-1h2l1,-1h2l1,-1h2l1,-1h2l1,-1h1l1,-1h3l1,-1h2l1,-1h2l1,-1h3l1,-1h2l1,-1h3l1,-1h2l1,-1h2"/>
<path class="sl" d="M18,399l-1,1v2v-3ZM20,411v-1ZM23,396l1,-1ZM47,310h-1h1v-1ZM49,306v1h-1ZM48,309v-1h1h-1ZM366,571l1,3h1v-2h1v2l1,2v1l-1,1h-2l-2,-2v-1l-1,-3v-2h1v1ZM372,582h1v1l1,1v-1l1,1v1h1l-1,1h-2l-1,-1v-2l-1,-1v1l-1,-1v-2h1v1ZM381,588h-2l-1,-1l1,-1v1h1v1ZM379,584h-2l-1,-1h1l1,-1h1v1ZM381,594l2,2h-1l-1,1l-1,-1h-1v-1l1,-1ZM376,576l-1,1h-1l1,-2h1ZM379,581h-1v-4l1,3ZM378,575v1v-1l-1,-2v-1l1,2ZM370,579h-1v-1h1ZM372,566v1h-1v-1l1,-1l1,1ZM371,563v-1h1v1ZM395,616v1h-1v-1ZM391,611v1h-1l-1,-1v-2h1v1ZM390,606h-3v-3h1v1l1,1h-1h1ZM331,398h-1ZM153,376v1v-2l1,1ZM243,386v-1ZM294,387h-1v-1h-1h2ZM386,392v-1l1,-1v1ZM380,379h-1ZM403,381h1ZM399,380l1,1l2,-1h-1v1h-1l-1,-1h-1ZM365,347v1ZM210,315v-1ZM204,333v-1ZM214,301h-1l1,-1ZM209,324h-1h1v-1h1ZM208,326v-1ZM200,340h-1v-1l2,-2v1l-1,1ZM554,565h-1h2ZM693,62h-1l-1,-1l1,1ZM694,63h-1ZM679,55h-1v-1h-1h1v1ZM631,44v-1ZM635,46v-1h1ZM621,44v-1l1,1ZM605,42v-1ZM582,59h-1ZM588,61h-1v-1ZM587,60h-1ZM556,65h1ZM506,73h-1v-1ZM539,22h-1ZM522,29h7v1h1v1h-1v-1h-3l-1,-1h-2v1h-1l-1,-1v-1ZM547,39l1,1h1v1h1h-2v1v-1h-5v-1h-1h3v-1h1ZM609,51h3v1h1h-2l1,1h-3l-1,1h1l-1,1h-1v-1h1l-1,-1v1v-1h-1v1l-1,-1h-1l-1,-1v-1h2v1h2l1,1l-2,-2h1h-2v-1h1l1,1h1v-1h1ZM568,60l1,1h1h-2v1l-2,-1l-1,1h-3v-1l1,-1h4ZM696,66v1h-1v-1ZM705,69l1,1h1h-1l-1,-1h-1v-1ZM697,64l1,1h-1l-1,-1h-1v-1h-1h2ZM704,67l1,1v1v-1h-2v1v-1h-1v-1l-2,-1l1,-1l1,1h1v1ZM688,60h2v1h1v1h1h-1l-1,-1h-1h1l1,1h1h-3v-1h-1v-1h-1ZM701,69h1v1h-1l-1,-1h-1v-1h-2v-1l1,1h1l1,1ZM626,43h1h-2ZM623,45v-1l1,-1h1l-1,1v1ZM621,42l1,1h-1h1h-1ZM619,41h-1ZM611,53v1h-1v-1ZM609,48h-1ZM608,51h-1v-1h-1h2ZM606,56h-1v-1h1ZM608,56h-1v-1h1ZM581,59h1v1h-2v-1ZM574,61h-1v-1h1ZM573,63h-1v-1h1ZM585,60h-1v1v-2h1ZM558,64h-1l-1,-1h2ZM559,63h-1h2ZM573,46h-1ZM519,39h-1v-1v1ZM533,51h-1l1,-1ZM539,68v1h-1v-1ZM534,70l-1,-1h2ZM525,71h-1l1,-1l1,1ZM535,53h1ZM505,73h-1ZM506,72h-1ZM500,73h-1h1v-1ZM477,72v1ZM482,75h-1l-2,-1h-1h2l1,1ZM452,71h-2v-1h2ZM681,58l1,1h1l2,1v1h1v1h1l1,1h-1v-1h-1l-1,-1h-1l-1,-1h-1v-1h-1l-1,-1v1l-1,-1h-1h1v-1l1,1ZM678,55h2l1,1h1l1,1h1h-2v-1h-1l1,1h1l1,1h1v1h-1h1h-1v1v-1h-1l-2,-2h-1l-2,-2h-1v-1h-1h1Z"/>
<path class="sl" d="M674,54l1,1h3v1h1h-1l1,1h1l1,1l-1,-1h-2v1l-2,-2h-2l-1,-1h-1v-1h1v1v-1ZM691,63h2l1,1l2,1h2v1l1,1h1l-1,-1h-1l1,1h2v1h1l1,1h1v1h1h-2v-1h-2v-1h-1l1,1h-1l-2,-2h-1v-1h-3v-1h-1h1v-1h-2v-1ZM687,61h2v1h1v1l1,1l-1,-1v1l-2,-2h1h-1l-1,-1h-1v-1h1ZM610,49h2v1h-1v-1v1h-4v-1h1v-1h1v1ZM548,66l-2,1l-1,1h-1l-1,1h-1v-1h2v-1h1v-1h2ZM554,64h1v1h-1h1l-1,1h-3v1h-2v-1h3v-1h1h-1l-1,-1h2ZM519,71l1,1h1h-4v-1l1,1v-1ZM513,72h-1l1,-1h2v-1h2v1h-1l-1,1ZM503,73h1h-1l-1,1v-1l-1,1l1,-1v-1h1ZM496,74l-1,-1h1h-1l-1,-1h2v1h1h-1ZM483,72v1l-1,-1h2ZM471,73h-1l1,-1h1ZM448,68h2l1,1h-4l-1,-1h1ZM674,286h-1l-2,-1v-2l-1,-2l-1,-1l2,-2l-1,-2h1l1,1l4,1l1,1v1h1v1l1,1l-1,1l-4,2ZM659,268h4v1h-4ZM665,270h1l1,1h1l1,1l-1,1h-2l-1,-1v-1h-1l-1,-1l1,-1v1ZM654,266h1v1h1h-3v-1v1h-1v-1l-1,-1h1v-1h1l1,1ZM642,262h-2v-1h-2l2,-2h2v2ZM636,262h-1l1,-1ZM662,271v1l-1,-1v-1h1ZM934,251h-1v-1v1ZM935,259v-1ZM935,257h-1v-1ZM937,263l-1,-2v-2v2ZM933,251l-1,-1ZM942,272l-1,-2l-2,-3l-1,-3l1,3l2,4ZM847,195h-1ZM854,201h-1ZM859,205l-1,-1v-1v1ZM848,196l-1,-1h1ZM848,195l1,1l1,-1v1h-1v-1ZM857,201h1h-2v-1ZM768,104h1h-1v1ZM769,105h-1v-1h-1h1v1ZM772,107l1,1l-1,-1l1,1h1h-2v-1h-1v-1h-1h1v1ZM776,112h-1ZM776,111h1ZM775,110h-1v-1v1ZM770,105h-1ZM516,623h1l-1,1l-1,-1ZM526,602v-1l1,1ZM518,625v1ZM84,538v2l-1,-1h1ZM83,551v-2h-1v-1h1v-2h-1v1l-1,-1l1,-1v-2l1,-1l2,-1h2l1,-1h1l1,-1h2l-1,2v1h-1l-1,1v1l-1,1h-1v1h-1v1l-2,1l-1,1ZM78,550l2,-2v1l-1,1h-1v1ZM17,390v-1ZM18,387v-1ZM7,426v1v-2ZM11,409v-1ZM11,410v1ZM7,437v-1ZM7,426v-2ZM8,416h1ZM7,428v1ZM93,283v1l-1,1v1l-1,1v1l-1,1v-1l1,-1v-2h-1v-2l1,-2v-2l2,-2v-2l4,-6l2,-2v-1l4,-4h1v2l-1,1v1l-1,1l-3,6l-1,1l-2,4v1l-1,1l-1,2ZM90,270v1h-1ZM167,188v-1l1,-1ZM165,188l-1,1v-1ZM155,193v-1l1,-1h1v1h-1ZM171,170l-1,1l1,-1v-1ZM157,192v1ZM163,190v-1ZM165,178v1v-2ZM157,190h-1h1v-1ZM188,169h-1l1,-1ZM151,200v1v-2h1l2,-1h1h-1v1l-1,1h-1ZM306,519h-2v-1h1ZM366,544h-1l-1,-1h1v1ZM359,536h-1l-1,1h-1v-1h1l1,-1ZM315,547l-1,1l-2,-2h-2v-1l3,1l1,1ZM321,528v1h-1v-3h-1h1ZM302,525l-1,-1v-1h1v1ZM310,523l1,1h1l-1,1v-1h-2v-1ZM290,517l1,1v3l-2,-2v-1h-3v-1h1v-1l1,-1h1v2Z"/>
<path class="sl" d="M294,522v-1ZM293,521l-1,1l-1,-1v-1h2ZM288,522h-1l-1,-1v-1l1,-1l1,1h-1v1ZM282,515h-1v-1l-1,-1l1,-1l1,1h1l-1,1ZM281,517v1v-2ZM286,517h-1l-1,-1v-1l1,-1v1h1v1ZM275,508l-1,1l-1,-1h1v-1ZM290,522h-1ZM306,526l2,1h3l2,1h1v1h1v1l-1,1h-1l-2,-1h-4l-1,-1v-1l-1,-1v-1ZM307,519h-1l-1,-1l-2,-1l-1,-1h-1l-2,-1l-3,-3v-1h2l3,3h1l1,1l4,2l-1,1ZM288,510h-3l-2,-1l-2,-3l-1,-1h-1v-1h1l4,2v1l2,2h1v1ZM314,517l2,2v2h1v1l1,1v2l1,2l1,1h-1l-1,-2l-1,-1l-2,-1l-1,-1l-1,-3l1,-1l-1,-2ZM323,535h3l1,2l1,1h-4l-1,-1l-2,-1v-2h-2v-1h2l1,1h1ZM10,477l-1,1v-2h1ZM541,558h1v2h-3l-2,-2h2ZM548,563h-2l-1,-1h-1l-1,-1h4v1h1ZM285,123h-1ZM282,124h1ZM295,69l-1,1h-1l1,-1ZM363,48h-1h2ZM371,17h-1ZM417,8h2l1,-1h4l-1,1h-6v1h-7v1h-2v-1h4v-1h4ZM426,7h5v1h-6v-1ZM489,12h-1v-1h2l1,-1h1v1h-3ZM313,70l-2,2h-1v2h-1v1l-2,2v1h-1l-3,3v1h-1v2l-3,3v1l-1,2v1l-1,1v2h-1l1,1l-1,1v-3h-2l-1,1h-2l-2,2l-4,3l-2,2v1h-1v1l1,1h-1v2h1v1l-1,1v1h-1l-1,1v1v-1l1,-1v-1h-2v-1h-1v1h-1l-4,4v-1l1,-2l4,-4v-1l2,-2h1v-1h1l1,-2v-1l5,-5h1l2,-4h1v-1l1,-1h1v-1h1l1,-1v-1l1,-1h-1v-1h1v-1l2,-1v-1h1v-1l2,-1l3,-3h3v-1h1l1,-1v-2h2ZM495,10h3v1h1h-7v-1h2ZM426,62l-2,-1h1ZM438,13h-1ZM434,17h1v-1h-1h1l1,-1h1l-1,1h-1v1ZM436,5l-1,1l1,-1h1ZM388,16h-1ZM408,11h-1l1,-1h1h-1ZM410,10v1h-3l-1,1h-2l1,-1h4v-1ZM408,9h-1h2ZM399,12v-1h1v1ZM298,69h1h-2v1h-2v1v-1h-1h1l2,-2ZM459,14l-1,1l-1,-1h-1h4ZM414,47h-1h1l1,-1h1v-1h2l2,-1v1l-1,1h-3ZM420,61l-1,1v-1h-1v-1h-1l-1,-1h2v1h1v1ZM347,89h-1l2,-2v1h-1ZM359,82h-1l1,-1h1v1ZM355,84h-1l-1,1h-1v-1h2l2,-2h2l-1,1h-1ZM341,92h1v-1h1l-1,1ZM356,82h-1v-1h1ZM333,98v-1ZM325,102l-1,1h-1h1l2,-2h1ZM309,110h-2l2,-1h1l4,-2h1l-2,1h-1l-1,1h-1ZM302,112l-1,1h-1l-2,1l-1,1l-1,-1v1h-1l-2,1l-1,1l-2,1l2,-2h1l1,-1h1l1,-1h1l2,-2v1h2l2,-2h1v1h-1ZM287,122h-1h1v-1h1ZM287,118h1l-1,1h-1l-2,1l-3,3v-1l2,-1v-1h1l1,-1ZM83,315l2,2l1,-1v-1h1v1l-1,1v1l-1,3l-1,1v2h1v1h-1h1v1l-1,1v1l-2,3v1l-2,2v1h-1l-1,1v3l-1,1v1h-1v10l1,1l1,-1l-1,-1h1v-1l1,-1h1v1h1v2l-1,1v1h1v-1l1,-1v-1v1h2v1h-1v1h-1v1l1,1v2h-1h1v1h1l-1,2v2h-1v-2l1,-1h-2v-1h-1v-3l-1,-1v-2h-1v5l-1,1v-4l-2,-2v1h-1v1l-1,1h-1v-1v1l-1,-1h-1l1,-1v-2l1,-1l1,-2v-2h-1v3h-1v-3l-1,1v-2l1,-1v-2l1,-4v-1h-1h1v-3l1,1v1h1v-3l1,-1v-2l1,-1v-1l1,-2v-3l2,-4l1,-1v-2h1v-1h1Z"/>
<path class="sl" d="M50,403h-1h1v-3h1v-2l1,-1l1,-2l1,-1l3,-6v-1h1l1,-2v-1h1v-4l1,-1l1,-3v2l-1,1v5h-1v1h-1v2l-1,1h-1v2l-1,3l-1,1v1l-2,2v1l-1,1v1h-1v2h-1ZM74,371h2v1l1,-1v2l-1,1v1h-1v2h-1v1l-2,2h-1v1h-1l1,-1v-3l1,-1v-2l1,-3v-1h-1l1,-1l1,1ZM74,392h-1v-2h-1v-1l-1,-2v-1h1v-1h1l1,-1v-4l1,-1v-2l1,-1h2v1l-1,1v2l-1,1v2h-1v3l-1,1l1,2v2h-1ZM83,371v1h1v-1h1v3l-1,2l1,1v3h-1v1v-2l-1,2v1l-1,-1l1,-1v-5h-1v-5ZM88,361v2h1v1h-1v7h-1h1v1l-1,1h-1v-1l-1,-1v-3h1h-1v-2h-1v-5l1,1l1,-1ZM70,357h2v1v-1v1l1,1v1h-1v4h-1v2l-1,1v-1l-1,-1v-8ZM87,387v1l1,-1v5h-1v2h1v3l-1,2v1h1v4l-1,1v1l-1,2h-1v1v-1l-1,-1v-3l-1,1v1l-1,1v2l-1,1l1,1v6l-1,2l-1,1v-4l-1,1v1l-2,-1l-1,-1v-1l-1,-1v-5l1,-1v-2h1v-1l-1,-1v-1h-1v-1h-1v2l-1,2v-1h-1v-1l-1,1v-1l-1,-1l-1,1v1l-1,2v2l-1,1v1h-1v-2l1,-1v-1l1,-2v-1l1,-2v-1h1l1,-1h1v-2l3,-3h1v4l-1,1l2,-2h1v-3h2v-1l1,-2v-1h1v1l1,-1v-1l1,1v-1l1,-1v-5l2,2ZM75,388v1v-2l1,-2v-1l1,-1v-2l1,-1v-1l2,-4v-2h1l-1,1v4l-1,2v1h-1v1h-1v2l-1,3ZM87,312h-1v-1h1ZM86,308v1ZM90,300l1,-1ZM91,297v-1ZM62,419v1h1v1l-1,-1v1h-1v-1ZM48,408v-2h1ZM62,383v-1h1ZM65,369h1v-1v2h-1v-2ZM65,372l-1,1v-3h1v1ZM73,380v1v-2h1v-1v2ZM81,385h-1v1l-1,1h-1v-3l2,-2h1v2ZM58,427v1h-1v1h-1l1,-1v-1l1,-1ZM66,415v1v-2h-1h1v-1h2v1h-1v1ZM88,383v1v-2ZM86,383v-4l1,-1v1l-1,1v2ZM69,355v1l-1,-1l1,-1ZM75,355l1,1v1l-1,1l-1,-1h1ZM74,365l-1,2v-2h1v-2h1h-1v1ZM76,365l-1,-1h1ZM80,360v1v-1h-1v-2v2ZM81,363v1v-2ZM81,364v1l1,2l-1,1v1v-2h-1v-2h-1l-1,2v1v-2l1,-2v-1h1ZM86,353h-1v1l-1,-1l1,-2v-1l1,-1v3ZM77,351l-1,-1h1ZM78,343v3h-1l1,-1h-1l1,-1h-1ZM81,378v-1ZM84,382v1v-2ZM71,406v1h-1v-1ZM83,407v1v-2h1ZM83,370v-1l1,1ZM81,390h-1l1,-1ZM84,311v-1ZM64,374v1h-1v-1ZM79,373v1ZM75,364v-1ZM87,385v-1ZM85,369v1l-1,-1v-1h1ZM50,404l-1,1v-1ZM76,390v1h-1v-1ZM252,489l-1,1v-1h-1v-2h-1l1,-1v-1l-1,-1v-1l-2,-3h-1v-1h-2l-3,-3h-1v-1l-3,-1l-1,-1h-1v-1h1l2,1v1h2l1,1h1l2,2h1v1l2,1l6,6v1l-1,1v1ZM244,486l1,-1l1,1h1v2l1,1l-1,1v1l-1,1h-1v2l1,1l-1,1v1h-4v2l-1,1h-1l-2,2h-1v1h-1l-1,1h-5v1h-1v-1l-1,-1h-3l-2,-1l-1,-1h-2l-1,-1v-1l1,-1h5l1,1l1,-1h3l1,-1v-4h1v5h1l1,-1h4v-2l1,-1v-1l2,-1h1l1,-1v-2l-1,-2v-2h2v1ZM171,535h-1v-9l-1,-2v-9h-1v-16l-1,-2v-19h1l3,2h2l4,2l3,1h4l1,2h1v1h5v2h2l1,1v1h1l5,4v5l1,1h2l1,1l5,2h3l2,2v1h1v3h-1l-2,1h-2l-1,1v1l1,2l2,2v1h1l3,3h1l1,1v1l1,1v2l2,1l1,2v1h5v4h5v1h1l-1,1h-1v1h1v1h2l1,1h4l-1,1h-2l1,1h1v1l-1,1h-3l-2,-2h-3l-3,-1h-9l-2,-2v-1l-1,-1h-1l-1,-2h-1l-1,-1v-1l1,-1l-1,1l-3,-3v-1l-2,-2v-1l-2,-2h-1l-1,-1h-5v-1h-1v-1h-3v1h-1v1h-1l-1,-1h-1v-1h-1v-1v1l2,3v1l-1,-1l1,1h-3l1,1v1h-1l-1,1h-5v1h-1v-2l-1,1h1v1h5v1h1v1l1,1v2h-1l-3,3h-2l-1,-1l-2,1h-5Z"/>
<path class="sl" d="M216,501v1v-1h-1l-1,-1v-1h1l1,1ZM201,493h-1v-1h1v-1v1h1ZM249,475v1h-1v-1ZM245,474v1h-1v-2ZM227,463v1v-1v1l-1,-1v-1h1ZM241,536l1,-1v2h-2v-1h-1v-1l-1,-1h1ZM235,532l-2,-1v-1h2v1ZM240,525v1v-2l-1,-1l1,-1v2ZM266,546v1h-2v-1h1ZM187,527h-2l2,-1ZM210,499h-1v-3l1,1v1ZM208,468l2,1v-1l1,1h-1l-1,1h-3l-1,1h-1v-1h1v-1h1v-1ZM232,473h-2v-1l-1,-1l1,-1h1l1,1v1ZM236,531h2l1,1v1h-3v-1ZM251,526h2v1h1v1h-2v-1h-1ZM260,548h2l-1,1h-1l-1,-1h-1h1l-1,-1v-1v1ZM187,529h-1l-2,-2h1l1,1ZM214,471h-1v-1ZM244,473h-1v-1h1ZM240,541v1h-1v-1ZM257,483v1l-1,-1ZM275,505v1v-1l-1,1h-3v-1h-1v-2l-4,-4v-1l-1,-1l1,-2l-1,-1l1,1h2v1l1,1v1h1l1,1v1l1,1h2v1l1,1v1ZM265,494v1l-1,-2v-2h1v2ZM108,437v-1ZM130,397v-2l1,-1l-1,2ZM173,159v1v-1h1ZM437,783h1l2,-2h1l1,-1v1h-1v2h1v-2h2l-1,1v1h-1h1l1,-1h1l-1,1h-1v2h1l-1,1h1v1l-1,1v1h-1v1l-1,2h-1v2l-2,2h-1l-1,1h-1v1h1h-1v1h2v1h2v2h-1l-1,-1h-3v1l-2,-2v1h1v1h-1v1h-2l-1,1h-1v5h-1h1v2h-1v5h-2l-1,1v1l-2,2l-2,1h-6v-1h-1v-1h-2l-1,-1h-2v1h-3l-1,-1l1,-1h-2v-1v1h-1v-1h2v-1h1h-2v-1h1h-1v-1h1h-1v-1l1,1h1v-1h-1v-1h1l-1,-1h1l1,-1v1v-2h1l1,-1v1v-1l1,-1v-1l2,-2h2l1,-1h1v-1l2,-1h1v-1h1h-1l1,-1h1v-1h1v-1h2v-1v1v-1h1v-1h1v1v-1l1,-2v-4l1,-1h1v-1h1v-1l1,-1v-3l1,-2l1,-1h1l1,-1l1,1h-2v1l1,1h1l1,1v1ZM441,780h-1h1v-1h1ZM403,815h-1ZM404,811v1h-1ZM413,823h1v1h-1l-1,1h-1v-3h1ZM449,746h-1l-1,-1l1,-1v1ZM432,736h1v-1v1h2v1h1v-1l1,1h1v2h1v-1l2,2v1l1,1h-2l4,4l-1,1h1l-1,1h1v2h-1h1l1,1v-1l1,1h2v2h1l1,-1h-1v-3h-1v-2l2,2h1v1l1,1v2l1,2h1v1l-1,-1v1h2l2,1l1,1l3,1h1l1,-1h1v-1l1,-1h1v-1h2l1,1h1v1l-1,1v5h-1v1h-1v4h-1v-1h-5v1l-1,1v1l1,1h1l-2,4l-1,1v1l-1,1h-1v2l-1,1v1h-1l-3,3h-2v-1h-2v-1h-2l2,-2v-1l1,-2v-1l1,-1l-1,-1v-1l-1,-1h-2l-1,-1h-1l-1,-1h-1l-2,-1h-1v-3h2l1,-1h1l1,-1v-4l1,-1v-2l1,-1h-1l-1,-2v-1l-1,-1v-1l1,1v-1h1l-1,-1h-2l-1,-1v-1l-1,-1h1v-2l-1,-1v1l-2,-1v-1l-1,-1v1l2,2v1h-1v-2l-5,-5h1v-1h1h-1l-1,1l-2,-2v-2l-4,-4h3l-1,1h1v1l1,1ZM428,858v1h-1v-1ZM410,848v1h-1v-1h-1v1v-1h1v-1h-1h1v1ZM506,800l-1,1v-1h-1v1h1v1h-1v1l-1,-1l1,-1l-1,-1l-1,1v-1h2ZM506,804v-1ZM560,606v1l-1,-1l1,-1l1,1ZM639,627v-1h1v1ZM939,299h-1v-1ZM933,318v-1ZM916,269l-1,-1h1Z"/>
<path class="sl" d="M893,236h-1l-1,-2l-2,-2h1v1h1v1h1v1ZM889,242h1l-1,-1v-1l-1,-1v1l1,1ZM896,237l1,2l-1,-1l-1,-2v-1v1h1ZM875,233l-2,-2h1v1ZM972,337v-1ZM921,276v-1l-1,-1ZM877,216v-1ZM911,260v2l-1,-2ZM914,272v1l-1,-2ZM913,271l-1,-1v-1h-1v-1l-1,-3v1l1,2v1h1v2ZM7,437v-2h1v6h1v-5l1,1v18l-1,1v9l1,1v10h-1v1v-1l-2,-4v-4h-1v-20l1,-4v-6ZM47,439l-1,-1h-3v1h-2v1l-1,1v6l-1,1v3h-1v5l-1,1v1l-1,1l1,1v1h-1v4h-1l-2,2v1h-1l-1,-1v-1h-2v1l-1,1v3l-1,1h-2v1l-1,1h-1v-2h-1v-5h-1v-1l1,-1v2l1,1v-1l1,1h1v1h1h-1v-2l1,-1v-6h1v-4l2,-1l2,-2v-1l1,-2v-2l1,-1l1,-3l1,-2v-3h1v3h1v1v-1l1,-1v-5l1,-1v1v-1l1,-1v-1h1v-1h-1v-2l1,-1v-1v1h1v-2l1,-1v-3l2,-3v-1l1,-3v-1l1,1l-1,1v2l1,-1v-2l1,-1v3h1v5l-1,1l2,-2v2l-1,1h1l1,-1l1,1v1l1,1h1v2h-1v1l-1,1h-2v3l1,1v1l-1,1h-1v1h-1v-1l-1,1ZM10,465v-1ZM6,446v-1ZM7,437v1ZM48,414v-1ZM6,465v1ZM26,460v-1ZM48,438v1h-1v-1ZM413,415h-1h1v-1h1v1ZM415,425h-1v-1v1ZM415,426h-1h1v-1ZM415,432v1l-1,1l1,-1v-1h-1ZM428,448h-1v-2h-1h1v1ZM430,451v1v-1h-1ZM415,429h1ZM543,480v-1ZM553,468v-1ZM688,480h1ZM710,545v1ZM681,493h-1ZM669,428l2,1h-1l-1,-1l-2,-1h1l1,1v-1l-1,-1h1l1,1ZM653,409v1h-1h1v-1h-1v1v-1ZM548,464v1h-1h1v-1h-1v1v-1ZM193,175v1v-1h1ZM223,162v-1h1h-1l1,-1l2,-1l-2,2ZM193,187v1h-1v-1h1l1,-1ZM159,218h-1v-1h1ZM161,217h-1l2,-2v-1h1l-2,2ZM163,205v-1l2,-2v1l-1,1ZM167,192v-1h1ZM168,190v1v-1l2,-2v1h-1v1ZM159,202h1l-1,1ZM165,203l1,-1v1ZM266,116h-1l1,-1ZM266,117h-1l1,-1ZM245,135v-1h1ZM191,186v1v-1h1ZM218,181l-1,1v-1ZM161,201v-1l1,-1v1ZM164,198v1v-1l1,-1v1ZM168,194l-1,1v-1ZM182,190h-1ZM180,191v1h-1v-1ZM160,209h-1l1,-1ZM209,237v-1ZM274,121h1l2,1h1l2,-2l2,-1v1l-1,1l-2,1v2l-1,1h2v-1h1v1h-2v1h-2l-1,1h-4l-2,1l-1,1l-2,1l-2,2h-1v1h-1v1v-1h-1l-2,-1l-1,-1h-3l-3,2v-1h-2l-1,1v1h1l1,1v1h-3l-1,1v1h-2v1l-1,-1h1v-1l2,-2v-2l1,-1v-1h2l2,-2h1v-2h1l1,1h2l2,-2v-1l1,-1l2,-1l1,-2h1l2,-2v-3h1l1,-1h1v-1h1v4h1v2h1ZM173,194h3l-2,2h1v2h-1h1l-4,4v1l-1,1h-1v1l-1,1v2l-2,2l-1,-1l-1,1v1l-2,2v-1l1,-1v-1l1,-1v-1l-2,2v2l-1,-1h-1l1,-1h1v-3l1,-1v-1h1l2,-2l1,-2l1,-1v-2h-1v1l-1,1h1l-1,1h-1l-1,1h-1h1v-2l1,-1v1v-3h2v-1h1v-1h2l1,-1v-1h1l1,-1v1ZM191,188h1l-1,1v1l-1,1l-2,1v1h-1v1l-1,1v-1l-1,-1h-1l-6,6h-1l1,-1h-1v-1h1v-2l-2,1l2,-2l2,-1l3,-3l1,1v-1h2l1,-1v-1h1l1,-1h1Z"/>
<path class="sl" d="M251,138h1l-1,1v1l-2,2v1l1,2l-1,1v2h-1v1l-2,2v1h-1v1h-2v1l-1,1v1h-1l-1,1h-1l-2,1v2h-1v1l-2,4l-1,1h-1v1h-1l-1,2l-1,1v1h-1v3h1l-2,1l-1,1h-1v1l-2,2h-1l-1,1h-1l2,-2v-1h1v-1h1v-1h-2v1l-1,1v1h-1v1v-1h-2v1h-1v1l-2,2h-1v1v-1l1,-1v-1h1v-1h-1l-2,2h-1v1l-1,1h-5l-1,1l2,-1v-1h-1v1h-1l1,-1h-1v1v-2h1h-1l-2,2v2h1h-1v1h-2l-5,5l-2,1h-1v-3l1,-1v-1l1,-1h1v-1h1v-1l-1,1h-1l-1,-1h-1l-1,1h-1l-1,1h-1l-1,1h-1l-1,1h-1l-2,1h-1v-1l-1,1l-1,2h-1v1h-1v-1h-2l-1,1h-1l1,-2v-1h2l2,-2h1l3,-3h1l3,-3h1l1,-1h4l2,-1l1,-1h2l2,-1v2h2v-1h1l1,-1h1v-2l1,-1h1v-1l1,-1l2,-1l1,-1l1,-2l3,-3h1l1,-1v1l-2,1l-1,1h-1l1,1h-1v1h1l6,-3h1l3,-3h1v-1l1,-1l2,-1h1l1,-1v-1h1l1,-1v-1h1l1,-1v-1l2,-1v-1h1v-1h1v-1l1,-1v-1h-1h1v-1l1,-1h1v-2l1,-1h1v-1h1l2,-2h1l-1,1v1h1v-1h2l1,-1v-1h-1l-1,1v-1l1,-1h1ZM112,266l-1,1v-1l1,-1ZM110,268h-1v-1h1ZM117,263v-1ZM136,246l-1,1h-1v1h-1v1l-1,1v1h-1v-1h1v-1l2,-2v-1h1v1v-1l1,-1h1ZM143,238h-1v-1h1v-1v1ZM146,234v1l-1,-1l2,-2h1v-1v1l-1,1ZM145,235v-1ZM214,193v-1ZM2,482v1ZM3,509v-1ZM48,550l-1,2l1,1h-3v-1h1v-1l-1,-2l1,-1v-1l1,1h1ZM43,548l1,1v2l-1,1v1v-1h-1v-1h-1v-1h-1v-2h2v-1h1ZM13,501h1v6l1,1v4h-1v-2l-1,-1v-4h-1v-5l1,1v1v-2ZM70,509v2h-1v4h1v2h-1v2h-1v-6l1,-1l-1,-2l1,-2ZM68,516v1h-2l1,-2v-1l-1,-1v-1l2,-2v5ZM19,452v1v-2ZM19,510v1h-1v1v-1v1h-1v1v-7l1,1l1,2ZM132,465h1l1,1v-1h1l1,2l1,1h1l-1,1h-3v-3l-1,1l-1,-1ZM132,473h5l1,1h2l-1,1h-3l-1,-1h-3ZM106,463h1l1,1h1l-1,1h1l-1,1h-1l-2,-2v1l1,1v1h-1v-1l-1,1v-1h-1v-2h2v-1ZM94,447l-1,1v-4l1,-1h1v3ZM92,480h-2l-1,1l-1,-1l1,-1v-1l1,-1v1h1l1,1ZM82,488v1v-1l-1,-1v-3l1,1v1ZM82,483h1l-4,2v-2h1ZM77,483h1v1l-1,1h-1l-1,1h-1v-3h1ZM112,532h-1v-3l1,-1v-2h1v-2h1v1l-1,1l1,1v2h-1v2ZM89,533v1h-1v2h-3v1l-1,-1l1,-1v-1h2v-1l1,-1ZM79,539v1l1,-1h2v1l-3,2h-1v-1h1l-1,-1ZM107,474v1h-1v-2h-1v-1l1,-1h1v2ZM3,451v-1h1v18h1v4l1,1v4l1,1v5h1v4l-1,1h1v-3h1v6h-1h1l-1,1l1,1v4h1v5l1,1v5h2l1,3v15l1,1v9l-1,-1v2h-1v-1v2l-1,-1v-2l-1,-2v-1l-1,-1v-2l-1,-1l-1,-2v-4l-1,-2v-2l-1,-2v-2l-1,-2v-9l-1,-1v-10h-1v-14l-1,-2v-22l1,-2v-2ZM72,545h-1v1h-2v1l-1,1h-2v1h-2l-1,-1l-1,1h-2l-1,-1v-2h1v-1l1,-1h3v1h1l1,1l1,-1h1v-1l1,1h1v-2h1l1,-1v-1h-1v-1h1v4Z"/>
<path class="sl" d="M61,554l1,1v1h2v1l1,1v3h-2l-1,-1v-1h-1l-1,-1h-2v-1h-1v-2h1v-1h2l1,-1ZM53,546v1l1,-1h1v1v-1h1v2h1v1h-1l-1,1h1h-1v1h-1v-2v2h-1l-2,2h-1v1h-1v-1h-1v-4h1v-1h2v1l1,1h1v-2h-1v-1l-1,-1v-1h2ZM76,460l-1,1v2l-1,1v1h-1v1l-2,1h-2l-1,-1h-3l-1,1h-3l-2,1h-2l-1,1v2l-1,1v5l1,1v2l1,1l1,2v1h1l1,-1v-2l1,-2l1,-1v1h1l2,-2h2v-1l1,-1h1l1,1l-1,2v1v-1h-1v-1l-1,1v1l-1,1v2l-1,1v1h-1l-1,2l-1,1v1l-1,-1v1l1,1v1h1v1l1,2v2l1,1v1l1,1l-1,1v3l2,2v2h1v-1v4h-1l-1,1h-1v3h-2v-6l-2,-2l-1,-2v-8h-2v1l-1,1v4l1,3v13l1,2v2l-1,-1v1h-1v1h-1l-1,-1v-13l-1,-2v-3h-1v1h-1l-1,-1v-7h1v-5l1,-1v-9l1,-2l1,1l-1,-1v-6l1,-1l-1,-1l1,-2v-2l1,-1v-2l1,1h1v-3l1,-1v-1h1v1h1v1h5l1,1l1,-1h4l2,-4h1v-2h1v-1l1,-1v-1l1,1v1l-1,1v3ZM19,537v2l1,-1v1h1v-1v1l1,1v2l1,1v-1l1,1v-1h3v-5h1l1,2v-1h1v1h1v1h2v2l1,1v2l1,1h1l2,-2l2,2v6l1,1v1l-1,-1h-1l-1,-1l-2,-1l-1,1h-2l-2,1h-2v-1l-2,-1l-1,-1h-3v1h-2v-1h-3v-3l-1,-1h-2v-1v1h1v-8h2v-1ZM22,465l-1,1v1h1v5h1v2h1l1,-1v-1h2l1,-1v-3l1,-1v-1h2v1l1,1h1v-1l2,-2h1v-4h1v-1l-1,-1l1,-1v-1l1,-1v-5h1v-3l1,-1v-6l1,-1v-1h2v-1h3l1,1v3h1v1h-2v1h-1l1,2v2h1v1l-1,1h1v3l1,1v2l-1,1v1l2,4l2,2v2l-1,1h-2v-1l-1,-1v3l-1,4v1l-1,4v1l1,2v2l-2,2v2h-1v-1v3l-1,1v2l-1,1h1v3l1,1v2h-1v1v3h-1l1,1v1l-1,1v3l-4,6v-4l-1,-2v-1v1h-1v-1l1,-1l-2,2v1l-1,-1v-1h-1l-1,-2v3l-1,1h-1v1l-1,1v-5h-1v1v-1l-1,1v1h-1v-1v1l-1,-1v1l-1,-1v-8h-1v-2h1v-1l-1,-2v-3h-1v-1v1v-1h-1v-1h1v-1h-1v-19l1,-1v-2ZM90,458v1l1,-1v-1l1,-1v-3l1,-1h1l1,-1v5l-1,1h-1v3h1l1,1v1h1v1l-2,-1h-2v-1h-1v7l2,4v1l-1,-1h-1v-3h-1v-6h-1v-5l-1,-2v-1l1,-2v-2l1,-1v-1l1,-2l1,-1v1l-1,2v7l-1,1h-1v1ZM101,489l1,1h1l1,-1l1,2l1,1v1l1,1v3l-2,-1l-1,-1l-2,-1v-1h-2v1h-3v-1h-1l-1,1v1h-1l-1,-2h-1v3h-1l1,-1l-1,-1l1,-3l1,-1h3v-1h1v1h1v-1h1v-1h1ZM86,493l1,1v1h1v3l-1,1h-1v1l-1,-1h-1l-2,-2v-3h1l2,-1ZM81,546l1,1v-1h1v2h-1v1h1v3l-1,1v1l-1,1v2h-1l-2,2h-1v-8l1,-1v1v-1h1l1,-1v-2h1ZM130,510v5h-2l-1,-1v-1h-1h1v-3l1,-2v-1h1v2ZM129,516v1l-1,1v2h-1l-1,-1l1,-2v-1l-1,-1v-1h1l1,1v1ZM154,529l-1,1h-3l-1,1v-1l2,-6v-1h1v-1l2,-1h1l1,1v1l1,1l-1,1v2l-1,1ZM167,478v19l1,2v16h1v9l1,2v9h1l-8,-8l1,-1v-1v1l-1,1h-3v1h-1v-2l-1,1l-1,2v-1h-1v-1l1,-1v-4h-1v-1l-1,-1l1,-1l1,1v-1h-2v-1l-1,-1l1,-1l-1,-1v-1l-2,-2v-2l-1,-1v-1h1h-2l1,-1h-1l-1,-1h1l-3,-3l-2,-1l-1,-1h-2l-2,-1h-1l-1,-1h-1l-1,-1h-4l-3,-2l-1,-1l1,-1h1h-1l-1,1l-1,-1l-1,1v-1h-1v-1v1h-1v-1l-2,-2v-2l1,-1v-1l-1,1v3h-1h1l-1,1v3l-1,1v1h-2v-2l-1,-1l1,-2v-1l-3,-3h-2v-2l1,-1h2v1h1l1,-1v-2h1v-1h1l1,1h1v1v-2h1v-3l-1,1h-3l-1,1h-4l-1,-1v-1h-1v-3h-1l-2,-1h-1v1l-1,-1v-1l1,-1v-3l1,-1l2,-1h1v-1h1v-1l1,-1h3l2,2h5v3l1,1v4h-1v1l1,2v2l1,3l1,2v-3h1v4l1,-1v3l1,1h2l2,-2l1,-2v-1l1,-1l1,-2v-1l1,-1v-1h1l2,-1l1,-1h1v-1l-1,-1h1l1,-1l1,-2h1l1,-1l1,1l4,2l1,1h2v1l4,2l2,-1l1,1h3v1Z"/>
<path class="sl" d="M157,530h-2v-2h1l1,1ZM6,473v1v-2ZM7,481v1v-2ZM7,477v1v-2ZM8,483h-1v-2h1v1ZM8,482v-1h-1l1,-1v1ZM8,484v1v-2ZM9,483l-1,-1h1ZM10,478v2h-1v-1h1ZM11,477v3l-1,1v-3ZM11,489v1v-1l-1,1v-2h1ZM10,491v1v-1v1ZM9,492v-1ZM22,493l-1,1v-3h1v1ZM37,540h-1v1l-1,1h-1v-1h-1v-1l1,-1l3,-1v1ZM129,469v1l-1,-1v-1h1ZM87,470v1v-3l1,1h-1l1,1ZM89,469l1,1l-1,1l1,1h1v1h-2v-1v1l-1,-1h1l-1,-1v-2ZM119,513v-2l1,-1v-2v3ZM119,512l-1,1v-2ZM93,497v1v-1l-1,1v-1h1v-1h1h-1ZM86,432v-5h1v3ZM81,438h-1v-1v1ZM110,535v1v-1l1,-2h1l-1,1ZM104,533v1l-1,-1v-1h1ZM94,536h2v1h-2ZM104,478v3h-1l-1,1v-1h-1l-1,-1l2,-1h1v-1ZM9,538v-1ZM5,520v1v-2ZM5,516v1h-1v-3ZM4,513v-1ZM2,499v-2ZM1,476v-1ZM65,518v-1h-1v-1h1v-1v1ZM69,480v2v-2h1v2l-1,1v-1v2l-1,-1h1l-1,-2v2l-1,1v-4h1ZM63,474v1h-1v1v-1h1ZM60,527v-1h-1v-4l1,1v1ZM42,537l-1,1v-2h1ZM42,510v-1h-1v-4l1,-1v5ZM75,564v1v-2l1,-1v-2l1,1v1l-1,1ZM78,541v2h-1v-1h-1l2,-2ZM76,541l-1,1v1l-1,1h-1l1,-1v-2h1v-1h1ZM74,542l-2,1v-1h1v-1h1ZM130,517v-1ZM9,480h-1v-1h1ZM9,482v-1ZM10,481v-1ZM11,487h-1v-1ZM14,459v-1ZM13,462v-1ZM20,458v1v-2ZM20,497v1l-1,-1ZM17,510v-1ZM16,512h-1v-1h1ZM39,540h-1v-1ZM32,530v-1ZM15,545v-1ZM2,477v1v-2ZM3,447v-1ZM71,484h-1v-1h1ZM70,505l-1,1v1v-3h1ZM72,486h-1v-1ZM69,486h-1v-1ZM58,549v-1ZM56,545v-1ZM44,553v-1ZM47,439h1v-1v2ZM47,446v1v-2ZM75,521h-1v-1ZM72,515v1ZM62,534h-1v-1h1ZM51,547h-1v-1l1,-1v1ZM43,506v2l-1,-1v-1ZM88,459v1ZM126,479v-1ZM122,498l-1,-1ZM106,470v1h-2l1,-1ZM105,468h-1v-1h1ZM99,466v-1h-1v-1l1,1ZM88,466v-1ZM88,460v1ZM88,473h-1v-1h1ZM96,496h-1v-1ZM95,496l-1,1v-1ZM86,433v-1ZM86,434v-1ZM79,445v-1ZM115,525v-1h-1h1ZM98,527v1l-1,-1v-1h1ZM92,532v-1ZM76,559v-2l1,1h-1ZM70,563v-2h1v1ZM131,516h-1v-1h1ZM130,519v-1ZM92,491l-1,1v-1ZM90,495l-1,-1h1ZM72,544v1v-2h1v1ZM4,436v1Z"/>
<path class="sp" d="M4,439v-2"/>
<path class="sl" d="M708,591l-1,-1h1ZM719,599h-1v-1h1ZM708,592h-1v-1h1ZM722,600l1,1h1l-1,1h-1v-1h-2v-2h2ZM804,537l1,1h1h-3ZM804,539l-1,1v-1ZM806,544v1ZM798,530h-1v-2l1,1ZM797,534l1,-1ZM782,606v-1h1h-1ZM801,530h1ZM782,611h-1v-1ZM781,609v-1ZM810,615l-1,-1h1ZM806,613v-1ZM792,633v-1ZM766,594v1v-1h-1ZM765,594h-1ZM756,587h-1v-1ZM752,591v-1l-1,-1v-1v1l1,1ZM350,619h2l1,1l3,2h2v1h1v1h1v1h1l1,1v1h2v1h2l4,4h1l1,1h1l1,2h-1v1h-1l-2,-1h-1v-1h-1l-2,-2h-2l-1,-1h-1l-2,-2h-1l-3,-3l-2,-1l-1,-1v-1h-1l-2,-2v-2h-1v-1ZM378,638h-1v-1h1ZM316,612v-2l1,1ZM381,627v1h1v1h-2v-1l-1,-1h1ZM369,622h-1l1,-1v-2l1,1h-1v1ZM376,625h-2l-1,-1v-1l1,-1h-1l1,-1l1,1v1l1,1ZM476,581l-3,3v2l2,-2h1h-1v1l1,1h-5l-1,-1l-2,1v1h-1l-1,1h-1v-2h-1v-1h2l1,-1h1l1,-1h2l1,-1v-1h3ZM462,591v1h1l2,2v4h-3l-1,1h-3l-1,-1h-2l-1,-1v-2h1v-1l3,-3h3ZM476,587v1v-2l1,-1l1,1l-1,1ZM476,588h-1l1,-1v-1v1ZM464,605l-1,1v-1h-1v1h-1v-1h2ZM485,596h-1ZM487,598v1l-1,-1ZM491,596h-1v-1h1ZM485,590v1v-2h-1h1ZM489,606h-1ZM478,605v-1ZM453,589v1v-1h1ZM472,591h-1v-1h1ZM471,597h-1v-1h1ZM467,594h-1v-1h1ZM477,584h-1l1,-1ZM477,581h-1v-1h1ZM451,549h-1ZM434,628h-1ZM999,503v-1ZM1000,506h-1v-1h1v-1v1ZM999,500l-1,-1v-1h1v1ZM999,508v-1ZM999,495v1v-1h-1ZM999,499v1v-2ZM89,271h-1h1v-1ZM127,216h-1v-2h1v1ZM123,227l-1,-1l1,-1v1ZM121,229v-1ZM98,262l-1,1v-1l1,-1ZM55,305v-1ZM112,241h-1h1v-1ZM69,288v-1ZM63,298v-1h1h-1ZM63,298h-1ZM53,313v2l-1,1l-1,3h-1v1l-1,1v2l-1,1v1l-2,2v1h-2v-3l1,-1l1,-3v-1l2,-2v-1l1,-1h-1h1v-1h1v-1h1l2,-2ZM67,293v-1ZM69,290h1v-1v2h-1ZM69,292v-1ZM68,292l1,-1v1ZM705,73h2l1,1h1l-1,1h1v-1h-1v-1h1v1h1v1h1l1,1v1h-2l-1,-1h1h-1l-1,-1h-1l-1,-1h-1v-1h-1v-1v1ZM713,77l1,1h1v1h-1h2l2,2h1v1h1h-1l-1,-1h-1l-1,-1l-2,-1h-1v-1h-2v-1h1ZM743,92l2,1h2l2,1h1l1,1h1l3,3h1l1,1h1l1,1h1l1,1h2l3,3h1l1,1h-1h1v1h-1l-1,-1h-1l-1,-1h-2l-1,-1h-1v-1h-1v-1h-2l-1,-1h-1v-1h-2v-1h-1v1v-1h-1v-1h1h-2l-1,-1h-1l-1,-1v1v-1h-1v-1h-1v1v-1h-2l-2,-2h1l1,1l-1,-1h-2l-1,-1h-1v-1h1l1,1ZM602,11h1h-1v-1h-1ZM598,10h3l1,1h1h-1l-1,-1h-4l-1,-1h1h-1h1Z"/>
<path class="sp" d="M599,10h2l1,1M594,9h3l1,1"/>
<path class="sl" d="M621,15h-1l-1,-1h-1h1l1,1ZM613,13h1h-1h1h-3l-1,-1h-1h1h-1h1l1,1h1ZM609,12h-1ZM606,11h-1h1l1,1Z"/>
<path class="sp" d="M617,14h2l1,1h1M609,12h1l1,1h2M607,12h2M604,11h2l1,1"/>
<path class="sl" d="M669,29h-2l-1,-1l1,1h1h-3l-1,-1h-2v-1h-3v-1h-4v-1h-3v-1h-3l-1,-1h-1h3l1,1h1l-3,-1h-2v-1h-4l-3,-1h-1v-1h1h-1h1h-4v-1h-3l-1,-1h-3v-1h-2v-1l1,1h3v1h1h-1h2l2,1h3v1v-1v1v-1h-3l-1,-1l1,1h3l1,1h2l1,1h2l1,1h2l1,1h3l1,1h2l1,1h2l1,1h2l1,1h3l1,1h1l1,1h1Z"/>
<path class="sp" d="M634,18l1,1h3l1,1h2l1,1h2l1,1h2l1,1h3l1,1h2l1,1h2l1,1h2l1,1h3l1,1h1l1,1h2"/>
<path class="sl" d="M615,14h4l1,1h3l1,1h2v1h2l1,1h1l2,1h-1h1h-1h1h-2l-2,-1h-2v-1h-4l-1,-1h-2l-1,-1h-2l-1,-1h-2l-1,-1h-2l-2,-1h-1h3v1h4ZM607,12h-1v-1h-1h1ZM710,72h-1v-1h1ZM722,83h-1ZM715,75h-1v-1v1l-1,-1h1ZM720,78l-2,-1h-1l-1,-1h1l1,1h1ZM709,71v-1h1v1ZM726,80l3,3h-1v-1h-1v-1h-2v-1h-1v-1h-1v-1v1h2ZM753,99h1ZM759,99h-1v-1h-2v-1l1,1h1ZM750,97h-2v-1h1v1ZM753,96l-2,-2h1v1h1ZM727,82l-1,-1h-1l-1,-1h1l1,1ZM736,87h-1l-1,-1h1v1ZM729,83v-1h-1v-1l1,1ZM723,79h-1l-1,-1h1ZM723,79h-1v-1ZM766,103v1v-1h-1l-1,-1l1,1ZM765,103l-2,-2l2,1ZM754,96l-1,-1ZM602,11l-1,-1Z"/>
<path class="sp" d="M674,31v0"/>
<path class="sl" d="M680,34l-1,-1h-1h1ZM674,31v1h1h-1ZM682,35h1ZM674,31h-1ZM608,18h-1ZM17,392v1v-1h1ZM11,400v1ZM10,409h-1h1v-1ZM12,396v-2l1,-1v1l-1,1ZM13,392v-1ZM13,393v2h-1l1,-1ZM14,386v1v-2ZM13,390v-1h1h-1ZM22,356v-1ZM12,400v-1ZM12,394v1v-1l1,-1v1ZM14,388l-1,1ZM15,382v1v-2ZM19,362v1Z"/>
<path class="sp" d="M19,363v-1"/>
<path class="sl" d="M39,435v1ZM39,435l-1,1v5l-1,1v1v-1h-1v-3h-1h1v-1h1v-2h1v-1l1,-1ZM188,558v3h1v1l1,1v1l1,1v2l1,2v4l1,1v1l1,1l1,2l1,1l2,-2h2l1,2l2,1l1,1h1l1,1v5l1,2v1l1,2v2l1,1v1h1v1l2,2h1v1l2,5v4l1,1l1,2h1v3l2,2h1l1,1h2l1,1h2l1,2l1,1h1l1,1h2l1,1h2l1,2h1v1h-1v1l3,3l2,1v2l2,2v2l2,4h1v1h1l1,1h1l-1,-2v-1h1l3,3h1l-1,-1v-1h1l2,4v3l1,2l3,3l2,1h2l2,2l1,2l2,2h1l1,1v1h1v2h2l1,1v2l1,1v1h1v1l1,2l1,6v2l1,1l2,3l1,1v1l2,2v2l1,1v3l-1,2l1,2v10l1,1v7l-1,3l1,1v2l-1,1v1h-1h1h-1l-1,1v1l-1,1v4h-1l1,1v2h-1h1v1l-1,1v5l1,1h-1v1h1l-1,1v3l-1,1v2l1,1v2l1,1v4l1,1v2h1l-3,3h-6l-1,1h-1l-1,1l-2,5l-3,1h-1l1,1h1l1,1v1h-1l-2,-2h-1l-1,-1h-2l-1,-1v-1h1l-1,-1h-1v1l-1,1h-1l-1,-1h1v-3h-2l-2,2h2v1h-1l-1,1l-1,2v1h-3l-1,-1h-1l-2,-1l-1,-1h-1v1l-2,-1h-1v1h-1l-4,-2h-2l-3,-3l-3,-2h-1v-1l-1,-1v-3l-4,-4h-1l-3,-3h-1h1v-1l1,1l-1,-1v-1h-1v1l-1,1h-1l-1,1l-1,-1v-4l-1,-2l-4,-4v2l1,2v3h-1l-1,1h-2v-2h2v-2l-1,-1v-1h-1v-2l-1,-2l1,-2v-1l-1,-1v-1l-1,-1l1,-1l-3,-3v1l1,1v1l-1,1v2l1,2l-1,1h-1v1h-1v6l-1,1h1l1,2l-1,-1l-1,1l-3,-3l-1,1v-1h1l1,1v-1l-2,-2v-1l-2,-2h-1l-1,-2l-3,-3h-2l-1,-1l-1,-2v-1l-2,-1l-2,-2h-1l-1,1l-3,-2h-1l-1,1h-1l-3,-2l-2,-1h-2l-1,1h-3l-2,1h-2l-1,1l-1,2l-2,2l-2,1v1h-4l-2,2v1h-1v3l-1,1h-1v1l1,3v4h-3l-2,1v-1h-1l-1,1h-3v1h-1l-1,1h-1v1l1,2v1h-1v5h-1v1h-4l-2,-1h-1l-2,-2l-2,-1h-1v-1l-1,-1l-2,-4v1h1v-2l-1,-2v-1l-2,-3l-3,-6l-1,-1l-2,-3l-5,-5l-1,-3l-1,-1l-2,-4v-1l-4,-4v-1l-3,-3l-3,-6l-1,-1l-5,-7l-2,-2h1v1v-1l-1,-1l1,1l1,2l1,1v-2l-3,-3l-1,-2v-1v1h1v1l1,1v1h1v1v-2l1,2v1h1v-1l-2,-2v-1l-2,-2l-2,-3l-2,-4v-1l-2,-2v-1l-1,-2v-2l-1,-2v-2l-1,-2v-1l-2,-4l-1,-4v-1l1,1v2l1,1l1,2v-2l-1,-3v-2l1,-1l1,-2v-4l1,-3v-1h3v-1h1v-2l2,-2l1,-2h2v-1l4,-4v-10l1,-1v-4l-1,-2l-1,-1v-6h1v-4l1,2l2,2l1,2v1l1,1v-2l-1,-1v-1l1,1v-2l-1,-1v-1h-1v-3l-1,-1h1l1,1v-1h1v1h3l-1,-1h-1v-3l-1,-1v-5h1l1,1v1v-2h-1v-2h2v-1h-1v-1l-1,-1l1,-1v-1h1v-1l-1,-1h1v1h1v2l1,-1v-2l-1,-1h1v-1h-1v-1h1v1l1,-1v1h1v-3l1,-1v1h1l1,1h1v1l1,1h1l2,4h1v4h1l-1,-1v-2h1v-1h3l1,1v-1h1l1,1v1v-2l1,-1h-1v-1h-1l1,-1h-1l-1,-1v-3l1,-1v-4l2,-2l-1,-1v-5h1v-2h1l1,1l-1,-1v-1h1v-1l1,-1v-1v1l1,1h2v-1h1l1,1v-1h1v-1h2l-1,-1v-3l-1,-2h-1l-1,1h-1v-1l-1,-1v-1h1v1h1v-1h1l2,2l1,-1l1,1v1l1,1h4l2,2h2l1,-1l2,2h1l2,-2v-1l1,-1h1h-1v1h1l-1,1v1h1v-1l1,1v2h1l1,-1l-1,-1v-1l1,-2l1,2l1,1v-1l1,1l-2,4v1l1,1v2h-2l-1,1v3l1,2v3h-1v1l-1,3v3h1l2,1l1,1l2,1v2h1l1,1v-1h1v2h3l1,1l2,1h1l1,2l2,1l1,1h2l1,1h2v1l3,3l2,1h1l1,1h1l2,-1l2,-2v-3l1,-5v-13l-1,-1l-1,-5v-2l-1,-1v-10h2v-1h-1v-1h-1v-5h1v-9l1,-1v-1l1,-1l1,1h-1v1l2,1v2h1v3l1,2v1h1Z"/>
<path class="sl" d="M276,669l-1,-2v-3l1,-1v-1l-1,-1l1,-1v2h1l-1,6ZM171,600v1h-1l-1,1v-2l1,-1h1v-1l1,1h-1ZM150,578h1v3h1v1h-3v-1l-1,-1v-1l1,-1v-1h1ZM112,565h1v1h-3v-1h1v-1l-1,-1l1,-1v1h1v1ZM113,562l1,-1h1l1,-1l1,1v1h1h-1v2l-2,2l-2,-1l-1,-1v-1l-1,-2v-1l1,1ZM79,699v1l-2,-3l-1,-1v-1l2,2v2ZM212,756h1v-1l1,1h1v1h-2v1h-5l-1,-1v-1l2,-1h3ZM262,771h-1l1,-1ZM262,772h-1ZM239,625v1l-1,-1v-1ZM238,624v-1ZM259,651h1v2l-2,-2ZM253,642h-1v-1h1ZM248,641v-1ZM283,682v3l-1,-1v-2ZM282,681v1l-1,-1v-2h1v1ZM180,547v1l-1,-1ZM180,543v1v-1h-1ZM179,543v-1ZM217,610l1,1v1l-2,-2ZM146,557v1v-4h1v2ZM145,559l-1,1v-1l1,-1ZM155,595v-1h-1l1,-1v1ZM154,594l-1,-1h1ZM152,594v-1ZM172,604v1l-1,-1h1v-1ZM147,579l-1,-1h1v-1v1ZM123,560l-1,-1v-2h1v2ZM91,594v1v-2ZM90,601v1v-1h-1v-1h1ZM68,655v-1ZM268,788h1l1,1h2l1,1h6l-1,-1h4v-1h1l1,-1h1l1,1v1l1,1v2h1v1l1,1v2h1v1v-1h-1v-1v5l2,2l1,2h-2l-1,-1h1v-1h-2l1,1h-1v-1l-1,-1v1l1,1h-1l1,1v1l-2,-1l1,1v2h-5v-1h1v-1l-1,1v-1l-1,1v-1l-2,-1l-1,-1l-3,-2v-1l-1,-1h1l1,1v-1l-1,-1h-1l-2,-2l-2,-1l-1,-2l-1,-1v-1h-1v-1l-1,-1v-1h1ZM260,784h-1v-1l-1,-1v-2l2,2v1ZM280,780l2,1h1v2h-1l-1,-1v-1h-2l1,-1v-1ZM289,806h-1v-1h1ZM291,801h-1v-1h1ZM289,804v1l-1,-1v-1v1ZM266,787l-1,-1ZM284,783l1,1v1l-1,-1v1h-1v-1h-1h1ZM284,785v1v-1h-1ZM383,874h-1v-2l1,1ZM21,577v1h-1v-1ZM12,601v-1ZM13,601h-1v-1v1ZM388,690v1h-1v-1ZM681,962h-1v-1h1ZM622,985h-1h1h-1l-2,1h-1l2,-1h1h-1l-1,1h-4v1h-5l1,-1h3v-1h-1l-1,1h-1l-3,1h-2l-1,1h-4l-1,1v-1h2l1,-1h2v-1l-1,1h-2l-2,1h-1l-1,1h-2v-1h3l1,-1h3l1,-1h-1v1h-4l-2,1h-1l-2,1h-2l-1,1h-3l-1,1h-1v-1h-1l-1,1h-2l-1,1h-3v1h-5v1h-5l-1,1h-1h1v-1h-1v1h-1h1v-1l-1,1h-7v1h-2v1h-6l-1,1h-10l-1,1h-15l-1,1h-43l-1,-1h-16l-1,-1h-10l-1,-1h-8l-1,-1h-7l-1,-1h-7l-1,-1h-5l-1,-1h-5l-1,-1h-4l-1,-1h-5l-1,-1h-4l-1,-1h-3l-1,-1h-4l-1,-1h-3l-1,-1h-3l-1,-1h-3l-1,-1h-3l-1,-1h-3l-1,-1h-2l-1,-1h-3l-1,-1h-2l-1,-1h-2l-1,-1h-2l-1,-1h-3l-1,-1h-2l-1,-1h-2l-1,-1h-2l-1,-1h-2l-1,-1l1,1l-1,-1h-2l-1,-1h-1l-2,-1h-1l-2,-1h-1l-1,-1h-2l-1,-1h-1l-6,-3h-1l-1,-1h-1l-1,-1h-2v-1h-2v-1h1h-2v-1h-1l-1,-1h-1h1l-2,-2h-1h1l-1,-1h1h-1v-1l1,1v-1l-1,-1l1,1l-1,-1h2l-3,-3h-1v-1h9l1,1v-1l1,1h2v-1l-1,-1h-1l-1,-1l-2,-1v-1l1,-1h1v1h2l2,1h3l2,1l1,1h1l-1,1l1,1h2v-1h-1h1v-1h2v-1h2v-1h1v1h-1l1,1h1v-1l1,-1v-1l1,-1v-1h2v-1h-1h3l2,1l3,1h4v-1l-1,-1l-2,-1v-2h5v-1h3l1,1h2v-1h13l1,1h5l1,-1l1,1h3v-1h2l1,1h2v1l1,1v1h2v-1h4l3,1l2,2h1l1,-1l2,1l1,-1h6l1,1h8l-2,-2h2l2,1l1,1h3l1,1h9l2,1h2l1,1h1l2,1l1,1l3,2h3l-2,-1l-1,-1h1l1,-1l1,1l2,1h1l1,-1h7l2,1h2v1h3l3,1l1,1l1,-1h-1h1l2,2h-2v2l1,-1v1h-2l2,1l-1,1h-7l1,1h2l-1,1h-1l-1,1h-1l-2,-2v1l1,1h1l-1,1h2v1h1h-5v1l1,1v1h-1h1v1h2v2h2v1h1v1h-1h3v1h1l1,1h2v1h1v1l1,-1h1l1,1h1h-3l-1,1h-3l-1,-1v1h1l1,1h-1v1h1v1h-1h2l-1,1h3v1h1h-1h1l1,1h1l2,1h2v1h1l-1,1h3v-1h1l1,1h2v1h4l1,1v-1l1,1h5l1,1h10l2,1h5l2,1h1v-1h1h-5v-1h-1h2v-1h-4v-1h-2l-3,-1h4l1,1h4l1,1v-1h1l1,1h5v-1h3l2,-1h2v-1l1,-1l-2,-1h12v-1h-1v-1h6v-1h-1l-1,-1h-1v-1h-4l-1,-1v-1h3l-2,-1h-2v-1h1v-1l1,-1h1v1h2l1,-1l1,1h3v1h4v1h2l2,-1h1h-1l1,-1h1v1h2l1,1v-1h1v-1h2v-1h-1l-1,-1h-1v-1h2l2,2h1v-1l-1,-1h6l2,-1h3v1h2l1,-1h9l2,-1h3v1h6v1h10v1h12l1,1l4,-2h1v1h-1l-2,1h1h-2l-1,1h4v-1h2v1h-1l-2,1h-4l-1,1h3v1h5v1h-1l-1,1h4v-1h1l2,-1h1h-1h1v-1h1l2,-1h1v-1h2v1h2l1,-1v-1h-1l1,-1h2l1,-1h1l-1,1h-1h1v1h1v1h-1v1h1h-1h2v1h-1h5l1,-1v1h-2l-2,1h-1h1l-2,1h1h-1l-1,1h-1l-1,1h-1h2l2,-1l-1,1h1v-1h1l-2,1h-2v1h-2l-1,1h1h-1h4l1,-1h2l2,-1h1l2,-1h2l4,-2h1l2,-1h2l2,-1h1l2,-1h1l1,-1l-1,1h-2l-1,1h-2l-1,1h-2l-1,1h-2l-1,1h-2l-1,1h-2l-1,1h-2l-1,1h-3l-1,1h-2l-1,1h-3l-1,1h-2l-1,1h-3l-1,1h-3l-1,1Z"/>
<path class="sp" d="M622,985h-2M550,997l-1,1h-10l-1,1h-15l-1,1h-43l-1,-1h-16l-1,-1h-10l-1,-1h-8l-1,-1h-7l-1,-1h-7l-1,-1h-5l-1,-1h-5l-1,-1h-4l-1,-1h-5l-1,-1h-4l-1,-1h-3l-1,-1h-4l-1,-1h-3l-1,-1h-3l-1,-1h-3l-1,-1h-3l-1,-1h-3l-1,-1h-2l-1,-1h-3l-1,-1h-2l-1,-1h-2l-1,-1h-2l-1,-1h-3l-1,-1h-2l-1,-1h-2l-1,-1h-2l-1,-1h-2M667,971l-1,1h-2l-1,1h-2l-1,1h-2l-1,1h-2l-1,1h-2l-1,1h-2l-1,1h-2l-1,1h-3l-1,1h-2l-1,1h-3l-1,1h-2l-1,1h-3l-1,1h-3l-1,1"/>
<path class="sl" d="M562,996h2l3,-1h7v-1h1l-1,1h-6l-1,1h-4Z"/>
<path class="sp" d="M579,994h-4l-1,1h-6l-1,1h-4"/>
<path class="sl" d="M574,994h-1h1l2,-1h2l-2,1h1v-1h2l-1,1h-3ZM670,970l-1,1h-1l-2,1h-1l-2,1h-1l-3,1l-1,1h-3l-2,1h-1l-4,1v1h-3l-1,1h-1h1v-1h3v-1v1h-1h1h-1h1l1,-1h2l1,-1h-1h1h-1v1h-1l1,-1h2l1,-1h3l1,-1v1h-1h1h-1h1l1,-1h2l1,-1l-1,1l1,-1h2l1,-1h2v-1h3v-1h2l1,-1h1h-1v1ZM652,968v1h-1l2,-1l-1,1h-1h1h-1l-1,1h1l-2,1h-1v-1h-1l1,-1v-2h4l-1,1h-1h3ZM617,967l-1,1h-3v1h-3v-1h2v-1h1h-1h4ZM611,965h1h-1v1h-1v1l1,-1v1h-1v1h-3l1,-1v-1h1h-2l1,-1h1l1,-1h1ZM527,978l-1,1l-1,-1h-1l-2,-1h-1v-1h2v-1h1v1h2l1,1h1v1ZM470,972h4v1h-4l-1,-1v-1h1ZM586,991h5v-1h3l-1,1h-6l-1,1ZM661,973h-1l-1,1v-1h3v-1v1h-1h1h-1h1ZM669,970l-1,1h-1l1,-1ZM642,979h-2l-1,1h-1l3,-1h1v-1h1h-1h1v1ZM644,974l2,-1h2l1,-1h1l-1,1h-2l-1,1h-1ZM473,974h-1ZM296,949h-1l-1,-1h1ZM580,993h1l1,-1h1l-1,1h-1ZM586,992h1v-1h1l-1,1ZM667,971h1l2,-1h-1ZM648,971h-1h2ZM638,970l1,-1h1ZM616,969h-1v-1h2ZM601,968l1,-1v1h1h-1ZM516,986h-2v-1h2ZM521,983l-3,-1h-1h4ZM458,964h-1ZM458,967h-1ZM468,960h-1v-1h1ZM441,937h-1v-1h1ZM434,934h-1ZM431,933l-1,-1h-1ZM297,952h2v1h-1v-1ZM300,951h-1ZM301,953h1h-1v-1ZM296,947h-1l-1,-1h-1h1l1,1ZM295,953h-1ZM306,960h-1v-1h-1h1ZM304,959h-1v-1v1ZM303,959h1h-1v-1ZM663,973h-1ZM639,980l1,-1h1h-1ZM646,972h1ZM619,969h1ZM594,967h1ZM596,967l-1,1v-1h2ZM565,968h-1ZM557,972h-1h2ZM554,972h-1v-1ZM554,971h1h-2ZM551,973h1ZM552,971h-1ZM560,970v-1ZM558,971h1ZM549,973l-1,-1h1ZM534,979h-1ZM552,972h-2v-1h2ZM523,984h-1v-1h1ZM469,514v1Z"/>
<path class="sh" d="M508,556v-1h1v1ZM492,565l-1,-1h1Z"/>
<path class="sw" d="M229,81h-1v1l-1,1h-1l-1,1h-1v1h-1l-1,1h-1l-1,1v1h-2l-2,2h-1h1l1,-1h-1v1l-2,1h1h-1v1h-1l-2,1l-1,1l-2,1l-1,1h-1l-2,2h-1v1h-1l-2,2h-1v1h-1l-1,1h-1v1h-1l1,-1h1v-1h1l1,-1h1v-1h1l2,-1l2,-2h1v-1h1v-1h1l2,-2h1l1,-1h1v-1h1l2,-2h1l1,-1h1v-1h1v-1h1l1,-1h1l1,-1h1v-1h1l1,-1h1v-1h1l1,-1h1l-1,1ZM211,93l1,-1l-1,1h-1l-1,1ZM812,110h1h-1h1l1,1l-1,-1h-1v-1h-1v-1h-1v-1h-1l-1,-1l1,1l-2,-2h-1v-1h-1h1v1h1h-1v-1h-1l-2,-2v1v-1h-1v-1v1h1v1v-1h-1v-1h-1l-1,-1h-1v-1h-1l-2,-2h-1v-1h-1l-2,-2h-1v-1h-1l-1,-1l2,1h-1l-1,-1h-1v-1h-1l-1,-1h1v1h1v1h1h-1h1l2,1v1h1l2,2h1v1h1l1,1h1l3,3h1v1h1v1h1l1,1h1v1h1v1h1l1,1h1v1l2,1ZM800,100l-1,-1ZM809,107h1v1ZM712,48l1,1l-1,-1h-2l-1,-1v1h3v1l-1,-1l1,1h1v1h1l2,2h-1v-1h-1h1v1h1v1h1h-3v-1h-3v-1h-2l-1,-1h-1l2,1v-1l1,1h1h-1v-1h-1v-1h-1h1h-1l-1,-1h-2v-1h-2l-1,-1h-1l-1,-1h1v1h2v1h3v1h2l1,1h2v-1h-2v-1h1v1h1ZM713,50h-1h1l1,1h1h-1v-1ZM672,33h2v1h1l1,1h1h-2v-1h-2l1,1h2v1h-1v-1h-2v-1h-1v1h2v1l-2,-1h-3l1,-1h-2v-1h-2v-1l1,1h1l-1,-1h-3l-1,-1v1h1h-2l-1,-1v1l-1,-1h-1h4v-1h2v1h2v1h2l1,1v-1v1h1v-1h-1h1ZM793,95l1,1l-1,-1h-1v-1h-1l-1,-1h-1v-1h-1l-1,-1h-1v-1h-1v-1v1h1v1h2v1v-1v1h1v1h2v1h1v1ZM842,155l1,1v1l-2,-2h-1v-1h-1v-1h-1v-1h-1v-1h-1h2v1h1v1h1v1v-1h-1v-1v1h1l1,1ZM843,156h-1v-1h-1h1v1ZM945,278v2l3,6l1,3v-2h-1v-2h-1v-2l-1,-2l-1,-1v-1l-1,-1v-1v1h1l-1,-1ZM753,69l1,1h1v1h1l1,1l-1,-1h-1v-1h-2v-1h-1l-1,-1h1v1ZM738,62l-1,1h1l1,1h-1h1h-1l-1,-1h-1h1l-2,-2h-1v-1l1,1h1l1,1v-1l1,1h1l1,1h1h-2v-1v1h-1ZM825,120l-1,-1Z"/>
<path class="sr" d="M824,119l1,1"/>
<path class="sw" d="M757,71l2,2h1l1,1h1v1h1l1,1h1v1h1v1v-1v1h1h-1v-1h-1l-1,-1h-1v-1l1,1l-1,-1h-1v-1h-2l-2,-2h-1l-2,-2v1h2v1ZM599,43v1h-3l-3,1l-1,-1h2l1,-1h3ZM596,50v1v-1h-4v-1h2ZM827,162v1l-2,-2h1ZM718,50h1v1h2v1h1h-1v-1v1h1h-1l-1,-1h-1v-1h-2v-1h-1h1v1v-1h-1l1,1Z"/>
<path class="sr" d="M717,50h1"/>
<path class="sw" d="M868,204v1h-1l-1,-2l-1,-1h1l1,1ZM695,43v1v-1h-3l-1,-1h2v1h1ZM123,207l-2,2v-1v1h-1v-1h1l1,-1h-1l-1,1l1,-1h1l-1,1h1v-1h1h-1v-1h1l1,-1v-1h1v-1v2h-1v1ZM229,121l-1,1l-1,2h-1l-1,1v-2l1,-1h1v-1l1,-1h2v1ZM22,381v-1ZM103,196v1l-1,1v-1v1v-1h1v-1h1v-2h1l-1,1ZM752,70h1l1,1h1h-1v1h1h-1v-1h-1v-1v1v-1ZM739,61h-1v-1h-1h1v1h1l1,1h2v1v-1v1l-2,-2ZM199,111l-1,1v-1h1v-1h1l2,-2h2v-1v1h-1h1h-1h1h-1v1v-1v1h-1l-2,2ZM121,220l-1,1h-1v-2l2,-2h1h-1h1v1h-1v1l-1,1ZM594,50l-1,1h1h-1v-1ZM560,22h-1ZM719,55h1v1l-1,-1h-1ZM737,60v1h1h-1h1h-1l-1,-1h-1h1h-1h1ZM433,16h-1ZM101,237h-1v1l-1,1v1v-4l2,-2v-1v1l-1,1v1l-1,1h1l1,-1ZM103,231v-1v1l1,-1ZM103,231l-1,1v-1ZM98,231h1v-1v1l-1,1v-1v1ZM454,765h-1v1h-1v-2h2ZM829,136h-1v-1h-1h1v1ZM568,14h-3v-1h-1h2ZM798,113v-1v1h1l1,1v1v-1h-1v-1ZM863,188l-1,-1v-1h-2v-1v1l-1,-1h-1l1,1h-1v-2l-1,-1h1v1l2,2v-1l2,2ZM737,63v1h2v1v-1h-2l-1,-1h-1v-1v1h1ZM982,366v-1h-1v-1v1Z"/>
<path class="sr" d="M981,364v1l1,1"/>
<path class="sw" d="M415,12l-1,1v-1ZM33,332v1v-2ZM124,209h-1v1v-2h1v-1h1v-1v1h-1l1,-1v2ZM558,40h-1v-1v1v-1h1ZM839,149v1h1h-1l-1,-1ZM847,161h1h-1v-1h-1v-1l1,1ZM652,28h-1h1v1h1h-1ZM704,52v-1l-1,1v-1h-1v-1l1,1h1ZM104,230v-1v1v-1ZM194,116h1v-1h1v-1v1h-1v1ZM424,800l-1,1v1v-1ZM402,13h-1ZM431,15h-1ZM432,16h1ZM116,219v-1h1v1ZM94,234v1h-1h1ZM114,219h-1v1h-1v-1l1,-1v1v-1h1ZM811,144h1v1h-1v-2h-1h1ZM824,157l-2,-2h1v1ZM100,230h-1v1v-1ZM101,228v-1v1h-1ZM125,198v-1h1v1ZM99,230v-1v1l1,-1v1ZM97,233l-1,1l1,-1v-1ZM96,234v-1v1v-1h1h-1ZM837,175v1ZM654,26h-1h2v1h1h-1v-1ZM650,28l-1,-1h-1h2ZM651,28h1h-2ZM680,37h-1v-1h-1h2v1h2v1h1h-1v-1h-1ZM773,82v1v-1v1l-1,-1h-1v-1v1h1ZM810,137h-1v-1h1ZM543,25h-1ZM556,37h-1h2ZM562,38v1h-1v-1ZM580,44v1v-1h-1ZM581,42h-1ZM577,41h1ZM580,43l1,1h-1v-1h-1ZM728,69h-3l-1,-1v1h2v1h2v1h2v1h1h-1l-1,-1h-1l-2,-2h-2v-1h-2v-1h-2l-3,-2h1l1,1h1l1,1h1l1,1h2l1,1v-1h1l1,1h1ZM819,120h-1v-1h-1v1v-1h-1v1h1h-1v-1h-1h1v1v-1h-1h1v-1l1,1h1v1ZM826,123h-1v-1h-1v-1h-1v-1h-2v-1v1v-1h-1l1,1l-1,-1h1v1v-1l2,2h1v1v-1h-1h1v1h1v1h2v1ZM679,50h-1l-1,-1h-2l-1,-1h-1l-1,-1h-1l2,1h2l1,1h1l1,1ZM780,103h-1l-1,-1l1,1ZM792,111h-1h1v1v-1h-1v-1h-1h1v1ZM782,110h-1v-1h-1l-1,-1h-1v-1v1l2,1h1v1ZM744,64v1h1h-1l-1,-1ZM618,36l1,1h-1v-1h-1ZM832,126h-1v-1Z"/>
<path class="sr" d="M832,126v0"/>
<path class="sw" d="M831,125h-1Z"/>
<path class="sr" d="M830,125h1"/>
<path class="sw" d="M923,243h-1v-1h-1h1v1v-1v1ZM952,314l-2,-2h1l1,1ZM112,604v5h-1v-4l-1,-1h1ZM92,211v-1v2h-1v1l1,-1Z"/>
<path class="sr" d="M91,213l1,-1v-1"/>
<path class="sw" d="M813,111h1h-1l-1,-1v-1h-1l-2,-2h-1v-1h-1h1h-1v-1h-1l-2,-1v-1h-1h1h-1v-1h-1h1v1v-1v1l2,1l-2,-1h1v1h1l1,1h1v1h1v1h1v1h2v1h1l1,1ZM803,103l-1,-1h-1l-1,-1v-1v1l1,1h1l-1,-1l-2,-1l-2,-2h-1v-1h-1l-1,-1h1l1,1h-1l-1,-1h-1v-1v1h1h-1v-1h-1l-1,-1l1,1v-1v1h1l3,3h1l1,1h1v1h1v1h1l1,1ZM757,74l-1,-1h-1l-1,-1l1,1h1l1,1h1v1h1l1,1h1v1h1v1h1h-1v-1h-1l-1,-1h-1v-1v1h1l1,1l-2,-2h-1ZM942,299v-1ZM863,188l-1,-1v-1h-2v-1v1l-1,-1h-1l1,1h-1v-2l-1,-1h1v1l2,2v-1l2,2ZM863,176v2h1v2l1,1v1h-1v-1h1l-1,-1v-1h-1h1l-1,-1v-1l-1,-1ZM765,76h1v1h1l1,1h1h-1l-1,-1h-1h1h-1h1h-1v-1h-2v-1h-1v-1v1v-1v1h1v1Z"/>
<path class="sr" d="M765,76v0"/>
<path class="sw" d="M3,473v-1ZM422,804h-1v-1h1ZM420,805v-1h-1v-1h1v1ZM819,120h-1v-1h-1v1v-1h-1v1h1h-1v-1h-1h1v1v-1h-1h1v-1l1,1h1v1ZM844,139v1h1v1h1v1h1v1h1h-1v-1h-1v-1h-1v-1h-1h1h-1h1h-1v-1l-1,-1h-1v-1h-1v-1h-1v-1h-1v-1l-1,-1h-1v-1h-1v-1h-1v-1h-1v-1h-1h1v1h1l1,1v1h1v1h1l2,2v1h1v1h1l1,1ZM679,50h-1l-1,-1h-2l-1,-1h-1l-1,-1h-1l2,1h2l1,1h1l1,1ZM780,103h-1l-1,-1l1,1ZM224,83l-2,2h-1l-1,1h-1l-2,2h-1v1h-1l-1,1h-1v1h-1h1v-1v1h-1l-2,2h-1v1h-1l-2,2h-1h1l2,-2h1v-1h1v-1h1l1,-1h1l2,-2h1v-1h1l2,-2h1l2,-2h1v-1Z"/>
<path class="sr" d="M223,83h1"/>
<path class="sw" d="M705,44h-1h1h-2l-1,-1h-1h1l1,1h1ZM704,44h1v1h2v1v-1h-2v-1ZM855,150h1v1h1v1h1h-1v-1l-1,-1h-1v-1h-1v-1h-1l-1,-1v-1v1h1v1h1l1,1ZM937,265v1l-1,-1v-1l-1,-1l1,1v1ZM767,80h-1l-1,-1h-1v-1l1,1l-1,-1h-1l-1,-1l2,1l1,1h1v1ZM735,59h1v1h1h-1l-1,-1h-1v-1h-2v-1h-1h1v1h2v1h1h-1ZM762,89h1h-1l-1,-1h-1l-1,-1l-2,-1h1l2,2h1ZM867,197l-1,-1h1v1l1,1ZM809,149l1,1h-1v-1v1ZM686,37h-2l-1,-1l1,1h2v1v-1l1,1h2v1h3v1v-1h-3v-1h-3ZM802,139h1v1h1v1v-1h-2ZM809,137v-1v1h1ZM282,51v-1h1l1,-1v1v-1h1l1,-1h1h-1h2v-1v1h-2v1h-1h1v-1v1h-1l1,-1h1h-1v1v-1h1h-1l-1,1h1l1,-1h1v-1h1l-1,1h-2v1h-2v1v-1h2v-1h1h-1v1h-2v1h-2l-1,1h-1h1h-1v1h-2v1h-2l-1,1h-1h1l1,-1h1l1,-1l-1,1h1h-1h1h-1l1,-1h2v-1h1h-1h1ZM298,75h-1l-1,1v-1h1ZM469,26h1h-1v1h-1v-1h1h-1ZM203,179h1l-1,1l-2,1v1v-1l1,-1ZM653,42h1l1,1l-1,-1h-1l-1,-1ZM596,47h-1h1v1l-1,-1h-1ZM560,38l-1,-1h1ZM596,42l1,-1h1l-1,1h-2ZM609,42h1l1,1h-1ZM571,37h-1ZM562,38h1ZM555,36h1h-2v-1ZM554,32v1v-1h1ZM699,42h1ZM700,42h-1ZM699,42h-1h2ZM699,42h-1v-1h-1h1v1ZM780,86h-1h1l1,1h-1ZM777,86l-1,-1h-1h1l1,1h1v1ZM694,41v-1h-1ZM764,78v-1ZM721,52h2v1l-1,-1h-1v-1h-1h1ZM730,56h-1l-1,-1l1,1ZM749,67h1v1v-1ZM103,672l-1,-1v-3l1,1v1l1,1v1ZM126,659h-2v-3h1v-1l1,-1v-1h1v1l-1,1h1v1h1v1h-1v2ZM191,731v-3l-3,-3h-1v-1h-1v-1h-1v-1h1l1,1l1,-1h1v2h1v1l2,2v2l1,1h-2ZM199,725v1h-1v-1l-1,-3v-1h-1v-2l-1,-1v-1h-1l-2,-2v-1h-1v-1l1,1h1v1h2l1,1v1l2,2v1l2,2ZM112,721l-1,-1v-1l-1,-1v1l1,1v1l-1,-2h-1v1l-1,-2h1v-1l1,1v-2h1v1l-1,-1v2l2,2ZM208,718v1h-1v-1h-1l-1,-1l1,-2v-2h1v1l1,3ZM191,706v1h-1v1h-2v-2h1l1,-1h1ZM191,704h-3l-1,-1v1h-1l-1,-1v-1l-1,-2v-2l-1,-1h-1v-1l1,-1l2,1l1,1h2v2l1,1v1l3,3Z"/>
<path class="sb" d="M982,369h1v3l1,1v1M981,362l-1,-2l-1,-3M985,379v-2h-1h1h-1v-1l1,1M976,346l-1,-1v1l1,1v2l1,1v2l1,1v2h1v4h1h-1v-1v1l1,2v3h1v3l1,1v2M943,273v1l-1,-1v-1h-1v-1h-1v-1h-1v-1l-2,-2v-2l-2,-2v-1l-1,-1v-1h-1v-2l-3,-3v-1l-1,-1v-1h-1v-1l-2,-2l-1,-2l-2,-2v-2l-2,-1v-1h-1v-1h-1v-1h-1l1,1h-1h1v2l1,1v1l-2,-1v-1h-1v-1l-1,-1h-1v-1l-1,-2l-2,-2l-1,-2l-1,-1v-1h-1l-1,-1l-1,-2l-7,-7h-2l-1,-1v1l1,1v1l1,1l-1,-1h-2l-1,-1h-2l-1,-1h-1l-3,-1l-2,-2l-2,-1l-2,-2l-4,-2l-2,-2l-3,-1v-2h-8M824,119l1,1l-1,-1h-1v-1h-1l-1,-1h-1l-1,-1h-1l-1,-1h-2v-1h-2l-1,-1h-2v-1h-3l-1,-1h-2v-1h-3l-1,-1h-3l-1,-1h-4l-1,-1h-3l-1,-1h-4l-1,-1h-4l-1,-1h-4l-2,-1h-4M603,18h1l1,1l2,1h1l2,1l2,2h2l1,1l2,1l1,1h1l2,1l2,2l2,1l1,1h1l2,1l1,1l2,1l2,2l2,1l2,2l2,1l2,2l2,1l2,2h3l1,1v-1h3v1l1,1h3l1,1h1l2,1l1,1h2v1h2v-1h1l-1,-1h-1h2v-1l1,1h2v1l2,1h1l1,1h2l1,1h1l1,1h2v1h2l1,1h1v1h1l1,1h2v1h2v1h1l1,1h1l1,1h1l1,1h2v1h2l1,1h2l1,1h1M32,359v-1h1v-3h1v-5l1,-1v-3h-1v-1h1v-7h1v-7l1,-1v-6l1,-1v-1h1l1,-1v-2l1,-1v-3l1,-1v-2l-1,1v1l-1,-1l1,-2v-1l1,-1v-2h1v-1l-1,1v-1h1v-3l1,-1M27,365v2h1v-3l1,-1v-1v1l1,-1v-1v1h1v-2l1,1v-1v1h-1v3l-1,1v5l-1,2v1l-1,1v5l-1,1v-1v1l-1,1v1h-1v1h-1v2h-1v3l-1,1v3h-1v2h-1v2h-1v1l-1,1M40,309l-1,1v2h-1v2l-1,1v1l-1,1v1l-1,2v1M10,406l1,-1v-3l1,-1v-3l1,-3v-1l1,-1v-4l1,-1v-4l1,-1v-3l1,-2v-3l1,-1v-5h1v-4l1,-1v-2l1,-1v-2l1,-1v-2l1,-1v-1v-3l1,-1v-2h1v-4h1v-3l1,-1v-1v1v-2h1v-1l1,-3v-2l1,-1v-1l1,-1v-2h1v-2l1,-1v-1h1v-2h1v-1v1v-1v2l-1,1v2l-1,1v1v-1h1v-1v1l-1,1v2l-1,1v2l-1,1v2h-1v3l-2,4v1v-1l1,-1v-2h1v-2h1v-1v1h1v-2h1v-2h1v2l-1,2v4l-1,1v2l-1,2v6h-1l1,1l-1,1v2h-1v3l-1,1v3h-1v2l-1,1v-1h-1v1h-1l-1,1v2h-1v2l-1,1v2l-1,2v2l-1,2v5l-1,1v3M51,303v-1v1h-1v-3l1,-1v-2l1,-1v-1h1v-1h-2v-1h1v-1h-1v1h-1v2h-1v1l-2,2v1v-1l-1,1l1,-1h-1v2h-1v1v-1l-1,1v1h-1h1h-1v2h-1v2l-1,1v2h-1v3h-1v-1l1,-1v-1l-1,1v1v-2l1,-1v-2l1,-1v-2l1,-1v-1l1,-1v-2l1,-1v-2l1,-1v-1l1,-1v-1v1l-1,1v1h-1h1v-2h1v-2h1v-1l1,-2v-1l1,-1v-1l1,-1v-1l1,-1v-1l1,-1v-1h1v-2l2,-2v-2l1,-1v-1l2,-2v-2l1,-1v-1v1l1,-3h1v-1l1,-1v-1l-1,1v1M174,157v-1h1l2,-2h1v-1h1l2,-2h2v-1h1l1,-1h1v-1l1,-1h1v-1h1v-1h1l1,-1v2h3l1,-1v-1h1h-1h1v-2h3v-1h2v-1h1l1,-1h1l4,-4h1v1h-1v1"/>
<path class="sb" d="M172,170v-1l2,-2h1v-1h2l1,-1h2l2,-2M205,105l-1,1l-2,1l-3,3h-1v1h-1l-1,1h-1v1l-1,1h-1v1h-1l-1,1v1h-1h1v-1h3l1,-1h1l1,-1h1v1l-1,1v2h-1v1l-1,1h-1v1h-2v-1l-1,1h-1l-1,1h-2v1h-1v1h-2v1h-1l-2,2h-1v1h-1l-1,1h-1v1h-1l-1,1h-1l-1,1h-1v1h-1l-1,1h-1v1h-2v-1v1h-2v1h-1l-1,1v1h-1l-1,1v1h-1v2h-1v1h-1v1h-2v1h-1l-4,4h-1v1h-1v1h-2v1h-1v1h-2l-2,2h-1v1h-1l-5,5h-1h1h-1l1,-1l-1,1v-2h1l1,-1h-1v1h-1M208,139v-2h1v-1h2v-1h2v-1l2,-2h1v-2l2,-2h1l1,-2v-1h1v-1l1,-1h2v-1h1v-1h2v-1v1h3v1v-1h1v-1h1l1,-1v-1h2v-1h1v-1h1l2,-2h1v-1l1,-1h1l1,-1v-1h1l1,-1v-1h2v-1h1l1,-1h1v-2h1l1,-1h-3l-1,1h-1l-1,1h-2l-1,1h-1l-1,1h-1l-2,1h-3l1,-1v-1h1v-1h1v-2h1l1,-1h-1v-2h-2v-1l-1,1h-1v-2l1,-1h1v-1h1v-1h1v-1l1,-1v-1h1v-1h1v-1h1v-1l2,-2h1v-2h1v-1v1v-2h-1v1h-1v-1h-3l-1,1v-1l-1,1h-1l-1,1h-2l-1,1l-2,1l-1,1h-1l-1,1h1l-3,3h-2l-2,2l-2,1l-2,2h-1v1h-2v1h-1v1h-1l-3,3h-1l-2,1l-1,1l-2,1h-1v-2l-1,1h-1v-1h-1v1h-1l-1,1h-1l-1,1h-1v1h-1l-1,1h-1l-1,1h-1v1h-1l-2,1v1v-1h-1v1h-1h1l-1,-1v1h-1h1v-1h1v-1h1v-1l1,-1h-1h1h-2v1h-1v1h-1l-1,1l2,-2h1v-1h1v-1h1l2,-2M61,260v1v-1v2h-1v1l-1,1v1h-1v2h-1l-1,2v1l1,-1v-1v1"/>
<circle class="w3" cx="492" cy="564" r="12"/>
<circle class="w3" cx="492" cy="564" r="10"/>
<circle class="c3" cx="492" cy="564" r="11"/>
<circle class="w3" cx="508" cy="555" r="12"/>
<circle class="w3" cx="508" cy="555" r="10"/>
<circle class="c3" cx="508" cy="555" r="11"/>
<path class="sg" d="M 255.2683 935.2191 A 249.7500 29.9267, 0, 1 1, 743.7317 935.2191"/>
<path class="sg" d="M 67.9719 751.0626 A 432.5797 51.8345, 0, 1 1, 931.0281 751.0626"/>
<path class="sg" d="M 0.0000 499.5000 A 499.5000 59.8533, 0, 1 1, 999.0000 499.5000"/>
<path class="sg" d="M 67.9719 247.9374 A 432.5797 51.8345, 0, 0 1, 931.0281 247.9374"/>
<path class="sg" d="M 255.2683 63.7809 A 249.7500 29.9267, 0, 0 1, 743.7317 63.7809"/>
<path class="sg" d="M 496.5263 0.0089 A 24.6079 499.5000, -180.34110244, 0 0, 502.4737 998.9911"/>
<path class="sg" d="M 530.1441 0.9409 A 226.3340 499.5000, -176.48272430, 0 1, 468.8559 998.0591"/>
<path class="sg" d="M 590.6595 8.3888 A 416.6299 499.5000, -169.48450336, 0 1, 408.3405 990.6112"/>
<path class="sg" d="M 960.9096 308.1851 A 495.2901 499.5000, -112.52043109, 0 1, 38.0904 690.8149"/>
<path class="sg" d="M 385.8751 13.0952 A 441.2377 499.5000, -193.14859791, 0 0, 613.1249 985.9048"/>
<path class="sg" d="M 460.9767 1.4877 A 268.9561 499.5000, -184.42325788, 0 0, 538.0233 997.5123"/>
<text x="0" y="0" class="fs" transform="translate(720,320) rotate(84)">150W</text>
<text x="0" y="0" class="ft" transform="translate(720,320) rotate(84)">150W</text>
<text x="0" y="0" class="fs" transform="translate(905,340) rotate(78)">120W</text>
<text x="0" y="0" class="ft" transform="translate(905,340) rotate(78)">120W</text>
<text x="0" y="0" class="fs" transform="translate(70,345) rotate(101)">120E</text>
<text x="0" y="0" class="ft" transform="translate(70,345) rotate(101)">120E</text>
<text x="0" y="0" class="fs" transform="translate(238,323) rotate(96)">150E</text>
<text x="0" y="0" class="ft" transform="translate(238,323) rotate(96)">150E</text>
<text x="0" y="0" class="fs" transform="translate(476,313) rotate(91)">180W</text>
<text x="0" y="0" class="ft" transform="translate(476,313) rotate(91)">180W</text>
<text x="0" y="0" class="fs" transform="translate(487,896) rotate(0)">60S</text>
<text x="0" y="0" class="ft" transform="translate(487,896) rotate(0)">60S</text>
<text x="0" y="0" class="fs" transform="translate(478,692) rotate(0)">30S</text>
<text x="0" y="0" class="ft" transform="translate(478,692) rotate(0)">30S</text>
<text x="0" y="0" class="fs" transform="translate(475,435) rotate(0)">0N</text>
<text x="0" y="0" class="ft" transform="translate(475,435) rotate(0)">0N</text>
<text x="0" y="0" class="fs" transform="translate(478,196) rotate(0)">30N</text>
<text x="0" y="0" class="ft" transform="translate(478,196) rotate(0)">30N</text>
<text x="0" y="0" class="fs" transform="translate(487,38) rotate(0)">60N</text>
<text x="0" y="0" class="ft" transform="translate(487,38) rotate(0)">60N</text>
<path class="tb" d="M127,998h-2l-1,-1h-2l-1,-1h-2l-1,-1h-2v-1h-3v-1h-2l-1,-1h-2v-1h-2l-1,-1h-2v-1h-2v-1h-2l-1,-1h-2v-1h-2v-1h-2v-1h-2v-1h-2v-1h-2v-1h-2v-1h-2v-1h-2v-1h-1l-1,-1h-1v-1h-2v-1h-2v-1h-1v-1h-2v-1h-1l-1,-1h-1v-1h-2v-1h-1v-1h-2v-1h-1v-1h-1l-1,-1h-1v-1h-1v-1h-1l-1,-1h-1v-1h-1v-1h-1v-1h-2v-1h-1v-1h-1v-1h-1v-1h-1l-2,-2h-1v-1h-1v-1h-1v-1h-1v-1h-1v-1h-1v-1h-1v-1h-1v-1h-1v-1h-1v-1h-1v-1h-1v-1h-1v-2h-1v-1h-1v-1h-1v-1h-1v-1l-1,-1v-1h-1v-1h-1v-1l-1,-1v-1h-1v-1l-1,-1v-1h-1v-1l-1,-1v-1h-1v-2h-1v-2h-1v-1l-1,-1v-1l-1,-1v-1l-1,-1v-2h-1v-2h-1v-3h-1v-2h-1v-4h-1v-3h-1v-5h-1v-6l-1,-1v-17h1v-7h1v-4l1,-1v-3h1v-3h1v-3h1v-2l1,-1v-2h1v-2h1v-2h1v-2h1v-2h1v-2h1v-2h1v-1h1v-2h1v-1h1v-2h1v-1h1v-1l1,-1v-1h1v-1h1v-1l1,-1v-1h1v-1h1v-1h1v-1h1v-1h1v-1h1v-2h1v-1h1v-1h1v-1h1v-1h1l3,-3h1v-1h1v-1h1v-1h1v-1h1v-1h1v-1h1l1,-1h1v-1h1v-1h1v-1h1l1,-1h1v-1h1v-1h2v-1h1v-1h1v-1h2v-1h1v-1h2v-1h1v-1h2v-1h1l1,-1h1v-1h2v-1h1l1,-1h1v-1h2v-1h2v-1h2v-1h1l1,-1h1l1,-1h1l1,-1h1l1,-1h1l1,-1h2v-1h2v-1h2v-1h2l1,-1h2v-1h2v-1h2l1,-1h2v-1h3v-1h2l1,-1h2v-1h3v-1h3v-1h159v1h3v1h3v1h2l1,1h2v1h3v1h2l1,1h2v1h2v1h2l1,1h2v1h2v1h2v1h2l1,1h1l1,1h1l1,1h1l1,1h1l1,1h1v1h2v1h2v1h2v1h1l1,1h1v1h2v1h1l1,1h1v1h2v1h1v1h2v1h1v1h2v1h1v1h1v1h2v1h1v1h1l1,1h1v1h1v1h1v1h1l1,1h1v1h1v1h1v1h1v1h1v1h1v1h1l3,3h1v1h1v1h1v1h1v1h1v2h1v1h1v1h1v1h1v1h1v1h1v1l1,1v1h1v1h1v1l1,1v1h1v1h1v2h1v1h1v2h1v1h1v2h1v2h1v2h1v2h1v2h1v2h1v2l1,1v2h1v3h1v3h1v3l1,1v4h1v7h1v17l-1,1v6h-1v5h-1v3h-1v4h-1v2h-1v3h-1v2h-1v2l-1,1v1l-1,1v1l-1,1v1h-1v2h-1v2h-1v1l-1,1v1h-1v1l-1,1v1h-1v1l-1,1v1h-1v1h-1v1l-1,1v1h-1v1h-1v1h-1v1h-1v2h-1v1h-1v1h-1v1h-1v1h-1v1h-1v1h-1v1h-1v1h-1v1h-1v1h-1v1h-1v1h-1l-2,2h-1v1h-1v1h-1v1h-1v1h-2v1h-1v1h-1v1h-1l-1,1h-1v1h-1v1h-1l-1,1h-1v1h-1v1h-2v1h-1v1h-2v1h-1l-1,1h-1v1h-2v1h-1v1h-2v1h-2v1h-1l-1,1h-1v1h-2v1h-2v1h-2v1h-2v1h-2v1h-2v1h-2v1h-2v1h-2l-1,1h-2v1h-2v1h-2l-1,1h-2v1h-2l-1,1h-2v1h-3v1h-2l-1,1h-2l-1,1h-2l-1,1h-2Z"/>
<path class="tl" d="M169,986h1v1h-3l-1,-1h2v-1ZM114,989h-3l-1,-1h2l1,1ZM176,983h1l1,1v1h1l-1,1h-2l-1,1h-1l-1,-1l1,-1v-2h1v-1ZM124,980h2v1h-1ZM122,980l1,1h-1l-1,-1ZM136,977h1h-2ZM156,974v1l1,1h-5v-1l1,-1v-1l-1,-1l1,-1v1h1l1,1ZM158,964v1h-2v2h1l-2,2v1h1l1,1h1l4,4v1l1,1v1h-1v2h-1l-1,1h-1v1h-2l1,1h1v1h-2l1,1h1v1h3l1,1h3l1,1h3l1,1h1l1,1v-1h1v-1h2l2,-1l1,1h1v-1h4v-1h3l1,-1h-1v-1h-4l-1,-1l1,-1h1l2,-2h4l1,-1h1l2,-2h-1v-1h1v-1h2v-1l1,-1h1v1h1v-1h8v-1h3v-1h1l1,1h2v-1h1v1l1,-1h4v1h6v-1h3v-1h2v1h3l1,-1h3v-1h2l1,-1h2l1,-1h4v1h1v1h1l1,1h1l1,-1l1,1h2v1l-2,2h-1v1h1h-1v1h-1v1h2l2,-2h1v-1h3l1,-1h1v-1h2l1,-1h5v-1h1v1h5v1h1l1,-1l1,1l1,-1h1l2,-1v1l1,1h3l1,-1h2v1h1v1h4l1,-1v1h9l1,-1l-1,1v1h-1h3l1,1h2l-1,1v1h1v1h2v1h1v2h2l1,1v1h-1l-1,1h-2l-1,1h-3l-1,1h-2l-1,1h-2l-2,2v1h-5l-1,1h-2v1h-1v3h2l-11,4h-155l-11,-4h-1h2l1,-1l1,1h14l-1,-1h-7v-1h-2v-1h-3l-1,-1h4v-1h-2l-1,-1h-7l-1,-1l-2,-1l1,1l1,-1l2,1v-1h1v-1l-1,-1h-1h2v-1h2v-1h4l1,-1h5l1,-1l1,1v-1h1l1,1h1v-1l1,1h6v-1h-2l-1,-1h-1l-1,-1h4l1,1h1l1,-1h3l-1,-1h1l1,1l1,-1l1,1h3v-1l1,1h4v-1h2l1,-1v-1h-1v-1h-1v-1h-1v-1h-1v-2l-1,-1v-1h1v-2h1v-1h1v-1h1l1,-1l1,1ZM144,951l2,1h1v1h-1v-1v1h-4l-2,-2l-2,-1l2,1h2v-2h1v1ZM151,947h1v1h-2v1l-1,-1l1,-1ZM269,946h-1v-2h1l1,1ZM345,939v1h1l1,-1v1l-3,3v-1l-1,1h-1l1,-1v-1l1,-1v-1ZM368,943v1l1,-1v1h-1l-3,3h-1l-1,1h-1l-2,2h-2v1h-1v-1h-1v-1l4,-2h1l1,-1h2l2,-2h1l2,-2ZM376,936l-1,2l1,-1l-1,1l1,1h1l-2,2h-1l-2,2l-2,1h-1l2,-1v-2l1,-1l2,-1v-1l1,-1v-3l1,-1v1l1,1ZM382,913l-1,1v-2l-1,-1v-1h1v1l1,1ZM397,906v1l-1,1h-1v-1l1,-1v1ZM398,906h-1v-1h1l1,-1v1ZM10,905v-1ZM386,904v-1ZM386,901v2h-1v-1ZM259,895v2l1,1h-1v1v-1v2h-1v3l-3,6v2h-1l-1,1l-1,-1h-1v-5h1v-2l1,-1h-1v-3h1v-1h1l2,-2h1v-1l1,-1v-1l1,-1v1ZM361,898v1h1v1h1l-1,1v2h1l-1,2v1l2,2v4h1l-1,2l1,1v3l-1,1v2l-3,3v1l-1,1l-1,2h-1l-1,2h-1l-4,4v1h-2l-1,1h-1l-1,1v-1h-1l1,-1h-1l-1,1h-1v-1h-1v-3h1l-1,-1v-1l1,-1l-1,1h-1l3,-3l-2,1h-1l-1,2v-4l-2,-2h-2l-1,1h-4l-2,2h-4l-1,1v-1l-1,1h-2v-1h-1l1,-1v-1h1v-3l1,-1v-7l1,1v-3l1,-1v-1l1,-1l-1,1l2,-2h1l1,-1h2l1,-1h2v-1h1l1,-1v-2l1,-1v2l1,-1v-1h1v-1l2,-2h2v1h2v-2h1l1,-1v-1h2v-1h-1h1l1,1h3l1,1h-1v1h-1v1l-1,1v1l2,2v1h1l1,1h1v-1l1,-1v-1l1,-1v-3l1,-1v-2h1v-1v3l1,1Z"/>
<path class="tl" d="M383,894h-1v-1v1ZM337,892l-2,-1h2ZM381,893h-1v-1h1ZM382,892v-1l-1,-1h1ZM341,892h-1l3,-3h2l-1,1h-1l-1,1ZM335,889h1v1h-3l1,-1ZM340,889v1h-3v-1h2ZM381,890v1l-2,-2h1v1ZM378,889v-1h-1v-1l1,1ZM325,887h2v-1l2,1v1h2l1,1l-1,1l-1,-1h-4l-1,-1h-1l-2,-1h-1l1,-2h1l1,1ZM353,886v1v-2ZM377,888h-1v-2l-1,-1h1v2h1ZM373,885l-1,1h-1l-1,1l-1,-1h-1l1,-1l1,1v-1h2v-2h1v1ZM345,882h-1v-1h1ZM349,881v2l-1,-1h-2v-1h2ZM374,884l-1,-1v-1l-1,-1h-1h2v2h1ZM353,878v3l2,1v-2l2,-1h1l1,1h1l1,1l4,2v1h1v1l2,1v1h-1v1l1,1v2h1v1h1h-1l1,1l-1,1v-1h-2l-1,-1v-3h-3l-1,1v1h-2l-2,-2v1h-2l1,-2h1l-1,-2v-1l-2,-1h-1l-1,-2l-1,1l-1,-1h1l-1,-1l1,-1h-1v-1h-1l-1,-1h2v-1ZM343,875l-1,1h-4v1l1,2v-1h2l-1,1h-1l1,2v1l1,2v1h-1v-2l-1,1v-1l-1,-1l1,-1h-1v4h-1v-3h-1v-1l1,-1v-4h1v-1h4l1,-1ZM347,875v1h-1v1l1,1h-1v-4h1ZM321,885h-1l-2,-2v-1l-2,-2l-1,-2v-2l-1,-1v-1l-4,-4v-1h2l3,3l1,2h1l2,2h1l-1,2h1v1l1,1h1v3ZM335,874l1,1h-1v3l-1,1v1l-1,3v-1l-1,1l-1,-1h-1v-1l-1,1l-1,-1h-1l-2,-4v-2l1,-1h2v-2h2v-1l1,-1v-1h1l1,-1v-2h1v1l2,2v1h-1l-1,2l1,1ZM344,864v3l-1,-1v2l-2,-2h1l-1,-1v1l-1,-1l-1,1v-1l1,-1h2v-1h1v-1l1,1ZM294,868h-1v-1l-1,-2l1,-2l1,1v1l1,1v1ZM137,863h-1l1,-1h1ZM341,861v1l-1,1l-1,-1l1,-1v-1v1l1,-1ZM335,863l-1,1v-1l1,-1v-1l1,-1v1l-1,1ZM338,859h2v1l-1,1v-1h-1ZM342,858l1,2h-1v1v-1h-1v-1h1h-1v-1ZM338,857l-1,1l-1,-1h1ZM336,849h1v6h1l2,1v2l-1,-1v-1v1l-1,-1h-2v-1h1h-1l-1,-1v-5ZM133,851v1h-1v-1ZM121,852h-1v-1h2v1ZM126,849h3v1h1v1h-2l-1,1v-1h-1v-2h-1ZM324,849l-1,1h-1v-2l1,-1h1v1ZM37,846v-2h1v2ZM38,844h-1v-1h1ZM119,845h2l1,1v1h1v1h2l-1,1h-3v-1h-1v-2h-2l-1,-1h-1h1h-2l-1,1h-1l2,-2h3ZM122,843h-1v-1l1,-1v1ZM334,843v1l-2,-2v-2l1,-1l1,1ZM122,839l-1,1v-1ZM123,839v1v-1h-1ZM340,825h1v1h-1v1h-1v-2ZM240,828l-2,2v-1h-1h2ZM229,828v1h-1ZM220,825v2h-1l-1,-1h-1v-1h2ZM214,821v3h-1v-3ZM344,820v1l1,1v1l-1,1h-1l-1,2l-1,-1v-1l-2,1l-1,1h-1l2,1v3l-1,-1v-1h-1l-1,-1l1,-1v-3h3v-3l1,1v-2h1l-2,-4v-1l3,3v1ZM214,820v1l-1,-1v-1l1,-1ZM340,810l1,-1l1,2h-1v2l-2,-1l1,2h-1l-1,-2l-1,-1h1l-1,-2l-1,-1l3,1ZM144,812l1,1h1h-2ZM147,809h-1l-1,-1h1ZM92,806h-1l-1,-1v-2h-1v-1h1l1,1v1l1,1ZM153,807l-1,1h1v1h2l-1,1h1v1l-1,2l-1,-1l1,-1l-2,1v-1h-3l1,-1h-1l4,-4h1Z"/>
<path class="tl" d="M90,797h1l-2,2v1v-3ZM332,800l3,3l-2,-1l1,2l2,2v1l-2,-2l-1,-2l-6,-6v-1h-1h1l3,3ZM198,806l-1,1h-2l1,-2v-1l2,-2h1v3ZM216,801l-1,2l-1,-1v-1h1ZM79,791h-1v-1h2ZM202,797l-1,2h2v1l-1,1h1l2,4h1v1l-1,1h1l-1,1h-3l-1,1h-2l2,-2h-1v-1h1l-1,-1v-1h2l-1,-1h-1v-2l-1,-1l1,-2v-1l1,1ZM75,786h-1v-1h1ZM141,790l-1,1v-1ZM139,790h-2l1,-1h1ZM78,780v1h1h-2v-1ZM139,786h1v1h1l-1,1h1l-1,1l-1,-1h-1l-2,1l1,-1h-1h1l1,-1l1,-2ZM193,787v1l1,1l-1,1h-3l-1,1l-1,-1h-2l1,-1h-1h1v-1h-2l1,-1h1l1,1l2,-1h2ZM147,784h-1l1,-1h2l-1,1ZM81,776v1l1,-1h2l-1,2h-3l-1,1h-1l-1,-1h1v-1h-1h1h-2l-1,1l8,-5v1l-1,2ZM135,780l-1,1v-1h-1l1,-1h1ZM322,771h-1ZM88,771h-1h2ZM139,780l-1,2l2,-1v1h-1v1l1,-1l2,-1l1,-1h2v2h-1v1l-1,1l-2,1h-1v-1l-1,1l-2,1v1h-3l-2,2h-1l-1,1l-2,1l-1,1l-1,2h1l-1,1v1h1l3,3l2,1h1l-2,2v2l1,1h1l2,-4h-1l4,-2v-1l1,-1v-1l-1,-1l2,-1l2,-4l1,1h1l1,-1v1l1,1h1v2l-1,1l1,1h2l1,-2h1v3l1,1l-1,1l1,1v1h1l1,1v1l1,1l-2,2h-2l-2,2h-1l-2,-1h-2l-2,1l-1,1l-2,1l-1,1l2,-1l3,-1h2l-1,1l-1,2v1l1,1l2,-1l1,-1v1h1l-4,2h-1l-2,1v-1l2,-1h-3v1h-1l-1,1h-1l-2,2l1,1v-1v1h-3l-1,1l2,-1v1h-2l-2,2v1l-1,1l-1,-1l1,-1l-1,1v4l-1,1h-1l-1,1h-1l-3,3h-1v8l-1,1h-1v-3l-1,-1l1,-1l-1,-2l-1,1l-1,-1h-4v1h-1l-1,-1l-1,1l-1,-1l-2,2h-2v1h-1v3l-1,1v1l-1,2v4l1,1v1h1v1l1,-1h3v-1l1,-1v-1l1,-1h3v1l-1,1v2l-1,1v-1v2l-1,1v1h5v1h1v1l-1,1v3l-1,1h1v2h1v1h2l1,-1h1v1h1l1,1l1,-1v-2l1,-1h2l2,-2v2h-1h1v1l-1,1v1h1v-3h1v-1h1v1h1v1h3l1,1l1,-1h1l1,1h1v1l1,1h1v1h1v1l1,1l2,1v-1h1l1,1h1l1,1v1h1v1l1,2v1l-1,1l1,1h2v1v-1l4,2v1h1l3,1h1l2,1l2,2h2v5l-1,1l-1,2l-2,2v9l-1,2v2h-1v1h-2l-1,1h-1l-3,3v5l-1,2l-2,2v2l-2,2v-1l-1,1l-1,-1h-1v-1v1l1,1v1l1,1v2l-2,1h-3l1,1v2l-1,1l-1,-1h-1l1,2h2l-2,2l1,1v1h-1l-1,1v1l2,1h1v1l-1,1v2h-1v1l2,2h-1l-1,1v1h-1l-2,-1l-3,-3l-1,-3v-1l1,-1h-2l1,-2l-1,-2h1v-2l-1,-1v2l-1,-2v-4l-1,-1l-1,-2h1v-6l-1,-2v-8l-1,-2v-6l-1,-2l-1,-1l-2,-1l-3,-2l-1,-1v-1l-1,-2l-1,-3l-2,-3l-2,-2v-1l-1,-2l2,-2v-1h-1v-3l1,-1v-1h1v-2h1l1,-1v-5l-1,-1v-2h-1v1h-1v1h-1l-1,-1h-2v-2h-1v-1v1h-1v-3l-2,-2h1h-2v-1h-2l-1,-1l-1,-2h-1l-1,-1v1h-2l-1,-1h-2l-2,-2h-1l-1,-1v-1h-1v-3h1l-1,-1v-3l-1,-1v-1l-1,-1v-3h-1v-5l-1,-1l-1,1v4h1l-1,1h1v5h1v2h-1v-1l-1,-1v-3l-1,-1v1v-1h-1v-1h1v-9h-1v-1h-1v-9l2,-2v-1l1,-2l2,-2l1,-2l1,-1v-1h1v1l2,-2h-1v-2l-1,-1v-1l1,-1l-1,-1l1,-1v-1l1,-1l-1,-1l1,-1v-1l1,-1l-1,-1h-1v-2h-1v-1h-1l-1,-1h-1l-1,1h-4l1,-1l2,-1h-1l-1,1l-2,1h-1l-1,1l-2,1h-2l-2,1h-1l-1,1h-3l-1,1h-2l1,-1h2l2,-1h2l2,-1h1l2,-1l1,-1h-3l1,-1l-1,1h-1l2,-2h-1v-1l2,-2l2,-1h3l1,-1h1l1,-1h-3v-2h4l1,1l1,-1v-3h4l1,-1h2l2,-1l1,1l1,-1h1l-1,1h1l1,1h2l1,1h2v1l1,1l1,-1h6l1,-1v2l2,-1l-1,1h2l1,1h2v1l-2,1h4v1l2,-2h2v1h1l1,1h2v-1h1l1,1l-1,1l1,-1h1l1,-1v-2l1,-1l2,-1l1,1l-2,2Z"/>
<path class="tl" d="M128,774l-1,1h4l-1,1h1l2,-2v1l-1,2v1l1,1h-2v1h-8v-1h-1v-1h4l-1,-1h-3l2,-1h-1l1,-1h1ZM135,774l-2,1v-1h1ZM152,776v1l-1,-1l-1,1v-2h2ZM146,776v1l1,-1l2,-1v2h3l1,1l-1,1l2,-1v1l1,1v2h-1l2,2v1h1v1l-2,1h-1l-1,-2l-1,1v1l1,1v2l-1,1l-2,-2v1l1,1h-2l-2,-2v-1l-1,-1v1h-3v-1l1,-1h3l1,-1l2,-1v-1l-1,-1h-1l1,-1l-1,-1h-5l-1,-1h-1l1,-1h-1l1,-1l2,-1l1,-1h2ZM138,774h2l-1,1h-1l1,1l-2,1h-2v-2l1,1v-1ZM298,772h-2v-1ZM141,776l-2,1v-1l2,-2h2l1,1l-2,1ZM122,776h-2l-1,-1h1l2,-1l2,-2h2v1h2v1h-1l-3,1h-2ZM299,769v1h-3v-1h1ZM143,773v1l-1,-1h-1l1,-1h1l1,1ZM295,769l1,1h-2l-1,1l-2,-1l-1,-1h2ZM143,771h-1v1l-1,1h-2l1,-1h-1l1,-1h2ZM136,771h1v1h-4l-2,1h-1l1,-1h-1l-1,-1l2,-1h1l2,1l1,1v-2h2ZM246,780h-3l-2,-1v-1l1,-2h-1l1,-1l-1,-1h1l4,-2h2l-1,1l-2,1l-1,1v2l-1,1l1,1ZM145,770l1,1h1l-1,1h1l1,1h4v1h-7l-1,-1l1,-1v-1h-2l1,-1ZM134,769l-2,1h-4l2,-1h3ZM271,770l1,1v-1h2l2,1h1v1l-1,1h1l2,1v-1l1,1l1,-1h2l1,1h3l-2,-1h5l1,1v1h2l2,1l-1,-1h1l1,-1l2,1v-1h1l-2,-1h8l3,1l1,-1h2l2,2h2v-1h3l3,1v-1h-2v-1h7l8,5h-1l1,1l2,1h2v1h-1v1h-1l1,1v2l-2,-1v2l-1,-1v1h-1l2,2v1h1l3,2h-1l1,1h1v1l1,2h-1l1,2l1,1l-4,-2l-4,-3l-1,-2l-1,-1v-3l-1,-2v-1l-2,-2l-1,1l2,2l-3,-1l-1,1l1,2l1,1h-1l-1,1l-1,-1h-1v1h-4v7h1l2,1h1l-1,-1h1l3,1l1,2l1,1l1,2l2,2v9h-1l-1,-1v2h-1v1l1,1v1h-1v1l1,1h1l2,2v1l1,1v1l-1,1h-1l-1,-2l-1,-1h1l-2,-1v-1v1v-1h-1v-1l-1,-1h-2v1h-1l-1,-1l1,-1l-1,-1l-1,1v2h-1v1l2,2h1v-1h2l1,1l-2,1v2l2,2l1,2l2,1v2h1v6l-2,4l-1,1h-1v1l-1,-1v1l-2,1h-1v2l-1,-1v-1h-2l-1,2v2l1,1l1,2l2,2l1,3v4l-2,1v1l-2,1v-2l-1,-1h-1v-1l-2,-2h-1v-1h-1v6h1v3l1,1h1v1h1v1l1,1v3h1v2h-1l-2,-2v-1l-1,-1v-1l-1,-1v-2l-1,-1v-1h-1v-6l-1,-1v-1l-1,-2v-2l-1,-1l-2,2h-1v-3l-1,-2v-1h-1l-2,-2v-1l-1,-1h-1v2l-1,-1v1h-2v2l-2,1l-1,2v1l-2,2h-1v8l-1,1l1,1h-1l-1,1l-1,-1l-1,-2v-1l-1,-1v-1l-1,-2v-1l-3,-6v-3l-2,1h-1l-1,-2v-1l-2,-1l-1,-1v-1l-1,-1l-2,1h-5l-1,-1h-2v-2h-1l-1,1h-2l-3,-3l-1,-2l-1,1v-1l-1,1v2l1,1h1l1,1v2l1,1l-1,-1l1,-1v2h1v1l1,-1h2v-1l1,-1v-1v2l2,2h1l2,2l-1,1v1h-1v3h-1v1h-1v1h-2v1h-1l-2,2h-1l-2,2v-1l-1,1h-2v1h-2v-2l-1,-1v-3h-1v-1l-1,-1v-1l-1,-1h-1v-1l-1,-1v-3h-2v-2l-1,-1v-1l-2,-2v-1v1l-1,1l-1,-1l-1,-2l1,2l1,1l1,2v1l2,2h-1l2,2v1l1,1h-1l1,2v1l1,1l1,2v1l1,1l2,1v1h1v1h1v1l-1,1h1l1,1h3l1,-1h3v-1h1v2l-1,1v3l-1,1l-3,6l-1,1l-2,1l-1,1l-1,2v1h-1v1h-1v2l-1,1l-1,2l1,1v4l1,1v7l-1,1h-1l-3,3h-1v1l-1,1v2h1l-1,1h1v1l-1,1h1l-1,1h-1l-2,2v3l-3,3v1l-2,1v1l-1,1h-2v1l-1,-1v1l-1,-1l-1,1h-2l-1,1l-1,-1h-1v-5l-1,-1v-2l-1,-1v-1l-1,-1v-5l-1,-1v-1l-1,-2v-1l-1,-1v-3l1,-1v-3h1v-1l1,-1v-1h-1v-5l-1,-1v-2l-3,-3l-1,-2l1,-1v-5l-1,-1v-1l-1,1h-2l-1,-1v-1l-1,-1h-2l-1,1h-2l-1,1h-6l-1,1l-4,-4h-1l-1,-1v-1l-1,-1v-1h-1v-1l-1,-1v-1h-1v-3h-1l1,-1v-1h1l-1,-1l1,-1v-4l-1,-1v-1h1v-2l1,-1v-1h1v-2h1l1,-2h1l2,-2v-3l3,-3l1,-2v-1h1l1,1h2l1,-1h2l1,-1h4l1,-1h1v1h1l1,-1h1v1l1,-1v1h-1v1h1v2h-1v1h1v1h3l2,2h1l2,2l1,-1v-2l1,-1h2l1,1h1l1,1h2l1,1h1v-1h2l1,1v-1h1l1,1v-2l1,-1v-5h-2l-1,1l-1,-1h-2v1l-1,-1h-2v-1l-1,-1v-2l1,-1h1v-1h2l1,-1h1l2,-1l2,1l1,1h2l1,-1v-2h-1l-2,-2h-1l-1,-1l1,-1l-1,-1h2l-1,-1v1h-2l-1,1v1h1l-1,1h-1v-1h-1l1,-1h-2v-1h-1v1l-1,1v1h-1v4l1,1h-2v1h-1v-1h-2l1,1h-2v1l1,1h-1h1l1,1v1l-1,-1v1h-1l1,1h-2v-2l-1,-1v-1h-1v-3h-1v-1h-1l-1,-1h-1l-1,-1v-1l-1,-1v1v-1h-2v1l2,2v1l1,1h1l1,1h1l1,1v1l-1,-1h-1v1h1v1h-1v1h-1v-1h1l-1,-1v-1h-1l-1,-1h-1l-2,-2l-1,-2h-2v1h-4l-1,1v2h-2v1l-1,2h1l-1,1v1h-1l-1,1h-2l-1,1l-2,-2v1h-2l1,-1v-1h-1v-2l1,-1v-3l-1,-1l2,-1l1,1h5v-4l-1,-1v-1h-2v-1h3v-2l1,1l2,-1v-1h1l1,-1l1,-2l1,-1h2v-5h2l-1,1h1v1l-1,1v1h1v1l1,-1h2v1h1l2,-2l1,1h1v-1h1v-3l1,-1l1,1v-1l-1,-1v-1h4l1,-1h-4l-1,1l-2,-2v-4l2,-1v-1l-1,-1l-2,2l-1,2l-1,1v3h1v2h-1v2l-1,2h-1v1h-1v-2l-1,-1l-1,-2l-1,-1l-1,2h-1l-2,-1v-5l2,-1l3,-3l2,-3l3,-3h2l1,-2h3l2,1l-1,1h2l1,1h3l3,1l1,1v1l-1,1h-1l-3,-1h-1l2,1v2l1,1h1v-1h-1l1,-1l2,1v-1l1,-2h1l1,1v-1l-1,-1v-1l-1,-1l2,1h1l-1,1l1,1h1v-1l1,-1l2,-1h1v1l1,-1h1l1,-1l1,1l1,-1h-2l1,-1h2l1,1l4,1v-1h-2v-1h-1l-1,-1v-3h2l1,1v1h1l1,1l1,2h1v3l1,1v-1h1l-1,-1l1,-1h-1l-2,-2v-1l-2,-1l1,-1l-1,-1h1l1,2l-1,-1l1,-1h2l1,1l-1,-1l-1,-2h4l-2,-1v-1h1l1,-1h3l1,-1h1v-2l2,1h-1ZM253,820l1,1v2h-1v1l1,1h1l1,1h3l-1,-1v-2h-1v-2h1v-1l-1,-1h-1l1,1l-1,-1v-1h-2v-2h-1h1v-2l1,1v-3h-2l-1,1h-1v1h-1l-1,2l2,1v1l1,1Z"/>
<path class="tl" d="M146,770h-1v-1h1l1,1ZM137,769h-2l1,-1h1l1,1ZM220,771l-1,1h-1v-1h-1l2,-1v1ZM139,768h-2l1,-1v1ZM146,769h-1v-1h1l1,1ZM144,769h-1l-1,-1h-1h1v-1h1l1,1ZM268,768l-3,1v-2ZM215,769l3,1h-2v3h-1l-2,-1h1l-1,-1l-2,-1v-1l1,-1l1,1h1v-1h1ZM220,768h1l-1,1h-4l-1,-1h3ZM234,767l-1,1h-1v-1h-1h4ZM264,768h-4l-2,-1l-1,-1h1l1,-1l4,2ZM153,767v1h-1l-2,1h-2v-1h1h-1v-1l1,-1h2v-1h1v1h1ZM167,764h3v1h-3l-1,1h-1l-1,1l-2,1h-3v1h-1v1h-2l-2,1h1l-2,1h-4l-1,-1h2v-1h2v-1h-1h1l1,-1h1l-1,-1h4l-1,-1h-3v-1l1,-1h6v-1h3v1l2,-1l1,1ZM190,764l3,1h-6v1h5l-1,1l2,-1h4v1l-2,1h-1l-2,2v2l1,1h-2l1,1l-1,1v1h-1l1,1h-3l1,1v1l-1,-1l-1,1h1l1,1v1h-2l-1,-1v1l-1,1h3l-4,2h-3l-1,1l-4,2h-1l-2,1h-1v1l-2,2v1l-1,1l-1,2h-1l-1,-1h-1l-1,-1v-2l-1,-1v-1l1,-1l-1,-2l1,-1l1,-2h1l1,-1v-1l-1,1h-1v-1l1,-1h1l-1,-1h-1l1,-1v-4l-1,-1h-5v-1l-1,-1h1l-1,-1l1,-1h2l3,-1h1l-2,-1h1l3,-1h1v-1h9l1,1l-1,-1h1l2,-1h3l2,-1Z"/>
<path class="tg" d="M66,970h1l1,-1h4v-1h5v-1h5v-1h6v-1h6l1,-1h7v-1h8v-1h9l1,-1h11v-1h14v-1h20v-1h79v1h20v1h14v1h11l1,1h9v1h8v1h7l1,1h6v1h6v1h5v1h5v1h4l1,1h1M21,927h6v-1h7v-1h8v-1h10v-1h10v-1h12v-1h14v-1h18v-1h23v-1h38v-1h75v1h38v1h23v1h18v1h14v1h12v1h10v1h10v1h8v1h7v1h6M5,877h399M21,826h4v1h7v1h8v1h9v1h10v1h11v1h14v1h16v1h21v1h32v1h103v-1h32v-1h21v-1h16v-1h14v-1h11v-1h10v-1h9v-1h8v-1h7v-1h4M66,783v1h5v1h4v1h5l1,1h5v1h6l1,1h6l1,1h7v1h10v1h10v1h13l1,1h17v1h36v1h21v-1h36v-1h17l1,-1h13v-1h10v-1h10v-1h7l1,-1h6l1,-1h6v-1h5l1,-1h5v-1h4v-1h5v-1M140,755h-1v1h-3v1h-2v1h-2v1h-2v1h-2v1h-2l-1,1h-1l-1,1h-1l-1,1h-1v1h-2v1h-2v1h-2v1h-1l-1,1h-1v1h-2v1h-1l-1,1h-1v1h-2v1h-1v1h-2v1h-1v1h-2v1h-1v1h-1l-1,1h-1v1h-1v1h-2v1h-1v1h-1v1h-1v1h-2v1h-1v1h-1v1h-1v1h-1v1h-1v1h-1l-1,1h-1v1h-1v1h-1v1h-1v1h-1v1h-1v1h-1v1h-1v1h-1v1l-1,1v1h-1v1h-1v1h-1v1h-1v1h-1v1l-1,1v1h-1v1h-1v1h-1v2h-1v1h-1v2h-1v1h-1v2h-1v1h-1v2h-1v2h-1v1h-1v2h-1v2h-1v2h-1v2h-1v2l-1,1v2h-1v2l-1,1v2h-1v3h-1v4h-1v4h-1v5h-1v9h-1v13l1,1v8h1v5h1v4h1v4h1v3h1v3h1v2h1v3h1v2h1v2h1v2h1v2h1v2h1v2h1v1l1,1v1h1v2h1v1h1v2h1v1h1v1h1v2h1v1h1v1l1,1v1h1v1h1v1h1v1l2,2v1h1v1h1v1h1v1h1v1h1v1h1v1h1v1h1v1h1v1h1v1h1v1h1v1h1v1h2v1h1v1h1v1h1v1h1v1h1l1,1h1v1h1v1h1v1h2v1h1v1h1l1,1h1v1h1v1h2v1h1v1h2v1h1l1,1h1v1h2v1h1v1h2v1h2v1h1l1,1h1v1h2v1h2v1h2v1h2v1h2v1h2v1h2v1h2l1,1h2v1h2v1h2M153,755h-1v1h-2v1h-2v1h-1v1h-2v1h-2v1h-1v1h-2v1h-1v1h-2v1h-1v1h-2v1h-1v1h-1v1h-2v1h-1v1h-1l-1,1h-1v1h-1v1h-1v1h-1v1h-1l-1,1h-1v1h-1v1h-1v1h-1v1h-1v1h-1v1h-1v1h-1v1h-1v1h-1v1h-1v1h-1v1h-1v1h-1v1h-1v1h-1v1h-1v1l-2,2v1h-1v1h-1v1h-1v1l-1,1v1h-1v1h-1v2h-1v1h-1v1l-1,1v1h-1v2h-1v1h-1v2h-1v1h-1v2h-1v2h-1v2h-1v2h-1v2h-1v2h-1v2h-1v3h-1v2h-1v3h-1v3h-1v3h-1v3h-1v4l-1,1v4h-1v6l-1,1v30h1v6h1v5h1v4h1v3h1v3l1,1v2l1,1v2h1v3h1v2h1v2h1v2h1v2l1,1v1h1v2h1v2h1v2h1v2h1v1h1v2h1v1h1v2h1v1h1v2h1v1h1v1h1v2h1v1h1v1h1v1l1,1v1h1v1h1v1h1v1h1v1h1v1h1v1l3,3v1h1l3,3h1v1h1v1h1v1h1v1h1v1h1v1h1v1h1l1,1h1v1h1v1h1v1h1l1,1h1v1h1v1h1l1,1h1v1h1v1h2v1h1v1h2v1h1v1h2v1h2v1h1v1h2v1h1l1,1h1v1h2M166,755h-1v1h-1v1h-1l-1,1h-1v1h-1v1h-1v1h-1v1h-1v1h-1l-2,2h-1v1h-1v1h-1v1h-1v1h-1v1h-1v1h-1v1h-1v1h-1v1l-2,2v1h-1v1h-1v1h-1v1h-1v1l-1,1v1h-1v1h-1v1h-1v2h-1v1h-1v1l-1,1v1h-1v1h-1v2h-1v1h-1v2h-1v2h-1v1h-1v2h-1v2h-1v2h-1v1l-1,1v1l-1,1v1l-1,1v2h-1v2h-1v2h-1v3h-1v2h-1v3h-1v3h-1v3h-1v3h-1v4h-1v4h-1v5h-1v6h-1v8h-1v30h1v7l1,1v5h1v5h1v4h1v4h1v3h1v3h1v3h1v3h1v3h1v2h1v2h1v2l1,1v2h1v2h1v2h1v2h1v1h1v2h1v2h1v2h1v1h1v2h1v1h1v2h1v1l1,1v1h1v1h1v2h1v1h1v1h1v1l1,1v1h1v1h1v1h1v1l1,1v1h1v1h1v1h1v1h1v1h1v1h1v1h1v1h1v1h1v1h1v1h1v1h1v1h1v1h1v1h1l2,2h1v1h1v1h1v1h1v1h2v1h1"/>
<path class="tg" d="M179,755h-1v1h-1v2h-1v1h-1v1h-1v1h-1v2h-1v1h-1v1l-1,1v1h-1v1l-1,1v1h-1v1l-1,1v1h-1v2h-1v1l-1,1v1h-1v2h-1v2h-1v2h-1v2h-1v2h-1v2h-1v2h-1v2h-1v2l-1,1v2h-1v2l-1,1v2h-1v3h-1v3h-1v3h-1v3h-1v4h-1v4h-1v4h-1v4h-1v5l-1,1v5h-1v8h-1v11h-1v29l1,1v10l1,1v7h1v6h1v5h1v4l1,1v4h1v3l1,1v3h1v3h1v3h1v3h1v3h1v3h1v2h1v3h1v2h1v2h1v2l1,1v2h1v2h1v1l1,1v1l1,1v1h1v2h1v2h1v1l1,1v1h1v2h1v1h1v2h1v1h1v2h1v1h1v1l1,1v1h1v1h1v1h1v2h1v1h1v1h1M192,755h-1v3h-1v2h-1v3h-1v3h-1v3h-1v3h-1v3h-1v3l-1,1v3h-1v4h-1v4h-1v4l-1,1v4h-1v5h-1v6h-1v6l-1,1v7h-1v8h-1v11l-1,1v18h-1v29l1,1v18h1v11h1v8l1,1v7h1v6h1v6h1v5h1v5h1v4h1v4h1v4h1v4h1v3h1v3l1,1v3h1v2l1,1v2h1v3h1v3h1v2h1M205,755v243M217,755h1v3h1v2h1v3h1v3h1v3h1v3h1v3h1v3l1,1v3h1v4h1v4h1v4l1,1v4h1v5h1v6h1v6l1,1v7h1v8h1v11l1,1v18h1v29l-1,1v18h-1v11h-1v8l-1,1v7h-1v6h-1v6h-1v5h-1v5h-1v4h-1v4h-1v4h-1v4h-1v3h-1v3l-1,1v3h-1v2l-1,1v2h-1v3h-1v3h-1v2h-1M230,755h1v1h1v2h1v1h1v1h1v1h1v2h1v1h1v1l1,1v1h1v1l1,1v1h1v1l1,1v1h1v2h1v1l1,1v1h1v2h1v2h1v2h1v2h1v2h1v2h1v2h1v2h1v2l1,1v2h1v2l1,1v2h1v3h1v3h1v3h1v3h1v4h1v4h1v4h1v4h1v5l1,1v5h1v8h1v11h1v29l-1,1v10l-1,1v7h-1v6h-1v5h-1v4l-1,1v4h-1v3l-1,1v3h-1v3h-1v3h-1v3h-1v3h-1v3h-1v2h-1v3h-1v2h-1v2h-1v2l-1,1v2h-1v2h-1v1l-1,1v1l-1,1v1h-1v2h-1v2h-1v1l-1,1v1h-1v2h-1v1h-1v2h-1v1h-1v2h-1v1h-1v1l-1,1v1h-1v1h-1v1h-1v2h-1v1h-1v1h-1M243,755h1v1h1v1h1l1,1h1v1h1v1h1v1h1v1h1v1h1l2,2h1v1h1v1h1v1h1v1h1v1h1v1h1v1h1v1h1v1l2,2v1h1v1h1v1h1v1h1v1l1,1v1h1v1h1v1h1v2h1v1h1v1l1,1v1h1v1h1v2h1v1h1v2h1v2h1v1h1v2h1v2h1v2h1v1l1,1v1l1,1v1l1,1v2h1v2h1v2h1v3h1v2h1v3h1v3h1v3h1v3h1v4h1v4h1v5h1v6h1v8h1v30h-1v7l-1,1v5h-1v5h-1v4h-1v4h-1v3h-1v3h-1v3h-1v3h-1v3h-1v2h-1v2h-1v2l-1,1v2h-1v2h-1v2h-1v2h-1v1h-1v2h-1v2h-1v2h-1v1h-1v2h-1v1h-1v2h-1v1l-1,1v1h-1v1h-1v2h-1v1h-1v1h-1v1l-1,1v1h-1v1h-1v1h-1v1l-1,1v1h-1v1h-1v1h-1v1h-1v1h-1v1h-1v1h-1v1h-1v1h-1v1h-1v1h-1v1h-1v1h-1v1h-1v1h-1l-2,2h-1v1h-1v1h-1v1h-1v1h-2v1h-1M256,755h1v1h2v1h2v1h1v1h2v1h2v1h1v1h2v1h1v1h2v1h1v1h2v1h1v1h1v1h2v1h1v1h1l1,1h1v1h1v1h1v1h1v1h1l1,1h1v1h1v1h1v1h1v1h1v1h1v1h1v1h1v1h1v1h1v1h1v1h1v1h1v1h1v1h1v1h1v1h1v1l2,2v1h1v1h1v1h1v1l1,1v1h1v1h1v2h1v1h1v1l1,1v1h1v2h1v1h1v2h1v1h1v2h1v2h1v2h1v2h1v2h1v2h1v2h1v3h1v2h1v3h1v3h1v3h1v3h1v4l1,1v4h1v6l1,1v14l1,1h-1v15h-1v6h-1v5h-1v4h-1v3h-1v3l-1,1v2l-1,1v2h-1v3h-1v2h-1v2h-1v2h-1v2l-1,1v1h-1v2h-1v2h-1v2h-1v2h-1v1h-1v2h-1v1h-1v2h-1v1h-1v2h-1v1h-1v1h-1v2h-1v1h-1v1h-1v1l-1,1v1h-1v1h-1v1h-1v1h-1v1h-1v1h-1v1l-3,3v1h-1l-3,3h-1v1h-1v1h-1v1h-1v1h-1v1h-1v1h-1v1h-1l-1,1h-1v1h-1v1h-1v1h-1l-1,1h-1v1h-1v1h-1l-1,1h-1v1h-1v1h-2v1h-1v1h-2v1h-1v1h-2v1h-2v1h-1v1h-2v1h-1l-1,1h-1v1h-2"/>
<path class="tg" d="M269,755h1v1h3v1h2v1h2v1h2v1h2v1h2l1,1h1l1,1h1l1,1h1v1h2v1h2v1h2v1h1l1,1h1v1h2v1h1l1,1h1v1h2v1h1v1h2v1h1v1h2v1h1v1h1l1,1h1v1h1v1h2v1h1v1h1v1h1v1h2v1h1v1h1v1h1v1h1v1h1v1h1l1,1h1v1h1v1h1v1h1v1h1v1h1v1h1v1h1v1h1v1l1,1v1h1v1h1v1h1v1h1v1h1v1l1,1v1h1v1h1v1h1v2h1v1h1v2h1v1h1v2h1v1h1v2h1v2h1v1h1v2h1v2h1v2h1v2h1v2l1,1v2h1v2l1,1v2h1v3h1v4h1v4h1v5h1v9h1v13l-1,1v8h-1v5h-1v4h-1v4h-1v3h-1v3h-1v2h-1v3h-1v2h-1v2h-1v2h-1v2h-1v2h-1v2h-1v1l-1,1v1h-1v2h-1v1h-1v2h-1v1h-1v1h-1v2h-1v1h-1v1l-1,1v1h-1v1h-1v1h-1v1l-2,2v1h-1v1h-1v1h-1v1h-1v1h-1v1h-1v1h-1v1h-1v1h-1v1h-1v1h-1v1h-1v1h-1v1h-2v1h-1v1h-1v1h-1v1h-1v1h-1l-1,1h-1v1h-1v1h-1v1h-2v1h-1v1h-1l-1,1h-1v1h-1v1h-2v1h-1v1h-2v1h-1l-1,1h-1v1h-2v1h-1v1h-2v1h-2v1h-1l-1,1h-1v1h-2v1h-2v1h-2v1h-2v1h-2v1h-2v1h-2v1h-2l-1,1h-2v1h-2v1h-2"/>
<rect x="0" y="888" width="22" height="23" fill-opacity="0" stroke="#ffffff" stroke-opacity="0.5" stroke-width="5.0"/>
<rect x="2" y="890" width="22" height="23" fill-opacity="0" stroke="#113311" stroke-opacity="0.8" stroke-width="5.0"/>
<rect x="1" y="889" width="22" height="23" fill-opacity="0" stroke="#45a249" stroke-opacity="0.9" stroke-width="5.0"/>
<rect x="691" y="691" width="309" height="309" fill="#ffffff" fill-opacity="1.0"/>
<rect x="694" y="694" width="302" height="302" fill="#000000" fill-opacity="1.0"/>
<rect x="700" y="700" width="300" height="300" fill="#70add3" fill-opacity="1.0"/>
<path class="zl" d="M702,980h-2v-14h1l3,-1l5,-4l3,-2l7,-2l3,1h3l6,-3v1l-6,5l-3,3l-2,4l-5,3l-2,5v5l5,-5l6,-4l2,-1h2v1l-1,2v3l1,4l-4,-1l-5,1l-5,2l-5,1h-2l-2,-1l-1,-1l-1,-2Z"/>
<path class="zp" d="M700,980v-14"/>
<path class="zl" d="M732,989l-1,1v-8l5,-3l1,-1l2,4l-2,3ZM731,990l-3,2l-1,-2l1,-4l3,-4v4ZM773,999l-1,-1h1l2,1l1,1h-3Z"/>
<path class="zp" d="M776,1000h-3"/>
<path class="zl" d="M734,970l-3,2v-2l2,-3h2l-1,2ZM733,955l-2,1v-1l1,-1h1ZM731,972l-1,-1l1,-1Z"/>
<path class="zh" d="M808,871l2,2l2,1h-4l-1,-2l-1,-1h1ZM892,826l2,2l-1,1h1v1h-1v2h-2v-5Z"/>
</svg>
