<?xml version="1.0" encoding="UTF-8" standalone="no"?>
<svg xmlns:svg="http://www.w3.org/2000/svg" xmlns="http://www.w3.org/2000/svg" xmlns:xlink="http://www.w3.org/1999/xlink" height="1000" width="1000">
<!-- made with pythonshp (GPL): github.com/sanjayrao77/pythonshp , underlying data may come from naturalearthdata.com -->
<!-- 
COPYRIGHT: THIS SVG FILE IS RELEASED INTO THE PUBLIC DOMAIN
 -->
<!-- 
vars : {
	'cmdline' : 'pythonshp.py publicdomain wiki1 samoa locatormap'
	'title' : 'Samoa locator'
	'version' : '1.0.5'
}
 -->
<defs>
	<radialGradient id="watergradient" cx="500" cy="500" r="500" fx="500" fy="500" gradientUnits="userSpaceOnUse">
		<stop offset="0%" stop-color="#70add3"/>
		<stop offset="11%" stop-color="#6eaad0"/>
		<stop offset="22%" stop-color="#6ca7cc"/>
		<stop offset="31%" stop-color="#6ba5c9"/>
		<stop offset="41%" stop-color="#69a2c6"/>
		<stop offset="51%" stop-color="#679fc2"/>
		<stop offset="59%" stop-color="#669dbf"/>
		<stop offset="67%" stop-color="#649abc"/>
		<stop offset="75%" stop-color="#6297b9"/>
		<stop offset="81%" stop-color="#6095b6"/>
		<stop offset="87%" stop-color="#5f92b2"/>
		<stop offset="92%" stop-color="#5d8faf"/>
		<stop offset="95%" stop-color="#5b8dac"/>
		<stop offset="98%" stop-color="#598aa8"/>
		<stop offset="100%" stop-color="#5685a2"/>
	</radialGradient>
	<radialGradient id="landgradient" cx="500" cy="500" r="500" fx="500" fy="500" gradientUnits="userSpaceOnUse">
		<stop offset="0%" stop-color="#dddddd"/>
		<stop offset="11%" stop-color="#d7d7d7"/>
		<stop offset="22%" stop-color="#d1d1d1"/>
		<stop offset="31%" stop-color="#cccccc"/>
		<stop offset="41%" stop-color="#c6c6c6"/>
		<stop offset="51%" stop-color="#c0c0c0"/>
		<stop offset="59%" stop-color="#bbbbbb"/>
		<stop offset="67%" stop-color="#b5b5b5"/>
		<stop offset="75%" stop-color="#afafaf"/>
		<stop offset="81%" stop-color="#aaaaaa"/>
		<stop offset="87%" stop-color="#a4a4a4"/>
		<stop offset="92%" stop-color="#9e9e9e"/>
		<stop offset="95%" stop-color="#999999"/>
		<stop offset="98%" stop-color="#939393"/>
		<stop offset="100%" stop-color="#888888"/>
	</radialGradient>
	<radialGradient id="bordergradient" cx="500" cy="500" r="500" fx="500" fy="500" gradientUnits="userSpaceOnUse">
		<stop offset="0%" stop-color="#444444"/>
		<stop offset="11%" stop-color="#3f3f3f"/>
		<stop offset="22%" stop-color="#3a3a3a"/>
		<stop offset="31%" stop-color="#363636"/>
		<stop offset="41%" stop-color="#323232"/>
		<stop offset="51%" stop-color="#2d2d2d"/>
		<stop offset="59%" stop-color="#292929"/>
		<stop offset="67%" stop-color="#242424"/>
		<stop offset="75%" stop-color="#1f1f1f"/>
		<stop offset="81%" stop-color="#1b1b1b"/>
		<stop offset="87%" stop-color="#161616"/>
		<stop offset="92%" stop-color="#121212"/>
		<stop offset="95%" stop-color="#0e0e0e"/>
		<stop offset="98%" stop-color="#090909"/>
		<stop offset="100%" stop-color="#000000"/>
	</radialGradient>
</defs>
<style type="text/css">
<![CDATA[
.c4 {stroke:#45a211;fill-opacity:0;stroke-width:4}
.fs {font:14px sans;stroke:#ffffff;stroke-width:2px;stroke-opacity:0.8;text-anchor:middle}
.ft {font:14px sans;fill:#000000;fill-opacity:1;stroke-opacity:0;text-anchor:middle}
.sb {stroke:url(#bordergradient);fill-opacity:0}
.sg {stroke:#000000;fill-opacity:0.0;stroke-opacity:0.2}
.sh {fill:#45a211;stroke:#000000}
.sl {fill:url(#landgradient);stroke:url(#bordergradient)}
.sp {stroke:url(#landgradient);fill-opacity:0}
.sr {stroke:url(#watergradient);fill-opacity:0}
.sw {fill:url(#watergradient);stroke:url(#watergradient);stroke-opacity:0.8}
.tb {fill:#eeeeee;stroke:black;stroke-width:2}
.tg {stroke:black;stroke-opacity:0.2;fill-opacity:0}
.th {fill:#45a211;stroke:#378100}
.tl {fill:#aaaaaa;stroke:black}
.w4 {stroke:#ffffff;fill-opacity:0;stroke-opacity:0.6;stroke-width:4}
.zh {fill:#45a211;stroke:#115511}
.zl {fill:#dddddd;stroke:#444444}
]]>
</style>
<circle cx="500.0" cy="500.0" r="500.0" fill="url(#watergradient)"/>
<path class="sl" d="M930,246v-1l1,1ZM740,61v1h2l2,2l4,2l1,1h2v1h1l1,1h1l2,2h1h-1l-1,-1h1l3,3h1l1,1h1l1,1h1l2,2h1l1,1h1l2,2h1l2,2h1l2,2h1l3,3h1l2,2h1l2,2h1l2,2h1l2,2h1l1,1v1h1l2,2h1l2,2h1l3,3h1l2,2v1h1l2,2h1l3,3h1l2,2v1h1l2,2h1l6,6h1l8,8h1v1l1,1h1l17,17h1v1l8,8v1h1l2,2v1l7,7v1l2,2h1v1l3,3v1l2,2h1v1l2,2v1l4,4v1l1,1h1v1l2,2v1l3,3v1l2,2v1l2,2h1v1l2,2v1l2,2v1l3,3v1l2,2v1l2,2v1l2,2v1l2,2v1l1,1v1l2,2v1l2,2v1l2,2v1l2,2v1l1,1v1l1,1v1l1,1v-1v1v-1h-1v-1v1v-1v1h1v1v-1h-1l1,1v-1h-1v-1l-1,-1v-1v1l1,1v1v-1h-1l1,1l-1,-1v1h1h-1h1h-1h1v1l1,1l-1,-1h1v2h1v1l2,2v2h1v1v-1v1v-1h-1v-1h-1v-2h-1v-1v1l1,1v1h1h-1v-1l-1,-1v1h1h-1l-1,-1h1l-1,-1v-1h-1v-1l-2,-2v1h1v1l-1,-1v-1l-1,-1h-1v-1h-1v-1l1,2v1v-1v1h-1v-2h-1l1,1l-1,-1l1,2l1,1v1l1,1v2h-1v-1l1,2v1l-1,-1l1,1v2h1v1h-1l1,2l1,1v1v-1h-1l2,2v1l1,1v1l2,2v1l2,3v1l1,1v2l4,8l1,4l1,1l2,7h1v3h1v2l1,1l1,3l2,2v1v-1l-1,-1v-1l-2,-2l2,3v1h1v1l1,3l1,2l1,1v1l2,4l2,2l1,3v2l1,1v1h1v2l1,1l-1,-1h1v1l1,1l-1,-1h1v1l2,2v1l1,2h1v-1h1v-1h1v2l1,1v-2h-1v-4l-1,-1l-1,-3v-2l-1,-2v-1l-1,-1v-2l-1,-2v-2h1v1l1,1l-1,-1v-1v1l1,1v2h1v1l1,1v3l1,2v1l1,1v2l1,1v2h1v1v-1v3l1,2v1l1,1v2v-3l-1,-1v-1v3h1v2l1,1v3l1,1v1l1,1v3l1,3l1,1v4h1v1v-1l1,2v1v-2h-1h1v1l1,1v1v-2h-1h1v3h1v2l1,1v3l1,1v3l1,1v3l1,1v3l1,1v3l1,1v4l1,1v3l1,2v3h1v4l1,1v3l1,2v5l1,1v5l1,1v6h1h-1v-6l-1,-1v-4l-1,-1v-4l-1,-1v-1l1,2v1v-1l-1,-1v-4h-1v-4l-1,-1v-1l-1,-4v-3l-1,-1v-1l-1,-2v-3l-1,-2v-1v1v-2h-1v-1v1v-2h-1v1h1l-1,-1l-1,-2v-1l-1,-1v-1l-1,-2l-1,-1l-1,-2v-1l-2,-3l-1,-3l-1,-2v-2l-1,-1l-1,-3l-1,-2l-1,-1v-1l-1,-1v1h1v1l-1,-2v-1h-1v-1v3l-1,1v1h-1v-1l-5,-5l-2,-4l-2,-1l-1,-1l-1,-2l-1,-1v-1l-2,-1v-1l-2,-2v-1l-2,-2v-1h-1v-1l-2,-1l-4,-4v-1l-2,-2v-1l-5,-5v-1l-1,-2l-2,-2v-1l-1,-1v-4h-1v-4l-1,-1v-1l-1,-1l-1,-2l-1,-1l-1,-3l-1,-2l-2,-2l-1,-2l-1,-1l-1,-2l-2,-2l-1,-2l-4,-4v-1h-1v-1h-1v-1l-3,-3h1l-4,-4h-1v-1h-1l-1,-1l-1,-3v-1h1h-1v-1l-1,-1l-1,-2h-2v-1l-1,-1v-1l-2,-1l-2,-2v-1l-1,-1v-1l-1,-1h-2l-1,-2l-7,-7v-1l-2,-2v-1l-2,-1l-1,-2v-1l-3,-3l-1,-2l-1,-1v-1h-1v-2h-2l-1,-1v-1h-1v-1h-1v1l-1,-1l-2,-1v-1h-1l-1,-1v1l1,1v1l2,2v1l3,3v1l1,2l1,1v1l1,1h1l2,2l1,2h1l2,2v1l1,1h1v1l3,3v1h1v1l1,1v1h1l1,2l3,3v1h1v1l1,1l1,2h1v1v-1h-1v-1l1,1v1h1v1h1v1l1,1v2l1,1l1,2h1v1l3,3v1l1,1v1l1,2l2,2v-1l1,1v1h1l1,1v1l2,2v1l1,1v3h-1l-1,-1l-1,-3l-1,-1v-1l-2,-1l-6,-6v-1h-1v-1l-3,-3v-2l-1,-2l-1,-1v-1l-3,-3v-1h-1l-2,-3l-1,-1h-1v-1v1l-1,-1v1l-2,-2h-1l-1,-1v-1h-1v-1h-1v-1l-2,-1l-1,-1v-1h-1v-1l1,1h2l1,1h1h-1v-1l-1,-1v1v-3l-1,-1l-1,-2l-6,-6h-1l-1,-1l-2,-1v-1l-2,-2v-1l-1,-1v-1h-1l-1,-1v-1l-3,-3v-1l-1,-1l-2,-1v-1l-1,-1v-1l-2,-1l-2,-2v-1l-1,-1v-1h-1v-1h-1v-1l-6,-6h-2v-1l-1,-1h-2l-2,-1v-1h-1l-2,-2h-3l-1,-1h-1v-1l-1,-1v-1l-1,-1h-1v-1h-1v-1l-2,-2h-1l-7,-7h1l-2,-2h-1l-4,-4v-1l-1,-1l2,2h1l-1,-1h-1v-1h-1v-1h1v-1l-1,1l-1,-1v1l1,1h-1v-1h-1l-1,-1v1v-1l-1,-1l1,1l-1,-1h-1l-6,-6l-1,-2l-3,-3l-2,-1l-3,-3v-2l-1,-1v-1l-1,-1v-1l-1,-1h-1l-1,-1v-1l-2,-2h-1l-1,-2l-2,-2l-1,-2h1h-1v-2l-2,-2l-1,-2l-2,-2l-2,-4h-1l-2,-2l-1,-2h2v1h1l-1,-1h-3v-1l-1,-1l1,1l-3,-3h1h-1l-1,-1v1h1h-1v-1l-2,-2l-2,-1l-1,-1h-1v-1l-2,-2h-1h1l1,1h2l3,1h2v1v-1v1h1l1,1v2h1h-1v-2h1v1l1,1h1v1h-1h1h-1v-1v2h2l-1,-1h1h-1v-1l-1,-1h-1v-2h-1l-1,-1l1,1l-2,-2h-1v-1v1v-1h-1v-1h-1l-1,-1h-1v-1v1l-2,-2h1h-2v-1l-1,-1v1h-2v-1h-1v-1l1,1l-3,-3v1h1v1h-2l-1,-1h-1v-1l-2,-1l-1,-1v-1h-1v-1v1l1,1h-2l-1,-1l1,1h-2l-1,-1h-1h1h-1l-1,-1h-1v-1h-3l-1,-1h-2v-1l-1,-1v-1h1h-1v1h-1v-1h-1v-1h-1v-1h-1v-1h3v1h1l1,1l-1,-1h-1v-1h-2v-2h-1h1v1l-1,1v1l1,1l-1,-1l-2,-1h1l-1,-1v1h-1v-2h-1v-1h-2l-2,-2h-2l-1,-1h-1v-1h1v1h1l1,1h1v-1l1,1h1h-1l-1,-1h-2l-1,-1v-1h-1v1v-1v2h1h-1v1l-2,-2h-2l-1,-1v-1h-1h1v-1h-3l-1,-1v-1l-1,-1v-2h-1v1h1v1l-1,-1v-1h-1l-1,-1h-1v-1v1h1v1h2v3l-1,-1h-1l-2,-2h1h-1l-3,-3h-2v2l-1,-1h-1h1v-1h-1v-1h1h-2l-1,-1h-1l-1,-1h-1l-1,-1h-1l-1,-1h-3v-1l-2,-1h-1v-1h1l1,1h1l-2,-1h-1h1h-2l-1,-1h-1l-1,-1v-1h-1l1,1h-1l-1,-1h-1l-2,-1h-1v-1h-2l-2,-2v1h2l1,1v1h2v1h1v1l-1,-1h-2l-2,-2h-1h1h-2v-1v1h1h-2l-1,-1h-1l1,1h-1h3l1,1h2v1h-4l-2,-1v-1h-3v-1h-2l-1,-1h-2l-2,-1h-2l-1,-1h1h-1v-1h1v1h1h-1h1l-1,-1h-2l-1,1h-1l-1,-1h-3v-1h-11v-1h-3l-1,-1v-1h-1v1h-3v-1h-4l1,-1h-2v-1h1h-1l-1,1h-2v-1v1h-2v-1h-1v1h-1h2v1h-1h2v1h1h-1v1h-2v-1l-1,1v-1h-1v1h-1h1h-1v1h-2l-1,1h-4v-1h2v-1h-3v-1l1,-1l-1,-1l1,-1h5l2,1v-1h-4v-1h1v-1h-1v1h-5v1h-1l-1,1h-1h1v1h-1v1h-1v1h-2v1h-1v1h4v1l-1,1h-1l-1,1h1h-1v1h-3l-1,1h-2v1h-1v1h-2v1h-2v1l-1,-1l-1,1h1h-3v1h1v1l-1,-1v1h-3l-1,1l-1,-1v1h-3v1l-1,-1v1h-4l1,-1h1h-3v1l-1,1h-3v-1v2h-1l-1,-1v1h-1v-1h2v-1h1l1,-1h1l1,-1h1l2,-1v1h1l1,1v-1h1v-1l1,-1h2l2,-1l1,-1v1h2l-1,-1l1,-1h1v-1h2v-1h-1v-1h2l-1,-1h-1v-1h1l1,-1v-1l-1,1l-2,1h-3v-1h-1h1v-1h-2v1h-1h1h-1l1,1v1l-1,-1l-2,-1h-3l-1,-1h-2v1h-3l-1,1l-2,-1h1v-1h1h-2v-2l-2,-1v-1h-1v-1l1,-1h-1v1h-1v1h1l-1,1h-6v-1h-2l-1,-1h-3l2,-2l1,1h4v-1h-1l-1,1l-2,-1h-3v-1v1v-1h-1h1h-1v1l-1,-1h-1v-1h-1h1h-1v-1h1v-1h1l1,-1h1v-1h1v-1h3v1h3v-1h2v-1h1v1h3l1,-1v-1l-1,-1h-1l1,-1h-1l-1,-1l-1,1h-3l-1,1v-1h-1v1h-1l-1,-1h-5v1l-1,-1h-5v-1h-2v-1v1h1l1,-1h-4l-2,-1h-1h4v-1h4v-1h7v1h7l-1,-1h-2v-1h-1h2v1h4l1,1h2v-1h-6v-1h1h-7l-1,-1h-1l-1,-1l-4,-1h-5l1,-1v1v-1h1v-1l2,1h1l1,-1h4v-1h1l1,-1h4l2,-1v1h2l-1,-1h-1h7v-1h1l2,1h1h-1h9l1,1h3l2,1v-1h1v1h9l2,1h10l2,1h4v1h7l2,1h2l1,1h6l1,1h1h-1l-1,-1h1h-1l-1,-1h3v1h2v-1l1,1v-1h-1h5v1h-3l1,1h1h1h-1v-1h1l1,1h1h-1v-1h2v-1h-1h2v1h4v1h2l1,1h1v-1h-2v-1h1v1h2l1,1h6l1,1h3v1h4l1,1h3v1h4l2,1h2l1,1h1h-1h1v1h3v1h6v1h3l1,1h1h-1h2v1h3v1l-1,-1h1l1,1h1v1h2l1,1h1l-2,-1h-1l-1,-1h-1h2v1l-1,-1h-1l-1,-1h-2v-1h-3v-1h-2v-1v1v-1h-1h1h-1l1,1l-1,-1h-2l-1,-1h2v1h2l1,1h2v1h3l1,1h2v1h3v1h2l1,1h2l1,1h1l1,1h1l1,1h2l1,1h1l1,1h2l1,1h1l1,1h1l1,1h1l1,1h2l1,1h1l1,1h1l1,1h2l2,2h1l1,1h2l1,1h1l2,2h1l1,1h1l1,1h2l1,1h1l2,2h1l1,1h1l1,1h1l1,1Z"/>
<path class="sp" d="M930,245l1,1M754,69l1,1h1l3,3h1l1,1h1l1,1h1l2,2h1l1,1M768,78h1l2,2h1l2,2h1l2,2h1l3,3h1l2,2h1l2,2h1l2,2h1l2,2h1l1,1v1h1l2,2h1l2,2h1l3,3h1l2,2v1h1l2,2h1l3,3h1l2,2v1h1l2,2h1l6,6h1l8,8h1v1l1,1h1l17,17h1v1l8,8v1h1l2,2v1l7,7v1l2,2h1v1l3,3v1l2,2h1v1l2,2v1l4,4v1l1,1h1v1l2,2v1l3,3v1l2,2v1l2,2h1v1l2,2v1l2,2v1l3,3v1l2,2v1l2,2v1l2,2v1l2,2v1l1,1v1l2,2v1l2,2v1l2,2v1l2,2v1l1,1v1l1,1v1l1,1M981,364l1,1M982,366v2l1,1v3l1,1v3l1,1v3l1,1v3l1,1v4l1,1M992,409v4l1,1v5l1,1v5M681,34h1l1,1h2l1,1h1l1,1h1l1,1h2l1,1h1l1,1h2l1,1h1l1,1h1l1,1h1l1,1h2l1,1h1l1,1h1l1,1h2l2,2h1l1,1h2l1,1h1l2,2h1l1,1h1l1,1h2l1,1h1l2,2h1l1,1h1l1,1h1l1,1"/>
<path class="sl" d="M366,18h3v-1h3l1,-1h1v1v-1v1h-3v1h-4l-1,1h1l1,-1h-1v1h-2l-1,1h-2v1v-1h4v-1h3l1,-1h2l1,-1l-1,1h-1h3l1,-1h2l-1,1h1v-1h5l1,-1h2l1,-1h1h-1h2l1,-1h4l3,-1h3l-1,1h-2l4,-1l-1,1h-4l-1,1h-1h2l1,-1h4l1,-1h4l-1,1h-1h1h-1l-2,1h1l2,-1h1v1h-1h4l2,-1h12v1h-2l-1,1h1v1h-1h1v1h-2l-1,1l1,-1h2l1,-1h1l2,-1h4l1,-1h1l1,1l3,-1h7v1h2v1h2l1,-1h2v-1h-1h1l1,-1h22l1,1h5v1h4v1h1l-2,-1l2,1h1h-1h2l6,1v1h-1h1l1,1h-1v1h3v1l1,-1h-1v-1h-1v-1h4v1h7v1h2v1l1,-1h1v1h1h-2v1h-7v1h1h-1h1v1h-3v1h1h-1v1h-2v-1l-1,1l-1,-1h-2l-1,-1h-4v-1l-2,-1h-2l-1,1h-4v-1h-1v-1h2v-1h-1v1h-2l1,-1h-1v1h-2v1h1v1h-1l-1,1h-2l-1,1h-7l-1,-1h-1l1,1h-3l-1,-1l-2,1h-1h7v1h3v1h1v1h-1v1h1v-1v1h2v1h-1h1v1h-2v1h-1l-4,-1h-4l-1,1h-2l-3,1h-2l-1,1l-1,-1v1h-4l-2,1h-2v1h-3v1h-3l-1,1l-3,1h-2v1h-1v1h-1l-1,-1v-1h-8l-2,1h-1l-4,1v1h-1v-1h1l1,-1h1h-2l-2,1h-3v1h-2v-1h-1v1h-4v1h-1l-1,1l-2,1l-1,1h-1l-4,2h-1l-1,1v1h4v1h-1l-1,1h-1v1l-1,1h2l-1,1v1h-1l-1,1h-1l-1,-1h2l1,-1h-2l-1,1h-1l-1,1l-2,1l-1,1h-1v1l-1,1h1v1h-1v1l-2,1h-2v-1l-1,1h-3l-1,1h-2v1h-1l-1,1v1l-1,1v1h-4l-1,1h-3v1l-2,2l-2,1l-2,2l-2,1h-1l-1,1l-4,2h-1l1,-1h-1l1,-1l2,-4l1,-1v-2l3,-3v-1l1,-3l6,-6l4,-3h1l4,-2h1l1,-1v-1h1v-1l1,1l1,-1h3l1,-1h1l2,-1h2l1,-1h1l1,-1l2,-1l3,-1l2,-1h1l4,-2h1l1,-1h2l1,-1h2l1,-1h3v-1h2l1,-1v-1h1l1,-1l4,-2h1l1,1v-1h-7v1h-1l-2,2h-1v1v-1h-2l-1,1l-7,2l-1,1h-2l1,-1h-1v-1h1l1,-1h1l1,-1l-3,1h-1v-1l-2,1h-5l-1,1h-3l-1,1h-1v1h-2l-1,1h-1l-4,2l-3,1l-1,1h-2v1h-1h3v1h-4l-1,1h-1v-1h-1l-1,1h-2v1h-1v-1h-1l-1,1h-3v-1h5v-1h-5l-2,-1l-1,1h-2v1h-2v1h-1v-1h-2l-1,1h-3l-2,1h-1v-1l-4,1h-4l-3,1h-1l-4,2l-1,1h-1l-2,1h-1l-1,1l-3,1l-2,1l-1,1h-2l-1,1h-1l-2,1l-1,1l-4,1l-1,1l-3,1l-1,1h-1l-1,1h-1l-1,1h-2l-2,2l-3,1l-2,1h-1v1h3l1,-1l-2,2l-2,1v1h-1h1l2,-1v-1h1v1l-1,1h-1l-1,1h-1h3l2,-1l1,-1h1h-1l-1,1h-1v1l1,-1h1l3,-3h4v1h-1v1l1,1v1h-1l-1,1h-1v1l-2,2v1h-1l-1,1l-2,1h-1l-1,2h-2l-1,1v1l-2,1l-5,5v1l-2,1l-1,1h-1v1l-2,1l-3,3h-1l-2,2h-1l-2,2l-2,1l-3,2h-1v1l-2,1l-1,1h-1l-1,2l-3,2h-1l-2,1l-2,2l-2,1l-3,3l-2,1h-1v1h-1l-1,1l-3,2l-2,2l-2,1l-2,2l-4,1l-2,2h-2l-1,1v-1l-1,1v-1h-1l2,-2h-1l-1,1h-1h1l1,-1l-1,1h-1l-2,1l-1,1v1h-1l-1,1h-1l-2,2h-1l-1,1h-1v1h-1v1h-1l-3,3v1l-2,2l-2,1l-3,3h-1l-2,2h-1l-2,2l-2,1l-1,1v1h-1l-1,1v1h1l-1,1v1h1h-1l-1,3v2l-1,1v3l-2,2v1l-2,2v1l-2,2h1v-1v1l-4,4l-1,2h-2l-1,1h-1v1h-1v-1v1h-2v1l-1,1v-1l-1,1v1l-1,1v-1h1v-1l-1,1l-2,1l-1,1v-2h1v-1h1h-1l1,-1v-1l3,-3v-1h1l1,-1v-1h1v-2h1v-1l1,-1v-1v1h-1v-1l1,-1h1v-1h1v1h1v-2l1,-1v-1h1v-2h1h-2v1v-2l-2,2h-1h1h-1v-1l1,-1h-1l1,-1h1l1,-1v-1l1,-1h1v-1l3,-3v-1h1h-1v-1l-1,1v-1h1v-2l-1,1v1h-2l-1,1h-1v1h-1l-3,2l-2,2h-1v1h-1v1h-1l-1,1v-1h1v-1l2,-1v-1h1l1,-1l-1,1h-1l3,-3l2,-1v-1l1,-1l2,-1l1,-1v-2l1,-1l-1,1h-1l-2,2h-1l-2,3h-1l-3,3l-2,1l-4,4h-1l-1,1v-1l-4,4l-1,2v1h2l-1,1v1h-1v1l-2,2v1l1,-1h1v-1l2,-1l1,-1v-1l2,-1v1h1v1h1v-1v1h1v-1v1l-2,2v1h-1v1h-1l1,-1h-1l-2,2l-2,1h-1v1l-2,2v1h-1v-1l-1,1v1l-1,1h-1v1l-3,3h-1l-2,4h-1h1l-1,1h1v2l-1,2l-1,1v1l-1,1v1l-1,2l-1,1v1h-1v1l1,1l-1,1v3h-1v1l-1,-1h-1l1,-1h-1l-1,1h-1h1l1,-1v6l-2,2h-1l-3,3v1h-1l-1,1h-1h1v1l2,-2h1v2h1l-3,3h1v-1v1l-2,3v-1l-1,1v2h-1v1h-1v2l-1,1v1v-1l-1,1v-1v1h-1v1l-1,1h-1v1l-1,1v1l-1,1v1l-4,4v1l-1,1v1h-1l1,-1v-1l-1,1v2l-1,1v1l-1,1h-1l-1,1h1v-1h1l-1,1v1l-1,1v2h-2v2h-1l-1,1v1l-1,1v1l-1,1h-1v1v-1h-1v2h-1v1l-1,2h-1v2h-1v1l-1,1v-1v1h-1l-1,2l-1,1v1h-1v2h-1v1h-1v1h-1v-1v1l-1,1v-1l-1,1v1h-1l1,-1l-1,1v1h-2v1v-2l1,-1v-1l-1,1v2l-1,2v1h-1v1l-1,1v-1v1l-1,1v1v-1v1h-1v1v-1v1h-1l-1,1v1h-1v1h-1v1h-1v2h-1v-1v2l-1,1v1h-1h1v1h-1v3h-1v1h-1l1,-1v-2l1,-1v-2l1,-1v-1l1,-1v-2v2h-1v1h-1l1,-1v-1v1v-2l-1,1v1v-1v2h-1l-1,1v2h-1v1l-1,2v-1v1l-1,1v1l-1,1v2h-1v1l-1,2v1l-2,3v2l-1,2l-1,1v3l-1,1v4h-1v2l-1,2v7l-1,1l1,-1v1l-1,1v5l-1,2v4l-1,1v4h-1v4l-1,1v4l-1,2v1v-1v1l-1,2v3l-1,1v-1v4h-1v2l-1,2v1l-1,1v1l-1,1v1l-1,1v1v-1l-1,2v-1v4l-1,1v3l-1,1v-1v2l-1,4l-1,1v3l-1,1l1,-2h-1l2,-7v-4h1h-1v-5l1,-1v-1l-1,1v-1l1,-1v-4l1,-1v-6l1,-2v-1l-1,1v4l-1,3v1l-1,1v4l-1,2v3l-1,2v3l-1,1v4l-1,2v4l-1,4v3l-1,8v1v-2l-1,2v2h1v1l-1,2v6h-1v1v-2h1v-12h1v-7l1,-1v-4l1,-1v-6l1,-1v-5l1,-1v-3l1,-1v-4l1,-1v-4l1,-1v-3l1,-1v-4l1,-1v-3l1,-1v-3l1,-1v-3l1,-1v-2l1,-1v-3l1,-1v-3l1,-1v-2l1,-1v-2l1,-1v-2l1,-1v-3l1,-1v-2l1,-1v-2l1,-1v-2l1,-1v-3l1,-1v-1l1,-1v-2l1,-1v-1l1,-1v-2l1,-1v-2l1,-1v-1l1,-1v-2l1,-1v-2l1,-1v-1l1,-1v-2l1,-1v-1l1,-1v-1l1,-1v-1l1,-1v-2l1,-1v-1l1,-1v-1l1,-1v-1l1,-1v-2l1,-1v-1l1,-1v-2l1,-1v-1l1,-1v-1l1,-1v-1l1,-1v-1l1,-1v-1l1,-1v-1l1,-1v-1l1,-1v-1l1,-1v-1l2,-2v-1l1,-1v-1l1,-1v-1l1,-1v-1l1,-1v-1l1,-1v-1l2,-2v-1l1,-1v-1l1,-1v-1l2,-2v-1l1,-1v-1l3,-3v-1l1,-1v-1l2,-2v-1l1,-1v-1l2,-2v-1l1,-1v-1l2,-2v-1l1,-1v-1l4,-4v-1l2,-2v-1l1,-1v-1l2,-2v-1l4,-4v-1l2,-2v-1l4,-4v-1l3,-3v-1l4,-4v-1l3,-3v-1l1,-1h1v-1l3,-3v-1l5,-5v-1l1,-1h1l1,-1v-1l3,-3v-1h1l2,-2v-1l2,-2h1l1,-1v-1l2,-2h1v-1l7,-7v-1h1l7,-7h1v-1l6,-6h1l2,-2v-1l1,-1h1l6,-6h1l5,-5h1l2,-2v-1h1l2,-2h1l5,-5h1l2,-2h1l5,-5h1l2,-2h1l4,-4h1l2,-2h1l2,-2h1l3,-3h1l2,-2h1l2,-2h1l2,-2h1l1,-1h1l2,-2h1l3,-3h1l1,-1h1l2,-2h1l1,-1h1l2,-2h1l1,-1h1l1,-1h1l2,-2h1l1,-1h1l1,-1h1l1,-1h1l1,-1h1l2,-2h1l1,-1h1l1,-1h1l1,-1h1l1,-1h1l1,-1h1l1,-1h1l1,-1h1l1,-1h1l1,-1h1l1,-1h1l1,-1h1l1,-1h1l1,-1h1l1,-1h1l1,-1h1l1,-1h1l1,-1h2l1,-1h1l1,-1h1l1,-1h1l1,-1h3l1,-1h1l1,-1h1l1,-1h2l1,-1h1l1,-1h1l1,-1h2l1,-1h1l1,-1h3l1,-1h2l1,-1h1l1,-1h2l1,-1h2l1,-1h1l1,-1h3l1,-1h2l1,-1h2l1,-1h2l1,-1h3l1,-1h2l1,-1h3Z"/>
<path class="sp" d="M5,430v-4l1,-1v-4l1,-1v-6l1,-1v-5l1,-1v-3l1,-1v-4l1,-1v-4l1,-1v-3l1,-1v-4l1,-1v-3l1,-1v-3l1,-1v-3l1,-1v-2l1,-1v-3l1,-1v-3l1,-1v-2l1,-1v-2l1,-1v-2l1,-1v-3l1,-1v-2l1,-1v-2l1,-1v-2l1,-1v-3l1,-1v-1l1,-1v-2l1,-1v-1l1,-1v-2l1,-1v-2l1,-1v-1l1,-1v-2l1,-1v-2l1,-1v-1l1,-1v-2l1,-1v-1l1,-1v-1l1,-1v-1l1,-1v-2l1,-1v-1l1,-1v-1l1,-1v-1l1,-1v-2l1,-1v-1l1,-1v-2l1,-1v-1l1,-1v-1l1,-1v-1l1,-1v-1l1,-1v-1l1,-1v-1l1,-1v-1l1,-1v-1l1,-1v-1l2,-2v-1l1,-1v-1l1,-1v-1l1,-1v-1l1,-1v-1l1,-1v-1l2,-2v-1l1,-1v-1l1,-1v-1l2,-2v-1l1,-1v-1l3,-3v-1l1,-1v-1l2,-2v-1l1,-1v-1l2,-2v-1l1,-1v-1l2,-2v-1l1,-1v-1l4,-4v-1l2,-2v-1l1,-1v-1l2,-2v-1l4,-4v-1l2,-2v-1l4,-4v-1l3,-3v-1l4,-4v-1l3,-3v-1l1,-1h1v-1l3,-3v-1l5,-5v-1l1,-1h1l1,-1v-1l3,-3v-1h1l2,-2v-1l2,-2h1l1,-1v-1l2,-2h1v-1l7,-7v-1h1l7,-7h1v-1l6,-6h1l2,-2v-1l1,-1h1l6,-6h1l5,-5h1l2,-2v-1h1l2,-2h1l5,-5h1l2,-2h1l5,-5h1l2,-2h1l4,-4h1l2,-2h1l2,-2h1l3,-3h1l2,-2h1l2,-2h1l2,-2h1l1,-1h1l2,-2h1l3,-3h1l1,-1h1l2,-2h1l1,-1h1l2,-2h1l1,-1h1l1,-1h1l2,-2h1l1,-1h1l1,-1h1l1,-1h1l1,-1h1l2,-2h1l1,-1h1l1,-1h1l1,-1h1l1,-1h1l1,-1h1l1,-1h1l1,-1h1l1,-1h1l1,-1h1l1,-1h1l1,-1h1l1,-1h1l1,-1h1l1,-1h1l1,-1h1l1,-1h1l1,-1h2l1,-1h1l1,-1h1l1,-1h1l1,-1h3l1,-1h1l1,-1h1l1,-1h2l1,-1h1l1,-1h1l1,-1h2l1,-1h1l1,-1h3l1,-1h2l1,-1h1l1,-1h2l1,-1h2l1,-1h1l1,-1h3l1,-1h2l1,-1h2l1,-1h2l1,-1h3l1,-1h2l1,-1h3"/>
<path class="sl" d="M11,404v3h-1l1,-1v-1ZM11,416l1,-1v1ZM15,401l-1,1l1,-1v-1ZM38,315l1,-1ZM41,311l-1,1v-1ZM40,313l-1,1l1,-1v-1ZM38,315l1,-1v1ZM326,573v3h1l1,-1v-1v1h1v1l1,2v1h-2l-1,1h-1v-1l-1,-1v-2l-1,-3v-2l1,1ZM332,584h1l3,3h-2l-1,1l-1,-1h1l-1,-1v-1l-1,-1h-1v-2h1ZM341,589v1l-1,-1l-1,1l-1,-1v-1h1l1,1ZM339,585l-1,1l-1,-1h-1l2,-2v1ZM341,596l1,1h1l-1,1h-2v-1h-1l1,-1ZM335,578h-2l2,-1h1ZM338,582l-1,-2v-2h1l1,4ZM337,577v-1ZM330,581l-1,-1h1ZM332,568h-2v-1h2ZM331,565l-1,-1v-1h1v1ZM355,618h-1ZM351,612v1h-2v-2h1v1ZM350,607l-1,1l-2,-1v-2h1v1h1h-1l1,1ZM124,380l-1,1v-1h1v-1ZM207,389h-1h1v-1h-1h1ZM209,388h-1v-1h1ZM255,389v1h-1v-2h1ZM344,393v-1h1v-1v1ZM338,381h-1ZM361,382h1v1v-1ZM357,381l1,1h1h-2l-1,-1ZM182,298v1ZM178,318h-1l1,-1ZM172,336h-1ZM181,304v-1h1ZM176,328v-1h1v-1v1h-1ZM175,329v-1ZM167,344v-2l1,-1h1l-1,1ZM512,565h-1l1,-1h1h-1ZM675,60h-1l-1,-1ZM676,62v-1h-1h1ZM661,53h-1ZM616,44h1ZM602,43h-1v-1h1ZM585,41v-1ZM558,58v1l-1,-1ZM562,59v1ZM530,65v-1h1ZM479,73h-1ZM521,22l1,-1v1ZM503,29h3v-1l1,1h3v1l1,-1v1h1h-2v1h-1v-1h-2v-1h-4v1h-1v-1h-1v-1h1ZM526,39h2v2h-4l-2,-1h-2l1,-1l2,1v-1h2ZM588,50h2l1,1h-1v1h-4v1l-1,1v-1h1h-1v-1l-1,1v-1h-1h1v1h-1l-2,-2v-1h2v1h2v1v-1l-1,-1h1h-2v-1h1l1,1h1v-1h2ZM543,59l1,1h1v1h-6v1h-2l-1,-1h1l1,-1h2l1,-1h1ZM677,64h1l-1,1l-1,-1ZM687,67l1,1h-1v-1h-1l-1,-1h1ZM679,62l1,1h-2v-1h-1v-1h-1h2ZM686,65l1,1v1v-1h-3l-2,-2l1,-1l1,1h1ZM670,58h2v1h1v1h1h-1l-1,-1h-1h1v1h1h-2v-1h-1l-1,-1h-1h1ZM682,67h1v1h-1v-1h-1l-1,-1h-2v-1l2,1l1,1ZM607,42h1h-2v-1ZM604,43l-1,1v-1h1v-1h1v1ZM602,41v1ZM600,40h-1ZM589,52h-1v1h-1v-1ZM588,47h-1ZM586,50v-1h-1h1ZM580,57h-1ZM583,55h-1l1,-1h1h-1ZM585,55l-1,-1h1ZM556,58h1v1h1h-2ZM549,60h-1ZM548,62h-1ZM561,59h-1v1h-1v-1h1ZM532,63h-1h2ZM533,63v-1h1v1ZM551,46h-1v-1h1ZM497,39h-1v-1h1ZM509,50v1l-1,-1ZM513,68h-1ZM507,69v1v-1h1ZM498,71h-1l1,-1h1ZM511,53h1ZM477,73h1ZM479,72h-1ZM473,73h-2l-1,1v-1h3v-1ZM450,73v-1ZM454,75h-2l-1,-1h1v1h1ZM425,71h-1h2ZM663,56l2,2h1l1,1h1v1l1,1h-1v-1h-2v-1h-1v-1h-2v-1h-2l-1,-1v-1h1l1,1ZM660,53h2l2,2h1l1,1l-1,-1h-1v-1h-1l2,1v1h1l1,1h-1v1l-2,-2h-1v-1h-1l-2,-2h-1v-1v1Z"/>
<path class="sl" d="M656,53h1l1,1v-1h1l1,1h1h-1v1h2v1l-1,-1h-2l1,1h-1l-1,-1h-1l-2,-1l-1,-1v-1l1,1l1,-1ZM673,61h2v1h1l1,1h2v1h1l1,1h1h-1l-1,-1v1h2l1,1h1l1,1v1h1h-1l-1,-1h-2v-1h-1l1,1l-2,-1l-1,-1h-1v-1h-2l-1,-1h1l-1,-1h-1ZM669,59h1l1,1h-1h1v1h1v1h-1v-1l-1,-1h-1v-1h-2v-1h1ZM588,48h3l-1,1v-1h-1v1h-1v-1v1h-3l1,-1h1h-1l1,-1ZM522,66l-2,1h-1l-1,1h-1v-1h1v-1h1l1,-1h2ZM528,64h1v-1l1,1h-1v1h1h-2v1h-4l1,-1h3l-1,-1h-1l1,-1h1ZM492,71l1,1h1h-4v-1l1,1v-1ZM486,72h-1l1,-1h2v-1h2v1h-1l-1,1ZM476,73h1h-1l-1,1h-1v-1h1v-1h1ZM469,74h-1v-1h-1h2ZM456,73h-1v-1h2ZM444,73h-1h1l1,-1h1h-1v1ZM422,69h2l-1,1h-2v-1h-1h1ZM634,284l-2,-1v-2l-1,-2l-1,-1l2,-2l-1,-1v-1l2,1l4,1l1,1v1l2,2v1l-2,1h-2l-1,1ZM620,266l2,1h2l-1,1l-2,-1h-1ZM626,269h2l1,1h1v1h-4v-1h-1l-1,-1v-1h1ZM615,264h1v2h-1l-1,-1h-1h1h-2v-1l-1,-1h2l1,-1ZM602,260v1h-2v-1h-1v-1l1,-1h2l1,1v1ZM596,261h-1l1,-1h1ZM623,270h-1v-1h-1h2ZM929,247l-1,-1h1ZM927,254v-1h-1v-1l1,1ZM927,252h-1v-1v1ZM929,258v1v-1l-1,-1l-1,-2l1,2ZM926,247l-1,-1v-1v1ZM933,267l1,1l-1,-2l-3,-4l-1,-2v-1l2,3l2,4ZM826,192h-1v-1ZM833,198h-1v-1ZM839,201h-1v-1h-1h1ZM827,192h-1ZM827,191l1,1h1h-2ZM837,197v1l-1,-1h-1h1ZM750,101l1,1h-1v-1v1ZM750,102h1h-2ZM754,104l1,1h-1h1l1,1h-1v-1h-1v-1h-1l-1,-1h1v1ZM930,245l-1,-1ZM929,245h1h-1v-1ZM931,247l-1,-1v-1v1ZM758,108v1v-1v1v-1h-1ZM757,107h-1ZM751,103v-1ZM815,666v-1ZM475,623h1l-1,1l-1,-1ZM485,602h-1v-1h1ZM477,625v1ZM62,543v1ZM61,555v-4h-1v-2l1,-1v-1l2,-1v-1h3l1,-1v-1h2v2l-2,2v1l-1,1h-1v1l-3,3v1ZM57,555l1,-1v-1h1v1h-1v1ZM12,395v1ZM12,392l1,-1v1ZM8,414h-1h1v-1ZM7,415v1ZM3,442l1,-1v-1v1ZM4,433v1l1,-1ZM76,287l-2,2v2l-1,1v1v-6l1,-2v-1h1v-2l1,-1v-1l4,-7l2,-2v-1l4,-4v3l-1,1v1l-1,1l-1,2l-1,1v1l-1,1l-1,2v2l-2,2v1l-2,2ZM74,275v1h-1v-1ZM148,191l-1,1v-1h1v-1ZM145,192v1h-1v-1v1v-1h1v-1ZM137,196h-1h1h-1h1v-1h1ZM153,173l-1,1ZM143,193v1v-1h1ZM147,182h-1l1,-1ZM138,194v-1h1ZM167,172h1ZM132,204v-1h1l2,-1v1l-1,1h-1ZM266,521h-1v-1h1ZM325,546h-1l-1,-1h1ZM318,538h-1l-1,1h-1v-1h1v-1h2ZM275,549v1h-1v-1l-1,-1h-2v-1l3,2ZM281,530v1h-1v-3ZM263,527h-1v-1h1ZM270,525h1v1h1v1h-1v-1h-1ZM252,520v1l1,1v1h-1v-1h-2v-2h-1l-1,1v-2l1,-1h1v1l1,1Z"/>
<path class="sl" d="M255,525v-2l1,1ZM254,524h-1v-2h2l-1,1ZM249,524l-1,-1l1,-1v1ZM243,518v-1l-1,-1v-1h1l1,1v1ZM243,520l-1,-1v-1h1v1ZM247,519h-1v-1h-1l1,-1h1v1ZM237,511h-1v-1h1ZM251,524v1l-1,-1ZM267,528l2,1h3l1,1h1l2,2v1h-3l-1,-1h-4l-2,-2v-2ZM268,521v1l-2,-2l-2,-1h-1l-1,-1h-2v-1h-1v-1h-1v-1l-2,-2l3,1l2,2h1l1,1h1l3,3ZM249,512v1h-1v-1h-2l-3,-3l-2,-1v-2l2,2l2,1h1v1l2,2ZM274,519l2,3v1l1,1h1v2h1v2l1,1v1h-1l-1,-2h-1v-1l-2,-2l-1,-3v-1l-1,-1v-1ZM283,537h4l1,2v1h-3l-1,-1l-2,-1l-1,-1v-1h-1v-1h1l2,1ZM3,482v1v-2ZM279,71l-2,1h-1h1l1,-1ZM344,50l1,-1v1ZM409,9h1h-1h2v-1h4l-1,1h-1v-1l-1,1h-3v1h-7v1h-1v-1h4v-1h5ZM417,8h3l-1,1h-3v-1h2ZM474,12v-1h3l1,-1v1h-1v1h-2ZM294,72l-2,2h-1l-1,2v1h-1v1l-2,1v1h-1v1h-1l-2,2v1h-1v1l-4,5v1l-1,1l-1,2v1h-1v3l-1,1v-3h-4l-6,6l-2,1l-1,1v1h-1v1h1l-1,1v1l-1,1h1v1l-2,2v-1l1,-1h-3l-1,1h-1v1l-2,1l-1,1v-1l1,-1l1,-2l2,-2h1v-1h1l1,-1v-1l1,-1h1l2,-2v-2h1v-1l1,-1h1l1,-2h1l4,-4v-1l1,-1h1v-1l1,-1h1l2,-2v-2l2,-2h1v-1h1l1,-2l2,-1l2,-2h3v-1h1l1,-1v-1l1,-1h1ZM481,10h3v1h1h-7v-1h2ZM402,63l-2,-1h-1h2ZM425,14h-1l1,-1ZM420,18v-1h1v-1h1l-1,1h-1ZM428,6h-1h2ZM379,17h-1ZM399,12h-1l1,-1h1ZM401,11v1h-3v1h-3l1,-1h4v-1ZM401,10h-1h2ZM391,13h1v-1v1ZM281,71h1h-1l-1,1h-1l-1,1v-1h-1v1l1,-1h1v-1h1ZM444,15h-3v-1h4v1ZM393,48h-1h1l1,-1h1v-1h2l2,-1v1h-1v1h-3ZM396,62l-1,1v-1h-1v-1l-1,-1h2v2ZM322,91h-1l2,-2h1l-1,1ZM334,84v-1h1ZM331,86h-2l-1,1h-1v-1h1l1,-1h2l2,-2v1l-1,1ZM317,94h-1h1v-1h1ZM331,83h1ZM308,99v1ZM300,104l-2,1h1l2,-2h1ZM284,112l-1,1h-1l2,-2h1l4,-2h1l-2,1h-1l-1,1h-1ZM277,114l-1,1h-1l-2,2h-2v1l-2,1h-1l-1,1h-1l1,-1h1v-1h1l2,-2h2l1,-1v-1h1v1h1l2,-1l1,-1v1h-1ZM262,124l1,-1v1ZM263,120v1l1,-1v1h-2l-3,3h-2l-1,1v-1h1l1,-1h1v-1h2l1,-2ZM65,319l1,2h1v-1l1,-1v2l-1,1v1l-1,2v2l-1,1h1v1h-1v1h1l-1,1v2l-2,3v1l-3,3v1h-1v3l-1,1v5l-1,1v6h1v-2l2,-2h1v3l1,-1v-1v1l1,1v-1v2h-1v5h1v2l-1,2v-2h-1l-1,-1v-4h-1v-2l-1,1v2l-1,-1v-1l-1,-1l-1,1v1l-1,1h-1v-2l-1,1l1,-2v-2l2,-2v-2h-1v-1v3h-1v1v-8l1,-3v-2l1,-1v-1v2h1v-2l1,-1v-3l1,-2l1,-1v-3l1,-1l1,-5h1v-1l1,-1v-1h1v-1ZM34,407l-1,1v-1h1v-2l2,-4v-1h1v-1l3,-6v-1l1,-2v-1h1v-2l1,-1v-2l1,-3v7l-1,1h-1v2h-1v1l-1,1v2l-1,3l-1,1v1h-1v1l-1,1v2l-2,2Z"/>
<path class="sl" d="M55,376l1,-1v2l1,-1v1l-1,1v1l-1,1v2h-1l-2,2v1h-1v-2l1,-1v-2l1,-2v-4h1v1h1ZM53,397v-2l-1,-1v-5h1l1,-1v-4h1v-3h1v-1l1,1v2l-1,2v1l-1,1v3l-1,1v5ZM62,376h1v-1v1l1,1h-1v8h-1v-1v2h-1v-3l1,-2v-2l-1,1v-5h1ZM66,365l1,1v1h-1h1v2l-1,1v7h-2v-6l-1,-1v-4h2ZM52,362l1,-1v1h1v3l-1,1v3l-1,1v1l-1,1v-9h-1l1,-1ZM65,392h1l-1,1v1l1,1v1h-1v13l-1,2l-1,1v4l-1,1v-8l-1,1v1l-1,1v2l-1,1h1v7l-2,2v-2h-1l-1,-1h-1l-1,-1v-7l1,-1v-1l1,-1l-1,-1v-1l-1,-1h-1v1l-1,2v-2l-1,1v-1h-1l-1,1v1l-1,2v3l-1,1v-3l1,-1v-4l1,-1v-1l1,-1h1l1,-1v-2h1v-1h1v-1h1v4l2,-2v-2l1,-1v1l1,-1v-2l1,-1h1v-1h1l1,-1v-6l2,2v1ZM55,393v-4h1v-2l1,-1v-2l1,-1v-1l1,-2v-2l1,-1v2l-1,1v3l-1,1v2h-1v2l-1,1l-1,3ZM68,316v1h-1l1,-1v-1ZM68,313l-1,1v-1ZM72,304v-1h1ZM73,301v1h-1ZM43,424v1l1,-1v2l-1,-1v1v-1l-1,1v-1ZM32,412v1v-2ZM44,388v-2l1,1ZM47,373h1v1h-1v1v-3ZM47,377l-1,1v-3h1v1ZM54,385h-1v1v-2l1,-1ZM60,389h-1v2h-2v-2l1,-1v-1h1v-1h1v2ZM40,432h-1v1v-1v1l-1,1v-1l1,-1v-1v1ZM47,420h-1v-2l1,-1l1,1v1h-1ZM66,388l-1,-1h1v-1v1ZM64,387v-4h1v3ZM51,360h-1v-1h1ZM56,360l1,1h-1v2l-1,-1v-1ZM55,370l-1,2v-3l1,-1v-1v1ZM56,370v-2h1v1ZM60,365v1v-1l-1,-1v-1v1ZM61,367v1l-1,-1v-1h1ZM60,369l1,1v3h-1v-2l-1,-1l-1,1v1v-1l1,-2v-2h1v1ZM65,357v1v-1v1h-1v-2l1,-2v-1v2h1l-1,1ZM58,356l-1,-1v-1ZM59,348v2l-1,1v-2h1l-1,-1ZM60,382v1ZM63,387l-1,-1v-1h1v1ZM51,411l-1,1v-1ZM61,412v-2l1,1ZM62,375v-1ZM60,394v1h-1v-1ZM66,315v1v-2ZM46,379l-1,1v-1ZM59,377v1ZM56,368h-1ZM65,389v1v-2ZM63,374v-1ZM33,409v1ZM56,395l-1,1v-2h1ZM215,492l-1,1v-1h-1v-4l-1,-1v-1l-2,-3l-1,-1h-1l-1,-1h-1l-3,-3l-2,-1l-1,-1h-1v-1h1l2,2h2v1h1l1,1l2,1l8,8v1l-1,1v1ZM207,489l2,-1v1h2l-1,1v1h1v1l-1,1v2h-2v1l1,1v2l-1,1h-3v1l-1,1v1h-1l-2,2h-1v1h-1l-1,1h-2l-2,1h-2v-1l-1,-1h-1l-1,1v-1l-3,-1l-1,-1h-1l-1,-1v-1l1,-1l1,1v-1h3l1,1h2l1,-1h1l1,-1v-4h1v4l1,1l1,-1h4v-2l1,-1v-1l1,-1h2l1,-1v-1l-1,-1v-4h1ZM139,538v-7l-1,-2v-8l-1,-2v-11l-1,-2v-16l-1,-1v-7l5,1v1h1l4,2h2l1,1h3l1,1h1v1l1,1h4v1h1l1,1v1h1v1h2l3,3v6h3l1,1l5,2h2l2,2v1h1v4h-4l-1,1v1l2,4l4,4h1l2,2v3h1l1,1l1,2v1l1,1h1l2,-1h1v4h4v1h1v1h-1v1l1,1h1l1,1h5l-1,1h-2v1h1v1l-1,1h-3v-1l-1,-1h-6l-1,-1h-7l-2,-2v-1h-1l-4,-4v-1l1,-1l-1,1l-1,-1h-1l-1,-2v-1l-2,-2v-1h-1v-1l-2,-1h-2l-1,-1h-3v-1h-1l-1,-1l-2,2h-2l-1,-1v-1h-1l1,1l1,3v1h-2v1h1l-1,1h-1l-2,1h-4v-1h-1h1v1l1,1v-1h2l1,1h1v1l1,1h1v2l-1,1h-1l-1,2l-1,1h-1l-1,-1h-3l-1,1h-1v-1h-2v1h-1Z"/>
<path class="sl" d="M181,505v-1h-1l-1,-1v-1h1l1,1v1ZM167,496v1v-2l1,1ZM212,478v1h-1v-1ZM208,477h-1v-1ZM191,466v1l-1,-1v-1h1ZM205,539l1,-1v2h-2v-1l-1,-1v-1l2,1ZM199,535l-1,-1v-1h1v1h1ZM204,528v1v-2l-1,-1l1,-1v2ZM229,549h-1v1h-1v-1h1h-1h1ZM155,531h-1l-1,-1h1ZM175,502l-1,-1v-1h1l1,1ZM173,472h2v1l-1,1v-1l-1,1h-3v-1l1,-1h1ZM196,476h-2v-1l-1,-1h1l1,-1l1,1v1ZM201,534h1l1,1v1h-2v-1l-1,-1ZM215,529h1l1,1h1l-1,1h-1v-1h-2ZM223,550l2,1l-1,1l-1,-1h-1v-1h-1v-1h1ZM155,532v1l-2,-2h-1h2ZM179,474h-1ZM207,476v-1ZM204,544v1ZM237,507v1h-1v1h-2v-1h-1l-1,-1v-3h-2v-1l-1,-1h-1v-4h2v1l2,2h1v2h2v1l1,1h1v1ZM227,497v-2h-1v-1h1v-1v2h1ZM83,441h-1ZM102,401v-2h1v1ZM156,163h1ZM404,784h1v-1h2l2,-2v2l1,-1h-1h2v1h-1v1h1v-1l1,-1v2h-1l-1,1h1v1l1,1v1l-1,1v1h-1v1l-1,1v1l-1,2l-1,1v1h-1l-1,1h-1h1v1h-1v1l1,-1v1l1,1h2v1h-3l-1,-1v1h-2l-1,-1v1h1v1h-1l-1,1h-2v1h-1h1v5h-1h1v1l-1,1v4h1l-1,1h-2v2l-2,1v1l-2,1h-6v-1h-1v-1h-3l-1,-1h-1v1h-4v-1l1,-1h-1v1h-1l1,-1h-2v-1h2l1,-1h-2l1,-1h-2l1,-1h1v-1h1h-2v-1h1v-1l1,-1l1,1l-1,-1h1v-1l1,-1v1v-2l2,-2v-1h2l1,-1h1v-1h1l1,-1h2v-2h1v-1h1v-1h1l1,-1v1v-1h1v-1h1v1v-1l-1,-1l1,-1h1l-1,-1v-2l1,-1v-1h1v-1h1v-2l1,-1l-1,-2l1,-2l1,-1h1v-1h1l1,1h-1v1l1,1h1v2h1ZM409,781h-1v-1h1ZM374,816h-1ZM374,813h1ZM385,824h-1h1v1v-1l1,1h-2v1h-2v-1h1l-1,-1h1l-1,-1h1ZM414,747h-1l-1,-1v-1h1v1ZM397,737v-1h1v1h2v1v-1h1v1h2v1h1l2,2v1l1,1h-2l4,4v4h2l2,1v1l1,1h1v-2l-1,-1v-2h-1v-1h1v1l1,1h1v1h1v2l1,2l1,1v1h1l3,1h1l3,1h2v-1h1v-1h1v-1h3l1,1h1l-1,1v5l-1,1h-1v4h-1v-1h-3v1h-2v3l1,1l-1,1v2l-1,1v1l-2,2v2l-2,2v1h-1l-2,1v1h-1v-1h-1v-1l-1,1l-1,-1v-1v1h-1v-1l2,-2v-3l1,-2h-1v-1l-1,-1l-2,-1h-2l-1,-1l-2,-1h-1l-1,-1v-2l1,-1h3v-6l1,-1v-3l-1,-1v-1h-1v-1l-1,-1h1v1v-1h2l-2,-1h-2v-2h-1l-1,-2l1,1h1v-1h-1v-2h-1v1l-2,-1v-1l-1,-1v1l2,2v1v-1h-1v-1l-5,-5h1v-1h-1v1h-1v-1l-1,-1v-2h-1v-1l-2,-1l-1,-2h2v1l2,2ZM402,859l1,1h-1ZM383,849l1,1h-1l-1,-1v1v-2h1ZM474,800l-1,1v-1h-1l1,1h-1l1,1h1h-1l-1,1v-2h-2l1,-1h1ZM475,804h-1l1,-1ZM508,522v-1ZM519,606h-1v-1h1ZM600,625h-1ZM321,449v-1ZM967,323v-1ZM923,294l1,1l-1,-1v-1ZM915,313h-1v-1ZM898,264l1,1h-1ZM874,232h1h-1l-3,-3v-1l3,3ZM870,238l-1,-1v-1h-1v-1l1,1v1Z"/>
<path class="sl" d="M878,233l1,2l-1,-1h-1v-2h1ZM853,229l-1,-1v-1l1,1ZM965,316l-1,-1ZM967,332v-1ZM904,272v-1l-1,-1l1,1ZM858,212v-1ZM893,256v1v-1v1ZM896,268l-2,-1h1ZM894,267l-1,-1v-1h-1v-2l-1,-2h1v3h1v2h1ZM4,442v-1v4h-1v1h1v-1v1v-2v16l-1,2v21l-1,-1v-28l1,-5v-6ZM30,444v-1h-2l-1,1v-1v1h-1l-1,1v7h-1v4h-1v5l-1,1v5l-1,1v2h-1v1l-1,1v1h-1v-1h-1v-1h-1v3l-1,1v2h-2v1l-1,1v-1l-1,-1v-4h1v-1l1,1v1h1h-1v-2l1,-1v-8l1,-1v-1l1,-1l1,-2l1,-1v-2l1,-2v-1l2,-5v-3h1v4l1,-1v-6l1,-1v1v-1l1,-1v-1l1,-1h-1v-2l1,-1v-1v1l1,-1v-2l1,-2v-1l1,-3l1,-5l1,1l-1,1v1l1,-1v-2h1v9h-1l1,-1h1v-1v3l1,-1v1l2,2v-1v3l-2,2h-1v3l1,1v1h-1v1h-1v1h-1v-1v1ZM4,470v-1ZM3,452v-1ZM3,442v1ZM32,418l-1,1v-1h1v-1ZM2,471v-1ZM14,465v-1ZM31,443v1ZM370,416h1ZM372,426h-1v-1v1ZM372,427v-1ZM372,433v1l-1,1l1,-1v-1v1l-1,-1ZM384,449v-2h-1h1v1ZM387,452v1h-1v-1ZM372,431v-1h1h-1ZM343,451h-1ZM508,479h-1ZM670,543v1ZM627,426l2,1h-2l-2,-1l1,-1v1h1v-1h-1h2ZM610,408l1,1h-1h1ZM504,464v1v-1h-1ZM171,179v-1h1ZM199,165l1,-1v-1h1l1,-1l-2,2ZM170,191h-1l2,-2h1l-1,1ZM137,222h-1v-1l1,-1v1ZM139,221h-1v-1l1,-1h1v-1l1,-1v1l-2,2ZM142,208v1v-1l1,-1v-1h1l-1,1ZM147,196h-1l1,-2l1,1h-1ZM148,194l1,-1v-1h1h-1v1ZM139,205v1v-1v1l-1,1v-1ZM144,207v-1h1h-1ZM244,118l-1,1v-1l1,-1ZM244,119h-1ZM222,138l1,-1v1ZM169,190h-1v-1h1ZM193,185h-1v-1h1ZM141,205h-1l2,-2v1h-1ZM144,202h-1h1v-1h1h-1ZM147,198v-1ZM160,193l-1,1v-1ZM158,195h-1ZM138,213l1,-1ZM180,240v-1ZM250,124h1v-1h1l1,1h2l1,-1l2,-1l-1,1l-2,1v1h-1v3l1,-1h1h-1l-1,1h-1l-1,1h-1l-1,1h-3l-1,1h-2l-4,4v1h-2l-2,-2h-3l-3,1v-1h-1l-2,2v1h1v1h1v1h-3l-1,1h-1v1h-2l2,-2v-1h1v-2l2,-2h1l1,-1h1v-1h1v-2h5v-1l1,-1h1v-1l2,-1v-1l2,-2h1l1,-2l1,-1v-1l2,-2h1v3l1,1v1l1,1ZM152,198h1l1,-1v1l-2,2h1v1l-1,1h1h-1v1l-2,2h-1v1l-2,2v1l-2,2l-1,2h-1v1h-1l-1,2h-1l2,-2v-2h1v-1h-1v1l-1,1v2h-2v-1h1v-1h1v-3l1,-1h1v-1l3,-3h-1l1,-1v-1l1,-1h-1v1h-1v2h-1l-1,1h-1h1v-3h1v1v-1h1h-1v-1l1,-1h1v-1l1,-1h1l1,-1h1v-1l1,-1h1v1ZM168,191h1l-1,1v1l-1,1h1l-2,1l-2,2h-1v1v-1h-1l-2,1l-2,2h-1v1l-2,2v-3h1v-2l-1,1h-1h1l1,-1l2,-1v-1h1v-1h1v-1l1,-1v1h2v-1h1v-1h1l1,-1h1ZM227,141h1l-1,1v1l-2,2v4l-1,1v1h-1v2l-2,1v1h-1l-3,3v1h-1l-1,1h-1l-2,2v1h-1v1l-2,4l-1,1h-1v1h-1l-1,2l-1,1v1h-1v3l-1,1h-1l-2,2v1h-1l-2,2h-1v-1h1v-1l2,-2h1v-1h-2v1l-1,1v1l-1,1v-1h-1l-1,1h-1v1l-2,2v1h-1v-1l1,-1v-1h1v-1l-1,1h-1l-3,3h-3l-1,1h-1l1,-1h1h-1l-1,-1v1v-1l1,-1h-1v1l-2,1v3l-2,1h-1l-3,3l-1,2h-2v-3l1,-1v-1h1v-1h1v-1h1h-3v-1v1h-2l-2,2h-2v1h-2v1h-4v1l-2,2v1l-1,-2l-1,1h-2l-1,1l1,-2l2,-2h1l1,-1h1v-1h1l4,-4l2,-1v-1h2l1,-1v1h1v-1h3l1,-1h1l2,-1h1v1h1l1,-1h1l1,-1v-1l3,-3h1l1,-2l2,-1l1,-1l1,-2l2,-2h1l1,-1v1h-1l-2,2h-1v3l2,-2l4,-2h1l2,-1v-1l1,-1h1v-1l1,-1l2,-1l1,-1h1v-1h1l1,-1v-1h1l1,-1v-1l2,-1v-1h1v-1h1v-1l1,-1v-1h-1h1v-1h1v-1h1v-1l3,-3h1v-1h1v-1l1,-1h1v1l-1,1v1v-1h2v-1h1v-1l-2,1l2,-2v-1Z"/>
<path class="sl" d="M93,270l-1,1h-1h1v-1l1,-1ZM90,272v-1h1v1ZM97,267v-1ZM114,250v1h-1v1h-1v1l-1,1v1h-1l1,-1v-1l2,-2v-1h1v1v-1l1,-1v1ZM121,242v-2h1l-1,1ZM125,238h-1v-1h1v-1h1l1,-1v1h-1v1h-1ZM124,239h-1v-1h1ZM188,196v-1h1ZM0,514v-1ZM32,555v3h-2v-6h1l1,1ZM28,553l1,1v2l-1,1v1v-1l-1,-1v-1h-1v-2h1v-1h1ZM5,506v2l1,2v3h1h-1v3l1,1l-1,1v-2l-1,-1v-4l-1,-1v-2h1v-1h-1v-1h1v-1v1v-1ZM49,514l1,2h-1v-1v4l1,1v1l-1,1v-1v3h-1v-11h1ZM48,521v1h-1v-1v1v-3l-1,-2h1v-2h1v5ZM9,457v1v-5l1,2v1h-1ZM9,515v2h-1v-1v1v-5l1,1v1ZM103,469h2v1l1,-1l1,2l1,1h1l-1,1h-2v-1l-1,-2v1l-1,-1h-1ZM104,477h4l1,1l2,-1v1h1h-1l-1,1h-3l-1,-1h-2ZM80,467l1,1h2v2h-2l-1,-1v-1h-1v1h1v1h1v1h-1v-1h-1v1v-1h-1v-1l1,-1h1ZM70,452h-1v-4l1,-1h1v3l-1,1ZM68,484v1h-3v-2l1,-1l1,1h1ZM60,493h-1v-2l1,1ZM59,487h2l-1,1h-1l-2,1v-1h1ZM55,488h1v-1v2l-1,1v-1l-2,2v-4h1ZM87,536v1h-1v-6h1v-3l1,1v4l-1,1v1ZM66,538l-1,1v1h-2v1h-1v-1l1,-2h1l1,-1ZM58,544h2v1l-2,1h-1v-2ZM81,479l-1,-1v-2l1,-1l1,1l-1,2ZM1,465v19l1,1v6h1v3l-1,1v6h1v6l1,1v5h1v1l1,3v14l1,1v8l-1,2v-1v1l-1,-1v-4l-1,-1v-2l-1,-1v-3l-1,-3v-6l-1,-1v-13l-1,-2v-27l1,-1v-13Z"/>
<path class="sp" d="M0,481v-3l1,-1v-13"/>
<path class="sl" d="M52,549l-1,1v1h-2l-1,1v1v-1h-1v1h-1v1l-1,-1h-1l-1,1v-1l-1,1l-1,-1v-2h1v-2h1v-1h1v1h1l1,1h2v-1h1l1,1v-2h1v-1l1,-1h-1v-1h1v3ZM43,559l1,1v1h1l1,1v1l1,1l-1,1v1h-1l-1,-1v-1l-2,-2v1h-1l-1,-1v-3h2l1,-1ZM36,551h1v-1v1h1v1v-1l1,1v2h-1v1h1h-1v1h-1v-1v1h-1v1h-1v1h-1v1h-1v-2l-1,-1v-2h1v-1h1l1,1v1h1v-2l-1,-1v-2h1ZM55,464l-1,2v1h-1v2l-1,1h-1l-1,1h-1l-1,1v-2h-1l-2,1h-1l-1,1h-1l-2,1l-1,-1l-1,1v1l-1,1v8l1,2l1,1v3h1l1,-1v-2l1,-2v-1l1,1h1v-2h2l1,-1v-1l1,-1l1,1v3h-1v-1h-1v1l-1,1v3l-1,1v1h-1l-1,1v2h-1v3h1v1l1,2v1l1,1v2h1v3l-1,1v1h1v1h1v2h1v3h-1l-2,2v3h-1v-1h-1v-6l-1,-1l-1,-3v-7h-2v1l-1,1v3h1v10l1,2v8l-2,2l-1,-1v-13l-1,-2v-3h-1l-1,1v-6h-1v-1h1v-5l1,-1v-10l1,-2v1v-11l1,-1v-2l1,-1v-1v1h1v-2l1,-1v-2h2v2l1,-1l1,1l1,-1h1v1h1v-1h1l2,1l2,-2l1,-2v-2h1v-1l1,-1v-1h1v3l-1,1v1ZM10,542v2h1v-1v1l1,1v3l1,-1v1l1,-1h2v-5l1,2v-1l2,2h1v2l1,1v2l1,1h1v-1h1v-1l1,1v2l1,3v2l1,1v1h-1v-1h-1l-2,-2h-1v1h-2l-1,1h-1l-3,-3h-2v2l-2,-2h-1v-1h-1v-3h-1v-1v1v-8h1v-1ZM11,470v7l1,1v1l1,-1v-1h2v-2l1,-1v-3h1v1h1v1h1v-1l1,-1v-1h1v-2l1,-1v-5l1,-1v-5h1v-4h1v-7l1,-1h1v-1v1l1,-1h2v3l1,1v1h-1v1h-1v4h1v4l1,1v3h-1v2h1v2l1,2h1v2h1v1l-2,2h-1v-2h-1v3l-1,5v10h-1v3h-1v-1v3l-1,1v6h1v3h-1v1v-1v10l-2,3l-1,3l-1,-1v-5h-1v-1l-1,1v1v-2l-1,-1v1l-1,-2v3l-2,2v1v-2l-1,-2v-1v1l-1,-1v2h-1v-1v1v-1h-1v-8h-1v-8h-1v-10l-1,-1v-6l1,-1v-1v-6ZM66,463h1v-2l1,-1v-2h1v-2h2v4l-2,2v2l2,2v1h-1l-1,-1h-2v6l2,4v1l-1,-1l-1,-2v-1h-1v-7l-1,-1l1,-1v-1l-1,-1v-2l1,-2v-4l1,-1v-1l1,-1v1l-1,1v2h1v4l-2,2v1ZM76,493l1,1h2l1,1v2h1v4l-2,-2l-2,-1l-1,-1h-1v2l-1,-1h-2v-1v1l-1,1h-1l-1,-1v-1l-1,1v1v-1l1,-3l2,-1h3v-1h1ZM63,498h1v1l1,1v2l-1,1v1h-2l-2,-2v-3h1v-1h1ZM60,550v1h1v6l-1,2v2h-1v1l-1,1h-1v-2h-1v-4l1,-1v-1h1v-1h1v-1h-1l2,-2ZM102,514v5h-2v-1l-1,-1h1v-2l-1,-1h1v-3h1v2h1ZM101,520v4l-1,1l-1,-1v-3h1l-1,-1v-2l1,1ZM125,533l-2,1h-2l-1,1v-5l1,-2v-1l1,-1l2,-1h1l1,1v1h1l-1,2v2l-1,1ZM135,482v7l1,1v16l1,2v11l1,2v8l1,2v7l-2,-2v-1l-4,-4v-2l-2,2h-2l-1,-1v1l-1,1h-1v-3h1v-3h-1v-2h-1v-1h2h-2v-1l-1,-1l1,-1l-1,-1v-1l-2,-2v-2l-1,-1v-1h1h-1v-1h-1v-2h-1v-1h-1v-1l-3,-1v-1h-2l-2,-1h-1l-1,-1h-1v-1h-5l-2,-2v-2h1h-1l-1,1h-1v-1l-1,1v-1h-1l-2,-2v-3l1,-1v-1h-1v4h-1v4l-1,2h-1l-1,-1v-5l-3,-3h-1v-1h-1l2,-2l1,1h1l1,-1l1,-2h2l1,1v-2h1v-1h-1l1,-1v-1l-1,1h-2l-1,1h-3l-1,1l-1,-1v-1h-1v-4h-1l-2,-1h-1v1h-1v-1l1,-1v-4h1l2,-1l1,-1v-1l2,-2h2l2,2h4l1,1l-1,1l1,1v2h1l-1,1v8l2,4v-3h1v4h1v-1v3l1,1h2l1,-1v-1l1,-2l1,-1v-1l1,-2l1,-1v-2h1l1,-1l2,-1v-2l4,-4l1,1l3,1l2,2h1l1,1h1l2,1h3v1h3v1Z"/>
<path class="sl" d="M127,534h-2v-2h1l1,1ZM1,478v1ZM2,487v-1ZM2,483v1v-1l-1,-1h1ZM2,488v1v-2ZM2,487v-1ZM2,490v-1ZM2,488v1v-2ZM3,483v1v-1v1ZM4,482v3l-1,1v-3ZM4,494v1h-1v-1ZM3,496v1ZM3,497h-1v-1h1ZM11,498l-1,1v-2l1,-1v1ZM23,545l-1,1v1h-1v-1h-1v-2h1l2,-1v1ZM101,474l-1,-1v-1h1v1ZM64,475v-1ZM66,473v3h1v1l-1,1v-1h-1v-1l-1,-1l1,-1v-1v1v-1ZM93,517l-1,1l1,-2v-4h1v2l-1,1ZM92,517h-1v-3l1,1v1ZM70,502h-1l-1,1v-2h1v-1h1v1ZM63,436v-1l1,-1h-1v-1l1,-1v3ZM58,442v1v-2ZM85,540v-3l1,1l-1,1ZM80,537v1h-1v-2h1ZM71,540l1,1v-1v2l-1,-1ZM78,483h1v1h-1l1,1h-1v1h-1l-1,-1h-1l2,-2ZM4,543v-1ZM1,525v1v-2ZM1,521v1v-2ZM1,518v-1ZM0,504v-1ZM46,523l-1,-1v-2h1v1ZM48,485v1l1,-1v2h-1v1v-2l-1,2v-3l1,-1ZM43,479v1h-1ZM41,532v-3ZM27,542l-1,1v-2h1ZM27,515l-1,1v-4l1,1v1ZM55,569v-2h1v-1h1l-1,1v1ZM57,546v1l-1,1v-2l1,-1v-1v1ZM55,545v2h-1v2l-1,-1v-1h1v-1h-1h1ZM53,547h-1v-1h1ZM102,521v-1ZM2,485v1v-2ZM3,487v-1ZM3,486v-1ZM4,492v1l-1,-1v-1v1ZM6,464v1v-2ZM5,467v-1ZM10,463v1ZM9,503v-1ZM8,515h-1ZM7,517v-1ZM24,545v-1ZM19,535v-1ZM7,550v-1ZM50,489h-1v-2l1,1ZM49,510v1h-1v-2h1ZM51,491l-1,-1ZM48,490v1ZM40,554v-1ZM39,550h-1v-1h1ZM29,558v-1ZM31,444v-1v2ZM30,451v1v-2ZM54,525v1l-1,-1ZM52,520v1h-1v-1ZM43,538v1h-1v-1ZM34,552v-1ZM27,511v1v-2ZM65,464h-1v-1h1ZM98,483v-1ZM95,502l-1,-1v1ZM81,474v1h-1l-2,1l1,-1h1v-1ZM79,472v-1h1v1ZM74,470v-1l-1,-1ZM65,471v-1ZM65,465v-1ZM64,477v1v-2ZM71,500v1v-1v1ZM71,501h-1v-1h1ZM63,438v-1ZM63,438v1v-1h1ZM57,449v1v-2ZM89,529h-1v-1h1ZM74,532h-1v-1h1ZM69,537v-1h-1h1ZM56,563v1v-2ZM51,567h-1h1v-1ZM103,520v-1ZM102,523v-1h1ZM68,495v1h-1h1ZM66,499h1ZM52,549v-1h1h-1ZM978,356v-1ZM978,356h1l-1,-1ZM466,556h-1h1v-1ZM450,565h-1v-1v1ZM669,589v-1ZM681,597h-1v-1h1ZM669,591v-1ZM685,598l1,1l-1,1v-1h-3v-2h3ZM769,534l1,1h-2ZM769,536l-1,1v-1ZM771,541v1ZM762,527h-1v-1h1ZM762,531h-1l1,-1ZM747,604v-1l1,-1h1l-1,1h-1ZM766,527h-1ZM747,606v1l-1,-1v-1v1ZM777,612v-1h-1h1ZM773,610v-1ZM759,630h-1v-1ZM737,588v-1h1ZM730,592h-1ZM729,592l-1,-1ZM719,584v1v-1h-1v-1ZM715,588v-1h-1v-1l1,1ZM312,620v1h3l3,3h2v1h1v1h1v1l1,1h1l1,1h1v1h1l4,2v1l1,1h1l2,2v1h-2l-1,-1h-2l-1,-1h-1v-1h-1l-1,-1h-1l-1,-1l-2,-1h-1l-2,-2h-1v-1l-2,-2h-1l-2,-2l-1,-2h-1v-1l-1,-1Z"/>
<path class="sl" d="M340,639h-1v-1v1ZM279,614v-1ZM342,629h1v1l-1,1l-2,-2l1,-1ZM330,623h-1h1v-1ZM337,627h-1v-1h-2v-1l1,-1h-1v-1h2v2l1,1ZM434,581l-2,2v1h-1v2l2,-2h1v1h-1v1h1h-2l-1,1h-2v-1h-1l-2,1v1h-3v-1h-1v-1l1,-1v1l1,-1h1l1,-1h1l1,-1h1l1,-1h3ZM420,592h1v1l1,1h1v3l1,1h-3l-1,1h-1l-1,1l-1,-1h-3l-2,-2v-1h1v-2l1,-1h1l2,-1h2l1,-1ZM435,588h-1v-1l1,-1h1l-1,1ZM434,588v-1ZM423,606h-2l-1,1h-1v-1h1l1,-1h1ZM443,597h-1v-1h1ZM445,599h-1l1,-1ZM449,596h-1ZM443,591v-1ZM447,607v-1ZM437,605h-1v1v-1ZM412,590h-1l1,-1ZM430,592h-1v-1h1ZM429,598v-1l1,1ZM425,595l-1,-1h1ZM435,584h-1ZM434,581h1ZM409,550h-1ZM446,620v-1ZM995,498v-1ZM996,500v1v-2ZM993,494v-1ZM995,503l-1,-1h1ZM994,490v9h-1v-2l1,-1v-2l-1,-1v-4ZM995,494h-1v-1ZM964,313l-1,-1Z"/>
<path class="sp" d="M963,312l1,1"/>
<path class="sl" d="M73,275v1ZM110,220l-1,-1h1v-1v1l1,1ZM106,231h-1v-1h1ZM104,233v-1ZM106,231h-1ZM81,266v1v-1l1,-1v1ZM45,309v1v-1v1h-1v-1ZM95,245v1ZM56,293v-1ZM51,303v-1ZM51,303h-1l1,-1ZM42,318v1l-1,1v1l-1,3h-1v2l-1,2v1h-1v1h-1v2l-1,1h-1v-1l1,-2v-1l1,-3v-1h1v-1l1,-2l1,-1v-1h1v-1l1,-1h1v-1ZM54,298v-1ZM56,295v-1h1v1h-1v1ZM56,297v-1ZM55,297l1,-1h-1ZM686,71h2l1,1v1h1v-1h-1v-1h1v1h1v1h1v1l1,1h-3l-1,-1h2h-2l-1,-1h-1l-3,-3h1v1ZM694,75l1,1h1l-1,1v-1v1h2v1l2,1h1v1h1h-1l-1,-1h-1l-1,-1l-2,-1h-2v-1l-1,-1h-1h2ZM724,89l2,1l3,1h2l1,1h1l1,1h1l3,3l2,1h2l1,1h1v1l1,1h1l2,2v-1h1l1,1v1l-1,-1v1l-1,-1h-1l-2,-1h-2v-1h-2v-2h-1l1,1h-1l-1,-1v1h-1v-1h-1v-1h-2v-1h-3v-1h-1h1v-1h-2v-1h-3v-1h-2l-1,-1v1v-1h-1l-1,-1h1v-1h-1v1h-1v-1h-1l-1,-1h2ZM591,8h1v1h5v1l-1,-1h-1h1h-1h1v1h1h-1l-1,-1h-5v-1v1v-1h-2h2ZM615,13l1,1h-1h1h-1v-1h-4v-1h-4l-1,-1h-5v-1l1,1l-1,-1h-1h1h-1h2v1h4l1,1h4l1,1h2Z"/>
<path class="sp" d="M610,12h1l1,1h3"/>
<path class="sl" d="M664,28l-1,-1h-1h1h-1h1l1,1l-1,-1h-1h1v1h3v1h1h-1h1l-1,-1h-3v-1h-3v-1v1h1l1,1h-1l-1,-1h-3l-1,-1h-2l-1,-1h-3v-1h-4l-1,-1h-3l-1,-1h-1h5l1,1h1h-1l-1,-1l-3,-1h-5l-1,-1h-1l-3,-1h-1h1h-1l-1,-1h-3l-1,-1h-3v-1h-2l-1,-1h2v1h4v1h1h-1v-1h-1h1l1,1h3l1,1h1h-1l-1,-1h1v1h3v1h3l2,1h2v1h1h-1v-1h-3l-1,-1h-2l-1,-1l-5,-1h2l1,1h3v1h3l1,1l5,1l1,1h3v1h2l1,1h3l1,1h1h-1h2l2,1h1l1,1h2Z"/>
<path class="sp" d="M659,26h1l1,1h2l1,1"/>
<path class="sl" d="M608,13v-1l1,1h1h-1h4l3,1h2v1h1v1h3v1h1v1h-1l-1,-1h-3l-1,-1h-2l-2,-1h-3v-1h-2v-1h-3v-1h-3l-2,-1h3l1,1h4ZM635,19v-1h-4l-1,-1h-1h1l1,1h3Z"/>
<path class="sp" d="M628,17h2l1,1h3l1,1"/>
<path class="sl" d="M600,10h1h-2ZM691,70v-1ZM702,81h-1v-1ZM696,72v1l-1,-1v1v-1ZM702,76h-1l-1,-1h-1l-1,-1h-1h1l1,1h1ZM691,69v-1h1v1ZM708,78l2,2v1v-1h-1v-1h-1v-1v1l-1,-1h-1l-2,-2h1l1,1h1ZM734,96l1,1h-1ZM741,96h-2v-1h-1h1l1,1ZM731,95l-1,-1h-1v-1l1,1h1ZM734,93h1h-1l-1,-1h-1v-1h1v1h1ZM708,80l-1,-1h1ZM717,85h-1l-1,-1h2ZM711,80h-1l-1,-1h1v1ZM704,77h-1v-1ZM704,77v-1h-1h1ZM748,101h-1l-1,-1h1ZM747,100h-1l-1,-1l1,1ZM735,93l-1,-1ZM596,10h-1v-1v1ZM598,10l-2,-1h1v1ZM672,31v-1h-1h1Z"/>
<path class="sp" d="M670,30h2"/>
<path class="sl" d="M666,28h-1ZM672,30h-1ZM670,30h-1l-1,-1h1v1ZM673,32h1h-2v-1h-1h1ZM667,30h1ZM676,33h1ZM667,30l-1,-1ZM595,17h-1h2ZM12,398v-1ZM24,440v1ZM24,440l-1,1v6l-1,1v-4h-1h1v-1l1,-1v-2h1v-1ZM973,341v1v-2ZM975,346v1v-2h-1h1ZM156,561v4h1v1l1,1v1l1,1v2l1,2v1l1,2v2l1,2l1,1v1h2v-1l1,-1h1l1,1v1l2,1l2,2h1v3l1,1v1l1,2v1l1,2v3l1,1v1h1l1,2h1v1l3,5v5l2,2h1v3l1,1v1h1l1,1h2l1,1h3v2l2,1l1,1h2l1,1h2l1,2h1v1h-1v1l5,5v1l2,2v2l2,4h1v1h1v-1l1,1v1v-4l3,3h1v-1l1,1l3,8l3,3l2,1h1l1,1h1l2,3l2,1l1,1v1l4,4l1,2v1h1l1,1v3l2,5v2l3,5l1,1v1l2,1v3l1,1v6l1,5v5l1,2v2l1,2v3l-1,2v5h-1h1l-1,1h-1v1l-1,2v5l1,1v1l-1,-1v1h1l-1,1v5l1,1v2h-1v6l1,1v2l1,2v2l1,2l1,1v2h-1v2h-3l-4,1l-2,1v1l-1,1l-1,4h-3v1l1,1v-1l1,1v1l-1,-1h-2l-2,-2h-2v-2h-1v-1l-1,1v1l-1,1v-1h-1h1v-2l-2,-2l-1,2h-1l1,1v-1l1,1l-2,2v2h-1v1l-2,-1h-1l-2,-1h-1l-1,-1h-1v1l-2,-1h-1v1h-1l-2,-2h-3l-2,-1l-4,-4h-1l-1,-1v-1l-1,-1v-2l-4,-4h-1l-1,-2h-2v-1h-1h1v-1l1,1v-2h-2v2h-1v1h-2v-3l-2,-4l-4,-4v2l2,5l-1,1v-1l-2,2l-1,-3h2l-1,-1v-2h-1v-2l-1,-1v-5l-1,-2h-1l1,-1l-2,-3h-1v-1v1l1,1v1l-1,1v1l1,2v2h-1v1l-1,1v6l2,2h-2l-1,-1h-1l-1,-1h-1v-1l1,1h1l-1,-2l-1,-1h-1l-1,-2l-1,-1l-2,-1v-1l-2,-2h-2l-1,-2l-1,-1v-2l-2,-1l-1,-1h-3l-3,-1h-2l-3,-2h-2l-1,-1h-1v1h-1l-4,2h-2v1l-1,1l-1,2l-3,3h-4v2l-1,1l-1,3l-1,1v1l1,3l1,1v2l-1,1h-2l-1,1l-1,-1h-2l-2,2h-1l-1,1v1l1,2v1h-1v3l1,2h-1v1h-3l-1,-1h-1l-2,-2h-1l-1,-1h-1v-1l-2,-2l-1,-3v1h1v-1l-1,-1v-2l-3,-3v-1l-1,-1l-3,-6l-2,-3l-3,-3l-1,-2l-2,-2l-3,-6l-2,-3l-2,-2v-1l-1,-1l-1,-2l-2,-2l-2,-3l-1,-2l-2,-3l-3,-3v-2h-1h1l-1,-1l1,1l1,2l1,1v-1l-1,-2h-1v-1l-1,-2l-1,-1v-1v1l2,2v1v-1l1,2l1,1v-1l-1,-2v-1l-1,-1l-1,-2l-2,-3l-1,-1l-1,-2l-2,-2v-2l-1,-1v-2l-1,-1v-3l-1,-1v-1l-1,-1v-2l-1,-1l-2,-6v-1l1,1v2l1,1v1h1v-1l-1,-1v-11l1,-3v-1h2l1,-1v-3h1l1,-1v-3h2v-1h1l1,-1l1,-2v-15l-2,-4v-6l1,-1l-1,-2v-1h1l1,2v2l1,1l1,2l1,1v1v-3l-1,-1v-1l1,1v-2l-2,-2v-2l-1,-1l1,-1l1,2v-1h1v1l1,-1h1h-1l-1,-1v-1h1v-2l-1,-1v1l-1,-1v-2l1,-1v-1h-1h1l1,1v-1h-1v-3h1v1h1v-1l-2,-2v-2h1v-3l1,1v1l1,1v-4l-1,-1v-1l1,1v1h1l-1,-1h1l1,1v-4h1v1h1l1,1h1v1l2,2l1,2h1v4h1v1v-1l-1,-1v-1l1,-1v-1l3,1v1l1,1v-1l-1,-1v-1h1v1l1,1h1l-1,-1v-1h1v-1h-1l-1,-1l1,-1h-1l-1,-1v-3l1,-1v-4l1,-1v-1l-1,-1v-2l1,-1v-2h1l-1,-1v-1h1v1h1v-1l-1,-1h1v-1h1v-1v1h2l1,-1v1h1v-1h1v1v-1l1,-1h1l-1,-1v-3l-1,-1h-2l-1,-1h-1v-1l1,-1l1,1v-1h1l1,1l1,2v-2h1v1l1,1v1h4l2,2h2l1,-1v1l1,1h1l2,-2v-1l1,-1h1h-1v1h1l-1,1v1h1v-1l1,1v2h1v-5h1l1,2h1l1,1l-2,4v1h1v1l-1,2h-1l-1,1v3l1,2v3l-1,1v3l-1,1l1,1v1h1l2,2l2,1v1h1l1,1h1v1l1,1l1,-1v1h1l2,2h1l4,4h3l2,1v1h1v1l1,1h1l2,2h1l1,1h1l3,-3v-4l1,-3v-5l-1,-2v-9l-1,-3v-3l-1,-1v-1l-1,-1v-8l1,-1v-1l-2,-2l1,-3v-1v1h1v-1h-1l1,-3v-6l1,-1v-1h1v1l1,1v1l1,1v4l1,1v1h1Z"/>
<path class="sl" d="M243,671v1l-1,-1v-3l-1,-1l1,-1v-2h-1v-1h1l1,1v5ZM142,603l-1,1v1h-1v-2l1,-1h1l1,1ZM122,582v-1v1h1v1h-1v2h2v1h-4l1,-1l-1,-1v-1l1,-1v-1ZM87,569h1v1h-2v1v-5l1,1v1ZM88,566l1,-1v1v-1h1v-1h1v1h1v2l-1,1l-1,3l-2,-2v-1l-1,-1v-1l-1,-1h1v1ZM67,704l-2,-2l-1,-2l2,2v1ZM188,759h3v1h-2v1h-3v1h-1l-2,-2h1l2,-2h2ZM236,773l-1,1v-1h-1h1ZM235,774l1,1h-2ZM206,628v1l-1,-1v-1v1ZM205,627v-1ZM226,654v1h1v1h-1l-1,-2ZM219,645v-1ZM215,644v-1ZM250,685v2h-1v-2ZM249,684l-1,-1v-1v1ZM149,551l-1,1v-2ZM149,547h-1v-1ZM148,546v1l-1,-1v-1ZM185,613v2l-1,-1v-1ZM118,561l-1,1v-1l1,-1v-2v2ZM116,563v1v-1l1,-1v1ZM127,599l-1,-1v-1l1,1ZM126,597h-1v-1ZM124,598v-1ZM142,608v-1h1v1ZM119,583v-1ZM97,564l-1,-1v-2l1,1v1ZM70,598v1v-2ZM69,606v-1ZM54,659v1v-2ZM243,791h2l1,1h1l2,1h3v-1l1,1v-1h-1h1v-1h2v-1h2v-1l2,1l1,2l1,1v2h1v2h1v1h1v1h-1v-1v4l1,1v1l2,2h-1v1l-1,-1v-1l-1,-1v1h-1l-1,-1l1,1v1l1,1h-1v3l-2,-1h-1l-1,1v-1h-1l1,-1h-2l-2,-2h-1l-2,-3h-1l-1,-2l1,1h1v1v-1l-1,-1h-1v-1v1v-1h-1l-1,-2l-2,-1l-1,-1v-1h-1l-1,-1v-1h-1v-2ZM235,787h-1v-1l-1,-1v-2h1v2l1,1ZM253,782l2,1l2,2h-1v1l-3,-3ZM264,808v1h-1v-2ZM265,803h-1v-1h1ZM264,807h-1v-1ZM240,789v1ZM257,786h1v1h-2v-1ZM257,787v1ZM360,875l-1,-1h1ZM13,582v1ZM11,606v-1ZM60,581v1ZM679,960v-1h1h-1ZM685,965h-2l-1,1h-2l-1,1h-1l-1,1h-2l-1,1h-1l-1,1h-2l-1,1h-2l-1,1h-2l-1,1h-2l-1,1h-2l-1,1h-2l-1,1h-2l-1,1h-2l-1,1h-1h1h-3l-1,1h-2l-1,1h-3l-1,1h-2l-1,1h-1h1l1,-1h1h-1l-1,1h-3v1h-4l-1,1h-1h1h-3v1h-1l1,-1h1h-1h1h-2v1h-4l-1,1h-4l1,-1h1v-1l-2,1h-1l-2,1h-3v1h-4l1,-1h2v-1h-1l-4,2h-1l-1,1h-2v-1h2l1,-1h2l1,-1h1h-1l-1,1h-3l-2,1h-1l-1,1h-2l-1,1h-2l-2,1h-2l1,-1l-1,1h-1h1h-3v1h-4l-1,1h1h-3v1h-5l-1,1h-7v1h-9v1h2l-1,1h-1h1h-4l-1,1h-10l-1,1h-16l-1,1h-44l-1,-1h-15l-1,-1h-11l-1,-1h-7l-1,-1h-8l-1,-1h-5l-1,-1h-5l-1,-1h-6l-1,-1h-5l-1,-1h-3l-1,-1h-5l-1,-1h-3l-1,-1h-4l-1,-1h-3l-1,-1h-3l-1,-1h-3l-1,-1h-3l-1,-1h-3l-1,-1h-2l-1,-1h-3l-1,-1h-2l-1,-1h-3l-1,-1h-2l-1,-1h-2l-1,-1h-2l-1,-1h-2l-1,-1h-2l-1,-1h-2l-1,-1h-2l-1,-1h-2l-1,-1h-1l-1,-1h-2l-1,-1h-2l-1,-1h-1l-4,-2h-1l-2,-1h-1l-1,-1h-2v-1h-1l-1,-1l-2,-1h-1v-1h-1l-1,-1h-1v-1l1,1v-1h-2v-1v1h1v-1h-1l-1,-1h1v-1h-1v-1l-2,-1h-1v-1h-1h8l1,1v-1l1,1h2l-2,-2l-4,-2v-2h1l1,1h1l3,1h2l2,1l1,1h1v1l1,1h1v-1h-1l1,-1h-1h2v-1h2v-1h1v2h1v-2h1l-1,-1v-1h1v-1h2l-1,-1v-1l1,1h1l2,1h3l1,1v-1l2,1v-1l-1,-1l-2,-1v-2h3v-1h5l1,1h1v-1l-1,-1h1l2,1h2l1,-1l1,1h14l1,1l1,-1h5v1l2,2v1h1v-1h1v-1h3l3,1l1,1l2,1h4l1,-1h5l1,1h7v-1h-1v-1h1l2,1l1,1h3l2,1h10l2,1h1l1,1l2,1h2l3,2l1,1v-1l2,1l-2,-2h-1v-1h1l2,1h13v1h2l1,1h1l3,1h2v-1l1,1h1v1h-1v2h1v1l-1,-1h-3l1,1h3v1l-1,1l-1,-1h-1v1h-2l-1,-1h-1l1,1h2l1,1h-4v1h1h-1v1l-2,-2h-1v1h2v1l1,1h2v1h-3l-1,-1h-1v2l1,1h-1l-1,1h3l1,1h1l2,2h1v1h1v1h2l1,1h1l1,1h2v1h1v-1h1l1,1h3v1h-5l-1,1l-2,-1h-1l2,1h-1v1h1v1h1h-1h2v1h-1v1h4v1h2v1h3l1,1h3l-1,1h-1h8v1h2v1h9v1h11l3,1h6l2,1v-1h1h-1l-4,-1h-1h1v-1h-4v-1h-2l-3,-1h3l2,1h7v1h2l2,-1h4v-1h3v-2h1l-2,-1h12v-1h-1h1l-1,-1h4v-1h1l-1,-1h-2l-1,-1h-3l-1,-1h-1v-1h3l1,-1h-6v-1l2,-2h6l2,1h3l1,1h5v-1h-1h4v1h2v-1h1h-1h1v-1h1h-1v-1h-5v-1h4l2,1h2v-1h-1h1l1,-1h9l1,1v-1h2l2,-1h7l2,-1h3v1h6l1,1h11l4,1h9l1,1l4,-2h1v1h-1l-1,1h-2l-2,1h-1h6v-1h3l-1,1h-2l-1,1h-3l-1,1l1,-1l1,1h1v1h6l1,1h-2v1h4v-1h1v-1h2l1,-1h-1h1l2,-1h1v-1h1l1,-1v1h1h-1h4v-1h-1l-1,-1h1l2,-1h1h-1v1h2l1,1v1h-1h2v1h-1h2v1h2l1,-1h2l-1,1h-2l-1,1h1h-1h1l-1,1h-2v1h-1l-1,1h2l1,-1h2l1,-1h1l-1,1h-2l-1,1h-1h1l-1,1h-1l-1,1h4l1,-1h2l2,-1h2l1,-1h2l4,-2h2l1,-1h2l4,-2h2l1,-1h2l1,-1h1l1,-1h2l1,-1h3l1,-1h1l1,-1h2v-1v1v-1h2l1,-1h1l-2,1h-1h1h-1h1l1,-1h1l1,-1h1h-1l-1,1h-1l-1,1h-1Z"/>
<path class="sp" d="M673,969l-1,1h-2l-1,1h-2l-1,1h-2l-1,1h-2l-1,1h-2M658,974l-1,1h-2M654,976h-2l-1,1h-2M555,997h-4l-1,1h-10l-1,1h-16l-1,1h-44l-1,-1h-15l-1,-1h-11l-1,-1h-7l-1,-1h-8l-1,-1h-5l-1,-1h-5l-1,-1h-6l-1,-1h-5l-1,-1h-3l-1,-1h-5l-1,-1h-3l-1,-1h-4l-1,-1h-3l-1,-1h-3l-1,-1h-3l-1,-1h-3l-1,-1h-3l-1,-1h-2l-1,-1h-3l-1,-1h-2l-1,-1h-3l-1,-1h-2l-1,-1h-2l-1,-1h-2l-1,-1h-2l-1,-1h-2l-1,-1h-2l-1,-1h-2l-1,-1h-2l-1,-1h-1l-1,-1h-2l-1,-1h-2l-1,-1h-1M690,962l-1,1h-1l-1,1h-1l-1,1"/>
<path class="sl" d="M578,994h-3l-1,1h-7v1l1,-1h2l1,-1h9v-1h6l1,-1l-1,1h-5l-1,1h-1Z"/>
<path class="sp" d="M577,994h-2l-1,1M587,992l-1,1h-5l-1,1h-2"/>
<path class="sl" d="M578,993h-2l-1,1h-2l1,-1h4l2,-1h1h-1l-1,1h2l1,-1h1l-1,1h-3ZM674,968l-1,1h-1l-2,1h-1l-2,1h-1l-3,1l-1,1h-2l-1,1h-2l-1,1l-4,1h-2l-1,1h-2l-1,1v-1h2v-1h1v1v-1h3v-1h2l1,-1l-2,1h1v-1l-1,1h-1h1v-1h3v-1h1l-1,1h1v-1h1l-1,1h-1h1v-1h1v1h-1h1v-1h2l-2,1h1v-1h2l1,-1h3v-1h1l2,-1h2l1,-1h2v-1h2l1,-1h1l-1,1ZM649,967h-1h1h-1v1h-1h1l1,-1h2l-2,1h-1h1l-1,1h-4v-1l1,-1l-1,-1h4l-1,1l1,-1v1l1,-1h1ZM610,966l-1,1h-3l-1,1h-2l-1,-1h2l2,-2l1,1h2ZM603,963v2h-1h1v1h-1v1h-2v-2h-1l2,-2h1ZM520,978h-4l-2,-1h-1v-1h1l1,-1h2v1h2v1h1ZM461,972h5l-1,1h-3v1v-1h-2v-1ZM588,991v-1h5l1,-1h3l-1,1h-7ZM686,964h-1h1h-1v1h-1l1,-1h2v-1h2l1,-1h1l-1,1h-3v1ZM664,971l-1,1h-2l1,-1h3ZM672,968l-1,1h-3v1l1,-1h1l1,-1ZM644,977l-1,1h-3l3,-1h3v-1h1l-1,1h-1ZM643,972h2l1,-1h1l-1,1h-2ZM464,974v1h-2v-1h1ZM294,951h-1v-1h-1h2ZM583,992h1l1,-1h1l-1,1h-1ZM588,991h1l1,-1h1h-1v1h-1ZM671,969h1l1,-1v1ZM645,970h2v-1v1h-1ZM634,969h-1l1,-1h1ZM609,967h-1h3v-1v1h1h-2ZM593,967l1,-1v1h1h-1ZM511,986h-2v-1h1ZM515,982h-1ZM447,965h-1v-1h1ZM447,967l1,1h-1ZM456,960h-1v-1ZM425,938h-1v-1h1ZM418,935l-1,-1h1ZM415,934l-1,-1h-1h1ZM297,954h1v1ZM299,953h-1ZM300,955h1h-1v-1ZM293,949h-2v-1l1,1ZM296,955h-1ZM309,962h-1v-1h-1h1ZM307,961h-1ZM306,961h1ZM694,961l1,-1v1ZM690,963v-1h1h-1ZM683,965h1ZM666,971h-1ZM642,978h1ZM644,971h1ZM612,968h-1h1l3,-1v1h-2ZM586,966h-1ZM587,967v-1h-1h2ZM548,970h-1ZM556,968h-1v-1h1ZM549,971h-1h2ZM545,971h-1ZM544,970l1,1h1h-2ZM543,972h-1ZM543,971h-1v-1h1ZM551,969h-1ZM549,970v1l-1,-1h2ZM540,972h-1h2ZM527,979h-2v-1l1,1ZM543,972h-1v-1h-1h2ZM517,984l-1,-1h1Z"/>
<path class="sh" d="M498,557l1,1v2h-3l-1,-1v-1h-1h3ZM506,562h-4l-1,-1v-1h1l2,1h1v1Z"/>
<path class="sw" d="M205,96l1,-1h1l1,-1l2,-1l2,-2h1l2,-2h1v-1h1l1,-1h1v-1h1l1,-1h1v-1h1l1,-1h1h-1l-1,1h-1v1h-1l-2,2h-1l-2,2h-1l-1,1h-1v1h-1l-2,2h-1h1l1,-1h-1v1l-2,1h1h-1l-1,1h-1l-1,1v1h-1l-1,1h-1v1h-1l-1,1h1v-1l1,-1h1l1,-1ZM205,97h-1l-1,1l2,-2Z"/>
<path class="sr" d="M199,101l1,-1h1v-1l1,-1h1l2,-2M204,97l-1,1"/>
<path class="sw" d="M807,106v1h1h-1v-1v1h1v1v-1h-1l-1,-1h-1v-1l-1,-1h-1v-1h-1l1,1v-1h-1l-1,-1h-1v-1h-1h1v1h1h-1v-1h-1v-1h-1l-1,-1h-1v-1v1h1h-1v-1h-2v-1h-1v-1h-1l-2,-1v-1h-1v-1h-2l-3,-3h-1v-1h-1h1l2,1h-1l-1,-1h-1v-1h-1l-1,-1h1v1h1v1h1h-1h1l2,1v1h1l1,1h1l3,3h1l2,2h1l2,2h1v1h1v1h1l1,1h1v1h1v1h1l2,2ZM794,97l-1,-1h-1h1v1ZM804,104h-1h1v1ZM704,46l1,1h-1v-1h-2l-1,-1v1h3l-1,1v-1h-1h1v1l1,1h1v1h1h-1v1h1v1l-1,-1v1v-1h-1v1l-1,-1h-2l-1,-1h-2l-1,-1h-1h1l1,1v-1h-1h2v1h1l-1,-1h-1v-1h1h-1l-1,-1h-2v-1h-2l-1,-1h-1l-1,-1l1,1h2v1h3l1,1h1l1,1h3l-1,-1h-1v-1h2v1h1ZM703,48v-1v1h1h-1h1v1h1v-1h-1ZM662,31h1l1,1h1h-1h1v1h1h-2l-1,-1v1h2l1,1h-1v1l-1,-1v-1h-2v1h-1l-1,-1h-2v-1h-1v-1h-1h1h-1v-1h-7l-1,-1h-1h10v1h-1h2v1h3v-1v1ZM990,400v1v-1h-1v-5h-1v-1l1,1v3l1,1ZM786,92h1v1v-1h-2v-1h-2v-1h-1v-1h-1l-1,-1h-1v-1h-1v-1v1h1l1,1h1h-1h1v1v-1v1h1v1h2v1h1ZM827,152h1h-1l1,1h-1l-1,-1h-1v-1h-1v-1h-1v-1h-1l-1,-1v-1h1v1h1v1h1v1h1h-1v-1h1v1h1v1h1ZM827,152l-1,-1v1ZM839,133h1h-1v-1h-1v-1h-1h1h-1h1v1v-1h-1l-4,-4h-1v-1l3,3h1v1l2,2ZM837,131h1ZM838,132h1Z"/>
<path class="sr" d="M832,126l3,3h1v1l3,3"/>
<path class="sw" d="M936,273v1l1,1v2l1,3l1,1l1,3v-1l-1,-1v-2h-1v-2l-1,-1v-1h-1v-2h-1v-1h1l-1,-1ZM746,66h-1h1v1h1h-1h1v1h1l1,1l-1,-1h-1l-1,-1h-1v-1h-2l1,-1v1v-1h-1h1v1h1ZM728,60v1h1v1l-1,-1l1,1l-1,-1h-1l-1,-1h1v1v-1h-1v-1h-1v-1l1,1h3l1,1h2l1,1h-1l-1,-1h-1h1h-2ZM819,115v1h1h-1v-1h-1l-1,-1v1h2v1h1v1v-1v1h1v1v-1h-1l-1,-1h-1h1l-1,-1h-1v-1h-1v-1v1h1h-1v-1h-1v-1h-1v-1v1h1v1h1v1h2v1ZM819,116h1v1v-1ZM750,69h1l1,1h1v1h1l1,1h-1h2v1h1l1,1v1h1h-1h1h-1v-1h-1l-1,-1h-1h1l1,1v-1h-1l-1,-1h-1l-2,-2h-1v-1h-1l-1,-1h-1h1l1,1h1ZM578,42v1h-3l-3,1h-1v-1h3l3,-1ZM574,49v1v-1h-4v-1h2ZM807,159h-1v-1h-1h1v-1v1ZM712,48l-1,-1h1v1h2v1h2v1h1h-1v-1h-1h1v1h1h-1v-1h-2l-1,-1ZM849,200v1h-1l-2,-2v-1l2,2ZM684,41v1v-1h-3l-1,-1h2v1h1ZM109,211h-1v1h-1v1h-1l1,-1l-1,1v-1h1v-1v1h-1l1,-1h1h-1v1h1v-2h1v-1h1v-1l1,-1l-1,1v2h-1l-1,1ZM210,124v1l-2,2h-1l-1,1v-1l1,-1v-1h1v-1h1l1,-1h1v1ZM15,386v-4l1,-1v-1v2l-1,1v2ZM744,67v1h2v1h-1l-1,-1ZM717,50l-1,-1h-1h1l1,1h1ZM732,58h-1l-1,-1l1,1h1l2,1l1,1h1h-1l-2,-1h-1ZM927,242l1,1h-1ZM188,115v-1h1v-1h1v-1l2,-1h1v-1h1h-1v1h-1h1h-1v1h-1l-2,2h-1ZM105,224l-1,1h-1v-1l2,-2v-1h1v1h-1v2h-1ZM572,49l-1,1v1l-1,-1h1h-1l1,-1ZM543,22h-1l-1,-1h2ZM708,53h1h-2v-1ZM729,58l1,1h-1v-1v1v-1h-2v-1v1h1l-1,-1h1v1ZM418,17h-1ZM87,241l-2,2v1v-3h1v-1l1,-1v-1h1v-1v1h-1v2h-1v1ZM90,235l-1,1v-1ZM89,235v1h-1v1v-1h1ZM86,236v-2h1v1h-1v1h-1ZM420,765v1h-1v1l-1,-1v-2h1ZM816,133h-1v-1h-1v-1v1h1v1ZM555,13h-1ZM784,110h-1v-1l2,2h-1ZM846,184h-1v-1h-1v-1h-3v-1v1h-1v-1h1l-1,-1v-1l1,1v1l1,1h1h-1v-1l1,1h1l1,1v1ZM727,61v1h1h-1v-1h-2v-1h-1h1h-1h2v1ZM978,359v1v-2ZM404,13h-1v1v-1ZM811,108v1v-1h-1h1h-1Z"/>
<path class="sr" d="M810,108h1"/>
<path class="sw" d="M28,337v1h-1l1,-1v-1ZM109,213h-1v1v-2h1l1,-1v-1v1h-1l1,-1v1l-1,1ZM537,39v1h-1v-1h-1v1v-1h1h-1h1ZM824,146h1v1l-2,-2h1ZM832,157v1v-1h-1v-1h1ZM640,27h1ZM832,127l1,1h-1v-1l1,1h-1ZM825,120l1,1ZM691,50v-1h-1l-1,-1l1,1h1ZM90,235v-1h1h-1ZM183,119h1l1,-1h-1v1ZM393,801v3l-1,-1v-1h1ZM393,14h-1ZM418,15h-1v1v-1ZM418,17v-1h1v1ZM101,223h1v-1v1ZM83,238v1h-1v1v-2ZM100,223h-1v1h-1v-1h1v-1v1v-1h1ZM792,140v1l1,1h-1v-1l-1,-1ZM805,154l-1,-1h1ZM87,235h-1h1v-1ZM88,232l1,-1v1ZM112,202h-1v1v-1h1v-1ZM87,234v-1h1ZM85,237h-1v1v-1h1v-1ZM84,238h-1h1v-1ZM817,172h-1ZM644,25v-1h1v1h1h-1ZM638,26h-1v-1h-1h1l1,1h1ZM640,26v1h1h-1v-1h-1ZM670,35h-1l-1,-1h1v1h2v1h1h-1v-1ZM808,107h1h-1v-1h-1v-1v1h1ZM789,92h-1v-1h-1h1v1ZM764,80h1h-2v-1h-1h2ZM839,133v1h1h-1v-1h-1ZM782,87v1h1h-1h2v1v-1h-2v-1h-1ZM792,134l-1,-1h1l1,1ZM775,82v1h1h-1ZM525,24v1h-2v-1h1ZM535,37h-1v-1h2ZM541,38h-1ZM559,44h-1v-1ZM560,41h-1ZM556,40h1ZM559,42l-1,1h1h-2v-1h1ZM826,121h-1h1h-1v-1h-1v-1h-1v-1h-1h1h-1h1v1h1v1v-1v1h1v1h1v1h1ZM712,66h-1v1l-1,-1h-1v1h2v1h1l1,1h1l1,1l-1,-1h-1v-1h-2l-1,-1h-1v-1h-2l-1,-1l1,1v-1h-1l-1,-1l-3,-1h-1h2l1,1h1v1h2v1h5l1,1h1h-1ZM770,80h1h-1v-1h-1h1ZM808,117h-1v-1h-1v-1v1h-2v1h1h-1v-1h-1h1v-1v1h1v-1h1v1h1ZM817,120h-1v-1h-1v-1h-1v-1h-1l-1,-1h-1h2v1h1v1h1h-1v-1v1h1l1,1h1v1h2v1l-1,-1v1v-1ZM663,49h-1v-1h-1l-1,-1h-1l-1,-1h-2l-1,-1l1,1h2v1h3v1h1ZM764,101l-1,-1h-1v-1l-1,-1l2,2h1ZM776,108v1v-1h-1v-1h-1h1ZM765,107h-2v-1l-2,-1h-1h1l2,1l1,1ZM736,62h-1v-1ZM600,35h1h-2ZM826,122h1v1h-1ZM825,121h1v1h-1ZM722,52h-1v-1h-1h1v1l-1,-1h-1h1h-1h1h-1h2v1h2v1v-1ZM912,239h-1v-1h-1v-1l2,2v-1h-1h1ZM939,309h-1v-1h-1h1ZM987,390l1,1h-1v-2ZM89,608v5h-1v-3h-1l1,-1h-1l1,-1v1v-1ZM807,107v1l-2,-2l-2,-1l-2,-2h-1v-1v1h1l-1,-1h-1v-1h-1l-1,-1h-1h1h-1v-1h-1h1v1h1h-1v-1l2,2h1h-1l-1,-1h1v1h1v1h1l2,2h1v1h1l2,2ZM796,100v-1h-1l-1,-1h-1v-1l2,2h-1l-3,-3h-1v-1h-1v-1h-1v-1h-1l1,1l-1,-1h-1v-1h-1h1v1h1h-1v-1h-1l-1,-1v1h1l-1,-1l1,1h1l1,1h1v1l1,1h1l1,1h1v1h1v1h1l1,1l-1,-1l1,1ZM747,71h-1l-1,-1h1v1h1l1,1h1v1h2v1h1v1h1v1v-1h-1l-1,-1h-1l-1,-1h-1h1l1,1h1l-1,-1h-1v-1h-1ZM928,294h-1Z"/>
<path class="sw" d="M846,184h-1v-1h-1v-1h-3v-1v1h-1v-1h1l-1,-1v-1l1,1v1l1,1h1h-1v-1l1,1h1l1,1v1ZM848,173v2h1v2h1h-1v1h-1v-1v1v-1h1v-1l-1,-1v-2h-1ZM758,72l1,1h1v1h1l1,1v1v-1h-1v-1h-1h1h-1h1v1v-1h-1v-1h-1l-1,-1h-1ZM1,478l-1,1v-1h1v-1v1v-1ZM391,805v-1l-1,-1v-1v1l1,1ZM390,806h-1v-1ZM808,117h-1v-1h-1v-1v1h-2v1h1h-1v-1h-1h1v-1v1h1v-1h1v1h1ZM836,136l1,1v1h1v1h1h-1v-1h-1v-1h-1v-1v1v-1l-1,-1v-1h-2v-1h1h-1l-1,-1h-1h1l-2,-2h-1v-1h-1v-1l-1,-1h-1v-1h-1h1v1h1v1h1v1h1l5,5h1v1h1ZM663,49h-1v-1h-1l-1,-1h-1l-1,-1h-2l-1,-1l1,1h2v1h3v1h1ZM764,101l-1,-1h-1v-1l-1,-1l2,2h1ZM697,42h-2v-1h-1h1h-1h1v1h1ZM697,42h1v1h1h-1ZM847,146l2,2h1v1v-1h-1v-1h-1l-4,-4v-1v1l2,2ZM927,261v1h1h-1v-1l-1,-1v-1h-1v-1v1h1v1h1ZM757,78l-2,-2h-1h1h-1v-1h-1v-1l3,3h1ZM728,57h1h-2v-1h-1l-1,-1h-1h2v1v-1v1h1l1,1v-1h-1ZM899,199l2,2v1l1,1l-1,-1v-1h-1v-1l-1,-1l-2,-3ZM747,86h1v1h-1v-1h-1v-1h-1l-1,-1l-2,-1l1,1l2,1h1ZM849,193h-1v-1l2,2ZM789,146h1v1h-1ZM677,36l-1,-1h-1h2v1h3l1,1h1l1,1l-1,-1h-2v-1h-2ZM783,136v1h1l1,1l-1,-1h-1ZM791,134h-1v-1ZM279,51h2v-1v1l1,-1h-1v1h-1h1l1,-1h1v-1v1h-1l-1,1h-2v1h-1h1h-1h1h-1ZM277,53h-1l1,-1ZM272,55h1v-1h2l1,-1h-1v1h-2v1h-2Z"/>
<path class="sr" d="M281,51l1,-1M283,50v0M278,52l1,-1M276,53l1,-1M273,54v0M275,54l1,-1M271,55h1"/>
<path class="sw" d="M279,77l-1,1v-1ZM450,27h1v-1h1l-1,1h-1v-1ZM180,182v1l-2,1l-1,1l2,-2ZM637,40v1h1h-1l-1,-1h-1h1ZM575,46h-1l1,1h-2v-1h-1h2ZM539,37h-1ZM575,41h1l1,-1h1l-1,1h-3ZM589,41h1l1,1h-1ZM550,36h1ZM541,37v1h1h-1ZM535,35v1v-1h-1ZM535,32h-1ZM909,212h-1h1l1,1v1ZM810,107v1v-1h-1ZM804,103h-1ZM691,40h-1h2ZM691,40h-1v-1v1ZM660,26h-1ZM776,84v-1v1h1ZM772,83h-1l1,1h1h-1ZM768,83l-1,-1h-1h1v1h1v1h1ZM686,39l-1,-1h-1l1,1ZM755,75h-1ZM715,49l1,1h1h-2v-1h-1ZM723,54l-1,-1h-1h1ZM742,65v-1h-1h1v1h1ZM85,676l-1,-1h-1v-2h1v1l1,1ZM103,663h-1v-3l1,-1v-2h1v2l1,1v3h-1ZM167,734v-1l-1,-2v-1h-1l-1,-1h-1v-2h-2v-1l-1,-1h1l1,1h2l1,1v1h1l1,2l1,1v2h-1ZM174,728v2l-1,-1v-1l-1,-3h-1v-1h-1l1,-1l-1,-1v-1l-1,-1h-1l-1,-1v-1h-1v-1l1,1h1l2,2h1l1,2v1h1l1,2v1ZM96,725l1,1h-1v-1l-1,-1v-1h-1l1,1v2l-1,-3v1l-1,-1v-2l1,1v-2h1v1h-1v1l2,2ZM182,721v1h-2l-1,-1v-5h1v1l1,1v2ZM165,710h-1v1h-1l-1,-1v-1h1l1,-1l1,1ZM165,708v-1l-1,1l-1,-1v1h-1v-1h-1v1l-1,-1v-1h-1v-1l-1,-2h1l-1,-1v-1h-1v-1h-1l1,-1h2l1,1h1l1,1v1l1,1v1l1,2l1,1h1v1Z"/>
<path class="sb" d="M991,404v1v-1l-1,-1v-1v1v-2M983,372v-1v1v-1v1v-1v2l1,1v4l1,2v3M979,359v6h1v4M978,357h-1v-2l-2,-6l-1,-2v-2l-2,-4M981,374v-4h-1v-1l1,1v2h1v2h1v2l1,1v2M971,337v-1v1l1,1v3l-2,-2l1,2v1l1,2h-1l1,1v1l1,1v1l1,1v2l1,1v2l-1,-1v3l1,1v2l1,2v4M934,269l-1,-1h-1v-1h-1v-1l-3,-3v-1l-2,-2l-1,-2v-1h-1v-1l-2,-2v-1l-1,-1l-1,-2l-2,-2v-1h-1v-1l-1,-2l-2,-2v-1l-4,-4v-1h-2l-1,-1v3h1v2h-1l-2,-2v-1h-1l-2,-2v-1l-3,-3l-2,-4h-1v-1h-1l-5,-5v-1l-2,-2h-1v-1h-4l-1,-1v1l1,1v1h-3l-1,-1h-3l-1,-1h-1l-7,-4l-3,-1l-2,-2l-7,-4l-2,-2h-8M831,126h1h-1v-1h-1v-1h-1h1h-1l-3,-3h-1v-1h-1l-1,-1h-1v-1h-1l-2,-2h-1l-1,-1h-1l-1,-1h-2l-1,-1h-1l-1,-1h-3l-1,-1h-2l-1,-1h-2l-1,-1h-3l-1,-1h-4l-1,-1h-3l-1,-1h-4l-1,-1h-4l-1,-1h-4l-2,-1h-4l-1,-1h-5l-1,-1h-6l-2,-1h-3M590,17h1l1,1l2,1h1l3,3h2l2,2h1l1,1l2,1l3,3h1l2,1l4,4l2,1l2,2h1l2,2l2,1l4,4h6l1,1h2l1,1h1l1,1h2v1h2l1,1h3v-1h-1h1l-1,-1h3l2,1l1,1h2l1,1h1v1h3l1,1h1l1,1h1l2,2h2l2,2h1l1,1h2v1h1l1,1h1l1,1h2l1,1h3v1h2v1h1M23,364v-1h1v-3h1v-5l1,-1v-5l1,-1v-3h1v-5h1v-4l1,-1v-3l1,-1v-3h1v-1l1,-2v-1l1,-1v-2h1v-1h-1h1v-2l1,-1v-1v1h-1v1l1,-2v-2l1,-1v-2l1,-1v-2h1v-1M20,370h-1v1h1v1h-1h1v-3l1,-1v-1l1,-1v1h-1v1h1v-2h1v-1v1v-1v1l-1,1v3h-1v5l-1,2v1l-1,1v4l-1,1v1v-1v1l-1,1v2h-1v3h-1v3l-1,1v3h-1v2l-1,1v2h-1v1M36,314l-1,1v2l-1,1v1M33,320v1M10,402v-4h1v-4l1,-1v-1M31,326v2l-1,1v2h-1v1v-1h1v-1v1h-1v2l-1,1v1l-1,2v3h-1v2l-1,1v2l-1,2v1v-2l1,-1v-2l1,-1v-1v1v-1l1,-1v-1l1,-1v1l-1,1v4h-1v1l-1,2v2l-1,2v3l-1,1h1l-1,1v4h-1v3h-1v4h-1v3h-1v1v-1l-1,1v1l-1,1v2l-1,1v3h-1v3l-1,1v5h-1v3l-1,3M42,308v-1v1h-1l1,-1v-3h1v-2l1,-1v-1l1,-1v-1v1h-1v-1v1v-2h1v-1l-1,1v1l-1,1v2h-1v1v-1v1l-1,1v-1v1l-1,1v1v-1v1l-1,1v1v-1v1l-1,1v2l-1,1v1l-1,1v1l-1,1v1l1,-1v-1l-1,1v1M157,160h1v-1l2,-1l1,-1h1l1,-1h1v-1h1v-1h2v-1h1v-1h1v-1h1v-1h1l2,-2h1v1h2l1,-1h1v-2h1v-1h3v-1h1l1,-1h1v-1h2v-1l3,-3v1h1h-1v2M154,173v-1h1l1,-1v-1h1l1,-1h3v-1h1l1,-1v-1M195,108l-1,1l-3,2l-2,2h-1l-3,3h-1v1h-1v1h-1l-1,1v1h-1h1l1,-1h1l-1,1h1v-1h1l2,-2h1l-1,1v1h-1v2h-1v1h-1v1h-1v1h-3l-1,1h-1v1h-1l-1,1h-1l-1,1h-1v1h-1l-4,4h-1v1h-2v1h-1l-1,1h-1v1h-1v1h-1l-1,1v-1h-1v1h-1v1l-2,1v1h-1v1h-1v1h-1v1h-1v1h-1v1l-1,1h-1l-4,4v1h-1l-2,2h-1v1h-1v1h-1l-1,1h-1v1h-1v1h-1l-1,2l-2,2h-1v1l1,-1"/>
<path class="sb" d="M189,142v-1h1v-1l1,-1h1l1,-1h1v-1h1l1,-1v-1h1v-1h1v-1l1,-2h1l2,-2v-1l1,-1v-1h2l1,-1h1v-1h1v-1v1h3v1v-1h1v-1h1l1,-1v-1h2v-1h1v-1h1l2,-2h1v-1l2,-2h1l1,-1v-1h1v-1h1l1,-1h1l1,-1h1v-1l2,-2v-1h-1l-2,2h-3v1h-1l-2,2h-3l-1,1v-1h-1v1h-1l1,-1v-1h1v-1l3,-3h-1l1,-1v-1h-2l1,-1h-1l-1,1h-1v-1h1v-1l1,-1h1v-1h1v-1h1v-1h1v-2h1l6,-6v-1h1v-1h1v-1h-1v1v-1h-1h1h-1v-1l-1,1h-2l-1,1h-1l-1,1h-1l-1,1l-2,1l-1,1h-2v1h1h-1v1h-1l-2,2h-1l-1,1l-2,1l-2,2h-1v1h-1l-1,1h-1l-2,2h-1v1l-1,1h-1v1h-2l-2,2l-2,1h-1l1,-1h-1l-1,1v-1h1v-1h-1v1l-1,1h-1l-1,1h-1v1h-1l-1,1h-1v1h-1l-1,1h-1v1l-2,1h-1h1h-1l1,-1h1v-1h1v-1v1v-1h1v-1"/>
<circle class="w4" cx="500" cy="559" r="21"/>
<circle class="w4" cx="500" cy="559" r="19"/>
<circle class="c4" cx="500" cy="559" r="20"/>
<path class="sg" d="M 255.2631 935.2162 A 249.7500 29.9129, 0, 1 1, 743.7369 935.2162"/>
<path class="sg" d="M 67.9709 751.0609 A 432.5797 51.8107, 0, 1 1, 931.0291 751.0609"/>
<path class="sg" d="M 0.0000 499.5000 A 499.5000 59.8258, 0, 1 1, 999.0000 499.5000"/>
<path class="sg" d="M 67.9709 247.9391 A 432.5797 51.8107, 0, 0 1, 931.0291 247.9391"/>
<path class="sg" d="M 255.2631 63.7838 A 249.7500 29.9129, 0, 0 1, 743.7369 63.7838"/>
<path class="sg" d="M 491.2104 0.0688 A 68.0724 499.5000, -180.95091171, 0 0, 507.7896 998.9312"/>
<path class="sg" d="M 523.7764 0.5903 A 186.6525 499.5000, -177.21425094, 0 1, 475.2236 998.4097"/>
<path class="sg" d="M 575.4831 5.8130 A 391.3641 499.5000, -171.25029177, 0 1, 423.5169 993.1870"/>
<path class="sg" d="M 826.1203 121.5854 A 491.2100 499.5000, -139.16411997, 0 1, 172.8797 877.4146"/>
<path class="sg" d="M 358.2519 20.3870 A 459.4366 499.5000, -196.42613149, 0 0, 640.7481 978.6130"/>
<path class="sg" d="M 453.1447 2.1556 A 304.5575 499.5000, -185.32490033, 0 0, 545.8553 996.8444"/>
<text x="0" y="0" class="fs" transform="translate(681,318) rotate(84)">150W</text>
<text x="0" y="0" class="ft" transform="translate(681,318) rotate(84)">150W</text>
<text x="0" y="0" class="fs" transform="translate(880,336) rotate(78)">120W</text>
<text x="0" y="0" class="ft" transform="translate(880,336) rotate(78)">120W</text>
<text x="0" y="0" class="fs" transform="translate(53,349) rotate(102)">120E</text>
<text x="0" y="0" class="ft" transform="translate(53,349) rotate(102)">120E</text>
<text x="0" y="0" class="fs" transform="translate(203,326) rotate(98)">150E</text>
<text x="0" y="0" class="ft" transform="translate(203,326) rotate(98)">150E</text>
<text x="0" y="0" class="fs" transform="translate(433,314) rotate(91)">180W</text>
<text x="0" y="0" class="ft" transform="translate(433,314) rotate(91)">180W</text>
<text x="0" y="0" class="fs" transform="translate(465,897) rotate(-2)">60S</text>
<text x="0" y="0" class="ft" transform="translate(465,897) rotate(-2)">60S</text>
<text x="0" y="0" class="fs" transform="translate(440,692) rotate(0)">30S</text>
<text x="0" y="0" class="ft" transform="translate(440,692) rotate(0)">30S</text>
<text x="0" y="0" class="fs" transform="translate(431,436) rotate(-1)">0N</text>
<text x="0" y="0" class="ft" transform="translate(431,436) rotate(-1)">0N</text>
<text x="0" y="0" class="fs" transform="translate(440,197) rotate(-1)">30N</text>
<text x="0" y="0" class="ft" transform="translate(440,197) rotate(-1)">30N</text>
<text x="0" y="0" class="fs" transform="translate(466,39) rotate(-2)">60N</text>
<text x="0" y="0" class="ft" transform="translate(466,39) rotate(-2)">60N</text>
<path class="tb" d="M127,998h-2l-1,-1h-2l-1,-1h-2l-1,-1h-2v-1h-3v-1h-2l-1,-1h-2v-1h-2l-1,-1h-2v-1h-2v-1h-2l-1,-1h-2v-1h-2v-1h-2v-1h-2v-1h-2v-1h-2v-1h-2v-1h-2v-1h-2v-1h-1l-1,-1h-1v-1h-2v-1h-2v-1h-1v-1h-2v-1h-1l-1,-1h-1v-1h-2v-1h-1v-1h-2v-1h-1v-1h-1l-1,-1h-1v-1h-1v-1h-1l-1,-1h-1v-1h-1v-1h-1v-1h-2v-1h-1v-1h-1v-1h-1v-1h-1l-2,-2h-1v-1h-1v-1h-1v-1h-1v-1h-1v-1h-1v-1h-1v-1h-1v-1h-1v-1h-1v-1h-1v-1h-1v-1h-1v-2h-1v-1h-1v-1h-1v-1h-1v-1l-1,-1v-1h-1v-1h-1v-1l-1,-1v-1h-1v-1l-1,-1v-1h-1v-1l-1,-1v-1h-1v-2h-1v-2h-1v-1l-1,-1v-1l-1,-1v-1l-1,-1v-2h-1v-2h-1v-3h-1v-2h-1v-4h-1v-3h-1v-5h-1v-6l-1,-1v-17h1v-7h1v-4l1,-1v-3h1v-3h1v-3h1v-2l1,-1v-2h1v-2h1v-2h1v-2h1v-2h1v-2h1v-2h1v-1h1v-2h1v-1h1v-2h1v-1h1v-1l1,-1v-1h1v-1h1v-1l1,-1v-1h1v-1h1v-1h1v-1h1v-1h1v-1h1v-2h1v-1h1v-1h1v-1h1v-1h1l3,-3h1v-1h1v-1h1v-1h1v-1h1v-1h1v-1h1l1,-1h1v-1h1v-1h1v-1h1l1,-1h1v-1h1v-1h2v-1h1v-1h1v-1h2v-1h1v-1h2v-1h1v-1h2v-1h1l1,-1h1v-1h2v-1h1l1,-1h1v-1h2v-1h2v-1h2v-1h1l1,-1h1l1,-1h1l1,-1h1l1,-1h1l1,-1h2v-1h2v-1h2v-1h2l1,-1h2v-1h2v-1h2l1,-1h2v-1h3v-1h2l1,-1h2v-1h3v-1h3v-1h159v1h3v1h3v1h2l1,1h2v1h3v1h2l1,1h2v1h2v1h2l1,1h2v1h2v1h2v1h2l1,1h1l1,1h1l1,1h1l1,1h1l1,1h1v1h2v1h2v1h2v1h1l1,1h1v1h2v1h1l1,1h1v1h2v1h1v1h2v1h1v1h2v1h1v1h1v1h2v1h1v1h1l1,1h1v1h1v1h1v1h1l1,1h1v1h1v1h1v1h1v1h1v1h1v1h1l3,3h1v1h1v1h1v1h1v1h1v2h1v1h1v1h1v1h1v1h1v1h1v1l1,1v1h1v1h1v1l1,1v1h1v1h1v2h1v1h1v2h1v1h1v2h1v2h1v2h1v2h1v2h1v2h1v2l1,1v2h1v3h1v3h1v3l1,1v4h1v7h1v17l-1,1v6h-1v5h-1v3h-1v4h-1v2h-1v3h-1v2h-1v2l-1,1v1l-1,1v1l-1,1v1h-1v2h-1v2h-1v1l-1,1v1h-1v1l-1,1v1h-1v1l-1,1v1h-1v1h-1v1l-1,1v1h-1v1h-1v1h-1v1h-1v2h-1v1h-1v1h-1v1h-1v1h-1v1h-1v1h-1v1h-1v1h-1v1h-1v1h-1v1h-1v1h-1l-2,2h-1v1h-1v1h-1v1h-1v1h-2v1h-1v1h-1v1h-1l-1,1h-1v1h-1v1h-1l-1,1h-1v1h-1v1h-2v1h-1v1h-2v1h-1l-1,1h-1v1h-2v1h-1v1h-2v1h-2v1h-1l-1,1h-1v1h-2v1h-2v1h-2v1h-2v1h-2v1h-2v1h-2v1h-2v1h-2l-1,1h-2v1h-2v1h-2l-1,1h-2v1h-2l-1,1h-2v1h-3v1h-2l-1,1h-2l-1,1h-2l-1,1h-2Z"/>
<path class="tl" d="M169,986h1v1h-3l-1,-1h2v-1ZM114,989h-3l-1,-1h2l1,1ZM176,983h1l1,1v1h1l-1,1h-2l-1,1h-1l-1,-1l1,-1v-2h1v-1ZM124,980h2v1h-1ZM122,980l1,1h-1l-1,-1ZM136,977h1h-2ZM156,974v1l1,1h-5v-1l1,-1v-1l-1,-1l1,-1v1h1l1,1ZM158,964v1h-2v2h1l-2,2v1h1l1,1h1l4,4v1l1,1v1h-1v2h-1l-1,1h-1v1h-2l1,1h1v1h-2l1,1h1v1h3l1,1h3l1,1h3l1,1h1l1,1v-1h1v-1h2l2,-1l1,1h1v-1h4v-1h3l1,-1h-1v-1h-4l-1,-1l1,-1h1l2,-2h4l1,-1h1l2,-2h-1v-1h1v-1h2v-1l1,-1h1v1h1v-1h8v-1h3v-1h1l1,1h2v-1h1v1l1,-1h4v1h6v-1h3v-1h2v1h3l1,-1h3v-1h2l1,-1h2l1,-1h4v1h1v1h1l1,1h1l1,-1l1,1h2v1l-2,2h-1v1h1h-1v1h-1v1h2l2,-2h1v-1h3l1,-1h1v-1h2l1,-1h5v-1h1v1h5v1h1l1,-1l1,1l1,-1h1l2,-1v1l1,1h3l1,-1h2v1h1v1h4l1,-1v1h9l1,-1l-1,1v1h-1h3l1,1h2l-1,1v1h1v1h2v1h1v2h2l1,1v1h-1l-1,1h-2l-1,1h-3l-1,1h-2l-1,1h-2l-2,2v1h-5l-1,1h-2v1h-1v3h2l-11,4h-155l-11,-4h-1h2l1,-1l1,1h14l-1,-1h-7v-1h-2v-1h-3l-1,-1h4v-1h-2l-1,-1h-7l-1,-1l-2,-1l1,1l1,-1l2,1v-1h1v-1l-1,-1h-1h2v-1h2v-1h4l1,-1h5l1,-1l1,1v-1h1l1,1h1v-1l1,1h6v-1h-2l-1,-1h-1l-1,-1h4l1,1h1l1,-1h3l-1,-1h1l1,1l1,-1l1,1h3v-1l1,1h4v-1h2l1,-1v-1h-1v-1h-1v-1h-1v-1h-1v-2l-1,-1v-1h1v-2h1v-1h1v-1h1l1,-1l1,1ZM144,951l2,1h1v1h-1v-1v1h-4l-2,-2l-2,-1l2,1h2v-2h1v1ZM151,947h1v1h-2v1l-1,-1l1,-1ZM269,946h-1v-2h1l1,1ZM345,939v1h1l1,-1v1l-3,3v-1l-1,1h-1l1,-1v-1l1,-1v-1ZM368,943v1l1,-1v1h-1l-3,3h-1l-1,1h-1l-2,2h-2v1h-1v-1h-1v-1l4,-2h1l1,-1h2l2,-2h1l2,-2ZM376,936l-1,2l1,-1l-1,1l1,1h1l-2,2h-1l-2,2l-2,1h-1l2,-1v-2l1,-1l2,-1v-1l1,-1v-3l1,-1v1l1,1ZM382,913l-1,1v-2l-1,-1v-1h1v1l1,1ZM397,906v1l-1,1h-1v-1l1,-1v1ZM398,906h-1v-1h1l1,-1v1ZM10,905v-1ZM386,904v-1ZM386,901v2h-1v-1ZM259,895v2l1,1h-1v1v-1v2h-1v3l-3,6v2h-1l-1,1l-1,-1h-1v-5h1v-2l1,-1h-1v-3h1v-1h1l2,-2h1v-1l1,-1v-1l1,-1v1ZM361,898v1h1v1h1l-1,1v2h1l-1,2v1l2,2v4h1l-1,2l1,1v3l-1,1v2l-3,3v1l-1,1l-1,2h-1l-1,2h-1l-4,4v1h-2l-1,1h-1l-1,1v-1h-1l1,-1h-1l-1,1h-1v-1h-1v-3h1l-1,-1v-1l1,-1l-1,1h-1l3,-3l-2,1h-1l-1,2v-4l-2,-2h-2l-1,1h-4l-2,2h-4l-1,1v-1l-1,1h-2v-1h-1l1,-1v-1h1v-3l1,-1v-7l1,1v-3l1,-1v-1l1,-1l-1,1l2,-2h1l1,-1h2l1,-1h2v-1h1l1,-1v-2l1,-1v2l1,-1v-1h1v-1l2,-2h2v1h2v-2h1l1,-1v-1h2v-1h-1h1l1,1h3l1,1h-1v1h-1v1l-1,1v1l2,2v1h1l1,1h1v-1l1,-1v-1l1,-1v-3l1,-1v-2h1v-1v3l1,1Z"/>
<path class="tl" d="M383,894h-1v-1v1ZM337,892l-2,-1h2ZM381,893h-1v-1h1ZM382,892v-1l-1,-1h1ZM341,892h-1l3,-3h2l-1,1h-1l-1,1ZM335,889h1v1h-3l1,-1ZM340,889v1h-3v-1h2ZM381,890v1l-2,-2h1v1ZM378,889v-1h-1v-1l1,1ZM325,887h2v-1l2,1v1h2l1,1l-1,1l-1,-1h-4l-1,-1h-1l-2,-1h-1l1,-2h1l1,1ZM353,886v1v-2ZM377,888h-1v-2l-1,-1h1v2h1ZM373,885l-1,1h-1l-1,1l-1,-1h-1l1,-1l1,1v-1h2v-2h1v1ZM345,882h-1v-1h1ZM349,881v2l-1,-1h-2v-1h2ZM374,884l-1,-1v-1l-1,-1h-1h2v2h1ZM353,878v3l2,1v-2l2,-1h1l1,1h1l1,1l4,2v1h1v1l2,1v1h-1v1l1,1v2h1v1h1h-1l1,1l-1,1v-1h-2l-1,-1v-3h-3l-1,1v1h-2l-2,-2v1h-2l1,-2h1l-1,-2v-1l-2,-1h-1l-1,-2l-1,1l-1,-1h1l-1,-1l1,-1h-1v-1h-1l-1,-1h2v-1ZM343,875l-1,1h-4v1l1,2v-1h2l-1,1h-1l1,2v1l1,2v1h-1v-2l-1,1v-1l-1,-1l1,-1h-1v4h-1v-3h-1v-1l1,-1v-4h1v-1h4l1,-1ZM347,875v1h-1v1l1,1h-1v-4h1ZM321,885h-1l-2,-2v-1l-2,-2l-1,-2v-2l-1,-1v-1l-4,-4v-1h2l3,3l1,2h1l2,2h1l-1,2h1v1l1,1h1v3ZM335,874l1,1h-1v3l-1,1v1l-1,3v-1l-1,1l-1,-1h-1v-1l-1,1l-1,-1h-1l-2,-4v-2l1,-1h2v-2h2v-1l1,-1v-1h1l1,-1v-2h1v1l2,2v1h-1l-1,2l1,1ZM344,864v3l-1,-1v2l-2,-2h1l-1,-1v1l-1,-1l-1,1v-1l1,-1h2v-1h1v-1l1,1ZM294,868h-1v-1l-1,-2l1,-2l1,1v1l1,1v1ZM137,863h-1l1,-1h1ZM341,861v1l-1,1l-1,-1l1,-1v-1v1l1,-1ZM335,863l-1,1v-1l1,-1v-1l1,-1v1l-1,1ZM338,859h2v1l-1,1v-1h-1ZM342,858l1,2h-1v1v-1h-1v-1h1h-1v-1ZM338,857l-1,1l-1,-1h1ZM336,849h1v6h1l2,1v2l-1,-1v-1v1l-1,-1h-2v-1h1h-1l-1,-1v-5ZM133,851v1h-1v-1ZM121,852h-1v-1h2v1ZM126,849h3v1h1v1h-2l-1,1v-1h-1v-2h-1ZM324,849l-1,1h-1v-2l1,-1h1v1ZM37,846v-2h1v2ZM38,844h-1v-1h1ZM119,845h2l1,1v1h1v1h2l-1,1h-3v-1h-1v-2h-2l-1,-1h-1h1h-2l-1,1h-1l2,-2h3ZM122,843h-1v-1l1,-1v1ZM334,843v1l-2,-2v-2l1,-1l1,1ZM122,839l-1,1v-1ZM123,839v1v-1h-1ZM340,825h1v1h-1v1h-1v-2ZM240,828l-2,2v-1h-1h2ZM229,828v1h-1ZM220,825v2h-1l-1,-1h-1v-1h2ZM214,821v3h-1v-3ZM344,820v1l1,1v1l-1,1h-1l-1,2l-1,-1v-1l-2,1l-1,1h-1l2,1v3l-1,-1v-1h-1l-1,-1l1,-1v-3h3v-3l1,1v-2h1l-2,-4v-1l3,3v1ZM214,820v1l-1,-1v-1l1,-1ZM340,810l1,-1l1,2h-1v2l-2,-1l1,2h-1l-1,-2l-1,-1h1l-1,-2l-1,-1l3,1ZM144,812l1,1h1h-2ZM147,809h-1l-1,-1h1ZM92,806h-1l-1,-1v-2h-1v-1h1l1,1v1l1,1ZM153,807l-1,1h1v1h2l-1,1h1v1l-1,2l-1,-1l1,-1l-2,1v-1h-3l1,-1h-1l4,-4h1Z"/>
<path class="tl" d="M90,797h1l-2,2v1v-3ZM332,800l3,3l-2,-1l1,2l2,2v1l-2,-2l-1,-2l-6,-6v-1h-1h1l3,3ZM198,806l-1,1h-2l1,-2v-1l2,-2h1v3ZM216,801l-1,2l-1,-1v-1h1ZM79,791h-1v-1h2ZM202,797l-1,2h2v1l-1,1h1l2,4h1v1l-1,1h1l-1,1h-3l-1,1h-2l2,-2h-1v-1h1l-1,-1v-1h2l-1,-1h-1v-2l-1,-1l1,-2v-1l1,1ZM75,786h-1v-1h1ZM141,790l-1,1v-1ZM139,790h-2l1,-1h1ZM78,780v1h1h-2v-1ZM139,786h1v1h1l-1,1h1l-1,1l-1,-1h-1l-2,1l1,-1h-1h1l1,-1l1,-2ZM193,787v1l1,1l-1,1h-3l-1,1l-1,-1h-2l1,-1h-1h1v-1h-2l1,-1h1l1,1l2,-1h2ZM147,784h-1l1,-1h2l-1,1ZM81,776v1l1,-1h2l-1,2h-3l-1,1h-1l-1,-1h1v-1h-1h1h-2l-1,1l8,-5v1l-1,2ZM135,780l-1,1v-1h-1l1,-1h1ZM322,771h-1ZM88,771h-1h2ZM139,780l-1,2l2,-1v1h-1v1l1,-1l2,-1l1,-1h2v2h-1v1l-1,1l-2,1h-1v-1l-1,1l-2,1v1h-3l-2,2h-1l-1,1l-2,1l-1,1l-1,2h1l-1,1v1h1l3,3l2,1h1l-2,2v2l1,1h1l2,-4h-1l4,-2v-1l1,-1v-1l-1,-1l2,-1l2,-4l1,1h1l1,-1v1l1,1h1v2l-1,1l1,1h2l1,-2h1v3l1,1l-1,1l1,1v1h1l1,1v1l1,1l-2,2h-2l-2,2h-1l-2,-1h-2l-2,1l-1,1l-2,1l-1,1l2,-1l3,-1h2l-1,1l-1,2v1l1,1l2,-1l1,-1v1h1l-4,2h-1l-2,1v-1l2,-1h-3v1h-1l-1,1h-1l-2,2l1,1v-1v1h-3l-1,1l2,-1v1h-2l-2,2v1l-1,1l-1,-1l1,-1l-1,1v4l-1,1h-1l-1,1h-1l-3,3h-1v8l-1,1h-1v-3l-1,-1l1,-1l-1,-2l-1,1l-1,-1h-4v1h-1l-1,-1l-1,1l-1,-1l-2,2h-2v1h-1v3l-1,1v1l-1,2v4l1,1v1h1v1l1,-1h3v-1l1,-1v-1l1,-1h3v1l-1,1v2l-1,1v-1v2l-1,1v1h5v1h1v1l-1,1v3l-1,1h1v2h1v1h2l1,-1h1v1h1l1,1l1,-1v-2l1,-1h2l2,-2v2h-1h1v1l-1,1v1h1v-3h1v-1h1v1h1v1h3l1,1l1,-1h1l1,1h1v1l1,1h1v1h1v1l1,1l2,1v-1h1l1,1h1l1,1v1h1v1l1,2v1l-1,1l1,1h2v1v-1l4,2v1h1l3,1h1l2,1l2,2h2v5l-1,1l-1,2l-2,2v9l-1,2v2h-1v1h-2l-1,1h-1l-3,3v5l-1,2l-2,2v2l-2,2v-1l-1,1l-1,-1h-1v-1v1l1,1v1l1,1v2l-2,1h-3l1,1v2l-1,1l-1,-1h-1l1,2h2l-2,2l1,1v1h-1l-1,1v1l2,1h1v1l-1,1v2h-1v1l2,2h-1l-1,1v1h-1l-2,-1l-3,-3l-1,-3v-1l1,-1h-2l1,-2l-1,-2h1v-2l-1,-1v2l-1,-2v-4l-1,-1l-1,-2h1v-6l-1,-2v-8l-1,-2v-6l-1,-2l-1,-1l-2,-1l-3,-2l-1,-1v-1l-1,-2l-1,-3l-2,-3l-2,-2v-1l-1,-2l2,-2v-1h-1v-3l1,-1v-1h1v-2h1l1,-1v-5l-1,-1v-2h-1v1h-1v1h-1l-1,-1h-2v-2h-1v-1v1h-1v-3l-2,-2h1h-2v-1h-2l-1,-1l-1,-2h-1l-1,-1v1h-2l-1,-1h-2l-2,-2h-1l-1,-1v-1h-1v-3h1l-1,-1v-3l-1,-1v-1l-1,-1v-3h-1v-5l-1,-1l-1,1v4h1l-1,1h1v5h1v2h-1v-1l-1,-1v-3l-1,-1v1v-1h-1v-1h1v-9h-1v-1h-1v-9l2,-2v-1l1,-2l2,-2l1,-2l1,-1v-1h1v1l2,-2h-1v-2l-1,-1v-1l1,-1l-1,-1l1,-1v-1l1,-1l-1,-1l1,-1v-1l1,-1l-1,-1h-1v-2h-1v-1h-1l-1,-1h-1l-1,1h-4l1,-1l2,-1h-1l-1,1l-2,1h-1l-1,1l-2,1h-2l-2,1h-1l-1,1h-3l-1,1h-2l1,-1h2l2,-1h2l2,-1h1l2,-1l1,-1h-3l1,-1l-1,1h-1l2,-2h-1v-1l2,-2l2,-1h3l1,-1h1l1,-1h-3v-2h4l1,1l1,-1v-3h4l1,-1h2l2,-1l1,1l1,-1h1l-1,1h1l1,1h2l1,1h2v1l1,1l1,-1h6l1,-1v2l2,-1l-1,1h2l1,1h2v1l-2,1h4v1l2,-2h2v1h1l1,1h2v-1h1l1,1l-1,1l1,-1h1l1,-1v-2l1,-1l2,-1l1,1l-2,2Z"/>
<path class="tl" d="M128,774l-1,1h4l-1,1h1l2,-2v1l-1,2v1l1,1h-2v1h-8v-1h-1v-1h4l-1,-1h-3l2,-1h-1l1,-1h1ZM135,774l-2,1v-1h1ZM152,776v1l-1,-1l-1,1v-2h2ZM146,776v1l1,-1l2,-1v2h3l1,1l-1,1l2,-1v1l1,1v2h-1l2,2v1h1v1l-2,1h-1l-1,-2l-1,1v1l1,1v2l-1,1l-2,-2v1l1,1h-2l-2,-2v-1l-1,-1v1h-3v-1l1,-1h3l1,-1l2,-1v-1l-1,-1h-1l1,-1l-1,-1h-5l-1,-1h-1l1,-1h-1l1,-1l2,-1l1,-1h2ZM138,774h2l-1,1h-1l1,1l-2,1h-2v-2l1,1v-1ZM298,772h-2v-1ZM141,776l-2,1v-1l2,-2h2l1,1l-2,1ZM122,776h-2l-1,-1h1l2,-1l2,-2h2v1h2v1h-1l-3,1h-2ZM299,769v1h-3v-1h1ZM143,773v1l-1,-1h-1l1,-1h1l1,1ZM295,769l1,1h-2l-1,1l-2,-1l-1,-1h2ZM143,771h-1v1l-1,1h-2l1,-1h-1l1,-1h2ZM136,771h1v1h-4l-2,1h-1l1,-1h-1l-1,-1l2,-1h1l2,1l1,1v-2h2ZM246,780h-3l-2,-1v-1l1,-2h-1l1,-1l-1,-1h1l4,-2h2l-1,1l-2,1l-1,1v2l-1,1l1,1ZM145,770l1,1h1l-1,1h1l1,1h4v1h-7l-1,-1l1,-1v-1h-2l1,-1ZM134,769l-2,1h-4l2,-1h3ZM271,770l1,1v-1h2l2,1h1v1l-1,1h1l2,1v-1l1,1l1,-1h2l1,1h3l-2,-1h5l1,1v1h2l2,1l-1,-1h1l1,-1l2,1v-1h1l-2,-1h8l3,1l1,-1h2l2,2h2v-1h3l3,1v-1h-2v-1h7l8,5h-1l1,1l2,1h2v1h-1v1h-1l1,1v2l-2,-1v2l-1,-1v1h-1l2,2v1h1l3,2h-1l1,1h1v1l1,2h-1l1,2l1,1l-4,-2l-4,-3l-1,-2l-1,-1v-3l-1,-2v-1l-2,-2l-1,1l2,2l-3,-1l-1,1l1,2l1,1h-1l-1,1l-1,-1h-1v1h-4v7h1l2,1h1l-1,-1h1l3,1l1,2l1,1l1,2l2,2v9h-1l-1,-1v2h-1v1l1,1v1h-1v1l1,1h1l2,2v1l1,1v1l-1,1h-1l-1,-2l-1,-1h1l-2,-1v-1v1v-1h-1v-1l-1,-1h-2v1h-1l-1,-1l1,-1l-1,-1l-1,1v2h-1v1l2,2h1v-1h2l1,1l-2,1v2l2,2l1,2l2,1v2h1v6l-2,4l-1,1h-1v1l-1,-1v1l-2,1h-1v2l-1,-1v-1h-2l-1,2v2l1,1l1,2l2,2l1,3v4l-2,1v1l-2,1v-2l-1,-1h-1v-1l-2,-2h-1v-1h-1v6h1v3l1,1h1v1h1v1l1,1v3h1v2h-1l-2,-2v-1l-1,-1v-1l-1,-1v-2l-1,-1v-1h-1v-6l-1,-1v-1l-1,-2v-2l-1,-1l-2,2h-1v-3l-1,-2v-1h-1l-2,-2v-1l-1,-1h-1v2l-1,-1v1h-2v2l-2,1l-1,2v1l-2,2h-1v8l-1,1l1,1h-1l-1,1l-1,-1l-1,-2v-1l-1,-1v-1l-1,-2v-1l-3,-6v-3l-2,1h-1l-1,-2v-1l-2,-1l-1,-1v-1l-1,-1l-2,1h-5l-1,-1h-2v-2h-1l-1,1h-2l-3,-3l-1,-2l-1,1v-1l-1,1v2l1,1h1l1,1v2l1,1l-1,-1l1,-1v2h1v1l1,-1h2v-1l1,-1v-1v2l2,2h1l2,2l-1,1v1h-1v3h-1v1h-1v1h-2v1h-1l-2,2h-1l-2,2v-1l-1,1h-2v1h-2v-2l-1,-1v-3h-1v-1l-1,-1v-1l-1,-1h-1v-1l-1,-1v-3h-2v-2l-1,-1v-1l-2,-2v-1v1l-1,1l-1,-1l-1,-2l1,2l1,1l1,2v1l2,2h-1l2,2v1l1,1h-1l1,2v1l1,1l1,2v1l1,1l2,1v1h1v1h1v1l-1,1h1l1,1h3l1,-1h3v-1h1v2l-1,1v3l-1,1l-3,6l-1,1l-2,1l-1,1l-1,2v1h-1v1h-1v2l-1,1l-1,2l1,1v4l1,1v7l-1,1h-1l-3,3h-1v1l-1,1v2h1l-1,1h1v1l-1,1h1l-1,1h-1l-2,2v3l-3,3v1l-2,1v1l-1,1h-2v1l-1,-1v1l-1,-1l-1,1h-2l-1,1l-1,-1h-1v-5l-1,-1v-2l-1,-1v-1l-1,-1v-5l-1,-1v-1l-1,-2v-1l-1,-1v-3l1,-1v-3h1v-1l1,-1v-1h-1v-5l-1,-1v-2l-3,-3l-1,-2l1,-1v-5l-1,-1v-1l-1,1h-2l-1,-1v-1l-1,-1h-2l-1,1h-2l-1,1h-6l-1,1l-4,-4h-1l-1,-1v-1l-1,-1v-1h-1v-1l-1,-1v-1h-1v-3h-1l1,-1v-1h1l-1,-1l1,-1v-4l-1,-1v-1h1v-2l1,-1v-1h1v-2h1l1,-2h1l2,-2v-3l3,-3l1,-2v-1h1l1,1h2l1,-1h2l1,-1h4l1,-1h1v1h1l1,-1h1v1l1,-1v1h-1v1h1v2h-1v1h1v1h3l2,2h1l2,2l1,-1v-2l1,-1h2l1,1h1l1,1h2l1,1h1v-1h2l1,1v-1h1l1,1v-2l1,-1v-5h-2l-1,1l-1,-1h-2v1l-1,-1h-2v-1l-1,-1v-2l1,-1h1v-1h2l1,-1h1l2,-1l2,1l1,1h2l1,-1v-2h-1l-2,-2h-1l-1,-1l1,-1l-1,-1h2l-1,-1v1h-2l-1,1v1h1l-1,1h-1v-1h-1l1,-1h-2v-1h-1v1l-1,1v1h-1v4l1,1h-2v1h-1v-1h-2l1,1h-2v1l1,1h-1h1l1,1v1l-1,-1v1h-1l1,1h-2v-2l-1,-1v-1h-1v-3h-1v-1h-1l-1,-1h-1l-1,-1v-1l-1,-1v1v-1h-2v1l2,2v1l1,1h1l1,1h1l1,1v1l-1,-1h-1v1h1v1h-1v1h-1v-1h1l-1,-1v-1h-1l-1,-1h-1l-2,-2l-1,-2h-2v1h-4l-1,1v2h-2v1l-1,2h1l-1,1v1h-1l-1,1h-2l-1,1l-2,-2v1h-2l1,-1v-1h-1v-2l1,-1v-3l-1,-1l2,-1l1,1h5v-4l-1,-1v-1h-2v-1h3v-2l1,1l2,-1v-1h1l1,-1l1,-2l1,-1h2v-5h2l-1,1h1v1l-1,1v1h1v1l1,-1h2v1h1l2,-2l1,1h1v-1h1v-3l1,-1l1,1v-1l-1,-1v-1h4l1,-1h-4l-1,1l-2,-2v-4l2,-1v-1l-1,-1l-2,2l-1,2l-1,1v3h1v2h-1v2l-1,2h-1v1h-1v-2l-1,-1l-1,-2l-1,-1l-1,2h-1l-2,-1v-5l2,-1l3,-3l2,-3l3,-3h2l1,-2h3l2,1l-1,1h2l1,1h3l3,1l1,1v1l-1,1h-1l-3,-1h-1l2,1v2l1,1h1v-1h-1l1,-1l2,1v-1l1,-2h1l1,1v-1l-1,-1v-1l-1,-1l2,1h1l-1,1l1,1h1v-1l1,-1l2,-1h1v1l1,-1h1l1,-1l1,1l1,-1h-2l1,-1h2l1,1l4,1v-1h-2v-1h-1l-1,-1v-3h2l1,1v1h1l1,1l1,2h1v3l1,1v-1h1l-1,-1l1,-1h-1l-2,-2v-1l-2,-1l1,-1l-1,-1h1l1,2l-1,-1l1,-1h2l1,1l-1,-1l-1,-2h4l-2,-1v-1h1l1,-1h3l1,-1h1v-2l2,1h-1ZM253,820l1,1v2h-1v1l1,1h1l1,1h3l-1,-1v-2h-1v-2h1v-1l-1,-1h-1l1,1l-1,-1v-1h-2v-2h-1h1v-2l1,1v-3h-2l-1,1h-1v1h-1l-1,2l2,1v1l1,1Z"/>
<path class="tl" d="M146,770h-1v-1h1l1,1ZM137,769h-2l1,-1h1l1,1ZM220,771l-1,1h-1v-1h-1l2,-1v1ZM139,768h-2l1,-1v1ZM146,769h-1v-1h1l1,1ZM144,769h-1l-1,-1h-1h1v-1h1l1,1ZM268,768l-3,1v-2ZM215,769l3,1h-2v3h-1l-2,-1h1l-1,-1l-2,-1v-1l1,-1l1,1h1v-1h1ZM220,768h1l-1,1h-4l-1,-1h3ZM234,767l-1,1h-1v-1h-1h4ZM264,768h-4l-2,-1l-1,-1h1l1,-1l4,2ZM153,767v1h-1l-2,1h-2v-1h1h-1v-1l1,-1h2v-1h1v1h1ZM167,764h3v1h-3l-1,1h-1l-1,1l-2,1h-3v1h-1v1h-2l-2,1h1l-2,1h-4l-1,-1h2v-1h2v-1h-1h1l1,-1h1l-1,-1h4l-1,-1h-3v-1l1,-1h6v-1h3v1l2,-1l1,1ZM190,764l3,1h-6v1h5l-1,1l2,-1h4v1l-2,1h-1l-2,2v2l1,1h-2l1,1l-1,1v1h-1l1,1h-3l1,1v1l-1,-1l-1,1h1l1,1v1h-2l-1,-1v1l-1,1h3l-4,2h-3l-1,1l-4,2h-1l-2,1h-1v1l-2,2v1l-1,1l-1,2h-1l-1,-1h-1l-1,-1v-2l-1,-1v-1l1,-1l-1,-2l1,-1l1,-2h1l1,-1v-1l-1,1h-1v-1l1,-1h1l-1,-1h-1l1,-1v-4l-1,-1h-5v-1l-1,-1h1l-1,-1l1,-1h2l3,-1h1l-2,-1h1l3,-1h1v-1h9l1,1l-1,-1h1l2,-1h3l2,-1Z"/>
<path class="th" d="M17,900h-1v-1h1ZM18,900h-1Z"/>
<path class="tg" d="M66,970h1l1,-1h4v-1h5v-1h5v-1h6v-1h6l1,-1h7v-1h8v-1h9l1,-1h11v-1h14v-1h20v-1h79v1h20v1h14v1h11l1,1h9v1h8v1h7l1,1h6v1h6v1h5v1h5v1h4l1,1h1M21,927h6v-1h7v-1h8v-1h10v-1h10v-1h12v-1h14v-1h18v-1h23v-1h38v-1h75v1h38v1h23v1h18v1h14v1h12v1h10v1h10v1h8v1h7v1h6M5,877h399M21,826h4v1h7v1h8v1h9v1h10v1h11v1h14v1h16v1h21v1h32v1h103v-1h32v-1h21v-1h16v-1h14v-1h11v-1h10v-1h9v-1h8v-1h7v-1h4M66,783v1h5v1h4v1h5l1,1h5v1h6l1,1h6l1,1h7v1h10v1h10v1h13l1,1h17v1h36v1h21v-1h36v-1h17l1,-1h13v-1h10v-1h10v-1h7l1,-1h6l1,-1h6v-1h5l1,-1h5v-1h4v-1h5v-1M140,755h-1v1h-3v1h-2v1h-2v1h-2v1h-2v1h-2l-1,1h-1l-1,1h-1l-1,1h-1v1h-2v1h-2v1h-2v1h-1l-1,1h-1v1h-2v1h-1l-1,1h-1v1h-2v1h-1v1h-2v1h-1v1h-2v1h-1v1h-1l-1,1h-1v1h-1v1h-2v1h-1v1h-1v1h-1v1h-2v1h-1v1h-1v1h-1v1h-1v1h-1v1h-1l-1,1h-1v1h-1v1h-1v1h-1v1h-1v1h-1v1h-1v1h-1v1h-1v1l-1,1v1h-1v1h-1v1h-1v1h-1v1h-1v1l-1,1v1h-1v1h-1v1h-1v2h-1v1h-1v2h-1v1h-1v2h-1v1h-1v2h-1v2h-1v1h-1v2h-1v2h-1v2h-1v2h-1v2l-1,1v2h-1v2l-1,1v2h-1v3h-1v4h-1v4h-1v5h-1v9h-1v13l1,1v8h1v5h1v4h1v4h1v3h1v3h1v2h1v3h1v2h1v2h1v2h1v2h1v2h1v2h1v1l1,1v1h1v2h1v1h1v2h1v1h1v1h1v2h1v1h1v1l1,1v1h1v1h1v1h1v1l2,2v1h1v1h1v1h1v1h1v1h1v1h1v1h1v1h1v1h1v1h1v1h1v1h1v1h1v1h2v1h1v1h1v1h1v1h1v1h1l1,1h1v1h1v1h1v1h2v1h1v1h1l1,1h1v1h1v1h2v1h1v1h2v1h1l1,1h1v1h2v1h1v1h2v1h2v1h1l1,1h1v1h2v1h2v1h2v1h2v1h2v1h2v1h2v1h2l1,1h2v1h2v1h2M153,755h-1v1h-2v1h-2v1h-1v1h-2v1h-2v1h-1v1h-2v1h-1v1h-2v1h-1v1h-2v1h-1v1h-1v1h-2v1h-1v1h-1l-1,1h-1v1h-1v1h-1v1h-1v1h-1l-1,1h-1v1h-1v1h-1v1h-1v1h-1v1h-1v1h-1v1h-1v1h-1v1h-1v1h-1v1h-1v1h-1v1h-1v1h-1v1h-1v1h-1v1l-2,2v1h-1v1h-1v1h-1v1l-1,1v1h-1v1h-1v2h-1v1h-1v1l-1,1v1h-1v2h-1v1h-1v2h-1v1h-1v2h-1v2h-1v2h-1v2h-1v2h-1v2h-1v2h-1v3h-1v2h-1v3h-1v3h-1v3h-1v3h-1v4l-1,1v4h-1v6l-1,1v30h1v6h1v5h1v4h1v3h1v3l1,1v2l1,1v2h1v3h1v2h1v2h1v2h1v2l1,1v1h1v2h1v2h1v2h1v2h1v1h1v2h1v1h1v2h1v1h1v2h1v1h1v1h1v2h1v1h1v1h1v1l1,1v1h1v1h1v1h1v1h1v1h1v1h1v1l3,3v1h1l3,3h1v1h1v1h1v1h1v1h1v1h1v1h1v1h1l1,1h1v1h1v1h1v1h1l1,1h1v1h1v1h1l1,1h1v1h1v1h2v1h1v1h2v1h1v1h2v1h2v1h1v1h2v1h1l1,1h1v1h2M166,755h-1v1h-1v1h-1l-1,1h-1v1h-1v1h-1v1h-1v1h-1v1h-1l-2,2h-1v1h-1v1h-1v1h-1v1h-1v1h-1v1h-1v1h-1v1h-1v1l-2,2v1h-1v1h-1v1h-1v1h-1v1l-1,1v1h-1v1h-1v1h-1v2h-1v1h-1v1l-1,1v1h-1v1h-1v2h-1v1h-1v2h-1v2h-1v1h-1v2h-1v2h-1v2h-1v1l-1,1v1l-1,1v1l-1,1v2h-1v2h-1v2h-1v3h-1v2h-1v3h-1v3h-1v3h-1v3h-1v4h-1v4h-1v5h-1v6h-1v8h-1v30h1v7l1,1v5h1v5h1v4h1v4h1v3h1v3h1v3h1v3h1v3h1v2h1v2h1v2l1,1v2h1v2h1v2h1v2h1v1h1v2h1v2h1v2h1v1h1v2h1v1h1v2h1v1l1,1v1h1v1h1v2h1v1h1v1h1v1l1,1v1h1v1h1v1h1v1l1,1v1h1v1h1v1h1v1h1v1h1v1h1v1h1v1h1v1h1v1h1v1h1v1h1v1h1v1h1v1h1l2,2h1v1h1v1h1v1h1v1h2v1h1"/>
<path class="tg" d="M179,755h-1v1h-1v2h-1v1h-1v1h-1v1h-1v2h-1v1h-1v1l-1,1v1h-1v1l-1,1v1h-1v1l-1,1v1h-1v2h-1v1l-1,1v1h-1v2h-1v2h-1v2h-1v2h-1v2h-1v2h-1v2h-1v2h-1v2l-1,1v2h-1v2l-1,1v2h-1v3h-1v3h-1v3h-1v3h-1v4h-1v4h-1v4h-1v4h-1v5l-1,1v5h-1v8h-1v11h-1v29l1,1v10l1,1v7h1v6h1v5h1v4l1,1v4h1v3l1,1v3h1v3h1v3h1v3h1v3h1v3h1v2h1v3h1v2h1v2h1v2l1,1v2h1v2h1v1l1,1v1l1,1v1h1v2h1v2h1v1l1,1v1h1v2h1v1h1v2h1v1h1v2h1v1h1v1l1,1v1h1v1h1v1h1v2h1v1h1v1h1M192,755h-1v3h-1v2h-1v3h-1v3h-1v3h-1v3h-1v3h-1v3l-1,1v3h-1v4h-1v4h-1v4l-1,1v4h-1v5h-1v6h-1v6l-1,1v7h-1v8h-1v11l-1,1v18h-1v29l1,1v18h1v11h1v8l1,1v7h1v6h1v6h1v5h1v5h1v4h1v4h1v4h1v4h1v3h1v3l1,1v3h1v2l1,1v2h1v3h1v3h1v2h1M205,755v243M217,755h1v3h1v2h1v3h1v3h1v3h1v3h1v3h1v3l1,1v3h1v4h1v4h1v4l1,1v4h1v5h1v6h1v6l1,1v7h1v8h1v11l1,1v18h1v29l-1,1v18h-1v11h-1v8l-1,1v7h-1v6h-1v6h-1v5h-1v5h-1v4h-1v4h-1v4h-1v4h-1v3h-1v3l-1,1v3h-1v2l-1,1v2h-1v3h-1v3h-1v2h-1M230,755h1v1h1v2h1v1h1v1h1v1h1v2h1v1h1v1l1,1v1h1v1l1,1v1h1v1l1,1v1h1v2h1v1l1,1v1h1v2h1v2h1v2h1v2h1v2h1v2h1v2h1v2h1v2l1,1v2h1v2l1,1v2h1v3h1v3h1v3h1v3h1v4h1v4h1v4h1v4h1v5l1,1v5h1v8h1v11h1v29l-1,1v10l-1,1v7h-1v6h-1v5h-1v4l-1,1v4h-1v3l-1,1v3h-1v3h-1v3h-1v3h-1v3h-1v3h-1v2h-1v3h-1v2h-1v2h-1v2l-1,1v2h-1v2h-1v1l-1,1v1l-1,1v1h-1v2h-1v2h-1v1l-1,1v1h-1v2h-1v1h-1v2h-1v1h-1v2h-1v1h-1v1l-1,1v1h-1v1h-1v1h-1v2h-1v1h-1v1h-1M243,755h1v1h1v1h1l1,1h1v1h1v1h1v1h1v1h1v1h1l2,2h1v1h1v1h1v1h1v1h1v1h1v1h1v1h1v1h1v1l2,2v1h1v1h1v1h1v1h1v1l1,1v1h1v1h1v1h1v2h1v1h1v1l1,1v1h1v1h1v2h1v1h1v2h1v2h1v1h1v2h1v2h1v2h1v1l1,1v1l1,1v1l1,1v2h1v2h1v2h1v3h1v2h1v3h1v3h1v3h1v3h1v4h1v4h1v5h1v6h1v8h1v30h-1v7l-1,1v5h-1v5h-1v4h-1v4h-1v3h-1v3h-1v3h-1v3h-1v3h-1v2h-1v2h-1v2l-1,1v2h-1v2h-1v2h-1v2h-1v1h-1v2h-1v2h-1v2h-1v1h-1v2h-1v1h-1v2h-1v1l-1,1v1h-1v1h-1v2h-1v1h-1v1h-1v1l-1,1v1h-1v1h-1v1h-1v1l-1,1v1h-1v1h-1v1h-1v1h-1v1h-1v1h-1v1h-1v1h-1v1h-1v1h-1v1h-1v1h-1v1h-1v1h-1v1h-1l-2,2h-1v1h-1v1h-1v1h-1v1h-2v1h-1M256,755h1v1h2v1h2v1h1v1h2v1h2v1h1v1h2v1h1v1h2v1h1v1h2v1h1v1h1v1h2v1h1v1h1l1,1h1v1h1v1h1v1h1v1h1l1,1h1v1h1v1h1v1h1v1h1v1h1v1h1v1h1v1h1v1h1v1h1v1h1v1h1v1h1v1h1v1h1v1h1v1l2,2v1h1v1h1v1h1v1l1,1v1h1v1h1v2h1v1h1v1l1,1v1h1v2h1v1h1v2h1v1h1v2h1v2h1v2h1v2h1v2h1v2h1v2h1v3h1v2h1v3h1v3h1v3h1v3h1v4l1,1v4h1v6l1,1v14l1,1h-1v15h-1v6h-1v5h-1v4h-1v3h-1v3l-1,1v2l-1,1v2h-1v3h-1v2h-1v2h-1v2h-1v2l-1,1v1h-1v2h-1v2h-1v2h-1v2h-1v1h-1v2h-1v1h-1v2h-1v1h-1v2h-1v1h-1v1h-1v2h-1v1h-1v1h-1v1l-1,1v1h-1v1h-1v1h-1v1h-1v1h-1v1h-1v1l-3,3v1h-1l-3,3h-1v1h-1v1h-1v1h-1v1h-1v1h-1v1h-1v1h-1l-1,1h-1v1h-1v1h-1v1h-1l-1,1h-1v1h-1v1h-1l-1,1h-1v1h-1v1h-2v1h-1v1h-2v1h-1v1h-2v1h-2v1h-1v1h-2v1h-1l-1,1h-1v1h-2"/>
<path class="tg" d="M269,755h1v1h3v1h2v1h2v1h2v1h2v1h2l1,1h1l1,1h1l1,1h1v1h2v1h2v1h2v1h1l1,1h1v1h2v1h1l1,1h1v1h2v1h1v1h2v1h1v1h2v1h1v1h1l1,1h1v1h1v1h2v1h1v1h1v1h1v1h2v1h1v1h1v1h1v1h1v1h1v1h1l1,1h1v1h1v1h1v1h1v1h1v1h1v1h1v1h1v1h1v1l1,1v1h1v1h1v1h1v1h1v1h1v1l1,1v1h1v1h1v1h1v2h1v1h1v2h1v1h1v2h1v1h1v2h1v2h1v1h1v2h1v2h1v2h1v2h1v2l1,1v2h1v2l1,1v2h1v3h1v4h1v4h1v5h1v9h1v13l-1,1v8h-1v5h-1v4h-1v4h-1v3h-1v3h-1v2h-1v3h-1v2h-1v2h-1v2h-1v2h-1v2h-1v2h-1v1l-1,1v1h-1v2h-1v1h-1v2h-1v1h-1v1h-1v2h-1v1h-1v1l-1,1v1h-1v1h-1v1h-1v1l-2,2v1h-1v1h-1v1h-1v1h-1v1h-1v1h-1v1h-1v1h-1v1h-1v1h-1v1h-1v1h-1v1h-1v1h-2v1h-1v1h-1v1h-1v1h-1v1h-1l-1,1h-1v1h-1v1h-1v1h-2v1h-1v1h-1l-1,1h-1v1h-1v1h-2v1h-1v1h-2v1h-1l-1,1h-1v1h-2v1h-1v1h-2v1h-2v1h-1l-1,1h-1v1h-2v1h-2v1h-2v1h-2v1h-2v1h-2v1h-2v1h-2l-1,1h-2v1h-2v1h-2"/>
<rect x="5" y="888" width="23" height="22" fill-opacity="0" stroke="#ffffff" stroke-opacity="0.5" stroke-width="5.0"/>
<rect x="7" y="890" width="23" height="22" fill-opacity="0" stroke="#113311" stroke-opacity="0.8" stroke-width="5.0"/>
<rect x="6" y="889" width="23" height="22" fill-opacity="0" stroke="#45a249" stroke-opacity="0.9" stroke-width="5.0"/>
<rect x="691" y="691" width="309" height="309" fill="#ffffff" fill-opacity="1.0"/>
<rect x="694" y="694" width="302" height="302" fill="#000000" fill-opacity="1.0"/>
<rect x="700" y="700" width="300" height="300" fill="#70add3" fill-opacity="1.0"/>
<path class="zl" d="M908,876h-1l-2,-2l4,-1l1,-1h5l-3,1Z"/>
<path class="zh" d="M846,843v2l1,1v2l-1,1v3h-3v-1h-4l-7,1v-1h-1v-1h-1v-2h-1v-1h-1l-1,-2h-1l-2,-2v-1h-2v-1l-1,-1l1,-1h2l1,1h3l1,-1h2l1,-1h4l2,-1h3l1,1h1l2,3v1ZM873,858h2l2,1l1,2v2h-6l-1,-1l-1,1h-1l-1,-1h-1l-1,1h-1l-2,-2h-5l-2,-2v-1h-1l-1,-1h-1l-1,-1v-1l1,-1l7,-2h2l1,1l6,2h2l1,1h1v1Z"/>
</svg>
