<?xml version="1.0" encoding="UTF-8" standalone="no"?>
<svg xmlns:svg="http://www.w3.org/2000/svg" xmlns="http://www.w3.org/2000/svg" xmlns:xlink="http://www.w3.org/1999/xlink" height="1000" width="1000">
<!-- made with pythonshp (GPL): github.com/sanjayrao77/pythonshp , underlying data may come from naturalearthdata.com -->
<!-- 
COPYRIGHT: THIS SVG FILE IS RELEASED INTO THE PUBLIC DOMAIN
 -->
<!-- 
vars : {
	'cmdline' : 'pythonshp.py publicdomain wiki1 southafrica locatormap'
	'title' : 'South Africa locator'
	'version' : '1.0.5'
}
 -->
<defs>
	<radialGradient id="watergradient" cx="500" cy="500" r="500" fx="500" fy="500" gradientUnits="userSpaceOnUse">
		<stop offset="0%" stop-color="#70add3"/>
		<stop offset="11%" stop-color="#6eaad0"/>
		<stop offset="22%" stop-color="#6ca7cc"/>
		<stop offset="31%" stop-color="#6ba5c9"/>
		<stop offset="41%" stop-color="#69a2c6"/>
		<stop offset="51%" stop-color="#679fc2"/>
		<stop offset="59%" stop-color="#669dbf"/>
		<stop offset="67%" stop-color="#649abc"/>
		<stop offset="75%" stop-color="#6297b9"/>
		<stop offset="81%" stop-color="#6095b6"/>
		<stop offset="87%" stop-color="#5f92b2"/>
		<stop offset="92%" stop-color="#5d8faf"/>
		<stop offset="95%" stop-color="#5b8dac"/>
		<stop offset="98%" stop-color="#598aa8"/>
		<stop offset="100%" stop-color="#5685a2"/>
	</radialGradient>
	<radialGradient id="landgradient" cx="500" cy="500" r="500" fx="500" fy="500" gradientUnits="userSpaceOnUse">
		<stop offset="0%" stop-color="#dddddd"/>
		<stop offset="11%" stop-color="#d7d7d7"/>
		<stop offset="22%" stop-color="#d1d1d1"/>
		<stop offset="31%" stop-color="#cccccc"/>
		<stop offset="41%" stop-color="#c6c6c6"/>
		<stop offset="51%" stop-color="#c0c0c0"/>
		<stop offset="59%" stop-color="#bbbbbb"/>
		<stop offset="67%" stop-color="#b5b5b5"/>
		<stop offset="75%" stop-color="#afafaf"/>
		<stop offset="81%" stop-color="#aaaaaa"/>
		<stop offset="87%" stop-color="#a4a4a4"/>
		<stop offset="92%" stop-color="#9e9e9e"/>
		<stop offset="95%" stop-color="#999999"/>
		<stop offset="98%" stop-color="#939393"/>
		<stop offset="100%" stop-color="#888888"/>
	</radialGradient>
	<radialGradient id="bordergradient" cx="500" cy="500" r="500" fx="500" fy="500" gradientUnits="userSpaceOnUse">
		<stop offset="0%" stop-color="#444444"/>
		<stop offset="11%" stop-color="#3f3f3f"/>
		<stop offset="22%" stop-color="#3a3a3a"/>
		<stop offset="31%" stop-color="#363636"/>
		<stop offset="41%" stop-color="#323232"/>
		<stop offset="51%" stop-color="#2d2d2d"/>
		<stop offset="59%" stop-color="#292929"/>
		<stop offset="67%" stop-color="#242424"/>
		<stop offset="75%" stop-color="#1f1f1f"/>
		<stop offset="81%" stop-color="#1b1b1b"/>
		<stop offset="87%" stop-color="#161616"/>
		<stop offset="92%" stop-color="#121212"/>
		<stop offset="95%" stop-color="#0e0e0e"/>
		<stop offset="98%" stop-color="#090909"/>
		<stop offset="100%" stop-color="#000000"/>
	</radialGradient>
</defs>
<style type="text/css">
<![CDATA[
.c4 {stroke:#45a211;fill-opacity:0;stroke-width:4}
.fs {font:14px sans;stroke:#ffffff;stroke-width:2px;stroke-opacity:0.8;text-anchor:middle}
.ft {font:14px sans;fill:#000000;fill-opacity:1;stroke-opacity:0;text-anchor:middle}
.sb {stroke:url(#bordergradient);fill-opacity:0}
.sg {stroke:#000000;fill-opacity:0.0;stroke-opacity:0.2}
.sh {fill:#45a211;stroke:#000000}
.sl {fill:url(#landgradient);stroke:url(#bordergradient)}
.sp {stroke:url(#landgradient);fill-opacity:0}
.sw {fill:url(#watergradient);stroke:url(#watergradient);stroke-opacity:0.8}
.tb {fill:#eeeeee;stroke:black;stroke-width:2}
.tg {stroke:black;stroke-opacity:0.2;fill-opacity:0}
.th {fill:#45a211;stroke:#378100}
.tl {fill:#aaaaaa;stroke:black}
.w4 {stroke:#ffffff;fill-opacity:0;stroke-opacity:0.6;stroke-width:4}
]]>
</style>
<circle cx="500.0" cy="500.0" r="500.0" fill="url(#watergradient)"/>
<path class="sl" d="M487,17v-1h1h-4v-1h-1h1h-1v-1h3l1,-1h17v1h-2l-1,1v1h1v1h1h-2v1h2l-1,1h1l1,1h1v1h-1h7v1h-1h8v1l1,1h-1l1,1h1v1h3v1h1h-1h3l1,1h1v1h1h-8v1h2v2h2v1h1l1,-1h9v1h1l2,1h-1v1l2,1h4v1h1v1h1v1h2v-1l1,1h8l1,1l2,1h1v-1l2,1h4v1h3v1h3v1h-2v1h1h-1v1h1l1,1v2h-4l-1,-1h-1v1h-2v2h-6l-1,1h-7l-2,1l-1,1h-1h1v-1h-1l-1,1l1,1h-1l-1,-1h-4l-1,-1h-1l-1,1l-2,-1h-2l-2,1l-1,-1h-3l-1,-1h1h-1h5v-1l-1,1l-2,-1h-1v-1l-1,-1v1h1v1h-7v2h-1l-2,1h-1l-1,1l-1,-1v1h-1h1v3h-3l-1,-1v1h-1h1h-1v1l-1,1v3l-1,1h-2l-1,1h-1v2h-1l-1,1h1v1h1l1,1v1l2,2l4,1h1l-1,1h-1l-3,-1h-1l-1,1h-4l-1,1l-2,1h-1l-2,1l-1,1h-1l2,-2h2v-1h-1l-2,1l-1,-1v1l-2,-2h-10l-1,1h-3v1h1h-1l1,1h2l1,1h-1v-1h-3v1h1v1l-1,-1h-1l-1,-1l-1,1h1l1,1h-2v-1l-1,-1h-2v-1h1h-2l-1,1h1h-1v2l2,1v1h1l2,2h-2l1,-1h-3l1,1h1l-1,1h-1l1,1h2l1,1h1l1,1h2v3l-1,-1h-1l-1,-1h-1l-2,1h-1h1v1h2v1h-2v1h-1v-1h-1l-1,-1v1l2,2v3h-1l-1,-1h-1l-1,1h-1v-1l-2,-2v1h-1v1l-2,-2l1,-1l-2,-2h-1l-1,-1h1l1,-1h2l1,-1h1l2,1h3l1,1v-1h2v-1h-4l-1,-1v1h-7v-1v1h-2v-1l-1,-1h-1v-1h1h-1l-1,-1h-1l-1,-1v-1h-1v-1l-1,-1l-2,-1h-1h1l-1,-1v-1l1,-1v-2l1,-1v-1h-2v-1l-2,-1h-1v-1l-1,1v-1h-2l-1,-1h-3l-1,-1h-1l-1,-1h-2l-1,-1h-1l-1,1h-1v-1h-1l-1,-1l-2,-1h2v-1h-1l-1,-1h-1l1,-1h-1l-1,-1h-2l-1,1h-1v1h-1v-1h-1v-2h2l-1,-1l-1,1l-1,-1l-1,1h-2v1h-4v1l1,1v1h-2v2h1l1,1h1l2,1h1l1,1v1l1,1v1l1,1l4,2h7v1h-1l-1,1h1l3,1h4l1,1h1l3,1l2,1l1,1l-1,1v1l-1,-1h-1l-1,-1h-3v-1h-3l-3,3v1h1l1,1h1v2h-1l-2,1h-1v2h-1l-2,1l-1,1v1h-3v-1l2,-2v-1h2v-1h1l-1,-1v-1l-1,-2v-1h-1v-1l-1,1l-1,-1h-2v-2h-3l-1,-1h-1v1v-1l-1,-1h-5l-1,-1h-1l-3,-1v-1h-2v-1h-3v-1l-1,-1h-2v-5h-3l-2,-1h-3l-1,1l-4,2h-1l-1,1h-4l-2,2h-2v1h-2l-2,1h-3l-1,-1h-8v1l-4,1l-3,3l1,1l-1,1v1h-1l-1,1l-5,2l-1,1h-1l-3,1l-2,1h-1l-2,1h-1h1v1h-2l-2,2l-2,1l-4,4h-1v2l1,1h1h-1l-1,1l-4,2l-1,1v1h-1v1h-1v1h-1l-2,1l-3,1l-1,1l-2,1l-2,2v-1l-1,1h-2v1l-1,-1l-2,1h-4l-3,1l-2,2h-2l-2,1l-1,1h-1v1h-3l-1,-1v-2h1v-1h1h-1l-1,1v-1l-1,-1h-1v1h-3l-2,2h-6l-1,1l1,-1l1,-2h1v-1l1,-1l1,-2v-1h1h-2v1h-1l1,-1v-1h1l2,-2h1h-1l-2,1v1h-2l1,-1v-1h1v-1h1l3,-3l2,-1v-1l3,-3v-1h1v-1l1,-2h1h-1v-1h1v-1l1,-1h1h-1h1v-1l1,-1l-1,1h-1l1,-1h1h-1v-1l1,-1h1l1,-1h1l1,-1h1l1,-1h1v-1h6l1,-1h3l2,-1v1l2,-1h5l2,-1h6v-1h6l1,-1h1l2,-3l2,-2l2,-3h1l1,-1h1v1v-1l-1,-1h1v-1l1,-1h-1l-2,-1v-1l1,-1h-1l1,-1h1l-2,1h-1v-1h1h-10l1,-1h1l1,-1h-1l1,-1h3l1,-1h2l1,-1h1l1,1l1,-1h6v-1h-1l2,-1l-1,-1v-1h3v1l1,-1h5l1,-1h1h-1l1,-1l3,-1h1l2,-1h2v-1h1l1,-1v-1h2l3,-1h1l4,-2h1v1l1,-1h1h-1v-1h3v-1h1l1,-1h1l1,-1h1l2,-2h1l2,-1h1l2,-1h6v-1h2l2,-1h2v1l1,-1l1,1h-1l1,-1h1v-1h3l1,1h1h-1l-1,-1h-1v-1h-1h2v-1h-1l1,-1h5v1h4l-1,1h3l2,-1h3v-1h4l1,1l2,-1v1h2l1,1v-1h-1h1l1,-1h3l5,-1h1l1,-1h4l3,-1h3l1,1h1h-1l-1,-1v1h6l1,-1h1l2,-1h2l1,-1h1h-1v1h-1v1h1l1,-1v-4h1l1,-1h1v-1h2l2,-1h2v1h2v1h4l1,-1h1v-1h-1Z"/>
<path class="sl" d="M6,422v6h-1v7l-1,1l1,-2v-1v2l1,-1v1v-2l1,-1v-2l1,-1v1v-1h1v1v-1l1,1v4l1,-1v18h1v2h1v5l-1,1v4l-1,2v4l-1,1v6l-1,2v6l-1,2v1l1,-1v-1l1,-2v-3l1,-2v-1v7h1v1v-2l1,-1v1v-1l1,-2v1l1,-1v-4l1,1v-9h1v-1h1v-1h2v1h1v-1v1v-1v1h1v1l1,-1v2l1,-1v-1v1h1v1v-1v1v-1v4h1v-1v4h-1v6l1,-1v-7h1v1l2,-2v-2h1l1,1h2v-1h1v1l1,-1h1l1,-1l1,-2h1l1,-1v1h1l2,2h1v1h1l1,1l1,2l4,4h3l1,-1v-1h2l1,1l1,2v3l1,2v1l1,4v1h1v7l1,1l-1,1l1,3l-1,5v3l-1,3v2h-1l1,1l-1,3v4h-1v1l-1,1v5h-1l1,1l-1,2v-1v15l-1,1v1l-1,-2v-1v2h-1h1v9l1,1v1v-1l1,6l1,2l1,3v2l1,2v1l1,3v5l1,2v2l1,3l1,1v1l-1,1v3l1,4l1,1l1,4v6l1,2v11l1,2v1l1,2v4l-1,1v3h1v3l-2,2h-1v-2l-1,1h1v3l-1,1h-1h1v-1h-1v1h-1v3h1v1l-1,1v4l-1,1v15l1,1v1h-1v3h1l1,2v1l1,2v2h1v2h1l1,1v2h1v1l1,1v2l2,4l1,1v2l1,1v3l1,2v3l2,4l2,5l2,4v2l1,2v2l1,2v2l1,1v1l-1,-1v-2l-1,-2v-2l-1,-1v-2l-1,-1v-2l-2,-2h1l-1,-1v1h-1v-1h-1v-1v1l1,1v1h1v2l1,1v-1h-1l1,2l1,1v2l1,1v2l1,1l1,2v1h1v1l1,1v1l3,6v1l1,2l1,3v1l1,1l1,2v1l1,2v2h1v3h-2v1l1,1h-2l-1,-1l-1,1v1v-1h-1l-3,-3l-2,-4v-1l-1,-1v-1l-2,-2v-1v1l2,3v1l1,2l2,3l3,3v1l2,2h1l2,2h1l1,1l2,4l2,2l1,-1v1l2,2v1l1,1l4,8l1,1v1l2,2v4l1,2v4h1l-1,1h1h-1v1l-1,-1l1,1l1,2h2v1l1,1l1,2l6,6v1l1,2l1,1v1h-3l9,9v-1v1h1v-1h-1v-1l-1,-1h1v1l1,1h1l1,1v1l1,1h-1l-1,-1v1l2,2v-1l1,1v1l1,1v1l2,1v1l3,3h1v1h1l1,1l1,2l1,1h1v2l1,1v1h1v1l7,7h1v1l3,1v-1l1,1h1l1,2h1v1h1v1v-1l2,2l1,2l2,2v1h1l4,4l4,3v1h1l1,1h-2v-1v1h1v1h1h-1v-1v1h1l3,3l2,1v1h1l1,1h-1v-1l2,2h1l1,1v1h1h-1h1v-1v1l2,1h1l1,1v1l1,1h1v1l1,2h1v1h1l1,1l2,1l2,2l2,1l1,1h-2v-1h-1l-1,-1h1v1h1h-1l-4,-4h-1l2,1l1,1v1l1,1h1l1,1h-1v-1h-1l-2,-1v-1h-1v-1v1v-1l-2,-2v1l1,1l-1,-1v1h1l2,2h1v1h1h-1v-1h-1l-1,-1h-1v-1h-1h1l1,1h-1l1,1h1h-1v-1h-2v-1h-1v-1h-1h1h-1v-1h-1v-1l2,2v-1h-1l-1,-1h-1v-1h-1v-1h-1h1v1l2,2h1h-2l-1,-1l-2,-1v-1v1l-1,-1h-1l-1,-1v-1h-2v-1l1,1h1v1h1l-2,-2h-1v-1v1l2,1h-1l-3,-3h-1v-1h-1l-1,-1h-1v-1h-1v-1h-1l-1,-1h1v1h1v1h1h-1l-2,-2l-2,-1l-2,-2h-1v-1l-1,-1h-1v-1h1h-2v-1l-2,-1h1l1,1v1h1h-1l-1,-1v-1h-1l-2,-2h-1v-1h-1v-1v1h-1v-1v1h1v1h1v1h1h-1v-1h-1l-1,-1v-1h-1l-2,-2v-1h-1l-1,-1v-1h-1v-1h-1l-1,-1v-1v1h1l1,2h1l2,2v1v-1l-2,-2l3,3h1v1v-1h-1v-1h-1l-3,-3h-1v-1l-2,-2h-1h1v-1h-2l-1,-1v-1l-4,-4v1v-1h-1v-1l-1,-1h-1l-5,-5v-1h-1v-1h-1l-1,-1v-1h-1v-1h-1l1,1v-1l-2,-2v1v-1h-1v-1h-1v-1l-1,-1l1,1h-1h1l1,2l1,1h-1v-1l-1,-1l-2,-1v-1l-1,-1l-2,-3l-2,-1l-1,-1v-1l-1,-1h-1l-2,-3l-4,-4v-1l-1,-1l-1,-2h-1l-2,-2v-1h-1v-1l-2,-2v-1l-3,-3v-1l-1,-1l-2,-3h-1l-1,-1l-1,-2v-1h-1l-1,-1l-1,-2v-1l-4,-4v-1l-2,-2v-1l-2,-2v-1l-2,-2v-1h-1l-1,-2l-1,-1v-1l-1,-1l-2,-3l-1,-2l-2,-2l-1,-2v-1l-1,-1l-3,-6l-3,-3v-1l-2,-2v-2l-2,-2v-1l-2,-2l-1,-2v-1l-1,-1v-1l-1,-1v-1l-1,-2l-1,-1l-1,-2l-1,-1v-2l-1,-2h-1v-1l-1,-2l-1,-1v-2l-2,-3v-1l-2,-4l-1,-1v-1l-1,-1v-2l-1,-1v-1l-1,-1v-1l-1,-1v-1l-1,-1v-1l-1,-1v-1l-1,-1v-2l-1,-1v-1l-1,-1v-2l-1,-1v-1l-1,-1v-2l-1,-1v-1l-1,-1v-1l-1,-1v-2l-1,-1v-1l-1,-1v-3l-1,-1v-1l-1,-1v-2l-1,-1v-2l-1,-1v-1l-1,-1v-3l-1,-1v-2l-1,-1v-2l-1,-1v-2l-1,-1v-3l-1,-1v-2l-1,-1v-2l-1,-1v-3l-1,-1v-2l-1,-1v-3l-1,-1v-3l-1,-1v-3l-1,-1v-3l-1,-1v-3l-1,-1v-4l-1,-1v-4l-1,-1v-4l-1,-1v-4l-1,-1v-4l-1,-1v-5l-1,-1v-5l-1,-1v-6l-1,-1v-7l-1,-1v-8l-1,-1v-11l-1,-1v-16l-1,-1v-43l1,-1v-15l1,-1v-11l1,-1v-8l1,-1v-7l1,-1v-6l1,-1v-2Z"/>
<path class="sp" d="M46,708l-1,-1v-1l-1,-1v-1l-1,-1v-1l-1,-1v-1l-1,-1v-1l-1,-1v-2l-1,-1v-1l-1,-1v-2l-1,-1v-1l-1,-1v-2l-1,-1v-1l-1,-1v-1l-1,-1v-2l-1,-1v-1l-1,-1v-3l-1,-1v-1l-1,-1v-2l-1,-1v-2l-1,-1v-1l-1,-1v-3l-1,-1v-2l-1,-1v-2l-1,-1v-2l-1,-1v-3l-1,-1v-2l-1,-1v-2l-1,-1v-3l-1,-1v-2l-1,-1v-3l-1,-1v-3l-1,-1v-3l-1,-1v-3l-1,-1v-3l-1,-1v-4l-1,-1v-4l-1,-1v-4l-1,-1v-4l-1,-1v-4l-1,-1v-5l-1,-1v-5l-1,-1v-6l-1,-1v-7l-1,-1v-8l-1,-1v-11l-1,-1v-16l-1,-1v-43l1,-1v-15l1,-1v-11l1,-1v-8l1,-1v-7l1,-1v-6l1,-1v-3"/>
<path class="sl" d="M613,445v1h1l-1,1l1,1l-1,1v2l-1,1v5l1,1l-1,1v4h1v2h-1l-1,1l1,1v10h1v1l-1,1v1l1,-1l1,1v2l-1,1v1h-1v2l-1,2l-2,3h-1l-1,1v1l-2,2h-1l1,1h-1l-1,1l-3,2h-1l-2,2h-2l-3,1h-2v1h-2l-5,3l-2,2h-1v1l-1,2l-2,2h-1v2h-1l-1,-1v2l-1,-1l-2,2l-2,1l-2,3l-4,2h-1l-1,-1v1h1v3l-1,2v2l2,2l1,4v1l1,3v6l1,1v-3h1v2l-1,2v1l1,2l-1,2l-1,4v2h1v2h-1l-1,3l-1,1h-2l-3,2l-6,2l-2,1h-2l-3,2l-1,1l-1,2v1h-1v1l2,2v-1l1,-1v2l-1,5v2l-2,3l-1,6l-2,3v1l-2,2h-2l-4,4l-1,2l-1,3l-1,1l-2,3l-2,2l-1,3l-3,3h-1v1l-2,1l-3,3l-2,3l-3,2l-4,4h-1l-3,3l-2,1l-3,1l-2,1h-4l-1,1v1h-5l-1,1h-5l-3,-1h-1l-2,1h-3l-1,-1h-2l-1,1h-1l-3,3h-7l-2,1h-1l-2,2h-3l-2,-1h-1v-1h-1v-1h-2v-1l-1,-1h-2v2l-1,-1v-2l1,-1l-1,-1l-1,-2l-2,-2v-1l-1,-1v-2h1l2,-2v-2l-1,-1l-1,-4l-2,-2l-5,-8l-1,-3l-3,-6l-4,-6l-1,-1l-3,-2l-1,-1l-1,-2l-4,-5l-1,-3v-1l-1,-1l1,-1l-2,-2l-2,-5v-6l-2,-4l-2,-5v-6l-1,-2v-2l1,1v-2l-2,-5l-4,-4l-1,-2l-3,-4l-4,-8l-6,-9l-3,-3v-1l-1,-1l-2,-3v-13l-1,-5v-1h1v-1l1,-1v-3l2,-10l1,-3v-3l3,-6l1,-1l3,-1l2,-4v-10l-1,-2v-1l-1,-1v-1l-1,-1l-1,-2l-1,-1v-2l-1,-1v-1l-1,-2v-1l3,-3v-3l-3,-5l-2,-5v-2l-3,-3l-1,-2l-1,-1v-1h1l1,-1h2l2,-1v-1l-1,1h-1l-1,1h-2l-1,-1h-1v-4l-1,-1v-2h-1l-1,-1v-1h-1v-2l-1,-1l-2,-1v-1l-2,-2h-1l-1,-2l-5,-5l-3,-2l-2,-2l2,1h1l-1,-1h-3v-2h-1l-1,-1v-1h-1h2v-1h-2v-1l-1,-1l-1,-2l2,2h2l-1,-1l-1,1v-1l1,-1h-3l-1,-2v-1h-1l-1,-3h1v1h1l1,-1h1l1,-2v-6h1v1h1l2,1v-1h2l-1,-1l-1,1l-2,-1l-2,-2l2,-1v1h1v-2l-1,-2h1l-1,-1h-1v-1l2,-2v-1l1,-1v-5l1,-2v-3l1,-1l-1,-1v-1l-1,-2v-1l-1,1v-2h1v-1h-1v-1h1h-2v1h-3l-1,-1v-1l-1,-1v-1h-1v-1h-1l1,1h-2v-1l1,-1h-1v1l-2,-2l1,2l-1,1h-2l-2,1h-2v-1l-1,1h-2v-1h-1l1,1l-2,2v-1h-1v-1v1l1,1h-2l-1,-1v1l-1,1h-1v-1h-1v1h-2l-1,-1l-2,-1v-2l-1,-1v-3h1v-1l-1,1l-1,-1h-1h1l1,-1h-1v-1v1h-1v-1h-1l-1,-2l-4,-2h-2l-5,1v-1l2,-1l-2,1l-1,1l-9,2l-3,1h-2l-2,1l-1,1h-1v1h-1v1l-2,1h-4l-3,2l-2,2l-2,1l-1,1l-5,2l-1,1l-2,1l-1,1h-2l-1,-1h-5v-1h-1v-1l-1,2h-9l-1,1l5,-1l-5,1l-2,1h-3v1l1,-1h1l-4,1l-2,1l-1,1l-4,2l-2,2h-1l-3,3h-4l-2,-1l-6,-2l-2,-1l-6,-6h-3v-2h-1l-4,-2v-1h-1l-1,-1l-3,-1h-1l1,-1l-1,-1l1,-1h-1v1h-1l-1,-1v-2h-2v-2h1l1,-1v-1h-1v1l-1,-1l2,-2h-2v-3l-1,-1h-1v-2l-1,-1h-1v-1h-2l-1,-2v-3h-1l-1,1v1v-3l-1,1v-1h-1v-2l1,-1h1v-1h-1v1h-1v-2h2v-1h1h-2l-2,2h-2l1,-1h-1l-1,1h-1v-2h1h-1l-2,-1v-1h1v-1h1l-1,-1v1h-1v1v-3h1v-4h1v1h1l1,-1h1l1,-1h1l1,-1h-1l-2,1l-1,1h-1v-2l-1,-1v-1h1v-1l-1,1v-2l-1,-1v-1l-1,-1h-1v1v-1l2,-1l3,-4l2,-4l1,-4l1,-1v-1l1,-3l2,-2l2,-6v-2l1,-2v-4l-1,-1v-1h1v-1v1l2,-5v-4h-1v-1l-1,-1l-1,2l1,-4l3,-6l5,-5v-1l1,-1l1,-2l1,-1v-1l1,-1h-1h1v-1l1,-1l2,-1l3,-4h1l1,-2l1,-1l1,-2l1,-1l1,-2l2,-2v-2l1,-1h1l2,-2l2,-1l2,-2l1,-2l2,-2l1,-2l2,-2h1l5,-3l3,-1l4,-4l5,-3l7,-7l1,-2v-3l1,-1l1,-2l5,-5v-1l2,-2l3,-2l4,-4l6,-2l3,-2l1,-1l2,-1l9,-9v-1h1l1,-1h2v2l1,1h3l2,-1h2v-1h3l1,-1h1v1h5l1,-1h2l3,-3h1l1,-1l4,-1h2l3,-3h2l2,-1l1,-1h2l5,-1l2,-1h2l2,-1h1l3,-1l2,-1h9v1l1,-1l2,-1h3l1,-1h1l1,-1v1h4v-1h4l1,1l1,-1h3l4,-2l4,-1h1v1v-1h2v1l1,1h-1l1,1l1,-1l2,-1h1l1,-1v2h-1l-2,2h-1l-1,1v2h1l1,1v2h1l-2,1l-3,3l-3,1l-1,1v2l1,1h3v1l1,-1h1v1l1,1h4l3,1l1,1h2l3,-1h7l2,1l5,1l1,1v3h1l1,1h1l2,1h9l3,1h1l5,3h4l3,-1h1l3,-3v-2l-1,-1v-3l1,-1h1l4,-2l3,-2h3l1,-1h1l1,1l2,-1l1,1h3l1,1h2v2h5v1h8l1,1v1h1v1h1l4,-1l4,1h3l3,1l2,1h4l4,1h2l1,1h2l1,-1h2l2,-1l1,-1l1,1l2,-2h3l-2,1h2l1,-1h1l3,1h1l1,-1h1l2,1h-1l-1,-1v1l-1,1h2v1h1l1,-1h-1h1l2,1h10l2,-1v1l2,2v1l1,1l1,2l1,1v1l1,1v1l-1,1l-2,6v2l-1,1h-1l-3,-2l-1,-1l-2,-1l-1,-1v-1l-1,-2l-2,-1l-1,-1v-1l-1,-2l-1,-1v1l-1,1v1l2,1v3l1,1h1v1l1,1l2,1l2,2h1v2l1,1v1h1v1l1,1v2l6,6l2,4l3,4l2,2v1h2l1,1h-2v3l1,1l1,3h1v1h1l2,1l2,2l3,2h1v3l3,3v1h-1l1,1v5l1,3v1l1,4l1,2h1l1,1l2,1l1,1h1v1h2l2,2l3,4l1,3l1,2l1,4l1,2l1,1v2h1l1,1v2l1,1v-3l1,1h1v1l1,2h3l2,2l4,1l2,3l2,2l5,3l1,2v1h1l4,4l1,-1v1l1,1l1,2h1v3h-1l-4,2l-1,1h-1l1,1v-1h5v1l2,1l2,3l5,5h6l6,-2h1l1,1h5l5,-2h2l2,1h2l3,-1h2l2,1h1l3,-1h6l2,-2h1v-1h2l3,1v3l-1,1l1,2v5h-1h2v-1l1,1v1l-1,-1h-1l-1,1v3l-1,1v3l-1,1v1l-1,2l-1,1v1l-2,3l-1,1l-2,4v1l-2,2l-1,2l-1,3v2l-3,5l-5,7l-9,9l-7,6l-14,8l-2,2l-5,3l-13,13v1h-1l-1,2l-1,1v1l-2,2h-3v1h-1v2h-1v1l-1,1h-3l-1,1v3l-1,1v1h-1v1l-1,1v2l-1,1v1l-1,1l-1,3l-1,1h-1l-1,1v2l-1,1v1l-1,2v1l-1,2v4l6,6v1l-2,2v4h1v2l-1,2v4l1,1v1l1,2v4l1,1v2h1v1l1,1h1l2,2h1Z"/>
<path class="sl" d="M592,76l1,-1h1l-2,-2v-1l-2,-2h-2v-1h-2l-4,-2h-2v-1h4l1,1h2l2,1h1l3,1h6v1h1l2,1h3v1h5l1,1v-1h2v1h3l1,1v1h1l1,1h2l1,1h-1v1h1v1h3v2h-1v-1h-4l-1,-1l-2,-1h-1l-1,1h1v1h-1h3v1h1l-1,1l1,1h1l1,1h2v1h-2l1,1h1l2,2l1,-1l1,1v1h1v1h-1h1v1h-2l-3,-3v-1h-1l-1,1l-1,-1h-2v-1h-1l1,2h1v1h2l1,1l3,1h4l1,-1h1l1,-1h2l1,-1h1l2,1l1,1h-1v1h1l1,1h-2v1h2v1h1l2,1h2v2h1v1l2,2h2l2,1h3v1l1,1l2,1l3,1l1,1l5,1h11l1,1h1v-1l-1,-1v-1h4v-1h1v-1h11l1,1h1l1,1h1l1,1h2l2,2h4l2,1h1v1h1v1l1,1h1l2,1h1l2,2l2,1h3v1h1v1l1,1v1l1,1v1h1v4h1h-1v1h-1l2,2h-2v1l1,1v1l1,1h2v1l-1,1v1h1v1l1,1l2,3v1l1,1v1l1,1l2,1h1l2,1l3,3l-1,1l-1,2l-2,2l2,2h1l1,2h1l1,2l4,4h1l2,1h1l2,2v1l1,1l1,2v2h1l2,1h1v3h-5v1h-2v7h-2l-1,-1l-3,-1l-1,-1l-1,1l-2,-1h-1l-1,-1h-1l-1,-1h-3l-4,-2h-2l-1,-1h-2l-3,-1l-1,-1v-1l-2,-2l-1,-2v-1l-1,-1v-1h-1l-1,-1l-3,-1l-1,1h-3l-1,1h-2l-1,1h-2l-1,-1l-2,-1h-4l-3,-3l-5,-2v-1h-1l-1,-1l-2,-1l-1,-1h-2l-1,-1h-1l-4,-4l-1,-2l-1,-1h-1v-1h-1l-1,-1v-1l-2,-2l-2,-1v-1h-1v-1l-1,-1l-3,1l-1,-1l-2,-1h-1h2l-1,-1h-2v1h1v1l-1,1l-1,-1v1h-2l-1,-1h-2l2,2v1l-1,-1l-1,1v1h2v1h1v1l2,2v1h1l1,1v1l3,3v1h1l1,1h1v1l2,2h1l4,2l1,2v-1h-1v1l1,1h1v2h-1l1,1v1h1v1l3,3v1l2,2h1v1l1,1h3v2h2l3,3h2l2,-1h1l3,1h2l3,1h3l2,-2v-1l1,-1l2,-1l2,-2v-1l2,-1l1,-1v-1h1v-1h1v4l1,1l1,4l1,2l4,4l2,1v1l5,2h2l2,1h1l2,1v1l7,7h1l1,1v3l-1,1v2h-1l-2,2l-2,4v1h-1v-1h-1v-1h-1v1l-1,1v4l1,2v2l1,1h-7l-1,1v3l-1,1h-7l-1,2v1h1l-1,1v1l-1,1h-2l-1,-1h-6l-1,1h-4l-5,1v1l-1,1v4h-1l-1,1h-2l-2,1h-6l-1,1h-4l-2,1h-2l-2,1v1l-2,2h-4l-2,-1l-1,1l-2,1l-1,1h-4l-1,1h-10l-1,2h-2l-1,1h-3l-2,1h-4l-1,-1h-2l-1,-1l-2,-3v-5l-1,-1v-2l-1,-1v-1l-1,-2v-1l-1,-1v-1l-2,-1h1v-8l-1,-1v-2h-1l-1,-1v-1l-2,-2v-1l-2,-2l-3,-1v-1l-2,-2l-1,-2l-1,-1v-1l-1,-1v-1h-1l-1,-3l-1,-1h-1v-1l-2,-2l-4,-2h-1l-2,-1l-1,-1l-1,-2l-2,-1l-1,-3v-2l-1,-1v-6h-1v-1l-1,-1h1h-1l-1,-1v-1l-3,-3l-1,-2l-2,-1h-1v-1h-3v-1l-2,-2l-2,-1h1v-2l-1,-1l-2,-3h-1l-1,-1v-1l-14,-14h-3v-1l1,-1v-1l1,-4v-1h-1v-1l-1,-1v-1l-1,-1l-1,-2l-1,-1v-1l-2,-2l2,-2v-1l1,-1l1,-2v-2l1,-1v-2h3v-1h3v-1v1h-3v1h-2v-2h1l1,-2v-1l3,-3l-1,-1v-3h-1l-1,-1l1,-2v-1l-1,-1h1l2,-2h-1v-1h-2v1h-6l-1,-1h-2l-2,1l-2,2h-7l-1,1l-2,-1h-1v-1l-4,-2l-3,-1h-6v3h-5l-1,1l-2,-1h-1l-1,-1v-1h-3l-1,-1h-1l-1,1h-1v-1h-2l-1,1h-1v-1h4l1,-1h-7l1,-1h1h-1v-1h-1l-1,-1l1,-1v-1h-2l-1,-1h-3v-1h1l-1,-1h2v1h2l-1,-1v-1h1v-1v1l-1,-1v-1h-1h1v-1h1l-1,-1l-2,1h-3v-1h1v-2h1l1,-1l2,-1l2,1v-1h2v1h3l-1,-1h2v1h7v-1h-2l1,-1h3l-1,-1h-1v-1h8l4,1h2l1,-1h1l4,-2h3l2,-1h14v1h1v1h5l2,2h5v1h5l1,1h12l1,1h2l3,-1h2Z"/>
<path class="sl" d="M638,19h-3l-1,-1h-1h1l1,1h2l2,1h3v1h2l1,1h3l1,1h2l1,1h2l1,1h2l1,1h2l1,1h2l1,1h2l1,1h2l1,1h2l1,1h1l1,1h2l1,1h1l1,1h2l1,1h2l1,1h1l1,1h2l1,1h1l1,1h2l2,2h2l1,1h1l1,1h1l1,1h2l1,1h1l1,1h1l1,1h1l1,1h1l1,1h1l1,1h2l1,1h1l2,2h2l2,2h2l2,2h2l2,2h1l1,1h1l2,2h2l2,2h1l1,1h1l1,1h1l2,2h2l2,2h1l2,2h1l1,1h1l2,2h1l3,3h1l1,1h1l1,1h1l2,2h1l2,2h1l2,2h1l2,2h1l3,3h1l2,2h1l2,2h1l3,3h1l2,2h1l2,2v1h1l2,2h1l3,3h1l4,4h1l2,2v1h1l3,3h1l4,4h1v1l2,2h1l4,4h1v1l2,2h1l4,4v1h1l20,20v1h1l4,4v1l7,7v1l3,3h1v1l3,3v1l3,3v1l6,6v1l4,4v1l2,2v1l3,3v1l2,2v1l5,5v1l2,2v1l3,3v1l2,2v2l2,2v1l2,2v1l2,2v1l2,2v1l1,1v1l2,2v1l2,2v1l2,2v2l2,2v1l1,1v1l2,2v1l1,1v1l1,1v1l2,2v1l1,1v1l2,2v2l2,2v2l2,2v2l2,2v1l1,1v2l1,1v1l1,1v1l1,1v1l1,1v1l1,1v1l1,1v2l1,1v1l2,2v2l1,1v1l1,1v2l1,1v1l1,1v2l1,1v1l1,1v2l1,1v1l1,1l-1,-1v-2h-1v-2l-1,-1v-2h-1v-2l-1,-1v-2h-1l1,1l-1,-1v-2h-1v-1v1v-1v1v-1v2h1v1l-1,-1l1,1v2l1,1v2l1,2v2h1v3l1,1v2h1v1l1,2v1l1,2v1l1,1v1l1,3l1,1l1,2v1l1,2v2l1,1v2h1v2h1v3h1v3l1,1v2l1,2v2h1v2l1,1v3l1,2v2l1,1v2l1,2v2l1,3v3h1h-1v-1v1l1,1v6h-1v1v-2l-1,-1v1h1v1l-1,-1l1,1v2l-1,-3v1l1,3v1l-1,-3v-1l1,4v2l-1,1v1v-1l-1,-3v-3l-1,-2h1h-1v-3h-1v-3l-2,-2v-1v1v-1h-1v-1h1l-1,-1v-1l-1,-1v-2l-1,-2v-3h-1v-3l-1,-1v-1v1v-1l-1,-1v-1v1l-1,-2v-1l-1,-1v-1l-1,-1h-1v-2l-1,-1v-4l-2,-2v4l1,2l1,3v9l1,1v7l1,2v4h1v1h1v2l1,3v2l1,1v-1v3l2,7v-1h-1v-1v1l1,2v1l1,1v1l1,2h1v2l2,6v3h-1v-2h-1v1v-3l-1,-1v-3l-2,-2v-1v1l-1,-3l-1,-2v-4h-1v-2l-1,-1v-2l-1,-1v-1l-1,-2v-1v1l-1,-1v-3l-1,-2v-10l-1,1v-3l-1,-2v-8h-1v-3l-1,-1v-3l-1,-1v-3l-1,-1v-1l-2,-4v-2v2v-2l-1,-1v-1l-1,-2v-2l-1,-1l1,1l-1,-1v-1l-1,-3v-1l-1,-1l-1,-3v-2l-1,-1v-3h-1l-1,-1v-2l-1,-2v-1h-1v-1l-1,-1l1,1v3l1,1v1h-1v-1l-1,-1v-1v2l1,1h-1v3h-1v-1h-1v-2h-1v-1v1v-1l-1,-1v-1v2h-1v-1l-1,-3v-6l-1,-2v-1l-1,-1l-1,-3l-1,-2l-1,-1v-1l-1,-1v-1l-1,-2v-1v2l-1,-1v-1l-1,-2l1,2v-2l-1,-1v-1h-1v-2l-2,-2v2h1h-1l-1,-2v-2h-1h1v1h-1v-2l-1,-1l1,2l-1,-2l-2,-2v-1l-1,-1v-1l-1,-1l-1,-3l-1,-1l-2,-4v-1l-1,-1v-1l-1,-2h-1v-1v1h-1l-1,-1l-1,-3h-1v-2l-1,-1v-1v1h-1v-1l1,1v1h1v2l1,1h-1l1,1v1h1v2l1,1l-1,1l1,1h-1v-3h-1v1v-1l-1,-1v-1v2l1,1h-1v1v-2l-1,-2v2l1,1v1h-1v-1l-1,-1v-1l-1,-1l1,2l-1,-1l1,1v1l1,1h-1v-1v1l-1,-1v-1l-1,-2v1l1,1v1h-1v-1l-1,-1l1,1h-1v-1l-1,-2v-1h-1v-1l-1,-1l1,1v1h1v3h-3v2l1,1l1,2v3h-1v2h-3v-1h1l-1,-1l-1,1v1l1,-1v1l-1,2v1l-1,1v3l-2,1l-1,1v1l-3,3v1l1,1v1l-1,1h-1l-2,-1h-1v4l-2,-2h-1v1l-1,2l1,2v2l1,2v1l1,1v2l1,2v1l1,2h-1v-2l-1,1h1l1,1l1,6v2l-1,1v7h1v4l1,4h-1v-1h-2v2l-1,2v2l2,2h1v1l-2,-2l-3,1h-1v5l-2,1h-1l-4,-4l-3,-6v-1h-1v-2l-1,-2v-1l1,1v1l-1,-3v-1l-1,-1v-2h-1l-1,-4l-1,-2l-2,-6l-3,-3l-2,-4l-1,-3v-1l-1,-1l-1,-3v-1l-2,-4v-1l-1,-2v-1l-1,-1l-1,-2h-1v-1l-1,-2l-1,-1h1l-1,-1v-1h-1v-1l-1,-1l-1,-2l-3,-9l-1,-2l-1,-1l-1,-2v-2l-1,-1v-1l-1,-1v-3l-1,-2v2l-1,-1v-2l1,1l-1,-1v-1h-1h1l-2,-2v-7l-1,-1v-1l-2,-2v-2h-1h1v-1h1h-1l-2,-1v-1h1h-1v-1l-1,-1h1l-1,-1h-2l1,1v1h-1v1h1v1h1v3l-5,2h-1l-1,-1l-2,-1l-7,-7l-1,-2l-2,-1l-2,-2v-1h1l1,1h2v-1l1,1l1,-1h1v-2h1h-1v-1v1h-4l-3,-1l-3,-2l-1,-1l-1,-2l-1,-1v-1h1v-1l-1,1h-1l-1,-1v-1v1l-1,-1h-2v-1h-2v-1l-2,-2l-1,-3l-1,-1l-3,-1v-2l-2,-1v-1l-1,-1h-2h2v1h1h-2l-2,-1h-5l-2,-1v1h-1l-2,-2h-2l-1,-1h-1l-1,1h-2l-3,-1h-2l-1,-1v1h-1l-1,-1h-2v-7h2v-1h5v-3h-1l-2,-1h-1v-2l-1,-2l-1,-1v-1l-2,-2h-1l-2,-1h-1l-4,-4l-1,-2h-1l-1,-2h-1l-2,-2l2,-2l1,-2l1,-1l-3,-3l-2,-1h-1l-2,-1l-1,-1v-1l-1,-1v-1l-2,-3l-1,-1v-1h-1v-1l1,-1v-1h-2l-1,-1v-1l-1,-1v-1h2l-2,-2h1v-1h1h-1v-4h-1v-1l-1,-1v-1l-1,-1v-1h-1v-1h-3l-2,-1l-2,-2h-1l-2,-1h-1l-1,-1v-1h-1v-1h-1l-2,-1h-4l-2,-2h-2l-1,-1h-1l-1,-1h-1l-1,-1h-11v1h-1v1h-5l-1,-2v-1l-1,-1v-2h-1v-2h-1v-1h-1v-1h-2l-1,-1h-1v-1h1v-1l-1,-1h-2v1v-1h-1l-2,-2v-3h1v1h3l1,1h3l1,1v-1h-1h2v-1l-1,-1l-2,-1h-1l-2,-2h-1l-1,-2h-5v1l1,1v1l1,1h-1v-1l-2,-1l-1,-1v-1l-1,-1v-2l-1,-1h-2l-1,-1h-2l-1,-1h-2v-1h-1v-1h-1v-1h-1l-3,-3h-3v-2l1,1h3l1,1h2l-1,-1h-2l-1,-1v-1h1v-1h3l2,1h3l1,1h1l-1,-1h-1l-1,-1v-2l-1,-1v-1l-1,-1h-2l-1,-1h-1v1h-1l-1,-1h-2v-1h-7l-1,1h-4v1h1h-3v1h1h-6v1v-1h-1l1,1h-1v2h-1l-1,1v1h2l1,1h1v1h1l1,1v1v-1h1v3l1,1h1v1h1l3,2l2,2h2v1l4,2v1h1v1l2,1h1l1,1h2l1,1h1l1,1h-5v3l1,1h-1v1h-1v3h-1l-2,-1h-1v-1h-2v-1h2l-1,-1h-1v-1h1l-1,-1l-2,-1h-1l-1,1h-2l-1,1h-1l-1,1h-1v-1h-1h1v-1h-1v-1l-1,-1l-1,1l-2,-2h-1l-1,-1h2v-1h-2l-1,-1h-1l-1,-1l1,-1h-1v-1h-2v-1h-1l1,-1h1l2,1l1,1h4v1h1v-2h-3v-1h-1v-1h1l-1,-1h-2l-1,-1h-1v-1l-1,-1h-3v-1h-2v1l-1,-1h-5v-1h-3l-2,-1h-1v-1h-6l-3,-1h-1l-2,-1h-2l-1,-1h-4v1l-1,-1l-2,-1l-1,-1l-5,-2h-3l-2,-2l-1,1l-1,-1h-2v-1h-2l-2,-1h1v-1h-1h1l1,1h4v-1h-1l2,-2v1l1,-1h2l-1,-1h-3l-1,-1h4v-1h4v-1h-6v-2h2v-1h1l1,1h4v-2l-1,-1h-1v-1h1h-1v-1h2v-1h-3v-1h-3v-1h-4l-2,-1v1h-1l-2,-1l-1,-1h-8l-1,-1v1h-2v-1h-1v-1h-1v-1h-4l-2,-1v-1h-1h2l-2,-1h-1v-1h-9l-1,1h-1v-1h-2v-2h-2v-1h7v-1h-1l-1,-1h-3v-1h-3v-1h-1l-1,-1h1l-1,-1v-1h-7v-1h-6v-1h-1l-1,-1h-1l1,-1h-2v-1h1v-1h-1v-1l1,-1h2v-1h-1h1h-1h5v-1h3l2,1v-1h-7v-1h-1h-8v1v-1h-1v1l-1,-1v1h-11l-1,1h-1v-1h-5v-1l-1,1h-1v-1h1v-1h1l-1,-1v-1h-1h2v-1h5v-1h6v-1h5v-1h-13v1h-1v-1v1h-1l1,1h-4l-1,1h-5l-1,1h-5v1h-2l-1,1h-1l-1,1v1h3l1,1h1h-1h2v1h-4l-1,1h1v-1h2l-1,1h-3l-1,1h-4v1h-1l-1,1v1l-1,1h-1h1h-1v1h-2l-1,1h-2l-1,1h-5l-2,2h-5v-1h-1v-1h-1h2l1,-1h-2v-2l-1,1v-2h-1h1h-1v-1h1v-1h1h-3l1,-1h-1l-1,1h1h-2v1h-4l-1,1h-2l-2,1h-3l-1,1h-8v-1h3l1,-1l-1,1v-1h-1h2l1,-1h1h-1l-1,1h-3l-1,1v-1h1l1,-1h2l2,-1h1l1,-1h1l-1,1l1,-1h-1l-1,1h-3l-1,1h-1h1v-1h1h-1h1l1,-1h1h-1l-1,1v-1h2v-1h7l2,-1h-1h1h-2l-1,1h-1v-1v1h-5v-1h6l1,-1l-1,1h-4l1,-1v1v-1h5l1,-1h-1l-1,1v-1h6l1,-1h1l-3,1h-1v-1h6v-1h5v-1h2v1l1,-1h5v-1h-1h1h-1l-1,1h1h-4l1,-1h4l1,-1h1h-1h2l2,-1h1v1l1,-1h1h-1h1l1,-1h1h2v-1h8v-1v1h-2l1,-1h1h-1h6v-1h7v-1h18v-1h4l-1,1h1l1,-1h15l1,1h-1h15l2,1h9l1,1h7l1,1h2l-1,1h-7l-1,-1h-10l-2,-1h-4l2,1h3l-1,1h2l1,1h5l1,1h6l-1,-1h-6v-1h4l2,1h4l2,1h1v-1h1l1,1v-1h-4v-1h10l1,1h3v-1h-4v-1h-1l-3,-1h-1h1l2,1h7l1,1h1h-1l1,1h15l1,1h1h-1v-1h-1h1l1,1h5v1h6l1,1h5l1,1h1l-2,-1h-1h2l1,1h4l1,1h3l1,1h4l1,1h3l1,1h3l1,1h3l1,1h3l1,1h3l1,1h2l1,1h2Z"/>
<path class="sp" d="M642,21h2l1,1h3l1,1h2l1,1h2l1,1h2l1,1h2l1,1h2l1,1h2l1,1h2l1,1h2l1,1h1l1,1h2l1,1h1l1,1h2l1,1h2l1,1h1l1,1h2l1,1h1l1,1h2l2,2h2l1,1h1l1,1h1l1,1h2l1,1h1l1,1h1l1,1h1l1,1h1l1,1h1l1,1h2l1,1h1l2,2h2l2,2h2l2,2h2l2,2h1l1,1h1l2,2h2l2,2h1l1,1h1l1,1h1l2,2h2l2,2h1l2,2h1l1,1h1l2,2h1l3,3h1l1,1h1l1,1h1l2,2h1l2,2h1l2,2h1l2,2h1l3,3h1l2,2h1l2,2h1l3,3h1l2,2h1l2,2v1h1l2,2h1l3,3h1l4,4h1l2,2v1h1l3,3h1l4,4h1v1l2,2h1l4,4h1v1l2,2h1l4,4v1h1l20,20v1h1l4,4v1l7,7v1l3,3h1v1l3,3v1l3,3v1l6,6v1l4,4v1l2,2v1l3,3v1l2,2v1l5,5v1l2,2v1l3,3v1l2,2v2l2,2v1l2,2v1l2,2v1l2,2v1l1,1v1l2,2v1l2,2v1l2,2v2l2,2v1l1,1v1l2,2v1l1,1v1l1,1v1l2,2v1l1,1v1l2,2v2l2,2v2l2,2v2l2,2v1l1,1v2l1,1v1l1,1v1l1,1v1l1,1v1l1,1v1l1,1v2l1,1v1l2,2v2l1,1v1l1,1v2l1,1v1l1,1v2l1,1M595,9h2l1,1h4l1,1h3l1,1h4l1,1h3l1,1h3l1,1h3l1,1h3l1,1h3l1,1h2l1,1h3"/>
<path class="sl" d="M628,236h-1l1,-1ZM630,248v-1ZM630,246h-1l1,-1ZM718,266h3l3,1l-1,1h-6l-2,-2v-1h2ZM979,381v1v-1l-1,-1h1ZM986,401v-1ZM984,388v1ZM960,305h-1v-1ZM960,304v1l-1,-1v-1v1ZM960,306v-1ZM960,306v-1ZM766,112h-1v-1l-1,-1h1v1h1ZM769,112v1v-1h-1ZM290,861h-1v-1ZM236,849h4v1h1l1,1h1v1h-1l-1,-1h-2l-1,-1h-4v-1v1h-1l1,-1h1ZM852,458v-1l-1,-1h1v1v-1v1ZM239,512h-1l1,-1ZM171,456h1ZM188,866h1v1h1v-1h-1v-1l1,1h1v1l2,2v1h1h-1v1h1v1h1h-2l-2,-2v-1l-1,-1h-1l-1,-1ZM189,869h-1v-1l1,1v-1l-1,-1h1v1h1v1l1,1l1,2l1,1h1v1h-1l-1,-1v-1h-1v-1h-1v-1h-2v-1ZM191,872l1,1h-1ZM193,869l1,1h-1ZM188,869v-1ZM194,873v-1ZM341,54h-1ZM339,53v1h-1v-1ZM347,39h-2v1h-1l1,-1h1l1,-1ZM345,46h-1l-1,1h-7l-1,1h-1v-1h1l2,-1h1l1,-1h2v-1h1v-1h1h-1l1,-1h1l2,-1h3v-1h1l1,-1h1v-1h1h-2v-1l2,-1h1l1,-1l-1,1h-3v1h-4l-1,1v-1h1l1,-1h1l1,-1h1h-1l1,-1h1v-1v1h-1l1,-1h-1l-1,1h-1v1h-1l-2,1h-1h2v-1h1l1,-1h1v-1h2v-1h1l-2,1h-1v-1h2l2,-2h1h-1h1v-1h2l1,-1h2v-1h4l1,-1h2l-1,1l-2,1h-2l-1,1h-1h2l1,-1h3l2,-1h2v1h-2l-1,1l-2,1h-1l-1,1h-3v1h-1h1v-1h2v1h-3l-1,1h1l1,-1h3v2l-1,1h2l1,1h1h-1v1h-2l1,1h1l-1,1h-1l-1,1h2v-1h5v1h-1l-1,1h-1l-1,1h-2l-1,1h1h-1l-1,1h-1h3l-2,1l-1,1h-3l-1,1h-7v1h-4v1h-4l-3,1l-1,1h-1l-1,1l-1,-1l-1,1h-3l-1,1h-1v1h-2l1,-1h1l1,-1h2v-1l2,-1h1l2,-1h1v-1h5v-1h2v-1h2l1,-1h-1ZM344,41h1v1h-2v-1ZM373,24h1ZM383,20h1ZM383,20h-1h1l-1,1h-1l-1,1l1,-1h-1h2v-1h-1h1ZM386,19h-1v1v-1ZM369,25h-1ZM370,25h1h-1v-1h1v1ZM372,24h-1ZM347,34h-1l1,-1h1h-1ZM348,36v-1h1ZM349,34h-2l1,-1h2ZM346,35l-1,1h-1h1h-1l1,-1ZM346,35h1l1,-1v1ZM356,29h-3v1h-2l-1,1l1,-1h1v-1h2l2,-1ZM350,32h-1ZM352,31h1h-1l-1,1v-1v1h-1v-1h2v-1ZM349,31h-1v1l-1,-1h1ZM346,33v-1h1ZM338,41h-2l1,-1h-1v1h-2v1v-1l-1,1h-1v-1l2,-1h1l1,-1h1l1,-1h3l1,-1h1v1l-1,1l1,-1v1h-1v1h-2l-1,1ZM350,48h-1ZM701,182h-1h1v-1ZM695,181h1ZM705,183v1h-1v-1h-1h1ZM708,182h-1ZM529,53h1h-4v-1v1h1ZM670,97l-1,-1v-1ZM492,79h-2v-1h1ZM387,111h-1l1,-1ZM384,116h-1v1h-1v-1l1,-1ZM974,367v-1ZM973,364v-1l-1,-1l1,1ZM969,387v1v-1v1l-1,-2v-1l1,1ZM971,376v1v-2ZM971,377v1ZM974,401h-1v-1ZM969,387v-1ZM971,391v1ZM606,407v3h-1v-1l-1,-1h-1v-3l1,-1v-1l1,1v3ZM609,397v2l-1,2h-1v-1l1,-2l-1,-1h1Z"/>
<path class="sl" d="M607,423h-1v-1h1v-1h1l1,-1v1l-1,1ZM760,106l-1,-1ZM764,111v1v-1h-1ZM462,18h-1v1h-3v1h-1h1l-1,-1l1,-1h3v-1h1ZM449,22h-1v-1l2,-1h1l1,-1h1h-1l-2,2ZM463,17v1h-1v-1h2ZM461,15h-1ZM892,332v-1ZM893,336v1l-1,-1v-1v1ZM892,330h1v1h1v1l3,3l1,3v1h1l1,3v1l1,1v2l1,1l1,3v1l1,2l1,1v5l-1,1v1l-1,1h-4l-2,-1l-1,-1v-2l-1,-2v-2l-1,-6l-1,-2v-10l1,-1l-1,-1v-2l1,1v1h1v-1l-1,-1h-1l-1,-1ZM331,97h-1ZM343,90h2v1h-1l-2,2h-2v-1h-2l3,-2h1l2,-1v1ZM350,89h-2v-1h2l1,1ZM331,96h-1l1,-1h1ZM197,178l-1,2l-1,1h-1v-2h2v-1l1,-1h1ZM213,171v1l-1,-1h1v-1h1l1,-1h1h-1v1h-1ZM208,176l-1,1l4,-4v-1h1v1l-1,1l-1,2ZM201,178v2l-1,1h-2l1,-1v-1h2ZM191,182v-1h1v1ZM187,185l-1,1h-1v-1h1l1,-1ZM189,180v-2h1v1ZM987,455h-1v-1h1ZM183,325h-3l1,-1h2ZM736,409v1v-1l-1,-1h1ZM576,163h-1v-1h-2v-1l2,1ZM622,225h1h-1h2v1h-2l-1,-1h-1v-1h1v-1l1,1ZM573,161v-1ZM331,347l-1,1v-2h1ZM324,360v1h-1v-3h2v1ZM408,65v1v-1h1ZM576,6h-1ZM575,6l-2,-1h-1h2Z"/>
<path class="sp" d="M575,6h1M572,5h2l1,1"/>
<path class="sl" d="M531,5h1h-2ZM553,5h-1ZM635,19l-1,-1h-1h2ZM570,5h-6v-1h1l1,1h3ZM594,9h-1ZM591,8h-1Z"/>
<path class="sp" d="M592,9h2M590,8h1"/>
<path class="sl" d="M538,54l1,-1h1l1,1h4l1,1h1v1l2,1h8v1h-1l-1,1h-2v-1h-2l-1,1h-5l-2,2h-2l-1,-1h-1v-2l-1,-1h-3l-1,-1l-1,1v-1h1l2,-1h2l1,-1ZM685,178h-2l-1,-1v-1l-2,-4h1v-3l1,-1h1l3,3h-1v1l1,1v1l1,1v1l-1,2ZM206,152h2l-1,1h-1ZM184,140l-1,1ZM171,137v-1ZM183,134h-1h1v-1ZM180,136h-1ZM176,137v1v-1h1ZM178,137h-1v1h-1l1,-1ZM185,136h1v1h-2v-1ZM745,216l-1,-1l2,-2v2ZM720,179h-1ZM408,16v-1h1v1ZM407,17h-1ZM508,1h1ZM446,6h-1ZM429,10h-1h1l1,-1v1ZM427,10h-1ZM489,0h-1l-1,1h-1v-1h2ZM495,0h1ZM490,0l-1,1h-1v-1h1ZM491,0h-1ZM457,3h1h-2ZM454,4h-1l1,-1ZM463,2h-1l-1,1h-1v-1h2ZM478,1h1ZM481,1h-1ZM476,1h1h-2ZM448,6v-1h1ZM448,5h1ZM441,7h-1h2ZM471,1v1v-1h1v1h-2ZM464,2h1h-1l-1,1h-2l2,-1h1h-1h2ZM330,324h-1l1,-1ZM378,42h-3l-1,1v-1h3ZM394,34h-1ZM392,34h-1ZM388,35h-1ZM389,35h-1l1,-1h1ZM386,36h-1l1,-1ZM378,41h-1ZM396,33h1ZM378,69h-1ZM737,547h-2v-1l1,-1v-1h1v-1h1v1l1,1l-1,1v1ZM175,238v1v-2h1ZM411,103h-1v-1h1ZM410,102h-1ZM860,363v-1h1v1ZM975,403v-2v2l2,2v3l1,1v2h1v2h1v-2l1,3l1,2v2l1,1v1l1,4v10l1,1v7l1,2v3l1,5v1v-1v2h-1v-1v1l-1,-1v-1l-1,-4v-1l-2,-4v-3l-1,-1v-1l-1,-2v-4l-1,-2v-3l-1,-1v-7l-2,-8v-4l-1,-1v-2ZM998,460v1l1,1v15h-1v-1v1h-1v-2h-1v-7l-1,-1v-2l1,1v2l1,2v1v-8h1v-13h-1l1,1v8Z"/>
<path class="sp" d="M997,450l1,1v9"/>
<path class="sl" d="M987,444h-1v-1ZM976,413v-1ZM974,402v1ZM980,434v1ZM997,465v-1ZM564,456h-1v-1h1ZM563,455v1l-1,-1ZM685,469l1,1v1l1,2l1,1v2l1,3v12l1,2v4l-2,2v1l-2,-2v-3h-1l-1,1v5l1,1l-1,2v1l-1,1v1h-1v2l-2,2l1,3l-1,2l-1,4l-1,1l-1,2l-1,3l-2,4l-1,3l-4,8l-1,4l-2,4l-3,4v1l-1,2v3l-1,2l-1,3l-1,1v1l-1,2l-1,1v1l-1,1v1l-1,1l-1,2l-1,1h-6l-4,2l-1,1h-3v-1l-2,-2h-3v-1h-1v-1l-2,-1v-2l-1,-1v-1l-1,-2v-5l1,-1v-4l-1,-1l-1,-2v-8l1,-1v-1h1l1,-3l1,-1h1l1,-1v-2l2,-2l2,-4l1,-1v-3l1,-1v-1l-1,-1l-1,-2v-1l1,-1v-1l-1,-1v-1l-1,-2v-3l1,-1l-1,-1v-1l1,-2l4,-6v-4h5l2,-2v1h3v-1h3l1,-1l1,2h1v-1h-1l1,-1v-1h1l2,-1l2,-2v3h1v-3l2,-2v-1l1,-1v3h1v-1l1,-1v-1h2v1l-1,-2v-1l2,-3v-1h-1v-2h1v-1h1v1h1v1l3,-3l2,-1l1,-3v-2l-1,-2h2l1,-1l1,-2l1,1v1l1,1ZM675,476h-1v-1h1v-1v1ZM685,508l-1,1v-1l1,-2h1ZM656,144h-1v-1l-1,-1h1v-1v1l1,1ZM619,374v-1h1ZM638,66h-1v-1v1ZM639,66h-1v-1h1ZM651,66h-1v-1ZM394,71v1h-2v-1h1ZM413,79h-1ZM395,99v1l-1,-1ZM421,90l-3,3h-1v3h1l-1,1h-1v1h-4l-1,-1h-4l-1,-1h-1l-1,-1h-4l-1,-1l2,-2h1l1,1v-1h10l1,-1h4l1,-1h1ZM386,81v2h-1v2h-1l-1,3l-1,1h-3v1h-1l-1,1v-1l-1,1v-1h-1v-2h1v-1h1v-1h-1l1,-1v-2h-1v-1l1,-1h4l1,-1h1v-1h2v1h1h-1ZM375,90h-1ZM378,81h-1l1,-1ZM554,124v1l-2,2v-1l1,-1ZM322,44v1v-1l-1,1ZM338,38l-1,1h-1l-1,1h-1l-2,1v1h1l1,-1v1v-1h2v-1h1l-1,1h1h-1h1v1h-1v1h-1v1h-1v1h-1l-1,1h-1v1h-3v1v-1l-1,1h-2l-1,1h-1l-1,1h-2l-1,1h-2l-2,1h-1l-1,1h-1l1,-1h1h-2v1v-1h2v-1h1l-3,1h-1h1l1,-1h1l1,-1l-2,1l1,-1h2v-1h2l1,-1h1l2,-1l-1,1v-1l-1,1h-2l-1,1l1,-1h1l1,-1h1l1,-1h-2l1,-1h1h-1h1l1,-1l-1,1v-1h1v-1h4v-1h3v-1h1h-1h1v-1h2v-1h3l1,-1v1h-1h1v-1h2ZM716,168l-1,1h-3l1,-1v-1l1,1l1,-1ZM970,438l1,3l1,1v4l-1,-1v-2l-1,-1v-2l-1,-3h1ZM975,469l-1,-2v-6h1v7ZM994,570v1v-4l1,-1v2ZM995,563v3h-1v1v-5h1ZM990,485v5l1,3v4h-1v-9h-1v-5h1v1v-1v1ZM993,446v-2h-1v-2h1v3ZM993,502v1v-1h-1v-4l1,-1v4ZM966,404v1h1v1h2v3l1,1v1l1,1v3l1,1v3l1,1v2h1v2l2,3v2l1,2v3l1,2v2l1,1v3h1l-1,-1v-2h1v3l1,1v3h1v3l1,1v6h1v1l1,1v2l-1,1h1v-1h1v13l1,1v7l1,1v6l-1,1h1v-1l1,1v2l1,4v3l-1,1v12l-1,2v5l-1,1v-3l-1,1v-1l-1,1v-6l-1,-3v-5l-1,-1v-1l-1,-4v-6l-1,-2v-3l-1,-2v-6l-1,-1v-9l-1,-2v-6l-1,-1v-5l-1,-1v-1l-1,-1v-6l-1,-4v-4h-1l-1,-4v-1h-1v-4l-1,-1v-2l-1,-1v-2l-1,-3v-2l-1,-1h-1v-3l-3,-6v-2l-1,-1v-5h-1v-1h1v1h1v1l1,2l1,1Z"/>
<path class="sl" d="M993,580h1v-1v1Z"/>
<path class="sp" d="M994,577v3"/>
<path class="sl" d="M991,594v-2l1,-1v-5l1,-1v-1v1l-1,1v6l-1,1Z"/>
<path class="sp" d="M992,586v6l-1,1"/>
<path class="sl" d="M995,572v1h-1v1l1,-1l-1,1v1v-5h1v-1v2l-1,1v1l1,-1v-1ZM990,525v3l1,1v7l1,1v2h1v1v-2l1,-1v7l1,1v2l-1,1v7h1v4l-1,2v2v-5h-1v-2l-1,-2v-3l-1,-4v-4h-1v-1h-1v-4l-1,-1v-1l-1,-1v-3l1,-1l-1,-2v-1h-1v-3l1,-1v1v-3l1,-1v1l1,1v1l1,-1v1ZM998,460v1l1,1v15l1,1v40l-1,1v8l-1,1v-4l1,-2v-1l-1,1v-2l1,-1v1h-1v-1v1v-4h-1v-1v1v-7h-1v-21l-1,-1v-20l1,1v7h1v1v-1v2h1v1v-1h1v1v-16l-1,-1Z"/>
<path class="sp" d="M998,460v1l1,1v15l1,1v29"/>
<path class="sl" d="M981,443l1,1v1l-1,1v-4ZM983,454v-1ZM983,450v1v-2h-1v-1ZM985,457v1v-1l-1,-1v-1h-1v-1l1,-1v3h1ZM985,457v-1l-1,-1v-2l1,2ZM985,460v-1ZM986,459l-1,-1v-1l1,1ZM987,456v1v-1v1ZM988,457v1h-1v-1ZM988,469v1v-1v1h1v1h-1v-3ZM988,470v2h-1v-2ZM986,468v-1ZM996,490l-1,1v-3l1,1ZM995,550v-1v1v-3l1,2v1ZM981,508v-1ZM978,484v1v-3l-1,-1v-1h1v3ZM978,479l-1,1v-3ZM977,475l-1,-1v-2l1,2ZM973,457v-3l1,1v1ZM967,428v-1l-1,-2h-1v-3l1,1v2l1,1v1ZM996,553v-1ZM999,530v1v-2ZM985,456h1h-1v-1ZM986,459v-1ZM987,460v-1ZM988,467v1v-2ZM990,446v-1ZM989,447v-1ZM994,454v1ZM995,492h-1v-1h1ZM992,499v-1ZM991,498v1v-2ZM996,552h-1l1,-1ZM996,537v-1ZM986,525v-1ZM970,432v-1h-1h1ZM962,397h-1v-1h1ZM994,578v-1ZM995,573v-1ZM994,569v-1ZM995,570v-1ZM999,527v1v-2ZM956,385l-1,-2v-1l1,2ZM955,380v1l-1,-1ZM952,372l-1,-1ZM953,375v-1ZM953,374v-1ZM949,364v-1ZM946,352v-2h1ZM946,345v-1ZM946,344l-1,-2v-4h-1v-6l-1,-1v-2h1v5l1,3v4l1,1v1ZM946,341v1ZM944,334l-1,-1ZM354,22h1v-1h3l1,-1h2l1,-1h3l1,-1l-1,1h-1h1h-2v1h-1h1h-3l-1,1h-3v1h-2l-1,1h-3l-1,1h-3v1h-3v1h-2l-2,1h-2v1h-1h1v-1l-1,1h-1l-3,1h-1h2l1,-1h2l1,-1h1h-1l-1,1l1,-1l-1,1v-1h3l1,-1h2l1,-1h2l1,-1h2l1,-1h2l1,-1h1Z"/>
<path class="sp" d="M355,21h1M337,27h2l1,-1h2l1,-1h2l1,-1h2l1,-1h2l1,-1h2"/>
<path class="sl" d="M163,302v1v-2h1v1ZM165,302h-1v-1h1ZM166,301h-1l1,-1ZM167,298v-1h1ZM165,299h-1l1,-1ZM165,296v1h-1v-1ZM504,96h1ZM455,88v1h1h-3v-1h1l1,-1ZM456,91h1h-2v-1ZM456,87h-1v-1h1ZM456,88h-1v-1ZM452,83h-1l-1,-1h-1v-1h2v2ZM474,85h2v1h3v2h3v1h-3v-1h-1v-1h-3v-1h-1l-1,-1h-2l1,-1h2ZM477,84h-1l-1,-1ZM477,84v-1h1ZM483,85h-2v-1l1,1ZM484,77h-1l-1,-1h2ZM475,90h-1v-1h1ZM471,99h-1v-1h1ZM500,102h-1v-1h1v-1v1ZM499,94h-1ZM498,95h1ZM488,94v1l-1,-1l1,-1h1v1ZM486,94h-1h1v-1ZM488,97l-1,1v-1ZM487,96h-1v-1h1ZM497,90h2v1h-3v-1ZM492,91h-1h2ZM490,95h1v-1l1,1h-1ZM495,96h-1v1l-1,-1h1ZM480,91v1v-1h1ZM481,92l-1,1v-1ZM481,95v1h-1h1ZM485,90l-1,1v-1h-1v-1l1,1ZM486,91h-1ZM483,95h-1v-1h1ZM492,88h-1l1,-1h-1v-1h2v2ZM495,83h-1h1l1,1h-4l1,-1h1h-1l-1,1h-1v-1h2v-1h1ZM490,77l-1,1l-1,-1h1ZM488,80h-3l1,-1h1v1l1,-1ZM487,92h1ZM481,94v-1ZM504,100l-1,-1h1h-1v-1h1l1,-1h2l-1,1v1h-1ZM476,102h3v1h2l1,-1h2l1,1h5l-1,1h2v-1h2v1h-3l-2,1h-6v-1h-5l-1,-1l-1,1h-1v-2h1v-1h1ZM432,28h-2v-1h2v1h-1ZM434,29h-2v-1l1,1ZM420,29h-1v-1h1ZM407,29h-1h1l1,-1h-1v1l1,-1v1ZM408,29h-1ZM388,72v3h-1l-1,1v1h-1l-1,1h-2v-1h1h-1v-1h-1h1v-2l1,-1h3v-1h1l1,-1ZM335,66l-1,1v-1ZM650,470l-1,-1l1,-1l-1,-1h1l1,1h-1h1l-1,1ZM723,552h-2l-1,-1h-1v-2l1,-1h2l1,1v2ZM719,789l2,-1v1h-2l1,1h4v1l-1,1h-1v-1h-1l-1,1v1l1,-1v2h-1l-1,-1h-1v-1h-2l-1,1v-2h1v-1l1,-1v-1l1,-1v-1h2v-1v2h-1v1h-1ZM719,788l1,-1h1l-1,1ZM643,753v-1l1,1ZM469,12h1h-1v1h-1l-1,-1h1ZM467,13v-1ZM471,13h-1ZM476,7h1h-1h1ZM478,12h1ZM475,12h-1l1,-1ZM477,12h-1ZM476,12h-1ZM491,5h-1h1v-1l1,1ZM479,15h2l1,1h-5v1h-1l1,-1h-1h1l1,-1ZM481,15h-2v-1h1ZM482,15h-1ZM607,229h-1h1v-1ZM608,232h2v1l-1,-1h-3v-1l1,1v-1h-1v-1h1v1ZM342,328h2v1l-2,2v1l-1,1l-1,-1h-1v-1h1l1,-1v-2ZM368,21h1ZM367,22h-1h1v-1v1v-1ZM368,21h-1ZM370,20h-1v1h-1l1,-1ZM371,20h-1ZM429,24v1h-2v1h-2v1h-2v-1h-1v-1h-1h3v-1h1v1h1v-1h4ZM413,28h-4v-1h-1l1,-1v-1l1,-1h3l1,-1h1h-1l-1,1h-2v-1h3l1,-1h3l2,-1h2l1,-1h1l-2,2h-1l-1,1h2v1h-3l-1,1h-1v1h-3v1h-1v1h1ZM419,26h1h-1v1h-4l1,-1h2ZM421,27h2v1h-3v-1ZM418,28l1,-1h1ZM427,27h-1v-1h1ZM429,25h-1ZM417,28h-1ZM415,28h-1v-1ZM420,25h-1ZM425,21h-1Z"/>
<path class="sl" d="M440,26h-1l-1,-1h2ZM548,105h-4v-1h-2l-1,1h-1v-1h-1h2v-1h8l1,-1h1l-3,2ZM539,104h1v1h1l1,-1h2v1h5l-1,1h-1v-1h-1l-2,2h-6l-2,-2h1l1,-1ZM433,68h1ZM436,67h-3ZM434,66h-1h2ZM425,64l-1,-1ZM424,60h-2v-1h1v1ZM424,61h-1ZM425,62v1v-1h-1l-1,-1h1l1,1h1ZM425,64l-2,-1h1ZM422,61l-1,1v-3h1l-1,1h1ZM439,68v1l-2,-1h1ZM444,69v1l-1,-1h-1l-2,-1h-3l-2,-1h2l2,1h2l1,1h1ZM249,330h-1ZM645,461v2h-1l-1,-1h1v-1ZM639,463h-1v-1h1ZM637,459h-1v-1h-1v-3l1,-1v2l1,2Z"/>
<path class="sp" d="M963,312v0"/>
<path class="sl" d="M968,325l1,1v2h1v3h1v1v-1h-1h1v1l-1,-1v-2h-1v-2l-1,-1v-2l-1,-2v-1h-1v-1h1h-1l1,1l-1,-1l1,1v1l1,1v1Z"/>
<path class="sp" d="M966,320l1,1v1l1,1v2"/>
<path class="sl" d="M198,889l2,1l2,2l6,3l2,2l4,2v1h-1l1,1v2l-2,-2v-1h-1h1v1v-1h-1v-1h-2l-1,-1v-1h-2v-1l2,1l2,2h1v-1h-1h1l1,1l-1,-1h-2v-1h-1l-1,-1h-1l-1,-1v-1h-1v-1v2l-1,-1h-1v-1h-1v-1h-1v-1h-1v-1h-1v-1l1,1ZM215,898l1,1h-1h1v1l-1,-1h-1v-1ZM143,848v1h1h-1l-1,-1l-1,-2l-2,-1v-1h-1v-1h-1l-1,-1v-1l-1,-1h-1v-1l2,2v1h1l1,1v1h1v1h1l2,2ZM180,881l1,1h1l1,1v1h1l1,1h-1v-1h-1v-1h-1l2,2h1v1v-1h-1l-1,-1h-1v-1h-1h1l-1,-1h-1v-1h-1v-1h-1v-1h-1h1ZM179,881l-3,-3h-1l-1,-1h1l3,3ZM205,899v-1v1h1h-1h1h-2v-1v1ZM176,878l1,1h-1v-1h-1v-1h-1l-1,-1v-1h-1l1,1h1l1,1ZM207,899l1,1v-1h-1h1l2,2h1v1h1h-1l-1,-1v1h1l-1,-1h-2l-1,-1ZM196,894h2v1h1l1,1h1v1l-1,-1h-1v-1h-1l-1,-1ZM215,901v-1h-1v-1l1,1h1v1v-1l1,1h1l1,1h-2v-1v1l-1,-1v1h2v1h-1v-1v1v-1h-1ZM210,899v1v-1v1h1l1,1h-1h1v1l-1,-1h-1v-1h-1v-1ZM149,854l3,3h1v1h1v1h1v1v-1h-1l-1,-1h-1v-1h-1v-1h-1v-1l-1,-1h-1v-1ZM151,855v1v-1h-1v-1h-1v-1h-1h1l1,1ZM154,859h-1ZM191,890h-1v-1h-1h1ZM178,880l2,2h1l1,1h-1v-1h-1l-1,-1v-1ZM172,875l-1,-1ZM146,851v1v-1h-1ZM152,856v1v-1h-1l-1,-1l1,1ZM194,891v1h1v1l1,1h1l-1,-1h-1v-1h-1v-1h-1ZM188,887l1,1h-1l-1,-1h-1v-1l1,1ZM146,851v1h1h-1ZM198,894h-1v-1v1ZM158,862v1h1h-1v-1h-1l-1,-1l1,1ZM221,902v1h-1v-1ZM215,898h1h-1v-1ZM215,903h1v-1h-1l1,1h1h-1h1h-1v1v-1ZM220,901l-1,1v-1h-1h1ZM121,274v1h-1v-1l2,-2v1ZM126,285v1h-1v-2h1ZM122,275h-1l1,-1ZM131,275h2v1h-1v1h-1v-1ZM122,288l-1,1v-2h1ZM126,274v1h-1v1l-1,-1h1ZM132,272v-1h1ZM128,284v-1h1ZM975,371v-1ZM977,376v-1ZM964,362l1,1v1l-1,-1v-2ZM966,370h-1v-1h1ZM963,358v-1ZM963,355v-1l1,1ZM964,356v1l-1,-1v-1ZM962,349v1v-1l-1,-1ZM962,352v-1h-1h1ZM943,314v-1ZM952,318l-1,-1v-1l1,1ZM934,291v-1l-1,-1l1,1ZM930,281l1,1h-1ZM932,284l1,1v1l-1,-1ZM965,363v-2ZM963,356l-1,-1v-1v1ZM961,350v1ZM961,345v1v-1l-1,-1h1ZM945,315v1v-1h-1ZM929,280v1v-1l-1,-1ZM998,454v1ZM998,454v1v-2ZM13,468l1,-1v-1h1v-1l1,1v2l-1,1v8h-1v3h-1v1l-1,1v1h-1v-12l1,-1v-1ZM64,644h1h-1v1ZM66,680l-1,-1v-1l1,1ZM64,652v1l-1,-2h1ZM26,478v1v-2ZM55,549v1v-2h1ZM55,553v-1ZM24,465v1ZM13,464v3h-1v1v-2ZM12,452v-1ZM11,470v2h-1v-1h1v-2ZM13,467v1v-3h1v1ZM12,467v1h-1v-2h1v-1v1ZM12,464v1v-2Z"/>
<path class="sl" d="M9,484v-5l1,-2v6ZM71,690v1l-1,-2v-2l1,1ZM916,259v1l-1,-3v1ZM917,259h-1v-1h1ZM915,259h-1v-2l-2,-2v-1h1v1l1,2ZM919,263l1,1ZM921,266h-1v-1ZM912,253l-1,-1ZM679,169h-1l-1,-1v-1h1v1ZM616,86h2v1h2l1,1l1,-1h1v1l3,3h-1l-3,-1l-1,-1h-2v-1h-1l-1,-2ZM916,777l1,-1l1,-2l-2,2v-1v1l-2,2v1l-1,1h-1h1h-1l1,-1v-1l1,-1v-4l-2,1l-2,2h-1v-3l1,-1v-1l1,-1l1,-3v-1l1,-1v-2h1l1,-2l2,-2h-1v1h1v-1l2,-2l2,-3l1,-1l3,-6l4,-6v-1l1,-2l2,-3v-1l2,-2l1,-2l1,-3l1,-2l1,-1v-1l1,-1l2,-4v-1l2,-3v-2l2,-4l2,-5v-1l1,-1v1h-1h1v-1v1l-1,2l-1,1v1l1,-1v-1l1,-1v-1l1,-2v-2h1v-1v2l-1,1v1h-1v1h1l-1,2h-1v1l1,-1v-1l1,-1v-1l1,-3l2,-3v-2l1,-2l1,-1v-1l1,-2v-1l1,-2l2,-2v-2h1v-1l1,-1v-1l3,-6v-1v1l-1,2v1l-1,1h1v-1l1,-2l1,-1h1v-1l3,-3v2h1l1,-1l-1,1h1l-1,1h1v-1l1,-1v-1l1,-2v-1l1,-1v-2l1,-1v-2l1,-2v-1l1,-1v-1v1l-1,1v2l-1,1v2l-1,1v2l-1,1v2l-1,1v1l-1,1v2l-1,1v2l-1,1v1l-1,1v2l-1,1v2l-1,1v2l-1,1v1l-1,1v2l-1,1v1l-1,1v2l-1,1v1l-1,1v1l-1,1v2l-1,1v1l-1,1v1l-1,1v1l-1,1v1l-1,1v2l-1,1v1l-2,2v1l-1,1v1l-1,1v1l-1,1v1l-1,1v1l-1,1v1l-1,1v1l-1,1v1l-1,1v1l-1,1v1l-1,1v1l-1,1v1l-1,1v1l-1,1v1l-2,2v1l-2,2v1l-1,1v1l-1,1v1l-1,1v1l-2,2v1l-2,2v1l-2,2v1l-1,1v1l-1,1v1l-2,2v1l-3,3v1Z"/>
<path class="sp" d="M976,652v2l-1,1v2l-1,1v2l-1,1v2l-1,1v2l-1,1v1l-1,1v2l-1,1v2l-1,1v1l-1,1v2l-1,1v2l-1,1v2l-1,1v1l-1,1v2l-1,1v1l-1,1v2l-1,1v1l-1,1v1l-1,1v2l-1,1v1l-1,1v1l-1,1v1l-1,1v1l-1,1v2l-1,1v1l-2,2v1l-1,1v1l-1,1v1l-1,1v1l-1,1v1l-1,1v1l-1,1v1l-1,1v1l-1,1v1l-1,1v1l-1,1v1l-1,1v1l-1,1v1l-1,1v1l-2,2v1l-2,2v1l-1,1v1l-1,1v1l-1,1v1l-2,2v1l-2,2v1l-2,2v1l-1,1v1l-1,1v1l-2,2v1l-3,3v1l-1,1"/>
<path class="sl" d="M948,700v1l1,-3l1,-2l-1,2v1h-1ZM967,665v1v-1l1,-1ZM982,558h-1l1,-1ZM958,550v1ZM718,821h-2v-1h1v-1l1,1ZM214,899l-4,-2l-2,-2l-6,-3l-2,-2l-2,-1h2v1h1v1h2l1,1h1l1,1h2v1h3v-1l1,1h1v2h1v1h-1v2ZM211,892v-1l1,1v1h1h-1ZM112,800h1ZM265,894h2v1l-1,-1v1h-1ZM340,970h-1ZM277,920l1,1h1h-1l4,4h1v1h2v1h1h-1l1,1l-1,-1l-1,1h1l1,1h1l2,2v1h2v1l-1,-1l2,2h1v-1v1h1l1,1h1l1,1h1l-1,-1v-1h-1h1v1h1v1h1l1,1l-1,-1h-1v1h2l1,1h-1v1h2v1h2v1h-1h2v1h2v1h1h-1h1v1h2l1,1h2v1h1v-1h-1h1l1,1h2l1,1h1v-1h-2v-1l-1,-1h1v1h1v1h3l1,1h4l2,1h3v1h3l1,1h4v1h2v1h1l1,1v-1h-1h2v1h1l1,1v-1h3v1h4l1,1l-1,-1l1,1h2v1h1h-1l1,1h4l1,1h-1h3v1h1v-1h-1h1l1,1h1h-1v1h3l1,1h-1h1v1h2l1,1v-1h1v1h2l2,2h1v1h1l3,2l1,1h2v1h1v2l1,1h6v-1h3l1,1h1l1,1h-1v2h1v1h1l2,-2h1l1,1h1l1,1h1h-1l-1,1h-1h7l-2,-2h5l2,2v-1h1h-1l-1,-1h6v-1h-3v-1h4l3,-1h1v-1h1v1h-1h1h-1h1v1h1v-1l1,1h4l-2,-2h1l1,1h4l1,1v-1h1l1,1h2v-1h-3l-1,-1h-1l-2,-1h-1l-1,-1h-1v-1h-1v-2h4v1h2l-1,-1h-1l-1,-1l-2,-1h-1l-2,-1l-1,-1h-1v-1h2l-1,-1h1h-1v-1h-1v-1h1v-1l-1,-1h1v-1l4,-2h-1v-1l-1,1l-1,-1v1l-7,1l-1,-1h-2l-1,1h-4v1l-1,-1h-3l-3,-2l-1,-1h-1l-1,-1v-1h-1v-2l-1,-1v-1l-1,-1v-1l1,-1v-1l1,-2l1,-1h2v-1h1l-1,-1h2l1,-1h-1l-1,-1v-1h-1l-1,-1l-1,-2h4v-1h-1v-2h-2v1h-2l1,-1h-3v-2h-1v-1h3v-1l-2,-1h2v-1l1,-1v-2l-1,-1v-1h-4l-1,-1h-1v-1h2l1,1h1v-3h-1h3l4,2h1v-1l-1,-1v-1h-2v-1h2l1,-1h2v2h1v1l4,-1h3l1,-1h4v-1l1,1h1v1h1v-2h1v-1l6,-3l4,-1h1l2,-1h1l1,-1h3l1,-1v-1l2,1h1l1,1h3v1h2v-1h1v-2h1v-1h-1h1l1,1h8v-1h2v1h5v-1h1v-1l1,1v2l1,1h5l1,-1v-1l1,-2v1h1l1,1v1h3l1,-1v-1h1l1,1v1l1,1h7l1,-1l2,-1h2l2,-1h1l3,-1h4l1,-1h1v-2h1l-1,-1v-3h1l1,-1h3v1h-1v1h-1l1,1l2,-1v1l1,2l1,1h4l1,1l1,-1h1l1,1v1l1,1v-1h1l4,-4v-1l1,-1h3l1,-1h1l1,-1h2l2,-1h3l2,-1h1l2,-1h5v-1l1,-1h1l1,1v1h-1v1h3v1h1v-1l1,-1h2v-1h-1v-1l1,-1h1l2,2h2v-1l1,-1h-1l1,-1v-1h3l3,-1l1,-1h6l4,1l4,4v1l-1,1l-1,-1h-1v1l-1,1l-2,1h2l1,-1l2,1h2v1h1l1,2h3l1,1h1l2,1l1,1l2,-1h2v1l1,1l3,1h2l1,1h1l1,1h4v1l-2,2v1h-1l-1,1h-1l-2,2v1h-3l-1,1h1h-1v1h-6l-1,1v1h3v1l-1,1h-1l-2,1l-1,1h-2l-1,1h-1l-1,1l-4,2l-2,2l-2,1h-1l-1,1l1,1l1,-1h1l1,-1h1l1,-1h4l1,-1h2l1,-1h3l1,-1l2,-1l1,-1h1l1,-1h3l1,-1h1l1,-1h1l1,-1h3v1h4l1,-1h3l2,-1l1,1l1,-1h2l1,-1h1l2,-1l1,-1h12l1,1l2,-1h5v1h7v1h2v1h4l1,1h1v1h2v1h2v2h3v2l2,-1v1l-1,1h3l1,1l3,-1h3v3l-1,1v3l-2,2h1l-2,2h4l2,-1h3l1,1v1l-1,1l-3,1l-1,1v1l-2,1l-1,1h-1l-1,-1h-2v1h1l1,1h1l-1,1l1,1h-1v1h1v1v-1h-2l-1,1h1l1,1h2v1h1v1h-1h2v1h-1v1l-2,1l-3,1l-2,2h1l2,-1h2l1,-1v1l-2,2h1l-1,1h-1l-1,1h-1h1v1h-1l-1,1h-1l-1,1h-1v1h-1l-2,1l-1,1h-1l-2,2h-1l-1,1h-2v1h-1l-1,1h-2v1h-4v1l-1,1h-2l-2,1h-1l-1,1h-2l-2,1l-1,1h-1v1h-2l-2,1h-1l-1,1h-2l-1,1h1l1,-1v1h-3l-2,1h-1l-2,1h-1l-1,1h-1l-2,1h-3l-2,1h-1l-1,1h-3l-1,1h-2l-4,1h-2l-1,1l3,-1h1h-1l-2,1h-3l-1,1h-2l-1,1h-4l-1,1h-3l-1,1h-5l-1,1h-2l1,-1h1h-1l-1,1h-1v-1h4l1,-1h-1l-1,1h-1v-1v1h-1v-1h-1l-1,1h-1v-1h3v-1l-2,1v-1h1h-1l-1,1h-16l-1,1h-2v-1l-1,1h-1h1h-2v-1h1v-1h1h-6v-1h-1l-1,1h-2l-1,-1l-1,1h-1l-1,-1h-3v1h-5v-1h1h-2l-1,1h-27v1h-6l-1,-1l-3,1l-2,-1h-3v1h1h-1h6v1h7v1h1h-12l-1,1h1h-4v1h-1h1l1,1h-1h4v1h-8v1h-1l1,1h8l-2,1h2v1h-1l-2,-1h-16v1h1h-1h1h-16l-1,-1h-12l-1,-1h-8l-1,-1h-6l-3,-1h-2l-9,-2h-5l-1,-1h-4v-1h-1h1h-1l-2,-1h-5l-1,-1h2l1,1h3l-2,-1h-2l-1,-1h-1l-3,-1h-3l-1,-1l-2,-1h1h-1l-2,-1h-1v1l-1,-1h-2l1,1h-4v-1h-1l-2,-1h-1l1,1l2,1h-3v-1h-1h1h-1l-1,-1h-2l-2,-1v-1h-1h1h-1l-1,-1h-1l-1,-1h-2l-2,-2h-3v-1h-2l-1,-1h-1h2l1,1h1v-1h-1l-2,-1h2l-1,-1h1h-1l1,-1h-2l-1,-1h-3l1,-1h-4v-1h3v-1h-1h1l1,1h1v-1h-2v-1h-1h1h-1v-1l-2,-1h-1v-1h-1l-2,-2v-1l-2,-1h-1l-4,-2h-2l-2,-1h-3l-2,-1h-2l-1,-1h-2l-2,-1h-3l-2,-1h-2l-1,-1h-1l1,-1h-1l-1,-1h-3v-1h-2l-1,-1h-1l-1,-1h-2l-1,-1h-1l-1,-1h-1l1,1h-1l-2,-1h-1v-1h-1h1v-1h-2l-1,-1h-1v-1h-2v-1h-2v-1h-1l-1,-1h1h-2v-1h-1v-1h-1v-1l-1,1l-1,-1h-1l-1,-1h1l-1,-1h-1l-1,-1h1h-1l-1,-1h1l-1,-1h-1v-1h-1l-1,-1h-1v-1l-2,-1v-1l-4,-4v-1Z"/>
<path class="sl" d="M407,960h1v-1h3v1h4l2,1l1,1h2l1,3v1h1v2h-3v-1h-2l-1,-1h-1h1h-1h1l-1,-1h-2l-1,-1h-1l-1,-1h-4v-1h-3l-2,-2h-2l-1,-1v-1h2l1,-1h1l1,1h3v1ZM416,969l2,1h3v1h-3l1,1h-2l-1,-1v-1h-3v-1h-1h3ZM324,953h1h-1h3v1h4l2,1h2l2,1h2l2,1l3,1h1l1,1h2l2,1h1l1,1v1l1,1h-3v-2h-1l1,1h-2v-1h-1v-1h-1v1h-1l2,1v1h2v1h-2v-1h-1l-1,-1h-1h1h-1l-2,-2h-2v-1h-1v-1h1h-1v-1h-2v1h-1l-1,-1h-1l-1,-1h1h-2v1h-1l-1,-1h-2l-1,-1h-3l-3,-3h1l1,1ZM373,981h1l-1,-1h-1h1h-2l-1,-1h2l1,1h1h-1l-2,-1h2l1,1h2v1h2v1h1l2,1h1h-2l-3,-1h-1h1l-1,-1h-3v-1ZM425,994l1,-1l2,1h3v1h1h-1l-1,-1h-4ZM436,996l-1,-1h1h-1h2l1,1h1h-2ZM510,996h9l-1,1h-6v-1h-1ZM571,991h-2v-1h2v1l1,-1v1ZM425,956h-1h2l-1,1h-1l-1,-1ZM419,956l-2,1h-1v-1h2ZM411,973v1h-1l-2,-1h-2l-1,-1h-2l-4,-2h2l1,1h2l1,1h3l1,1h1ZM282,924v-1h-1h2v1h2l-1,1h1h-2l-1,-1v1h1h-1v-1h-1v-1h-1h1ZM276,918l1,-1l1,1h-1v1h1v1l-1,-1h-1ZM265,915h1v1h1v1h1v1h-1v-1v1l-2,-2h1ZM285,931v1v-1l1,1h1v1h-2v-1h-1v-1h-1h1ZM284,930h1h-1l1,1h-1v-1h-2v-1h-1h2v1ZM309,946h1v1h1l1,1h-1h1h-2v-1h-1l-1,-1h-2v-1h-2l-1,-1h1l1,1h2v1h1ZM337,960h1l2,1l1,1l2,1h-2v-1h-1l-1,-1h-1h1h-1l-1,-1h1ZM331,959h3v1h-2v-1ZM358,965l1,1h2l1,1h-4v-1h-2v-1h1ZM373,977v1l-1,-1h-4v-1l1,1h3ZM565,991h1v-1h1h-1v1h1h-1ZM698,918h-1v-1h2v-1l1,1l-1,1ZM499,900h-3v-1l1,-1h1l1,1ZM409,909h-2l1,-1ZM415,908v-2h1l1,1ZM414,972h-4v-1h3ZM409,972h-2v-1h1ZM261,909h1h-2l1,-1ZM279,919v1h-1v-1ZM286,925h-1v-1h1ZM275,918h1v1l-1,-1h-1ZM280,922h1v1h-1ZM327,947h-2l-2,-1h-1h3v1h1ZM270,921v-1l1,1h-1l1,1h-1v-1h-1ZM329,956v1l-1,-1h-1ZM374,979v1v-1h-1ZM392,986h1h-2ZM425,993h1h-3ZM443,996h1h-2ZM510,992h1h-2ZM510,994h1ZM590,989h1ZM587,989h-1ZM586,991h1ZM629,983h1ZM637,981h-1h2ZM641,980h-1h2v-1Z"/>
<path class="sp" d="M642,979l-1,1"/>
<path class="sl" d="M690,915v1h-2l1,-1ZM693,919h1ZM689,919h1v-1v1ZM702,920l-1,-1h2v-1h1h-1v1h-1ZM686,910l1,-1v1ZM667,909v-1h1v1ZM670,909h-1v-1h1ZM669,907h-1l1,-1ZM605,920h-1ZM600,921l1,-1h1v1h-1ZM617,915v-1h1v1ZM572,884h-1h2ZM467,899h-2v-1l1,-1h2l-1,1ZM432,905l-1,1v-2h1ZM419,911h-1v-1h-1h1ZM426,904v1l-1,-1v-1h1ZM418,908h2v2h-2v-1h-2l-1,-1h2ZM436,904h-2v-1h1v1ZM397,931l1,1h1l1,1h1h-2l-1,-1h-1l-1,1v-1h1l-2,-2h1ZM398,924h-1v-1h-1h1ZM402,920h-1v-1h-1h2ZM423,956h-1ZM263,908h-1l-1,-1l1,1ZM329,947h-1ZM319,943h-1ZM335,949h-2v-1h1v1ZM338,950h-1v-1v1ZM269,919h-1ZM273,923h-1v-1ZM280,926v1v-1h-2l1,-1v1ZM281,928v1ZM288,933h-1v-1v1ZM274,925v1l-1,-1h-1v-1v1h1ZM296,939h-2v-1h-1h1l1,1ZM299,941h1h-2v-1v1ZM304,944h-1v-1h1ZM311,946l1,1h-1l-1,-1ZM333,957h2v1l-1,-1ZM359,966h1h-1l-1,-1h-1h2ZM420,992h-1ZM453,997h1ZM451,997h1h-2ZM484,999h1ZM488,998h1v1h-1l-1,-1ZM492,999h1h-2ZM493,999h-1ZM493,998h1ZM495,999h1ZM487,999h1ZM488,999h1ZM495,998h1ZM502,996h1ZM493,998h1v1h1h-2ZM506,993h1v1h1h-1v-1Z"/>
<path class="sw" d="M408,65h1h-1v1ZM563,455h-1l1,1ZM564,456v-1h-1v1ZM720,179h-1ZM766,112v-1h-1v-1h-1l1,1v1ZM769,112h-1h1v1ZM764,111h-1h1v1ZM760,106l-1,-1Z"/>
<path class="sh" d="M517,543h5l2,1h7l1,1h1v2l1,2v1l1,3l-1,1h1v1l1,1v2l1,1v2l1,1v8l-1,1v5h-1l-1,-1l-2,-1h-1l-2,2v1l-1,1l-1,2v3l1,1l1,2l1,1h2l2,1h2v-5h1v1h6v2l-2,3l-1,6l-2,3v1l-2,2h-2l-4,4l-1,2l-1,3l-1,1l-2,3l-2,2l-1,3l-3,3h-1v1l-2,1l-3,3l-2,3l-3,2l-4,4h-1l-3,3l-2,1l-3,1l-2,1h-4l-1,1v1h-5l-1,1h-5l-3,-1h-1l-2,1h-3l-1,-1h-2l-1,1h-1l-3,3h-7l-2,1h-1l-2,2h-3l-2,-1h-1v-1h-1v-1h-2v-1l-1,-1h-2v2l-1,-1v-2l1,-1l-1,-1l-1,-2l-2,-2v-1l-1,-1v-2h1l2,-2v-2l-1,-1l-1,-4l-2,-2l-5,-8l-1,-3l-3,-6l-4,-6v-1l1,-1h1v-2h1v-1l1,-1l1,1v1h2v3l1,1h3l1,1h9v-1h1v-1h1v-1h1l2,-1h1l-1,-1v-15l-1,-4v-11l3,1v1l1,1l3,6v2l-1,1v5h8v-1h1v-1h1l5,-5l1,-2v-2l1,-1v-1l1,-1h4l3,3h2l1,1h8l1,-1h1l1,-2v-1l1,-1v-4h2v-1h3v-1l2,-2h1l1,-5l1,-1v-1h2v-1h2v-1h1v-1h1l1,-1v-1l3,-3h3l1,-1h1v-1l1,-1ZM511,611h2v-1h1v-1l1,-1v-1h1v-5h-1l-1,-1h-1l-2,-2v-1h-1l-2,1l-2,2h-2l-1,1v1l-1,1v1l-1,1h-1l-1,1v2l2,2v2h1v1h1v1h2l1,1l1,-1v-1l1,-2l1,-1h1ZM563,749h-2l1,-1h1Z"/>
<path class="sw" d="M459,15h-6v-1h5v1ZM511,10h3l1,-1h1v1l1,-1v1h5v1h2v1h-5v1h-2v-1h-2v-1h-2l-1,-1ZM537,332l-1,1v4l-2,2h-1l-2,2v1h-1l-1,1v-1h-1h1l-1,-1v-1l4,-4h1l3,-3ZM395,251h-1v1v-1l-1,1h-1l-1,1v-3h3ZM568,475v1h-1v-1l-1,-1h-1v-1h-1v2h-1v-1h-1v-3l1,-1h-1v-1h-1v-1l-1,-1v-6h-1v-3h-1v-2l1,-1v-1l1,-1v-1h1l-1,-2v-9l-1,-1v-1h-1v-2l-1,-1v-1h1v-2l1,1l2,1v1l2,2v5l1,1v1h-1v3h1v2h1l1,1v3l-1,1v1h-1v3h-1l1,2v6h1v3h1v1h1v3ZM563,456v-1h-1ZM563,456h1v-1h-1ZM565,354l1,1l-1,1h-2v1h-1l-1,-1v1h-1v4l-2,1v1l1,1h-2l1,1h-2v2h-1v1h-1v1h1h-2l-1,1h1l2,1l2,-1v1l-2,1v1h-1v1l-2,-1h-1l-1,-1v1h-1v2l1,1h-1l-1,1v-1h1v-3h-4v-1l-1,-1h-1v1h-1l1,1h-2v2h1h-1v-1v1h-1v-1h-1v-1h1v-1h-1v-4l1,-4v-5h-1l1,-2v-1l2,-1v-1h-1v-1h1l1,-1h2v-1l1,1l1,-1v-1l1,1h-1h4v-1h1v-1h1v-1l1,1h-1l1,1h1h-1l1,1l1,-1h1v1h2v2h1v1l1,1v1h1v-1l1,-1h1ZM542,372v-1h-2v-1v3h1v-1ZM544,355h-1v-1h-1l1,1v1h1ZM552,370l-1,-1h-1v-1h-1v2h2ZM554,351v-1h-2v1h1v1v-1ZM441,16h1h-1v1h-4v1h-1h1v-1h-1v1h-2v-1h4v-1h4ZM586,259h-3v-3h5v2l-1,1v1l-1,1v-1ZM538,11h-4v-1h-5v-1v1h1v-1h-3v-1h1v1h1v-1h1v1h2v-1h-1h2v1h2v1h2ZM533,10v-1ZM389,37l-2,1h-2v-1h1v-1h3l-1,1ZM389,37h-2l-2,1h3v-1ZM552,18h-1l-1,-1h-3l-1,-1h-1h2v1v-1h1l1,1v-1h-1h1h-3l1,-1h-1h4l-1,1l-1,-1h-1l1,1h2l1,1h2v1h-1v-1v1h1ZM786,108h-1l1,1h-2l-1,-1l-2,-1h-2v-1h-1h4l1,1h3l-1,1ZM568,478v1h-1v-2h1ZM782,92v1v-1l-1,-1h-2v-1h-1l-1,-1h-1v-1h-1h1v1h1l-1,-1h-1v-1h-1v-1h-1h1l-2,-2h-2v-1h-1h2v1l3,2h1h-1v1h1l2,2h1h-1h1l1,1h1v1h1ZM582,333l-1,1v-1l-1,-2l-2,-2v-1l-2,-2v-1l-1,-1v-7l1,-1h1v-1h1v10l2,4h1l1,1v1ZM462,26h1v-1h3l-2,1h-1ZM462,26h-1l-1,1v-1h1ZM130,835v-1h-1v-1h-1h1v1ZM790,93l-1,-1l1,1h1v1h1l1,1h-1v-1h-1ZM516,425v1l-1,1l-1,2l-1,1v2h-3l-1,-1v-1l1,-1l2,-3l2,-2h1ZM976,365v-1l-1,-2v-1l-1,-1v-1l-1,-1v-1h1v2l1,2v1l1,1v3ZM884,180v1h1v1v-1h-1v-1l-1,-1h-1v-1l-1,-1l2,2ZM615,116h-1v-1l-1,-1v-1l2,2h1v1ZM621,122v1h-2l-1,-1h-1v-2h1l1,2h1ZM562,124v2h-1v-2ZM501,16h3v1h-1v-1h-1ZM311,279v4h-1v-3l-1,-1h1v-2h1l1,1h-1ZM625,96l2,2v1h-3l-1,-1v-1l-2,-2v-1h-1l1,-1l1,1h1v2h1ZM690,87h-3l-1,-1h-1v-2h2l2,2h1ZM719,54h1l1,1h-1v-1h1v1h1l1,1h-1v-1h-2ZM785,98l-1,-1h-2l-1,-1v-1h-1v-1l1,1h1v1h1v1h1Z"/>
<path class="sw" d="M524,446l-1,1v1l-1,1h-2v-2h-1h1l3,-3l1,1ZM504,1h1h-2ZM498,5h1h-1h4l1,1h1h-1l-1,-1h-1l-1,1h-1v-1ZM502,16h-2v-1h-1v-1h3l1,1h-1ZM517,365l1,1v1l1,2h-1v1l-1,1h-2v1h-1v-1h1v-1h-1l1,-1v-2l1,-2ZM519,357l-1,-1l1,-1v-1l1,-1h3v1l-3,3ZM70,743l1,1v1l-1,-1v-1l-1,-1h1ZM534,43h-1v-1h-4v-1h-1h4l1,1h1ZM184,882l1,1v1h1v1h1l1,1l-1,-1h-1v-1h-2v-1h1h-1ZM884,200v-1l-1,-1v-1v1h2v2ZM542,86h2v1h-2l-1,-1h-1l1,-1v-1l1,1ZM501,11v-1h-1h3l-1,1ZM509,7h1v1h-1ZM508,8h1ZM530,7h1h-1v1v-1h-3v-1l1,1h1h-1h1ZM524,7h1ZM513,7h1v1h-1ZM511,7h1v1h-1h1v-1h-5v-1h1v1h2ZM514,3v1h1h-2l-1,-1h1ZM519,4h1h-2ZM823,126h-2v-1l-1,-1l1,1h1ZM515,9h1ZM520,16h-1h2ZM876,189h-1l1,1h-1v-1h-1l-1,-1v-1v1h1l1,1ZM804,103v1h1h-1l-2,-2h-1h1l1,1l-1,-1l1,1ZM380,58h-1l-1,1h-2l-1,1l2,-2h2ZM340,39h-1v1v-1ZM445,16v1h-1h1h-2v1h-1l-1,1h-1l2,-2h2ZM607,92l-1,-1h-4v-1h1v-1h6l-1,1h-1v1h1v1ZM852,155h-1v-1h-1v-1h-1h1v1h1v1ZM449,9v-1h1l1,1h-3ZM546,420v1l-2,-1h-3l-1,-1v-1l-1,-1h1v-1l1,1l2,1l2,2ZM959,313v-1h-1v-1v1h1ZM499,9h-1h1h-1ZM452,15h-3v1l-1,-1h-1h4ZM498,7h-1ZM543,13h1ZM6,440v1v-2h1v1ZM574,384v-2h1v2l-1,1ZM593,300h1v2h-1v1h-1v1l-1,1h-1v-1h1v-1h1v-2ZM470,3h-2h3ZM443,52h-1h1l1,-1h1ZM124,827v1v-1h-1ZM181,880v1h1h-1v-1h-1h2ZM420,361h-1v-2h-1h3v3ZM514,6h1h-2ZM854,180h-1l-1,-1v-1v1h1ZM869,189v1l-1,-1v-1ZM739,64v1h1h-1l-1,-1h-1h1ZM717,57l-1,-1h-1l-1,-1h1v1h2ZM726,56h-1ZM548,11h1v1h-1ZM506,3h1h-2ZM523,2h1ZM518,3h-1h1h-1ZM892,212v-1v1v-1v1l-1,-1v-1l-1,-1h1v2h1l1,1ZM696,45h-1v-1v1v-1ZM682,42l-1,-1h1ZM520,4h1ZM495,16h-1ZM445,8h1v1v-1ZM616,82h1l1,1h2v1h1h-3l-1,-1ZM866,169v1l-2,-2h1v1ZM650,137h-2l-1,-1h-3v-1h-1h3v1h4ZM800,100h-1v-1h-1l-1,-1l1,1h1v1ZM866,188v1h1h-1v-1h-2v-1h1ZM629,263h-1ZM51,679v2h1h-1v1h1v2h1v1h-1v-2h-1h1l-1,-1v-2h-1v-3h-1v-2h-1h1v1l1,2ZM515,494l-2,2h-1v-1h-1v1h-4v2h-1l-1,1h-1v1l-1,1v1h-1v1h-1l-1,1v1l-1,1h-1l1,-1v-1h1v-1h1v-2l2,-2v-1h1v-1h1v-1h2v-1h1l1,-1h2v-1h1l1,1h1ZM555,339h-3v1h-1h1v1h1v1h-1l-1,-1h-1l-1,-1v1h-2v-1h-1h1l1,-1h5v-1h1v1ZM553,14v1h1h-1l-1,-1h-1h1ZM399,52h-1ZM483,10h-1h2ZM562,127v1h-1v-1ZM561,118v-1ZM887,187v-1h-1v-1v1h1ZM886,185v1l-1,-1v-1v1Z"/>
<path class="sw" d="M769,105h-3v-1h-1h2v1h1ZM848,182v-1l-1,-1h1v1ZM849,182l-1,-1h1ZM275,313v1h-1v2h-1v-1v1h-1v-1h-1v-1h-3v-1h1v1v-1h3v1v-1h1h-1v-1h1l1,-1h-1h1v-2h-1h1l1,-1h-1v-1h-2l1,-1h-2l-1,1h-1l1,-1h1v-1h1v-2h-1l-1,1v-1h1h-2l1,-1h-1v1h-1l1,-1h-1v-1l-2,-2h-1v1v-1h-3v1h-1v-1h2v-1h1v1h1l1,-1h-1v-3l1,1h-1v1h1v1l1,1h1v-1v2l2,2h1v-1h1v1h-1h1v1h1v1h1v-2h1v-1h-1h1v-1h-1v-2h1v-1v2l1,1h-1v2h1h-1l-1,1h1v1v-1v3h1v1h-1v5ZM274,313v-1h-1v1ZM682,72v-3h1h1h-1h1l1,1l-1,-1l-1,1h1l-1,1v1h1v1l1,1v1h-1v-1l-1,-1ZM692,70h-1h1l-4,-2h-2v-1h1l1,1h2l-2,-1l2,1l1,1h1v-1l1,1v1ZM686,69h-1l-1,-1h2l1,1ZM769,89h1v1h1h-1h1v1h-1v-1h-1v1v-1h-2l-1,-1h-1l-1,-1h-2v-1h-2v-1h-3v-1h-1l1,1h-1v-1v1v-1h-1v1h1l-1,1v-1h-1v1h1l1,1v1h1l1,1v1v-1h-1l-1,-1l-2,-1l-1,-1h-1v-1l-1,-1h1l-1,-1h1v-1h1v1h2l2,1h1l1,1h2v1h2v1h2l2,1l1,1v-1h-1h1ZM531,425l-1,-1h-1v1v-1h-1v-1l1,-1v-2h-1l-2,-2v-3l-1,-1v-1l-1,-1h-1l-1,-1l-1,-2h-1v-2h-1l-1,-3v-1h-1v-2h1v-2h1l-2,-2v-1l-1,-1v-4l1,-1v-1l1,-3h-1v2h-1v-5h1v-3h1v4h1v1l1,2v1h1v5l1,1v1h1h-1v3l1,1v1l1,1v1h-2v3l2,2v-1h1l2,2v1l1,1h1v2h-1h1v4h1v1l1,2l1,1v2h1v1l1,1v2h-1v1l-1,-1ZM85,735h1v3h1h-1v-1v2l1,1v2h1v1l1,1h-1v-1l-1,-1v-1h-1v-3h-1v-2l-1,-1v-2h-1v-1l1,1v1h1ZM550,57h-2v-1h-1l-1,-1h-1v-1h-1v1h-1v-1h-3l-1,-1h1l1,1h1l-1,-1h2v1v-1l1,1h2v1h1v1l2,1ZM509,9h1h-4v1h-1h1h-6v-1l1,1v-1h2v1h1v-1v1v-1h1h-2v-1h-1v-1h-2v-1h-1h1v1h1h-1h4v1h1h-1h2l1,1h1v-1l1,1v-1h-1h2l1,1h-1ZM502,7h1v1h1l-1,-1ZM502,10h-1ZM503,10h-1v-1v1h-1h1ZM505,10v-1h-1h1l-1,1ZM509,9h-1ZM782,92v1v-1l-1,-1h-2v-1h-1l-1,-1h-1v-1h-1h1v1h1l-1,-1h-1v-1h-1v-1h-1h1l-2,-2h-2v-1h-1h2v1l3,2h1h-1v1h1l2,2h1h-1h1l1,1h1v1h1ZM160,861v2l3,3h1v1v-1h-1l-1,-1v-1h-1h1h-1v-1l-1,-1h-1v-1ZM499,7v1h-1h1h-4v1v-1l-1,1h-1h1h-1h1h-1v1h2v1v-1h-3v-1h1h-1h1h-1h2v-1h1h-1h1h-1l1,-1h-1h2l1,1h-1v-1h-1v1h-1h3v-1v1h1v-1h-1h1ZM512,4l1,1l1,-1h1l1,1h1h-5ZM547,49h-2l-2,-1l-1,1h-1l-1,1h-1v1h-1v-1h1v-1h1l-1,-1h7v-1l1,1ZM606,32h-1v-1h1v-1l1,-1h-1h6l1,1h3l-1,-1h1v1h1v-1l1,1h-5l-3,-1l-1,1h-2v1h-1v1h2l1,1h2v-1h1v1h-1v1h1h-1l-1,-1v1h2l1,1h2h-4l-1,-1h-1v-1h-1l-1,-1ZM42,522l1,1v1h-1v3h-1v1l-2,2v2h1v1h-1v1l1,2v1v-1h-1v-1v9l-1,-1v-8h1v-1h-1v-1h-1v-1h1v1v-1h1v-1h-1h1v-1h-1v-1h1l-1,-1h1v-1v1l2,-2v-3h1v-1h-1v-2l1,1ZM39,541h-1l1,-1h-1v2l1,1v-1Z"/>
<path class="sw" d="M975,434h-1v-4l-1,1v-2h1v3l1,1ZM497,9h-1v1h-1v-1h-1h2ZM540,179h-1v1h-1v1h-1v1l-1,-1v1h-1l-1,1v1l-2,2h-1h1v-1l2,-2v-1h1l1,-1h1l-1,-1h2v-1h5v-2h1v-1h1v-2h-1v-1l-1,1v-1h1l1,1v-3l1,1v1h-1v1h1v2h-1v1h1v1h-1v-1h-1v1h-1v1l-1,1h-2ZM489,9v1h-1v-1h2ZM485,10h-1h1h-1h1v-1h1h-1h2v-1v1h1h-1h2v-1h1v1h-1h1h-4v1ZM275,313v1h-1v2h-1v-1v1h-1v-1h-1v-1h-3v-1h1v1v-1h3v1v-1h1h-1v-1h1l1,-1h-1h1v-2h-1h1l1,-1h-1v-1h-2l1,-1h-2l-1,1h-1l1,-1h1v-1h1v-2h-1l-1,1v-1h1h-2l1,-1h-1v1h-1l1,-1h-1v-1l-2,-2h-1v1v-1h-3v1h-1v-1h2v-1h1v1h1l1,-1h-1v-3l1,1h-1v1h1v1l1,1h1v-1v2l2,2h1v-1h1v1h-1h1v1h1v1h1v-2h1v-1h-1h1v-1h-1v-2h1v-1v2l1,1h-1v2h1h-1l-1,1h1v1v-1v3h1v1h-1v5ZM274,313v-1h-1v1ZM467,4h-1h1h-1h2ZM467,4h2v1h-2ZM456,7h-1ZM449,7h1h-2ZM618,119h-2v-1h1v1ZM449,70h1v1h-2v-1ZM14,503v-4l1,1v5h1v1h-1l1,1v2h1l-1,1v-1l-1,-1v-4ZM49,611h1h-1v1l1,1h-1v1v-2h-1v-2h-1v-3l1,1v2h1v1v-1ZM41,639h-1v-4l-1,-2v-1v1l1,1v1v-1v1l1,1v2ZM151,851h1v1l-1,-1h-1v-1ZM395,52h-1ZM539,9h1ZM550,13l-1,-1h1l1,1ZM516,5h-1h3ZM517,2h-1ZM745,101h2l1,1h-1l-1,-1ZM787,91h1v1ZM872,180v1h-1v-1l1,1l-1,-1v-1ZM870,179v1h1v1l-1,-1ZM820,165l-1,-1h-1v-1l1,1ZM882,193v-1h-1h1ZM869,185h-1h1v1ZM823,156l2,1l1,1h1l-1,1v-1l-2,-1ZM712,61h1h-1v1h1h-2v-1ZM684,49v-1h1v1ZM437,11h1ZM438,11h1h-2ZM956,705v-1l1,-1v-1l-1,1ZM935,741h-1h1v-2h1v-1l-1,1v1l1,-2l1,-1v-1v1v-1v2h-1v1l-1,1Z"/>
<path class="sb" d="M274,114v-2l1,-1h1v-1l1,-1h2v-1h-1v-1l1,-1h1v-1h1v-1h1h-1v-3h2l2,-2v-1h1v-1h1v-1h1v-2h1v-1h1l1,-1h1l1,-1h1v-1h-1v-1h-1l-1,1h-2l-1,1h-4l1,-1h-1l-1,1h-1l-1,1M341,79h-1v-1M350,78h-3l-1,1h-5l1,-1h-6v1h-11v-1h-1M384,47h-3M385,45h-2l-1,1v1h-5v-1h1v-1v1h-2l-1,1h-1v-1h1h-1h1l-1,-1h-1v1h-1l1,-1h-2v-1l-1,1h-1v-1M385,43h-1l1,-1h1l-1,-1h-6v1h-1M387,53v-1h1v-1h1v-1l1,-1h1l1,-1h1h-3l-1,-1v1h-3l-1,-1h-1l1,-1h1h-1v-1h-1h1v-1h2l-1,-1h-1l1,-1h-1h1l1,-1h1v-2h3l1,-1h1h-1h1l1,-1h1h-2v-1h3v-1h1v-1h1M380,60h-1v-2h1h-2l-1,1h-1v1h-1v-1h1v-1h1v-1h2v-1h2v-1h2v-1h-1h4v-1h6v-1h-1h6M397,54h-1l1,-1M401,54l-1,1h-1l-1,-1h-1v-1h1l-1,-1h3v1h2v-1h6v-1h5v-1h3v1h1v-1h1h-1v-2h3v-1h3v-1h1M434,52h1l1,-1h1h-1v-1h2v-1h-1h1v-1l1,1h1l1,-1v-1M441,45h-7l-1,-1h-1v1h-1v-1l-1,1h-1l-1,1h-5v-1h-3v-1h-2v-1h-1h1v-1h-1v-1h3v-1h4v-1v1l1,-1h3l1,-1h1h-1h3M471,45h-4v-1h-1l-1,1h-1l-1,-1l-1,1h-2l-1,1h-4l-1,1h-3l-1,1h-7l-1,-1h-1l-1,-1h1v-1h1v-1h5v-1h2l1,-1h3M473,42h-3v-1h-5v1h-8v-1h-2l-1,1h-1v-1h-2l1,-1h-6l1,-1h-4v1h-3v-1h-1h1v-1l-1,1h-1v-1h-5v-1h1v-1h-1v-1h-1h1v-1h1h-1h1h-1v-1h1h-1l-1,-1h1v-1h1v-2M477,26h-16M469,24v-1M480,34v-1h1v-1h-2v-1h1l2,-1h1l-2,-2v-1M475,46h-1h1h-2v-1h-2v-1h1v-1h1v-1h1v-2h2v-1h2l1,-1h3v-1h1h-1v-1h1h-1v-1h-1v-1h-1h3l1,-1h16v1h17v1h2l-1,-1v-1h1l1,-1h4M496,45h1l1,-1l1,1l1,-1h3l1,1h3v1l1,-1h1l1,1h2v1h-1v1h2v1h1v1h2v1l1,1h-5v-1l-1,1h-1l1,1h-1v1h-2v1h-2v1M458,54l2,-1v1l1,-1h3v-1h1v-1h1l2,-2h1v-1h1l1,-1h2l1,-1h11l1,1h2l2,-1h4v-1h5v1h1v1h1v1h2v1h1l1,1h1v2l-1,1v1h1v1h-1h1v1h2l1,1l1,-1h-1h6M472,61h2v1h-1v1l2,-1h2l2,1h12l1,-1h2l1,-1h7l1,1h2l1,1h3M378,69v-1h2v-1h-4v-1l1,-1l-1,-1v-1h3v-1h1h-1v-1h-1l1,-1h5l1,-1h1l1,-1h1v-1h1v1h2l-1,1h1l1,-1h1v-1h1v-1h1v1h3v-1h1v-1l1,1h1v-2h2v1h1v-1h2l1,-1h4l1,1h8M418,58h1v-1h-1v-1h-1h1v-1l-1,1v-1h2v-1h7l1,-1h6v-1h2v1h1M417,58h6v-1h1v1h4v-1l1,-1h1v-1h1l1,-1h2v-1h2l1,1h2l1,1h2v1h5v-1h3M449,59h1v-1h2v-1h-2v-1h-1h1l-1,-1h2v-1h8v1h2v1l1,1h3l-1,1h1h-1v1h4v1h1l1,-1h2v1h-1v1h1h-1v1h-1l-1,1h1v1h1l1,1h1v1h-1l-1,1h-1l-1,1h1v1h-1M463,70h2v-1h4v1h2l1,1v1h1h-1v1M439,68v-1h-1l-1,-1v-1h-2l-2,-2h-1l-1,-1v-1h-1l-1,-1l1,-1h4l1,-1h7v1l1,-1h5v1h3v1h-1v1l1,1h1v1h-1v1h-1l-1,1"/>
<path class="sb" d="M456,67h1l1,-1h1v-1v1h2l1,1h1l1,1h1l-1,1h-1v1h-3l-2,1v1h-1M459,76h4l1,-1h3v-1l1,1h1l1,-1h1l1,-1l1,1l1,-1h5v-1h3l1,1h3l1,1h1l1,-1h4v-1h-1h1v-1h1M454,69h1v1h2v2h-1v3h1v1h2v1l-1,1h-1v1h-1v1h-2v1l-1,1h-1M444,69h1v-1h-1v-1h1v-1h1l1,-1h1v1v-1h3v1h3l1,1h1h-1v1h-1v1h-2v-1l-1,1h-1v1h-1v2M492,76h1l1,-1v-1l1,-1h1v-1h-1l-1,-1h2v-1h6v1v-1h3M504,21h-2v1h-5M470,21h3l2,-1h4l1,1l1,-1h3v1h3l1,-1h1l1,1h4l1,1h2v1h-1h-1v1h-2l-2,2h1h-4v1h-7v-1h-4v-1l1,-1h-7v-1l-1,1M501,17h-9l-1,-1h-2v1h-2M70,729v1l1,1v1l1,1v1h1v2h1v1l1,1v1h1v2l1,1v1h1v1l2,2M54,687l2,6l1,2v1h1v4l1,1v2l1,1h-1v-1v4l-1,1h-1v1h-1v-2l-1,-1v-2l-1,-1v-1h-1v-3l-1,-1v-1l-1,-1v-2l-1,-1v-1l-1,-1h-2l-3,-3l-1,1v-1h-1v-1h-1v-1h-1v-1l-1,-1l-1,-2v-1h-1v-1M41,696v1l1,2l1,3l1,2l1,1v1l1,2v1l1,1v2h1v1l1,1v2h1v1l1,2l1,1v1l1,2v1l2,2v2h1v1l1,1v1l1,1v1l1,1v1l1,2l1,1v1l1,1v1l1,1v1l1,1v1l1,1l1,2l1,1v1h1v2l2,2v1h1v1l1,1v1l2,2v1l1,1v1l1,1v1h1v1l1,1v1l2,2v1h1v1h1v2l3,3v1v-1v1h1v1l1,1l1,2l1,1h1v2h1v1l1,1v1h1v1h1l1,2v1h1v1h1v1l1,1v1h1v1l2,2v1h1v1l2,2v1h1v1h1v1l2,2v1l1,1h1v1l4,4v1h1v1l2,2v1h1l1,1v1h1v1h1v1l1,1v1h1v1h1l1,1v1h1v1h1v1l2,2h1l1,1v1l2,2h1v1l6,6h1v1h1v1h1v1h1v1h1v1h1v1h1v1v-1h1v1l1,1v1h1v1h2v1l1,1h1v1l2,2h1v1h1v1h1l1,1v1h1l3,3h1v1h1l1,1v1l1,1h1v1h1v1h2v1l1,1h1l1,1v1h1v1h1v1h1l4,4h1l1,1v1h2v1h1l1,1v-1h-1h1l2,2h1v1h1l2,2h1l1,1v-1l-1,-1v-2h1M32,653v-1l-2,-2v-1h-1v9l1,1v3l1,1v1l2,4v2l2,3v3l2,4v-1h-1v2h1v1l1,3v1l1,1v2v-2h-1v-1l-1,-1v3h1v2l1,1v2h1v2l1,1v1l-1,-1v-1l-1,-1v-2l-1,-1v-1l-1,-1v-1l-1,-1v-2l-1,-1v-1l-1,-1v-2h-1v-2l-1,-1v-1l-1,-2v-2h-1v-1M2,451l1,-1v-1M4,438v-3M5,428v-2l1,-1v-3M3,468v-19l1,-1v-7l1,-1v-1M5,460v-1h1v-8l1,-1v-15l1,-1v-1M90,745h-1l-1,-1l-1,-3l-1,-1v-2l-1,-1h-1v-1h-1v-1h-1v-1h-1v-1h-2v-1h-1v-1h-2v-1h-1v-1h-1v1h1v1h-1v-1l-2,-2l-2,-1v-1v3l-1,-1v-2l-1,-1v-1l-1,-1v-2l-1,-1v-2l-1,-1v-1l-1,-1v-3l-1,-1v-1l-1,-1v-5h-1v-5l-1,-1v-3l-1,-1v-1l-1,-1v-1l-2,-2v-1l-1,-1v-1h-1v1l-1,-1l-1,-2v-1l-1,-2l-1,-3l-1,-1v-2h-1v-1h-1v2h-1v-2h-1v-2h-1v-2h-1v-2h-1v-2l-1,-1h-1v-1h-1v1h1v2h-1v1h-1v-2h-1v-2l-1,-1v-2l-1,-1v-2h-1v-2h-1v-2h-1v-3l-1,-1v-1l-1,-2v-2l-1,-1v-1l-1,-2v-2l-1,-2v-1l-1,-1l-1,-2v-1l-1,-1l-1,-2v-1l-1,-1v-4h-1h1v1h-1v3l-1,-1v-2l-1,-1v-2l-1,-1v-2l-1,-4l-1,-1v-2l-1,-1v-2h-1v-1v2l-1,-1v-1l-1,-1v-1v1v-1v1l-1,-1v-3l-1,-1v-3l-1,-1v-4l-1,-2v-2"/>
<path class="sb" d="M2,460v-9l1,-1v1h-1v13l-1,1v14l1,-1v-8h1v-3h1v-6h1v-1h1v-2l1,-1v-1v1h1v-5l1,-2v-5l1,-1v-6h1M240,172l1,-2v-1l1,-1v-1l1,-1v-1h1l1,-1v-1h1l2,-1l1,-1l2,-1l1,-1h1l1,-1h1v-1h3l1,-1v-1h3l2,-1h1l2,-2h1l2,-2l2,-1l1,-1h1l1,-1h1l2,-1h1l1,-1v-1h-1h1v-3h2l1,-1l3,-1l1,-1h1l1,-1h4l1,-1h4v-1l2,-2l-1,-1h-1v-3l1,-1v-2l1,-1v-3l1,-1h-1l-1,-1M369,137l-1,-1v-9l-1,-1h-1l-1,-1h-1v-1l-1,-1v-1h-2v-1h-1v-4l1,-1h1l2,-2h1l2,-2v-1l1,-1v-4l2,-2v-1h-1l1,-1h1l1,-1M379,178v-1l-1,-1l-1,-2v-1h-3l-3,-1l-2,1h-1l-2,-2v-3l-2,-4l-1,-1v-1l1,-1h1l2,-1v-6l1,-2v-2l1,-3v-6l-2,-2v-1h1l1,-1h2l4,-4v-4l1,-1h2l1,-1v-1h1l2,-1h1l2,-1l1,-1v-3l1,-1M482,184v-30l1,-1v-16h-1v-4l-1,-1v-1l1,-1h1v-3h-1v-2l1,-1h1v-1h1M473,201v-4h9v-13h51v-1l1,-1v2h20l3,1h21M578,240v-3l-1,-2v-1l1,-1v-1l1,-2v-1l1,-1v-1l1,-1v-2l-1,-1l1,-1v-2h4v-1l1,-1h1l1,-1h3v-1h1v-1l1,-1h1M628,257l2,1h1v-1l1,-1h2M559,276v-3h1l1,-2v-1l-1,-2l3,-3l1,1h2v-5l1,-1v-2l3,-3l1,-2l1,-1h3l1,-1v-3l1,-1v-2l1,-2v-3h4v1l2,-2l3,3l1,-2v-1l1,-1v-1h1l1,1h1l2,2h3l2,-1h1v1h5l1,1h3l1,1l2,1h2v1l5,5l2,1l2,2l1,2h1v1h1l2,2l-2,2l-1,2h-1l-1,1v4l1,2h8v1h1M675,296h-2l-3,-1h-3l-5,-2l-6,-3l-6,-2l-7,-3h-1l-3,-3h-1l-1,-1v-1l-1,-2l-1,-1h-1v-1l-1,-1h-1v-2l-1,-1v-1l1,-1v-1h1l1,-2l1,-1v-1M626,324v-1l1,-1h7v-1h1l3,-3h2l2,-1h2l3,1h5l13,-13l3,-2l3,-3l3,-2l1,-2l3,-3l3,-6l1,-1v-12l-1,-2M570,308v1h4v5l2,2v1h8l2,2l4,2l1,1l2,1l1,1h1l2,1h3l2,1h5l2,-2v-1h1l5,-2l2,-1l3,3h1v1h1l1,-1h2l1,1l-1,1l-1,2l-2,3l-2,1l-1,1v31l1,2l3,3v1l1,1M175,227l1,-1h1l1,-1h2l1,-1h5v-1h2l2,-2v-1l2,-2v-1h1v-1h1v-1l1,-1v-1l1,-1v-2l1,-2l2,-2v-1h1l1,-1h1l3,-3v-1h1v-1h1v-1h1l4,-4v-1l1,-1v-1l1,-1v-1h1v-2h2l1,-1v-1h1v-1h1v-1h1v-1h1v-1l1,-1h1l1,-1h6l2,-2h1l1,-1h3v-1h1v-3h1v1l-1,1M174,231v-1l1,-1v-2h2l2,-1h1l2,-1h2l2,-1h2l2,-1h1l2,-1h2l2,-1h2v-1l1,-1v-4l1,-1v-3l4,-4h1v-1h1l1,-1h1l1,-1v-1l1,-1v-2l1,-1v-2l1,-1v-2l1,-1v-2l1,-1v-2l1,-1h3l1,-1h3l2,-1h2l1,-1h4l1,-1h3l1,-1v-1l1,-2v-1l1,-1v-3l1,1h1l1,1h1l1,1h1l1,1h2l1,1h1l1,1h1l1,1h1l1,1h1l2,2h2M192,267h2l1,-1v-1l1,-1v-2h1v-1l1,-1h2l1,1v1l1,1v-1l2,-2h4l1,-1h1l1,-1h1v-1h1v-1v1h4l1,-1h4l2,-1h3l1,-1h4l2,-1h3l1,-1h1l3,-6l-2,-2v-5l1,-2v-9l1,-1v-7l1,-2v-5l1,-2v-5l1,-2v-5l1,-1v-4l1,-1v-5l1,-2h4l2,-1h3l3,-1l1,1l4,2l1,1l14,7l2,2l12,6l1,1v2l3,1v1l1,1h3l1,1h5v4l-1,1v1h4l4,-2"/>
<path class="sb" d="M281,249h1l2,-1h2l2,-1l1,-2h4l2,-1h5l2,-1v-1h4l2,-2h1v-1h1v-2l2,-2v-2l1,-2v-1l1,-2v-7l1,-1v-6h2l2,-1h3l5,-2l1,-1l3,-2h1l4,-4l2,-1l4,-4l3,-1l4,-3l5,-2l4,-3l4,-2l5,-3l8,-4l4,-3l4,1h8l1,1l2,1l2,2l3,-1l3,-2M386,247l-1,-3v-3l1,-1l5,-7l9,-9l3,-2v-4l1,-3v-3l1,-4v-2l1,-2v-3l1,-1l1,-2v-1l-3,-3l1,-1l-2,-3h-1v-6l-1,-4l6,-2l3,-2l6,3l3,1l4,2l7,2l4,2l4,1l4,2l3,1l4,2l4,1l4,2l4,1l4,2l3,1l4,2v27h-8v1l-1,1v2l-1,1h-1v3h-2l-1,1v1h1v2l-1,1h-1l-1,1v2l1,1v1h-1v1l-3,3v1h5v3l1,1h-1l1,1v3l1,1h2v4M167,267l1,-1v-2l2,-2v-1h2l1,-1h1l1,-1h2v-1h2l2,-1h1l2,2v1h1v-1v1h1v-1h1v2l1,1v1h1v2h1v1h2v1l1,1v1l-1,1h1v5l-1,1l1,1v1h1v-1h1v2h1v2l-1,2v1M164,284l1,-1h2l2,-1h1l3,-3h1l1,1h1l1,1h1v-1h3l-2,2h-6v-1h-1v2h-2l-1,1h-1v2h-3l-1,1h-2v1M161,293h2v-1h2l2,-1l1,-1l2,-1l1,-1h1l2,-1h2l2,-1h2M170,302v-1l1,-1l1,-3l1,-1h1l1,-1h1l1,-1h1l1,-1v-3h-1l1,-1h1v-3l2,-1h2v1h6l1,-1h1l2,-1h1v1l-1,1h1v1h1l1,-1v-1h1l1,1v1h1v-1l2,-2h4l1,-1h1v-1h1v-2h2v1l1,1v4h1v1h1v2h-1l-1,2h1l1,-1h1v1l-1,1v1l1,1v1h1v1M234,291v-1l1,-1v-3l1,-1v-1l1,-1v-4h1v-1h1l2,-1l1,-1h1v-1h1v-3l2,-1v-2h-1v-1h1v-1h1v-1h2l2,1h1v-1h1v-2l1,-1h2v-1l1,-2v-1l2,-1l1,-1l2,1l1,-1l1,-2h2v-1l4,-2l3,-3h8l-1,1v3l1,1v2l1,1v1h3v1l1,1h1h-2v3l2,1l1,1h3l1,-1h1l1,1v1h-2v1h1v1l2,2M179,313h2v-1l3,-3v-2h1v-1l1,-1h2l1,-1l2,-1h3v1h1v1l1,1v1h1v1h-1v1h1v2l1,1l-2,2v1h1v-1l1,-1h1M189,328l1,-1v-1l3,-3v-1h1l2,-2v-2l1,-1v-1h1l1,-1v-2h1l2,-1h1v1h1v4h1v1l-1,1v1h1v1h3v-1l1,-1v-2h1v1h1M216,342v-7l1,-1v-4h-2v-1h-1v-2h-3l-1,-1v1l-1,-1l2,-2v-1l1,-1v-1l-1,-2v-2h2v-2l1,-1v-2h-1v-2h3v-1v1h1v-2l-1,-1h-1v-1h1v-1h1v-1h-1v-2h-1v-4l1,-1v-1h2v-1l1,-1h1v-1v1h1v1h2v-1l1,-1h2v-2h2v-1l1,-1v4h2v-1h1l1,-1h3l2,2v1h1v1h3l1,-1l2,-1h1v-1h5v1h1v1h1v1h1v-1M249,330h1v-1h1v-4h-1l-1,-1v-2l-1,-2v-4l2,-2v-2l1,-1v-2l1,-1v-1l1,-1h1v-1l1,-1l-1,-2v-4h-1v-1l1,-1v-9h-1v-2l1,-2h1l2,-1h4l2,-1h3l2,-1h2v1h1v-1h1v-1h1v-1h2M282,317v-1h-1l-1,-1h-1l-1,-1v-1l-1,-1v-2h1v-3h-1v-1l1,-2v-4h1v-2h-1l-1,-1v-1h1v-5h-2v-1h1v-3l1,-2v-1h-1l-1,-1h-1v-3l1,-1h-1v-1l2,1h3l2,-1M285,315l1,-1v-2h-1v-3h1v-17l-1,-1v-5l-1,-1l-2,-1l-1,-1v-2l1,-1v-2h2v-2h2v-1l1,-1h4l3,-3v-1h1v-3l1,-1h3l2,1v1l1,1h1l1,1"/>
<path class="sb" d="M294,313v-6l1,-2v-2h-1l1,-1l-1,-1l1,-2v-5l1,-3h2v-1l1,-1v-2l1,-1v-1h1l2,-2v-3h1l1,-2l-1,-1v-3l-1,-2v-1l1,-1v-4l1,-1v-1l1,-1l1,-2l2,-2v-3h1l2,-2h1l1,-1h4l1,-1h4l3,1v-1v1h1l1,1h1l1,2l1,1h1l1,-1h2l3,-2h3l5,2h7l2,-3h1l1,-1h3l4,-1h6l2,1h4v-1l2,-1h1v-1l2,-1h1l1,-1h3l1,1l1,2l1,1M341,320v-1l1,-1l1,-2v-2l1,-1v-2l7,-7v-1h1l2,-2l1,1h2v-1l1,-1l1,1h1l2,2v2h1l1,-1h1v-1h1v-2l2,-2h1l-1,-1v-1h1l1,-2v-1l2,-4v-1l3,-3h1v-1h1v-2l1,-1v-2l1,-1h2v-4l2,-1v-2l2,-4l3,-3h2l2,-2h1v-6h-1l-1,-1h-1l-1,-5h3l1,1v1h1l1,1v1l1,2v1l1,1v5h-1v2l1,2v1l1,1v1l3,3h-5l-2,1h-6v1l-1,1v1h1l1,1v1l1,1l2,1l2,2h1l1,1l3,6h1v2h-1M404,335v-2l-1,-1v-1h1l-2,-2h-1l-6,-6v-1h1v-1h-1v-2l-1,-1h-1l-1,-1v-4l-1,-1v-5h-1v-2h1l1,-1h1v-1l1,-2l1,-1v-1l1,-1v-1h1v-1l1,-1l1,-2h1l1,1h1l1,-1h1l1,-1h2v-1l1,-1l1,1v1l1,1v-1h1l2,-1l1,-1h2v-1h4l3,-1h3v-1l4,-4v-1h-2v-1h1l1,-1h7l1,-1h3l2,-1v-1h1l5,-5h1l1,-2h1v-1h1v-2l2,-1v-1h2l1,-1h5v1h1l2,3l2,2v1l1,2v4l-1,1v2l1,1h4v1M502,310l-2,-2v-3h-1v-1h-1l-2,-1v-1h-2l-1,-1v-1h-1v-1l1,-2h-1l-1,-1h-1v-1l-6,-3l-2,-2l1,-1v-1l-2,-1l-2,-2h-4v-1h-1v-2h-1l2,-2h2v-2l1,-1v-2h1v-3l2,-1v-2h1l1,-1v1l6,-1l-1,1h1v1l1,1h1l3,4h2l2,-1h8l1,2h7v-1l2,-2h3l1,-1v-1l1,-1l2,-1h1l4,2l2,2h4l5,-4v-1h1v-2l4,-3v-5l-3,-2h6v-2l4,1l-1,2v2l1,7l2,1l5,4v2l-1,1v2h2v8h-7l-1,1l-1,2v1l1,1h1l1,1h3l2,1v1l1,1v1l2,2h2v1l1,1h1v1l1,2v1l1,1v2l3,3l-2,1l-6,6l-2,1l-1,2M350,339h1v1h8l2,-1h2M349,350l1,-1v1h5l2,-1h6v-11h7l2,-1l1,1h3l2,-1h2v1M362,390v-1l1,-1l2,-1l1,1h2v-4h-1l-1,-1l1,-1h-1v-1h-1v-2h1l-1,-2h3v-1l1,1l4,-1v-2l-1,-1l1,-1h2l2,2v1l2,1h2l2,-2h1v1h1v1h2v-2l1,-1v-1l1,-1v-3l1,-1l-1,-2v-3l1,-2h-1v-1h-2v-1h-2l-1,-1l1,-1v-3l1,-1v-1h2v-1h1v-3l-1,-1v-2h-5l-1,1h-2l-1,1v-6l1,-1v-1h6l2,-1h3l1,1v-1v1h5v1l1,-1h1l2,1h1l1,1h1v-1l-1,-1v-1l1,-1v-1l2,-2v-1l1,-1v-5h1v-1h3l2,-1h1l1,-1h1l2,1h3v1l1,-1h1l1,-1v1h1v1M378,395h1v1h1l1,1l3,-3v-1h2l1,-1h2v-1v1h1v1h-1v2h1v1h3l1,-1l1,-3l2,-1l1,-1h1v-1h1l1,-1h1l2,-5v-2l1,-1l-1,-5v-2h1v-1l2,-2l2,-4l1,-1v-1l1,-1h1l2,-1l4,-4l-1,-2l2,-4v-8l1,-2v-1l1,-2v-2l1,-4l2,-4l1,-1v-11h1l1,-1l2,-3l3,-2h4l1,1l4,2l1,1v1h4l1,1h7l5,1v-1l1,-2l2,-2h3l1,1h1l1,-1h1l2,-1h1l2,-1h7l2,-1l1,-2h4l7,2h2l1,-1h1l3,1v1l2,1l1,1v1h2v1l1,1h3l1,-1h4l1,1l2,-1l1,-1h1l5,5l2,1h1v2h2v1"/>
<path class="sb" d="M521,363l-1,-2v-1l1,-1v-6l1,-1v-2l1,-1v-1h1v-3h1l1,-1v-1l2,-2l4,-3l3,-3v-2h-2v-1h-2v-2l1,-2h-1v-3l1,-1v-1h-1h1v-1l1,-1h3l1,1h1v-1h3v1l1,1h1v-1h1l2,-1h3l1,-1l2,1h3l2,-1l2,-2l1,3l1,1h1l1,1l-1,2l2,4h1v1h1v1l1,1v8h-1v3h-2v1h-1v1l-1,2h-1l-1,1v1l-1,1v1l-1,2v8M516,374h-1v-1l-1,-1l2,-2h1v-4l2,-2h1v-1h3v1h1l1,-1h1v-1h1v-1h2M519,389v-1l-1,-2l-1,-1v-9h-1v-3l1,1h1l1,1h3l1,-1v-1l1,-2l1,1h1v-1h2v1h1M530,421v-2l-1,-1l-1,-2v-1l-1,-1v-1l-1,-2h-1v-1l-1,-1l-2,-1l-1,-2l-1,-1v-3l1,-2v-1l-1,-1v-1l-1,-2l-1,-1v-2l1,-1v-2h3l2,-1l1,-2l1,-1v-1h1v-1l2,-2h1v-1h-1h1l1,-1v-2h-1l-1,-1h-1v-2l1,-2h2v-1h1v-2l-1,-1v-4l-3,-3h2l1,-1h12l2,1h14l1,1l6,3l1,1l10,5l3,3l8,4l3,3v1l-1,1v1h1v1h1v1l2,1l2,2l2,1l3,3l2,1h1M369,399l2,-2h1v-2h1l2,-1h1v-1l2,2l-1,1h-1l-1,2h-1l-1,1v1h1v5h-3M378,406l1,-1l1,1l1,-1h12l2,-1h12l2,2v3l1,1v1l1,2l1,1v1l1,1v1l1,1l2,3l1,1h4l1,-1h10v-3l1,-1v-2l1,-2l1,-1h3l1,-1h4l-1,2v1h11v7l1,2v7l-1,3l3,3l1,2l1,1v5h-1v3h1v1l2,-2h2l3,1v-1l2,-1h2l1,1h1l1,-1v-1M468,504l-2,-2l-2,-1l-2,-2l-1,-2l-2,-2h-1l-2,-6v-21l-1,-3v-2h17v-5l1,-1l-1,-2v-4l1,-1v-3l-1,-1v-1h1l1,1h1l1,1v1l-1,1h3l1,-1h4v-1l1,1h-1v1l1,1v1h1v1h1l2,1h4l1,1h4v-1h1v-2h1v-1l1,1v1l2,2v1l1,1h2v1h2l2,1h1v1l1,1v1l1,1h1v1l1,1v1h1v1h3l1,-1h1l1,1v1h1v-11h-3v2h-1l-1,-1h-1l-2,-2h-1l-1,-2h-1v-1l-1,-1v-3l1,-2v-2l1,-1v-9l-1,-1l-1,-3h1l3,-3v-1h1v-1l-1,-1h1l2,-1h5l2,-1h5l1,-1l1,1v1l2,2h3l1,1v1h1v1h2v1h2l1,1h2v1h1l2,1h1M551,472h-2l-2,-2v-1h-1l2,-2v-1l1,-1v-5h2l2,-1v-1h-1l-1,-2l1,-2v-3h-1v-1h1v-2h1l-1,-1v-2l1,-1l2,-1v-1l-1,-1v-2h-1l-1,-1v-1l1,-1h-1v-1h-1v-1h-2v-2l2,1h1l1,1h3l1,1h1v-2l1,1l2,1v1l2,2v5l1,1v1h-1v3h1v2h1l1,1v1M373,505h1l1,-1h5l2,-2h4l2,2h1l1,1h4l2,-1h12l3,-1h17v1l2,1v1h13l1,1h10l5,-2h3l3,-1h3l2,-1h2l1,-1h8l3,3M443,566v-4l-1,-3v-17h8l-1,-2v-25l-1,-3v-2h2l3,-1h4l4,-1l2,-1h4l3,3v1l4,-4h1l1,-1h1v1h1l2,-2h4M517,543l-1,-1h-1v-2l-1,-1h-2l-1,-1h-4l-1,-1v-1l-1,-1l-1,-2v-5h-4v-3l-1,-1h-2l-1,-1l-2,-1l-2,-2h-1v-2l-1,-2v-1h-1l-1,-2v-1l-2,-2v-1l-2,-2v-1h-1l1,-1h4l1,1h4l2,1h1l2,-1l4,-4l2,-4l6,-3l3,-1v-1l1,-1v-3h1v-1l4,-2h8M538,584v-8h-1M533,545l2,-2l1,-2l2,-1l4,-4v-2l1,-1v-3l2,-2l2,-4v-1l-1,-1v-6h-1v-2h1l1,-1v-2l1,-1v-1l-1,-1l1,-3v-4l-1,-2v-2l1,-1h-1l-1,-1h-1l-1,-1l-2,-1h-3l-2,-2h-2l-1,-2h-7v-4l-1,-2l-1,-1v-2h2l1,-1h1l2,-1h2l2,-1h2l1,-1h2l1,-1h2l5,-2h1l2,-1v1l1,2l2,2h4v-1h2l1,2v1l1,2v2l-2,2v2l-1,1v1l1,1v2l3,3l1,2h1v1h1l-1,1v1h2v-4l-1,-1l1,-1v-2h3l2,-2v-8l1,-1v-2l-2,-2l-2,-4l-4,-4l-2,-1l-1,-1v-7l-1,-1v-3l1,-1v-1l1,-1v-1h9l1,-1h1l1,1h1v1h5l1,-1h1l2,2h3l2,-2v-1h1v-1h2l1,1l2,1l2,-2h5l1,-1h1l1,-1h1l2,-1l1,-1l2,-1h1"/>
<path class="sb" d="M620,99l1,2h2v2h2l1,2h1l1,1h2l2,1h-1v2h1v1h1l-1,1h-1l-1,1v1h-1v1l1,1v1h-1l1,1l2,1v1l1,-1v1h1v1l2,1l-1,1h1l1,1h2l2,1l1,1l2,1h1l2,2l2,1l1,1l-1,1v2l1,1v1h2v1l1,1v1l1,1h1v1h1v1h1l1,1M644,145h1l2,-2v-2l1,-1h4l1,1M587,123h2l3,1h2l2,1h1l3,1l2,1l1,1l5,2l2,1l1,1l3,1l2,2l5,2l3,2l2,2l5,2v1h6l3,1h4l2,1h3l2,1l2,2v1h6M716,195h-2l-1,-1h-3l-2,-1h-2l-1,-1h-3l-2,-1h-2l-5,-5h-1v-1h-1v-1h-1v-1h-1v-1h-1v-2M698,217h2l1,-1h5l1,-1h4l1,-1h5l1,-1h1v-4l1,-1v-7h1v-1l-3,-3v-1h-1l-1,-1v-5l1,-1v-2h-1l1,-1h1v1h1l1,-1h-1v-1h-1v-1l-1,-1v-3h1v1l1,1h1v-1h1M719,176h-1v-2h-1v-1M629,228l1,-1h1v-1h1v-1h-1v-3h1h-1v-1h1l1,-1l1,1h1v1h13l1,1h1l2,1h2l2,1h4l2,2h3v-1l1,-1v-1l1,-1v-1l1,-1h1l1,-2h1l2,-1h2l1,-1h22v1l2,2v1l2,2v2h1v1l1,1v1l3,3v1l1,1v1l1,1M584,116v1l1,1l1,2v1l1,1h1l-1,1v1h-5l-2,1h-4l-2,1h-2l1,1l2,1l1,1l2,1l2,2l-2,1v1l-1,1h-6v1l-2,2l-2,1h-3l-2,-1h-3M561,120v2l1,2h-1v1M563,118h-1l-1,1v1h-1v-1h-2v1h-1v3h1l1,1h-1l-1,1v1h3l1,-1v3l-1,1v2h-1v2h1l-1,1v3M604,98h-1v1h-1l-1,1h-3v3l1,1v6l-1,1h-2l-4,2h-1l-4,2h-2l-1,1l-2,1h-2l-1,1l-2,1h-1l-2,1h-2l-2,1h-2l-1,-1h-2l-2,-2v-2h-1v-1M563,108h3l-1,1h2v2h-1l-1,1h1h-2v1h-1l1,1h-1M616,86h-2v1h-2v1h1v1l1,1v1h1v1h1v2h-1v1h2l1,1v1h1v1h1v1h-3l-1,-1h-4l-2,-1h-4l-1,1h-1v-1h-13l-2,1h-9l-1,-1h-6l-1,1h-3l-1,-1h-3v1l1,1v1h-2v1h-1v1l-1,-1h-1M616,86l-2,-1l-1,-1h-4l-2,-2l1,-1l-2,-2h-1M615,79h-10v-1h-2l-1,-1h-1l-1,-1h-1v1h-1l-1,-1h-5M977,355l-1,-1v-3l-1,-1v-3h-1v-3h-1v-1l-1,-2v-2h-1h1h-1v-2l-1,-2v-1l-2,-4v-2l-1,-1v-1l-1,-1v-1l-1,-1v-2l-1,-1v-1l-1,-1v-1l-1,-1v-1l-1,-1l-1,-3l-1,-1v-2h-1v-1l1,1v-2l-1,-1v-1l-1,-1v-2h-1v-2l-1,-1v1l-2,-2v-1l-1,-3l-1,-1v-2h-1v-1l-1,-1v-1l-1,-1l-1,-2v-1l-1,-1M974,352v1l1,1v1l1,1v1v-1l-1,-2v-1v1l1,-1h-1h1v3h1v-1v2l1,2v1l1,2v3l1,1v3l1,1v4h-1h1v1h-1v-1v2l1,1v3l1,1v1v-1h-1v-1l-1,-1v1v-1v2M947,286v4h1h-1l1,1v2M967,369v-1l-1,-1v-3l1,-1v-2l-1,-1h1v-1l-1,-3l-1,-1v-3l-1,-1v-1l-1,-1v-3l-1,-2v-2l-1,-1v-2l-1,-2l-2,-2v-3l-1,-1v-1l-1,-2l1,-1v1v-1l-1,-1v-3l-1,-1h1v-1h-1v-1v1v-1l-1,-1v-1l-1,-1v-2l-1,-2l-1,-1v-1l-1,-2l-1,-1v-1l-1,-1v-2l-1,-1v-1l-1,-1h1l-1,-3v-1l-1,-1v-3h-1h1v1h1l1,1v-1l-1,-1v-1v1h1v-1l-1,-1l2,2v1v-1l1,1v1h1v3l1,1v1l1,1h1v2l1,1v1l1,1v3l1,1v2h1v4h1v1v-2h1l-1,-1h1v2l1,1v1h1v-2l-1,-1h1v1l1,1v2l1,2l1,1l1,2v1l1,1v2l1,1v2l1,1v2l1,1v2l1,1v1l1,1v2h1v3l1,1v3l1,1v2l-1,-1v-1h-1v-1l-1,-1v-1h-1v6l1,1v3l1,1v2h1v4l1,3"/>
<path class="sb" d="M959,303v-1l-1,-1v-1v1v-1l-1,-1v-1l-1,-1v-1l-1,-1v-2h-1v-2l-1,-1v-1h-1v-2h-1v-1l-1,-1v-1l-1,-1v1l1,1l-1,-1v1l-1,-2v1v-1v1l-1,-1v-1l-1,-1v-1v2l-1,-1v1h1h-1h1v2h1v2l1,1v1l1,1v1l-1,-1v-1h-1v-2l-1,-1v1l-1,-1v-1h-1v-1l-1,-1v-2h-1v-1l-1,-1h-1v-3h-1v-3h-1v-1l-2,-2v-1l-1,-1v-1l-1,-1v-1l-1,-1v-1h-1v-1h-2v-2l-1,-1v-1h-1v-3l-1,-1v-2l-1,-1h1l-1,-1h1h-1v-2h-1h1h-1v-2l-1,-1v-1h-1v-1l-1,-1v-1l-1,-1v-1l-2,-2l-2,-3v-1h-1v-1l-1,-1v-1h-1v-1v2M809,143l2,2h1l1,1h1M853,146l-5,-5l-2,-1l-1,-2h-1l-1,-1h-1v-1l-3,-3h-1l-3,-3v-1h-1l-1,-1v-1h-1l-1,-1h-1l-1,-1v-1l-2,-1l-3,-3h-1l-1,-1h-1v-1h-1v-1h-2v-1h-1l-2,-2h-1v-1h-1v-1h-1v-1h-1v-1h-1v-1h-1v-1h-1l-2,-2h-1l-3,-3h-1v-1h-1v-1h-1l-1,-1h-1l-1,-1h-1v-1h-1v-1h-2v-1h-1v-1h-1l-1,-1h-1v-1h-1l-2,-2M799,99h-1v-1h-1v-1h-2v-1h-1v-1h-1l-1,-1h-1v-1h-1l-1,-1h-1v-1v1v-1h-1l-1,-1l1,1l-1,-1l1,1l-1,-1v1v-1h-1l1,1l-1,-1l1,1h1h-1h1h-1v1v-1h-1l-1,-1v1h1h-1M629,60v-1h-3l-1,-1h-1l1,-1v1h2l-2,-2h-1l-1,-1h-1l-1,-1h-1v-1h-5l-1,-1v-1h-1l-1,-1h-2v-2h1v-1h-2v-2h1v-2h1l1,1h1l1,1h1l1,1h2v-1h-1v-1h-1v-1h3v-1h4v-1h3l1,1h5l1,1h4l1,1h1l1,1h2v1h1l1,1h1l1,1v-1l-1,-1h1l1,1h1l1,1h4l1,-1l1,1h3l1,1h1v-1h1l1,1h2l1,1h1v1h4v1h1v-1h1l1,1h4v-1h-1l-1,-1h-2v-1h-3v-1h-1l-2,-1h3v-1h-2v-1h-1h3l-1,-1h-2v-1h1h-3v-1h-1v-1h1l1,1h4l2,1h6v1h1v-1h2v1h5l1,1v-1l1,1v-1h-1h3l1,1h2l1,1h2l1,1l2,1h1l1,1h1v1h1l1,1h3v1h3l1,1h2v1l1,1h2l1,1h2v-1l1,1v-1l1,1h1v1h1l6,3h1l1,1l2,1l1,1l3,1l2,1l3,2l1,1l3,2h1l2,1l1,1l2,1h-1v-1h1v1h1l1,1h1l1,1h1v1h2l1,1h2l1,1h1v1h1l1,1h1l1,1h1v1h1l1,1h1v1h1l1,1h1v1h1l1,1h2v1h1l1,1h1v1h1l1,1l-1,-1v1h1v1h1h-1v1h1l2,2h1v1h1v1h1h-2v-1h-2l-1,-1h-1l-2,-2h-1l4,4v1l1,1h1v1h1l1,1h1v1h-1v-1h-2v-1h-3v-1h-2v1h1l1,1h1v1h1v1h1v1h1v1h1l3,3h1v1h1h-1v1h1h-1v1h1l2,2M849,184v1h1v-1h1l1,1h1v1h1v1l2,1l4,4h1l1,1v1l2,2v-1h1v1l5,5v1h2v1l2,2h1l1,1v1l1,1h1v-1v1l1,1h1l-1,-1h1v1l1,1h1l1,1v1h2l1,1M891,218v-4h1l1,1v1h1v1h1l1,1h1v1h1v1l1,1M813,147h1v-1h1l1,1v1l5,5h1l1,1h1v1h1v1h-1l1,1v1l2,2h1v1l1,1h1v1l1,1v1h1v2h-1v-1h-1v-1h-1v1h1v1l2,1v2h1v1h1v2h2l2,2v1h1v1h2v1l1,1h1l2,2h1v1l1,1h1v1h1h-1v4l1,1l-1,1h1v1l2,2h1l3,3h1v1l3,3h1v1h2l2,2v1h1v1l2,1l1,1h1l1,1h2l2,1v1h1v2l2,1v1h1v1h2v1h1v1h1l1,1h1v1h1l1,1h1v1h1v1l1,-1v1h1l1,1v-1l-1,-1v-1l-2,-2l-1,-2v-2l-1,-1v-1v1h1v-1l2,2v1l1,2l1,1v1l1,1v1l1,1h1l3,3v-1h1v1h1v1h2v1h1l1,1h1l-1,-1v-1l-1,-1v-1h-1v-1h-1v-1h-1v-1h1v1h2v-1h-1v-3l1,1v-2h1v1h1l1,1v1h1v-1h-1h1l1,1h1v2h1v1l1,1v1l1,1v1h1v1h1l1,2l1,1v2h1v1l2,3l-2,-2v-1h-1v2h-1v1l2,2v2l1,1v3h1v1l1,1v3l1,1v2h1h-1l-1,-1v-1h-1l-1,-1v1l1,2h1v1l1,2l1,1v1h-1v-1v1h1v3l1,1v1h1h-1v1l1,1l-1,-1v-1h-1v1h1h-1"/>
<path class="sb" d="M793,132h1l1,1h1l2,1l1,1h1v1h1v1h1v1h1v2h2v1h1v1h2v1h1l4,4v1h-1v1l-1,-1h-4l-1,-1h-1l-1,-1h-1l-1,-1h-2v2h1v1h1v1h1l1,1h-1v1h1v1h1v2h1l1,1v1h1v1h2v1l2,2h2v1h1v1h-2l-1,1h1l1,2v2h1v1h-1v4l-1,1v5h-2l-1,1l1,1v1l-1,1v1h-5l-1,-1v-1h-1v-1h-2v3l-1,1v3h1l2,2h1l1,1v2l1,1v1l1,1h1l1,1h1v2h1l2,2l1,2v1h1h-1v1h1v1l-1,1h-1v-1l-1,-1h-2v1h-2v-1h-1l-1,-1h-3l-1,-1l1,2h-3M908,255v-1l-1,-2l-1,-1v-1l-1,-1v-2h-1v-1l-2,-2v-2l-1,-1v-2h-1l-1,-1v-1h-1v-1h-1v-1l-1,-2l1,1v-1h1v-1h-1v-1l-2,-2v-1h-1l-1,-1v-1l-1,-1l1,-1l-1,-1v-1v1l1,1h1v1l1,1v-1h-1h1v1h1v1l2,2v-1h-1l1,-1v1l3,6h1v1h1v1h1v1h1l1,1h1v1h2l1,1v1l1,1h1v1l-1,-1v1l1,1v2h-1v3h1l2,4v-1v1l1,1v1v-4h-1v-1h1v1l1,1v2h1v1l1,2l1,1v1l1,1v1l1,2v1h1l1,3v2h1h-1v-1h-1v-1v2h1v2l1,1M756,100l-1,-1v-1h2l2,1h1l1,1h2v1h2l1,1h1l-1,-1h-1v-2h1l1,1l2,1h1l1,1l2,1h2l1,1h4l1,1h1v1h2l1,1h1l1,1h2v1h1v1h1l1,1h1l1,1h1l2,2h-5v1h1v1h-1l-1,-1h-2l-1,-1h-1l1,1v2l-1,-1h-2l-1,-1v-1h-1v1l-1,-1h-1v1h1h-3v1l1,1v1M764,110h-1v1l-2,-2h-2l-1,-1h-1v1h1h-1v1h1v1h2l1,1h3l2,2h3l1,1h1v1h2l1,1v-1h1l1,1h3l1,1v1l1,1h1v1h1v1h1v1h3l2,1v1l1,1v1h1l1,1v1h1v1h1v1h1h-1v1M681,87l-2,-2v-1l-2,-2v-1l-1,-1l-1,-2v-1l-2,-2v-1l-2,-2v-1l-1,-1h12l1,1h2l1,1h1v1h1l1,1h2l1,1h1l1,1h1l1,1h2l2,2h1l2,2h1l1,1h1l1,1h4l1,1h3l1,1h5l1,1h1l2,2h1l2,2h2v1l2,2v1h1l1,1h1l5,5h3l1,1h2l1,1v1h1v1h2v1h1v-1h-1v-2h1l-1,-1h4v-1h3v1h-1l-1,1h1v1h2l2,2h2v1v-1h1h-1v-1l1,1h1v1h2v1h1v1h1l1,1h2l1,1h-3l1,1h-1v-1l-1,1h1h-2l-1,-1h-2l-1,-1h-2v-1h-1l1,-1l-1,-1h-1l-1,-1v1h-2l-1,-1h-1v1l1,1h1h-1l1,1l-1,-1h-1l1,1h-1h1v1v-1h-1v1h1h-1v1h-1l-1,-1h-3l2,2h1v1h2l1,1v1h1v1l1,1h1v1h1v1h-1v2l1,1v1M659,82l1,-1h2l1,-1h4v1h1l2,1h1l1,1h1v1l2,1l1,1h1l1,1h4l2,1h3l-2,-2v-1h1v-1l2,1h1v-1h2v1h1l-1,-1h-1v-1h-1h3l1,1h2v1h1l1,1h2l1,1h1v1h1v1h1h-1h1v2h1l2,1h3l1,1h3l2,2h1l6,6l2,1l1,1l4,2l1,1h1l1,1l4,2h1l1,1l6,3h1l1,1h1l1,1h1l1,1v1l2,2M622,77h3v1h1l1,1h1l2,2h3v-1h2v-1l1,-1M728,122l1,1h1l1,1h2l2,2v-1h1v1h1l1,-1v-2h5v-1h1v-2l-1,-1v-1h4v-1h1l1,1l2,1h2l2,1l1,1h3v1h1l1,1h2v-1h1v1v-1h1v1l1,1h1v-1l-1,-1h3v1h1v-1l-1,-1v-2h2l2,1l1,1v1l1,1h1l1,1v1l1,1v1l1,1v1h1l1,1h1v-1h2l1,-1h3v2h5v1h1v1v-1h-2l1,1h-3l-1,-1h-3l-1,-1h-2v1h-2v2h1v1h1v1l2,2v1h1v1l-1,1v2h1v1h1v1h-3l-1,-1l-2,-1v1l2,1v1l2,2v1h-3v1l1,1h-1v1l1,1l1,2v1h-2v-1h-3v-1h-1v1h-2l1,1l-1,1l-1,-1h-1l-1,-1h-1v2h-1v2h1v3h1v1h-4l-2,1l-1,-1h-5l-3,-1l-7,-1l-3,-1l-5,-3l-3,-1"/>
<path class="sb" d="M505,1h-1h1h-1l1,1h2l-1,1h4v1h-1h1h-1v1h2l1,1h1h-2l1,1h5v1h-2l-1,1h-3l-1,1h-4v1h-4M479,1h3v1h6v1h1h-1h1v1M511,1h-33v1h-1h1h-10l-1,1h-4v1h-4l-1,1h-3l-1,1h-3l-1,1h1h-1v1h-7l-1,1h-1v1h-1v1h-1l-1,1h2v1h-2v1h-1v1h-4v1h-1v1h-2"/>
<circle class="w4" cx="562" cy="749" r="6"/>
<circle class="c4" cx="562" cy="749" r="5"/>
<path class="sg" d="M 289.0674 952.5103 A 249.7500 74.1572, 0, 1 1, 709.9326 952.5103"/>
<path class="sg" d="M 73.9485 761.0457 A 432.5797 128.4441, 0, 1 1, 925.0515 761.0457"/>
<path class="sg" d="M 0.0000 499.5000 A 499.5000 148.3144, 0, 1 1, 999.0000 499.5000"/>
<path class="sg" d="M 73.9485 237.9543 A 432.5797 128.4441, 0, 0 1, 925.0515 237.9543"/>
<path class="sg" d="M 289.0674 46.4897 A 249.7500 74.1572, 0, 0 1, 709.9326 46.4897"/>
<path class="sg" d="M 6.5303 418.9943 A 476.4131 499.5000, -260.72504024, 0 0, 992.4697 580.0057"/>
<path class="sg" d="M 290.3217 45.9091 A 401.0351 499.5000, -204.75729616, 0 0, 708.6783 953.0909"/>
<path class="sg" d="M 424.0735 5.7277 A 218.2001 499.5000, -188.68511704, 0 0, 574.9265 993.2723"/>
<path class="sg" d="M 506.6911 0.0518 A 23.1014 499.5000, -179.17511200, 0 1, 492.3089 998.9482"/>
<path class="sg" d="M 593.2959 8.8855 A 258.2129 499.5000, -169.17676871, 0 1, 405.7041 990.1145"/>
<path class="sg" d="M 749.1892 66.8852 A 424.1365 499.5000, -150.00804811, 0 1, 249.8108 932.1148"/>
<text x="0" y="0" class="fs" transform="translate(94,298) rotate(101)">30W</text>
<text x="0" y="0" class="ft" transform="translate(94,298) rotate(101)">30W</text>
<text x="0" y="0" class="fs" transform="translate(279,249) rotate(97)">0E</text>
<text x="0" y="0" class="ft" transform="translate(279,249) rotate(97)">0E</text>
<text x="0" y="0" class="fs" transform="translate(523,233) rotate(90)">30E</text>
<text x="0" y="0" class="ft" transform="translate(523,233) rotate(90)">30E</text>
<text x="0" y="0" class="fs" transform="translate(761,256) rotate(82)">60E</text>
<text x="0" y="0" class="ft" transform="translate(761,256) rotate(82)">60E</text>
<text x="0" y="0" class="fs" transform="translate(929,311) rotate(78)">90E</text>
<text x="0" y="0" class="ft" transform="translate(929,311) rotate(78)">90E</text>
<text x="0" y="0" class="fs" transform="translate(598,841) rotate(8)">60S</text>
<text x="0" y="0" class="ft" transform="translate(598,841) rotate(8)">60S</text>
<text x="0" y="0" class="fs" transform="translate(668,615) rotate(8)">30S</text>
<text x="0" y="0" class="ft" transform="translate(668,615) rotate(8)">30S</text>
<text x="0" y="0" class="fs" transform="translate(693,359) rotate(7)">0N</text>
<text x="0" y="0" class="ft" transform="translate(693,359) rotate(7)">0N</text>
<text x="0" y="0" class="fs" transform="translate(666,140) rotate(6)">30N</text>
<text x="0" y="0" class="ft" transform="translate(666,140) rotate(6)">30N</text>
<path class="tb" d="M127,998h-2l-1,-1h-2l-1,-1h-2l-1,-1h-2v-1h-3v-1h-2l-1,-1h-2v-1h-2l-1,-1h-2v-1h-2v-1h-2l-1,-1h-2v-1h-2v-1h-2v-1h-2v-1h-2v-1h-2v-1h-2v-1h-2v-1h-2v-1h-1l-1,-1h-1v-1h-2v-1h-2v-1h-1v-1h-2v-1h-1l-1,-1h-1v-1h-2v-1h-1v-1h-2v-1h-1v-1h-1l-1,-1h-1v-1h-1v-1h-1l-1,-1h-1v-1h-1v-1h-1v-1h-2v-1h-1v-1h-1v-1h-1v-1h-1l-2,-2h-1v-1h-1v-1h-1v-1h-1v-1h-1v-1h-1v-1h-1v-1h-1v-1h-1v-1h-1v-1h-1v-1h-1v-1h-1v-2h-1v-1h-1v-1h-1v-1h-1v-1l-1,-1v-1h-1v-1h-1v-1l-1,-1v-1h-1v-1l-1,-1v-1h-1v-1l-1,-1v-1h-1v-2h-1v-2h-1v-1l-1,-1v-1l-1,-1v-1l-1,-1v-2h-1v-2h-1v-3h-1v-2h-1v-4h-1v-3h-1v-5h-1v-6l-1,-1v-17h1v-7h1v-4l1,-1v-3h1v-3h1v-3h1v-2l1,-1v-2h1v-2h1v-2h1v-2h1v-2h1v-2h1v-2h1v-1h1v-2h1v-1h1v-2h1v-1h1v-1l1,-1v-1h1v-1h1v-1l1,-1v-1h1v-1h1v-1h1v-1h1v-1h1v-1h1v-2h1v-1h1v-1h1v-1h1v-1h1l3,-3h1v-1h1v-1h1v-1h1v-1h1v-1h1v-1h1l1,-1h1v-1h1v-1h1v-1h1l1,-1h1v-1h1v-1h2v-1h1v-1h1v-1h2v-1h1v-1h2v-1h1v-1h2v-1h1l1,-1h1v-1h2v-1h1l1,-1h1v-1h2v-1h2v-1h2v-1h1l1,-1h1l1,-1h1l1,-1h1l1,-1h1l1,-1h2v-1h2v-1h2v-1h2l1,-1h2v-1h2v-1h2l1,-1h2v-1h3v-1h2l1,-1h2v-1h3v-1h3v-1h159v1h3v1h3v1h2l1,1h2v1h3v1h2l1,1h2v1h2v1h2l1,1h2v1h2v1h2v1h2l1,1h1l1,1h1l1,1h1l1,1h1l1,1h1v1h2v1h2v1h2v1h1l1,1h1v1h2v1h1l1,1h1v1h2v1h1v1h2v1h1v1h2v1h1v1h1v1h2v1h1v1h1l1,1h1v1h1v1h1v1h1l1,1h1v1h1v1h1v1h1v1h1v1h1v1h1l3,3h1v1h1v1h1v1h1v1h1v2h1v1h1v1h1v1h1v1h1v1h1v1l1,1v1h1v1h1v1l1,1v1h1v1h1v2h1v1h1v2h1v1h1v2h1v2h1v2h1v2h1v2h1v2h1v2l1,1v2h1v3h1v3h1v3l1,1v4h1v7h1v17l-1,1v6h-1v5h-1v3h-1v4h-1v2h-1v3h-1v2h-1v2l-1,1v1l-1,1v1l-1,1v1h-1v2h-1v2h-1v1l-1,1v1h-1v1l-1,1v1h-1v1l-1,1v1h-1v1h-1v1l-1,1v1h-1v1h-1v1h-1v1h-1v2h-1v1h-1v1h-1v1h-1v1h-1v1h-1v1h-1v1h-1v1h-1v1h-1v1h-1v1h-1v1h-1l-2,2h-1v1h-1v1h-1v1h-1v1h-2v1h-1v1h-1v1h-1l-1,1h-1v1h-1v1h-1l-1,1h-1v1h-1v1h-2v1h-1v1h-2v1h-1l-1,1h-1v1h-2v1h-1v1h-2v1h-2v1h-1l-1,1h-1v1h-2v1h-2v1h-2v1h-2v1h-2v1h-2v1h-2v1h-2v1h-2l-1,1h-2v1h-2v1h-2l-1,1h-2v1h-2l-1,1h-2v1h-3v1h-2l-1,1h-2l-1,1h-2l-1,1h-2Z"/>
<path class="tl" d="M169,986h1v1h-3l-1,-1h2v-1ZM114,989h-3l-1,-1h2l1,1ZM176,983h1l1,1v1h1l-1,1h-2l-1,1h-1l-1,-1l1,-1v-2h1v-1ZM124,980h2v1h-1ZM122,980l1,1h-1l-1,-1ZM136,977h1h-2ZM156,974v1l1,1h-5v-1l1,-1v-1l-1,-1l1,-1v1h1l1,1ZM158,964v1h-2v2h1l-2,2v1h1l1,1h1l4,4v1l1,1v1h-1v2h-1l-1,1h-1v1h-2l1,1h1v1h-2l1,1h1v1h3l1,1h3l1,1h3l1,1h1l1,1v-1h1v-1h2l2,-1l1,1h1v-1h4v-1h3l1,-1h-1v-1h-4l-1,-1l1,-1h1l2,-2h4l1,-1h1l2,-2h-1v-1h1v-1h2v-1l1,-1h1v1h1v-1h8v-1h3v-1h1l1,1h2v-1h1v1l1,-1h4v1h6v-1h3v-1h2v1h3l1,-1h3v-1h2l1,-1h2l1,-1h4v1h1v1h1l1,1h1l1,-1l1,1h2v1l-2,2h-1v1h1h-1v1h-1v1h2l2,-2h1v-1h3l1,-1h1v-1h2l1,-1h5v-1h1v1h5v1h1l1,-1l1,1l1,-1h1l2,-1v1l1,1h3l1,-1h2v1h1v1h4l1,-1v1h9l1,-1l-1,1v1h-1h3l1,1h2l-1,1v1h1v1h2v1h1v2h2l1,1v1h-1l-1,1h-2l-1,1h-3l-1,1h-2l-1,1h-2l-2,2v1h-5l-1,1h-2v1h-1v3h2l-11,4h-155l-11,-4h-1h2l1,-1l1,1h14l-1,-1h-7v-1h-2v-1h-3l-1,-1h4v-1h-2l-1,-1h-7l-1,-1l-2,-1l1,1l1,-1l2,1v-1h1v-1l-1,-1h-1h2v-1h2v-1h4l1,-1h5l1,-1l1,1v-1h1l1,1h1v-1l1,1h6v-1h-2l-1,-1h-1l-1,-1h4l1,1h1l1,-1h3l-1,-1h1l1,1l1,-1l1,1h3v-1l1,1h4v-1h2l1,-1v-1h-1v-1h-1v-1h-1v-1h-1v-2l-1,-1v-1h1v-2h1v-1h1v-1h1l1,-1l1,1ZM144,951l2,1h1v1h-1v-1v1h-4l-2,-2l-2,-1l2,1h2v-2h1v1ZM151,947h1v1h-2v1l-1,-1l1,-1ZM269,946h-1v-2h1l1,1ZM345,939v1h1l1,-1v1l-3,3v-1l-1,1h-1l1,-1v-1l1,-1v-1ZM368,943v1l1,-1v1h-1l-3,3h-1l-1,1h-1l-2,2h-2v1h-1v-1h-1v-1l4,-2h1l1,-1h2l2,-2h1l2,-2ZM376,936l-1,2l1,-1l-1,1l1,1h1l-2,2h-1l-2,2l-2,1h-1l2,-1v-2l1,-1l2,-1v-1l1,-1v-3l1,-1v1l1,1ZM382,913l-1,1v-2l-1,-1v-1h1v1l1,1ZM397,906v1l-1,1h-1v-1l1,-1v1ZM398,906h-1v-1h1l1,-1v1ZM10,905v-1ZM386,904v-1ZM386,901v2h-1v-1ZM259,895v2l1,1h-1v1v-1v2h-1v3l-3,6v2h-1l-1,1l-1,-1h-1v-5h1v-2l1,-1h-1v-3h1v-1h1l2,-2h1v-1l1,-1v-1l1,-1v1ZM361,898v1h1v1h1l-1,1v2h1l-1,2v1l2,2v4h1l-1,2l1,1v3l-1,1v2l-3,3v1l-1,1l-1,2h-1l-1,2h-1l-4,4v1h-2l-1,1h-1l-1,1v-1h-1l1,-1h-1l-1,1h-1v-1h-1v-3h1l-1,-1v-1l1,-1l-1,1h-1l3,-3l-2,1h-1l-1,2v-4l-2,-2h-2l-1,1h-4l-2,2h-4l-1,1v-1l-1,1h-2v-1h-1l1,-1v-1h1v-3l1,-1v-7l1,1v-3l1,-1v-1l1,-1l-1,1l2,-2h1l1,-1h2l1,-1h2v-1h1l1,-1v-2l1,-1v2l1,-1v-1h1v-1l2,-2h2v1h2v-2h1l1,-1v-1h2v-1h-1h1l1,1h3l1,1h-1v1h-1v1l-1,1v1l2,2v1h1l1,1h1v-1l1,-1v-1l1,-1v-3l1,-1v-2h1v-1v3l1,1Z"/>
<path class="tl" d="M383,894h-1v-1v1ZM337,892l-2,-1h2ZM381,893h-1v-1h1ZM382,892v-1l-1,-1h1ZM341,892h-1l3,-3h2l-1,1h-1l-1,1ZM335,889h1v1h-3l1,-1ZM340,889v1h-3v-1h2ZM381,890v1l-2,-2h1v1ZM378,889v-1h-1v-1l1,1ZM325,887h2v-1l2,1v1h2l1,1l-1,1l-1,-1h-4l-1,-1h-1l-2,-1h-1l1,-2h1l1,1ZM353,886v1v-2ZM377,888h-1v-2l-1,-1h1v2h1ZM373,885l-1,1h-1l-1,1l-1,-1h-1l1,-1l1,1v-1h2v-2h1v1ZM345,882h-1v-1h1ZM349,881v2l-1,-1h-2v-1h2ZM374,884l-1,-1v-1l-1,-1h-1h2v2h1ZM353,878v3l2,1v-2l2,-1h1l1,1h1l1,1l4,2v1h1v1l2,1v1h-1v1l1,1v2h1v1h1h-1l1,1l-1,1v-1h-2l-1,-1v-3h-3l-1,1v1h-2l-2,-2v1h-2l1,-2h1l-1,-2v-1l-2,-1h-1l-1,-2l-1,1l-1,-1h1l-1,-1l1,-1h-1v-1h-1l-1,-1h2v-1ZM343,875l-1,1h-4v1l1,2v-1h2l-1,1h-1l1,2v1l1,2v1h-1v-2l-1,1v-1l-1,-1l1,-1h-1v4h-1v-3h-1v-1l1,-1v-4h1v-1h4l1,-1ZM347,875v1h-1v1l1,1h-1v-4h1ZM321,885h-1l-2,-2v-1l-2,-2l-1,-2v-2l-1,-1v-1l-4,-4v-1h2l3,3l1,2h1l2,2h1l-1,2h1v1l1,1h1v3ZM335,874l1,1h-1v3l-1,1v1l-1,3v-1l-1,1l-1,-1h-1v-1l-1,1l-1,-1h-1l-2,-4v-2l1,-1h2v-2h2v-1l1,-1v-1h1l1,-1v-2h1v1l2,2v1h-1l-1,2l1,1ZM344,864v3l-1,-1v2l-2,-2h1l-1,-1v1l-1,-1l-1,1v-1l1,-1h2v-1h1v-1l1,1ZM294,868h-1v-1l-1,-2l1,-2l1,1v1l1,1v1ZM137,863h-1l1,-1h1ZM341,861v1l-1,1l-1,-1l1,-1v-1v1l1,-1ZM335,863l-1,1v-1l1,-1v-1l1,-1v1l-1,1ZM338,859h2v1l-1,1v-1h-1ZM342,858l1,2h-1v1v-1h-1v-1h1h-1v-1ZM338,857l-1,1l-1,-1h1ZM336,849h1v6h1l2,1v2l-1,-1v-1v1l-1,-1h-2v-1h1h-1l-1,-1v-5ZM133,851v1h-1v-1ZM121,852h-1v-1h2v1ZM126,849h3v1h1v1h-2l-1,1v-1h-1v-2h-1ZM324,849l-1,1h-1v-2l1,-1h1v1ZM37,846v-2h1v2ZM38,844h-1v-1h1ZM119,845h2l1,1v1h1v1h2l-1,1h-3v-1h-1v-2h-2l-1,-1h-1h1h-2l-1,1h-1l2,-2h3ZM122,843h-1v-1l1,-1v1ZM334,843v1l-2,-2v-2l1,-1l1,1ZM122,839l-1,1v-1ZM123,839v1v-1h-1ZM340,825h1v1h-1v1h-1v-2ZM240,828l-2,2v-1h-1h2ZM229,828v1h-1ZM220,825v2h-1l-1,-1h-1v-1h2ZM214,821v3h-1v-3ZM344,820v1l1,1v1l-1,1h-1l-1,2l-1,-1v-1l-2,1l-1,1h-1l2,1v3l-1,-1v-1h-1l-1,-1l1,-1v-3h3v-3l1,1v-2h1l-2,-4v-1l3,3v1ZM214,820v1l-1,-1v-1l1,-1ZM340,810l1,-1l1,2h-1v2l-2,-1l1,2h-1l-1,-2l-1,-1h1l-1,-2l-1,-1l3,1ZM144,812l1,1h1h-2ZM147,809h-1l-1,-1h1ZM92,806h-1l-1,-1v-2h-1v-1h1l1,1v1l1,1ZM153,807l-1,1h1v1h2l-1,1h1v1l-1,2l-1,-1l1,-1l-2,1v-1h-3l1,-1h-1l4,-4h1Z"/>
<path class="tl" d="M90,797h1l-2,2v1v-3ZM332,800l3,3l-2,-1l1,2l2,2v1l-2,-2l-1,-2l-6,-6v-1h-1h1l3,3ZM198,806l-1,1h-2l1,-2v-1l2,-2h1v3ZM216,801l-1,2l-1,-1v-1h1ZM79,791h-1v-1h2ZM202,797l-1,2h2v1l-1,1h1l2,4h1v1l-1,1h1l-1,1h-3l-1,1h-2l2,-2h-1v-1h1l-1,-1v-1h2l-1,-1h-1v-2l-1,-1l1,-2v-1l1,1ZM75,786h-1v-1h1ZM141,790l-1,1v-1ZM139,790h-2l1,-1h1ZM78,780v1h1h-2v-1ZM139,786h1v1h1l-1,1h1l-1,1l-1,-1h-1l-2,1l1,-1h-1h1l1,-1l1,-2ZM193,787v1l1,1l-1,1h-3l-1,1l-1,-1h-2l1,-1h-1h1v-1h-2l1,-1h1l1,1l2,-1h2ZM147,784h-1l1,-1h2l-1,1ZM81,776v1l1,-1h2l-1,2h-3l-1,1h-1l-1,-1h1v-1h-1h1h-2l-1,1l8,-5v1l-1,2ZM135,780l-1,1v-1h-1l1,-1h1ZM322,771h-1ZM88,771h-1h2ZM139,780l-1,2l2,-1v1h-1v1l1,-1l2,-1l1,-1h2v2h-1v1l-1,1l-2,1h-1v-1l-1,1l-2,1v1h-3l-2,2h-1l-1,1l-2,1l-1,1l-1,2h1l-1,1v1h1l3,3l2,1h1l-2,2v2l1,1h1l2,-4h-1l4,-2v-1l1,-1v-1l-1,-1l2,-1l2,-4l1,1h1l1,-1v1l1,1h1v2l-1,1l1,1h2l1,-2h1v3l1,1l-1,1l1,1v1h1l1,1v1l1,1l-2,2h-2l-2,2h-1l-2,-1h-2l-2,1l-1,1l-2,1l-1,1l2,-1l3,-1h2l-1,1l-1,2v1l1,1l2,-1l1,-1v1h1l-4,2h-1l-2,1v-1l2,-1h-3v1h-1l-1,1h-1l-2,2l1,1v-1v1h-3l-1,1l2,-1v1h-2l-2,2v1l-1,1l-1,-1l1,-1l-1,1v4l-1,1h-1l-1,1h-1l-3,3h-1v8l-1,1h-1v-3l-1,-1l1,-1l-1,-2l-1,1l-1,-1h-4v1h-1l-1,-1l-1,1l-1,-1l-2,2h-2v1h-1v3l-1,1v1l-1,2v4l1,1v1h1v1l1,-1h3v-1l1,-1v-1l1,-1h3v1l-1,1v2l-1,1v-1v2l-1,1v1h5v1h1v1l-1,1v3l-1,1h1v2h1v1h2l1,-1h1v1h1l1,1l1,-1v-2l1,-1h2l2,-2v2h-1h1v1l-1,1v1h1v-3h1v-1h1v1h1v1h3l1,1l1,-1h1l1,1h1v1l1,1h1v1h1v1l1,1l2,1v-1h1l1,1h1l1,1v1h1v1l1,2v1l-1,1l1,1h2v1v-1l4,2v1h1l3,1h1l2,1l2,2h2v5l-1,1l-1,2l-2,2v9l-1,2v2h-1v1h-2l-1,1h-1l-3,3v5l-1,2l-2,2v2l-2,2v-1l-1,1l-1,-1h-1v-1v1l1,1v1l1,1v2l-2,1h-3l1,1v2l-1,1l-1,-1h-1l1,2h2l-2,2l1,1v1h-1l-1,1v1l2,1h1v1l-1,1v2h-1v1l2,2h-1l-1,1v1h-1l-2,-1l-3,-3l-1,-3v-1l1,-1h-2l1,-2l-1,-2h1v-2l-1,-1v2l-1,-2v-4l-1,-1l-1,-2h1v-6l-1,-2v-8l-1,-2v-6l-1,-2l-1,-1l-2,-1l-3,-2l-1,-1v-1l-1,-2l-1,-3l-2,-3l-2,-2v-1l-1,-2l2,-2v-1h-1v-3l1,-1v-1h1v-2h1l1,-1v-5l-1,-1v-2h-1v1h-1v1h-1l-1,-1h-2v-2h-1v-1v1h-1v-3l-2,-2h1h-2v-1h-2l-1,-1l-1,-2h-1l-1,-1v1h-2l-1,-1h-2l-2,-2h-1l-1,-1v-1h-1v-3h1l-1,-1v-3l-1,-1v-1l-1,-1v-3h-1v-5l-1,-1l-1,1v4h1l-1,1h1v5h1v2h-1v-1l-1,-1v-3l-1,-1v1v-1h-1v-1h1v-9h-1v-1h-1v-9l2,-2v-1l1,-2l2,-2l1,-2l1,-1v-1h1v1l2,-2h-1v-2l-1,-1v-1l1,-1l-1,-1l1,-1v-1l1,-1l-1,-1l1,-1v-1l1,-1l-1,-1h-1v-2h-1v-1h-1l-1,-1h-1l-1,1h-4l1,-1l2,-1h-1l-1,1l-2,1h-1l-1,1l-2,1h-2l-2,1h-1l-1,1h-3l-1,1h-2l1,-1h2l2,-1h2l2,-1h1l2,-1l1,-1h-3l1,-1l-1,1h-1l2,-2h-1v-1l2,-2l2,-1h3l1,-1h1l1,-1h-3v-2h4l1,1l1,-1v-3h4l1,-1h2l2,-1l1,1l1,-1h1l-1,1h1l1,1h2l1,1h2v1l1,1l1,-1h6l1,-1v2l2,-1l-1,1h2l1,1h2v1l-2,1h4v1l2,-2h2v1h1l1,1h2v-1h1l1,1l-1,1l1,-1h1l1,-1v-2l1,-1l2,-1l1,1l-2,2Z"/>
<path class="tl" d="M128,774l-1,1h4l-1,1h1l2,-2v1l-1,2v1l1,1h-2v1h-8v-1h-1v-1h4l-1,-1h-3l2,-1h-1l1,-1h1ZM135,774l-2,1v-1h1ZM152,776v1l-1,-1l-1,1v-2h2ZM146,776v1l1,-1l2,-1v2h3l1,1l-1,1l2,-1v1l1,1v2h-1l2,2v1h1v1l-2,1h-1l-1,-2l-1,1v1l1,1v2l-1,1l-2,-2v1l1,1h-2l-2,-2v-1l-1,-1v1h-3v-1l1,-1h3l1,-1l2,-1v-1l-1,-1h-1l1,-1l-1,-1h-5l-1,-1h-1l1,-1h-1l1,-1l2,-1l1,-1h2ZM138,774h2l-1,1h-1l1,1l-2,1h-2v-2l1,1v-1ZM298,772h-2v-1ZM141,776l-2,1v-1l2,-2h2l1,1l-2,1ZM122,776h-2l-1,-1h1l2,-1l2,-2h2v1h2v1h-1l-3,1h-2ZM299,769v1h-3v-1h1ZM143,773v1l-1,-1h-1l1,-1h1l1,1ZM295,769l1,1h-2l-1,1l-2,-1l-1,-1h2ZM143,771h-1v1l-1,1h-2l1,-1h-1l1,-1h2ZM136,771h1v1h-4l-2,1h-1l1,-1h-1l-1,-1l2,-1h1l2,1l1,1v-2h2ZM246,780h-3l-2,-1v-1l1,-2h-1l1,-1l-1,-1h1l4,-2h2l-1,1l-2,1l-1,1v2l-1,1l1,1ZM145,770l1,1h1l-1,1h1l1,1h4v1h-7l-1,-1l1,-1v-1h-2l1,-1ZM134,769l-2,1h-4l2,-1h3ZM271,770l1,1v-1h2l2,1h1v1l-1,1h1l2,1v-1l1,1l1,-1h2l1,1h3l-2,-1h5l1,1v1h2l2,1l-1,-1h1l1,-1l2,1v-1h1l-2,-1h8l3,1l1,-1h2l2,2h2v-1h3l3,1v-1h-2v-1h7l8,5h-1l1,1l2,1h2v1h-1v1h-1l1,1v2l-2,-1v2l-1,-1v1h-1l2,2v1h1l3,2h-1l1,1h1v1l1,2h-1l1,2l1,1l-4,-2l-4,-3l-1,-2l-1,-1v-3l-1,-2v-1l-2,-2l-1,1l2,2l-3,-1l-1,1l1,2l1,1h-1l-1,1l-1,-1h-1v1h-4v7h1l2,1h1l-1,-1h1l3,1l1,2l1,1l1,2l2,2v9h-1l-1,-1v2h-1v1l1,1v1h-1v1l1,1h1l2,2v1l1,1v1l-1,1h-1l-1,-2l-1,-1h1l-2,-1v-1v1v-1h-1v-1l-1,-1h-2v1h-1l-1,-1l1,-1l-1,-1l-1,1v2h-1v1l2,2h1v-1h2l1,1l-2,1v2l2,2l1,2l2,1v2h1v6l-2,4l-1,1h-1v1l-1,-1v1l-2,1h-1v2l-1,-1v-1h-2l-1,2v2l1,1l1,2l2,2l1,3v4l-2,1v1l-2,1v-2l-1,-1h-1v-1l-2,-2h-1v-1h-1v6h1v3l1,1h1v1h1v1l1,1v3h1v2h-1l-2,-2v-1l-1,-1v-1l-1,-1v-2l-1,-1v-1h-1v-6l-1,-1v-1l-1,-2v-2l-1,-1l-2,2h-1v-3l-1,-2v-1h-1l-2,-2v-1l-1,-1h-1v2l-1,-1v1h-2v2l-2,1l-1,2v1l-2,2h-1v8l-1,1l1,1h-1l-1,1l-1,-1l-1,-2v-1l-1,-1v-1l-1,-2v-1l-3,-6v-3l-2,1h-1l-1,-2v-1l-2,-1l-1,-1v-1l-1,-1l-2,1h-5l-1,-1h-2v-2h-1l-1,1h-2l-3,-3l-1,-2l-1,1v-1l-1,1v2l1,1h1l1,1v2l1,1l-1,-1l1,-1v2h1v1l1,-1h2v-1l1,-1v-1v2l2,2h1l2,2l-1,1v1h-1v3h-1v1h-1v1h-2v1h-1l-2,2h-1l-2,2v-1l-1,1h-2v1h-2v-2l-1,-1v-3h-1v-1l-1,-1v-1l-1,-1h-1v-1l-1,-1v-3h-2v-2l-1,-1v-1l-2,-2v-1v1l-1,1l-1,-1l-1,-2l1,2l1,1l1,2v1l2,2h-1l2,2v1l1,1h-1l1,2v1l1,1l1,2v1l1,1l2,1v1h1v1h1v1l-1,1h1l1,1h3l1,-1h3v-1h1v2l-1,1v3l-1,1l-3,6l-1,1l-2,1l-1,1l-1,2v1h-1v1h-1v2l-1,1l-1,2l1,1v4l1,1v7l-1,1h-1l-3,3h-1v1l-1,1v2h1l-1,1h1v1l-1,1h1l-1,1h-1l-2,2v3l-3,3v1l-2,1v1l-1,1h-2v1l-1,-1v1l-1,-1l-1,1h-2l-1,1l-1,-1h-1v-5l-1,-1v-2l-1,-1v-1l-1,-1v-5l-1,-1v-1l-1,-2v-1l-1,-1v-3l1,-1v-3h1v-1l1,-1v-1h-1v-5l-1,-1v-2l-3,-3l-1,-2l1,-1v-5l-1,-1v-1l-1,1h-2l-1,-1v-1l-1,-1h-2l-1,1h-2l-1,1h-6l-1,1l-4,-4h-1l-1,-1v-1l-1,-1v-1h-1v-1l-1,-1v-1h-1v-3h-1l1,-1v-1h1l-1,-1l1,-1v-4l-1,-1v-1h1v-2l1,-1v-1h1v-2h1l1,-2h1l2,-2v-3l3,-3l1,-2v-1h1l1,1h2l1,-1h2l1,-1h4l1,-1h1v1h1l1,-1h1v1l1,-1v1h-1v1h1v2h-1v1h1v1h3l2,2h1l2,2l1,-1v-2l1,-1h2l1,1h1l1,1h2l1,1h1v-1h2l1,1v-1h1l1,1v-2l1,-1v-5h-2l-1,1l-1,-1h-2v1l-1,-1h-2v-1l-1,-1v-2l1,-1h1v-1h2l1,-1h1l2,-1l2,1l1,1h2l1,-1v-2h-1l-2,-2h-1l-1,-1l1,-1l-1,-1h2l-1,-1v1h-2l-1,1v1h1l-1,1h-1v-1h-1l1,-1h-2v-1h-1v1l-1,1v1h-1v4l1,1h-2v1h-1v-1h-2l1,1h-2v1l1,1h-1h1l1,1v1l-1,-1v1h-1l1,1h-2v-2l-1,-1v-1h-1v-3h-1v-1h-1l-1,-1h-1l-1,-1v-1l-1,-1v1v-1h-2v1l2,2v1l1,1h1l1,1h1l1,1v1l-1,-1h-1v1h1v1h-1v1h-1v-1h1l-1,-1v-1h-1l-1,-1h-1l-2,-2l-1,-2h-2v1h-4l-1,1v2h-2v1l-1,2h1l-1,1v1h-1l-1,1h-2l-1,1l-2,-2v1h-2l1,-1v-1h-1v-2l1,-1v-3l-1,-1l2,-1l1,1h5v-4l-1,-1v-1h-2v-1h3v-2l1,1l2,-1v-1h1l1,-1l1,-2l1,-1h2v-5h2l-1,1h1v1l-1,1v1h1v1l1,-1h2v1h1l2,-2l1,1h1v-1h1v-3l1,-1l1,1v-1l-1,-1v-1h4l1,-1h-4l-1,1l-2,-2v-4l2,-1v-1l-1,-1l-2,2l-1,2l-1,1v3h1v2h-1v2l-1,2h-1v1h-1v-2l-1,-1l-1,-2l-1,-1l-1,2h-1l-2,-1v-5l2,-1l3,-3l2,-3l3,-3h2l1,-2h3l2,1l-1,1h2l1,1h3l3,1l1,1v1l-1,1h-1l-3,-1h-1l2,1v2l1,1h1v-1h-1l1,-1l2,1v-1l1,-2h1l1,1v-1l-1,-1v-1l-1,-1l2,1h1l-1,1l1,1h1v-1l1,-1l2,-1h1v1l1,-1h1l1,-1l1,1l1,-1h-2l1,-1h2l1,1l4,1v-1h-2v-1h-1l-1,-1v-3h2l1,1v1h1l1,1l1,2h1v3l1,1v-1h1l-1,-1l1,-1h-1l-2,-2v-1l-2,-1l1,-1l-1,-1h1l1,2l-1,-1l1,-1h2l1,1l-1,-1l-1,-2h4l-2,-1v-1h1l1,-1h3l1,-1h1v-2l2,1h-1ZM253,820l1,1v2h-1v1l1,1h1l1,1h3l-1,-1v-2h-1v-2h1v-1l-1,-1h-1l1,1l-1,-1v-1h-2v-2h-1h1v-2l1,1v-3h-2l-1,1h-1v1h-1l-1,2l2,1v1l1,1Z"/>
<path class="tl" d="M146,770h-1v-1h1l1,1ZM137,769h-2l1,-1h1l1,1ZM220,771l-1,1h-1v-1h-1l2,-1v1ZM139,768h-2l1,-1v1ZM146,769h-1v-1h1l1,1ZM144,769h-1l-1,-1h-1h1v-1h1l1,1ZM268,768l-3,1v-2ZM215,769l3,1h-2v3h-1l-2,-1h1l-1,-1l-2,-1v-1l1,-1l1,1h1v-1h1ZM220,768h1l-1,1h-4l-1,-1h3ZM234,767l-1,1h-1v-1h-1h4ZM264,768h-4l-2,-1l-1,-1h1l1,-1l4,2ZM153,767v1h-1l-2,1h-2v-1h1h-1v-1l1,-1h2v-1h1v1h1ZM167,764h3v1h-3l-1,1h-1l-1,1l-2,1h-3v1h-1v1h-2l-2,1h1l-2,1h-4l-1,-1h2v-1h2v-1h-1h1l1,-1h1l-1,-1h4l-1,-1h-3v-1l1,-1h6v-1h3v1l2,-1l1,1ZM190,764l3,1h-6v1h5l-1,1l2,-1h4v1l-2,1h-1l-2,2v2l1,1h-2l1,1l-1,1v1h-1l1,1h-3l1,1v1l-1,-1l-1,1h1l1,1v1h-2l-1,-1v1l-1,1h3l-4,2h-3l-1,1l-4,2h-1l-2,1h-1v1l-2,2v1l-1,1l-1,2h-1l-1,-1h-1l-1,-1v-2l-1,-1v-1l1,-1l-1,-2l1,-1l1,-2h1l1,-1v-1l-1,1h-1v-1l1,-1h1l-1,-1h-1l1,-1v-4l-1,-1h-5v-1l-1,-1h1l-1,-1l1,-1h2l3,-1h1l-2,-1h1l3,-1h1v-1h9l1,1l-1,-1h1l2,-1h3l2,-1Z"/>
<path class="th" d="M226,910v1l1,1h-1v1h2v-1h1v-1h1v1h2v-2h1v-1h1v-1h1v-1h3v2h1v2h-1v1h-1v2h1v-1h1v2l-1,1h-1v2h-1v1h-1v1h-1v1h-1v1h-2v1h-6v1h-1v-1h-1v-5l-1,-1v-2h1v1v-1v1h2v-1h1v-4ZM235,916v-1l-1,1h-1h1h-1v2h2v-1ZM240,940v1ZM240,940h1Z"/>
<path class="tg" d="M66,970h1l1,-1h4v-1h5v-1h5v-1h6v-1h6l1,-1h7v-1h8v-1h9l1,-1h11v-1h14v-1h20v-1h79v1h20v1h14v1h11l1,1h9v1h8v1h7l1,1h6v1h6v1h5v1h5v1h4l1,1h1M21,927h6v-1h7v-1h8v-1h10v-1h10v-1h12v-1h14v-1h18v-1h23v-1h38v-1h75v1h38v1h23v1h18v1h14v1h12v1h10v1h10v1h8v1h7v1h6M5,877h399M21,826h4v1h7v1h8v1h9v1h10v1h11v1h14v1h16v1h21v1h32v1h103v-1h32v-1h21v-1h16v-1h14v-1h11v-1h10v-1h9v-1h8v-1h7v-1h4M66,783v1h5v1h4v1h5l1,1h5v1h6l1,1h6l1,1h7v1h10v1h10v1h13l1,1h17v1h36v1h21v-1h36v-1h17l1,-1h13v-1h10v-1h10v-1h7l1,-1h6l1,-1h6v-1h5l1,-1h5v-1h4v-1h5v-1M140,755h-1v1h-3v1h-2v1h-2v1h-2v1h-2v1h-2l-1,1h-1l-1,1h-1l-1,1h-1v1h-2v1h-2v1h-2v1h-1l-1,1h-1v1h-2v1h-1l-1,1h-1v1h-2v1h-1v1h-2v1h-1v1h-2v1h-1v1h-1l-1,1h-1v1h-1v1h-2v1h-1v1h-1v1h-1v1h-2v1h-1v1h-1v1h-1v1h-1v1h-1v1h-1l-1,1h-1v1h-1v1h-1v1h-1v1h-1v1h-1v1h-1v1h-1v1h-1v1l-1,1v1h-1v1h-1v1h-1v1h-1v1h-1v1l-1,1v1h-1v1h-1v1h-1v2h-1v1h-1v2h-1v1h-1v2h-1v1h-1v2h-1v2h-1v1h-1v2h-1v2h-1v2h-1v2h-1v2l-1,1v2h-1v2l-1,1v2h-1v3h-1v4h-1v4h-1v5h-1v9h-1v13l1,1v8h1v5h1v4h1v4h1v3h1v3h1v2h1v3h1v2h1v2h1v2h1v2h1v2h1v2h1v1l1,1v1h1v2h1v1h1v2h1v1h1v1h1v2h1v1h1v1l1,1v1h1v1h1v1h1v1l2,2v1h1v1h1v1h1v1h1v1h1v1h1v1h1v1h1v1h1v1h1v1h1v1h1v1h1v1h2v1h1v1h1v1h1v1h1v1h1l1,1h1v1h1v1h1v1h2v1h1v1h1l1,1h1v1h1v1h2v1h1v1h2v1h1l1,1h1v1h2v1h1v1h2v1h2v1h1l1,1h1v1h2v1h2v1h2v1h2v1h2v1h2v1h2v1h2l1,1h2v1h2v1h2M153,755h-1v1h-2v1h-2v1h-1v1h-2v1h-2v1h-1v1h-2v1h-1v1h-2v1h-1v1h-2v1h-1v1h-1v1h-2v1h-1v1h-1l-1,1h-1v1h-1v1h-1v1h-1v1h-1l-1,1h-1v1h-1v1h-1v1h-1v1h-1v1h-1v1h-1v1h-1v1h-1v1h-1v1h-1v1h-1v1h-1v1h-1v1h-1v1h-1v1h-1v1l-2,2v1h-1v1h-1v1h-1v1l-1,1v1h-1v1h-1v2h-1v1h-1v1l-1,1v1h-1v2h-1v1h-1v2h-1v1h-1v2h-1v2h-1v2h-1v2h-1v2h-1v2h-1v2h-1v3h-1v2h-1v3h-1v3h-1v3h-1v3h-1v4l-1,1v4h-1v6l-1,1v30h1v6h1v5h1v4h1v3h1v3l1,1v2l1,1v2h1v3h1v2h1v2h1v2h1v2l1,1v1h1v2h1v2h1v2h1v2h1v1h1v2h1v1h1v2h1v1h1v2h1v1h1v1h1v2h1v1h1v1h1v1l1,1v1h1v1h1v1h1v1h1v1h1v1h1v1l3,3v1h1l3,3h1v1h1v1h1v1h1v1h1v1h1v1h1v1h1l1,1h1v1h1v1h1v1h1l1,1h1v1h1v1h1l1,1h1v1h1v1h2v1h1v1h2v1h1v1h2v1h2v1h1v1h2v1h1l1,1h1v1h2M166,755h-1v1h-1v1h-1l-1,1h-1v1h-1v1h-1v1h-1v1h-1v1h-1l-2,2h-1v1h-1v1h-1v1h-1v1h-1v1h-1v1h-1v1h-1v1h-1v1l-2,2v1h-1v1h-1v1h-1v1h-1v1l-1,1v1h-1v1h-1v1h-1v2h-1v1h-1v1l-1,1v1h-1v1h-1v2h-1v1h-1v2h-1v2h-1v1h-1v2h-1v2h-1v2h-1v1l-1,1v1l-1,1v1l-1,1v2h-1v2h-1v2h-1v3h-1v2h-1v3h-1v3h-1v3h-1v3h-1v4h-1v4h-1v5h-1v6h-1v8h-1v30h1v7l1,1v5h1v5h1v4h1v4h1v3h1v3h1v3h1v3h1v3h1v2h1v2h1v2l1,1v2h1v2h1v2h1v2h1v1h1v2h1v2h1v2h1v1h1v2h1v1h1v2h1v1l1,1v1h1v1h1v2h1v1h1v1h1v1l1,1v1h1v1h1v1h1v1l1,1v1h1v1h1v1h1v1h1v1h1v1h1v1h1v1h1v1h1v1h1v1h1v1h1v1h1v1h1v1h1l2,2h1v1h1v1h1v1h1v1h2v1h1"/>
<path class="tg" d="M179,755h-1v1h-1v2h-1v1h-1v1h-1v1h-1v2h-1v1h-1v1l-1,1v1h-1v1l-1,1v1h-1v1l-1,1v1h-1v2h-1v1l-1,1v1h-1v2h-1v2h-1v2h-1v2h-1v2h-1v2h-1v2h-1v2h-1v2l-1,1v2h-1v2l-1,1v2h-1v3h-1v3h-1v3h-1v3h-1v4h-1v4h-1v4h-1v4h-1v5l-1,1v5h-1v8h-1v11h-1v29l1,1v10l1,1v7h1v6h1v5h1v4l1,1v4h1v3l1,1v3h1v3h1v3h1v3h1v3h1v3h1v2h1v3h1v2h1v2h1v2l1,1v2h1v2h1v1l1,1v1l1,1v1h1v2h1v2h1v1l1,1v1h1v2h1v1h1v2h1v1h1v2h1v1h1v1l1,1v1h1v1h1v1h1v2h1v1h1v1h1M192,755h-1v3h-1v2h-1v3h-1v3h-1v3h-1v3h-1v3h-1v3l-1,1v3h-1v4h-1v4h-1v4l-1,1v4h-1v5h-1v6h-1v6l-1,1v7h-1v8h-1v11l-1,1v18h-1v29l1,1v18h1v11h1v8l1,1v7h1v6h1v6h1v5h1v5h1v4h1v4h1v4h1v4h1v3h1v3l1,1v3h1v2l1,1v2h1v3h1v3h1v2h1M205,755v243M217,755h1v3h1v2h1v3h1v3h1v3h1v3h1v3h1v3l1,1v3h1v4h1v4h1v4l1,1v4h1v5h1v6h1v6l1,1v7h1v8h1v11l1,1v18h1v29l-1,1v18h-1v11h-1v8l-1,1v7h-1v6h-1v6h-1v5h-1v5h-1v4h-1v4h-1v4h-1v4h-1v3h-1v3l-1,1v3h-1v2l-1,1v2h-1v3h-1v3h-1v2h-1M230,755h1v1h1v2h1v1h1v1h1v1h1v2h1v1h1v1l1,1v1h1v1l1,1v1h1v1l1,1v1h1v2h1v1l1,1v1h1v2h1v2h1v2h1v2h1v2h1v2h1v2h1v2h1v2l1,1v2h1v2l1,1v2h1v3h1v3h1v3h1v3h1v4h1v4h1v4h1v4h1v5l1,1v5h1v8h1v11h1v29l-1,1v10l-1,1v7h-1v6h-1v5h-1v4l-1,1v4h-1v3l-1,1v3h-1v3h-1v3h-1v3h-1v3h-1v3h-1v2h-1v3h-1v2h-1v2h-1v2l-1,1v2h-1v2h-1v1l-1,1v1l-1,1v1h-1v2h-1v2h-1v1l-1,1v1h-1v2h-1v1h-1v2h-1v1h-1v2h-1v1h-1v1l-1,1v1h-1v1h-1v1h-1v2h-1v1h-1v1h-1M243,755h1v1h1v1h1l1,1h1v1h1v1h1v1h1v1h1v1h1l2,2h1v1h1v1h1v1h1v1h1v1h1v1h1v1h1v1h1v1l2,2v1h1v1h1v1h1v1h1v1l1,1v1h1v1h1v1h1v2h1v1h1v1l1,1v1h1v1h1v2h1v1h1v2h1v2h1v1h1v2h1v2h1v2h1v1l1,1v1l1,1v1l1,1v2h1v2h1v2h1v3h1v2h1v3h1v3h1v3h1v3h1v4h1v4h1v5h1v6h1v8h1v30h-1v7l-1,1v5h-1v5h-1v4h-1v4h-1v3h-1v3h-1v3h-1v3h-1v3h-1v2h-1v2h-1v2l-1,1v2h-1v2h-1v2h-1v2h-1v1h-1v2h-1v2h-1v2h-1v1h-1v2h-1v1h-1v2h-1v1l-1,1v1h-1v1h-1v2h-1v1h-1v1h-1v1l-1,1v1h-1v1h-1v1h-1v1l-1,1v1h-1v1h-1v1h-1v1h-1v1h-1v1h-1v1h-1v1h-1v1h-1v1h-1v1h-1v1h-1v1h-1v1h-1v1h-1l-2,2h-1v1h-1v1h-1v1h-1v1h-2v1h-1M256,755h1v1h2v1h2v1h1v1h2v1h2v1h1v1h2v1h1v1h2v1h1v1h2v1h1v1h1v1h2v1h1v1h1l1,1h1v1h1v1h1v1h1v1h1l1,1h1v1h1v1h1v1h1v1h1v1h1v1h1v1h1v1h1v1h1v1h1v1h1v1h1v1h1v1h1v1h1v1h1v1l2,2v1h1v1h1v1h1v1l1,1v1h1v1h1v2h1v1h1v1l1,1v1h1v2h1v1h1v2h1v1h1v2h1v2h1v2h1v2h1v2h1v2h1v2h1v3h1v2h1v3h1v3h1v3h1v3h1v4l1,1v4h1v6l1,1v14l1,1h-1v15h-1v6h-1v5h-1v4h-1v3h-1v3l-1,1v2l-1,1v2h-1v3h-1v2h-1v2h-1v2h-1v2l-1,1v1h-1v2h-1v2h-1v2h-1v2h-1v1h-1v2h-1v1h-1v2h-1v1h-1v2h-1v1h-1v1h-1v2h-1v1h-1v1h-1v1l-1,1v1h-1v1h-1v1h-1v1h-1v1h-1v1h-1v1l-3,3v1h-1l-3,3h-1v1h-1v1h-1v1h-1v1h-1v1h-1v1h-1v1h-1l-1,1h-1v1h-1v1h-1v1h-1l-1,1h-1v1h-1v1h-1l-1,1h-1v1h-1v1h-2v1h-1v1h-2v1h-1v1h-2v1h-2v1h-1v1h-2v1h-1l-1,1h-1v1h-2"/>
<path class="tg" d="M269,755h1v1h3v1h2v1h2v1h2v1h2v1h2l1,1h1l1,1h1l1,1h1v1h2v1h2v1h2v1h1l1,1h1v1h2v1h1l1,1h1v1h2v1h1v1h2v1h1v1h2v1h1v1h1l1,1h1v1h1v1h2v1h1v1h1v1h1v1h2v1h1v1h1v1h1v1h1v1h1v1h1l1,1h1v1h1v1h1v1h1v1h1v1h1v1h1v1h1v1h1v1l1,1v1h1v1h1v1h1v1h1v1h1v1l1,1v1h1v1h1v1h1v2h1v1h1v2h1v1h1v2h1v1h1v2h1v2h1v1h1v2h1v2h1v2h1v2h1v2l1,1v2h1v2l1,1v2h1v3h1v4h1v4h1v5h1v9h1v13l-1,1v8h-1v5h-1v4h-1v4h-1v3h-1v3h-1v2h-1v3h-1v2h-1v2h-1v2h-1v2h-1v2h-1v2h-1v1l-1,1v1h-1v2h-1v1h-1v2h-1v1h-1v1h-1v2h-1v1h-1v1l-1,1v1h-1v1h-1v1h-1v1l-2,2v1h-1v1h-1v1h-1v1h-1v1h-1v1h-1v1h-1v1h-1v1h-1v1h-1v1h-1v1h-1v1h-1v1h-2v1h-1v1h-1v1h-1v1h-1v1h-1l-1,1h-1v1h-1v1h-1v1h-2v1h-1v1h-1l-1,1h-1v1h-1v1h-2v1h-1v1h-2v1h-1l-1,1h-1v1h-2v1h-1v1h-2v1h-2v1h-1l-1,1h-1v1h-2v1h-2v1h-2v1h-2v1h-2v1h-2v1h-2v1h-2l-1,1h-2v1h-2v1h-2"/>
<rect x="211" y="896" width="40" height="55" fill-opacity="0" stroke="#ffffff" stroke-opacity="0.5" stroke-width="5.0"/>
<rect x="213" y="898" width="40" height="55" fill-opacity="0" stroke="#113311" stroke-opacity="0.8" stroke-width="5.0"/>
<rect x="212" y="897" width="40" height="55" fill-opacity="0" stroke="#45a249" stroke-opacity="0.9" stroke-width="5.0"/>
</svg>
